<svg xmlns="http://www.w3.org/2000/svg" viewBox="0 0 59.47 28.43"><defs><style>.cls-1,.cls-2,.cls-3{fill:none;}.cls-1{stroke:#7c439f;stroke-width:6.6px;}.cls-1,.cls-3{stroke-linejoin:round;}.cls-3{stroke:#2794da;stroke-linecap:round;stroke-width:0.25px;}.cls-4{fill:#fff;}</style></defs><title>10l</title><g id="Layer_2" data-name="Layer 2"><g id="barra_lateral_derecha" data-name="barra lateral derecha"><path class="cls-1" d="M14.35,20a5.88,5.88,0,0,1-.94,3.74,3.54,3.54,0,0,1-2.85,1.11,4.58,4.58,0,0,1-2-.39,2.55,2.55,0,0,1-1.18-1.42,8.23,8.23,0,0,1-.43-2.78L6.85,8.22A5.12,5.12,0,0,1,4.3,7.65a2,2,0,0,1-1-1.89A2.12,2.12,0,0,1,4.22,4a4.15,4.15,0,0,1,2.57-.7l1.83,0h1.67a4.73,4.73,0,0,1,3.21.8,3.73,3.73,0,0,1,.83,2.76Z"/><path class="cls-1" d="M17.32,22.67a2.13,2.13,0,0,1,.92-1.78,4.38,4.38,0,0,1,2.61-.68c2.35,0,3.52.82,3.52,2.46a2.36,2.36,0,0,1-.45,1.51,2.27,2.27,0,0,1-1.2.76,8.13,8.13,0,0,1-1.88.19,5,5,0,0,1-2.52-.58A2,2,0,0,1,17.32,22.67Z"/><path class="cls-1" d="M34.07,20a5.82,5.82,0,0,1-.94,3.74,3.5,3.5,0,0,1-2.84,1.11,4.55,4.55,0,0,1-2-.39,2.51,2.51,0,0,1-1.18-1.42,8.23,8.23,0,0,1-.43-2.78L26.58,8.22A5.09,5.09,0,0,1,24,7.65a2,2,0,0,1-1-1.89A2.1,2.1,0,0,1,24,4a4.13,4.13,0,0,1,2.57-.7c.43,0,1,0,1.83,0H30a4.81,4.81,0,0,1,3.22.79,3.76,3.76,0,0,1,.82,2.77Z"/><path class="cls-1" d="M46.75,25.1A11.52,11.52,0,0,1,43,24.53a8.38,8.38,0,0,1-3-1.79,7.8,7.8,0,0,1-2.07-3.37,15.4,15.4,0,0,1-.72-5,17.43,17.43,0,0,1,.71-5.3,8,8,0,0,1,2-3.43,8.22,8.22,0,0,1,3-1.78,12,12,0,0,1,3.81-.55,10.72,10.72,0,0,1,3.79.63,8.22,8.22,0,0,1,3,1.92,8.75,8.75,0,0,1,2,3.45,16.6,16.6,0,0,1,.69,5.06,15.67,15.67,0,0,1-.72,5,8,8,0,0,1-2,3.35,8.22,8.22,0,0,1-3,1.79A11.4,11.4,0,0,1,46.75,25.1Zm1.75-6.5a13.75,13.75,0,0,0,.58-4.26A14,14,0,0,0,48.47,10c-.41-1.27-1-1.91-1.71-1.91a1.61,1.61,0,0,0-1.34,1,7.24,7.24,0,0,0-.83,2.38,16.63,16.63,0,0,0-.26,3,12.71,12.71,0,0,0,.63,4.2c.42,1.21,1,1.82,1.79,1.82S48.11,19.78,48.5,18.6Z"/><path class="cls-2" d="M14.35,20a5.88,5.88,0,0,1-.94,3.74,3.54,3.54,0,0,1-2.85,1.11,4.58,4.58,0,0,1-2-.39,2.55,2.55,0,0,1-1.18-1.42,8.23,8.23,0,0,1-.43-2.78L6.85,8.22A5.12,5.12,0,0,1,4.3,7.65a2,2,0,0,1-1-1.89A2.12,2.12,0,0,1,4.22,4a4.15,4.15,0,0,1,2.57-.7l1.83,0h1.67a4.73,4.73,0,0,1,3.21.8,3.73,3.73,0,0,1,.83,2.76Z"/><path class="cls-2" d="M17.32,22.67a2.13,2.13,0,0,1,.92-1.78,4.38,4.38,0,0,1,2.61-.68c2.35,0,3.52.82,3.52,2.46a2.36,2.36,0,0,1-.45,1.51,2.27,2.27,0,0,1-1.2.76,8.13,8.13,0,0,1-1.88.19,5,5,0,0,1-2.52-.58A2,2,0,0,1,17.32,22.67Z"/><path class="cls-3" d="M34.07,20a5.82,5.82,0,0,1-.94,3.74,3.5,3.5,0,0,1-2.84,1.11,4.55,4.55,0,0,1-2-.39,2.51,2.51,0,0,1-1.18-1.42,8.23,8.23,0,0,1-.43-2.78L26.58,8.22A5.09,5.09,0,0,1,24,7.65a2,2,0,0,1-1-1.89A2.1,2.1,0,0,1,24,4a4.13,4.13,0,0,1,2.57-.7c.43,0,1,0,1.83,0H30a4.81,4.81,0,0,1,3.22.79,3.76,3.76,0,0,1,.82,2.77Z"/><path class="cls-3" d="M46.75,25.1A11.52,11.52,0,0,1,43,24.53a8.38,8.38,0,0,1-3-1.79,7.8,7.8,0,0,1-2.07-3.37,15.4,15.4,0,0,1-.72-5,17.43,17.43,0,0,1,.71-5.3,8,8,0,0,1,2-3.43,8.22,8.22,0,0,1,3-1.78,12,12,0,0,1,3.81-.55,10.72,10.72,0,0,1,3.79.63,8.22,8.22,0,0,1,3,1.92,8.75,8.75,0,0,1,2,3.45,16.6,16.6,0,0,1,.69,5.06,15.67,15.67,0,0,1-.72,5,8,8,0,0,1-2,3.35,8.22,8.22,0,0,1-3,1.79A11.4,11.4,0,0,1,46.75,25.1Zm1.75-6.5a13.75,13.75,0,0,0,.58-4.26A14,14,0,0,0,48.47,10c-.41-1.27-1-1.91-1.71-1.91a1.61,1.61,0,0,0-1.34,1,7.24,7.24,0,0,0-.83,2.38,16.63,16.63,0,0,0-.26,3,12.71,12.71,0,0,0,.63,4.2c.42,1.21,1,1.82,1.79,1.82S48.11,19.78,48.5,18.6Z"/><path class="cls-4" d="M14.35,20a5.88,5.88,0,0,1-.94,3.74,3.54,3.54,0,0,1-2.85,1.11,4.58,4.58,0,0,1-2-.39,2.55,2.55,0,0,1-1.18-1.42,8.23,8.23,0,0,1-.43-2.78L6.85,8.22A5.12,5.12,0,0,1,4.3,7.65a2,2,0,0,1-1-1.89A2.12,2.12,0,0,1,4.22,4a4.15,4.15,0,0,1,2.57-.7l1.83,0h1.67a4.73,4.73,0,0,1,3.21.8,3.73,3.73,0,0,1,.83,2.76Z"/><path class="cls-4" d="M17.32,22.67a2.13,2.13,0,0,1,.92-1.78,4.38,4.38,0,0,1,2.61-.68c2.35,0,3.52.82,3.52,2.46a2.36,2.36,0,0,1-.45,1.51,2.27,2.27,0,0,1-1.2.76,8.13,8.13,0,0,1-1.88.19,5,5,0,0,1-2.52-.58A2,2,0,0,1,17.32,22.67Z"/><path class="cls-4" d="M34.07,20a5.82,5.82,0,0,1-.94,3.74,3.5,3.5,0,0,1-2.84,1.11,4.55,4.55,0,0,1-2-.39,2.51,2.51,0,0,1-1.18-1.42,8.23,8.23,0,0,1-.43-2.78L26.58,8.22A5.09,5.09,0,0,1,24,7.65a2,2,0,0,1-1-1.89A2.1,2.1,0,0,1,24,4a4.13,4.13,0,0,1,2.57-.7c.43,0,1,0,1.83,0H30a4.81,4.81,0,0,1,3.22.79,3.76,3.76,0,0,1,.82,2.77Z"/><path class="cls-4" d="M46.75,25.1A11.52,11.52,0,0,1,43,24.53a8.38,8.38,0,0,1-3-1.79,7.8,7.8,0,0,1-2.07-3.37,15.4,15.4,0,0,1-.72-5,17.43,17.43,0,0,1,.71-5.3,8,8,0,0,1,2-3.43,8.22,8.22,0,0,1,3-1.78,12,12,0,0,1,3.81-.55,10.72,10.72,0,0,1,3.79.63,8.22,8.22,0,0,1,3,1.92,8.75,8.75,0,0,1,2,3.45,16.6,16.6,0,0,1,.69,5.06,15.67,15.67,0,0,1-.72,5,8,8,0,0,1-2,3.35,8.22,8.22,0,0,1-3,1.79A11.4,11.4,0,0,1,46.75,25.1Zm1.75-6.5a13.75,13.75,0,0,0,.58-4.26A14,14,0,0,0,48.47,10c-.41-1.27-1-1.91-1.71-1.91a1.61,1.61,0,0,0-1.34,1,7.24,7.24,0,0,0-.83,2.38,16.63,16.63,0,0,0-.26,3,12.71,12.71,0,0,0,.63,4.2c.42,1.21,1,1.82,1.79,1.82S48.11,19.78,48.5,18.6Z"/></g></g></svg>