<svg xmlns="http://www.w3.org/2000/svg" viewBox="0 0 83.07 39.9"><defs><style>.cls-1{fill:none;stroke:#fff;stroke-linecap:round;stroke-linejoin:round;stroke-width:7.9px;}.cls-2{fill:#512573;}</style></defs><title>10lsi</title><g id="Layer_2" data-name="Layer 2"><g id="barra_lateral_derecha" data-name="barra lateral derecha"><path class="cls-1" d="M19.66,28.46q0,3.84-1.34,5.47a4.92,4.92,0,0,1-4.05,1.64A6.29,6.29,0,0,1,11.38,35,3.63,3.63,0,0,1,9.7,32.91a12.48,12.48,0,0,1-.62-4.07L9,11.16a7.17,7.17,0,0,1-3.63-.83A3,3,0,0,1,4,7.55,3.15,3.15,0,0,1,5.26,5,5.85,5.85,0,0,1,8.92,4l2.6,0,2.37,0c2.26,0,3.79.39,4.57,1.16s1.17,2.13,1.17,4.05Z"/><path class="cls-1" d="M23.89,32.34a3.09,3.09,0,0,1,1.31-2.6,6,6,0,0,1,3.7-1q5,0,5,3.6a3.5,3.5,0,0,1-.65,2.21,3.11,3.11,0,0,1-1.7,1.11,10.4,10.4,0,0,1-2.67.29,6.85,6.85,0,0,1-3.58-.86A2.92,2.92,0,0,1,23.89,32.34Z"/><path class="cls-1" d="M47.71,28.46q0,3.84-1.34,5.47a4.92,4.92,0,0,1-4,1.64,6.37,6.37,0,0,1-2.9-.57,3.68,3.68,0,0,1-1.67-2.09,12.48,12.48,0,0,1-.62-4.07l-.08-17.68a7.17,7.17,0,0,1-3.63-.83A3,3,0,0,1,32,7.55,3.15,3.15,0,0,1,33.31,5,5.85,5.85,0,0,1,37,4l2.6,0,2.36,0c2.27,0,3.8.38,4.58,1.16s1.17,2.12,1.17,4.05Z"/><path class="cls-1" d="M65.73,35.9a16,16,0,0,1-5.31-.83,11.88,11.88,0,0,1-4.28-2.63,11.65,11.65,0,0,1-2.94-4.93,23.46,23.46,0,0,1-1-7.35,26.62,26.62,0,0,1,1-7.77,11.73,11.73,0,0,1,2.9-5,11.38,11.38,0,0,1,4.24-2.6A16.57,16.57,0,0,1,65.75,4a14.91,14.91,0,0,1,5.38.92,11.57,11.57,0,0,1,4.21,2.82,12.7,12.7,0,0,1,2.8,5.05,24.89,24.89,0,0,1,1,7.42,23.68,23.68,0,0,1-1,7.37,11.62,11.62,0,0,1-2.88,4.91A11.44,11.44,0,0,1,71,35.07,15.9,15.9,0,0,1,65.73,35.9Zm2.49-9.53a20.75,20.75,0,0,0,.83-6.23,21.7,21.7,0,0,0-.87-6.43q-.87-2.79-2.43-2.79a2.28,2.28,0,0,0-1.91,1.42,11,11,0,0,0-1.18,3.48,25.32,25.32,0,0,0-.37,4.34,19.47,19.47,0,0,0,.89,6.16c.6,1.77,1.45,2.66,2.55,2.66S67.66,28.11,68.22,26.37Z"/><path class="cls-2" d="M19.66,28.46q0,3.84-1.34,5.47a4.92,4.92,0,0,1-4.05,1.64A6.29,6.29,0,0,1,11.38,35,3.63,3.63,0,0,1,9.7,32.91a12.48,12.48,0,0,1-.62-4.07L9,11.16a7.17,7.17,0,0,1-3.63-.83A3,3,0,0,1,4,7.55,3.15,3.15,0,0,1,5.26,5,5.85,5.85,0,0,1,8.92,4l2.6,0,2.37,0c2.26,0,3.79.39,4.57,1.16s1.17,2.13,1.17,4.05Z"/><path class="cls-2" d="M23.89,32.34a3.09,3.09,0,0,1,1.31-2.6,6,6,0,0,1,3.7-1q5,0,5,3.6a3.5,3.5,0,0,1-.65,2.21,3.11,3.11,0,0,1-1.7,1.11,10.4,10.4,0,0,1-2.67.29,6.85,6.85,0,0,1-3.58-.86A2.92,2.92,0,0,1,23.89,32.34Z"/><path class="cls-2" d="M47.71,28.46q0,3.84-1.34,5.47a4.92,4.92,0,0,1-4,1.64,6.37,6.37,0,0,1-2.9-.57,3.68,3.68,0,0,1-1.67-2.09,12.48,12.48,0,0,1-.62-4.07l-.08-17.68a7.17,7.17,0,0,1-3.63-.83A3,3,0,0,1,32,7.55,3.15,3.15,0,0,1,33.31,5,5.85,5.85,0,0,1,37,4l2.6,0,2.36,0c2.27,0,3.8.38,4.58,1.16s1.17,2.12,1.17,4.05Z"/><path class="cls-2" d="M65.73,35.9a16,16,0,0,1-5.31-.83,11.88,11.88,0,0,1-4.28-2.63,11.65,11.65,0,0,1-2.94-4.93,23.46,23.46,0,0,1-1-7.35,26.62,26.62,0,0,1,1-7.77,11.73,11.73,0,0,1,2.9-5,11.38,11.38,0,0,1,4.24-2.6A16.57,16.57,0,0,1,65.75,4a14.91,14.91,0,0,1,5.38.92,11.57,11.57,0,0,1,4.21,2.82,12.7,12.7,0,0,1,2.8,5.05,24.89,24.89,0,0,1,1,7.42,23.68,23.68,0,0,1-1,7.37,11.62,11.62,0,0,1-2.88,4.91A11.44,11.44,0,0,1,71,35.07,15.9,15.9,0,0,1,65.73,35.9Zm2.49-9.53a20.75,20.75,0,0,0,.83-6.23,21.7,21.7,0,0,0-.87-6.43q-.87-2.79-2.43-2.79a2.28,2.28,0,0,0-1.91,1.42,11,11,0,0,0-1.18,3.48,25.32,25.32,0,0,0-.37,4.34,19.47,19.47,0,0,0,.89,6.16c.6,1.77,1.45,2.66,2.55,2.66S67.66,28.11,68.22,26.37Z"/></g></g></svg>