<svg xmlns="http://www.w3.org/2000/svg" viewBox="0 0 44.44 28.4"><defs><style>.cls-1{fill:none;stroke:#7c439f;stroke-width:6.6px;}.cls-2{fill:#fff;}</style></defs><title>10n</title><g id="Layer_2" data-name="Layer 2"><g id="barra_lateral_derecha" data-name="barra lateral derecha"><path class="cls-1" d="M13.59,18.89h3.59c1.81,0,2.71,1,2.71,3A3.06,3.06,0,0,1,19,24.37,4.85,4.85,0,0,1,16,25.1H7.21a5.61,5.61,0,0,1-3.09-.6c-.55-.4-.82-1.26-.82-2.57a4.15,4.15,0,0,1,.13-1.12,2.66,2.66,0,0,1,.49-.92,4.2,4.2,0,0,1,1-.87c1.16-.78,2.08-1.4,2.75-1.88s1.32-1,2-1.5A10.22,10.22,0,0,0,11,14.28,7.42,7.42,0,0,0,11.83,13a4.71,4.71,0,0,0,.49-1.42,11.52,11.52,0,0,0,.11-1.68c0-1.21-.38-1.81-1.13-1.81s-1.23.71-1.23,2.13a1.51,1.51,0,0,1-.78,1.55A5.66,5.66,0,0,1,7,12.13a3.44,3.44,0,0,1-2.8-.91,4.78,4.78,0,0,1-.73-3,4.18,4.18,0,0,1,2-3.51A9.44,9.44,0,0,1,11,3.3q8.8,0,8.79,6.69a10.8,10.8,0,0,1-.35,2.83A8.41,8.41,0,0,1,18.57,15a6.81,6.81,0,0,1-1.41,1.63,13,13,0,0,1-1.66,1.26A21,21,0,0,1,13.59,18.89Z"/><path class="cls-1" d="M31.72,25.1A11.46,11.46,0,0,1,28,24.53a8.51,8.51,0,0,1-3-1.79,7.88,7.88,0,0,1-2.06-3.37,15.39,15.39,0,0,1-.73-5,17.11,17.11,0,0,1,.72-5.3,7.76,7.76,0,0,1,2-3.43,8.14,8.14,0,0,1,3-1.78,12,12,0,0,1,3.81-.55,10.8,10.8,0,0,1,3.79.63,8,8,0,0,1,2.95,1.93,8.52,8.52,0,0,1,2,3.44,16,16,0,0,1,.69,5.06,16,16,0,0,1-.71,5,8,8,0,0,1-2,3.35,8.1,8.1,0,0,1-3,1.79A11.42,11.42,0,0,1,31.72,25.1Zm1.76-6.5a14.06,14.06,0,0,0,.58-4.26A14.31,14.31,0,0,0,33.45,10c-.41-1.27-1-1.91-1.71-1.91A1.6,1.6,0,0,0,30.4,9a7.24,7.24,0,0,0-.83,2.38,15.75,15.75,0,0,0-.26,3,12.72,12.72,0,0,0,.62,4.2c.42,1.21,1,1.82,1.8,1.82S33.09,19.78,33.48,18.6Z"/><path class="cls-2" d="M13.59,18.89h3.59c1.81,0,2.71,1,2.71,3A3.06,3.06,0,0,1,19,24.37,4.85,4.85,0,0,1,16,25.1H7.21a5.61,5.61,0,0,1-3.09-.6c-.55-.4-.82-1.26-.82-2.57a4.15,4.15,0,0,1,.13-1.12,2.66,2.66,0,0,1,.49-.92,4.2,4.2,0,0,1,1-.87c1.16-.78,2.08-1.4,2.75-1.88s1.32-1,2-1.5A10.22,10.22,0,0,0,11,14.28,7.42,7.42,0,0,0,11.83,13a4.71,4.71,0,0,0,.49-1.42,11.52,11.52,0,0,0,.11-1.68c0-1.21-.38-1.81-1.13-1.81s-1.23.71-1.23,2.13a1.51,1.51,0,0,1-.78,1.55A5.66,5.66,0,0,1,7,12.13a3.44,3.44,0,0,1-2.8-.91,4.78,4.78,0,0,1-.73-3,4.18,4.18,0,0,1,2-3.51A9.44,9.44,0,0,1,11,3.3q8.8,0,8.79,6.69a10.8,10.8,0,0,1-.35,2.83A8.41,8.41,0,0,1,18.57,15a6.81,6.81,0,0,1-1.41,1.63,13,13,0,0,1-1.66,1.26A21,21,0,0,1,13.59,18.89Z"/><path class="cls-2" d="M31.72,25.1A11.46,11.46,0,0,1,28,24.53a8.51,8.51,0,0,1-3-1.79,7.88,7.88,0,0,1-2.06-3.37,15.39,15.39,0,0,1-.73-5,17.11,17.11,0,0,1,.72-5.3,7.76,7.76,0,0,1,2-3.43,8.14,8.14,0,0,1,3-1.78,12,12,0,0,1,3.81-.55,10.8,10.8,0,0,1,3.79.63,8,8,0,0,1,2.95,1.93,8.52,8.52,0,0,1,2,3.44,16,16,0,0,1,.69,5.06,16,16,0,0,1-.71,5,8,8,0,0,1-2,3.35,8.1,8.1,0,0,1-3,1.79A11.42,11.42,0,0,1,31.72,25.1Zm1.76-6.5a14.06,14.06,0,0,0,.58-4.26A14.31,14.31,0,0,0,33.45,10c-.41-1.27-1-1.91-1.71-1.91A1.6,1.6,0,0,0,30.4,9a7.24,7.24,0,0,0-.83,2.38,15.75,15.75,0,0,0-.26,3,12.72,12.72,0,0,0,.62,4.2c.42,1.21,1,1.82,1.8,1.82S33.09,19.78,33.48,18.6Z"/></g></g></svg>