<svg xmlns="http://www.w3.org/2000/svg" viewBox="0 0 61.71 39.85"><defs><style>.cls-1{fill:none;stroke:#fff;stroke-width:7.9px;}.cls-2{fill:#512573;}</style></defs><title>10sin</title><g id="Layer_2" data-name="Layer 2"><g id="barra_lateral_derecha" data-name="barra lateral derecha"><path class="cls-1" d="M18.58,26.8h5.1c2.58,0,3.86,1.48,3.86,4.45a4.55,4.55,0,0,1-1.22,3.58c-.82.71-2.26,1.07-4.35,1.07H9.51c-2.15,0-3.61-.29-4.39-.88S4,33.18,4,31.25a6.49,6.49,0,0,1,.18-1.63,4,4,0,0,1,.7-1.35A6,6,0,0,1,6.21,27c1.65-1.14,3-2.06,3.91-2.75S12,22.81,12.9,22a14.29,14.29,0,0,0,2-2,11.72,11.72,0,0,0,1.18-1.87,7.07,7.07,0,0,0,.69-2.08,16.15,16.15,0,0,0,.16-2.47c0-1.77-.53-2.65-1.6-2.65s-1.75,1-1.75,3.13a2.27,2.27,0,0,1-1.11,2.27,7.91,7.91,0,0,1-3.27.52c-2,0-3.28-.44-4-1.33a7.25,7.25,0,0,1-1-4.4A6.17,6.17,0,0,1,7,6C8.92,4.64,11.54,4,14.92,4q12.51,0,12.5,9.81a15.78,15.78,0,0,1-.51,4.15A13,13,0,0,1,25.66,21a10.17,10.17,0,0,1-2,2.39,18,18,0,0,1-2.37,1.85A29.34,29.34,0,0,1,18.58,26.8Z"/><path class="cls-1" d="M44.36,35.9a16.08,16.08,0,0,1-5.31-.83,11.93,11.93,0,0,1-4.27-2.63,11.71,11.71,0,0,1-2.94-4.93,23.5,23.5,0,0,1-1-7.35,26.28,26.28,0,0,1,1-7.77,11.63,11.63,0,0,1,2.9-5A11.42,11.42,0,0,1,39,4.76,16.67,16.67,0,0,1,44.39,4a15,15,0,0,1,5.38.92A11.56,11.56,0,0,1,54,7.7a12.59,12.59,0,0,1,2.8,5,25.27,25.27,0,0,1,1,7.42,23.68,23.68,0,0,1-1,7.37,11.72,11.72,0,0,1-2.88,4.91,11.44,11.44,0,0,1-4.23,2.63A16,16,0,0,1,44.36,35.9Zm2.5-9.53a20.75,20.75,0,0,0,.83-6.23,21.7,21.7,0,0,0-.87-6.43q-.87-2.79-2.43-2.79a2.26,2.26,0,0,0-1.91,1.42,11,11,0,0,0-1.18,3.48,24.27,24.27,0,0,0-.37,4.34,19.18,19.18,0,0,0,.89,6.16c.6,1.77,1.45,2.66,2.55,2.66S46.3,28.11,46.86,26.37Z"/><path class="cls-2" d="M18.58,26.8h5.1c2.58,0,3.86,1.48,3.86,4.45a4.55,4.55,0,0,1-1.22,3.58c-.82.71-2.26,1.07-4.35,1.07H9.51c-2.15,0-3.61-.29-4.39-.88S4,33.18,4,31.25a6.49,6.49,0,0,1,.18-1.63,4,4,0,0,1,.7-1.35A6,6,0,0,1,6.21,27c1.65-1.14,3-2.06,3.91-2.75S12,22.81,12.9,22a14.29,14.29,0,0,0,2-2,11.72,11.72,0,0,0,1.18-1.87,7.07,7.07,0,0,0,.69-2.08,16.15,16.15,0,0,0,.16-2.47c0-1.77-.53-2.65-1.6-2.65s-1.75,1-1.75,3.13a2.27,2.27,0,0,1-1.11,2.27,7.91,7.91,0,0,1-3.27.52c-2,0-3.28-.44-4-1.33a7.25,7.25,0,0,1-1-4.4A6.17,6.17,0,0,1,7,6C8.92,4.64,11.54,4,14.92,4q12.51,0,12.5,9.81a15.78,15.78,0,0,1-.51,4.15A13,13,0,0,1,25.66,21a10.17,10.17,0,0,1-2,2.39,18,18,0,0,1-2.37,1.85A29.34,29.34,0,0,1,18.58,26.8Z"/><path class="cls-2" d="M44.36,35.9a16.08,16.08,0,0,1-5.31-.83,11.93,11.93,0,0,1-4.27-2.63,11.71,11.71,0,0,1-2.94-4.93,23.5,23.5,0,0,1-1-7.35,26.28,26.28,0,0,1,1-7.77,11.63,11.63,0,0,1,2.9-5A11.42,11.42,0,0,1,39,4.76,16.67,16.67,0,0,1,44.39,4a15,15,0,0,1,5.38.92A11.56,11.56,0,0,1,54,7.7a12.59,12.59,0,0,1,2.8,5,25.27,25.27,0,0,1,1,7.42,23.68,23.68,0,0,1-1,7.37,11.72,11.72,0,0,1-2.88,4.91,11.44,11.44,0,0,1-4.23,2.63A16,16,0,0,1,44.36,35.9Zm2.5-9.53a20.75,20.75,0,0,0,.83-6.23,21.7,21.7,0,0,0-.87-6.43q-.87-2.79-2.43-2.79a2.26,2.26,0,0,0-1.91,1.42,11,11,0,0,0-1.18,3.48,24.27,24.27,0,0,0-.37,4.34,19.18,19.18,0,0,0,.89,6.16c.6,1.77,1.45,2.66,2.55,2.66S46.3,28.11,46.86,26.37Z"/></g></g></svg>