<svg xmlns="http://www.w3.org/2000/svg" viewBox="0 0 58.46 45.15"><defs><style>.cls-1{fill:#fff;}.cls-2{fill:#914e06;}</style></defs><title>11si</title><g id="Layer_2" data-name="Layer 2"><g id="barra_lateral_derecha" data-name="barra lateral derecha"><path class="cls-1" d="M16.15,44.72a11.33,11.33,0,0,1-5.32-1.14,8.49,8.49,0,0,1-4-4.75,18.18,18.18,0,0,1-1-6.12l-.07-16.3a10,10,0,0,1-1.91-.86A7.75,7.75,0,0,1,0,8.55,8,8,0,0,1,3.21,2.1,11,11,0,0,1,10.09,0l3,0c1.24,0,2.11,0,2.61,0,3.83,0,6.55.86,8.33,2.61S26.69,7,26.68,10.43l0,21.78c0,4-.83,6.94-2.52,9A9.92,9.92,0,0,1,16.15,44.72Zm-1-9a5,5,0,0,0,1,.08,2,2,0,0,0,1.12-.21h0s.5-.73.51-3.36l0-21.78a7.09,7.09,0,0,0-.09-1.28A9.44,9.44,0,0,0,15.71,9H14.65l.1,23.63a9.5,9.5,0,0,0,.41,3.05Z"/><path class="cls-1" d="M32.7,45.15a12.23,12.23,0,0,1-6.36-1.6,7.76,7.76,0,0,1-3.78-6.95h0a8.05,8.05,0,0,1,3.25-6.51,11.15,11.15,0,0,1,6.9-2,11.42,11.42,0,0,1,6.86,1.86,8,8,0,0,1,3.28,6.69,8.33,8.33,0,0,1-1.68,5.23,8,8,0,0,1-4.29,2.84A16.1,16.1,0,0,1,32.7,45.15Z"/><path class="cls-1" d="M47.89,44.72a11.36,11.36,0,0,1-5.32-1.14,8.48,8.48,0,0,1-4-4.75,18.21,18.21,0,0,1-1-6.12l-.07-16.3a11,11,0,0,1-1.91-.86,7.75,7.75,0,0,1-3.83-7A8,8,0,0,1,35,2.1,10.9,10.9,0,0,1,41.84,0l3,0c1.24,0,2.11,0,2.62,0,3.83,0,6.55.86,8.32,2.61S58.43,7,58.43,10.43l0,21.78c0,4-.83,6.94-2.52,9A9.9,9.9,0,0,1,47.89,44.72Zm-1-9a5,5,0,0,0,1,.08A1.89,1.89,0,0,0,49,35.57h0s.51-.73.51-3.36l0-21.78a7.07,7.07,0,0,0-.1-1.29A10.11,10.11,0,0,0,47.46,9H46.39l.1,23.62a9.44,9.44,0,0,0,.41,3Z"/><path class="cls-2" d="M22.25,32.21c0,2.89-.51,5-1.52,6.19a5.55,5.55,0,0,1-4.58,1.85,7.2,7.2,0,0,1-3.28-.64A4.15,4.15,0,0,1,11,37.25a13.75,13.75,0,0,1-.7-4.61l-.09-20a8.14,8.14,0,0,1-4.11-.94A3.35,3.35,0,0,1,4.47,8.55,3.57,3.57,0,0,1,6,5.62a6.63,6.63,0,0,1,4.13-1.15L13,4.5l2.68,0c2.57,0,4.3.43,5.18,1.31s1.33,2.4,1.32,4.59Z"/><path class="cls-2" d="M27,36.6a3.55,3.55,0,0,1,1.49-3,6.78,6.78,0,0,1,4.19-1.12q5.67,0,5.66,4.07a4,4,0,0,1-.73,2.5,3.54,3.54,0,0,1-1.92,1.26,12.14,12.14,0,0,1-3,.32,7.85,7.85,0,0,1-4.06-1A3.38,3.38,0,0,1,27,36.6Z"/><path class="cls-2" d="M54,32.21c0,2.89-.51,5-1.51,6.19a5.57,5.57,0,0,1-4.59,1.85,7.13,7.13,0,0,1-3.27-.64,4.13,4.13,0,0,1-1.9-2.36,14.05,14.05,0,0,1-.7-4.61l-.09-20a8.17,8.17,0,0,1-4.11-.93,3.36,3.36,0,0,1-1.61-3.14A3.57,3.57,0,0,1,37.7,5.62a6.66,6.66,0,0,1,4.14-1.15l2.94,0c1.26,0,2.16,0,2.68,0,2.56,0,4.29.44,5.17,1.32S54,8.24,54,10.43Z"/></g></g></svg>