<svg xmlns="http://www.w3.org/2000/svg" viewBox="0 0 49.61 39.85"><defs><style>.cls-1{fill:none;stroke:#fff;stroke-width:7.9px;}.cls-2{fill:#512573;}</style></defs><title>11sin</title><g id="Layer_2" data-name="Layer 2"><g id="barra_lateral_derecha" data-name="barra lateral derecha"><path class="cls-1" d="M18.58,26.8h5.1c2.58,0,3.86,1.48,3.86,4.45a4.55,4.55,0,0,1-1.22,3.58c-.82.71-2.26,1.07-4.35,1.07H9.51c-2.15,0-3.61-.29-4.39-.88S4,33.18,4,31.25a6.49,6.49,0,0,1,.18-1.63,4,4,0,0,1,.7-1.35A6,6,0,0,1,6.21,27c1.65-1.14,3-2.06,3.91-2.75S12,22.81,12.9,22a13.79,13.79,0,0,0,2-2,11.72,11.72,0,0,0,1.18-1.87,7.07,7.07,0,0,0,.69-2.08,16.15,16.15,0,0,0,.16-2.47c0-1.77-.53-2.65-1.6-2.65s-1.75,1-1.75,3.12a2.27,2.27,0,0,1-1.11,2.28,7.94,7.94,0,0,1-3.27.52c-2,0-3.28-.44-4-1.33a7.25,7.25,0,0,1-1-4.4A6.17,6.17,0,0,1,7,6C8.92,4.64,11.54,4,14.92,4q12.5,0,12.5,9.81a15.78,15.78,0,0,1-.51,4.15A13,13,0,0,1,25.66,21a10.17,10.17,0,0,1-2,2.39,18,18,0,0,1-2.37,1.85A29.34,29.34,0,0,1,18.58,26.8Z"/><path class="cls-1" d="M45.66,28.46q0,3.84-1.34,5.47a4.92,4.92,0,0,1-4,1.64A6.29,6.29,0,0,1,37.38,35a3.66,3.66,0,0,1-1.68-2.09,12.48,12.48,0,0,1-.62-4.07L35,11.16a7.17,7.17,0,0,1-3.63-.83A3,3,0,0,1,30,7.55,3.15,3.15,0,0,1,31.26,5a5.85,5.85,0,0,1,3.66-1l2.6,0,2.37,0c2.26,0,3.79.38,4.57,1.16s1.17,2.12,1.17,4.05Z"/><path class="cls-2" d="M18.58,26.8h5.1c2.58,0,3.86,1.48,3.86,4.45a4.55,4.55,0,0,1-1.22,3.58c-.82.71-2.26,1.07-4.35,1.07H9.51c-2.15,0-3.61-.29-4.39-.88S4,33.18,4,31.25a6.49,6.49,0,0,1,.18-1.63,4,4,0,0,1,.7-1.35A6,6,0,0,1,6.21,27c1.65-1.14,3-2.06,3.91-2.75S12,22.81,12.9,22a13.79,13.79,0,0,0,2-2,11.72,11.72,0,0,0,1.18-1.87,7.07,7.07,0,0,0,.69-2.08,16.15,16.15,0,0,0,.16-2.47c0-1.77-.53-2.65-1.6-2.65s-1.75,1-1.75,3.12a2.27,2.27,0,0,1-1.11,2.28,7.94,7.94,0,0,1-3.27.52c-2,0-3.28-.44-4-1.33a7.25,7.25,0,0,1-1-4.4A6.17,6.17,0,0,1,7,6C8.92,4.64,11.54,4,14.92,4q12.5,0,12.5,9.81a15.78,15.78,0,0,1-.51,4.15A13,13,0,0,1,25.66,21a10.17,10.17,0,0,1-2,2.39,18,18,0,0,1-2.37,1.85A29.34,29.34,0,0,1,18.58,26.8Z"/><path class="cls-2" d="M45.66,28.46q0,3.84-1.34,5.47a4.92,4.92,0,0,1-4,1.64A6.29,6.29,0,0,1,37.38,35a3.66,3.66,0,0,1-1.68-2.09,12.48,12.48,0,0,1-.62-4.07L35,11.16a7.17,7.17,0,0,1-3.63-.83A3,3,0,0,1,30,7.55,3.15,3.15,0,0,1,31.26,5a5.85,5.85,0,0,1,3.66-1l2.6,0,2.37,0c2.26,0,3.79.38,4.57,1.16s1.17,2.12,1.17,4.05Z"/></g></g></svg>