<svg xmlns="http://www.w3.org/2000/svg" viewBox="0 0 47.57 28.43"><defs><style>.cls-1{fill:#2da323;}.cls-2{fill:#fff;}</style></defs><title>12</title><g id="Layer_2" data-name="Layer 2"><g id="barra_lateral_derecha" data-name="barra lateral derecha"><path class="cls-1" d="M10.56,28.17A7.71,7.71,0,0,1,7,27.43a5.72,5.72,0,0,1-2.77-3.17,11.28,11.28,0,0,1-.66-3.92l0-9.4a6.6,6.6,0,0,1-.89-.42A5.28,5.28,0,0,1,0,5.75,5.43,5.43,0,0,1,2.24,1.36,7.38,7.38,0,0,1,6.79,0L8.67,0h1.62c1.59,0,3.9.18,5.5,1.72a6.83,6.83,0,0,1,1.84,5.14l0,13.13a8.76,8.76,0,0,1-1.72,5.86A6.7,6.7,0,0,1,10.56,28.17Zm-.23-6.6a3.32,3.32,0,0,0,.57,0A6.48,6.48,0,0,0,11.05,20L11,6.89a1.69,1.69,0,0,0,0-.23c-.21,0-.46,0-.87,0l.06,13.63A7.4,7.4,0,0,0,10.33,21.57Z"/><path class="cls-1" d="M20.84,28.43a8.25,8.25,0,0,1-4.18-1A5.3,5.3,0,0,1,14,22.67h0a5.38,5.38,0,0,1,2.27-4.43,7.49,7.49,0,0,1,4.56-1.33,7.73,7.73,0,0,1,4.53,1.21,5.37,5.37,0,0,1,2.29,4.55,5.56,5.56,0,0,1-1.18,3.57,5.48,5.48,0,0,1-2.93,1.89A11,11,0,0,1,20.84,28.43Z"/><path class="cls-1" d="M40.35,28.4H31.59a8.31,8.31,0,0,1-5-1.23c-1.45-1.05-2.18-2.82-2.18-5.25a7.3,7.3,0,0,1,.25-2,5.7,5.7,0,0,1,1.07-2.09,7.57,7.57,0,0,1,1.7-1.56l1.67-1.12A5.61,5.61,0,0,1,26,13.29a7.84,7.84,0,0,1-1.45-5.08A7.39,7.39,0,0,1,27.94,2a12.72,12.72,0,0,1,7.45-2C39.1,0,41.91.77,44,2.35A9.1,9.1,0,0,1,47.48,10,13.76,13.76,0,0,1,47,13.71a11.43,11.43,0,0,1-1.23,2.95c-.06.11-.13.21-.2.32.18.16.34.32.48.47a6.5,6.5,0,0,1,1.52,4.48,6.15,6.15,0,0,1-2,4.95A7.73,7.73,0,0,1,40.35,28.4Zm-9.29-6.61h6.81l-1-4.32c-.24.22-.51.46-.8.7-.69.57-1.41,1.13-2.16,1.65S32.29,21,31.09,21.76ZM39.63,7.37a6.14,6.14,0,0,1,.48,2.53A14.35,14.35,0,0,1,40,12.1a7.82,7.82,0,0,1-.63,2.05l0-.05a3.54,3.54,0,0,0,.75-.85,5.1,5.1,0,0,0,.52-1.32A7,7,0,0,0,40.88,10c0-1.71-.63-2.19-.89-2.39A3.17,3.17,0,0,0,39.63,7.37ZM31.17,8.82h.09a6.15,6.15,0,0,1,.38-1.35c-.49.37-.49.59-.49.74S31.16,8.67,31.17,8.82Z"/><path class="cls-2" d="M14.35,20a5.83,5.83,0,0,1-.94,3.73,3.51,3.51,0,0,1-2.85,1.12,4.58,4.58,0,0,1-2-.39,2.55,2.55,0,0,1-1.18-1.42,8.48,8.48,0,0,1-.43-2.78l0-12.06A5.13,5.13,0,0,1,4.3,7.65a2,2,0,0,1-1-1.89A2.12,2.12,0,0,1,4.22,4,4.19,4.19,0,0,1,6.8,3.3l1.82,0h1.67a4.76,4.76,0,0,1,3.22.8,3.78,3.78,0,0,1,.82,2.76Z"/><path class="cls-2" d="M17.32,22.67a2.13,2.13,0,0,1,.92-1.78,4.38,4.38,0,0,1,2.61-.68c2.35,0,3.52.82,3.52,2.46a2.36,2.36,0,0,1-.45,1.51,2.27,2.27,0,0,1-1.2.76,8.13,8.13,0,0,1-1.88.19,5,5,0,0,1-2.52-.58A2,2,0,0,1,17.32,22.67Z"/><path class="cls-2" d="M38,18.89h3.59c1.81,0,2.72,1,2.72,3a3.06,3.06,0,0,1-.86,2.44,4.85,4.85,0,0,1-3.06.73H31.59a5.61,5.61,0,0,1-3.09-.6c-.55-.4-.82-1.26-.82-2.57a4.1,4.1,0,0,1,.13-1.12,2.47,2.47,0,0,1,.48-.92,4.41,4.41,0,0,1,1-.87c1.17-.78,2.09-1.4,2.75-1.88s1.33-1,2-1.5a9.83,9.83,0,0,0,1.41-1.36A8.06,8.06,0,0,0,36.21,13a4.68,4.68,0,0,0,.48-1.42,10.34,10.34,0,0,0,.12-1.68c0-1.21-.38-1.81-1.13-1.81s-1.23.71-1.23,2.13a1.51,1.51,0,0,1-.78,1.55,5.68,5.68,0,0,1-2.3.36,3.42,3.42,0,0,1-2.79-.91,4.8,4.8,0,0,1-.73-3,4.17,4.17,0,0,1,2-3.5A9.49,9.49,0,0,1,35.39,3.3q8.79,0,8.79,6.69a10.38,10.38,0,0,1-.36,2.83A8.8,8.8,0,0,1,43,15a7.26,7.26,0,0,1-1.41,1.63,12.39,12.39,0,0,1-1.67,1.26A19.69,19.69,0,0,1,38,18.89Z"/></g></g></svg>