<svg xmlns="http://www.w3.org/2000/svg" viewBox="0 0 64.58 39.9"><defs><style>.cls-1{fill:none;stroke:#fff;stroke-width:7.9px;}.cls-2{fill:#914e06;}</style></defs><title>12si</title><g id="Layer_2" data-name="Layer 2"><g id="barra_lateral_derecha" data-name="barra lateral derecha"><path class="cls-1" d="M19.66,28.46q0,3.84-1.34,5.47a4.92,4.92,0,0,1-4.05,1.64A6.29,6.29,0,0,1,11.38,35,3.63,3.63,0,0,1,9.7,32.91a12.48,12.48,0,0,1-.62-4.07L9,11.16a7.17,7.17,0,0,1-3.63-.83A3,3,0,0,1,4,7.55,3.15,3.15,0,0,1,5.26,5,5.85,5.85,0,0,1,8.92,4l2.6,0,2.37,0c2.26,0,3.79.39,4.57,1.16s1.17,2.13,1.17,4.05Z"/><path class="cls-1" d="M23.88,32.34a3.13,3.13,0,0,1,1.32-2.6,6,6,0,0,1,3.7-1q5,0,5,3.6a3.5,3.5,0,0,1-.65,2.21,3.11,3.11,0,0,1-1.7,1.11,10.4,10.4,0,0,1-2.67.29,6.85,6.85,0,0,1-3.58-.86A3,3,0,0,1,23.88,32.34Z"/><path class="cls-1" d="M51.66,26.8h5.11q3.85,0,3.86,4.45a4.55,4.55,0,0,1-1.23,3.58c-.81.71-2.26,1.07-4.34,1.07H42.6c-2.15,0-3.61-.29-4.39-.88S37,33.18,37,31.25a6.49,6.49,0,0,1,.18-1.63,3.77,3.77,0,0,1,.69-1.35A6.39,6.39,0,0,1,39.29,27q2.49-1.71,3.91-2.75c.95-.7,1.88-1.43,2.79-2.21a14.33,14.33,0,0,0,2-2,11,11,0,0,0,1.17-1.87,6.82,6.82,0,0,0,.7-2.08A17.54,17.54,0,0,0,50,13.62c0-1.77-.54-2.65-1.61-2.65s-1.75,1-1.75,3.12a2.27,2.27,0,0,1-1.1,2.28,7.94,7.94,0,0,1-3.27.52c-2,0-3.29-.44-4-1.33a7.32,7.32,0,0,1-1-4.4A6.2,6.2,0,0,1,40.12,6Q42.94,4,48,4q12.51,0,12.5,9.81A15.78,15.78,0,0,1,60,17.91,13,13,0,0,1,58.75,21a10.17,10.17,0,0,1-2,2.39,19.41,19.41,0,0,1-2.37,1.85A28.36,28.36,0,0,1,51.66,26.8Z"/><path class="cls-2" d="M19.66,28.46q0,3.84-1.34,5.47a4.92,4.92,0,0,1-4.05,1.64A6.29,6.29,0,0,1,11.38,35,3.63,3.63,0,0,1,9.7,32.91a12.48,12.48,0,0,1-.62-4.07L9,11.16a7.17,7.17,0,0,1-3.63-.83A3,3,0,0,1,4,7.55,3.15,3.15,0,0,1,5.26,5,5.85,5.85,0,0,1,8.92,4l2.6,0,2.37,0c2.26,0,3.79.39,4.57,1.16s1.17,2.13,1.17,4.05Z"/><path class="cls-2" d="M23.88,32.34a3.13,3.13,0,0,1,1.32-2.6,6,6,0,0,1,3.7-1q5,0,5,3.6a3.5,3.5,0,0,1-.65,2.21,3.11,3.11,0,0,1-1.7,1.11,10.4,10.4,0,0,1-2.67.29,6.85,6.85,0,0,1-3.58-.86A3,3,0,0,1,23.88,32.34Z"/><path class="cls-2" d="M51.66,26.8h5.11q3.85,0,3.86,4.45a4.55,4.55,0,0,1-1.23,3.58c-.81.71-2.26,1.07-4.34,1.07H42.6c-2.15,0-3.61-.29-4.39-.88S37,33.18,37,31.25a6.49,6.49,0,0,1,.18-1.63,3.77,3.77,0,0,1,.69-1.35A6.39,6.39,0,0,1,39.29,27q2.49-1.71,3.91-2.75c.95-.7,1.88-1.43,2.79-2.21a14.33,14.33,0,0,0,2-2,11,11,0,0,0,1.17-1.87,6.82,6.82,0,0,0,.7-2.08A17.54,17.54,0,0,0,50,13.62c0-1.77-.54-2.65-1.61-2.65s-1.75,1-1.75,3.12a2.27,2.27,0,0,1-1.1,2.28,7.94,7.94,0,0,1-3.27.52c-2,0-3.29-.44-4-1.33a7.32,7.32,0,0,1-1-4.4A6.2,6.2,0,0,1,40.12,6Q42.94,4,48,4q12.51,0,12.5,9.81A15.78,15.78,0,0,1,60,17.91,13,13,0,0,1,58.75,21a10.17,10.17,0,0,1-2,2.39,19.41,19.41,0,0,1-2.37,1.85A28.36,28.36,0,0,1,51.66,26.8Z"/></g></g></svg>