<svg xmlns="http://www.w3.org/2000/svg" viewBox="0 0 58.25 39.85"><defs><style>.cls-1{fill:none;stroke:#fff;stroke-width:7.9px;}.cls-2{fill:#512573;}</style></defs><title>12sin</title><g id="Layer_2" data-name="Layer 2"><g id="barra_lateral_derecha" data-name="barra lateral derecha"><path class="cls-1" d="M18.58,26.8h5.1c2.58,0,3.86,1.48,3.86,4.45a4.55,4.55,0,0,1-1.22,3.58c-.82.71-2.26,1.07-4.35,1.07H9.51c-2.15,0-3.61-.29-4.39-.88S4,33.18,4,31.25a6.49,6.49,0,0,1,.18-1.63,4,4,0,0,1,.7-1.35A6,6,0,0,1,6.21,27c1.65-1.14,3-2.06,3.91-2.75S12,22.81,12.9,22a13.79,13.79,0,0,0,2-2,11.72,11.72,0,0,0,1.18-1.87,7.07,7.07,0,0,0,.69-2.08,16.15,16.15,0,0,0,.16-2.47c0-1.77-.53-2.65-1.6-2.65s-1.75,1-1.75,3.12a2.27,2.27,0,0,1-1.11,2.28,7.94,7.94,0,0,1-3.27.52c-2,0-3.28-.44-4-1.33a7.25,7.25,0,0,1-1-4.4A6.17,6.17,0,0,1,7,6C8.92,4.64,11.54,4,14.92,4q12.51,0,12.5,9.81a15.78,15.78,0,0,1-.51,4.15A13,13,0,0,1,25.66,21a10.17,10.17,0,0,1-2,2.39,18,18,0,0,1-2.37,1.85A29.34,29.34,0,0,1,18.58,26.8Z"/><path class="cls-1" d="M45.34,26.8h5.1c2.58,0,3.86,1.48,3.86,4.45a4.55,4.55,0,0,1-1.22,3.58c-.81.71-2.26,1.07-4.35,1.07H36.27c-2.14,0-3.61-.29-4.39-.88s-1.17-1.84-1.17-3.77a6,6,0,0,1,.19-1.63,3.77,3.77,0,0,1,.69-1.35A6,6,0,0,1,33,27c1.65-1.14,3-2.06,3.91-2.75s1.88-1.43,2.78-2.21a14.49,14.49,0,0,0,2-2,11.69,11.69,0,0,0,1.17-1.87,7.07,7.07,0,0,0,.69-2.08,16.15,16.15,0,0,0,.16-2.47c0-1.77-.53-2.65-1.6-2.65s-1.75,1-1.75,3.12a2.26,2.26,0,0,1-1.11,2.28,7.88,7.88,0,0,1-3.27.52c-2,0-3.28-.44-4-1.33a7.25,7.25,0,0,1-1-4.4A6.17,6.17,0,0,1,33.79,6Q36.63,4,41.68,4q12.51,0,12.5,9.81a15.78,15.78,0,0,1-.51,4.15A13,13,0,0,1,52.42,21a9.93,9.93,0,0,1-2,2.39,18,18,0,0,1-2.37,1.85A28.08,28.08,0,0,1,45.34,26.8Z"/><path class="cls-2" d="M18.58,26.8h5.1c2.58,0,3.86,1.48,3.86,4.45a4.55,4.55,0,0,1-1.22,3.58c-.82.71-2.26,1.07-4.35,1.07H9.51c-2.15,0-3.61-.29-4.39-.88S4,33.18,4,31.25a6.49,6.49,0,0,1,.18-1.63,4,4,0,0,1,.7-1.35A6,6,0,0,1,6.21,27c1.65-1.14,3-2.06,3.91-2.75S12,22.81,12.9,22a13.79,13.79,0,0,0,2-2,11.72,11.72,0,0,0,1.18-1.87,7.07,7.07,0,0,0,.69-2.08,16.15,16.15,0,0,0,.16-2.47c0-1.77-.53-2.65-1.6-2.65s-1.75,1-1.75,3.12a2.27,2.27,0,0,1-1.11,2.28,7.94,7.94,0,0,1-3.27.52c-2,0-3.28-.44-4-1.33a7.25,7.25,0,0,1-1-4.4A6.17,6.17,0,0,1,7,6C8.92,4.64,11.54,4,14.92,4q12.51,0,12.5,9.81a15.78,15.78,0,0,1-.51,4.15A13,13,0,0,1,25.66,21a10.17,10.17,0,0,1-2,2.39,18,18,0,0,1-2.37,1.85A29.34,29.34,0,0,1,18.58,26.8Z"/><path class="cls-2" d="M45.34,26.8h5.1c2.58,0,3.86,1.48,3.86,4.45a4.55,4.55,0,0,1-1.22,3.58c-.81.71-2.26,1.07-4.35,1.07H36.27c-2.14,0-3.61-.29-4.39-.88s-1.17-1.84-1.17-3.77a6,6,0,0,1,.19-1.63,3.77,3.77,0,0,1,.69-1.35A6,6,0,0,1,33,27c1.65-1.14,3-2.06,3.91-2.75s1.88-1.43,2.78-2.21a14.49,14.49,0,0,0,2-2,11.69,11.69,0,0,0,1.17-1.87,7.07,7.07,0,0,0,.69-2.08,16.15,16.15,0,0,0,.16-2.47c0-1.77-.53-2.65-1.6-2.65s-1.75,1-1.75,3.12a2.26,2.26,0,0,1-1.11,2.28,7.88,7.88,0,0,1-3.27.52c-2,0-3.28-.44-4-1.33a7.25,7.25,0,0,1-1-4.4A6.17,6.17,0,0,1,33.79,6Q36.63,4,41.68,4q12.51,0,12.5,9.81a15.78,15.78,0,0,1-.51,4.15A13,13,0,0,1,52.42,21a9.93,9.93,0,0,1-2,2.39,18,18,0,0,1-2.37,1.85A28.08,28.08,0,0,1,45.34,26.8Z"/></g></g></svg>