<svg xmlns="http://www.w3.org/2000/svg" viewBox="0 0 46.66 28.43"><defs><style>.cls-1{fill:none;stroke:#2da323;stroke-width:6.6px;}.cls-2{fill:#fff;}</style></defs><title>13</title><g id="Layer_2" data-name="Layer 2"><g id="barra_lateral_derecha" data-name="barra lateral derecha"><path class="cls-1" d="M14.35,20a5.88,5.88,0,0,1-.94,3.74,3.54,3.54,0,0,1-2.85,1.11,4.58,4.58,0,0,1-2-.39,2.55,2.55,0,0,1-1.18-1.42,8.23,8.23,0,0,1-.43-2.78L6.85,8.22A5.12,5.12,0,0,1,4.3,7.65a2,2,0,0,1-1-1.89A2.12,2.12,0,0,1,4.22,4a4.15,4.15,0,0,1,2.57-.7l1.83,0h1.67a4.71,4.71,0,0,1,3.21.8,3.73,3.73,0,0,1,.83,2.76Z"/><path class="cls-1" d="M17.32,22.67a2.13,2.13,0,0,1,.92-1.78,4.38,4.38,0,0,1,2.61-.68c2.35,0,3.52.82,3.52,2.46a2.36,2.36,0,0,1-.45,1.51,2.27,2.27,0,0,1-1.2.76,8.13,8.13,0,0,1-1.88.19,5,5,0,0,1-2.52-.58A2,2,0,0,1,17.32,22.67Z"/><path class="cls-1" d="M35.8,10.32q0-1.59-2.94-1.59a15.57,15.57,0,0,0-1.67.12c-.7.07-1.21.11-1.54.11C28.1,9,27.33,8,27.33,6.18S29.57,3.3,34.06,3.3c2.91,0,5.08.47,6.53,1.42a4.3,4.3,0,0,1,2.16,3.72A5.91,5.91,0,0,1,40,13.55a7.51,7.51,0,0,1,2.63,2.09,5.44,5.44,0,0,1,.76,3.12,5.56,5.56,0,0,1-2.22,4.57A9.26,9.26,0,0,1,35.2,25.1q-4.65,0-6.68-1a3.05,3.05,0,0,1-2-2.89A3,3,0,0,1,27.15,19a2.59,2.59,0,0,1,1.82-.6c.38,0,1,.05,1.81.13a18.22,18.22,0,0,0,1.87.13c2.35,0,3.53-.43,3.53-1.29a1.23,1.23,0,0,0-.68-1.21A6.35,6.35,0,0,0,33,15.85a5.25,5.25,0,0,1-2.66-.49,2,2,0,0,1-.77-1.81c0-1.33.89-2,2.65-2a14,14,0,0,0,2.54-.17c.55-.1.87-.23,1-.37A1.45,1.45,0,0,0,35.8,10.32Z"/><path class="cls-2" d="M14.35,20a5.88,5.88,0,0,1-.94,3.74,3.54,3.54,0,0,1-2.85,1.11,4.58,4.58,0,0,1-2-.39,2.55,2.55,0,0,1-1.18-1.42,8.23,8.23,0,0,1-.43-2.78L6.85,8.22A5.12,5.12,0,0,1,4.3,7.65a2,2,0,0,1-1-1.89A2.12,2.12,0,0,1,4.22,4a4.15,4.15,0,0,1,2.57-.7l1.83,0h1.67a4.71,4.71,0,0,1,3.21.8,3.73,3.73,0,0,1,.83,2.76Z"/><path class="cls-2" d="M17.32,22.67a2.13,2.13,0,0,1,.92-1.78,4.38,4.38,0,0,1,2.61-.68c2.35,0,3.52.82,3.52,2.46a2.36,2.36,0,0,1-.45,1.51,2.27,2.27,0,0,1-1.2.76,8.13,8.13,0,0,1-1.88.19,5,5,0,0,1-2.52-.58A2,2,0,0,1,17.32,22.67Z"/><path class="cls-2" d="M35.8,10.32q0-1.59-2.94-1.59a15.57,15.57,0,0,0-1.67.12c-.7.07-1.21.11-1.54.11C28.1,9,27.33,8,27.33,6.18S29.57,3.3,34.06,3.3c2.91,0,5.08.47,6.53,1.42a4.3,4.3,0,0,1,2.16,3.72A5.91,5.91,0,0,1,40,13.55a7.51,7.51,0,0,1,2.63,2.09,5.44,5.44,0,0,1,.76,3.12,5.56,5.56,0,0,1-2.22,4.57A9.26,9.26,0,0,1,35.2,25.1q-4.65,0-6.68-1a3.05,3.05,0,0,1-2-2.89A3,3,0,0,1,27.15,19a2.59,2.59,0,0,1,1.82-.6c.38,0,1,.05,1.81.13a18.22,18.22,0,0,0,1.87.13c2.35,0,3.53-.43,3.53-1.29a1.23,1.23,0,0,0-.68-1.21A6.35,6.35,0,0,0,33,15.85a5.25,5.25,0,0,1-2.66-.49,2,2,0,0,1-.77-1.81c0-1.33.89-2,2.65-2a14,14,0,0,0,2.54-.17c.55-.1.87-.23,1-.37A1.45,1.45,0,0,0,35.8,10.32Z"/></g></g></svg>