<svg xmlns="http://www.w3.org/2000/svg" viewBox="0 0 42.21 28.4"><defs><style>.cls-1{fill:none;stroke:#7c439f;stroke-linejoin:round;stroke-width:6.6px;}.cls-2{fill:#fff;}</style></defs><title>13n</title><g id="Layer_2" data-name="Layer 2"><g id="barra_lateral_derecha" data-name="barra lateral derecha"><path class="cls-1" d="M13.59,18.89h3.59c1.81,0,2.71,1,2.71,3A3.06,3.06,0,0,1,19,24.37,4.79,4.79,0,0,1,16,25.1H7.21a5.61,5.61,0,0,1-3.09-.6c-.55-.4-.82-1.26-.82-2.57a4.15,4.15,0,0,1,.13-1.12,2.66,2.66,0,0,1,.49-.92,4.2,4.2,0,0,1,1-.87c1.16-.78,2.08-1.4,2.75-1.88s1.32-1,2-1.5A10.22,10.22,0,0,0,11,14.28,8.06,8.06,0,0,0,11.83,13a4.42,4.42,0,0,0,.48-1.42,10.25,10.25,0,0,0,.12-1.68c0-1.21-.38-1.81-1.13-1.81s-1.23.71-1.23,2.13a1.51,1.51,0,0,1-.78,1.55,5.68,5.68,0,0,1-2.3.36,3.43,3.43,0,0,1-2.79-.91,4.78,4.78,0,0,1-.73-3,4.17,4.17,0,0,1,2-3.51A9.44,9.44,0,0,1,11,3.3q8.8,0,8.79,6.69a10.8,10.8,0,0,1-.35,2.83A8.41,8.41,0,0,1,18.57,15a7,7,0,0,1-1.41,1.63,13,13,0,0,1-1.66,1.26A21,21,0,0,1,13.59,18.89Z"/><path class="cls-1" d="M31.35,10.32q0-1.59-2.94-1.59a15.57,15.57,0,0,0-1.67.12C26,8.92,25.53,9,25.2,9,23.65,9,22.88,8,22.88,6.18S25.12,3.3,29.61,3.3q4.37,0,6.53,1.42A4.3,4.3,0,0,1,38.3,8.44a5.91,5.91,0,0,1-2.78,5.11,7.51,7.51,0,0,1,2.63,2.09,5.36,5.36,0,0,1,.76,3.12,5.56,5.56,0,0,1-2.22,4.57,9.26,9.26,0,0,1-5.94,1.77c-3.1,0-5.33-.32-6.67-1a3.06,3.06,0,0,1-2-2.89A2.94,2.94,0,0,1,22.71,19a2.55,2.55,0,0,1,1.81-.59c.39,0,1,0,1.81.12a18.22,18.22,0,0,0,1.87.13c2.35,0,3.53-.43,3.53-1.29a1.23,1.23,0,0,0-.68-1.21,6.35,6.35,0,0,0-2.55-.34,5.18,5.18,0,0,1-2.65-.49,2,2,0,0,1-.78-1.81c0-1.33.89-2,2.65-2a14,14,0,0,0,2.54-.17c.55-.1.87-.23,1-.37A1.45,1.45,0,0,0,31.35,10.32Z"/><path class="cls-2" d="M13.59,18.89h3.59c1.81,0,2.71,1,2.71,3A3.06,3.06,0,0,1,19,24.37,4.79,4.79,0,0,1,16,25.1H7.21a5.61,5.61,0,0,1-3.09-.6c-.55-.4-.82-1.26-.82-2.57a4.15,4.15,0,0,1,.13-1.12,2.66,2.66,0,0,1,.49-.92,4.2,4.2,0,0,1,1-.87c1.16-.78,2.08-1.4,2.75-1.88s1.32-1,2-1.5A10.22,10.22,0,0,0,11,14.28,8.06,8.06,0,0,0,11.83,13a4.42,4.42,0,0,0,.48-1.42,10.25,10.25,0,0,0,.12-1.68c0-1.21-.38-1.81-1.13-1.81s-1.23.71-1.23,2.13a1.51,1.51,0,0,1-.78,1.55,5.68,5.68,0,0,1-2.3.36,3.43,3.43,0,0,1-2.79-.91,4.78,4.78,0,0,1-.73-3,4.17,4.17,0,0,1,2-3.51A9.44,9.44,0,0,1,11,3.3q8.8,0,8.79,6.69a10.8,10.8,0,0,1-.35,2.83A8.41,8.41,0,0,1,18.57,15a7,7,0,0,1-1.41,1.63,13,13,0,0,1-1.66,1.26A21,21,0,0,1,13.59,18.89Z"/><path class="cls-2" d="M31.35,10.32q0-1.59-2.94-1.59a15.57,15.57,0,0,0-1.67.12C26,8.92,25.53,9,25.2,9,23.65,9,22.88,8,22.88,6.18S25.12,3.3,29.61,3.3q4.37,0,6.53,1.42A4.3,4.3,0,0,1,38.3,8.44a5.91,5.91,0,0,1-2.78,5.11,7.51,7.51,0,0,1,2.63,2.09,5.36,5.36,0,0,1,.76,3.12,5.56,5.56,0,0,1-2.22,4.57,9.26,9.26,0,0,1-5.94,1.77c-3.1,0-5.33-.32-6.67-1a3.06,3.06,0,0,1-2-2.89A2.94,2.94,0,0,1,22.71,19a2.55,2.55,0,0,1,1.81-.59c.39,0,1,0,1.81.12a18.22,18.22,0,0,0,1.87.13c2.35,0,3.53-.43,3.53-1.29a1.23,1.23,0,0,0-.68-1.21,6.35,6.35,0,0,0-2.55-.34,5.18,5.18,0,0,1-2.65-.49,2,2,0,0,1-.78-1.81c0-1.33.89-2,2.65-2a14,14,0,0,0,2.54-.17c.55-.1.87-.23,1-.37A1.45,1.45,0,0,0,31.35,10.32Z"/></g></g></svg>