<svg xmlns="http://www.w3.org/2000/svg" viewBox="0 0 61.29 39.85"><defs><style>.cls-1{fill:none;stroke:#fff;stroke-linecap:round;stroke-linejoin:round;stroke-width:7.9px;}.cls-2{fill:#512573;}</style></defs><title>14sin</title><g id="Layer_2" data-name="Layer 2"><g id="barra_lateral_derecha" data-name="barra lateral derecha"><path class="cls-1" d="M18.58,26.8h5.1c2.58,0,3.86,1.48,3.86,4.45a4.55,4.55,0,0,1-1.22,3.58c-.82.71-2.26,1.07-4.35,1.07H9.51c-2.15,0-3.61-.29-4.39-.88S4,33.18,4,31.25a6,6,0,0,1,.19-1.63,3.77,3.77,0,0,1,.69-1.35A6,6,0,0,1,6.21,27c1.65-1.14,3-2.06,3.91-2.75S12,22.81,12.9,22a13.79,13.79,0,0,0,2-2,11.72,11.72,0,0,0,1.18-1.87,7.07,7.07,0,0,0,.69-2.08,16.15,16.15,0,0,0,.16-2.47c0-1.77-.53-2.65-1.6-2.65s-1.75,1-1.75,3.12a2.27,2.27,0,0,1-1.11,2.28,7.91,7.91,0,0,1-3.27.52c-2,0-3.28-.44-4-1.33a7.25,7.25,0,0,1-1-4.4A6.17,6.17,0,0,1,7,6C8.92,4.64,11.54,4,14.92,4q12.5,0,12.5,9.81a15.78,15.78,0,0,1-.51,4.15A13,13,0,0,1,25.66,21a10.17,10.17,0,0,1-2,2.39,18,18,0,0,1-2.37,1.85A29.34,29.34,0,0,1,18.58,26.8Z"/><path class="cls-1" d="M48.55,35.57A4.78,4.78,0,0,1,44.6,34q-1.24-1.55-1.24-5.38H34.85a6,6,0,0,1-4.43-1.47A5.17,5.17,0,0,1,29,23.39a8.1,8.1,0,0,1,1.25-4.46q3.27-5.26,7.36-11.38A7.51,7.51,0,0,1,44.16,4l4,0c2.24,0,3.76.38,4.55,1.16s1.2,2.12,1.2,4.05V21.73a4.13,4.13,0,0,1,2.71,1,3.73,3.73,0,0,1,.73,2.56,3.23,3.23,0,0,1-.78,2.49,4.62,4.62,0,0,1-2.67.83c0,2.5-.45,4.28-1.34,5.36A4.9,4.9,0,0,1,48.55,35.57ZM43.32,21.92l.15-10.1L37.3,21.92Z"/><path class="cls-2" d="M18.58,26.8h5.1c2.58,0,3.86,1.48,3.86,4.45a4.55,4.55,0,0,1-1.22,3.58c-.82.71-2.26,1.07-4.35,1.07H9.51c-2.15,0-3.61-.29-4.39-.88S4,33.18,4,31.25a6,6,0,0,1,.19-1.63,3.77,3.77,0,0,1,.69-1.35A6,6,0,0,1,6.21,27c1.65-1.14,3-2.06,3.91-2.75S12,22.81,12.9,22a13.79,13.79,0,0,0,2-2,11.72,11.72,0,0,0,1.18-1.87,7.07,7.07,0,0,0,.69-2.08,16.15,16.15,0,0,0,.16-2.47c0-1.77-.53-2.65-1.6-2.65s-1.75,1-1.75,3.12a2.27,2.27,0,0,1-1.11,2.28,7.91,7.91,0,0,1-3.27.52c-2,0-3.28-.44-4-1.33a7.25,7.25,0,0,1-1-4.4A6.17,6.17,0,0,1,7,6C8.92,4.64,11.54,4,14.92,4q12.5,0,12.5,9.81a15.78,15.78,0,0,1-.51,4.15A13,13,0,0,1,25.66,21a10.17,10.17,0,0,1-2,2.39,18,18,0,0,1-2.37,1.85A29.34,29.34,0,0,1,18.58,26.8Z"/><path class="cls-2" d="M48.55,35.57A4.78,4.78,0,0,1,44.6,34q-1.24-1.55-1.24-5.38H34.85a6,6,0,0,1-4.43-1.47A5.17,5.17,0,0,1,29,23.39a8.1,8.1,0,0,1,1.25-4.46q3.27-5.26,7.36-11.38A7.51,7.51,0,0,1,44.16,4l4,0c2.24,0,3.76.38,4.55,1.16s1.2,2.12,1.2,4.05V21.73a4.13,4.13,0,0,1,2.71,1,3.73,3.73,0,0,1,.73,2.56,3.23,3.23,0,0,1-.78,2.49,4.62,4.62,0,0,1-2.67.83c0,2.5-.45,4.28-1.34,5.36A4.9,4.9,0,0,1,48.55,35.57ZM43.32,21.92l.15-10.1L37.3,21.92Z"/></g></g></svg>