<svg xmlns="http://www.w3.org/2000/svg" viewBox="0 0 64.63 39.9"><defs><style>.cls-1{fill:none;stroke:#fff;stroke-linecap:round;stroke-linejoin:round;stroke-width:7.9px;}.cls-2{fill:#914e06;}</style></defs><title>14si</title><g id="Layer_2" data-name="Layer 2"><g id="barra_lateral_derecha" data-name="barra lateral derecha"><path class="cls-1" d="M19.66,28.46q0,3.84-1.34,5.47a4.92,4.92,0,0,1-4.05,1.64A6.29,6.29,0,0,1,11.38,35,3.63,3.63,0,0,1,9.7,32.91a12.48,12.48,0,0,1-.62-4.07L9,11.16a7.17,7.17,0,0,1-3.63-.83A3,3,0,0,1,4,7.55,3.15,3.15,0,0,1,5.26,5,5.85,5.85,0,0,1,8.92,4l2.6,0,2.37,0c2.26,0,3.79.39,4.57,1.16s1.17,2.13,1.17,4.05Z"/><path class="cls-1" d="M23.88,32.34a3.13,3.13,0,0,1,1.32-2.6,6,6,0,0,1,3.7-1q5,0,5,3.6a3.5,3.5,0,0,1-.65,2.21,3.11,3.11,0,0,1-1.7,1.11,10.4,10.4,0,0,1-2.67.29,6.85,6.85,0,0,1-3.58-.86A3,3,0,0,1,23.88,32.34Z"/><path class="cls-1" d="M51.89,35.57a4.82,4.82,0,0,1-4-1.54c-.82-1-1.24-2.82-1.23-5.38H38.19a6,6,0,0,1-4.44-1.47,5.2,5.2,0,0,1-1.44-3.79,8.09,8.09,0,0,1,1.24-4.46q3.27-5.26,7.37-11.38A7.51,7.51,0,0,1,47.5,4l4,0c2.24,0,3.75.38,4.55,1.16s1.19,2.13,1.19,4.05V21.73a4.11,4.11,0,0,1,2.71,1,3.73,3.73,0,0,1,.74,2.56,3.19,3.19,0,0,1-.79,2.49,4.61,4.61,0,0,1-2.66.83c0,2.5-.45,4.28-1.34,5.36A4.92,4.92,0,0,1,51.89,35.57ZM46.66,21.92l.14-10.1-6.17,10.1Z"/><path class="cls-2" d="M19.66,28.46q0,3.84-1.34,5.47a4.92,4.92,0,0,1-4.05,1.64A6.29,6.29,0,0,1,11.38,35,3.63,3.63,0,0,1,9.7,32.91a12.48,12.48,0,0,1-.62-4.07L9,11.16a7.17,7.17,0,0,1-3.63-.83A3,3,0,0,1,4,7.55,3.15,3.15,0,0,1,5.26,5,5.85,5.85,0,0,1,8.92,4l2.6,0,2.37,0c2.26,0,3.79.39,4.57,1.16s1.17,2.13,1.17,4.05Z"/><path class="cls-2" d="M23.88,32.34a3.13,3.13,0,0,1,1.32-2.6,6,6,0,0,1,3.7-1q5,0,5,3.6a3.5,3.5,0,0,1-.65,2.21,3.11,3.11,0,0,1-1.7,1.11,10.4,10.4,0,0,1-2.67.29,6.85,6.85,0,0,1-3.58-.86A3,3,0,0,1,23.88,32.34Z"/><path class="cls-2" d="M51.89,35.57a4.82,4.82,0,0,1-4-1.54c-.82-1-1.24-2.82-1.23-5.38H38.19a6,6,0,0,1-4.44-1.47,5.2,5.2,0,0,1-1.44-3.79,8.09,8.09,0,0,1,1.24-4.46q3.27-5.26,7.37-11.38A7.51,7.51,0,0,1,47.5,4l4,0c2.24,0,3.75.38,4.55,1.16s1.19,2.13,1.19,4.05V21.73a4.11,4.11,0,0,1,2.71,1,3.73,3.73,0,0,1,.74,2.56,3.19,3.19,0,0,1-.79,2.49,4.61,4.61,0,0,1-2.66.83c0,2.5-.45,4.28-1.34,5.36A4.92,4.92,0,0,1,51.89,35.57ZM46.66,21.92l.14-10.1-6.17,10.1Z"/></g></g></svg>