<svg xmlns="http://www.w3.org/2000/svg" viewBox="0 0 42.34 28.4"><defs><style>.cls-1{fill:none;stroke:#7c439f;stroke-width:6.6px;}.cls-2{fill:#fff;}</style></defs><title>15n</title><g id="Layer_2" data-name="Layer 2"><g id="barra_lateral_derecha" data-name="barra lateral derecha"><path class="cls-1" d="M13.59,18.89h3.59c1.81,0,2.71,1,2.71,3A3.06,3.06,0,0,1,19,24.37,4.85,4.85,0,0,1,16,25.1H7.21a5.61,5.61,0,0,1-3.09-.6c-.55-.4-.82-1.26-.82-2.57a4.15,4.15,0,0,1,.13-1.12,2.66,2.66,0,0,1,.49-.92,4.2,4.2,0,0,1,1-.87c1.16-.78,2.08-1.4,2.75-1.88s1.32-1,2-1.5A10.22,10.22,0,0,0,11,14.28,7.42,7.42,0,0,0,11.83,13a4.71,4.71,0,0,0,.49-1.42,11.62,11.62,0,0,0,.11-1.68c0-1.21-.38-1.81-1.13-1.81s-1.23.71-1.23,2.13a1.51,1.51,0,0,1-.78,1.55A5.66,5.66,0,0,1,7,12.13a3.44,3.44,0,0,1-2.8-.91,4.78,4.78,0,0,1-.73-3,4.16,4.16,0,0,1,2-3.51A9.44,9.44,0,0,1,11,3.3q8.8,0,8.79,6.69a10.8,10.8,0,0,1-.35,2.83A8.41,8.41,0,0,1,18.57,15a7,7,0,0,1-1.41,1.63,13,13,0,0,1-1.66,1.26A21,21,0,0,1,13.59,18.89Z"/><path class="cls-1" d="M36.43,8.54H29.8l-.07,2.1a16.63,16.63,0,0,1,5.92.87Q39,12.91,39,17.34a7.15,7.15,0,0,1-2.37,5.72q-2.36,2-7.15,2A12.61,12.61,0,0,1,24,24.24a2.83,2.83,0,0,1-1.62-2.67c0-2.11.75-3.17,2.24-3.17a10.24,10.24,0,0,1,2.05.36,10.05,10.05,0,0,0,2.09.35,4.93,4.93,0,0,0,2.2-.38,1.46,1.46,0,0,0,.71-1.39q0-1.82-6.08-1.82a2.65,2.65,0,0,1-2.23-.74,5.46,5.46,0,0,1-.55-3V6a2.46,2.46,0,0,1,.82-2,4.78,4.78,0,0,1,2.9-.66h9.18a2.84,2.84,0,0,1,2.07.58,3.45,3.45,0,0,1,.55,2.3A2.9,2.9,0,0,1,37.93,8,1.86,1.86,0,0,1,36.43,8.54Z"/><path class="cls-2" d="M13.59,18.89h3.59c1.81,0,2.71,1,2.71,3A3.06,3.06,0,0,1,19,24.37,4.85,4.85,0,0,1,16,25.1H7.21a5.61,5.61,0,0,1-3.09-.6c-.55-.4-.82-1.26-.82-2.57a4.15,4.15,0,0,1,.13-1.12,2.66,2.66,0,0,1,.49-.92,4.2,4.2,0,0,1,1-.87c1.16-.78,2.08-1.4,2.75-1.88s1.32-1,2-1.5A10.22,10.22,0,0,0,11,14.28,7.42,7.42,0,0,0,11.83,13a4.71,4.71,0,0,0,.49-1.42,11.62,11.62,0,0,0,.11-1.68c0-1.21-.38-1.81-1.13-1.81s-1.23.71-1.23,2.13a1.51,1.51,0,0,1-.78,1.55A5.66,5.66,0,0,1,7,12.13a3.44,3.44,0,0,1-2.8-.91,4.78,4.78,0,0,1-.73-3,4.16,4.16,0,0,1,2-3.51A9.44,9.44,0,0,1,11,3.3q8.8,0,8.79,6.69a10.8,10.8,0,0,1-.35,2.83A8.41,8.41,0,0,1,18.57,15a7,7,0,0,1-1.41,1.63,13,13,0,0,1-1.66,1.26A21,21,0,0,1,13.59,18.89Z"/><path class="cls-2" d="M36.43,8.54H29.8l-.07,2.1a16.63,16.63,0,0,1,5.92.87Q39,12.91,39,17.34a7.15,7.15,0,0,1-2.37,5.72q-2.36,2-7.15,2A12.61,12.61,0,0,1,24,24.24a2.83,2.83,0,0,1-1.62-2.67c0-2.11.75-3.17,2.24-3.17a10.24,10.24,0,0,1,2.05.36,10.05,10.05,0,0,0,2.09.35,4.93,4.93,0,0,0,2.2-.38,1.46,1.46,0,0,0,.71-1.39q0-1.82-6.08-1.82a2.65,2.65,0,0,1-2.23-.74,5.46,5.46,0,0,1-.55-3V6a2.46,2.46,0,0,1,.82-2,4.78,4.78,0,0,1,2.9-.66h9.18a2.84,2.84,0,0,1,2.07.58,3.45,3.45,0,0,1,.55,2.3A2.9,2.9,0,0,1,37.93,8,1.86,1.86,0,0,1,36.43,8.54Z"/></g></g></svg>