<svg xmlns="http://www.w3.org/2000/svg" viewBox="0 0 58.72 39.85"><defs><style>.cls-1{fill:none;stroke:#fff;stroke-width:7.9px;}.cls-2{fill:#512573;}</style></defs><title>15sin</title><g id="Layer_2" data-name="Layer 2"><g id="barra_lateral_derecha" data-name="barra lateral derecha"><path class="cls-1" d="M18.58,26.8h5.1c2.58,0,3.86,1.48,3.86,4.45a4.55,4.55,0,0,1-1.22,3.58c-.82.71-2.26,1.07-4.35,1.07H9.51c-2.15,0-3.61-.29-4.39-.88S4,33.18,4,31.25a6.49,6.49,0,0,1,.18-1.63,4,4,0,0,1,.7-1.35A6,6,0,0,1,6.21,27c1.65-1.14,3-2.06,3.91-2.75S12,22.81,12.9,22a13.79,13.79,0,0,0,2-2,11.72,11.72,0,0,0,1.18-1.87,7.07,7.07,0,0,0,.69-2.08,16.15,16.15,0,0,0,.16-2.47c0-1.77-.53-2.65-1.6-2.65s-1.75,1-1.75,3.12a2.27,2.27,0,0,1-1.11,2.28,7.91,7.91,0,0,1-3.27.52c-2,0-3.28-.44-4-1.33a7.25,7.25,0,0,1-1-4.4A6.17,6.17,0,0,1,7,6C8.92,4.64,11.54,4,14.92,4q12.51,0,12.5,9.81a15.78,15.78,0,0,1-.51,4.15A13,13,0,0,1,25.66,21a10.17,10.17,0,0,1-2,2.39,18,18,0,0,1-2.37,1.85C20.55,25.75,19.65,26.26,18.58,26.8Z"/><path class="cls-1" d="M51.05,11.63H41.63l-.1,3.08A23,23,0,0,1,50,16q4.81,2,4.82,8.53c0,3.61-1.13,6.4-3.37,8.39s-5.63,3-10.16,3q-5.52,0-7.82-1.26a4.13,4.13,0,0,1-2.29-3.91c0-3.1,1.06-4.64,3.17-4.64a14.15,14.15,0,0,1,2.92.52,14.15,14.15,0,0,0,3,.52,6.55,6.55,0,0,0,3.12-.57,2.13,2.13,0,0,0,1-2q0-2.65-8.64-2.65c-1.6,0-2.66-.37-3.18-1.09s-.78-2.18-.77-4.36V7.93a3.63,3.63,0,0,1,1.18-3c.78-.65,2.15-1,4.11-1H50.09A4,4,0,0,1,53,4.85c.52.57.78,1.69.77,3.36a4.27,4.27,0,0,1-.62,2.64A2.59,2.59,0,0,1,51.05,11.63Z"/><path class="cls-2" d="M18.58,26.8h5.1c2.58,0,3.86,1.48,3.86,4.45a4.55,4.55,0,0,1-1.22,3.58c-.82.71-2.26,1.07-4.35,1.07H9.51c-2.15,0-3.61-.29-4.39-.88S4,33.18,4,31.25a6.49,6.49,0,0,1,.18-1.63,4,4,0,0,1,.7-1.35A6,6,0,0,1,6.21,27c1.65-1.14,3-2.06,3.91-2.75S12,22.81,12.9,22a13.79,13.79,0,0,0,2-2,11.72,11.72,0,0,0,1.18-1.87,7.07,7.07,0,0,0,.69-2.08,16.15,16.15,0,0,0,.16-2.47c0-1.77-.53-2.65-1.6-2.65s-1.75,1-1.75,3.12a2.27,2.27,0,0,1-1.11,2.28,7.91,7.91,0,0,1-3.27.52c-2,0-3.28-.44-4-1.33a7.25,7.25,0,0,1-1-4.4A6.17,6.17,0,0,1,7,6C8.92,4.64,11.54,4,14.92,4q12.51,0,12.5,9.81a15.78,15.78,0,0,1-.51,4.15A13,13,0,0,1,25.66,21a10.17,10.17,0,0,1-2,2.39,18,18,0,0,1-2.37,1.85C20.55,25.75,19.65,26.26,18.58,26.8Z"/><path class="cls-2" d="M51.05,11.63H41.63l-.1,3.08A23,23,0,0,1,50,16q4.81,2,4.82,8.53c0,3.61-1.13,6.4-3.37,8.39s-5.63,3-10.16,3q-5.52,0-7.82-1.26a4.13,4.13,0,0,1-2.29-3.91c0-3.1,1.06-4.64,3.17-4.64a14.15,14.15,0,0,1,2.92.52,14.15,14.15,0,0,0,3,.52,6.55,6.55,0,0,0,3.12-.57,2.13,2.13,0,0,0,1-2q0-2.65-8.64-2.65c-1.6,0-2.66-.37-3.18-1.09s-.78-2.18-.77-4.36V7.93a3.63,3.63,0,0,1,1.18-3c.78-.65,2.15-1,4.11-1H50.09A4,4,0,0,1,53,4.85c.52.57.78,1.69.77,3.36a4.27,4.27,0,0,1-.62,2.64A2.59,2.59,0,0,1,51.05,11.63Z"/></g></g></svg>