<svg xmlns="http://www.w3.org/2000/svg" viewBox="0 0 42.92 28.82"><defs><style>.cls-1{fill:none;stroke:#7c439f;stroke-width:6.6px;}.cls-2{fill:#fff;}</style></defs><title>16n</title><g id="Layer_2" data-name="Layer 2"><g id="barra_lateral_derecha" data-name="barra lateral derecha"><path class="cls-1" d="M13.59,19.18h3.59c1.81,0,2.71,1,2.71,3A3,3,0,0,1,19,24.66a4.79,4.79,0,0,1-3.06.73H7.21a5.61,5.61,0,0,1-3.09-.6c-.55-.4-.82-1.26-.82-2.57a4.15,4.15,0,0,1,.13-1.12,2.66,2.66,0,0,1,.49-.92,4.2,4.2,0,0,1,1-.87c1.16-.78,2.08-1.4,2.75-1.88s1.32-1,2-1.5A9.83,9.83,0,0,0,11,14.57a7.42,7.42,0,0,0,.83-1.28,4.71,4.71,0,0,0,.49-1.42,11.52,11.52,0,0,0,.11-1.68c0-1.21-.38-1.81-1.13-1.81s-1.23.71-1.23,2.13a1.51,1.51,0,0,1-.78,1.55A5.66,5.66,0,0,1,7,12.42a3.44,3.44,0,0,1-2.8-.91,4.78,4.78,0,0,1-.73-3A4.18,4.18,0,0,1,5.47,5,9.44,9.44,0,0,1,11,3.59q8.8,0,8.79,6.7a10.91,10.91,0,0,1-.35,2.83,8.49,8.49,0,0,1-.88,2.13,6.81,6.81,0,0,1-1.41,1.63,13,13,0,0,1-1.66,1.26A21,21,0,0,1,13.59,19.18Z"/><path class="cls-1" d="M29.24,12.1a11,11,0,0,1,3.27-.52,8.2,8.2,0,0,1,3.66.79,6.24,6.24,0,0,1,2.53,2.2,5.65,5.65,0,0,1,.92,3.19,8.13,8.13,0,0,1-1,4.15,6.77,6.77,0,0,1-2.82,2.69,9,9,0,0,1-4.15.92,12,12,0,0,1-3.35-.44,7.58,7.58,0,0,1-2.52-1.21A9.06,9.06,0,0,1,24,22.12a7.35,7.35,0,0,1-1.11-2.18,14.34,14.34,0,0,1-.56-2.38,15.54,15.54,0,0,1-.18-2.39,16.88,16.88,0,0,1,.62-4.75A10.59,10.59,0,0,1,24.69,6.7a8.33,8.33,0,0,1,3.48-2.51,13.65,13.65,0,0,1,5.16-.89,8,8,0,0,1,4.36,1.12,3.28,3.28,0,0,1,1.78,2.86,3,3,0,0,1-.7,2,2.24,2.24,0,0,1-1.86.86,4.9,4.9,0,0,1-1.73-.52,5.43,5.43,0,0,0-2.12-.51,3.89,3.89,0,0,0-2.46.87A3.64,3.64,0,0,0,29.24,12.1ZM33,18.24a6.53,6.53,0,0,0-.42-2.44c-.28-.7-.68-1.05-1.19-1.05s-1,.35-1.28,1.07a5.84,5.84,0,0,0-.47,2.42,5.46,5.46,0,0,0,.45,2.28,1.4,1.4,0,0,0,1.27,1,1.33,1.33,0,0,0,1.23-1A5.94,5.94,0,0,0,33,18.24Z"/><path class="cls-2" d="M13.59,19.18h3.59c1.81,0,2.71,1,2.71,3A3,3,0,0,1,19,24.66a4.79,4.79,0,0,1-3.06.73H7.21a5.61,5.61,0,0,1-3.09-.6c-.55-.4-.82-1.26-.82-2.57a4.15,4.15,0,0,1,.13-1.12,2.66,2.66,0,0,1,.49-.92,4.2,4.2,0,0,1,1-.87c1.16-.78,2.08-1.4,2.75-1.88s1.32-1,2-1.5A9.83,9.83,0,0,0,11,14.57a7.42,7.42,0,0,0,.83-1.28,4.71,4.71,0,0,0,.49-1.42,11.52,11.52,0,0,0,.11-1.68c0-1.21-.38-1.81-1.13-1.81s-1.23.71-1.23,2.13a1.51,1.51,0,0,1-.78,1.55A5.66,5.66,0,0,1,7,12.42a3.44,3.44,0,0,1-2.8-.91,4.78,4.78,0,0,1-.73-3A4.18,4.18,0,0,1,5.47,5,9.44,9.44,0,0,1,11,3.59q8.8,0,8.79,6.7a10.91,10.91,0,0,1-.35,2.83,8.49,8.49,0,0,1-.88,2.13,6.81,6.81,0,0,1-1.41,1.63,13,13,0,0,1-1.66,1.26A21,21,0,0,1,13.59,19.18Z"/><path class="cls-2" d="M29.24,12.1a11,11,0,0,1,3.27-.52,8.2,8.2,0,0,1,3.66.79,6.24,6.24,0,0,1,2.53,2.2,5.65,5.65,0,0,1,.92,3.19,8.13,8.13,0,0,1-1,4.15,6.77,6.77,0,0,1-2.82,2.69,9,9,0,0,1-4.15.92,12,12,0,0,1-3.35-.44,7.58,7.58,0,0,1-2.52-1.21A9.06,9.06,0,0,1,24,22.12a7.35,7.35,0,0,1-1.11-2.18,14.34,14.34,0,0,1-.56-2.38,15.54,15.54,0,0,1-.18-2.39,16.88,16.88,0,0,1,.62-4.75A10.59,10.59,0,0,1,24.69,6.7a8.33,8.33,0,0,1,3.48-2.51,13.65,13.65,0,0,1,5.16-.89,8,8,0,0,1,4.36,1.12,3.28,3.28,0,0,1,1.78,2.86,3,3,0,0,1-.7,2,2.24,2.24,0,0,1-1.86.86,4.9,4.9,0,0,1-1.73-.52,5.43,5.43,0,0,0-2.12-.51,3.89,3.89,0,0,0-2.46.87A3.64,3.64,0,0,0,29.24,12.1ZM33,18.24a6.53,6.53,0,0,0-.42-2.44c-.28-.7-.68-1.05-1.19-1.05s-1,.35-1.28,1.07a5.84,5.84,0,0,0-.47,2.42,5.46,5.46,0,0,0,.45,2.28,1.4,1.4,0,0,0,1.27,1,1.33,1.33,0,0,0,1.23-1A5.94,5.94,0,0,0,33,18.24Z"/></g></g></svg>