<svg xmlns="http://www.w3.org/2000/svg" viewBox="0 0 59.54 40.47"><defs><style>.cls-1{fill:none;stroke:#fff;stroke-width:7.9px;}.cls-2{fill:#512573;}</style></defs><title>16sin</title><g id="Layer_2" data-name="Layer 2"><g id="barra_lateral_derecha" data-name="barra lateral derecha"><path class="cls-1" d="M18.58,27.23h5.1c2.58,0,3.86,1.48,3.86,4.45a4.55,4.55,0,0,1-1.22,3.58c-.82.71-2.26,1.07-4.35,1.07H9.51c-2.15,0-3.61-.29-4.39-.88S4,33.61,4,31.68a6.44,6.44,0,0,1,.18-1.63,4.11,4.11,0,0,1,.7-1.36,5.93,5.93,0,0,1,1.38-1.27c1.65-1.14,3-2.06,3.91-2.75S12,23.24,12.9,22.46a14.31,14.31,0,0,0,2-2,12.19,12.19,0,0,0,1.18-1.87,7.12,7.12,0,0,0,.69-2.09,15.93,15.93,0,0,0,.16-2.46c0-1.77-.53-2.66-1.6-2.66s-1.75,1-1.75,3.13a2.27,2.27,0,0,1-1.11,2.28,7.94,7.94,0,0,1-3.27.52c-2,0-3.28-.44-4-1.33a7.26,7.26,0,0,1-1-4.41A6.15,6.15,0,0,1,7,6.44c1.89-1.38,4.51-2.06,7.89-2.06q12.5,0,12.5,9.81a15.78,15.78,0,0,1-.51,4.15,13,13,0,0,1-1.25,3.13,10.37,10.37,0,0,1-2,2.39,18.88,18.88,0,0,1-2.37,1.85C20.55,26.18,19.65,26.69,18.58,27.23Z"/><path class="cls-1" d="M40.84,16.84a15.45,15.45,0,0,1,4.64-.75,11.27,11.27,0,0,1,5.2,1.16,9,9,0,0,1,3.61,3.22,8.53,8.53,0,0,1,1.3,4.67,12.2,12.2,0,0,1-1.45,6.09,9.85,9.85,0,0,1-4,3.94,12.5,12.5,0,0,1-5.91,1.35,16.76,16.76,0,0,1-4.76-.64,10.77,10.77,0,0,1-3.59-1.78,13,13,0,0,1-2.48-2.56,10.75,10.75,0,0,1-1.58-3.2,22.25,22.25,0,0,1-.8-3.48,22.49,22.49,0,0,1-.25-3.51,25.26,25.26,0,0,1,.88-7,15.84,15.84,0,0,1,2.71-5.45,12,12,0,0,1,5-3.68A18.84,18.84,0,0,1,46.65,4a11.17,11.17,0,0,1,6.2,1.64,4.84,4.84,0,0,1,2.53,4.19,4.56,4.56,0,0,1-1,2.87,3.2,3.2,0,0,1-2.65,1.25,7,7,0,0,1-2.46-.75,7.36,7.36,0,0,0-3-.76,5.63,5.63,0,0,0-5.43,4.45Zm5.33,9a9.84,9.84,0,0,0-.6-3.58c-.4-1-1-1.54-1.7-1.54s-1.37.52-1.82,1.56a9.11,9.11,0,0,0-.67,3.56A8.29,8.29,0,0,0,42,29.19a2,2,0,0,0,1.82,1.45,1.91,1.91,0,0,0,1.75-1.42A9,9,0,0,0,46.17,25.85Z"/><path class="cls-2" d="M18.58,27.23h5.1c2.58,0,3.86,1.48,3.86,4.45a4.55,4.55,0,0,1-1.22,3.58c-.82.71-2.26,1.07-4.35,1.07H9.51c-2.15,0-3.61-.29-4.39-.88S4,33.61,4,31.68a6.44,6.44,0,0,1,.18-1.63,4.11,4.11,0,0,1,.7-1.36,5.93,5.93,0,0,1,1.38-1.27c1.65-1.14,3-2.06,3.91-2.75S12,23.24,12.9,22.46a14.31,14.31,0,0,0,2-2,12.19,12.19,0,0,0,1.18-1.87,7.12,7.12,0,0,0,.69-2.09,15.93,15.93,0,0,0,.16-2.46c0-1.77-.53-2.66-1.6-2.66s-1.75,1-1.75,3.13a2.27,2.27,0,0,1-1.11,2.28,7.94,7.94,0,0,1-3.27.52c-2,0-3.28-.44-4-1.33a7.26,7.26,0,0,1-1-4.41A6.15,6.15,0,0,1,7,6.44c1.89-1.38,4.51-2.06,7.89-2.06q12.5,0,12.5,9.81a15.78,15.78,0,0,1-.51,4.15,13,13,0,0,1-1.25,3.13,10.37,10.37,0,0,1-2,2.39,18.88,18.88,0,0,1-2.37,1.85C20.55,26.18,19.65,26.69,18.58,27.23Z"/><path class="cls-2" d="M40.84,16.84a15.45,15.45,0,0,1,4.64-.75,11.27,11.27,0,0,1,5.2,1.16,9,9,0,0,1,3.61,3.22,8.53,8.53,0,0,1,1.3,4.67,12.2,12.2,0,0,1-1.45,6.09,9.85,9.85,0,0,1-4,3.94,12.5,12.5,0,0,1-5.91,1.35,16.76,16.76,0,0,1-4.76-.64,10.77,10.77,0,0,1-3.59-1.78,13,13,0,0,1-2.48-2.56,10.75,10.75,0,0,1-1.58-3.2,22.25,22.25,0,0,1-.8-3.48,22.49,22.49,0,0,1-.25-3.51,25.26,25.26,0,0,1,.88-7,15.84,15.84,0,0,1,2.71-5.45,12,12,0,0,1,5-3.68A18.84,18.84,0,0,1,46.65,4a11.17,11.17,0,0,1,6.2,1.64,4.84,4.84,0,0,1,2.53,4.19,4.56,4.56,0,0,1-1,2.87,3.2,3.2,0,0,1-2.65,1.25,7,7,0,0,1-2.46-.75,7.36,7.36,0,0,0-3-.76,5.63,5.63,0,0,0-5.43,4.45Zm5.33,9a9.84,9.84,0,0,0-.6-3.58c-.4-1-1-1.54-1.7-1.54s-1.37.52-1.82,1.56a9.11,9.11,0,0,0-.67,3.56A8.29,8.29,0,0,0,42,29.19a2,2,0,0,0,1.82,1.45,1.91,1.91,0,0,0,1.75-1.42A9,9,0,0,0,46.17,25.85Z"/></g></g></svg>