<svg xmlns="http://www.w3.org/2000/svg" viewBox="0 0 42.61 28.4"><defs><style>.cls-1{fill:none;stroke:#7c439f;stroke-width:6.6px;}.cls-2{fill:#fff;}</style></defs><title>17n</title><g id="Layer_2" data-name="Layer 2"><g id="barra_lateral_derecha" data-name="barra lateral derecha"><path class="cls-1" d="M13.59,18.89h3.59c1.81,0,2.71,1,2.71,3A3.06,3.06,0,0,1,19,24.37,4.79,4.79,0,0,1,16,25.1H7.21a5.61,5.61,0,0,1-3.09-.6c-.55-.4-.82-1.26-.82-2.57a4.15,4.15,0,0,1,.13-1.12,2.66,2.66,0,0,1,.49-.92,4.2,4.2,0,0,1,1-.87c1.16-.78,2.08-1.4,2.75-1.88s1.32-1,2-1.5A10.22,10.22,0,0,0,11,14.28,7.42,7.42,0,0,0,11.83,13a4.71,4.71,0,0,0,.49-1.42,11.62,11.62,0,0,0,.11-1.68c0-1.21-.38-1.81-1.13-1.81s-1.23.71-1.23,2.13a1.51,1.51,0,0,1-.78,1.55A5.66,5.66,0,0,1,7,12.13a3.44,3.44,0,0,1-2.8-.91,4.78,4.78,0,0,1-.73-3,4.17,4.17,0,0,1,2-3.51A9.44,9.44,0,0,1,11,3.3q8.8,0,8.79,6.69a10.8,10.8,0,0,1-.35,2.83A8.41,8.41,0,0,1,18.57,15a7,7,0,0,1-1.41,1.63,13,13,0,0,1-1.66,1.26A21,21,0,0,1,13.59,18.89Z"/><path class="cls-1" d="M24.55,21.47a14,14,0,0,1,.53-3.62,21,21,0,0,1,1.3-3.52c.51-1.06,1-2,1.54-2.93s.95-1.59,1.29-2.08l.55-.78H25.3A4.19,4.19,0,0,1,22.7,8,2.47,2.47,0,0,1,22,6c0-1.1.26-1.81.79-2.15a5.65,5.65,0,0,1,2.8-.5l9.57,0a6.26,6.26,0,0,1,3.22.61,2.92,2.92,0,0,1,.92,2.56c0,.13,0,.26,0,.39a1.53,1.53,0,0,1-.08.37c0,.12-.08.22-.1.31a1.11,1.11,0,0,1-.14.3c-.08.12-.13.21-.17.28a1.43,1.43,0,0,1-.22.29l-.24.27L38,9c-.15.18-.26.3-.32.36a22.42,22.42,0,0,0-4,5.85,26.1,26.1,0,0,0-1.79,6,5.44,5.44,0,0,1-1.1,3,4,4,0,0,1-2.65.65A3.82,3.82,0,0,1,25.48,24,3.3,3.3,0,0,1,24.55,21.47Z"/><path class="cls-2" d="M13.59,18.89h3.59c1.81,0,2.71,1,2.71,3A3.06,3.06,0,0,1,19,24.37,4.79,4.79,0,0,1,16,25.1H7.21a5.61,5.61,0,0,1-3.09-.6c-.55-.4-.82-1.26-.82-2.57a4.15,4.15,0,0,1,.13-1.12,2.66,2.66,0,0,1,.49-.92,4.2,4.2,0,0,1,1-.87c1.16-.78,2.08-1.4,2.75-1.88s1.32-1,2-1.5A10.22,10.22,0,0,0,11,14.28,7.42,7.42,0,0,0,11.83,13a4.71,4.71,0,0,0,.49-1.42,11.62,11.62,0,0,0,.11-1.68c0-1.21-.38-1.81-1.13-1.81s-1.23.71-1.23,2.13a1.51,1.51,0,0,1-.78,1.55A5.66,5.66,0,0,1,7,12.13a3.44,3.44,0,0,1-2.8-.91,4.78,4.78,0,0,1-.73-3,4.17,4.17,0,0,1,2-3.51A9.44,9.44,0,0,1,11,3.3q8.8,0,8.79,6.69a10.8,10.8,0,0,1-.35,2.83A8.41,8.41,0,0,1,18.57,15a7,7,0,0,1-1.41,1.63,13,13,0,0,1-1.66,1.26A21,21,0,0,1,13.59,18.89Z"/><path class="cls-2" d="M24.55,21.47a14,14,0,0,1,.53-3.62,21,21,0,0,1,1.3-3.52c.51-1.06,1-2,1.54-2.93s.95-1.59,1.29-2.08l.55-.78H25.3A4.19,4.19,0,0,1,22.7,8,2.47,2.47,0,0,1,22,6c0-1.1.26-1.81.79-2.15a5.65,5.65,0,0,1,2.8-.5l9.57,0a6.26,6.26,0,0,1,3.22.61,2.92,2.92,0,0,1,.92,2.56c0,.13,0,.26,0,.39a1.53,1.53,0,0,1-.08.37c0,.12-.08.22-.1.31a1.11,1.11,0,0,1-.14.3c-.08.12-.13.21-.17.28a1.43,1.43,0,0,1-.22.29l-.24.27L38,9c-.15.18-.26.3-.32.36a22.42,22.42,0,0,0-4,5.85,26.1,26.1,0,0,0-1.79,6,5.44,5.44,0,0,1-1.1,3,4,4,0,0,1-2.65.65A3.82,3.82,0,0,1,25.48,24,3.3,3.3,0,0,1,24.55,21.47Z"/></g></g></svg>