<svg xmlns="http://www.w3.org/2000/svg" viewBox="0 0 59.1 39.85"><defs><style>.cls-1{fill:none;stroke:#fff;stroke-width:7.9px;}.cls-2{fill:#512573;}</style></defs><title>17sin</title><g id="Layer_2" data-name="Layer 2"><g id="barra_lateral_derecha" data-name="barra lateral derecha"><path class="cls-1" d="M18.58,26.8h5.1c2.58,0,3.86,1.48,3.86,4.45a4.55,4.55,0,0,1-1.22,3.58c-.82.71-2.26,1.07-4.35,1.07H9.51c-2.15,0-3.61-.29-4.39-.88S4,33.18,4,31.25a6,6,0,0,1,.19-1.63,3.77,3.77,0,0,1,.69-1.35A6,6,0,0,1,6.21,27c1.65-1.14,3-2.06,3.91-2.75S12,22.81,12.9,22a13.79,13.79,0,0,0,2-2,11.72,11.72,0,0,0,1.18-1.87,7.07,7.07,0,0,0,.69-2.08,16.15,16.15,0,0,0,.16-2.47c0-1.77-.53-2.65-1.6-2.65s-1.75,1-1.75,3.12a2.27,2.27,0,0,1-1.11,2.28,7.91,7.91,0,0,1-3.27.52c-2,0-3.28-.44-4-1.33a7.25,7.25,0,0,1-1-4.4A6.17,6.17,0,0,1,7,6C8.92,4.64,11.54,4,14.92,4q12.5,0,12.5,9.81a15.78,15.78,0,0,1-.51,4.15A13,13,0,0,1,25.66,21a10.17,10.17,0,0,1-2,2.39,18,18,0,0,1-2.37,1.85A29.34,29.34,0,0,1,18.58,26.8Z"/><path class="cls-1" d="M34.16,30.59a21,21,0,0,1,.76-5.31,32.21,32.21,0,0,1,1.85-5.17Q37.85,17.8,39,15.82c.73-1.31,1.35-2.33,1.84-3.05l.78-1.14H35.24a6,6,0,0,1-3.71-.85,3.67,3.67,0,0,1-1-2.9c0-1.61.37-2.66,1.13-3.15a7.73,7.73,0,0,1,4-.73L49.27,4a8.48,8.48,0,0,1,4.57.9c.87.6,1.31,1.85,1.31,3.75a5.25,5.25,0,0,1,0,.56,2,2,0,0,1-.11.55,4.39,4.39,0,0,0-.14.45,1.47,1.47,0,0,1-.21.45l-.23.4a1.82,1.82,0,0,1-.32.43l-.35.4c-.06.08-.19.25-.41.5s-.37.43-.46.52a32.37,32.37,0,0,0-5.66,8.58,38.61,38.61,0,0,0-2.54,8.82c-.37,2.27-.89,3.73-1.57,4.36s-1.93,1-3.77,1a5.31,5.31,0,0,1-3.86-1.31A4.87,4.87,0,0,1,34.16,30.59Z"/><path class="cls-2" d="M18.58,26.8h5.1c2.58,0,3.86,1.48,3.86,4.45a4.55,4.55,0,0,1-1.22,3.58c-.82.71-2.26,1.07-4.35,1.07H9.51c-2.15,0-3.61-.29-4.39-.88S4,33.18,4,31.25a6,6,0,0,1,.19-1.63,3.77,3.77,0,0,1,.69-1.35A6,6,0,0,1,6.21,27c1.65-1.14,3-2.06,3.91-2.75S12,22.81,12.9,22a13.79,13.79,0,0,0,2-2,11.72,11.72,0,0,0,1.18-1.87,7.07,7.07,0,0,0,.69-2.08,16.15,16.15,0,0,0,.16-2.47c0-1.77-.53-2.65-1.6-2.65s-1.75,1-1.75,3.12a2.27,2.27,0,0,1-1.11,2.28,7.91,7.91,0,0,1-3.27.52c-2,0-3.28-.44-4-1.33a7.25,7.25,0,0,1-1-4.4A6.17,6.17,0,0,1,7,6C8.92,4.64,11.54,4,14.92,4q12.5,0,12.5,9.81a15.78,15.78,0,0,1-.51,4.15A13,13,0,0,1,25.66,21a10.17,10.17,0,0,1-2,2.39,18,18,0,0,1-2.37,1.85A29.34,29.34,0,0,1,18.58,26.8Z"/><path class="cls-2" d="M34.16,30.59a21,21,0,0,1,.76-5.31,32.21,32.21,0,0,1,1.85-5.17Q37.85,17.8,39,15.82c.73-1.31,1.35-2.33,1.84-3.05l.78-1.14H35.24a6,6,0,0,1-3.71-.85,3.67,3.67,0,0,1-1-2.9c0-1.61.37-2.66,1.13-3.15a7.73,7.73,0,0,1,4-.73L49.27,4a8.48,8.48,0,0,1,4.57.9c.87.6,1.31,1.85,1.31,3.75a5.25,5.25,0,0,1,0,.56,2,2,0,0,1-.11.55,4.39,4.39,0,0,0-.14.45,1.47,1.47,0,0,1-.21.45l-.23.4a1.82,1.82,0,0,1-.32.43l-.35.4c-.06.08-.19.25-.41.5s-.37.43-.46.52a32.37,32.37,0,0,0-5.66,8.58,38.61,38.61,0,0,0-2.54,8.82c-.37,2.27-.89,3.73-1.57,4.36s-1.93,1-3.77,1a5.31,5.31,0,0,1-3.86-1.31A4.87,4.87,0,0,1,34.16,30.59Z"/></g></g></svg>