<svg xmlns="http://www.w3.org/2000/svg" viewBox="0 0 43.08 28.46"><defs><style>.cls-1{fill:none;stroke:#7c439f;stroke-linejoin:round;stroke-width:6.6px;}.cls-2{fill:#fff;}</style></defs><title>18n</title><g id="Layer_2" data-name="Layer 2"><g id="barra_lateral_derecha" data-name="barra lateral derecha"><path class="cls-1" d="M13.59,19h3.59c1.81,0,2.71,1,2.71,3A3,3,0,0,1,19,24.43a4.79,4.79,0,0,1-3.06.73H7.21a5.61,5.61,0,0,1-3.09-.6c-.55-.39-.82-1.25-.82-2.57a4,4,0,0,1,.13-1.11A2.66,2.66,0,0,1,3.92,20a4,4,0,0,1,1-.88c1.16-.77,2.08-1.4,2.75-1.87s1.32-1,2-1.51A10.22,10.22,0,0,0,11,14.34a8,8,0,0,0,.83-1.27,4.47,4.47,0,0,0,.48-1.43A10.17,10.17,0,0,0,12.43,10c0-1.2-.38-1.81-1.13-1.81s-1.23.71-1.23,2.14a1.53,1.53,0,0,1-.78,1.55,5.71,5.71,0,0,1-2.3.35,3.46,3.46,0,0,1-2.79-.9,4.82,4.82,0,0,1-.73-3,4.18,4.18,0,0,1,2-3.51A9.44,9.44,0,0,1,11,3.37q8.8,0,8.79,6.69a10.86,10.86,0,0,1-.35,2.83A8.49,8.49,0,0,1,18.57,15a6.85,6.85,0,0,1-1.41,1.64,15.2,15.2,0,0,1-1.66,1.26A21.11,21.11,0,0,1,13.59,19Z"/><path class="cls-1" d="M30.91,25.16a13.27,13.27,0,0,1-4.47-.71,7.18,7.18,0,0,1-3.2-2.15A5.08,5.08,0,0,1,22,18.92a5.62,5.62,0,0,1,3.27-5.24,5.07,5.07,0,0,1-2.2-4.3,5.27,5.27,0,0,1,2.2-4.45A9.27,9.27,0,0,1,31,3.3a9.18,9.18,0,0,1,5.64,1.63,5.27,5.27,0,0,1,2.18,4.45,5.08,5.08,0,0,1-2.21,4.3,5.66,5.66,0,0,1,3.2,5.24,5.23,5.23,0,0,1-2.51,4.58A11.26,11.26,0,0,1,30.91,25.16Zm1.66-6.3a5.46,5.46,0,0,0-.42-2.22,1.31,1.31,0,0,0-1.19-1,1.41,1.41,0,0,0-1.27,1,5.15,5.15,0,0,0-.45,2.2,5.92,5.92,0,0,0,.18,1.47A2.7,2.7,0,0,0,30,21.49,1.22,1.22,0,0,0,31,22,1.3,1.3,0,0,0,32.16,21,5.4,5.4,0,0,0,32.57,18.86Zm-.06-9.77a3.66,3.66,0,0,0-.4-1.76A1.23,1.23,0,0,0,31,6.57a1.13,1.13,0,0,0-.89.42,2.63,2.63,0,0,0-.56,1,5,5,0,0,0-.17,1.3,4,4,0,0,0,.42,1.9A1.28,1.28,0,0,0,31,12a1.24,1.24,0,0,0,1.15-.87A5,5,0,0,0,32.51,9.09Z"/><path class="cls-2" d="M13.59,19h3.59c1.81,0,2.71,1,2.71,3A3,3,0,0,1,19,24.43a4.79,4.79,0,0,1-3.06.73H7.21a5.61,5.61,0,0,1-3.09-.6c-.55-.39-.82-1.25-.82-2.57a4,4,0,0,1,.13-1.11A2.66,2.66,0,0,1,3.92,20a4,4,0,0,1,1-.88c1.16-.77,2.08-1.4,2.75-1.87s1.32-1,2-1.51A10.22,10.22,0,0,0,11,14.34a8,8,0,0,0,.83-1.27,4.47,4.47,0,0,0,.48-1.43A10.17,10.17,0,0,0,12.43,10c0-1.2-.38-1.81-1.13-1.81s-1.23.71-1.23,2.14a1.53,1.53,0,0,1-.78,1.55,5.71,5.71,0,0,1-2.3.35,3.46,3.46,0,0,1-2.79-.9,4.82,4.82,0,0,1-.73-3,4.18,4.18,0,0,1,2-3.51A9.44,9.44,0,0,1,11,3.37q8.8,0,8.79,6.69a10.86,10.86,0,0,1-.35,2.83A8.49,8.49,0,0,1,18.57,15a6.85,6.85,0,0,1-1.41,1.64,15.2,15.2,0,0,1-1.66,1.26A21.11,21.11,0,0,1,13.59,19Z"/><path class="cls-2" d="M30.91,25.16a13.27,13.27,0,0,1-4.47-.71,7.18,7.18,0,0,1-3.2-2.15A5.08,5.08,0,0,1,22,18.92a5.62,5.62,0,0,1,3.27-5.24,5.07,5.07,0,0,1-2.2-4.3,5.27,5.27,0,0,1,2.2-4.45A9.27,9.27,0,0,1,31,3.3a9.18,9.18,0,0,1,5.64,1.63,5.27,5.27,0,0,1,2.18,4.45,5.08,5.08,0,0,1-2.21,4.3,5.66,5.66,0,0,1,3.2,5.24,5.23,5.23,0,0,1-2.51,4.58A11.26,11.26,0,0,1,30.91,25.16Zm1.66-6.3a5.46,5.46,0,0,0-.42-2.22,1.31,1.31,0,0,0-1.19-1,1.41,1.41,0,0,0-1.27,1,5.15,5.15,0,0,0-.45,2.2,5.92,5.92,0,0,0,.18,1.47A2.7,2.7,0,0,0,30,21.49,1.22,1.22,0,0,0,31,22,1.3,1.3,0,0,0,32.16,21,5.4,5.4,0,0,0,32.57,18.86Zm-.06-9.77a3.66,3.66,0,0,0-.4-1.76A1.23,1.23,0,0,0,31,6.57a1.13,1.13,0,0,0-.89.42,2.63,2.63,0,0,0-.56,1,5,5,0,0,0-.17,1.3,4,4,0,0,0,.42,1.9A1.28,1.28,0,0,0,31,12a1.24,1.24,0,0,0,1.15-.87A5,5,0,0,0,32.51,9.09Z"/></g></g></svg>