<svg xmlns="http://www.w3.org/2000/svg" viewBox="0 0 59.77 39.95"><defs><style>.cls-1{fill:none;stroke:#fff;stroke-linecap:round;stroke-linejoin:round;stroke-width:7.9px;}.cls-2{fill:#512573;}</style></defs><title>18sin</title><g id="Layer_2" data-name="Layer 2"><g id="barra_lateral_derecha" data-name="barra lateral derecha"><path class="cls-1" d="M18.58,26.89h5.1c2.58,0,3.86,1.49,3.86,4.46a4.57,4.57,0,0,1-1.22,3.58C25.5,35.64,24.06,36,22,36H9.51c-2.15,0-3.61-.3-4.39-.88S4,33.28,4,31.35a6.11,6.11,0,0,1,.19-1.64,3.94,3.94,0,0,1,.69-1.35,6,6,0,0,1,1.38-1.28c1.65-1.13,3-2,3.91-2.75S12,22.9,12.9,22.13a14.31,14.31,0,0,0,2-2,12.19,12.19,0,0,0,1.18-1.87,7.12,7.12,0,0,0,.69-2.09,16,16,0,0,0,.16-2.46c0-1.77-.53-2.66-1.6-2.66s-1.75,1-1.75,3.13a2.27,2.27,0,0,1-1.11,2.28A8.08,8.08,0,0,1,9.2,17c-2,0-3.28-.45-4-1.33a7.28,7.28,0,0,1-1-4.41A6.15,6.15,0,0,1,7,6.11c1.89-1.38,4.51-2.06,7.89-2.06q12.5,0,12.5,9.81A15.83,15.83,0,0,1,26.91,18a12.9,12.9,0,0,1-1.25,3.12,10.21,10.21,0,0,1-2,2.4,18.88,18.88,0,0,1-2.37,1.85A29.49,29.49,0,0,1,18.58,26.89Z"/><path class="cls-1" d="M43.21,36a18.13,18.13,0,0,1-6.36-1A10.26,10.26,0,0,1,32.3,31.8a7.59,7.59,0,0,1-1.72-4.95,8.25,8.25,0,0,1,4.65-7.68,7.48,7.48,0,0,1-3.12-6.31,7.77,7.77,0,0,1,3.13-6.52,12.92,12.92,0,0,1,8-2.39,12.79,12.79,0,0,1,8,2.39,7.79,7.79,0,0,1,3.1,6.52,7.53,7.53,0,0,1-3.13,6.31,8.32,8.32,0,0,1,4.54,7.68,7.69,7.69,0,0,1-3.57,6.7A15.62,15.62,0,0,1,43.21,36Zm2.36-9.24A8.23,8.23,0,0,0,45,23.5c-.39-.93-1-1.39-1.7-1.39a2,2,0,0,0-1.79,1.42,7.72,7.72,0,0,0-.65,3.22,9.4,9.4,0,0,0,.25,2.16,4.17,4.17,0,0,0,.83,1.7,1.7,1.7,0,0,0,1.35.69A1.86,1.86,0,0,0,45,30,8.2,8.2,0,0,0,45.57,26.75Zm-.08-14.31a5.64,5.64,0,0,0-.57-2.59,1.77,1.77,0,0,0-1.59-1.11,1.6,1.6,0,0,0-1.26.61,3.93,3.93,0,0,0-.79,1.52,6.92,6.92,0,0,0-.25,1.9,6.1,6.1,0,0,0,.59,2.79,1.85,1.85,0,0,0,1.68,1.19,1.76,1.76,0,0,0,1.63-1.28A7.55,7.55,0,0,0,45.49,12.44Z"/><path class="cls-2" d="M18.58,26.89h5.1c2.58,0,3.86,1.49,3.86,4.46a4.57,4.57,0,0,1-1.22,3.58C25.5,35.64,24.06,36,22,36H9.51c-2.15,0-3.61-.3-4.39-.88S4,33.28,4,31.35a6.11,6.11,0,0,1,.19-1.64,3.94,3.94,0,0,1,.69-1.35,6,6,0,0,1,1.38-1.28c1.65-1.13,3-2,3.91-2.75S12,22.9,12.9,22.13a14.31,14.31,0,0,0,2-2,12.19,12.19,0,0,0,1.18-1.87,7.12,7.12,0,0,0,.69-2.09,16,16,0,0,0,.16-2.46c0-1.77-.53-2.66-1.6-2.66s-1.75,1-1.75,3.13a2.27,2.27,0,0,1-1.11,2.28A8.08,8.08,0,0,1,9.2,17c-2,0-3.28-.45-4-1.33a7.28,7.28,0,0,1-1-4.41A6.15,6.15,0,0,1,7,6.11c1.89-1.38,4.51-2.06,7.89-2.06q12.5,0,12.5,9.81A15.83,15.83,0,0,1,26.91,18a12.9,12.9,0,0,1-1.25,3.12,10.21,10.21,0,0,1-2,2.4,18.88,18.88,0,0,1-2.37,1.85A29.49,29.49,0,0,1,18.58,26.89Z"/><path class="cls-2" d="M43.21,36a18.13,18.13,0,0,1-6.36-1A10.26,10.26,0,0,1,32.3,31.8a7.59,7.59,0,0,1-1.72-4.95,8.25,8.25,0,0,1,4.65-7.68,7.48,7.48,0,0,1-3.12-6.31,7.77,7.77,0,0,1,3.13-6.52,12.92,12.92,0,0,1,8-2.39,12.79,12.79,0,0,1,8,2.39,7.79,7.79,0,0,1,3.1,6.52,7.53,7.53,0,0,1-3.13,6.31,8.32,8.32,0,0,1,4.54,7.68,7.69,7.69,0,0,1-3.57,6.7A15.62,15.62,0,0,1,43.21,36Zm2.36-9.24A8.23,8.23,0,0,0,45,23.5c-.39-.93-1-1.39-1.7-1.39a2,2,0,0,0-1.79,1.42,7.72,7.72,0,0,0-.65,3.22,9.4,9.4,0,0,0,.25,2.16,4.17,4.17,0,0,0,.83,1.7,1.7,1.7,0,0,0,1.35.69A1.86,1.86,0,0,0,45,30,8.2,8.2,0,0,0,45.57,26.75Zm-.08-14.31a5.64,5.64,0,0,0-.57-2.59,1.77,1.77,0,0,0-1.59-1.11,1.6,1.6,0,0,0-1.26.61,3.93,3.93,0,0,0-.79,1.52,6.92,6.92,0,0,0-.25,1.9,6.1,6.1,0,0,0,.59,2.79,1.85,1.85,0,0,0,1.68,1.19,1.76,1.76,0,0,0,1.63-1.28A7.55,7.55,0,0,0,45.49,12.44Z"/></g></g></svg>