<svg xmlns="http://www.w3.org/2000/svg" viewBox="0 0 42.92 28.75"><defs><style>.cls-1{fill:none;stroke:#7c439f;stroke-linejoin:round;stroke-width:6.6px;}.cls-2{fill:#fff;}</style></defs><title>19n</title><g id="Layer_2" data-name="Layer 2"><g id="barra_lateral_derecha" data-name="barra lateral derecha"><path class="cls-1" d="M13.59,19.15h3.59c1.81,0,2.71,1,2.71,3A3.06,3.06,0,0,1,19,24.63a4.85,4.85,0,0,1-3.06.73H7.21a5.61,5.61,0,0,1-3.09-.6c-.55-.4-.82-1.26-.82-2.57a4.1,4.1,0,0,1,.13-1.12,2.66,2.66,0,0,1,.49-.92,4.2,4.2,0,0,1,1-.87C6.05,18.5,7,17.88,7.64,17.4s1.32-1,2-1.5A9.83,9.83,0,0,0,11,14.54a8.06,8.06,0,0,0,.83-1.28,4.42,4.42,0,0,0,.48-1.42,10.34,10.34,0,0,0,.12-1.68c0-1.21-.38-1.81-1.13-1.81s-1.23.71-1.23,2.13A1.51,1.51,0,0,1,9.29,12a5.68,5.68,0,0,1-2.3.36,3.42,3.42,0,0,1-2.79-.91,4.8,4.8,0,0,1-.73-3,4.16,4.16,0,0,1,2-3.5A9.44,9.44,0,0,1,11,3.56q8.8,0,8.79,6.69a10.38,10.38,0,0,1-.36,2.83,8.07,8.07,0,0,1-.87,2.14,7,7,0,0,1-1.41,1.63,13,13,0,0,1-1.66,1.26A21,21,0,0,1,13.59,19.15Z"/><path class="cls-1" d="M32.51,16.88a10.88,10.88,0,0,1-3.24.52,7.07,7.07,0,0,1-5.11-1.94,6.56,6.56,0,0,1-2-4.92,7.33,7.33,0,0,1,1-3.88A6.42,6.42,0,0,1,26,4.16a9.57,9.57,0,0,1,4.16-.86A10.87,10.87,0,0,1,34,4a7.79,7.79,0,0,1,2.75,1.72,8.73,8.73,0,0,1,1.69,2.5,11.66,11.66,0,0,1,.9,2.9,18.38,18.38,0,0,1,.24,3,17.12,17.12,0,0,1-.37,3.7,10.82,10.82,0,0,1-1.2,3.13,8.41,8.41,0,0,1-5.15,4,14.17,14.17,0,0,1-4.12.55,8.16,8.16,0,0,1-4.4-1.1,3.26,3.26,0,0,1-1.77-2.84,3,3,0,0,1,.71-2,2.25,2.25,0,0,1,1.84-.88,4.55,4.55,0,0,1,1.75.62,4.77,4.77,0,0,0,2.13.61,3.21,3.21,0,0,0,1.52-.39,3.76,3.76,0,0,0,1.27-1.08A3.81,3.81,0,0,0,32.51,16.88ZM28.6,10.74A6.53,6.53,0,0,0,29,13.18c.28.7.68,1.05,1.19,1.05a1.15,1.15,0,0,0,.92-.53,3.62,3.62,0,0,0,.6-1.33,6.8,6.8,0,0,0,.2-1.63,6,6,0,0,0-.45-2.4c-.3-.68-.72-1-1.26-1a1.3,1.3,0,0,0-1.21,1A6.3,6.3,0,0,0,28.6,10.74Z"/><path class="cls-2" d="M13.59,19.15h3.59c1.81,0,2.71,1,2.71,3A3.06,3.06,0,0,1,19,24.63a4.85,4.85,0,0,1-3.06.73H7.21a5.61,5.61,0,0,1-3.09-.6c-.55-.4-.82-1.26-.82-2.57a4.1,4.1,0,0,1,.13-1.12,2.66,2.66,0,0,1,.49-.92,4.2,4.2,0,0,1,1-.87C6.05,18.5,7,17.88,7.64,17.4s1.32-1,2-1.5A9.83,9.83,0,0,0,11,14.54a8.06,8.06,0,0,0,.83-1.28,4.42,4.42,0,0,0,.48-1.42,10.34,10.34,0,0,0,.12-1.68c0-1.21-.38-1.81-1.13-1.81s-1.23.71-1.23,2.13A1.51,1.51,0,0,1,9.29,12a5.68,5.68,0,0,1-2.3.36,3.42,3.42,0,0,1-2.79-.91,4.8,4.8,0,0,1-.73-3,4.16,4.16,0,0,1,2-3.5A9.44,9.44,0,0,1,11,3.56q8.8,0,8.79,6.69a10.38,10.38,0,0,1-.36,2.83,8.07,8.07,0,0,1-.87,2.14,7,7,0,0,1-1.41,1.63,13,13,0,0,1-1.66,1.26A21,21,0,0,1,13.59,19.15Z"/><path class="cls-2" d="M32.51,16.88a10.88,10.88,0,0,1-3.24.52,7.07,7.07,0,0,1-5.11-1.94,6.56,6.56,0,0,1-2-4.92,7.33,7.33,0,0,1,1-3.88A6.42,6.42,0,0,1,26,4.16a9.57,9.57,0,0,1,4.16-.86A10.87,10.87,0,0,1,34,4a7.79,7.79,0,0,1,2.75,1.72,8.73,8.73,0,0,1,1.69,2.5,11.66,11.66,0,0,1,.9,2.9,18.38,18.38,0,0,1,.24,3,17.12,17.12,0,0,1-.37,3.7,10.82,10.82,0,0,1-1.2,3.13,8.41,8.41,0,0,1-5.15,4,14.17,14.17,0,0,1-4.12.55,8.16,8.16,0,0,1-4.4-1.1,3.26,3.26,0,0,1-1.77-2.84,3,3,0,0,1,.71-2,2.25,2.25,0,0,1,1.84-.88,4.55,4.55,0,0,1,1.75.62,4.77,4.77,0,0,0,2.13.61,3.21,3.21,0,0,0,1.52-.39,3.76,3.76,0,0,0,1.27-1.08A3.81,3.81,0,0,0,32.51,16.88ZM28.6,10.74A6.53,6.53,0,0,0,29,13.18c.28.7.68,1.05,1.19,1.05a1.15,1.15,0,0,0,.92-.53,3.62,3.62,0,0,0,.6-1.33,6.8,6.8,0,0,0,.2-1.63,6,6,0,0,0-.45-2.4c-.3-.68-.72-1-1.26-1a1.3,1.3,0,0,0-1.21,1A6.3,6.3,0,0,0,28.6,10.74Z"/></g></g></svg>