<svg xmlns="http://www.w3.org/2000/svg" viewBox="0 0 59.55 40.37"><defs><style>.cls-1{fill:none;stroke:#fff;stroke-linecap:round;stroke-linejoin:round;stroke-width:7.9px;}.cls-2{fill:#512573;}</style></defs><title>19sin</title><g id="Layer_2" data-name="Layer 2"><g id="barra_lateral_derecha" data-name="barra lateral derecha"><path class="cls-1" d="M18.58,27.18h5.1c2.58,0,3.86,1.48,3.86,4.45a4.55,4.55,0,0,1-1.22,3.58c-.82.71-2.26,1.07-4.35,1.07H9.51c-2.15,0-3.61-.29-4.39-.88S4,33.56,4,31.63A6,6,0,0,1,4.14,30a3.77,3.77,0,0,1,.69-1.35,6,6,0,0,1,1.38-1.28c1.65-1.14,3-2.06,3.91-2.75S12,23.19,12.9,22.41a13.79,13.79,0,0,0,2-2,11.72,11.72,0,0,0,1.18-1.87,7,7,0,0,0,.69-2.09A15.93,15.93,0,0,0,16.93,14c0-1.77-.53-2.65-1.6-2.65s-1.75,1-1.75,3.12a2.27,2.27,0,0,1-1.11,2.28,7.91,7.91,0,0,1-3.27.52c-2,0-3.28-.44-4-1.33a7.25,7.25,0,0,1-1-4.4A6.17,6.17,0,0,1,7,6.39C8.92,5,11.54,4.33,14.92,4.33q12.5,0,12.5,9.81a15.78,15.78,0,0,1-.51,4.15,13,13,0,0,1-1.25,3.13,10.17,10.17,0,0,1-2,2.39,18,18,0,0,1-2.37,1.85A29.34,29.34,0,0,1,18.58,27.18Z"/><path class="cls-1" d="M45.48,23.86a15.11,15.11,0,0,1-4.6.76,9.83,9.83,0,0,1-7.26-2.85,9.73,9.73,0,0,1-2.85-7.2A11,11,0,0,1,32.2,8.88a9.23,9.23,0,0,1,4-3.67A13.21,13.21,0,0,1,42.09,4a14.92,14.92,0,0,1,5.57,1,11,11,0,0,1,3.9,2.51A12.62,12.62,0,0,1,54,11.11a17.3,17.3,0,0,1,1.29,4.24,27.45,27.45,0,0,1,.34,4.43,25.63,25.63,0,0,1-.54,5.43,16,16,0,0,1-1.7,4.57A12.08,12.08,0,0,1,46,35.62a20,20,0,0,1-5.86.8,11.43,11.43,0,0,1-6.25-1.61,4.8,4.8,0,0,1-2.53-4.17,4.5,4.5,0,0,1,1-2.89A3.15,3.15,0,0,1,35,26.47a6.27,6.27,0,0,1,2.48.9,6.64,6.64,0,0,0,3,.9,4.54,4.54,0,0,0,2.17-.57,5.32,5.32,0,0,0,1.79-1.59A5.65,5.65,0,0,0,45.48,23.86Zm-5.56-9a9.8,9.8,0,0,0,.6,3.58c.4,1,1,1.54,1.7,1.54a1.64,1.64,0,0,0,1.31-.78,5.31,5.31,0,0,0,.85-1.94,10.1,10.1,0,0,0,.28-2.4,8.88,8.88,0,0,0-.64-3.5c-.43-1-1-1.52-1.79-1.52s-1.35.49-1.73,1.47A9.81,9.81,0,0,0,39.92,14.85Z"/><path class="cls-2" d="M18.58,27.18h5.1c2.58,0,3.86,1.48,3.86,4.45a4.55,4.55,0,0,1-1.22,3.58c-.82.71-2.26,1.07-4.35,1.07H9.51c-2.15,0-3.61-.29-4.39-.88S4,33.56,4,31.63A6,6,0,0,1,4.14,30a3.77,3.77,0,0,1,.69-1.35,6,6,0,0,1,1.38-1.28c1.65-1.14,3-2.06,3.91-2.75S12,23.19,12.9,22.41a13.79,13.79,0,0,0,2-2,11.72,11.72,0,0,0,1.18-1.87,7,7,0,0,0,.69-2.09A15.93,15.93,0,0,0,16.93,14c0-1.77-.53-2.65-1.6-2.65s-1.75,1-1.75,3.12a2.27,2.27,0,0,1-1.11,2.28,7.91,7.91,0,0,1-3.27.52c-2,0-3.28-.44-4-1.33a7.25,7.25,0,0,1-1-4.4A6.17,6.17,0,0,1,7,6.39C8.92,5,11.54,4.33,14.92,4.33q12.5,0,12.5,9.81a15.78,15.78,0,0,1-.51,4.15,13,13,0,0,1-1.25,3.13,10.17,10.17,0,0,1-2,2.39,18,18,0,0,1-2.37,1.85A29.34,29.34,0,0,1,18.58,27.18Z"/><path class="cls-2" d="M45.48,23.86a15.11,15.11,0,0,1-4.6.76,9.83,9.83,0,0,1-7.26-2.85,9.73,9.73,0,0,1-2.85-7.2A11,11,0,0,1,32.2,8.88a9.23,9.23,0,0,1,4-3.67A13.21,13.21,0,0,1,42.09,4a14.92,14.92,0,0,1,5.57,1,11,11,0,0,1,3.9,2.51A12.62,12.62,0,0,1,54,11.11a17.3,17.3,0,0,1,1.29,4.24,27.45,27.45,0,0,1,.34,4.43,25.63,25.63,0,0,1-.54,5.43,16,16,0,0,1-1.7,4.57A12.08,12.08,0,0,1,46,35.62a20,20,0,0,1-5.86.8,11.43,11.43,0,0,1-6.25-1.61,4.8,4.8,0,0,1-2.53-4.17,4.5,4.5,0,0,1,1-2.89A3.15,3.15,0,0,1,35,26.47a6.27,6.27,0,0,1,2.48.9,6.64,6.64,0,0,0,3,.9,4.54,4.54,0,0,0,2.17-.57,5.32,5.32,0,0,0,1.79-1.59A5.65,5.65,0,0,0,45.48,23.86Zm-5.56-9a9.8,9.8,0,0,0,.6,3.58c.4,1,1,1.54,1.7,1.54a1.64,1.64,0,0,0,1.31-.78,5.31,5.31,0,0,0,.85-1.94,10.1,10.1,0,0,0,.28-2.4,8.88,8.88,0,0,0-.64-3.5c-.43-1-1-1.52-1.79-1.52s-1.35.49-1.73,1.47A9.81,9.81,0,0,0,39.92,14.85Z"/></g></g></svg>