<svg xmlns="http://www.w3.org/2000/svg" viewBox="0 0 37.38 28.43"><defs><style>.cls-1{fill:none;stroke:#7c439f;stroke-width:6.6px;}.cls-2{fill:#fff;}</style></defs><title>1l</title><g id="Layer_2" data-name="Layer 2"><g id="barra_lateral_derecha" data-name="barra lateral derecha"><path class="cls-1" d="M14.35,20a5.88,5.88,0,0,1-.94,3.74,3.54,3.54,0,0,1-2.85,1.11,4.58,4.58,0,0,1-2-.39,2.51,2.51,0,0,1-1.18-1.42,8.23,8.23,0,0,1-.43-2.78L6.85,8.22A5.12,5.12,0,0,1,4.3,7.65a2,2,0,0,1-1-1.89A2.12,2.12,0,0,1,4.22,4a4.15,4.15,0,0,1,2.57-.7l1.83,0h1.67a4.78,4.78,0,0,1,3.22.8,3.78,3.78,0,0,1,.82,2.76Z"/><path class="cls-1" d="M17.32,22.67a2.13,2.13,0,0,1,.92-1.78,4.38,4.38,0,0,1,2.61-.68c2.35,0,3.52.82,3.52,2.46a2.36,2.36,0,0,1-.45,1.51,2.27,2.27,0,0,1-1.2.76,7.61,7.61,0,0,1-1.88.19,5,5,0,0,1-2.52-.58A2,2,0,0,1,17.32,22.67Z"/><path class="cls-1" d="M34.08,20a5.88,5.88,0,0,1-.95,3.74,3.5,3.5,0,0,1-2.84,1.11,4.58,4.58,0,0,1-2-.39,2.51,2.51,0,0,1-1.18-1.42,8.23,8.23,0,0,1-.43-2.78L26.58,8.22A5.12,5.12,0,0,1,24,7.65a2,2,0,0,1-1-1.89A2.12,2.12,0,0,1,24,4a4.15,4.15,0,0,1,2.57-.7l1.83,0H30a4.74,4.74,0,0,1,3.22.8,3.73,3.73,0,0,1,.82,2.76Z"/><path class="cls-2" d="M14.35,20a5.88,5.88,0,0,1-.94,3.74,3.54,3.54,0,0,1-2.85,1.11,4.58,4.58,0,0,1-2-.39,2.51,2.51,0,0,1-1.18-1.42,8.23,8.23,0,0,1-.43-2.78L6.85,8.22A5.12,5.12,0,0,1,4.3,7.65a2,2,0,0,1-1-1.89A2.12,2.12,0,0,1,4.22,4a4.15,4.15,0,0,1,2.57-.7l1.83,0h1.67a4.78,4.78,0,0,1,3.22.8,3.78,3.78,0,0,1,.82,2.76Z"/><path class="cls-2" d="M17.32,22.67a2.13,2.13,0,0,1,.92-1.78,4.38,4.38,0,0,1,2.61-.68c2.35,0,3.52.82,3.52,2.46a2.36,2.36,0,0,1-.45,1.51,2.27,2.27,0,0,1-1.2.76,7.61,7.61,0,0,1-1.88.19,5,5,0,0,1-2.52-.58A2,2,0,0,1,17.32,22.67Z"/><path class="cls-2" d="M34.08,20a5.88,5.88,0,0,1-.95,3.74,3.5,3.5,0,0,1-2.84,1.11,4.58,4.58,0,0,1-2-.39,2.51,2.51,0,0,1-1.18-1.42,8.23,8.23,0,0,1-.43-2.78L26.58,8.22A5.12,5.12,0,0,1,24,7.65a2,2,0,0,1-1-1.89A2.12,2.12,0,0,1,24,4a4.15,4.15,0,0,1,2.57-.7l1.83,0H30a4.74,4.74,0,0,1,3.22.8,3.73,3.73,0,0,1,.82,2.76Z"/></g></g></svg>