<svg xmlns="http://www.w3.org/2000/svg" viewBox="0 0 31.68 28.17"><defs><style>.cls-1{fill:none;stroke:#7c439f;stroke-width:6.6px;}.cls-2{fill:#fff;}</style></defs><title>1n</title><g id="Layer_2" data-name="Layer 2"><g id="barra_lateral_derecha" data-name="barra lateral derecha"><path class="cls-1" d="M14.35,20a5.88,5.88,0,0,1-.94,3.74,3.54,3.54,0,0,1-2.85,1.11,4.58,4.58,0,0,1-2-.39,2.55,2.55,0,0,1-1.18-1.42,8.48,8.48,0,0,1-.43-2.78l0-12.06A5.13,5.13,0,0,1,4.3,7.65a2,2,0,0,1-1-1.89A2.12,2.12,0,0,1,4.22,4,4.19,4.19,0,0,1,6.8,3.3l1.82,0h1.67a4.82,4.82,0,0,1,3.22.79,3.8,3.8,0,0,1,.82,2.77Z"/><path class="cls-1" d="M28.38,20a5.77,5.77,0,0,1-.94,3.73,3.48,3.48,0,0,1-2.85,1.12,4.53,4.53,0,0,1-2-.39,2.51,2.51,0,0,1-1.18-1.42,8.45,8.45,0,0,1-.44-2.78L20.89,8.22a5.09,5.09,0,0,1-2.55-.57,2,2,0,0,1-1-1.89A2.1,2.1,0,0,1,18.26,4a4.13,4.13,0,0,1,2.57-.7l1.83,0h1.66a4.81,4.81,0,0,1,3.22.79,3.76,3.76,0,0,1,.82,2.77Z"/><path class="cls-2" d="M14.35,20a5.88,5.88,0,0,1-.94,3.74,3.54,3.54,0,0,1-2.85,1.11,4.58,4.58,0,0,1-2-.39,2.55,2.55,0,0,1-1.18-1.42,8.48,8.48,0,0,1-.43-2.78l0-12.06A5.13,5.13,0,0,1,4.3,7.65a2,2,0,0,1-1-1.89A2.12,2.12,0,0,1,4.22,4,4.19,4.19,0,0,1,6.8,3.3l1.82,0h1.67a4.82,4.82,0,0,1,3.22.79,3.8,3.8,0,0,1,.82,2.77Z"/><path class="cls-2" d="M28.38,20a5.77,5.77,0,0,1-.94,3.73,3.48,3.48,0,0,1-2.85,1.12,4.53,4.53,0,0,1-2-.39,2.51,2.51,0,0,1-1.18-1.42,8.45,8.45,0,0,1-.44-2.78L20.89,8.22a5.09,5.09,0,0,1-2.55-.57,2,2,0,0,1-1-1.89A2.1,2.1,0,0,1,18.26,4a4.13,4.13,0,0,1,2.57-.7l1.83,0h1.66a4.81,4.81,0,0,1,3.22.79,3.76,3.76,0,0,1,.82,2.77Z"/></g></g></svg>