<svg xmlns="http://www.w3.org/2000/svg" viewBox="0 0 51.56 39.85"><defs><style>.cls-1{fill:none;stroke:#fff;stroke-width:7.9px;}.cls-2{fill:#512573;}</style></defs><title>1sin_1</title><g id="Layer_2" data-name="Layer 2"><g id="barra_lateral_derecha" data-name="barra lateral derecha"><path class="cls-1" d="M19.66,28.46q0,3.84-1.34,5.47a4.92,4.92,0,0,1-4.05,1.64A6.29,6.29,0,0,1,11.38,35,3.63,3.63,0,0,1,9.7,32.91a12.48,12.48,0,0,1-.62-4.07L9,11.16a7.17,7.17,0,0,1-3.63-.83A3,3,0,0,1,4,7.55,3.15,3.15,0,0,1,5.26,5,5.85,5.85,0,0,1,8.92,4l2.6,0,2.37,0c2.26,0,3.79.39,4.57,1.16s1.17,2.13,1.17,4.05Z"/><path class="cls-1" d="M38.65,26.8h5.1q3.87,0,3.86,4.45a4.55,4.55,0,0,1-1.22,3.58c-.81.71-2.26,1.07-4.35,1.07H29.58c-2.14,0-3.61-.29-4.39-.88S24,33.18,24,31.25a6.46,6.46,0,0,1,.19-1.63,3.77,3.77,0,0,1,.69-1.35A6.39,6.39,0,0,1,26.28,27q2.49-1.71,3.91-2.75c.95-.7,1.88-1.43,2.78-2.21a14,14,0,0,0,2-2,11,11,0,0,0,1.17-1.87,7.07,7.07,0,0,0,.69-2.08A17.4,17.4,0,0,0,37,13.62C37,11.85,36.47,11,35.4,11s-1.75,1-1.75,3.12a2.26,2.26,0,0,1-1.11,2.28,7.86,7.86,0,0,1-3.26.52c-2,0-3.29-.44-4-1.33a7.25,7.25,0,0,1-1-4.4A6.19,6.19,0,0,1,27.1,6Q29.93,4,35,4q12.51,0,12.5,9.81A15.78,15.78,0,0,1,47,17.91,13,13,0,0,1,45.74,21a10.22,10.22,0,0,1-2,2.39,18,18,0,0,1-2.37,1.85A28.08,28.08,0,0,1,38.65,26.8Z"/><path class="cls-2" d="M19.66,28.46q0,3.84-1.34,5.47a4.92,4.92,0,0,1-4.05,1.64A6.29,6.29,0,0,1,11.38,35,3.63,3.63,0,0,1,9.7,32.91a12.48,12.48,0,0,1-.62-4.07L9,11.16a7.17,7.17,0,0,1-3.63-.83A3,3,0,0,1,4,7.55,3.15,3.15,0,0,1,5.26,5,5.85,5.85,0,0,1,8.92,4l2.6,0,2.37,0c2.26,0,3.79.39,4.57,1.16s1.17,2.13,1.17,4.05Z"/><path class="cls-2" d="M38.65,26.8h5.1q3.87,0,3.86,4.45a4.55,4.55,0,0,1-1.22,3.58c-.81.71-2.26,1.07-4.35,1.07H29.58c-2.14,0-3.61-.29-4.39-.88S24,33.18,24,31.25a6.46,6.46,0,0,1,.19-1.63,3.77,3.77,0,0,1,.69-1.35A6.39,6.39,0,0,1,26.28,27q2.49-1.71,3.91-2.75c.95-.7,1.88-1.43,2.78-2.21a14,14,0,0,0,2-2,11,11,0,0,0,1.17-1.87,7.07,7.07,0,0,0,.69-2.08A17.4,17.4,0,0,0,37,13.62C37,11.85,36.47,11,35.4,11s-1.75,1-1.75,3.12a2.26,2.26,0,0,1-1.11,2.28,7.86,7.86,0,0,1-3.26.52c-2,0-3.29-.44-4-1.33a7.25,7.25,0,0,1-1-4.4A6.19,6.19,0,0,1,27.1,6Q29.93,4,35,4q12.51,0,12.5,9.81A15.78,15.78,0,0,1,47,17.91,13,13,0,0,1,45.74,21a10.22,10.22,0,0,1-2,2.39,18,18,0,0,1-2.37,1.85A28.08,28.08,0,0,1,38.65,26.8Z"/></g></g></svg>