<svg xmlns="http://www.w3.org/2000/svg" viewBox="0 0 43.56 39.52"><defs><style>.cls-1{fill:none;stroke:#fff;stroke-width:7.9px;}.cls-2{fill:#512573;}</style></defs><title>1sin</title><g id="Layer_2" data-name="Layer 2"><g id="barra_lateral_derecha" data-name="barra lateral derecha"><path class="cls-1" d="M19.66,28.46q0,3.84-1.34,5.47a4.92,4.92,0,0,1-4.05,1.64A6.29,6.29,0,0,1,11.38,35,3.63,3.63,0,0,1,9.7,32.91a12.48,12.48,0,0,1-.62-4.07L9,11.16a7.17,7.17,0,0,1-3.63-.83A3,3,0,0,1,4,7.55,3.15,3.15,0,0,1,5.26,5,5.85,5.85,0,0,1,8.92,4l2.6,0,2.37,0c2.26,0,3.79.39,4.57,1.16s1.17,2.13,1.17,4.05Z"/><path class="cls-1" d="M39.61,28.46q0,3.84-1.33,5.47a4.92,4.92,0,0,1-4.05,1.64,6.34,6.34,0,0,1-2.9-.57,3.68,3.68,0,0,1-1.67-2.09A12.21,12.21,0,0,1,29,28.84L29,11.16a7.17,7.17,0,0,1-3.63-.83,3,3,0,0,1-1.42-2.78A3.12,3.12,0,0,1,25.22,5a5.82,5.82,0,0,1,3.66-1l2.59,0,2.37,0c2.27,0,3.79.38,4.58,1.16s1.17,2.12,1.17,4.05Z"/><path class="cls-2" d="M19.66,28.46q0,3.84-1.34,5.47a4.92,4.92,0,0,1-4.05,1.64A6.29,6.29,0,0,1,11.38,35,3.63,3.63,0,0,1,9.7,32.91a12.48,12.48,0,0,1-.62-4.07L9,11.16a7.17,7.17,0,0,1-3.63-.83A3,3,0,0,1,4,7.55,3.15,3.15,0,0,1,5.26,5,5.85,5.85,0,0,1,8.92,4l2.6,0,2.37,0c2.26,0,3.79.39,4.57,1.16s1.17,2.13,1.17,4.05Z"/><path class="cls-2" d="M39.61,28.46q0,3.84-1.33,5.47a4.92,4.92,0,0,1-4.05,1.64,6.34,6.34,0,0,1-2.9-.57,3.68,3.68,0,0,1-1.67-2.09A12.21,12.21,0,0,1,29,28.84L29,11.16a7.17,7.17,0,0,1-3.63-.83,3,3,0,0,1-1.42-2.78A3.12,3.12,0,0,1,25.22,5a5.82,5.82,0,0,1,3.66-1l2.59,0,2.37,0c2.27,0,3.79.38,4.58,1.16s1.17,2.12,1.17,4.05Z"/></g></g></svg>