<svg xmlns="http://www.w3.org/2000/svg" viewBox="0 0 42.08 28.43"><defs><style>.cls-1{fill:none;stroke:#2da323;stroke-width:6.6px;}.cls-2{fill:#fff;}</style></defs><title>21</title><g id="Layer_2" data-name="Layer 2"><g id="barra_lateral_derecha" data-name="barra lateral derecha"><path class="cls-1" d="M13.59,18.89h3.59c1.81,0,2.71,1,2.71,3A3.06,3.06,0,0,1,19,24.37,4.84,4.84,0,0,1,16,25.1H7.21a5.61,5.61,0,0,1-3.09-.6c-.55-.4-.82-1.26-.82-2.57a4.15,4.15,0,0,1,.13-1.12,2.66,2.66,0,0,1,.49-.92,4.2,4.2,0,0,1,1-.87c1.16-.78,2.08-1.4,2.75-1.88s1.32-1,2-1.5A10.22,10.22,0,0,0,11,14.28,7.42,7.42,0,0,0,11.83,13a4.71,4.71,0,0,0,.49-1.42,11.52,11.52,0,0,0,.11-1.68c0-1.21-.38-1.81-1.13-1.81s-1.23.71-1.23,2.13a1.51,1.51,0,0,1-.78,1.55A5.66,5.66,0,0,1,7,12.13a3.44,3.44,0,0,1-2.8-.91,4.78,4.78,0,0,1-.73-3,4.21,4.21,0,0,1,2-3.51A9.44,9.44,0,0,1,11,3.3q8.8,0,8.79,6.69a10.8,10.8,0,0,1-.35,2.83A8.41,8.41,0,0,1,18.57,15a6.6,6.6,0,0,1-1.41,1.63,13,13,0,0,1-1.66,1.26A21,21,0,0,1,13.59,18.89Z"/><path class="cls-1" d="M22,22.67A2.12,2.12,0,0,1,23,20.89a4.33,4.33,0,0,1,2.6-.68c2.35,0,3.53.82,3.52,2.46a2.36,2.36,0,0,1-.45,1.51,2.23,2.23,0,0,1-1.2.76,7.52,7.52,0,0,1-1.87.19A5,5,0,0,1,23,24.55,2,2,0,0,1,22,22.67Z"/><path class="cls-1" d="M38.78,20a5.88,5.88,0,0,1-.94,3.74A3.54,3.54,0,0,1,35,24.87a4.58,4.58,0,0,1-2-.39,2.55,2.55,0,0,1-1.18-1.42,8.48,8.48,0,0,1-.43-2.78L31.29,8.22a5.13,5.13,0,0,1-2.56-.57,2,2,0,0,1-1-1.89A2.12,2.12,0,0,1,28.65,4a4.19,4.19,0,0,1,2.58-.7l1.82,0h1.67a4.71,4.71,0,0,1,3.21.8,3.73,3.73,0,0,1,.83,2.76Z"/><path class="cls-2" d="M13.59,18.89h3.59c1.81,0,2.71,1,2.71,3A3.06,3.06,0,0,1,19,24.37,4.84,4.84,0,0,1,16,25.1H7.21a5.61,5.61,0,0,1-3.09-.6c-.55-.4-.82-1.26-.82-2.57a4.15,4.15,0,0,1,.13-1.12,2.66,2.66,0,0,1,.49-.92,4.2,4.2,0,0,1,1-.87c1.16-.78,2.08-1.4,2.75-1.88s1.32-1,2-1.5A10.22,10.22,0,0,0,11,14.28,7.42,7.42,0,0,0,11.83,13a4.71,4.71,0,0,0,.49-1.42,11.52,11.52,0,0,0,.11-1.68c0-1.21-.38-1.81-1.13-1.81s-1.23.71-1.23,2.13a1.51,1.51,0,0,1-.78,1.55A5.66,5.66,0,0,1,7,12.13a3.44,3.44,0,0,1-2.8-.91,4.78,4.78,0,0,1-.73-3,4.21,4.21,0,0,1,2-3.51A9.44,9.44,0,0,1,11,3.3q8.8,0,8.79,6.69a10.8,10.8,0,0,1-.35,2.83A8.41,8.41,0,0,1,18.57,15a6.6,6.6,0,0,1-1.41,1.63,13,13,0,0,1-1.66,1.26A21,21,0,0,1,13.59,18.89Z"/><path class="cls-2" d="M22,22.67A2.12,2.12,0,0,1,23,20.89a4.33,4.33,0,0,1,2.6-.68c2.35,0,3.53.82,3.52,2.46a2.36,2.36,0,0,1-.45,1.51,2.23,2.23,0,0,1-1.2.76,7.52,7.52,0,0,1-1.87.19A5,5,0,0,1,23,24.55,2,2,0,0,1,22,22.67Z"/><path class="cls-2" d="M38.78,20a5.88,5.88,0,0,1-.94,3.74A3.54,3.54,0,0,1,35,24.87a4.58,4.58,0,0,1-2-.39,2.55,2.55,0,0,1-1.18-1.42,8.48,8.48,0,0,1-.43-2.78L31.29,8.22a5.13,5.13,0,0,1-2.56-.57,2,2,0,0,1-1-1.89A2.12,2.12,0,0,1,28.65,4a4.19,4.19,0,0,1,2.58-.7l1.82,0h1.67a4.71,4.71,0,0,1,3.21.8,3.73,3.73,0,0,1,.83,2.76Z"/></g></g></svg>