<svg xmlns="http://www.w3.org/2000/svg" viewBox="0 0 58.34 39.9"><defs><style>.cls-1{fill:none;stroke:#fff;stroke-width:7.9px;}.cls-2{fill:#914e06;}</style></defs><title>21si</title><g id="Layer_2" data-name="Layer 2"><g id="barra_lateral_derecha" data-name="barra lateral derecha"><path class="cls-1" d="M18.58,26.8h5.1q3.86,0,3.86,4.45a4.55,4.55,0,0,1-1.22,3.58c-.82.71-2.27,1.07-4.35,1.07H9.51c-2.15,0-3.61-.29-4.39-.88S4,33.18,4,31.25a6.49,6.49,0,0,1,.18-1.63,4,4,0,0,1,.7-1.35A6,6,0,0,1,6.21,27c1.65-1.14,3-2.06,3.91-2.75S12,22.81,12.9,22a14.29,14.29,0,0,0,2-2,11.72,11.72,0,0,0,1.18-1.87,7.07,7.07,0,0,0,.69-2.08,16.15,16.15,0,0,0,.16-2.47c0-1.77-.53-2.65-1.61-2.65s-1.74,1-1.74,3.13a2.27,2.27,0,0,1-1.11,2.27,7.94,7.94,0,0,1-3.27.52c-2,0-3.28-.44-4-1.33a7.25,7.25,0,0,1-1-4.4A6.17,6.17,0,0,1,7,6C8.92,4.64,11.54,4,14.92,4q12.5,0,12.5,9.81a16.21,16.21,0,0,1-.51,4.15A13,13,0,0,1,25.66,21a10.17,10.17,0,0,1-2,2.39,18,18,0,0,1-2.37,1.85A29.34,29.34,0,0,1,18.58,26.8Z"/><path class="cls-1" d="M30.57,32.34a3.12,3.12,0,0,1,1.31-2.6,6,6,0,0,1,3.71-1q5,0,5,3.6A3.5,3.5,0,0,1,40,34.55a3.14,3.14,0,0,1-1.7,1.11,10.51,10.51,0,0,1-2.67.29A6.83,6.83,0,0,1,32,35.09,2.93,2.93,0,0,1,30.57,32.34Z"/><path class="cls-1" d="M54.39,28.46q0,3.84-1.33,5.47A4.92,4.92,0,0,1,49,35.57a6.34,6.34,0,0,1-2.9-.57,3.68,3.68,0,0,1-1.67-2.09,12.21,12.21,0,0,1-.62-4.07l-.08-17.68a7.17,7.17,0,0,1-3.63-.83,2.94,2.94,0,0,1-1.42-2.78A3.15,3.15,0,0,1,40,5a5.82,5.82,0,0,1,3.66-1l2.59,0,2.37,0c2.27,0,3.8.38,4.58,1.16s1.17,2.12,1.16,4.05Z"/><path class="cls-2" d="M18.58,26.8h5.1q3.86,0,3.86,4.45a4.55,4.55,0,0,1-1.22,3.58c-.82.71-2.27,1.07-4.35,1.07H9.51c-2.15,0-3.61-.29-4.39-.88S4,33.18,4,31.25a6.49,6.49,0,0,1,.18-1.63,4,4,0,0,1,.7-1.35A6,6,0,0,1,6.21,27c1.65-1.14,3-2.06,3.91-2.75S12,22.81,12.9,22a14.29,14.29,0,0,0,2-2,11.72,11.72,0,0,0,1.18-1.87,7.07,7.07,0,0,0,.69-2.08,16.15,16.15,0,0,0,.16-2.47c0-1.77-.53-2.65-1.61-2.65s-1.74,1-1.74,3.13a2.27,2.27,0,0,1-1.11,2.27,7.94,7.94,0,0,1-3.27.52c-2,0-3.28-.44-4-1.33a7.25,7.25,0,0,1-1-4.4A6.17,6.17,0,0,1,7,6C8.92,4.64,11.54,4,14.92,4q12.5,0,12.5,9.81a16.21,16.21,0,0,1-.51,4.15A13,13,0,0,1,25.66,21a10.17,10.17,0,0,1-2,2.39,18,18,0,0,1-2.37,1.85A29.34,29.34,0,0,1,18.58,26.8Z"/><path class="cls-2" d="M30.57,32.34a3.12,3.12,0,0,1,1.31-2.6,6,6,0,0,1,3.71-1q5,0,5,3.6A3.5,3.5,0,0,1,40,34.55a3.14,3.14,0,0,1-1.7,1.11,10.51,10.51,0,0,1-2.67.29A6.83,6.83,0,0,1,32,35.09,2.93,2.93,0,0,1,30.57,32.34Z"/><path class="cls-2" d="M54.39,28.46q0,3.84-1.33,5.47A4.92,4.92,0,0,1,49,35.57a6.34,6.34,0,0,1-2.9-.57,3.68,3.68,0,0,1-1.67-2.09,12.21,12.21,0,0,1-.62-4.07l-.08-17.68a7.17,7.17,0,0,1-3.63-.83,2.94,2.94,0,0,1-1.42-2.78A3.15,3.15,0,0,1,40,5a5.82,5.82,0,0,1,3.66-1l2.59,0,2.37,0c2.27,0,3.8.38,4.58,1.16s1.17,2.12,1.16,4.05Z"/></g></g></svg>