<svg xmlns="http://www.w3.org/2000/svg" viewBox="0 0 51.16 28.43"><defs><style>.cls-1{fill:none;stroke:#2da323;stroke-width:6.6px;}.cls-2{fill:#fff;}</style></defs><title>22</title><g id="Layer_2" data-name="Layer 2"><g id="barra_lateral_derecha" data-name="barra lateral derecha"><path class="cls-1" d="M13.59,18.89h3.59c1.81,0,2.71,1,2.71,3A3.06,3.06,0,0,1,19,24.37,4.79,4.79,0,0,1,16,25.1H7.21a5.61,5.61,0,0,1-3.09-.6c-.55-.4-.82-1.26-.82-2.57a4.15,4.15,0,0,1,.13-1.12,2.66,2.66,0,0,1,.49-.92,4.2,4.2,0,0,1,1-.87c1.16-.78,2.08-1.4,2.75-1.88s1.32-1,2-1.5A9.83,9.83,0,0,0,11,14.28,7.42,7.42,0,0,0,11.83,13a4.71,4.71,0,0,0,.49-1.42,11.52,11.52,0,0,0,.11-1.68c0-1.21-.38-1.81-1.13-1.81s-1.23.71-1.23,2.13a1.51,1.51,0,0,1-.78,1.55A5.66,5.66,0,0,1,7,12.13a3.44,3.44,0,0,1-2.8-.91,4.78,4.78,0,0,1-.73-3,4.17,4.17,0,0,1,2-3.51A9.44,9.44,0,0,1,11,3.3q8.8,0,8.79,6.7a10.78,10.78,0,0,1-.35,2.82A8.41,8.41,0,0,1,18.57,15a6.81,6.81,0,0,1-1.41,1.63,13,13,0,0,1-1.66,1.26A21,21,0,0,1,13.59,18.89Z"/><path class="cls-1" d="M22,22.67A2.12,2.12,0,0,1,23,20.89a4.33,4.33,0,0,1,2.6-.68c2.35,0,3.53.82,3.52,2.46a2.36,2.36,0,0,1-.45,1.51,2.23,2.23,0,0,1-1.2.76,8,8,0,0,1-1.87.19A5,5,0,0,1,23,24.55,2,2,0,0,1,22,22.67Z"/><path class="cls-1" d="M41.56,18.89h3.59c1.81,0,2.72,1,2.71,3A3,3,0,0,1,47,24.37a4.84,4.84,0,0,1-3,.73H35.18a5.55,5.55,0,0,1-3.08-.6,3.08,3.08,0,0,1-.83-2.57,4.6,4.6,0,0,1,.13-1.12,2.66,2.66,0,0,1,.49-.92,4.41,4.41,0,0,1,1-.87c1.16-.78,2.08-1.4,2.75-1.88s1.32-1,2-1.5A11,11,0,0,0,39,14.28,8,8,0,0,0,39.8,13a4.71,4.71,0,0,0,.49-1.42A11.62,11.62,0,0,0,40.4,9.9c0-1.21-.37-1.81-1.13-1.81S38,8.8,38,10.22a1.51,1.51,0,0,1-.78,1.55,5.63,5.63,0,0,1-2.29.36,3.45,3.45,0,0,1-2.8-.91,4.86,4.86,0,0,1-.72-3,4.15,4.15,0,0,1,2-3.51A9.45,9.45,0,0,1,39,3.3q8.79,0,8.79,6.69a10.38,10.38,0,0,1-.36,2.83A8.41,8.41,0,0,1,46.54,15a6.78,6.78,0,0,1-1.41,1.63,12.35,12.35,0,0,1-1.66,1.26A21,21,0,0,1,41.56,18.89Z"/><path class="cls-2" d="M13.59,18.89h3.59c1.81,0,2.71,1,2.71,3A3.06,3.06,0,0,1,19,24.37,4.79,4.79,0,0,1,16,25.1H7.21a5.61,5.61,0,0,1-3.09-.6c-.55-.4-.82-1.26-.82-2.57a4.15,4.15,0,0,1,.13-1.12,2.66,2.66,0,0,1,.49-.92,4.2,4.2,0,0,1,1-.87c1.16-.78,2.08-1.4,2.75-1.88s1.32-1,2-1.5A9.83,9.83,0,0,0,11,14.28,7.42,7.42,0,0,0,11.83,13a4.71,4.71,0,0,0,.49-1.42,11.52,11.52,0,0,0,.11-1.68c0-1.21-.38-1.81-1.13-1.81s-1.23.71-1.23,2.13a1.51,1.51,0,0,1-.78,1.55A5.66,5.66,0,0,1,7,12.13a3.44,3.44,0,0,1-2.8-.91,4.78,4.78,0,0,1-.73-3,4.17,4.17,0,0,1,2-3.51A9.44,9.44,0,0,1,11,3.3q8.8,0,8.79,6.7a10.78,10.78,0,0,1-.35,2.82A8.41,8.41,0,0,1,18.57,15a6.81,6.81,0,0,1-1.41,1.63,13,13,0,0,1-1.66,1.26A21,21,0,0,1,13.59,18.89Z"/><path class="cls-2" d="M22,22.67A2.12,2.12,0,0,1,23,20.89a4.33,4.33,0,0,1,2.6-.68c2.35,0,3.53.82,3.52,2.46a2.36,2.36,0,0,1-.45,1.51,2.23,2.23,0,0,1-1.2.76,8,8,0,0,1-1.87.19A5,5,0,0,1,23,24.55,2,2,0,0,1,22,22.67Z"/><path class="cls-2" d="M41.56,18.89h3.59c1.81,0,2.72,1,2.71,3A3,3,0,0,1,47,24.37a4.84,4.84,0,0,1-3,.73H35.18a5.55,5.55,0,0,1-3.08-.6,3.08,3.08,0,0,1-.83-2.57,4.6,4.6,0,0,1,.13-1.12,2.66,2.66,0,0,1,.49-.92,4.41,4.41,0,0,1,1-.87c1.16-.78,2.08-1.4,2.75-1.88s1.32-1,2-1.5A11,11,0,0,0,39,14.28,8,8,0,0,0,39.8,13a4.71,4.71,0,0,0,.49-1.42A11.62,11.62,0,0,0,40.4,9.9c0-1.21-.37-1.81-1.13-1.81S38,8.8,38,10.22a1.51,1.51,0,0,1-.78,1.55,5.63,5.63,0,0,1-2.29.36,3.45,3.45,0,0,1-2.8-.91,4.86,4.86,0,0,1-.72-3,4.15,4.15,0,0,1,2-3.51A9.45,9.45,0,0,1,39,3.3q8.79,0,8.79,6.69a10.38,10.38,0,0,1-.36,2.83A8.41,8.41,0,0,1,46.54,15a6.78,6.78,0,0,1-1.41,1.63,12.35,12.35,0,0,1-1.66,1.26A21,21,0,0,1,41.56,18.89Z"/></g></g></svg>