<svg xmlns="http://www.w3.org/2000/svg" viewBox="0 0 51.36 28.43"><defs><style>.cls-1{fill:none;stroke:#2da323;stroke-width:6.6px;}.cls-2{fill:#fff;}</style></defs><title>23</title><g id="Layer_2" data-name="Layer 2"><g id="barra_lateral_derecha" data-name="barra lateral derecha"><path class="cls-1" d="M13.59,18.89h3.59c1.81,0,2.71,1,2.71,3A3.06,3.06,0,0,1,19,24.37,4.85,4.85,0,0,1,16,25.1H7.21a5.61,5.61,0,0,1-3.09-.6c-.55-.4-.82-1.26-.82-2.57a4.15,4.15,0,0,1,.13-1.12,2.66,2.66,0,0,1,.49-.92,4.2,4.2,0,0,1,1-.87c1.16-.78,2.08-1.4,2.75-1.88s1.32-1,2-1.5A10.22,10.22,0,0,0,11,14.28,7.42,7.42,0,0,0,11.83,13a4.71,4.71,0,0,0,.49-1.42,11.62,11.62,0,0,0,.11-1.68c0-1.21-.38-1.81-1.13-1.81s-1.23.71-1.23,2.13a1.51,1.51,0,0,1-.78,1.55A5.66,5.66,0,0,1,7,12.13a3.44,3.44,0,0,1-2.8-.91,4.78,4.78,0,0,1-.73-3,4.17,4.17,0,0,1,2-3.51A9.44,9.44,0,0,1,11,3.3q8.8,0,8.79,6.7a10.78,10.78,0,0,1-.35,2.82A8.41,8.41,0,0,1,18.57,15a6.81,6.81,0,0,1-1.41,1.63,13,13,0,0,1-1.66,1.26A21,21,0,0,1,13.59,18.89Z"/><path class="cls-1" d="M22,22.67A2.12,2.12,0,0,1,23,20.89a4.33,4.33,0,0,1,2.6-.68c2.35,0,3.53.82,3.52,2.46a2.31,2.31,0,0,1-.45,1.5,2.12,2.12,0,0,1-1.2.76,7.47,7.47,0,0,1-1.87.2A5,5,0,0,1,23,24.55,2,2,0,0,1,22,22.67Z"/><path class="cls-1" d="M40.5,10.32q0-1.59-2.94-1.59a15.57,15.57,0,0,0-1.67.12c-.7.07-1.21.11-1.53.11C32.8,9,32,8,32,6.18S34.27,3.3,38.76,3.3q4.37,0,6.53,1.42a4.28,4.28,0,0,1,2.16,3.72,5.91,5.91,0,0,1-2.78,5.11,7.42,7.42,0,0,1,2.63,2.09,5.36,5.36,0,0,1,.76,3.12,5.59,5.59,0,0,1-2.22,4.58,9.3,9.3,0,0,1-5.93,1.76q-4.66,0-6.68-1a3.06,3.06,0,0,1-2-2.89A3,3,0,0,1,31.86,19a2.55,2.55,0,0,1,1.81-.6c.39,0,1,.05,1.81.13a18.2,18.2,0,0,0,1.88.13c2.35,0,3.52-.43,3.52-1.29a1.22,1.22,0,0,0-.68-1.21,6.35,6.35,0,0,0-2.55-.34A5.18,5.18,0,0,1,35,15.36a2,2,0,0,1-.78-1.81c0-1.33.89-2,2.66-2a14.09,14.09,0,0,0,2.54-.17c.55-.1.86-.23.95-.37A1.33,1.33,0,0,0,40.5,10.32Z"/><path class="cls-2" d="M13.59,18.89h3.59c1.81,0,2.71,1,2.71,3A3.06,3.06,0,0,1,19,24.37,4.85,4.85,0,0,1,16,25.1H7.21a5.61,5.61,0,0,1-3.09-.6c-.55-.4-.82-1.26-.82-2.57a4.15,4.15,0,0,1,.13-1.12,2.66,2.66,0,0,1,.49-.92,4.2,4.2,0,0,1,1-.87c1.16-.78,2.08-1.4,2.75-1.88s1.32-1,2-1.5A10.22,10.22,0,0,0,11,14.28,7.42,7.42,0,0,0,11.83,13a4.71,4.71,0,0,0,.49-1.42,11.62,11.62,0,0,0,.11-1.68c0-1.21-.38-1.81-1.13-1.81s-1.23.71-1.23,2.13a1.51,1.51,0,0,1-.78,1.55A5.66,5.66,0,0,1,7,12.13a3.44,3.44,0,0,1-2.8-.91,4.78,4.78,0,0,1-.73-3,4.17,4.17,0,0,1,2-3.51A9.44,9.44,0,0,1,11,3.3q8.8,0,8.79,6.7a10.78,10.78,0,0,1-.35,2.82A8.41,8.41,0,0,1,18.57,15a6.81,6.81,0,0,1-1.41,1.63,13,13,0,0,1-1.66,1.26A21,21,0,0,1,13.59,18.89Z"/><path class="cls-2" d="M22,22.67A2.12,2.12,0,0,1,23,20.89a4.33,4.33,0,0,1,2.6-.68c2.35,0,3.53.82,3.52,2.46a2.31,2.31,0,0,1-.45,1.5,2.12,2.12,0,0,1-1.2.76,7.47,7.47,0,0,1-1.87.2A5,5,0,0,1,23,24.55,2,2,0,0,1,22,22.67Z"/><path class="cls-2" d="M40.5,10.32q0-1.59-2.94-1.59a15.57,15.57,0,0,0-1.67.12c-.7.07-1.21.11-1.53.11C32.8,9,32,8,32,6.18S34.27,3.3,38.76,3.3q4.37,0,6.53,1.42a4.28,4.28,0,0,1,2.16,3.72,5.91,5.91,0,0,1-2.78,5.11,7.42,7.42,0,0,1,2.63,2.09,5.36,5.36,0,0,1,.76,3.12,5.59,5.59,0,0,1-2.22,4.58,9.3,9.3,0,0,1-5.93,1.76q-4.66,0-6.68-1a3.06,3.06,0,0,1-2-2.89A3,3,0,0,1,31.86,19a2.55,2.55,0,0,1,1.81-.6c.39,0,1,.05,1.81.13a18.2,18.2,0,0,0,1.88.13c2.35,0,3.52-.43,3.52-1.29a1.22,1.22,0,0,0-.68-1.21,6.35,6.35,0,0,0-2.55-.34A5.18,5.18,0,0,1,35,15.36a2,2,0,0,1-.78-1.81c0-1.33.89-2,2.66-2a14.09,14.09,0,0,0,2.54-.17c.55-.1.86-.23.95-.37A1.33,1.33,0,0,0,40.5,10.32Z"/></g></g></svg>