<svg xmlns="http://www.w3.org/2000/svg" viewBox="0 0 71.54 39.9"><defs><style>.cls-1{fill:none;stroke:#fff;stroke-width:7.9px;}.cls-2{fill:#914e06;}</style></defs><title>23si</title><g id="Layer_2" data-name="Layer 2"><g id="barra_lateral_derecha" data-name="barra lateral derecha"><path class="cls-1" d="M18.58,26.8h5.1c2.58,0,3.86,1.48,3.86,4.45a4.55,4.55,0,0,1-1.22,3.58c-.82.71-2.26,1.07-4.35,1.07H9.51c-2.15,0-3.61-.29-4.39-.88S4,33.18,4,31.25a6,6,0,0,1,.19-1.63,3.77,3.77,0,0,1,.69-1.35A6,6,0,0,1,6.21,27c1.65-1.14,3-2.06,3.91-2.75S12,22.81,12.9,22a14.29,14.29,0,0,0,2-2,11.05,11.05,0,0,0,1.18-1.87,7.07,7.07,0,0,0,.69-2.08,16.15,16.15,0,0,0,.16-2.47c0-1.77-.53-2.65-1.6-2.65s-1.75,1-1.75,3.12a2.26,2.26,0,0,1-1.11,2.28,7.91,7.91,0,0,1-3.27.52c-2,0-3.28-.44-4-1.33a7.25,7.25,0,0,1-1-4.4A6.17,6.17,0,0,1,7,6Q9.87,4,14.92,4q12.51,0,12.5,9.81a15.78,15.78,0,0,1-.51,4.15A13,13,0,0,1,25.66,21a10.17,10.17,0,0,1-2,2.39,18,18,0,0,1-2.37,1.85A28.08,28.08,0,0,1,18.58,26.8Z"/><path class="cls-1" d="M30.57,32.34a3.1,3.1,0,0,1,1.32-2.6,6,6,0,0,1,3.7-1q5,0,5,3.6A3.5,3.5,0,0,1,40,34.55a3.14,3.14,0,0,1-1.7,1.11,10.45,10.45,0,0,1-2.67.29A6.85,6.85,0,0,1,32,35.09,3,3,0,0,1,30.57,32.34Z"/><path class="cls-1" d="M56.84,14.24c0-1.55-1.39-2.33-4.18-2.33a23.21,23.21,0,0,0-2.37.17c-1,.11-1.72.17-2.18.17q-3.31,0-3.31-4.08T54.37,4c4.14,0,7.23.7,9.29,2.09a6.29,6.29,0,0,1,3.07,5.45,8.73,8.73,0,0,1-4,7.49A10.75,10.75,0,0,1,66.52,22a8.14,8.14,0,0,1,1.07,4.58,8.28,8.28,0,0,1-3.15,6.71A12.93,12.93,0,0,1,56,35.9c-4.42,0-7.58-.47-9.5-1.4a4.51,4.51,0,0,1-2.87-4.24A4.43,4.43,0,0,1,44.56,27a3.59,3.59,0,0,1,2.57-.88c.55,0,1.41.07,2.58.19a25.57,25.57,0,0,0,2.66.19c3.34,0,5-.63,5-1.89a1.81,1.81,0,0,0-1-1.78,8.92,8.92,0,0,0-3.63-.5A7.27,7.27,0,0,1,49,21.63,2.92,2.92,0,0,1,47.92,19q0-2.94,3.77-2.94a19.63,19.63,0,0,0,3.61-.24c.78-.16,1.24-.34,1.36-.54A2.16,2.16,0,0,0,56.84,14.24Z"/><path class="cls-2" d="M18.58,26.8h5.1c2.58,0,3.86,1.48,3.86,4.45a4.55,4.55,0,0,1-1.22,3.58c-.82.71-2.26,1.07-4.35,1.07H9.51c-2.15,0-3.61-.29-4.39-.88S4,33.18,4,31.25a6,6,0,0,1,.19-1.63,3.77,3.77,0,0,1,.69-1.35A6,6,0,0,1,6.21,27c1.65-1.14,3-2.06,3.91-2.75S12,22.81,12.9,22a14.29,14.29,0,0,0,2-2,11.05,11.05,0,0,0,1.18-1.87,7.07,7.07,0,0,0,.69-2.08,16.15,16.15,0,0,0,.16-2.47c0-1.77-.53-2.65-1.6-2.65s-1.75,1-1.75,3.12a2.26,2.26,0,0,1-1.11,2.28,7.91,7.91,0,0,1-3.27.52c-2,0-3.28-.44-4-1.33a7.25,7.25,0,0,1-1-4.4A6.17,6.17,0,0,1,7,6Q9.87,4,14.92,4q12.51,0,12.5,9.81a15.78,15.78,0,0,1-.51,4.15A13,13,0,0,1,25.66,21a10.17,10.17,0,0,1-2,2.39,18,18,0,0,1-2.37,1.85A28.08,28.08,0,0,1,18.58,26.8Z"/><path class="cls-2" d="M30.57,32.34a3.1,3.1,0,0,1,1.32-2.6,6,6,0,0,1,3.7-1q5,0,5,3.6A3.5,3.5,0,0,1,40,34.55a3.14,3.14,0,0,1-1.7,1.11,10.45,10.45,0,0,1-2.67.29A6.85,6.85,0,0,1,32,35.09,3,3,0,0,1,30.57,32.34Z"/><path class="cls-2" d="M56.84,14.24c0-1.55-1.39-2.33-4.18-2.33a23.21,23.21,0,0,0-2.37.17c-1,.11-1.72.17-2.18.17q-3.31,0-3.31-4.08T54.37,4c4.14,0,7.23.7,9.29,2.09a6.29,6.29,0,0,1,3.07,5.45,8.73,8.73,0,0,1-4,7.49A10.75,10.75,0,0,1,66.52,22a8.14,8.14,0,0,1,1.07,4.58,8.28,8.28,0,0,1-3.15,6.71A12.93,12.93,0,0,1,56,35.9c-4.42,0-7.58-.47-9.5-1.4a4.51,4.51,0,0,1-2.87-4.24A4.43,4.43,0,0,1,44.56,27a3.59,3.59,0,0,1,2.57-.88c.55,0,1.41.07,2.58.19a25.57,25.57,0,0,0,2.66.19c3.34,0,5-.63,5-1.89a1.81,1.81,0,0,0-1-1.78,8.92,8.92,0,0,0-3.63-.5A7.27,7.27,0,0,1,49,21.63,2.92,2.92,0,0,1,47.92,19q0-2.94,3.77-2.94a19.63,19.63,0,0,0,3.61-.24c.78-.16,1.24-.34,1.36-.54A2.16,2.16,0,0,0,56.84,14.24Z"/></g></g></svg>