<svg xmlns="http://www.w3.org/2000/svg" viewBox="0 0 51.2 28.43"><defs><style>.cls-1,.cls-2,.cls-3{fill:none;}.cls-1{stroke:#2da323;stroke-width:6.6px;}.cls-1,.cls-3{stroke-linejoin:round;}.cls-3{stroke:#2794da;stroke-linecap:round;stroke-width:0.25px;}.cls-4{fill:#fff;}</style></defs><title>24</title><g id="Layer_2" data-name="Layer 2"><g id="barra_lateral_derecha" data-name="barra lateral derecha"><path class="cls-1" d="M13.59,18.89h3.59c1.81,0,2.71,1,2.71,3A3.06,3.06,0,0,1,19,24.37,4.85,4.85,0,0,1,16,25.1H7.21a5.61,5.61,0,0,1-3.09-.6c-.55-.4-.82-1.26-.82-2.57a4.15,4.15,0,0,1,.13-1.12,2.66,2.66,0,0,1,.49-.92,4.2,4.2,0,0,1,1-.87c1.16-.78,2.08-1.4,2.75-1.88s1.32-1,2-1.5A9.83,9.83,0,0,0,11,14.28,7.42,7.42,0,0,0,11.83,13a4.71,4.71,0,0,0,.49-1.42,11.62,11.62,0,0,0,.11-1.68c0-1.21-.38-1.81-1.13-1.81s-1.23.71-1.23,2.13a1.51,1.51,0,0,1-.78,1.55A5.66,5.66,0,0,1,7,12.13a3.43,3.43,0,0,1-2.8-.91,4.78,4.78,0,0,1-.73-3,4.16,4.16,0,0,1,2-3.51A9.44,9.44,0,0,1,11,3.3q8.8,0,8.79,6.69a10.38,10.38,0,0,1-.36,2.83A8.07,8.07,0,0,1,18.57,15a7,7,0,0,1-1.41,1.63,13,13,0,0,1-1.66,1.26A21,21,0,0,1,13.59,18.89Z"/><path class="cls-1" d="M22,22.67A2.12,2.12,0,0,1,23,20.89a4.33,4.33,0,0,1,2.6-.68c2.35,0,3.52.82,3.52,2.46a2.31,2.31,0,0,1-.45,1.5,2.12,2.12,0,0,1-1.2.76,7.47,7.47,0,0,1-1.87.2A5,5,0,0,1,23,24.55,2,2,0,0,1,22,22.67Z"/><path class="cls-1" d="M41.72,24.87a3.4,3.4,0,0,1-2.78-1.05,5.75,5.75,0,0,1-.87-3.67h-6a4.33,4.33,0,0,1-3.12-1,3.47,3.47,0,0,1-1-2.59,5.41,5.41,0,0,1,.87-3Q31.12,9.94,34,5.76A5.33,5.33,0,0,1,38.63,3.3l2.81,0a4.8,4.8,0,0,1,3.2.79,3.71,3.71,0,0,1,.84,2.77v8.54a2.91,2.91,0,0,1,1.9.68,2.43,2.43,0,0,1,.52,1.74,2.18,2.18,0,0,1-.55,1.7,3.37,3.37,0,0,1-1.88.57,5.59,5.59,0,0,1-.94,3.65A3.5,3.5,0,0,1,41.72,24.87ZM38,15.56l.1-6.89L33.8,15.56Z"/><path class="cls-2" d="M13.59,18.89h3.59c1.81,0,2.71,1,2.71,3A3.06,3.06,0,0,1,19,24.37,4.85,4.85,0,0,1,16,25.1H7.21a5.61,5.61,0,0,1-3.09-.6c-.55-.4-.82-1.26-.82-2.57a4.15,4.15,0,0,1,.13-1.12,2.66,2.66,0,0,1,.49-.92,4.2,4.2,0,0,1,1-.87c1.16-.78,2.08-1.4,2.75-1.88s1.32-1,2-1.5A9.83,9.83,0,0,0,11,14.28,7.42,7.42,0,0,0,11.83,13a4.71,4.71,0,0,0,.49-1.42,11.62,11.62,0,0,0,.11-1.68c0-1.21-.38-1.81-1.13-1.81s-1.23.71-1.23,2.13a1.51,1.51,0,0,1-.78,1.55A5.66,5.66,0,0,1,7,12.13a3.43,3.43,0,0,1-2.8-.91,4.78,4.78,0,0,1-.73-3,4.16,4.16,0,0,1,2-3.51A9.44,9.44,0,0,1,11,3.3q8.8,0,8.79,6.69a10.38,10.38,0,0,1-.36,2.83A8.07,8.07,0,0,1,18.57,15a7,7,0,0,1-1.41,1.63,13,13,0,0,1-1.66,1.26A21,21,0,0,1,13.59,18.89Z"/><path class="cls-2" d="M22,22.67A2.12,2.12,0,0,1,23,20.89a4.33,4.33,0,0,1,2.6-.68c2.35,0,3.52.82,3.52,2.46a2.31,2.31,0,0,1-.45,1.5,2.12,2.12,0,0,1-1.2.76,7.47,7.47,0,0,1-1.87.2A5,5,0,0,1,23,24.55,2,2,0,0,1,22,22.67Z"/><path class="cls-3" d="M41.72,24.87a3.4,3.4,0,0,1-2.78-1.05,5.75,5.75,0,0,1-.87-3.67h-6a4.33,4.33,0,0,1-3.12-1,3.47,3.47,0,0,1-1-2.59,5.41,5.41,0,0,1,.87-3Q31.12,9.94,34,5.76A5.33,5.33,0,0,1,38.63,3.3l2.81,0a4.8,4.8,0,0,1,3.2.79,3.71,3.71,0,0,1,.84,2.77v8.54a2.91,2.91,0,0,1,1.9.68,2.43,2.43,0,0,1,.52,1.74,2.18,2.18,0,0,1-.55,1.7,3.37,3.37,0,0,1-1.88.57,5.59,5.59,0,0,1-.94,3.65A3.5,3.5,0,0,1,41.72,24.87ZM38,15.56l.1-6.89L33.8,15.56Z"/><path class="cls-4" d="M13.59,18.89h3.59c1.81,0,2.71,1,2.71,3A3.06,3.06,0,0,1,19,24.37,4.85,4.85,0,0,1,16,25.1H7.21a5.61,5.61,0,0,1-3.09-.6c-.55-.4-.82-1.26-.82-2.57a4.15,4.15,0,0,1,.13-1.12,2.66,2.66,0,0,1,.49-.92,4.2,4.2,0,0,1,1-.87c1.16-.78,2.08-1.4,2.75-1.88s1.32-1,2-1.5A9.83,9.83,0,0,0,11,14.28,7.42,7.42,0,0,0,11.83,13a4.71,4.71,0,0,0,.49-1.42,11.62,11.62,0,0,0,.11-1.68c0-1.21-.38-1.81-1.13-1.81s-1.23.71-1.23,2.13a1.51,1.51,0,0,1-.78,1.55A5.66,5.66,0,0,1,7,12.13a3.43,3.43,0,0,1-2.8-.91,4.78,4.78,0,0,1-.73-3,4.16,4.16,0,0,1,2-3.51A9.44,9.44,0,0,1,11,3.3q8.8,0,8.79,6.69a10.38,10.38,0,0,1-.36,2.83A8.07,8.07,0,0,1,18.57,15a7,7,0,0,1-1.41,1.63,13,13,0,0,1-1.66,1.26A21,21,0,0,1,13.59,18.89Z"/><path class="cls-4" d="M22,22.67A2.12,2.12,0,0,1,23,20.89a4.33,4.33,0,0,1,2.6-.68c2.35,0,3.52.82,3.52,2.46a2.31,2.31,0,0,1-.45,1.5,2.12,2.12,0,0,1-1.2.76,7.47,7.47,0,0,1-1.87.2A5,5,0,0,1,23,24.55,2,2,0,0,1,22,22.67Z"/><path class="cls-4" d="M41.72,24.87a3.4,3.4,0,0,1-2.78-1.05,5.75,5.75,0,0,1-.87-3.67h-6a4.33,4.33,0,0,1-3.12-1,3.47,3.47,0,0,1-1-2.59,5.41,5.41,0,0,1,.87-3Q31.12,9.94,34,5.76A5.33,5.33,0,0,1,38.63,3.3l2.81,0a4.8,4.8,0,0,1,3.2.79,3.71,3.71,0,0,1,.84,2.77v8.54a2.91,2.91,0,0,1,1.9.68,2.43,2.43,0,0,1,.52,1.74,2.18,2.18,0,0,1-.55,1.7,3.37,3.37,0,0,1-1.88.57,5.59,5.59,0,0,1-.94,3.65A3.5,3.5,0,0,1,41.72,24.87ZM38,15.56l.1-6.89L33.8,15.56Z"/></g></g></svg>