<svg xmlns="http://www.w3.org/2000/svg" viewBox="0 0 37.31 28.4"><defs><style>.cls-1{fill:none;stroke:#7c439f;stroke-width:6.6px;}.cls-2{fill:#fff;}</style></defs><title>2n</title><g id="Layer_2" data-name="Layer 2"><g id="barra_lateral_derecha" data-name="barra lateral derecha"><path class="cls-1" d="M14.35,20a5.88,5.88,0,0,1-.94,3.74,3.54,3.54,0,0,1-2.85,1.11,4.58,4.58,0,0,1-2-.39,2.55,2.55,0,0,1-1.18-1.42,8.23,8.23,0,0,1-.43-2.78l0-12.06A5.13,5.13,0,0,1,4.3,7.65a2,2,0,0,1-1-1.89A2.12,2.12,0,0,1,4.22,4,4.19,4.19,0,0,1,6.8,3.3l1.82,0h1.67a4.76,4.76,0,0,1,3.22.8,3.78,3.78,0,0,1,.82,2.76Z"/><path class="cls-1" d="M27.71,18.89H31.3c1.81,0,2.71,1,2.71,3a3.06,3.06,0,0,1-.86,2.44,4.85,4.85,0,0,1-3.06.73H21.33a5.61,5.61,0,0,1-3.09-.6c-.55-.4-.82-1.26-.82-2.57a4.15,4.15,0,0,1,.13-1.12,2.63,2.63,0,0,1,.48-.92A4.48,4.48,0,0,1,19,19c1.16-.78,2.08-1.4,2.75-1.88s1.32-1,1.95-1.5a9.83,9.83,0,0,0,1.41-1.36A8.06,8.06,0,0,0,26,13a4.42,4.42,0,0,0,.48-1.42,10.25,10.25,0,0,0,.12-1.68c0-1.21-.38-1.81-1.13-1.81s-1.23.71-1.23,2.13a1.51,1.51,0,0,1-.78,1.55,5.68,5.68,0,0,1-2.3.36,3.42,3.42,0,0,1-2.79-.91,4.78,4.78,0,0,1-.73-3,4.18,4.18,0,0,1,2-3.51A9.49,9.49,0,0,1,25.13,3.3q8.81,0,8.79,6.69a10.38,10.38,0,0,1-.36,2.83A8.42,8.42,0,0,1,32.69,15a7.26,7.26,0,0,1-1.41,1.63,12.39,12.39,0,0,1-1.67,1.26A19.4,19.4,0,0,1,27.71,18.89Z"/><path class="cls-2" d="M14.35,20a5.88,5.88,0,0,1-.94,3.74,3.54,3.54,0,0,1-2.85,1.11,4.58,4.58,0,0,1-2-.39,2.55,2.55,0,0,1-1.18-1.42,8.23,8.23,0,0,1-.43-2.78l0-12.06A5.13,5.13,0,0,1,4.3,7.65a2,2,0,0,1-1-1.89A2.12,2.12,0,0,1,4.22,4,4.19,4.19,0,0,1,6.8,3.3l1.82,0h1.67a4.76,4.76,0,0,1,3.22.8,3.78,3.78,0,0,1,.82,2.76Z"/><path class="cls-2" d="M27.71,18.89H31.3c1.81,0,2.71,1,2.71,3a3.06,3.06,0,0,1-.86,2.44,4.85,4.85,0,0,1-3.06.73H21.33a5.61,5.61,0,0,1-3.09-.6c-.55-.4-.82-1.26-.82-2.57a4.15,4.15,0,0,1,.13-1.12,2.63,2.63,0,0,1,.48-.92A4.48,4.48,0,0,1,19,19c1.16-.78,2.08-1.4,2.75-1.88s1.32-1,1.95-1.5a9.83,9.83,0,0,0,1.41-1.36A8.06,8.06,0,0,0,26,13a4.42,4.42,0,0,0,.48-1.42,10.25,10.25,0,0,0,.12-1.68c0-1.21-.38-1.81-1.13-1.81s-1.23.71-1.23,2.13a1.51,1.51,0,0,1-.78,1.55,5.68,5.68,0,0,1-2.3.36,3.42,3.42,0,0,1-2.79-.91,4.78,4.78,0,0,1-.73-3,4.18,4.18,0,0,1,2-3.51A9.49,9.49,0,0,1,25.13,3.3q8.81,0,8.79,6.69a10.38,10.38,0,0,1-.36,2.83A8.42,8.42,0,0,1,32.69,15a7.26,7.26,0,0,1-1.41,1.63,12.39,12.39,0,0,1-1.67,1.26A19.4,19.4,0,0,1,27.71,18.89Z"/></g></g></svg>