<svg xmlns="http://www.w3.org/2000/svg" viewBox="0 0 42.27 28.43"><defs><style>.cls-1{fill:none;stroke:#2da323;stroke-width:6.6px;}.cls-2{fill:#fff;}</style></defs><title>31</title><g id="Layer_2" data-name="Layer 2"><g id="barra_lateral_derecha" data-name="barra lateral derecha"><path class="cls-1" d="M12.59,10.32q0-1.59-2.94-1.59A15.57,15.57,0,0,0,8,8.85c-.7.07-1.21.11-1.53.11C4.9,9,4.12,8,4.12,6.18S6.37,3.3,10.85,3.3c2.91,0,5.09.48,6.53,1.42a4.29,4.29,0,0,1,2.17,3.72,5.92,5.92,0,0,1-2.79,5.11,7.42,7.42,0,0,1,2.63,2.09,5.36,5.36,0,0,1,.76,3.12,5.59,5.59,0,0,1-2.22,4.58A9.28,9.28,0,0,1,12,25.1c-3.11,0-5.33-.32-6.68-1a3.06,3.06,0,0,1-2-2.89A3,3,0,0,1,4,19a2.59,2.59,0,0,1,1.81-.59,18,18,0,0,1,1.81.13c.82.08,1.45.13,1.88.13,2.35,0,3.52-.44,3.52-1.3a1.24,1.24,0,0,0-.67-1.21,6.44,6.44,0,0,0-2.56-.34,5.21,5.21,0,0,1-2.65-.49,2,2,0,0,1-.78-1.81c0-1.33.89-2,2.66-2a15.33,15.33,0,0,0,2.54-.16c.55-.11.86-.24,1-.38A1.33,1.33,0,0,0,12.59,10.32Z"/><path class="cls-1" d="M22.22,22.67a2.13,2.13,0,0,1,.92-1.78,4.35,4.35,0,0,1,2.6-.68c2.35,0,3.53.82,3.53,2.46a2.31,2.31,0,0,1-.46,1.51,2.24,2.24,0,0,1-1.19.76,7.61,7.61,0,0,1-1.88.19,5,5,0,0,1-2.52-.58A2,2,0,0,1,22.22,22.67Z"/><path class="cls-1" d="M39,20A5.82,5.82,0,0,1,38,23.76a3.51,3.51,0,0,1-2.85,1.11,4.5,4.5,0,0,1-2-.39A2.51,2.51,0,0,1,32,23.06a8.2,8.2,0,0,1-.44-2.78L31.48,8.22a5.07,5.07,0,0,1-2.55-.57,2,2,0,0,1-1-1.89A2.14,2.14,0,0,1,28.85,4a4.13,4.13,0,0,1,2.57-.7l1.83,0h1.66a4.74,4.74,0,0,1,3.22.8A3.73,3.73,0,0,1,39,6.89Z"/><path class="cls-2" d="M12.59,10.32q0-1.59-2.94-1.59A15.57,15.57,0,0,0,8,8.85c-.7.07-1.21.11-1.53.11C4.9,9,4.12,8,4.12,6.18S6.37,3.3,10.85,3.3c2.91,0,5.09.48,6.53,1.42a4.29,4.29,0,0,1,2.17,3.72,5.92,5.92,0,0,1-2.79,5.11,7.42,7.42,0,0,1,2.63,2.09,5.36,5.36,0,0,1,.76,3.12,5.59,5.59,0,0,1-2.22,4.58A9.28,9.28,0,0,1,12,25.1c-3.11,0-5.33-.32-6.68-1a3.06,3.06,0,0,1-2-2.89A3,3,0,0,1,4,19a2.59,2.59,0,0,1,1.81-.59,18,18,0,0,1,1.81.13c.82.08,1.45.13,1.88.13,2.35,0,3.52-.44,3.52-1.3a1.24,1.24,0,0,0-.67-1.21,6.44,6.44,0,0,0-2.56-.34,5.21,5.21,0,0,1-2.65-.49,2,2,0,0,1-.78-1.81c0-1.33.89-2,2.66-2a15.33,15.33,0,0,0,2.54-.16c.55-.11.86-.24,1-.38A1.33,1.33,0,0,0,12.59,10.32Z"/><path class="cls-2" d="M22.22,22.67a2.13,2.13,0,0,1,.92-1.78,4.35,4.35,0,0,1,2.6-.68c2.35,0,3.53.82,3.53,2.46a2.31,2.31,0,0,1-.46,1.51,2.24,2.24,0,0,1-1.19.76,7.61,7.61,0,0,1-1.88.19,5,5,0,0,1-2.52-.58A2,2,0,0,1,22.22,22.67Z"/><path class="cls-2" d="M39,20A5.82,5.82,0,0,1,38,23.76a3.51,3.51,0,0,1-2.85,1.11,4.5,4.5,0,0,1-2-.39A2.51,2.51,0,0,1,32,23.06a8.2,8.2,0,0,1-.44-2.78L31.48,8.22a5.07,5.07,0,0,1-2.55-.57,2,2,0,0,1-1-1.89A2.14,2.14,0,0,1,28.85,4a4.13,4.13,0,0,1,2.57-.7l1.83,0h1.66a4.74,4.74,0,0,1,3.22.8A3.73,3.73,0,0,1,39,6.89Z"/></g></g></svg>