<svg xmlns="http://www.w3.org/2000/svg" viewBox="0 0 51.36 28.43"><defs><style>.cls-1{fill:none;stroke:#2da323;stroke-width:6.6px;}.cls-2{fill:#fff;}</style></defs><title>32</title><g id="Layer_2" data-name="Layer 2"><g id="barra_lateral_derecha" data-name="barra lateral derecha"><path class="cls-1" d="M12.59,10.32q0-1.59-2.94-1.59A15.57,15.57,0,0,0,8,8.85c-.7.07-1.21.11-1.53.11C4.89,9,4.12,8,4.12,6.18S6.37,3.3,10.85,3.3q4.37,0,6.53,1.42a4.29,4.29,0,0,1,2.17,3.72,5.92,5.92,0,0,1-2.79,5.11,7.42,7.42,0,0,1,2.63,2.09,5.36,5.36,0,0,1,.76,3.12,5.59,5.59,0,0,1-2.22,4.58A9.3,9.3,0,0,1,12,25.1c-3.11,0-5.33-.32-6.68-1a3.06,3.06,0,0,1-2-2.89A3,3,0,0,1,4,19a2.55,2.55,0,0,1,1.81-.59c.39,0,1,0,1.81.12a18.37,18.37,0,0,0,1.88.13c2.35,0,3.52-.43,3.52-1.29a1.23,1.23,0,0,0-.67-1.21,6.44,6.44,0,0,0-2.56-.34,5.21,5.21,0,0,1-2.65-.49,2,2,0,0,1-.78-1.81c0-1.33.89-2,2.66-2a14.09,14.09,0,0,0,2.54-.17c.55-.1.86-.23,1-.37A1.33,1.33,0,0,0,12.59,10.32Z"/><path class="cls-1" d="M22.22,22.67a2.13,2.13,0,0,1,.92-1.78,4.35,4.35,0,0,1,2.6-.68c2.35,0,3.53.82,3.53,2.46a2.26,2.26,0,0,1-.46,1.5,2.13,2.13,0,0,1-1.19.76,7.61,7.61,0,0,1-1.88.2,5,5,0,0,1-2.52-.58A2,2,0,0,1,22.22,22.67Z"/><path class="cls-1" d="M41.75,18.89h3.59c1.81,0,2.72,1,2.72,3a3.06,3.06,0,0,1-.86,2.44,4.85,4.85,0,0,1-3.06.73H35.38a5.61,5.61,0,0,1-3.09-.6c-.55-.4-.82-1.26-.82-2.57a4.1,4.1,0,0,1,.13-1.12,2.63,2.63,0,0,1,.48-.92,4.41,4.41,0,0,1,1-.87c1.17-.78,2.09-1.4,2.75-1.88s1.33-1,2-1.5a9.83,9.83,0,0,0,1.41-1.36A8.06,8.06,0,0,0,40,13a4.68,4.68,0,0,0,.48-1.42A10.34,10.34,0,0,0,40.6,9.9c0-1.21-.38-1.81-1.13-1.81s-1.23.71-1.23,2.13a1.51,1.51,0,0,1-.78,1.55,5.68,5.68,0,0,1-2.3.36,3.42,3.42,0,0,1-2.79-.91,4.78,4.78,0,0,1-.73-3,4.17,4.17,0,0,1,2-3.51A9.49,9.49,0,0,1,39.18,3.3Q48,3.3,48,10a10.38,10.38,0,0,1-.36,2.83A8.8,8.8,0,0,1,46.74,15a7.26,7.26,0,0,1-1.41,1.63,12.39,12.39,0,0,1-1.67,1.26A19.69,19.69,0,0,1,41.75,18.89Z"/><path class="cls-2" d="M12.59,10.32q0-1.59-2.94-1.59A15.57,15.57,0,0,0,8,8.85c-.7.07-1.21.11-1.53.11C4.89,9,4.12,8,4.12,6.18S6.37,3.3,10.85,3.3q4.37,0,6.53,1.42a4.29,4.29,0,0,1,2.17,3.72,5.92,5.92,0,0,1-2.79,5.11,7.42,7.42,0,0,1,2.63,2.09,5.36,5.36,0,0,1,.76,3.12,5.59,5.59,0,0,1-2.22,4.58A9.3,9.3,0,0,1,12,25.1c-3.11,0-5.33-.32-6.68-1a3.06,3.06,0,0,1-2-2.89A3,3,0,0,1,4,19a2.55,2.55,0,0,1,1.81-.59c.39,0,1,0,1.81.12a18.37,18.37,0,0,0,1.88.13c2.35,0,3.52-.43,3.52-1.29a1.23,1.23,0,0,0-.67-1.21,6.44,6.44,0,0,0-2.56-.34,5.21,5.21,0,0,1-2.65-.49,2,2,0,0,1-.78-1.81c0-1.33.89-2,2.66-2a14.09,14.09,0,0,0,2.54-.17c.55-.1.86-.23,1-.37A1.33,1.33,0,0,0,12.59,10.32Z"/><path class="cls-2" d="M22.22,22.67a2.13,2.13,0,0,1,.92-1.78,4.35,4.35,0,0,1,2.6-.68c2.35,0,3.53.82,3.53,2.46a2.26,2.26,0,0,1-.46,1.5,2.13,2.13,0,0,1-1.19.76,7.61,7.61,0,0,1-1.88.2,5,5,0,0,1-2.52-.58A2,2,0,0,1,22.22,22.67Z"/><path class="cls-2" d="M41.75,18.89h3.59c1.81,0,2.72,1,2.72,3a3.06,3.06,0,0,1-.86,2.44,4.85,4.85,0,0,1-3.06.73H35.38a5.61,5.61,0,0,1-3.09-.6c-.55-.4-.82-1.26-.82-2.57a4.1,4.1,0,0,1,.13-1.12,2.63,2.63,0,0,1,.48-.92,4.41,4.41,0,0,1,1-.87c1.17-.78,2.09-1.4,2.75-1.88s1.33-1,2-1.5a9.83,9.83,0,0,0,1.41-1.36A8.06,8.06,0,0,0,40,13a4.68,4.68,0,0,0,.48-1.42A10.34,10.34,0,0,0,40.6,9.9c0-1.21-.38-1.81-1.13-1.81s-1.23.71-1.23,2.13a1.51,1.51,0,0,1-.78,1.55,5.68,5.68,0,0,1-2.3.36,3.42,3.42,0,0,1-2.79-.91,4.78,4.78,0,0,1-.73-3,4.17,4.17,0,0,1,2-3.51A9.49,9.49,0,0,1,39.18,3.3Q48,3.3,48,10a10.38,10.38,0,0,1-.36,2.83A8.8,8.8,0,0,1,46.74,15a7.26,7.26,0,0,1-1.41,1.63,12.39,12.39,0,0,1-1.67,1.26A19.69,19.69,0,0,1,41.75,18.89Z"/></g></g></svg>