<svg xmlns="http://www.w3.org/2000/svg" viewBox="0 0 71.54 39.9"><defs><style>.cls-1{fill:none;stroke:#fff;stroke-width:7.9px;}.cls-2{fill:#914e06;}</style></defs><title>32si</title><g id="Layer_2" data-name="Layer 2"><g id="barra_lateral_derecha" data-name="barra lateral derecha"><path class="cls-1" d="M17.16,14.24q0-2.33-4.18-2.33a23.21,23.21,0,0,0-2.37.17c-1,.11-1.72.17-2.18.17q-3.31,0-3.31-4.08T14.69,4Q20.9,4,24,6a6.3,6.3,0,0,1,3.08,5.45,8.73,8.73,0,0,1-4,7.49A10.7,10.7,0,0,1,26.83,22a8.14,8.14,0,0,1,1.08,4.58,8.26,8.26,0,0,1-3.16,6.71,12.91,12.91,0,0,1-8.44,2.58c-4.41,0-7.58-.47-9.49-1.4A4.5,4.5,0,0,1,4,30.26,4.47,4.47,0,0,1,4.87,27a3.62,3.62,0,0,1,2.58-.88c.55,0,1.41.07,2.57.19a25.91,25.91,0,0,0,2.67.19q5,0,5-1.89a1.83,1.83,0,0,0-1-1.78,9,9,0,0,0-3.63-.5,7.25,7.25,0,0,1-3.77-.71A2.88,2.88,0,0,1,8.24,19Q8.24,16,12,16a19.71,19.71,0,0,0,3.61-.24c.78-.16,1.23-.34,1.36-.54A2.16,2.16,0,0,0,17.16,14.24Z"/><path class="cls-1" d="M30.85,32.34a3.12,3.12,0,0,1,1.31-2.6,6,6,0,0,1,3.7-1q5,0,5,3.6a3.5,3.5,0,0,1-.64,2.21,3.13,3.13,0,0,1-1.71,1.11,10.37,10.37,0,0,1-2.66.29,6.89,6.89,0,0,1-3.59-.86A2.94,2.94,0,0,1,30.85,32.34Z"/><path class="cls-1" d="M58.63,26.8h5.1c2.58,0,3.86,1.48,3.86,4.45a4.55,4.55,0,0,1-1.22,3.58c-.82.71-2.26,1.07-4.35,1.07H49.56c-2.15,0-3.61-.29-4.39-.88S44,33.18,44,31.25a6.49,6.49,0,0,1,.18-1.63,4,4,0,0,1,.7-1.35A6,6,0,0,1,46.26,27c1.65-1.14,3-2.06,3.91-2.75S52.05,22.81,53,22a13.79,13.79,0,0,0,2-2,11.72,11.72,0,0,0,1.18-1.87,7.07,7.07,0,0,0,.69-2.08A16.15,16.15,0,0,0,57,13.62c0-1.77-.53-2.65-1.6-2.65s-1.75,1-1.75,3.12a2.29,2.29,0,0,1-1.11,2.28,7.94,7.94,0,0,1-3.27.52c-2,0-3.28-.44-4-1.33a7.25,7.25,0,0,1-1-4.4A6.17,6.17,0,0,1,47.08,6C49,4.64,51.59,4,55,4q12.5,0,12.5,9.81A16.66,16.66,0,0,1,67,17.91,13,13,0,0,1,65.71,21a10.17,10.17,0,0,1-2,2.39,18,18,0,0,1-2.37,1.85A29.34,29.34,0,0,1,58.63,26.8Z"/><path class="cls-2" d="M17.16,14.24q0-2.33-4.18-2.33a23.21,23.21,0,0,0-2.37.17c-1,.11-1.72.17-2.18.17q-3.31,0-3.31-4.08T14.69,4Q20.9,4,24,6a6.3,6.3,0,0,1,3.08,5.45,8.73,8.73,0,0,1-4,7.49A10.7,10.7,0,0,1,26.83,22a8.14,8.14,0,0,1,1.08,4.58,8.26,8.26,0,0,1-3.16,6.71,12.91,12.91,0,0,1-8.44,2.58c-4.41,0-7.58-.47-9.49-1.4A4.5,4.5,0,0,1,4,30.26,4.47,4.47,0,0,1,4.87,27a3.62,3.62,0,0,1,2.58-.88c.55,0,1.41.07,2.57.19a25.91,25.91,0,0,0,2.67.19q5,0,5-1.89a1.83,1.83,0,0,0-1-1.78,9,9,0,0,0-3.63-.5,7.25,7.25,0,0,1-3.77-.71A2.88,2.88,0,0,1,8.24,19Q8.24,16,12,16a19.71,19.71,0,0,0,3.61-.24c.78-.16,1.23-.34,1.36-.54A2.16,2.16,0,0,0,17.16,14.24Z"/><path class="cls-2" d="M30.85,32.34a3.12,3.12,0,0,1,1.31-2.6,6,6,0,0,1,3.7-1q5,0,5,3.6a3.5,3.5,0,0,1-.64,2.21,3.13,3.13,0,0,1-1.71,1.11,10.37,10.37,0,0,1-2.66.29,6.89,6.89,0,0,1-3.59-.86A2.94,2.94,0,0,1,30.85,32.34Z"/><path class="cls-2" d="M58.63,26.8h5.1c2.58,0,3.86,1.48,3.86,4.45a4.55,4.55,0,0,1-1.22,3.58c-.82.71-2.26,1.07-4.35,1.07H49.56c-2.15,0-3.61-.29-4.39-.88S44,33.18,44,31.25a6.49,6.49,0,0,1,.18-1.63,4,4,0,0,1,.7-1.35A6,6,0,0,1,46.26,27c1.65-1.14,3-2.06,3.91-2.75S52.05,22.81,53,22a13.79,13.79,0,0,0,2-2,11.72,11.72,0,0,0,1.18-1.87,7.07,7.07,0,0,0,.69-2.08A16.15,16.15,0,0,0,57,13.62c0-1.77-.53-2.65-1.6-2.65s-1.75,1-1.75,3.12a2.29,2.29,0,0,1-1.11,2.28,7.94,7.94,0,0,1-3.27.52c-2,0-3.28-.44-4-1.33a7.25,7.25,0,0,1-1-4.4A6.17,6.17,0,0,1,47.08,6C49,4.64,51.59,4,55,4q12.5,0,12.5,9.81A16.66,16.66,0,0,1,67,17.91,13,13,0,0,1,65.71,21a10.17,10.17,0,0,1-2,2.39,18,18,0,0,1-2.37,1.85A29.34,29.34,0,0,1,58.63,26.8Z"/></g></g></svg>