<svg xmlns="http://www.w3.org/2000/svg" viewBox="0 0 51.39 28.43"><defs><style>.cls-1,.cls-2,.cls-3{fill:none;}.cls-1{stroke:#2da323;stroke-width:6.6px;}.cls-1,.cls-3{stroke-linejoin:round;}.cls-3{stroke:#2794da;stroke-linecap:round;stroke-width:0.25px;}.cls-4{fill:#fff;}</style></defs><title>34</title><g id="Layer_2" data-name="Layer 2"><g id="barra_lateral_derecha" data-name="barra lateral derecha"><path class="cls-1" d="M12.59,10.32q0-1.59-2.94-1.59A15.57,15.57,0,0,0,8,8.85c-.7.07-1.21.11-1.53.11C4.89,9,4.12,8,4.12,6.18S6.37,3.3,10.85,3.3c2.91,0,5.09.48,6.53,1.42a4.29,4.29,0,0,1,2.17,3.72,5.94,5.94,0,0,1-2.79,5.11,7.42,7.42,0,0,1,2.63,2.09,5.36,5.36,0,0,1,.76,3.12,5.59,5.59,0,0,1-2.22,4.58A9.3,9.3,0,0,1,12,25.1c-3.11,0-5.33-.32-6.68-1a3.06,3.06,0,0,1-2-2.89A3,3,0,0,1,4,19a2.55,2.55,0,0,1,1.81-.59c.39,0,1,0,1.81.12a18.2,18.2,0,0,0,1.88.13c2.35,0,3.52-.43,3.52-1.29a1.23,1.23,0,0,0-.67-1.21,6.44,6.44,0,0,0-2.56-.34,5.21,5.21,0,0,1-2.65-.49,2,2,0,0,1-.78-1.81c0-1.33.89-2,2.66-2a14.09,14.09,0,0,0,2.54-.17c.55-.1.86-.23,1-.37A1.33,1.33,0,0,0,12.59,10.32Z"/><path class="cls-1" d="M22.22,22.67a2.13,2.13,0,0,1,.92-1.78,4.35,4.35,0,0,1,2.6-.68c2.35,0,3.53.82,3.53,2.46a2.31,2.31,0,0,1-.46,1.51,2.24,2.24,0,0,1-1.19.76,8.19,8.19,0,0,1-1.88.19,5,5,0,0,1-2.52-.58A2,2,0,0,1,22.22,22.67Z"/><path class="cls-1" d="M41.91,24.87a3.41,3.41,0,0,1-2.78-1.05,5.88,5.88,0,0,1-.87-3.67h-6a4.33,4.33,0,0,1-3.12-1,3.47,3.47,0,0,1-1-2.59,5.34,5.34,0,0,1,.88-3q2.3-3.58,5.18-7.76A5.3,5.3,0,0,1,38.82,3.3l2.82,0a4.75,4.75,0,0,1,3.2.8,3.67,3.67,0,0,1,.84,2.76v8.54a2.94,2.94,0,0,1,1.91.68,2.48,2.48,0,0,1,.51,1.74,2.14,2.14,0,0,1-.55,1.7,3.33,3.33,0,0,1-1.87.57,5.65,5.65,0,0,1-1,3.65A3.49,3.49,0,0,1,41.91,24.87Zm-3.68-9.31.1-6.89L34,15.56Z"/><path class="cls-2" d="M12.59,10.32q0-1.59-2.94-1.59A15.57,15.57,0,0,0,8,8.85c-.7.07-1.21.11-1.53.11C4.89,9,4.12,8,4.12,6.18S6.37,3.3,10.85,3.3c2.91,0,5.09.48,6.53,1.42a4.29,4.29,0,0,1,2.17,3.72,5.94,5.94,0,0,1-2.79,5.11,7.42,7.42,0,0,1,2.63,2.09,5.36,5.36,0,0,1,.76,3.12,5.59,5.59,0,0,1-2.22,4.58A9.3,9.3,0,0,1,12,25.1c-3.11,0-5.33-.32-6.68-1a3.06,3.06,0,0,1-2-2.89A3,3,0,0,1,4,19a2.55,2.55,0,0,1,1.81-.59c.39,0,1,0,1.81.12a18.2,18.2,0,0,0,1.88.13c2.35,0,3.52-.43,3.52-1.29a1.23,1.23,0,0,0-.67-1.21,6.44,6.44,0,0,0-2.56-.34,5.21,5.21,0,0,1-2.65-.49,2,2,0,0,1-.78-1.81c0-1.33.89-2,2.66-2a14.09,14.09,0,0,0,2.54-.17c.55-.1.86-.23,1-.37A1.33,1.33,0,0,0,12.59,10.32Z"/><path class="cls-2" d="M22.22,22.67a2.13,2.13,0,0,1,.92-1.78,4.35,4.35,0,0,1,2.6-.68c2.35,0,3.53.82,3.53,2.46a2.31,2.31,0,0,1-.46,1.51,2.24,2.24,0,0,1-1.19.76,8.19,8.19,0,0,1-1.88.19,5,5,0,0,1-2.52-.58A2,2,0,0,1,22.22,22.67Z"/><path class="cls-3" d="M41.91,24.87a3.41,3.41,0,0,1-2.78-1.05,5.88,5.88,0,0,1-.87-3.67h-6a4.33,4.33,0,0,1-3.12-1,3.47,3.47,0,0,1-1-2.59,5.34,5.34,0,0,1,.88-3q2.3-3.58,5.18-7.76A5.3,5.3,0,0,1,38.82,3.3l2.82,0a4.75,4.75,0,0,1,3.2.8,3.67,3.67,0,0,1,.84,2.76v8.54a2.94,2.94,0,0,1,1.91.68,2.48,2.48,0,0,1,.51,1.74,2.14,2.14,0,0,1-.55,1.7,3.33,3.33,0,0,1-1.87.57,5.65,5.65,0,0,1-1,3.65A3.49,3.49,0,0,1,41.91,24.87Zm-3.68-9.31.1-6.89L34,15.56Z"/><path class="cls-4" d="M12.59,10.32q0-1.59-2.94-1.59A15.57,15.57,0,0,0,8,8.85c-.7.07-1.21.11-1.53.11C4.89,9,4.12,8,4.12,6.18S6.37,3.3,10.85,3.3c2.91,0,5.09.48,6.53,1.42a4.29,4.29,0,0,1,2.17,3.72,5.94,5.94,0,0,1-2.79,5.11,7.42,7.42,0,0,1,2.63,2.09,5.36,5.36,0,0,1,.76,3.12,5.59,5.59,0,0,1-2.22,4.58A9.3,9.3,0,0,1,12,25.1c-3.11,0-5.33-.32-6.68-1a3.06,3.06,0,0,1-2-2.89A3,3,0,0,1,4,19a2.55,2.55,0,0,1,1.81-.59c.39,0,1,0,1.81.12a18.2,18.2,0,0,0,1.88.13c2.35,0,3.52-.43,3.52-1.29a1.23,1.23,0,0,0-.67-1.21,6.44,6.44,0,0,0-2.56-.34,5.21,5.21,0,0,1-2.65-.49,2,2,0,0,1-.78-1.81c0-1.33.89-2,2.66-2a14.09,14.09,0,0,0,2.54-.17c.55-.1.86-.23,1-.37A1.33,1.33,0,0,0,12.59,10.32Z"/><path class="cls-4" d="M22.22,22.67a2.13,2.13,0,0,1,.92-1.78,4.35,4.35,0,0,1,2.6-.68c2.35,0,3.53.82,3.53,2.46a2.31,2.31,0,0,1-.46,1.51,2.24,2.24,0,0,1-1.19.76,8.19,8.19,0,0,1-1.88.19,5,5,0,0,1-2.52-.58A2,2,0,0,1,22.22,22.67Z"/><path class="cls-4" d="M41.91,24.87a3.41,3.41,0,0,1-2.78-1.05,5.88,5.88,0,0,1-.87-3.67h-6a4.33,4.33,0,0,1-3.12-1,3.47,3.47,0,0,1-1-2.59,5.34,5.34,0,0,1,.88-3q2.3-3.58,5.18-7.76A5.3,5.3,0,0,1,38.82,3.3l2.82,0a4.75,4.75,0,0,1,3.2.8,3.67,3.67,0,0,1,.84,2.76v8.54a2.94,2.94,0,0,1,1.91.68,2.48,2.48,0,0,1,.51,1.74,2.14,2.14,0,0,1-.55,1.7,3.33,3.33,0,0,1-1.87.57,5.65,5.65,0,0,1-1,3.65A3.49,3.49,0,0,1,41.91,24.87Zm-3.68-9.31.1-6.89L34,15.56Z"/></g></g></svg>