<svg xmlns="http://www.w3.org/2000/svg" viewBox="0 0 71.59 39.9"><defs><style>.cls-1{fill:none;stroke:#fff;stroke-linecap:round;stroke-linejoin:round;stroke-width:7.9px;}.cls-2{fill:#914e06;}</style></defs><title>34si</title><g id="Layer_2" data-name="Layer 2"><g id="barra_lateral_derecha" data-name="barra lateral derecha"><path class="cls-1" d="M17.16,14.24q0-2.33-4.18-2.33a23.21,23.21,0,0,0-2.37.17c-1,.11-1.72.17-2.18.17q-3.31,0-3.31-4.08T14.69,4Q20.9,4,24,6a6.3,6.3,0,0,1,3.08,5.45,8.73,8.73,0,0,1-4,7.49A10.7,10.7,0,0,1,26.83,22a8.14,8.14,0,0,1,1.08,4.58,8.26,8.26,0,0,1-3.16,6.71,12.9,12.9,0,0,1-8.43,2.58c-4.42,0-7.58-.47-9.5-1.4A4.5,4.5,0,0,1,4,30.26,4.47,4.47,0,0,1,4.87,27a3.62,3.62,0,0,1,2.58-.88c.55,0,1.41.07,2.57.19a25.91,25.91,0,0,0,2.67.19q5,0,5-1.89a1.82,1.82,0,0,0-1-1.78,8.92,8.92,0,0,0-3.63-.5,7.25,7.25,0,0,1-3.77-.71A2.9,2.9,0,0,1,8.24,19Q8.24,16,12,16a19.71,19.71,0,0,0,3.61-.24c.78-.16,1.23-.34,1.36-.54A2.16,2.16,0,0,0,17.16,14.24Z"/><path class="cls-1" d="M30.85,32.34a3.12,3.12,0,0,1,1.31-2.6,6,6,0,0,1,3.7-1q5,0,5,3.6a3.5,3.5,0,0,1-.64,2.21,3.13,3.13,0,0,1-1.71,1.11,10.37,10.37,0,0,1-2.66.29,6.89,6.89,0,0,1-3.59-.86A3,3,0,0,1,30.85,32.34Z"/><path class="cls-1" d="M58.85,35.57a4.78,4.78,0,0,1-4-1.54q-1.24-1.55-1.24-5.38H45.15a6,6,0,0,1-4.43-1.47,5.17,5.17,0,0,1-1.45-3.8,8.09,8.09,0,0,1,1.25-4.45q3.27-5.26,7.36-11.38A7.51,7.51,0,0,1,54.46,4l4,0c2.24,0,3.76.38,4.55,1.16s1.2,2.12,1.2,4.05V21.73a4.13,4.13,0,0,1,2.71,1,3.73,3.73,0,0,1,.73,2.56,3.23,3.23,0,0,1-.78,2.49,4.62,4.62,0,0,1-2.67.83c0,2.5-.45,4.28-1.34,5.36A4.9,4.9,0,0,1,58.85,35.57ZM53.62,21.92l.15-10.1-6.18,10.1Z"/><path class="cls-2" d="M17.16,14.24q0-2.33-4.18-2.33a23.21,23.21,0,0,0-2.37.17c-1,.11-1.72.17-2.18.17q-3.31,0-3.31-4.08T14.69,4Q20.9,4,24,6a6.3,6.3,0,0,1,3.08,5.45,8.73,8.73,0,0,1-4,7.49A10.7,10.7,0,0,1,26.83,22a8.14,8.14,0,0,1,1.08,4.58,8.26,8.26,0,0,1-3.16,6.71,12.9,12.9,0,0,1-8.43,2.58c-4.42,0-7.58-.47-9.5-1.4A4.5,4.5,0,0,1,4,30.26,4.47,4.47,0,0,1,4.87,27a3.62,3.62,0,0,1,2.58-.88c.55,0,1.41.07,2.57.19a25.91,25.91,0,0,0,2.67.19q5,0,5-1.89a1.82,1.82,0,0,0-1-1.78,8.92,8.92,0,0,0-3.63-.5,7.25,7.25,0,0,1-3.77-.71A2.9,2.9,0,0,1,8.24,19Q8.24,16,12,16a19.71,19.71,0,0,0,3.61-.24c.78-.16,1.23-.34,1.36-.54A2.16,2.16,0,0,0,17.16,14.24Z"/><path class="cls-2" d="M30.85,32.34a3.12,3.12,0,0,1,1.31-2.6,6,6,0,0,1,3.7-1q5,0,5,3.6a3.5,3.5,0,0,1-.64,2.21,3.13,3.13,0,0,1-1.71,1.11,10.37,10.37,0,0,1-2.66.29,6.89,6.89,0,0,1-3.59-.86A3,3,0,0,1,30.85,32.34Z"/><path class="cls-2" d="M58.85,35.57a4.78,4.78,0,0,1-4-1.54q-1.24-1.55-1.24-5.38H45.15a6,6,0,0,1-4.43-1.47,5.17,5.17,0,0,1-1.45-3.8,8.09,8.09,0,0,1,1.25-4.45q3.27-5.26,7.36-11.38A7.51,7.51,0,0,1,54.46,4l4,0c2.24,0,3.76.38,4.55,1.16s1.2,2.12,1.2,4.05V21.73a4.13,4.13,0,0,1,2.71,1,3.73,3.73,0,0,1,.73,2.56,3.23,3.23,0,0,1-.78,2.49,4.62,4.62,0,0,1-2.67.83c0,2.5-.45,4.28-1.34,5.36A4.9,4.9,0,0,1,58.85,35.57ZM53.62,21.92l.15-10.1-6.18,10.1Z"/></g></g></svg>