<svg xmlns="http://www.w3.org/2000/svg" viewBox="0 0 64.86 39.9"><defs><style>.cls-1{fill:none;stroke:#fff;stroke-width:7.9px;}.cls-2{fill:#512573;}</style></defs><title>3lsi</title><g id="Layer_2" data-name="Layer 2"><g id="barra_lateral_derecha" data-name="barra lateral derecha"><path class="cls-1" d="M19.66,28.46q0,3.84-1.34,5.47a4.92,4.92,0,0,1-4.05,1.64A6.29,6.29,0,0,1,11.38,35,3.63,3.63,0,0,1,9.7,32.91a12.48,12.48,0,0,1-.62-4.07L9,11.16a7.17,7.17,0,0,1-3.63-.83A3,3,0,0,1,4,7.55,3.15,3.15,0,0,1,5.26,5,5.85,5.85,0,0,1,8.92,4l2.6,0,2.37,0c2.26,0,3.79.39,4.57,1.16s1.17,2.13,1.17,4.05Z"/><path class="cls-1" d="M23.88,32.34a3.13,3.13,0,0,1,1.32-2.6,6,6,0,0,1,3.7-1q5,0,5,3.6a3.5,3.5,0,0,1-.65,2.21,3.11,3.11,0,0,1-1.7,1.11,10.45,10.45,0,0,1-2.67.29,6.85,6.85,0,0,1-3.58-.86A3,3,0,0,1,23.88,32.34Z"/><path class="cls-1" d="M50.16,14.24q0-2.33-4.19-2.33a23.21,23.21,0,0,0-2.37.17c-1,.11-1.72.17-2.18.17q-3.31,0-3.31-4.08T47.68,4Q53.89,4,57,6A6.29,6.29,0,0,1,60,11.49a8.73,8.73,0,0,1-4,7.49A10.75,10.75,0,0,1,59.83,22a8.14,8.14,0,0,1,1.08,4.58,8.32,8.32,0,0,1-3.16,6.71,12.91,12.91,0,0,1-8.44,2.58c-4.41,0-7.58-.47-9.49-1.4a4.51,4.51,0,0,1-2.88-4.24A4.47,4.47,0,0,1,37.87,27a3.59,3.59,0,0,1,2.57-.88c.56,0,1.41.07,2.58.19a25.57,25.57,0,0,0,2.66.19q5,0,5-1.89a1.81,1.81,0,0,0-1-1.78,8.92,8.92,0,0,0-3.63-.5,7.27,7.27,0,0,1-3.77-.71A2.92,2.92,0,0,1,41.23,19Q41.23,16,45,16a19.63,19.63,0,0,0,3.61-.24c.79-.16,1.24-.34,1.36-.54A2.14,2.14,0,0,0,50.16,14.24Z"/><path class="cls-2" d="M19.66,28.46q0,3.84-1.34,5.47a4.92,4.92,0,0,1-4.05,1.64A6.29,6.29,0,0,1,11.38,35,3.63,3.63,0,0,1,9.7,32.91a12.48,12.48,0,0,1-.62-4.07L9,11.16a7.17,7.17,0,0,1-3.63-.83A3,3,0,0,1,4,7.55,3.15,3.15,0,0,1,5.26,5,5.85,5.85,0,0,1,8.92,4l2.6,0,2.37,0c2.26,0,3.79.39,4.57,1.16s1.17,2.13,1.17,4.05Z"/><path class="cls-2" d="M23.88,32.34a3.13,3.13,0,0,1,1.32-2.6,6,6,0,0,1,3.7-1q5,0,5,3.6a3.5,3.5,0,0,1-.65,2.21,3.11,3.11,0,0,1-1.7,1.11,10.45,10.45,0,0,1-2.67.29,6.85,6.85,0,0,1-3.58-.86A3,3,0,0,1,23.88,32.34Z"/><path class="cls-2" d="M50.16,14.24q0-2.33-4.19-2.33a23.21,23.21,0,0,0-2.37.17c-1,.11-1.72.17-2.18.17q-3.31,0-3.31-4.08T47.68,4Q53.89,4,57,6A6.29,6.29,0,0,1,60,11.49a8.73,8.73,0,0,1-4,7.49A10.75,10.75,0,0,1,59.83,22a8.14,8.14,0,0,1,1.08,4.58,8.32,8.32,0,0,1-3.16,6.71,12.91,12.91,0,0,1-8.44,2.58c-4.41,0-7.58-.47-9.49-1.4a4.51,4.51,0,0,1-2.88-4.24A4.47,4.47,0,0,1,37.87,27a3.59,3.59,0,0,1,2.57-.88c.56,0,1.41.07,2.58.19a25.57,25.57,0,0,0,2.66.19q5,0,5-1.89a1.81,1.81,0,0,0-1-1.78,8.92,8.92,0,0,0-3.63-.5,7.27,7.27,0,0,1-3.77-.71A2.92,2.92,0,0,1,41.23,19Q41.23,16,45,16a19.63,19.63,0,0,0,3.61-.24c.79-.16,1.24-.34,1.36-.54A2.14,2.14,0,0,0,50.16,14.24Z"/></g></g></svg>