<svg xmlns="http://www.w3.org/2000/svg" viewBox="0 0 37.51 28.4"><defs><style>.cls-1{fill:none;stroke:#7c439f;stroke-linejoin:round;stroke-width:6.6px;}.cls-2{fill:#fff;}</style></defs><title>3n</title><g id="Layer_2" data-name="Layer 2"><g id="barra_lateral_derecha" data-name="barra lateral derecha"><path class="cls-1" d="M14.35,20a5.88,5.88,0,0,1-.94,3.74,3.54,3.54,0,0,1-2.85,1.11,4.58,4.58,0,0,1-2-.39,2.55,2.55,0,0,1-1.18-1.42,8.23,8.23,0,0,1-.43-2.78l0-12.06A5.13,5.13,0,0,1,4.3,7.65a2,2,0,0,1-1-1.89A2.12,2.12,0,0,1,4.22,4,4.19,4.19,0,0,1,6.8,3.3l1.82,0h1.67a4.76,4.76,0,0,1,3.22.8,3.78,3.78,0,0,1,.82,2.76Z"/><path class="cls-1" d="M26.65,10.32c0-1.06-1-1.59-2.95-1.59A15.42,15.42,0,0,0,22,8.85c-.7.07-1.21.11-1.54.11C19,9,18.17,8,18.18,6.18S20.42,3.3,24.9,3.3c2.92,0,5.09.47,6.54,1.42A4.3,4.3,0,0,1,33.6,8.44a5.9,5.9,0,0,1-2.79,5.11,7.56,7.56,0,0,1,2.64,2.09,5.44,5.44,0,0,1,.76,3.12A5.62,5.62,0,0,1,32,23.33a9.26,9.26,0,0,1-5.94,1.77q-4.65,0-6.68-1a3.08,3.08,0,0,1-2-2.89A3,3,0,0,1,18,19a2.56,2.56,0,0,1,1.81-.59c.39,0,1,0,1.82.12a18,18,0,0,0,1.87.13c2.35,0,3.53-.43,3.53-1.29a1.23,1.23,0,0,0-.68-1.21,6.38,6.38,0,0,0-2.56-.34,5.21,5.21,0,0,1-2.65-.49,2,2,0,0,1-.77-1.81c0-1.33.88-2,2.65-2a14,14,0,0,0,2.54-.17c.55-.1.87-.23,1-.37A1.45,1.45,0,0,0,26.65,10.32Z"/><path class="cls-2" d="M14.35,20a5.88,5.88,0,0,1-.94,3.74,3.54,3.54,0,0,1-2.85,1.11,4.58,4.58,0,0,1-2-.39,2.55,2.55,0,0,1-1.18-1.42,8.23,8.23,0,0,1-.43-2.78l0-12.06A5.13,5.13,0,0,1,4.3,7.65a2,2,0,0,1-1-1.89A2.12,2.12,0,0,1,4.22,4,4.19,4.19,0,0,1,6.8,3.3l1.82,0h1.67a4.76,4.76,0,0,1,3.22.8,3.78,3.78,0,0,1,.82,2.76Z"/><path class="cls-2" d="M26.65,10.32c0-1.06-1-1.59-2.95-1.59A15.42,15.42,0,0,0,22,8.85c-.7.07-1.21.11-1.54.11C19,9,18.17,8,18.18,6.18S20.42,3.3,24.9,3.3c2.92,0,5.09.47,6.54,1.42A4.3,4.3,0,0,1,33.6,8.44a5.9,5.9,0,0,1-2.79,5.11,7.56,7.56,0,0,1,2.64,2.09,5.44,5.44,0,0,1,.76,3.12A5.62,5.62,0,0,1,32,23.33a9.26,9.26,0,0,1-5.94,1.77q-4.65,0-6.68-1a3.08,3.08,0,0,1-2-2.89A3,3,0,0,1,18,19a2.56,2.56,0,0,1,1.81-.59c.39,0,1,0,1.82.12a18,18,0,0,0,1.87.13c2.35,0,3.53-.43,3.53-1.29a1.23,1.23,0,0,0-.68-1.21,6.38,6.38,0,0,0-2.56-.34,5.21,5.21,0,0,1-2.65-.49,2,2,0,0,1-.77-1.81c0-1.33.88-2,2.65-2a14,14,0,0,0,2.54-.17c.55-.1.87-.23,1-.37A1.45,1.45,0,0,0,26.65,10.32Z"/></g></g></svg>