<svg xmlns="http://www.w3.org/2000/svg" viewBox="0 0 51.84 39.85"><defs><style>.cls-1{fill:none;stroke:#fff;stroke-linecap:round;stroke-linejoin:round;stroke-width:7.9px;}.cls-2{fill:#512573;}</style></defs><title>3sin</title><g id="Layer_2" data-name="Layer 2"><g id="barra_lateral_derecha" data-name="barra lateral derecha"><path class="cls-1" d="M19.66,28.46q0,3.84-1.34,5.47a4.92,4.92,0,0,1-4.05,1.64A6.29,6.29,0,0,1,11.38,35,3.63,3.63,0,0,1,9.7,32.91a12.48,12.48,0,0,1-.62-4.07L9,11.16a7.17,7.17,0,0,1-3.63-.83A3,3,0,0,1,4,7.55,3.15,3.15,0,0,1,5.26,5,5.85,5.85,0,0,1,8.92,4l2.6,0,2.37,0c2.26,0,3.79.39,4.57,1.16s1.17,2.13,1.17,4.05Z"/><path class="cls-1" d="M37.14,14.24q0-2.33-4.18-2.33a23.21,23.21,0,0,0-2.37.17c-1,.11-1.72.17-2.18.17q-3.32,0-3.31-4.08T34.67,4C38.81,4,41.9,4.65,44,6A6.32,6.32,0,0,1,47,11.49a8.73,8.73,0,0,1-4,7.49A10.75,10.75,0,0,1,46.82,22a8.14,8.14,0,0,1,1.07,4.58,8.28,8.28,0,0,1-3.15,6.71A12.93,12.93,0,0,1,36.3,35.9c-4.42,0-7.58-.47-9.5-1.4a4.5,4.5,0,0,1-2.87-4.24A4.43,4.43,0,0,1,24.86,27a3.59,3.59,0,0,1,2.57-.88c.55,0,1.41.07,2.58.19a25.57,25.57,0,0,0,2.66.19c3.34,0,5-.63,5-1.89a1.81,1.81,0,0,0-1-1.78,8.92,8.92,0,0,0-3.63-.5,7.25,7.25,0,0,1-3.77-.71A2.92,2.92,0,0,1,28.22,19Q28.22,16,32,16a19.63,19.63,0,0,0,3.61-.24c.78-.16,1.24-.34,1.36-.54A2.16,2.16,0,0,0,37.14,14.24Z"/><path class="cls-2" d="M19.66,28.46q0,3.84-1.34,5.47a4.92,4.92,0,0,1-4.05,1.64A6.29,6.29,0,0,1,11.38,35,3.63,3.63,0,0,1,9.7,32.91a12.48,12.48,0,0,1-.62-4.07L9,11.16a7.17,7.17,0,0,1-3.63-.83A3,3,0,0,1,4,7.55,3.15,3.15,0,0,1,5.26,5,5.85,5.85,0,0,1,8.92,4l2.6,0,2.37,0c2.26,0,3.79.39,4.57,1.16s1.17,2.13,1.17,4.05Z"/><path class="cls-2" d="M37.14,14.24q0-2.33-4.18-2.33a23.21,23.21,0,0,0-2.37.17c-1,.11-1.72.17-2.18.17q-3.32,0-3.31-4.08T34.67,4C38.81,4,41.9,4.65,44,6A6.32,6.32,0,0,1,47,11.49a8.73,8.73,0,0,1-4,7.49A10.75,10.75,0,0,1,46.82,22a8.14,8.14,0,0,1,1.07,4.58,8.28,8.28,0,0,1-3.15,6.71A12.93,12.93,0,0,1,36.3,35.9c-4.42,0-7.58-.47-9.5-1.4a4.5,4.5,0,0,1-2.87-4.24A4.43,4.43,0,0,1,24.86,27a3.59,3.59,0,0,1,2.57-.88c.55,0,1.41.07,2.58.19a25.57,25.57,0,0,0,2.66.19c3.34,0,5-.63,5-1.89a1.81,1.81,0,0,0-1-1.78,8.92,8.92,0,0,0-3.63-.5,7.25,7.25,0,0,1-3.77-.71A2.92,2.92,0,0,1,28.22,19Q28.22,16,32,16a19.63,19.63,0,0,0,3.61-.24c.78-.16,1.24-.34,1.36-.54A2.16,2.16,0,0,0,37.14,14.24Z"/></g></g></svg>