<svg xmlns="http://www.w3.org/2000/svg" viewBox="0 0 54.43 28.43"><defs><style>.cls-1{fill:none;stroke:#2da323;stroke-linecap:round;stroke-linejoin:round;stroke-width:6.6px;}.cls-2{fill:#fff;}</style></defs><title>42si_1</title><g id="Layer_2" data-name="Layer 2"><g id="barra_lateral_derecha" data-name="barra lateral derecha"><path class="cls-1" d="M17.07,24.87a3.41,3.41,0,0,1-2.78-1.05,5.86,5.86,0,0,1-.87-3.67h-6a4.25,4.25,0,0,1-3.12-1,3.47,3.47,0,0,1-1-2.59,5.34,5.34,0,0,1,.88-3q2.3-3.58,5.18-7.76A5.3,5.3,0,0,1,14,3.3l2.82,0a4.75,4.75,0,0,1,3.2.8,3.69,3.69,0,0,1,.84,2.76v8.54a2.94,2.94,0,0,1,1.91.68,2.5,2.5,0,0,1,.51,1.74,2.14,2.14,0,0,1-.55,1.7,3.36,3.36,0,0,1-1.87.57,5.65,5.65,0,0,1-.95,3.65A3.49,3.49,0,0,1,17.07,24.87Zm-3.68-9.31.1-6.89L9.15,15.56Z"/><path class="cls-1" d="M25.29,22.67a2.1,2.1,0,0,1,.92-1.78,4.33,4.33,0,0,1,2.6-.68c2.35,0,3.53.82,3.53,2.46a2.32,2.32,0,0,1-.46,1.5,2.12,2.12,0,0,1-1.2.76,7.47,7.47,0,0,1-1.87.2,5,5,0,0,1-2.52-.58A2,2,0,0,1,25.29,22.67Z"/><path class="cls-1" d="M44.82,18.89h3.59c1.81,0,2.72,1,2.72,3a3.1,3.1,0,0,1-.86,2.44,4.87,4.87,0,0,1-3.06.73H38.45a5.61,5.61,0,0,1-3.09-.6c-.55-.4-.83-1.26-.82-2.57a4.1,4.1,0,0,1,.13-1.12,2.47,2.47,0,0,1,.48-.92,4.41,4.41,0,0,1,1-.87c1.17-.78,2.08-1.4,2.75-1.88s1.32-1,2-1.5a9.83,9.83,0,0,0,1.41-1.36A7.39,7.39,0,0,0,43.06,13a4.71,4.71,0,0,0,.49-1.42,11.6,11.6,0,0,0,.12-1.68c0-1.21-.38-1.81-1.13-1.81s-1.23.71-1.24,2.13a1.52,1.52,0,0,1-.77,1.55,5.72,5.72,0,0,1-2.3.36,3.45,3.45,0,0,1-2.8-.91,4.86,4.86,0,0,1-.72-3,4.15,4.15,0,0,1,2-3.51A9.49,9.49,0,0,1,42.25,3.3Q51,3.3,51,10a10.38,10.38,0,0,1-.36,2.83A8.8,8.8,0,0,1,49.81,15a7.26,7.26,0,0,1-1.41,1.63,13.05,13.05,0,0,1-1.67,1.26A19.69,19.69,0,0,1,44.82,18.89Z"/><path class="cls-2" d="M17.07,24.87a3.41,3.41,0,0,1-2.78-1.05,5.86,5.86,0,0,1-.87-3.67h-6a4.25,4.25,0,0,1-3.12-1,3.47,3.47,0,0,1-1-2.59,5.34,5.34,0,0,1,.88-3q2.3-3.58,5.18-7.76A5.3,5.3,0,0,1,14,3.3l2.82,0a4.75,4.75,0,0,1,3.2.8,3.69,3.69,0,0,1,.84,2.76v8.54a2.94,2.94,0,0,1,1.91.68,2.5,2.5,0,0,1,.51,1.74,2.14,2.14,0,0,1-.55,1.7,3.36,3.36,0,0,1-1.87.57,5.65,5.65,0,0,1-.95,3.65A3.49,3.49,0,0,1,17.07,24.87Zm-3.68-9.31.1-6.89L9.15,15.56Z"/><path class="cls-2" d="M25.29,22.67a2.1,2.1,0,0,1,.92-1.78,4.33,4.33,0,0,1,2.6-.68c2.35,0,3.53.82,3.53,2.46a2.32,2.32,0,0,1-.46,1.5,2.12,2.12,0,0,1-1.2.76,7.47,7.47,0,0,1-1.87.2,5,5,0,0,1-2.52-.58A2,2,0,0,1,25.29,22.67Z"/><path class="cls-2" d="M44.82,18.89h3.59c1.81,0,2.72,1,2.72,3a3.1,3.1,0,0,1-.86,2.44,4.87,4.87,0,0,1-3.06.73H38.45a5.61,5.61,0,0,1-3.09-.6c-.55-.4-.83-1.26-.82-2.57a4.1,4.1,0,0,1,.13-1.12,2.47,2.47,0,0,1,.48-.92,4.41,4.41,0,0,1,1-.87c1.17-.78,2.08-1.4,2.75-1.88s1.32-1,2-1.5a9.83,9.83,0,0,0,1.41-1.36A7.39,7.39,0,0,0,43.06,13a4.71,4.71,0,0,0,.49-1.42,11.6,11.6,0,0,0,.12-1.68c0-1.21-.38-1.81-1.13-1.81s-1.23.71-1.24,2.13a1.52,1.52,0,0,1-.77,1.55,5.72,5.72,0,0,1-2.3.36,3.45,3.45,0,0,1-2.8-.91,4.86,4.86,0,0,1-.72-3,4.15,4.15,0,0,1,2-3.51A9.49,9.49,0,0,1,42.25,3.3Q51,3.3,51,10a10.38,10.38,0,0,1-.36,2.83A8.8,8.8,0,0,1,49.81,15a7.26,7.26,0,0,1-1.41,1.63,13.05,13.05,0,0,1-1.67,1.26A19.69,19.69,0,0,1,44.82,18.89Z"/></g></g></svg>