<svg xmlns="http://www.w3.org/2000/svg" viewBox="0 0 54.62 28.43"><defs><style>.cls-1{fill:none;stroke:#2da323;stroke-linecap:round;stroke-linejoin:round;stroke-width:6.6px;}.cls-2{fill:#fff;}</style></defs><title>43si_1</title><g id="Layer_2" data-name="Layer 2"><g id="barra_lateral_derecha" data-name="barra lateral derecha"><path class="cls-1" d="M17.07,24.87a3.41,3.41,0,0,1-2.78-1.05,5.86,5.86,0,0,1-.87-3.67h-6a4.27,4.27,0,0,1-3.12-1,3.47,3.47,0,0,1-1-2.59,5.34,5.34,0,0,1,.88-3q2.3-3.58,5.18-7.76A5.3,5.3,0,0,1,14,3.3l2.82,0a4.75,4.75,0,0,1,3.2.8,3.69,3.69,0,0,1,.84,2.76v8.54a2.94,2.94,0,0,1,1.91.68,2.5,2.5,0,0,1,.51,1.74,2.14,2.14,0,0,1-.55,1.7,3.36,3.36,0,0,1-1.87.57,5.65,5.65,0,0,1-.95,3.65A3.49,3.49,0,0,1,17.07,24.87Zm-3.68-9.31.1-6.89L9.15,15.56Z"/><path class="cls-1" d="M25.29,22.67a2.1,2.1,0,0,1,.92-1.78,4.33,4.33,0,0,1,2.6-.68c2.35,0,3.53.82,3.53,2.46a2.37,2.37,0,0,1-.46,1.5,2.12,2.12,0,0,1-1.2.76,7.47,7.47,0,0,1-1.87.2,5,5,0,0,1-2.52-.58A2,2,0,0,1,25.29,22.67Z"/><path class="cls-1" d="M43.76,10.32q0-1.59-2.94-1.59a15.74,15.74,0,0,0-1.67.12c-.7.07-1.21.11-1.53.11C36.07,9,35.29,8,35.29,6.18S37.54,3.3,42,3.3q4.36,0,6.53,1.42a4.29,4.29,0,0,1,2.17,3.72,5.9,5.9,0,0,1-2.79,5.11,7.42,7.42,0,0,1,2.63,2.09,5.36,5.36,0,0,1,.76,3.12,5.56,5.56,0,0,1-2.22,4.57,9.21,9.21,0,0,1-5.93,1.77c-3.11,0-5.33-.32-6.68-1a3.06,3.06,0,0,1-2-2.89A3,3,0,0,1,35.12,19a2.55,2.55,0,0,1,1.81-.6c.39,0,1,.05,1.81.13a18.37,18.37,0,0,0,1.88.13c2.35,0,3.52-.43,3.52-1.29a1.23,1.23,0,0,0-.67-1.21,6.44,6.44,0,0,0-2.56-.34,5.21,5.21,0,0,1-2.65-.49,2,2,0,0,1-.78-1.81c0-1.33.89-2,2.66-2a14.09,14.09,0,0,0,2.54-.17c.55-.1.87-.23,1-.37A1.33,1.33,0,0,0,43.76,10.32Z"/><path class="cls-2" d="M17.07,24.87a3.41,3.41,0,0,1-2.78-1.05,5.86,5.86,0,0,1-.87-3.67h-6a4.27,4.27,0,0,1-3.12-1,3.47,3.47,0,0,1-1-2.59,5.34,5.34,0,0,1,.88-3q2.3-3.58,5.18-7.76A5.3,5.3,0,0,1,14,3.3l2.82,0a4.75,4.75,0,0,1,3.2.8,3.69,3.69,0,0,1,.84,2.76v8.54a2.94,2.94,0,0,1,1.91.68,2.5,2.5,0,0,1,.51,1.74,2.14,2.14,0,0,1-.55,1.7,3.36,3.36,0,0,1-1.87.57,5.65,5.65,0,0,1-.95,3.65A3.49,3.49,0,0,1,17.07,24.87Zm-3.68-9.31.1-6.89L9.15,15.56Z"/><path class="cls-2" d="M25.29,22.67a2.1,2.1,0,0,1,.92-1.78,4.33,4.33,0,0,1,2.6-.68c2.35,0,3.53.82,3.53,2.46a2.37,2.37,0,0,1-.46,1.5,2.12,2.12,0,0,1-1.2.76,7.47,7.47,0,0,1-1.87.2,5,5,0,0,1-2.52-.58A2,2,0,0,1,25.29,22.67Z"/><path class="cls-2" d="M43.76,10.32q0-1.59-2.94-1.59a15.74,15.74,0,0,0-1.67.12c-.7.07-1.21.11-1.53.11C36.07,9,35.29,8,35.29,6.18S37.54,3.3,42,3.3q4.36,0,6.53,1.42a4.29,4.29,0,0,1,2.17,3.72,5.9,5.9,0,0,1-2.79,5.11,7.42,7.42,0,0,1,2.63,2.09,5.36,5.36,0,0,1,.76,3.12,5.56,5.56,0,0,1-2.22,4.57,9.21,9.21,0,0,1-5.93,1.77c-3.11,0-5.33-.32-6.68-1a3.06,3.06,0,0,1-2-2.89A3,3,0,0,1,35.12,19a2.55,2.55,0,0,1,1.81-.6c.39,0,1,.05,1.81.13a18.37,18.37,0,0,0,1.88.13c2.35,0,3.52-.43,3.52-1.29a1.23,1.23,0,0,0-.67-1.21,6.44,6.44,0,0,0-2.56-.34,5.21,5.21,0,0,1-2.65-.49,2,2,0,0,1-.78-1.81c0-1.33.89-2,2.66-2a14.09,14.09,0,0,0,2.54-.17c.55-.1.87-.23,1-.37A1.33,1.33,0,0,0,43.76,10.32Z"/></g></g></svg>