<svg xmlns="http://www.w3.org/2000/svg" viewBox="0 0 75.95 39.9"><defs><style>.cls-1{fill:none;stroke:#fff;stroke-linecap:round;stroke-linejoin:round;stroke-width:7.9px;}.cls-2{fill:#914e06;}</style></defs><title>44si</title><g id="Layer_2" data-name="Layer 2"><g id="barra_lateral_derecha" data-name="barra lateral derecha"><path class="cls-1" d="M23.53,35.57a4.78,4.78,0,0,1-4-1.54q-1.24-1.55-1.24-5.38H9.83A6,6,0,0,1,5.4,27.18,5.17,5.17,0,0,1,4,23.39,8.1,8.1,0,0,1,5.2,18.93q3.27-5.26,7.36-11.38A7.51,7.51,0,0,1,19.14,4l4,0c2.24,0,3.76.38,4.55,1.16s1.2,2.12,1.19,4.05V21.73a4.14,4.14,0,0,1,2.72,1,3.73,3.73,0,0,1,.73,2.56,3.23,3.23,0,0,1-.78,2.49,4.64,4.64,0,0,1-2.67.83c0,2.5-.45,4.28-1.34,5.36A4.9,4.9,0,0,1,23.53,35.57ZM18.3,21.92l.14-10.1-6.17,10.1Z"/><path class="cls-1" d="M35.21,32.34a3.12,3.12,0,0,1,1.31-2.6,6,6,0,0,1,3.71-1q5,0,5,3.6a3.5,3.5,0,0,1-.64,2.21,3.14,3.14,0,0,1-1.7,1.11,10.51,10.51,0,0,1-2.67.29,6.89,6.89,0,0,1-3.59-.86A3,3,0,0,1,35.21,32.34Z"/><path class="cls-1" d="M63.21,35.57a4.78,4.78,0,0,1-4-1.54Q58,32.49,58,28.65H49.51a6,6,0,0,1-4.43-1.47,5.17,5.17,0,0,1-1.45-3.8,8.09,8.09,0,0,1,1.25-4.45q3.27-5.26,7.37-11.38A7.48,7.48,0,0,1,58.82,4l4,0c2.24,0,3.76.38,4.56,1.16s1.19,2.12,1.19,4.05V21.73a4.11,4.11,0,0,1,2.71,1A3.73,3.73,0,0,1,72,25.28a3.23,3.23,0,0,1-.78,2.49,4.62,4.62,0,0,1-2.67.83c0,2.5-.45,4.28-1.34,5.36A4.9,4.9,0,0,1,63.21,35.57ZM58,21.92l.15-10.1L52,21.92Z"/><path class="cls-2" d="M23.53,35.57a4.78,4.78,0,0,1-4-1.54q-1.24-1.55-1.24-5.38H9.83A6,6,0,0,1,5.4,27.18,5.17,5.17,0,0,1,4,23.39,8.1,8.1,0,0,1,5.2,18.93q3.27-5.26,7.36-11.38A7.51,7.51,0,0,1,19.14,4l4,0c2.24,0,3.76.38,4.55,1.16s1.2,2.12,1.19,4.05V21.73a4.14,4.14,0,0,1,2.72,1,3.73,3.73,0,0,1,.73,2.56,3.23,3.23,0,0,1-.78,2.49,4.64,4.64,0,0,1-2.67.83c0,2.5-.45,4.28-1.34,5.36A4.9,4.9,0,0,1,23.53,35.57ZM18.3,21.92l.14-10.1-6.17,10.1Z"/><path class="cls-2" d="M35.21,32.34a3.12,3.12,0,0,1,1.31-2.6,6,6,0,0,1,3.71-1q5,0,5,3.6a3.5,3.5,0,0,1-.64,2.21,3.14,3.14,0,0,1-1.7,1.11,10.51,10.51,0,0,1-2.67.29,6.89,6.89,0,0,1-3.59-.86A3,3,0,0,1,35.21,32.34Z"/><path class="cls-2" d="M63.21,35.57a4.78,4.78,0,0,1-4-1.54Q58,32.49,58,28.65H49.51a6,6,0,0,1-4.43-1.47,5.17,5.17,0,0,1-1.45-3.8,8.09,8.09,0,0,1,1.25-4.45q3.27-5.26,7.37-11.38A7.48,7.48,0,0,1,58.82,4l4,0c2.24,0,3.76.38,4.56,1.16s1.19,2.12,1.19,4.05V21.73a4.11,4.11,0,0,1,2.71,1A3.73,3.73,0,0,1,72,25.28a3.23,3.23,0,0,1-.78,2.49,4.62,4.62,0,0,1-2.67.83c0,2.5-.45,4.28-1.34,5.36A4.9,4.9,0,0,1,63.21,35.57ZM58,21.92l.15-10.1L52,21.92Z"/></g></g></svg>