<svg xmlns="http://www.w3.org/2000/svg" viewBox="0 0 40.58 28.17"><defs><style>.cls-1{fill:none;stroke:#7c439f;stroke-linejoin:round;stroke-width:6.6px;}.cls-2{fill:#fff;}</style></defs><title>4n</title><g id="Layer_2" data-name="Layer 2"><g id="barra_lateral_derecha" data-name="barra lateral derecha"><path class="cls-1" d="M14.35,20a5.88,5.88,0,0,1-.94,3.74,3.54,3.54,0,0,1-2.85,1.11,4.58,4.58,0,0,1-2-.39,2.55,2.55,0,0,1-1.18-1.42,8.23,8.23,0,0,1-.43-2.78L6.85,8.22A5.12,5.12,0,0,1,4.3,7.65a2,2,0,0,1-1-1.89A2.12,2.12,0,0,1,4.22,4a4.15,4.15,0,0,1,2.57-.7l1.83,0h1.67a4.73,4.73,0,0,1,3.21.8,3.73,3.73,0,0,1,.83,2.76Z"/><path class="cls-1" d="M31.09,24.87a3.43,3.43,0,0,1-2.78-1.05,5.86,5.86,0,0,1-.87-3.67h-6a4.29,4.29,0,0,1-3.12-1,3.43,3.43,0,0,1-1-2.59,5.41,5.41,0,0,1,.87-3q2.3-3.58,5.18-7.76A5.33,5.33,0,0,1,28,3.3l2.81,0a4.8,4.8,0,0,1,3.2.79,3.71,3.71,0,0,1,.84,2.77v8.54a2.92,2.92,0,0,1,1.91.68,2.45,2.45,0,0,1,.52,1.74,2.18,2.18,0,0,1-.55,1.7,3.39,3.39,0,0,1-1.88.57,5.59,5.59,0,0,1-.94,3.65A3.52,3.52,0,0,1,31.09,24.87Zm-3.67-9.31.1-6.89-4.34,6.89Z"/><path class="cls-2" d="M14.35,20a5.88,5.88,0,0,1-.94,3.74,3.54,3.54,0,0,1-2.85,1.11,4.58,4.58,0,0,1-2-.39,2.55,2.55,0,0,1-1.18-1.42,8.23,8.23,0,0,1-.43-2.78L6.85,8.22A5.12,5.12,0,0,1,4.3,7.65a2,2,0,0,1-1-1.89A2.12,2.12,0,0,1,4.22,4a4.15,4.15,0,0,1,2.57-.7l1.83,0h1.67a4.73,4.73,0,0,1,3.21.8,3.73,3.73,0,0,1,.83,2.76Z"/><path class="cls-2" d="M31.09,24.87a3.43,3.43,0,0,1-2.78-1.05,5.86,5.86,0,0,1-.87-3.67h-6a4.29,4.29,0,0,1-3.12-1,3.43,3.43,0,0,1-1-2.59,5.41,5.41,0,0,1,.87-3q2.3-3.58,5.18-7.76A5.33,5.33,0,0,1,28,3.3l2.81,0a4.8,4.8,0,0,1,3.2.79,3.71,3.71,0,0,1,.84,2.77v8.54a2.92,2.92,0,0,1,1.91.68,2.45,2.45,0,0,1,.52,1.74,2.18,2.18,0,0,1-.55,1.7,3.39,3.39,0,0,1-1.88.57,5.59,5.59,0,0,1-.94,3.65A3.52,3.52,0,0,1,31.09,24.87Zm-3.67-9.31.1-6.89-4.34,6.89Z"/></g></g></svg>