<svg xmlns="http://www.w3.org/2000/svg" viewBox="0 0 56.21 39.52"><defs><style>.cls-1{fill:none;stroke:#fff;stroke-linecap:round;stroke-linejoin:round;stroke-width:7.9px;}.cls-2{fill:#512573;}</style></defs><title>4sin</title><g id="Layer_2" data-name="Layer 2"><g id="barra_lateral_derecha" data-name="barra lateral derecha"><path class="cls-1" d="M19.66,28.46q0,3.84-1.34,5.47a4.92,4.92,0,0,1-4.05,1.64A6.29,6.29,0,0,1,11.38,35,3.63,3.63,0,0,1,9.7,32.91a12.48,12.48,0,0,1-.62-4.07L9,11.16a7.17,7.17,0,0,1-3.63-.83A3,3,0,0,1,4,7.55,3.15,3.15,0,0,1,5.26,5,5.85,5.85,0,0,1,8.92,4l2.6,0,2.37,0c2.26,0,3.79.39,4.57,1.16s1.17,2.13,1.17,4.05Z"/><path class="cls-1" d="M43.47,35.57A4.78,4.78,0,0,1,39.52,34q-1.25-1.55-1.24-5.38H29.77a6,6,0,0,1-4.43-1.47,5.17,5.17,0,0,1-1.45-3.79,8.1,8.1,0,0,1,1.25-4.46q3.27-5.26,7.37-11.38A7.48,7.48,0,0,1,39.08,4l4,0c2.23,0,3.75.38,4.55,1.16s1.19,2.12,1.19,4.05V21.73a4.11,4.11,0,0,1,2.71,1,3.73,3.73,0,0,1,.73,2.56,3.23,3.23,0,0,1-.78,2.49,4.62,4.62,0,0,1-2.67.83c0,2.5-.45,4.28-1.34,5.36A4.9,4.9,0,0,1,43.47,35.57ZM38.24,21.92l.15-10.1-6.17,10.1Z"/><path class="cls-2" d="M19.66,28.46q0,3.84-1.34,5.47a4.92,4.92,0,0,1-4.05,1.64A6.29,6.29,0,0,1,11.38,35,3.63,3.63,0,0,1,9.7,32.91a12.48,12.48,0,0,1-.62-4.07L9,11.16a7.17,7.17,0,0,1-3.63-.83A3,3,0,0,1,4,7.55,3.15,3.15,0,0,1,5.26,5,5.85,5.85,0,0,1,8.92,4l2.6,0,2.37,0c2.26,0,3.79.39,4.57,1.16s1.17,2.13,1.17,4.05Z"/><path class="cls-2" d="M43.47,35.57A4.78,4.78,0,0,1,39.52,34q-1.25-1.55-1.24-5.38H29.77a6,6,0,0,1-4.43-1.47,5.17,5.17,0,0,1-1.45-3.79,8.1,8.1,0,0,1,1.25-4.46q3.27-5.26,7.37-11.38A7.48,7.48,0,0,1,39.08,4l4,0c2.23,0,3.75.38,4.55,1.16s1.19,2.12,1.19,4.05V21.73a4.11,4.11,0,0,1,2.71,1,3.73,3.73,0,0,1,.73,2.56,3.23,3.23,0,0,1-.78,2.49,4.62,4.62,0,0,1-2.67.83c0,2.5-.45,4.28-1.34,5.36A4.9,4.9,0,0,1,43.47,35.57ZM38.24,21.92l.15-10.1-6.17,10.1Z"/></g></g></svg>