<svg xmlns="http://www.w3.org/2000/svg" viewBox="0 0 46.79 28.43"><defs><style>.cls-1,.cls-2,.cls-3{fill:none;}.cls-1{stroke:#7c439f;stroke-width:6.6px;}.cls-1,.cls-3{stroke-linejoin:round;}.cls-3{stroke:#2794da;stroke-linecap:round;stroke-width:0.25px;}.cls-4{fill:#fff;}</style></defs><title>5l</title><g id="Layer_2" data-name="Layer 2"><g id="barra_lateral_derecha" data-name="barra lateral derecha"><path class="cls-1" d="M14.35,20a5.88,5.88,0,0,1-.94,3.74,3.54,3.54,0,0,1-2.85,1.11,4.58,4.58,0,0,1-2-.39,2.55,2.55,0,0,1-1.18-1.42,8.23,8.23,0,0,1-.43-2.78l0-12.06A5.13,5.13,0,0,1,4.3,7.65a2,2,0,0,1-1-1.89A2.12,2.12,0,0,1,4.22,4,4.19,4.19,0,0,1,6.8,3.3l1.82,0h1.67a4.82,4.82,0,0,1,3.22.79,3.8,3.8,0,0,1,.82,2.77Z"/><path class="cls-1" d="M17.32,22.67a2.13,2.13,0,0,1,.92-1.78,4.38,4.38,0,0,1,2.61-.68c2.35,0,3.52.82,3.52,2.46a2.36,2.36,0,0,1-.45,1.51,2.27,2.27,0,0,1-1.2.76,8.13,8.13,0,0,1-1.88.19,5,5,0,0,1-2.52-.58A2,2,0,0,1,17.32,22.67Z"/><path class="cls-1" d="M40.88,8.54H34.25l-.07,2.1a16.63,16.63,0,0,1,5.92.87q3.39,1.39,3.39,5.83a7.15,7.15,0,0,1-2.37,5.72c-1.57,1.36-4,2-7.15,2a12.61,12.61,0,0,1-5.49-.86,2.83,2.83,0,0,1-1.62-2.67c0-2.11.75-3.17,2.24-3.17a10.35,10.35,0,0,1,2,.36,10.09,10.09,0,0,0,2.08.35,4.87,4.87,0,0,0,2.2-.38,1.45,1.45,0,0,0,.72-1.39q0-1.82-6.08-1.82a2.64,2.64,0,0,1-2.23-.74,5.46,5.46,0,0,1-.55-3V6a2.46,2.46,0,0,1,.82-2A4.78,4.78,0,0,1,31,3.33H40.2a2.88,2.88,0,0,1,2.07.58,3.45,3.45,0,0,1,.55,2.3A2.9,2.9,0,0,1,42.38,8,1.86,1.86,0,0,1,40.88,8.54Z"/><path class="cls-2" d="M14.35,20a5.88,5.88,0,0,1-.94,3.74,3.54,3.54,0,0,1-2.85,1.11,4.58,4.58,0,0,1-2-.39,2.55,2.55,0,0,1-1.18-1.42,8.23,8.23,0,0,1-.43-2.78l0-12.06A5.13,5.13,0,0,1,4.3,7.65a2,2,0,0,1-1-1.89A2.12,2.12,0,0,1,4.22,4,4.19,4.19,0,0,1,6.8,3.3l1.82,0h1.67a4.82,4.82,0,0,1,3.22.79,3.8,3.8,0,0,1,.82,2.77Z"/><path class="cls-2" d="M17.32,22.67a2.13,2.13,0,0,1,.92-1.78,4.38,4.38,0,0,1,2.61-.68c2.35,0,3.52.82,3.52,2.46a2.36,2.36,0,0,1-.45,1.51,2.27,2.27,0,0,1-1.2.76,8.13,8.13,0,0,1-1.88.19,5,5,0,0,1-2.52-.58A2,2,0,0,1,17.32,22.67Z"/><path class="cls-3" d="M40.88,8.54H34.25l-.07,2.1a16.63,16.63,0,0,1,5.92.87q3.39,1.39,3.39,5.83a7.15,7.15,0,0,1-2.37,5.72c-1.57,1.36-4,2-7.15,2a12.61,12.61,0,0,1-5.49-.86,2.83,2.83,0,0,1-1.62-2.67c0-2.11.75-3.17,2.24-3.17a10.35,10.35,0,0,1,2,.36,10.09,10.09,0,0,0,2.08.35,4.87,4.87,0,0,0,2.2-.38,1.45,1.45,0,0,0,.72-1.39q0-1.82-6.08-1.82a2.64,2.64,0,0,1-2.23-.74,5.46,5.46,0,0,1-.55-3V6a2.46,2.46,0,0,1,.82-2A4.78,4.78,0,0,1,31,3.33H40.2a2.88,2.88,0,0,1,2.07.58,3.45,3.45,0,0,1,.55,2.3A2.9,2.9,0,0,1,42.38,8,1.86,1.86,0,0,1,40.88,8.54Z"/><path class="cls-4" d="M14.35,20a5.88,5.88,0,0,1-.94,3.74,3.54,3.54,0,0,1-2.85,1.11,4.58,4.58,0,0,1-2-.39,2.55,2.55,0,0,1-1.18-1.42,8.23,8.23,0,0,1-.43-2.78l0-12.06A5.13,5.13,0,0,1,4.3,7.65a2,2,0,0,1-1-1.89A2.12,2.12,0,0,1,4.22,4,4.19,4.19,0,0,1,6.8,3.3l1.82,0h1.67a4.82,4.82,0,0,1,3.22.79,3.8,3.8,0,0,1,.82,2.77Z"/><path class="cls-4" d="M17.32,22.67a2.13,2.13,0,0,1,.92-1.78,4.38,4.38,0,0,1,2.61-.68c2.35,0,3.52.82,3.52,2.46a2.36,2.36,0,0,1-.45,1.51,2.27,2.27,0,0,1-1.2.76,8.13,8.13,0,0,1-1.88.19,5,5,0,0,1-2.52-.58A2,2,0,0,1,17.32,22.67Z"/><path class="cls-4" d="M40.88,8.54H34.25l-.07,2.1a16.63,16.63,0,0,1,5.92.87q3.39,1.39,3.39,5.83a7.15,7.15,0,0,1-2.37,5.72c-1.57,1.36-4,2-7.15,2a12.61,12.61,0,0,1-5.49-.86,2.83,2.83,0,0,1-1.62-2.67c0-2.11.75-3.17,2.24-3.17a10.35,10.35,0,0,1,2,.36,10.09,10.09,0,0,0,2.08.35,4.87,4.87,0,0,0,2.2-.38,1.45,1.45,0,0,0,.72-1.39q0-1.82-6.08-1.82a2.64,2.64,0,0,1-2.23-.74,5.46,5.46,0,0,1-.55-3V6a2.46,2.46,0,0,1,.82-2A4.78,4.78,0,0,1,31,3.33H40.2a2.88,2.88,0,0,1,2.07.58,3.45,3.45,0,0,1,.55,2.3A2.9,2.9,0,0,1,42.38,8,1.86,1.86,0,0,1,40.88,8.54Z"/></g></g></svg>