<svg xmlns="http://www.w3.org/2000/svg" viewBox="0 0 65.04 39.9"><defs><style>.cls-1{fill:none;stroke:#fff;stroke-linecap:round;stroke-linejoin:round;stroke-width:7.9px;}.cls-2{fill:#512573;}</style></defs><title>5lsi</title><g id="Layer_2" data-name="Layer 2"><g id="barra_lateral_derecha" data-name="barra lateral derecha"><path class="cls-1" d="M19.66,28.46q0,3.84-1.34,5.47a4.92,4.92,0,0,1-4.05,1.64A6.29,6.29,0,0,1,11.38,35,3.66,3.66,0,0,1,9.7,32.91a12.48,12.48,0,0,1-.62-4.07L9,11.16a7.17,7.17,0,0,1-3.63-.83A3,3,0,0,1,4,7.55,3.15,3.15,0,0,1,5.26,5,5.85,5.85,0,0,1,8.92,4l2.6,0,2.37,0c2.26,0,3.79.38,4.57,1.16s1.17,2.12,1.17,4.05Z"/><path class="cls-1" d="M23.88,32.34a3.13,3.13,0,0,1,1.32-2.6,6,6,0,0,1,3.7-1q5,0,5,3.6a3.5,3.5,0,0,1-.65,2.21,3.11,3.11,0,0,1-1.7,1.11,10.4,10.4,0,0,1-2.67.29,6.85,6.85,0,0,1-3.58-.86A3,3,0,0,1,23.88,32.34Z"/><path class="cls-1" d="M57.38,11.63H48l-.09,3.08A23,23,0,0,1,56.27,16q4.83,2,4.82,8.53c0,3.61-1.12,6.4-3.36,8.39s-5.63,3-10.17,3q-5.52,0-7.81-1.26a4.14,4.14,0,0,1-2.3-3.91q0-4.64,3.18-4.64a14.26,14.26,0,0,1,2.92.52,14.08,14.08,0,0,0,3,.52,6.63,6.63,0,0,0,3.13-.57,2.14,2.14,0,0,0,1-2c0-1.77-2.88-2.65-8.64-2.65-1.59,0-2.65-.37-3.17-1.09s-.78-2.18-.78-4.36V7.93a3.62,3.62,0,0,1,1.17-3c.79-.65,2.16-1,4.12-1H56.42a3.92,3.92,0,0,1,2.94.85c.52.57.78,1.69.78,3.37a4.32,4.32,0,0,1-.62,2.63A2.6,2.6,0,0,1,57.38,11.63Z"/><path class="cls-2" d="M19.66,28.46q0,3.84-1.34,5.47a4.92,4.92,0,0,1-4.05,1.64A6.29,6.29,0,0,1,11.38,35,3.66,3.66,0,0,1,9.7,32.91a12.48,12.48,0,0,1-.62-4.07L9,11.16a7.17,7.17,0,0,1-3.63-.83A3,3,0,0,1,4,7.55,3.15,3.15,0,0,1,5.26,5,5.85,5.85,0,0,1,8.92,4l2.6,0,2.37,0c2.26,0,3.79.38,4.57,1.16s1.17,2.12,1.17,4.05Z"/><path class="cls-2" d="M23.88,32.34a3.13,3.13,0,0,1,1.32-2.6,6,6,0,0,1,3.7-1q5,0,5,3.6a3.5,3.5,0,0,1-.65,2.21,3.11,3.11,0,0,1-1.7,1.11,10.4,10.4,0,0,1-2.67.29,6.85,6.85,0,0,1-3.58-.86A3,3,0,0,1,23.88,32.34Z"/><path class="cls-2" d="M57.38,11.63H48l-.09,3.08A23,23,0,0,1,56.27,16q4.83,2,4.82,8.53c0,3.61-1.12,6.4-3.36,8.39s-5.63,3-10.17,3q-5.52,0-7.81-1.26a4.14,4.14,0,0,1-2.3-3.91q0-4.64,3.18-4.64a14.26,14.26,0,0,1,2.92.52,14.08,14.08,0,0,0,3,.52,6.63,6.63,0,0,0,3.13-.57,2.14,2.14,0,0,0,1-2c0-1.77-2.88-2.65-8.64-2.65-1.59,0-2.65-.37-3.17-1.09s-.78-2.18-.78-4.36V7.93a3.62,3.62,0,0,1,1.17-3c.79-.65,2.16-1,4.12-1H56.42a3.92,3.92,0,0,1,2.94.85c.52.57.78,1.69.78,3.37a4.32,4.32,0,0,1-.62,2.63A2.6,2.6,0,0,1,57.38,11.63Z"/></g></g></svg>