<svg xmlns="http://www.w3.org/2000/svg" viewBox="0 0 37.64 28.4"><defs><style>.cls-1{fill:none;stroke:#7c439f;stroke-width:6.6px;}.cls-2{fill:#fff;}</style></defs><title>5n</title><g id="Layer_2" data-name="Layer 2"><g id="barra_lateral_derecha" data-name="barra lateral derecha"><path class="cls-1" d="M14.35,20a5.88,5.88,0,0,1-.94,3.74,3.54,3.54,0,0,1-2.85,1.11,4.58,4.58,0,0,1-2-.39,2.55,2.55,0,0,1-1.18-1.42,8.48,8.48,0,0,1-.43-2.78l0-12.06A5.13,5.13,0,0,1,4.3,7.65a2,2,0,0,1-1-1.89A2.12,2.12,0,0,1,4.22,4,4.19,4.19,0,0,1,6.8,3.3l1.82,0h1.67a4.76,4.76,0,0,1,3.22.8,3.78,3.78,0,0,1,.82,2.76Z"/><path class="cls-1" d="M31.72,8.54H25.09L25,10.64a16.63,16.63,0,0,1,5.92.87q3.39,1.39,3.39,5.83A7.18,7.18,0,0,1,32,23.06c-1.57,1.36-4,2-7.15,2a12.67,12.67,0,0,1-5.5-.86,2.83,2.83,0,0,1-1.61-2.67c0-2.11.75-3.17,2.23-3.17a10.3,10.3,0,0,1,2.06.36,10,10,0,0,0,2.08.35,4.9,4.9,0,0,0,2.2-.38A1.47,1.47,0,0,0,27,17.34q0-1.82-6.08-1.82a2.64,2.64,0,0,1-2.23-.74,5.46,5.46,0,0,1-.55-3V6A2.46,2.46,0,0,1,19,4a4.76,4.76,0,0,1,2.89-.66h9.19a2.88,2.88,0,0,1,2.07.58,3.45,3.45,0,0,1,.55,2.3A2.9,2.9,0,0,1,33.23,8,1.86,1.86,0,0,1,31.72,8.54Z"/><path class="cls-2" d="M14.35,20a5.88,5.88,0,0,1-.94,3.74,3.54,3.54,0,0,1-2.85,1.11,4.58,4.58,0,0,1-2-.39,2.55,2.55,0,0,1-1.18-1.42,8.48,8.48,0,0,1-.43-2.78l0-12.06A5.13,5.13,0,0,1,4.3,7.65a2,2,0,0,1-1-1.89A2.12,2.12,0,0,1,4.22,4,4.19,4.19,0,0,1,6.8,3.3l1.82,0h1.67a4.76,4.76,0,0,1,3.22.8,3.78,3.78,0,0,1,.82,2.76Z"/><path class="cls-2" d="M31.72,8.54H25.09L25,10.64a16.63,16.63,0,0,1,5.92.87q3.39,1.39,3.39,5.83A7.18,7.18,0,0,1,32,23.06c-1.57,1.36-4,2-7.15,2a12.67,12.67,0,0,1-5.5-.86,2.83,2.83,0,0,1-1.61-2.67c0-2.11.75-3.17,2.23-3.17a10.3,10.3,0,0,1,2.06.36,10,10,0,0,0,2.08.35,4.9,4.9,0,0,0,2.2-.38A1.47,1.47,0,0,0,27,17.34q0-1.82-6.08-1.82a2.64,2.64,0,0,1-2.23-.74,5.46,5.46,0,0,1-.55-3V6A2.46,2.46,0,0,1,19,4a4.76,4.76,0,0,1,2.89-.66h9.19a2.88,2.88,0,0,1,2.07.58,3.45,3.45,0,0,1,.55,2.3A2.9,2.9,0,0,1,33.23,8,1.86,1.86,0,0,1,31.72,8.54Z"/></g></g></svg>