<svg xmlns="http://www.w3.org/2000/svg" viewBox="0 0 52.03 39.85"><defs><style>.cls-1{fill:none;stroke:#fff;stroke-width:7.9px;}.cls-2{fill:#512573;}</style></defs><title>5sin</title><g id="Layer_2" data-name="Layer 2"><g id="barra_lateral_derecha" data-name="barra lateral derecha"><path class="cls-1" d="M19.66,28.46q0,3.84-1.34,5.47a4.92,4.92,0,0,1-4.05,1.64A6.29,6.29,0,0,1,11.38,35,3.66,3.66,0,0,1,9.7,32.91a12.48,12.48,0,0,1-.62-4.07L9,11.16a7.17,7.17,0,0,1-3.63-.83A3,3,0,0,1,4,7.55,3.15,3.15,0,0,1,5.26,5,5.85,5.85,0,0,1,8.92,4l2.6,0,2.37,0c2.26,0,3.79.38,4.57,1.16s1.17,2.12,1.17,4.05Z"/><path class="cls-1" d="M44.37,11.63H34.94l-.1,3.08A23,23,0,0,1,43.26,16q4.83,2,4.82,8.53c0,3.61-1.13,6.4-3.37,8.39s-5.62,3-10.16,3c-3.68,0-6.28-.42-7.82-1.26a4.15,4.15,0,0,1-2.29-3.91c0-3.1,1.06-4.64,3.18-4.64a14.09,14.09,0,0,1,2.91.52,14.25,14.25,0,0,0,3,.52,6.63,6.63,0,0,0,3.13-.57,2.14,2.14,0,0,0,1-2q0-2.65-8.64-2.65c-1.6,0-2.65-.37-3.17-1.09s-.78-2.18-.78-4.36V7.93a3.62,3.62,0,0,1,1.17-3c.78-.65,2.16-1,4.12-1H43.41a3.92,3.92,0,0,1,2.94.85q.78.86.78,3.36a4.26,4.26,0,0,1-.63,2.64A2.56,2.56,0,0,1,44.37,11.63Z"/><path class="cls-2" d="M19.66,28.46q0,3.84-1.34,5.47a4.92,4.92,0,0,1-4.05,1.64A6.29,6.29,0,0,1,11.38,35,3.66,3.66,0,0,1,9.7,32.91a12.48,12.48,0,0,1-.62-4.07L9,11.16a7.17,7.17,0,0,1-3.63-.83A3,3,0,0,1,4,7.55,3.15,3.15,0,0,1,5.26,5,5.85,5.85,0,0,1,8.92,4l2.6,0,2.37,0c2.26,0,3.79.38,4.57,1.16s1.17,2.12,1.17,4.05Z"/><path class="cls-2" d="M44.37,11.63H34.94l-.1,3.08A23,23,0,0,1,43.26,16q4.83,2,4.82,8.53c0,3.61-1.13,6.4-3.37,8.39s-5.62,3-10.16,3c-3.68,0-6.28-.42-7.82-1.26a4.15,4.15,0,0,1-2.29-3.91c0-3.1,1.06-4.64,3.18-4.64a14.09,14.09,0,0,1,2.91.52,14.25,14.25,0,0,0,3,.52,6.63,6.63,0,0,0,3.13-.57,2.14,2.14,0,0,0,1-2q0-2.65-8.64-2.65c-1.6,0-2.65-.37-3.17-1.09s-.78-2.18-.78-4.36V7.93a3.62,3.62,0,0,1,1.17-3c.78-.65,2.16-1,4.12-1H43.41a3.92,3.92,0,0,1,2.94.85q.78.86.78,3.36a4.26,4.26,0,0,1-.63,2.64A2.56,2.56,0,0,1,44.37,11.63Z"/></g></g></svg>