<svg xmlns="http://www.w3.org/2000/svg" viewBox="0 0 45.62 28.82"><defs><style>.cls-1{fill:none;stroke:#7c439f;stroke-width:6.6px;}.cls-2{fill:#fff;}</style></defs><title>6l</title><g id="Layer_2" data-name="Layer 2"><g id="barra_lateral_derecha" data-name="barra lateral derecha"><path class="cls-1" d="M14.35,20.31a5.88,5.88,0,0,1-.94,3.74,3.54,3.54,0,0,1-2.85,1.11,4.58,4.58,0,0,1-2-.39,2.51,2.51,0,0,1-1.18-1.42,8.18,8.18,0,0,1-.43-2.78l0-12.06A5.13,5.13,0,0,1,4.3,7.94a2,2,0,0,1-1-1.89,2.12,2.12,0,0,1,.92-1.76,4.19,4.19,0,0,1,2.58-.7l1.82,0,1.67,0a4.77,4.77,0,0,1,3.22.79,3.79,3.79,0,0,1,.82,2.76Z"/><path class="cls-1" d="M17.32,23a2.13,2.13,0,0,1,.92-1.78,4.38,4.38,0,0,1,2.61-.67c2.35,0,3.52.81,3.52,2.45a2.36,2.36,0,0,1-.45,1.51,2.27,2.27,0,0,1-1.2.76,7.61,7.61,0,0,1-1.88.19,5,5,0,0,1-2.52-.58A2,2,0,0,1,17.32,23Z"/><path class="cls-1" d="M32,12.1a10.92,10.92,0,0,1,3.27-.52,8.18,8.18,0,0,1,3.65.79,6.27,6.27,0,0,1,2.54,2.2,5.64,5.64,0,0,1,.91,3.19,8.13,8.13,0,0,1-1,4.15,6.8,6.8,0,0,1-2.81,2.69,9.07,9.07,0,0,1-4.16.92A12.08,12.08,0,0,1,31,25.08a7.58,7.58,0,0,1-2.52-1.21,8.74,8.74,0,0,1-1.74-1.75,7.15,7.15,0,0,1-1.12-2.18,15.54,15.54,0,0,1-.74-4.77,16.88,16.88,0,0,1,.62-4.75A10.59,10.59,0,0,1,27.39,6.7a8.46,8.46,0,0,1,3.48-2.51A13.72,13.72,0,0,1,36,3.3,8,8,0,0,1,40.4,4.42a3.29,3.29,0,0,1,1.77,2.86,3,3,0,0,1-.7,2,2.24,2.24,0,0,1-1.86.86,5,5,0,0,1-1.73-.52,5.38,5.38,0,0,0-2.11-.51,3.85,3.85,0,0,0-2.46.87A3.55,3.55,0,0,0,32,12.1Zm3.74,6.14a6.53,6.53,0,0,0-.41-2.44q-.42-1.05-1.2-1.05c-.54,0-1,.35-1.28,1.07a6,6,0,0,0-.47,2.42,5.46,5.46,0,0,0,.45,2.28,1.41,1.41,0,0,0,1.28,1,1.33,1.33,0,0,0,1.23-1A6,6,0,0,0,35.69,18.24Z"/><path class="cls-2" d="M14.35,20.31a5.88,5.88,0,0,1-.94,3.74,3.54,3.54,0,0,1-2.85,1.11,4.58,4.58,0,0,1-2-.39,2.51,2.51,0,0,1-1.18-1.42,8.18,8.18,0,0,1-.43-2.78l0-12.06A5.13,5.13,0,0,1,4.3,7.94a2,2,0,0,1-1-1.89,2.12,2.12,0,0,1,.92-1.76,4.19,4.19,0,0,1,2.58-.7l1.82,0,1.67,0a4.77,4.77,0,0,1,3.22.79,3.79,3.79,0,0,1,.82,2.76Z"/><path class="cls-2" d="M17.32,23a2.13,2.13,0,0,1,.92-1.78,4.38,4.38,0,0,1,2.61-.67c2.35,0,3.52.81,3.52,2.45a2.36,2.36,0,0,1-.45,1.51,2.27,2.27,0,0,1-1.2.76,7.61,7.61,0,0,1-1.88.19,5,5,0,0,1-2.52-.58A2,2,0,0,1,17.32,23Z"/><path class="cls-2" d="M32,12.1a10.92,10.92,0,0,1,3.27-.52,8.18,8.18,0,0,1,3.65.79,6.27,6.27,0,0,1,2.54,2.2,5.64,5.64,0,0,1,.91,3.19,8.13,8.13,0,0,1-1,4.15,6.8,6.8,0,0,1-2.81,2.69,9.07,9.07,0,0,1-4.16.92A12.08,12.08,0,0,1,31,25.08a7.58,7.58,0,0,1-2.52-1.21,8.74,8.74,0,0,1-1.74-1.75,7.15,7.15,0,0,1-1.12-2.18,15.54,15.54,0,0,1-.74-4.77,16.88,16.88,0,0,1,.62-4.75A10.59,10.59,0,0,1,27.39,6.7a8.46,8.46,0,0,1,3.48-2.51A13.72,13.72,0,0,1,36,3.3,8,8,0,0,1,40.4,4.42a3.29,3.29,0,0,1,1.77,2.86,3,3,0,0,1-.7,2,2.24,2.24,0,0,1-1.86.86,5,5,0,0,1-1.73-.52,5.38,5.38,0,0,0-2.11-.51,3.85,3.85,0,0,0-2.46.87A3.55,3.55,0,0,0,32,12.1Zm3.74,6.14a6.53,6.53,0,0,0-.41-2.44q-.42-1.05-1.2-1.05c-.54,0-1,.35-1.28,1.07a6,6,0,0,0-.47,2.42,5.46,5.46,0,0,0,.45,2.28,1.41,1.41,0,0,0,1.28,1,1.33,1.33,0,0,0,1.23-1A6,6,0,0,0,35.69,18.24Z"/></g></g></svg>