<svg xmlns="http://www.w3.org/2000/svg" viewBox="0 0 63.39 40.47"><defs><style>.cls-1{fill:none;stroke:#fff;stroke-width:7.9px;}.cls-2{fill:#512573;}</style></defs><title>6lsi</title><g id="Layer_2" data-name="Layer 2"><g id="barra_lateral_derecha" data-name="barra lateral derecha"><path class="cls-1" d="M19.66,28.88q0,3.84-1.34,5.48A4.92,4.92,0,0,1,14.27,36a6.29,6.29,0,0,1-2.89-.57A3.66,3.66,0,0,1,9.7,33.34a12.5,12.5,0,0,1-.62-4.08L9,11.58a7.08,7.08,0,0,1-3.64-.83A2.94,2.94,0,0,1,4,8,3.15,3.15,0,0,1,5.26,5.4a5.85,5.85,0,0,1,3.66-1l2.6,0c1.12,0,1.91,0,2.37,0,2.26,0,3.79.39,4.57,1.17s1.17,2.12,1.17,4.05Z"/><path class="cls-1" d="M23.89,32.77a3.12,3.12,0,0,1,1.31-2.61,6,6,0,0,1,3.7-1q5,0,5,3.6A3.52,3.52,0,0,1,33.26,35a3.11,3.11,0,0,1-1.7,1.11,10.45,10.45,0,0,1-2.67.28,6.85,6.85,0,0,1-3.58-.85A2.94,2.94,0,0,1,23.89,32.77Z"/><path class="cls-1" d="M44.68,16.84a15.56,15.56,0,0,1,4.65-.75,11.26,11.26,0,0,1,5.19,1.16,8.89,8.89,0,0,1,3.61,3.22,8.54,8.54,0,0,1,1.31,4.67A12.3,12.3,0,0,1,58,31.23a9.79,9.79,0,0,1-4,3.94,12.45,12.45,0,0,1-5.91,1.35,16.81,16.81,0,0,1-4.76-.64,10.72,10.72,0,0,1-3.58-1.78,12.5,12.5,0,0,1-2.48-2.56,11,11,0,0,1-1.59-3.2,23.28,23.28,0,0,1-.8-3.49,23.54,23.54,0,0,1-.25-3.5,25.26,25.26,0,0,1,.88-7,15.77,15.77,0,0,1,2.72-5.45,11.93,11.93,0,0,1,4.94-3.68A18.88,18.88,0,0,1,50.49,4,11.22,11.22,0,0,1,56.7,5.59a4.85,4.85,0,0,1,2.52,4.19,4.51,4.51,0,0,1-1,2.87,3.18,3.18,0,0,1-2.65,1.25,7,7,0,0,1-2.46-.75,7.33,7.33,0,0,0-3-.76,5.65,5.65,0,0,0-5.43,4.45Zm5.33,9a10.06,10.06,0,0,0-.59-3.58c-.4-1-1-1.54-1.71-1.54s-1.37.52-1.81,1.56a8.93,8.93,0,0,0-.67,3.56,8.12,8.12,0,0,0,.64,3.34c.43,1,1,1.45,1.81,1.45a1.9,1.9,0,0,0,1.75-1.42A8.84,8.84,0,0,0,50,25.85Z"/><path class="cls-2" d="M19.66,28.88q0,3.84-1.34,5.48A4.92,4.92,0,0,1,14.27,36a6.29,6.29,0,0,1-2.89-.57A3.66,3.66,0,0,1,9.7,33.34a12.5,12.5,0,0,1-.62-4.08L9,11.58a7.08,7.08,0,0,1-3.64-.83A2.94,2.94,0,0,1,4,8,3.15,3.15,0,0,1,5.26,5.4a5.85,5.85,0,0,1,3.66-1l2.6,0c1.12,0,1.91,0,2.37,0,2.26,0,3.79.39,4.57,1.17s1.17,2.12,1.17,4.05Z"/><path class="cls-2" d="M23.89,32.77a3.12,3.12,0,0,1,1.31-2.61,6,6,0,0,1,3.7-1q5,0,5,3.6A3.52,3.52,0,0,1,33.26,35a3.11,3.11,0,0,1-1.7,1.11,10.45,10.45,0,0,1-2.67.28,6.85,6.85,0,0,1-3.58-.85A2.94,2.94,0,0,1,23.89,32.77Z"/><path class="cls-2" d="M44.68,16.84a15.56,15.56,0,0,1,4.65-.75,11.26,11.26,0,0,1,5.19,1.16,8.89,8.89,0,0,1,3.61,3.22,8.54,8.54,0,0,1,1.31,4.67A12.3,12.3,0,0,1,58,31.23a9.79,9.79,0,0,1-4,3.94,12.45,12.45,0,0,1-5.91,1.35,16.81,16.81,0,0,1-4.76-.64,10.72,10.72,0,0,1-3.58-1.78,12.5,12.5,0,0,1-2.48-2.56,11,11,0,0,1-1.59-3.2,23.28,23.28,0,0,1-.8-3.49,23.54,23.54,0,0,1-.25-3.5,25.26,25.26,0,0,1,.88-7,15.77,15.77,0,0,1,2.72-5.45,11.93,11.93,0,0,1,4.94-3.68A18.88,18.88,0,0,1,50.49,4,11.22,11.22,0,0,1,56.7,5.59a4.85,4.85,0,0,1,2.52,4.19,4.51,4.51,0,0,1-1,2.87,3.18,3.18,0,0,1-2.65,1.25,7,7,0,0,1-2.46-.75,7.33,7.33,0,0,0-3-.76,5.65,5.65,0,0,0-5.43,4.45Zm5.33,9a10.06,10.06,0,0,0-.59-3.58c-.4-1-1-1.54-1.71-1.54s-1.37.52-1.81,1.56a8.93,8.93,0,0,0-.67,3.56,8.12,8.12,0,0,0,.64,3.34c.43,1,1,1.45,1.81,1.45a1.9,1.9,0,0,0,1.75-1.42A8.84,8.84,0,0,0,50,25.85Z"/></g></g></svg>