<svg xmlns="http://www.w3.org/2000/svg" viewBox="0 0 38.22 28.82"><defs><style>.cls-1{fill:none;stroke:#7c439f;stroke-width:6.6px;}.cls-2{fill:#fff;}</style></defs><title>6n</title><g id="Layer_2" data-name="Layer 2"><g id="barra_lateral_derecha" data-name="barra lateral derecha"><path class="cls-1" d="M14.35,20.31a5.88,5.88,0,0,1-.94,3.74,3.54,3.54,0,0,1-2.85,1.11,4.58,4.58,0,0,1-2-.39,2.51,2.51,0,0,1-1.18-1.42,8.48,8.48,0,0,1-.43-2.78l0-12.06A5.13,5.13,0,0,1,4.3,7.94a2,2,0,0,1-1-1.89,2.12,2.12,0,0,1,.92-1.76,4.15,4.15,0,0,1,2.57-.7l1.83,0h1.67a4.76,4.76,0,0,1,3.22.8,3.78,3.78,0,0,1,.82,2.76Z"/><path class="cls-1" d="M24.54,12.1a10.92,10.92,0,0,1,3.27-.52,8.15,8.15,0,0,1,3.65.79A6.27,6.27,0,0,1,34,14.57a5.73,5.73,0,0,1,.92,3.19,8.13,8.13,0,0,1-1,4.15,6.77,6.77,0,0,1-2.82,2.69,9,9,0,0,1-4.16.92,12,12,0,0,1-3.34-.44,7.54,7.54,0,0,1-2.53-1.21,9,9,0,0,1-1.74-1.75,7.12,7.12,0,0,1-1.11-2.18,14.78,14.78,0,0,1-.74-4.77,16.52,16.52,0,0,1,.62-4.75A10.43,10.43,0,0,1,20,6.7a8.33,8.33,0,0,1,3.48-2.51,13.63,13.63,0,0,1,5.15-.89A8,8,0,0,1,33,4.42a3.27,3.27,0,0,1,1.77,2.86,3,3,0,0,1-.69,2,2.27,2.27,0,0,1-1.86.86,4.84,4.84,0,0,1-1.73-.52,5.43,5.43,0,0,0-2.12-.51,3.87,3.87,0,0,0-2.46.87A3.64,3.64,0,0,0,24.54,12.1Zm3.75,6.14a6.53,6.53,0,0,0-.42-2.44q-.42-1.05-1.2-1.05c-.54,0-1,.35-1.27,1.07a5.84,5.84,0,0,0-.47,2.42,5.16,5.16,0,0,0,.45,2.28,1.4,1.4,0,0,0,1.27,1,1.33,1.33,0,0,0,1.23-1A5.94,5.94,0,0,0,28.29,18.24Z"/><path class="cls-2" d="M14.35,20.31a5.88,5.88,0,0,1-.94,3.74,3.54,3.54,0,0,1-2.85,1.11,4.58,4.58,0,0,1-2-.39,2.51,2.51,0,0,1-1.18-1.42,8.48,8.48,0,0,1-.43-2.78l0-12.06A5.13,5.13,0,0,1,4.3,7.94a2,2,0,0,1-1-1.89,2.12,2.12,0,0,1,.92-1.76,4.15,4.15,0,0,1,2.57-.7l1.83,0h1.67a4.76,4.76,0,0,1,3.22.8,3.78,3.78,0,0,1,.82,2.76Z"/><path class="cls-2" d="M24.54,12.1a10.92,10.92,0,0,1,3.27-.52,8.15,8.15,0,0,1,3.65.79A6.27,6.27,0,0,1,34,14.57a5.73,5.73,0,0,1,.92,3.19,8.13,8.13,0,0,1-1,4.15,6.77,6.77,0,0,1-2.82,2.69,9,9,0,0,1-4.16.92,12,12,0,0,1-3.34-.44,7.54,7.54,0,0,1-2.53-1.21,9,9,0,0,1-1.74-1.75,7.12,7.12,0,0,1-1.11-2.18,14.78,14.78,0,0,1-.74-4.77,16.52,16.52,0,0,1,.62-4.75A10.43,10.43,0,0,1,20,6.7a8.33,8.33,0,0,1,3.48-2.51,13.63,13.63,0,0,1,5.15-.89A8,8,0,0,1,33,4.42a3.27,3.27,0,0,1,1.77,2.86,3,3,0,0,1-.69,2,2.27,2.27,0,0,1-1.86.86,4.84,4.84,0,0,1-1.73-.52,5.43,5.43,0,0,0-2.12-.51,3.87,3.87,0,0,0-2.46.87A3.64,3.64,0,0,0,24.54,12.1Zm3.75,6.14a6.53,6.53,0,0,0-.42-2.44q-.42-1.05-1.2-1.05c-.54,0-1,.35-1.27,1.07a5.84,5.84,0,0,0-.47,2.42,5.16,5.16,0,0,0,.45,2.28,1.4,1.4,0,0,0,1.27,1,1.33,1.33,0,0,0,1.23-1A5.94,5.94,0,0,0,28.29,18.24Z"/></g></g></svg>