<svg xmlns="http://www.w3.org/2000/svg" viewBox="0 0 52.86 40.47"><defs><style>.cls-1{fill:none;stroke:#fff;stroke-width:7.9px;}.cls-2{fill:#512573;}</style></defs><title>6sin</title><g id="Layer_2" data-name="Layer 2"><g id="barra_lateral_derecha" data-name="barra lateral derecha"><path class="cls-1" d="M19.66,28.88q0,3.84-1.34,5.48A4.92,4.92,0,0,1,14.27,36a6.29,6.29,0,0,1-2.89-.57A3.66,3.66,0,0,1,9.7,33.34a12.5,12.5,0,0,1-.62-4.08L9,11.58a7.07,7.07,0,0,1-3.63-.83A2.94,2.94,0,0,1,4,8,3.15,3.15,0,0,1,5.26,5.4a5.85,5.85,0,0,1,3.66-1l2.6,0c1.12,0,1.91,0,2.37,0,2.26,0,3.79.39,4.57,1.17s1.17,2.12,1.17,4.05Z"/><path class="cls-1" d="M34.15,16.84a15.56,15.56,0,0,1,4.65-.75A11.26,11.26,0,0,1,44,17.25a9,9,0,0,1,3.61,3.22,8.54,8.54,0,0,1,1.31,4.67,12.3,12.3,0,0,1-1.46,6.09,9.79,9.79,0,0,1-4,3.94,12.45,12.45,0,0,1-5.91,1.35,16.81,16.81,0,0,1-4.76-.64A10.62,10.62,0,0,1,29.2,34.1a12.82,12.82,0,0,1-2.49-2.56,11.25,11.25,0,0,1-1.58-3.2,23.44,23.44,0,0,1-.8-3.48,23.77,23.77,0,0,1-.25-3.51,25.26,25.26,0,0,1,.88-7,15.68,15.68,0,0,1,2.72-5.45,11.93,11.93,0,0,1,4.94-3.68A18.88,18.88,0,0,1,40,4a11.22,11.22,0,0,1,6.21,1.64,4.85,4.85,0,0,1,2.52,4.19,4.51,4.51,0,0,1-1,2.87,3.18,3.18,0,0,1-2.65,1.25,7,7,0,0,1-2.46-.75,7.33,7.33,0,0,0-3-.76,5.65,5.65,0,0,0-5.43,4.45Zm5.33,9a9.84,9.84,0,0,0-.6-3.58c-.39-1-1-1.54-1.7-1.54s-1.37.52-1.81,1.56a8.93,8.93,0,0,0-.67,3.56,8.12,8.12,0,0,0,.64,3.34c.43,1,1,1.45,1.81,1.45a1.9,1.9,0,0,0,1.75-1.42A8.84,8.84,0,0,0,39.48,25.85Z"/><path class="cls-2" d="M19.66,28.88q0,3.84-1.34,5.48A4.92,4.92,0,0,1,14.27,36a6.29,6.29,0,0,1-2.89-.57A3.66,3.66,0,0,1,9.7,33.34a12.5,12.5,0,0,1-.62-4.08L9,11.58a7.07,7.07,0,0,1-3.63-.83A2.94,2.94,0,0,1,4,8,3.15,3.15,0,0,1,5.26,5.4a5.85,5.85,0,0,1,3.66-1l2.6,0c1.12,0,1.91,0,2.37,0,2.26,0,3.79.39,4.57,1.17s1.17,2.12,1.17,4.05Z"/><path class="cls-2" d="M34.15,16.84a15.56,15.56,0,0,1,4.65-.75A11.26,11.26,0,0,1,44,17.25a9,9,0,0,1,3.61,3.22,8.54,8.54,0,0,1,1.31,4.67,12.3,12.3,0,0,1-1.46,6.09,9.79,9.79,0,0,1-4,3.94,12.45,12.45,0,0,1-5.91,1.35,16.81,16.81,0,0,1-4.76-.64A10.62,10.62,0,0,1,29.2,34.1a12.82,12.82,0,0,1-2.49-2.56,11.25,11.25,0,0,1-1.58-3.2,23.44,23.44,0,0,1-.8-3.48,23.77,23.77,0,0,1-.25-3.51,25.26,25.26,0,0,1,.88-7,15.68,15.68,0,0,1,2.72-5.45,11.93,11.93,0,0,1,4.94-3.68A18.88,18.88,0,0,1,40,4a11.22,11.22,0,0,1,6.21,1.64,4.85,4.85,0,0,1,2.52,4.19,4.51,4.51,0,0,1-1,2.87,3.18,3.18,0,0,1-2.65,1.25,7,7,0,0,1-2.46-.75,7.33,7.33,0,0,0-3-.76,5.65,5.65,0,0,0-5.43,4.45Zm5.33,9a9.84,9.84,0,0,0-.6-3.58c-.39-1-1-1.54-1.7-1.54s-1.37.52-1.81,1.56a8.93,8.93,0,0,0-.67,3.56,8.12,8.12,0,0,0,.64,3.34c.43,1,1,1.45,1.81,1.45a1.9,1.9,0,0,0,1.75-1.42A8.84,8.84,0,0,0,39.48,25.85Z"/></g></g></svg>