<svg xmlns="http://www.w3.org/2000/svg" viewBox="0 0 48.16 28.43"><defs><style>.cls-1{fill:#7c439f;}.cls-2{fill:#fff;}</style></defs><title>7l</title><g id="Layer_2" data-name="Layer 2"><g id="barra_lateral_derecha" data-name="barra lateral derecha"><path class="cls-1" d="M10.56,28.17A7.71,7.71,0,0,1,7,27.43a5.72,5.72,0,0,1-2.77-3.17,11.28,11.28,0,0,1-.66-3.92l0-9.4a6.6,6.6,0,0,1-.89-.42A5.28,5.28,0,0,1,0,5.75,5.43,5.43,0,0,1,2.24,1.36,7.38,7.38,0,0,1,6.79,0L8.66,0h1.63c1.59,0,3.9.18,5.5,1.71a6.86,6.86,0,0,1,1.84,5.15l0,13.13a8.76,8.76,0,0,1-1.72,5.86A6.7,6.7,0,0,1,10.56,28.17Zm-.23-6.61a3.45,3.45,0,0,0,.57,0A6.48,6.48,0,0,0,11.05,20L11,6.9a1.77,1.77,0,0,0,0-.24c-.21,0-.46,0-.87,0l.06,13.63A7.16,7.16,0,0,0,10.33,21.56Z"/><path class="cls-1" d="M20.84,28.43a8.21,8.21,0,0,1-4.17-1A5.29,5.29,0,0,1,14,22.67h0a5.41,5.41,0,0,1,2.27-4.44,7.56,7.56,0,0,1,4.56-1.32,7.73,7.73,0,0,1,4.53,1.21,5.37,5.37,0,0,1,2.29,4.55,5.56,5.56,0,0,1-1.18,3.57,5.5,5.5,0,0,1-2.94,1.89A10.78,10.78,0,0,1,20.84,28.43Z"/><path class="cls-1" d="M33.75,28.17a7,7,0,0,1-5-1.79,6.54,6.54,0,0,1-2-4.91,16.79,16.79,0,0,1,.66-4.5A24.93,24.93,0,0,1,29,12.9c.19-.39.37-.76.56-1.13a6,6,0,0,1-3.39-1.29A5.56,5.56,0,0,1,24.26,6c0-2.86,1.27-4.27,2.33-4.94a8.4,8.4,0,0,1,4.56-1l9.56,0a8.87,8.87,0,0,1,5.06,1.17c1.1.73,2.4,2.24,2.39,5.3q0,.33,0,.66a4.73,4.73,0,0,1-.26,1.23,4.62,4.62,0,0,1-.56,1.25,5.14,5.14,0,0,1-.74,1l-.13.14-.35.41c-.17.2-.31.34-.41.45a18.75,18.75,0,0,0-3.36,4.92,22.21,22.21,0,0,0-1.56,5.25c-.4,2.37-1.06,3.88-2.13,4.86A7,7,0,0,1,33.75,28.17Zm-.35-6.62a5,5,0,0,0,.68,0c.05-.21.11-.49.17-.86a29.37,29.37,0,0,1,2-6.79,25.34,25.34,0,0,1,4.56-6.75l.11-.11.17-.19.21-.25h-.58l-3.28,4.62c-.18.27-.55.83-1.13,1.83-.47.82-.95,1.73-1.42,2.71a17.39,17.39,0,0,0-1.09,3,10.35,10.35,0,0,0-.42,2.75h0Zm8-14.93v0Z"/><path class="cls-2" d="M14.35,20a5.83,5.83,0,0,1-.94,3.73,3.51,3.51,0,0,1-2.85,1.12,4.58,4.58,0,0,1-2-.39,2.55,2.55,0,0,1-1.18-1.42,8.23,8.23,0,0,1-.43-2.78l0-12.06A5.13,5.13,0,0,1,4.3,7.65a2,2,0,0,1-1-1.89A2.12,2.12,0,0,1,4.22,4a4.15,4.15,0,0,1,2.57-.7l1.83,0h1.67a4.79,4.79,0,0,1,3.21.79,3.77,3.77,0,0,1,.83,2.77Z"/><path class="cls-2" d="M17.32,22.67a2.12,2.12,0,0,1,.92-1.78,4.38,4.38,0,0,1,2.61-.68c2.35,0,3.52.82,3.52,2.46a2.31,2.31,0,0,1-.45,1.5,2.19,2.19,0,0,1-1.2.76,7.56,7.56,0,0,1-1.88.2,5.05,5.05,0,0,1-2.52-.58A2,2,0,0,1,17.32,22.67Z"/><path class="cls-2" d="M30.1,21.47a13.58,13.58,0,0,1,.54-3.62,21,21,0,0,1,1.3-3.52c.5-1.06,1-2,1.53-2.93s1-1.59,1.3-2.09l.55-.77H30.86A4.3,4.3,0,0,1,28.25,8a2.47,2.47,0,0,1-.69-2,2.41,2.41,0,0,1,.79-2.15,5.65,5.65,0,0,1,2.8-.5l9.58,0a6.09,6.09,0,0,1,3.21.61c.62.41.92,1.26.92,2.56,0,.13,0,.26,0,.39a1.54,1.54,0,0,1-.09.37,3.19,3.19,0,0,0-.09.31,1,1,0,0,1-.15.3,1.82,1.82,0,0,0-.16.28,1.61,1.61,0,0,1-.23.29l-.24.27c0,.06-.14.17-.29.34s-.26.29-.33.36a22.42,22.42,0,0,0-4,5.85,26.09,26.09,0,0,0-1.78,6,5.52,5.52,0,0,1-1.1,3,4,4,0,0,1-2.66.65A3.8,3.8,0,0,1,31,24,3.27,3.27,0,0,1,30.1,21.47Z"/></g></g></svg>