<svg xmlns="http://www.w3.org/2000/svg" viewBox="0 0 61.65 39.9"><defs><style>.cls-1{fill:none;stroke:#fff;stroke-width:7.9px;}.cls-2{fill:#512573;}</style></defs><title>7lsi</title><g id="Layer_2" data-name="Layer 2"><g id="barra_lateral_derecha" data-name="barra lateral derecha"><path class="cls-1" d="M19.66,28.46q0,3.84-1.34,5.47a4.92,4.92,0,0,1-4.05,1.64A6.29,6.29,0,0,1,11.38,35,3.63,3.63,0,0,1,9.7,32.91a12.48,12.48,0,0,1-.62-4.07L9,11.16a7.17,7.17,0,0,1-3.63-.83A3,3,0,0,1,4,7.55,3.15,3.15,0,0,1,5.26,5,5.85,5.85,0,0,1,8.92,4l2.6,0,2.37,0c2.26,0,3.79.39,4.57,1.16s1.17,2.13,1.17,4.05Z"/><path class="cls-1" d="M23.88,32.34a3.13,3.13,0,0,1,1.32-2.6,6,6,0,0,1,3.7-1q5,0,5,3.6a3.5,3.5,0,0,1-.65,2.21,3.11,3.11,0,0,1-1.7,1.11,10.4,10.4,0,0,1-2.67.29,6.85,6.85,0,0,1-3.58-.86A3,3,0,0,1,23.88,32.34Z"/><path class="cls-1" d="M36.72,30.59a20.54,20.54,0,0,1,.76-5.31,32.21,32.21,0,0,1,1.84-5.17q1.08-2.31,2.19-4.29c.74-1.31,1.35-2.33,1.84-3.05l.78-1.14H37.79a5.91,5.91,0,0,1-3.7-.85,3.67,3.67,0,0,1-1-2.9c0-1.61.38-2.66,1.13-3.15a7.76,7.76,0,0,1,4-.73L51.82,4a8.52,8.52,0,0,1,4.58.9c.87.6,1.3,1.85,1.3,3.75,0,.19,0,.37,0,.56a2,2,0,0,1-.12.55c-.06.17-.1.32-.14.45a1.42,1.42,0,0,1-.2.45A3.32,3.32,0,0,0,57,11a2.68,2.68,0,0,1-.32.43c-.17.19-.29.32-.35.4l-.41.5c-.22.25-.37.43-.46.52a32.68,32.68,0,0,0-5.67,8.58,38.59,38.59,0,0,0-2.53,8.82c-.37,2.27-.9,3.73-1.57,4.36s-1.93,1-3.77,1a5.27,5.27,0,0,1-3.86-1.31A4.84,4.84,0,0,1,36.72,30.59Z"/><path class="cls-2" d="M19.66,28.46q0,3.84-1.34,5.47a4.92,4.92,0,0,1-4.05,1.64A6.29,6.29,0,0,1,11.38,35,3.63,3.63,0,0,1,9.7,32.91a12.48,12.48,0,0,1-.62-4.07L9,11.16a7.17,7.17,0,0,1-3.63-.83A3,3,0,0,1,4,7.55,3.15,3.15,0,0,1,5.26,5,5.85,5.85,0,0,1,8.92,4l2.6,0,2.37,0c2.26,0,3.79.39,4.57,1.16s1.17,2.13,1.17,4.05Z"/><path class="cls-2" d="M23.88,32.34a3.13,3.13,0,0,1,1.32-2.6,6,6,0,0,1,3.7-1q5,0,5,3.6a3.5,3.5,0,0,1-.65,2.21,3.11,3.11,0,0,1-1.7,1.11,10.4,10.4,0,0,1-2.67.29,6.85,6.85,0,0,1-3.58-.86A3,3,0,0,1,23.88,32.34Z"/><path class="cls-2" d="M36.72,30.59a20.54,20.54,0,0,1,.76-5.31,32.21,32.21,0,0,1,1.84-5.17q1.08-2.31,2.19-4.29c.74-1.31,1.35-2.33,1.84-3.05l.78-1.14H37.79a5.91,5.91,0,0,1-3.7-.85,3.67,3.67,0,0,1-1-2.9c0-1.61.38-2.66,1.13-3.15a7.76,7.76,0,0,1,4-.73L51.82,4a8.52,8.52,0,0,1,4.58.9c.87.6,1.3,1.85,1.3,3.75,0,.19,0,.37,0,.56a2,2,0,0,1-.12.55c-.06.17-.1.32-.14.45a1.42,1.42,0,0,1-.2.45A3.32,3.32,0,0,0,57,11a2.68,2.68,0,0,1-.32.43c-.17.19-.29.32-.35.4l-.41.5c-.22.25-.37.43-.46.52a32.68,32.68,0,0,0-5.67,8.58,38.59,38.59,0,0,0-2.53,8.82c-.37,2.27-.9,3.73-1.57,4.36s-1.93,1-3.77,1a5.27,5.27,0,0,1-3.86-1.31A4.84,4.84,0,0,1,36.72,30.59Z"/></g></g></svg>