<svg xmlns="http://www.w3.org/2000/svg" viewBox="0 0 37.9 28.17"><defs><style>.cls-1{fill:none;stroke:#7c439f;stroke-width:6.6px;}.cls-2{fill:#fff;}</style></defs><title>7n</title><g id="Layer_2" data-name="Layer 2"><g id="barra_lateral_derecha" data-name="barra lateral derecha"><path class="cls-1" d="M14.35,20a5.88,5.88,0,0,1-.94,3.74,3.54,3.54,0,0,1-2.85,1.11,4.58,4.58,0,0,1-2-.39,2.55,2.55,0,0,1-1.18-1.42,8.23,8.23,0,0,1-.43-2.78l0-12.06A5.13,5.13,0,0,1,4.3,7.65a2,2,0,0,1-1-1.89A2.12,2.12,0,0,1,4.22,4,4.19,4.19,0,0,1,6.8,3.3l1.82,0h1.67a4.76,4.76,0,0,1,3.22.8,3.78,3.78,0,0,1,.82,2.76Z"/><path class="cls-1" d="M19.84,21.48a13.6,13.6,0,0,1,.54-3.63,21,21,0,0,1,1.3-3.52c.5-1.06,1-2,1.54-2.93s1-1.59,1.29-2.08l.55-.78H20.6A4.19,4.19,0,0,1,18,8a2.44,2.44,0,0,1-.7-2,2.39,2.39,0,0,1,.8-2.15,5.63,5.63,0,0,1,2.79-.5l9.58,0a6.19,6.19,0,0,1,3.21.61,2.87,2.87,0,0,1,.92,2.56c0,.13,0,.26,0,.39a1.53,1.53,0,0,1-.08.37,1.82,1.82,0,0,0-.1.31.93.93,0,0,1-.15.3c-.07.12-.13.21-.16.28a1.61,1.61,0,0,1-.23.29l-.24.27c0,.06-.14.17-.29.34s-.26.3-.32.36a22.23,22.23,0,0,0-4,5.85,26.09,26.09,0,0,0-1.78,6,5.52,5.52,0,0,1-1.1,3,4,4,0,0,1-2.65.65A3.81,3.81,0,0,1,20.78,24,3.3,3.3,0,0,1,19.84,21.48Z"/><path class="cls-2" d="M14.35,20a5.88,5.88,0,0,1-.94,3.74,3.54,3.54,0,0,1-2.85,1.11,4.58,4.58,0,0,1-2-.39,2.55,2.55,0,0,1-1.18-1.42,8.23,8.23,0,0,1-.43-2.78l0-12.06A5.13,5.13,0,0,1,4.3,7.65a2,2,0,0,1-1-1.89A2.12,2.12,0,0,1,4.22,4,4.19,4.19,0,0,1,6.8,3.3l1.82,0h1.67a4.76,4.76,0,0,1,3.22.8,3.78,3.78,0,0,1,.82,2.76Z"/><path class="cls-2" d="M19.84,21.48a13.6,13.6,0,0,1,.54-3.63,21,21,0,0,1,1.3-3.52c.5-1.06,1-2,1.54-2.93s1-1.59,1.29-2.08l.55-.78H20.6A4.19,4.19,0,0,1,18,8a2.44,2.44,0,0,1-.7-2,2.39,2.39,0,0,1,.8-2.15,5.63,5.63,0,0,1,2.79-.5l9.58,0a6.19,6.19,0,0,1,3.21.61,2.87,2.87,0,0,1,.92,2.56c0,.13,0,.26,0,.39a1.53,1.53,0,0,1-.08.37,1.82,1.82,0,0,0-.1.31.93.93,0,0,1-.15.3c-.07.12-.13.21-.16.28a1.61,1.61,0,0,1-.23.29l-.24.27c0,.06-.14.17-.29.34s-.26.3-.32.36a22.23,22.23,0,0,0-4,5.85,26.09,26.09,0,0,0-1.78,6,5.52,5.52,0,0,1-1.1,3,4,4,0,0,1-2.65.65A3.81,3.81,0,0,1,20.78,24,3.3,3.3,0,0,1,19.84,21.48Z"/></g></g></svg>