<svg xmlns="http://www.w3.org/2000/svg" viewBox="0 0 52.41 39.52"><defs><style>.cls-1{fill:none;stroke:#fff;stroke-width:7.9px;}.cls-2{fill:#512573;}</style></defs><title>7sin</title><g id="Layer_2" data-name="Layer 2"><g id="barra_lateral_derecha" data-name="barra lateral derecha"><path class="cls-1" d="M19.66,28.46q0,3.84-1.34,5.47a4.92,4.92,0,0,1-4.05,1.64A6.29,6.29,0,0,1,11.38,35,3.63,3.63,0,0,1,9.7,32.91a12.48,12.48,0,0,1-.62-4.07L9,11.16a7.17,7.17,0,0,1-3.63-.83A3,3,0,0,1,4,7.55,3.15,3.15,0,0,1,5.26,5,5.85,5.85,0,0,1,8.92,4l2.6,0,2.37,0c2.26,0,3.79.39,4.57,1.16s1.17,2.13,1.17,4.05Z"/><path class="cls-1" d="M27.47,30.59a20.58,20.58,0,0,1,.77-5.31,31.27,31.27,0,0,1,1.84-5.17q1.08-2.31,2.19-4.29c.73-1.31,1.35-2.33,1.84-3.05l.78-1.14H28.55c-1.81,0-3.05-.29-3.7-.85a3.67,3.67,0,0,1-1-2.9c0-1.61.38-2.66,1.13-3.15A7.76,7.76,0,0,1,29,4L42.58,4a8.48,8.48,0,0,1,4.57.9c.88.6,1.31,1.85,1.31,3.75,0,.19,0,.37,0,.56a2.44,2.44,0,0,1-.12.55,4.39,4.39,0,0,0-.14.45,1.69,1.69,0,0,1-.2.45,3.32,3.32,0,0,0-.23.4,2.34,2.34,0,0,1-.33.43l-.34.4c-.06.08-.2.25-.42.5s-.37.43-.46.52a32.62,32.62,0,0,0-5.66,8.58A39.12,39.12,0,0,0,38,30.26c-.37,2.27-.89,3.73-1.56,4.36s-1.94,1-3.78,1a5.31,5.31,0,0,1-3.86-1.31A4.87,4.87,0,0,1,27.47,30.59Z"/><path class="cls-2" d="M19.66,28.46q0,3.84-1.34,5.47a4.92,4.92,0,0,1-4.05,1.64A6.29,6.29,0,0,1,11.38,35,3.63,3.63,0,0,1,9.7,32.91a12.48,12.48,0,0,1-.62-4.07L9,11.16a7.17,7.17,0,0,1-3.63-.83A3,3,0,0,1,4,7.55,3.15,3.15,0,0,1,5.26,5,5.85,5.85,0,0,1,8.92,4l2.6,0,2.37,0c2.26,0,3.79.39,4.57,1.16s1.17,2.13,1.17,4.05Z"/><path class="cls-2" d="M27.47,30.59a20.58,20.58,0,0,1,.77-5.31,31.27,31.27,0,0,1,1.84-5.17q1.08-2.31,2.19-4.29c.73-1.31,1.35-2.33,1.84-3.05l.78-1.14H28.55c-1.81,0-3.05-.29-3.7-.85a3.67,3.67,0,0,1-1-2.9c0-1.61.38-2.66,1.13-3.15A7.76,7.76,0,0,1,29,4L42.58,4a8.48,8.48,0,0,1,4.57.9c.88.6,1.31,1.85,1.31,3.75,0,.19,0,.37,0,.56a2.44,2.44,0,0,1-.12.55,4.39,4.39,0,0,0-.14.45,1.69,1.69,0,0,1-.2.45,3.32,3.32,0,0,0-.23.4,2.34,2.34,0,0,1-.33.43l-.34.4c-.06.08-.2.25-.42.5s-.37.43-.46.52a32.62,32.62,0,0,0-5.66,8.58A39.12,39.12,0,0,0,38,30.26c-.37,2.27-.89,3.73-1.56,4.36s-1.94,1-3.78,1a5.31,5.31,0,0,1-3.86-1.31A4.87,4.87,0,0,1,27.47,30.59Z"/></g></g></svg>