<svg xmlns="http://www.w3.org/2000/svg" viewBox="0 0 47.53 28.5"><defs><style>.cls-1{fill:none;stroke:#7c439f;stroke-width:6.6px;}.cls-2{fill:#fff;}</style></defs><title>8l</title><g id="Layer_2" data-name="Layer 2"><g id="barra_lateral_derecha" data-name="barra lateral derecha"><path class="cls-1" d="M14.35,20.09a5.85,5.85,0,0,1-.94,3.73,3.54,3.54,0,0,1-2.85,1.12,4.58,4.58,0,0,1-2-.39,2.55,2.55,0,0,1-1.18-1.42,8.25,8.25,0,0,1-.43-2.79L6.85,8.28A5.23,5.23,0,0,1,4.3,7.72a2,2,0,0,1-1-1.9,2.12,2.12,0,0,1,.92-1.76,4.22,4.22,0,0,1,2.57-.69H8.62l1.67,0c1.59,0,2.67.26,3.21.79A3.76,3.76,0,0,1,14.33,7Z"/><path class="cls-1" d="M17.32,22.74A2.11,2.11,0,0,1,18.24,21a4.38,4.38,0,0,1,2.61-.68c2.35,0,3.52.82,3.52,2.46a2.35,2.35,0,0,1-.45,1.5,2.21,2.21,0,0,1-1.2.76,7.56,7.56,0,0,1-1.88.2,5,5,0,0,1-2.52-.59A2,2,0,0,1,17.32,22.74Z"/><path class="cls-1" d="M35.36,25.16a13.37,13.37,0,0,1-4.48-.71,7.2,7.2,0,0,1-3.19-2.15,5,5,0,0,1-1.21-3.38,5.62,5.62,0,0,1,3.27-5.24,5.07,5.07,0,0,1-2.2-4.3,5.26,5.26,0,0,1,2.2-4.45A9.26,9.26,0,0,1,35.41,3.3a9.19,9.19,0,0,1,5.65,1.63,5.27,5.27,0,0,1,2.18,4.45A5.1,5.1,0,0,1,41,13.68a5.66,5.66,0,0,1,3.2,5.24,5.23,5.23,0,0,1-2.51,4.58A11.26,11.26,0,0,1,35.36,25.16ZM37,18.86a5.46,5.46,0,0,0-.42-2.22,1.31,1.31,0,0,0-1.2-1,1.4,1.4,0,0,0-1.26,1,5.15,5.15,0,0,0-.45,2.2,6.43,6.43,0,0,0,.17,1.47,3,3,0,0,0,.58,1.16,1.24,1.24,0,0,0,1,.47A1.3,1.3,0,0,0,36.61,21,5.4,5.4,0,0,0,37,18.86ZM37,9.09a3.66,3.66,0,0,0-.4-1.76,1.23,1.23,0,0,0-1.12-.76,1.16,1.16,0,0,0-.89.42A2.75,2.75,0,0,0,34,8a4.59,4.59,0,0,0-.17,1.3,3.94,3.94,0,0,0,.41,1.9,1.3,1.3,0,0,0,1.18.81,1.24,1.24,0,0,0,1.15-.87A5,5,0,0,0,37,9.09Z"/><path class="cls-2" d="M14.35,20.09a5.85,5.85,0,0,1-.94,3.73,3.54,3.54,0,0,1-2.85,1.12,4.58,4.58,0,0,1-2-.39,2.55,2.55,0,0,1-1.18-1.42,8.25,8.25,0,0,1-.43-2.79L6.85,8.28A5.23,5.23,0,0,1,4.3,7.72a2,2,0,0,1-1-1.9,2.12,2.12,0,0,1,.92-1.76,4.22,4.22,0,0,1,2.57-.69H8.62l1.67,0c1.59,0,2.67.26,3.21.79A3.76,3.76,0,0,1,14.33,7Z"/><path class="cls-2" d="M17.32,22.74A2.11,2.11,0,0,1,18.24,21a4.38,4.38,0,0,1,2.61-.68c2.35,0,3.52.82,3.52,2.46a2.35,2.35,0,0,1-.45,1.5,2.21,2.21,0,0,1-1.2.76,7.56,7.56,0,0,1-1.88.2,5,5,0,0,1-2.52-.59A2,2,0,0,1,17.32,22.74Z"/><path class="cls-2" d="M35.36,25.16a13.37,13.37,0,0,1-4.48-.71,7.2,7.2,0,0,1-3.19-2.15,5,5,0,0,1-1.21-3.38,5.62,5.62,0,0,1,3.27-5.24,5.07,5.07,0,0,1-2.2-4.3,5.26,5.26,0,0,1,2.2-4.45A9.26,9.26,0,0,1,35.41,3.3a9.19,9.19,0,0,1,5.65,1.63,5.27,5.27,0,0,1,2.18,4.45A5.1,5.1,0,0,1,41,13.68a5.66,5.66,0,0,1,3.2,5.24,5.23,5.23,0,0,1-2.51,4.58A11.26,11.26,0,0,1,35.36,25.16ZM37,18.86a5.46,5.46,0,0,0-.42-2.22,1.31,1.31,0,0,0-1.2-1,1.4,1.4,0,0,0-1.26,1,5.15,5.15,0,0,0-.45,2.2,6.43,6.43,0,0,0,.17,1.47,3,3,0,0,0,.58,1.16,1.24,1.24,0,0,0,1,.47A1.3,1.3,0,0,0,36.61,21,5.4,5.4,0,0,0,37,18.86ZM37,9.09a3.66,3.66,0,0,0-.4-1.76,1.23,1.23,0,0,0-1.12-.76,1.16,1.16,0,0,0-.89.42A2.75,2.75,0,0,0,34,8a4.59,4.59,0,0,0-.17,1.3,3.94,3.94,0,0,0,.41,1.9,1.3,1.3,0,0,0,1.18.81,1.24,1.24,0,0,0,1.15-.87A5,5,0,0,0,37,9.09Z"/></g></g></svg>