<svg xmlns="http://www.w3.org/2000/svg" viewBox="0 0 66.1 39.99"><defs><style>.cls-1{fill:none;stroke:#fff;stroke-width:7.9px;}.cls-2{fill:#512573;}</style></defs><title>8lsi</title><g id="Layer_2" data-name="Layer 2"><g id="barra_lateral_derecha" data-name="barra lateral derecha"><path class="cls-1" d="M19.66,28.55q0,3.84-1.34,5.48a4.92,4.92,0,0,1-4.05,1.63,6.29,6.29,0,0,1-2.89-.57A3.6,3.6,0,0,1,9.7,33a12.5,12.5,0,0,1-.62-4.08L9,11.25a7.17,7.17,0,0,1-3.63-.83A3,3,0,0,1,4,7.65,3.17,3.17,0,0,1,5.26,5.06a5.92,5.92,0,0,1,3.66-1c.61,0,1.48,0,2.6,0s1.91,0,2.37,0c2.26,0,3.79.39,4.57,1.16s1.17,2.13,1.17,4.06Z"/><path class="cls-1" d="M23.88,32.44a3.16,3.16,0,0,1,1.32-2.61,6,6,0,0,1,3.7-1q5,0,5,3.6a3.47,3.47,0,0,1-.65,2.2,3.07,3.07,0,0,1-1.7,1.12,10.45,10.45,0,0,1-2.67.28,6.85,6.85,0,0,1-3.58-.85A3,3,0,0,1,23.88,32.44Z"/><path class="cls-1" d="M49.54,36a18.23,18.23,0,0,1-6.37-1,10.31,10.31,0,0,1-4.55-3.15,7.59,7.59,0,0,1-1.72-4.95,8.28,8.28,0,0,1,4.65-7.68,7.53,7.53,0,0,1-3.12-6.31,7.79,7.79,0,0,1,3.13-6.52,12.92,12.92,0,0,1,8-2.39,12.77,12.77,0,0,1,8,2.39,7.77,7.77,0,0,1,3.1,6.52,7.51,7.51,0,0,1-3.13,6.31,8.35,8.35,0,0,1,4.55,7.68,7.73,7.73,0,0,1-3.57,6.7A15.64,15.64,0,0,1,49.54,36Zm2.35-9.24a8.41,8.41,0,0,0-.59-3.25c-.4-.93-1-1.39-1.7-1.39a2,2,0,0,0-1.8,1.42,7.71,7.71,0,0,0-.64,3.22,8.88,8.88,0,0,0,.25,2.16,4.15,4.15,0,0,0,.82,1.7,1.74,1.74,0,0,0,1.36.69A1.85,1.85,0,0,0,51.31,30,8,8,0,0,0,51.89,26.75Zm-.08-14.31a5.64,5.64,0,0,0-.57-2.59,1.75,1.75,0,0,0-1.58-1.11,1.6,1.6,0,0,0-1.27.61,4.06,4.06,0,0,0-.78,1.52,6.92,6.92,0,0,0-.26,1.9,6.1,6.1,0,0,0,.6,2.79,1.83,1.83,0,0,0,1.68,1.19,1.78,1.78,0,0,0,1.63-1.28A7.56,7.56,0,0,0,51.81,12.44Z"/><path class="cls-2" d="M19.66,28.55q0,3.84-1.34,5.48a4.92,4.92,0,0,1-4.05,1.63,6.29,6.29,0,0,1-2.89-.57A3.6,3.6,0,0,1,9.7,33a12.5,12.5,0,0,1-.62-4.08L9,11.25a7.17,7.17,0,0,1-3.63-.83A3,3,0,0,1,4,7.65,3.17,3.17,0,0,1,5.26,5.06a5.92,5.92,0,0,1,3.66-1c.61,0,1.48,0,2.6,0s1.91,0,2.37,0c2.26,0,3.79.39,4.57,1.16s1.17,2.13,1.17,4.06Z"/><path class="cls-2" d="M23.88,32.44a3.16,3.16,0,0,1,1.32-2.61,6,6,0,0,1,3.7-1q5,0,5,3.6a3.47,3.47,0,0,1-.65,2.2,3.07,3.07,0,0,1-1.7,1.12,10.45,10.45,0,0,1-2.67.28,6.85,6.85,0,0,1-3.58-.85A3,3,0,0,1,23.88,32.44Z"/><path class="cls-2" d="M49.54,36a18.23,18.23,0,0,1-6.37-1,10.31,10.31,0,0,1-4.55-3.15,7.59,7.59,0,0,1-1.72-4.95,8.28,8.28,0,0,1,4.65-7.68,7.53,7.53,0,0,1-3.12-6.31,7.79,7.79,0,0,1,3.13-6.52,12.92,12.92,0,0,1,8-2.39,12.77,12.77,0,0,1,8,2.39,7.77,7.77,0,0,1,3.1,6.52,7.51,7.51,0,0,1-3.13,6.31,8.35,8.35,0,0,1,4.55,7.68,7.73,7.73,0,0,1-3.57,6.7A15.64,15.64,0,0,1,49.54,36Zm2.35-9.24a8.41,8.41,0,0,0-.59-3.25c-.4-.93-1-1.39-1.7-1.39a2,2,0,0,0-1.8,1.42,7.71,7.71,0,0,0-.64,3.22,8.88,8.88,0,0,0,.25,2.16,4.15,4.15,0,0,0,.82,1.7,1.74,1.74,0,0,0,1.36.69A1.85,1.85,0,0,0,51.31,30,8,8,0,0,0,51.89,26.75Zm-.08-14.31a5.64,5.64,0,0,0-.57-2.59,1.75,1.75,0,0,0-1.58-1.11,1.6,1.6,0,0,0-1.27.61,4.06,4.06,0,0,0-.78,1.52,6.92,6.92,0,0,0-.26,1.9,6.1,6.1,0,0,0,.6,2.79,1.83,1.83,0,0,0,1.68,1.19,1.78,1.78,0,0,0,1.63-1.28A7.56,7.56,0,0,0,51.81,12.44Z"/></g></g></svg>