<svg xmlns="http://www.w3.org/2000/svg" viewBox="0 0 38.38 28.46"><defs><style>.cls-1{fill:none;stroke:#7c439f;stroke-linejoin:round;stroke-width:6.6px;}.cls-2{fill:#fff;}</style></defs><title>8n</title><g id="Layer_2" data-name="Layer 2"><g id="barra_lateral_derecha" data-name="barra lateral derecha"><path class="cls-1" d="M14.35,20.09a5.85,5.85,0,0,1-.94,3.73,3.54,3.54,0,0,1-2.85,1.12,4.58,4.58,0,0,1-2-.39,2.55,2.55,0,0,1-1.18-1.42,8.25,8.25,0,0,1-.43-2.79L6.85,8.28A5.23,5.23,0,0,1,4.3,7.72a2,2,0,0,1-1-1.9,2.12,2.12,0,0,1,.92-1.76,4.22,4.22,0,0,1,2.57-.69H8.62l1.67,0c1.59,0,2.67.26,3.21.79A3.76,3.76,0,0,1,14.33,7Z"/><path class="cls-1" d="M26.21,25.16a13.12,13.12,0,0,1-4.48-.71,7.29,7.29,0,0,1-3.2-2.15,5.13,5.13,0,0,1-1.21-3.38,5.65,5.65,0,0,1,3.27-5.24,5.09,5.09,0,0,1-2.19-4.3,5.25,5.25,0,0,1,2.2-4.45A9.33,9.33,0,0,1,26.26,3.3,9.14,9.14,0,0,1,31.9,4.93a5.22,5.22,0,0,1,2.18,4.45,5.07,5.07,0,0,1-2.2,4.3,5.68,5.68,0,0,1,3.2,5.24,5.23,5.23,0,0,1-2.51,4.58A11.26,11.26,0,0,1,26.21,25.16Zm1.66-6.3a5.46,5.46,0,0,0-.42-2.22,1.31,1.31,0,0,0-1.2-1,1.39,1.39,0,0,0-1.26,1,5.15,5.15,0,0,0-.45,2.2,5.92,5.92,0,0,0,.17,1.47,2.82,2.82,0,0,0,.58,1.16,1.24,1.24,0,0,0,1,.47A1.3,1.3,0,0,0,27.46,21,5.4,5.4,0,0,0,27.87,18.86Zm-.06-9.77a3.66,3.66,0,0,0-.4-1.76,1.23,1.23,0,0,0-1.12-.76A1.16,1.16,0,0,0,25.4,7a2.61,2.61,0,0,0-.55,1,4.59,4.59,0,0,0-.18,1.3,4.06,4.06,0,0,0,.42,1.9,1.29,1.29,0,0,0,1.18.81,1.24,1.24,0,0,0,1.15-.87A5,5,0,0,0,27.81,9.09Z"/><path class="cls-2" d="M14.35,20.09a5.85,5.85,0,0,1-.94,3.73,3.54,3.54,0,0,1-2.85,1.12,4.58,4.58,0,0,1-2-.39,2.55,2.55,0,0,1-1.18-1.42,8.25,8.25,0,0,1-.43-2.79L6.85,8.28A5.23,5.23,0,0,1,4.3,7.72a2,2,0,0,1-1-1.9,2.12,2.12,0,0,1,.92-1.76,4.22,4.22,0,0,1,2.57-.69H8.62l1.67,0c1.59,0,2.67.26,3.21.79A3.76,3.76,0,0,1,14.33,7Z"/><path class="cls-2" d="M26.21,25.16a13.12,13.12,0,0,1-4.48-.71,7.29,7.29,0,0,1-3.2-2.15,5.13,5.13,0,0,1-1.21-3.38,5.65,5.65,0,0,1,3.27-5.24,5.09,5.09,0,0,1-2.19-4.3,5.25,5.25,0,0,1,2.2-4.45A9.33,9.33,0,0,1,26.26,3.3,9.14,9.14,0,0,1,31.9,4.93a5.22,5.22,0,0,1,2.18,4.45,5.07,5.07,0,0,1-2.2,4.3,5.68,5.68,0,0,1,3.2,5.24,5.23,5.23,0,0,1-2.51,4.58A11.26,11.26,0,0,1,26.21,25.16Zm1.66-6.3a5.46,5.46,0,0,0-.42-2.22,1.31,1.31,0,0,0-1.2-1,1.39,1.39,0,0,0-1.26,1,5.15,5.15,0,0,0-.45,2.2,5.92,5.92,0,0,0,.17,1.47,2.82,2.82,0,0,0,.58,1.16,1.24,1.24,0,0,0,1,.47A1.3,1.3,0,0,0,27.46,21,5.4,5.4,0,0,0,27.87,18.86Zm-.06-9.77a3.66,3.66,0,0,0-.4-1.76,1.23,1.23,0,0,0-1.12-.76A1.16,1.16,0,0,0,25.4,7a2.61,2.61,0,0,0-.55,1,4.59,4.59,0,0,0-.18,1.3,4.06,4.06,0,0,0,.42,1.9,1.29,1.29,0,0,0,1.18.81,1.24,1.24,0,0,0,1.15-.87A5,5,0,0,0,27.81,9.09Z"/></g></g></svg>