<?xml version="1.0" encoding="utf-8"?>
<!-- Generator: Adobe Illustrator 24.0.2, SVG Export Plug-In . SVG Version: 6.00 Build 0)  -->
<svg version="1.1" id="Layer_1" xmlns="http://www.w3.org/2000/svg" xmlns:xlink="http://www.w3.org/1999/xlink" x="0px" y="0px"
	 viewBox="0 0 38.4 28.5" style="enable-background:new 0 0 38.4 28.5;" xml:space="preserve">
<style type="text/css">
	.st0{fill:none;stroke:#7C439F;stroke-width:6.6;stroke-linejoin:round;}
	.st1{fill:#FFFFFF;}
	.st2{fill:#7C439F;}
</style>
<title>8n</title>
<g id="Layer_2_1_">
	<g id="barra_lateral_derecha">
		<path class="st0" d="M14.4,20.1c0.1,1.3-0.2,2.6-0.9,3.7c-0.7,0.8-1.8,1.2-2.8,1.1c-0.7,0-1.4-0.1-2-0.4c-0.6-0.3-1-0.8-1.2-1.4
			c-0.3-0.9-0.4-1.8-0.4-2.8L6.8,8.3C6,8.3,5.1,8.1,4.3,7.7c-0.7-0.4-1.1-1.1-1-1.9c0-0.7,0.3-1.4,0.9-1.8C5,3.6,5.9,3.3,6.8,3.4
			h1.8h1.7c1.6,0,2.7,0.3,3.2,0.8C14.2,5,14.5,6,14.3,7L14.4,20.1z"/>
		<path class="st0" d="M26.2,25.2c-1.5,0-3-0.2-4.5-0.7c-1.2-0.4-2.3-1.2-3.2-2.1c-0.8-0.9-1.2-2.1-1.2-3.4c0-2.2,1.2-4.3,3.3-5.2
			c-1.4-1-2.2-2.6-2.2-4.3c-0.1-1.8,0.8-3.4,2.2-4.4c1.7-1.1,3.6-1.7,5.7-1.6c2-0.1,4,0.5,5.6,1.6c1.4,1,2.2,2.7,2.2,4.4
			c0,1.7-0.8,3.3-2.2,4.3c2,1,3.3,3,3.2,5.2c0,1.9-0.9,3.6-2.5,4.6C30.7,24.7,28.4,25.3,26.2,25.2z M27.9,18.9
			c0-0.8-0.1-1.5-0.4-2.2c-0.1-0.6-0.6-1-1.2-1c-0.6,0-1.1,0.4-1.3,1c-0.3,0.7-0.5,1.4-0.5,2.2c0,0.5,0.1,1,0.2,1.5
			c0.1,0.4,0.3,0.8,0.6,1.2c0.2,0.3,0.6,0.5,1,0.5c0.5,0,1-0.4,1.2-0.9C27.7,20.3,27.9,19.6,27.9,18.9z M27.8,9.1
			c0-0.6-0.1-1.2-0.4-1.8c-0.2-0.5-0.6-0.8-1.1-0.8c-0.3,0-0.7,0.2-0.9,0.4c-0.3,0.3-0.4,0.6-0.5,1c-0.1,0.4-0.2,0.9-0.2,1.3
			c0,0.7,0.1,1.3,0.4,1.9c0.2,0.5,0.7,0.8,1.2,0.8c0.5,0,1-0.4,1.1-0.9C27.7,10.5,27.8,9.8,27.8,9.1z"/>
		<path class="st1" d="M14.4,20.1c0.1,1.3-0.2,2.6-0.9,3.7c-0.7,0.8-1.8,1.2-2.8,1.1c-0.7,0-1.4-0.1-2-0.4c-0.6-0.3-1-0.8-1.2-1.4
			c-0.3-0.9-0.4-1.8-0.4-2.8L6.8,8.3C6,8.3,5.1,8.1,4.3,7.7c-0.7-0.4-1.1-1.1-1-1.9c0-0.7,0.3-1.4,0.9-1.8C5,3.6,5.9,3.3,6.8,3.4
			h1.8h1.7c1.6,0,2.7,0.3,3.2,0.8C14.2,5,14.5,6,14.3,7L14.4,20.1z"/>
		<path class="st1" d="M26.2,25.2c-1.5,0-3-0.2-4.5-0.7c-1.2-0.4-2.3-1.2-3.2-2.1c-0.8-0.9-1.2-2.1-1.2-3.4c0-2.2,1.2-4.3,3.3-5.2
			c-1.4-1-2.2-2.6-2.2-4.3c-0.1-1.8,0.8-3.4,2.2-4.4c1.7-1.1,3.6-1.7,5.7-1.6c2-0.1,4,0.5,5.6,1.6c1.4,1,2.2,2.7,2.2,4.4
			c0,1.7-0.8,3.3-2.2,4.3c2,1,3.3,3,3.2,5.2c0,1.9-0.9,3.6-2.5,4.6C30.7,24.7,28.4,25.3,26.2,25.2z M27.9,18.9
			c0-0.8-0.1-1.5-0.4-2.2c-0.1-0.6-0.6-1-1.2-1c-0.6,0-1.1,0.4-1.3,1c-0.3,0.7-0.5,1.4-0.5,2.2c0,0.5,0.1,1,0.2,1.5
			c0.1,0.4,0.3,0.8,0.6,1.2c0.2,0.3,0.6,0.5,1,0.5c0.5,0,1-0.4,1.2-0.9C27.7,20.3,27.9,19.6,27.9,18.9z M27.8,9.1
			c0-0.6-0.1-1.2-0.4-1.8c-0.2-0.5-0.6-0.8-1.1-0.8c-0.3,0-0.7,0.2-0.9,0.4c-0.3,0.3-0.4,0.6-0.5,1c-0.1,0.4-0.2,0.9-0.2,1.3
			c0,0.7,0.1,1.3,0.4,1.9c0.2,0.5,0.7,0.8,1.2,0.8c0.5,0,1-0.4,1.1-0.9C27.7,10.5,27.8,9.8,27.8,9.1z"/>
	</g>
</g>
<polygon class="st2" points="25.8,7.6 25.3,9.3 25.6,11.2 27,10.8 27,8.6 "/>
<polygon class="st2" points="25.9,16.6 25.2,18.6 25.5,20.9 27.3,20.4 27.3,17.8 "/>
</svg>
