<svg xmlns="http://www.w3.org/2000/svg" viewBox="0 0 53.08 39.94"><defs><style>.cls-1{fill:none;stroke:#fff;stroke-linecap:round;stroke-linejoin:round;stroke-width:7.9px;}.cls-2{fill:#512573;}</style></defs><title>8sin</title><g id="Layer_2" data-name="Layer 2"><g id="barra_lateral_derecha" data-name="barra lateral derecha"><path class="cls-1" d="M19.66,28.55q0,3.84-1.34,5.48a4.92,4.92,0,0,1-4.05,1.63,6.29,6.29,0,0,1-2.89-.57A3.6,3.6,0,0,1,9.7,33a12.5,12.5,0,0,1-.62-4.08L9,11.25a7.17,7.17,0,0,1-3.63-.83A3,3,0,0,1,4,7.65,3.17,3.17,0,0,1,5.26,5.06a5.92,5.92,0,0,1,3.66-1c.61,0,1.48,0,2.6,0s1.91,0,2.37,0c2.26,0,3.79.39,4.57,1.16s1.17,2.13,1.17,4.06Z"/><path class="cls-1" d="M36.53,36a18.19,18.19,0,0,1-6.37-1,10.26,10.26,0,0,1-4.55-3.15,7.59,7.59,0,0,1-1.72-4.95,8.25,8.25,0,0,1,4.65-7.68,7.53,7.53,0,0,1-3.12-6.31,7.77,7.77,0,0,1,3.13-6.52A12.92,12.92,0,0,1,36.6,4a12.79,12.79,0,0,1,8,2.39,7.79,7.79,0,0,1,3.1,6.52,7.53,7.53,0,0,1-3.13,6.31,8.32,8.32,0,0,1,4.54,7.68,7.69,7.69,0,0,1-3.57,6.7A15.61,15.61,0,0,1,36.53,36Zm2.35-9.24a8.41,8.41,0,0,0-.59-3.25c-.4-.93-1-1.39-1.7-1.39a2,2,0,0,0-1.8,1.42,7.72,7.72,0,0,0-.65,3.22,9.4,9.4,0,0,0,.25,2.16,4.17,4.17,0,0,0,.83,1.7,1.72,1.72,0,0,0,1.36.69A1.86,1.86,0,0,0,38.3,30,8,8,0,0,0,38.88,26.75ZM38.8,12.44a5.64,5.64,0,0,0-.57-2.59,1.76,1.76,0,0,0-1.59-1.11,1.6,1.6,0,0,0-1.26.61,3.93,3.93,0,0,0-.79,1.52,6.92,6.92,0,0,0-.25,1.9,6.1,6.1,0,0,0,.6,2.79,1.83,1.83,0,0,0,1.67,1.19,1.78,1.78,0,0,0,1.64-1.28A7.56,7.56,0,0,0,38.8,12.44Z"/><path class="cls-2" d="M19.66,28.55q0,3.84-1.34,5.48a4.92,4.92,0,0,1-4.05,1.63,6.29,6.29,0,0,1-2.89-.57A3.6,3.6,0,0,1,9.7,33a12.5,12.5,0,0,1-.62-4.08L9,11.25a7.17,7.17,0,0,1-3.63-.83A3,3,0,0,1,4,7.65,3.17,3.17,0,0,1,5.26,5.06a5.92,5.92,0,0,1,3.66-1c.61,0,1.48,0,2.6,0s1.91,0,2.37,0c2.26,0,3.79.39,4.57,1.16s1.17,2.13,1.17,4.06Z"/><path class="cls-2" d="M36.53,36a18.19,18.19,0,0,1-6.37-1,10.26,10.26,0,0,1-4.55-3.15,7.59,7.59,0,0,1-1.72-4.95,8.25,8.25,0,0,1,4.65-7.68,7.53,7.53,0,0,1-3.12-6.31,7.77,7.77,0,0,1,3.13-6.52A12.92,12.92,0,0,1,36.6,4a12.79,12.79,0,0,1,8,2.39,7.79,7.79,0,0,1,3.1,6.52,7.53,7.53,0,0,1-3.13,6.31,8.32,8.32,0,0,1,4.54,7.68,7.69,7.69,0,0,1-3.57,6.7A15.61,15.61,0,0,1,36.53,36Zm2.35-9.24a8.41,8.41,0,0,0-.59-3.25c-.4-.93-1-1.39-1.7-1.39a2,2,0,0,0-1.8,1.42,7.72,7.72,0,0,0-.65,3.22,9.4,9.4,0,0,0,.25,2.16,4.17,4.17,0,0,0,.83,1.7,1.72,1.72,0,0,0,1.36.69A1.86,1.86,0,0,0,38.3,30,8,8,0,0,0,38.88,26.75ZM38.8,12.44a5.64,5.64,0,0,0-.57-2.59,1.76,1.76,0,0,0-1.59-1.11,1.6,1.6,0,0,0-1.26.61,3.93,3.93,0,0,0-.79,1.52,6.92,6.92,0,0,0-.25,1.9,6.1,6.1,0,0,0,.6,2.79,1.83,1.83,0,0,0,1.67,1.19,1.78,1.78,0,0,0,1.64-1.28A7.56,7.56,0,0,0,38.8,12.44Z"/></g></g></svg>