<svg xmlns="http://www.w3.org/2000/svg" viewBox="0 0 47.37 28.75"><defs><style>.cls-1,.cls-2,.cls-3{fill:none;}.cls-1{stroke:#7c439f;stroke-width:6.6px;}.cls-1,.cls-3{stroke-linejoin:round;}.cls-3{stroke:#2794da;stroke-linecap:round;stroke-width:0.25px;}.cls-4{fill:#fff;}</style></defs><title>9l</title><g id="Layer_2" data-name="Layer 2"><g id="barra_lateral_derecha" data-name="barra lateral derecha"><path class="cls-1" d="M14.35,20.28A5.83,5.83,0,0,1,13.41,24a3.51,3.51,0,0,1-2.85,1.12,4.58,4.58,0,0,1-2-.39,2.55,2.55,0,0,1-1.18-1.42,8.23,8.23,0,0,1-.43-2.78L6.85,8.47A5.12,5.12,0,0,1,4.3,7.91,2,2,0,0,1,3.3,6a2.16,2.16,0,0,1,.92-1.77,4.22,4.22,0,0,1,2.57-.69c.44,0,1,0,1.83,0h1.67a4.79,4.79,0,0,1,3.21.79,3.76,3.76,0,0,1,.83,2.77Z"/><path class="cls-1" d="M17.32,22.93a2.12,2.12,0,0,1,.92-1.78,4.38,4.38,0,0,1,2.61-.68c2.35,0,3.52.82,3.52,2.46a2.31,2.31,0,0,1-.45,1.5,2.15,2.15,0,0,1-1.2.76,7.56,7.56,0,0,1-1.88.2,5.05,5.05,0,0,1-2.52-.58A2,2,0,0,1,17.32,22.93Z"/><path class="cls-1" d="M37,16.88a10.88,10.88,0,0,1-3.24.52,7.07,7.07,0,0,1-5.11-1.94,6.56,6.56,0,0,1-2-4.92,7.33,7.33,0,0,1,1-3.88,6.42,6.42,0,0,1,2.8-2.5,9.53,9.53,0,0,1,4.15-.86A10.88,10.88,0,0,1,38.49,4a7.66,7.66,0,0,1,2.74,1.72,8.56,8.56,0,0,1,1.7,2.5,11.66,11.66,0,0,1,.9,2.9,18.38,18.38,0,0,1,.24,3,17.12,17.12,0,0,1-.37,3.7,10.82,10.82,0,0,1-1.2,3.13,8.78,8.78,0,0,1-2.07,2.42,8.92,8.92,0,0,1-3.08,1.55,14.17,14.17,0,0,1-4.12.55,8.16,8.16,0,0,1-4.4-1.1,3.24,3.24,0,0,1-1.77-2.84,3,3,0,0,1,.71-2,2.26,2.26,0,0,1,1.84-.87,4.55,4.55,0,0,1,1.75.62,4.77,4.77,0,0,0,2.13.61A3.21,3.21,0,0,0,35,19.5a3.63,3.63,0,0,0,1.26-1.08A3.7,3.7,0,0,0,37,16.88Zm-3.91-6.14a6.53,6.53,0,0,0,.42,2.44c.28.7.67,1.05,1.19,1.05a1.15,1.15,0,0,0,.92-.53,3.62,3.62,0,0,0,.6-1.33,6.8,6.8,0,0,0,.2-1.63,6,6,0,0,0-.45-2.4c-.3-.68-.72-1-1.26-1s-1,.33-1.22,1A6.51,6.51,0,0,0,33.05,10.74Z"/><path class="cls-2" d="M14.35,20.28A5.83,5.83,0,0,1,13.41,24a3.51,3.51,0,0,1-2.85,1.12,4.58,4.58,0,0,1-2-.39,2.55,2.55,0,0,1-1.18-1.42,8.23,8.23,0,0,1-.43-2.78L6.85,8.47A5.12,5.12,0,0,1,4.3,7.91,2,2,0,0,1,3.3,6a2.16,2.16,0,0,1,.92-1.77,4.22,4.22,0,0,1,2.57-.69c.44,0,1,0,1.83,0h1.67a4.79,4.79,0,0,1,3.21.79,3.76,3.76,0,0,1,.83,2.77Z"/><path class="cls-2" d="M17.32,22.93a2.12,2.12,0,0,1,.92-1.78,4.38,4.38,0,0,1,2.61-.68c2.35,0,3.52.82,3.52,2.46a2.31,2.31,0,0,1-.45,1.5,2.15,2.15,0,0,1-1.2.76,7.56,7.56,0,0,1-1.88.2,5.05,5.05,0,0,1-2.52-.58A2,2,0,0,1,17.32,22.93Z"/><path class="cls-3" d="M37,16.88a10.88,10.88,0,0,1-3.24.52,7.07,7.07,0,0,1-5.11-1.94,6.56,6.56,0,0,1-2-4.92,7.33,7.33,0,0,1,1-3.88,6.42,6.42,0,0,1,2.8-2.5,9.53,9.53,0,0,1,4.15-.86A10.88,10.88,0,0,1,38.49,4a7.66,7.66,0,0,1,2.74,1.72,8.56,8.56,0,0,1,1.7,2.5,11.66,11.66,0,0,1,.9,2.9,18.38,18.38,0,0,1,.24,3,17.12,17.12,0,0,1-.37,3.7,10.82,10.82,0,0,1-1.2,3.13,8.78,8.78,0,0,1-2.07,2.42,8.92,8.92,0,0,1-3.08,1.55,14.17,14.17,0,0,1-4.12.55,8.16,8.16,0,0,1-4.4-1.1,3.24,3.24,0,0,1-1.77-2.84,3,3,0,0,1,.71-2,2.26,2.26,0,0,1,1.84-.87,4.55,4.55,0,0,1,1.75.62,4.77,4.77,0,0,0,2.13.61A3.21,3.21,0,0,0,35,19.5a3.63,3.63,0,0,0,1.26-1.08A3.7,3.7,0,0,0,37,16.88Zm-3.91-6.14a6.53,6.53,0,0,0,.42,2.44c.28.7.67,1.05,1.19,1.05a1.15,1.15,0,0,0,.92-.53,3.62,3.62,0,0,0,.6-1.33,6.8,6.8,0,0,0,.2-1.63,6,6,0,0,0-.45-2.4c-.3-.68-.72-1-1.26-1s-1,.33-1.22,1A6.51,6.51,0,0,0,33.05,10.74Z"/><path class="cls-4" d="M14.35,20.28A5.83,5.83,0,0,1,13.41,24a3.51,3.51,0,0,1-2.85,1.12,4.58,4.58,0,0,1-2-.39,2.55,2.55,0,0,1-1.18-1.42,8.23,8.23,0,0,1-.43-2.78L6.85,8.47A5.12,5.12,0,0,1,4.3,7.91,2,2,0,0,1,3.3,6a2.16,2.16,0,0,1,.92-1.77,4.22,4.22,0,0,1,2.57-.69c.44,0,1,0,1.83,0h1.67a4.79,4.79,0,0,1,3.21.79,3.76,3.76,0,0,1,.83,2.77Z"/><path class="cls-4" d="M17.32,22.93a2.12,2.12,0,0,1,.92-1.78,4.38,4.38,0,0,1,2.61-.68c2.35,0,3.52.82,3.52,2.46a2.31,2.31,0,0,1-.45,1.5,2.15,2.15,0,0,1-1.2.76,7.56,7.56,0,0,1-1.88.2,5.05,5.05,0,0,1-2.52-.58A2,2,0,0,1,17.32,22.93Z"/><path class="cls-4" d="M37,16.88a10.88,10.88,0,0,1-3.24.52,7.07,7.07,0,0,1-5.11-1.94,6.56,6.56,0,0,1-2-4.92,7.33,7.33,0,0,1,1-3.88,6.42,6.42,0,0,1,2.8-2.5,9.53,9.53,0,0,1,4.15-.86A10.88,10.88,0,0,1,38.49,4a7.66,7.66,0,0,1,2.74,1.72,8.56,8.56,0,0,1,1.7,2.5,11.66,11.66,0,0,1,.9,2.9,18.38,18.38,0,0,1,.24,3,17.12,17.12,0,0,1-.37,3.7,10.82,10.82,0,0,1-1.2,3.13,8.78,8.78,0,0,1-2.07,2.42,8.92,8.92,0,0,1-3.08,1.55,14.17,14.17,0,0,1-4.12.55,8.16,8.16,0,0,1-4.4-1.1,3.24,3.24,0,0,1-1.77-2.84,3,3,0,0,1,.71-2,2.26,2.26,0,0,1,1.84-.87,4.55,4.55,0,0,1,1.75.62,4.77,4.77,0,0,0,2.13.61A3.21,3.21,0,0,0,35,19.5a3.63,3.63,0,0,0,1.26-1.08A3.7,3.7,0,0,0,37,16.88Zm-3.91-6.14a6.53,6.53,0,0,0,.42,2.44c.28.7.67,1.05,1.19,1.05a1.15,1.15,0,0,0,.92-.53,3.62,3.62,0,0,0,.6-1.33,6.8,6.8,0,0,0,.2-1.63,6,6,0,0,0-.45-2.4c-.3-.68-.72-1-1.26-1s-1,.33-1.22,1A6.51,6.51,0,0,0,33.05,10.74Z"/></g></g></svg>