<svg xmlns="http://www.w3.org/2000/svg" viewBox="0 0 65.87 40.37"><defs><style>.cls-1{fill:none;stroke:#fff;stroke-linecap:round;stroke-linejoin:round;stroke-width:7.9px;}.cls-2{fill:#512573;}</style></defs><title>9lsi</title><g id="Layer_2" data-name="Layer 2"><g id="barra_lateral_derecha" data-name="barra lateral derecha"><path class="cls-1" d="M19.66,28.84q0,3.84-1.34,5.47A4.92,4.92,0,0,1,14.27,36a6.29,6.29,0,0,1-2.89-.57A3.66,3.66,0,0,1,9.7,33.29a12.48,12.48,0,0,1-.62-4.07L9,11.54a7.17,7.17,0,0,1-3.63-.83A3,3,0,0,1,4,7.93,3.15,3.15,0,0,1,5.26,5.35a5.85,5.85,0,0,1,3.66-1l2.6,0,2.37,0c2.26,0,3.79.38,4.57,1.16s1.17,2.12,1.17,4.05Z"/><path class="cls-1" d="M23.88,32.72a3.13,3.13,0,0,1,1.32-2.6,6,6,0,0,1,3.7-1q5,0,5,3.6a3.5,3.5,0,0,1-.65,2.21A3.11,3.11,0,0,1,31.56,36a10.4,10.4,0,0,1-2.67.29,6.85,6.85,0,0,1-3.58-.86A3,3,0,0,1,23.88,32.72Z"/><path class="cls-1" d="M51.8,23.86a15,15,0,0,1-4.59.76,9.84,9.84,0,0,1-7.27-2.85,9.68,9.68,0,0,1-2.84-7.2,11,11,0,0,1,1.43-5.69,9.23,9.23,0,0,1,4-3.67A13.18,13.18,0,0,1,48.42,4a14.87,14.87,0,0,1,5.56,1,11,11,0,0,1,3.91,2.51,12.82,12.82,0,0,1,2.41,3.68,17.27,17.27,0,0,1,1.28,4.24,27.45,27.45,0,0,1,.34,4.43,26.32,26.32,0,0,1-.53,5.43,15.75,15.75,0,0,1-1.71,4.57,12.45,12.45,0,0,1-2.94,3.56,12.66,12.66,0,0,1-4.37,2.28,20,20,0,0,1-5.87.8,11.45,11.45,0,0,1-6.25-1.61,4.81,4.81,0,0,1-2.52-4.17,4.54,4.54,0,0,1,1-2.89,3.18,3.18,0,0,1,2.62-1.28,6.35,6.35,0,0,1,2.49.9,6.61,6.61,0,0,0,3,.9A4.47,4.47,0,0,0,49,27.7a5.26,5.26,0,0,0,1.8-1.59A5.49,5.49,0,0,0,51.8,23.86Zm-5.55-9a9.81,9.81,0,0,0,.59,3.58c.4,1,1,1.54,1.7,1.54a1.62,1.62,0,0,0,1.31-.78,5.32,5.32,0,0,0,.86-1.94,10.64,10.64,0,0,0,.27-2.4,8.79,8.79,0,0,0-.64-3.51c-.42-1-1-1.51-1.79-1.51s-1.34.49-1.72,1.47A9.6,9.6,0,0,0,46.25,14.85Z"/><path class="cls-2" d="M19.66,28.84q0,3.84-1.34,5.47A4.92,4.92,0,0,1,14.27,36a6.29,6.29,0,0,1-2.89-.57A3.66,3.66,0,0,1,9.7,33.29a12.48,12.48,0,0,1-.62-4.07L9,11.54a7.17,7.17,0,0,1-3.63-.83A3,3,0,0,1,4,7.93,3.15,3.15,0,0,1,5.26,5.35a5.85,5.85,0,0,1,3.66-1l2.6,0,2.37,0c2.26,0,3.79.38,4.57,1.16s1.17,2.12,1.17,4.05Z"/><path class="cls-2" d="M23.88,32.72a3.13,3.13,0,0,1,1.32-2.6,6,6,0,0,1,3.7-1q5,0,5,3.6a3.5,3.5,0,0,1-.65,2.21A3.11,3.11,0,0,1,31.56,36a10.4,10.4,0,0,1-2.67.29,6.85,6.85,0,0,1-3.58-.86A3,3,0,0,1,23.88,32.72Z"/><path class="cls-2" d="M51.8,23.86a15,15,0,0,1-4.59.76,9.84,9.84,0,0,1-7.27-2.85,9.68,9.68,0,0,1-2.84-7.2,11,11,0,0,1,1.43-5.69,9.23,9.23,0,0,1,4-3.67A13.18,13.18,0,0,1,48.42,4a14.87,14.87,0,0,1,5.56,1,11,11,0,0,1,3.91,2.51,12.82,12.82,0,0,1,2.41,3.68,17.27,17.27,0,0,1,1.28,4.24,27.45,27.45,0,0,1,.34,4.43,26.32,26.32,0,0,1-.53,5.43,15.75,15.75,0,0,1-1.71,4.57,12.45,12.45,0,0,1-2.94,3.56,12.66,12.66,0,0,1-4.37,2.28,20,20,0,0,1-5.87.8,11.45,11.45,0,0,1-6.25-1.61,4.81,4.81,0,0,1-2.52-4.17,4.54,4.54,0,0,1,1-2.89,3.18,3.18,0,0,1,2.62-1.28,6.35,6.35,0,0,1,2.49.9,6.61,6.61,0,0,0,3,.9A4.47,4.47,0,0,0,49,27.7a5.26,5.26,0,0,0,1.8-1.59A5.49,5.49,0,0,0,51.8,23.86Zm-5.55-9a9.81,9.81,0,0,0,.59,3.58c.4,1,1,1.54,1.7,1.54a1.62,1.62,0,0,0,1.31-.78,5.32,5.32,0,0,0,.86-1.94,10.64,10.64,0,0,0,.27-2.4,8.79,8.79,0,0,0-.64-3.51c-.42-1-1-1.51-1.79-1.51s-1.34.49-1.72,1.47A9.6,9.6,0,0,0,46.25,14.85Z"/></g></g></svg>