<svg xmlns="http://www.w3.org/2000/svg" viewBox="0 0 38.22 28.75"><defs><style>.cls-1{fill:none;stroke:#7c439f;stroke-linejoin:round;stroke-width:6.6px;}.cls-2{fill:#fff;}</style></defs><title>9n</title><g id="Layer_2" data-name="Layer 2"><g id="barra_lateral_derecha" data-name="barra lateral derecha"><path class="cls-1" d="M14.35,20.28A5.83,5.83,0,0,1,13.41,24a3.51,3.51,0,0,1-2.85,1.12,4.58,4.58,0,0,1-2-.39,2.55,2.55,0,0,1-1.18-1.42,8.48,8.48,0,0,1-.43-2.78l0-12.07A5.14,5.14,0,0,1,4.3,7.91,2,2,0,0,1,3.3,6a2.16,2.16,0,0,1,.92-1.77A4.25,4.25,0,0,1,6.8,3.56c.43,0,1,0,1.82,0h1.67a4.82,4.82,0,0,1,3.22.79,3.8,3.8,0,0,1,.82,2.77Z"/><path class="cls-1" d="M27.8,16.88a10.82,10.82,0,0,1-3.23.52,7.07,7.07,0,0,1-5.11-1.94,6.56,6.56,0,0,1-2-4.92,7.33,7.33,0,0,1,1-3.88,6.42,6.42,0,0,1,2.8-2.5,9.53,9.53,0,0,1,4.15-.86A10.88,10.88,0,0,1,29.34,4a7.66,7.66,0,0,1,2.74,1.72,8.56,8.56,0,0,1,1.7,2.5,11.66,11.66,0,0,1,.9,2.9,18.38,18.38,0,0,1,.24,3,17.77,17.77,0,0,1-.37,3.7,10.82,10.82,0,0,1-1.2,3.13,8.78,8.78,0,0,1-2.07,2.42A8.92,8.92,0,0,1,28.2,24.9a14.17,14.17,0,0,1-4.12.55,8.16,8.16,0,0,1-4.4-1.1,3.27,3.27,0,0,1-1.78-2.84,3.07,3.07,0,0,1,.72-2,2.25,2.25,0,0,1,1.84-.88,4.55,4.55,0,0,1,1.75.62,4.77,4.77,0,0,0,2.13.61,3.21,3.21,0,0,0,1.52-.39,3.63,3.63,0,0,0,1.26-1.08A3.56,3.56,0,0,0,27.8,16.88Zm-3.9-6.14a6.74,6.74,0,0,0,.41,2.44q.42,1.05,1.2,1.05a1.17,1.17,0,0,0,.92-.53,3.62,3.62,0,0,0,.6-1.33,6.8,6.8,0,0,0,.2-1.63,6,6,0,0,0-.45-2.4c-.3-.68-.72-1-1.26-1a1.33,1.33,0,0,0-1.22,1A6.51,6.51,0,0,0,23.9,10.74Z"/><path class="cls-2" d="M14.35,20.28A5.83,5.83,0,0,1,13.41,24a3.51,3.51,0,0,1-2.85,1.12,4.58,4.58,0,0,1-2-.39,2.55,2.55,0,0,1-1.18-1.42,8.48,8.48,0,0,1-.43-2.78l0-12.07A5.14,5.14,0,0,1,4.3,7.91,2,2,0,0,1,3.3,6a2.16,2.16,0,0,1,.92-1.77A4.25,4.25,0,0,1,6.8,3.56c.43,0,1,0,1.82,0h1.67a4.82,4.82,0,0,1,3.22.79,3.8,3.8,0,0,1,.82,2.77Z"/><path class="cls-2" d="M27.8,16.88a10.82,10.82,0,0,1-3.23.52,7.07,7.07,0,0,1-5.11-1.94,6.56,6.56,0,0,1-2-4.92,7.33,7.33,0,0,1,1-3.88,6.42,6.42,0,0,1,2.8-2.5,9.53,9.53,0,0,1,4.15-.86A10.88,10.88,0,0,1,29.34,4a7.66,7.66,0,0,1,2.74,1.72,8.56,8.56,0,0,1,1.7,2.5,11.66,11.66,0,0,1,.9,2.9,18.38,18.38,0,0,1,.24,3,17.77,17.77,0,0,1-.37,3.7,10.82,10.82,0,0,1-1.2,3.13,8.78,8.78,0,0,1-2.07,2.42A8.92,8.92,0,0,1,28.2,24.9a14.17,14.17,0,0,1-4.12.55,8.16,8.16,0,0,1-4.4-1.1,3.27,3.27,0,0,1-1.78-2.84,3.07,3.07,0,0,1,.72-2,2.25,2.25,0,0,1,1.84-.88,4.55,4.55,0,0,1,1.75.62,4.77,4.77,0,0,0,2.13.61,3.21,3.21,0,0,0,1.52-.39,3.63,3.63,0,0,0,1.26-1.08A3.56,3.56,0,0,0,27.8,16.88Zm-3.9-6.14a6.74,6.74,0,0,0,.41,2.44q.42,1.05,1.2,1.05a1.17,1.17,0,0,0,.92-.53,3.62,3.62,0,0,0,.6-1.33,6.8,6.8,0,0,0,.2-1.63,6,6,0,0,0-.45-2.4c-.3-.68-.72-1-1.26-1a1.33,1.33,0,0,0-1.22,1A6.51,6.51,0,0,0,23.9,10.74Z"/></g></g></svg>