<svg xmlns="http://www.w3.org/2000/svg" viewBox="0 0 52.86 40.37"><defs><style>.cls-1{fill:none;stroke:#fff;stroke-linecap:round;stroke-linejoin:round;stroke-width:7.9px;}.cls-2{fill:#512573;}</style></defs><title>9sin</title><g id="Layer_2" data-name="Layer 2"><g id="barra_lateral_derecha" data-name="barra lateral derecha"><path class="cls-1" d="M19.66,28.84q0,3.84-1.34,5.47A4.92,4.92,0,0,1,14.27,36a6.29,6.29,0,0,1-2.89-.57A3.66,3.66,0,0,1,9.7,33.29a12.48,12.48,0,0,1-.62-4.07L9,11.54a7.17,7.17,0,0,1-3.63-.83A3,3,0,0,1,4,7.93,3.15,3.15,0,0,1,5.26,5.35a5.85,5.85,0,0,1,3.66-1l2.6,0,2.37,0c2.26,0,3.79.38,4.57,1.16s1.17,2.12,1.17,4.05Z"/><path class="cls-1" d="M38.79,23.86a15.06,15.06,0,0,1-4.6.76,9.83,9.83,0,0,1-7.26-2.85,9.73,9.73,0,0,1-2.85-7.2,11.1,11.1,0,0,1,1.43-5.69,9.26,9.26,0,0,1,4-3.67A13.18,13.18,0,0,1,35.41,4a14.9,14.9,0,0,1,5.56,1,11.13,11.13,0,0,1,3.91,2.51,13,13,0,0,1,2.41,3.68,17.71,17.71,0,0,1,1.28,4.24,27.45,27.45,0,0,1,.34,4.43,26.32,26.32,0,0,1-.53,5.43,16,16,0,0,1-1.71,4.57,12.45,12.45,0,0,1-2.94,3.56,12.75,12.75,0,0,1-4.37,2.28,20.08,20.08,0,0,1-5.87.8,11.43,11.43,0,0,1-6.25-1.61,4.79,4.79,0,0,1-2.53-4.17,4.5,4.5,0,0,1,1-2.89,3.17,3.17,0,0,1,2.62-1.28,6.27,6.27,0,0,1,2.48.9,6.68,6.68,0,0,0,3,.9A4.53,4.53,0,0,0,36,27.7a5.32,5.32,0,0,0,1.79-1.59A5.51,5.51,0,0,0,38.79,23.86Zm-5.56-9a9.8,9.8,0,0,0,.6,3.58c.4,1,1,1.54,1.7,1.54a1.62,1.62,0,0,0,1.31-.78,5.31,5.31,0,0,0,.85-1.94,10.1,10.1,0,0,0,.28-2.4,8.88,8.88,0,0,0-.64-3.5c-.43-1-1-1.52-1.79-1.52s-1.34.49-1.73,1.47A10,10,0,0,0,33.23,14.85Z"/><path class="cls-2" d="M19.66,28.84q0,3.84-1.34,5.47A4.92,4.92,0,0,1,14.27,36a6.29,6.29,0,0,1-2.89-.57A3.66,3.66,0,0,1,9.7,33.29a12.48,12.48,0,0,1-.62-4.07L9,11.54a7.17,7.17,0,0,1-3.63-.83A3,3,0,0,1,4,7.93,3.15,3.15,0,0,1,5.26,5.35a5.85,5.85,0,0,1,3.66-1l2.6,0,2.37,0c2.26,0,3.79.38,4.57,1.16s1.17,2.12,1.17,4.05Z"/><path class="cls-2" d="M38.79,23.86a15.06,15.06,0,0,1-4.6.76,9.83,9.83,0,0,1-7.26-2.85,9.73,9.73,0,0,1-2.85-7.2,11.1,11.1,0,0,1,1.43-5.69,9.26,9.26,0,0,1,4-3.67A13.18,13.18,0,0,1,35.41,4a14.9,14.9,0,0,1,5.56,1,11.13,11.13,0,0,1,3.91,2.51,13,13,0,0,1,2.41,3.68,17.71,17.71,0,0,1,1.28,4.24,27.45,27.45,0,0,1,.34,4.43,26.32,26.32,0,0,1-.53,5.43,16,16,0,0,1-1.71,4.57,12.45,12.45,0,0,1-2.94,3.56,12.75,12.75,0,0,1-4.37,2.28,20.08,20.08,0,0,1-5.87.8,11.43,11.43,0,0,1-6.25-1.61,4.79,4.79,0,0,1-2.53-4.17,4.5,4.5,0,0,1,1-2.89,3.17,3.17,0,0,1,2.62-1.28,6.27,6.27,0,0,1,2.48.9,6.68,6.68,0,0,0,3,.9A4.53,4.53,0,0,0,36,27.7a5.32,5.32,0,0,0,1.79-1.59A5.51,5.51,0,0,0,38.79,23.86Zm-5.56-9a9.8,9.8,0,0,0,.6,3.58c.4,1,1,1.54,1.7,1.54a1.62,1.62,0,0,0,1.31-.78,5.31,5.31,0,0,0,.85-1.94,10.1,10.1,0,0,0,.28-2.4,8.88,8.88,0,0,0-.64-3.5c-.43-1-1-1.52-1.79-1.52s-1.34.49-1.73,1.47A10,10,0,0,0,33.23,14.85Z"/></g></g></svg>