<?xml version="1.0" encoding="utf-8"?>
<!-- Generator: Adobe Illustrator 24.0.2, SVG Export Plug-In . SVG Version: 6.00 Build 0)  -->
<svg version="1.1" id="Layer_1" xmlns="http://www.w3.org/2000/svg" xmlns:xlink="http://www.w3.org/1999/xlink" x="0px" y="0px"
	 viewBox="0 0 16.4 21.5" style="enable-background:new 0 0 16.4 21.5;" xml:space="preserve">
<style type="text/css">
	.st0{fill:#7C439F;}
</style>
<title>abajodere</title>
<g id="Layer_2_1_">
	<g>
		<g id="barra_lateral_derecha_8_">
			<path class="st0" d="M10,20.4l6.1-10.6c0.6-1,0.2-2.2-0.8-2.8c-0.3-0.2-0.7-0.3-1-0.3H2.1C0.9,6.7,0,7.6,0,8.8
				c0,0.4,0.1,0.7,0.3,1l6.1,10.6c0.6,1,1.8,1.3,2.8,0.8C9.5,21,9.8,20.7,10,20.4z"/>
			<path class="st0" d="M6.7,0h3c1,0,1.9,0.8,1.9,1.9v5.4c0,1-0.8,1.9-1.9,1.9h-3c-1,0-1.9-0.8-1.9-1.9V1.9C4.8,0.8,5.6,0,6.7,0z"/>
		</g>
	</g>
</g>
</svg>
