<svg xmlns="http://www.w3.org/2000/svg" viewBox="0 0 55.02 39.85"><defs><style>.cls-1{fill:none;stroke:#fff;stroke-width:7.9px;}.cls-2{fill:#512573;}</style></defs><title>ceronsi</title><g id="Layer_2" data-name="Layer 2"><g id="barra_lateral_derecha" data-name="barra lateral derecha"><path class="cls-1" d="M19.66,28.46q0,3.84-1.34,5.47a4.92,4.92,0,0,1-4.05,1.64A6.29,6.29,0,0,1,11.38,35,3.63,3.63,0,0,1,9.7,32.91a12.48,12.48,0,0,1-.62-4.07L9,11.16a7.18,7.18,0,0,1-3.64-.83A3,3,0,0,1,4,7.55,3.15,3.15,0,0,1,5.26,5,5.85,5.85,0,0,1,8.92,4l2.6,0,2.37,0c2.26,0,3.79.39,4.57,1.16s1.17,2.12,1.17,4.05Z"/><path class="cls-1" d="M37.68,35.9a16,16,0,0,1-5.31-.83,11.88,11.88,0,0,1-4.28-2.63,11.71,11.71,0,0,1-2.94-4.93,23.51,23.51,0,0,1-1-7.35,26.31,26.31,0,0,1,1-7.77,11.64,11.64,0,0,1,2.91-5,11.27,11.27,0,0,1,4.23-2.6A16.59,16.59,0,0,1,37.71,4a14.9,14.9,0,0,1,5.37.92A11.47,11.47,0,0,1,47.29,7.7a12.59,12.59,0,0,1,2.8,5,24.94,24.94,0,0,1,1,7.42,23.68,23.68,0,0,1-1,7.37,11.71,11.71,0,0,1-2.87,4.91,11.56,11.56,0,0,1-4.24,2.63A15.9,15.9,0,0,1,37.68,35.9Zm2.49-9.53A20.75,20.75,0,0,0,41,20.14a21.7,21.7,0,0,0-.87-6.43q-.87-2.79-2.43-2.79a2.28,2.28,0,0,0-1.91,1.42,11,11,0,0,0-1.18,3.48,25.23,25.23,0,0,0-.37,4.34,19.47,19.47,0,0,0,.89,6.16c.6,1.77,1.45,2.66,2.55,2.66S39.62,28.11,40.17,26.37Z"/><path class="cls-2" d="M19.66,28.46q0,3.84-1.34,5.47a4.92,4.92,0,0,1-4.05,1.64A6.29,6.29,0,0,1,11.38,35,3.63,3.63,0,0,1,9.7,32.91a12.48,12.48,0,0,1-.62-4.07L9,11.16a7.18,7.18,0,0,1-3.64-.83A3,3,0,0,1,4,7.55,3.15,3.15,0,0,1,5.26,5,5.85,5.85,0,0,1,8.92,4l2.6,0,2.37,0c2.26,0,3.79.39,4.57,1.16s1.17,2.12,1.17,4.05Z"/><path class="cls-2" d="M37.68,35.9a16,16,0,0,1-5.31-.83,11.88,11.88,0,0,1-4.28-2.63,11.71,11.71,0,0,1-2.94-4.93,23.51,23.51,0,0,1-1-7.35,26.31,26.31,0,0,1,1-7.77,11.64,11.64,0,0,1,2.91-5,11.27,11.27,0,0,1,4.23-2.6A16.59,16.59,0,0,1,37.71,4a14.9,14.9,0,0,1,5.37.92A11.47,11.47,0,0,1,47.29,7.7a12.59,12.59,0,0,1,2.8,5,24.94,24.94,0,0,1,1,7.42,23.68,23.68,0,0,1-1,7.37,11.71,11.71,0,0,1-2.87,4.91,11.56,11.56,0,0,1-4.24,2.63A15.9,15.9,0,0,1,37.68,35.9Zm2.49-9.53A20.75,20.75,0,0,0,41,20.14a21.7,21.7,0,0,0-.87-6.43q-.87-2.79-2.43-2.79a2.28,2.28,0,0,0-1.91,1.42,11,11,0,0,0-1.18,3.48,25.23,25.23,0,0,0-.37,4.34,19.47,19.47,0,0,0,.89,6.16c.6,1.77,1.45,2.66,2.55,2.66S39.62,28.11,40.17,26.37Z"/></g></g></svg>