<svg xmlns="http://www.w3.org/2000/svg" viewBox="0 0 39.74 28.4"><defs><style>.cls-1{fill:none;stroke:#7c439f;stroke-width:6.6px;}.cls-2{fill:#fff;}</style></defs><title>ceron</title><g id="Layer_2" data-name="Layer 2"><g id="barra_lateral_derecha" data-name="barra lateral derecha"><path class="cls-1" d="M14.35,20a5.88,5.88,0,0,1-.94,3.74,3.54,3.54,0,0,1-2.85,1.11,4.58,4.58,0,0,1-2-.39,2.51,2.51,0,0,1-1.18-1.42,8.23,8.23,0,0,1-.43-2.78L6.85,8.22A5.12,5.12,0,0,1,4.3,7.65a2,2,0,0,1-1-1.89A2.12,2.12,0,0,1,4.22,4a4.15,4.15,0,0,1,2.57-.7l1.83,0h1.67a4.73,4.73,0,0,1,3.21.8,3.73,3.73,0,0,1,.83,2.76Z"/><path class="cls-1" d="M27,25.1a11.41,11.41,0,0,1-3.73-.57,8.42,8.42,0,0,1-3-1.79,7.9,7.9,0,0,1-2.07-3.37,15.67,15.67,0,0,1-.72-5,17.11,17.11,0,0,1,.72-5.3,7.76,7.76,0,0,1,2-3.43,8.1,8.1,0,0,1,3-1.78A12,12,0,0,1,27,3.3a10.7,10.7,0,0,1,3.78.63,8,8,0,0,1,3,1.93,8.52,8.52,0,0,1,2,3.44,16.6,16.6,0,0,1,.69,5.06,15.67,15.67,0,0,1-.72,5,8,8,0,0,1-2,3.35,8.14,8.14,0,0,1-3,1.79A11.36,11.36,0,0,1,27,25.1Zm1.75-6.5a13.74,13.74,0,0,0,.59-4.26A14.31,14.31,0,0,0,28.75,10c-.41-1.27-1-1.91-1.71-1.91a1.63,1.63,0,0,0-1.35,1,7.24,7.24,0,0,0-.82,2.38,15.74,15.74,0,0,0-.27,3,12.71,12.71,0,0,0,.63,4.2c.42,1.21,1,1.82,1.79,1.82S28.38,19.78,28.77,18.6Z"/><path class="cls-2" d="M14.35,20a5.88,5.88,0,0,1-.94,3.74,3.54,3.54,0,0,1-2.85,1.11,4.58,4.58,0,0,1-2-.39,2.51,2.51,0,0,1-1.18-1.42,8.23,8.23,0,0,1-.43-2.78L6.85,8.22A5.12,5.12,0,0,1,4.3,7.65a2,2,0,0,1-1-1.89A2.12,2.12,0,0,1,4.22,4a4.15,4.15,0,0,1,2.57-.7l1.83,0h1.67a4.73,4.73,0,0,1,3.21.8,3.73,3.73,0,0,1,.83,2.76Z"/><path class="cls-2" d="M27,25.1a11.41,11.41,0,0,1-3.73-.57,8.42,8.42,0,0,1-3-1.79,7.9,7.9,0,0,1-2.07-3.37,15.67,15.67,0,0,1-.72-5,17.11,17.11,0,0,1,.72-5.3,7.76,7.76,0,0,1,2-3.43,8.1,8.1,0,0,1,3-1.78A12,12,0,0,1,27,3.3a10.7,10.7,0,0,1,3.78.63,8,8,0,0,1,3,1.93,8.52,8.52,0,0,1,2,3.44,16.6,16.6,0,0,1,.69,5.06,15.67,15.67,0,0,1-.72,5,8,8,0,0,1-2,3.35,8.14,8.14,0,0,1-3,1.79A11.36,11.36,0,0,1,27,25.1Zm1.75-6.5a13.74,13.74,0,0,0,.59-4.26A14.31,14.31,0,0,0,28.75,10c-.41-1.27-1-1.91-1.71-1.91a1.63,1.63,0,0,0-1.35,1,7.24,7.24,0,0,0-.82,2.38,15.74,15.74,0,0,0-.27,3,12.71,12.71,0,0,0,.63,4.2c.42,1.21,1,1.82,1.79,1.82S28.38,19.78,28.77,18.6Z"/></g></g></svg>