<?xml version="1.0" encoding="utf-8"?>
<!-- Generator: Adobe Illustrator 24.0.2, SVG Export Plug-In . SVG Version: 6.00 Build 0)  -->
<svg version="1.1" id="Layer_1" xmlns="http://www.w3.org/2000/svg" xmlns:xlink="http://www.w3.org/1999/xlink" x="0px" y="0px"
	 viewBox="0 0 158.8 314.9" style="enable-background:new 0 0 158.8 314.9;" xml:space="preserve">
<style type="text/css">
	.st0{fill:#00607A;}
	.st1{fill:#003B49;}
	.st2{fill:none;stroke:#000000;stroke-width:2.8316;stroke-miterlimit:10;}
	.st3{fill:#00607A;stroke:#000000;stroke-width:1.6568;stroke-miterlimit:10;}
	.st4{fill:#3291B2;stroke:#000000;stroke-width:2.8316;stroke-miterlimit:10;}
	.st5{fill:#B3B3B3;stroke:#000000;stroke-width:1.2253;stroke-miterlimit:10;}
	.st6{fill:none;stroke:#000000;stroke-width:0.7224;stroke-miterlimit:10;}
	.st7{fill:#B3B3B3;stroke:#000000;stroke-width:0.8283;stroke-miterlimit:10;}
	.st8{fill:none;stroke:#000000;stroke-width:1.6568;stroke-miterlimit:10;}
	.st9{fill:#FFFFFF;stroke:#000000;stroke-width:1.4159;stroke-miterlimit:10.0003;}
	.st10{fill:none;stroke:#000000;stroke-width:2.8316;stroke-linecap:round;stroke-miterlimit:10;}
	.st11{stroke:#000000;stroke-width:0.1656;stroke-miterlimit:10.0003;}
	.st12{fill:#FFFFFF;}
	.st13{fill:#75C6D3;stroke:#000000;stroke-width:1.2527;stroke-miterlimit:10;}
	.st14{stroke:#000000;stroke-width:0.1422;stroke-miterlimit:10;}
</style>
<title>L11</title>
<g>
	<g>
		<rect x="5.2" y="127.3" class="st0" width="10.8" height="83.6"/>
		<path class="st1" d="M5.3,127.3l10.9-0.1c1.4-1.2,2.9-2.6,4.2-4.1c5.5-7,9-18.3,9.1-30.7c0.1-12.9-3.7-24.3-9.3-31.3
			c-1.2-1.4-2.4-2.7-3.9-3.7L5.3,57.6c1.2,1,2.7,2.2,3.9,3.7c5.6,7,9.4,18.4,9.3,31.3c-0.1,12.6-3.6,23.9-9.1,30.7
			C8.2,124.9,6.7,126.3,5.3,127.3z"/>
		<rect x="5.2" y="17.1" class="st0" width="10.8" height="40.5"/>
		<path class="st2" d="M9,61.2c5.6,7,9.4,18.4,9.3,31.3c-0.1,12.6-3.6,23.9-9.1,30.7c-1.3,1.7-2.7,3.1-4.2,4.3l0,83.7l138.5,0
			l0.2-85.9c-0.6-0.7-1.2-1.4-1.8-2.2c-5.6-7-9-18.1-9.1-30.8c0.1-12.9,3.6-24.3,9.3-31.1c0.5-0.6,1-1.2,1.5-1.6l-0.1-42.4l-138.5,0
			l0,40.4C6.6,58.6,7.8,59.8,9,61.2z"/>
		<path class="st3" d="M19.9,61.1c5.6,7,9.4,18.4,9.3,31.3c-0.1,12.6-3.6,23.9-9.1,30.7c-1.3,1.7-2.7,3.1-4.2,4.1l0,83.7l127.9-0.1
			l0-85.5c-0.6-0.7-1.2-1.4-1.8-2.2c-5.6-7-9-18.1-9.1-30.8c0.1-12.9,3.6-24.3,9.3-31.3c0.5-0.6,1-1.2,1.5-1.6l-0.1-42.4L16,17
			l0,40.4C17.4,58.5,18.7,59.7,19.9,61.1z"/>
		<path class="st4" d="M19.9,61.1c5.6,7,9.4,18.4,9.3,31.3c-0.1,12.6-3.6,23.9-9.1,30.7c-1.3,1.7-2.7,3.1-4.2,4.1l0,83.7l138.5,0
			l0-85.7c-0.6-0.7-1.2-1.4-1.8-2.2c-5.6-7-9-18.1-9.1-30.8c0.1-12.9,3.6-24.3,9.3-31.3c0.5-0.6,1-1.2,1.5-1.6l-0.1-42.4L16,17
			l0,40.4C17.4,58.5,18.7,59.7,19.9,61.1z"/>
		<g>
			<path class="st5" d="M82.7,84.7L82.7,84.7c13.5-0.1,24.3-10.8,24.5-24.4L107,17.1L58.2,17l0,43.3C58.2,73.8,69.2,84.6,82.7,84.7z
				"/>
			<line class="st6" x1="83" y1="17.3" x2="83.2" y2="84.8"/>
			
				<ellipse transform="matrix(9.254778e-02 -0.9957 0.9957 9.254778e-02 17.4033 111.1104)" class="st7" cx="69.7" cy="46" rx="4.9" ry="4.9"/>
		</g>
		<line class="st8" x1="16" y1="57.4" x2="5.1" y2="57.5"/>
		<line class="st8" x1="16.1" y1="127.4" x2="5.3" y2="127.5"/>
	</g>
	<g>
		<ellipse class="st9" cx="122.3" cy="138.8" rx="16.8" ry="24.8"/>
		<ellipse class="st9" cx="77.6" cy="137.5" rx="16.8" ry="24.8"/>
		<path class="st10" d="M134.3,105.7c0,0-8.9-9.3-17.5-0.1"/>
		<path class="st10" d="M85.9,105.7c0,0-8.9-9.3-17.5-0.1"/>
		<g>
			<ellipse class="st11" cx="130.1" cy="135.8" rx="8.6" ry="12.8"/>
			
				<ellipse transform="matrix(9.254789e-02 -0.9957 0.9957 9.254789e-02 -9.471 251.5092)" class="st12" cx="133.2" cy="131" rx="2.7" ry="2.7"/>
		</g>
		<g>
			<ellipse class="st11" cx="85.5" cy="135.9" rx="8.6" ry="12.8"/>
			
				<ellipse transform="matrix(9.254785e-02 -0.9957 0.9957 9.254785e-02 -50.398 206.6597)" class="st12" cx="88.2" cy="131" rx="2.7" ry="2.7"/>
		</g>
		<g>
			<g>
				<path class="st13" d="M63.4,168.4c-2-0.4-4.2,0.3-5.7,1.7c-2.4,2.4-2.4,6.4,0.1,8.7c14.3,13.8,35.2,17.7,53.6,10.5
					c3.2-1.3,4.7-4.9,3.4-8.1c-1.3-3.2-4.9-4.7-8.1-3.4c-13.8,5.6-29.5,2.6-40.4-7.7C65.8,169.1,64.5,168.5,63.4,168.4z"/>
			</g>
			<g>
				<path class="st14" d="M109.7,181.6c-0.4,0-0.9-0.1-1.1,0.1c-15.2,6.1-32.9,2.7-44.7-8.6c-0.8-0.7-2.1-0.9-2.9,0s-0.9,2.1,0,2.9
					c13,12.5,32.4,16.3,49.3,9.7c1.1-0.3,1.5-1.6,1.1-2.8C111,182.2,110.3,181.7,109.7,181.6z"/>
			</g>
		</g>
	</g>
</g>
</svg>
