<svg xmlns="http://www.w3.org/2000/svg" viewBox="0 0 264.13 314.87"><defs><style>.cls-1{fill:#fbccac;}.cls-2{fill:#ff7bac;}.cls-11,.cls-12,.cls-13,.cls-14,.cls-2,.cls-3,.cls-6,.cls-7,.cls-9{stroke:#000;}.cls-10,.cls-11,.cls-12,.cls-13,.cls-14,.cls-2,.cls-3,.cls-7,.cls-9{stroke-miterlimit:10;}.cls-11,.cls-12,.cls-2,.cls-3{stroke-width:2.02px;}.cls-3{fill:#ccc;}.cls-4{fill:#d88500;}.cls-5{fill:#f9b233;}.cls-12,.cls-6{stroke-linecap:round;}.cls-6{stroke-linejoin:round;stroke-width:0.01px;}.cls-7{fill:#666;}.cls-13,.cls-7{stroke-width:1.01px;}.cls-10,.cls-11,.cls-12,.cls-8,.cls-9{fill:none;}.cls-9{stroke-width:1.52px;}.cls-10{stroke:#bf720c;stroke-width:0.81px;}.cls-13,.cls-15{fill:#fff;}.cls-14{stroke-width:0.13px;}</style></defs><title>L11</title><g id="Layer_2" data-name="Layer 2"><g id="dedos"><polygon class="cls-1" points="180.39 60.94 166.43 74.99 152.78 60.94 139.16 74.99 125.46 60.94 111.8 74.99 97.93 60.94 139.1 1.77 180.39 60.94"/><path class="cls-2" d="M179,286.93a35.68,35.68,0,0,1-7.37,14.16c-11.79,13.74-30,12.86-32.44,12.7-3.34,0-19.1-.28-31-12.54a40.69,40.69,0,0,1-8.94-14.32Z"/><path class="cls-3" d="M179.68,252.34l-.09,31.86c-.15.8-.35,1.72-.62,2.73H99.21c-.45-1.24-.8-2.36-1.07-3.32V252.34Z"/><path class="cls-4" d="M180.39,60.94V85.52s-.57,111.21-.71,166.82h-26.9V60.94l13.65,14Z"/><polygon class="cls-4" points="125.41 60.89 125.41 252.29 98.1 252.29 97.88 85.47 97.88 60.89 111.76 74.94 125.41 60.89"/><polygon class="cls-5" points="152.78 60.94 152.78 252.34 125.46 252.34 125.46 60.94 139.16 74.99 152.78 60.94"/><path class="cls-6" d="M130.06,15.38s8.33,7.85,17.66,0L139.09,1.77Z"/><line class="cls-7" x1="98.15" y1="258.71" x2="180.18" y2="258.71"/><line class="cls-7" x1="98.15" y1="280.9" x2="180.18" y2="280.9"/><line class="cls-8" x1="152.78" y1="60.94" x2="152.78" y2="60.84"/><line class="cls-9" x1="125.46" y1="252.35" x2="125.46" y2="252.34"/><line class="cls-9" x1="125.46" y1="60.94" x2="125.46" y2="60.92"/><line class="cls-10" x1="152.78" y1="60.84" x2="152.78" y2="252.34"/><line class="cls-10" x1="125.46" y1="61.03" x2="125.46" y2="252.34"/><path class="cls-11" d="M180.39,60.94,139.09,1.77,97.93,60.94V85.52l.21,166.82h81.54c.15-55.61.71-166.82.71-166.82Z"/><polyline class="cls-11" points="97.93 60.94 111.8 74.99 125.46 60.94 139.16 74.99 152.78 60.94 166.43 74.99 180.39 60.94"/><path class="cls-12" d="M88.62,106.36s9-9.37,17.67,0"/><path class="cls-12" d="M137.56,106.36s9-9.37,17.67,0"/><ellipse class="cls-13" cx="100.65" cy="139.83" rx="16.92" ry="25.05"/><ellipse class="cls-14" cx="92.75" cy="138.52" rx="8.7" ry="12.89"/><circle class="cls-15" cx="89.18" cy="133.79" r="3.34"/><ellipse class="cls-13" cx="145.83" cy="138.52" rx="16.92" ry="25.05"/><ellipse class="cls-14" cx="137.61" cy="138.52" rx="8.7" ry="12.89"/><circle class="cls-15" cx="134.27" cy="133.79" r="3.34"/><rect class="cls-8" width="264.13" height="314.87"/></g></g></svg>