<svg xmlns="http://www.w3.org/2000/svg" viewBox="0 0 264.13 314.87"><defs><style>.cls-1,.cls-2{fill:#fff;stroke:#000;stroke-miterlimit:10;}.cls-1{stroke-width:0.94px;}.cls-2{stroke-width:1.01px;}.cls-3{fill:none;}</style></defs><title>L11ma</title><g id="Layer_2" data-name="Layer 2"><g id="dedos"><ellipse class="cls-1" cx="8.57" cy="165.97" rx="8.1" ry="10.21"/><ellipse class="cls-1" cx="53.22" cy="166.57" rx="8.1" ry="10.21"/><path class="cls-2" d="M38.72,156.27c4.15,7.78,4,26.86-9.16,26.1s-11.13-19.72-6.11-27c2.28-3.3,5.41-4.78,7.92-4.63S36.83,152.73,38.72,156.27Z"/><ellipse class="cls-1" cx="255.56" cy="171.52" rx="8.1" ry="10.21"/><ellipse class="cls-1" cx="210.91" cy="172.12" rx="8.1" ry="10.21"/><path class="cls-2" d="M225.41,161.82c-4.15,7.79-4,26.86,9.16,26.1s11.13-19.72,6.11-27c-2.28-3.3-5.41-4.77-7.93-4.63S227.3,158.28,225.41,161.82Z"/><rect class="cls-3" width="264.13" height="314.87"/></g></g></svg>