<?xml version="1.0" encoding="utf-8"?>
<!-- Generator: Adobe Illustrator 24.0.2, SVG Export Plug-In . SVG Version: 6.00 Build 0)  -->
<svg version="1.1" id="Layer_1" xmlns="http://www.w3.org/2000/svg" xmlns:xlink="http://www.w3.org/1999/xlink" x="0px" y="0px"
	 viewBox="0 0 315.1 314.9" style="enable-background:new 0 0 315.1 314.9;" xml:space="preserve">
<style type="text/css">
	.st0{fill:#FFFFFF;stroke:#000000;stroke-width:0.94;stroke-miterlimit:10;}
	.st1{fill:#FFFFFF;stroke:#000000;stroke-width:1.01;stroke-miterlimit:10;}
	.st2{fill:none;}
</style>
<title>L11ma</title>
<g id="Layer_2_1_">
	<g id="dedos">
		<ellipse class="st0" cx="10.2" cy="166" rx="8.1" ry="10.2"/>
		<ellipse class="st0" cx="54.9" cy="166.6" rx="8.1" ry="10.2"/>
		<path class="st1" d="M40.4,156.3c4.2,7.8,4,26.9-9.2,26.1s-11.1-19.7-6.1-27c2.3-3.3,5.4-4.8,7.9-4.6
			C35.6,150.9,38.5,152.7,40.4,156.3z"/>
		<g>
			<ellipse class="st0" cx="302.8" cy="171.5" rx="8.1" ry="10.2"/>
			<ellipse class="st0" cx="258.1" cy="172.1" rx="8.1" ry="10.2"/>
			<path class="st1" d="M272.6,161.8c-4.1,7.8-4,26.9,9.2,26.1s11.1-19.7,6.1-27c-2.3-3.3-5.4-4.8-7.9-4.6S274.5,158.3,272.6,161.8z
				"/>
		</g>
		<rect x="24.9" class="st2" width="264.1" height="314.9"/>
	</g>
</g>
</svg>
