<svg xmlns="http://www.w3.org/2000/svg" viewBox="0 0 168.1 185.56"><defs><style>.cls-1,.cls-7{fill:#003b49;}.cls-1,.cls-10,.cls-11,.cls-12,.cls-13,.cls-14,.cls-15,.cls-16,.cls-17,.cls-18,.cls-19,.cls-2,.cls-20,.cls-21,.cls-22,.cls-4,.cls-8{stroke:#000;}.cls-1,.cls-10,.cls-11,.cls-12,.cls-13,.cls-14,.cls-15,.cls-16,.cls-17,.cls-18,.cls-19,.cls-2,.cls-20,.cls-21,.cls-22,.cls-8{stroke-miterlimit:10;}.cls-1,.cls-10,.cls-12{stroke-width:1.76px;}.cls-17,.cls-19,.cls-2,.cls-3,.cls-4,.cls-8{fill:#fff;}.cls-2{stroke-width:0.89px;}.cls-18,.cls-4{stroke-linecap:round;}.cls-4{stroke-linejoin:round;stroke-width:0.94px;}.cls-5{fill:#e5e5e5;}.cls-6{fill:#bf4400;}.cls-8{stroke-width:1.38px;}.cls-11,.cls-9{fill:#00607a;}.cls-10,.cls-16,.cls-18{fill:none;}.cls-11,.cls-16{stroke-width:1.03px;}.cls-12{fill:#3291b2;}.cls-13,.cls-14,.cls-15{fill:#b3b3b3;}.cls-13{stroke-width:0.76px;}.cls-14{stroke-width:0.45px;}.cls-15{stroke-width:0.52px;}.cls-17{stroke-width:0.96px;}.cls-18{stroke-width:2.42px;}.cls-19{stroke-width:1.21px;}.cls-20{stroke-width:0.15px;}.cls-21{fill:#75c6d3;stroke-width:0.78px;}.cls-22{stroke-width:0.09px;}</style></defs><title>l12</title><g id="Layer_2" data-name="Layer 2"><g id="personaje"><path class="cls-1" d="M7.53,119.4c3,.27,6,.48,9,.6,1.34-13.92,4.33-23,6.82-28.51,3-6.66,5.95-9.34,6.24-9.6l0,0-2-9c-.44.35-8,5.55-12,13.91a79.67,79.67,0,0,0-5.53,16.39A125.28,125.28,0,0,0,7.53,119.4Z"/><path class="cls-2" d="M3.41,124.75s-2.21-4.2,3.59-7c6.72-3.24,16.81,1.92,12,7.85Z"/><ellipse class="cls-3" cx="10.96" cy="125.72" rx="7.07" ry="5.44" transform="translate(-13.25 1.87) rotate(-6.08)"/><path class="cls-4" d="M8.93,120.63C4.69,121.25,1.69,124.22.7,131c-.59,4.62,0,8.09,1.51,10.55A3.13,3.13,0,0,0,6,142.82H6L6.22,139"/><path class="cls-4" d="M4.75,133a15.5,15.5,0,0,0-.22,8.72,8.19,8.19,0,0,0,3.3,4.76,2.52,2.52,0,0,0,2.45.35h0a1.64,1.64,0,0,0,.8-2.21l-1-2a11.53,11.53,0,0,1-1-3.08A26.65,26.65,0,0,1,9,133.75a17.06,17.06,0,0,0,2,10.83,4.21,4.21,0,0,0,2.5,1.93h0a2.16,2.16,0,0,0,2.3-.76l.3-.39a3.63,3.63,0,0,0,.75-2.62h0a2.83,2.83,0,0,0-.36-1.13l-.39-.71a9.5,9.5,0,0,1-1.22-4.6l0-3.39a.18.18,0,0,1,.34-.07,16.89,16.89,0,0,0,.91,3.08A7.32,7.32,0,0,0,18,138.54l.25.23a2.87,2.87,0,0,0,1.7.77,2.23,2.23,0,0,0,1.47-.37,2.46,2.46,0,0,0,.74-3.24l-.79-1.45a10.53,10.53,0,0,1-1.28-5.33l0-.88a5.81,5.81,0,0,0-.58-2.68h0a8.08,8.08,0,0,0-2.64-3.1L15,121.18"/><path class="cls-5" d="M42.12,180.84a30.34,30.34,0,0,0,3.1-1.49c.27-.15,5-2.78,6.82-3.41l.05,0a64.33,64.33,0,0,1,8.79-1.7l.33,0a9.59,9.59,0,0,0,1.62-.4,8.26,8.26,0,0,0,5.4-6.34,4.54,4.54,0,0,1,.17,5.41c-2.58,3.55-5.6,4.05-9.42,4.67a39.67,39.67,0,0,0-5.32,1.15,46.56,46.56,0,0,0-7.81,3.27c-3.57,1.78-6.14,3.07-10.4,2.34a5.77,5.77,0,0,1-4.3-4.08C34,182,38.12,182.26,42.12,180.84Z"/><path class="cls-6" d="M36.65,165.4a13.86,13.86,0,0,1,5.81-.78h0s2.69.1,5.37,3a.53.53,0,0,0,.78-.72,11.17,11.17,0,0,0-3.56-2.66A11.14,11.14,0,0,1,47.36,159a14.88,14.88,0,0,0,4.08-.37l.07,0a.53.53,0,0,0-.3-1,14.16,14.16,0,0,1-4,.34h-.06c-1.94-.16-3.36-.85-3.76-2-.77-2.19,2.49-5.43,7.13-7.07s9.21-1.18,10,1c.43,1.2-.36,2.76-2,4.2,0,0,0,0-.05.05a14.89,14.89,0,0,1-2.06,1.45.53.53,0,0,0,.54.92,15.53,15.53,0,0,0,2-1.41,11.21,11.21,0,0,1,8.37,11v.07a7.22,7.22,0,0,1-6.24,7l-.33,0a61.4,61.4,0,0,0-9,1.74,74.58,74.58,0,0,0-7.05,3.51l0,0c-.74.46-2.75,1.34-2.9,1.4-4.18,1.47-8.64.93-11.11-1.36a5.78,5.78,0,0,1-1.53-2.29C27.72,172.21,31.09,167.37,36.65,165.4Z"/><path d="M28.12,176.54a6.71,6.71,0,0,0,1.65,2.57,9.05,9.05,0,0,0,.79,2.44,6.51,6.51,0,0,0,4.71,3.78c4.6.79,7.45-.63,11.06-2.43A46.26,46.26,0,0,1,54,179.69a37.86,37.86,0,0,1,5.19-1.11A28.18,28.18,0,0,0,64,177.51a10.73,10.73,0,0,0,5.31-4c1.24-1.72,1.73-4.72-.91-7.6a12.32,12.32,0,0,0-.7-4,12.18,12.18,0,0,0-7.82-7.57c1.53-1.58,2.16-3.27,1.65-4.72-1-2.83-6-3.56-11.35-1.66s-8.78,5.6-7.78,8.43c.47,1.33,1.86,2.21,3.77,2.55a12.37,12.37,0,0,0-2,5,6.52,6.52,0,0,0-1.53-.3,14.89,14.89,0,0,0-6.24.85C30.18,166.56,26.51,172,28.12,176.54Zm3,3.66c2.85,1.78,7,2.06,11,.64a30.34,30.34,0,0,0,3.1-1.49c.27-.15,5-2.78,6.82-3.41l.05,0a64.33,64.33,0,0,1,8.79-1.7l.33,0a9.59,9.59,0,0,0,1.62-.4,8.26,8.26,0,0,0,5.4-6.34,4.54,4.54,0,0,1,.17,5.41c-2.58,3.55-5.6,4.05-9.42,4.67a39.67,39.67,0,0,0-5.32,1.15,46.56,46.56,0,0,0-7.81,3.27c-3.57,1.78-6.14,3.07-10.4,2.34A5.77,5.77,0,0,1,31.15,180.2Zm-2-4c-1.4-4,2-8.82,7.53-10.79a13.86,13.86,0,0,1,5.81-.78h0s2.69.1,5.37,3a.53.53,0,0,0,.78-.72,11.17,11.17,0,0,0-3.56-2.66A11.14,11.14,0,0,1,47.36,159a14.88,14.88,0,0,0,4.08-.37l.07,0a.53.53,0,0,0-.3-1,14.16,14.16,0,0,1-4,.34h-.06c-1.94-.16-3.36-.85-3.76-2-.77-2.19,2.49-5.43,7.13-7.07s9.21-1.18,10,1c.43,1.2-.36,2.76-2,4.2,0,0,0,0-.05.05a14.89,14.89,0,0,1-2.06,1.45.53.53,0,0,0,.54.92,15.53,15.53,0,0,0,2-1.41,11.21,11.21,0,0,1,8.37,11v.07a7.22,7.22,0,0,1-6.24,7l-.33,0a61.4,61.4,0,0,0-9,1.74,74.58,74.58,0,0,0-7.05,3.51l0,0c-.74.46-2.75,1.34-2.9,1.4-4.18,1.47-8.64.93-11.11-1.36A5.78,5.78,0,0,1,29.12,176.19Z"/><path class="cls-7" d="M50.9,155.21a5.43,5.43,0,0,1-5.23-4l-4.11-15.26a5.49,5.49,0,0,1-.15-.79,25.76,25.76,0,0,1,3-15.28,12.16,12.16,0,0,1,4-4.35l3.76-2.3a17.77,17.77,0,0,1,4.68-2,5.46,5.46,0,0,1,4.14,10l-4.35,2.52a7.91,7.91,0,0,0-3.91,6.2,31.84,31.84,0,0,0,1.62,13L56,148a5.42,5.42,0,0,1-3.9,7A5.16,5.16,0,0,1,50.9,155.21Z"/><path d="M58.18,111.92a4.54,4.54,0,0,1,4.09,2.57l0,.06a4.53,4.53,0,0,1-1.81,5.89L56.13,123a8.78,8.78,0,0,0-4.34,6.89,33,33,0,0,0,1.67,13.38l1.74,5.1a4.53,4.53,0,0,1-3.27,5.88h0a4.59,4.59,0,0,1-1,.12A4.53,4.53,0,0,1,46.53,151l-4.12-15.27a5.13,5.13,0,0,1-.13-.66,25.06,25.06,0,0,1,2.86-14.76,11.27,11.27,0,0,1,3.69-4L52.57,114a17.1,17.1,0,0,1,4.44-1.9h0a4.69,4.69,0,0,1,1.17-.15m0-1.76h0a6.32,6.32,0,0,0-1.62.21,18.38,18.38,0,0,0-4.91,2.1l-3.74,2.28,0,0h0a13,13,0,0,0-4.27,4.67,26.7,26.7,0,0,0-3.06,15.8,7.12,7.12,0,0,0,.18.92l4.11,15.26a6.3,6.3,0,1,0,12-3.67l-1.75-5.1A31.12,31.12,0,0,1,53.54,130a7,7,0,0,1,3.48-5.5L61.37,122a6.32,6.32,0,0,0,2.51-8.18l0-.06a6.33,6.33,0,0,0-5.67-3.56Z"/><path class="cls-8" d="M46.5,143.46h8.39a.82.82,0,0,1,.82.82v5.61a5,5,0,0,1-5,5h0a5,5,0,0,1-5-5v-5.61a.82.82,0,0,1,.82-.82Z" transform="translate(-38.29 19.16) rotate(-15.62)"/><path class="cls-5" d="M100.83,180.84a29.35,29.35,0,0,1-3.1-1.49c-.28-.15-5-2.78-6.83-3.41l0,0a64.33,64.33,0,0,0-8.79-1.7l-.33,0a9.59,9.59,0,0,1-1.62-.4,8.26,8.26,0,0,1-5.4-6.34,4.53,4.53,0,0,0-.17,5.41c2.57,3.55,5.59,4.05,9.41,4.67a39.8,39.8,0,0,1,5.33,1.15,47.28,47.28,0,0,1,7.81,3.27c3.56,1.78,6.14,3.07,10.4,2.34a5.77,5.77,0,0,0,4.29-4.08C109,182,104.82,182.26,100.83,180.84Z"/><path class="cls-6" d="M106.29,165.4a13.81,13.81,0,0,0-5.8-.78h0a8.41,8.41,0,0,0-5.37,3,.53.53,0,0,1-.79-.72,11.19,11.19,0,0,1,3.57-2.66A11.14,11.14,0,0,0,95.59,159a15,15,0,0,1-4.09-.37l-.06,0a.53.53,0,0,1,.3-1,14.16,14.16,0,0,0,4,.34h0c2-.16,3.37-.85,3.77-2,.77-2.19-2.49-5.43-7.13-7.07s-9.21-1.18-10,1c-.42,1.2.37,2.76,2,4.2l.06.05a13.78,13.78,0,0,0,2.06,1.45.53.53,0,0,1-.54.92,14.89,14.89,0,0,1-2-1.41,11.16,11.16,0,0,0-8.37,11v.07a7.21,7.21,0,0,0,6.23,7l.33,0a61.14,61.14,0,0,1,9,1.74,75,75,0,0,1,7.06,3.51l0,0c.74.46,2.75,1.34,2.9,1.4,4.18,1.47,8.64.93,11.11-1.36a5.76,5.76,0,0,0,1.52-2.29C115.23,172.21,111.85,167.37,106.29,165.4Z"/><path d="M114.83,176.54a6.71,6.71,0,0,1-1.65,2.57,9.05,9.05,0,0,1-.79,2.44,6.53,6.53,0,0,1-4.71,3.78c-4.61.79-7.45-.63-11.06-2.43A46.4,46.4,0,0,0,89,179.69a37.74,37.74,0,0,0-5.18-1.11A27.75,27.75,0,0,1,79,177.51a10.65,10.65,0,0,1-5.31-4c-1.25-1.72-1.73-4.72.9-7.6a12.33,12.33,0,0,1,.71-4,12.16,12.16,0,0,1,7.81-7.57c-1.52-1.58-2.15-3.27-1.64-4.72,1-2.83,6-3.56,11.35-1.66s8.77,5.6,7.77,8.43c-.47,1.33-1.85,2.21-3.77,2.55a12.25,12.25,0,0,1,2.06,5,6.43,6.43,0,0,1,1.53-.3,14.91,14.91,0,0,1,6.24.85C112.76,166.56,116.43,172,114.83,176.54Zm-3,3.66c-2.84,1.78-7,2.06-11,.64a29.35,29.35,0,0,1-3.1-1.49c-.28-.15-5-2.78-6.83-3.41l0,0a64.33,64.33,0,0,0-8.79-1.7l-.33,0a9.59,9.59,0,0,1-1.62-.4,8.26,8.26,0,0,1-5.4-6.34,4.53,4.53,0,0,0-.17,5.41c2.57,3.55,5.59,4.05,9.41,4.67a39.8,39.8,0,0,1,5.33,1.15,47.28,47.28,0,0,1,7.81,3.27c3.56,1.78,6.14,3.07,10.4,2.34A5.77,5.77,0,0,0,111.79,180.2Zm2-4c1.41-4-2-8.82-7.53-10.79a13.81,13.81,0,0,0-5.8-.78h0a8.41,8.41,0,0,0-5.37,3,.53.53,0,0,1-.79-.72,11.19,11.19,0,0,1,3.57-2.66A11.14,11.14,0,0,0,95.59,159a15,15,0,0,1-4.09-.37l-.06,0a.53.53,0,0,1,.3-1,14.16,14.16,0,0,0,4,.34h0c2-.16,3.37-.85,3.77-2,.77-2.19-2.49-5.43-7.13-7.07s-9.21-1.18-10,1c-.42,1.2.37,2.76,2,4.2l.06.05a13.78,13.78,0,0,0,2.06,1.45.53.53,0,0,1-.54.92,14.89,14.89,0,0,1-2-1.41,11.16,11.16,0,0,0-8.37,11v.07a7.21,7.21,0,0,0,6.23,7l.33,0a61.14,61.14,0,0,1,9,1.74,75,75,0,0,1,7.06,3.51l0,0c.74.46,2.75,1.34,2.9,1.4,4.18,1.47,8.64.93,11.11-1.36A5.76,5.76,0,0,0,113.82,176.19Z"/><path class="cls-7" d="M91.74,154.94a5.59,5.59,0,0,1-1.23-.14,5.42,5.42,0,0,1-3.9-7l1.74-5.1a32,32,0,0,0,1.62-13,7.91,7.91,0,0,0-3.91-6.2l-4.35-2.52a5.47,5.47,0,0,1,2.75-10.17,5,5,0,0,1,1.39.19,17.42,17.42,0,0,1,4.68,2l3.73,2.29a12.17,12.17,0,0,1,4,4.36,25.93,25.93,0,0,1,3,15.28,5.37,5.37,0,0,1-.15.8L97,150.93a5.41,5.41,0,0,1-5.22,4Z"/><path d="M84.46,111.64a4.21,4.21,0,0,1,1.16.16,16.37,16.37,0,0,1,4.45,1.9L93.8,116a11.18,11.18,0,0,1,3.7,4,25.07,25.07,0,0,1,2.85,14.76,4.94,4.94,0,0,1-.12.67L96.11,150.7a4.52,4.52,0,0,1-5.4,3.24h0a4.54,4.54,0,0,1-3.27-5.89L89.18,143a33.08,33.08,0,0,0,1.67-13.39,8.76,8.76,0,0,0-4.35-6.88l-4.35-2.53a4.54,4.54,0,0,1-1.81-5.89l0-.06a4.54,4.54,0,0,1,4.09-2.57m0-1.76a6.34,6.34,0,0,0-5.68,3.57l0,.06a6.34,6.34,0,0,0,2.52,8.18l4.35,2.52a7,7,0,0,1,3.47,5.51,31.16,31.16,0,0,1-1.58,12.67l-1.74,5.09a6.3,6.3,0,0,0,4.54,8.18,6.31,6.31,0,0,0,7.5-4.5l4.12-15.26a6.07,6.07,0,0,0,.17-.93,26.63,26.63,0,0,0-3-15.8,13,13,0,0,0-4.27-4.66l0,0,0,0L91,112.19a18.71,18.71,0,0,0-4.91-2.1,6.37,6.37,0,0,0-1.62-.21Z"/><path class="cls-8" d="M91.94,143.18h0a5,5,0,0,1,5,5v5.61a.82.82,0,0,1-.82.82H87.75a.82.82,0,0,1-.82-.82V148.2A5,5,0,0,1,91.94,143.18Z" transform="translate(140.41 317.07) rotate(-164.38)"/><rect class="cls-9" x="113.26" y="69.57" width="6.74" height="52.09"/><path class="cls-7" d="M120,69.57h-6.74a14.4,14.4,0,0,1-2.57-2.6c-3.41-4.34-5.61-11.31-5.61-19.18s2.29-15.11,5.81-19.44A14.45,14.45,0,0,1,113.26,26H120a14.85,14.85,0,0,0-2.37,2.33c-3.52,4.33-5.82,11.42-5.82,19.44S114,62.63,117.43,67A14.74,14.74,0,0,0,120,69.57Z"/><rect class="cls-9" x="113.26" y="0.88" width="6.74" height="25.13"/><path class="cls-10" d="M117.63,28.36c-3.52,4.32-5.81,11.41-5.81,19.43S114,62.63,117.43,67a14.74,14.74,0,0,0,2.57,2.6v52.09H33.65V68.29A15.11,15.11,0,0,0,34.8,67c3.4-4.34,5.61-11.31,5.61-19.18s-2.3-15.11-5.82-19.43c-.31-.38-.62-.74-.94-1.07V.88H120V26A14.13,14.13,0,0,0,117.63,28.36Z"/><path class="cls-11" d="M110.89,28.35c-3.52,4.33-5.81,11.42-5.81,19.44s2.2,14.84,5.61,19.18a14.4,14.4,0,0,0,2.57,2.6v52.09H33.65V68.29A15.11,15.11,0,0,0,34.8,67c3.4-4.34,5.61-11.31,5.61-19.18s-2.3-15.11-5.82-19.44c-.3-.37-.62-.72-.94-1.06V.88h79.61V26A14.45,14.45,0,0,0,110.89,28.35Z"/><path class="cls-12" d="M110.89,28.35c-3.52,4.33-5.81,11.42-5.81,19.44s2.2,14.84,5.61,19.18a14.4,14.4,0,0,0,2.57,2.6v52.09H26.9V68.29A15.18,15.18,0,0,0,28.06,67c3.4-4.34,5.6-11.31,5.6-19.18s-2.29-15.11-5.81-19.44c-.31-.37-.62-.72-1-1.06V.88h86.36V26A14.45,14.45,0,0,0,110.89,28.35Z"/><path class="cls-13" d="M56.6.88H87a0,0,0,0,1,0,0V27.81A15.18,15.18,0,0,1,71.79,43h0A15.18,15.18,0,0,1,56.6,27.81V.88a0,0,0,0,1,0,0Z"/><line class="cls-14" x1="71.5" y1="0.96" x2="71.5" y2="43"/><circle class="cls-15" cx="79.9" cy="18.9" r="3.08"/><line class="cls-16" x1="113.26" y1="26.02" x2="120" y2="26.02"/><line class="cls-16" x1="113.26" y1="69.57" x2="120" y2="69.57"/><path class="cls-1" d="M155.58,123q-5.4,1.89-10.87,3.52c-5.93-16.68-12.43-27-17.17-32.9-5.79-7.24-10.19-9.63-10.63-9.86l0,0-.32-11.7c.65.29,11.51,4.35,19,13.38a101.07,101.07,0,0,1,11.84,18.41A158.53,158.53,0,0,1,155.58,123Z"/><path class="cls-17" d="M153.7,120.27c-1.62-2-5.41-1.47-8.48,1.07s-4.23,6.18-2.61,8.13,5.41,1.48,8.48-1.06S155.32,122.22,153.7,120.27Z"/><path class="cls-17" d="M150,121.84a4.79,4.79,0,0,1-5.72,1.49c-3.69-1.42-6.78-1.73-7.93,1-1,2.51.8,5.92,8.11,4.9,0,0-.67,7.07,6.81,5.29,0,0,4.15,6,12.11.36s-5.25-12.58-5.25-12.58L152,122Z"/><path class="cls-17" d="M157.76,132.54s2.26-7.48,7.5-5.14.66,15.51-3.08,14.17-1.8-6.68.09-9.09"/><path class="cls-17" d="M154.17,129.48s.21-7.81,5.87-6.93,4.73,14.78.77,14.48-3.5-6-2.3-8.79"/><path class="cls-17" d="M148.69,125.76s-.15-7.81,5.55-7.21,5.42,14.55,1.45,14.43-3.78-5.79-2.72-8.67"/><path class="cls-18" d="M46.91,50.28s6-6.21,11.71,0"/><path class="cls-18" d="M79.33,50.28s6-6.21,11.71,0"/><ellipse class="cls-19" cx="54.89" cy="72.46" rx="11.21" ry="16.59"/><ellipse class="cls-20" cx="58.53" cy="78.13" rx="5.77" ry="8.54"/><circle class="cls-3" cx="56.17" cy="75.01" r="2.21"/><ellipse class="cls-19" cx="84.81" cy="71.58" rx="11.21" ry="16.59"/><ellipse class="cls-20" cx="88.67" cy="77.22" rx="5.77" ry="8.54"/><circle class="cls-3" cx="86.46" cy="74.09" r="2.21"/><path class="cls-21" d="M79.68,100.2a3.85,3.85,0,0,1,.43,7.38A31.27,31.27,0,0,1,47,99.84a3.85,3.85,0,0,1,5.56-5.34,23.56,23.56,0,0,0,24.93,5.83A3.89,3.89,0,0,1,79.68,100.2Z"/><path class="cls-22" d="M50.09,95.91a1.38,1.38,0,0,1,.63.36,26.12,26.12,0,0,0,27.65,6.47,1.29,1.29,0,0,1,.88,2.43,28.7,28.7,0,0,1-30.39-7.11,1.29,1.29,0,0,1,1.23-2.15Z"/></g></g></svg>