<svg xmlns="http://www.w3.org/2000/svg" viewBox="0 0 120.26 180.12"><defs><style>.cls-1,.cls-15,.cls-5{fill:#d88500;}.cls-1,.cls-10,.cls-11,.cls-13,.cls-14,.cls-17,.cls-18,.cls-2,.cls-20,.cls-22,.cls-23,.cls-24,.cls-25,.cls-26,.cls-27,.cls-4,.cls-5,.cls-6,.cls-7{stroke:#000;}.cls-1,.cls-17,.cls-23,.cls-4,.cls-7{stroke-linecap:round;}.cls-1,.cls-17,.cls-4{stroke-linejoin:round;}.cls-1{stroke-width:1.14px;}.cls-11,.cls-2,.cls-24,.cls-3,.cls-4,.cls-6{fill:#fff;}.cls-10,.cls-11,.cls-13,.cls-14,.cls-18,.cls-2,.cls-20,.cls-21,.cls-22,.cls-23,.cls-24,.cls-25,.cls-26,.cls-27,.cls-5,.cls-6,.cls-7{stroke-miterlimit:10;}.cls-2{stroke-width:0.75px;}.cls-4{stroke-width:0.79px;}.cls-5{stroke-width:0.76px;}.cls-6,.cls-7{stroke-width:0.74px;}.cls-19,.cls-20,.cls-21,.cls-22,.cls-23,.cls-7{fill:none;}.cls-8{fill:#e5e5e5;}.cls-9{fill:#760dc9;}.cls-10{fill:#d7840b;stroke-width:1.26px;}.cls-11{stroke-width:1.16px;}.cls-12{fill:#fbccac;}.cls-13{fill:#ff7bac;}.cls-13,.cls-14,.cls-22,.cls-23{stroke-width:1.51px;}.cls-14{fill:#ccc;}.cls-16{fill:#f9b233;}.cls-17{stroke-width:0.01px;}.cls-18{fill:#666;}.cls-18,.cls-24{stroke-width:0.75px;}.cls-20{stroke-width:1.13px;}.cls-21{stroke:#bf720c;stroke-width:0.6px;}.cls-25{stroke-width:0.1px;}.cls-26{fill:#ffd18f;stroke-width:0.37px;}.cls-27{stroke-width:0.06px;}</style></defs><title>l12</title><g id="Layer_2" data-name="Layer 2"><g id="personaje"><path class="cls-1" d="M7.73,118c2.48.5,5,.93,7.48,1.31,2.35-11.52,5.67-18.89,8.24-23.23,3.13-5.3,5.8-7.29,6.07-7.48l0,0-.87-7.73c-.4.26-7.17,3.93-11.25,10.57a66.91,66.91,0,0,0-6.07,13.21A103.41,103.41,0,0,0,7.73,118Z"/><path class="cls-2" d="M3.81,122.11s-1.47-3.71,3.63-5.53c5.9-2.11,13.88,3.11,9.33,7.63Z"/><ellipse class="cls-3" cx="10.04" cy="123.59" rx="5.95" ry="4.58"/><path class="cls-4" d="M8.8,119.16c-3.6.13-6.38,2.35-7.81,8-.91,3.82-.76,6.76.32,9a2.62,2.62,0,0,0,3.05,1.36h0l.53-3.2"/><path class="cls-4" d="M4.2,129.16a13,13,0,0,0-1,7.27,6.86,6.86,0,0,0,2.33,4.27,2.14,2.14,0,0,0,2,.52h0a1.38,1.38,0,0,0,.87-1.78l-.63-1.77A9.62,9.62,0,0,1,7.3,135a22.07,22.07,0,0,1,.41-4.86,14.34,14.34,0,0,0,.68,9.22,3.55,3.55,0,0,0,1.93,1.84h0a1.83,1.83,0,0,0,2-.43l.29-.3a3.06,3.06,0,0,0,.86-2.12h0a2.53,2.53,0,0,0-.2-1l-.27-.63a8.12,8.12,0,0,1-.61-4l.29-2.83a.15.15,0,0,1,.29,0,13.51,13.51,0,0,0,.49,2.66,6.25,6.25,0,0,0,1.31,2.36l.19.21a2.43,2.43,0,0,0,1.35.79,1.91,1.91,0,0,0,1.26-.17,2.08,2.08,0,0,0,.91-2.65l-.53-1.28a8.82,8.82,0,0,1-.6-4.57l.1-.74a4.84,4.84,0,0,0-.25-2.29h0a6.7,6.7,0,0,0-1.93-2.82l-1.44-1.27"/><path class="cls-5" d="M57.56,80l.7,9.53c.7-.05,7-.6,15.66-4.87a64.43,64.43,0,0,0,14.27-9.73A78.36,78.36,0,0,0,101,60l-8-5.56c-6.4,9.69-14.14,16.89-23,21.43A37.94,37.94,0,0,1,57.56,80Z"/><path class="cls-6" d="M94.32,50.06s-3.6,2.13-1.41,6.74c2.53,5.34,11.6,6,11.68-.53Z"/><path class="cls-6" d="M93.72,50.14c.25-4-5-6.46-5.84-9.35-1-3.32,2.9-7.89,8.36,1,0,0,2-5.14.93-9.36-1.23-4.78,2.92-6.68,4.93-4.58,1.83,1.92,1.73,8.21.54,11.58a.78.78,0,0,0,.63,1l.18,0a.77.77,0,0,0,.84-.5,55.35,55.35,0,0,0,2.38-8.45c.51-3.89,7.51-2.93,6.9,2.25-.48,4.09-3.35,7.28-4.55,8.45a.76.76,0,0,0,0,1h0a.78.78,0,0,0,1,.14,74.79,74.79,0,0,0,6.3-4.88c2.42-2.21,8.32,4.88-3.81,10,0,0-1.46,8.71-9.61,8.49C93.57,56.78,93.72,50.14,93.72,50.14Z"/><path class="cls-7" d="M97.59,43.91s5.88,1.2,3.68,7.12"/><path class="cls-8" d="M15.42,176.15A25.45,25.45,0,0,0,18,174.9c.24-.13,4.24-2.34,5.74-2.87h0a52.06,52.06,0,0,1,7.39-1.43l.28,0a7.52,7.52,0,0,0,1.36-.34,6.94,6.94,0,0,0,4.54-5.33,3.82,3.82,0,0,1,.14,4.55c-2.16,3-4.7,3.4-7.91,3.93a35.15,35.15,0,0,0-4.48,1,40.12,40.12,0,0,0-6.57,2.76c-3,1.49-5.16,2.58-8.74,2a4.85,4.85,0,0,1-3.61-3.43A10.84,10.84,0,0,0,15.42,176.15Z"/><path class="cls-9" d="M10.82,163.17a11.72,11.72,0,0,1,4.88-.66h0A7.12,7.12,0,0,1,20.25,165a.45.45,0,1,0,.66-.6,9.28,9.28,0,0,0-3-2.24,9.34,9.34,0,0,1,1.91-4.38,13.28,13.28,0,0,0,3.44-.32h0a.45.45,0,0,0-.25-.87,11.41,11.41,0,0,1-3.39.29h0c-1.64-.13-2.83-.71-3.17-1.66-.65-1.84,2.09-4.56,6-5.94s7.75-1,8.4.85c.36,1-.3,2.32-1.7,3.53,0,0,0,0,0,.05A11.82,11.82,0,0,1,27.38,155a.45.45,0,0,0-.17.61.46.46,0,0,0,.62.17,13.83,13.83,0,0,0,1.71-1.19,9.38,9.38,0,0,1,6.5,6,9.57,9.57,0,0,1,.54,3.26v.06a6.06,6.06,0,0,1-5.24,5.85l-.28,0a51.83,51.83,0,0,0-7.55,1.47,58.59,58.59,0,0,0-5.93,3h0a25.72,25.72,0,0,1-2.44,1.18c-3.51,1.24-7.26.78-9.34-1.15a4.81,4.81,0,0,1-1.28-1.92C3.31,168.89,6.15,164.82,10.82,163.17Z"/><path d="M3.64,172.54A5.81,5.81,0,0,0,5,174.7a7.47,7.47,0,0,0,.67,2.05,5.48,5.48,0,0,0,4,3.18c3.87.66,6.26-.54,9.29-2.05a40.08,40.08,0,0,1,6.44-2.7,32.11,32.11,0,0,1,4.35-.93,24.28,24.28,0,0,0,4-.9A9,9,0,0,0,38.24,170c1-1.45,1.45-4-.76-6.38a10.6,10.6,0,0,0-.59-3.39,10.24,10.24,0,0,0-6.58-6.36c1.29-1.33,1.82-2.76,1.39-4-.85-2.38-5-3-9.55-1.4s-7.38,4.71-6.54,7.09a3.8,3.8,0,0,0,3.17,2.15,10.41,10.41,0,0,0-1.72,4.17,5.78,5.78,0,0,0-1.29-.26,12.62,12.62,0,0,0-5.25.71C5.38,164.14,2.29,168.72,3.64,172.54Zm2.56,3.07a10.84,10.84,0,0,0,9.22.54A25.45,25.45,0,0,0,18,174.9c.24-.13,4.24-2.34,5.74-2.87h0a52.06,52.06,0,0,1,7.39-1.43l.28,0a7.52,7.52,0,0,0,1.36-.34,6.94,6.94,0,0,0,4.54-5.33,3.82,3.82,0,0,1,.14,4.55c-2.16,3-4.7,3.4-7.91,3.93a35.15,35.15,0,0,0-4.48,1,40.12,40.12,0,0,0-6.57,2.76c-3,1.49-5.16,2.58-8.74,2A4.85,4.85,0,0,1,6.2,175.61Zm-1.71-3.37c-1.18-3.35,1.66-7.42,6.33-9.07a11.72,11.72,0,0,1,4.88-.66h0A7.12,7.12,0,0,1,20.25,165a.45.45,0,1,0,.66-.6,9.28,9.28,0,0,0-3-2.24,9.34,9.34,0,0,1,1.91-4.38,13.28,13.28,0,0,0,3.44-.32h0a.45.45,0,0,0-.25-.87,11.41,11.41,0,0,1-3.39.29h0c-1.64-.13-2.83-.71-3.17-1.66-.65-1.84,2.09-4.56,6-5.94s7.75-1,8.4.85c.36,1-.3,2.32-1.7,3.53,0,0,0,0,0,.05A11.82,11.82,0,0,1,27.38,155a.45.45,0,0,0-.17.61.46.46,0,0,0,.62.17,13.83,13.83,0,0,0,1.71-1.19,9.38,9.38,0,0,1,6.5,6,9.57,9.57,0,0,1,.54,3.26v.06a6.06,6.06,0,0,1-5.24,5.85l-.28,0a51.83,51.83,0,0,0-7.55,1.47,58.59,58.59,0,0,0-5.93,3h0a25.72,25.72,0,0,1-2.44,1.18c-3.51,1.24-7.26.78-9.34-1.15A4.81,4.81,0,0,1,4.49,172.24Z"/><path class="cls-10" d="M27.94,118.33h0a3.82,3.82,0,0,1,4.42,2l0,0a3.81,3.81,0,0,1-1.52,5l-3.66,2.12a7.39,7.39,0,0,0-3.65,5.79h0A27.77,27.77,0,0,0,25,144.53l1.46,4.28a3.8,3.8,0,0,1-2.74,4.95h0A3.83,3.83,0,0,1,19.12,151l-3.46-12.83a3.89,3.89,0,0,1-.1-.56h0A21,21,0,0,1,18,125.23h0a9.51,9.51,0,0,1,3.1-3.39l3.15-1.92A14.13,14.13,0,0,1,27.94,118.33Z"/><path class="cls-11" d="M19.1,144.72h7.05a.69.69,0,0,1,.69.69v4.72a4.22,4.22,0,0,1-4.22,4.22h0a4.22,4.22,0,0,1-4.22-4.22v-4.72a.69.69,0,0,1,.69-.69Z" transform="translate(-39.42 11.61) rotate(-15.62)"/><path class="cls-8" d="M64.78,176.15a25.45,25.45,0,0,1-2.6-1.25c-.24-.13-4.24-2.34-5.74-2.87h0A52.06,52.06,0,0,0,49,170.59l-.28,0a7.52,7.52,0,0,1-1.36-.34,6.94,6.94,0,0,1-4.54-5.33,3.82,3.82,0,0,0-.14,4.55c2.16,3,4.7,3.4,7.91,3.93a35.15,35.15,0,0,1,4.48,1,40.12,40.12,0,0,1,6.57,2.76c3,1.49,5.16,2.58,8.74,2A4.85,4.85,0,0,0,74,175.61,10.84,10.84,0,0,1,64.78,176.15Z"/><path class="cls-9" d="M69.38,163.17a11.72,11.72,0,0,0-4.88-.66h0A7.1,7.1,0,0,0,60,165a.45.45,0,1,1-.66-.6,9.28,9.28,0,0,1,3-2.24,9.34,9.34,0,0,0-1.91-4.38,13.28,13.28,0,0,1-3.44-.32h0a.45.45,0,0,1,.25-.87,11.41,11.41,0,0,0,3.39.29h0c1.64-.13,2.83-.71,3.17-1.66.65-1.84-2.09-4.56-6-5.94s-7.75-1-8.4.85c-.36,1,.3,2.32,1.7,3.53l.05.05A11.82,11.82,0,0,0,52.82,155a.45.45,0,0,1,.17.61.46.46,0,0,1-.62.17,13.83,13.83,0,0,1-1.71-1.19,9.38,9.38,0,0,0-6.5,6,9.57,9.57,0,0,0-.54,3.26v.06a6.06,6.06,0,0,0,5.24,5.85l.28,0a51.83,51.83,0,0,1,7.55,1.47,58.59,58.59,0,0,1,5.93,3h0a25.72,25.72,0,0,0,2.44,1.18c3.51,1.24,7.26.78,9.34-1.15a4.81,4.81,0,0,0,1.28-1.92C76.89,168.89,74.05,164.82,69.38,163.17Z"/><path d="M76.56,172.54a5.81,5.81,0,0,1-1.39,2.16,7.47,7.47,0,0,1-.67,2.05,5.48,5.48,0,0,1-4,3.18c-3.87.66-6.26-.54-9.29-2.05a40.08,40.08,0,0,0-6.44-2.7,32.11,32.11,0,0,0-4.35-.93,24.28,24.28,0,0,1-4-.9A9,9,0,0,1,42,170c-1-1.45-1.45-4,.76-6.38a10.6,10.6,0,0,1,.59-3.39,10.24,10.24,0,0,1,6.58-6.36c-1.29-1.33-1.82-2.76-1.39-4,.85-2.38,5-3,9.55-1.4s7.38,4.71,6.53,7.09c-.39,1.12-1.55,1.86-3.16,2.15a10.41,10.41,0,0,1,1.72,4.17,5.68,5.68,0,0,1,1.29-.26,12.62,12.62,0,0,1,5.25.71C74.82,164.14,77.91,168.72,76.56,172.54ZM74,175.61a10.84,10.84,0,0,1-9.22.54,25.45,25.45,0,0,1-2.6-1.25c-.24-.13-4.24-2.34-5.74-2.87h0A52.06,52.06,0,0,0,49,170.59l-.28,0a7.52,7.52,0,0,1-1.36-.34,6.94,6.94,0,0,1-4.54-5.33,3.82,3.82,0,0,0-.14,4.55c2.16,3,4.7,3.4,7.91,3.93a35.15,35.15,0,0,1,4.48,1,40.12,40.12,0,0,1,6.57,2.76c3,1.49,5.16,2.58,8.74,2A4.85,4.85,0,0,0,74,175.61Zm1.71-3.37c1.18-3.35-1.66-7.42-6.33-9.07a11.72,11.72,0,0,0-4.88-.66h0A7.1,7.1,0,0,0,60,165a.45.45,0,1,1-.66-.6,9.28,9.28,0,0,1,3-2.24,9.34,9.34,0,0,0-1.91-4.38,13.28,13.28,0,0,1-3.44-.32h0a.45.45,0,0,1,.25-.87,11.41,11.41,0,0,0,3.39.29h0c1.64-.13,2.83-.71,3.17-1.66.65-1.84-2.09-4.56-6-5.94s-7.75-1-8.4.85c-.36,1,.3,2.32,1.7,3.53l.05.05A11.82,11.82,0,0,0,52.82,155a.45.45,0,0,1,.17.61.46.46,0,0,1-.62.17,13.83,13.83,0,0,1-1.71-1.19,9.38,9.38,0,0,0-6.5,6,9.57,9.57,0,0,0-.54,3.26v.06a6.06,6.06,0,0,0,5.24,5.85l.28,0a51.83,51.83,0,0,1,7.55,1.47,58.59,58.59,0,0,1,5.93,3h0a25.72,25.72,0,0,0,2.44,1.18c3.51,1.24,7.26.78,9.34-1.15A4.81,4.81,0,0,0,75.71,172.24Z"/><path class="cls-10" d="M52,118.1h0a3.82,3.82,0,0,0-4.42,2l0,.05a3.81,3.81,0,0,0,1.52,4.95l3.66,2.12A7.39,7.39,0,0,1,56.39,133h0A27.77,27.77,0,0,1,55,144.3l-1.46,4.28a3.8,3.8,0,0,0,2.74,4.95h0a3.83,3.83,0,0,0,4.55-2.72L64.28,138a3.45,3.45,0,0,0,.1-.56h0A21,21,0,0,0,62,125h0a9.43,9.43,0,0,0-3.1-3.39l-3.15-1.92A14.13,14.13,0,0,0,52,118.1Z"/><path class="cls-11" d="M57.31,144.49h0a4.22,4.22,0,0,1,4.22,4.22v4.72a.69.69,0,0,1-.69.69H53.79a.69.69,0,0,1-.69-.69V148.7a4.22,4.22,0,0,1,4.22-4.22Z" transform="translate(72.32 308.52) rotate(-164.38)"/><polygon class="cls-12" points="59.03 25.73 53.27 31.54 47.63 25.73 42.01 31.54 36.36 25.73 30.72 31.54 25 25.73 41.99 1.32 59.03 25.73"/><path class="cls-13" d="M58.44,119a14.66,14.66,0,0,1-3,5.84C50.53,130.51,43,130.15,42,130.08a18,18,0,0,1-12.79-5.17A16.72,16.72,0,0,1,25.53,119Z"/><path class="cls-14" d="M58.73,104.72l0,13.15c-.06.33-.15.71-.26,1.13H25.53c-.19-.51-.33-1-.44-1.37V104.72Z"/><path class="cls-15" d="M59,25.73V35.88s-.24,45.89-.3,68.84H47.63v-79l5.64,5.81Z"/><polygon class="cls-15" points="36.34 25.71 36.34 104.7 25.07 104.7 24.98 35.86 24.98 25.71 30.7 31.52 36.34 25.71"/><polygon class="cls-16" points="47.63 25.73 47.63 104.72 36.36 104.72 36.36 25.73 42.01 31.54 47.63 25.73"/><path class="cls-17" d="M38.26,6.93a5.41,5.41,0,0,0,7.29,0L42,1.32Z"/><line class="cls-18" x1="25.09" y1="107.35" x2="58.94" y2="107.35"/><line class="cls-18" x1="25.09" y1="116.51" x2="58.94" y2="116.51"/><line class="cls-19" x1="47.63" y1="25.73" x2="47.63" y2="25.69"/><line class="cls-20" x1="36.36" y1="104.73" x2="36.36" y2="104.72"/><line class="cls-20" x1="36.36" y1="25.73" x2="36.36" y2="25.73"/><line class="cls-21" x1="47.63" y1="25.69" x2="47.63" y2="104.72"/><line class="cls-21" x1="36.36" y1="25.77" x2="36.36" y2="104.72"/><path class="cls-22" d="M59,25.73,42,1.32,25,25.73V35.88l.09,68.84H58.73c.07-23,.3-68.84.3-68.84Z"/><polyline class="cls-22" points="25 25.73 30.72 31.54 36.36 25.73 42.01 31.54 47.63 25.73 53.27 31.54 59.03 25.73"/><path class="cls-23" d="M28,45.28s3.71-3.87,7.3,0"/><path class="cls-23" d="M48.15,45.28s3.71-3.87,7.3,0"/><ellipse class="cls-24" cx="32.92" cy="59.09" rx="6.98" ry="10.34"/><ellipse class="cls-25" cx="35.19" cy="62.63" rx="3.59" ry="5.32"/><circle class="cls-3" cx="33.72" cy="60.68" r="1.38"/><ellipse class="cls-24" cx="51.56" cy="58.55" rx="6.98" ry="10.34"/><ellipse class="cls-25" cx="53.97" cy="62.06" rx="3.59" ry="5.32"/><circle class="cls-3" cx="52.59" cy="60.11" r="1.38"/><path class="cls-26" d="M52.48,73.11a2.75,2.75,0,0,1,1.5,5,22.3,22.3,0,0,1-24.23,0,2.75,2.75,0,0,1,3-4.61,16.77,16.77,0,0,0,18.25,0A2.72,2.72,0,0,1,52.48,73.11Z"/><path class="cls-27" d="M31.25,74.93a.94.94,0,0,1,.5.15,18.59,18.59,0,0,0,20.23,0,.93.93,0,0,1,1,1.55,20.48,20.48,0,0,1-22.25,0,.93.93,0,0,1,.51-1.7Z"/></g></g></svg>