<svg xmlns="http://www.w3.org/2000/svg" viewBox="0 0 123.84 158.16"><defs><style>.cls-1,.cls-7{fill:#003b49;}.cls-1,.cls-10,.cls-11,.cls-12,.cls-13,.cls-14,.cls-15,.cls-16,.cls-17,.cls-18,.cls-19,.cls-2,.cls-20,.cls-21,.cls-4,.cls-8{stroke:#000;}.cls-1,.cls-10,.cls-11,.cls-12,.cls-13,.cls-14,.cls-15,.cls-16,.cls-17,.cls-18,.cls-19,.cls-2,.cls-20,.cls-21,.cls-8{stroke-miterlimit:10;}.cls-1,.cls-10,.cls-12{stroke-width:1.5px;}.cls-18,.cls-2,.cls-3,.cls-4,.cls-8{fill:#fff;}.cls-2{stroke-width:0.76px;}.cls-17,.cls-4{stroke-linecap:round;}.cls-4{stroke-linejoin:round;stroke-width:0.8px;}.cls-5{fill:#e5e5e5;}.cls-6{fill:#bf4400;}.cls-8{stroke-width:1.17px;}.cls-11,.cls-9{fill:#00607a;}.cls-10,.cls-16,.cls-17{fill:none;}.cls-11,.cls-16{stroke-width:0.88px;}.cls-12{fill:#3291b2;}.cls-13,.cls-14,.cls-15{fill:#b3b3b3;}.cls-13{stroke-width:0.65px;}.cls-14{stroke-width:0.38px;}.cls-15{stroke-width:0.44px;}.cls-17{stroke-width:2.06px;}.cls-18{stroke-width:1.03px;}.cls-19{stroke-width:0.13px;}.cls-20{fill:#75c6d3;stroke-width:0.67px;}.cls-21{stroke-width:0.08px;}</style></defs><title>l13</title><g id="Layer_2" data-name="Layer 2"><g id="personaje"><path class="cls-1" d="M6.42,101.77q3.83.35,7.67.51C15.23,90.42,17.78,82.64,19.9,78c2.59-5.68,5.07-8,5.32-8.18l0,0-1.71-7.69A33.61,33.61,0,0,0,13.29,74,67.06,67.06,0,0,0,8.58,88,105.15,105.15,0,0,0,6.42,101.77Z"/><path class="cls-2" d="M2.91,106.33S1,102.75,6,100.37c5.72-2.76,14.33,1.64,10.23,6.69Z"/><ellipse class="cls-3" cx="9.34" cy="107.15" rx="6.03" ry="4.64" transform="translate(-11.29 1.59) rotate(-6.08)"/><path class="cls-4" d="M7.61,102.82c-3.61.52-6.17,3.06-7,8.87-.51,3.94,0,6.89,1.28,9a2.67,2.67,0,0,0,3.22,1h0l.2-3.29"/><path class="cls-4" d="M4.05,113.39a13.25,13.25,0,0,0-.19,7.43,7,7,0,0,0,2.81,4.06,2.13,2.13,0,0,0,2.09.3h0a1.39,1.39,0,0,0,.68-1.88l-.82-1.71A9.5,9.5,0,0,1,7.81,119a22.57,22.57,0,0,1-.11-5,14.46,14.46,0,0,0,1.68,9.23,3.57,3.57,0,0,0,2.13,1.65h0a1.86,1.86,0,0,0,2-.65l.26-.33a3.11,3.11,0,0,0,.63-2.24h0a2.45,2.45,0,0,0-.3-1l-.34-.6a8.18,8.18,0,0,1-1-3.93l0-2.89a.15.15,0,0,1,.29,0,15.1,15.1,0,0,0,.78,2.62,6.18,6.18,0,0,0,1.58,2.23l.21.2a2.55,2.55,0,0,0,1.45.66,1.9,1.9,0,0,0,1.25-.32,2.11,2.11,0,0,0,.63-2.77l-.67-1.22a8.93,8.93,0,0,1-1.09-4.55l0-.75a4.87,4.87,0,0,0-.5-2.28h0a6.92,6.92,0,0,0-2.24-2.65l-1.6-1.11"/><path class="cls-1" d="M117.46,102q-3.83.34-7.67.49c-1.1-11.87-3.62-19.65-5.73-24.32-2.57-5.68-5-8-5.29-8.2l0,0,1.74-7.69a33.86,33.86,0,0,1,10.16,11.9,67.78,67.78,0,0,1,4.66,14A105.39,105.39,0,0,1,117.46,102Z"/><path class="cls-2" d="M121,106.6s1.9-3.56-3-6c-5.72-2.78-14.34,1.6-10.25,6.66Z"/><ellipse class="cls-3" cx="114.52" cy="107.41" rx="4.64" ry="6.03" transform="translate(-4.75 209.52) rotate(-83.73)"/><path class="cls-4" d="M116.26,103.08c3.62.53,6.17,3.08,7,8.89.49,3.94,0,6.9-1.31,9a2.67,2.67,0,0,1-3.23,1h0l-.18-3.29"/><path class="cls-4" d="M119.79,113.66a13.29,13.29,0,0,1,.17,7.44,7,7,0,0,1-2.83,4.05,2.16,2.16,0,0,1-2.09.29h0a1.4,1.4,0,0,1-.68-1.89l.83-1.71a9.68,9.68,0,0,0,.85-2.62,22.55,22.55,0,0,0,.12-4.95,14.43,14.43,0,0,1-1.71,9.22,3.55,3.55,0,0,1-2.14,1.65h0a1.87,1.87,0,0,1-2-.66l-.26-.33a3.11,3.11,0,0,1-.63-2.24h0a2.64,2.64,0,0,1,.31-1l.34-.6a8.08,8.08,0,0,0,1.05-3.93l0-2.89a.15.15,0,0,0-.29,0,14,14,0,0,1-.79,2.62,6.27,6.27,0,0,1-1.58,2.23l-.22.19a2.46,2.46,0,0,1-1.44.66,2,2,0,0,1-1.26-.32,2.11,2.11,0,0,1-.62-2.77l.68-1.23a9.09,9.09,0,0,0,1.11-4.54l0-.75a4.87,4.87,0,0,1,.5-2.28h0a6.87,6.87,0,0,1,2.26-2.64l1.6-1.11"/><path class="cls-5" d="M35.9,154.14a27.42,27.42,0,0,0,2.64-1.27A62.93,62.93,0,0,1,44.36,150l0,0a53.23,53.23,0,0,1,7.49-1.44l.28,0a7.75,7.75,0,0,0,1.38-.35,7.05,7.05,0,0,0,4.61-5.4,3.9,3.9,0,0,1,.14,4.62c-2.2,3-4.77,3.44-8,4a34.59,34.59,0,0,0-4.53,1,40.53,40.53,0,0,0-6.66,2.79c-3,1.52-5.24,2.62-8.87,2a4.93,4.93,0,0,1-3.66-3.48A11.06,11.06,0,0,0,35.9,154.14Z"/><path class="cls-6" d="M31.24,141a11.87,11.87,0,0,1,4.95-.67h0a7.2,7.2,0,0,1,4.58,2.57.46.46,0,0,0,.64,0,.45.45,0,0,0,0-.64,9.53,9.53,0,0,0-3-2.27,9.53,9.53,0,0,1,1.93-4.44,12.84,12.84,0,0,0,3.49-.32h0a.47.47,0,0,0,.29-.53.46.46,0,0,0-.54-.35,11.76,11.76,0,0,1-3.44.29h0c-1.67-.13-2.87-.72-3.21-1.68-.66-1.86,2.12-4.62,6.07-6s7.85-1,8.51.86c.37,1-.31,2.35-1.72,3.58l0,0A11.72,11.72,0,0,1,48,132.65a.45.45,0,1,0,.46.78,13.25,13.25,0,0,0,1.74-1.2,9.53,9.53,0,0,1,7.13,9.33v.06A6.13,6.13,0,0,1,52,147.55l-.28,0a53.4,53.4,0,0,0-7.66,1.48,66.26,66.26,0,0,0-6,3l0,0c-.64.39-2.35,1.14-2.48,1.19-3.56,1.26-7.36.79-9.47-1.16a4.85,4.85,0,0,1-1.3-2C23.62,146.78,26.5,142.65,31.24,141Z"/><path d="M24,150.47a5.74,5.74,0,0,0,1.4,2.19,7.69,7.69,0,0,0,.68,2.08,5.56,5.56,0,0,0,4,3.23c3.92.67,6.35-.55,9.42-2.08A39.76,39.76,0,0,1,46,153.15a33.44,33.44,0,0,1,4.42-.94,23.29,23.29,0,0,0,4.09-.92A9,9,0,0,0,59,147.86c1.06-1.47,1.48-4-.77-6.47a10.58,10.58,0,0,0-.6-3.43A10.4,10.4,0,0,0,51,131.51c1.3-1.35,1.84-2.79,1.4-4-.85-2.42-5.1-3-9.67-1.42s-7.48,4.77-6.63,7.19c.4,1.13,1.58,1.88,3.21,2.17a10.52,10.52,0,0,0-1.75,4.23,4.83,4.83,0,0,0-1.3-.26,12.77,12.77,0,0,0-5.32.72C25.73,142,22.6,146.61,24,150.47Zm2.58,3.12a11.06,11.06,0,0,0,9.35.55,27.42,27.42,0,0,0,2.64-1.27A62.93,62.93,0,0,1,44.36,150l0,0a53.23,53.23,0,0,1,7.49-1.44l.28,0a7.75,7.75,0,0,0,1.38-.35,7.05,7.05,0,0,0,4.61-5.4,3.9,3.9,0,0,1,.14,4.62c-2.2,3-4.77,3.44-8,4a34.59,34.59,0,0,0-4.53,1,40.53,40.53,0,0,0-6.66,2.79c-3,1.52-5.24,2.62-8.87,2A4.93,4.93,0,0,1,26.55,153.59Zm-1.73-3.42c-1.2-3.39,1.68-7.52,6.42-9.19a11.87,11.87,0,0,1,4.95-.67h0a7.2,7.2,0,0,1,4.58,2.57.46.46,0,0,0,.64,0,.45.45,0,0,0,0-.64,9.53,9.53,0,0,0-3-2.27,9.53,9.53,0,0,1,1.93-4.44,12.84,12.84,0,0,0,3.49-.32h0a.47.47,0,0,0,.29-.53.46.46,0,0,0-.54-.35,11.76,11.76,0,0,1-3.44.29h0c-1.67-.13-2.87-.72-3.21-1.68-.66-1.86,2.12-4.62,6.07-6s7.85-1,8.51.86c.37,1-.31,2.35-1.72,3.58l0,0A11.72,11.72,0,0,1,48,132.65a.45.45,0,1,0,.46.78,13.25,13.25,0,0,0,1.74-1.2,9.53,9.53,0,0,1,7.13,9.33v.06A6.13,6.13,0,0,1,52,147.55l-.28,0a53.4,53.4,0,0,0-7.66,1.48,66.26,66.26,0,0,0-6,3l0,0c-.64.39-2.35,1.14-2.48,1.19-3.56,1.26-7.36.79-9.47-1.16A4.85,4.85,0,0,1,24.82,150.17Z"/><path class="cls-7" d="M43.39,132.29a4.62,4.62,0,0,1-4.46-3.41l-3.51-13a5.43,5.43,0,0,1-.13-.68,22.06,22.06,0,0,1,2.52-13,10.27,10.27,0,0,1,3.4-3.71l3.21-2a14.76,14.76,0,0,1,4-1.7,4.38,4.38,0,0,1,1.19-.16,4.65,4.65,0,0,1,2.34,8.66l-3.71,2.15a6.75,6.75,0,0,0-3.33,5.28,27.37,27.37,0,0,0,1.38,11.11l1.49,4.34a4.6,4.6,0,0,1-3.33,6A4.55,4.55,0,0,1,43.39,132.29Z"/><path d="M49.59,95.39a3.88,3.88,0,0,1,3.48,2.19l0,0a3.87,3.87,0,0,1-1.55,5l-3.71,2.15a7.51,7.51,0,0,0-3.7,5.87,28.14,28.14,0,0,0,1.42,11.41l1.49,4.34a3.87,3.87,0,0,1-2.79,5,3.75,3.75,0,0,1-.87.1,3.86,3.86,0,0,1-3.73-2.86l-3.51-13a3.38,3.38,0,0,1-.11-.57,21.33,21.33,0,0,1,2.43-12.58,9.6,9.6,0,0,1,3.15-3.43l3.19-2a14.53,14.53,0,0,1,3.78-1.62,3.81,3.81,0,0,1,1-.13m0-1.5a5.33,5.33,0,0,0-1.38.18A15.54,15.54,0,0,0,44,95.86L40.84,97.8l0,0h0a11,11,0,0,0-3.64,4,22.68,22.68,0,0,0-2.6,13.47,5.12,5.12,0,0,0,.15.78l3.5,13a5.38,5.38,0,0,0,5.19,4,5.53,5.53,0,0,0,1.21-.13,5.38,5.38,0,0,0,3.87-7L47,121.6a26.59,26.59,0,0,1-1.34-10.8,6,6,0,0,1,3-4.7L52.31,104a5.39,5.39,0,0,0,2.14-7l0,0a5.37,5.37,0,0,0-4.83-3Z"/><path class="cls-8" d="M39.63,122.27h7.15a.7.7,0,0,1,.7.7v4.78A4.28,4.28,0,0,1,43.21,132h0a4.28,4.28,0,0,1-4.28-4.28V123A.7.7,0,0,1,39.63,122.27Z" transform="translate(-32.64 16.33) rotate(-15.62)"/><path class="cls-5" d="M85.94,154.14a26.31,26.31,0,0,1-2.64-1.27A64.26,64.26,0,0,0,77.48,150l0,0A53.23,53.23,0,0,0,70,148.5l-.28,0a7.75,7.75,0,0,1-1.38-.35,7,7,0,0,1-4.61-5.4,3.9,3.9,0,0,0-.14,4.62c2.19,3,4.77,3.44,8,4a34.59,34.59,0,0,1,4.53,1,40.53,40.53,0,0,1,6.66,2.79c3,1.52,5.23,2.62,8.86,2a4.9,4.9,0,0,0,3.66-3.48A11,11,0,0,1,85.94,154.14Z"/><path class="cls-6" d="M90.6,141a11.87,11.87,0,0,0-4.95-.67h0A7.2,7.2,0,0,0,81,142.88a.46.46,0,0,1-.64,0,.45.45,0,0,1,0-.64,9.53,9.53,0,0,1,3-2.27,9.63,9.63,0,0,0-1.93-4.44,12.81,12.81,0,0,1-3.49-.32h0a.46.46,0,0,1-.29-.53.45.45,0,0,1,.54-.35,11.69,11.69,0,0,0,3.43.29h0c1.66-.13,2.87-.72,3.21-1.68.66-1.86-2.12-4.62-6.07-6s-7.85-1-8.52.86c-.36,1,.31,2.35,1.73,3.58l0,0a11.83,11.83,0,0,0,1.76,1.24.45.45,0,0,1,.16.62.45.45,0,0,1-.62.16,13.25,13.25,0,0,1-1.74-1.2,9.49,9.49,0,0,0-6.58,6,9.34,9.34,0,0,0-.55,3.3v.06a6.13,6.13,0,0,0,5.31,5.93l.28,0a53.4,53.4,0,0,1,7.66,1.48,66.26,66.26,0,0,1,6,3l0,0a27.23,27.23,0,0,0,2.48,1.19c3.56,1.26,7.36.79,9.46-1.16a4.75,4.75,0,0,0,1.3-2C98.21,146.78,95.34,142.65,90.6,141Z"/><path d="M97.87,150.47a5.65,5.65,0,0,1-1.41,2.19,7.33,7.33,0,0,1-.67,2.08,5.58,5.58,0,0,1-4,3.23c-3.93.67-6.35-.55-9.43-2.08a39,39,0,0,0-6.52-2.74,33,33,0,0,0-4.41-.94,23.29,23.29,0,0,1-4.09-.92,9,9,0,0,1-4.52-3.43c-1.06-1.47-1.48-4,.77-6.47a10.58,10.58,0,0,1,.6-3.43,10.38,10.38,0,0,1,6.66-6.45c-1.3-1.35-1.84-2.79-1.4-4,.85-2.42,5.1-3,9.67-1.42s7.48,4.77,6.63,7.19c-.4,1.13-1.58,1.88-3.21,2.17a10.52,10.52,0,0,1,1.75,4.23,4.76,4.76,0,0,1,1.3-.26,12.8,12.8,0,0,1,5.32.72C96.11,142,99.24,146.61,97.87,150.47Zm-2.59,3.12a11,11,0,0,1-9.34.55,26.31,26.31,0,0,1-2.64-1.27A64.26,64.26,0,0,0,77.48,150l0,0A53.23,53.23,0,0,0,70,148.5l-.28,0a7.75,7.75,0,0,1-1.38-.35,7,7,0,0,1-4.61-5.4,3.9,3.9,0,0,0-.14,4.62c2.19,3,4.77,3.44,8,4a34.59,34.59,0,0,1,4.53,1,40.53,40.53,0,0,1,6.66,2.79c3,1.52,5.23,2.62,8.86,2A4.9,4.9,0,0,0,95.28,153.59ZM97,150.17c1.2-3.39-1.67-7.52-6.41-9.19a11.87,11.87,0,0,0-4.95-.67h0A7.2,7.2,0,0,0,81,142.88a.46.46,0,0,1-.64,0,.45.45,0,0,1,0-.64,9.53,9.53,0,0,1,3-2.27,9.63,9.63,0,0,0-1.93-4.44,12.81,12.81,0,0,1-3.49-.32h0a.46.46,0,0,1-.29-.53.45.45,0,0,1,.54-.35,11.69,11.69,0,0,0,3.43.29h0c1.66-.13,2.87-.72,3.21-1.68.66-1.86-2.12-4.62-6.07-6s-7.85-1-8.52.86c-.36,1,.31,2.35,1.73,3.58l0,0a11.83,11.83,0,0,0,1.76,1.24.45.45,0,0,1,.16.62.45.45,0,0,1-.62.16,13.25,13.25,0,0,1-1.74-1.2,9.49,9.49,0,0,0-6.58,6,9.34,9.34,0,0,0-.55,3.3v.06a6.13,6.13,0,0,0,5.31,5.93l.28,0a53.4,53.4,0,0,1,7.66,1.48,66.26,66.26,0,0,1,6,3l0,0a27.23,27.23,0,0,0,2.48,1.19c3.56,1.26,7.36.79,9.46-1.16A4.75,4.75,0,0,0,97,150.17Z"/><path class="cls-7" d="M78.19,132.06a4.7,4.7,0,0,1-1-.12,4.62,4.62,0,0,1-3.32-6l1.48-4.34a27.39,27.39,0,0,0,1.39-11.11,6.75,6.75,0,0,0-3.34-5.28l-3.71-2.15a4.65,4.65,0,0,1,3.53-8.51,15.17,15.17,0,0,1,4,1.71l3.18,1.94a10.33,10.33,0,0,1,3.42,3.72,21.93,21.93,0,0,1,2.52,13,5.1,5.1,0,0,1-.13.68l-3.51,13a4.62,4.62,0,0,1-4.45,3.42Z"/><path d="M72,95.16a3.74,3.74,0,0,1,1,.13,14.26,14.26,0,0,1,3.79,1.62L80,98.85a9.54,9.54,0,0,1,3.15,3.44h0a21.33,21.33,0,0,1,2.43,12.58,3.78,3.78,0,0,1-.1.57l-3.51,13a3.87,3.87,0,0,1-3.73,2.86,4.48,4.48,0,0,1-.88-.1,3.87,3.87,0,0,1-2.78-5L76,121.85a28.17,28.17,0,0,0,1.43-11.41,7.49,7.49,0,0,0-3.71-5.87L70,102.42a3.87,3.87,0,0,1-1.54-5l0-.05A3.87,3.87,0,0,1,72,95.16m0-1.51a5.41,5.41,0,0,0-4.84,3l0,0a5.4,5.4,0,0,0,2.15,7l3.7,2.15a6,6,0,0,1,3,4.69,26.57,26.57,0,0,1-1.35,10.8l-1.48,4.34a5.36,5.36,0,0,0,3.86,7,5.57,5.57,0,0,0,1.22.14,5.37,5.37,0,0,0,5.18-4l3.51-13A5.24,5.24,0,0,0,87,115a22.73,22.73,0,0,0-2.61-13.46,11,11,0,0,0-3.64-4l0,0h0l-3.19-1.95a15.91,15.91,0,0,0-4.18-1.78A5.4,5.4,0,0,0,72,93.65Z"/><path class="cls-8" d="M78.37,122h0a4.28,4.28,0,0,1,4.28,4.28v4.78a.7.7,0,0,1-.7.7H74.79a.7.7,0,0,1-.7-.7v-4.78A4.28,4.28,0,0,1,78.37,122Z" transform="translate(119.67 270.25) rotate(-164.38)"/><rect class="cls-9" x="96.54" y="59.29" width="5.74" height="44.4"/><path class="cls-7" d="M102.28,59.29H96.54a12.12,12.12,0,0,1-2.2-2.21c-2.9-3.7-4.78-9.64-4.78-16.34s2-12.89,5-16.57a13.19,13.19,0,0,1,2-2h5.74a13.14,13.14,0,0,0-2,2c-3,3.68-5,9.73-5,16.57s1.89,12.64,4.79,16.34A12.07,12.07,0,0,0,102.28,59.29Z"/><rect class="cls-9" x="96.54" y="0.75" width="5.74" height="21.42"/><path class="cls-10" d="M100.26,24.17c-3,3.68-5,9.73-5,16.57s1.89,12.64,4.79,16.34a12.07,12.07,0,0,0,2.19,2.21V103.7H28.68V58.21a13.71,13.71,0,0,0,1-1.13c2.9-3.7,4.78-9.64,4.78-16.34s-2-12.89-5-16.57c-.26-.32-.53-.63-.8-.91V.75h73.6V22.18A12.62,12.62,0,0,0,100.26,24.17Z"/><path class="cls-11" d="M94.51,24.17c-3,3.68-5,9.73-5,16.57s1.88,12.64,4.78,16.34a12.12,12.12,0,0,0,2.2,2.21v44.4H28.68V58.21a13.71,13.71,0,0,0,1-1.13c2.9-3.7,4.78-9.64,4.78-16.34s-2-12.89-5-16.57c-.26-.32-.53-.62-.8-.91V.75H96.54V22.17A13.19,13.19,0,0,0,94.51,24.17Z"/><path class="cls-12" d="M94.51,24.17c-3,3.68-5,9.73-5,16.57s1.88,12.64,4.78,16.34a12.12,12.12,0,0,0,2.2,2.21v44.4H22.93V58.21a12,12,0,0,0,1-1.13c2.9-3.7,4.78-9.64,4.78-16.34s-2-12.89-5-16.57c-.26-.32-.53-.62-.81-.91V.75H96.54V22.17A13.19,13.19,0,0,0,94.51,24.17Z"/><path class="cls-13" d="M48.24.75H74.13a0,0,0,0,1,0,0v23A12.94,12.94,0,0,1,61.18,36.65h0A12.94,12.94,0,0,1,48.24,23.71V.75A0,0,0,0,1,48.24.75Z"/><line class="cls-14" x1="60.94" y1="0.81" x2="60.94" y2="36.65"/><circle class="cls-15" cx="68.1" cy="16.11" r="2.62"/><line class="cls-16" x1="96.53" y1="22.18" x2="102.28" y2="22.18"/><line class="cls-16" x1="96.53" y1="59.29" x2="102.28" y2="59.29"/><path class="cls-17" d="M40,42.86s5.07-5.29,10,0"/><path class="cls-17" d="M67.62,42.86s5.07-5.29,10,0"/><ellipse class="cls-18" cx="46.78" cy="61.76" rx="9.55" ry="14.14"/><ellipse class="cls-19" cx="51.42" cy="62.32" rx="4.91" ry="7.28"/><circle class="cls-3" cx="50.36" cy="57.82" r="1.88"/><ellipse class="cls-18" cx="72.29" cy="61.01" rx="9.55" ry="14.14"/><ellipse class="cls-19" cx="76.64" cy="63.21" rx="4.91" ry="7.28"/><circle class="cls-3" cx="75.77" cy="58.45" r="1.88"/><path class="cls-20" d="M67.92,85.41a3.28,3.28,0,0,1,.36,6.29,26.66,26.66,0,0,1-28.21-6.6,3.29,3.29,0,1,1,4.74-4.56,20.08,20.08,0,0,0,21.25,5A3.21,3.21,0,0,1,67.92,85.41Z"/><path class="cls-21" d="M42.69,81.75a1,1,0,0,1,.54.31A22.28,22.28,0,0,0,66.8,87.57a1.1,1.1,0,1,1,.74,2.07,24.44,24.44,0,0,1-25.89-6.06,1.08,1.08,0,0,1,0-1.55A1.1,1.1,0,0,1,42.69,81.75Z"/></g></g></svg>