<svg xmlns="http://www.w3.org/2000/svg" viewBox="0 0 101.27 180.65"><defs><style>.cls-1,.cls-13{fill:#d88500;}.cls-1,.cls-11,.cls-12,.cls-15,.cls-16,.cls-18,.cls-2,.cls-20,.cls-21,.cls-22,.cls-23,.cls-24,.cls-25,.cls-26,.cls-27,.cls-4,.cls-5,.cls-8,.cls-9{stroke:#000;}.cls-1,.cls-15,.cls-21,.cls-4{stroke-linecap:round;}.cls-1,.cls-15,.cls-4{stroke-linejoin:round;}.cls-1{stroke-width:1.14px;}.cls-2,.cls-25,.cls-26,.cls-3,.cls-4,.cls-5,.cls-9{fill:#fff;}.cls-11,.cls-12,.cls-16,.cls-18,.cls-19,.cls-2,.cls-20,.cls-21,.cls-22,.cls-23,.cls-24,.cls-25,.cls-26,.cls-27,.cls-5,.cls-8,.cls-9{stroke-miterlimit:10;}.cls-2{stroke-width:0.75px;}.cls-4{stroke-width:0.79px;}.cls-5{stroke-width:0.8px;}.cls-6{fill:#e5e5e5;}.cls-7{fill:#760dc9;}.cls-8{fill:#d7840b;stroke-width:1.27px;}.cls-9{stroke-width:1.16px;}.cls-10{fill:#fbccac;}.cls-11{fill:#ff7bac;}.cls-11,.cls-12,.cls-20,.cls-21{stroke-width:1.51px;}.cls-12{fill:#ccc;}.cls-14{fill:#f9b233;}.cls-15{stroke-width:0.01px;}.cls-16{fill:#666;}.cls-16,.cls-26{stroke-width:0.76px;}.cls-17,.cls-18,.cls-19,.cls-20,.cls-21{fill:none;}.cls-18{stroke-width:1.13px;}.cls-19{stroke:#bf720c;stroke-width:0.6px;}.cls-22{fill:#abd6bd;stroke-width:0.29px;}.cls-23{fill:#ffd18f;stroke-width:0.57px;}.cls-24,.cls-25{stroke-width:0.03px;}.cls-27{stroke-width:0.1px;}</style></defs><title>l13</title><g id="Layer_2" data-name="Layer 2"><g id="personaje"><path class="cls-1" d="M7.76,118.35c2.48.5,5,.94,7.49,1.31,2.36-11.55,5.69-18.94,8.27-23.3,3.14-5.31,5.82-7.3,6.09-7.5l0,0-.88-7.74A33.39,33.39,0,0,0,17.42,91.73,67.32,67.32,0,0,0,11.33,105,104.51,104.51,0,0,0,7.76,118.35Z"/><path class="cls-2" d="M3.83,122.47s-1.49-3.72,3.63-5.54c5.92-2.12,13.93,3.11,9.36,7.65Z"/><ellipse class="cls-3" cx="10.07" cy="123.96" rx="5.97" ry="4.59"/><path class="cls-4" d="M8.82,119.51c-3.61.14-6.39,2.36-7.83,8-.91,3.83-.75,6.78.32,9a2.63,2.63,0,0,0,3.06,1.37h0l.54-3.21"/><path class="cls-4" d="M4.21,129.54a13.05,13.05,0,0,0-1,7.29,7,7,0,0,0,2.33,4.29,2.15,2.15,0,0,0,2,.52h0a1.38,1.38,0,0,0,.87-1.79l-.63-1.77a9.76,9.76,0,0,1-.55-2.67,22.87,22.87,0,0,1,.41-4.88,14.36,14.36,0,0,0,.69,9.25,3.53,3.53,0,0,0,1.93,1.85h0a1.84,1.84,0,0,0,2-.43l.29-.3a3.08,3.08,0,0,0,.86-2.13h0a2.53,2.53,0,0,0-.2-1l-.27-.63a8,8,0,0,1-.61-4l.29-2.85a.15.15,0,0,1,.29,0,13.51,13.51,0,0,0,.49,2.66,6.1,6.1,0,0,0,1.32,2.37l.19.21a2.41,2.41,0,0,0,1.35.8,1.88,1.88,0,0,0,1.27-.18,2.09,2.09,0,0,0,.91-2.66L18,132.23a8.85,8.85,0,0,1-.6-4.58l.1-.74a5,5,0,0,0-.24-2.3h0a6.85,6.85,0,0,0-1.94-2.83l-1.45-1.27"/><path class="cls-1" d="M90.78,122q-4.52,1.59-9.1,3c-5-14-10.41-22.58-14.39-27.55-4.84-6.07-8.53-8.07-8.9-8.27l0,0-.27-9.8c.54.24,9.64,3.64,15.9,11.21A84.33,84.33,0,0,1,84,106,131.21,131.21,0,0,1,90.78,122Z"/><path class="cls-5" d="M89.21,119.7c-1.35-1.63-4.53-1.23-7.1.9s-3.55,5.18-2.19,6.81,4.53,1.24,7.1-.89S90.57,121.34,89.21,119.7Z"/><path class="cls-5" d="M86.08,121a4,4,0,0,1-4.78,1.25c-3.1-1.19-5.68-1.45-6.65.86-.87,2.1.67,5,6.8,4.1,0,0-.56,5.93,5.69,4.44,0,0,3.48,5,10.15.3s-4.4-10.54-4.4-10.54l-5.12-.27Z"/><path class="cls-5" d="M92.61,130s1.9-6.26,6.28-4.3.55,13-2.58,11.87-1.51-5.6.08-7.62"/><path class="cls-5" d="M89.6,127.42s.18-6.54,4.92-5.81,4,12.39.65,12.13-2.94-5-1.93-7.36"/><path class="cls-5" d="M85,124.3s-.14-6.54,4.64-6,4.54,12.18,1.22,12.08-3.17-4.85-2.28-7.26"/><path class="cls-6" d="M15.46,176.68a25,25,0,0,0,2.61-1.26c.24-.13,4.26-2.35,5.76-2.88h0a54.07,54.07,0,0,1,7.41-1.44l.28,0a7.61,7.61,0,0,0,1.37-.33,7,7,0,0,0,4.55-5.35,3.82,3.82,0,0,1,.14,4.57c-2.16,3-4.71,3.41-7.94,3.94a32,32,0,0,0-4.48,1,40,40,0,0,0-6.59,2.76c-3,1.51-5.18,2.59-8.77,2a4.86,4.86,0,0,1-3.62-3.45A10.89,10.89,0,0,0,15.46,176.68Z"/><path class="cls-7" d="M10.85,163.66a11.64,11.64,0,0,1,4.9-.67h0a7.12,7.12,0,0,1,4.53,2.54.45.45,0,0,0,.64,0,.46.46,0,0,0,0-.64,9.59,9.59,0,0,0-3-2.24,9.32,9.32,0,0,1,1.91-4.39,13.36,13.36,0,0,0,3.45-.32l.05,0a.44.44,0,0,0,.29-.52.46.46,0,0,0-.54-.34,12.18,12.18,0,0,1-3.4.29h-.05c-1.64-.14-2.83-.72-3.17-1.66-.65-1.85,2.1-4.58,6-6s7.77-1,8.42.86c.36,1-.3,2.32-1.7,3.54l0,0a10.77,10.77,0,0,1-1.73,1.22.45.45,0,1,0,.45.78A12.08,12.08,0,0,0,29.63,155a9.4,9.4,0,0,1,6.52,6,9.57,9.57,0,0,1,.54,3.26v.07a6.07,6.07,0,0,1-5.26,5.86l-.28,0a53.46,53.46,0,0,0-7.57,1.48,60.11,60.11,0,0,0-5.95,3h0c-.63.39-2.33,1.13-2.45,1.18-3.52,1.24-7.29.79-9.37-1.15a4.76,4.76,0,0,1-1.29-1.93C3.32,169.39,6.17,165.31,10.85,163.66Z"/><path d="M3.65,173.05a5.75,5.75,0,0,0,1.4,2.17,7.47,7.47,0,0,0,.67,2.05,5.45,5.45,0,0,0,4,3.2c3.88.66,6.28-.54,9.32-2.06a38.91,38.91,0,0,1,6.45-2.71,32.7,32.7,0,0,1,4.37-.93,23.63,23.63,0,0,0,4-.91,8.9,8.9,0,0,0,4.48-3.4c1-1.44,1.46-4-.76-6.4a10.65,10.65,0,0,0-.59-3.39,10.25,10.25,0,0,0-6.6-6.38c1.29-1.34,1.82-2.77,1.39-4-.84-2.39-5.05-3-9.57-1.41s-7.4,4.73-6.56,7.12a3.82,3.82,0,0,0,3.18,2.15,10.27,10.27,0,0,0-1.73,4.18,5.78,5.78,0,0,0-1.29-.26,12.73,12.73,0,0,0-5.27.72C5.4,164.63,2.3,169.23,3.65,173.05Zm2.57,3.08a10.89,10.89,0,0,0,9.24.55,25,25,0,0,0,2.61-1.26c.24-.13,4.26-2.35,5.76-2.88h0a54.07,54.07,0,0,1,7.41-1.44l.28,0a7.61,7.61,0,0,0,1.37-.33,7,7,0,0,0,4.55-5.35,3.82,3.82,0,0,1,.14,4.57c-2.16,3-4.71,3.41-7.94,3.94a32,32,0,0,0-4.48,1,40,40,0,0,0-6.59,2.76c-3,1.51-5.18,2.59-8.77,2A4.86,4.86,0,0,1,6.22,176.13ZM4.5,172.75c-1.18-3.36,1.67-7.44,6.35-9.09a11.64,11.64,0,0,1,4.9-.67h0a7.12,7.12,0,0,1,4.53,2.54.45.45,0,0,0,.64,0,.46.46,0,0,0,0-.64,9.59,9.59,0,0,0-3-2.24,9.32,9.32,0,0,1,1.91-4.39,13.36,13.36,0,0,0,3.45-.32l.05,0a.44.44,0,0,0,.29-.52.46.46,0,0,0-.54-.34,12.18,12.18,0,0,1-3.4.29h-.05c-1.64-.14-2.83-.72-3.17-1.66-.65-1.85,2.1-4.58,6-6s7.77-1,8.42.86c.36,1-.3,2.32-1.7,3.54l0,0a10.77,10.77,0,0,1-1.73,1.22.45.45,0,1,0,.45.78A12.08,12.08,0,0,0,29.63,155a9.4,9.4,0,0,1,6.52,6,9.57,9.57,0,0,1,.54,3.26v.07a6.07,6.07,0,0,1-5.26,5.86l-.28,0a53.46,53.46,0,0,0-7.57,1.48,60.11,60.11,0,0,0-5.95,3h0c-.63.39-2.33,1.13-2.45,1.18-3.52,1.24-7.29.79-9.37-1.15A4.76,4.76,0,0,1,4.5,172.75Z"/><path class="cls-8" d="M28,118.68h0a3.82,3.82,0,0,1,4.43,2l0,0a3.82,3.82,0,0,1-1.53,5l-3.67,2.13a7.39,7.39,0,0,0-3.66,5.81h0A27.75,27.75,0,0,0,25,145l1.47,4.29a3.83,3.83,0,0,1-2.75,5h0a3.83,3.83,0,0,1-4.56-2.73l-3.47-12.87a3.82,3.82,0,0,1-.11-.57h0A21.1,21.1,0,0,1,18,125.61h0a9.34,9.34,0,0,1,3.12-3.4l3.15-1.93A14.08,14.08,0,0,1,28,118.68Z"/><path class="cls-9" d="M19.16,145.15h7.08a.69.69,0,0,1,.69.69v4.73a4.23,4.23,0,0,1-4.23,4.23h0a4.23,4.23,0,0,1-4.23-4.23v-4.73a.69.69,0,0,1,.69-.69Z" transform="translate(-39.54 11.65) rotate(-15.62)"/><path class="cls-6" d="M79.06,172.91a26,26,0,0,1-2.83-.63c-.26-.07-4.68-1.3-6.27-1.47h0a54.54,54.54,0,0,0-7.54.31l-.28,0a7.36,7.36,0,0,1-1.41,0A6.94,6.94,0,0,1,55,167a3.81,3.81,0,0,0,.91,4.47c2.8,2.42,5.37,2.24,8.63,2a32.79,32.79,0,0,1,4.59-.09,40.74,40.74,0,0,1,7,1.17c3.27.77,5.63,1.33,9-.09a4.89,4.89,0,0,0,2.73-4.19A10.91,10.91,0,0,1,79.06,172.91Z"/><path class="cls-7" d="M80.55,159.17a11.83,11.83,0,0,0-4.92.48h0a7.14,7.14,0,0,0-3.82,3.52.46.46,0,0,1-.62.17.45.45,0,0,1-.17-.61,9.62,9.62,0,0,1,2.41-2.88A9.45,9.45,0,0,0,70.53,156a12.72,12.72,0,0,1-3.43.49h0a.44.44,0,0,1-.4-.44.43.43,0,0,1,.44-.45,12.09,12.09,0,0,0,3.38-.5l0,0c1.57-.5,2.6-1.35,2.71-2.34.21-1.95-3.1-4-7.22-4.42s-7.79.82-8,2.76c-.12,1.07.83,2.2,2.47,3.06l.06,0a11.55,11.55,0,0,0,2,.79.45.45,0,0,1,.3.56.46.46,0,0,1-.57.3,12.86,12.86,0,0,1-1.94-.76,9.44,9.44,0,0,0-4.75,10.61l0,.06a6.06,6.06,0,0,0,6.46,4.5l.28,0a51.5,51.5,0,0,1,7.71-.3,60.53,60.53,0,0,1,6.47,1.51h0c.69.23,2.52.56,2.65.58,3.71.4,7.27-.91,8.85-3.27a4.68,4.68,0,0,0,.81-2.18C89.2,163,85.49,159.71,80.55,159.17Z"/><path d="M89.72,166.66a5.82,5.82,0,0,1-.86,2.43,7.49,7.49,0,0,1-.18,2.16,5.46,5.46,0,0,1-3.13,4c-3.63,1.54-6.24.93-9.55.15a38.53,38.53,0,0,0-6.9-1.15,31,31,0,0,0-4.46.09,23.14,23.14,0,0,1-4.15.05,9,9,0,0,1-5.14-2.28c-1.35-1.17-2.33-3.53-.72-6.4a10.46,10.46,0,0,1-.21-3.44,10.26,10.26,0,0,1,4.95-7.73c-1.56-1-2.41-2.27-2.27-3.55.28-2.52,4.23-4.09,9-3.57s8.29,2.9,8,5.41C74,154,73,155,71.51,155.67a10.26,10.26,0,0,1,2.65,3.67,4.72,4.72,0,0,1,1.2-.54,12.58,12.58,0,0,1,5.29-.52C86.09,158.87,90.15,162.63,89.72,166.66Zm-1.79,3.59a10.91,10.91,0,0,1-8.87,2.66,26,26,0,0,1-2.83-.63c-.26-.07-4.68-1.3-6.27-1.47h0a54.54,54.54,0,0,0-7.54.31l-.28,0a7.36,7.36,0,0,1-1.41,0A6.94,6.94,0,0,1,55,167a3.81,3.81,0,0,0,.91,4.47c2.8,2.42,5.37,2.24,8.63,2a32.79,32.79,0,0,1,4.59-.09,40.74,40.74,0,0,1,7,1.17c3.27.77,5.63,1.33,9-.09A4.89,4.89,0,0,0,87.93,170.25Zm.89-3.69c.38-3.53-3.33-6.85-8.27-7.39a11.83,11.83,0,0,0-4.92.48h0a7.14,7.14,0,0,0-3.82,3.52.46.46,0,0,1-.62.17.45.45,0,0,1-.17-.61,9.62,9.62,0,0,1,2.41-2.88A9.45,9.45,0,0,0,70.53,156a12.72,12.72,0,0,1-3.43.49h0a.44.44,0,0,1-.4-.44.43.43,0,0,1,.44-.45,12.09,12.09,0,0,0,3.38-.5l0,0c1.57-.5,2.6-1.35,2.71-2.34.21-1.95-3.1-4-7.22-4.42s-7.79.82-8,2.76c-.12,1.07.83,2.2,2.47,3.06l.06,0a11.55,11.55,0,0,0,2,.79.45.45,0,0,1,.3.56.46.46,0,0,1-.57.3,12.86,12.86,0,0,1-1.94-.76,9.44,9.44,0,0,0-4.75,10.61l0,.06a6.06,6.06,0,0,0,6.46,4.5l.28,0a51.5,51.5,0,0,1,7.71-.3,60.53,60.53,0,0,1,6.47,1.51h0c.69.23,2.52.56,2.65.58,3.71.4,7.27-.91,8.85-3.27A4.68,4.68,0,0,0,88.82,166.56Z"/><path class="cls-8" d="M53.19,119.18h0a3.82,3.82,0,0,0-3.84,3v0A3.81,3.81,0,0,0,52,126.72L56,128a7.43,7.43,0,0,1,4.91,4.81h0a27.8,27.8,0,0,1,1.22,11.31l-.44,4.52a3.83,3.83,0,0,0,3.83,4.2h0a3.83,3.83,0,0,0,3.8-3.71l.42-13.32a2.73,2.73,0,0,0,0-.57h0a21.15,21.15,0,0,0-5.2-11.57h0A9.59,9.59,0,0,0,60.72,121l-3.51-1.15A14.44,14.44,0,0,0,53.19,119.18Z"/><path class="cls-9" d="M65.57,143.59h0a4.23,4.23,0,0,1,4.23,4.23v4.73a.69.69,0,0,1-.69.69H62a.69.69,0,0,1-.69-.69v-4.73A4.23,4.23,0,0,1,65.57,143.59Z" transform="translate(125.07 299.37) rotate(-177.67)"/><polygon class="cls-10" points="59.2 25.81 53.43 31.63 47.77 25.81 42.14 31.63 36.47 25.81 30.82 31.63 25.07 25.81 42.11 1.32 59.2 25.81"/><path class="cls-11" d="M58.62,119.35a14.85,14.85,0,0,1-3,5.87c-4.89,5.68-12.42,5.31-13.43,5.25a18.16,18.16,0,0,1-12.84-5.19,17,17,0,0,1-3.7-5.93Z"/><path class="cls-12" d="M58.91,105q0,6.6,0,13.19c-.06.33-.14.71-.25,1.13h-33c-.19-.51-.33-1-.44-1.37V105Z"/><path class="cls-13" d="M59.2,25.81V36s-.23,46-.29,69H47.77V25.81l5.66,5.82Z"/><polygon class="cls-13" points="36.45 25.79 36.45 105.01 25.14 105.01 25.05 35.97 25.05 25.79 30.8 31.61 36.45 25.79"/><polygon class="cls-14" points="47.77 25.81 47.77 105.03 36.47 105.03 36.47 25.81 42.14 31.63 47.77 25.81"/><path class="cls-15" d="M38.37,7a5.43,5.43,0,0,0,7.31,0L42.11,1.32Z"/><line class="cls-16" x1="25.16" y1="107.67" x2="59.12" y2="107.67"/><line class="cls-16" x1="25.16" y1="116.86" x2="59.12" y2="116.86"/><line class="cls-17" x1="47.77" y1="25.81" x2="47.77" y2="25.77"/><line class="cls-18" x1="36.47" y1="105.04" x2="36.47" y2="105.03"/><line class="cls-18" x1="36.47" y1="25.81" x2="36.47" y2="25.8"/><line class="cls-19" x1="47.77" y1="25.77" x2="47.77" y2="105.03"/><line class="cls-19" x1="36.47" y1="25.85" x2="36.47" y2="105.03"/><path class="cls-20" d="M59.21,25.81,42.11,1.32l-17,24.49V36l.09,69H58.91c.06-23,.3-69,.3-69Z"/><polyline class="cls-20" points="25.07 25.81 30.81 31.63 36.47 25.81 42.14 31.63 47.77 25.81 53.43 31.63 59.2 25.81"/><path class="cls-21" d="M32.77,45.41s3.72-3.88,7.32,0"/><path class="cls-21" d="M53,45.41s3.72-3.88,7.31,0"/><path class="cls-22" d="M46.48,76.94a1.21,1.21,0,0,1,0,.19,1.21,1.21,0,0,1,0-.19Z"/><path class="cls-23" d="M59.45,74.23a3.72,3.72,0,0,0-5.14-1,14.34,14.34,0,0,1-5.2,1.82,14.93,14.93,0,0,1-1.86.2H46.5c-.26,0-.52,0-.77,0a17,17,0,0,1-1.85-.19,14.41,14.41,0,0,1-5.19-1.82,3.71,3.71,0,0,0-4.22,6.1,22,22,0,0,0,12,3.35,21.93,21.93,0,0,0,12-3.35A3.71,3.71,0,0,0,59.45,74.23ZM57.6,78A20.48,20.48,0,0,1,46.5,81.1,20.43,20.43,0,0,1,35.41,78a2.08,2.08,0,1,1,2.37-3.41,15.24,15.24,0,0,0,5.13,2,17.6,17.6,0,0,0,3.57.36h0a18.38,18.38,0,0,0,3.57-.35,15,15,0,0,0,5.15-2A2.08,2.08,0,0,1,57.6,78Z"/><path class="cls-24" d="M57.6,78A20.48,20.48,0,0,1,46.5,81.1,20.43,20.43,0,0,1,35.41,78a2.08,2.08,0,1,1,2.37-3.41,15.24,15.24,0,0,0,5.13,2,3.31,3.31,0,0,0,0,.55,2.07,2.07,0,0,0,1.81,2.26,2.07,2.07,0,0,0,1.82-2.26,2.07,2.07,0,0,0,1.82,2.26,2.07,2.07,0,0,0,1.81-2.26,3.1,3.1,0,0,0,0-.54,15,15,0,0,0,5.15-2A2.08,2.08,0,0,1,57.6,78Z"/><path class="cls-24" d="M46.5,76.94a1.21,1.21,0,0,0,0,.19,1.21,1.21,0,0,0,0-.19Z"/><path class="cls-25" d="M46.49,77.13a2.07,2.07,0,0,1-1.82,2.26,2.07,2.07,0,0,1-1.81-2.26,3.31,3.31,0,0,1,0-.55,17.6,17.6,0,0,0,3.57.36A1.21,1.21,0,0,1,46.49,77.13Z"/><path class="cls-25" d="M50.12,77.13a2.07,2.07,0,0,1-1.81,2.26,2.07,2.07,0,0,1-1.82-2.26,1.21,1.21,0,0,1,0-.19h0a18.38,18.38,0,0,0,3.57-.35A3.1,3.1,0,0,1,50.12,77.13Z"/><ellipse class="cls-26" cx="37.75" cy="59.27" rx="7" ry="10.37"/><ellipse class="cls-27" cx="40.03" cy="62.81" rx="3.6" ry="5.33"/><circle class="cls-3" cx="38.55" cy="60.86" r="1.38"/><ellipse class="cls-26" cx="56.45" cy="58.72" rx="7" ry="10.37"/><ellipse class="cls-27" cx="58.86" cy="62.24" rx="3.6" ry="5.33"/><circle class="cls-3" cx="57.48" cy="60.29" r="1.38"/></g></g></svg>