<svg xmlns="http://www.w3.org/2000/svg" viewBox="0 0 72.91 139.31"><defs><style>.cls-1,.cls-31{fill:#e5e5e5;}.cls-1,.cls-10,.cls-12,.cls-13,.cls-16,.cls-17,.cls-19,.cls-2,.cls-21,.cls-22,.cls-23,.cls-24,.cls-25,.cls-26,.cls-27,.cls-28,.cls-29,.cls-3,.cls-30,.cls-31,.cls-32,.cls-33,.cls-34,.cls-5,.cls-6,.cls-7,.cls-9{stroke:#000;}.cls-1,.cls-10,.cls-12,.cls-13,.cls-17,.cls-19,.cls-2,.cls-20,.cls-21,.cls-22,.cls-23,.cls-24,.cls-25,.cls-26,.cls-27,.cls-28,.cls-29,.cls-3,.cls-31,.cls-32,.cls-33,.cls-34,.cls-5,.cls-9{stroke-miterlimit:10;}.cls-1,.cls-2,.cls-3{stroke-width:0.12px;}.cls-2,.cls-32{fill:#760dc9;}.cls-4{fill:#d7840b;}.cls-10,.cls-26,.cls-27,.cls-29,.cls-30,.cls-34,.cls-5,.cls-8,.cls-9{fill:#fff;}.cls-5{stroke-width:0.93px;}.cls-14,.cls-6,.cls-7{fill:#d88500;}.cls-10,.cls-16,.cls-22,.cls-30,.cls-6,.cls-7{stroke-linecap:round;}.cls-16,.cls-30,.cls-6,.cls-7{stroke-linejoin:round;}.cls-6{stroke-width:0.82px;}.cls-7{stroke-width:0.99px;}.cls-10,.cls-30,.cls-9{stroke-width:0.62px;}.cls-11{fill:#fbccac;}.cls-12{fill:#ff7bac;}.cls-12,.cls-13,.cls-21,.cls-22{stroke-width:1.15px;}.cls-13{fill:#ccc;}.cls-15{fill:#f9b233;}.cls-16{stroke-width:0.01px;}.cls-17{fill:#666;}.cls-17,.cls-27{stroke-width:0.57px;}.cls-18,.cls-19,.cls-20,.cls-21,.cls-22{fill:none;}.cls-19{stroke-width:0.86px;}.cls-20{stroke:#bf720c;stroke-width:0.46px;}.cls-23{fill:#abd6bd;stroke-width:0.22px;}.cls-24{fill:#ffd18f;stroke-width:0.43px;}.cls-25,.cls-26{stroke-width:0.02px;}.cls-28{stroke-width:0.07px;}.cls-29{stroke-width:0.6px;}.cls-31,.cls-32,.cls-33{stroke-width:0.12px;}.cls-34{stroke-width:0.86px;}</style></defs><title>l14</title><g id="Layer_2" data-name="Layer 2"><g id="personaje"><path class="cls-1" d="M36.34,136.79a18,18,0,0,1-2-.22c-.19,0-3.38-.56-4.51-.56h0a37.62,37.62,0,0,0-5.27.79l-.2,0a5.52,5.52,0,0,1-1,.1A4.9,4.9,0,0,1,19,134.45a2.69,2.69,0,0,0,1,3.07c2.15,1.48,3.94,1.16,6.21.76a23.14,23.14,0,0,1,3.21-.42,27.67,27.67,0,0,1,5,.29c2.35.29,4.05.5,6.3-.76a3.41,3.41,0,0,0,1.59-3.14A7.69,7.69,0,0,1,36.34,136.79Z"/><path class="cls-2" d="M36.34,127a8.36,8.36,0,0,0-3.41.71h0a5,5,0,0,0-2.42,2.76.32.32,0,0,1-.42.16.3.3,0,0,1-.16-.41,6.54,6.54,0,0,1,1.47-2.2,6.7,6.7,0,0,0-2.31-2.48,8.84,8.84,0,0,1-2.37.6h0a.32.32,0,0,1,0-.64A8.34,8.34,0,0,0,29,125h0c1.06-.47,1.72-1.14,1.72-1.85,0-1.38-2.48-2.55-5.41-2.55s-5.4,1.17-5.4,2.55c0,.76.75,1.47,2,2l0,0a7.18,7.18,0,0,0,1.44.4.34.34,0,0,1,.26.38.33.33,0,0,1-.38.25,9.15,9.15,0,0,1-1.42-.39,6.65,6.65,0,0,0-2.52,7.81v0a4.29,4.29,0,0,0,4.88,2.67l.2,0a37.6,37.6,0,0,1,5.38-.81,45.84,45.84,0,0,1,4.66.57h0a16,16,0,0,0,1.9.21c2.64,0,5-1.19,6-3a3.5,3.5,0,0,0,.4-1.59C42.71,129.08,39.85,127,36.34,127Z"/><path class="cls-3" d="M36.34,126.4a8.93,8.93,0,0,0-3.67.77,3.92,3.92,0,0,0-.8.47,7.15,7.15,0,0,0-2.14-2.37,2.67,2.67,0,0,0,1.61-2.18c0-1.79-2.65-3.19-6-3.19s-6,1.4-6,3.19a2.82,2.82,0,0,0,1.86,2.32,7.26,7.26,0,0,0-2.48,8.2,3.48,3.48,0,0,0,1,4.44,6.32,6.32,0,0,0,3.78,1.2,16.72,16.72,0,0,0,2.9-.35,22.44,22.44,0,0,1,3.13-.4,27.64,27.64,0,0,1,4.93.28c2.38.29,4.26.53,6.69-.83A3.88,3.88,0,0,0,43,134.89a5.61,5.61,0,0,0,0-1.53,4,4,0,0,0,.41-1.76C43.34,128.73,40.2,126.4,36.34,126.4Zm4.43,11c-2.25,1.26-4,1.05-6.3.76a27.67,27.67,0,0,0-5-.29,23.14,23.14,0,0,0-3.21.42c-2.27.4-4.06.72-6.21-.76a2.69,2.69,0,0,1-1-3.07,4.9,4.9,0,0,0,4.29,2.49,5.52,5.52,0,0,0,1-.1l.2,0a37.62,37.62,0,0,1,5.27-.79h0c1.13,0,4.32.53,4.51.56a18,18,0,0,0,2,.22,7.69,7.69,0,0,0,6-2.54A3.41,3.41,0,0,1,40.77,137.39Zm1.54-4.2c-.93,1.77-3.33,3-6,3a16,16,0,0,1-1.9-.21h0a45.84,45.84,0,0,0-4.66-.57,37.6,37.6,0,0,0-5.38.81l-.2,0a4.29,4.29,0,0,1-4.88-2.67v0a6.65,6.65,0,0,1,2.52-7.81,9.15,9.15,0,0,0,1.42.39.33.33,0,0,0,.38-.25.34.34,0,0,0-.26-.38,7.18,7.18,0,0,1-1.44-.4l0,0c-1.22-.48-2-1.19-2-2,0-1.38,2.48-2.55,5.4-2.55s5.41,1.17,5.41,2.55c0,.71-.66,1.38-1.72,1.85h0a8.34,8.34,0,0,1-2.33.61.32.32,0,0,0,0,.64h0a8.84,8.84,0,0,0,2.37-.6,6.7,6.7,0,0,1,2.31,2.48,6.54,6.54,0,0,0-1.47,2.2.3.3,0,0,0,.16.41.32.32,0,0,0,.42-.16,5,5,0,0,1,2.42-2.76h0a8.36,8.36,0,0,1,3.41-.71c3.51,0,6.37,2,6.37,4.56A3.5,3.5,0,0,1,42.31,133.19Z"/><path class="cls-4" d="M25.07,123.56a1.87,1.87,0,0,1-.4,0,2.51,2.51,0,0,1-2.07-2.87c1.71-10.54-3.29-22.17-3.35-22.29a2.5,2.5,0,0,1,2.29-3.51,2.52,2.52,0,0,1,2.3,1.49c.23.53,5.67,13,3.7,25.11A2.49,2.49,0,0,1,25.07,123.56Z"/><path d="M21.54,95.32a2,2,0,0,1,1.87,1.21c.23.52,5.62,12.9,3.67,24.85a2,2,0,0,1-2,1.71l-.32,0a2,2,0,0,1-1.69-2.33c1.74-10.71-3.3-22.37-3.38-22.55a2,2,0,0,1,1-2.69,2,2,0,0,1,.82-.17m0-.94a2.9,2.9,0,0,0-1.19.26,3,3,0,0,0-1.52,3.91c.05.12,5,11.61,3.31,22A3,3,0,0,0,24.6,124a2.42,2.42,0,0,0,.47,0A3,3,0,0,0,28,121.53c2-12.22-3.5-24.84-3.74-25.38a3,3,0,0,0-2.72-1.77Z"/><path class="cls-5" d="M25.27,117.49h0a2.7,2.7,0,0,1,2.7,2.7v3a.44.44,0,0,1-.44.44H23a.44.44,0,0,1-.44-.44v-3a2.7,2.7,0,0,1,2.7-2.7Z" transform="translate(43.11 242.48) rotate(-176.49)"/><path class="cls-4" d="M19.58,118.93a3.12,3.12,0,0,1-2.45-1.21,3,3,0,0,1-.54-2.61,3.21,3.21,0,0,1,2.28-2.27l5.83-1.55a9.82,9.82,0,0,0,7.21-7.94,26.14,26.14,0,0,0-.67-8.18A2.68,2.68,0,0,1,31.68,93a2.74,2.74,0,0,1,1.87-1.12l.34,0a2.79,2.79,0,0,1,2.67,2A37.3,37.3,0,0,1,38,102.06a12.39,12.39,0,0,1-.46,3.85l-.06.21a16,16,0,0,1-8.89,10.16l-.73.33a28.2,28.2,0,0,1-5.31,1.74l-2.26.5A3.16,3.16,0,0,1,19.58,118.93Z"/><path d="M33.89,92.34A2.3,2.3,0,0,1,36.11,94a36.66,36.66,0,0,1,1.39,8,11.93,11.93,0,0,1-.43,3.71c0,.08,0,.17-.08.26a15.52,15.52,0,0,1-8.62,9.81l-.73.32a27.52,27.52,0,0,1-5.22,1.72l-2.26.5a2.93,2.93,0,0,1-.58.06A2.61,2.61,0,0,1,17,115.23l0,0A2.71,2.71,0,0,1,19,113.29l5.83-1.55a10.28,10.28,0,0,0,7.55-8.32v-.09a27.08,27.08,0,0,0-.69-8.26,2.26,2.26,0,0,1,1.92-2.72h.28m0-.94a2.83,2.83,0,0,0-.41,0,3.19,3.19,0,0,0-2.71,3.84,25.55,25.55,0,0,1,.67,8v0a9.34,9.34,0,0,1-6.87,7.57l-5.83,1.55a3.63,3.63,0,0,0-2.59,2.54l0,.07a3.47,3.47,0,0,0,.63,3,3.56,3.56,0,0,0,2.81,1.38,4.13,4.13,0,0,0,.78-.08l2.26-.5A28.47,28.47,0,0,0,28,117l.73-.32a16.36,16.36,0,0,0,9.13-10.4L38,106a12.77,12.77,0,0,0,.47-4A37,37,0,0,0,37,93.78a3.23,3.23,0,0,0-3.1-2.38Z"/><path class="cls-6" d="M9.76,82.77a12.31,12.31,0,0,1-5.1-11.16,11.18,11.18,0,0,1,2.61-5.89,13,13,0,0,1,2.59-2.36,14.13,14.13,0,0,1,14.41-.61A2.57,2.57,0,1,1,22,67.34a9,9,0,0,0-9.18.23,6.87,6.87,0,0,0-3,4.65,7.44,7.44,0,0,0,4,7.07,2.57,2.57,0,1,1-2.57,4.44A13.13,13.13,0,0,1,9.76,82.77Z"/><path class="cls-7" d="M66.56,65.23c-.07-1.87-.2-3.73-.4-5.6C54.08,59.65,46,58.35,41,57.14c-6-1.47-8.62-3.1-8.87-3.27l0,0-7.53,1.78a37,37,0,0,0,13.15,6.55A92.42,92.42,0,0,0,52.4,64.64C56.8,65.05,61.54,65.25,66.56,65.23Z"/><path class="cls-8" d="M62.71,64.44a5.29,5.29,0,0,0,5.49-.17c.88-6.28,1-12.21-1.09-17.13-2.24,3.29-4.29,6.46-4.61,8.45Z"/><path class="cls-9" d="M65.09,48.45a.71.71,0,0,0-.4-.4h0a1,1,0,0,0-1,.19,3.4,3.4,0,0,0-1,2.11l-.54,3.95L62,55.74a8.22,8.22,0,0,0,.42,3.81"/><path class="cls-10" d="M67.74,47.25h0a1.26,1.26,0,0,0-1-.79h0a1.3,1.3,0,0,0-1.16.51h0a4.78,4.78,0,0,0-.9,2.62l0,1.34c0,.58-.2,1.71-.2,1.71l-.17,1"/><path class="cls-10" d="M68.81,57.05c.21-1.21.43-2.43.71-3.9a12.93,12.93,0,0,0,.23-2.48V49.23a2.59,2.59,0,0,0-.58-1.67l-.08-.08a1.21,1.21,0,0,0-.92-.42h0a.83.83,0,0,0-.81.62L66.74,50a8.21,8.21,0,0,0-.21,1.1l-.23,1.78A6.73,6.73,0,0,1,66,54.11l-.3.94"/><path class="cls-10" d="M67.37,59.3a8,8,0,0,1,2.82-3.55,2.24,2.24,0,0,1,.63-.29,1.44,1.44,0,0,1,1.15.13A1.41,1.41,0,0,1,72.59,57a4.09,4.09,0,0,1-1.07,2.28,7.48,7.48,0,0,0-1.68,3.24,3.27,3.27,0,0,1-.6,1.36l-.08.11a3.24,3.24,0,0,1-1.64,1.18l-.61.19a4.08,4.08,0,0,1-2.47,0h0"/><path class="cls-10" d="M63.87,60.13a3.79,3.79,0,0,0-.69-1.53,1.87,1.87,0,0,0-1.49-.72H61.6a1.7,1.7,0,0,0-1,.32h0a.6.6,0,0,0,0,.95,3.06,3.06,0,0,1,.65.74,2.91,2.91,0,0,1,.45,1.72l0,1.16a2.62,2.62,0,0,1-.43,1.33l-.18.26a1,1,0,0,0,.23,1.36h0a1.07,1.07,0,0,0,1.22,0h0a3.06,3.06,0,0,0,1.27-1.83l.33-1.37"/><polygon class="cls-11" points="15.13 19.59 19.52 24.01 23.81 19.59 28.09 24.01 32.39 19.59 36.68 24.01 41.04 19.59 28.11 1 15.13 19.59"/><path class="cls-12" d="M15.58,90.59A11.12,11.12,0,0,0,17.89,95c3.71,4.31,9.42,4,10.19,4a13.72,13.72,0,0,0,9.75-3.94,12.69,12.69,0,0,0,2.8-4.49Z"/><path class="cls-13" d="M15.36,79.72q0,5,0,10c0,.25.11.54.2.86H40.63a10.4,10.4,0,0,0,.34-1V79.72Z"/><path class="cls-14" d="M15.13,19.59v7.72s.18,34.94.23,52.41h8.45V19.59L19.52,24Z"/><polygon class="cls-14" points="32.4 19.57 32.4 79.7 40.98 79.7 41.05 27.3 41.05 19.57 36.69 23.99 32.4 19.57"/><polygon class="cls-15" points="23.81 19.59 23.81 79.72 32.39 79.72 32.39 19.59 28.09 24.01 23.81 19.59"/><path class="cls-16" d="M30.94,5.28a4.13,4.13,0,0,1-5.55,0L28.1,1Z"/><line class="cls-17" x1="40.97" y1="81.72" x2="15.2" y2="81.72"/><line class="cls-17" x1="40.97" y1="88.69" x2="15.2" y2="88.69"/><line class="cls-18" x1="23.81" y1="19.59" x2="23.81" y2="19.56"/><line class="cls-19" x1="32.39" y1="79.72" x2="32.39" y2="79.72"/><line class="cls-19" x1="32.39" y1="19.59" x2="32.39" y2="19.58"/><line class="cls-20" x1="23.81" y1="19.56" x2="23.81" y2="79.72"/><line class="cls-20" x1="32.39" y1="19.62" x2="32.39" y2="79.72"/><path class="cls-21" d="M15.13,19.59,28.1,1,41,19.59v7.72L41,79.72H15.36c0-17.47-.23-52.41-.23-52.41Z"/><polyline class="cls-21" points="41.04 19.59 36.68 24.01 32.39 19.59 28.08 24.01 23.81 19.59 19.52 24.01 15.13 19.59"/><path class="cls-22" d="M39.46,33.86s-2.82-2.94-5.55,0"/><path class="cls-22" d="M24.09,33.86s-2.82-2.94-5.55,0"/><path class="cls-23" d="M29.06,57.79a.71.71,0,0,0,0,.14v-.14Z"/><path class="cls-24" d="M19.22,55.73A2.8,2.8,0,0,1,23.11,55a11.11,11.11,0,0,0,4,1.39,12,12,0,0,0,1.41.14h1.15a9.85,9.85,0,0,0,1.4-.15A10.77,10.77,0,0,0,35,55a2.81,2.81,0,0,1,3.2,4.63A16.63,16.63,0,0,1,29,62.18a16.67,16.67,0,0,1-9.13-2.54A2.81,2.81,0,0,1,19.22,55.73Zm1.4,2.9A15.65,15.65,0,0,0,29,61a15.61,15.61,0,0,0,8.42-2.32A1.58,1.58,0,0,0,35.66,56a11.65,11.65,0,0,1-3.89,1.48,13.81,13.81,0,0,1-2.71.27h0a13.78,13.78,0,0,1-2.7-.27A11.66,11.66,0,0,1,22.42,56a1.58,1.58,0,0,0-1.8,2.59Z"/><path class="cls-25" d="M20.62,58.63A15.65,15.65,0,0,0,29,61a15.61,15.61,0,0,0,8.42-2.32A1.58,1.58,0,0,0,35.66,56a11.65,11.65,0,0,1-3.89,1.48,1.84,1.84,0,0,1,0,.41,1.58,1.58,0,0,1-1.38,1.72,1.58,1.58,0,0,1-1.38-1.72,1.57,1.57,0,0,1-1.38,1.72,1.57,1.57,0,0,1-1.37-1.72,1.9,1.9,0,0,1,0-.41A11.66,11.66,0,0,1,22.42,56a1.58,1.58,0,0,0-1.8,2.59Z"/><path class="cls-25" d="M29.05,57.79v.14a.71.71,0,0,1,0-.14Z"/><path class="cls-26" d="M29.05,57.93a1.58,1.58,0,0,0,1.38,1.72,1.58,1.58,0,0,0,1.38-1.72,1.84,1.84,0,0,0,0-.41,13.81,13.81,0,0,1-2.71.27A.71.71,0,0,0,29.05,57.93Z"/><path class="cls-26" d="M26.3,57.93a1.57,1.57,0,0,0,1.37,1.72,1.57,1.57,0,0,0,1.38-1.72v-.14h0a13.78,13.78,0,0,1-2.7-.27A1.9,1.9,0,0,0,26.3,57.93Z"/><ellipse class="cls-27" cx="35.68" cy="44.38" rx="5.32" ry="7.87"/><ellipse class="cls-28" cx="38.17" cy="43.96" rx="2.73" ry="4.05"/><circle class="cls-8" cx="39.29" cy="42.48" r="1.05"/><ellipse class="cls-27" cx="21.49" cy="43.96" rx="5.32" ry="7.87"/><ellipse class="cls-28" cx="24.07" cy="43.96" rx="2.73" ry="4.05"/><circle class="cls-8" cx="25.12" cy="42.48" r="1.05"/><ellipse class="cls-29" cx="9.82" cy="88.19" rx="1.07" ry="1.82" transform="translate(-32.13 10) rotate(-21.86)"/><path class="cls-9" d="M16.76,80.87h0A1.28,1.28,0,0,0,15.6,79.6h0a7.18,7.18,0,0,0-6.45,2.79l0,.07a1.51,1.51,0,0,0,.09,1.9h0a1,1,0,0,0,1,.31l3.41-.79a5.24,5.24,0,0,0,2.55-1.41h0A2.26,2.26,0,0,0,16.76,80.87Z"/><path class="cls-30" d="M14.76,82.13h0a5.18,5.18,0,0,1,4.62,4.33,7.79,7.79,0,0,1,.06,1.87,11.79,11.79,0,0,1-.22,1.26,5.5,5.5,0,0,1-2.67,3.47h0a.53.53,0,0,1-.79-.54l.31-2.08"/><ellipse class="cls-8" cx="14.45" cy="87.29" rx="3.59" ry="4.62"/><path class="cls-30" d="M16.9,90.2a5,5,0,0,1-.55,2.1A3.18,3.18,0,0,1,13.59,94a2.39,2.39,0,0,1-.53,0,1.63,1.63,0,0,1-1.32-1.31h0"/><path class="cls-30" d="M14,90.2a6.48,6.48,0,0,1-1.55,2.63,2.26,2.26,0,0,1-1.25.75,3.11,3.11,0,0,1-2.77-.79l-.2-.2a4.4,4.4,0,0,1-1.06-1.94l-.49-1.86a1.37,1.37,0,0,1,.7-1.6l0,0a.93.93,0,0,1,1.14.38L9.67,89.4a.12.12,0,0,0,.21-.08l-.23-1.41a4.35,4.35,0,0,1,1.62-4.1l.91-.69"/><path class="cls-31" d="M4.87,129.91a15.74,15.74,0,0,1-.14-2,44.84,44.84,0,0,0-.24-4.55v0a38.6,38.6,0,0,0-1.7-5.06l-.08-.19a4.62,4.62,0,0,1-.26-1,4.92,4.92,0,0,1,1.69-4.67,2.69,2.69,0,0,0-2.85,1.51c-1.09,2.37-.46,4.09.34,6.25a23.09,23.09,0,0,1,1,3.1,29,29,0,0,1,.6,5c.12,2.38.21,4.09,1.85,6.08a3.43,3.43,0,0,0,3.38,1A7.69,7.69,0,0,1,4.87,129.91Z"/><path class="cls-32" d="M14.48,128.2a8.28,8.28,0,0,0-1.3-3.24v0A5.06,5.06,0,0,0,10,123a.31.31,0,0,1-.23-.38.32.32,0,0,1,.38-.24,6.75,6.75,0,0,1,2.43,1.07,6.57,6.57,0,0,0,2-2.71,9.2,9.2,0,0,1-1-2.23.08.08,0,0,0,0,0,.34.34,0,0,1,.22-.36.33.33,0,0,1,.4.21,8.25,8.25,0,0,0,1,2.19l0,0c.65,1,1.43,1.5,2.13,1.37,1.36-.24,2.08-2.88,1.57-5.77s-2.1-5.12-3.47-4.88c-.75.13-1.32,1-1.58,2.28,0,0,0,0,0,0a8.44,8.44,0,0,0-.15,1.49.31.31,0,0,1-.32.31.31.31,0,0,1-.31-.32,8.46,8.46,0,0,1,.13-1.47,6.68,6.68,0,0,0-8.14-1.12l0,0a4.3,4.3,0,0,0-1.77,5.28l.07.19a37,37,0,0,1,1.74,5.17,43.29,43.29,0,0,1,.25,4.69v0c0,.52.12,1.82.13,1.91.47,2.6,2.06,4.76,4,5.36a3.24,3.24,0,0,0,1.63.12C13.58,134.84,15.1,131.66,14.48,128.2Z"/><path class="cls-33" d="M15.11,128.09a9,9,0,0,0-1.4-3.48,3.72,3.72,0,0,0-.61-.71,7.25,7.25,0,0,0,2-2.52,2.68,2.68,0,0,0,2.43,1.2c1.76-.31,2.68-3.17,2.08-6.51s-2.44-5.71-4.2-5.4c-.9.16-1.59,1-2,2.24a7.31,7.31,0,0,0-6.23-1.82,7.13,7.13,0,0,0-2.29.82,3.48,3.48,0,0,0-4.2,1.76,6.35,6.35,0,0,0-.53,3.94,16.57,16.57,0,0,0,.86,2.8,24.41,24.41,0,0,1,1,3,27.44,27.44,0,0,1,.58,4.91c.13,2.4.23,4.29,2,6.45a3.87,3.87,0,0,0,3.35,1.32,5.13,5.13,0,0,0,1.5-.3,4.15,4.15,0,0,0,1.82.1C14,135.41,15.78,131.9,15.11,128.09ZM5.05,134.38c-1.64-2-1.73-3.7-1.85-6.08a29,29,0,0,0-.6-5,23.09,23.09,0,0,0-1-3.1c-.8-2.16-1.43-3.88-.34-6.25a2.69,2.69,0,0,1,2.85-1.51,4.92,4.92,0,0,0-1.69,4.67,4.62,4.62,0,0,0,.26,1l.08.19a38.6,38.6,0,0,1,1.7,5.06v0a44.84,44.84,0,0,1,.24,4.55,15.74,15.74,0,0,0,.14,2,7.69,7.69,0,0,0,3.56,5.5A3.43,3.43,0,0,1,5.05,134.38Zm4.42.78c-1.92-.6-3.51-2.76-4-5.36,0-.09-.15-1.39-.13-1.91v0a43.29,43.29,0,0,0-.25-4.69A37,37,0,0,0,3.37,118l-.07-.19a4.3,4.3,0,0,1,1.77-5.28l0,0a6.68,6.68,0,0,1,8.14,1.12,8.46,8.46,0,0,0-.13,1.47.31.31,0,0,0,.31.32.31.31,0,0,0,.32-.31,8.44,8.44,0,0,1,.15-1.49s0,0,0,0c.26-1.28.83-2.15,1.58-2.28,1.37-.24,3,2,3.47,4.88s-.21,5.53-1.57,5.77c-.7.13-1.48-.4-2.13-1.37l0,0a8.25,8.25,0,0,1-1-2.19.33.33,0,0,0-.4-.21.34.34,0,0,0-.22.36.08.08,0,0,1,0,0,9.2,9.2,0,0,0,1,2.23,6.57,6.57,0,0,1-2,2.71,6.75,6.75,0,0,0-2.43-1.07.32.32,0,0,0-.38.24A.31.31,0,0,0,10,123a5.06,5.06,0,0,1,3.15,1.9v0a8.28,8.28,0,0,1,1.3,3.24c.62,3.46-.9,6.64-3.38,7.08A3.24,3.24,0,0,1,9.47,135.16Z"/><path class="cls-34" d="M19.12,112h0a3.11,3.11,0,0,1,3.11,3.11v3.48a.51.51,0,0,1-.51.51H16.52a.51.51,0,0,1-.51-.51v-3.48A3.11,3.11,0,0,1,19.12,112Z" transform="translate(-92.11 152.23) rotate(-98.85)"/></g></g></svg>