<svg xmlns="http://www.w3.org/2000/svg" viewBox="0 0 164.86 173.4"><defs><style>.cls-1,.cls-6{fill:#e5e5e5;}.cls-1,.cls-11,.cls-12,.cls-14,.cls-15,.cls-16,.cls-17,.cls-18,.cls-19,.cls-20,.cls-21,.cls-22,.cls-23,.cls-24,.cls-25,.cls-26,.cls-27,.cls-28,.cls-3,.cls-5,.cls-6,.cls-7,.cls-8,.cls-9{stroke:#000;}.cls-1,.cls-11,.cls-12,.cls-14,.cls-15,.cls-16,.cls-17,.cls-18,.cls-19,.cls-20,.cls-21,.cls-22,.cls-23,.cls-24,.cls-25,.cls-26,.cls-27,.cls-3,.cls-5,.cls-6,.cls-7,.cls-8,.cls-9{stroke-miterlimit:10;}.cls-1,.cls-3{stroke-width:0.19px;}.cls-2{fill:#bf4400;}.cls-4,.cls-9{fill:#003b49;}.cls-10,.cls-11,.cls-12,.cls-21,.cls-22,.cls-27,.cls-28,.cls-5,.cls-8{fill:#fff;}.cls-5{stroke-width:1.41px;}.cls-6,.cls-7{stroke-width:0.19px;}.cls-8{stroke-width:1.3px;}.cls-14,.cls-16,.cls-23,.cls-9{stroke-width:1.64px;}.cls-11,.cls-12,.cls-28{stroke-width:0.86px;}.cls-12,.cls-23,.cls-28{stroke-linecap:round;}.cls-13,.cls-15{fill:#00607a;}.cls-14,.cls-20,.cls-23{fill:none;}.cls-15,.cls-20{stroke-width:0.96px;}.cls-16{fill:#3291b2;}.cls-17,.cls-18,.cls-19{fill:#b3b3b3;}.cls-17{stroke-width:0.71px;}.cls-18{stroke-width:0.42px;}.cls-19{stroke-width:0.48px;}.cls-21{stroke-width:0.81px;}.cls-22{stroke-width:0.82px;}.cls-24{fill:#75c6d3;stroke-width:0.61px;}.cls-25{stroke-width:0.1px;}.cls-26{fill:#ea5e58;stroke-width:0.03px;}.cls-27{stroke-width:0.83px;}.cls-28{stroke-linejoin:round;}</style></defs><title>l14</title><g id="Layer_2" data-name="Layer 2"><g id="personaje"><path class="cls-1" d="M84.72,169.57a28.6,28.6,0,0,1-3.08-.33,68.59,68.59,0,0,0-6.83-.85h0a57.65,57.65,0,0,0-8,1.2l-.29.06a7.62,7.62,0,0,1-1.5.14,7.43,7.43,0,0,1-6.5-3.76A4.09,4.09,0,0,0,60,170.68c3.25,2.25,6,1.76,9.41,1.14a34.4,34.4,0,0,1,4.86-.62,41.92,41.92,0,0,1,7.63.43c3.56.44,6.14.76,9.54-1.14a5.22,5.22,0,0,0,2.42-4.76C92,168.1,88.54,169.57,84.72,169.57Z"/><path class="cls-2" d="M84.72,154.81a12.58,12.58,0,0,0-5.17,1.07l0,0a7.59,7.59,0,0,0-3.66,4.17.48.48,0,0,1-.63.26.49.49,0,0,1-.26-.64,10.2,10.2,0,0,1,2.23-3.33,10.13,10.13,0,0,0-3.49-3.75,13.46,13.46,0,0,1-3.59.91h-.06a.48.48,0,0,1-.06-1,12.88,12.88,0,0,0,3.53-.92l0,0c1.61-.72,2.61-1.73,2.61-2.81,0-2.09-3.75-3.86-8.19-3.86s-8.18,1.77-8.18,3.86c0,1.15,1.14,2.24,3,3l.06,0a12.37,12.37,0,0,0,2.19.61.48.48,0,0,1,.38.56.48.48,0,0,1-.56.39,13.51,13.51,0,0,1-2.16-.59,10.06,10.06,0,0,0-3.82,11.82l0,.06a6.49,6.49,0,0,0,7.39,4l.3,0a56.15,56.15,0,0,1,8.15-1.22,65.85,65.85,0,0,1,7.06.86h0a25,25,0,0,0,2.89.32c4,0,7.63-1.81,9-4.5a5.06,5.06,0,0,0,.61-2.4C94.36,157.9,90,154.81,84.72,154.81Z"/><path class="cls-3" d="M95.32,161.71a6.06,6.06,0,0,1-.63,2.68,7.78,7.78,0,0,1,.06,2.31,5.84,5.84,0,0,1-2.86,4.63c-3.68,2-6.52,1.7-10.13,1.25a42.23,42.23,0,0,0-7.47-.42,34.81,34.81,0,0,0-4.73.61,24.65,24.65,0,0,1-4.4.53,9.65,9.65,0,0,1-5.73-1.82c-1.57-1.09-2.89-3.49-1.51-6.73a11.11,11.11,0,0,1-.61-3.63,11,11,0,0,1,4.36-8.78c-1.77-.89-2.81-2.14-2.81-3.52,0-2.71,4-4.83,9.14-4.83s9.15,2.12,9.15,4.83c0,1.27-.91,2.44-2.44,3.3a11.06,11.06,0,0,1,3.24,3.6,5.6,5.6,0,0,1,1.21-.72,13.5,13.5,0,0,1,5.56-1.16C90.57,153.84,95.32,157.37,95.32,161.71Zm-1.48,4c-1.88,2.37-5.3,3.84-9.12,3.84a28.6,28.6,0,0,1-3.08-.33,68.59,68.59,0,0,0-6.83-.85h0a57.65,57.65,0,0,0-8,1.2l-.29.06a7.62,7.62,0,0,1-1.5.14,7.43,7.43,0,0,1-6.5-3.76A4.09,4.09,0,0,0,60,170.68c3.25,2.25,6,1.76,9.41,1.14a34.4,34.4,0,0,1,4.86-.62,41.92,41.92,0,0,1,7.63.43c3.56.44,6.14.76,9.54-1.14A5.22,5.22,0,0,0,93.84,165.73Zm.52-4c0-3.81-4.33-6.9-9.64-6.9a12.58,12.58,0,0,0-5.17,1.07l0,0a7.59,7.59,0,0,0-3.66,4.17.48.48,0,0,1-.63.26.49.49,0,0,1-.26-.64,10.2,10.2,0,0,1,2.23-3.33,10.13,10.13,0,0,0-3.49-3.75,13.46,13.46,0,0,1-3.59.91h-.06a.48.48,0,0,1-.06-1,12.88,12.88,0,0,0,3.53-.92l0,0c1.61-.72,2.61-1.73,2.61-2.81,0-2.09-3.75-3.86-8.19-3.86s-8.18,1.77-8.18,3.86c0,1.15,1.14,2.24,3,3l.06,0a12.37,12.37,0,0,0,2.19.61.48.48,0,0,1,.38.56.48.48,0,0,1-.56.39,13.51,13.51,0,0,1-2.16-.59,10.06,10.06,0,0,0-3.82,11.82l0,.06a6.49,6.49,0,0,0,7.39,4l.3,0a56.15,56.15,0,0,1,8.15-1.22,65.85,65.85,0,0,1,7.06.86h0a25,25,0,0,0,2.89.32c4,0,7.63-1.81,9-4.5A5.06,5.06,0,0,0,94.36,161.71Z"/><path class="cls-4" d="M67.65,149.5a4,4,0,0,1-.6-.05,3.77,3.77,0,0,1-3.11-4.32c2.6-16-5-33.59-5.07-33.77a3.76,3.76,0,0,1,6.88-3c.35.79,8.58,19.72,5.61,38A3.75,3.75,0,0,1,67.65,149.5Z"/><path d="M62.31,106.76a3.08,3.08,0,0,1,2.82,1.84c.35.79,8.51,19.53,5.57,37.63a3.09,3.09,0,0,1-3,2.59,2.89,2.89,0,0,1-.5,0,3.08,3.08,0,0,1-2.55-3.54c2.64-16.21-5-33.87-5.11-34.15a3.08,3.08,0,0,1,2.82-4.33m0-1.34a4.42,4.42,0,0,0-4.05,6.22c.07.17,7.59,17.58,5,33.39a4.43,4.43,0,0,0,3.66,5.08,4.34,4.34,0,0,0,.71.06A4.42,4.42,0,0,0,72,146.45c3-18.49-5.3-37.59-5.66-38.39a4.42,4.42,0,0,0-4-2.64Z"/><path class="cls-5" d="M67.95,140.35h0a4.1,4.1,0,0,1,4.1,4.1V149a.67.67,0,0,1-.67.67H64.52a.67.67,0,0,1-.67-.67v-4.58a4.1,4.1,0,0,1,4.1-4.1Z" transform="translate(126.89 293.93) rotate(-176.49)"/><path class="cls-4" d="M59.33,142.49a4.71,4.71,0,0,1-3.68-1.82,4.52,4.52,0,0,1-.81-3.92,4.81,4.81,0,0,1,3.42-3.42L67.09,131a14.92,14.92,0,0,0,11-12.07l.68,0-.67-.07a39.55,39.55,0,0,0-1-12.29,4.14,4.14,0,0,1,.66-3.24,4.08,4.08,0,0,1,2.82-1.68,4.36,4.36,0,0,1,.51,0,4.16,4.16,0,0,1,4,3A55.77,55.77,0,0,1,87.15,117a18.81,18.81,0,0,1-.69,5.83l-.12.41a24.08,24.08,0,0,1-13.42,15.27l-1.11.49a42,42,0,0,1-8,2.65l-3.43.75A4.44,4.44,0,0,1,59.33,142.49Z"/><path d="M81,102.25a3.47,3.47,0,0,1,3.35,2.56A54.74,54.74,0,0,1,86.47,117a17.5,17.5,0,0,1-.66,5.62c0,.13-.07.26-.11.4a23.51,23.51,0,0,1-13,14.85l-1.11.49a41.53,41.53,0,0,1-7.9,2.6l-3.44.76a4.28,4.28,0,0,1-.87.09,4,4,0,0,1-3.84-4.89l0-.08A4.09,4.09,0,0,1,58.44,134l8.82-2.34A15.57,15.57,0,0,0,78.7,119l0-.14a40.92,40.92,0,0,0-1-12.5,3.42,3.42,0,0,1,2.91-4.12l.43,0m0-1.35h0c-.2,0-.4,0-.6,0a4.75,4.75,0,0,0-4,5.73,39.3,39.3,0,0,1,1,12l0,.1a14.2,14.2,0,0,1-10.45,11.52l-8.83,2.34a5.46,5.46,0,0,0-3.88,3.8l0,.11a5.17,5.17,0,0,0,.93,4.49,5.37,5.37,0,0,0,4.21,2.08,5.65,5.65,0,0,0,1.16-.13l3.43-.76a43.07,43.07,0,0,0,8.16-2.68l1.11-.5A24.73,24.73,0,0,0,87,123.39l.12-.41a19.25,19.25,0,0,0,.71-6,56.51,56.51,0,0,0-2.16-12.49A4.85,4.85,0,0,0,81,100.9Z"/><path class="cls-6" d="M37.05,159.16a25.2,25.2,0,0,1-.21-3.1c0-.29-.07-5.2-.37-6.88v-.05a57.55,57.55,0,0,0-2.59-7.65l-.11-.28a7.84,7.84,0,0,1-.4-1.45,7.43,7.43,0,0,1,2.57-7.07A4.11,4.11,0,0,0,31.61,135c-1.64,3.6-.68,6.19.53,9.48a35.89,35.89,0,0,1,1.47,4.68,42.77,42.77,0,0,1,.91,7.6c.19,3.59.33,6.19,2.8,9.21a5.21,5.21,0,0,0,5.12,1.55C39.77,166,37.72,162.93,37.05,159.16Z"/><path class="cls-2" d="M51.61,156.57a12.79,12.79,0,0,0-2-4.91l0,0a7.62,7.62,0,0,0-4.76-2.88.47.47,0,0,1-.36-.57.48.48,0,0,1,.58-.36,10.07,10.07,0,0,1,3.68,1.61,10.15,10.15,0,0,0,3.08-4.1A13.54,13.54,0,0,1,50.31,142s0,0,0-.06a.47.47,0,0,1,.33-.54.48.48,0,0,1,.6.32A12.71,12.71,0,0,0,52.76,145l0,.05c1,1.46,2.16,2.26,3.22,2.07,2.07-.36,3.16-4.37,2.38-8.74s-3.18-7.76-5.25-7.39c-1.13.2-2,1.51-2.4,3.45,0,0,0,.05,0,.07a12.11,12.11,0,0,0-.22,2.26.48.48,0,0,1-.49.48.49.49,0,0,1-.48-.49,14,14,0,0,1,.2-2.23,10.1,10.1,0,0,0-12.33-1.69l0,0a6.51,6.51,0,0,0-2.69,8l.11.28A55.45,55.45,0,0,1,37.41,149a64.47,64.47,0,0,1,.39,7.1v0A29,29,0,0,0,38,159c.7,3.94,3.12,7.21,6,8.12a5.29,5.29,0,0,0,2.49.18C50.25,166.62,52.54,161.81,51.61,156.57Z"/><path class="cls-7" d="M46.66,168.24a6,6,0,0,1-2.75-.16,8.06,8.06,0,0,1-2.27.47,5.87,5.87,0,0,1-5.07-2c-2.67-3.27-2.82-6.14-3-9.77a42.41,42.41,0,0,0-.89-7.44,34.45,34.45,0,0,0-1.44-4.56,24.94,24.94,0,0,1-1.29-4.24,9.6,9.6,0,0,1,.79-6c.8-1.74,2.94-3.46,6.37-2.67a11.16,11.16,0,0,1,3.47-1.24A11,11,0,0,1,50,133.41c.56-1.9,1.61-3.15,3-3.39,2.67-.48,5.47,3.11,6.37,8.17s-.49,9.39-3.16,9.86c-1.25.23-2.56-.47-3.68-1.82a11.12,11.12,0,0,1-3,3.82,5.74,5.74,0,0,1,.92,1.07,13.63,13.63,0,0,1,2.12,5.28C53.58,162.17,50.94,167.48,46.66,168.24Zm-4.22-.76c-2.67-1.44-4.72-4.55-5.39-8.32a25.2,25.2,0,0,1-.21-3.1c0-.29-.07-5.2-.37-6.88v-.05a57.55,57.55,0,0,0-2.59-7.65l-.11-.28a7.84,7.84,0,0,1-.4-1.45,7.43,7.43,0,0,1,2.57-7.07A4.11,4.11,0,0,0,31.61,135c-1.64,3.6-.68,6.19.53,9.48a35.89,35.89,0,0,1,1.47,4.68,42.77,42.77,0,0,1,.91,7.6c.19,3.59.33,6.19,2.8,9.21A5.21,5.21,0,0,0,42.44,167.48Zm4.06-.19c3.75-.67,6-5.48,5.11-10.72a12.79,12.79,0,0,0-2-4.91l0,0a7.62,7.62,0,0,0-4.76-2.88.47.47,0,0,1-.36-.57.48.48,0,0,1,.58-.36,10.07,10.07,0,0,1,3.68,1.61,10.15,10.15,0,0,0,3.08-4.1A13.54,13.54,0,0,1,50.31,142s0,0,0-.06a.47.47,0,0,1,.33-.54.48.48,0,0,1,.6.32A12.71,12.71,0,0,0,52.76,145l0,.05c1,1.46,2.16,2.26,3.22,2.07,2.07-.36,3.16-4.37,2.38-8.74s-3.18-7.76-5.25-7.39c-1.13.2-2,1.51-2.4,3.45,0,0,0,.05,0,.07a12.11,12.11,0,0,0-.22,2.26.48.48,0,0,1-.49.48.49.49,0,0,1-.48-.49,14,14,0,0,1,.2-2.23,10.1,10.1,0,0,0-12.33-1.69l0,0a6.51,6.51,0,0,0-2.69,8l.11.28A55.45,55.45,0,0,1,37.41,149a64.47,64.47,0,0,1,.39,7.1v0A29,29,0,0,0,38,159c.7,3.94,3.12,7.21,6,8.12A5.29,5.29,0,0,0,46.5,167.29Z"/><path class="cls-8" d="M58.64,132h0a4.72,4.72,0,0,1,4.72,4.72V142a.77.77,0,0,1-.77.77H54.7a.77.77,0,0,1-.77-.77v-5.27A4.72,4.72,0,0,1,58.64,132Z" transform="translate(-68.11 216.5) rotate(-98.85)"/><path class="cls-9" d="M156,86.81c-.1-2.59-.29-5.19-.56-7.78-16.8,0-28.1-1.78-35-3.47-8.37-2-12-4.32-12.34-4.55l0,0L97.7,73.52A51.5,51.5,0,0,0,116,82.63,129.9,129.9,0,0,0,136.32,86C142.44,86.56,149,86.83,156,86.81Z"/><path class="cls-10" d="M150.66,85.71a7.36,7.36,0,0,0,7.64-.23c1.22-8.73,1.41-17-1.51-23.83-3.12,4.58-6,9-6.42,11.76Z"/><path class="cls-11" d="M154,63.48a1,1,0,0,0-.56-.56h0a1.36,1.36,0,0,0-1.39.26,4.8,4.8,0,0,0-1.36,2.94l-.74,5.49-.26,2a11.24,11.24,0,0,0,.59,5.3"/><path class="cls-12" d="M157.66,61.81h0a1.74,1.74,0,0,0-1.44-1.1h0a1.74,1.74,0,0,0-1.6.71h0a6.47,6.47,0,0,0-1.25,3.64l-.06,1.86c0,.8-.28,2.38-.28,2.38l-.24,1.32"/><path class="cls-12" d="M159.14,75.43c.3-1.68.6-3.37,1-5.43a18.06,18.06,0,0,0,.33-3.44v-2a3.54,3.54,0,0,0-.82-2.32l-.1-.12a1.7,1.7,0,0,0-1.28-.59h0a1.17,1.17,0,0,0-1.13.87l-.86,3.18a13.51,13.51,0,0,0-.3,1.54l-.31,2.47a10.29,10.29,0,0,1-.38,1.75l-.42,1.31"/><path class="cls-12" d="M157.15,78.56a11.11,11.11,0,0,1,3.92-4.93,2.89,2.89,0,0,1,.87-.41,1.9,1.9,0,0,1,2.46,2.17,5.54,5.54,0,0,1-1.49,3.17,10.47,10.47,0,0,0-2.33,4.51,4.5,4.5,0,0,1-.83,1.9l-.11.15a4.55,4.55,0,0,1-2.29,1.63l-.85.27a5.73,5.73,0,0,1-3.43,0h0"/><path class="cls-12" d="M152.28,79.71a5.3,5.3,0,0,0-1-2.12,2.62,2.62,0,0,0-2.08-1h-.12a2.4,2.4,0,0,0-1.39.45h0a.84.84,0,0,0,0,1.33,4.4,4.4,0,0,1,.9,1,4.14,4.14,0,0,1,.63,2.4l-.06,1.61a3.69,3.69,0,0,1-.6,1.85l-.25.36a1.35,1.35,0,0,0,.32,1.89h0a1.49,1.49,0,0,0,1.7,0h0A4.26,4.26,0,0,0,152.09,85l.46-1.91"/><path class="cls-9" d="M10.73,103.81A17.11,17.11,0,0,1,.85,89.89a15.56,15.56,0,0,1,2-8.72,18.36,18.36,0,0,1,2.93-3.9c4.77-4.88,12.26-6.64,19.53-4.59a3.57,3.57,0,0,1-1.94,6.88c-4.76-1.34-9.54-.31-12.49,2.71A9.54,9.54,0,0,0,8,89.4c.26,3.76,3.15,7.14,7.35,8.61A3.57,3.57,0,0,1,13,104.75,17.89,17.89,0,0,1,10.73,103.81Z"/><rect class="cls-13" x="24.3" y="64.54" width="6.25" height="48.33"/><path class="cls-4" d="M24.3,64.54h6.25a13.25,13.25,0,0,0,2.39-2.4c3.16-4,5.21-10.5,5.21-17.8s-2.13-14-5.39-18a13.68,13.68,0,0,0-2.21-2.17H24.3a13.63,13.63,0,0,1,2.2,2.17c3.27,4,5.4,10.59,5.4,18s-2,13.77-5.21,17.8A13.57,13.57,0,0,1,24.3,64.54Z"/><rect class="cls-13" x="24.3" y="0.82" width="6.25" height="23.32"/><path class="cls-14" d="M26.5,26.31c3.26,4,5.39,10.59,5.39,18s-2,13.77-5.2,17.8a13.57,13.57,0,0,1-2.39,2.4v48.33h80.12V63.36c-.37-.38-.72-.79-1.07-1.22-3.15-4-5.2-10.5-5.2-17.8s2.13-14,5.39-18c.29-.35.58-.68.88-1V.82H24.3V24.14A13.63,13.63,0,0,1,26.5,26.31Z"/><path class="cls-15" d="M32.76,26.31c3.26,4,5.39,10.59,5.39,18s-2,13.77-5.21,17.8a13.25,13.25,0,0,1-2.39,2.4v48.33h73.87V63.36a16.08,16.08,0,0,1-1.07-1.22c-3.15-4-5.2-10.5-5.2-17.8s2.13-14,5.39-18c.29-.35.58-.68.88-1V.82H30.55V24.14A13.68,13.68,0,0,1,32.76,26.31Z"/><path class="cls-16" d="M32.76,26.31c3.26,4,5.39,10.59,5.39,18s-2,13.77-5.21,17.8a13.25,13.25,0,0,1-2.39,2.4v48.33h80.12V63.36a16,16,0,0,1-1.06-1.22c-3.16-4-5.21-10.5-5.21-17.8s2.13-14,5.4-18q.42-.52.87-1V.82H30.55V24.14A13.68,13.68,0,0,1,32.76,26.31Z"/><path class="cls-17" d="M69,.81h0A14.09,14.09,0,0,1,83.12,14.9v25a0,0,0,0,1,0,0H54.95a0,0,0,0,1,0,0v-25A14.09,14.09,0,0,1,69,.81Z" transform="translate(138.07 40.7) rotate(-180)"/><line class="cls-18" x1="69.3" y1="0.89" x2="69.3" y2="39.89"/><circle class="cls-19" cx="61.51" cy="17.53" r="2.86"/><line class="cls-20" x1="30.56" y1="24.14" x2="24.3" y2="24.14"/><line class="cls-20" x1="30.56" y1="64.54" x2="24.3" y2="64.54"/><ellipse class="cls-21" cx="92.15" cy="71.19" rx="9.53" ry="14.35"/><ellipse class="cls-22" cx="66.12" cy="70.44" rx="9.69" ry="14.35"/><path class="cls-23" d="M98.88,52s-5.14-5.37-10.12,0"/><path class="cls-23" d="M70.85,52s-5.14-5.37-10.12,0"/><path class="cls-24" d="M59.29,91a10.35,10.35,0,0,0,.12,3.14,12.58,12.58,0,0,0,2.66,5.6,16.83,16.83,0,0,0,8.27,5.39,18.41,18.41,0,0,0,2.53.55,16.22,16.22,0,0,0,7.33-.56,11.8,11.8,0,0,0,7.1-5.8,3.94,3.94,0,0,0,.08-3.34,4.5,4.5,0,0,0-2.89-2.5L64.83,87.59a4.52,4.52,0,0,0-3.79.52A4,4,0,0,0,59.29,91ZM64,90.46l19.66,5.83c.83.25,1.3,1,1,1.64-1.77,3.53-6.31,5.44-11.21,4.76a14.81,14.81,0,0,1-2.23-.48c-5-1.47-8.42-5.2-8.92-9.12a7.82,7.82,0,0,1,0-1.81C62.33,90.6,63.14,90.21,64,90.46Z"/><path class="cls-25" d="M62.26,91.28a7.82,7.82,0,0,0,0,1.81,9.5,9.5,0,0,1,11.15,9.6c4.9.68,9.44-1.23,11.21-4.76.31-.62-.16-1.39-1-1.64L64,90.46C63.14,90.21,62.33,90.6,62.26,91.28Z"/><path class="cls-26" d="M62.27,93.09c.5,3.92,4,7.65,8.92,9.12a14.81,14.81,0,0,0,2.23.48,9.5,9.5,0,0,0-11.15-9.6Z"/><ellipse class="cls-25" cx="96.38" cy="70.44" rx="4.99" ry="7.38"/><circle class="cls-10" cx="94.64" cy="67.63" r="1.5"/><ellipse class="cls-25" cx="70.77" cy="70.01" rx="4.99" ry="7.38"/><circle class="cls-10" cx="68.64" cy="67.2" r="1.5"/><ellipse class="cls-27" cx="12.21" cy="111.21" rx="1.48" ry="2.54" transform="translate(-58.04 24.14) rotate(-32.63)"/><path class="cls-11" d="M19.79,99.4h0A1.78,1.78,0,0,0,17.88,98h-.06a10,10,0,0,0-8.09,5.5l-.05.1a2.11,2.11,0,0,0,.62,2.57h0a1.4,1.4,0,0,0,1.42.18l4.45-2a7.41,7.41,0,0,0,3.13-2.6h0A3.18,3.18,0,0,0,19.79,99.4Z"/><path class="cls-28" d="M17.38,101.64h0a7.21,7.21,0,0,1,7.45,4.72,10.76,10.76,0,0,1,.56,2.54,15.25,15.25,0,0,1,0,1.78,7.64,7.64,0,0,1-2.75,5.43h0a.74.74,0,0,1-1.22-.54l-.11-2.92"/><ellipse class="cls-10" cx="18.31" cy="108.78" rx="5" ry="6.42" transform="translate(-20.01 5.34) rotate(-10.77)"/><path class="cls-28" d="M22.41,112.11a6.92,6.92,0,0,1-.2,3,4.47,4.47,0,0,1-3.34,3,4.29,4.29,0,0,1-.73.08A2.24,2.24,0,0,1,16,116.8h0"/><path class="cls-28" d="M18.44,112.87a9.24,9.24,0,0,1-1.44,4,3.07,3.07,0,0,1-1.52,1.34,4.29,4.29,0,0,1-4-.36,3.62,3.62,0,0,1-.32-.22,6.13,6.13,0,0,1-2-2.38l-1.15-2.41a1.9,1.9,0,0,1,.55-2.36l.06,0a1.26,1.26,0,0,1,1.65.22l2,2.23a.15.15,0,0,0,.26-.15l-.67-1.87a6,6,0,0,1,1.14-6l1.06-1.18"/></g></g></svg>