<svg xmlns="http://www.w3.org/2000/svg" viewBox="0 0 164.86 173.4"><defs><style>.cls-1,.cls-6{fill:#e5e5e5;}.cls-1,.cls-11,.cls-12,.cls-14,.cls-15,.cls-16,.cls-17,.cls-18,.cls-19,.cls-20,.cls-21,.cls-22,.cls-23,.cls-24,.cls-25,.cls-26,.cls-27,.cls-3,.cls-5,.cls-6,.cls-7,.cls-8,.cls-9{stroke:#000;}.cls-1,.cls-11,.cls-12,.cls-14,.cls-15,.cls-16,.cls-17,.cls-18,.cls-19,.cls-20,.cls-21,.cls-22,.cls-23,.cls-24,.cls-25,.cls-26,.cls-3,.cls-5,.cls-6,.cls-7,.cls-8,.cls-9{stroke-miterlimit:10;}.cls-1,.cls-3{stroke-width:0.19px;}.cls-2{fill:#bf4400;}.cls-4,.cls-9{fill:#003b49;}.cls-10,.cls-11,.cls-12,.cls-21,.cls-26,.cls-27,.cls-5,.cls-8{fill:#fff;}.cls-5{stroke-width:1.41px;}.cls-6,.cls-7{stroke-width:0.19px;}.cls-8{stroke-width:1.3px;}.cls-14,.cls-16,.cls-23,.cls-9{stroke-width:1.64px;}.cls-11,.cls-12,.cls-27{stroke-width:0.86px;}.cls-12,.cls-23,.cls-27{stroke-linecap:round;}.cls-13,.cls-15{fill:#00607a;}.cls-14,.cls-20,.cls-23{fill:none;}.cls-15,.cls-20{stroke-width:0.96px;}.cls-16{fill:#3291b2;}.cls-17,.cls-18,.cls-19{fill:#b3b3b3;}.cls-17{stroke-width:0.71px;}.cls-18{stroke-width:0.42px;}.cls-19{stroke-width:0.48px;}.cls-21{stroke-width:0.82px;}.cls-22{stroke-width:0.1px;}.cls-24{fill:#75c6d3;stroke-width:0.61px;}.cls-25{fill:#ea5e58;stroke-width:0.03px;}.cls-26{stroke-width:0.83px;}.cls-27{stroke-linejoin:round;}</style></defs><title>l24</title><g id="Layer_2" data-name="Layer 2"><g id="personaje"><path class="cls-1" d="M80.14,169.57a28.6,28.6,0,0,0,3.08-.33,68.19,68.19,0,0,1,6.83-.85h0a57.43,57.43,0,0,1,8,1.2l.3.06a7.59,7.59,0,0,0,1.49.14,7.42,7.42,0,0,0,6.5-3.76,4.09,4.09,0,0,1-1.49,4.65c-3.25,2.25-6,1.76-9.4,1.14a34.74,34.74,0,0,0-4.87-.62,41.75,41.75,0,0,0-7.62.43c-3.57.44-6.14.76-9.55-1.14A5.22,5.22,0,0,1,71,165.73C72.9,168.1,76.32,169.57,80.14,169.57Z"/><path class="cls-2" d="M80.14,154.81a12.62,12.62,0,0,1,5.17,1.07l0,0A7.63,7.63,0,0,1,89,160.07a.48.48,0,0,0,.63.26.49.49,0,0,0,.25-.64,9.89,9.89,0,0,0-2.23-3.33,10.08,10.08,0,0,1,3.5-3.75,13.39,13.39,0,0,0,3.58.91h.06a.49.49,0,0,0,.48-.42.48.48,0,0,0-.42-.54,13,13,0,0,1-3.53-.92l0,0c-1.61-.72-2.61-1.73-2.61-2.81,0-2.09,3.75-3.86,8.18-3.86s8.19,1.77,8.19,3.86c0,1.15-1.14,2.24-3,3l-.07,0a12.5,12.5,0,0,1-2.18.61.48.48,0,0,0-.38.56.48.48,0,0,0,.56.39,14.12,14.12,0,0,0,2.16-.59A10.11,10.11,0,0,1,106,164.6l0,.06a6.48,6.48,0,0,1-7.39,4l-.29,0a56.28,56.28,0,0,0-8.16-1.22,65.25,65.25,0,0,0-7,.86h0a24.8,24.8,0,0,1-2.89.32c-4,0-7.62-1.81-9-4.5a5.18,5.18,0,0,1-.61-2.4C70.49,157.9,74.82,154.81,80.14,154.81Z"/><path class="cls-3" d="M80.14,153.84A13.42,13.42,0,0,1,85.69,155a5.55,5.55,0,0,1,1.22.72,11.14,11.14,0,0,1,3.23-3.6c-1.52-.86-2.43-2-2.43-3.3,0-2.71,4-4.83,9.14-4.83s9.15,2.12,9.15,4.83c0,1.38-1,2.63-2.82,3.52a11,11,0,0,1,4.37,8.78,10.86,10.86,0,0,1-.62,3.63c1.38,3.24.06,5.64-1.51,6.73a9.63,9.63,0,0,1-5.72,1.82,24.54,24.54,0,0,1-4.4-.53,35,35,0,0,0-4.74-.61,42.05,42.05,0,0,0-7.46.42c-3.61.45-6.46.8-10.13-1.25a5.88,5.88,0,0,1-2.87-4.63,8.12,8.12,0,0,1,.06-2.31,6.2,6.2,0,0,1-.63-2.68C69.53,157.37,74.29,153.84,80.14,153.84Zm-6.71,16.65c3.41,1.9,6,1.58,9.55,1.14a41.75,41.75,0,0,1,7.62-.43,34.74,34.74,0,0,1,4.87.62c3.44.62,6.15,1.11,9.4-1.14a4.09,4.09,0,0,0,1.49-4.65,7.42,7.42,0,0,1-6.5,3.76,7.59,7.59,0,0,1-1.49-.14l-.3-.06a57.43,57.43,0,0,0-8-1.2h0a68.19,68.19,0,0,0-6.83.85,28.6,28.6,0,0,1-3.08.33c-3.82,0-7.24-1.47-9.13-3.84A5.22,5.22,0,0,0,73.43,170.49Zm-2.33-6.38c1.41,2.69,5,4.5,9,4.5a24.8,24.8,0,0,0,2.89-.32h0a65.25,65.25,0,0,1,7-.86,56.28,56.28,0,0,1,8.16,1.22l.29,0a6.48,6.48,0,0,0,7.39-4l0-.06a10.11,10.11,0,0,0-3.82-11.82,14.12,14.12,0,0,1-2.16.59.48.48,0,0,1-.56-.39.48.48,0,0,1,.38-.56,12.5,12.5,0,0,0,2.18-.61l.07,0c1.84-.72,3-1.81,3-3,0-2.09-3.75-3.86-8.19-3.86s-8.18,1.77-8.18,3.86c0,1.08,1,2.09,2.61,2.81l0,0a13,13,0,0,0,3.53.92.48.48,0,0,1,.42.54.49.49,0,0,1-.48.42h-.06a13.39,13.39,0,0,1-3.58-.91,10.08,10.08,0,0,0-3.5,3.75,9.89,9.89,0,0,1,2.23,3.33.49.49,0,0,1-.25.64.48.48,0,0,1-.63-.26,7.63,7.63,0,0,0-3.66-4.17l0,0a12.62,12.62,0,0,0-5.17-1.07c-5.32,0-9.65,3.09-9.65,6.9A5.18,5.18,0,0,0,71.1,164.11Z"/><path class="cls-4" d="M97.2,149.5a3.73,3.73,0,0,1-3.7-3.16c-3-18.29,5.26-37.22,5.61-38a3.76,3.76,0,0,1,3.44-2.24,3.84,3.84,0,0,1,1.52.32,3.76,3.76,0,0,1,1.91,5c-.07.17-7.66,17.78-5.07,33.76a3.77,3.77,0,0,1-3.1,4.32A4.3,4.3,0,0,1,97.2,149.5Z"/><path d="M102.55,106.76a3,3,0,0,1,1.24.26,3.09,3.09,0,0,1,1.58,4.07c-.12.28-7.75,17.94-5.12,34.15a3.08,3.08,0,0,1-2.55,3.54,2.81,2.81,0,0,1-.5,0,3.07,3.07,0,0,1-3-2.59c-2.94-18.1,5.21-36.84,5.56-37.63a3.08,3.08,0,0,1,2.83-1.84m0-1.34h0a4.43,4.43,0,0,0-4.06,2.64c-.35.8-8.66,19.9-5.66,38.39a4.42,4.42,0,0,0,4.37,3.72,4.37,4.37,0,0,0,.72-.06,4.43,4.43,0,0,0,3.66-5.08c-2.57-15.8,4.94-33.22,5-33.4a4.41,4.41,0,0,0-4-6.21Z"/><path class="cls-5" d="M93.48,140.35h6.85a.67.67,0,0,1,.67.67v4.58a4.1,4.1,0,0,1-4.1,4.1h0a4.1,4.1,0,0,1-4.1-4.1V141a.67.67,0,0,1,.67-.67Z" transform="translate(-8.7 6.21) rotate(-3.51)"/><path class="cls-4" d="M105.52,142.49a4.29,4.29,0,0,1-1-.12l-3.43-.75A42.07,42.07,0,0,1,93,139l-1.1-.49a24.09,24.09,0,0,1-13.43-15.27l-.12-.41a18.5,18.5,0,0,1-.68-5.83,55.77,55.77,0,0,1,2.14-12.34,4.15,4.15,0,0,1,4-3,4.53,4.53,0,0,1,.52,0,4.06,4.06,0,0,1,2.81,1.68,4.11,4.11,0,0,1,.67,3.24,39.9,39.9,0,0,0-1,12.29l0,.1A14.89,14.89,0,0,0,97.76,131l8.83,2.34a4.77,4.77,0,0,1,3.4,3.33,4.55,4.55,0,0,1-.79,4,4.69,4.69,0,0,1-3.68,1.82Z"/><path d="M83.84,102.25l.44,0a3.42,3.42,0,0,1,2.9,4.12,40.92,40.92,0,0,0-1.05,12.5l0,.14a15.57,15.57,0,0,0,11.43,12.61l8.83,2.34a4.11,4.11,0,0,1,2.93,2.86.31.31,0,0,0,0,.08,4,4,0,0,1-3.85,4.89,4.43,4.43,0,0,1-.87-.09l-3.43-.76a41.3,41.3,0,0,1-7.9-2.6l-1.11-.49a23.51,23.51,0,0,1-13-14.85l-.12-.4a18.08,18.08,0,0,1-.66-5.62,55.92,55.92,0,0,1,2.11-12.19,3.49,3.49,0,0,1,3.35-2.56m0-1.35a4.84,4.84,0,0,0-4.64,3.55A56.51,56.51,0,0,0,77,116.94a19.25,19.25,0,0,0,.71,6l.12.41a24.74,24.74,0,0,0,13.79,15.7l1.11.5a43.31,43.31,0,0,0,8.16,2.68l3.43.76a5.81,5.81,0,0,0,1.16.13,5.37,5.37,0,0,0,4.21-2.08,5.17,5.17,0,0,0,.94-4.49l0-.11a5.46,5.46,0,0,0-3.88-3.8l-8.82-2.34a14.22,14.22,0,0,1-10.46-11.52v-.1a38.94,38.94,0,0,1,1-12,4.75,4.75,0,0,0-4-5.73c-.2,0-.4,0-.6,0Z"/><path class="cls-6" d="M127.81,159.16a27.42,27.42,0,0,0,.21-3.1,68.13,68.13,0,0,1,.36-6.88v-.05a56,56,0,0,1,2.58-7.65l.11-.28a7.88,7.88,0,0,0,.41-1.45,7.45,7.45,0,0,0-2.57-7.07,4.09,4.09,0,0,1,4.32,2.28c1.65,3.6.69,6.19-.52,9.48a35.85,35.85,0,0,0-1.48,4.68,44.72,44.72,0,0,0-.91,7.6c-.19,3.59-.32,6.19-2.79,9.21a5.23,5.23,0,0,1-5.13,1.55C125.08,166,127.14,162.93,127.81,159.16Z"/><path class="cls-2" d="M113.25,156.57a12.48,12.48,0,0,1,2-4.91l0,0a7.62,7.62,0,0,1,4.76-2.88.48.48,0,1,0-.22-.93,9.91,9.91,0,0,0-3.68,1.61,10.15,10.15,0,0,1-3.08-4.1,13.53,13.53,0,0,0,1.52-3.38s0,0,0-.06a.48.48,0,0,0-.94-.22A12.71,12.71,0,0,1,112.1,145l0,.05c-1,1.46-2.17,2.26-3.23,2.07-2.06-.36-3.15-4.37-2.37-8.74s3.18-7.76,5.24-7.39c1.14.2,2,1.51,2.4,3.45a.64.64,0,0,0,0,.07,13,13,0,0,1,.22,2.26.48.48,0,1,0,1,0,14,14,0,0,0-.2-2.23,10.1,10.1,0,0,1,12.33-1.69l.06,0a6.52,6.52,0,0,1,2.68,8l-.11.28a56.76,56.76,0,0,0-2.63,7.83,70,70,0,0,0-.39,7.1v0a26.76,26.76,0,0,1-.19,2.9c-.7,3.94-3.12,7.21-6,8.12a5.25,5.25,0,0,1-2.48.18C114.61,166.62,112.32,161.81,113.25,156.57Z"/><path class="cls-7" d="M112.3,156.4a13.47,13.47,0,0,1,2.12-5.28,5.74,5.74,0,0,1,.92-1.07,11,11,0,0,1-3-3.82c-1.13,1.35-2.43,2.05-3.69,1.82-2.67-.47-4-4.8-3.15-9.86s3.69-8.65,6.36-8.17c1.36.24,2.41,1.49,3,3.39a11.06,11.06,0,0,1,12.9-1.52c3.44-.79,5.58.93,6.37,2.67a9.61,9.61,0,0,1,.8,6,25,25,0,0,1-1.3,4.24,34.47,34.47,0,0,0-1.43,4.56,41.47,41.47,0,0,0-.89,7.44c-.2,3.63-.35,6.5-3,9.77a5.85,5.85,0,0,1-5.07,2,8.06,8.06,0,0,1-2.27-.47,6,6,0,0,1-2.75.16C113.92,167.48,111.27,162.17,112.3,156.4Zm15.24,9.53c2.47-3,2.6-5.62,2.79-9.21a44.72,44.72,0,0,1,.91-7.6,35.85,35.85,0,0,1,1.48-4.68c1.21-3.29,2.17-5.88.52-9.48a4.09,4.09,0,0,0-4.32-2.28,7.45,7.45,0,0,1,2.57,7.07,7.88,7.88,0,0,1-.41,1.45l-.11.28a56,56,0,0,0-2.58,7.65v.05a68.13,68.13,0,0,0-.36,6.88,27.42,27.42,0,0,1-.21,3.1c-.67,3.77-2.73,6.88-5.4,8.32A5.23,5.23,0,0,0,127.54,165.93Zm-6.7,1.18c2.9-.91,5.32-4.18,6-8.12a26.76,26.76,0,0,0,.19-2.9v0a70,70,0,0,1,.39-7.1,56.76,56.76,0,0,1,2.63-7.83l.11-.28a6.52,6.52,0,0,0-2.68-8l-.06,0a10.1,10.1,0,0,0-12.33,1.69,14,14,0,0,1,.2,2.23.48.48,0,1,1-1,0,13,13,0,0,0-.22-2.26.64.64,0,0,1,0-.07c-.39-1.94-1.26-3.25-2.4-3.45-2.06-.37-4.47,3-5.24,7.39s.31,8.38,2.37,8.74c1.06.19,2.23-.61,3.23-2.07l0-.05a12.71,12.71,0,0,0,1.52-3.31.48.48,0,0,1,.94.22s0,0,0,.06a13.53,13.53,0,0,1-1.52,3.38,10.15,10.15,0,0,0,3.08,4.1,9.91,9.91,0,0,1,3.68-1.61.48.48,0,1,1,.22.93,7.62,7.62,0,0,0-4.76,2.88l0,0a12.48,12.48,0,0,0-2,4.91c-.93,5.24,1.36,10.05,5.11,10.72A5.25,5.25,0,0,0,120.84,167.11Z"/><path class="cls-8" d="M102.27,132h7.89a.77.77,0,0,1,.77.77v5.27a4.72,4.72,0,0,1-4.72,4.72h0a4.72,4.72,0,0,1-4.72-4.72V132.8a.77.77,0,0,1,.77-.77Z" transform="translate(-45.9 221.22) rotate(-81.15)"/><path class="cls-9" d="M8.84,86.81c.1-2.59.28-5.19.56-7.78,16.79,0,28.1-1.78,35-3.47,8.38-2,12-4.32,12.34-4.55l0,0,10.48,2.48a51.6,51.6,0,0,1-18.3,9.11A129.56,129.56,0,0,1,28.54,86C22.42,86.56,15.82,86.83,8.84,86.81Z"/><path class="cls-10" d="M14.2,85.71a7.36,7.36,0,0,1-7.64-.23c-1.23-8.73-1.41-17,1.51-23.83,3.11,4.58,6,9,6.42,11.76Z"/><path class="cls-11" d="M10.89,63.48a.94.94,0,0,1,.56-.56h0a1.36,1.36,0,0,1,1.39.26,4.8,4.8,0,0,1,1.36,2.94l.74,5.49.25,2a11.36,11.36,0,0,1-.58,5.3"/><path class="cls-12" d="M7.19,61.81h0a1.75,1.75,0,0,1,1.44-1.1h0a1.74,1.74,0,0,1,1.61.71h0a6.54,6.54,0,0,1,1.25,3.64l.06,1.86c0,.8.28,2.38.28,2.38l.24,1.32"/><path class="cls-12" d="M5.71,75.43c-.3-1.68-.6-3.37-1-5.43a18.06,18.06,0,0,1-.33-3.44v-2a3.59,3.59,0,0,1,.82-2.32l.11-.12a1.7,1.7,0,0,1,1.28-.59h0a1.18,1.18,0,0,1,1.13.87l.85,3.18a10.22,10.22,0,0,1,.3,1.54l.32,2.47a9.41,9.41,0,0,0,.38,1.75L10,72.65"/><path class="cls-12" d="M7.71,78.56a11.11,11.11,0,0,0-3.92-4.93,2.94,2.94,0,0,0-.88-.41,2,2,0,0,0-1.59.19,1.94,1.94,0,0,0-.86,2,5.53,5.53,0,0,0,1.48,3.17,10.47,10.47,0,0,1,2.33,4.51A4.76,4.76,0,0,0,5.1,85l.12.15A4.56,4.56,0,0,0,7.5,86.75l.86.27a5.73,5.73,0,0,0,3.43,0h0"/><path class="cls-12" d="M12.58,79.71a5.28,5.28,0,0,1,.95-2.12,2.64,2.64,0,0,1,2.09-1h.12a2.35,2.35,0,0,1,1.38.45h0a.84.84,0,0,1,.05,1.33,4.18,4.18,0,0,0-.9,1,4.07,4.07,0,0,0-.63,2.4l.06,1.61a3.51,3.51,0,0,0,.6,1.85c.08.13.17.25.25.36a1.35,1.35,0,0,1-.33,1.89h0a1.49,1.49,0,0,1-1.7,0h0A4.26,4.26,0,0,1,12.76,85l-.45-1.91"/><path class="cls-9" d="M154.13,103.81A17.12,17.12,0,0,0,164,89.89a15.39,15.39,0,0,0-2-8.72,18.31,18.31,0,0,0-2.92-3.9c-4.78-4.88-12.26-6.64-19.53-4.59a3.57,3.57,0,0,0,1.94,6.88c4.75-1.34,9.54-.31,12.48,2.71a9.47,9.47,0,0,1,2.93,7.13c-.26,3.76-3.14,7.14-7.34,8.61a3.57,3.57,0,1,0,2.36,6.74A19.24,19.24,0,0,0,154.13,103.81Z"/><rect class="cls-13" x="134.3" y="64.54" width="6.25" height="48.33"/><path class="cls-4" d="M140.55,64.54H134.3a13.57,13.57,0,0,1-2.39-2.4c-3.16-4-5.2-10.5-5.2-17.8s2.13-14,5.39-18a13.63,13.63,0,0,1,2.2-2.17h6.25a14.05,14.05,0,0,0-2.2,2.17c-3.26,4-5.39,10.59-5.39,18s2,13.77,5.21,17.8A13.2,13.2,0,0,0,140.55,64.54Z"/><rect class="cls-13" x="134.3" y="0.82" width="6.25" height="23.32"/><path class="cls-14" d="M138.36,26.31c-3.27,4-5.4,10.59-5.4,18s2,13.77,5.2,17.8a13.57,13.57,0,0,0,2.39,2.4v48.33H60.43V63.36a15.82,15.82,0,0,0,1.07-1.22c3.16-4,5.21-10.5,5.21-17.8s-2.13-14-5.4-18c-.28-.35-.58-.68-.88-1V.82h80.12V24.14A13.58,13.58,0,0,0,138.36,26.31Z"/><path class="cls-15" d="M132.1,26.31c-3.26,4-5.39,10.59-5.39,18s2,13.77,5.2,17.8a13.57,13.57,0,0,0,2.39,2.4v48.33H60.44V63.36a16,16,0,0,0,1.06-1.22c3.16-4,5.21-10.5,5.21-17.8s-2.13-14-5.4-18c-.28-.35-.58-.68-.87-1V.82H134.3V24.14A13.63,13.63,0,0,0,132.1,26.31Z"/><path class="cls-16" d="M132.1,26.31c-3.26,4-5.39,10.59-5.39,18s2,13.77,5.2,17.8a13.57,13.57,0,0,0,2.39,2.4v48.33H54.18V63.36a16.08,16.08,0,0,0,1.07-1.22c3.16-4,5.2-10.5,5.2-17.8s-2.13-14-5.39-18c-.29-.35-.58-.68-.88-1V.82H134.3V24.14A13.63,13.63,0,0,0,132.1,26.31Z"/><path class="cls-17" d="M81.73.81h28.17a0,0,0,0,1,0,0v25A14.09,14.09,0,0,1,95.82,39.89h0A14.09,14.09,0,0,1,81.73,25.8V.81A0,0,0,0,1,81.73.81Z"/><line class="cls-18" x1="95.56" y1="0.89" x2="95.56" y2="39.89"/><circle class="cls-19" cx="103.35" cy="17.53" r="2.86"/><line class="cls-20" x1="134.3" y1="24.14" x2="140.55" y2="24.14"/><line class="cls-20" x1="134.3" y1="64.54" x2="140.55" y2="64.54"/><ellipse class="cls-21" cx="72.87" cy="71.19" rx="9.69" ry="14.35"/><ellipse class="cls-21" cx="98.74" cy="70.44" rx="9.69" ry="14.35"/><ellipse class="cls-22" cx="95.41" cy="65.66" rx="4.99" ry="7.38"/><ellipse class="cls-22" cx="69.71" cy="65.66" rx="4.99" ry="7.38"/><path class="cls-23" d="M66,52s5.15-5.37,10.13,0"/><path class="cls-23" d="M94,52s5.15-5.37,10.13,0"/><path class="cls-24" d="M103.82,88.11a4.53,4.53,0,0,0-3.79-.52L80.37,93.43a4.51,4.51,0,0,0-2.9,2.5,4,4,0,0,0,.08,3.34,11.83,11.83,0,0,0,7.1,5.8,16.26,16.26,0,0,0,7.34.56,18.74,18.74,0,0,0,2.53-.55,16.88,16.88,0,0,0,8.27-5.39,12.69,12.69,0,0,0,2.66-5.6,10.68,10.68,0,0,0,.12-3.14A4,4,0,0,0,103.82,88.11Zm-1.22,3.17a7.3,7.3,0,0,1,0,1.81c-.5,3.92-4,7.65-8.91,9.12a15.07,15.07,0,0,1-2.23.48c-4.9.68-9.44-1.23-11.21-4.76-.31-.62.15-1.39,1-1.64l19.66-5.83A1.25,1.25,0,0,1,102.6,91.28Z"/><path class="cls-22" d="M102.6,91.28a7.3,7.3,0,0,1,0,1.81,9.5,9.5,0,0,0-11.14,9.6c-4.9.68-9.44-1.23-11.21-4.76-.31-.62.15-1.39,1-1.64l19.66-5.83A1.25,1.25,0,0,1,102.6,91.28Z"/><path class="cls-25" d="M102.58,93.09c-.5,3.92-4,7.65-8.91,9.12a15.07,15.07,0,0,1-2.23.48,9.5,9.5,0,0,1,11.14-9.6Z"/><circle class="cls-10" cx="67.89" cy="62.85" r="1.5"/><circle class="cls-10" cx="93.88" cy="62.85" r="1.5"/><ellipse class="cls-26" cx="152.65" cy="111.21" rx="2.54" ry="1.48" transform="translate(-23.32 179.79) rotate(-57.37)"/><path class="cls-11" d="M145.07,99.4h0A1.77,1.77,0,0,1,147,98H147a10,10,0,0,1,8.1,5.5l.05.1a2.11,2.11,0,0,1-.62,2.57h0a1.4,1.4,0,0,1-1.42.18l-4.46-2a7.44,7.44,0,0,1-3.12-2.6h0A3.13,3.13,0,0,1,145.07,99.4Z"/><path class="cls-27" d="M147.47,101.64h0a7.2,7.2,0,0,0-7.44,4.72,10.77,10.77,0,0,0-.57,2.54,15.2,15.2,0,0,0,0,1.78,7.63,7.63,0,0,0,2.74,5.43h0a.74.74,0,0,0,1.22-.54l.12-2.92"/><ellipse class="cls-10" cx="146.55" cy="108.78" rx="6.42" ry="5" transform="translate(12.29 232.4) rotate(-79.23)"/><path class="cls-27" d="M142.44,112.11a7.06,7.06,0,0,0,.21,3,4.45,4.45,0,0,0,3.33,3,4.41,4.41,0,0,0,.73.08,2.25,2.25,0,0,0,2.15-1.44h0"/><path class="cls-27" d="M146.42,112.87a9,9,0,0,0,1.44,4,3,3,0,0,0,1.51,1.34,4.29,4.29,0,0,0,4-.36l.33-.22a6.11,6.11,0,0,0,1.95-2.38l1.16-2.41a1.9,1.9,0,0,0-.56-2.36l-.05,0a1.27,1.27,0,0,0-1.66.22l-2,2.23a.15.15,0,0,1-.26-.15l.67-1.87a6,6,0,0,0-1.14-6c-.34-.39-.71-.79-1.06-1.18"/></g></g></svg>