<svg xmlns="http://www.w3.org/2000/svg" viewBox="0 0 72.91 139.31"><defs><style>.cls-1,.cls-31{fill:#e5e5e5;}.cls-1,.cls-10,.cls-12,.cls-13,.cls-16,.cls-17,.cls-19,.cls-2,.cls-21,.cls-22,.cls-23,.cls-24,.cls-25,.cls-26,.cls-27,.cls-28,.cls-29,.cls-3,.cls-30,.cls-31,.cls-32,.cls-33,.cls-34,.cls-5,.cls-6,.cls-7,.cls-9{stroke:#000;}.cls-1,.cls-10,.cls-12,.cls-13,.cls-17,.cls-19,.cls-2,.cls-20,.cls-21,.cls-22,.cls-23,.cls-24,.cls-25,.cls-26,.cls-27,.cls-28,.cls-29,.cls-3,.cls-31,.cls-32,.cls-33,.cls-34,.cls-5,.cls-9{stroke-miterlimit:10;}.cls-1,.cls-2,.cls-3{stroke-width:0.12px;}.cls-2,.cls-32{fill:#760dc9;}.cls-4{fill:#d7840b;}.cls-10,.cls-26,.cls-27,.cls-29,.cls-30,.cls-34,.cls-5,.cls-8,.cls-9{fill:#fff;}.cls-5{stroke-width:0.93px;}.cls-14,.cls-6,.cls-7{fill:#d88500;}.cls-10,.cls-16,.cls-22,.cls-30,.cls-6,.cls-7{stroke-linecap:round;}.cls-16,.cls-30,.cls-6,.cls-7{stroke-linejoin:round;}.cls-6{stroke-width:0.82px;}.cls-7{stroke-width:0.99px;}.cls-10,.cls-30,.cls-9{stroke-width:0.62px;}.cls-11{fill:#fbccac;}.cls-12{fill:#ff7bac;}.cls-12,.cls-13,.cls-21,.cls-22{stroke-width:1.15px;}.cls-13{fill:#ccc;}.cls-15{fill:#f9b233;}.cls-16{stroke-width:0.01px;}.cls-17{fill:#666;}.cls-17,.cls-27{stroke-width:0.57px;}.cls-18,.cls-19,.cls-20,.cls-21,.cls-22{fill:none;}.cls-19{stroke-width:0.86px;}.cls-20{stroke:#bf720c;stroke-width:0.46px;}.cls-23{fill:#abd6bd;stroke-width:0.22px;}.cls-24{fill:#ffd18f;stroke-width:0.43px;}.cls-25,.cls-26{stroke-width:0.02px;}.cls-28{stroke-width:0.07px;}.cls-29{stroke-width:0.6px;}.cls-31,.cls-32,.cls-33{stroke-width:0.12px;}.cls-34{stroke-width:0.86px;}</style></defs><title>l24</title><g id="Layer_2" data-name="Layer 2"><g id="personaje"><path class="cls-1" d="M36.57,136.79a17.92,17.92,0,0,0,2-.22c.18,0,3.38-.56,4.51-.56h0a37.84,37.84,0,0,1,5.27.79l.19,0a5.54,5.54,0,0,0,1,.1,4.92,4.92,0,0,0,4.29-2.49,2.72,2.72,0,0,1-1,3.07c-2.15,1.48-3.94,1.16-6.21.76a23.29,23.29,0,0,0-3.22-.42,27.62,27.62,0,0,0-5,.29c-2.36.29-4.06.5-6.3-.76a3.42,3.42,0,0,1-1.6-3.14A7.69,7.69,0,0,0,36.57,136.79Z"/><path class="cls-2" d="M36.57,127a8.37,8.37,0,0,1,3.42.71h0a5,5,0,0,1,2.41,2.76.32.32,0,0,0,.42.16.31.31,0,0,0,.17-.41,6.54,6.54,0,0,0-1.48-2.2,6.79,6.79,0,0,1,2.31-2.48,8.84,8.84,0,0,0,2.37.6h0a.31.31,0,0,0,.31-.28.31.31,0,0,0-.27-.36A8.25,8.25,0,0,1,44,125h0c-1.07-.47-1.72-1.14-1.72-1.85,0-1.38,2.47-2.55,5.4-2.55s5.4,1.17,5.4,2.55c0,.76-.75,1.47-2,2l0,0a7.18,7.18,0,0,1-1.44.4.33.33,0,0,0-.25.38.32.32,0,0,0,.37.25,9.28,9.28,0,0,0,1.43-.39,6.7,6.7,0,0,1,2.52,7.81l0,0a4.29,4.29,0,0,1-4.88,2.67l-.19,0a37.72,37.72,0,0,0-5.39-.81,46.22,46.22,0,0,0-4.66.57h0a16.1,16.1,0,0,1-1.91.21c-2.64,0-5-1.19-6-3a3.38,3.38,0,0,1-.4-1.59C30.21,129.08,33.06,127,36.57,127Z"/><path class="cls-3" d="M36.57,126.4a8.93,8.93,0,0,1,3.67.77,3.65,3.65,0,0,1,.8.47,7.26,7.26,0,0,1,2.14-2.37,2.67,2.67,0,0,1-1.61-2.18c0-1.79,2.65-3.19,6-3.19s6,1.4,6,3.19a2.82,2.82,0,0,1-1.86,2.32,7.27,7.27,0,0,1,2.47,8.2,3.48,3.48,0,0,1-1,4.44,6.36,6.36,0,0,1-3.78,1.2,16.72,16.72,0,0,1-2.91-.35,22.29,22.29,0,0,0-3.12-.4,27.52,27.52,0,0,0-4.93.28c-2.38.29-4.27.53-6.69-.83A3.86,3.86,0,0,1,30,134.89a5.24,5.24,0,0,1,0-1.53,3.9,3.9,0,0,1-.42-1.76C29.57,128.73,32.71,126.4,36.57,126.4Zm-4.42,11c2.24,1.26,3.94,1.05,6.3.76a27.62,27.62,0,0,1,5-.29,23.29,23.29,0,0,1,3.22.42c2.27.4,4.06.72,6.21-.76a2.72,2.72,0,0,0,1-3.07,4.92,4.92,0,0,1-4.29,2.49,5.54,5.54,0,0,1-1-.1l-.19,0a37.84,37.84,0,0,0-5.27-.79h0c-1.13,0-4.33.53-4.51.56a17.92,17.92,0,0,1-2,.22,7.69,7.69,0,0,1-6-2.54A3.42,3.42,0,0,0,32.15,137.39Zm-1.54-4.2c.93,1.77,3.32,3,6,3a16.1,16.1,0,0,0,1.91-.21h0a46.22,46.22,0,0,1,4.66-.57,37.72,37.72,0,0,1,5.39.81l.19,0a4.29,4.29,0,0,0,4.88-2.67l0,0a6.7,6.7,0,0,0-2.52-7.81,9.28,9.28,0,0,1-1.43.39.32.32,0,0,1-.37-.25.33.33,0,0,1,.25-.38,7.18,7.18,0,0,0,1.44-.4l0,0c1.22-.48,2-1.19,2-2,0-1.38-2.47-2.55-5.4-2.55s-5.4,1.17-5.4,2.55c0,.71.65,1.38,1.72,1.85h0a8.25,8.25,0,0,0,2.33.61.31.31,0,0,1,.27.36.31.31,0,0,1-.31.28h0a8.84,8.84,0,0,1-2.37-.6,6.79,6.79,0,0,0-2.31,2.48,6.54,6.54,0,0,1,1.48,2.2.31.31,0,0,1-.17.41.32.32,0,0,1-.42-.16A5,5,0,0,0,40,127.76h0a8.37,8.37,0,0,0-3.42-.71c-3.51,0-6.36,2-6.36,4.56A3.38,3.38,0,0,0,30.61,133.19Z"/><path class="cls-4" d="M47.84,123.56a2.5,2.5,0,0,1-2.47-2.11c-2-12.06,3.48-24.58,3.71-25.11a2.5,2.5,0,1,1,4.58,2c0,.11-5.07,11.7-3.35,22.28a2.49,2.49,0,0,1-2.07,2.87A1.81,1.81,0,0,1,47.84,123.56Z"/><path d="M51.37,95.32a2,2,0,0,1,.82.17,2,2,0,0,1,1,2.69c-.08.18-5.12,11.84-3.38,22.55a2,2,0,0,1-1.68,2.33,1.84,1.84,0,0,1-.33,0,2,2,0,0,1-2-1.71c-1.94-11.95,3.44-24.33,3.67-24.85a2,2,0,0,1,1.87-1.21m0-.94h0a3,3,0,0,0-2.72,1.77c-.23.54-5.73,13.16-3.74,25.38A3,3,0,0,0,47.84,124a2.59,2.59,0,0,0,.48,0,3,3,0,0,0,2.45-3.4c-1.69-10.42,3.27-21.91,3.32-22a3,3,0,0,0-1.52-3.91,3,3,0,0,0-1.2-.26Z"/><path class="cls-5" d="M45.38,117.49h4.52a.44.44,0,0,1,.44.44v3a2.7,2.7,0,0,1-2.7,2.7h0a2.7,2.7,0,0,1-2.7-2.7v-3a.44.44,0,0,1,.44-.44Z" transform="translate(-7.29 3.14) rotate(-3.51)"/><path class="cls-4" d="M53.33,118.93a3.07,3.07,0,0,1-.67-.08l-2.27-.5a28.44,28.44,0,0,1-5.31-1.74l-.73-.33a15.91,15.91,0,0,1-8.87-10.1l-.08-.27a12.12,12.12,0,0,1-.45-3.85,36.71,36.71,0,0,1,1.41-8.16,2.77,2.77,0,0,1,2.66-2l.34,0a2.72,2.72,0,0,1,2.32,3.28,26.23,26.23,0,0,0-.68,8.11,9.81,9.81,0,0,0,7.22,8L54,112.84a3.17,3.17,0,0,1,2.27,2.21,3,3,0,0,1-.53,2.67,3.12,3.12,0,0,1-2.45,1.21Z"/><path d="M39,92.34h.28a2.26,2.26,0,0,1,1.92,2.72,27.1,27.1,0,0,0-.69,8.26l0,.09a10.27,10.27,0,0,0,7.55,8.32l5.83,1.55a2.71,2.71,0,0,1,1.93,1.89v0a2.61,2.61,0,0,1-2.54,3.23,2.83,2.83,0,0,1-.57-.06l-2.27-.5a27.52,27.52,0,0,1-5.22-1.72l-.73-.32a15.57,15.57,0,0,1-8.62-9.81c0-.09-.05-.18-.07-.26a11.94,11.94,0,0,1-.44-3.71,36.7,36.7,0,0,1,1.4-8A2.3,2.3,0,0,1,39,92.34m0-.94a3.25,3.25,0,0,0-3.11,2.38A37,37,0,0,0,34.48,102a12.77,12.77,0,0,0,.47,4l.08.27a16.39,16.39,0,0,0,9.13,10.4l.74.32a28.37,28.37,0,0,0,5.39,1.78l2.27.5a4,4,0,0,0,.77.08A3.6,3.6,0,0,0,56.15,118a3.47,3.47,0,0,0,.63-3l0-.07a3.65,3.65,0,0,0-2.6-2.54l-5.82-1.55a9.33,9.33,0,0,1-6.87-7.57l0-.08a26.06,26.06,0,0,1,.68-7.92,3.17,3.17,0,0,0-2.71-3.84,2.69,2.69,0,0,0-.4,0Z"/><path class="cls-6" d="M63.15,82.77a12.31,12.31,0,0,0,5.1-11.16,11.16,11.16,0,0,0-2.6-5.89,13.55,13.55,0,0,0-2.59-2.36,14.13,14.13,0,0,0-14.41-.61,2.56,2.56,0,0,0,2.29,4.59,9,9,0,0,1,9.18.23,6.87,6.87,0,0,1,3,4.65,7.44,7.44,0,0,1-4,7.07,2.57,2.57,0,1,0,2.57,4.44A12.26,12.26,0,0,0,63.15,82.77Z"/><path class="cls-7" d="M6.36,65.23c.06-1.87.2-3.73.4-5.6,12.07,0,20.2-1.28,25.14-2.49,6-1.47,8.62-3.1,8.88-3.27l0,0,7.54,1.78a37.22,37.22,0,0,1-13.16,6.55,92.29,92.29,0,0,1-14.61,2.42C16.12,65.05,11.38,65.25,6.36,65.23Z"/><path class="cls-8" d="M10.21,64.44a5.29,5.29,0,0,1-5.49-.17C3.84,58,3.7,52.06,5.8,47.14c2.24,3.29,4.29,6.46,4.62,8.45Z"/><path class="cls-9" d="M7.83,48.45a.69.69,0,0,1,.4-.4h0a1,1,0,0,1,1,.19,3.46,3.46,0,0,1,1,2.11l.53,3.95.18,1.44a8.09,8.09,0,0,1-.42,3.81"/><path class="cls-10" d="M5.17,47.25h0a1.27,1.27,0,0,1,1-.79h0A1.3,1.3,0,0,1,7.36,47h0a4.7,4.7,0,0,1,.9,2.62l0,1.34c0,.58.21,1.71.21,1.71l.17,1"/><path class="cls-10" d="M4.11,57.05c-.22-1.21-.43-2.43-.72-3.9a13.79,13.79,0,0,1-.23-2.48V49.23a2.6,2.6,0,0,1,.59-1.67l.07-.08a1.21,1.21,0,0,1,.92-.42h0a.84.84,0,0,1,.82.62L6.17,50a8.24,8.24,0,0,1,.22,1.1l.22,1.78a7.66,7.66,0,0,0,.28,1.26l.3.94"/><path class="cls-10" d="M5.54,59.3a8,8,0,0,0-2.82-3.55,2,2,0,0,0-.63-.29A1.42,1.42,0,0,0,1,55.59,1.41,1.41,0,0,0,.33,57,4,4,0,0,0,1.4,59.3a7.52,7.52,0,0,1,1.67,3.24,3.27,3.27,0,0,0,.6,1.36l.08.11a3.29,3.29,0,0,0,1.64,1.18l.62.19a4.05,4.05,0,0,0,2.46,0h0"/><path class="cls-10" d="M9,60.13a3.79,3.79,0,0,1,.69-1.53,1.89,1.89,0,0,1,1.5-.72h.09a1.69,1.69,0,0,1,1,.32h0a.6.6,0,0,1,0,.95,3.25,3.25,0,0,0-.64.74,3,3,0,0,0-.46,1.72l0,1.16a2.53,2.53,0,0,0,.43,1.33l.18.26a1,1,0,0,1-.24,1.36h0a1.07,1.07,0,0,1-1.22,0h0A3.08,3.08,0,0,1,9.18,63.9l-.33-1.37"/><polygon class="cls-11" points="57.78 19.59 53.4 24.01 49.11 19.59 44.83 24.01 40.52 19.59 36.24 24.01 31.88 19.59 44.81 1 57.78 19.59"/><path class="cls-12" d="M57.34,90.59A11.3,11.3,0,0,1,55,95c-3.7,4.31-9.42,4-10.19,4a13.7,13.7,0,0,1-9.74-3.94,12.74,12.74,0,0,1-2.81-4.49Z"/><path class="cls-13" d="M57.56,79.72l0,10c-.05.25-.11.54-.19.86H32.28c-.14-.39-.25-.75-.34-1V79.72Z"/><path class="cls-14" d="M57.78,19.59v7.72s-.18,34.94-.22,52.41H49.11V19.59L53.4,24Z"/><polygon class="cls-14" points="40.51 19.57 40.51 79.7 31.93 79.7 31.86 27.3 31.86 19.57 36.22 23.99 40.51 19.57"/><polygon class="cls-15" points="49.11 19.59 49.11 79.72 40.52 79.72 40.52 19.59 44.83 24.01 49.11 19.59"/><path class="cls-16" d="M42,5.28a4.13,4.13,0,0,0,5.55,0L44.81,1Z"/><line class="cls-17" x1="31.94" y1="81.72" x2="57.72" y2="81.72"/><line class="cls-17" x1="31.94" y1="88.69" x2="57.72" y2="88.69"/><line class="cls-18" x1="49.11" y1="19.59" x2="49.11" y2="19.56"/><line class="cls-19" x1="40.53" y1="79.72" x2="40.53" y2="79.72"/><line class="cls-19" x1="40.53" y1="19.59" x2="40.53" y2="19.58"/><line class="cls-20" x1="49.11" y1="19.56" x2="49.11" y2="79.72"/><line class="cls-20" x1="40.53" y1="19.62" x2="40.53" y2="79.72"/><path class="cls-21" d="M57.78,19.59,44.81,1,31.88,19.59v7.72l.06,52.41H57.56c0-17.47.22-52.41.22-52.41Z"/><polyline class="cls-21" points="31.88 19.59 36.23 24.01 40.53 19.59 44.83 24.01 49.11 19.59 53.4 24.01 57.78 19.59"/><path class="cls-22" d="M33.45,33.86s2.82-2.94,5.55,0"/><path class="cls-22" d="M48.82,33.86s2.83-2.94,5.56,0"/><path class="cls-23" d="M43.86,57.79v.14a.71.71,0,0,1,0-.14Z"/><path class="cls-24" d="M53.7,55.73A2.82,2.82,0,0,0,49.8,55a11,11,0,0,1-3.95,1.39,12,12,0,0,1-1.41.14H43.28a10.18,10.18,0,0,1-1.4-.15A10.86,10.86,0,0,1,37.94,55a2.81,2.81,0,0,0-3.2,4.63,16.63,16.63,0,0,0,9.13,2.54A16.63,16.63,0,0,0,53,59.64,2.82,2.82,0,0,0,53.7,55.73Zm-1.41,2.9A15.61,15.61,0,0,1,43.87,61a15.61,15.61,0,0,1-8.42-2.32A1.58,1.58,0,0,1,37.25,56a11.65,11.65,0,0,0,3.9,1.48,13.81,13.81,0,0,0,2.71.27h0a13.89,13.89,0,0,0,2.71-.27A11.54,11.54,0,0,0,50.49,56a1.58,1.58,0,0,1,1.8,2.59Z"/><path class="cls-25" d="M52.29,58.63A15.61,15.61,0,0,1,43.87,61a15.61,15.61,0,0,1-8.42-2.32A1.58,1.58,0,0,1,37.25,56a11.65,11.65,0,0,0,3.9,1.48,1.84,1.84,0,0,0,0,.41,1.41,1.41,0,1,0,2.76,0,1.41,1.41,0,1,0,2.76,0,2.85,2.85,0,0,0,0-.41A11.54,11.54,0,0,0,50.49,56a1.58,1.58,0,0,1,1.8,2.59Z"/><path class="cls-25" d="M43.87,57.79a.71.71,0,0,0,0,.14v-.14Z"/><path class="cls-26" d="M43.86,57.93a1.41,1.41,0,1,1-2.76,0,1.84,1.84,0,0,1,0-.41,13.81,13.81,0,0,0,2.71.27Z"/><path class="cls-26" d="M46.62,57.93a1.41,1.41,0,1,1-2.76,0,.71.71,0,0,1,0-.14h0a13.89,13.89,0,0,0,2.71-.27A2.85,2.85,0,0,1,46.62,57.93Z"/><ellipse class="cls-27" cx="37.23" cy="44.38" rx="5.32" ry="7.87"/><ellipse class="cls-28" cx="34.75" cy="43.96" rx="2.73" ry="4.05"/><circle class="cls-8" cx="33.63" cy="42.48" r="1.05"/><ellipse class="cls-27" cx="51.42" cy="43.96" rx="5.32" ry="7.87"/><ellipse class="cls-28" cx="48.84" cy="43.96" rx="2.73" ry="4.05"/><circle class="cls-8" cx="47.79" cy="42.48" r="1.05"/><ellipse class="cls-29" cx="63.1" cy="88.19" rx="1.82" ry="1.07" transform="translate(-42.24 113.91) rotate(-68.14)"/><path class="cls-9" d="M56.16,80.87h0a1.28,1.28,0,0,1,1.15-1.27h0a7.21,7.21,0,0,1,6.46,2.79l0,.07a1.52,1.52,0,0,1-.1,1.9h0a1,1,0,0,1-1,.31l-3.41-.79a5.27,5.27,0,0,1-2.56-1.41h0A2.29,2.29,0,0,1,56.16,80.87Z"/><path class="cls-30" d="M58.16,82.13h0a5.18,5.18,0,0,0-4.63,4.33,8.35,8.35,0,0,0-.06,1.87,11.76,11.76,0,0,0,.23,1.26,5.43,5.43,0,0,0,2.67,3.47h0a.53.53,0,0,0,.78-.54l-.31-2.08"/><ellipse class="cls-8" cx="58.46" cy="87.29" rx="3.59" ry="4.62"/><path class="cls-30" d="M56,90.2a5,5,0,0,0,.55,2.1A3.19,3.19,0,0,0,59.32,94a2.36,2.36,0,0,0,.53,0,1.62,1.62,0,0,0,1.32-1.31h0"/><path class="cls-30" d="M58.92,90.2a6.59,6.59,0,0,0,1.55,2.63,2.28,2.28,0,0,0,1.26.75,3.12,3.12,0,0,0,2.77-.79l.2-.2a4.61,4.61,0,0,0,1.06-1.94l.49-1.86a1.38,1.38,0,0,0-.71-1.6l-.05,0a.92.92,0,0,0-1.13.38L63.24,89.4a.11.11,0,0,1-.2-.08l.22-1.41a4.34,4.34,0,0,0-1.61-4.1l-.91-.69"/><path class="cls-31" d="M68.05,129.91c0-.08.16-1.44.14-2a44.84,44.84,0,0,1,.24-4.55v0a37.27,37.27,0,0,1,1.71-5.06l.07-.19a5.39,5.39,0,0,0,.27-1,4.93,4.93,0,0,0-1.7-4.67,2.71,2.71,0,0,1,2.86,1.51c1.08,2.37.45,4.09-.35,6.25a23.11,23.11,0,0,0-1,3.1,28,28,0,0,0-.6,5c-.13,2.38-.22,4.09-1.85,6.08a3.43,3.43,0,0,1-3.38,1A7.69,7.69,0,0,0,68.05,129.91Z"/><path class="cls-32" d="M58.43,128.2A8.45,8.45,0,0,1,59.74,125v0a5,5,0,0,1,3.14-1.9.32.32,0,1,0-.14-.62,6.67,6.67,0,0,0-2.43,1.07,6.68,6.68,0,0,1-2-2.71,8.84,8.84,0,0,0,1-2.23s0,0,0,0a.32.32,0,0,0-.22-.36.33.33,0,0,0-.4.21,8,8,0,0,1-1,2.19s0,0,0,0c-.65,1-1.42,1.5-2.12,1.37-1.37-.24-2.09-2.88-1.57-5.77s2.1-5.12,3.46-4.88c.75.13,1.32,1,1.59,2.28a.09.09,0,0,0,0,0,9.56,9.56,0,0,1,.14,1.49.32.32,0,0,0,.64,0,8.43,8.43,0,0,0-.14-1.47,6.7,6.7,0,0,1,8.15-1.12l0,0a4.3,4.3,0,0,1,1.78,5.28l-.08.19a36.9,36.9,0,0,0-1.73,5.17,41.35,41.35,0,0,0-.26,4.69v0a17.2,17.2,0,0,1-.13,1.91c-.46,2.6-2.06,4.76-4,5.36a3.29,3.29,0,0,1-1.64.12C59.33,134.84,57.82,131.66,58.43,128.2Z"/><path class="cls-33" d="M57.81,128.09a8.86,8.86,0,0,1,1.4-3.48,3.49,3.49,0,0,1,.6-.71,7.22,7.22,0,0,1-2-2.52,2.7,2.7,0,0,1-2.43,1.2c-1.77-.31-2.68-3.17-2.09-6.51s2.44-5.71,4.2-5.4c.9.16,1.59,1,2,2.24a7.28,7.28,0,0,1,6.22-1.82,7.13,7.13,0,0,1,2.29.82,3.49,3.49,0,0,1,4.21,1.76,6.34,6.34,0,0,1,.52,3.94,16.51,16.51,0,0,1-.85,2.8,22.83,22.83,0,0,0-1,3,27.56,27.56,0,0,0-.59,4.91c-.13,2.4-.23,4.29-2,6.45A3.87,3.87,0,0,1,65,136.11a5.06,5.06,0,0,1-1.49-.3,4.17,4.17,0,0,1-1.82.1C58.88,135.41,57.13,131.9,57.81,128.09Zm10.06,6.29c1.63-2,1.72-3.7,1.85-6.08a28,28,0,0,1,.6-5,23.11,23.11,0,0,1,1-3.1c.8-2.16,1.43-3.88.35-6.25a2.71,2.71,0,0,0-2.86-1.51,4.93,4.93,0,0,1,1.7,4.67,5.39,5.39,0,0,1-.27,1l-.07.19a37.27,37.27,0,0,0-1.71,5.06v0a44.84,44.84,0,0,0-.24,4.55c0,.6-.13,2-.14,2a7.69,7.69,0,0,1-3.56,5.5A3.43,3.43,0,0,0,67.87,134.38Zm-4.42.78c1.91-.6,3.51-2.76,4-5.36a17.2,17.2,0,0,0,.13-1.91v0a41.35,41.35,0,0,1,.26-4.69A36.9,36.9,0,0,1,69.54,118l.08-.19a4.3,4.3,0,0,0-1.78-5.28l0,0a6.7,6.7,0,0,0-8.15,1.12,8.43,8.43,0,0,1,.14,1.47.32.32,0,0,1-.64,0,9.56,9.56,0,0,0-.14-1.49.09.09,0,0,1,0,0c-.27-1.28-.84-2.15-1.59-2.28-1.36-.24-3,2-3.46,4.88s.2,5.53,1.57,5.77c.7.13,1.47-.4,2.12-1.37,0,0,0,0,0,0a8,8,0,0,0,1-2.19.33.33,0,0,1,.4-.21.32.32,0,0,1,.22.36s0,0,0,0a8.84,8.84,0,0,1-1,2.23,6.68,6.68,0,0,0,2,2.71,6.67,6.67,0,0,1,2.43-1.07.32.32,0,1,1,.14.62,5,5,0,0,0-3.14,1.9v0a8.45,8.45,0,0,0-1.31,3.24c-.61,3.46.9,6.64,3.38,7.08A3.29,3.29,0,0,0,63.45,135.16Z"/><path class="cls-34" d="M51.19,112H56.4a.51.51,0,0,1,.51.51V116a3.11,3.11,0,0,1-3.11,3.11h0A3.11,3.11,0,0,1,50.68,116v-3.48a.51.51,0,0,1,.51-.51Z" transform="translate(-68.67 150.92) rotate(-81.15)"/></g></g></svg>