<svg xmlns="http://www.w3.org/2000/svg" viewBox="0 0 135.49 180.65"><defs><style>.cls-1,.cls-14{fill:#f9b233;}.cls-1,.cls-11,.cls-12,.cls-15,.cls-16,.cls-18,.cls-2,.cls-20,.cls-21,.cls-22,.cls-23,.cls-24,.cls-25,.cls-26,.cls-27,.cls-3,.cls-4,.cls-5,.cls-8,.cls-9{stroke:#000;}.cls-1,.cls-15,.cls-21,.cls-3,.cls-4{stroke-linecap:round;}.cls-1,.cls-15,.cls-4{stroke-linejoin:round;}.cls-1{stroke-width:1.49px;}.cls-2,.cls-25,.cls-26,.cls-28,.cls-5,.cls-9{fill:#fff;}.cls-11,.cls-12,.cls-16,.cls-18,.cls-19,.cls-2,.cls-20,.cls-21,.cls-22,.cls-23,.cls-24,.cls-25,.cls-26,.cls-27,.cls-3,.cls-5,.cls-8,.cls-9{stroke-miterlimit:10;}.cls-2,.cls-3{stroke-width:0.75px;}.cls-17,.cls-18,.cls-19,.cls-20,.cls-21,.cls-3{fill:none;}.cls-13,.cls-4{fill:#d88500;}.cls-4{stroke-width:1.14px;}.cls-5{stroke-width:0.8px;}.cls-6{fill:#e5e5e5;}.cls-7{fill:#760dc9;}.cls-8{fill:#d7840b;stroke-width:1.27px;}.cls-9{stroke-width:1.16px;}.cls-10{fill:#fbccac;}.cls-11{fill:#ff7bac;}.cls-11,.cls-12,.cls-20,.cls-21{stroke-width:1.51px;}.cls-12{fill:#ccc;}.cls-15{stroke-width:0.01px;}.cls-16{fill:#666;}.cls-16,.cls-26{stroke-width:0.76px;}.cls-18{stroke-width:1.13px;}.cls-19{stroke:#bf720c;stroke-width:0.6px;}.cls-22{fill:#abd6bd;stroke-width:0.29px;}.cls-23{fill:#ffd18f;stroke-width:0.57px;}.cls-24,.cls-25{stroke-width:0.03px;}.cls-27{stroke-width:0.1px;}</style></defs><title>l32</title><g id="Layer_2" data-name="Layer 2"><g id="personaje"><path class="cls-1" d="M62.38,78.67,61.69,88c-.68-.05-6.91-.59-15.38-4.79a63.1,63.1,0,0,1-14-9.56A77,77,0,0,1,19.7,59.05l7.84-5.47c6.28,9.53,13.9,16.6,22.65,21.06A37.31,37.31,0,0,0,62.38,78.67Z"/><path class="cls-2" d="M26.14,49s3.63,2.14,1.43,6.79c-2.55,5.38-11.7,6-11.78-.54Z"/><path class="cls-2" d="M26.74,49.11c-.24-4.06,5-6.5,5.89-9.42,1-3.34-2.92-7.95-8.42,1,0,0-2-5.18-.94-9.43,1.24-4.82-2.94-6.74-5-4.62-1.85,1.94-1.75,8.27-.55,11.68a.78.78,0,0,1-.64,1l-.18,0a.77.77,0,0,1-.84-.51,55.46,55.46,0,0,1-2.4-8.51c-.52-3.92-7.58-2.95-7,2.27.48,4.12,3.38,7.33,4.59,8.51a.78.78,0,0,1,.05,1.06h0a.78.78,0,0,1-1.05.13A75.17,75.17,0,0,1,4,37.39C1.54,35.15-4.4,42.31,7.82,47.5c0,0,1.47,8.78,9.69,8.56C26.9,55.81,26.74,49.11,26.74,49.11Z"/><path class="cls-3" d="M22.85,42.84S16.92,44.05,19.14,50"/><path class="cls-4" d="M125,122q-4.52,1.59-9.11,3c-5-14-10.41-22.58-14.38-27.55C96.67,91.3,93,89.3,92.62,89.1l0,0-.27-9.8c.54.24,9.64,3.64,15.91,11.21A84.33,84.33,0,0,1,118.21,106,132.79,132.79,0,0,1,125,122Z"/><path class="cls-5" d="M123.44,119.7c-1.36-1.63-4.54-1.23-7.11.9s-3.54,5.18-2.19,6.81,4.54,1.24,7.11-.89S124.79,121.34,123.44,119.7Z"/><path class="cls-5" d="M120.31,121a4,4,0,0,1-4.79,1.25c-3.09-1.19-5.68-1.45-6.64.86-.88,2.1.67,5,6.79,4.1,0,0-.56,5.93,5.7,4.44,0,0,3.48,5,10.14.3s-4.39-10.54-4.39-10.54l-5.12-.27Z"/><path class="cls-5" d="M126.83,130s1.9-6.26,6.28-4.3.56,13-2.57,11.87-1.51-5.6.08-7.62"/><path class="cls-5" d="M123.82,127.42s.18-6.54,4.93-5.81,4,12.39.64,12.13-2.93-5-1.93-7.36"/><path class="cls-5" d="M119.24,124.3s-.13-6.54,4.64-6,4.55,12.18,1.22,12.08-3.16-4.85-2.27-7.26"/><path class="cls-6" d="M49.69,176.68a27.09,27.09,0,0,0,2.61-1.26,64.27,64.27,0,0,1,5.76-2.88h0a53.48,53.48,0,0,1,7.41-1.44l.28,0a7.5,7.5,0,0,0,1.36-.33,7,7,0,0,0,4.56-5.35,3.85,3.85,0,0,1,.14,4.57c-2.17,3-4.72,3.41-7.94,3.94a32.44,32.44,0,0,0-4.49,1,40,40,0,0,0-6.59,2.76c-3,1.51-5.18,2.59-8.77,2a4.89,4.89,0,0,1-3.62-3.45A10.91,10.91,0,0,0,49.69,176.68Z"/><path class="cls-7" d="M45.08,163.66A11.6,11.6,0,0,1,50,163h0a7.14,7.14,0,0,1,4.53,2.54.44.44,0,0,0,.63,0,.45.45,0,0,0,0-.64,9.5,9.5,0,0,0-3-2.24,9.52,9.52,0,0,1,1.91-4.39,13.36,13.36,0,0,0,3.45-.32l.05,0a.44.44,0,0,0,.29-.52.45.45,0,0,0-.53-.34,12.21,12.21,0,0,1-3.4.29h-.05c-1.64-.14-2.84-.72-3.17-1.66-.66-1.85,2.09-4.58,6-6s7.76-1,8.42.86c.36,1-.31,2.32-1.71,3.54l0,0a11.35,11.35,0,0,1-1.74,1.22.46.46,0,0,0-.16.62.45.45,0,0,0,.62.16A12.08,12.08,0,0,0,63.86,155a9.42,9.42,0,0,1,7,9.23v.07a6.07,6.07,0,0,1-5.25,5.86l-.28,0a53.61,53.61,0,0,0-7.58,1.48,60.11,60.11,0,0,0-5.95,3h0a25.63,25.63,0,0,1-2.45,1.18c-3.52,1.24-7.28.79-9.36-1.15a4.76,4.76,0,0,1-1.29-1.93C37.54,169.39,40.39,165.31,45.08,163.66Z"/><path d="M37.88,173.05a5.85,5.85,0,0,0,1.39,2.17,7.47,7.47,0,0,0,.67,2.05,5.49,5.49,0,0,0,4,3.2c3.88.66,6.29-.54,9.33-2.06a38.54,38.54,0,0,1,6.45-2.71,32,32,0,0,1,4.37-.93,23.63,23.63,0,0,0,4-.91,9,9,0,0,0,4.48-3.4c1-1.44,1.46-4-.77-6.4a10.12,10.12,0,0,0-.59-3.39,10.26,10.26,0,0,0-6.59-6.38c1.29-1.34,1.82-2.77,1.39-4-.85-2.39-5-3-9.58-1.41S49,153.63,49.89,156c.39,1.11,1.56,1.86,3.18,2.15a10.29,10.29,0,0,0-1.74,4.18,5.68,5.68,0,0,0-1.29-.26,12.7,12.7,0,0,0-5.26.72C39.62,164.63,36.53,169.23,37.88,173.05Zm2.56,3.08a10.91,10.91,0,0,0,9.25.55,27.09,27.09,0,0,0,2.61-1.26,64.27,64.27,0,0,1,5.76-2.88h0a53.48,53.48,0,0,1,7.41-1.44l.28,0a7.5,7.5,0,0,0,1.36-.33,7,7,0,0,0,4.56-5.35,3.85,3.85,0,0,1,.14,4.57c-2.17,3-4.72,3.41-7.94,3.94a32.44,32.44,0,0,0-4.49,1,40,40,0,0,0-6.59,2.76c-3,1.51-5.18,2.59-8.77,2A4.89,4.89,0,0,1,40.44,176.13Zm-1.71-3.38c-1.19-3.36,1.66-7.44,6.35-9.09A11.6,11.6,0,0,1,50,163h0a7.14,7.14,0,0,1,4.53,2.54.44.44,0,0,0,.63,0,.45.45,0,0,0,0-.64,9.5,9.5,0,0,0-3-2.24,9.52,9.52,0,0,1,1.91-4.39,13.36,13.36,0,0,0,3.45-.32l.05,0a.44.44,0,0,0,.29-.52.45.45,0,0,0-.53-.34,12.21,12.21,0,0,1-3.4.29h-.05c-1.64-.14-2.84-.72-3.17-1.66-.66-1.85,2.09-4.58,6-6s7.76-1,8.42.86c.36,1-.31,2.32-1.71,3.54l0,0a11.35,11.35,0,0,1-1.74,1.22.46.46,0,0,0-.16.62.45.45,0,0,0,.62.16A12.08,12.08,0,0,0,63.86,155a9.42,9.42,0,0,1,7,9.23v.07a6.07,6.07,0,0,1-5.25,5.86l-.28,0a53.61,53.61,0,0,0-7.58,1.48,60.11,60.11,0,0,0-5.95,3h0a25.63,25.63,0,0,1-2.45,1.18c-3.52,1.24-7.28.79-9.36-1.15A4.76,4.76,0,0,1,38.73,172.75Z"/><path class="cls-8" d="M62.25,118.68h0a3.83,3.83,0,0,1,4.43,2l0,0a3.82,3.82,0,0,1-1.52,5l-3.67,2.13a7.43,7.43,0,0,0-3.67,5.81h0A27.93,27.93,0,0,0,59.25,145l1.47,4.29a3.83,3.83,0,0,1-2.76,5h0a3.82,3.82,0,0,1-4.55-2.73l-3.47-12.87a3.82,3.82,0,0,1-.11-.57h0a21.17,21.17,0,0,1,2.4-12.44h0a9.52,9.52,0,0,1,3.12-3.4l3.15-1.93A14.28,14.28,0,0,1,62.25,118.68Z"/><path class="cls-9" d="M53.38,145.15h7.08a.69.69,0,0,1,.69.69v4.73a4.23,4.23,0,0,1-4.23,4.23h0a4.23,4.23,0,0,1-4.23-4.23v-4.73a.69.69,0,0,1,.69-.69Z" transform="translate(-38.27 20.86) rotate(-15.62)"/><path class="cls-6" d="M113.28,172.91a26,26,0,0,1-2.83-.63c-.26-.07-4.67-1.3-6.26-1.47h0a54.68,54.68,0,0,0-7.55.31l-.28,0a7.27,7.27,0,0,1-1.4,0A7,7,0,0,1,89.25,167a3.81,3.81,0,0,0,.92,4.47c2.8,2.42,5.37,2.24,8.63,2a32.75,32.75,0,0,1,4.59-.09,40.74,40.74,0,0,1,7,1.17c3.27.77,5.63,1.33,9-.09a4.88,4.88,0,0,0,2.74-4.19A10.93,10.93,0,0,1,113.28,172.91Z"/><path class="cls-7" d="M114.77,159.17a11.8,11.8,0,0,0-4.91.48h0a7.14,7.14,0,0,0-3.83,3.52.45.45,0,0,1-.61.17.45.45,0,0,1-.17-.61,9.48,9.48,0,0,1,2.41-2.88,9.54,9.54,0,0,0-2.87-3.84,12.72,12.72,0,0,1-3.43.49h-.06a.45.45,0,0,1-.4-.44.45.45,0,0,1,.45-.45,12,12,0,0,0,3.37-.5l0,0c1.57-.5,2.6-1.35,2.7-2.34.22-1.95-3.09-4-7.21-4.42s-7.79.82-8,2.76c-.11,1.07.84,2.2,2.48,3.06l0,0a11.55,11.55,0,0,0,2,.79.45.45,0,1,1-.26.86,13,13,0,0,1-1.95-.76,9.4,9.4,0,0,0-4.74,10.61v.06a6.08,6.08,0,0,0,6.47,4.5l.27,0a51.55,51.55,0,0,1,7.71-.3,60.84,60.84,0,0,1,6.48,1.51h0c.7.23,2.52.56,2.65.58,3.72.4,7.28-.91,8.86-3.27a4.91,4.91,0,0,0,.81-2.18C123.43,163,119.72,159.71,114.77,159.17Z"/><path d="M123.94,166.66a5.55,5.55,0,0,1-.86,2.43,7.49,7.49,0,0,1-.17,2.16,5.51,5.51,0,0,1-3.13,4c-3.63,1.54-6.24.93-9.55.15a38.85,38.85,0,0,0-6.9-1.15,31.18,31.18,0,0,0-4.47.09,23,23,0,0,1-4.14.05,9,9,0,0,1-5.14-2.28c-1.36-1.17-2.34-3.53-.73-6.4a10.34,10.34,0,0,1,4.74-11.17c-1.55-1-2.4-2.27-2.26-3.55.27-2.52,4.22-4.09,9-3.57s8.29,2.9,8,5.41a3.8,3.8,0,0,1-2.6,2.83,10.26,10.26,0,0,1,2.65,3.67,4.42,4.42,0,0,1,1.2-.54,12.53,12.53,0,0,1,5.28-.52C120.31,158.87,124.38,162.63,123.94,166.66Zm-1.78,3.59a10.93,10.93,0,0,1-8.88,2.66,26,26,0,0,1-2.83-.63c-.26-.07-4.67-1.3-6.26-1.47h0a54.68,54.68,0,0,0-7.55.31l-.28,0a7.27,7.27,0,0,1-1.4,0A7,7,0,0,1,89.25,167a3.81,3.81,0,0,0,.92,4.47c2.8,2.42,5.37,2.24,8.63,2a32.75,32.75,0,0,1,4.59-.09,40.74,40.74,0,0,1,7,1.17c3.27.77,5.63,1.33,9-.09A4.88,4.88,0,0,0,122.16,170.25Zm.89-3.69c.38-3.53-3.33-6.85-8.28-7.39a11.8,11.8,0,0,0-4.91.48h0a7.14,7.14,0,0,0-3.83,3.52.45.45,0,0,1-.61.17.45.45,0,0,1-.17-.61,9.48,9.48,0,0,1,2.41-2.88,9.54,9.54,0,0,0-2.87-3.84,12.72,12.72,0,0,1-3.43.49h-.06a.45.45,0,0,1-.4-.44.45.45,0,0,1,.45-.45,12,12,0,0,0,3.37-.5l0,0c1.57-.5,2.6-1.35,2.7-2.34.22-1.95-3.09-4-7.21-4.42s-7.79.82-8,2.76c-.11,1.07.84,2.2,2.48,3.06l0,0a11.55,11.55,0,0,0,2,.79.45.45,0,1,1-.26.86,13,13,0,0,1-1.95-.76,9.4,9.4,0,0,0-4.74,10.61v.06a6.08,6.08,0,0,0,6.47,4.5l.27,0a51.55,51.55,0,0,1,7.71-.3,60.84,60.84,0,0,1,6.48,1.51h0c.7.23,2.52.56,2.65.58,3.72.4,7.28-.91,8.86-3.27A4.91,4.91,0,0,0,123.05,166.56Z"/><path class="cls-8" d="M87.42,119.18h0a3.84,3.84,0,0,0-3.85,3v0a3.82,3.82,0,0,0,2.63,4.48L90.25,128a7.41,7.41,0,0,1,4.9,4.81h0a28,28,0,0,1,1.23,11.31l-.44,4.52a3.82,3.82,0,0,0,3.82,4.2h0a3.84,3.84,0,0,0,3.81-3.71l.41-13.32a3.62,3.62,0,0,0,0-.57h0a21.22,21.22,0,0,0-5.2-11.57h0A9.55,9.55,0,0,0,94.94,121l-3.51-1.15A14.43,14.43,0,0,0,87.42,119.18Z"/><path class="cls-9" d="M99.8,143.59h0a4.23,4.23,0,0,1,4.23,4.23v4.73a.69.69,0,0,1-.69.69H96.26a.69.69,0,0,1-.69-.69v-4.73a4.23,4.23,0,0,1,4.23-4.23Z" transform="translate(193.49 300.76) rotate(-177.67)"/><polygon class="cls-10" points="93.43 25.81 87.65 31.63 82 25.81 76.36 31.63 70.69 25.81 65.04 31.63 59.3 25.81 76.34 1.32 93.43 25.81"/><path class="cls-11" d="M92.84,119.35a14.72,14.72,0,0,1-3,5.87c-4.88,5.68-12.41,5.31-13.43,5.25a18.14,18.14,0,0,1-12.83-5.19,16.68,16.68,0,0,1-3.7-5.93Z"/><path class="cls-12" d="M93.13,105l0,13.19c-.06.33-.15.71-.26,1.13h-33c-.19-.51-.33-1-.44-1.37V105Z"/><path class="cls-13" d="M93.43,25.81V36s-.24,46-.3,69H82V25.81l5.65,5.82Z"/><polygon class="cls-13" points="70.67 25.79 70.67 105.01 59.37 105.01 59.28 35.97 59.28 25.79 65.02 31.61 70.67 25.79"/><polygon class="cls-14" points="82 25.81 82 105.03 70.69 105.03 70.69 25.81 76.36 31.63 82 25.81"/><path class="cls-15" d="M72.6,7a5.42,5.42,0,0,0,7.31,0L76.34,1.32Z"/><line class="cls-16" x1="59.39" y1="107.67" x2="93.34" y2="107.67"/><line class="cls-16" x1="59.39" y1="116.86" x2="93.34" y2="116.86"/><line class="cls-17" x1="82" y1="25.81" x2="82" y2="25.77"/><line class="cls-18" x1="70.69" y1="105.04" x2="70.69" y2="105.03"/><line class="cls-18" x1="70.69" y1="25.81" x2="70.69" y2="25.8"/><line class="cls-19" x1="82" y1="25.77" x2="82" y2="105.03"/><line class="cls-19" x1="70.69" y1="25.85" x2="70.69" y2="105.03"/><path class="cls-20" d="M93.43,25.81,76.34,1.32l-17,24.49V36l.09,69H93.13c.07-23,.3-69,.3-69Z"/><polyline class="cls-20" points="59.3 25.81 65.04 31.63 70.69 25.81 76.36 31.63 82 25.81 87.65 31.63 93.43 25.81"/><path class="cls-21" d="M67,45.41s3.72-3.88,7.31,0"/><path class="cls-21" d="M87.25,45.41s3.72-3.88,7.32,0"/><path class="cls-22" d="M80.71,76.94v.19c0-.06,0-.13,0-.19Z"/><path class="cls-23" d="M93.68,74.23a3.72,3.72,0,0,0-5.14-1,14.54,14.54,0,0,1-5.21,1.82,14.93,14.93,0,0,1-1.86.2h-.74c-.27,0-.52,0-.78,0a17.25,17.25,0,0,1-1.85-.19,14.41,14.41,0,0,1-5.18-1.82,3.71,3.71,0,0,0-4.22,6.1,23.28,23.28,0,0,0,24.06,0A3.71,3.71,0,0,0,93.68,74.23ZM91.82,78a21.64,21.64,0,0,1-22.19,0A2.08,2.08,0,0,1,72,74.63a15.13,15.13,0,0,0,5.13,2,17.45,17.45,0,0,0,3.57.36h0a18.19,18.19,0,0,0,3.56-.35,15.27,15.27,0,0,0,5.16-2A2.08,2.08,0,1,1,91.82,78Z"/><path class="cls-24" d="M91.82,78a21.64,21.64,0,0,1-22.19,0A2.08,2.08,0,0,1,72,74.63a15.13,15.13,0,0,0,5.13,2,2.51,2.51,0,0,0-.06.55,1.86,1.86,0,1,0,3.63,0,1.86,1.86,0,1,0,3.64,0,2.35,2.35,0,0,0-.06-.54,15.27,15.27,0,0,0,5.16-2A2.08,2.08,0,1,1,91.82,78Z"/><path class="cls-24" d="M80.72,76.94c0,.06,0,.13,0,.19v-.19Z"/><path class="cls-25" d="M80.71,77.13a1.86,1.86,0,1,1-3.63,0,2.51,2.51,0,0,1,.06-.55,17.45,17.45,0,0,0,3.57.36Z"/><path class="cls-25" d="M84.35,77.13a1.86,1.86,0,1,1-3.64,0c0-.06,0-.13,0-.19h0a18.19,18.19,0,0,0,3.56-.35A2.35,2.35,0,0,1,84.35,77.13Z"/><ellipse class="cls-26" cx="71.98" cy="59.27" rx="7" ry="10.37"/><ellipse class="cls-27" cx="74.26" cy="62.81" rx="3.6" ry="5.33"/><circle class="cls-28" cx="72.78" cy="60.86" r="1.38"/><ellipse class="cls-26" cx="90.68" cy="58.72" rx="7" ry="10.37"/><ellipse class="cls-27" cx="93.09" cy="62.24" rx="3.6" ry="5.33"/><circle class="cls-28" cx="91.71" cy="60.29" r="1.38"/></g></g></svg>