<?xml version="1.0" encoding="utf-8"?>
<!-- Generator: Adobe Illustrator 24.0.2, SVG Export Plug-In . SVG Version: 6.00 Build 0)  -->
<svg version="1.1" id="Layer_1" xmlns="http://www.w3.org/2000/svg" xmlns:xlink="http://www.w3.org/1999/xlink" x="0px" y="0px"
	 viewBox="0 0 114.9 102.2" style="enable-background:new 0 0 114.9 102.2;" xml:space="preserve">
<style type="text/css">
	.st0{fill:#3291B2;stroke:#000000;stroke-width:1.062;stroke-miterlimit:10;}
	.st1{fill:#FFFFFF;stroke:#000000;stroke-width:0.488;stroke-miterlimit:10;}
	.st2{fill:none;stroke:#000000;stroke-width:0.488;stroke-linecap:round;stroke-miterlimit:10;}
	.st3{fill:#00607A;}
	.st4{fill:#003B49;}
	.st5{fill:none;stroke:#000000;stroke-width:1.062;stroke-miterlimit:10;}
	.st6{fill:#00607A;stroke:#000000;stroke-width:0.6213;stroke-miterlimit:10;}
	.st7{fill:#B3B3B3;stroke:#000000;stroke-width:0.4595;stroke-miterlimit:10;}
	.st8{fill:#B3B3B3;stroke:#000000;stroke-width:0.2709;stroke-miterlimit:10;}
	.st9{fill:#B3B3B3;stroke:#000000;stroke-width:0.3107;stroke-miterlimit:10;}
	.st10{fill:none;stroke:#000000;stroke-width:0.6213;stroke-miterlimit:10;}
	.st11{fill:#FFFFFF;stroke:#000000;stroke-width:0.531;stroke-miterlimit:10;}
	.st12{stroke:#000000;stroke-width:6.212026e-02;stroke-miterlimit:10;}
	.st13{fill:none;stroke:#000000;stroke-width:1.062;stroke-linecap:round;stroke-miterlimit:10;}
	.st14{fill:#FFFFFF;}
	.st15{fill:#75C6D3;stroke:#000000;stroke-width:0.4698;stroke-miterlimit:10;}
	.st16{stroke:#000000;stroke-width:5.334170e-02;stroke-miterlimit:10;}
	.st17{fill:#003B49;stroke:#000000;stroke-width:1.062;stroke-miterlimit:10;}
	.st18{fill:#FFFFFF;stroke:#000000;stroke-width:0.543;stroke-miterlimit:10;}
	.st19{fill:none;stroke:#000000;stroke-width:0.543;stroke-linecap:round;stroke-miterlimit:10;}
	.st20{fill:#E5E5E5;}
	.st21{fill:#BF4400;}
	.st22{fill:#FFFFFF;stroke:#000000;stroke-width:1.2391;stroke-miterlimit:10;}
</style>
<title>l34</title>
<g>
	<g>
		<path class="st0" d="M38.6,45.9l-1,6.1c-0.4-0.1-4.5-0.8-9.7-4.1c-3.1-1.9-6-4.3-8.6-7.1c-2.8-3-5.2-6.4-7.3-10.3l5.4-3.1
			c3.5,6.6,8,11.7,13.5,15.1C35.1,45.2,38.4,45.9,38.6,45.9z"/>
		<g>
			<g>
				<path class="st1" d="M16.9,24.9c0,0,2.2,1.6,0.5,4.5c-2,3.3-8,3.2-7.6-1.1L16.9,24.9z"/>
				<path class="st1" d="M17.3,25c0.1-2.7,3.6-3.9,4.4-5.8c0.9-2.1-1.4-5.3-5.5,0.1c0,0-1-3.5,0-6.2c1.1-3.1-1.5-4.6-2.9-3.3
					c-1.3,1.1-1.6,5.3-1.1,7.6c0.1,0.3-0.2,0.6-0.5,0.6l-0.1,0c-0.2,0-0.5-0.1-0.5-0.4c-0.3-1.1-1-4-1-5.7c-0.1-2.6-4.7-2.4-4.7,1.1
					c0.1,2.7,1.8,5,2.5,5.8c0.2,0.2,0.2,0.5,0,0.7l0,0c-0.2,0.2-0.5,0.2-0.7,0c-0.8-0.7-2.7-2.3-3.8-3.6c-1.5-1.6-5.8,2.7,1.9,6.8
					c0,0,0.4,5.8,5.8,6.2C17,29.4,17.3,25,17.3,25z"/>
				<path class="st2" d="M15.1,20.7c0,0-3.9,0.4-2.8,4.4"/>
			</g>
		</g>
	</g>
	<g>
		<g>
			
				<rect x="74.1" y="61.6" transform="matrix(9.292495e-02 -0.9957 0.9957 9.292495e-02 18.0615 147.0679)" class="st3" width="31.4" height="4.1"/>
			<path class="st4" d="M93.2,48.2l-4-0.4c-0.5-0.5-1-1-1.4-1.7c-1.8-2.8-2.7-7.1-2.3-11.8c0.4-4.8,2.2-8.9,4.6-11.3
				c0.5-0.5,1-0.9,1.6-1.3l4,0.4c-0.5,0.3-1.1,0.8-1.6,1.3c-2.4,2.4-4.1,6.5-4.6,11.3c-0.4,4.7,0.5,9,2.3,11.8
				C92.2,47.1,92.7,47.7,93.2,48.2z"/>
			
				<rect x="86.8" y="12.3" transform="matrix(9.292495e-02 -0.9957 0.9957 9.292495e-02 71.2763 106.9645)" class="st3" width="15.1" height="4.1"/>
			<path class="st5" d="M94.1,23.4c-2.4,2.4-4.1,6.5-4.6,11.3c-0.4,4.7,0.5,9,2.3,11.8c0.4,0.7,0.9,1.2,1.4,1.7l-2.9,31.2l-51.8-4.8
				l3-32c0.3-0.2,0.5-0.5,0.8-0.7c2.3-2.4,4-6.5,4.4-11.2c0.4-4.8-0.5-9.2-2.4-12c-0.2-0.2-0.3-0.5-0.5-0.7l1.5-15.8L97.1,7
				l-1.4,15.1C95.1,22.4,94.6,22.9,94.1,23.4z"/>
			<path class="st6" d="M90.1,23c-2.3,2.4-4.1,6.5-4.6,11.3c-0.4,4.7,0.5,9,2.3,11.8c0.4,0.7,0.9,1.2,1.4,1.7L86.3,79l-47.7-4.5
				l3-32c0.3-0.2,0.5-0.5,0.8-0.7c2.3-2.4,4-6.5,4.4-11.2c0.4-4.8-0.5-9.2-2.4-12c-0.2-0.2-0.3-0.5-0.5-0.7l1.5-15.8L93,6.6
				l-1.4,15.1C91.1,22.1,90.6,22.5,90.1,23z"/>
			<path class="st0" d="M90.1,23c-2.3,2.4-4.1,6.5-4.6,11.3c-0.4,4.7,0.5,9,2.3,11.8c0.4,0.7,0.9,1.2,1.4,1.7L86.3,79l-51.8-4.8
				l3-32c0.3-0.2,0.5-0.5,0.8-0.7c2.3-2.4,4-6.5,4.4-11.2c0.4-4.8-0.5-9.2-2.4-12c-0.2-0.2-0.3-0.5-0.5-0.7l1.5-15.8L93,6.6
				l-1.4,15.1C91.1,22.1,90.6,22.5,90.1,23z"/>
			<g>
				<path class="st7" d="M65.8,29.6L65.8,29.6c-5-0.5-8.7-4.9-8.3-10l1.5-16.1l18.2,1.7l-1.5,16.1C75.3,26.3,70.8,30,65.8,29.6z"/>
				<line class="st8" x1="68" y1="4.3" x2="65.6" y2="29.6"/>
				<circle class="st9" cx="72" cy="15.6" r="1.9"/>
			</g>
			<line class="st10" x1="91.6" y1="21.7" x2="95.7" y2="22.1"/>
			<line class="st10" x1="89.2" y1="47.8" x2="93.2" y2="48.2"/>
		</g>
		<g>
			
				<ellipse transform="matrix(9.292495e-02 -0.9957 0.9957 9.292495e-02 -3.6746 92.7854)" class="st11" cx="49.1" cy="48.4" rx="9.3" ry="6.3"/>
			
				<ellipse transform="matrix(9.292495e-02 -0.9957 0.9957 9.292495e-02 10.4636 110.4493)" class="st11" cx="65.9" cy="49.5" rx="9.3" ry="6.3"/>
			
				<ellipse transform="matrix(9.292495e-02 -0.9957 0.9957 9.292495e-02 10.6108 110.6447)" class="st12" cx="66" cy="49.5" rx="4.8" ry="3.2"/>
			
				<ellipse transform="matrix(9.292495e-02 -0.9957 0.9957 9.292495e-02 -2.9073 92.707)" class="st12" cx="49.4" cy="47.9" rx="4.8" ry="3.2"/>
			<path class="st13" d="M45.8,35.6c0,0,3.6-3.2,6.5,0.6"/>
			<path class="st13" d="M63.9,37.3c0,0,3.6-3.2,6.5,0.6"/>
			<circle class="st14" cx="48.4" cy="46" r="1"/>
			<circle class="st14" cx="65.2" cy="47.6" r="1"/>
			<g>
				<g>
					<path class="st15" d="M70.1,61.5c0.8-0.1,1.5,0.2,2,0.9c0.8,1,0.6,2.5-0.4,3.3C66,70.2,58,71,51.4,67.6c-1.1-0.6-1.6-2-1-3.1
						c0.6-1.1,2-1.6,3.1-1c5,2.6,11,2,15.3-1.5C69.2,61.7,69.6,61.5,70.1,61.5z"/>
				</g>
				<g>
					<path class="st16" d="M52.4,64.8c0.1,0,0.3,0,0.4,0.1c5.5,2.8,12.2,2.2,17-1.7c0.3-0.3,0.8-0.2,1.1,0.1
						c0.3,0.3,0.2,0.8-0.1,1.1c-5.3,4.3-12.6,5-18.7,1.9c-0.4-0.2-0.5-0.7-0.3-1C51.9,65,52.1,64.8,52.4,64.8z"/>
				</g>
			</g>
		</g>
	</g>
	<g>
		<g>
			<path class="st17" d="M104,83.8c-2.2,0.2-4.3,0.4-6.5,0.5c-1-10-3.3-16.6-5.1-20.5c-0.8-1.8-1.6-3.2-2.3-4.2l0.6-6.5
				c0.6-0.2,0.7-0.3,1.3-0.5c1.9,1.7,4.4,4.4,6,7.8c1.7,3.4,3,7.4,4.1,11.8C103,75.7,103.6,79.6,104,83.8z"/>
		</g>
		<g>
			
				<ellipse transform="matrix(0.9006 -0.4346 0.4346 0.9006 -26.3707 52.1507)" class="st18" cx="100.9" cy="83.7" rx="4.7" ry="3"/>
			<path class="st18" d="M105.2,83c2.4,0.5,3.4,1.2,5.4-0.1c2.3-1.5,4.4,1.7,1.3,3.6c-2.4,1.5-4.2,1.1-4.2,1.1s2,2.6,3,4.9
				c2,4.4,0.9,5.7-0.6,5.7c-1.7,0.1-3.4-6.4-4.5-6.3c-1.1,0.1,1,4.7,1.4,6.3c0.6,2.8-2.4,3.3-3.3,1.7s-1-6.9-1.8-6.3
				c-0.8,0.6-0.5,4.7-1.9,5.3c-1.4,0.6-3.7-0.4-2.8-3.1c0.9-2.7,1.9-3.5,0.9-5.1C97.1,89.1,96.9,81.2,105.2,83z"/>
			<path class="st19" d="M106.6,87.6c0,0-3.4,2.5-6.1-0.3"/>
		</g>
	</g>
	<g>
		<g>
			<path d="M57.1,81.9c0.8-4,3.3-6.8,5.6-6.3c0.9,0.2,1.7,0.9,2.2,2c1.2-0.6,2.4-0.8,3.8-0.6c0.3,0,0.7,0.1,1,0.2c2-0.5,4,0.3,5.2,2
				l0.7,1c0.6,0.8,1.3,1.7,2.1,2.4c1.2,1.2,3.9,4.5,2.4,9.9c-0.1,0.3-2,7.7-6.8,7.5h0l0,0c0,0-1.1-0.1-2.1-0.6c-0.2,0-0.3,0-0.5,0
				c-1.9-0.2-3.4-1-4.4-2.3c-1-1.4-1.4-3.2-1.1-5.4c-0.9-0.6-1.7-1.6-2.4-2.7c-0.8,0.8-1.8,1.2-2.7,1.1c-0.1,0-0.2,0-0.2,0
				C57.4,89.5,56.3,85.9,57.1,81.9z M73.3,99.4c4.3,0.1,6.2-7,6.2-7.1c1.3-4.9-0.8-8-2.3-9.3c-0.8-0.8-1.5-1.6-2.1-2.5l-0.7-1
				c-0.8-1.2-2.1-1.9-3.5-1.9c1.7,0.9,3.1,2.4,3.7,4.4c2.5,1.5,4,5.1,3.6,9.1c-0.5,4.1-2.8,7.3-5.7,8.1
				C72.9,99.3,73.2,99.4,73.3,99.4z M59.9,89.3c1.5,0.3,3.3-1.3,4.3-4c0.1-0.2,0.2-0.2,0.4-0.2c0.2,0.1,0.2,0.2,0.2,0.4
				c-0.4,1.2-1,2.2-1.7,2.9c0.6,1,1.4,1.9,2.1,2.5c0.7-3.3,3.2-4.5,4.2-4.9c0.2-0.1,0.5,0,0.5,0.2c0.1,0.2,0,0.5-0.2,0.5
				c-0.9,0.3-3.2,1.5-3.7,4.7c-0.4,2.1,0,3.8,0.9,5.1c0.8,1.1,2.2,1.8,3.9,2c3.2,0.4,6.1-3,6.6-7.6c0.5-4.5-1.6-8.5-4.8-8.8
				c-0.2,0-0.4-0.2-0.4-0.5c0-0.2,0.2-0.4,0.5-0.4c0.3,0,0.6,0.1,0.9,0.2c-0.9-2.1-2.8-3.5-4.9-3.8c-1.2-0.1-2.3,0.1-3.4,0.6
				c0.3,0.9,0.4,2.1,0.4,3.3c0,0.2-0.2,0.3-0.3,0.3c-0.2,0-0.3-0.2-0.3-0.3c0.1-2.9-0.8-5.1-2.4-5.4c-1.9-0.4-4.1,2.2-4.9,5.8
				C57,85.7,57.9,88.9,59.9,89.3z"/>
			<path class="st20" d="M72.5,99.2c0.4,0.1,0.7,0.1,0.8,0.1c4.3,0.1,6.2-7,6.2-7.1c1.3-4.9-0.8-8-2.3-9.3c-0.8-0.8-1.5-1.6-2.1-2.5
				l-0.7-1c-0.8-1.2-2.1-1.9-3.5-1.9c1.7,0.9,3.1,2.4,3.7,4.4c2.5,1.5,4,5.1,3.6,9.1C77.7,95.2,75.3,98.4,72.5,99.2z"/>
			<path class="st21" d="M59.9,89.3c1.5,0.3,3.3-1.3,4.3-4c0.1-0.2,0.2-0.2,0.4-0.2c0.2,0.1,0.2,0.2,0.2,0.4c-0.4,1.2-1,2.2-1.7,2.9
				c0.6,1,1.4,1.9,2.1,2.5c0.7-3.3,3.2-4.5,4.2-4.9c0.2-0.1,0.5,0,0.5,0.2c0.1,0.2,0,0.5-0.2,0.5c-0.9,0.3-3.2,1.5-3.7,4.7
				c-0.4,2.1,0,3.8,0.9,5.1c0.8,1.1,2.2,1.8,3.9,2c3.2,0.4,6.1-3,6.6-7.6c0.5-4.5-1.6-8.5-4.8-8.8c-0.2,0-0.4-0.2-0.4-0.5
				c0-0.2,0.2-0.4,0.5-0.4c0.3,0,0.6,0.1,0.9,0.2c-0.9-2.1-2.8-3.5-4.9-3.8c-1.2-0.1-2.3,0.1-3.4,0.6c0.3,0.9,0.4,2.1,0.4,3.3
				c0,0.2-0.2,0.3-0.3,0.3c-0.2,0-0.3-0.2-0.3-0.3c0.1-2.9-0.8-5.1-2.4-5.4c-1.9-0.4-4.1,2.2-4.9,5.8C57,85.7,57.9,88.9,59.9,89.3z"
				/>
		</g>
		<g>
			<path class="st4" d="M56.1,84.2c-0.3,0-0.5,0-0.8-0.1c-13.8-3-21.8-6.6-24.6-11.1c-0.5-0.9-0.8-1.9-0.7-3l0-0.1
				c0.2-1.7,1.6-3,3.4-3c0.1,0,0.1,0,0.2,0c2.1,0,4.1,0.1,5.9,0.2c3.5,0.2,6.7,1.8,9,4.4l3.9,4.3l-1.3,0c1.6,0.4,3.4,0.8,5.5,1.2
				c1,0.2,1.8,0.7,2.3,1.5c0.5,0.8,0.7,1.8,0.5,2.7C59.2,83,57.7,84.2,56.1,84.2z"/>
			<g>
				<path d="M33.4,67.5c0.1,0,0.1,0,0.2,0c2.3,0.1,4.2,0.1,5.9,0.2c3.3,0.2,6.4,1.7,8.7,4.2l3.2,3.5c-0.1,0-0.2,0-0.3,0
					c-4.1,0-8.6-2.5-13.3-5.4c3.6,3,8,5.8,18.8,7.7c1.7,0.3,2.8,1.9,2.5,3.6c-0.3,1.4-1.6,2.4-3,2.4c-0.2,0-0.4,0-0.6-0.1
					C42.8,80.9,34,77.4,31.2,72.8c-0.5-0.8-0.7-1.7-0.6-2.7c0,0,0-0.1,0-0.1C30.7,68.6,32,67.5,33.4,67.5 M33.4,66.4
					C33.4,66.4,33.4,66.4,33.4,66.4c-2,0-3.7,1.5-3.9,3.5l0,0.1c-0.1,1.1,0.2,2.3,0.8,3.3c2.8,4.6,11,8.3,24.9,11.3
					c0.3,0.1,0.6,0.1,0.9,0.1c1.9,0,3.6-1.4,4-3.3c0.2-1.1,0-2.2-0.6-3.1c-0.6-0.9-1.6-1.6-2.7-1.7c-1.3-0.2-2.4-0.5-3.5-0.7
					l-1.1-1.2L49,71.2c-2.4-2.7-5.8-4.3-9.4-4.5c-1.9-0.1-3.8-0.2-6-0.2C33.6,66.4,33.5,66.4,33.4,66.4L33.4,66.4L33.4,66.4z"/>
			</g>
		</g>
		<g>
			<path class="st4" d="M60,87.6c-1.7,0-3.1-1.2-3.5-2.8c-0.2-1,0-1.9,0.5-2.7c0.5-0.8,1.4-1.3,2.3-1.5c2-0.4,3.8-0.8,5.5-1.2
				l-1.3,0l3.9-4.3c2.4-2.6,5.6-4.1,9-4.4c1.9-0.1,3.8-0.2,6-0.2c0,0,0.1,0,0.2,0c1.7,0,3.2,1.3,3.4,3l0,0.1c0.1,1-0.2,2.1-0.7,3
				c-2.7,4.5-10.8,8.1-24.6,11.1C60.5,87.5,60.2,87.6,60,87.6z"/>
			<g>
				<path d="M82.6,70.9c1.4,0,2.7,1.1,2.8,2.5c0,0,0,0.1,0,0.1c0.1,0.9-0.1,1.9-0.6,2.7C82,80.8,73.3,84.2,60.6,87
					C60.4,87,60.2,87,60,87c-1.4,0-2.7-1-3-2.4c-0.4-1.7,0.8-3.3,2.5-3.6c10.8-1.9,15.2-4.7,18.8-7.7c-4.7,2.9-9.3,5.4-13.3,5.4
					c-0.1,0-0.2,0-0.3,0l3.2-3.5c2.2-2.5,5.4-4,8.7-4.2c1.7-0.1,3.6-0.2,5.9-0.2C82.5,70.9,82.6,70.9,82.6,70.9 M82.6,69.8
					c-0.1,0-0.2,0-0.2,0c-2.1,0-4.1,0.1-5.9,0.2c-3.6,0.2-7,1.8-9.4,4.5l-3.2,3.5l-1.1,1.2c-1.1,0.2-2.3,0.5-3.5,0.7
					c-1.1,0.2-2.1,0.8-2.7,1.7c-0.6,0.9-0.8,2-0.6,3.1c0.4,1.9,2.1,3.3,4,3.3c0.3,0,0.6,0,0.9-0.1c13.9-3,22.1-6.7,24.9-11.3
					c0.6-1,0.9-2.2,0.8-3.3l0-0.1C86.3,71.3,84.7,69.8,82.6,69.8L82.6,69.8z"/>
			</g>
		</g>
		<g>
			<path d="M42.2,82.2c0.9-0.7,1.6-1.4,2.3-2.2l0.8-0.9c1.3-1.6,3.5-2.1,5.4-1.4c0.3-0.1,0.7-0.1,1-0.1c1.4,0,2.6,0.3,3.7,1
				c0.6-1,1.5-1.6,2.4-1.7c2.4-0.2,4.5,2.8,4.9,6.9c0.4,4.1-1.2,7.5-3.5,7.7c-0.1,0-0.2,0-0.2,0c-0.9,0-1.8-0.5-2.6-1.4
				c-0.8,1.1-1.8,1.9-2.7,2.4c0.1,2.2-0.5,4-1.7,5.3c-1.1,1.2-2.7,1.8-4.7,1.8c-0.2,0-0.3,0-0.5,0c-1.1,0.3-2.1,0.3-2.2,0.3h0
				c-4.8-0.4-5.9-7.9-5.9-8.2C37.8,86.2,40.9,83.2,42.2,82.2z M47.3,98.9c1.7,0,3.1-0.5,4-1.6c1.1-1.1,1.6-2.8,1.5-4.9
				c-0.2-3.2-2.3-4.6-3.2-5c-0.2-0.1-0.3-0.4-0.2-0.6c0.1-0.2,0.4-0.3,0.6-0.2c1,0.5,3.3,2,3.6,5.4c0.8-0.5,1.7-1.3,2.4-2.3
				c-0.6-0.8-1-1.8-1.4-3.1c0-0.2,0.1-0.3,0.2-0.4c0.2,0,0.3,0.1,0.4,0.2c0.7,2.8,2.3,4.6,3.9,4.4c2-0.2,3.3-3.3,3-7
				c-0.3-3.7-2.2-6.5-4.2-6.3c-1.6,0.1-2.8,2.3-3,5.1c0,0.2-0.2,0.3-0.3,0.3c-0.2,0-0.3-0.2-0.3-0.3c0.1-1.3,0.3-2.4,0.8-3.3
				c-1-0.6-2.1-0.9-3.3-0.9c-2.2,0-4.2,1.2-5.3,3.2c0.3-0.1,0.6-0.1,0.9-0.1c0.2,0,0.4,0.2,0.4,0.4c0,0.2-0.2,0.4-0.4,0.4
				c-3.2,0-5.8,3.7-5.8,8.2C41.5,95.2,44.1,98.9,47.3,98.9z M39.3,91.7c0,0.1,1,7.4,5.4,7.7c0.1,0,0.4,0,0.8-0.1
				c-2.7-1.1-4.7-4.6-4.7-8.7c0-4,1.9-7.5,4.6-8.6c0.8-1.9,2.3-3.3,4.1-4c-1.4-0.1-2.7,0.4-3.6,1.5L45,80.4
				c-0.7,0.8-1.5,1.6-2.4,2.3C41,83.9,38.5,86.6,39.3,91.7z"/>
			<path class="st20" d="M39.3,91.7c0,0.1,1,7.4,5.4,7.7c0.1,0,0.4,0,0.8-0.1c-2.7-1.1-4.7-4.6-4.7-8.7c0-4,1.9-7.5,4.6-8.6
				c0.8-1.9,2.3-3.3,4.1-4c-1.4-0.1-2.7,0.4-3.6,1.5L45,80.4c-0.7,0.8-1.5,1.6-2.4,2.3C41,83.9,38.5,86.6,39.3,91.7z"/>
			<path class="st21" d="M41.5,90.6c0,4.6,2.6,8.3,5.8,8.3c1.7,0,3.1-0.5,4-1.6c1.1-1.1,1.6-2.8,1.5-4.9c-0.2-3.2-2.3-4.6-3.2-5
				c-0.2-0.1-0.3-0.4-0.2-0.6c0.1-0.2,0.4-0.3,0.6-0.2c1,0.5,3.3,2,3.6,5.4c0.8-0.5,1.7-1.3,2.4-2.3c-0.6-0.8-1-1.8-1.4-3.1
				c0-0.2,0.1-0.3,0.2-0.4c0.2,0,0.3,0.1,0.4,0.2c0.7,2.8,2.3,4.6,3.9,4.4c2-0.2,3.3-3.3,3-7c-0.3-3.7-2.2-6.5-4.2-6.3
				c-1.6,0.1-2.8,2.3-3,5.1c0,0.2-0.2,0.3-0.3,0.3c-0.2,0-0.3-0.2-0.3-0.3c0.1-1.3,0.3-2.4,0.8-3.3c-1-0.6-2.1-0.9-3.3-0.9
				c-2.2,0-4.2,1.2-5.3,3.2c0.3-0.1,0.6-0.1,0.9-0.1c0.2,0,0.4,0.2,0.4,0.4c0,0.2-0.2,0.4-0.4,0.4C44.1,82.4,41.5,86.1,41.5,90.6z"
				/>
		</g>
		<path class="st22" d="M60.6,87c-1.6,0.4-3.3-0.7-3.6-2.3l0,0c-0.4-1.7,0.8-3.3,2.5-3.6l3.5-0.7c-0.5,2.5,0,4.5,1.4,5.8L60.6,87z"
			/>
	</g>
</g>
</svg>
