<svg xmlns="http://www.w3.org/2000/svg" viewBox="0 0 72.43 159.08"><defs><style>.cls-1,.cls-12{fill:#d88500;}.cls-1,.cls-10,.cls-11,.cls-14,.cls-15,.cls-17,.cls-19,.cls-2,.cls-20,.cls-21,.cls-22,.cls-23,.cls-24,.cls-4,.cls-7,.cls-8{stroke:#000;}.cls-1,.cls-14,.cls-20,.cls-4{stroke-linecap:round;}.cls-1,.cls-14,.cls-4{stroke-linejoin:round;}.cls-1{stroke-width:1.01px;}.cls-2,.cls-21,.cls-3,.cls-4,.cls-8{fill:#fff;}.cls-10,.cls-11,.cls-15,.cls-17,.cls-18,.cls-19,.cls-2,.cls-20,.cls-21,.cls-22,.cls-23,.cls-24,.cls-7,.cls-8{stroke-miterlimit:10;}.cls-2{stroke-width:0.66px;}.cls-4{stroke-width:0.7px;}.cls-5{fill:#e5e5e5;}.cls-6{fill:#760dc9;}.cls-7{fill:#d7840b;stroke-width:1.12px;}.cls-8{stroke-width:1.02px;}.cls-9{fill:#fbccac;}.cls-10{fill:#ff7bac;}.cls-10,.cls-11,.cls-19,.cls-20{stroke-width:1.33px;}.cls-11{fill:#ccc;}.cls-13{fill:#f9b233;}.cls-14{stroke-width:0.01px;}.cls-15{fill:#666;}.cls-15,.cls-21{stroke-width:0.67px;}.cls-16,.cls-17,.cls-18,.cls-19,.cls-20{fill:none;}.cls-17{stroke-width:1px;}.cls-18{stroke:#bf720c;stroke-width:0.53px;}.cls-22{stroke-width:0.08px;}.cls-23{fill:#ffd18f;stroke-width:0.33px;}.cls-24{stroke-width:0.06px;}</style></defs><title>l34</title><g id="Layer_2" data-name="Layer 2"><g id="personaje"><path class="cls-1" d="M6.83,104.22q3.28.66,6.6,1.15c2.08-10.17,5-16.67,7.28-20.51,2.76-4.69,5.12-6.44,5.36-6.61l0,0-.78-6.82a29.51,29.51,0,0,0-9.93,9.33A59.22,59.22,0,0,0,10,92.44,93.09,93.09,0,0,0,6.83,104.22Z"/><path class="cls-2" d="M3.37,107.85s-1.31-3.28,3.2-4.89c5.21-1.86,12.26,2.75,8.24,6.75Z"/><ellipse class="cls-3" cx="8.87" cy="109.16" rx="5.25" ry="4.04"/><path class="cls-4" d="M7.77,105.24c-3.18.12-5.63,2.08-6.9,7-.8,3.37-.66,6,.29,7.91a2.32,2.32,0,0,0,2.69,1.2h0l.47-2.83"/><path class="cls-4" d="M3.71,114.07a11.5,11.5,0,0,0-.85,6.43,6.08,6.08,0,0,0,2.06,3.77,1.86,1.86,0,0,0,1.78.45h0a1.22,1.22,0,0,0,.77-1.58l-.56-1.55a8.26,8.26,0,0,1-.48-2.36,19.84,19.84,0,0,1,.36-4.29,12.62,12.62,0,0,0,.6,8.14,3.12,3.12,0,0,0,1.7,1.63h0a1.63,1.63,0,0,0,1.76-.38l.25-.26a2.71,2.71,0,0,0,.76-1.88h0a2.11,2.11,0,0,0-.18-.86l-.23-.56a7,7,0,0,1-.54-3.49l.25-2.51a.13.13,0,0,1,.25,0,13.37,13.37,0,0,0,.44,2.35A5.41,5.41,0,0,0,13,119.18l.17.18a2.1,2.1,0,0,0,1.19.71,1.61,1.61,0,0,0,1.11-.16,1.82,1.82,0,0,0,.8-2.34l-.46-1.13a7.71,7.71,0,0,1-.53-4l.08-.65a4.37,4.37,0,0,0-.21-2h0a6.05,6.05,0,0,0-1.71-2.49l-1.28-1.12"/><path class="cls-1" d="M67.26,104.69q-3.29.66-6.6,1.16c-2.07-10.18-5-16.68-7.27-20.52-2.77-4.68-5.13-6.43-5.36-6.6h0l.77-6.82a29.42,29.42,0,0,1,9.93,9.33,59.33,59.33,0,0,1,5.37,11.67A91.31,91.31,0,0,1,67.26,104.69Z"/><path class="cls-2" d="M69.56,108.2s1.5-3.18-2.89-5.06c-5.09-2.19-12.41,2-8.65,6.22Z"/><ellipse class="cls-3" cx="63.99" cy="109.18" rx="4.04" ry="5.25" transform="translate(-48.91 166.33) rotate(-86.48)"/><path class="cls-4" d="M65.33,105.33c3.16.32,5.49,2.43,6.45,7.45.59,3.41.3,6-.77,7.88a2.33,2.33,0,0,1-2.76,1h0l-.3-2.86"/><path class="cls-4" d="M68.84,114.4a11.5,11.5,0,0,1,.45,6.46A6.06,6.06,0,0,1,67,124.5a1.85,1.85,0,0,1-1.8.35h0a1.22,1.22,0,0,1-.66-1.62l.65-1.52a8.86,8.86,0,0,0,.63-2.32,20.21,20.21,0,0,0-.1-4.31,12.73,12.73,0,0,1-1.1,8.1,3.11,3.11,0,0,1-1.8,1.52h0a1.62,1.62,0,0,1-1.73-.49l-.23-.28a2.69,2.69,0,0,1-.65-1.92h0a2.24,2.24,0,0,1,.23-.85l.27-.54a7,7,0,0,0,.75-3.46l-.09-2.51a.13.13,0,0,0-.26,0,12.89,12.89,0,0,1-.57,2.32,5.46,5.46,0,0,1-1.29,2l-.18.18a2.15,2.15,0,0,1-1.23.63,1.64,1.64,0,0,1-1.1-.23,1.84,1.84,0,0,1-.66-2.38l.54-1.1a7.88,7.88,0,0,0,.77-4l0-.65a4.21,4.21,0,0,1,.34-2h0A5.92,5.92,0,0,1,59.51,107l1.35-1"/><path class="cls-5" d="M13.62,155.58a23.44,23.44,0,0,0,2.3-1.11c.2-.11,3.74-2.06,5.07-2.53h0a46.94,46.94,0,0,1,6.53-1.27l.24,0a6.21,6.21,0,0,0,5.22-5,3.35,3.35,0,0,1,.12,4c-1.91,2.64-4.15,3-7,3.48a28.05,28.05,0,0,0-3.95.84,35.28,35.28,0,0,0-5.8,2.44c-2.65,1.32-4.56,2.28-7.73,1.73a4.29,4.29,0,0,1-3.19-3A9.61,9.61,0,0,0,13.62,155.58Z"/><path class="cls-6" d="M9.56,144.11a10.46,10.46,0,0,1,4.31-.58h0a6.3,6.3,0,0,1,4,2.24.4.4,0,0,0,.58-.54,8.19,8.19,0,0,0-2.65-2,8.31,8.31,0,0,1,1.69-3.88,10.93,10.93,0,0,0,3-.27l.05,0a.39.39,0,0,0,.25-.46.4.4,0,0,0-.47-.3,10.71,10.71,0,0,1-3,.26h-.05c-1.44-.11-2.5-.63-2.79-1.46-.58-1.63,1.85-4,5.29-5.25s6.84-.87,7.42.75c.31.9-.27,2-1.5,3.12l0,0a10.29,10.29,0,0,1-1.53,1.07.4.4,0,0,0-.14.55.39.39,0,0,0,.54.14,11.13,11.13,0,0,0,1.51-1,8.31,8.31,0,0,1,6.22,8.13v.06a5.35,5.35,0,0,1-4.63,5.16l-.25,0a46.67,46.67,0,0,0-6.67,1.3,56.29,56.29,0,0,0-5.24,2.6h0a21.15,21.15,0,0,1-2.15,1c-3.1,1.1-6.42.7-8.25-1A4,4,0,0,1,4,152.12C2.92,149.17,5.43,145.57,9.56,144.11Z"/><path d="M3.22,152.39a5,5,0,0,0,1.23,1.9A6.78,6.78,0,0,0,5,156.11a4.88,4.88,0,0,0,3.5,2.81c3.42.58,5.53-.48,8.21-1.81a34.43,34.43,0,0,1,5.68-2.39,28.64,28.64,0,0,1,3.85-.82,20.36,20.36,0,0,0,3.56-.8,7.87,7.87,0,0,0,3.94-3c.93-1.28,1.29-3.5-.67-5.64a9.2,9.2,0,0,0-.52-3,9.07,9.07,0,0,0-5.81-5.63c1.14-1.17,1.6-2.43,1.23-3.5-.75-2.1-4.45-2.65-8.43-1.24s-6.52,4.16-5.78,6.27a3.36,3.36,0,0,0,2.8,1.89A9,9,0,0,0,15.07,143a4.56,4.56,0,0,0-1.14-.22,11,11,0,0,0-4.64.63C4.75,145,2,149,3.22,152.39Zm2.25,2.71a9.61,9.61,0,0,0,8.15.48,23.44,23.44,0,0,0,2.3-1.11c.2-.11,3.74-2.06,5.07-2.53h0a46.94,46.94,0,0,1,6.53-1.27l.24,0a6.21,6.21,0,0,0,5.22-5,3.35,3.35,0,0,1,.12,4c-1.91,2.64-4.15,3-7,3.48a28.05,28.05,0,0,0-3.95.84,35.28,35.28,0,0,0-5.8,2.44c-2.65,1.32-4.56,2.28-7.73,1.73A4.29,4.29,0,0,1,5.47,155.1Zm-1.5-3c-1.05-3,1.46-6.55,5.59-8a10.46,10.46,0,0,1,4.31-.58h0a6.3,6.3,0,0,1,4,2.24.4.4,0,0,0,.58-.54,8.19,8.19,0,0,0-2.65-2,8.31,8.31,0,0,1,1.69-3.88,10.93,10.93,0,0,0,3-.27l.05,0a.39.39,0,0,0,.25-.46.4.4,0,0,0-.47-.3,10.71,10.71,0,0,1-3,.26h-.05c-1.44-.11-2.5-.63-2.79-1.46-.58-1.63,1.85-4,5.29-5.25s6.84-.87,7.42.75c.31.9-.27,2-1.5,3.12l0,0a10.29,10.29,0,0,1-1.53,1.07.4.4,0,0,0-.14.55.39.39,0,0,0,.54.14,11.13,11.13,0,0,0,1.51-1,8.31,8.31,0,0,1,6.22,8.13v.06a5.35,5.35,0,0,1-4.63,5.16l-.25,0a46.67,46.67,0,0,0-6.67,1.3,56.29,56.29,0,0,0-5.24,2.6h0a21.15,21.15,0,0,1-2.15,1c-3.1,1.1-6.42.7-8.25-1A4,4,0,0,1,4,152.12Z"/><path class="cls-7" d="M24.68,104.51h0a3.37,3.37,0,0,1,3.9,1.79l0,0a3.37,3.37,0,0,1-1.34,4.37L24,112.6a6.52,6.52,0,0,0-3.22,5.11h0A24.32,24.32,0,0,0,22,127.65l1.29,3.78a3.36,3.36,0,0,1-2.43,4.37h0a3.37,3.37,0,0,1-4-2.4l-3.06-11.34a3.86,3.86,0,0,1-.09-.49h0a18.64,18.64,0,0,1,2.12-11h0a8.31,8.31,0,0,1,2.74-3l2.78-1.69A12.36,12.36,0,0,1,24.68,104.51Z"/><path class="cls-8" d="M16.87,127.82H23.1a.61.61,0,0,1,.61.61v4.17A3.73,3.73,0,0,1,20,136.32h0a3.73,3.73,0,0,1-3.73-3.73v-4.17a.61.61,0,0,1,.61-.61Z" transform="translate(-34.82 10.26) rotate(-15.62)"/><path class="cls-5" d="M57.22,155.58a23.44,23.44,0,0,1-2.3-1.11c-.21-.11-3.75-2.06-5.07-2.53h0a46.37,46.37,0,0,0-6.53-1.27l-.24,0a5.86,5.86,0,0,1-1.2-.3,6.12,6.12,0,0,1-4-4.7,3.37,3.37,0,0,0-.12,4c1.91,2.64,4.15,3,7,3.48a28.18,28.18,0,0,1,4,.84,36,36,0,0,1,5.8,2.44c2.64,1.32,4.56,2.28,7.72,1.73a4.27,4.27,0,0,0,3.19-3A9.59,9.59,0,0,1,57.22,155.58Z"/><path class="cls-6" d="M61.28,144.11a10.48,10.48,0,0,0-4.32-.58h0a6.26,6.26,0,0,0-4,2.24.4.4,0,0,1-.56,0,.41.41,0,0,1,0-.56,8.19,8.19,0,0,1,2.65-2,8.3,8.3,0,0,0-1.68-3.88,11,11,0,0,1-3-.27l0,0a.39.39,0,0,1,.21-.76,10.78,10.78,0,0,0,3,.26h0c1.45-.11,2.5-.63,2.79-1.46.58-1.63-1.84-4-5.29-5.25s-6.84-.87-7.41.75c-.32.9.27,2,1.5,3.12,0,0,0,0,0,0a9.68,9.68,0,0,0,1.52,1.07.41.41,0,0,1,.15.55.39.39,0,0,1-.54.14,10.66,10.66,0,0,1-1.52-1A8.29,8.29,0,0,0,39,141.75a8.08,8.08,0,0,0-.47,2.87v.06a5.34,5.34,0,0,0,4.63,5.16l.24,0a46.67,46.67,0,0,1,6.67,1.3,56.29,56.29,0,0,1,5.24,2.6h0a21.15,21.15,0,0,0,2.15,1c3.11,1.1,6.42.7,8.25-1a4.13,4.13,0,0,0,1.14-1.7C67.91,149.17,65.4,145.57,61.28,144.11Z"/><path d="M67.62,152.39a5.1,5.1,0,0,1-1.23,1.9,6.47,6.47,0,0,1-.59,1.82,4.84,4.84,0,0,1-3.5,2.81c-3.42.58-5.53-.48-8.21-1.81a34.07,34.07,0,0,0-5.68-2.39,28.64,28.64,0,0,0-3.85-.82,20.57,20.57,0,0,1-3.56-.8,7.91,7.91,0,0,1-3.94-3c-.92-1.28-1.28-3.5.67-5.64a9.14,9.14,0,0,1,6.33-8.61c-1.13-1.17-1.6-2.43-1.22-3.5.74-2.1,4.44-2.65,8.43-1.24s6.52,4.16,5.77,6.27a3.34,3.34,0,0,1-2.8,1.89A9,9,0,0,1,55.77,143a4.49,4.49,0,0,1,1.14-.22,11,11,0,0,1,4.63.63C66.08,145,68.81,149,67.62,152.39Zm-2.26,2.71a9.59,9.59,0,0,1-8.14.48,23.44,23.44,0,0,1-2.3-1.11c-.21-.11-3.75-2.06-5.07-2.53h0a46.37,46.37,0,0,0-6.53-1.27l-.24,0a5.86,5.86,0,0,1-1.2-.3,6.12,6.12,0,0,1-4-4.7,3.37,3.37,0,0,0-.12,4c1.91,2.64,4.15,3,7,3.48a28.18,28.18,0,0,1,4,.84,36,36,0,0,1,5.8,2.44c2.64,1.32,4.56,2.28,7.72,1.73A4.27,4.27,0,0,0,65.36,155.1Zm1.51-3c1-3-1.47-6.55-5.59-8a10.48,10.48,0,0,0-4.32-.58h0a6.26,6.26,0,0,0-4,2.24.4.4,0,0,1-.56,0,.41.41,0,0,1,0-.56,8.19,8.19,0,0,1,2.65-2,8.3,8.3,0,0,0-1.68-3.88,11,11,0,0,1-3-.27l0,0a.39.39,0,0,1,.21-.76,10.78,10.78,0,0,0,3,.26h0c1.45-.11,2.5-.63,2.79-1.46.58-1.63-1.84-4-5.29-5.25s-6.84-.87-7.41.75c-.32.9.27,2,1.5,3.12,0,0,0,0,0,0a9.68,9.68,0,0,0,1.52,1.07.41.41,0,0,1,.15.55.39.39,0,0,1-.54.14,10.66,10.66,0,0,1-1.52-1A8.29,8.29,0,0,0,39,141.75a8.08,8.08,0,0,0-.47,2.87v.06a5.34,5.34,0,0,0,4.63,5.16l.24,0a46.67,46.67,0,0,1,6.67,1.3,56.29,56.29,0,0,1,5.24,2.6h0a21.15,21.15,0,0,0,2.15,1c3.11,1.1,6.42.7,8.25-1A4.13,4.13,0,0,0,66.87,152.12Z"/><path class="cls-7" d="M45.93,104.3h0a3.37,3.37,0,0,0-3.9,1.8l0,0a3.38,3.38,0,0,0,1.35,4.38l3.23,1.87a6.53,6.53,0,0,1,3.23,5.12h0a24.68,24.68,0,0,1-1.24,9.94l-1.3,3.78a3.37,3.37,0,0,0,2.43,4.37h0a3.36,3.36,0,0,0,4-2.4l3.06-11.34a4.21,4.21,0,0,0,.09-.49h0a18.54,18.54,0,0,0-2.11-11h0a8.42,8.42,0,0,0-2.75-3l-2.77-1.7A12.83,12.83,0,0,0,45.93,104.3Z"/><path class="cls-8" d="M50.62,127.61h0a3.73,3.73,0,0,1,3.73,3.73v4.17a.61.61,0,0,1-.61.61H47.5a.61.61,0,0,1-.61-.61v-4.17a3.73,3.73,0,0,1,3.73-3.73Z" transform="translate(63.87 272.48) rotate(-164.38)"/><polygon class="cls-9" points="52.13 22.73 47.05 27.85 42.07 22.73 37.11 27.85 32.11 22.73 27.14 27.85 22.08 22.73 37.08 1.16 52.13 22.73"/><path class="cls-10" d="M51.62,105.1a13,13,0,0,1-2.69,5.16c-4.3,5-10.93,4.69-11.82,4.63a16,16,0,0,1-11.31-4.57,14.82,14.82,0,0,1-3.25-5.22Z"/><path class="cls-11" d="M51.87,92.49l0,11.61c-.05.3-.13.63-.22,1H22.55a11.8,11.8,0,0,1-.39-1.21V92.49Z"/><path class="cls-12" d="M52.13,22.73v9s-.2,40.53-.26,60.8h-9.8V22.73l5,5.12Z"/><polygon class="cls-12" points="32.1 22.71 32.1 92.47 22.14 92.47 22.06 31.67 22.06 22.71 27.12 27.84 32.1 22.71"/><polygon class="cls-13" points="42.07 22.73 42.07 92.49 32.11 92.49 32.11 22.73 37.11 27.85 42.07 22.73"/><path class="cls-14" d="M33.79,6.12a4.78,4.78,0,0,0,6.44,0l-3.15-5Z"/><line class="cls-15" x1="22.16" y1="94.81" x2="52.06" y2="94.81"/><line class="cls-15" x1="22.16" y1="102.9" x2="52.06" y2="102.9"/><line class="cls-16" x1="42.07" y1="22.73" x2="42.07" y2="22.69"/><line class="cls-17" x1="32.11" y1="92.5" x2="32.11" y2="92.49"/><line class="cls-17" x1="32.11" y1="22.73" x2="32.11" y2="22.72"/><line class="cls-18" x1="42.07" y1="22.69" x2="42.07" y2="92.49"/><line class="cls-18" x1="32.11" y1="22.76" x2="32.11" y2="92.49"/><path class="cls-19" d="M52.14,22.73,37.08,1.16l-15,21.57v9l.08,60.8H51.87c.06-20.27.27-60.8.27-60.8Z"/><polyline class="cls-19" points="22.08 22.73 27.14 27.85 32.11 22.73 37.11 27.85 42.07 22.73 47.05 27.85 52.14 22.73"/><path class="cls-20" d="M24.69,40s3.27-3.42,6.44,0"/><path class="cls-20" d="M42.53,40S45.8,36.57,49,40"/><ellipse class="cls-21" cx="29.08" cy="52.19" rx="6.17" ry="9.13"/><ellipse class="cls-22" cx="31.08" cy="55.31" rx="3.17" ry="4.7"/><circle class="cls-3" cx="29.78" cy="53.59" r="1.22"/><ellipse class="cls-21" cx="45.54" cy="51.71" rx="6.17" ry="9.13"/><ellipse class="cls-22" cx="47.23" cy="55.25" rx="3.17" ry="4.7"/><circle class="cls-3" cx="46.01" cy="53.53" r="1.22"/><path class="cls-23" d="M46.35,64.57A2.43,2.43,0,0,1,47.68,69a19.67,19.67,0,0,1-21.4,0A2.43,2.43,0,1,1,28.92,65,14.79,14.79,0,0,0,45,65,2.47,2.47,0,0,1,46.35,64.57Z"/><path class="cls-24" d="M27.6,66.18a.9.9,0,0,1,.44.13,16.4,16.4,0,0,0,17.87,0,.82.82,0,1,1,.89,1.37,18.08,18.08,0,0,1-19.65,0,.82.82,0,0,1,.45-1.5Z"/></g></g></svg>