<svg xmlns="http://www.w3.org/2000/svg" viewBox="0 0 72.68 138.88"><defs><style>.cls-1,.cls-31{fill:#e5e5e5;}.cls-1,.cls-10,.cls-12,.cls-13,.cls-16,.cls-17,.cls-19,.cls-2,.cls-21,.cls-22,.cls-23,.cls-24,.cls-25,.cls-26,.cls-27,.cls-28,.cls-29,.cls-3,.cls-30,.cls-31,.cls-32,.cls-33,.cls-34,.cls-5,.cls-6,.cls-7,.cls-9{stroke:#000;}.cls-1,.cls-10,.cls-12,.cls-13,.cls-17,.cls-19,.cls-2,.cls-20,.cls-21,.cls-22,.cls-23,.cls-24,.cls-25,.cls-26,.cls-27,.cls-28,.cls-29,.cls-3,.cls-31,.cls-32,.cls-33,.cls-34,.cls-5,.cls-9{stroke-miterlimit:10;}.cls-1,.cls-2,.cls-3{stroke-width:0.12px;}.cls-2,.cls-32{fill:#760dc9;}.cls-4{fill:#d7840b;}.cls-10,.cls-26,.cls-27,.cls-29,.cls-30,.cls-34,.cls-5,.cls-8,.cls-9{fill:#fff;}.cls-5{stroke-width:0.93px;}.cls-14,.cls-6,.cls-7{fill:#d88500;}.cls-10,.cls-16,.cls-22,.cls-30,.cls-6,.cls-7{stroke-linecap:round;}.cls-16,.cls-30,.cls-6,.cls-7{stroke-linejoin:round;}.cls-6{stroke-width:0.81px;}.cls-7{stroke-width:0.99px;}.cls-10,.cls-30,.cls-9{stroke-width:0.62px;}.cls-11{fill:#fbccac;}.cls-12{fill:#ff7bac;}.cls-12,.cls-13,.cls-21,.cls-22{stroke-width:1.14px;}.cls-13{fill:#ccc;}.cls-15{fill:#f9b233;}.cls-16{stroke-width:0.01px;}.cls-17{fill:#666;}.cls-17,.cls-27{stroke-width:0.57px;}.cls-18,.cls-19,.cls-20,.cls-21,.cls-22{fill:none;}.cls-19{stroke-width:0.86px;}.cls-20{stroke:#bf720c;stroke-width:0.46px;}.cls-23{fill:#abd6bd;stroke-width:0.22px;}.cls-24{fill:#ffd18f;stroke-width:0.43px;}.cls-25,.cls-26{stroke-width:0.02px;}.cls-28{stroke-width:0.07px;}.cls-29{stroke-width:0.59px;}.cls-31,.cls-32,.cls-33{stroke-width:0.12px;}.cls-34{stroke-width:0.85px;}</style></defs><title>l43</title><g id="Layer_2" data-name="Layer 2"><g id="personaje"><path class="cls-1" d="M36.46,136.36a18,18,0,0,0,2-.22c.18,0,3.37-.56,4.49-.56h0a37.14,37.14,0,0,1,5.25.79l.2,0a5.52,5.52,0,0,0,1,.1A4.9,4.9,0,0,0,53.72,134a2.69,2.69,0,0,1-1,3.06c-2.14,1.48-3.93,1.16-6.19.75a23,23,0,0,0-3.2-.41,28.47,28.47,0,0,0-5,.28c-2.35.29-4,.5-6.28-.75a3.41,3.41,0,0,1-1.6-3.13A7.66,7.66,0,0,0,36.46,136.36Z"/><path class="cls-2" d="M36.46,126.64a8.31,8.31,0,0,1,3.4.71h0a4.94,4.94,0,0,1,2.41,2.75.32.32,0,0,0,.42.16.3.3,0,0,0,.16-.41,6.5,6.5,0,0,0-1.47-2.2,6.65,6.65,0,0,1,2.31-2.46,9,9,0,0,0,2.36.6h0a.32.32,0,0,0,.32-.28.31.31,0,0,0-.28-.35,8.27,8.27,0,0,1-2.32-.61h0c-1.06-.48-1.72-1.14-1.72-1.85,0-1.38,2.47-2.54,5.39-2.54s5.39,1.16,5.39,2.54c0,.76-.75,1.47-2,2l0,0a8.68,8.68,0,0,1-1.43.4.31.31,0,1,0,.11.62,7.93,7.93,0,0,0,1.42-.38,6.65,6.65,0,0,1,2.52,7.78l0,0a4.27,4.27,0,0,1-4.86,2.66l-.19,0A37.59,37.59,0,0,0,43,135a43.39,43.39,0,0,0-4.65.56h0c-.51.11-1.81.2-1.9.21-2.63,0-5-1.19-5.95-3a3.47,3.47,0,0,1-.4-1.59C30.11,128.68,33,126.64,36.46,126.64Z"/><path class="cls-3" d="M36.46,126a8.91,8.91,0,0,1,3.66.76,3.7,3.7,0,0,1,.79.47A7.41,7.41,0,0,1,43,124.88a2.69,2.69,0,0,1-1.6-2.18c0-1.78,2.64-3.18,6-3.18s6,1.4,6,3.18A2.8,2.8,0,0,1,51.62,125a7.24,7.24,0,0,1,2.47,8.18,3.45,3.45,0,0,1-1,4.42,6.33,6.33,0,0,1-3.77,1.21,16.5,16.5,0,0,1-2.89-.35,22.24,22.24,0,0,0-3.12-.41,28.3,28.3,0,0,0-4.91.28c-2.38.3-4.25.53-6.67-.82a3.9,3.9,0,0,1-1.89-3.05,5.52,5.52,0,0,1,0-1.52,4.1,4.1,0,0,1-.41-1.77C29.48,128.33,32.61,126,36.46,126Zm-4.41,11c2.23,1.25,3.93,1,6.28.75a28.47,28.47,0,0,1,5-.28,23,23,0,0,1,3.2.41c2.26.41,4.05.73,6.19-.75a2.69,2.69,0,0,0,1-3.06,4.9,4.9,0,0,1-4.28,2.48,5.52,5.52,0,0,1-1-.1l-.2,0a37.14,37.14,0,0,0-5.25-.79h0c-1.12,0-4.31.53-4.49.56a18,18,0,0,1-2,.22,7.66,7.66,0,0,1-6-2.53A3.41,3.41,0,0,0,32.05,137Zm-1.54-4.19c.93,1.77,3.32,3,5.95,3,.09,0,1.39-.1,1.9-.21h0A43.39,43.39,0,0,1,43,135a37.59,37.59,0,0,1,5.37.8l.19,0a4.27,4.27,0,0,0,4.86-2.66l0,0a6.65,6.65,0,0,0-2.52-7.78,7.93,7.93,0,0,1-1.42.38.31.31,0,1,1-.11-.62,8.68,8.68,0,0,0,1.43-.4l0,0c1.22-.48,2-1.19,2-2,0-1.38-2.47-2.54-5.39-2.54s-5.39,1.16-5.39,2.54c0,.71.66,1.37,1.72,1.85h0a8.27,8.27,0,0,0,2.32.61.31.31,0,0,1,.28.35.32.32,0,0,1-.32.28h0a9,9,0,0,1-2.36-.6,6.65,6.65,0,0,0-2.31,2.46,6.5,6.5,0,0,1,1.47,2.2.3.3,0,0,1-.16.41.32.32,0,0,1-.42-.16,4.94,4.94,0,0,0-2.41-2.75h0a8.31,8.31,0,0,0-3.4-.71c-3.5,0-6.35,2-6.35,4.54A3.47,3.47,0,0,0,30.51,132.77Z"/><path class="cls-4" d="M47.69,123.17a2.48,2.48,0,0,1-2.46-2.1c-2-12,3.46-24.51,3.69-25a2.5,2.5,0,0,1,2.29-1.49,2.36,2.36,0,0,1,1,.22,2.48,2.48,0,0,1,1.27,3.29c-.05.11-5,11.71-3.33,22.21a2.51,2.51,0,0,1-2.07,2.87A2.69,2.69,0,0,1,47.69,123.17Z"/><path d="M51.21,95a2,2,0,0,1,.82.17,2,2,0,0,1,1,2.68c-.09.18-5.11,11.8-3.37,22.48A2,2,0,0,1,48,122.68l-.33,0a2,2,0,0,1-2-1.7c-1.94-11.92,3.43-24.25,3.66-24.77A2,2,0,0,1,51.21,95m0-.93h0a3,3,0,0,0-2.71,1.76c-.24.53-5.71,13.12-3.73,25.3a2.94,2.94,0,0,0,2.92,2.48,2.59,2.59,0,0,0,.48,0,3,3,0,0,0,2.44-3.39c-1.68-10.39,3.26-21.84,3.31-22a3,3,0,0,0-1.52-3.9,2.89,2.89,0,0,0-1.19-.25Z"/><path class="cls-5" d="M45.24,117.12h4.51a.44.44,0,0,1,.44.44v3a2.7,2.7,0,0,1-2.7,2.7h0a2.7,2.7,0,0,1-2.7-2.7v-3a.44.44,0,0,1,.44-.44Z" transform="translate(-7.27 3.13) rotate(-3.51)"/><path class="cls-4" d="M53.17,118.55a3.14,3.14,0,0,1-.68-.07l-2.26-.5a28.25,28.25,0,0,1-5.29-1.74l-.73-.32a15.86,15.86,0,0,1-8.84-10.07l-.08-.27a12.05,12.05,0,0,1-.45-3.84,37,37,0,0,1,1.4-8.13,2.79,2.79,0,0,1,2.66-2l.34,0a2.71,2.71,0,0,1,2.31,3.27,26.06,26.06,0,0,0-.68,8.09,9.79,9.79,0,0,0,7.2,8l5.8,1.54a3.17,3.17,0,0,1,2.26,2.21,3,3,0,0,1-.52,2.66,3.13,3.13,0,0,1-2.44,1.2Z"/><path d="M38.9,92.05h.28a2.25,2.25,0,0,1,1.91,2.71,26.92,26.92,0,0,0-.68,8.23v.09a10.23,10.23,0,0,0,7.53,8.3l5.81,1.54a2.72,2.72,0,0,1,1.92,1.88l0,.06a2.61,2.61,0,0,1-2.53,3.22,2.93,2.93,0,0,1-.58-.06l-2.26-.5a28,28,0,0,1-5.2-1.71l-.73-.33a15.46,15.46,0,0,1-8.59-9.77c0-.09-.05-.18-.07-.27a11.82,11.82,0,0,1-.44-3.69,37.19,37.19,0,0,1,1.39-8,2.3,2.3,0,0,1,2.21-1.68m0-.93a3.22,3.22,0,0,0-3.1,2.36,37.47,37.47,0,0,0-1.43,8.24,12.62,12.62,0,0,0,.47,4l.08.28A16.34,16.34,0,0,0,44,116.34l.72.32a27.78,27.78,0,0,0,5.38,1.77l2.26.5a3.46,3.46,0,0,0,.78.09,3.59,3.59,0,0,0,2.8-1.38,3.45,3.45,0,0,0,.63-3l0-.07A3.62,3.62,0,0,0,54,112l-5.81-1.54A9.32,9.32,0,0,1,41.34,103l0-.09A25.9,25.9,0,0,1,42,95a3.17,3.17,0,0,0-2.7-3.83l-.4,0Z"/><path class="cls-6" d="M63,82.51A12.28,12.28,0,0,0,68,71.38a11.14,11.14,0,0,0-2.6-5.87,13.47,13.47,0,0,0-2.58-2.35,14.11,14.11,0,0,0-14.37-.61,2.56,2.56,0,0,0,2.29,4.58,9,9,0,0,1,9.15.23A6.79,6.79,0,0,1,63,72a7.41,7.41,0,0,1-4,7.05,2.56,2.56,0,0,0,2.57,4.43A14.56,14.56,0,0,0,63,82.51Z"/><path class="cls-7" d="M6.34,65c.06-1.87.2-3.73.39-5.58,12,0,20.15-1.28,25.07-2.49,6-1.46,8.6-3.09,8.85-3.26l0,0,7.51,1.78A36.79,36.79,0,0,1,35,62a92.76,92.76,0,0,1-14.57,2.41C16.07,64.85,11.34,65,6.34,65Z"/><path class="cls-8" d="M10.17,64.23a5.23,5.23,0,0,1-5.47-.16c-.88-6.26-1-12.18,1.08-17.08,2.23,3.28,4.28,6.44,4.6,8.43Z"/><path class="cls-9" d="M7.8,48.3a.71.71,0,0,1,.4-.4h0a1,1,0,0,1,1,.19,3.4,3.4,0,0,1,1,2.11l.54,3.93.18,1.44a8.14,8.14,0,0,1-.42,3.79"/><path class="cls-10" d="M5.16,47.1h0a1.24,1.24,0,0,1,1-.78h0a1.25,1.25,0,0,1,1.15.51h0a4.68,4.68,0,0,1,.89,2.6l0,1.34c0,.57.2,1.71.2,1.71l.17.94"/><path class="cls-10" d="M4.09,56.87c-.21-1.2-.43-2.42-.71-3.89a13.59,13.59,0,0,1-.23-2.47V49.08a2.65,2.65,0,0,1,.58-1.67l.08-.08a1.21,1.21,0,0,1,.92-.42h0a.83.83,0,0,1,.81.62l.61,2.28a8.24,8.24,0,0,1,.22,1.1l.22,1.77a6.75,6.75,0,0,0,.28,1.26l.29.94"/><path class="cls-10" d="M5.52,59.11a7.88,7.88,0,0,0-2.81-3.53,1.85,1.85,0,0,0-.62-.29,1.4,1.4,0,0,0-1.15.13,1.41,1.41,0,0,0-.61,1.42,4,4,0,0,0,1.06,2.27,7.52,7.52,0,0,1,1.67,3.23,3.21,3.21,0,0,0,.6,1.36l.08.11A3.29,3.29,0,0,0,5.38,65l.61.2a4.13,4.13,0,0,0,2.46,0h0"/><path class="cls-10" d="M9,59.94a3.75,3.75,0,0,1,.69-1.52,1.85,1.85,0,0,1,1.49-.73h.09a1.74,1.74,0,0,1,1,.32h0a.61.61,0,0,1,0,1,2.84,2.84,0,0,0-.65.73,2.91,2.91,0,0,0-.45,1.72l0,1.15a2.62,2.62,0,0,0,.43,1.33l.18.26a1,1,0,0,1-.23,1.35h0a1.07,1.07,0,0,1-1.22,0h0A3.09,3.09,0,0,1,9.15,63.7l-.33-1.36"/><polygon class="cls-11" points="57.6 19.53 53.23 23.93 48.95 19.53 44.69 23.93 40.4 19.53 36.12 23.93 31.78 19.53 44.67 1 57.6 19.53"/><path class="cls-12" d="M57.16,90.3a11.36,11.36,0,0,1-2.31,4.44c-3.7,4.3-9.39,4-10.16,4A13.65,13.65,0,0,1,35,94.78a12.58,12.58,0,0,1-2.8-4.48Z"/><path class="cls-13" d="M57.38,79.47l0,10c-.05.25-.11.53-.19.85h-25c-.14-.39-.25-.74-.34-1V79.47Z"/><path class="cls-14" d="M57.6,19.53v7.7s-.18,34.82-.22,52.24H49V19.53l4.28,4.4Z"/><polygon class="cls-14" points="40.38 19.51 40.38 79.45 31.83 79.45 31.76 27.21 31.76 19.51 36.11 23.91 40.38 19.51"/><polygon class="cls-15" points="48.95 19.53 48.95 79.47 40.4 79.47 40.4 19.53 44.69 23.93 48.95 19.53"/><path class="cls-16" d="M41.84,5.26a4.1,4.1,0,0,0,5.53,0L44.67,1Z"/><line class="cls-17" x1="31.84" y1="81.46" x2="57.53" y2="81.46"/><line class="cls-17" x1="31.84" y1="88.41" x2="57.53" y2="88.41"/><line class="cls-18" x1="48.95" y1="19.53" x2="48.95" y2="19.5"/><line class="cls-19" x1="40.4" y1="79.47" x2="40.4" y2="79.47"/><line class="cls-19" x1="40.4" y1="19.53" x2="40.4" y2="19.52"/><line class="cls-20" x1="48.95" y1="19.5" x2="48.95" y2="79.47"/><line class="cls-20" x1="40.4" y1="19.56" x2="40.4" y2="79.47"/><path class="cls-21" d="M57.6,19.53,44.67,1,31.78,19.53v7.7l.06,52.24H57.38c0-17.42.22-52.24.22-52.24Z"/><polyline class="cls-21" points="31.78 19.53 36.12 23.93 40.4 19.53 44.69 23.93 48.95 19.53 53.23 23.93 57.6 19.53"/><path class="cls-22" d="M28.86,33.75s2.81-2.93,5.54,0"/><path class="cls-22" d="M44.19,33.75s2.81-2.93,5.53,0"/><path class="cls-23" d="M39.23,57.61a.66.66,0,0,1,0,.14v-.14Z"/><path class="cls-24" d="M49.05,55.56a2.81,2.81,0,0,0-3.89-.72,10.89,10.89,0,0,1-3.94,1.38,12,12,0,0,1-1.41.14l-.56,0-.59,0a12.06,12.06,0,0,1-1.4-.14,11.21,11.21,0,0,1-3.92-1.38,2.8,2.8,0,0,0-3.19,4.61A16.55,16.55,0,0,0,39.25,62a16.68,16.68,0,0,0,9.1-2.53A2.81,2.81,0,0,0,49.05,55.56Zm-1.41,2.88a15.43,15.43,0,0,1-8.39,2.32,15.48,15.48,0,0,1-8.4-2.32,1.57,1.57,0,0,1,1.8-2.58,11.65,11.65,0,0,0,3.88,1.48,13.78,13.78,0,0,0,2.7.27h0a13.78,13.78,0,0,0,2.7-.27,11.3,11.3,0,0,0,3.9-1.48,1.57,1.57,0,1,1,1.79,2.58Z"/><path class="cls-25" d="M47.64,58.44a15.43,15.43,0,0,1-8.39,2.32,15.48,15.48,0,0,1-8.4-2.32,1.57,1.57,0,0,1,1.8-2.58,11.65,11.65,0,0,0,3.88,1.48,2.71,2.71,0,0,0,0,.41,1.41,1.41,0,1,0,2.75,0,1.41,1.41,0,1,0,2.75,0,2.71,2.71,0,0,0,0-.41,11.3,11.3,0,0,0,3.9-1.48,1.57,1.57,0,1,1,1.79,2.58Z"/><path class="cls-25" d="M39.24,57.61v.14a.66.66,0,0,0,0-.14Z"/><path class="cls-26" d="M39.24,57.75a1.41,1.41,0,1,1-2.75,0,2.71,2.71,0,0,1,0-.41,13.78,13.78,0,0,0,2.7.27A.66.66,0,0,1,39.24,57.75Z"/><path class="cls-26" d="M42,57.75a1.41,1.41,0,1,1-2.75,0v-.14h0a13.78,13.78,0,0,0,2.7-.27A2.71,2.71,0,0,1,42,57.75Z"/><ellipse class="cls-27" cx="32.63" cy="44.24" rx="5.3" ry="7.84"/><ellipse class="cls-28" cx="30.15" cy="43.82" rx="2.73" ry="4.04"/><circle class="cls-8" cx="29.04" cy="42.34" r="1.05"/><ellipse class="cls-27" cx="46.78" cy="43.82" rx="5.3" ry="7.84"/><ellipse class="cls-28" cx="44.2" cy="43.82" rx="2.73" ry="4.04"/><circle class="cls-8" cx="43.16" cy="42.34" r="1.05"/><ellipse class="cls-29" cx="62.9" cy="87.91" rx="1.82" ry="1.06" transform="translate(-42.11 113.56) rotate(-68.14)"/><path class="cls-9" d="M56,80.61h0a1.27,1.27,0,0,1,1.15-1.26h0a7.17,7.17,0,0,1,6.44,2.78l0,.07a1.51,1.51,0,0,1-.1,1.89h0a1,1,0,0,1-1,.32l-3.4-.79a5.24,5.24,0,0,1-2.55-1.41h0A2.27,2.27,0,0,1,56,80.61Z"/><path class="cls-30" d="M58,81.87h0a5.17,5.17,0,0,0-4.62,4.32,7.7,7.7,0,0,0,0,1.86,9.72,9.72,0,0,0,.22,1.26,5.46,5.46,0,0,0,2.66,3.46h0a.53.53,0,0,0,.78-.54l-.31-2.08"/><ellipse class="cls-8" cx="58.28" cy="87.02" rx="3.58" ry="4.6"/><path class="cls-30" d="M55.83,89.92A4.93,4.93,0,0,0,56.39,92a3.18,3.18,0,0,0,2.75,1.69,3,3,0,0,0,.52,0A1.6,1.6,0,0,0,61,92.36h0"/><path class="cls-30" d="M58.74,89.92a6.53,6.53,0,0,0,1.54,2.62,2.26,2.26,0,0,0,1.25.75,3.12,3.12,0,0,0,2.76-.79l.2-.2a4.4,4.4,0,0,0,1.06-1.94L66,88.51a1.35,1.35,0,0,0-.71-1.59l0,0a.91.91,0,0,0-1.14.37L63,89.11a.11.11,0,0,1-.2-.07l.22-1.4a4.29,4.29,0,0,0-1.61-4.09l-.9-.69"/><path class="cls-31" d="M67.83,129.5a15.55,15.55,0,0,0,.14-2,44.37,44.37,0,0,1,.24-4.53v0a36.49,36.49,0,0,1,1.7-5l.07-.19a5.39,5.39,0,0,0,.27-1,4.91,4.91,0,0,0-1.69-4.65,2.68,2.68,0,0,1,2.84,1.5c1.08,2.37.45,4.08-.34,6.24a22.36,22.36,0,0,0-1,3.08,28,28,0,0,0-.6,5c-.13,2.36-.22,4.07-1.84,6.06a3.44,3.44,0,0,1-3.38,1A7.66,7.66,0,0,0,67.83,129.5Z"/><path class="cls-32" d="M58.25,127.8a8.18,8.18,0,0,1,1.3-3.23v0a5,5,0,0,1,3.13-1.89.32.32,0,0,0-.14-.62,6.62,6.62,0,0,0-2.42,1.06,6.6,6.6,0,0,1-2-2.7,8.92,8.92,0,0,0,1-2.22.06.06,0,0,0,0,0,.31.31,0,0,0-.61-.15,8.23,8.23,0,0,1-1,2.19l0,0c-.65,1-1.42,1.5-2.12,1.37-1.36-.24-2.07-2.88-1.56-5.76s2.09-5.1,3.45-4.86c.75.13,1.32,1,1.58,2.28v0a7.62,7.62,0,0,1,.14,1.49.33.33,0,0,0,.32.31.32.32,0,0,0,.32-.32,9.57,9.57,0,0,0-.13-1.47,6.59,6.59,0,0,1,5.92-1.91,6.27,6.27,0,0,1,2.19.8l0,0a4.29,4.29,0,0,1,1.77,5.26l-.07.19a36.79,36.79,0,0,0-1.74,5.15,43,43,0,0,0-.25,4.68v0c0,.52-.12,1.81-.13,1.91-.46,2.59-2,4.74-4,5.34a3.5,3.5,0,0,1-1.63.12C59.15,134.42,57.64,131.25,58.25,127.8Z"/><path class="cls-33" d="M57.63,127.69A8.81,8.81,0,0,1,59,124.22a3.72,3.72,0,0,1,.61-.71,7.16,7.16,0,0,1-2-2.51,2.71,2.71,0,0,1-2.43,1.2c-1.76-.32-2.67-3.17-2.08-6.5s2.44-5.69,4.19-5.38c.9.16,1.59,1,2,2.24a7.25,7.25,0,0,1,6.2-1.82,7.13,7.13,0,0,1,2.29.82A3.47,3.47,0,0,1,72,113.32a6.28,6.28,0,0,1,.52,3.92,15.56,15.56,0,0,1-.85,2.79,22.69,22.69,0,0,0-.94,3,27.36,27.36,0,0,0-.59,4.89c-.13,2.39-.23,4.28-2,6.43a3.9,3.9,0,0,1-3.34,1.33,5.42,5.42,0,0,1-1.49-.31,4,4,0,0,1-1.82.1C58.69,135,57,131.48,57.63,127.69Zm10,6.27c1.62-2,1.71-3.7,1.84-6.06a28,28,0,0,1,.6-5,22.36,22.36,0,0,1,1-3.08c.79-2.16,1.42-3.87.34-6.24a2.68,2.68,0,0,0-2.84-1.5,4.91,4.91,0,0,1,1.69,4.65,5.39,5.39,0,0,1-.27,1l-.07.19a36.49,36.49,0,0,0-1.7,5v0a44.37,44.37,0,0,0-.24,4.53,15.55,15.55,0,0,1-.14,2A7.66,7.66,0,0,1,64.28,135,3.44,3.44,0,0,0,67.66,134Zm-4.41.78c1.91-.6,3.5-2.75,4-5.34,0-.1.15-1.39.13-1.91v0a43,43,0,0,1,.25-4.68,36.79,36.79,0,0,1,1.74-5.15l.07-.19a4.29,4.29,0,0,0-1.77-5.26l0,0a6.27,6.27,0,0,0-2.19-.8,6.59,6.59,0,0,0-5.92,1.91,9.57,9.57,0,0,1,.13,1.47.32.32,0,0,1-.32.32.33.33,0,0,1-.32-.31,7.62,7.62,0,0,0-.14-1.49v0c-.26-1.28-.83-2.15-1.58-2.28-1.36-.24-2.94,2-3.45,4.86s.2,5.52,1.56,5.76c.7.13,1.47-.4,2.12-1.37l0,0a8.23,8.23,0,0,0,1-2.19.31.31,0,0,1,.61.15.06.06,0,0,1,0,0,8.92,8.92,0,0,1-1,2.22,6.6,6.6,0,0,0,2,2.7A6.62,6.62,0,0,1,62.55,122a.32.32,0,0,1,.14.62,5,5,0,0,0-3.13,1.89v0a8.18,8.18,0,0,0-1.3,3.23c-.61,3.45.9,6.62,3.37,7.06A3.5,3.5,0,0,0,63.25,134.74Z"/><path class="cls-34" d="M51,111.65h5.19a.51.51,0,0,1,.51.51v3.47a3.1,3.1,0,0,1-3.1,3.1h0a3.1,3.1,0,0,1-3.1-3.1v-3.47a.51.51,0,0,1,.51-.51Z" transform="translate(-68.45 150.45) rotate(-81.15)"/></g></g></svg>