<svg xmlns="http://www.w3.org/2000/svg" viewBox="0 0 248.69 387.38"><defs><style>.cls-1{fill:#e5e5e5;}.cls-2{fill:#760dc9;}.cls-3{fill:#d7840b;}.cls-10,.cls-27,.cls-4,.cls-8{fill:#fff;}.cls-11,.cls-13,.cls-14,.cls-17,.cls-18,.cls-20,.cls-22,.cls-23,.cls-24,.cls-25,.cls-26,.cls-27,.cls-28,.cls-4,.cls-5,.cls-6,.cls-7,.cls-8,.cls-9{stroke:#000;}.cls-11,.cls-13,.cls-14,.cls-18,.cls-20,.cls-21,.cls-22,.cls-23,.cls-24,.cls-25,.cls-26,.cls-27,.cls-28,.cls-4,.cls-7,.cls-8,.cls-9{stroke-miterlimit:10;}.cls-13,.cls-14,.cls-22,.cls-23,.cls-4,.cls-5,.cls-6{stroke-width:3.09px;}.cls-16,.cls-5{fill:#f9b233;}.cls-17,.cls-23,.cls-5,.cls-6,.cls-9{stroke-linecap:round;}.cls-17,.cls-5,.cls-6{stroke-linejoin:round;}.cls-15,.cls-6{fill:#d88500;}.cls-11,.cls-19,.cls-20,.cls-21,.cls-22,.cls-23,.cls-7,.cls-9{fill:none;}.cls-7{stroke-width:1.97px;}.cls-11,.cls-18,.cls-8,.cls-9{stroke-width:1.55px;}.cls-12{fill:#fbccac;}.cls-13{fill:#ff7bac;}.cls-14{fill:#ccc;}.cls-17{stroke-width:0.02px;}.cls-18{fill:#666;}.cls-20{stroke-width:2.32px;}.cls-21{stroke:#bf720c;stroke-width:1.24px;}.cls-24{fill:#abd6bd;stroke-width:0.59px;}.cls-25{fill:#ffd18f;stroke-width:1.16px;}.cls-26,.cls-27{stroke-width:0.06px;}.cls-28{stroke-width:0.2px;}</style></defs><title>la</title><g id="Layer_2" data-name="Layer 2"><g id="Personaje"><path class="cls-1" d="M225.46,378.81a60.2,60.2,0,0,1-6.75-.74c-.62-.1-11.22-1.85-15-1.85h-.1c-4.35,0-12.57,1.66-17.48,2.63l-.65.12a16.65,16.65,0,0,1-3.28.32A16.3,16.3,0,0,1,168,371.06c-1.32,4.87.68,8.4,3.26,10.18,7.12,4.92,13.07,3.85,20.6,2.5a78.64,78.64,0,0,1,10.66-1.38,94.23,94.23,0,0,1,16.71.95c7.81,1,13.45,1.67,20.9-2.49,4.54-2.54,5.31-7.42,5.3-10.44C241.32,375.57,233.83,378.81,225.46,378.81Z"/><path class="cls-2" d="M225.46,346.46a27.55,27.55,0,0,0-11.33,2.36l-.07,0s-4.95,2-8,9.15a1.06,1.06,0,0,1-1.94-.83,22,22,0,0,1,4.89-7.3,22.12,22.12,0,0,0-7.66-8.21,29.92,29.92,0,0,1-7.86,2h-.13a1.05,1.05,0,0,1-.13-2.1,27.57,27.57,0,0,0,7.73-2l.11-.05c3.52-1.57,5.71-3.79,5.71-6.14,0-4.59-8.21-8.47-17.93-8.47s-17.93,3.88-17.93,8.47c0,2.52,2.5,4.89,6.53,6.49a.35.35,0,0,1,.14.06,27.33,27.33,0,0,0,4.78,1.33,1.06,1.06,0,0,1-.39,2.08,30.07,30.07,0,0,1-4.73-1.29,22,22,0,0,0-8.36,25.9l.05.14a14.22,14.22,0,0,0,16.19,8.84l.64-.12c5.31-1,13.33-2.63,17.87-2.67,3.92-.05,15,1.81,15.45,1.88l.06,0a60.12,60.12,0,0,0,6.32.69c8.75,0,16.71-4,19.79-9.85a11.32,11.32,0,0,0,1.33-5.27C246.58,353.24,237.11,346.46,225.46,346.46Z"/><path d="M225.46,344.35a29.61,29.61,0,0,0-12.18,2.54,12.24,12.24,0,0,0-2.65,1.58,24.25,24.25,0,0,0-7.09-7.89c3.34-1.9,5.34-4.45,5.34-7.23,0-5.93-8.8-10.58-20-10.58s-20,4.65-20,10.58c0,3,2.28,5.76,6.17,7.7a24.17,24.17,0,0,0-8.22,27.19c-3,7.09-.14,12.36,3.31,14.74a21.07,21.07,0,0,0,12.54,4,55.15,55.15,0,0,0,9.64-1.16,74.07,74.07,0,0,1,10.37-1.35,92.78,92.78,0,0,1,16.36.93c7.9,1,14.14,1.76,22.19-2.74,4.48-2.51,5.88-6.9,6.27-10.15a17.52,17.52,0,0,0-.13-5.06,13.38,13.38,0,0,0,1.38-5.87C248.69,352.08,238.27,344.35,225.46,344.35Zm14.68,36.47c-7.45,4.16-13.09,3.46-20.9,2.49a94.23,94.23,0,0,0-16.71-.95,78.64,78.64,0,0,0-10.66,1.38c-7.53,1.35-13.48,2.42-20.6-2.5-2.58-1.78-4.58-5.31-3.26-10.18a16.3,16.3,0,0,0,14.23,8.23,16.65,16.65,0,0,0,3.28-.32l.65-.12c4.91-1,13.13-2.59,17.48-2.63h.1c3.74,0,14.34,1.75,15,1.85a60.2,60.2,0,0,0,6.75.74c8.37,0,15.86-3.24,20-8.43C245.45,373.4,244.68,378.28,240.14,380.82Zm5.11-14c-3.08,5.89-11,9.85-19.79,9.85a60.12,60.12,0,0,1-6.32-.69l-.06,0c-.47-.07-11.53-1.93-15.45-1.88-4.54,0-12.56,1.62-17.87,2.67l-.64.12a14.22,14.22,0,0,1-16.19-8.84l-.05-.14a22,22,0,0,1,8.36-25.9,30.07,30.07,0,0,0,4.73,1.29,1.06,1.06,0,0,0,.39-2.08,27.33,27.33,0,0,1-4.78-1.33.35.35,0,0,0-.14-.06c-4-1.6-6.53-4-6.53-6.49,0-4.59,8.21-8.47,17.93-8.47s17.93,3.88,17.93,8.47c0,2.35-2.19,4.57-5.71,6.14l-.11.05a27.57,27.57,0,0,1-7.73,2,1.05,1.05,0,0,0,.13,2.1h.13a29.92,29.92,0,0,0,7.86-2,22.12,22.12,0,0,1,7.66,8.21,22,22,0,0,0-4.89,7.3,1.06,1.06,0,0,0,1.94.83c3.06-7.18,8-9.13,8-9.15l.07,0a27.55,27.55,0,0,1,11.33-2.36c11.65,0,21.12,6.78,21.12,15.12A11.32,11.32,0,0,1,245.25,366.85Z"/><path class="cls-3" d="M188.08,334.9a7.5,7.5,0,0,1-1.34-.11,8.3,8.3,0,0,1-6.87-9.53c5.69-35-10.93-73.55-11.1-73.94a8.31,8.31,0,0,1,7.59-11.66,8.32,8.32,0,0,1,7.61,5c.77,1.74,18.82,43.22,12.3,83.32A8.27,8.27,0,0,1,188.08,334.9Z"/><path d="M176.36,241.2a6.77,6.77,0,0,1,6.19,4c.77,1.73,18.64,42.79,12.19,82.45a6.76,6.76,0,0,1-6.66,5.68,6.89,6.89,0,0,1-1.1-.09,6.77,6.77,0,0,1-5.59-7.76c5.78-35.52-10.94-74.19-11.21-74.81a6.77,6.77,0,0,1,6.18-9.5m0-3.09a9.86,9.86,0,0,0-9,13.84c.17.37,16.61,38.49,11,73.06a9.86,9.86,0,0,0,8.15,11.31,9.39,9.39,0,0,0,1.59.13,9.82,9.82,0,0,0,9.72-8.28c6.59-40.55-11.64-82.42-12.42-84.19a9.84,9.84,0,0,0-9-5.87Z"/><path class="cls-4" d="M188.72,314.78h0a9,9,0,0,1,9,9v10a1.47,1.47,0,0,1-1.47,1.47h-15a1.47,1.47,0,0,1-1.47-1.47v-10a9,9,0,0,1,9-9Z" transform="translate(357.18 660.99) rotate(-176.49)"/><path class="cls-1" d="M94.07,379.2a59.58,59.58,0,0,0,6.75-.73c.62-.1,11.22-1.85,15-1.85h.1c4.34,0,12.57,1.66,17.48,2.63l.65.12a16.62,16.62,0,0,0,3.27.32,16.3,16.3,0,0,0,14.24-8.23c1.32,4.87-.68,8.4-3.26,10.18-7.12,4.92-13.07,3.85-20.6,2.5A78.64,78.64,0,0,0,117,382.76a94.23,94.23,0,0,0-16.71.95c-7.81,1-13.45,1.67-20.9-2.49-4.54-2.54-5.31-7.42-5.3-10.44C78.21,376,85.7,379.2,94.07,379.2Z"/><path class="cls-2" d="M94.07,346.86a27.55,27.55,0,0,1,11.33,2.36l.07,0s5,2,8,9.15a1.06,1.06,0,0,0,1.94-.83,22,22,0,0,0-4.89-7.3,22,22,0,0,1,7.66-8.21,29.92,29.92,0,0,0,7.86,2h.13a1.05,1.05,0,0,0,.12-2.1,27.67,27.67,0,0,1-7.73-2l-.1-.05c-3.52-1.57-5.71-3.79-5.71-6.14,0-4.59,8.21-8.47,17.93-8.47s17.92,3.88,17.92,8.47c0,2.52-2.49,4.89-6.52,6.49a.35.35,0,0,0-.14.06,27.33,27.33,0,0,1-4.78,1.33,1.06,1.06,0,0,0,.39,2.08,30.07,30.07,0,0,0,4.73-1.29,22,22,0,0,1,8.36,25.9l-.05.14a14.22,14.22,0,0,1-16.19,8.84l-.64-.12c-5.31-1.05-13.33-2.63-17.87-2.67-3.92-.05-15,1.81-15.45,1.88h-.06a60.75,60.75,0,0,1-6.32.7c-8.75,0-16.71-4-19.79-9.85A11.21,11.21,0,0,1,73,362C73,353.64,82.42,346.86,94.07,346.86Z"/><path d="M70.84,362a13.31,13.31,0,0,0,1.38,5.87,17.6,17.6,0,0,0-.13,5.07c.39,3.25,1.79,7.64,6.27,10.15,8,4.5,14.29,3.72,22.19,2.74a91.83,91.83,0,0,1,16.36-.93,74.07,74.07,0,0,1,10.37,1.35,55.15,55.15,0,0,0,9.64,1.16,21.07,21.07,0,0,0,12.54-4c3.45-2.38,6.33-7.65,3.31-14.74a24.17,24.17,0,0,0-8.22-27.19c3.89-1.94,6.17-4.68,6.17-7.7,0-5.93-8.8-10.58-20-10.58s-20,4.65-20,10.58c0,2.78,2,5.33,5.34,7.23a24.32,24.32,0,0,0-7.09,7.88,11.7,11.7,0,0,0-2.66-1.57,29.53,29.53,0,0,0-12.17-2.54C81.26,344.75,70.84,352.48,70.84,362Zm3.25,8.81c4.12,5.19,11.61,8.42,20,8.42a59.58,59.58,0,0,0,6.75-.73c.62-.1,11.22-1.85,15-1.85h.1c4.34,0,12.57,1.66,17.48,2.63l.65.12a16.62,16.62,0,0,0,3.27.32,16.3,16.3,0,0,0,14.24-8.23c1.32,4.87-.68,8.4-3.26,10.18-7.12,4.92-13.07,3.85-20.6,2.5A78.64,78.64,0,0,0,117,382.76a94.23,94.23,0,0,0-16.71.95c-7.81,1-13.45,1.67-20.9-2.49C74.85,378.68,74.08,373.8,74.09,370.78ZM73,362c0-8.33,9.47-15.11,21.12-15.11a27.55,27.55,0,0,1,11.33,2.36l.07,0s5,2,8,9.15a1.06,1.06,0,0,0,1.94-.83,22,22,0,0,0-4.89-7.3,22,22,0,0,1,7.66-8.21,29.92,29.92,0,0,0,7.86,2h.13a1.05,1.05,0,0,0,.12-2.1,27.67,27.67,0,0,1-7.73-2l-.1-.05c-3.52-1.57-5.71-3.79-5.71-6.14,0-4.59,8.21-8.47,17.93-8.47s17.92,3.88,17.92,8.47c0,2.52-2.49,4.89-6.52,6.49a.35.35,0,0,0-.14.06,27.33,27.33,0,0,1-4.78,1.33,1.06,1.06,0,0,0,.39,2.08,30.07,30.07,0,0,0,4.73-1.29,22,22,0,0,1,8.36,25.9l-.05.14a14.22,14.22,0,0,1-16.19,8.84l-.64-.12c-5.31-1.05-13.33-2.63-17.87-2.67-3.92-.05-15,1.81-15.45,1.88h-.06a60.75,60.75,0,0,1-6.32.7c-8.75,0-16.71-4-19.79-9.85A11.21,11.21,0,0,1,73,362Z"/><path class="cls-3" d="M131.45,335.3a8.27,8.27,0,0,1-8.19-7c-6.52-40.09,11.53-81.57,12.3-83.31a8.32,8.32,0,0,1,7.61-4.95,8.13,8.13,0,0,1,3.35.71,8.3,8.3,0,0,1,4.24,10.95c-.17.38-16.79,38.9-11.1,73.94a8.3,8.3,0,0,1-6.87,9.53A7.5,7.5,0,0,1,131.45,335.3Z"/><path d="M143.17,241.6a6.78,6.78,0,0,1,6.18,9.5c-.27.61-17,39.29-11.21,74.81a6.77,6.77,0,0,1-5.59,7.76,6.89,6.89,0,0,1-1.1.09,6.76,6.76,0,0,1-6.66-5.68c-6.45-39.66,11.42-80.72,12.19-82.45a6.75,6.75,0,0,1,6.19-4m0-3.09h0a9.84,9.84,0,0,0-9,5.87c-.78,1.76-19,43.65-12.42,84.19a9.82,9.82,0,0,0,9.72,8.28,10.55,10.55,0,0,0,1.59-.13,9.86,9.86,0,0,0,8.15-11.31c-5.62-34.57,10.82-72.69,11-73.07a9.86,9.86,0,0,0-9-13.83Z"/><path class="cls-4" d="M123.31,315.18h15a1.47,1.47,0,0,1,1.47,1.47v10a9,9,0,0,1-9,9h0a9,9,0,0,1-9-9v-10A1.47,1.47,0,0,1,123.31,315.18Z" transform="translate(-19.68 8.62) rotate(-3.51)"/><path class="cls-5" d="M129.15,172.49l-1.43,19.39c-1.42-.09-14.32-1.22-31.85-9.91a130.74,130.74,0,0,1-29-19.8,159.13,159.13,0,0,1-26.06-30.3L57,120.56c13,19.71,28.77,34.36,46.9,43.59C117.82,171.23,128.25,172.4,129.15,172.49Z"/><path class="cls-6" d="M225.21,273.06q-10.31-.51-20.56-1.53c1.48-31.92-2.36-53.52-6.23-66.69-4.72-16-10.44-23.05-11-23.73l.06.06,7.45-19.76c.88.92,16.26,15.12,22.58,35.32a180.57,180.57,0,0,1,7.21,38.84A283.72,283.72,0,0,1,225.21,273.06Z"/><line class="cls-7" x1="56.27" y1="120.71" x2="40.05" y2="132.02"/><path class="cls-8" d="M54.12,111.15s7.51,4.44,3,14c-5.28,11.14-24.22,12.42-24.38-1.11Z"/><path class="cls-8" d="M55.37,111.3c-.52-8.4,10.34-13.47,12.18-19.51,2.11-6.91-6-16.46-17.42,2,0,0-4.22-10.72-2-19.52,2.56-10-6.08-13.95-10.27-9.56-3.82,4-3.61,17.12-1.14,24.17a1.61,1.61,0,0,1-1.31,2.12l-.39,0A1.61,1.61,0,0,1,33.33,90c-1.17-3.3-4.28-12.44-5-17.62C27.29,64.3,12.68,66.3,14,77.12c1,8.52,7,15.18,9.5,17.62a1.62,1.62,0,0,1,.11,2.18h0a1.61,1.61,0,0,1-2.16.29A154.2,154.2,0,0,1,8.24,87C3.19,82.4-9.12,97.21,16.19,108c0,0,3,18.18,20.06,17.73C55.69,125.17,55.37,111.3,55.37,111.3Z"/><path class="cls-9" d="M47.31,98.32s-12.28,2.5-7.68,14.86"/><path class="cls-10" d="M203.62,277s-7,5.15-10.42,12.11c-3.84,7.83,0,10.24,3.45,10.67s10-10.59,10-10.59a21.4,21.4,0,0,1-2.18,16.54c-4.94,8.86-5.66,14.23-.44,14.66s9.15-5.8,9.15-5.8-2.47,6.24,1.3,7.4,7.84-2.61,9.29-5.08c0,0,4.79,1.88,7-2.47s1.6-11.61-1.3-17.85c0,0,3.34-12.48-2.61-17,0,0,4.53-9.54-15.35-9.56C197.08,270.06,203.62,277,203.62,277Z"/><path class="cls-11" d="M203.62,277s-7,5.15-10.42,12.11c-3.84,7.83,0,10.24,3.45,10.67s10-10.59,10-10.59a21.4,21.4,0,0,1-2.18,16.54c-4.94,8.86-5.66,14.23-.44,14.66s9.15-5.8,9.15-5.8-2.47,6.24,1.3,7.4,7.84-2.61,9.29-5.08c0,0,4.79,1.88,7-2.47s1.6-11.61-1.3-17.85c0,0,3.34-12.48-2.61-17,0,0,4.53-9.54-15.35-9.56C197.08,270.06,203.62,277,203.62,277Z"/><path class="cls-9" d="M216,297s2.12,11.87-3.47,18.45"/><path class="cls-9" d="M225.64,297.64s3.75,11.84-1.85,19.29"/><path class="cls-9" d="M216.44,276a22,22,0,0,1,10.4,3.61"/><polygon class="cls-12" points="196.02 52.83 184.2 64.73 172.63 52.83 161.1 64.73 149.49 52.83 137.92 64.73 126.17 52.83 161.04 2.71 196.02 52.83"/><path class="cls-13" d="M194.82,244.27a30.25,30.25,0,0,1-6.24,12c-10,11.63-25.41,10.88-27.48,10.75-2.83,0-16.18-.23-26.27-10.63a34.23,34.23,0,0,1-7.57-12.12Z"/><path class="cls-14" d="M195.42,215q0,13.5-.07,27c-.13.68-.3,1.46-.53,2.32H127.26c-.39-1.06-.68-2-.91-2.82V215Z"/><path class="cls-15" d="M196,52.83V73.65s-.48,94.21-.6,141.31H172.63V52.83l11.57,11.9Z"/><polygon class="cls-15" points="149.45 52.78 149.45 214.92 126.32 214.92 126.13 73.61 126.13 52.78 137.88 64.69 149.45 52.78"/><polygon class="cls-16" points="172.63 52.83 172.63 214.96 149.49 214.96 149.49 52.83 161.1 64.73 172.63 52.83"/><path class="cls-17" d="M153.39,14.23s7.05,6.65,15,0L161,2.7Z"/><line class="cls-18" x1="126.35" y1="220.36" x2="195.84" y2="220.36"/><line class="cls-18" x1="126.35" y1="239.16" x2="195.84" y2="239.16"/><line class="cls-19" x1="172.63" y1="52.83" x2="172.63" y2="52.74"/><line class="cls-20" x1="149.49" y1="214.97" x2="149.49" y2="214.96"/><line class="cls-20" x1="149.49" y1="52.83" x2="149.49" y2="52.81"/><line class="cls-21" x1="172.63" y1="52.74" x2="172.63" y2="214.96"/><line class="cls-21" x1="149.49" y1="52.91" x2="149.49" y2="214.96"/><path class="cls-22" d="M196,52.82,161,2.7,126.17,52.82V73.65L126.35,215h69.07c.12-47.1.61-141.31.61-141.31Z"/><polyline class="cls-22" points="126.17 52.83 137.92 64.73 149.49 52.83 161.1 64.73 172.63 52.83 184.2 64.73 196.03 52.83"/><path class="cls-23" d="M118.28,91.31s7.61-8,15,0"/><path class="cls-23" d="M159.74,91.31s7.61-8,15,0"/><path class="cls-24" d="M146.34,155.84c0,.12,0,.25,0,.38,0-.13,0-.26,0-.38Z"/><path class="cls-25" d="M172.88,150.28a7.6,7.6,0,0,0-10.51-1.94,29.59,29.59,0,0,1-10.66,3.73,33.39,33.39,0,0,1-3.8.39c-.5,0-1,0-1.53,0s-1.07,0-1.58,0a33.45,33.45,0,0,1-3.79-.39,29.74,29.74,0,0,1-10.61-3.73,7.59,7.59,0,0,0-8.64,12.49c1,.7,10.21,6.85,24.62,6.85S170,161.53,171,160.83A7.61,7.61,0,0,0,172.88,150.28Zm-3.79,7.81c-.36.26-9.09,6.25-22.71,6.25s-22.34-6-22.71-6.25a4.25,4.25,0,0,1,4.86-7,31.58,31.58,0,0,0,10.5,4,37.48,37.48,0,0,0,7.31.74h0a36.58,36.58,0,0,0,7.3-.73,31.4,31.4,0,0,0,10.55-4,4.25,4.25,0,1,1,4.86,7Z"/><path class="cls-26" d="M169.09,158.09c-.36.26-9.09,6.25-22.71,6.25s-22.34-6-22.71-6.25a4.25,4.25,0,0,1,4.86-7,31.58,31.58,0,0,0,10.5,4,5.91,5.91,0,0,0-.11,1.12c0,2.55,1.67,4.62,3.72,4.62s3.71-2.07,3.71-4.62c0,2.55,1.67,4.62,3.72,4.62s3.72-2.07,3.72-4.62a5.8,5.8,0,0,0-.11-1.11,31.4,31.4,0,0,0,10.55-4,4.25,4.25,0,1,1,4.86,7Z"/><path class="cls-26" d="M146.37,155.84c0,.12,0,.25,0,.38,0-.13,0-.26,0-.38Z"/><path class="cls-27" d="M146.35,156.22c0,2.55-1.66,4.62-3.71,4.62s-3.72-2.07-3.72-4.62a5.91,5.91,0,0,1,.11-1.12,37.48,37.48,0,0,0,7.31.74C146.35,156,146.35,156.09,146.35,156.22Z"/><path class="cls-27" d="M153.79,156.22c0,2.55-1.66,4.62-3.72,4.62s-3.72-2.07-3.72-4.62c0-.13,0-.26,0-.38h0a36.58,36.58,0,0,0,7.3-.73A5.8,5.8,0,0,1,153.79,156.22Z"/><ellipse class="cls-8" cx="128.48" cy="119.66" rx="14.33" ry="21.22"/><ellipse class="cls-28" cx="121.78" cy="118.54" rx="7.37" ry="10.92"/><circle class="cls-10" cx="118.75" cy="114.54" r="2.83"/><ellipse class="cls-8" cx="166.74" cy="118.54" rx="14.33" ry="21.22"/><ellipse class="cls-28" cx="159.78" cy="118.54" rx="7.37" ry="10.92"/><circle class="cls-10" cx="156.96" cy="114.54" r="2.83"/></g></g></svg>