<svg xmlns="http://www.w3.org/2000/svg" viewBox="0 0 280.07 276.95"><defs><style>.cls-1{fill:#e5e5e5;}.cls-2{fill:#bf4400;}.cls-21,.cls-3{fill:#003b49;}.cls-15,.cls-20,.cls-22,.cls-4,.cls-6{fill:#fff;}.cls-10,.cls-11,.cls-12,.cls-13,.cls-14,.cls-15,.cls-16,.cls-17,.cls-18,.cls-19,.cls-21,.cls-22,.cls-23,.cls-4,.cls-5,.cls-6,.cls-7,.cls-9{stroke:#000;stroke-miterlimit:10;}.cls-17,.cls-21,.cls-4,.cls-5,.cls-9{stroke-width:2.5px;}.cls-5{fill:#3291b2;}.cls-6,.cls-7{stroke-width:1.15px;}.cls-14,.cls-17,.cls-23,.cls-7,.cls-9{fill:none;}.cls-17,.cls-23,.cls-7{stroke-linecap:round;}.cls-10,.cls-8{fill:#00607a;}.cls-10,.cls-14{stroke-width:1.46px;}.cls-11,.cls-12,.cls-13{fill:#b3b3b3;}.cls-11{stroke-width:1.08px;}.cls-12{stroke-width:0.64px;}.cls-13{stroke-width:0.73px;}.cls-15{stroke-width:1.25px;}.cls-16{stroke-width:0.15px;}.cls-18{fill:#75c6d3;stroke-width:0.94px;}.cls-19{fill:#ea5e58;stroke-width:0.04px;}.cls-22,.cls-23{stroke-width:1.28px;}</style></defs><title>la</title><g id="Layer_2" data-name="Layer 2"><g id="personaje"><path class="cls-1" d="M214.19,270.63a49.43,49.43,0,0,1-5.61-1c-.51-.12-9.27-2.12-12.4-2.31h-.09c-3.63-.19-10.59.74-14.74,1.3l-.55.08a15,15,0,0,1-2.75.1,13.65,13.65,0,0,1-11.48-7.62c-1.35,4,.13,7.06,2.2,8.68,5.7,4.47,10.73,3.89,17.09,3.15a64.29,64.29,0,0,1,9-.61,78.17,78.17,0,0,1,13.91,1.65c6.48,1.21,11.16,2.08,17.6-1,3.92-1.89,4.81-5.93,5-8.45C227.61,268.74,221.18,271.06,214.19,270.63Z"/><path class="cls-2" d="M215.85,243.6a22.89,22.89,0,0,0-9.59,1.39l-.06,0S202,246.4,199,252.24a.88.88,0,1,1-1.58-.79,18.5,18.5,0,0,1,4.46-5.85,18.38,18.38,0,0,0-6-7.25,25,25,0,0,1-6.67,1.26h-.1a.89.89,0,0,1-.83-.83.88.88,0,0,1,.83-.93,23.27,23.27,0,0,0,6.56-1.29l.09,0c3-1.13,5-2.87,5.09-4.84.23-3.83-6.43-7.5-14.55-8s-15.18,2.33-15.42,6.16c-.13,2.11,1.83,4.22,5.12,5.76l.12.06a23.32,23.32,0,0,0,3.92,1.36.88.88,0,1,1-.43,1.71,25.18,25.18,0,0,1-3.88-1.31,18.48,18.48,0,0,0-8.32,21.22l0,.11A11.93,11.93,0,0,0,180.57,267l.54-.08c4.49-.6,11.28-1.51,15.08-1.31,3.27.16,12.43,2.28,12.81,2.37h.05a50.13,50.13,0,0,0,5.25.9c7.32.45,14.17-2.45,17-7.22a9.43,9.43,0,0,0,1.38-4.34C233.16,250.35,225.58,244.2,215.85,243.6Z"/><path d="M216,241.84a24.65,24.65,0,0,0-10.3,1.49,10.87,10.87,0,0,0-2.3,1.18,20.28,20.28,0,0,0-5.52-6.95c2.89-1.42,4.69-3.45,4.83-5.77.3-5-6.81-9.29-16.2-9.87s-17,2.86-17.29,7.82c-.16,2.52,1.62,4.93,4.76,6.75a20.21,20.21,0,0,0-8.26,22.31c-2.89,5.76-.75,10.31,2,12.48a17.66,17.66,0,0,0,10.28,4,46.22,46.22,0,0,0,8.11-.48,63,63,0,0,1,8.74-.59,76.69,76.69,0,0,1,13.62,1.61c6.56,1.23,11.73,2.2,18.69-1.15a10.75,10.75,0,0,0,5.76-8.16,14.35,14.35,0,0,0,.15-4.24,11.11,11.11,0,0,0,1.46-4.84C235,249.48,226.66,242.49,216,241.84Zm10.41,31.23c-6.44,3.09-11.12,2.22-17.6,1a78.17,78.17,0,0,0-13.91-1.65,64.29,64.29,0,0,0-9,.61c-6.36.74-11.39,1.32-17.09-3.15-2.07-1.62-3.55-4.67-2.2-8.68a13.65,13.65,0,0,0,11.48,7.62,15,15,0,0,0,2.75-.1l.55-.08c4.15-.56,11.11-1.49,14.74-1.3h.09c3.13.19,11.89,2.19,12.4,2.31a49.43,49.43,0,0,0,5.61,1c7,.43,13.42-1.89,17.14-6C231.17,267.14,230.28,271.18,226.36,273.07Zm5-11.42c-2.88,4.77-9.73,7.67-17,7.22a50.13,50.13,0,0,1-5.25-.9H209c-.38-.09-9.54-2.21-12.81-2.37-3.8-.2-10.59.71-15.08,1.31l-.54.08a11.93,11.93,0,0,1-13.08-8.23l0-.11a18.48,18.48,0,0,1,8.32-21.22,25.18,25.18,0,0,0,3.88,1.31.88.88,0,1,0,.43-1.71,23.32,23.32,0,0,1-3.92-1.36l-.12-.06c-3.29-1.54-5.25-3.65-5.12-5.76.24-3.83,7.3-6.65,15.42-6.16s14.78,4.17,14.55,8c-.12,2-2.06,3.71-5.09,4.84l-.09,0a23.27,23.27,0,0,1-6.56,1.29.88.88,0,0,0-.83.93.89.89,0,0,0,.83.83h.1a25,25,0,0,0,6.67-1.26,18.38,18.38,0,0,1,6,7.25,18.5,18.5,0,0,0-4.46,5.85.88.88,0,1,0,1.58.79c2.93-5.84,7.13-7.22,7.17-7.23l.06,0a22.89,22.89,0,0,1,9.59-1.39c9.73.6,17.31,6.75,16.88,13.71A9.43,9.43,0,0,1,231.35,261.65Z"/><path class="cls-3" d="M185.43,232.71a7.85,7.85,0,0,1-7.76-9.11c5.57-34.31-10.7-72-10.86-72.37a7.85,7.85,0,0,1,7.18-11,7.86,7.86,0,0,1,7.19,4.68c.75,1.7,18.35,42.13,12,81.23A7.82,7.82,0,0,1,185.43,232.71Z"/><path d="M174,141.46a6.6,6.6,0,0,1,6,3.93c.75,1.69,18.2,41.79,11.91,80.53a6.6,6.6,0,0,1-6.51,5.54,7.82,7.82,0,0,1-1.07-.08,6.61,6.61,0,0,1-5.46-7.58c5.64-34.69-10.68-72.47-11-73.07a6.6,6.6,0,0,1,6-9.27m0-2.5a9.09,9.09,0,0,0-8.32,12.78c.16.37,16.28,37.74,10.76,71.66a9.11,9.11,0,0,0,18,2.92c6.41-39.45-11.33-80.22-12.09-81.94A9.12,9.12,0,0,0,174,139Z"/><path class="cls-4" d="M184.54,213.32h3a7.25,7.25,0,0,1,7.25,7.25v11.56a1.19,1.19,0,0,1-1.19,1.19H178.48a1.19,1.19,0,0,1-1.19-1.19V220.57A7.25,7.25,0,0,1,184.54,213.32Z" transform="translate(358.09 457.62) rotate(-176.49)"/><path class="cls-1" d="M105.51,270.63a49.36,49.36,0,0,0,5.6-1c.52-.12,9.28-2.12,12.41-2.31h.08c3.64-.19,10.59.74,14.75,1.3l.54.08a15.09,15.09,0,0,0,2.76.1,13.67,13.67,0,0,0,11.48-7.62c1.35,4-.14,7.06-2.2,8.68-5.71,4.47-10.73,3.89-17.1,3.15a64.25,64.25,0,0,0-9-.61,78.17,78.17,0,0,0-13.91,1.65c-6.48,1.21-11.16,2.08-17.6-1-3.92-1.89-4.82-5.93-5-8.45C92.09,268.74,98.51,271.06,105.51,270.63Z"/><path class="cls-2" d="M103.85,243.6a22.92,22.92,0,0,1,9.59,1.39l.06,0s4.24,1.39,7.16,7.23a.88.88,0,1,0,1.58-.79,18.36,18.36,0,0,0-4.46-5.85,18.55,18.55,0,0,1,6-7.25,25.11,25.11,0,0,0,6.67,1.26h.11a.89.89,0,0,0,.83-.83.88.88,0,0,0-.83-.93,23.34,23.34,0,0,1-6.57-1.29l-.08,0c-3-1.13-5-2.87-5.09-4.84-.24-3.83,6.43-7.5,14.55-8s15.18,2.33,15.41,6.16c.13,2.11-1.83,4.22-5.12,5.76l-.11.06A23.44,23.44,0,0,1,139.6,237a.88.88,0,0,0,.43,1.71,25.32,25.32,0,0,0,3.89-1.31,18.48,18.48,0,0,1,8.32,21.22l0,.11A11.93,11.93,0,0,1,139.13,267l-.54-.08c-4.5-.6-11.28-1.51-15.08-1.31-3.28.16-12.43,2.28-12.82,2.37h0a49.27,49.27,0,0,1-5.25.9c-7.31.45-14.16-2.45-17-7.22A9.43,9.43,0,0,1,87,257.31C86.54,250.35,94.11,244.2,103.85,243.6Z"/><path d="M85.21,257.42a11.1,11.1,0,0,0,1.45,4.84,15.06,15.06,0,0,0,.15,4.24,10.8,10.8,0,0,0,5.76,8.16c7,3.35,12.14,2.38,18.69,1.15a76.69,76.69,0,0,1,13.62-1.61,63,63,0,0,1,8.75.59,46.22,46.22,0,0,0,8.11.48,17.66,17.66,0,0,0,10.28-4c2.76-2.17,4.89-6.72,2-12.48a20.25,20.25,0,0,0-8.27-22.31c3.15-1.82,4.92-4.23,4.77-6.75-.31-5-7.9-8.39-17.29-7.82s-16.51,4.91-16.2,9.87c.14,2.32,1.93,4.35,4.83,5.77a20.17,20.17,0,0,0-5.52,6.95,10.87,10.87,0,0,0-2.3-1.18,24.67,24.67,0,0,0-10.31-1.49C93,242.49,84.72,249.48,85.21,257.42Zm3.16,7.2c3.72,4.12,10.14,6.44,17.14,6a49.36,49.36,0,0,0,5.6-1c.52-.12,9.28-2.12,12.41-2.31h.08c3.64-.19,10.59.74,14.75,1.3l.54.08a15.09,15.09,0,0,0,2.76.1,13.67,13.67,0,0,0,11.48-7.62c1.35,4-.14,7.06-2.2,8.68-5.71,4.47-10.73,3.89-17.1,3.15a64.25,64.25,0,0,0-9-.61,78.17,78.17,0,0,0-13.91,1.65c-6.48,1.21-11.16,2.08-17.6-1C89.42,271.18,88.52,267.14,88.37,264.62ZM87,257.31c-.43-7,7.14-13.11,16.88-13.71a22.92,22.92,0,0,1,9.59,1.39l.06,0s4.24,1.39,7.16,7.23a.88.88,0,1,0,1.58-.79,18.36,18.36,0,0,0-4.46-5.85,18.55,18.55,0,0,1,6-7.25,25.11,25.11,0,0,0,6.67,1.26h.11a.89.89,0,0,0,.83-.83.88.88,0,0,0-.83-.93,23.34,23.34,0,0,1-6.57-1.29l-.08,0c-3-1.13-5-2.87-5.09-4.84-.24-3.83,6.43-7.5,14.55-8s15.18,2.33,15.41,6.16c.13,2.11-1.83,4.22-5.12,5.76l-.11.06A23.44,23.44,0,0,1,139.6,237a.88.88,0,0,0,.43,1.71,25.32,25.32,0,0,0,3.89-1.31,18.48,18.48,0,0,1,8.32,21.22l0,.11A11.93,11.93,0,0,1,139.13,267l-.54-.08c-4.5-.6-11.28-1.51-15.08-1.31-3.28.16-12.43,2.28-12.82,2.37h0a49.27,49.27,0,0,1-5.25.9c-7.31.45-14.16-2.45-17-7.22A9.43,9.43,0,0,1,87,257.31Z"/><path class="cls-3" d="M134.27,232.71a7.82,7.82,0,0,1-7.75-6.59c-6.35-39.08,11.25-79.53,12-81.23a7.86,7.86,0,0,1,7.19-4.68,7.86,7.86,0,0,1,7.18,11c-.17.37-16.44,38-10.86,72.36a7.84,7.84,0,0,1-7.76,9.11Z"/><path d="M145.71,141.46a6.6,6.6,0,0,1,6,9.27c-.26.6-16.58,38.38-10.94,73.07a6.61,6.61,0,0,1-5.46,7.58,7.82,7.82,0,0,1-1.07.08,6.6,6.6,0,0,1-6.51-5.54c-6.3-38.74,11.16-78.84,11.9-80.53a6.6,6.6,0,0,1,6.05-3.93m0-2.5h0a9.1,9.1,0,0,0-8.33,5.42c-.76,1.72-18.5,42.49-12.09,81.94a9.1,9.1,0,0,0,18-2.92c-5.51-33.92,10.61-71.29,10.77-71.67A9.11,9.11,0,0,0,145.71,139Z"/><path class="cls-4" d="M126.06,213.32h15.15a1.19,1.19,0,0,1,1.19,1.19v11.56a7.25,7.25,0,0,1-7.25,7.25h-3a7.25,7.25,0,0,1-7.25-7.25V214.51a1.19,1.19,0,0,1,1.19-1.19Z" transform="translate(-13.42 8.6) rotate(-3.51)"/><path class="cls-5" d="M95.72,105.17,94.65,119.6c-1.05-.08-10.65-.91-23.7-7.38A97.45,97.45,0,0,1,49.36,97.49,118.94,118.94,0,0,1,30,75L42,66.53C51.73,81.2,63.45,92.1,76.94,99,87.29,104.23,95,105.1,95.72,105.17Z"/><path class="cls-6" d="M40.19,60.74S45.77,64,42.38,71.18c-3.92,8.27-18,9.22-18.1-.83Z"/><path class="cls-6" d="M41.12,60.85c-.38-6.24,7.68-10,9.05-14.49,1.57-5.13-4.48-12.22-12.94,1.52,0,0-3.14-8-1.46-14.5C37.68,26,31.26,23,28.15,26.29c-2.84,3-2.69,12.71-.85,18a1.19,1.19,0,0,1-1,1.57l-.29,0a1.2,1.2,0,0,1-1.29-.79c-.86-2.45-3.18-9.24-3.68-13.08-.8-6-11.65-4.55-10.71,3.48.74,6.33,5.2,11.28,7.06,13.09a1.2,1.2,0,0,1,.07,1.62h0a1.18,1.18,0,0,1-1.6.21,112.35,112.35,0,0,1-9.77-7.56C2.37,39.39-6.77,50.39,12,58.37c0,0,2.27,13.51,14.9,13.17C41.36,71.15,41.12,60.85,41.12,60.85Z"/><path class="cls-7" d="M35.14,51.21s-9.13,1.86-5.71,11"/><rect class="cls-8" x="214.57" y="98.58" width="9.55" height="73.82"/><path class="cls-3" d="M224.12,98.58h-9.55a21.14,21.14,0,0,1-3.65-3.67c-4.82-6.16-7.94-16-7.94-27.18,0-11.37,3.25-21.42,8.23-27.55a21,21,0,0,1,3.36-3.31h9.55a21,21,0,0,0-3.36,3.31c-5,6.13-8.24,16.18-8.24,27.55,0,11.14,3.13,21,8,27.18A21.09,21.09,0,0,0,224.12,98.58Z"/><rect class="cls-8" x="214.57" y="1.25" width="9.55" height="35.61"/><path class="cls-9" d="M220.77,40.18c-5,6.13-8.24,16.18-8.24,27.55,0,11.14,3.12,21,7.94,27.17a21.21,21.21,0,0,0,3.65,3.68V172.4H101.75V96.78a21.35,21.35,0,0,0,1.63-1.88c4.83-6.15,8-16,8-27.17,0-11.37-3.25-21.42-8.24-27.55-.43-.53-.88-1-1.34-1.51V1.25H224.12V36.87A20.5,20.5,0,0,0,220.77,40.18Z"/><path class="cls-10" d="M211.21,40.18c-5,6.13-8.23,16.18-8.23,27.55,0,11.14,3.12,21,7.94,27.18a21.14,21.14,0,0,0,3.65,3.67V172.4H101.75V96.77a22.91,22.91,0,0,0,1.64-1.86c4.81-6.16,7.94-16,7.94-27.18,0-11.37-3.25-21.42-8.24-27.55-.43-.53-.88-1-1.34-1.51V1.25H214.57V36.87A21,21,0,0,0,211.21,40.18Z"/><path class="cls-5" d="M211.21,40.18c-5,6.13-8.23,16.18-8.23,27.55,0,11.14,3.12,21,7.94,27.18a21.14,21.14,0,0,0,3.65,3.67V172.4H92.2V96.77a22.82,22.82,0,0,0,1.63-1.86c4.83-6.16,8-16,8-27.18,0-11.37-3.25-21.42-8.24-27.55-.43-.53-.88-1-1.34-1.51V1.25H214.57V36.87A21,21,0,0,0,211.21,40.18Z"/><path class="cls-11" d="M134.29,1.24h43a0,0,0,0,1,0,0V39.41A21.51,21.51,0,0,1,155.8,60.93h0a21.51,21.51,0,0,1-21.51-21.51V1.24A0,0,0,0,1,134.29,1.24Z"/><line class="cls-12" x1="155.4" y1="1.35" x2="155.4" y2="60.93"/><circle class="cls-13" cx="167.3" cy="26.78" r="4.36"/><line class="cls-14" x1="214.57" y1="36.87" x2="224.12" y2="36.87"/><line class="cls-14" x1="214.57" y1="98.58" x2="224.12" y2="98.58"/><ellipse class="cls-15" cx="120.74" cy="108.74" rx="14.8" ry="21.91"/><ellipse class="cls-15" cx="160.26" cy="107.58" rx="14.8" ry="21.91"/><ellipse class="cls-16" cx="153.07" cy="107.58" rx="7.61" ry="11.27"/><ellipse class="cls-16" cx="113.83" cy="107.58" rx="7.61" ry="11.27"/><path class="cls-17" d="M110.21,79.45s7.86-8.2,15.47,0"/><path class="cls-17" d="M153,79.45s7.86-8.2,15.46,0"/><path class="cls-18" d="M163.69,140.16a6.92,6.92,0,0,0-5.33-2.4H127a6.88,6.88,0,0,0-5.32,2.4,6,6,0,0,0-1.33,4.92,18,18,0,0,0,7.87,11.59,24.89,24.89,0,0,0,10.49,4,27.31,27.31,0,0,0,3.95.28,25.73,25.73,0,0,0,14.45-4.29,19.33,19.33,0,0,0,6.33-7,16.09,16.09,0,0,0,1.54-4.55A6.05,6.05,0,0,0,163.69,140.16Zm-3.17,4.12a11.2,11.2,0,0,1-.81,2.64c-2.43,5.52-9.13,9.48-17,9.48a22.09,22.09,0,0,1-3.48-.27c-7.47-1.14-13.28-5.9-14.34-11.85-.18-1,.83-2,2.16-2h31.32C159.69,142.32,160.71,143.25,160.52,144.28Z"/><path class="cls-16" d="M160.52,144.28a11.2,11.2,0,0,1-.81,2.64,14.5,14.5,0,0,0-20.49,9.21c-7.47-1.14-13.28-5.9-14.34-11.85-.18-1,.83-2,2.16-2h31.32C159.69,142.32,160.71,143.25,160.52,144.28Z"/><path class="cls-19" d="M159.71,146.92c-2.43,5.52-9.13,9.48-17,9.48a22.09,22.09,0,0,1-3.48-.27,14.5,14.5,0,0,1,20.49-9.21Z"/><circle class="cls-20" cx="111.05" cy="103.29" r="2.28"/><circle class="cls-20" cx="150.74" cy="103.29" r="2.28"/><line class="cls-14" x1="214.57" y1="172.4" x2="224.12" y2="172.4"/><path class="cls-21" d="M257.26,179.56q-7.53,1.49-15.12,2.59c-4.65-23.32-11.29-38.23-16.45-47a73.41,73.41,0,0,0-6.43-9.35l-.09-15.31,3-1.53A62.4,62.4,0,0,1,238,125.83a135.13,135.13,0,0,1,12.18,26.75A211.06,211.06,0,0,1,257.26,179.56Z"/><ellipse class="cls-22" cx="249.8" cy="180.21" rx="11.14" ry="7.1" transform="translate(-57.18 154.87) rotate(-31.09)"/><path class="cls-22" d="M259.85,177.46c5.71.66,8.21,2.12,12.55-1.29,5-3.92,10.68,3,4,8.18-5.28,4-9.5,3.53-9.5,3.53A72.07,72.07,0,0,1,275,198.76c5.56,9.83,3.32,13.08-.22,13.55-4.07.53-9.35-14.32-12-13.83s3.43,10.82,4.62,14.54c2,6.39-5,8.38-7.4,4.7s-3.95-16-5.63-14.42-.16,11.13-3.38,12.79-8.72-.06-7.13-6.71,3.63-8.61.94-12.24S240,175.18,259.85,177.46Z"/><path class="cls-23" d="M264,188s-7.5,6.55-14.26.54"/></g></g></svg>