<svg xmlns="http://www.w3.org/2000/svg" viewBox="0 0 203.37 388.58"><defs><style>.cls-1,.cls-31{fill:#e5e5e5;}.cls-1,.cls-10,.cls-12,.cls-13,.cls-16,.cls-17,.cls-19,.cls-2,.cls-21,.cls-22,.cls-23,.cls-24,.cls-25,.cls-26,.cls-27,.cls-28,.cls-29,.cls-3,.cls-30,.cls-31,.cls-32,.cls-33,.cls-34,.cls-5,.cls-6,.cls-7,.cls-9{stroke:#000;}.cls-1,.cls-10,.cls-12,.cls-13,.cls-17,.cls-19,.cls-2,.cls-20,.cls-21,.cls-22,.cls-23,.cls-24,.cls-25,.cls-26,.cls-27,.cls-28,.cls-29,.cls-3,.cls-31,.cls-32,.cls-33,.cls-34,.cls-5,.cls-9{stroke-miterlimit:10;}.cls-1,.cls-2,.cls-3{stroke-width:0.34px;}.cls-2,.cls-32{fill:#760dc9;}.cls-4{fill:#d7840b;}.cls-10,.cls-26,.cls-27,.cls-29,.cls-30,.cls-34,.cls-5,.cls-8,.cls-9{fill:#fff;}.cls-5{stroke-width:2.6px;}.cls-14,.cls-6,.cls-7{fill:#d88500;}.cls-10,.cls-16,.cls-22,.cls-30,.cls-6,.cls-7{stroke-linecap:round;}.cls-16,.cls-30,.cls-6,.cls-7{stroke-linejoin:round;}.cls-6{stroke-width:2.28px;}.cls-7{stroke-width:2.76px;}.cls-10,.cls-30,.cls-9{stroke-width:1.73px;}.cls-11{fill:#fbccac;}.cls-12{fill:#ff7bac;}.cls-12,.cls-13,.cls-21,.cls-22{stroke-width:3.2px;}.cls-13{fill:#ccc;}.cls-15{fill:#f9b233;}.cls-16{stroke-width:0.02px;}.cls-17{fill:#666;}.cls-17,.cls-27{stroke-width:1.6px;}.cls-18,.cls-19,.cls-20,.cls-21,.cls-22{fill:none;}.cls-19{stroke-width:2.4px;}.cls-20{stroke:#bf720c;stroke-width:1.28px;}.cls-23{fill:#abd6bd;stroke-width:0.61px;}.cls-24{fill:#ffd18f;stroke-width:1.2px;}.cls-25,.cls-26{stroke-width:0.06px;}.cls-28{stroke-width:0.2px;}.cls-29{stroke-width:1.66px;}.cls-31,.cls-32,.cls-33{stroke-width:0.34px;}.cls-34{stroke-width:2.39px;}</style></defs><title>la1</title><g id="Layer_2" data-name="Layer 2"><g id="Personaje"><path class="cls-1" d="M102,381.53a48.55,48.55,0,0,0,5.67-.62c.53-.09,9.43-1.56,12.58-1.56h.08c3.65,0,10.57,1.4,14.7,2.21l.54.11a14.42,14.42,0,0,0,2.76.27,13.69,13.69,0,0,0,12-6.92c1.11,4.1-.56,7.06-2.74,8.56-6,4.13-11,3.23-17.32,2.1a64.79,64.79,0,0,0-9-1.16,79.26,79.26,0,0,0-14,.8c-6.57.81-11.31,1.4-17.57-2.1-3.82-2.13-4.47-6.23-4.46-8.77C88.68,378.81,95,381.53,102,381.53Z"/><path class="cls-2" d="M102,354.34a23,23,0,0,1,9.52,2l.06,0s4.16,1.65,6.74,7.69a.87.87,0,0,0,1.16.46.89.89,0,0,0,.47-1.16,18.63,18.63,0,0,0-4.11-6.14,18.54,18.54,0,0,1,6.44-6.9,25.37,25.37,0,0,0,6.6,1.68H129a.88.88,0,0,0,.11-1.76,23,23,0,0,1-6.5-1.7l-.09,0c-3-1.32-4.8-3.19-4.8-5.16,0-3.86,6.9-7.12,15.07-7.12s15.07,3.26,15.07,7.12c0,2.11-2.09,4.11-5.49,5.45l-.11.05a22.74,22.74,0,0,1-4,1.12.9.9,0,0,0-.71,1,.89.89,0,0,0,1,.71,24.87,24.87,0,0,0,4-1.08,18.54,18.54,0,0,1,7,21.77l0,.11a12,12,0,0,1-13.61,7.44l-.54-.1c-4.46-.88-11.2-2.21-15-2.25-3.29,0-12.6,1.52-13,1.59h-.05c-1.42.31-5,.57-5.32.58-7.35,0-14-3.33-16.63-8.28a9.52,9.52,0,0,1-1.12-4.43C84.25,360,92.22,354.34,102,354.34Z"/><path class="cls-3" d="M102,352.57a24.78,24.78,0,0,1,10.23,2.13,10,10,0,0,1,2.23,1.32,20.36,20.36,0,0,1,6-6.62c-2.82-1.6-4.49-3.75-4.49-6.08,0-5,7.4-8.89,16.84-8.89s16.84,3.9,16.84,8.89c0,2.54-1.92,4.84-5.18,6.47a20.31,20.31,0,0,1,6.9,22.86c2.54,6,.12,10.39-2.78,12.39A17.66,17.66,0,0,1,138,388.4a45.74,45.74,0,0,1-8.1-1,64.21,64.21,0,0,0-8.73-1.13,77.23,77.23,0,0,0-13.74.79c-6.64.82-11.89,1.47-18.66-2.31a10.8,10.8,0,0,1-5.27-8.53,14.49,14.49,0,0,1,.11-4.26,11.18,11.18,0,0,1-1.16-4.93C82.48,359.06,91.24,352.57,102,352.57ZM89.67,383.22c6.26,3.5,11,2.91,17.57,2.1a79.26,79.26,0,0,1,14-.8,64.79,64.79,0,0,1,9,1.16c6.33,1.13,11.33,2,17.32-2.1,2.18-1.5,3.85-4.46,2.74-8.56a13.69,13.69,0,0,1-12,6.92,14.42,14.42,0,0,1-2.76-.27l-.54-.11c-4.13-.81-11-2.17-14.7-2.21h-.08c-3.15,0-12.05,1.47-12.58,1.56a48.55,48.55,0,0,1-5.67.62c-7,0-13.33-2.72-16.8-7.08C85.2,377,85.85,381.09,89.67,383.22Zm-4.3-11.74c2.59,4.95,9.28,8.28,16.63,8.28.27,0,3.9-.27,5.32-.58h.05c.39-.07,9.7-1.63,13-1.59,3.82,0,10.56,1.37,15,2.25l.54.1a12,12,0,0,0,13.61-7.44l0-.11a18.54,18.54,0,0,0-7-21.77,24.87,24.87,0,0,1-4,1.08.89.89,0,0,1-1-.71.9.9,0,0,1,.71-1,22.74,22.74,0,0,0,4-1.12l.11-.05c3.4-1.34,5.49-3.34,5.49-5.45,0-3.86-6.9-7.12-15.07-7.12s-15.07,3.26-15.07,7.12c0,2,1.84,3.84,4.8,5.16l.09,0a23,23,0,0,0,6.5,1.7A.88.88,0,0,1,129,352h-.11a25.37,25.37,0,0,1-6.6-1.68,18.54,18.54,0,0,0-6.44,6.9,18.63,18.63,0,0,1,4.11,6.14.89.89,0,0,1-.47,1.16.87.87,0,0,1-1.16-.46c-2.58-6-6.7-7.68-6.74-7.69l-.06,0a23,23,0,0,0-9.52-2c-9.79,0-17.76,5.7-17.76,12.71A9.52,9.52,0,0,0,85.37,371.48Z"/><path class="cls-4" d="M133.43,344.62a7,7,0,0,1-6.88-5.86c-5.48-33.71,9.69-68.58,10.34-70a7,7,0,0,1,6.39-4.17,7,7,0,0,1,6.38,9.81c-.14.32-14.11,32.69-9.32,62.16a7,7,0,0,1-5.78,8A7.08,7.08,0,0,1,133.43,344.62Z"/><path d="M143.28,265.85a5.62,5.62,0,0,1,2.29.49,5.69,5.69,0,0,1,2.91,7.5c-.23.51-14.28,33-9.43,62.89a5.68,5.68,0,0,1-11.22,1.82c-5.42-33.34,9.6-67.86,10.25-69.31a5.69,5.69,0,0,1,5.2-3.39m0-2.6h0a8.29,8.29,0,0,0-7.58,4.94c-.66,1.48-16,36.69-10.44,70.78a8.25,8.25,0,0,0,8.17,6.95,7.5,7.5,0,0,0,1.34-.11,8.28,8.28,0,0,0,6.85-9.5c-4.72-29.06,9.1-61.11,9.24-61.43a8.29,8.29,0,0,0-7.58-11.63Z"/><path class="cls-5" d="M126.59,327.71H139.2a1.24,1.24,0,0,1,1.24,1.24v8.44a7.54,7.54,0,0,1-7.54,7.54h0a7.54,7.54,0,0,1-7.54-7.54v-8.44a1.24,1.24,0,0,1,1.24-1.24Z" transform="translate(-20.35 8.77) rotate(-3.51)"/><path class="cls-4" d="M148.76,331.71a8.69,8.69,0,0,1-1.89-.21l-6.32-1.39a78,78,0,0,1-14.8-4.87l-2-.91A44.44,44.44,0,0,1,99,296.16l-.21-.75a34.15,34.15,0,0,1-1.27-10.75,102.71,102.71,0,0,1,3.94-22.75,7.69,7.69,0,0,1,8.38-5.61,7.59,7.59,0,0,1,6.46,9.15c-1.93,9-2.54,16.18-1.9,22.62l0,.18a27.37,27.37,0,0,0,20.11,22.17l16.25,4.31a8.89,8.89,0,0,1,6.32,6.17l0,.18a8.37,8.37,0,0,1-1.52,7.27,8.71,8.71,0,0,1-6.82,3.36Z"/><path d="M108.83,257.54a7.16,7.16,0,0,1,.8,0,6.29,6.29,0,0,1,5.35,7.59c-1.71,7.92-2.65,15.67-1.93,23a2.34,2.34,0,0,1,0,.26,28.7,28.7,0,0,0,21.06,23.23L150.41,316a7.54,7.54,0,0,1,5.39,5.26c0,.05,0,.1,0,.15a7.28,7.28,0,0,1-7.08,9,7.5,7.5,0,0,1-1.61-.18l-6.32-1.39a76.77,76.77,0,0,1-14.55-4.79l-2-.91a43.24,43.24,0,0,1-24-27.34l-.21-.74a33.16,33.16,0,0,1-1.22-10.34,102.85,102.85,0,0,1,3.89-22.46,6.42,6.42,0,0,1,6.17-4.72m0-2.6a9,9,0,0,0-8.67,6.63,103.25,103.25,0,0,0-4,23,35.52,35.52,0,0,0,1.3,11.16c.08.25.15.51.22.76a45.76,45.76,0,0,0,25.48,29l2,.91a79.65,79.65,0,0,0,15.05,4.95l6.32,1.39a9.92,9.92,0,0,0,10-3.62,9.69,9.69,0,0,0,1.75-8.39l-.05-.2a10.19,10.19,0,0,0-7.24-7.09l-16.25-4.31a26.07,26.07,0,0,1-19.16-21.11l0-.18c-.61-6.29,0-13.33,1.89-22.15A8.89,8.89,0,0,0,110,255a10.52,10.52,0,0,0-1.12-.07Z"/><path class="cls-6" d="M176.14,230.86c10.13-7.64,15.63-19.42,14.23-31.13a31,31,0,0,0-7.27-16.42,36.92,36.92,0,0,0-7.22-6.59c-11.24-7.82-26.64-8.48-40.2-1.71a7.16,7.16,0,1,0,6.4,12.82c8.87-4.43,18.68-4.18,25.61.65,2.81,2,7.65,6.24,8.45,13,.9,7.5-3.52,15.25-11.24,19.72a7.16,7.16,0,0,0,7.18,12.4A42.61,42.61,0,0,0,176.14,230.86Z"/><path class="cls-7" d="M17.73,181.94q.29-7.81,1.11-15.61c33.68,0,56.36-3.57,70.14-6.94,16.8-4.11,24-8.67,24.75-9.13l-.06.05,21,5A103.31,103.31,0,0,1,98,173.55a259.62,259.62,0,0,1-40.77,6.76C45,181.44,31.73,182,17.73,181.94Z"/><path class="cls-8" d="M28.47,179.72c-5.16,2.65-10.38,2.65-15.31-.45-2.46-17.51-2.84-34.08,3-47.79,6.24,9.18,12,18,12.88,23.58Z"/><path class="cls-9" d="M21.83,135.15A1.88,1.88,0,0,1,23,134h0a2.76,2.76,0,0,1,2.79.52,9.59,9.59,0,0,1,2.73,5.9l1.48,11,.52,4a22.74,22.74,0,0,1-1.18,10.63"/><path class="cls-10" d="M14.43,131.8h0a3.47,3.47,0,0,1,2.88-2.2h0A3.5,3.5,0,0,1,20.53,131h0a13.06,13.06,0,0,1,2.51,7.3l.12,3.74c.05,1.6.56,4.77.56,4.77l.48,2.65"/><path class="cls-10" d="M11.45,159.11c-.59-3.36-1.2-6.75-2-10.87a36.54,36.54,0,0,1-.66-6.92v-4a7.22,7.22,0,0,1,1.64-4.65l.21-.24a3.43,3.43,0,0,1,2.57-1.17h0A2.34,2.34,0,0,1,15.5,133l1.71,6.38a21.65,21.65,0,0,1,.61,3.07l.62,5a20,20,0,0,0,.77,3.51l.83,2.63"/><path class="cls-10" d="M15.46,165.4c-1.79-3.69-3.81-7.27-7.86-9.9a6.11,6.11,0,0,0-1.76-.81,3.94,3.94,0,0,0-3.2.37,3.9,3.9,0,0,0-1.72,4,11.13,11.13,0,0,0,3,6.37s3.81,4.16,4.68,9a9.11,9.11,0,0,0,1.66,3.81l.23.3A9.21,9.21,0,0,0,15,181.82l1.72.54a11.38,11.38,0,0,0,6.88,0h0"/><path class="cls-10" d="M25.22,167.7a10.63,10.63,0,0,1,1.92-4.25,5.26,5.26,0,0,1,4.17-2h.25a4.72,4.72,0,0,1,2.77.9h0a1.68,1.68,0,0,1,.1,2.67,8.35,8.35,0,0,0-3.07,6.87l.12,3.21a7.29,7.29,0,0,0,1.2,3.73l.51.72a2.69,2.69,0,0,1-.66,3.78h0a3,3,0,0,1-3.41,0h0a8.55,8.55,0,0,1-3.52-5.09l-.92-3.82"/><polygon class="cls-11" points="161.16 54.64 148.94 66.96 136.97 54.64 125.04 66.96 113.03 54.64 101.07 66.96 88.91 54.64 124.98 2.8 161.16 54.64"/><path class="cls-12" d="M159.92,252.66a31.25,31.25,0,0,1-6.45,12.41c-10.34,12-26.28,11.26-28.43,11.12-2.93,0-16.74-.24-27.17-11A35.51,35.51,0,0,1,90,252.66Z"/><path class="cls-13" d="M160.54,222.35q0,14-.07,27.92c-.14.7-.31,1.51-.55,2.39H90c-.4-1.09-.71-2.07-.94-2.91v-27.4Z"/><path class="cls-14" d="M161.16,54.64V76.18s-.49,97.45-.62,146.17H137V54.64l12,12.32Z"/><polygon class="cls-14" points="112.99 54.6 112.99 222.31 89.06 222.31 88.87 76.14 88.87 54.6 101.03 66.91 112.99 54.6"/><polygon class="cls-15" points="136.97 54.64 136.97 222.35 113.03 222.35 113.03 54.64 125.04 66.96 136.97 54.64"/><path class="cls-16" d="M117.07,14.72s7.29,6.88,15.47,0L125,2.8Z"/><line class="cls-17" x1="89.1" y1="227.93" x2="160.98" y2="227.93"/><line class="cls-17" x1="89.1" y1="247.38" x2="160.98" y2="247.38"/><line class="cls-18" x1="136.97" y1="54.64" x2="136.97" y2="54.55"/><line class="cls-19" x1="113.03" y1="222.36" x2="113.03" y2="222.35"/><line class="cls-19" x1="113.03" y1="54.64" x2="113.03" y2="54.63"/><line class="cls-20" x1="136.97" y1="54.55" x2="136.97" y2="222.35"/><line class="cls-20" x1="113.03" y1="54.73" x2="113.03" y2="222.35"/><path class="cls-21" d="M161.17,54.64,125,2.8,88.91,54.64V76.18l.19,146.17h71.44c.13-48.72.63-146.17.63-146.17Z"/><polyline class="cls-21" points="88.91 54.64 101.07 66.96 113.03 54.64 125.04 66.96 136.97 54.64 148.94 66.96 161.17 54.64"/><path class="cls-22" d="M80.75,94.44s7.87-8.21,15.49,0"/><path class="cls-22" d="M123.63,94.44s7.88-8.21,15.49,0"/><path class="cls-23" d="M109.78,161.19c0,.13,0,.27,0,.4,0-.13,0-.27,0-.4Z"/><path class="cls-24" d="M137.23,155.44a7.88,7.88,0,0,0-10.88-2,30.66,30.66,0,0,1-11,3.86,33.46,33.46,0,0,1-3.93.4c-.51,0-1,0-1.58,0s-1.11,0-1.64,0a33.45,33.45,0,0,1-3.92-.41,30.69,30.69,0,0,1-11-3.85,7.85,7.85,0,0,0-8.94,12.91c1,.73,10.56,7.1,25.47,7.1s24.43-6.37,25.47-7.09A7.88,7.88,0,0,0,137.23,155.44Zm-3.92,8.09c-.38.26-9.4,6.46-23.49,6.46s-23.11-6.2-23.49-6.46a4.4,4.4,0,0,1,5-7.23,32.17,32.17,0,0,0,10.86,4.13,37.54,37.54,0,0,0,7.56.76h0a38.29,38.29,0,0,0,7.55-.75,32.35,32.35,0,0,0,10.91-4.14,4.4,4.4,0,0,1,5,7.23Z"/><path class="cls-25" d="M133.31,163.53c-.38.26-9.4,6.46-23.49,6.46s-23.11-6.2-23.49-6.46a4.4,4.4,0,0,1,5-7.23,32.17,32.17,0,0,0,10.86,4.13,5.5,5.5,0,0,0-.12,1.16c0,2.64,1.72,4.78,3.85,4.78s3.84-2.14,3.84-4.78c0,2.64,1.72,4.78,3.85,4.78s3.84-2.14,3.84-4.78a6.15,6.15,0,0,0-.11-1.15,32.35,32.35,0,0,0,10.91-4.14,4.4,4.4,0,0,1,5,7.23Z"/><path class="cls-25" d="M109.81,161.19c0,.13,0,.27,0,.4,0-.13,0-.27,0-.4Z"/><path class="cls-26" d="M109.79,161.59c0,2.64-1.72,4.78-3.84,4.78s-3.85-2.14-3.85-4.78a5.5,5.5,0,0,1,.12-1.16,37.54,37.54,0,0,0,7.56.76C109.79,161.32,109.79,161.46,109.79,161.59Z"/><path class="cls-26" d="M117.48,161.59c0,2.64-1.72,4.78-3.84,4.78s-3.85-2.14-3.85-4.78c0-.13,0-.27,0-.4h0a38.29,38.29,0,0,0,7.55-.75A6.15,6.15,0,0,1,117.48,161.59Z"/><ellipse class="cls-27" cx="91.3" cy="123.77" rx="14.83" ry="21.95"/><ellipse class="cls-28" cx="84.37" cy="122.62" rx="7.63" ry="11.29"/><circle class="cls-8" cx="81.24" cy="118.48" r="2.92"/><ellipse class="cls-27" cx="130.88" cy="122.62" rx="14.83" ry="21.95"/><ellipse class="cls-28" cx="123.68" cy="122.62" rx="7.63" ry="11.29"/><circle class="cls-8" cx="120.76" cy="118.48" r="2.92"/><ellipse class="cls-29" cx="175.99" cy="245.98" rx="5.09" ry="2.97" transform="translate(-117.83 317.73) rotate(-68.14)"/><path class="cls-9" d="M156.64,225.56h0a3.55,3.55,0,0,1,3.21-3.54H160a20.07,20.07,0,0,1,18,7.8l.14.18a4.23,4.23,0,0,1-.26,5.3h0a2.79,2.79,0,0,1-2.72.87L165.61,234a14.75,14.75,0,0,1-7.13-3.95h0A6.33,6.33,0,0,1,156.64,225.56Z"/><path class="cls-30" d="M162.22,229.07h0a14.46,14.46,0,0,0-12.91,12.1,22.06,22.06,0,0,0-.16,5.21,29.14,29.14,0,0,0,.62,3.51,15.35,15.35,0,0,0,7.44,9.68h0a1.49,1.49,0,0,0,2.2-1.52l-.87-5.8"/><ellipse class="cls-8" cx="163.06" cy="243.48" rx="10.02" ry="12.88"/><path class="cls-30" d="M156.22,251.59a14,14,0,0,0,1.55,5.87,8.93,8.93,0,0,0,7.7,4.71,8.22,8.22,0,0,0,1.47-.11,4.48,4.48,0,0,0,3.68-3.64h0"/><path class="cls-30" d="M164.34,251.59a18.39,18.39,0,0,0,4.34,7.34,6.2,6.2,0,0,0,3.49,2.08,8.67,8.67,0,0,0,7.72-2.21c.2-.18.38-.37.56-.56a12.51,12.51,0,0,0,3-5.41l1.37-5.18a3.81,3.81,0,0,0-2-4.45l-.12-.06a2.57,2.57,0,0,0-3.18,1l-3.1,5.16a.31.31,0,0,1-.58-.21l.62-3.93A12.08,12.08,0,0,0,172,233.77c-.84-.64-1.7-1.28-2.54-1.93"/><path class="cls-31" d="M189.8,362.35a50.91,50.91,0,0,0,.38-5.7c0-.53.12-9.57.67-12.67,0,0,0-.06,0-.09.67-3.59,3.23-10.17,4.76-14.1l.2-.52a14.38,14.38,0,0,0,.75-2.67,13.71,13.71,0,0,0-4.73-13c4.23-.37,6.86,1.8,8,4.2,3,6.63,1.26,11.41-1,17.45a65,65,0,0,0-2.71,8.63,79.68,79.68,0,0,0-1.68,14c-.35,6.62-.6,11.4-5.15,17-2.77,3.39-6.93,3.31-9.43,2.86C184.78,375,188.56,369.29,189.8,362.35Z"/><path class="cls-32" d="M163,357.58a23,23,0,0,1,3.62-9l0-.05s2.36-3.82,8.76-5.3a.88.88,0,0,0,.67-1.06.89.89,0,0,0-1.07-.67,18.68,18.68,0,0,0-6.77,3,18.64,18.64,0,0,1-5.68-7.56,25.18,25.18,0,0,0,2.81-6.22l0-.11a.88.88,0,0,0-.62-1,.9.9,0,0,0-1.11.59,23.08,23.08,0,0,1-2.81,6.11l-.05.08c-1.83,2.69-4,4.17-5.94,3.83-3.8-.68-5.81-8.06-4.37-16.11s5.86-14.29,9.66-13.61c2.09.37,3.69,2.78,4.42,6.36a.59.59,0,0,0,0,.13,23,23,0,0,1,.41,4.16.89.89,0,1,0,1.77,0,25,25,0,0,0-.36-4.11A18.49,18.49,0,0,1,183,311.6a18.27,18.27,0,0,1,6.12,2.25l.1.06a12,12,0,0,1,4.95,14.72l-.2.51c-1.65,4.25-4.14,10.67-4.85,14.43-.61,3.24-.71,12.68-.71,13.08v.05a51.71,51.71,0,0,1-.36,5.35C186.76,369.3,182.3,375.31,177,377a9.52,9.52,0,0,1-4.57.32C165.49,376.09,161.27,367.24,163,357.58Z"/><path class="cls-33" d="M161.24,357.27a24.79,24.79,0,0,1,3.9-9.72,10.61,10.61,0,0,1,1.69-2,20.41,20.41,0,0,1-5.48-7c-2.07,2.5-4.48,3.77-6.79,3.36-4.91-.87-7.47-8.85-5.81-18.17s6.81-15.92,11.72-15c2.51.44,4.44,2.74,5.47,6.25a20.33,20.33,0,0,1,23.76-2.8c6.32-1.46,10.26,1.71,11.72,4.91a17.75,17.75,0,0,1,1.48,11,47.39,47.39,0,0,1-2.39,7.82,64.36,64.36,0,0,0-2.65,8.4A78.31,78.31,0,0,0,196.22,358c-.35,6.7-.63,12-5.55,18a10.83,10.83,0,0,1-9.33,3.7,14.89,14.89,0,0,1-4.18-.86,11.2,11.2,0,0,1-5.07.28C164.22,377.67,159.35,367.89,161.24,357.27Zm28.06,17.55c4.55-5.56,4.8-10.34,5.15-17a79.68,79.68,0,0,1,1.68-14,65,65,0,0,1,2.71-8.63c2.23-6,4-10.82,1-17.45-1.1-2.4-3.73-4.57-8-4.2a13.71,13.71,0,0,1,4.73,13,14.38,14.38,0,0,1-.75,2.67l-.2.52c-1.53,3.93-4.09,10.51-4.76,14.1,0,0,0,.06,0,.09-.55,3.1-.66,12.14-.67,12.67a50.91,50.91,0,0,1-.38,5.7c-1.24,6.94-5,12.67-9.93,15.33C182.37,378.13,186.53,378.21,189.3,374.82ZM177,377c5.33-1.69,9.79-7.7,11.08-14.95a51.71,51.71,0,0,0,.36-5.35v-.05c0-.4.1-9.84.71-13.08.71-3.76,3.2-10.18,4.85-14.43l.2-.51a12,12,0,0,0-4.95-14.72l-.1-.06A18.27,18.27,0,0,0,183,311.6,18.49,18.49,0,0,0,166.42,317a25,25,0,0,1,.36,4.11.89.89,0,1,1-1.77,0,23,23,0,0,0-.41-4.16.59.59,0,0,1,0-.13c-.73-3.58-2.33-6-4.42-6.36-3.8-.68-8.23,5.55-9.66,13.61s.57,15.43,4.37,16.11c1.95.34,4.11-1.14,5.94-3.83l.05-.08a23.08,23.08,0,0,0,2.81-6.11.9.9,0,0,1,1.11-.59.88.88,0,0,1,.62,1l0,.11a25.18,25.18,0,0,1-2.81,6.22,18.64,18.64,0,0,0,5.68,7.56,18.68,18.68,0,0,1,6.77-3,.89.89,0,0,1,1.07.67.88.88,0,0,1-.67,1.06c-6.4,1.48-8.74,5.26-8.76,5.3l0,.05a23,23,0,0,0-3.62,9c-1.72,9.66,2.5,18.51,9.41,19.74A9.52,9.52,0,0,0,177,377Z"/><path class="cls-34" d="M142.77,312.39H157.3a1.42,1.42,0,0,1,1.42,1.42v9.71a8.69,8.69,0,0,1-8.69,8.69h0a8.69,8.69,0,0,1-8.69-8.69v-9.71A1.42,1.42,0,0,1,142.77,312.39Z" transform="translate(-191.52 420.95) rotate(-81.15)"/></g></g></svg>