<svg xmlns="http://www.w3.org/2000/svg" viewBox="0 0 255.95 269.21"><defs><style>.cls-1,.cls-6{fill:#e5e5e5;}.cls-1,.cls-11,.cls-12,.cls-14,.cls-15,.cls-16,.cls-17,.cls-18,.cls-19,.cls-20,.cls-21,.cls-22,.cls-23,.cls-24,.cls-25,.cls-26,.cls-27,.cls-3,.cls-5,.cls-6,.cls-7,.cls-8,.cls-9{stroke:#000;}.cls-1,.cls-11,.cls-12,.cls-14,.cls-15,.cls-16,.cls-17,.cls-18,.cls-19,.cls-20,.cls-21,.cls-22,.cls-23,.cls-24,.cls-25,.cls-26,.cls-3,.cls-5,.cls-6,.cls-7,.cls-8,.cls-9{stroke-miterlimit:10;}.cls-1,.cls-3{stroke-width:0.29px;}.cls-2{fill:#bf4400;}.cls-4,.cls-9{fill:#003b49;}.cls-10,.cls-11,.cls-12,.cls-21,.cls-26,.cls-27,.cls-5,.cls-8{fill:#fff;}.cls-5{stroke-width:2.19px;}.cls-6,.cls-7{stroke-width:0.29px;}.cls-8{stroke-width:2.01px;}.cls-14,.cls-16,.cls-23,.cls-9{stroke-width:2.54px;}.cls-11,.cls-12,.cls-27{stroke-width:1.34px;}.cls-12,.cls-23,.cls-27{stroke-linecap:round;}.cls-13,.cls-15{fill:#00607a;}.cls-14,.cls-20,.cls-23{fill:none;}.cls-15,.cls-20{stroke-width:1.49px;}.cls-16{fill:#3291b2;}.cls-17,.cls-18,.cls-19{fill:#b3b3b3;}.cls-17{stroke-width:1.1px;}.cls-18{stroke-width:0.65px;}.cls-19{stroke-width:0.74px;}.cls-21{stroke-width:1.27px;}.cls-22{stroke-width:0.15px;}.cls-24{fill:#75c6d3;stroke-width:0.95px;}.cls-25{fill:#ea5e58;stroke-width:0.04px;}.cls-26{stroke-width:1.29px;}.cls-27{stroke-linejoin:round;}</style></defs><title>la1</title><g id="Layer_2" data-name="Layer 2"><g id="personaje"><path class="cls-1" d="M124.42,263.27a41.2,41.2,0,0,0,4.78-.52c.44-.07,8-1.31,10.6-1.31h.08c3.07,0,8.9,1.17,12.39,1.86l.45.09a12.35,12.35,0,0,0,2.33.23,11.56,11.56,0,0,0,10.09-5.84,6.36,6.36,0,0,1-2.32,7.22c-5,3.48-9.26,2.73-14.6,1.77a55.15,55.15,0,0,0-7.55-1,67.37,67.37,0,0,0-11.84.67c-5.54.69-9.54,1.19-14.82-1.76-3.21-1.8-3.76-5.26-3.76-7.4C113.18,261,118.49,263.27,124.42,263.27Z"/><path class="cls-2" d="M124.42,240.35a19.56,19.56,0,0,1,8,1.67l.05,0s3.51,1.4,5.68,6.48a.74.74,0,1,0,1.37-.58,15.68,15.68,0,0,0-3.46-5.18,15.69,15.69,0,0,1,5.42-5.82,21.3,21.3,0,0,0,5.57,1.42h.09a.73.73,0,0,0,.74-.65.75.75,0,0,0-.65-.84,19.31,19.31,0,0,1-5.48-1.43l-.07,0c-2.5-1.12-4-2.69-4-4.35,0-3.26,5.81-6,12.7-6s12.7,2.75,12.7,6c0,1.78-1.76,3.46-4.62,4.6l-.1,0a18.91,18.91,0,0,1-3.39.94.75.75,0,0,0-.59.88.74.74,0,0,0,.87.59,20.39,20.39,0,0,0,3.35-.91,15.64,15.64,0,0,1,5.93,18.36l0,.09A10.07,10.07,0,0,1,153,261.92l-.45-.09c-3.77-.74-9.45-1.86-12.67-1.89a102.08,102.08,0,0,0-10.95,1.34h0a43.2,43.2,0,0,1-4.49.49c-6.2,0-11.83-2.81-14-7a8.07,8.07,0,0,1-.94-3.74C109.45,245.15,116.16,240.35,124.42,240.35Z"/><path class="cls-3" d="M124.42,238.85a21.09,21.09,0,0,1,8.63,1.8,9,9,0,0,1,1.88,1.12,17.13,17.13,0,0,1,5-5.59c-2.37-1.34-3.78-3.15-3.78-5.12,0-4.21,6.24-7.5,14.2-7.5s14.2,3.29,14.2,7.5c0,2.14-1.62,4.08-4.37,5.45A17.15,17.15,0,0,1,166,255.79c2.14,5,.1,8.75-2.35,10.44a14.93,14.93,0,0,1-8.89,2.84,38.55,38.55,0,0,1-6.82-.83,53.43,53.43,0,0,0-7.36-.95A64.06,64.06,0,0,0,129,268c-5.6.69-10,1.24-15.73-1.95a9.11,9.11,0,0,1-4.44-7.19,12.7,12.7,0,0,1,.09-3.59,9.55,9.55,0,0,1-1-4.16C108,244.33,115.34,238.85,124.42,238.85ZM114,264.7c5.28,2.95,9.28,2.45,14.82,1.76a67.37,67.37,0,0,1,11.84-.67,55.15,55.15,0,0,1,7.55,1c5.34,1,9.55,1.71,14.6-1.77a6.36,6.36,0,0,0,2.32-7.22,11.56,11.56,0,0,1-10.09,5.84,12.35,12.35,0,0,1-2.33-.23l-.45-.09c-3.49-.69-9.32-1.84-12.39-1.86h-.08c-2.65,0-10.16,1.24-10.6,1.31a41.2,41.2,0,0,1-4.78.52c-5.93,0-11.24-2.29-14.17-6C110.25,259.44,110.8,262.9,114,264.7Zm-3.62-9.9c2.19,4.17,7.82,7,14,7a43.2,43.2,0,0,0,4.49-.49h0a102.08,102.08,0,0,1,10.95-1.34c3.22,0,8.9,1.15,12.67,1.89l.45.09a10.07,10.07,0,0,0,11.47-6.27l0-.09a15.64,15.64,0,0,0-5.93-18.36,20.39,20.39,0,0,1-3.35.91.74.74,0,0,1-.87-.59.75.75,0,0,1,.59-.88,18.91,18.91,0,0,0,3.39-.94l.1,0c2.86-1.14,4.62-2.82,4.62-4.6,0-3.26-5.81-6-12.7-6s-12.7,2.75-12.7,6c0,1.66,1.54,3.23,4,4.35l.07,0a19.31,19.31,0,0,0,5.48,1.43.75.75,0,0,1,.65.84.73.73,0,0,1-.74.65h-.09a21.3,21.3,0,0,1-5.57-1.42,15.69,15.69,0,0,0-5.42,5.82,15.68,15.68,0,0,1,3.46,5.18.74.74,0,1,1-1.37.58c-2.17-5.08-5.65-6.47-5.68-6.48l-.05,0a19.56,19.56,0,0,0-8-1.67c-8.26,0-15,4.8-15,10.71A8.07,8.07,0,0,0,110.39,254.8Z"/><path class="cls-4" d="M150.91,232.1a5.81,5.81,0,0,1-5.75-4.9c-4.61-28.38,8.17-57.78,8.71-59a5.84,5.84,0,0,1,10.68,4.71c-.12.27-11.91,27.57-7.87,52.43a5.85,5.85,0,0,1-4.83,6.7A6,6,0,0,1,150.91,232.1Z"/><path d="M159.21,165.75a4.79,4.79,0,0,1,4.38,6.73c-.19.44-12,27.85-7.94,53a4.8,4.8,0,0,1-4,5.5,5.12,5.12,0,0,1-.78.06,4.78,4.78,0,0,1-4.72-4c-4.57-28.11,8.1-57.21,8.64-58.43a4.79,4.79,0,0,1,4.38-2.86m0-2.08h0a6.87,6.87,0,0,0-6.29,4.09c-.55,1.25-13.46,30.91-8.79,59.61a6.85,6.85,0,0,0,6.78,5.78,6.89,6.89,0,0,0,6.8-8c-4-24.53,7.67-51.57,7.79-51.84a6.86,6.86,0,0,0-6.29-9.65Z"/><path class="cls-5" d="M145.14,217.9h10.63a1,1,0,0,1,1,1v7.11a6.36,6.36,0,0,1-6.36,6.36h0a6.36,6.36,0,0,1-6.36-6.36v-7.11a1,1,0,0,1,1-1Z" transform="translate(-13.51 9.64) rotate(-3.51)"/><path class="cls-4" d="M163.83,221.22a7.16,7.16,0,0,1-1.58-.18l-5.32-1.17a65.77,65.77,0,0,1-12.47-4.11l-1.72-.76a37.42,37.42,0,0,1-20.85-23.71l-.18-.64a28.55,28.55,0,0,1-1.06-9A86.39,86.39,0,0,1,124,162.44a6.46,6.46,0,0,1,6.2-4.74,7.16,7.16,0,0,1,.8.05,6.3,6.3,0,0,1,4.37,2.62,6.37,6.37,0,0,1,1,5c-1.63,7.58-2.14,13.65-1.6,19.08l0,.16a23.13,23.13,0,0,0,17,18.73l13.7,3.64a7.4,7.4,0,0,1,5.28,5.16l0,.14a7,7,0,0,1-1.27,6.1,7.29,7.29,0,0,1-5.71,2.81Z"/><path d="M130.17,158.74a5,5,0,0,1,.67,0h0a5.29,5.29,0,0,1,4.51,6.39c-1.43,6.68-2.23,13.21-1.62,19.4l0,.22a24.19,24.19,0,0,0,17.76,19.58l13.7,3.63a6.4,6.4,0,0,1,4.55,4.44l0,.13a6.14,6.14,0,0,1-6,7.6,6.34,6.34,0,0,1-1.35-.15l-5.33-1.18a63.89,63.89,0,0,1-12.27-4l-1.72-.76A36.49,36.49,0,0,1,122.89,191c-.06-.2-.12-.41-.17-.62a27.59,27.59,0,0,1-1-8.71A86.38,86.38,0,0,1,125,162.72a5.41,5.41,0,0,1,5.2-4m0-2.08a7.51,7.51,0,0,0-7.21,5.51,87.16,87.16,0,0,0-3.35,19.39,29.76,29.76,0,0,0,1.1,9.37l.18.65A38.47,38.47,0,0,0,142.31,216l1.72.77a67.38,67.38,0,0,0,12.67,4.17l5.33,1.17a8.24,8.24,0,0,0,8.34-3,8,8,0,0,0,1.45-7l0-.16a8.48,8.48,0,0,0-6-5.9l-13.71-3.63a22.1,22.1,0,0,1-16.23-17.89l0-.15c-.52-5.32,0-11.26,1.59-18.71a7.43,7.43,0,0,0-1.2-5.86,7.33,7.33,0,0,0-5.09-3,7.26,7.26,0,0,0-.93-.06Z"/><path class="cls-6" d="M198.43,247.1a42.77,42.77,0,0,0,.33-4.81c0-.44.1-8.06.56-10.68v-.07c.57-3,2.73-8.58,4-11.89l.17-.43a11.84,11.84,0,0,0,.63-2.25,11.56,11.56,0,0,0-4-11,6.36,6.36,0,0,1,6.71,3.55c2.55,5.59,1.07,9.61-.81,14.71a54.31,54.31,0,0,0-2.29,7.28,67.13,67.13,0,0,0-1.42,11.79c-.29,5.58-.5,9.61-4.34,14.3-2.34,2.85-5.84,2.78-7.95,2.4C194.2,257.79,197.39,253,198.43,247.1Z"/><path class="cls-2" d="M175.83,243.08a19.47,19.47,0,0,1,3-7.62l0,0s2-3.22,7.39-4.47a.74.74,0,0,0,.56-.9.75.75,0,0,0-.9-.56,15.84,15.84,0,0,0-5.71,2.51,15.62,15.62,0,0,1-4.78-6.37,21.7,21.7,0,0,0,2.37-5.24s0-.06,0-.09a.75.75,0,0,0-1.45-.35A19.85,19.85,0,0,1,174,225.1l0,.06c-1.54,2.27-3.36,3.52-5,3.23-3.21-.57-4.9-6.79-3.69-13.58s4.94-12.05,8.15-11.47c1.75.31,3.1,2.34,3.72,5.36a.43.43,0,0,0,0,.11,18.89,18.89,0,0,1,.34,3.5.75.75,0,1,0,1.5,0,20.6,20.6,0,0,0-.31-3.46,15.68,15.68,0,0,1,19.14-2.63l.09,0a10.12,10.12,0,0,1,4.17,12.42l-.17.43c-1.39,3.58-3.5,9-4.09,12.16a101.72,101.72,0,0,0-.6,11v0a45.12,45.12,0,0,1-.3,4.51c-1.09,6.11-4.85,11.18-9.35,12.6a8,8,0,0,1-3.85.28C177.94,258.69,174.38,251.22,175.83,243.08Z"/><path class="cls-7" d="M174.35,242.82a20.91,20.91,0,0,1,3.29-8.19,8.26,8.26,0,0,1,1.43-1.66,17.24,17.24,0,0,1-4.63-5.94c-1.74,2.11-3.77,3.18-5.71,2.83-4.15-.73-6.3-7.46-4.91-15.31s5.74-13.43,9.89-12.69c2.11.38,3.74,2.32,4.61,5.27a17.14,17.14,0,0,1,20-2.36c5.33-1.23,8.65,1.44,9.88,4.15a14.86,14.86,0,0,1,1.24,9.26,38.92,38.92,0,0,1-2,6.59,53.62,53.62,0,0,0-2.23,7.08,64.48,64.48,0,0,0-1.38,11.55c-.3,5.64-.54,10.1-4.68,15.16a9.1,9.1,0,0,1-7.87,3.12,12.19,12.19,0,0,1-3.53-.72,9.38,9.38,0,0,1-4.27.24C176.86,260,172.76,251.77,174.35,242.82ZM198,257.62c3.84-4.69,4.05-8.72,4.34-14.3a67.13,67.13,0,0,1,1.42-11.79,54.31,54.31,0,0,1,2.29-7.28c1.88-5.1,3.36-9.12.81-14.71a6.36,6.36,0,0,0-6.71-3.55,11.56,11.56,0,0,1,4,11,11.84,11.84,0,0,1-.63,2.25l-.17.43c-1.28,3.31-3.44,8.86-4,11.89v.07c-.46,2.62-.56,10.24-.56,10.68a42.77,42.77,0,0,1-.33,4.81c-1,5.85-4.23,10.69-8.37,12.92C192.17,260.4,195.67,260.47,198,257.62Zm-10.4,1.83c4.5-1.42,8.26-6.49,9.35-12.6a45.12,45.12,0,0,0,.3-4.51v0a101.72,101.72,0,0,1,.6-11c.59-3.17,2.7-8.58,4.09-12.16l.17-.43A10.12,10.12,0,0,0,198,206.26l-.09,0a15.68,15.68,0,0,0-19.14,2.63,20.6,20.6,0,0,1,.31,3.46.75.75,0,1,1-1.5,0,18.89,18.89,0,0,0-.34-3.5.43.43,0,0,1,0-.11c-.62-3-2-5-3.72-5.36-3.21-.58-6.94,4.68-8.15,11.47s.48,13,3.69,13.58c1.64.29,3.46-1,5-3.23l0-.06a19.85,19.85,0,0,0,2.37-5.15.75.75,0,0,1,1.45.35s0,.06,0,.09a21.7,21.7,0,0,1-2.37,5.24,15.62,15.62,0,0,0,4.78,6.37,15.84,15.84,0,0,1,5.71-2.51.75.75,0,0,1,.9.56.74.74,0,0,1-.56.9c-5.4,1.25-7.37,4.44-7.39,4.47l0,0a19.47,19.47,0,0,0-3,7.62c-1.45,8.14,2.11,15.61,7.93,16.65A8,8,0,0,0,187.61,259.45Z"/><path class="cls-8" d="M158.78,205H171a1.2,1.2,0,0,1,1.2,1.2v8.19a7.32,7.32,0,0,1-7.32,7.32h0a7.32,7.32,0,0,1-7.32-7.32v-8.19a1.2,1.2,0,0,1,1.2-1.2Z" transform="translate(-71.27 343.45) rotate(-81.15)"/><path class="cls-9" d="M13.72,134.78q.22-6,.87-12.09c26.07,0,43.63-2.76,54.3-5.37,13-3.18,18.61-6.71,19.16-7.07l0,0,16.27,3.85a80,80,0,0,1-28.41,14.15,202.28,202.28,0,0,1-31.56,5.23C34.81,134.39,24.57,134.81,13.72,134.78Z"/><path class="cls-10" d="M22,133.06a11.37,11.37,0,0,1-11.86-.35c-1.9-13.56-2.19-26.38,2.35-37,4.83,7.11,9.26,14,10,18.26Z"/><path class="cls-11" d="M16.9,98.56a1.47,1.47,0,0,1,.87-.87h0a2.13,2.13,0,0,1,2.16.4A7.4,7.4,0,0,1,22,102.66l1.15,8.52.4,3.11a17.71,17.71,0,0,1-.91,8.23"/><path class="cls-12" d="M11.17,96h0a2.72,2.72,0,0,1,2.23-1.71h0a2.72,2.72,0,0,1,2.49,1.11h0A10.16,10.16,0,0,1,17.84,101l.09,2.89c0,1.24.44,3.7.44,3.7l.37,2.05"/><path class="cls-12" d="M8.87,117.11c-.46-2.6-.93-5.23-1.54-8.42a28.38,28.38,0,0,1-.51-5.36v-3.1a5.59,5.59,0,0,1,1.27-3.6l.16-.19a2.66,2.66,0,0,1,2-.9h0A1.81,1.81,0,0,1,12,96.88l1.33,5a17.4,17.4,0,0,1,.46,2.37l.49,3.85a15,15,0,0,0,.59,2.72l.65,2"/><path class="cls-12" d="M12,122c-1.38-2.86-3-5.63-6.09-7.67a4.82,4.82,0,0,0-1.36-.63A3.07,3.07,0,0,0,2,114a3,3,0,0,0-1.33,3.08A8.7,8.7,0,0,0,3,122a16.21,16.21,0,0,1,3.62,7,7.15,7.15,0,0,0,1.29,3l.18.23a7.07,7.07,0,0,0,3.55,2.53l1.32.43a8.89,8.89,0,0,0,5.33,0h0"/><path class="cls-12" d="M19.52,123.76A8.4,8.4,0,0,1,21,120.47a4,4,0,0,1,3.23-1.57h.2a3.64,3.64,0,0,1,2.14.69h0a1.31,1.31,0,0,1,.08,2.07,6.45,6.45,0,0,0-1.41,1.58,6.37,6.37,0,0,0-1,3.73l.09,2.49a5.62,5.62,0,0,0,.93,2.89l.39.56a2.09,2.09,0,0,1-.51,2.93h0a2.32,2.32,0,0,1-2.63,0h0a6.67,6.67,0,0,1-2.73-4L19.11,129"/><path class="cls-9" d="M239.3,161.18c8.81-4.35,14.69-12.51,15.32-21.62A24,24,0,0,0,251.48,126a28.47,28.47,0,0,0-4.55-6c-7.41-7.58-19-10.31-30.32-7.12a5.54,5.54,0,1,0,3,10.67c7.38-2.08,14.81-.47,19.38,4.2,1.86,1.9,4.92,5.86,4.56,11.08-.41,5.83-4.88,11.08-11.41,13.37a5.55,5.55,0,1,0,3.67,10.47A31.5,31.5,0,0,0,239.3,161.18Z"/><rect class="cls-13" x="208.51" y="100.21" width="9.7" height="75.04"/><path class="cls-4" d="M218.22,100.21h-9.71a21.55,21.55,0,0,1-3.71-3.74c-4.9-6.25-8.08-16.3-8.08-27.63,0-11.55,3.31-21.77,8.37-28a21.22,21.22,0,0,1,3.42-3.36h9.71a21.17,21.17,0,0,0-3.41,3.36c-5.07,6.23-8.38,16.45-8.38,28,0,11.33,3.18,21.38,8.08,27.63A21.55,21.55,0,0,0,218.22,100.21Z"/><rect class="cls-13" x="208.51" y="1.27" width="9.7" height="36.2"/><path class="cls-14" d="M214.81,40.84c-5.07,6.23-8.38,16.45-8.38,28,0,11.33,3.18,21.37,8.08,27.63a21.2,21.2,0,0,0,3.71,3.74v75H93.83V98.37a24,24,0,0,0,1.66-1.9c4.9-6.26,8.08-16.3,8.08-27.63,0-11.55-3.31-21.77-8.38-28-.44-.54-.89-1.05-1.36-1.53v-38H218.22V37.48A20.77,20.77,0,0,0,214.81,40.84Z"/><path class="cls-15" d="M205.09,40.84c-5.06,6.23-8.37,16.45-8.37,28,0,11.33,3.18,21.38,8.08,27.63a21.55,21.55,0,0,0,3.71,3.74v75H93.83V98.37a24,24,0,0,0,1.66-1.9c4.89-6.25,8.08-16.3,8.08-27.63,0-11.55-3.31-21.77-8.38-28-.44-.54-.9-1.05-1.36-1.53v-38H208.51V37.48A21.22,21.22,0,0,0,205.09,40.84Z"/><path class="cls-16" d="M205.09,40.84c-5.06,6.23-8.37,16.45-8.37,28,0,11.33,3.18,21.38,8.08,27.63a21.55,21.55,0,0,0,3.71,3.74v75H84.12V98.37a24,24,0,0,0,1.66-1.9c4.9-6.25,8.08-16.3,8.08-27.63,0-11.55-3.31-21.77-8.38-28-.44-.54-.89-1.05-1.36-1.53v-38H208.51V37.48A21.22,21.22,0,0,0,205.09,40.84Z"/><path class="cls-17" d="M126.9,1.26h43.74a0,0,0,0,1,0,0v38.8a21.87,21.87,0,0,1-21.87,21.87h0A21.87,21.87,0,0,1,126.9,40.06V1.26A0,0,0,0,1,126.9,1.26Z"/><line class="cls-18" x1="148.36" y1="1.38" x2="148.36" y2="61.93"/><circle class="cls-19" cx="160.46" cy="27.22" r="4.43"/><line class="cls-20" x1="208.51" y1="37.48" x2="218.22" y2="37.48"/><line class="cls-20" x1="208.51" y1="100.21" x2="218.22" y2="100.21"/><ellipse class="cls-21" cx="110.86" cy="108.27" rx="15.05" ry="22.27"/><ellipse class="cls-21" cx="151.03" cy="107.09" rx="15.05" ry="22.27"/><ellipse class="cls-22" cx="143.73" cy="107.09" rx="7.74" ry="11.46"/><ellipse class="cls-22" cx="103.83" cy="107.09" rx="7.74" ry="11.46"/><path class="cls-23" d="M100.16,78.5s8-8.34,15.72,0"/><path class="cls-23" d="M143.68,78.5s8-8.34,15.72,0"/><path class="cls-24" d="M154.52,140.21a7,7,0,0,0-5.42-2.44H117.27a7,7,0,0,0-5.41,2.44,6.13,6.13,0,0,0-1.36,5,18.35,18.35,0,0,0,8,11.78,25.33,25.33,0,0,0,10.67,4.07,26.8,26.8,0,0,0,4,.29A26.07,26.07,0,0,0,147.87,157a19.58,19.58,0,0,0,6.43-7.15,16,16,0,0,0,1.57-4.63A6.12,6.12,0,0,0,154.52,140.21Zm-3.22,4.19a11.53,11.53,0,0,1-.82,2.68c-2.47,5.61-9.28,9.63-17.29,9.63a24.18,24.18,0,0,1-3.54-.26c-7.59-1.17-13.5-6-14.58-12-.19-1.05.84-2,2.2-2H149.1C150.46,142.41,151.49,143.35,151.3,144.4Z"/><path class="cls-22" d="M151.3,144.4a11.53,11.53,0,0,1-.82,2.68,14.75,14.75,0,0,0-20.83,9.37c-7.59-1.17-13.5-6-14.58-12-.19-1.05.84-2,2.2-2H149.1C150.46,142.41,151.49,143.35,151.3,144.4Z"/><path class="cls-25" d="M150.48,147.08c-2.47,5.61-9.28,9.63-17.29,9.63a24.18,24.18,0,0,1-3.54-.26,14.75,14.75,0,0,1,20.83-9.37Z"/><circle class="cls-10" cx="101.02" cy="102.73" r="2.32"/><circle class="cls-10" cx="141.36" cy="102.73" r="2.32"/><ellipse class="cls-26" cx="236.99" cy="172.66" rx="3.94" ry="2.3" transform="matrix(0.54, -0.84, 0.84, 0.54, -36.21, 279.13)"/><path class="cls-11" d="M225.23,154.32h0a2.76,2.76,0,0,1,3-2.22h.09a15.51,15.51,0,0,1,12.56,8.53c0,.06.06.11.08.16a3.29,3.29,0,0,1-1,4h0a2.18,2.18,0,0,1-2.2.27l-6.92-3a11.41,11.41,0,0,1-4.85-4h0A4.88,4.88,0,0,1,225.23,154.32Z"/><path class="cls-27" d="M229,157.8h0a11.2,11.2,0,0,0-11.56,7.34,17.79,17.79,0,0,0-.88,3.93,25.63,25.63,0,0,0,0,2.76,11.84,11.84,0,0,0,4.26,8.44h0a1.15,1.15,0,0,0,1.89-.83l.18-4.54"/><ellipse class="cls-10" cx="227.52" cy="168.88" rx="9.97" ry="7.76" transform="translate(19.08 360.82) rotate(-79.23)"/><path class="cls-27" d="M221.15,174.06a11,11,0,0,0,.32,4.69,6.82,6.82,0,0,0,6.31,4.83,3.47,3.47,0,0,0,3.33-2.24h0"/><path class="cls-27" d="M227.33,175.24a14,14,0,0,0,2.23,6.21,4.83,4.83,0,0,0,2.35,2.09,6.71,6.71,0,0,0,6.19-.57c.18-.11.35-.22.51-.34a9.46,9.46,0,0,0,3-3.69l1.8-3.74a3,3,0,0,0-.86-3.67l-.09-.06a2,2,0,0,0-2.56.33l-3.11,3.47a.24.24,0,0,1-.41-.24l1-2.9a9.35,9.35,0,0,0-1.76-9.34L234,161"/></g></g></svg>