<svg xmlns="http://www.w3.org/2000/svg" viewBox="0 0 222.49 281.93"><defs><style>.cls-1,.cls-20{fill:#c08d54;}.cls-1,.cls-11,.cls-12,.cls-13,.cls-14,.cls-15,.cls-16,.cls-17,.cls-23,.cls-24,.cls-25,.cls-26,.cls-27,.cls-28,.cls-29,.cls-30,.cls-31,.cls-32,.cls-33,.cls-34,.cls-6,.cls-7,.cls-8,.cls-9{stroke:#000;}.cls-1,.cls-11,.cls-12,.cls-13,.cls-14,.cls-15,.cls-16,.cls-17,.cls-24,.cls-25,.cls-26,.cls-27,.cls-28,.cls-29,.cls-30,.cls-31,.cls-32,.cls-33,.cls-34,.cls-6,.cls-7,.cls-8,.cls-9{stroke-miterlimit:10;}.cls-1{stroke-width:1.28px;}.cls-2,.cls-23,.cls-30,.cls-6,.cls-8{fill:#fff;}.cls-3{fill:#ef6825;}.cls-4{fill:#bf4400;}.cls-5,.cls-7{fill:#003b49;}.cls-6{stroke-width:1.3px;}.cls-11,.cls-13,.cls-7{stroke-width:1.88px;}.cls-8,.cls-9{stroke-width:0.74px;}.cls-11,.cls-17,.cls-22,.cls-32,.cls-9{fill:none;}.cls-22,.cls-23,.cls-32,.cls-9{stroke-linecap:round;}.cls-10,.cls-12{fill:#00607a;}.cls-12,.cls-17{stroke-width:1.1px;}.cls-13{fill:#3291b2;}.cls-14,.cls-15,.cls-16{fill:#b3b3b3;}.cls-14{stroke-width:0.81px;}.cls-15{stroke-width:0.48px;}.cls-16{stroke-width:0.55px;}.cls-18{fill:#747e7f;}.cls-19{fill:#9ba7a7;}.cls-21{fill:#996e43;}.cls-22{stroke:#4d4d4d;stroke-width:0.39px;stroke-dasharray:1.28;}.cls-22,.cls-23{stroke-linejoin:round;}.cls-23{stroke-width:0.44px;}.cls-24{fill:#ffd396;stroke-width:0.19px;}.cls-25{stroke-width:0.17px;}.cls-26{fill:#fbca2c;}.cls-26,.cls-27,.cls-28,.cls-29{stroke-width:0.18px;}.cls-27{fill:#f4b21c;}.cls-28{fill:#cac3b9;}.cls-29{fill:#fc5465;}.cls-30{stroke-width:0.94px;}.cls-31{stroke-width:0.16px;}.cls-32{stroke-width:2.47px;}.cls-33{fill:#75c6d3;stroke-width:0.71px;}.cls-34{stroke-width:0.08px;}</style></defs><title>la2</title><g id="Layer_2" data-name="Layer 2"><g id="personaje"><rect class="cls-1" x="43.52" y="79.1" width="127.81" height="41.5" rx="3.57"/><path class="cls-2" d="M103.1,251.93c-2.41,2.86-7.28,4.49-13.35,4.49-6.53,0-11.82-1.74-14.14-4.67a5.71,5.71,0,0,1-.84-1.41,3.42,3.42,0,0,0-.49,1.71c0,3.83,7.08,7.07,15.47,7.07s15.47-3.24,15.47-7.07a3.7,3.7,0,0,0-.87-2.27A6.64,6.64,0,0,1,103.1,251.93Z"/><path class="cls-3" d="M89.75,254.9c5.54,0,10.1-1.48,12.19-4a4.88,4.88,0,0,0,1.17-4.11c-.79-4.73-5.74-9.76-13.36-9.76-7.36,0-12.25,3.6-13.78,10.14a4.06,4.06,0,0,0,.83,3.58C78.8,253.33,83.77,254.9,89.75,254.9Z"/><path class="cls-4" d="M100.29,239.31a20,20,0,0,0-3.91-9.21,16.46,16.46,0,0,1-2.36.66.7.7,0,0,1-.82-.55.69.69,0,0,1,.55-.81,12.81,12.81,0,0,0,2.38-.7h0a.71.71,0,0,1,.45-.18c1.67-.78,2.71-1.83,2.71-2.9,0-2-3.61-4.12-9-4.12s-9,2.13-9,4.12c0,1,.83,1.92,2.19,2.64a.77.77,0,0,1,.44.2l0,0a14.91,14.91,0,0,0,5.54,1.22.69.69,0,0,1,0,1.38h0a16.35,16.35,0,0,1-5.8-1.23,19.23,19.23,0,0,0-4,8.68,16.49,16.49,0,0,1,10-3A15.91,15.91,0,0,1,100.29,239.31Z"/><path d="M104.7,248a7.06,7.06,0,0,0-.09-1.37A12,12,0,0,0,102,241.1a22.73,22.73,0,0,0-4.26-11.64c1.83-1,2.9-2.36,2.9-3.85,0-3.09-4.55-5.5-10.36-5.5S80,222.52,80,225.61a4.36,4.36,0,0,0,2.38,3.53,21.72,21.72,0,0,0-4.4,11,14.74,14.74,0,0,0-3.45,6.73,6.06,6.06,0,0,0-.15,1.57,5.31,5.31,0,0,0-1.54,3.61c0,4.8,7.44,8.55,17,8.55s17-3.75,17-8.55A5.66,5.66,0,0,0,104.7,248Zm-21-18.1a16.35,16.35,0,0,0,5.8,1.23h0a.69.69,0,0,0,0-1.38A14.91,14.91,0,0,1,84,228.49l0,0a.77.77,0,0,0-.44-.2c-1.36-.72-2.19-1.66-2.19-2.64,0-2,3.61-4.12,9-4.12s9,2.13,9,4.12c0,1.07-1,2.12-2.71,2.9a.71.71,0,0,0-.45.18h0a12.81,12.81,0,0,1-2.38.7.69.69,0,0,0-.55.81.7.7,0,0,0,.82.55,16.46,16.46,0,0,0,2.36-.66,20,20,0,0,1,3.91,9.21,15.91,15.91,0,0,0-10.54-3.75,16.49,16.49,0,0,0-10,3A19.23,19.23,0,0,1,83.69,229.86ZM76,247.22c1.53-6.54,6.42-10.14,13.78-10.14,7.62,0,12.57,5,13.36,9.76a4.88,4.88,0,0,1-1.17,4.11c-2.09,2.47-6.65,4-12.19,4-6,0-11-1.57-13-4.1A4.06,4.06,0,0,1,76,247.22Zm13.78,11.9c-8.39,0-15.47-3.24-15.47-7.07a3.42,3.42,0,0,1,.49-1.71,5.71,5.71,0,0,0,.84,1.41c2.32,2.93,7.61,4.67,14.14,4.67,6.07,0,10.94-1.63,13.35-4.49a6.64,6.64,0,0,0,1.25-2.15,3.7,3.7,0,0,1,.87,2.27C105.22,255.88,98.13,259.12,89.75,259.12Z"/><path class="cls-5" d="M90.24,226.94a4.34,4.34,0,0,1-4.3-3.66c-3.45-21.22,6.11-43.23,6.52-44.16a4.36,4.36,0,0,1,4-2.6,4.29,4.29,0,0,1,1.76.38,4.35,4.35,0,0,1,2.22,5.75c-.08.2-8.92,20.57-5.89,39.23a4.34,4.34,0,0,1-3.6,5A4.23,4.23,0,0,1,90.24,226.94Z"/><path d="M96.45,177.3a3.73,3.73,0,0,1,1.45.3,3.59,3.59,0,0,1,1.83,4.73c-.14.33-9,20.84-6,39.68a3.58,3.58,0,0,1-3,4.11,3.9,3.9,0,0,1-.58,0,3.59,3.59,0,0,1-3.54-3c-3.41-21,6.06-42.81,6.47-43.73a3.57,3.57,0,0,1,3.28-2.13m0-1.55h0a5.13,5.13,0,0,0-4.69,3.06c-.42.93-10.07,23.12-6.58,44.59a5.11,5.11,0,0,0,5.06,4.31,4.73,4.73,0,0,0,.83-.07,5.12,5.12,0,0,0,4.24-5.88c-3-18.37,5.74-38.6,5.83-38.81a5.13,5.13,0,0,0-4.69-7.2Z"/><path class="cls-6" d="M85.83,216.32H94a.69.69,0,0,1,.69.69v5.94a4.23,4.23,0,0,1-4.23,4.23H89.37a4.23,4.23,0,0,1-4.23-4.23V217a.69.69,0,0,1,.69-.69Z" transform="translate(-13.41 5.92) rotate(-3.51)"/><path class="cls-2" d="M140.81,251.89c-2.43,2.87-7.32,4.51-13.42,4.51-6.56,0-11.88-1.75-14.21-4.7a5.88,5.88,0,0,1-.85-1.41,3.45,3.45,0,0,0-.48,1.72c0,3.85,7.11,7.1,15.54,7.1s15.55-3.25,15.55-7.1a3.82,3.82,0,0,0-.87-2.29A6.83,6.83,0,0,1,140.81,251.89Z"/><path class="cls-3" d="M127.39,254.87c5.57,0,10.15-1.48,12.26-4a4.92,4.92,0,0,0,1.17-4.13C140,242,135.05,237,127.39,237c-7.39,0-12.31,3.62-13.84,10.19a4,4,0,0,0,.83,3.6C116.39,253.3,121.38,254.87,127.39,254.87Z"/><path class="cls-4" d="M138,239.2a20.09,20.09,0,0,0-3.94-9.26,15.06,15.06,0,0,1-2.37.67.69.69,0,0,1-.82-.55.7.7,0,0,1,.55-.82,12.7,12.7,0,0,0,2.39-.7h0a.7.7,0,0,1,.44-.19c1.69-.77,2.73-1.83,2.73-2.91,0-2-3.63-4.13-9-4.13s-9,2.14-9,4.13c0,1,.84,1.93,2.2,2.66a.77.77,0,0,1,.44.2l0,0a14.88,14.88,0,0,0,5.57,1.22.71.71,0,0,1,.67.73.7.7,0,0,1-.7.66h0a16.3,16.3,0,0,1-5.83-1.24,19.49,19.49,0,0,0-4,8.73,16.58,16.58,0,0,1,10.08-3A16,16,0,0,1,138,239.2Z"/><path d="M142.41,247.9a6.41,6.41,0,0,0-.09-1.38,12,12,0,0,0-2.58-5.52,22.87,22.87,0,0,0-4.28-11.7c1.84-1,2.92-2.37,2.92-3.87,0-3.1-4.57-5.52-10.41-5.52s-10.42,2.42-10.42,5.52a4.42,4.42,0,0,0,2.39,3.56,21.8,21.8,0,0,0-4.42,11,14.72,14.72,0,0,0-3.46,6.76,6.09,6.09,0,0,0-.15,1.58,5.35,5.35,0,0,0-1.56,3.63c0,4.82,7.49,8.59,17,8.59s17-3.77,17-8.59A5.67,5.67,0,0,0,142.41,247.9ZM121.3,229.7a16.3,16.3,0,0,0,5.83,1.24h0a.7.7,0,0,0,.7-.66.71.71,0,0,0-.67-.73,14.88,14.88,0,0,1-5.57-1.22l0,0a.77.77,0,0,0-.44-.2c-1.36-.73-2.2-1.67-2.2-2.66,0-2,3.63-4.13,9-4.13s9,2.14,9,4.13c0,1.08-1,2.14-2.73,2.91a.7.7,0,0,0-.44.19h0a12.7,12.7,0,0,1-2.39.7.7.7,0,0,0-.55.82.69.69,0,0,0,.82.55,15.06,15.06,0,0,0,2.37-.67A20.09,20.09,0,0,1,138,239.2a16,16,0,0,0-10.6-3.76,16.58,16.58,0,0,0-10.08,3A19.49,19.49,0,0,1,121.3,229.7Zm-7.75,17.45C115.08,240.58,120,237,127.39,237c7.66,0,12.64,5.06,13.43,9.81a4.92,4.92,0,0,1-1.17,4.13c-2.11,2.49-6.69,4-12.26,4-6,0-11-1.57-13-4.12A4,4,0,0,1,113.55,247.15Zm13.84,12c-8.43,0-15.54-3.25-15.54-7.1a3.45,3.45,0,0,1,.48-1.72,5.88,5.88,0,0,0,.85,1.41c2.33,3,7.65,4.7,14.21,4.7,6.1,0,11-1.64,13.42-4.51a6.83,6.83,0,0,0,1.26-2.17,3.82,3.82,0,0,1,.87,2.29C142.94,255.86,135.82,259.11,127.39,259.11Z"/><path class="cls-5" d="M127.11,226.94a4.38,4.38,0,0,1-4.31-5.06c3-18.57-5.8-39-5.89-39.24a4.36,4.36,0,0,1,2.23-5.74,4.29,4.29,0,0,1,1.76-.38,4.35,4.35,0,0,1,4,2.6c.41.93,10,22.9,6.52,44.16A4.33,4.33,0,0,1,127.11,226.94Z"/><path d="M120.9,177.3a3.58,3.58,0,0,1,3.28,2.13c.4.92,9.88,22.69,6.46,43.73a3.58,3.58,0,0,1-3.53,3,3.79,3.79,0,0,1-.58,0,3.58,3.58,0,0,1-3-4.11c3.06-18.84-5.8-39.35-5.94-39.68a3.59,3.59,0,0,1,1.83-4.73,3.69,3.69,0,0,1,1.45-.3m0-1.55a5.13,5.13,0,0,0-4.69,7.21c.08.2,8.81,20.43,5.83,38.8a5.12,5.12,0,0,0,4.24,5.88,4.57,4.57,0,0,0,.83.07,5.12,5.12,0,0,0,5.06-4.31c3.49-21.47-6.17-43.66-6.58-44.59a5.13,5.13,0,0,0-4.69-3.06Z"/><path class="cls-6" d="M126.92,216.32H128a4.23,4.23,0,0,1,4.23,4.23v5.94a.69.69,0,0,1-.69.69h-8.13a.69.69,0,0,1-.69-.69v-5.94a4.23,4.23,0,0,1,4.23-4.23Z" transform="translate(241.08 450.88) rotate(-176.49)"/><path class="cls-7" d="M159.9,87.08l.7,9.52c.69,0,7-.6,15.63-4.87A64.17,64.17,0,0,0,190.47,82a78.42,78.42,0,0,0,12.79-14.87l-8-5.55c-6.39,9.67-14.12,16.86-23,21.39A37.86,37.86,0,0,1,159.9,87.08Z"/><path class="cls-8" d="M196.6,57.19s-3.59,2.12-1.41,6.72c2.52,5.33,11.58,5.94,11.66-.53Z"/><path class="cls-8" d="M196,57.26c.25-4-4.95-6.45-5.83-9.33-1-3.31,2.89-7.88,8.34,1,0,0,2-5.12.93-9.34-1.22-4.77,2.91-6.67,4.92-4.57,1.83,1.92,1.73,8.19.54,11.56a.78.78,0,0,0,.63,1l.18,0a.78.78,0,0,0,.84-.51,56.13,56.13,0,0,0,2.37-8.42c.51-3.89,7.5-2.93,6.9,2.24-.48,4.08-3.35,7.27-4.55,8.43a.77.77,0,0,0-.05,1.05h0a.77.77,0,0,0,1,.13,70.9,70.9,0,0,0,6.3-4.87c2.41-2.21,8.3,4.88-3.8,10,0,0-1.46,8.7-9.6,8.48C195.84,63.89,196,57.26,196,57.26Z"/><path class="cls-9" d="M199.86,51.05s5.87,1.2,3.67,7.11"/><rect class="cls-10" x="156.42" y="74.22" width="7.19" height="55.58"/><path class="cls-5" d="M163.61,74.22h-7.19a15.69,15.69,0,0,1-2.75-2.77c-3.63-4.63-6-12.07-6-20.46,0-8.56,2.45-16.13,6.2-20.74a16,16,0,0,1,2.53-2.49h7.19a16,16,0,0,0-2.53,2.49c-3.75,4.61-6.2,12.18-6.2,20.74,0,8.39,2.35,15.83,6,20.46A15.31,15.31,0,0,0,163.61,74.22Z"/><rect class="cls-10" x="156.42" y="0.94" width="7.19" height="26.81"/><path class="cls-11" d="M161.08,30.25c-3.75,4.61-6.2,12.18-6.2,20.74,0,8.39,2.35,15.83,6,20.46a15.36,15.36,0,0,0,2.75,2.77V129.8H71.48V72.86a17.25,17.25,0,0,0,1.23-1.41c3.63-4.63,6-12.07,6-20.46,0-8.56-2.45-16.13-6.2-20.74-.33-.4-.66-.78-1-1.13V.94h92.13V27.76A16,16,0,0,0,161.08,30.25Z"/><path class="cls-12" d="M153.89,30.25c-3.75,4.61-6.2,12.18-6.2,20.74,0,8.39,2.35,15.83,6,20.46a15.69,15.69,0,0,0,2.75,2.77V129.8H71.48V72.86a17.25,17.25,0,0,0,1.23-1.41c3.63-4.63,6-12.07,6-20.46,0-8.56-2.45-16.13-6.2-20.74-.33-.4-.67-.78-1-1.13V.94h84.94V27.76A16,16,0,0,0,153.89,30.25Z"/><path class="cls-13" d="M153.89,30.25c-3.75,4.61-6.2,12.18-6.2,20.74,0,8.39,2.35,15.83,6,20.46a15.69,15.69,0,0,0,2.75,2.77V129.8H64.29V72.86a17.25,17.25,0,0,0,1.23-1.41c3.63-4.63,6-12.07,6-20.46,0-8.56-2.45-16.13-6.2-20.74-.33-.4-.66-.78-1-1.13V.94h92.13V27.76A16,16,0,0,0,153.89,30.25Z"/><path class="cls-14" d="M96,.93h32.4a0,0,0,0,1,0,0V29.67a16.2,16.2,0,0,1-16.2,16.2h0A16.2,16.2,0,0,1,96,29.67V.93A0,0,0,0,1,96,.93Z"/><line class="cls-15" x1="111.87" y1="1.02" x2="111.87" y2="45.87"/><circle class="cls-16" cx="120.83" cy="20.16" r="3.28"/><line class="cls-17" x1="156.42" y1="27.76" x2="163.61" y2="27.76"/><line class="cls-17" x1="156.42" y1="74.22" x2="163.61" y2="74.22"/><path class="cls-18" d="M180.18,221.88a6.6,6.6,0,0,0,6,.23l4.21-30.53a26.45,26.45,0,0,0-5.88-1.84Z"/><path class="cls-18" d="M26.73,189.19a20.59,20.59,0,0,1-8.32-1.69c-5.71,3.14-9,7.66-9,12.46v73.7a8.3,8.3,0,0,0,7.8-.36V201.93c0-5.87,5.91-10.87,14.15-12.74Z"/><path class="cls-18" d="M190.5,189.19h-4.59c8.23,1.87,14.14,6.87,14.14,12.74V273.1a8.33,8.33,0,0,0,7.8.18V200c0-4.81-3.28-9.34-9-12.47A20.49,20.49,0,0,1,190.5,189.19Z"/><path class="cls-18" d="M29,190.73l4.11,31.54a6.64,6.64,0,0,0,6.74-.33l-4.25-32.61A28.18,28.18,0,0,0,29,190.73Z"/><path class="cls-19" d="M14.12,182.45c1.65,3.51,6.84,6,12.61,6H190.5c5.77,0,10.95-2.45,12.61-6l3.92-8.31H10.2Z"/><path class="cls-20" d="M196.8,124.42c-.91-1.83-3.55-3.06-6.58-3.06H26.89c-3,0-5.66,1.23-6.57,3.06L1.56,162.24a3,3,0,0,0-.29.88v.9a3.71,3.71,0,0,0,1.3,2.12,8.63,8.63,0,0,0,5.56,1.78H209a8.58,8.58,0,0,0,5.55-1.78,3.69,3.69,0,0,0,1.28-2V163h0a3,3,0,0,0-.26-.74Z"/><path class="cls-21" d="M209,168.71H8.13a9.84,9.84,0,0,1-6.86-2.39v2.93c0,2.26,2.9,4.1,6.47,4.1H209.35c3.57,0,6.47-1.84,6.47-4.1v-2.9A9.85,9.85,0,0,1,209,168.71Z"/><path d="M198,124.18c-1.07-2.15-4.21-3.61-7.76-3.61H26.89c-3.54,0-6.68,1.46-7.75,3.61L.38,162a3.54,3.54,0,0,0-.33,1H0v.11A3.7,3.7,0,0,0,0,164v5.22c0,2.69,3.46,4.89,7.71,4.89H8.91l4,8.54A10.14,10.14,0,0,0,17.42,187c-5.88,3.28-9.24,8-9.24,13v73c-.38-.14-.91,0-.91.34V279a2.09,2.09,0,0,0,1.19,1.74,9.9,9.9,0,0,0,9.23.12,2.24,2.24,0,0,0,1.58-2.1l-.53-5.48a.39.39,0,0,0-.28-.3v-71c0-4.52,3.73-8.5,9.34-10.76l4,30.77a.33.33,0,0,0-.21.27l-.28,5.57a2.37,2.37,0,0,0,1.1,2.06,8.15,8.15,0,0,0,9.49-.2,2.22,2.22,0,0,0,1-2.56l-1.72-5.31a.36.36,0,0,0-.2-.2l-4.21-32.33c.56,0,1.13-.05,1.71-.05H178.76a31.17,31.17,0,0,1,4.59.34L179,221.2c-.26,0-.56.07-.63.27l-1.71,5.31a2.21,2.21,0,0,0,1,2.56,8.13,8.13,0,0,0,9.49.2,2.36,2.36,0,0,0,1.1-2.06l-.27-5.57c0-.19-.24-.32-.49-.34l4.06-29.42c4.41,2.34,7.22,5.85,7.22,9.78v70.68c-.24,0-.45.16-.46.35l-.53,5.48a2.24,2.24,0,0,0,1.58,2.1,9.9,9.9,0,0,0,9.23-.12,2.1,2.1,0,0,0,1.18-1.74v-5.63c0-.26-.38-.43-.73-.38V200c0-5-3.37-9.68-9.26-13a10.09,10.09,0,0,0,4.46-4.32l4-8.54h1c4.25,0,7.71-2.2,7.71-4.89V164.2a3.38,3.38,0,0,0-.32-2.2ZM17.22,201.93V273.3a8.3,8.3,0,0,1-7.8.36V200c0-4.8,3.28-9.32,9-12.46a20.59,20.59,0,0,0,8.32,1.69h4.64C23.13,191.06,17.22,196.06,17.22,201.93Zm22.61,20a6.64,6.64,0,0,1-6.74.33L29,190.73a28.18,28.18,0,0,1,6.6-1.4Zm146.4.17a6.6,6.6,0,0,1-6-.23l4.38-32.14a26.45,26.45,0,0,1,5.88,1.84ZM207.85,200v73.32a8.33,8.33,0,0,1-7.8-.18V201.93c0-5.87-5.91-10.87-14.14-12.74h4.59a20.49,20.49,0,0,0,8.34-1.7C204.57,190.62,207.85,195.15,207.85,200Zm-4.74-17.51c-1.66,3.51-6.84,6-12.61,6H26.73c-5.77,0-11-2.45-12.61-6l-3.92-8.31H207Zm12.71-13.2c0,2.26-2.9,4.1-6.47,4.1H7.74c-3.57,0-6.47-1.84-6.47-4.1v-2.93a9.84,9.84,0,0,0,6.86,2.39H209a9.85,9.85,0,0,0,6.83-2.36Zm0-6.27v1.17a3.69,3.69,0,0,1-1.28,2,8.58,8.58,0,0,1-5.55,1.78H8.13a8.63,8.63,0,0,1-5.56-1.78A3.71,3.71,0,0,1,1.27,164v-.9a3,3,0,0,1,.29-.88l18.76-37.82c.91-1.83,3.55-3.06,6.57-3.06H190.22c3,0,5.67,1.23,6.58,3.06l18.76,37.82a3,3,0,0,1,.26.74Z"/><polygon class="cls-2" points="92.06 124.72 140.43 124.72 147.58 146.46 83.05 146.46 92.06 124.72"/><path class="cls-22" d="M135.75,130.71a6.67,6.67,0,0,0-6.63,6.89,1.52,1.52,0,0,0,3,0,6.63,6.63,0,1,0-13.26,0,1.52,1.52,0,0,0,3,0,6.63,6.63,0,1,0-13.25,0,1.52,1.52,0,0,0,3,0,6.63,6.63,0,1,0-13.25,0,1.52,1.52,0,0,0,3,0,6.67,6.67,0,0,0-6.63-6.89"/><path class="cls-7" d="M76.28,116.63c-7.52-1.76-13.28-6.8-15-13.14-.71-2.58-1.48-7.56,1.38-12a12.85,12.85,0,0,1,1.78-2.18V76.13a25,25,0,0,0-11.16,9.31,24.18,24.18,0,0,0-3.82,13.47,29.13,29.13,0,0,0,1,7.55c2.85,10.29,11.76,18.36,23.27,21.05a5.59,5.59,0,1,0,2.54-10.88Z"/><ellipse class="cls-23" cx="70.62" cy="121.99" rx="7.84" ry="5.59" transform="translate(-70.24 116.71) rotate(-57.79)"/><ellipse class="cls-2" cx="76.05" cy="125.52" rx="7.84" ry="9.94" transform="translate(-70.68 122.95) rotate(-57.79)"/><path class="cls-23" d="M81.16,133.62c-1.5,2.43-3.29,3.71-5.67,3.8a7.21,7.21,0,0,1-4.95-1.78c-2.59-2.22-3.75-5.82-3.34-10.92"/><path class="cls-23" d="M71.07,117.28a13.77,13.77,0,0,1,8-3.85,15,15,0,0,1,6,.38,8.81,8.81,0,0,1,5.32,3.5,3.06,3.06,0,0,1-.32,3.81l-.13.12a2.66,2.66,0,0,1-2.53.53c-4.29-1.29-7.27-1.18-9,.24"/><path class="cls-24" d="M93.1,129.64c-1.93-.65-4.61-1.37-4.61-1.37l1.2-2.37,2.36-1.36s1.2,2.24,2.21,3.88Z"/><path class="cls-25" d="M94.82,129.37c.49.83-.29.75-.62.64l-1.1-.37,1.16-1.22C94.49,128.8,94.68,129.13,94.82,129.37Z"/><path class="cls-26" d="M63.69,106.73a1,1,0,0,0-1.3.08h0a.78.78,0,0,0,.09,1.18L88.2,128.08a1,1,0,0,0,1.31-.08h0a.77.77,0,0,0-.1-1.17Z"/><path class="cls-27" d="M64.91,105.48a1,1,0,0,0-1.31.07h0a.78.78,0,0,0,.09,1.18l25.72,20.1a1,1,0,0,0,1.31-.08h0a.78.78,0,0,0-.1-1.18Z"/><path class="cls-26" d="M66.12,104.22a1,1,0,0,0-1.31.08h0a.78.78,0,0,0,.1,1.18l25.71,20.09a1,1,0,0,0,1.31-.08h0a.78.78,0,0,0-.1-1.18Z"/><polygon class="cls-28" points="66.57 104.58 62.94 108.34 61.69 107.37 65.32 103.6 66.57 104.58"/><path class="cls-29" d="M65.32,103.6l-3.63,3.77-1.31-1h0l-.06,0a2.16,2.16,0,0,1,0-3.27,2.78,2.78,0,0,1,3.59-.5l.06,0h0Z"/><path class="cls-23" d="M86.56,128.37a5.52,5.52,0,0,1-5.27,5.27,10.26,10.26,0,0,1-5.74-1.2"/><path class="cls-23" d="M77.93,120.71l1,.27a16.13,16.13,0,0,0,5.4.49,8.69,8.69,0,0,1,2.9.23,4.19,4.19,0,0,1,1.64.77l0,0a2.73,2.73,0,0,1,.07,4.1,7.54,7.54,0,0,1-2.93,1.71c-.18.06-.35.15-.53.2a13.92,13.92,0,0,1-8.47-.81"/><ellipse class="cls-30" cx="124.74" cy="71.87" rx="11.45" ry="16.96"/><ellipse class="cls-31" cx="125.13" cy="71.87" rx="5.89" ry="8.72"/><path class="cls-32" d="M119.14,50.11s6.09-6.35,12,0"/><circle class="cls-2" cx="123.04" cy="68.99" r="2.26"/><ellipse class="cls-30" cx="95.97" cy="71.87" rx="11.45" ry="16.96"/><ellipse class="cls-31" cx="96.35" cy="71.87" rx="5.89" ry="8.72"/><path class="cls-32" d="M90.37,50.11s6.08-6.35,12,0"/><circle class="cls-2" cx="94.27" cy="68.99" r="2.26"/><path class="cls-33" d="M123.83,97.3a3.49,3.49,0,0,1,1.9,6.41,28.28,28.28,0,0,1-30.75,0,3.49,3.49,0,0,1,3.8-5.85,21.26,21.26,0,0,0,23.15,0A3.5,3.5,0,0,1,123.83,97.3Z"/><path class="cls-34" d="M96.88,99.62a1.16,1.16,0,0,1,.64.19,23.6,23.6,0,0,0,25.67,0,1.17,1.17,0,1,1,1.27,2,26,26,0,0,1-28.22,0,1.17,1.17,0,0,1,.64-2.15Z"/></g></g></svg>