<svg xmlns="http://www.w3.org/2000/svg" viewBox="0 0 232.2 333.02"><defs><style>.cls-1,.cls-16{fill:#c08d54;}.cls-1,.cls-10,.cls-11,.cls-12,.cls-13,.cls-24,.cls-25,.cls-26,.cls-27,.cls-28,.cls-29,.cls-30,.cls-31,.cls-35,.cls-38,.cls-39,.cls-40,.cls-41,.cls-42,.cls-43,.cls-44,.cls-45,.cls-6,.cls-7,.cls-8,.cls-9{stroke:#000;}.cls-1,.cls-10,.cls-11,.cls-12,.cls-13,.cls-26,.cls-27,.cls-28,.cls-29,.cls-30,.cls-31,.cls-37,.cls-38,.cls-39,.cls-40,.cls-41,.cls-42,.cls-43,.cls-44,.cls-45,.cls-6,.cls-7,.cls-8,.cls-9{stroke-miterlimit:10;}.cls-1{stroke-width:1.09px;}.cls-2,.cls-25,.cls-39,.cls-45,.cls-6,.cls-8{fill:#fff;}.cls-3{fill:#b261ff;}.cls-4{fill:#660dbc;}.cls-5{fill:#d7840b;}.cls-6{stroke-width:1.39px;}.cls-24,.cls-33,.cls-7{fill:#d88500;}.cls-7{stroke-width:1.11px;}.cls-8,.cls-9{stroke-width:1.08px;}.cls-13,.cls-18,.cls-19,.cls-20,.cls-21,.cls-22,.cls-23,.cls-36,.cls-37,.cls-38,.cls-41,.cls-9{fill:none;}.cls-18,.cls-19,.cls-20,.cls-21,.cls-22,.cls-23,.cls-24,.cls-25,.cls-35,.cls-41,.cls-9{stroke-linecap:round;}.cls-10{fill:#ff7bac;}.cls-10,.cls-11,.cls-38{stroke-width:2.21px;}.cls-11{fill:#ccc;}.cls-12{fill:#666;stroke-width:1.1px;}.cls-13{stroke-width:1.65px;}.cls-14{fill:#747e7f;}.cls-15{fill:#9ba7a7;}.cls-17{fill:#996e43;}.cls-18,.cls-19,.cls-20,.cls-21,.cls-22,.cls-23{stroke:#4d4d4d;stroke-width:0.41px;}.cls-18,.cls-19,.cls-20,.cls-21,.cls-22,.cls-23,.cls-24,.cls-25,.cls-35{stroke-linejoin:round;}.cls-19{stroke-dasharray:1.36 1.36;}.cls-20{stroke-dasharray:1.34 1.34;}.cls-21{stroke-dasharray:1.29 1.29;}.cls-22{stroke-dasharray:1.32 1.32;}.cls-23{stroke-dasharray:1.34 1.34;}.cls-24{stroke-width:1.9px;}.cls-25{stroke-width:0.47px;}.cls-26{fill:#ffd396;stroke-width:0.2px;}.cls-27{stroke-width:0.18px;}.cls-28{fill:#fbca2c;}.cls-28,.cls-29,.cls-30,.cls-31{stroke-width:0.19px;}.cls-29{fill:#f4b21c;}.cls-30{fill:#cac3b9;}.cls-31{fill:#fc5465;}.cls-32{fill:#fbccac;}.cls-34{fill:#f9b233;}.cls-35{stroke-width:0.01px;}.cls-37{stroke:#bf720c;stroke-width:0.88px;}.cls-39{stroke-width:1.15px;}.cls-40{stroke-width:0.15px;}.cls-41{stroke-width:2.29px;}.cls-42{fill:#abd6bd;stroke-width:0.42px;}.cls-43{fill:#ffd18f;stroke-width:0.83px;}.cls-44,.cls-45{stroke-width:0.04px;}</style></defs><title>la2</title><g id="Layer_2" data-name="Layer 2"><g id="Personaje"><rect class="cls-1" x="70.37" y="123.97" width="87.01" height="44.39" rx="3.05"/><path class="cls-2" d="M110.27,308.8c-2.59,3.05-7.8,4.8-14.29,4.8-7,0-12.64-1.86-15.12-5a6.35,6.35,0,0,1-.9-1.51,3.69,3.69,0,0,0-.52,1.83c0,4.1,7.58,7.56,16.54,7.56s16.55-3.46,16.55-7.56a4,4,0,0,0-.93-2.43A7.25,7.25,0,0,1,110.27,308.8Z"/><path class="cls-3" d="M96,312c5.93,0,10.8-1.58,13-4.23a5.23,5.23,0,0,0,1.24-4.4c-.84-5.05-6.14-10.43-14.29-10.43-7.87,0-13.1,3.85-14.73,10.84a4.36,4.36,0,0,0,.88,3.84C84.28,310.3,89.59,312,96,312Z"/><path class="cls-4" d="M107.26,295.3a21.36,21.36,0,0,0-4.19-9.85,15.9,15.9,0,0,1-2.52.71.74.74,0,0,1-.29-1.46,13.33,13.33,0,0,0,2.54-.74l0,0a.8.8,0,0,1,.48-.19c1.79-.83,2.9-2,2.9-3.1,0-2.13-3.86-4.4-9.61-4.4s-9.6,2.27-9.6,4.4c0,1.05.89,2.05,2.34,2.83a.73.73,0,0,1,.47.21l0,0a16,16,0,0,0,5.93,1.3.74.74,0,0,1,0,1.48h0a17.15,17.15,0,0,1-6.21-1.32,20.64,20.64,0,0,0-4.24,9.29A17.58,17.58,0,0,1,96,291.3,17,17,0,0,1,107.26,295.3Z"/><path d="M112,304.55a6.7,6.7,0,0,0-.1-1.47,12.65,12.65,0,0,0-2.75-5.86,24.18,24.18,0,0,0-4.55-12.45c2-1.07,3.11-2.53,3.11-4.12,0-3.3-4.87-5.88-11.09-5.88s-11.08,2.58-11.08,5.88c0,1.44.95,2.76,2.55,3.78a23.23,23.23,0,0,0-4.71,11.76,15.73,15.73,0,0,0-3.68,7.2,6.48,6.48,0,0,0-.17,1.68,5.68,5.68,0,0,0-1.65,3.86c0,5.13,8,9.15,18.13,9.15s18.13-4,18.13-9.15A6.08,6.08,0,0,0,112,304.55ZM89.5,285.19a17.15,17.15,0,0,0,6.21,1.32h0a.74.74,0,0,0,0-1.48,16,16,0,0,1-5.93-1.3l0,0a.73.73,0,0,0-.47-.21c-1.45-.78-2.34-1.78-2.34-2.83,0-2.13,3.86-4.4,9.6-4.4s9.61,2.27,9.61,4.4c0,1.14-1.11,2.27-2.9,3.1a.8.8,0,0,0-.48.19l0,0a13.33,13.33,0,0,1-2.54.74.74.74,0,0,0,.29,1.46,15.9,15.9,0,0,0,2.52-.71,21.36,21.36,0,0,1,4.19,9.85,17,17,0,0,0-11.28-4,17.58,17.58,0,0,0-10.72,3.18A20.64,20.64,0,0,1,89.5,285.19Zm-8.25,18.57c1.63-7,6.86-10.84,14.73-10.84,8.15,0,13.45,5.38,14.29,10.43a5.23,5.23,0,0,1-1.24,4.4c-2.25,2.65-7.12,4.23-13,4.23-6.39,0-11.7-1.68-13.85-4.38A4.36,4.36,0,0,1,81.25,303.76ZM96,316.49c-9,0-16.54-3.46-16.54-7.56A3.69,3.69,0,0,1,80,307.1a6.35,6.35,0,0,0,.9,1.51c2.48,3.13,8.14,5,15.12,5,6.49,0,11.7-1.75,14.29-4.8a7.25,7.25,0,0,0,1.33-2.3,4,4,0,0,1,.93,2.43C112.53,313,105,316.49,96,316.49Z"/><path class="cls-5" d="M96.51,281.94a4.52,4.52,0,0,1-4.47-3.8C88.35,255.45,98.57,232,99,231a4.55,4.55,0,0,1,4.15-2.7,4.62,4.62,0,0,1,1.83.38,4.54,4.54,0,0,1,2.31,6c-.09.22-9.54,22.15-6.31,42a4.52,4.52,0,0,1-3.74,5.2A4.59,4.59,0,0,1,96.51,281.94Z"/><path d="M103.15,229a3.89,3.89,0,0,1,1.55.33,3.84,3.84,0,0,1,2,5.06c-.16.35-9.64,22.28-6.36,42.43a3.84,3.84,0,0,1-3.17,4.4,4.44,4.44,0,0,1-.62.05A3.83,3.83,0,0,1,92.73,278c-3.66-22.5,6.48-45.78,6.91-46.76a3.83,3.83,0,0,1,3.51-2.29m0-1.39h0a5.21,5.21,0,0,0-4.78,3.12c-.44,1-10.74,24.65-7,47.54a5.21,5.21,0,0,0,5.16,4.39,4.76,4.76,0,0,0,.84-.07,5.23,5.23,0,0,0,4.32-6c-3.2-19.72,6.17-41.43,6.26-41.64a5.23,5.23,0,0,0-2.67-6.89,5.13,5.13,0,0,0-2.11-.45Z"/><path class="cls-6" d="M91.79,270.71h8.7a.74.74,0,0,1,.74.74v6.35a4.52,4.52,0,0,1-4.52,4.52H95.58a4.52,4.52,0,0,1-4.52-4.52v-6.35A.74.74,0,0,1,91.79,270.71Z" transform="translate(-16.75 6.41) rotate(-3.51)"/><path class="cls-2" d="M150.6,308.75c-2.6,3.07-7.84,4.83-14.36,4.83-7,0-12.7-1.88-15.2-5a6.55,6.55,0,0,1-.9-1.51,3.59,3.59,0,0,0-.52,1.83c0,4.12,7.61,7.6,16.62,7.6s16.63-3.48,16.63-7.6a4,4,0,0,0-.93-2.44A7.41,7.41,0,0,1,150.6,308.75Z"/><path class="cls-3" d="M136.24,312c5.95,0,10.85-1.59,13.11-4.25a5.26,5.26,0,0,0,1.25-4.42c-.85-5.08-6.17-10.49-14.36-10.49-7.91,0-13.17,3.87-14.8,10.9a4.35,4.35,0,0,0,.88,3.85C124.48,310.26,129.81,312,136.24,312Z"/><path class="cls-4" d="M147.57,295.18a21.52,21.52,0,0,0-4.21-9.9,15.72,15.72,0,0,1-2.53.72.74.74,0,1,1-.29-1.46,14.32,14.32,0,0,0,2.56-.75v0a.8.8,0,0,1,.48-.19c1.8-.84,2.91-2,2.91-3.12,0-2.13-3.87-4.42-9.65-4.42s-9.64,2.29-9.64,4.42c0,1.06.89,2.06,2.34,2.84a.9.9,0,0,1,.48.21l0,.05a16.13,16.13,0,0,0,6,1.31.75.75,0,0,1,.72.77.76.76,0,0,1-.75.72h0a17.58,17.58,0,0,1-6.24-1.33,20.82,20.82,0,0,0-4.26,9.33,17.77,17.77,0,0,1,10.78-3.2A17.12,17.12,0,0,1,147.57,295.18Z"/><path d="M152.31,304.49a6.74,6.74,0,0,0-.1-1.48,12.8,12.8,0,0,0-2.76-5.9,24.45,24.45,0,0,0-4.58-12.51c2-1.07,3.12-2.54,3.12-4.14,0-3.31-4.89-5.91-11.14-5.91s-11.13,2.6-11.13,5.91a4.72,4.72,0,0,0,2.55,3.8,23.36,23.36,0,0,0-4.72,11.82,15.78,15.78,0,0,0-3.71,7.23,6.58,6.58,0,0,0-.16,1.69,5.71,5.71,0,0,0-1.66,3.88c0,5.16,8,9.2,18.22,9.2s18.22-4,18.22-9.2A6.08,6.08,0,0,0,152.31,304.49ZM129.72,285a17.58,17.58,0,0,0,6.24,1.33h0a.76.76,0,0,0,.75-.72.75.75,0,0,0-.72-.77,16.13,16.13,0,0,1-6-1.31l0-.05a.9.9,0,0,0-.48-.21c-1.45-.78-2.34-1.78-2.34-2.84,0-2.13,3.87-4.42,9.64-4.42s9.65,2.29,9.65,4.42c0,1.15-1.11,2.28-2.91,3.12a.8.8,0,0,0-.48.19v0a14.32,14.32,0,0,1-2.56.75.74.74,0,1,0,.29,1.46,15.72,15.72,0,0,0,2.53-.72,21.52,21.52,0,0,1,4.21,9.9,17.12,17.12,0,0,0-11.33-4,17.77,17.77,0,0,0-10.78,3.2A20.82,20.82,0,0,1,129.72,285Zm-8.28,18.66c1.63-7,6.89-10.9,14.8-10.9,8.19,0,13.51,5.41,14.36,10.49a5.26,5.26,0,0,1-1.25,4.42c-2.26,2.66-7.16,4.25-13.11,4.25-6.43,0-11.76-1.69-13.92-4.41A4.35,4.35,0,0,1,121.44,303.69Zm14.8,12.79c-9,0-16.62-3.48-16.62-7.6a3.59,3.59,0,0,1,.52-1.83,6.55,6.55,0,0,0,.9,1.51c2.5,3.14,8.18,5,15.2,5,6.52,0,11.76-1.76,14.36-4.83a7.41,7.41,0,0,0,1.34-2.31,4,4,0,0,1,.93,2.44C152.87,313,145.25,316.48,136.24,316.48Z"/><path class="cls-5" d="M135.94,281.94a4.62,4.62,0,0,1-.74-.06,4.54,4.54,0,0,1-3.74-5.2c3.23-19.88-6.21-41.81-6.31-42a4.54,4.54,0,0,1,2.31-6,4.65,4.65,0,0,1,1.83-.38,4.54,4.54,0,0,1,4.15,2.7c.44,1,10.65,24.46,7,47.15A4.5,4.5,0,0,1,135.94,281.94Z"/><path d="M129.29,229a3.82,3.82,0,0,1,3.51,2.29c.44,1,10.57,24.26,6.92,46.76a3.85,3.85,0,0,1-3.78,3.22,4.21,4.21,0,0,1-.62-.05,3.84,3.84,0,0,1-3.17-4.4c3.27-20.15-6.21-42.08-6.36-42.43a3.84,3.84,0,0,1,3.5-5.39m0-1.39a5.13,5.13,0,0,0-2.11.45,5.22,5.22,0,0,0-2.66,6.89c.09.21,9.46,21.92,6.25,41.64a5.24,5.24,0,0,0,4.32,6,4.88,4.88,0,0,0,.85.07,5.2,5.2,0,0,0,5.15-4.39c3.72-22.89-6.57-46.55-7-47.54a5.24,5.24,0,0,0-4.79-3.12Z"/><path class="cls-6" d="M135.74,270.71h1.13a4.52,4.52,0,0,1,4.52,4.52v6.35a.74.74,0,0,1-.74.74H132a.74.74,0,0,1-.74-.74v-6.35A4.52,4.52,0,0,1,135.74,270.71Z" transform="translate(255.41 560.87) rotate(-176.49)"/><path class="cls-7" d="M138.68,117.13l1,14c1-.07,10.3-.88,22.92-7.13a94.51,94.51,0,0,0,20.88-14.25,114.8,114.8,0,0,0,18.75-21.8L190.6,79.75c-9.37,14.19-20.71,24.73-33.75,31.37C146.84,116.22,139.34,117.06,138.68,117.13Z"/><path class="cls-8" d="M192.5,73.29s-5.26,3.11-2.07,9.85c3.71,7.82,17,8.72,17.11-.77Z"/><path class="cls-8" d="M191.63,73.39c.36-5.89-7.26-9.45-8.55-13.68-1.48-4.85,4.23-11.55,12.22,1.43,0,0,3-7.52,1.38-13.69-1.8-7,4.26-9.79,7.2-6.71,2.68,2.82,2.54,12,.8,17a1.12,1.12,0,0,0,.92,1.48l.27,0a1.14,1.14,0,0,0,1.22-.75c.82-2.31,3-8.72,3.48-12.35.76-5.7,11-4.3,10.11,3.29-.7,6-4.91,10.65-6.66,12.36A1.13,1.13,0,0,0,214,63.3h0a1.12,1.12,0,0,0,1.51.2,106,106,0,0,0,9.23-7.14c3.54-3.24,12.18,7.15-5.58,14.69,0,0-2.14,12.76-14.07,12.44C191.4,83.12,191.63,73.39,191.63,73.39Z"/><path class="cls-9" d="M197.28,64.28s8.62,1.76,5.39,10.43"/><path class="cls-10" d="M140,174.2a21.59,21.59,0,0,1-4.45,8.55c-7.13,8.3-18.12,7.77-19.6,7.67-2,0-11.54-.16-18.73-7.57a24.48,24.48,0,0,1-5.4-8.65Z"/><path class="cls-11" d="M140.41,153.3l-.06,19.25c-.09.48-.21,1-.37,1.65H91.8c-.28-.75-.49-1.43-.65-2V153.3Z"/><line class="cls-12" x1="91.15" y1="157.15" x2="140.71" y2="157.15"/><line class="cls-12" x1="91.15" y1="170.56" x2="140.71" y2="170.56"/><line class="cls-13" x1="107.65" y1="153.31" x2="107.65" y2="153.3"/><path class="cls-14" d="M192.7,268.79a7.06,7.06,0,0,0,6.46.25l4.51-32.65a28.07,28.07,0,0,0-6.29-2Z"/><path class="cls-14" d="M28.58,233.84A21.87,21.87,0,0,1,19.69,232c-6.11,3.36-9.62,8.2-9.62,13.33v78.82a8.93,8.93,0,0,0,8.35-.39V247.45c0-6.27,6.32-11.62,15.13-13.61Z"/><path class="cls-14" d="M203.73,233.84h-4.91c8.81,2,15.13,7.34,15.13,13.61v76.12a8.91,8.91,0,0,0,8.34.19V245.35c0-5.14-3.51-10-9.64-13.34A22,22,0,0,1,203.73,233.84Z"/><path class="cls-14" d="M31,235.47l4.4,33.74a7.12,7.12,0,0,0,7.2-.36L38.05,234A30.88,30.88,0,0,0,31,235.47Z"/><path class="cls-15" d="M15.1,226.62c1.77,3.76,7.31,6.38,13.48,6.38H203.73c6.17,0,11.72-2.62,13.49-6.38l4.19-8.89H10.91Z"/><path class="cls-16" d="M210.47,164.56c-1-2-3.8-3.28-7-3.28H28.76c-3.23,0-6.06,1.32-7,3.28L1.67,205a3.2,3.2,0,0,0-.31.95v1a4,4,0,0,0,1.39,2.27,9.22,9.22,0,0,0,5.95,1.91H223.51a9.21,9.21,0,0,0,5.94-1.91,4,4,0,0,0,1.36-2.13V205.8h0a3.82,3.82,0,0,0-.28-.8Z"/><path class="cls-17" d="M223.51,211.93H8.7a10.52,10.52,0,0,1-7.34-2.56v3.13c0,2.42,3.1,4.39,6.92,4.39H223.9c3.81,0,6.91-2,6.91-4.39v-3.1A10.5,10.5,0,0,1,223.51,211.93Z"/><path d="M211.73,164.3c-1.14-2.29-4.5-3.86-8.29-3.86H28.76c-3.79,0-7.15,1.57-8.29,3.86L.4,204.75a4.32,4.32,0,0,0-.35,1.05H0v.12a3.35,3.35,0,0,0,0,1v5.58c0,2.89,3.69,5.23,8.24,5.23H9.53l4.3,9.13a10.8,10.8,0,0,0,4.8,4.64C12.35,235,8.75,240,8.75,245.35v78.13c-.41-.16-1,0-1,.35v6A2.25,2.25,0,0,0,9,331.72a10.63,10.63,0,0,0,9.88.13,2.39,2.39,0,0,0,1.68-2.24L20,323.74a.39.39,0,0,0-.3-.32v-76c0-4.83,4-9.08,10-11.5L34,268.86a.36.36,0,0,0-.23.28l-.29,6a2.49,2.49,0,0,0,1.18,2.2,8.69,8.69,0,0,0,10.14-.21,2.37,2.37,0,0,0,1.1-2.74l-1.83-5.68a.41.41,0,0,0-.22-.21l-4.51-34.57c.61,0,1.22,0,1.83,0h150a32.47,32.47,0,0,1,4.9.36l-4.61,33.86c-.29,0-.61.08-.67.29L189,274a2.38,2.38,0,0,0,1.1,2.74,8.69,8.69,0,0,0,10.14.22,2.54,2.54,0,0,0,1.19-2.2l-.3-6c0-.2-.26-.34-.52-.36L204.91,237c4.71,2.5,7.72,6.26,7.72,10.45v75.6c-.26,0-.48.17-.49.37l-.57,5.87a2.41,2.41,0,0,0,1.69,2.24,10.61,10.61,0,0,0,9.87-.13,2.25,2.25,0,0,0,1.27-1.87v-6c0-.28-.41-.45-.78-.4V245.35c0-5.33-3.61-10.36-9.91-13.87a10.68,10.68,0,0,0,4.77-4.62l4.31-9.13h1.11c4.54,0,8.24-2.34,8.24-5.23v-5.4a3.65,3.65,0,0,0-.34-2.35ZM18.42,247.45v76.33a8.93,8.93,0,0,1-8.35.39V245.35c0-5.13,3.51-10,9.62-13.33a21.87,21.87,0,0,0,8.89,1.82h5C24.74,235.83,18.42,241.18,18.42,247.45Zm24.17,21.4a7.12,7.12,0,0,1-7.2.36L31,235.47A30.88,30.88,0,0,1,38.05,234Zm156.57.19a7.06,7.06,0,0,1-6.46-.25l4.68-34.37a28.07,28.07,0,0,1,6.29,2Zm23.13-23.69v78.41a8.91,8.91,0,0,1-8.34-.19V247.45c0-6.27-6.32-11.62-15.13-13.61h4.91a22,22,0,0,0,8.92-1.83C218.78,235.36,222.29,240.21,222.29,245.35Zm-5.07-18.73c-1.77,3.76-7.32,6.38-13.49,6.38H28.58c-6.17,0-11.71-2.62-13.48-6.38l-4.19-8.89h210.5Zm13.59-14.12c0,2.42-3.1,4.39-6.91,4.39H8.28c-3.82,0-6.92-2-6.92-4.39v-3.13a10.52,10.52,0,0,0,7.34,2.56H223.51a10.5,10.5,0,0,0,7.3-2.53Zm0-6.7v1.25a4,4,0,0,1-1.36,2.13,9.21,9.21,0,0,1-5.94,1.91H8.7a9.22,9.22,0,0,1-5.95-1.91,4,4,0,0,1-1.39-2.27v-1a3.2,3.2,0,0,1,.31-.95l20.06-40.44c1-2,3.8-3.28,7-3.28H203.44c3.23,0,6.06,1.32,7,3.28L230.54,205a3.82,3.82,0,0,1,.28.8Z"/><polygon class="cls-2" points="98.45 172.76 150.18 172.76 157.83 196 88.82 196 98.45 172.76"/><line class="cls-18" x1="100.85" y1="186.52" x2="101.34" y2="186.03"/><line class="cls-19" x1="102.3" y1="185.07" x2="107.61" y2="179.76"/><polyline class="cls-18" points="108.09 179.27 108.58 178.79 109.07 179.27"/><line class="cls-20" x1="110.01" y1="180.22" x2="115.23" y2="185.44"/><polyline class="cls-18" points="115.71 185.91 116.19 186.4 116.68 185.91"/><line class="cls-21" x1="117.59" y1="185" x2="122.61" y2="179.98"/><polyline class="cls-18" points="123.07 179.52 123.56 179.03 124.04 179.52"/><line class="cls-22" x1="124.97" y1="180.45" x2="130.09" y2="185.57"/><polyline class="cls-18" points="130.55 186.03 131.04 186.52 131.52 186.03"/><line class="cls-23" x1="132.47" y1="185.08" x2="135.78" y2="181.77"/><line class="cls-18" x1="136.26" y1="181.3" x2="136.74" y2="180.81"/><path class="cls-24" d="M89.83,118.35c-10.57-.49-20.37,4.13-25.71,12.4A25.81,25.81,0,0,0,60,145.15a31.11,31.11,0,0,0,1.12,8.08c3,11,12.58,19.63,24.89,22.5a6,6,0,0,0,2.72-11.63c-8-1.88-14.21-7.27-16.09-14.06-.76-2.75-1.58-8.08,1.47-12.81,3.43-5.29,10.38-7.91,17.72-6.67a6,6,0,1,0,2-11.77A33,33,0,0,0,89.83,118.35Z"/><ellipse class="cls-25" cx="82.7" cy="169.83" rx="8.38" ry="5.98" transform="translate(-105.07 149.27) rotate(-57.79)"/><ellipse class="cls-2" cx="88.52" cy="173.6" rx="8.38" ry="10.63" transform="translate(-105.55 155.96) rotate(-57.79)"/><path class="cls-25" d="M94,182.27c-1.62,2.6-3.53,4-6.08,4.06a7.7,7.7,0,0,1-5.29-1.9c-2.77-2.37-4-6.22-3.57-11.67"/><path class="cls-25" d="M83.19,164.79a14.71,14.71,0,0,1,8.5-4.11,16,16,0,0,1,6.38.41,9.43,9.43,0,0,1,5.69,3.74,3.27,3.27,0,0,1-.34,4.07l-.14.14a2.85,2.85,0,0,1-2.71.55c-4.58-1.37-7.77-1.25-9.67.26"/><path class="cls-26" d="M106.75,178c-2.06-.69-4.93-1.46-4.93-1.46l1.29-2.54,2.52-1.45s1.29,2.4,2.36,4.15Z"/><path class="cls-27" d="M108.59,177.72c.53.89-.31.81-.66.69l-1.18-.4,1.24-1.3C108.23,177.12,108.45,177.47,108.59,177.72Z"/><path class="cls-28" d="M75.3,153.52a1.07,1.07,0,0,0-1.4.08h0a.84.84,0,0,0,.11,1.26l27.5,21.49a1.08,1.08,0,0,0,1.4-.09h0a.83.83,0,0,0-.11-1.26Z"/><path class="cls-29" d="M76.6,152.17a1.07,1.07,0,0,0-1.4.09h0a.84.84,0,0,0,.1,1.26L102.8,175a1.06,1.06,0,0,0,1.4-.08h0a.84.84,0,0,0-.1-1.26Z"/><path class="cls-28" d="M77.9,150.83a1.06,1.06,0,0,0-1.4.08h0a.83.83,0,0,0,.1,1.26l27.5,21.49a1.07,1.07,0,0,0,1.4-.08h0a.83.83,0,0,0-.1-1.26Z"/><polygon class="cls-30" points="78.38 151.21 74.49 155.24 73.16 154.19 77.04 150.16 78.38 151.21"/><path class="cls-31" d="M77,150.16l-3.88,4-1.4-1.09h0l-.06,0a2.32,2.32,0,0,1,0-3.5,3,3,0,0,1,3.84-.53l.07,0h0Z"/><path class="cls-25" d="M99.76,176.66a6.23,6.23,0,0,1-.6,2.34,6.06,6.06,0,0,1-5,3.3A11,11,0,0,1,88,181"/><path class="cls-25" d="M90.53,168.47l1.1.28a17,17,0,0,0,5.77.52,9.35,9.35,0,0,1,3.1.25,4.52,4.52,0,0,1,1.76.82l0,0a2.91,2.91,0,0,1,.07,4.38,8.05,8.05,0,0,1-3.13,1.83,5.54,5.54,0,0,1-.57.21,14.84,14.84,0,0,1-9-.86"/><polygon class="cls-32" points="140.84 37.67 132.41 46.16 124.16 37.67 115.93 46.16 107.65 37.67 99.4 46.16 91.02 37.67 115.89 1.93 140.84 37.67"/><path class="cls-33" d="M140.84,37.67V52.52s-.35,67.19-.43,100.78H124.16V37.67l8.24,8.49Z"/><polygon class="cls-33" points="107.62 37.64 107.62 153.27 91.13 153.27 90.99 52.49 90.99 37.64 99.37 46.13 107.62 37.64"/><polygon class="cls-34" points="124.16 37.67 124.16 153.3 107.65 153.3 107.65 37.67 115.93 46.16 124.16 37.67"/><path class="cls-35" d="M110.43,10.15a7.92,7.92,0,0,0,10.67,0l-5.21-8.22Z"/><line class="cls-36" x1="124.16" y1="37.67" x2="124.16" y2="37.61"/><line class="cls-13" x1="107.65" y1="37.67" x2="107.65" y2="37.66"/><line class="cls-37" x1="124.15" y1="37.61" x2="124.15" y2="153.3"/><line class="cls-37" x1="107.65" y1="37.73" x2="107.65" y2="153.3"/><path class="cls-38" d="M140.84,37.67l-25-35.74L91,37.67V52.52l.13,100.78h49.26c.09-33.59.43-100.78.43-100.78Z"/><polyline class="cls-38" points="91.02 37.67 99.4 46.16 107.65 37.67 115.93 46.16 124.15 37.67 132.41 46.16 140.84 37.67"/><ellipse class="cls-39" cx="129.05" cy="85.95" rx="10.62" ry="15.72"/><ellipse class="cls-40" cx="129.41" cy="85.95" rx="5.46" ry="8.09"/><path class="cls-41" d="M123.86,65.78s5.64-5.89,11.09,0"/><circle class="cls-2" cx="127.48" cy="83.28" r="2.09"/><ellipse class="cls-39" cx="102.38" cy="85.95" rx="10.62" ry="15.72"/><ellipse class="cls-40" cx="102.74" cy="85.95" rx="5.46" ry="8.09"/><path class="cls-41" d="M97.19,65.78s5.64-5.89,11.09,0"/><circle class="cls-2" cx="100.81" cy="83.28" r="2.09"/><path class="cls-42" d="M115.36,112.3c0,.09,0,.18,0,.27a2.44,2.44,0,0,1,0-.27Z"/><path class="cls-43" d="M134.29,108.34a5.43,5.43,0,0,0-7.5-1.39,20.85,20.85,0,0,1-7.6,2.66,24.47,24.47,0,0,1-2.71.29l-1.09,0c-.39,0-.76,0-1.13,0a22,22,0,0,1-2.7-.28A21,21,0,0,1,104,107a5.42,5.42,0,0,0-6.16,8.91,34,34,0,0,0,35.12,0A5.43,5.43,0,0,0,134.29,108.34Zm-2.71,5.57a31.63,31.63,0,0,1-32.39,0,3,3,0,0,1,3.47-5,22.46,22.46,0,0,0,7.49,2.85,26.39,26.39,0,0,0,5.21.52h0a26.37,26.37,0,0,0,5.2-.52,22.75,22.75,0,0,0,7.53-2.85,3,3,0,1,1,3.46,5Z"/><path class="cls-44" d="M131.58,113.91a31.63,31.63,0,0,1-32.39,0,3,3,0,0,1,3.47-5,22.46,22.46,0,0,0,7.49,2.85,3.42,3.42,0,0,0-.08.79c0,1.82,1.18,3.3,2.65,3.3s2.65-1.48,2.65-3.3c0,1.82,1.18,3.3,2.65,3.3s2.65-1.48,2.65-3.3a4.15,4.15,0,0,0-.08-.79,22.75,22.75,0,0,0,7.53-2.85,3,3,0,1,1,3.46,5Z"/><path class="cls-44" d="M115.38,112.3a2.44,2.44,0,0,0,0,.27c0-.09,0-.18,0-.27Z"/><path class="cls-45" d="M115.37,112.57c0,1.82-1.19,3.3-2.65,3.3s-2.65-1.48-2.65-3.3a3.42,3.42,0,0,1,.08-.79,26.39,26.39,0,0,0,5.21.52C115.36,112.39,115.37,112.48,115.37,112.57Z"/><path class="cls-45" d="M120.67,112.57c0,1.82-1.19,3.3-2.65,3.3s-2.65-1.48-2.65-3.3a2.44,2.44,0,0,1,0-.27h0a26.37,26.37,0,0,0,5.2-.52A4.15,4.15,0,0,1,120.67,112.57Z"/></g></g></svg>