<?xml version="1.0" encoding="utf-8"?>
<!-- Generator: Adobe Illustrator 24.0.2, SVG Export Plug-In . SVG Version: 6.00 Build 0)  -->
<svg version="1.1" id="Layer_1" xmlns="http://www.w3.org/2000/svg" xmlns:xlink="http://www.w3.org/1999/xlink" x="0px" y="0px"
	 viewBox="0 0 169.5 119.1" style="enable-background:new 0 0 169.5 119.1;" xml:space="preserve">
<style type="text/css">
	.st0{fill:#003B49;stroke:#000000;stroke-width:1.2341;stroke-miterlimit:10;}
	.st1{fill:#FFFFFF;stroke:#000000;stroke-width:0.6332;stroke-miterlimit:10;}
	.st2{fill:#FFFFFF;}
	.st3{fill:#FFFFFF;stroke:#000000;stroke-width:0.4749;stroke-miterlimit:10;}
	.st4{fill:#00607A;}
	.st5{fill:#003B49;}
	.st6{fill:none;stroke:#000000;stroke-width:1.281;stroke-miterlimit:10;}
	.st7{fill:#00607A;stroke:#000000;stroke-width:0.7495;stroke-miterlimit:10;}
	.st8{fill:#3291B2;stroke:#000000;stroke-width:1.281;stroke-miterlimit:10;}
	.st9{fill:#B3B3B3;stroke:#000000;stroke-width:0.5543;stroke-miterlimit:10;}
	.st10{fill:#B3B3B3;stroke:#000000;stroke-width:0.3268;stroke-miterlimit:10;}
	.st11{fill:#B3B3B3;stroke:#000000;stroke-width:0.3747;stroke-miterlimit:10;}
	.st12{fill:none;stroke:#000000;stroke-width:0.7495;stroke-miterlimit:10;}
	.st13{fill:#FFFFFF;stroke:#000000;stroke-width:0.6405;stroke-miterlimit:10;}
	.st14{fill:none;stroke:#000000;stroke-width:1.281;stroke-linecap:round;stroke-miterlimit:10;}
	.st15{stroke:#000000;stroke-width:7.493243e-02;stroke-miterlimit:10;}
	.st16{fill:#75C6D3;stroke:#000000;stroke-width:0.5667;stroke-miterlimit:10;}
	.st17{stroke:#000000;stroke-width:6.434331e-02;stroke-miterlimit:10;}
	.st18{fill:#003B49;stroke:#000000;stroke-width:1.281;stroke-miterlimit:10;}
	.st19{fill:#FFFFFF;stroke:#000000;stroke-width:0.655;stroke-miterlimit:10;}
	.st20{fill:none;stroke:#000000;stroke-width:0.655;stroke-linecap:round;stroke-miterlimit:10;}
	.st21{fill:#E5E5E5;}
	.st22{fill:#BF4400;}
	.st23{fill:#FFFFFF;stroke:#000000;stroke-width:1.4947;stroke-miterlimit:10;}
</style>
<title>lcp</title>
<g>
	<g>
		<path class="st0" d="M112.5,55.1l-3.7,6.5c0.5,0.3,4.9,2.7,12.4,3.7c4.4,0.6,9,0.6,13.6-0.1c4.9-0.7,9.9-2.1,14.9-4.1l-2.8-7.1
			c-8.4,3.5-16.7,4.8-24.5,3.8C116.4,57.2,112.8,55.3,112.5,55.1z"/>
		<g>
			<path class="st1" d="M147.8,49.8c0,0-3.5,0.2-2.8,5.1c0.9,5.7,8.3,10.2,9.9,4.7L147.8,49.8z"/>
			<ellipse transform="matrix(0.8537 -0.5208 0.5208 0.8537 -5.2251 88.7681)" class="st2" cx="155.4" cy="53.7" rx="6" ry="5.9"/>
			<g>
				<path class="st2" d="M160.5,58.4c-0.7,0.8-1.7,1.5-3,1.9c-1,0.3-2,0.3-2.9,0h0c-1-0.4-1.9-1-2.6-1.8l-0.8-0.9"/>
				<g>
					<path d="M160.3,58.2c-1.4,1.5-3.6,2.5-5.6,1.8c-1.4-0.5-2.3-1.5-3.3-2.6c-0.3-0.3-0.7,0.1-0.4,0.4c1.1,1.2,2.2,2.3,3.8,2.8
						c2.2,0.7,4.5-0.4,5.9-2C161,58.4,160.6,57.9,160.3,58.2L160.3,58.2z"/>
				</g>
			</g>
			<path class="st3" d="M162.8,51.4c1.5-0.1,2.6,0.5,3.3,1.5c0.3,0.4,0.4,0.9,0.3,1.4c-0.1,0.5-0.3,1.1-0.7,1.6
				c-0.2,0.3-0.4,0.5-0.7,0.7c-0.2,0.2-0.5,0.4-0.7,0.5c-0.9,0.7-2,1.1-3.1,1.2l0,0c-0.7,0.1-1.5,0-2.2-0.3l-0.2-0.1
				c-0.5-0.2-0.8-0.6-1-1.1v0c-0.1-0.4-0.1-0.9,0.2-1.2l0.1-0.1c0.6-0.9,1.5-1.5,2.5-1.8l2.5-0.7c0.1,0,0-0.1,0-0.1l-3-0.1
				c-0.1,0-0.1-0.1,0-0.1L162.8,51.4z"/>
			<path class="st3" d="M161,46.8c1.7-0.2,2.9,0.2,3.7,1.3c0.3,0.4,0.5,1,0.5,1.5c0,0.6-0.2,1.2-0.6,1.8c-0.2,0.3-0.4,0.6-0.7,0.8
				c-0.2,0.2-0.5,0.5-0.7,0.7c-0.9,0.8-2.1,1.4-3.3,1.6l0,0c-0.8,0.2-1.6,0.1-2.4-0.2l-0.2-0.1c-0.5-0.2-1-0.6-1.2-1.1l0,0
				c-0.2-0.4-0.2-0.9,0.1-1.3l0.1-0.1c0.6-1,1.5-1.8,2.6-2.1l2.7-1c0.1,0,0-0.1,0-0.1l-3.3,0.1c-0.1,0-0.1-0.1,0-0.1L161,46.8z"/>
			<path class="st1" d="M155.6,44.8l5.9-4.1l3.8-2.6c1.1-0.7,2.5-0.6,3.4,0.4c0,0,0,0,0,0c0.7,1.2,0.4,2.4-0.5,3.8
				c-2.5,3.1-6.1,4.9-9.8,6.6L155.6,44.8z"/>
			<g>
				<path class="st2" d="M149.5,54.9c-1.2-2.3-2.7-4.6,0.3-8.7c1.4-1.8,2.8-2.6,4.4-2.5c0.6,0.1,1.2,0.4,1.6,0.8
					c0.6,0.6,1.1,1.2,1.5,1.9c0.4,0.6,0.9,1.2,1.5,1.6c0.3,0.2,0.5,0.4,0.7,0.6c0.7,0.7,0.8,1.8,0.2,2.7c-0.6,0.9-1.3,1.1-2.1,1.1
					c-0.8,0-1.6-0.3-2.2-0.8c-1.1-0.8-1.9-1.9-2.3-3.4l1.5,3.5c0,0.1,0.1,0.1,0.1,0.2c0.1,0.2,0.1,0.5,0.1,0.8
					c-0.1,0.6-0.4,1.2-0.9,1.7l-1,1"/>
				<g>
					<path d="M149.8,54.7c-0.7-1.3-1.4-2.5-1.4-4c0-2.1,1.4-4.2,2.9-5.6c0.8-0.7,1.7-1.2,2.7-1.1c1.3,0,2.2,1.2,2.9,2.2
						c0.3,0.4,0.5,0.8,0.8,1.1c0.4,0.5,0.9,0.8,1.4,1.2c1,0.9,1.1,2.2,0.1,3.1c-1.1,0.9-2.8,0.3-3.7-0.4c-1-0.8-1.6-1.9-2-3.1
						c-0.2,0.1-0.4,0.2-0.5,0.2c0.5,1.1,0.9,2.1,1.4,3.2c0.1,0.1,0.1,0.3,0.2,0.4c0.3,0.7-0.1,1.5-0.5,2c-0.4,0.4-0.8,0.8-1.2,1.2
						c-0.3,0.3,0.1,0.7,0.4,0.4c0.5-0.5,1.1-0.9,1.5-1.4c0.3-0.5,0.6-1,0.6-1.6c0-0.4-0.1-0.7-0.3-1c-0.5-1.1-1-2.3-1.5-3.5
						c-0.1-0.3-0.6-0.1-0.5,0.2c0.7,2.3,2.7,4.7,5.4,4.4c1.1-0.2,2-1.1,2.2-2.3c0.2-1.3-0.7-2.1-1.7-2.8c-1.2-0.9-1.7-2.4-2.9-3.4
						c-0.9-0.8-2-0.9-3.1-0.6c-1.3,0.3-2.3,1.3-3.1,2.3c-0.8,1-1.5,2.2-1.8,3.4c-0.6,2.1,0.3,4,1.3,5.8
						C149.5,55.4,150,55.1,149.8,54.7L149.8,54.7z"/>
				</g>
			</g>
		</g>
	</g>
	<g>
		<g>
			
				<rect x="46.4" y="56.3" transform="matrix(0.9957 -9.292495e-02 9.292495e-02 0.9957 -6.7819 4.8674)" class="st4" width="4.9" height="37.8"/>
			<path class="st5" d="M44.7,56.6l4.9-0.5c0.6-0.6,1.2-1.3,1.7-2c2.2-3.4,3.3-8.6,2.8-14.2c-0.5-5.8-2.7-10.8-5.5-13.7
				c-0.6-0.6-1.2-1.1-1.9-1.5l-4.9,0.5c0.6,0.4,1.3,0.9,1.9,1.5c2.8,2.9,5,7.9,5.5,13.7c0.5,5.7-0.6,10.9-2.8,14.2
				C45.9,55.4,45.3,56.1,44.7,56.6z"/>
			
				<rect x="40.9" y="6.7" transform="matrix(0.9957 -9.292495e-02 9.292495e-02 0.9957 -1.2845 4.095)" class="st4" width="4.9" height="18.3"/>
			<path class="st6" d="M43.6,26.7c2.8,2.9,5,7.9,5.5,13.7c0.5,5.7-0.6,10.9-2.8,14.2c-0.5,0.8-1.1,1.5-1.7,2.1l3.5,37.7l62.4-5.8
				L107,49.9c-0.3-0.3-0.6-0.6-0.9-0.9c-2.8-2.9-4.8-7.8-5.4-13.5c-0.5-5.8,0.6-11.1,2.9-14.4c0.2-0.3,0.4-0.6,0.6-0.8l-1.8-19.1
				L40,7l1.7,18.2C42.4,25.6,43,26.1,43.6,26.7z"/>
			<path class="st7" d="M48.5,26.2c2.8,2.9,5,7.9,5.5,13.7c0.5,5.7-0.6,10.9-2.8,14.2c-0.5,0.8-1.1,1.5-1.7,2l3.5,37.7l57.6-5.4
				L107,49.9c-0.3-0.3-0.6-0.6-0.9-0.9c-2.8-2.9-4.8-7.8-5.4-13.5c-0.5-5.8,0.6-11.1,2.9-14.5c0.2-0.3,0.4-0.6,0.6-0.8l-1.8-19.1
				L44.9,6.5l1.7,18.2C47.3,25.1,47.9,25.6,48.5,26.2z"/>
			<path class="st8" d="M48.5,26.2c2.8,2.9,5,7.9,5.5,13.7c0.5,5.7-0.6,10.9-2.8,14.2c-0.5,0.8-1.1,1.5-1.7,2l3.5,37.7l62.4-5.8
				l-3.6-38.6c-0.3-0.3-0.6-0.6-0.9-0.9c-2.8-2.9-4.8-7.8-5.4-13.5c-0.5-5.8,0.6-11.1,2.9-14.5c0.2-0.3,0.4-0.6,0.6-0.8l-1.8-19.1
				L44.9,6.5l1.7,18.2C47.3,25.1,47.9,25.6,48.5,26.2z"/>
			<g>
				<path class="st9" d="M77.8,34.2L77.8,34.2c6.1-0.6,10.5-5.9,10-12L85.9,2.7l-22,2l1.8,19.5C66.3,30.3,71.7,34.7,77.8,34.2z"/>
				<line class="st10" x1="75.1" y1="3.8" x2="78" y2="34.2"/>
				<circle class="st11" cx="70.3" cy="17.3" r="2.2"/>
			</g>
			<line class="st12" x1="46.6" y1="24.7" x2="41.7" y2="25.2"/>
			<line class="st12" x1="49.6" y1="56.2" x2="44.7" y2="56.7"/>
		</g>
		<g>
			
				<ellipse transform="matrix(0.9957 -9.292495e-02 9.292495e-02 0.9957 -4.8646 9.3456)" class="st13" cx="97.9" cy="56.9" rx="7.6" ry="11.2"/>
			
				<ellipse transform="matrix(0.9957 -9.292495e-02 9.292495e-02 0.9957 -5.0723 7.4721)" class="st13" cx="77.7" cy="58.2" rx="7.6" ry="11.2"/>
			<path class="st14" d="M101.9,41.5c0,0-4.4-3.8-7.9,0.7"/>
			<path class="st14" d="M80.1,43.5c0,0-4.4-3.8-7.9,0.7"/>
			<g>
				
					<ellipse transform="matrix(0.9957 -9.292495e-02 9.292495e-02 0.9957 -4.6888 9.6526)" class="st15" cx="101.3" cy="55.2" rx="3.9" ry="5.8"/>
				<circle class="st2" cx="102.5" cy="52.9" r="1.2"/>
			</g>
			<g>
				
					<ellipse transform="matrix(0.9957 -9.292495e-02 9.292495e-02 0.9957 -4.953 7.7966)" class="st15" cx="81.2" cy="57.1" rx="3.9" ry="5.8"/>
				<circle class="st2" cx="82.2" cy="54.8" r="1.2"/>
			</g>
			<g>
				<g>
					<path class="st16" d="M72.6,72.7c-0.9-0.1-1.9,0.3-2.5,1c-1,1.2-0.8,3,0.4,3.9c7,5.6,16.6,6.5,24.6,2.5
						c1.4-0.7,1.9-2.4,1.2-3.8c-0.7-1.4-2.4-1.9-3.8-1.2c-6,3.1-13.2,2.4-18.5-1.8C73.7,72.9,73.1,72.7,72.6,72.7z"/>
				</g>
				<g>
					<path class="st17" d="M94,76.7c-0.2,0-0.4,0-0.5,0.1c-6.6,3.4-14.7,2.6-20.5-2c-0.4-0.3-1-0.3-1.3,0.1c-0.3,0.4-0.3,1,0.1,1.3
						c6.4,5.1,15.3,6,22.6,2.3c0.5-0.2,0.6-0.8,0.4-1.3C94.6,76.9,94.3,76.7,94,76.7z"/>
				</g>
			</g>
		</g>
	</g>
	<g>
		<g>
			<path class="st18" d="M48.4,70.1c-1.4,0.6-4.9,1.2-6.9,2.5c-4.4,2.9-10.8,8.2-18.3,17.8c-2.2-1.5-4.3-3-6.3-4.6
				c3.1-4,6.3-7.6,9.4-10.8c3.9-3.9,7.8-7,11.7-9.5c3.9-2.4,6.6-3.3,9.6-3.8L48.4,70.1z"/>
		</g>
		<g>
			
				<ellipse transform="matrix(0.8444 -0.5357 0.5357 0.8444 -43.885 24.4369)" class="st19" cx="20.1" cy="87.8" rx="3.6" ry="5.7"/>
			<path class="st19" d="M16.1,84.2c-2.8-1-4.2-0.9-5.5-3.5c-1.4-2.9-5.6-1.1-3.7,2.8c1.5,3.1,3.6,3.8,3.6,3.8s-3.7,1.4-6.2,3.1
				c-4.8,3.2-4.5,5.2-3,6.3c1.7,1.2,7.6-4.4,8.7-3.6c1.1,0.8-4.1,4.2-5.4,5.6c-2.4,2.5,0.4,5,2.3,3.8c2-1.1,5.5-6.4,5.9-5.3
				c0.4,1.1-2.5,5.1-1.4,6.6c1.1,1.5,4,2,4.8-1.4c0.8-3.4,0.3-4.8,2.4-5.8C20.6,95.6,25.8,87.7,16.1,84.2z"/>
			<path class="st20" d="M11.8,88.1c0,0,1.9,4.7,6.4,3.5"/>
		</g>
	</g>
	<g>
		<g>
			<path d="M88.3,97.3c-1-4.9-4-8.2-6.8-7.6c-1.1,0.2-2.1,1.1-2.7,2.4c-1.4-0.7-2.9-0.9-4.6-0.7c-0.4,0-0.8,0.1-1.2,0.2
				C70.7,91,68.2,92,66.8,94L66,95.2c-0.7,1-1.5,2-2.5,2.9c-1.5,1.4-4.7,5.4-2.9,11.9c0.1,0.4,2.4,9.3,8.2,9.1h0l0,0
				c0.1,0,1.3-0.2,2.6-0.7c0.2,0,0.4,0,0.6,0c2.3-0.3,4.1-1.2,5.3-2.8c1.2-1.7,1.7-3.9,1.3-6.5c1-0.8,2.1-1.9,2.9-3.3
				c1,0.9,2.1,1.4,3.2,1.3c0.1,0,0.2,0,0.3,0C87.9,106.4,89.3,102.2,88.3,97.3z M68.8,118.4c-5.2,0.2-7.4-8.4-7.5-8.5
				c-1.6-6,1-9.6,2.7-11.2c1-1,1.9-2,2.6-3l0.8-1.2c1-1.4,2.5-2.2,4.2-2.3c-2.1,1-3.7,2.9-4.4,5.3c-3,1.8-4.8,6.1-4.3,11
				c0.6,4.9,3.4,8.8,6.8,9.8C69.2,118.3,68.8,118.4,68.8,118.4z M84.9,106.3c-1.8,0.4-4-1.6-5.2-4.8c-0.1-0.2-0.3-0.3-0.5-0.2
				c-0.2,0.1-0.3,0.3-0.2,0.5c0.5,1.4,1.2,2.6,2,3.5c-0.7,1.2-1.6,2.3-2.6,3c-0.9-4-3.8-5.5-5.1-5.9c-0.3-0.1-0.6,0-0.6,0.3
				c-0.1,0.3,0,0.6,0.3,0.6c1.1,0.4,3.9,1.8,4.5,5.6c0.4,2.5,0.1,4.6-1.1,6.1c-1,1.4-2.6,2.2-4.6,2.4c-3.8,0.4-7.4-3.7-8-9.1
				c-0.6-5.5,2-10.2,5.8-10.7c0.3,0,0.5-0.3,0.4-0.6c0-0.3-0.3-0.5-0.6-0.4c-0.4,0-0.7,0.1-1.1,0.2c1.1-2.5,3.3-4.2,6-4.5
				c1.5-0.2,2.8,0.1,4.1,0.7c-0.4,1.1-0.5,2.5-0.5,4c0,0.2,0.2,0.4,0.4,0.4c0.2,0,0.4-0.2,0.4-0.4c-0.2-3.5,1-6.2,2.9-6.6
				c2.3-0.5,5,2.7,5.9,7C88.4,101.8,87.3,105.8,84.9,106.3z"/>
			<path class="st21" d="M69.7,118.2c-0.5,0.1-0.9,0.2-0.9,0.2c-5.2,0.2-7.4-8.4-7.5-8.5c-1.6-6,1-9.6,2.7-11.2c1-1,1.9-2,2.6-3
				l0.8-1.2c1-1.4,2.5-2.2,4.2-2.3c-2.1,1-3.7,2.9-4.4,5.3c-3,1.8-4.8,6.1-4.3,11C63.4,113.3,66.3,117.3,69.7,118.2z"/>
			<path class="st22" d="M84.9,106.3c-1.8,0.4-4-1.6-5.2-4.8c-0.1-0.2-0.3-0.3-0.5-0.2c-0.2,0.1-0.3,0.3-0.2,0.5
				c0.5,1.4,1.2,2.6,2,3.5c-0.7,1.2-1.6,2.3-2.6,3c-0.9-4-3.8-5.5-5.1-5.9c-0.3-0.1-0.6,0-0.6,0.3c-0.1,0.3,0,0.6,0.3,0.6
				c1.1,0.4,3.9,1.8,4.5,5.6c0.4,2.5,0.1,4.6-1.1,6.1c-1,1.4-2.6,2.2-4.6,2.4c-3.8,0.4-7.4-3.7-8-9.1c-0.6-5.5,2-10.2,5.8-10.7
				c0.3,0,0.5-0.3,0.4-0.6c0-0.3-0.3-0.5-0.6-0.4c-0.4,0-0.7,0.1-1.1,0.2c1.1-2.5,3.3-4.2,6-4.5c1.5-0.2,2.8,0.1,4.1,0.7
				c-0.4,1.1-0.5,2.5-0.5,4c0,0.2,0.2,0.4,0.4,0.4c0.2,0,0.4-0.2,0.4-0.4c-0.2-3.5,1-6.2,2.9-6.6c2.3-0.5,5,2.7,5.9,7
				C88.4,101.8,87.3,105.8,84.9,106.3z"/>
		</g>
		<g>
			<path class="st5" d="M89.5,100.1c-2,0-3.8-1.4-4.2-3.4c-0.2-1.2,0-2.3,0.6-3.3c0.7-1,1.7-1.6,2.8-1.8c2.5-0.4,4.6-0.9,6.6-1.4
				c-0.1,0-1.6,0-1.6,0l4.8-5.2c2.8-3.1,6.7-5,10.9-5.3c2.3-0.1,4.6-0.2,7.2-0.3c0.1,0,0.1,0,0.2,0c2.1,0,3.8,1.5,4,3.6l0,0.1
				c0.1,1.2-0.2,2.5-0.8,3.6c-3.3,5.4-13,9.8-29.6,13.4C90.1,100,89.8,100.1,89.5,100.1z"/>
			<g>
				<path d="M116.8,79.9c1.7,0,3.2,1.3,3.4,3c0,0,0,0.1,0,0.1c0.1,1.1-0.2,2.2-0.8,3.2c-3.4,5.6-13.9,9.8-29.2,13.1
					c-0.3,0.1-0.5,0.1-0.8,0.1c-1.7,0-3.2-1.2-3.6-2.9v0c-0.4-2,0.9-4,3-4.4c13-2.3,18.3-5.7,22.7-9.2c-5.6,3.6-11.2,6.6-16.1,6.6
					c-0.1,0-0.2,0-0.4,0l3.8-4.2c2.7-3,6.5-4.8,10.5-5c2-0.1,4.4-0.2,7.2-0.3C116.7,79.9,116.8,79.9,116.8,79.9 M116.8,78.7
					c-0.1,0-0.2,0-0.3,0c-2.6,0.1-4.9,0.2-7.2,0.3c-4.4,0.3-8.4,2.2-11.3,5.5l-3.8,4.2L92.9,90c-1.3,0.3-2.7,0.6-4.3,0.9
					c-1.3,0.2-2.5,1-3.2,2.1c-0.8,1.1-1,2.5-0.7,3.8c0.5,2.3,2.5,3.9,4.8,3.9c0.4,0,0.7,0,1-0.1c16.8-3.6,26.6-8.1,30-13.7
					c0.7-1.2,1.1-2.6,0.9-4l0-0.1C121.3,80.5,119.3,78.7,116.8,78.7L116.8,78.7z"/>
			</g>
		</g>
		<g>
			<path class="st5" d="M84.8,104.1c-0.3,0-0.6,0-0.9-0.1c-16.6-3.6-26.3-8-29.6-13.4c-0.7-1.1-1-2.3-0.9-3.6l0-0.1
				c0.2-2,1.9-3.6,4-3.6c0.1,0,0.2,0,0.3,0c2.6,0.1,4.9,0.2,7.2,0.3c4.2,0.3,8.1,2.1,10.9,5.3l4.7,5.2c0,0-1.5,0-1.6,0
				c1.9,0.5,4.1,1,6.6,1.4c1.2,0.2,2.2,0.9,2.8,1.8c0.7,1,0.9,2.1,0.6,3.3C88.6,102.7,86.8,104.1,84.8,104.1z"/>
			<g>
				<path d="M57.5,84c0.1,0,0.1,0,0.2,0c2.8,0.1,5.1,0.2,7.2,0.3c4,0.3,7.8,2.1,10.5,5l3.8,4.2c-0.1,0-0.2,0-0.4,0
					c-4.9,0-10.4-3-16.1-6.6c4.4,3.6,9.7,7,22.7,9.2c2,0.4,3.4,2.3,3,4.4v0c-0.4,1.7-1.9,2.9-3.6,2.9c-0.3,0-0.5,0-0.8-0.1
					c-15.3-3.3-25.8-7.5-29.2-13.1c-0.6-1-0.9-2.1-0.8-3.2c0,0,0-0.1,0-0.1C54.2,85.3,55.7,84,57.5,84 M57.5,82.7
					C57.5,82.7,57.5,82.7,57.5,82.7c-2.4,0-4.4,1.8-4.7,4.2l0,0.1c-0.1,1.4,0.2,2.8,0.9,4c3.4,5.6,13.2,10,30,13.7
					c0.3,0.1,0.7,0.1,1,0.1c2.3,0,4.4-1.7,4.8-3.9c0.3-1.3,0-2.7-0.7-3.8c-0.8-1.1-1.9-1.9-3.2-2.1c-1.5-0.3-2.9-0.6-4.3-0.9
					l-1.3-1.4l-3.8-4.2c-3-3.2-7-5.2-11.3-5.5c-2.3-0.1-4.6-0.2-7.2-0.3C57.6,82.7,57.5,82.7,57.5,82.7L57.5,82.7L57.5,82.7z"/>
			</g>
		</g>
		<g>
			<path d="M106.2,97.7c-1.1-0.8-2-1.7-2.8-2.6l-0.9-1.1c-1.6-1.9-4.2-2.6-6.5-1.7c-0.4-0.1-0.8-0.1-1.2-0.1c-1.6,0-3.1,0.4-4.5,1.3
				c-0.8-1.2-1.8-2-2.9-2.1c-2.8-0.3-5.4,3.4-5.9,8.3c-0.5,4.9,1.4,9,4.3,9.3c0.1,0,0.2,0,0.3,0c1.1,0,2.2-0.6,3.1-1.6
				c1,1.3,2.2,2.3,3.3,2.9c-0.1,2.7,0.6,4.8,2,6.4c1.4,1.4,3.3,2.2,5.6,2.2c0.2,0,0.4,0,0.6,0c1.3,0.4,2.6,0.4,2.6,0.4h0
				c5.8-0.5,7.1-9.5,7.1-9.9C111.5,102.5,107.8,98.9,106.2,97.7z M100.1,117.8c-2,0-3.7-0.7-4.9-1.9c-1.3-1.4-1.9-3.4-1.8-6
				c0.2-3.9,2.8-5.5,3.9-6.1c0.2-0.1,0.4-0.4,0.2-0.7c-0.1-0.2-0.4-0.4-0.7-0.2c-1.2,0.6-4,2.4-4.4,6.5c-1-0.6-2-1.6-2.9-2.7
				c0.7-1,1.3-2.2,1.6-3.7c0.1-0.2-0.1-0.4-0.3-0.5c-0.2-0.1-0.4,0.1-0.5,0.3c-0.9,3.3-2.8,5.5-4.7,5.4c-2.4-0.2-4-4-3.6-8.4
				c0.4-4.4,2.7-7.9,5-7.6c1.9,0.2,3.4,2.7,3.6,6.2c0,0.2,0.2,0.4,0.4,0.4c0.2,0,0.4-0.2,0.4-0.4c-0.1-1.5-0.4-2.9-0.9-4
				c1.2-0.8,2.5-1.1,4-1.1c2.6,0,5.1,1.5,6.4,3.8c-0.4-0.1-0.7-0.1-1.1-0.1c-0.3,0-0.5,0.2-0.5,0.5c0,0.3,0.2,0.5,0.5,0.5
				c3.8,0,6.9,4.5,6.9,10C107,113.3,103.9,117.8,100.1,117.8z M109.7,109.1c0,0.1-1.3,8.9-6.5,9.3c-0.1,0-0.4,0-0.9-0.1
				c3.3-1.3,5.7-5.5,5.7-10.5c0-4.9-2.3-9-5.5-10.4c-1-2.3-2.8-4-5-4.8c1.6-0.1,3.3,0.5,4.4,1.8l0.9,1.1c0.8,1,1.8,1.9,2.9,2.7
				C107.7,99.7,110.7,103,109.7,109.1z"/>
			<path class="st21" d="M109.7,109.1c0,0.1-1.3,8.9-6.5,9.3c-0.1,0-0.4,0-0.9-0.1c3.3-1.3,5.7-5.5,5.7-10.5c0-4.9-2.3-9-5.5-10.4
				c-1-2.3-2.8-4-5-4.8c1.6-0.1,3.3,0.5,4.4,1.8l0.9,1.1c0.8,1,1.8,1.9,2.9,2.7C107.7,99.7,110.7,103,109.7,109.1z"/>
			<path class="st22" d="M107,107.8c0,5.5-3.1,10-6.9,10c-2,0-3.7-0.7-4.9-1.9c-1.3-1.4-1.9-3.4-1.8-6c0.2-3.9,2.8-5.5,3.9-6.1
				c0.2-0.1,0.4-0.4,0.2-0.7c-0.1-0.2-0.4-0.4-0.7-0.2c-1.2,0.6-4,2.4-4.4,6.5c-1-0.6-2-1.6-2.9-2.7c0.7-1,1.3-2.2,1.6-3.7
				c0.1-0.2-0.1-0.4-0.3-0.5c-0.2-0.1-0.4,0.1-0.5,0.3c-0.9,3.3-2.8,5.5-4.7,5.4c-2.4-0.2-4-4-3.6-8.4c0.4-4.4,2.7-7.9,5-7.6
				c1.9,0.2,3.4,2.7,3.6,6.2c0,0.2,0.2,0.4,0.4,0.4c0.2,0,0.4-0.2,0.4-0.4c-0.1-1.5-0.4-2.9-0.9-4c1.2-0.8,2.5-1.1,4-1.1
				c2.6,0,5.1,1.5,6.4,3.8c-0.4-0.1-0.7-0.1-1.1-0.1c-0.3,0-0.5,0.2-0.5,0.5c0,0.3,0.2,0.5,0.5,0.5C103.9,97.9,107,102.3,107,107.8z
				"/>
		</g>
		<path class="st23" d="M84,103.4c2,0.4,3.9-0.8,4.4-2.8v0c0.4-2-0.9-4-3-4.4l-4.3-0.9c0.5,3,0,5.4-1.6,7L84,103.4z"/>
	</g>
</g>
</svg>
