<svg xmlns="http://www.w3.org/2000/svg" viewBox="0 0 156.32 172.36"><defs><style>.cls-1{fill:#e5e5e5;}.cls-2{fill:#bf4400;}.cls-23,.cls-3{fill:#003b49;}.cls-14,.cls-17,.cls-20,.cls-21,.cls-22,.cls-24,.cls-25,.cls-4{fill:#fff;}.cls-10,.cls-11,.cls-12,.cls-13,.cls-14,.cls-15,.cls-16,.cls-18,.cls-19,.cls-20,.cls-21,.cls-22,.cls-23,.cls-24,.cls-25,.cls-4,.cls-5,.cls-7,.cls-8,.cls-9{stroke:#000;}.cls-10,.cls-11,.cls-12,.cls-13,.cls-14,.cls-15,.cls-16,.cls-18,.cls-19,.cls-20,.cls-21,.cls-23,.cls-24,.cls-25,.cls-4,.cls-5,.cls-7,.cls-8,.cls-9{stroke-miterlimit:10;}.cls-4{stroke-width:1.53px;}.cls-5,.cls-9{fill:#3291b2;}.cls-5{stroke-width:1.58px;}.cls-6,.cls-8{fill:#00607a;}.cls-13,.cls-16,.cls-7{fill:none;}.cls-16,.cls-23,.cls-7,.cls-9{stroke-width:1.58px;}.cls-13,.cls-8{stroke-width:0.93px;}.cls-10,.cls-11,.cls-12{fill:#b3b3b3;}.cls-10{stroke-width:0.68px;}.cls-11{stroke-width:0.4px;}.cls-12{stroke-width:0.46px;}.cls-14{stroke-width:0.79px;}.cls-15{stroke-width:0.09px;}.cls-16,.cls-22{stroke-linecap:round;}.cls-18{fill:#75c6d3;stroke-width:0.59px;}.cls-19{stroke-width:0.07px;}.cls-20{stroke-width:0.8px;}.cls-21,.cls-22{stroke-width:0.83px;}.cls-22{stroke-linejoin:round;}.cls-24{stroke-width:0.81px;}.cls-25{stroke-width:0.61px;}</style></defs><title>lletras</title><g id="Layer_2" data-name="Layer 2"><g id="personaje"><path class="cls-1" d="M28.32,168.11a28.54,28.54,0,0,0,3.34-.37c.31-.05,5.57-.92,7.42-.92h.05a61.86,61.86,0,0,1,8.67,1.31l.32.06a8.26,8.26,0,0,0,1.63.16,8.08,8.08,0,0,0,7.06-4.09,4.44,4.44,0,0,1-1.62,5.05c-3.53,2.44-6.48,1.91-10.22,1.24a38.5,38.5,0,0,0-5.28-.68,46.9,46.9,0,0,0-8.29.47c-3.87.48-6.67.83-10.37-1.24a5.64,5.64,0,0,1-2.63-5.17C20.45,166.5,24.16,168.11,28.32,168.11Z"/><path class="cls-2" d="M28.32,152.06a13.71,13.71,0,0,1,5.61,1.17l0,0a8.25,8.25,0,0,1,4,4.53.53.53,0,0,0,.69.28.52.52,0,0,0,.27-.69,11,11,0,0,0-2.42-3.62,10.92,10.92,0,0,1,3.8-4.07,14.63,14.63,0,0,0,3.9,1h.06a.52.52,0,0,0,.52-.46.53.53,0,0,0-.46-.58,13.71,13.71,0,0,1-3.83-1l0,0c-1.75-.78-2.83-1.88-2.83-3.05,0-2.28,4.07-4.2,8.89-4.2s8.89,1.92,8.89,4.2c0,1.25-1.24,2.43-3.24,3.22l-.07,0a13.32,13.32,0,0,1-2.37.66.52.52,0,0,0,.19,1,14.85,14.85,0,0,0,2.35-.64,10.9,10.9,0,0,1,4.82,9.06,11.08,11.08,0,0,1-.67,3.79l0,.06a7,7,0,0,1-8,4.39L48,167.1a61.31,61.31,0,0,0-8.87-1.32,70.13,70.13,0,0,0-7.66.93h0a28,28,0,0,1-3.14.34c-4.34,0-8.28-2-9.81-4.88a5.6,5.6,0,0,1-.66-2.62C17.84,155.43,22.54,152.06,28.32,152.06Z"/><path d="M28.32,151a14.54,14.54,0,0,1,6,1.26,5.37,5.37,0,0,1,1.32.78,12,12,0,0,1,3.52-3.91c-1.66-1-2.65-2.21-2.65-3.59,0-2.94,4.36-5.25,9.94-5.25s9.93,2.31,9.93,5.25c0,1.5-1.13,2.86-3.06,3.82a12,12,0,0,1,4.08,13.49c1.5,3.51.07,6.13-1.64,7.31a10.49,10.49,0,0,1-6.22,2,27.09,27.09,0,0,1-4.78-.58,37.44,37.44,0,0,0-5.15-.66,45.17,45.17,0,0,0-8.11.46c-3.92.48-7,.87-11-1.36a6.41,6.41,0,0,1-3.11-5,8.46,8.46,0,0,1,.07-2.51,6.52,6.52,0,0,1-.69-2.91C16.79,154.85,22,151,28.32,151ZM21,169.1c3.7,2.07,6.5,1.72,10.37,1.24a46.9,46.9,0,0,1,8.29-.47,38.5,38.5,0,0,1,5.28.68c3.74.67,6.69,1.2,10.22-1.24a4.44,4.44,0,0,0,1.62-5.05,8.08,8.08,0,0,1-7.06,4.09,8.26,8.26,0,0,1-1.63-.16l-.32-.06a61.86,61.86,0,0,0-8.67-1.31h-.05c-1.85,0-7.11.87-7.42.92a28.54,28.54,0,0,1-3.34.37c-4.16,0-7.87-1.61-9.92-4.18A5.64,5.64,0,0,0,21,169.1Zm-2.53-6.92c1.53,2.92,5.47,4.88,9.81,4.88a28,28,0,0,0,3.14-.34h0a70.13,70.13,0,0,1,7.66-.93A61.31,61.31,0,0,1,48,167.1l.31.06a7,7,0,0,0,8-4.39l0-.06a11.08,11.08,0,0,0,.67-3.79,10.9,10.9,0,0,0-4.82-9.06,14.85,14.85,0,0,1-2.35.64.52.52,0,0,1-.19-1,13.32,13.32,0,0,0,2.37-.66l.07,0c2-.79,3.24-2,3.24-3.22,0-2.28-4.07-4.2-8.89-4.2s-8.89,1.92-8.89,4.2c0,1.17,1.08,2.27,2.83,3.05l0,0a13.71,13.71,0,0,0,3.83,1,.53.53,0,0,1,.46.58.52.52,0,0,1-.52.46h-.06a14.63,14.63,0,0,1-3.9-1,10.92,10.92,0,0,0-3.8,4.07,11,11,0,0,1,2.42,3.62.52.52,0,0,1-.27.69.53.53,0,0,1-.69-.28,8.25,8.25,0,0,0-4-4.53l0,0a13.71,13.71,0,0,0-5.61-1.17c-5.78,0-10.48,3.37-10.48,7.5A5.6,5.6,0,0,0,18.5,162.18Z"/><path class="cls-3" d="M46.86,146.35a4.13,4.13,0,0,1-4.09-3.48c-3.23-19.9,5.72-40.47,6.1-41.34a4.17,4.17,0,0,1,3.8-2.47,4,4,0,0,1,1.67.36,4.13,4.13,0,0,1,2.11,5.46c-.08.19-8.32,19.3-5.5,36.66a4.15,4.15,0,0,1-3.42,4.76A3.85,3.85,0,0,1,46.86,146.35Z"/><path d="M52.67,99.85a3.42,3.42,0,0,1,1.35.29,3.35,3.35,0,0,1,1.71,4.42c-.13.31-8.42,19.49-5.56,37.11a3.35,3.35,0,0,1-2.77,3.85,3.27,3.27,0,0,1-.54,0,3.36,3.36,0,0,1-3.31-2.81c-3.2-19.67,5.67-40,6.05-40.9a3.36,3.36,0,0,1,3.07-2m0-1.58h0a5,5,0,0,0-4.52,2.94c-.39.88-9.43,21.66-6.16,41.79a4.91,4.91,0,0,0,4.87,4.14,5.25,5.25,0,0,0,.79-.06,4.93,4.93,0,0,0,4.08-5.66c-2.78-17.14,5.37-36,5.45-36.22a4.93,4.93,0,0,0-4.51-6.93Z"/><path class="cls-4" d="M42.82,136.35h7.44a.73.73,0,0,1,.73.73v5a4.45,4.45,0,0,1-4.45,4.45h0a4.45,4.45,0,0,1-4.45-4.45v-5A.73.73,0,0,1,42.82,136.35Z" transform="translate(-8.57 3.12) rotate(-3.51)"/><path class="cls-1" d="M93.48,168.3a30.29,30.29,0,0,1-3.34-.36c-.31-.05-5.57-.92-7.42-.92h0a62.13,62.13,0,0,0-8.68,1.3l-.31.07a9.09,9.09,0,0,1-1.63.16A8.1,8.1,0,0,1,65,164.46a4.43,4.43,0,0,0,1.62,5c3.53,2.44,6.48,1.91,10.22,1.24a38.5,38.5,0,0,1,5.28-.68,46,46,0,0,1,8.29.47c3.87.48,6.67.83,10.37-1.24a5.67,5.67,0,0,0,2.63-5.18C101.35,166.7,97.63,168.3,93.48,168.3Z"/><path class="cls-2" d="M93.48,152.26a13.67,13.67,0,0,0-5.61,1.17l0,0s-2.46,1-4,4.53a.53.53,0,0,1-1-.41A11.17,11.17,0,0,1,85.32,154a10.92,10.92,0,0,0-3.8-4.07,15.12,15.12,0,0,1-3.9,1h-.06a.52.52,0,0,1-.06-1,13.9,13.9,0,0,0,3.83-1l0,0c1.75-.79,2.83-1.89,2.83-3.05,0-2.28-4.07-4.2-8.89-4.2s-8.89,1.92-8.89,4.2c0,1.25,1.24,2.42,3.24,3.22l.07,0a13.3,13.3,0,0,0,2.37.67.51.51,0,0,1,.41.61.52.52,0,0,1-.61.42,14.72,14.72,0,0,1-2.34-.64,11,11,0,0,0-4.15,12.85l0,.06a7.06,7.06,0,0,0,8,4.39l.32-.06A61.2,61.2,0,0,1,82.66,166a72.18,72.18,0,0,1,7.66.94h0c.84.18,3,.33,3.14.34,4.34,0,8.28-2,9.81-4.89a5.53,5.53,0,0,0,.66-2.61C104,155.62,99.26,152.26,93.48,152.26Z"/><path d="M105,159.76a6.52,6.52,0,0,1-.69,2.91,8.8,8.8,0,0,1,.07,2.51,6.38,6.38,0,0,1-3.11,5c-4,2.24-7.09,1.85-11,1.37a45.07,45.07,0,0,0-8.11-.47,37.19,37.19,0,0,0-5.15.67,27.09,27.09,0,0,1-4.78.58,10.42,10.42,0,0,1-6.22-2c-1.71-1.18-3.14-3.79-1.64-7.3a12,12,0,0,1-.67-3.95,11.92,11.92,0,0,1,4.75-9.54c-1.93-1-3.07-2.32-3.07-3.82,0-2.94,4.37-5.25,9.94-5.25s9.94,2.31,9.94,5.25c0,1.38-1,2.64-2.65,3.59a12,12,0,0,1,3.52,3.9,6.21,6.21,0,0,1,1.32-.78,14.7,14.7,0,0,1,6-1.26C99.84,151.21,105,155.05,105,159.76Zm-1.61,4.36c-2.05,2.58-5.77,4.18-9.92,4.18a30.29,30.29,0,0,1-3.34-.36c-.31-.05-5.57-.92-7.42-.92h0a62.13,62.13,0,0,0-8.68,1.3l-.31.07a9.09,9.09,0,0,1-1.63.16A8.1,8.1,0,0,1,65,164.46a4.43,4.43,0,0,0,1.62,5c3.53,2.44,6.48,1.91,10.22,1.24a38.5,38.5,0,0,1,5.28-.68,46,46,0,0,1,8.29.47c3.87.48,6.67.83,10.37-1.24A5.67,5.67,0,0,0,103.4,164.12Zm.56-4.36c0-4.14-4.7-7.5-10.48-7.5a13.67,13.67,0,0,0-5.61,1.17l0,0s-2.46,1-4,4.53a.53.53,0,0,1-1-.41A11.17,11.17,0,0,1,85.32,154a10.92,10.92,0,0,0-3.8-4.07,15.12,15.12,0,0,1-3.9,1h-.06a.52.52,0,0,1-.06-1,13.9,13.9,0,0,0,3.83-1l0,0c1.75-.79,2.83-1.89,2.83-3.05,0-2.28-4.07-4.2-8.89-4.2s-8.89,1.92-8.89,4.2c0,1.25,1.24,2.42,3.24,3.22l.07,0a13.3,13.3,0,0,0,2.37.67.51.51,0,0,1,.41.61.52.52,0,0,1-.61.42,14.72,14.72,0,0,1-2.34-.64,11,11,0,0,0-4.15,12.85l0,.06a7.06,7.06,0,0,0,8,4.39l.32-.06A61.2,61.2,0,0,1,82.66,166a72.18,72.18,0,0,1,7.66.94h0c.84.18,3,.33,3.14.34,4.34,0,8.28-2,9.81-4.89A5.53,5.53,0,0,0,104,159.76Z"/><path class="cls-3" d="M74.94,146.55a5.16,5.16,0,0,1-.67-.05,4.15,4.15,0,0,1-3.42-4.76c2.82-17.36-5.42-36.47-5.51-36.66a4.15,4.15,0,0,1,7.59-3.35c.38.87,9.33,21.46,6.1,41.34A4.13,4.13,0,0,1,74.94,146.55Z"/><path d="M69.13,100.05a3.36,3.36,0,0,1,3.07,2c.38.86,9.25,21.22,6,40.89a3.36,3.36,0,0,1-3.31,2.82,3.27,3.27,0,0,1-.54,0,3.35,3.35,0,0,1-2.77-3.85c2.86-17.62-5.43-36.8-5.56-37.11a3.35,3.35,0,0,1,1.71-4.42,3.25,3.25,0,0,1,1.35-.29m0-1.58a4.87,4.87,0,0,0-2,.42,4.93,4.93,0,0,0-2.52,6.51c.08.18,8.23,19.08,5.45,36.21a4.86,4.86,0,0,0,.86,3.68,4.92,4.92,0,0,0,3.22,2,5.25,5.25,0,0,0,.79.06,4.91,4.91,0,0,0,4.87-4.14c3.27-20.13-5.77-40.91-6.16-41.79a4.93,4.93,0,0,0-4.52-2.94Z"/><path class="cls-4" d="M75.26,136.55h0A4.45,4.45,0,0,1,79.71,141v5a.73.73,0,0,1-.73.73H71.54a.73.73,0,0,1-.73-.73v-5a4.45,4.45,0,0,1,4.45-4.45Z" transform="translate(141.71 287.6) rotate(-176.49)"/><path class="cls-5" d="M17.52,102.85a17.78,17.78,0,0,1-15-9.38A16,16,0,0,1,.91,84.29a19,19,0,0,1,1.23-4.91C4.76,72.78,11.23,68.09,19,67.13a3.71,3.71,0,0,1,.9,7.37c-5.1.63-9.27,3.55-10.88,7.62a9.87,9.87,0,0,0,0,8c1.76,3.5,5.89,5.59,10.51,5.31a3.71,3.71,0,1,1,.44,7.41A21.35,21.35,0,0,1,17.52,102.85Z"/><rect class="cls-6" x="96.49" y="62.38" width="6.04" height="46.71"/><path class="cls-3" d="M102.53,62.38h-6a12.75,12.75,0,0,1-2.31-2.33c-3.05-3.89-5-10.15-5-17.2s2.06-13.55,5.21-17.43a13.1,13.1,0,0,1,2.13-2.09h6a13.51,13.51,0,0,0-2.13,2.09c-3.15,3.88-5.21,10.24-5.21,17.43s2,13.31,5,17.2A13.08,13.08,0,0,0,102.53,62.38Z"/><rect class="cls-6" x="96.49" y="0.79" width="6.04" height="22.54"/><path class="cls-7" d="M100.41,25.42c-3.16,3.88-5.22,10.24-5.22,17.43s2,13.31,5,17.2a13.42,13.42,0,0,0,2.31,2.33v46.71H25.1V61.24c.35-.37.7-.77,1-1.19,3.05-3.89,5-10.15,5-17.2S29.1,29.3,26,25.42c-.28-.33-.56-.65-.85-1V.79h77.43V23.33A13.05,13.05,0,0,0,100.41,25.42Z"/><path class="cls-8" d="M94.36,25.42c-3.15,3.88-5.21,10.24-5.21,17.43s2,13.31,5,17.2a12.75,12.75,0,0,0,2.31,2.33v46.71H25.1V61.24a13.34,13.34,0,0,0,1-1.19c3.05-3.89,5-10.15,5-17.2S29.1,29.3,26,25.42c-.28-.33-.56-.65-.85-1V.79H96.49V23.33A13.1,13.1,0,0,0,94.36,25.42Z"/><path class="cls-9" d="M94.36,25.42c-3.15,3.88-5.21,10.24-5.21,17.43s2,13.31,5,17.2a12.75,12.75,0,0,0,2.31,2.33v46.71H19.05V61.24a15.27,15.27,0,0,0,1-1.19c3.05-3.89,5-10.15,5-17.2S23.06,29.3,19.9,25.42c-.27-.33-.55-.65-.85-1V.79H96.49V23.33A13.1,13.1,0,0,0,94.36,25.42Z"/><path class="cls-10" d="M45.68.79H72.91a0,0,0,0,1,0,0V24.94A13.61,13.61,0,0,1,59.3,38.55h0A13.61,13.61,0,0,1,45.68,24.94V.79a0,0,0,0,1,0,0Z"/><line class="cls-11" x1="59.04" y1="0.86" x2="59.04" y2="38.55"/><circle class="cls-12" cx="66.57" cy="16.94" r="2.76"/><line class="cls-13" x1="96.48" y1="23.33" x2="102.53" y2="23.33"/><line class="cls-13" x1="96.48" y1="62.38" x2="102.53" y2="62.38"/><ellipse class="cls-14" cx="72.71" cy="68.8" rx="9.37" ry="13.87"/><ellipse class="cls-14" cx="47.71" cy="68.07" rx="9.37" ry="13.87"/><ellipse class="cls-15" cx="51.14" cy="63.97" rx="4.82" ry="7.13"/><ellipse class="cls-15" cx="75.97" cy="63.97" rx="4.82" ry="7.13"/><path class="cls-16" d="M79.37,50.28s-5-5.19-9.78,0"/><path class="cls-16" d="M52.28,50.28s-5-5.19-9.78,0"/><circle class="cls-17" cx="77.72" cy="61.26" r="1.45"/><circle class="cls-17" cx="52.61" cy="61.26" r="1.45"/><path class="cls-18" d="M72.11,89.15a2.93,2.93,0,0,1,1.6,5.39,23.77,23.77,0,0,1-25.84,0,2.93,2.93,0,0,1,3.19-4.91,17.92,17.92,0,0,0,19.46,0A3,3,0,0,1,72.11,89.15Z"/><path class="cls-19" d="M49.47,91.1a.94.94,0,0,1,.53.16,19.86,19.86,0,0,0,21.58,0,1,1,0,1,1,1.07,1.65,21.83,21.83,0,0,1-23.72,0,1,1,0,0,1-.28-1.36A1,1,0,0,1,49.47,91.1Z"/><ellipse class="cls-20" cx="21.01" cy="107.87" rx="1.43" ry="2.45" transform="translate(-85.21 79.68) rotate(-64.12)"/><path class="cls-21" d="M21.29,94.32h0A1.7,1.7,0,0,0,19,94.1l-.05,0a9.69,9.69,0,0,0-3.89,8.62v.1a2,2,0,0,0,1.81,1.81h0a1.32,1.32,0,0,0,1.25-.57l2.69-3.87a7.14,7.14,0,0,0,1.26-3.71h0A3,3,0,0,0,21.29,94.32Z"/><path class="cls-22" d="M20.44,97.38h0a7,7,0,0,1,8.52.13,10.36,10.36,0,0,1,1.75,1.81,12.82,12.82,0,0,1,.91,1.45,7.35,7.35,0,0,1,.49,5.86h0a.72.72,0,0,1-1.28.18l-1.57-2.35"/><ellipse class="cls-17" cx="24.81" cy="102.79" rx="4.83" ry="6.21" transform="translate(-62.67 43.39) rotate(-42.26)"/><path class="cls-22" d="M29.88,103.47a6.81,6.81,0,0,1,1.35,2.59A4.31,4.31,0,0,1,30,110.24a4.94,4.94,0,0,1-.56.44,2.18,2.18,0,0,1-2.5-.11h0"/><path class="cls-22" d="M27,106.1a8.75,8.75,0,0,1,.83,4,3,3,0,0,1-.57,1.88,4.19,4.19,0,0,1-3.47,1.71l-.38,0a6,6,0,0,1-2.81-1l-2.17-1.4a1.85,1.85,0,0,1-.74-2.23l0-.06a1.24,1.24,0,0,1,1.47-.66l2.78.83a.15.15,0,0,0,.14-.26l-1.5-1.2a5.82,5.82,0,0,1-2.1-5.53c.09-.5.19-1,.28-1.51"/><path class="cls-23" d="M98.91,71.53l.71,9.62c.7-.05,7.1-.61,15.8-4.92a64.87,64.87,0,0,0,14.39-9.82,79.1,79.1,0,0,0,12.92-15l-8-5.61c-6.46,9.78-14.27,17-23.27,21.62A38.66,38.66,0,0,1,98.91,71.53Z"/><path class="cls-24" d="M132.61,40.62s-3.54,2.76.75,7.43c5,5.41,16.11,4.86,13.84-2.13Z"/><ellipse class="cls-17" cx="143.45" cy="39.26" rx="7.69" ry="7.52" transform="translate(47.95 153.28) rotate(-65.36)"/><path class="cls-17" d="M152.33,40.62a8.84,8.84,0,0,1-1.77,4.14,5.59,5.59,0,0,1-3.16,2.06h0a8.13,8.13,0,0,1-4,0l-1.52-.38"/><path d="M152,40.51c-.38,2.55-1.89,5.18-4.5,5.9a10.26,10.26,0,0,1-5.49-.36.38.38,0,0,0-.2.73c2.06.53,4.11,1,6.2.27,2.69-.9,4.32-3.63,4.73-6.33.07-.48-.67-.69-.74-.21Z"/><path class="cls-25" d="M149.68,31.56a4.37,4.37,0,0,1,4.54-.76,2.75,2.75,0,0,1,1.37,1.32,4.46,4.46,0,0,1,.42,2.14,5.65,5.65,0,0,1-.2,1.22c-.11.39-.22.75-.34,1.08A8.38,8.38,0,0,1,153,40.11h0a5.18,5.18,0,0,1-2.54,1.21l-.24,0a2.39,2.39,0,0,1-1.86-.47h0a1.7,1.7,0,0,1-.67-1.41v-.16a5.79,5.79,0,0,1,1.46-3.69l2.22-2.51a.06.06,0,0,0-.07-.09L148,35a.09.09,0,0,1-.13-.12Z"/><path class="cls-25" d="M144.57,27.91a4.74,4.74,0,0,1,4.85-1.25A2.92,2.92,0,0,1,151,28a4.76,4.76,0,0,1,.66,2.28,6.05,6.05,0,0,1-.1,1.35q-.12.65-.27,1.2A9.22,9.22,0,0,1,149,36.88h0a5.67,5.67,0,0,1-2.65,1.55l-.26.07a2.62,2.62,0,0,1-2.06-.33h0a1.93,1.93,0,0,1-.86-1.48v-.17a6.33,6.33,0,0,1,1.23-4.14l2.18-2.94a.06.06,0,0,0-.09-.08l-3.37,2.48a.1.1,0,0,1-.15-.12Z"/><path class="cls-24" d="M137.38,29.67l3.39-8.56,2.16-5.47a3.33,3.33,0,0,1,3.92-2h0c1.53.74,2.18,2.27,2.17,4.38-.44,5.14-2.94,9.62-5.69,14Z"/><path class="cls-17" d="M138.11,44.73c-3-1.61-6.17-2.88-5.87-9.47.15-2.9,1.13-4.81,2.92-5.77a3.49,3.49,0,0,1,2.27-.32,13.25,13.25,0,0,1,2.93.93,7.22,7.22,0,0,0,2.79.62,6.79,6.79,0,0,1,1.21.14,2.93,2.93,0,0,1,.68,5.38,5.37,5.37,0,0,1-2.9.77,7.83,7.83,0,0,1-4.9-1.95l4.15,2.66.21.11a1.45,1.45,0,0,1,.67.76A3.66,3.66,0,0,1,142.5,41l-.42,1.78"/><path d="M138.3,44.4a12.29,12.29,0,0,1-4.26-3c-1.55-2-1.7-5-1.27-7.49a6,6,0,0,1,1.63-3.38c1.28-1.21,2.77-1.09,4.35-.6A17.6,17.6,0,0,0,143,31.09a3.89,3.89,0,0,1,2.09.51,2.49,2.49,0,0,1,1,2c0,1.8-1.67,2.76-3.29,3a7.34,7.34,0,0,1-5.34-1.81l-.46.59,3.73,2.4.42.27a2.35,2.35,0,0,1,1,2.42,19.15,19.15,0,0,1-.49,2.22.38.38,0,0,0,.74.2,14.66,14.66,0,0,0,.53-2.62,3.67,3.67,0,0,0-.55-2.17,2.46,2.46,0,0,0-1-.77c-1.37-.83-2.7-1.74-4-2.6-.36-.23-.8.32-.46.6a8.5,8.5,0,0,0,4.91,2.05,5.28,5.28,0,0,0,4.35-1.67,3.43,3.43,0,0,0,.11-3.92c-1-1.53-2.67-1.28-4.27-1.56-1.85-.33-3.49-1.56-5.43-1.5a4.57,4.57,0,0,0-3.56,2.15,8.82,8.82,0,0,0-1.24,4.66,11.36,11.36,0,0,0,.67,4.66c1,2.47,3.17,3.65,5.4,4.85.43.24.81-.42.38-.65Z"/></g></g></svg>