<svg xmlns="http://www.w3.org/2000/svg" viewBox="0 0 71.45 156.93"><defs><style>.cls-1,.cls-12{fill:#d88500;}.cls-1,.cls-10,.cls-11,.cls-14,.cls-15,.cls-17,.cls-19,.cls-2,.cls-20,.cls-21,.cls-22,.cls-23,.cls-24,.cls-4,.cls-7,.cls-8{stroke:#000;}.cls-1,.cls-14,.cls-20,.cls-4{stroke-linecap:round;}.cls-1,.cls-14,.cls-4{stroke-linejoin:round;}.cls-1{stroke-width:0.99px;}.cls-2,.cls-21,.cls-3,.cls-4,.cls-8{fill:#fff;}.cls-10,.cls-11,.cls-15,.cls-17,.cls-18,.cls-19,.cls-2,.cls-20,.cls-21,.cls-22,.cls-23,.cls-24,.cls-7,.cls-8{stroke-miterlimit:10;}.cls-2{stroke-width:0.65px;}.cls-4{stroke-width:0.69px;}.cls-5{fill:#e5e5e5;}.cls-6{fill:#760dc9;}.cls-7{fill:#d7840b;stroke-width:1.1px;}.cls-8{stroke-width:1.01px;}.cls-9{fill:#fbccac;}.cls-10{fill:#ff7bac;}.cls-10,.cls-11,.cls-19,.cls-20{stroke-width:1.31px;}.cls-11{fill:#ccc;}.cls-13{fill:#f9b233;}.cls-14{stroke-width:0.01px;}.cls-15{fill:#666;}.cls-15,.cls-21{stroke-width:0.66px;}.cls-16,.cls-17,.cls-18,.cls-19,.cls-20{fill:none;}.cls-17{stroke-width:0.98px;}.cls-18{stroke:#bf720c;stroke-width:0.53px;}.cls-22{stroke-width:0.08px;}.cls-23{fill:#ffd18f;stroke-width:0.32px;}.cls-24{stroke-width:0.06px;}</style></defs><title>lt14</title><g id="Layer_2" data-name="Layer 2"><g id="personaje"><path class="cls-1" d="M6.74,102.81q3.24.66,6.51,1.14c2.05-10,4.94-16.45,7.18-20.24,2.73-4.62,5.05-6.35,5.29-6.51h0l-.76-6.73a29.16,29.16,0,0,0-9.79,9.21A58,58,0,0,0,9.84,91.2,90.88,90.88,0,0,0,6.74,102.81Z"/><path class="cls-2" d="M3.32,106.39S2,103.16,6.48,101.58c5.14-1.84,12.1,2.7,8.13,6.65Z"/><ellipse class="cls-3" cx="8.75" cy="107.68" rx="5.18" ry="3.99"/><path class="cls-4" d="M7.67,103.82c-3.14.12-5.56,2.05-6.81,6.94-.79,3.32-.66,5.89.28,7.8a2.28,2.28,0,0,0,2.66,1.19h0L4.26,117"/><path class="cls-4" d="M3.66,112.53a11.37,11.37,0,0,0-.84,6.34,6,6,0,0,0,2,3.72,1.84,1.84,0,0,0,1.76.45h0a1.2,1.2,0,0,0,.76-1.55L6.84,120a8.06,8.06,0,0,1-.48-2.33,19.3,19.3,0,0,1,.36-4.23,12.43,12.43,0,0,0,.59,8A3.08,3.08,0,0,0,9,123H9a1.6,1.6,0,0,0,1.73-.38l.25-.26a2.65,2.65,0,0,0,.75-1.85h0a2.09,2.09,0,0,0-.18-.85l-.23-.55a6.9,6.9,0,0,1-.53-3.45l.25-2.47a.13.13,0,0,1,.25,0,12.22,12.22,0,0,0,.43,2.32,5.35,5.35,0,0,0,1.15,2l.16.18a2.12,2.12,0,0,0,1.17.7,1.7,1.7,0,0,0,1.1-.16,1.81,1.81,0,0,0,.79-2.31l-.46-1.11a7.74,7.74,0,0,1-.52-4l.09-.64a4.26,4.26,0,0,0-.22-2h0a5.89,5.89,0,0,0-1.68-2.46L12,104.69"/><path class="cls-1" d="M66.36,103.28c-2.16.43-4.34.81-6.52,1.14-2-10-4.93-16.46-7.17-20.24-2.73-4.62-5.06-6.35-5.29-6.52l0,0L48.16,71A28.93,28.93,0,0,1,58,80.16a57.61,57.61,0,0,1,5.29,11.5A91,91,0,0,1,66.36,103.28Z"/><path class="cls-2" d="M68.62,106.74s1.48-3.14-2.85-5c-5-2.15-12.25,2-8.53,6.14Z"/><ellipse class="cls-3" cx="63.13" cy="107.7" rx="3.99" ry="5.18" transform="translate(-48.25 164.09) rotate(-86.48)"/><path class="cls-4" d="M64.44,103.91c3.13.31,5.42,2.39,6.37,7.35.58,3.36.29,5.92-.76,7.77a2.28,2.28,0,0,1-2.73,1h0L67,117.24"/><path class="cls-4" d="M67.91,112.85a11.49,11.49,0,0,1,.45,6.38,6.05,6.05,0,0,1-2.26,3.59,1.84,1.84,0,0,1-1.78.34h0a1.19,1.19,0,0,1-.65-1.59l.64-1.5a8.27,8.27,0,0,0,.62-2.29,19.64,19.64,0,0,0-.1-4.25,12.43,12.43,0,0,1-1.09,8,3,3,0,0,1-1.77,1.5h0a1.59,1.59,0,0,1-1.7-.48l-.24-.27a2.73,2.73,0,0,1-.63-1.9h0a2.24,2.24,0,0,1,.23-.84l.26-.53a7,7,0,0,0,.75-3.41l-.1-2.48a.13.13,0,0,0-.25,0,12.51,12.51,0,0,1-.57,2.29,5.47,5.47,0,0,1-1.27,2l-.18.17a2.11,2.11,0,0,1-1.21.62,1.68,1.68,0,0,1-1.09-.22,1.81,1.81,0,0,1-.65-2.35l.53-1.08a7.72,7.72,0,0,0,.77-3.95l-.05-.64a4.32,4.32,0,0,1,.34-2h0a6,6,0,0,1,1.83-2.36l1.32-1"/><path class="cls-5" d="M13.43,153.48a23.71,23.71,0,0,0,2.27-1.09,54.21,54.21,0,0,1,5-2.5h0a45.38,45.38,0,0,1,6.44-1.25l.24,0a5.67,5.67,0,0,0,1.18-.3,6,6,0,0,0,4-4.64,3.29,3.29,0,0,1,.12,4c-1.88,2.61-4.09,3-6.89,3.43a27.16,27.16,0,0,0-3.9.84,35.3,35.3,0,0,0-5.73,2.39c-2.61,1.31-4.49,2.25-7.61,1.72a4.23,4.23,0,0,1-3.15-3A9.46,9.46,0,0,0,13.43,153.48Z"/><path class="cls-6" d="M9.43,142.17a10.18,10.18,0,0,1,4.25-.58h0a6.17,6.17,0,0,1,3.93,2.21.4.4,0,0,0,.56,0,.38.38,0,0,0,0-.55,8.18,8.18,0,0,0-2.61-2,8.14,8.14,0,0,1,1.66-3.82,11,11,0,0,0,3-.27h0a.41.41,0,0,0,.25-.46.39.39,0,0,0-.47-.29,10.76,10.76,0,0,1-2.95.25h0c-1.43-.11-2.47-.62-2.76-1.44-.57-1.6,1.83-4,5.22-5.18s6.75-.86,7.32.74c.31.88-.27,2-1.48,3.08l0,0A10.25,10.25,0,0,1,23.85,135a.39.39,0,1,0,.4.67,10.25,10.25,0,0,0,1.49-1,8.15,8.15,0,0,1,5.66,5.19,8.28,8.28,0,0,1,.47,2.83v.05a5.27,5.27,0,0,1-4.57,5.1l-.24,0a45.7,45.7,0,0,0-6.58,1.28,52.23,52.23,0,0,0-5.17,2.57h0a21.41,21.41,0,0,1-2.12,1c-3.06,1.09-6.33.69-8.14-1a4.25,4.25,0,0,1-1.12-1.68C2.88,147.15,5.36,143.61,9.43,142.17Z"/><path d="M3.17,150.33a4.81,4.81,0,0,0,1.22,1.88A6.26,6.26,0,0,0,5,154a4.75,4.75,0,0,0,3.44,2.77c3.38.58,5.46-.46,8.1-1.79a35.83,35.83,0,0,1,5.61-2.35,29.37,29.37,0,0,1,3.79-.81,20.84,20.84,0,0,0,3.52-.78,7.85,7.85,0,0,0,3.89-3c.91-1.26,1.26-3.45-.67-5.56a8.7,8.7,0,0,0-.51-2.94A8.94,8.94,0,0,0,26.41,134c1.12-1.16,1.58-2.4,1.21-3.46-.74-2.07-4.39-2.61-8.32-1.22s-6.43,4.11-5.69,6.18a3.29,3.29,0,0,0,2.76,1.87A9,9,0,0,0,14.86,141a5,5,0,0,0-1.12-.22,11,11,0,0,0-4.57.62C4.69,143,2,147,3.17,150.33ZM5.4,153a9.46,9.46,0,0,0,8,.47,23.71,23.71,0,0,0,2.27-1.09,54.21,54.21,0,0,1,5-2.5h0a45.38,45.38,0,0,1,6.44-1.25l.24,0a5.67,5.67,0,0,0,1.18-.3,6,6,0,0,0,4-4.64,3.29,3.29,0,0,1,.12,4c-1.88,2.61-4.09,3-6.89,3.43a27.16,27.16,0,0,0-3.9.84,35.3,35.3,0,0,0-5.73,2.39c-2.61,1.31-4.49,2.25-7.61,1.72A4.23,4.23,0,0,1,5.4,153Zm-1.49-2.94c-1-2.92,1.45-6.46,5.52-7.9a10.18,10.18,0,0,1,4.25-.58h0a6.17,6.17,0,0,1,3.93,2.21.4.4,0,0,0,.56,0,.38.38,0,0,0,0-.55,8.18,8.18,0,0,0-2.61-2,8.14,8.14,0,0,1,1.66-3.82,11,11,0,0,0,3-.27h0a.41.41,0,0,0,.25-.46.39.39,0,0,0-.47-.29,10.76,10.76,0,0,1-2.95.25h0c-1.43-.11-2.47-.62-2.76-1.44-.57-1.6,1.83-4,5.22-5.18s6.75-.86,7.32.74c.31.88-.27,2-1.48,3.08l0,0A10.25,10.25,0,0,1,23.85,135a.39.39,0,1,0,.4.67,10.25,10.25,0,0,0,1.49-1,8.15,8.15,0,0,1,5.66,5.19,8.28,8.28,0,0,1,.47,2.83v.05a5.27,5.27,0,0,1-4.57,5.1l-.24,0a45.7,45.7,0,0,0-6.58,1.28,52.23,52.23,0,0,0-5.17,2.57h0a21.41,21.41,0,0,1-2.12,1c-3.06,1.09-6.33.69-8.14-1A4.25,4.25,0,0,1,3.91,150.07Z"/><path class="cls-7" d="M24.34,103.1h0a3.32,3.32,0,0,1,3.85,1.77l0,0a3.32,3.32,0,0,1-1.32,4.32l-3.19,1.85a6.42,6.42,0,0,0-3.18,5h0a24,24,0,0,0,1.22,9.81L23,129.66A3.31,3.31,0,0,1,20.62,134h0a3.33,3.33,0,0,1-4-2.37l-3-11.18a2.84,2.84,0,0,1-.1-.49h0a18.45,18.45,0,0,1,2.09-10.81h0a8.28,8.28,0,0,1,2.71-3l2.74-1.67A12.12,12.12,0,0,1,24.34,103.1Z"/><path class="cls-8" d="M16.64,126.09h6.15a.6.6,0,0,1,.6.6v4.11a3.68,3.68,0,0,1-3.68,3.68h0A3.68,3.68,0,0,1,16,130.8v-4.11a.6.6,0,0,1,.6-.6Z" transform="translate(-34.35 10.12) rotate(-15.62)"/><path class="cls-5" d="M56.45,153.48a23.71,23.71,0,0,1-2.27-1.09,54.65,54.65,0,0,0-5-2.5h0a45.38,45.38,0,0,0-6.44-1.25l-.24,0a5.93,5.93,0,0,1-1.19-.3,6.07,6.07,0,0,1-4-4.64,3.33,3.33,0,0,0-.12,4c1.89,2.61,4.1,3,6.9,3.43a27.45,27.45,0,0,1,3.9.84,34.77,34.77,0,0,1,5.72,2.39c2.61,1.31,4.5,2.25,7.62,1.72a4.23,4.23,0,0,0,3.15-3A9.46,9.46,0,0,1,56.45,153.48Z"/><path class="cls-6" d="M60.45,142.17a10.18,10.18,0,0,0-4.25-.58h0a6.2,6.2,0,0,0-3.94,2.21.39.39,0,1,1-.57-.53,8.18,8.18,0,0,1,2.61-2,8.24,8.24,0,0,0-1.66-3.82,11.11,11.11,0,0,1-3-.27h0a.39.39,0,0,1-.25-.46.38.38,0,0,1,.46-.29,10.86,10.86,0,0,0,3,.25h0c1.43-.11,2.46-.62,2.75-1.44.57-1.6-1.82-4-5.22-5.18s-6.74-.86-7.31.74c-.31.88.26,2,1.48,3.08l0,0A10.68,10.68,0,0,0,46,135a.39.39,0,0,1,.15.53.39.39,0,0,1-.54.14,10.25,10.25,0,0,1-1.49-1,8.15,8.15,0,0,0-5.66,5.19,7.83,7.83,0,0,0-.47,2.83v.05a5.27,5.27,0,0,0,4.56,5.1l.24,0a45.17,45.17,0,0,1,6.58,1.28,50,50,0,0,1,5.17,2.57h0a22.45,22.45,0,0,0,2.13,1c3.06,1.09,6.33.69,8.14-1A4.36,4.36,0,0,0,66,150.07C67,147.15,64.52,143.61,60.45,142.17Z"/><path d="M66.7,150.33a4.9,4.9,0,0,1-1.21,1.88,6.26,6.26,0,0,1-.58,1.79,4.77,4.77,0,0,1-3.45,2.77c-3.37.58-5.46-.46-8.1-1.79a35.27,35.27,0,0,0-5.6-2.35,29.86,29.86,0,0,0-3.8-.81,20.94,20.94,0,0,1-3.51-.78,7.85,7.85,0,0,1-3.89-3c-.91-1.26-1.27-3.45.67-5.56a8.7,8.7,0,0,1,.51-2.94A8.92,8.92,0,0,1,43.47,134c-1.12-1.16-1.58-2.4-1.21-3.46.73-2.07,4.39-2.61,8.32-1.22s6.43,4.11,5.69,6.18a3.29,3.29,0,0,1-2.76,1.87A8.85,8.85,0,0,1,55,141a5.11,5.11,0,0,1,1.13-.22,11,11,0,0,1,4.57.62C65.19,143,67.88,147,66.7,150.33ZM64.48,153a9.46,9.46,0,0,1-8,.47,23.71,23.71,0,0,1-2.27-1.09,54.65,54.65,0,0,0-5-2.5h0a45.38,45.38,0,0,0-6.44-1.25l-.24,0a5.93,5.93,0,0,1-1.19-.3,6.07,6.07,0,0,1-4-4.64,3.33,3.33,0,0,0-.12,4c1.89,2.61,4.1,3,6.9,3.43a27.45,27.45,0,0,1,3.9.84,34.77,34.77,0,0,1,5.72,2.39c2.61,1.31,4.5,2.25,7.62,1.72A4.23,4.23,0,0,0,64.48,153ZM66,150.07c1-2.92-1.45-6.46-5.52-7.9a10.18,10.18,0,0,0-4.25-.58h0a6.2,6.2,0,0,0-3.94,2.21.39.39,0,1,1-.57-.53,8.18,8.18,0,0,1,2.61-2,8.24,8.24,0,0,0-1.66-3.82,11.11,11.11,0,0,1-3-.27h0a.39.39,0,0,1-.25-.46.38.38,0,0,1,.46-.29,10.86,10.86,0,0,0,3,.25h0c1.43-.11,2.46-.62,2.75-1.44.57-1.6-1.82-4-5.22-5.18s-6.74-.86-7.31.74c-.31.88.26,2,1.48,3.08l0,0A10.68,10.68,0,0,0,46,135a.39.39,0,0,1,.15.53.39.39,0,0,1-.54.14,10.25,10.25,0,0,1-1.49-1,8.15,8.15,0,0,0-5.66,5.19,7.83,7.83,0,0,0-.47,2.83v.05a5.27,5.27,0,0,0,4.56,5.1l.24,0a45.17,45.17,0,0,1,6.58,1.28,50,50,0,0,1,5.17,2.57h0a22.45,22.45,0,0,0,2.13,1c3.06,1.09,6.33.69,8.14-1A4.36,4.36,0,0,0,66,150.07Z"/><path class="cls-7" d="M45.31,102.9h0a3.32,3.32,0,0,0-3.85,1.77l0,0A3.32,3.32,0,0,0,42.76,109L46,110.87a6.49,6.49,0,0,1,3.19,5h0a24.2,24.2,0,0,1-1.23,9.81l-1.27,3.73A3.31,3.31,0,0,0,49,133.77h0a3.34,3.34,0,0,0,4-2.37l3-11.18a2.84,2.84,0,0,0,.1-.49h0A18.48,18.48,0,0,0,54,108.91h0a8.34,8.34,0,0,0-2.71-3l-2.74-1.67A12.12,12.12,0,0,0,45.31,102.9Z"/><path class="cls-8" d="M49.94,125.89h0a3.68,3.68,0,0,1,3.68,3.68v4.11a.6.6,0,0,1-.6.6H46.86a.6.6,0,0,1-.6-.6v-4.11a3.68,3.68,0,0,1,3.68-3.68Z" transform="translate(63.01 268.81) rotate(-164.38)"/><polygon class="cls-9" points="51.43 22.42 46.41 27.48 41.5 22.42 36.61 27.48 31.68 22.42 26.77 27.48 21.78 22.42 36.58 1.15 51.43 22.42"/><path class="cls-10" d="M50.92,103.68a12.89,12.89,0,0,1-2.65,5.1c-4.24,4.93-10.78,4.62-11.66,4.56a15.77,15.77,0,0,1-11.15-4.51,14.63,14.63,0,0,1-3.22-5.15Z"/><path class="cls-11" d="M51.17,91.24l0,11.46a10,10,0,0,1-.22,1H22.24c-.16-.44-.29-.85-.38-1.19V91.24Z"/><path class="cls-12" d="M51.43,22.42v8.84s-.2,40-.26,60H41.5V22.42l4.91,5.06Z"/><polygon class="cls-12" points="31.66 22.41 31.66 91.23 21.84 91.23 21.76 31.24 21.76 22.41 26.75 27.46 31.66 22.41"/><polygon class="cls-13" points="41.5 22.42 41.5 91.24 31.68 91.24 31.68 22.42 36.61 27.48 41.5 22.42"/><path class="cls-14" d="M33.34,6a4.72,4.72,0,0,0,6.35,0L36.58,1.15Z"/><line class="cls-15" x1="21.86" y1="93.53" x2="51.35" y2="93.53"/><line class="cls-15" x1="21.86" y1="101.51" x2="51.35" y2="101.51"/><line class="cls-16" x1="41.5" y1="22.42" x2="41.5" y2="22.39"/><line class="cls-17" x1="31.68" y1="91.25" x2="31.68" y2="91.24"/><line class="cls-17" x1="31.68" y1="22.42" x2="31.68" y2="22.42"/><line class="cls-18" x1="41.5" y1="22.39" x2="41.5" y2="91.24"/><line class="cls-18" x1="31.68" y1="22.46" x2="31.68" y2="91.24"/><path class="cls-19" d="M51.43,22.42,36.58,1.15,21.78,22.42v8.84l.08,60H51.17c.06-20,.26-60,.26-60Z"/><polyline class="cls-19" points="21.78 22.42 26.77 27.48 31.68 22.42 36.61 27.48 41.5 22.42 46.41 27.48 51.43 22.42"/><path class="cls-20" d="M24.36,39.45s3.23-3.37,6.35,0"/><path class="cls-20" d="M42,39.45s3.23-3.37,6.36,0"/><ellipse class="cls-21" cx="28.68" cy="51.48" rx="6.08" ry="9.01"/><ellipse class="cls-22" cx="31.66" cy="49.88" rx="3.13" ry="4.63"/><circle class="cls-3" cx="30.38" cy="48.19" r="1.2"/><ellipse class="cls-21" cx="44.93" cy="51.01" rx="6.08" ry="9.01"/><ellipse class="cls-22" cx="47.88" cy="49.88" rx="3.13" ry="4.63"/><circle class="cls-3" cx="46.68" cy="48.19" r="1.2"/><path class="cls-23" d="M45.73,63.7A2.39,2.39,0,0,1,47,68.1a19.41,19.41,0,0,1-21.11,0,2.4,2.4,0,0,1,2.61-4,14.6,14.6,0,0,0,15.9,0A2.37,2.37,0,0,1,45.73,63.7Z"/><path class="cls-24" d="M27.22,65.29a.78.78,0,0,1,.44.13,16.23,16.23,0,0,0,17.63,0,.8.8,0,0,1,1.11.24.81.81,0,0,1-.23,1.11,17.84,17.84,0,0,1-19.38,0,.8.8,0,0,1,.43-1.47Z"/></g></g></svg>