<svg xmlns="http://www.w3.org/2000/svg" viewBox="0 0 84.19 150.19"><defs><style>.cls-1,.cls-13{fill:#d88500;}.cls-1,.cls-11,.cls-12,.cls-15,.cls-16,.cls-18,.cls-2,.cls-20,.cls-21,.cls-22,.cls-23,.cls-24,.cls-25,.cls-26,.cls-27,.cls-4,.cls-5,.cls-8,.cls-9{stroke:#000;}.cls-1,.cls-15,.cls-21,.cls-4{stroke-linecap:round;}.cls-1,.cls-15,.cls-4{stroke-linejoin:round;}.cls-1{stroke-width:0.95px;}.cls-2,.cls-25,.cls-26,.cls-3,.cls-4,.cls-5,.cls-9{fill:#fff;}.cls-11,.cls-12,.cls-16,.cls-18,.cls-19,.cls-2,.cls-20,.cls-21,.cls-22,.cls-23,.cls-24,.cls-25,.cls-26,.cls-27,.cls-5,.cls-8,.cls-9{stroke-miterlimit:10;}.cls-2{stroke-width:0.62px;}.cls-4{stroke-width:0.66px;}.cls-5{stroke-width:0.67px;}.cls-6{fill:#e5e5e5;}.cls-7{fill:#760dc9;}.cls-8{fill:#d7840b;stroke-width:1.05px;}.cls-9{stroke-width:0.97px;}.cls-10{fill:#fbccac;}.cls-11{fill:#ff7bac;}.cls-11,.cls-12,.cls-20,.cls-21{stroke-width:1.26px;}.cls-12{fill:#ccc;}.cls-14{fill:#f9b233;}.cls-15{stroke-width:0.01px;}.cls-16{fill:#666;}.cls-16,.cls-26{stroke-width:0.63px;}.cls-17,.cls-18,.cls-19,.cls-20,.cls-21{fill:none;}.cls-18{stroke-width:0.94px;}.cls-19{stroke:#bf720c;stroke-width:0.5px;}.cls-22{fill:#abd6bd;stroke-width:0.24px;}.cls-23{fill:#ffd18f;stroke-width:0.47px;}.cls-24,.cls-25{stroke-width:0.02px;}.cls-27{stroke-width:0.08px;}</style></defs><title>lt15</title><g id="Layer_2" data-name="Layer 2"><g id="personaje"><path class="cls-1" d="M6.45,98.39q3.1.63,6.23,1.09c2-9.61,4.73-15.74,6.87-19.37,2.61-4.42,4.84-6.07,5.06-6.23h0l-.73-6.44a27.86,27.86,0,0,0-9.37,8.81,55.23,55.23,0,0,0-5.07,11A87.24,87.24,0,0,0,6.45,98.39Z"/><path class="cls-2" d="M3.18,101.81s-1.23-3.08,3-4.6c4.92-1.76,11.58,2.59,7.78,6.36Z"/><ellipse class="cls-3" cx="8.37" cy="103.05" rx="4.96" ry="3.82"/><path class="cls-4" d="M7.34,99.36c-3,.11-5.32,2-6.51,6.64-.76,3.18-.63,5.64.26,7.47a2.18,2.18,0,0,0,2.55,1.13h0l.44-2.67"/><path class="cls-4" d="M3.5,107.69a10.88,10.88,0,0,0-.8,6.07,5.79,5.79,0,0,0,1.94,3.56,1.77,1.77,0,0,0,1.68.43h0a1.15,1.15,0,0,0,.72-1.48l-.52-1.47a7.78,7.78,0,0,1-.46-2.22,18.36,18.36,0,0,1,.34-4.06A11.93,11.93,0,0,0,7,116.2a2.94,2.94,0,0,0,1.6,1.54h0a1.55,1.55,0,0,0,1.66-.36l.24-.25a2.55,2.55,0,0,0,.71-1.77h0a2.1,2.1,0,0,0-.16-.82l-.23-.52a6.67,6.67,0,0,1-.5-3.3l.23-2.37a.13.13,0,0,1,.25,0,12.21,12.21,0,0,0,.4,2.22,5.28,5.28,0,0,0,1.1,2l.16.18a2,2,0,0,0,1.12.66,1.59,1.59,0,0,0,1.06-.14,1.74,1.74,0,0,0,.75-2.21L15,109.93a7.41,7.41,0,0,1-.5-3.81l.08-.61a4,4,0,0,0-.2-1.91h0a5.73,5.73,0,0,0-1.61-2.36l-1.21-1"/><path class="cls-1" d="M75.47,101.4q-3.75,1.32-7.57,2.46c-4.13-11.62-8.65-18.78-12-22.91-4-5-7.09-6.71-7.4-6.87h0l-.22-8.15c.45.21,8,3,13.22,9.32a70.3,70.3,0,0,1,8.25,12.82A110.89,110.89,0,0,1,75.47,101.4Z"/><path class="cls-5" d="M74.17,99.52c-1.13-1.36-3.77-1-5.91.74s-3,4.31-1.82,5.67,3.77,1,5.9-.75S75.29,100.88,74.17,99.52Z"/><path class="cls-5" d="M71.56,100.61a3.32,3.32,0,0,1-4,1c-2.58-1-4.73-1.2-5.53.71-.73,1.75.56,4.13,5.65,3.42,0,0-.47,4.92,4.74,3.68,0,0,2.89,4.16,8.43.25S77.23,101,77.23,101L73,100.72Z"/><path class="cls-5" d="M77,108.06s1.58-5.21,5.22-3.58.46,10.8-2.14,9.87-1.26-4.65.07-6.33"/><path class="cls-5" d="M74.49,105.93s.15-5.44,4.09-4.83,3.29,10.3.54,10.09-2.44-4.16-1.61-6.13"/><path class="cls-5" d="M70.68,103.34s-.11-5.44,3.86-5,3.77,10.13,1,10.05-2.63-4-1.89-6"/><path class="cls-6" d="M12.85,146.88a20,20,0,0,0,2.18-1c.19-.1,3.53-1.94,4.78-2.39h0A44.57,44.57,0,0,1,26,142.24l.23,0a6.91,6.91,0,0,0,1.13-.28,5.8,5.8,0,0,0,3.79-4.45,3.19,3.19,0,0,1,.12,3.8c-1.8,2.49-3.92,2.83-6.6,3.27a27.67,27.67,0,0,0-3.73.81,32.47,32.47,0,0,0-5.48,2.29c-2.5,1.25-4.31,2.15-7.29,1.64a4,4,0,0,1-3-2.86A9,9,0,0,0,12.85,146.88Z"/><path class="cls-7" d="M9,136.05a10,10,0,0,1,4.07-.55h0a5.91,5.91,0,0,1,3.77,2.11.37.37,0,0,0,.52,0,.37.37,0,0,0,0-.53,7.86,7.86,0,0,0-2.5-1.86,7.77,7.77,0,0,1,1.59-3.66,10.46,10.46,0,0,0,2.86-.26h.05a.39.39,0,0,0,.24-.44.38.38,0,0,0-.45-.28,10.24,10.24,0,0,1-2.83.24h0c-1.36-.11-2.36-.59-2.63-1.38-.55-1.53,1.74-3.8,5-4.95s6.46-.83,7,.71c.3.84-.25,1.93-1.41,2.94,0,0,0,0,0,0a9.83,9.83,0,0,1-1.44,1,.37.37,0,0,0,.37.65,9.44,9.44,0,0,0,1.43-1,7.83,7.83,0,0,1,5.87,7.68v.05a5.06,5.06,0,0,1-4.37,4.88l-.23,0a44.86,44.86,0,0,0-6.3,1.22,51.93,51.93,0,0,0-4.94,2.46h0a17.9,17.9,0,0,1-2,1c-2.93,1-6.06.66-7.79-.95a4.14,4.14,0,0,1-1.07-1.6C2.76,140.83,5.13,137.43,9,136.05Z"/><path d="M3,143.87a4.76,4.76,0,0,0,1.16,1.8,6.57,6.57,0,0,0,.55,1.71A4.6,4.6,0,0,0,8.05,150c3.23.55,5.23-.45,7.75-1.71a32.56,32.56,0,0,1,5.37-2.25,26.66,26.66,0,0,1,3.63-.78,19.19,19.19,0,0,0,3.36-.75,7.49,7.49,0,0,0,3.72-2.82,4.09,4.09,0,0,0-.63-5.33,8.8,8.8,0,0,0-.49-2.82,8.55,8.55,0,0,0-5.48-5.3c1.07-1.11,1.51-2.3,1.15-3.31-.7-2-4.2-2.5-8-1.17s-6.15,3.93-5.45,5.91a3.16,3.16,0,0,0,2.64,1.79A8.68,8.68,0,0,0,14.22,135a4.23,4.23,0,0,0-1.07-.21,10.44,10.44,0,0,0-4.38.59C4.49,136.87,1.91,140.69,3,143.87Zm2.13,2.56a9,9,0,0,0,7.68.45,20,20,0,0,0,2.18-1c.19-.1,3.53-1.94,4.78-2.39h0A44.57,44.57,0,0,1,26,142.24l.23,0a6.91,6.91,0,0,0,1.13-.28,5.8,5.8,0,0,0,3.79-4.45,3.19,3.19,0,0,1,.12,3.8c-1.8,2.49-3.92,2.83-6.6,3.27a27.67,27.67,0,0,0-3.73.81,32.47,32.47,0,0,0-5.48,2.29c-2.5,1.25-4.31,2.15-7.29,1.64A4,4,0,0,1,5.17,146.43Zm-1.43-2.81c-1-2.79,1.39-6.19,5.28-7.57a10,10,0,0,1,4.07-.55h0a5.91,5.91,0,0,1,3.77,2.11.37.37,0,0,0,.52,0,.37.37,0,0,0,0-.53,7.86,7.86,0,0,0-2.5-1.86,7.77,7.77,0,0,1,1.59-3.66,10.46,10.46,0,0,0,2.86-.26h.05a.39.39,0,0,0,.24-.44.38.38,0,0,0-.45-.28,10.24,10.24,0,0,1-2.83.24h0c-1.36-.11-2.36-.59-2.63-1.38-.55-1.53,1.74-3.8,5-4.95s6.46-.83,7,.71c.3.84-.25,1.93-1.41,2.94,0,0,0,0,0,0a9.83,9.83,0,0,1-1.44,1,.37.37,0,0,0,.37.65,9.44,9.44,0,0,0,1.43-1,7.83,7.83,0,0,1,5.87,7.68v.05a5.06,5.06,0,0,1-4.37,4.88l-.23,0a44.86,44.86,0,0,0-6.3,1.22,51.93,51.93,0,0,0-4.94,2.46h0a17.9,17.9,0,0,1-2,1c-2.93,1-6.06.66-7.79-.95A4.14,4.14,0,0,1,3.74,143.62Z"/><path class="cls-8" d="M23.3,98.66h0a3.18,3.18,0,0,1,3.68,1.7l0,0a3.18,3.18,0,0,1-1.27,4.13l-3.05,1.77a6.19,6.19,0,0,0-3.05,4.83h0a23.16,23.16,0,0,0,1.17,9.38L22,124.08a3.17,3.17,0,0,1-2.29,4.13h0A3.17,3.17,0,0,1,16,125.94l-2.89-10.7a3.55,3.55,0,0,1-.09-.47h0a17.57,17.57,0,0,1,2-10.35h0a7.88,7.88,0,0,1,2.59-2.82l2.62-1.6A11.82,11.82,0,0,1,23.3,98.66Z"/><path class="cls-9" d="M15.93,120.67h5.88a.58.58,0,0,1,.58.58v3.93a3.52,3.52,0,0,1-3.52,3.52h0a3.52,3.52,0,0,1-3.52-3.52v-3.93A.58.58,0,0,1,15.93,120.67Z" transform="translate(-32.87 9.68) rotate(-15.62)"/><path class="cls-6" d="M65.72,143.74a22.61,22.61,0,0,1-2.35-.51A52.67,52.67,0,0,0,58.16,142h0a43.68,43.68,0,0,0-6.27.25l-.23,0a5.71,5.71,0,0,1-1.17,0,5.79,5.79,0,0,1-4.71-3.45,3.17,3.17,0,0,0,.76,3.72c2.32,2,4.46,1.86,7.17,1.67a28,28,0,0,1,3.82-.08,33.37,33.37,0,0,1,5.86,1c2.72.64,4.68,1.1,7.47-.08a4,4,0,0,0,2.27-3.48A9,9,0,0,1,65.72,143.74Z"/><path class="cls-7" d="M67,132.33a9.54,9.54,0,0,0-4.08.4h0a5.9,5.9,0,0,0-3.18,2.92.37.37,0,1,1-.65-.37,8,8,0,0,1,2-2.39,7.74,7.74,0,0,0-2.38-3.19,10.32,10.32,0,0,1-2.85.4h0a.38.38,0,0,1,0-.75,9.72,9.72,0,0,0,2.8-.41h0c1.3-.43,2.16-1.12,2.25-2,.18-1.62-2.57-3.31-6-3.68s-6.48.68-6.65,2.3c-.1.89.69,1.82,2.05,2.54l0,0a9.19,9.19,0,0,0,1.64.65.38.38,0,0,1,.25.47.38.38,0,0,1-.47.25,10.52,10.52,0,0,1-1.62-.63A7.78,7.78,0,0,0,46,135a7.94,7.94,0,0,0,.18,2.75l0,0a5.05,5.05,0,0,0,5.37,3.75l.23,0a43.3,43.3,0,0,1,6.41-.26,48.91,48.91,0,0,1,5.38,1.26h0a19.85,19.85,0,0,0,2.21.49c3.09.34,6-.76,7.36-2.72a4,4,0,0,0,.67-1.81C74.16,135.53,71.08,132.78,67,132.33Z"/><path d="M74.59,138.55a4.64,4.64,0,0,1-.72,2,6.07,6.07,0,0,1-.15,1.8,4.57,4.57,0,0,1-2.6,3.34c-3,1.28-5.18.76-7.93.11a33.53,33.53,0,0,0-5.74-.95,26.48,26.48,0,0,0-3.71.08,20,20,0,0,1-3.45,0,7.46,7.46,0,0,1-4.27-1.9,4.09,4.09,0,0,1-.61-5.32,8.87,8.87,0,0,1-.17-2.86,8.58,8.58,0,0,1,4.12-6.43c-1.3-.83-2-1.88-1.89-2.95.23-2.09,3.51-3.39,7.48-3s6.89,2.4,6.67,4.5a3.18,3.18,0,0,1-2.17,2.35,8.32,8.32,0,0,1,2.2,3.05,4.68,4.68,0,0,1,1-.46,10.71,10.71,0,0,1,4.4-.43C71.57,132.08,75,135.2,74.59,138.55Zm-1.49,3a9,9,0,0,1-7.38,2.2,22.61,22.61,0,0,1-2.35-.51A52.67,52.67,0,0,0,58.16,142h0a43.68,43.68,0,0,0-6.27.25l-.23,0a5.71,5.71,0,0,1-1.17,0,5.79,5.79,0,0,1-4.71-3.45,3.17,3.17,0,0,0,.76,3.72c2.32,2,4.46,1.86,7.17,1.67a28,28,0,0,1,3.82-.08,33.37,33.37,0,0,1,5.86,1c2.72.64,4.68,1.1,7.47-.08A4,4,0,0,0,73.1,141.54Zm.74-3.07c.32-2.94-2.76-5.69-6.88-6.14a9.54,9.54,0,0,0-4.08.4h0a5.9,5.9,0,0,0-3.18,2.92.37.37,0,1,1-.65-.37,8,8,0,0,1,2-2.39,7.74,7.74,0,0,0-2.38-3.19,10.32,10.32,0,0,1-2.85.4h0a.38.38,0,0,1,0-.75,9.72,9.72,0,0,0,2.8-.41h0c1.3-.43,2.16-1.12,2.25-2,.18-1.62-2.57-3.31-6-3.68s-6.48.68-6.65,2.3c-.1.89.69,1.82,2.05,2.54l0,0a9.19,9.19,0,0,0,1.64.65.38.38,0,0,1,.25.47.38.38,0,0,1-.47.25,10.52,10.52,0,0,1-1.62-.63A7.78,7.78,0,0,0,46,135a7.94,7.94,0,0,0,.18,2.75l0,0a5.05,5.05,0,0,0,5.37,3.75l.23,0a43.3,43.3,0,0,1,6.41-.26,48.91,48.91,0,0,1,5.38,1.26h0a19.85,19.85,0,0,0,2.21.49c3.09.34,6-.76,7.36-2.72A4,4,0,0,0,73.84,138.47Z"/><path class="cls-8" d="M44.22,99.08h0a3.17,3.17,0,0,0-3.19,2.5v0a3.17,3.17,0,0,0,2.18,3.72l3.38,1a6.16,6.16,0,0,1,4.07,4h0a23.21,23.21,0,0,1,1,9.4l-.37,3.76A3.18,3.18,0,0,0,54.48,127h0a3.19,3.19,0,0,0,3.17-3.08L58,112.86a2.43,2.43,0,0,0,0-.47h0a17.52,17.52,0,0,0-4.32-9.61h0a7.87,7.87,0,0,0-3.17-2.16l-2.92-1A12.19,12.19,0,0,0,44.22,99.08Z"/><path class="cls-9" d="M54.51,119.37h0A3.52,3.52,0,0,1,58,122.89v3.93a.58.58,0,0,1-.58.58H51.57a.58.58,0,0,1-.58-.58v-3.93A3.52,3.52,0,0,1,54.51,119.37Z" transform="translate(103.98 248.88) rotate(-177.67)"/><polygon class="cls-10" points="49.22 21.46 44.42 26.3 39.72 21.46 35.03 26.3 30.32 21.46 25.62 26.3 20.84 21.46 35.01 1.1 49.22 21.46"/><path class="cls-11" d="M48.73,99.22a12.42,12.42,0,0,1-2.53,4.88c-4.06,4.72-10.33,4.42-11.17,4.36a15,15,0,0,1-10.67-4.31,13.88,13.88,0,0,1-3.07-4.93Z"/><path class="cls-12" d="M49,87.32l0,11c0,.28-.12.6-.21.94H21.29c-.16-.42-.28-.81-.37-1.14V87.32Z"/><path class="cls-13" d="M49.22,21.46v8.46S49,68.19,49,87.32H39.72V21.46l4.7,4.84Z"/><polygon class="cls-13" points="30.3 21.44 30.3 87.3 20.9 87.3 20.83 29.9 20.83 21.44 25.6 26.28 30.3 21.44"/><polygon class="cls-14" points="39.72 21.46 39.72 87.32 30.32 87.32 30.32 21.46 35.03 26.3 39.72 21.46"/><path class="cls-15" d="M31.9,5.78a4.52,4.52,0,0,0,6.08,0L35,1.1Z"/><line class="cls-16" x1="20.92" y1="89.51" x2="49.15" y2="89.51"/><line class="cls-16" x1="20.92" y1="97.15" x2="49.15" y2="97.15"/><line class="cls-17" x1="39.72" y1="21.46" x2="39.72" y2="21.42"/><line class="cls-18" x1="30.32" y1="87.32" x2="30.32" y2="87.32"/><line class="cls-18" x1="30.32" y1="21.46" x2="30.32" y2="21.45"/><line class="cls-19" x1="39.72" y1="21.42" x2="39.72" y2="87.32"/><line class="cls-19" x1="30.32" y1="21.49" x2="30.32" y2="87.32"/><path class="cls-20" d="M49.22,21.46,35,1.1,20.84,21.46v8.46l.08,57.4H49c.05-19.13.25-57.4.25-57.4Z"/><polyline class="cls-20" points="20.84 21.46 25.62 26.3 30.32 21.46 35.03 26.3 39.72 21.46 44.42 26.3 49.22 21.46"/><path class="cls-21" d="M27.24,37.75s3.1-3.22,6.09,0"/><path class="cls-21" d="M44.09,37.75s3.09-3.22,6.08,0"/><path class="cls-22" d="M38.64,64a.76.76,0,0,1,0,.15V64Z"/><path class="cls-23" d="M49.42,61.71a3.09,3.09,0,0,0-4.27-.79,12.07,12.07,0,0,1-4.33,1.52,14,14,0,0,1-1.54.16H38a13.94,13.94,0,0,1-1.54-.17,11.82,11.82,0,0,1-4.31-1.51A3.08,3.08,0,0,0,28.66,66a18.12,18.12,0,0,0,10,2.79,18.12,18.12,0,0,0,10-2.79A3.08,3.08,0,0,0,49.42,61.71Zm-1.54,3.17a17,17,0,0,1-9.22,2.54,17.06,17.06,0,0,1-9.23-2.54,1.73,1.73,0,0,1,2-2.83,12.61,12.61,0,0,0,4.26,1.62,15.61,15.61,0,0,0,3,.3h0a14.74,14.74,0,0,0,3-.3,12.87,12.87,0,0,0,4.29-1.62,1.72,1.72,0,1,1,2,2.83Z"/><path class="cls-24" d="M47.88,64.88a17,17,0,0,1-9.22,2.54,17.06,17.06,0,0,1-9.23-2.54,1.73,1.73,0,0,1,2-2.83,12.61,12.61,0,0,0,4.26,1.62,2.22,2.22,0,0,0,0,.45A1.73,1.73,0,0,0,37.14,66a1.73,1.73,0,0,0,1.51-1.88A1.72,1.72,0,0,0,40.16,66a1.73,1.73,0,0,0,1.51-1.88,2.3,2.3,0,0,0-.05-.45,12.87,12.87,0,0,0,4.29-1.62,1.72,1.72,0,1,1,2,2.83Z"/><path class="cls-24" d="M38.65,64v.15a.76.76,0,0,0,0-.15Z"/><path class="cls-25" d="M38.65,64.12A1.73,1.73,0,0,1,37.14,66a1.73,1.73,0,0,1-1.51-1.88,2.22,2.22,0,0,1,0-.45,15.61,15.61,0,0,0,3,.3A.76.76,0,0,1,38.65,64.12Z"/><path class="cls-25" d="M41.67,64.12A1.73,1.73,0,0,1,40.16,66a1.72,1.72,0,0,1-1.51-1.88V64h0a14.74,14.74,0,0,0,3-.3A2.3,2.3,0,0,1,41.67,64.12Z"/><ellipse class="cls-26" cx="31.39" cy="49.27" rx="5.82" ry="8.62"/><ellipse class="cls-27" cx="33.28" cy="46.86" rx="3" ry="4.43"/><circle class="cls-3" cx="32.05" cy="45.23" r="1.15"/><ellipse class="cls-26" cx="46.93" cy="48.82" rx="5.82" ry="8.62"/><ellipse class="cls-27" cx="48.93" cy="46.16" rx="3" ry="4.43"/><circle class="cls-3" cx="47.79" cy="44.54" r="1.15"/></g></g></svg>