<svg xmlns="http://www.w3.org/2000/svg" viewBox="0 0 78.76 150.6"><defs><style>.cls-1,.cls-10,.cls-17,.cls-6{fill:#d88500;}.cls-1,.cls-10,.cls-11,.cls-12,.cls-13,.cls-15,.cls-16,.cls-19,.cls-2,.cls-20,.cls-22,.cls-24,.cls-25,.cls-26,.cls-27,.cls-28,.cls-29,.cls-30,.cls-31,.cls-4,.cls-5,.cls-6,.cls-9{stroke:#000;}.cls-1,.cls-10,.cls-13,.cls-19,.cls-2,.cls-25,.cls-4,.cls-5,.cls-6{stroke-linecap:round;}.cls-1,.cls-10,.cls-13,.cls-19,.cls-2,.cls-4,.cls-5,.cls-6{stroke-linejoin:round;}.cls-1{stroke-width:0.82px;}.cls-11,.cls-12,.cls-13,.cls-2,.cls-29,.cls-3,.cls-30,.cls-4,.cls-5,.cls-9{fill:#fff;}.cls-2{stroke-width:0.78px;}.cls-4{stroke-width:0.74px;}.cls-5{stroke-width:0.66px;}.cls-6{stroke-width:0.82px;}.cls-7{fill:#e5e5e5;}.cls-8{fill:#760dc9;}.cls-11,.cls-12,.cls-15,.cls-16,.cls-20,.cls-22,.cls-23,.cls-24,.cls-25,.cls-26,.cls-27,.cls-28,.cls-29,.cls-30,.cls-31,.cls-9{stroke-miterlimit:10;}.cls-9{stroke-width:0.92px;}.cls-10{stroke-width:0.82px;}.cls-11{stroke-width:0.75px;}.cls-12,.cls-13{stroke-width:0.77px;}.cls-14{fill:#fbccac;}.cls-15{fill:#ff7bac;}.cls-15,.cls-16,.cls-24,.cls-25{stroke-width:1.29px;}.cls-16{fill:#ccc;}.cls-18{fill:#f9b233;}.cls-19{stroke-width:0.01px;}.cls-20{fill:#666;}.cls-20,.cls-30{stroke-width:0.64px;}.cls-21,.cls-22,.cls-23,.cls-24,.cls-25{fill:none;}.cls-22{stroke-width:0.97px;}.cls-23{stroke:#bf720c;stroke-width:0.52px;}.cls-26{fill:#abd6bd;stroke-width:0.25px;}.cls-27{fill:#ffd18f;stroke-width:0.48px;}.cls-28,.cls-29{stroke-width:0.02px;}.cls-31{stroke-width:0.08px;}</style></defs><title>lv15</title><g id="Layer_2" data-name="Layer 2"><g id="personaje"><path class="cls-1" d="M30.09,71.56c-5.2,7.77-7.46,18-8.07,29.74a11.05,11.05,0,0,1-7.81-1.39c.83-14.67,5-27.46,13.86-37.67C31.26,64.93,31.86,68.05,30.09,71.56Z"/><ellipse class="cls-2" cx="17.75" cy="100.96" rx="3.35" ry="5.7" transform="translate(-83.9 87.74) rotate(-72.62)"/><path class="cls-3" d="M6.27,100.46h13a.06.06,0,0,1,.06.06v0A6.52,6.52,0,0,1,12.85,107H6.2a0,0,0,0,1,0,0v-6.52a.06.06,0,0,1,.06-.06Z" transform="translate(25.57 207.49) rotate(180)"/><path class="cls-4" d="M2.25,104.57l-.14-.66a1.55,1.55,0,0,1,.72-1.67h0a3,3,0,0,1,1.4-.39c.61,0,1.19-.07,1.75-.13a13.09,13.09,0,0,0,3.37-.83,9.46,9.46,0,0,1,6.22-.31"/><path class="cls-5" d="M8.08,102.71c-2.69.45-5.44.78-7.25,2.94a2,2,0,0,0-.48,1.55,1.61,1.61,0,0,0,1.24,1.34,3.84,3.84,0,0,0,1.72.14,8,8,0,0,0,2.7-1"/><path class="cls-4" d="M10.39,103.62c-2.68.53-5.42.95-7.18,3.22a2.07,2.07,0,0,0-.44,1.59,1.66,1.66,0,0,0,1.28,1.34,3.58,3.58,0,0,0,1.72.1,7.82,7.82,0,0,0,2.68-1.09"/><path class="cls-4" d="M19.62,101.58c2.08.72,3.38,1.75,3.8,3.12a3,3,0,0,1-2,3.71,14.5,14.5,0,0,1-4.8.7,6,6,0,0,0-2.79.66L11.46,111a2.9,2.9,0,0,1-2.8-.06,2,2,0,0,1-1-1.86,2.88,2.88,0,0,1,1-2.07c1.9-1.68,4.32-2.17,6.89-2.31"/><path class="cls-6" d="M52.92,103.18c-1.81-2-1.49-5.36-1.49-5.36l2.71-2s8.6-.62,11.31,2.63a4.15,4.15,0,0,1,.82,3.68c-1.72,6.68-9.46,11.55-19.35,15.77a3.72,3.72,0,0,1-4.79-1.77l-.15-.3a3.28,3.28,0,0,1,1.85-4.54C50.58,109,56.14,105.93,58.45,101,57,102.47,53.51,102.85,52.92,103.18Z"/><path class="cls-7" d="M33.85,138.87a25.9,25.9,0,0,1-1-2.78,64.46,64.46,0,0,0-2.21-6.22l0,0a54.05,54.05,0,0,0-4.46-6.32l-.17-.23a7.55,7.55,0,0,1-.77-1.22,7.15,7.15,0,0,1,.43-7.19,3.94,3.94,0,0,0-3.35,3.28c-.52,3.75,1.06,5.87,3.07,8.55A34.34,34.34,0,0,1,28,130.6a41.29,41.29,0,0,1,2.9,6.72c1.16,3.25,2,5.59,5.08,7.69a5,5,0,0,0,5.12,0A11.14,11.14,0,0,1,33.85,138.87Z"/><path class="cls-8" d="M46.5,132.53a11.93,11.93,0,0,0-3.14-4l0,0a7.24,7.24,0,0,0-5.15-1.34.47.47,0,1,1,0-.93,10,10,0,0,1,3.81.48,9.56,9.56,0,0,0,1.71-4.6,13.06,13.06,0,0,1-2.32-2.69l0,0a.47.47,0,0,1,.16-.6.47.47,0,0,1,.64.13,12.14,12.14,0,0,0,2.3,2.63l0,0c1.31,1.07,2.61,1.49,3.53,1,1.79-.9,1.7-4.87-.21-8.67s-5-6.26-6.83-5.36c-1,.5-1.42,1.94-1.25,3.83v.07a12,12,0,0,0,.41,2.13.46.46,0,0,1-.31.57.46.46,0,0,1-.57-.32,13.52,13.52,0,0,1-.43-2.1A9.64,9.64,0,0,0,27,114.6l-.05,0a6.22,6.22,0,0,0-.28,8.07l.17.23a53.15,53.15,0,0,1,4.55,6.47,62.38,62.38,0,0,1,2.3,6.42v0a26.69,26.69,0,0,0,1,2.61c1.72,3.43,4.83,5.76,7.74,5.81a4.93,4.93,0,0,0,2.32-.51C48,142.12,48.79,137.09,46.5,132.53Z"/><path d="M47.33,132.11A13,13,0,0,0,44,127.85a5.12,5.12,0,0,0-1.14-.73,10.43,10.43,0,0,0,1.69-4.32c1.4.93,2.79,1.21,3.88.67,2.32-1.17,2.41-5.52.21-9.92s-5.75-6.93-8.07-5.76c-1.18.59-1.8,2-1.8,3.92a10.61,10.61,0,0,0-12.26,2.12c-3.36.21-4.86,2.37-5.11,4.19a9.17,9.17,0,0,0,.89,5.69,24.39,24.39,0,0,0,2.35,3.54,33.94,33.94,0,0,1,2.56,3.8A39.36,39.36,0,0,1,30,137.63c1.17,3.28,2.09,5.88,5.43,8.15a5.63,5.63,0,0,0,5.2.46,7.42,7.42,0,0,0,2-1.05,5.79,5.79,0,0,0,2.57-.61C48.86,142.72,49.84,137.13,47.33,132.11ZM35.94,145c-3.09-2.1-3.92-4.44-5.08-7.69A41.29,41.29,0,0,0,28,130.6a34.34,34.34,0,0,0-2.63-3.9c-2-2.68-3.59-4.8-3.07-8.55a3.94,3.94,0,0,1,3.35-3.28,7.15,7.15,0,0,0-.43,7.19,7.55,7.55,0,0,0,.77,1.22l.17.23a54.05,54.05,0,0,1,4.46,6.32l0,0a64.46,64.46,0,0,1,2.21,6.22,25.9,25.9,0,0,0,1,2.78A11.14,11.14,0,0,0,41.06,145,5,5,0,0,1,35.94,145Zm6.47-.74c-2.91-.05-6-2.38-7.74-5.81a26.69,26.69,0,0,1-1-2.61v0a62.38,62.38,0,0,0-2.3-6.42,53.15,53.15,0,0,0-4.55-6.47l-.17-.23a6.22,6.22,0,0,1,.28-8.07l.05,0a9.64,9.64,0,0,1,11.77-1.81,13.52,13.52,0,0,0,.43,2.1.46.46,0,0,0,.57.32.46.46,0,0,0,.31-.57,12,12,0,0,1-.41-2.13v-.07c-.17-1.89.27-3.33,1.25-3.83,1.8-.9,4.93,1.55,6.83,5.36s2,7.77.21,8.67c-.92.46-2.22,0-3.53-1l0,0A12.14,12.14,0,0,1,42.1,119a.47.47,0,0,0-.64-.13.47.47,0,0,0-.16.6l0,0a13.06,13.06,0,0,0,2.32,2.69,9.56,9.56,0,0,1-1.71,4.6,10,10,0,0,0-3.81-.48.47.47,0,1,0,0,.93,7.24,7.24,0,0,1,5.15,1.34l0,0a11.93,11.93,0,0,1,3.14,4c2.29,4.56,1.49,9.59-1.77,11.23A4.93,4.93,0,0,1,42.41,144.27Z"/><path class="cls-9" d="M46.48,110.54h0A3.52,3.52,0,0,1,50,114.06V118a.58.58,0,0,1-.58.58H43.53A.58.58,0,0,1,43,118v-3.94a3.52,3.52,0,0,1,3.52-3.52Z" transform="translate(-35.1 207.44) rotate(-116.63)"/><path class="cls-10" d="M64.17,85.65l.17-.41C67.15,83.82,69,81.82,69.49,79A8.56,8.56,0,0,0,67,71.49C62.56,67,58.05,64.64,53.5,65v7.23c3.63-.17,6.32,1.52,8.74,3.72A2.21,2.21,0,0,1,63,77.38c.11,1.57-1.52,2.74-4,3.73Z"/><ellipse class="cls-11" cx="62.12" cy="91.68" rx="2.29" ry="1.33" transform="translate(-47.53 76.17) rotate(-47.83)"/><path class="cls-12" d="M57.15,80.07h0a1.6,1.6,0,0,1,1.91-1h0a9,9,0,0,1,6.37,6.09l0,.1a1.89,1.89,0,0,1-.94,2.19h0a1.25,1.25,0,0,1-1.28,0L59.62,85a6.62,6.62,0,0,1-2.38-2.78h0A2.79,2.79,0,0,1,57.15,80.07Z"/><path class="cls-13" d="M59,82.42h0a6.48,6.48,0,0,0-7.32,3.08,9.59,9.59,0,0,0-.88,2.17,13.41,13.41,0,0,0-.29,1.57,6.87,6.87,0,0,0,1.63,5.24h0a.67.67,0,0,0,1.16-.3l.54-2.57"/><ellipse class="cls-3" cx="57.07" cy="88.62" rx="5.79" ry="4.5" transform="translate(-45.85 111.37) rotate(-69.69)"/><path class="cls-13" d="M52.92,91a6.28,6.28,0,0,0-.26,2.71,4,4,0,0,0,2.51,3.18,4.19,4.19,0,0,0,.63.19,2,2,0,0,0,2.12-1h0"/><path class="cls-13" d="M56.34,92.23A8.15,8.15,0,0,0,57,96a2.82,2.82,0,0,0,1.15,1.42,3.87,3.87,0,0,0,3.59.27,3.27,3.27,0,0,0,.33-.14,5.73,5.73,0,0,0,2.09-1.82l1.38-2a1.71,1.71,0,0,0-.14-2.18l0,0a1.14,1.14,0,0,0-1.5,0l-2.11,1.69a.14.14,0,0,1-.21-.18l.87-1.56a5.41,5.41,0,0,0-.11-5.51c-.25-.41-.51-.81-.77-1.21"/><polygon class="cls-14" points="26.2 22.02 31.13 26.98 35.95 22.02 40.76 26.98 45.59 22.02 50.41 26.98 55.31 22.02 40.78 1.13 26.2 22.02"/><path class="cls-15" d="M26.7,101.81a12.72,12.72,0,0,0,2.6,5c4.17,4.85,10.59,4.53,11.45,4.48a15.5,15.5,0,0,0,11-4.43,14.45,14.45,0,0,0,3.16-5Z"/><path class="cls-16" d="M26.45,89.59l0,11.25c.05.28.12.61.22,1H54.86c.16-.44.28-.84.38-1.18v-11Z"/><path class="cls-17" d="M26.2,22V30.7s.2,39.26.25,58.89H36V22l-4.82,5Z"/><polygon class="cls-17" points="45.61 22 45.61 89.57 55.25 89.57 55.33 30.68 55.33 22 50.43 26.96 45.61 22"/><polygon class="cls-18" points="35.95 22.02 35.95 89.59 45.59 89.59 45.59 22.02 40.76 26.98 35.95 22.02"/><path class="cls-19" d="M44,5.93a4.64,4.64,0,0,1-6.24,0l3.05-4.8Z"/><line class="cls-20" x1="55.24" y1="91.84" x2="26.27" y2="91.84"/><line class="cls-20" x1="55.24" y1="99.68" x2="26.27" y2="99.68"/><line class="cls-21" x1="35.95" y1="22.02" x2="35.95" y2="21.98"/><line class="cls-22" x1="45.59" y1="89.59" x2="45.59" y2="89.59"/><line class="cls-22" x1="45.59" y1="22.02" x2="45.59" y2="22.01"/><line class="cls-23" x1="35.95" y1="21.98" x2="35.95" y2="89.59"/><line class="cls-23" x1="45.59" y1="22.05" x2="45.59" y2="89.59"/><path class="cls-24" d="M26.2,22,40.78,1.13,55.31,22V30.7l-.07,58.89H26.45C26.4,70,26.2,30.7,26.2,30.7Z"/><polyline class="cls-24" points="55.31 22.02 50.41 26.98 45.59 22.02 40.75 26.98 35.95 22.02 31.13 26.98 26.2 22.02"/><path class="cls-25" d="M58.6,38.05s-3.17-3.31-6.24,0"/><path class="cls-25" d="M41.32,38.05s-3.17-3.31-6.24,0"/><path class="cls-26" d="M46.91,65a.86.86,0,0,0,0,.16.86.86,0,0,0,0-.16Z"/><path class="cls-27" d="M35.84,62.63a3.18,3.18,0,0,1,4.38-.81,12.3,12.3,0,0,0,4.45,1.56,12.6,12.6,0,0,0,1.58.16l.64,0,.66,0a12.79,12.79,0,0,0,1.58-.16,12.49,12.49,0,0,0,4.42-1.55,3.16,3.16,0,0,1,3.6,5.2,18.71,18.71,0,0,1-10.26,2.86A18.77,18.77,0,0,1,36.62,67,3.18,3.18,0,0,1,35.84,62.63Zm1.58,3.26a17.48,17.48,0,0,0,9.47,2.61,17.47,17.47,0,0,0,9.46-2.61,1.77,1.77,0,0,0-2-2.91A13.08,13.08,0,0,1,50,64.64a14.73,14.73,0,0,1-3,.31h0a15.5,15.5,0,0,1-3-.3A13.24,13.24,0,0,1,39.45,63a1.77,1.77,0,1,0-2,2.91Z"/><path class="cls-28" d="M37.42,65.89a17.48,17.48,0,0,0,9.47,2.61,17.47,17.47,0,0,0,9.46-2.61,1.77,1.77,0,0,0-2-2.91A13.08,13.08,0,0,1,50,64.64a2.42,2.42,0,0,1,0,.47,1.59,1.59,0,1,1-3.1,0,1.59,1.59,0,1,1-3.1,0,2.31,2.31,0,0,1,.05-.46A13.24,13.24,0,0,1,39.45,63a1.77,1.77,0,1,0-2,2.91Z"/><path class="cls-28" d="M46.89,65a.86.86,0,0,1,0,.16.86.86,0,0,1,0-.16Z"/><path class="cls-29" d="M46.9,65.11a1.59,1.59,0,1,0,3.1,0,2.42,2.42,0,0,0,0-.47,14.73,14.73,0,0,1-3,.31A.86.86,0,0,0,46.9,65.11Z"/><path class="cls-29" d="M43.8,65.11a1.59,1.59,0,1,0,3.1,0,.86.86,0,0,0,0-.16h0a15.5,15.5,0,0,1-3-.3A2.31,2.31,0,0,0,43.8,65.11Z"/><ellipse class="cls-30" cx="54.35" cy="49.87" rx="5.97" ry="8.84"/><ellipse class="cls-31" cx="57.14" cy="47.74" rx="3.07" ry="4.55"/><circle class="cls-3" cx="58.4" cy="46.07" r="1.18"/><ellipse class="cls-30" cx="38.4" cy="49.41" rx="5.97" ry="8.84"/><ellipse class="cls-31" cx="41.3" cy="47.77" rx="3.07" ry="4.55"/><circle class="cls-3" cx="42.48" cy="46.1" r="1.18"/><path class="cls-6" d="M30.4,104.69v-.08a2.43,2.43,0,0,1,.84-2c5.34-4.49,9.73-6.33,13.52-6.5a6.77,6.77,0,0,1,5.3,2.29,14.81,14.81,0,0,1,3.48,6.93c1.21,4.16,1.75,10.34,2.11,17.05H49.18c0-8.78-.86-15.37-3.25-17.91a3,3,0,0,0-2.8-.89c-2.1.42-4.83,2-7.76,4C33.29,108.92,30.61,107.39,30.4,104.69Z"/><path class="cls-7" d="M68.59,147a26.06,26.06,0,0,1-3-.32,64.87,64.87,0,0,0-6.54-.81H59A52.77,52.77,0,0,0,51.39,147l-.28.05a7,7,0,0,1-1.44.14,7.15,7.15,0,0,1-6.23-3.6,3.94,3.94,0,0,0,1.43,4.46c3.12,2.15,5.72,1.68,9,1.09a33.39,33.39,0,0,1,4.66-.6,41.44,41.44,0,0,1,7.32.41c3.42.43,5.89.73,9.15-1.09a5,5,0,0,0,2.32-4.57C75.53,145.61,72.25,147,68.59,147Z"/><path class="cls-8" d="M68.59,132.86a12,12,0,0,0-5,1h0a7.29,7.29,0,0,0-3.51,4,.46.46,0,0,1-.6.25.47.47,0,0,1-.25-.61,9.84,9.84,0,0,1,2.14-3.2A9.62,9.62,0,0,0,58,130.76a12.82,12.82,0,0,1-3.44.87h-.05a.47.47,0,0,1-.46-.41.46.46,0,0,1,.4-.51,12,12,0,0,0,3.38-.89l0,0c1.54-.69,2.5-1.66,2.5-2.69,0-2-3.6-3.7-7.85-3.7s-7.84,1.69-7.84,3.7c0,1.11,1.09,2.15,2.85,2.84l.06,0a11.85,11.85,0,0,0,2.1.58.46.46,0,0,1-.18.91,13,13,0,0,1-2.07-.56,9.68,9.68,0,0,0-3.66,11.34l0,.06a6.22,6.22,0,0,0,7.08,3.87l.28-.06A54.27,54.27,0,0,1,59,145a64.8,64.8,0,0,1,6.76.83h0a27.32,27.32,0,0,0,2.77.31c3.83,0,7.31-1.73,8.66-4.31a4.93,4.93,0,0,0,.59-2.31C77.84,135.83,73.69,132.86,68.59,132.86Z"/><path d="M68.59,131.94a12.91,12.91,0,0,0-5.33,1.11,5.51,5.51,0,0,0-1.16.69A10.6,10.6,0,0,0,59,130.29c1.47-.83,2.34-1.95,2.34-3.17,0-2.59-3.85-4.63-8.77-4.63s-8.77,2-8.77,4.63c0,1.33,1,2.52,2.7,3.37A10.58,10.58,0,0,0,42.9,142.4c-1.33,3.1-.06,5.4,1.45,6.45a9.22,9.22,0,0,0,5.49,1.75,24.28,24.28,0,0,0,4.21-.51,32.43,32.43,0,0,1,4.54-.59,40.73,40.73,0,0,1,7.16.41c3.46.43,6.19.77,9.72-1.2a5.64,5.64,0,0,0,2.74-4.45,7.45,7.45,0,0,0-.06-2.21,5.85,5.85,0,0,0,.61-2.57C78.76,135.32,74.2,131.94,68.59,131.94Zm6.43,16c-3.26,1.82-5.73,1.52-9.15,1.09a41.44,41.44,0,0,0-7.32-.41,33.39,33.39,0,0,0-4.66.6c-3.3.59-5.9,1.06-9-1.09a3.94,3.94,0,0,1-1.43-4.46,7.15,7.15,0,0,0,6.23,3.6,7,7,0,0,0,1.44-.14l.28-.05A52.77,52.77,0,0,1,59,145.89h.05a64.87,64.87,0,0,1,6.54.81,26.06,26.06,0,0,0,3,.32c3.66,0,6.94-1.41,8.75-3.69A5,5,0,0,1,75,147.9Zm2.23-6.11c-1.35,2.58-4.83,4.31-8.66,4.31a27.32,27.32,0,0,1-2.77-.31h0A64.8,64.8,0,0,0,59,145a54.27,54.27,0,0,0-7.83,1.17l-.28.06a6.22,6.22,0,0,1-7.08-3.87l0-.06a9.68,9.68,0,0,1,3.66-11.34,13,13,0,0,0,2.07.56.46.46,0,0,0,.18-.91,11.85,11.85,0,0,1-2.1-.58l-.06,0c-1.76-.69-2.85-1.73-2.85-2.84,0-2,3.59-3.7,7.84-3.7s7.85,1.69,7.85,3.7c0,1-1,2-2.5,2.69l0,0a12,12,0,0,1-3.38.89.46.46,0,0,0-.4.51.47.47,0,0,0,.46.41h.05a12.82,12.82,0,0,0,3.44-.87,9.62,9.62,0,0,1,3.35,3.59,9.84,9.84,0,0,0-2.14,3.2.47.47,0,0,0,.25.61.46.46,0,0,0,.6-.25,7.29,7.29,0,0,1,3.51-4h0a12,12,0,0,1,5-1c5.1,0,9.25,3,9.25,6.62A4.93,4.93,0,0,1,77.25,141.79Z"/><path class="cls-9" d="M52.51,120.81h0A3.52,3.52,0,0,1,56,124.33v3.94a.58.58,0,0,1-.58.58H49.57a.58.58,0,0,1-.58-.58v-3.94a3.52,3.52,0,0,1,3.52-3.52Z" transform="translate(105.02 249.66) rotate(180)"/></g></g></svg>