<?xml version="1.0" encoding="utf-8"?>
<!-- Generator: Adobe Illustrator 24.0.2, SVG Export Plug-In . SVG Version: 6.00 Build 0)  -->
<svg version="1.1" id="Layer_1" xmlns="http://www.w3.org/2000/svg" xmlns:xlink="http://www.w3.org/1999/xlink" x="0px" y="0px"
	 viewBox="0 0 1400 650" style="enable-background:new 0 0 1400 650;" xml:space="preserve">
<style type="text/css">
	.st0{fill:#F2F2F2;}
	.st1{fill:#E6E6E6;}
</style>
<g>
	<rect class="st0" width="1400" height="651.6"/>
	<g>
		<g>
			
				<image style="overflow:visible;opacity:0.24;" width="254" height="257" xlink:href="BDCC933F.png"  transform="matrix(1 0 0 1 131.0148 14.0148)">
			</image>
			<g>
				<polygon class="st1" points="384.9,153.8 243.4,260.5 138,117.2 279.5,10.5 				"/>
			</g>
		</g>
		<g>
			
				<image style="overflow:visible;opacity:0.24;" width="208" height="210" xlink:href="BDCC933D.png"  transform="matrix(1 0 0 1 671.0148 299.0148)">
			</image>
			<g>
				<polygon class="st1" points="878.2,411.7 763,498.6 677.3,382 792.4,295.1 				"/>
			</g>
		</g>
		<g>
			
				<image style="overflow:visible;opacity:0.24;" width="264" height="268" xlink:href="BDCC9343.png"  transform="matrix(1 0 0 1 371.0148 143.0148)">
			</image>
			<g>
				<ellipse class="st1" cx="505.9" cy="270" rx="128.7" ry="130.3"/>
			</g>
		</g>
		<g>
			
				<image style="overflow:visible;opacity:0.24;" width="707" height="401" xlink:href="BDCC9345.png"  transform="matrix(1 0 0 1 -6.9852 259.0148)">
			</image>
			<g>
				<path class="st1" d="M550.8,507.9c-36,0-68.9,12.9-94.6,34.5c-24.3-17.7-54.2-28.1-86.4-28.1c-1.3,0-2.6,0-3.9,0.1
					c-14.9-65.6-72.3-114.9-141.3-116.4c-26-82.4-102.3-142.2-192.3-142.2c-11,0-21.7,0.9-32.2,2.6V650h107.1
					c1.2-0.5,2.3-0.9,3.4-1.4c0.4,0.5,0.8,1,1.3,1.4H699C694.7,570.8,630,507.9,550.8,507.9z"/>
			</g>
		</g>
		<g>
			
				<image style="overflow:visible;opacity:0.24;" width="595" height="333" xlink:href="BDCC9347.png"  transform="matrix(1 0 0 1 806.0148 327.0148)">
			</image>
			<g>
				<path class="st1" d="M1400,328.6c-12.9-3.2-26.5-5-40.4-5c-82.4,0-151,60.4-164.8,139.8c-34.3,1.8-65.9,14.1-91.6,33.8
					c-30.6-33.5-74.3-54.4-122.9-54.4c-92.4,0-167.4,75.9-167.4,169.5c0,13,1.4,25.6,4.2,37.8h583V328.6z"/>
			</g>
		</g>
		<g>
			
				<image style="overflow:visible;opacity:0.24;" width="187" height="189" xlink:href="BDCC9344.png"  transform="matrix(1 0 0 1 922.0148 87.0148)">
			</image>
			<g>
				<ellipse class="st1" cx="1018.3" cy="174.3" rx="90.1" ry="91.2"/>
			</g>
		</g>
		<g>
			
				<image style="overflow:visible;opacity:0.24;" width="119" height="127" xlink:href="BDCC934C.png"  transform="matrix(1 0 0 1 646.0148 58.0148)">
			</image>
			<g>
				<path class="st1" d="M762.8,104.8l-91.2,68.8c-2,1.5-4.9,0.3-5.2-2.2L652.6,57.8c-0.3-2.5,2.2-4.4,4.5-3.4l105,44.8
					C764.4,100.1,764.8,103.3,762.8,104.8z"/>
			</g>
		</g>
		<g>
			
				<image style="overflow:visible;opacity:0.24;" width="161" height="181" xlink:href="BDCC934D.png"  transform="matrix(1 0 0 1 1146.0149 56.0148)">
			</image>
			<g>
				<path class="st1" d="M1300.1,225.7L1154.7,152c-3.2-1.6-3.5-6.1-0.5-8.1l134.3-90.7c3-2,7,0,7.2,3.6l11,164.4
					C1307,224.8,1303.3,227.3,1300.1,225.7z"/>
			</g>
		</g>
		<g>
			
				<image style="overflow:visible;opacity:0.24;" width="59" height="59" xlink:href="BDCC934F.png"  transform="matrix(1 0 0 1 32.0148 169.0148)">
			</image>
			<g>
				<g>
					<path class="st1" d="M81,217.5c-3,0-5.3-0.5-6.7-1.5c-1.5-1-2.1-2.2-2.1-3.5h1.4c-0.3,0.5-1,1.1-2,1.9c-1,0.8-2.3,1.5-3.9,2.2
						c-1.6,0.7-3.6,1-6,1c-3,0-6-0.7-8.8-2.1c-2.8-1.4-5.3-3.3-7.5-5.8c-2.2-2.5-3.9-5.3-5.2-8.4c-1.3-3.1-1.9-6.4-1.9-9.8
						c0-3.3,0.6-6.6,1.9-9.6c1.3-3.1,3-5.8,5.3-8.3c2.2-2.4,4.7-4.4,7.5-5.8c2.8-1.4,5.7-2.1,8.7-2.1c2.3,0,4.2,0.3,5.8,1
						c1.6,0.7,2.9,1.4,3.9,2.3c1,0.8,1.6,1.5,2,2.1h-1.1c-0.1-1.7,0.6-3,2.1-4c1.5-1,3.7-1.4,6.7-1.4c3,0,5.2,0.5,6.4,1.4
						c1.2,0.9,2,2.1,2.3,3.5c0.3,1.4,0.4,2.9,0.4,4.4v33.3c0,1.5-0.1,3-0.4,4.4c-0.3,1.4-1,2.6-2.3,3.5
						C86.3,217.1,84.1,217.5,81,217.5z M64.2,199c1.3,0,2.4-0.3,3.5-1c1-0.7,1.9-1.6,2.5-2.7c0.6-1.1,1-2.3,1-3.6
						c0-1.4-0.3-2.6-1-3.7c-0.6-1.1-1.5-2-2.6-2.7c-1.1-0.7-2.3-1-3.6-1c-1.4,0-2.6,0.4-3.7,1c-1.1,0.7-2,1.6-2.7,2.7
						c-0.7,1.1-1,2.4-1,3.7c0,1.3,0.4,2.5,1.1,3.6s1.6,2,2.8,2.7C61.6,198.6,62.9,199,64.2,199z"/>
				</g>
			</g>
		</g>
		<g>
			
				<image style="overflow:visible;opacity:0.24;" width="58" height="61" xlink:href="6E91482C.png"  transform="matrix(1 0 0 1 458.0148 38.0148)">
			</image>
			<g>
				<g>
					<path class="st1" d="M491.8,88.5c-5.1,0-9.4-0.8-12.9-2.5c-3.5-1.7-6.3-3.9-8.5-6.6c-2.2-2.7-3.7-5.6-4.8-8.8
						c-1-3.1-1.5-6.2-1.5-9.1c0-5.4,1.2-10.2,3.5-14.3c2.4-4.1,5.6-7.3,9.8-9.6c4.2-2.3,9-3.5,14.4-3.5c4.2,0,7.8,0.7,10.7,2.1
						c3,1.4,5.4,3.1,7.2,5.2c1.9,2.1,3.2,4.4,4.1,6.8c0.9,2.4,1.3,4.6,1.3,6.7c0,3.9-0.9,6.9-2.8,8.9c-1.9,2.1-4.3,3.1-7.3,3.1
						h-21.6c0.3,1.1,0.8,2,1.7,2.8c0.8,0.8,1.9,1.4,3.2,1.8c1.3,0.4,2.7,0.7,4.2,0.7c1.5,0,2.8-0.1,4-0.3c1.1-0.2,2.1-0.4,3-0.7
						c0.8-0.3,1.6-0.5,2.3-0.8c0.7-0.3,1.4-0.5,1.9-0.7c0.6-0.2,1.1-0.3,1.7-0.3c1.2,0,2.3,0.4,3.3,1.2c1,0.8,1.9,2.1,2.7,3.7
						c0.5,0.9,0.8,1.7,1,2.5c0.2,0.8,0.3,1.5,0.3,2.2c0,2-0.8,3.8-2.5,5.1c-1.7,1.4-4,2.4-7.1,3.1C500.1,88.2,496.3,88.5,491.8,88.5
						z M483.6,57.3h11.4c0.9,0,1.6-0.2,2.1-0.6c0.4-0.4,0.7-1,0.7-1.8c0-0.9-0.3-1.6-0.8-2.3c-0.5-0.6-1.2-1.1-2.1-1.4
						s-1.9-0.5-3.1-0.5c-1.6,0-3,0.3-4.3,1s-2.1,1.5-2.8,2.5C484,55.1,483.6,56.2,483.6,57.3z"/>
				</g>
			</g>
		</g>
		<g>
			
				<image style="overflow:visible;opacity:0.24;" width="49" height="52" xlink:href="6E91482B.png"  transform="matrix(1 0 0 1 198.4802 280.4803)">
			</image>
			<g>
				<g>
					<path class="st1" d="M227.3,323.5c-4.3,0-7.9-0.7-10.9-2.1c-3-1.4-5.4-3.3-7.2-5.5c-1.8-2.3-3.2-4.7-4-7.4
						c-0.9-2.7-1.3-5.2-1.3-7.7c0-4.6,1-8.6,3-12c2-3.5,4.8-6.2,8.3-8.1c3.5-2,7.6-2.9,12.1-2.9c3.5,0,6.6,0.6,9.1,1.7
						c2.5,1.2,4.5,2.6,6.1,4.4c1.6,1.8,2.7,3.7,3.5,5.7c0.7,2,1.1,3.9,1.1,5.6c0,3.3-0.8,5.8-2.4,7.5c-1.6,1.7-3.6,2.6-6.2,2.6
						h-18.2c0.2,0.9,0.7,1.7,1.4,2.4c0.7,0.7,1.6,1.2,2.7,1.6c1.1,0.4,2.3,0.6,3.5,0.6c1.3,0,2.4-0.1,3.3-0.2c1-0.1,1.8-0.3,2.5-0.6
						c0.7-0.2,1.4-0.5,2-0.7s1.1-0.4,1.6-0.6c0.5-0.1,1-0.2,1.4-0.2c1,0,2,0.4,2.8,1c0.9,0.7,1.6,1.7,2.3,3.1
						c0.4,0.8,0.7,1.5,0.9,2.1c0.2,0.7,0.3,1.3,0.3,1.9c0,1.7-0.7,3.2-2.1,4.3c-1.4,1.2-3.4,2-6,2.6
						C234.3,323.2,231.1,323.5,227.3,323.5z M220.3,297.1h9.6c0.8,0,1.4-0.2,1.8-0.5c0.4-0.3,0.6-0.9,0.6-1.6c0-0.7-0.2-1.4-0.6-1.9
						c-0.4-0.5-1-0.9-1.8-1.2c-0.7-0.3-1.6-0.4-2.7-0.4c-1.4,0-2.6,0.3-3.6,0.8c-1,0.5-1.8,1.2-2.4,2.1
						C220.7,295.3,220.4,296.1,220.3,297.1z"/>
				</g>
			</g>
		</g>
		<g>
			
				<image style="overflow:visible;opacity:0.24;" width="26" height="83" xlink:href="6E914824.png"  transform="matrix(1 0 0 1 876.0148 33.0148)">
			</image>
			<g>
				<g>
					<path class="st1" d="M891.9,48.4c-3,0-5.2-0.5-6.5-1.4c-1.3-0.9-2-2.1-2.3-3.5c-0.2-1.4-0.4-2.9-0.4-4.4c0-1.6,0.1-3.1,0.4-4.5
						c0.3-1.4,1-2.5,2.3-3.4c1.3-0.9,3.4-1.3,6.5-1.3c3,0,5.2,0.5,6.4,1.4c1.2,0.9,2,2.1,2.3,3.5c0.3,1.4,0.4,2.9,0.4,4.4
						c0,1.5-0.1,3-0.4,4.4c-0.3,1.4-1,2.6-2.3,3.5C897.2,48,895,48.4,891.9,48.4z M891.9,105.5c-3,0-5.2-0.5-6.5-1.4
						c-1.3-0.9-2-2.1-2.3-3.5c-0.2-1.4-0.4-2.9-0.4-4.4V62.7c0-1.5,0.1-3,0.4-4.4c0.3-1.4,1-2.6,2.3-3.5c1.3-0.9,3.4-1.4,6.5-1.4
						c3,0,5.2,0.5,6.4,1.4c1.2,0.9,2,2.1,2.3,3.5c0.3,1.4,0.4,2.9,0.4,4.5v33.3c0,1.5-0.1,3-0.4,4.4c-0.3,1.4-1,2.6-2.3,3.5
						C897.2,105,895,105.5,891.9,105.5z"/>
				</g>
			</g>
		</g>
		<g>
			
				<image style="overflow:visible;opacity:0.24;" width="61" height="61" xlink:href="6E914827.png"  transform="matrix(1 0 0 1 1173.0149 256.0148)">
			</image>
			<g>
				<g>
					<path class="st1" d="M1206.3,306.5c-3.1,0-6.2-0.6-9.4-1.9c-3.2-1.3-6.1-3.1-8.8-5.4c-2.7-2.4-4.8-5.2-6.4-8.5
						c-1.6-3.3-2.4-7-2.4-11.1c0-3.8,0.7-7.3,2.1-10.6c1.4-3.3,3.4-6.2,5.8-8.7c2.5-2.5,5.3-4.5,8.5-5.9c3.2-1.4,6.6-2.2,10.3-2.2
						c5,0,9.5,1.2,13.6,3.6c4.1,2.4,7.3,5.7,9.7,9.8c2.4,4.1,3.6,8.7,3.6,13.7c0,4.3-0.8,8.1-2.4,11.5c-1.6,3.4-3.8,6.2-6.4,8.5
						c-2.6,2.3-5.5,4.1-8.7,5.3C1212.5,305.9,1209.4,306.5,1206.3,306.5z M1206.1,287.7c1,0,2.2-0.3,3.5-0.8
						c1.3-0.5,2.5-1.4,3.4-2.6c1-1.2,1.5-2.9,1.5-5c0-1.7-0.4-3.2-1.1-4.4c-0.7-1.2-1.7-2.2-3-2.9c-1.3-0.7-2.8-1-4.5-1
						c-1.5,0-2.8,0.4-4.1,1.1c-1.2,0.7-2.2,1.7-2.9,3c-0.7,1.3-1.1,2.7-1.1,4.4c0,2.1,0.5,3.7,1.4,4.9c0.9,1.2,2.1,2.1,3.3,2.6
						C1204,287.5,1205.1,287.7,1206.1,287.7z"/>
				</g>
			</g>
		</g>
		<g>
			
				<image style="overflow:visible;opacity:0.24;" width="25" height="43" xlink:href="6E914825.png"  transform="matrix(1 0 0 1 56.0148 46.0148)">
			</image>
			<g>
				<g>
					<path class="st1" d="M70.5,57.3c-1.2,1-2.2,1.5-3.1,1.5c-0.9,0-1.9-0.6-3-1.8c-1.1-1.2-1.7-2.3-1.6-3.4
						c0.1-1.1,0.8-2.2,2.1-3.4l6.5-5.9c1.1-1,2.2-1.5,3.1-1.4c1,0.1,2,0.7,3,1.9c1.1,1.2,1.6,2.3,1.5,3.3c-0.1,1.1-0.8,2.2-2.2,3.4
						L70.5,57.3z M75.6,79c-1.7,0-2.9-0.3-3.6-1c-0.7-0.7-1-1.9-1-3.7V47.4c0-1.7,0.3-2.9,1-3.6c0.7-0.7,1.9-1,3.6-1
						c1.7,0,2.9,0.4,3.6,1.1s1,1.9,1,3.7v26.9c0,1.7-0.3,2.9-1,3.6C78.5,78.7,77.3,79,75.6,79z"/>
				</g>
			</g>
		</g>
		<g>
			
				<image style="overflow:visible;opacity:0.24;" width="34" height="44" xlink:href="6E91483B.png"  transform="matrix(1 0 0 1 567.0148 99.0148)">
			</image>
			<g>
				<g>
					<path class="st1" d="M586.9,132.8c-1.8,0-3.6-0.3-5.2-0.9c-1.6-0.6-3.1-1.5-4.4-2.6c-1.3-1.1-2.3-2.3-3-3.7
						c-0.7-1.4-1.1-2.8-1.1-4.4c0-2.2,1.7-3.3,5.1-3.3c1,0,1.7,0.1,2.2,0.3c0.5,0.2,0.9,0.5,1.2,0.9c0.3,0.4,0.6,1,0.9,1.8
						c0.4,0.9,1,1.5,1.6,1.9c0.6,0.4,1.5,0.6,2.7,0.6c0.9,0,1.7-0.1,2.3-0.4c0.6-0.2,1.1-0.6,1.5-1c0.4-0.4,0.5-1,0.5-1.6
						c0-0.7-0.2-1.3-0.5-1.7c-0.3-0.4-0.8-0.8-1.4-1c-0.6-0.2-1.3-0.3-2-0.3c-0.7,0-1.5-0.1-2.2-0.2c-0.7-0.1-1.3-0.5-1.8-1.1
						c-0.5-0.6-0.7-1.7-0.7-3.3c0-1.6,0.2-2.7,0.7-3.3c0.5-0.6,1.1-0.9,1.8-1c0.7-0.1,1.5-0.1,2.2-0.1c0.7,0,1.2,0,1.7-0.1
						c0.5-0.1,0.8-0.2,1-0.5c0.2-0.2,0.4-0.6,0.4-1c0-0.5-0.1-1-0.4-1.3c-0.3-0.4-0.6-0.6-1.1-0.8c-0.5-0.2-1-0.3-1.7-0.3
						c-0.8,0-1.5,0.1-1.9,0.3c-0.5,0.2-0.8,0.5-1.1,0.8c-0.3,0.3-0.5,0.6-0.6,1c-0.6,1.4-1.5,2.3-2.6,2.6c-1.1,0.3-2.4,0-3.9-0.8
						c-1.5-0.9-2.3-1.8-2.5-2.8c-0.2-1,0-2.2,0.7-3.6c0,0,0.1-0.2,0.3-0.6c0.2-0.4,0.5-1,1-1.6c0.5-0.7,1.2-1.3,2-2
						c0.9-0.7,1.9-1.2,3.3-1.7c1.3-0.4,2.9-0.7,4.7-0.7c2.1,0,4,0.3,5.6,1c1.6,0.7,3,1.6,4.1,2.7c1.1,1.1,1.9,2.3,2.5,3.6
						c0.6,1.3,0.8,2.6,0.8,4c0,1.3-0.2,2.3-0.6,3.2s-0.9,1.6-1.5,2.1c-0.6,0.5-1,0.8-1.4,1.1c0.3,0.2,0.7,0.5,1.2,0.9
						c0.5,0.4,0.9,0.9,1.4,1.5c0.5,0.6,0.8,1.3,1.2,2.1c0.3,0.8,0.5,1.7,0.5,2.8c0,2.4-0.6,4.5-1.8,6.3c-1.2,1.8-2.8,3.3-4.9,4.4
						C591.9,132.2,589.6,132.8,586.9,132.8z"/>
				</g>
			</g>
		</g>
		<g>
			
				<image style="overflow:visible;opacity:0.24;" width="34" height="43" xlink:href="6E91483C.png"  transform="matrix(1 0 0 1 1064.0149 59.0148)">
			</image>
			<g>
				<g>
					<path class="st1" d="M1092.3,92c-1.5,0-2.6-0.2-3.3-0.7c-0.6-0.5-1-1.1-1.2-1.8c-0.1-0.7-0.2-1.5-0.2-2.2v-5.4h-12.4
						c-1.5,0-2.6-0.2-3.3-0.7c-0.6-0.5-1-1.1-1.2-1.8c-0.1-0.7-0.2-1.5-0.2-2.2c0-0.4,0-0.7,0-0.9c0-0.2,0.1-0.5,0.1-0.7l3.9-16.1
						c0.4-1.9,1.1-3,1.9-3.4c0.8-0.4,2.1-0.4,3.8,0.1c1.3,0.3,2.2,0.8,2.9,1.5c0.7,0.6,0.9,1.4,0.7,2.3L1081,73h6.7V60.4
						c0-0.8,0.1-1.5,0.2-2.1c0.1-0.7,0.5-1.2,1.2-1.7c0.7-0.4,1.8-0.7,3.3-0.7c1.5,0,2.6,0.2,3.3,0.7c0.6,0.5,1,1.1,1.2,1.8
						c0.1,0.7,0.2,1.5,0.2,2.3v26.7c0,0.8-0.1,1.6-0.2,2.3c-0.2,0.7-0.6,1.3-1.2,1.8C1094.9,91.8,1093.8,92,1092.3,92z"/>
				</g>
			</g>
		</g>
		<g>
			
				<image style="overflow:visible;opacity:0.24;" width="32" height="44" xlink:href="6E91483F.png"  transform="matrix(1 0 0 1 799.0148 197.0148)">
			</image>
			<g>
				<g>
					<path class="st1" d="M817.7,230.3c-1.6,0-3-0.2-4.2-0.5c-1.2-0.4-2.3-0.8-3.1-1.3c-0.8-0.5-1.7-1.1-2.5-1.8
						c-0.5-0.4-1-0.9-1.4-1.4c-0.4-0.5-0.6-1.1-0.6-1.7c0-0.6,0.2-1.1,0.5-1.7c0.3-0.6,0.8-1.2,1.4-1.8c0.5-0.6,1-1,1.6-1.3
						c0.5-0.3,1.1-0.4,1.6-0.4c0.5,0,1,0.1,1.6,0.4c0.5,0.3,1.2,0.7,1.9,1.3c0.4,0.3,0.8,0.5,1.2,0.6c0.4,0.1,1,0.2,1.8,0.2
						c0.7,0,1.3-0.1,1.8-0.4c0.5-0.2,0.9-0.6,1.1-1c0.3-0.4,0.4-1,0.4-1.6c0-0.6-0.1-1.1-0.4-1.6c-0.3-0.4-0.6-0.8-1.1-1.1
						c-0.5-0.3-1-0.4-1.6-0.4c-0.4,0-0.8,0.1-1,0.2c-0.3,0.1-0.5,0.2-0.7,0.3c-0.2,0.1-0.2,0.2-0.3,0.2c-0.3,0.3-0.7,0.6-1.2,0.9
						s-1,0.4-1.7,0.4c-0.5,0-1-0.1-1.6-0.3c-0.5-0.2-1.1-0.4-1.7-0.8c-1.1-0.6-1.8-1.1-2.3-1.5c-0.4-0.4-0.6-0.9-0.6-1.5l1.9-14.7
						c0.1-0.5,0.2-1.1,0.4-1.9c0.2-0.7,0.6-1.4,1.3-2c0.6-0.6,1.6-0.9,3-0.9l11.7,0.1c0.8,0,1.5,0.1,2.2,0.2
						c0.7,0.1,1.3,0.5,1.7,1.2c0.5,0.7,0.7,1.8,0.7,3.4c0,1.5-0.2,2.5-0.6,3.2c-0.4,0.6-1,1-1.7,1.1c-0.7,0.1-1.4,0.2-2.1,0.2h-7.9
						l-0.4,2.7c0.1,0,0.2-0.1,0.3-0.1c0.1,0,0.2,0,0.3,0c0.1,0,0.2,0,0.3,0h0.3c1.6,0,3.1,0.3,4.6,1c1.5,0.6,2.8,1.5,3.9,2.7
						c1.1,1.1,2,2.4,2.7,3.9c0.7,1.4,1,3,1,4.6c0,2.4-0.5,4.6-1.6,6.5c-1.1,1.9-2.6,3.5-4.4,4.6C822.2,229.7,820,230.3,817.7,230.3z
						"/>
				</g>
			</g>
		</g>
		<g>
			
				<image style="overflow:visible;opacity:0.24;" width="59" height="59" xlink:href="6E91483D.png"  transform="matrix(1 0 0 1 1310.0149 57.0148)">
			</image>
			<g>
				<g>
					<path class="st1" d="M1339.7,105.4c-3.2,0-6.3-0.7-9.1-1.9c-2.8-1.3-5.3-3.1-7.3-5.5c-2.1-2.4-3.7-5.1-4.9-8.3
						c-1.2-3.1-1.7-6.6-1.7-10.3V62.7c0-1.6,0.1-3.1,0.4-4.5c0.3-1.4,1-2.6,2.3-3.5c1.3-0.9,3.4-1.4,6.5-1.4c3.1,0,5.3,0.5,6.5,1.4
						c1.2,0.9,2,2.1,2.3,3.5c0.3,1.4,0.4,2.9,0.4,4.5v16.6c0,1.6,0.3,2.9,0.9,4c0.6,1.1,1.4,1.9,2.5,2.5c1.1,0.6,2.4,0.9,3.9,0.9
						c1.5,0,2.8-0.3,3.8-0.9c1.1-0.6,1.9-1.5,2.5-2.6c0.6-1.1,0.9-2.4,0.9-3.9V62.6c0-1.6,0.1-3.1,0.4-4.5c0.3-1.4,1-2.5,2.3-3.4
						c1.3-0.9,3.4-1.3,6.5-1.3c3.1,0,5.3,0.5,6.5,1.4c1.2,0.9,2,2.1,2.3,3.5c0.3,1.4,0.4,2.9,0.4,4.4v33.8c0,1.5-0.1,2.9-0.4,4.3
						c-0.3,1.4-1.1,2.5-2.3,3.4c-1.3,0.9-3.4,1.3-6.5,1.3c-2.2,0-4-0.3-5.2-0.8c-1.3-0.5-2.1-1.2-2.7-1.9c-0.5-0.8-0.9-1.6-1-2.4
						c-0.1-0.8-0.2-1.5-0.2-2l1.7,0.5c-1.1,1.3-2.1,2.4-3.2,3.2c-1,0.9-2.3,1.6-3.7,2.3C1343.2,105.1,1341.6,105.4,1339.7,105.4z"/>
				</g>
			</g>
		</g>
		<g>
			
				<image style="overflow:visible;opacity:0.24;" width="43" height="45" xlink:href="6E91483A.png"  transform="matrix(1 0 0 1 1336.0149 265.0148)">
			</image>
			<g>
				<g>
					<path class="st1" d="M1358.7,299.5c-1.1,0.6-2.3,0.7-3.6,0.2c-1.3-0.4-2.2-1.2-2.8-2.3c-0.3-0.6-0.5-1.2-0.6-1.8
						c-0.1-0.6-0.2-1.2-0.2-1.8c0-0.6,0.1-1.2,0.2-1.8c0.3-1.4,0.8-2.8,1.5-4.3c0.7-1.4,1.5-2.8,2.4-4.2c0.9-1.4,1.6-2.7,2.4-4
						c0.7-1.3,1.2-2.6,1.4-3.8c0.2-1.2,0.1-2.3-0.4-3.4c-0.2-0.3-0.4-0.7-0.8-1.1c-0.4-0.4-0.9-0.7-1.6-0.8
						c-0.7-0.1-1.5,0.1-2.6,0.6c-0.6,0.3-1.1,0.7-1.5,1.1c-0.4,0.4-0.6,0.8-0.7,1.3c-0.1,0.5-0.1,1,0,1.5c0.1,0.5,0.3,1.1,0.6,1.7
						c0.3,0.6,0.6,1.3,0.8,1.9c0.2,0.7,0.1,1.3-0.3,2c-0.4,0.7-1.3,1.4-2.7,2.1c-1.4,0.7-2.4,1-3.2,0.9c-0.8-0.1-1.4-0.5-1.9-1.1
						c-0.5-0.6-0.9-1.2-1.2-1.9c-0.7-1.4-1.2-3-1.4-4.6c-0.2-1.7-0.1-3.4,0.4-5.1s1.2-3.3,2.3-4.7c1.1-1.5,2.6-2.7,4.4-3.7
						c2.2-1.2,4.5-1.7,6.8-1.5c2.3,0.1,4.5,0.9,6.5,2.1c2,1.3,3.6,3,4.7,5.3c0.8,1.5,1.2,3,1.4,4.5s0.1,2.9-0.2,4.3
						c-0.3,1.4-0.7,2.6-1.2,3.8c-0.5,1.1-1.1,2.2-1.7,3c-0.6,0.9-1.1,1.6-1.5,2.1c-0.4,0.5-0.7,0.8-0.8,0.8l0.1-1l7.2-3.8
						c0.7-0.4,1.4-0.7,2.1-0.9c0.7-0.2,1.4-0.1,2.1,0.3s1.4,1.3,2.1,2.7c0.7,1.3,1,2.4,0.9,3.2c-0.1,0.8-0.4,1.4-1,1.9
						c-0.6,0.5-1.2,0.9-1.9,1.2L1358.7,299.5z"/>
				</g>
			</g>
		</g>
	</g>
</g>
</svg>
