<?xml version="1.0" encoding="utf-8"?>
<!-- Generator: Adobe Illustrator 24.0.2, SVG Export Plug-In . SVG Version: 6.00 Build 0)  -->
<svg version="1.1" id="Layer_1" xmlns="http://www.w3.org/2000/svg" xmlns:xlink="http://www.w3.org/1999/xlink" x="0px" y="0px"
	 viewBox="0 0 165 564" style="enable-background:new 0 0 165 564;" xml:space="preserve">
<style type="text/css">
	.st0{fill:none;}
	.st1{fill:#9B5906;}
	.st2{fill:#FF821D;}
	.st3{fill:#EFBE82;stroke:#1D1D1B;stroke-width:0.45;stroke-miterlimit:10;}
	.st4{fill:#1D1D1B;stroke:#1D1D1B;stroke-width:0.45;stroke-miterlimit:10;}
	.st5{fill:#FBC969;stroke:#1D1D1B;stroke-width:0.55;stroke-miterlimit:10;}
	.st6{fill:url(#SVGID_1_);stroke:#1D1D1B;stroke-width:0.5;stroke-miterlimit:10;}
	.st7{fill:#2D2D2D;stroke:#1D1D1B;stroke-width:0.5;stroke-miterlimit:10;}
	.st8{fill:#EC6DA4;stroke:#1D1D1B;stroke-width:0.5;stroke-miterlimit:10;}
	.st9{fill:#EFA60C;stroke:#1D1D1B;stroke-width:0.55;stroke-miterlimit:10;}
</style>
<title>barraderecha</title>
<g>
	<g id="Layer_2_1_">
		<g id="barra_lateral_derecha">
			<image style="overflow:visible;opacity:0.4;enable-background:new    ;" width="165" height="116" xlink:href="E0ABC8C7.png" >
			</image>
			<line class="st0" x1="49.8" y1="20.9" x2="27.1" y2="27.8"/>
			<path class="st1" d="M18.9,28.9c-0.7-3.4,1.6-6.7,5.4-7.9L47,14.1c4.3-1.3,9.1,0.6,10.6,4.3s-0.8,7.8-5.1,9.1l-22.7,6.9
				c-4.3,1.3-9.1-0.6-10.6-4.4C19.1,29.7,19,29.3,18.9,28.9z"/>
			<line class="st0" x1="53.8" y1="21.5" x2="33.5" y2="36.4"/>
			<path class="st1" d="M25.4,37.6c-0.5-2.6,0.6-5.2,2.8-6.6l20.2-14.8c3.6-2.6,8.5-2.2,11.7,0.8c2.6,2.5,2.7,6.6,0.2,9.1
				c-0.3,0.4-0.7,0.7-1.2,1L39,41.8c-3.6,2.6-8.5,2.2-11.8-0.8C26.3,40.1,25.6,38.9,25.4,37.6z"/>
			<line class="st0" x1="43" y1="23.9" x2="40.4" y2="45"/>
			<path class="st2" d="M40.4,45.7c0.4,0,0.7-0.2,0.8-0.6l2.6-21.1c0-0.4-0.3-0.7-0.7-0.7c0,0,0,0,0,0c-0.4-0.1-0.8,0.2-0.9,0.6
				l-2.6,21.1c0,0.4,0.3,0.7,0.7,0.7C40.3,45.6,40.3,45.6,40.4,45.7L40.4,45.7z"/>
			<path class="st1" d="M33.9,45.9c-0.1-0.7-0.2-1.3-0.1-2l2.6-21.1c0.5-3.9,4.6-6.8,9.1-6.3s7.9,3.9,7.4,7.9l-2.6,21.2
				c-0.5,3.9-4.6,6.8-9.1,6.3C37.4,51.5,34.5,49,33.9,45.9z"/>
			<path class="st2" d="M56.4,11.6c-0.6-0.1-15.4,12.3-15.4,12.3l11.6,26.2c0,0,17.4-0.3,17.7-0.8s10.2-17,10.3-17.6
				S56.4,11.6,56.4,11.6z"/>
			<path class="st2" d="M75.7,38.7L57,20.5L26.3,17c-3.7-0.4-6.5-2.9-7.1-5.9C19,10.4,19,9.7,19.1,9c0.6-3.9,4.8-6.7,9.3-6.1
				l30.8,3.5c3.8,0.4,7.4,2,10.2,4.7l18.8,18.3c3.2,2.9,4.7,7.3,3.9,11.6L75.7,38.7z"/>
			<path class="st2" d="M59.9,91.7l22.7,1.2L89.9,54c0.6-3,2.4-10.4,1.5-13.3l-5.1-5.4l-23.1,5.4"/>
			<line class="st0" x1="31.3" y1="18.1" x2="52.1" y2="47.5"/>
			<path class="st2" d="M52.1,48.2c0.1,0,0.3,0,0.4-0.1c0.3-0.1,0.5-0.5,0.3-0.8c0,0,0-0.1-0.1-0.1L31.9,17.8
				c-0.3-0.3-0.7-0.4-1.1-0.2c-0.3,0.1-0.5,0.5-0.3,0.8c0,0,0,0.1,0.1,0.1l20.9,29.4C51.6,48.1,51.9,48.2,52.1,48.2z"/>
			<polygon class="st3" points="20.3,24.4 25.7,20.9 28.2,14.1 26.4,7.9 12,8.4 9.6,14.7 			"/>
			<path class="st4" d="M12,8.4L6.3,8.5C5.6,8.5,5,9.1,5,9.9c0,0.4,0.2,0.7,0.4,1l4.2,3.9L12,8.4z"/>
			<path class="st5" d="M115.3,47.2L25.6,13.9c-1.9-0.7-2.9-2.5-2.3-4l0,0c0.6-1.5,2.5-2.2,4.4-1.5l89.7,33.4L115.3,47.2z"/>
			
				<linearGradient id="SVGID_1_" gradientUnits="userSpaceOnUse" x1="-3535.2664" y1="3306.72" x2="-3517.4863" y2="3306.72" gradientTransform="matrix(-0.3489 0.9372 0.9372 0.3489 -4206.3662 2204.301)">
				<stop  offset="0" style="stop-color:#F08F34"/>
				<stop  offset="9.000000e-02" style="stop-color:#F4A024"/>
				<stop  offset="0.23" style="stop-color:#F9B610"/>
				<stop  offset="0.37" style="stop-color:#FCC304"/>
				<stop  offset="0.5" style="stop-color:#FDC700"/>
				<stop  offset="0.64" style="stop-color:#FCC304"/>
				<stop  offset="0.77" style="stop-color:#F9B70F"/>
				<stop  offset="0.9" style="stop-color:#F5A421"/>
				<stop  offset="1" style="stop-color:#F08F34"/>
			</linearGradient>
			<polygon class="st6" points="115.7,60 121.9,43.4 130.2,46.4 124,63.1 			"/>
			
				<rect x="107.6" y="48.4" transform="matrix(0.3489 -0.9372 0.9372 0.3489 28.1962 142.2759)" class="st7" width="17.8" height="4.8"/>
			
				<rect x="120.4" y="53.2" transform="matrix(0.3489 -0.9372 0.9372 0.3489 32.0685 157.3914)" class="st7" width="17.8" height="4.8"/>
			<path class="st8" d="M132.1,66.2l-3.7-1.4l6.2-16.7l3.7,1.4c4.6,1.7,6.9,6.8,5.2,11.4c0,0,0,0,0,0l0,0
				C141.9,65.5,136.8,67.9,132.1,66.2C132.2,66.2,132.1,66.2,132.1,66.2z"/>
			<path class="st5" d="M111.1,58.3L21.5,25c-1.9-0.7-2.9-2.5-2.3-4l0,0c0.6-1.5,2.5-2.2,4.4-1.5l89.7,33.4L111.1,58.3z"/>
			<path class="st9" d="M113.2,52.8L23.5,19.4c-1.9-0.7-2.9-2.5-2.3-4l0,0c0.6-1.5,2.5-2.2,4.4-1.5l89.7,33.4L113.2,52.8z"/>
			<path class="st2" d="M82.2,92.7l-36,0.8l-3.7-9.1c-2.4-5.9-3.5-12.3-3.3-18.7l-0.5-14.1c0.1-1.8-4.4-10.7-8-18.4l0,0
				c-1.3-2.8-2.5-5.6-3.5-8.5c-0.9-2.7,0.2-5.4,3.2-6.9c3.9-2.1,7.7-0.4,10.1,3l5.1,6.1l9.5,11.3c2.1,2.1,5.1,3.1,8,2.6L82.2,92.7z"
				/>
			<path class="st2" d="M45.7,26.8l-5.1-6.1c-2.4-3.4-6.2-5-10.1-3c-3,1.6-4.1,4.2-3.2,6.9c1,2.9,2.2,5.7,3.5,8.5l-4.2-7.2
				c-2-3.5-0.4-7.8,3.7-9.6c0.4-0.2,0.9-0.3,1.3-0.4c3.8-1,8,0.5,9.8,3.7L45.7,26.8z"/>
			
				<image style="overflow:visible;opacity:0.4;enable-background:new    ;" width="66" height="488" xlink:href="E0ABC8C5.png"  transform="matrix(1 0 0 1 39 76)">
			</image>
			<path class="st2" d="M50.2,541.2h30.9c2.5-171.8,3.6-324,1.6-401.1c-0.5-19.6-2.6-41.5,1.8-61.4l-41.3,2.2
				c5.7,17.8,7.3,41.8,7.8,61.3C53.3,229.5,52.7,374.1,50.2,541.2z"/>
		</g>
	</g>
</g>
</svg>
