<svg xmlns="http://www.w3.org/2000/svg" viewBox="0 0 86.15 55.78"><defs><style>.cls-1{fill:#ff821d;}.cls-2{fill:#2da323;stroke:#fff;stroke-width:2px;}.cls-3{fill:#fff;}</style></defs><title>botonplay</title><g id="Layer_2" data-name="Layer 2"><g id="pizarra"><g id="Layer_2-2" data-name="Layer 2"><g id="botones_play_y_repeat" data-name="botones play y repeat"><path class="cls-1" d="M86.15,45.35v-34C86.15,5.1,81.34,0,75.43,0H0V55.78H76.3C81.73,55.78,86.15,51.1,86.15,45.35Z"/><circle class="cls-2" cx="65.04" cy="27.06" r="13.87"/><path class="cls-3" d="M69.4,26.2,63,22.26a1,1,0,0,0-1.38.32,1,1,0,0,0-.15.54V31a1,1,0,0,0,1,1,1,1,0,0,0,.54-.15l6.4-3.94a1,1,0,0,0,.35-1.37A1.17,1.17,0,0,0,69.4,26.2Z"/></g></g></g></g></svg>