<svg xmlns="http://www.w3.org/2000/svg" viewBox="0 0 86.15 55.78"><defs><style>.cls-1{fill:#ff821d;}.cls-2{fill:#2da323;stroke:#fff;stroke-width:2px;}.cls-3{fill:#fff;}</style></defs><title>botonreplay</title><g id="Layer_2" data-name="Layer 2"><g id="pizarra"><g id="Layer_2-2" data-name="Layer 2"><g id="botones_play_y_repeat" data-name="botones play y repeat"><path class="cls-1" d="M86.15,45.35v-34C86.15,5.1,81.34,0,75.43,0H0V55.78H76.3C81.73,55.78,86.15,51.1,86.15,45.35Z"/><circle class="cls-2" cx="65.05" cy="27.9" r="13.87"/><path class="cls-3" d="M65.52,34.28a6.44,6.44,0,0,1-2.49-.5,6.25,6.25,0,0,1-2-1.37.84.84,0,0,1,.09-1.18.83.83,0,0,1,1.1,0,4.72,4.72,0,0,0,6.67,0,4.76,4.76,0,0,0,0-6.68,4.72,4.72,0,0,0-6.67,0,4.59,4.59,0,0,0-1,1.5.84.84,0,1,1-1.55-.65,6.66,6.66,0,0,1,1.37-2A6.11,6.11,0,0,1,68,22a6.25,6.25,0,0,1,2,1.37,6.31,6.31,0,0,1,0,9,6.25,6.25,0,0,1-2,1.37A6.43,6.43,0,0,1,65.52,34.28Z"/><path class="cls-3" d="M62.14,26.9,60,28.54a.81.81,0,0,1-1.13-.08.79.79,0,0,1-.19-.46l-.34-2.71a.8.8,0,0,1,.72-.89.74.74,0,0,1,.39.05L62,25.52a.8.8,0,0,1,.4,1.06A.74.74,0,0,1,62.14,26.9Z"/></g></g></g></g></svg>