<?xml version="1.0" encoding="utf-8"?>
<!-- Generator: Adobe Illustrator 24.0.2, SVG Export Plug-In . SVG Version: 6.00 Build 0)  -->
<svg version="1.1" id="Layer_1" xmlns="http://www.w3.org/2000/svg" xmlns:xlink="http://www.w3.org/1999/xlink" x="0px" y="0px"
	 viewBox="0 0 512 512" style="enable-background:new 0 0 512 512;" xml:space="preserve">
<style type="text/css">
	.st0{clip-path:url(#SVGID_2_);}
	.st1{fill:#E5E5E5;stroke:#000000;stroke-width:1.45;stroke-miterlimit:10;}
	.st2{fill:#BF4400;}
	.st3{stroke:#000000;stroke-width:1.45;stroke-miterlimit:10;}
	.st4{fill:#003B49;}
	.st5{fill:#FFFFFF;stroke:#000000;stroke-width:10.9651;stroke-miterlimit:10;}
	.st6{fill:#E5E5E5;stroke:#000000;stroke-width:1.4523;stroke-miterlimit:10;}
	.st7{stroke:#000000;stroke-width:1.4523;stroke-miterlimit:10;}
	.st8{fill:#FFFFFF;stroke:#000000;stroke-width:10.0666;stroke-miterlimit:10;}
	.st9{fill:#003B49;stroke:#000000;stroke-width:12.7089;stroke-miterlimit:10;}
	.st10{fill:#FFFFFF;}
	.st11{fill:#FFFFFF;stroke:#000000;stroke-width:6.6815;stroke-miterlimit:10;}
	.st12{fill:#FFFFFF;stroke:#000000;stroke-width:6.6815;stroke-linecap:round;stroke-miterlimit:10;}
	.st13{fill:#00607A;}
	.st14{fill:none;stroke:#000000;stroke-width:12.7089;stroke-miterlimit:10;}
	.st15{fill:#00607A;stroke:#000000;stroke-width:7.4358;stroke-miterlimit:10;}
	.st16{fill:#3291B2;stroke:#000000;stroke-width:12.7089;stroke-miterlimit:10;}
	.st17{fill:#B3B3B3;stroke:#000000;stroke-width:5.4994;stroke-miterlimit:10;}
	.st18{fill:#B3B3B3;stroke:#000000;stroke-width:3.2422;stroke-miterlimit:10;}
	.st19{fill:#B3B3B3;stroke:#000000;stroke-width:3.7179;stroke-miterlimit:10;}
	.st20{fill:none;stroke:#000000;stroke-width:7.4358;stroke-miterlimit:10;}
	.st21{fill:#FFFFFF;stroke:#000000;stroke-width:6.3021;stroke-miterlimit:10;}
	.st22{fill:#FFFFFF;stroke:#000000;stroke-width:6.3544;stroke-miterlimit:10;}
	.st23{fill:none;stroke:#000000;stroke-width:12.7089;stroke-linecap:round;stroke-miterlimit:10;}
	.st24{stroke:#000000;stroke-width:0.7434;stroke-miterlimit:10;}
	.st25{fill:#FFFFFF;stroke:#000000;stroke-width:6.446;stroke-miterlimit:10;}
	.st26{fill:#FFFFFF;stroke:#000000;stroke-width:6.6815;stroke-linecap:round;stroke-linejoin:round;stroke-miterlimit:10;}
</style>
<g>
	<defs>
		<rect id="SVGID_1_" width="512" height="512"/>
	</defs>
	<clipPath id="SVGID_2_">
		<use xlink:href="#SVGID_1_"  style="overflow:visible;"/>
	</clipPath>
	<g class="st0">
		<g>
			<g>
				<path class="st9" d="M892.2,500c-0.7-20.2-2.2-40.3-4.3-60.5c-130.4,0.2-218.2-13.8-271.6-26.9c-65.1-15.9-93.1-33.6-95.9-35.4
					c0.2,0.1,0.3,0.2,0.3,0.2l-81.4,19.3c3.7,2.7,60.2,49.6,142.1,70.8c46.4,12,99.5,20.8,157.9,26.2
					C786.7,498.1,837.9,500.2,892.2,500z"/>
			</g>
		</g>
		<g>
			<g>
				<path class="st14" d="M-113.7,30.1c25.4,31.2,41.9,82.3,41.9,140.1c0,56.7-15.9,106.9-40.4,138.2c-5.7,7.3-12,13.6-18.5,18.7
					v375.4h622.2V317.9c-2.9-2.9-5.6-6.1-8.3-9.5c-24.5-31.3-40.4-81.5-40.4-138.2c0-57.8,16.5-108.9,41.9-140.1
					c2.2-2.7,4.5-5.3,6.8-7.7v-190.3h-622.2V13.3C-124.8,17.9-119.1,23.6-113.7,30.1z"/>
				<path class="st15" d="M-65.2,30.1c25.3,31.2,41.9,82.3,41.9,140.1c0,56.7-15.9,106.9-40.4,138.2c-5.8,7.3-11.9,13.6-18.6,18.7
					v375.4h573.7V317.9c-2.9-2.9-5.6-6.1-8.3-9.5c-24.5-31.3-40.4-81.6-40.4-138.2c0-57.8,16.6-108.9,41.9-140.1
					c2.2-2.7,4.5-5.2,6.8-7.7v-190.3H-82.2V13.3C-76.2,17.9-70.5,23.6-65.2,30.1z"/>
				<path class="st16" d="M-65.2,30.1c25.3,31.2,41.9,82.3,41.9,140.1c0,56.7-15.9,106.9-40.4,138.2c-5.8,7.3-11.9,13.6-18.6,18.7
					v375.4H540V317.9c-2.9-2.9-5.6-6.1-8.3-9.5c-24.5-31.3-40.4-81.6-40.4-138.2c0-57.8,16.5-108.9,41.9-140.1
					c2.2-2.7,4.5-5.2,6.8-7.7v-190.3H-82.2V13.3C-76.2,17.9-70.5,23.6-65.2,30.1z"/>
				<g>
					<path class="st17" d="M216.6,135.6L216.6,135.6c60.4,0,109.4-49,109.4-109.4v-194.1H107.2V26.2
						C107.2,86.6,156.2,135.6,216.6,135.6z"/>
					<line class="st18" x1="218.6" y1="-167.3" x2="218.6" y2="135.6"/>
				</g>
			</g>
			<g>
				<ellipse class="st21" cx="396.1" cy="378.7" rx="74" ry="111.4"/>
				<ellipse class="st22" cx="193.9" cy="372.9" rx="75.3" ry="111.4"/>
				<path class="st23" d="M448.4,229.8c0,0-40-41.7-78.6,0"/>
				<path class="st23" d="M230.7,229.8c0,0-40-41.7-78.6,0"/>
				<g>
					<ellipse class="st24" cx="429" cy="372.9" rx="38.7" ry="57.3"/>
					<circle class="st10" cx="415.4" cy="351.1" r="11.6"/>
				</g>
				<g>
					<ellipse class="st24" cx="230.1" cy="369.6" rx="38.7" ry="57.3"/>
					<circle class="st10" cx="213.6" cy="347.8" r="11.6"/>
				</g>
			</g>
		</g>
	</g>
</g>
</svg>
