<svg id="Layer_1" data-name="Layer 1" xmlns="http://www.w3.org/2000/svg" xmlns:xlink="http://www.w3.org/1999/xlink" viewBox="0 0 512 512"><defs><style>.cls-1,.cls-10,.cls-11,.cls-8,.cls-9{fill:none;}.cls-2{clip-path:url(#clip-path);}.cls-3,.cls-5{fill:#d88500;}.cls-10,.cls-11,.cls-12,.cls-13,.cls-14,.cls-15,.cls-16,.cls-17,.cls-3,.cls-7,.cls-8{stroke:#000;}.cls-11,.cls-3,.cls-7{stroke-linecap:round;}.cls-3,.cls-7{stroke-linejoin:round;}.cls-3{stroke-width:5.51px;}.cls-4{fill:#fbccac;}.cls-6{fill:#f9b233;}.cls-7{stroke-width:0.05px;}.cls-10,.cls-11,.cls-12,.cls-13,.cls-14,.cls-15,.cls-16,.cls-17,.cls-8,.cls-9{stroke-miterlimit:10;}.cls-8{stroke-width:5.8px;}.cls-9{stroke:#bf720c;stroke-width:3.09px;}.cls-10,.cls-11{stroke-width:7.73px;}.cls-12{fill:#abd6bd;stroke-width:1.47px;}.cls-13{fill:#ffd18f;stroke-width:2.9px;}.cls-14,.cls-15{stroke-width:0.15px;}.cls-15,.cls-16,.cls-18{fill:#fff;}.cls-16{stroke-width:3.87px;}.cls-17{stroke-width:0.49px;}</style><clipPath id="clip-path"><rect class="cls-1" width="512" height="512"/></clipPath></defs><title>favicon</title><g class="cls-2"><path class="cls-3" d="M381.31,562.08c24.47-18.46,37.76-46.91,34.38-75.21a74.89,74.89,0,0,0-17.55-39.68,89,89,0,0,0-17.46-15.92c-27.15-18.91-64.37-20.5-97.13-4.14a17.31,17.31,0,1,0,15.46,31c21.42-10.69,45.14-10.09,61.89,1.58,6.79,4.73,18.48,15.09,20.42,31.29,2.16,18.14-8.5,36.85-27.18,47.66a17.31,17.31,0,0,0,17.35,30A97.13,97.13,0,0,0,381.31,562.08Z"/><path class="cls-3" d="M127.74,562.08C103.27,543.62,90,515.17,93.36,486.87a75,75,0,0,1,17.55-39.68,89.3,89.3,0,0,1,17.46-15.92c27.15-18.91,64.37-20.5,97.13-4.14a17.31,17.31,0,1,1-15.46,31c-21.42-10.69-45.13-10.09-61.88,1.58-6.8,4.73-18.49,15.09-20.42,31.29-2.17,18.14,8.5,36.85,27.17,47.66a17.31,17.31,0,0,1-17.35,30A97.13,97.13,0,0,1,127.74,562.08Z"/><polygon class="cls-4" points="163.93 136.28 193.48 166.04 222.39 136.28 251.22 166.04 280.23 136.28 309.14 166.04 338.52 136.28 251.36 11 163.93 136.28"/><path class="cls-5" d="M163.93,136.27v52s1.19,235.47,1.5,353.2h57V136.27L193.48,166Z"/><polygon class="cls-5" points="280.33 136.17 280.33 541.42 338.15 541.42 338.62 188.21 338.62 136.17 309.24 165.93 280.33 136.17"/><polygon class="cls-6" points="222.39 136.28 222.39 541.52 280.23 541.52 280.23 136.28 251.22 166.04 222.39 136.28"/><path class="cls-7" d="M270.48,39.81s-17.62,16.62-37.39,0L251.36,11Z"/><line class="cls-1" x1="222.39" y1="136.27" x2="222.39" y2="136.06"/><line class="cls-8" x1="280.23" y1="136.27" x2="280.23" y2="136.24"/><line class="cls-9" x1="222.39" y1="136.07" x2="222.39" y2="541.52"/><line class="cls-9" x1="280.23" y1="136.48" x2="280.23" y2="541.52"/><path class="cls-10" d="M163.92,136.27,251.36,11l87.15,125.27v52.06l-.45,353.19H165.43c-.31-117.73-1.51-353.19-1.51-353.19Z"/><polyline class="cls-10" points="338.51 136.27 309.15 166.04 280.23 136.27 251.22 166.04 222.39 136.27 193.48 166.04 163.92 136.27"/><path class="cls-11" d="M358.24,232.45s-19-19.85-37.43,0"/><path class="cls-11" d="M254.61,232.45s-19-19.85-37.42,0"/><path class="cls-12" d="M288,393.74c0,.32,0,.64,0,1q0-.48,0-1Z"/><path class="cls-13" d="M226.45,406.22C229,408,252,423.35,288,423.35s59-15.38,61.54-17.14A19,19,0,0,0,328,375c-.57.37-10.59,6.73-26.53,9.31a84.29,84.29,0,0,1-9.46,1q-1.93.09-4,.09c-1.3,0-2.58,0-3.82-.08a80.33,80.33,0,0,1-9.5-1c-16.06-2.58-26.14-9-26.64-9.33a19,19,0,0,0-21.59,31.22Zm2.15-21.66a10.6,10.6,0,0,1,14.78-2.63c.13.08,10,6.71,26.38,10A92.33,92.33,0,0,0,288,393.74h.1a93.17,93.17,0,0,0,18.27-1.83c16.18-3.28,26-9.8,26.24-10a10.63,10.63,0,0,1,12.15,17.45C343.85,400,322,415,288,415s-55.85-15-56.76-15.63A10.65,10.65,0,0,1,228.6,384.56Z"/><path class="cls-14" d="M231.24,399.38C232.15,400,254,415,288,415s55.85-15,56.76-15.63a10.63,10.63,0,0,0-12.15-17.45c-.27.18-10.06,6.7-26.24,10a14.12,14.12,0,0,1,.27,2.79c0,6.38-4.16,11.55-9.29,11.55s-9.28-5.17-9.28-11.55c0,6.38-4.16,11.55-9.3,11.55s-9.29-5.17-9.29-11.55a14,14,0,0,1,.28-2.77c-16.37-3.29-26.25-9.92-26.38-10a10.63,10.63,0,1,0-12.14,17.45Z"/><path class="cls-14" d="M288,393.74c0,.32,0,.64,0,1q0-.48,0-1Z"/><path class="cls-15" d="M288.07,394.7c0,6.38,4.16,11.55,9.28,11.55s9.29-5.17,9.29-11.55a14.12,14.12,0,0,0-.27-2.79,93.17,93.17,0,0,1-18.27,1.83Q288.07,394.22,288.07,394.7Z"/><path class="cls-15" d="M269.48,394.7c0,6.38,4.16,11.55,9.29,11.55s9.3-5.17,9.3-11.55c0-.32,0-.64,0-1h0a92.33,92.33,0,0,1-18.24-1.81A14,14,0,0,0,269.48,394.7Z"/><ellipse class="cls-16" cx="332.75" cy="303.32" rx="35.82" ry="53.04"/><ellipse class="cls-17" cx="349.49" cy="300.53" rx="18.43" ry="27.28"/><circle class="cls-18" cx="357.05" cy="290.53" r="7.07"/><ellipse class="cls-16" cx="237.11" cy="300.53" rx="35.82" ry="53.04"/><ellipse class="cls-17" cx="254.5" cy="300.53" rx="18.43" ry="27.28"/><circle class="cls-18" cx="261.57" cy="290.53" r="7.07"/></g></svg>