<svg xmlns="http://www.w3.org/2000/svg" viewBox="0 0 399.98 102.47"><defs><style>.cls-1{fill:#23841a;}.cls-2{fill:#fff;}.cls-3,.cls-4{fill:none;stroke-width:5px;}.cls-3{stroke:#ff7300;stroke-linejoin:round;}.cls-4{stroke:#fff;}.cls-5{fill:#ff7300;}</style></defs><title>11t</title><g id="Layer_2" data-name="Layer 2"><g id="pestaña_identificativa" data-name="pestaña identificativa"><rect class="cls-1" width="399.98" height="102.47" rx="32.4"/><path class="cls-2" d="M139.16,32.2a2.77,2.77,0,0,1,.32,1.06,1,1,0,0,1-.26.77,2.88,2.88,0,0,1-.94.67,2,2,0,0,1-1.55.29,2.14,2.14,0,0,1-1-1.2l-4.89-10.25-4.89,10.25a2.23,2.23,0,0,1-1,1.16,2.18,2.18,0,0,1-1.54-.29,2.74,2.74,0,0,1-1-.64,1,1,0,0,1-.26-.8,2.82,2.82,0,0,1,.36-1.09l6.58-13.67a2,2,0,0,1,.74-.8,1.9,1.9,0,0,1,1-.29,1.78,1.78,0,0,1,.7.13,2,2,0,0,1,.59.39,2.22,2.22,0,0,1,.44.6Zm-12.55-1.44,1.55-3.22h5.33L135,30.77Zm2.48-14.1a.8.8,0,0,1-.73-.25,2.62,2.62,0,0,1-.52-1,2,2,0,0,1-.09-1.3,1.38,1.38,0,0,1,.92-.67l4.4-1.35a.88.88,0,0,1,.73.29,2.53,2.53,0,0,1,.5,1,1.85,1.85,0,0,1,.08,1.27,1.32,1.32,0,0,1-.91.68Z"/><path class="cls-2" d="M143.08,34.82a2.5,2.5,0,0,1-1.31-.26,1,1,0,0,1-.47-.7,4.53,4.53,0,0,1-.09-.91v-8.8a4.13,4.13,0,0,1,.09-.89,1,1,0,0,1,.49-.66,2.6,2.6,0,0,1,1.33-.25,2.49,2.49,0,0,1,1.17.21,1,1,0,0,1,.49.51,1.74,1.74,0,0,1,.11.57,1,1,0,0,0,.05.36l-.15.47a1.43,1.43,0,0,1,.39-.76A3.53,3.53,0,0,1,146,23a4.73,4.73,0,0,1,1.1-.49,4.29,4.29,0,0,1,1.16-.17,5.05,5.05,0,0,1,2.14.44A4.29,4.29,0,0,1,152,24.05,5.65,5.65,0,0,1,153,26a8.18,8.18,0,0,1,.34,2.44V33a5.4,5.4,0,0,1-.08.91,1.06,1.06,0,0,1-.48.69,2.68,2.68,0,0,1-1.34.25,2.46,2.46,0,0,1-1.32-.27,1,1,0,0,1-.49-.7,4.46,4.46,0,0,1-.09-.91V28.43a2.92,2.92,0,0,0-.26-1.28,1.93,1.93,0,0,0-.75-.8,2.91,2.91,0,0,0-2.47,0,2,2,0,0,0-.81.81,2.59,2.59,0,0,0-.29,1.25V33a4.63,4.63,0,0,1-.09.92,1,1,0,0,1-.47.68A2.53,2.53,0,0,1,143.08,34.82Z"/><path class="cls-2" d="M161,34.53A4.82,4.82,0,0,1,158.8,34,5.81,5.81,0,0,1,157,32.71a6.47,6.47,0,0,1-1.22-2,6,6,0,0,1-.45-2.32,6,6,0,0,1,.45-2.31A6.2,6.2,0,0,1,157,24.19a5.82,5.82,0,0,1,1.8-1.32,4.73,4.73,0,0,1,2.11-.49,3.84,3.84,0,0,1,1.9.44,3.33,3.33,0,0,1,1.25,1.25A6.56,6.56,0,0,1,164.8,26a11.82,11.82,0,0,1,.24,2.49,11,11,0,0,1-.42,3.21,4.2,4.2,0,0,1-1.3,2.1A3.58,3.58,0,0,1,161,34.53ZM161.4,40a7,7,0,0,1-1.76-.23,7.61,7.61,0,0,1-1.58-.6,4.52,4.52,0,0,1-1.15-.8,1.21,1.21,0,0,1-.43-.85,1.81,1.81,0,0,1,.15-.74,2.58,2.58,0,0,1,.45-.66,7,7,0,0,1,.6-.57.91.91,0,0,1,.6-.2,1.13,1.13,0,0,1,.63.18l.58.42a3.85,3.85,0,0,0,.79.41,3.21,3.21,0,0,0,1.2.19,2.26,2.26,0,0,0,.94-.19,2,2,0,0,0,.75-.55,2.65,2.65,0,0,0,.5-.85,2.86,2.86,0,0,0,.19-1.09V23.54a1.21,1.21,0,0,1,.51-.94,2.49,2.49,0,0,1,1.34-.29,2.31,2.31,0,0,1,1.25.26,1.11,1.11,0,0,1,.46.69,4.37,4.37,0,0,1,.08.9V34a5.84,5.84,0,0,1-.53,2.53,5.75,5.75,0,0,1-1.4,1.88,6.23,6.23,0,0,1-2,1.16A6.51,6.51,0,0,1,161.4,40Zm0-9.1a2.13,2.13,0,0,0,1.2-.34,2.53,2.53,0,0,0,1.15-2.14,2.5,2.5,0,0,0-.32-1.25,2.41,2.41,0,0,0-.84-.87,2.3,2.3,0,0,0-1.22-.33,2.21,2.21,0,0,0-1.2.34,2.37,2.37,0,0,0-.83.89,2.45,2.45,0,0,0-.32,1.25,2.3,2.3,0,0,0,.33,1.22,2.53,2.53,0,0,0,.86.89A2.23,2.23,0,0,0,161.39,30.91Z"/><path class="cls-2" d="M175.46,34.84a5.25,5.25,0,0,1-2.18-.45,5.43,5.43,0,0,1-1.75-1.26,5.85,5.85,0,0,1-1.16-1.93,7.06,7.06,0,0,1-.41-2.44V24.24a4.52,4.52,0,0,1,.09-.93,1.13,1.13,0,0,1,.49-.7,2.46,2.46,0,0,1,1.32-.27,2.31,2.31,0,0,1,1.32.28,1.1,1.1,0,0,1,.47.71,4.62,4.62,0,0,1,.09.94v4.5A2.78,2.78,0,0,0,174,30a1.73,1.73,0,0,0,.77.81,2.46,2.46,0,0,0,1.21.28,2.5,2.5,0,0,0,1.24-.29A2,2,0,0,0,178,30a2.59,2.59,0,0,0,.29-1.25V24.22a4.52,4.52,0,0,1,.09-.93,1,1,0,0,1,.49-.68,2.46,2.46,0,0,1,1.32-.27,2.49,2.49,0,0,1,1.32.28,1.1,1.1,0,0,1,.47.71,4.56,4.56,0,0,1,.09.92V33a4.91,4.91,0,0,1-.08.89,1.06,1.06,0,0,1-.49.67,2.54,2.54,0,0,1-1.3.24,2.92,2.92,0,0,1-1.05-.15,1.23,1.23,0,0,1-.55-.37.94.94,0,0,1-.21-.48,2.42,2.42,0,0,1,0-.45l.32-.27a3.74,3.74,0,0,1-.32.39,7.18,7.18,0,0,1-.66.57,4.28,4.28,0,0,1-1,.54A3.31,3.31,0,0,1,175.46,34.84Z"/><path class="cls-2" d="M189.38,34.87a14.14,14.14,0,0,1-1.82-.1,3.58,3.58,0,0,1-1.35-.4,2.47,2.47,0,0,1-.9-.83,4.19,4.19,0,0,1-.53-1.38,10.88,10.88,0,0,1-.17-2.06V18.55a3.9,3.9,0,0,1,.1-.93,1.17,1.17,0,0,1,.49-.7,3.26,3.26,0,0,1,2.6,0,1.19,1.19,0,0,1,.48.7,4,4,0,0,1,.1.93V29.92a6.19,6.19,0,0,0,0,.67,1,1,0,0,0,.15.41.54.54,0,0,0,.31.2,2.5,2.5,0,0,0,.53.05,2.62,2.62,0,0,1,.61.08.86.86,0,0,1,.54.45,2.55,2.55,0,0,1,.22,1.25,2.81,2.81,0,0,1-.22,1.3.89.89,0,0,1-.54.47A2.73,2.73,0,0,1,189.38,34.87Z"/><path class="cls-2" d="M198.61,35.08a6.25,6.25,0,0,1-2.34-.46,7.06,7.06,0,0,1-2.11-1.32,6.16,6.16,0,0,1-2.07-4.67,6.24,6.24,0,0,1,.51-2.52A6.75,6.75,0,0,1,194,24.05a6.67,6.67,0,0,1,2.07-1.41,6.08,6.08,0,0,1,2.48-.51,6.3,6.3,0,0,1,3.27.87,6.5,6.5,0,0,1,2.33,2.33,6.27,6.27,0,0,1,.88,3.28,6.17,6.17,0,0,1-.57,2.71,6.35,6.35,0,0,1-1.5,2,6.61,6.61,0,0,1-2.08,1.28A6.12,6.12,0,0,1,198.61,35.08Zm-.05-3.77a2.85,2.85,0,0,0,1.23-.3,2.81,2.81,0,0,0,1.05-.9,2.61,2.61,0,0,0,.42-1.53,2.77,2.77,0,0,0-.35-1.4,2.48,2.48,0,0,0-1-.94,2.94,2.94,0,0,0-1.41-.33,2.59,2.59,0,0,0-1.34.34,2.76,2.76,0,0,0-.95,1,2.93,2.93,0,0,0,.05,2.9,2.43,2.43,0,0,0,1,.9A3.06,3.06,0,0,0,198.56,31.31Z"/><path class="cls-2" d="M218.93,34.87a4.92,4.92,0,0,1-2.17-.49A6,6,0,0,1,214.93,33a6.88,6.88,0,0,1-1.26-2,6.3,6.3,0,0,1-.46-2.41,6.18,6.18,0,0,1,.46-2.34,6.5,6.5,0,0,1,1.28-2,6.19,6.19,0,0,1,1.84-1.36,4.75,4.75,0,0,1,2.15-.5,4.32,4.32,0,0,1,3.64,1.83,6.3,6.3,0,0,1,.93,2,9.08,9.08,0,0,1,.35,2.35,9.28,9.28,0,0,1-.3,2.4,6,6,0,0,1-.93,2,4.59,4.59,0,0,1-1.55,1.39A4.35,4.35,0,0,1,218.93,34.87Zm.5-3.7a2.22,2.22,0,0,0,1.22-.34,2.53,2.53,0,0,0,.87-.91,2.43,2.43,0,0,0,.34-1.28,2.56,2.56,0,0,0-.32-1.26,2.61,2.61,0,0,0-.88-.9,2.36,2.36,0,0,0-1.25-.34,2.42,2.42,0,0,0-1.24.33,2.22,2.22,0,0,0-.87.9,2.6,2.6,0,0,0-.31,1.27,2.46,2.46,0,0,0,1.22,2.19A2.41,2.41,0,0,0,219.43,31.17Zm4.35,3.73a2.35,2.35,0,0,1-1.26-.28,1.35,1.35,0,0,1-.54-.85V18.62a6.62,6.62,0,0,1,.06-.91,1.06,1.06,0,0,1,.44-.71,2.18,2.18,0,0,1,1.28-.28,2.47,2.47,0,0,1,1.32.26,1.19,1.19,0,0,1,.48.69,4.49,4.49,0,0,1,.1.93V33a4.53,4.53,0,0,1-.09.91,1.12,1.12,0,0,1-.48.71A2.33,2.33,0,0,1,223.78,34.9Z"/><path class="cls-2" d="M234.38,35.13a7.25,7.25,0,0,1-3-.58A5.84,5.84,0,0,1,229.31,33a6.53,6.53,0,0,1-1.2-2.09,6.92,6.92,0,0,1-.4-2.3,6.54,6.54,0,0,1,.85-3.33A6.19,6.19,0,0,1,230.93,23a7,7,0,0,1,3.46-.84,6.21,6.21,0,0,1,2.51.47,5,5,0,0,1,1.75,1.2,4.89,4.89,0,0,1,1,1.59,4.25,4.25,0,0,1,.34,1.62,2.82,2.82,0,0,1-.66,2.05,2.27,2.27,0,0,1-1.69.67h-5.95a1.77,1.77,0,0,0,.46,1.08,2.85,2.85,0,0,0,1,.7,3.68,3.68,0,0,0,1.32.25,8.1,8.1,0,0,0,1-.06,4.43,4.43,0,0,0,.79-.18c.22-.07.41-.15.59-.22a4.32,4.32,0,0,1,.48-.19,2.63,2.63,0,0,1,.43-.1,1,1,0,0,1,.67.21,2.11,2.11,0,0,1,.58.71,2.43,2.43,0,0,1,.24.53,2.14,2.14,0,0,1,.06.5,1.36,1.36,0,0,1-.61,1.09,4.74,4.74,0,0,1-1.73.73A11,11,0,0,1,234.38,35.13Zm-2.67-7.41h3.95a1.06,1.06,0,0,0,.58-.14.62.62,0,0,0,.2-.54,1.24,1.24,0,0,0-.28-.77,1.72,1.72,0,0,0-.74-.54,2.94,2.94,0,0,0-1.08-.19,3,3,0,0,0-1.35.3,2.39,2.39,0,0,0-.94.8A1.84,1.84,0,0,0,231.71,27.72Z"/><path class="cls-2" d="M244,34.91a2.39,2.39,0,0,1-1.31-.27,1.07,1.07,0,0,1-.48-.71,5.62,5.62,0,0,1-.08-.92V24.28a4.42,4.42,0,0,1,.09-.92,1,1,0,0,1,.49-.69,2.47,2.47,0,0,1,1.32-.26,2.52,2.52,0,0,1,1.27.24,1,1,0,0,1,.48.55,1.68,1.68,0,0,1,.1.53l-.3.15a3.91,3.91,0,0,1,.27-.36,3.47,3.47,0,0,1,.58-.55,3.79,3.79,0,0,1,.92-.49,3.57,3.57,0,0,1,1.23-.19l.62,0a5.2,5.2,0,0,1,.7.15,3.32,3.32,0,0,1,.66.3,1.69,1.69,0,0,1,.49.47,1.2,1.2,0,0,1,.18.67,3.12,3.12,0,0,1-.47,1.74,1.42,1.42,0,0,1-1.2.71,2,2,0,0,1-.6-.06.87.87,0,0,1-.29-.15,1.1,1.1,0,0,0-.26-.15,1.72,1.72,0,0,0-.55-.06,2.34,2.34,0,0,0-.71.1,1.85,1.85,0,0,0-.63.31,1.45,1.45,0,0,0-.61,1.23v5.48a5.31,5.31,0,0,1-.08.91,1.07,1.07,0,0,1-.49.69A2.6,2.6,0,0,1,244,34.91Z"/><path class="cls-2" d="M259.38,35.14a7.25,7.25,0,0,1-3-.57,5.86,5.86,0,0,1-2.06-1.52,6.33,6.33,0,0,1-1.2-2.09,6.83,6.83,0,0,1-.4-2.3,6.38,6.38,0,0,1,.85-3.32,6.14,6.14,0,0,1,2.37-2.29,7,7,0,0,1,3.46-.83,6.22,6.22,0,0,1,2.51.46,5.23,5.23,0,0,1,1.75,1.2,4.89,4.89,0,0,1,1,1.59A4.33,4.33,0,0,1,265,27.1a2.8,2.8,0,0,1-.66,2,2.28,2.28,0,0,1-1.69.68h-6a1.76,1.76,0,0,0,.46,1.07,2.85,2.85,0,0,0,1,.7,3.48,3.48,0,0,0,1.32.25,8.1,8.1,0,0,0,1-.06,4.49,4.49,0,0,0,.79-.17l.59-.23.48-.19a2.63,2.63,0,0,1,.43-.1,1,1,0,0,1,.67.22,2,2,0,0,1,.58.71,2.37,2.37,0,0,1,.24.52,2.2,2.2,0,0,1,.06.5,1.36,1.36,0,0,1-.61,1.09,4.73,4.73,0,0,1-1.73.74A11.56,11.56,0,0,1,259.38,35.14Zm-2.67-7.4h4a1.06,1.06,0,0,0,.58-.13.65.65,0,0,0,.2-.54,1.29,1.29,0,0,0-.28-.78,1.7,1.7,0,0,0-.74-.53,2.74,2.74,0,0,0-1.08-.19,3,3,0,0,0-1.35.3,2.31,2.31,0,0,0-.94.8A1.84,1.84,0,0,0,256.71,27.74Z"/><path class="cls-2" d="M273.28,35a6.47,6.47,0,0,1-2.24-.42,7.17,7.17,0,0,1-2.1-1.21,5.87,5.87,0,0,1-1.53-2,6.87,6.87,0,0,1,0-5.48,6,6,0,0,1,1.53-2A6.56,6.56,0,0,1,271,22.74a6.37,6.37,0,0,1,3.87-.2,5.41,5.41,0,0,1,1.25.51,3.87,3.87,0,0,1,.74.53,7,7,0,0,1,.75.65,1.13,1.13,0,0,1,.3.85,1.59,1.59,0,0,1-.18.56,4.36,4.36,0,0,1-.37.59c-.52.7-1,1-1.5.95a2.58,2.58,0,0,1-.69-.25l-.6-.35a5.86,5.86,0,0,0-.61-.32,2,2,0,0,0-.75-.14,2.54,2.54,0,0,0-1.3.34,2.64,2.64,0,0,0-.92.9,2.55,2.55,0,0,0-.33,1.31A2.44,2.44,0,0,0,271,30a2.64,2.64,0,0,0,.9.92,2.47,2.47,0,0,0,1.26.33,2.12,2.12,0,0,0,.73-.1,2.17,2.17,0,0,0,.55-.23l.35-.21c.2-.14.39-.26.57-.37a1.19,1.19,0,0,1,.55-.16,1.28,1.28,0,0,1,.74.26,4.7,4.7,0,0,1,.81.84,2,2,0,0,1,.49,1,1.22,1.22,0,0,1-.21.86,2.66,2.66,0,0,1-.85.76,3.85,3.85,0,0,1-.72.45,6.24,6.24,0,0,1-1.25.5A5.64,5.64,0,0,1,273.28,35Z"/><path class="cls-2" d="M282,34.93a2.52,2.52,0,0,1-1.32-.26,1.08,1.08,0,0,1-.47-.7,4.69,4.69,0,0,1-.09-.94V18.63a3.82,3.82,0,0,1,.1-.92,1.11,1.11,0,0,1,.49-.69,2.3,2.3,0,0,1,1.31-.26,2.35,2.35,0,0,1,1.31.27,1.12,1.12,0,0,1,.48.7,4.52,4.52,0,0,1,.09.93v5.1a5.14,5.14,0,0,1,1.17-.9,3.13,3.13,0,0,1,1.68-.43,5.11,5.11,0,0,1,2.79.79,5.67,5.67,0,0,1,2,2.17,6.54,6.54,0,0,1,.74,3.15v4.52a4.49,4.49,0,0,1-.1.93,1.14,1.14,0,0,1-.48.68,3.31,3.31,0,0,1-2.62,0,1.06,1.06,0,0,1-.49-.7,4.59,4.59,0,0,1-.09-.93V28.51a2.92,2.92,0,0,0-.24-1.24,2,2,0,0,0-.74-.81,2.24,2.24,0,0,0-1.19-.3,2.48,2.48,0,0,0-1.61.56,2.05,2.05,0,0,0-.79,1.36v5a4.4,4.4,0,0,1-.1.92,1.13,1.13,0,0,1-.49.69A2.5,2.5,0,0,1,282,34.93Z"/><path class="cls-2" d="M304.78,34.92a2.3,2.3,0,0,1-1.37-.33.88.88,0,0,1-.43-.8l.25-.42a2.72,2.72,0,0,1-.57.61,4.35,4.35,0,0,1-1.12.65,4.29,4.29,0,0,1-1.66.29,4.89,4.89,0,0,1-2.19-.51A5.82,5.82,0,0,1,295.86,33a7.07,7.07,0,0,1-1.28-2,6.15,6.15,0,0,1-.47-2.37,5.83,5.83,0,0,1,.48-2.34A6.69,6.69,0,0,1,297.71,23a5,5,0,0,1,2.18-.49,4.06,4.06,0,0,1,1.57.26,4.45,4.45,0,0,1,1.09.61,3.45,3.45,0,0,1,.66.68l-.22-.35a1,1,0,0,1,.44-.91,2.38,2.38,0,0,1,1.38-.32,2.42,2.42,0,0,1,1.29.28,1.11,1.11,0,0,1,.48.73,5.67,5.67,0,0,1,.08.94V33a4.81,4.81,0,0,1-.09.93,1.09,1.09,0,0,1-.48.71A2.45,2.45,0,0,1,304.78,34.92Zm-4.37-3.73a2.21,2.21,0,0,0,1.2-.33,2.6,2.6,0,0,0,.85-.92,2.73,2.73,0,0,0,.33-1.27,2.53,2.53,0,0,0-.33-1.29,2.56,2.56,0,0,0-.87-.89,2.45,2.45,0,0,0-1.23-.32,2.42,2.42,0,0,0-1.26.33,2.48,2.48,0,0,0-.9.92,2.44,2.44,0,0,0-.34,1.29A2.29,2.29,0,0,0,298.2,30a2.41,2.41,0,0,0,.92.9A2.49,2.49,0,0,0,300.41,31.19Z"/><path class="cls-3" d="M139.16,32.2a2.77,2.77,0,0,1,.32,1.06,1,1,0,0,1-.26.77,2.88,2.88,0,0,1-.94.67,2,2,0,0,1-1.55.29,2.14,2.14,0,0,1-1-1.2l-4.89-10.25-4.89,10.25a2.23,2.23,0,0,1-1,1.16,2.18,2.18,0,0,1-1.54-.29,2.74,2.74,0,0,1-1-.64,1,1,0,0,1-.26-.8,2.82,2.82,0,0,1,.36-1.09l6.58-13.67a2,2,0,0,1,.74-.8,1.9,1.9,0,0,1,1-.29,1.78,1.78,0,0,1,.7.13,2,2,0,0,1,.59.39,2.22,2.22,0,0,1,.44.6Zm-12.55-1.44,1.55-3.22h5.33L135,30.77Zm2.48-14.1a.8.8,0,0,1-.73-.25,2.62,2.62,0,0,1-.52-1,2,2,0,0,1-.09-1.3,1.38,1.38,0,0,1,.92-.67l4.4-1.35a.88.88,0,0,1,.73.29,2.53,2.53,0,0,1,.5,1,1.85,1.85,0,0,1,.08,1.27,1.32,1.32,0,0,1-.91.68Z"/><path class="cls-3" d="M143.08,34.82a2.5,2.5,0,0,1-1.31-.26,1,1,0,0,1-.47-.7,4.53,4.53,0,0,1-.09-.91v-8.8a4.13,4.13,0,0,1,.09-.89,1,1,0,0,1,.49-.66,2.6,2.6,0,0,1,1.33-.25,2.49,2.49,0,0,1,1.17.21,1,1,0,0,1,.49.51,1.74,1.74,0,0,1,.11.57,1,1,0,0,0,.05.36l-.15.47a1.43,1.43,0,0,1,.39-.76A3.53,3.53,0,0,1,146,23a4.73,4.73,0,0,1,1.1-.49,4.29,4.29,0,0,1,1.16-.17,5.05,5.05,0,0,1,2.14.44A4.29,4.29,0,0,1,152,24.05,5.65,5.65,0,0,1,153,26a8.18,8.18,0,0,1,.34,2.44V33a5.4,5.4,0,0,1-.08.91,1.06,1.06,0,0,1-.48.69,2.68,2.68,0,0,1-1.34.25,2.46,2.46,0,0,1-1.32-.27,1,1,0,0,1-.49-.7,4.46,4.46,0,0,1-.09-.91V28.43a2.92,2.92,0,0,0-.26-1.28,1.93,1.93,0,0,0-.75-.8,2.91,2.91,0,0,0-2.47,0,2,2,0,0,0-.81.81,2.59,2.59,0,0,0-.29,1.25V33a4.63,4.63,0,0,1-.09.92,1,1,0,0,1-.47.68A2.53,2.53,0,0,1,143.08,34.82Z"/><path class="cls-3" d="M161,34.53A4.82,4.82,0,0,1,158.8,34,5.81,5.81,0,0,1,157,32.71a6.47,6.47,0,0,1-1.22-2,6,6,0,0,1-.45-2.32,6,6,0,0,1,.45-2.31A6.2,6.2,0,0,1,157,24.19a5.82,5.82,0,0,1,1.8-1.32,4.73,4.73,0,0,1,2.11-.49,3.84,3.84,0,0,1,1.9.44,3.33,3.33,0,0,1,1.25,1.25A6.56,6.56,0,0,1,164.8,26a11.82,11.82,0,0,1,.24,2.49,11,11,0,0,1-.42,3.21,4.2,4.2,0,0,1-1.3,2.1A3.58,3.58,0,0,1,161,34.53ZM161.4,40a7,7,0,0,1-1.76-.23,7.61,7.61,0,0,1-1.58-.6,4.52,4.52,0,0,1-1.15-.8,1.21,1.21,0,0,1-.43-.85,1.81,1.81,0,0,1,.15-.74,2.58,2.58,0,0,1,.45-.66,7,7,0,0,1,.6-.57.91.91,0,0,1,.6-.2,1.13,1.13,0,0,1,.63.18l.58.42a3.85,3.85,0,0,0,.79.41,3.21,3.21,0,0,0,1.2.19,2.26,2.26,0,0,0,.94-.19,2,2,0,0,0,.75-.55,2.65,2.65,0,0,0,.5-.85,2.86,2.86,0,0,0,.19-1.09V23.54a1.21,1.21,0,0,1,.51-.94,2.49,2.49,0,0,1,1.34-.29,2.31,2.31,0,0,1,1.25.26,1.11,1.11,0,0,1,.46.69,4.37,4.37,0,0,1,.08.9V34a5.84,5.84,0,0,1-.53,2.53,5.75,5.75,0,0,1-1.4,1.88,6.23,6.23,0,0,1-2,1.16A6.51,6.51,0,0,1,161.4,40Zm0-9.1a2.13,2.13,0,0,0,1.2-.34,2.53,2.53,0,0,0,1.15-2.14,2.5,2.5,0,0,0-.32-1.25,2.41,2.41,0,0,0-.84-.87,2.3,2.3,0,0,0-1.22-.33,2.21,2.21,0,0,0-1.2.34,2.37,2.37,0,0,0-.83.89,2.45,2.45,0,0,0-.32,1.25,2.3,2.3,0,0,0,.33,1.22,2.53,2.53,0,0,0,.86.89A2.23,2.23,0,0,0,161.39,30.91Z"/><path class="cls-3" d="M175.46,34.84a5.25,5.25,0,0,1-2.18-.45,5.43,5.43,0,0,1-1.75-1.26,5.85,5.85,0,0,1-1.16-1.93,7.06,7.06,0,0,1-.41-2.44V24.24a4.52,4.52,0,0,1,.09-.93,1.13,1.13,0,0,1,.49-.7,2.46,2.46,0,0,1,1.32-.27,2.31,2.31,0,0,1,1.32.28,1.1,1.1,0,0,1,.47.71,4.62,4.62,0,0,1,.09.94v4.5A2.78,2.78,0,0,0,174,30a1.73,1.73,0,0,0,.77.81,2.46,2.46,0,0,0,1.21.28,2.5,2.5,0,0,0,1.24-.29A2,2,0,0,0,178,30a2.59,2.59,0,0,0,.29-1.25V24.22a4.52,4.52,0,0,1,.09-.93,1,1,0,0,1,.49-.68,2.46,2.46,0,0,1,1.32-.27,2.49,2.49,0,0,1,1.32.28,1.1,1.1,0,0,1,.47.71,4.56,4.56,0,0,1,.09.92V33a4.91,4.91,0,0,1-.08.89,1.06,1.06,0,0,1-.49.67,2.54,2.54,0,0,1-1.3.24,2.92,2.92,0,0,1-1.05-.15,1.23,1.23,0,0,1-.55-.37.94.94,0,0,1-.21-.48,2.42,2.42,0,0,1,0-.45l.32-.27a3.74,3.74,0,0,1-.32.39,7.18,7.18,0,0,1-.66.57,4.28,4.28,0,0,1-1,.54A3.31,3.31,0,0,1,175.46,34.84Z"/><path class="cls-3" d="M189.38,34.87a14.14,14.14,0,0,1-1.82-.1,3.58,3.58,0,0,1-1.35-.4,2.47,2.47,0,0,1-.9-.83,4.19,4.19,0,0,1-.53-1.38,10.88,10.88,0,0,1-.17-2.06V18.55a3.9,3.9,0,0,1,.1-.93,1.17,1.17,0,0,1,.49-.7,3.26,3.26,0,0,1,2.6,0,1.19,1.19,0,0,1,.48.7,4,4,0,0,1,.1.93V29.92a6.19,6.19,0,0,0,0,.67,1,1,0,0,0,.15.41.54.54,0,0,0,.31.2,2.5,2.5,0,0,0,.53.05,2.62,2.62,0,0,1,.61.08.86.86,0,0,1,.54.45,2.55,2.55,0,0,1,.22,1.25,2.81,2.81,0,0,1-.22,1.3.89.89,0,0,1-.54.47A2.73,2.73,0,0,1,189.38,34.87Z"/><path class="cls-3" d="M198.61,35.08a6.25,6.25,0,0,1-2.34-.46,7.06,7.06,0,0,1-2.11-1.32,6.16,6.16,0,0,1-2.07-4.67,6.24,6.24,0,0,1,.51-2.52A6.75,6.75,0,0,1,194,24.05a6.67,6.67,0,0,1,2.07-1.41,6.08,6.08,0,0,1,2.48-.51,6.3,6.3,0,0,1,3.27.87,6.5,6.5,0,0,1,2.33,2.33,6.27,6.27,0,0,1,.88,3.28,6.17,6.17,0,0,1-.57,2.71,6.35,6.35,0,0,1-1.5,2,6.61,6.61,0,0,1-2.08,1.28A6.12,6.12,0,0,1,198.61,35.08Zm-.05-3.77a2.85,2.85,0,0,0,1.23-.3,2.81,2.81,0,0,0,1.05-.9,2.61,2.61,0,0,0,.42-1.53,2.77,2.77,0,0,0-.35-1.4,2.48,2.48,0,0,0-1-.94,2.94,2.94,0,0,0-1.41-.33,2.59,2.59,0,0,0-1.34.34,2.76,2.76,0,0,0-.95,1,2.93,2.93,0,0,0,.05,2.9,2.43,2.43,0,0,0,1,.9A3.06,3.06,0,0,0,198.56,31.31Z"/><path class="cls-3" d="M218.93,34.87a4.92,4.92,0,0,1-2.17-.49A6,6,0,0,1,214.93,33a6.88,6.88,0,0,1-1.26-2,6.3,6.3,0,0,1-.46-2.41,6.18,6.18,0,0,1,.46-2.34,6.5,6.5,0,0,1,1.28-2,6.19,6.19,0,0,1,1.84-1.36,4.75,4.75,0,0,1,2.15-.5,4.32,4.32,0,0,1,3.64,1.83,6.3,6.3,0,0,1,.93,2,9.08,9.08,0,0,1,.35,2.35,9.28,9.28,0,0,1-.3,2.4,6,6,0,0,1-.93,2,4.59,4.59,0,0,1-1.55,1.39A4.35,4.35,0,0,1,218.93,34.87Zm.5-3.7a2.22,2.22,0,0,0,1.22-.34,2.53,2.53,0,0,0,.87-.91,2.43,2.43,0,0,0,.34-1.28,2.56,2.56,0,0,0-.32-1.26,2.61,2.61,0,0,0-.88-.9,2.36,2.36,0,0,0-1.25-.34,2.42,2.42,0,0,0-1.24.33,2.22,2.22,0,0,0-.87.9,2.6,2.6,0,0,0-.31,1.27,2.46,2.46,0,0,0,1.22,2.19A2.41,2.41,0,0,0,219.43,31.17Zm4.35,3.73a2.35,2.35,0,0,1-1.26-.28,1.35,1.35,0,0,1-.54-.85V18.62a6.62,6.62,0,0,1,.06-.91,1.06,1.06,0,0,1,.44-.71,2.18,2.18,0,0,1,1.28-.28,2.47,2.47,0,0,1,1.32.26,1.19,1.19,0,0,1,.48.69,4.49,4.49,0,0,1,.1.93V33a4.53,4.53,0,0,1-.09.91,1.12,1.12,0,0,1-.48.71A2.33,2.33,0,0,1,223.78,34.9Z"/><path class="cls-3" d="M234.38,35.13a7.25,7.25,0,0,1-3-.58A5.84,5.84,0,0,1,229.31,33a6.53,6.53,0,0,1-1.2-2.09,6.92,6.92,0,0,1-.4-2.3,6.54,6.54,0,0,1,.85-3.33A6.19,6.19,0,0,1,230.93,23a7,7,0,0,1,3.46-.84,6.21,6.21,0,0,1,2.51.47,5,5,0,0,1,1.75,1.2,4.89,4.89,0,0,1,1,1.59,4.25,4.25,0,0,1,.34,1.62,2.82,2.82,0,0,1-.66,2.05,2.27,2.27,0,0,1-1.69.67h-5.95a1.77,1.77,0,0,0,.46,1.08,2.85,2.85,0,0,0,1,.7,3.68,3.68,0,0,0,1.32.25,8.1,8.1,0,0,0,1-.06,4.43,4.43,0,0,0,.79-.18c.22-.07.41-.15.59-.22a4.32,4.32,0,0,1,.48-.19,2.63,2.63,0,0,1,.43-.1,1,1,0,0,1,.67.21,2.11,2.11,0,0,1,.58.71,2.43,2.43,0,0,1,.24.53,2.14,2.14,0,0,1,.06.5,1.36,1.36,0,0,1-.61,1.09,4.74,4.74,0,0,1-1.73.73A11,11,0,0,1,234.38,35.13Zm-2.67-7.41h3.95a1.06,1.06,0,0,0,.58-.14.62.62,0,0,0,.2-.54,1.24,1.24,0,0,0-.28-.77,1.72,1.72,0,0,0-.74-.54,2.94,2.94,0,0,0-1.08-.19,3,3,0,0,0-1.35.3,2.39,2.39,0,0,0-.94.8A1.84,1.84,0,0,0,231.71,27.72Z"/><path class="cls-3" d="M244,34.91a2.39,2.39,0,0,1-1.31-.27,1.07,1.07,0,0,1-.48-.71,5.62,5.62,0,0,1-.08-.92V24.28a4.42,4.42,0,0,1,.09-.92,1,1,0,0,1,.49-.69,2.47,2.47,0,0,1,1.32-.26,2.52,2.52,0,0,1,1.27.24,1,1,0,0,1,.48.55,1.68,1.68,0,0,1,.1.53l-.3.15a3.91,3.91,0,0,1,.27-.36,3.47,3.47,0,0,1,.58-.55,3.79,3.79,0,0,1,.92-.49,3.57,3.57,0,0,1,1.23-.19l.62,0a5.2,5.2,0,0,1,.7.15,3.32,3.32,0,0,1,.66.3,1.69,1.69,0,0,1,.49.47,1.2,1.2,0,0,1,.18.67,3.12,3.12,0,0,1-.47,1.74,1.42,1.42,0,0,1-1.2.71,2,2,0,0,1-.6-.06.87.87,0,0,1-.29-.15,1.1,1.1,0,0,0-.26-.15,1.72,1.72,0,0,0-.55-.06,2.34,2.34,0,0,0-.71.1,1.85,1.85,0,0,0-.63.31,1.45,1.45,0,0,0-.61,1.23v5.48a5.31,5.31,0,0,1-.08.91,1.07,1.07,0,0,1-.49.69A2.6,2.6,0,0,1,244,34.91Z"/><path class="cls-3" d="M259.38,35.14a7.25,7.25,0,0,1-3-.57,5.86,5.86,0,0,1-2.06-1.52,6.33,6.33,0,0,1-1.2-2.09,6.83,6.83,0,0,1-.4-2.3,6.38,6.38,0,0,1,.85-3.32,6.14,6.14,0,0,1,2.37-2.29,7,7,0,0,1,3.46-.83,6.22,6.22,0,0,1,2.51.46,5.23,5.23,0,0,1,1.75,1.2,4.89,4.89,0,0,1,1,1.59A4.33,4.33,0,0,1,265,27.1a2.8,2.8,0,0,1-.66,2,2.28,2.28,0,0,1-1.69.68h-6a1.76,1.76,0,0,0,.46,1.07,2.85,2.85,0,0,0,1,.7,3.48,3.48,0,0,0,1.32.25,8.1,8.1,0,0,0,1-.06,4.49,4.49,0,0,0,.79-.17l.59-.23.48-.19a2.63,2.63,0,0,1,.43-.1,1,1,0,0,1,.67.22,2,2,0,0,1,.58.71,2.37,2.37,0,0,1,.24.52,2.2,2.2,0,0,1,.06.5,1.36,1.36,0,0,1-.61,1.09,4.73,4.73,0,0,1-1.73.74A11.56,11.56,0,0,1,259.38,35.14Zm-2.67-7.4h4a1.06,1.06,0,0,0,.58-.13.65.65,0,0,0,.2-.54,1.29,1.29,0,0,0-.28-.78,1.7,1.7,0,0,0-.74-.53,2.74,2.74,0,0,0-1.08-.19,3,3,0,0,0-1.35.3,2.31,2.31,0,0,0-.94.8A1.84,1.84,0,0,0,256.71,27.74Z"/><path class="cls-3" d="M273.28,35a6.47,6.47,0,0,1-2.24-.42,7.17,7.17,0,0,1-2.1-1.21,5.87,5.87,0,0,1-1.53-2,6.87,6.87,0,0,1,0-5.48,6,6,0,0,1,1.53-2A6.56,6.56,0,0,1,271,22.74a6.37,6.37,0,0,1,3.87-.2,5.41,5.41,0,0,1,1.25.51,3.87,3.87,0,0,1,.74.53,7,7,0,0,1,.75.65,1.13,1.13,0,0,1,.3.85,1.59,1.59,0,0,1-.18.56,4.36,4.36,0,0,1-.37.59c-.52.7-1,1-1.5.95a2.58,2.58,0,0,1-.69-.25l-.6-.35a5.86,5.86,0,0,0-.61-.32,2,2,0,0,0-.75-.14,2.54,2.54,0,0,0-1.3.34,2.64,2.64,0,0,0-.92.9,2.55,2.55,0,0,0-.33,1.31A2.44,2.44,0,0,0,271,30a2.64,2.64,0,0,0,.9.92,2.47,2.47,0,0,0,1.26.33,2.12,2.12,0,0,0,.73-.1,2.17,2.17,0,0,0,.55-.23l.35-.21c.2-.14.39-.26.57-.37a1.19,1.19,0,0,1,.55-.16,1.28,1.28,0,0,1,.74.26,4.7,4.7,0,0,1,.81.84,2,2,0,0,1,.49,1,1.22,1.22,0,0,1-.21.86,2.66,2.66,0,0,1-.85.76,3.85,3.85,0,0,1-.72.45,6.24,6.24,0,0,1-1.25.5A5.64,5.64,0,0,1,273.28,35Z"/><path class="cls-3" d="M282,34.93a2.52,2.52,0,0,1-1.32-.26,1.08,1.08,0,0,1-.47-.7,4.69,4.69,0,0,1-.09-.94V18.63a3.82,3.82,0,0,1,.1-.92,1.11,1.11,0,0,1,.49-.69,2.3,2.3,0,0,1,1.31-.26,2.35,2.35,0,0,1,1.31.27,1.12,1.12,0,0,1,.48.7,4.52,4.52,0,0,1,.09.93v5.1a5.14,5.14,0,0,1,1.17-.9,3.13,3.13,0,0,1,1.68-.43,5.11,5.11,0,0,1,2.79.79,5.67,5.67,0,0,1,2,2.17,6.54,6.54,0,0,1,.74,3.15v4.52a4.49,4.49,0,0,1-.1.93,1.14,1.14,0,0,1-.48.68,3.31,3.31,0,0,1-2.62,0,1.06,1.06,0,0,1-.49-.7,4.59,4.59,0,0,1-.09-.93V28.51a2.92,2.92,0,0,0-.24-1.24,2,2,0,0,0-.74-.81,2.24,2.24,0,0,0-1.19-.3,2.48,2.48,0,0,0-1.61.56,2.05,2.05,0,0,0-.79,1.36v5a4.4,4.4,0,0,1-.1.92,1.13,1.13,0,0,1-.49.69A2.5,2.5,0,0,1,282,34.93Z"/><path class="cls-3" d="M304.78,34.92a2.3,2.3,0,0,1-1.37-.33.88.88,0,0,1-.43-.8l.25-.42a2.72,2.72,0,0,1-.57.61,4.35,4.35,0,0,1-1.12.65,4.29,4.29,0,0,1-1.66.29,4.89,4.89,0,0,1-2.19-.51A5.82,5.82,0,0,1,295.86,33a7.07,7.07,0,0,1-1.28-2,6.15,6.15,0,0,1-.47-2.37,5.83,5.83,0,0,1,.48-2.34A6.69,6.69,0,0,1,297.71,23a5,5,0,0,1,2.18-.49,4.06,4.06,0,0,1,1.57.26,4.45,4.45,0,0,1,1.09.61,3.45,3.45,0,0,1,.66.68l-.22-.35a1,1,0,0,1,.44-.91,2.38,2.38,0,0,1,1.38-.32,2.42,2.42,0,0,1,1.29.28,1.11,1.11,0,0,1,.48.73,5.67,5.67,0,0,1,.08.94V33a4.81,4.81,0,0,1-.09.93,1.09,1.09,0,0,1-.48.71A2.45,2.45,0,0,1,304.78,34.92Zm-4.37-3.73a2.21,2.21,0,0,0,1.2-.33,2.6,2.6,0,0,0,.85-.92,2.73,2.73,0,0,0,.33-1.27,2.53,2.53,0,0,0-.33-1.29,2.56,2.56,0,0,0-.87-.89,2.45,2.45,0,0,0-1.23-.32,2.42,2.42,0,0,0-1.26.33,2.48,2.48,0,0,0-.9.92,2.44,2.44,0,0,0-.34,1.29A2.29,2.29,0,0,0,298.2,30a2.41,2.41,0,0,0,.92.9A2.49,2.49,0,0,0,300.41,31.19Z"/><path class="cls-2" d="M139.16,32.2a2.77,2.77,0,0,1,.32,1.06,1,1,0,0,1-.26.77,2.88,2.88,0,0,1-.94.67,2,2,0,0,1-1.55.29,2.14,2.14,0,0,1-1-1.2l-4.89-10.25-4.89,10.25a2.23,2.23,0,0,1-1,1.16,2.18,2.18,0,0,1-1.54-.29,2.74,2.74,0,0,1-1-.64,1,1,0,0,1-.26-.8,2.82,2.82,0,0,1,.36-1.09l6.58-13.67a2,2,0,0,1,.74-.8,1.9,1.9,0,0,1,1-.29,1.78,1.78,0,0,1,.7.13,2,2,0,0,1,.59.39,2.22,2.22,0,0,1,.44.6Zm-12.55-1.44,1.55-3.22h5.33L135,30.77Zm2.48-14.1a.8.8,0,0,1-.73-.25,2.62,2.62,0,0,1-.52-1,2,2,0,0,1-.09-1.3,1.38,1.38,0,0,1,.92-.67l4.4-1.35a.88.88,0,0,1,.73.29,2.53,2.53,0,0,1,.5,1,1.85,1.85,0,0,1,.08,1.27,1.32,1.32,0,0,1-.91.68Z"/><path class="cls-2" d="M143.08,34.82a2.5,2.5,0,0,1-1.31-.26,1,1,0,0,1-.47-.7,4.53,4.53,0,0,1-.09-.91v-8.8a4.13,4.13,0,0,1,.09-.89,1,1,0,0,1,.49-.66,2.6,2.6,0,0,1,1.33-.25,2.49,2.49,0,0,1,1.17.21,1,1,0,0,1,.49.51,1.74,1.74,0,0,1,.11.57,1,1,0,0,0,.05.36l-.15.47a1.43,1.43,0,0,1,.39-.76A3.53,3.53,0,0,1,146,23a4.73,4.73,0,0,1,1.1-.49,4.29,4.29,0,0,1,1.16-.17,5.05,5.05,0,0,1,2.14.44A4.29,4.29,0,0,1,152,24.05,5.65,5.65,0,0,1,153,26a8.18,8.18,0,0,1,.34,2.44V33a5.4,5.4,0,0,1-.08.91,1.06,1.06,0,0,1-.48.69,2.68,2.68,0,0,1-1.34.25,2.46,2.46,0,0,1-1.32-.27,1,1,0,0,1-.49-.7,4.46,4.46,0,0,1-.09-.91V28.43a2.92,2.92,0,0,0-.26-1.28,1.93,1.93,0,0,0-.75-.8,2.91,2.91,0,0,0-2.47,0,2,2,0,0,0-.81.81,2.59,2.59,0,0,0-.29,1.25V33a4.63,4.63,0,0,1-.09.92,1,1,0,0,1-.47.68A2.53,2.53,0,0,1,143.08,34.82Z"/><path class="cls-2" d="M161,34.53A4.82,4.82,0,0,1,158.8,34,5.81,5.81,0,0,1,157,32.71a6.47,6.47,0,0,1-1.22-2,6,6,0,0,1-.45-2.32,6,6,0,0,1,.45-2.31A6.2,6.2,0,0,1,157,24.19a5.82,5.82,0,0,1,1.8-1.32,4.73,4.73,0,0,1,2.11-.49,3.84,3.84,0,0,1,1.9.44,3.33,3.33,0,0,1,1.25,1.25A6.56,6.56,0,0,1,164.8,26a11.82,11.82,0,0,1,.24,2.49,11,11,0,0,1-.42,3.21,4.2,4.2,0,0,1-1.3,2.1A3.58,3.58,0,0,1,161,34.53ZM161.4,40a7,7,0,0,1-1.76-.23,7.61,7.61,0,0,1-1.58-.6,4.52,4.52,0,0,1-1.15-.8,1.21,1.21,0,0,1-.43-.85,1.81,1.81,0,0,1,.15-.74,2.58,2.58,0,0,1,.45-.66,7,7,0,0,1,.6-.57.91.91,0,0,1,.6-.2,1.13,1.13,0,0,1,.63.18l.58.42a3.85,3.85,0,0,0,.79.41,3.21,3.21,0,0,0,1.2.19,2.26,2.26,0,0,0,.94-.19,2,2,0,0,0,.75-.55,2.65,2.65,0,0,0,.5-.85,2.86,2.86,0,0,0,.19-1.09V23.54a1.21,1.21,0,0,1,.51-.94,2.49,2.49,0,0,1,1.34-.29,2.31,2.31,0,0,1,1.25.26,1.11,1.11,0,0,1,.46.69,4.37,4.37,0,0,1,.08.9V34a5.84,5.84,0,0,1-.53,2.53,5.75,5.75,0,0,1-1.4,1.88,6.23,6.23,0,0,1-2,1.16A6.51,6.51,0,0,1,161.4,40Zm0-9.1a2.13,2.13,0,0,0,1.2-.34,2.53,2.53,0,0,0,1.15-2.14,2.5,2.5,0,0,0-.32-1.25,2.41,2.41,0,0,0-.84-.87,2.3,2.3,0,0,0-1.22-.33,2.21,2.21,0,0,0-1.2.34,2.37,2.37,0,0,0-.83.89,2.45,2.45,0,0,0-.32,1.25,2.3,2.3,0,0,0,.33,1.22,2.53,2.53,0,0,0,.86.89A2.23,2.23,0,0,0,161.39,30.91Z"/><path class="cls-2" d="M175.46,34.84a5.25,5.25,0,0,1-2.18-.45,5.43,5.43,0,0,1-1.75-1.26,5.85,5.85,0,0,1-1.16-1.93,7.06,7.06,0,0,1-.41-2.44V24.24a4.52,4.52,0,0,1,.09-.93,1.13,1.13,0,0,1,.49-.7,2.46,2.46,0,0,1,1.32-.27,2.31,2.31,0,0,1,1.32.28,1.1,1.1,0,0,1,.47.71,4.62,4.62,0,0,1,.09.94v4.5A2.78,2.78,0,0,0,174,30a1.73,1.73,0,0,0,.77.81,2.46,2.46,0,0,0,1.21.28,2.5,2.5,0,0,0,1.24-.29A2,2,0,0,0,178,30a2.59,2.59,0,0,0,.29-1.25V24.22a4.52,4.52,0,0,1,.09-.93,1,1,0,0,1,.49-.68,2.46,2.46,0,0,1,1.32-.27,2.49,2.49,0,0,1,1.32.28,1.1,1.1,0,0,1,.47.71,4.56,4.56,0,0,1,.09.92V33a4.91,4.91,0,0,1-.08.89,1.06,1.06,0,0,1-.49.67,2.54,2.54,0,0,1-1.3.24,2.92,2.92,0,0,1-1.05-.15,1.23,1.23,0,0,1-.55-.37.94.94,0,0,1-.21-.48,2.42,2.42,0,0,1,0-.45l.32-.27a3.74,3.74,0,0,1-.32.39,7.18,7.18,0,0,1-.66.57,4.28,4.28,0,0,1-1,.54A3.31,3.31,0,0,1,175.46,34.84Z"/><path class="cls-2" d="M189.38,34.87a14.14,14.14,0,0,1-1.82-.1,3.58,3.58,0,0,1-1.35-.4,2.47,2.47,0,0,1-.9-.83,4.19,4.19,0,0,1-.53-1.38,10.88,10.88,0,0,1-.17-2.06V18.55a3.9,3.9,0,0,1,.1-.93,1.17,1.17,0,0,1,.49-.7,3.26,3.26,0,0,1,2.6,0,1.19,1.19,0,0,1,.48.7,4,4,0,0,1,.1.93V29.92a6.19,6.19,0,0,0,0,.67,1,1,0,0,0,.15.41.54.54,0,0,0,.31.2,2.5,2.5,0,0,0,.53.05,2.62,2.62,0,0,1,.61.08.86.86,0,0,1,.54.45,2.55,2.55,0,0,1,.22,1.25,2.81,2.81,0,0,1-.22,1.3.89.89,0,0,1-.54.47A2.73,2.73,0,0,1,189.38,34.87Z"/><path class="cls-2" d="M198.61,35.08a6.25,6.25,0,0,1-2.34-.46,7.06,7.06,0,0,1-2.11-1.32,6.16,6.16,0,0,1-2.07-4.67,6.24,6.24,0,0,1,.51-2.52A6.75,6.75,0,0,1,194,24.05a6.67,6.67,0,0,1,2.07-1.41,6.08,6.08,0,0,1,2.48-.51,6.3,6.3,0,0,1,3.27.87,6.5,6.5,0,0,1,2.33,2.33,6.27,6.27,0,0,1,.88,3.28,6.17,6.17,0,0,1-.57,2.71,6.35,6.35,0,0,1-1.5,2,6.61,6.61,0,0,1-2.08,1.28A6.12,6.12,0,0,1,198.61,35.08Zm-.05-3.77a2.85,2.85,0,0,0,1.23-.3,2.81,2.81,0,0,0,1.05-.9,2.61,2.61,0,0,0,.42-1.53,2.77,2.77,0,0,0-.35-1.4,2.48,2.48,0,0,0-1-.94,2.94,2.94,0,0,0-1.41-.33,2.59,2.59,0,0,0-1.34.34,2.76,2.76,0,0,0-.95,1,2.93,2.93,0,0,0,.05,2.9,2.43,2.43,0,0,0,1,.9A3.06,3.06,0,0,0,198.56,31.31Z"/><path class="cls-2" d="M218.93,34.87a4.92,4.92,0,0,1-2.17-.49A6,6,0,0,1,214.93,33a6.88,6.88,0,0,1-1.26-2,6.3,6.3,0,0,1-.46-2.41,6.18,6.18,0,0,1,.46-2.34,6.5,6.5,0,0,1,1.28-2,6.19,6.19,0,0,1,1.84-1.36,4.75,4.75,0,0,1,2.15-.5,4.32,4.32,0,0,1,3.64,1.83,6.3,6.3,0,0,1,.93,2,9.08,9.08,0,0,1,.35,2.35,9.28,9.28,0,0,1-.3,2.4,6,6,0,0,1-.93,2,4.59,4.59,0,0,1-1.55,1.39A4.35,4.35,0,0,1,218.93,34.87Zm.5-3.7a2.22,2.22,0,0,0,1.22-.34,2.53,2.53,0,0,0,.87-.91,2.43,2.43,0,0,0,.34-1.28,2.56,2.56,0,0,0-.32-1.26,2.61,2.61,0,0,0-.88-.9,2.36,2.36,0,0,0-1.25-.34,2.42,2.42,0,0,0-1.24.33,2.22,2.22,0,0,0-.87.9,2.6,2.6,0,0,0-.31,1.27,2.46,2.46,0,0,0,1.22,2.19A2.41,2.41,0,0,0,219.43,31.17Zm4.35,3.73a2.35,2.35,0,0,1-1.26-.28,1.35,1.35,0,0,1-.54-.85V18.62a6.62,6.62,0,0,1,.06-.91,1.06,1.06,0,0,1,.44-.71,2.18,2.18,0,0,1,1.28-.28,2.47,2.47,0,0,1,1.32.26,1.19,1.19,0,0,1,.48.69,4.49,4.49,0,0,1,.1.93V33a4.53,4.53,0,0,1-.09.91,1.12,1.12,0,0,1-.48.71A2.33,2.33,0,0,1,223.78,34.9Z"/><path class="cls-2" d="M234.38,35.13a7.25,7.25,0,0,1-3-.58A5.84,5.84,0,0,1,229.31,33a6.53,6.53,0,0,1-1.2-2.09,6.92,6.92,0,0,1-.4-2.3,6.54,6.54,0,0,1,.85-3.33A6.19,6.19,0,0,1,230.93,23a7,7,0,0,1,3.46-.84,6.21,6.21,0,0,1,2.51.47,5,5,0,0,1,1.75,1.2,4.89,4.89,0,0,1,1,1.59,4.25,4.25,0,0,1,.34,1.62,2.82,2.82,0,0,1-.66,2.05,2.27,2.27,0,0,1-1.69.67h-5.95a1.77,1.77,0,0,0,.46,1.08,2.85,2.85,0,0,0,1,.7,3.68,3.68,0,0,0,1.32.25,8.1,8.1,0,0,0,1-.06,4.43,4.43,0,0,0,.79-.18c.22-.07.41-.15.59-.22a4.32,4.32,0,0,1,.48-.19,2.63,2.63,0,0,1,.43-.1,1,1,0,0,1,.67.21,2.11,2.11,0,0,1,.58.71,2.43,2.43,0,0,1,.24.53,2.14,2.14,0,0,1,.06.5,1.36,1.36,0,0,1-.61,1.09,4.74,4.74,0,0,1-1.73.73A11,11,0,0,1,234.38,35.13Zm-2.67-7.41h3.95a1.06,1.06,0,0,0,.58-.14.62.62,0,0,0,.2-.54,1.24,1.24,0,0,0-.28-.77,1.72,1.72,0,0,0-.74-.54,2.94,2.94,0,0,0-1.08-.19,3,3,0,0,0-1.35.3,2.39,2.39,0,0,0-.94.8A1.84,1.84,0,0,0,231.71,27.72Z"/><path class="cls-2" d="M244,34.91a2.39,2.39,0,0,1-1.31-.27,1.07,1.07,0,0,1-.48-.71,5.62,5.62,0,0,1-.08-.92V24.28a4.42,4.42,0,0,1,.09-.92,1,1,0,0,1,.49-.69,2.47,2.47,0,0,1,1.32-.26,2.52,2.52,0,0,1,1.27.24,1,1,0,0,1,.48.55,1.68,1.68,0,0,1,.1.53l-.3.15a3.91,3.91,0,0,1,.27-.36,3.47,3.47,0,0,1,.58-.55,3.79,3.79,0,0,1,.92-.49,3.57,3.57,0,0,1,1.23-.19l.62,0a5.2,5.2,0,0,1,.7.15,3.32,3.32,0,0,1,.66.3,1.69,1.69,0,0,1,.49.47,1.2,1.2,0,0,1,.18.67,3.12,3.12,0,0,1-.47,1.74,1.42,1.42,0,0,1-1.2.71,2,2,0,0,1-.6-.06.87.87,0,0,1-.29-.15,1.1,1.1,0,0,0-.26-.15,1.72,1.72,0,0,0-.55-.06,2.34,2.34,0,0,0-.71.1,1.85,1.85,0,0,0-.63.31,1.45,1.45,0,0,0-.61,1.23v5.48a5.31,5.31,0,0,1-.08.91,1.07,1.07,0,0,1-.49.69A2.6,2.6,0,0,1,244,34.91Z"/><path class="cls-2" d="M259.38,35.14a7.25,7.25,0,0,1-3-.57,5.86,5.86,0,0,1-2.06-1.52,6.33,6.33,0,0,1-1.2-2.09,6.83,6.83,0,0,1-.4-2.3,6.38,6.38,0,0,1,.85-3.32,6.14,6.14,0,0,1,2.37-2.29,7,7,0,0,1,3.46-.83,6.22,6.22,0,0,1,2.51.46,5.23,5.23,0,0,1,1.75,1.2,4.89,4.89,0,0,1,1,1.59A4.33,4.33,0,0,1,265,27.1a2.8,2.8,0,0,1-.66,2,2.28,2.28,0,0,1-1.69.68h-6a1.76,1.76,0,0,0,.46,1.07,2.85,2.85,0,0,0,1,.7,3.48,3.48,0,0,0,1.32.25,8.1,8.1,0,0,0,1-.06,4.49,4.49,0,0,0,.79-.17l.59-.23.48-.19a2.63,2.63,0,0,1,.43-.1,1,1,0,0,1,.67.22,2,2,0,0,1,.58.71,2.37,2.37,0,0,1,.24.52,2.2,2.2,0,0,1,.06.5,1.36,1.36,0,0,1-.61,1.09,4.73,4.73,0,0,1-1.73.74A11.56,11.56,0,0,1,259.38,35.14Zm-2.67-7.4h4a1.06,1.06,0,0,0,.58-.13.65.65,0,0,0,.2-.54,1.29,1.29,0,0,0-.28-.78,1.7,1.7,0,0,0-.74-.53,2.74,2.74,0,0,0-1.08-.19,3,3,0,0,0-1.35.3,2.31,2.31,0,0,0-.94.8A1.84,1.84,0,0,0,256.71,27.74Z"/><path class="cls-2" d="M273.28,35a6.47,6.47,0,0,1-2.24-.42,7.17,7.17,0,0,1-2.1-1.21,5.87,5.87,0,0,1-1.53-2,6.87,6.87,0,0,1,0-5.48,6,6,0,0,1,1.53-2A6.56,6.56,0,0,1,271,22.74a6.37,6.37,0,0,1,3.87-.2,5.41,5.41,0,0,1,1.25.51,3.87,3.87,0,0,1,.74.53,7,7,0,0,1,.75.65,1.13,1.13,0,0,1,.3.85,1.59,1.59,0,0,1-.18.56,4.36,4.36,0,0,1-.37.59c-.52.7-1,1-1.5.95a2.58,2.58,0,0,1-.69-.25l-.6-.35a5.86,5.86,0,0,0-.61-.32,2,2,0,0,0-.75-.14,2.54,2.54,0,0,0-1.3.34,2.64,2.64,0,0,0-.92.9,2.55,2.55,0,0,0-.33,1.31A2.44,2.44,0,0,0,271,30a2.64,2.64,0,0,0,.9.92,2.47,2.47,0,0,0,1.26.33,2.12,2.12,0,0,0,.73-.1,2.17,2.17,0,0,0,.55-.23l.35-.21c.2-.14.39-.26.57-.37a1.19,1.19,0,0,1,.55-.16,1.28,1.28,0,0,1,.74.26,4.7,4.7,0,0,1,.81.84,2,2,0,0,1,.49,1,1.22,1.22,0,0,1-.21.86,2.66,2.66,0,0,1-.85.76,3.85,3.85,0,0,1-.72.45,6.24,6.24,0,0,1-1.25.5A5.64,5.64,0,0,1,273.28,35Z"/><path class="cls-2" d="M282,34.93a2.52,2.52,0,0,1-1.32-.26,1.08,1.08,0,0,1-.47-.7,4.69,4.69,0,0,1-.09-.94V18.63a3.82,3.82,0,0,1,.1-.92,1.11,1.11,0,0,1,.49-.69,2.3,2.3,0,0,1,1.31-.26,2.35,2.35,0,0,1,1.31.27,1.12,1.12,0,0,1,.48.7,4.52,4.52,0,0,1,.09.93v5.1a5.14,5.14,0,0,1,1.17-.9,3.13,3.13,0,0,1,1.68-.43,5.11,5.11,0,0,1,2.79.79,5.67,5.67,0,0,1,2,2.17,6.54,6.54,0,0,1,.74,3.15v4.52a4.49,4.49,0,0,1-.1.93,1.14,1.14,0,0,1-.48.68,3.31,3.31,0,0,1-2.62,0,1.06,1.06,0,0,1-.49-.7,4.59,4.59,0,0,1-.09-.93V28.51a2.92,2.92,0,0,0-.24-1.24,2,2,0,0,0-.74-.81,2.24,2.24,0,0,0-1.19-.3,2.48,2.48,0,0,0-1.61.56,2.05,2.05,0,0,0-.79,1.36v5a4.4,4.4,0,0,1-.1.92,1.13,1.13,0,0,1-.49.69A2.5,2.5,0,0,1,282,34.93Z"/><path class="cls-2" d="M304.78,34.92a2.3,2.3,0,0,1-1.37-.33.88.88,0,0,1-.43-.8l.25-.42a2.72,2.72,0,0,1-.57.61,4.35,4.35,0,0,1-1.12.65,4.29,4.29,0,0,1-1.66.29,4.89,4.89,0,0,1-2.19-.51A5.82,5.82,0,0,1,295.86,33a7.07,7.07,0,0,1-1.28-2,6.15,6.15,0,0,1-.47-2.37,5.83,5.83,0,0,1,.48-2.34A6.69,6.69,0,0,1,297.71,23a5,5,0,0,1,2.18-.49,4.06,4.06,0,0,1,1.57.26,4.45,4.45,0,0,1,1.09.61,3.45,3.45,0,0,1,.66.68l-.22-.35a1,1,0,0,1,.44-.91,2.38,2.38,0,0,1,1.38-.32,2.42,2.42,0,0,1,1.29.28,1.11,1.11,0,0,1,.48.73,5.67,5.67,0,0,1,.08.94V33a4.81,4.81,0,0,1-.09.93,1.09,1.09,0,0,1-.48.71A2.45,2.45,0,0,1,304.78,34.92Zm-4.37-3.73a2.21,2.21,0,0,0,1.2-.33,2.6,2.6,0,0,0,.85-.92,2.73,2.73,0,0,0,.33-1.27,2.53,2.53,0,0,0-.33-1.29,2.56,2.56,0,0,0-.87-.89,2.45,2.45,0,0,0-1.23-.32,2.42,2.42,0,0,0-1.26.33,2.48,2.48,0,0,0-.9.92,2.44,2.44,0,0,0-.34,1.29A2.29,2.29,0,0,0,298.2,30a2.41,2.41,0,0,0,.92.9A2.49,2.49,0,0,0,300.41,31.19Z"/><path class="cls-4" d="M55.46,35.55c0,2.27-.4,3.89-1.18,4.85a4.36,4.36,0,0,1-3.59,1.45,5.73,5.73,0,0,1-2.57-.5,3.29,3.29,0,0,1-1.48-1.85,11.09,11.09,0,0,1-.55-3.61L46,20.22a6.3,6.3,0,0,1-3.21-.73A2.58,2.58,0,0,1,41.55,17a2.76,2.76,0,0,1,1.16-2.29,5.16,5.16,0,0,1,3.24-.9c.54,0,1.31,0,2.3,0l2.1,0c2,0,3.36.34,4,1a5,5,0,0,1,1,3.59Z"/><path class="cls-4" d="M59.21,39a2.78,2.78,0,0,1,1.16-2.31,5.38,5.38,0,0,1,3.28-.88c3,0,4.44,1.07,4.44,3.19a3.11,3.11,0,0,1-.57,2,2.73,2.73,0,0,1-1.51,1,9.17,9.17,0,0,1-2.36.26,6.13,6.13,0,0,1-3.18-.76A2.62,2.62,0,0,1,59.21,39Z"/><path class="cls-4" d="M80.31,35.55q0,3.41-1.18,4.85a4.36,4.36,0,0,1-3.59,1.45,5.66,5.66,0,0,1-2.56-.5,3.26,3.26,0,0,1-1.49-1.85,11.09,11.09,0,0,1-.55-3.61l-.06-15.67a6.32,6.32,0,0,1-3.22-.73A2.6,2.6,0,0,1,66.4,17a2.76,2.76,0,0,1,1.16-2.29,5.16,5.16,0,0,1,3.24-.9c.54,0,1.31,0,2.3,0l2.1,0c2,0,3.36.34,4,1a5,5,0,0,1,1,3.59Z"/><path class="cls-5" d="M55.46,35.55c0,2.27-.4,3.89-1.18,4.85a4.36,4.36,0,0,1-3.59,1.45,5.73,5.73,0,0,1-2.57-.5,3.29,3.29,0,0,1-1.48-1.85,11.09,11.09,0,0,1-.55-3.61L46,20.22a6.3,6.3,0,0,1-3.21-.73A2.58,2.58,0,0,1,41.55,17a2.76,2.76,0,0,1,1.16-2.29,5.16,5.16,0,0,1,3.24-.9c.54,0,1.31,0,2.3,0l2.1,0c2,0,3.36.34,4,1a5,5,0,0,1,1,3.59Z"/><path class="cls-5" d="M59.21,39a2.78,2.78,0,0,1,1.16-2.31,5.38,5.38,0,0,1,3.28-.88c3,0,4.44,1.07,4.44,3.19a3.11,3.11,0,0,1-.57,2,2.73,2.73,0,0,1-1.51,1,9.17,9.17,0,0,1-2.36.26,6.13,6.13,0,0,1-3.18-.76A2.62,2.62,0,0,1,59.21,39Z"/><path class="cls-5" d="M80.31,35.55q0,3.41-1.18,4.85a4.36,4.36,0,0,1-3.59,1.45,5.66,5.66,0,0,1-2.56-.5,3.26,3.26,0,0,1-1.49-1.85,11.09,11.09,0,0,1-.55-3.61l-.06-15.67a6.32,6.32,0,0,1-3.22-.73A2.6,2.6,0,0,1,66.4,17a2.76,2.76,0,0,1,1.16-2.29,5.16,5.16,0,0,1,3.24-.9c.54,0,1.31,0,2.3,0l2.1,0c2,0,3.36.34,4,1a5,5,0,0,1,1,3.59Z"/></g></g></svg>