<svg xmlns="http://www.w3.org/2000/svg" viewBox="0 0 399.98 89.18"><defs><style>.cls-1{fill:#a41010;}.cls-2{fill:#fff;}.cls-3,.cls-4{fill:none;stroke-width:5px;}.cls-3{stroke:#c8a927;stroke-linejoin:round;}.cls-4{stroke:#fff;}.cls-5{fill:#c8a927;}</style></defs><title>11tt</title><g id="Layer_2" data-name="Layer 2"><g id="pestaña_identificativa" data-name="pestaña identificativa"><rect class="cls-1" width="399.98" height="89.18" rx="34.2"/><path class="cls-2" d="M126.35,34.84a2.44,2.44,0,0,1-1.31-.27,1,1,0,0,1-.5-.71,4.7,4.7,0,0,1-.09-.92V19.26a4.46,4.46,0,0,1,.09-.91,1.08,1.08,0,0,1,.48-.71,3.32,3.32,0,0,1,2.67,0,1.14,1.14,0,0,1,.47.71,4.62,4.62,0,0,1,.09.94V31.54h6.85a4.09,4.09,0,0,1,.8.08,1,1,0,0,1,.61.42,2.12,2.12,0,0,1,.24,1.15,2.09,2.09,0,0,1-.25,1.14,1,1,0,0,1-.61.44,4,4,0,0,1-.79.07Z"/><path class="cls-2" d="M139.53,21.44a.82.82,0,0,1-.74-.25,2.63,2.63,0,0,1-.51-1,2.11,2.11,0,0,1-.1-1.3,1.43,1.43,0,0,1,.93-.67l4.4-1.35a.9.9,0,0,1,.72.29,2.4,2.4,0,0,1,.5,1,1.93,1.93,0,0,1,.09,1.27,1.35,1.35,0,0,1-.91.68Zm1,13.41a2.5,2.5,0,0,1-1.32-.27,1.1,1.1,0,0,1-.47-.7,4.46,4.46,0,0,1-.09-.91V24.24a4.53,4.53,0,0,1,.09-.91,1.1,1.1,0,0,1,.48-.7,2.59,2.59,0,0,1,1.33-.26,2.24,2.24,0,0,1,1.29.28,1.14,1.14,0,0,1,.47.71,4.62,4.62,0,0,1,.09.94V33a5.4,5.4,0,0,1-.08.91,1.06,1.06,0,0,1-.48.69A2.62,2.62,0,0,1,140.5,34.85Z"/><path class="cls-2" d="M146.72,34.82a2.5,2.5,0,0,1-1.31-.26,1,1,0,0,1-.47-.7,4.53,4.53,0,0,1-.09-.91v-8.8a4.13,4.13,0,0,1,.09-.89,1,1,0,0,1,.49-.66,2.58,2.58,0,0,1,1.32-.25,2.51,2.51,0,0,1,1.18.21,1,1,0,0,1,.49.51,1.74,1.74,0,0,1,.11.57,1,1,0,0,0,.05.36l-.15.48a1.45,1.45,0,0,1,.39-.77,3.35,3.35,0,0,1,.85-.7,4.7,4.7,0,0,1,1.1-.48,4,4,0,0,1,1.16-.18,5.05,5.05,0,0,1,2.14.44,4.29,4.29,0,0,1,1.58,1.26,5.65,5.65,0,0,1,1,1.94,8.56,8.56,0,0,1,.34,2.44V33a5.31,5.31,0,0,1-.08.91,1.06,1.06,0,0,1-.48.69,2.57,2.57,0,0,1-1.34.25,2.54,2.54,0,0,1-1.32-.26,1.07,1.07,0,0,1-.49-.71,4.46,4.46,0,0,1-.09-.91V28.43a2.78,2.78,0,0,0-.27-1.28,1.81,1.81,0,0,0-.75-.8,2.43,2.43,0,0,0-1.21-.27,2.59,2.59,0,0,0-1.25.28,2,2,0,0,0-.81.81,2.59,2.59,0,0,0-.29,1.25V33a4.53,4.53,0,0,1-.09.91,1,1,0,0,1-.48.68A2.47,2.47,0,0,1,146.72,34.82Z"/><path class="cls-2" d="M165.62,35.09a7.44,7.44,0,0,1-3-.58A5.86,5.86,0,0,1,160.55,33a6.38,6.38,0,0,1-1.2-2.08,6.92,6.92,0,0,1-.4-2.3,6.54,6.54,0,0,1,.85-3.33A6.12,6.12,0,0,1,162.17,23a7,7,0,0,1,3.46-.84,6.39,6.39,0,0,1,2.51.46,5.23,5.23,0,0,1,1.75,1.2,5.11,5.11,0,0,1,1,1.59,4.33,4.33,0,0,1,.34,1.63,2.82,2.82,0,0,1-.66,2.05,2.27,2.27,0,0,1-1.69.67h-6a1.74,1.74,0,0,0,.46,1.07,2.73,2.73,0,0,0,1,.7,3.48,3.48,0,0,0,1.32.25,6.62,6.62,0,0,0,1-.06,4.49,4.49,0,0,0,.79-.17l.59-.23.48-.18a1.89,1.89,0,0,1,.43-.1,1,1,0,0,1,.67.21,2.11,2.11,0,0,1,.58.71,2,2,0,0,1,.24.53,2.07,2.07,0,0,1,.06.5,1.35,1.35,0,0,1-.61,1.08,4.73,4.73,0,0,1-1.73.74A11.51,11.51,0,0,1,165.62,35.09ZM163,27.68h4a1.06,1.06,0,0,0,.58-.14.62.62,0,0,0,.2-.54,1.24,1.24,0,0,0-.28-.77,1.64,1.64,0,0,0-.74-.54,2.74,2.74,0,0,0-1.08-.19,3,3,0,0,0-1.35.3,2.31,2.31,0,0,0-.94.8A1.91,1.91,0,0,0,163,27.68Z"/><path class="cls-2" d="M183.55,34.85a2.34,2.34,0,0,1-1.38-.33.89.89,0,0,1-.42-.8l.25-.43a2.59,2.59,0,0,1-.58.62,4.39,4.39,0,0,1-1.11.65,4.34,4.34,0,0,1-1.66.28,4.88,4.88,0,0,1-2.19-.5A5.89,5.89,0,0,1,174.62,33a7,7,0,0,1-1.27-2,6,6,0,0,1-.47-2.38,5.81,5.81,0,0,1,.47-2.33,6.9,6.9,0,0,1,1.29-2,6.37,6.37,0,0,1,1.84-1.36,4.93,4.93,0,0,1,2.17-.5,4.11,4.11,0,0,1,1.58.27,4.5,4.5,0,0,1,1.09.61,3.43,3.43,0,0,1,.66.67l-.23-.34a1.06,1.06,0,0,1,.44-.92,2.42,2.42,0,0,1,1.39-.31,2.24,2.24,0,0,1,1.29.28,1.1,1.1,0,0,1,.47.72,4.86,4.86,0,0,1,.09.95V33a4.7,4.7,0,0,1-.09.92,1,1,0,0,1-.47.71A2.39,2.39,0,0,1,183.55,34.85Zm-4.38-3.73a2.13,2.13,0,0,0,1.2-.34,2.54,2.54,0,0,0,1.18-2.19,2.56,2.56,0,0,0-.32-1.28,2.42,2.42,0,0,0-.88-.89,2.3,2.3,0,0,0-1.22-.33,2.39,2.39,0,0,0-1.27.34,2.5,2.5,0,0,0-1.23,2.21,2.42,2.42,0,0,0,.33,1.24,2.6,2.6,0,0,0,2.21,1.24Z"/><path class="cls-2" d="M196.32,34.88a2.37,2.37,0,0,1-1.31-.27,1.07,1.07,0,0,1-.48-.71,5.62,5.62,0,0,1-.08-.92V24.25a4.42,4.42,0,0,1,.09-.92,1.06,1.06,0,0,1,.49-.69,2.57,2.57,0,0,1,1.32-.26,2.52,2.52,0,0,1,1.27.24,1,1,0,0,1,.48.55,1.68,1.68,0,0,1,.1.53l-.3.15a3.91,3.91,0,0,1,.27-.36,3.32,3.32,0,0,1,1.5-1,3.34,3.34,0,0,1,1.23-.2l.62,0a4.89,4.89,0,0,1,.7.15,3.32,3.32,0,0,1,.66.3,1.69,1.69,0,0,1,.49.47,1.2,1.2,0,0,1,.18.67,3.09,3.09,0,0,1-.47,1.74,1.42,1.42,0,0,1-1.2.71,2,2,0,0,1-.6-.06,1,1,0,0,1-.29-.15,1.1,1.1,0,0,0-.26-.15,1.72,1.72,0,0,0-.55-.06,2.46,2.46,0,0,0-.72.1,1.9,1.9,0,0,0-.62.31,1.45,1.45,0,0,0-.61,1.23V33a4.46,4.46,0,0,1-.09.91,1,1,0,0,1-.48.69A2.6,2.6,0,0,1,196.32,34.88Z"/><path class="cls-2" d="M211.72,35.11a7.25,7.25,0,0,1-3-.57A5.86,5.86,0,0,1,206.65,33a6.16,6.16,0,0,1-1.2-2.09,6.83,6.83,0,0,1-.4-2.3,6.41,6.41,0,0,1,.85-3.32A6.14,6.14,0,0,1,208.27,23a7.08,7.08,0,0,1,3.46-.83,6.25,6.25,0,0,1,2.51.46,5.23,5.23,0,0,1,1.75,1.2,4.89,4.89,0,0,1,1,1.59,4.33,4.33,0,0,1,.34,1.63,2.84,2.84,0,0,1-.66,2.05,2.28,2.28,0,0,1-1.69.67h-5.95a1.76,1.76,0,0,0,.46,1.07,2.73,2.73,0,0,0,1,.7,3.44,3.44,0,0,0,1.32.25,8.1,8.1,0,0,0,1-.06,4.49,4.49,0,0,0,.79-.17l.59-.23.48-.19a1.84,1.84,0,0,1,.43-.09,1,1,0,0,1,.67.21,2,2,0,0,1,.58.71,2.24,2.24,0,0,1,.24.53,2.07,2.07,0,0,1,.06.5,1.35,1.35,0,0,1-.62,1.08,4.6,4.6,0,0,1-1.72.74A11.56,11.56,0,0,1,211.72,35.11Zm-2.67-7.4H213a1.06,1.06,0,0,0,.58-.13.63.63,0,0,0,.2-.54,1.29,1.29,0,0,0-.28-.78,1.7,1.7,0,0,0-.74-.53,2.74,2.74,0,0,0-1.08-.19,3,3,0,0,0-1.35.3,2.31,2.31,0,0,0-.94.8A1.84,1.84,0,0,0,209.05,27.71Z"/><path class="cls-2" d="M225.62,35a6.47,6.47,0,0,1-2.24-.42,7,7,0,0,1-2.1-1.21,5.87,5.87,0,0,1-1.53-2,6.76,6.76,0,0,1,0-5.48,5.85,5.85,0,0,1,1.53-2,6.75,6.75,0,0,1,2.09-1.21,6.29,6.29,0,0,1,2.21-.41,6.08,6.08,0,0,1,1.66.21,5.41,5.41,0,0,1,1.25.51,3.87,3.87,0,0,1,.74.53,8.35,8.35,0,0,1,.75.65,1.13,1.13,0,0,1,.3.85,1.59,1.59,0,0,1-.18.56,4.36,4.36,0,0,1-.37.59c-.52.7-1,1-1.5.95a2.58,2.58,0,0,1-.69-.25l-.6-.35a5.15,5.15,0,0,0-.62-.32,1.88,1.88,0,0,0-.74-.13,2.54,2.54,0,0,0-1.3.33,2.64,2.64,0,0,0-.92.9,2.67,2.67,0,0,0,0,2.61,2.64,2.64,0,0,0,.9.92,2.48,2.48,0,0,0,1.26.34,2.74,2.74,0,0,0,.73-.1,2.83,2.83,0,0,0,.55-.24l.35-.21c.2-.14.39-.26.57-.37a1.19,1.19,0,0,1,.55-.16,1.23,1.23,0,0,1,.74.27,4.28,4.28,0,0,1,.81.83,2,2,0,0,1,.49,1,1.22,1.22,0,0,1-.21.86,2.66,2.66,0,0,1-.85.76,3.85,3.85,0,0,1-.72.45,6.49,6.49,0,0,1-1.25.5A5.64,5.64,0,0,1,225.62,35Z"/><path class="cls-2" d="M233.35,22.6h2.75l3.45-.1a4.29,4.29,0,0,1,.9.09,1.08,1.08,0,0,1,.7.49,2.37,2.37,0,0,1,.28,1.33,2.3,2.3,0,0,1-.27,1.25,1.19,1.19,0,0,1-.68.51,4,4,0,0,1-.93.11l-3.27-.08-3,0a1.27,1.27,0,0,1-1-.47,2.52,2.52,0,0,1-.29-1.39A2.11,2.11,0,0,1,232.3,23,1.29,1.29,0,0,1,233.35,22.6ZM239,34.9a7.87,7.87,0,0,1-2.2-.27,3.68,3.68,0,0,1-1.52-.85,3.53,3.53,0,0,1-.87-1.47,6.89,6.89,0,0,1-.29-2.11V20.08a4.31,4.31,0,0,1,.09-.93,1,1,0,0,1,.49-.66,2.37,2.37,0,0,1,1.3-.26,2.4,2.4,0,0,1,1.3.27,1.14,1.14,0,0,1,.48.72,4.46,4.46,0,0,1,.09.91v9.92a2.55,2.55,0,0,0,.07.67.79.79,0,0,0,.18.38.65.65,0,0,0,.35.18,2.87,2.87,0,0,0,.55,0,4.16,4.16,0,0,1,1,.1,1.1,1.1,0,0,1,.66.45,2.17,2.17,0,0,1,.24,1.18,2.41,2.41,0,0,1-.28,1.3,1.07,1.07,0,0,1-.71.47A5.41,5.41,0,0,1,239,34.9Z"/><path class="cls-2" d="M253.55,34.89a2.34,2.34,0,0,1-1.38-.33.88.88,0,0,1-.42-.8l.25-.42a3.07,3.07,0,0,1-.58.61,4.11,4.11,0,0,1-1.11.65,4.33,4.33,0,0,1-1.66.29,5,5,0,0,1-2.19-.51A5.74,5.74,0,0,1,244.62,33a7,7,0,0,1-1.27-2,6,6,0,0,1-.48-2.37,5.83,5.83,0,0,1,.48-2.34,6.9,6.9,0,0,1,1.29-2,6.42,6.42,0,0,1,1.84-1.36,4.79,4.79,0,0,1,2.17-.49,4.15,4.15,0,0,1,1.58.26,4.5,4.5,0,0,1,1.09.61A3.2,3.2,0,0,1,252,24l-.23-.35a1.07,1.07,0,0,1,.44-.92,2.48,2.48,0,0,1,1.39-.31,2.33,2.33,0,0,1,1.29.28,1.14,1.14,0,0,1,.47.72,4.86,4.86,0,0,1,.09.95V33a4.63,4.63,0,0,1-.09.92,1.07,1.07,0,0,1-.47.72A2.5,2.5,0,0,1,253.55,34.89Zm-4.38-3.73a2.13,2.13,0,0,0,1.2-.34,2.6,2.6,0,0,0,1.18-2.18,2.57,2.57,0,0,0-.32-1.29,2.42,2.42,0,0,0-.88-.89,2.32,2.32,0,0,0-1.22-.32,2.48,2.48,0,0,0-1.27.33,2.7,2.7,0,0,0-.9.91,2.6,2.6,0,0,0-.34,1.3,2.41,2.41,0,0,0,.34,1.24,2.44,2.44,0,0,0,.93.9A2.48,2.48,0,0,0,249.17,31.16Z"/><path class="cls-3" d="M126.35,34.84a2.44,2.44,0,0,1-1.31-.27,1,1,0,0,1-.5-.71,4.7,4.7,0,0,1-.09-.92V19.26a4.46,4.46,0,0,1,.09-.91,1.08,1.08,0,0,1,.48-.71,3.32,3.32,0,0,1,2.67,0,1.14,1.14,0,0,1,.47.71,4.62,4.62,0,0,1,.09.94V31.54h6.85a4.09,4.09,0,0,1,.8.08,1,1,0,0,1,.61.42,2.12,2.12,0,0,1,.24,1.15,2.09,2.09,0,0,1-.25,1.14,1,1,0,0,1-.61.44,4,4,0,0,1-.79.07Z"/><path class="cls-3" d="M139.53,21.44a.82.82,0,0,1-.74-.25,2.63,2.63,0,0,1-.51-1,2.11,2.11,0,0,1-.1-1.3,1.43,1.43,0,0,1,.93-.67l4.4-1.35a.9.9,0,0,1,.72.29,2.4,2.4,0,0,1,.5,1,1.93,1.93,0,0,1,.09,1.27,1.35,1.35,0,0,1-.91.68Zm1,13.41a2.5,2.5,0,0,1-1.32-.27,1.1,1.1,0,0,1-.47-.7,4.46,4.46,0,0,1-.09-.91V24.24a4.53,4.53,0,0,1,.09-.91,1.1,1.1,0,0,1,.48-.7,2.59,2.59,0,0,1,1.33-.26,2.24,2.24,0,0,1,1.29.28,1.14,1.14,0,0,1,.47.71,4.62,4.62,0,0,1,.09.94V33a5.4,5.4,0,0,1-.08.91,1.06,1.06,0,0,1-.48.69A2.62,2.62,0,0,1,140.5,34.85Z"/><path class="cls-3" d="M146.72,34.82a2.5,2.5,0,0,1-1.31-.26,1,1,0,0,1-.47-.7,4.53,4.53,0,0,1-.09-.91v-8.8a4.13,4.13,0,0,1,.09-.89,1,1,0,0,1,.49-.66,2.58,2.58,0,0,1,1.32-.25,2.51,2.51,0,0,1,1.18.21,1,1,0,0,1,.49.51,1.74,1.74,0,0,1,.11.57,1,1,0,0,0,.05.36l-.15.48a1.45,1.45,0,0,1,.39-.77,3.35,3.35,0,0,1,.85-.7,4.7,4.7,0,0,1,1.1-.48,4,4,0,0,1,1.16-.18,5.05,5.05,0,0,1,2.14.44,4.29,4.29,0,0,1,1.58,1.26,5.65,5.65,0,0,1,1,1.94,8.56,8.56,0,0,1,.34,2.44V33a5.31,5.31,0,0,1-.08.91,1.06,1.06,0,0,1-.48.69,2.57,2.57,0,0,1-1.34.25,2.54,2.54,0,0,1-1.32-.26,1.07,1.07,0,0,1-.49-.71,4.46,4.46,0,0,1-.09-.91V28.43a2.78,2.78,0,0,0-.27-1.28,1.81,1.81,0,0,0-.75-.8,2.43,2.43,0,0,0-1.21-.27,2.59,2.59,0,0,0-1.25.28,2,2,0,0,0-.81.81,2.59,2.59,0,0,0-.29,1.25V33a4.53,4.53,0,0,1-.09.91,1,1,0,0,1-.48.68A2.47,2.47,0,0,1,146.72,34.82Z"/><path class="cls-3" d="M165.62,35.09a7.44,7.44,0,0,1-3-.58A5.86,5.86,0,0,1,160.55,33a6.38,6.38,0,0,1-1.2-2.08,6.92,6.92,0,0,1-.4-2.3,6.54,6.54,0,0,1,.85-3.33A6.12,6.12,0,0,1,162.17,23a7,7,0,0,1,3.46-.84,6.39,6.39,0,0,1,2.51.46,5.23,5.23,0,0,1,1.75,1.2,5.11,5.11,0,0,1,1,1.59,4.33,4.33,0,0,1,.34,1.63,2.82,2.82,0,0,1-.66,2.05,2.27,2.27,0,0,1-1.69.67h-6a1.74,1.74,0,0,0,.46,1.07,2.73,2.73,0,0,0,1,.7,3.48,3.48,0,0,0,1.32.25,6.62,6.62,0,0,0,1-.06,4.49,4.49,0,0,0,.79-.17l.59-.23.48-.18a1.89,1.89,0,0,1,.43-.1,1,1,0,0,1,.67.21,2.11,2.11,0,0,1,.58.71,2,2,0,0,1,.24.53,2.07,2.07,0,0,1,.06.5,1.35,1.35,0,0,1-.61,1.08,4.73,4.73,0,0,1-1.73.74A11.51,11.51,0,0,1,165.62,35.09ZM163,27.68h4a1.06,1.06,0,0,0,.58-.14.62.62,0,0,0,.2-.54,1.24,1.24,0,0,0-.28-.77,1.64,1.64,0,0,0-.74-.54,2.74,2.74,0,0,0-1.08-.19,3,3,0,0,0-1.35.3,2.31,2.31,0,0,0-.94.8A1.91,1.91,0,0,0,163,27.68Z"/><path class="cls-3" d="M183.55,34.85a2.34,2.34,0,0,1-1.38-.33.89.89,0,0,1-.42-.8l.25-.43a2.59,2.59,0,0,1-.58.62,4.39,4.39,0,0,1-1.11.65,4.34,4.34,0,0,1-1.66.28,4.88,4.88,0,0,1-2.19-.5A5.89,5.89,0,0,1,174.62,33a7,7,0,0,1-1.27-2,6,6,0,0,1-.47-2.38,5.81,5.81,0,0,1,.47-2.33,6.9,6.9,0,0,1,1.29-2,6.37,6.37,0,0,1,1.84-1.36,4.93,4.93,0,0,1,2.17-.5,4.11,4.11,0,0,1,1.58.27,4.5,4.5,0,0,1,1.09.61,3.43,3.43,0,0,1,.66.67l-.23-.34a1.06,1.06,0,0,1,.44-.92,2.42,2.42,0,0,1,1.39-.31,2.24,2.24,0,0,1,1.29.28,1.1,1.1,0,0,1,.47.72,4.86,4.86,0,0,1,.09.95V33a4.7,4.7,0,0,1-.09.92,1,1,0,0,1-.47.71A2.39,2.39,0,0,1,183.55,34.85Zm-4.38-3.73a2.13,2.13,0,0,0,1.2-.34,2.54,2.54,0,0,0,1.18-2.19,2.56,2.56,0,0,0-.32-1.28,2.42,2.42,0,0,0-.88-.89,2.3,2.3,0,0,0-1.22-.33,2.39,2.39,0,0,0-1.27.34,2.5,2.5,0,0,0-1.23,2.21,2.42,2.42,0,0,0,.33,1.24,2.6,2.6,0,0,0,2.21,1.24Z"/><path class="cls-3" d="M196.32,34.88a2.37,2.37,0,0,1-1.31-.27,1.07,1.07,0,0,1-.48-.71,5.62,5.62,0,0,1-.08-.92V24.25a4.42,4.42,0,0,1,.09-.92,1.06,1.06,0,0,1,.49-.69,2.57,2.57,0,0,1,1.32-.26,2.52,2.52,0,0,1,1.27.24,1,1,0,0,1,.48.55,1.68,1.68,0,0,1,.1.53l-.3.15a3.91,3.91,0,0,1,.27-.36,3.32,3.32,0,0,1,1.5-1,3.34,3.34,0,0,1,1.23-.2l.62,0a4.89,4.89,0,0,1,.7.15,3.32,3.32,0,0,1,.66.3,1.69,1.69,0,0,1,.49.47,1.2,1.2,0,0,1,.18.67,3.09,3.09,0,0,1-.47,1.74,1.42,1.42,0,0,1-1.2.71,2,2,0,0,1-.6-.06,1,1,0,0,1-.29-.15,1.1,1.1,0,0,0-.26-.15,1.72,1.72,0,0,0-.55-.06,2.46,2.46,0,0,0-.72.1,1.9,1.9,0,0,0-.62.31,1.45,1.45,0,0,0-.61,1.23V33a4.46,4.46,0,0,1-.09.91,1,1,0,0,1-.48.69A2.6,2.6,0,0,1,196.32,34.88Z"/><path class="cls-3" d="M211.72,35.11a7.25,7.25,0,0,1-3-.57A5.86,5.86,0,0,1,206.65,33a6.16,6.16,0,0,1-1.2-2.09,6.83,6.83,0,0,1-.4-2.3,6.41,6.41,0,0,1,.85-3.32A6.14,6.14,0,0,1,208.27,23a7.08,7.08,0,0,1,3.46-.83,6.25,6.25,0,0,1,2.51.46,5.23,5.23,0,0,1,1.75,1.2,4.89,4.89,0,0,1,1,1.59,4.33,4.33,0,0,1,.34,1.63,2.84,2.84,0,0,1-.66,2.05,2.28,2.28,0,0,1-1.69.67h-5.95a1.76,1.76,0,0,0,.46,1.07,2.73,2.73,0,0,0,1,.7,3.44,3.44,0,0,0,1.32.25,8.1,8.1,0,0,0,1-.06,4.49,4.49,0,0,0,.79-.17l.59-.23.48-.19a1.84,1.84,0,0,1,.43-.09,1,1,0,0,1,.67.21,2,2,0,0,1,.58.71,2.24,2.24,0,0,1,.24.53,2.07,2.07,0,0,1,.06.5,1.35,1.35,0,0,1-.62,1.08,4.6,4.6,0,0,1-1.72.74A11.56,11.56,0,0,1,211.72,35.11Zm-2.67-7.4H213a1.06,1.06,0,0,0,.58-.13.63.63,0,0,0,.2-.54,1.29,1.29,0,0,0-.28-.78,1.7,1.7,0,0,0-.74-.53,2.74,2.74,0,0,0-1.08-.19,3,3,0,0,0-1.35.3,2.31,2.31,0,0,0-.94.8A1.84,1.84,0,0,0,209.05,27.71Z"/><path class="cls-3" d="M225.62,35a6.47,6.47,0,0,1-2.24-.42,7,7,0,0,1-2.1-1.21,5.87,5.87,0,0,1-1.53-2,6.76,6.76,0,0,1,0-5.48,5.85,5.85,0,0,1,1.53-2,6.75,6.75,0,0,1,2.09-1.21,6.29,6.29,0,0,1,2.21-.41,6.08,6.08,0,0,1,1.66.21,5.41,5.41,0,0,1,1.25.51,3.87,3.87,0,0,1,.74.53,8.35,8.35,0,0,1,.75.65,1.13,1.13,0,0,1,.3.85,1.59,1.59,0,0,1-.18.56,4.36,4.36,0,0,1-.37.59c-.52.7-1,1-1.5.95a2.58,2.58,0,0,1-.69-.25l-.6-.35a5.15,5.15,0,0,0-.62-.32,1.88,1.88,0,0,0-.74-.13,2.54,2.54,0,0,0-1.3.33,2.64,2.64,0,0,0-.92.9,2.67,2.67,0,0,0,0,2.61,2.64,2.64,0,0,0,.9.92,2.48,2.48,0,0,0,1.26.34,2.74,2.74,0,0,0,.73-.1,2.83,2.83,0,0,0,.55-.24l.35-.21c.2-.14.39-.26.57-.37a1.19,1.19,0,0,1,.55-.16,1.23,1.23,0,0,1,.74.27,4.28,4.28,0,0,1,.81.83,2,2,0,0,1,.49,1,1.22,1.22,0,0,1-.21.86,2.66,2.66,0,0,1-.85.76,3.85,3.85,0,0,1-.72.45,6.49,6.49,0,0,1-1.25.5A5.64,5.64,0,0,1,225.62,35Z"/><path class="cls-3" d="M233.35,22.6h2.75l3.45-.1a4.29,4.29,0,0,1,.9.09,1.08,1.08,0,0,1,.7.49,2.37,2.37,0,0,1,.28,1.33,2.3,2.3,0,0,1-.27,1.25,1.19,1.19,0,0,1-.68.51,4,4,0,0,1-.93.11l-3.27-.08-3,0a1.27,1.27,0,0,1-1-.47,2.52,2.52,0,0,1-.29-1.39A2.11,2.11,0,0,1,232.3,23,1.29,1.29,0,0,1,233.35,22.6ZM239,34.9a7.87,7.87,0,0,1-2.2-.27,3.68,3.68,0,0,1-1.52-.85,3.53,3.53,0,0,1-.87-1.47,6.89,6.89,0,0,1-.29-2.11V20.08a4.31,4.31,0,0,1,.09-.93,1,1,0,0,1,.49-.66,2.37,2.37,0,0,1,1.3-.26,2.4,2.4,0,0,1,1.3.27,1.14,1.14,0,0,1,.48.72,4.46,4.46,0,0,1,.09.91v9.92a2.55,2.55,0,0,0,.07.67.79.79,0,0,0,.18.38.65.65,0,0,0,.35.18,2.87,2.87,0,0,0,.55,0,4.16,4.16,0,0,1,1,.1,1.1,1.1,0,0,1,.66.45,2.17,2.17,0,0,1,.24,1.18,2.41,2.41,0,0,1-.28,1.3,1.07,1.07,0,0,1-.71.47A5.41,5.41,0,0,1,239,34.9Z"/><path class="cls-3" d="M253.55,34.89a2.34,2.34,0,0,1-1.38-.33.88.88,0,0,1-.42-.8l.25-.42a3.07,3.07,0,0,1-.58.61,4.11,4.11,0,0,1-1.11.65,4.33,4.33,0,0,1-1.66.29,5,5,0,0,1-2.19-.51A5.74,5.74,0,0,1,244.62,33a7,7,0,0,1-1.27-2,6,6,0,0,1-.48-2.37,5.83,5.83,0,0,1,.48-2.34,6.9,6.9,0,0,1,1.29-2,6.42,6.42,0,0,1,1.84-1.36,4.79,4.79,0,0,1,2.17-.49,4.15,4.15,0,0,1,1.58.26,4.5,4.5,0,0,1,1.09.61A3.2,3.2,0,0,1,252,24l-.23-.35a1.07,1.07,0,0,1,.44-.92,2.48,2.48,0,0,1,1.39-.31,2.33,2.33,0,0,1,1.29.28,1.14,1.14,0,0,1,.47.72,4.86,4.86,0,0,1,.09.95V33a4.63,4.63,0,0,1-.09.92,1.07,1.07,0,0,1-.47.72A2.5,2.5,0,0,1,253.55,34.89Zm-4.38-3.73a2.13,2.13,0,0,0,1.2-.34,2.6,2.6,0,0,0,1.18-2.18,2.57,2.57,0,0,0-.32-1.29,2.42,2.42,0,0,0-.88-.89,2.32,2.32,0,0,0-1.22-.32,2.48,2.48,0,0,0-1.27.33,2.7,2.7,0,0,0-.9.91,2.6,2.6,0,0,0-.34,1.3,2.41,2.41,0,0,0,.34,1.24,2.44,2.44,0,0,0,.93.9A2.48,2.48,0,0,0,249.17,31.16Z"/><path class="cls-2" d="M126.35,34.84a2.44,2.44,0,0,1-1.31-.27,1,1,0,0,1-.5-.71,4.7,4.7,0,0,1-.09-.92V19.26a4.46,4.46,0,0,1,.09-.91,1.08,1.08,0,0,1,.48-.71,3.32,3.32,0,0,1,2.67,0,1.14,1.14,0,0,1,.47.71,4.62,4.62,0,0,1,.09.94V31.54h6.85a4.09,4.09,0,0,1,.8.08,1,1,0,0,1,.61.42,2.12,2.12,0,0,1,.24,1.15,2.09,2.09,0,0,1-.25,1.14,1,1,0,0,1-.61.44,4,4,0,0,1-.79.07Z"/><path class="cls-2" d="M139.53,21.44a.82.82,0,0,1-.74-.25,2.63,2.63,0,0,1-.51-1,2.11,2.11,0,0,1-.1-1.3,1.43,1.43,0,0,1,.93-.67l4.4-1.35a.9.9,0,0,1,.72.29,2.4,2.4,0,0,1,.5,1,1.93,1.93,0,0,1,.09,1.27,1.35,1.35,0,0,1-.91.68Zm1,13.41a2.5,2.5,0,0,1-1.32-.27,1.1,1.1,0,0,1-.47-.7,4.46,4.46,0,0,1-.09-.91V24.24a4.53,4.53,0,0,1,.09-.91,1.1,1.1,0,0,1,.48-.7,2.59,2.59,0,0,1,1.33-.26,2.24,2.24,0,0,1,1.29.28,1.14,1.14,0,0,1,.47.71,4.62,4.62,0,0,1,.09.94V33a5.4,5.4,0,0,1-.08.91,1.06,1.06,0,0,1-.48.69A2.62,2.62,0,0,1,140.5,34.85Z"/><path class="cls-2" d="M146.72,34.82a2.5,2.5,0,0,1-1.31-.26,1,1,0,0,1-.47-.7,4.53,4.53,0,0,1-.09-.91v-8.8a4.13,4.13,0,0,1,.09-.89,1,1,0,0,1,.49-.66,2.58,2.58,0,0,1,1.32-.25,2.51,2.51,0,0,1,1.18.21,1,1,0,0,1,.49.51,1.74,1.74,0,0,1,.11.57,1,1,0,0,0,.05.36l-.15.48a1.45,1.45,0,0,1,.39-.77,3.35,3.35,0,0,1,.85-.7,4.7,4.7,0,0,1,1.1-.48,4,4,0,0,1,1.16-.18,5.05,5.05,0,0,1,2.14.44,4.29,4.29,0,0,1,1.58,1.26,5.65,5.65,0,0,1,1,1.94,8.56,8.56,0,0,1,.34,2.44V33a5.31,5.31,0,0,1-.08.91,1.06,1.06,0,0,1-.48.69,2.57,2.57,0,0,1-1.34.25,2.54,2.54,0,0,1-1.32-.26,1.07,1.07,0,0,1-.49-.71,4.46,4.46,0,0,1-.09-.91V28.43a2.78,2.78,0,0,0-.27-1.28,1.81,1.81,0,0,0-.75-.8,2.43,2.43,0,0,0-1.21-.27,2.59,2.59,0,0,0-1.25.28,2,2,0,0,0-.81.81,2.59,2.59,0,0,0-.29,1.25V33a4.53,4.53,0,0,1-.09.91,1,1,0,0,1-.48.68A2.47,2.47,0,0,1,146.72,34.82Z"/><path class="cls-2" d="M165.62,35.09a7.44,7.44,0,0,1-3-.58A5.86,5.86,0,0,1,160.55,33a6.38,6.38,0,0,1-1.2-2.08,6.92,6.92,0,0,1-.4-2.3,6.54,6.54,0,0,1,.85-3.33A6.12,6.12,0,0,1,162.17,23a7,7,0,0,1,3.46-.84,6.39,6.39,0,0,1,2.51.46,5.23,5.23,0,0,1,1.75,1.2,5.11,5.11,0,0,1,1,1.59,4.33,4.33,0,0,1,.34,1.63,2.82,2.82,0,0,1-.66,2.05,2.27,2.27,0,0,1-1.69.67h-6a1.74,1.74,0,0,0,.46,1.07,2.73,2.73,0,0,0,1,.7,3.48,3.48,0,0,0,1.32.25,6.62,6.62,0,0,0,1-.06,4.49,4.49,0,0,0,.79-.17l.59-.23.48-.18a1.89,1.89,0,0,1,.43-.1,1,1,0,0,1,.67.21,2.11,2.11,0,0,1,.58.71,2,2,0,0,1,.24.53,2.07,2.07,0,0,1,.06.5,1.35,1.35,0,0,1-.61,1.08,4.73,4.73,0,0,1-1.73.74A11.51,11.51,0,0,1,165.62,35.09ZM163,27.68h4a1.06,1.06,0,0,0,.58-.14.62.62,0,0,0,.2-.54,1.24,1.24,0,0,0-.28-.77,1.64,1.64,0,0,0-.74-.54,2.74,2.74,0,0,0-1.08-.19,3,3,0,0,0-1.35.3,2.31,2.31,0,0,0-.94.8A1.91,1.91,0,0,0,163,27.68Z"/><path class="cls-2" d="M183.55,34.85a2.34,2.34,0,0,1-1.38-.33.89.89,0,0,1-.42-.8l.25-.43a2.59,2.59,0,0,1-.58.62,4.39,4.39,0,0,1-1.11.65,4.34,4.34,0,0,1-1.66.28,4.88,4.88,0,0,1-2.19-.5A5.89,5.89,0,0,1,174.62,33a7,7,0,0,1-1.27-2,6,6,0,0,1-.47-2.38,5.81,5.81,0,0,1,.47-2.33,6.9,6.9,0,0,1,1.29-2,6.37,6.37,0,0,1,1.84-1.36,4.93,4.93,0,0,1,2.17-.5,4.11,4.11,0,0,1,1.58.27,4.5,4.5,0,0,1,1.09.61,3.43,3.43,0,0,1,.66.67l-.23-.34a1.06,1.06,0,0,1,.44-.92,2.42,2.42,0,0,1,1.39-.31,2.24,2.24,0,0,1,1.29.28,1.1,1.1,0,0,1,.47.72,4.86,4.86,0,0,1,.09.95V33a4.7,4.7,0,0,1-.09.92,1,1,0,0,1-.47.71A2.39,2.39,0,0,1,183.55,34.85Zm-4.38-3.73a2.13,2.13,0,0,0,1.2-.34,2.54,2.54,0,0,0,1.18-2.19,2.56,2.56,0,0,0-.32-1.28,2.42,2.42,0,0,0-.88-.89,2.3,2.3,0,0,0-1.22-.33,2.39,2.39,0,0,0-1.27.34,2.5,2.5,0,0,0-1.23,2.21,2.42,2.42,0,0,0,.33,1.24,2.6,2.6,0,0,0,2.21,1.24Z"/><path class="cls-2" d="M196.32,34.88a2.37,2.37,0,0,1-1.31-.27,1.07,1.07,0,0,1-.48-.71,5.62,5.62,0,0,1-.08-.92V24.25a4.42,4.42,0,0,1,.09-.92,1.06,1.06,0,0,1,.49-.69,2.57,2.57,0,0,1,1.32-.26,2.52,2.52,0,0,1,1.27.24,1,1,0,0,1,.48.55,1.68,1.68,0,0,1,.1.53l-.3.15a3.91,3.91,0,0,1,.27-.36,3.32,3.32,0,0,1,1.5-1,3.34,3.34,0,0,1,1.23-.2l.62,0a4.89,4.89,0,0,1,.7.15,3.32,3.32,0,0,1,.66.3,1.69,1.69,0,0,1,.49.47,1.2,1.2,0,0,1,.18.67,3.09,3.09,0,0,1-.47,1.74,1.42,1.42,0,0,1-1.2.71,2,2,0,0,1-.6-.06,1,1,0,0,1-.29-.15,1.1,1.1,0,0,0-.26-.15,1.72,1.72,0,0,0-.55-.06,2.46,2.46,0,0,0-.72.1,1.9,1.9,0,0,0-.62.31,1.45,1.45,0,0,0-.61,1.23V33a4.46,4.46,0,0,1-.09.91,1,1,0,0,1-.48.69A2.6,2.6,0,0,1,196.32,34.88Z"/><path class="cls-2" d="M211.72,35.11a7.25,7.25,0,0,1-3-.57A5.86,5.86,0,0,1,206.65,33a6.16,6.16,0,0,1-1.2-2.09,6.83,6.83,0,0,1-.4-2.3,6.41,6.41,0,0,1,.85-3.32A6.14,6.14,0,0,1,208.27,23a7.08,7.08,0,0,1,3.46-.83,6.25,6.25,0,0,1,2.51.46,5.23,5.23,0,0,1,1.75,1.2,4.89,4.89,0,0,1,1,1.59,4.33,4.33,0,0,1,.34,1.63,2.84,2.84,0,0,1-.66,2.05,2.28,2.28,0,0,1-1.69.67h-5.95a1.76,1.76,0,0,0,.46,1.07,2.73,2.73,0,0,0,1,.7,3.44,3.44,0,0,0,1.32.25,8.1,8.1,0,0,0,1-.06,4.49,4.49,0,0,0,.79-.17l.59-.23.48-.19a1.84,1.84,0,0,1,.43-.09,1,1,0,0,1,.67.21,2,2,0,0,1,.58.71,2.24,2.24,0,0,1,.24.53,2.07,2.07,0,0,1,.06.5,1.35,1.35,0,0,1-.62,1.08,4.6,4.6,0,0,1-1.72.74A11.56,11.56,0,0,1,211.72,35.11Zm-2.67-7.4H213a1.06,1.06,0,0,0,.58-.13.63.63,0,0,0,.2-.54,1.29,1.29,0,0,0-.28-.78,1.7,1.7,0,0,0-.74-.53,2.74,2.74,0,0,0-1.08-.19,3,3,0,0,0-1.35.3,2.31,2.31,0,0,0-.94.8A1.84,1.84,0,0,0,209.05,27.71Z"/><path class="cls-2" d="M225.62,35a6.47,6.47,0,0,1-2.24-.42,7,7,0,0,1-2.1-1.21,5.87,5.87,0,0,1-1.53-2,6.76,6.76,0,0,1,0-5.48,5.85,5.85,0,0,1,1.53-2,6.75,6.75,0,0,1,2.09-1.21,6.29,6.29,0,0,1,2.21-.41,6.08,6.08,0,0,1,1.66.21,5.41,5.41,0,0,1,1.25.51,3.87,3.87,0,0,1,.74.53,8.35,8.35,0,0,1,.75.65,1.13,1.13,0,0,1,.3.85,1.59,1.59,0,0,1-.18.56,4.36,4.36,0,0,1-.37.59c-.52.7-1,1-1.5.95a2.58,2.58,0,0,1-.69-.25l-.6-.35a5.15,5.15,0,0,0-.62-.32,1.88,1.88,0,0,0-.74-.13,2.54,2.54,0,0,0-1.3.33,2.64,2.64,0,0,0-.92.9,2.67,2.67,0,0,0,0,2.61,2.64,2.64,0,0,0,.9.92,2.48,2.48,0,0,0,1.26.34,2.74,2.74,0,0,0,.73-.1,2.83,2.83,0,0,0,.55-.24l.35-.21c.2-.14.39-.26.57-.37a1.19,1.19,0,0,1,.55-.16,1.23,1.23,0,0,1,.74.27,4.28,4.28,0,0,1,.81.83,2,2,0,0,1,.49,1,1.22,1.22,0,0,1-.21.86,2.66,2.66,0,0,1-.85.76,3.85,3.85,0,0,1-.72.45,6.49,6.49,0,0,1-1.25.5A5.64,5.64,0,0,1,225.62,35Z"/><path class="cls-2" d="M233.35,22.6h2.75l3.45-.1a4.29,4.29,0,0,1,.9.09,1.08,1.08,0,0,1,.7.49,2.37,2.37,0,0,1,.28,1.33,2.3,2.3,0,0,1-.27,1.25,1.19,1.19,0,0,1-.68.51,4,4,0,0,1-.93.11l-3.27-.08-3,0a1.27,1.27,0,0,1-1-.47,2.52,2.52,0,0,1-.29-1.39A2.11,2.11,0,0,1,232.3,23,1.29,1.29,0,0,1,233.35,22.6ZM239,34.9a7.87,7.87,0,0,1-2.2-.27,3.68,3.68,0,0,1-1.52-.85,3.53,3.53,0,0,1-.87-1.47,6.89,6.89,0,0,1-.29-2.11V20.08a4.31,4.31,0,0,1,.09-.93,1,1,0,0,1,.49-.66,2.37,2.37,0,0,1,1.3-.26,2.4,2.4,0,0,1,1.3.27,1.14,1.14,0,0,1,.48.72,4.46,4.46,0,0,1,.09.91v9.92a2.55,2.55,0,0,0,.07.67.79.79,0,0,0,.18.38.65.65,0,0,0,.35.18,2.87,2.87,0,0,0,.55,0,4.16,4.16,0,0,1,1,.1,1.1,1.1,0,0,1,.66.45,2.17,2.17,0,0,1,.24,1.18,2.41,2.41,0,0,1-.28,1.3,1.07,1.07,0,0,1-.71.47A5.41,5.41,0,0,1,239,34.9Z"/><path class="cls-2" d="M253.55,34.89a2.34,2.34,0,0,1-1.38-.33.88.88,0,0,1-.42-.8l.25-.42a3.07,3.07,0,0,1-.58.61,4.11,4.11,0,0,1-1.11.65,4.33,4.33,0,0,1-1.66.29,5,5,0,0,1-2.19-.51A5.74,5.74,0,0,1,244.62,33a7,7,0,0,1-1.27-2,6,6,0,0,1-.48-2.37,5.83,5.83,0,0,1,.48-2.34,6.9,6.9,0,0,1,1.29-2,6.42,6.42,0,0,1,1.84-1.36,4.79,4.79,0,0,1,2.17-.49,4.15,4.15,0,0,1,1.58.26,4.5,4.5,0,0,1,1.09.61A3.2,3.2,0,0,1,252,24l-.23-.35a1.07,1.07,0,0,1,.44-.92,2.48,2.48,0,0,1,1.39-.31,2.33,2.33,0,0,1,1.29.28,1.14,1.14,0,0,1,.47.72,4.86,4.86,0,0,1,.09.95V33a4.63,4.63,0,0,1-.09.92,1.07,1.07,0,0,1-.47.72A2.5,2.5,0,0,1,253.55,34.89Zm-4.38-3.73a2.13,2.13,0,0,0,1.2-.34,2.6,2.6,0,0,0,1.18-2.18,2.57,2.57,0,0,0-.32-1.29,2.42,2.42,0,0,0-.88-.89,2.32,2.32,0,0,0-1.22-.32,2.48,2.48,0,0,0-1.27.33,2.7,2.7,0,0,0-.9.91,2.6,2.6,0,0,0-.34,1.3,2.41,2.41,0,0,0,.34,1.24,2.44,2.44,0,0,0,.93.9A2.48,2.48,0,0,0,249.17,31.16Z"/><path class="cls-4" d="M55.46,35.55q0,3.41-1.18,4.85a4.36,4.36,0,0,1-3.59,1.45,5.73,5.73,0,0,1-2.57-.5,3.29,3.29,0,0,1-1.48-1.85,11.09,11.09,0,0,1-.55-3.61L46,20.22a6.2,6.2,0,0,1-3.21-.74A2.56,2.56,0,0,1,41.55,17a2.76,2.76,0,0,1,1.16-2.29,5.16,5.16,0,0,1,3.24-.9c.54,0,1.31,0,2.3,0l2.1,0c2,0,3.36.34,4,1a5,5,0,0,1,1,3.59Z"/><path class="cls-4" d="M59.21,39a2.78,2.78,0,0,1,1.16-2.31,5.4,5.4,0,0,1,3.28-.88c3,0,4.44,1.07,4.44,3.19a3.11,3.11,0,0,1-.57,2,2.73,2.73,0,0,1-1.51,1,9.17,9.17,0,0,1-2.36.26,6.13,6.13,0,0,1-3.18-.76A2.63,2.63,0,0,1,59.21,39Z"/><path class="cls-4" d="M80.32,35.55c0,2.27-.4,3.89-1.19,4.85a4.36,4.36,0,0,1-3.59,1.45,5.66,5.66,0,0,1-2.56-.5,3.26,3.26,0,0,1-1.49-1.85,11.09,11.09,0,0,1-.55-3.61l-.06-15.67a6.22,6.22,0,0,1-3.22-.74A2.59,2.59,0,0,1,66.4,17a2.76,2.76,0,0,1,1.16-2.29,5.16,5.16,0,0,1,3.24-.9c.54,0,1.31,0,2.3,0l2.1,0c2,0,3.36.34,4,1a5,5,0,0,1,1,3.59Z"/><path class="cls-5" d="M55.46,35.55q0,3.41-1.18,4.85a4.36,4.36,0,0,1-3.59,1.45,5.73,5.73,0,0,1-2.57-.5,3.29,3.29,0,0,1-1.48-1.85,11.09,11.09,0,0,1-.55-3.61L46,20.22a6.2,6.2,0,0,1-3.21-.74A2.56,2.56,0,0,1,41.55,17a2.76,2.76,0,0,1,1.16-2.29,5.16,5.16,0,0,1,3.24-.9c.54,0,1.31,0,2.3,0l2.1,0c2,0,3.36.34,4,1a5,5,0,0,1,1,3.59Z"/><path class="cls-5" d="M59.21,39a2.78,2.78,0,0,1,1.16-2.31,5.4,5.4,0,0,1,3.28-.88c3,0,4.44,1.07,4.44,3.19a3.11,3.11,0,0,1-.57,2,2.73,2.73,0,0,1-1.51,1,9.17,9.17,0,0,1-2.36.26,6.13,6.13,0,0,1-3.18-.76A2.63,2.63,0,0,1,59.21,39Z"/><path class="cls-5" d="M80.32,35.55c0,2.27-.4,3.89-1.19,4.85a4.36,4.36,0,0,1-3.59,1.45,5.66,5.66,0,0,1-2.56-.5,3.26,3.26,0,0,1-1.49-1.85,11.09,11.09,0,0,1-.55-3.61l-.06-15.67a6.22,6.22,0,0,1-3.22-.74A2.59,2.59,0,0,1,66.4,17a2.76,2.76,0,0,1,1.16-2.29,5.16,5.16,0,0,1,3.24-.9c.54,0,1.31,0,2.3,0l2.1,0c2,0,3.36.34,4,1a5,5,0,0,1,1,3.59Z"/></g></g></svg>