<svg xmlns="http://www.w3.org/2000/svg" viewBox="0 0 399.98 102.47"><defs><style>.cls-1{fill:#23841a;}.cls-2{fill:#fff;}.cls-3,.cls-4{fill:none;stroke-width:5px;}.cls-3{stroke:#ff7300;stroke-linejoin:round;}.cls-4{stroke:#fff;}.cls-5{fill:#ff7300;}</style></defs><title>12t</title><g id="Layer_2" data-name="Layer 2"><g id="pestaña_identificativa" data-name="pestaña identificativa"><rect class="cls-1" width="399.98" height="102.47" rx="32.4"/><path class="cls-2" d="M139.16,32.2a2.77,2.77,0,0,1,.32,1.06,1,1,0,0,1-.26.77,2.88,2.88,0,0,1-.94.67,2,2,0,0,1-1.55.29,2.14,2.14,0,0,1-1-1.2l-4.9-10.25-4.88,10.25a2.23,2.23,0,0,1-1,1.16,2.18,2.18,0,0,1-1.54-.29,2.74,2.74,0,0,1-1-.64,1,1,0,0,1-.26-.8,2.82,2.82,0,0,1,.36-1.09l6.58-13.67a2,2,0,0,1,.74-.8,1.9,1.9,0,0,1,1-.29,1.78,1.78,0,0,1,.7.13,2,2,0,0,1,.59.39,2.22,2.22,0,0,1,.44.6Zm-12.55-1.44,1.55-3.22h5.33L135,30.77Zm2.48-14.1a.8.8,0,0,1-.73-.25,2.49,2.49,0,0,1-.51-1,2,2,0,0,1-.1-1.3,1.38,1.38,0,0,1,.92-.67l4.4-1.35a.88.88,0,0,1,.73.29,2.53,2.53,0,0,1,.5,1,1.85,1.85,0,0,1,.08,1.27,1.32,1.32,0,0,1-.91.68Z"/><path class="cls-2" d="M143.08,34.82a2.5,2.5,0,0,1-1.31-.26,1.08,1.08,0,0,1-.47-.7,4.53,4.53,0,0,1-.09-.91v-8.8a4.15,4.15,0,0,1,.08-.89,1,1,0,0,1,.49-.66,2.6,2.6,0,0,1,1.33-.25,2.49,2.49,0,0,1,1.17.21,1,1,0,0,1,.49.51,1.74,1.74,0,0,1,.11.57,1,1,0,0,0,.05.36l-.15.47a1.43,1.43,0,0,1,.39-.76A3.53,3.53,0,0,1,146,23a4.73,4.73,0,0,1,1.1-.49,4.29,4.29,0,0,1,1.16-.17,5.05,5.05,0,0,1,2.14.44A4.41,4.41,0,0,1,152,24.05,5.81,5.81,0,0,1,153,26a8.18,8.18,0,0,1,.34,2.44V33a4.53,4.53,0,0,1-.08.91,1.06,1.06,0,0,1-.48.69,2.68,2.68,0,0,1-1.34.25,2.46,2.46,0,0,1-1.32-.27,1,1,0,0,1-.49-.7,4.46,4.46,0,0,1-.09-.91V28.43a2.92,2.92,0,0,0-.26-1.28,1.93,1.93,0,0,0-.75-.8,2.91,2.91,0,0,0-2.47,0,2,2,0,0,0-.81.81,2.59,2.59,0,0,0-.29,1.25V33a4.63,4.63,0,0,1-.09.92,1,1,0,0,1-.47.68A2.53,2.53,0,0,1,143.08,34.82Z"/><path class="cls-2" d="M161,34.53A4.82,4.82,0,0,1,158.8,34,5.81,5.81,0,0,1,157,32.71a6.47,6.47,0,0,1-1.22-2,6,6,0,0,1-.45-2.32,6,6,0,0,1,.45-2.31A6.2,6.2,0,0,1,157,24.19a5.82,5.82,0,0,1,1.8-1.32,4.73,4.73,0,0,1,2.11-.49,3.84,3.84,0,0,1,1.9.44,3.33,3.33,0,0,1,1.25,1.25A6.56,6.56,0,0,1,164.8,26a11.82,11.82,0,0,1,.24,2.49,11,11,0,0,1-.42,3.21,4.2,4.2,0,0,1-1.3,2.1A3.58,3.58,0,0,1,161,34.53ZM161.4,40a7,7,0,0,1-1.76-.23,7.61,7.61,0,0,1-1.58-.6,4.52,4.52,0,0,1-1.15-.8,1.21,1.21,0,0,1-.43-.85,1.81,1.81,0,0,1,.15-.74,2.58,2.58,0,0,1,.45-.66,7,7,0,0,1,.6-.57.91.91,0,0,1,.6-.2,1.13,1.13,0,0,1,.63.18l.58.42a4.13,4.13,0,0,0,.79.41,3.21,3.21,0,0,0,1.2.19,2.29,2.29,0,0,0,.94-.19,2,2,0,0,0,.75-.55,2.65,2.65,0,0,0,.5-.85,2.86,2.86,0,0,0,.19-1.09V23.54a1.18,1.18,0,0,1,.51-.94,2.49,2.49,0,0,1,1.34-.29,2.31,2.31,0,0,1,1.25.26,1.11,1.11,0,0,1,.46.69,4.37,4.37,0,0,1,.08.9V34a5.84,5.84,0,0,1-.53,2.53,5.75,5.75,0,0,1-1.4,1.88,6.23,6.23,0,0,1-2,1.16A6.51,6.51,0,0,1,161.4,40Zm0-9.1a2.13,2.13,0,0,0,1.2-.34,2.37,2.37,0,0,0,.83-.89,2.45,2.45,0,0,0,.32-1.25,2.6,2.6,0,0,0-.31-1.25,2.53,2.53,0,0,0-.85-.87,2.3,2.3,0,0,0-1.22-.33,2.21,2.21,0,0,0-1.2.34,2.48,2.48,0,0,0-.84.89,2.54,2.54,0,0,0-.31,1.25,2.3,2.3,0,0,0,.33,1.22,2.53,2.53,0,0,0,.86.89A2.23,2.23,0,0,0,161.39,30.91Z"/><path class="cls-2" d="M175.46,34.84a5.25,5.25,0,0,1-2.18-.45,5.43,5.43,0,0,1-1.75-1.26,5.85,5.85,0,0,1-1.16-1.93,7.06,7.06,0,0,1-.41-2.44V24.24a4.52,4.52,0,0,1,.09-.93,1.13,1.13,0,0,1,.49-.7,2.46,2.46,0,0,1,1.32-.27,2.31,2.31,0,0,1,1.32.28,1.1,1.1,0,0,1,.47.71,4.62,4.62,0,0,1,.09.94v4.5A2.78,2.78,0,0,0,174,30a1.73,1.73,0,0,0,.77.81,2.46,2.46,0,0,0,1.21.28,2.5,2.5,0,0,0,1.24-.29A2,2,0,0,0,178,30a2.59,2.59,0,0,0,.29-1.25V24.22a4.52,4.52,0,0,1,.09-.93,1,1,0,0,1,.49-.68,3.31,3.31,0,0,1,2.64,0,1.1,1.1,0,0,1,.47.71,4.56,4.56,0,0,1,.09.92V33a4.91,4.91,0,0,1-.08.89,1.06,1.06,0,0,1-.49.67,2.54,2.54,0,0,1-1.3.24,2.92,2.92,0,0,1-1.05-.15,1.23,1.23,0,0,1-.55-.37.94.94,0,0,1-.21-.48,2.42,2.42,0,0,1,0-.45l.32-.27a3.74,3.74,0,0,1-.32.39,7.18,7.18,0,0,1-.66.57,4.28,4.28,0,0,1-1,.54A3.31,3.31,0,0,1,175.46,34.84Z"/><path class="cls-2" d="M189.38,34.87a14.14,14.14,0,0,1-1.82-.1,3.58,3.58,0,0,1-1.35-.4,2.47,2.47,0,0,1-.9-.83,4,4,0,0,1-.53-1.38,10.88,10.88,0,0,1-.17-2.06V18.55a3.9,3.9,0,0,1,.1-.93,1.17,1.17,0,0,1,.49-.7,3.26,3.26,0,0,1,2.6,0,1.19,1.19,0,0,1,.48.7,4,4,0,0,1,.1.93V29.92a6.19,6.19,0,0,0,0,.67,1,1,0,0,0,.15.41.54.54,0,0,0,.32.2,2.34,2.34,0,0,0,.52.05,2.62,2.62,0,0,1,.61.08.86.86,0,0,1,.54.45,2.55,2.55,0,0,1,.22,1.25,2.81,2.81,0,0,1-.22,1.3.89.89,0,0,1-.54.47A2.73,2.73,0,0,1,189.38,34.87Z"/><path class="cls-2" d="M198.61,35.08a6.25,6.25,0,0,1-2.34-.46,7.06,7.06,0,0,1-2.11-1.32,6.16,6.16,0,0,1-2.07-4.67,6.24,6.24,0,0,1,.51-2.52A6.75,6.75,0,0,1,194,24.05a6.67,6.67,0,0,1,2.07-1.41,6.08,6.08,0,0,1,2.48-.51,6.3,6.3,0,0,1,3.27.87,6.5,6.5,0,0,1,2.33,2.33,6.27,6.27,0,0,1,.88,3.28,6.17,6.17,0,0,1-.57,2.71,6.35,6.35,0,0,1-1.5,2,6.68,6.68,0,0,1-2.07,1.28A6.21,6.21,0,0,1,198.61,35.08Zm-.05-3.77a2.85,2.85,0,0,0,1.23-.3,2.81,2.81,0,0,0,1.05-.9,2.61,2.61,0,0,0,.42-1.53,2.67,2.67,0,0,0-.35-1.4,2.48,2.48,0,0,0-1-.94,2.94,2.94,0,0,0-1.41-.33,2.59,2.59,0,0,0-1.34.34,2.76,2.76,0,0,0-.95,1,2.93,2.93,0,0,0,.05,2.9,2.47,2.47,0,0,0,1,.9A3.15,3.15,0,0,0,198.56,31.31Z"/><path class="cls-2" d="M215.59,20.59a2.43,2.43,0,0,1-1.35-.28,1.13,1.13,0,0,1-.49-.72,5.8,5.8,0,0,1-.08-.95,4.75,4.75,0,0,1,.09-1,1,1,0,0,1,.5-.7,2.47,2.47,0,0,1,1.36-.26,2.43,2.43,0,0,1,1.32.27,1.14,1.14,0,0,1,.49.73,4.92,4.92,0,0,1,.09,1,4.73,4.73,0,0,1-.09.93,1.07,1.07,0,0,1-.49.71A2.65,2.65,0,0,1,215.59,20.59Zm0,14.3a2.54,2.54,0,0,1-1.32-.26,1,1,0,0,1-.48-.7,5.45,5.45,0,0,1-.07-.92V24.29a4.46,4.46,0,0,1,.09-.91,1.06,1.06,0,0,1,.49-.7,2.47,2.47,0,0,1,1.32-.26,2.31,2.31,0,0,1,1.29.27,1.12,1.12,0,0,1,.48.71,4.77,4.77,0,0,1,.08.94V33a4.63,4.63,0,0,1-.09.92,1.06,1.06,0,0,1-.47.68A2.53,2.53,0,0,1,215.58,34.89Z"/><path class="cls-2" d="M222,34.87a2.52,2.52,0,0,1-1.32-.26,1.12,1.12,0,0,1-.47-.7,4.56,4.56,0,0,1-.09-.92v-8.8a4.1,4.1,0,0,1,.09-.88,1,1,0,0,1,.49-.67,2.64,2.64,0,0,1,1.32-.25,2.52,2.52,0,0,1,1.18.22,1,1,0,0,1,.48.51,1.5,1.5,0,0,1,.11.56,1,1,0,0,0,.05.37l-.15.47a1.58,1.58,0,0,1,.39-.76,3.74,3.74,0,0,1,.85-.7,4.73,4.73,0,0,1,1.1-.49,4.3,4.3,0,0,1,1.17-.17,4.86,4.86,0,0,1,2.13.44,4.24,4.24,0,0,1,1.59,1.26,6,6,0,0,1,1,1.94,8.52,8.52,0,0,1,.33,2.44V33a4.53,4.53,0,0,1-.09.91,1,1,0,0,1-.48.68,2.53,2.53,0,0,1-1.33.25,2.49,2.49,0,0,1-1.33-.26,1,1,0,0,1-.48-.7,4.53,4.53,0,0,1-.09-.91V28.47a2.87,2.87,0,0,0-.26-1.27,1.88,1.88,0,0,0-.75-.8,2.36,2.36,0,0,0-1.21-.28,2.57,2.57,0,0,0-1.25.29,2.06,2.06,0,0,0-.82.81,2.59,2.59,0,0,0-.28,1.25V33a5.31,5.31,0,0,1-.08.91,1.06,1.06,0,0,1-.48.69A2.52,2.52,0,0,1,222,34.87Z"/><path class="cls-2" d="M240.71,35a2.25,2.25,0,0,1-1-.23,1.45,1.45,0,0,1-.66-.7l-4.5-9a2,2,0,0,1-.26-1.49,2.09,2.09,0,0,1,1.14-1.06,2.4,2.4,0,0,1,1.51-.31c.38.09.71.49,1,1.19l2.8,6.5,2.8-6.42c.3-.72.64-1.14,1-1.25a2.22,2.22,0,0,1,1.56.32c.68.32,1.06.69,1.14,1.12a2.34,2.34,0,0,1-.32,1.46l-4.48,8.92a1.48,1.48,0,0,1-.65.7A2.26,2.26,0,0,1,240.71,35Z"/><path class="cls-2" d="M255.51,35.14a7.17,7.17,0,0,1-3-.58,5.93,5.93,0,0,1-2.06-1.51,6.61,6.61,0,0,1-1.2-2.09,6.82,6.82,0,0,1-.39-2.3,6.38,6.38,0,0,1,.85-3.32,6,6,0,0,1,2.36-2.29,7,7,0,0,1,3.46-.84,6.26,6.26,0,0,1,2.52.47,5.33,5.33,0,0,1,1.75,1.2,5.25,5.25,0,0,1,1,1.59,4.53,4.53,0,0,1,.34,1.62,2.82,2.82,0,0,1-.67,2.05,2.26,2.26,0,0,1-1.69.68h-5.95a1.78,1.78,0,0,0,.47,1.08,2.81,2.81,0,0,0,1,.7,3.5,3.5,0,0,0,1.33.25,8.22,8.22,0,0,0,1-.06,3.6,3.6,0,0,0,.78-.18c.22-.07.42-.15.59-.22s.34-.14.49-.19a2.53,2.53,0,0,1,.42-.1,1.09,1.09,0,0,1,.68.21,1.94,1.94,0,0,1,.57.72,1.71,1.71,0,0,1,.24.52,2.2,2.2,0,0,1,.06.5,1.34,1.34,0,0,1-.61,1.09,4.83,4.83,0,0,1-1.73.74A11.47,11.47,0,0,1,255.51,35.14Zm-2.67-7.4h4a.92.92,0,0,0,.57-.14.61.61,0,0,0,.2-.53,1.23,1.23,0,0,0-.27-.78,1.87,1.87,0,0,0-.74-.54,3.2,3.2,0,0,0-2.44.11,2.47,2.47,0,0,0-.94.8A2,2,0,0,0,252.84,27.74Z"/><path class="cls-2" d="M265.11,34.92a2.52,2.52,0,0,1-1.32-.26,1.14,1.14,0,0,1-.47-.72,4.63,4.63,0,0,1-.09-.92V24.29a4.42,4.42,0,0,1,.09-.92,1.07,1.07,0,0,1,.48-.69,2.59,2.59,0,0,1,1.33-.26,2.5,2.5,0,0,1,1.26.24,1.06,1.06,0,0,1,.49.55,2.08,2.08,0,0,1,.1.54l-.3.15a2.39,2.39,0,0,1,.26-.37,4.06,4.06,0,0,1,.59-.55,3.39,3.39,0,0,1,.91-.48,3.62,3.62,0,0,1,1.24-.2,4.55,4.55,0,0,1,.61,0,3,3,0,0,1,.7.15,2.47,2.47,0,0,1,.66.3,1.55,1.55,0,0,1,.49.46,1.13,1.13,0,0,1,.19.67,3,3,0,0,1-.48,1.74,1.38,1.38,0,0,1-1.2.71,2.11,2.11,0,0,1-.6-.06,1,1,0,0,1-.29-.15.93.93,0,0,0-.26-.15A1.68,1.68,0,0,0,269,26a2.39,2.39,0,0,0-.71.1,2,2,0,0,0-.63.31,1.6,1.6,0,0,0-.45.52,1.53,1.53,0,0,0-.16.72v5.47a4.46,4.46,0,0,1-.09.91,1,1,0,0,1-.49.69A2.58,2.58,0,0,1,265.11,34.92Z"/><path class="cls-2" d="M275.09,22.63h2.75l3.45-.1a4.36,4.36,0,0,1,.9.09,1.1,1.1,0,0,1,.7.49,2.41,2.41,0,0,1,.27,1.32,2.38,2.38,0,0,1-.26,1.25,1.15,1.15,0,0,1-.69.51,3,3,0,0,1-.92.11L278,26.23l-3,0a1.28,1.28,0,0,1-1-.46,2.56,2.56,0,0,1-.28-1.39,2.17,2.17,0,0,1,.35-1.34A1.26,1.26,0,0,1,275.09,22.63Zm5.64,12.3a7.54,7.54,0,0,1-2.2-.28A3.43,3.43,0,0,1,277,33.8a3.5,3.5,0,0,1-.87-1.46,6.64,6.64,0,0,1-.29-2.11V20.1a4.92,4.92,0,0,1,.08-.92,1.07,1.07,0,0,1,.49-.67,2.51,2.51,0,0,1,1.3-.26,2.39,2.39,0,0,1,1.3.28,1.1,1.1,0,0,1,.49.71,4.53,4.53,0,0,1,.09.91v9.93a3,3,0,0,0,.06.66.71.71,0,0,0,.19.39.68.68,0,0,0,.35.17,2.71,2.71,0,0,0,.55.06,4.07,4.07,0,0,1,1,.1,1,1,0,0,1,.67.45,2.24,2.24,0,0,1,.23,1.17,2.38,2.38,0,0,1-.27,1.3,1.07,1.07,0,0,1-.72.48A5.33,5.33,0,0,1,280.73,34.93Z"/><path class="cls-2" d="M287.09,20.63a2.53,2.53,0,0,1-1.35-.27,1.14,1.14,0,0,1-.49-.73,4.81,4.81,0,0,1-.08-.95,5.64,5.64,0,0,1,.08-1,1.09,1.09,0,0,1,.5-.7,2.73,2.73,0,0,1,1.37-.26,2.33,2.33,0,0,1,1.32.28,1.09,1.09,0,0,1,.49.72,4.92,4.92,0,0,1,.09,1,4.73,4.73,0,0,1-.09.93,1.05,1.05,0,0,1-.49.71A2.54,2.54,0,0,1,287.09,20.63Zm0,14.3a2.42,2.42,0,0,1-1.32-.26,1,1,0,0,1-.48-.7,5.41,5.41,0,0,1-.07-.91V24.33a4.53,4.53,0,0,1,.09-.91,1.06,1.06,0,0,1,.49-.7,2.47,2.47,0,0,1,1.32-.26,2.34,2.34,0,0,1,1.29.27,1.17,1.17,0,0,1,.48.72,5.46,5.46,0,0,1,.08.93v8.7a4.56,4.56,0,0,1-.09.92,1,1,0,0,1-.48.68A2.47,2.47,0,0,1,287.08,34.93Z"/><path class="cls-2" d="M297,34.91a5,5,0,0,1-2.17-.48A5.79,5.79,0,0,1,293,33.06a6.7,6.7,0,0,1-1.26-2,6.3,6.3,0,0,1-.46-2.41,6,6,0,0,1,.46-2.34,6.67,6.67,0,0,1,1.28-2A6.42,6.42,0,0,1,294.84,23a4.88,4.88,0,0,1,2.15-.5,4.47,4.47,0,0,1,2.11.49,4.58,4.58,0,0,1,1.53,1.34,6.7,6.7,0,0,1,.93,2,9.08,9.08,0,0,1,.35,2.35,9.28,9.28,0,0,1-.3,2.4,6.12,6.12,0,0,1-.93,2,4.66,4.66,0,0,1-1.55,1.38A4.28,4.28,0,0,1,297,34.91Zm.5-3.7a2.3,2.3,0,0,0,1.22-.33,2.71,2.71,0,0,0,.87-.91,2.45,2.45,0,0,0,.34-1.28,2.51,2.51,0,0,0-.32-1.26,2.45,2.45,0,0,0-.88-.9,2.3,2.3,0,0,0-1.25-.34,2.52,2.52,0,0,0-1.24.32,2.35,2.35,0,0,0-.87.9,2.64,2.64,0,0,0-.32,1.28,2.48,2.48,0,0,0,.33,1.27,2.42,2.42,0,0,0,2.12,1.25Zm4.35,3.73a2.31,2.31,0,0,1-1.26-.27,1.3,1.3,0,0,1-.54-.85V18.67a6.77,6.77,0,0,1,.06-.92,1.09,1.09,0,0,1,.44-.71,2.28,2.28,0,0,1,1.28-.27,2.47,2.47,0,0,1,1.32.26,1.19,1.19,0,0,1,.48.69,4.4,4.4,0,0,1,.1.92V33a4.63,4.63,0,0,1-.09.92,1.15,1.15,0,0,1-.48.71A2.35,2.35,0,0,1,301.83,34.94Z"/><path class="cls-2" d="M312.23,35.15a6.3,6.3,0,0,1-2.34-.47,6.84,6.84,0,0,1-2.11-1.31,6.53,6.53,0,0,1-1.51-2,6.14,6.14,0,0,1-.56-2.63,6.2,6.2,0,0,1,.51-2.52,6.78,6.78,0,0,1,1.42-2.06,6.63,6.63,0,0,1,2.06-1.41,6.13,6.13,0,0,1,2.49-.51,6.33,6.33,0,0,1,3.26.86,6.72,6.72,0,0,1,2.34,2.34,6.71,6.71,0,0,1,.31,6,6.59,6.59,0,0,1-3.58,3.32A6.38,6.38,0,0,1,312.23,35.15Zm-.05-3.78a2.85,2.85,0,0,0,1.23-.3,2.79,2.79,0,0,0,1-.89,2.61,2.61,0,0,0,.42-1.53,2.77,2.77,0,0,0-.34-1.4,2.58,2.58,0,0,0-1-.94,2.94,2.94,0,0,0-1.41-.34,2.63,2.63,0,0,0-1.34.35,2.76,2.76,0,0,0-.95,1,2.91,2.91,0,0,0,.05,2.89,2.59,2.59,0,0,0,1,.91A2.89,2.89,0,0,0,312.18,31.37Z"/><path class="cls-3" d="M139.16,32.2a2.77,2.77,0,0,1,.32,1.06,1,1,0,0,1-.26.77,2.88,2.88,0,0,1-.94.67,2,2,0,0,1-1.55.29,2.14,2.14,0,0,1-1-1.2l-4.9-10.25-4.88,10.25a2.23,2.23,0,0,1-1,1.16,2.18,2.18,0,0,1-1.54-.29,2.74,2.74,0,0,1-1-.64,1,1,0,0,1-.26-.8,2.82,2.82,0,0,1,.36-1.09l6.58-13.67a2,2,0,0,1,.74-.8,1.9,1.9,0,0,1,1-.29,1.78,1.78,0,0,1,.7.13,2,2,0,0,1,.59.39,2.22,2.22,0,0,1,.44.6Zm-12.55-1.44,1.55-3.22h5.33L135,30.77Zm2.48-14.1a.8.8,0,0,1-.73-.25,2.49,2.49,0,0,1-.51-1,2,2,0,0,1-.1-1.3,1.38,1.38,0,0,1,.92-.67l4.4-1.35a.88.88,0,0,1,.73.29,2.53,2.53,0,0,1,.5,1,1.85,1.85,0,0,1,.08,1.27,1.32,1.32,0,0,1-.91.68Z"/><path class="cls-3" d="M143.08,34.82a2.5,2.5,0,0,1-1.31-.26,1.08,1.08,0,0,1-.47-.7,4.53,4.53,0,0,1-.09-.91v-8.8a4.15,4.15,0,0,1,.08-.89,1,1,0,0,1,.49-.66,2.6,2.6,0,0,1,1.33-.25,2.49,2.49,0,0,1,1.17.21,1,1,0,0,1,.49.51,1.74,1.74,0,0,1,.11.57,1,1,0,0,0,.05.36l-.15.47a1.43,1.43,0,0,1,.39-.76A3.53,3.53,0,0,1,146,23a4.73,4.73,0,0,1,1.1-.49,4.29,4.29,0,0,1,1.16-.17,5.05,5.05,0,0,1,2.14.44A4.41,4.41,0,0,1,152,24.05,5.81,5.81,0,0,1,153,26a8.18,8.18,0,0,1,.34,2.44V33a4.53,4.53,0,0,1-.08.91,1.06,1.06,0,0,1-.48.69,2.68,2.68,0,0,1-1.34.25,2.46,2.46,0,0,1-1.32-.27,1,1,0,0,1-.49-.7,4.46,4.46,0,0,1-.09-.91V28.43a2.92,2.92,0,0,0-.26-1.28,1.93,1.93,0,0,0-.75-.8,2.91,2.91,0,0,0-2.47,0,2,2,0,0,0-.81.81,2.59,2.59,0,0,0-.29,1.25V33a4.63,4.63,0,0,1-.09.92,1,1,0,0,1-.47.68A2.53,2.53,0,0,1,143.08,34.82Z"/><path class="cls-3" d="M161,34.53A4.82,4.82,0,0,1,158.8,34,5.81,5.81,0,0,1,157,32.71a6.47,6.47,0,0,1-1.22-2,6,6,0,0,1-.45-2.32,6,6,0,0,1,.45-2.31A6.2,6.2,0,0,1,157,24.19a5.82,5.82,0,0,1,1.8-1.32,4.73,4.73,0,0,1,2.11-.49,3.84,3.84,0,0,1,1.9.44,3.33,3.33,0,0,1,1.25,1.25A6.56,6.56,0,0,1,164.8,26a11.82,11.82,0,0,1,.24,2.49,11,11,0,0,1-.42,3.21,4.2,4.2,0,0,1-1.3,2.1A3.58,3.58,0,0,1,161,34.53ZM161.4,40a7,7,0,0,1-1.76-.23,7.61,7.61,0,0,1-1.58-.6,4.52,4.52,0,0,1-1.15-.8,1.21,1.21,0,0,1-.43-.85,1.81,1.81,0,0,1,.15-.74,2.58,2.58,0,0,1,.45-.66,7,7,0,0,1,.6-.57.91.91,0,0,1,.6-.2,1.13,1.13,0,0,1,.63.18l.58.42a4.13,4.13,0,0,0,.79.41,3.21,3.21,0,0,0,1.2.19,2.29,2.29,0,0,0,.94-.19,2,2,0,0,0,.75-.55,2.65,2.65,0,0,0,.5-.85,2.86,2.86,0,0,0,.19-1.09V23.54a1.18,1.18,0,0,1,.51-.94,2.49,2.49,0,0,1,1.34-.29,2.31,2.31,0,0,1,1.25.26,1.11,1.11,0,0,1,.46.69,4.37,4.37,0,0,1,.08.9V34a5.84,5.84,0,0,1-.53,2.53,5.75,5.75,0,0,1-1.4,1.88,6.23,6.23,0,0,1-2,1.16A6.51,6.51,0,0,1,161.4,40Zm0-9.1a2.13,2.13,0,0,0,1.2-.34,2.37,2.37,0,0,0,.83-.89,2.45,2.45,0,0,0,.32-1.25,2.6,2.6,0,0,0-.31-1.25,2.53,2.53,0,0,0-.85-.87,2.3,2.3,0,0,0-1.22-.33,2.21,2.21,0,0,0-1.2.34,2.48,2.48,0,0,0-.84.89,2.54,2.54,0,0,0-.31,1.25,2.3,2.3,0,0,0,.33,1.22,2.53,2.53,0,0,0,.86.89A2.23,2.23,0,0,0,161.39,30.91Z"/><path class="cls-3" d="M175.46,34.84a5.25,5.25,0,0,1-2.18-.45,5.43,5.43,0,0,1-1.75-1.26,5.85,5.85,0,0,1-1.16-1.93,7.06,7.06,0,0,1-.41-2.44V24.24a4.52,4.52,0,0,1,.09-.93,1.13,1.13,0,0,1,.49-.7,2.46,2.46,0,0,1,1.32-.27,2.31,2.31,0,0,1,1.32.28,1.1,1.1,0,0,1,.47.71,4.62,4.62,0,0,1,.09.94v4.5A2.78,2.78,0,0,0,174,30a1.73,1.73,0,0,0,.77.81,2.46,2.46,0,0,0,1.21.28,2.5,2.5,0,0,0,1.24-.29A2,2,0,0,0,178,30a2.59,2.59,0,0,0,.29-1.25V24.22a4.52,4.52,0,0,1,.09-.93,1,1,0,0,1,.49-.68,3.31,3.31,0,0,1,2.64,0,1.1,1.1,0,0,1,.47.71,4.56,4.56,0,0,1,.09.92V33a4.91,4.91,0,0,1-.08.89,1.06,1.06,0,0,1-.49.67,2.54,2.54,0,0,1-1.3.24,2.92,2.92,0,0,1-1.05-.15,1.23,1.23,0,0,1-.55-.37.94.94,0,0,1-.21-.48,2.42,2.42,0,0,1,0-.45l.32-.27a3.74,3.74,0,0,1-.32.39,7.18,7.18,0,0,1-.66.57,4.28,4.28,0,0,1-1,.54A3.31,3.31,0,0,1,175.46,34.84Z"/><path class="cls-3" d="M189.38,34.87a14.14,14.14,0,0,1-1.82-.1,3.58,3.58,0,0,1-1.35-.4,2.47,2.47,0,0,1-.9-.83,4,4,0,0,1-.53-1.38,10.88,10.88,0,0,1-.17-2.06V18.55a3.9,3.9,0,0,1,.1-.93,1.17,1.17,0,0,1,.49-.7,3.26,3.26,0,0,1,2.6,0,1.19,1.19,0,0,1,.48.7,4,4,0,0,1,.1.93V29.92a6.19,6.19,0,0,0,0,.67,1,1,0,0,0,.15.41.54.54,0,0,0,.32.2,2.34,2.34,0,0,0,.52.05,2.62,2.62,0,0,1,.61.08.86.86,0,0,1,.54.45,2.55,2.55,0,0,1,.22,1.25,2.81,2.81,0,0,1-.22,1.3.89.89,0,0,1-.54.47A2.73,2.73,0,0,1,189.38,34.87Z"/><path class="cls-3" d="M198.61,35.08a6.25,6.25,0,0,1-2.34-.46,7.06,7.06,0,0,1-2.11-1.32,6.16,6.16,0,0,1-2.07-4.67,6.24,6.24,0,0,1,.51-2.52A6.75,6.75,0,0,1,194,24.05a6.67,6.67,0,0,1,2.07-1.41,6.08,6.08,0,0,1,2.48-.51,6.3,6.3,0,0,1,3.27.87,6.5,6.5,0,0,1,2.33,2.33,6.27,6.27,0,0,1,.88,3.28,6.17,6.17,0,0,1-.57,2.71,6.35,6.35,0,0,1-1.5,2,6.68,6.68,0,0,1-2.07,1.28A6.21,6.21,0,0,1,198.61,35.08Zm-.05-3.77a2.85,2.85,0,0,0,1.23-.3,2.81,2.81,0,0,0,1.05-.9,2.61,2.61,0,0,0,.42-1.53,2.67,2.67,0,0,0-.35-1.4,2.48,2.48,0,0,0-1-.94,2.94,2.94,0,0,0-1.41-.33,2.59,2.59,0,0,0-1.34.34,2.76,2.76,0,0,0-.95,1,2.93,2.93,0,0,0,.05,2.9,2.47,2.47,0,0,0,1,.9A3.15,3.15,0,0,0,198.56,31.31Z"/><path class="cls-3" d="M215.59,20.59a2.43,2.43,0,0,1-1.35-.28,1.13,1.13,0,0,1-.49-.72,5.8,5.8,0,0,1-.08-.95,4.75,4.75,0,0,1,.09-1,1,1,0,0,1,.5-.7,2.47,2.47,0,0,1,1.36-.26,2.43,2.43,0,0,1,1.32.27,1.14,1.14,0,0,1,.49.73,4.92,4.92,0,0,1,.09,1,4.73,4.73,0,0,1-.09.93,1.07,1.07,0,0,1-.49.71A2.65,2.65,0,0,1,215.59,20.59Zm0,14.3a2.54,2.54,0,0,1-1.32-.26,1,1,0,0,1-.48-.7,5.45,5.45,0,0,1-.07-.92V24.29a4.46,4.46,0,0,1,.09-.91,1.06,1.06,0,0,1,.49-.7,2.47,2.47,0,0,1,1.32-.26,2.31,2.31,0,0,1,1.29.27,1.12,1.12,0,0,1,.48.71,4.77,4.77,0,0,1,.08.94V33a4.63,4.63,0,0,1-.09.92,1.06,1.06,0,0,1-.47.68A2.53,2.53,0,0,1,215.58,34.89Z"/><path class="cls-3" d="M222,34.87a2.52,2.52,0,0,1-1.32-.26,1.12,1.12,0,0,1-.47-.7,4.56,4.56,0,0,1-.09-.92v-8.8a4.1,4.1,0,0,1,.09-.88,1,1,0,0,1,.49-.67,2.64,2.64,0,0,1,1.32-.25,2.52,2.52,0,0,1,1.18.22,1,1,0,0,1,.48.51,1.5,1.5,0,0,1,.11.56,1,1,0,0,0,.05.37l-.15.47a1.58,1.58,0,0,1,.39-.76,3.74,3.74,0,0,1,.85-.7,4.73,4.73,0,0,1,1.1-.49,4.3,4.3,0,0,1,1.17-.17,4.86,4.86,0,0,1,2.13.44,4.24,4.24,0,0,1,1.59,1.26,6,6,0,0,1,1,1.94,8.52,8.52,0,0,1,.33,2.44V33a4.53,4.53,0,0,1-.09.91,1,1,0,0,1-.48.68,2.53,2.53,0,0,1-1.33.25,2.49,2.49,0,0,1-1.33-.26,1,1,0,0,1-.48-.7,4.53,4.53,0,0,1-.09-.91V28.47a2.87,2.87,0,0,0-.26-1.27,1.88,1.88,0,0,0-.75-.8,2.36,2.36,0,0,0-1.21-.28,2.57,2.57,0,0,0-1.25.29,2.06,2.06,0,0,0-.82.81,2.59,2.59,0,0,0-.28,1.25V33a5.31,5.31,0,0,1-.08.91,1.06,1.06,0,0,1-.48.69A2.52,2.52,0,0,1,222,34.87Z"/><path class="cls-3" d="M240.71,35a2.25,2.25,0,0,1-1-.23,1.45,1.45,0,0,1-.66-.7l-4.5-9a2,2,0,0,1-.26-1.49,2.09,2.09,0,0,1,1.14-1.06,2.4,2.4,0,0,1,1.51-.31c.38.09.71.49,1,1.19l2.8,6.5,2.8-6.42c.3-.72.64-1.14,1-1.25a2.22,2.22,0,0,1,1.56.32c.68.32,1.06.69,1.14,1.12a2.34,2.34,0,0,1-.32,1.46l-4.48,8.92a1.48,1.48,0,0,1-.65.7A2.26,2.26,0,0,1,240.71,35Z"/><path class="cls-3" d="M255.51,35.14a7.17,7.17,0,0,1-3-.58,5.93,5.93,0,0,1-2.06-1.51,6.61,6.61,0,0,1-1.2-2.09,6.82,6.82,0,0,1-.39-2.3,6.38,6.38,0,0,1,.85-3.32,6,6,0,0,1,2.36-2.29,7,7,0,0,1,3.46-.84,6.26,6.26,0,0,1,2.52.47,5.33,5.33,0,0,1,1.75,1.2,5.25,5.25,0,0,1,1,1.59,4.53,4.53,0,0,1,.34,1.62,2.82,2.82,0,0,1-.67,2.05,2.26,2.26,0,0,1-1.69.68h-5.95a1.78,1.78,0,0,0,.47,1.08,2.81,2.81,0,0,0,1,.7,3.5,3.5,0,0,0,1.33.25,8.22,8.22,0,0,0,1-.06,3.6,3.6,0,0,0,.78-.18c.22-.07.42-.15.59-.22s.34-.14.49-.19a2.53,2.53,0,0,1,.42-.1,1.09,1.09,0,0,1,.68.21,1.94,1.94,0,0,1,.57.72,1.71,1.71,0,0,1,.24.52,2.2,2.2,0,0,1,.06.5,1.34,1.34,0,0,1-.61,1.09,4.83,4.83,0,0,1-1.73.74A11.47,11.47,0,0,1,255.51,35.14Zm-2.67-7.4h4a.92.92,0,0,0,.57-.14.61.61,0,0,0,.2-.53,1.23,1.23,0,0,0-.27-.78,1.87,1.87,0,0,0-.74-.54,3.2,3.2,0,0,0-2.44.11,2.47,2.47,0,0,0-.94.8A2,2,0,0,0,252.84,27.74Z"/><path class="cls-3" d="M265.11,34.92a2.52,2.52,0,0,1-1.32-.26,1.14,1.14,0,0,1-.47-.72,4.63,4.63,0,0,1-.09-.92V24.29a4.42,4.42,0,0,1,.09-.92,1.07,1.07,0,0,1,.48-.69,2.59,2.59,0,0,1,1.33-.26,2.5,2.5,0,0,1,1.26.24,1.06,1.06,0,0,1,.49.55,2.08,2.08,0,0,1,.1.54l-.3.15a2.39,2.39,0,0,1,.26-.37,4.06,4.06,0,0,1,.59-.55,3.39,3.39,0,0,1,.91-.48,3.62,3.62,0,0,1,1.24-.2,4.55,4.55,0,0,1,.61,0,3,3,0,0,1,.7.15,2.47,2.47,0,0,1,.66.3,1.55,1.55,0,0,1,.49.46,1.13,1.13,0,0,1,.19.67,3,3,0,0,1-.48,1.74,1.38,1.38,0,0,1-1.2.71,2.11,2.11,0,0,1-.6-.06,1,1,0,0,1-.29-.15.93.93,0,0,0-.26-.15A1.68,1.68,0,0,0,269,26a2.39,2.39,0,0,0-.71.1,2,2,0,0,0-.63.31,1.6,1.6,0,0,0-.45.52,1.53,1.53,0,0,0-.16.72v5.47a4.46,4.46,0,0,1-.09.91,1,1,0,0,1-.49.69A2.58,2.58,0,0,1,265.11,34.92Z"/><path class="cls-3" d="M275.09,22.63h2.75l3.45-.1a4.36,4.36,0,0,1,.9.09,1.1,1.1,0,0,1,.7.49,2.41,2.41,0,0,1,.27,1.32,2.38,2.38,0,0,1-.26,1.25,1.15,1.15,0,0,1-.69.51,3,3,0,0,1-.92.11L278,26.23l-3,0a1.28,1.28,0,0,1-1-.46,2.56,2.56,0,0,1-.28-1.39,2.17,2.17,0,0,1,.35-1.34A1.26,1.26,0,0,1,275.09,22.63Zm5.64,12.3a7.54,7.54,0,0,1-2.2-.28A3.43,3.43,0,0,1,277,33.8a3.5,3.5,0,0,1-.87-1.46,6.64,6.64,0,0,1-.29-2.11V20.1a4.92,4.92,0,0,1,.08-.92,1.07,1.07,0,0,1,.49-.67,2.51,2.51,0,0,1,1.3-.26,2.39,2.39,0,0,1,1.3.28,1.1,1.1,0,0,1,.49.71,4.53,4.53,0,0,1,.09.91v9.93a3,3,0,0,0,.06.66.71.71,0,0,0,.19.39.68.68,0,0,0,.35.17,2.71,2.71,0,0,0,.55.06,4.07,4.07,0,0,1,1,.1,1,1,0,0,1,.67.45,2.24,2.24,0,0,1,.23,1.17,2.38,2.38,0,0,1-.27,1.3,1.07,1.07,0,0,1-.72.48A5.33,5.33,0,0,1,280.73,34.93Z"/><path class="cls-3" d="M287.09,20.63a2.53,2.53,0,0,1-1.35-.27,1.14,1.14,0,0,1-.49-.73,4.81,4.81,0,0,1-.08-.95,5.64,5.64,0,0,1,.08-1,1.09,1.09,0,0,1,.5-.7,2.73,2.73,0,0,1,1.37-.26,2.33,2.33,0,0,1,1.32.28,1.09,1.09,0,0,1,.49.72,4.92,4.92,0,0,1,.09,1,4.73,4.73,0,0,1-.09.93,1.05,1.05,0,0,1-.49.71A2.54,2.54,0,0,1,287.09,20.63Zm0,14.3a2.42,2.42,0,0,1-1.32-.26,1,1,0,0,1-.48-.7,5.41,5.41,0,0,1-.07-.91V24.33a4.53,4.53,0,0,1,.09-.91,1.06,1.06,0,0,1,.49-.7,2.47,2.47,0,0,1,1.32-.26,2.34,2.34,0,0,1,1.29.27,1.17,1.17,0,0,1,.48.72,5.46,5.46,0,0,1,.08.93v8.7a4.56,4.56,0,0,1-.09.92,1,1,0,0,1-.48.68A2.47,2.47,0,0,1,287.08,34.93Z"/><path class="cls-3" d="M297,34.91a5,5,0,0,1-2.17-.48A5.79,5.79,0,0,1,293,33.06a6.7,6.7,0,0,1-1.26-2,6.3,6.3,0,0,1-.46-2.41,6,6,0,0,1,.46-2.34,6.67,6.67,0,0,1,1.28-2A6.42,6.42,0,0,1,294.84,23a4.88,4.88,0,0,1,2.15-.5,4.47,4.47,0,0,1,2.11.49,4.58,4.58,0,0,1,1.53,1.34,6.7,6.7,0,0,1,.93,2,9.08,9.08,0,0,1,.35,2.35,9.28,9.28,0,0,1-.3,2.4,6.12,6.12,0,0,1-.93,2,4.66,4.66,0,0,1-1.55,1.38A4.28,4.28,0,0,1,297,34.91Zm.5-3.7a2.3,2.3,0,0,0,1.22-.33,2.71,2.71,0,0,0,.87-.91,2.45,2.45,0,0,0,.34-1.28,2.51,2.51,0,0,0-.32-1.26,2.45,2.45,0,0,0-.88-.9,2.3,2.3,0,0,0-1.25-.34,2.52,2.52,0,0,0-1.24.32,2.35,2.35,0,0,0-.87.9,2.64,2.64,0,0,0-.32,1.28,2.48,2.48,0,0,0,.33,1.27,2.42,2.42,0,0,0,2.12,1.25Zm4.35,3.73a2.31,2.31,0,0,1-1.26-.27,1.3,1.3,0,0,1-.54-.85V18.67a6.77,6.77,0,0,1,.06-.92,1.09,1.09,0,0,1,.44-.71,2.28,2.28,0,0,1,1.28-.27,2.47,2.47,0,0,1,1.32.26,1.19,1.19,0,0,1,.48.69,4.4,4.4,0,0,1,.1.92V33a4.63,4.63,0,0,1-.09.92,1.15,1.15,0,0,1-.48.71A2.35,2.35,0,0,1,301.83,34.94Z"/><path class="cls-3" d="M312.23,35.15a6.3,6.3,0,0,1-2.34-.47,6.84,6.84,0,0,1-2.11-1.31,6.53,6.53,0,0,1-1.51-2,6.14,6.14,0,0,1-.56-2.63,6.2,6.2,0,0,1,.51-2.52,6.78,6.78,0,0,1,1.42-2.06,6.63,6.63,0,0,1,2.06-1.41,6.13,6.13,0,0,1,2.49-.51,6.33,6.33,0,0,1,3.26.86,6.72,6.72,0,0,1,2.34,2.34,6.71,6.71,0,0,1,.31,6,6.59,6.59,0,0,1-3.58,3.32A6.38,6.38,0,0,1,312.23,35.15Zm-.05-3.78a2.85,2.85,0,0,0,1.23-.3,2.79,2.79,0,0,0,1-.89,2.61,2.61,0,0,0,.42-1.53,2.77,2.77,0,0,0-.34-1.4,2.58,2.58,0,0,0-1-.94,2.94,2.94,0,0,0-1.41-.34,2.63,2.63,0,0,0-1.34.35,2.76,2.76,0,0,0-.95,1,2.91,2.91,0,0,0,.05,2.89,2.59,2.59,0,0,0,1,.91A2.89,2.89,0,0,0,312.18,31.37Z"/><path class="cls-2" d="M139.16,32.2a2.77,2.77,0,0,1,.32,1.06,1,1,0,0,1-.26.77,2.88,2.88,0,0,1-.94.67,2,2,0,0,1-1.55.29,2.14,2.14,0,0,1-1-1.2l-4.9-10.25-4.88,10.25a2.23,2.23,0,0,1-1,1.16,2.18,2.18,0,0,1-1.54-.29,2.74,2.74,0,0,1-1-.64,1,1,0,0,1-.26-.8,2.82,2.82,0,0,1,.36-1.09l6.58-13.67a2,2,0,0,1,.74-.8,1.9,1.9,0,0,1,1-.29,1.78,1.78,0,0,1,.7.13,2,2,0,0,1,.59.39,2.22,2.22,0,0,1,.44.6Zm-12.55-1.44,1.55-3.22h5.33L135,30.77Zm2.48-14.1a.8.8,0,0,1-.73-.25,2.49,2.49,0,0,1-.51-1,2,2,0,0,1-.1-1.3,1.38,1.38,0,0,1,.92-.67l4.4-1.35a.88.88,0,0,1,.73.29,2.53,2.53,0,0,1,.5,1,1.85,1.85,0,0,1,.08,1.27,1.32,1.32,0,0,1-.91.68Z"/><path class="cls-2" d="M143.08,34.82a2.5,2.5,0,0,1-1.31-.26,1.08,1.08,0,0,1-.47-.7,4.53,4.53,0,0,1-.09-.91v-8.8a4.15,4.15,0,0,1,.08-.89,1,1,0,0,1,.49-.66,2.6,2.6,0,0,1,1.33-.25,2.49,2.49,0,0,1,1.17.21,1,1,0,0,1,.49.51,1.74,1.74,0,0,1,.11.57,1,1,0,0,0,.05.36l-.15.47a1.43,1.43,0,0,1,.39-.76A3.53,3.53,0,0,1,146,23a4.73,4.73,0,0,1,1.1-.49,4.29,4.29,0,0,1,1.16-.17,5.05,5.05,0,0,1,2.14.44A4.41,4.41,0,0,1,152,24.05,5.81,5.81,0,0,1,153,26a8.18,8.18,0,0,1,.34,2.44V33a4.53,4.53,0,0,1-.08.91,1.06,1.06,0,0,1-.48.69,2.68,2.68,0,0,1-1.34.25,2.46,2.46,0,0,1-1.32-.27,1,1,0,0,1-.49-.7,4.46,4.46,0,0,1-.09-.91V28.43a2.92,2.92,0,0,0-.26-1.28,1.93,1.93,0,0,0-.75-.8,2.91,2.91,0,0,0-2.47,0,2,2,0,0,0-.81.81,2.59,2.59,0,0,0-.29,1.25V33a4.63,4.63,0,0,1-.09.92,1,1,0,0,1-.47.68A2.53,2.53,0,0,1,143.08,34.82Z"/><path class="cls-2" d="M161,34.53A4.82,4.82,0,0,1,158.8,34,5.81,5.81,0,0,1,157,32.71a6.47,6.47,0,0,1-1.22-2,6,6,0,0,1-.45-2.32,6,6,0,0,1,.45-2.31A6.2,6.2,0,0,1,157,24.19a5.82,5.82,0,0,1,1.8-1.32,4.73,4.73,0,0,1,2.11-.49,3.84,3.84,0,0,1,1.9.44,3.33,3.33,0,0,1,1.25,1.25A6.56,6.56,0,0,1,164.8,26a11.82,11.82,0,0,1,.24,2.49,11,11,0,0,1-.42,3.21,4.2,4.2,0,0,1-1.3,2.1A3.58,3.58,0,0,1,161,34.53ZM161.4,40a7,7,0,0,1-1.76-.23,7.61,7.61,0,0,1-1.58-.6,4.52,4.52,0,0,1-1.15-.8,1.21,1.21,0,0,1-.43-.85,1.81,1.81,0,0,1,.15-.74,2.58,2.58,0,0,1,.45-.66,7,7,0,0,1,.6-.57.91.91,0,0,1,.6-.2,1.13,1.13,0,0,1,.63.18l.58.42a4.13,4.13,0,0,0,.79.41,3.21,3.21,0,0,0,1.2.19,2.29,2.29,0,0,0,.94-.19,2,2,0,0,0,.75-.55,2.65,2.65,0,0,0,.5-.85,2.86,2.86,0,0,0,.19-1.09V23.54a1.18,1.18,0,0,1,.51-.94,2.49,2.49,0,0,1,1.34-.29,2.31,2.31,0,0,1,1.25.26,1.11,1.11,0,0,1,.46.69,4.37,4.37,0,0,1,.08.9V34a5.84,5.84,0,0,1-.53,2.53,5.75,5.75,0,0,1-1.4,1.88,6.23,6.23,0,0,1-2,1.16A6.51,6.51,0,0,1,161.4,40Zm0-9.1a2.13,2.13,0,0,0,1.2-.34,2.37,2.37,0,0,0,.83-.89,2.45,2.45,0,0,0,.32-1.25,2.6,2.6,0,0,0-.31-1.25,2.53,2.53,0,0,0-.85-.87,2.3,2.3,0,0,0-1.22-.33,2.21,2.21,0,0,0-1.2.34,2.48,2.48,0,0,0-.84.89,2.54,2.54,0,0,0-.31,1.25,2.3,2.3,0,0,0,.33,1.22,2.53,2.53,0,0,0,.86.89A2.23,2.23,0,0,0,161.39,30.91Z"/><path class="cls-2" d="M175.46,34.84a5.25,5.25,0,0,1-2.18-.45,5.43,5.43,0,0,1-1.75-1.26,5.85,5.85,0,0,1-1.16-1.93,7.06,7.06,0,0,1-.41-2.44V24.24a4.52,4.52,0,0,1,.09-.93,1.13,1.13,0,0,1,.49-.7,2.46,2.46,0,0,1,1.32-.27,2.31,2.31,0,0,1,1.32.28,1.1,1.1,0,0,1,.47.71,4.62,4.62,0,0,1,.09.94v4.5A2.78,2.78,0,0,0,174,30a1.73,1.73,0,0,0,.77.81,2.46,2.46,0,0,0,1.21.28,2.5,2.5,0,0,0,1.24-.29A2,2,0,0,0,178,30a2.59,2.59,0,0,0,.29-1.25V24.22a4.52,4.52,0,0,1,.09-.93,1,1,0,0,1,.49-.68,3.31,3.31,0,0,1,2.64,0,1.1,1.1,0,0,1,.47.71,4.56,4.56,0,0,1,.09.92V33a4.91,4.91,0,0,1-.08.89,1.06,1.06,0,0,1-.49.67,2.54,2.54,0,0,1-1.3.24,2.92,2.92,0,0,1-1.05-.15,1.23,1.23,0,0,1-.55-.37.94.94,0,0,1-.21-.48,2.42,2.42,0,0,1,0-.45l.32-.27a3.74,3.74,0,0,1-.32.39,7.18,7.18,0,0,1-.66.57,4.28,4.28,0,0,1-1,.54A3.31,3.31,0,0,1,175.46,34.84Z"/><path class="cls-2" d="M189.38,34.87a14.14,14.14,0,0,1-1.82-.1,3.58,3.58,0,0,1-1.35-.4,2.47,2.47,0,0,1-.9-.83,4,4,0,0,1-.53-1.38,10.88,10.88,0,0,1-.17-2.06V18.55a3.9,3.9,0,0,1,.1-.93,1.17,1.17,0,0,1,.49-.7,3.26,3.26,0,0,1,2.6,0,1.19,1.19,0,0,1,.48.7,4,4,0,0,1,.1.93V29.92a6.19,6.19,0,0,0,0,.67,1,1,0,0,0,.15.41.54.54,0,0,0,.32.2,2.34,2.34,0,0,0,.52.05,2.62,2.62,0,0,1,.61.08.86.86,0,0,1,.54.45,2.55,2.55,0,0,1,.22,1.25,2.81,2.81,0,0,1-.22,1.3.89.89,0,0,1-.54.47A2.73,2.73,0,0,1,189.38,34.87Z"/><path class="cls-2" d="M198.61,35.08a6.25,6.25,0,0,1-2.34-.46,7.06,7.06,0,0,1-2.11-1.32,6.16,6.16,0,0,1-2.07-4.67,6.24,6.24,0,0,1,.51-2.52A6.75,6.75,0,0,1,194,24.05a6.67,6.67,0,0,1,2.07-1.41,6.08,6.08,0,0,1,2.48-.51,6.3,6.3,0,0,1,3.27.87,6.5,6.5,0,0,1,2.33,2.33,6.27,6.27,0,0,1,.88,3.28,6.17,6.17,0,0,1-.57,2.71,6.35,6.35,0,0,1-1.5,2,6.68,6.68,0,0,1-2.07,1.28A6.21,6.21,0,0,1,198.61,35.08Zm-.05-3.77a2.85,2.85,0,0,0,1.23-.3,2.81,2.81,0,0,0,1.05-.9,2.61,2.61,0,0,0,.42-1.53,2.67,2.67,0,0,0-.35-1.4,2.48,2.48,0,0,0-1-.94,2.94,2.94,0,0,0-1.41-.33,2.59,2.59,0,0,0-1.34.34,2.76,2.76,0,0,0-.95,1,2.93,2.93,0,0,0,.05,2.9,2.47,2.47,0,0,0,1,.9A3.15,3.15,0,0,0,198.56,31.31Z"/><path class="cls-2" d="M215.59,20.59a2.43,2.43,0,0,1-1.35-.28,1.13,1.13,0,0,1-.49-.72,5.8,5.8,0,0,1-.08-.95,4.75,4.75,0,0,1,.09-1,1,1,0,0,1,.5-.7,2.47,2.47,0,0,1,1.36-.26,2.43,2.43,0,0,1,1.32.27,1.14,1.14,0,0,1,.49.73,4.92,4.92,0,0,1,.09,1,4.73,4.73,0,0,1-.09.93,1.07,1.07,0,0,1-.49.71A2.65,2.65,0,0,1,215.59,20.59Zm0,14.3a2.54,2.54,0,0,1-1.32-.26,1,1,0,0,1-.48-.7,5.45,5.45,0,0,1-.07-.92V24.29a4.46,4.46,0,0,1,.09-.91,1.06,1.06,0,0,1,.49-.7,2.47,2.47,0,0,1,1.32-.26,2.31,2.31,0,0,1,1.29.27,1.12,1.12,0,0,1,.48.71,4.77,4.77,0,0,1,.08.94V33a4.63,4.63,0,0,1-.09.92,1.06,1.06,0,0,1-.47.68A2.53,2.53,0,0,1,215.58,34.89Z"/><path class="cls-2" d="M222,34.87a2.52,2.52,0,0,1-1.32-.26,1.12,1.12,0,0,1-.47-.7,4.56,4.56,0,0,1-.09-.92v-8.8a4.1,4.1,0,0,1,.09-.88,1,1,0,0,1,.49-.67,2.64,2.64,0,0,1,1.32-.25,2.52,2.52,0,0,1,1.18.22,1,1,0,0,1,.48.51,1.5,1.5,0,0,1,.11.56,1,1,0,0,0,.05.37l-.15.47a1.58,1.58,0,0,1,.39-.76,3.74,3.74,0,0,1,.85-.7,4.73,4.73,0,0,1,1.1-.49,4.3,4.3,0,0,1,1.17-.17,4.86,4.86,0,0,1,2.13.44,4.24,4.24,0,0,1,1.59,1.26,6,6,0,0,1,1,1.94,8.52,8.52,0,0,1,.33,2.44V33a4.53,4.53,0,0,1-.09.91,1,1,0,0,1-.48.68,2.53,2.53,0,0,1-1.33.25,2.49,2.49,0,0,1-1.33-.26,1,1,0,0,1-.48-.7,4.53,4.53,0,0,1-.09-.91V28.47a2.87,2.87,0,0,0-.26-1.27,1.88,1.88,0,0,0-.75-.8,2.36,2.36,0,0,0-1.21-.28,2.57,2.57,0,0,0-1.25.29,2.06,2.06,0,0,0-.82.81,2.59,2.59,0,0,0-.28,1.25V33a5.31,5.31,0,0,1-.08.91,1.06,1.06,0,0,1-.48.69A2.52,2.52,0,0,1,222,34.87Z"/><path class="cls-2" d="M240.71,35a2.25,2.25,0,0,1-1-.23,1.45,1.45,0,0,1-.66-.7l-4.5-9a2,2,0,0,1-.26-1.49,2.09,2.09,0,0,1,1.14-1.06,2.4,2.4,0,0,1,1.51-.31c.38.09.71.49,1,1.19l2.8,6.5,2.8-6.42c.3-.72.64-1.14,1-1.25a2.22,2.22,0,0,1,1.56.32c.68.32,1.06.69,1.14,1.12a2.34,2.34,0,0,1-.32,1.46l-4.48,8.92a1.48,1.48,0,0,1-.65.7A2.26,2.26,0,0,1,240.71,35Z"/><path class="cls-2" d="M255.51,35.14a7.17,7.17,0,0,1-3-.58,5.93,5.93,0,0,1-2.06-1.51,6.61,6.61,0,0,1-1.2-2.09,6.82,6.82,0,0,1-.39-2.3,6.38,6.38,0,0,1,.85-3.32,6,6,0,0,1,2.36-2.29,7,7,0,0,1,3.46-.84,6.26,6.26,0,0,1,2.52.47,5.33,5.33,0,0,1,1.75,1.2,5.25,5.25,0,0,1,1,1.59,4.53,4.53,0,0,1,.34,1.62,2.82,2.82,0,0,1-.67,2.05,2.26,2.26,0,0,1-1.69.68h-5.95a1.78,1.78,0,0,0,.47,1.08,2.81,2.81,0,0,0,1,.7,3.5,3.5,0,0,0,1.33.25,8.22,8.22,0,0,0,1-.06,3.6,3.6,0,0,0,.78-.18c.22-.07.42-.15.59-.22s.34-.14.49-.19a2.53,2.53,0,0,1,.42-.1,1.09,1.09,0,0,1,.68.21,1.94,1.94,0,0,1,.57.72,1.71,1.71,0,0,1,.24.52,2.2,2.2,0,0,1,.06.5,1.34,1.34,0,0,1-.61,1.09,4.83,4.83,0,0,1-1.73.74A11.47,11.47,0,0,1,255.51,35.14Zm-2.67-7.4h4a.92.92,0,0,0,.57-.14.61.61,0,0,0,.2-.53,1.23,1.23,0,0,0-.27-.78,1.87,1.87,0,0,0-.74-.54,3.2,3.2,0,0,0-2.44.11,2.47,2.47,0,0,0-.94.8A2,2,0,0,0,252.84,27.74Z"/><path class="cls-2" d="M265.11,34.92a2.52,2.52,0,0,1-1.32-.26,1.14,1.14,0,0,1-.47-.72,4.63,4.63,0,0,1-.09-.92V24.29a4.42,4.42,0,0,1,.09-.92,1.07,1.07,0,0,1,.48-.69,2.59,2.59,0,0,1,1.33-.26,2.5,2.5,0,0,1,1.26.24,1.06,1.06,0,0,1,.49.55,2.08,2.08,0,0,1,.1.54l-.3.15a2.39,2.39,0,0,1,.26-.37,4.06,4.06,0,0,1,.59-.55,3.39,3.39,0,0,1,.91-.48,3.62,3.62,0,0,1,1.24-.2,4.55,4.55,0,0,1,.61,0,3,3,0,0,1,.7.15,2.47,2.47,0,0,1,.66.3,1.55,1.55,0,0,1,.49.46,1.13,1.13,0,0,1,.19.67,3,3,0,0,1-.48,1.74,1.38,1.38,0,0,1-1.2.71,2.11,2.11,0,0,1-.6-.06,1,1,0,0,1-.29-.15.93.93,0,0,0-.26-.15A1.68,1.68,0,0,0,269,26a2.39,2.39,0,0,0-.71.1,2,2,0,0,0-.63.31,1.6,1.6,0,0,0-.45.52,1.53,1.53,0,0,0-.16.72v5.47a4.46,4.46,0,0,1-.09.91,1,1,0,0,1-.49.69A2.58,2.58,0,0,1,265.11,34.92Z"/><path class="cls-2" d="M275.09,22.63h2.75l3.45-.1a4.36,4.36,0,0,1,.9.09,1.1,1.1,0,0,1,.7.49,2.41,2.41,0,0,1,.27,1.32,2.38,2.38,0,0,1-.26,1.25,1.15,1.15,0,0,1-.69.51,3,3,0,0,1-.92.11L278,26.23l-3,0a1.28,1.28,0,0,1-1-.46,2.56,2.56,0,0,1-.28-1.39,2.17,2.17,0,0,1,.35-1.34A1.26,1.26,0,0,1,275.09,22.63Zm5.64,12.3a7.54,7.54,0,0,1-2.2-.28A3.43,3.43,0,0,1,277,33.8a3.5,3.5,0,0,1-.87-1.46,6.64,6.64,0,0,1-.29-2.11V20.1a4.92,4.92,0,0,1,.08-.92,1.07,1.07,0,0,1,.49-.67,2.51,2.51,0,0,1,1.3-.26,2.39,2.39,0,0,1,1.3.28,1.1,1.1,0,0,1,.49.71,4.53,4.53,0,0,1,.09.91v9.93a3,3,0,0,0,.06.66.71.71,0,0,0,.19.39.68.68,0,0,0,.35.17,2.71,2.71,0,0,0,.55.06,4.07,4.07,0,0,1,1,.1,1,1,0,0,1,.67.45,2.24,2.24,0,0,1,.23,1.17,2.38,2.38,0,0,1-.27,1.3,1.07,1.07,0,0,1-.72.48A5.33,5.33,0,0,1,280.73,34.93Z"/><path class="cls-2" d="M287.09,20.63a2.53,2.53,0,0,1-1.35-.27,1.14,1.14,0,0,1-.49-.73,4.81,4.81,0,0,1-.08-.95,5.64,5.64,0,0,1,.08-1,1.09,1.09,0,0,1,.5-.7,2.73,2.73,0,0,1,1.37-.26,2.33,2.33,0,0,1,1.32.28,1.09,1.09,0,0,1,.49.72,4.92,4.92,0,0,1,.09,1,4.73,4.73,0,0,1-.09.93,1.05,1.05,0,0,1-.49.71A2.54,2.54,0,0,1,287.09,20.63Zm0,14.3a2.42,2.42,0,0,1-1.32-.26,1,1,0,0,1-.48-.7,5.41,5.41,0,0,1-.07-.91V24.33a4.53,4.53,0,0,1,.09-.91,1.06,1.06,0,0,1,.49-.7,2.47,2.47,0,0,1,1.32-.26,2.34,2.34,0,0,1,1.29.27,1.17,1.17,0,0,1,.48.72,5.46,5.46,0,0,1,.08.93v8.7a4.56,4.56,0,0,1-.09.92,1,1,0,0,1-.48.68A2.47,2.47,0,0,1,287.08,34.93Z"/><path class="cls-2" d="M297,34.91a5,5,0,0,1-2.17-.48A5.79,5.79,0,0,1,293,33.06a6.7,6.7,0,0,1-1.26-2,6.3,6.3,0,0,1-.46-2.41,6,6,0,0,1,.46-2.34,6.67,6.67,0,0,1,1.28-2A6.42,6.42,0,0,1,294.84,23a4.88,4.88,0,0,1,2.15-.5,4.47,4.47,0,0,1,2.11.49,4.58,4.58,0,0,1,1.53,1.34,6.7,6.7,0,0,1,.93,2,9.08,9.08,0,0,1,.35,2.35,9.28,9.28,0,0,1-.3,2.4,6.12,6.12,0,0,1-.93,2,4.66,4.66,0,0,1-1.55,1.38A4.28,4.28,0,0,1,297,34.91Zm.5-3.7a2.3,2.3,0,0,0,1.22-.33,2.71,2.71,0,0,0,.87-.91,2.45,2.45,0,0,0,.34-1.28,2.51,2.51,0,0,0-.32-1.26,2.45,2.45,0,0,0-.88-.9,2.3,2.3,0,0,0-1.25-.34,2.52,2.52,0,0,0-1.24.32,2.35,2.35,0,0,0-.87.9,2.64,2.64,0,0,0-.32,1.28,2.48,2.48,0,0,0,.33,1.27,2.42,2.42,0,0,0,2.12,1.25Zm4.35,3.73a2.31,2.31,0,0,1-1.26-.27,1.3,1.3,0,0,1-.54-.85V18.67a6.77,6.77,0,0,1,.06-.92,1.09,1.09,0,0,1,.44-.71,2.28,2.28,0,0,1,1.28-.27,2.47,2.47,0,0,1,1.32.26,1.19,1.19,0,0,1,.48.69,4.4,4.4,0,0,1,.1.92V33a4.63,4.63,0,0,1-.09.92,1.15,1.15,0,0,1-.48.71A2.35,2.35,0,0,1,301.83,34.94Z"/><path class="cls-2" d="M312.23,35.15a6.3,6.3,0,0,1-2.34-.47,6.84,6.84,0,0,1-2.11-1.31,6.53,6.53,0,0,1-1.51-2,6.14,6.14,0,0,1-.56-2.63,6.2,6.2,0,0,1,.51-2.52,6.78,6.78,0,0,1,1.42-2.06,6.63,6.63,0,0,1,2.06-1.41,6.13,6.13,0,0,1,2.49-.51,6.33,6.33,0,0,1,3.26.86,6.72,6.72,0,0,1,2.34,2.34,6.71,6.71,0,0,1,.31,6,6.59,6.59,0,0,1-3.58,3.32A6.38,6.38,0,0,1,312.23,35.15Zm-.05-3.78a2.85,2.85,0,0,0,1.23-.3,2.79,2.79,0,0,0,1-.89,2.61,2.61,0,0,0,.42-1.53,2.77,2.77,0,0,0-.34-1.4,2.58,2.58,0,0,0-1-.94,2.94,2.94,0,0,0-1.41-.34,2.63,2.63,0,0,0-1.34.35,2.76,2.76,0,0,0-.95,1,2.91,2.91,0,0,0,.05,2.89,2.59,2.59,0,0,0,1,.91A2.89,2.89,0,0,0,312.18,31.37Z"/><path class="cls-4" d="M55.46,35.55c0,2.27-.4,3.89-1.18,4.85a4.36,4.36,0,0,1-3.59,1.45,5.73,5.73,0,0,1-2.57-.5,3.29,3.29,0,0,1-1.48-1.85,11.09,11.09,0,0,1-.55-3.61L46,20.22a6.3,6.3,0,0,1-3.21-.73A2.58,2.58,0,0,1,41.55,17a2.76,2.76,0,0,1,1.16-2.29,5.16,5.16,0,0,1,3.24-.9c.54,0,1.31,0,2.3,0l2.1,0c2,0,3.36.34,4,1a5,5,0,0,1,1,3.59Z"/><path class="cls-4" d="M59.21,39a2.78,2.78,0,0,1,1.16-2.31,5.4,5.4,0,0,1,3.28-.88c3,0,4.44,1.07,4.44,3.19a3.11,3.11,0,0,1-.57,2,2.73,2.73,0,0,1-1.51,1,9.17,9.17,0,0,1-2.36.26,6.13,6.13,0,0,1-3.18-.76A2.62,2.62,0,0,1,59.21,39Z"/><path class="cls-4" d="M83.82,34.08h4.52q3.42,0,3.42,4a4,4,0,0,1-1.08,3.17c-.72.63-2,.94-3.85.94h-11c-1.9,0-3.2-.25-3.89-.77s-1-1.63-1-3.34A5.64,5.64,0,0,1,71,36.58a3.53,3.53,0,0,1,.62-1.2,5.39,5.39,0,0,1,1.22-1.13c1.47-1,2.62-1.82,3.46-2.44s1.67-1.26,2.47-1.95a13.25,13.25,0,0,0,1.77-1.76,10.45,10.45,0,0,0,1-1.66,6.38,6.38,0,0,0,.61-1.85,15.39,15.39,0,0,0,.14-2.19c0-1.56-.47-2.35-1.42-2.35s-1.55.93-1.55,2.77a2,2,0,0,1-1,2,7,7,0,0,1-2.89.46c-1.74,0-2.92-.39-3.53-1.17a6.48,6.48,0,0,1-.91-3.91,5.48,5.48,0,0,1,2.51-4.56,11.74,11.74,0,0,1,7-1.82q11.08,0,11.07,8.69a14.11,14.11,0,0,1-.45,3.68A11.66,11.66,0,0,1,90.1,29a9.08,9.08,0,0,1-1.78,2.12,16,16,0,0,1-2.1,1.64A26.68,26.68,0,0,1,83.82,34.08Z"/><path class="cls-5" d="M55.46,35.55c0,2.27-.4,3.89-1.18,4.85a4.36,4.36,0,0,1-3.59,1.45,5.73,5.73,0,0,1-2.57-.5,3.29,3.29,0,0,1-1.48-1.85,11.09,11.09,0,0,1-.55-3.61L46,20.22a6.3,6.3,0,0,1-3.21-.73A2.58,2.58,0,0,1,41.55,17a2.76,2.76,0,0,1,1.16-2.29,5.16,5.16,0,0,1,3.24-.9c.54,0,1.31,0,2.3,0l2.1,0c2,0,3.36.34,4,1a5,5,0,0,1,1,3.59Z"/><path class="cls-5" d="M59.21,39a2.78,2.78,0,0,1,1.16-2.31,5.4,5.4,0,0,1,3.28-.88c3,0,4.44,1.07,4.44,3.19a3.11,3.11,0,0,1-.57,2,2.73,2.73,0,0,1-1.51,1,9.17,9.17,0,0,1-2.36.26,6.13,6.13,0,0,1-3.18-.76A2.62,2.62,0,0,1,59.21,39Z"/><path class="cls-5" d="M83.82,34.08h4.52q3.42,0,3.42,4a4,4,0,0,1-1.08,3.17c-.72.63-2,.94-3.85.94h-11c-1.9,0-3.2-.25-3.89-.77s-1-1.63-1-3.34A5.64,5.64,0,0,1,71,36.58a3.53,3.53,0,0,1,.62-1.2,5.39,5.39,0,0,1,1.22-1.13c1.47-1,2.62-1.82,3.46-2.44s1.67-1.26,2.47-1.95a13.25,13.25,0,0,0,1.77-1.76,10.45,10.45,0,0,0,1-1.66,6.38,6.38,0,0,0,.61-1.85,15.39,15.39,0,0,0,.14-2.19c0-1.56-.47-2.35-1.42-2.35s-1.55.93-1.55,2.77a2,2,0,0,1-1,2,7,7,0,0,1-2.89.46c-1.74,0-2.92-.39-3.53-1.17a6.48,6.48,0,0,1-.91-3.91,5.48,5.48,0,0,1,2.51-4.56,11.74,11.74,0,0,1,7-1.82q11.08,0,11.07,8.69a14.11,14.11,0,0,1-.45,3.68A11.66,11.66,0,0,1,90.1,29a9.08,9.08,0,0,1-1.78,2.12,16,16,0,0,1-2.1,1.64A26.68,26.68,0,0,1,83.82,34.08Z"/></g></g></svg>