<svg xmlns="http://www.w3.org/2000/svg" viewBox="0 0 399.98 102.47"><defs><style>.cls-1{fill:#23841a;}.cls-2{fill:#fff;}.cls-3,.cls-4{fill:none;stroke-width:5px;}.cls-3{stroke:#ff7300;stroke-linejoin:round;}.cls-4{stroke:#fff;}.cls-5{fill:#ff7300;}</style></defs><title>13t</title><g id="Layer_2" data-name="Layer 2"><g id="pestaña_identificativa" data-name="pestaña identificativa"><rect class="cls-1" width="399.98" height="102.47" rx="32.4"/><path class="cls-2" d="M124.88,34.84a2.39,2.39,0,0,1-1.3-.28,1.12,1.12,0,0,1-.48-.71,4.69,4.69,0,0,1-.09-.94V19.26a4.29,4.29,0,0,1,.09-.9,1.09,1.09,0,0,1,.48-.7,2.53,2.53,0,0,1,1.35-.27,4.52,4.52,0,0,1,1,.07,1.08,1.08,0,0,1,.48.21l.32.32,5.62,7.6h-.37l5.65-7.6a2.44,2.44,0,0,1,.4-.35,1.67,1.67,0,0,1,.52-.18,4.09,4.09,0,0,1,.88-.06,2.38,2.38,0,0,1,1.3.27,1.11,1.11,0,0,1,.5.71,4.11,4.11,0,0,1,.1.94V33a3.71,3.71,0,0,1-.1.9,1.09,1.09,0,0,1-.5.7,2.4,2.4,0,0,1-1.32.28,2.48,2.48,0,0,1-1.3-.28,1.16,1.16,0,0,1-.5-.73,4,4,0,0,1-.1-.92V24l-3.72,5.27-.28.31A1.49,1.49,0,0,1,133,30a1.86,1.86,0,0,1-.86.16,1.9,1.9,0,0,1-.85-.16,1.52,1.52,0,0,1-.49-.36c-.1-.14-.2-.25-.28-.36L126.79,24v9a3.71,3.71,0,0,1-.1.9,1.14,1.14,0,0,1-.48.7A2.31,2.31,0,0,1,124.88,34.84Z"/><path class="cls-2" d="M154,34.83a2.33,2.33,0,0,1-1.37-.33.91.91,0,0,1-.43-.8l.25-.42a2.72,2.72,0,0,1-.57.61,4.28,4.28,0,0,1-1.11.65,4.38,4.38,0,0,1-1.67.29,5,5,0,0,1-2.18-.5,5.93,5.93,0,0,1-1.84-1.39,7.18,7.18,0,0,1-1.27-2,6,6,0,0,1-.48-2.37,5.83,5.83,0,0,1,.48-2.34,6.53,6.53,0,0,1,1.29-2A6.27,6.27,0,0,1,147,22.87a4.89,4.89,0,0,1,2.17-.49,4.15,4.15,0,0,1,1.58.26,4.24,4.24,0,0,1,1.08.61,3.18,3.18,0,0,1,.66.68l-.22-.35a1,1,0,0,1,.44-.91,2.39,2.39,0,0,1,1.39-.32,2.29,2.29,0,0,1,1.28.28,1.11,1.11,0,0,1,.48.73,4.76,4.76,0,0,1,.09.94v8.63a4.81,4.81,0,0,1-.09.93,1.12,1.12,0,0,1-.47.71A2.52,2.52,0,0,1,154,34.83Zm-4.37-3.73a2.13,2.13,0,0,0,1.2-.34,2.63,2.63,0,0,0,.85-3.47,2.32,2.32,0,0,0-.87-.89,2.55,2.55,0,0,0-2.49,0,2.64,2.64,0,0,0-.9.92,2.53,2.53,0,0,0-.34,1.29,2.29,2.29,0,0,0,.34,1.24,2.41,2.41,0,0,0,.92.9A2.49,2.49,0,0,0,149.66,31.1Z"/><path class="cls-2" d="M160.28,34.86a2.39,2.39,0,0,1-1.31-.27,1,1,0,0,1-.47-.71,4.7,4.7,0,0,1-.09-.92V24.23a4.44,4.44,0,0,1,.08-.92,1,1,0,0,1,.49-.69,3.48,3.48,0,0,1,2.59,0,1,1,0,0,1,.49.55,2,2,0,0,1,.1.53l-.31.15.27-.36a3.58,3.58,0,0,1,.59-.55,3.71,3.71,0,0,1,.91-.49,3.63,3.63,0,0,1,1.24-.19l.61,0a4.89,4.89,0,0,1,.7.15,3.32,3.32,0,0,1,.66.3,1.69,1.69,0,0,1,.49.47,1.2,1.2,0,0,1,.18.67A3,3,0,0,1,167,25.6a1.42,1.42,0,0,1-1.2.71,2,2,0,0,1-.6-.06,1,1,0,0,1-.29-.15.93.93,0,0,0-.26-.15,1.91,1.91,0,0,0-.55-.07,2.71,2.71,0,0,0-.71.1,2.08,2.08,0,0,0-.63.32,1.45,1.45,0,0,0-.61,1.23V33a5.31,5.31,0,0,1-.08.91,1.07,1.07,0,0,1-.49.69A2.6,2.6,0,0,1,160.28,34.86Z"/><path class="cls-2" d="M175.66,35a6.42,6.42,0,0,1-2.24-.42,6.92,6.92,0,0,1-2.1-1.21,5.77,5.77,0,0,1-1.53-2,6.21,6.21,0,0,1-.58-2.75,6.09,6.09,0,0,1,.58-2.73,6,6,0,0,1,1.52-2,6.87,6.87,0,0,1,2.09-1.21,6.38,6.38,0,0,1,2.22-.41,6.08,6.08,0,0,1,1.66.21,5.41,5.41,0,0,1,1.25.51,3.74,3.74,0,0,1,.73.53,6.26,6.26,0,0,1,.75.65,1.05,1.05,0,0,1,.3.85,1.38,1.38,0,0,1-.17.56,4.48,4.48,0,0,1-.38.59c-.51.7-1,1-1.5.95a2.12,2.12,0,0,1-.68-.25l-.6-.35a4.48,4.48,0,0,0-.62-.31,1.73,1.73,0,0,0-.75-.14,2.59,2.59,0,0,0-1.3.33,2.7,2.7,0,0,0-.91.9,2.69,2.69,0,0,0,0,2.62,2.53,2.53,0,0,0,.9.91,2.42,2.42,0,0,0,1.26.34,2.74,2.74,0,0,0,.73-.1,2.49,2.49,0,0,0,.54-.24l.36-.21c.2-.13.39-.26.57-.36a1.07,1.07,0,0,1,.55-.17,1.23,1.23,0,0,1,.74.27,4.28,4.28,0,0,1,.81.83,2.1,2.1,0,0,1,.49,1,1.18,1.18,0,0,1-.22.86,2.46,2.46,0,0,1-.85.76,3.69,3.69,0,0,1-.71.45,6.49,6.49,0,0,1-1.25.5A5.69,5.69,0,0,1,175.66,35Z"/><path class="cls-2" d="M188.61,35.07a6.21,6.21,0,0,1-2.34-.46,7.24,7.24,0,0,1-2.11-1.31,6.24,6.24,0,0,1-1.51-2,5.87,5.87,0,0,1-.56-2.64,6.16,6.16,0,0,1,.51-2.51,6.75,6.75,0,0,1,3.48-3.47,5.94,5.94,0,0,1,2.49-.52,6.39,6.39,0,0,1,3.26.87,6.53,6.53,0,0,1,2.33,2.34,6.38,6.38,0,0,1-1.19,8,6.53,6.53,0,0,1-2.07,1.29A6.19,6.19,0,0,1,188.61,35.07Zm-.05-3.77a2.85,2.85,0,0,0,1.23-.3,2.71,2.71,0,0,0,1-.9,2.53,2.53,0,0,0,.43-1.52,2.65,2.65,0,0,0-.35-1.4,2.41,2.41,0,0,0-1-.94,2.83,2.83,0,0,0-1.41-.34,2.6,2.6,0,0,0-1.34.35,2.65,2.65,0,0,0-.95,1,2.69,2.69,0,0,0-.36,1.39,2.6,2.6,0,0,0,.41,1.51,2.47,2.47,0,0,0,1,.9A3,3,0,0,0,188.56,31.3Z"/><path class="cls-3" d="M124.88,34.84a2.39,2.39,0,0,1-1.3-.28,1.12,1.12,0,0,1-.48-.71,4.69,4.69,0,0,1-.09-.94V19.26a4.29,4.29,0,0,1,.09-.9,1.09,1.09,0,0,1,.48-.7,2.53,2.53,0,0,1,1.35-.27,4.52,4.52,0,0,1,1,.07,1.08,1.08,0,0,1,.48.21l.32.32,5.62,7.6h-.37l5.65-7.6a2.44,2.44,0,0,1,.4-.35,1.67,1.67,0,0,1,.52-.18,4.09,4.09,0,0,1,.88-.06,2.38,2.38,0,0,1,1.3.27,1.11,1.11,0,0,1,.5.71,4.11,4.11,0,0,1,.1.94V33a3.71,3.71,0,0,1-.1.9,1.09,1.09,0,0,1-.5.7,2.4,2.4,0,0,1-1.32.28,2.48,2.48,0,0,1-1.3-.28,1.16,1.16,0,0,1-.5-.73,4,4,0,0,1-.1-.92V24l-3.72,5.27-.28.31A1.49,1.49,0,0,1,133,30a1.86,1.86,0,0,1-.86.16,1.9,1.9,0,0,1-.85-.16,1.52,1.52,0,0,1-.49-.36c-.1-.14-.2-.25-.28-.36L126.79,24v9a3.71,3.71,0,0,1-.1.9,1.14,1.14,0,0,1-.48.7A2.31,2.31,0,0,1,124.88,34.84Z"/><path class="cls-3" d="M154,34.83a2.33,2.33,0,0,1-1.37-.33.91.91,0,0,1-.43-.8l.25-.42a2.72,2.72,0,0,1-.57.61,4.28,4.28,0,0,1-1.11.65,4.38,4.38,0,0,1-1.67.29,5,5,0,0,1-2.18-.5,5.93,5.93,0,0,1-1.84-1.39,7.18,7.18,0,0,1-1.27-2,6,6,0,0,1-.48-2.37,5.83,5.83,0,0,1,.48-2.34,6.53,6.53,0,0,1,1.29-2A6.27,6.27,0,0,1,147,22.87a4.89,4.89,0,0,1,2.17-.49,4.15,4.15,0,0,1,1.58.26,4.24,4.24,0,0,1,1.08.61,3.18,3.18,0,0,1,.66.68l-.22-.35a1,1,0,0,1,.44-.91,2.39,2.39,0,0,1,1.39-.32,2.29,2.29,0,0,1,1.28.28,1.11,1.11,0,0,1,.48.73,4.76,4.76,0,0,1,.09.94v8.63a4.81,4.81,0,0,1-.09.93,1.12,1.12,0,0,1-.47.71A2.52,2.52,0,0,1,154,34.83Zm-4.37-3.73a2.13,2.13,0,0,0,1.2-.34,2.63,2.63,0,0,0,.85-3.47,2.32,2.32,0,0,0-.87-.89,2.55,2.55,0,0,0-2.49,0,2.64,2.64,0,0,0-.9.92,2.53,2.53,0,0,0-.34,1.29,2.29,2.29,0,0,0,.34,1.24,2.41,2.41,0,0,0,.92.9A2.49,2.49,0,0,0,149.66,31.1Z"/><path class="cls-3" d="M160.28,34.86a2.39,2.39,0,0,1-1.31-.27,1,1,0,0,1-.47-.71,4.7,4.7,0,0,1-.09-.92V24.23a4.44,4.44,0,0,1,.08-.92,1,1,0,0,1,.49-.69,3.48,3.48,0,0,1,2.59,0,1,1,0,0,1,.49.55,2,2,0,0,1,.1.53l-.31.15.27-.36a3.58,3.58,0,0,1,.59-.55,3.71,3.71,0,0,1,.91-.49,3.63,3.63,0,0,1,1.24-.19l.61,0a4.89,4.89,0,0,1,.7.15,3.32,3.32,0,0,1,.66.3,1.69,1.69,0,0,1,.49.47,1.2,1.2,0,0,1,.18.67A3,3,0,0,1,167,25.6a1.42,1.42,0,0,1-1.2.71,2,2,0,0,1-.6-.06,1,1,0,0,1-.29-.15.93.93,0,0,0-.26-.15,1.91,1.91,0,0,0-.55-.07,2.71,2.71,0,0,0-.71.1,2.08,2.08,0,0,0-.63.32,1.45,1.45,0,0,0-.61,1.23V33a5.31,5.31,0,0,1-.08.91,1.07,1.07,0,0,1-.49.69A2.6,2.6,0,0,1,160.28,34.86Z"/><path class="cls-3" d="M175.66,35a6.42,6.42,0,0,1-2.24-.42,6.92,6.92,0,0,1-2.1-1.21,5.77,5.77,0,0,1-1.53-2,6.21,6.21,0,0,1-.58-2.75,6.09,6.09,0,0,1,.58-2.73,6,6,0,0,1,1.52-2,6.87,6.87,0,0,1,2.09-1.21,6.38,6.38,0,0,1,2.22-.41,6.08,6.08,0,0,1,1.66.21,5.41,5.41,0,0,1,1.25.51,3.74,3.74,0,0,1,.73.53,6.26,6.26,0,0,1,.75.65,1.05,1.05,0,0,1,.3.85,1.38,1.38,0,0,1-.17.56,4.48,4.48,0,0,1-.38.59c-.51.7-1,1-1.5.95a2.12,2.12,0,0,1-.68-.25l-.6-.35a4.48,4.48,0,0,0-.62-.31,1.73,1.73,0,0,0-.75-.14,2.59,2.59,0,0,0-1.3.33,2.7,2.7,0,0,0-.91.9,2.69,2.69,0,0,0,0,2.62,2.53,2.53,0,0,0,.9.91,2.42,2.42,0,0,0,1.26.34,2.74,2.74,0,0,0,.73-.1,2.49,2.49,0,0,0,.54-.24l.36-.21c.2-.13.39-.26.57-.36a1.07,1.07,0,0,1,.55-.17,1.23,1.23,0,0,1,.74.27,4.28,4.28,0,0,1,.81.83,2.1,2.1,0,0,1,.49,1,1.18,1.18,0,0,1-.22.86,2.46,2.46,0,0,1-.85.76,3.69,3.69,0,0,1-.71.45,6.49,6.49,0,0,1-1.25.5A5.69,5.69,0,0,1,175.66,35Z"/><path class="cls-3" d="M188.61,35.07a6.21,6.21,0,0,1-2.34-.46,7.24,7.24,0,0,1-2.11-1.31,6.24,6.24,0,0,1-1.51-2,5.87,5.87,0,0,1-.56-2.64,6.16,6.16,0,0,1,.51-2.51,6.75,6.75,0,0,1,3.48-3.47,5.94,5.94,0,0,1,2.49-.52,6.39,6.39,0,0,1,3.26.87,6.53,6.53,0,0,1,2.33,2.34,6.38,6.38,0,0,1-1.19,8,6.53,6.53,0,0,1-2.07,1.29A6.19,6.19,0,0,1,188.61,35.07Zm-.05-3.77a2.85,2.85,0,0,0,1.23-.3,2.71,2.71,0,0,0,1-.9,2.53,2.53,0,0,0,.43-1.52,2.65,2.65,0,0,0-.35-1.4,2.41,2.41,0,0,0-1-.94,2.83,2.83,0,0,0-1.41-.34,2.6,2.6,0,0,0-1.34.35,2.65,2.65,0,0,0-.95,1,2.69,2.69,0,0,0-.36,1.39,2.6,2.6,0,0,0,.41,1.51,2.47,2.47,0,0,0,1,.9A3,3,0,0,0,188.56,31.3Z"/><path class="cls-2" d="M124.88,34.84a2.39,2.39,0,0,1-1.3-.28,1.12,1.12,0,0,1-.48-.71,4.69,4.69,0,0,1-.09-.94V19.26a4.29,4.29,0,0,1,.09-.9,1.09,1.09,0,0,1,.48-.7,2.53,2.53,0,0,1,1.35-.27,4.52,4.52,0,0,1,1,.07,1.08,1.08,0,0,1,.48.21l.32.32,5.62,7.6h-.37l5.65-7.6a2.44,2.44,0,0,1,.4-.35,1.67,1.67,0,0,1,.52-.18,4.09,4.09,0,0,1,.88-.06,2.38,2.38,0,0,1,1.3.27,1.11,1.11,0,0,1,.5.71,4.11,4.11,0,0,1,.1.94V33a3.71,3.71,0,0,1-.1.9,1.09,1.09,0,0,1-.5.7,2.4,2.4,0,0,1-1.32.28,2.48,2.48,0,0,1-1.3-.28,1.16,1.16,0,0,1-.5-.73,4,4,0,0,1-.1-.92V24l-3.72,5.27-.28.31A1.49,1.49,0,0,1,133,30a1.86,1.86,0,0,1-.86.16,1.9,1.9,0,0,1-.85-.16,1.52,1.52,0,0,1-.49-.36c-.1-.14-.2-.25-.28-.36L126.79,24v9a3.71,3.71,0,0,1-.1.9,1.14,1.14,0,0,1-.48.7A2.31,2.31,0,0,1,124.88,34.84Z"/><path class="cls-2" d="M154,34.83a2.33,2.33,0,0,1-1.37-.33.91.91,0,0,1-.43-.8l.25-.42a2.72,2.72,0,0,1-.57.61,4.28,4.28,0,0,1-1.11.65,4.38,4.38,0,0,1-1.67.29,5,5,0,0,1-2.18-.5,5.93,5.93,0,0,1-1.84-1.39,7.18,7.18,0,0,1-1.27-2,6,6,0,0,1-.48-2.37,5.83,5.83,0,0,1,.48-2.34,6.53,6.53,0,0,1,1.29-2A6.27,6.27,0,0,1,147,22.87a4.89,4.89,0,0,1,2.17-.49,4.15,4.15,0,0,1,1.58.26,4.24,4.24,0,0,1,1.08.61,3.18,3.18,0,0,1,.66.68l-.22-.35a1,1,0,0,1,.44-.91,2.39,2.39,0,0,1,1.39-.32,2.29,2.29,0,0,1,1.28.28,1.11,1.11,0,0,1,.48.73,4.76,4.76,0,0,1,.09.94v8.63a4.81,4.81,0,0,1-.09.93,1.12,1.12,0,0,1-.47.71A2.52,2.52,0,0,1,154,34.83Zm-4.37-3.73a2.13,2.13,0,0,0,1.2-.34,2.63,2.63,0,0,0,.85-3.47,2.32,2.32,0,0,0-.87-.89,2.55,2.55,0,0,0-2.49,0,2.64,2.64,0,0,0-.9.92,2.53,2.53,0,0,0-.34,1.29,2.29,2.29,0,0,0,.34,1.24,2.41,2.41,0,0,0,.92.9A2.49,2.49,0,0,0,149.66,31.1Z"/><path class="cls-2" d="M160.28,34.86a2.39,2.39,0,0,1-1.31-.27,1,1,0,0,1-.47-.71,4.7,4.7,0,0,1-.09-.92V24.23a4.44,4.44,0,0,1,.08-.92,1,1,0,0,1,.49-.69,3.48,3.48,0,0,1,2.59,0,1,1,0,0,1,.49.55,2,2,0,0,1,.1.53l-.31.15.27-.36a3.58,3.58,0,0,1,.59-.55,3.71,3.71,0,0,1,.91-.49,3.63,3.63,0,0,1,1.24-.19l.61,0a4.89,4.89,0,0,1,.7.15,3.32,3.32,0,0,1,.66.3,1.69,1.69,0,0,1,.49.47,1.2,1.2,0,0,1,.18.67A3,3,0,0,1,167,25.6a1.42,1.42,0,0,1-1.2.71,2,2,0,0,1-.6-.06,1,1,0,0,1-.29-.15.93.93,0,0,0-.26-.15,1.91,1.91,0,0,0-.55-.07,2.71,2.71,0,0,0-.71.1,2.08,2.08,0,0,0-.63.32,1.45,1.45,0,0,0-.61,1.23V33a5.31,5.31,0,0,1-.08.91,1.07,1.07,0,0,1-.49.69A2.6,2.6,0,0,1,160.28,34.86Z"/><path class="cls-2" d="M175.66,35a6.42,6.42,0,0,1-2.24-.42,6.92,6.92,0,0,1-2.1-1.21,5.77,5.77,0,0,1-1.53-2,6.21,6.21,0,0,1-.58-2.75,6.09,6.09,0,0,1,.58-2.73,6,6,0,0,1,1.52-2,6.87,6.87,0,0,1,2.09-1.21,6.38,6.38,0,0,1,2.22-.41,6.08,6.08,0,0,1,1.66.21,5.41,5.41,0,0,1,1.25.51,3.74,3.74,0,0,1,.73.53,6.26,6.26,0,0,1,.75.65,1.05,1.05,0,0,1,.3.85,1.38,1.38,0,0,1-.17.56,4.48,4.48,0,0,1-.38.59c-.51.7-1,1-1.5.95a2.12,2.12,0,0,1-.68-.25l-.6-.35a4.48,4.48,0,0,0-.62-.31,1.73,1.73,0,0,0-.75-.14,2.59,2.59,0,0,0-1.3.33,2.7,2.7,0,0,0-.91.9,2.69,2.69,0,0,0,0,2.62,2.53,2.53,0,0,0,.9.91,2.42,2.42,0,0,0,1.26.34,2.74,2.74,0,0,0,.73-.1,2.49,2.49,0,0,0,.54-.24l.36-.21c.2-.13.39-.26.57-.36a1.07,1.07,0,0,1,.55-.17,1.23,1.23,0,0,1,.74.27,4.28,4.28,0,0,1,.81.83,2.1,2.1,0,0,1,.49,1,1.18,1.18,0,0,1-.22.86,2.46,2.46,0,0,1-.85.76,3.69,3.69,0,0,1-.71.45,6.49,6.49,0,0,1-1.25.5A5.69,5.69,0,0,1,175.66,35Z"/><path class="cls-2" d="M188.61,35.07a6.21,6.21,0,0,1-2.34-.46,7.24,7.24,0,0,1-2.11-1.31,6.24,6.24,0,0,1-1.51-2,5.87,5.87,0,0,1-.56-2.64,6.16,6.16,0,0,1,.51-2.51,6.75,6.75,0,0,1,3.48-3.47,5.94,5.94,0,0,1,2.49-.52,6.39,6.39,0,0,1,3.26.87,6.53,6.53,0,0,1,2.33,2.34,6.38,6.38,0,0,1-1.19,8,6.53,6.53,0,0,1-2.07,1.29A6.19,6.19,0,0,1,188.61,35.07Zm-.05-3.77a2.85,2.85,0,0,0,1.23-.3,2.71,2.71,0,0,0,1-.9,2.53,2.53,0,0,0,.43-1.52,2.65,2.65,0,0,0-.35-1.4,2.41,2.41,0,0,0-1-.94,2.83,2.83,0,0,0-1.41-.34,2.6,2.6,0,0,0-1.34.35,2.65,2.65,0,0,0-.95,1,2.69,2.69,0,0,0-.36,1.39,2.6,2.6,0,0,0,.41,1.51,2.47,2.47,0,0,0,1,.9A3,3,0,0,0,188.56,31.3Z"/><path class="cls-4" d="M55.46,35.55q0,3.41-1.18,4.85a4.36,4.36,0,0,1-3.59,1.45,5.73,5.73,0,0,1-2.57-.5,3.29,3.29,0,0,1-1.48-1.85,11.09,11.09,0,0,1-.55-3.61L46,20.22a6.3,6.3,0,0,1-3.21-.73A2.58,2.58,0,0,1,41.55,17a2.76,2.76,0,0,1,1.16-2.29,5.16,5.16,0,0,1,3.24-.9c.54,0,1.31,0,2.3,0l2.1,0c2,0,3.36.34,4,1a5,5,0,0,1,1,3.59Z"/><path class="cls-4" d="M59.21,39a2.78,2.78,0,0,1,1.16-2.31,5.4,5.4,0,0,1,3.28-.88c3,0,4.44,1.07,4.44,3.19a3.11,3.11,0,0,1-.57,2,2.73,2.73,0,0,1-1.51,1,9.17,9.17,0,0,1-2.36.26,6.13,6.13,0,0,1-3.18-.76A2.62,2.62,0,0,1,59.21,39Z"/><path class="cls-4" d="M82.49,23c0-1.37-1.24-2.06-3.71-2.06a19.62,19.62,0,0,0-2.1.15,19.29,19.29,0,0,1-1.93.15q-2.94,0-2.94-3.62t8.48-3.73q5.5,0,8.23,1.84a5.63,5.63,0,0,1,2.73,4.83,7.77,7.77,0,0,1-3.51,6.64,9.52,9.52,0,0,1,3.32,2.71,7.26,7.26,0,0,1,1,4,7.35,7.35,0,0,1-2.8,6,11.45,11.45,0,0,1-7.47,2.28c-3.92,0-6.72-.41-8.42-1.23a4,4,0,0,1-2.54-3.76,3.92,3.92,0,0,1,.82-2.88,3.15,3.15,0,0,1,2.28-.78c.49,0,1.25.06,2.28.17s1.82.17,2.36.17q4.44,0,4.45-1.68a1.63,1.63,0,0,0-.86-1.58,8,8,0,0,0-3.22-.44,6.5,6.5,0,0,1-3.34-.63,2.58,2.58,0,0,1-1-2.35c0-1.74,1.11-2.6,3.34-2.6a17.73,17.73,0,0,0,3.2-.21c.69-.14,1.09-.3,1.2-.49A1.92,1.92,0,0,0,82.49,23Z"/><path class="cls-5" d="M55.46,35.55q0,3.41-1.18,4.85a4.36,4.36,0,0,1-3.59,1.45,5.73,5.73,0,0,1-2.57-.5,3.29,3.29,0,0,1-1.48-1.85,11.09,11.09,0,0,1-.55-3.61L46,20.22a6.3,6.3,0,0,1-3.21-.73A2.58,2.58,0,0,1,41.55,17a2.76,2.76,0,0,1,1.16-2.29,5.16,5.16,0,0,1,3.24-.9c.54,0,1.31,0,2.3,0l2.1,0c2,0,3.36.34,4,1a5,5,0,0,1,1,3.59Z"/><path class="cls-5" d="M59.21,39a2.78,2.78,0,0,1,1.16-2.31,5.4,5.4,0,0,1,3.28-.88c3,0,4.44,1.07,4.44,3.19a3.11,3.11,0,0,1-.57,2,2.73,2.73,0,0,1-1.51,1,9.17,9.17,0,0,1-2.36.26,6.13,6.13,0,0,1-3.18-.76A2.62,2.62,0,0,1,59.21,39Z"/><path class="cls-5" d="M82.49,23c0-1.37-1.24-2.06-3.71-2.06a19.62,19.62,0,0,0-2.1.15,19.29,19.29,0,0,1-1.93.15q-2.94,0-2.94-3.62t8.48-3.73q5.5,0,8.23,1.84a5.63,5.63,0,0,1,2.73,4.83,7.77,7.77,0,0,1-3.51,6.64,9.52,9.52,0,0,1,3.32,2.71,7.26,7.26,0,0,1,1,4,7.35,7.35,0,0,1-2.8,6,11.45,11.45,0,0,1-7.47,2.28c-3.92,0-6.72-.41-8.42-1.23a4,4,0,0,1-2.54-3.76,3.92,3.92,0,0,1,.82-2.88,3.15,3.15,0,0,1,2.28-.78c.49,0,1.25.06,2.28.17s1.82.17,2.36.17q4.44,0,4.45-1.68a1.63,1.63,0,0,0-.86-1.58,8,8,0,0,0-3.22-.44,6.5,6.5,0,0,1-3.34-.63,2.58,2.58,0,0,1-1-2.35c0-1.74,1.11-2.6,3.34-2.6a17.73,17.73,0,0,0,3.2-.21c.69-.14,1.09-.3,1.2-.49A1.92,1.92,0,0,0,82.49,23Z"/></g></g></svg>