<svg xmlns="http://www.w3.org/2000/svg" viewBox="0 0 399.98 89.18"><defs><style>.cls-1{fill:#a41010;}.cls-2{fill:#fff;}.cls-3,.cls-4{fill:none;stroke-width:5px;}.cls-3{stroke:#c8a927;stroke-linejoin:round;}.cls-4{stroke:#fff;}.cls-5{fill:#c8a927;}</style></defs><title>13tt</title><g id="Layer_2" data-name="Layer 2"><g id="pestaña_identificativa" data-name="pestaña identificativa"><rect class="cls-1" width="399.98" height="89.18" rx="34.2"/><path class="cls-2" d="M126.35,34.84a2.44,2.44,0,0,1-1.31-.27,1,1,0,0,1-.5-.71,4.7,4.7,0,0,1-.09-.92V19.26a4.46,4.46,0,0,1,.09-.91,1.08,1.08,0,0,1,.48-.71,3.32,3.32,0,0,1,2.67,0,1.14,1.14,0,0,1,.47.71,4.62,4.62,0,0,1,.09.94V31.54h6.85a4.09,4.09,0,0,1,.8.08,1,1,0,0,1,.61.42,2.12,2.12,0,0,1,.24,1.15,2.09,2.09,0,0,1-.25,1.14,1,1,0,0,1-.61.44,4,4,0,0,1-.79.07Z"/><path class="cls-2" d="M139.53,21.44a.82.82,0,0,1-.74-.25,2.63,2.63,0,0,1-.51-1,2.11,2.11,0,0,1-.1-1.3,1.43,1.43,0,0,1,.93-.67l4.4-1.35a.9.9,0,0,1,.72.29,2.4,2.4,0,0,1,.5,1,1.93,1.93,0,0,1,.09,1.27,1.35,1.35,0,0,1-.91.68Zm1,13.4a2.42,2.42,0,0,1-1.32-.26,1.1,1.1,0,0,1-.47-.7,4.46,4.46,0,0,1-.09-.91V24.24a4.53,4.53,0,0,1,.09-.91,1.1,1.1,0,0,1,.48-.7,2.59,2.59,0,0,1,1.33-.26,2.24,2.24,0,0,1,1.29.28,1.14,1.14,0,0,1,.47.71,4.62,4.62,0,0,1,.09.94V33a5.4,5.4,0,0,1-.08.91,1.06,1.06,0,0,1-.48.69A2.53,2.53,0,0,1,140.5,34.84Z"/><path class="cls-2" d="M146.72,34.82a2.41,2.41,0,0,1-1.31-.26,1,1,0,0,1-.47-.7,4.53,4.53,0,0,1-.09-.91v-8.8a4.19,4.19,0,0,1,.09-.89,1,1,0,0,1,.49-.66,2.58,2.58,0,0,1,1.32-.25,2.51,2.51,0,0,1,1.18.21,1.06,1.06,0,0,1,.49.52,1.64,1.64,0,0,1,.11.56,1,1,0,0,0,.05.36l-.15.47a1.43,1.43,0,0,1,.39-.76,3.35,3.35,0,0,1,.85-.7,4.32,4.32,0,0,1,1.1-.48,4,4,0,0,1,1.16-.18,5.05,5.05,0,0,1,2.14.44,4.29,4.29,0,0,1,1.58,1.26,5.65,5.65,0,0,1,1,1.94,8.56,8.56,0,0,1,.34,2.44V33a5.31,5.31,0,0,1-.08.91,1.06,1.06,0,0,1-.48.69,2.57,2.57,0,0,1-1.34.25,2.54,2.54,0,0,1-1.32-.26,1.08,1.08,0,0,1-.49-.7,4.63,4.63,0,0,1-.09-.92V28.43a2.78,2.78,0,0,0-.27-1.28,1.81,1.81,0,0,0-.75-.8,2.43,2.43,0,0,0-1.21-.27,2.59,2.59,0,0,0-1.25.28,2,2,0,0,0-.81.81,2.59,2.59,0,0,0-.29,1.25V33a4.56,4.56,0,0,1-.09.92,1,1,0,0,1-.48.68A2.47,2.47,0,0,1,146.72,34.82Z"/><path class="cls-2" d="M165.62,35.09a7.44,7.44,0,0,1-3-.58A5.86,5.86,0,0,1,160.55,33a6.38,6.38,0,0,1-1.2-2.08,6.92,6.92,0,0,1-.4-2.3,6.54,6.54,0,0,1,.85-3.33A6.12,6.12,0,0,1,162.17,23a7,7,0,0,1,3.46-.84,6.39,6.39,0,0,1,2.51.46,5.11,5.11,0,0,1,1.75,1.21,5,5,0,0,1,1,1.58,4.33,4.33,0,0,1,.34,1.63,2.82,2.82,0,0,1-.66,2.05,2.27,2.27,0,0,1-1.69.67h-6a1.74,1.74,0,0,0,.46,1.07,2.73,2.73,0,0,0,1,.7,3.69,3.69,0,0,0,1.32.26,8,8,0,0,0,1-.07,4.49,4.49,0,0,0,.79-.17l.59-.23.48-.18a1.89,1.89,0,0,1,.43-.1,1,1,0,0,1,.67.21,2.11,2.11,0,0,1,.58.71,2,2,0,0,1,.24.53,2.07,2.07,0,0,1,.06.5,1.38,1.38,0,0,1-.61,1.09,4.91,4.91,0,0,1-1.73.73A11.51,11.51,0,0,1,165.62,35.09ZM163,27.68h4a1.06,1.06,0,0,0,.58-.14.62.62,0,0,0,.2-.54,1.24,1.24,0,0,0-.28-.77,1.64,1.64,0,0,0-.74-.54,2.74,2.74,0,0,0-1.08-.19,3,3,0,0,0-1.35.3,2.39,2.39,0,0,0-.94.8A1.91,1.91,0,0,0,163,27.68Z"/><path class="cls-2" d="M183.55,34.85a2.34,2.34,0,0,1-1.38-.33.89.89,0,0,1-.42-.8l.25-.42a2.8,2.8,0,0,1-.58.61,4.11,4.11,0,0,1-1.11.65,4.34,4.34,0,0,1-1.66.28,5,5,0,0,1-2.19-.5A5.74,5.74,0,0,1,174.62,33a7,7,0,0,1-1.27-2,6,6,0,0,1-.47-2.38,5.81,5.81,0,0,1,.47-2.33,6.9,6.9,0,0,1,1.29-2,6.37,6.37,0,0,1,1.84-1.36,4.93,4.93,0,0,1,2.17-.5,4.11,4.11,0,0,1,1.58.27,4.5,4.5,0,0,1,1.09.61,3.43,3.43,0,0,1,.66.67l-.23-.35a1.05,1.05,0,0,1,.44-.91,2.42,2.42,0,0,1,1.39-.31,2.24,2.24,0,0,1,1.29.28,1.1,1.1,0,0,1,.47.72,4.86,4.86,0,0,1,.09.95V33a4.7,4.7,0,0,1-.09.92,1,1,0,0,1-.47.71A2.39,2.39,0,0,1,183.55,34.85Zm-4.38-3.73a2.13,2.13,0,0,0,1.2-.34,2.54,2.54,0,0,0,1.18-2.19,2.56,2.56,0,0,0-.32-1.28,2.42,2.42,0,0,0-.88-.89,2.3,2.3,0,0,0-1.22-.33,2.49,2.49,0,0,0-1.27.34,2.61,2.61,0,0,0-.9.91,2.56,2.56,0,0,0-.33,1.3,2.42,2.42,0,0,0,.33,1.24,2.6,2.6,0,0,0,2.21,1.24Z"/><path class="cls-2" d="M200.62,35a6.69,6.69,0,0,1-2.24-.41,7.2,7.2,0,0,1-2.1-1.22,5.77,5.77,0,0,1-1.53-2,6.85,6.85,0,0,1,0-5.47,6,6,0,0,1,1.53-2,7,7,0,0,1,2.09-1.21,6.52,6.52,0,0,1,2.21-.41,6,6,0,0,1,1.66.21,5.88,5.88,0,0,1,1.25.52,3.91,3.91,0,0,1,.74.52c.28.22.53.44.75.65a1.13,1.13,0,0,1,.3.85,1.64,1.64,0,0,1-.18.57,4.29,4.29,0,0,1-.37.58c-.52.7-1,1-1.5.95a2.27,2.27,0,0,1-.69-.25c-.21-.11-.41-.23-.6-.35a5.81,5.81,0,0,0-.61-.31,2,2,0,0,0-.75-.14,2.45,2.45,0,0,0-1.3.34,2.48,2.48,0,0,0-.92.9,2.52,2.52,0,0,0-.33,1.31,2.56,2.56,0,0,0,.33,1.3,2.61,2.61,0,0,0,.9.91,2.58,2.58,0,0,0,2,.24,2.16,2.16,0,0,0,.55-.24l.35-.21.57-.36a1.08,1.08,0,0,1,.55-.16,1.28,1.28,0,0,1,.74.26,4.7,4.7,0,0,1,.81.84,2,2,0,0,1,.49,1,1.26,1.26,0,0,1-.21.87,2.78,2.78,0,0,1-.85.76,4.47,4.47,0,0,1-.72.45,6.9,6.9,0,0,1-1.25.5A5.66,5.66,0,0,1,200.62,35Z"/><path class="cls-2" d="M213,34.86a5.25,5.25,0,0,1-2.18-.45A5.33,5.33,0,0,1,209,33.15a5.85,5.85,0,0,1-1.16-1.93,7,7,0,0,1-.41-2.43V24.26a4.42,4.42,0,0,1,.09-.92,1.08,1.08,0,0,1,.49-.7,3.25,3.25,0,0,1,2.64,0,1.14,1.14,0,0,1,.47.71,4.62,4.62,0,0,1,.09.94v4.5a2.78,2.78,0,0,0,.27,1.26,1.73,1.73,0,0,0,.77.81,2.46,2.46,0,0,0,1.21.28,2.5,2.5,0,0,0,1.24-.29,2,2,0,0,0,.8-.81,2.59,2.59,0,0,0,.29-1.25V24.24a4.42,4.42,0,0,1,.09-.92,1,1,0,0,1,.49-.69,2.47,2.47,0,0,1,1.32-.26,2.41,2.41,0,0,1,1.32.27,1.17,1.17,0,0,1,.47.71,4.63,4.63,0,0,1,.09.92v8.8a4.26,4.26,0,0,1-.09.89,1,1,0,0,1-.48.66,2.63,2.63,0,0,1-1.3.25,2.69,2.69,0,0,1-1-.16,1.16,1.16,0,0,1-.55-.37,1.06,1.06,0,0,1-.22-.47,3.91,3.91,0,0,1,0-.45l.32-.28a3.74,3.74,0,0,1-.32.39,6.27,6.27,0,0,1-.67.57,4,4,0,0,1-1,.54A3.35,3.35,0,0,1,213,34.86Z"/><path class="cls-2" d="M224,34.89a2.42,2.42,0,0,1-1.32-.26,1.09,1.09,0,0,1-.47-.71,4.73,4.73,0,0,1-.09-.93V24.27a5.46,5.46,0,0,1,.08-.93,1.08,1.08,0,0,1,.49-.68,2.47,2.47,0,0,1,1.33-.27,2.61,2.61,0,0,1,1.26.24,1.1,1.1,0,0,1,.49.55,2.08,2.08,0,0,1,.1.54l-.3.15a2,2,0,0,1,.26-.36,3.2,3.2,0,0,1,.59-.55,3.71,3.71,0,0,1,.91-.49,3.62,3.62,0,0,1,1.24-.2c.18,0,.39,0,.61,0a4.62,4.62,0,0,1,.7.15,3.32,3.32,0,0,1,.66.3,1.67,1.67,0,0,1,.49.46,1.16,1.16,0,0,1,.19.68,3.06,3.06,0,0,1-.48,1.74,1.42,1.42,0,0,1-1.2.71,2.11,2.11,0,0,1-.6-.06,1.3,1.3,0,0,1-.29-.16,1.26,1.26,0,0,0-.26-.14,1.39,1.39,0,0,0-.55-.07,2.71,2.71,0,0,0-.71.1,2.06,2.06,0,0,0-.63.31,1.63,1.63,0,0,0-.45.53,1.49,1.49,0,0,0-.16.71v5.48a4.53,4.53,0,0,1-.09.91,1,1,0,0,1-.49.69A2.6,2.6,0,0,1,224,34.89Z"/><path class="cls-2" d="M239.15,35a2.25,2.25,0,0,1-1-.22,1.5,1.5,0,0,1-.66-.7l-4.5-9a2.05,2.05,0,0,1-.26-1.49,2.06,2.06,0,0,1,1.14-1.06,2.4,2.4,0,0,1,1.51-.31c.38.09.71.49,1,1.19l2.8,6.5,2.8-6.42c.3-.72.64-1.14,1-1.25a2.22,2.22,0,0,1,1.56.32c.68.32,1.06.69,1.13,1.12a2.26,2.26,0,0,1-.31,1.46l-4.48,8.92a1.48,1.48,0,0,1-.65.7A2.26,2.26,0,0,1,239.15,35Z"/><path class="cls-2" d="M258,34.89a2.34,2.34,0,0,1-1.38-.33.88.88,0,0,1-.42-.8l.25-.42a2.82,2.82,0,0,1-.58.61,4.11,4.11,0,0,1-1.11.65,4.33,4.33,0,0,1-1.66.29,5,5,0,0,1-2.19-.5A6,6,0,0,1,249,33a7,7,0,0,1-1.27-2,6,6,0,0,1,0-4.71,6.72,6.72,0,0,1,1.29-2,6.07,6.07,0,0,1,1.84-1.36,4.8,4.8,0,0,1,2.17-.5,4.35,4.35,0,0,1,1.58.26,4.86,4.86,0,0,1,1.09.61,3.45,3.45,0,0,1,.66.68l-.23-.35a1.05,1.05,0,0,1,.44-.91,2.4,2.4,0,0,1,1.39-.31,2.34,2.34,0,0,1,1.29.27,1.19,1.19,0,0,1,.47.73,4.79,4.79,0,0,1,.09.95V33a4.73,4.73,0,0,1-.09.93,1,1,0,0,1-.47.71A2.5,2.5,0,0,1,258,34.89Zm-4.38-3.73a2.21,2.21,0,0,0,1.2-.33,2.51,2.51,0,0,0,.85-.92,2.48,2.48,0,0,0,.33-1.27,2.62,2.62,0,0,0-.32-1.29,2.5,2.5,0,0,0-.88-.89,2.41,2.41,0,0,0-1.22-.32,2.48,2.48,0,0,0-1.27.33,2.64,2.64,0,0,0-.9.92,2.54,2.54,0,0,0-.34,1.3,2.37,2.37,0,0,0,.34,1.23,2.44,2.44,0,0,0,.93.9A2.48,2.48,0,0,0,253.57,31.16Z"/><path class="cls-3" d="M126.35,34.84a2.44,2.44,0,0,1-1.31-.27,1,1,0,0,1-.5-.71,4.7,4.7,0,0,1-.09-.92V19.26a4.46,4.46,0,0,1,.09-.91,1.08,1.08,0,0,1,.48-.71,3.32,3.32,0,0,1,2.67,0,1.14,1.14,0,0,1,.47.71,4.62,4.62,0,0,1,.09.94V31.54h6.85a4.09,4.09,0,0,1,.8.08,1,1,0,0,1,.61.42,2.12,2.12,0,0,1,.24,1.15,2.09,2.09,0,0,1-.25,1.14,1,1,0,0,1-.61.44,4,4,0,0,1-.79.07Z"/><path class="cls-3" d="M139.53,21.44a.82.82,0,0,1-.74-.25,2.63,2.63,0,0,1-.51-1,2.11,2.11,0,0,1-.1-1.3,1.43,1.43,0,0,1,.93-.67l4.4-1.35a.9.9,0,0,1,.72.29,2.4,2.4,0,0,1,.5,1,1.93,1.93,0,0,1,.09,1.27,1.35,1.35,0,0,1-.91.68Zm1,13.4a2.42,2.42,0,0,1-1.32-.26,1.1,1.1,0,0,1-.47-.7,4.46,4.46,0,0,1-.09-.91V24.24a4.53,4.53,0,0,1,.09-.91,1.1,1.1,0,0,1,.48-.7,2.59,2.59,0,0,1,1.33-.26,2.24,2.24,0,0,1,1.29.28,1.14,1.14,0,0,1,.47.71,4.62,4.62,0,0,1,.09.94V33a5.4,5.4,0,0,1-.08.91,1.06,1.06,0,0,1-.48.69A2.53,2.53,0,0,1,140.5,34.84Z"/><path class="cls-3" d="M146.72,34.82a2.41,2.41,0,0,1-1.31-.26,1,1,0,0,1-.47-.7,4.53,4.53,0,0,1-.09-.91v-8.8a4.19,4.19,0,0,1,.09-.89,1,1,0,0,1,.49-.66,2.58,2.58,0,0,1,1.32-.25,2.51,2.51,0,0,1,1.18.21,1.06,1.06,0,0,1,.49.52,1.64,1.64,0,0,1,.11.56,1,1,0,0,0,.05.36l-.15.47a1.43,1.43,0,0,1,.39-.76,3.35,3.35,0,0,1,.85-.7,4.32,4.32,0,0,1,1.1-.48,4,4,0,0,1,1.16-.18,5.05,5.05,0,0,1,2.14.44,4.29,4.29,0,0,1,1.58,1.26,5.65,5.65,0,0,1,1,1.94,8.56,8.56,0,0,1,.34,2.44V33a5.31,5.31,0,0,1-.08.91,1.06,1.06,0,0,1-.48.69,2.57,2.57,0,0,1-1.34.25,2.54,2.54,0,0,1-1.32-.26,1.08,1.08,0,0,1-.49-.7,4.63,4.63,0,0,1-.09-.92V28.43a2.78,2.78,0,0,0-.27-1.28,1.81,1.81,0,0,0-.75-.8,2.43,2.43,0,0,0-1.21-.27,2.59,2.59,0,0,0-1.25.28,2,2,0,0,0-.81.81,2.59,2.59,0,0,0-.29,1.25V33a4.56,4.56,0,0,1-.09.92,1,1,0,0,1-.48.68A2.47,2.47,0,0,1,146.72,34.82Z"/><path class="cls-3" d="M165.62,35.09a7.44,7.44,0,0,1-3-.58A5.86,5.86,0,0,1,160.55,33a6.38,6.38,0,0,1-1.2-2.08,6.92,6.92,0,0,1-.4-2.3,6.54,6.54,0,0,1,.85-3.33A6.12,6.12,0,0,1,162.17,23a7,7,0,0,1,3.46-.84,6.39,6.39,0,0,1,2.51.46,5.11,5.11,0,0,1,1.75,1.21,5,5,0,0,1,1,1.58,4.33,4.33,0,0,1,.34,1.63,2.82,2.82,0,0,1-.66,2.05,2.27,2.27,0,0,1-1.69.67h-6a1.74,1.74,0,0,0,.46,1.07,2.73,2.73,0,0,0,1,.7,3.69,3.69,0,0,0,1.32.26,8,8,0,0,0,1-.07,4.49,4.49,0,0,0,.79-.17l.59-.23.48-.18a1.89,1.89,0,0,1,.43-.1,1,1,0,0,1,.67.21,2.11,2.11,0,0,1,.58.71,2,2,0,0,1,.24.53,2.07,2.07,0,0,1,.06.5,1.38,1.38,0,0,1-.61,1.09,4.91,4.91,0,0,1-1.73.73A11.51,11.51,0,0,1,165.62,35.09ZM163,27.68h4a1.06,1.06,0,0,0,.58-.14.62.62,0,0,0,.2-.54,1.24,1.24,0,0,0-.28-.77,1.64,1.64,0,0,0-.74-.54,2.74,2.74,0,0,0-1.08-.19,3,3,0,0,0-1.35.3,2.39,2.39,0,0,0-.94.8A1.91,1.91,0,0,0,163,27.68Z"/><path class="cls-3" d="M183.55,34.85a2.34,2.34,0,0,1-1.38-.33.89.89,0,0,1-.42-.8l.25-.42a2.8,2.8,0,0,1-.58.61,4.11,4.11,0,0,1-1.11.65,4.34,4.34,0,0,1-1.66.28,5,5,0,0,1-2.19-.5A5.74,5.74,0,0,1,174.62,33a7,7,0,0,1-1.27-2,6,6,0,0,1-.47-2.38,5.81,5.81,0,0,1,.47-2.33,6.9,6.9,0,0,1,1.29-2,6.37,6.37,0,0,1,1.84-1.36,4.93,4.93,0,0,1,2.17-.5,4.11,4.11,0,0,1,1.58.27,4.5,4.5,0,0,1,1.09.61,3.43,3.43,0,0,1,.66.67l-.23-.35a1.05,1.05,0,0,1,.44-.91,2.42,2.42,0,0,1,1.39-.31,2.24,2.24,0,0,1,1.29.28,1.1,1.1,0,0,1,.47.72,4.86,4.86,0,0,1,.09.95V33a4.7,4.7,0,0,1-.09.92,1,1,0,0,1-.47.71A2.39,2.39,0,0,1,183.55,34.85Zm-4.38-3.73a2.13,2.13,0,0,0,1.2-.34,2.54,2.54,0,0,0,1.18-2.19,2.56,2.56,0,0,0-.32-1.28,2.42,2.42,0,0,0-.88-.89,2.3,2.3,0,0,0-1.22-.33,2.49,2.49,0,0,0-1.27.34,2.61,2.61,0,0,0-.9.91,2.56,2.56,0,0,0-.33,1.3,2.42,2.42,0,0,0,.33,1.24,2.6,2.6,0,0,0,2.21,1.24Z"/><path class="cls-3" d="M200.62,35a6.69,6.69,0,0,1-2.24-.41,7.2,7.2,0,0,1-2.1-1.22,5.77,5.77,0,0,1-1.53-2,6.85,6.85,0,0,1,0-5.47,6,6,0,0,1,1.53-2,7,7,0,0,1,2.09-1.21,6.52,6.52,0,0,1,2.21-.41,6,6,0,0,1,1.66.21,5.88,5.88,0,0,1,1.25.52,3.91,3.91,0,0,1,.74.52c.28.22.53.44.75.65a1.13,1.13,0,0,1,.3.85,1.64,1.64,0,0,1-.18.57,4.29,4.29,0,0,1-.37.58c-.52.7-1,1-1.5.95a2.27,2.27,0,0,1-.69-.25c-.21-.11-.41-.23-.6-.35a5.81,5.81,0,0,0-.61-.31,2,2,0,0,0-.75-.14,2.45,2.45,0,0,0-1.3.34,2.48,2.48,0,0,0-.92.9,2.52,2.52,0,0,0-.33,1.31,2.56,2.56,0,0,0,.33,1.3,2.61,2.61,0,0,0,.9.91,2.58,2.58,0,0,0,2,.24,2.16,2.16,0,0,0,.55-.24l.35-.21.57-.36a1.08,1.08,0,0,1,.55-.16,1.28,1.28,0,0,1,.74.26,4.7,4.7,0,0,1,.81.84,2,2,0,0,1,.49,1,1.26,1.26,0,0,1-.21.87,2.78,2.78,0,0,1-.85.76,4.47,4.47,0,0,1-.72.45,6.9,6.9,0,0,1-1.25.5A5.66,5.66,0,0,1,200.62,35Z"/><path class="cls-3" d="M213,34.86a5.25,5.25,0,0,1-2.18-.45A5.33,5.33,0,0,1,209,33.15a5.85,5.85,0,0,1-1.16-1.93,7,7,0,0,1-.41-2.43V24.26a4.42,4.42,0,0,1,.09-.92,1.08,1.08,0,0,1,.49-.7,3.25,3.25,0,0,1,2.64,0,1.14,1.14,0,0,1,.47.71,4.62,4.62,0,0,1,.09.94v4.5a2.78,2.78,0,0,0,.27,1.26,1.73,1.73,0,0,0,.77.81,2.46,2.46,0,0,0,1.21.28,2.5,2.5,0,0,0,1.24-.29,2,2,0,0,0,.8-.81,2.59,2.59,0,0,0,.29-1.25V24.24a4.42,4.42,0,0,1,.09-.92,1,1,0,0,1,.49-.69,2.47,2.47,0,0,1,1.32-.26,2.41,2.41,0,0,1,1.32.27,1.17,1.17,0,0,1,.47.71,4.63,4.63,0,0,1,.09.92v8.8a4.26,4.26,0,0,1-.09.89,1,1,0,0,1-.48.66,2.63,2.63,0,0,1-1.3.25,2.69,2.69,0,0,1-1-.16,1.16,1.16,0,0,1-.55-.37,1.06,1.06,0,0,1-.22-.47,3.91,3.91,0,0,1,0-.45l.32-.28a3.74,3.74,0,0,1-.32.39,6.27,6.27,0,0,1-.67.57,4,4,0,0,1-1,.54A3.35,3.35,0,0,1,213,34.86Z"/><path class="cls-3" d="M224,34.89a2.42,2.42,0,0,1-1.32-.26,1.09,1.09,0,0,1-.47-.71,4.73,4.73,0,0,1-.09-.93V24.27a5.46,5.46,0,0,1,.08-.93,1.08,1.08,0,0,1,.49-.68,2.47,2.47,0,0,1,1.33-.27,2.61,2.61,0,0,1,1.26.24,1.1,1.1,0,0,1,.49.55,2.08,2.08,0,0,1,.1.54l-.3.15a2,2,0,0,1,.26-.36,3.2,3.2,0,0,1,.59-.55,3.71,3.71,0,0,1,.91-.49,3.62,3.62,0,0,1,1.24-.2c.18,0,.39,0,.61,0a4.62,4.62,0,0,1,.7.15,3.32,3.32,0,0,1,.66.3,1.67,1.67,0,0,1,.49.46,1.16,1.16,0,0,1,.19.68,3.06,3.06,0,0,1-.48,1.74,1.42,1.42,0,0,1-1.2.71,2.11,2.11,0,0,1-.6-.06,1.3,1.3,0,0,1-.29-.16,1.26,1.26,0,0,0-.26-.14,1.39,1.39,0,0,0-.55-.07,2.71,2.71,0,0,0-.71.1,2.06,2.06,0,0,0-.63.31,1.63,1.63,0,0,0-.45.53,1.49,1.49,0,0,0-.16.71v5.48a4.53,4.53,0,0,1-.09.91,1,1,0,0,1-.49.69A2.6,2.6,0,0,1,224,34.89Z"/><path class="cls-3" d="M239.15,35a2.25,2.25,0,0,1-1-.22,1.5,1.5,0,0,1-.66-.7l-4.5-9a2.05,2.05,0,0,1-.26-1.49,2.06,2.06,0,0,1,1.14-1.06,2.4,2.4,0,0,1,1.51-.31c.38.09.71.49,1,1.19l2.8,6.5,2.8-6.42c.3-.72.64-1.14,1-1.25a2.22,2.22,0,0,1,1.56.32c.68.32,1.06.69,1.13,1.12a2.26,2.26,0,0,1-.31,1.46l-4.48,8.92a1.48,1.48,0,0,1-.65.7A2.26,2.26,0,0,1,239.15,35Z"/><path class="cls-3" d="M258,34.89a2.34,2.34,0,0,1-1.38-.33.88.88,0,0,1-.42-.8l.25-.42a2.82,2.82,0,0,1-.58.61,4.11,4.11,0,0,1-1.11.65,4.33,4.33,0,0,1-1.66.29,5,5,0,0,1-2.19-.5A6,6,0,0,1,249,33a7,7,0,0,1-1.27-2,6,6,0,0,1,0-4.71,6.72,6.72,0,0,1,1.29-2,6.07,6.07,0,0,1,1.84-1.36,4.8,4.8,0,0,1,2.17-.5,4.35,4.35,0,0,1,1.58.26,4.86,4.86,0,0,1,1.09.61,3.45,3.45,0,0,1,.66.68l-.23-.35a1.05,1.05,0,0,1,.44-.91,2.4,2.4,0,0,1,1.39-.31,2.34,2.34,0,0,1,1.29.27,1.19,1.19,0,0,1,.47.73,4.79,4.79,0,0,1,.09.95V33a4.73,4.73,0,0,1-.09.93,1,1,0,0,1-.47.71A2.5,2.5,0,0,1,258,34.89Zm-4.38-3.73a2.21,2.21,0,0,0,1.2-.33,2.51,2.51,0,0,0,.85-.92,2.48,2.48,0,0,0,.33-1.27,2.62,2.62,0,0,0-.32-1.29,2.5,2.5,0,0,0-.88-.89,2.41,2.41,0,0,0-1.22-.32,2.48,2.48,0,0,0-1.27.33,2.64,2.64,0,0,0-.9.92,2.54,2.54,0,0,0-.34,1.3,2.37,2.37,0,0,0,.34,1.23,2.44,2.44,0,0,0,.93.9A2.48,2.48,0,0,0,253.57,31.16Z"/><path class="cls-2" d="M126.35,34.84a2.44,2.44,0,0,1-1.31-.27,1,1,0,0,1-.5-.71,4.7,4.7,0,0,1-.09-.92V19.26a4.46,4.46,0,0,1,.09-.91,1.08,1.08,0,0,1,.48-.71,3.32,3.32,0,0,1,2.67,0,1.14,1.14,0,0,1,.47.71,4.62,4.62,0,0,1,.09.94V31.54h6.85a4.09,4.09,0,0,1,.8.08,1,1,0,0,1,.61.42,2.12,2.12,0,0,1,.24,1.15,2.09,2.09,0,0,1-.25,1.14,1,1,0,0,1-.61.44,4,4,0,0,1-.79.07Z"/><path class="cls-2" d="M139.53,21.44a.82.82,0,0,1-.74-.25,2.63,2.63,0,0,1-.51-1,2.11,2.11,0,0,1-.1-1.3,1.43,1.43,0,0,1,.93-.67l4.4-1.35a.9.9,0,0,1,.72.29,2.4,2.4,0,0,1,.5,1,1.93,1.93,0,0,1,.09,1.27,1.35,1.35,0,0,1-.91.68Zm1,13.4a2.42,2.42,0,0,1-1.32-.26,1.1,1.1,0,0,1-.47-.7,4.46,4.46,0,0,1-.09-.91V24.24a4.53,4.53,0,0,1,.09-.91,1.1,1.1,0,0,1,.48-.7,2.59,2.59,0,0,1,1.33-.26,2.24,2.24,0,0,1,1.29.28,1.14,1.14,0,0,1,.47.71,4.62,4.62,0,0,1,.09.94V33a5.4,5.4,0,0,1-.08.91,1.06,1.06,0,0,1-.48.69A2.53,2.53,0,0,1,140.5,34.84Z"/><path class="cls-2" d="M146.72,34.82a2.41,2.41,0,0,1-1.31-.26,1,1,0,0,1-.47-.7,4.53,4.53,0,0,1-.09-.91v-8.8a4.19,4.19,0,0,1,.09-.89,1,1,0,0,1,.49-.66,2.58,2.58,0,0,1,1.32-.25,2.51,2.51,0,0,1,1.18.21,1.06,1.06,0,0,1,.49.52,1.64,1.64,0,0,1,.11.56,1,1,0,0,0,.05.36l-.15.47a1.43,1.43,0,0,1,.39-.76,3.35,3.35,0,0,1,.85-.7,4.32,4.32,0,0,1,1.1-.48,4,4,0,0,1,1.16-.18,5.05,5.05,0,0,1,2.14.44,4.29,4.29,0,0,1,1.58,1.26,5.65,5.65,0,0,1,1,1.94,8.56,8.56,0,0,1,.34,2.44V33a5.31,5.31,0,0,1-.08.91,1.06,1.06,0,0,1-.48.69,2.57,2.57,0,0,1-1.34.25,2.54,2.54,0,0,1-1.32-.26,1.08,1.08,0,0,1-.49-.7,4.63,4.63,0,0,1-.09-.92V28.43a2.78,2.78,0,0,0-.27-1.28,1.81,1.81,0,0,0-.75-.8,2.43,2.43,0,0,0-1.21-.27,2.59,2.59,0,0,0-1.25.28,2,2,0,0,0-.81.81,2.59,2.59,0,0,0-.29,1.25V33a4.56,4.56,0,0,1-.09.92,1,1,0,0,1-.48.68A2.47,2.47,0,0,1,146.72,34.82Z"/><path class="cls-2" d="M165.62,35.09a7.44,7.44,0,0,1-3-.58A5.86,5.86,0,0,1,160.55,33a6.38,6.38,0,0,1-1.2-2.08,6.92,6.92,0,0,1-.4-2.3,6.54,6.54,0,0,1,.85-3.33A6.12,6.12,0,0,1,162.17,23a7,7,0,0,1,3.46-.84,6.39,6.39,0,0,1,2.51.46,5.11,5.11,0,0,1,1.75,1.21,5,5,0,0,1,1,1.58,4.33,4.33,0,0,1,.34,1.63,2.82,2.82,0,0,1-.66,2.05,2.27,2.27,0,0,1-1.69.67h-6a1.74,1.74,0,0,0,.46,1.07,2.73,2.73,0,0,0,1,.7,3.69,3.69,0,0,0,1.32.26,8,8,0,0,0,1-.07,4.49,4.49,0,0,0,.79-.17l.59-.23.48-.18a1.89,1.89,0,0,1,.43-.1,1,1,0,0,1,.67.21,2.11,2.11,0,0,1,.58.71,2,2,0,0,1,.24.53,2.07,2.07,0,0,1,.06.5,1.38,1.38,0,0,1-.61,1.09,4.91,4.91,0,0,1-1.73.73A11.51,11.51,0,0,1,165.62,35.09ZM163,27.68h4a1.06,1.06,0,0,0,.58-.14.62.62,0,0,0,.2-.54,1.24,1.24,0,0,0-.28-.77,1.64,1.64,0,0,0-.74-.54,2.74,2.74,0,0,0-1.08-.19,3,3,0,0,0-1.35.3,2.39,2.39,0,0,0-.94.8A1.91,1.91,0,0,0,163,27.68Z"/><path class="cls-2" d="M183.55,34.85a2.34,2.34,0,0,1-1.38-.33.89.89,0,0,1-.42-.8l.25-.42a2.8,2.8,0,0,1-.58.61,4.11,4.11,0,0,1-1.11.65,4.34,4.34,0,0,1-1.66.28,5,5,0,0,1-2.19-.5A5.74,5.74,0,0,1,174.62,33a7,7,0,0,1-1.27-2,6,6,0,0,1-.47-2.38,5.81,5.81,0,0,1,.47-2.33,6.9,6.9,0,0,1,1.29-2,6.37,6.37,0,0,1,1.84-1.36,4.93,4.93,0,0,1,2.17-.5,4.11,4.11,0,0,1,1.58.27,4.5,4.5,0,0,1,1.09.61,3.43,3.43,0,0,1,.66.67l-.23-.35a1.05,1.05,0,0,1,.44-.91,2.42,2.42,0,0,1,1.39-.31,2.24,2.24,0,0,1,1.29.28,1.1,1.1,0,0,1,.47.72,4.86,4.86,0,0,1,.09.95V33a4.7,4.7,0,0,1-.09.92,1,1,0,0,1-.47.71A2.39,2.39,0,0,1,183.55,34.85Zm-4.38-3.73a2.13,2.13,0,0,0,1.2-.34,2.54,2.54,0,0,0,1.18-2.19,2.56,2.56,0,0,0-.32-1.28,2.42,2.42,0,0,0-.88-.89,2.3,2.3,0,0,0-1.22-.33,2.49,2.49,0,0,0-1.27.34,2.61,2.61,0,0,0-.9.91,2.56,2.56,0,0,0-.33,1.3,2.42,2.42,0,0,0,.33,1.24,2.6,2.6,0,0,0,2.21,1.24Z"/><path class="cls-2" d="M200.62,35a6.69,6.69,0,0,1-2.24-.41,7.2,7.2,0,0,1-2.1-1.22,5.77,5.77,0,0,1-1.53-2,6.85,6.85,0,0,1,0-5.47,6,6,0,0,1,1.53-2,7,7,0,0,1,2.09-1.21,6.52,6.52,0,0,1,2.21-.41,6,6,0,0,1,1.66.21,5.88,5.88,0,0,1,1.25.52,3.91,3.91,0,0,1,.74.52c.28.22.53.44.75.65a1.13,1.13,0,0,1,.3.85,1.64,1.64,0,0,1-.18.57,4.29,4.29,0,0,1-.37.58c-.52.7-1,1-1.5.95a2.27,2.27,0,0,1-.69-.25c-.21-.11-.41-.23-.6-.35a5.81,5.81,0,0,0-.61-.31,2,2,0,0,0-.75-.14,2.45,2.45,0,0,0-1.3.34,2.48,2.48,0,0,0-.92.9,2.52,2.52,0,0,0-.33,1.31,2.56,2.56,0,0,0,.33,1.3,2.61,2.61,0,0,0,.9.91,2.58,2.58,0,0,0,2,.24,2.16,2.16,0,0,0,.55-.24l.35-.21.57-.36a1.08,1.08,0,0,1,.55-.16,1.28,1.28,0,0,1,.74.26,4.7,4.7,0,0,1,.81.84,2,2,0,0,1,.49,1,1.26,1.26,0,0,1-.21.87,2.78,2.78,0,0,1-.85.76,4.47,4.47,0,0,1-.72.45,6.9,6.9,0,0,1-1.25.5A5.66,5.66,0,0,1,200.62,35Z"/><path class="cls-2" d="M213,34.86a5.25,5.25,0,0,1-2.18-.45A5.33,5.33,0,0,1,209,33.15a5.85,5.85,0,0,1-1.16-1.93,7,7,0,0,1-.41-2.43V24.26a4.42,4.42,0,0,1,.09-.92,1.08,1.08,0,0,1,.49-.7,3.25,3.25,0,0,1,2.64,0,1.14,1.14,0,0,1,.47.71,4.62,4.62,0,0,1,.09.94v4.5a2.78,2.78,0,0,0,.27,1.26,1.73,1.73,0,0,0,.77.81,2.46,2.46,0,0,0,1.21.28,2.5,2.5,0,0,0,1.24-.29,2,2,0,0,0,.8-.81,2.59,2.59,0,0,0,.29-1.25V24.24a4.42,4.42,0,0,1,.09-.92,1,1,0,0,1,.49-.69,2.47,2.47,0,0,1,1.32-.26,2.41,2.41,0,0,1,1.32.27,1.17,1.17,0,0,1,.47.71,4.63,4.63,0,0,1,.09.92v8.8a4.26,4.26,0,0,1-.09.89,1,1,0,0,1-.48.66,2.63,2.63,0,0,1-1.3.25,2.69,2.69,0,0,1-1-.16,1.16,1.16,0,0,1-.55-.37,1.06,1.06,0,0,1-.22-.47,3.91,3.91,0,0,1,0-.45l.32-.28a3.74,3.74,0,0,1-.32.39,6.27,6.27,0,0,1-.67.57,4,4,0,0,1-1,.54A3.35,3.35,0,0,1,213,34.86Z"/><path class="cls-2" d="M224,34.89a2.42,2.42,0,0,1-1.32-.26,1.09,1.09,0,0,1-.47-.71,4.73,4.73,0,0,1-.09-.93V24.27a5.46,5.46,0,0,1,.08-.93,1.08,1.08,0,0,1,.49-.68,2.47,2.47,0,0,1,1.33-.27,2.61,2.61,0,0,1,1.26.24,1.1,1.1,0,0,1,.49.55,2.08,2.08,0,0,1,.1.54l-.3.15a2,2,0,0,1,.26-.36,3.2,3.2,0,0,1,.59-.55,3.71,3.71,0,0,1,.91-.49,3.62,3.62,0,0,1,1.24-.2c.18,0,.39,0,.61,0a4.62,4.62,0,0,1,.7.15,3.32,3.32,0,0,1,.66.3,1.67,1.67,0,0,1,.49.46,1.16,1.16,0,0,1,.19.68,3.06,3.06,0,0,1-.48,1.74,1.42,1.42,0,0,1-1.2.71,2.11,2.11,0,0,1-.6-.06,1.3,1.3,0,0,1-.29-.16,1.26,1.26,0,0,0-.26-.14,1.39,1.39,0,0,0-.55-.07,2.71,2.71,0,0,0-.71.1,2.06,2.06,0,0,0-.63.31,1.63,1.63,0,0,0-.45.53,1.49,1.49,0,0,0-.16.71v5.48a4.53,4.53,0,0,1-.09.91,1,1,0,0,1-.49.69A2.6,2.6,0,0,1,224,34.89Z"/><path class="cls-2" d="M239.15,35a2.25,2.25,0,0,1-1-.22,1.5,1.5,0,0,1-.66-.7l-4.5-9a2.05,2.05,0,0,1-.26-1.49,2.06,2.06,0,0,1,1.14-1.06,2.4,2.4,0,0,1,1.51-.31c.38.09.71.49,1,1.19l2.8,6.5,2.8-6.42c.3-.72.64-1.14,1-1.25a2.22,2.22,0,0,1,1.56.32c.68.32,1.06.69,1.13,1.12a2.26,2.26,0,0,1-.31,1.46l-4.48,8.92a1.48,1.48,0,0,1-.65.7A2.26,2.26,0,0,1,239.15,35Z"/><path class="cls-2" d="M258,34.89a2.34,2.34,0,0,1-1.38-.33.88.88,0,0,1-.42-.8l.25-.42a2.82,2.82,0,0,1-.58.61,4.11,4.11,0,0,1-1.11.65,4.33,4.33,0,0,1-1.66.29,5,5,0,0,1-2.19-.5A6,6,0,0,1,249,33a7,7,0,0,1-1.27-2,6,6,0,0,1,0-4.71,6.72,6.72,0,0,1,1.29-2,6.07,6.07,0,0,1,1.84-1.36,4.8,4.8,0,0,1,2.17-.5,4.35,4.35,0,0,1,1.58.26,4.86,4.86,0,0,1,1.09.61,3.45,3.45,0,0,1,.66.68l-.23-.35a1.05,1.05,0,0,1,.44-.91,2.4,2.4,0,0,1,1.39-.31,2.34,2.34,0,0,1,1.29.27,1.19,1.19,0,0,1,.47.73,4.79,4.79,0,0,1,.09.95V33a4.73,4.73,0,0,1-.09.93,1,1,0,0,1-.47.71A2.5,2.5,0,0,1,258,34.89Zm-4.38-3.73a2.21,2.21,0,0,0,1.2-.33,2.51,2.51,0,0,0,.85-.92,2.48,2.48,0,0,0,.33-1.27,2.62,2.62,0,0,0-.32-1.29,2.5,2.5,0,0,0-.88-.89,2.41,2.41,0,0,0-1.22-.32,2.48,2.48,0,0,0-1.27.33,2.64,2.64,0,0,0-.9.92,2.54,2.54,0,0,0-.34,1.3,2.37,2.37,0,0,0,.34,1.23,2.44,2.44,0,0,0,.93.9A2.48,2.48,0,0,0,253.57,31.16Z"/><path class="cls-4" d="M44.58,35.55q0,3.41-1.18,4.85a4.36,4.36,0,0,1-3.59,1.45,5.66,5.66,0,0,1-2.56-.5,3.26,3.26,0,0,1-1.49-1.85,11.09,11.09,0,0,1-.55-3.61l-.06-15.67a6.32,6.32,0,0,1-3.22-.73A2.6,2.6,0,0,1,30.67,17a2.76,2.76,0,0,1,1.16-2.29,5.16,5.16,0,0,1,3.24-.9c.54,0,1.31,0,2.3,0l2.1,0c2,0,3.36.34,4.05,1a5,5,0,0,1,1,3.59Z"/><path class="cls-4" d="M48.33,39a2.78,2.78,0,0,1,1.16-2.31,5.4,5.4,0,0,1,3.28-.88c3,0,4.44,1.07,4.44,3.19a3.11,3.11,0,0,1-.57,2,2.73,2.73,0,0,1-1.51,1,9.11,9.11,0,0,1-2.36.26,6.13,6.13,0,0,1-3.18-.76A2.62,2.62,0,0,1,48.33,39Z"/><path class="cls-4" d="M71.61,23c0-1.37-1.24-2.06-3.71-2.06a19.62,19.62,0,0,0-2.1.15,19.29,19.29,0,0,1-1.93.15q-2.94,0-2.93-3.62t8.47-3.73q5.5,0,8.23,1.84a5.63,5.63,0,0,1,2.73,4.83,7.77,7.77,0,0,1-3.51,6.64,9.52,9.52,0,0,1,3.32,2.71,7.26,7.26,0,0,1,.95,4,7.35,7.35,0,0,1-2.8,6,11.45,11.45,0,0,1-7.47,2.28c-3.92,0-6.72-.41-8.42-1.23a4,4,0,0,1-2.54-3.76,3.92,3.92,0,0,1,.82-2.88A3.15,3.15,0,0,1,63,33.49c.49,0,1.25.06,2.28.17s1.82.17,2.36.17c3,0,4.45-.56,4.45-1.68a1.63,1.63,0,0,0-.86-1.58A8,8,0,0,0,68,30.13a6.52,6.52,0,0,1-3.34-.63,2.58,2.58,0,0,1-1-2.35c0-1.73,1.11-2.6,3.34-2.6a17.65,17.65,0,0,0,3.2-.21c.69-.14,1.09-.3,1.2-.49A1.81,1.81,0,0,0,71.61,23Z"/><path class="cls-5" d="M44.58,35.55q0,3.41-1.18,4.85a4.36,4.36,0,0,1-3.59,1.45,5.66,5.66,0,0,1-2.56-.5,3.26,3.26,0,0,1-1.49-1.85,11.09,11.09,0,0,1-.55-3.61l-.06-15.67a6.32,6.32,0,0,1-3.22-.73A2.6,2.6,0,0,1,30.67,17a2.76,2.76,0,0,1,1.16-2.29,5.16,5.16,0,0,1,3.24-.9c.54,0,1.31,0,2.3,0l2.1,0c2,0,3.36.34,4.05,1a5,5,0,0,1,1,3.59Z"/><path class="cls-5" d="M48.33,39a2.78,2.78,0,0,1,1.16-2.31,5.4,5.4,0,0,1,3.28-.88c3,0,4.44,1.07,4.44,3.19a3.11,3.11,0,0,1-.57,2,2.73,2.73,0,0,1-1.51,1,9.11,9.11,0,0,1-2.36.26,6.13,6.13,0,0,1-3.18-.76A2.62,2.62,0,0,1,48.33,39Z"/><path class="cls-5" d="M71.61,23c0-1.37-1.24-2.06-3.71-2.06a19.62,19.62,0,0,0-2.1.15,19.29,19.29,0,0,1-1.93.15q-2.94,0-2.93-3.62t8.47-3.73q5.5,0,8.23,1.84a5.63,5.63,0,0,1,2.73,4.83,7.77,7.77,0,0,1-3.51,6.64,9.52,9.52,0,0,1,3.32,2.71,7.26,7.26,0,0,1,.95,4,7.35,7.35,0,0,1-2.8,6,11.45,11.45,0,0,1-7.47,2.28c-3.92,0-6.72-.41-8.42-1.23a4,4,0,0,1-2.54-3.76,3.92,3.92,0,0,1,.82-2.88A3.15,3.15,0,0,1,63,33.49c.49,0,1.25.06,2.28.17s1.82.17,2.36.17c3,0,4.45-.56,4.45-1.68a1.63,1.63,0,0,0-.86-1.58A8,8,0,0,0,68,30.13a6.52,6.52,0,0,1-3.34-.63,2.58,2.58,0,0,1-1-2.35c0-1.73,1.11-2.6,3.34-2.6a17.65,17.65,0,0,0,3.2-.21c.69-.14,1.09-.3,1.2-.49A1.81,1.81,0,0,0,71.61,23Z"/></g></g></svg>