<svg xmlns="http://www.w3.org/2000/svg" viewBox="0 0 399.98 89.18"><defs><style>.cls-1{fill:#a41010;}.cls-2{fill:#fff;}.cls-3,.cls-4{fill:none;stroke-width:5px;}.cls-3{stroke:#c8a927;stroke-linejoin:round;}.cls-4{stroke:#fff;}.cls-5{fill:#c8a927;}</style></defs><title>14tt</title><g id="Layer_2" data-name="Layer 2"><g id="pestaña_identificativa" data-name="pestaña identificativa"><rect class="cls-1" width="399.98" height="89.18" rx="34.2"/><path class="cls-2" d="M125.45,34.89a1.86,1.86,0,0,1-1.9-1.93,2.38,2.38,0,0,1,.06-.55.81.81,0,0,1,.21-.4l7.71-10.92h-6a4.91,4.91,0,0,1-.94-.09,1.22,1.22,0,0,1-.76-.48,2.09,2.09,0,0,1-.3-1.26,2.41,2.41,0,0,1,.27-1.32,1.15,1.15,0,0,1,.73-.5,4.05,4.05,0,0,1,.92-.1h9.65a1.76,1.76,0,0,1,1.34.57,1.89,1.89,0,0,1,.54,1.36,2.23,2.23,0,0,1-.08.6,1.18,1.18,0,0,1-.22.45l-7.66,10.87h6.43a4.42,4.42,0,0,1,.92.09,1.1,1.1,0,0,1,.69.48,2.27,2.27,0,0,1,.26,1.23,2.37,2.37,0,0,1-.28,1.33,1.11,1.11,0,0,1-.7.49,5.44,5.44,0,0,1-1,.08Z"/><path class="cls-2" d="M141.36,20.55a2.56,2.56,0,0,1-1.35-.28,1.11,1.11,0,0,1-.49-.73,5.11,5.11,0,0,1,0-1.91,1.09,1.09,0,0,1,.5-.7,2.71,2.71,0,0,1,1.36-.26,2.37,2.37,0,0,1,1.33.28,1.09,1.09,0,0,1,.49.72,6,6,0,0,1,.08,1,4.7,4.7,0,0,1-.09.92,1,1,0,0,1-.48.71A2.53,2.53,0,0,1,141.36,20.55Zm0,14.3a2.47,2.47,0,0,1-1.33-.27,1,1,0,0,1-.47-.7,5.31,5.31,0,0,1-.08-.91V24.24a4.53,4.53,0,0,1,.09-.91,1.08,1.08,0,0,1,.49-.7,2.52,2.52,0,0,1,1.32-.26,2.24,2.24,0,0,1,1.29.28,1.1,1.1,0,0,1,.47.71,4.62,4.62,0,0,1,.09.94V33a5.4,5.4,0,0,1-.08.91,1.06,1.06,0,0,1-.48.69A2.62,2.62,0,0,1,141.35,34.85Z"/><path class="cls-2" d="M151.07,34.53a5,5,0,0,1-2.16-.49,6,6,0,0,1-1.79-1.34,6.76,6.76,0,0,1-1.22-2,6.12,6.12,0,0,1-.45-2.33,6,6,0,0,1,.45-2.31,6.3,6.3,0,0,1,3-3.25,4.9,4.9,0,0,1,2.12-.48,3.74,3.74,0,0,1,1.9.44,3.24,3.24,0,0,1,1.24,1.25,6.4,6.4,0,0,1,.72,1.92,12.56,12.56,0,0,1,.23,2.49,11.33,11.33,0,0,1-.41,3.21,4.27,4.27,0,0,1-1.3,2.1A3.61,3.61,0,0,1,151.07,34.53Zm.45,5.47a6.9,6.9,0,0,1-1.76-.22,7.5,7.5,0,0,1-1.59-.61,4.45,4.45,0,0,1-1.15-.8,1.21,1.21,0,0,1-.42-.85,1.77,1.77,0,0,1,.15-.73,2.46,2.46,0,0,1,.45-.67,4.94,4.94,0,0,1,.6-.57.92.92,0,0,1,.6-.2,1,1,0,0,1,.62.19c.19.12.38.26.59.41a3.41,3.41,0,0,0,.79.41,3.14,3.14,0,0,0,1.2.19,2.41,2.41,0,0,0,.93-.18,2,2,0,0,0,.75-.55,2.8,2.8,0,0,0,.69-1.94V23.53a1.23,1.23,0,0,1,.51-.94,2.49,2.49,0,0,1,1.34-.29,2.21,2.21,0,0,1,1.25.27,1.06,1.06,0,0,1,.46.69,4.29,4.29,0,0,1,.09.9V34a5.88,5.88,0,0,1-.52,2.54,5.71,5.71,0,0,1-1.4,1.87A6.4,6.4,0,0,1,151.52,40Zm0-9.1a2.21,2.21,0,0,0,1.2-.33,2.65,2.65,0,0,0,.84-.89,2.49,2.49,0,0,0,.31-1.25,2.44,2.44,0,0,0-.31-1.25,2.39,2.39,0,0,0-.85-.88,2.35,2.35,0,0,0-1.21-.32,2.21,2.21,0,0,0-1.2.33,2.56,2.56,0,0,0-.84.89,2.6,2.6,0,0,0,0,2.48,2.59,2.59,0,0,0,.86.88A2.17,2.17,0,0,0,151.5,30.9Z"/><path class="cls-2" d="M161.57,34.86a1.79,1.79,0,0,1-1.31-.54,1.81,1.81,0,0,1-.54-1.34,2,2,0,0,1,.14-.72,1.85,1.85,0,0,1,.41-.63L166,26.14h-3.8a3.91,3.91,0,0,1-.91-.1,1.23,1.23,0,0,1-.73-.49,2.25,2.25,0,0,1-.28-1.31,2.21,2.21,0,0,1,.29-1.31,1.11,1.11,0,0,1,.72-.47,4.53,4.53,0,0,1,.91-.09H170a1.81,1.81,0,0,1,1.85,1.85,2.19,2.19,0,0,1-.14.77,1.42,1.42,0,0,1-.39.58l-5.55,5.53h4.52a3.9,3.9,0,0,1,.93.1,1.14,1.14,0,0,1,.69.5,2.57,2.57,0,0,1,.26,1.32,2.28,2.28,0,0,1-.28,1.3,1,1,0,0,1-.7.48,5.29,5.29,0,0,1-.92.07Z"/><path class="cls-2" d="M184.4,34.85a2.34,2.34,0,0,1-1.38-.33.89.89,0,0,1-.42-.8l.25-.42a2.8,2.8,0,0,1-.58.61,4.11,4.11,0,0,1-1.11.65,4.34,4.34,0,0,1-1.66.28,4.88,4.88,0,0,1-2.19-.5A5.85,5.85,0,0,1,175.47,33a7.21,7.21,0,0,1-1.27-2,6.13,6.13,0,0,1,0-4.71,6.9,6.9,0,0,1,1.29-2,6.56,6.56,0,0,1,1.84-1.36,4.93,4.93,0,0,1,2.17-.5,4.11,4.11,0,0,1,1.58.27,4.5,4.5,0,0,1,1.09.61,3.2,3.2,0,0,1,.66.68l-.23-.35a1.07,1.07,0,0,1,.44-.92,2.51,2.51,0,0,1,1.39-.31,2.24,2.24,0,0,1,1.29.28,1.1,1.1,0,0,1,.47.72,4.86,4.86,0,0,1,.09.95V33a5.62,5.62,0,0,1-.08.92,1.07,1.07,0,0,1-.48.71A2.39,2.39,0,0,1,184.4,34.85ZM180,31.12a2.13,2.13,0,0,0,1.2-.34,2.6,2.6,0,0,0,1.18-2.18,2.57,2.57,0,0,0-.32-1.29,2.42,2.42,0,0,0-.88-.89,2.33,2.33,0,0,0-1.22-.33,2.49,2.49,0,0,0-1.27.34,2.7,2.7,0,0,0-.9.91,2.59,2.59,0,0,0-.33,1.3,2.42,2.42,0,0,0,.33,1.24,2.59,2.59,0,0,0,.93.9A2.48,2.48,0,0,0,180,31.12Z"/><path class="cls-2" d="M194,34.55a4.89,4.89,0,0,1-2.17-.49A5.77,5.77,0,0,1,190,32.73a6.5,6.5,0,0,1-1.23-2,6,6,0,0,1-.44-2.32,6,6,0,0,1,.45-2.31A6.2,6.2,0,0,1,190,24.21a5.82,5.82,0,0,1,1.8-1.32,4.73,4.73,0,0,1,2.11-.49,3.84,3.84,0,0,1,1.9.44,3.41,3.41,0,0,1,1.25,1.25,6.74,6.74,0,0,1,.71,1.93A11.79,11.79,0,0,1,198,28.5a11.33,11.33,0,0,1-.42,3.22,4.2,4.2,0,0,1-1.3,2.1A3.58,3.58,0,0,1,194,34.55Zm.44,5.48a7,7,0,0,1-1.76-.23,7.92,7.92,0,0,1-1.59-.6,4.91,4.91,0,0,1-1.15-.8,1.23,1.23,0,0,1-.42-.85,1.81,1.81,0,0,1,.15-.74,2.58,2.58,0,0,1,.45-.66,4.94,4.94,0,0,1,.6-.57.91.91,0,0,1,.6-.2,1.16,1.16,0,0,1,.63.18l.58.42a3.85,3.85,0,0,0,.79.41,3.43,3.43,0,0,0,1.2.19,2.29,2.29,0,0,0,.94-.19,2,2,0,0,0,.75-.55,2.85,2.85,0,0,0,.5-.85,3.11,3.11,0,0,0,.19-1.09V23.55a1.19,1.19,0,0,1,.52-.93,2.45,2.45,0,0,1,1.33-.29,2.28,2.28,0,0,1,1.25.26,1.13,1.13,0,0,1,.47.69,5.29,5.29,0,0,1,.08.9v9.88a5.84,5.84,0,0,1-.53,2.53,5.75,5.75,0,0,1-1.4,1.88,6.34,6.34,0,0,1-1.95,1.16A6.51,6.51,0,0,1,194.39,40Zm0-9.1a2.13,2.13,0,0,0,1.2-.34,2.48,2.48,0,0,0,.84-.89,2.45,2.45,0,0,0,.32-1.25,2.5,2.5,0,0,0-.32-1.25,2.29,2.29,0,0,0-.85-.87,2.24,2.24,0,0,0-1.21-.33,2.13,2.13,0,0,0-1.2.34,2.48,2.48,0,0,0-.84.89,2.54,2.54,0,0,0-.31,1.25,2.41,2.41,0,0,0,.32,1.22,2.65,2.65,0,0,0,.87.89A2.22,2.22,0,0,0,194.37,30.93Z"/><path class="cls-3" d="M125.45,34.89a1.86,1.86,0,0,1-1.9-1.93,2.38,2.38,0,0,1,.06-.55.81.81,0,0,1,.21-.4l7.71-10.92h-6a4.91,4.91,0,0,1-.94-.09,1.22,1.22,0,0,1-.76-.48,2.09,2.09,0,0,1-.3-1.26,2.41,2.41,0,0,1,.27-1.32,1.15,1.15,0,0,1,.73-.5,4.05,4.05,0,0,1,.92-.1h9.65a1.76,1.76,0,0,1,1.34.57,1.89,1.89,0,0,1,.54,1.36,2.23,2.23,0,0,1-.08.6,1.18,1.18,0,0,1-.22.45l-7.66,10.87h6.43a4.42,4.42,0,0,1,.92.09,1.1,1.1,0,0,1,.69.48,2.27,2.27,0,0,1,.26,1.23,2.37,2.37,0,0,1-.28,1.33,1.11,1.11,0,0,1-.7.49,5.44,5.44,0,0,1-1,.08Z"/><path class="cls-3" d="M141.36,20.55a2.56,2.56,0,0,1-1.35-.28,1.11,1.11,0,0,1-.49-.73,5.11,5.11,0,0,1,0-1.91,1.09,1.09,0,0,1,.5-.7,2.71,2.71,0,0,1,1.36-.26,2.37,2.37,0,0,1,1.33.28,1.09,1.09,0,0,1,.49.72,6,6,0,0,1,.08,1,4.7,4.7,0,0,1-.09.92,1,1,0,0,1-.48.71A2.53,2.53,0,0,1,141.36,20.55Zm0,14.3a2.47,2.47,0,0,1-1.33-.27,1,1,0,0,1-.47-.7,5.31,5.31,0,0,1-.08-.91V24.24a4.53,4.53,0,0,1,.09-.91,1.08,1.08,0,0,1,.49-.7,2.52,2.52,0,0,1,1.32-.26,2.24,2.24,0,0,1,1.29.28,1.1,1.1,0,0,1,.47.71,4.62,4.62,0,0,1,.09.94V33a5.4,5.4,0,0,1-.08.91,1.06,1.06,0,0,1-.48.69A2.62,2.62,0,0,1,141.35,34.85Z"/><path class="cls-3" d="M151.07,34.53a5,5,0,0,1-2.16-.49,6,6,0,0,1-1.79-1.34,6.76,6.76,0,0,1-1.22-2,6.12,6.12,0,0,1-.45-2.33,6,6,0,0,1,.45-2.31,6.3,6.3,0,0,1,3-3.25,4.9,4.9,0,0,1,2.12-.48,3.74,3.74,0,0,1,1.9.44,3.24,3.24,0,0,1,1.24,1.25,6.4,6.4,0,0,1,.72,1.92,12.56,12.56,0,0,1,.23,2.49,11.33,11.33,0,0,1-.41,3.21,4.27,4.27,0,0,1-1.3,2.1A3.61,3.61,0,0,1,151.07,34.53Zm.45,5.47a6.9,6.9,0,0,1-1.76-.22,7.5,7.5,0,0,1-1.59-.61,4.45,4.45,0,0,1-1.15-.8,1.21,1.21,0,0,1-.42-.85,1.77,1.77,0,0,1,.15-.73,2.46,2.46,0,0,1,.45-.67,4.94,4.94,0,0,1,.6-.57.92.92,0,0,1,.6-.2,1,1,0,0,1,.62.19c.19.12.38.26.59.41a3.41,3.41,0,0,0,.79.41,3.14,3.14,0,0,0,1.2.19,2.41,2.41,0,0,0,.93-.18,2,2,0,0,0,.75-.55,2.8,2.8,0,0,0,.69-1.94V23.53a1.23,1.23,0,0,1,.51-.94,2.49,2.49,0,0,1,1.34-.29,2.21,2.21,0,0,1,1.25.27,1.06,1.06,0,0,1,.46.69,4.29,4.29,0,0,1,.09.9V34a5.88,5.88,0,0,1-.52,2.54,5.71,5.71,0,0,1-1.4,1.87A6.4,6.4,0,0,1,151.52,40Zm0-9.1a2.21,2.21,0,0,0,1.2-.33,2.65,2.65,0,0,0,.84-.89,2.49,2.49,0,0,0,.31-1.25,2.44,2.44,0,0,0-.31-1.25,2.39,2.39,0,0,0-.85-.88,2.35,2.35,0,0,0-1.21-.32,2.21,2.21,0,0,0-1.2.33,2.56,2.56,0,0,0-.84.89,2.6,2.6,0,0,0,0,2.48,2.59,2.59,0,0,0,.86.88A2.17,2.17,0,0,0,151.5,30.9Z"/><path class="cls-3" d="M161.57,34.86a1.79,1.79,0,0,1-1.31-.54,1.81,1.81,0,0,1-.54-1.34,2,2,0,0,1,.14-.72,1.85,1.85,0,0,1,.41-.63L166,26.14h-3.8a3.91,3.91,0,0,1-.91-.1,1.23,1.23,0,0,1-.73-.49,2.25,2.25,0,0,1-.28-1.31,2.21,2.21,0,0,1,.29-1.31,1.11,1.11,0,0,1,.72-.47,4.53,4.53,0,0,1,.91-.09H170a1.81,1.81,0,0,1,1.85,1.85,2.19,2.19,0,0,1-.14.77,1.42,1.42,0,0,1-.39.58l-5.55,5.53h4.52a3.9,3.9,0,0,1,.93.1,1.14,1.14,0,0,1,.69.5,2.57,2.57,0,0,1,.26,1.32,2.28,2.28,0,0,1-.28,1.3,1,1,0,0,1-.7.48,5.29,5.29,0,0,1-.92.07Z"/><path class="cls-3" d="M184.4,34.85a2.34,2.34,0,0,1-1.38-.33.89.89,0,0,1-.42-.8l.25-.42a2.8,2.8,0,0,1-.58.61,4.11,4.11,0,0,1-1.11.65,4.34,4.34,0,0,1-1.66.28,4.88,4.88,0,0,1-2.19-.5A5.85,5.85,0,0,1,175.47,33a7.21,7.21,0,0,1-1.27-2,6.13,6.13,0,0,1,0-4.71,6.9,6.9,0,0,1,1.29-2,6.56,6.56,0,0,1,1.84-1.36,4.93,4.93,0,0,1,2.17-.5,4.11,4.11,0,0,1,1.58.27,4.5,4.5,0,0,1,1.09.61,3.2,3.2,0,0,1,.66.68l-.23-.35a1.07,1.07,0,0,1,.44-.92,2.51,2.51,0,0,1,1.39-.31,2.24,2.24,0,0,1,1.29.28,1.1,1.1,0,0,1,.47.72,4.86,4.86,0,0,1,.09.95V33a5.62,5.62,0,0,1-.08.92,1.07,1.07,0,0,1-.48.71A2.39,2.39,0,0,1,184.4,34.85ZM180,31.12a2.13,2.13,0,0,0,1.2-.34,2.6,2.6,0,0,0,1.18-2.18,2.57,2.57,0,0,0-.32-1.29,2.42,2.42,0,0,0-.88-.89,2.33,2.33,0,0,0-1.22-.33,2.49,2.49,0,0,0-1.27.34,2.7,2.7,0,0,0-.9.91,2.59,2.59,0,0,0-.33,1.3,2.42,2.42,0,0,0,.33,1.24,2.59,2.59,0,0,0,.93.9A2.48,2.48,0,0,0,180,31.12Z"/><path class="cls-3" d="M194,34.55a4.89,4.89,0,0,1-2.17-.49A5.77,5.77,0,0,1,190,32.73a6.5,6.5,0,0,1-1.23-2,6,6,0,0,1-.44-2.32,6,6,0,0,1,.45-2.31A6.2,6.2,0,0,1,190,24.21a5.82,5.82,0,0,1,1.8-1.32,4.73,4.73,0,0,1,2.11-.49,3.84,3.84,0,0,1,1.9.44,3.41,3.41,0,0,1,1.25,1.25,6.74,6.74,0,0,1,.71,1.93A11.79,11.79,0,0,1,198,28.5a11.33,11.33,0,0,1-.42,3.22,4.2,4.2,0,0,1-1.3,2.1A3.58,3.58,0,0,1,194,34.55Zm.44,5.48a7,7,0,0,1-1.76-.23,7.92,7.92,0,0,1-1.59-.6,4.91,4.91,0,0,1-1.15-.8,1.23,1.23,0,0,1-.42-.85,1.81,1.81,0,0,1,.15-.74,2.58,2.58,0,0,1,.45-.66,4.94,4.94,0,0,1,.6-.57.91.91,0,0,1,.6-.2,1.16,1.16,0,0,1,.63.18l.58.42a3.85,3.85,0,0,0,.79.41,3.43,3.43,0,0,0,1.2.19,2.29,2.29,0,0,0,.94-.19,2,2,0,0,0,.75-.55,2.85,2.85,0,0,0,.5-.85,3.11,3.11,0,0,0,.19-1.09V23.55a1.19,1.19,0,0,1,.52-.93,2.45,2.45,0,0,1,1.33-.29,2.28,2.28,0,0,1,1.25.26,1.13,1.13,0,0,1,.47.69,5.29,5.29,0,0,1,.08.9v9.88a5.84,5.84,0,0,1-.53,2.53,5.75,5.75,0,0,1-1.4,1.88,6.34,6.34,0,0,1-1.95,1.16A6.51,6.51,0,0,1,194.39,40Zm0-9.1a2.13,2.13,0,0,0,1.2-.34,2.48,2.48,0,0,0,.84-.89,2.45,2.45,0,0,0,.32-1.25,2.5,2.5,0,0,0-.32-1.25,2.29,2.29,0,0,0-.85-.87,2.24,2.24,0,0,0-1.21-.33,2.13,2.13,0,0,0-1.2.34,2.48,2.48,0,0,0-.84.89,2.54,2.54,0,0,0-.31,1.25,2.41,2.41,0,0,0,.32,1.22,2.65,2.65,0,0,0,.87.89A2.22,2.22,0,0,0,194.37,30.93Z"/><path class="cls-2" d="M125.45,34.89a1.86,1.86,0,0,1-1.9-1.93,2.38,2.38,0,0,1,.06-.55.81.81,0,0,1,.21-.4l7.71-10.92h-6a4.91,4.91,0,0,1-.94-.09,1.22,1.22,0,0,1-.76-.48,2.09,2.09,0,0,1-.3-1.26,2.41,2.41,0,0,1,.27-1.32,1.15,1.15,0,0,1,.73-.5,4.05,4.05,0,0,1,.92-.1h9.65a1.76,1.76,0,0,1,1.34.57,1.89,1.89,0,0,1,.54,1.36,2.23,2.23,0,0,1-.08.6,1.18,1.18,0,0,1-.22.45l-7.66,10.87h6.43a4.42,4.42,0,0,1,.92.09,1.1,1.1,0,0,1,.69.48,2.27,2.27,0,0,1,.26,1.23,2.37,2.37,0,0,1-.28,1.33,1.11,1.11,0,0,1-.7.49,5.44,5.44,0,0,1-1,.08Z"/><path class="cls-2" d="M141.36,20.55a2.56,2.56,0,0,1-1.35-.28,1.11,1.11,0,0,1-.49-.73,5.11,5.11,0,0,1,0-1.91,1.09,1.09,0,0,1,.5-.7,2.71,2.71,0,0,1,1.36-.26,2.37,2.37,0,0,1,1.33.28,1.09,1.09,0,0,1,.49.72,6,6,0,0,1,.08,1,4.7,4.7,0,0,1-.09.92,1,1,0,0,1-.48.71A2.53,2.53,0,0,1,141.36,20.55Zm0,14.3a2.47,2.47,0,0,1-1.33-.27,1,1,0,0,1-.47-.7,5.31,5.31,0,0,1-.08-.91V24.24a4.53,4.53,0,0,1,.09-.91,1.08,1.08,0,0,1,.49-.7,2.52,2.52,0,0,1,1.32-.26,2.24,2.24,0,0,1,1.29.28,1.1,1.1,0,0,1,.47.71,4.62,4.62,0,0,1,.09.94V33a5.4,5.4,0,0,1-.08.91,1.06,1.06,0,0,1-.48.69A2.62,2.62,0,0,1,141.35,34.85Z"/><path class="cls-2" d="M151.07,34.53a5,5,0,0,1-2.16-.49,6,6,0,0,1-1.79-1.34,6.76,6.76,0,0,1-1.22-2,6.12,6.12,0,0,1-.45-2.33,6,6,0,0,1,.45-2.31,6.3,6.3,0,0,1,3-3.25,4.9,4.9,0,0,1,2.12-.48,3.74,3.74,0,0,1,1.9.44,3.24,3.24,0,0,1,1.24,1.25,6.4,6.4,0,0,1,.72,1.92,12.56,12.56,0,0,1,.23,2.49,11.33,11.33,0,0,1-.41,3.21,4.27,4.27,0,0,1-1.3,2.1A3.61,3.61,0,0,1,151.07,34.53Zm.45,5.47a6.9,6.9,0,0,1-1.76-.22,7.5,7.5,0,0,1-1.59-.61,4.45,4.45,0,0,1-1.15-.8,1.21,1.21,0,0,1-.42-.85,1.77,1.77,0,0,1,.15-.73,2.46,2.46,0,0,1,.45-.67,4.94,4.94,0,0,1,.6-.57.92.92,0,0,1,.6-.2,1,1,0,0,1,.62.19c.19.12.38.26.59.41a3.41,3.41,0,0,0,.79.41,3.14,3.14,0,0,0,1.2.19,2.41,2.41,0,0,0,.93-.18,2,2,0,0,0,.75-.55,2.8,2.8,0,0,0,.69-1.94V23.53a1.23,1.23,0,0,1,.51-.94,2.49,2.49,0,0,1,1.34-.29,2.21,2.21,0,0,1,1.25.27,1.06,1.06,0,0,1,.46.69,4.29,4.29,0,0,1,.09.9V34a5.88,5.88,0,0,1-.52,2.54,5.71,5.71,0,0,1-1.4,1.87A6.4,6.4,0,0,1,151.52,40Zm0-9.1a2.21,2.21,0,0,0,1.2-.33,2.65,2.65,0,0,0,.84-.89,2.49,2.49,0,0,0,.31-1.25,2.44,2.44,0,0,0-.31-1.25,2.39,2.39,0,0,0-.85-.88,2.35,2.35,0,0,0-1.21-.32,2.21,2.21,0,0,0-1.2.33,2.56,2.56,0,0,0-.84.89,2.6,2.6,0,0,0,0,2.48,2.59,2.59,0,0,0,.86.88A2.17,2.17,0,0,0,151.5,30.9Z"/><path class="cls-2" d="M161.57,34.86a1.79,1.79,0,0,1-1.31-.54,1.81,1.81,0,0,1-.54-1.34,2,2,0,0,1,.14-.72,1.85,1.85,0,0,1,.41-.63L166,26.14h-3.8a3.91,3.91,0,0,1-.91-.1,1.23,1.23,0,0,1-.73-.49,2.25,2.25,0,0,1-.28-1.31,2.21,2.21,0,0,1,.29-1.31,1.11,1.11,0,0,1,.72-.47,4.53,4.53,0,0,1,.91-.09H170a1.81,1.81,0,0,1,1.85,1.85,2.19,2.19,0,0,1-.14.77,1.42,1.42,0,0,1-.39.58l-5.55,5.53h4.52a3.9,3.9,0,0,1,.93.1,1.14,1.14,0,0,1,.69.5,2.57,2.57,0,0,1,.26,1.32,2.28,2.28,0,0,1-.28,1.3,1,1,0,0,1-.7.48,5.29,5.29,0,0,1-.92.07Z"/><path class="cls-2" d="M184.4,34.85a2.34,2.34,0,0,1-1.38-.33.89.89,0,0,1-.42-.8l.25-.42a2.8,2.8,0,0,1-.58.61,4.11,4.11,0,0,1-1.11.65,4.34,4.34,0,0,1-1.66.28,4.88,4.88,0,0,1-2.19-.5A5.85,5.85,0,0,1,175.47,33a7.21,7.21,0,0,1-1.27-2,6.13,6.13,0,0,1,0-4.71,6.9,6.9,0,0,1,1.29-2,6.56,6.56,0,0,1,1.84-1.36,4.93,4.93,0,0,1,2.17-.5,4.11,4.11,0,0,1,1.58.27,4.5,4.5,0,0,1,1.09.61,3.2,3.2,0,0,1,.66.68l-.23-.35a1.07,1.07,0,0,1,.44-.92,2.51,2.51,0,0,1,1.39-.31,2.24,2.24,0,0,1,1.29.28,1.1,1.1,0,0,1,.47.72,4.86,4.86,0,0,1,.09.95V33a5.62,5.62,0,0,1-.08.92,1.07,1.07,0,0,1-.48.71A2.39,2.39,0,0,1,184.4,34.85ZM180,31.12a2.13,2.13,0,0,0,1.2-.34,2.6,2.6,0,0,0,1.18-2.18,2.57,2.57,0,0,0-.32-1.29,2.42,2.42,0,0,0-.88-.89,2.33,2.33,0,0,0-1.22-.33,2.49,2.49,0,0,0-1.27.34,2.7,2.7,0,0,0-.9.91,2.59,2.59,0,0,0-.33,1.3,2.42,2.42,0,0,0,.33,1.24,2.59,2.59,0,0,0,.93.9A2.48,2.48,0,0,0,180,31.12Z"/><path class="cls-2" d="M194,34.55a4.89,4.89,0,0,1-2.17-.49A5.77,5.77,0,0,1,190,32.73a6.5,6.5,0,0,1-1.23-2,6,6,0,0,1-.44-2.32,6,6,0,0,1,.45-2.31A6.2,6.2,0,0,1,190,24.21a5.82,5.82,0,0,1,1.8-1.32,4.73,4.73,0,0,1,2.11-.49,3.84,3.84,0,0,1,1.9.44,3.41,3.41,0,0,1,1.25,1.25,6.74,6.74,0,0,1,.71,1.93A11.79,11.79,0,0,1,198,28.5a11.33,11.33,0,0,1-.42,3.22,4.2,4.2,0,0,1-1.3,2.1A3.58,3.58,0,0,1,194,34.55Zm.44,5.48a7,7,0,0,1-1.76-.23,7.92,7.92,0,0,1-1.59-.6,4.91,4.91,0,0,1-1.15-.8,1.23,1.23,0,0,1-.42-.85,1.81,1.81,0,0,1,.15-.74,2.58,2.58,0,0,1,.45-.66,4.94,4.94,0,0,1,.6-.57.91.91,0,0,1,.6-.2,1.16,1.16,0,0,1,.63.18l.58.42a3.85,3.85,0,0,0,.79.41,3.43,3.43,0,0,0,1.2.19,2.29,2.29,0,0,0,.94-.19,2,2,0,0,0,.75-.55,2.85,2.85,0,0,0,.5-.85,3.11,3.11,0,0,0,.19-1.09V23.55a1.19,1.19,0,0,1,.52-.93,2.45,2.45,0,0,1,1.33-.29,2.28,2.28,0,0,1,1.25.26,1.13,1.13,0,0,1,.47.69,5.29,5.29,0,0,1,.08.9v9.88a5.84,5.84,0,0,1-.53,2.53,5.75,5.75,0,0,1-1.4,1.88,6.34,6.34,0,0,1-1.95,1.16A6.51,6.51,0,0,1,194.39,40Zm0-9.1a2.13,2.13,0,0,0,1.2-.34,2.48,2.48,0,0,0,.84-.89,2.45,2.45,0,0,0,.32-1.25,2.5,2.5,0,0,0-.32-1.25,2.29,2.29,0,0,0-.85-.87,2.24,2.24,0,0,0-1.21-.33,2.13,2.13,0,0,0-1.2.34,2.48,2.48,0,0,0-.84.89,2.54,2.54,0,0,0-.31,1.25,2.41,2.41,0,0,0,.32,1.22,2.65,2.65,0,0,0,.87.89A2.22,2.22,0,0,0,194.37,30.93Z"/><path class="cls-4" d="M44.58,35.55q0,3.41-1.18,4.85a4.36,4.36,0,0,1-3.59,1.45,5.66,5.66,0,0,1-2.56-.5,3.26,3.26,0,0,1-1.49-1.85,11.09,11.09,0,0,1-.55-3.61l-.06-15.67a6.32,6.32,0,0,1-3.22-.73A2.6,2.6,0,0,1,30.67,17a2.76,2.76,0,0,1,1.16-2.29,5.16,5.16,0,0,1,3.24-.9c.54,0,1.31,0,2.3,0l2.1,0c2,0,3.36.34,4.05,1a5,5,0,0,1,1,3.59Z"/><path class="cls-4" d="M48.33,39a2.78,2.78,0,0,1,1.16-2.31,5.4,5.4,0,0,1,3.28-.88c3,0,4.44,1.07,4.44,3.19a3.11,3.11,0,0,1-.57,2,2.73,2.73,0,0,1-1.51,1,9.11,9.11,0,0,1-2.36.26,6.13,6.13,0,0,1-3.18-.76A2.62,2.62,0,0,1,48.33,39Z"/><path class="cls-4" d="M73.14,41.85a4.25,4.25,0,0,1-3.51-1.36c-.73-.91-1.09-2.5-1.09-4.77H61a5.31,5.31,0,0,1-3.93-1.3,4.61,4.61,0,0,1-1.28-3.36,7.2,7.2,0,0,1,1.1-3.95Q59.8,22.45,63.42,17a6.65,6.65,0,0,1,5.83-3.19l3.55,0c2,0,3.32.34,4,1a4.88,4.88,0,0,1,1,3.59V29.59a3.69,3.69,0,0,1,2.41.88,3.33,3.33,0,0,1,.65,2.27,2.84,2.84,0,0,1-.7,2.2,4.07,4.07,0,0,1-2.36.74c0,2.21-.4,3.79-1.19,4.74A4.34,4.34,0,0,1,73.14,41.85ZM68.5,29.75l.13-8.94-5.46,8.94Z"/><path class="cls-5" d="M44.58,35.55q0,3.41-1.18,4.85a4.36,4.36,0,0,1-3.59,1.45,5.66,5.66,0,0,1-2.56-.5,3.26,3.26,0,0,1-1.49-1.85,11.09,11.09,0,0,1-.55-3.61l-.06-15.67a6.32,6.32,0,0,1-3.22-.73A2.6,2.6,0,0,1,30.67,17a2.76,2.76,0,0,1,1.16-2.29,5.16,5.16,0,0,1,3.24-.9c.54,0,1.31,0,2.3,0l2.1,0c2,0,3.36.34,4.05,1a5,5,0,0,1,1,3.59Z"/><path class="cls-5" d="M48.33,39a2.78,2.78,0,0,1,1.16-2.31,5.4,5.4,0,0,1,3.28-.88c3,0,4.44,1.07,4.44,3.19a3.11,3.11,0,0,1-.57,2,2.73,2.73,0,0,1-1.51,1,9.11,9.11,0,0,1-2.36.26,6.13,6.13,0,0,1-3.18-.76A2.62,2.62,0,0,1,48.33,39Z"/><path class="cls-5" d="M73.14,41.85a4.25,4.25,0,0,1-3.51-1.36c-.73-.91-1.09-2.5-1.09-4.77H61a5.31,5.31,0,0,1-3.93-1.3,4.61,4.61,0,0,1-1.28-3.36,7.2,7.2,0,0,1,1.1-3.95Q59.8,22.45,63.42,17a6.65,6.65,0,0,1,5.83-3.19l3.55,0c2,0,3.32.34,4,1a4.88,4.88,0,0,1,1,3.59V29.59a3.69,3.69,0,0,1,2.41.88,3.33,3.33,0,0,1,.65,2.27,2.84,2.84,0,0,1-.7,2.2,4.07,4.07,0,0,1-2.36.74c0,2.21-.4,3.79-1.19,4.74A4.34,4.34,0,0,1,73.14,41.85ZM68.5,29.75l.13-8.94-5.46,8.94Z"/></g></g></svg>