<svg xmlns="http://www.w3.org/2000/svg" viewBox="0 0 399.98 104.61"><defs><style>.cls-1{fill:#23841a;}.cls-2{fill:#fff;}.cls-3{fill:#ff7300;}.cls-4{fill:none;stroke:#fff;stroke-width:5px;}</style></defs><title>21t</title><g id="Layer_2" data-name="Layer 2"><g id="pestaña_identificativa" data-name="pestaña identificativa"><rect class="cls-1" width="399.98" height="104.61" rx="32.4"/><path class="cls-2" d="M131.56,35a8.64,8.64,0,0,1-2.33-.34,9.75,9.75,0,0,1-2.41-1.05,9.31,9.31,0,0,1-2.14-1.79,8.48,8.48,0,0,1-1.51-2.55,9.38,9.38,0,0,1-.56-3.33,8.58,8.58,0,0,1,.57-3.23,8.06,8.06,0,0,1,1.51-2.46,9,9,0,0,1,2.13-1.74,9.69,9.69,0,0,1,2.41-1,8.89,8.89,0,0,1,2.39-.34,7.36,7.36,0,0,1,2.22.3,8.09,8.09,0,0,1,1.54.63l.76.42a7.94,7.94,0,0,1,.85.65,1.25,1.25,0,0,1,.43.9,1.61,1.61,0,0,1-.12.6,2.24,2.24,0,0,1-.33.6,3.23,3.23,0,0,1-.78.84,1.23,1.23,0,0,1-.72.26,1.19,1.19,0,0,1-.58-.15c-.18-.1-.4-.23-.65-.4s-.28-.19-.5-.31a3.53,3.53,0,0,0-.89-.34,5.38,5.38,0,0,0-1.38-.15,5.53,5.53,0,0,0-1.77.3,5.18,5.18,0,0,0-1.63.92,4.73,4.73,0,0,0-1.21,1.59,5.62,5.62,0,0,0-.45,2.26,5.19,5.19,0,0,0,.46,2.25,4.71,4.71,0,0,0,1.22,1.58,5.24,5.24,0,0,0,1.63.94,5.16,5.16,0,0,0,1.74.31,4.73,4.73,0,0,0,1.28-.15,4.9,4.9,0,0,0,.92-.36c.27-.14.49-.27.68-.39l.56-.32a1.26,1.26,0,0,1,.59-.15,1.19,1.19,0,0,1,.71.27,3.44,3.44,0,0,1,.74.88,3,3,0,0,1,.33.64,1.64,1.64,0,0,1,.11.61,1,1,0,0,1-.41.86,6.38,6.38,0,0,1-.86.61l-.75.44a7.19,7.19,0,0,1-1.53.62A7.59,7.59,0,0,1,131.56,35Z"/><path class="cls-2" d="M144.93,34.82a5.2,5.2,0,0,1-2.17-.45A5.33,5.33,0,0,1,141,33.11a5.69,5.69,0,0,1-1.16-1.93,6.81,6.81,0,0,1-.41-2.43V24.22a4.59,4.59,0,0,1,.09-.93,1.08,1.08,0,0,1,.49-.69,2.31,2.31,0,0,1,1.32-.28,2.27,2.27,0,0,1,1.31.28,1.12,1.12,0,0,1,.48.71,4.64,4.64,0,0,1,.08.94v4.5a2.92,2.92,0,0,0,.26,1.26,1.8,1.8,0,0,0,.78.81,2.43,2.43,0,0,0,1.21.28,2.53,2.53,0,0,0,1.24-.29,2,2,0,0,0,.8-.81,2.59,2.59,0,0,0,.29-1.25V24.2a4.42,4.42,0,0,1,.09-.92,1,1,0,0,1,.49-.69,2.42,2.42,0,0,1,1.32-.26,2.35,2.35,0,0,1,1.31.27,1.15,1.15,0,0,1,.48.71,4.63,4.63,0,0,1,.08.92V33a4.1,4.1,0,0,1-.09.88,1,1,0,0,1-.49.67,2.61,2.61,0,0,1-1.3.25,2.92,2.92,0,0,1-1.05-.15,1.31,1.31,0,0,1-.55-.38,1.16,1.16,0,0,1-.21-.47,4.09,4.09,0,0,1,0-.46l.33-.27a3.06,3.06,0,0,1-.33.39,5.22,5.22,0,0,1-.66.57,4,4,0,0,1-1,.54A3.37,3.37,0,0,1,144.93,34.82Z"/><path class="cls-2" d="M155.93,34.86a2.49,2.49,0,0,1-1.31-.27,1,1,0,0,1-.47-.71,4.73,4.73,0,0,1-.09-.93V24.23a4.59,4.59,0,0,1,.09-.93,1,1,0,0,1,.49-.68,2.49,2.49,0,0,1,1.33-.26,2.63,2.63,0,0,1,1.26.23,1,1,0,0,1,.48.55,1.78,1.78,0,0,1,.11.54l-.31.15a3.56,3.56,0,0,1,.86-.91,3.71,3.71,0,0,1,.91-.49,3.62,3.62,0,0,1,1.24-.2c.18,0,.38,0,.61,0a4.89,4.89,0,0,1,.7.15,3.32,3.32,0,0,1,.66.3,1.8,1.8,0,0,1,.49.46,1.24,1.24,0,0,1,.19.68,3.14,3.14,0,0,1-.48,1.74,1.42,1.42,0,0,1-1.2.71,2,2,0,0,1-.6-.06,1.92,1.92,0,0,1-.29-.15.93.93,0,0,0-.26-.15,1.39,1.39,0,0,0-.55-.07,2.71,2.71,0,0,0-.71.1,2.06,2.06,0,0,0-.63.31,1.63,1.63,0,0,0-.45.53,1.51,1.51,0,0,0-.16.71V33a5.4,5.4,0,0,1-.08.91,1.07,1.07,0,0,1-.49.69A2.71,2.71,0,0,1,155.93,34.86Z"/><path class="cls-2" d="M171.13,35a2.28,2.28,0,0,1-1-.22,1.45,1.45,0,0,1-.66-.7l-4.49-9a2,2,0,0,1-.26-1.49,2,2,0,0,1,1.14-1.06,2.39,2.39,0,0,1,1.51-.31c.37.09.71.49,1,1.19l2.8,6.5,2.8-6.42c.3-.72.64-1.14,1-1.25a2.21,2.21,0,0,1,1.56.32c.69.32,1.07.69,1.14,1.12a2.32,2.32,0,0,1-.31,1.46L172.86,34a1.48,1.48,0,0,1-.65.7A2.31,2.31,0,0,1,171.13,35Z"/><path class="cls-2" d="M189.93,34.85a2.33,2.33,0,0,1-1.37-.33.91.91,0,0,1-.43-.8l.25-.42a2.72,2.72,0,0,1-.57.61,4.45,4.45,0,0,1-1.11.65,4.38,4.38,0,0,1-1.67.29,5,5,0,0,1-2.18-.5A5.93,5.93,0,0,1,181,33a7,7,0,0,1-1.27-2,6,6,0,0,1-.48-2.37,5.83,5.83,0,0,1,.48-2.34,6.34,6.34,0,0,1,1.29-2,6.07,6.07,0,0,1,1.84-1.36,4.77,4.77,0,0,1,2.17-.5,4.35,4.35,0,0,1,1.58.26,4.57,4.57,0,0,1,1.08.61,3.45,3.45,0,0,1,.66.68l-.22-.35a1.05,1.05,0,0,1,.44-.91,3.12,3.12,0,0,1,2.67,0,1.14,1.14,0,0,1,.48.73,4.81,4.81,0,0,1,.08.95V33a4.73,4.73,0,0,1-.09.93,1.12,1.12,0,0,1-.47.71A2.52,2.52,0,0,1,189.93,34.85Zm-4.37-3.73a2.21,2.21,0,0,0,1.2-.33,2.6,2.6,0,0,0,.85-.92,2.48,2.48,0,0,0,.33-1.27,2.53,2.53,0,0,0-.33-1.29,2.47,2.47,0,0,0-3.36-.88,2.64,2.64,0,0,0-.9.92,2.45,2.45,0,0,0-.34,1.3,2.28,2.28,0,0,0,.34,1.23,2.51,2.51,0,0,0,.92.91A2.61,2.61,0,0,0,185.56,31.12Z"/><path class="cls-2" d="M198.81,35.08a8.15,8.15,0,0,1-1.48-.15,8.68,8.68,0,0,1-1.53-.44,5.22,5.22,0,0,1-1.25-.67,1.3,1.3,0,0,1-.57-.89,1.42,1.42,0,0,1,0-.54,2.32,2.32,0,0,1,.22-.6,4.44,4.44,0,0,1,.44-.66.89.89,0,0,1,.44-.35,1.06,1.06,0,0,1,.58,0,3.21,3.21,0,0,1,.81.27l.82.4a8.41,8.41,0,0,0,.87.37,2.69,2.69,0,0,0,.93.17,2.19,2.19,0,0,0,1.09-.22.63.63,0,0,0,.38-.58.61.61,0,0,0-.16-.45,1.27,1.27,0,0,0-.45-.3,4,4,0,0,0-.67-.24q-.39-.12-.81-.21c-.29-.07-.59-.15-.91-.26a7.12,7.12,0,0,1-1.18-.45,4,4,0,0,1-1.05-.71,3.15,3.15,0,0,1-.74-1.07,4.05,4.05,0,0,1-.27-1.57,3.61,3.61,0,0,1,.56-2.05,3.51,3.51,0,0,1,1.67-1.26,7.33,7.33,0,0,1,2.69-.43,6.85,6.85,0,0,1,.91.05,5.46,5.46,0,0,1,.88.17q.44.13.87.3a6.68,6.68,0,0,1,.84.43,1.13,1.13,0,0,1,.78.95,2,2,0,0,1-.43,1.25,2.15,2.15,0,0,1-.57.59.89.89,0,0,1-.63.13,3.82,3.82,0,0,1-.86-.34c-.31-.15-.63-.3-1-.43a2.68,2.68,0,0,0-1-.2,2,2,0,0,0-.72.11.94.94,0,0,0-.45.3.67.67,0,0,0-.15.44.72.72,0,0,0,.18.51,1.53,1.53,0,0,0,.52.31,6.19,6.19,0,0,0,.75.23l.92.2a13.23,13.23,0,0,1,1.39.33,4.87,4.87,0,0,1,1.3.62,2.91,2.91,0,0,1,.95,1.07,3.8,3.8,0,0,1,.36,1.78,3.56,3.56,0,0,1-1.38,3A6.33,6.33,0,0,1,198.81,35.08Z"/><path class="cls-2" d="M218.13,34.87a5.06,5.06,0,0,1-2.17-.49A6,6,0,0,1,214.13,33a6.88,6.88,0,0,1-1.26-2,6.3,6.3,0,0,1-.46-2.41,6.18,6.18,0,0,1,.46-2.34,6.5,6.5,0,0,1,1.28-2A6.19,6.19,0,0,1,216,22.92a4.75,4.75,0,0,1,2.15-.5,4.35,4.35,0,0,1,2.11.49,4.44,4.44,0,0,1,1.53,1.33,6.46,6.46,0,0,1,.93,2,9.08,9.08,0,0,1,.35,2.35,9.28,9.28,0,0,1-.3,2.4,6,6,0,0,1-.93,2,4.59,4.59,0,0,1-1.55,1.39A4.35,4.35,0,0,1,218.13,34.87Zm.5-3.7a2.22,2.22,0,0,0,1.22-.34,2.53,2.53,0,0,0,.87-.91,2.43,2.43,0,0,0,.34-1.28,2.56,2.56,0,0,0-.32-1.26,2.61,2.61,0,0,0-.88-.9,2.36,2.36,0,0,0-1.25-.34,2.42,2.42,0,0,0-1.24.33,2.22,2.22,0,0,0-.87.9,2.57,2.57,0,0,0-.31,1.27,2.46,2.46,0,0,0,1.22,2.19A2.41,2.41,0,0,0,218.63,31.17ZM223,34.9a2.45,2.45,0,0,1-1.26-.28,1.31,1.31,0,0,1-.54-.85V18.62a6.62,6.62,0,0,1,.06-.91,1.11,1.11,0,0,1,.44-.72,2.28,2.28,0,0,1,1.28-.27,2.47,2.47,0,0,1,1.32.26,1.19,1.19,0,0,1,.48.69,4.49,4.49,0,0,1,.1.93V33a4.53,4.53,0,0,1-.09.91,1.12,1.12,0,0,1-.48.71A2.33,2.33,0,0,1,223,34.9Z"/><path class="cls-2" d="M233.58,35.13a7.28,7.28,0,0,1-3-.58A5.84,5.84,0,0,1,228.51,33a6.53,6.53,0,0,1-1.2-2.09,6.92,6.92,0,0,1-.4-2.3,6.45,6.45,0,0,1,.85-3.33A6.12,6.12,0,0,1,230.13,23a7,7,0,0,1,3.46-.84,6.21,6.21,0,0,1,2.51.47,5,5,0,0,1,1.75,1.2,4.89,4.89,0,0,1,1,1.59,4.25,4.25,0,0,1,.34,1.62,2.82,2.82,0,0,1-.66,2.05,2.27,2.27,0,0,1-1.69.67h-6a1.71,1.71,0,0,0,.46,1.07,2.75,2.75,0,0,0,1,.71,3.68,3.68,0,0,0,1.32.25,6.54,6.54,0,0,0,1-.07,4.49,4.49,0,0,0,.79-.17c.22-.07.41-.15.59-.22a4.32,4.32,0,0,1,.48-.19,2.63,2.63,0,0,1,.43-.1,1,1,0,0,1,.67.21,2.11,2.11,0,0,1,.58.71,2.43,2.43,0,0,1,.24.53,2.14,2.14,0,0,1,.06.5,1.36,1.36,0,0,1-.61,1.09,4.74,4.74,0,0,1-1.73.73A11,11,0,0,1,233.58,35.13Zm-2.67-7.41h4a1.06,1.06,0,0,0,.58-.14.62.62,0,0,0,.2-.54,1.24,1.24,0,0,0-.28-.77,1.72,1.72,0,0,0-.74-.54,2.94,2.94,0,0,0-1.08-.19,3,3,0,0,0-1.35.3,2.39,2.39,0,0,0-.94.8A1.84,1.84,0,0,0,230.91,27.72Z"/><path class="cls-2" d="M243.18,34.91a2.39,2.39,0,0,1-1.31-.27,1.07,1.07,0,0,1-.48-.71,5.62,5.62,0,0,1-.08-.92V24.28a4.42,4.42,0,0,1,.09-.92,1,1,0,0,1,.49-.69,2.47,2.47,0,0,1,1.32-.26,2.52,2.52,0,0,1,1.27.24,1,1,0,0,1,.48.55,1.63,1.63,0,0,1,.1.53l-.3.15a3.91,3.91,0,0,1,.27-.36,3.47,3.47,0,0,1,.58-.55,3.79,3.79,0,0,1,.92-.49,3.57,3.57,0,0,1,1.23-.19l.62,0a5.2,5.2,0,0,1,.7.15,3.32,3.32,0,0,1,.66.3,1.69,1.69,0,0,1,.49.47,1.17,1.17,0,0,1,.18.67,3.12,3.12,0,0,1-.47,1.74,1.42,1.42,0,0,1-1.2.71,2,2,0,0,1-.6-.06.87.87,0,0,1-.29-.15,1.1,1.1,0,0,0-.26-.15,2,2,0,0,0-.55-.07,2.71,2.71,0,0,0-.71.1,2.08,2.08,0,0,0-.63.32,1.45,1.45,0,0,0-.61,1.23v5.48A5.4,5.4,0,0,1,245,34a1.07,1.07,0,0,1-.49.69A2.71,2.71,0,0,1,243.18,34.91Z"/><path class="cls-2" d="M258.58,35.14a7.12,7.12,0,0,1-3-.58,5.72,5.72,0,0,1-2.06-1.51,6.33,6.33,0,0,1-1.2-2.09,6.83,6.83,0,0,1-.4-2.3,6.38,6.38,0,0,1,.85-3.32,6.14,6.14,0,0,1,2.37-2.29,7,7,0,0,1,3.46-.83,6.22,6.22,0,0,1,2.51.46,5.23,5.23,0,0,1,1.75,1.2,4.89,4.89,0,0,1,1,1.59,4.32,4.32,0,0,1,.34,1.62,2.81,2.81,0,0,1-.66,2.05,2.29,2.29,0,0,1-1.69.68h-6a1.77,1.77,0,0,0,.46,1.08,2.85,2.85,0,0,0,1,.7,3.48,3.48,0,0,0,1.32.25,8.1,8.1,0,0,0,1-.06,4.49,4.49,0,0,0,.79-.17l.59-.23.48-.19a2.41,2.41,0,0,1,.43-.1,1,1,0,0,1,.67.22,1.93,1.93,0,0,1,.58.71,2.37,2.37,0,0,1,.24.52,2.2,2.2,0,0,1,.06.5,1.36,1.36,0,0,1-.61,1.09,4.81,4.81,0,0,1-1.73.74A11.56,11.56,0,0,1,258.58,35.14Zm-2.67-7.4h4a1.06,1.06,0,0,0,.58-.13.65.65,0,0,0,.2-.54,1.29,1.29,0,0,0-.28-.78,1.8,1.8,0,0,0-.74-.54,2.94,2.94,0,0,0-1.08-.18,3,3,0,0,0-1.35.3,2.37,2.37,0,0,0-.94.79A1.89,1.89,0,0,0,255.91,27.74Z"/><path class="cls-2" d="M272.48,35a6.47,6.47,0,0,1-2.24-.42,7.17,7.17,0,0,1-2.1-1.21,5.87,5.87,0,0,1-1.53-2,6.87,6.87,0,0,1,0-5.48,6,6,0,0,1,1.53-2,6.56,6.56,0,0,1,2.09-1.21,6.31,6.31,0,0,1,2.21-.42,6.42,6.42,0,0,1,1.66.22,5.41,5.41,0,0,1,1.25.51,3.87,3.87,0,0,1,.74.53,7,7,0,0,1,.75.65,1.11,1.11,0,0,1,.3.85,1.59,1.59,0,0,1-.18.56,4.36,4.36,0,0,1-.37.59c-.52.7-1,1-1.51.95a2.51,2.51,0,0,1-.68-.25l-.6-.35a5.86,5.86,0,0,0-.61-.32,2,2,0,0,0-.75-.14,2.54,2.54,0,0,0-1.3.34,2.64,2.64,0,0,0-.92.9,2.55,2.55,0,0,0-.33,1.31,2.44,2.44,0,0,0,.33,1.3,2.64,2.64,0,0,0,.9.92,2.47,2.47,0,0,0,1.26.33,2.39,2.39,0,0,0,.73-.1,2.17,2.17,0,0,0,.55-.23l.35-.21c.2-.14.39-.26.57-.37a1.19,1.19,0,0,1,.55-.16,1.28,1.28,0,0,1,.74.26,4.7,4.7,0,0,1,.81.84,2,2,0,0,1,.49,1,1.24,1.24,0,0,1-.21.86,2.66,2.66,0,0,1-.85.76,3.85,3.85,0,0,1-.72.45,6.24,6.24,0,0,1-1.25.5A5.64,5.64,0,0,1,272.48,35Z"/><path class="cls-2" d="M281.21,34.93a2.52,2.52,0,0,1-1.32-.26,1.08,1.08,0,0,1-.47-.7,4.69,4.69,0,0,1-.09-.94V18.63a4,4,0,0,1,.1-.93,1.11,1.11,0,0,1,.49-.68,2.37,2.37,0,0,1,1.31-.27,2.42,2.42,0,0,1,1.31.28,1.12,1.12,0,0,1,.48.7,4.45,4.45,0,0,1,.09.93v5.1a5.14,5.14,0,0,1,1.17-.9,3.13,3.13,0,0,1,1.68-.43,5.11,5.11,0,0,1,2.79.79,5.67,5.67,0,0,1,2,2.17,6.54,6.54,0,0,1,.74,3.15v4.52a4.57,4.57,0,0,1-.1.93,1.14,1.14,0,0,1-.48.68,3.31,3.31,0,0,1-2.62,0,1.06,1.06,0,0,1-.49-.7,4.62,4.62,0,0,1-.09-.94V28.51a2.77,2.77,0,0,0-.25-1.24,1.9,1.9,0,0,0-.73-.81,2.24,2.24,0,0,0-1.19-.3,2.43,2.43,0,0,0-1.61.56,2.05,2.05,0,0,0-.79,1.36v5a4.4,4.4,0,0,1-.1.92,1.16,1.16,0,0,1-.49.69A2.5,2.5,0,0,1,281.21,34.93Z"/><path class="cls-2" d="M304,34.92a2.3,2.3,0,0,1-1.37-.33.88.88,0,0,1-.43-.8l.25-.42a2.72,2.72,0,0,1-.57.61,4.25,4.25,0,0,1-2.78.94,4.89,4.89,0,0,1-2.19-.51A5.82,5.82,0,0,1,295.06,33a7.21,7.21,0,0,1-1.28-2,6.15,6.15,0,0,1-.47-2.37,5.83,5.83,0,0,1,.48-2.34A6.58,6.58,0,0,1,296.91,23a4.83,4.83,0,0,1,2.18-.49,4.1,4.1,0,0,1,1.57.26,4.15,4.15,0,0,1,1.09.61,3.45,3.45,0,0,1,.66.68l-.22-.35a1,1,0,0,1,.43-.91,2.44,2.44,0,0,1,1.39-.32,2.33,2.33,0,0,1,1.29.28,1.06,1.06,0,0,1,.47.73,4.69,4.69,0,0,1,.09.94V33a4.81,4.81,0,0,1-.09.93,1.12,1.12,0,0,1-.48.71A2.48,2.48,0,0,1,304,34.92Zm-4.37-3.73a2.13,2.13,0,0,0,1.2-.34,2.49,2.49,0,0,0,.85-.91,2.6,2.6,0,0,0,.32-1.27,2.45,2.45,0,0,0-1.19-2.18,2.45,2.45,0,0,0-1.23-.32,2.42,2.42,0,0,0-1.26.33,2.53,2.53,0,0,0-.9.91,2.5,2.5,0,0,0-.34,1.3A2.31,2.31,0,0,0,297.4,30a2.41,2.41,0,0,0,.92.9A2.49,2.49,0,0,0,299.61,31.19Z"/><path class="cls-3" d="M131.57,37.54h0a11.37,11.37,0,0,1-3-.43,12,12,0,0,1-3-1.32,11.58,11.58,0,0,1-2.73-2.27,10.9,10.9,0,0,1-2-3.32,11.9,11.9,0,0,1-.73-4.22,11,11,0,0,1,.75-4.16,10.5,10.5,0,0,1,2-3.21,11.28,11.28,0,0,1,2.72-2.22,12.87,12.87,0,0,1,3-1.28,11.58,11.58,0,0,1,3-.42h0a9.75,9.75,0,0,1,3,.42,10.59,10.59,0,0,1,2,.82l.79.44.15.09a11.13,11.13,0,0,1,1.1.85A3.69,3.69,0,0,1,139.91,20a.45.45,0,0,1,0,.11,4.33,4.33,0,0,1-.28,1.5,4.79,4.79,0,0,1-.64,1.16,5.56,5.56,0,0,1-1.38,1.43,3.65,3.65,0,0,1-3.93.25,9.49,9.49,0,0,1-.84-.51,3.48,3.48,0,0,0-.36-.22h0l-.29-.09a3,3,0,0,0-.75-.07h0a2.82,2.82,0,0,0-1,.17,2.64,2.64,0,0,0-.84.48,2,2,0,0,0-.53.72,3.08,3.08,0,0,0-.22,1.21,2.69,2.69,0,0,0,.21,1.15,2.32,2.32,0,0,0,.57.75,2.63,2.63,0,0,0,.87.5,2.79,2.79,0,0,0,.9.17h0a1.94,1.94,0,0,0,1-.22l.5-.29c.24-.15.49-.3.74-.43a3.67,3.67,0,0,1,4,.35A5.79,5.79,0,0,1,139,29.6a5.13,5.13,0,0,1,.6,1.16,4.27,4.27,0,0,1,.25,1.46A3.56,3.56,0,0,1,138.56,35a10.41,10.41,0,0,1-1.15.82l-.79.46a9.42,9.42,0,0,1-2.07.86A10.3,10.3,0,0,1,131.57,37.54ZM136.08,20Z"/><path class="cls-3" d="M149.68,37.33a5.27,5.27,0,0,1-2-.33l-.37-.17-.18.08a5.79,5.79,0,0,1-2.23.41h0a7.68,7.68,0,0,1-3.2-.67,7.77,7.77,0,0,1-2.56-1.85,8.35,8.35,0,0,1-1.67-2.75,9.61,9.61,0,0,1-.56-3.3V24.22a7.3,7.3,0,0,1,.14-1.43,3.54,3.54,0,0,1,1.52-2.25,4.7,4.7,0,0,1,2.74-.72,4.6,4.6,0,0,1,2.76.74,3.59,3.59,0,0,1,1.4,1.93,3.56,3.56,0,0,1,1.49-2,4.74,4.74,0,0,1,2.7-.67,4.67,4.67,0,0,1,2.76.73,3.65,3.65,0,0,1,1.48,2.26,7.25,7.25,0,0,1,.13,1.41V33a7.15,7.15,0,0,1-.14,1.4,3.5,3.5,0,0,1-1.61,2.26A4.83,4.83,0,0,1,149.68,37.33Zm.65-13.56h0Z"/><path class="cls-3" d="M155.93,37.36h0a4.71,4.71,0,0,1-2.71-.7,3.65,3.65,0,0,1-1.53-2.3,7.18,7.18,0,0,1-.13-1.41V24.23a7.3,7.3,0,0,1,.14-1.43,3.64,3.64,0,0,1,1.58-2.28,4.72,4.72,0,0,1,2.69-.66,5.49,5.49,0,0,1,2.1.36l.34-.13a5.91,5.91,0,0,1,2.11-.36,7.54,7.54,0,0,1,.9.06,6.38,6.38,0,0,1,1.15.24,5.38,5.38,0,0,1,1.24.57A4.3,4.3,0,0,1,165,21.77a3.68,3.68,0,0,1,.63,2.09,5.55,5.55,0,0,1-.9,3.12,3.88,3.88,0,0,1-3.28,1.83,4.78,4.78,0,0,1-1.15-.12V33a7.12,7.12,0,0,1-.13,1.39,3.57,3.57,0,0,1-1.62,2.33A4.84,4.84,0,0,1,155.93,37.36Zm3.15-9.28,0,0Z"/><path class="cls-3" d="M171.13,37.46h0A4.76,4.76,0,0,1,169,37a4,4,0,0,1-1.78-1.86l-4.47-8.92a4.46,4.46,0,0,1-.41-3.37,4.39,4.39,0,0,1,2.41-2.53,4.72,4.72,0,0,1,3.22-.51,4.11,4.11,0,0,1,2.72,2.63l.51,1.2.5-1.13a4.22,4.22,0,0,1,2.56-2.64,4.52,4.52,0,0,1,3.43.48,4,4,0,0,1,2.47,2.91,4.68,4.68,0,0,1-.55,3l-4.47,8.9A3.9,3.9,0,0,1,173.38,37,4.81,4.81,0,0,1,171.13,37.46Zm0-5,0,2.46V32.49Zm-.49.44v0Zm1,0v0Z"/><path class="cls-3" d="M189.94,37.35h0a5.17,5.17,0,0,1-2.29-.47,6.9,6.9,0,0,1-2.61.47,7.57,7.57,0,0,1-3.27-.75,8.49,8.49,0,0,1-2.61-2,9.73,9.73,0,0,1-1.72-2.72,8.62,8.62,0,0,1-.67-3.34,8.36,8.36,0,0,1,.68-3.32,9.27,9.27,0,0,1,1.77-2.71,8.81,8.81,0,0,1,2.56-1.89A7.35,7.35,0,0,1,185,19.9h0a6.73,6.73,0,0,1,2.51.44l0,0a5.29,5.29,0,0,1,2.37-.49,4.69,4.69,0,0,1,2.73.74,3.58,3.58,0,0,1,1.48,2.29,7.31,7.31,0,0,1,.13,1.43V33a8.19,8.19,0,0,1-.13,1.4,3.6,3.6,0,0,1-1.54,2.31A4.7,4.7,0,0,1,189.94,37.35Z"/><path class="cls-3" d="M198.82,37.58h0a11.24,11.24,0,0,1-1.93-.19,10.85,10.85,0,0,1-2-.57,7.72,7.72,0,0,1-1.84-1,3.76,3.76,0,0,1-1.53-2.51,3.94,3.94,0,0,1,0-1.45,5.11,5.11,0,0,1,.45-1.21,6.68,6.68,0,0,1,.7-1.06l.11-.15a6.87,6.87,0,0,1-.5-.93,6.52,6.52,0,0,1-.47-2.55,5.79,5.79,0,0,1,3.8-5.63,9.81,9.81,0,0,1,3.62-.61,11.56,11.56,0,0,1,1.19.06,8,8,0,0,1,1.29.26,10.75,10.75,0,0,1,1.13.39,9.66,9.66,0,0,1,1.07.53A3.57,3.57,0,0,1,206,24a4.45,4.45,0,0,1-.87,2.77l-.06.09a5.59,5.59,0,0,1,.84,1.18,6.19,6.19,0,0,1,.66,3,6,6,0,0,1-2.36,5A8.75,8.75,0,0,1,198.82,37.58Z"/><path class="cls-3" d="M223,37.4h0a5,5,0,0,1-2.28-.49,7.1,7.1,0,0,1-2.56.46h0a7.57,7.57,0,0,1-3.25-.73,8.55,8.55,0,0,1-2.59-1.94,9.26,9.26,0,0,1-1.73-2.76,8.81,8.81,0,0,1-.65-3.35,8.42,8.42,0,0,1,.66-3.3,9,9,0,0,1,1.76-2.73,8.85,8.85,0,0,1,2.56-1.89,7.36,7.36,0,0,1,3.24-.75h0a5,5,0,0,1,.55,0V18.62a8.69,8.69,0,0,1,.09-1.26A3.52,3.52,0,0,1,220.21,15a4.53,4.53,0,0,1,2.75-.76h0a4.71,4.71,0,0,1,2.76.71,3.66,3.66,0,0,1,1.47,2.16,6.72,6.72,0,0,1,.17,1.51V33a7.15,7.15,0,0,1-.14,1.4,3.57,3.57,0,0,1-1.48,2.26A4.6,4.6,0,0,1,223,37.4Z"/><path class="cls-3" d="M233.58,37.63h0a9.6,9.6,0,0,1-4.05-.81,8.25,8.25,0,0,1-2.93-2.17A8.76,8.76,0,0,1,225,31.76a9.35,9.35,0,0,1-.54-3.12,8.85,8.85,0,0,1,1.2-4.58,8.45,8.45,0,0,1,3.31-3.21,9.53,9.53,0,0,1,4.67-1.15,8.82,8.82,0,0,1,3.51.67,7.78,7.78,0,0,1,2.58,1.79,7.54,7.54,0,0,1,1.52,2.37,6.94,6.94,0,0,1,.51,2.55,5.32,5.32,0,0,1-1.24,3.66h0a4.7,4.7,0,0,1,.49,1.17,4.82,4.82,0,0,1,.14,1.11,3.81,3.81,0,0,1-1.61,3.08,7,7,0,0,1-2.63,1.17A13.89,13.89,0,0,1,233.58,37.63Zm1.28-12.4Z"/><path class="cls-3" d="M243.19,37.41h0a4.75,4.75,0,0,1-2.71-.69,3.67,3.67,0,0,1-1.53-2.31,7.22,7.22,0,0,1-.13-1.4V24.28a7.3,7.3,0,0,1,.14-1.43,3.58,3.58,0,0,1,1.57-2.27,4.68,4.68,0,0,1,2.69-.67,5.25,5.25,0,0,1,2.11.37l.34-.14a5.9,5.9,0,0,1,2.1-.35,7.38,7.38,0,0,1,.9.05,5.76,5.76,0,0,1,1.16.25,5.39,5.39,0,0,1,1.24.56,4.08,4.08,0,0,1,1.23,1.18,3.66,3.66,0,0,1,.62,2.08A5.5,5.5,0,0,1,252,27a3.86,3.86,0,0,1-3.27,1.82h0a4.83,4.83,0,0,1-1.15-.12v4.32a7.3,7.3,0,0,1-.13,1.4,3.55,3.55,0,0,1-1.62,2.32A4.82,4.82,0,0,1,243.19,37.41Zm6.14-13.27,0,0Z"/><path class="cls-3" d="M258.6,37.64h0a9.69,9.69,0,0,1-4-.8,8.34,8.34,0,0,1-2.93-2.17A8.86,8.86,0,0,1,250,31.78a9.35,9.35,0,0,1-.54-3.12,8.86,8.86,0,0,1,1.2-4.59,8.59,8.59,0,0,1,3.31-3.21,9.49,9.49,0,0,1,4.66-1.14h0a8.72,8.72,0,0,1,3.51.67,7.72,7.72,0,0,1,2.58,1.78,7.58,7.58,0,0,1,1.52,2.38,6.94,6.94,0,0,1,.51,2.55,5.27,5.27,0,0,1-1.24,3.65v0a4.14,4.14,0,0,1,.5,1.15,5,5,0,0,1,.14,1.12,3.82,3.82,0,0,1-1.61,3.09,7.34,7.34,0,0,1-2.63,1.17A13.86,13.86,0,0,1,258.6,37.64Z"/><path class="cls-3" d="M272.48,37.53a8.92,8.92,0,0,1-3.09-.57,9.48,9.48,0,0,1-2.85-1.64,8.49,8.49,0,0,1-2.19-2.85,8.67,8.67,0,0,1-.81-3.83,8.61,8.61,0,0,1,.83-3.82A8.48,8.48,0,0,1,266.53,22a9.19,9.19,0,0,1,2.84-1.64,8.93,8.93,0,0,1,5.42-.25,8,8,0,0,1,1.82.75,6.29,6.29,0,0,1,1.1.78,11.61,11.61,0,0,1,.89.79,3.53,3.53,0,0,1,1,2.73v.13a4,4,0,0,1-.45,1.47,5.7,5.7,0,0,1-.6.94,5.52,5.52,0,0,1-.87,1,8.66,8.66,0,0,1,.94,1,4.51,4.51,0,0,1,1,2.17,3.76,3.76,0,0,1-.61,2.6,5,5,0,0,1-1.48,1.41,7,7,0,0,1-1,.62,9.4,9.4,0,0,1-1.7.68A8.21,8.21,0,0,1,272.48,37.53Zm-.06-8.86,0,.07.07,0Z"/><path class="cls-3" d="M289.56,37.44a4.8,4.8,0,0,1-2.68-.68,3.57,3.57,0,0,1-1.49-2,3.61,3.61,0,0,1-1.47,2,5.69,5.69,0,0,1-5.43,0A3.63,3.63,0,0,1,277,34.46a7.3,7.3,0,0,1-.14-1.43V18.63a6.63,6.63,0,0,1,.17-1.5,3.61,3.61,0,0,1,1.52-2.19,4.72,4.72,0,0,1,2.7-.69h0A4.62,4.62,0,0,1,284,15a3.59,3.59,0,0,1,1.48,2.22,7.4,7.4,0,0,1,.14,1.44v1.28c.11,0,.23,0,.35,0a7.52,7.52,0,0,1,4.13,1.19,8.12,8.12,0,0,1,2.83,3.09,9.11,9.11,0,0,1,1,4.33v4.52a6.63,6.63,0,0,1-.17,1.5,3.66,3.66,0,0,1-1.47,2.16A4.63,4.63,0,0,1,289.56,37.44Z"/><path class="cls-3" d="M304,37.42h0a5.21,5.21,0,0,1-2.3-.47,6.81,6.81,0,0,1-2.6.47,7.43,7.43,0,0,1-3.27-.76,8.3,8.3,0,0,1-2.61-2A9.51,9.51,0,0,1,291.48,32a8.46,8.46,0,0,1-.67-3.35,8.31,8.31,0,0,1,.68-3.31,9.07,9.07,0,0,1,1.77-2.71,8.72,8.72,0,0,1,2.56-1.89,7.35,7.35,0,0,1,3.26-.75h0a6.77,6.77,0,0,1,2.51.44l0,0a5.15,5.15,0,0,1,2.36-.49,4.7,4.7,0,0,1,2.74.74A3.62,3.62,0,0,1,308.23,23a7.28,7.28,0,0,1,.13,1.42V33a7.23,7.23,0,0,1-.14,1.4,3.58,3.58,0,0,1-1.53,2.31A4.74,4.74,0,0,1,304,37.42Z"/><path class="cls-2" d="M131.56,35a8.64,8.64,0,0,1-2.33-.34,9.75,9.75,0,0,1-2.41-1.05,9.31,9.31,0,0,1-2.14-1.79,8.48,8.48,0,0,1-1.51-2.55,9.38,9.38,0,0,1-.56-3.33,8.58,8.58,0,0,1,.57-3.23,8.06,8.06,0,0,1,1.51-2.46,9,9,0,0,1,2.13-1.74,9.69,9.69,0,0,1,2.41-1,8.89,8.89,0,0,1,2.39-.34,7.36,7.36,0,0,1,2.22.3,8.09,8.09,0,0,1,1.54.63l.76.42a7.94,7.94,0,0,1,.85.65,1.25,1.25,0,0,1,.43.9,1.61,1.61,0,0,1-.12.6,2.24,2.24,0,0,1-.33.6,3.23,3.23,0,0,1-.78.84,1.23,1.23,0,0,1-.72.26,1.19,1.19,0,0,1-.58-.15c-.18-.1-.4-.23-.65-.4s-.28-.19-.5-.31a3.53,3.53,0,0,0-.89-.34,5.38,5.38,0,0,0-1.38-.15,5.53,5.53,0,0,0-1.77.3,5.18,5.18,0,0,0-1.63.92,4.73,4.73,0,0,0-1.21,1.59,5.62,5.62,0,0,0-.45,2.26,5.19,5.19,0,0,0,.46,2.25,4.71,4.71,0,0,0,1.22,1.58,5.24,5.24,0,0,0,1.63.94,5.16,5.16,0,0,0,1.74.31,4.73,4.73,0,0,0,1.28-.15,4.9,4.9,0,0,0,.92-.36c.27-.14.49-.27.68-.39l.56-.32a1.26,1.26,0,0,1,.59-.15,1.19,1.19,0,0,1,.71.27,3.44,3.44,0,0,1,.74.88,3,3,0,0,1,.33.64,1.64,1.64,0,0,1,.11.61,1,1,0,0,1-.41.86,6.38,6.38,0,0,1-.86.61l-.75.44a7.19,7.19,0,0,1-1.53.62A7.59,7.59,0,0,1,131.56,35Z"/><path class="cls-2" d="M144.93,34.82a5.2,5.2,0,0,1-2.17-.45A5.33,5.33,0,0,1,141,33.11a5.69,5.69,0,0,1-1.16-1.93,6.81,6.81,0,0,1-.41-2.43V24.22a4.59,4.59,0,0,1,.09-.93,1.08,1.08,0,0,1,.49-.69,2.31,2.31,0,0,1,1.32-.28,2.27,2.27,0,0,1,1.31.28,1.12,1.12,0,0,1,.48.71,4.64,4.64,0,0,1,.08.94v4.5a2.92,2.92,0,0,0,.26,1.26,1.8,1.8,0,0,0,.78.81,2.43,2.43,0,0,0,1.21.28,2.53,2.53,0,0,0,1.24-.29,2,2,0,0,0,.8-.81,2.59,2.59,0,0,0,.29-1.25V24.2a4.42,4.42,0,0,1,.09-.92,1,1,0,0,1,.49-.69,2.42,2.42,0,0,1,1.32-.26,2.35,2.35,0,0,1,1.31.27,1.15,1.15,0,0,1,.48.71,4.63,4.63,0,0,1,.08.92V33a4.1,4.1,0,0,1-.09.88,1,1,0,0,1-.49.67,2.61,2.61,0,0,1-1.3.25,2.92,2.92,0,0,1-1.05-.15,1.31,1.31,0,0,1-.55-.38,1.16,1.16,0,0,1-.21-.47,4.09,4.09,0,0,1,0-.46l.33-.27a3.06,3.06,0,0,1-.33.39,5.22,5.22,0,0,1-.66.57,4,4,0,0,1-1,.54A3.37,3.37,0,0,1,144.93,34.82Z"/><path class="cls-2" d="M155.93,34.86a2.49,2.49,0,0,1-1.31-.27,1,1,0,0,1-.47-.71,4.73,4.73,0,0,1-.09-.93V24.23a4.59,4.59,0,0,1,.09-.93,1,1,0,0,1,.49-.68,2.49,2.49,0,0,1,1.33-.26,2.63,2.63,0,0,1,1.26.23,1,1,0,0,1,.48.55,1.78,1.78,0,0,1,.11.54l-.31.15a3.56,3.56,0,0,1,.86-.91,3.71,3.71,0,0,1,.91-.49,3.62,3.62,0,0,1,1.24-.2c.18,0,.38,0,.61,0a4.89,4.89,0,0,1,.7.15,3.32,3.32,0,0,1,.66.3,1.8,1.8,0,0,1,.49.46,1.24,1.24,0,0,1,.19.68,3.14,3.14,0,0,1-.48,1.74,1.42,1.42,0,0,1-1.2.71,2,2,0,0,1-.6-.06,1.92,1.92,0,0,1-.29-.15.93.93,0,0,0-.26-.15,1.39,1.39,0,0,0-.55-.07,2.71,2.71,0,0,0-.71.1,2.06,2.06,0,0,0-.63.31,1.63,1.63,0,0,0-.45.53,1.51,1.51,0,0,0-.16.71V33a5.4,5.4,0,0,1-.08.91,1.07,1.07,0,0,1-.49.69A2.71,2.71,0,0,1,155.93,34.86Z"/><path class="cls-2" d="M171.13,35a2.28,2.28,0,0,1-1-.22,1.45,1.45,0,0,1-.66-.7l-4.49-9a2,2,0,0,1-.26-1.49,2,2,0,0,1,1.14-1.06,2.39,2.39,0,0,1,1.51-.31c.37.09.71.49,1,1.19l2.8,6.5,2.8-6.42c.3-.72.64-1.14,1-1.25a2.21,2.21,0,0,1,1.56.32c.69.32,1.07.69,1.14,1.12a2.32,2.32,0,0,1-.31,1.46L172.86,34a1.48,1.48,0,0,1-.65.7A2.31,2.31,0,0,1,171.13,35Z"/><path class="cls-2" d="M189.93,34.85a2.33,2.33,0,0,1-1.37-.33.91.91,0,0,1-.43-.8l.25-.42a2.72,2.72,0,0,1-.57.61,4.45,4.45,0,0,1-1.11.65,4.38,4.38,0,0,1-1.67.29,5,5,0,0,1-2.18-.5A5.93,5.93,0,0,1,181,33a7,7,0,0,1-1.27-2,6,6,0,0,1-.48-2.37,5.83,5.83,0,0,1,.48-2.34,6.34,6.34,0,0,1,1.29-2,6.07,6.07,0,0,1,1.84-1.36,4.77,4.77,0,0,1,2.17-.5,4.35,4.35,0,0,1,1.58.26,4.57,4.57,0,0,1,1.08.61,3.45,3.45,0,0,1,.66.68l-.22-.35a1.05,1.05,0,0,1,.44-.91,3.12,3.12,0,0,1,2.67,0,1.14,1.14,0,0,1,.48.73,4.81,4.81,0,0,1,.08.95V33a4.73,4.73,0,0,1-.09.93,1.12,1.12,0,0,1-.47.71A2.52,2.52,0,0,1,189.93,34.85Zm-4.37-3.73a2.21,2.21,0,0,0,1.2-.33,2.6,2.6,0,0,0,.85-.92,2.48,2.48,0,0,0,.33-1.27,2.53,2.53,0,0,0-.33-1.29,2.47,2.47,0,0,0-3.36-.88,2.64,2.64,0,0,0-.9.92,2.45,2.45,0,0,0-.34,1.3,2.28,2.28,0,0,0,.34,1.23,2.51,2.51,0,0,0,.92.91A2.61,2.61,0,0,0,185.56,31.12Z"/><path class="cls-2" d="M198.81,35.08a8.15,8.15,0,0,1-1.48-.15,8.68,8.68,0,0,1-1.53-.44,5.22,5.22,0,0,1-1.25-.67,1.3,1.3,0,0,1-.57-.89,1.42,1.42,0,0,1,0-.54,2.32,2.32,0,0,1,.22-.6,4.44,4.44,0,0,1,.44-.66.89.89,0,0,1,.44-.35,1.06,1.06,0,0,1,.58,0,3.21,3.21,0,0,1,.81.27l.82.4a8.41,8.41,0,0,0,.87.37,2.69,2.69,0,0,0,.93.17,2.19,2.19,0,0,0,1.09-.22.63.63,0,0,0,.38-.58.61.61,0,0,0-.16-.45,1.27,1.27,0,0,0-.45-.3,4,4,0,0,0-.67-.24q-.39-.12-.81-.21c-.29-.07-.59-.15-.91-.26a7.12,7.12,0,0,1-1.18-.45,4,4,0,0,1-1.05-.71,3.15,3.15,0,0,1-.74-1.07,4.05,4.05,0,0,1-.27-1.57,3.61,3.61,0,0,1,.56-2.05,3.51,3.51,0,0,1,1.67-1.26,7.33,7.33,0,0,1,2.69-.43,6.85,6.85,0,0,1,.91.05,5.46,5.46,0,0,1,.88.17q.44.13.87.3a6.68,6.68,0,0,1,.84.43,1.13,1.13,0,0,1,.78.95,2,2,0,0,1-.43,1.25,2.15,2.15,0,0,1-.57.59.89.89,0,0,1-.63.13,3.82,3.82,0,0,1-.86-.34c-.31-.15-.63-.3-1-.43a2.68,2.68,0,0,0-1-.2,2,2,0,0,0-.72.11.94.94,0,0,0-.45.3.67.67,0,0,0-.15.44.72.72,0,0,0,.18.51,1.53,1.53,0,0,0,.52.31,6.19,6.19,0,0,0,.75.23l.92.2a13.23,13.23,0,0,1,1.39.33,4.87,4.87,0,0,1,1.3.62,2.91,2.91,0,0,1,.95,1.07,3.8,3.8,0,0,1,.36,1.78,3.56,3.56,0,0,1-1.38,3A6.33,6.33,0,0,1,198.81,35.08Z"/><path class="cls-2" d="M218.13,34.87a5.06,5.06,0,0,1-2.17-.49A6,6,0,0,1,214.13,33a6.88,6.88,0,0,1-1.26-2,6.3,6.3,0,0,1-.46-2.41,6.18,6.18,0,0,1,.46-2.34,6.5,6.5,0,0,1,1.28-2A6.19,6.19,0,0,1,216,22.92a4.75,4.75,0,0,1,2.15-.5,4.35,4.35,0,0,1,2.11.49,4.44,4.44,0,0,1,1.53,1.33,6.46,6.46,0,0,1,.93,2,9.08,9.08,0,0,1,.35,2.35,9.28,9.28,0,0,1-.3,2.4,6,6,0,0,1-.93,2,4.59,4.59,0,0,1-1.55,1.39A4.35,4.35,0,0,1,218.13,34.87Zm.5-3.7a2.22,2.22,0,0,0,1.22-.34,2.53,2.53,0,0,0,.87-.91,2.43,2.43,0,0,0,.34-1.28,2.56,2.56,0,0,0-.32-1.26,2.61,2.61,0,0,0-.88-.9,2.36,2.36,0,0,0-1.25-.34,2.42,2.42,0,0,0-1.24.33,2.22,2.22,0,0,0-.87.9,2.57,2.57,0,0,0-.31,1.27,2.46,2.46,0,0,0,1.22,2.19A2.41,2.41,0,0,0,218.63,31.17ZM223,34.9a2.45,2.45,0,0,1-1.26-.28,1.31,1.31,0,0,1-.54-.85V18.62a6.62,6.62,0,0,1,.06-.91,1.11,1.11,0,0,1,.44-.72,2.28,2.28,0,0,1,1.28-.27,2.47,2.47,0,0,1,1.32.26,1.19,1.19,0,0,1,.48.69,4.49,4.49,0,0,1,.1.93V33a4.53,4.53,0,0,1-.09.91,1.12,1.12,0,0,1-.48.71A2.33,2.33,0,0,1,223,34.9Z"/><path class="cls-2" d="M233.58,35.13a7.28,7.28,0,0,1-3-.58A5.84,5.84,0,0,1,228.51,33a6.53,6.53,0,0,1-1.2-2.09,6.92,6.92,0,0,1-.4-2.3,6.45,6.45,0,0,1,.85-3.33A6.12,6.12,0,0,1,230.13,23a7,7,0,0,1,3.46-.84,6.21,6.21,0,0,1,2.51.47,5,5,0,0,1,1.75,1.2,4.89,4.89,0,0,1,1,1.59,4.25,4.25,0,0,1,.34,1.62,2.82,2.82,0,0,1-.66,2.05,2.27,2.27,0,0,1-1.69.67h-6a1.71,1.71,0,0,0,.46,1.07,2.75,2.75,0,0,0,1,.71,3.68,3.68,0,0,0,1.32.25,6.54,6.54,0,0,0,1-.07,4.49,4.49,0,0,0,.79-.17c.22-.07.41-.15.59-.22a4.32,4.32,0,0,1,.48-.19,2.63,2.63,0,0,1,.43-.1,1,1,0,0,1,.67.21,2.11,2.11,0,0,1,.58.71,2.43,2.43,0,0,1,.24.53,2.14,2.14,0,0,1,.06.5,1.36,1.36,0,0,1-.61,1.09,4.74,4.74,0,0,1-1.73.73A11,11,0,0,1,233.58,35.13Zm-2.67-7.41h4a1.06,1.06,0,0,0,.58-.14.62.62,0,0,0,.2-.54,1.24,1.24,0,0,0-.28-.77,1.72,1.72,0,0,0-.74-.54,2.94,2.94,0,0,0-1.08-.19,3,3,0,0,0-1.35.3,2.39,2.39,0,0,0-.94.8A1.84,1.84,0,0,0,230.91,27.72Z"/><path class="cls-2" d="M243.18,34.91a2.39,2.39,0,0,1-1.31-.27,1.07,1.07,0,0,1-.48-.71,5.62,5.62,0,0,1-.08-.92V24.28a4.42,4.42,0,0,1,.09-.92,1,1,0,0,1,.49-.69,2.47,2.47,0,0,1,1.32-.26,2.52,2.52,0,0,1,1.27.24,1,1,0,0,1,.48.55,1.63,1.63,0,0,1,.1.53l-.3.15a3.91,3.91,0,0,1,.27-.36,3.47,3.47,0,0,1,.58-.55,3.79,3.79,0,0,1,.92-.49,3.57,3.57,0,0,1,1.23-.19l.62,0a5.2,5.2,0,0,1,.7.15,3.32,3.32,0,0,1,.66.3,1.69,1.69,0,0,1,.49.47,1.17,1.17,0,0,1,.18.67,3.12,3.12,0,0,1-.47,1.74,1.42,1.42,0,0,1-1.2.71,2,2,0,0,1-.6-.06.87.87,0,0,1-.29-.15,1.1,1.1,0,0,0-.26-.15,2,2,0,0,0-.55-.07,2.71,2.71,0,0,0-.71.1,2.08,2.08,0,0,0-.63.32,1.45,1.45,0,0,0-.61,1.23v5.48A5.4,5.4,0,0,1,245,34a1.07,1.07,0,0,1-.49.69A2.71,2.71,0,0,1,243.18,34.91Z"/><path class="cls-2" d="M258.58,35.14a7.12,7.12,0,0,1-3-.58,5.72,5.72,0,0,1-2.06-1.51,6.33,6.33,0,0,1-1.2-2.09,6.83,6.83,0,0,1-.4-2.3,6.38,6.38,0,0,1,.85-3.32,6.14,6.14,0,0,1,2.37-2.29,7,7,0,0,1,3.46-.83,6.22,6.22,0,0,1,2.51.46,5.23,5.23,0,0,1,1.75,1.2,4.89,4.89,0,0,1,1,1.59,4.32,4.32,0,0,1,.34,1.62,2.81,2.81,0,0,1-.66,2.05,2.29,2.29,0,0,1-1.69.68h-6a1.77,1.77,0,0,0,.46,1.08,2.85,2.85,0,0,0,1,.7,3.48,3.48,0,0,0,1.32.25,8.1,8.1,0,0,0,1-.06,4.49,4.49,0,0,0,.79-.17l.59-.23.48-.19a2.41,2.41,0,0,1,.43-.1,1,1,0,0,1,.67.22,1.93,1.93,0,0,1,.58.71,2.37,2.37,0,0,1,.24.52,2.2,2.2,0,0,1,.06.5,1.36,1.36,0,0,1-.61,1.09,4.81,4.81,0,0,1-1.73.74A11.56,11.56,0,0,1,258.58,35.14Zm-2.67-7.4h4a1.06,1.06,0,0,0,.58-.13.65.65,0,0,0,.2-.54,1.29,1.29,0,0,0-.28-.78,1.8,1.8,0,0,0-.74-.54,2.94,2.94,0,0,0-1.08-.18,3,3,0,0,0-1.35.3,2.37,2.37,0,0,0-.94.79A1.89,1.89,0,0,0,255.91,27.74Z"/><path class="cls-2" d="M272.48,35a6.47,6.47,0,0,1-2.24-.42,7.17,7.17,0,0,1-2.1-1.21,5.87,5.87,0,0,1-1.53-2,6.87,6.87,0,0,1,0-5.48,6,6,0,0,1,1.53-2,6.56,6.56,0,0,1,2.09-1.21,6.31,6.31,0,0,1,2.21-.42,6.42,6.42,0,0,1,1.66.22,5.41,5.41,0,0,1,1.25.51,3.87,3.87,0,0,1,.74.53,7,7,0,0,1,.75.65,1.11,1.11,0,0,1,.3.85,1.59,1.59,0,0,1-.18.56,4.36,4.36,0,0,1-.37.59c-.52.7-1,1-1.51.95a2.51,2.51,0,0,1-.68-.25l-.6-.35a5.86,5.86,0,0,0-.61-.32,2,2,0,0,0-.75-.14,2.54,2.54,0,0,0-1.3.34,2.64,2.64,0,0,0-.92.9,2.55,2.55,0,0,0-.33,1.31,2.44,2.44,0,0,0,.33,1.3,2.64,2.64,0,0,0,.9.92,2.47,2.47,0,0,0,1.26.33,2.39,2.39,0,0,0,.73-.1,2.17,2.17,0,0,0,.55-.23l.35-.21c.2-.14.39-.26.57-.37a1.19,1.19,0,0,1,.55-.16,1.28,1.28,0,0,1,.74.26,4.7,4.7,0,0,1,.81.84,2,2,0,0,1,.49,1,1.24,1.24,0,0,1-.21.86,2.66,2.66,0,0,1-.85.76,3.85,3.85,0,0,1-.72.45,6.24,6.24,0,0,1-1.25.5A5.64,5.64,0,0,1,272.48,35Z"/><path class="cls-2" d="M281.21,34.93a2.52,2.52,0,0,1-1.32-.26,1.08,1.08,0,0,1-.47-.7,4.69,4.69,0,0,1-.09-.94V18.63a4,4,0,0,1,.1-.93,1.11,1.11,0,0,1,.49-.68,2.37,2.37,0,0,1,1.31-.27,2.42,2.42,0,0,1,1.31.28,1.12,1.12,0,0,1,.48.7,4.45,4.45,0,0,1,.09.93v5.1a5.14,5.14,0,0,1,1.17-.9,3.13,3.13,0,0,1,1.68-.43,5.11,5.11,0,0,1,2.79.79,5.67,5.67,0,0,1,2,2.17,6.54,6.54,0,0,1,.74,3.15v4.52a4.57,4.57,0,0,1-.1.93,1.14,1.14,0,0,1-.48.68,3.31,3.31,0,0,1-2.62,0,1.06,1.06,0,0,1-.49-.7,4.62,4.62,0,0,1-.09-.94V28.51a2.77,2.77,0,0,0-.25-1.24,1.9,1.9,0,0,0-.73-.81,2.24,2.24,0,0,0-1.19-.3,2.43,2.43,0,0,0-1.61.56,2.05,2.05,0,0,0-.79,1.36v5a4.4,4.4,0,0,1-.1.92,1.16,1.16,0,0,1-.49.69A2.5,2.5,0,0,1,281.21,34.93Z"/><path class="cls-2" d="M304,34.92a2.3,2.3,0,0,1-1.37-.33.88.88,0,0,1-.43-.8l.25-.42a2.72,2.72,0,0,1-.57.61,4.25,4.25,0,0,1-2.78.94,4.89,4.89,0,0,1-2.19-.51A5.82,5.82,0,0,1,295.06,33a7.21,7.21,0,0,1-1.28-2,6.15,6.15,0,0,1-.47-2.37,5.83,5.83,0,0,1,.48-2.34A6.58,6.58,0,0,1,296.91,23a4.83,4.83,0,0,1,2.18-.49,4.1,4.1,0,0,1,1.57.26,4.15,4.15,0,0,1,1.09.61,3.45,3.45,0,0,1,.66.68l-.22-.35a1,1,0,0,1,.43-.91,2.44,2.44,0,0,1,1.39-.32,2.33,2.33,0,0,1,1.29.28,1.06,1.06,0,0,1,.47.73,4.69,4.69,0,0,1,.09.94V33a4.81,4.81,0,0,1-.09.93,1.12,1.12,0,0,1-.48.71A2.48,2.48,0,0,1,304,34.92Zm-4.37-3.73a2.13,2.13,0,0,0,1.2-.34,2.49,2.49,0,0,0,.85-.91,2.6,2.6,0,0,0,.32-1.27,2.45,2.45,0,0,0-1.19-2.18,2.45,2.45,0,0,0-1.23-.32,2.42,2.42,0,0,0-1.26.33,2.53,2.53,0,0,0-.9.91,2.5,2.5,0,0,0-.34,1.3A2.31,2.31,0,0,0,297.4,30a2.41,2.41,0,0,0,.92.9A2.49,2.49,0,0,0,299.61,31.19Z"/><path class="cls-4" d="M54.61,34.08h4.52q3.42,0,3.42,4a4,4,0,0,1-1.08,3.17c-.72.63-2,.94-3.85.94h-11a6.93,6.93,0,0,1-3.9-.77c-.69-.52-1-1.63-1-3.34a5.64,5.64,0,0,1,.16-1.45,3.69,3.69,0,0,1,.61-1.2,5.45,5.45,0,0,1,1.23-1.13c1.47-1,2.62-1.82,3.46-2.44s1.67-1.26,2.47-1.95a13.25,13.25,0,0,0,1.77-1.76,10.45,10.45,0,0,0,1-1.66A6.38,6.38,0,0,0,53,24.59a15.39,15.39,0,0,0,.14-2.19c0-1.56-.47-2.35-1.42-2.35s-1.55.93-1.55,2.77a2,2,0,0,1-1,2,7,7,0,0,1-2.89.46c-1.74,0-2.92-.39-3.53-1.17a6.48,6.48,0,0,1-.91-3.91,5.48,5.48,0,0,1,2.51-4.56,11.74,11.74,0,0,1,7-1.82q11.07,0,11.07,8.69A14.11,14.11,0,0,1,62,26.21,11.66,11.66,0,0,1,60.89,29a9.08,9.08,0,0,1-1.78,2.12A16.67,16.67,0,0,1,57,32.74,26.68,26.68,0,0,1,54.61,34.08Z"/><path class="cls-4" d="M65.24,39a2.78,2.78,0,0,1,1.16-2.31,5.38,5.38,0,0,1,3.28-.88c3,0,4.44,1.07,4.44,3.19a3.11,3.11,0,0,1-.57,2,2.73,2.73,0,0,1-1.51,1,9.2,9.2,0,0,1-2.37.26,6.12,6.12,0,0,1-3.17-.76A2.62,2.62,0,0,1,65.24,39Z"/><path class="cls-4" d="M86.34,35.55q0,3.41-1.18,4.85a4.36,4.36,0,0,1-3.59,1.45,5.66,5.66,0,0,1-2.56-.5,3.26,3.26,0,0,1-1.49-1.85A11.09,11.09,0,0,1,77,35.89l-.06-15.67a6.32,6.32,0,0,1-3.22-.73A2.6,2.6,0,0,1,72.43,17a2.78,2.78,0,0,1,1.16-2.29,5.16,5.16,0,0,1,3.24-.9c.54,0,1.31,0,2.3,0l2.1,0c2,0,3.36.34,4,1a5,5,0,0,1,1,3.59Z"/><path class="cls-3" d="M54.61,34.08h4.52q3.42,0,3.42,4a4,4,0,0,1-1.08,3.17c-.72.63-2,.94-3.85.94h-11a6.93,6.93,0,0,1-3.9-.77c-.69-.52-1-1.63-1-3.34a5.64,5.64,0,0,1,.16-1.45,3.69,3.69,0,0,1,.61-1.2,5.45,5.45,0,0,1,1.23-1.13c1.47-1,2.62-1.82,3.46-2.44s1.67-1.26,2.47-1.95a13.25,13.25,0,0,0,1.77-1.76,10.45,10.45,0,0,0,1-1.66A6.38,6.38,0,0,0,53,24.59a15.39,15.39,0,0,0,.14-2.19c0-1.56-.47-2.35-1.42-2.35s-1.55.93-1.55,2.77a2,2,0,0,1-1,2,7,7,0,0,1-2.89.46c-1.74,0-2.92-.39-3.53-1.17a6.48,6.48,0,0,1-.91-3.91,5.48,5.48,0,0,1,2.51-4.56,11.74,11.74,0,0,1,7-1.82q11.07,0,11.07,8.69A14.11,14.11,0,0,1,62,26.21,11.66,11.66,0,0,1,60.89,29a9.08,9.08,0,0,1-1.78,2.12A16.67,16.67,0,0,1,57,32.74,26.68,26.68,0,0,1,54.61,34.08Z"/><path class="cls-3" d="M65.24,39a2.78,2.78,0,0,1,1.16-2.31,5.38,5.38,0,0,1,3.28-.88c3,0,4.44,1.07,4.44,3.19a3.11,3.11,0,0,1-.57,2,2.73,2.73,0,0,1-1.51,1,9.2,9.2,0,0,1-2.37.26,6.12,6.12,0,0,1-3.17-.76A2.62,2.62,0,0,1,65.24,39Z"/><path class="cls-3" d="M86.34,35.55q0,3.41-1.18,4.85a4.36,4.36,0,0,1-3.59,1.45,5.66,5.66,0,0,1-2.56-.5,3.26,3.26,0,0,1-1.49-1.85A11.09,11.09,0,0,1,77,35.89l-.06-15.67a6.32,6.32,0,0,1-3.22-.73A2.6,2.6,0,0,1,72.43,17a2.78,2.78,0,0,1,1.16-2.29,5.16,5.16,0,0,1,3.24-.9c.54,0,1.31,0,2.3,0l2.1,0c2,0,3.36.34,4,1a5,5,0,0,1,1,3.59Z"/></g></g></svg>