<svg xmlns="http://www.w3.org/2000/svg" viewBox="0 0 401.16 76.08"><defs><style>.cls-1{fill:#0468ad;}.cls-2{fill:#fff;}.cls-3,.cls-4{fill:none;stroke-width:5px;}.cls-3{stroke:#c8a927;stroke-linejoin:round;}.cls-4{stroke:#fff;}.cls-5{fill:#c8a927;}</style></defs><title>21t</title><g id="Layer_2" data-name="Layer 2"><g id="mesa"><rect class="cls-1" width="401.16" height="76.08" rx="32.4"/><path class="cls-2" d="M120.38,33.84a2.4,2.4,0,0,1-1.32-.28,1.14,1.14,0,0,1-.48-.72,4.08,4.08,0,0,1-.1-.93V18.26a3.85,3.85,0,0,1,.1-.91,1.11,1.11,0,0,1,.5-.71,2.31,2.31,0,0,1,1.32-.28h5.18a6.69,6.69,0,0,1,2.12.38,6,6,0,0,1,2,1.15,5.61,5.61,0,0,1,1.45,1.93,6.2,6.2,0,0,1,.55,2.72,6.68,6.68,0,0,1-.31,2,5.73,5.73,0,0,1-.94,1.8,6,6,0,0,1-1.55,1.4,6.75,6.75,0,0,1-2.13.86H122.3v3.3a3.91,3.91,0,0,1-.1.91,1.15,1.15,0,0,1-.5.71A2.35,2.35,0,0,1,120.38,33.84Zm1.93-9h3.47a2,2,0,0,0,.7-.13,2.21,2.21,0,0,0,.69-.41,2.08,2.08,0,0,0,.51-.73,2.52,2.52,0,0,0,.2-1.07,2.46,2.46,0,0,0-.3-1.25,2.09,2.09,0,0,0-.82-.82,2.54,2.54,0,0,0-1.23-.29h-3.22Zm8.62,8.48a2,2,0,0,1-1.48.54,2.24,2.24,0,0,1-1.15-1l-4.39-6.3,4.27-.55,3.22,4.63a3.39,3.39,0,0,1,.54,1,1,1,0,0,1-.13.8A3.25,3.25,0,0,1,130.93,33.34Z"/><path class="cls-2" d="M140.28,34.07a7.3,7.3,0,0,1-3-.57A5.86,5.86,0,0,1,135.2,32a6.51,6.51,0,0,1-1.2-2.09,7.09,7.09,0,0,1-.4-2.3,6.42,6.42,0,0,1,.86-3.32A6,6,0,0,1,136.82,22a7.11,7.11,0,0,1,3.46-.83,6.27,6.27,0,0,1,2.52.46,5.18,5.18,0,0,1,1.74,1.2,5.34,5.34,0,0,1,1,1.59,4.54,4.54,0,0,1,.34,1.63,2.89,2.89,0,0,1-.67,2,2.25,2.25,0,0,1-1.69.67h-6a1.77,1.77,0,0,0,.47,1.07,2.69,2.69,0,0,0,1,.7,3.5,3.5,0,0,0,1.33.25,7.94,7.94,0,0,0,1-.06,4.3,4.3,0,0,0,.79-.17c.22-.08.42-.15.59-.23a4.27,4.27,0,0,1,.49-.18,1.81,1.81,0,0,1,.42-.1,1,1,0,0,1,.68.21A2,2,0,0,1,145,31a1.65,1.65,0,0,1,.24.53,2.07,2.07,0,0,1,.06.5,1.32,1.32,0,0,1-.61,1.08,4.73,4.73,0,0,1-1.73.74A11.47,11.47,0,0,1,140.28,34.07Zm-2.68-7.4h4a1,1,0,0,0,.58-.13.62.62,0,0,0,.2-.54,1.27,1.27,0,0,0-.27-.78,1.76,1.76,0,0,0-.74-.53,2.8,2.8,0,0,0-1.09-.19,3,3,0,0,0-1.35.3,2.38,2.38,0,0,0-.94.8A1.91,1.91,0,0,0,137.6,26.67Z"/><path class="cls-2" d="M154.18,34a6.42,6.42,0,0,1-2.24-.42,6.92,6.92,0,0,1-2.1-1.21,5.8,5.8,0,0,1-1.54-2,6.35,6.35,0,0,1-.57-2.75,6.09,6.09,0,0,1,.58-2.73,6,6,0,0,1,1.52-2,6.87,6.87,0,0,1,2.09-1.21,6.37,6.37,0,0,1,2.21-.41,6.15,6.15,0,0,1,1.67.21,5.6,5.6,0,0,1,1.25.51,3.74,3.74,0,0,1,.73.53,7.16,7.16,0,0,1,.75.65,1.05,1.05,0,0,1,.3.85,1.56,1.56,0,0,1-.17.56,4.48,4.48,0,0,1-.38.59c-.52.7-1,1-1.5.95a2.58,2.58,0,0,1-.69-.25l-.6-.35a5,5,0,0,0-.61-.32,2,2,0,0,0-.75-.13,2.56,2.56,0,0,0-1.3.33,2.61,2.61,0,0,0-.91.9,2.69,2.69,0,0,0,0,2.62,2.53,2.53,0,0,0,.9.91,2.42,2.42,0,0,0,1.26.34,2.66,2.66,0,0,0,.72-.1,2.59,2.59,0,0,0,.55-.24l.35-.21a5.41,5.41,0,0,1,.58-.36,1,1,0,0,1,.55-.17,1.25,1.25,0,0,1,.74.27,4.28,4.28,0,0,1,.81.83,2.07,2.07,0,0,1,.48,1,1.13,1.13,0,0,1-.21.86,2.56,2.56,0,0,1-.85.76,3.69,3.69,0,0,1-.71.45,6.49,6.49,0,0,1-1.25.5A5.69,5.69,0,0,1,154.18,34Z"/><path class="cls-2" d="M167.13,34.06a6.21,6.21,0,0,1-2.34-.46,7.11,7.11,0,0,1-2.11-1.31,6.41,6.41,0,0,1-1.52-2,6.41,6.41,0,0,1,0-5.15A6.63,6.63,0,0,1,162.53,23a6.75,6.75,0,0,1,2.06-1.41,6,6,0,0,1,2.49-.52,6.33,6.33,0,0,1,3.26.87,6.4,6.4,0,0,1,2.34,2.34,6.71,6.71,0,0,1,.31,6,6.5,6.5,0,0,1-1.5,2,6.57,6.57,0,0,1-2.08,1.29A6.35,6.35,0,0,1,167.13,34.06Zm0-3.77a2.81,2.81,0,0,0,1.22-.3,2.67,2.67,0,0,0,1-.9,2.53,2.53,0,0,0,.43-1.52,2.74,2.74,0,0,0-.35-1.4,2.41,2.41,0,0,0-1-.94,2.83,2.83,0,0,0-1.41-.34,2.6,2.6,0,0,0-1.34.35,2.65,2.65,0,0,0-.95,1,2.7,2.7,0,0,0-.37,1.39,2.61,2.61,0,0,0,.42,1.51,2.47,2.47,0,0,0,1,.9A3,3,0,0,0,167.08,30.29Z"/><path class="cls-2" d="M177.45,33.87a2.48,2.48,0,0,1-1.31-.26,1.11,1.11,0,0,1-.48-.72,4.63,4.63,0,0,1-.08-.92V23.24a4.42,4.42,0,0,1,.09-.92,1.08,1.08,0,0,1,.49-.69,2.54,2.54,0,0,1,1.32-.26,2.52,2.52,0,0,1,1.27.24,1,1,0,0,1,.48.55,1.73,1.73,0,0,1,.1.54l-.3.15a2.39,2.39,0,0,1,.26-.37,4.66,4.66,0,0,1,.59-.55,3.46,3.46,0,0,1,.92-.48,3.34,3.34,0,0,1,1.23-.2,4.45,4.45,0,0,1,.61,0,3,3,0,0,1,.7.15,2.4,2.4,0,0,1,.67.3,1.51,1.51,0,0,1,.48.46,1.14,1.14,0,0,1,.19.68,3.08,3.08,0,0,1-.47,1.73,1.4,1.4,0,0,1-1.21.71,2,2,0,0,1-.59-.06.87.87,0,0,1-.29-.15,1.1,1.1,0,0,0-.26-.15,1.72,1.72,0,0,0-.55-.06,2.46,2.46,0,0,0-.72.1,1.9,1.9,0,0,0-.62.31,1.6,1.6,0,0,0-.45.52,1.53,1.53,0,0,0-.17.72V32a4.46,4.46,0,0,1-.09.91,1,1,0,0,1-.48.69A2.6,2.6,0,0,1,177.45,33.87Z"/><path class="cls-2" d="M187.43,21.58h2.75l3.45-.1a4.29,4.29,0,0,1,.9.09,1.08,1.08,0,0,1,.7.49,2.31,2.31,0,0,1,.28,1.32,2.25,2.25,0,0,1-.27,1.25,1.1,1.1,0,0,1-.69.51,3.36,3.36,0,0,1-.92.12l-3.27-.08-3,0a1.26,1.26,0,0,1-1-.46,2.55,2.55,0,0,1-.29-1.39,2.15,2.15,0,0,1,.35-1.34A1.27,1.27,0,0,1,187.43,21.58Zm5.65,12.3a7.45,7.45,0,0,1-2.2-.28,3.32,3.32,0,0,1-2.39-2.31,6.94,6.94,0,0,1-.29-2.11V19.05a4.15,4.15,0,0,1,.09-.92,1,1,0,0,1,.48-.66,2.42,2.42,0,0,1,1.31-.27,2.35,2.35,0,0,1,1.29.28,1.1,1.1,0,0,1,.49.71,4.53,4.53,0,0,1,.09.91V29a3,3,0,0,0,.06.66.88.88,0,0,0,.19.39.83.83,0,0,0,.35.18,2.88,2.88,0,0,0,.55,0,4.13,4.13,0,0,1,1,.11,1,1,0,0,1,.66.45A2.13,2.13,0,0,1,195,32a2.39,2.39,0,0,1-.28,1.3,1,1,0,0,1-.71.48A5.41,5.41,0,0,1,193.08,33.88Z"/><path class="cls-2" d="M203.63,34.11a7.14,7.14,0,0,1-3-.58A5.72,5.72,0,0,1,198.55,32a6.51,6.51,0,0,1-1.2-2.09,7.09,7.09,0,0,1-.4-2.3,6.39,6.39,0,0,1,.86-3.32A6,6,0,0,1,200.17,22a7,7,0,0,1,3.46-.83,6.18,6.18,0,0,1,2.51.46,5.12,5.12,0,0,1,2.78,2.79,4.5,4.5,0,0,1,.33,1.62,2.82,2.82,0,0,1-.66,2.05,2.26,2.26,0,0,1-1.69.68h-6a1.78,1.78,0,0,0,.47,1.08,2.81,2.81,0,0,0,1,.7,3.5,3.5,0,0,0,1.33.25,7.94,7.94,0,0,0,1-.06,4.49,4.49,0,0,0,.79-.17l.59-.23.49-.19a2.53,2.53,0,0,1,.42-.1,1,1,0,0,1,.68.22,2,2,0,0,1,.57.71,1.71,1.71,0,0,1,.24.52,2.2,2.2,0,0,1,.06.5A1.34,1.34,0,0,1,208,33.1a4.73,4.73,0,0,1-1.73.74A11.53,11.53,0,0,1,203.63,34.11ZM201,26.71h4a1,1,0,0,0,.58-.13.65.65,0,0,0,.2-.54,1.21,1.21,0,0,0-.28-.78,1.77,1.77,0,0,0-.73-.54,3.27,3.27,0,0,0-2.44.12,2.44,2.44,0,0,0-.94.79A2,2,0,0,0,201,26.71Z"/><path class="cls-2" d="M223.87,34a2.21,2.21,0,0,1-1-.23,1.47,1.47,0,0,1-.67-.7l-4.49-9a2,2,0,0,1-.26-1.48,2,2,0,0,1,1.14-1.06,2.41,2.41,0,0,1,1.51-.32c.37.1.71.49,1,1.19l2.8,6.5,2.8-6.42c.3-.72.64-1.13,1-1.25a2.21,2.21,0,0,1,1.57.33c.68.31,1.06.68,1.13,1.11a2.31,2.31,0,0,1-.31,1.46l-4.48,8.92a1.48,1.48,0,0,1-.65.7A2.28,2.28,0,0,1,223.87,34Z"/><path class="cls-2" d="M238.67,34.13a7.28,7.28,0,0,1-3-.57A5.86,5.86,0,0,1,233.6,32,6.51,6.51,0,0,1,232.4,30a6.83,6.83,0,0,1-.4-2.3,6.51,6.51,0,0,1,.85-3.32A6.14,6.14,0,0,1,235.22,22a7.11,7.11,0,0,1,3.46-.83,6.18,6.18,0,0,1,2.51.46,5.23,5.23,0,0,1,1.75,1.2,5.1,5.1,0,0,1,1,1.59,4.51,4.51,0,0,1,.33,1.63,2.84,2.84,0,0,1-.66,2.05,2.27,2.27,0,0,1-1.69.67H236a1.82,1.82,0,0,0,.46,1.07,2.73,2.73,0,0,0,1,.7,3.5,3.5,0,0,0,1.33.25,8.05,8.05,0,0,0,1-.06,4.49,4.49,0,0,0,.79-.17l.59-.23.49-.19a2.53,2.53,0,0,1,.42-.1,1.06,1.06,0,0,1,.68.22,2.11,2.11,0,0,1,.57.71,1.65,1.65,0,0,1,.24.53,2.07,2.07,0,0,1,.06.5,1.33,1.33,0,0,1-.61,1.08,4.73,4.73,0,0,1-1.73.74A11.56,11.56,0,0,1,238.67,34.13ZM236,26.73H240a1.06,1.06,0,0,0,.58-.13.62.62,0,0,0,.2-.54,1.23,1.23,0,0,0-.28-.78,1.67,1.67,0,0,0-.73-.53,2.8,2.8,0,0,0-1.09-.19,3,3,0,0,0-1.35.3,2.38,2.38,0,0,0-.94.8A1.91,1.91,0,0,0,236,26.73Z"/><path class="cls-2" d="M248.27,33.91a2.41,2.41,0,0,1-1.31-.26,1.08,1.08,0,0,1-.47-.71,4.73,4.73,0,0,1-.09-.93V23.29a4.54,4.54,0,0,1,.08-.93,1.08,1.08,0,0,1,.49-.69,2.59,2.59,0,0,1,1.33-.26,2.5,2.5,0,0,1,1.26.24,1.06,1.06,0,0,1,.49.55,2.08,2.08,0,0,1,.1.54l-.3.15a2,2,0,0,1,.26-.36,3.2,3.2,0,0,1,.59-.55,3.4,3.4,0,0,1,.91-.49,3.62,3.62,0,0,1,1.24-.2,4.66,4.66,0,0,1,.61,0,3.14,3.14,0,0,1,.7.15,2.47,2.47,0,0,1,.66.3,1.66,1.66,0,0,1,.49.46,1.15,1.15,0,0,1,.18.68,3,3,0,0,1-.47,1.73,1.41,1.41,0,0,1-1.2.72,1.7,1.7,0,0,1-.6-.07,1,1,0,0,1-.29-.15,1.27,1.27,0,0,0-.26-.15,1.68,1.68,0,0,0-.55-.06,2.34,2.34,0,0,0-.71.1,2.06,2.06,0,0,0-.63.31,1.54,1.54,0,0,0-.45.53,1.49,1.49,0,0,0-.16.71v5.47a5.43,5.43,0,0,1-.08.92,1,1,0,0,1-.49.68A2.6,2.6,0,0,1,248.27,33.91Z"/><path class="cls-2" d="M258.26,21.62H261l3.45-.1a4.43,4.43,0,0,1,.9.09,1.13,1.13,0,0,1,.7.49,2.46,2.46,0,0,1,.27,1.32,2.35,2.35,0,0,1-.26,1.25,1.21,1.21,0,0,1-.69.52,3.89,3.89,0,0,1-.93.11l-3.27-.08-3,0a1.23,1.23,0,0,1-1-.46,2.52,2.52,0,0,1-.29-1.39,2.05,2.05,0,0,1,.36-1.33A1.23,1.23,0,0,1,258.26,21.62Zm5.64,12.3a7.87,7.87,0,0,1-2.2-.27,3.36,3.36,0,0,1-2.39-2.32,6.91,6.91,0,0,1-.28-2.11V19.09a4.22,4.22,0,0,1,.09-.92,1,1,0,0,1,.49-.66,3.32,3.32,0,0,1,2.6,0,1.16,1.16,0,0,1,.49.71,5.52,5.52,0,0,1,.08.92v9.92a3,3,0,0,0,.06.66.71.71,0,0,0,.19.39.69.69,0,0,0,.35.18,2.79,2.79,0,0,0,.55.05,4.07,4.07,0,0,1,1,.1,1.06,1.06,0,0,1,.66.45,2.13,2.13,0,0,1,.24,1.17,2.28,2.28,0,0,1-.28,1.3,1,1,0,0,1-.71.48A5.41,5.41,0,0,1,263.9,33.92Z"/><path class="cls-2" d="M270.26,19.63a2.47,2.47,0,0,1-1.35-.28,1.12,1.12,0,0,1-.49-.72,4.89,4.89,0,0,1-.09-1,4.82,4.82,0,0,1,.09-1,1.09,1.09,0,0,1,.5-.7,2.71,2.71,0,0,1,1.36-.26,2.37,2.37,0,0,1,1.33.28,1.09,1.09,0,0,1,.49.72,6,6,0,0,1,.08,1,4.7,4.7,0,0,1-.09.92,1,1,0,0,1-.48.71A2.53,2.53,0,0,1,270.26,19.63Zm0,14.3a2.47,2.47,0,0,1-1.33-.27,1,1,0,0,1-.47-.7,5.31,5.31,0,0,1-.08-.91V23.33a4.56,4.56,0,0,1,.09-.92,1.08,1.08,0,0,1,.49-.7,2.52,2.52,0,0,1,1.32-.26,2.24,2.24,0,0,1,1.29.28,1.1,1.1,0,0,1,.47.71,4.62,4.62,0,0,1,.09.94v8.7A5.4,5.4,0,0,1,272,33a1.06,1.06,0,0,1-.48.69A2.6,2.6,0,0,1,270.25,33.93Z"/><path class="cls-2" d="M281,34a6.59,6.59,0,0,1-2.23-.41,7.13,7.13,0,0,1-2.1-1.21,5.93,5.93,0,0,1-1.54-2,6.32,6.32,0,0,1-.57-2.75,5.86,5.86,0,0,1,2.1-4.69,6.78,6.78,0,0,1,2.09-1.22,6.57,6.57,0,0,1,2.21-.41,5.66,5.66,0,0,1,1.66.22,5.41,5.41,0,0,1,1.25.51,3.47,3.47,0,0,1,.74.53,7,7,0,0,1,.75.65,1,1,0,0,1,.3.85,1.59,1.59,0,0,1-.18.56,4.36,4.36,0,0,1-.37.59c-.52.69-1,1-1.5.94a2.27,2.27,0,0,1-.69-.25c-.21-.11-.41-.23-.6-.35a5.81,5.81,0,0,0-.61-.31,2,2,0,0,0-.75-.14,2.57,2.57,0,0,0-2.22,1.24,2.52,2.52,0,0,0-.33,1.31,2.56,2.56,0,0,0,.33,1.3,2.53,2.53,0,0,0,.9.91,2.39,2.39,0,0,0,1.27.34,2.37,2.37,0,0,0,.72-.1,2.17,2.17,0,0,0,.55-.23l.35-.22.58-.36a1,1,0,0,1,.55-.16,1.25,1.25,0,0,1,.73.26,4.38,4.38,0,0,1,.81.84,2,2,0,0,1,.49,1,1.24,1.24,0,0,1-.21.86,2.67,2.67,0,0,1-.85.76,4.05,4.05,0,0,1-.71.45,7.55,7.55,0,0,1-1.25.5A5.77,5.77,0,0,1,281,34Z"/><path class="cls-2" d="M298.12,33.92a2.33,2.33,0,0,1-1.37-.33.91.91,0,0,1-.43-.8l.25-.42A3,3,0,0,1,296,33a4.35,4.35,0,0,1-1.12.65,4.29,4.29,0,0,1-1.66.29,4.88,4.88,0,0,1-2.18-.51A5.75,5.75,0,0,1,289.2,32a7.45,7.45,0,0,1-1.28-2,6.15,6.15,0,0,1-.47-2.37,5.83,5.83,0,0,1,.48-2.34A6.69,6.69,0,0,1,291.05,22a5,5,0,0,1,2.18-.49,4.06,4.06,0,0,1,1.57.26,4.15,4.15,0,0,1,1.09.61,3.45,3.45,0,0,1,.66.68l-.22-.35a1,1,0,0,1,.44-.91,2.39,2.39,0,0,1,1.39-.32,2.31,2.31,0,0,1,1.28.28,1.11,1.11,0,0,1,.48.72,4.87,4.87,0,0,1,.08.95V32a4.63,4.63,0,0,1-.09.92,1.14,1.14,0,0,1-.47.72A2.52,2.52,0,0,1,298.12,33.92Zm-4.37-3.73a2.13,2.13,0,0,0,1.2-.34,2.63,2.63,0,0,0,.85-3.47,2.4,2.4,0,0,0-.87-.89,2.35,2.35,0,0,0-1.23-.32,2.47,2.47,0,0,0-1.26.33,2.61,2.61,0,0,0-.9.91,2.5,2.5,0,0,0-.34,1.3,2.31,2.31,0,0,0,.34,1.24,2.41,2.41,0,0,0,.92.9A2.49,2.49,0,0,0,293.75,30.19Z"/><path class="cls-2" d="M307.3,34a16.4,16.4,0,0,1-1.83-.1,3.9,3.9,0,0,1-1.35-.4,2.58,2.58,0,0,1-.9-.84,4,4,0,0,1-.52-1.38,9.39,9.39,0,0,1-.17-2.06V17.62a4.4,4.4,0,0,1,.1-.92,1.15,1.15,0,0,1,.49-.7,2.29,2.29,0,0,1,1.31-.28,2.24,2.24,0,0,1,1.29.28,1.18,1.18,0,0,1,.49.7,4.4,4.4,0,0,1,.1.92V29a4.08,4.08,0,0,0,0,.66.77.77,0,0,0,.15.41.51.51,0,0,0,.31.2,1.9,1.9,0,0,0,.52.05,2.7,2.7,0,0,1,.62.08.87.87,0,0,1,.53.45,2.56,2.56,0,0,1,.23,1.25,2.79,2.79,0,0,1-.23,1.3.86.86,0,0,1-.54.47A2.65,2.65,0,0,1,307.3,34Z"/><path class="cls-3" d="M120.38,33.84a2.4,2.4,0,0,1-1.32-.28,1.14,1.14,0,0,1-.48-.72,4.08,4.08,0,0,1-.1-.93V18.26a3.85,3.85,0,0,1,.1-.91,1.11,1.11,0,0,1,.5-.71,2.31,2.31,0,0,1,1.32-.28h5.18a6.69,6.69,0,0,1,2.12.38,6,6,0,0,1,2,1.15,5.61,5.61,0,0,1,1.45,1.93,6.2,6.2,0,0,1,.55,2.72,6.68,6.68,0,0,1-.31,2,5.73,5.73,0,0,1-.94,1.8,6,6,0,0,1-1.55,1.4,6.75,6.75,0,0,1-2.13.86H122.3v3.3a3.91,3.91,0,0,1-.1.91,1.15,1.15,0,0,1-.5.71A2.35,2.35,0,0,1,120.38,33.84Zm1.93-9h3.47a2,2,0,0,0,.7-.13,2.21,2.21,0,0,0,.69-.41,2.08,2.08,0,0,0,.51-.73,2.52,2.52,0,0,0,.2-1.07,2.46,2.46,0,0,0-.3-1.25,2.09,2.09,0,0,0-.82-.82,2.54,2.54,0,0,0-1.23-.29h-3.22Zm8.62,8.48a2,2,0,0,1-1.48.54,2.24,2.24,0,0,1-1.15-1l-4.39-6.3,4.27-.55,3.22,4.63a3.39,3.39,0,0,1,.54,1,1,1,0,0,1-.13.8A3.25,3.25,0,0,1,130.93,33.34Z"/><path class="cls-3" d="M140.28,34.07a7.3,7.3,0,0,1-3-.57A5.86,5.86,0,0,1,135.2,32a6.51,6.51,0,0,1-1.2-2.09,7.09,7.09,0,0,1-.4-2.3,6.42,6.42,0,0,1,.86-3.32A6,6,0,0,1,136.82,22a7.11,7.11,0,0,1,3.46-.83,6.27,6.27,0,0,1,2.52.46,5.18,5.18,0,0,1,1.74,1.2,5.34,5.34,0,0,1,1,1.59,4.54,4.54,0,0,1,.34,1.63,2.89,2.89,0,0,1-.67,2,2.25,2.25,0,0,1-1.69.67h-6a1.77,1.77,0,0,0,.47,1.07,2.69,2.69,0,0,0,1,.7,3.5,3.5,0,0,0,1.33.25,7.94,7.94,0,0,0,1-.06,4.3,4.3,0,0,0,.79-.17c.22-.08.42-.15.59-.23a4.27,4.27,0,0,1,.49-.18,1.81,1.81,0,0,1,.42-.1,1,1,0,0,1,.68.21A2,2,0,0,1,145,31a1.65,1.65,0,0,1,.24.53,2.07,2.07,0,0,1,.06.5,1.32,1.32,0,0,1-.61,1.08,4.73,4.73,0,0,1-1.73.74A11.47,11.47,0,0,1,140.28,34.07Zm-2.68-7.4h4a1,1,0,0,0,.58-.13.62.62,0,0,0,.2-.54,1.27,1.27,0,0,0-.27-.78,1.76,1.76,0,0,0-.74-.53,2.8,2.8,0,0,0-1.09-.19,3,3,0,0,0-1.35.3,2.38,2.38,0,0,0-.94.8A1.91,1.91,0,0,0,137.6,26.67Z"/><path class="cls-3" d="M154.18,34a6.42,6.42,0,0,1-2.24-.42,6.92,6.92,0,0,1-2.1-1.21,5.8,5.8,0,0,1-1.54-2,6.35,6.35,0,0,1-.57-2.75,6.09,6.09,0,0,1,.58-2.73,6,6,0,0,1,1.52-2,6.87,6.87,0,0,1,2.09-1.21,6.37,6.37,0,0,1,2.21-.41,6.15,6.15,0,0,1,1.67.21,5.6,5.6,0,0,1,1.25.51,3.74,3.74,0,0,1,.73.53,7.16,7.16,0,0,1,.75.65,1.05,1.05,0,0,1,.3.85,1.56,1.56,0,0,1-.17.56,4.48,4.48,0,0,1-.38.59c-.52.7-1,1-1.5.95a2.58,2.58,0,0,1-.69-.25l-.6-.35a5,5,0,0,0-.61-.32,2,2,0,0,0-.75-.13,2.56,2.56,0,0,0-1.3.33,2.61,2.61,0,0,0-.91.9,2.69,2.69,0,0,0,0,2.62,2.53,2.53,0,0,0,.9.91,2.42,2.42,0,0,0,1.26.34,2.66,2.66,0,0,0,.72-.1,2.59,2.59,0,0,0,.55-.24l.35-.21a5.41,5.41,0,0,1,.58-.36,1,1,0,0,1,.55-.17,1.25,1.25,0,0,1,.74.27,4.28,4.28,0,0,1,.81.83,2.07,2.07,0,0,1,.48,1,1.13,1.13,0,0,1-.21.86,2.56,2.56,0,0,1-.85.76,3.69,3.69,0,0,1-.71.45,6.49,6.49,0,0,1-1.25.5A5.69,5.69,0,0,1,154.18,34Z"/><path class="cls-3" d="M167.13,34.06a6.21,6.21,0,0,1-2.34-.46,7.11,7.11,0,0,1-2.11-1.31,6.41,6.41,0,0,1-1.52-2,6.41,6.41,0,0,1,0-5.15A6.63,6.63,0,0,1,162.53,23a6.75,6.75,0,0,1,2.06-1.41,6,6,0,0,1,2.49-.52,6.33,6.33,0,0,1,3.26.87,6.4,6.4,0,0,1,2.34,2.34,6.71,6.71,0,0,1,.31,6,6.5,6.5,0,0,1-1.5,2,6.57,6.57,0,0,1-2.08,1.29A6.35,6.35,0,0,1,167.13,34.06Zm0-3.77a2.81,2.81,0,0,0,1.22-.3,2.67,2.67,0,0,0,1-.9,2.53,2.53,0,0,0,.43-1.52,2.74,2.74,0,0,0-.35-1.4,2.41,2.41,0,0,0-1-.94,2.83,2.83,0,0,0-1.41-.34,2.6,2.6,0,0,0-1.34.35,2.65,2.65,0,0,0-.95,1,2.7,2.7,0,0,0-.37,1.39,2.61,2.61,0,0,0,.42,1.51,2.47,2.47,0,0,0,1,.9A3,3,0,0,0,167.08,30.29Z"/><path class="cls-3" d="M177.45,33.87a2.48,2.48,0,0,1-1.31-.26,1.11,1.11,0,0,1-.48-.72,4.63,4.63,0,0,1-.08-.92V23.24a4.42,4.42,0,0,1,.09-.92,1.08,1.08,0,0,1,.49-.69,2.54,2.54,0,0,1,1.32-.26,2.52,2.52,0,0,1,1.27.24,1,1,0,0,1,.48.55,1.73,1.73,0,0,1,.1.54l-.3.15a2.39,2.39,0,0,1,.26-.37,4.66,4.66,0,0,1,.59-.55,3.46,3.46,0,0,1,.92-.48,3.34,3.34,0,0,1,1.23-.2,4.45,4.45,0,0,1,.61,0,3,3,0,0,1,.7.15,2.4,2.4,0,0,1,.67.3,1.51,1.51,0,0,1,.48.46,1.14,1.14,0,0,1,.19.68,3.08,3.08,0,0,1-.47,1.73,1.4,1.4,0,0,1-1.21.71,2,2,0,0,1-.59-.06.87.87,0,0,1-.29-.15,1.1,1.1,0,0,0-.26-.15,1.72,1.72,0,0,0-.55-.06,2.46,2.46,0,0,0-.72.1,1.9,1.9,0,0,0-.62.31,1.6,1.6,0,0,0-.45.52,1.53,1.53,0,0,0-.17.72V32a4.46,4.46,0,0,1-.09.91,1,1,0,0,1-.48.69A2.6,2.6,0,0,1,177.45,33.87Z"/><path class="cls-3" d="M187.43,21.58h2.75l3.45-.1a4.29,4.29,0,0,1,.9.09,1.08,1.08,0,0,1,.7.49,2.31,2.31,0,0,1,.28,1.32,2.25,2.25,0,0,1-.27,1.25,1.1,1.1,0,0,1-.69.51,3.36,3.36,0,0,1-.92.12l-3.27-.08-3,0a1.26,1.26,0,0,1-1-.46,2.55,2.55,0,0,1-.29-1.39,2.15,2.15,0,0,1,.35-1.34A1.27,1.27,0,0,1,187.43,21.58Zm5.65,12.3a7.45,7.45,0,0,1-2.2-.28,3.32,3.32,0,0,1-2.39-2.31,6.94,6.94,0,0,1-.29-2.11V19.05a4.15,4.15,0,0,1,.09-.92,1,1,0,0,1,.48-.66,2.42,2.42,0,0,1,1.31-.27,2.35,2.35,0,0,1,1.29.28,1.1,1.1,0,0,1,.49.71,4.53,4.53,0,0,1,.09.91V29a3,3,0,0,0,.06.66.88.88,0,0,0,.19.39.83.83,0,0,0,.35.18,2.88,2.88,0,0,0,.55,0,4.13,4.13,0,0,1,1,.11,1,1,0,0,1,.66.45A2.13,2.13,0,0,1,195,32a2.39,2.39,0,0,1-.28,1.3,1,1,0,0,1-.71.48A5.41,5.41,0,0,1,193.08,33.88Z"/><path class="cls-3" d="M203.63,34.11a7.14,7.14,0,0,1-3-.58A5.72,5.72,0,0,1,198.55,32a6.51,6.51,0,0,1-1.2-2.09,7.09,7.09,0,0,1-.4-2.3,6.39,6.39,0,0,1,.86-3.32A6,6,0,0,1,200.17,22a7,7,0,0,1,3.46-.83,6.18,6.18,0,0,1,2.51.46,5.12,5.12,0,0,1,2.78,2.79,4.5,4.5,0,0,1,.33,1.62,2.82,2.82,0,0,1-.66,2.05,2.26,2.26,0,0,1-1.69.68h-6a1.78,1.78,0,0,0,.47,1.08,2.81,2.81,0,0,0,1,.7,3.5,3.5,0,0,0,1.33.25,7.94,7.94,0,0,0,1-.06,4.49,4.49,0,0,0,.79-.17l.59-.23.49-.19a2.53,2.53,0,0,1,.42-.1,1,1,0,0,1,.68.22,2,2,0,0,1,.57.71,1.71,1.71,0,0,1,.24.52,2.2,2.2,0,0,1,.06.5A1.34,1.34,0,0,1,208,33.1a4.73,4.73,0,0,1-1.73.74A11.53,11.53,0,0,1,203.63,34.11ZM201,26.71h4a1,1,0,0,0,.58-.13.65.65,0,0,0,.2-.54,1.21,1.21,0,0,0-.28-.78,1.77,1.77,0,0,0-.73-.54,3.27,3.27,0,0,0-2.44.12,2.44,2.44,0,0,0-.94.79A2,2,0,0,0,201,26.71Z"/><path class="cls-3" d="M223.87,34a2.21,2.21,0,0,1-1-.23,1.47,1.47,0,0,1-.67-.7l-4.49-9a2,2,0,0,1-.26-1.48,2,2,0,0,1,1.14-1.06,2.41,2.41,0,0,1,1.51-.32c.37.1.71.49,1,1.19l2.8,6.5,2.8-6.42c.3-.72.64-1.13,1-1.25a2.21,2.21,0,0,1,1.57.33c.68.31,1.06.68,1.13,1.11a2.31,2.31,0,0,1-.31,1.46l-4.48,8.92a1.48,1.48,0,0,1-.65.7A2.28,2.28,0,0,1,223.87,34Z"/><path class="cls-3" d="M238.67,34.13a7.28,7.28,0,0,1-3-.57A5.86,5.86,0,0,1,233.6,32,6.51,6.51,0,0,1,232.4,30a6.83,6.83,0,0,1-.4-2.3,6.51,6.51,0,0,1,.85-3.32A6.14,6.14,0,0,1,235.22,22a7.11,7.11,0,0,1,3.46-.83,6.18,6.18,0,0,1,2.51.46,5.23,5.23,0,0,1,1.75,1.2,5.1,5.1,0,0,1,1,1.59,4.51,4.51,0,0,1,.33,1.63,2.84,2.84,0,0,1-.66,2.05,2.27,2.27,0,0,1-1.69.67H236a1.82,1.82,0,0,0,.46,1.07,2.73,2.73,0,0,0,1,.7,3.5,3.5,0,0,0,1.33.25,8.05,8.05,0,0,0,1-.06,4.49,4.49,0,0,0,.79-.17l.59-.23.49-.19a2.53,2.53,0,0,1,.42-.1,1.06,1.06,0,0,1,.68.22,2.11,2.11,0,0,1,.57.71,1.65,1.65,0,0,1,.24.53,2.07,2.07,0,0,1,.06.5,1.33,1.33,0,0,1-.61,1.08,4.73,4.73,0,0,1-1.73.74A11.56,11.56,0,0,1,238.67,34.13ZM236,26.73H240a1.06,1.06,0,0,0,.58-.13.62.62,0,0,0,.2-.54,1.23,1.23,0,0,0-.28-.78,1.67,1.67,0,0,0-.73-.53,2.8,2.8,0,0,0-1.09-.19,3,3,0,0,0-1.35.3,2.38,2.38,0,0,0-.94.8A1.91,1.91,0,0,0,236,26.73Z"/><path class="cls-3" d="M248.27,33.91a2.41,2.41,0,0,1-1.31-.26,1.08,1.08,0,0,1-.47-.71,4.73,4.73,0,0,1-.09-.93V23.29a4.54,4.54,0,0,1,.08-.93,1.08,1.08,0,0,1,.49-.69,2.59,2.59,0,0,1,1.33-.26,2.5,2.5,0,0,1,1.26.24,1.06,1.06,0,0,1,.49.55,2.08,2.08,0,0,1,.1.54l-.3.15a2,2,0,0,1,.26-.36,3.2,3.2,0,0,1,.59-.55,3.4,3.4,0,0,1,.91-.49,3.62,3.62,0,0,1,1.24-.2,4.66,4.66,0,0,1,.61,0,3.14,3.14,0,0,1,.7.15,2.47,2.47,0,0,1,.66.3,1.66,1.66,0,0,1,.49.46,1.15,1.15,0,0,1,.18.68,3,3,0,0,1-.47,1.73,1.41,1.41,0,0,1-1.2.72,1.7,1.7,0,0,1-.6-.07,1,1,0,0,1-.29-.15,1.27,1.27,0,0,0-.26-.15,1.68,1.68,0,0,0-.55-.06,2.34,2.34,0,0,0-.71.1,2.06,2.06,0,0,0-.63.31,1.54,1.54,0,0,0-.45.53,1.49,1.49,0,0,0-.16.71v5.47a5.43,5.43,0,0,1-.08.92,1,1,0,0,1-.49.68A2.6,2.6,0,0,1,248.27,33.91Z"/><path class="cls-3" d="M258.26,21.62H261l3.45-.1a4.43,4.43,0,0,1,.9.09,1.13,1.13,0,0,1,.7.49,2.46,2.46,0,0,1,.27,1.32,2.35,2.35,0,0,1-.26,1.25,1.21,1.21,0,0,1-.69.52,3.89,3.89,0,0,1-.93.11l-3.27-.08-3,0a1.23,1.23,0,0,1-1-.46,2.52,2.52,0,0,1-.29-1.39,2.05,2.05,0,0,1,.36-1.33A1.23,1.23,0,0,1,258.26,21.62Zm5.64,12.3a7.87,7.87,0,0,1-2.2-.27,3.36,3.36,0,0,1-2.39-2.32,6.91,6.91,0,0,1-.28-2.11V19.09a4.22,4.22,0,0,1,.09-.92,1,1,0,0,1,.49-.66,3.32,3.32,0,0,1,2.6,0,1.16,1.16,0,0,1,.49.71,5.52,5.52,0,0,1,.08.92v9.92a3,3,0,0,0,.06.66.71.71,0,0,0,.19.39.69.69,0,0,0,.35.18,2.79,2.79,0,0,0,.55.05,4.07,4.07,0,0,1,1,.1,1.06,1.06,0,0,1,.66.45,2.13,2.13,0,0,1,.24,1.17,2.28,2.28,0,0,1-.28,1.3,1,1,0,0,1-.71.48A5.41,5.41,0,0,1,263.9,33.92Z"/><path class="cls-3" d="M270.26,19.63a2.47,2.47,0,0,1-1.35-.28,1.12,1.12,0,0,1-.49-.72,4.89,4.89,0,0,1-.09-1,4.82,4.82,0,0,1,.09-1,1.09,1.09,0,0,1,.5-.7,2.71,2.71,0,0,1,1.36-.26,2.37,2.37,0,0,1,1.33.28,1.09,1.09,0,0,1,.49.72,6,6,0,0,1,.08,1,4.7,4.7,0,0,1-.09.92,1,1,0,0,1-.48.71A2.53,2.53,0,0,1,270.26,19.63Zm0,14.3a2.47,2.47,0,0,1-1.33-.27,1,1,0,0,1-.47-.7,5.31,5.31,0,0,1-.08-.91V23.33a4.56,4.56,0,0,1,.09-.92,1.08,1.08,0,0,1,.49-.7,2.52,2.52,0,0,1,1.32-.26,2.24,2.24,0,0,1,1.29.28,1.1,1.1,0,0,1,.47.71,4.62,4.62,0,0,1,.09.94v8.7A5.4,5.4,0,0,1,272,33a1.06,1.06,0,0,1-.48.69A2.6,2.6,0,0,1,270.25,33.93Z"/><path class="cls-3" d="M281,34a6.59,6.59,0,0,1-2.23-.41,7.13,7.13,0,0,1-2.1-1.21,5.93,5.93,0,0,1-1.54-2,6.32,6.32,0,0,1-.57-2.75,5.86,5.86,0,0,1,2.1-4.69,6.78,6.78,0,0,1,2.09-1.22,6.57,6.57,0,0,1,2.21-.41,5.66,5.66,0,0,1,1.66.22,5.41,5.41,0,0,1,1.25.51,3.47,3.47,0,0,1,.74.53,7,7,0,0,1,.75.65,1,1,0,0,1,.3.85,1.59,1.59,0,0,1-.18.56,4.36,4.36,0,0,1-.37.59c-.52.69-1,1-1.5.94a2.27,2.27,0,0,1-.69-.25c-.21-.11-.41-.23-.6-.35a5.81,5.81,0,0,0-.61-.31,2,2,0,0,0-.75-.14,2.57,2.57,0,0,0-2.22,1.24,2.52,2.52,0,0,0-.33,1.31,2.56,2.56,0,0,0,.33,1.3,2.53,2.53,0,0,0,.9.91,2.39,2.39,0,0,0,1.27.34,2.37,2.37,0,0,0,.72-.1,2.17,2.17,0,0,0,.55-.23l.35-.22.58-.36a1,1,0,0,1,.55-.16,1.25,1.25,0,0,1,.73.26,4.38,4.38,0,0,1,.81.84,2,2,0,0,1,.49,1,1.24,1.24,0,0,1-.21.86,2.67,2.67,0,0,1-.85.76,4.05,4.05,0,0,1-.71.45,7.55,7.55,0,0,1-1.25.5A5.77,5.77,0,0,1,281,34Z"/><path class="cls-3" d="M298.12,33.92a2.33,2.33,0,0,1-1.37-.33.91.91,0,0,1-.43-.8l.25-.42A3,3,0,0,1,296,33a4.35,4.35,0,0,1-1.12.65,4.29,4.29,0,0,1-1.66.29,4.88,4.88,0,0,1-2.18-.51A5.75,5.75,0,0,1,289.2,32a7.45,7.45,0,0,1-1.28-2,6.15,6.15,0,0,1-.47-2.37,5.83,5.83,0,0,1,.48-2.34A6.69,6.69,0,0,1,291.05,22a5,5,0,0,1,2.18-.49,4.06,4.06,0,0,1,1.57.26,4.15,4.15,0,0,1,1.09.61,3.45,3.45,0,0,1,.66.68l-.22-.35a1,1,0,0,1,.44-.91,2.39,2.39,0,0,1,1.39-.32,2.31,2.31,0,0,1,1.28.28,1.11,1.11,0,0,1,.48.72,4.87,4.87,0,0,1,.08.95V32a4.63,4.63,0,0,1-.09.92,1.14,1.14,0,0,1-.47.72A2.52,2.52,0,0,1,298.12,33.92Zm-4.37-3.73a2.13,2.13,0,0,0,1.2-.34,2.63,2.63,0,0,0,.85-3.47,2.4,2.4,0,0,0-.87-.89,2.35,2.35,0,0,0-1.23-.32,2.47,2.47,0,0,0-1.26.33,2.61,2.61,0,0,0-.9.91,2.5,2.5,0,0,0-.34,1.3,2.31,2.31,0,0,0,.34,1.24,2.41,2.41,0,0,0,.92.9A2.49,2.49,0,0,0,293.75,30.19Z"/><path class="cls-3" d="M307.3,34a16.4,16.4,0,0,1-1.83-.1,3.9,3.9,0,0,1-1.35-.4,2.58,2.58,0,0,1-.9-.84,4,4,0,0,1-.52-1.38,9.39,9.39,0,0,1-.17-2.06V17.62a4.4,4.4,0,0,1,.1-.92,1.15,1.15,0,0,1,.49-.7,2.29,2.29,0,0,1,1.31-.28,2.24,2.24,0,0,1,1.29.28,1.18,1.18,0,0,1,.49.7,4.4,4.4,0,0,1,.1.92V29a4.08,4.08,0,0,0,0,.66.77.77,0,0,0,.15.41.51.51,0,0,0,.31.2,1.9,1.9,0,0,0,.52.05,2.7,2.7,0,0,1,.62.08.87.87,0,0,1,.53.45,2.56,2.56,0,0,1,.23,1.25,2.79,2.79,0,0,1-.23,1.3.86.86,0,0,1-.54.47A2.65,2.65,0,0,1,307.3,34Z"/><path class="cls-2" d="M120.38,33.84a2.4,2.4,0,0,1-1.32-.28,1.14,1.14,0,0,1-.48-.72,4.08,4.08,0,0,1-.1-.93V18.26a3.85,3.85,0,0,1,.1-.91,1.11,1.11,0,0,1,.5-.71,2.31,2.31,0,0,1,1.32-.28h5.18a6.69,6.69,0,0,1,2.12.38,6,6,0,0,1,2,1.15,5.61,5.61,0,0,1,1.45,1.93,6.2,6.2,0,0,1,.55,2.72,6.68,6.68,0,0,1-.31,2,5.73,5.73,0,0,1-.94,1.8,6,6,0,0,1-1.55,1.4,6.75,6.75,0,0,1-2.13.86H122.3v3.3a3.91,3.91,0,0,1-.1.91,1.15,1.15,0,0,1-.5.71A2.35,2.35,0,0,1,120.38,33.84Zm1.93-9h3.47a2,2,0,0,0,.7-.13,2.21,2.21,0,0,0,.69-.41,2.08,2.08,0,0,0,.51-.73,2.52,2.52,0,0,0,.2-1.07,2.46,2.46,0,0,0-.3-1.25,2.09,2.09,0,0,0-.82-.82,2.54,2.54,0,0,0-1.23-.29h-3.22Zm8.62,8.48a2,2,0,0,1-1.48.54,2.24,2.24,0,0,1-1.15-1l-4.39-6.3,4.27-.55,3.22,4.63a3.39,3.39,0,0,1,.54,1,1,1,0,0,1-.13.8A3.25,3.25,0,0,1,130.93,33.34Z"/><path class="cls-2" d="M140.28,34.07a7.3,7.3,0,0,1-3-.57A5.86,5.86,0,0,1,135.2,32a6.51,6.51,0,0,1-1.2-2.09,7.09,7.09,0,0,1-.4-2.3,6.42,6.42,0,0,1,.86-3.32A6,6,0,0,1,136.82,22a7.11,7.11,0,0,1,3.46-.83,6.27,6.27,0,0,1,2.52.46,5.18,5.18,0,0,1,1.74,1.2,5.34,5.34,0,0,1,1,1.59,4.54,4.54,0,0,1,.34,1.63,2.89,2.89,0,0,1-.67,2,2.25,2.25,0,0,1-1.69.67h-6a1.77,1.77,0,0,0,.47,1.07,2.69,2.69,0,0,0,1,.7,3.5,3.5,0,0,0,1.33.25,7.94,7.94,0,0,0,1-.06,4.3,4.3,0,0,0,.79-.17c.22-.08.42-.15.59-.23a4.27,4.27,0,0,1,.49-.18,1.81,1.81,0,0,1,.42-.1,1,1,0,0,1,.68.21A2,2,0,0,1,145,31a1.65,1.65,0,0,1,.24.53,2.07,2.07,0,0,1,.06.5,1.32,1.32,0,0,1-.61,1.08,4.73,4.73,0,0,1-1.73.74A11.47,11.47,0,0,1,140.28,34.07Zm-2.68-7.4h4a1,1,0,0,0,.58-.13.62.62,0,0,0,.2-.54,1.27,1.27,0,0,0-.27-.78,1.76,1.76,0,0,0-.74-.53,2.8,2.8,0,0,0-1.09-.19,3,3,0,0,0-1.35.3,2.38,2.38,0,0,0-.94.8A1.91,1.91,0,0,0,137.6,26.67Z"/><path class="cls-2" d="M154.18,34a6.42,6.42,0,0,1-2.24-.42,6.92,6.92,0,0,1-2.1-1.21,5.8,5.8,0,0,1-1.54-2,6.35,6.35,0,0,1-.57-2.75,6.09,6.09,0,0,1,.58-2.73,6,6,0,0,1,1.52-2,6.87,6.87,0,0,1,2.09-1.21,6.37,6.37,0,0,1,2.21-.41,6.15,6.15,0,0,1,1.67.21,5.6,5.6,0,0,1,1.25.51,3.74,3.74,0,0,1,.73.53,7.16,7.16,0,0,1,.75.65,1.05,1.05,0,0,1,.3.85,1.56,1.56,0,0,1-.17.56,4.48,4.48,0,0,1-.38.59c-.52.7-1,1-1.5.95a2.58,2.58,0,0,1-.69-.25l-.6-.35a5,5,0,0,0-.61-.32,2,2,0,0,0-.75-.13,2.56,2.56,0,0,0-1.3.33,2.61,2.61,0,0,0-.91.9,2.69,2.69,0,0,0,0,2.62,2.53,2.53,0,0,0,.9.91,2.42,2.42,0,0,0,1.26.34,2.66,2.66,0,0,0,.72-.1,2.59,2.59,0,0,0,.55-.24l.35-.21a5.41,5.41,0,0,1,.58-.36,1,1,0,0,1,.55-.17,1.25,1.25,0,0,1,.74.27,4.28,4.28,0,0,1,.81.83,2.07,2.07,0,0,1,.48,1,1.13,1.13,0,0,1-.21.86,2.56,2.56,0,0,1-.85.76,3.69,3.69,0,0,1-.71.45,6.49,6.49,0,0,1-1.25.5A5.69,5.69,0,0,1,154.18,34Z"/><path class="cls-2" d="M167.13,34.06a6.21,6.21,0,0,1-2.34-.46,7.11,7.11,0,0,1-2.11-1.31,6.41,6.41,0,0,1-1.52-2,6.41,6.41,0,0,1,0-5.15A6.63,6.63,0,0,1,162.53,23a6.75,6.75,0,0,1,2.06-1.41,6,6,0,0,1,2.49-.52,6.33,6.33,0,0,1,3.26.87,6.4,6.4,0,0,1,2.34,2.34,6.71,6.71,0,0,1,.31,6,6.5,6.5,0,0,1-1.5,2,6.57,6.57,0,0,1-2.08,1.29A6.35,6.35,0,0,1,167.13,34.06Zm0-3.77a2.81,2.81,0,0,0,1.22-.3,2.67,2.67,0,0,0,1-.9,2.53,2.53,0,0,0,.43-1.52,2.74,2.74,0,0,0-.35-1.4,2.41,2.41,0,0,0-1-.94,2.83,2.83,0,0,0-1.41-.34,2.6,2.6,0,0,0-1.34.35,2.65,2.65,0,0,0-.95,1,2.7,2.7,0,0,0-.37,1.39,2.61,2.61,0,0,0,.42,1.51,2.47,2.47,0,0,0,1,.9A3,3,0,0,0,167.08,30.29Z"/><path class="cls-2" d="M177.45,33.87a2.48,2.48,0,0,1-1.31-.26,1.11,1.11,0,0,1-.48-.72,4.63,4.63,0,0,1-.08-.92V23.24a4.42,4.42,0,0,1,.09-.92,1.08,1.08,0,0,1,.49-.69,2.54,2.54,0,0,1,1.32-.26,2.52,2.52,0,0,1,1.27.24,1,1,0,0,1,.48.55,1.73,1.73,0,0,1,.1.54l-.3.15a2.39,2.39,0,0,1,.26-.37,4.66,4.66,0,0,1,.59-.55,3.46,3.46,0,0,1,.92-.48,3.34,3.34,0,0,1,1.23-.2,4.45,4.45,0,0,1,.61,0,3,3,0,0,1,.7.15,2.4,2.4,0,0,1,.67.3,1.51,1.51,0,0,1,.48.46,1.14,1.14,0,0,1,.19.68,3.08,3.08,0,0,1-.47,1.73,1.4,1.4,0,0,1-1.21.71,2,2,0,0,1-.59-.06.87.87,0,0,1-.29-.15,1.1,1.1,0,0,0-.26-.15,1.72,1.72,0,0,0-.55-.06,2.46,2.46,0,0,0-.72.1,1.9,1.9,0,0,0-.62.31,1.6,1.6,0,0,0-.45.52,1.53,1.53,0,0,0-.17.72V32a4.46,4.46,0,0,1-.09.91,1,1,0,0,1-.48.69A2.6,2.6,0,0,1,177.45,33.87Z"/><path class="cls-2" d="M187.43,21.58h2.75l3.45-.1a4.29,4.29,0,0,1,.9.09,1.08,1.08,0,0,1,.7.49,2.31,2.31,0,0,1,.28,1.32,2.25,2.25,0,0,1-.27,1.25,1.1,1.1,0,0,1-.69.51,3.36,3.36,0,0,1-.92.12l-3.27-.08-3,0a1.26,1.26,0,0,1-1-.46,2.55,2.55,0,0,1-.29-1.39,2.15,2.15,0,0,1,.35-1.34A1.27,1.27,0,0,1,187.43,21.58Zm5.65,12.3a7.45,7.45,0,0,1-2.2-.28,3.32,3.32,0,0,1-2.39-2.31,6.94,6.94,0,0,1-.29-2.11V19.05a4.15,4.15,0,0,1,.09-.92,1,1,0,0,1,.48-.66,2.42,2.42,0,0,1,1.31-.27,2.35,2.35,0,0,1,1.29.28,1.1,1.1,0,0,1,.49.71,4.53,4.53,0,0,1,.09.91V29a3,3,0,0,0,.06.66.88.88,0,0,0,.19.39.83.83,0,0,0,.35.18,2.88,2.88,0,0,0,.55,0,4.13,4.13,0,0,1,1,.11,1,1,0,0,1,.66.45A2.13,2.13,0,0,1,195,32a2.39,2.39,0,0,1-.28,1.3,1,1,0,0,1-.71.48A5.41,5.41,0,0,1,193.08,33.88Z"/><path class="cls-2" d="M203.63,34.11a7.14,7.14,0,0,1-3-.58A5.72,5.72,0,0,1,198.55,32a6.51,6.51,0,0,1-1.2-2.09,7.09,7.09,0,0,1-.4-2.3,6.39,6.39,0,0,1,.86-3.32A6,6,0,0,1,200.17,22a7,7,0,0,1,3.46-.83,6.18,6.18,0,0,1,2.51.46,5.12,5.12,0,0,1,2.78,2.79,4.5,4.5,0,0,1,.33,1.62,2.82,2.82,0,0,1-.66,2.05,2.26,2.26,0,0,1-1.69.68h-6a1.78,1.78,0,0,0,.47,1.08,2.81,2.81,0,0,0,1,.7,3.5,3.5,0,0,0,1.33.25,7.94,7.94,0,0,0,1-.06,4.49,4.49,0,0,0,.79-.17l.59-.23.49-.19a2.53,2.53,0,0,1,.42-.1,1,1,0,0,1,.68.22,2,2,0,0,1,.57.71,1.71,1.71,0,0,1,.24.52,2.2,2.2,0,0,1,.06.5A1.34,1.34,0,0,1,208,33.1a4.73,4.73,0,0,1-1.73.74A11.53,11.53,0,0,1,203.63,34.11ZM201,26.71h4a1,1,0,0,0,.58-.13.65.65,0,0,0,.2-.54,1.21,1.21,0,0,0-.28-.78,1.77,1.77,0,0,0-.73-.54,3.27,3.27,0,0,0-2.44.12,2.44,2.44,0,0,0-.94.79A2,2,0,0,0,201,26.71Z"/><path class="cls-2" d="M223.87,34a2.21,2.21,0,0,1-1-.23,1.47,1.47,0,0,1-.67-.7l-4.49-9a2,2,0,0,1-.26-1.48,2,2,0,0,1,1.14-1.06,2.41,2.41,0,0,1,1.51-.32c.37.1.71.49,1,1.19l2.8,6.5,2.8-6.42c.3-.72.64-1.13,1-1.25a2.21,2.21,0,0,1,1.57.33c.68.31,1.06.68,1.13,1.11a2.31,2.31,0,0,1-.31,1.46l-4.48,8.92a1.48,1.48,0,0,1-.65.7A2.28,2.28,0,0,1,223.87,34Z"/><path class="cls-2" d="M238.67,34.13a7.28,7.28,0,0,1-3-.57A5.86,5.86,0,0,1,233.6,32,6.51,6.51,0,0,1,232.4,30a6.83,6.83,0,0,1-.4-2.3,6.51,6.51,0,0,1,.85-3.32A6.14,6.14,0,0,1,235.22,22a7.11,7.11,0,0,1,3.46-.83,6.18,6.18,0,0,1,2.51.46,5.23,5.23,0,0,1,1.75,1.2,5.1,5.1,0,0,1,1,1.59,4.51,4.51,0,0,1,.33,1.63,2.84,2.84,0,0,1-.66,2.05,2.27,2.27,0,0,1-1.69.67H236a1.82,1.82,0,0,0,.46,1.07,2.73,2.73,0,0,0,1,.7,3.5,3.5,0,0,0,1.33.25,8.05,8.05,0,0,0,1-.06,4.49,4.49,0,0,0,.79-.17l.59-.23.49-.19a2.53,2.53,0,0,1,.42-.1,1.06,1.06,0,0,1,.68.22,2.11,2.11,0,0,1,.57.71,1.65,1.65,0,0,1,.24.53,2.07,2.07,0,0,1,.06.5,1.33,1.33,0,0,1-.61,1.08,4.73,4.73,0,0,1-1.73.74A11.56,11.56,0,0,1,238.67,34.13ZM236,26.73H240a1.06,1.06,0,0,0,.58-.13.62.62,0,0,0,.2-.54,1.23,1.23,0,0,0-.28-.78,1.67,1.67,0,0,0-.73-.53,2.8,2.8,0,0,0-1.09-.19,3,3,0,0,0-1.35.3,2.38,2.38,0,0,0-.94.8A1.91,1.91,0,0,0,236,26.73Z"/><path class="cls-2" d="M248.27,33.91a2.41,2.41,0,0,1-1.31-.26,1.08,1.08,0,0,1-.47-.71,4.73,4.73,0,0,1-.09-.93V23.29a4.54,4.54,0,0,1,.08-.93,1.08,1.08,0,0,1,.49-.69,2.59,2.59,0,0,1,1.33-.26,2.5,2.5,0,0,1,1.26.24,1.06,1.06,0,0,1,.49.55,2.08,2.08,0,0,1,.1.54l-.3.15a2,2,0,0,1,.26-.36,3.2,3.2,0,0,1,.59-.55,3.4,3.4,0,0,1,.91-.49,3.62,3.62,0,0,1,1.24-.2,4.66,4.66,0,0,1,.61,0,3.14,3.14,0,0,1,.7.15,2.47,2.47,0,0,1,.66.3,1.66,1.66,0,0,1,.49.46,1.15,1.15,0,0,1,.18.68,3,3,0,0,1-.47,1.73,1.41,1.41,0,0,1-1.2.72,1.7,1.7,0,0,1-.6-.07,1,1,0,0,1-.29-.15,1.27,1.27,0,0,0-.26-.15,1.68,1.68,0,0,0-.55-.06,2.34,2.34,0,0,0-.71.1,2.06,2.06,0,0,0-.63.31,1.54,1.54,0,0,0-.45.53,1.49,1.49,0,0,0-.16.71v5.47a5.43,5.43,0,0,1-.08.92,1,1,0,0,1-.49.68A2.6,2.6,0,0,1,248.27,33.91Z"/><path class="cls-2" d="M258.26,21.62H261l3.45-.1a4.43,4.43,0,0,1,.9.09,1.13,1.13,0,0,1,.7.49,2.46,2.46,0,0,1,.27,1.32,2.35,2.35,0,0,1-.26,1.25,1.21,1.21,0,0,1-.69.52,3.89,3.89,0,0,1-.93.11l-3.27-.08-3,0a1.23,1.23,0,0,1-1-.46,2.52,2.52,0,0,1-.29-1.39,2.05,2.05,0,0,1,.36-1.33A1.23,1.23,0,0,1,258.26,21.62Zm5.64,12.3a7.87,7.87,0,0,1-2.2-.27,3.36,3.36,0,0,1-2.39-2.32,6.91,6.91,0,0,1-.28-2.11V19.09a4.22,4.22,0,0,1,.09-.92,1,1,0,0,1,.49-.66,3.32,3.32,0,0,1,2.6,0,1.16,1.16,0,0,1,.49.71,5.52,5.52,0,0,1,.08.92v9.92a3,3,0,0,0,.06.66.71.71,0,0,0,.19.39.69.69,0,0,0,.35.18,2.79,2.79,0,0,0,.55.05,4.07,4.07,0,0,1,1,.1,1.06,1.06,0,0,1,.66.45,2.13,2.13,0,0,1,.24,1.17,2.28,2.28,0,0,1-.28,1.3,1,1,0,0,1-.71.48A5.41,5.41,0,0,1,263.9,33.92Z"/><path class="cls-2" d="M270.26,19.63a2.47,2.47,0,0,1-1.35-.28,1.12,1.12,0,0,1-.49-.72,4.89,4.89,0,0,1-.09-1,4.82,4.82,0,0,1,.09-1,1.09,1.09,0,0,1,.5-.7,2.71,2.71,0,0,1,1.36-.26,2.37,2.37,0,0,1,1.33.28,1.09,1.09,0,0,1,.49.72,6,6,0,0,1,.08,1,4.7,4.7,0,0,1-.09.92,1,1,0,0,1-.48.71A2.53,2.53,0,0,1,270.26,19.63Zm0,14.3a2.47,2.47,0,0,1-1.33-.27,1,1,0,0,1-.47-.7,5.31,5.31,0,0,1-.08-.91V23.33a4.56,4.56,0,0,1,.09-.92,1.08,1.08,0,0,1,.49-.7,2.52,2.52,0,0,1,1.32-.26,2.24,2.24,0,0,1,1.29.28,1.1,1.1,0,0,1,.47.71,4.62,4.62,0,0,1,.09.94v8.7A5.4,5.4,0,0,1,272,33a1.06,1.06,0,0,1-.48.69A2.6,2.6,0,0,1,270.25,33.93Z"/><path class="cls-2" d="M281,34a6.59,6.59,0,0,1-2.23-.41,7.13,7.13,0,0,1-2.1-1.21,5.93,5.93,0,0,1-1.54-2,6.32,6.32,0,0,1-.57-2.75,5.86,5.86,0,0,1,2.1-4.69,6.78,6.78,0,0,1,2.09-1.22,6.57,6.57,0,0,1,2.21-.41,5.66,5.66,0,0,1,1.66.22,5.41,5.41,0,0,1,1.25.51,3.47,3.47,0,0,1,.74.53,7,7,0,0,1,.75.65,1,1,0,0,1,.3.85,1.59,1.59,0,0,1-.18.56,4.36,4.36,0,0,1-.37.59c-.52.69-1,1-1.5.94a2.27,2.27,0,0,1-.69-.25c-.21-.11-.41-.23-.6-.35a5.81,5.81,0,0,0-.61-.31,2,2,0,0,0-.75-.14,2.57,2.57,0,0,0-2.22,1.24,2.52,2.52,0,0,0-.33,1.31,2.56,2.56,0,0,0,.33,1.3,2.53,2.53,0,0,0,.9.91,2.39,2.39,0,0,0,1.27.34,2.37,2.37,0,0,0,.72-.1,2.17,2.17,0,0,0,.55-.23l.35-.22.58-.36a1,1,0,0,1,.55-.16,1.25,1.25,0,0,1,.73.26,4.38,4.38,0,0,1,.81.84,2,2,0,0,1,.49,1,1.24,1.24,0,0,1-.21.86,2.67,2.67,0,0,1-.85.76,4.05,4.05,0,0,1-.71.45,7.55,7.55,0,0,1-1.25.5A5.77,5.77,0,0,1,281,34Z"/><path class="cls-2" d="M298.12,33.92a2.33,2.33,0,0,1-1.37-.33.91.91,0,0,1-.43-.8l.25-.42A3,3,0,0,1,296,33a4.35,4.35,0,0,1-1.12.65,4.29,4.29,0,0,1-1.66.29,4.88,4.88,0,0,1-2.18-.51A5.75,5.75,0,0,1,289.2,32a7.45,7.45,0,0,1-1.28-2,6.15,6.15,0,0,1-.47-2.37,5.83,5.83,0,0,1,.48-2.34A6.69,6.69,0,0,1,291.05,22a5,5,0,0,1,2.18-.49,4.06,4.06,0,0,1,1.57.26,4.15,4.15,0,0,1,1.09.61,3.45,3.45,0,0,1,.66.68l-.22-.35a1,1,0,0,1,.44-.91,2.39,2.39,0,0,1,1.39-.32,2.31,2.31,0,0,1,1.28.28,1.11,1.11,0,0,1,.48.72,4.87,4.87,0,0,1,.08.95V32a4.63,4.63,0,0,1-.09.92,1.14,1.14,0,0,1-.47.72A2.52,2.52,0,0,1,298.12,33.92Zm-4.37-3.73a2.13,2.13,0,0,0,1.2-.34,2.63,2.63,0,0,0,.85-3.47,2.4,2.4,0,0,0-.87-.89,2.35,2.35,0,0,0-1.23-.32,2.47,2.47,0,0,0-1.26.33,2.61,2.61,0,0,0-.9.91,2.5,2.5,0,0,0-.34,1.3,2.31,2.31,0,0,0,.34,1.24,2.41,2.41,0,0,0,.92.9A2.49,2.49,0,0,0,293.75,30.19Z"/><path class="cls-2" d="M307.3,34a16.4,16.4,0,0,1-1.83-.1,3.9,3.9,0,0,1-1.35-.4,2.58,2.58,0,0,1-.9-.84,4,4,0,0,1-.52-1.38,9.39,9.39,0,0,1-.17-2.06V17.62a4.4,4.4,0,0,1,.1-.92,1.15,1.15,0,0,1,.49-.7,2.29,2.29,0,0,1,1.31-.28,2.24,2.24,0,0,1,1.29.28,1.18,1.18,0,0,1,.49.7,4.4,4.4,0,0,1,.1.92V29a4.08,4.08,0,0,0,0,.66.77.77,0,0,0,.15.41.51.51,0,0,0,.31.2,1.9,1.9,0,0,0,.52.05,2.7,2.7,0,0,1,.62.08.87.87,0,0,1,.53.45,2.56,2.56,0,0,1,.23,1.25,2.79,2.79,0,0,1-.23,1.3.86.86,0,0,1-.54.47A2.65,2.65,0,0,1,307.3,34Z"/><path class="cls-4" d="M65.79,31.08h4.52q3.42,0,3.42,4a4,4,0,0,1-1.08,3.17c-.72.63-2,.94-3.85.94h-11c-1.91,0-3.2-.25-3.89-.77s-1-1.63-1-3.34A5.64,5.64,0,0,1,53,33.58a3.36,3.36,0,0,1,.62-1.2,5.18,5.18,0,0,1,1.22-1.13c1.47-1,2.62-1.82,3.46-2.44s1.67-1.26,2.47-1.95a13.25,13.25,0,0,0,1.77-1.76,10.41,10.41,0,0,0,1-1.66,6.12,6.12,0,0,0,.62-1.85,15.39,15.39,0,0,0,.14-2.19c0-1.56-.47-2.35-1.42-2.35s-1.55.93-1.55,2.77a2,2,0,0,1-1,2,7.06,7.06,0,0,1-2.9.46c-1.73,0-2.91-.39-3.52-1.17a6.48,6.48,0,0,1-.91-3.91,5.48,5.48,0,0,1,2.51-4.56,11.74,11.74,0,0,1,7-1.82q11.07,0,11.07,8.69a14.05,14.05,0,0,1-.45,3.68A11.66,11.66,0,0,1,72.07,26a9.08,9.08,0,0,1-1.78,2.12,16.67,16.67,0,0,1-2.1,1.64A26.68,26.68,0,0,1,65.79,31.08Z"/><path class="cls-4" d="M76.42,36a2.75,2.75,0,0,1,1.16-2.31,5.38,5.38,0,0,1,3.28-.88c3,0,4.44,1.07,4.44,3.19a3.11,3.11,0,0,1-.57,2,2.73,2.73,0,0,1-1.51,1,9.22,9.22,0,0,1-2.36.26,6.13,6.13,0,0,1-3.18-.76A2.62,2.62,0,0,1,76.42,36Z"/><path class="cls-4" d="M97.53,32.55c0,2.27-.4,3.89-1.19,4.85a4.36,4.36,0,0,1-3.59,1.45,5.66,5.66,0,0,1-2.56-.5A3.3,3.3,0,0,1,88.7,36.5a11.09,11.09,0,0,1-.55-3.61l-.06-15.67a6.32,6.32,0,0,1-3.22-.73A2.62,2.62,0,0,1,83.61,14a2.76,2.76,0,0,1,1.16-2.29,5.18,5.18,0,0,1,3.24-.9c.54,0,1.31,0,2.3,0l2.1,0c2,0,3.36.34,4,1a5,5,0,0,1,1,3.59Z"/><path class="cls-5" d="M65.79,31.08h4.52q3.42,0,3.42,4a4,4,0,0,1-1.08,3.17c-.72.63-2,.94-3.85.94h-11c-1.91,0-3.2-.25-3.89-.77s-1-1.63-1-3.34A5.64,5.64,0,0,1,53,33.58a3.36,3.36,0,0,1,.62-1.2,5.18,5.18,0,0,1,1.22-1.13c1.47-1,2.62-1.82,3.46-2.44s1.67-1.26,2.47-1.95a13.25,13.25,0,0,0,1.77-1.76,10.41,10.41,0,0,0,1-1.66,6.12,6.12,0,0,0,.62-1.85,15.39,15.39,0,0,0,.14-2.19c0-1.56-.47-2.35-1.42-2.35s-1.55.93-1.55,2.77a2,2,0,0,1-1,2,7.06,7.06,0,0,1-2.9.46c-1.73,0-2.91-.39-3.52-1.17a6.48,6.48,0,0,1-.91-3.91,5.48,5.48,0,0,1,2.51-4.56,11.74,11.74,0,0,1,7-1.82q11.07,0,11.07,8.69a14.05,14.05,0,0,1-.45,3.68A11.66,11.66,0,0,1,72.07,26a9.08,9.08,0,0,1-1.78,2.12,16.67,16.67,0,0,1-2.1,1.64A26.68,26.68,0,0,1,65.79,31.08Z"/><path class="cls-5" d="M76.42,36a2.75,2.75,0,0,1,1.16-2.31,5.38,5.38,0,0,1,3.28-.88c3,0,4.44,1.07,4.44,3.19a3.11,3.11,0,0,1-.57,2,2.73,2.73,0,0,1-1.51,1,9.22,9.22,0,0,1-2.36.26,6.13,6.13,0,0,1-3.18-.76A2.62,2.62,0,0,1,76.42,36Z"/><path class="cls-5" d="M97.53,32.55c0,2.27-.4,3.89-1.19,4.85a4.36,4.36,0,0,1-3.59,1.45,5.66,5.66,0,0,1-2.56-.5A3.3,3.3,0,0,1,88.7,36.5a11.09,11.09,0,0,1-.55-3.61l-.06-15.67a6.32,6.32,0,0,1-3.22-.73A2.62,2.62,0,0,1,83.61,14a2.76,2.76,0,0,1,1.16-2.29,5.18,5.18,0,0,1,3.24-.9c.54,0,1.31,0,2.3,0l2.1,0c2,0,3.36.34,4,1a5,5,0,0,1,1,3.59Z"/></g></g></svg>