<svg xmlns="http://www.w3.org/2000/svg" viewBox="0 0 399.98 91.27"><defs><style>.cls-1{fill:#512573;}.cls-2{fill:#fff;}.cls-3,.cls-4{fill:none;stroke-width:5px;}.cls-3{stroke:#ff7300;stroke-linejoin:round;}.cls-4,.cls-5{font-size:42px;font-family:Coiny-Regular, Coiny;}.cls-4{stroke:#fff;}.cls-5{fill:#ff7300;}</style></defs><title>21tv</title><g id="Layer_2" data-name="Layer 2"><g id="pestaña_identificativa" data-name="pestaña identificativa"><rect class="cls-1" width="399.98" height="91.27" rx="32.4"/><path class="cls-2" d="M114.17,15.72a3.84,3.84,0,0,1,.78.07.9.9,0,0,1,.59.43,2.19,2.19,0,0,1,.22,1.15,2.14,2.14,0,0,1-.22,1.12.89.89,0,0,1-.6.43,4.11,4.11,0,0,1-.8.07h-4V31.36a4.29,4.29,0,0,1-.09.9,1.06,1.06,0,0,1-.48.69,2.44,2.44,0,0,1-1.33.26,2.36,2.36,0,0,1-1.28-.26,1.08,1.08,0,0,1-.49-.7,4.53,4.53,0,0,1-.08-.91V19h-4a3.3,3.3,0,0,1-.77-.08,1,1,0,0,1-.61-.43,2,2,0,0,1-.24-1.14,2,2,0,0,1,.24-1.12,1,1,0,0,1,.61-.43,3.94,3.94,0,0,1,.77-.07Z"/><path class="cls-2" d="M119.73,33.22a2.48,2.48,0,0,1-1.31-.26,1.11,1.11,0,0,1-.48-.72,4.63,4.63,0,0,1-.08-.92V22.59a4.42,4.42,0,0,1,.09-.92,1.08,1.08,0,0,1,.49-.69,2.52,2.52,0,0,1,1.32-.26A2.47,2.47,0,0,1,121,21a1.06,1.06,0,0,1,.49.55,1.73,1.73,0,0,1,.1.54l-.3.15a2.39,2.39,0,0,1,.26-.37,4.66,4.66,0,0,1,.59-.55,3.55,3.55,0,0,1,.91-.48,3.4,3.4,0,0,1,1.24-.2,4.45,4.45,0,0,1,.61,0,3,3,0,0,1,.7.15,2.4,2.4,0,0,1,.67.3,1.51,1.51,0,0,1,.48.46,1.13,1.13,0,0,1,.19.67,3,3,0,0,1-.48,1.74,1.38,1.38,0,0,1-1.2.71,2.11,2.11,0,0,1-.6-.06.92.92,0,0,1-.28-.15,1.17,1.17,0,0,0-.27-.15,1.61,1.61,0,0,0-.54-.06,2.46,2.46,0,0,0-.72.1,1.9,1.9,0,0,0-.62.31,1.49,1.49,0,0,0-.45.52,1.53,1.53,0,0,0-.17.72v5.47a4.46,4.46,0,0,1-.09.91,1,1,0,0,1-.49.69A2.53,2.53,0,0,1,119.73,33.22Z"/><path class="cls-2" d="M139.13,33.21a2.34,2.34,0,0,1-1.38-.33.89.89,0,0,1-.42-.8l.25-.42a3,3,0,0,1-.57.61,4.17,4.17,0,0,1-2.78.93,4.88,4.88,0,0,1-2.19-.5,5.7,5.7,0,0,1-1.83-1.39,7,7,0,0,1-1.28-2,6.16,6.16,0,0,1-.47-2.38,6,6,0,0,1,.47-2.33,6.9,6.9,0,0,1,1.29-2,6.56,6.56,0,0,1,1.84-1.36,4.94,4.94,0,0,1,2.18-.5,4.09,4.09,0,0,1,1.57.27,4.32,4.32,0,0,1,1.09.61,3.2,3.2,0,0,1,.66.68l-.22-.35a1.06,1.06,0,0,1,.43-.92,2.44,2.44,0,0,1,1.39-.31,2.24,2.24,0,0,1,1.29.28,1.07,1.07,0,0,1,.47.72,4.86,4.86,0,0,1,.09.95v8.63a4.7,4.7,0,0,1-.09.92,1.07,1.07,0,0,1-.48.71A2.37,2.37,0,0,1,139.13,33.21Zm-4.37-3.73a2.13,2.13,0,0,0,1.2-.34,2.57,2.57,0,0,0,.85-.91,2.6,2.6,0,0,0,.32-1.27,2.57,2.57,0,0,0-.32-1.29,2.42,2.42,0,0,0-.88-.89,2.3,2.3,0,0,0-1.22-.33,2.42,2.42,0,0,0-1.26.34,2.53,2.53,0,0,0-.9.91,2.5,2.5,0,0,0-.34,1.3,2.34,2.34,0,0,0,.34,1.24,2.41,2.41,0,0,0,.92.9A2.49,2.49,0,0,0,134.76,29.48Z"/><path class="cls-2" d="M144.88,33.23a1.76,1.76,0,0,1-1.31-.53,1.82,1.82,0,0,1-.54-1.34,2.06,2.06,0,0,1,.14-.73,1.81,1.81,0,0,1,.41-.62l5.68-5.5h-3.8a3.85,3.85,0,0,1-.91-.1,1.25,1.25,0,0,1-.73-.49,2.2,2.2,0,0,1-.28-1.31,2.27,2.27,0,0,1,.28-1.31,1.19,1.19,0,0,1,.73-.48,4.47,4.47,0,0,1,.91-.08h7.83a1.79,1.79,0,0,1,1.32.53,1.75,1.75,0,0,1,.52,1.32,2.13,2.13,0,0,1-.13.76,1.39,1.39,0,0,1-.39.59l-5.55,5.52h4.52a4,4,0,0,1,.93.1,1.06,1.06,0,0,1,.68.5,2.41,2.41,0,0,1,.27,1.32,2.48,2.48,0,0,1-.28,1.3,1.05,1.05,0,0,1-.7.48,5.33,5.33,0,0,1-.93.07Z"/><path class="cls-2" d="M167.7,33.22a2.41,2.41,0,0,1-1.37-.32.93.93,0,0,1-.43-.8l.25-.43a3,3,0,0,1-.57.62,4.11,4.11,0,0,1-1.11.64,4.2,4.2,0,0,1-1.67.29,5,5,0,0,1-2.18-.5,5.89,5.89,0,0,1-1.84-1.39,7,7,0,0,1-1.27-2,6,6,0,0,1-.48-2.38,5.82,5.82,0,0,1,.48-2.33,6.77,6.77,0,0,1,1.29-2,6.24,6.24,0,0,1,1.84-1.36,4.9,4.9,0,0,1,2.17-.5,4.35,4.35,0,0,1,1.58.26,4.26,4.26,0,0,1,1.08.62,3.17,3.17,0,0,1,.66.67l-.22-.35a1.05,1.05,0,0,1,.44-.91,2.4,2.4,0,0,1,1.39-.31A2.3,2.3,0,0,1,169,21a1.16,1.16,0,0,1,.48.73,4.86,4.86,0,0,1,.09.95v8.62a4.73,4.73,0,0,1-.09.93A1.09,1.09,0,0,1,169,33,2.42,2.42,0,0,1,167.7,33.22Zm-4.37-3.72a2.21,2.21,0,0,0,1.2-.34,2.66,2.66,0,0,0,.85-.91,2.54,2.54,0,0,0,.33-1.28,2.46,2.46,0,0,0-.33-1.28,2.26,2.26,0,0,0-.87-.89,2.48,2.48,0,0,0-2.49,0,2.61,2.61,0,0,0-.9.91,2.57,2.57,0,0,0-.34,1.3,2.34,2.34,0,0,0,.34,1.24,2.56,2.56,0,0,0,.92.9A2.62,2.62,0,0,0,163.33,29.5Z"/><path class="cls-2" d="M184.8,33.48a7.28,7.28,0,0,1-3-.57,5.86,5.86,0,0,1-2.06-1.52,6.57,6.57,0,0,1-1.2-2.08,6.93,6.93,0,0,1-.4-2.31,6.51,6.51,0,0,1,.85-3.32,6.14,6.14,0,0,1,2.37-2.29,7.11,7.11,0,0,1,3.46-.83,6.22,6.22,0,0,1,2.51.46,5.23,5.23,0,0,1,1.75,1.2,5.34,5.34,0,0,1,1,1.59,4.51,4.51,0,0,1,.33,1.63,2.84,2.84,0,0,1-.66,2,2.27,2.27,0,0,1-1.69.67h-6a1.76,1.76,0,0,0,.46,1.07,2.73,2.73,0,0,0,1,.7,3.5,3.5,0,0,0,1.33.25,8.05,8.05,0,0,0,1-.06,4.49,4.49,0,0,0,.79-.17l.59-.23.49-.18a1.81,1.81,0,0,1,.42-.1,1,1,0,0,1,.68.21,2.22,2.22,0,0,1,.57.71,1.75,1.75,0,0,1,.24.53,2.07,2.07,0,0,1,.06.5,1.32,1.32,0,0,1-.61,1.08,4.73,4.73,0,0,1-1.73.74A11.56,11.56,0,0,1,184.8,33.48Zm-2.67-7.4h4a1.06,1.06,0,0,0,.58-.13.62.62,0,0,0,.2-.54,1.18,1.18,0,0,0-.28-.77,1.67,1.67,0,0,0-.73-.54,2.8,2.8,0,0,0-1.09-.19,3,3,0,0,0-1.35.3,2.38,2.38,0,0,0-.94.8A1.91,1.91,0,0,0,182.13,26.08Z"/><path class="cls-2" d="M197.33,33.27a16.4,16.4,0,0,1-1.83-.1,3.9,3.9,0,0,1-1.35-.41,2.55,2.55,0,0,1-.9-.83,4.19,4.19,0,0,1-.52-1.38,10,10,0,0,1-.17-2.06V16.94a4.57,4.57,0,0,1,.1-.93,1.21,1.21,0,0,1,.49-.7,2.39,2.39,0,0,1,1.31-.27,2.24,2.24,0,0,1,1.29.28,1.15,1.15,0,0,1,.49.7,4.4,4.4,0,0,1,.1.92V28.32a4.16,4.16,0,0,0,0,.66.8.8,0,0,0,.15.41.51.51,0,0,0,.31.2,2.44,2.44,0,0,0,.53.05,2.69,2.69,0,0,1,.61.08.89.89,0,0,1,.54.45,2.68,2.68,0,0,1,.22,1.25,2.79,2.79,0,0,1-.23,1.3.91.91,0,0,1-.53.47A2.74,2.74,0,0,1,197.33,33.27Z"/><path class="cls-2" d="M209,33.25a2.5,2.5,0,0,1-1.31-.26,1,1,0,0,1-.47-.71,4.46,4.46,0,0,1-.09-.91v-8.8a4.1,4.1,0,0,1,.09-.88,1,1,0,0,1,.49-.67,2.71,2.71,0,0,1,1.33-.25,2.35,2.35,0,0,1,1.17.22,1,1,0,0,1,.49.51,1.73,1.73,0,0,1,.11.56.91.91,0,0,0,.05.36l-.15.48a1.43,1.43,0,0,1,.39-.76,3.53,3.53,0,0,1,.85-.7A4.73,4.73,0,0,1,213,21a3.93,3.93,0,0,1,1.16-.17,4.9,4.9,0,0,1,2.14.44,4.29,4.29,0,0,1,1.58,1.26,5.65,5.65,0,0,1,1,1.94,8.16,8.16,0,0,1,.34,2.43V31.4a5.43,5.43,0,0,1-.08.92,1,1,0,0,1-.48.68,2.57,2.57,0,0,1-1.34.25A2.45,2.45,0,0,1,216,33a1.06,1.06,0,0,1-.49-.7,4.53,4.53,0,0,1-.09-.91V26.85a2.74,2.74,0,0,0-.27-1.27,1.8,1.8,0,0,0-.74-.8,2.39,2.39,0,0,0-1.22-.28,2.59,2.59,0,0,0-1.25.29,2,2,0,0,0-.81.81,2.59,2.59,0,0,0-.29,1.25V31.4a4.46,4.46,0,0,1-.09.91,1.08,1.08,0,0,1-.47.69A2.53,2.53,0,0,1,209,33.25Z"/><path class="cls-2" d="M227,33.26a5.25,5.25,0,0,1-2.18-.45,5.31,5.31,0,0,1-1.75-1.27,5.8,5.8,0,0,1-1.16-1.92,7.1,7.1,0,0,1-.41-2.44V22.66a4.45,4.45,0,0,1,.09-.93,1.1,1.1,0,0,1,.49-.7,2.46,2.46,0,0,1,1.32-.27,2.41,2.41,0,0,1,1.32.27,1.13,1.13,0,0,1,.47.72,4.59,4.59,0,0,1,.09.93v4.5a2.8,2.8,0,0,0,.26,1.27,1.78,1.78,0,0,0,.77.81,2.57,2.57,0,0,0,1.21.27,2.4,2.4,0,0,0,1.24-.28,2,2,0,0,0,.8-.81,2.59,2.59,0,0,0,.29-1.25V22.64a4.45,4.45,0,0,1,.09-.93,1.08,1.08,0,0,1,.49-.69,2.59,2.59,0,0,1,1.33-.26,2.38,2.38,0,0,1,1.31.28,1.1,1.1,0,0,1,.47.71,4.53,4.53,0,0,1,.09.91v8.8a4.91,4.91,0,0,1-.08.89,1,1,0,0,1-.49.66,2.52,2.52,0,0,1-1.3.25,2.92,2.92,0,0,1-1.05-.15,1.23,1.23,0,0,1-.55-.37.94.94,0,0,1-.21-.48,2.57,2.57,0,0,1,0-.45l.32-.27a3,3,0,0,1-.32.38,5.89,5.89,0,0,1-.66.58,4.28,4.28,0,0,1-1,.54A3.31,3.31,0,0,1,227,33.26Zm-.39-13.38a.82.82,0,0,1-.74-.25,2.63,2.63,0,0,1-.51-1,2,2,0,0,1-.1-1.3,1.38,1.38,0,0,1,.92-.67l4.4-1.35a.88.88,0,0,1,.73.29,2.53,2.53,0,0,1,.5,1,1.93,1.93,0,0,1,.09,1.27,1.35,1.35,0,0,1-.92.68Z"/><path class="cls-2" d="M238,33.29a2.38,2.38,0,0,1-1.3-.27,1.07,1.07,0,0,1-.48-.71,5.29,5.29,0,0,1-.07-.92V22.64a4.29,4.29,0,0,1,.09-.9,1.08,1.08,0,0,1,.49-.69,2.59,2.59,0,0,1,1.33-.26,2,2,0,0,1,1.34.36,1.48,1.48,0,0,1,.43,1.19l-.33.28a2.46,2.46,0,0,1,.3-.43,4.89,4.89,0,0,1,.65-.62,3.77,3.77,0,0,1,.94-.56,2.85,2.85,0,0,1,1.17-.24A4.29,4.29,0,0,1,244,21a3.82,3.82,0,0,1,1.2.7,4.38,4.38,0,0,1,.94,1.16,6.28,6.28,0,0,1,.85-1,4.41,4.41,0,0,1,1.17-.8,3.44,3.44,0,0,1,1.53-.33,4.15,4.15,0,0,1,2.49.74,4.54,4.54,0,0,1,1.53,2.12,9.28,9.28,0,0,1,.53,3.32v4.48a3.91,3.91,0,0,1-.1.91,1.14,1.14,0,0,1-.48.7,2.52,2.52,0,0,1-1.32.26A2.33,2.33,0,0,1,251,33a1,1,0,0,1-.48-.71,5.41,5.41,0,0,1-.07-.91V26.92a4,4,0,0,0-.18-1.28,1.88,1.88,0,0,0-.54-.83,1.41,1.41,0,0,0-.9-.29,1.64,1.64,0,0,0-1,.28,1.72,1.72,0,0,0-.6.8,3.92,3.92,0,0,0-.2,1.35v4.47a3.19,3.19,0,0,1-.13.94,1.22,1.22,0,0,1-.53.7,2.6,2.6,0,0,1-1.34.24,2.16,2.16,0,0,1-1.25-.29,1.14,1.14,0,0,1-.45-.73,5.26,5.26,0,0,1-.08-.89V26.92a4.21,4.21,0,0,0-.18-1.3,1.65,1.65,0,0,0-.52-.83,1.49,1.49,0,0,0-.93-.27,1.59,1.59,0,0,0-1,.32,2,2,0,0,0-.59.86,3.59,3.59,0,0,0-.19,1.22v4.5a4.42,4.42,0,0,1-.09.92,1.06,1.06,0,0,1-.49.69A2.54,2.54,0,0,1,238,33.29Z"/><path class="cls-2" d="M262.9,33.53a7.12,7.12,0,0,1-3-.58,5.72,5.72,0,0,1-2.06-1.51,6.61,6.61,0,0,1-1.2-2.09,6.83,6.83,0,0,1-.4-2.3,6.38,6.38,0,0,1,.85-3.32,6.14,6.14,0,0,1,2.37-2.29,7,7,0,0,1,3.46-.83,6.22,6.22,0,0,1,2.51.46,5.23,5.23,0,0,1,1.75,1.2,5.1,5.1,0,0,1,1,1.59,4.5,4.5,0,0,1,.33,1.62,2.82,2.82,0,0,1-.66,2.05,2.28,2.28,0,0,1-1.69.68h-5.95a1.77,1.77,0,0,0,.46,1.08,2.85,2.85,0,0,0,1,.7,3.48,3.48,0,0,0,1.32.25,8.1,8.1,0,0,0,1-.06,3.7,3.7,0,0,0,.79-.18c.22-.07.41-.15.59-.22a4.32,4.32,0,0,1,.48-.19,2.63,2.63,0,0,1,.43-.1,1,1,0,0,1,.67.22,1.93,1.93,0,0,1,.58.71,2,2,0,0,1,.24.52,2.2,2.2,0,0,1,.06.5,1.36,1.36,0,0,1-.61,1.09,4.91,4.91,0,0,1-1.73.74A11.56,11.56,0,0,1,262.9,33.53Zm-2.67-7.4h3.95a1,1,0,0,0,.58-.14.61.61,0,0,0,.2-.53,1.21,1.21,0,0,0-.28-.78,1.84,1.84,0,0,0-.73-.54,3,3,0,0,0-1.09-.18,3.11,3.11,0,0,0-1.35.29,2.39,2.39,0,0,0-.94.8A1.89,1.89,0,0,0,260.23,26.13Z"/><path class="cls-2" d="M272.5,33.31a2.48,2.48,0,0,1-1.31-.26,1,1,0,0,1-.47-.71,4.73,4.73,0,0,1-.09-.93V22.69a4.45,4.45,0,0,1,.09-.93,1.08,1.08,0,0,1,.49-.69,2.57,2.57,0,0,1,1.32-.26,2.52,2.52,0,0,1,1.27.24,1,1,0,0,1,.48.55,1.73,1.73,0,0,1,.1.54l-.3.15a2.27,2.27,0,0,1,.27-.36,3.1,3.1,0,0,1,.58-.55,3.21,3.21,0,0,1,.92-.49,3.6,3.6,0,0,1,1.23-.2,4.7,4.7,0,0,1,.62,0,3.14,3.14,0,0,1,.7.15,2.47,2.47,0,0,1,.66.3,1.66,1.66,0,0,1,.49.46,1.21,1.21,0,0,1,.18.68,3.08,3.08,0,0,1-.47,1.73,1.38,1.38,0,0,1-1.2.71,2,2,0,0,1-.6-.06,1,1,0,0,1-.29-.15,1.1,1.1,0,0,0-.26-.15,1.72,1.72,0,0,0-.55-.06,2.46,2.46,0,0,0-.72.1,2.12,2.12,0,0,0-.62.31,1.54,1.54,0,0,0-.45.53,1.46,1.46,0,0,0-.16.71v5.47a4.63,4.63,0,0,1-.09.92,1,1,0,0,1-.48.68A2.6,2.6,0,0,1,272.5,33.31Z"/><path class="cls-2" d="M287.7,33.52a6.29,6.29,0,0,1-2.34-.46,7.06,7.06,0,0,1-2.11-1.32,6.31,6.31,0,0,1-1.51-2,6.14,6.14,0,0,1-.56-2.63,6.24,6.24,0,0,1,.51-2.52,7,7,0,0,1,1.42-2.06,6.75,6.75,0,0,1,2.06-1.41,6.16,6.16,0,0,1,2.49-.51,6.24,6.24,0,0,1,3.26.87,6.53,6.53,0,0,1,2.34,2.33,6.71,6.71,0,0,1,.31,6A6.5,6.5,0,0,1,290,33.08,6.17,6.17,0,0,1,287.7,33.52Zm-.05-3.77a2.85,2.85,0,0,0,1.23-.3A2.56,2.56,0,0,0,290.36,27a2.77,2.77,0,0,0-.35-1.4,2.58,2.58,0,0,0-1-.94,2.88,2.88,0,0,0-1.41-.33,2.62,2.62,0,0,0-1.34.34,2.85,2.85,0,0,0-1,1A2.68,2.68,0,0,0,285,27a2.71,2.71,0,0,0,.41,1.52,2.49,2.49,0,0,0,1,.9A2.9,2.9,0,0,0,287.65,29.75Z"/><path class="cls-2" d="M305.31,22.66a2.08,2.08,0,0,1-1.3.61,1.91,1.91,0,0,1-1.25-.74,1.88,1.88,0,0,1-.63-1.38,2.23,2.23,0,0,1,.88-1.37l3.73-3.3a1.75,1.75,0,0,1,1.28-.57,2,2,0,0,1,1.24.77,1.72,1.72,0,0,1,.61,1.34,2.21,2.21,0,0,1-.88,1.36Zm3.14,10.72A2,2,0,0,1,307,33a2.15,2.15,0,0,1-.41-1.48V17.73a2.05,2.05,0,0,1,.41-1.46,2.1,2.1,0,0,1,1.47-.41,2,2,0,0,1,1.46.42,2.19,2.19,0,0,1,.41,1.5V31.51a2,2,0,0,1-.41,1.46A2.08,2.08,0,0,1,308.45,33.38Z"/><path class="cls-2" d="M319,33.61a6.35,6.35,0,0,1-2.78-.55,5.2,5.2,0,0,1-1.9-1.49,7.45,7.45,0,0,1-1.18-2.1,10.87,10.87,0,0,1-.61-2.42,17.33,17.33,0,0,1-.18-2.44,15.92,15.92,0,0,1,.18-2.32,12.38,12.38,0,0,1,.59-2.4,7.27,7.27,0,0,1,1.16-2.14,5.54,5.54,0,0,1,1.9-1.54,6.21,6.21,0,0,1,2.78-.57,6,6,0,0,1,2.68.56,5.44,5.44,0,0,1,1.87,1.5,8.1,8.1,0,0,1,1.16,2.13,12,12,0,0,1,.61,2.43,18,18,0,0,1,.17,2.38,15.77,15.77,0,0,1-.19,2.43,12.44,12.44,0,0,1-.61,2.42,7.37,7.37,0,0,1-1.16,2.1,5.55,5.55,0,0,1-1.84,1.48A5.86,5.86,0,0,1,319,33.61Zm-.13-3.82a2.23,2.23,0,0,0,1.37-.39,2.74,2.74,0,0,0,.8-1,5,5,0,0,0,.41-1.29,10.69,10.69,0,0,0,.16-1.33c0-.42,0-.78,0-1.06v-.12a10.91,10.91,0,0,0-.31-2.83,3.86,3.86,0,0,0-.91-1.75,2,2,0,0,0-1.5-.6,2.13,2.13,0,0,0-1.56.59,3.59,3.59,0,0,0-.92,1.75,11.56,11.56,0,0,0-.3,2.86,10.77,10.77,0,0,0,.31,2.8,3.78,3.78,0,0,0,.93,1.75A2,2,0,0,0,318.85,29.79Z"/><path class="cls-3" d="M114.17,15.72a3.84,3.84,0,0,1,.78.07.9.9,0,0,1,.59.43,2.19,2.19,0,0,1,.22,1.15,2.14,2.14,0,0,1-.22,1.12.89.89,0,0,1-.6.43,4.11,4.11,0,0,1-.8.07h-4V31.36a4.29,4.29,0,0,1-.09.9,1.06,1.06,0,0,1-.48.69,2.44,2.44,0,0,1-1.33.26,2.36,2.36,0,0,1-1.28-.26,1.08,1.08,0,0,1-.49-.7,4.53,4.53,0,0,1-.08-.91V19h-4a3.3,3.3,0,0,1-.77-.08,1,1,0,0,1-.61-.43,2,2,0,0,1-.24-1.14,2,2,0,0,1,.24-1.12,1,1,0,0,1,.61-.43,3.94,3.94,0,0,1,.77-.07Z"/><path class="cls-3" d="M119.73,33.22a2.48,2.48,0,0,1-1.31-.26,1.11,1.11,0,0,1-.48-.72,4.63,4.63,0,0,1-.08-.92V22.59a4.42,4.42,0,0,1,.09-.92,1.08,1.08,0,0,1,.49-.69,2.52,2.52,0,0,1,1.32-.26A2.47,2.47,0,0,1,121,21a1.06,1.06,0,0,1,.49.55,1.73,1.73,0,0,1,.1.54l-.3.15a2.39,2.39,0,0,1,.26-.37,4.66,4.66,0,0,1,.59-.55,3.55,3.55,0,0,1,.91-.48,3.4,3.4,0,0,1,1.24-.2,4.45,4.45,0,0,1,.61,0,3,3,0,0,1,.7.15,2.4,2.4,0,0,1,.67.3,1.51,1.51,0,0,1,.48.46,1.13,1.13,0,0,1,.19.67,3,3,0,0,1-.48,1.74,1.38,1.38,0,0,1-1.2.71,2.11,2.11,0,0,1-.6-.06.92.92,0,0,1-.28-.15,1.17,1.17,0,0,0-.27-.15,1.61,1.61,0,0,0-.54-.06,2.46,2.46,0,0,0-.72.1,1.9,1.9,0,0,0-.62.31,1.49,1.49,0,0,0-.45.52,1.53,1.53,0,0,0-.17.72v5.47a4.46,4.46,0,0,1-.09.91,1,1,0,0,1-.49.69A2.53,2.53,0,0,1,119.73,33.22Z"/><path class="cls-3" d="M139.13,33.21a2.34,2.34,0,0,1-1.38-.33.89.89,0,0,1-.42-.8l.25-.42a3,3,0,0,1-.57.61,4.17,4.17,0,0,1-2.78.93,4.88,4.88,0,0,1-2.19-.5,5.7,5.7,0,0,1-1.83-1.39,7,7,0,0,1-1.28-2,6.16,6.16,0,0,1-.47-2.38,6,6,0,0,1,.47-2.33,6.9,6.9,0,0,1,1.29-2,6.56,6.56,0,0,1,1.84-1.36,4.94,4.94,0,0,1,2.18-.5,4.09,4.09,0,0,1,1.57.27,4.32,4.32,0,0,1,1.09.61,3.2,3.2,0,0,1,.66.68l-.22-.35a1.06,1.06,0,0,1,.43-.92,2.44,2.44,0,0,1,1.39-.31,2.24,2.24,0,0,1,1.29.28,1.07,1.07,0,0,1,.47.72,4.86,4.86,0,0,1,.09.95v8.63a4.7,4.7,0,0,1-.09.92,1.07,1.07,0,0,1-.48.71A2.37,2.37,0,0,1,139.13,33.21Zm-4.37-3.73a2.13,2.13,0,0,0,1.2-.34,2.57,2.57,0,0,0,.85-.91,2.6,2.6,0,0,0,.32-1.27,2.57,2.57,0,0,0-.32-1.29,2.42,2.42,0,0,0-.88-.89,2.3,2.3,0,0,0-1.22-.33,2.42,2.42,0,0,0-1.26.34,2.53,2.53,0,0,0-.9.91,2.5,2.5,0,0,0-.34,1.3,2.34,2.34,0,0,0,.34,1.24,2.41,2.41,0,0,0,.92.9A2.49,2.49,0,0,0,134.76,29.48Z"/><path class="cls-3" d="M144.88,33.23a1.76,1.76,0,0,1-1.31-.53,1.82,1.82,0,0,1-.54-1.34,2.06,2.06,0,0,1,.14-.73,1.81,1.81,0,0,1,.41-.62l5.68-5.5h-3.8a3.85,3.85,0,0,1-.91-.1,1.25,1.25,0,0,1-.73-.49,2.2,2.2,0,0,1-.28-1.31,2.27,2.27,0,0,1,.28-1.31,1.19,1.19,0,0,1,.73-.48,4.47,4.47,0,0,1,.91-.08h7.83a1.79,1.79,0,0,1,1.32.53,1.75,1.75,0,0,1,.52,1.32,2.13,2.13,0,0,1-.13.76,1.39,1.39,0,0,1-.39.59l-5.55,5.52h4.52a4,4,0,0,1,.93.1,1.06,1.06,0,0,1,.68.5,2.41,2.41,0,0,1,.27,1.32,2.48,2.48,0,0,1-.28,1.3,1.05,1.05,0,0,1-.7.48,5.33,5.33,0,0,1-.93.07Z"/><path class="cls-3" d="M167.7,33.22a2.41,2.41,0,0,1-1.37-.32.93.93,0,0,1-.43-.8l.25-.43a3,3,0,0,1-.57.62,4.11,4.11,0,0,1-1.11.64,4.2,4.2,0,0,1-1.67.29,5,5,0,0,1-2.18-.5,5.89,5.89,0,0,1-1.84-1.39,7,7,0,0,1-1.27-2,6,6,0,0,1-.48-2.38,5.82,5.82,0,0,1,.48-2.33,6.77,6.77,0,0,1,1.29-2,6.24,6.24,0,0,1,1.84-1.36,4.9,4.9,0,0,1,2.17-.5,4.35,4.35,0,0,1,1.58.26,4.26,4.26,0,0,1,1.08.62,3.17,3.17,0,0,1,.66.67l-.22-.35a1.05,1.05,0,0,1,.44-.91,2.4,2.4,0,0,1,1.39-.31A2.3,2.3,0,0,1,169,21a1.16,1.16,0,0,1,.48.73,4.86,4.86,0,0,1,.09.95v8.62a4.73,4.73,0,0,1-.09.93A1.09,1.09,0,0,1,169,33,2.42,2.42,0,0,1,167.7,33.22Zm-4.37-3.72a2.21,2.21,0,0,0,1.2-.34,2.66,2.66,0,0,0,.85-.91,2.54,2.54,0,0,0,.33-1.28,2.46,2.46,0,0,0-.33-1.28,2.26,2.26,0,0,0-.87-.89,2.48,2.48,0,0,0-2.49,0,2.61,2.61,0,0,0-.9.91,2.57,2.57,0,0,0-.34,1.3,2.34,2.34,0,0,0,.34,1.24,2.56,2.56,0,0,0,.92.9A2.62,2.62,0,0,0,163.33,29.5Z"/><path class="cls-3" d="M184.8,33.48a7.28,7.28,0,0,1-3-.57,5.86,5.86,0,0,1-2.06-1.52,6.57,6.57,0,0,1-1.2-2.08,6.93,6.93,0,0,1-.4-2.31,6.51,6.51,0,0,1,.85-3.32,6.14,6.14,0,0,1,2.37-2.29,7.11,7.11,0,0,1,3.46-.83,6.22,6.22,0,0,1,2.51.46,5.23,5.23,0,0,1,1.75,1.2,5.34,5.34,0,0,1,1,1.59,4.51,4.51,0,0,1,.33,1.63,2.84,2.84,0,0,1-.66,2,2.27,2.27,0,0,1-1.69.67h-6a1.76,1.76,0,0,0,.46,1.07,2.73,2.73,0,0,0,1,.7,3.5,3.5,0,0,0,1.33.25,8.05,8.05,0,0,0,1-.06,4.49,4.49,0,0,0,.79-.17l.59-.23.49-.18a1.81,1.81,0,0,1,.42-.1,1,1,0,0,1,.68.21,2.22,2.22,0,0,1,.57.71,1.75,1.75,0,0,1,.24.53,2.07,2.07,0,0,1,.06.5,1.32,1.32,0,0,1-.61,1.08,4.73,4.73,0,0,1-1.73.74A11.56,11.56,0,0,1,184.8,33.48Zm-2.67-7.4h4a1.06,1.06,0,0,0,.58-.13.62.62,0,0,0,.2-.54,1.18,1.18,0,0,0-.28-.77,1.67,1.67,0,0,0-.73-.54,2.8,2.8,0,0,0-1.09-.19,3,3,0,0,0-1.35.3,2.38,2.38,0,0,0-.94.8A1.91,1.91,0,0,0,182.13,26.08Z"/><path class="cls-3" d="M197.33,33.27a16.4,16.4,0,0,1-1.83-.1,3.9,3.9,0,0,1-1.35-.41,2.55,2.55,0,0,1-.9-.83,4.19,4.19,0,0,1-.52-1.38,10,10,0,0,1-.17-2.06V16.94a4.57,4.57,0,0,1,.1-.93,1.21,1.21,0,0,1,.49-.7,2.39,2.39,0,0,1,1.31-.27,2.24,2.24,0,0,1,1.29.28,1.15,1.15,0,0,1,.49.7,4.4,4.4,0,0,1,.1.92V28.32a4.16,4.16,0,0,0,0,.66.8.8,0,0,0,.15.41.51.51,0,0,0,.31.2,2.44,2.44,0,0,0,.53.05,2.69,2.69,0,0,1,.61.08.89.89,0,0,1,.54.45,2.68,2.68,0,0,1,.22,1.25,2.79,2.79,0,0,1-.23,1.3.91.91,0,0,1-.53.47A2.74,2.74,0,0,1,197.33,33.27Z"/><path class="cls-3" d="M209,33.25a2.5,2.5,0,0,1-1.31-.26,1,1,0,0,1-.47-.71,4.46,4.46,0,0,1-.09-.91v-8.8a4.1,4.1,0,0,1,.09-.88,1,1,0,0,1,.49-.67,2.71,2.71,0,0,1,1.33-.25,2.35,2.35,0,0,1,1.17.22,1,1,0,0,1,.49.51,1.73,1.73,0,0,1,.11.56.91.91,0,0,0,.05.36l-.15.48a1.43,1.43,0,0,1,.39-.76,3.53,3.53,0,0,1,.85-.7A4.73,4.73,0,0,1,213,21a3.93,3.93,0,0,1,1.16-.17,4.9,4.9,0,0,1,2.14.44,4.29,4.29,0,0,1,1.58,1.26,5.65,5.65,0,0,1,1,1.94,8.16,8.16,0,0,1,.34,2.43V31.4a5.43,5.43,0,0,1-.08.92,1,1,0,0,1-.48.68,2.57,2.57,0,0,1-1.34.25A2.45,2.45,0,0,1,216,33a1.06,1.06,0,0,1-.49-.7,4.53,4.53,0,0,1-.09-.91V26.85a2.74,2.74,0,0,0-.27-1.27,1.8,1.8,0,0,0-.74-.8,2.39,2.39,0,0,0-1.22-.28,2.59,2.59,0,0,0-1.25.29,2,2,0,0,0-.81.81,2.59,2.59,0,0,0-.29,1.25V31.4a4.46,4.46,0,0,1-.09.91,1.08,1.08,0,0,1-.47.69A2.53,2.53,0,0,1,209,33.25Z"/><path class="cls-3" d="M227,33.26a5.25,5.25,0,0,1-2.18-.45,5.31,5.31,0,0,1-1.75-1.27,5.8,5.8,0,0,1-1.16-1.92,7.1,7.1,0,0,1-.41-2.44V22.66a4.45,4.45,0,0,1,.09-.93,1.1,1.1,0,0,1,.49-.7,2.46,2.46,0,0,1,1.32-.27,2.41,2.41,0,0,1,1.32.27,1.13,1.13,0,0,1,.47.72,4.59,4.59,0,0,1,.09.93v4.5a2.8,2.8,0,0,0,.26,1.27,1.78,1.78,0,0,0,.77.81,2.57,2.57,0,0,0,1.21.27,2.4,2.4,0,0,0,1.24-.28,2,2,0,0,0,.8-.81,2.59,2.59,0,0,0,.29-1.25V22.64a4.45,4.45,0,0,1,.09-.93,1.08,1.08,0,0,1,.49-.69,2.59,2.59,0,0,1,1.33-.26,2.38,2.38,0,0,1,1.31.28,1.1,1.1,0,0,1,.47.71,4.53,4.53,0,0,1,.09.91v8.8a4.91,4.91,0,0,1-.08.89,1,1,0,0,1-.49.66,2.52,2.52,0,0,1-1.3.25,2.92,2.92,0,0,1-1.05-.15,1.23,1.23,0,0,1-.55-.37.94.94,0,0,1-.21-.48,2.57,2.57,0,0,1,0-.45l.32-.27a3,3,0,0,1-.32.38,5.89,5.89,0,0,1-.66.58,4.28,4.28,0,0,1-1,.54A3.31,3.31,0,0,1,227,33.26Zm-.39-13.38a.82.82,0,0,1-.74-.25,2.63,2.63,0,0,1-.51-1,2,2,0,0,1-.1-1.3,1.38,1.38,0,0,1,.92-.67l4.4-1.35a.88.88,0,0,1,.73.29,2.53,2.53,0,0,1,.5,1,1.93,1.93,0,0,1,.09,1.27,1.35,1.35,0,0,1-.92.68Z"/><path class="cls-3" d="M238,33.29a2.38,2.38,0,0,1-1.3-.27,1.07,1.07,0,0,1-.48-.71,5.29,5.29,0,0,1-.07-.92V22.64a4.29,4.29,0,0,1,.09-.9,1.08,1.08,0,0,1,.49-.69,2.59,2.59,0,0,1,1.33-.26,2,2,0,0,1,1.34.36,1.48,1.48,0,0,1,.43,1.19l-.33.28a2.46,2.46,0,0,1,.3-.43,4.89,4.89,0,0,1,.65-.62,3.77,3.77,0,0,1,.94-.56,2.85,2.85,0,0,1,1.17-.24A4.29,4.29,0,0,1,244,21a3.82,3.82,0,0,1,1.2.7,4.38,4.38,0,0,1,.94,1.16,6.28,6.28,0,0,1,.85-1,4.41,4.41,0,0,1,1.17-.8,3.44,3.44,0,0,1,1.53-.33,4.15,4.15,0,0,1,2.49.74,4.54,4.54,0,0,1,1.53,2.12,9.28,9.28,0,0,1,.53,3.32v4.48a3.91,3.91,0,0,1-.1.91,1.14,1.14,0,0,1-.48.7,2.52,2.52,0,0,1-1.32.26A2.33,2.33,0,0,1,251,33a1,1,0,0,1-.48-.71,5.41,5.41,0,0,1-.07-.91V26.92a4,4,0,0,0-.18-1.28,1.88,1.88,0,0,0-.54-.83,1.41,1.41,0,0,0-.9-.29,1.64,1.64,0,0,0-1,.28,1.72,1.72,0,0,0-.6.8,3.92,3.92,0,0,0-.2,1.35v4.47a3.19,3.19,0,0,1-.13.94,1.22,1.22,0,0,1-.53.7,2.6,2.6,0,0,1-1.34.24,2.16,2.16,0,0,1-1.25-.29,1.14,1.14,0,0,1-.45-.73,5.26,5.26,0,0,1-.08-.89V26.92a4.21,4.21,0,0,0-.18-1.3,1.65,1.65,0,0,0-.52-.83,1.49,1.49,0,0,0-.93-.27,1.59,1.59,0,0,0-1,.32,2,2,0,0,0-.59.86,3.59,3.59,0,0,0-.19,1.22v4.5a4.42,4.42,0,0,1-.09.92,1.06,1.06,0,0,1-.49.69A2.54,2.54,0,0,1,238,33.29Z"/><path class="cls-3" d="M262.9,33.53a7.12,7.12,0,0,1-3-.58,5.72,5.72,0,0,1-2.06-1.51,6.61,6.61,0,0,1-1.2-2.09,6.83,6.83,0,0,1-.4-2.3,6.38,6.38,0,0,1,.85-3.32,6.14,6.14,0,0,1,2.37-2.29,7,7,0,0,1,3.46-.83,6.22,6.22,0,0,1,2.51.46,5.23,5.23,0,0,1,1.75,1.2,5.1,5.1,0,0,1,1,1.59,4.5,4.5,0,0,1,.33,1.62,2.82,2.82,0,0,1-.66,2.05,2.28,2.28,0,0,1-1.69.68h-5.95a1.77,1.77,0,0,0,.46,1.08,2.85,2.85,0,0,0,1,.7,3.48,3.48,0,0,0,1.32.25,8.1,8.1,0,0,0,1-.06,3.7,3.7,0,0,0,.79-.18c.22-.07.41-.15.59-.22a4.32,4.32,0,0,1,.48-.19,2.63,2.63,0,0,1,.43-.1,1,1,0,0,1,.67.22,1.93,1.93,0,0,1,.58.71,2,2,0,0,1,.24.52,2.2,2.2,0,0,1,.06.5,1.36,1.36,0,0,1-.61,1.09,4.91,4.91,0,0,1-1.73.74A11.56,11.56,0,0,1,262.9,33.53Zm-2.67-7.4h3.95a1,1,0,0,0,.58-.14.61.61,0,0,0,.2-.53,1.21,1.21,0,0,0-.28-.78,1.84,1.84,0,0,0-.73-.54,3,3,0,0,0-1.09-.18,3.11,3.11,0,0,0-1.35.29,2.39,2.39,0,0,0-.94.8A1.89,1.89,0,0,0,260.23,26.13Z"/><path class="cls-3" d="M272.5,33.31a2.48,2.48,0,0,1-1.31-.26,1,1,0,0,1-.47-.71,4.73,4.73,0,0,1-.09-.93V22.69a4.45,4.45,0,0,1,.09-.93,1.08,1.08,0,0,1,.49-.69,2.57,2.57,0,0,1,1.32-.26,2.52,2.52,0,0,1,1.27.24,1,1,0,0,1,.48.55,1.73,1.73,0,0,1,.1.54l-.3.15a2.27,2.27,0,0,1,.27-.36,3.1,3.1,0,0,1,.58-.55,3.21,3.21,0,0,1,.92-.49,3.6,3.6,0,0,1,1.23-.2,4.7,4.7,0,0,1,.62,0,3.14,3.14,0,0,1,.7.15,2.47,2.47,0,0,1,.66.3,1.66,1.66,0,0,1,.49.46,1.21,1.21,0,0,1,.18.68,3.08,3.08,0,0,1-.47,1.73,1.38,1.38,0,0,1-1.2.71,2,2,0,0,1-.6-.06,1,1,0,0,1-.29-.15,1.1,1.1,0,0,0-.26-.15,1.72,1.72,0,0,0-.55-.06,2.46,2.46,0,0,0-.72.1,2.12,2.12,0,0,0-.62.31,1.54,1.54,0,0,0-.45.53,1.46,1.46,0,0,0-.16.71v5.47a4.63,4.63,0,0,1-.09.92,1,1,0,0,1-.48.68A2.6,2.6,0,0,1,272.5,33.31Z"/><path class="cls-3" d="M287.7,33.52a6.29,6.29,0,0,1-2.34-.46,7.06,7.06,0,0,1-2.11-1.32,6.31,6.31,0,0,1-1.51-2,6.14,6.14,0,0,1-.56-2.63,6.24,6.24,0,0,1,.51-2.52,7,7,0,0,1,1.42-2.06,6.75,6.75,0,0,1,2.06-1.41,6.16,6.16,0,0,1,2.49-.51,6.24,6.24,0,0,1,3.26.87,6.53,6.53,0,0,1,2.34,2.33,6.71,6.71,0,0,1,.31,6A6.5,6.5,0,0,1,290,33.08,6.17,6.17,0,0,1,287.7,33.52Zm-.05-3.77a2.85,2.85,0,0,0,1.23-.3A2.56,2.56,0,0,0,290.36,27a2.77,2.77,0,0,0-.35-1.4,2.58,2.58,0,0,0-1-.94,2.88,2.88,0,0,0-1.41-.33,2.62,2.62,0,0,0-1.34.34,2.85,2.85,0,0,0-1,1A2.68,2.68,0,0,0,285,27a2.71,2.71,0,0,0,.41,1.52,2.49,2.49,0,0,0,1,.9A2.9,2.9,0,0,0,287.65,29.75Z"/><path class="cls-3" d="M305.31,22.66a2.08,2.08,0,0,1-1.3.61,1.91,1.91,0,0,1-1.25-.74,1.88,1.88,0,0,1-.63-1.38,2.23,2.23,0,0,1,.88-1.37l3.73-3.3a1.75,1.75,0,0,1,1.28-.57,2,2,0,0,1,1.24.77,1.72,1.72,0,0,1,.61,1.34,2.21,2.21,0,0,1-.88,1.36Zm3.14,10.72A2,2,0,0,1,307,33a2.15,2.15,0,0,1-.41-1.48V17.73a2.05,2.05,0,0,1,.41-1.46,2.1,2.1,0,0,1,1.47-.41,2,2,0,0,1,1.46.42,2.19,2.19,0,0,1,.41,1.5V31.51a2,2,0,0,1-.41,1.46A2.08,2.08,0,0,1,308.45,33.38Z"/><path class="cls-3" d="M319,33.61a6.35,6.35,0,0,1-2.78-.55,5.2,5.2,0,0,1-1.9-1.49,7.45,7.45,0,0,1-1.18-2.1,10.87,10.87,0,0,1-.61-2.42,17.33,17.33,0,0,1-.18-2.44,15.92,15.92,0,0,1,.18-2.32,12.38,12.38,0,0,1,.59-2.4,7.27,7.27,0,0,1,1.16-2.14,5.54,5.54,0,0,1,1.9-1.54,6.21,6.21,0,0,1,2.78-.57,6,6,0,0,1,2.68.56,5.44,5.44,0,0,1,1.87,1.5,8.1,8.1,0,0,1,1.16,2.13,12,12,0,0,1,.61,2.43,18,18,0,0,1,.17,2.38,15.77,15.77,0,0,1-.19,2.43,12.44,12.44,0,0,1-.61,2.42,7.37,7.37,0,0,1-1.16,2.1,5.55,5.55,0,0,1-1.84,1.48A5.86,5.86,0,0,1,319,33.61Zm-.13-3.82a2.23,2.23,0,0,0,1.37-.39,2.74,2.74,0,0,0,.8-1,5,5,0,0,0,.41-1.29,10.69,10.69,0,0,0,.16-1.33c0-.42,0-.78,0-1.06v-.12a10.91,10.91,0,0,0-.31-2.83,3.86,3.86,0,0,0-.91-1.75,2,2,0,0,0-1.5-.6,2.13,2.13,0,0,0-1.56.59,3.59,3.59,0,0,0-.92,1.75,11.56,11.56,0,0,0-.3,2.86,10.77,10.77,0,0,0,.31,2.8,3.78,3.78,0,0,0,.93,1.75A2,2,0,0,0,318.85,29.79Z"/><path class="cls-2" d="M114.17,15.72a3.84,3.84,0,0,1,.78.07.9.9,0,0,1,.59.43,2.19,2.19,0,0,1,.22,1.15,2.14,2.14,0,0,1-.22,1.12.89.89,0,0,1-.6.43,4.11,4.11,0,0,1-.8.07h-4V31.36a4.29,4.29,0,0,1-.09.9,1.06,1.06,0,0,1-.48.69,2.44,2.44,0,0,1-1.33.26,2.36,2.36,0,0,1-1.28-.26,1.08,1.08,0,0,1-.49-.7,4.53,4.53,0,0,1-.08-.91V19h-4a3.3,3.3,0,0,1-.77-.08,1,1,0,0,1-.61-.43,2,2,0,0,1-.24-1.14,2,2,0,0,1,.24-1.12,1,1,0,0,1,.61-.43,3.94,3.94,0,0,1,.77-.07Z"/><path class="cls-2" d="M119.73,33.22a2.48,2.48,0,0,1-1.31-.26,1.11,1.11,0,0,1-.48-.72,4.63,4.63,0,0,1-.08-.92V22.59a4.42,4.42,0,0,1,.09-.92,1.08,1.08,0,0,1,.49-.69,2.52,2.52,0,0,1,1.32-.26A2.47,2.47,0,0,1,121,21a1.06,1.06,0,0,1,.49.55,1.73,1.73,0,0,1,.1.54l-.3.15a2.39,2.39,0,0,1,.26-.37,4.66,4.66,0,0,1,.59-.55,3.55,3.55,0,0,1,.91-.48,3.4,3.4,0,0,1,1.24-.2,4.45,4.45,0,0,1,.61,0,3,3,0,0,1,.7.15,2.4,2.4,0,0,1,.67.3,1.51,1.51,0,0,1,.48.46,1.13,1.13,0,0,1,.19.67,3,3,0,0,1-.48,1.74,1.38,1.38,0,0,1-1.2.71,2.11,2.11,0,0,1-.6-.06.92.92,0,0,1-.28-.15,1.17,1.17,0,0,0-.27-.15,1.61,1.61,0,0,0-.54-.06,2.46,2.46,0,0,0-.72.1,1.9,1.9,0,0,0-.62.31,1.49,1.49,0,0,0-.45.52,1.53,1.53,0,0,0-.17.72v5.47a4.46,4.46,0,0,1-.09.91,1,1,0,0,1-.49.69A2.53,2.53,0,0,1,119.73,33.22Z"/><path class="cls-2" d="M139.13,33.21a2.34,2.34,0,0,1-1.38-.33.89.89,0,0,1-.42-.8l.25-.42a3,3,0,0,1-.57.61,4.17,4.17,0,0,1-2.78.93,4.88,4.88,0,0,1-2.19-.5,5.7,5.7,0,0,1-1.83-1.39,7,7,0,0,1-1.28-2,6.16,6.16,0,0,1-.47-2.38,6,6,0,0,1,.47-2.33,6.9,6.9,0,0,1,1.29-2,6.56,6.56,0,0,1,1.84-1.36,4.94,4.94,0,0,1,2.18-.5,4.09,4.09,0,0,1,1.57.27,4.32,4.32,0,0,1,1.09.61,3.2,3.2,0,0,1,.66.68l-.22-.35a1.06,1.06,0,0,1,.43-.92,2.44,2.44,0,0,1,1.39-.31,2.24,2.24,0,0,1,1.29.28,1.07,1.07,0,0,1,.47.72,4.86,4.86,0,0,1,.09.95v8.63a4.7,4.7,0,0,1-.09.92,1.07,1.07,0,0,1-.48.71A2.37,2.37,0,0,1,139.13,33.21Zm-4.37-3.73a2.13,2.13,0,0,0,1.2-.34,2.57,2.57,0,0,0,.85-.91,2.6,2.6,0,0,0,.32-1.27,2.57,2.57,0,0,0-.32-1.29,2.42,2.42,0,0,0-.88-.89,2.3,2.3,0,0,0-1.22-.33,2.42,2.42,0,0,0-1.26.34,2.53,2.53,0,0,0-.9.91,2.5,2.5,0,0,0-.34,1.3,2.34,2.34,0,0,0,.34,1.24,2.41,2.41,0,0,0,.92.9A2.49,2.49,0,0,0,134.76,29.48Z"/><path class="cls-2" d="M144.88,33.23a1.76,1.76,0,0,1-1.31-.53,1.82,1.82,0,0,1-.54-1.34,2.06,2.06,0,0,1,.14-.73,1.81,1.81,0,0,1,.41-.62l5.68-5.5h-3.8a3.85,3.85,0,0,1-.91-.1,1.25,1.25,0,0,1-.73-.49,2.2,2.2,0,0,1-.28-1.31,2.27,2.27,0,0,1,.28-1.31,1.19,1.19,0,0,1,.73-.48,4.47,4.47,0,0,1,.91-.08h7.83a1.79,1.79,0,0,1,1.32.53,1.75,1.75,0,0,1,.52,1.32,2.13,2.13,0,0,1-.13.76,1.39,1.39,0,0,1-.39.59l-5.55,5.52h4.52a4,4,0,0,1,.93.1,1.06,1.06,0,0,1,.68.5,2.41,2.41,0,0,1,.27,1.32,2.48,2.48,0,0,1-.28,1.3,1.05,1.05,0,0,1-.7.48,5.33,5.33,0,0,1-.93.07Z"/><path class="cls-2" d="M167.7,33.22a2.41,2.41,0,0,1-1.37-.32.93.93,0,0,1-.43-.8l.25-.43a3,3,0,0,1-.57.62,4.11,4.11,0,0,1-1.11.64,4.2,4.2,0,0,1-1.67.29,5,5,0,0,1-2.18-.5,5.89,5.89,0,0,1-1.84-1.39,7,7,0,0,1-1.27-2,6,6,0,0,1-.48-2.38,5.82,5.82,0,0,1,.48-2.33,6.77,6.77,0,0,1,1.29-2,6.24,6.24,0,0,1,1.84-1.36,4.9,4.9,0,0,1,2.17-.5,4.35,4.35,0,0,1,1.58.26,4.26,4.26,0,0,1,1.08.62,3.17,3.17,0,0,1,.66.67l-.22-.35a1.05,1.05,0,0,1,.44-.91,2.4,2.4,0,0,1,1.39-.31A2.3,2.3,0,0,1,169,21a1.16,1.16,0,0,1,.48.73,4.86,4.86,0,0,1,.09.95v8.62a4.73,4.73,0,0,1-.09.93A1.09,1.09,0,0,1,169,33,2.42,2.42,0,0,1,167.7,33.22Zm-4.37-3.72a2.21,2.21,0,0,0,1.2-.34,2.66,2.66,0,0,0,.85-.91,2.54,2.54,0,0,0,.33-1.28,2.46,2.46,0,0,0-.33-1.28,2.26,2.26,0,0,0-.87-.89,2.48,2.48,0,0,0-2.49,0,2.61,2.61,0,0,0-.9.91,2.57,2.57,0,0,0-.34,1.3,2.34,2.34,0,0,0,.34,1.24,2.56,2.56,0,0,0,.92.9A2.62,2.62,0,0,0,163.33,29.5Z"/><path class="cls-2" d="M184.8,33.48a7.28,7.28,0,0,1-3-.57,5.86,5.86,0,0,1-2.06-1.52,6.57,6.57,0,0,1-1.2-2.08,6.93,6.93,0,0,1-.4-2.31,6.51,6.51,0,0,1,.85-3.32,6.14,6.14,0,0,1,2.37-2.29,7.11,7.11,0,0,1,3.46-.83,6.22,6.22,0,0,1,2.51.46,5.23,5.23,0,0,1,1.75,1.2,5.34,5.34,0,0,1,1,1.59,4.51,4.51,0,0,1,.33,1.63,2.84,2.84,0,0,1-.66,2,2.27,2.27,0,0,1-1.69.67h-6a1.76,1.76,0,0,0,.46,1.07,2.73,2.73,0,0,0,1,.7,3.5,3.5,0,0,0,1.33.25,8.05,8.05,0,0,0,1-.06,4.49,4.49,0,0,0,.79-.17l.59-.23.49-.18a1.81,1.81,0,0,1,.42-.1,1,1,0,0,1,.68.21,2.22,2.22,0,0,1,.57.71,1.75,1.75,0,0,1,.24.53,2.07,2.07,0,0,1,.06.5,1.32,1.32,0,0,1-.61,1.08,4.73,4.73,0,0,1-1.73.74A11.56,11.56,0,0,1,184.8,33.48Zm-2.67-7.4h4a1.06,1.06,0,0,0,.58-.13.62.62,0,0,0,.2-.54,1.18,1.18,0,0,0-.28-.77,1.67,1.67,0,0,0-.73-.54,2.8,2.8,0,0,0-1.09-.19,3,3,0,0,0-1.35.3,2.38,2.38,0,0,0-.94.8A1.91,1.91,0,0,0,182.13,26.08Z"/><path class="cls-2" d="M197.33,33.27a16.4,16.4,0,0,1-1.83-.1,3.9,3.9,0,0,1-1.35-.41,2.55,2.55,0,0,1-.9-.83,4.19,4.19,0,0,1-.52-1.38,10,10,0,0,1-.17-2.06V16.94a4.57,4.57,0,0,1,.1-.93,1.21,1.21,0,0,1,.49-.7,2.39,2.39,0,0,1,1.31-.27,2.24,2.24,0,0,1,1.29.28,1.15,1.15,0,0,1,.49.7,4.4,4.4,0,0,1,.1.92V28.32a4.16,4.16,0,0,0,0,.66.8.8,0,0,0,.15.41.51.51,0,0,0,.31.2,2.44,2.44,0,0,0,.53.05,2.69,2.69,0,0,1,.61.08.89.89,0,0,1,.54.45,2.68,2.68,0,0,1,.22,1.25,2.79,2.79,0,0,1-.23,1.3.91.91,0,0,1-.53.47A2.74,2.74,0,0,1,197.33,33.27Z"/><path class="cls-2" d="M209,33.25a2.5,2.5,0,0,1-1.31-.26,1,1,0,0,1-.47-.71,4.46,4.46,0,0,1-.09-.91v-8.8a4.1,4.1,0,0,1,.09-.88,1,1,0,0,1,.49-.67,2.71,2.71,0,0,1,1.33-.25,2.35,2.35,0,0,1,1.17.22,1,1,0,0,1,.49.51,1.73,1.73,0,0,1,.11.56.91.91,0,0,0,.05.36l-.15.48a1.43,1.43,0,0,1,.39-.76,3.53,3.53,0,0,1,.85-.7A4.73,4.73,0,0,1,213,21a3.93,3.93,0,0,1,1.16-.17,4.9,4.9,0,0,1,2.14.44,4.29,4.29,0,0,1,1.58,1.26,5.65,5.65,0,0,1,1,1.94,8.16,8.16,0,0,1,.34,2.43V31.4a5.43,5.43,0,0,1-.08.92,1,1,0,0,1-.48.68,2.57,2.57,0,0,1-1.34.25A2.45,2.45,0,0,1,216,33a1.06,1.06,0,0,1-.49-.7,4.53,4.53,0,0,1-.09-.91V26.85a2.74,2.74,0,0,0-.27-1.27,1.8,1.8,0,0,0-.74-.8,2.39,2.39,0,0,0-1.22-.28,2.59,2.59,0,0,0-1.25.29,2,2,0,0,0-.81.81,2.59,2.59,0,0,0-.29,1.25V31.4a4.46,4.46,0,0,1-.09.91,1.08,1.08,0,0,1-.47.69A2.53,2.53,0,0,1,209,33.25Z"/><path class="cls-2" d="M227,33.26a5.25,5.25,0,0,1-2.18-.45,5.31,5.31,0,0,1-1.75-1.27,5.8,5.8,0,0,1-1.16-1.92,7.1,7.1,0,0,1-.41-2.44V22.66a4.45,4.45,0,0,1,.09-.93,1.1,1.1,0,0,1,.49-.7,2.46,2.46,0,0,1,1.32-.27,2.41,2.41,0,0,1,1.32.27,1.13,1.13,0,0,1,.47.72,4.59,4.59,0,0,1,.09.93v4.5a2.8,2.8,0,0,0,.26,1.27,1.78,1.78,0,0,0,.77.81,2.57,2.57,0,0,0,1.21.27,2.4,2.4,0,0,0,1.24-.28,2,2,0,0,0,.8-.81,2.59,2.59,0,0,0,.29-1.25V22.64a4.45,4.45,0,0,1,.09-.93,1.08,1.08,0,0,1,.49-.69,2.59,2.59,0,0,1,1.33-.26,2.38,2.38,0,0,1,1.31.28,1.1,1.1,0,0,1,.47.71,4.53,4.53,0,0,1,.09.91v8.8a4.91,4.91,0,0,1-.08.89,1,1,0,0,1-.49.66,2.52,2.52,0,0,1-1.3.25,2.92,2.92,0,0,1-1.05-.15,1.23,1.23,0,0,1-.55-.37.94.94,0,0,1-.21-.48,2.57,2.57,0,0,1,0-.45l.32-.27a3,3,0,0,1-.32.38,5.89,5.89,0,0,1-.66.58,4.28,4.28,0,0,1-1,.54A3.31,3.31,0,0,1,227,33.26Zm-.39-13.38a.82.82,0,0,1-.74-.25,2.63,2.63,0,0,1-.51-1,2,2,0,0,1-.1-1.3,1.38,1.38,0,0,1,.92-.67l4.4-1.35a.88.88,0,0,1,.73.29,2.53,2.53,0,0,1,.5,1,1.93,1.93,0,0,1,.09,1.27,1.35,1.35,0,0,1-.92.68Z"/><path class="cls-2" d="M238,33.29a2.38,2.38,0,0,1-1.3-.27,1.07,1.07,0,0,1-.48-.71,5.29,5.29,0,0,1-.07-.92V22.64a4.29,4.29,0,0,1,.09-.9,1.08,1.08,0,0,1,.49-.69,2.59,2.59,0,0,1,1.33-.26,2,2,0,0,1,1.34.36,1.48,1.48,0,0,1,.43,1.19l-.33.28a2.46,2.46,0,0,1,.3-.43,4.89,4.89,0,0,1,.65-.62,3.77,3.77,0,0,1,.94-.56,2.85,2.85,0,0,1,1.17-.24A4.29,4.29,0,0,1,244,21a3.82,3.82,0,0,1,1.2.7,4.38,4.38,0,0,1,.94,1.16,6.28,6.28,0,0,1,.85-1,4.41,4.41,0,0,1,1.17-.8,3.44,3.44,0,0,1,1.53-.33,4.15,4.15,0,0,1,2.49.74,4.54,4.54,0,0,1,1.53,2.12,9.28,9.28,0,0,1,.53,3.32v4.48a3.91,3.91,0,0,1-.1.91,1.14,1.14,0,0,1-.48.7,2.52,2.52,0,0,1-1.32.26A2.33,2.33,0,0,1,251,33a1,1,0,0,1-.48-.71,5.41,5.41,0,0,1-.07-.91V26.92a4,4,0,0,0-.18-1.28,1.88,1.88,0,0,0-.54-.83,1.41,1.41,0,0,0-.9-.29,1.64,1.64,0,0,0-1,.28,1.72,1.72,0,0,0-.6.8,3.92,3.92,0,0,0-.2,1.35v4.47a3.19,3.19,0,0,1-.13.94,1.22,1.22,0,0,1-.53.7,2.6,2.6,0,0,1-1.34.24,2.16,2.16,0,0,1-1.25-.29,1.14,1.14,0,0,1-.45-.73,5.26,5.26,0,0,1-.08-.89V26.92a4.21,4.21,0,0,0-.18-1.3,1.65,1.65,0,0,0-.52-.83,1.49,1.49,0,0,0-.93-.27,1.59,1.59,0,0,0-1,.32,2,2,0,0,0-.59.86,3.59,3.59,0,0,0-.19,1.22v4.5a4.42,4.42,0,0,1-.09.92,1.06,1.06,0,0,1-.49.69A2.54,2.54,0,0,1,238,33.29Z"/><path class="cls-2" d="M262.9,33.53a7.12,7.12,0,0,1-3-.58,5.72,5.72,0,0,1-2.06-1.51,6.61,6.61,0,0,1-1.2-2.09,6.83,6.83,0,0,1-.4-2.3,6.38,6.38,0,0,1,.85-3.32,6.14,6.14,0,0,1,2.37-2.29,7,7,0,0,1,3.46-.83,6.22,6.22,0,0,1,2.51.46,5.23,5.23,0,0,1,1.75,1.2,5.1,5.1,0,0,1,1,1.59,4.5,4.5,0,0,1,.33,1.62,2.82,2.82,0,0,1-.66,2.05,2.28,2.28,0,0,1-1.69.68h-5.95a1.77,1.77,0,0,0,.46,1.08,2.85,2.85,0,0,0,1,.7,3.48,3.48,0,0,0,1.32.25,8.1,8.1,0,0,0,1-.06,3.7,3.7,0,0,0,.79-.18c.22-.07.41-.15.59-.22a4.32,4.32,0,0,1,.48-.19,2.63,2.63,0,0,1,.43-.1,1,1,0,0,1,.67.22,1.93,1.93,0,0,1,.58.71,2,2,0,0,1,.24.52,2.2,2.2,0,0,1,.06.5,1.36,1.36,0,0,1-.61,1.09,4.91,4.91,0,0,1-1.73.74A11.56,11.56,0,0,1,262.9,33.53Zm-2.67-7.4h3.95a1,1,0,0,0,.58-.14.61.61,0,0,0,.2-.53,1.21,1.21,0,0,0-.28-.78,1.84,1.84,0,0,0-.73-.54,3,3,0,0,0-1.09-.18,3.11,3.11,0,0,0-1.35.29,2.39,2.39,0,0,0-.94.8A1.89,1.89,0,0,0,260.23,26.13Z"/><path class="cls-2" d="M272.5,33.31a2.48,2.48,0,0,1-1.31-.26,1,1,0,0,1-.47-.71,4.73,4.73,0,0,1-.09-.93V22.69a4.45,4.45,0,0,1,.09-.93,1.08,1.08,0,0,1,.49-.69,2.57,2.57,0,0,1,1.32-.26,2.52,2.52,0,0,1,1.27.24,1,1,0,0,1,.48.55,1.73,1.73,0,0,1,.1.54l-.3.15a2.27,2.27,0,0,1,.27-.36,3.1,3.1,0,0,1,.58-.55,3.21,3.21,0,0,1,.92-.49,3.6,3.6,0,0,1,1.23-.2,4.7,4.7,0,0,1,.62,0,3.14,3.14,0,0,1,.7.15,2.47,2.47,0,0,1,.66.3,1.66,1.66,0,0,1,.49.46,1.21,1.21,0,0,1,.18.68,3.08,3.08,0,0,1-.47,1.73,1.38,1.38,0,0,1-1.2.71,2,2,0,0,1-.6-.06,1,1,0,0,1-.29-.15,1.1,1.1,0,0,0-.26-.15,1.72,1.72,0,0,0-.55-.06,2.46,2.46,0,0,0-.72.1,2.12,2.12,0,0,0-.62.31,1.54,1.54,0,0,0-.45.53,1.46,1.46,0,0,0-.16.71v5.47a4.63,4.63,0,0,1-.09.92,1,1,0,0,1-.48.68A2.6,2.6,0,0,1,272.5,33.31Z"/><path class="cls-2" d="M287.7,33.52a6.29,6.29,0,0,1-2.34-.46,7.06,7.06,0,0,1-2.11-1.32,6.31,6.31,0,0,1-1.51-2,6.14,6.14,0,0,1-.56-2.63,6.24,6.24,0,0,1,.51-2.52,7,7,0,0,1,1.42-2.06,6.75,6.75,0,0,1,2.06-1.41,6.16,6.16,0,0,1,2.49-.51,6.24,6.24,0,0,1,3.26.87,6.53,6.53,0,0,1,2.34,2.33,6.71,6.71,0,0,1,.31,6A6.5,6.5,0,0,1,290,33.08,6.17,6.17,0,0,1,287.7,33.52Zm-.05-3.77a2.85,2.85,0,0,0,1.23-.3A2.56,2.56,0,0,0,290.36,27a2.77,2.77,0,0,0-.35-1.4,2.58,2.58,0,0,0-1-.94,2.88,2.88,0,0,0-1.41-.33,2.62,2.62,0,0,0-1.34.34,2.85,2.85,0,0,0-1,1A2.68,2.68,0,0,0,285,27a2.71,2.71,0,0,0,.41,1.52,2.49,2.49,0,0,0,1,.9A2.9,2.9,0,0,0,287.65,29.75Z"/><path class="cls-2" d="M305.31,22.66a2.08,2.08,0,0,1-1.3.61,1.91,1.91,0,0,1-1.25-.74,1.88,1.88,0,0,1-.63-1.38,2.23,2.23,0,0,1,.88-1.37l3.73-3.3a1.75,1.75,0,0,1,1.28-.57,2,2,0,0,1,1.24.77,1.72,1.72,0,0,1,.61,1.34,2.21,2.21,0,0,1-.88,1.36Zm3.14,10.72A2,2,0,0,1,307,33a2.15,2.15,0,0,1-.41-1.48V17.73a2.05,2.05,0,0,1,.41-1.46,2.1,2.1,0,0,1,1.47-.41,2,2,0,0,1,1.46.42,2.19,2.19,0,0,1,.41,1.5V31.51a2,2,0,0,1-.41,1.46A2.08,2.08,0,0,1,308.45,33.38Z"/><path class="cls-2" d="M319,33.61a6.35,6.35,0,0,1-2.78-.55,5.2,5.2,0,0,1-1.9-1.49,7.45,7.45,0,0,1-1.18-2.1,10.87,10.87,0,0,1-.61-2.42,17.33,17.33,0,0,1-.18-2.44,15.92,15.92,0,0,1,.18-2.32,12.38,12.38,0,0,1,.59-2.4,7.27,7.27,0,0,1,1.16-2.14,5.54,5.54,0,0,1,1.9-1.54,6.21,6.21,0,0,1,2.78-.57,6,6,0,0,1,2.68.56,5.44,5.44,0,0,1,1.87,1.5,8.1,8.1,0,0,1,1.16,2.13,12,12,0,0,1,.61,2.43,18,18,0,0,1,.17,2.38,15.77,15.77,0,0,1-.19,2.43,12.44,12.44,0,0,1-.61,2.42,7.37,7.37,0,0,1-1.16,2.1,5.55,5.55,0,0,1-1.84,1.48A5.86,5.86,0,0,1,319,33.61Zm-.13-3.82a2.23,2.23,0,0,0,1.37-.39,2.74,2.74,0,0,0,.8-1,5,5,0,0,0,.41-1.29,10.69,10.69,0,0,0,.16-1.33c0-.42,0-.78,0-1.06v-.12a10.91,10.91,0,0,0-.31-2.83,3.86,3.86,0,0,0-.91-1.75,2,2,0,0,0-1.5-.6,2.13,2.13,0,0,0-1.56.59,3.59,3.59,0,0,0-.92,1.75,11.56,11.56,0,0,0-.3,2.86,10.77,10.77,0,0,0,.31,2.8,3.78,3.78,0,0,0,.93,1.75A2,2,0,0,0,318.85,29.79Z"/><text class="cls-4" transform="matrix(0.97, 0, 0, 1, 40.3, 40.27)">10</text><text class="cls-5" transform="matrix(0.97, 0, 0, 1, 40.3, 40.27)">10</text></g></g></svg>