<svg xmlns="http://www.w3.org/2000/svg" viewBox="0 0 399.98 120.04"><defs><style>.cls-1{fill:#23841a;}.cls-2{fill:#fff;}.cls-3,.cls-4{fill:none;stroke-width:5px;}.cls-3{stroke:#ff7300;stroke-linejoin:round;}.cls-4{stroke:#fff;}.cls-5{fill:#ff7300;}</style></defs><title>22t</title><g id="Layer_2" data-name="Layer 2"><g id="pestaña_identificativa" data-name="pestaña identificativa"><rect class="cls-1" width="399.98" height="120.04" rx="32.4"/><path class="cls-2" d="M131.56,35.23a8.58,8.58,0,0,1-2.33-.34,9.39,9.39,0,0,1-2.41-1,8.82,8.82,0,0,1-2.13-1.79,8.07,8.07,0,0,1-1.52-2.55,9.36,9.36,0,0,1-.56-3.32,8.59,8.59,0,0,1,.57-3.24,8.06,8.06,0,0,1,1.51-2.46,9,9,0,0,1,2.13-1.74,10.08,10.08,0,0,1,2.41-1,9.31,9.31,0,0,1,2.39-.34,7,7,0,0,1,2.22.31,8.15,8.15,0,0,1,1.54.62l.76.43a6.82,6.82,0,0,1,.85.65,1.21,1.21,0,0,1,.43.9,1.61,1.61,0,0,1-.12.6,2.24,2.24,0,0,1-.33.6,3.33,3.33,0,0,1-.78.83,1.24,1.24,0,0,1-.72.27,1.19,1.19,0,0,1-.58-.15c-.18-.1-.4-.24-.65-.4a5.71,5.71,0,0,0-.5-.32,4,4,0,0,0-.89-.34,5.38,5.38,0,0,0-1.38-.15,5.53,5.53,0,0,0-1.77.3,5,5,0,0,0-1.63.93,4.45,4.45,0,0,0-1.2,1.58,5.2,5.2,0,0,0-.46,2.27,5.25,5.25,0,0,0,.46,2.25,4.67,4.67,0,0,0,1.22,1.57,5.24,5.24,0,0,0,1.63.94,5.16,5.16,0,0,0,1.74.31,4.78,4.78,0,0,0,1.28-.15,4.9,4.9,0,0,0,.92-.36c.27-.14.49-.27.68-.38a6.32,6.32,0,0,1,.56-.33,1.26,1.26,0,0,1,.59-.15,1.15,1.15,0,0,1,.71.28,3.21,3.21,0,0,1,.74.87,2.6,2.6,0,0,1,.33.64,1.68,1.68,0,0,1,.11.61,1,1,0,0,1-.41.86,7.5,7.5,0,0,1-.86.62l-.75.43a6.86,6.86,0,0,1-1.53.63A8,8,0,0,1,131.56,35.23Z"/><path class="cls-2" d="M144.93,35a5.2,5.2,0,0,1-2.17-.45A5.35,5.35,0,0,1,141,33.3a5.64,5.64,0,0,1-1.16-1.92,6.91,6.91,0,0,1-.41-2.44V24.41a4.42,4.42,0,0,1,.09-.92,1.1,1.1,0,0,1,.49-.7,2.4,2.4,0,0,1,1.32-.28,2.45,2.45,0,0,1,1.31.28,1.12,1.12,0,0,1,.48.71,4.77,4.77,0,0,1,.08.94v4.5a2.89,2.89,0,0,0,.26,1.26,1.88,1.88,0,0,0,.78.82,2.87,2.87,0,0,0,2.45,0,2.1,2.1,0,0,0,.8-.82,2.57,2.57,0,0,0,.29-1.25V24.39a4.42,4.42,0,0,1,.09-.92,1.08,1.08,0,0,1,.49-.69,2.52,2.52,0,0,1,1.32-.26,2.27,2.27,0,0,1,1.31.28,1.12,1.12,0,0,1,.48.71,4.47,4.47,0,0,1,.08.91v8.8a4.19,4.19,0,0,1-.09.89,1,1,0,0,1-.49.66,2.5,2.5,0,0,1-1.3.25,2.92,2.92,0,0,1-1.05-.15,1.31,1.31,0,0,1-.55-.38,1.1,1.1,0,0,1-.21-.47,4.14,4.14,0,0,1,0-.45l.33-.28a2.1,2.1,0,0,1-.33.39,4.51,4.51,0,0,1-.66.58,4.6,4.6,0,0,1-1,.53A3.36,3.36,0,0,1,144.93,35Z"/><path class="cls-2" d="M155.93,35.05a2.5,2.5,0,0,1-1.31-.26,1.07,1.07,0,0,1-.47-.72,4.7,4.7,0,0,1-.09-.92V24.42a4.42,4.42,0,0,1,.09-.92,1,1,0,0,1,.49-.69,2.47,2.47,0,0,1,1.32-.26,2.52,2.52,0,0,1,1.27.24,1,1,0,0,1,.48.55,1.68,1.68,0,0,1,.1.54l-.3.14.27-.36a3.58,3.58,0,0,1,.59-.55,3.53,3.53,0,0,1,2.15-.68,4.66,4.66,0,0,1,.61,0,3.77,3.77,0,0,1,.7.14,3.32,3.32,0,0,1,.66.3,1.69,1.69,0,0,1,.49.47,1.2,1.2,0,0,1,.18.67,3,3,0,0,1-.47,1.74,1.42,1.42,0,0,1-1.2.71,2,2,0,0,1-.6-.06,1,1,0,0,1-.29-.15.93.93,0,0,0-.26-.15,1.72,1.72,0,0,0-.55-.06,2.34,2.34,0,0,0-.71.1,1.85,1.85,0,0,0-.63.31,1.45,1.45,0,0,0-.61,1.23V33.2a5.31,5.31,0,0,1-.08.91,1.07,1.07,0,0,1-.49.69A2.6,2.6,0,0,1,155.93,35.05Z"/><path class="cls-2" d="M171.13,35.16a2.21,2.21,0,0,1-1-.23,1.43,1.43,0,0,1-.67-.7l-4.49-9a2,2,0,0,1-.26-1.48,2,2,0,0,1,1.14-1.07,2.39,2.39,0,0,1,1.51-.31c.37.09.71.49,1,1.19l2.8,6.5,2.8-6.42c.3-.72.64-1.13,1-1.25a2.21,2.21,0,0,1,1.57.33c.68.31,1.06.68,1.13,1.11a2.32,2.32,0,0,1-.31,1.46l-4.48,8.92a1.48,1.48,0,0,1-.65.7A2.3,2.3,0,0,1,171.13,35.16Z"/><path class="cls-2" d="M189.93,35a2.41,2.41,0,0,1-1.37-.32.93.93,0,0,1-.43-.8l.25-.43a3,3,0,0,1-.57.62,4.27,4.27,0,0,1-1.11.64A4.2,4.2,0,0,1,185,35a5,5,0,0,1-2.18-.5A5.78,5.78,0,0,1,181,33.15a7,7,0,0,1-1.27-2,6,6,0,0,1-.48-2.38,5.82,5.82,0,0,1,.48-2.33,6.39,6.39,0,0,1,1.29-2,6.24,6.24,0,0,1,1.84-1.36,4.9,4.9,0,0,1,2.17-.5,4.35,4.35,0,0,1,1.58.26,4.26,4.26,0,0,1,1.08.62,3.43,3.43,0,0,1,.66.67l-.22-.35a1.05,1.05,0,0,1,.44-.91,2.39,2.39,0,0,1,1.38-.31,2.31,2.31,0,0,1,1.29.27,1.16,1.16,0,0,1,.48.73,4.87,4.87,0,0,1,.08.95v8.62a4.73,4.73,0,0,1-.09.93,1.09,1.09,0,0,1-.47.71A2.33,2.33,0,0,1,189.93,35Zm-4.37-3.72a2.21,2.21,0,0,0,1.2-.34,2.57,2.57,0,0,0,.85-.91,2.54,2.54,0,0,0,.33-1.28,2.46,2.46,0,0,0-.33-1.28,2.33,2.33,0,0,0-.87-.89,2.48,2.48,0,0,0-2.49,0,2.53,2.53,0,0,0-.9.91,2.47,2.47,0,0,0-.34,1.3,2.34,2.34,0,0,0,.34,1.24,2.56,2.56,0,0,0,.92.9A2.59,2.59,0,0,0,185.56,31.32Z"/><path class="cls-2" d="M198.81,35.27a8.72,8.72,0,0,1-3-.59,5,5,0,0,1-1.24-.67,1.28,1.28,0,0,1-.57-.89,1.25,1.25,0,0,1,0-.54,2.32,2.32,0,0,1,.22-.6,5,5,0,0,1,.44-.66.89.89,0,0,1,.44-.35,1,1,0,0,1,.59,0,3.24,3.24,0,0,1,.8.26l.82.4a8.47,8.47,0,0,0,.87.38,2.93,2.93,0,0,0,.93.16A2.32,2.32,0,0,0,200.2,32a.66.66,0,0,0,.38-.59.64.64,0,0,0-.16-.45,1.27,1.27,0,0,0-.45-.3c-.19-.08-.41-.16-.67-.24l-.81-.21c-.29-.07-.59-.15-.9-.25a9.05,9.05,0,0,1-1.19-.45,4.22,4.22,0,0,1-1.05-.71,3.3,3.3,0,0,1-.74-1.08,4,4,0,0,1-.27-1.56,3.59,3.59,0,0,1,.56-2,3.53,3.53,0,0,1,1.66-1.26,7.43,7.43,0,0,1,2.71-.44,8.85,8.85,0,0,1,.89.05,4.53,4.53,0,0,1,.89.18,6.74,6.74,0,0,1,.86.3,5.16,5.16,0,0,1,.85.42,1.14,1.14,0,0,1,.78.95,2.47,2.47,0,0,1-1,1.84,1,1,0,0,1-.63.14,4.36,4.36,0,0,1-.86-.34,9.53,9.53,0,0,0-1-.44,2.89,2.89,0,0,0-1-.2,2.18,2.18,0,0,0-.72.11,1.11,1.11,0,0,0-.45.3.69.69,0,0,0-.15.44.66.66,0,0,0,.19.51,1.27,1.27,0,0,0,.51.31,4.8,4.8,0,0,0,.75.23l.92.2a13.35,13.35,0,0,1,1.39.34,4.56,4.56,0,0,1,1.3.61,3,3,0,0,1,.95,1.08,3.76,3.76,0,0,1,.36,1.77,3.58,3.58,0,0,1-1.38,3A6.27,6.27,0,0,1,198.81,35.27Z"/><path class="cls-2" d="M214.79,20.78a2.53,2.53,0,0,1-1.35-.27,1.14,1.14,0,0,1-.49-.73,5.7,5.7,0,0,1-.08-1,5.64,5.64,0,0,1,.08-1,1.09,1.09,0,0,1,.5-.7,2.73,2.73,0,0,1,1.37-.26,2.43,2.43,0,0,1,1.32.27,1.14,1.14,0,0,1,.49.73,5,5,0,0,1,.09,1,4.73,4.73,0,0,1-.09.93,1.05,1.05,0,0,1-.49.71A2.54,2.54,0,0,1,214.79,20.78Zm0,14.3a2.45,2.45,0,0,1-1.32-.26,1,1,0,0,1-.48-.7,5.41,5.41,0,0,1-.07-.91V24.48a4.53,4.53,0,0,1,.09-.91,1.08,1.08,0,0,1,.49-.7,2.57,2.57,0,0,1,1.32-.26,2.34,2.34,0,0,1,1.29.27,1.17,1.17,0,0,1,.48.72,5.49,5.49,0,0,1,.08.94v8.69a4.56,4.56,0,0,1-.09.92,1,1,0,0,1-.48.68A2.47,2.47,0,0,1,214.78,35.08Z"/><path class="cls-2" d="M220.71,35.09a1.8,1.8,0,0,1-1.32-.54,1.84,1.84,0,0,1-.53-1.34,1.78,1.78,0,0,1,.14-.72,1.85,1.85,0,0,1,.41-.63l5.68-5.49h-3.8a4,4,0,0,1-.92-.1,1.18,1.18,0,0,1-.72-.49,2.24,2.24,0,0,1-.29-1.31,2.26,2.26,0,0,1,.29-1.31,1.16,1.16,0,0,1,.73-.48,5.31,5.31,0,0,1,.91-.08h7.82A1.8,1.8,0,0,1,231,24.44a2.19,2.19,0,0,1-.13.77,1.64,1.64,0,0,1-.39.58l-5.56,5.52h4.53a3.82,3.82,0,0,1,.92.1,1.05,1.05,0,0,1,.69.5,2.47,2.47,0,0,1,.26,1.32,2.38,2.38,0,0,1-.27,1.3,1.08,1.08,0,0,1-.7.48,5.49,5.49,0,0,1-.93.07Z"/><path class="cls-2" d="M238.48,34.87a5.21,5.21,0,0,1-2.16-.46,5.85,5.85,0,0,1-1.83-1.29,6.19,6.19,0,0,1-1.24-1.94,6.05,6.05,0,0,1-.46-2.36,6.14,6.14,0,0,1,.46-2.37,6.61,6.61,0,0,1,1.26-2,6.07,6.07,0,0,1,1.84-1.36,4.8,4.8,0,0,1,2.14-.5,4.35,4.35,0,0,1,2.11.49,4.42,4.42,0,0,1,1.54,1.35,6.07,6.07,0,0,1,.93,2,9.44,9.44,0,0,1,.34,2.34,8,8,0,0,1-.29,2.38,6.16,6.16,0,0,1-.92,1.93,4.59,4.59,0,0,1-1.54,1.33A4.7,4.7,0,0,1,238.48,34.87Zm.5-3.52a2.28,2.28,0,0,0,1.23-.34,2.38,2.38,0,0,0,.87-.91,2.52,2.52,0,0,0,.33-1.28,2.56,2.56,0,0,0-.32-1.26,2.68,2.68,0,0,0-.87-.9,2.29,2.29,0,0,0-1.23-.34,2.4,2.4,0,0,0-1.24.33,2.27,2.27,0,0,0-.89.9,2.5,2.5,0,0,0-.32,1.27,2.54,2.54,0,0,0,.33,1.28,2.61,2.61,0,0,0,.9.91A2.38,2.38,0,0,0,239,31.35Zm4.32,8.93A2.46,2.46,0,0,1,242,40a1.05,1.05,0,0,1-.5-.69,3.3,3.3,0,0,1-.06-.9V23.52a1.24,1.24,0,0,1,.37-.52,1.81,1.81,0,0,1,.64-.3,3.46,3.46,0,0,1,.89-.1,2.21,2.21,0,0,1,1.27.28,1,1,0,0,1,.48.68,5.21,5.21,0,0,1,.07.92v14a5,5,0,0,1-.08.89,1.07,1.07,0,0,1-.48.67A2.34,2.34,0,0,1,243.3,40.28Z"/><path class="cls-2" d="M253,35.08a5.2,5.2,0,0,1-2.17-.45,5.33,5.33,0,0,1-1.75-1.26,5.69,5.69,0,0,1-1.16-1.93,6.83,6.83,0,0,1-.42-2.44V24.48a4.52,4.52,0,0,1,.09-.93,1.11,1.11,0,0,1,.48-.7,2.47,2.47,0,0,1,1.33-.27,2.27,2.27,0,0,1,1.31.28,1.12,1.12,0,0,1,.48.71,5.49,5.49,0,0,1,.08.94V29a2.92,2.92,0,0,0,.26,1.26,1.75,1.75,0,0,0,.78.81,2.43,2.43,0,0,0,1.21.28,2.55,2.55,0,0,0,1.24-.29,2.08,2.08,0,0,0,.8-.81,2.59,2.59,0,0,0,.28-1.25V24.46a4.59,4.59,0,0,1,.09-.93,1,1,0,0,1,.48-.68,2.47,2.47,0,0,1,1.33-.27,2.45,2.45,0,0,1,1.31.28,1.12,1.12,0,0,1,.48.71,5.52,5.52,0,0,1,.08.92v8.8a4.1,4.1,0,0,1-.09.88,1,1,0,0,1-.49.67,2.54,2.54,0,0,1-1.3.24,2.92,2.92,0,0,1-1.05-.15,1.3,1.3,0,0,1-.55-.37,1,1,0,0,1-.21-.48,2.42,2.42,0,0,1,0-.45l.33-.27a3.06,3.06,0,0,1-.33.39,7.18,7.18,0,0,1-.66.57,4.43,4.43,0,0,1-1,.54A3.4,3.4,0,0,1,253,35.08Z"/><path class="cls-2" d="M264.12,20.81a2.48,2.48,0,0,1-1.35-.27,1.14,1.14,0,0,1-.49-.73,5.11,5.11,0,0,1,0-1.91,1.06,1.06,0,0,1,.5-.7,2.69,2.69,0,0,1,1.36-.26,2.37,2.37,0,0,1,1.33.28,1.08,1.08,0,0,1,.48.72,4.92,4.92,0,0,1,.09,1,4.73,4.73,0,0,1-.09.93,1.05,1.05,0,0,1-.49.71A2.48,2.48,0,0,1,264.12,20.81Zm0,14.3a2.49,2.49,0,0,1-1.33-.26,1,1,0,0,1-.47-.7,5.4,5.4,0,0,1-.08-.91V24.51a4.53,4.53,0,0,1,.09-.91,1,1,0,0,1,.48-.7,2.49,2.49,0,0,1,1.33-.26,2.34,2.34,0,0,1,1.29.27,1.19,1.19,0,0,1,.47.72,4.59,4.59,0,0,1,.09.93v8.7a4.63,4.63,0,0,1-.09.92,1,1,0,0,1-.47.68A2.52,2.52,0,0,1,264.11,35.11Z"/><path class="cls-2" d="M274.86,35.34a7.33,7.33,0,0,1-3-.57,5.86,5.86,0,0,1-2.06-1.52,6.57,6.57,0,0,1-1.2-2.08,6.91,6.91,0,0,1-.39-2.3,6.45,6.45,0,0,1,.85-3.33,6,6,0,0,1,2.36-2.28,7,7,0,0,1,3.46-.84,6.44,6.44,0,0,1,2.52.46,5.06,5.06,0,0,1,1.74,1.21,5.18,5.18,0,0,1,1,1.58,4.54,4.54,0,0,1,.34,1.63,2.82,2.82,0,0,1-.67,2.05,2.25,2.25,0,0,1-1.69.67h-5.95a1.75,1.75,0,0,0,.47,1.07,2.69,2.69,0,0,0,1,.7,3.5,3.5,0,0,0,1.33.26,8.11,8.11,0,0,0,1-.07,4.37,4.37,0,0,0,.78-.17c.22-.08.42-.15.59-.23l.49-.18a1.81,1.81,0,0,1,.42-.1,1,1,0,0,1,.68.21,2.09,2.09,0,0,1,.57.71,1.75,1.75,0,0,1,.24.53,2.07,2.07,0,0,1,.06.5,1.35,1.35,0,0,1-.61,1.09,4.83,4.83,0,0,1-1.73.73A11,11,0,0,1,274.86,35.34Zm-2.67-7.4h3.95a1,1,0,0,0,.57-.14.62.62,0,0,0,.2-.54,1.23,1.23,0,0,0-.27-.77,1.7,1.7,0,0,0-.74-.54,2.8,2.8,0,0,0-1.09-.19,3,3,0,0,0-1.35.3,2.47,2.47,0,0,0-.94.8A1.9,1.9,0,0,0,272.19,27.94Z"/><path class="cls-2" d="M284.46,35.13a2.41,2.41,0,0,1-1.32-.27,1.06,1.06,0,0,1-.47-.71,4.73,4.73,0,0,1-.09-.93V24.5a4.59,4.59,0,0,1,.09-.93,1,1,0,0,1,.48-.68,2.49,2.49,0,0,1,1.33-.26,2.63,2.63,0,0,1,1.26.23,1.1,1.1,0,0,1,.49.55,2.08,2.08,0,0,1,.1.54l-.3.15a2.48,2.48,0,0,1,.26-.36,3.2,3.2,0,0,1,.59-.55,3.71,3.71,0,0,1,.91-.49,3.62,3.62,0,0,1,1.24-.2c.18,0,.39,0,.61,0a4.62,4.62,0,0,1,.7.15,3.32,3.32,0,0,1,.66.3,1.69,1.69,0,0,1,.49.47,1.18,1.18,0,0,1,.19.67,3.06,3.06,0,0,1-.48,1.74,1.42,1.42,0,0,1-1.2.71,2.11,2.11,0,0,1-.6-.06,1.92,1.92,0,0,1-.29-.15.93.93,0,0,0-.26-.15,1.39,1.39,0,0,0-.55-.07,2.71,2.71,0,0,0-.71.1,2.17,2.17,0,0,0-.63.31,1.63,1.63,0,0,0-.45.53,1.51,1.51,0,0,0-.16.71v5.48a4.53,4.53,0,0,1-.09.91,1,1,0,0,1-.49.69A2.69,2.69,0,0,1,284.46,35.13Z"/><path class="cls-2" d="M299,35.11a4.93,4.93,0,0,1-2.18-.49A5.83,5.83,0,0,1,295,33.26a6.49,6.49,0,0,1-1.26-2,6.12,6.12,0,0,1-.46-2.41,6,6,0,0,1,.46-2.34,6.55,6.55,0,0,1,3.11-3.33,4.91,4.91,0,0,1,2.15-.5,4.33,4.33,0,0,1,2.11.49,4.37,4.37,0,0,1,1.53,1.34,6.31,6.31,0,0,1,.94,2,9.14,9.14,0,0,1,.34,2.35,9.28,9.28,0,0,1-.3,2.4,6.22,6.22,0,0,1-.92,2,4.67,4.67,0,0,1-1.55,1.39A4.41,4.41,0,0,1,299,35.11Zm.5-3.7a2.19,2.19,0,0,0,1.21-.34,2.56,2.56,0,0,0,.88-.91,2.51,2.51,0,0,0,.33-1.27,2.47,2.47,0,0,0-.32-1.27,2.68,2.68,0,0,0-.87-.9,2.48,2.48,0,0,0-2.49,0,2.24,2.24,0,0,0-.88.9,2.74,2.74,0,0,0,0,2.55,2.46,2.46,0,0,0,.9.91A2.35,2.35,0,0,0,299.51,31.41Zm4.35,3.73a2.28,2.28,0,0,1-1.27-.28,1.3,1.3,0,0,1-.53-.85V18.86a6.73,6.73,0,0,1,.06-.91,1,1,0,0,1,.44-.71,2.15,2.15,0,0,1,1.27-.28,2.4,2.4,0,0,1,1.33.27,1.12,1.12,0,0,1,.47.68,4,4,0,0,1,.1.93v14.4a4.53,4.53,0,0,1-.09.91,1.07,1.07,0,0,1-.47.71A2.29,2.29,0,0,1,303.86,35.14Z"/><path class="cls-2" d="M318.45,35.12a2.41,2.41,0,0,1-1.37-.32.9.9,0,0,1-.42-.8l.25-.43a2.82,2.82,0,0,1-.58.61,4.11,4.11,0,0,1-1.11.65,4.36,4.36,0,0,1-1.66.29,5,5,0,0,1-2.19-.5,6,6,0,0,1-1.84-1.39,7,7,0,0,1-1.27-2,6,6,0,0,1,0-4.72,6.72,6.72,0,0,1,1.29-2,6.07,6.07,0,0,1,1.84-1.36,4.8,4.8,0,0,1,2.17-.5,4.35,4.35,0,0,1,1.58.26,4.26,4.26,0,0,1,1.08.62,3,3,0,0,1,.67.67l-.23-.35a1.05,1.05,0,0,1,.44-.91,2.4,2.4,0,0,1,1.39-.31,2.34,2.34,0,0,1,1.29.27,1.19,1.19,0,0,1,.47.73,4.79,4.79,0,0,1,.09,1v8.62a4.73,4.73,0,0,1-.09.93,1,1,0,0,1-.47.71A2.52,2.52,0,0,1,318.45,35.12Zm-4.37-3.73a2.21,2.21,0,0,0,1.2-.33,2.51,2.51,0,0,0,.85-.92,2.48,2.48,0,0,0,.33-1.27,2.53,2.53,0,0,0-.33-1.29,2.45,2.45,0,0,0-3.36-.87,2.53,2.53,0,0,0-1.24,2.21,2.37,2.37,0,0,0,.34,1.23,2.48,2.48,0,0,0,.92.9A2.54,2.54,0,0,0,314.08,31.39Z"/><path class="cls-3" d="M131.56,35.23a8.58,8.58,0,0,1-2.33-.34,9.39,9.39,0,0,1-2.41-1,8.82,8.82,0,0,1-2.13-1.79,8.07,8.07,0,0,1-1.52-2.55,9.36,9.36,0,0,1-.56-3.32,8.59,8.59,0,0,1,.57-3.24,8.06,8.06,0,0,1,1.51-2.46,9,9,0,0,1,2.13-1.74,10.08,10.08,0,0,1,2.41-1,9.31,9.31,0,0,1,2.39-.34,7,7,0,0,1,2.22.31,8.15,8.15,0,0,1,1.54.62l.76.43a6.82,6.82,0,0,1,.85.65,1.21,1.21,0,0,1,.43.9,1.61,1.61,0,0,1-.12.6,2.24,2.24,0,0,1-.33.6,3.33,3.33,0,0,1-.78.83,1.24,1.24,0,0,1-.72.27,1.19,1.19,0,0,1-.58-.15c-.18-.1-.4-.24-.65-.4a5.71,5.71,0,0,0-.5-.32,4,4,0,0,0-.89-.34,5.38,5.38,0,0,0-1.38-.15,5.53,5.53,0,0,0-1.77.3,5,5,0,0,0-1.63.93,4.45,4.45,0,0,0-1.2,1.58,5.2,5.2,0,0,0-.46,2.27,5.25,5.25,0,0,0,.46,2.25,4.67,4.67,0,0,0,1.22,1.57,5.24,5.24,0,0,0,1.63.94,5.16,5.16,0,0,0,1.74.31,4.78,4.78,0,0,0,1.28-.15,4.9,4.9,0,0,0,.92-.36c.27-.14.49-.27.68-.38a6.32,6.32,0,0,1,.56-.33,1.26,1.26,0,0,1,.59-.15,1.15,1.15,0,0,1,.71.28,3.21,3.21,0,0,1,.74.87,2.6,2.6,0,0,1,.33.64,1.68,1.68,0,0,1,.11.61,1,1,0,0,1-.41.86,7.5,7.5,0,0,1-.86.62l-.75.43a6.86,6.86,0,0,1-1.53.63A8,8,0,0,1,131.56,35.23Z"/><path class="cls-3" d="M144.93,35a5.2,5.2,0,0,1-2.17-.45A5.35,5.35,0,0,1,141,33.3a5.64,5.64,0,0,1-1.16-1.92,6.91,6.91,0,0,1-.41-2.44V24.41a4.42,4.42,0,0,1,.09-.92,1.1,1.1,0,0,1,.49-.7,2.4,2.4,0,0,1,1.32-.28,2.45,2.45,0,0,1,1.31.28,1.12,1.12,0,0,1,.48.71,4.77,4.77,0,0,1,.08.94v4.5a2.89,2.89,0,0,0,.26,1.26,1.88,1.88,0,0,0,.78.82,2.87,2.87,0,0,0,2.45,0,2.1,2.1,0,0,0,.8-.82,2.57,2.57,0,0,0,.29-1.25V24.39a4.42,4.42,0,0,1,.09-.92,1.08,1.08,0,0,1,.49-.69,2.52,2.52,0,0,1,1.32-.26,2.27,2.27,0,0,1,1.31.28,1.12,1.12,0,0,1,.48.71,4.47,4.47,0,0,1,.08.91v8.8a4.19,4.19,0,0,1-.09.89,1,1,0,0,1-.49.66,2.5,2.5,0,0,1-1.3.25,2.92,2.92,0,0,1-1.05-.15,1.31,1.31,0,0,1-.55-.38,1.1,1.1,0,0,1-.21-.47,4.14,4.14,0,0,1,0-.45l.33-.28a2.1,2.1,0,0,1-.33.39,4.51,4.51,0,0,1-.66.58,4.6,4.6,0,0,1-1,.53A3.36,3.36,0,0,1,144.93,35Z"/><path class="cls-3" d="M155.93,35.05a2.5,2.5,0,0,1-1.31-.26,1.07,1.07,0,0,1-.47-.72,4.7,4.7,0,0,1-.09-.92V24.42a4.42,4.42,0,0,1,.09-.92,1,1,0,0,1,.49-.69,2.47,2.47,0,0,1,1.32-.26,2.52,2.52,0,0,1,1.27.24,1,1,0,0,1,.48.55,1.68,1.68,0,0,1,.1.54l-.3.14.27-.36a3.58,3.58,0,0,1,.59-.55,3.53,3.53,0,0,1,2.15-.68,4.66,4.66,0,0,1,.61,0,3.77,3.77,0,0,1,.7.14,3.32,3.32,0,0,1,.66.3,1.69,1.69,0,0,1,.49.47,1.2,1.2,0,0,1,.18.67,3,3,0,0,1-.47,1.74,1.42,1.42,0,0,1-1.2.71,2,2,0,0,1-.6-.06,1,1,0,0,1-.29-.15.93.93,0,0,0-.26-.15,1.72,1.72,0,0,0-.55-.06,2.34,2.34,0,0,0-.71.1,1.85,1.85,0,0,0-.63.31,1.45,1.45,0,0,0-.61,1.23V33.2a5.31,5.31,0,0,1-.08.91,1.07,1.07,0,0,1-.49.69A2.6,2.6,0,0,1,155.93,35.05Z"/><path class="cls-3" d="M171.13,35.16a2.21,2.21,0,0,1-1-.23,1.43,1.43,0,0,1-.67-.7l-4.49-9a2,2,0,0,1-.26-1.48,2,2,0,0,1,1.14-1.07,2.39,2.39,0,0,1,1.51-.31c.37.09.71.49,1,1.19l2.8,6.5,2.8-6.42c.3-.72.64-1.13,1-1.25a2.21,2.21,0,0,1,1.57.33c.68.31,1.06.68,1.13,1.11a2.32,2.32,0,0,1-.31,1.46l-4.48,8.92a1.48,1.48,0,0,1-.65.7A2.3,2.3,0,0,1,171.13,35.16Z"/><path class="cls-3" d="M189.93,35a2.41,2.41,0,0,1-1.37-.32.93.93,0,0,1-.43-.8l.25-.43a3,3,0,0,1-.57.62,4.27,4.27,0,0,1-1.11.64A4.2,4.2,0,0,1,185,35a5,5,0,0,1-2.18-.5A5.78,5.78,0,0,1,181,33.15a7,7,0,0,1-1.27-2,6,6,0,0,1-.48-2.38,5.82,5.82,0,0,1,.48-2.33,6.39,6.39,0,0,1,1.29-2,6.24,6.24,0,0,1,1.84-1.36,4.9,4.9,0,0,1,2.17-.5,4.35,4.35,0,0,1,1.58.26,4.26,4.26,0,0,1,1.08.62,3.43,3.43,0,0,1,.66.67l-.22-.35a1.05,1.05,0,0,1,.44-.91,2.39,2.39,0,0,1,1.38-.31,2.31,2.31,0,0,1,1.29.27,1.16,1.16,0,0,1,.48.73,4.87,4.87,0,0,1,.08.95v8.62a4.73,4.73,0,0,1-.09.93,1.09,1.09,0,0,1-.47.71A2.33,2.33,0,0,1,189.93,35Zm-4.37-3.72a2.21,2.21,0,0,0,1.2-.34,2.57,2.57,0,0,0,.85-.91,2.54,2.54,0,0,0,.33-1.28,2.46,2.46,0,0,0-.33-1.28,2.33,2.33,0,0,0-.87-.89,2.48,2.48,0,0,0-2.49,0,2.53,2.53,0,0,0-.9.91,2.47,2.47,0,0,0-.34,1.3,2.34,2.34,0,0,0,.34,1.24,2.56,2.56,0,0,0,.92.9A2.59,2.59,0,0,0,185.56,31.32Z"/><path class="cls-3" d="M198.81,35.27a8.72,8.72,0,0,1-3-.59,5,5,0,0,1-1.24-.67,1.28,1.28,0,0,1-.57-.89,1.25,1.25,0,0,1,0-.54,2.32,2.32,0,0,1,.22-.6,5,5,0,0,1,.44-.66.89.89,0,0,1,.44-.35,1,1,0,0,1,.59,0,3.24,3.24,0,0,1,.8.26l.82.4a8.47,8.47,0,0,0,.87.38,2.93,2.93,0,0,0,.93.16A2.32,2.32,0,0,0,200.2,32a.66.66,0,0,0,.38-.59.64.64,0,0,0-.16-.45,1.27,1.27,0,0,0-.45-.3c-.19-.08-.41-.16-.67-.24l-.81-.21c-.29-.07-.59-.15-.9-.25a9.05,9.05,0,0,1-1.19-.45,4.22,4.22,0,0,1-1.05-.71,3.3,3.3,0,0,1-.74-1.08,4,4,0,0,1-.27-1.56,3.59,3.59,0,0,1,.56-2,3.53,3.53,0,0,1,1.66-1.26,7.43,7.43,0,0,1,2.71-.44,8.85,8.85,0,0,1,.89.05,4.53,4.53,0,0,1,.89.18,6.74,6.74,0,0,1,.86.3,5.16,5.16,0,0,1,.85.42,1.14,1.14,0,0,1,.78.95,2.47,2.47,0,0,1-1,1.84,1,1,0,0,1-.63.14,4.36,4.36,0,0,1-.86-.34,9.53,9.53,0,0,0-1-.44,2.89,2.89,0,0,0-1-.2,2.18,2.18,0,0,0-.72.11,1.11,1.11,0,0,0-.45.3.69.69,0,0,0-.15.44.66.66,0,0,0,.19.51,1.27,1.27,0,0,0,.51.31,4.8,4.8,0,0,0,.75.23l.92.2a13.35,13.35,0,0,1,1.39.34,4.56,4.56,0,0,1,1.3.61,3,3,0,0,1,.95,1.08,3.76,3.76,0,0,1,.36,1.77,3.58,3.58,0,0,1-1.38,3A6.27,6.27,0,0,1,198.81,35.27Z"/><path class="cls-3" d="M214.79,20.78a2.53,2.53,0,0,1-1.35-.27,1.14,1.14,0,0,1-.49-.73,5.7,5.7,0,0,1-.08-1,5.64,5.64,0,0,1,.08-1,1.09,1.09,0,0,1,.5-.7,2.73,2.73,0,0,1,1.37-.26,2.43,2.43,0,0,1,1.32.27,1.14,1.14,0,0,1,.49.73,5,5,0,0,1,.09,1,4.73,4.73,0,0,1-.09.93,1.05,1.05,0,0,1-.49.71A2.54,2.54,0,0,1,214.79,20.78Zm0,14.3a2.45,2.45,0,0,1-1.32-.26,1,1,0,0,1-.48-.7,5.41,5.41,0,0,1-.07-.91V24.48a4.53,4.53,0,0,1,.09-.91,1.08,1.08,0,0,1,.49-.7,2.57,2.57,0,0,1,1.32-.26,2.34,2.34,0,0,1,1.29.27,1.17,1.17,0,0,1,.48.72,5.49,5.49,0,0,1,.08.94v8.69a4.56,4.56,0,0,1-.09.92,1,1,0,0,1-.48.68A2.47,2.47,0,0,1,214.78,35.08Z"/><path class="cls-3" d="M220.71,35.09a1.8,1.8,0,0,1-1.32-.54,1.84,1.84,0,0,1-.53-1.34,1.78,1.78,0,0,1,.14-.72,1.85,1.85,0,0,1,.41-.63l5.68-5.49h-3.8a4,4,0,0,1-.92-.1,1.18,1.18,0,0,1-.72-.49,2.24,2.24,0,0,1-.29-1.31,2.26,2.26,0,0,1,.29-1.31,1.16,1.16,0,0,1,.73-.48,5.31,5.31,0,0,1,.91-.08h7.82A1.8,1.8,0,0,1,231,24.44a2.19,2.19,0,0,1-.13.77,1.64,1.64,0,0,1-.39.58l-5.56,5.52h4.53a3.82,3.82,0,0,1,.92.1,1.05,1.05,0,0,1,.69.5,2.47,2.47,0,0,1,.26,1.32,2.38,2.38,0,0,1-.27,1.3,1.08,1.08,0,0,1-.7.48,5.49,5.49,0,0,1-.93.07Z"/><path class="cls-3" d="M238.48,34.87a5.21,5.21,0,0,1-2.16-.46,5.85,5.85,0,0,1-1.83-1.29,6.19,6.19,0,0,1-1.24-1.94,6.05,6.05,0,0,1-.46-2.36,6.14,6.14,0,0,1,.46-2.37,6.61,6.61,0,0,1,1.26-2,6.07,6.07,0,0,1,1.84-1.36,4.8,4.8,0,0,1,2.14-.5,4.35,4.35,0,0,1,2.11.49,4.42,4.42,0,0,1,1.54,1.35,6.07,6.07,0,0,1,.93,2,9.44,9.44,0,0,1,.34,2.34,8,8,0,0,1-.29,2.38,6.16,6.16,0,0,1-.92,1.93,4.59,4.59,0,0,1-1.54,1.33A4.7,4.7,0,0,1,238.48,34.87Zm.5-3.52a2.28,2.28,0,0,0,1.23-.34,2.38,2.38,0,0,0,.87-.91,2.52,2.52,0,0,0,.33-1.28,2.56,2.56,0,0,0-.32-1.26,2.68,2.68,0,0,0-.87-.9,2.29,2.29,0,0,0-1.23-.34,2.4,2.4,0,0,0-1.24.33,2.27,2.27,0,0,0-.89.9,2.5,2.5,0,0,0-.32,1.27,2.54,2.54,0,0,0,.33,1.28,2.61,2.61,0,0,0,.9.91A2.38,2.38,0,0,0,239,31.35Zm4.32,8.93A2.46,2.46,0,0,1,242,40a1.05,1.05,0,0,1-.5-.69,3.3,3.3,0,0,1-.06-.9V23.52a1.24,1.24,0,0,1,.37-.52,1.81,1.81,0,0,1,.64-.3,3.46,3.46,0,0,1,.89-.1,2.21,2.21,0,0,1,1.27.28,1,1,0,0,1,.48.68,5.21,5.21,0,0,1,.07.92v14a5,5,0,0,1-.08.89,1.07,1.07,0,0,1-.48.67A2.34,2.34,0,0,1,243.3,40.28Z"/><path class="cls-3" d="M253,35.08a5.2,5.2,0,0,1-2.17-.45,5.33,5.33,0,0,1-1.75-1.26,5.69,5.69,0,0,1-1.16-1.93,6.83,6.83,0,0,1-.42-2.44V24.48a4.52,4.52,0,0,1,.09-.93,1.11,1.11,0,0,1,.48-.7,2.47,2.47,0,0,1,1.33-.27,2.27,2.27,0,0,1,1.31.28,1.12,1.12,0,0,1,.48.71,5.49,5.49,0,0,1,.08.94V29a2.92,2.92,0,0,0,.26,1.26,1.75,1.75,0,0,0,.78.81,2.43,2.43,0,0,0,1.21.28,2.55,2.55,0,0,0,1.24-.29,2.08,2.08,0,0,0,.8-.81,2.59,2.59,0,0,0,.28-1.25V24.46a4.59,4.59,0,0,1,.09-.93,1,1,0,0,1,.48-.68,2.47,2.47,0,0,1,1.33-.27,2.45,2.45,0,0,1,1.31.28,1.12,1.12,0,0,1,.48.71,5.52,5.52,0,0,1,.08.92v8.8a4.1,4.1,0,0,1-.09.88,1,1,0,0,1-.49.67,2.54,2.54,0,0,1-1.3.24,2.92,2.92,0,0,1-1.05-.15,1.3,1.3,0,0,1-.55-.37,1,1,0,0,1-.21-.48,2.42,2.42,0,0,1,0-.45l.33-.27a3.06,3.06,0,0,1-.33.39,7.18,7.18,0,0,1-.66.57,4.43,4.43,0,0,1-1,.54A3.4,3.4,0,0,1,253,35.08Z"/><path class="cls-3" d="M264.12,20.81a2.48,2.48,0,0,1-1.35-.27,1.14,1.14,0,0,1-.49-.73,5.11,5.11,0,0,1,0-1.91,1.06,1.06,0,0,1,.5-.7,2.69,2.69,0,0,1,1.36-.26,2.37,2.37,0,0,1,1.33.28,1.08,1.08,0,0,1,.48.72,4.92,4.92,0,0,1,.09,1,4.73,4.73,0,0,1-.09.93,1.05,1.05,0,0,1-.49.71A2.48,2.48,0,0,1,264.12,20.81Zm0,14.3a2.49,2.49,0,0,1-1.33-.26,1,1,0,0,1-.47-.7,5.4,5.4,0,0,1-.08-.91V24.51a4.53,4.53,0,0,1,.09-.91,1,1,0,0,1,.48-.7,2.49,2.49,0,0,1,1.33-.26,2.34,2.34,0,0,1,1.29.27,1.19,1.19,0,0,1,.47.72,4.59,4.59,0,0,1,.09.93v8.7a4.63,4.63,0,0,1-.09.92,1,1,0,0,1-.47.68A2.52,2.52,0,0,1,264.11,35.11Z"/><path class="cls-3" d="M274.86,35.34a7.33,7.33,0,0,1-3-.57,5.86,5.86,0,0,1-2.06-1.52,6.57,6.57,0,0,1-1.2-2.08,6.91,6.91,0,0,1-.39-2.3,6.45,6.45,0,0,1,.85-3.33,6,6,0,0,1,2.36-2.28,7,7,0,0,1,3.46-.84,6.44,6.44,0,0,1,2.52.46,5.06,5.06,0,0,1,1.74,1.21,5.18,5.18,0,0,1,1,1.58,4.54,4.54,0,0,1,.34,1.63,2.82,2.82,0,0,1-.67,2.05,2.25,2.25,0,0,1-1.69.67h-5.95a1.75,1.75,0,0,0,.47,1.07,2.69,2.69,0,0,0,1,.7,3.5,3.5,0,0,0,1.33.26,8.11,8.11,0,0,0,1-.07,4.37,4.37,0,0,0,.78-.17c.22-.08.42-.15.59-.23l.49-.18a1.81,1.81,0,0,1,.42-.1,1,1,0,0,1,.68.21,2.09,2.09,0,0,1,.57.71,1.75,1.75,0,0,1,.24.53,2.07,2.07,0,0,1,.06.5,1.35,1.35,0,0,1-.61,1.09,4.83,4.83,0,0,1-1.73.73A11,11,0,0,1,274.86,35.34Zm-2.67-7.4h3.95a1,1,0,0,0,.57-.14.62.62,0,0,0,.2-.54,1.23,1.23,0,0,0-.27-.77,1.7,1.7,0,0,0-.74-.54,2.8,2.8,0,0,0-1.09-.19,3,3,0,0,0-1.35.3,2.47,2.47,0,0,0-.94.8A1.9,1.9,0,0,0,272.19,27.94Z"/><path class="cls-3" d="M284.46,35.13a2.41,2.41,0,0,1-1.32-.27,1.06,1.06,0,0,1-.47-.71,4.73,4.73,0,0,1-.09-.93V24.5a4.59,4.59,0,0,1,.09-.93,1,1,0,0,1,.48-.68,2.49,2.49,0,0,1,1.33-.26,2.63,2.63,0,0,1,1.26.23,1.1,1.1,0,0,1,.49.55,2.08,2.08,0,0,1,.1.54l-.3.15a2.48,2.48,0,0,1,.26-.36,3.2,3.2,0,0,1,.59-.55,3.71,3.71,0,0,1,.91-.49,3.62,3.62,0,0,1,1.24-.2c.18,0,.39,0,.61,0a4.62,4.62,0,0,1,.7.15,3.32,3.32,0,0,1,.66.3,1.69,1.69,0,0,1,.49.47,1.18,1.18,0,0,1,.19.67,3.06,3.06,0,0,1-.48,1.74,1.42,1.42,0,0,1-1.2.71,2.11,2.11,0,0,1-.6-.06,1.92,1.92,0,0,1-.29-.15.93.93,0,0,0-.26-.15,1.39,1.39,0,0,0-.55-.07,2.71,2.71,0,0,0-.71.1,2.17,2.17,0,0,0-.63.31,1.63,1.63,0,0,0-.45.53,1.51,1.51,0,0,0-.16.71v5.48a4.53,4.53,0,0,1-.09.91,1,1,0,0,1-.49.69A2.69,2.69,0,0,1,284.46,35.13Z"/><path class="cls-3" d="M299,35.11a4.93,4.93,0,0,1-2.18-.49A5.83,5.83,0,0,1,295,33.26a6.49,6.49,0,0,1-1.26-2,6.12,6.12,0,0,1-.46-2.41,6,6,0,0,1,.46-2.34,6.55,6.55,0,0,1,3.11-3.33,4.91,4.91,0,0,1,2.15-.5,4.33,4.33,0,0,1,2.11.49,4.37,4.37,0,0,1,1.53,1.34,6.31,6.31,0,0,1,.94,2,9.14,9.14,0,0,1,.34,2.35,9.28,9.28,0,0,1-.3,2.4,6.22,6.22,0,0,1-.92,2,4.67,4.67,0,0,1-1.55,1.39A4.41,4.41,0,0,1,299,35.11Zm.5-3.7a2.19,2.19,0,0,0,1.21-.34,2.56,2.56,0,0,0,.88-.91,2.51,2.51,0,0,0,.33-1.27,2.47,2.47,0,0,0-.32-1.27,2.68,2.68,0,0,0-.87-.9,2.48,2.48,0,0,0-2.49,0,2.24,2.24,0,0,0-.88.9,2.74,2.74,0,0,0,0,2.55,2.46,2.46,0,0,0,.9.91A2.35,2.35,0,0,0,299.51,31.41Zm4.35,3.73a2.28,2.28,0,0,1-1.27-.28,1.3,1.3,0,0,1-.53-.85V18.86a6.73,6.73,0,0,1,.06-.91,1,1,0,0,1,.44-.71,2.15,2.15,0,0,1,1.27-.28,2.4,2.4,0,0,1,1.33.27,1.12,1.12,0,0,1,.47.68,4,4,0,0,1,.1.93v14.4a4.53,4.53,0,0,1-.09.91,1.07,1.07,0,0,1-.47.71A2.29,2.29,0,0,1,303.86,35.14Z"/><path class="cls-3" d="M318.45,35.12a2.41,2.41,0,0,1-1.37-.32.9.9,0,0,1-.42-.8l.25-.43a2.82,2.82,0,0,1-.58.61,4.11,4.11,0,0,1-1.11.65,4.36,4.36,0,0,1-1.66.29,5,5,0,0,1-2.19-.5,6,6,0,0,1-1.84-1.39,7,7,0,0,1-1.27-2,6,6,0,0,1,0-4.72,6.72,6.72,0,0,1,1.29-2,6.07,6.07,0,0,1,1.84-1.36,4.8,4.8,0,0,1,2.17-.5,4.35,4.35,0,0,1,1.58.26,4.26,4.26,0,0,1,1.08.62,3,3,0,0,1,.67.67l-.23-.35a1.05,1.05,0,0,1,.44-.91,2.4,2.4,0,0,1,1.39-.31,2.34,2.34,0,0,1,1.29.27,1.19,1.19,0,0,1,.47.73,4.79,4.79,0,0,1,.09,1v8.62a4.73,4.73,0,0,1-.09.93,1,1,0,0,1-.47.71A2.52,2.52,0,0,1,318.45,35.12Zm-4.37-3.73a2.21,2.21,0,0,0,1.2-.33,2.51,2.51,0,0,0,.85-.92,2.48,2.48,0,0,0,.33-1.27,2.53,2.53,0,0,0-.33-1.29,2.45,2.45,0,0,0-3.36-.87,2.53,2.53,0,0,0-1.24,2.21,2.37,2.37,0,0,0,.34,1.23,2.48,2.48,0,0,0,.92.9A2.54,2.54,0,0,0,314.08,31.39Z"/><path class="cls-2" d="M131.56,35.23a8.58,8.58,0,0,1-2.33-.34,9.39,9.39,0,0,1-2.41-1,8.82,8.82,0,0,1-2.13-1.79,8.07,8.07,0,0,1-1.52-2.55,9.36,9.36,0,0,1-.56-3.32,8.59,8.59,0,0,1,.57-3.24,8.06,8.06,0,0,1,1.51-2.46,9,9,0,0,1,2.13-1.74,10.08,10.08,0,0,1,2.41-1,9.31,9.31,0,0,1,2.39-.34,7,7,0,0,1,2.22.31,8.15,8.15,0,0,1,1.54.62l.76.43a6.82,6.82,0,0,1,.85.65,1.21,1.21,0,0,1,.43.9,1.61,1.61,0,0,1-.12.6,2.24,2.24,0,0,1-.33.6,3.33,3.33,0,0,1-.78.83,1.24,1.24,0,0,1-.72.27,1.19,1.19,0,0,1-.58-.15c-.18-.1-.4-.24-.65-.4a5.71,5.71,0,0,0-.5-.32,4,4,0,0,0-.89-.34,5.38,5.38,0,0,0-1.38-.15,5.53,5.53,0,0,0-1.77.3,5,5,0,0,0-1.63.93,4.45,4.45,0,0,0-1.2,1.58,5.2,5.2,0,0,0-.46,2.27,5.25,5.25,0,0,0,.46,2.25,4.67,4.67,0,0,0,1.22,1.57,5.24,5.24,0,0,0,1.63.94,5.16,5.16,0,0,0,1.74.31,4.78,4.78,0,0,0,1.28-.15,4.9,4.9,0,0,0,.92-.36c.27-.14.49-.27.68-.38a6.32,6.32,0,0,1,.56-.33,1.26,1.26,0,0,1,.59-.15,1.15,1.15,0,0,1,.71.28,3.21,3.21,0,0,1,.74.87,2.6,2.6,0,0,1,.33.64,1.68,1.68,0,0,1,.11.61,1,1,0,0,1-.41.86,7.5,7.5,0,0,1-.86.62l-.75.43a6.86,6.86,0,0,1-1.53.63A8,8,0,0,1,131.56,35.23Z"/><path class="cls-2" d="M144.93,35a5.2,5.2,0,0,1-2.17-.45A5.35,5.35,0,0,1,141,33.3a5.64,5.64,0,0,1-1.16-1.92,6.91,6.91,0,0,1-.41-2.44V24.41a4.42,4.42,0,0,1,.09-.92,1.1,1.1,0,0,1,.49-.7,2.4,2.4,0,0,1,1.32-.28,2.45,2.45,0,0,1,1.31.28,1.12,1.12,0,0,1,.48.71,4.77,4.77,0,0,1,.08.94v4.5a2.89,2.89,0,0,0,.26,1.26,1.88,1.88,0,0,0,.78.82,2.87,2.87,0,0,0,2.45,0,2.1,2.1,0,0,0,.8-.82,2.57,2.57,0,0,0,.29-1.25V24.39a4.42,4.42,0,0,1,.09-.92,1.08,1.08,0,0,1,.49-.69,2.52,2.52,0,0,1,1.32-.26,2.27,2.27,0,0,1,1.31.28,1.12,1.12,0,0,1,.48.71,4.47,4.47,0,0,1,.08.91v8.8a4.19,4.19,0,0,1-.09.89,1,1,0,0,1-.49.66,2.5,2.5,0,0,1-1.3.25,2.92,2.92,0,0,1-1.05-.15,1.31,1.31,0,0,1-.55-.38,1.1,1.1,0,0,1-.21-.47,4.14,4.14,0,0,1,0-.45l.33-.28a2.1,2.1,0,0,1-.33.39,4.51,4.51,0,0,1-.66.58,4.6,4.6,0,0,1-1,.53A3.36,3.36,0,0,1,144.93,35Z"/><path class="cls-2" d="M155.93,35.05a2.5,2.5,0,0,1-1.31-.26,1.07,1.07,0,0,1-.47-.72,4.7,4.7,0,0,1-.09-.92V24.42a4.42,4.42,0,0,1,.09-.92,1,1,0,0,1,.49-.69,2.47,2.47,0,0,1,1.32-.26,2.52,2.52,0,0,1,1.27.24,1,1,0,0,1,.48.55,1.68,1.68,0,0,1,.1.54l-.3.14.27-.36a3.58,3.58,0,0,1,.59-.55,3.53,3.53,0,0,1,2.15-.68,4.66,4.66,0,0,1,.61,0,3.77,3.77,0,0,1,.7.14,3.32,3.32,0,0,1,.66.3,1.69,1.69,0,0,1,.49.47,1.2,1.2,0,0,1,.18.67,3,3,0,0,1-.47,1.74,1.42,1.42,0,0,1-1.2.71,2,2,0,0,1-.6-.06,1,1,0,0,1-.29-.15.93.93,0,0,0-.26-.15,1.72,1.72,0,0,0-.55-.06,2.34,2.34,0,0,0-.71.1,1.85,1.85,0,0,0-.63.31,1.45,1.45,0,0,0-.61,1.23V33.2a5.31,5.31,0,0,1-.08.91,1.07,1.07,0,0,1-.49.69A2.6,2.6,0,0,1,155.93,35.05Z"/><path class="cls-2" d="M171.13,35.16a2.21,2.21,0,0,1-1-.23,1.43,1.43,0,0,1-.67-.7l-4.49-9a2,2,0,0,1-.26-1.48,2,2,0,0,1,1.14-1.07,2.39,2.39,0,0,1,1.51-.31c.37.09.71.49,1,1.19l2.8,6.5,2.8-6.42c.3-.72.64-1.13,1-1.25a2.21,2.21,0,0,1,1.57.33c.68.31,1.06.68,1.13,1.11a2.32,2.32,0,0,1-.31,1.46l-4.48,8.92a1.48,1.48,0,0,1-.65.7A2.3,2.3,0,0,1,171.13,35.16Z"/><path class="cls-2" d="M189.93,35a2.41,2.41,0,0,1-1.37-.32.93.93,0,0,1-.43-.8l.25-.43a3,3,0,0,1-.57.62,4.27,4.27,0,0,1-1.11.64A4.2,4.2,0,0,1,185,35a5,5,0,0,1-2.18-.5A5.78,5.78,0,0,1,181,33.15a7,7,0,0,1-1.27-2,6,6,0,0,1-.48-2.38,5.82,5.82,0,0,1,.48-2.33,6.39,6.39,0,0,1,1.29-2,6.24,6.24,0,0,1,1.84-1.36,4.9,4.9,0,0,1,2.17-.5,4.35,4.35,0,0,1,1.58.26,4.26,4.26,0,0,1,1.08.62,3.43,3.43,0,0,1,.66.67l-.22-.35a1.05,1.05,0,0,1,.44-.91,2.39,2.39,0,0,1,1.38-.31,2.31,2.31,0,0,1,1.29.27,1.16,1.16,0,0,1,.48.73,4.87,4.87,0,0,1,.08.95v8.62a4.73,4.73,0,0,1-.09.93,1.09,1.09,0,0,1-.47.71A2.33,2.33,0,0,1,189.93,35Zm-4.37-3.72a2.21,2.21,0,0,0,1.2-.34,2.57,2.57,0,0,0,.85-.91,2.54,2.54,0,0,0,.33-1.28,2.46,2.46,0,0,0-.33-1.28,2.33,2.33,0,0,0-.87-.89,2.48,2.48,0,0,0-2.49,0,2.53,2.53,0,0,0-.9.91,2.47,2.47,0,0,0-.34,1.3,2.34,2.34,0,0,0,.34,1.24,2.56,2.56,0,0,0,.92.9A2.59,2.59,0,0,0,185.56,31.32Z"/><path class="cls-2" d="M198.81,35.27a8.72,8.72,0,0,1-3-.59,5,5,0,0,1-1.24-.67,1.28,1.28,0,0,1-.57-.89,1.25,1.25,0,0,1,0-.54,2.32,2.32,0,0,1,.22-.6,5,5,0,0,1,.44-.66.89.89,0,0,1,.44-.35,1,1,0,0,1,.59,0,3.24,3.24,0,0,1,.8.26l.82.4a8.47,8.47,0,0,0,.87.38,2.93,2.93,0,0,0,.93.16A2.32,2.32,0,0,0,200.2,32a.66.66,0,0,0,.38-.59.64.64,0,0,0-.16-.45,1.27,1.27,0,0,0-.45-.3c-.19-.08-.41-.16-.67-.24l-.81-.21c-.29-.07-.59-.15-.9-.25a9.05,9.05,0,0,1-1.19-.45,4.22,4.22,0,0,1-1.05-.71,3.3,3.3,0,0,1-.74-1.08,4,4,0,0,1-.27-1.56,3.59,3.59,0,0,1,.56-2,3.53,3.53,0,0,1,1.66-1.26,7.43,7.43,0,0,1,2.71-.44,8.85,8.85,0,0,1,.89.05,4.53,4.53,0,0,1,.89.18,6.74,6.74,0,0,1,.86.3,5.16,5.16,0,0,1,.85.42,1.14,1.14,0,0,1,.78.95,2.47,2.47,0,0,1-1,1.84,1,1,0,0,1-.63.14,4.36,4.36,0,0,1-.86-.34,9.53,9.53,0,0,0-1-.44,2.89,2.89,0,0,0-1-.2,2.18,2.18,0,0,0-.72.11,1.11,1.11,0,0,0-.45.3.69.69,0,0,0-.15.44.66.66,0,0,0,.19.51,1.27,1.27,0,0,0,.51.31,4.8,4.8,0,0,0,.75.23l.92.2a13.35,13.35,0,0,1,1.39.34,4.56,4.56,0,0,1,1.3.61,3,3,0,0,1,.95,1.08,3.76,3.76,0,0,1,.36,1.77,3.58,3.58,0,0,1-1.38,3A6.27,6.27,0,0,1,198.81,35.27Z"/><path class="cls-2" d="M214.79,20.78a2.53,2.53,0,0,1-1.35-.27,1.14,1.14,0,0,1-.49-.73,5.7,5.7,0,0,1-.08-1,5.64,5.64,0,0,1,.08-1,1.09,1.09,0,0,1,.5-.7,2.73,2.73,0,0,1,1.37-.26,2.43,2.43,0,0,1,1.32.27,1.14,1.14,0,0,1,.49.73,5,5,0,0,1,.09,1,4.73,4.73,0,0,1-.09.93,1.05,1.05,0,0,1-.49.71A2.54,2.54,0,0,1,214.79,20.78Zm0,14.3a2.45,2.45,0,0,1-1.32-.26,1,1,0,0,1-.48-.7,5.41,5.41,0,0,1-.07-.91V24.48a4.53,4.53,0,0,1,.09-.91,1.08,1.08,0,0,1,.49-.7,2.57,2.57,0,0,1,1.32-.26,2.34,2.34,0,0,1,1.29.27,1.17,1.17,0,0,1,.48.72,5.49,5.49,0,0,1,.08.94v8.69a4.56,4.56,0,0,1-.09.92,1,1,0,0,1-.48.68A2.47,2.47,0,0,1,214.78,35.08Z"/><path class="cls-2" d="M220.71,35.09a1.8,1.8,0,0,1-1.32-.54,1.84,1.84,0,0,1-.53-1.34,1.78,1.78,0,0,1,.14-.72,1.85,1.85,0,0,1,.41-.63l5.68-5.49h-3.8a4,4,0,0,1-.92-.1,1.18,1.18,0,0,1-.72-.49,2.24,2.24,0,0,1-.29-1.31,2.26,2.26,0,0,1,.29-1.31,1.16,1.16,0,0,1,.73-.48,5.31,5.31,0,0,1,.91-.08h7.82A1.8,1.8,0,0,1,231,24.44a2.19,2.19,0,0,1-.13.77,1.64,1.64,0,0,1-.39.58l-5.56,5.52h4.53a3.82,3.82,0,0,1,.92.1,1.05,1.05,0,0,1,.69.5,2.47,2.47,0,0,1,.26,1.32,2.38,2.38,0,0,1-.27,1.3,1.08,1.08,0,0,1-.7.48,5.49,5.49,0,0,1-.93.07Z"/><path class="cls-2" d="M238.48,34.87a5.21,5.21,0,0,1-2.16-.46,5.85,5.85,0,0,1-1.83-1.29,6.19,6.19,0,0,1-1.24-1.94,6.05,6.05,0,0,1-.46-2.36,6.14,6.14,0,0,1,.46-2.37,6.61,6.61,0,0,1,1.26-2,6.07,6.07,0,0,1,1.84-1.36,4.8,4.8,0,0,1,2.14-.5,4.35,4.35,0,0,1,2.11.49,4.42,4.42,0,0,1,1.54,1.35,6.07,6.07,0,0,1,.93,2,9.44,9.44,0,0,1,.34,2.34,8,8,0,0,1-.29,2.38,6.16,6.16,0,0,1-.92,1.93,4.59,4.59,0,0,1-1.54,1.33A4.7,4.7,0,0,1,238.48,34.87Zm.5-3.52a2.28,2.28,0,0,0,1.23-.34,2.38,2.38,0,0,0,.87-.91,2.52,2.52,0,0,0,.33-1.28,2.56,2.56,0,0,0-.32-1.26,2.68,2.68,0,0,0-.87-.9,2.29,2.29,0,0,0-1.23-.34,2.4,2.4,0,0,0-1.24.33,2.27,2.27,0,0,0-.89.9,2.5,2.5,0,0,0-.32,1.27,2.54,2.54,0,0,0,.33,1.28,2.61,2.61,0,0,0,.9.91A2.38,2.38,0,0,0,239,31.35Zm4.32,8.93A2.46,2.46,0,0,1,242,40a1.05,1.05,0,0,1-.5-.69,3.3,3.3,0,0,1-.06-.9V23.52a1.24,1.24,0,0,1,.37-.52,1.81,1.81,0,0,1,.64-.3,3.46,3.46,0,0,1,.89-.1,2.21,2.21,0,0,1,1.27.28,1,1,0,0,1,.48.68,5.21,5.21,0,0,1,.07.92v14a5,5,0,0,1-.08.89,1.07,1.07,0,0,1-.48.67A2.34,2.34,0,0,1,243.3,40.28Z"/><path class="cls-2" d="M253,35.08a5.2,5.2,0,0,1-2.17-.45,5.33,5.33,0,0,1-1.75-1.26,5.69,5.69,0,0,1-1.16-1.93,6.83,6.83,0,0,1-.42-2.44V24.48a4.52,4.52,0,0,1,.09-.93,1.11,1.11,0,0,1,.48-.7,2.47,2.47,0,0,1,1.33-.27,2.27,2.27,0,0,1,1.31.28,1.12,1.12,0,0,1,.48.71,5.49,5.49,0,0,1,.08.94V29a2.92,2.92,0,0,0,.26,1.26,1.75,1.75,0,0,0,.78.81,2.43,2.43,0,0,0,1.21.28,2.55,2.55,0,0,0,1.24-.29,2.08,2.08,0,0,0,.8-.81,2.59,2.59,0,0,0,.28-1.25V24.46a4.59,4.59,0,0,1,.09-.93,1,1,0,0,1,.48-.68,2.47,2.47,0,0,1,1.33-.27,2.45,2.45,0,0,1,1.31.28,1.12,1.12,0,0,1,.48.71,5.52,5.52,0,0,1,.08.92v8.8a4.1,4.1,0,0,1-.09.88,1,1,0,0,1-.49.67,2.54,2.54,0,0,1-1.3.24,2.92,2.92,0,0,1-1.05-.15,1.3,1.3,0,0,1-.55-.37,1,1,0,0,1-.21-.48,2.42,2.42,0,0,1,0-.45l.33-.27a3.06,3.06,0,0,1-.33.39,7.18,7.18,0,0,1-.66.57,4.43,4.43,0,0,1-1,.54A3.4,3.4,0,0,1,253,35.08Z"/><path class="cls-2" d="M264.12,20.81a2.48,2.48,0,0,1-1.35-.27,1.14,1.14,0,0,1-.49-.73,5.11,5.11,0,0,1,0-1.91,1.06,1.06,0,0,1,.5-.7,2.69,2.69,0,0,1,1.36-.26,2.37,2.37,0,0,1,1.33.28,1.08,1.08,0,0,1,.48.72,4.92,4.92,0,0,1,.09,1,4.73,4.73,0,0,1-.09.93,1.05,1.05,0,0,1-.49.71A2.48,2.48,0,0,1,264.12,20.81Zm0,14.3a2.49,2.49,0,0,1-1.33-.26,1,1,0,0,1-.47-.7,5.4,5.4,0,0,1-.08-.91V24.51a4.53,4.53,0,0,1,.09-.91,1,1,0,0,1,.48-.7,2.49,2.49,0,0,1,1.33-.26,2.34,2.34,0,0,1,1.29.27,1.19,1.19,0,0,1,.47.72,4.59,4.59,0,0,1,.09.93v8.7a4.63,4.63,0,0,1-.09.92,1,1,0,0,1-.47.68A2.52,2.52,0,0,1,264.11,35.11Z"/><path class="cls-2" d="M274.86,35.34a7.33,7.33,0,0,1-3-.57,5.86,5.86,0,0,1-2.06-1.52,6.57,6.57,0,0,1-1.2-2.08,6.91,6.91,0,0,1-.39-2.3,6.45,6.45,0,0,1,.85-3.33,6,6,0,0,1,2.36-2.28,7,7,0,0,1,3.46-.84,6.44,6.44,0,0,1,2.52.46,5.06,5.06,0,0,1,1.74,1.21,5.18,5.18,0,0,1,1,1.58,4.54,4.54,0,0,1,.34,1.63,2.82,2.82,0,0,1-.67,2.05,2.25,2.25,0,0,1-1.69.67h-5.95a1.75,1.75,0,0,0,.47,1.07,2.69,2.69,0,0,0,1,.7,3.5,3.5,0,0,0,1.33.26,8.11,8.11,0,0,0,1-.07,4.37,4.37,0,0,0,.78-.17c.22-.08.42-.15.59-.23l.49-.18a1.81,1.81,0,0,1,.42-.1,1,1,0,0,1,.68.21,2.09,2.09,0,0,1,.57.71,1.75,1.75,0,0,1,.24.53,2.07,2.07,0,0,1,.06.5,1.35,1.35,0,0,1-.61,1.09,4.83,4.83,0,0,1-1.73.73A11,11,0,0,1,274.86,35.34Zm-2.67-7.4h3.95a1,1,0,0,0,.57-.14.62.62,0,0,0,.2-.54,1.23,1.23,0,0,0-.27-.77,1.7,1.7,0,0,0-.74-.54,2.8,2.8,0,0,0-1.09-.19,3,3,0,0,0-1.35.3,2.47,2.47,0,0,0-.94.8A1.9,1.9,0,0,0,272.19,27.94Z"/><path class="cls-2" d="M284.46,35.13a2.41,2.41,0,0,1-1.32-.27,1.06,1.06,0,0,1-.47-.71,4.73,4.73,0,0,1-.09-.93V24.5a4.59,4.59,0,0,1,.09-.93,1,1,0,0,1,.48-.68,2.49,2.49,0,0,1,1.33-.26,2.63,2.63,0,0,1,1.26.23,1.1,1.1,0,0,1,.49.55,2.08,2.08,0,0,1,.1.54l-.3.15a2.48,2.48,0,0,1,.26-.36,3.2,3.2,0,0,1,.59-.55,3.71,3.71,0,0,1,.91-.49,3.62,3.62,0,0,1,1.24-.2c.18,0,.39,0,.61,0a4.62,4.62,0,0,1,.7.15,3.32,3.32,0,0,1,.66.3,1.69,1.69,0,0,1,.49.47,1.18,1.18,0,0,1,.19.67,3.06,3.06,0,0,1-.48,1.74,1.42,1.42,0,0,1-1.2.71,2.11,2.11,0,0,1-.6-.06,1.92,1.92,0,0,1-.29-.15.93.93,0,0,0-.26-.15,1.39,1.39,0,0,0-.55-.07,2.71,2.71,0,0,0-.71.1,2.17,2.17,0,0,0-.63.31,1.63,1.63,0,0,0-.45.53,1.51,1.51,0,0,0-.16.71v5.48a4.53,4.53,0,0,1-.09.91,1,1,0,0,1-.49.69A2.69,2.69,0,0,1,284.46,35.13Z"/><path class="cls-2" d="M299,35.11a4.93,4.93,0,0,1-2.18-.49A5.83,5.83,0,0,1,295,33.26a6.49,6.49,0,0,1-1.26-2,6.12,6.12,0,0,1-.46-2.41,6,6,0,0,1,.46-2.34,6.55,6.55,0,0,1,3.11-3.33,4.91,4.91,0,0,1,2.15-.5,4.33,4.33,0,0,1,2.11.49,4.37,4.37,0,0,1,1.53,1.34,6.31,6.31,0,0,1,.94,2,9.14,9.14,0,0,1,.34,2.35,9.28,9.28,0,0,1-.3,2.4,6.22,6.22,0,0,1-.92,2,4.67,4.67,0,0,1-1.55,1.39A4.41,4.41,0,0,1,299,35.11Zm.5-3.7a2.19,2.19,0,0,0,1.21-.34,2.56,2.56,0,0,0,.88-.91,2.51,2.51,0,0,0,.33-1.27,2.47,2.47,0,0,0-.32-1.27,2.68,2.68,0,0,0-.87-.9,2.48,2.48,0,0,0-2.49,0,2.24,2.24,0,0,0-.88.9,2.74,2.74,0,0,0,0,2.55,2.46,2.46,0,0,0,.9.91A2.35,2.35,0,0,0,299.51,31.41Zm4.35,3.73a2.28,2.28,0,0,1-1.27-.28,1.3,1.3,0,0,1-.53-.85V18.86a6.73,6.73,0,0,1,.06-.91,1,1,0,0,1,.44-.71,2.15,2.15,0,0,1,1.27-.28,2.4,2.4,0,0,1,1.33.27,1.12,1.12,0,0,1,.47.68,4,4,0,0,1,.1.93v14.4a4.53,4.53,0,0,1-.09.91,1.07,1.07,0,0,1-.47.71A2.29,2.29,0,0,1,303.86,35.14Z"/><path class="cls-2" d="M318.45,35.12a2.41,2.41,0,0,1-1.37-.32.9.9,0,0,1-.42-.8l.25-.43a2.82,2.82,0,0,1-.58.61,4.11,4.11,0,0,1-1.11.65,4.36,4.36,0,0,1-1.66.29,5,5,0,0,1-2.19-.5,6,6,0,0,1-1.84-1.39,7,7,0,0,1-1.27-2,6,6,0,0,1,0-4.72,6.72,6.72,0,0,1,1.29-2,6.07,6.07,0,0,1,1.84-1.36,4.8,4.8,0,0,1,2.17-.5,4.35,4.35,0,0,1,1.58.26,4.26,4.26,0,0,1,1.08.62,3,3,0,0,1,.67.67l-.23-.35a1.05,1.05,0,0,1,.44-.91,2.4,2.4,0,0,1,1.39-.31,2.34,2.34,0,0,1,1.29.27,1.19,1.19,0,0,1,.47.73,4.79,4.79,0,0,1,.09,1v8.62a4.73,4.73,0,0,1-.09.93,1,1,0,0,1-.47.71A2.52,2.52,0,0,1,318.45,35.12Zm-4.37-3.73a2.21,2.21,0,0,0,1.2-.33,2.51,2.51,0,0,0,.85-.92,2.48,2.48,0,0,0,.33-1.27,2.53,2.53,0,0,0-.33-1.29,2.45,2.45,0,0,0-3.36-.87,2.53,2.53,0,0,0-1.24,2.21,2.37,2.37,0,0,0,.34,1.23,2.48,2.48,0,0,0,.92.9A2.54,2.54,0,0,0,314.08,31.39Z"/><path class="cls-4" d="M54.61,34.27h4.52q3.42,0,3.42,3.95a4,4,0,0,1-1.08,3.17,6,6,0,0,1-3.85,1h-11a6.85,6.85,0,0,1-3.89-.78c-.7-.52-1-1.63-1-3.34a5.64,5.64,0,0,1,.16-1.45,3.49,3.49,0,0,1,.62-1.19,5.2,5.2,0,0,1,1.22-1.14c1.47-1,2.62-1.82,3.46-2.43s1.67-1.27,2.47-2a12.68,12.68,0,0,0,1.77-1.76,10,10,0,0,0,1-1.66A6.38,6.38,0,0,0,53,24.78a15.14,15.14,0,0,0,.14-2.18c0-1.57-.47-2.35-1.42-2.35s-1.55.92-1.55,2.77a2,2,0,0,1-1,2,7,7,0,0,1-2.89.47c-1.74,0-2.92-.4-3.53-1.18a6.46,6.46,0,0,1-.91-3.91,5.46,5.46,0,0,1,2.51-4.55,11.66,11.66,0,0,1,7-1.83q11.07,0,11.07,8.69A14.05,14.05,0,0,1,62,26.4a11.49,11.49,0,0,1-1.1,2.77,9.08,9.08,0,0,1-1.78,2.12A16.67,16.67,0,0,1,57,32.93,24.42,24.42,0,0,1,54.61,34.27Z"/><path class="cls-4" d="M65.24,39.19a2.78,2.78,0,0,1,1.16-2.31A5.31,5.31,0,0,1,69.68,36q4.44,0,4.44,3.19a3.1,3.1,0,0,1-.57,2,2.8,2.8,0,0,1-1.51,1,9.21,9.21,0,0,1-2.36.25,6,6,0,0,1-3.18-.76A2.61,2.61,0,0,1,65.24,39.19Z"/><path class="cls-4" d="M89.85,34.27h4.52q3.42,0,3.42,3.95a4,4,0,0,1-1.08,3.17,6,6,0,0,1-3.85,1h-11a6.85,6.85,0,0,1-3.89-.78c-.7-.52-1-1.63-1-3.34a5.64,5.64,0,0,1,.16-1.45,3.49,3.49,0,0,1,.62-1.19,5.2,5.2,0,0,1,1.22-1.14c1.47-1,2.62-1.82,3.46-2.43s1.67-1.27,2.47-2a12.68,12.68,0,0,0,1.77-1.76,10,10,0,0,0,1-1.66,6.38,6.38,0,0,0,.61-1.85,15.14,15.14,0,0,0,.14-2.18c0-1.57-.47-2.35-1.42-2.35s-1.55.92-1.55,2.77a2,2,0,0,1-1,2,7,7,0,0,1-2.89.47c-1.74,0-2.92-.4-3.53-1.18a6.46,6.46,0,0,1-.91-3.91,5.46,5.46,0,0,1,2.51-4.55,11.66,11.66,0,0,1,7-1.83q11.07,0,11.07,8.69a14.05,14.05,0,0,1-.45,3.68,11.49,11.49,0,0,1-1.1,2.77,9.08,9.08,0,0,1-1.78,2.12,16,16,0,0,1-2.1,1.64A24.42,24.42,0,0,1,89.85,34.27Z"/><path class="cls-5" d="M54.61,34.27h4.52q3.42,0,3.42,3.95a4,4,0,0,1-1.08,3.17,6,6,0,0,1-3.85,1h-11a6.85,6.85,0,0,1-3.89-.78c-.7-.52-1-1.63-1-3.34a5.64,5.64,0,0,1,.16-1.45,3.49,3.49,0,0,1,.62-1.19,5.2,5.2,0,0,1,1.22-1.14c1.47-1,2.62-1.82,3.46-2.43s1.67-1.27,2.47-2a12.68,12.68,0,0,0,1.77-1.76,10,10,0,0,0,1-1.66A6.38,6.38,0,0,0,53,24.78a15.14,15.14,0,0,0,.14-2.18c0-1.57-.47-2.35-1.42-2.35s-1.55.92-1.55,2.77a2,2,0,0,1-1,2,7,7,0,0,1-2.89.47c-1.74,0-2.92-.4-3.53-1.18a6.46,6.46,0,0,1-.91-3.91,5.46,5.46,0,0,1,2.51-4.55,11.66,11.66,0,0,1,7-1.83q11.07,0,11.07,8.69A14.05,14.05,0,0,1,62,26.4a11.49,11.49,0,0,1-1.1,2.77,9.08,9.08,0,0,1-1.78,2.12A16.67,16.67,0,0,1,57,32.93,24.42,24.42,0,0,1,54.61,34.27Z"/><path class="cls-5" d="M65.24,39.19a2.78,2.78,0,0,1,1.16-2.31A5.31,5.31,0,0,1,69.68,36q4.44,0,4.44,3.19a3.1,3.1,0,0,1-.57,2,2.8,2.8,0,0,1-1.51,1,9.21,9.21,0,0,1-2.36.25,6,6,0,0,1-3.18-.76A2.61,2.61,0,0,1,65.24,39.19Z"/><path class="cls-5" d="M89.85,34.27h4.52q3.42,0,3.42,3.95a4,4,0,0,1-1.08,3.17,6,6,0,0,1-3.85,1h-11a6.85,6.85,0,0,1-3.89-.78c-.7-.52-1-1.63-1-3.34a5.64,5.64,0,0,1,.16-1.45,3.49,3.49,0,0,1,.62-1.19,5.2,5.2,0,0,1,1.22-1.14c1.47-1,2.62-1.82,3.46-2.43s1.67-1.27,2.47-2a12.68,12.68,0,0,0,1.77-1.76,10,10,0,0,0,1-1.66,6.38,6.38,0,0,0,.61-1.85,15.14,15.14,0,0,0,.14-2.18c0-1.57-.47-2.35-1.42-2.35s-1.55.92-1.55,2.77a2,2,0,0,1-1,2,7,7,0,0,1-2.89.47c-1.74,0-2.92-.4-3.53-1.18a6.46,6.46,0,0,1-.91-3.91,5.46,5.46,0,0,1,2.51-4.55,11.66,11.66,0,0,1,7-1.83q11.07,0,11.07,8.69a14.05,14.05,0,0,1-.45,3.68,11.49,11.49,0,0,1-1.1,2.77,9.08,9.08,0,0,1-1.78,2.12,16,16,0,0,1-2.1,1.64A24.42,24.42,0,0,1,89.85,34.27Z"/></g></g></svg>