<svg xmlns="http://www.w3.org/2000/svg" viewBox="0 0 399.98 91.27"><defs><style>.cls-1{fill:#512573;}.cls-2{fill:#fff;}.cls-3,.cls-4{fill:none;stroke-width:5px;}.cls-3{stroke:#ff7300;stroke-linejoin:round;}.cls-4{stroke:#fff;}.cls-5{fill:#ff7300;}</style></defs><title>22tv</title><g id="Layer_2" data-name="Layer 2"><g id="pestaña_identificativa" data-name="pestaña identificativa"><rect class="cls-1" width="399.98" height="91.27" rx="32.4"/><path class="cls-2" d="M114.16,15.61a3.87,3.87,0,0,1,.79.07.9.9,0,0,1,.59.43,2.19,2.19,0,0,1,.22,1.15,2.14,2.14,0,0,1-.22,1.12.93.93,0,0,1-.6.43,4.11,4.11,0,0,1-.8.07h-4V31.25a4.29,4.29,0,0,1-.09.9,1.06,1.06,0,0,1-.48.69,3.4,3.4,0,0,1-2.61,0,1.08,1.08,0,0,1-.49-.7,4.53,4.53,0,0,1-.08-.91V18.88h-4a3.94,3.94,0,0,1-.77-.08,1,1,0,0,1-.61-.43,2,2,0,0,1-.24-1.14,2,2,0,0,1,.24-1.12.93.93,0,0,1,.61-.43,3.94,3.94,0,0,1,.77-.07Z"/><path class="cls-2" d="M119.73,33.11a2.48,2.48,0,0,1-1.31-.26,1.11,1.11,0,0,1-.48-.72,4.7,4.7,0,0,1-.09-.92V22.48a4.42,4.42,0,0,1,.09-.92,1.06,1.06,0,0,1,.49-.69,2.52,2.52,0,0,1,1.32-.26,2.45,2.45,0,0,1,1.26.24,1.06,1.06,0,0,1,.49.55,1.73,1.73,0,0,1,.1.54l-.3.15a2.39,2.39,0,0,1,.26-.37,4,4,0,0,1,.59-.55,3.55,3.55,0,0,1,.91-.48,3.43,3.43,0,0,1,1.24-.2,4.55,4.55,0,0,1,.61,0,3,3,0,0,1,.7.15,2.4,2.4,0,0,1,.67.3,1.51,1.51,0,0,1,.48.46,1.13,1.13,0,0,1,.19.67,3,3,0,0,1-.48,1.74,1.38,1.38,0,0,1-1.2.71,2.11,2.11,0,0,1-.6-.06.92.92,0,0,1-.28-.15,1.17,1.17,0,0,0-.27-.15,1.68,1.68,0,0,0-.55-.06,2.39,2.39,0,0,0-.71.1,1.9,1.9,0,0,0-.62.31,1.41,1.41,0,0,0-.45.52,1.53,1.53,0,0,0-.17.72v5.47a4.46,4.46,0,0,1-.09.91,1,1,0,0,1-.49.69A2.53,2.53,0,0,1,119.73,33.11Z"/><path class="cls-2" d="M139.13,33.1a2.34,2.34,0,0,1-1.38-.33.89.89,0,0,1-.42-.8l.25-.42a2.8,2.8,0,0,1-.58.61,4.11,4.11,0,0,1-1.11.65,4.34,4.34,0,0,1-1.66.28,4.88,4.88,0,0,1-2.19-.5,5.85,5.85,0,0,1-1.84-1.39,7.21,7.21,0,0,1-1.27-2,6.13,6.13,0,0,1,0-4.71,6.9,6.9,0,0,1,1.29-2,6.51,6.51,0,0,1,1.84-1.36,4.94,4.94,0,0,1,2.18-.5,4.09,4.09,0,0,1,1.57.27,4.32,4.32,0,0,1,1.09.61,3.43,3.43,0,0,1,.66.67l-.22-.35a1,1,0,0,1,.43-.91,2.42,2.42,0,0,1,1.39-.31,2.24,2.24,0,0,1,1.29.28,1.1,1.1,0,0,1,.47.72,4.86,4.86,0,0,1,.09.95V31.2a5.62,5.62,0,0,1-.09.92,1.07,1.07,0,0,1-.48.71A2.37,2.37,0,0,1,139.13,33.1Zm-4.37-3.73A2.13,2.13,0,0,0,136,29a2.57,2.57,0,0,0,.85-.91,2.61,2.61,0,0,0,.32-1.28,2.56,2.56,0,0,0-.32-1.28,2.42,2.42,0,0,0-.88-.89,2.3,2.3,0,0,0-1.22-.33,2.42,2.42,0,0,0-1.26.34,2.46,2.46,0,0,0-.9.91,2.5,2.5,0,0,0-.34,1.3,2.42,2.42,0,0,0,.33,1.24,2.67,2.67,0,0,0,.93.9A2.49,2.49,0,0,0,134.76,29.37Z"/><path class="cls-2" d="M144.88,33.12a1.79,1.79,0,0,1-1.31-.53,1.82,1.82,0,0,1-.54-1.34,2.06,2.06,0,0,1,.14-.73,1.81,1.81,0,0,1,.41-.62l5.68-5.5h-3.8a3.85,3.85,0,0,1-.91-.1,1.22,1.22,0,0,1-.73-.49,2.26,2.26,0,0,1-.29-1.31,2.32,2.32,0,0,1,.29-1.31,1.21,1.21,0,0,1,.73-.48,4.46,4.46,0,0,1,.91-.09h7.83a1.79,1.79,0,0,1,1.32.52,1.83,1.83,0,0,1,.53,1.33,2.14,2.14,0,0,1-.14.76,1.45,1.45,0,0,1-.39.59l-5.55,5.52h4.52a5.41,5.41,0,0,1,.93.1,1.11,1.11,0,0,1,.68.51,2.33,2.33,0,0,1,.26,1.32,2.4,2.4,0,0,1-.27,1.3,1,1,0,0,1-.7.47,4.54,4.54,0,0,1-.93.08Z"/><path class="cls-2" d="M167.7,33.11a2.41,2.41,0,0,1-1.37-.32.93.93,0,0,1-.43-.8l.25-.43a2.5,2.5,0,0,1-.57.61,4,4,0,0,1-1.11.65,4.38,4.38,0,0,1-1.67.29,5,5,0,0,1-2.18-.5,5.89,5.89,0,0,1-1.84-1.39,7,7,0,0,1-1.27-2,6,6,0,0,1-.48-2.38,5.87,5.87,0,0,1,.48-2.34,6.72,6.72,0,0,1,1.29-2,6.24,6.24,0,0,1,1.84-1.36,4.9,4.9,0,0,1,2.17-.5,4.35,4.35,0,0,1,1.58.26,4.26,4.26,0,0,1,1.08.62,3.51,3.51,0,0,1,.67.67l-.23-.35a1.05,1.05,0,0,1,.44-.91,2.4,2.4,0,0,1,1.39-.31,2.28,2.28,0,0,1,1.28.27,1.16,1.16,0,0,1,.48.73,4.86,4.86,0,0,1,.09.95v8.62a4.73,4.73,0,0,1-.09.93,1.09,1.09,0,0,1-.47.71A2.42,2.42,0,0,1,167.7,33.11Zm-4.37-3.72a2.21,2.21,0,0,0,1.2-.34,2.66,2.66,0,0,0,.85-.91,2.67,2.67,0,0,0,0-2.57,2.3,2.3,0,0,0-.87-.88,2.48,2.48,0,0,0-2.49,0,2.61,2.61,0,0,0-.9.91,2.57,2.57,0,0,0-.34,1.3,2.34,2.34,0,0,0,.34,1.24,2.56,2.56,0,0,0,.92.9A2.59,2.59,0,0,0,163.33,29.39Z"/><path class="cls-2" d="M184.8,33.37a7.28,7.28,0,0,1-3-.57,5.86,5.86,0,0,1-2.06-1.52,6.51,6.51,0,0,1-1.2-2.09,6.83,6.83,0,0,1-.4-2.3,6.51,6.51,0,0,1,.85-3.32,6.14,6.14,0,0,1,2.37-2.29,7.11,7.11,0,0,1,3.46-.83,6.22,6.22,0,0,1,2.51.46,5.12,5.12,0,0,1,2.78,2.79,4.51,4.51,0,0,1,.33,1.63,2.84,2.84,0,0,1-.66,2.05,2.27,2.27,0,0,1-1.69.67h-6a1.76,1.76,0,0,0,.46,1.07,2.73,2.73,0,0,0,1,.7,3.5,3.5,0,0,0,1.33.25,8.05,8.05,0,0,0,1-.06,4.49,4.49,0,0,0,.79-.17l.59-.23a5,5,0,0,1,.48-.18,2,2,0,0,1,.43-.1,1,1,0,0,1,.68.21,2.11,2.11,0,0,1,.57.71,1.9,1.9,0,0,1,.24.53,2.07,2.07,0,0,1,.06.5,1.35,1.35,0,0,1-.61,1.08,4.73,4.73,0,0,1-1.73.74A11.56,11.56,0,0,1,184.8,33.37ZM182.13,26h4a1.06,1.06,0,0,0,.58-.13.62.62,0,0,0,.2-.54,1.23,1.23,0,0,0-.28-.78,1.73,1.73,0,0,0-.73-.53,2.8,2.8,0,0,0-1.09-.19,3,3,0,0,0-1.35.3,2.38,2.38,0,0,0-.94.8A1.91,1.91,0,0,0,182.13,26Z"/><path class="cls-2" d="M197.33,33.16a14.17,14.17,0,0,1-1.83-.11,3.7,3.7,0,0,1-1.35-.4,2.64,2.64,0,0,1-.9-.83,4.19,4.19,0,0,1-.52-1.38,10.11,10.11,0,0,1-.17-2.06V16.83a4.49,4.49,0,0,1,.1-.93,1.21,1.21,0,0,1,.49-.7,2.39,2.39,0,0,1,1.31-.27,2.34,2.34,0,0,1,1.29.27,1.2,1.2,0,0,1,.49.71,3.82,3.82,0,0,1,.1.92V28.21a4.16,4.16,0,0,0,0,.66.8.8,0,0,0,.15.41.51.51,0,0,0,.31.2,2.4,2.4,0,0,0,.52.05,2.64,2.64,0,0,1,.62.08.91.91,0,0,1,.54.45,2.68,2.68,0,0,1,.22,1.25,2.79,2.79,0,0,1-.23,1.3.91.91,0,0,1-.53.47A2.8,2.8,0,0,1,197.33,33.16Z"/><path class="cls-2" d="M209,33.14a2.39,2.39,0,0,1-1.31-.27,1,1,0,0,1-.47-.7,4.46,4.46,0,0,1-.09-.91v-8.8a4.26,4.26,0,0,1,.09-.89,1,1,0,0,1,.49-.66,2.69,2.69,0,0,1,1.32-.25,2.37,2.37,0,0,1,1.18.22,1,1,0,0,1,.49.51,1.73,1.73,0,0,1,.11.56.91.91,0,0,0,.05.36l-.15.48a1.39,1.39,0,0,1,.39-.76,3.53,3.53,0,0,1,.85-.7,4.73,4.73,0,0,1,1.1-.49,3.93,3.93,0,0,1,1.16-.17,5,5,0,0,1,2.14.43,4.42,4.42,0,0,1,1.58,1.27,5.56,5.56,0,0,1,1,1.94,8.16,8.16,0,0,1,.34,2.43v4.55a5.43,5.43,0,0,1-.08.92,1,1,0,0,1-.48.68,2.57,2.57,0,0,1-1.34.25,2.54,2.54,0,0,1-1.32-.26,1.08,1.08,0,0,1-.49-.7,4.53,4.53,0,0,1-.09-.91V26.74a2.74,2.74,0,0,0-.27-1.27,1.76,1.76,0,0,0-.75-.8,2.33,2.33,0,0,0-1.21-.28,2.59,2.59,0,0,0-1.25.29,2,2,0,0,0-.81.81,2.59,2.59,0,0,0-.29,1.25v4.55a4.46,4.46,0,0,1-.09.91,1.08,1.08,0,0,1-.47.69A2.64,2.64,0,0,1,209,33.14Z"/><path class="cls-2" d="M227,33.15a5.25,5.25,0,0,1-2.18-.45,5.31,5.31,0,0,1-1.75-1.27,5.8,5.8,0,0,1-1.16-1.92,7.1,7.1,0,0,1-.41-2.44V22.55a4.45,4.45,0,0,1,.09-.93,1.1,1.1,0,0,1,.49-.7,2.46,2.46,0,0,1,1.32-.27,2.41,2.41,0,0,1,1.32.27,1.13,1.13,0,0,1,.47.71,4.76,4.76,0,0,1,.09.94v4.5a2.8,2.8,0,0,0,.26,1.27,1.83,1.83,0,0,0,.77.81,2.57,2.57,0,0,0,1.21.27,2.5,2.5,0,0,0,1.24-.28,2,2,0,0,0,.8-.81,2.59,2.59,0,0,0,.29-1.25V22.53a4.45,4.45,0,0,1,.09-.93,1.08,1.08,0,0,1,.49-.69,2.57,2.57,0,0,1,1.32-.26,2.31,2.31,0,0,1,1.32.28,1.1,1.1,0,0,1,.47.71,4.53,4.53,0,0,1,.09.91v8.8a4.91,4.91,0,0,1-.08.89,1,1,0,0,1-.49.66,2.52,2.52,0,0,1-1.3.25,2.92,2.92,0,0,1-1.05-.15,1.23,1.23,0,0,1-.55-.37.94.94,0,0,1-.21-.48,2.57,2.57,0,0,1,0-.45l.32-.27a2.32,2.32,0,0,1-.32.38,5.89,5.89,0,0,1-.66.58,4.26,4.26,0,0,1-1,.53A3.31,3.31,0,0,1,227,33.15Zm-.39-13.38a.82.82,0,0,1-.74-.25,2.63,2.63,0,0,1-.51-1,2,2,0,0,1-.1-1.3,1.35,1.35,0,0,1,.92-.67l4.4-1.35a.88.88,0,0,1,.73.29,2.53,2.53,0,0,1,.5,1,1.85,1.85,0,0,1,.08,1.27,1.32,1.32,0,0,1-.91.68Z"/><path class="cls-2" d="M238,33.18a2.28,2.28,0,0,1-1.3-.28,1,1,0,0,1-.48-.7,5.29,5.29,0,0,1-.07-.92V22.53a4.29,4.29,0,0,1,.09-.9,1.08,1.08,0,0,1,.49-.69,2.57,2.57,0,0,1,1.32-.26,2.11,2.11,0,0,1,1.36.36,1.51,1.51,0,0,1,.42,1.19l-.33.28a2.46,2.46,0,0,1,.3-.43,4.89,4.89,0,0,1,.65-.62,4.13,4.13,0,0,1,.94-.57,3,3,0,0,1,1.16-.23,4.31,4.31,0,0,1,1.49.24,3.82,3.82,0,0,1,1.2.7,4.38,4.38,0,0,1,.94,1.16,6.28,6.28,0,0,1,.85-1,4.25,4.25,0,0,1,1.17-.8,3.47,3.47,0,0,1,1.53-.33,4.15,4.15,0,0,1,2.49.74,4.56,4.56,0,0,1,1.53,2.11,9.38,9.38,0,0,1,.53,3.33v4.48a3.91,3.91,0,0,1-.1.91,1.14,1.14,0,0,1-.48.7,2.52,2.52,0,0,1-1.32.26,2.33,2.33,0,0,1-1.32-.28,1,1,0,0,1-.48-.71,5.41,5.41,0,0,1-.07-.91V26.81a3.71,3.71,0,0,0-.19-1.28,1.78,1.78,0,0,0-.53-.83,1.41,1.41,0,0,0-.9-.29,1.64,1.64,0,0,0-1,.28,1.72,1.72,0,0,0-.6.8,3.92,3.92,0,0,0-.2,1.35v4.47a3.19,3.19,0,0,1-.13.94,1.22,1.22,0,0,1-.53.7,2.52,2.52,0,0,1-1.34.23,2.1,2.1,0,0,1-1.25-.28,1.17,1.17,0,0,1-.45-.73,5.26,5.26,0,0,1-.08-.89V26.81a4.21,4.21,0,0,0-.18-1.3,1.65,1.65,0,0,0-.52-.83,1.49,1.49,0,0,0-.93-.27,1.59,1.59,0,0,0-1,.32,1.87,1.87,0,0,0-.59.86,3.59,3.59,0,0,0-.19,1.22v4.5a4.42,4.42,0,0,1-.09.92,1.08,1.08,0,0,1-.49.69A2.54,2.54,0,0,1,238,33.18Z"/><path class="cls-2" d="M262.9,33.42a7.09,7.09,0,0,1-3-.58,5.84,5.84,0,0,1-2.06-1.51,6.25,6.25,0,0,1-1.2-2.09,6.88,6.88,0,0,1-.4-2.3,6.48,6.48,0,0,1,.85-3.32,6.14,6.14,0,0,1,2.37-2.29,6.87,6.87,0,0,1,3.46-.83,6.22,6.22,0,0,1,2.51.46,5.23,5.23,0,0,1,1.75,1.2,4.89,4.89,0,0,1,1,1.59,4.32,4.32,0,0,1,.34,1.62,2.82,2.82,0,0,1-.66,2.05,2.28,2.28,0,0,1-1.69.68h-5.95a1.77,1.77,0,0,0,.46,1.08,2.85,2.85,0,0,0,1,.7,3.44,3.44,0,0,0,1.32.25,8.1,8.1,0,0,0,1-.06,3.7,3.7,0,0,0,.79-.18c.22-.07.41-.15.59-.22a4.32,4.32,0,0,1,.48-.19,2.63,2.63,0,0,1,.43-.1,1,1,0,0,1,.67.22,1.93,1.93,0,0,1,.58.71,2.37,2.37,0,0,1,.24.52,2.2,2.2,0,0,1,.06.5,1.35,1.35,0,0,1-.62,1.09,4.77,4.77,0,0,1-1.72.74A11.56,11.56,0,0,1,262.9,33.42ZM260.23,26h3.95a1,1,0,0,0,.58-.14.61.61,0,0,0,.2-.53,1.24,1.24,0,0,0-.28-.78,1.8,1.8,0,0,0-.74-.54,3.16,3.16,0,0,0-1.08-.19,3,3,0,0,0-1.35.3,2.39,2.39,0,0,0-.94.8A1.89,1.89,0,0,0,260.23,26Z"/><path class="cls-2" d="M272.5,33.2a2.5,2.5,0,0,1-1.31-.26,1.11,1.11,0,0,1-.48-.72,5.43,5.43,0,0,1-.08-.92V22.57a4.42,4.42,0,0,1,.09-.92,1.08,1.08,0,0,1,.49-.69,2.54,2.54,0,0,1,1.32-.26,2.52,2.52,0,0,1,1.27.24,1,1,0,0,1,.48.55,1.73,1.73,0,0,1,.1.54l-.3.15a2.73,2.73,0,0,1,.27-.37,3.92,3.92,0,0,1,.58-.55,3.46,3.46,0,0,1,.92-.48,3.56,3.56,0,0,1,1.23-.2,4.7,4.7,0,0,1,.62,0,3.26,3.26,0,0,1,.7.15,2.47,2.47,0,0,1,.66.3,1.66,1.66,0,0,1,.49.46,1.21,1.21,0,0,1,.18.68,3.08,3.08,0,0,1-.47,1.73,1.4,1.4,0,0,1-1.2.71,2,2,0,0,1-.6-.06.87.87,0,0,1-.29-.15,1.1,1.1,0,0,0-.26-.15,1.72,1.72,0,0,0-.55-.06,2.46,2.46,0,0,0-.72.1,1.9,1.9,0,0,0-.62.31,1.6,1.6,0,0,0-.45.52,1.53,1.53,0,0,0-.16.72v5.47a4.46,4.46,0,0,1-.09.91,1,1,0,0,1-.48.69A2.6,2.6,0,0,1,272.5,33.2Z"/><path class="cls-2" d="M287.7,33.41a6.49,6.49,0,0,1-2.34-.46,7.19,7.19,0,0,1-2.11-1.32,6.31,6.31,0,0,1-1.51-2,6.14,6.14,0,0,1-.56-2.63,6.24,6.24,0,0,1,.51-2.52,7,7,0,0,1,1.42-2.06A6.75,6.75,0,0,1,285.17,21a6.13,6.13,0,0,1,2.49-.51,6.33,6.33,0,0,1,3.26.86,6.64,6.64,0,0,1,2.34,2.34,6.71,6.71,0,0,1,.31,6A6.59,6.59,0,0,1,290,33,6.38,6.38,0,0,1,287.7,33.41Zm-.05-3.78a2.83,2.83,0,0,0,1.23-.29,2.74,2.74,0,0,0,1.05-.9,2.61,2.61,0,0,0,.42-1.53,2.77,2.77,0,0,0-.34-1.4,2.58,2.58,0,0,0-1-.94,2.88,2.88,0,0,0-1.41-.33,2.52,2.52,0,0,0-1.34.34,2.85,2.85,0,0,0-1,1,2.66,2.66,0,0,0-.36,1.38,2.71,2.71,0,0,0,.41,1.52,2.64,2.64,0,0,0,1,.9A2.92,2.92,0,0,0,287.65,29.63Z"/><path class="cls-2" d="M305.31,22.55a2.08,2.08,0,0,1-1.3.61,1.91,1.91,0,0,1-1.25-.74,1.88,1.88,0,0,1-.63-1.38,2.23,2.23,0,0,1,.88-1.37l3.73-3.3A1.75,1.75,0,0,1,308,15.8a2,2,0,0,1,1.24.77,1.75,1.75,0,0,1,.61,1.34,2.19,2.19,0,0,1-.89,1.36Zm3.14,10.72a2,2,0,0,1-1.44-.42,2.15,2.15,0,0,1-.41-1.48V17.62a2.05,2.05,0,0,1,.41-1.46,2.05,2.05,0,0,1,1.47-.41,2,2,0,0,1,1.46.42,2.19,2.19,0,0,1,.41,1.5V31.4a2.05,2.05,0,0,1-.41,1.46A2.08,2.08,0,0,1,308.45,33.27Z"/><path class="cls-2" d="M315.38,22.55a2,2,0,0,1-1.3.61,1.91,1.91,0,0,1-1.25-.73,1.86,1.86,0,0,1-.62-1.38,2.16,2.16,0,0,1,.87-1.37l3.73-3.3a1.81,1.81,0,0,1,1.29-.58,2.09,2.09,0,0,1,1.24.78,1.74,1.74,0,0,1,.61,1.34,2.26,2.26,0,0,1-.89,1.36Zm3.15,10.73a1.92,1.92,0,0,1-1.44-.43,2.05,2.05,0,0,1-.41-1.47V17.63a2,2,0,0,1,.41-1.46,2.72,2.72,0,0,1,2.92,0,2.1,2.1,0,0,1,.42,1.5V31.4a2,2,0,0,1-.42,1.47A2.1,2.1,0,0,1,318.53,33.28Z"/><path class="cls-3" d="M114.16,15.61a3.87,3.87,0,0,1,.79.07.9.9,0,0,1,.59.43,2.19,2.19,0,0,1,.22,1.15,2.14,2.14,0,0,1-.22,1.12.93.93,0,0,1-.6.43,4.11,4.11,0,0,1-.8.07h-4V31.25a4.29,4.29,0,0,1-.09.9,1.06,1.06,0,0,1-.48.69,3.4,3.4,0,0,1-2.61,0,1.08,1.08,0,0,1-.49-.7,4.53,4.53,0,0,1-.08-.91V18.88h-4a3.94,3.94,0,0,1-.77-.08,1,1,0,0,1-.61-.43,2,2,0,0,1-.24-1.14,2,2,0,0,1,.24-1.12.93.93,0,0,1,.61-.43,3.94,3.94,0,0,1,.77-.07Z"/><path class="cls-3" d="M119.73,33.11a2.48,2.48,0,0,1-1.31-.26,1.11,1.11,0,0,1-.48-.72,4.7,4.7,0,0,1-.09-.92V22.48a4.42,4.42,0,0,1,.09-.92,1.06,1.06,0,0,1,.49-.69,2.52,2.52,0,0,1,1.32-.26,2.45,2.45,0,0,1,1.26.24,1.06,1.06,0,0,1,.49.55,1.73,1.73,0,0,1,.1.54l-.3.15a2.39,2.39,0,0,1,.26-.37,4,4,0,0,1,.59-.55,3.55,3.55,0,0,1,.91-.48,3.43,3.43,0,0,1,1.24-.2,4.55,4.55,0,0,1,.61,0,3,3,0,0,1,.7.15,2.4,2.4,0,0,1,.67.3,1.51,1.51,0,0,1,.48.46,1.13,1.13,0,0,1,.19.67,3,3,0,0,1-.48,1.74,1.38,1.38,0,0,1-1.2.71,2.11,2.11,0,0,1-.6-.06.92.92,0,0,1-.28-.15,1.17,1.17,0,0,0-.27-.15,1.68,1.68,0,0,0-.55-.06,2.39,2.39,0,0,0-.71.1,1.9,1.9,0,0,0-.62.31,1.41,1.41,0,0,0-.45.52,1.53,1.53,0,0,0-.17.72v5.47a4.46,4.46,0,0,1-.09.91,1,1,0,0,1-.49.69A2.53,2.53,0,0,1,119.73,33.11Z"/><path class="cls-3" d="M139.13,33.1a2.34,2.34,0,0,1-1.38-.33.89.89,0,0,1-.42-.8l.25-.42a2.8,2.8,0,0,1-.58.61,4.11,4.11,0,0,1-1.11.65,4.34,4.34,0,0,1-1.66.28,4.88,4.88,0,0,1-2.19-.5,5.85,5.85,0,0,1-1.84-1.39,7.21,7.21,0,0,1-1.27-2,6.13,6.13,0,0,1,0-4.71,6.9,6.9,0,0,1,1.29-2,6.51,6.51,0,0,1,1.84-1.36,4.94,4.94,0,0,1,2.18-.5,4.09,4.09,0,0,1,1.57.27,4.32,4.32,0,0,1,1.09.61,3.43,3.43,0,0,1,.66.67l-.22-.35a1,1,0,0,1,.43-.91,2.42,2.42,0,0,1,1.39-.31,2.24,2.24,0,0,1,1.29.28,1.1,1.1,0,0,1,.47.72,4.86,4.86,0,0,1,.09.95V31.2a5.62,5.62,0,0,1-.09.92,1.07,1.07,0,0,1-.48.71A2.37,2.37,0,0,1,139.13,33.1Zm-4.37-3.73A2.13,2.13,0,0,0,136,29a2.57,2.57,0,0,0,.85-.91,2.61,2.61,0,0,0,.32-1.28,2.56,2.56,0,0,0-.32-1.28,2.42,2.42,0,0,0-.88-.89,2.3,2.3,0,0,0-1.22-.33,2.42,2.42,0,0,0-1.26.34,2.46,2.46,0,0,0-.9.91,2.5,2.5,0,0,0-.34,1.3,2.42,2.42,0,0,0,.33,1.24,2.67,2.67,0,0,0,.93.9A2.49,2.49,0,0,0,134.76,29.37Z"/><path class="cls-3" d="M144.88,33.12a1.79,1.79,0,0,1-1.31-.53,1.82,1.82,0,0,1-.54-1.34,2.06,2.06,0,0,1,.14-.73,1.81,1.81,0,0,1,.41-.62l5.68-5.5h-3.8a3.85,3.85,0,0,1-.91-.1,1.22,1.22,0,0,1-.73-.49,2.26,2.26,0,0,1-.29-1.31,2.32,2.32,0,0,1,.29-1.31,1.21,1.21,0,0,1,.73-.48,4.46,4.46,0,0,1,.91-.09h7.83a1.79,1.79,0,0,1,1.32.52,1.83,1.83,0,0,1,.53,1.33,2.14,2.14,0,0,1-.14.76,1.45,1.45,0,0,1-.39.59l-5.55,5.52h4.52a5.41,5.41,0,0,1,.93.1,1.11,1.11,0,0,1,.68.51,2.33,2.33,0,0,1,.26,1.32,2.4,2.4,0,0,1-.27,1.3,1,1,0,0,1-.7.47,4.54,4.54,0,0,1-.93.08Z"/><path class="cls-3" d="M167.7,33.11a2.41,2.41,0,0,1-1.37-.32.93.93,0,0,1-.43-.8l.25-.43a2.5,2.5,0,0,1-.57.61,4,4,0,0,1-1.11.65,4.38,4.38,0,0,1-1.67.29,5,5,0,0,1-2.18-.5,5.89,5.89,0,0,1-1.84-1.39,7,7,0,0,1-1.27-2,6,6,0,0,1-.48-2.38,5.87,5.87,0,0,1,.48-2.34,6.72,6.72,0,0,1,1.29-2,6.24,6.24,0,0,1,1.84-1.36,4.9,4.9,0,0,1,2.17-.5,4.35,4.35,0,0,1,1.58.26,4.26,4.26,0,0,1,1.08.62,3.51,3.51,0,0,1,.67.67l-.23-.35a1.05,1.05,0,0,1,.44-.91,2.4,2.4,0,0,1,1.39-.31,2.28,2.28,0,0,1,1.28.27,1.16,1.16,0,0,1,.48.73,4.86,4.86,0,0,1,.09.95v8.62a4.73,4.73,0,0,1-.09.93,1.09,1.09,0,0,1-.47.71A2.42,2.42,0,0,1,167.7,33.11Zm-4.37-3.72a2.21,2.21,0,0,0,1.2-.34,2.66,2.66,0,0,0,.85-.91,2.67,2.67,0,0,0,0-2.57,2.3,2.3,0,0,0-.87-.88,2.48,2.48,0,0,0-2.49,0,2.61,2.61,0,0,0-.9.91,2.57,2.57,0,0,0-.34,1.3,2.34,2.34,0,0,0,.34,1.24,2.56,2.56,0,0,0,.92.9A2.59,2.59,0,0,0,163.33,29.39Z"/><path class="cls-3" d="M184.8,33.37a7.28,7.28,0,0,1-3-.57,5.86,5.86,0,0,1-2.06-1.52,6.51,6.51,0,0,1-1.2-2.09,6.83,6.83,0,0,1-.4-2.3,6.51,6.51,0,0,1,.85-3.32,6.14,6.14,0,0,1,2.37-2.29,7.11,7.11,0,0,1,3.46-.83,6.22,6.22,0,0,1,2.51.46,5.12,5.12,0,0,1,2.78,2.79,4.51,4.51,0,0,1,.33,1.63,2.84,2.84,0,0,1-.66,2.05,2.27,2.27,0,0,1-1.69.67h-6a1.76,1.76,0,0,0,.46,1.07,2.73,2.73,0,0,0,1,.7,3.5,3.5,0,0,0,1.33.25,8.05,8.05,0,0,0,1-.06,4.49,4.49,0,0,0,.79-.17l.59-.23a5,5,0,0,1,.48-.18,2,2,0,0,1,.43-.1,1,1,0,0,1,.68.21,2.11,2.11,0,0,1,.57.71,1.9,1.9,0,0,1,.24.53,2.07,2.07,0,0,1,.06.5,1.35,1.35,0,0,1-.61,1.08,4.73,4.73,0,0,1-1.73.74A11.56,11.56,0,0,1,184.8,33.37ZM182.13,26h4a1.06,1.06,0,0,0,.58-.13.62.62,0,0,0,.2-.54,1.23,1.23,0,0,0-.28-.78,1.73,1.73,0,0,0-.73-.53,2.8,2.8,0,0,0-1.09-.19,3,3,0,0,0-1.35.3,2.38,2.38,0,0,0-.94.8A1.91,1.91,0,0,0,182.13,26Z"/><path class="cls-3" d="M197.33,33.16a14.17,14.17,0,0,1-1.83-.11,3.7,3.7,0,0,1-1.35-.4,2.64,2.64,0,0,1-.9-.83,4.19,4.19,0,0,1-.52-1.38,10.11,10.11,0,0,1-.17-2.06V16.83a4.49,4.49,0,0,1,.1-.93,1.21,1.21,0,0,1,.49-.7,2.39,2.39,0,0,1,1.31-.27,2.34,2.34,0,0,1,1.29.27,1.2,1.2,0,0,1,.49.71,3.82,3.82,0,0,1,.1.92V28.21a4.16,4.16,0,0,0,0,.66.8.8,0,0,0,.15.41.51.51,0,0,0,.31.2,2.4,2.4,0,0,0,.52.05,2.64,2.64,0,0,1,.62.08.91.91,0,0,1,.54.45,2.68,2.68,0,0,1,.22,1.25,2.79,2.79,0,0,1-.23,1.3.91.91,0,0,1-.53.47A2.8,2.8,0,0,1,197.33,33.16Z"/><path class="cls-3" d="M209,33.14a2.39,2.39,0,0,1-1.31-.27,1,1,0,0,1-.47-.7,4.46,4.46,0,0,1-.09-.91v-8.8a4.26,4.26,0,0,1,.09-.89,1,1,0,0,1,.49-.66,2.69,2.69,0,0,1,1.32-.25,2.37,2.37,0,0,1,1.18.22,1,1,0,0,1,.49.51,1.73,1.73,0,0,1,.11.56.91.91,0,0,0,.05.36l-.15.48a1.39,1.39,0,0,1,.39-.76,3.53,3.53,0,0,1,.85-.7,4.73,4.73,0,0,1,1.1-.49,3.93,3.93,0,0,1,1.16-.17,5,5,0,0,1,2.14.43,4.42,4.42,0,0,1,1.58,1.27,5.56,5.56,0,0,1,1,1.94,8.16,8.16,0,0,1,.34,2.43v4.55a5.43,5.43,0,0,1-.08.92,1,1,0,0,1-.48.68,2.57,2.57,0,0,1-1.34.25,2.54,2.54,0,0,1-1.32-.26,1.08,1.08,0,0,1-.49-.7,4.53,4.53,0,0,1-.09-.91V26.74a2.74,2.74,0,0,0-.27-1.27,1.76,1.76,0,0,0-.75-.8,2.33,2.33,0,0,0-1.21-.28,2.59,2.59,0,0,0-1.25.29,2,2,0,0,0-.81.81,2.59,2.59,0,0,0-.29,1.25v4.55a4.46,4.46,0,0,1-.09.91,1.08,1.08,0,0,1-.47.69A2.64,2.64,0,0,1,209,33.14Z"/><path class="cls-3" d="M227,33.15a5.25,5.25,0,0,1-2.18-.45,5.31,5.31,0,0,1-1.75-1.27,5.8,5.8,0,0,1-1.16-1.92,7.1,7.1,0,0,1-.41-2.44V22.55a4.45,4.45,0,0,1,.09-.93,1.1,1.1,0,0,1,.49-.7,2.46,2.46,0,0,1,1.32-.27,2.41,2.41,0,0,1,1.32.27,1.13,1.13,0,0,1,.47.71,4.76,4.76,0,0,1,.09.94v4.5a2.8,2.8,0,0,0,.26,1.27,1.83,1.83,0,0,0,.77.81,2.57,2.57,0,0,0,1.21.27,2.5,2.5,0,0,0,1.24-.28,2,2,0,0,0,.8-.81,2.59,2.59,0,0,0,.29-1.25V22.53a4.45,4.45,0,0,1,.09-.93,1.08,1.08,0,0,1,.49-.69,2.57,2.57,0,0,1,1.32-.26,2.31,2.31,0,0,1,1.32.28,1.1,1.1,0,0,1,.47.71,4.53,4.53,0,0,1,.09.91v8.8a4.91,4.91,0,0,1-.08.89,1,1,0,0,1-.49.66,2.52,2.52,0,0,1-1.3.25,2.92,2.92,0,0,1-1.05-.15,1.23,1.23,0,0,1-.55-.37.94.94,0,0,1-.21-.48,2.57,2.57,0,0,1,0-.45l.32-.27a2.32,2.32,0,0,1-.32.38,5.89,5.89,0,0,1-.66.58,4.26,4.26,0,0,1-1,.53A3.31,3.31,0,0,1,227,33.15Zm-.39-13.38a.82.82,0,0,1-.74-.25,2.63,2.63,0,0,1-.51-1,2,2,0,0,1-.1-1.3,1.35,1.35,0,0,1,.92-.67l4.4-1.35a.88.88,0,0,1,.73.29,2.53,2.53,0,0,1,.5,1,1.85,1.85,0,0,1,.08,1.27,1.32,1.32,0,0,1-.91.68Z"/><path class="cls-3" d="M238,33.18a2.28,2.28,0,0,1-1.3-.28,1,1,0,0,1-.48-.7,5.29,5.29,0,0,1-.07-.92V22.53a4.29,4.29,0,0,1,.09-.9,1.08,1.08,0,0,1,.49-.69,2.57,2.57,0,0,1,1.32-.26,2.11,2.11,0,0,1,1.36.36,1.51,1.51,0,0,1,.42,1.19l-.33.28a2.46,2.46,0,0,1,.3-.43,4.89,4.89,0,0,1,.65-.62,4.13,4.13,0,0,1,.94-.57,3,3,0,0,1,1.16-.23,4.31,4.31,0,0,1,1.49.24,3.82,3.82,0,0,1,1.2.7,4.38,4.38,0,0,1,.94,1.16,6.28,6.28,0,0,1,.85-1,4.25,4.25,0,0,1,1.17-.8,3.47,3.47,0,0,1,1.53-.33,4.15,4.15,0,0,1,2.49.74,4.56,4.56,0,0,1,1.53,2.11,9.38,9.38,0,0,1,.53,3.33v4.48a3.91,3.91,0,0,1-.1.91,1.14,1.14,0,0,1-.48.7,2.52,2.52,0,0,1-1.32.26,2.33,2.33,0,0,1-1.32-.28,1,1,0,0,1-.48-.71,5.41,5.41,0,0,1-.07-.91V26.81a3.71,3.71,0,0,0-.19-1.28,1.78,1.78,0,0,0-.53-.83,1.41,1.41,0,0,0-.9-.29,1.64,1.64,0,0,0-1,.28,1.72,1.72,0,0,0-.6.8,3.92,3.92,0,0,0-.2,1.35v4.47a3.19,3.19,0,0,1-.13.94,1.22,1.22,0,0,1-.53.7,2.52,2.52,0,0,1-1.34.23,2.1,2.1,0,0,1-1.25-.28,1.17,1.17,0,0,1-.45-.73,5.26,5.26,0,0,1-.08-.89V26.81a4.21,4.21,0,0,0-.18-1.3,1.65,1.65,0,0,0-.52-.83,1.49,1.49,0,0,0-.93-.27,1.59,1.59,0,0,0-1,.32,1.87,1.87,0,0,0-.59.86,3.59,3.59,0,0,0-.19,1.22v4.5a4.42,4.42,0,0,1-.09.92,1.08,1.08,0,0,1-.49.69A2.54,2.54,0,0,1,238,33.18Z"/><path class="cls-3" d="M262.9,33.42a7.09,7.09,0,0,1-3-.58,5.84,5.84,0,0,1-2.06-1.51,6.25,6.25,0,0,1-1.2-2.09,6.88,6.88,0,0,1-.4-2.3,6.48,6.48,0,0,1,.85-3.32,6.14,6.14,0,0,1,2.37-2.29,6.87,6.87,0,0,1,3.46-.83,6.22,6.22,0,0,1,2.51.46,5.23,5.23,0,0,1,1.75,1.2,4.89,4.89,0,0,1,1,1.59,4.32,4.32,0,0,1,.34,1.62,2.82,2.82,0,0,1-.66,2.05,2.28,2.28,0,0,1-1.69.68h-5.95a1.77,1.77,0,0,0,.46,1.08,2.85,2.85,0,0,0,1,.7,3.44,3.44,0,0,0,1.32.25,8.1,8.1,0,0,0,1-.06,3.7,3.7,0,0,0,.79-.18c.22-.07.41-.15.59-.22a4.32,4.32,0,0,1,.48-.19,2.63,2.63,0,0,1,.43-.1,1,1,0,0,1,.67.22,1.93,1.93,0,0,1,.58.71,2.37,2.37,0,0,1,.24.52,2.2,2.2,0,0,1,.06.5,1.35,1.35,0,0,1-.62,1.09,4.77,4.77,0,0,1-1.72.74A11.56,11.56,0,0,1,262.9,33.42ZM260.23,26h3.95a1,1,0,0,0,.58-.14.61.61,0,0,0,.2-.53,1.24,1.24,0,0,0-.28-.78,1.8,1.8,0,0,0-.74-.54,3.16,3.16,0,0,0-1.08-.19,3,3,0,0,0-1.35.3,2.39,2.39,0,0,0-.94.8A1.89,1.89,0,0,0,260.23,26Z"/><path class="cls-3" d="M272.5,33.2a2.5,2.5,0,0,1-1.31-.26,1.11,1.11,0,0,1-.48-.72,5.43,5.43,0,0,1-.08-.92V22.57a4.42,4.42,0,0,1,.09-.92,1.08,1.08,0,0,1,.49-.69,2.54,2.54,0,0,1,1.32-.26,2.52,2.52,0,0,1,1.27.24,1,1,0,0,1,.48.55,1.73,1.73,0,0,1,.1.54l-.3.15a2.73,2.73,0,0,1,.27-.37,3.92,3.92,0,0,1,.58-.55,3.46,3.46,0,0,1,.92-.48,3.56,3.56,0,0,1,1.23-.2,4.7,4.7,0,0,1,.62,0,3.26,3.26,0,0,1,.7.15,2.47,2.47,0,0,1,.66.3,1.66,1.66,0,0,1,.49.46,1.21,1.21,0,0,1,.18.68,3.08,3.08,0,0,1-.47,1.73,1.4,1.4,0,0,1-1.2.71,2,2,0,0,1-.6-.06.87.87,0,0,1-.29-.15,1.1,1.1,0,0,0-.26-.15,1.72,1.72,0,0,0-.55-.06,2.46,2.46,0,0,0-.72.1,1.9,1.9,0,0,0-.62.31,1.6,1.6,0,0,0-.45.52,1.53,1.53,0,0,0-.16.72v5.47a4.46,4.46,0,0,1-.09.91,1,1,0,0,1-.48.69A2.6,2.6,0,0,1,272.5,33.2Z"/><path class="cls-3" d="M287.7,33.41a6.49,6.49,0,0,1-2.34-.46,7.19,7.19,0,0,1-2.11-1.32,6.31,6.31,0,0,1-1.51-2,6.14,6.14,0,0,1-.56-2.63,6.24,6.24,0,0,1,.51-2.52,7,7,0,0,1,1.42-2.06A6.75,6.75,0,0,1,285.17,21a6.13,6.13,0,0,1,2.49-.51,6.33,6.33,0,0,1,3.26.86,6.64,6.64,0,0,1,2.34,2.34,6.71,6.71,0,0,1,.31,6A6.59,6.59,0,0,1,290,33,6.38,6.38,0,0,1,287.7,33.41Zm-.05-3.78a2.83,2.83,0,0,0,1.23-.29,2.74,2.74,0,0,0,1.05-.9,2.61,2.61,0,0,0,.42-1.53,2.77,2.77,0,0,0-.34-1.4,2.58,2.58,0,0,0-1-.94,2.88,2.88,0,0,0-1.41-.33,2.52,2.52,0,0,0-1.34.34,2.85,2.85,0,0,0-1,1,2.66,2.66,0,0,0-.36,1.38,2.71,2.71,0,0,0,.41,1.52,2.64,2.64,0,0,0,1,.9A2.92,2.92,0,0,0,287.65,29.63Z"/><path class="cls-3" d="M305.31,22.55a2.08,2.08,0,0,1-1.3.61,1.91,1.91,0,0,1-1.25-.74,1.88,1.88,0,0,1-.63-1.38,2.23,2.23,0,0,1,.88-1.37l3.73-3.3A1.75,1.75,0,0,1,308,15.8a2,2,0,0,1,1.24.77,1.75,1.75,0,0,1,.61,1.34,2.19,2.19,0,0,1-.89,1.36Zm3.14,10.72a2,2,0,0,1-1.44-.42,2.15,2.15,0,0,1-.41-1.48V17.62a2.05,2.05,0,0,1,.41-1.46,2.05,2.05,0,0,1,1.47-.41,2,2,0,0,1,1.46.42,2.19,2.19,0,0,1,.41,1.5V31.4a2.05,2.05,0,0,1-.41,1.46A2.08,2.08,0,0,1,308.45,33.27Z"/><path class="cls-3" d="M315.38,22.55a2,2,0,0,1-1.3.61,1.91,1.91,0,0,1-1.25-.73,1.86,1.86,0,0,1-.62-1.38,2.16,2.16,0,0,1,.87-1.37l3.73-3.3a1.81,1.81,0,0,1,1.29-.58,2.09,2.09,0,0,1,1.24.78,1.74,1.74,0,0,1,.61,1.34,2.26,2.26,0,0,1-.89,1.36Zm3.15,10.73a1.92,1.92,0,0,1-1.44-.43,2.05,2.05,0,0,1-.41-1.47V17.63a2,2,0,0,1,.41-1.46,2.72,2.72,0,0,1,2.92,0,2.1,2.1,0,0,1,.42,1.5V31.4a2,2,0,0,1-.42,1.47A2.1,2.1,0,0,1,318.53,33.28Z"/><path class="cls-2" d="M114.16,15.61a3.87,3.87,0,0,1,.79.07.9.9,0,0,1,.59.43,2.19,2.19,0,0,1,.22,1.15,2.14,2.14,0,0,1-.22,1.12.93.93,0,0,1-.6.43,4.11,4.11,0,0,1-.8.07h-4V31.25a4.29,4.29,0,0,1-.09.9,1.06,1.06,0,0,1-.48.69,3.4,3.4,0,0,1-2.61,0,1.08,1.08,0,0,1-.49-.7,4.53,4.53,0,0,1-.08-.91V18.88h-4a3.94,3.94,0,0,1-.77-.08,1,1,0,0,1-.61-.43,2,2,0,0,1-.24-1.14,2,2,0,0,1,.24-1.12.93.93,0,0,1,.61-.43,3.94,3.94,0,0,1,.77-.07Z"/><path class="cls-2" d="M119.73,33.11a2.48,2.48,0,0,1-1.31-.26,1.11,1.11,0,0,1-.48-.72,4.7,4.7,0,0,1-.09-.92V22.48a4.42,4.42,0,0,1,.09-.92,1.06,1.06,0,0,1,.49-.69,2.52,2.52,0,0,1,1.32-.26,2.45,2.45,0,0,1,1.26.24,1.06,1.06,0,0,1,.49.55,1.73,1.73,0,0,1,.1.54l-.3.15a2.39,2.39,0,0,1,.26-.37,4,4,0,0,1,.59-.55,3.55,3.55,0,0,1,.91-.48,3.43,3.43,0,0,1,1.24-.2,4.55,4.55,0,0,1,.61,0,3,3,0,0,1,.7.15,2.4,2.4,0,0,1,.67.3,1.51,1.51,0,0,1,.48.46,1.13,1.13,0,0,1,.19.67,3,3,0,0,1-.48,1.74,1.38,1.38,0,0,1-1.2.71,2.11,2.11,0,0,1-.6-.06.92.92,0,0,1-.28-.15,1.17,1.17,0,0,0-.27-.15,1.68,1.68,0,0,0-.55-.06,2.39,2.39,0,0,0-.71.1,1.9,1.9,0,0,0-.62.31,1.41,1.41,0,0,0-.45.52,1.53,1.53,0,0,0-.17.72v5.47a4.46,4.46,0,0,1-.09.91,1,1,0,0,1-.49.69A2.53,2.53,0,0,1,119.73,33.11Z"/><path class="cls-2" d="M139.13,33.1a2.34,2.34,0,0,1-1.38-.33.89.89,0,0,1-.42-.8l.25-.42a2.8,2.8,0,0,1-.58.61,4.11,4.11,0,0,1-1.11.65,4.34,4.34,0,0,1-1.66.28,4.88,4.88,0,0,1-2.19-.5,5.85,5.85,0,0,1-1.84-1.39,7.21,7.21,0,0,1-1.27-2,6.13,6.13,0,0,1,0-4.71,6.9,6.9,0,0,1,1.29-2,6.51,6.51,0,0,1,1.84-1.36,4.94,4.94,0,0,1,2.18-.5,4.09,4.09,0,0,1,1.57.27,4.32,4.32,0,0,1,1.09.61,3.43,3.43,0,0,1,.66.67l-.22-.35a1,1,0,0,1,.43-.91,2.42,2.42,0,0,1,1.39-.31,2.24,2.24,0,0,1,1.29.28,1.1,1.1,0,0,1,.47.72,4.86,4.86,0,0,1,.09.95V31.2a5.62,5.62,0,0,1-.09.92,1.07,1.07,0,0,1-.48.71A2.37,2.37,0,0,1,139.13,33.1Zm-4.37-3.73A2.13,2.13,0,0,0,136,29a2.57,2.57,0,0,0,.85-.91,2.61,2.61,0,0,0,.32-1.28,2.56,2.56,0,0,0-.32-1.28,2.42,2.42,0,0,0-.88-.89,2.3,2.3,0,0,0-1.22-.33,2.42,2.42,0,0,0-1.26.34,2.46,2.46,0,0,0-.9.91,2.5,2.5,0,0,0-.34,1.3,2.42,2.42,0,0,0,.33,1.24,2.67,2.67,0,0,0,.93.9A2.49,2.49,0,0,0,134.76,29.37Z"/><path class="cls-2" d="M144.88,33.12a1.79,1.79,0,0,1-1.31-.53,1.82,1.82,0,0,1-.54-1.34,2.06,2.06,0,0,1,.14-.73,1.81,1.81,0,0,1,.41-.62l5.68-5.5h-3.8a3.85,3.85,0,0,1-.91-.1,1.22,1.22,0,0,1-.73-.49,2.26,2.26,0,0,1-.29-1.31,2.32,2.32,0,0,1,.29-1.31,1.21,1.21,0,0,1,.73-.48,4.46,4.46,0,0,1,.91-.09h7.83a1.79,1.79,0,0,1,1.32.52,1.83,1.83,0,0,1,.53,1.33,2.14,2.14,0,0,1-.14.76,1.45,1.45,0,0,1-.39.59l-5.55,5.52h4.52a5.41,5.41,0,0,1,.93.1,1.11,1.11,0,0,1,.68.51,2.33,2.33,0,0,1,.26,1.32,2.4,2.4,0,0,1-.27,1.3,1,1,0,0,1-.7.47,4.54,4.54,0,0,1-.93.08Z"/><path class="cls-2" d="M167.7,33.11a2.41,2.41,0,0,1-1.37-.32.93.93,0,0,1-.43-.8l.25-.43a2.5,2.5,0,0,1-.57.61,4,4,0,0,1-1.11.65,4.38,4.38,0,0,1-1.67.29,5,5,0,0,1-2.18-.5,5.89,5.89,0,0,1-1.84-1.39,7,7,0,0,1-1.27-2,6,6,0,0,1-.48-2.38,5.87,5.87,0,0,1,.48-2.34,6.72,6.72,0,0,1,1.29-2,6.24,6.24,0,0,1,1.84-1.36,4.9,4.9,0,0,1,2.17-.5,4.35,4.35,0,0,1,1.58.26,4.26,4.26,0,0,1,1.08.62,3.51,3.51,0,0,1,.67.67l-.23-.35a1.05,1.05,0,0,1,.44-.91,2.4,2.4,0,0,1,1.39-.31,2.28,2.28,0,0,1,1.28.27,1.16,1.16,0,0,1,.48.73,4.86,4.86,0,0,1,.09.95v8.62a4.73,4.73,0,0,1-.09.93,1.09,1.09,0,0,1-.47.71A2.42,2.42,0,0,1,167.7,33.11Zm-4.37-3.72a2.21,2.21,0,0,0,1.2-.34,2.66,2.66,0,0,0,.85-.91,2.67,2.67,0,0,0,0-2.57,2.3,2.3,0,0,0-.87-.88,2.48,2.48,0,0,0-2.49,0,2.61,2.61,0,0,0-.9.91,2.57,2.57,0,0,0-.34,1.3,2.34,2.34,0,0,0,.34,1.24,2.56,2.56,0,0,0,.92.9A2.59,2.59,0,0,0,163.33,29.39Z"/><path class="cls-2" d="M184.8,33.37a7.28,7.28,0,0,1-3-.57,5.86,5.86,0,0,1-2.06-1.52,6.51,6.51,0,0,1-1.2-2.09,6.83,6.83,0,0,1-.4-2.3,6.51,6.51,0,0,1,.85-3.32,6.14,6.14,0,0,1,2.37-2.29,7.11,7.11,0,0,1,3.46-.83,6.22,6.22,0,0,1,2.51.46,5.12,5.12,0,0,1,2.78,2.79,4.51,4.51,0,0,1,.33,1.63,2.84,2.84,0,0,1-.66,2.05,2.27,2.27,0,0,1-1.69.67h-6a1.76,1.76,0,0,0,.46,1.07,2.73,2.73,0,0,0,1,.7,3.5,3.5,0,0,0,1.33.25,8.05,8.05,0,0,0,1-.06,4.49,4.49,0,0,0,.79-.17l.59-.23a5,5,0,0,1,.48-.18,2,2,0,0,1,.43-.1,1,1,0,0,1,.68.21,2.11,2.11,0,0,1,.57.71,1.9,1.9,0,0,1,.24.53,2.07,2.07,0,0,1,.06.5,1.35,1.35,0,0,1-.61,1.08,4.73,4.73,0,0,1-1.73.74A11.56,11.56,0,0,1,184.8,33.37ZM182.13,26h4a1.06,1.06,0,0,0,.58-.13.62.62,0,0,0,.2-.54,1.23,1.23,0,0,0-.28-.78,1.73,1.73,0,0,0-.73-.53,2.8,2.8,0,0,0-1.09-.19,3,3,0,0,0-1.35.3,2.38,2.38,0,0,0-.94.8A1.91,1.91,0,0,0,182.13,26Z"/><path class="cls-2" d="M197.33,33.16a14.17,14.17,0,0,1-1.83-.11,3.7,3.7,0,0,1-1.35-.4,2.64,2.64,0,0,1-.9-.83,4.19,4.19,0,0,1-.52-1.38,10.11,10.11,0,0,1-.17-2.06V16.83a4.49,4.49,0,0,1,.1-.93,1.21,1.21,0,0,1,.49-.7,2.39,2.39,0,0,1,1.31-.27,2.34,2.34,0,0,1,1.29.27,1.2,1.2,0,0,1,.49.71,3.82,3.82,0,0,1,.1.92V28.21a4.16,4.16,0,0,0,0,.66.8.8,0,0,0,.15.41.51.51,0,0,0,.31.2,2.4,2.4,0,0,0,.52.05,2.64,2.64,0,0,1,.62.08.91.91,0,0,1,.54.45,2.68,2.68,0,0,1,.22,1.25,2.79,2.79,0,0,1-.23,1.3.91.91,0,0,1-.53.47A2.8,2.8,0,0,1,197.33,33.16Z"/><path class="cls-2" d="M209,33.14a2.39,2.39,0,0,1-1.31-.27,1,1,0,0,1-.47-.7,4.46,4.46,0,0,1-.09-.91v-8.8a4.26,4.26,0,0,1,.09-.89,1,1,0,0,1,.49-.66,2.69,2.69,0,0,1,1.32-.25,2.37,2.37,0,0,1,1.18.22,1,1,0,0,1,.49.51,1.73,1.73,0,0,1,.11.56.91.91,0,0,0,.05.36l-.15.48a1.39,1.39,0,0,1,.39-.76,3.53,3.53,0,0,1,.85-.7,4.73,4.73,0,0,1,1.1-.49,3.93,3.93,0,0,1,1.16-.17,5,5,0,0,1,2.14.43,4.42,4.42,0,0,1,1.58,1.27,5.56,5.56,0,0,1,1,1.94,8.16,8.16,0,0,1,.34,2.43v4.55a5.43,5.43,0,0,1-.08.92,1,1,0,0,1-.48.68,2.57,2.57,0,0,1-1.34.25,2.54,2.54,0,0,1-1.32-.26,1.08,1.08,0,0,1-.49-.7,4.53,4.53,0,0,1-.09-.91V26.74a2.74,2.74,0,0,0-.27-1.27,1.76,1.76,0,0,0-.75-.8,2.33,2.33,0,0,0-1.21-.28,2.59,2.59,0,0,0-1.25.29,2,2,0,0,0-.81.81,2.59,2.59,0,0,0-.29,1.25v4.55a4.46,4.46,0,0,1-.09.91,1.08,1.08,0,0,1-.47.69A2.64,2.64,0,0,1,209,33.14Z"/><path class="cls-2" d="M227,33.15a5.25,5.25,0,0,1-2.18-.45,5.31,5.31,0,0,1-1.75-1.27,5.8,5.8,0,0,1-1.16-1.92,7.1,7.1,0,0,1-.41-2.44V22.55a4.45,4.45,0,0,1,.09-.93,1.1,1.1,0,0,1,.49-.7,2.46,2.46,0,0,1,1.32-.27,2.41,2.41,0,0,1,1.32.27,1.13,1.13,0,0,1,.47.71,4.76,4.76,0,0,1,.09.94v4.5a2.8,2.8,0,0,0,.26,1.27,1.83,1.83,0,0,0,.77.81,2.57,2.57,0,0,0,1.21.27,2.5,2.5,0,0,0,1.24-.28,2,2,0,0,0,.8-.81,2.59,2.59,0,0,0,.29-1.25V22.53a4.45,4.45,0,0,1,.09-.93,1.08,1.08,0,0,1,.49-.69,2.57,2.57,0,0,1,1.32-.26,2.31,2.31,0,0,1,1.32.28,1.1,1.1,0,0,1,.47.71,4.53,4.53,0,0,1,.09.91v8.8a4.91,4.91,0,0,1-.08.89,1,1,0,0,1-.49.66,2.52,2.52,0,0,1-1.3.25,2.92,2.92,0,0,1-1.05-.15,1.23,1.23,0,0,1-.55-.37.94.94,0,0,1-.21-.48,2.57,2.57,0,0,1,0-.45l.32-.27a2.32,2.32,0,0,1-.32.38,5.89,5.89,0,0,1-.66.58,4.26,4.26,0,0,1-1,.53A3.31,3.31,0,0,1,227,33.15Zm-.39-13.38a.82.82,0,0,1-.74-.25,2.63,2.63,0,0,1-.51-1,2,2,0,0,1-.1-1.3,1.35,1.35,0,0,1,.92-.67l4.4-1.35a.88.88,0,0,1,.73.29,2.53,2.53,0,0,1,.5,1,1.85,1.85,0,0,1,.08,1.27,1.32,1.32,0,0,1-.91.68Z"/><path class="cls-2" d="M238,33.18a2.28,2.28,0,0,1-1.3-.28,1,1,0,0,1-.48-.7,5.29,5.29,0,0,1-.07-.92V22.53a4.29,4.29,0,0,1,.09-.9,1.08,1.08,0,0,1,.49-.69,2.57,2.57,0,0,1,1.32-.26,2.11,2.11,0,0,1,1.36.36,1.51,1.51,0,0,1,.42,1.19l-.33.28a2.46,2.46,0,0,1,.3-.43,4.89,4.89,0,0,1,.65-.62,4.13,4.13,0,0,1,.94-.57,3,3,0,0,1,1.16-.23,4.31,4.31,0,0,1,1.49.24,3.82,3.82,0,0,1,1.2.7,4.38,4.38,0,0,1,.94,1.16,6.28,6.28,0,0,1,.85-1,4.25,4.25,0,0,1,1.17-.8,3.47,3.47,0,0,1,1.53-.33,4.15,4.15,0,0,1,2.49.74,4.56,4.56,0,0,1,1.53,2.11,9.38,9.38,0,0,1,.53,3.33v4.48a3.91,3.91,0,0,1-.1.91,1.14,1.14,0,0,1-.48.7,2.52,2.52,0,0,1-1.32.26,2.33,2.33,0,0,1-1.32-.28,1,1,0,0,1-.48-.71,5.41,5.41,0,0,1-.07-.91V26.81a3.71,3.71,0,0,0-.19-1.28,1.78,1.78,0,0,0-.53-.83,1.41,1.41,0,0,0-.9-.29,1.64,1.64,0,0,0-1,.28,1.72,1.72,0,0,0-.6.8,3.92,3.92,0,0,0-.2,1.35v4.47a3.19,3.19,0,0,1-.13.94,1.22,1.22,0,0,1-.53.7,2.52,2.52,0,0,1-1.34.23,2.1,2.1,0,0,1-1.25-.28,1.17,1.17,0,0,1-.45-.73,5.26,5.26,0,0,1-.08-.89V26.81a4.21,4.21,0,0,0-.18-1.3,1.65,1.65,0,0,0-.52-.83,1.49,1.49,0,0,0-.93-.27,1.59,1.59,0,0,0-1,.32,1.87,1.87,0,0,0-.59.86,3.59,3.59,0,0,0-.19,1.22v4.5a4.42,4.42,0,0,1-.09.92,1.08,1.08,0,0,1-.49.69A2.54,2.54,0,0,1,238,33.18Z"/><path class="cls-2" d="M262.9,33.42a7.09,7.09,0,0,1-3-.58,5.84,5.84,0,0,1-2.06-1.51,6.25,6.25,0,0,1-1.2-2.09,6.88,6.88,0,0,1-.4-2.3,6.48,6.48,0,0,1,.85-3.32,6.14,6.14,0,0,1,2.37-2.29,6.87,6.87,0,0,1,3.46-.83,6.22,6.22,0,0,1,2.51.46,5.23,5.23,0,0,1,1.75,1.2,4.89,4.89,0,0,1,1,1.59,4.32,4.32,0,0,1,.34,1.62,2.82,2.82,0,0,1-.66,2.05,2.28,2.28,0,0,1-1.69.68h-5.95a1.77,1.77,0,0,0,.46,1.08,2.85,2.85,0,0,0,1,.7,3.44,3.44,0,0,0,1.32.25,8.1,8.1,0,0,0,1-.06,3.7,3.7,0,0,0,.79-.18c.22-.07.41-.15.59-.22a4.32,4.32,0,0,1,.48-.19,2.63,2.63,0,0,1,.43-.1,1,1,0,0,1,.67.22,1.93,1.93,0,0,1,.58.71,2.37,2.37,0,0,1,.24.52,2.2,2.2,0,0,1,.06.5,1.35,1.35,0,0,1-.62,1.09,4.77,4.77,0,0,1-1.72.74A11.56,11.56,0,0,1,262.9,33.42ZM260.23,26h3.95a1,1,0,0,0,.58-.14.61.61,0,0,0,.2-.53,1.24,1.24,0,0,0-.28-.78,1.8,1.8,0,0,0-.74-.54,3.16,3.16,0,0,0-1.08-.19,3,3,0,0,0-1.35.3,2.39,2.39,0,0,0-.94.8A1.89,1.89,0,0,0,260.23,26Z"/><path class="cls-2" d="M272.5,33.2a2.5,2.5,0,0,1-1.31-.26,1.11,1.11,0,0,1-.48-.72,5.43,5.43,0,0,1-.08-.92V22.57a4.42,4.42,0,0,1,.09-.92,1.08,1.08,0,0,1,.49-.69,2.54,2.54,0,0,1,1.32-.26,2.52,2.52,0,0,1,1.27.24,1,1,0,0,1,.48.55,1.73,1.73,0,0,1,.1.54l-.3.15a2.73,2.73,0,0,1,.27-.37,3.92,3.92,0,0,1,.58-.55,3.46,3.46,0,0,1,.92-.48,3.56,3.56,0,0,1,1.23-.2,4.7,4.7,0,0,1,.62,0,3.26,3.26,0,0,1,.7.15,2.47,2.47,0,0,1,.66.3,1.66,1.66,0,0,1,.49.46,1.21,1.21,0,0,1,.18.68,3.08,3.08,0,0,1-.47,1.73,1.4,1.4,0,0,1-1.2.71,2,2,0,0,1-.6-.06.87.87,0,0,1-.29-.15,1.1,1.1,0,0,0-.26-.15,1.72,1.72,0,0,0-.55-.06,2.46,2.46,0,0,0-.72.1,1.9,1.9,0,0,0-.62.31,1.6,1.6,0,0,0-.45.52,1.53,1.53,0,0,0-.16.72v5.47a4.46,4.46,0,0,1-.09.91,1,1,0,0,1-.48.69A2.6,2.6,0,0,1,272.5,33.2Z"/><path class="cls-2" d="M287.7,33.41a6.49,6.49,0,0,1-2.34-.46,7.19,7.19,0,0,1-2.11-1.32,6.31,6.31,0,0,1-1.51-2,6.14,6.14,0,0,1-.56-2.63,6.24,6.24,0,0,1,.51-2.52,7,7,0,0,1,1.42-2.06A6.75,6.75,0,0,1,285.17,21a6.13,6.13,0,0,1,2.49-.51,6.33,6.33,0,0,1,3.26.86,6.64,6.64,0,0,1,2.34,2.34,6.71,6.71,0,0,1,.31,6A6.59,6.59,0,0,1,290,33,6.38,6.38,0,0,1,287.7,33.41Zm-.05-3.78a2.83,2.83,0,0,0,1.23-.29,2.74,2.74,0,0,0,1.05-.9,2.61,2.61,0,0,0,.42-1.53,2.77,2.77,0,0,0-.34-1.4,2.58,2.58,0,0,0-1-.94,2.88,2.88,0,0,0-1.41-.33,2.52,2.52,0,0,0-1.34.34,2.85,2.85,0,0,0-1,1,2.66,2.66,0,0,0-.36,1.38,2.71,2.71,0,0,0,.41,1.52,2.64,2.64,0,0,0,1,.9A2.92,2.92,0,0,0,287.65,29.63Z"/><path class="cls-2" d="M305.31,22.55a2.08,2.08,0,0,1-1.3.61,1.91,1.91,0,0,1-1.25-.74,1.88,1.88,0,0,1-.63-1.38,2.23,2.23,0,0,1,.88-1.37l3.73-3.3A1.75,1.75,0,0,1,308,15.8a2,2,0,0,1,1.24.77,1.75,1.75,0,0,1,.61,1.34,2.19,2.19,0,0,1-.89,1.36Zm3.14,10.72a2,2,0,0,1-1.44-.42,2.15,2.15,0,0,1-.41-1.48V17.62a2.05,2.05,0,0,1,.41-1.46,2.05,2.05,0,0,1,1.47-.41,2,2,0,0,1,1.46.42,2.19,2.19,0,0,1,.41,1.5V31.4a2.05,2.05,0,0,1-.41,1.46A2.08,2.08,0,0,1,308.45,33.27Z"/><path class="cls-2" d="M315.38,22.55a2,2,0,0,1-1.3.61,1.91,1.91,0,0,1-1.25-.73,1.86,1.86,0,0,1-.62-1.38,2.16,2.16,0,0,1,.87-1.37l3.73-3.3a1.81,1.81,0,0,1,1.29-.58,2.09,2.09,0,0,1,1.24.78,1.74,1.74,0,0,1,.61,1.34,2.26,2.26,0,0,1-.89,1.36Zm3.15,10.73a1.92,1.92,0,0,1-1.44-.43,2.05,2.05,0,0,1-.41-1.47V17.63a2,2,0,0,1,.41-1.46,2.72,2.72,0,0,1,2.92,0,2.1,2.1,0,0,1,.42,1.5V31.4a2,2,0,0,1-.42,1.47A2.1,2.1,0,0,1,318.53,33.28Z"/><path class="cls-4" d="M55.46,33.81c0,2.27-.4,3.89-1.18,4.85a4.36,4.36,0,0,1-3.59,1.45,5.6,5.6,0,0,1-2.57-.5,3.25,3.25,0,0,1-1.48-1.85,11,11,0,0,1-.55-3.61L46,18.48a6.3,6.3,0,0,1-3.21-.73,2.58,2.58,0,0,1-1.26-2.46A2.77,2.77,0,0,1,42.71,13,5.16,5.16,0,0,1,46,12.1l2.3,0,2.1,0c2,0,3.36.34,4,1a5,5,0,0,1,1,3.59Z"/><path class="cls-4" d="M73.14,33.81q0,3.4-1.18,4.85a4.36,4.36,0,0,1-3.59,1.45,5.53,5.53,0,0,1-2.56-.5,3.23,3.23,0,0,1-1.49-1.85,11,11,0,0,1-.55-3.61l-.06-15.67a6.32,6.32,0,0,1-3.22-.73,2.6,2.6,0,0,1-1.26-2.46A2.77,2.77,0,0,1,60.39,13a5.16,5.16,0,0,1,3.24-.9l2.3,0,2.1,0c2,0,3.36.34,4,1a5,5,0,0,1,1,3.59Z"/><path class="cls-5" d="M55.46,33.81c0,2.27-.4,3.89-1.18,4.85a4.36,4.36,0,0,1-3.59,1.45,5.6,5.6,0,0,1-2.57-.5,3.25,3.25,0,0,1-1.48-1.85,11,11,0,0,1-.55-3.61L46,18.48a6.3,6.3,0,0,1-3.21-.73,2.58,2.58,0,0,1-1.26-2.46A2.77,2.77,0,0,1,42.71,13,5.16,5.16,0,0,1,46,12.1l2.3,0,2.1,0c2,0,3.36.34,4,1a5,5,0,0,1,1,3.59Z"/><path class="cls-5" d="M73.14,33.81q0,3.4-1.18,4.85a4.36,4.36,0,0,1-3.59,1.45,5.53,5.53,0,0,1-2.56-.5,3.23,3.23,0,0,1-1.49-1.85,11,11,0,0,1-.55-3.61l-.06-15.67a6.32,6.32,0,0,1-3.22-.73,2.6,2.6,0,0,1-1.26-2.46A2.77,2.77,0,0,1,60.39,13a5.16,5.16,0,0,1,3.24-.9l2.3,0,2.1,0c2,0,3.36.34,4,1a5,5,0,0,1,1,3.59Z"/></g></g></svg>