<svg xmlns="http://www.w3.org/2000/svg" viewBox="0 0 401.16 76.08"><defs><style>.cls-1{fill:#0468ad;}.cls-2{fill:#fff;}.cls-3,.cls-4{fill:none;stroke-width:5px;}.cls-3{stroke:#c8a927;stroke-linejoin:round;}.cls-4{stroke:#fff;}.cls-5{fill:#c8a927;}</style></defs><title>23t</title><g id="Layer_2" data-name="Layer 2"><g id="mesa"><rect class="cls-1" width="401.16" height="76.08" rx="32.4"/><path class="cls-2" d="M120.38,33.84a2.4,2.4,0,0,1-1.32-.28,1.14,1.14,0,0,1-.48-.72,4.08,4.08,0,0,1-.1-.93V18.26a3.85,3.85,0,0,1,.1-.91,1.11,1.11,0,0,1,.5-.71,2.31,2.31,0,0,1,1.32-.28h5.18a6.69,6.69,0,0,1,2.12.38,6,6,0,0,1,2,1.15,5.61,5.61,0,0,1,1.45,1.93,6.2,6.2,0,0,1,.55,2.72,6.68,6.68,0,0,1-.31,2,5.73,5.73,0,0,1-.94,1.8,6,6,0,0,1-1.55,1.4,6.75,6.75,0,0,1-2.13.86H122.3v3.3a3.91,3.91,0,0,1-.1.91,1.15,1.15,0,0,1-.5.71A2.35,2.35,0,0,1,120.38,33.84Zm1.93-9h3.47a2,2,0,0,0,.7-.13,2.21,2.21,0,0,0,.69-.41,2.08,2.08,0,0,0,.51-.73,2.52,2.52,0,0,0,.2-1.07,2.46,2.46,0,0,0-.3-1.25,2.09,2.09,0,0,0-.82-.82,2.54,2.54,0,0,0-1.23-.29h-3.22Zm8.62,8.48a2,2,0,0,1-1.48.54,2.24,2.24,0,0,1-1.15-1l-4.39-6.3,4.27-.55,3.22,4.63a3.39,3.39,0,0,1,.54,1,1,1,0,0,1-.13.8A3.25,3.25,0,0,1,130.93,33.34Z"/><path class="cls-2" d="M140.28,34.07a7.3,7.3,0,0,1-3-.57A5.86,5.86,0,0,1,135.2,32a6.51,6.51,0,0,1-1.2-2.09,7.09,7.09,0,0,1-.4-2.3,6.42,6.42,0,0,1,.86-3.32A6,6,0,0,1,136.82,22a7.11,7.11,0,0,1,3.46-.83,6.27,6.27,0,0,1,2.52.46,5.18,5.18,0,0,1,1.74,1.2,5.34,5.34,0,0,1,1,1.59,4.54,4.54,0,0,1,.34,1.63,2.89,2.89,0,0,1-.67,2,2.25,2.25,0,0,1-1.69.67h-6a1.77,1.77,0,0,0,.47,1.07,2.69,2.69,0,0,0,1,.7,3.5,3.5,0,0,0,1.33.25,7.94,7.94,0,0,0,1-.06,4.3,4.3,0,0,0,.79-.17c.22-.08.42-.15.59-.23a4.27,4.27,0,0,1,.49-.18,1.81,1.81,0,0,1,.42-.1,1,1,0,0,1,.68.21A2,2,0,0,1,145,31a1.65,1.65,0,0,1,.24.53,2.07,2.07,0,0,1,.06.5,1.32,1.32,0,0,1-.61,1.08,4.73,4.73,0,0,1-1.73.74A11.47,11.47,0,0,1,140.28,34.07Zm-2.68-7.4h4a1,1,0,0,0,.58-.13.62.62,0,0,0,.2-.54,1.27,1.27,0,0,0-.27-.78,1.76,1.76,0,0,0-.74-.53,2.8,2.8,0,0,0-1.09-.19,3,3,0,0,0-1.35.3,2.38,2.38,0,0,0-.94.8A1.91,1.91,0,0,0,137.6,26.67Z"/><path class="cls-2" d="M154.18,34a6.42,6.42,0,0,1-2.24-.42,6.92,6.92,0,0,1-2.1-1.21,5.8,5.8,0,0,1-1.54-2,6.35,6.35,0,0,1-.57-2.75,6.06,6.06,0,0,1,.58-2.73,6,6,0,0,1,1.52-2,6.87,6.87,0,0,1,2.09-1.21,6.37,6.37,0,0,1,2.21-.41,6.15,6.15,0,0,1,1.67.21,5.6,5.6,0,0,1,1.25.51,3.74,3.74,0,0,1,.73.53,7.16,7.16,0,0,1,.75.65,1.05,1.05,0,0,1,.3.85,1.56,1.56,0,0,1-.17.56,4.48,4.48,0,0,1-.38.59c-.52.7-1,1-1.5.95a2.58,2.58,0,0,1-.69-.25l-.6-.35a5,5,0,0,0-.61-.32,2,2,0,0,0-.75-.13,2.56,2.56,0,0,0-1.3.33,2.61,2.61,0,0,0-.91.9,2.69,2.69,0,0,0,0,2.62,2.53,2.53,0,0,0,.9.91,2.42,2.42,0,0,0,1.26.34,2.66,2.66,0,0,0,.72-.1,2.59,2.59,0,0,0,.55-.24l.35-.21a5.41,5.41,0,0,1,.58-.36,1,1,0,0,1,.55-.17,1.25,1.25,0,0,1,.74.27,4.28,4.28,0,0,1,.81.83,2.07,2.07,0,0,1,.48,1,1.13,1.13,0,0,1-.21.86,2.56,2.56,0,0,1-.85.76,3.69,3.69,0,0,1-.71.45,6.49,6.49,0,0,1-1.25.5A5.69,5.69,0,0,1,154.18,34Z"/><path class="cls-2" d="M167.13,34.06a6.21,6.21,0,0,1-2.34-.46,7.11,7.11,0,0,1-2.11-1.31,6.41,6.41,0,0,1-1.52-2,6.41,6.41,0,0,1,0-5.15A6.63,6.63,0,0,1,162.53,23a6.75,6.75,0,0,1,2.06-1.41,6,6,0,0,1,2.49-.52,6.33,6.33,0,0,1,3.26.87,6.4,6.4,0,0,1,2.34,2.34,6.71,6.71,0,0,1,.31,6,6.5,6.5,0,0,1-1.5,2,6.57,6.57,0,0,1-2.08,1.29A6.35,6.35,0,0,1,167.13,34.06Zm0-3.77a2.81,2.81,0,0,0,1.22-.3,2.67,2.67,0,0,0,1-.9,2.53,2.53,0,0,0,.43-1.52,2.74,2.74,0,0,0-.35-1.4,2.41,2.41,0,0,0-1-.94,2.83,2.83,0,0,0-1.41-.34,2.51,2.51,0,0,0-1.34.35,2.65,2.65,0,0,0-.95,1,2.7,2.7,0,0,0-.37,1.39,2.61,2.61,0,0,0,.42,1.51,2.47,2.47,0,0,0,1,.9A3,3,0,0,0,167.08,30.29Z"/><path class="cls-2" d="M177.45,33.87a2.48,2.48,0,0,1-1.31-.26,1.11,1.11,0,0,1-.48-.72,4.63,4.63,0,0,1-.08-.92V23.24a4.42,4.42,0,0,1,.09-.92,1.08,1.08,0,0,1,.49-.69,2.54,2.54,0,0,1,1.32-.26,2.52,2.52,0,0,1,1.27.24,1,1,0,0,1,.48.55,1.73,1.73,0,0,1,.1.54l-.3.15a2.39,2.39,0,0,1,.26-.37,4.66,4.66,0,0,1,.59-.55,3.46,3.46,0,0,1,.92-.48,3.34,3.34,0,0,1,1.23-.2,4.45,4.45,0,0,1,.61,0,3,3,0,0,1,.7.15,2.4,2.4,0,0,1,.67.3,1.51,1.51,0,0,1,.48.46,1.14,1.14,0,0,1,.19.68,3.08,3.08,0,0,1-.47,1.73,1.4,1.4,0,0,1-1.21.71,2,2,0,0,1-.59-.06.87.87,0,0,1-.29-.15,1.1,1.1,0,0,0-.26-.15,1.72,1.72,0,0,0-.55-.06,2.46,2.46,0,0,0-.72.1,1.9,1.9,0,0,0-.62.31,1.6,1.6,0,0,0-.45.52,1.53,1.53,0,0,0-.17.72V32a4.46,4.46,0,0,1-.09.91,1,1,0,0,1-.48.69A2.6,2.6,0,0,1,177.45,33.87Z"/><path class="cls-2" d="M187.43,21.58h2.75l3.45-.1a4.29,4.29,0,0,1,.9.09,1.08,1.08,0,0,1,.7.49,2.31,2.31,0,0,1,.28,1.32,2.25,2.25,0,0,1-.27,1.25,1.1,1.1,0,0,1-.69.51,3,3,0,0,1-.92.11l-3.27-.07-3,0a1.26,1.26,0,0,1-1-.46,2.55,2.55,0,0,1-.29-1.39,2.15,2.15,0,0,1,.35-1.34A1.27,1.27,0,0,1,187.43,21.58Zm5.65,12.3a7.45,7.45,0,0,1-2.2-.28,3.32,3.32,0,0,1-2.39-2.31,6.94,6.94,0,0,1-.29-2.11V19.05a4.15,4.15,0,0,1,.09-.92,1.09,1.09,0,0,1,.48-.67,2.53,2.53,0,0,1,1.31-.26,2.26,2.26,0,0,1,1.29.28,1.1,1.1,0,0,1,.49.71,4.53,4.53,0,0,1,.09.91V29a3,3,0,0,0,.06.66.88.88,0,0,0,.19.39.72.72,0,0,0,.35.17,2.19,2.19,0,0,0,.55.05,4.13,4.13,0,0,1,1,.11,1,1,0,0,1,.66.45A2.13,2.13,0,0,1,195,32a2.39,2.39,0,0,1-.28,1.3,1,1,0,0,1-.71.48A5.41,5.41,0,0,1,193.08,33.88Z"/><path class="cls-2" d="M203.63,34.11a7.14,7.14,0,0,1-3-.58A5.72,5.72,0,0,1,198.55,32a6.51,6.51,0,0,1-1.2-2.09,7.09,7.09,0,0,1-.4-2.3,6.39,6.39,0,0,1,.86-3.32A6,6,0,0,1,200.17,22a7,7,0,0,1,3.46-.83,6.18,6.18,0,0,1,2.51.46,5.12,5.12,0,0,1,2.78,2.79,4.5,4.5,0,0,1,.33,1.62,2.82,2.82,0,0,1-.66,2.05,2.26,2.26,0,0,1-1.69.68h-6a1.78,1.78,0,0,0,.47,1.08,2.81,2.81,0,0,0,1,.7,3.5,3.5,0,0,0,1.33.25,7.94,7.94,0,0,0,1-.06,4.49,4.49,0,0,0,.79-.17l.59-.23.49-.19a2.53,2.53,0,0,1,.42-.1,1,1,0,0,1,.68.22,2,2,0,0,1,.57.71,1.71,1.71,0,0,1,.24.52,2.2,2.2,0,0,1,.06.5A1.34,1.34,0,0,1,208,33.1a4.73,4.73,0,0,1-1.73.74A11.53,11.53,0,0,1,203.63,34.11ZM201,26.71h4a1,1,0,0,0,.58-.13.65.65,0,0,0,.2-.54,1.21,1.21,0,0,0-.28-.78,1.77,1.77,0,0,0-.73-.54,3.27,3.27,0,0,0-2.44.12,2.44,2.44,0,0,0-.94.79A2,2,0,0,0,201,26.71Z"/><path class="cls-2" d="M224.07,34.12a7.28,7.28,0,0,1-3-.57A5.86,5.86,0,0,1,219,32a6.51,6.51,0,0,1-1.2-2.09,7.09,7.09,0,0,1-.4-2.3,6.51,6.51,0,0,1,.85-3.32A6.14,6.14,0,0,1,220.62,22a7.11,7.11,0,0,1,3.46-.83,6.22,6.22,0,0,1,2.51.46,5.12,5.12,0,0,1,2.78,2.79,4.51,4.51,0,0,1,.33,1.63,2.84,2.84,0,0,1-.66,2.05,2.25,2.25,0,0,1-1.69.67H221.4a1.76,1.76,0,0,0,.46,1.07,2.73,2.73,0,0,0,1,.7,3.5,3.5,0,0,0,1.33.25,7.94,7.94,0,0,0,1-.06,4.49,4.49,0,0,0,.79-.17l.59-.23.49-.19a2.45,2.45,0,0,1,.42-.09,1,1,0,0,1,.68.21,2.11,2.11,0,0,1,.57.71,1.75,1.75,0,0,1,.24.53,2.07,2.07,0,0,1,.06.5,1.32,1.32,0,0,1-.61,1.08,4.73,4.73,0,0,1-1.73.74A11.56,11.56,0,0,1,224.07,34.12Zm-2.67-7.4h3.95a1,1,0,0,0,.58-.13.62.62,0,0,0,.2-.54,1.23,1.23,0,0,0-.28-.78,1.73,1.73,0,0,0-.73-.53,2.8,2.8,0,0,0-1.09-.19,3,3,0,0,0-1.35.3,2.38,2.38,0,0,0-.94.8A1.91,1.91,0,0,0,221.4,26.72Z"/><path class="cls-2" d="M233.67,33.88a2.5,2.5,0,0,1-1.31-.26,1.08,1.08,0,0,1-.47-.7,4.63,4.63,0,0,1-.09-.92V23.2a4.1,4.1,0,0,1,.09-.88,1,1,0,0,1,.49-.67,2.71,2.71,0,0,1,1.33-.25,2.47,2.47,0,0,1,1.17.22,1,1,0,0,1,.49.51,1.73,1.73,0,0,1,.11.56,1,1,0,0,0,.05.37l-.15.47a1.43,1.43,0,0,1,.39-.76,3.53,3.53,0,0,1,.85-.7,4.73,4.73,0,0,1,1.1-.49,4.29,4.29,0,0,1,1.16-.17,4.9,4.9,0,0,1,2.14.44,4.41,4.41,0,0,1,1.59,1.26,5.81,5.81,0,0,1,1,1.94,8.18,8.18,0,0,1,.34,2.44V32a5.4,5.4,0,0,1-.08.91,1,1,0,0,1-.48.68,2.57,2.57,0,0,1-1.34.25,2.45,2.45,0,0,1-1.32-.26,1.06,1.06,0,0,1-.49-.7,4.53,4.53,0,0,1-.08-.91V27.48a2.87,2.87,0,0,0-.26-1.27,1.88,1.88,0,0,0-.75-.8,2.39,2.39,0,0,0-1.22-.28,2.59,2.59,0,0,0-1.25.29,2,2,0,0,0-.81.81,2.59,2.59,0,0,0-.29,1.25V32a4.46,4.46,0,0,1-.09.91,1.08,1.08,0,0,1-.47.69A2.53,2.53,0,0,1,233.67,33.88Z"/><path class="cls-2" d="M254.27,33.92a1.79,1.79,0,0,1-1.31-.54,1.82,1.82,0,0,1-.54-1.34,2,2,0,0,1,.14-.72,1.66,1.66,0,0,1,.42-.63l5.67-5.5h-3.8a3.91,3.91,0,0,1-.91-.1,1.22,1.22,0,0,1-.72-.49,2.19,2.19,0,0,1-.29-1.31,2.26,2.26,0,0,1,.29-1.31,1.17,1.17,0,0,1,.72-.48,5.43,5.43,0,0,1,.92-.08h7.82A1.82,1.82,0,0,1,264,22a1.79,1.79,0,0,1,.52,1.32,2.23,2.23,0,0,1-.14.77,1.42,1.42,0,0,1-.39.58l-5.55,5.52H263a3.82,3.82,0,0,1,.92.1,1.1,1.1,0,0,1,.69.5,2.54,2.54,0,0,1,.26,1.32,2.28,2.28,0,0,1-.28,1.3,1,1,0,0,1-.7.48,5.29,5.29,0,0,1-.92.07Z"/><path class="cls-2" d="M268.91,19.63a2.47,2.47,0,0,1-1.35-.28,1.11,1.11,0,0,1-.49-.73,5.11,5.11,0,0,1,0-1.91,1.09,1.09,0,0,1,.5-.7,2.71,2.71,0,0,1,1.36-.26,2.37,2.37,0,0,1,1.33.28,1.09,1.09,0,0,1,.49.72,6,6,0,0,1,.08,1,5.62,5.62,0,0,1-.08.92,1.09,1.09,0,0,1-.49.71A2.53,2.53,0,0,1,268.91,19.63Zm0,14.3a2.57,2.57,0,0,1-1.33-.27,1,1,0,0,1-.47-.7,5.31,5.31,0,0,1-.08-.91V23.32a4.53,4.53,0,0,1,.09-.91,1.08,1.08,0,0,1,.49-.7,2.52,2.52,0,0,1,1.32-.26,2.24,2.24,0,0,1,1.29.28,1.1,1.1,0,0,1,.47.71,4.62,4.62,0,0,1,.09.94v8.7a5.4,5.4,0,0,1-.08.91,1.06,1.06,0,0,1-.48.69A2.62,2.62,0,0,1,268.9,33.93Z"/><path class="cls-2" d="M278.62,33.61a5,5,0,0,1-2.16-.49,6,6,0,0,1-1.79-1.34,6.76,6.76,0,0,1-1.22-2A6.12,6.12,0,0,1,273,27.5a6,6,0,0,1,.45-2.31,6.3,6.3,0,0,1,3-3.25,4.9,4.9,0,0,1,2.12-.48,3.84,3.84,0,0,1,1.9.43,3.34,3.34,0,0,1,1.24,1.26,6.4,6.4,0,0,1,.72,1.92,12.56,12.56,0,0,1,.23,2.49,11.33,11.33,0,0,1-.41,3.21,4.27,4.27,0,0,1-1.3,2.1A3.61,3.61,0,0,1,278.62,33.61Zm.45,5.47a6.9,6.9,0,0,1-1.76-.22,7.5,7.5,0,0,1-1.59-.61,4.45,4.45,0,0,1-1.15-.8,1.21,1.21,0,0,1-.42-.85,1.77,1.77,0,0,1,.15-.73,2.46,2.46,0,0,1,.45-.67,4.94,4.94,0,0,1,.6-.57.92.92,0,0,1,.6-.2,1,1,0,0,1,.62.19c.19.12.38.26.59.41a3.41,3.41,0,0,0,.79.41,3.14,3.14,0,0,0,1.2.19,2.32,2.32,0,0,0,.94-.19,1.92,1.92,0,0,0,.75-.55,2.85,2.85,0,0,0,.68-1.93V22.61a1.21,1.21,0,0,1,.51-.94,2.49,2.49,0,0,1,1.34-.29,2.21,2.21,0,0,1,1.25.27,1.06,1.06,0,0,1,.46.69,4.29,4.29,0,0,1,.09.9v9.87a5.88,5.88,0,0,1-.52,2.54,5.71,5.71,0,0,1-1.4,1.87,6.35,6.35,0,0,1-4.18,1.56Zm0-9.1a2.13,2.13,0,0,0,1.2-.34,2.45,2.45,0,0,0,.84-.88,2.49,2.49,0,0,0,.31-1.25,2.47,2.47,0,0,0-.31-1.25,2.39,2.39,0,0,0-.85-.88,2.35,2.35,0,0,0-1.21-.32,2.21,2.21,0,0,0-1.2.33,2.56,2.56,0,0,0-.84.89,2.47,2.47,0,0,0-.31,1.25,2.39,2.39,0,0,0,.32,1.22,2.53,2.53,0,0,0,.86.89A2.17,2.17,0,0,0,279.05,30Z"/><path class="cls-2" d="M289.12,33.94a1.79,1.79,0,0,1-1.31-.54,1.82,1.82,0,0,1-.54-1.34,2,2,0,0,1,.14-.72,1.85,1.85,0,0,1,.41-.63l5.68-5.5h-3.8a3.91,3.91,0,0,1-.91-.1,1.18,1.18,0,0,1-.72-.49,2.17,2.17,0,0,1-.29-1.31,2.28,2.28,0,0,1,.29-1.31,1.17,1.17,0,0,1,.72-.48,5.43,5.43,0,0,1,.92-.08h7.82a1.81,1.81,0,0,1,1.85,1.85,2.23,2.23,0,0,1-.14.77,1.42,1.42,0,0,1-.39.58l-5.55,5.53h4.52a3.84,3.84,0,0,1,.93.1,1.14,1.14,0,0,1,.69.5,2.57,2.57,0,0,1,.26,1.32,2.28,2.28,0,0,1-.28,1.3,1,1,0,0,1-.7.48,5.29,5.29,0,0,1-.92.07Z"/><path class="cls-2" d="M312,33.93a2.34,2.34,0,0,1-1.38-.33.89.89,0,0,1-.42-.8l.25-.42a2.8,2.8,0,0,1-.58.61,4.11,4.11,0,0,1-1.11.65,4.34,4.34,0,0,1-1.66.28,4.88,4.88,0,0,1-2.19-.5A5.85,5.85,0,0,1,303,32a7.21,7.21,0,0,1-1.27-2,6.13,6.13,0,0,1,0-4.71,6.9,6.9,0,0,1,1.29-2A6.37,6.37,0,0,1,304.88,22a4.93,4.93,0,0,1,2.17-.5,4.11,4.11,0,0,1,1.58.27,4.5,4.5,0,0,1,1.09.61,3.2,3.2,0,0,1,.66.68l-.23-.36a1.05,1.05,0,0,1,.44-.91,2.42,2.42,0,0,1,1.39-.31,2.24,2.24,0,0,1,1.29.28,1.1,1.1,0,0,1,.47.72,4.86,4.86,0,0,1,.09.95V32a5.62,5.62,0,0,1-.08.92,1.07,1.07,0,0,1-.48.71A2.39,2.39,0,0,1,312,33.93Zm-4.38-3.73a2.13,2.13,0,0,0,1.2-.34,2.51,2.51,0,0,0,.86-.91,2.61,2.61,0,0,0,.32-1.28,2.56,2.56,0,0,0-.32-1.28,2.42,2.42,0,0,0-.88-.89,2.3,2.3,0,0,0-1.22-.33,2.49,2.49,0,0,0-1.27.34,2.7,2.7,0,0,0-.9.91,2.59,2.59,0,0,0-.33,1.3,2.42,2.42,0,0,0,.33,1.24,2.59,2.59,0,0,0,.93.9A2.48,2.48,0,0,0,307.57,30.2Z"/><path class="cls-2" d="M321.5,33.63a4.82,4.82,0,0,1-2.16-.49,5.57,5.57,0,0,1-1.79-1.34,6.33,6.33,0,0,1-1.23-1.95,6.22,6.22,0,0,1-.44-2.32,6,6,0,0,1,.45-2.31,6.2,6.2,0,0,1,1.24-1.93,5.82,5.82,0,0,1,1.8-1.32,4.73,4.73,0,0,1,2.11-.49,3.84,3.84,0,0,1,1.9.44,3.33,3.33,0,0,1,1.25,1.25,6.74,6.74,0,0,1,.71,1.93,11.79,11.79,0,0,1,.24,2.48,11,11,0,0,1-.42,3.22,4.25,4.25,0,0,1-1.3,2.1A3.58,3.58,0,0,1,321.5,33.63Zm.44,5.48a7,7,0,0,1-1.76-.23,7.92,7.92,0,0,1-1.59-.6,4.91,4.91,0,0,1-1.15-.8,1.23,1.23,0,0,1-.42-.85,1.81,1.81,0,0,1,.15-.74,2.58,2.58,0,0,1,.45-.66,6.14,6.14,0,0,1,.6-.58,1,1,0,0,1,.6-.19,1.16,1.16,0,0,1,.63.18l.58.42a3.85,3.85,0,0,0,.79.41,3.43,3.43,0,0,0,1.2.19,2.47,2.47,0,0,0,.94-.19,2,2,0,0,0,.75-.55,2.85,2.85,0,0,0,.5-.85A2.9,2.9,0,0,0,324.4,33V22.63a1.22,1.22,0,0,1,.52-.93,2.36,2.36,0,0,1,1.33-.29,2.28,2.28,0,0,1,1.25.26,1.13,1.13,0,0,1,.47.69,5.11,5.11,0,0,1,.08.9v9.88a5.84,5.84,0,0,1-.53,2.53,5.75,5.75,0,0,1-1.4,1.88,6.42,6.42,0,0,1-1.95,1.16A6.51,6.51,0,0,1,321.94,39.11Zm0-9.1a2.16,2.16,0,0,0,1.21-.34,2.54,2.54,0,0,0,.83-.89,2.45,2.45,0,0,0,.32-1.25,2.5,2.5,0,0,0-.32-1.25,2.36,2.36,0,0,0-.85-.87,2.24,2.24,0,0,0-1.21-.33,2.13,2.13,0,0,0-1.2.34,2.48,2.48,0,0,0-.84.89,2.54,2.54,0,0,0-.31,1.25,2.33,2.33,0,0,0,.33,1.22,2.53,2.53,0,0,0,.86.89A2.22,2.22,0,0,0,321.92,30Z"/><path class="cls-3" d="M120.38,33.84a2.4,2.4,0,0,1-1.32-.28,1.14,1.14,0,0,1-.48-.72,4.08,4.08,0,0,1-.1-.93V18.26a3.85,3.85,0,0,1,.1-.91,1.11,1.11,0,0,1,.5-.71,2.31,2.31,0,0,1,1.32-.28h5.18a6.69,6.69,0,0,1,2.12.38,6,6,0,0,1,2,1.15,5.61,5.61,0,0,1,1.45,1.93,6.2,6.2,0,0,1,.55,2.72,6.68,6.68,0,0,1-.31,2,5.73,5.73,0,0,1-.94,1.8,6,6,0,0,1-1.55,1.4,6.75,6.75,0,0,1-2.13.86H122.3v3.3a3.91,3.91,0,0,1-.1.91,1.15,1.15,0,0,1-.5.71A2.35,2.35,0,0,1,120.38,33.84Zm1.93-9h3.47a2,2,0,0,0,.7-.13,2.21,2.21,0,0,0,.69-.41,2.08,2.08,0,0,0,.51-.73,2.52,2.52,0,0,0,.2-1.07,2.46,2.46,0,0,0-.3-1.25,2.09,2.09,0,0,0-.82-.82,2.54,2.54,0,0,0-1.23-.29h-3.22Zm8.62,8.48a2,2,0,0,1-1.48.54,2.24,2.24,0,0,1-1.15-1l-4.39-6.3,4.27-.55,3.22,4.63a3.39,3.39,0,0,1,.54,1,1,1,0,0,1-.13.8A3.25,3.25,0,0,1,130.93,33.34Z"/><path class="cls-3" d="M140.28,34.07a7.3,7.3,0,0,1-3-.57A5.86,5.86,0,0,1,135.2,32a6.51,6.51,0,0,1-1.2-2.09,7.09,7.09,0,0,1-.4-2.3,6.42,6.42,0,0,1,.86-3.32A6,6,0,0,1,136.82,22a7.11,7.11,0,0,1,3.46-.83,6.27,6.27,0,0,1,2.52.46,5.18,5.18,0,0,1,1.74,1.2,5.34,5.34,0,0,1,1,1.59,4.54,4.54,0,0,1,.34,1.63,2.89,2.89,0,0,1-.67,2,2.25,2.25,0,0,1-1.69.67h-6a1.77,1.77,0,0,0,.47,1.07,2.69,2.69,0,0,0,1,.7,3.5,3.5,0,0,0,1.33.25,7.94,7.94,0,0,0,1-.06,4.3,4.3,0,0,0,.79-.17c.22-.08.42-.15.59-.23a4.27,4.27,0,0,1,.49-.18,1.81,1.81,0,0,1,.42-.1,1,1,0,0,1,.68.21A2,2,0,0,1,145,31a1.65,1.65,0,0,1,.24.53,2.07,2.07,0,0,1,.06.5,1.32,1.32,0,0,1-.61,1.08,4.73,4.73,0,0,1-1.73.74A11.47,11.47,0,0,1,140.28,34.07Zm-2.68-7.4h4a1,1,0,0,0,.58-.13.62.62,0,0,0,.2-.54,1.27,1.27,0,0,0-.27-.78,1.76,1.76,0,0,0-.74-.53,2.8,2.8,0,0,0-1.09-.19,3,3,0,0,0-1.35.3,2.38,2.38,0,0,0-.94.8A1.91,1.91,0,0,0,137.6,26.67Z"/><path class="cls-3" d="M154.18,34a6.42,6.42,0,0,1-2.24-.42,6.92,6.92,0,0,1-2.1-1.21,5.8,5.8,0,0,1-1.54-2,6.35,6.35,0,0,1-.57-2.75,6.06,6.06,0,0,1,.58-2.73,6,6,0,0,1,1.52-2,6.87,6.87,0,0,1,2.09-1.21,6.37,6.37,0,0,1,2.21-.41,6.15,6.15,0,0,1,1.67.21,5.6,5.6,0,0,1,1.25.51,3.74,3.74,0,0,1,.73.53,7.16,7.16,0,0,1,.75.65,1.05,1.05,0,0,1,.3.85,1.56,1.56,0,0,1-.17.56,4.48,4.48,0,0,1-.38.59c-.52.7-1,1-1.5.95a2.58,2.58,0,0,1-.69-.25l-.6-.35a5,5,0,0,0-.61-.32,2,2,0,0,0-.75-.13,2.56,2.56,0,0,0-1.3.33,2.61,2.61,0,0,0-.91.9,2.69,2.69,0,0,0,0,2.62,2.53,2.53,0,0,0,.9.91,2.42,2.42,0,0,0,1.26.34,2.66,2.66,0,0,0,.72-.1,2.59,2.59,0,0,0,.55-.24l.35-.21a5.41,5.41,0,0,1,.58-.36,1,1,0,0,1,.55-.17,1.25,1.25,0,0,1,.74.27,4.28,4.28,0,0,1,.81.83,2.07,2.07,0,0,1,.48,1,1.13,1.13,0,0,1-.21.86,2.56,2.56,0,0,1-.85.76,3.69,3.69,0,0,1-.71.45,6.49,6.49,0,0,1-1.25.5A5.69,5.69,0,0,1,154.18,34Z"/><path class="cls-3" d="M167.13,34.06a6.21,6.21,0,0,1-2.34-.46,7.11,7.11,0,0,1-2.11-1.31,6.41,6.41,0,0,1-1.52-2,6.41,6.41,0,0,1,0-5.15A6.63,6.63,0,0,1,162.53,23a6.75,6.75,0,0,1,2.06-1.41,6,6,0,0,1,2.49-.52,6.33,6.33,0,0,1,3.26.87,6.4,6.4,0,0,1,2.34,2.34,6.71,6.71,0,0,1,.31,6,6.5,6.5,0,0,1-1.5,2,6.57,6.57,0,0,1-2.08,1.29A6.35,6.35,0,0,1,167.13,34.06Zm0-3.77a2.81,2.81,0,0,0,1.22-.3,2.67,2.67,0,0,0,1-.9,2.53,2.53,0,0,0,.43-1.52,2.74,2.74,0,0,0-.35-1.4,2.41,2.41,0,0,0-1-.94,2.83,2.83,0,0,0-1.41-.34,2.51,2.51,0,0,0-1.34.35,2.65,2.65,0,0,0-.95,1,2.7,2.7,0,0,0-.37,1.39,2.61,2.61,0,0,0,.42,1.51,2.47,2.47,0,0,0,1,.9A3,3,0,0,0,167.08,30.29Z"/><path class="cls-3" d="M177.45,33.87a2.48,2.48,0,0,1-1.31-.26,1.11,1.11,0,0,1-.48-.72,4.63,4.63,0,0,1-.08-.92V23.24a4.42,4.42,0,0,1,.09-.92,1.08,1.08,0,0,1,.49-.69,2.54,2.54,0,0,1,1.32-.26,2.52,2.52,0,0,1,1.27.24,1,1,0,0,1,.48.55,1.73,1.73,0,0,1,.1.54l-.3.15a2.39,2.39,0,0,1,.26-.37,4.66,4.66,0,0,1,.59-.55,3.46,3.46,0,0,1,.92-.48,3.34,3.34,0,0,1,1.23-.2,4.45,4.45,0,0,1,.61,0,3,3,0,0,1,.7.15,2.4,2.4,0,0,1,.67.3,1.51,1.51,0,0,1,.48.46,1.14,1.14,0,0,1,.19.68,3.08,3.08,0,0,1-.47,1.73,1.4,1.4,0,0,1-1.21.71,2,2,0,0,1-.59-.06.87.87,0,0,1-.29-.15,1.1,1.1,0,0,0-.26-.15,1.72,1.72,0,0,0-.55-.06,2.46,2.46,0,0,0-.72.1,1.9,1.9,0,0,0-.62.31,1.6,1.6,0,0,0-.45.52,1.53,1.53,0,0,0-.17.72V32a4.46,4.46,0,0,1-.09.91,1,1,0,0,1-.48.69A2.6,2.6,0,0,1,177.45,33.87Z"/><path class="cls-3" d="M187.43,21.58h2.75l3.45-.1a4.29,4.29,0,0,1,.9.09,1.08,1.08,0,0,1,.7.49,2.31,2.31,0,0,1,.28,1.32,2.25,2.25,0,0,1-.27,1.25,1.1,1.1,0,0,1-.69.51,3,3,0,0,1-.92.11l-3.27-.07-3,0a1.26,1.26,0,0,1-1-.46,2.55,2.55,0,0,1-.29-1.39,2.15,2.15,0,0,1,.35-1.34A1.27,1.27,0,0,1,187.43,21.58Zm5.65,12.3a7.45,7.45,0,0,1-2.2-.28,3.32,3.32,0,0,1-2.39-2.31,6.94,6.94,0,0,1-.29-2.11V19.05a4.15,4.15,0,0,1,.09-.92,1.09,1.09,0,0,1,.48-.67,2.53,2.53,0,0,1,1.31-.26,2.26,2.26,0,0,1,1.29.28,1.1,1.1,0,0,1,.49.71,4.53,4.53,0,0,1,.09.91V29a3,3,0,0,0,.06.66.88.88,0,0,0,.19.39.72.72,0,0,0,.35.17,2.19,2.19,0,0,0,.55.05,4.13,4.13,0,0,1,1,.11,1,1,0,0,1,.66.45A2.13,2.13,0,0,1,195,32a2.39,2.39,0,0,1-.28,1.3,1,1,0,0,1-.71.48A5.41,5.41,0,0,1,193.08,33.88Z"/><path class="cls-3" d="M203.63,34.11a7.14,7.14,0,0,1-3-.58A5.72,5.72,0,0,1,198.55,32a6.51,6.51,0,0,1-1.2-2.09,7.09,7.09,0,0,1-.4-2.3,6.39,6.39,0,0,1,.86-3.32A6,6,0,0,1,200.17,22a7,7,0,0,1,3.46-.83,6.18,6.18,0,0,1,2.51.46,5.12,5.12,0,0,1,2.78,2.79,4.5,4.5,0,0,1,.33,1.62,2.82,2.82,0,0,1-.66,2.05,2.26,2.26,0,0,1-1.69.68h-6a1.78,1.78,0,0,0,.47,1.08,2.81,2.81,0,0,0,1,.7,3.5,3.5,0,0,0,1.33.25,7.94,7.94,0,0,0,1-.06,4.49,4.49,0,0,0,.79-.17l.59-.23.49-.19a2.53,2.53,0,0,1,.42-.1,1,1,0,0,1,.68.22,2,2,0,0,1,.57.71,1.71,1.71,0,0,1,.24.52,2.2,2.2,0,0,1,.06.5A1.34,1.34,0,0,1,208,33.1a4.73,4.73,0,0,1-1.73.74A11.53,11.53,0,0,1,203.63,34.11ZM201,26.71h4a1,1,0,0,0,.58-.13.65.65,0,0,0,.2-.54,1.21,1.21,0,0,0-.28-.78,1.77,1.77,0,0,0-.73-.54,3.27,3.27,0,0,0-2.44.12,2.44,2.44,0,0,0-.94.79A2,2,0,0,0,201,26.71Z"/><path class="cls-3" d="M224.07,34.12a7.28,7.28,0,0,1-3-.57A5.86,5.86,0,0,1,219,32a6.51,6.51,0,0,1-1.2-2.09,7.09,7.09,0,0,1-.4-2.3,6.51,6.51,0,0,1,.85-3.32A6.14,6.14,0,0,1,220.62,22a7.11,7.11,0,0,1,3.46-.83,6.22,6.22,0,0,1,2.51.46,5.12,5.12,0,0,1,2.78,2.79,4.51,4.51,0,0,1,.33,1.63,2.84,2.84,0,0,1-.66,2.05,2.25,2.25,0,0,1-1.69.67H221.4a1.76,1.76,0,0,0,.46,1.07,2.73,2.73,0,0,0,1,.7,3.5,3.5,0,0,0,1.33.25,7.94,7.94,0,0,0,1-.06,4.49,4.49,0,0,0,.79-.17l.59-.23.49-.19a2.45,2.45,0,0,1,.42-.09,1,1,0,0,1,.68.21,2.11,2.11,0,0,1,.57.71,1.75,1.75,0,0,1,.24.53,2.07,2.07,0,0,1,.06.5,1.32,1.32,0,0,1-.61,1.08,4.73,4.73,0,0,1-1.73.74A11.56,11.56,0,0,1,224.07,34.12Zm-2.67-7.4h3.95a1,1,0,0,0,.58-.13.62.62,0,0,0,.2-.54,1.23,1.23,0,0,0-.28-.78,1.73,1.73,0,0,0-.73-.53,2.8,2.8,0,0,0-1.09-.19,3,3,0,0,0-1.35.3,2.38,2.38,0,0,0-.94.8A1.91,1.91,0,0,0,221.4,26.72Z"/><path class="cls-3" d="M233.67,33.88a2.5,2.5,0,0,1-1.31-.26,1.08,1.08,0,0,1-.47-.7,4.63,4.63,0,0,1-.09-.92V23.2a4.1,4.1,0,0,1,.09-.88,1,1,0,0,1,.49-.67,2.71,2.71,0,0,1,1.33-.25,2.47,2.47,0,0,1,1.17.22,1,1,0,0,1,.49.51,1.73,1.73,0,0,1,.11.56,1,1,0,0,0,.05.37l-.15.47a1.43,1.43,0,0,1,.39-.76,3.53,3.53,0,0,1,.85-.7,4.73,4.73,0,0,1,1.1-.49,4.29,4.29,0,0,1,1.16-.17,4.9,4.9,0,0,1,2.14.44,4.41,4.41,0,0,1,1.59,1.26,5.81,5.81,0,0,1,1,1.94,8.18,8.18,0,0,1,.34,2.44V32a5.4,5.4,0,0,1-.08.91,1,1,0,0,1-.48.68,2.57,2.57,0,0,1-1.34.25,2.45,2.45,0,0,1-1.32-.26,1.06,1.06,0,0,1-.49-.7,4.53,4.53,0,0,1-.08-.91V27.48a2.87,2.87,0,0,0-.26-1.27,1.88,1.88,0,0,0-.75-.8,2.39,2.39,0,0,0-1.22-.28,2.59,2.59,0,0,0-1.25.29,2,2,0,0,0-.81.81,2.59,2.59,0,0,0-.29,1.25V32a4.46,4.46,0,0,1-.09.91,1.08,1.08,0,0,1-.47.69A2.53,2.53,0,0,1,233.67,33.88Z"/><path class="cls-3" d="M254.27,33.92a1.79,1.79,0,0,1-1.31-.54,1.82,1.82,0,0,1-.54-1.34,2,2,0,0,1,.14-.72,1.66,1.66,0,0,1,.42-.63l5.67-5.5h-3.8a3.91,3.91,0,0,1-.91-.1,1.22,1.22,0,0,1-.72-.49,2.19,2.19,0,0,1-.29-1.31,2.26,2.26,0,0,1,.29-1.31,1.17,1.17,0,0,1,.72-.48,5.43,5.43,0,0,1,.92-.08h7.82A1.82,1.82,0,0,1,264,22a1.79,1.79,0,0,1,.52,1.32,2.23,2.23,0,0,1-.14.77,1.42,1.42,0,0,1-.39.58l-5.55,5.52H263a3.82,3.82,0,0,1,.92.1,1.1,1.1,0,0,1,.69.5,2.54,2.54,0,0,1,.26,1.32,2.28,2.28,0,0,1-.28,1.3,1,1,0,0,1-.7.48,5.29,5.29,0,0,1-.92.07Z"/><path class="cls-3" d="M268.91,19.63a2.47,2.47,0,0,1-1.35-.28,1.11,1.11,0,0,1-.49-.73,5.11,5.11,0,0,1,0-1.91,1.09,1.09,0,0,1,.5-.7,2.71,2.71,0,0,1,1.36-.26,2.37,2.37,0,0,1,1.33.28,1.09,1.09,0,0,1,.49.72,6,6,0,0,1,.08,1,5.62,5.62,0,0,1-.08.92,1.09,1.09,0,0,1-.49.71A2.53,2.53,0,0,1,268.91,19.63Zm0,14.3a2.57,2.57,0,0,1-1.33-.27,1,1,0,0,1-.47-.7,5.31,5.31,0,0,1-.08-.91V23.32a4.53,4.53,0,0,1,.09-.91,1.08,1.08,0,0,1,.49-.7,2.52,2.52,0,0,1,1.32-.26,2.24,2.24,0,0,1,1.29.28,1.1,1.1,0,0,1,.47.71,4.62,4.62,0,0,1,.09.94v8.7a5.4,5.4,0,0,1-.08.91,1.06,1.06,0,0,1-.48.69A2.62,2.62,0,0,1,268.9,33.93Z"/><path class="cls-3" d="M278.62,33.61a5,5,0,0,1-2.16-.49,6,6,0,0,1-1.79-1.34,6.76,6.76,0,0,1-1.22-2A6.12,6.12,0,0,1,273,27.5a6,6,0,0,1,.45-2.31,6.3,6.3,0,0,1,3-3.25,4.9,4.9,0,0,1,2.12-.48,3.84,3.84,0,0,1,1.9.43,3.34,3.34,0,0,1,1.24,1.26,6.4,6.4,0,0,1,.72,1.92,12.56,12.56,0,0,1,.23,2.49,11.33,11.33,0,0,1-.41,3.21,4.27,4.27,0,0,1-1.3,2.1A3.61,3.61,0,0,1,278.62,33.61Zm.45,5.47a6.9,6.9,0,0,1-1.76-.22,7.5,7.5,0,0,1-1.59-.61,4.45,4.45,0,0,1-1.15-.8,1.21,1.21,0,0,1-.42-.85,1.77,1.77,0,0,1,.15-.73,2.46,2.46,0,0,1,.45-.67,4.94,4.94,0,0,1,.6-.57.92.92,0,0,1,.6-.2,1,1,0,0,1,.62.19c.19.12.38.26.59.41a3.41,3.41,0,0,0,.79.41,3.14,3.14,0,0,0,1.2.19,2.32,2.32,0,0,0,.94-.19,1.92,1.92,0,0,0,.75-.55,2.85,2.85,0,0,0,.68-1.93V22.61a1.21,1.21,0,0,1,.51-.94,2.49,2.49,0,0,1,1.34-.29,2.21,2.21,0,0,1,1.25.27,1.06,1.06,0,0,1,.46.69,4.29,4.29,0,0,1,.09.9v9.87a5.88,5.88,0,0,1-.52,2.54,5.71,5.71,0,0,1-1.4,1.87,6.35,6.35,0,0,1-4.18,1.56Zm0-9.1a2.13,2.13,0,0,0,1.2-.34,2.45,2.45,0,0,0,.84-.88,2.49,2.49,0,0,0,.31-1.25,2.47,2.47,0,0,0-.31-1.25,2.39,2.39,0,0,0-.85-.88,2.35,2.35,0,0,0-1.21-.32,2.21,2.21,0,0,0-1.2.33,2.56,2.56,0,0,0-.84.89,2.47,2.47,0,0,0-.31,1.25,2.39,2.39,0,0,0,.32,1.22,2.53,2.53,0,0,0,.86.89A2.17,2.17,0,0,0,279.05,30Z"/><path class="cls-3" d="M289.12,33.94a1.79,1.79,0,0,1-1.31-.54,1.82,1.82,0,0,1-.54-1.34,2,2,0,0,1,.14-.72,1.85,1.85,0,0,1,.41-.63l5.68-5.5h-3.8a3.91,3.91,0,0,1-.91-.1,1.18,1.18,0,0,1-.72-.49,2.17,2.17,0,0,1-.29-1.31,2.28,2.28,0,0,1,.29-1.31,1.17,1.17,0,0,1,.72-.48,5.43,5.43,0,0,1,.92-.08h7.82a1.81,1.81,0,0,1,1.85,1.85,2.23,2.23,0,0,1-.14.77,1.42,1.42,0,0,1-.39.58l-5.55,5.53h4.52a3.84,3.84,0,0,1,.93.1,1.14,1.14,0,0,1,.69.5,2.57,2.57,0,0,1,.26,1.32,2.28,2.28,0,0,1-.28,1.3,1,1,0,0,1-.7.48,5.29,5.29,0,0,1-.92.07Z"/><path class="cls-3" d="M312,33.93a2.34,2.34,0,0,1-1.38-.33.89.89,0,0,1-.42-.8l.25-.42a2.8,2.8,0,0,1-.58.61,4.11,4.11,0,0,1-1.11.65,4.34,4.34,0,0,1-1.66.28,4.88,4.88,0,0,1-2.19-.5A5.85,5.85,0,0,1,303,32a7.21,7.21,0,0,1-1.27-2,6.13,6.13,0,0,1,0-4.71,6.9,6.9,0,0,1,1.29-2A6.37,6.37,0,0,1,304.88,22a4.93,4.93,0,0,1,2.17-.5,4.11,4.11,0,0,1,1.58.27,4.5,4.5,0,0,1,1.09.61,3.2,3.2,0,0,1,.66.68l-.23-.36a1.05,1.05,0,0,1,.44-.91,2.42,2.42,0,0,1,1.39-.31,2.24,2.24,0,0,1,1.29.28,1.1,1.1,0,0,1,.47.72,4.86,4.86,0,0,1,.09.95V32a5.62,5.62,0,0,1-.08.92,1.07,1.07,0,0,1-.48.71A2.39,2.39,0,0,1,312,33.93Zm-4.38-3.73a2.13,2.13,0,0,0,1.2-.34,2.51,2.51,0,0,0,.86-.91,2.61,2.61,0,0,0,.32-1.28,2.56,2.56,0,0,0-.32-1.28,2.42,2.42,0,0,0-.88-.89,2.3,2.3,0,0,0-1.22-.33,2.49,2.49,0,0,0-1.27.34,2.7,2.7,0,0,0-.9.91,2.59,2.59,0,0,0-.33,1.3,2.42,2.42,0,0,0,.33,1.24,2.59,2.59,0,0,0,.93.9A2.48,2.48,0,0,0,307.57,30.2Z"/><path class="cls-3" d="M321.5,33.63a4.82,4.82,0,0,1-2.16-.49,5.57,5.57,0,0,1-1.79-1.34,6.33,6.33,0,0,1-1.23-1.95,6.22,6.22,0,0,1-.44-2.32,6,6,0,0,1,.45-2.31,6.2,6.2,0,0,1,1.24-1.93,5.82,5.82,0,0,1,1.8-1.32,4.73,4.73,0,0,1,2.11-.49,3.84,3.84,0,0,1,1.9.44,3.33,3.33,0,0,1,1.25,1.25,6.74,6.74,0,0,1,.71,1.93,11.79,11.79,0,0,1,.24,2.48,11,11,0,0,1-.42,3.22,4.25,4.25,0,0,1-1.3,2.1A3.58,3.58,0,0,1,321.5,33.63Zm.44,5.48a7,7,0,0,1-1.76-.23,7.92,7.92,0,0,1-1.59-.6,4.91,4.91,0,0,1-1.15-.8,1.23,1.23,0,0,1-.42-.85,1.81,1.81,0,0,1,.15-.74,2.58,2.58,0,0,1,.45-.66,6.14,6.14,0,0,1,.6-.58,1,1,0,0,1,.6-.19,1.16,1.16,0,0,1,.63.18l.58.42a3.85,3.85,0,0,0,.79.41,3.43,3.43,0,0,0,1.2.19,2.47,2.47,0,0,0,.94-.19,2,2,0,0,0,.75-.55,2.85,2.85,0,0,0,.5-.85A2.9,2.9,0,0,0,324.4,33V22.63a1.22,1.22,0,0,1,.52-.93,2.36,2.36,0,0,1,1.33-.29,2.28,2.28,0,0,1,1.25.26,1.13,1.13,0,0,1,.47.69,5.11,5.11,0,0,1,.08.9v9.88a5.84,5.84,0,0,1-.53,2.53,5.75,5.75,0,0,1-1.4,1.88,6.42,6.42,0,0,1-1.95,1.16A6.51,6.51,0,0,1,321.94,39.11Zm0-9.1a2.16,2.16,0,0,0,1.21-.34,2.54,2.54,0,0,0,.83-.89,2.45,2.45,0,0,0,.32-1.25,2.5,2.5,0,0,0-.32-1.25,2.36,2.36,0,0,0-.85-.87,2.24,2.24,0,0,0-1.21-.33,2.13,2.13,0,0,0-1.2.34,2.48,2.48,0,0,0-.84.89,2.54,2.54,0,0,0-.31,1.25,2.33,2.33,0,0,0,.33,1.22,2.53,2.53,0,0,0,.86.89A2.22,2.22,0,0,0,321.92,30Z"/><path class="cls-2" d="M120.38,33.84a2.4,2.4,0,0,1-1.32-.28,1.14,1.14,0,0,1-.48-.72,4.08,4.08,0,0,1-.1-.93V18.26a3.85,3.85,0,0,1,.1-.91,1.11,1.11,0,0,1,.5-.71,2.31,2.31,0,0,1,1.32-.28h5.18a6.69,6.69,0,0,1,2.12.38,6,6,0,0,1,2,1.15,5.61,5.61,0,0,1,1.45,1.93,6.2,6.2,0,0,1,.55,2.72,6.68,6.68,0,0,1-.31,2,5.73,5.73,0,0,1-.94,1.8,6,6,0,0,1-1.55,1.4,6.75,6.75,0,0,1-2.13.86H122.3v3.3a3.91,3.91,0,0,1-.1.91,1.15,1.15,0,0,1-.5.71A2.35,2.35,0,0,1,120.38,33.84Zm1.93-9h3.47a2,2,0,0,0,.7-.13,2.21,2.21,0,0,0,.69-.41,2.08,2.08,0,0,0,.51-.73,2.52,2.52,0,0,0,.2-1.07,2.46,2.46,0,0,0-.3-1.25,2.09,2.09,0,0,0-.82-.82,2.54,2.54,0,0,0-1.23-.29h-3.22Zm8.62,8.48a2,2,0,0,1-1.48.54,2.24,2.24,0,0,1-1.15-1l-4.39-6.3,4.27-.55,3.22,4.63a3.39,3.39,0,0,1,.54,1,1,1,0,0,1-.13.8A3.25,3.25,0,0,1,130.93,33.34Z"/><path class="cls-2" d="M140.28,34.07a7.3,7.3,0,0,1-3-.57A5.86,5.86,0,0,1,135.2,32a6.51,6.51,0,0,1-1.2-2.09,7.09,7.09,0,0,1-.4-2.3,6.42,6.42,0,0,1,.86-3.32A6,6,0,0,1,136.82,22a7.11,7.11,0,0,1,3.46-.83,6.27,6.27,0,0,1,2.52.46,5.18,5.18,0,0,1,1.74,1.2,5.34,5.34,0,0,1,1,1.59,4.54,4.54,0,0,1,.34,1.63,2.89,2.89,0,0,1-.67,2,2.25,2.25,0,0,1-1.69.67h-6a1.77,1.77,0,0,0,.47,1.07,2.69,2.69,0,0,0,1,.7,3.5,3.5,0,0,0,1.33.25,7.94,7.94,0,0,0,1-.06,4.3,4.3,0,0,0,.79-.17c.22-.08.42-.15.59-.23a4.27,4.27,0,0,1,.49-.18,1.81,1.81,0,0,1,.42-.1,1,1,0,0,1,.68.21A2,2,0,0,1,145,31a1.65,1.65,0,0,1,.24.53,2.07,2.07,0,0,1,.06.5,1.32,1.32,0,0,1-.61,1.08,4.73,4.73,0,0,1-1.73.74A11.47,11.47,0,0,1,140.28,34.07Zm-2.68-7.4h4a1,1,0,0,0,.58-.13.62.62,0,0,0,.2-.54,1.27,1.27,0,0,0-.27-.78,1.76,1.76,0,0,0-.74-.53,2.8,2.8,0,0,0-1.09-.19,3,3,0,0,0-1.35.3,2.38,2.38,0,0,0-.94.8A1.91,1.91,0,0,0,137.6,26.67Z"/><path class="cls-2" d="M154.18,34a6.42,6.42,0,0,1-2.24-.42,6.92,6.92,0,0,1-2.1-1.21,5.8,5.8,0,0,1-1.54-2,6.35,6.35,0,0,1-.57-2.75,6.06,6.06,0,0,1,.58-2.73,6,6,0,0,1,1.52-2,6.87,6.87,0,0,1,2.09-1.21,6.37,6.37,0,0,1,2.21-.41,6.15,6.15,0,0,1,1.67.21,5.6,5.6,0,0,1,1.25.51,3.74,3.74,0,0,1,.73.53,7.16,7.16,0,0,1,.75.65,1.05,1.05,0,0,1,.3.85,1.56,1.56,0,0,1-.17.56,4.48,4.48,0,0,1-.38.59c-.52.7-1,1-1.5.95a2.58,2.58,0,0,1-.69-.25l-.6-.35a5,5,0,0,0-.61-.32,2,2,0,0,0-.75-.13,2.56,2.56,0,0,0-1.3.33,2.61,2.61,0,0,0-.91.9,2.69,2.69,0,0,0,0,2.62,2.53,2.53,0,0,0,.9.91,2.42,2.42,0,0,0,1.26.34,2.66,2.66,0,0,0,.72-.1,2.59,2.59,0,0,0,.55-.24l.35-.21a5.41,5.41,0,0,1,.58-.36,1,1,0,0,1,.55-.17,1.25,1.25,0,0,1,.74.27,4.28,4.28,0,0,1,.81.83,2.07,2.07,0,0,1,.48,1,1.13,1.13,0,0,1-.21.86,2.56,2.56,0,0,1-.85.76,3.69,3.69,0,0,1-.71.45,6.49,6.49,0,0,1-1.25.5A5.69,5.69,0,0,1,154.18,34Z"/><path class="cls-2" d="M167.13,34.06a6.21,6.21,0,0,1-2.34-.46,7.11,7.11,0,0,1-2.11-1.31,6.41,6.41,0,0,1-1.52-2,6.41,6.41,0,0,1,0-5.15A6.63,6.63,0,0,1,162.53,23a6.75,6.75,0,0,1,2.06-1.41,6,6,0,0,1,2.49-.52,6.33,6.33,0,0,1,3.26.87,6.4,6.4,0,0,1,2.34,2.34,6.71,6.71,0,0,1,.31,6,6.5,6.5,0,0,1-1.5,2,6.57,6.57,0,0,1-2.08,1.29A6.35,6.35,0,0,1,167.13,34.06Zm0-3.77a2.81,2.81,0,0,0,1.22-.3,2.67,2.67,0,0,0,1-.9,2.53,2.53,0,0,0,.43-1.52,2.74,2.74,0,0,0-.35-1.4,2.41,2.41,0,0,0-1-.94,2.83,2.83,0,0,0-1.41-.34,2.51,2.51,0,0,0-1.34.35,2.65,2.65,0,0,0-.95,1,2.7,2.7,0,0,0-.37,1.39,2.61,2.61,0,0,0,.42,1.51,2.47,2.47,0,0,0,1,.9A3,3,0,0,0,167.08,30.29Z"/><path class="cls-2" d="M177.45,33.87a2.48,2.48,0,0,1-1.31-.26,1.11,1.11,0,0,1-.48-.72,4.63,4.63,0,0,1-.08-.92V23.24a4.42,4.42,0,0,1,.09-.92,1.08,1.08,0,0,1,.49-.69,2.54,2.54,0,0,1,1.32-.26,2.52,2.52,0,0,1,1.27.24,1,1,0,0,1,.48.55,1.73,1.73,0,0,1,.1.54l-.3.15a2.39,2.39,0,0,1,.26-.37,4.66,4.66,0,0,1,.59-.55,3.46,3.46,0,0,1,.92-.48,3.34,3.34,0,0,1,1.23-.2,4.45,4.45,0,0,1,.61,0,3,3,0,0,1,.7.15,2.4,2.4,0,0,1,.67.3,1.51,1.51,0,0,1,.48.46,1.14,1.14,0,0,1,.19.68,3.08,3.08,0,0,1-.47,1.73,1.4,1.4,0,0,1-1.21.71,2,2,0,0,1-.59-.06.87.87,0,0,1-.29-.15,1.1,1.1,0,0,0-.26-.15,1.72,1.72,0,0,0-.55-.06,2.46,2.46,0,0,0-.72.1,1.9,1.9,0,0,0-.62.31,1.6,1.6,0,0,0-.45.52,1.53,1.53,0,0,0-.17.72V32a4.46,4.46,0,0,1-.09.91,1,1,0,0,1-.48.69A2.6,2.6,0,0,1,177.45,33.87Z"/><path class="cls-2" d="M187.43,21.58h2.75l3.45-.1a4.29,4.29,0,0,1,.9.09,1.08,1.08,0,0,1,.7.49,2.31,2.31,0,0,1,.28,1.32,2.25,2.25,0,0,1-.27,1.25,1.1,1.1,0,0,1-.69.51,3,3,0,0,1-.92.11l-3.27-.07-3,0a1.26,1.26,0,0,1-1-.46,2.55,2.55,0,0,1-.29-1.39,2.15,2.15,0,0,1,.35-1.34A1.27,1.27,0,0,1,187.43,21.58Zm5.65,12.3a7.45,7.45,0,0,1-2.2-.28,3.32,3.32,0,0,1-2.39-2.31,6.94,6.94,0,0,1-.29-2.11V19.05a4.15,4.15,0,0,1,.09-.92,1.09,1.09,0,0,1,.48-.67,2.53,2.53,0,0,1,1.31-.26,2.26,2.26,0,0,1,1.29.28,1.1,1.1,0,0,1,.49.71,4.53,4.53,0,0,1,.09.91V29a3,3,0,0,0,.06.66.88.88,0,0,0,.19.39.72.72,0,0,0,.35.17,2.19,2.19,0,0,0,.55.05,4.13,4.13,0,0,1,1,.11,1,1,0,0,1,.66.45A2.13,2.13,0,0,1,195,32a2.39,2.39,0,0,1-.28,1.3,1,1,0,0,1-.71.48A5.41,5.41,0,0,1,193.08,33.88Z"/><path class="cls-2" d="M203.63,34.11a7.14,7.14,0,0,1-3-.58A5.72,5.72,0,0,1,198.55,32a6.51,6.51,0,0,1-1.2-2.09,7.09,7.09,0,0,1-.4-2.3,6.39,6.39,0,0,1,.86-3.32A6,6,0,0,1,200.17,22a7,7,0,0,1,3.46-.83,6.18,6.18,0,0,1,2.51.46,5.12,5.12,0,0,1,2.78,2.79,4.5,4.5,0,0,1,.33,1.62,2.82,2.82,0,0,1-.66,2.05,2.26,2.26,0,0,1-1.69.68h-6a1.78,1.78,0,0,0,.47,1.08,2.81,2.81,0,0,0,1,.7,3.5,3.5,0,0,0,1.33.25,7.94,7.94,0,0,0,1-.06,4.49,4.49,0,0,0,.79-.17l.59-.23.49-.19a2.53,2.53,0,0,1,.42-.1,1,1,0,0,1,.68.22,2,2,0,0,1,.57.71,1.71,1.71,0,0,1,.24.52,2.2,2.2,0,0,1,.06.5A1.34,1.34,0,0,1,208,33.1a4.73,4.73,0,0,1-1.73.74A11.53,11.53,0,0,1,203.63,34.11ZM201,26.71h4a1,1,0,0,0,.58-.13.65.65,0,0,0,.2-.54,1.21,1.21,0,0,0-.28-.78,1.77,1.77,0,0,0-.73-.54,3.27,3.27,0,0,0-2.44.12,2.44,2.44,0,0,0-.94.79A2,2,0,0,0,201,26.71Z"/><path class="cls-2" d="M224.07,34.12a7.28,7.28,0,0,1-3-.57A5.86,5.86,0,0,1,219,32a6.51,6.51,0,0,1-1.2-2.09,7.09,7.09,0,0,1-.4-2.3,6.51,6.51,0,0,1,.85-3.32A6.14,6.14,0,0,1,220.62,22a7.11,7.11,0,0,1,3.46-.83,6.22,6.22,0,0,1,2.51.46,5.12,5.12,0,0,1,2.78,2.79,4.51,4.51,0,0,1,.33,1.63,2.84,2.84,0,0,1-.66,2.05,2.25,2.25,0,0,1-1.69.67H221.4a1.76,1.76,0,0,0,.46,1.07,2.73,2.73,0,0,0,1,.7,3.5,3.5,0,0,0,1.33.25,7.94,7.94,0,0,0,1-.06,4.49,4.49,0,0,0,.79-.17l.59-.23.49-.19a2.45,2.45,0,0,1,.42-.09,1,1,0,0,1,.68.21,2.11,2.11,0,0,1,.57.71,1.75,1.75,0,0,1,.24.53,2.07,2.07,0,0,1,.06.5,1.32,1.32,0,0,1-.61,1.08,4.73,4.73,0,0,1-1.73.74A11.56,11.56,0,0,1,224.07,34.12Zm-2.67-7.4h3.95a1,1,0,0,0,.58-.13.62.62,0,0,0,.2-.54,1.23,1.23,0,0,0-.28-.78,1.73,1.73,0,0,0-.73-.53,2.8,2.8,0,0,0-1.09-.19,3,3,0,0,0-1.35.3,2.38,2.38,0,0,0-.94.8A1.91,1.91,0,0,0,221.4,26.72Z"/><path class="cls-2" d="M233.67,33.88a2.5,2.5,0,0,1-1.31-.26,1.08,1.08,0,0,1-.47-.7,4.63,4.63,0,0,1-.09-.92V23.2a4.1,4.1,0,0,1,.09-.88,1,1,0,0,1,.49-.67,2.71,2.71,0,0,1,1.33-.25,2.47,2.47,0,0,1,1.17.22,1,1,0,0,1,.49.51,1.73,1.73,0,0,1,.11.56,1,1,0,0,0,.05.37l-.15.47a1.43,1.43,0,0,1,.39-.76,3.53,3.53,0,0,1,.85-.7,4.73,4.73,0,0,1,1.1-.49,4.29,4.29,0,0,1,1.16-.17,4.9,4.9,0,0,1,2.14.44,4.41,4.41,0,0,1,1.59,1.26,5.81,5.81,0,0,1,1,1.94,8.18,8.18,0,0,1,.34,2.44V32a5.4,5.4,0,0,1-.08.91,1,1,0,0,1-.48.68,2.57,2.57,0,0,1-1.34.25,2.45,2.45,0,0,1-1.32-.26,1.06,1.06,0,0,1-.49-.7,4.53,4.53,0,0,1-.08-.91V27.48a2.87,2.87,0,0,0-.26-1.27,1.88,1.88,0,0,0-.75-.8,2.39,2.39,0,0,0-1.22-.28,2.59,2.59,0,0,0-1.25.29,2,2,0,0,0-.81.81,2.59,2.59,0,0,0-.29,1.25V32a4.46,4.46,0,0,1-.09.91,1.08,1.08,0,0,1-.47.69A2.53,2.53,0,0,1,233.67,33.88Z"/><path class="cls-2" d="M254.27,33.92a1.79,1.79,0,0,1-1.31-.54,1.82,1.82,0,0,1-.54-1.34,2,2,0,0,1,.14-.72,1.66,1.66,0,0,1,.42-.63l5.67-5.5h-3.8a3.91,3.91,0,0,1-.91-.1,1.22,1.22,0,0,1-.72-.49,2.19,2.19,0,0,1-.29-1.31,2.26,2.26,0,0,1,.29-1.31,1.17,1.17,0,0,1,.72-.48,5.43,5.43,0,0,1,.92-.08h7.82A1.82,1.82,0,0,1,264,22a1.79,1.79,0,0,1,.52,1.32,2.23,2.23,0,0,1-.14.77,1.42,1.42,0,0,1-.39.58l-5.55,5.52H263a3.82,3.82,0,0,1,.92.1,1.1,1.1,0,0,1,.69.5,2.54,2.54,0,0,1,.26,1.32,2.28,2.28,0,0,1-.28,1.3,1,1,0,0,1-.7.48,5.29,5.29,0,0,1-.92.07Z"/><path class="cls-2" d="M268.91,19.63a2.47,2.47,0,0,1-1.35-.28,1.11,1.11,0,0,1-.49-.73,5.11,5.11,0,0,1,0-1.91,1.09,1.09,0,0,1,.5-.7,2.71,2.71,0,0,1,1.36-.26,2.37,2.37,0,0,1,1.33.28,1.09,1.09,0,0,1,.49.72,6,6,0,0,1,.08,1,5.62,5.62,0,0,1-.08.92,1.09,1.09,0,0,1-.49.71A2.53,2.53,0,0,1,268.91,19.63Zm0,14.3a2.57,2.57,0,0,1-1.33-.27,1,1,0,0,1-.47-.7,5.31,5.31,0,0,1-.08-.91V23.32a4.53,4.53,0,0,1,.09-.91,1.08,1.08,0,0,1,.49-.7,2.52,2.52,0,0,1,1.32-.26,2.24,2.24,0,0,1,1.29.28,1.1,1.1,0,0,1,.47.71,4.62,4.62,0,0,1,.09.94v8.7a5.4,5.4,0,0,1-.08.91,1.06,1.06,0,0,1-.48.69A2.62,2.62,0,0,1,268.9,33.93Z"/><path class="cls-2" d="M278.62,33.61a5,5,0,0,1-2.16-.49,6,6,0,0,1-1.79-1.34,6.76,6.76,0,0,1-1.22-2A6.12,6.12,0,0,1,273,27.5a6,6,0,0,1,.45-2.31,6.3,6.3,0,0,1,3-3.25,4.9,4.9,0,0,1,2.12-.48,3.84,3.84,0,0,1,1.9.43,3.34,3.34,0,0,1,1.24,1.26,6.4,6.4,0,0,1,.72,1.92,12.56,12.56,0,0,1,.23,2.49,11.33,11.33,0,0,1-.41,3.21,4.27,4.27,0,0,1-1.3,2.1A3.61,3.61,0,0,1,278.62,33.61Zm.45,5.47a6.9,6.9,0,0,1-1.76-.22,7.5,7.5,0,0,1-1.59-.61,4.45,4.45,0,0,1-1.15-.8,1.21,1.21,0,0,1-.42-.85,1.77,1.77,0,0,1,.15-.73,2.46,2.46,0,0,1,.45-.67,4.94,4.94,0,0,1,.6-.57.92.92,0,0,1,.6-.2,1,1,0,0,1,.62.19c.19.12.38.26.59.41a3.41,3.41,0,0,0,.79.41,3.14,3.14,0,0,0,1.2.19,2.32,2.32,0,0,0,.94-.19,1.92,1.92,0,0,0,.75-.55,2.85,2.85,0,0,0,.68-1.93V22.61a1.21,1.21,0,0,1,.51-.94,2.49,2.49,0,0,1,1.34-.29,2.21,2.21,0,0,1,1.25.27,1.06,1.06,0,0,1,.46.69,4.29,4.29,0,0,1,.09.9v9.87a5.88,5.88,0,0,1-.52,2.54,5.71,5.71,0,0,1-1.4,1.87,6.35,6.35,0,0,1-4.18,1.56Zm0-9.1a2.13,2.13,0,0,0,1.2-.34,2.45,2.45,0,0,0,.84-.88,2.49,2.49,0,0,0,.31-1.25,2.47,2.47,0,0,0-.31-1.25,2.39,2.39,0,0,0-.85-.88,2.35,2.35,0,0,0-1.21-.32,2.21,2.21,0,0,0-1.2.33,2.56,2.56,0,0,0-.84.89,2.47,2.47,0,0,0-.31,1.25,2.39,2.39,0,0,0,.32,1.22,2.53,2.53,0,0,0,.86.89A2.17,2.17,0,0,0,279.05,30Z"/><path class="cls-2" d="M289.12,33.94a1.79,1.79,0,0,1-1.31-.54,1.82,1.82,0,0,1-.54-1.34,2,2,0,0,1,.14-.72,1.85,1.85,0,0,1,.41-.63l5.68-5.5h-3.8a3.91,3.91,0,0,1-.91-.1,1.18,1.18,0,0,1-.72-.49,2.17,2.17,0,0,1-.29-1.31,2.28,2.28,0,0,1,.29-1.31,1.17,1.17,0,0,1,.72-.48,5.43,5.43,0,0,1,.92-.08h7.82a1.81,1.81,0,0,1,1.85,1.85,2.23,2.23,0,0,1-.14.77,1.42,1.42,0,0,1-.39.58l-5.55,5.53h4.52a3.84,3.84,0,0,1,.93.1,1.14,1.14,0,0,1,.69.5,2.57,2.57,0,0,1,.26,1.32,2.28,2.28,0,0,1-.28,1.3,1,1,0,0,1-.7.48,5.29,5.29,0,0,1-.92.07Z"/><path class="cls-2" d="M312,33.93a2.34,2.34,0,0,1-1.38-.33.89.89,0,0,1-.42-.8l.25-.42a2.8,2.8,0,0,1-.58.61,4.11,4.11,0,0,1-1.11.65,4.34,4.34,0,0,1-1.66.28,4.88,4.88,0,0,1-2.19-.5A5.85,5.85,0,0,1,303,32a7.21,7.21,0,0,1-1.27-2,6.13,6.13,0,0,1,0-4.71,6.9,6.9,0,0,1,1.29-2A6.37,6.37,0,0,1,304.88,22a4.93,4.93,0,0,1,2.17-.5,4.11,4.11,0,0,1,1.58.27,4.5,4.5,0,0,1,1.09.61,3.2,3.2,0,0,1,.66.68l-.23-.36a1.05,1.05,0,0,1,.44-.91,2.42,2.42,0,0,1,1.39-.31,2.24,2.24,0,0,1,1.29.28,1.1,1.1,0,0,1,.47.72,4.86,4.86,0,0,1,.09.95V32a5.62,5.62,0,0,1-.08.92,1.07,1.07,0,0,1-.48.71A2.39,2.39,0,0,1,312,33.93Zm-4.38-3.73a2.13,2.13,0,0,0,1.2-.34,2.51,2.51,0,0,0,.86-.91,2.61,2.61,0,0,0,.32-1.28,2.56,2.56,0,0,0-.32-1.28,2.42,2.42,0,0,0-.88-.89,2.3,2.3,0,0,0-1.22-.33,2.49,2.49,0,0,0-1.27.34,2.7,2.7,0,0,0-.9.91,2.59,2.59,0,0,0-.33,1.3,2.42,2.42,0,0,0,.33,1.24,2.59,2.59,0,0,0,.93.9A2.48,2.48,0,0,0,307.57,30.2Z"/><path class="cls-2" d="M321.5,33.63a4.82,4.82,0,0,1-2.16-.49,5.57,5.57,0,0,1-1.79-1.34,6.33,6.33,0,0,1-1.23-1.95,6.22,6.22,0,0,1-.44-2.32,6,6,0,0,1,.45-2.31,6.2,6.2,0,0,1,1.24-1.93,5.82,5.82,0,0,1,1.8-1.32,4.73,4.73,0,0,1,2.11-.49,3.84,3.84,0,0,1,1.9.44,3.33,3.33,0,0,1,1.25,1.25,6.74,6.74,0,0,1,.71,1.93,11.79,11.79,0,0,1,.24,2.48,11,11,0,0,1-.42,3.22,4.25,4.25,0,0,1-1.3,2.1A3.58,3.58,0,0,1,321.5,33.63Zm.44,5.48a7,7,0,0,1-1.76-.23,7.92,7.92,0,0,1-1.59-.6,4.91,4.91,0,0,1-1.15-.8,1.23,1.23,0,0,1-.42-.85,1.81,1.81,0,0,1,.15-.74,2.58,2.58,0,0,1,.45-.66,6.14,6.14,0,0,1,.6-.58,1,1,0,0,1,.6-.19,1.16,1.16,0,0,1,.63.18l.58.42a3.85,3.85,0,0,0,.79.41,3.43,3.43,0,0,0,1.2.19,2.47,2.47,0,0,0,.94-.19,2,2,0,0,0,.75-.55,2.85,2.85,0,0,0,.5-.85A2.9,2.9,0,0,0,324.4,33V22.63a1.22,1.22,0,0,1,.52-.93,2.36,2.36,0,0,1,1.33-.29,2.28,2.28,0,0,1,1.25.26,1.13,1.13,0,0,1,.47.69,5.11,5.11,0,0,1,.08.9v9.88a5.84,5.84,0,0,1-.53,2.53,5.75,5.75,0,0,1-1.4,1.88,6.42,6.42,0,0,1-1.95,1.16A6.51,6.51,0,0,1,321.94,39.11Zm0-9.1a2.16,2.16,0,0,0,1.21-.34,2.54,2.54,0,0,0,.83-.89,2.45,2.45,0,0,0,.32-1.25,2.5,2.5,0,0,0-.32-1.25,2.36,2.36,0,0,0-.85-.87,2.24,2.24,0,0,0-1.21-.33,2.13,2.13,0,0,0-1.2.34,2.48,2.48,0,0,0-.84.89,2.54,2.54,0,0,0-.31,1.25,2.33,2.33,0,0,0,.33,1.22,2.53,2.53,0,0,0,.86.89A2.22,2.22,0,0,0,321.92,30Z"/><path class="cls-4" d="M55.11,31.08h4.52q3.42,0,3.42,4A4,4,0,0,1,62,38.2c-.72.63-2,.94-3.85.94h-11a6.91,6.91,0,0,1-3.89-.77c-.69-.52-1-1.63-1-3.34a5.64,5.64,0,0,1,.16-1.45,3.5,3.5,0,0,1,.61-1.2,5.45,5.45,0,0,1,1.23-1.13c1.47-1,2.62-1.82,3.46-2.44s1.67-1.26,2.47-1.95a13.25,13.25,0,0,0,1.77-1.76,10.41,10.41,0,0,0,1-1.66,6.12,6.12,0,0,0,.62-1.85,15.39,15.39,0,0,0,.14-2.19c0-1.56-.47-2.35-1.42-2.35s-1.55.93-1.55,2.77a2,2,0,0,1-1,2,7.06,7.06,0,0,1-2.9.46c-1.73,0-2.91-.39-3.52-1.17a6.48,6.48,0,0,1-.91-3.91,5.48,5.48,0,0,1,2.51-4.56,11.74,11.74,0,0,1,7-1.82q11.07,0,11.07,8.69a14.05,14.05,0,0,1-.45,3.68A11.24,11.24,0,0,1,61.38,26a8.79,8.79,0,0,1-1.77,2.12,17.42,17.42,0,0,1-2.1,1.64A26.68,26.68,0,0,1,55.11,31.08Z"/><path class="cls-4" d="M65.74,36a2.75,2.75,0,0,1,1.16-2.31,5.38,5.38,0,0,1,3.28-.88c3,0,4.44,1.07,4.44,3.19a3.11,3.11,0,0,1-.57,2,2.76,2.76,0,0,1-1.51,1,9.25,9.25,0,0,1-2.37.26A6.12,6.12,0,0,1,67,38.43,2.6,2.6,0,0,1,65.74,36Z"/><path class="cls-4" d="M89,20c0-1.37-1.23-2.06-3.7-2.06a19.62,19.62,0,0,0-2.1.15,19.23,19.23,0,0,1-1.94.15q-2.92,0-2.93-3.62t8.48-3.73q5.5,0,8.23,1.84a5.59,5.59,0,0,1,2.72,4.83,7.73,7.73,0,0,1-3.51,6.64,9.43,9.43,0,0,1,3.32,2.71,7.17,7.17,0,0,1,1,4.05,7.35,7.35,0,0,1-2.8,5.94,11.41,11.41,0,0,1-7.48,2.29q-5.87,0-8.41-1.23a4,4,0,0,1-2.54-3.76,3.92,3.92,0,0,1,.82-2.88,3.15,3.15,0,0,1,2.28-.78c.49,0,1.25.06,2.28.17s1.82.17,2.36.17q4.44,0,4.44-1.68a1.62,1.62,0,0,0-.85-1.58,8,8,0,0,0-3.22-.44,6.47,6.47,0,0,1-3.34-.63,2.59,2.59,0,0,1-1-2.35c0-1.73,1.12-2.6,3.35-2.6a17.73,17.73,0,0,0,3.2-.21c.69-.14,1.09-.3,1.2-.49A1.82,1.82,0,0,0,89,20Z"/><path class="cls-5" d="M55.11,31.08h4.52q3.42,0,3.42,4A4,4,0,0,1,62,38.2c-.72.63-2,.94-3.85.94h-11a6.91,6.91,0,0,1-3.89-.77c-.69-.52-1-1.63-1-3.34a5.64,5.64,0,0,1,.16-1.45,3.5,3.5,0,0,1,.61-1.2,5.45,5.45,0,0,1,1.23-1.13c1.47-1,2.62-1.82,3.46-2.44s1.67-1.26,2.47-1.95a13.25,13.25,0,0,0,1.77-1.76,10.41,10.41,0,0,0,1-1.66,6.12,6.12,0,0,0,.62-1.85,15.39,15.39,0,0,0,.14-2.19c0-1.56-.47-2.35-1.42-2.35s-1.55.93-1.55,2.77a2,2,0,0,1-1,2,7.06,7.06,0,0,1-2.9.46c-1.73,0-2.91-.39-3.52-1.17a6.48,6.48,0,0,1-.91-3.91,5.48,5.48,0,0,1,2.51-4.56,11.74,11.74,0,0,1,7-1.82q11.07,0,11.07,8.69a14.05,14.05,0,0,1-.45,3.68A11.24,11.24,0,0,1,61.38,26a8.79,8.79,0,0,1-1.77,2.12,17.42,17.42,0,0,1-2.1,1.64A26.68,26.68,0,0,1,55.11,31.08Z"/><path class="cls-5" d="M65.74,36a2.75,2.75,0,0,1,1.16-2.31,5.38,5.38,0,0,1,3.28-.88c3,0,4.44,1.07,4.44,3.19a3.11,3.11,0,0,1-.57,2,2.76,2.76,0,0,1-1.51,1,9.25,9.25,0,0,1-2.37.26A6.12,6.12,0,0,1,67,38.43,2.6,2.6,0,0,1,65.74,36Z"/><path class="cls-5" d="M89,20c0-1.37-1.23-2.06-3.7-2.06a19.62,19.62,0,0,0-2.1.15,19.23,19.23,0,0,1-1.94.15q-2.92,0-2.93-3.62t8.48-3.73q5.5,0,8.23,1.84a5.59,5.59,0,0,1,2.72,4.83,7.73,7.73,0,0,1-3.51,6.64,9.43,9.43,0,0,1,3.32,2.71,7.17,7.17,0,0,1,1,4.05,7.35,7.35,0,0,1-2.8,5.94,11.41,11.41,0,0,1-7.48,2.29q-5.87,0-8.41-1.23a4,4,0,0,1-2.54-3.76,3.92,3.92,0,0,1,.82-2.88,3.15,3.15,0,0,1,2.28-.78c.49,0,1.25.06,2.28.17s1.82.17,2.36.17q4.44,0,4.44-1.68a1.62,1.62,0,0,0-.85-1.58,8,8,0,0,0-3.22-.44,6.47,6.47,0,0,1-3.34-.63,2.59,2.59,0,0,1-1-2.35c0-1.73,1.12-2.6,3.35-2.6a17.73,17.73,0,0,0,3.2-.21c.69-.14,1.09-.3,1.2-.49A1.82,1.82,0,0,0,89,20Z"/></g></g></svg>