<svg xmlns="http://www.w3.org/2000/svg" viewBox="0 0 399.98 120.04"><defs><style>.cls-1{fill:#23841a;}.cls-2{fill:#fff;}.cls-3,.cls-4{fill:none;stroke-width:5px;}.cls-3{stroke:#ff7300;stroke-linejoin:round;}.cls-4{stroke:#fff;}.cls-5{fill:#ff7300;}</style></defs><title>23t</title><g id="Layer_2" data-name="Layer 2"><g id="pestaña_identificativa" data-name="pestaña identificativa"><rect class="cls-1" width="399.98" height="120.04" rx="32.4"/><path class="cls-2" d="M131.56,35a8.58,8.58,0,0,1-2.33-.34,9.75,9.75,0,0,1-2.41-1.05,9.05,9.05,0,0,1-2.13-1.79,8.3,8.3,0,0,1-1.52-2.55,9.38,9.38,0,0,1-.56-3.33,8.58,8.58,0,0,1,.57-3.23,8.06,8.06,0,0,1,1.51-2.46,9,9,0,0,1,2.13-1.74,9.69,9.69,0,0,1,2.41-1,8.89,8.89,0,0,1,2.39-.34,7.36,7.36,0,0,1,2.22.3,8.09,8.09,0,0,1,1.54.63l.76.42a7.94,7.94,0,0,1,.85.65,1.25,1.25,0,0,1,.43.9,1.61,1.61,0,0,1-.12.6,2.24,2.24,0,0,1-.33.6,3.23,3.23,0,0,1-.78.84,1.23,1.23,0,0,1-.72.26,1.19,1.19,0,0,1-.58-.15c-.18-.1-.4-.23-.65-.4s-.28-.19-.5-.31a3.53,3.53,0,0,0-.89-.34,5.38,5.38,0,0,0-1.38-.15,5.53,5.53,0,0,0-1.77.3,5.18,5.18,0,0,0-1.63.92,4.73,4.73,0,0,0-1.21,1.59,5.45,5.45,0,0,0-.45,2.26,5,5,0,0,0,.47,2.25,4.57,4.57,0,0,0,1.21,1.58,5.29,5.29,0,0,0,3.37,1.25,4.73,4.73,0,0,0,1.28-.15,4.9,4.9,0,0,0,.92-.36c.27-.14.49-.27.68-.39l.56-.32a1.26,1.26,0,0,1,.59-.15,1.19,1.19,0,0,1,.71.27,3.44,3.44,0,0,1,.74.88,2.6,2.6,0,0,1,.33.64,1.66,1.66,0,0,1,.12.61,1,1,0,0,1-.42.86,6.38,6.38,0,0,1-.86.61l-.75.44a7.19,7.19,0,0,1-1.53.62A7.59,7.59,0,0,1,131.56,35Z"/><path class="cls-2" d="M144.93,34.82a5.2,5.2,0,0,1-2.17-.45A5.33,5.33,0,0,1,141,33.11a5.69,5.69,0,0,1-1.16-1.93,6.81,6.81,0,0,1-.41-2.43V24.22a4.59,4.59,0,0,1,.09-.93,1.08,1.08,0,0,1,.49-.69,2.31,2.31,0,0,1,1.32-.28,2.25,2.25,0,0,1,1.31.28,1.12,1.12,0,0,1,.48.71,4.64,4.64,0,0,1,.08.94v4.5a2.92,2.92,0,0,0,.26,1.26,1.8,1.8,0,0,0,.78.81,2.43,2.43,0,0,0,1.21.28,2.53,2.53,0,0,0,1.24-.29,2,2,0,0,0,.8-.81,2.59,2.59,0,0,0,.29-1.25V24.2a4.42,4.42,0,0,1,.09-.92,1,1,0,0,1,.49-.69,2.42,2.42,0,0,1,1.32-.26,2.37,2.37,0,0,1,1.31.27,1.15,1.15,0,0,1,.48.71,4.63,4.63,0,0,1,.09.92V33a4.26,4.26,0,0,1-.09.89,1,1,0,0,1-.49.66,2.61,2.61,0,0,1-1.3.25,2.92,2.92,0,0,1-1.05-.15,1.31,1.31,0,0,1-.55-.38,1.16,1.16,0,0,1-.21-.47,4.09,4.09,0,0,1,0-.46l.33-.27a3.06,3.06,0,0,1-.33.39,5.22,5.22,0,0,1-.66.57,4.21,4.21,0,0,1-1,.54A3.37,3.37,0,0,1,144.93,34.82Z"/><path class="cls-2" d="M155.93,34.86a2.49,2.49,0,0,1-1.31-.27,1,1,0,0,1-.47-.71,4.73,4.73,0,0,1-.09-.93V24.23a4.6,4.6,0,0,1,.08-.93,1,1,0,0,1,.49-.68,2.49,2.49,0,0,1,1.33-.26,2.63,2.63,0,0,1,1.26.23,1.1,1.1,0,0,1,.49.55,2.08,2.08,0,0,1,.1.54l-.31.15a3.56,3.56,0,0,1,.86-.91,3.71,3.71,0,0,1,.91-.49,3.62,3.62,0,0,1,1.24-.2c.18,0,.38,0,.61,0a4.89,4.89,0,0,1,.7.15,3.32,3.32,0,0,1,.66.3,1.8,1.8,0,0,1,.49.46,1.23,1.23,0,0,1,.18.68,3.06,3.06,0,0,1-.47,1.74,1.42,1.42,0,0,1-1.2.71,2,2,0,0,1-.6-.06,1.92,1.92,0,0,1-.29-.15.93.93,0,0,0-.26-.15,1.39,1.39,0,0,0-.55-.07,2.71,2.71,0,0,0-.71.1,2.06,2.06,0,0,0-.63.31,1.63,1.63,0,0,0-.45.53,1.51,1.51,0,0,0-.16.71V33a5.4,5.4,0,0,1-.08.91,1.07,1.07,0,0,1-.49.69A2.71,2.71,0,0,1,155.93,34.86Z"/><path class="cls-2" d="M171.13,35a2.2,2.2,0,0,1-1-.22,1.43,1.43,0,0,1-.67-.7l-4.49-9a2,2,0,0,1-.26-1.49,2,2,0,0,1,1.14-1.06,2.39,2.39,0,0,1,1.51-.31c.37.09.71.49,1,1.19l2.8,6.5,2.8-6.42c.3-.72.64-1.14,1-1.25a2.24,2.24,0,0,1,1.57.32c.68.32,1.06.69,1.13,1.12a2.32,2.32,0,0,1-.31,1.46L172.86,34a1.48,1.48,0,0,1-.65.7A2.31,2.31,0,0,1,171.13,35Z"/><path class="cls-2" d="M189.93,34.85a2.33,2.33,0,0,1-1.37-.33.91.91,0,0,1-.43-.8l.25-.42a2.72,2.72,0,0,1-.57.61,4.28,4.28,0,0,1-1.11.65,4.38,4.38,0,0,1-1.67.29,5,5,0,0,1-2.18-.5A5.93,5.93,0,0,1,181,33a7,7,0,0,1-1.27-2,6,6,0,0,1-.48-2.37,5.83,5.83,0,0,1,.48-2.34,6.72,6.72,0,0,1,1.29-2,6.07,6.07,0,0,1,1.84-1.36,4.77,4.77,0,0,1,2.17-.5,4.35,4.35,0,0,1,1.58.26,4.57,4.57,0,0,1,1.08.61,3.18,3.18,0,0,1,.66.68l-.22-.35a1.05,1.05,0,0,1,.44-.91,3.12,3.12,0,0,1,2.67,0,1.14,1.14,0,0,1,.48.73,4.79,4.79,0,0,1,.09.95V33a4.73,4.73,0,0,1-.09.93,1.12,1.12,0,0,1-.47.71A2.52,2.52,0,0,1,189.93,34.85Zm-4.37-3.73a2.21,2.21,0,0,0,1.2-.33,2.6,2.6,0,0,0,.85-.92,2.48,2.48,0,0,0,.33-1.27,2.53,2.53,0,0,0-.33-1.29,2.47,2.47,0,0,0-3.36-.88A2.57,2.57,0,0,0,183,28.65a2.28,2.28,0,0,0,.34,1.23,2.51,2.51,0,0,0,.92.91A2.58,2.58,0,0,0,185.56,31.12Z"/><path class="cls-2" d="M198.81,35.08a8.15,8.15,0,0,1-1.48-.15,8.68,8.68,0,0,1-1.53-.44,5.22,5.22,0,0,1-1.25-.67,1.3,1.3,0,0,1-.57-.89,1.42,1.42,0,0,1,0-.54,2.32,2.32,0,0,1,.22-.6,4.44,4.44,0,0,1,.44-.66.89.89,0,0,1,.44-.35,1.09,1.09,0,0,1,.59,0,3.28,3.28,0,0,1,.8.27l.82.4c.28.14.58.26.87.37a2.73,2.73,0,0,0,.93.17,2.19,2.19,0,0,0,1.09-.22.63.63,0,0,0,.38-.58.61.61,0,0,0-.16-.45,1.27,1.27,0,0,0-.45-.3,4,4,0,0,0-.67-.24q-.39-.12-.81-.21a8.9,8.9,0,0,1-.9-.26,6.9,6.9,0,0,1-1.19-.45,4,4,0,0,1-1.05-.71,3.3,3.3,0,0,1-.74-1.07,4.05,4.05,0,0,1-.27-1.57,3.61,3.61,0,0,1,.56-2.05,3.51,3.51,0,0,1,1.67-1.26,7.35,7.35,0,0,1,2.7-.43,6.55,6.55,0,0,1,.89.05,5.19,5.19,0,0,1,.89.17c.29.09.58.19.86.3a6.16,6.16,0,0,1,.85.43,1.13,1.13,0,0,1,.78.95,2,2,0,0,1-.43,1.25,2.15,2.15,0,0,1-.57.59.89.89,0,0,1-.63.13,3.82,3.82,0,0,1-.86-.34c-.31-.15-.63-.3-1-.43a2.65,2.65,0,0,0-1-.2,2,2,0,0,0-.72.11.94.94,0,0,0-.45.3.67.67,0,0,0-.15.44.69.69,0,0,0,.19.51,1.39,1.39,0,0,0,.51.31,6.19,6.19,0,0,0,.75.23l.92.2a13.23,13.23,0,0,1,1.39.33,4.73,4.73,0,0,1,1.3.62,2.91,2.91,0,0,1,.95,1.07,3.8,3.8,0,0,1,.36,1.78,3.56,3.56,0,0,1-1.38,3A6.33,6.33,0,0,1,198.81,35.08Z"/><path class="cls-2" d="M218.16,34.87a5.25,5.25,0,0,1-2.18-.45,5.46,5.46,0,0,1-1.75-1.27,5.8,5.8,0,0,1-1.16-1.92,7.1,7.1,0,0,1-.41-2.44V24.26a4.42,4.42,0,0,1,.09-.92,1.1,1.1,0,0,1,.49-.7,2.47,2.47,0,0,1,1.33-.27,2.39,2.39,0,0,1,1.31.27,1.1,1.1,0,0,1,.47.71,4.76,4.76,0,0,1,.09.94v4.5a2.73,2.73,0,0,0,.26,1.26,1.8,1.8,0,0,0,.77.82,2.57,2.57,0,0,0,1.21.27,2.5,2.5,0,0,0,1.24-.28,2.1,2.1,0,0,0,.8-.82,2.57,2.57,0,0,0,.29-1.25V24.24a4.42,4.42,0,0,1,.09-.92,1.08,1.08,0,0,1,.49-.69,2.57,2.57,0,0,1,1.32-.26,2.31,2.31,0,0,1,1.32.28,1.1,1.1,0,0,1,.47.71,4.53,4.53,0,0,1,.09.91v8.8a5,5,0,0,1-.08.89,1,1,0,0,1-.49.66,2.52,2.52,0,0,1-1.3.25,2.92,2.92,0,0,1-1-.15,1.25,1.25,0,0,1-.55-.38.91.91,0,0,1-.21-.47,2.57,2.57,0,0,1,0-.45l.32-.28a1.94,1.94,0,0,1-.32.39,5.89,5.89,0,0,1-.66.58,4.69,4.69,0,0,1-1,.53A3.31,3.31,0,0,1,218.16,34.87Z"/><path class="cls-2" d="M229.16,34.87a2.42,2.42,0,0,1-1.32-.26,1.1,1.1,0,0,1-.47-.7,4.53,4.53,0,0,1-.09-.91V24.2a4.19,4.19,0,0,1,.09-.89,1,1,0,0,1,.48-.66,2.6,2.6,0,0,1,1.33-.25,2.49,2.49,0,0,1,1.17.21,1,1,0,0,1,.49.51,1.51,1.51,0,0,1,.11.57,1,1,0,0,0,0,.36l-.15.48a1.61,1.61,0,0,1,.39-.77,3.74,3.74,0,0,1,.85-.7,4.7,4.7,0,0,1,1.1-.48,4,4,0,0,1,1.16-.18,5,5,0,0,1,2.14.44,4.24,4.24,0,0,1,1.59,1.26,5.81,5.81,0,0,1,1,1.94,8.27,8.27,0,0,1,.34,2.44V33a4.46,4.46,0,0,1-.09.91,1.06,1.06,0,0,1-.48.69,2.53,2.53,0,0,1-1.33.25,2.59,2.59,0,0,1-1.33-.26,1.06,1.06,0,0,1-.48-.7,4.63,4.63,0,0,1-.09-.92V28.48a2.92,2.92,0,0,0-.26-1.28,1.93,1.93,0,0,0-.75-.8,2.46,2.46,0,0,0-1.21-.27,2.57,2.57,0,0,0-1.25.28,2.06,2.06,0,0,0-.82.81,2.62,2.62,0,0,0-.28,1.25V33a5.4,5.4,0,0,1-.08.91,1,1,0,0,1-.48.68A2.52,2.52,0,0,1,229.16,34.87Z"/><path class="cls-2" d="M243.87,20.61a2.38,2.38,0,0,1-1.35-.28,1.09,1.09,0,0,1-.49-.72,4.86,4.86,0,0,1-.09-.95,4.92,4.92,0,0,1,.09-1,1.09,1.09,0,0,1,.5-.7,2.71,2.71,0,0,1,1.36-.26,2.46,2.46,0,0,1,1.33.28,1,1,0,0,1,.48.72,5,5,0,0,1,.09,1,4.63,4.63,0,0,1-.09.92,1.08,1.08,0,0,1-.48.72A2.65,2.65,0,0,1,243.87,20.61Zm0,14.3a2.47,2.47,0,0,1-1.33-.27,1,1,0,0,1-.47-.7A5.31,5.31,0,0,1,242,33V24.31a4.63,4.63,0,0,1,.09-.92,1,1,0,0,1,.49-.69,2.41,2.41,0,0,1,1.32-.27,2.33,2.33,0,0,1,1.29.28,1.1,1.1,0,0,1,.47.71,4.69,4.69,0,0,1,.09.94v8.7a5.31,5.31,0,0,1-.08.91,1.06,1.06,0,0,1-.48.69A2.52,2.52,0,0,1,243.86,34.91Z"/><path class="cls-2" d="M253.76,34.89a5,5,0,0,1-2.18-.49A6,6,0,0,1,249.76,33a6.88,6.88,0,0,1-1.26-2,6.3,6.3,0,0,1-.46-2.41,6,6,0,0,1,.46-2.34,6.32,6.32,0,0,1,1.28-2,6.15,6.15,0,0,1,1.83-1.36,4.91,4.91,0,0,1,2.15-.5,4.39,4.39,0,0,1,2.12.49,4.34,4.34,0,0,1,1.52,1.34,6.31,6.31,0,0,1,.94,2,9.6,9.6,0,0,1,.35,2.35,9.28,9.28,0,0,1-.31,2.4,6.22,6.22,0,0,1-.92,2,4.79,4.79,0,0,1-1.55,1.39A4.41,4.41,0,0,1,253.76,34.89Zm.5-3.7a2.19,2.19,0,0,0,1.21-.34,2.65,2.65,0,0,0,.88-.91,2.51,2.51,0,0,0,.34-1.27,2.48,2.48,0,0,0-.33-1.27,2.58,2.58,0,0,0-.87-.9,2.48,2.48,0,0,0-2.49,0,2.24,2.24,0,0,0-.88.9,2.6,2.6,0,0,0-.31,1.27,2.54,2.54,0,0,0,.33,1.28,2.43,2.43,0,0,0,.89.91A2.35,2.35,0,0,0,254.26,31.19Zm4.35,3.73a2.37,2.37,0,0,1-1.27-.28,1.3,1.3,0,0,1-.53-.85V18.64a6.62,6.62,0,0,1,.06-.91,1,1,0,0,1,.44-.71,2.15,2.15,0,0,1,1.27-.28,2.49,2.49,0,0,1,1.33.26,1.17,1.17,0,0,1,.47.69,4,4,0,0,1,.1.93V33a5.4,5.4,0,0,1-.08.91,1.12,1.12,0,0,1-.48.71A2.29,2.29,0,0,1,258.61,34.92Z"/><path class="cls-2" d="M273.21,34.9a2.34,2.34,0,0,1-1.38-.33.88.88,0,0,1-.42-.8l.25-.42a2.59,2.59,0,0,1-.58.61,4.11,4.11,0,0,1-1.11.65,4.33,4.33,0,0,1-1.66.29,5,5,0,0,1-2.19-.5A6.17,6.17,0,0,1,264.28,33,7,7,0,0,1,263,31a6.13,6.13,0,0,1,0-4.71,6.72,6.72,0,0,1,1.29-2A6.07,6.07,0,0,1,266.14,23a4.8,4.8,0,0,1,2.17-.5,4.32,4.32,0,0,1,1.58.26,4.86,4.86,0,0,1,1.09.61,3.45,3.45,0,0,1,.66.68l-.23-.35a1.05,1.05,0,0,1,.44-.91,2.42,2.42,0,0,1,1.39-.31,2.34,2.34,0,0,1,1.29.27,1.16,1.16,0,0,1,.47.73,4.79,4.79,0,0,1,.09.95V33a4.73,4.73,0,0,1-.09.93,1,1,0,0,1-.47.71A2.5,2.5,0,0,1,273.21,34.9Zm-4.38-3.73a2.21,2.21,0,0,0,1.2-.33,2.51,2.51,0,0,0,.85-.92,2.48,2.48,0,0,0,.33-1.27,2.62,2.62,0,0,0-.32-1.29,2.5,2.5,0,0,0-.88-.89,2.39,2.39,0,0,0-1.22-.32,2.48,2.48,0,0,0-1.27.33,2.57,2.57,0,0,0-1.24,2.22,2.37,2.37,0,0,0,.34,1.23,2.44,2.44,0,0,0,.93.9A2.48,2.48,0,0,0,268.83,31.17Z"/><path class="cls-2" d="M282.08,35.13a8,8,0,0,1-1.47-.15,8.55,8.55,0,0,1-1.54-.44,5.43,5.43,0,0,1-1.25-.67,1.28,1.28,0,0,1-.56-.89,1.24,1.24,0,0,1,0-.54,2.37,2.37,0,0,1,.23-.6,3.68,3.68,0,0,1,.43-.66.94.94,0,0,1,.44-.35,1.09,1.09,0,0,1,.59,0,3.15,3.15,0,0,1,.8.27c.26.12.54.25.82.4s.58.26.88.37a2.67,2.67,0,0,0,.92.17,2.19,2.19,0,0,0,1.09-.22.64.64,0,0,0,.39-.58.65.65,0,0,0-.16-.45,1.27,1.27,0,0,0-.45-.3,4.46,4.46,0,0,0-.68-.24q-.39-.12-.81-.21c-.28-.07-.58-.15-.9-.26a6.9,6.9,0,0,1-1.19-.45,4,4,0,0,1-1.05-.71,3.13,3.13,0,0,1-.73-1.07,3.87,3.87,0,0,1-.28-1.57,3.61,3.61,0,0,1,.56-2.05,3.56,3.56,0,0,1,1.67-1.26,7.15,7.15,0,0,1,2.7-.43,6.79,6.79,0,0,1,.9,0,5.58,5.58,0,0,1,.89.17c.29.09.57.19.86.3a7.55,7.55,0,0,1,.85.43,1.1,1.1,0,0,1,.77.95,2,2,0,0,1-.42,1.25,2.33,2.33,0,0,1-.58.59.87.87,0,0,1-.62.13,3.7,3.7,0,0,1-.87-.34c-.3-.15-.63-.3-1-.43a2.63,2.63,0,0,0-1-.2,2,2,0,0,0-.73.11.94.94,0,0,0-.45.3A.66.66,0,0,0,281,26a.69.69,0,0,0,.19.52,1.39,1.39,0,0,0,.51.31,7.54,7.54,0,0,0,.75.23l.93.2a10.66,10.66,0,0,1,1.38.34,4.44,4.44,0,0,1,1.3.61,2.91,2.91,0,0,1,.95,1.07,3.8,3.8,0,0,1,.36,1.78,3.58,3.58,0,0,1-1.37,3A6.38,6.38,0,0,1,282.08,35.13Z"/><path class="cls-3" d="M131.56,35a8.58,8.58,0,0,1-2.33-.34,9.75,9.75,0,0,1-2.41-1.05,9.05,9.05,0,0,1-2.13-1.79,8.3,8.3,0,0,1-1.52-2.55,9.38,9.38,0,0,1-.56-3.33,8.58,8.58,0,0,1,.57-3.23,8.06,8.06,0,0,1,1.51-2.46,9,9,0,0,1,2.13-1.74,9.69,9.69,0,0,1,2.41-1,8.89,8.89,0,0,1,2.39-.34,7.36,7.36,0,0,1,2.22.3,8.09,8.09,0,0,1,1.54.63l.76.42a7.94,7.94,0,0,1,.85.65,1.25,1.25,0,0,1,.43.9,1.61,1.61,0,0,1-.12.6,2.24,2.24,0,0,1-.33.6,3.23,3.23,0,0,1-.78.84,1.23,1.23,0,0,1-.72.26,1.19,1.19,0,0,1-.58-.15c-.18-.1-.4-.23-.65-.4s-.28-.19-.5-.31a3.53,3.53,0,0,0-.89-.34,5.38,5.38,0,0,0-1.38-.15,5.53,5.53,0,0,0-1.77.3,5.18,5.18,0,0,0-1.63.92,4.73,4.73,0,0,0-1.21,1.59,5.45,5.45,0,0,0-.45,2.26,5,5,0,0,0,.47,2.25,4.57,4.57,0,0,0,1.21,1.58,5.29,5.29,0,0,0,3.37,1.25,4.73,4.73,0,0,0,1.28-.15,4.9,4.9,0,0,0,.92-.36c.27-.14.49-.27.68-.39l.56-.32a1.26,1.26,0,0,1,.59-.15,1.19,1.19,0,0,1,.71.27,3.44,3.44,0,0,1,.74.88,2.6,2.6,0,0,1,.33.64,1.66,1.66,0,0,1,.12.61,1,1,0,0,1-.42.86,6.38,6.38,0,0,1-.86.61l-.75.44a7.19,7.19,0,0,1-1.53.62A7.59,7.59,0,0,1,131.56,35Z"/><path class="cls-3" d="M144.93,34.82a5.2,5.2,0,0,1-2.17-.45A5.33,5.33,0,0,1,141,33.11a5.69,5.69,0,0,1-1.16-1.93,6.81,6.81,0,0,1-.41-2.43V24.22a4.59,4.59,0,0,1,.09-.93,1.08,1.08,0,0,1,.49-.69,2.31,2.31,0,0,1,1.32-.28,2.25,2.25,0,0,1,1.31.28,1.12,1.12,0,0,1,.48.71,4.64,4.64,0,0,1,.08.94v4.5a2.92,2.92,0,0,0,.26,1.26,1.8,1.8,0,0,0,.78.81,2.43,2.43,0,0,0,1.21.28,2.53,2.53,0,0,0,1.24-.29,2,2,0,0,0,.8-.81,2.59,2.59,0,0,0,.29-1.25V24.2a4.42,4.42,0,0,1,.09-.92,1,1,0,0,1,.49-.69,2.42,2.42,0,0,1,1.32-.26,2.37,2.37,0,0,1,1.31.27,1.15,1.15,0,0,1,.48.71,4.63,4.63,0,0,1,.09.92V33a4.26,4.26,0,0,1-.09.89,1,1,0,0,1-.49.66,2.61,2.61,0,0,1-1.3.25,2.92,2.92,0,0,1-1.05-.15,1.31,1.31,0,0,1-.55-.38,1.16,1.16,0,0,1-.21-.47,4.09,4.09,0,0,1,0-.46l.33-.27a3.06,3.06,0,0,1-.33.39,5.22,5.22,0,0,1-.66.57,4.21,4.21,0,0,1-1,.54A3.37,3.37,0,0,1,144.93,34.82Z"/><path class="cls-3" d="M155.93,34.86a2.49,2.49,0,0,1-1.31-.27,1,1,0,0,1-.47-.71,4.73,4.73,0,0,1-.09-.93V24.23a4.6,4.6,0,0,1,.08-.93,1,1,0,0,1,.49-.68,2.49,2.49,0,0,1,1.33-.26,2.63,2.63,0,0,1,1.26.23,1.1,1.1,0,0,1,.49.55,2.08,2.08,0,0,1,.1.54l-.31.15a3.56,3.56,0,0,1,.86-.91,3.71,3.71,0,0,1,.91-.49,3.62,3.62,0,0,1,1.24-.2c.18,0,.38,0,.61,0a4.89,4.89,0,0,1,.7.15,3.32,3.32,0,0,1,.66.3,1.8,1.8,0,0,1,.49.46,1.23,1.23,0,0,1,.18.68,3.06,3.06,0,0,1-.47,1.74,1.42,1.42,0,0,1-1.2.71,2,2,0,0,1-.6-.06,1.92,1.92,0,0,1-.29-.15.93.93,0,0,0-.26-.15,1.39,1.39,0,0,0-.55-.07,2.71,2.71,0,0,0-.71.1,2.06,2.06,0,0,0-.63.31,1.63,1.63,0,0,0-.45.53,1.51,1.51,0,0,0-.16.71V33a5.4,5.4,0,0,1-.08.91,1.07,1.07,0,0,1-.49.69A2.71,2.71,0,0,1,155.93,34.86Z"/><path class="cls-3" d="M171.13,35a2.2,2.2,0,0,1-1-.22,1.43,1.43,0,0,1-.67-.7l-4.49-9a2,2,0,0,1-.26-1.49,2,2,0,0,1,1.14-1.06,2.39,2.39,0,0,1,1.51-.31c.37.09.71.49,1,1.19l2.8,6.5,2.8-6.42c.3-.72.64-1.14,1-1.25a2.24,2.24,0,0,1,1.57.32c.68.32,1.06.69,1.13,1.12a2.32,2.32,0,0,1-.31,1.46L172.86,34a1.48,1.48,0,0,1-.65.7A2.31,2.31,0,0,1,171.13,35Z"/><path class="cls-3" d="M189.93,34.85a2.33,2.33,0,0,1-1.37-.33.91.91,0,0,1-.43-.8l.25-.42a2.72,2.72,0,0,1-.57.61,4.28,4.28,0,0,1-1.11.65,4.38,4.38,0,0,1-1.67.29,5,5,0,0,1-2.18-.5A5.93,5.93,0,0,1,181,33a7,7,0,0,1-1.27-2,6,6,0,0,1-.48-2.37,5.83,5.83,0,0,1,.48-2.34,6.72,6.72,0,0,1,1.29-2,6.07,6.07,0,0,1,1.84-1.36,4.77,4.77,0,0,1,2.17-.5,4.35,4.35,0,0,1,1.58.26,4.57,4.57,0,0,1,1.08.61,3.18,3.18,0,0,1,.66.68l-.22-.35a1.05,1.05,0,0,1,.44-.91,3.12,3.12,0,0,1,2.67,0,1.14,1.14,0,0,1,.48.73,4.79,4.79,0,0,1,.09.95V33a4.73,4.73,0,0,1-.09.93,1.12,1.12,0,0,1-.47.71A2.52,2.52,0,0,1,189.93,34.85Zm-4.37-3.73a2.21,2.21,0,0,0,1.2-.33,2.6,2.6,0,0,0,.85-.92,2.48,2.48,0,0,0,.33-1.27,2.53,2.53,0,0,0-.33-1.29,2.47,2.47,0,0,0-3.36-.88A2.57,2.57,0,0,0,183,28.65a2.28,2.28,0,0,0,.34,1.23,2.51,2.51,0,0,0,.92.91A2.58,2.58,0,0,0,185.56,31.12Z"/><path class="cls-3" d="M198.81,35.08a8.15,8.15,0,0,1-1.48-.15,8.68,8.68,0,0,1-1.53-.44,5.22,5.22,0,0,1-1.25-.67,1.3,1.3,0,0,1-.57-.89,1.42,1.42,0,0,1,0-.54,2.32,2.32,0,0,1,.22-.6,4.44,4.44,0,0,1,.44-.66.89.89,0,0,1,.44-.35,1.09,1.09,0,0,1,.59,0,3.28,3.28,0,0,1,.8.27l.82.4c.28.14.58.26.87.37a2.73,2.73,0,0,0,.93.17,2.19,2.19,0,0,0,1.09-.22.63.63,0,0,0,.38-.58.61.61,0,0,0-.16-.45,1.27,1.27,0,0,0-.45-.3,4,4,0,0,0-.67-.24q-.39-.12-.81-.21a8.9,8.9,0,0,1-.9-.26,6.9,6.9,0,0,1-1.19-.45,4,4,0,0,1-1.05-.71,3.3,3.3,0,0,1-.74-1.07,4.05,4.05,0,0,1-.27-1.57,3.61,3.61,0,0,1,.56-2.05,3.51,3.51,0,0,1,1.67-1.26,7.35,7.35,0,0,1,2.7-.43,6.55,6.55,0,0,1,.89.05,5.19,5.19,0,0,1,.89.17c.29.09.58.19.86.3a6.16,6.16,0,0,1,.85.43,1.13,1.13,0,0,1,.78.95,2,2,0,0,1-.43,1.25,2.15,2.15,0,0,1-.57.59.89.89,0,0,1-.63.13,3.82,3.82,0,0,1-.86-.34c-.31-.15-.63-.3-1-.43a2.65,2.65,0,0,0-1-.2,2,2,0,0,0-.72.11.94.94,0,0,0-.45.3.67.67,0,0,0-.15.44.69.69,0,0,0,.19.51,1.39,1.39,0,0,0,.51.31,6.19,6.19,0,0,0,.75.23l.92.2a13.23,13.23,0,0,1,1.39.33,4.73,4.73,0,0,1,1.3.62,2.91,2.91,0,0,1,.95,1.07,3.8,3.8,0,0,1,.36,1.78,3.56,3.56,0,0,1-1.38,3A6.33,6.33,0,0,1,198.81,35.08Z"/><path class="cls-3" d="M218.16,34.87a5.25,5.25,0,0,1-2.18-.45,5.46,5.46,0,0,1-1.75-1.27,5.8,5.8,0,0,1-1.16-1.92,7.1,7.1,0,0,1-.41-2.44V24.26a4.42,4.42,0,0,1,.09-.92,1.1,1.1,0,0,1,.49-.7,2.47,2.47,0,0,1,1.33-.27,2.39,2.39,0,0,1,1.31.27,1.1,1.1,0,0,1,.47.71,4.76,4.76,0,0,1,.09.94v4.5a2.73,2.73,0,0,0,.26,1.26,1.8,1.8,0,0,0,.77.82,2.57,2.57,0,0,0,1.21.27,2.5,2.5,0,0,0,1.24-.28,2.1,2.1,0,0,0,.8-.82,2.57,2.57,0,0,0,.29-1.25V24.24a4.42,4.42,0,0,1,.09-.92,1.08,1.08,0,0,1,.49-.69,2.57,2.57,0,0,1,1.32-.26,2.31,2.31,0,0,1,1.32.28,1.1,1.1,0,0,1,.47.71,4.53,4.53,0,0,1,.09.91v8.8a5,5,0,0,1-.08.89,1,1,0,0,1-.49.66,2.52,2.52,0,0,1-1.3.25,2.92,2.92,0,0,1-1-.15,1.25,1.25,0,0,1-.55-.38.91.91,0,0,1-.21-.47,2.57,2.57,0,0,1,0-.45l.32-.28a1.94,1.94,0,0,1-.32.39,5.89,5.89,0,0,1-.66.58,4.69,4.69,0,0,1-1,.53A3.31,3.31,0,0,1,218.16,34.87Z"/><path class="cls-3" d="M229.16,34.87a2.42,2.42,0,0,1-1.32-.26,1.1,1.1,0,0,1-.47-.7,4.53,4.53,0,0,1-.09-.91V24.2a4.19,4.19,0,0,1,.09-.89,1,1,0,0,1,.48-.66,2.6,2.6,0,0,1,1.33-.25,2.49,2.49,0,0,1,1.17.21,1,1,0,0,1,.49.51,1.51,1.51,0,0,1,.11.57,1,1,0,0,0,0,.36l-.15.48a1.61,1.61,0,0,1,.39-.77,3.74,3.74,0,0,1,.85-.7,4.7,4.7,0,0,1,1.1-.48,4,4,0,0,1,1.16-.18,5,5,0,0,1,2.14.44,4.24,4.24,0,0,1,1.59,1.26,5.81,5.81,0,0,1,1,1.94,8.27,8.27,0,0,1,.34,2.44V33a4.46,4.46,0,0,1-.09.91,1.06,1.06,0,0,1-.48.69,2.53,2.53,0,0,1-1.33.25,2.59,2.59,0,0,1-1.33-.26,1.06,1.06,0,0,1-.48-.7,4.63,4.63,0,0,1-.09-.92V28.48a2.92,2.92,0,0,0-.26-1.28,1.93,1.93,0,0,0-.75-.8,2.46,2.46,0,0,0-1.21-.27,2.57,2.57,0,0,0-1.25.28,2.06,2.06,0,0,0-.82.81,2.62,2.62,0,0,0-.28,1.25V33a5.4,5.4,0,0,1-.08.91,1,1,0,0,1-.48.68A2.52,2.52,0,0,1,229.16,34.87Z"/><path class="cls-3" d="M243.87,20.61a2.38,2.38,0,0,1-1.35-.28,1.09,1.09,0,0,1-.49-.72,4.86,4.86,0,0,1-.09-.95,4.92,4.92,0,0,1,.09-1,1.09,1.09,0,0,1,.5-.7,2.71,2.71,0,0,1,1.36-.26,2.46,2.46,0,0,1,1.33.28,1,1,0,0,1,.48.72,5,5,0,0,1,.09,1,4.63,4.63,0,0,1-.09.92,1.08,1.08,0,0,1-.48.72A2.65,2.65,0,0,1,243.87,20.61Zm0,14.3a2.47,2.47,0,0,1-1.33-.27,1,1,0,0,1-.47-.7A5.31,5.31,0,0,1,242,33V24.31a4.63,4.63,0,0,1,.09-.92,1,1,0,0,1,.49-.69,2.41,2.41,0,0,1,1.32-.27,2.33,2.33,0,0,1,1.29.28,1.1,1.1,0,0,1,.47.71,4.69,4.69,0,0,1,.09.94v8.7a5.31,5.31,0,0,1-.08.91,1.06,1.06,0,0,1-.48.69A2.52,2.52,0,0,1,243.86,34.91Z"/><path class="cls-3" d="M253.76,34.89a5,5,0,0,1-2.18-.49A6,6,0,0,1,249.76,33a6.88,6.88,0,0,1-1.26-2,6.3,6.3,0,0,1-.46-2.41,6,6,0,0,1,.46-2.34,6.32,6.32,0,0,1,1.28-2,6.15,6.15,0,0,1,1.83-1.36,4.91,4.91,0,0,1,2.15-.5,4.39,4.39,0,0,1,2.12.49,4.34,4.34,0,0,1,1.52,1.34,6.31,6.31,0,0,1,.94,2,9.6,9.6,0,0,1,.35,2.35,9.28,9.28,0,0,1-.31,2.4,6.22,6.22,0,0,1-.92,2,4.79,4.79,0,0,1-1.55,1.39A4.41,4.41,0,0,1,253.76,34.89Zm.5-3.7a2.19,2.19,0,0,0,1.21-.34,2.65,2.65,0,0,0,.88-.91,2.51,2.51,0,0,0,.34-1.27,2.48,2.48,0,0,0-.33-1.27,2.58,2.58,0,0,0-.87-.9,2.48,2.48,0,0,0-2.49,0,2.24,2.24,0,0,0-.88.9,2.6,2.6,0,0,0-.31,1.27,2.54,2.54,0,0,0,.33,1.28,2.43,2.43,0,0,0,.89.91A2.35,2.35,0,0,0,254.26,31.19Zm4.35,3.73a2.37,2.37,0,0,1-1.27-.28,1.3,1.3,0,0,1-.53-.85V18.64a6.62,6.62,0,0,1,.06-.91,1,1,0,0,1,.44-.71,2.15,2.15,0,0,1,1.27-.28,2.49,2.49,0,0,1,1.33.26,1.17,1.17,0,0,1,.47.69,4,4,0,0,1,.1.93V33a5.4,5.4,0,0,1-.08.91,1.12,1.12,0,0,1-.48.71A2.29,2.29,0,0,1,258.61,34.92Z"/><path class="cls-3" d="M273.21,34.9a2.34,2.34,0,0,1-1.38-.33.88.88,0,0,1-.42-.8l.25-.42a2.59,2.59,0,0,1-.58.61,4.11,4.11,0,0,1-1.11.65,4.33,4.33,0,0,1-1.66.29,5,5,0,0,1-2.19-.5A6.17,6.17,0,0,1,264.28,33,7,7,0,0,1,263,31a6.13,6.13,0,0,1,0-4.71,6.72,6.72,0,0,1,1.29-2A6.07,6.07,0,0,1,266.14,23a4.8,4.8,0,0,1,2.17-.5,4.32,4.32,0,0,1,1.58.26,4.86,4.86,0,0,1,1.09.61,3.45,3.45,0,0,1,.66.68l-.23-.35a1.05,1.05,0,0,1,.44-.91,2.42,2.42,0,0,1,1.39-.31,2.34,2.34,0,0,1,1.29.27,1.16,1.16,0,0,1,.47.73,4.79,4.79,0,0,1,.09.95V33a4.73,4.73,0,0,1-.09.93,1,1,0,0,1-.47.71A2.5,2.5,0,0,1,273.21,34.9Zm-4.38-3.73a2.21,2.21,0,0,0,1.2-.33,2.51,2.51,0,0,0,.85-.92,2.48,2.48,0,0,0,.33-1.27,2.62,2.62,0,0,0-.32-1.29,2.5,2.5,0,0,0-.88-.89,2.39,2.39,0,0,0-1.22-.32,2.48,2.48,0,0,0-1.27.33,2.57,2.57,0,0,0-1.24,2.22,2.37,2.37,0,0,0,.34,1.23,2.44,2.44,0,0,0,.93.9A2.48,2.48,0,0,0,268.83,31.17Z"/><path class="cls-3" d="M282.08,35.13a8,8,0,0,1-1.47-.15,8.55,8.55,0,0,1-1.54-.44,5.43,5.43,0,0,1-1.25-.67,1.28,1.28,0,0,1-.56-.89,1.24,1.24,0,0,1,0-.54,2.37,2.37,0,0,1,.23-.6,3.68,3.68,0,0,1,.43-.66.94.94,0,0,1,.44-.35,1.09,1.09,0,0,1,.59,0,3.15,3.15,0,0,1,.8.27c.26.12.54.25.82.4s.58.26.88.37a2.67,2.67,0,0,0,.92.17,2.19,2.19,0,0,0,1.09-.22.64.64,0,0,0,.39-.58.65.65,0,0,0-.16-.45,1.27,1.27,0,0,0-.45-.3,4.46,4.46,0,0,0-.68-.24q-.39-.12-.81-.21c-.28-.07-.58-.15-.9-.26a6.9,6.9,0,0,1-1.19-.45,4,4,0,0,1-1.05-.71,3.13,3.13,0,0,1-.73-1.07,3.87,3.87,0,0,1-.28-1.57,3.61,3.61,0,0,1,.56-2.05,3.56,3.56,0,0,1,1.67-1.26,7.15,7.15,0,0,1,2.7-.43,6.79,6.79,0,0,1,.9,0,5.58,5.58,0,0,1,.89.17c.29.09.57.19.86.3a7.55,7.55,0,0,1,.85.43,1.1,1.1,0,0,1,.77.95,2,2,0,0,1-.42,1.25,2.33,2.33,0,0,1-.58.59.87.87,0,0,1-.62.13,3.7,3.7,0,0,1-.87-.34c-.3-.15-.63-.3-1-.43a2.63,2.63,0,0,0-1-.2,2,2,0,0,0-.73.11.94.94,0,0,0-.45.3A.66.66,0,0,0,281,26a.69.69,0,0,0,.19.52,1.39,1.39,0,0,0,.51.31,7.54,7.54,0,0,0,.75.23l.93.2a10.66,10.66,0,0,1,1.38.34,4.44,4.44,0,0,1,1.3.61,2.91,2.91,0,0,1,.95,1.07,3.8,3.8,0,0,1,.36,1.78,3.58,3.58,0,0,1-1.37,3A6.38,6.38,0,0,1,282.08,35.13Z"/><path class="cls-2" d="M131.56,35a8.58,8.58,0,0,1-2.33-.34,9.75,9.75,0,0,1-2.41-1.05,9.05,9.05,0,0,1-2.13-1.79,8.3,8.3,0,0,1-1.52-2.55,9.38,9.38,0,0,1-.56-3.33,8.58,8.58,0,0,1,.57-3.23,8.06,8.06,0,0,1,1.51-2.46,9,9,0,0,1,2.13-1.74,9.69,9.69,0,0,1,2.41-1,8.89,8.89,0,0,1,2.39-.34,7.36,7.36,0,0,1,2.22.3,8.09,8.09,0,0,1,1.54.63l.76.42a7.94,7.94,0,0,1,.85.65,1.25,1.25,0,0,1,.43.9,1.61,1.61,0,0,1-.12.6,2.24,2.24,0,0,1-.33.6,3.23,3.23,0,0,1-.78.84,1.23,1.23,0,0,1-.72.26,1.19,1.19,0,0,1-.58-.15c-.18-.1-.4-.23-.65-.4s-.28-.19-.5-.31a3.53,3.53,0,0,0-.89-.34,5.38,5.38,0,0,0-1.38-.15,5.53,5.53,0,0,0-1.77.3,5.18,5.18,0,0,0-1.63.92,4.73,4.73,0,0,0-1.21,1.59,5.45,5.45,0,0,0-.45,2.26,5,5,0,0,0,.47,2.25,4.57,4.57,0,0,0,1.21,1.58,5.29,5.29,0,0,0,3.37,1.25,4.73,4.73,0,0,0,1.28-.15,4.9,4.9,0,0,0,.92-.36c.27-.14.49-.27.68-.39l.56-.32a1.26,1.26,0,0,1,.59-.15,1.19,1.19,0,0,1,.71.27,3.44,3.44,0,0,1,.74.88,2.6,2.6,0,0,1,.33.64,1.66,1.66,0,0,1,.12.61,1,1,0,0,1-.42.86,6.38,6.38,0,0,1-.86.61l-.75.44a7.19,7.19,0,0,1-1.53.62A7.59,7.59,0,0,1,131.56,35Z"/><path class="cls-2" d="M144.93,34.82a5.2,5.2,0,0,1-2.17-.45A5.33,5.33,0,0,1,141,33.11a5.69,5.69,0,0,1-1.16-1.93,6.81,6.81,0,0,1-.41-2.43V24.22a4.59,4.59,0,0,1,.09-.93,1.08,1.08,0,0,1,.49-.69,2.31,2.31,0,0,1,1.32-.28,2.25,2.25,0,0,1,1.31.28,1.12,1.12,0,0,1,.48.71,4.64,4.64,0,0,1,.08.94v4.5a2.92,2.92,0,0,0,.26,1.26,1.8,1.8,0,0,0,.78.81,2.43,2.43,0,0,0,1.21.28,2.53,2.53,0,0,0,1.24-.29,2,2,0,0,0,.8-.81,2.59,2.59,0,0,0,.29-1.25V24.2a4.42,4.42,0,0,1,.09-.92,1,1,0,0,1,.49-.69,2.42,2.42,0,0,1,1.32-.26,2.37,2.37,0,0,1,1.31.27,1.15,1.15,0,0,1,.48.71,4.63,4.63,0,0,1,.09.92V33a4.26,4.26,0,0,1-.09.89,1,1,0,0,1-.49.66,2.61,2.61,0,0,1-1.3.25,2.92,2.92,0,0,1-1.05-.15,1.31,1.31,0,0,1-.55-.38,1.16,1.16,0,0,1-.21-.47,4.09,4.09,0,0,1,0-.46l.33-.27a3.06,3.06,0,0,1-.33.39,5.22,5.22,0,0,1-.66.57,4.21,4.21,0,0,1-1,.54A3.37,3.37,0,0,1,144.93,34.82Z"/><path class="cls-2" d="M155.93,34.86a2.49,2.49,0,0,1-1.31-.27,1,1,0,0,1-.47-.71,4.73,4.73,0,0,1-.09-.93V24.23a4.6,4.6,0,0,1,.08-.93,1,1,0,0,1,.49-.68,2.49,2.49,0,0,1,1.33-.26,2.63,2.63,0,0,1,1.26.23,1.1,1.1,0,0,1,.49.55,2.08,2.08,0,0,1,.1.54l-.31.15a3.56,3.56,0,0,1,.86-.91,3.71,3.71,0,0,1,.91-.49,3.62,3.62,0,0,1,1.24-.2c.18,0,.38,0,.61,0a4.89,4.89,0,0,1,.7.15,3.32,3.32,0,0,1,.66.3,1.8,1.8,0,0,1,.49.46,1.23,1.23,0,0,1,.18.68,3.06,3.06,0,0,1-.47,1.74,1.42,1.42,0,0,1-1.2.71,2,2,0,0,1-.6-.06,1.92,1.92,0,0,1-.29-.15.93.93,0,0,0-.26-.15,1.39,1.39,0,0,0-.55-.07,2.71,2.71,0,0,0-.71.1,2.06,2.06,0,0,0-.63.31,1.63,1.63,0,0,0-.45.53,1.51,1.51,0,0,0-.16.71V33a5.4,5.4,0,0,1-.08.91,1.07,1.07,0,0,1-.49.69A2.71,2.71,0,0,1,155.93,34.86Z"/><path class="cls-2" d="M171.13,35a2.2,2.2,0,0,1-1-.22,1.43,1.43,0,0,1-.67-.7l-4.49-9a2,2,0,0,1-.26-1.49,2,2,0,0,1,1.14-1.06,2.39,2.39,0,0,1,1.51-.31c.37.09.71.49,1,1.19l2.8,6.5,2.8-6.42c.3-.72.64-1.14,1-1.25a2.24,2.24,0,0,1,1.57.32c.68.32,1.06.69,1.13,1.12a2.32,2.32,0,0,1-.31,1.46L172.86,34a1.48,1.48,0,0,1-.65.7A2.31,2.31,0,0,1,171.13,35Z"/><path class="cls-2" d="M189.93,34.85a2.33,2.33,0,0,1-1.37-.33.91.91,0,0,1-.43-.8l.25-.42a2.72,2.72,0,0,1-.57.61,4.28,4.28,0,0,1-1.11.65,4.38,4.38,0,0,1-1.67.29,5,5,0,0,1-2.18-.5A5.93,5.93,0,0,1,181,33a7,7,0,0,1-1.27-2,6,6,0,0,1-.48-2.37,5.83,5.83,0,0,1,.48-2.34,6.72,6.72,0,0,1,1.29-2,6.07,6.07,0,0,1,1.84-1.36,4.77,4.77,0,0,1,2.17-.5,4.35,4.35,0,0,1,1.58.26,4.57,4.57,0,0,1,1.08.61,3.18,3.18,0,0,1,.66.68l-.22-.35a1.05,1.05,0,0,1,.44-.91,3.12,3.12,0,0,1,2.67,0,1.14,1.14,0,0,1,.48.73,4.79,4.79,0,0,1,.09.95V33a4.73,4.73,0,0,1-.09.93,1.12,1.12,0,0,1-.47.71A2.52,2.52,0,0,1,189.93,34.85Zm-4.37-3.73a2.21,2.21,0,0,0,1.2-.33,2.6,2.6,0,0,0,.85-.92,2.48,2.48,0,0,0,.33-1.27,2.53,2.53,0,0,0-.33-1.29,2.47,2.47,0,0,0-3.36-.88A2.57,2.57,0,0,0,183,28.65a2.28,2.28,0,0,0,.34,1.23,2.51,2.51,0,0,0,.92.91A2.58,2.58,0,0,0,185.56,31.12Z"/><path class="cls-2" d="M198.81,35.08a8.15,8.15,0,0,1-1.48-.15,8.68,8.68,0,0,1-1.53-.44,5.22,5.22,0,0,1-1.25-.67,1.3,1.3,0,0,1-.57-.89,1.42,1.42,0,0,1,0-.54,2.32,2.32,0,0,1,.22-.6,4.44,4.44,0,0,1,.44-.66.89.89,0,0,1,.44-.35,1.09,1.09,0,0,1,.59,0,3.28,3.28,0,0,1,.8.27l.82.4c.28.14.58.26.87.37a2.73,2.73,0,0,0,.93.17,2.19,2.19,0,0,0,1.09-.22.63.63,0,0,0,.38-.58.61.61,0,0,0-.16-.45,1.27,1.27,0,0,0-.45-.3,4,4,0,0,0-.67-.24q-.39-.12-.81-.21a8.9,8.9,0,0,1-.9-.26,6.9,6.9,0,0,1-1.19-.45,4,4,0,0,1-1.05-.71,3.3,3.3,0,0,1-.74-1.07,4.05,4.05,0,0,1-.27-1.57,3.61,3.61,0,0,1,.56-2.05,3.51,3.51,0,0,1,1.67-1.26,7.35,7.35,0,0,1,2.7-.43,6.55,6.55,0,0,1,.89.05,5.19,5.19,0,0,1,.89.17c.29.09.58.19.86.3a6.16,6.16,0,0,1,.85.43,1.13,1.13,0,0,1,.78.95,2,2,0,0,1-.43,1.25,2.15,2.15,0,0,1-.57.59.89.89,0,0,1-.63.13,3.82,3.82,0,0,1-.86-.34c-.31-.15-.63-.3-1-.43a2.65,2.65,0,0,0-1-.2,2,2,0,0,0-.72.11.94.94,0,0,0-.45.3.67.67,0,0,0-.15.44.69.69,0,0,0,.19.51,1.39,1.39,0,0,0,.51.31,6.19,6.19,0,0,0,.75.23l.92.2a13.23,13.23,0,0,1,1.39.33,4.73,4.73,0,0,1,1.3.62,2.91,2.91,0,0,1,.95,1.07,3.8,3.8,0,0,1,.36,1.78,3.56,3.56,0,0,1-1.38,3A6.33,6.33,0,0,1,198.81,35.08Z"/><path class="cls-2" d="M218.16,34.87a5.25,5.25,0,0,1-2.18-.45,5.46,5.46,0,0,1-1.75-1.27,5.8,5.8,0,0,1-1.16-1.92,7.1,7.1,0,0,1-.41-2.44V24.26a4.42,4.42,0,0,1,.09-.92,1.1,1.1,0,0,1,.49-.7,2.47,2.47,0,0,1,1.33-.27,2.39,2.39,0,0,1,1.31.27,1.1,1.1,0,0,1,.47.71,4.76,4.76,0,0,1,.09.94v4.5a2.73,2.73,0,0,0,.26,1.26,1.8,1.8,0,0,0,.77.82,2.57,2.57,0,0,0,1.21.27,2.5,2.5,0,0,0,1.24-.28,2.1,2.1,0,0,0,.8-.82,2.57,2.57,0,0,0,.29-1.25V24.24a4.42,4.42,0,0,1,.09-.92,1.08,1.08,0,0,1,.49-.69,2.57,2.57,0,0,1,1.32-.26,2.31,2.31,0,0,1,1.32.28,1.1,1.1,0,0,1,.47.71,4.53,4.53,0,0,1,.09.91v8.8a5,5,0,0,1-.08.89,1,1,0,0,1-.49.66,2.52,2.52,0,0,1-1.3.25,2.92,2.92,0,0,1-1-.15,1.25,1.25,0,0,1-.55-.38.91.91,0,0,1-.21-.47,2.57,2.57,0,0,1,0-.45l.32-.28a1.94,1.94,0,0,1-.32.39,5.89,5.89,0,0,1-.66.58,4.69,4.69,0,0,1-1,.53A3.31,3.31,0,0,1,218.16,34.87Z"/><path class="cls-2" d="M229.16,34.87a2.42,2.42,0,0,1-1.32-.26,1.1,1.1,0,0,1-.47-.7,4.53,4.53,0,0,1-.09-.91V24.2a4.19,4.19,0,0,1,.09-.89,1,1,0,0,1,.48-.66,2.6,2.6,0,0,1,1.33-.25,2.49,2.49,0,0,1,1.17.21,1,1,0,0,1,.49.51,1.51,1.51,0,0,1,.11.57,1,1,0,0,0,0,.36l-.15.48a1.61,1.61,0,0,1,.39-.77,3.74,3.74,0,0,1,.85-.7,4.7,4.7,0,0,1,1.1-.48,4,4,0,0,1,1.16-.18,5,5,0,0,1,2.14.44,4.24,4.24,0,0,1,1.59,1.26,5.81,5.81,0,0,1,1,1.94,8.27,8.27,0,0,1,.34,2.44V33a4.46,4.46,0,0,1-.09.91,1.06,1.06,0,0,1-.48.69,2.53,2.53,0,0,1-1.33.25,2.59,2.59,0,0,1-1.33-.26,1.06,1.06,0,0,1-.48-.7,4.63,4.63,0,0,1-.09-.92V28.48a2.92,2.92,0,0,0-.26-1.28,1.93,1.93,0,0,0-.75-.8,2.46,2.46,0,0,0-1.21-.27,2.57,2.57,0,0,0-1.25.28,2.06,2.06,0,0,0-.82.81,2.62,2.62,0,0,0-.28,1.25V33a5.4,5.4,0,0,1-.08.91,1,1,0,0,1-.48.68A2.52,2.52,0,0,1,229.16,34.87Z"/><path class="cls-2" d="M243.87,20.61a2.38,2.38,0,0,1-1.35-.28,1.09,1.09,0,0,1-.49-.72,4.86,4.86,0,0,1-.09-.95,4.92,4.92,0,0,1,.09-1,1.09,1.09,0,0,1,.5-.7,2.71,2.71,0,0,1,1.36-.26,2.46,2.46,0,0,1,1.33.28,1,1,0,0,1,.48.72,5,5,0,0,1,.09,1,4.63,4.63,0,0,1-.09.92,1.08,1.08,0,0,1-.48.72A2.65,2.65,0,0,1,243.87,20.61Zm0,14.3a2.47,2.47,0,0,1-1.33-.27,1,1,0,0,1-.47-.7A5.31,5.31,0,0,1,242,33V24.31a4.63,4.63,0,0,1,.09-.92,1,1,0,0,1,.49-.69,2.41,2.41,0,0,1,1.32-.27,2.33,2.33,0,0,1,1.29.28,1.1,1.1,0,0,1,.47.71,4.69,4.69,0,0,1,.09.94v8.7a5.31,5.31,0,0,1-.08.91,1.06,1.06,0,0,1-.48.69A2.52,2.52,0,0,1,243.86,34.91Z"/><path class="cls-2" d="M253.76,34.89a5,5,0,0,1-2.18-.49A6,6,0,0,1,249.76,33a6.88,6.88,0,0,1-1.26-2,6.3,6.3,0,0,1-.46-2.41,6,6,0,0,1,.46-2.34,6.32,6.32,0,0,1,1.28-2,6.15,6.15,0,0,1,1.83-1.36,4.91,4.91,0,0,1,2.15-.5,4.39,4.39,0,0,1,2.12.49,4.34,4.34,0,0,1,1.52,1.34,6.31,6.31,0,0,1,.94,2,9.6,9.6,0,0,1,.35,2.35,9.28,9.28,0,0,1-.31,2.4,6.22,6.22,0,0,1-.92,2,4.79,4.79,0,0,1-1.55,1.39A4.41,4.41,0,0,1,253.76,34.89Zm.5-3.7a2.19,2.19,0,0,0,1.21-.34,2.65,2.65,0,0,0,.88-.91,2.51,2.51,0,0,0,.34-1.27,2.48,2.48,0,0,0-.33-1.27,2.58,2.58,0,0,0-.87-.9,2.48,2.48,0,0,0-2.49,0,2.24,2.24,0,0,0-.88.9,2.6,2.6,0,0,0-.31,1.27,2.54,2.54,0,0,0,.33,1.28,2.43,2.43,0,0,0,.89.91A2.35,2.35,0,0,0,254.26,31.19Zm4.35,3.73a2.37,2.37,0,0,1-1.27-.28,1.3,1.3,0,0,1-.53-.85V18.64a6.62,6.62,0,0,1,.06-.91,1,1,0,0,1,.44-.71,2.15,2.15,0,0,1,1.27-.28,2.49,2.49,0,0,1,1.33.26,1.17,1.17,0,0,1,.47.69,4,4,0,0,1,.1.93V33a5.4,5.4,0,0,1-.08.91,1.12,1.12,0,0,1-.48.71A2.29,2.29,0,0,1,258.61,34.92Z"/><path class="cls-2" d="M273.21,34.9a2.34,2.34,0,0,1-1.38-.33.88.88,0,0,1-.42-.8l.25-.42a2.59,2.59,0,0,1-.58.61,4.11,4.11,0,0,1-1.11.65,4.33,4.33,0,0,1-1.66.29,5,5,0,0,1-2.19-.5A6.17,6.17,0,0,1,264.28,33,7,7,0,0,1,263,31a6.13,6.13,0,0,1,0-4.71,6.72,6.72,0,0,1,1.29-2A6.07,6.07,0,0,1,266.14,23a4.8,4.8,0,0,1,2.17-.5,4.32,4.32,0,0,1,1.58.26,4.86,4.86,0,0,1,1.09.61,3.45,3.45,0,0,1,.66.68l-.23-.35a1.05,1.05,0,0,1,.44-.91,2.42,2.42,0,0,1,1.39-.31,2.34,2.34,0,0,1,1.29.27,1.16,1.16,0,0,1,.47.73,4.79,4.79,0,0,1,.09.95V33a4.73,4.73,0,0,1-.09.93,1,1,0,0,1-.47.71A2.5,2.5,0,0,1,273.21,34.9Zm-4.38-3.73a2.21,2.21,0,0,0,1.2-.33,2.51,2.51,0,0,0,.85-.92,2.48,2.48,0,0,0,.33-1.27,2.62,2.62,0,0,0-.32-1.29,2.5,2.5,0,0,0-.88-.89,2.39,2.39,0,0,0-1.22-.32,2.48,2.48,0,0,0-1.27.33,2.57,2.57,0,0,0-1.24,2.22,2.37,2.37,0,0,0,.34,1.23,2.44,2.44,0,0,0,.93.9A2.48,2.48,0,0,0,268.83,31.17Z"/><path class="cls-2" d="M282.08,35.13a8,8,0,0,1-1.47-.15,8.55,8.55,0,0,1-1.54-.44,5.43,5.43,0,0,1-1.25-.67,1.28,1.28,0,0,1-.56-.89,1.24,1.24,0,0,1,0-.54,2.37,2.37,0,0,1,.23-.6,3.68,3.68,0,0,1,.43-.66.94.94,0,0,1,.44-.35,1.09,1.09,0,0,1,.59,0,3.15,3.15,0,0,1,.8.27c.26.12.54.25.82.4s.58.26.88.37a2.67,2.67,0,0,0,.92.17,2.19,2.19,0,0,0,1.09-.22.64.64,0,0,0,.39-.58.65.65,0,0,0-.16-.45,1.27,1.27,0,0,0-.45-.3,4.46,4.46,0,0,0-.68-.24q-.39-.12-.81-.21c-.28-.07-.58-.15-.9-.26a6.9,6.9,0,0,1-1.19-.45,4,4,0,0,1-1.05-.71,3.13,3.13,0,0,1-.73-1.07,3.87,3.87,0,0,1-.28-1.57,3.61,3.61,0,0,1,.56-2.05,3.56,3.56,0,0,1,1.67-1.26,7.15,7.15,0,0,1,2.7-.43,6.79,6.79,0,0,1,.9,0,5.58,5.58,0,0,1,.89.17c.29.09.57.19.86.3a7.55,7.55,0,0,1,.85.43,1.1,1.1,0,0,1,.77.95,2,2,0,0,1-.42,1.25,2.33,2.33,0,0,1-.58.59.87.87,0,0,1-.62.13,3.7,3.7,0,0,1-.87-.34c-.3-.15-.63-.3-1-.43a2.63,2.63,0,0,0-1-.2,2,2,0,0,0-.73.11.94.94,0,0,0-.45.3A.66.66,0,0,0,281,26a.69.69,0,0,0,.19.52,1.39,1.39,0,0,0,.51.31,7.54,7.54,0,0,0,.75.23l.93.2a10.66,10.66,0,0,1,1.38.34,4.44,4.44,0,0,1,1.3.61,2.91,2.91,0,0,1,.95,1.07,3.8,3.8,0,0,1,.36,1.78,3.58,3.58,0,0,1-1.37,3A6.38,6.38,0,0,1,282.08,35.13Z"/><path class="cls-4" d="M54.61,34.08h4.52q3.42,0,3.42,4a4,4,0,0,1-1.08,3.17c-.72.63-2,.94-3.85.94h-11c-1.91,0-3.2-.25-3.89-.77s-1-1.63-1-3.34a5.64,5.64,0,0,1,.16-1.45,3.53,3.53,0,0,1,.62-1.2,5.18,5.18,0,0,1,1.22-1.13c1.47-1,2.62-1.82,3.46-2.44s1.67-1.26,2.47-1.95a13.25,13.25,0,0,0,1.77-1.76,10.45,10.45,0,0,0,1-1.66A6.38,6.38,0,0,0,53,24.59a15.39,15.39,0,0,0,.14-2.19c0-1.56-.47-2.35-1.42-2.35s-1.55.93-1.55,2.77a2,2,0,0,1-1,2,7,7,0,0,1-2.89.46c-1.74,0-2.92-.39-3.53-1.17a6.48,6.48,0,0,1-.91-3.91,5.48,5.48,0,0,1,2.51-4.56,11.74,11.74,0,0,1,7-1.82q11.07,0,11.07,8.69A14.11,14.11,0,0,1,62,26.21,11.66,11.66,0,0,1,60.89,29a9.08,9.08,0,0,1-1.78,2.12A17.42,17.42,0,0,1,57,32.74,26.68,26.68,0,0,1,54.61,34.08Z"/><path class="cls-4" d="M65.24,39a2.78,2.78,0,0,1,1.16-2.31,5.38,5.38,0,0,1,3.28-.88c3,0,4.44,1.07,4.44,3.19a3.11,3.11,0,0,1-.57,2,2.73,2.73,0,0,1-1.51,1,9.17,9.17,0,0,1-2.36.26,6.13,6.13,0,0,1-3.18-.76A2.62,2.62,0,0,1,65.24,39Z"/><path class="cls-4" d="M88.51,23c0-1.37-1.23-2.06-3.7-2.06a19.62,19.62,0,0,0-2.1.15,19.23,19.23,0,0,1-1.94.15q-2.92,0-2.93-3.62t8.48-3.73q5.5,0,8.23,1.84a5.63,5.63,0,0,1,2.73,4.83,7.77,7.77,0,0,1-3.51,6.64,9.38,9.38,0,0,1,3.31,2.71,7.17,7.17,0,0,1,1,4,7.32,7.32,0,0,1-2.8,5.94,11.41,11.41,0,0,1-7.48,2.29q-5.87,0-8.41-1.23a4,4,0,0,1-2.54-3.76,3.92,3.92,0,0,1,.82-2.88,3.15,3.15,0,0,1,2.28-.78c.49,0,1.25.06,2.28.17s1.82.17,2.36.17q4.44,0,4.44-1.68a1.62,1.62,0,0,0-.85-1.58,8,8,0,0,0-3.22-.44,6.5,6.5,0,0,1-3.34-.63,2.58,2.58,0,0,1-1-2.35c0-1.73,1.11-2.6,3.34-2.6a17.73,17.73,0,0,0,3.2-.21c.69-.14,1.09-.3,1.2-.49A1.82,1.82,0,0,0,88.51,23Z"/><path class="cls-5" d="M54.61,34.08h4.52q3.42,0,3.42,4a4,4,0,0,1-1.08,3.17c-.72.63-2,.94-3.85.94h-11c-1.91,0-3.2-.25-3.89-.77s-1-1.63-1-3.34a5.64,5.64,0,0,1,.16-1.45,3.53,3.53,0,0,1,.62-1.2,5.18,5.18,0,0,1,1.22-1.13c1.47-1,2.62-1.82,3.46-2.44s1.67-1.26,2.47-1.95a13.25,13.25,0,0,0,1.77-1.76,10.45,10.45,0,0,0,1-1.66A6.38,6.38,0,0,0,53,24.59a15.39,15.39,0,0,0,.14-2.19c0-1.56-.47-2.35-1.42-2.35s-1.55.93-1.55,2.77a2,2,0,0,1-1,2,7,7,0,0,1-2.89.46c-1.74,0-2.92-.39-3.53-1.17a6.48,6.48,0,0,1-.91-3.91,5.48,5.48,0,0,1,2.51-4.56,11.74,11.74,0,0,1,7-1.82q11.07,0,11.07,8.69A14.11,14.11,0,0,1,62,26.21,11.66,11.66,0,0,1,60.89,29a9.08,9.08,0,0,1-1.78,2.12A17.42,17.42,0,0,1,57,32.74,26.68,26.68,0,0,1,54.61,34.08Z"/><path class="cls-5" d="M65.24,39a2.78,2.78,0,0,1,1.16-2.31,5.38,5.38,0,0,1,3.28-.88c3,0,4.44,1.07,4.44,3.19a3.11,3.11,0,0,1-.57,2,2.73,2.73,0,0,1-1.51,1,9.17,9.17,0,0,1-2.36.26,6.13,6.13,0,0,1-3.18-.76A2.62,2.62,0,0,1,65.24,39Z"/><path class="cls-5" d="M88.51,23c0-1.37-1.23-2.06-3.7-2.06a19.62,19.62,0,0,0-2.1.15,19.23,19.23,0,0,1-1.94.15q-2.92,0-2.93-3.62t8.48-3.73q5.5,0,8.23,1.84a5.63,5.63,0,0,1,2.73,4.83,7.77,7.77,0,0,1-3.51,6.64,9.38,9.38,0,0,1,3.31,2.71,7.17,7.17,0,0,1,1,4,7.32,7.32,0,0,1-2.8,5.94,11.41,11.41,0,0,1-7.48,2.29q-5.87,0-8.41-1.23a4,4,0,0,1-2.54-3.76,3.92,3.92,0,0,1,.82-2.88,3.15,3.15,0,0,1,2.28-.78c.49,0,1.25.06,2.28.17s1.82.17,2.36.17q4.44,0,4.44-1.68a1.62,1.62,0,0,0-.85-1.58,8,8,0,0,0-3.22-.44,6.5,6.5,0,0,1-3.34-.63,2.58,2.58,0,0,1-1-2.35c0-1.73,1.11-2.6,3.34-2.6a17.73,17.73,0,0,0,3.2-.21c.69-.14,1.09-.3,1.2-.49A1.82,1.82,0,0,0,88.51,23Z"/></g></g></svg>