<svg xmlns="http://www.w3.org/2000/svg" viewBox="0 0 399.98 91.27"><defs><style>.cls-1{fill:#512573;}.cls-2{fill:#fff;}.cls-3,.cls-4{fill:none;stroke-width:4.85px;}.cls-3{stroke:#ff7300;stroke-linejoin:round;}.cls-4,.cls-5{font-size:39.54px;font-family:Coiny-Regular, Coiny;}.cls-4{stroke:#fff;}.cls-5{fill:#ff7300;}</style></defs><title>23tv</title><g id="Layer_2" data-name="Layer 2"><g id="pestaña_identificativa" data-name="pestaña identificativa"><rect class="cls-1" width="399.98" height="91.27" rx="32.4"/><path class="cls-2" d="M114.17,16.33a3.84,3.84,0,0,1,.78.07.92.92,0,0,1,.59.4,2,2,0,0,1,.22,1.08,1.93,1.93,0,0,1-.22,1.06.92.92,0,0,1-.6.4,4.11,4.11,0,0,1-.8.07h-4V31.06a3.89,3.89,0,0,1-.08.85,1,1,0,0,1-.48.64,2.57,2.57,0,0,1-1.34.25,2.45,2.45,0,0,1-1.27-.25,1,1,0,0,1-.49-.66,4,4,0,0,1-.09-.86V19.41h-4a4,4,0,0,1-.77-.09,1,1,0,0,1-.61-.4,1.82,1.82,0,0,1-.24-1.07,1.82,1.82,0,0,1,.24-1.06,1,1,0,0,1,.61-.4,4.9,4.9,0,0,1,.77-.07Z"/><path class="cls-2" d="M119.73,32.81a2.6,2.6,0,0,1-1.31-.25,1,1,0,0,1-.48-.67,4.14,4.14,0,0,1-.08-.87V22.8a4,4,0,0,1,.09-.87,1,1,0,0,1,.49-.64,2.56,2.56,0,0,1,1.32-.25,2.62,2.62,0,0,1,1.26.22,1,1,0,0,1,.49.52,1.57,1.57,0,0,1,.1.51l-.3.14a2.15,2.15,0,0,1,.26-.34,3.51,3.51,0,0,1,.59-.52,3.61,3.61,0,0,1,2.15-.65c.19,0,.39,0,.62,0a3.67,3.67,0,0,1,.69.14,3.14,3.14,0,0,1,.67.28,1.57,1.57,0,0,1,.48.44,1,1,0,0,1,.19.64,2.8,2.8,0,0,1-.47,1.63,1.43,1.43,0,0,1-1.21.67,2.11,2.11,0,0,1-.6-.06.92.92,0,0,1-.28-.14,1.71,1.71,0,0,0-.27-.14,1.68,1.68,0,0,0-.55-.06,2.76,2.76,0,0,0-.71.09,2.09,2.09,0,0,0-.62.3,1.31,1.31,0,0,0-.45.49,1.36,1.36,0,0,0-.17.67v5.16a4,4,0,0,1-.09.86,1,1,0,0,1-.49.64A2.66,2.66,0,0,1,119.73,32.81Z"/><path class="cls-2" d="M139.13,32.79a2.52,2.52,0,0,1-1.38-.3.83.83,0,0,1-.42-.76l.25-.4a2.59,2.59,0,0,1-.58.58,4.1,4.1,0,0,1-1.11.61,4.55,4.55,0,0,1-1.66.27,5.29,5.29,0,0,1-2.19-.47A5.9,5.9,0,0,1,130.2,31a6.75,6.75,0,0,1-1.27-1.89,5.48,5.48,0,0,1,0-4.44,6.35,6.35,0,0,1,3.13-3.14,5.21,5.21,0,0,1,2.18-.47,4.29,4.29,0,0,1,2.66.83,3.36,3.36,0,0,1,.66.63l-.22-.33a1,1,0,0,1,.43-.86,2.64,2.64,0,0,1,1.39-.29,2.44,2.44,0,0,1,1.29.26,1,1,0,0,1,.47.68,4.29,4.29,0,0,1,.09.9V31a4.94,4.94,0,0,1-.08.87,1,1,0,0,1-.48.67A2.51,2.51,0,0,1,139.13,32.79Zm-4.37-3.5A2.29,2.29,0,0,0,136,29a2.5,2.5,0,0,0,.85-.86,2.34,2.34,0,0,0,.32-1.2,2.3,2.3,0,0,0-.32-1.21,2.37,2.37,0,0,0-.88-.84,2.48,2.48,0,0,0-1.22-.31,2.51,2.51,0,0,0-1.26.32,2.4,2.4,0,0,0-.9.86,2.22,2.22,0,0,0-.34,1.22,2.15,2.15,0,0,0,.33,1.17,2.63,2.63,0,0,0,.93.85A2.68,2.68,0,0,0,134.76,29.29Z"/><path class="cls-2" d="M144.88,32.82a1.81,1.81,0,0,1-1.31-.51,1.63,1.63,0,0,1-.54-1.25,1.76,1.76,0,0,1,.55-1.28l5.68-5.17h-3.8a3.85,3.85,0,0,1-.91-.1,1.17,1.17,0,0,1-.73-.46,2,2,0,0,1-.29-1.23,2.15,2.15,0,0,1,.29-1.24,1.17,1.17,0,0,1,.73-.44,4.46,4.46,0,0,1,.91-.09h7.83a1.84,1.84,0,0,1,1.32.49,1.65,1.65,0,0,1,.53,1.25,2.19,2.19,0,0,1-.14.72,1.31,1.31,0,0,1-.39.55l-5.55,5.2h4.52a4,4,0,0,1,.93.1,1.08,1.08,0,0,1,.68.47,2.22,2.22,0,0,1,.26,1.25,2.14,2.14,0,0,1-.27,1.22,1.08,1.08,0,0,1-.7.45,6.53,6.53,0,0,1-.93.07Z"/><path class="cls-2" d="M167.7,32.81a2.42,2.42,0,0,1-1.37-.31.84.84,0,0,1-.43-.75l.25-.4a2.72,2.72,0,0,1-.57.58,4.34,4.34,0,0,1-2.78.88,5.28,5.28,0,0,1-2.18-.47A5.84,5.84,0,0,1,158.78,31a6.59,6.59,0,0,1-1.27-1.9A5.32,5.32,0,0,1,157,26.9a5.22,5.22,0,0,1,.48-2.2,6.33,6.33,0,0,1,1.29-1.86,6.15,6.15,0,0,1,1.84-1.28,5,5,0,0,1,2.17-.47,4.61,4.61,0,0,1,1.58.24,4.55,4.55,0,0,1,1.08.58,3.19,3.19,0,0,1,.67.64l-.23-.33a1,1,0,0,1,.44-.86,2.5,2.5,0,0,1,1.39-.29,2.29,2.29,0,0,1,1.28.26,1.06,1.06,0,0,1,.48.68,3.69,3.69,0,0,1,.08.89V31a4.14,4.14,0,0,1-.09.87,1,1,0,0,1-.47.67A2.53,2.53,0,0,1,167.7,32.81Zm-4.37-3.51a2.2,2.2,0,0,0,1.2-.32,2.39,2.39,0,0,0,.85-.85,2.32,2.32,0,0,0-.87-3.25,2.44,2.44,0,0,0-1.23-.31,2.5,2.5,0,0,0-2.16,1.18,2.22,2.22,0,0,0-.34,1.22,2.13,2.13,0,0,0,.34,1.17A2.41,2.41,0,0,0,162,29,2.57,2.57,0,0,0,163.33,29.3Z"/><path class="cls-2" d="M184.8,33.06a7.63,7.63,0,0,1-3-.55,5.77,5.77,0,0,1-2.06-1.42,6.18,6.18,0,0,1-1.2-2,6.11,6.11,0,0,1-.4-2.16,5.85,5.85,0,0,1,.85-3.13,6,6,0,0,1,2.37-2.16,7.44,7.44,0,0,1,3.46-.78,6.56,6.56,0,0,1,2.51.43,5.26,5.26,0,0,1,1.75,1.14,4.81,4.81,0,0,1,1,1.49,4,4,0,0,1,.33,1.53,2.56,2.56,0,0,1-.66,1.93,2.36,2.36,0,0,1-1.69.63h-6a1.6,1.6,0,0,0,.46,1,2.65,2.65,0,0,0,1,.66A3.69,3.69,0,0,0,185,30a8.05,8.05,0,0,0,1-.06,4.56,4.56,0,0,0,.79-.16l.59-.21a4.27,4.27,0,0,1,.49-.18,1.76,1.76,0,0,1,.42-.09,1,1,0,0,1,.68.2,2,2,0,0,1,.57.67,1.48,1.48,0,0,1,.24.49,2,2,0,0,1,.06.47,1.25,1.25,0,0,1-.61,1,4.94,4.94,0,0,1-1.73.69A12.19,12.19,0,0,1,184.8,33.06Zm-2.67-7h4a1.06,1.06,0,0,0,.58-.13.57.57,0,0,0,.2-.51,1.07,1.07,0,0,0-.28-.72,1.78,1.78,0,0,0-.73-.51,3,3,0,0,0-1.09-.18,3.26,3.26,0,0,0-1.35.28,2.38,2.38,0,0,0-.94.76A1.73,1.73,0,0,0,182.13,26.09Z"/><path class="cls-2" d="M197.33,32.85a16.58,16.58,0,0,1-1.83-.09,4.14,4.14,0,0,1-1.35-.38,2.53,2.53,0,0,1-.9-.79,3.61,3.61,0,0,1-.52-1.3,8.83,8.83,0,0,1-.18-1.94V17.48a3.46,3.46,0,0,1,.1-.87,1.1,1.1,0,0,1,.49-.66,2.5,2.5,0,0,1,1.31-.26,2.44,2.44,0,0,1,1.29.26,1.1,1.1,0,0,1,.49.66,4,4,0,0,1,.1.87V28.19a3.57,3.57,0,0,0,0,.62.7.7,0,0,0,.15.39.5.5,0,0,0,.31.19,2.4,2.4,0,0,0,.52.05,2.68,2.68,0,0,1,.62.07.88.88,0,0,1,.53.42,2.3,2.3,0,0,1,.23,1.18,2.45,2.45,0,0,1-.23,1.22.86.86,0,0,1-.53.45A2.79,2.79,0,0,1,197.33,32.85Z"/><path class="cls-2" d="M209,32.83a2.64,2.64,0,0,1-1.31-.24,1,1,0,0,1-.47-.66,4,4,0,0,1-.09-.86V22.78a3.7,3.7,0,0,1,.09-.83,1,1,0,0,1,.49-.63,2.86,2.86,0,0,1,1.32-.23,2.66,2.66,0,0,1,1.18.2,1,1,0,0,1,.49.48,1.57,1.57,0,0,1,.11.53.83.83,0,0,0,.05.34l-.15.45a1.36,1.36,0,0,1,.39-.72,3.48,3.48,0,0,1,.85-.66,4.88,4.88,0,0,1,1.1-.45,4.29,4.29,0,0,1,1.16-.17,5.21,5.21,0,0,1,2.14.42,4.29,4.29,0,0,1,1.58,1.18,5.22,5.22,0,0,1,1,1.83,7.58,7.58,0,0,1,.34,2.29V31.1a4.82,4.82,0,0,1-.08.86,1,1,0,0,1-.48.64,2.72,2.72,0,0,1-1.34.24,2.53,2.53,0,0,1-1.32-.25,1,1,0,0,1-.49-.66,4,4,0,0,1-.09-.86V26.81a2.47,2.47,0,0,0-.27-1.2,1.7,1.7,0,0,0-.75-.75,2.55,2.55,0,0,0-1.21-.26,2.71,2.71,0,0,0-1.25.27,1.92,1.92,0,0,0-.81.76,2.34,2.34,0,0,0-.29,1.18v4.28a4,4,0,0,1-.09.86,1,1,0,0,1-.48.65A2.61,2.61,0,0,1,209,32.83Z"/><path class="cls-2" d="M227,32.84a5.57,5.57,0,0,1-2.18-.42,5.32,5.32,0,0,1-2.91-3,6.35,6.35,0,0,1-.41-2.3V22.86a4,4,0,0,1,.09-.87,1,1,0,0,1,.49-.66,2.57,2.57,0,0,1,1.32-.26,2.52,2.52,0,0,1,1.32.26,1.08,1.08,0,0,1,.47.67,4.19,4.19,0,0,1,.09.89v4.23a2.35,2.35,0,0,0,.26,1.19,1.69,1.69,0,0,0,.77.77,2.7,2.7,0,0,0,1.21.26,2.61,2.61,0,0,0,1.24-.27,2,2,0,0,0,.8-.77,2.31,2.31,0,0,0,.29-1.17V22.84A4,4,0,0,1,230,22a1,1,0,0,1,.49-.64,2.6,2.6,0,0,1,1.33-.25,2.5,2.5,0,0,1,1.31.26,1.09,1.09,0,0,1,.47.67,4,4,0,0,1,.09.86v8.28a4.44,4.44,0,0,1-.08.84,1,1,0,0,1-.49.62,2.65,2.65,0,0,1-1.3.24,3.2,3.2,0,0,1-1.05-.14,1.31,1.31,0,0,1-.55-.36.85.85,0,0,1-.21-.45,2.12,2.12,0,0,1,0-.42l.32-.26a3.13,3.13,0,0,1-.32.37,6.46,6.46,0,0,1-.67.54,4.32,4.32,0,0,1-1,.5A3.52,3.52,0,0,1,227,32.84Zm-.4-12.59a.89.89,0,0,1-.73-.23,2.51,2.51,0,0,1-.51-.95,1.74,1.74,0,0,1-.1-1.22,1.32,1.32,0,0,1,.92-.63l4.4-1.27a.89.89,0,0,1,.73.27,2.23,2.23,0,0,1,.5.93,1.66,1.66,0,0,1,.08,1.2A1.31,1.31,0,0,1,231,19Z"/><path class="cls-2" d="M238,32.87a2.39,2.39,0,0,1-1.3-.26,1,1,0,0,1-.48-.65,4.83,4.83,0,0,1-.07-.88V22.85a3.89,3.89,0,0,1,.09-.85,1,1,0,0,1,.49-.65,2.73,2.73,0,0,1,1.33-.24,2.11,2.11,0,0,1,1.34.34,1.34,1.34,0,0,1,.43,1.12l-.33.25a3.26,3.26,0,0,1,.3-.4,5.6,5.6,0,0,1,.65-.58,4,4,0,0,1,.94-.53,3,3,0,0,1,1.17-.23,4.84,4.84,0,0,1,1.48.23,3.91,3.91,0,0,1,1.2.66,4.18,4.18,0,0,1,.94,1.09,6,6,0,0,1,.85-.91,4.63,4.63,0,0,1,1.17-.76,3.73,3.73,0,0,1,1.53-.3,4,4,0,0,1,4,2.68,8.38,8.38,0,0,1,.53,3.14v4.21a3.49,3.49,0,0,1-.1.86,1.06,1.06,0,0,1-.49.66,2.59,2.59,0,0,1-1.31.24,2.45,2.45,0,0,1-1.32-.26,1,1,0,0,1-.48-.67,4.76,4.76,0,0,1-.07-.86V26.88a3.34,3.34,0,0,0-.19-1.21,1.67,1.67,0,0,0-.53-.78,1.46,1.46,0,0,0-.9-.27,1.79,1.79,0,0,0-1,.26,1.62,1.62,0,0,0-.6.75,3.48,3.48,0,0,0-.2,1.27v4.21A2.86,2.86,0,0,1,247,32a1.15,1.15,0,0,1-.54.66,2.68,2.68,0,0,1-1.33.22,2.18,2.18,0,0,1-1.25-.27,1.06,1.06,0,0,1-.45-.69,4.58,4.58,0,0,1-.08-.83V26.88a3.75,3.75,0,0,0-.18-1.23,1.65,1.65,0,0,0-.52-.78,1.81,1.81,0,0,0-2,.05,1.68,1.68,0,0,0-.59.81,3.17,3.17,0,0,0-.19,1.14v4.24a4,4,0,0,1-.09.87,1,1,0,0,1-.49.65A2.69,2.69,0,0,1,238,32.87Z"/><path class="cls-2" d="M262.9,33.1a7.64,7.64,0,0,1-3-.54,5.79,5.79,0,0,1-2.06-1.43,6,6,0,0,1-1.2-2,6.2,6.2,0,0,1-.4-2.17,5.76,5.76,0,0,1,.85-3.13,6,6,0,0,1,2.37-2.15,7.32,7.32,0,0,1,3.46-.79,6.59,6.59,0,0,1,2.51.44,5.24,5.24,0,0,1,1.75,1.13,4.81,4.81,0,0,1,1,1.49,4.06,4.06,0,0,1,.33,1.53,2.55,2.55,0,0,1-.66,1.93,2.32,2.32,0,0,1-1.69.64h-5.95a1.63,1.63,0,0,0,.46,1,2.9,2.9,0,0,0,1,.66,3.9,3.9,0,0,0,1.32.23c.39,0,.73,0,1,0a4.49,4.49,0,0,0,.79-.17l.59-.21.48-.18a2.55,2.55,0,0,1,.43-.09,1,1,0,0,1,.67.2,1.94,1.94,0,0,1,.58.67,1.75,1.75,0,0,1,.24.5,1.84,1.84,0,0,1,.06.47,1.25,1.25,0,0,1-.62,1,4.8,4.8,0,0,1-1.72.69A12.19,12.19,0,0,1,262.9,33.1Zm-2.67-7h3.95a1.06,1.06,0,0,0,.58-.13.55.55,0,0,0,.2-.5,1.08,1.08,0,0,0-.28-.73,1.78,1.78,0,0,0-.73-.51,3,3,0,0,0-1.09-.17,3.11,3.11,0,0,0-1.35.28,2.37,2.37,0,0,0-.94.75A1.66,1.66,0,0,0,260.23,26.13Z"/><path class="cls-2" d="M272.5,32.89a2.62,2.62,0,0,1-1.31-.24,1,1,0,0,1-.47-.68,4.14,4.14,0,0,1-.09-.87V22.89a4,4,0,0,1,.09-.87,1,1,0,0,1,.49-.65,2.6,2.6,0,0,1,1.32-.24,2.67,2.67,0,0,1,1.27.22,1,1,0,0,1,.48.52,1.47,1.47,0,0,1,.1.5l-.3.14a3.29,3.29,0,0,1,.27-.34,3.51,3.51,0,0,1,1.5-1,3.61,3.61,0,0,1,1.23-.19,4.7,4.7,0,0,1,.62,0,3.77,3.77,0,0,1,.7.14,2.79,2.79,0,0,1,.66.28,1.6,1.6,0,0,1,.49.44,1.07,1.07,0,0,1,.18.63,2.81,2.81,0,0,1-.47,1.64,1.45,1.45,0,0,1-1.2.67,2,2,0,0,1-.6-.06,1.12,1.12,0,0,1-.29-.14.82.82,0,0,0-.26-.14,1.72,1.72,0,0,0-.55-.06,2.84,2.84,0,0,0-.72.09,2.07,2.07,0,0,0-.62.29,1.53,1.53,0,0,0-.45.5,1.33,1.33,0,0,0-.16.67v5.15a4.74,4.74,0,0,1-.08.86,1,1,0,0,1-.49.65A2.75,2.75,0,0,1,272.5,32.89Z"/><path class="cls-2" d="M283.42,37.77a2.52,2.52,0,0,1-1.3-.25.94.94,0,0,1-.47-.63,4.44,4.44,0,0,1-.08-.84V22.9a4.49,4.49,0,0,1,.08-.86,1,1,0,0,1,.46-.65,2.44,2.44,0,0,1,1.29-.26,3,3,0,0,1,1.24.21,1.41,1.41,0,0,1,.66.66V36a2.65,2.65,0,0,1-.08.85,1.06,1.06,0,0,1-.48.65A2.66,2.66,0,0,1,283.42,37.77Zm4.81-5.08a4.7,4.7,0,0,1-2.15-.46A4.38,4.38,0,0,1,284.54,31a5.3,5.3,0,0,1-.92-1.82,7.06,7.06,0,0,1-.29-2.24,7.28,7.28,0,0,1,.33-2.2,6,6,0,0,1,.93-1.86,4.38,4.38,0,0,1,1.53-1.27,4.71,4.71,0,0,1,2.11-.46,5,5,0,0,1,2.15.48,6.15,6.15,0,0,1,1.84,1.28,6,6,0,0,1,1.27,1.87A5.52,5.52,0,0,1,294,27a5.59,5.59,0,0,1-.47,2.22,5.86,5.86,0,0,1-1.26,1.83,6.08,6.08,0,0,1-1.83,1.21A5.49,5.49,0,0,1,288.23,32.69Zm-.5-3.32a2.4,2.4,0,0,0,1.25-.32,2.58,2.58,0,0,0,.89-.85,2.32,2.32,0,0,0,0-2.4A2.21,2.21,0,0,0,289,25a2.44,2.44,0,0,0-1.23-.31,2.49,2.49,0,0,0-1.24.32,2.24,2.24,0,0,0-1.19,2,2.33,2.33,0,0,0,1.2,2.06A2.25,2.25,0,0,0,287.73,29.37Z"/><path class="cls-2" d="M305.16,22.86a2.13,2.13,0,0,1-1.3.58,1.92,1.92,0,0,1-1.25-.7,1.71,1.71,0,0,1-.63-1.29,2.11,2.11,0,0,1,.88-1.3l3.73-3.1a1.83,1.83,0,0,1,1.28-.54,2,2,0,0,1,1.24.73,1.6,1.6,0,0,1,.61,1.26,2.1,2.1,0,0,1-.89,1.28ZM308.3,33a2,2,0,0,1-1.44-.4,1.92,1.92,0,0,1-.41-1.39V18.23a1.88,1.88,0,0,1,.41-1.38,2.16,2.16,0,0,1,1.47-.39,2.12,2.12,0,0,1,1.46.4,2,2,0,0,1,.41,1.42V31.2a1.85,1.85,0,0,1-.41,1.37A2.18,2.18,0,0,1,308.3,33Z"/><path class="cls-2" d="M314.08,32.89a1.85,1.85,0,0,1-1.33-.55,1.72,1.72,0,0,1-.57-1.26,4.09,4.09,0,0,1,.08-.8,3.43,3.43,0,0,1,.28-.73,2.49,2.49,0,0,1,.49-.63,14.31,14.31,0,0,1,2-1.55c.72-.46,1.43-.9,2.14-1.31s1.36-.83,1.95-1.25a5.92,5.92,0,0,0,1.42-1.34,2.59,2.59,0,0,0,.52-1.56,2.38,2.38,0,0,0-.21-1,1.74,1.74,0,0,0-.75-.8,3.07,3.07,0,0,0-1.54-.32,3.5,3.5,0,0,0-1.11.17,2,2,0,0,0-.8.49,2,2,0,0,0-.46.8,3.53,3.53,0,0,0-.15,1.06,3.73,3.73,0,0,1-.09.84,1,1,0,0,1-.49.62,2.82,2.82,0,0,1-1.35.23,2.47,2.47,0,0,1-1.34-.27,1.12,1.12,0,0,1-.47-.7,4.41,4.41,0,0,1-.09-.89,5.82,5.82,0,0,1,.43-2.2,5.56,5.56,0,0,1,1.25-1.9,6.09,6.09,0,0,1,2-1.33,7.39,7.39,0,0,1,5.91.27,6,6,0,0,1,2.28,2.11,5.75,5.75,0,0,1,.83,3.08,5,5,0,0,1-.36,1.91,6.67,6.67,0,0,1-.94,1.59A7.81,7.81,0,0,1,322.29,27a12,12,0,0,1-1.44,1c-.48.29-.93.54-1.35.74l-1.05.52-.35,0h5.53a4.59,4.59,0,0,1,.93.09,1.11,1.11,0,0,1,.7.47,2.28,2.28,0,0,1,.27,1.27,2.17,2.17,0,0,1-.28,1.22,1.1,1.1,0,0,1-.72.47,5.8,5.8,0,0,1-.95.08Z"/><path class="cls-3" d="M114.17,16.33a3.84,3.84,0,0,1,.78.07.92.92,0,0,1,.59.4,2,2,0,0,1,.22,1.08,1.93,1.93,0,0,1-.22,1.06.92.92,0,0,1-.6.4,4.11,4.11,0,0,1-.8.07h-4V31.06a3.89,3.89,0,0,1-.08.85,1,1,0,0,1-.48.64,2.57,2.57,0,0,1-1.34.25,2.45,2.45,0,0,1-1.27-.25,1,1,0,0,1-.49-.66,4,4,0,0,1-.09-.86V19.41h-4a4,4,0,0,1-.77-.09,1,1,0,0,1-.61-.4,1.82,1.82,0,0,1-.24-1.07,1.82,1.82,0,0,1,.24-1.06,1,1,0,0,1,.61-.4,4.9,4.9,0,0,1,.77-.07Z"/><path class="cls-3" d="M119.73,32.81a2.6,2.6,0,0,1-1.31-.25,1,1,0,0,1-.48-.67,4.14,4.14,0,0,1-.08-.87V22.8a4,4,0,0,1,.09-.87,1,1,0,0,1,.49-.64,2.56,2.56,0,0,1,1.32-.25,2.62,2.62,0,0,1,1.26.22,1,1,0,0,1,.49.52,1.57,1.57,0,0,1,.1.51l-.3.14a2.15,2.15,0,0,1,.26-.34,3.51,3.51,0,0,1,.59-.52,3.61,3.61,0,0,1,2.15-.65c.19,0,.39,0,.62,0a3.67,3.67,0,0,1,.69.14,3.14,3.14,0,0,1,.67.28,1.57,1.57,0,0,1,.48.44,1,1,0,0,1,.19.64,2.8,2.8,0,0,1-.47,1.63,1.43,1.43,0,0,1-1.21.67,2.11,2.11,0,0,1-.6-.06.92.92,0,0,1-.28-.14,1.71,1.71,0,0,0-.27-.14,1.68,1.68,0,0,0-.55-.06,2.76,2.76,0,0,0-.71.09,2.09,2.09,0,0,0-.62.3,1.31,1.31,0,0,0-.45.49,1.36,1.36,0,0,0-.17.67v5.16a4,4,0,0,1-.09.86,1,1,0,0,1-.49.64A2.66,2.66,0,0,1,119.73,32.81Z"/><path class="cls-3" d="M139.13,32.79a2.52,2.52,0,0,1-1.38-.3.83.83,0,0,1-.42-.76l.25-.4a2.59,2.59,0,0,1-.58.58,4.1,4.1,0,0,1-1.11.61,4.55,4.55,0,0,1-1.66.27,5.29,5.29,0,0,1-2.19-.47A5.9,5.9,0,0,1,130.2,31a6.75,6.75,0,0,1-1.27-1.89,5.48,5.48,0,0,1,0-4.44,6.35,6.35,0,0,1,3.13-3.14,5.21,5.21,0,0,1,2.18-.47,4.29,4.29,0,0,1,2.66.83,3.36,3.36,0,0,1,.66.63l-.22-.33a1,1,0,0,1,.43-.86,2.64,2.64,0,0,1,1.39-.29,2.44,2.44,0,0,1,1.29.26,1,1,0,0,1,.47.68,4.29,4.29,0,0,1,.09.9V31a4.94,4.94,0,0,1-.08.87,1,1,0,0,1-.48.67A2.51,2.51,0,0,1,139.13,32.79Zm-4.37-3.5A2.29,2.29,0,0,0,136,29a2.5,2.5,0,0,0,.85-.86,2.34,2.34,0,0,0,.32-1.2,2.3,2.3,0,0,0-.32-1.21,2.37,2.37,0,0,0-.88-.84,2.48,2.48,0,0,0-1.22-.31,2.51,2.51,0,0,0-1.26.32,2.4,2.4,0,0,0-.9.86,2.22,2.22,0,0,0-.34,1.22,2.15,2.15,0,0,0,.33,1.17,2.63,2.63,0,0,0,.93.85A2.68,2.68,0,0,0,134.76,29.29Z"/><path class="cls-3" d="M144.88,32.82a1.81,1.81,0,0,1-1.31-.51,1.63,1.63,0,0,1-.54-1.25,1.76,1.76,0,0,1,.55-1.28l5.68-5.17h-3.8a3.85,3.85,0,0,1-.91-.1,1.17,1.17,0,0,1-.73-.46,2,2,0,0,1-.29-1.23,2.15,2.15,0,0,1,.29-1.24,1.17,1.17,0,0,1,.73-.44,4.46,4.46,0,0,1,.91-.09h7.83a1.84,1.84,0,0,1,1.32.49,1.65,1.65,0,0,1,.53,1.25,2.19,2.19,0,0,1-.14.72,1.31,1.31,0,0,1-.39.55l-5.55,5.2h4.52a4,4,0,0,1,.93.1,1.08,1.08,0,0,1,.68.47,2.22,2.22,0,0,1,.26,1.25,2.14,2.14,0,0,1-.27,1.22,1.08,1.08,0,0,1-.7.45,6.53,6.53,0,0,1-.93.07Z"/><path class="cls-3" d="M167.7,32.81a2.42,2.42,0,0,1-1.37-.31.84.84,0,0,1-.43-.75l.25-.4a2.72,2.72,0,0,1-.57.58,4.34,4.34,0,0,1-2.78.88,5.28,5.28,0,0,1-2.18-.47A5.84,5.84,0,0,1,158.78,31a6.59,6.59,0,0,1-1.27-1.9A5.32,5.32,0,0,1,157,26.9a5.22,5.22,0,0,1,.48-2.2,6.33,6.33,0,0,1,1.29-1.86,6.15,6.15,0,0,1,1.84-1.28,5,5,0,0,1,2.17-.47,4.61,4.61,0,0,1,1.58.24,4.55,4.55,0,0,1,1.08.58,3.19,3.19,0,0,1,.67.64l-.23-.33a1,1,0,0,1,.44-.86,2.5,2.5,0,0,1,1.39-.29,2.29,2.29,0,0,1,1.28.26,1.06,1.06,0,0,1,.48.68,3.69,3.69,0,0,1,.08.89V31a4.14,4.14,0,0,1-.09.87,1,1,0,0,1-.47.67A2.53,2.53,0,0,1,167.7,32.81Zm-4.37-3.51a2.2,2.2,0,0,0,1.2-.32,2.39,2.39,0,0,0,.85-.85,2.32,2.32,0,0,0-.87-3.25,2.44,2.44,0,0,0-1.23-.31,2.5,2.5,0,0,0-2.16,1.18,2.22,2.22,0,0,0-.34,1.22,2.13,2.13,0,0,0,.34,1.17A2.41,2.41,0,0,0,162,29,2.57,2.57,0,0,0,163.33,29.3Z"/><path class="cls-3" d="M184.8,33.06a7.63,7.63,0,0,1-3-.55,5.77,5.77,0,0,1-2.06-1.42,6.18,6.18,0,0,1-1.2-2,6.11,6.11,0,0,1-.4-2.16,5.85,5.85,0,0,1,.85-3.13,6,6,0,0,1,2.37-2.16,7.44,7.44,0,0,1,3.46-.78,6.56,6.56,0,0,1,2.51.43,5.26,5.26,0,0,1,1.75,1.14,4.81,4.81,0,0,1,1,1.49,4,4,0,0,1,.33,1.53,2.56,2.56,0,0,1-.66,1.93,2.36,2.36,0,0,1-1.69.63h-6a1.6,1.6,0,0,0,.46,1,2.65,2.65,0,0,0,1,.66A3.69,3.69,0,0,0,185,30a8.05,8.05,0,0,0,1-.06,4.56,4.56,0,0,0,.79-.16l.59-.21a4.27,4.27,0,0,1,.49-.18,1.76,1.76,0,0,1,.42-.09,1,1,0,0,1,.68.2,2,2,0,0,1,.57.67,1.48,1.48,0,0,1,.24.49,2,2,0,0,1,.06.47,1.25,1.25,0,0,1-.61,1,4.94,4.94,0,0,1-1.73.69A12.19,12.19,0,0,1,184.8,33.06Zm-2.67-7h4a1.06,1.06,0,0,0,.58-.13.57.57,0,0,0,.2-.51,1.07,1.07,0,0,0-.28-.72,1.78,1.78,0,0,0-.73-.51,3,3,0,0,0-1.09-.18,3.26,3.26,0,0,0-1.35.28,2.38,2.38,0,0,0-.94.76A1.73,1.73,0,0,0,182.13,26.09Z"/><path class="cls-3" d="M197.33,32.85a16.58,16.58,0,0,1-1.83-.09,4.14,4.14,0,0,1-1.35-.38,2.53,2.53,0,0,1-.9-.79,3.61,3.61,0,0,1-.52-1.3,8.83,8.83,0,0,1-.18-1.94V17.48a3.46,3.46,0,0,1,.1-.87,1.1,1.1,0,0,1,.49-.66,2.5,2.5,0,0,1,1.31-.26,2.44,2.44,0,0,1,1.29.26,1.1,1.1,0,0,1,.49.66,4,4,0,0,1,.1.87V28.19a3.57,3.57,0,0,0,0,.62.7.7,0,0,0,.15.39.5.5,0,0,0,.31.19,2.4,2.4,0,0,0,.52.05,2.68,2.68,0,0,1,.62.07.88.88,0,0,1,.53.42,2.3,2.3,0,0,1,.23,1.18,2.45,2.45,0,0,1-.23,1.22.86.86,0,0,1-.53.45A2.79,2.79,0,0,1,197.33,32.85Z"/><path class="cls-3" d="M209,32.83a2.64,2.64,0,0,1-1.31-.24,1,1,0,0,1-.47-.66,4,4,0,0,1-.09-.86V22.78a3.7,3.7,0,0,1,.09-.83,1,1,0,0,1,.49-.63,2.86,2.86,0,0,1,1.32-.23,2.66,2.66,0,0,1,1.18.2,1,1,0,0,1,.49.48,1.57,1.57,0,0,1,.11.53.83.83,0,0,0,.05.34l-.15.45a1.36,1.36,0,0,1,.39-.72,3.48,3.48,0,0,1,.85-.66,4.88,4.88,0,0,1,1.1-.45,4.29,4.29,0,0,1,1.16-.17,5.21,5.21,0,0,1,2.14.42,4.29,4.29,0,0,1,1.58,1.18,5.22,5.22,0,0,1,1,1.83,7.58,7.58,0,0,1,.34,2.29V31.1a4.82,4.82,0,0,1-.08.86,1,1,0,0,1-.48.64,2.72,2.72,0,0,1-1.34.24,2.53,2.53,0,0,1-1.32-.25,1,1,0,0,1-.49-.66,4,4,0,0,1-.09-.86V26.81a2.47,2.47,0,0,0-.27-1.2,1.7,1.7,0,0,0-.75-.75,2.55,2.55,0,0,0-1.21-.26,2.71,2.71,0,0,0-1.25.27,1.92,1.92,0,0,0-.81.76,2.34,2.34,0,0,0-.29,1.18v4.28a4,4,0,0,1-.09.86,1,1,0,0,1-.48.65A2.61,2.61,0,0,1,209,32.83Z"/><path class="cls-3" d="M227,32.84a5.57,5.57,0,0,1-2.18-.42,5.32,5.32,0,0,1-2.91-3,6.35,6.35,0,0,1-.41-2.3V22.86a4,4,0,0,1,.09-.87,1,1,0,0,1,.49-.66,2.57,2.57,0,0,1,1.32-.26,2.52,2.52,0,0,1,1.32.26,1.08,1.08,0,0,1,.47.67,4.19,4.19,0,0,1,.09.89v4.23a2.35,2.35,0,0,0,.26,1.19,1.69,1.69,0,0,0,.77.77,2.7,2.7,0,0,0,1.21.26,2.61,2.61,0,0,0,1.24-.27,2,2,0,0,0,.8-.77,2.31,2.31,0,0,0,.29-1.17V22.84A4,4,0,0,1,230,22a1,1,0,0,1,.49-.64,2.6,2.6,0,0,1,1.33-.25,2.5,2.5,0,0,1,1.31.26,1.09,1.09,0,0,1,.47.67,4,4,0,0,1,.09.86v8.28a4.44,4.44,0,0,1-.08.84,1,1,0,0,1-.49.62,2.65,2.65,0,0,1-1.3.24,3.2,3.2,0,0,1-1.05-.14,1.31,1.31,0,0,1-.55-.36.85.85,0,0,1-.21-.45,2.12,2.12,0,0,1,0-.42l.32-.26a3.13,3.13,0,0,1-.32.37,6.46,6.46,0,0,1-.67.54,4.32,4.32,0,0,1-1,.5A3.52,3.52,0,0,1,227,32.84Zm-.4-12.59a.89.89,0,0,1-.73-.23,2.51,2.51,0,0,1-.51-.95,1.74,1.74,0,0,1-.1-1.22,1.32,1.32,0,0,1,.92-.63l4.4-1.27a.89.89,0,0,1,.73.27,2.23,2.23,0,0,1,.5.93,1.66,1.66,0,0,1,.08,1.2A1.31,1.31,0,0,1,231,19Z"/><path class="cls-3" d="M238,32.87a2.39,2.39,0,0,1-1.3-.26,1,1,0,0,1-.48-.65,4.83,4.83,0,0,1-.07-.88V22.85a3.89,3.89,0,0,1,.09-.85,1,1,0,0,1,.49-.65,2.73,2.73,0,0,1,1.33-.24,2.11,2.11,0,0,1,1.34.34,1.34,1.34,0,0,1,.43,1.12l-.33.25a3.26,3.26,0,0,1,.3-.4,5.6,5.6,0,0,1,.65-.58,4,4,0,0,1,.94-.53,3,3,0,0,1,1.17-.23,4.84,4.84,0,0,1,1.48.23,3.91,3.91,0,0,1,1.2.66,4.18,4.18,0,0,1,.94,1.09,6,6,0,0,1,.85-.91,4.63,4.63,0,0,1,1.17-.76,3.73,3.73,0,0,1,1.53-.3,4,4,0,0,1,4,2.68,8.38,8.38,0,0,1,.53,3.14v4.21a3.49,3.49,0,0,1-.1.86,1.06,1.06,0,0,1-.49.66,2.59,2.59,0,0,1-1.31.24,2.45,2.45,0,0,1-1.32-.26,1,1,0,0,1-.48-.67,4.76,4.76,0,0,1-.07-.86V26.88a3.34,3.34,0,0,0-.19-1.21,1.67,1.67,0,0,0-.53-.78,1.46,1.46,0,0,0-.9-.27,1.79,1.79,0,0,0-1,.26,1.62,1.62,0,0,0-.6.75,3.48,3.48,0,0,0-.2,1.27v4.21A2.86,2.86,0,0,1,247,32a1.15,1.15,0,0,1-.54.66,2.68,2.68,0,0,1-1.33.22,2.18,2.18,0,0,1-1.25-.27,1.06,1.06,0,0,1-.45-.69,4.58,4.58,0,0,1-.08-.83V26.88a3.75,3.75,0,0,0-.18-1.23,1.65,1.65,0,0,0-.52-.78,1.81,1.81,0,0,0-2,.05,1.68,1.68,0,0,0-.59.81,3.17,3.17,0,0,0-.19,1.14v4.24a4,4,0,0,1-.09.87,1,1,0,0,1-.49.65A2.69,2.69,0,0,1,238,32.87Z"/><path class="cls-3" d="M262.9,33.1a7.64,7.64,0,0,1-3-.54,5.79,5.79,0,0,1-2.06-1.43,6,6,0,0,1-1.2-2,6.2,6.2,0,0,1-.4-2.17,5.76,5.76,0,0,1,.85-3.13,6,6,0,0,1,2.37-2.15,7.32,7.32,0,0,1,3.46-.79,6.59,6.59,0,0,1,2.51.44,5.24,5.24,0,0,1,1.75,1.13,4.81,4.81,0,0,1,1,1.49,4.06,4.06,0,0,1,.33,1.53,2.55,2.55,0,0,1-.66,1.93,2.32,2.32,0,0,1-1.69.64h-5.95a1.63,1.63,0,0,0,.46,1,2.9,2.9,0,0,0,1,.66,3.9,3.9,0,0,0,1.32.23c.39,0,.73,0,1,0a4.49,4.49,0,0,0,.79-.17l.59-.21.48-.18a2.55,2.55,0,0,1,.43-.09,1,1,0,0,1,.67.2,1.94,1.94,0,0,1,.58.67,1.75,1.75,0,0,1,.24.5,1.84,1.84,0,0,1,.06.47,1.25,1.25,0,0,1-.62,1,4.8,4.8,0,0,1-1.72.69A12.19,12.19,0,0,1,262.9,33.1Zm-2.67-7h3.95a1.06,1.06,0,0,0,.58-.13.55.55,0,0,0,.2-.5,1.08,1.08,0,0,0-.28-.73,1.78,1.78,0,0,0-.73-.51,3,3,0,0,0-1.09-.17,3.11,3.11,0,0,0-1.35.28,2.37,2.37,0,0,0-.94.75A1.66,1.66,0,0,0,260.23,26.13Z"/><path class="cls-3" d="M272.5,32.89a2.62,2.62,0,0,1-1.31-.24,1,1,0,0,1-.47-.68,4.14,4.14,0,0,1-.09-.87V22.89a4,4,0,0,1,.09-.87,1,1,0,0,1,.49-.65,2.6,2.6,0,0,1,1.32-.24,2.67,2.67,0,0,1,1.27.22,1,1,0,0,1,.48.52,1.47,1.47,0,0,1,.1.5l-.3.14a3.29,3.29,0,0,1,.27-.34,3.51,3.51,0,0,1,1.5-1,3.61,3.61,0,0,1,1.23-.19,4.7,4.7,0,0,1,.62,0,3.77,3.77,0,0,1,.7.14,2.79,2.79,0,0,1,.66.28,1.6,1.6,0,0,1,.49.44,1.07,1.07,0,0,1,.18.63,2.81,2.81,0,0,1-.47,1.64,1.45,1.45,0,0,1-1.2.67,2,2,0,0,1-.6-.06,1.12,1.12,0,0,1-.29-.14.82.82,0,0,0-.26-.14,1.72,1.72,0,0,0-.55-.06,2.84,2.84,0,0,0-.72.09,2.07,2.07,0,0,0-.62.29,1.53,1.53,0,0,0-.45.5,1.33,1.33,0,0,0-.16.67v5.15a4.74,4.74,0,0,1-.08.86,1,1,0,0,1-.49.65A2.75,2.75,0,0,1,272.5,32.89Z"/><path class="cls-3" d="M283.42,37.77a2.52,2.52,0,0,1-1.3-.25.94.94,0,0,1-.47-.63,4.44,4.44,0,0,1-.08-.84V22.9a4.49,4.49,0,0,1,.08-.86,1,1,0,0,1,.46-.65,2.44,2.44,0,0,1,1.29-.26,3,3,0,0,1,1.24.21,1.41,1.41,0,0,1,.66.66V36a2.65,2.65,0,0,1-.08.85,1.06,1.06,0,0,1-.48.65A2.66,2.66,0,0,1,283.42,37.77Zm4.81-5.08a4.7,4.7,0,0,1-2.15-.46A4.38,4.38,0,0,1,284.54,31a5.3,5.3,0,0,1-.92-1.82,7.06,7.06,0,0,1-.29-2.24,7.28,7.28,0,0,1,.33-2.2,6,6,0,0,1,.93-1.86,4.38,4.38,0,0,1,1.53-1.27,4.71,4.71,0,0,1,2.11-.46,5,5,0,0,1,2.15.48,6.15,6.15,0,0,1,1.84,1.28,6,6,0,0,1,1.27,1.87A5.52,5.52,0,0,1,294,27a5.59,5.59,0,0,1-.47,2.22,5.86,5.86,0,0,1-1.26,1.83,6.08,6.08,0,0,1-1.83,1.21A5.49,5.49,0,0,1,288.23,32.69Zm-.5-3.32a2.4,2.4,0,0,0,1.25-.32,2.58,2.58,0,0,0,.89-.85,2.32,2.32,0,0,0,0-2.4A2.21,2.21,0,0,0,289,25a2.44,2.44,0,0,0-1.23-.31,2.49,2.49,0,0,0-1.24.32,2.24,2.24,0,0,0-1.19,2,2.33,2.33,0,0,0,1.2,2.06A2.25,2.25,0,0,0,287.73,29.37Z"/><path class="cls-3" d="M305.16,22.86a2.13,2.13,0,0,1-1.3.58,1.92,1.92,0,0,1-1.25-.7,1.71,1.71,0,0,1-.63-1.29,2.11,2.11,0,0,1,.88-1.3l3.73-3.1a1.83,1.83,0,0,1,1.28-.54,2,2,0,0,1,1.24.73,1.6,1.6,0,0,1,.61,1.26,2.1,2.1,0,0,1-.89,1.28ZM308.3,33a2,2,0,0,1-1.44-.4,1.92,1.92,0,0,1-.41-1.39V18.23a1.88,1.88,0,0,1,.41-1.38,2.16,2.16,0,0,1,1.47-.39,2.12,2.12,0,0,1,1.46.4,2,2,0,0,1,.41,1.42V31.2a1.85,1.85,0,0,1-.41,1.37A2.18,2.18,0,0,1,308.3,33Z"/><path class="cls-3" d="M314.08,32.89a1.85,1.85,0,0,1-1.33-.55,1.72,1.72,0,0,1-.57-1.26,4.09,4.09,0,0,1,.08-.8,3.43,3.43,0,0,1,.28-.73,2.49,2.49,0,0,1,.49-.63,14.31,14.31,0,0,1,2-1.55c.72-.46,1.43-.9,2.14-1.31s1.36-.83,1.95-1.25a5.92,5.92,0,0,0,1.42-1.34,2.59,2.59,0,0,0,.52-1.56,2.38,2.38,0,0,0-.21-1,1.74,1.74,0,0,0-.75-.8,3.07,3.07,0,0,0-1.54-.32,3.5,3.5,0,0,0-1.11.17,2,2,0,0,0-.8.49,2,2,0,0,0-.46.8,3.53,3.53,0,0,0-.15,1.06,3.73,3.73,0,0,1-.09.84,1,1,0,0,1-.49.62,2.82,2.82,0,0,1-1.35.23,2.47,2.47,0,0,1-1.34-.27,1.12,1.12,0,0,1-.47-.7,4.41,4.41,0,0,1-.09-.89,5.82,5.82,0,0,1,.43-2.2,5.56,5.56,0,0,1,1.25-1.9,6.09,6.09,0,0,1,2-1.33,7.39,7.39,0,0,1,5.91.27,6,6,0,0,1,2.28,2.11,5.75,5.75,0,0,1,.83,3.08,5,5,0,0,1-.36,1.91,6.67,6.67,0,0,1-.94,1.59A7.81,7.81,0,0,1,322.29,27a12,12,0,0,1-1.44,1c-.48.29-.93.54-1.35.74l-1.05.52-.35,0h5.53a4.59,4.59,0,0,1,.93.09,1.11,1.11,0,0,1,.7.47,2.28,2.28,0,0,1,.27,1.27,2.17,2.17,0,0,1-.28,1.22,1.1,1.1,0,0,1-.72.47,5.8,5.8,0,0,1-.95.08Z"/><path class="cls-2" d="M114.17,16.33a3.84,3.84,0,0,1,.78.07.92.92,0,0,1,.59.4,2,2,0,0,1,.22,1.08,1.93,1.93,0,0,1-.22,1.06.92.92,0,0,1-.6.4,4.11,4.11,0,0,1-.8.07h-4V31.06a3.89,3.89,0,0,1-.08.85,1,1,0,0,1-.48.64,2.57,2.57,0,0,1-1.34.25,2.45,2.45,0,0,1-1.27-.25,1,1,0,0,1-.49-.66,4,4,0,0,1-.09-.86V19.41h-4a4,4,0,0,1-.77-.09,1,1,0,0,1-.61-.4,1.82,1.82,0,0,1-.24-1.07,1.82,1.82,0,0,1,.24-1.06,1,1,0,0,1,.61-.4,4.9,4.9,0,0,1,.77-.07Z"/><path class="cls-2" d="M119.73,32.81a2.6,2.6,0,0,1-1.31-.25,1,1,0,0,1-.48-.67,4.14,4.14,0,0,1-.08-.87V22.8a4,4,0,0,1,.09-.87,1,1,0,0,1,.49-.64,2.56,2.56,0,0,1,1.32-.25,2.62,2.62,0,0,1,1.26.22,1,1,0,0,1,.49.52,1.57,1.57,0,0,1,.1.51l-.3.14a2.15,2.15,0,0,1,.26-.34,3.51,3.51,0,0,1,.59-.52,3.61,3.61,0,0,1,2.15-.65c.19,0,.39,0,.62,0a3.67,3.67,0,0,1,.69.14,3.14,3.14,0,0,1,.67.28,1.57,1.57,0,0,1,.48.44,1,1,0,0,1,.19.64,2.8,2.8,0,0,1-.47,1.63,1.43,1.43,0,0,1-1.21.67,2.11,2.11,0,0,1-.6-.06.92.92,0,0,1-.28-.14,1.71,1.71,0,0,0-.27-.14,1.68,1.68,0,0,0-.55-.06,2.76,2.76,0,0,0-.71.09,2.09,2.09,0,0,0-.62.3,1.31,1.31,0,0,0-.45.49,1.36,1.36,0,0,0-.17.67v5.16a4,4,0,0,1-.09.86,1,1,0,0,1-.49.64A2.66,2.66,0,0,1,119.73,32.81Z"/><path class="cls-2" d="M139.13,32.79a2.52,2.52,0,0,1-1.38-.3.83.83,0,0,1-.42-.76l.25-.4a2.59,2.59,0,0,1-.58.58,4.1,4.1,0,0,1-1.11.61,4.55,4.55,0,0,1-1.66.27,5.29,5.29,0,0,1-2.19-.47A5.9,5.9,0,0,1,130.2,31a6.75,6.75,0,0,1-1.27-1.89,5.48,5.48,0,0,1,0-4.44,6.35,6.35,0,0,1,3.13-3.14,5.21,5.21,0,0,1,2.18-.47,4.29,4.29,0,0,1,2.66.83,3.36,3.36,0,0,1,.66.63l-.22-.33a1,1,0,0,1,.43-.86,2.64,2.64,0,0,1,1.39-.29,2.44,2.44,0,0,1,1.29.26,1,1,0,0,1,.47.68,4.29,4.29,0,0,1,.09.9V31a4.94,4.94,0,0,1-.08.87,1,1,0,0,1-.48.67A2.51,2.51,0,0,1,139.13,32.79Zm-4.37-3.5A2.29,2.29,0,0,0,136,29a2.5,2.5,0,0,0,.85-.86,2.34,2.34,0,0,0,.32-1.2,2.3,2.3,0,0,0-.32-1.21,2.37,2.37,0,0,0-.88-.84,2.48,2.48,0,0,0-1.22-.31,2.51,2.51,0,0,0-1.26.32,2.4,2.4,0,0,0-.9.86,2.22,2.22,0,0,0-.34,1.22,2.15,2.15,0,0,0,.33,1.17,2.63,2.63,0,0,0,.93.85A2.68,2.68,0,0,0,134.76,29.29Z"/><path class="cls-2" d="M144.88,32.82a1.81,1.81,0,0,1-1.31-.51,1.63,1.63,0,0,1-.54-1.25,1.76,1.76,0,0,1,.55-1.28l5.68-5.17h-3.8a3.85,3.85,0,0,1-.91-.1,1.17,1.17,0,0,1-.73-.46,2,2,0,0,1-.29-1.23,2.15,2.15,0,0,1,.29-1.24,1.17,1.17,0,0,1,.73-.44,4.46,4.46,0,0,1,.91-.09h7.83a1.84,1.84,0,0,1,1.32.49,1.65,1.65,0,0,1,.53,1.25,2.19,2.19,0,0,1-.14.72,1.31,1.31,0,0,1-.39.55l-5.55,5.2h4.52a4,4,0,0,1,.93.1,1.08,1.08,0,0,1,.68.47,2.22,2.22,0,0,1,.26,1.25,2.14,2.14,0,0,1-.27,1.22,1.08,1.08,0,0,1-.7.45,6.53,6.53,0,0,1-.93.07Z"/><path class="cls-2" d="M167.7,32.81a2.42,2.42,0,0,1-1.37-.31.84.84,0,0,1-.43-.75l.25-.4a2.72,2.72,0,0,1-.57.58,4.34,4.34,0,0,1-2.78.88,5.28,5.28,0,0,1-2.18-.47A5.84,5.84,0,0,1,158.78,31a6.59,6.59,0,0,1-1.27-1.9A5.32,5.32,0,0,1,157,26.9a5.22,5.22,0,0,1,.48-2.2,6.33,6.33,0,0,1,1.29-1.86,6.15,6.15,0,0,1,1.84-1.28,5,5,0,0,1,2.17-.47,4.61,4.61,0,0,1,1.58.24,4.55,4.55,0,0,1,1.08.58,3.19,3.19,0,0,1,.67.64l-.23-.33a1,1,0,0,1,.44-.86,2.5,2.5,0,0,1,1.39-.29,2.29,2.29,0,0,1,1.28.26,1.06,1.06,0,0,1,.48.68,3.69,3.69,0,0,1,.08.89V31a4.14,4.14,0,0,1-.09.87,1,1,0,0,1-.47.67A2.53,2.53,0,0,1,167.7,32.81Zm-4.37-3.51a2.2,2.2,0,0,0,1.2-.32,2.39,2.39,0,0,0,.85-.85,2.32,2.32,0,0,0-.87-3.25,2.44,2.44,0,0,0-1.23-.31,2.5,2.5,0,0,0-2.16,1.18,2.22,2.22,0,0,0-.34,1.22,2.13,2.13,0,0,0,.34,1.17A2.41,2.41,0,0,0,162,29,2.57,2.57,0,0,0,163.33,29.3Z"/><path class="cls-2" d="M184.8,33.06a7.63,7.63,0,0,1-3-.55,5.77,5.77,0,0,1-2.06-1.42,6.18,6.18,0,0,1-1.2-2,6.11,6.11,0,0,1-.4-2.16,5.85,5.85,0,0,1,.85-3.13,6,6,0,0,1,2.37-2.16,7.44,7.44,0,0,1,3.46-.78,6.56,6.56,0,0,1,2.51.43,5.26,5.26,0,0,1,1.75,1.14,4.81,4.81,0,0,1,1,1.49,4,4,0,0,1,.33,1.53,2.56,2.56,0,0,1-.66,1.93,2.36,2.36,0,0,1-1.69.63h-6a1.6,1.6,0,0,0,.46,1,2.65,2.65,0,0,0,1,.66A3.69,3.69,0,0,0,185,30a8.05,8.05,0,0,0,1-.06,4.56,4.56,0,0,0,.79-.16l.59-.21a4.27,4.27,0,0,1,.49-.18,1.76,1.76,0,0,1,.42-.09,1,1,0,0,1,.68.2,2,2,0,0,1,.57.67,1.48,1.48,0,0,1,.24.49,2,2,0,0,1,.06.47,1.25,1.25,0,0,1-.61,1,4.94,4.94,0,0,1-1.73.69A12.19,12.19,0,0,1,184.8,33.06Zm-2.67-7h4a1.06,1.06,0,0,0,.58-.13.57.57,0,0,0,.2-.51,1.07,1.07,0,0,0-.28-.72,1.78,1.78,0,0,0-.73-.51,3,3,0,0,0-1.09-.18,3.26,3.26,0,0,0-1.35.28,2.38,2.38,0,0,0-.94.76A1.73,1.73,0,0,0,182.13,26.09Z"/><path class="cls-2" d="M197.33,32.85a16.58,16.58,0,0,1-1.83-.09,4.14,4.14,0,0,1-1.35-.38,2.53,2.53,0,0,1-.9-.79,3.61,3.61,0,0,1-.52-1.3,8.83,8.83,0,0,1-.18-1.94V17.48a3.46,3.46,0,0,1,.1-.87,1.1,1.1,0,0,1,.49-.66,2.5,2.5,0,0,1,1.31-.26,2.44,2.44,0,0,1,1.29.26,1.1,1.1,0,0,1,.49.66,4,4,0,0,1,.1.87V28.19a3.57,3.57,0,0,0,0,.62.7.7,0,0,0,.15.39.5.5,0,0,0,.31.19,2.4,2.4,0,0,0,.52.05,2.68,2.68,0,0,1,.62.07.88.88,0,0,1,.53.42,2.3,2.3,0,0,1,.23,1.18,2.45,2.45,0,0,1-.23,1.22.86.86,0,0,1-.53.45A2.79,2.79,0,0,1,197.33,32.85Z"/><path class="cls-2" d="M209,32.83a2.64,2.64,0,0,1-1.31-.24,1,1,0,0,1-.47-.66,4,4,0,0,1-.09-.86V22.78a3.7,3.7,0,0,1,.09-.83,1,1,0,0,1,.49-.63,2.86,2.86,0,0,1,1.32-.23,2.66,2.66,0,0,1,1.18.2,1,1,0,0,1,.49.48,1.57,1.57,0,0,1,.11.53.83.83,0,0,0,.05.34l-.15.45a1.36,1.36,0,0,1,.39-.72,3.48,3.48,0,0,1,.85-.66,4.88,4.88,0,0,1,1.1-.45,4.29,4.29,0,0,1,1.16-.17,5.21,5.21,0,0,1,2.14.42,4.29,4.29,0,0,1,1.58,1.18,5.22,5.22,0,0,1,1,1.83,7.58,7.58,0,0,1,.34,2.29V31.1a4.82,4.82,0,0,1-.08.86,1,1,0,0,1-.48.64,2.72,2.72,0,0,1-1.34.24,2.53,2.53,0,0,1-1.32-.25,1,1,0,0,1-.49-.66,4,4,0,0,1-.09-.86V26.81a2.47,2.47,0,0,0-.27-1.2,1.7,1.7,0,0,0-.75-.75,2.55,2.55,0,0,0-1.21-.26,2.71,2.71,0,0,0-1.25.27,1.92,1.92,0,0,0-.81.76,2.34,2.34,0,0,0-.29,1.18v4.28a4,4,0,0,1-.09.86,1,1,0,0,1-.48.65A2.61,2.61,0,0,1,209,32.83Z"/><path class="cls-2" d="M227,32.84a5.57,5.57,0,0,1-2.18-.42,5.32,5.32,0,0,1-2.91-3,6.35,6.35,0,0,1-.41-2.3V22.86a4,4,0,0,1,.09-.87,1,1,0,0,1,.49-.66,2.57,2.57,0,0,1,1.32-.26,2.52,2.52,0,0,1,1.32.26,1.08,1.08,0,0,1,.47.67,4.19,4.19,0,0,1,.09.89v4.23a2.35,2.35,0,0,0,.26,1.19,1.69,1.69,0,0,0,.77.77,2.7,2.7,0,0,0,1.21.26,2.61,2.61,0,0,0,1.24-.27,2,2,0,0,0,.8-.77,2.31,2.31,0,0,0,.29-1.17V22.84A4,4,0,0,1,230,22a1,1,0,0,1,.49-.64,2.6,2.6,0,0,1,1.33-.25,2.5,2.5,0,0,1,1.31.26,1.09,1.09,0,0,1,.47.67,4,4,0,0,1,.09.86v8.28a4.44,4.44,0,0,1-.08.84,1,1,0,0,1-.49.62,2.65,2.65,0,0,1-1.3.24,3.2,3.2,0,0,1-1.05-.14,1.31,1.31,0,0,1-.55-.36.85.85,0,0,1-.21-.45,2.12,2.12,0,0,1,0-.42l.32-.26a3.13,3.13,0,0,1-.32.37,6.46,6.46,0,0,1-.67.54,4.32,4.32,0,0,1-1,.5A3.52,3.52,0,0,1,227,32.84Zm-.4-12.59a.89.89,0,0,1-.73-.23,2.51,2.51,0,0,1-.51-.95,1.74,1.74,0,0,1-.1-1.22,1.32,1.32,0,0,1,.92-.63l4.4-1.27a.89.89,0,0,1,.73.27,2.23,2.23,0,0,1,.5.93,1.66,1.66,0,0,1,.08,1.2A1.31,1.31,0,0,1,231,19Z"/><path class="cls-2" d="M238,32.87a2.39,2.39,0,0,1-1.3-.26,1,1,0,0,1-.48-.65,4.83,4.83,0,0,1-.07-.88V22.85a3.89,3.89,0,0,1,.09-.85,1,1,0,0,1,.49-.65,2.73,2.73,0,0,1,1.33-.24,2.11,2.11,0,0,1,1.34.34,1.34,1.34,0,0,1,.43,1.12l-.33.25a3.26,3.26,0,0,1,.3-.4,5.6,5.6,0,0,1,.65-.58,4,4,0,0,1,.94-.53,3,3,0,0,1,1.17-.23,4.84,4.84,0,0,1,1.48.23,3.91,3.91,0,0,1,1.2.66,4.18,4.18,0,0,1,.94,1.09,6,6,0,0,1,.85-.91,4.63,4.63,0,0,1,1.17-.76,3.73,3.73,0,0,1,1.53-.3,4,4,0,0,1,4,2.68,8.38,8.38,0,0,1,.53,3.14v4.21a3.49,3.49,0,0,1-.1.86,1.06,1.06,0,0,1-.49.66,2.59,2.59,0,0,1-1.31.24,2.45,2.45,0,0,1-1.32-.26,1,1,0,0,1-.48-.67,4.76,4.76,0,0,1-.07-.86V26.88a3.34,3.34,0,0,0-.19-1.21,1.67,1.67,0,0,0-.53-.78,1.46,1.46,0,0,0-.9-.27,1.79,1.79,0,0,0-1,.26,1.62,1.62,0,0,0-.6.75,3.48,3.48,0,0,0-.2,1.27v4.21A2.86,2.86,0,0,1,247,32a1.15,1.15,0,0,1-.54.66,2.68,2.68,0,0,1-1.33.22,2.18,2.18,0,0,1-1.25-.27,1.06,1.06,0,0,1-.45-.69,4.58,4.58,0,0,1-.08-.83V26.88a3.75,3.75,0,0,0-.18-1.23,1.65,1.65,0,0,0-.52-.78,1.81,1.81,0,0,0-2,.05,1.68,1.68,0,0,0-.59.81,3.17,3.17,0,0,0-.19,1.14v4.24a4,4,0,0,1-.09.87,1,1,0,0,1-.49.65A2.69,2.69,0,0,1,238,32.87Z"/><path class="cls-2" d="M262.9,33.1a7.64,7.64,0,0,1-3-.54,5.79,5.79,0,0,1-2.06-1.43,6,6,0,0,1-1.2-2,6.2,6.2,0,0,1-.4-2.17,5.76,5.76,0,0,1,.85-3.13,6,6,0,0,1,2.37-2.15,7.32,7.32,0,0,1,3.46-.79,6.59,6.59,0,0,1,2.51.44,5.24,5.24,0,0,1,1.75,1.13,4.81,4.81,0,0,1,1,1.49,4.06,4.06,0,0,1,.33,1.53,2.55,2.55,0,0,1-.66,1.93,2.32,2.32,0,0,1-1.69.64h-5.95a1.63,1.63,0,0,0,.46,1,2.9,2.9,0,0,0,1,.66,3.9,3.9,0,0,0,1.32.23c.39,0,.73,0,1,0a4.49,4.49,0,0,0,.79-.17l.59-.21.48-.18a2.55,2.55,0,0,1,.43-.09,1,1,0,0,1,.67.2,1.94,1.94,0,0,1,.58.67,1.75,1.75,0,0,1,.24.5,1.84,1.84,0,0,1,.06.47,1.25,1.25,0,0,1-.62,1,4.8,4.8,0,0,1-1.72.69A12.19,12.19,0,0,1,262.9,33.1Zm-2.67-7h3.95a1.06,1.06,0,0,0,.58-.13.55.55,0,0,0,.2-.5,1.08,1.08,0,0,0-.28-.73,1.78,1.78,0,0,0-.73-.51,3,3,0,0,0-1.09-.17,3.11,3.11,0,0,0-1.35.28,2.37,2.37,0,0,0-.94.75A1.66,1.66,0,0,0,260.23,26.13Z"/><path class="cls-2" d="M272.5,32.89a2.62,2.62,0,0,1-1.31-.24,1,1,0,0,1-.47-.68,4.14,4.14,0,0,1-.09-.87V22.89a4,4,0,0,1,.09-.87,1,1,0,0,1,.49-.65,2.6,2.6,0,0,1,1.32-.24,2.67,2.67,0,0,1,1.27.22,1,1,0,0,1,.48.52,1.47,1.47,0,0,1,.1.5l-.3.14a3.29,3.29,0,0,1,.27-.34,3.51,3.51,0,0,1,1.5-1,3.61,3.61,0,0,1,1.23-.19,4.7,4.7,0,0,1,.62,0,3.77,3.77,0,0,1,.7.14,2.79,2.79,0,0,1,.66.28,1.6,1.6,0,0,1,.49.44,1.07,1.07,0,0,1,.18.63,2.81,2.81,0,0,1-.47,1.64,1.45,1.45,0,0,1-1.2.67,2,2,0,0,1-.6-.06,1.12,1.12,0,0,1-.29-.14.82.82,0,0,0-.26-.14,1.72,1.72,0,0,0-.55-.06,2.84,2.84,0,0,0-.72.09,2.07,2.07,0,0,0-.62.29,1.53,1.53,0,0,0-.45.5,1.33,1.33,0,0,0-.16.67v5.15a4.74,4.74,0,0,1-.08.86,1,1,0,0,1-.49.65A2.75,2.75,0,0,1,272.5,32.89Z"/><path class="cls-2" d="M283.42,37.77a2.52,2.52,0,0,1-1.3-.25.94.94,0,0,1-.47-.63,4.44,4.44,0,0,1-.08-.84V22.9a4.49,4.49,0,0,1,.08-.86,1,1,0,0,1,.46-.65,2.44,2.44,0,0,1,1.29-.26,3,3,0,0,1,1.24.21,1.41,1.41,0,0,1,.66.66V36a2.65,2.65,0,0,1-.08.85,1.06,1.06,0,0,1-.48.65A2.66,2.66,0,0,1,283.42,37.77Zm4.81-5.08a4.7,4.7,0,0,1-2.15-.46A4.38,4.38,0,0,1,284.54,31a5.3,5.3,0,0,1-.92-1.82,7.06,7.06,0,0,1-.29-2.24,7.28,7.28,0,0,1,.33-2.2,6,6,0,0,1,.93-1.86,4.38,4.38,0,0,1,1.53-1.27,4.71,4.71,0,0,1,2.11-.46,5,5,0,0,1,2.15.48,6.15,6.15,0,0,1,1.84,1.28,6,6,0,0,1,1.27,1.87A5.52,5.52,0,0,1,294,27a5.59,5.59,0,0,1-.47,2.22,5.86,5.86,0,0,1-1.26,1.83,6.08,6.08,0,0,1-1.83,1.21A5.49,5.49,0,0,1,288.23,32.69Zm-.5-3.32a2.4,2.4,0,0,0,1.25-.32,2.58,2.58,0,0,0,.89-.85,2.32,2.32,0,0,0,0-2.4A2.21,2.21,0,0,0,289,25a2.44,2.44,0,0,0-1.23-.31,2.49,2.49,0,0,0-1.24.32,2.24,2.24,0,0,0-1.19,2,2.33,2.33,0,0,0,1.2,2.06A2.25,2.25,0,0,0,287.73,29.37Z"/><path class="cls-2" d="M305.16,22.86a2.13,2.13,0,0,1-1.3.58,1.92,1.92,0,0,1-1.25-.7,1.71,1.71,0,0,1-.63-1.29,2.11,2.11,0,0,1,.88-1.3l3.73-3.1a1.83,1.83,0,0,1,1.28-.54,2,2,0,0,1,1.24.73,1.6,1.6,0,0,1,.61,1.26,2.1,2.1,0,0,1-.89,1.28ZM308.3,33a2,2,0,0,1-1.44-.4,1.92,1.92,0,0,1-.41-1.39V18.23a1.88,1.88,0,0,1,.41-1.38,2.16,2.16,0,0,1,1.47-.39,2.12,2.12,0,0,1,1.46.4,2,2,0,0,1,.41,1.42V31.2a1.85,1.85,0,0,1-.41,1.37A2.18,2.18,0,0,1,308.3,33Z"/><path class="cls-2" d="M314.08,32.89a1.85,1.85,0,0,1-1.33-.55,1.72,1.72,0,0,1-.57-1.26,4.09,4.09,0,0,1,.08-.8,3.43,3.43,0,0,1,.28-.73,2.49,2.49,0,0,1,.49-.63,14.31,14.31,0,0,1,2-1.55c.72-.46,1.43-.9,2.14-1.31s1.36-.83,1.95-1.25a5.92,5.92,0,0,0,1.42-1.34,2.59,2.59,0,0,0,.52-1.56,2.38,2.38,0,0,0-.21-1,1.74,1.74,0,0,0-.75-.8,3.07,3.07,0,0,0-1.54-.32,3.5,3.5,0,0,0-1.11.17,2,2,0,0,0-.8.49,2,2,0,0,0-.46.8,3.53,3.53,0,0,0-.15,1.06,3.73,3.73,0,0,1-.09.84,1,1,0,0,1-.49.62,2.82,2.82,0,0,1-1.35.23,2.47,2.47,0,0,1-1.34-.27,1.12,1.12,0,0,1-.47-.7,4.41,4.41,0,0,1-.09-.89,5.82,5.82,0,0,1,.43-2.2,5.56,5.56,0,0,1,1.25-1.9,6.09,6.09,0,0,1,2-1.33,7.39,7.39,0,0,1,5.91.27,6,6,0,0,1,2.28,2.11,5.75,5.75,0,0,1,.83,3.08,5,5,0,0,1-.36,1.91,6.67,6.67,0,0,1-.94,1.59A7.81,7.81,0,0,1,322.29,27a12,12,0,0,1-1.44,1c-.48.29-.93.54-1.35.74l-1.05.52-.35,0h5.53a4.59,4.59,0,0,1,.93.09,1.11,1.11,0,0,1,.7.47,2.28,2.28,0,0,1,.27,1.27,2.17,2.17,0,0,1-.28,1.22,1.1,1.1,0,0,1-.72.47,5.8,5.8,0,0,1-.95.08Z"/><text class="cls-4" transform="matrix(1.03, 0, 0, 1, 40.3, 39.44)">12</text><text class="cls-5" transform="matrix(1.03, 0, 0, 1, 40.3, 39.44)">12</text></g></g></svg>