<svg xmlns="http://www.w3.org/2000/svg" viewBox="0 0 399.98 112.79"><defs><style>.cls-1{fill:#23841a;}.cls-2{fill:#fff;}.cls-3,.cls-4{fill:none;stroke-width:5px;}.cls-3{stroke:#ff7300;stroke-linejoin:round;}.cls-4{stroke:#fff;}.cls-5{fill:#ff7300;}</style></defs><title>24t</title><g id="Layer_2" data-name="Layer 2"><g id="pestaña_identificativa" data-name="pestaña identificativa"><rect class="cls-1" width="399.98" height="112.79" rx="32.4"/><path class="cls-2" d="M124.81,34.84a2.29,2.29,0,0,1-1.3-.29,1.17,1.17,0,0,1-.5-.75,4.34,4.34,0,0,1-.1-1V19.28a4,4,0,0,1,.1-.93,1.18,1.18,0,0,1,.5-.73,2.33,2.33,0,0,1,1.32-.28H131a5,5,0,0,1,2.65.71,5.31,5.31,0,0,1,1.83,1.88,4.86,4.86,0,0,1,.65,2.54,4.47,4.47,0,0,1-.1,1.09,5.09,5.09,0,0,1-.37,1,5,5,0,0,1-.59.9,4,4,0,0,1,.88,1.11,6.48,6.48,0,0,1,.54,1.34,5.7,5.7,0,0,1,.18,1.42,6.05,6.05,0,0,1-.45,2.17,5.51,5.51,0,0,1-1.16,1.75,5.79,5.79,0,0,1-1.72,1.16,5.25,5.25,0,0,1-2.1.42Zm1.93-3.78H131a2.46,2.46,0,0,0,.88-.17,1.43,1.43,0,0,0,.72-.6,2.34,2.34,0,0,0,.27-1.23,2.68,2.68,0,0,0-.12-.87,1.47,1.47,0,0,0-.34-.53,1.05,1.05,0,0,0-.49-.28,3.39,3.39,0,0,0-.57-.1l-.58,0h-.72a1.62,1.62,0,0,1-1.2-.36,1.76,1.76,0,0,1-.35-1.26,1.62,1.62,0,0,1,.39-1.23,1.77,1.77,0,0,1,1.23-.34h.73l.52,0a1.23,1.23,0,0,0,.49-.15.9.9,0,0,0,.35-.41,1.9,1.9,0,0,0,.14-.79,1.51,1.51,0,0,0-.42-1.21,2.44,2.44,0,0,0-1.53-.37h-3.7Z"/><path class="cls-2" d="M149.16,34.83a2.34,2.34,0,0,1-1.38-.33.89.89,0,0,1-.42-.8l.25-.42a2.8,2.8,0,0,1-.58.61,4.11,4.11,0,0,1-1.11.65,4.34,4.34,0,0,1-1.66.28,5,5,0,0,1-2.19-.5,5.85,5.85,0,0,1-1.84-1.39,7.21,7.21,0,0,1-1.27-2,6.13,6.13,0,0,1,0-4.71,6.9,6.9,0,0,1,1.29-2,6.37,6.37,0,0,1,1.84-1.36,4.94,4.94,0,0,1,2.18-.5,4.09,4.09,0,0,1,1.57.27,4.32,4.32,0,0,1,1.09.61,3.43,3.43,0,0,1,.66.67l-.23-.35a1.05,1.05,0,0,1,.44-.91,2.42,2.42,0,0,1,1.39-.31,2.24,2.24,0,0,1,1.29.28,1.1,1.1,0,0,1,.47.72,4.86,4.86,0,0,1,.09.95v8.63a5.62,5.62,0,0,1-.08.92,1.07,1.07,0,0,1-.48.71A2.39,2.39,0,0,1,149.16,34.83Zm-4.38-3.73a2.14,2.14,0,0,0,1.21-.34,2.57,2.57,0,0,0,.85-.91,2.61,2.61,0,0,0,.32-1.28,2.56,2.56,0,0,0-.32-1.28,2.42,2.42,0,0,0-.88-.89,2.3,2.3,0,0,0-1.22-.33,2.42,2.42,0,0,0-1.26.34,2.56,2.56,0,0,0-.91.91,2.59,2.59,0,0,0-.33,1.3,2.42,2.42,0,0,0,.33,1.24,2.67,2.67,0,0,0,.93.9A2.58,2.58,0,0,0,144.78,31.1Z"/><path class="cls-2" d="M158,35.06a7.24,7.24,0,0,1-1.47-.16,8.53,8.53,0,0,1-1.54-.43,5.08,5.08,0,0,1-1.25-.68,1.26,1.26,0,0,1-.56-.89,1.36,1.36,0,0,1,0-.53,2.12,2.12,0,0,1,.23-.6,4.94,4.94,0,0,1,.43-.67.94.94,0,0,1,.44-.35,1,1,0,0,1,.59,0,3.55,3.55,0,0,1,.8.26l.82.4c.29.14.58.27.88.38a2.66,2.66,0,0,0,.92.16,2.32,2.32,0,0,0,1.09-.21.65.65,0,0,0,.39-.59.64.64,0,0,0-.16-.45,1.6,1.6,0,0,0-.45-.3c-.19-.08-.42-.16-.68-.24l-.81-.21c-.28-.07-.58-.15-.9-.25a9.05,9.05,0,0,1-1.19-.45,4,4,0,0,1-1.05-.71,3.22,3.22,0,0,1-.73-1.08,3.79,3.79,0,0,1-.28-1.56,3.3,3.3,0,0,1,2.23-3.31,7.34,7.34,0,0,1,2.7-.44c.3,0,.6,0,.9.05a5.4,5.4,0,0,1,.89.18,7.54,7.54,0,0,1,1.71.72c.5.24.76.55.77.95a2.39,2.39,0,0,1-1,1.84.88.88,0,0,1-.62.14,3.93,3.93,0,0,1-.86-.34c-.31-.16-.64-.3-1-.44a2.84,2.84,0,0,0-1-.2,2.2,2.2,0,0,0-.73.11,1.11,1.11,0,0,0-.45.3.75.75,0,0,0,0,1,1.59,1.59,0,0,0,.51.32,7.67,7.67,0,0,0,.75.22l.93.2c.45.09.91.2,1.38.34a4.71,4.71,0,0,1,1.3.61,2.93,2.93,0,0,1,.95,1.08,3.75,3.75,0,0,1,.37,1.77A3.63,3.63,0,0,1,162,34,6.38,6.38,0,0,1,158,35.06Z"/><path class="cls-2" d="M171.68,35.09a7.12,7.12,0,0,1-3-.58A5.84,5.84,0,0,1,166.61,33a6.43,6.43,0,0,1-1.2-2.09,6.88,6.88,0,0,1-.4-2.3,6.48,6.48,0,0,1,.85-3.32A6.14,6.14,0,0,1,168.23,23a7,7,0,0,1,3.46-.84,6.21,6.21,0,0,1,2.51.47,5.23,5.23,0,0,1,1.75,1.2,5.1,5.1,0,0,1,1,1.59,4.46,4.46,0,0,1,.33,1.62,2.82,2.82,0,0,1-.66,2.05,2.28,2.28,0,0,1-1.69.68h-6a1.77,1.77,0,0,0,.46,1.08,2.85,2.85,0,0,0,1,.7,3.48,3.48,0,0,0,1.32.25,8.1,8.1,0,0,0,1-.06,3.7,3.7,0,0,0,.79-.18c.22-.07.41-.15.59-.22a4.32,4.32,0,0,1,.48-.19,2.63,2.63,0,0,1,.43-.1,1.06,1.06,0,0,1,.67.21,2.06,2.06,0,0,1,.58.72,2,2,0,0,1,.24.52,2.2,2.2,0,0,1,.06.5,1.36,1.36,0,0,1-.61,1.09,4.91,4.91,0,0,1-1.73.74A11.56,11.56,0,0,1,171.68,35.09ZM169,27.69h4a1,1,0,0,0,.58-.14.61.61,0,0,0,.2-.53,1.19,1.19,0,0,0-.28-.78,1.84,1.84,0,0,0-.73-.54,3,3,0,0,0-1.09-.19,3,3,0,0,0-1.35.3,2.39,2.39,0,0,0-.94.8A1.87,1.87,0,0,0,169,27.69Z"/><path class="cls-2" d="M192.11,35a6.42,6.42,0,0,1-2.24-.42,6.92,6.92,0,0,1-2.1-1.21,5.92,5.92,0,0,1-1.54-2,6.35,6.35,0,0,1-.57-2.75,6.09,6.09,0,0,1,.58-2.73,6,6,0,0,1,1.52-2,6.87,6.87,0,0,1,2.09-1.21,6.37,6.37,0,0,1,2.21-.41,6.1,6.1,0,0,1,1.67.21A5.41,5.41,0,0,1,195,23a3.74,3.74,0,0,1,.73.53,6.26,6.26,0,0,1,.75.65,1.05,1.05,0,0,1,.3.85,1.38,1.38,0,0,1-.17.56,4.48,4.48,0,0,1-.38.59c-.52.7-1,1-1.5.95a2.58,2.58,0,0,1-.69-.25l-.6-.35a5,5,0,0,0-.61-.32,1.9,1.9,0,0,0-.75-.13,2.5,2.5,0,0,0-2.21,1.23,2.46,2.46,0,0,0-.34,1.31,2.53,2.53,0,0,0,1.24,2.22,2.42,2.42,0,0,0,1.26.34,2.43,2.43,0,0,0,1.27-.34l.35-.21a6.62,6.62,0,0,1,.58-.36,1.07,1.07,0,0,1,.55-.17,1.23,1.23,0,0,1,.74.27,4.28,4.28,0,0,1,.81.83,2.2,2.2,0,0,1,.49,1,1.18,1.18,0,0,1-.22.86,2.46,2.46,0,0,1-.85.76,3.69,3.69,0,0,1-.71.45,6.49,6.49,0,0,1-1.25.5A5.69,5.69,0,0,1,192.11,35Z"/><path class="cls-2" d="M204.43,34.86a5.21,5.21,0,0,1-3.92-1.72,5.64,5.64,0,0,1-1.16-1.92,6.87,6.87,0,0,1-.41-2.44V24.26a4.45,4.45,0,0,1,.09-.93,1.09,1.09,0,0,1,.48-.7,2.47,2.47,0,0,1,1.33-.27,2.37,2.37,0,0,1,1.31.27,1.14,1.14,0,0,1,.48.72,5.46,5.46,0,0,1,.08.93v4.5a2.94,2.94,0,0,0,.26,1.27,1.8,1.8,0,0,0,.78.81,2.87,2.87,0,0,0,2.45,0A2,2,0,0,0,207,30a2.59,2.59,0,0,0,.29-1.25V24.24a4.45,4.45,0,0,1,.09-.93,1.07,1.07,0,0,1,.48-.69,2.59,2.59,0,0,1,1.33-.26,2.27,2.27,0,0,1,1.31.28,1.12,1.12,0,0,1,.48.71,5.4,5.4,0,0,1,.08.91v8.8A4.13,4.13,0,0,1,211,34a1,1,0,0,1-.49.66,2.5,2.5,0,0,1-1.3.25,2.92,2.92,0,0,1-1.05-.15,1.3,1.3,0,0,1-.55-.37,1.14,1.14,0,0,1-.21-.48,4.14,4.14,0,0,1,0-.45l.33-.27a2.55,2.55,0,0,1-.33.38,5.11,5.11,0,0,1-.66.58,4.19,4.19,0,0,1-1,.53A3.36,3.36,0,0,1,204.43,34.86Z"/><path class="cls-2" d="M223.76,34.87a2.34,2.34,0,0,1-1.38-.33.88.88,0,0,1-.42-.8l.25-.42a2.59,2.59,0,0,1-.58.61,4.11,4.11,0,0,1-1.11.65,4.33,4.33,0,0,1-1.66.29,5,5,0,0,1-2.19-.5A6.17,6.17,0,0,1,214.83,33a7.27,7.27,0,0,1-1.27-2,6,6,0,0,1-.47-2.37,5.82,5.82,0,0,1,.47-2.34,6.72,6.72,0,0,1,1.29-2,6.19,6.19,0,0,1,1.84-1.36,4.8,4.8,0,0,1,2.17-.5,4.32,4.32,0,0,1,1.58.26,4.65,4.65,0,0,1,1.09.61,3.45,3.45,0,0,1,.66.68l-.23-.35a1.05,1.05,0,0,1,.44-.91,2.42,2.42,0,0,1,1.39-.31,2.34,2.34,0,0,1,1.29.27,1.15,1.15,0,0,1,.47.73,4.79,4.79,0,0,1,.09,1V33a5.64,5.64,0,0,1-.08.93,1.09,1.09,0,0,1-.48.71A2.5,2.5,0,0,1,223.76,34.87Zm-4.38-3.73a2.18,2.18,0,0,0,1.2-.33,2.63,2.63,0,0,0,.86-.92,2.58,2.58,0,0,0,.32-1.27,2.62,2.62,0,0,0-.32-1.29,2.5,2.5,0,0,0-.88-.89,2.41,2.41,0,0,0-1.22-.32,2.48,2.48,0,0,0-1.27.33,2.64,2.64,0,0,0-.9.92,2.54,2.54,0,0,0-.33,1.3,2.36,2.36,0,0,0,.33,1.23,2.62,2.62,0,0,0,.93.91A2.57,2.57,0,0,0,219.38,31.14Z"/><path class="cls-2" d="M233.48,34.88a5.06,5.06,0,0,1-2.17-.49A5.9,5.9,0,0,1,229.48,33a6.7,6.7,0,0,1-1.26-2,6.3,6.3,0,0,1-.46-2.41,6.18,6.18,0,0,1,.46-2.34,6.5,6.5,0,0,1,1.28-2,6.07,6.07,0,0,1,1.84-1.36,4.75,4.75,0,0,1,2.15-.5,4.47,4.47,0,0,1,2.11.48,4.58,4.58,0,0,1,1.53,1.34,6.46,6.46,0,0,1,.93,2,9.08,9.08,0,0,1,.35,2.35,9.28,9.28,0,0,1-.3,2.4,6,6,0,0,1-.93,2,4.56,4.56,0,0,1-1.55,1.38A4.25,4.25,0,0,1,233.48,34.88Zm.5-3.7a2.22,2.22,0,0,0,1.22-.34,2.62,2.62,0,0,0,.87-.91,2.45,2.45,0,0,0,.34-1.28,2.56,2.56,0,0,0-.32-1.26,2.61,2.61,0,0,0-.88-.9,2.28,2.28,0,0,0-1.25-.34,2.42,2.42,0,0,0-1.24.33,2.22,2.22,0,0,0-.87.9,2.57,2.57,0,0,0-.31,1.27,2.44,2.44,0,0,0,.32,1.28,2.53,2.53,0,0,0,.9.91A2.41,2.41,0,0,0,234,31.18Zm4.35,3.72a2.34,2.34,0,0,1-1.26-.27,1.34,1.34,0,0,1-.54-.85V18.63a6.62,6.62,0,0,1,.06-.91A1.08,1.08,0,0,1,237,17a2.28,2.28,0,0,1,1.28-.27,2.47,2.47,0,0,1,1.32.26,1.19,1.19,0,0,1,.48.69,4.42,4.42,0,0,1,.1.93V33a4.53,4.53,0,0,1-.09.91,1.12,1.12,0,0,1-.48.71A2.35,2.35,0,0,1,238.33,34.9Z"/><path class="cls-2" d="M244.61,34.91a2.52,2.52,0,0,1-1.32-.26,1.14,1.14,0,0,1-.47-.72,4.7,4.7,0,0,1-.09-.92V24.28a4.42,4.42,0,0,1,.09-.92,1,1,0,0,1,.48-.69,3.48,3.48,0,0,1,2.59,0,1.06,1.06,0,0,1,.49.55,2,2,0,0,1,.1.53l-.3.15a3.22,3.22,0,0,1,.26-.36A3.58,3.58,0,0,1,247,23a3.71,3.71,0,0,1,.91-.49,3.63,3.63,0,0,1,1.24-.19l.61,0a4.62,4.62,0,0,1,.7.15,3.32,3.32,0,0,1,.66.3,1.58,1.58,0,0,1,.49.47,1.13,1.13,0,0,1,.19.67,3,3,0,0,1-.48,1.74,1.42,1.42,0,0,1-1.2.71,2.11,2.11,0,0,1-.6-.06,1,1,0,0,1-.29-.15A.93.93,0,0,0,249,26a1.68,1.68,0,0,0-.55-.06,2.71,2.71,0,0,0-.71.09,2.2,2.2,0,0,0-.63.32,1.5,1.5,0,0,0-.45.52,1.65,1.65,0,0,0-.16.71v5.48a4.46,4.46,0,0,1-.09.91,1,1,0,0,1-.49.69A2.69,2.69,0,0,1,244.61,34.91Z"/><path class="cls-2" d="M264,34.9a2.42,2.42,0,0,1-1.38-.33.89.89,0,0,1-.42-.8l.25-.43a3.06,3.06,0,0,1-.58.62,4.39,4.39,0,0,1-1.11.65,4.34,4.34,0,0,1-1.66.28,5,5,0,0,1-2.19-.5A5.89,5.89,0,0,1,255.08,33a7,7,0,0,1-1.27-2,6,6,0,0,1,0-4.71,6.77,6.77,0,0,1,1.29-2,6.24,6.24,0,0,1,1.84-1.36,4.93,4.93,0,0,1,2.17-.5,4.14,4.14,0,0,1,1.58.27,4.19,4.19,0,0,1,1.09.61,3.43,3.43,0,0,1,.66.67l-.23-.35a1.05,1.05,0,0,1,.44-.91,2.4,2.4,0,0,1,1.39-.31,2.24,2.24,0,0,1,1.29.28,1.14,1.14,0,0,1,.47.72,4.86,4.86,0,0,1,.09.95V33a4.7,4.7,0,0,1-.09.92,1,1,0,0,1-.47.71A2.39,2.39,0,0,1,264,34.9Zm-4.38-3.73a2.13,2.13,0,0,0,1.2-.34,2.48,2.48,0,0,0,.85-.91,2.68,2.68,0,0,0,0-2.56,2.42,2.42,0,0,0-.88-.89,2.33,2.33,0,0,0-1.22-.33,2.39,2.39,0,0,0-1.27.34,2.61,2.61,0,0,0-.9.91,2.57,2.57,0,0,0-.34,1.3,2.43,2.43,0,0,0,.34,1.24,2.6,2.6,0,0,0,2.21,1.24Z"/><path class="cls-2" d="M273.73,34.9a4.89,4.89,0,0,1-2.17-.49,5.75,5.75,0,0,1-1.83-1.36,6.88,6.88,0,0,1-1.26-2,6.27,6.27,0,0,1-.46-2.41,6.06,6.06,0,0,1,.46-2.34,6.62,6.62,0,0,1,1.28-2A6.24,6.24,0,0,1,271.59,23a4.88,4.88,0,0,1,2.15-.5,4.35,4.35,0,0,1,2.11.49,4.25,4.25,0,0,1,1.52,1.34,6.31,6.31,0,0,1,.94,2,9.14,9.14,0,0,1,.35,2.35,9.28,9.28,0,0,1-.3,2.4,6,6,0,0,1-.93,2,4.58,4.58,0,0,1-1.55,1.39A4.38,4.38,0,0,1,273.73,34.9Zm.5-3.7a2.22,2.22,0,0,0,1.22-.34,2.54,2.54,0,0,0,.87-.91,2.42,2.42,0,0,0,.34-1.27,2.58,2.58,0,0,0-.32-1.27,2.61,2.61,0,0,0-.88-.9,2.38,2.38,0,0,0-1.25-.33,2.41,2.41,0,0,0-1.24.32,2.35,2.35,0,0,0-.87.9,2.6,2.6,0,0,0-.32,1.27,2.52,2.52,0,0,0,.33,1.28,2.48,2.48,0,0,0,2.12,1.25Zm4.35,3.73a2.22,2.22,0,0,1-1.26-.28,1.25,1.25,0,0,1-.54-.85V18.65a6.73,6.73,0,0,1,.06-.91,1.06,1.06,0,0,1,.44-.71,2.18,2.18,0,0,1,1.28-.28,2.36,2.36,0,0,1,1.32.27,1.14,1.14,0,0,1,.48.68,4.57,4.57,0,0,1,.1.93V33a4.46,4.46,0,0,1-.09.91,1.12,1.12,0,0,1-.48.71A2.27,2.27,0,0,1,278.58,34.93Z"/><path class="cls-2" d="M293.18,34.91a2.39,2.39,0,0,1-1.37-.32.91.91,0,0,1-.43-.8l.25-.43a2.72,2.72,0,0,1-.57.61,4.08,4.08,0,0,1-1.12.65,4.29,4.29,0,0,1-1.66.29,5,5,0,0,1-2.19-.5A6,6,0,0,1,284.26,33,7,7,0,0,1,283,31a6.2,6.2,0,0,1-.47-2.38,5.83,5.83,0,0,1,.48-2.34,6.34,6.34,0,0,1,1.29-2A6.15,6.15,0,0,1,286.11,23a5,5,0,0,1,2.18-.5,4.3,4.3,0,0,1,1.57.26,4.16,4.16,0,0,1,1.09.62,3.18,3.18,0,0,1,.66.67l-.22-.35a1,1,0,0,1,.44-.91,2.39,2.39,0,0,1,1.38-.31,2.34,2.34,0,0,1,1.29.27,1.16,1.16,0,0,1,.48.73,5.8,5.8,0,0,1,.08.95V33a4.73,4.73,0,0,1-.09.93,1.07,1.07,0,0,1-.48.71A2.45,2.45,0,0,1,293.18,34.91Zm-4.37-3.72a2.21,2.21,0,0,0,1.2-.34,2.66,2.66,0,0,0,.85-.91,2.77,2.77,0,0,0,.33-1.28,2.53,2.53,0,0,0-.33-1.29,2.56,2.56,0,0,0-.87-.89,2.45,2.45,0,0,0-1.23-.32,2.33,2.33,0,0,0-1.26.34,2.53,2.53,0,0,0-1.24,2.21A2.34,2.34,0,0,0,286.6,30a2.56,2.56,0,0,0,.92.9A2.7,2.7,0,0,0,288.81,31.19Z"/><path class="cls-3" d="M124.81,34.84a2.29,2.29,0,0,1-1.3-.29,1.17,1.17,0,0,1-.5-.75,4.34,4.34,0,0,1-.1-1V19.28a4,4,0,0,1,.1-.93,1.18,1.18,0,0,1,.5-.73,2.33,2.33,0,0,1,1.32-.28H131a5,5,0,0,1,2.65.71,5.31,5.31,0,0,1,1.83,1.88,4.86,4.86,0,0,1,.65,2.54,4.47,4.47,0,0,1-.1,1.09,5.09,5.09,0,0,1-.37,1,5,5,0,0,1-.59.9,4,4,0,0,1,.88,1.11,6.48,6.48,0,0,1,.54,1.34,5.7,5.7,0,0,1,.18,1.42,6.05,6.05,0,0,1-.45,2.17,5.51,5.51,0,0,1-1.16,1.75,5.79,5.79,0,0,1-1.72,1.16,5.25,5.25,0,0,1-2.1.42Zm1.93-3.78H131a2.46,2.46,0,0,0,.88-.17,1.43,1.43,0,0,0,.72-.6,2.34,2.34,0,0,0,.27-1.23,2.68,2.68,0,0,0-.12-.87,1.47,1.47,0,0,0-.34-.53,1.05,1.05,0,0,0-.49-.28,3.39,3.39,0,0,0-.57-.1l-.58,0h-.72a1.62,1.62,0,0,1-1.2-.36,1.76,1.76,0,0,1-.35-1.26,1.62,1.62,0,0,1,.39-1.23,1.77,1.77,0,0,1,1.23-.34h.73l.52,0a1.23,1.23,0,0,0,.49-.15.9.9,0,0,0,.35-.41,1.9,1.9,0,0,0,.14-.79,1.51,1.51,0,0,0-.42-1.21,2.44,2.44,0,0,0-1.53-.37h-3.7Z"/><path class="cls-3" d="M149.16,34.83a2.34,2.34,0,0,1-1.38-.33.89.89,0,0,1-.42-.8l.25-.42a2.8,2.8,0,0,1-.58.61,4.11,4.11,0,0,1-1.11.65,4.34,4.34,0,0,1-1.66.28,5,5,0,0,1-2.19-.5,5.85,5.85,0,0,1-1.84-1.39,7.21,7.21,0,0,1-1.27-2,6.13,6.13,0,0,1,0-4.71,6.9,6.9,0,0,1,1.29-2,6.37,6.37,0,0,1,1.84-1.36,4.94,4.94,0,0,1,2.18-.5,4.09,4.09,0,0,1,1.57.27,4.32,4.32,0,0,1,1.09.61,3.43,3.43,0,0,1,.66.67l-.23-.35a1.05,1.05,0,0,1,.44-.91,2.42,2.42,0,0,1,1.39-.31,2.24,2.24,0,0,1,1.29.28,1.1,1.1,0,0,1,.47.72,4.86,4.86,0,0,1,.09.95v8.63a5.62,5.62,0,0,1-.08.92,1.07,1.07,0,0,1-.48.71A2.39,2.39,0,0,1,149.16,34.83Zm-4.38-3.73a2.14,2.14,0,0,0,1.21-.34,2.57,2.57,0,0,0,.85-.91,2.61,2.61,0,0,0,.32-1.28,2.56,2.56,0,0,0-.32-1.28,2.42,2.42,0,0,0-.88-.89,2.3,2.3,0,0,0-1.22-.33,2.42,2.42,0,0,0-1.26.34,2.56,2.56,0,0,0-.91.91,2.59,2.59,0,0,0-.33,1.3,2.42,2.42,0,0,0,.33,1.24,2.67,2.67,0,0,0,.93.9A2.58,2.58,0,0,0,144.78,31.1Z"/><path class="cls-3" d="M158,35.06a7.24,7.24,0,0,1-1.47-.16,8.53,8.53,0,0,1-1.54-.43,5.08,5.08,0,0,1-1.25-.68,1.26,1.26,0,0,1-.56-.89,1.36,1.36,0,0,1,0-.53,2.12,2.12,0,0,1,.23-.6,4.94,4.94,0,0,1,.43-.67.94.94,0,0,1,.44-.35,1,1,0,0,1,.59,0,3.55,3.55,0,0,1,.8.26l.82.4c.29.14.58.27.88.38a2.66,2.66,0,0,0,.92.16,2.32,2.32,0,0,0,1.09-.21.65.65,0,0,0,.39-.59.64.64,0,0,0-.16-.45,1.6,1.6,0,0,0-.45-.3c-.19-.08-.42-.16-.68-.24l-.81-.21c-.28-.07-.58-.15-.9-.25a9.05,9.05,0,0,1-1.19-.45,4,4,0,0,1-1.05-.71,3.22,3.22,0,0,1-.73-1.08,3.79,3.79,0,0,1-.28-1.56,3.3,3.3,0,0,1,2.23-3.31,7.34,7.34,0,0,1,2.7-.44c.3,0,.6,0,.9.05a5.4,5.4,0,0,1,.89.18,7.54,7.54,0,0,1,1.71.72c.5.24.76.55.77.95a2.39,2.39,0,0,1-1,1.84.88.88,0,0,1-.62.14,3.93,3.93,0,0,1-.86-.34c-.31-.16-.64-.3-1-.44a2.84,2.84,0,0,0-1-.2,2.2,2.2,0,0,0-.73.11,1.11,1.11,0,0,0-.45.3.75.75,0,0,0,0,1,1.59,1.59,0,0,0,.51.32,7.67,7.67,0,0,0,.75.22l.93.2c.45.09.91.2,1.38.34a4.71,4.71,0,0,1,1.3.61,2.93,2.93,0,0,1,.95,1.08,3.75,3.75,0,0,1,.37,1.77A3.63,3.63,0,0,1,162,34,6.38,6.38,0,0,1,158,35.06Z"/><path class="cls-3" d="M171.68,35.09a7.12,7.12,0,0,1-3-.58A5.84,5.84,0,0,1,166.61,33a6.43,6.43,0,0,1-1.2-2.09,6.88,6.88,0,0,1-.4-2.3,6.48,6.48,0,0,1,.85-3.32A6.14,6.14,0,0,1,168.23,23a7,7,0,0,1,3.46-.84,6.21,6.21,0,0,1,2.51.47,5.23,5.23,0,0,1,1.75,1.2,5.1,5.1,0,0,1,1,1.59,4.46,4.46,0,0,1,.33,1.62,2.82,2.82,0,0,1-.66,2.05,2.28,2.28,0,0,1-1.69.68h-6a1.77,1.77,0,0,0,.46,1.08,2.85,2.85,0,0,0,1,.7,3.48,3.48,0,0,0,1.32.25,8.1,8.1,0,0,0,1-.06,3.7,3.7,0,0,0,.79-.18c.22-.07.41-.15.59-.22a4.32,4.32,0,0,1,.48-.19,2.63,2.63,0,0,1,.43-.1,1.06,1.06,0,0,1,.67.21,2.06,2.06,0,0,1,.58.72,2,2,0,0,1,.24.52,2.2,2.2,0,0,1,.06.5,1.36,1.36,0,0,1-.61,1.09,4.91,4.91,0,0,1-1.73.74A11.56,11.56,0,0,1,171.68,35.09ZM169,27.69h4a1,1,0,0,0,.58-.14.61.61,0,0,0,.2-.53,1.19,1.19,0,0,0-.28-.78,1.84,1.84,0,0,0-.73-.54,3,3,0,0,0-1.09-.19,3,3,0,0,0-1.35.3,2.39,2.39,0,0,0-.94.8A1.87,1.87,0,0,0,169,27.69Z"/><path class="cls-3" d="M192.11,35a6.42,6.42,0,0,1-2.24-.42,6.92,6.92,0,0,1-2.1-1.21,5.92,5.92,0,0,1-1.54-2,6.35,6.35,0,0,1-.57-2.75,6.09,6.09,0,0,1,.58-2.73,6,6,0,0,1,1.52-2,6.87,6.87,0,0,1,2.09-1.21,6.37,6.37,0,0,1,2.21-.41,6.1,6.1,0,0,1,1.67.21A5.41,5.41,0,0,1,195,23a3.74,3.74,0,0,1,.73.53,6.26,6.26,0,0,1,.75.65,1.05,1.05,0,0,1,.3.85,1.38,1.38,0,0,1-.17.56,4.48,4.48,0,0,1-.38.59c-.52.7-1,1-1.5.95a2.58,2.58,0,0,1-.69-.25l-.6-.35a5,5,0,0,0-.61-.32,1.9,1.9,0,0,0-.75-.13,2.5,2.5,0,0,0-2.21,1.23,2.46,2.46,0,0,0-.34,1.31,2.53,2.53,0,0,0,1.24,2.22,2.42,2.42,0,0,0,1.26.34,2.43,2.43,0,0,0,1.27-.34l.35-.21a6.62,6.62,0,0,1,.58-.36,1.07,1.07,0,0,1,.55-.17,1.23,1.23,0,0,1,.74.27,4.28,4.28,0,0,1,.81.83,2.2,2.2,0,0,1,.49,1,1.18,1.18,0,0,1-.22.86,2.46,2.46,0,0,1-.85.76,3.69,3.69,0,0,1-.71.45,6.49,6.49,0,0,1-1.25.5A5.69,5.69,0,0,1,192.11,35Z"/><path class="cls-3" d="M204.43,34.86a5.21,5.21,0,0,1-3.92-1.72,5.64,5.64,0,0,1-1.16-1.92,6.87,6.87,0,0,1-.41-2.44V24.26a4.45,4.45,0,0,1,.09-.93,1.09,1.09,0,0,1,.48-.7,2.47,2.47,0,0,1,1.33-.27,2.37,2.37,0,0,1,1.31.27,1.14,1.14,0,0,1,.48.72,5.46,5.46,0,0,1,.08.93v4.5a2.94,2.94,0,0,0,.26,1.27,1.8,1.8,0,0,0,.78.81,2.87,2.87,0,0,0,2.45,0A2,2,0,0,0,207,30a2.59,2.59,0,0,0,.29-1.25V24.24a4.45,4.45,0,0,1,.09-.93,1.07,1.07,0,0,1,.48-.69,2.59,2.59,0,0,1,1.33-.26,2.27,2.27,0,0,1,1.31.28,1.12,1.12,0,0,1,.48.71,5.4,5.4,0,0,1,.08.91v8.8A4.13,4.13,0,0,1,211,34a1,1,0,0,1-.49.66,2.5,2.5,0,0,1-1.3.25,2.92,2.92,0,0,1-1.05-.15,1.3,1.3,0,0,1-.55-.37,1.14,1.14,0,0,1-.21-.48,4.14,4.14,0,0,1,0-.45l.33-.27a2.55,2.55,0,0,1-.33.38,5.11,5.11,0,0,1-.66.58,4.19,4.19,0,0,1-1,.53A3.36,3.36,0,0,1,204.43,34.86Z"/><path class="cls-3" d="M223.76,34.87a2.34,2.34,0,0,1-1.38-.33.88.88,0,0,1-.42-.8l.25-.42a2.59,2.59,0,0,1-.58.61,4.11,4.11,0,0,1-1.11.65,4.33,4.33,0,0,1-1.66.29,5,5,0,0,1-2.19-.5A6.17,6.17,0,0,1,214.83,33a7.27,7.27,0,0,1-1.27-2,6,6,0,0,1-.47-2.37,5.82,5.82,0,0,1,.47-2.34,6.72,6.72,0,0,1,1.29-2,6.19,6.19,0,0,1,1.84-1.36,4.8,4.8,0,0,1,2.17-.5,4.32,4.32,0,0,1,1.58.26,4.65,4.65,0,0,1,1.09.61,3.45,3.45,0,0,1,.66.68l-.23-.35a1.05,1.05,0,0,1,.44-.91,2.42,2.42,0,0,1,1.39-.31,2.34,2.34,0,0,1,1.29.27,1.15,1.15,0,0,1,.47.73,4.79,4.79,0,0,1,.09,1V33a5.64,5.64,0,0,1-.08.93,1.09,1.09,0,0,1-.48.71A2.5,2.5,0,0,1,223.76,34.87Zm-4.38-3.73a2.18,2.18,0,0,0,1.2-.33,2.63,2.63,0,0,0,.86-.92,2.58,2.58,0,0,0,.32-1.27,2.62,2.62,0,0,0-.32-1.29,2.5,2.5,0,0,0-.88-.89,2.41,2.41,0,0,0-1.22-.32,2.48,2.48,0,0,0-1.27.33,2.64,2.64,0,0,0-.9.92,2.54,2.54,0,0,0-.33,1.3,2.36,2.36,0,0,0,.33,1.23,2.62,2.62,0,0,0,.93.91A2.57,2.57,0,0,0,219.38,31.14Z"/><path class="cls-3" d="M233.48,34.88a5.06,5.06,0,0,1-2.17-.49A5.9,5.9,0,0,1,229.48,33a6.7,6.7,0,0,1-1.26-2,6.3,6.3,0,0,1-.46-2.41,6.18,6.18,0,0,1,.46-2.34,6.5,6.5,0,0,1,1.28-2,6.07,6.07,0,0,1,1.84-1.36,4.75,4.75,0,0,1,2.15-.5,4.47,4.47,0,0,1,2.11.48,4.58,4.58,0,0,1,1.53,1.34,6.46,6.46,0,0,1,.93,2,9.08,9.08,0,0,1,.35,2.35,9.28,9.28,0,0,1-.3,2.4,6,6,0,0,1-.93,2,4.56,4.56,0,0,1-1.55,1.38A4.25,4.25,0,0,1,233.48,34.88Zm.5-3.7a2.22,2.22,0,0,0,1.22-.34,2.62,2.62,0,0,0,.87-.91,2.45,2.45,0,0,0,.34-1.28,2.56,2.56,0,0,0-.32-1.26,2.61,2.61,0,0,0-.88-.9,2.28,2.28,0,0,0-1.25-.34,2.42,2.42,0,0,0-1.24.33,2.22,2.22,0,0,0-.87.9,2.57,2.57,0,0,0-.31,1.27,2.44,2.44,0,0,0,.32,1.28,2.53,2.53,0,0,0,.9.91A2.41,2.41,0,0,0,234,31.18Zm4.35,3.72a2.34,2.34,0,0,1-1.26-.27,1.34,1.34,0,0,1-.54-.85V18.63a6.62,6.62,0,0,1,.06-.91A1.08,1.08,0,0,1,237,17a2.28,2.28,0,0,1,1.28-.27,2.47,2.47,0,0,1,1.32.26,1.19,1.19,0,0,1,.48.69,4.42,4.42,0,0,1,.1.93V33a4.53,4.53,0,0,1-.09.91,1.12,1.12,0,0,1-.48.71A2.35,2.35,0,0,1,238.33,34.9Z"/><path class="cls-3" d="M244.61,34.91a2.52,2.52,0,0,1-1.32-.26,1.14,1.14,0,0,1-.47-.72,4.7,4.7,0,0,1-.09-.92V24.28a4.42,4.42,0,0,1,.09-.92,1,1,0,0,1,.48-.69,3.48,3.48,0,0,1,2.59,0,1.06,1.06,0,0,1,.49.55,2,2,0,0,1,.1.53l-.3.15a3.22,3.22,0,0,1,.26-.36A3.58,3.58,0,0,1,247,23a3.71,3.71,0,0,1,.91-.49,3.63,3.63,0,0,1,1.24-.19l.61,0a4.62,4.62,0,0,1,.7.15,3.32,3.32,0,0,1,.66.3,1.58,1.58,0,0,1,.49.47,1.13,1.13,0,0,1,.19.67,3,3,0,0,1-.48,1.74,1.42,1.42,0,0,1-1.2.71,2.11,2.11,0,0,1-.6-.06,1,1,0,0,1-.29-.15A.93.93,0,0,0,249,26a1.68,1.68,0,0,0-.55-.06,2.71,2.71,0,0,0-.71.09,2.2,2.2,0,0,0-.63.32,1.5,1.5,0,0,0-.45.52,1.65,1.65,0,0,0-.16.71v5.48a4.46,4.46,0,0,1-.09.91,1,1,0,0,1-.49.69A2.69,2.69,0,0,1,244.61,34.91Z"/><path class="cls-3" d="M264,34.9a2.42,2.42,0,0,1-1.38-.33.89.89,0,0,1-.42-.8l.25-.43a3.06,3.06,0,0,1-.58.62,4.39,4.39,0,0,1-1.11.65,4.34,4.34,0,0,1-1.66.28,5,5,0,0,1-2.19-.5A5.89,5.89,0,0,1,255.08,33a7,7,0,0,1-1.27-2,6,6,0,0,1,0-4.71,6.77,6.77,0,0,1,1.29-2,6.24,6.24,0,0,1,1.84-1.36,4.93,4.93,0,0,1,2.17-.5,4.14,4.14,0,0,1,1.58.27,4.19,4.19,0,0,1,1.09.61,3.43,3.43,0,0,1,.66.67l-.23-.35a1.05,1.05,0,0,1,.44-.91,2.4,2.4,0,0,1,1.39-.31,2.24,2.24,0,0,1,1.29.28,1.14,1.14,0,0,1,.47.72,4.86,4.86,0,0,1,.09.95V33a4.7,4.7,0,0,1-.09.92,1,1,0,0,1-.47.71A2.39,2.39,0,0,1,264,34.9Zm-4.38-3.73a2.13,2.13,0,0,0,1.2-.34,2.48,2.48,0,0,0,.85-.91,2.68,2.68,0,0,0,0-2.56,2.42,2.42,0,0,0-.88-.89,2.33,2.33,0,0,0-1.22-.33,2.39,2.39,0,0,0-1.27.34,2.61,2.61,0,0,0-.9.91,2.57,2.57,0,0,0-.34,1.3,2.43,2.43,0,0,0,.34,1.24,2.6,2.6,0,0,0,2.21,1.24Z"/><path class="cls-3" d="M273.73,34.9a4.89,4.89,0,0,1-2.17-.49,5.75,5.75,0,0,1-1.83-1.36,6.88,6.88,0,0,1-1.26-2,6.27,6.27,0,0,1-.46-2.41,6.06,6.06,0,0,1,.46-2.34,6.62,6.62,0,0,1,1.28-2A6.24,6.24,0,0,1,271.59,23a4.88,4.88,0,0,1,2.15-.5,4.35,4.35,0,0,1,2.11.49,4.25,4.25,0,0,1,1.52,1.34,6.31,6.31,0,0,1,.94,2,9.14,9.14,0,0,1,.35,2.35,9.28,9.28,0,0,1-.3,2.4,6,6,0,0,1-.93,2,4.58,4.58,0,0,1-1.55,1.39A4.38,4.38,0,0,1,273.73,34.9Zm.5-3.7a2.22,2.22,0,0,0,1.22-.34,2.54,2.54,0,0,0,.87-.91,2.42,2.42,0,0,0,.34-1.27,2.58,2.58,0,0,0-.32-1.27,2.61,2.61,0,0,0-.88-.9,2.38,2.38,0,0,0-1.25-.33,2.41,2.41,0,0,0-1.24.32,2.35,2.35,0,0,0-.87.9,2.6,2.6,0,0,0-.32,1.27,2.52,2.52,0,0,0,.33,1.28,2.48,2.48,0,0,0,2.12,1.25Zm4.35,3.73a2.22,2.22,0,0,1-1.26-.28,1.25,1.25,0,0,1-.54-.85V18.65a6.73,6.73,0,0,1,.06-.91,1.06,1.06,0,0,1,.44-.71,2.18,2.18,0,0,1,1.28-.28,2.36,2.36,0,0,1,1.32.27,1.14,1.14,0,0,1,.48.68,4.57,4.57,0,0,1,.1.93V33a4.46,4.46,0,0,1-.09.91,1.12,1.12,0,0,1-.48.71A2.27,2.27,0,0,1,278.58,34.93Z"/><path class="cls-3" d="M293.18,34.91a2.39,2.39,0,0,1-1.37-.32.91.91,0,0,1-.43-.8l.25-.43a2.72,2.72,0,0,1-.57.61,4.08,4.08,0,0,1-1.12.65,4.29,4.29,0,0,1-1.66.29,5,5,0,0,1-2.19-.5A6,6,0,0,1,284.26,33,7,7,0,0,1,283,31a6.2,6.2,0,0,1-.47-2.38,5.83,5.83,0,0,1,.48-2.34,6.34,6.34,0,0,1,1.29-2A6.15,6.15,0,0,1,286.11,23a5,5,0,0,1,2.18-.5,4.3,4.3,0,0,1,1.57.26,4.16,4.16,0,0,1,1.09.62,3.18,3.18,0,0,1,.66.67l-.22-.35a1,1,0,0,1,.44-.91,2.39,2.39,0,0,1,1.38-.31,2.34,2.34,0,0,1,1.29.27,1.16,1.16,0,0,1,.48.73,5.8,5.8,0,0,1,.08.95V33a4.73,4.73,0,0,1-.09.93,1.07,1.07,0,0,1-.48.71A2.45,2.45,0,0,1,293.18,34.91Zm-4.37-3.72a2.21,2.21,0,0,0,1.2-.34,2.66,2.66,0,0,0,.85-.91,2.77,2.77,0,0,0,.33-1.28,2.53,2.53,0,0,0-.33-1.29,2.56,2.56,0,0,0-.87-.89,2.45,2.45,0,0,0-1.23-.32,2.33,2.33,0,0,0-1.26.34,2.53,2.53,0,0,0-1.24,2.21A2.34,2.34,0,0,0,286.6,30a2.56,2.56,0,0,0,.92.9A2.7,2.7,0,0,0,288.81,31.19Z"/><path class="cls-2" d="M124.81,34.84a2.29,2.29,0,0,1-1.3-.29,1.17,1.17,0,0,1-.5-.75,4.34,4.34,0,0,1-.1-1V19.28a4,4,0,0,1,.1-.93,1.18,1.18,0,0,1,.5-.73,2.33,2.33,0,0,1,1.32-.28H131a5,5,0,0,1,2.65.71,5.31,5.31,0,0,1,1.83,1.88,4.86,4.86,0,0,1,.65,2.54,4.47,4.47,0,0,1-.1,1.09,5.09,5.09,0,0,1-.37,1,5,5,0,0,1-.59.9,4,4,0,0,1,.88,1.11,6.48,6.48,0,0,1,.54,1.34,5.7,5.7,0,0,1,.18,1.42,6.05,6.05,0,0,1-.45,2.17,5.51,5.51,0,0,1-1.16,1.75,5.79,5.79,0,0,1-1.72,1.16,5.25,5.25,0,0,1-2.1.42Zm1.93-3.78H131a2.46,2.46,0,0,0,.88-.17,1.43,1.43,0,0,0,.72-.6,2.34,2.34,0,0,0,.27-1.23,2.68,2.68,0,0,0-.12-.87,1.47,1.47,0,0,0-.34-.53,1.05,1.05,0,0,0-.49-.28,3.39,3.39,0,0,0-.57-.1l-.58,0h-.72a1.62,1.62,0,0,1-1.2-.36,1.76,1.76,0,0,1-.35-1.26,1.62,1.62,0,0,1,.39-1.23,1.77,1.77,0,0,1,1.23-.34h.73l.52,0a1.23,1.23,0,0,0,.49-.15.9.9,0,0,0,.35-.41,1.9,1.9,0,0,0,.14-.79,1.51,1.51,0,0,0-.42-1.21,2.44,2.44,0,0,0-1.53-.37h-3.7Z"/><path class="cls-2" d="M149.16,34.83a2.34,2.34,0,0,1-1.38-.33.89.89,0,0,1-.42-.8l.25-.42a2.8,2.8,0,0,1-.58.61,4.11,4.11,0,0,1-1.11.65,4.34,4.34,0,0,1-1.66.28,5,5,0,0,1-2.19-.5,5.85,5.85,0,0,1-1.84-1.39,7.21,7.21,0,0,1-1.27-2,6.13,6.13,0,0,1,0-4.71,6.9,6.9,0,0,1,1.29-2,6.37,6.37,0,0,1,1.84-1.36,4.94,4.94,0,0,1,2.18-.5,4.09,4.09,0,0,1,1.57.27,4.32,4.32,0,0,1,1.09.61,3.43,3.43,0,0,1,.66.67l-.23-.35a1.05,1.05,0,0,1,.44-.91,2.42,2.42,0,0,1,1.39-.31,2.24,2.24,0,0,1,1.29.28,1.1,1.1,0,0,1,.47.72,4.86,4.86,0,0,1,.09.95v8.63a5.62,5.62,0,0,1-.08.92,1.07,1.07,0,0,1-.48.71A2.39,2.39,0,0,1,149.16,34.83Zm-4.38-3.73a2.14,2.14,0,0,0,1.21-.34,2.57,2.57,0,0,0,.85-.91,2.61,2.61,0,0,0,.32-1.28,2.56,2.56,0,0,0-.32-1.28,2.42,2.42,0,0,0-.88-.89,2.3,2.3,0,0,0-1.22-.33,2.42,2.42,0,0,0-1.26.34,2.56,2.56,0,0,0-.91.91,2.59,2.59,0,0,0-.33,1.3,2.42,2.42,0,0,0,.33,1.24,2.67,2.67,0,0,0,.93.9A2.58,2.58,0,0,0,144.78,31.1Z"/><path class="cls-2" d="M158,35.06a7.24,7.24,0,0,1-1.47-.16,8.53,8.53,0,0,1-1.54-.43,5.08,5.08,0,0,1-1.25-.68,1.26,1.26,0,0,1-.56-.89,1.36,1.36,0,0,1,0-.53,2.12,2.12,0,0,1,.23-.6,4.94,4.94,0,0,1,.43-.67.94.94,0,0,1,.44-.35,1,1,0,0,1,.59,0,3.55,3.55,0,0,1,.8.26l.82.4c.29.14.58.27.88.38a2.66,2.66,0,0,0,.92.16,2.32,2.32,0,0,0,1.09-.21.65.65,0,0,0,.39-.59.64.64,0,0,0-.16-.45,1.6,1.6,0,0,0-.45-.3c-.19-.08-.42-.16-.68-.24l-.81-.21c-.28-.07-.58-.15-.9-.25a9.05,9.05,0,0,1-1.19-.45,4,4,0,0,1-1.05-.71,3.22,3.22,0,0,1-.73-1.08,3.79,3.79,0,0,1-.28-1.56,3.3,3.3,0,0,1,2.23-3.31,7.34,7.34,0,0,1,2.7-.44c.3,0,.6,0,.9.05a5.4,5.4,0,0,1,.89.18,7.54,7.54,0,0,1,1.71.72c.5.24.76.55.77.95a2.39,2.39,0,0,1-1,1.84.88.88,0,0,1-.62.14,3.93,3.93,0,0,1-.86-.34c-.31-.16-.64-.3-1-.44a2.84,2.84,0,0,0-1-.2,2.2,2.2,0,0,0-.73.11,1.11,1.11,0,0,0-.45.3.75.75,0,0,0,0,1,1.59,1.59,0,0,0,.51.32,7.67,7.67,0,0,0,.75.22l.93.2c.45.09.91.2,1.38.34a4.71,4.71,0,0,1,1.3.61,2.93,2.93,0,0,1,.95,1.08,3.75,3.75,0,0,1,.37,1.77A3.63,3.63,0,0,1,162,34,6.38,6.38,0,0,1,158,35.06Z"/><path class="cls-2" d="M171.68,35.09a7.12,7.12,0,0,1-3-.58A5.84,5.84,0,0,1,166.61,33a6.43,6.43,0,0,1-1.2-2.09,6.88,6.88,0,0,1-.4-2.3,6.48,6.48,0,0,1,.85-3.32A6.14,6.14,0,0,1,168.23,23a7,7,0,0,1,3.46-.84,6.21,6.21,0,0,1,2.51.47,5.23,5.23,0,0,1,1.75,1.2,5.1,5.1,0,0,1,1,1.59,4.46,4.46,0,0,1,.33,1.62,2.82,2.82,0,0,1-.66,2.05,2.28,2.28,0,0,1-1.69.68h-6a1.77,1.77,0,0,0,.46,1.08,2.85,2.85,0,0,0,1,.7,3.48,3.48,0,0,0,1.32.25,8.1,8.1,0,0,0,1-.06,3.7,3.7,0,0,0,.79-.18c.22-.07.41-.15.59-.22a4.32,4.32,0,0,1,.48-.19,2.63,2.63,0,0,1,.43-.1,1.06,1.06,0,0,1,.67.21,2.06,2.06,0,0,1,.58.72,2,2,0,0,1,.24.52,2.2,2.2,0,0,1,.06.5,1.36,1.36,0,0,1-.61,1.09,4.91,4.91,0,0,1-1.73.74A11.56,11.56,0,0,1,171.68,35.09ZM169,27.69h4a1,1,0,0,0,.58-.14.61.61,0,0,0,.2-.53,1.19,1.19,0,0,0-.28-.78,1.84,1.84,0,0,0-.73-.54,3,3,0,0,0-1.09-.19,3,3,0,0,0-1.35.3,2.39,2.39,0,0,0-.94.8A1.87,1.87,0,0,0,169,27.69Z"/><path class="cls-2" d="M192.11,35a6.42,6.42,0,0,1-2.24-.42,6.92,6.92,0,0,1-2.1-1.21,5.92,5.92,0,0,1-1.54-2,6.35,6.35,0,0,1-.57-2.75,6.09,6.09,0,0,1,.58-2.73,6,6,0,0,1,1.52-2,6.87,6.87,0,0,1,2.09-1.21,6.37,6.37,0,0,1,2.21-.41,6.1,6.1,0,0,1,1.67.21A5.41,5.41,0,0,1,195,23a3.74,3.74,0,0,1,.73.53,6.26,6.26,0,0,1,.75.65,1.05,1.05,0,0,1,.3.85,1.38,1.38,0,0,1-.17.56,4.48,4.48,0,0,1-.38.59c-.52.7-1,1-1.5.95a2.58,2.58,0,0,1-.69-.25l-.6-.35a5,5,0,0,0-.61-.32,1.9,1.9,0,0,0-.75-.13,2.5,2.5,0,0,0-2.21,1.23,2.46,2.46,0,0,0-.34,1.31,2.53,2.53,0,0,0,1.24,2.22,2.42,2.42,0,0,0,1.26.34,2.43,2.43,0,0,0,1.27-.34l.35-.21a6.62,6.62,0,0,1,.58-.36,1.07,1.07,0,0,1,.55-.17,1.23,1.23,0,0,1,.74.27,4.28,4.28,0,0,1,.81.83,2.2,2.2,0,0,1,.49,1,1.18,1.18,0,0,1-.22.86,2.46,2.46,0,0,1-.85.76,3.69,3.69,0,0,1-.71.45,6.49,6.49,0,0,1-1.25.5A5.69,5.69,0,0,1,192.11,35Z"/><path class="cls-2" d="M204.43,34.86a5.21,5.21,0,0,1-3.92-1.72,5.64,5.64,0,0,1-1.16-1.92,6.87,6.87,0,0,1-.41-2.44V24.26a4.45,4.45,0,0,1,.09-.93,1.09,1.09,0,0,1,.48-.7,2.47,2.47,0,0,1,1.33-.27,2.37,2.37,0,0,1,1.31.27,1.14,1.14,0,0,1,.48.72,5.46,5.46,0,0,1,.08.93v4.5a2.94,2.94,0,0,0,.26,1.27,1.8,1.8,0,0,0,.78.81,2.87,2.87,0,0,0,2.45,0A2,2,0,0,0,207,30a2.59,2.59,0,0,0,.29-1.25V24.24a4.45,4.45,0,0,1,.09-.93,1.07,1.07,0,0,1,.48-.69,2.59,2.59,0,0,1,1.33-.26,2.27,2.27,0,0,1,1.31.28,1.12,1.12,0,0,1,.48.71,5.4,5.4,0,0,1,.08.91v8.8A4.13,4.13,0,0,1,211,34a1,1,0,0,1-.49.66,2.5,2.5,0,0,1-1.3.25,2.92,2.92,0,0,1-1.05-.15,1.3,1.3,0,0,1-.55-.37,1.14,1.14,0,0,1-.21-.48,4.14,4.14,0,0,1,0-.45l.33-.27a2.55,2.55,0,0,1-.33.38,5.11,5.11,0,0,1-.66.58,4.19,4.19,0,0,1-1,.53A3.36,3.36,0,0,1,204.43,34.86Z"/><path class="cls-2" d="M223.76,34.87a2.34,2.34,0,0,1-1.38-.33.88.88,0,0,1-.42-.8l.25-.42a2.59,2.59,0,0,1-.58.61,4.11,4.11,0,0,1-1.11.65,4.33,4.33,0,0,1-1.66.29,5,5,0,0,1-2.19-.5A6.17,6.17,0,0,1,214.83,33a7.27,7.27,0,0,1-1.27-2,6,6,0,0,1-.47-2.37,5.82,5.82,0,0,1,.47-2.34,6.72,6.72,0,0,1,1.29-2,6.19,6.19,0,0,1,1.84-1.36,4.8,4.8,0,0,1,2.17-.5,4.32,4.32,0,0,1,1.58.26,4.65,4.65,0,0,1,1.09.61,3.45,3.45,0,0,1,.66.68l-.23-.35a1.05,1.05,0,0,1,.44-.91,2.42,2.42,0,0,1,1.39-.31,2.34,2.34,0,0,1,1.29.27,1.15,1.15,0,0,1,.47.73,4.79,4.79,0,0,1,.09,1V33a5.64,5.64,0,0,1-.08.93,1.09,1.09,0,0,1-.48.71A2.5,2.5,0,0,1,223.76,34.87Zm-4.38-3.73a2.18,2.18,0,0,0,1.2-.33,2.63,2.63,0,0,0,.86-.92,2.58,2.58,0,0,0,.32-1.27,2.62,2.62,0,0,0-.32-1.29,2.5,2.5,0,0,0-.88-.89,2.41,2.41,0,0,0-1.22-.32,2.48,2.48,0,0,0-1.27.33,2.64,2.64,0,0,0-.9.92,2.54,2.54,0,0,0-.33,1.3,2.36,2.36,0,0,0,.33,1.23,2.62,2.62,0,0,0,.93.91A2.57,2.57,0,0,0,219.38,31.14Z"/><path class="cls-2" d="M233.48,34.88a5.06,5.06,0,0,1-2.17-.49A5.9,5.9,0,0,1,229.48,33a6.7,6.7,0,0,1-1.26-2,6.3,6.3,0,0,1-.46-2.41,6.18,6.18,0,0,1,.46-2.34,6.5,6.5,0,0,1,1.28-2,6.07,6.07,0,0,1,1.84-1.36,4.75,4.75,0,0,1,2.15-.5,4.47,4.47,0,0,1,2.11.48,4.58,4.58,0,0,1,1.53,1.34,6.46,6.46,0,0,1,.93,2,9.08,9.08,0,0,1,.35,2.35,9.28,9.28,0,0,1-.3,2.4,6,6,0,0,1-.93,2,4.56,4.56,0,0,1-1.55,1.38A4.25,4.25,0,0,1,233.48,34.88Zm.5-3.7a2.22,2.22,0,0,0,1.22-.34,2.62,2.62,0,0,0,.87-.91,2.45,2.45,0,0,0,.34-1.28,2.56,2.56,0,0,0-.32-1.26,2.61,2.61,0,0,0-.88-.9,2.28,2.28,0,0,0-1.25-.34,2.42,2.42,0,0,0-1.24.33,2.22,2.22,0,0,0-.87.9,2.57,2.57,0,0,0-.31,1.27,2.44,2.44,0,0,0,.32,1.28,2.53,2.53,0,0,0,.9.91A2.41,2.41,0,0,0,234,31.18Zm4.35,3.72a2.34,2.34,0,0,1-1.26-.27,1.34,1.34,0,0,1-.54-.85V18.63a6.62,6.62,0,0,1,.06-.91A1.08,1.08,0,0,1,237,17a2.28,2.28,0,0,1,1.28-.27,2.47,2.47,0,0,1,1.32.26,1.19,1.19,0,0,1,.48.69,4.42,4.42,0,0,1,.1.93V33a4.53,4.53,0,0,1-.09.91,1.12,1.12,0,0,1-.48.71A2.35,2.35,0,0,1,238.33,34.9Z"/><path class="cls-2" d="M244.61,34.91a2.52,2.52,0,0,1-1.32-.26,1.14,1.14,0,0,1-.47-.72,4.7,4.7,0,0,1-.09-.92V24.28a4.42,4.42,0,0,1,.09-.92,1,1,0,0,1,.48-.69,3.48,3.48,0,0,1,2.59,0,1.06,1.06,0,0,1,.49.55,2,2,0,0,1,.1.53l-.3.15a3.22,3.22,0,0,1,.26-.36A3.58,3.58,0,0,1,247,23a3.71,3.71,0,0,1,.91-.49,3.63,3.63,0,0,1,1.24-.19l.61,0a4.62,4.62,0,0,1,.7.15,3.32,3.32,0,0,1,.66.3,1.58,1.58,0,0,1,.49.47,1.13,1.13,0,0,1,.19.67,3,3,0,0,1-.48,1.74,1.42,1.42,0,0,1-1.2.71,2.11,2.11,0,0,1-.6-.06,1,1,0,0,1-.29-.15A.93.93,0,0,0,249,26a1.68,1.68,0,0,0-.55-.06,2.71,2.71,0,0,0-.71.09,2.2,2.2,0,0,0-.63.32,1.5,1.5,0,0,0-.45.52,1.65,1.65,0,0,0-.16.71v5.48a4.46,4.46,0,0,1-.09.91,1,1,0,0,1-.49.69A2.69,2.69,0,0,1,244.61,34.91Z"/><path class="cls-2" d="M264,34.9a2.42,2.42,0,0,1-1.38-.33.89.89,0,0,1-.42-.8l.25-.43a3.06,3.06,0,0,1-.58.62,4.39,4.39,0,0,1-1.11.65,4.34,4.34,0,0,1-1.66.28,5,5,0,0,1-2.19-.5A5.89,5.89,0,0,1,255.08,33a7,7,0,0,1-1.27-2,6,6,0,0,1,0-4.71,6.77,6.77,0,0,1,1.29-2,6.24,6.24,0,0,1,1.84-1.36,4.93,4.93,0,0,1,2.17-.5,4.14,4.14,0,0,1,1.58.27,4.19,4.19,0,0,1,1.09.61,3.43,3.43,0,0,1,.66.67l-.23-.35a1.05,1.05,0,0,1,.44-.91,2.4,2.4,0,0,1,1.39-.31,2.24,2.24,0,0,1,1.29.28,1.14,1.14,0,0,1,.47.72,4.86,4.86,0,0,1,.09.95V33a4.7,4.7,0,0,1-.09.92,1,1,0,0,1-.47.71A2.39,2.39,0,0,1,264,34.9Zm-4.38-3.73a2.13,2.13,0,0,0,1.2-.34,2.48,2.48,0,0,0,.85-.91,2.68,2.68,0,0,0,0-2.56,2.42,2.42,0,0,0-.88-.89,2.33,2.33,0,0,0-1.22-.33,2.39,2.39,0,0,0-1.27.34,2.61,2.61,0,0,0-.9.91,2.57,2.57,0,0,0-.34,1.3,2.43,2.43,0,0,0,.34,1.24,2.6,2.6,0,0,0,2.21,1.24Z"/><path class="cls-2" d="M273.73,34.9a4.89,4.89,0,0,1-2.17-.49,5.75,5.75,0,0,1-1.83-1.36,6.88,6.88,0,0,1-1.26-2,6.27,6.27,0,0,1-.46-2.41,6.06,6.06,0,0,1,.46-2.34,6.62,6.62,0,0,1,1.28-2A6.24,6.24,0,0,1,271.59,23a4.88,4.88,0,0,1,2.15-.5,4.35,4.35,0,0,1,2.11.49,4.25,4.25,0,0,1,1.52,1.34,6.31,6.31,0,0,1,.94,2,9.14,9.14,0,0,1,.35,2.35,9.28,9.28,0,0,1-.3,2.4,6,6,0,0,1-.93,2,4.58,4.58,0,0,1-1.55,1.39A4.38,4.38,0,0,1,273.73,34.9Zm.5-3.7a2.22,2.22,0,0,0,1.22-.34,2.54,2.54,0,0,0,.87-.91,2.42,2.42,0,0,0,.34-1.27,2.58,2.58,0,0,0-.32-1.27,2.61,2.61,0,0,0-.88-.9,2.38,2.38,0,0,0-1.25-.33,2.41,2.41,0,0,0-1.24.32,2.35,2.35,0,0,0-.87.9,2.6,2.6,0,0,0-.32,1.27,2.52,2.52,0,0,0,.33,1.28,2.48,2.48,0,0,0,2.12,1.25Zm4.35,3.73a2.22,2.22,0,0,1-1.26-.28,1.25,1.25,0,0,1-.54-.85V18.65a6.73,6.73,0,0,1,.06-.91,1.06,1.06,0,0,1,.44-.71,2.18,2.18,0,0,1,1.28-.28,2.36,2.36,0,0,1,1.32.27,1.14,1.14,0,0,1,.48.68,4.57,4.57,0,0,1,.1.93V33a4.46,4.46,0,0,1-.09.91,1.12,1.12,0,0,1-.48.71A2.27,2.27,0,0,1,278.58,34.93Z"/><path class="cls-2" d="M293.18,34.91a2.39,2.39,0,0,1-1.37-.32.91.91,0,0,1-.43-.8l.25-.43a2.72,2.72,0,0,1-.57.61,4.08,4.08,0,0,1-1.12.65,4.29,4.29,0,0,1-1.66.29,5,5,0,0,1-2.19-.5A6,6,0,0,1,284.26,33,7,7,0,0,1,283,31a6.2,6.2,0,0,1-.47-2.38,5.83,5.83,0,0,1,.48-2.34,6.34,6.34,0,0,1,1.29-2A6.15,6.15,0,0,1,286.11,23a5,5,0,0,1,2.18-.5,4.3,4.3,0,0,1,1.57.26,4.16,4.16,0,0,1,1.09.62,3.18,3.18,0,0,1,.66.67l-.22-.35a1,1,0,0,1,.44-.91,2.39,2.39,0,0,1,1.38-.31,2.34,2.34,0,0,1,1.29.27,1.16,1.16,0,0,1,.48.73,5.8,5.8,0,0,1,.08.95V33a4.73,4.73,0,0,1-.09.93,1.07,1.07,0,0,1-.48.71A2.45,2.45,0,0,1,293.18,34.91Zm-4.37-3.72a2.21,2.21,0,0,0,1.2-.34,2.66,2.66,0,0,0,.85-.91,2.77,2.77,0,0,0,.33-1.28,2.53,2.53,0,0,0-.33-1.29,2.56,2.56,0,0,0-.87-.89,2.45,2.45,0,0,0-1.23-.32,2.33,2.33,0,0,0-1.26.34,2.53,2.53,0,0,0-1.24,2.21A2.34,2.34,0,0,0,286.6,30a2.56,2.56,0,0,0,.92.9A2.7,2.7,0,0,0,288.81,31.19Z"/><path class="cls-4" d="M54.61,34.08h4.52q3.42,0,3.42,4a4,4,0,0,1-1.08,3.17c-.72.63-2,.94-3.85.94h-11c-1.91,0-3.2-.25-3.89-.77s-1-1.63-1-3.34a5.58,5.58,0,0,1,.16-1.45,3.53,3.53,0,0,1,.62-1.2,5.18,5.18,0,0,1,1.22-1.13c1.47-1,2.62-1.82,3.46-2.44s1.67-1.26,2.47-1.95a13.25,13.25,0,0,0,1.77-1.76,10.45,10.45,0,0,0,1-1.66A6.47,6.47,0,0,0,53,24.59a15.39,15.39,0,0,0,.14-2.19c0-1.56-.47-2.35-1.42-2.35s-1.55.93-1.55,2.77a2,2,0,0,1-1,2,7,7,0,0,1-2.89.46c-1.74,0-2.92-.39-3.53-1.17a6.48,6.48,0,0,1-.91-3.91,5.48,5.48,0,0,1,2.51-4.56,11.67,11.67,0,0,1,7-1.82q11.07,0,11.07,8.69A14.11,14.11,0,0,1,62,26.21,11.66,11.66,0,0,1,60.89,29a9.08,9.08,0,0,1-1.78,2.12A17.42,17.42,0,0,1,57,32.74,26.68,26.68,0,0,1,54.61,34.08Z"/><path class="cls-4" d="M65.24,39a2.78,2.78,0,0,1,1.16-2.31,5.38,5.38,0,0,1,3.28-.88c3,0,4.44,1.07,4.44,3.19a3.11,3.11,0,0,1-.57,2,2.73,2.73,0,0,1-1.51,1,9.17,9.17,0,0,1-2.36.26,6.13,6.13,0,0,1-3.18-.76A2.63,2.63,0,0,1,65.24,39Z"/><path class="cls-4" d="M90.05,41.85a4.22,4.22,0,0,1-3.51-1.37c-.73-.9-1.09-2.49-1.09-4.76H77.91A5.33,5.33,0,0,1,74,34.42a4.61,4.61,0,0,1-1.28-3.36,7.2,7.2,0,0,1,1.1-3.95Q76.71,22.45,80.33,17a6.64,6.64,0,0,1,5.83-3.19l3.54,0c2,0,3.33.34,4,1a4.92,4.92,0,0,1,1.05,3.59V29.59a3.69,3.69,0,0,1,2.41.88,3.3,3.3,0,0,1,.65,2.26,2.86,2.86,0,0,1-.7,2.21,4.07,4.07,0,0,1-2.36.74c0,2.21-.4,3.79-1.19,4.74A4.34,4.34,0,0,1,90.05,41.85Zm-4.64-12.1.13-8.94-5.46,8.94Z"/><path class="cls-5" d="M54.61,34.08h4.52q3.42,0,3.42,4a4,4,0,0,1-1.08,3.17c-.72.63-2,.94-3.85.94h-11c-1.91,0-3.2-.25-3.89-.77s-1-1.63-1-3.34a5.58,5.58,0,0,1,.16-1.45,3.53,3.53,0,0,1,.62-1.2,5.18,5.18,0,0,1,1.22-1.13c1.47-1,2.62-1.82,3.46-2.44s1.67-1.26,2.47-1.95a13.25,13.25,0,0,0,1.77-1.76,10.45,10.45,0,0,0,1-1.66A6.47,6.47,0,0,0,53,24.59a15.39,15.39,0,0,0,.14-2.19c0-1.56-.47-2.35-1.42-2.35s-1.55.93-1.55,2.77a2,2,0,0,1-1,2,7,7,0,0,1-2.89.46c-1.74,0-2.92-.39-3.53-1.17a6.48,6.48,0,0,1-.91-3.91,5.48,5.48,0,0,1,2.51-4.56,11.67,11.67,0,0,1,7-1.82q11.07,0,11.07,8.69A14.11,14.11,0,0,1,62,26.21,11.66,11.66,0,0,1,60.89,29a9.08,9.08,0,0,1-1.78,2.12A17.42,17.42,0,0,1,57,32.74,26.68,26.68,0,0,1,54.61,34.08Z"/><path class="cls-5" d="M65.24,39a2.78,2.78,0,0,1,1.16-2.31,5.38,5.38,0,0,1,3.28-.88c3,0,4.44,1.07,4.44,3.19a3.11,3.11,0,0,1-.57,2,2.73,2.73,0,0,1-1.51,1,9.17,9.17,0,0,1-2.36.26,6.13,6.13,0,0,1-3.18-.76A2.63,2.63,0,0,1,65.24,39Z"/><path class="cls-5" d="M90.05,41.85a4.22,4.22,0,0,1-3.51-1.37c-.73-.9-1.09-2.49-1.09-4.76H77.91A5.33,5.33,0,0,1,74,34.42a4.61,4.61,0,0,1-1.28-3.36,7.2,7.2,0,0,1,1.1-3.95Q76.71,22.45,80.33,17a6.64,6.64,0,0,1,5.83-3.19l3.54,0c2,0,3.33.34,4,1a4.92,4.92,0,0,1,1.05,3.59V29.59a3.69,3.69,0,0,1,2.41.88,3.3,3.3,0,0,1,.65,2.26,2.86,2.86,0,0,1-.7,2.21,4.07,4.07,0,0,1-2.36.74c0,2.21-.4,3.79-1.19,4.74A4.34,4.34,0,0,1,90.05,41.85Zm-4.64-12.1.13-8.94-5.46,8.94Z"/></g></g></svg>