<svg xmlns="http://www.w3.org/2000/svg" viewBox="0 0 401.16 76.08"><defs><style>.cls-1{fill:#0468ad;}.cls-2{fill:#fff;}.cls-3,.cls-4{fill:none;stroke-width:5px;}.cls-3{stroke:#c8a927;stroke-linejoin:round;}.cls-4{stroke:#fff;}.cls-5{fill:#c8a927;}</style></defs><title>24t</title><g id="Layer_2" data-name="Layer 2"><g id="mesa"><rect class="cls-1" width="401.16" height="76.08" rx="32.4"/><path class="cls-2" d="M120.38,33.84a2.4,2.4,0,0,1-1.32-.28,1.11,1.11,0,0,1-.48-.72,4.14,4.14,0,0,1-.1-.93V18.26a3.85,3.85,0,0,1,.1-.91,1.11,1.11,0,0,1,.5-.71,2.31,2.31,0,0,1,1.32-.28h5.18a6.42,6.42,0,0,1,2.12.38,6,6,0,0,1,2,1.15,5.61,5.61,0,0,1,1.45,1.93,6.17,6.17,0,0,1,.55,2.72,6.68,6.68,0,0,1-.31,2,5.73,5.73,0,0,1-.94,1.8,6,6,0,0,1-1.55,1.4,6.75,6.75,0,0,1-2.13.86H122.3v3.3a3.91,3.91,0,0,1-.1.91,1.15,1.15,0,0,1-.5.71A2.35,2.35,0,0,1,120.38,33.84Zm1.93-9h3.47a2,2,0,0,0,.7-.13,2.21,2.21,0,0,0,.69-.41,2.08,2.08,0,0,0,.51-.73,2.52,2.52,0,0,0,.2-1.07,2.46,2.46,0,0,0-.3-1.25,2.15,2.15,0,0,0-.82-.82,2.54,2.54,0,0,0-1.23-.29h-3.22Zm8.62,8.48a2,2,0,0,1-1.48.54,2.24,2.24,0,0,1-1.15-1l-4.39-6.3,4.27-.55,3.22,4.63a3.39,3.39,0,0,1,.54,1,1,1,0,0,1-.13.8A3.25,3.25,0,0,1,130.93,33.34Z"/><path class="cls-2" d="M140.28,34.07a7.3,7.3,0,0,1-3-.57A5.86,5.86,0,0,1,135.2,32a6.51,6.51,0,0,1-1.2-2.09,7.09,7.09,0,0,1-.4-2.3,6.42,6.42,0,0,1,.86-3.32A6,6,0,0,1,136.82,22a7.11,7.11,0,0,1,3.46-.83,6.27,6.27,0,0,1,2.52.46,5.14,5.14,0,0,1,2.77,2.79,4.54,4.54,0,0,1,.34,1.63,2.89,2.89,0,0,1-.67,2,2.25,2.25,0,0,1-1.69.67h-6a1.77,1.77,0,0,0,.47,1.07,2.69,2.69,0,0,0,1,.7,3.5,3.5,0,0,0,1.33.25,7.94,7.94,0,0,0,1-.06,4.3,4.3,0,0,0,.79-.17c.22-.08.42-.15.59-.23l.49-.19a4.19,4.19,0,0,1,.42-.1,1,1,0,0,1,.68.22A2,2,0,0,1,145,31a1.75,1.75,0,0,1,.24.53,2.07,2.07,0,0,1,.06.5,1.32,1.32,0,0,1-.61,1.08,4.73,4.73,0,0,1-1.73.74A11.47,11.47,0,0,1,140.28,34.07Zm-2.68-7.4h4a1,1,0,0,0,.58-.13.62.62,0,0,0,.2-.54,1.27,1.27,0,0,0-.27-.78,1.76,1.76,0,0,0-.74-.53,2.8,2.8,0,0,0-1.09-.19,3,3,0,0,0-1.35.3,2.38,2.38,0,0,0-.94.8A1.91,1.91,0,0,0,137.6,26.67Z"/><path class="cls-2" d="M154.18,34a6.42,6.42,0,0,1-2.24-.42,6.92,6.92,0,0,1-2.1-1.21,5.8,5.8,0,0,1-1.54-2,6.35,6.35,0,0,1-.57-2.75,6.06,6.06,0,0,1,.58-2.73,6,6,0,0,1,1.52-2,6.87,6.87,0,0,1,2.09-1.21,6.37,6.37,0,0,1,2.21-.41,6.15,6.15,0,0,1,1.67.21,5.6,5.6,0,0,1,1.25.51,3.74,3.74,0,0,1,.73.53,7.16,7.16,0,0,1,.75.65,1.05,1.05,0,0,1,.3.85,1.56,1.56,0,0,1-.17.56,4.48,4.48,0,0,1-.38.59c-.52.7-1,1-1.5.95a2.58,2.58,0,0,1-.69-.25l-.6-.35a5,5,0,0,0-.61-.32,2,2,0,0,0-.75-.13,2.56,2.56,0,0,0-1.3.33,2.61,2.61,0,0,0-.91.9,2.5,2.5,0,0,0-.34,1.32,2.44,2.44,0,0,0,.34,1.29,2.48,2.48,0,0,0,.9.92,2.42,2.42,0,0,0,1.26.34,2.66,2.66,0,0,0,.72-.1,2.59,2.59,0,0,0,.55-.24l.35-.21c.2-.14.39-.26.58-.37a1.12,1.12,0,0,1,.55-.16,1.25,1.25,0,0,1,.74.27,4.28,4.28,0,0,1,.81.83,2.07,2.07,0,0,1,.48,1,1.13,1.13,0,0,1-.21.86,2.56,2.56,0,0,1-.85.76,3.69,3.69,0,0,1-.71.45,6.49,6.49,0,0,1-1.25.5A5.69,5.69,0,0,1,154.18,34Z"/><path class="cls-2" d="M167.13,34.06a6.21,6.21,0,0,1-2.34-.46,7.11,7.11,0,0,1-2.11-1.31,6.41,6.41,0,0,1-1.52-2,6.41,6.41,0,0,1,0-5.15A6.63,6.63,0,0,1,162.53,23a6.75,6.75,0,0,1,2.06-1.41,6,6,0,0,1,2.49-.52,6.24,6.24,0,0,1,3.26.87,6.4,6.4,0,0,1,2.34,2.34,6.71,6.71,0,0,1,.31,6,6.5,6.5,0,0,1-1.5,2,6.57,6.57,0,0,1-2.08,1.29A6.35,6.35,0,0,1,167.13,34.06Zm0-3.77a2.81,2.81,0,0,0,1.22-.3,2.67,2.67,0,0,0,1-.9,2.53,2.53,0,0,0,.43-1.52,2.74,2.74,0,0,0-.35-1.4,2.41,2.41,0,0,0-1-.94,2.83,2.83,0,0,0-1.41-.34,2.6,2.6,0,0,0-1.34.35,2.65,2.65,0,0,0-.95,1,2.7,2.7,0,0,0-.37,1.39,2.61,2.61,0,0,0,.42,1.51,2.47,2.47,0,0,0,1,.9A3,3,0,0,0,167.08,30.29Z"/><path class="cls-2" d="M177.45,33.87a2.48,2.48,0,0,1-1.31-.26,1.11,1.11,0,0,1-.48-.72,4.63,4.63,0,0,1-.08-.92V23.24a4.42,4.42,0,0,1,.09-.92,1.08,1.08,0,0,1,.49-.69,2.54,2.54,0,0,1,1.32-.26,2.52,2.52,0,0,1,1.27.24,1,1,0,0,1,.48.55,1.73,1.73,0,0,1,.1.54l-.3.15a2.39,2.39,0,0,1,.26-.37,4.66,4.66,0,0,1,.59-.55,3.46,3.46,0,0,1,.92-.48,3.34,3.34,0,0,1,1.23-.2,4.45,4.45,0,0,1,.61,0,3,3,0,0,1,.7.15,2.4,2.4,0,0,1,.67.3,1.51,1.51,0,0,1,.48.46,1.13,1.13,0,0,1,.19.67,3.09,3.09,0,0,1-.47,1.74,1.4,1.4,0,0,1-1.21.71,2,2,0,0,1-.59-.06.87.87,0,0,1-.29-.15,1.1,1.1,0,0,0-.26-.15,1.72,1.72,0,0,0-.55-.06,2.46,2.46,0,0,0-.72.1,1.9,1.9,0,0,0-.62.31,1.6,1.6,0,0,0-.45.52,1.53,1.53,0,0,0-.17.72V32a4.46,4.46,0,0,1-.09.91,1,1,0,0,1-.48.69A2.6,2.6,0,0,1,177.45,33.87Z"/><path class="cls-2" d="M187.43,21.58h2.75l3.45-.1a4.29,4.29,0,0,1,.9.09,1.08,1.08,0,0,1,.7.49,2.33,2.33,0,0,1,.28,1.32,2.27,2.27,0,0,1-.27,1.25,1.1,1.1,0,0,1-.69.51,3.36,3.36,0,0,1-.92.12l-3.27-.08-3,0a1.26,1.26,0,0,1-1-.46,2.55,2.55,0,0,1-.29-1.39,2.17,2.17,0,0,1,.35-1.34A1.27,1.27,0,0,1,187.43,21.58Zm5.65,12.3a7.45,7.45,0,0,1-2.2-.28,3.32,3.32,0,0,1-2.39-2.31,6.94,6.94,0,0,1-.29-2.11V19.05a4.15,4.15,0,0,1,.09-.92,1.09,1.09,0,0,1,.48-.67,2.53,2.53,0,0,1,1.31-.26,2.35,2.35,0,0,1,1.29.28,1.1,1.1,0,0,1,.49.71,4.53,4.53,0,0,1,.09.91V29a3,3,0,0,0,.06.66.88.88,0,0,0,.19.39.72.72,0,0,0,.35.17,2.71,2.71,0,0,0,.55.06,4.16,4.16,0,0,1,1,.1,1,1,0,0,1,.66.45A2.13,2.13,0,0,1,195,32a2.39,2.39,0,0,1-.28,1.3,1,1,0,0,1-.71.48A5.41,5.41,0,0,1,193.08,33.88Z"/><path class="cls-2" d="M203.63,34.11a7.14,7.14,0,0,1-3-.58A5.72,5.72,0,0,1,198.55,32a6.51,6.51,0,0,1-1.2-2.09,7.09,7.09,0,0,1-.4-2.3,6.39,6.39,0,0,1,.86-3.32A6,6,0,0,1,200.17,22a7,7,0,0,1,3.46-.83,6.18,6.18,0,0,1,2.51.46,5.12,5.12,0,0,1,2.78,2.79,4.5,4.5,0,0,1,.33,1.62,2.82,2.82,0,0,1-.66,2.05,2.26,2.26,0,0,1-1.69.68h-6a1.78,1.78,0,0,0,.47,1.08,2.81,2.81,0,0,0,1,.7,3.5,3.5,0,0,0,1.33.25,7.94,7.94,0,0,0,1-.06,3.7,3.7,0,0,0,.79-.18,5.66,5.66,0,0,0,.59-.22,4.44,4.44,0,0,1,.49-.19,2.53,2.53,0,0,1,.42-.1,1,1,0,0,1,.68.22,2.11,2.11,0,0,1,.57.71,1.71,1.71,0,0,1,.24.52,2.2,2.2,0,0,1,.06.5A1.34,1.34,0,0,1,208,33.1a4.91,4.91,0,0,1-1.73.74A11.53,11.53,0,0,1,203.63,34.11ZM201,26.71h4a1,1,0,0,0,.58-.14.61.61,0,0,0,.2-.53,1.21,1.21,0,0,0-.28-.78,1.77,1.77,0,0,0-.73-.54,3.27,3.27,0,0,0-2.44.12,2.3,2.3,0,0,0-.94.8A1.91,1.91,0,0,0,201,26.71Z"/><path class="cls-2" d="M222.67,33.9a16.21,16.21,0,0,1-1.82-.1,3.9,3.9,0,0,1-1.35-.4,2.42,2.42,0,0,1-.9-.84,4,4,0,0,1-.52-1.38,10,10,0,0,1-.18-2.06V17.57a3.82,3.82,0,0,1,.1-.92,1.2,1.2,0,0,1,.49-.71,2.35,2.35,0,0,1,1.31-.27,2.24,2.24,0,0,1,1.29.28,1.1,1.1,0,0,1,.48.7,3.82,3.82,0,0,1,.1.92V29a6,6,0,0,0,0,.66,1,1,0,0,0,.15.41.54.54,0,0,0,.32.2,1.86,1.86,0,0,0,.52.05,2.62,2.62,0,0,1,.61.08.89.89,0,0,1,.54.45,2.56,2.56,0,0,1,.23,1.25,2.93,2.93,0,0,1-.23,1.3.89.89,0,0,1-.54.47A2.74,2.74,0,0,1,222.67,33.9Z"/><path class="cls-2" d="M227.91,19.6a2.38,2.38,0,0,1-1.35-.28,1.09,1.09,0,0,1-.49-.72,4.86,4.86,0,0,1-.09-1,4.75,4.75,0,0,1,.09-1,1.07,1.07,0,0,1,.5-.7,2.61,2.61,0,0,1,1.36-.26,2.47,2.47,0,0,1,1.33.27,1.14,1.14,0,0,1,.49.73,5.86,5.86,0,0,1,.08,1,5.64,5.64,0,0,1-.08.93,1.11,1.11,0,0,1-.49.71A2.65,2.65,0,0,1,227.91,19.6Zm0,14.3a2.59,2.59,0,0,1-1.33-.26,1,1,0,0,1-.47-.7A5.43,5.43,0,0,1,226,32V23.3a4.46,4.46,0,0,1,.09-.91,1.06,1.06,0,0,1,.49-.7,2.42,2.42,0,0,1,1.32-.26,2.34,2.34,0,0,1,1.29.27,1.13,1.13,0,0,1,.47.71,4.76,4.76,0,0,1,.09.94v8.7a4.47,4.47,0,0,1-.08.91,1,1,0,0,1-.48.69A2.49,2.49,0,0,1,227.9,33.9Z"/><path class="cls-2" d="M234.27,33.9a2.4,2.4,0,0,1-1.3-.27,1.15,1.15,0,0,1-.48-.71,4.63,4.63,0,0,1-.09-.92V17.63a4.69,4.69,0,0,1,.09-.94A1.06,1.06,0,0,1,233,16a2.59,2.59,0,0,1,1.33-.26,2.15,2.15,0,0,1,1.27.28,1.08,1.08,0,0,1,.45.71,3.88,3.88,0,0,1,.05.91V32.78a1.29,1.29,0,0,1-.52.85A2.34,2.34,0,0,1,234.27,33.9Zm4.85,0a4.41,4.41,0,0,1-2.15-.51A4.53,4.53,0,0,1,235.44,32a6.45,6.45,0,0,1-.93-2,8.5,8.5,0,0,1-.28-2.4,8.66,8.66,0,0,1,.32-2.35,6.31,6.31,0,0,1,.94-2,4.32,4.32,0,0,1,3.64-1.83,4.88,4.88,0,0,1,2.15.5,6.4,6.4,0,0,1,1.84,1.37,6.47,6.47,0,0,1,1.27,2,6,6,0,0,1,.46,2.34,6.27,6.27,0,0,1-.46,2.41,6.7,6.7,0,0,1-1.26,2,6,6,0,0,1-1.83,1.37A5.07,5.07,0,0,1,239.12,33.88Zm-.49-3.7a2.41,2.41,0,0,0,1.25-.33,2.59,2.59,0,0,0,.88-.92,2.39,2.39,0,0,0,.34-1.27,2.64,2.64,0,0,0-.32-1.28,2.4,2.4,0,0,0-.89-.9,2.49,2.49,0,0,0-1.24-.32,2.36,2.36,0,0,0-1.23.33,2.45,2.45,0,0,0-.88.9,2.57,2.57,0,0,0-.31,1.27,2.6,2.6,0,0,0,.32,1.27,2.48,2.48,0,0,0,.88.91A2.18,2.18,0,0,0,238.63,30.18Z"/><path class="cls-2" d="M248.9,33.91a2.36,2.36,0,0,1-1.31-.26,1.07,1.07,0,0,1-.48-.71A4.73,4.73,0,0,1,247,32V23.29a4.52,4.52,0,0,1,.09-.93,1,1,0,0,1,.49-.68,2.41,2.41,0,0,1,1.32-.27,2.5,2.5,0,0,1,1.26.24,1.06,1.06,0,0,1,.49.55,1.73,1.73,0,0,1,.1.54l-.3.15a2,2,0,0,1,.26-.36,3.2,3.2,0,0,1,.59-.55,3.4,3.4,0,0,1,.91-.49,3.62,3.62,0,0,1,1.24-.2,4.55,4.55,0,0,1,.61,0,3,3,0,0,1,.7.15,2.54,2.54,0,0,1,.67.3,1.51,1.51,0,0,1,.48.46,1.16,1.16,0,0,1,.19.68,3,3,0,0,1-.48,1.73,1.39,1.39,0,0,1-1.2.72,1.73,1.73,0,0,1-.6-.07.92.92,0,0,1-.28-.15L253.3,25a1.68,1.68,0,0,0-.55-.06,2.39,2.39,0,0,0-.71.1,2.12,2.12,0,0,0-.62.31,1.35,1.35,0,0,0-.45.53,1.49,1.49,0,0,0-.17.71v5.47a4.56,4.56,0,0,1-.09.92,1,1,0,0,1-.49.68A2.56,2.56,0,0,1,248.9,33.91Z"/><path class="cls-2" d="M264.3,34.15a7.25,7.25,0,0,1-3-.58,5.88,5.88,0,0,1-2.07-1.51A6.4,6.4,0,0,1,258,30a6.88,6.88,0,0,1-.4-2.3,6.45,6.45,0,0,1,.85-3.33,6.16,6.16,0,0,1,2.36-2.28,7,7,0,0,1,3.47-.84,6.24,6.24,0,0,1,2.51.47,5.23,5.23,0,0,1,1.75,1.2,4.89,4.89,0,0,1,1,1.59,4.25,4.25,0,0,1,.34,1.62,2.78,2.78,0,0,1-.67,2,2.25,2.25,0,0,1-1.68.67h-5.95a1.71,1.71,0,0,0,.46,1.08,2.77,2.77,0,0,0,1,.7,3.6,3.6,0,0,0,1.32.25,8.22,8.22,0,0,0,1-.06,4.43,4.43,0,0,0,.79-.18l.58-.22c.18-.08.34-.14.49-.19a2.41,2.41,0,0,1,.43-.1,1,1,0,0,1,.67.21A1.94,1.94,0,0,1,269,31a1.61,1.61,0,0,1,.24.52,2.14,2.14,0,0,1,.06.5,1.34,1.34,0,0,1-.61,1.09,4.68,4.68,0,0,1-1.72.73A11.06,11.06,0,0,1,264.3,34.15Zm-2.67-7.4h3.95a1,1,0,0,0,.57-.14c.14-.09.2-.27.2-.54a1.23,1.23,0,0,0-.27-.77,1.78,1.78,0,0,0-.74-.54,3.2,3.2,0,0,0-2.44.11,2.36,2.36,0,0,0-.93.8A1.84,1.84,0,0,0,261.63,26.75Z"/><path class="cls-3" d="M120.38,33.84a2.4,2.4,0,0,1-1.32-.28,1.11,1.11,0,0,1-.48-.72,4.14,4.14,0,0,1-.1-.93V18.26a3.85,3.85,0,0,1,.1-.91,1.11,1.11,0,0,1,.5-.71,2.31,2.31,0,0,1,1.32-.28h5.18a6.42,6.42,0,0,1,2.12.38,6,6,0,0,1,2,1.15,5.61,5.61,0,0,1,1.45,1.93,6.17,6.17,0,0,1,.55,2.72,6.68,6.68,0,0,1-.31,2,5.73,5.73,0,0,1-.94,1.8,6,6,0,0,1-1.55,1.4,6.75,6.75,0,0,1-2.13.86H122.3v3.3a3.91,3.91,0,0,1-.1.91,1.15,1.15,0,0,1-.5.71A2.35,2.35,0,0,1,120.38,33.84Zm1.93-9h3.47a2,2,0,0,0,.7-.13,2.21,2.21,0,0,0,.69-.41,2.08,2.08,0,0,0,.51-.73,2.52,2.52,0,0,0,.2-1.07,2.46,2.46,0,0,0-.3-1.25,2.15,2.15,0,0,0-.82-.82,2.54,2.54,0,0,0-1.23-.29h-3.22Zm8.62,8.48a2,2,0,0,1-1.48.54,2.24,2.24,0,0,1-1.15-1l-4.39-6.3,4.27-.55,3.22,4.63a3.39,3.39,0,0,1,.54,1,1,1,0,0,1-.13.8A3.25,3.25,0,0,1,130.93,33.34Z"/><path class="cls-3" d="M140.28,34.07a7.3,7.3,0,0,1-3-.57A5.86,5.86,0,0,1,135.2,32a6.51,6.51,0,0,1-1.2-2.09,7.09,7.09,0,0,1-.4-2.3,6.42,6.42,0,0,1,.86-3.32A6,6,0,0,1,136.82,22a7.11,7.11,0,0,1,3.46-.83,6.27,6.27,0,0,1,2.52.46,5.14,5.14,0,0,1,2.77,2.79,4.54,4.54,0,0,1,.34,1.63,2.89,2.89,0,0,1-.67,2,2.25,2.25,0,0,1-1.69.67h-6a1.77,1.77,0,0,0,.47,1.07,2.69,2.69,0,0,0,1,.7,3.5,3.5,0,0,0,1.33.25,7.94,7.94,0,0,0,1-.06,4.3,4.3,0,0,0,.79-.17c.22-.08.42-.15.59-.23l.49-.19a4.19,4.19,0,0,1,.42-.1,1,1,0,0,1,.68.22A2,2,0,0,1,145,31a1.75,1.75,0,0,1,.24.53,2.07,2.07,0,0,1,.06.5,1.32,1.32,0,0,1-.61,1.08,4.73,4.73,0,0,1-1.73.74A11.47,11.47,0,0,1,140.28,34.07Zm-2.68-7.4h4a1,1,0,0,0,.58-.13.62.62,0,0,0,.2-.54,1.27,1.27,0,0,0-.27-.78,1.76,1.76,0,0,0-.74-.53,2.8,2.8,0,0,0-1.09-.19,3,3,0,0,0-1.35.3,2.38,2.38,0,0,0-.94.8A1.91,1.91,0,0,0,137.6,26.67Z"/><path class="cls-3" d="M154.18,34a6.42,6.42,0,0,1-2.24-.42,6.92,6.92,0,0,1-2.1-1.21,5.8,5.8,0,0,1-1.54-2,6.35,6.35,0,0,1-.57-2.75,6.06,6.06,0,0,1,.58-2.73,6,6,0,0,1,1.52-2,6.87,6.87,0,0,1,2.09-1.21,6.37,6.37,0,0,1,2.21-.41,6.15,6.15,0,0,1,1.67.21,5.6,5.6,0,0,1,1.25.51,3.74,3.74,0,0,1,.73.53,7.16,7.16,0,0,1,.75.65,1.05,1.05,0,0,1,.3.85,1.56,1.56,0,0,1-.17.56,4.48,4.48,0,0,1-.38.59c-.52.7-1,1-1.5.95a2.58,2.58,0,0,1-.69-.25l-.6-.35a5,5,0,0,0-.61-.32,2,2,0,0,0-.75-.13,2.56,2.56,0,0,0-1.3.33,2.61,2.61,0,0,0-.91.9,2.5,2.5,0,0,0-.34,1.32,2.44,2.44,0,0,0,.34,1.29,2.48,2.48,0,0,0,.9.92,2.42,2.42,0,0,0,1.26.34,2.66,2.66,0,0,0,.72-.1,2.59,2.59,0,0,0,.55-.24l.35-.21c.2-.14.39-.26.58-.37a1.12,1.12,0,0,1,.55-.16,1.25,1.25,0,0,1,.74.27,4.28,4.28,0,0,1,.81.83,2.07,2.07,0,0,1,.48,1,1.13,1.13,0,0,1-.21.86,2.56,2.56,0,0,1-.85.76,3.69,3.69,0,0,1-.71.45,6.49,6.49,0,0,1-1.25.5A5.69,5.69,0,0,1,154.18,34Z"/><path class="cls-3" d="M167.13,34.06a6.21,6.21,0,0,1-2.34-.46,7.11,7.11,0,0,1-2.11-1.31,6.41,6.41,0,0,1-1.52-2,6.41,6.41,0,0,1,0-5.15A6.63,6.63,0,0,1,162.53,23a6.75,6.75,0,0,1,2.06-1.41,6,6,0,0,1,2.49-.52,6.24,6.24,0,0,1,3.26.87,6.4,6.4,0,0,1,2.34,2.34,6.71,6.71,0,0,1,.31,6,6.5,6.5,0,0,1-1.5,2,6.57,6.57,0,0,1-2.08,1.29A6.35,6.35,0,0,1,167.13,34.06Zm0-3.77a2.81,2.81,0,0,0,1.22-.3,2.67,2.67,0,0,0,1-.9,2.53,2.53,0,0,0,.43-1.52,2.74,2.74,0,0,0-.35-1.4,2.41,2.41,0,0,0-1-.94,2.83,2.83,0,0,0-1.41-.34,2.6,2.6,0,0,0-1.34.35,2.65,2.65,0,0,0-.95,1,2.7,2.7,0,0,0-.37,1.39,2.61,2.61,0,0,0,.42,1.51,2.47,2.47,0,0,0,1,.9A3,3,0,0,0,167.08,30.29Z"/><path class="cls-3" d="M177.45,33.87a2.48,2.48,0,0,1-1.31-.26,1.11,1.11,0,0,1-.48-.72,4.63,4.63,0,0,1-.08-.92V23.24a4.42,4.42,0,0,1,.09-.92,1.08,1.08,0,0,1,.49-.69,2.54,2.54,0,0,1,1.32-.26,2.52,2.52,0,0,1,1.27.24,1,1,0,0,1,.48.55,1.73,1.73,0,0,1,.1.54l-.3.15a2.39,2.39,0,0,1,.26-.37,4.66,4.66,0,0,1,.59-.55,3.46,3.46,0,0,1,.92-.48,3.34,3.34,0,0,1,1.23-.2,4.45,4.45,0,0,1,.61,0,3,3,0,0,1,.7.15,2.4,2.4,0,0,1,.67.3,1.51,1.51,0,0,1,.48.46,1.13,1.13,0,0,1,.19.67,3.09,3.09,0,0,1-.47,1.74,1.4,1.4,0,0,1-1.21.71,2,2,0,0,1-.59-.06.87.87,0,0,1-.29-.15,1.1,1.1,0,0,0-.26-.15,1.72,1.72,0,0,0-.55-.06,2.46,2.46,0,0,0-.72.1,1.9,1.9,0,0,0-.62.31,1.6,1.6,0,0,0-.45.52,1.53,1.53,0,0,0-.17.72V32a4.46,4.46,0,0,1-.09.91,1,1,0,0,1-.48.69A2.6,2.6,0,0,1,177.45,33.87Z"/><path class="cls-3" d="M187.43,21.58h2.75l3.45-.1a4.29,4.29,0,0,1,.9.09,1.08,1.08,0,0,1,.7.49,2.33,2.33,0,0,1,.28,1.32,2.27,2.27,0,0,1-.27,1.25,1.1,1.1,0,0,1-.69.51,3.36,3.36,0,0,1-.92.12l-3.27-.08-3,0a1.26,1.26,0,0,1-1-.46,2.55,2.55,0,0,1-.29-1.39,2.17,2.17,0,0,1,.35-1.34A1.27,1.27,0,0,1,187.43,21.58Zm5.65,12.3a7.45,7.45,0,0,1-2.2-.28,3.32,3.32,0,0,1-2.39-2.31,6.94,6.94,0,0,1-.29-2.11V19.05a4.15,4.15,0,0,1,.09-.92,1.09,1.09,0,0,1,.48-.67,2.53,2.53,0,0,1,1.31-.26,2.35,2.35,0,0,1,1.29.28,1.1,1.1,0,0,1,.49.71,4.53,4.53,0,0,1,.09.91V29a3,3,0,0,0,.06.66.88.88,0,0,0,.19.39.72.72,0,0,0,.35.17,2.71,2.71,0,0,0,.55.06,4.16,4.16,0,0,1,1,.1,1,1,0,0,1,.66.45A2.13,2.13,0,0,1,195,32a2.39,2.39,0,0,1-.28,1.3,1,1,0,0,1-.71.48A5.41,5.41,0,0,1,193.08,33.88Z"/><path class="cls-3" d="M203.63,34.11a7.14,7.14,0,0,1-3-.58A5.72,5.72,0,0,1,198.55,32a6.51,6.51,0,0,1-1.2-2.09,7.09,7.09,0,0,1-.4-2.3,6.39,6.39,0,0,1,.86-3.32A6,6,0,0,1,200.17,22a7,7,0,0,1,3.46-.83,6.18,6.18,0,0,1,2.51.46,5.12,5.12,0,0,1,2.78,2.79,4.5,4.5,0,0,1,.33,1.62,2.82,2.82,0,0,1-.66,2.05,2.26,2.26,0,0,1-1.69.68h-6a1.78,1.78,0,0,0,.47,1.08,2.81,2.81,0,0,0,1,.7,3.5,3.5,0,0,0,1.33.25,7.94,7.94,0,0,0,1-.06,3.7,3.7,0,0,0,.79-.18,5.66,5.66,0,0,0,.59-.22,4.44,4.44,0,0,1,.49-.19,2.53,2.53,0,0,1,.42-.1,1,1,0,0,1,.68.22,2.11,2.11,0,0,1,.57.71,1.71,1.71,0,0,1,.24.52,2.2,2.2,0,0,1,.06.5A1.34,1.34,0,0,1,208,33.1a4.91,4.91,0,0,1-1.73.74A11.53,11.53,0,0,1,203.63,34.11ZM201,26.71h4a1,1,0,0,0,.58-.14.61.61,0,0,0,.2-.53,1.21,1.21,0,0,0-.28-.78,1.77,1.77,0,0,0-.73-.54,3.27,3.27,0,0,0-2.44.12,2.3,2.3,0,0,0-.94.8A1.91,1.91,0,0,0,201,26.71Z"/><path class="cls-3" d="M222.67,33.9a16.21,16.21,0,0,1-1.82-.1,3.9,3.9,0,0,1-1.35-.4,2.42,2.42,0,0,1-.9-.84,4,4,0,0,1-.52-1.38,10,10,0,0,1-.18-2.06V17.57a3.82,3.82,0,0,1,.1-.92,1.2,1.2,0,0,1,.49-.71,2.35,2.35,0,0,1,1.31-.27,2.24,2.24,0,0,1,1.29.28,1.1,1.1,0,0,1,.48.7,3.82,3.82,0,0,1,.1.92V29a6,6,0,0,0,0,.66,1,1,0,0,0,.15.41.54.54,0,0,0,.32.2,1.86,1.86,0,0,0,.52.05,2.62,2.62,0,0,1,.61.08.89.89,0,0,1,.54.45,2.56,2.56,0,0,1,.23,1.25,2.93,2.93,0,0,1-.23,1.3.89.89,0,0,1-.54.47A2.74,2.74,0,0,1,222.67,33.9Z"/><path class="cls-3" d="M227.91,19.6a2.38,2.38,0,0,1-1.35-.28,1.09,1.09,0,0,1-.49-.72,4.86,4.86,0,0,1-.09-1,4.75,4.75,0,0,1,.09-1,1.07,1.07,0,0,1,.5-.7,2.61,2.61,0,0,1,1.36-.26,2.47,2.47,0,0,1,1.33.27,1.14,1.14,0,0,1,.49.73,5.86,5.86,0,0,1,.08,1,5.64,5.64,0,0,1-.08.93,1.11,1.11,0,0,1-.49.71A2.65,2.65,0,0,1,227.91,19.6Zm0,14.3a2.59,2.59,0,0,1-1.33-.26,1,1,0,0,1-.47-.7A5.43,5.43,0,0,1,226,32V23.3a4.46,4.46,0,0,1,.09-.91,1.06,1.06,0,0,1,.49-.7,2.42,2.42,0,0,1,1.32-.26,2.34,2.34,0,0,1,1.29.27,1.13,1.13,0,0,1,.47.71,4.76,4.76,0,0,1,.09.94v8.7a4.47,4.47,0,0,1-.08.91,1,1,0,0,1-.48.69A2.49,2.49,0,0,1,227.9,33.9Z"/><path class="cls-3" d="M234.27,33.9a2.4,2.4,0,0,1-1.3-.27,1.15,1.15,0,0,1-.48-.71,4.63,4.63,0,0,1-.09-.92V17.63a4.69,4.69,0,0,1,.09-.94A1.06,1.06,0,0,1,233,16a2.59,2.59,0,0,1,1.33-.26,2.15,2.15,0,0,1,1.27.28,1.08,1.08,0,0,1,.45.71,3.88,3.88,0,0,1,.05.91V32.78a1.29,1.29,0,0,1-.52.85A2.34,2.34,0,0,1,234.27,33.9Zm4.85,0a4.41,4.41,0,0,1-2.15-.51A4.53,4.53,0,0,1,235.44,32a6.45,6.45,0,0,1-.93-2,8.5,8.5,0,0,1-.28-2.4,8.66,8.66,0,0,1,.32-2.35,6.31,6.31,0,0,1,.94-2,4.32,4.32,0,0,1,3.64-1.83,4.88,4.88,0,0,1,2.15.5,6.4,6.4,0,0,1,1.84,1.37,6.47,6.47,0,0,1,1.27,2,6,6,0,0,1,.46,2.34,6.27,6.27,0,0,1-.46,2.41,6.7,6.7,0,0,1-1.26,2,6,6,0,0,1-1.83,1.37A5.07,5.07,0,0,1,239.12,33.88Zm-.49-3.7a2.41,2.41,0,0,0,1.25-.33,2.59,2.59,0,0,0,.88-.92,2.39,2.39,0,0,0,.34-1.27,2.64,2.64,0,0,0-.32-1.28,2.4,2.4,0,0,0-.89-.9,2.49,2.49,0,0,0-1.24-.32,2.36,2.36,0,0,0-1.23.33,2.45,2.45,0,0,0-.88.9,2.57,2.57,0,0,0-.31,1.27,2.6,2.6,0,0,0,.32,1.27,2.48,2.48,0,0,0,.88.91A2.18,2.18,0,0,0,238.63,30.18Z"/><path class="cls-3" d="M248.9,33.91a2.36,2.36,0,0,1-1.31-.26,1.07,1.07,0,0,1-.48-.71A4.73,4.73,0,0,1,247,32V23.29a4.52,4.52,0,0,1,.09-.93,1,1,0,0,1,.49-.68,2.41,2.41,0,0,1,1.32-.27,2.5,2.5,0,0,1,1.26.24,1.06,1.06,0,0,1,.49.55,1.73,1.73,0,0,1,.1.54l-.3.15a2,2,0,0,1,.26-.36,3.2,3.2,0,0,1,.59-.55,3.4,3.4,0,0,1,.91-.49,3.62,3.62,0,0,1,1.24-.2,4.55,4.55,0,0,1,.61,0,3,3,0,0,1,.7.15,2.54,2.54,0,0,1,.67.3,1.51,1.51,0,0,1,.48.46,1.16,1.16,0,0,1,.19.68,3,3,0,0,1-.48,1.73,1.39,1.39,0,0,1-1.2.72,1.73,1.73,0,0,1-.6-.07.92.92,0,0,1-.28-.15L253.3,25a1.68,1.68,0,0,0-.55-.06,2.39,2.39,0,0,0-.71.1,2.12,2.12,0,0,0-.62.31,1.35,1.35,0,0,0-.45.53,1.49,1.49,0,0,0-.17.71v5.47a4.56,4.56,0,0,1-.09.92,1,1,0,0,1-.49.68A2.56,2.56,0,0,1,248.9,33.91Z"/><path class="cls-3" d="M264.3,34.15a7.25,7.25,0,0,1-3-.58,5.88,5.88,0,0,1-2.07-1.51A6.4,6.4,0,0,1,258,30a6.88,6.88,0,0,1-.4-2.3,6.45,6.45,0,0,1,.85-3.33,6.16,6.16,0,0,1,2.36-2.28,7,7,0,0,1,3.47-.84,6.24,6.24,0,0,1,2.51.47,5.23,5.23,0,0,1,1.75,1.2,4.89,4.89,0,0,1,1,1.59,4.25,4.25,0,0,1,.34,1.62,2.78,2.78,0,0,1-.67,2,2.25,2.25,0,0,1-1.68.67h-5.95a1.71,1.71,0,0,0,.46,1.08,2.77,2.77,0,0,0,1,.7,3.6,3.6,0,0,0,1.32.25,8.22,8.22,0,0,0,1-.06,4.43,4.43,0,0,0,.79-.18l.58-.22c.18-.08.34-.14.49-.19a2.41,2.41,0,0,1,.43-.1,1,1,0,0,1,.67.21A1.94,1.94,0,0,1,269,31a1.61,1.61,0,0,1,.24.52,2.14,2.14,0,0,1,.06.5,1.34,1.34,0,0,1-.61,1.09,4.68,4.68,0,0,1-1.72.73A11.06,11.06,0,0,1,264.3,34.15Zm-2.67-7.4h3.95a1,1,0,0,0,.57-.14c.14-.09.2-.27.2-.54a1.23,1.23,0,0,0-.27-.77,1.78,1.78,0,0,0-.74-.54,3.2,3.2,0,0,0-2.44.11,2.36,2.36,0,0,0-.93.8A1.84,1.84,0,0,0,261.63,26.75Z"/><path class="cls-2" d="M120.38,33.84a2.4,2.4,0,0,1-1.32-.28,1.11,1.11,0,0,1-.48-.72,4.14,4.14,0,0,1-.1-.93V18.26a3.85,3.85,0,0,1,.1-.91,1.11,1.11,0,0,1,.5-.71,2.31,2.31,0,0,1,1.32-.28h5.18a6.42,6.42,0,0,1,2.12.38,6,6,0,0,1,2,1.15,5.61,5.61,0,0,1,1.45,1.93,6.17,6.17,0,0,1,.55,2.72,6.68,6.68,0,0,1-.31,2,5.73,5.73,0,0,1-.94,1.8,6,6,0,0,1-1.55,1.4,6.75,6.75,0,0,1-2.13.86H122.3v3.3a3.91,3.91,0,0,1-.1.91,1.15,1.15,0,0,1-.5.71A2.35,2.35,0,0,1,120.38,33.84Zm1.93-9h3.47a2,2,0,0,0,.7-.13,2.21,2.21,0,0,0,.69-.41,2.08,2.08,0,0,0,.51-.73,2.52,2.52,0,0,0,.2-1.07,2.46,2.46,0,0,0-.3-1.25,2.15,2.15,0,0,0-.82-.82,2.54,2.54,0,0,0-1.23-.29h-3.22Zm8.62,8.48a2,2,0,0,1-1.48.54,2.24,2.24,0,0,1-1.15-1l-4.39-6.3,4.27-.55,3.22,4.63a3.39,3.39,0,0,1,.54,1,1,1,0,0,1-.13.8A3.25,3.25,0,0,1,130.93,33.34Z"/><path class="cls-2" d="M140.28,34.07a7.3,7.3,0,0,1-3-.57A5.86,5.86,0,0,1,135.2,32a6.51,6.51,0,0,1-1.2-2.09,7.09,7.09,0,0,1-.4-2.3,6.42,6.42,0,0,1,.86-3.32A6,6,0,0,1,136.82,22a7.11,7.11,0,0,1,3.46-.83,6.27,6.27,0,0,1,2.52.46,5.14,5.14,0,0,1,2.77,2.79,4.54,4.54,0,0,1,.34,1.63,2.89,2.89,0,0,1-.67,2,2.25,2.25,0,0,1-1.69.67h-6a1.77,1.77,0,0,0,.47,1.07,2.69,2.69,0,0,0,1,.7,3.5,3.5,0,0,0,1.33.25,7.94,7.94,0,0,0,1-.06,4.3,4.3,0,0,0,.79-.17c.22-.08.42-.15.59-.23l.49-.19a4.19,4.19,0,0,1,.42-.1,1,1,0,0,1,.68.22A2,2,0,0,1,145,31a1.75,1.75,0,0,1,.24.53,2.07,2.07,0,0,1,.06.5,1.32,1.32,0,0,1-.61,1.08,4.73,4.73,0,0,1-1.73.74A11.47,11.47,0,0,1,140.28,34.07Zm-2.68-7.4h4a1,1,0,0,0,.58-.13.62.62,0,0,0,.2-.54,1.27,1.27,0,0,0-.27-.78,1.76,1.76,0,0,0-.74-.53,2.8,2.8,0,0,0-1.09-.19,3,3,0,0,0-1.35.3,2.38,2.38,0,0,0-.94.8A1.91,1.91,0,0,0,137.6,26.67Z"/><path class="cls-2" d="M154.18,34a6.42,6.42,0,0,1-2.24-.42,6.92,6.92,0,0,1-2.1-1.21,5.8,5.8,0,0,1-1.54-2,6.35,6.35,0,0,1-.57-2.75,6.06,6.06,0,0,1,.58-2.73,6,6,0,0,1,1.52-2,6.87,6.87,0,0,1,2.09-1.21,6.37,6.37,0,0,1,2.21-.41,6.15,6.15,0,0,1,1.67.21,5.6,5.6,0,0,1,1.25.51,3.74,3.74,0,0,1,.73.53,7.16,7.16,0,0,1,.75.65,1.05,1.05,0,0,1,.3.85,1.56,1.56,0,0,1-.17.56,4.48,4.48,0,0,1-.38.59c-.52.7-1,1-1.5.95a2.58,2.58,0,0,1-.69-.25l-.6-.35a5,5,0,0,0-.61-.32,2,2,0,0,0-.75-.13,2.56,2.56,0,0,0-1.3.33,2.61,2.61,0,0,0-.91.9,2.5,2.5,0,0,0-.34,1.32,2.44,2.44,0,0,0,.34,1.29,2.48,2.48,0,0,0,.9.92,2.42,2.42,0,0,0,1.26.34,2.66,2.66,0,0,0,.72-.1,2.59,2.59,0,0,0,.55-.24l.35-.21c.2-.14.39-.26.58-.37a1.12,1.12,0,0,1,.55-.16,1.25,1.25,0,0,1,.74.27,4.28,4.28,0,0,1,.81.83,2.07,2.07,0,0,1,.48,1,1.13,1.13,0,0,1-.21.86,2.56,2.56,0,0,1-.85.76,3.69,3.69,0,0,1-.71.45,6.49,6.49,0,0,1-1.25.5A5.69,5.69,0,0,1,154.18,34Z"/><path class="cls-2" d="M167.13,34.06a6.21,6.21,0,0,1-2.34-.46,7.11,7.11,0,0,1-2.11-1.31,6.41,6.41,0,0,1-1.52-2,6.41,6.41,0,0,1,0-5.15A6.63,6.63,0,0,1,162.53,23a6.75,6.75,0,0,1,2.06-1.41,6,6,0,0,1,2.49-.52,6.24,6.24,0,0,1,3.26.87,6.4,6.4,0,0,1,2.34,2.34,6.71,6.71,0,0,1,.31,6,6.5,6.5,0,0,1-1.5,2,6.57,6.57,0,0,1-2.08,1.29A6.35,6.35,0,0,1,167.13,34.06Zm0-3.77a2.81,2.81,0,0,0,1.22-.3,2.67,2.67,0,0,0,1-.9,2.53,2.53,0,0,0,.43-1.52,2.74,2.74,0,0,0-.35-1.4,2.41,2.41,0,0,0-1-.94,2.83,2.83,0,0,0-1.41-.34,2.6,2.6,0,0,0-1.34.35,2.65,2.65,0,0,0-.95,1,2.7,2.7,0,0,0-.37,1.39,2.61,2.61,0,0,0,.42,1.51,2.47,2.47,0,0,0,1,.9A3,3,0,0,0,167.08,30.29Z"/><path class="cls-2" d="M177.45,33.87a2.48,2.48,0,0,1-1.31-.26,1.11,1.11,0,0,1-.48-.72,4.63,4.63,0,0,1-.08-.92V23.24a4.42,4.42,0,0,1,.09-.92,1.08,1.08,0,0,1,.49-.69,2.54,2.54,0,0,1,1.32-.26,2.52,2.52,0,0,1,1.27.24,1,1,0,0,1,.48.55,1.73,1.73,0,0,1,.1.54l-.3.15a2.39,2.39,0,0,1,.26-.37,4.66,4.66,0,0,1,.59-.55,3.46,3.46,0,0,1,.92-.48,3.34,3.34,0,0,1,1.23-.2,4.45,4.45,0,0,1,.61,0,3,3,0,0,1,.7.15,2.4,2.4,0,0,1,.67.3,1.51,1.51,0,0,1,.48.46,1.13,1.13,0,0,1,.19.67,3.09,3.09,0,0,1-.47,1.74,1.4,1.4,0,0,1-1.21.71,2,2,0,0,1-.59-.06.87.87,0,0,1-.29-.15,1.1,1.1,0,0,0-.26-.15,1.72,1.72,0,0,0-.55-.06,2.46,2.46,0,0,0-.72.1,1.9,1.9,0,0,0-.62.31,1.6,1.6,0,0,0-.45.52,1.53,1.53,0,0,0-.17.72V32a4.46,4.46,0,0,1-.09.91,1,1,0,0,1-.48.69A2.6,2.6,0,0,1,177.45,33.87Z"/><path class="cls-2" d="M187.43,21.58h2.75l3.45-.1a4.29,4.29,0,0,1,.9.09,1.08,1.08,0,0,1,.7.49,2.33,2.33,0,0,1,.28,1.32,2.27,2.27,0,0,1-.27,1.25,1.1,1.1,0,0,1-.69.51,3.36,3.36,0,0,1-.92.12l-3.27-.08-3,0a1.26,1.26,0,0,1-1-.46,2.55,2.55,0,0,1-.29-1.39,2.17,2.17,0,0,1,.35-1.34A1.27,1.27,0,0,1,187.43,21.58Zm5.65,12.3a7.45,7.45,0,0,1-2.2-.28,3.32,3.32,0,0,1-2.39-2.31,6.94,6.94,0,0,1-.29-2.11V19.05a4.15,4.15,0,0,1,.09-.92,1.09,1.09,0,0,1,.48-.67,2.53,2.53,0,0,1,1.31-.26,2.35,2.35,0,0,1,1.29.28,1.1,1.1,0,0,1,.49.71,4.53,4.53,0,0,1,.09.91V29a3,3,0,0,0,.06.66.88.88,0,0,0,.19.39.72.72,0,0,0,.35.17,2.71,2.71,0,0,0,.55.06,4.16,4.16,0,0,1,1,.1,1,1,0,0,1,.66.45A2.13,2.13,0,0,1,195,32a2.39,2.39,0,0,1-.28,1.3,1,1,0,0,1-.71.48A5.41,5.41,0,0,1,193.08,33.88Z"/><path class="cls-2" d="M203.63,34.11a7.14,7.14,0,0,1-3-.58A5.72,5.72,0,0,1,198.55,32a6.51,6.51,0,0,1-1.2-2.09,7.09,7.09,0,0,1-.4-2.3,6.39,6.39,0,0,1,.86-3.32A6,6,0,0,1,200.17,22a7,7,0,0,1,3.46-.83,6.18,6.18,0,0,1,2.51.46,5.12,5.12,0,0,1,2.78,2.79,4.5,4.5,0,0,1,.33,1.62,2.82,2.82,0,0,1-.66,2.05,2.26,2.26,0,0,1-1.69.68h-6a1.78,1.78,0,0,0,.47,1.08,2.81,2.81,0,0,0,1,.7,3.5,3.5,0,0,0,1.33.25,7.94,7.94,0,0,0,1-.06,3.7,3.7,0,0,0,.79-.18,5.66,5.66,0,0,0,.59-.22,4.44,4.44,0,0,1,.49-.19,2.53,2.53,0,0,1,.42-.1,1,1,0,0,1,.68.22,2.11,2.11,0,0,1,.57.71,1.71,1.71,0,0,1,.24.52,2.2,2.2,0,0,1,.06.5A1.34,1.34,0,0,1,208,33.1a4.91,4.91,0,0,1-1.73.74A11.53,11.53,0,0,1,203.63,34.11ZM201,26.71h4a1,1,0,0,0,.58-.14.61.61,0,0,0,.2-.53,1.21,1.21,0,0,0-.28-.78,1.77,1.77,0,0,0-.73-.54,3.27,3.27,0,0,0-2.44.12,2.3,2.3,0,0,0-.94.8A1.91,1.91,0,0,0,201,26.71Z"/><path class="cls-2" d="M222.67,33.9a16.21,16.21,0,0,1-1.82-.1,3.9,3.9,0,0,1-1.35-.4,2.42,2.42,0,0,1-.9-.84,4,4,0,0,1-.52-1.38,10,10,0,0,1-.18-2.06V17.57a3.82,3.82,0,0,1,.1-.92,1.2,1.2,0,0,1,.49-.71,2.35,2.35,0,0,1,1.31-.27,2.24,2.24,0,0,1,1.29.28,1.1,1.1,0,0,1,.48.7,3.82,3.82,0,0,1,.1.92V29a6,6,0,0,0,0,.66,1,1,0,0,0,.15.41.54.54,0,0,0,.32.2,1.86,1.86,0,0,0,.52.05,2.62,2.62,0,0,1,.61.08.89.89,0,0,1,.54.45,2.56,2.56,0,0,1,.23,1.25,2.93,2.93,0,0,1-.23,1.3.89.89,0,0,1-.54.47A2.74,2.74,0,0,1,222.67,33.9Z"/><path class="cls-2" d="M227.91,19.6a2.38,2.38,0,0,1-1.35-.28,1.09,1.09,0,0,1-.49-.72,4.86,4.86,0,0,1-.09-1,4.75,4.75,0,0,1,.09-1,1.07,1.07,0,0,1,.5-.7,2.61,2.61,0,0,1,1.36-.26,2.47,2.47,0,0,1,1.33.27,1.14,1.14,0,0,1,.49.73,5.86,5.86,0,0,1,.08,1,5.64,5.64,0,0,1-.08.93,1.11,1.11,0,0,1-.49.71A2.65,2.65,0,0,1,227.91,19.6Zm0,14.3a2.59,2.59,0,0,1-1.33-.26,1,1,0,0,1-.47-.7A5.43,5.43,0,0,1,226,32V23.3a4.46,4.46,0,0,1,.09-.91,1.06,1.06,0,0,1,.49-.7,2.42,2.42,0,0,1,1.32-.26,2.34,2.34,0,0,1,1.29.27,1.13,1.13,0,0,1,.47.71,4.76,4.76,0,0,1,.09.94v8.7a4.47,4.47,0,0,1-.08.91,1,1,0,0,1-.48.69A2.49,2.49,0,0,1,227.9,33.9Z"/><path class="cls-2" d="M234.27,33.9a2.4,2.4,0,0,1-1.3-.27,1.15,1.15,0,0,1-.48-.71,4.63,4.63,0,0,1-.09-.92V17.63a4.69,4.69,0,0,1,.09-.94A1.06,1.06,0,0,1,233,16a2.59,2.59,0,0,1,1.33-.26,2.15,2.15,0,0,1,1.27.28,1.08,1.08,0,0,1,.45.71,3.88,3.88,0,0,1,.05.91V32.78a1.29,1.29,0,0,1-.52.85A2.34,2.34,0,0,1,234.27,33.9Zm4.85,0a4.41,4.41,0,0,1-2.15-.51A4.53,4.53,0,0,1,235.44,32a6.45,6.45,0,0,1-.93-2,8.5,8.5,0,0,1-.28-2.4,8.66,8.66,0,0,1,.32-2.35,6.31,6.31,0,0,1,.94-2,4.32,4.32,0,0,1,3.64-1.83,4.88,4.88,0,0,1,2.15.5,6.4,6.4,0,0,1,1.84,1.37,6.47,6.47,0,0,1,1.27,2,6,6,0,0,1,.46,2.34,6.27,6.27,0,0,1-.46,2.41,6.7,6.7,0,0,1-1.26,2,6,6,0,0,1-1.83,1.37A5.07,5.07,0,0,1,239.12,33.88Zm-.49-3.7a2.41,2.41,0,0,0,1.25-.33,2.59,2.59,0,0,0,.88-.92,2.39,2.39,0,0,0,.34-1.27,2.64,2.64,0,0,0-.32-1.28,2.4,2.4,0,0,0-.89-.9,2.49,2.49,0,0,0-1.24-.32,2.36,2.36,0,0,0-1.23.33,2.45,2.45,0,0,0-.88.9,2.57,2.57,0,0,0-.31,1.27,2.6,2.6,0,0,0,.32,1.27,2.48,2.48,0,0,0,.88.91A2.18,2.18,0,0,0,238.63,30.18Z"/><path class="cls-2" d="M248.9,33.91a2.36,2.36,0,0,1-1.31-.26,1.07,1.07,0,0,1-.48-.71A4.73,4.73,0,0,1,247,32V23.29a4.52,4.52,0,0,1,.09-.93,1,1,0,0,1,.49-.68,2.41,2.41,0,0,1,1.32-.27,2.5,2.5,0,0,1,1.26.24,1.06,1.06,0,0,1,.49.55,1.73,1.73,0,0,1,.1.54l-.3.15a2,2,0,0,1,.26-.36,3.2,3.2,0,0,1,.59-.55,3.4,3.4,0,0,1,.91-.49,3.62,3.62,0,0,1,1.24-.2,4.55,4.55,0,0,1,.61,0,3,3,0,0,1,.7.15,2.54,2.54,0,0,1,.67.3,1.51,1.51,0,0,1,.48.46,1.16,1.16,0,0,1,.19.68,3,3,0,0,1-.48,1.73,1.39,1.39,0,0,1-1.2.72,1.73,1.73,0,0,1-.6-.07.92.92,0,0,1-.28-.15L253.3,25a1.68,1.68,0,0,0-.55-.06,2.39,2.39,0,0,0-.71.1,2.12,2.12,0,0,0-.62.31,1.35,1.35,0,0,0-.45.53,1.49,1.49,0,0,0-.17.71v5.47a4.56,4.56,0,0,1-.09.92,1,1,0,0,1-.49.68A2.56,2.56,0,0,1,248.9,33.91Z"/><path class="cls-2" d="M264.3,34.15a7.25,7.25,0,0,1-3-.58,5.88,5.88,0,0,1-2.07-1.51A6.4,6.4,0,0,1,258,30a6.88,6.88,0,0,1-.4-2.3,6.45,6.45,0,0,1,.85-3.33,6.16,6.16,0,0,1,2.36-2.28,7,7,0,0,1,3.47-.84,6.24,6.24,0,0,1,2.51.47,5.23,5.23,0,0,1,1.75,1.2,4.89,4.89,0,0,1,1,1.59,4.25,4.25,0,0,1,.34,1.62,2.78,2.78,0,0,1-.67,2,2.25,2.25,0,0,1-1.68.67h-5.95a1.71,1.71,0,0,0,.46,1.08,2.77,2.77,0,0,0,1,.7,3.6,3.6,0,0,0,1.32.25,8.22,8.22,0,0,0,1-.06,4.43,4.43,0,0,0,.79-.18l.58-.22c.18-.08.34-.14.49-.19a2.41,2.41,0,0,1,.43-.1,1,1,0,0,1,.67.21A1.94,1.94,0,0,1,269,31a1.61,1.61,0,0,1,.24.52,2.14,2.14,0,0,1,.06.5,1.34,1.34,0,0,1-.61,1.09,4.68,4.68,0,0,1-1.72.73A11.06,11.06,0,0,1,264.3,34.15Zm-2.67-7.4h3.95a1,1,0,0,0,.57-.14c.14-.09.2-.27.2-.54a1.23,1.23,0,0,0-.27-.77,1.78,1.78,0,0,0-.74-.54,3.2,3.2,0,0,0-2.44.11,2.36,2.36,0,0,0-.93.8A1.84,1.84,0,0,0,261.63,26.75Z"/><path class="cls-4" d="M55.11,31.08h4.52q3.42,0,3.42,4A4,4,0,0,1,62,38.2a6,6,0,0,1-3.85.95h-11a6.9,6.9,0,0,1-3.89-.78c-.69-.52-1-1.63-1-3.34a5.64,5.64,0,0,1,.16-1.45,3.5,3.5,0,0,1,.61-1.2,5.45,5.45,0,0,1,1.23-1.13c1.47-1,2.62-1.82,3.46-2.44s1.67-1.26,2.47-1.95a13.25,13.25,0,0,0,1.77-1.76,10.41,10.41,0,0,0,1-1.66,6.12,6.12,0,0,0,.62-1.85,15.39,15.39,0,0,0,.14-2.19c0-1.56-.47-2.35-1.42-2.35s-1.55.93-1.55,2.77a2,2,0,0,1-1,2,7.06,7.06,0,0,1-2.9.46c-1.73,0-2.91-.39-3.52-1.17a6.48,6.48,0,0,1-.91-3.91,5.48,5.48,0,0,1,2.51-4.56,11.74,11.74,0,0,1,7-1.82q11.07,0,11.07,8.69a14.05,14.05,0,0,1-.45,3.68A11.24,11.24,0,0,1,61.38,26a8.79,8.79,0,0,1-1.77,2.12,17.42,17.42,0,0,1-2.1,1.64A24.42,24.42,0,0,1,55.11,31.08Z"/><path class="cls-4" d="M65.74,36a2.72,2.72,0,0,1,1.16-2.3,5.31,5.31,0,0,1,3.28-.89c3,0,4.44,1.07,4.44,3.19a3.11,3.11,0,0,1-.57,2,2.83,2.83,0,0,1-1.51,1,9.77,9.77,0,0,1-2.37.25A6,6,0,0,1,67,38.43,2.6,2.6,0,0,1,65.74,36Z"/><path class="cls-4" d="M90.55,38.85A4.23,4.23,0,0,1,87,37.49c-.73-.91-1.1-2.5-1.09-4.77H78.41a5.28,5.28,0,0,1-3.93-1.3,4.57,4.57,0,0,1-1.28-3.36,7.2,7.2,0,0,1,1.1-3.95Q77.2,19.45,80.83,14a6.64,6.64,0,0,1,5.83-3.19l3.54,0c2,0,3.33.34,4,1a4.92,4.92,0,0,1,1.05,3.59V26.59a3.64,3.64,0,0,1,2.4.88,3.26,3.26,0,0,1,.66,2.27,2.88,2.88,0,0,1-.7,2.2,4.07,4.07,0,0,1-2.36.74c0,2.21-.4,3.79-1.19,4.74A4.34,4.34,0,0,1,90.55,38.85ZM85.91,26.76l.13-9-5.47,9Z"/><path class="cls-5" d="M55.11,31.08h4.52q3.42,0,3.42,4A4,4,0,0,1,62,38.2a6,6,0,0,1-3.85.95h-11a6.9,6.9,0,0,1-3.89-.78c-.69-.52-1-1.63-1-3.34a5.64,5.64,0,0,1,.16-1.45,3.5,3.5,0,0,1,.61-1.2,5.45,5.45,0,0,1,1.23-1.13c1.47-1,2.62-1.82,3.46-2.44s1.67-1.26,2.47-1.95a13.25,13.25,0,0,0,1.77-1.76,10.41,10.41,0,0,0,1-1.66,6.12,6.12,0,0,0,.62-1.85,15.39,15.39,0,0,0,.14-2.19c0-1.56-.47-2.35-1.42-2.35s-1.55.93-1.55,2.77a2,2,0,0,1-1,2,7.06,7.06,0,0,1-2.9.46c-1.73,0-2.91-.39-3.52-1.17a6.48,6.48,0,0,1-.91-3.91,5.48,5.48,0,0,1,2.51-4.56,11.74,11.74,0,0,1,7-1.82q11.07,0,11.07,8.69a14.05,14.05,0,0,1-.45,3.68A11.24,11.24,0,0,1,61.38,26a8.79,8.79,0,0,1-1.77,2.12,17.42,17.42,0,0,1-2.1,1.64A24.42,24.42,0,0,1,55.11,31.08Z"/><path class="cls-5" d="M65.74,36a2.72,2.72,0,0,1,1.16-2.3,5.31,5.31,0,0,1,3.28-.89c3,0,4.44,1.07,4.44,3.19a3.11,3.11,0,0,1-.57,2,2.83,2.83,0,0,1-1.51,1,9.77,9.77,0,0,1-2.37.25A6,6,0,0,1,67,38.43,2.6,2.6,0,0,1,65.74,36Z"/><path class="cls-5" d="M90.55,38.85A4.23,4.23,0,0,1,87,37.49c-.73-.91-1.1-2.5-1.09-4.77H78.41a5.28,5.28,0,0,1-3.93-1.3,4.57,4.57,0,0,1-1.28-3.36,7.2,7.2,0,0,1,1.1-3.95Q77.2,19.45,80.83,14a6.64,6.64,0,0,1,5.83-3.19l3.54,0c2,0,3.33.34,4,1a4.92,4.92,0,0,1,1.05,3.59V26.59a3.64,3.64,0,0,1,2.4.88,3.26,3.26,0,0,1,.66,2.27,2.88,2.88,0,0,1-.7,2.2,4.07,4.07,0,0,1-2.36.74c0,2.21-.4,3.79-1.19,4.74A4.34,4.34,0,0,1,90.55,38.85ZM85.91,26.76l.13-9-5.47,9Z"/></g></g></svg>