<svg xmlns="http://www.w3.org/2000/svg" viewBox="0 0 399.98 90.09"><defs><style>.cls-1{fill:#512573;}.cls-2{fill:#fff;}.cls-3,.cls-4{fill:none;stroke-width:5px;}.cls-3{stroke:#ff7300;stroke-linejoin:round;}.cls-4{stroke:#fff;}.cls-5{fill:#ff7300;}</style></defs><title>24tv</title><g id="Layer_2" data-name="Layer 2"><g id="pestaña_identificativa" data-name="pestaña identificativa"><rect class="cls-1" width="399.98" height="90.09" rx="32.4"/><path class="cls-2" d="M114.16,16.48a3.87,3.87,0,0,1,.79.07.9.9,0,0,1,.59.43,2.19,2.19,0,0,1,.22,1.15,2.14,2.14,0,0,1-.22,1.12.93.93,0,0,1-.6.43,4.11,4.11,0,0,1-.8.07h-4V32.12a4.29,4.29,0,0,1-.09.9,1.08,1.08,0,0,1-.48.69,2.55,2.55,0,0,1-1.34.26,2.43,2.43,0,0,1-1.27-.26,1.08,1.08,0,0,1-.49-.7,4.53,4.53,0,0,1-.08-.91V19.75h-4a3.94,3.94,0,0,1-.77-.08,1,1,0,0,1-.61-.43,2,2,0,0,1-.24-1.14,2,2,0,0,1,.24-1.12.93.93,0,0,1,.61-.43,3.94,3.94,0,0,1,.77-.07Z"/><path class="cls-2" d="M119.73,34a2.48,2.48,0,0,1-1.31-.26,1.11,1.11,0,0,1-.48-.72,4.7,4.7,0,0,1-.08-.92V23.35a4.42,4.42,0,0,1,.09-.92,1.06,1.06,0,0,1,.49-.69,2.52,2.52,0,0,1,1.32-.26,2.45,2.45,0,0,1,1.26.24,1,1,0,0,1,.49.55,1.68,1.68,0,0,1,.1.53l-.3.15a3.22,3.22,0,0,1,.26-.36,3.47,3.47,0,0,1,1.5-1,3.43,3.43,0,0,1,1.24-.2l.61,0a4.62,4.62,0,0,1,.7.15,3.16,3.16,0,0,1,.67.3,1.54,1.54,0,0,1,.48.47A1.13,1.13,0,0,1,127,23a3,3,0,0,1-.48,1.74,1.4,1.4,0,0,1-1.2.71,2.11,2.11,0,0,1-.6-.06.92.92,0,0,1-.28-.15,1.17,1.17,0,0,0-.27-.15,1.68,1.68,0,0,0-.55-.06,2.39,2.39,0,0,0-.71.1,1.9,1.9,0,0,0-.62.31,1.41,1.41,0,0,0-.45.52,1.52,1.52,0,0,0-.17.71v5.48a4.46,4.46,0,0,1-.09.91,1,1,0,0,1-.49.69A2.53,2.53,0,0,1,119.73,34Z"/><path class="cls-2" d="M139.13,34a2.34,2.34,0,0,1-1.38-.33.89.89,0,0,1-.42-.8l.25-.43A2.79,2.79,0,0,1,137,33a4.39,4.39,0,0,1-1.11.65,4.34,4.34,0,0,1-1.66.28,5,5,0,0,1-2.19-.5,6,6,0,0,1-1.84-1.39,7.21,7.21,0,0,1-1.27-2,6.16,6.16,0,0,1-.47-2.38,6,6,0,0,1,.47-2.33,6.9,6.9,0,0,1,1.29-2A6.51,6.51,0,0,1,132.06,22a4.94,4.94,0,0,1,2.18-.5,4.09,4.09,0,0,1,1.57.27,4.32,4.32,0,0,1,1.09.61,3.43,3.43,0,0,1,.66.67l-.22-.35a1,1,0,0,1,.43-.91,2.44,2.44,0,0,1,1.39-.31,2.24,2.24,0,0,1,1.29.28,1.07,1.07,0,0,1,.47.72,4.86,4.86,0,0,1,.09,1v8.63a4.7,4.7,0,0,1-.09.92,1.07,1.07,0,0,1-.48.71A2.37,2.37,0,0,1,139.13,34Zm-4.37-3.73a2.13,2.13,0,0,0,1.2-.34,2.57,2.57,0,0,0,.85-.91,2.61,2.61,0,0,0,.32-1.28,2.46,2.46,0,0,0-.32-1.28,2.42,2.42,0,0,0-.88-.89,2.3,2.3,0,0,0-1.22-.33,2.33,2.33,0,0,0-1.26.34,2.53,2.53,0,0,0-1.24,2.21,2.42,2.42,0,0,0,.33,1.24,2.67,2.67,0,0,0,.93.9A2.59,2.59,0,0,0,134.76,30.24Z"/><path class="cls-2" d="M144.88,34a1.79,1.79,0,0,1-1.31-.53,1.82,1.82,0,0,1-.54-1.34,2.06,2.06,0,0,1,.14-.73,1.81,1.81,0,0,1,.41-.62l5.68-5.5h-3.8a3.85,3.85,0,0,1-.91-.1,1.22,1.22,0,0,1-.73-.49,2.28,2.28,0,0,1-.29-1.31,2.24,2.24,0,0,1,.29-1.31,1.21,1.21,0,0,1,.73-.48,4.46,4.46,0,0,1,.91-.09h7.83a1.78,1.78,0,0,1,1.84,1.85,2.13,2.13,0,0,1-.13.76,1.45,1.45,0,0,1-.39.59l-5.55,5.52h4.52a4.57,4.57,0,0,1,.93.1,1.13,1.13,0,0,1,.68.5,2.49,2.49,0,0,1,.26,1.33,2.4,2.4,0,0,1-.27,1.3,1,1,0,0,1-.7.47,5.28,5.28,0,0,1-.93.08Z"/><path class="cls-2" d="M167.7,34a2.41,2.41,0,0,1-1.37-.32.93.93,0,0,1-.43-.8l.25-.43a2.72,2.72,0,0,1-.57.61,4,4,0,0,1-1.11.65,4.38,4.38,0,0,1-1.67.29,5,5,0,0,1-2.18-.5,6,6,0,0,1-1.84-1.39,7,7,0,0,1-1.27-2A6,6,0,0,1,157,27.7a5.87,5.87,0,0,1,.48-2.34,6.72,6.72,0,0,1,1.29-2A6.07,6.07,0,0,1,160.64,22a4.9,4.9,0,0,1,2.17-.5,4.35,4.35,0,0,1,1.58.26,4.26,4.26,0,0,1,1.08.62,3,3,0,0,1,.66.67l-.22-.35a1.05,1.05,0,0,1,.44-.91,2.4,2.4,0,0,1,1.39-.31,2.28,2.28,0,0,1,1.28.27,1.16,1.16,0,0,1,.48.73,4.86,4.86,0,0,1,.09.95v8.62a4.73,4.73,0,0,1-.09.93,1.06,1.06,0,0,1-.47.71A2.42,2.42,0,0,1,167.7,34Zm-4.37-3.73a2.13,2.13,0,0,0,1.2-.33,2.66,2.66,0,0,0,.85-.91,2.67,2.67,0,0,0,0-2.57,2.45,2.45,0,0,0-3.36-.87,2.61,2.61,0,0,0-.9.91,2.54,2.54,0,0,0-.34,1.3,2.34,2.34,0,0,0,.34,1.24,2.56,2.56,0,0,0,.92.9A2.61,2.61,0,0,0,163.33,30.25Z"/><path class="cls-2" d="M184.8,34.24a7.28,7.28,0,0,1-3-.57,5.86,5.86,0,0,1-2.06-1.52,6.51,6.51,0,0,1-1.2-2.09,6.83,6.83,0,0,1-.4-2.3,6.51,6.51,0,0,1,.85-3.32,6.14,6.14,0,0,1,2.37-2.29,7.11,7.11,0,0,1,3.46-.83,6.18,6.18,0,0,1,2.51.46,5.23,5.23,0,0,1,1.75,1.2,5.1,5.1,0,0,1,1,1.59,4.51,4.51,0,0,1,.33,1.63,2.84,2.84,0,0,1-.66,2.05,2.27,2.27,0,0,1-1.69.67h-6a1.76,1.76,0,0,0,.46,1.07,2.73,2.73,0,0,0,1,.7,3.48,3.48,0,0,0,1.32.25,8.1,8.1,0,0,0,1-.06,4.49,4.49,0,0,0,.79-.17l.59-.23c.17-.07.33-.14.49-.19a2.53,2.53,0,0,1,.42-.1,1,1,0,0,1,.67.22,2,2,0,0,1,.58.71,1.65,1.65,0,0,1,.24.53,2.07,2.07,0,0,1,.06.5,1.36,1.36,0,0,1-.61,1.08,4.73,4.73,0,0,1-1.73.74A11.56,11.56,0,0,1,184.8,34.24Zm-2.67-7.4h4a1.06,1.06,0,0,0,.58-.13.63.63,0,0,0,.2-.54,1.23,1.23,0,0,0-.28-.78,1.73,1.73,0,0,0-.73-.53,2.8,2.8,0,0,0-1.09-.19,3,3,0,0,0-1.35.3,2.38,2.38,0,0,0-.94.8A1.91,1.91,0,0,0,182.13,26.84Z"/><path class="cls-2" d="M197.33,34a16.22,16.22,0,0,1-1.83-.11,3.7,3.7,0,0,1-1.35-.4,2.64,2.64,0,0,1-.9-.83,4.19,4.19,0,0,1-.52-1.38,10.11,10.11,0,0,1-.17-2.06V17.7a4.49,4.49,0,0,1,.1-.93,1.21,1.21,0,0,1,.49-.7,2.39,2.39,0,0,1,1.31-.27,2.34,2.34,0,0,1,1.29.27,1.21,1.21,0,0,1,.49.7,4.57,4.57,0,0,1,.1.93V29.07a4.22,4.22,0,0,0,0,.67.8.8,0,0,0,.15.41.51.51,0,0,0,.31.2,2.44,2.44,0,0,0,.53,0,2.69,2.69,0,0,1,.61.08.89.89,0,0,1,.54.45,2.68,2.68,0,0,1,.22,1.25,2.79,2.79,0,0,1-.23,1.3A.91.91,0,0,1,198,34,2.8,2.8,0,0,1,197.33,34Z"/><path class="cls-2" d="M209,34a2.39,2.39,0,0,1-1.31-.27,1,1,0,0,1-.47-.7,4.46,4.46,0,0,1-.09-.91v-8.8a4.19,4.19,0,0,1,.09-.89,1,1,0,0,1,.49-.66,2.6,2.6,0,0,1,1.33-.25,2.35,2.35,0,0,1,1.17.22,1,1,0,0,1,.49.51,1.73,1.73,0,0,1,.11.56.91.91,0,0,0,.05.36l-.15.48a1.39,1.39,0,0,1,.39-.76,3.32,3.32,0,0,1,.85-.7,4.73,4.73,0,0,1,1.1-.49,3.63,3.63,0,0,1,1.16-.17,5,5,0,0,1,2.14.43,4.42,4.42,0,0,1,1.58,1.27,5.56,5.56,0,0,1,1,1.94,8.16,8.16,0,0,1,.34,2.43v4.55a5.52,5.52,0,0,1-.08.92,1,1,0,0,1-.48.68,2.57,2.57,0,0,1-1.34.25,2.54,2.54,0,0,1-1.32-.26,1.08,1.08,0,0,1-.49-.7,4.53,4.53,0,0,1-.09-.91V27.61a2.74,2.74,0,0,0-.27-1.27,1.8,1.8,0,0,0-.74-.8,2.39,2.39,0,0,0-1.22-.28,2.48,2.48,0,0,0-1.25.29,2,2,0,0,0-.81.81,2.59,2.59,0,0,0-.29,1.25v4.55a4.46,4.46,0,0,1-.09.91,1.08,1.08,0,0,1-.47.69A2.64,2.64,0,0,1,209,34Z"/><path class="cls-2" d="M227,34a5.25,5.25,0,0,1-2.18-.45,5.46,5.46,0,0,1-1.75-1.27,5.8,5.8,0,0,1-1.16-1.92,7.1,7.1,0,0,1-.41-2.44V23.41a4.42,4.42,0,0,1,.09-.92,1.1,1.1,0,0,1,.49-.7,2.47,2.47,0,0,1,1.33-.27,2.39,2.39,0,0,1,1.31.27,1.13,1.13,0,0,1,.47.71,4.76,4.76,0,0,1,.09.94v4.5a2.73,2.73,0,0,0,.26,1.26,1.8,1.8,0,0,0,.77.82,2.57,2.57,0,0,0,1.21.27,2.5,2.5,0,0,0,1.24-.28,2,2,0,0,0,.8-.82,2.57,2.57,0,0,0,.29-1.25V23.39a4.42,4.42,0,0,1,.09-.92,1.08,1.08,0,0,1,.49-.69,2.57,2.57,0,0,1,1.32-.26,2.31,2.31,0,0,1,1.32.28,1.1,1.1,0,0,1,.47.71,4.53,4.53,0,0,1,.09.91v8.8a5,5,0,0,1-.08.89,1,1,0,0,1-.49.66,2.52,2.52,0,0,1-1.3.25,2.92,2.92,0,0,1-1.05-.15,1.25,1.25,0,0,1-.55-.38A.91.91,0,0,1,230,33a2.57,2.57,0,0,1,0-.45l.32-.28a1.94,1.94,0,0,1-.32.39,5.89,5.89,0,0,1-.66.58,4.26,4.26,0,0,1-1,.53A3.31,3.31,0,0,1,227,34Zm-.39-13.38a.82.82,0,0,1-.74-.25,2.63,2.63,0,0,1-.51-1,2,2,0,0,1-.1-1.3,1.35,1.35,0,0,1,.92-.67l4.4-1.35a.88.88,0,0,1,.73.29,2.53,2.53,0,0,1,.5,1,1.85,1.85,0,0,1,.08,1.27,1.32,1.32,0,0,1-.91.68Z"/><path class="cls-2" d="M238,34.05a2.28,2.28,0,0,1-1.3-.28,1,1,0,0,1-.48-.7,5.29,5.29,0,0,1-.07-.92V23.4a4.29,4.29,0,0,1,.09-.9,1.08,1.08,0,0,1,.49-.69,2.57,2.57,0,0,1,1.32-.26,2.06,2.06,0,0,1,1.35.36,1.47,1.47,0,0,1,.43,1.19l-.33.28a2.46,2.46,0,0,1,.3-.43,4.89,4.89,0,0,1,.65-.62,4.13,4.13,0,0,1,.94-.57,3,3,0,0,1,1.16-.23,4.31,4.31,0,0,1,1.49.24,3.64,3.64,0,0,1,1.2.7,4.38,4.38,0,0,1,.94,1.16,6.28,6.28,0,0,1,.85-1,4.31,4.31,0,0,1,1.18-.8,3.37,3.37,0,0,1,1.52-.33,4.15,4.15,0,0,1,2.49.74,4.56,4.56,0,0,1,1.53,2.11,9.38,9.38,0,0,1,.53,3.33v4.47a3.93,3.93,0,0,1-.1.92,1.14,1.14,0,0,1-.48.7,2.52,2.52,0,0,1-1.32.26,2.33,2.33,0,0,1-1.32-.28,1,1,0,0,1-.48-.71,5.41,5.41,0,0,1-.07-.91V27.68a3.81,3.81,0,0,0-.19-1.29,1.8,1.8,0,0,0-.53-.82,1.41,1.41,0,0,0-.9-.29,1.64,1.64,0,0,0-1,.28,1.69,1.69,0,0,0-.6.79,4,4,0,0,0-.2,1.35v4.48a3.19,3.19,0,0,1-.13.94,1.22,1.22,0,0,1-.53.7,2.52,2.52,0,0,1-1.34.23,2.1,2.1,0,0,1-1.25-.28,1.17,1.17,0,0,1-.45-.73,5.26,5.26,0,0,1-.08-.89V27.68a4.16,4.16,0,0,0-.18-1.3,1.65,1.65,0,0,0-.52-.83,1.49,1.49,0,0,0-.93-.27,1.54,1.54,0,0,0-1,.32,2,2,0,0,0-.59.86,3.86,3.86,0,0,0-.19,1.22v4.5a4.42,4.42,0,0,1-.09.92,1.08,1.08,0,0,1-.49.69A2.54,2.54,0,0,1,238,34.05Z"/><path class="cls-2" d="M262.9,34.29a7.12,7.12,0,0,1-3-.58,5.84,5.84,0,0,1-2.06-1.51,6.43,6.43,0,0,1-1.2-2.09,6.88,6.88,0,0,1-.4-2.3,6.48,6.48,0,0,1,.85-3.32,6.14,6.14,0,0,1,2.37-2.29,7,7,0,0,1,3.46-.84,6.21,6.21,0,0,1,2.51.47,5.23,5.23,0,0,1,1.75,1.2,5.1,5.1,0,0,1,1,1.59,4.46,4.46,0,0,1,.33,1.62,2.82,2.82,0,0,1-.66,2.05,2.28,2.28,0,0,1-1.69.68h-5.95a1.77,1.77,0,0,0,.46,1.08,2.85,2.85,0,0,0,1,.7,3.48,3.48,0,0,0,1.32.25,8.1,8.1,0,0,0,1-.06,3.7,3.7,0,0,0,.79-.18c.22-.07.41-.15.59-.22a4.32,4.32,0,0,1,.48-.19,2.63,2.63,0,0,1,.43-.1,1.06,1.06,0,0,1,.67.21,2.06,2.06,0,0,1,.58.72,2.37,2.37,0,0,1,.24.52,2.2,2.2,0,0,1,.06.5,1.36,1.36,0,0,1-.61,1.09,4.91,4.91,0,0,1-1.73.74A11.56,11.56,0,0,1,262.9,34.29Zm-2.67-7.4h3.95a1.06,1.06,0,0,0,.58-.14.61.61,0,0,0,.2-.53,1.19,1.19,0,0,0-.28-.78,1.84,1.84,0,0,0-.73-.54,3,3,0,0,0-1.09-.19,3,3,0,0,0-1.35.3,2.39,2.39,0,0,0-.94.8A1.87,1.87,0,0,0,260.23,26.89Z"/><path class="cls-2" d="M272.5,34.07a2.48,2.48,0,0,1-1.31-.26,1.11,1.11,0,0,1-.48-.72,5.52,5.52,0,0,1-.08-.92V23.44a4.42,4.42,0,0,1,.09-.92,1.08,1.08,0,0,1,.49-.69,2.57,2.57,0,0,1,1.32-.26,2.52,2.52,0,0,1,1.27.24,1,1,0,0,1,.48.55,1.73,1.73,0,0,1,.1.54l-.3.15a2.73,2.73,0,0,1,.27-.37,3.92,3.92,0,0,1,.58-.55,3.46,3.46,0,0,1,.92-.48,3.34,3.34,0,0,1,1.23-.2,4.7,4.7,0,0,1,.62,0,3.14,3.14,0,0,1,.7.15,2.47,2.47,0,0,1,.66.3,1.66,1.66,0,0,1,.49.46,1.2,1.2,0,0,1,.18.67,3.09,3.09,0,0,1-.47,1.74,1.4,1.4,0,0,1-1.2.71,2,2,0,0,1-.6-.06.87.87,0,0,1-.29-.15,1.1,1.1,0,0,0-.26-.15,1.72,1.72,0,0,0-.55-.06,2.46,2.46,0,0,0-.72.1,1.9,1.9,0,0,0-.62.31,1.6,1.6,0,0,0-.45.52,1.53,1.53,0,0,0-.16.72v5.47a4.46,4.46,0,0,1-.09.91,1,1,0,0,1-.48.69A2.6,2.6,0,0,1,272.5,34.07Z"/><path class="cls-2" d="M287.7,34.28a6.49,6.49,0,0,1-2.34-.46,7.06,7.06,0,0,1-2.11-1.32,6.42,6.42,0,0,1-1.51-2,6.41,6.41,0,0,1,0-5.15,6.78,6.78,0,0,1,3.47-3.47,6.16,6.16,0,0,1,2.49-.51,6.33,6.33,0,0,1,3.26.86,6.64,6.64,0,0,1,2.34,2.34,6.71,6.71,0,0,1,.31,6A6.5,6.5,0,0,1,290,33.84,6.38,6.38,0,0,1,287.7,34.28Zm-.05-3.78a2.85,2.85,0,0,0,1.23-.3,2.54,2.54,0,0,0,1.48-2.42,2.77,2.77,0,0,0-.35-1.4,2.58,2.58,0,0,0-1-.94,2.88,2.88,0,0,0-1.41-.34,2.63,2.63,0,0,0-1.34.35,2.85,2.85,0,0,0-1,1A2.66,2.66,0,0,0,285,27.8a2.71,2.71,0,0,0,.41,1.52,2.64,2.64,0,0,0,1,.9A2.92,2.92,0,0,0,287.65,30.5Z"/><path class="cls-2" d="M305.31,23.41A2.1,2.1,0,0,1,304,24a1.91,1.91,0,0,1-1.25-.74,1.9,1.9,0,0,1-.63-1.38,2.23,2.23,0,0,1,.88-1.37l3.73-3.3a1.72,1.72,0,0,1,1.28-.57,2,2,0,0,1,1.24.77,1.74,1.74,0,0,1,.61,1.34,2.28,2.28,0,0,1-.88,1.36Zm3.14,10.73a2,2,0,0,1-1.44-.42,2.15,2.15,0,0,1-.41-1.48V18.49A2.05,2.05,0,0,1,307,17a2.05,2.05,0,0,1,1.47-.41A2,2,0,0,1,310,17a2.19,2.19,0,0,1,.41,1.5V32.27a2.05,2.05,0,0,1-.41,1.46A2.08,2.08,0,0,1,308.45,34.14Z"/><path class="cls-2" d="M318.85,34.35a7.08,7.08,0,0,1-2.51-.44,7,7,0,0,1-2.06-1.19A5.7,5.7,0,0,1,312.87,31a4.45,4.45,0,0,1-.54-2c0-.9.69-1.35,2.08-1.34a2.7,2.7,0,0,1,.91.11.86.86,0,0,1,.48.4,4.47,4.47,0,0,1,.38.81,2.26,2.26,0,0,0,.37.65,2.64,2.64,0,0,0,.85.71,3,3,0,0,0,1.48.32,3.77,3.77,0,0,0,1.46-.26,2.22,2.22,0,0,0,1-.73,1.82,1.82,0,0,0,0-2.12,2.15,2.15,0,0,0-.9-.68,3.21,3.21,0,0,0-1.28-.24,5.9,5.9,0,0,1-1-.07,1.08,1.08,0,0,1-.71-.45,2.28,2.28,0,0,1-.27-1.28,2.3,2.3,0,0,1,.27-1.31,1.13,1.13,0,0,1,.73-.43,7.32,7.32,0,0,1,1-.06,3.64,3.64,0,0,0,1.13-.15,1.49,1.49,0,0,0,.69-.43,1.08,1.08,0,0,0,.23-.69,1.55,1.55,0,0,0-.26-.91,1.64,1.64,0,0,0-.72-.6,2.54,2.54,0,0,0-1.12-.22,3.33,3.33,0,0,0-1.08.16,1.88,1.88,0,0,0-.73.47,4.06,4.06,0,0,0-.51.65,1.77,1.77,0,0,1-1.06,1.06,2.19,2.19,0,0,1-1.59-.37,1.85,1.85,0,0,1-1-1.08,2.13,2.13,0,0,1,.26-1.39,1.84,1.84,0,0,0,.23-.39,5,5,0,0,1,.56-.8,6,6,0,0,1,1-.91,5.52,5.52,0,0,1,1.54-.75,7.09,7.09,0,0,1,2.18-.3,6.67,6.67,0,0,1,2.63.48,6.21,6.21,0,0,1,1.92,1.23,5.27,5.27,0,0,1,1.17,1.67,4.64,4.64,0,0,1,.4,1.88,3.69,3.69,0,0,1-.31,1.55,3.58,3.58,0,0,1-.77,1.06,3.66,3.66,0,0,1-.82.59,4.69,4.69,0,0,1,.78.53,3.76,3.76,0,0,1,.75.83,4.31,4.31,0,0,1,.56,1.09,3.45,3.45,0,0,1,.23,1.3,5.39,5.39,0,0,1-.85,3,5.94,5.94,0,0,1-2.34,2.06A7.42,7.42,0,0,1,318.85,34.35Z"/><path class="cls-3" d="M114.16,16.48a3.87,3.87,0,0,1,.79.07.9.9,0,0,1,.59.43,2.19,2.19,0,0,1,.22,1.15,2.14,2.14,0,0,1-.22,1.12.93.93,0,0,1-.6.43,4.11,4.11,0,0,1-.8.07h-4V32.12a4.29,4.29,0,0,1-.09.9,1.08,1.08,0,0,1-.48.69,2.55,2.55,0,0,1-1.34.26,2.43,2.43,0,0,1-1.27-.26,1.08,1.08,0,0,1-.49-.7,4.53,4.53,0,0,1-.08-.91V19.75h-4a3.94,3.94,0,0,1-.77-.08,1,1,0,0,1-.61-.43,2,2,0,0,1-.24-1.14,2,2,0,0,1,.24-1.12.93.93,0,0,1,.61-.43,3.94,3.94,0,0,1,.77-.07Z"/><path class="cls-3" d="M119.73,34a2.48,2.48,0,0,1-1.31-.26,1.11,1.11,0,0,1-.48-.72,4.7,4.7,0,0,1-.08-.92V23.35a4.42,4.42,0,0,1,.09-.92,1.06,1.06,0,0,1,.49-.69,2.52,2.52,0,0,1,1.32-.26,2.45,2.45,0,0,1,1.26.24,1,1,0,0,1,.49.55,1.68,1.68,0,0,1,.1.53l-.3.15a3.22,3.22,0,0,1,.26-.36,3.47,3.47,0,0,1,1.5-1,3.43,3.43,0,0,1,1.24-.2l.61,0a4.62,4.62,0,0,1,.7.15,3.16,3.16,0,0,1,.67.3,1.54,1.54,0,0,1,.48.47A1.13,1.13,0,0,1,127,23a3,3,0,0,1-.48,1.74,1.4,1.4,0,0,1-1.2.71,2.11,2.11,0,0,1-.6-.06.92.92,0,0,1-.28-.15,1.17,1.17,0,0,0-.27-.15,1.68,1.68,0,0,0-.55-.06,2.39,2.39,0,0,0-.71.1,1.9,1.9,0,0,0-.62.31,1.41,1.41,0,0,0-.45.52,1.52,1.52,0,0,0-.17.71v5.48a4.46,4.46,0,0,1-.09.91,1,1,0,0,1-.49.69A2.53,2.53,0,0,1,119.73,34Z"/><path class="cls-3" d="M139.13,34a2.34,2.34,0,0,1-1.38-.33.89.89,0,0,1-.42-.8l.25-.43A2.79,2.79,0,0,1,137,33a4.39,4.39,0,0,1-1.11.65,4.34,4.34,0,0,1-1.66.28,5,5,0,0,1-2.19-.5,6,6,0,0,1-1.84-1.39,7.21,7.21,0,0,1-1.27-2,6.16,6.16,0,0,1-.47-2.38,6,6,0,0,1,.47-2.33,6.9,6.9,0,0,1,1.29-2A6.51,6.51,0,0,1,132.06,22a4.94,4.94,0,0,1,2.18-.5,4.09,4.09,0,0,1,1.57.27,4.32,4.32,0,0,1,1.09.61,3.43,3.43,0,0,1,.66.67l-.22-.35a1,1,0,0,1,.43-.91,2.44,2.44,0,0,1,1.39-.31,2.24,2.24,0,0,1,1.29.28,1.07,1.07,0,0,1,.47.72,4.86,4.86,0,0,1,.09,1v8.63a4.7,4.7,0,0,1-.09.92,1.07,1.07,0,0,1-.48.71A2.37,2.37,0,0,1,139.13,34Zm-4.37-3.73a2.13,2.13,0,0,0,1.2-.34,2.57,2.57,0,0,0,.85-.91,2.61,2.61,0,0,0,.32-1.28,2.46,2.46,0,0,0-.32-1.28,2.42,2.42,0,0,0-.88-.89,2.3,2.3,0,0,0-1.22-.33,2.33,2.33,0,0,0-1.26.34,2.53,2.53,0,0,0-1.24,2.21,2.42,2.42,0,0,0,.33,1.24,2.67,2.67,0,0,0,.93.9A2.59,2.59,0,0,0,134.76,30.24Z"/><path class="cls-3" d="M144.88,34a1.79,1.79,0,0,1-1.31-.53,1.82,1.82,0,0,1-.54-1.34,2.06,2.06,0,0,1,.14-.73,1.81,1.81,0,0,1,.41-.62l5.68-5.5h-3.8a3.85,3.85,0,0,1-.91-.1,1.22,1.22,0,0,1-.73-.49,2.28,2.28,0,0,1-.29-1.31,2.24,2.24,0,0,1,.29-1.31,1.21,1.21,0,0,1,.73-.48,4.46,4.46,0,0,1,.91-.09h7.83a1.78,1.78,0,0,1,1.84,1.85,2.13,2.13,0,0,1-.13.76,1.45,1.45,0,0,1-.39.59l-5.55,5.52h4.52a4.57,4.57,0,0,1,.93.1,1.13,1.13,0,0,1,.68.5,2.49,2.49,0,0,1,.26,1.33,2.4,2.4,0,0,1-.27,1.3,1,1,0,0,1-.7.47,5.28,5.28,0,0,1-.93.08Z"/><path class="cls-3" d="M167.7,34a2.41,2.41,0,0,1-1.37-.32.93.93,0,0,1-.43-.8l.25-.43a2.72,2.72,0,0,1-.57.61,4,4,0,0,1-1.11.65,4.38,4.38,0,0,1-1.67.29,5,5,0,0,1-2.18-.5,6,6,0,0,1-1.84-1.39,7,7,0,0,1-1.27-2A6,6,0,0,1,157,27.7a5.87,5.87,0,0,1,.48-2.34,6.72,6.72,0,0,1,1.29-2A6.07,6.07,0,0,1,160.64,22a4.9,4.9,0,0,1,2.17-.5,4.35,4.35,0,0,1,1.58.26,4.26,4.26,0,0,1,1.08.62,3,3,0,0,1,.66.67l-.22-.35a1.05,1.05,0,0,1,.44-.91,2.4,2.4,0,0,1,1.39-.31,2.28,2.28,0,0,1,1.28.27,1.16,1.16,0,0,1,.48.73,4.86,4.86,0,0,1,.09.95v8.62a4.73,4.73,0,0,1-.09.93,1.06,1.06,0,0,1-.47.71A2.42,2.42,0,0,1,167.7,34Zm-4.37-3.73a2.13,2.13,0,0,0,1.2-.33,2.66,2.66,0,0,0,.85-.91,2.67,2.67,0,0,0,0-2.57,2.45,2.45,0,0,0-3.36-.87,2.61,2.61,0,0,0-.9.91,2.54,2.54,0,0,0-.34,1.3,2.34,2.34,0,0,0,.34,1.24,2.56,2.56,0,0,0,.92.9A2.61,2.61,0,0,0,163.33,30.25Z"/><path class="cls-3" d="M184.8,34.24a7.28,7.28,0,0,1-3-.57,5.86,5.86,0,0,1-2.06-1.52,6.51,6.51,0,0,1-1.2-2.09,6.83,6.83,0,0,1-.4-2.3,6.51,6.51,0,0,1,.85-3.32,6.14,6.14,0,0,1,2.37-2.29,7.11,7.11,0,0,1,3.46-.83,6.18,6.18,0,0,1,2.51.46,5.23,5.23,0,0,1,1.75,1.2,5.1,5.1,0,0,1,1,1.59,4.51,4.51,0,0,1,.33,1.63,2.84,2.84,0,0,1-.66,2.05,2.27,2.27,0,0,1-1.69.67h-6a1.76,1.76,0,0,0,.46,1.07,2.73,2.73,0,0,0,1,.7,3.48,3.48,0,0,0,1.32.25,8.1,8.1,0,0,0,1-.06,4.49,4.49,0,0,0,.79-.17l.59-.23c.17-.07.33-.14.49-.19a2.53,2.53,0,0,1,.42-.1,1,1,0,0,1,.67.22,2,2,0,0,1,.58.71,1.65,1.65,0,0,1,.24.53,2.07,2.07,0,0,1,.06.5,1.36,1.36,0,0,1-.61,1.08,4.73,4.73,0,0,1-1.73.74A11.56,11.56,0,0,1,184.8,34.24Zm-2.67-7.4h4a1.06,1.06,0,0,0,.58-.13.63.63,0,0,0,.2-.54,1.23,1.23,0,0,0-.28-.78,1.73,1.73,0,0,0-.73-.53,2.8,2.8,0,0,0-1.09-.19,3,3,0,0,0-1.35.3,2.38,2.38,0,0,0-.94.8A1.91,1.91,0,0,0,182.13,26.84Z"/><path class="cls-3" d="M197.33,34a16.22,16.22,0,0,1-1.83-.11,3.7,3.7,0,0,1-1.35-.4,2.64,2.64,0,0,1-.9-.83,4.19,4.19,0,0,1-.52-1.38,10.11,10.11,0,0,1-.17-2.06V17.7a4.49,4.49,0,0,1,.1-.93,1.21,1.21,0,0,1,.49-.7,2.39,2.39,0,0,1,1.31-.27,2.34,2.34,0,0,1,1.29.27,1.21,1.21,0,0,1,.49.7,4.57,4.57,0,0,1,.1.93V29.07a4.22,4.22,0,0,0,0,.67.8.8,0,0,0,.15.41.51.51,0,0,0,.31.2,2.44,2.44,0,0,0,.53,0,2.69,2.69,0,0,1,.61.08.89.89,0,0,1,.54.45,2.68,2.68,0,0,1,.22,1.25,2.79,2.79,0,0,1-.23,1.3A.91.91,0,0,1,198,34,2.8,2.8,0,0,1,197.33,34Z"/><path class="cls-3" d="M209,34a2.39,2.39,0,0,1-1.31-.27,1,1,0,0,1-.47-.7,4.46,4.46,0,0,1-.09-.91v-8.8a4.19,4.19,0,0,1,.09-.89,1,1,0,0,1,.49-.66,2.6,2.6,0,0,1,1.33-.25,2.35,2.35,0,0,1,1.17.22,1,1,0,0,1,.49.51,1.73,1.73,0,0,1,.11.56.91.91,0,0,0,.05.36l-.15.48a1.39,1.39,0,0,1,.39-.76,3.32,3.32,0,0,1,.85-.7,4.73,4.73,0,0,1,1.1-.49,3.63,3.63,0,0,1,1.16-.17,5,5,0,0,1,2.14.43,4.42,4.42,0,0,1,1.58,1.27,5.56,5.56,0,0,1,1,1.94,8.16,8.16,0,0,1,.34,2.43v4.55a5.52,5.52,0,0,1-.08.92,1,1,0,0,1-.48.68,2.57,2.57,0,0,1-1.34.25,2.54,2.54,0,0,1-1.32-.26,1.08,1.08,0,0,1-.49-.7,4.53,4.53,0,0,1-.09-.91V27.61a2.74,2.74,0,0,0-.27-1.27,1.8,1.8,0,0,0-.74-.8,2.39,2.39,0,0,0-1.22-.28,2.48,2.48,0,0,0-1.25.29,2,2,0,0,0-.81.81,2.59,2.59,0,0,0-.29,1.25v4.55a4.46,4.46,0,0,1-.09.91,1.08,1.08,0,0,1-.47.69A2.64,2.64,0,0,1,209,34Z"/><path class="cls-3" d="M227,34a5.25,5.25,0,0,1-2.18-.45,5.46,5.46,0,0,1-1.75-1.27,5.8,5.8,0,0,1-1.16-1.92,7.1,7.1,0,0,1-.41-2.44V23.41a4.42,4.42,0,0,1,.09-.92,1.1,1.1,0,0,1,.49-.7,2.47,2.47,0,0,1,1.33-.27,2.39,2.39,0,0,1,1.31.27,1.13,1.13,0,0,1,.47.71,4.76,4.76,0,0,1,.09.94v4.5a2.73,2.73,0,0,0,.26,1.26,1.8,1.8,0,0,0,.77.82,2.57,2.57,0,0,0,1.21.27,2.5,2.5,0,0,0,1.24-.28,2,2,0,0,0,.8-.82,2.57,2.57,0,0,0,.29-1.25V23.39a4.42,4.42,0,0,1,.09-.92,1.08,1.08,0,0,1,.49-.69,2.57,2.57,0,0,1,1.32-.26,2.31,2.31,0,0,1,1.32.28,1.1,1.1,0,0,1,.47.71,4.53,4.53,0,0,1,.09.91v8.8a5,5,0,0,1-.08.89,1,1,0,0,1-.49.66,2.52,2.52,0,0,1-1.3.25,2.92,2.92,0,0,1-1.05-.15,1.25,1.25,0,0,1-.55-.38A.91.91,0,0,1,230,33a2.57,2.57,0,0,1,0-.45l.32-.28a1.94,1.94,0,0,1-.32.39,5.89,5.89,0,0,1-.66.58,4.26,4.26,0,0,1-1,.53A3.31,3.31,0,0,1,227,34Zm-.39-13.38a.82.82,0,0,1-.74-.25,2.63,2.63,0,0,1-.51-1,2,2,0,0,1-.1-1.3,1.35,1.35,0,0,1,.92-.67l4.4-1.35a.88.88,0,0,1,.73.29,2.53,2.53,0,0,1,.5,1,1.85,1.85,0,0,1,.08,1.27,1.32,1.32,0,0,1-.91.68Z"/><path class="cls-3" d="M238,34.05a2.28,2.28,0,0,1-1.3-.28,1,1,0,0,1-.48-.7,5.29,5.29,0,0,1-.07-.92V23.4a4.29,4.29,0,0,1,.09-.9,1.08,1.08,0,0,1,.49-.69,2.57,2.57,0,0,1,1.32-.26,2.06,2.06,0,0,1,1.35.36,1.47,1.47,0,0,1,.43,1.19l-.33.28a2.46,2.46,0,0,1,.3-.43,4.89,4.89,0,0,1,.65-.62,4.13,4.13,0,0,1,.94-.57,3,3,0,0,1,1.16-.23,4.31,4.31,0,0,1,1.49.24,3.64,3.64,0,0,1,1.2.7,4.38,4.38,0,0,1,.94,1.16,6.28,6.28,0,0,1,.85-1,4.31,4.31,0,0,1,1.18-.8,3.37,3.37,0,0,1,1.52-.33,4.15,4.15,0,0,1,2.49.74,4.56,4.56,0,0,1,1.53,2.11,9.38,9.38,0,0,1,.53,3.33v4.47a3.93,3.93,0,0,1-.1.92,1.14,1.14,0,0,1-.48.7,2.52,2.52,0,0,1-1.32.26,2.33,2.33,0,0,1-1.32-.28,1,1,0,0,1-.48-.71,5.41,5.41,0,0,1-.07-.91V27.68a3.81,3.81,0,0,0-.19-1.29,1.8,1.8,0,0,0-.53-.82,1.41,1.41,0,0,0-.9-.29,1.64,1.64,0,0,0-1,.28,1.69,1.69,0,0,0-.6.79,4,4,0,0,0-.2,1.35v4.48a3.19,3.19,0,0,1-.13.94,1.22,1.22,0,0,1-.53.7,2.52,2.52,0,0,1-1.34.23,2.1,2.1,0,0,1-1.25-.28,1.17,1.17,0,0,1-.45-.73,5.26,5.26,0,0,1-.08-.89V27.68a4.16,4.16,0,0,0-.18-1.3,1.65,1.65,0,0,0-.52-.83,1.49,1.49,0,0,0-.93-.27,1.54,1.54,0,0,0-1,.32,2,2,0,0,0-.59.86,3.86,3.86,0,0,0-.19,1.22v4.5a4.42,4.42,0,0,1-.09.92,1.08,1.08,0,0,1-.49.69A2.54,2.54,0,0,1,238,34.05Z"/><path class="cls-3" d="M262.9,34.29a7.12,7.12,0,0,1-3-.58,5.84,5.84,0,0,1-2.06-1.51,6.43,6.43,0,0,1-1.2-2.09,6.88,6.88,0,0,1-.4-2.3,6.48,6.48,0,0,1,.85-3.32,6.14,6.14,0,0,1,2.37-2.29,7,7,0,0,1,3.46-.84,6.21,6.21,0,0,1,2.51.47,5.23,5.23,0,0,1,1.75,1.2,5.1,5.1,0,0,1,1,1.59,4.46,4.46,0,0,1,.33,1.62,2.82,2.82,0,0,1-.66,2.05,2.28,2.28,0,0,1-1.69.68h-5.95a1.77,1.77,0,0,0,.46,1.08,2.85,2.85,0,0,0,1,.7,3.48,3.48,0,0,0,1.32.25,8.1,8.1,0,0,0,1-.06,3.7,3.7,0,0,0,.79-.18c.22-.07.41-.15.59-.22a4.32,4.32,0,0,1,.48-.19,2.63,2.63,0,0,1,.43-.1,1.06,1.06,0,0,1,.67.21,2.06,2.06,0,0,1,.58.72,2.37,2.37,0,0,1,.24.52,2.2,2.2,0,0,1,.06.5,1.36,1.36,0,0,1-.61,1.09,4.91,4.91,0,0,1-1.73.74A11.56,11.56,0,0,1,262.9,34.29Zm-2.67-7.4h3.95a1.06,1.06,0,0,0,.58-.14.61.61,0,0,0,.2-.53,1.19,1.19,0,0,0-.28-.78,1.84,1.84,0,0,0-.73-.54,3,3,0,0,0-1.09-.19,3,3,0,0,0-1.35.3,2.39,2.39,0,0,0-.94.8A1.87,1.87,0,0,0,260.23,26.89Z"/><path class="cls-3" d="M272.5,34.07a2.48,2.48,0,0,1-1.31-.26,1.11,1.11,0,0,1-.48-.72,5.52,5.52,0,0,1-.08-.92V23.44a4.42,4.42,0,0,1,.09-.92,1.08,1.08,0,0,1,.49-.69,2.57,2.57,0,0,1,1.32-.26,2.52,2.52,0,0,1,1.27.24,1,1,0,0,1,.48.55,1.73,1.73,0,0,1,.1.54l-.3.15a2.73,2.73,0,0,1,.27-.37,3.92,3.92,0,0,1,.58-.55,3.46,3.46,0,0,1,.92-.48,3.34,3.34,0,0,1,1.23-.2,4.7,4.7,0,0,1,.62,0,3.14,3.14,0,0,1,.7.15,2.47,2.47,0,0,1,.66.3,1.66,1.66,0,0,1,.49.46,1.2,1.2,0,0,1,.18.67,3.09,3.09,0,0,1-.47,1.74,1.4,1.4,0,0,1-1.2.71,2,2,0,0,1-.6-.06.87.87,0,0,1-.29-.15,1.1,1.1,0,0,0-.26-.15,1.72,1.72,0,0,0-.55-.06,2.46,2.46,0,0,0-.72.1,1.9,1.9,0,0,0-.62.31,1.6,1.6,0,0,0-.45.52,1.53,1.53,0,0,0-.16.72v5.47a4.46,4.46,0,0,1-.09.91,1,1,0,0,1-.48.69A2.6,2.6,0,0,1,272.5,34.07Z"/><path class="cls-3" d="M287.7,34.28a6.49,6.49,0,0,1-2.34-.46,7.06,7.06,0,0,1-2.11-1.32,6.42,6.42,0,0,1-1.51-2,6.41,6.41,0,0,1,0-5.15,6.78,6.78,0,0,1,3.47-3.47,6.16,6.16,0,0,1,2.49-.51,6.33,6.33,0,0,1,3.26.86,6.64,6.64,0,0,1,2.34,2.34,6.71,6.71,0,0,1,.31,6A6.5,6.5,0,0,1,290,33.84,6.38,6.38,0,0,1,287.7,34.28Zm-.05-3.78a2.85,2.85,0,0,0,1.23-.3,2.54,2.54,0,0,0,1.48-2.42,2.77,2.77,0,0,0-.35-1.4,2.58,2.58,0,0,0-1-.94,2.88,2.88,0,0,0-1.41-.34,2.63,2.63,0,0,0-1.34.35,2.85,2.85,0,0,0-1,1A2.66,2.66,0,0,0,285,27.8a2.71,2.71,0,0,0,.41,1.52,2.64,2.64,0,0,0,1,.9A2.92,2.92,0,0,0,287.65,30.5Z"/><path class="cls-3" d="M305.31,23.41A2.1,2.1,0,0,1,304,24a1.91,1.91,0,0,1-1.25-.74,1.9,1.9,0,0,1-.63-1.38,2.23,2.23,0,0,1,.88-1.37l3.73-3.3a1.72,1.72,0,0,1,1.28-.57,2,2,0,0,1,1.24.77,1.74,1.74,0,0,1,.61,1.34,2.28,2.28,0,0,1-.88,1.36Zm3.14,10.73a2,2,0,0,1-1.44-.42,2.15,2.15,0,0,1-.41-1.48V18.49A2.05,2.05,0,0,1,307,17a2.05,2.05,0,0,1,1.47-.41A2,2,0,0,1,310,17a2.19,2.19,0,0,1,.41,1.5V32.27a2.05,2.05,0,0,1-.41,1.46A2.08,2.08,0,0,1,308.45,34.14Z"/><path class="cls-3" d="M318.85,34.35a7.08,7.08,0,0,1-2.51-.44,7,7,0,0,1-2.06-1.19A5.7,5.7,0,0,1,312.87,31a4.45,4.45,0,0,1-.54-2c0-.9.69-1.35,2.08-1.34a2.7,2.7,0,0,1,.91.11.86.86,0,0,1,.48.4,4.47,4.47,0,0,1,.38.81,2.26,2.26,0,0,0,.37.65,2.64,2.64,0,0,0,.85.71,3,3,0,0,0,1.48.32,3.77,3.77,0,0,0,1.46-.26,2.22,2.22,0,0,0,1-.73,1.82,1.82,0,0,0,0-2.12,2.15,2.15,0,0,0-.9-.68,3.21,3.21,0,0,0-1.28-.24,5.9,5.9,0,0,1-1-.07,1.08,1.08,0,0,1-.71-.45,2.28,2.28,0,0,1-.27-1.28,2.3,2.3,0,0,1,.27-1.31,1.13,1.13,0,0,1,.73-.43,7.32,7.32,0,0,1,1-.06,3.64,3.64,0,0,0,1.13-.15,1.49,1.49,0,0,0,.69-.43,1.08,1.08,0,0,0,.23-.69,1.55,1.55,0,0,0-.26-.91,1.64,1.64,0,0,0-.72-.6,2.54,2.54,0,0,0-1.12-.22,3.33,3.33,0,0,0-1.08.16,1.88,1.88,0,0,0-.73.47,4.06,4.06,0,0,0-.51.65,1.77,1.77,0,0,1-1.06,1.06,2.19,2.19,0,0,1-1.59-.37,1.85,1.85,0,0,1-1-1.08,2.13,2.13,0,0,1,.26-1.39,1.84,1.84,0,0,0,.23-.39,5,5,0,0,1,.56-.8,6,6,0,0,1,1-.91,5.52,5.52,0,0,1,1.54-.75,7.09,7.09,0,0,1,2.18-.3,6.67,6.67,0,0,1,2.63.48,6.21,6.21,0,0,1,1.92,1.23,5.27,5.27,0,0,1,1.17,1.67,4.64,4.64,0,0,1,.4,1.88,3.69,3.69,0,0,1-.31,1.55,3.58,3.58,0,0,1-.77,1.06,3.66,3.66,0,0,1-.82.59,4.69,4.69,0,0,1,.78.53,3.76,3.76,0,0,1,.75.83,4.31,4.31,0,0,1,.56,1.09,3.45,3.45,0,0,1,.23,1.3,5.39,5.39,0,0,1-.85,3,5.94,5.94,0,0,1-2.34,2.06A7.42,7.42,0,0,1,318.85,34.35Z"/><path class="cls-2" d="M114.16,16.48a3.87,3.87,0,0,1,.79.07.9.9,0,0,1,.59.43,2.19,2.19,0,0,1,.22,1.15,2.14,2.14,0,0,1-.22,1.12.93.93,0,0,1-.6.43,4.11,4.11,0,0,1-.8.07h-4V32.12a4.29,4.29,0,0,1-.09.9,1.08,1.08,0,0,1-.48.69,2.55,2.55,0,0,1-1.34.26,2.43,2.43,0,0,1-1.27-.26,1.08,1.08,0,0,1-.49-.7,4.53,4.53,0,0,1-.08-.91V19.75h-4a3.94,3.94,0,0,1-.77-.08,1,1,0,0,1-.61-.43,2,2,0,0,1-.24-1.14,2,2,0,0,1,.24-1.12.93.93,0,0,1,.61-.43,3.94,3.94,0,0,1,.77-.07Z"/><path class="cls-2" d="M119.73,34a2.48,2.48,0,0,1-1.31-.26,1.11,1.11,0,0,1-.48-.72,4.7,4.7,0,0,1-.08-.92V23.35a4.42,4.42,0,0,1,.09-.92,1.06,1.06,0,0,1,.49-.69,2.52,2.52,0,0,1,1.32-.26,2.45,2.45,0,0,1,1.26.24,1,1,0,0,1,.49.55,1.68,1.68,0,0,1,.1.53l-.3.15a3.22,3.22,0,0,1,.26-.36,3.47,3.47,0,0,1,1.5-1,3.43,3.43,0,0,1,1.24-.2l.61,0a4.62,4.62,0,0,1,.7.15,3.16,3.16,0,0,1,.67.3,1.54,1.54,0,0,1,.48.47A1.13,1.13,0,0,1,127,23a3,3,0,0,1-.48,1.74,1.4,1.4,0,0,1-1.2.71,2.11,2.11,0,0,1-.6-.06.92.92,0,0,1-.28-.15,1.17,1.17,0,0,0-.27-.15,1.68,1.68,0,0,0-.55-.06,2.39,2.39,0,0,0-.71.1,1.9,1.9,0,0,0-.62.31,1.41,1.41,0,0,0-.45.52,1.52,1.52,0,0,0-.17.71v5.48a4.46,4.46,0,0,1-.09.91,1,1,0,0,1-.49.69A2.53,2.53,0,0,1,119.73,34Z"/><path class="cls-2" d="M139.13,34a2.34,2.34,0,0,1-1.38-.33.89.89,0,0,1-.42-.8l.25-.43A2.79,2.79,0,0,1,137,33a4.39,4.39,0,0,1-1.11.65,4.34,4.34,0,0,1-1.66.28,5,5,0,0,1-2.19-.5,6,6,0,0,1-1.84-1.39,7.21,7.21,0,0,1-1.27-2,6.16,6.16,0,0,1-.47-2.38,6,6,0,0,1,.47-2.33,6.9,6.9,0,0,1,1.29-2A6.51,6.51,0,0,1,132.06,22a4.94,4.94,0,0,1,2.18-.5,4.09,4.09,0,0,1,1.57.27,4.32,4.32,0,0,1,1.09.61,3.43,3.43,0,0,1,.66.67l-.22-.35a1,1,0,0,1,.43-.91,2.44,2.44,0,0,1,1.39-.31,2.24,2.24,0,0,1,1.29.28,1.07,1.07,0,0,1,.47.72,4.86,4.86,0,0,1,.09,1v8.63a4.7,4.7,0,0,1-.09.92,1.07,1.07,0,0,1-.48.71A2.37,2.37,0,0,1,139.13,34Zm-4.37-3.73a2.13,2.13,0,0,0,1.2-.34,2.57,2.57,0,0,0,.85-.91,2.61,2.61,0,0,0,.32-1.28,2.46,2.46,0,0,0-.32-1.28,2.42,2.42,0,0,0-.88-.89,2.3,2.3,0,0,0-1.22-.33,2.33,2.33,0,0,0-1.26.34,2.53,2.53,0,0,0-1.24,2.21,2.42,2.42,0,0,0,.33,1.24,2.67,2.67,0,0,0,.93.9A2.59,2.59,0,0,0,134.76,30.24Z"/><path class="cls-2" d="M144.88,34a1.79,1.79,0,0,1-1.31-.53,1.82,1.82,0,0,1-.54-1.34,2.06,2.06,0,0,1,.14-.73,1.81,1.81,0,0,1,.41-.62l5.68-5.5h-3.8a3.85,3.85,0,0,1-.91-.1,1.22,1.22,0,0,1-.73-.49,2.28,2.28,0,0,1-.29-1.31,2.24,2.24,0,0,1,.29-1.31,1.21,1.21,0,0,1,.73-.48,4.46,4.46,0,0,1,.91-.09h7.83a1.78,1.78,0,0,1,1.84,1.85,2.13,2.13,0,0,1-.13.76,1.45,1.45,0,0,1-.39.59l-5.55,5.52h4.52a4.57,4.57,0,0,1,.93.1,1.13,1.13,0,0,1,.68.5,2.49,2.49,0,0,1,.26,1.33,2.4,2.4,0,0,1-.27,1.3,1,1,0,0,1-.7.47,5.28,5.28,0,0,1-.93.08Z"/><path class="cls-2" d="M167.7,34a2.41,2.41,0,0,1-1.37-.32.93.93,0,0,1-.43-.8l.25-.43a2.72,2.72,0,0,1-.57.61,4,4,0,0,1-1.11.65,4.38,4.38,0,0,1-1.67.29,5,5,0,0,1-2.18-.5,6,6,0,0,1-1.84-1.39,7,7,0,0,1-1.27-2A6,6,0,0,1,157,27.7a5.87,5.87,0,0,1,.48-2.34,6.72,6.72,0,0,1,1.29-2A6.07,6.07,0,0,1,160.64,22a4.9,4.9,0,0,1,2.17-.5,4.35,4.35,0,0,1,1.58.26,4.26,4.26,0,0,1,1.08.62,3,3,0,0,1,.66.67l-.22-.35a1.05,1.05,0,0,1,.44-.91,2.4,2.4,0,0,1,1.39-.31,2.28,2.28,0,0,1,1.28.27,1.16,1.16,0,0,1,.48.73,4.86,4.86,0,0,1,.09.95v8.62a4.73,4.73,0,0,1-.09.93,1.06,1.06,0,0,1-.47.71A2.42,2.42,0,0,1,167.7,34Zm-4.37-3.73a2.13,2.13,0,0,0,1.2-.33,2.66,2.66,0,0,0,.85-.91,2.67,2.67,0,0,0,0-2.57,2.45,2.45,0,0,0-3.36-.87,2.61,2.61,0,0,0-.9.91,2.54,2.54,0,0,0-.34,1.3,2.34,2.34,0,0,0,.34,1.24,2.56,2.56,0,0,0,.92.9A2.61,2.61,0,0,0,163.33,30.25Z"/><path class="cls-2" d="M184.8,34.24a7.28,7.28,0,0,1-3-.57,5.86,5.86,0,0,1-2.06-1.52,6.51,6.51,0,0,1-1.2-2.09,6.83,6.83,0,0,1-.4-2.3,6.51,6.51,0,0,1,.85-3.32,6.14,6.14,0,0,1,2.37-2.29,7.11,7.11,0,0,1,3.46-.83,6.18,6.18,0,0,1,2.51.46,5.23,5.23,0,0,1,1.75,1.2,5.1,5.1,0,0,1,1,1.59,4.51,4.51,0,0,1,.33,1.63,2.84,2.84,0,0,1-.66,2.05,2.27,2.27,0,0,1-1.69.67h-6a1.76,1.76,0,0,0,.46,1.07,2.73,2.73,0,0,0,1,.7,3.48,3.48,0,0,0,1.32.25,8.1,8.1,0,0,0,1-.06,4.49,4.49,0,0,0,.79-.17l.59-.23c.17-.07.33-.14.49-.19a2.53,2.53,0,0,1,.42-.1,1,1,0,0,1,.67.22,2,2,0,0,1,.58.71,1.65,1.65,0,0,1,.24.53,2.07,2.07,0,0,1,.06.5,1.36,1.36,0,0,1-.61,1.08,4.73,4.73,0,0,1-1.73.74A11.56,11.56,0,0,1,184.8,34.24Zm-2.67-7.4h4a1.06,1.06,0,0,0,.58-.13.63.63,0,0,0,.2-.54,1.23,1.23,0,0,0-.28-.78,1.73,1.73,0,0,0-.73-.53,2.8,2.8,0,0,0-1.09-.19,3,3,0,0,0-1.35.3,2.38,2.38,0,0,0-.94.8A1.91,1.91,0,0,0,182.13,26.84Z"/><path class="cls-2" d="M197.33,34a16.22,16.22,0,0,1-1.83-.11,3.7,3.7,0,0,1-1.35-.4,2.64,2.64,0,0,1-.9-.83,4.19,4.19,0,0,1-.52-1.38,10.11,10.11,0,0,1-.17-2.06V17.7a4.49,4.49,0,0,1,.1-.93,1.21,1.21,0,0,1,.49-.7,2.39,2.39,0,0,1,1.31-.27,2.34,2.34,0,0,1,1.29.27,1.21,1.21,0,0,1,.49.7,4.57,4.57,0,0,1,.1.93V29.07a4.22,4.22,0,0,0,0,.67.8.8,0,0,0,.15.41.51.51,0,0,0,.31.2,2.44,2.44,0,0,0,.53,0,2.69,2.69,0,0,1,.61.08.89.89,0,0,1,.54.45,2.68,2.68,0,0,1,.22,1.25,2.79,2.79,0,0,1-.23,1.3A.91.91,0,0,1,198,34,2.8,2.8,0,0,1,197.33,34Z"/><path class="cls-2" d="M209,34a2.39,2.39,0,0,1-1.31-.27,1,1,0,0,1-.47-.7,4.46,4.46,0,0,1-.09-.91v-8.8a4.19,4.19,0,0,1,.09-.89,1,1,0,0,1,.49-.66,2.6,2.6,0,0,1,1.33-.25,2.35,2.35,0,0,1,1.17.22,1,1,0,0,1,.49.51,1.73,1.73,0,0,1,.11.56.91.91,0,0,0,.05.36l-.15.48a1.39,1.39,0,0,1,.39-.76,3.32,3.32,0,0,1,.85-.7,4.73,4.73,0,0,1,1.1-.49,3.63,3.63,0,0,1,1.16-.17,5,5,0,0,1,2.14.43,4.42,4.42,0,0,1,1.58,1.27,5.56,5.56,0,0,1,1,1.94,8.16,8.16,0,0,1,.34,2.43v4.55a5.52,5.52,0,0,1-.08.92,1,1,0,0,1-.48.68,2.57,2.57,0,0,1-1.34.25,2.54,2.54,0,0,1-1.32-.26,1.08,1.08,0,0,1-.49-.7,4.53,4.53,0,0,1-.09-.91V27.61a2.74,2.74,0,0,0-.27-1.27,1.8,1.8,0,0,0-.74-.8,2.39,2.39,0,0,0-1.22-.28,2.48,2.48,0,0,0-1.25.29,2,2,0,0,0-.81.81,2.59,2.59,0,0,0-.29,1.25v4.55a4.46,4.46,0,0,1-.09.91,1.08,1.08,0,0,1-.47.69A2.64,2.64,0,0,1,209,34Z"/><path class="cls-2" d="M227,34a5.25,5.25,0,0,1-2.18-.45,5.46,5.46,0,0,1-1.75-1.27,5.8,5.8,0,0,1-1.16-1.92,7.1,7.1,0,0,1-.41-2.44V23.41a4.42,4.42,0,0,1,.09-.92,1.1,1.1,0,0,1,.49-.7,2.47,2.47,0,0,1,1.33-.27,2.39,2.39,0,0,1,1.31.27,1.13,1.13,0,0,1,.47.71,4.76,4.76,0,0,1,.09.94v4.5a2.73,2.73,0,0,0,.26,1.26,1.8,1.8,0,0,0,.77.82,2.57,2.57,0,0,0,1.21.27,2.5,2.5,0,0,0,1.24-.28,2,2,0,0,0,.8-.82,2.57,2.57,0,0,0,.29-1.25V23.39a4.42,4.42,0,0,1,.09-.92,1.08,1.08,0,0,1,.49-.69,2.57,2.57,0,0,1,1.32-.26,2.31,2.31,0,0,1,1.32.28,1.1,1.1,0,0,1,.47.71,4.53,4.53,0,0,1,.09.91v8.8a5,5,0,0,1-.08.89,1,1,0,0,1-.49.66,2.52,2.52,0,0,1-1.3.25,2.92,2.92,0,0,1-1.05-.15,1.25,1.25,0,0,1-.55-.38A.91.91,0,0,1,230,33a2.57,2.57,0,0,1,0-.45l.32-.28a1.94,1.94,0,0,1-.32.39,5.89,5.89,0,0,1-.66.58,4.26,4.26,0,0,1-1,.53A3.31,3.31,0,0,1,227,34Zm-.39-13.38a.82.82,0,0,1-.74-.25,2.63,2.63,0,0,1-.51-1,2,2,0,0,1-.1-1.3,1.35,1.35,0,0,1,.92-.67l4.4-1.35a.88.88,0,0,1,.73.29,2.53,2.53,0,0,1,.5,1,1.85,1.85,0,0,1,.08,1.27,1.32,1.32,0,0,1-.91.68Z"/><path class="cls-2" d="M238,34.05a2.28,2.28,0,0,1-1.3-.28,1,1,0,0,1-.48-.7,5.29,5.29,0,0,1-.07-.92V23.4a4.29,4.29,0,0,1,.09-.9,1.08,1.08,0,0,1,.49-.69,2.57,2.57,0,0,1,1.32-.26,2.06,2.06,0,0,1,1.35.36,1.47,1.47,0,0,1,.43,1.19l-.33.28a2.46,2.46,0,0,1,.3-.43,4.89,4.89,0,0,1,.65-.62,4.13,4.13,0,0,1,.94-.57,3,3,0,0,1,1.16-.23,4.31,4.31,0,0,1,1.49.24,3.64,3.64,0,0,1,1.2.7,4.38,4.38,0,0,1,.94,1.16,6.28,6.28,0,0,1,.85-1,4.31,4.31,0,0,1,1.18-.8,3.37,3.37,0,0,1,1.52-.33,4.15,4.15,0,0,1,2.49.74,4.56,4.56,0,0,1,1.53,2.11,9.38,9.38,0,0,1,.53,3.33v4.47a3.93,3.93,0,0,1-.1.92,1.14,1.14,0,0,1-.48.7,2.52,2.52,0,0,1-1.32.26,2.33,2.33,0,0,1-1.32-.28,1,1,0,0,1-.48-.71,5.41,5.41,0,0,1-.07-.91V27.68a3.81,3.81,0,0,0-.19-1.29,1.8,1.8,0,0,0-.53-.82,1.41,1.41,0,0,0-.9-.29,1.64,1.64,0,0,0-1,.28,1.69,1.69,0,0,0-.6.79,4,4,0,0,0-.2,1.35v4.48a3.19,3.19,0,0,1-.13.94,1.22,1.22,0,0,1-.53.7,2.52,2.52,0,0,1-1.34.23,2.1,2.1,0,0,1-1.25-.28,1.17,1.17,0,0,1-.45-.73,5.26,5.26,0,0,1-.08-.89V27.68a4.16,4.16,0,0,0-.18-1.3,1.65,1.65,0,0,0-.52-.83,1.49,1.49,0,0,0-.93-.27,1.54,1.54,0,0,0-1,.32,2,2,0,0,0-.59.86,3.86,3.86,0,0,0-.19,1.22v4.5a4.42,4.42,0,0,1-.09.92,1.08,1.08,0,0,1-.49.69A2.54,2.54,0,0,1,238,34.05Z"/><path class="cls-2" d="M262.9,34.29a7.12,7.12,0,0,1-3-.58,5.84,5.84,0,0,1-2.06-1.51,6.43,6.43,0,0,1-1.2-2.09,6.88,6.88,0,0,1-.4-2.3,6.48,6.48,0,0,1,.85-3.32,6.14,6.14,0,0,1,2.37-2.29,7,7,0,0,1,3.46-.84,6.21,6.21,0,0,1,2.51.47,5.23,5.23,0,0,1,1.75,1.2,5.1,5.1,0,0,1,1,1.59,4.46,4.46,0,0,1,.33,1.62,2.82,2.82,0,0,1-.66,2.05,2.28,2.28,0,0,1-1.69.68h-5.95a1.77,1.77,0,0,0,.46,1.08,2.85,2.85,0,0,0,1,.7,3.48,3.48,0,0,0,1.32.25,8.1,8.1,0,0,0,1-.06,3.7,3.7,0,0,0,.79-.18c.22-.07.41-.15.59-.22a4.32,4.32,0,0,1,.48-.19,2.63,2.63,0,0,1,.43-.1,1.06,1.06,0,0,1,.67.21,2.06,2.06,0,0,1,.58.72,2.37,2.37,0,0,1,.24.52,2.2,2.2,0,0,1,.06.5,1.36,1.36,0,0,1-.61,1.09,4.91,4.91,0,0,1-1.73.74A11.56,11.56,0,0,1,262.9,34.29Zm-2.67-7.4h3.95a1.06,1.06,0,0,0,.58-.14.61.61,0,0,0,.2-.53,1.19,1.19,0,0,0-.28-.78,1.84,1.84,0,0,0-.73-.54,3,3,0,0,0-1.09-.19,3,3,0,0,0-1.35.3,2.39,2.39,0,0,0-.94.8A1.87,1.87,0,0,0,260.23,26.89Z"/><path class="cls-2" d="M272.5,34.07a2.48,2.48,0,0,1-1.31-.26,1.11,1.11,0,0,1-.48-.72,5.52,5.52,0,0,1-.08-.92V23.44a4.42,4.42,0,0,1,.09-.92,1.08,1.08,0,0,1,.49-.69,2.57,2.57,0,0,1,1.32-.26,2.52,2.52,0,0,1,1.27.24,1,1,0,0,1,.48.55,1.73,1.73,0,0,1,.1.54l-.3.15a2.73,2.73,0,0,1,.27-.37,3.92,3.92,0,0,1,.58-.55,3.46,3.46,0,0,1,.92-.48,3.34,3.34,0,0,1,1.23-.2,4.7,4.7,0,0,1,.62,0,3.14,3.14,0,0,1,.7.15,2.47,2.47,0,0,1,.66.3,1.66,1.66,0,0,1,.49.46,1.2,1.2,0,0,1,.18.67,3.09,3.09,0,0,1-.47,1.74,1.4,1.4,0,0,1-1.2.71,2,2,0,0,1-.6-.06.87.87,0,0,1-.29-.15,1.1,1.1,0,0,0-.26-.15,1.72,1.72,0,0,0-.55-.06,2.46,2.46,0,0,0-.72.1,1.9,1.9,0,0,0-.62.31,1.6,1.6,0,0,0-.45.52,1.53,1.53,0,0,0-.16.72v5.47a4.46,4.46,0,0,1-.09.91,1,1,0,0,1-.48.69A2.6,2.6,0,0,1,272.5,34.07Z"/><path class="cls-2" d="M287.7,34.28a6.49,6.49,0,0,1-2.34-.46,7.06,7.06,0,0,1-2.11-1.32,6.42,6.42,0,0,1-1.51-2,6.41,6.41,0,0,1,0-5.15,6.78,6.78,0,0,1,3.47-3.47,6.16,6.16,0,0,1,2.49-.51,6.33,6.33,0,0,1,3.26.86,6.64,6.64,0,0,1,2.34,2.34,6.71,6.71,0,0,1,.31,6A6.5,6.5,0,0,1,290,33.84,6.38,6.38,0,0,1,287.7,34.28Zm-.05-3.78a2.85,2.85,0,0,0,1.23-.3,2.54,2.54,0,0,0,1.48-2.42,2.77,2.77,0,0,0-.35-1.4,2.58,2.58,0,0,0-1-.94,2.88,2.88,0,0,0-1.41-.34,2.63,2.63,0,0,0-1.34.35,2.85,2.85,0,0,0-1,1A2.66,2.66,0,0,0,285,27.8a2.71,2.71,0,0,0,.41,1.52,2.64,2.64,0,0,0,1,.9A2.92,2.92,0,0,0,287.65,30.5Z"/><path class="cls-2" d="M305.31,23.41A2.1,2.1,0,0,1,304,24a1.91,1.91,0,0,1-1.25-.74,1.9,1.9,0,0,1-.63-1.38,2.23,2.23,0,0,1,.88-1.37l3.73-3.3a1.72,1.72,0,0,1,1.28-.57,2,2,0,0,1,1.24.77,1.74,1.74,0,0,1,.61,1.34,2.28,2.28,0,0,1-.88,1.36Zm3.14,10.73a2,2,0,0,1-1.44-.42,2.15,2.15,0,0,1-.41-1.48V18.49A2.05,2.05,0,0,1,307,17a2.05,2.05,0,0,1,1.47-.41A2,2,0,0,1,310,17a2.19,2.19,0,0,1,.41,1.5V32.27a2.05,2.05,0,0,1-.41,1.46A2.08,2.08,0,0,1,308.45,34.14Z"/><path class="cls-2" d="M318.85,34.35a7.08,7.08,0,0,1-2.51-.44,7,7,0,0,1-2.06-1.19A5.7,5.7,0,0,1,312.87,31a4.45,4.45,0,0,1-.54-2c0-.9.69-1.35,2.08-1.34a2.7,2.7,0,0,1,.91.11.86.86,0,0,1,.48.4,4.47,4.47,0,0,1,.38.81,2.26,2.26,0,0,0,.37.65,2.64,2.64,0,0,0,.85.71,3,3,0,0,0,1.48.32,3.77,3.77,0,0,0,1.46-.26,2.22,2.22,0,0,0,1-.73,1.82,1.82,0,0,0,0-2.12,2.15,2.15,0,0,0-.9-.68,3.21,3.21,0,0,0-1.28-.24,5.9,5.9,0,0,1-1-.07,1.08,1.08,0,0,1-.71-.45,2.28,2.28,0,0,1-.27-1.28,2.3,2.3,0,0,1,.27-1.31,1.13,1.13,0,0,1,.73-.43,7.32,7.32,0,0,1,1-.06,3.64,3.64,0,0,0,1.13-.15,1.49,1.49,0,0,0,.69-.43,1.08,1.08,0,0,0,.23-.69,1.55,1.55,0,0,0-.26-.91,1.64,1.64,0,0,0-.72-.6,2.54,2.54,0,0,0-1.12-.22,3.33,3.33,0,0,0-1.08.16,1.88,1.88,0,0,0-.73.47,4.06,4.06,0,0,0-.51.65,1.77,1.77,0,0,1-1.06,1.06,2.19,2.19,0,0,1-1.59-.37,1.85,1.85,0,0,1-1-1.08,2.13,2.13,0,0,1,.26-1.39,1.84,1.84,0,0,0,.23-.39,5,5,0,0,1,.56-.8,6,6,0,0,1,1-.91,5.52,5.52,0,0,1,1.54-.75,7.09,7.09,0,0,1,2.18-.3,6.67,6.67,0,0,1,2.63.48,6.21,6.21,0,0,1,1.92,1.23,5.27,5.27,0,0,1,1.17,1.67,4.64,4.64,0,0,1,.4,1.88,3.69,3.69,0,0,1-.31,1.55,3.58,3.58,0,0,1-.77,1.06,3.66,3.66,0,0,1-.82.59,4.69,4.69,0,0,1,.78.53,3.76,3.76,0,0,1,.75.83,4.31,4.31,0,0,1,.56,1.09,3.45,3.45,0,0,1,.23,1.3,5.39,5.39,0,0,1-.85,3,5.94,5.94,0,0,1-2.34,2.06A7.42,7.42,0,0,1,318.85,34.35Z"/><path class="cls-4" d="M55.46,34.68q0,3.41-1.18,4.85A4.36,4.36,0,0,1,50.69,41a5.6,5.6,0,0,1-2.57-.5,3.25,3.25,0,0,1-1.48-1.85A11,11,0,0,1,46.09,35L46,19.35a6.3,6.3,0,0,1-3.21-.73,2.58,2.58,0,0,1-1.26-2.46,2.77,2.77,0,0,1,1.16-2.29A5.16,5.16,0,0,1,46,13l2.3,0c1,0,1.69,0,2.1,0,2,0,3.36.34,4,1a5,5,0,0,1,1,3.59Z"/><path class="cls-4" d="M71,22.08c0-1.37-1.24-2-3.71-2a19.15,19.15,0,0,0-2.1.14,19.29,19.29,0,0,1-1.93.15q-2.94,0-2.94-3.61T68.76,13q5.51,0,8.23,1.85a5.6,5.6,0,0,1,2.73,4.83,7.77,7.77,0,0,1-3.51,6.63A9.52,9.52,0,0,1,79.53,29a7.27,7.27,0,0,1,1,4.06A7.34,7.34,0,0,1,77.68,39a11.45,11.45,0,0,1-7.47,2.29c-3.92,0-6.72-.42-8.42-1.24a4,4,0,0,1-2.54-3.76,3.92,3.92,0,0,1,.82-2.88,3.15,3.15,0,0,1,2.28-.77c.49,0,1.25,0,2.28.16A21.56,21.56,0,0,0,67,33c3,0,4.45-.56,4.45-1.68a1.61,1.61,0,0,0-.86-1.57,7.8,7.8,0,0,0-3.22-.44A6.52,6.52,0,0,1,64,28.64a2.6,2.6,0,0,1-1-2.36c0-1.73,1.11-2.6,3.34-2.6a17.65,17.65,0,0,0,3.2-.21q1-.21,1.2-.48A2,2,0,0,0,71,22.08Z"/><path class="cls-5" d="M55.46,34.68q0,3.41-1.18,4.85A4.36,4.36,0,0,1,50.69,41a5.6,5.6,0,0,1-2.57-.5,3.25,3.25,0,0,1-1.48-1.85A11,11,0,0,1,46.09,35L46,19.35a6.3,6.3,0,0,1-3.21-.73,2.58,2.58,0,0,1-1.26-2.46,2.77,2.77,0,0,1,1.16-2.29A5.16,5.16,0,0,1,46,13l2.3,0c1,0,1.69,0,2.1,0,2,0,3.36.34,4,1a5,5,0,0,1,1,3.59Z"/><path class="cls-5" d="M71,22.08c0-1.37-1.24-2-3.71-2a19.15,19.15,0,0,0-2.1.14,19.29,19.29,0,0,1-1.93.15q-2.94,0-2.94-3.61T68.76,13q5.51,0,8.23,1.85a5.6,5.6,0,0,1,2.73,4.83,7.77,7.77,0,0,1-3.51,6.63A9.52,9.52,0,0,1,79.53,29a7.27,7.27,0,0,1,1,4.06A7.34,7.34,0,0,1,77.68,39a11.45,11.45,0,0,1-7.47,2.29c-3.92,0-6.72-.42-8.42-1.24a4,4,0,0,1-2.54-3.76,3.92,3.92,0,0,1,.82-2.88,3.15,3.15,0,0,1,2.28-.77c.49,0,1.25,0,2.28.16A21.56,21.56,0,0,0,67,33c3,0,4.45-.56,4.45-1.68a1.61,1.61,0,0,0-.86-1.57,7.8,7.8,0,0,0-3.22-.44A6.52,6.52,0,0,1,64,28.64a2.6,2.6,0,0,1-1-2.36c0-1.73,1.11-2.6,3.34-2.6a17.65,17.65,0,0,0,3.2-.21q1-.21,1.2-.48A2,2,0,0,0,71,22.08Z"/></g></g></svg>