<svg xmlns="http://www.w3.org/2000/svg" viewBox="0 0 399.98 86.7"><defs><style>.cls-1{fill:#a41010;}.cls-2{fill:#fff;}.cls-3,.cls-4{fill:none;stroke-width:5px;}.cls-3{stroke:#c8a927;stroke-linejoin:round;}.cls-4{stroke:#fff;}.cls-5{fill:#c8a927;}</style></defs><title>24tv</title><g id="Layer_2" data-name="Layer 2"><g id="pestaña_identificativa" data-name="pestaña identificativa"><rect class="cls-1" width="399.98" height="86.7" rx="34.2"/><path class="cls-2" d="M137.11,17.34a4,4,0,0,1,.79.08.9.9,0,0,1,.58.42,2.23,2.23,0,0,1,.23,1.15,2.15,2.15,0,0,1-.23,1.13.91.91,0,0,1-.6.42,4.09,4.09,0,0,1-.8.08h-4V33a4.29,4.29,0,0,1-.09.9,1.13,1.13,0,0,1-.47.69,2.58,2.58,0,0,1-1.34.26,2.45,2.45,0,0,1-1.28-.26,1.06,1.06,0,0,1-.48-.7,4.63,4.63,0,0,1-.09-.92V20.61h-4a3.33,3.33,0,0,1-.78-.09,1,1,0,0,1-.61-.42,2.06,2.06,0,0,1-.24-1.14,2.06,2.06,0,0,1,.24-1.13,1,1,0,0,1,.61-.42,4,4,0,0,1,.78-.07Z"/><path class="cls-2" d="M142.67,34.85a2.39,2.39,0,0,1-1.31-.27,1,1,0,0,1-.47-.71,4.7,4.7,0,0,1-.09-.92V24.22a4.59,4.59,0,0,1,.09-.93,1,1,0,0,1,.49-.68,2.47,2.47,0,0,1,1.32-.26,2.65,2.65,0,0,1,1.27.23,1,1,0,0,1,.48.56,1.63,1.63,0,0,1,.1.53l-.3.15a3.91,3.91,0,0,1,.27-.36,3.47,3.47,0,0,1,.58-.55,3.79,3.79,0,0,1,.92-.49,3.6,3.6,0,0,1,1.23-.2c.19,0,.39,0,.62,0a4.89,4.89,0,0,1,.7.15,3.32,3.32,0,0,1,.66.3,1.69,1.69,0,0,1,.49.47,1.17,1.17,0,0,1,.18.67,3.06,3.06,0,0,1-.47,1.74,1.42,1.42,0,0,1-1.2.71,2,2,0,0,1-.6-.06,1.11,1.11,0,0,1-.29-.15,1.1,1.1,0,0,0-.26-.15,1.42,1.42,0,0,0-.55-.07,2.71,2.71,0,0,0-.71.1,1.88,1.88,0,0,0-.63.32,1.45,1.45,0,0,0-.61,1.23V33a5.4,5.4,0,0,1-.08.91,1.07,1.07,0,0,1-.49.69A2.71,2.71,0,0,1,142.67,34.85Z"/><path class="cls-2" d="M162.07,34.83a2.41,2.41,0,0,1-1.37-.32.93.93,0,0,1-.43-.8l.25-.43a2.72,2.72,0,0,1-.57.61,4.08,4.08,0,0,1-1.12.65,4.29,4.29,0,0,1-1.66.29,5,5,0,0,1-2.18-.5,5.78,5.78,0,0,1-1.84-1.39,7.24,7.24,0,0,1-1.28-2,6.16,6.16,0,0,1-.47-2.38,5.87,5.87,0,0,1,.48-2.34A6.62,6.62,0,0,1,155,22.88a5,5,0,0,1,2.18-.5,4.26,4.26,0,0,1,1.57.26,4.16,4.16,0,0,1,1.09.62,3.43,3.43,0,0,1,.66.67l-.22-.35a1,1,0,0,1,.44-.91,2.39,2.39,0,0,1,1.38-.31,2.34,2.34,0,0,1,1.29.27,1.16,1.16,0,0,1,.48.73,5.8,5.8,0,0,1,.08.95v8.62a4.73,4.73,0,0,1-.09.93,1.07,1.07,0,0,1-.48.71A2.36,2.36,0,0,1,162.07,34.83Zm-4.37-3.72a2.21,2.21,0,0,0,1.2-.34,2.66,2.66,0,0,0,.85-.91,2.67,2.67,0,0,0,0-2.57,2.45,2.45,0,0,0-3.36-.87,2.53,2.53,0,0,0-1.24,2.21,2.34,2.34,0,0,0,.34,1.24,2.56,2.56,0,0,0,.92.9A2.7,2.7,0,0,0,157.7,31.11Z"/><path class="cls-2" d="M167.82,34.86A1.84,1.84,0,0,1,166,33a2,2,0,0,1,.14-.73,1.81,1.81,0,0,1,.41-.62l5.68-5.5h-3.8a4.45,4.45,0,0,1-.91-.1,1.28,1.28,0,0,1-.73-.49,2.29,2.29,0,0,1-.28-1.31,2.22,2.22,0,0,1,.29-1.32,1.19,1.19,0,0,1,.72-.47,4.53,4.53,0,0,1,.91-.09h7.83a1.8,1.8,0,0,1,1.85,1.85,2.18,2.18,0,0,1-.14.76,1.45,1.45,0,0,1-.39.59L172,31.09h4.52a4.49,4.49,0,0,1,.93.1,1.18,1.18,0,0,1,.69.5A2.59,2.59,0,0,1,178.4,33a2.3,2.3,0,0,1-.28,1.3,1.07,1.07,0,0,1-.7.47,5.25,5.25,0,0,1-.92.08Z"/><path class="cls-2" d="M190.65,34.85a2.34,2.34,0,0,1-1.38-.33.88.88,0,0,1-.42-.8l.25-.42a2.59,2.59,0,0,1-.58.61,4.11,4.11,0,0,1-1.11.65,4.33,4.33,0,0,1-1.66.29,5,5,0,0,1-2.19-.5A6,6,0,0,1,181.72,33a7,7,0,0,1-1.27-2,6,6,0,0,1-.47-2.37,5.82,5.82,0,0,1,.47-2.34,6.72,6.72,0,0,1,1.29-2,6.19,6.19,0,0,1,1.84-1.36,4.8,4.8,0,0,1,2.17-.5,4.32,4.32,0,0,1,1.58.26,4.86,4.86,0,0,1,1.09.61,3.45,3.45,0,0,1,.66.68l-.23-.35a1,1,0,0,1,.44-.91,3.24,3.24,0,0,1,2.68,0,1.12,1.12,0,0,1,.47.73,4.79,4.79,0,0,1,.09.95V33a4.73,4.73,0,0,1-.09.93,1,1,0,0,1-.47.71A2.5,2.5,0,0,1,190.65,34.85Zm-4.38-3.73a2.21,2.21,0,0,0,1.2-.33,2.63,2.63,0,0,0,.86-.92,2.58,2.58,0,0,0,.32-1.27,2.62,2.62,0,0,0-.32-1.29,2.5,2.5,0,0,0-.88-.89,2.41,2.41,0,0,0-1.22-.32,2.48,2.48,0,0,0-1.27.33,2.64,2.64,0,0,0-.9.92,2.54,2.54,0,0,0-.33,1.3,2.36,2.36,0,0,0,.33,1.23,2.44,2.44,0,0,0,.93.9A2.48,2.48,0,0,0,186.27,31.12Z"/><path class="cls-2" d="M206.35,34.88a14.2,14.2,0,0,1-1.83-.1,3.7,3.7,0,0,1-1.35-.4,2.49,2.49,0,0,1-.9-.84,3.85,3.85,0,0,1-.52-1.37,10,10,0,0,1-.18-2.06V18.56a3.9,3.9,0,0,1,.1-.93,1.21,1.21,0,0,1,.49-.7,2.39,2.39,0,0,1,1.31-.27,2.34,2.34,0,0,1,1.29.27,1.21,1.21,0,0,1,.49.7,4.57,4.57,0,0,1,.1.93V29.93a4.22,4.22,0,0,0,0,.67.8.8,0,0,0,.15.41.49.49,0,0,0,.31.2,2.4,2.4,0,0,0,.52.05,2.68,2.68,0,0,1,.62.07,1,1,0,0,1,.53.46,2.53,2.53,0,0,1,.23,1.25,2.72,2.72,0,0,1-.23,1.29.88.88,0,0,1-.54.48A2.65,2.65,0,0,1,206.35,34.88Z"/><path class="cls-2" d="M219.77,34.87a2.33,2.33,0,0,1-1.37-.33.88.88,0,0,1-.43-.8l.25-.42a3,3,0,0,1-.57.61,4.35,4.35,0,0,1-1.12.65,4.12,4.12,0,0,1-1.66.28,4.91,4.91,0,0,1-2.19-.5A5.7,5.7,0,0,1,210.85,33a7,7,0,0,1-1.28-2,6.15,6.15,0,0,1-.47-2.37,5.83,5.83,0,0,1,.48-2.34,6.59,6.59,0,0,1,3.12-3.34,5,5,0,0,1,2.18-.5,4.25,4.25,0,0,1,1.57.27,4.15,4.15,0,0,1,1.09.61,3.2,3.2,0,0,1,.66.68l-.22-.35a1,1,0,0,1,.44-.92,2.47,2.47,0,0,1,1.38-.31,2.33,2.33,0,0,1,1.29.28,1.11,1.11,0,0,1,.48.72,5.8,5.8,0,0,1,.08.95V33a4.63,4.63,0,0,1-.09.92,1.11,1.11,0,0,1-.48.72A2.45,2.45,0,0,1,219.77,34.87Zm-4.37-3.73a2.13,2.13,0,0,0,1.2-.34,2.57,2.57,0,0,0,.85-.91,2.73,2.73,0,0,0,.33-1.27,2.49,2.49,0,0,0-1.2-2.18,2.35,2.35,0,0,0-1.23-.32,2.33,2.33,0,0,0-1.26.33,2.53,2.53,0,0,0-.9.91,2.5,2.5,0,0,0-.34,1.3,2.31,2.31,0,0,0,.34,1.24,2.41,2.41,0,0,0,.92.9A2.49,2.49,0,0,0,215.4,31.14Z"/><path class="cls-2" d="M236.67,35a2.25,2.25,0,0,1-1-.22,1.5,1.5,0,0,1-.66-.7l-4.49-9a2,2,0,0,1-.26-1.49,2,2,0,0,1,1.13-1.06,2.43,2.43,0,0,1,1.52-.31c.37.09.71.49,1,1.19l2.79,6.5,2.81-6.43c.3-.71.64-1.13,1-1.24a2.21,2.21,0,0,1,1.56.32q1,.48,1.14,1.11a2.41,2.41,0,0,1-.31,1.47l-4.48,8.92a1.48,1.48,0,0,1-.65.7A2.34,2.34,0,0,1,236.67,35Z"/><path class="cls-2" d="M251.27,35.11a6.29,6.29,0,0,1-2.34-.46,7.06,7.06,0,0,1-2.11-1.32,6.12,6.12,0,0,1-2.07-4.67,6.16,6.16,0,0,1,.51-2.51,6.88,6.88,0,0,1,1.42-2.07,6.75,6.75,0,0,1,2.06-1.41,6.13,6.13,0,0,1,2.49-.51,6.24,6.24,0,0,1,3.26.87,6.53,6.53,0,0,1,2.34,2.33,6.71,6.71,0,0,1,.31,6,6.65,6.65,0,0,1-3.58,3.33A6.36,6.36,0,0,1,251.27,35.11Zm-.05-3.77a2.85,2.85,0,0,0,1.23-.3,2.81,2.81,0,0,0,1.05-.9,2.61,2.61,0,0,0,.42-1.53,2.77,2.77,0,0,0-.34-1.4,2.58,2.58,0,0,0-1-.94,2.88,2.88,0,0,0-1.41-.33,2.51,2.51,0,0,0-1.34.35,2.73,2.73,0,0,0-1,1,2.93,2.93,0,0,0,.05,2.9,2.49,2.49,0,0,0,1,.9A2.9,2.9,0,0,0,251.22,31.34Z"/><path class="cls-2" d="M265.9,35a6.64,6.64,0,0,1-2.24-.41,7,7,0,0,1-2.1-1.22,5.92,5.92,0,0,1-1.54-2,6.35,6.35,0,0,1-.57-2.75,6,6,0,0,1,2.1-4.7,7.08,7.08,0,0,1,2.09-1.21,6.61,6.61,0,0,1,2.21-.41,6.15,6.15,0,0,1,1.67.21,5.78,5.78,0,0,1,1.24.52,3.6,3.6,0,0,1,.74.52,7.31,7.31,0,0,1,.75.65,1.05,1.05,0,0,1,.3.85,1.61,1.61,0,0,1-.17.57,4.41,4.41,0,0,1-.38.58c-.52.7-1,1-1.5,1a2.27,2.27,0,0,1-.69-.25l-.6-.35a3.88,3.88,0,0,0-.61-.31,2,2,0,0,0-.75-.14,2.53,2.53,0,0,0-2.21,1.24,2.44,2.44,0,0,0-.34,1.31,2.53,2.53,0,0,0,1.24,2.21,2.55,2.55,0,0,0,2,.24,2.16,2.16,0,0,0,.55-.24l.35-.21.58-.36a1.05,1.05,0,0,1,.55-.16,1.24,1.24,0,0,1,.74.26,4.1,4.1,0,0,1,.81.84,2,2,0,0,1,.48,1,1.17,1.17,0,0,1-.21.87,2.79,2.79,0,0,1-.85.76,5.06,5.06,0,0,1-.71.45,7.21,7.21,0,0,1-1.25.5A5.7,5.7,0,0,1,265.9,35Z"/><path class="cls-2" d="M283.05,34.91a2.34,2.34,0,0,1-1.38-.33.89.89,0,0,1-.42-.8l.25-.43a2.82,2.82,0,0,1-.58.62,4.11,4.11,0,0,1-1.11.65,4.34,4.34,0,0,1-1.66.28,5,5,0,0,1-2.19-.5A5.89,5.89,0,0,1,274.12,33a7,7,0,0,1-1.27-2,6,6,0,0,1-.48-2.38,5.82,5.82,0,0,1,.48-2.33,6.9,6.9,0,0,1,1.29-2A6.24,6.24,0,0,1,276,23a4.93,4.93,0,0,1,2.17-.5,4.14,4.14,0,0,1,1.58.27,4.5,4.5,0,0,1,1.09.61,3.43,3.43,0,0,1,.66.67l-.23-.35a1.05,1.05,0,0,1,.44-.91,2.4,2.4,0,0,1,1.39-.31,2.24,2.24,0,0,1,1.29.28,1.14,1.14,0,0,1,.47.72,4.86,4.86,0,0,1,.09.95V33a4.7,4.7,0,0,1-.09.92,1,1,0,0,1-.47.71A2.39,2.39,0,0,1,283.05,34.91Zm-4.38-3.73a2.13,2.13,0,0,0,1.2-.34,2.48,2.48,0,0,0,.85-.91,2.52,2.52,0,0,0,.33-1.28,2.56,2.56,0,0,0-.32-1.28,2.42,2.42,0,0,0-.88-.89,2.33,2.33,0,0,0-1.22-.33,2.49,2.49,0,0,0-1.27.34,2.53,2.53,0,0,0-1.24,2.21,2.43,2.43,0,0,0,.34,1.24,2.6,2.6,0,0,0,2.21,1.24Z"/><path class="cls-2" d="M292.22,34.94a14,14,0,0,1-1.82-.11,3.58,3.58,0,0,1-1.35-.4,2.39,2.39,0,0,1-.9-.83,4,4,0,0,1-.53-1.38,10.88,10.88,0,0,1-.17-2.06V18.61a3.89,3.89,0,0,1,.11-.93A1.19,1.19,0,0,1,288,17a2.41,2.41,0,0,1,1.32-.27,2.28,2.28,0,0,1,1.28.27,1.2,1.2,0,0,1,.49.71,3.82,3.82,0,0,1,.1.92V30a5.83,5.83,0,0,0,0,.66.9.9,0,0,0,.15.41.54.54,0,0,0,.31.2,2.5,2.5,0,0,0,.53,0,2.62,2.62,0,0,1,.61.08.89.89,0,0,1,.54.45,2.55,2.55,0,0,1,.22,1.25,2.81,2.81,0,0,1-.22,1.3.89.89,0,0,1-.54.47A2.74,2.74,0,0,1,292.22,34.94Z"/><path class="cls-2" d="M310.12,35.2a8.42,8.42,0,0,1-3.39-.69,8.76,8.76,0,0,1-2.78-1.9,8.87,8.87,0,0,1-1.88-2.82,8.73,8.73,0,0,1-.67-3.45,9.41,9.41,0,0,1,2.49-6.41A8.62,8.62,0,0,1,306.61,18a8,8,0,0,1,3.3-.69,8.53,8.53,0,0,1,6.18,2.6A9.12,9.12,0,0,1,318,22.75a9,9,0,0,1,.67,3.53,9.09,9.09,0,0,1-2.5,6.31,8.58,8.58,0,0,1-2.71,1.92A8,8,0,0,1,310.12,35.2ZM310,31.4a4.55,4.55,0,0,0,1.87-.4,5,5,0,0,0,1.54-1.09,5,5,0,0,0,1-1.62,5.61,5.61,0,0,0,.36-2,5.28,5.28,0,0,0-1.41-3.66,4.81,4.81,0,0,0-1.52-1.1,4.51,4.51,0,0,0-1.87-.39,4.44,4.44,0,0,0-1.84.39,4.66,4.66,0,0,0-1.52,1.1,5.41,5.41,0,0,0-1.05,1.65,5.32,5.32,0,0,0,0,4,5,5,0,0,0,1.05,1.63A4.88,4.88,0,0,0,308.16,31,4.44,4.44,0,0,0,310,31.4Z"/><path class="cls-2" d="M326.57,35.16a6.3,6.3,0,0,1-2.34-.47,7,7,0,0,1-2.11-1.31,6.38,6.38,0,0,1-1.51-2,6.47,6.47,0,0,1-.05-5.15A7,7,0,0,1,322,24.13,6.63,6.63,0,0,1,324,22.72a6.13,6.13,0,0,1,2.49-.51,6.33,6.33,0,0,1,3.26.86,6.72,6.72,0,0,1,2.34,2.34,6.34,6.34,0,0,1,.87,3.28,6.22,6.22,0,0,1-2.07,4.74,6.53,6.53,0,0,1-4.36,1.73Zm-.05-3.78a2.85,2.85,0,0,0,1.23-.3,2.81,2.81,0,0,0,1.05-.9,2.57,2.57,0,0,0,.42-1.52,2.65,2.65,0,0,0-.35-1.4,2.48,2.48,0,0,0-1-.94A2.83,2.83,0,0,0,326.5,26a2.6,2.6,0,0,0-1.34.35,2.65,2.65,0,0,0-1,1,2.93,2.93,0,0,0,.05,2.9,2.43,2.43,0,0,0,1,.9A2.76,2.76,0,0,0,326.52,31.38Z"/><path class="cls-3" d="M137.11,17.34a4,4,0,0,1,.79.08.9.9,0,0,1,.58.42,2.23,2.23,0,0,1,.23,1.15,2.15,2.15,0,0,1-.23,1.13.91.91,0,0,1-.6.42,4.09,4.09,0,0,1-.8.08h-4V33a4.29,4.29,0,0,1-.09.9,1.13,1.13,0,0,1-.47.69,2.58,2.58,0,0,1-1.34.26,2.45,2.45,0,0,1-1.28-.26,1.06,1.06,0,0,1-.48-.7,4.63,4.63,0,0,1-.09-.92V20.61h-4a3.33,3.33,0,0,1-.78-.09,1,1,0,0,1-.61-.42,2.06,2.06,0,0,1-.24-1.14,2.06,2.06,0,0,1,.24-1.13,1,1,0,0,1,.61-.42,4,4,0,0,1,.78-.07Z"/><path class="cls-3" d="M142.67,34.85a2.39,2.39,0,0,1-1.31-.27,1,1,0,0,1-.47-.71,4.7,4.7,0,0,1-.09-.92V24.22a4.59,4.59,0,0,1,.09-.93,1,1,0,0,1,.49-.68,2.47,2.47,0,0,1,1.32-.26,2.65,2.65,0,0,1,1.27.23,1,1,0,0,1,.48.56,1.63,1.63,0,0,1,.1.53l-.3.15a3.91,3.91,0,0,1,.27-.36,3.47,3.47,0,0,1,.58-.55,3.79,3.79,0,0,1,.92-.49,3.6,3.6,0,0,1,1.23-.2c.19,0,.39,0,.62,0a4.89,4.89,0,0,1,.7.15,3.32,3.32,0,0,1,.66.3,1.69,1.69,0,0,1,.49.47,1.17,1.17,0,0,1,.18.67,3.06,3.06,0,0,1-.47,1.74,1.42,1.42,0,0,1-1.2.71,2,2,0,0,1-.6-.06,1.11,1.11,0,0,1-.29-.15,1.1,1.1,0,0,0-.26-.15,1.42,1.42,0,0,0-.55-.07,2.71,2.71,0,0,0-.71.1,1.88,1.88,0,0,0-.63.32,1.45,1.45,0,0,0-.61,1.23V33a5.4,5.4,0,0,1-.08.91,1.07,1.07,0,0,1-.49.69A2.71,2.71,0,0,1,142.67,34.85Z"/><path class="cls-3" d="M162.07,34.83a2.41,2.41,0,0,1-1.37-.32.93.93,0,0,1-.43-.8l.25-.43a2.72,2.72,0,0,1-.57.61,4.08,4.08,0,0,1-1.12.65,4.29,4.29,0,0,1-1.66.29,5,5,0,0,1-2.18-.5,5.78,5.78,0,0,1-1.84-1.39,7.24,7.24,0,0,1-1.28-2,6.16,6.16,0,0,1-.47-2.38,5.87,5.87,0,0,1,.48-2.34A6.62,6.62,0,0,1,155,22.88a5,5,0,0,1,2.18-.5,4.26,4.26,0,0,1,1.57.26,4.16,4.16,0,0,1,1.09.62,3.43,3.43,0,0,1,.66.67l-.22-.35a1,1,0,0,1,.44-.91,2.39,2.39,0,0,1,1.38-.31,2.34,2.34,0,0,1,1.29.27,1.16,1.16,0,0,1,.48.73,5.8,5.8,0,0,1,.08.95v8.62a4.73,4.73,0,0,1-.09.93,1.07,1.07,0,0,1-.48.71A2.36,2.36,0,0,1,162.07,34.83Zm-4.37-3.72a2.21,2.21,0,0,0,1.2-.34,2.66,2.66,0,0,0,.85-.91,2.67,2.67,0,0,0,0-2.57,2.45,2.45,0,0,0-3.36-.87,2.53,2.53,0,0,0-1.24,2.21,2.34,2.34,0,0,0,.34,1.24,2.56,2.56,0,0,0,.92.9A2.7,2.7,0,0,0,157.7,31.11Z"/><path class="cls-3" d="M167.82,34.86A1.84,1.84,0,0,1,166,33a2,2,0,0,1,.14-.73,1.81,1.81,0,0,1,.41-.62l5.68-5.5h-3.8a4.45,4.45,0,0,1-.91-.1,1.28,1.28,0,0,1-.73-.49,2.29,2.29,0,0,1-.28-1.31,2.22,2.22,0,0,1,.29-1.32,1.19,1.19,0,0,1,.72-.47,4.53,4.53,0,0,1,.91-.09h7.83a1.8,1.8,0,0,1,1.85,1.85,2.18,2.18,0,0,1-.14.76,1.45,1.45,0,0,1-.39.59L172,31.09h4.52a4.49,4.49,0,0,1,.93.1,1.18,1.18,0,0,1,.69.5A2.59,2.59,0,0,1,178.4,33a2.3,2.3,0,0,1-.28,1.3,1.07,1.07,0,0,1-.7.47,5.25,5.25,0,0,1-.92.08Z"/><path class="cls-3" d="M190.65,34.85a2.34,2.34,0,0,1-1.38-.33.88.88,0,0,1-.42-.8l.25-.42a2.59,2.59,0,0,1-.58.61,4.11,4.11,0,0,1-1.11.65,4.33,4.33,0,0,1-1.66.29,5,5,0,0,1-2.19-.5A6,6,0,0,1,181.72,33a7,7,0,0,1-1.27-2,6,6,0,0,1-.47-2.37,5.82,5.82,0,0,1,.47-2.34,6.72,6.72,0,0,1,1.29-2,6.19,6.19,0,0,1,1.84-1.36,4.8,4.8,0,0,1,2.17-.5,4.32,4.32,0,0,1,1.58.26,4.86,4.86,0,0,1,1.09.61,3.45,3.45,0,0,1,.66.68l-.23-.35a1,1,0,0,1,.44-.91,3.24,3.24,0,0,1,2.68,0,1.12,1.12,0,0,1,.47.73,4.79,4.79,0,0,1,.09.95V33a4.73,4.73,0,0,1-.09.93,1,1,0,0,1-.47.71A2.5,2.5,0,0,1,190.65,34.85Zm-4.38-3.73a2.21,2.21,0,0,0,1.2-.33,2.63,2.63,0,0,0,.86-.92,2.58,2.58,0,0,0,.32-1.27,2.62,2.62,0,0,0-.32-1.29,2.5,2.5,0,0,0-.88-.89,2.41,2.41,0,0,0-1.22-.32,2.48,2.48,0,0,0-1.27.33,2.64,2.64,0,0,0-.9.92,2.54,2.54,0,0,0-.33,1.3,2.36,2.36,0,0,0,.33,1.23,2.44,2.44,0,0,0,.93.9A2.48,2.48,0,0,0,186.27,31.12Z"/><path class="cls-3" d="M206.35,34.88a14.2,14.2,0,0,1-1.83-.1,3.7,3.7,0,0,1-1.35-.4,2.49,2.49,0,0,1-.9-.84,3.85,3.85,0,0,1-.52-1.37,10,10,0,0,1-.18-2.06V18.56a3.9,3.9,0,0,1,.1-.93,1.21,1.21,0,0,1,.49-.7,2.39,2.39,0,0,1,1.31-.27,2.34,2.34,0,0,1,1.29.27,1.21,1.21,0,0,1,.49.7,4.57,4.57,0,0,1,.1.93V29.93a4.22,4.22,0,0,0,0,.67.8.8,0,0,0,.15.41.49.49,0,0,0,.31.2,2.4,2.4,0,0,0,.52.05,2.68,2.68,0,0,1,.62.07,1,1,0,0,1,.53.46,2.53,2.53,0,0,1,.23,1.25,2.72,2.72,0,0,1-.23,1.29.88.88,0,0,1-.54.48A2.65,2.65,0,0,1,206.35,34.88Z"/><path class="cls-3" d="M219.77,34.87a2.33,2.33,0,0,1-1.37-.33.88.88,0,0,1-.43-.8l.25-.42a3,3,0,0,1-.57.61,4.35,4.35,0,0,1-1.12.65,4.12,4.12,0,0,1-1.66.28,4.91,4.91,0,0,1-2.19-.5A5.7,5.7,0,0,1,210.85,33a7,7,0,0,1-1.28-2,6.15,6.15,0,0,1-.47-2.37,5.83,5.83,0,0,1,.48-2.34,6.59,6.59,0,0,1,3.12-3.34,5,5,0,0,1,2.18-.5,4.25,4.25,0,0,1,1.57.27,4.15,4.15,0,0,1,1.09.61,3.2,3.2,0,0,1,.66.68l-.22-.35a1,1,0,0,1,.44-.92,2.47,2.47,0,0,1,1.38-.31,2.33,2.33,0,0,1,1.29.28,1.11,1.11,0,0,1,.48.72,5.8,5.8,0,0,1,.08.95V33a4.63,4.63,0,0,1-.09.92,1.11,1.11,0,0,1-.48.72A2.45,2.45,0,0,1,219.77,34.87Zm-4.37-3.73a2.13,2.13,0,0,0,1.2-.34,2.57,2.57,0,0,0,.85-.91,2.73,2.73,0,0,0,.33-1.27,2.49,2.49,0,0,0-1.2-2.18,2.35,2.35,0,0,0-1.23-.32,2.33,2.33,0,0,0-1.26.33,2.53,2.53,0,0,0-.9.91,2.5,2.5,0,0,0-.34,1.3,2.31,2.31,0,0,0,.34,1.24,2.41,2.41,0,0,0,.92.9A2.49,2.49,0,0,0,215.4,31.14Z"/><path class="cls-3" d="M236.67,35a2.25,2.25,0,0,1-1-.22,1.5,1.5,0,0,1-.66-.7l-4.49-9a2,2,0,0,1-.26-1.49,2,2,0,0,1,1.13-1.06,2.43,2.43,0,0,1,1.52-.31c.37.09.71.49,1,1.19l2.79,6.5,2.81-6.43c.3-.71.64-1.13,1-1.24a2.21,2.21,0,0,1,1.56.32q1,.48,1.14,1.11a2.41,2.41,0,0,1-.31,1.47l-4.48,8.92a1.48,1.48,0,0,1-.65.7A2.34,2.34,0,0,1,236.67,35Z"/><path class="cls-3" d="M251.27,35.11a6.29,6.29,0,0,1-2.34-.46,7.06,7.06,0,0,1-2.11-1.32,6.12,6.12,0,0,1-2.07-4.67,6.16,6.16,0,0,1,.51-2.51,6.88,6.88,0,0,1,1.42-2.07,6.75,6.75,0,0,1,2.06-1.41,6.13,6.13,0,0,1,2.49-.51,6.24,6.24,0,0,1,3.26.87,6.53,6.53,0,0,1,2.34,2.33,6.71,6.71,0,0,1,.31,6,6.65,6.65,0,0,1-3.58,3.33A6.36,6.36,0,0,1,251.27,35.11Zm-.05-3.77a2.85,2.85,0,0,0,1.23-.3,2.81,2.81,0,0,0,1.05-.9,2.61,2.61,0,0,0,.42-1.53,2.77,2.77,0,0,0-.34-1.4,2.58,2.58,0,0,0-1-.94,2.88,2.88,0,0,0-1.41-.33,2.51,2.51,0,0,0-1.34.35,2.73,2.73,0,0,0-1,1,2.93,2.93,0,0,0,.05,2.9,2.49,2.49,0,0,0,1,.9A2.9,2.9,0,0,0,251.22,31.34Z"/><path class="cls-3" d="M265.9,35a6.64,6.64,0,0,1-2.24-.41,7,7,0,0,1-2.1-1.22,5.92,5.92,0,0,1-1.54-2,6.35,6.35,0,0,1-.57-2.75,6,6,0,0,1,2.1-4.7,7.08,7.08,0,0,1,2.09-1.21,6.61,6.61,0,0,1,2.21-.41,6.15,6.15,0,0,1,1.67.21,5.78,5.78,0,0,1,1.24.52,3.6,3.6,0,0,1,.74.52,7.31,7.31,0,0,1,.75.65,1.05,1.05,0,0,1,.3.85,1.61,1.61,0,0,1-.17.57,4.41,4.41,0,0,1-.38.58c-.52.7-1,1-1.5,1a2.27,2.27,0,0,1-.69-.25l-.6-.35a3.88,3.88,0,0,0-.61-.31,2,2,0,0,0-.75-.14,2.53,2.53,0,0,0-2.21,1.24,2.44,2.44,0,0,0-.34,1.31,2.53,2.53,0,0,0,1.24,2.21,2.55,2.55,0,0,0,2,.24,2.16,2.16,0,0,0,.55-.24l.35-.21.58-.36a1.05,1.05,0,0,1,.55-.16,1.24,1.24,0,0,1,.74.26,4.1,4.1,0,0,1,.81.84,2,2,0,0,1,.48,1,1.17,1.17,0,0,1-.21.87,2.79,2.79,0,0,1-.85.76,5.06,5.06,0,0,1-.71.45,7.21,7.21,0,0,1-1.25.5A5.7,5.7,0,0,1,265.9,35Z"/><path class="cls-3" d="M283.05,34.91a2.34,2.34,0,0,1-1.38-.33.89.89,0,0,1-.42-.8l.25-.43a2.82,2.82,0,0,1-.58.62,4.11,4.11,0,0,1-1.11.65,4.34,4.34,0,0,1-1.66.28,5,5,0,0,1-2.19-.5A5.89,5.89,0,0,1,274.12,33a7,7,0,0,1-1.27-2,6,6,0,0,1-.48-2.38,5.82,5.82,0,0,1,.48-2.33,6.9,6.9,0,0,1,1.29-2A6.24,6.24,0,0,1,276,23a4.93,4.93,0,0,1,2.17-.5,4.14,4.14,0,0,1,1.58.27,4.5,4.5,0,0,1,1.09.61,3.43,3.43,0,0,1,.66.67l-.23-.35a1.05,1.05,0,0,1,.44-.91,2.4,2.4,0,0,1,1.39-.31,2.24,2.24,0,0,1,1.29.28,1.14,1.14,0,0,1,.47.72,4.86,4.86,0,0,1,.09.95V33a4.7,4.7,0,0,1-.09.92,1,1,0,0,1-.47.71A2.39,2.39,0,0,1,283.05,34.91Zm-4.38-3.73a2.13,2.13,0,0,0,1.2-.34,2.48,2.48,0,0,0,.85-.91,2.52,2.52,0,0,0,.33-1.28,2.56,2.56,0,0,0-.32-1.28,2.42,2.42,0,0,0-.88-.89,2.33,2.33,0,0,0-1.22-.33,2.49,2.49,0,0,0-1.27.34,2.53,2.53,0,0,0-1.24,2.21,2.43,2.43,0,0,0,.34,1.24,2.6,2.6,0,0,0,2.21,1.24Z"/><path class="cls-3" d="M292.22,34.94a14,14,0,0,1-1.82-.11,3.58,3.58,0,0,1-1.35-.4,2.39,2.39,0,0,1-.9-.83,4,4,0,0,1-.53-1.38,10.88,10.88,0,0,1-.17-2.06V18.61a3.89,3.89,0,0,1,.11-.93A1.19,1.19,0,0,1,288,17a2.41,2.41,0,0,1,1.32-.27,2.28,2.28,0,0,1,1.28.27,1.2,1.2,0,0,1,.49.71,3.82,3.82,0,0,1,.1.92V30a5.83,5.83,0,0,0,0,.66.9.9,0,0,0,.15.41.54.54,0,0,0,.31.2,2.5,2.5,0,0,0,.53,0,2.62,2.62,0,0,1,.61.08.89.89,0,0,1,.54.45,2.55,2.55,0,0,1,.22,1.25,2.81,2.81,0,0,1-.22,1.3.89.89,0,0,1-.54.47A2.74,2.74,0,0,1,292.22,34.94Z"/><path class="cls-3" d="M310.12,35.2a8.42,8.42,0,0,1-3.39-.69,8.76,8.76,0,0,1-2.78-1.9,8.87,8.87,0,0,1-1.88-2.82,8.73,8.73,0,0,1-.67-3.45,9.41,9.41,0,0,1,2.49-6.41A8.62,8.62,0,0,1,306.61,18a8,8,0,0,1,3.3-.69,8.53,8.53,0,0,1,6.18,2.6A9.12,9.12,0,0,1,318,22.75a9,9,0,0,1,.67,3.53,9.09,9.09,0,0,1-2.5,6.31,8.58,8.58,0,0,1-2.71,1.92A8,8,0,0,1,310.12,35.2ZM310,31.4a4.55,4.55,0,0,0,1.87-.4,5,5,0,0,0,1.54-1.09,5,5,0,0,0,1-1.62,5.61,5.61,0,0,0,.36-2,5.28,5.28,0,0,0-1.41-3.66,4.81,4.81,0,0,0-1.52-1.1,4.51,4.51,0,0,0-1.87-.39,4.44,4.44,0,0,0-1.84.39,4.66,4.66,0,0,0-1.52,1.1,5.41,5.41,0,0,0-1.05,1.65,5.32,5.32,0,0,0,0,4,5,5,0,0,0,1.05,1.63A4.88,4.88,0,0,0,308.16,31,4.44,4.44,0,0,0,310,31.4Z"/><path class="cls-3" d="M326.57,35.16a6.3,6.3,0,0,1-2.34-.47,7,7,0,0,1-2.11-1.31,6.38,6.38,0,0,1-1.51-2,6.47,6.47,0,0,1-.05-5.15A7,7,0,0,1,322,24.13,6.63,6.63,0,0,1,324,22.72a6.13,6.13,0,0,1,2.49-.51,6.33,6.33,0,0,1,3.26.86,6.72,6.72,0,0,1,2.34,2.34,6.34,6.34,0,0,1,.87,3.28,6.22,6.22,0,0,1-2.07,4.74,6.53,6.53,0,0,1-4.36,1.73Zm-.05-3.78a2.85,2.85,0,0,0,1.23-.3,2.81,2.81,0,0,0,1.05-.9,2.57,2.57,0,0,0,.42-1.52,2.65,2.65,0,0,0-.35-1.4,2.48,2.48,0,0,0-1-.94A2.83,2.83,0,0,0,326.5,26a2.6,2.6,0,0,0-1.34.35,2.65,2.65,0,0,0-1,1,2.93,2.93,0,0,0,.05,2.9,2.43,2.43,0,0,0,1,.9A2.76,2.76,0,0,0,326.52,31.38Z"/><path class="cls-2" d="M137.11,17.34a4,4,0,0,1,.79.08.9.9,0,0,1,.58.42,2.23,2.23,0,0,1,.23,1.15,2.15,2.15,0,0,1-.23,1.13.91.91,0,0,1-.6.42,4.09,4.09,0,0,1-.8.08h-4V33a4.29,4.29,0,0,1-.09.9,1.13,1.13,0,0,1-.47.69,2.58,2.58,0,0,1-1.34.26,2.45,2.45,0,0,1-1.28-.26,1.06,1.06,0,0,1-.48-.7,4.63,4.63,0,0,1-.09-.92V20.61h-4a3.33,3.33,0,0,1-.78-.09,1,1,0,0,1-.61-.42,2.06,2.06,0,0,1-.24-1.14,2.06,2.06,0,0,1,.24-1.13,1,1,0,0,1,.61-.42,4,4,0,0,1,.78-.07Z"/><path class="cls-2" d="M142.67,34.85a2.39,2.39,0,0,1-1.31-.27,1,1,0,0,1-.47-.71,4.7,4.7,0,0,1-.09-.92V24.22a4.59,4.59,0,0,1,.09-.93,1,1,0,0,1,.49-.68,2.47,2.47,0,0,1,1.32-.26,2.65,2.65,0,0,1,1.27.23,1,1,0,0,1,.48.56,1.63,1.63,0,0,1,.1.53l-.3.15a3.91,3.91,0,0,1,.27-.36,3.47,3.47,0,0,1,.58-.55,3.79,3.79,0,0,1,.92-.49,3.6,3.6,0,0,1,1.23-.2c.19,0,.39,0,.62,0a4.89,4.89,0,0,1,.7.15,3.32,3.32,0,0,1,.66.3,1.69,1.69,0,0,1,.49.47,1.17,1.17,0,0,1,.18.67,3.06,3.06,0,0,1-.47,1.74,1.42,1.42,0,0,1-1.2.71,2,2,0,0,1-.6-.06,1.11,1.11,0,0,1-.29-.15,1.1,1.1,0,0,0-.26-.15,1.42,1.42,0,0,0-.55-.07,2.71,2.71,0,0,0-.71.1,1.88,1.88,0,0,0-.63.32,1.45,1.45,0,0,0-.61,1.23V33a5.4,5.4,0,0,1-.08.91,1.07,1.07,0,0,1-.49.69A2.71,2.71,0,0,1,142.67,34.85Z"/><path class="cls-2" d="M162.07,34.83a2.41,2.41,0,0,1-1.37-.32.93.93,0,0,1-.43-.8l.25-.43a2.72,2.72,0,0,1-.57.61,4.08,4.08,0,0,1-1.12.65,4.29,4.29,0,0,1-1.66.29,5,5,0,0,1-2.18-.5,5.78,5.78,0,0,1-1.84-1.39,7.24,7.24,0,0,1-1.28-2,6.16,6.16,0,0,1-.47-2.38,5.87,5.87,0,0,1,.48-2.34A6.62,6.62,0,0,1,155,22.88a5,5,0,0,1,2.18-.5,4.26,4.26,0,0,1,1.57.26,4.16,4.16,0,0,1,1.09.62,3.43,3.43,0,0,1,.66.67l-.22-.35a1,1,0,0,1,.44-.91,2.39,2.39,0,0,1,1.38-.31,2.34,2.34,0,0,1,1.29.27,1.16,1.16,0,0,1,.48.73,5.8,5.8,0,0,1,.08.95v8.62a4.73,4.73,0,0,1-.09.93,1.07,1.07,0,0,1-.48.71A2.36,2.36,0,0,1,162.07,34.83Zm-4.37-3.72a2.21,2.21,0,0,0,1.2-.34,2.66,2.66,0,0,0,.85-.91,2.67,2.67,0,0,0,0-2.57,2.45,2.45,0,0,0-3.36-.87,2.53,2.53,0,0,0-1.24,2.21,2.34,2.34,0,0,0,.34,1.24,2.56,2.56,0,0,0,.92.9A2.7,2.7,0,0,0,157.7,31.11Z"/><path class="cls-2" d="M167.82,34.86A1.84,1.84,0,0,1,166,33a2,2,0,0,1,.14-.73,1.81,1.81,0,0,1,.41-.62l5.68-5.5h-3.8a4.45,4.45,0,0,1-.91-.1,1.28,1.28,0,0,1-.73-.49,2.29,2.29,0,0,1-.28-1.31,2.22,2.22,0,0,1,.29-1.32,1.19,1.19,0,0,1,.72-.47,4.53,4.53,0,0,1,.91-.09h7.83a1.8,1.8,0,0,1,1.85,1.85,2.18,2.18,0,0,1-.14.76,1.45,1.45,0,0,1-.39.59L172,31.09h4.52a4.49,4.49,0,0,1,.93.1,1.18,1.18,0,0,1,.69.5A2.59,2.59,0,0,1,178.4,33a2.3,2.3,0,0,1-.28,1.3,1.07,1.07,0,0,1-.7.47,5.25,5.25,0,0,1-.92.08Z"/><path class="cls-2" d="M190.65,34.85a2.34,2.34,0,0,1-1.38-.33.88.88,0,0,1-.42-.8l.25-.42a2.59,2.59,0,0,1-.58.61,4.11,4.11,0,0,1-1.11.65,4.33,4.33,0,0,1-1.66.29,5,5,0,0,1-2.19-.5A6,6,0,0,1,181.72,33a7,7,0,0,1-1.27-2,6,6,0,0,1-.47-2.37,5.82,5.82,0,0,1,.47-2.34,6.72,6.72,0,0,1,1.29-2,6.19,6.19,0,0,1,1.84-1.36,4.8,4.8,0,0,1,2.17-.5,4.32,4.32,0,0,1,1.58.26,4.86,4.86,0,0,1,1.09.61,3.45,3.45,0,0,1,.66.68l-.23-.35a1,1,0,0,1,.44-.91,3.24,3.24,0,0,1,2.68,0,1.12,1.12,0,0,1,.47.73,4.79,4.79,0,0,1,.09.95V33a4.73,4.73,0,0,1-.09.93,1,1,0,0,1-.47.71A2.5,2.5,0,0,1,190.65,34.85Zm-4.38-3.73a2.21,2.21,0,0,0,1.2-.33,2.63,2.63,0,0,0,.86-.92,2.58,2.58,0,0,0,.32-1.27,2.62,2.62,0,0,0-.32-1.29,2.5,2.5,0,0,0-.88-.89,2.41,2.41,0,0,0-1.22-.32,2.48,2.48,0,0,0-1.27.33,2.64,2.64,0,0,0-.9.92,2.54,2.54,0,0,0-.33,1.3,2.36,2.36,0,0,0,.33,1.23,2.44,2.44,0,0,0,.93.9A2.48,2.48,0,0,0,186.27,31.12Z"/><path class="cls-2" d="M206.35,34.88a14.2,14.2,0,0,1-1.83-.1,3.7,3.7,0,0,1-1.35-.4,2.49,2.49,0,0,1-.9-.84,3.85,3.85,0,0,1-.52-1.37,10,10,0,0,1-.18-2.06V18.56a3.9,3.9,0,0,1,.1-.93,1.21,1.21,0,0,1,.49-.7,2.39,2.39,0,0,1,1.31-.27,2.34,2.34,0,0,1,1.29.27,1.21,1.21,0,0,1,.49.7,4.57,4.57,0,0,1,.1.93V29.93a4.22,4.22,0,0,0,0,.67.8.8,0,0,0,.15.41.49.49,0,0,0,.31.2,2.4,2.4,0,0,0,.52.05,2.68,2.68,0,0,1,.62.07,1,1,0,0,1,.53.46,2.53,2.53,0,0,1,.23,1.25,2.72,2.72,0,0,1-.23,1.29.88.88,0,0,1-.54.48A2.65,2.65,0,0,1,206.35,34.88Z"/><path class="cls-2" d="M219.77,34.87a2.33,2.33,0,0,1-1.37-.33.88.88,0,0,1-.43-.8l.25-.42a3,3,0,0,1-.57.61,4.35,4.35,0,0,1-1.12.65,4.12,4.12,0,0,1-1.66.28,4.91,4.91,0,0,1-2.19-.5A5.7,5.7,0,0,1,210.85,33a7,7,0,0,1-1.28-2,6.15,6.15,0,0,1-.47-2.37,5.83,5.83,0,0,1,.48-2.34,6.59,6.59,0,0,1,3.12-3.34,5,5,0,0,1,2.18-.5,4.25,4.25,0,0,1,1.57.27,4.15,4.15,0,0,1,1.09.61,3.2,3.2,0,0,1,.66.68l-.22-.35a1,1,0,0,1,.44-.92,2.47,2.47,0,0,1,1.38-.31,2.33,2.33,0,0,1,1.29.28,1.11,1.11,0,0,1,.48.72,5.8,5.8,0,0,1,.08.95V33a4.63,4.63,0,0,1-.09.92,1.11,1.11,0,0,1-.48.72A2.45,2.45,0,0,1,219.77,34.87Zm-4.37-3.73a2.13,2.13,0,0,0,1.2-.34,2.57,2.57,0,0,0,.85-.91,2.73,2.73,0,0,0,.33-1.27,2.49,2.49,0,0,0-1.2-2.18,2.35,2.35,0,0,0-1.23-.32,2.33,2.33,0,0,0-1.26.33,2.53,2.53,0,0,0-.9.91,2.5,2.5,0,0,0-.34,1.3,2.31,2.31,0,0,0,.34,1.24,2.41,2.41,0,0,0,.92.9A2.49,2.49,0,0,0,215.4,31.14Z"/><path class="cls-2" d="M236.67,35a2.25,2.25,0,0,1-1-.22,1.5,1.5,0,0,1-.66-.7l-4.49-9a2,2,0,0,1-.26-1.49,2,2,0,0,1,1.13-1.06,2.43,2.43,0,0,1,1.52-.31c.37.09.71.49,1,1.19l2.79,6.5,2.81-6.43c.3-.71.64-1.13,1-1.24a2.21,2.21,0,0,1,1.56.32q1,.48,1.14,1.11a2.41,2.41,0,0,1-.31,1.47l-4.48,8.92a1.48,1.48,0,0,1-.65.7A2.34,2.34,0,0,1,236.67,35Z"/><path class="cls-2" d="M251.27,35.11a6.29,6.29,0,0,1-2.34-.46,7.06,7.06,0,0,1-2.11-1.32,6.12,6.12,0,0,1-2.07-4.67,6.16,6.16,0,0,1,.51-2.51,6.88,6.88,0,0,1,1.42-2.07,6.75,6.75,0,0,1,2.06-1.41,6.13,6.13,0,0,1,2.49-.51,6.24,6.24,0,0,1,3.26.87,6.53,6.53,0,0,1,2.34,2.33,6.71,6.71,0,0,1,.31,6,6.65,6.65,0,0,1-3.58,3.33A6.36,6.36,0,0,1,251.27,35.11Zm-.05-3.77a2.85,2.85,0,0,0,1.23-.3,2.81,2.81,0,0,0,1.05-.9,2.61,2.61,0,0,0,.42-1.53,2.77,2.77,0,0,0-.34-1.4,2.58,2.58,0,0,0-1-.94,2.88,2.88,0,0,0-1.41-.33,2.51,2.51,0,0,0-1.34.35,2.73,2.73,0,0,0-1,1,2.93,2.93,0,0,0,.05,2.9,2.49,2.49,0,0,0,1,.9A2.9,2.9,0,0,0,251.22,31.34Z"/><path class="cls-2" d="M265.9,35a6.64,6.64,0,0,1-2.24-.41,7,7,0,0,1-2.1-1.22,5.92,5.92,0,0,1-1.54-2,6.35,6.35,0,0,1-.57-2.75,6,6,0,0,1,2.1-4.7,7.08,7.08,0,0,1,2.09-1.21,6.61,6.61,0,0,1,2.21-.41,6.15,6.15,0,0,1,1.67.21,5.78,5.78,0,0,1,1.24.52,3.6,3.6,0,0,1,.74.52,7.31,7.31,0,0,1,.75.65,1.05,1.05,0,0,1,.3.85,1.61,1.61,0,0,1-.17.57,4.41,4.41,0,0,1-.38.58c-.52.7-1,1-1.5,1a2.27,2.27,0,0,1-.69-.25l-.6-.35a3.88,3.88,0,0,0-.61-.31,2,2,0,0,0-.75-.14,2.53,2.53,0,0,0-2.21,1.24,2.44,2.44,0,0,0-.34,1.31,2.53,2.53,0,0,0,1.24,2.21,2.55,2.55,0,0,0,2,.24,2.16,2.16,0,0,0,.55-.24l.35-.21.58-.36a1.05,1.05,0,0,1,.55-.16,1.24,1.24,0,0,1,.74.26,4.1,4.1,0,0,1,.81.84,2,2,0,0,1,.48,1,1.17,1.17,0,0,1-.21.87,2.79,2.79,0,0,1-.85.76,5.06,5.06,0,0,1-.71.45,7.21,7.21,0,0,1-1.25.5A5.7,5.7,0,0,1,265.9,35Z"/><path class="cls-2" d="M283.05,34.91a2.34,2.34,0,0,1-1.38-.33.89.89,0,0,1-.42-.8l.25-.43a2.82,2.82,0,0,1-.58.62,4.11,4.11,0,0,1-1.11.65,4.34,4.34,0,0,1-1.66.28,5,5,0,0,1-2.19-.5A5.89,5.89,0,0,1,274.12,33a7,7,0,0,1-1.27-2,6,6,0,0,1-.48-2.38,5.82,5.82,0,0,1,.48-2.33,6.9,6.9,0,0,1,1.29-2A6.24,6.24,0,0,1,276,23a4.93,4.93,0,0,1,2.17-.5,4.14,4.14,0,0,1,1.58.27,4.5,4.5,0,0,1,1.09.61,3.43,3.43,0,0,1,.66.67l-.23-.35a1.05,1.05,0,0,1,.44-.91,2.4,2.4,0,0,1,1.39-.31,2.24,2.24,0,0,1,1.29.28,1.14,1.14,0,0,1,.47.72,4.86,4.86,0,0,1,.09.95V33a4.7,4.7,0,0,1-.09.92,1,1,0,0,1-.47.71A2.39,2.39,0,0,1,283.05,34.91Zm-4.38-3.73a2.13,2.13,0,0,0,1.2-.34,2.48,2.48,0,0,0,.85-.91,2.52,2.52,0,0,0,.33-1.28,2.56,2.56,0,0,0-.32-1.28,2.42,2.42,0,0,0-.88-.89,2.33,2.33,0,0,0-1.22-.33,2.49,2.49,0,0,0-1.27.34,2.53,2.53,0,0,0-1.24,2.21,2.43,2.43,0,0,0,.34,1.24,2.6,2.6,0,0,0,2.21,1.24Z"/><path class="cls-2" d="M292.22,34.94a14,14,0,0,1-1.82-.11,3.58,3.58,0,0,1-1.35-.4,2.39,2.39,0,0,1-.9-.83,4,4,0,0,1-.53-1.38,10.88,10.88,0,0,1-.17-2.06V18.61a3.89,3.89,0,0,1,.11-.93A1.19,1.19,0,0,1,288,17a2.41,2.41,0,0,1,1.32-.27,2.28,2.28,0,0,1,1.28.27,1.2,1.2,0,0,1,.49.71,3.82,3.82,0,0,1,.1.92V30a5.83,5.83,0,0,0,0,.66.9.9,0,0,0,.15.41.54.54,0,0,0,.31.2,2.5,2.5,0,0,0,.53,0,2.62,2.62,0,0,1,.61.08.89.89,0,0,1,.54.45,2.55,2.55,0,0,1,.22,1.25,2.81,2.81,0,0,1-.22,1.3.89.89,0,0,1-.54.47A2.74,2.74,0,0,1,292.22,34.94Z"/><path class="cls-2" d="M310.12,35.2a8.42,8.42,0,0,1-3.39-.69,8.76,8.76,0,0,1-2.78-1.9,8.87,8.87,0,0,1-1.88-2.82,8.73,8.73,0,0,1-.67-3.45,9.41,9.41,0,0,1,2.49-6.41A8.62,8.62,0,0,1,306.61,18a8,8,0,0,1,3.3-.69,8.53,8.53,0,0,1,6.18,2.6A9.12,9.12,0,0,1,318,22.75a9,9,0,0,1,.67,3.53,9.09,9.09,0,0,1-2.5,6.31,8.58,8.58,0,0,1-2.71,1.92A8,8,0,0,1,310.12,35.2ZM310,31.4a4.55,4.55,0,0,0,1.87-.4,5,5,0,0,0,1.54-1.09,5,5,0,0,0,1-1.62,5.61,5.61,0,0,0,.36-2,5.28,5.28,0,0,0-1.41-3.66,4.81,4.81,0,0,0-1.52-1.1,4.51,4.51,0,0,0-1.87-.39,4.44,4.44,0,0,0-1.84.39,4.66,4.66,0,0,0-1.52,1.1,5.41,5.41,0,0,0-1.05,1.65,5.32,5.32,0,0,0,0,4,5,5,0,0,0,1.05,1.63A4.88,4.88,0,0,0,308.16,31,4.44,4.44,0,0,0,310,31.4Z"/><path class="cls-2" d="M326.57,35.16a6.3,6.3,0,0,1-2.34-.47,7,7,0,0,1-2.11-1.31,6.38,6.38,0,0,1-1.51-2,6.47,6.47,0,0,1-.05-5.15A7,7,0,0,1,322,24.13,6.63,6.63,0,0,1,324,22.72a6.13,6.13,0,0,1,2.49-.51,6.33,6.33,0,0,1,3.26.86,6.72,6.72,0,0,1,2.34,2.34,6.34,6.34,0,0,1,.87,3.28,6.22,6.22,0,0,1-2.07,4.74,6.53,6.53,0,0,1-4.36,1.73Zm-.05-3.78a2.85,2.85,0,0,0,1.23-.3,2.81,2.81,0,0,0,1.05-.9,2.57,2.57,0,0,0,.42-1.52,2.65,2.65,0,0,0-.35-1.4,2.48,2.48,0,0,0-1-.94A2.83,2.83,0,0,0,326.5,26a2.6,2.6,0,0,0-1.34.35,2.65,2.65,0,0,0-1,1,2.93,2.93,0,0,0,.05,2.9,2.43,2.43,0,0,0,1,.9A2.76,2.76,0,0,0,326.52,31.38Z"/><path class="cls-4" d="M54.61,34.08h4.52q3.42,0,3.42,4a4,4,0,0,1-1.08,3.17c-.72.63-2,.94-3.85.94h-11a6.93,6.93,0,0,1-3.9-.77c-.69-.52-1-1.63-1-3.34a5.64,5.64,0,0,1,.16-1.45,3.69,3.69,0,0,1,.61-1.2,5.45,5.45,0,0,1,1.23-1.13c1.47-1,2.62-1.82,3.46-2.44s1.67-1.26,2.47-1.95a13.25,13.25,0,0,0,1.77-1.76,10.45,10.45,0,0,0,1-1.66A6.38,6.38,0,0,0,53,24.59a15.39,15.39,0,0,0,.14-2.19c0-1.56-.47-2.35-1.42-2.35s-1.55.93-1.55,2.77a2,2,0,0,1-1,2,7,7,0,0,1-2.89.46c-1.74,0-2.92-.39-3.53-1.17a6.48,6.48,0,0,1-.91-3.91,5.48,5.48,0,0,1,2.51-4.56,11.74,11.74,0,0,1,7-1.82q11.07,0,11.07,8.69A14.11,14.11,0,0,1,62,26.21,11.66,11.66,0,0,1,60.89,29a9.08,9.08,0,0,1-1.78,2.12A17.42,17.42,0,0,1,57,32.74,26.68,26.68,0,0,1,54.61,34.08Z"/><path class="cls-4" d="M65.24,39a2.78,2.78,0,0,1,1.16-2.31,5.38,5.38,0,0,1,3.28-.88c3,0,4.44,1.07,4.44,3.19a3.11,3.11,0,0,1-.57,2,2.76,2.76,0,0,1-1.51,1,9.2,9.2,0,0,1-2.37.26,6.12,6.12,0,0,1-3.17-.76A2.62,2.62,0,0,1,65.24,39Z"/><path class="cls-4" d="M90.05,41.85a4.25,4.25,0,0,1-3.51-1.36c-.73-.91-1.09-2.5-1.09-4.77H77.91A5.28,5.28,0,0,1,74,34.42a4.61,4.61,0,0,1-1.28-3.36,7.2,7.2,0,0,1,1.1-3.95Q76.71,22.45,80.33,17a6.65,6.65,0,0,1,5.83-3.19l3.54,0c2,0,3.33.34,4,1a4.92,4.92,0,0,1,1.05,3.59V29.59a3.69,3.69,0,0,1,2.41.88,3.31,3.31,0,0,1,.65,2.27,2.88,2.88,0,0,1-.7,2.2,4.07,4.07,0,0,1-2.36.74c0,2.21-.4,3.79-1.19,4.74A4.34,4.34,0,0,1,90.05,41.85Zm-4.64-12.1.13-8.94-5.46,8.94Z"/><path class="cls-5" d="M54.61,34.08h4.52q3.42,0,3.42,4a4,4,0,0,1-1.08,3.17c-.72.63-2,.94-3.85.94h-11a6.93,6.93,0,0,1-3.9-.77c-.69-.52-1-1.63-1-3.34a5.64,5.64,0,0,1,.16-1.45,3.69,3.69,0,0,1,.61-1.2,5.45,5.45,0,0,1,1.23-1.13c1.47-1,2.62-1.82,3.46-2.44s1.67-1.26,2.47-1.95a13.25,13.25,0,0,0,1.77-1.76,10.45,10.45,0,0,0,1-1.66A6.38,6.38,0,0,0,53,24.59a15.39,15.39,0,0,0,.14-2.19c0-1.56-.47-2.35-1.42-2.35s-1.55.93-1.55,2.77a2,2,0,0,1-1,2,7,7,0,0,1-2.89.46c-1.74,0-2.92-.39-3.53-1.17a6.48,6.48,0,0,1-.91-3.91,5.48,5.48,0,0,1,2.51-4.56,11.74,11.74,0,0,1,7-1.82q11.07,0,11.07,8.69A14.11,14.11,0,0,1,62,26.21,11.66,11.66,0,0,1,60.89,29a9.08,9.08,0,0,1-1.78,2.12A17.42,17.42,0,0,1,57,32.74,26.68,26.68,0,0,1,54.61,34.08Z"/><path class="cls-5" d="M65.24,39a2.78,2.78,0,0,1,1.16-2.31,5.38,5.38,0,0,1,3.28-.88c3,0,4.44,1.07,4.44,3.19a3.11,3.11,0,0,1-.57,2,2.76,2.76,0,0,1-1.51,1,9.2,9.2,0,0,1-2.37.26,6.12,6.12,0,0,1-3.17-.76A2.62,2.62,0,0,1,65.24,39Z"/><path class="cls-5" d="M90.05,41.85a4.25,4.25,0,0,1-3.51-1.36c-.73-.91-1.09-2.5-1.09-4.77H77.91A5.28,5.28,0,0,1,74,34.42a4.61,4.61,0,0,1-1.28-3.36,7.2,7.2,0,0,1,1.1-3.95Q76.71,22.45,80.33,17a6.65,6.65,0,0,1,5.83-3.19l3.54,0c2,0,3.33.34,4,1a4.92,4.92,0,0,1,1.05,3.59V29.59a3.69,3.69,0,0,1,2.41.88,3.31,3.31,0,0,1,.65,2.27,2.88,2.88,0,0,1-.7,2.2,4.07,4.07,0,0,1-2.36.74c0,2.21-.4,3.79-1.19,4.74A4.34,4.34,0,0,1,90.05,41.85Zm-4.64-12.1.13-8.94-5.46,8.94Z"/></g></g></svg>