<svg xmlns="http://www.w3.org/2000/svg" viewBox="0 0 399.98 90.09"><defs><style>.cls-1{fill:#512573;}.cls-2{fill:#fff;}.cls-3,.cls-4{fill:none;stroke-width:5px;}.cls-3{stroke:#ff7300;stroke-linejoin:round;}.cls-4{stroke:#fff;}.cls-5{fill:#ff7300;}</style></defs><title>25tv</title><g id="Layer_2" data-name="Layer 2"><g id="pestaña_identificativa" data-name="pestaña identificativa"><rect class="cls-1" width="399.98" height="90.09" rx="32.4"/><path class="cls-2" d="M114.17,16.75a3.84,3.84,0,0,1,.78.07.9.9,0,0,1,.59.43,2.19,2.19,0,0,1,.22,1.15,2.14,2.14,0,0,1-.22,1.12.89.89,0,0,1-.6.43,4.11,4.11,0,0,1-.8.07h-4V32.39a4.29,4.29,0,0,1-.09.9,1.06,1.06,0,0,1-.48.69,3.4,3.4,0,0,1-2.61,0,1.08,1.08,0,0,1-.49-.7,4.53,4.53,0,0,1-.08-.91V20h-4a3.3,3.3,0,0,1-.77-.08,1,1,0,0,1-.61-.43,2,2,0,0,1-.24-1.14,2,2,0,0,1,.24-1.12,1,1,0,0,1,.61-.43,4,4,0,0,1,.78-.07Z"/><path class="cls-2" d="M119.73,34.25a2.45,2.45,0,0,1-1.31-.26,1.11,1.11,0,0,1-.48-.72,4.7,4.7,0,0,1-.08-.92V23.62a4.42,4.42,0,0,1,.09-.92,1.06,1.06,0,0,1,.49-.69,2.54,2.54,0,0,1,1.32-.26A2.47,2.47,0,0,1,121,22a1.06,1.06,0,0,1,.49.55,1.73,1.73,0,0,1,.1.54l-.3.15a2.39,2.39,0,0,1,.26-.37,4.66,4.66,0,0,1,.59-.55,3.55,3.55,0,0,1,.91-.48,3.4,3.4,0,0,1,1.24-.2,4.45,4.45,0,0,1,.61,0,3,3,0,0,1,.7.15,2.4,2.4,0,0,1,.67.3,1.51,1.51,0,0,1,.48.46,1.13,1.13,0,0,1,.19.67,3.09,3.09,0,0,1-.47,1.74,1.4,1.4,0,0,1-1.21.71,2.11,2.11,0,0,1-.6-.06.92.92,0,0,1-.28-.15,1,1,0,0,0-.27-.15,1.64,1.64,0,0,0-.55-.06,2.39,2.39,0,0,0-.71.1,1.9,1.9,0,0,0-.62.31,1.6,1.6,0,0,0-.45.52,1.53,1.53,0,0,0-.17.72V32.4a4.46,4.46,0,0,1-.09.91,1,1,0,0,1-.49.69A2.53,2.53,0,0,1,119.73,34.25Z"/><path class="cls-2" d="M139.13,34.24a2.34,2.34,0,0,1-1.38-.33.89.89,0,0,1-.42-.8l.25-.42a2.8,2.8,0,0,1-.58.61,4.11,4.11,0,0,1-1.11.65,4.34,4.34,0,0,1-1.66.28,4.88,4.88,0,0,1-2.19-.5,5.7,5.7,0,0,1-1.83-1.39,7,7,0,0,1-1.28-2,6.16,6.16,0,0,1-.47-2.38,6,6,0,0,1,.47-2.33,6.9,6.9,0,0,1,1.29-2,6.37,6.37,0,0,1,1.84-1.36,5,5,0,0,1,2.18-.5,4.09,4.09,0,0,1,1.57.27,4.15,4.15,0,0,1,1.09.61,3.43,3.43,0,0,1,.66.67l-.22-.34a1.05,1.05,0,0,1,.43-.92,2.44,2.44,0,0,1,1.39-.31,2.24,2.24,0,0,1,1.29.28,1.07,1.07,0,0,1,.47.72,4.86,4.86,0,0,1,.09.95v8.63a4.7,4.7,0,0,1-.08.92,1.07,1.07,0,0,1-.48.71A2.37,2.37,0,0,1,139.13,34.24Zm-4.37-3.73a2.13,2.13,0,0,0,1.2-.34,2.57,2.57,0,0,0,.85-.91,2.6,2.6,0,0,0,.32-1.27,2.57,2.57,0,0,0-.32-1.29,2.42,2.42,0,0,0-.88-.89,2.3,2.3,0,0,0-1.22-.33,2.42,2.42,0,0,0-1.26.34,2.53,2.53,0,0,0-.9.91,2.5,2.5,0,0,0-.34,1.3,2.42,2.42,0,0,0,.33,1.24,2.59,2.59,0,0,0,.93.9A2.49,2.49,0,0,0,134.76,30.51Z"/><path class="cls-2" d="M144.88,34.26a1.79,1.79,0,0,1-1.31-.53,1.82,1.82,0,0,1-.54-1.34,2.06,2.06,0,0,1,.14-.73,1.81,1.81,0,0,1,.41-.62l5.68-5.5h-3.8a3.85,3.85,0,0,1-.91-.1,1.22,1.22,0,0,1-.73-.49,2.2,2.2,0,0,1-.28-1.31,2.25,2.25,0,0,1,.28-1.31,1.19,1.19,0,0,1,.73-.48,4.46,4.46,0,0,1,.91-.09h7.83a1.81,1.81,0,0,1,1.85,1.85,2.14,2.14,0,0,1-.14.76,1.45,1.45,0,0,1-.39.59l-5.55,5.52h4.52a5.41,5.41,0,0,1,.93.1,1.11,1.11,0,0,1,.68.51,2.41,2.41,0,0,1,.27,1.32,2.48,2.48,0,0,1-.28,1.3,1.05,1.05,0,0,1-.7.48,5.33,5.33,0,0,1-.93.07Z"/><path class="cls-2" d="M167.7,34.25a2.41,2.41,0,0,1-1.37-.32.93.93,0,0,1-.43-.8l.26-.43a2.82,2.82,0,0,1-.58.61,4,4,0,0,1-1.11.65,4.2,4.2,0,0,1-1.67.29,5,5,0,0,1-2.18-.5,5.78,5.78,0,0,1-1.84-1.39,7,7,0,0,1-1.27-2A6,6,0,0,1,157,28a5.9,5.9,0,0,1,.48-2.34,6.65,6.65,0,0,1,1.29-2,6.24,6.24,0,0,1,1.84-1.36,4.9,4.9,0,0,1,2.17-.5,4.35,4.35,0,0,1,1.58.26,4.26,4.26,0,0,1,1.08.62,3.51,3.51,0,0,1,.67.67l-.23-.35a1.05,1.05,0,0,1,.44-.91,2.4,2.4,0,0,1,1.39-.31,2.3,2.3,0,0,1,1.28.27,1.16,1.16,0,0,1,.48.73,4.87,4.87,0,0,1,.08.95v8.62a4.73,4.73,0,0,1-.09.93A1.09,1.09,0,0,1,169,34,2.42,2.42,0,0,1,167.7,34.25Zm-4.37-3.72a2.21,2.21,0,0,0,1.2-.34A2.6,2.6,0,0,0,165.71,28a2.53,2.53,0,0,0-.33-1.29,2.3,2.3,0,0,0-.87-.88,2.48,2.48,0,0,0-2.49,0,2.61,2.61,0,0,0-.9.91,2.57,2.57,0,0,0-.34,1.3,2.34,2.34,0,0,0,.34,1.24,2.56,2.56,0,0,0,.92.9A2.62,2.62,0,0,0,163.33,30.53Z"/><path class="cls-2" d="M184.8,34.51a7.28,7.28,0,0,1-3-.57,5.86,5.86,0,0,1-2.06-1.52,6.51,6.51,0,0,1-1.2-2.09,6.83,6.83,0,0,1-.4-2.3,6.51,6.51,0,0,1,.85-3.32,6.14,6.14,0,0,1,2.37-2.29,7.11,7.11,0,0,1,3.46-.83,6.22,6.22,0,0,1,2.51.46,5.23,5.23,0,0,1,1.75,1.2,5.34,5.34,0,0,1,1,1.59,4.51,4.51,0,0,1,.33,1.63,2.84,2.84,0,0,1-.66,2.05,2.27,2.27,0,0,1-1.69.67h-6a1.82,1.82,0,0,0,.46,1.07,2.73,2.73,0,0,0,1,.7,3.5,3.5,0,0,0,1.33.25,8.05,8.05,0,0,0,1-.06,4.49,4.49,0,0,0,.79-.17l.59-.23a4.27,4.27,0,0,1,.49-.18,1.7,1.7,0,0,1,.42-.1,1,1,0,0,1,.68.21,2.11,2.11,0,0,1,.57.71,1.65,1.65,0,0,1,.24.53,2.07,2.07,0,0,1,.06.5,1.35,1.35,0,0,1-.61,1.08,4.73,4.73,0,0,1-1.73.74A11.56,11.56,0,0,1,184.8,34.51Zm-2.67-7.4h4a1.06,1.06,0,0,0,.58-.13.62.62,0,0,0,.2-.54,1.23,1.23,0,0,0-.28-.78,1.67,1.67,0,0,0-.73-.53,2.83,2.83,0,0,0-1.09-.19,3,3,0,0,0-1.35.3,2.38,2.38,0,0,0-.94.8A1.91,1.91,0,0,0,182.13,27.11Z"/><path class="cls-2" d="M197.33,34.3a16.54,16.54,0,0,1-1.83-.1,3.9,3.9,0,0,1-1.35-.41,2.64,2.64,0,0,1-.9-.83,4.19,4.19,0,0,1-.52-1.38,10.11,10.11,0,0,1-.17-2.06V18a4.49,4.49,0,0,1,.1-.93,1.21,1.21,0,0,1,.49-.7,2.39,2.39,0,0,1,1.31-.27,2.34,2.34,0,0,1,1.29.27,1.2,1.2,0,0,1,.49.71,3.82,3.82,0,0,1,.1.92V29.35a4.16,4.16,0,0,0,0,.66.8.8,0,0,0,.15.41.51.51,0,0,0,.31.2,2.44,2.44,0,0,0,.53.05,2.62,2.62,0,0,1,.61.08.85.85,0,0,1,.53.45,2.42,2.42,0,0,1,.23,1.25,2.79,2.79,0,0,1-.23,1.3.91.91,0,0,1-.53.47A2.8,2.8,0,0,1,197.33,34.3Z"/><path class="cls-2" d="M209,34.28a2.39,2.39,0,0,1-1.31-.27,1,1,0,0,1-.47-.7,4.46,4.46,0,0,1-.09-.91V23.6a4.26,4.26,0,0,1,.09-.89,1,1,0,0,1,.49-.66A2.71,2.71,0,0,1,209,21.8a2.35,2.35,0,0,1,1.17.22,1,1,0,0,1,.49.51,1.73,1.73,0,0,1,.11.56.91.91,0,0,0,.05.36l-.15.48a1.43,1.43,0,0,1,.39-.76,3.53,3.53,0,0,1,.85-.7A4.73,4.73,0,0,1,213,22a3.93,3.93,0,0,1,1.16-.17,5,5,0,0,1,2.14.43,4.42,4.42,0,0,1,1.58,1.27,5.56,5.56,0,0,1,1,1.94,8.16,8.16,0,0,1,.34,2.43v4.55a5.43,5.43,0,0,1-.08.92,1,1,0,0,1-.48.68A3.6,3.6,0,0,1,216,34a1.08,1.08,0,0,1-.49-.7,4.53,4.53,0,0,1-.09-.91V27.88a2.87,2.87,0,0,0-.26-1.27,1.88,1.88,0,0,0-.75-.8,2.39,2.39,0,0,0-1.22-.28,2.59,2.59,0,0,0-1.25.29,2,2,0,0,0-.81.81,2.59,2.59,0,0,0-.29,1.25v4.55a4.46,4.46,0,0,1-.09.91,1.08,1.08,0,0,1-.47.69A2.53,2.53,0,0,1,209,34.28Z"/><path class="cls-2" d="M227,34.29a5.25,5.25,0,0,1-2.18-.45,5.31,5.31,0,0,1-1.75-1.27,5.8,5.8,0,0,1-1.16-1.92,7.1,7.1,0,0,1-.41-2.44V23.69a4.45,4.45,0,0,1,.09-.93,1.1,1.1,0,0,1,.49-.7,2.46,2.46,0,0,1,1.32-.27,2.41,2.41,0,0,1,1.32.27,1.13,1.13,0,0,1,.47.72,4.59,4.59,0,0,1,.09.93v4.5a2.8,2.8,0,0,0,.26,1.27,1.83,1.83,0,0,0,.77.81,2.57,2.57,0,0,0,1.21.27,2.5,2.5,0,0,0,1.24-.28,2,2,0,0,0,.8-.81,2.59,2.59,0,0,0,.29-1.25V23.67a4.45,4.45,0,0,1,.09-.93,1.08,1.08,0,0,1,.49-.69,2.59,2.59,0,0,1,1.33-.26,2.29,2.29,0,0,1,1.31.28,1.1,1.1,0,0,1,.47.71,4.53,4.53,0,0,1,.09.91v8.8a4.91,4.91,0,0,1-.08.89,1,1,0,0,1-.49.66,2.52,2.52,0,0,1-1.3.25,2.92,2.92,0,0,1-1.05-.15,1.23,1.23,0,0,1-.55-.37.94.94,0,0,1-.21-.48,2.57,2.57,0,0,1,0-.45l.32-.27a3,3,0,0,1-.32.38,5.89,5.89,0,0,1-.66.58,4.26,4.26,0,0,1-1,.53A3.31,3.31,0,0,1,227,34.29Zm-.39-13.38a.82.82,0,0,1-.74-.25,2.63,2.63,0,0,1-.51-1,2,2,0,0,1-.1-1.3,1.35,1.35,0,0,1,.92-.67l4.4-1.35a.88.88,0,0,1,.73.29,2.53,2.53,0,0,1,.5,1,1.85,1.85,0,0,1,.08,1.27,1.3,1.3,0,0,1-.91.68Z"/><path class="cls-2" d="M238,34.32a2.28,2.28,0,0,1-1.3-.28,1,1,0,0,1-.48-.7,5.29,5.29,0,0,1-.07-.92V23.67a4.29,4.29,0,0,1,.09-.9,1.08,1.08,0,0,1,.49-.69,2.59,2.59,0,0,1,1.33-.26,2.09,2.09,0,0,1,1.35.36,1.51,1.51,0,0,1,.42,1.19l-.33.28a2.46,2.46,0,0,1,.3-.43,4.89,4.89,0,0,1,.65-.62,4.13,4.13,0,0,1,.94-.57,3,3,0,0,1,1.17-.23A4.33,4.33,0,0,1,244,22a3.82,3.82,0,0,1,1.2.7,4.38,4.38,0,0,1,.94,1.16,6.28,6.28,0,0,1,.85-1,4.41,4.41,0,0,1,1.17-.8,3.47,3.47,0,0,1,1.53-.33,4.15,4.15,0,0,1,2.49.74,4.56,4.56,0,0,1,1.53,2.11,9.38,9.38,0,0,1,.53,3.33v4.48a3.91,3.91,0,0,1-.1.91,1.14,1.14,0,0,1-.48.7,2.52,2.52,0,0,1-1.32.26,2.33,2.33,0,0,1-1.32-.28,1,1,0,0,1-.48-.71,5.41,5.41,0,0,1-.07-.91V28a3.71,3.71,0,0,0-.19-1.28,1.78,1.78,0,0,0-.53-.83,1.41,1.41,0,0,0-.9-.29,1.64,1.64,0,0,0-1,.28,1.72,1.72,0,0,0-.6.8,3.92,3.92,0,0,0-.2,1.35v4.47a3.19,3.19,0,0,1-.13.94,1.22,1.22,0,0,1-.53.7,2.52,2.52,0,0,1-1.34.23,2.1,2.1,0,0,1-1.25-.28,1.17,1.17,0,0,1-.45-.73,5.26,5.26,0,0,1-.08-.89V28a4.21,4.21,0,0,0-.18-1.3,1.65,1.65,0,0,0-.52-.83,1.49,1.49,0,0,0-.93-.27,1.59,1.59,0,0,0-1,.32,2,2,0,0,0-.59.86,3.59,3.59,0,0,0-.19,1.22v4.5a4.42,4.42,0,0,1-.09.92,1.06,1.06,0,0,1-.49.69A2.54,2.54,0,0,1,238,34.32Z"/><path class="cls-2" d="M262.9,34.56a7.12,7.12,0,0,1-3-.58,5.84,5.84,0,0,1-2.06-1.51,6.43,6.43,0,0,1-1.2-2.09,6.88,6.88,0,0,1-.4-2.3,6.38,6.38,0,0,1,.85-3.32,6.14,6.14,0,0,1,2.37-2.29,6.9,6.9,0,0,1,3.46-.83,6.22,6.22,0,0,1,2.51.46,5.23,5.23,0,0,1,1.75,1.2,5.1,5.1,0,0,1,1,1.59,4.5,4.5,0,0,1,.33,1.62,2.82,2.82,0,0,1-.66,2,2.28,2.28,0,0,1-1.69.68h-5.95a1.77,1.77,0,0,0,.46,1.08,2.85,2.85,0,0,0,1,.7,3.48,3.48,0,0,0,1.32.25,8.1,8.1,0,0,0,1-.06,3.7,3.7,0,0,0,.79-.18c.22-.07.41-.15.59-.22a4.32,4.32,0,0,1,.48-.19,2.63,2.63,0,0,1,.43-.1,1,1,0,0,1,.67.22,1.93,1.93,0,0,1,.58.71,2,2,0,0,1,.24.52,2.2,2.2,0,0,1,.06.5,1.36,1.36,0,0,1-.61,1.09,4.91,4.91,0,0,1-1.73.74A11.56,11.56,0,0,1,262.9,34.56Zm-2.67-7.4h3.95a1,1,0,0,0,.58-.14.61.61,0,0,0,.2-.53,1.21,1.21,0,0,0-.28-.78,1.84,1.84,0,0,0-.73-.54,3,3,0,0,0-1.09-.18,3,3,0,0,0-1.35.29,2.39,2.39,0,0,0-.94.8A1.89,1.89,0,0,0,260.23,27.16Z"/><path class="cls-2" d="M272.5,34.34a2.5,2.5,0,0,1-1.31-.26,1.11,1.11,0,0,1-.48-.72,5.43,5.43,0,0,1-.08-.92V23.72a4.45,4.45,0,0,1,.09-.93,1.08,1.08,0,0,1,.49-.69,2.57,2.57,0,0,1,1.32-.26,2.52,2.52,0,0,1,1.27.24,1,1,0,0,1,.48.55,1.73,1.73,0,0,1,.1.54l-.3.15a2.73,2.73,0,0,1,.27-.37,3.45,3.45,0,0,1,.58-.54,3.21,3.21,0,0,1,.92-.49,3.6,3.6,0,0,1,1.23-.2,4.7,4.7,0,0,1,.62,0,3.14,3.14,0,0,1,.7.15,2.47,2.47,0,0,1,.66.3,1.66,1.66,0,0,1,.49.46,1.21,1.21,0,0,1,.18.68,3.08,3.08,0,0,1-.47,1.73,1.4,1.4,0,0,1-1.2.71,2,2,0,0,1-.6-.06,1,1,0,0,1-.29-.15,1.1,1.1,0,0,0-.26-.15,1.72,1.72,0,0,0-.55-.06,2.34,2.34,0,0,0-.71.1,1.85,1.85,0,0,0-.63.31,1.6,1.6,0,0,0-.45.52,1.53,1.53,0,0,0-.16.72v5.47a5.52,5.52,0,0,1-.08.92,1,1,0,0,1-.49.68A2.6,2.6,0,0,1,272.5,34.34Z"/><path class="cls-2" d="M287.7,34.55a6.49,6.49,0,0,1-2.34-.46,7.19,7.19,0,0,1-2.11-1.32,6.31,6.31,0,0,1-1.51-2,6.14,6.14,0,0,1-.56-2.63,6.24,6.24,0,0,1,.51-2.52,7,7,0,0,1,1.42-2.06,6.75,6.75,0,0,1,2.06-1.41,6.16,6.16,0,0,1,2.49-.51,6.33,6.33,0,0,1,3.26.86,6.64,6.64,0,0,1,2.34,2.34,6.71,6.71,0,0,1,.31,6A6.5,6.5,0,0,1,290,34.11,6.17,6.17,0,0,1,287.7,34.55Zm-.05-3.77a2.85,2.85,0,0,0,1.23-.3,2.56,2.56,0,0,0,1.48-2.43,2.77,2.77,0,0,0-.35-1.4,2.58,2.58,0,0,0-1-.94,2.88,2.88,0,0,0-1.41-.33,2.52,2.52,0,0,0-1.34.34,2.76,2.76,0,0,0-1,1,2.66,2.66,0,0,0-.36,1.38,2.71,2.71,0,0,0,.41,1.52,2.56,2.56,0,0,0,1,.9A3.06,3.06,0,0,0,287.65,30.78Z"/><path class="cls-2" d="M305.31,23.69a2.08,2.08,0,0,1-1.3.61,1.91,1.91,0,0,1-1.25-.74,1.88,1.88,0,0,1-.63-1.38,2.23,2.23,0,0,1,.88-1.37l3.73-3.3a1.75,1.75,0,0,1,1.28-.57,2,2,0,0,1,1.24.77,1.72,1.72,0,0,1,.61,1.34,2.21,2.21,0,0,1-.88,1.36Zm3.14,10.72A2,2,0,0,1,307,34a2.15,2.15,0,0,1-.41-1.48V18.76A2.05,2.05,0,0,1,307,17.3a2.05,2.05,0,0,1,1.47-.41,2,2,0,0,1,1.46.42,2.19,2.19,0,0,1,.41,1.5V32.54a2.05,2.05,0,0,1-.41,1.46A2.06,2.06,0,0,1,308.45,34.41Z"/><path class="cls-2" d="M322.63,34.37a2.38,2.38,0,0,1-1.3-.27,1.14,1.14,0,0,1-.49-.73,4.7,4.7,0,0,1-.09-.92v-3.2h-6.7a2.4,2.4,0,0,1-1.3-.27,1.24,1.24,0,0,1-.5-.72,4.46,4.46,0,0,1-.09-.91,2.43,2.43,0,0,1,0-.41c0-.11,0-.21.05-.32l2.21-8.32c.18-.76.44-1.23.78-1.39a2.59,2.59,0,0,1,1.57,0,2.64,2.64,0,0,1,1.22.6,1,1,0,0,1,.28,1l-1.88,7.17h4.35v-7a3.88,3.88,0,0,1,.09-.87,1.05,1.05,0,0,1,.5-.67,2.63,2.63,0,0,1,1.34-.26,2.33,2.33,0,0,1,1.32.28,1.1,1.1,0,0,1,.49.71,4.62,4.62,0,0,1,.09.94V32.47a4.59,4.59,0,0,1-.1.94,1.17,1.17,0,0,1-.5.7A2.65,2.65,0,0,1,322.63,34.37Z"/><path class="cls-3" d="M114.17,16.75a3.84,3.84,0,0,1,.78.07.9.9,0,0,1,.59.43,2.19,2.19,0,0,1,.22,1.15,2.14,2.14,0,0,1-.22,1.12.89.89,0,0,1-.6.43,4.11,4.11,0,0,1-.8.07h-4V32.39a4.29,4.29,0,0,1-.09.9,1.06,1.06,0,0,1-.48.69,3.4,3.4,0,0,1-2.61,0,1.08,1.08,0,0,1-.49-.7,4.53,4.53,0,0,1-.08-.91V20h-4a3.3,3.3,0,0,1-.77-.08,1,1,0,0,1-.61-.43,2,2,0,0,1-.24-1.14,2,2,0,0,1,.24-1.12,1,1,0,0,1,.61-.43,4,4,0,0,1,.78-.07Z"/><path class="cls-3" d="M119.73,34.25a2.45,2.45,0,0,1-1.31-.26,1.11,1.11,0,0,1-.48-.72,4.7,4.7,0,0,1-.08-.92V23.62a4.42,4.42,0,0,1,.09-.92,1.06,1.06,0,0,1,.49-.69,2.54,2.54,0,0,1,1.32-.26A2.47,2.47,0,0,1,121,22a1.06,1.06,0,0,1,.49.55,1.73,1.73,0,0,1,.1.54l-.3.15a2.39,2.39,0,0,1,.26-.37,4.66,4.66,0,0,1,.59-.55,3.55,3.55,0,0,1,.91-.48,3.4,3.4,0,0,1,1.24-.2,4.45,4.45,0,0,1,.61,0,3,3,0,0,1,.7.15,2.4,2.4,0,0,1,.67.3,1.51,1.51,0,0,1,.48.46,1.13,1.13,0,0,1,.19.67,3.09,3.09,0,0,1-.47,1.74,1.4,1.4,0,0,1-1.21.71,2.11,2.11,0,0,1-.6-.06.92.92,0,0,1-.28-.15,1,1,0,0,0-.27-.15,1.64,1.64,0,0,0-.55-.06,2.39,2.39,0,0,0-.71.1,1.9,1.9,0,0,0-.62.31,1.6,1.6,0,0,0-.45.52,1.53,1.53,0,0,0-.17.72V32.4a4.46,4.46,0,0,1-.09.91,1,1,0,0,1-.49.69A2.53,2.53,0,0,1,119.73,34.25Z"/><path class="cls-3" d="M139.13,34.24a2.34,2.34,0,0,1-1.38-.33.89.89,0,0,1-.42-.8l.25-.42a2.8,2.8,0,0,1-.58.61,4.11,4.11,0,0,1-1.11.65,4.34,4.34,0,0,1-1.66.28,4.88,4.88,0,0,1-2.19-.5,5.7,5.7,0,0,1-1.83-1.39,7,7,0,0,1-1.28-2,6.16,6.16,0,0,1-.47-2.38,6,6,0,0,1,.47-2.33,6.9,6.9,0,0,1,1.29-2,6.37,6.37,0,0,1,1.84-1.36,5,5,0,0,1,2.18-.5,4.09,4.09,0,0,1,1.57.27,4.15,4.15,0,0,1,1.09.61,3.43,3.43,0,0,1,.66.67l-.22-.34a1.05,1.05,0,0,1,.43-.92,2.44,2.44,0,0,1,1.39-.31,2.24,2.24,0,0,1,1.29.28,1.07,1.07,0,0,1,.47.72,4.86,4.86,0,0,1,.09.95v8.63a4.7,4.7,0,0,1-.08.92,1.07,1.07,0,0,1-.48.71A2.37,2.37,0,0,1,139.13,34.24Zm-4.37-3.73a2.13,2.13,0,0,0,1.2-.34,2.57,2.57,0,0,0,.85-.91,2.6,2.6,0,0,0,.32-1.27,2.57,2.57,0,0,0-.32-1.29,2.42,2.42,0,0,0-.88-.89,2.3,2.3,0,0,0-1.22-.33,2.42,2.42,0,0,0-1.26.34,2.53,2.53,0,0,0-.9.91,2.5,2.5,0,0,0-.34,1.3,2.42,2.42,0,0,0,.33,1.24,2.59,2.59,0,0,0,.93.9A2.49,2.49,0,0,0,134.76,30.51Z"/><path class="cls-3" d="M144.88,34.26a1.79,1.79,0,0,1-1.31-.53,1.82,1.82,0,0,1-.54-1.34,2.06,2.06,0,0,1,.14-.73,1.81,1.81,0,0,1,.41-.62l5.68-5.5h-3.8a3.85,3.85,0,0,1-.91-.1,1.22,1.22,0,0,1-.73-.49,2.2,2.2,0,0,1-.28-1.31,2.25,2.25,0,0,1,.28-1.31,1.19,1.19,0,0,1,.73-.48,4.46,4.46,0,0,1,.91-.09h7.83a1.81,1.81,0,0,1,1.85,1.85,2.14,2.14,0,0,1-.14.76,1.45,1.45,0,0,1-.39.59l-5.55,5.52h4.52a5.41,5.41,0,0,1,.93.1,1.11,1.11,0,0,1,.68.51,2.41,2.41,0,0,1,.27,1.32,2.48,2.48,0,0,1-.28,1.3,1.05,1.05,0,0,1-.7.48,5.33,5.33,0,0,1-.93.07Z"/><path class="cls-3" d="M167.7,34.25a2.41,2.41,0,0,1-1.37-.32.93.93,0,0,1-.43-.8l.26-.43a2.82,2.82,0,0,1-.58.61,4,4,0,0,1-1.11.65,4.2,4.2,0,0,1-1.67.29,5,5,0,0,1-2.18-.5,5.78,5.78,0,0,1-1.84-1.39,7,7,0,0,1-1.27-2A6,6,0,0,1,157,28a5.9,5.9,0,0,1,.48-2.34,6.65,6.65,0,0,1,1.29-2,6.24,6.24,0,0,1,1.84-1.36,4.9,4.9,0,0,1,2.17-.5,4.35,4.35,0,0,1,1.58.26,4.26,4.26,0,0,1,1.08.62,3.51,3.51,0,0,1,.67.67l-.23-.35a1.05,1.05,0,0,1,.44-.91,2.4,2.4,0,0,1,1.39-.31,2.3,2.3,0,0,1,1.28.27,1.16,1.16,0,0,1,.48.73,4.87,4.87,0,0,1,.08.95v8.62a4.73,4.73,0,0,1-.09.93A1.09,1.09,0,0,1,169,34,2.42,2.42,0,0,1,167.7,34.25Zm-4.37-3.72a2.21,2.21,0,0,0,1.2-.34A2.6,2.6,0,0,0,165.71,28a2.53,2.53,0,0,0-.33-1.29,2.3,2.3,0,0,0-.87-.88,2.48,2.48,0,0,0-2.49,0,2.61,2.61,0,0,0-.9.91,2.57,2.57,0,0,0-.34,1.3,2.34,2.34,0,0,0,.34,1.24,2.56,2.56,0,0,0,.92.9A2.62,2.62,0,0,0,163.33,30.53Z"/><path class="cls-3" d="M184.8,34.51a7.28,7.28,0,0,1-3-.57,5.86,5.86,0,0,1-2.06-1.52,6.51,6.51,0,0,1-1.2-2.09,6.83,6.83,0,0,1-.4-2.3,6.51,6.51,0,0,1,.85-3.32,6.14,6.14,0,0,1,2.37-2.29,7.11,7.11,0,0,1,3.46-.83,6.22,6.22,0,0,1,2.51.46,5.23,5.23,0,0,1,1.75,1.2,5.34,5.34,0,0,1,1,1.59,4.51,4.51,0,0,1,.33,1.63,2.84,2.84,0,0,1-.66,2.05,2.27,2.27,0,0,1-1.69.67h-6a1.82,1.82,0,0,0,.46,1.07,2.73,2.73,0,0,0,1,.7,3.5,3.5,0,0,0,1.33.25,8.05,8.05,0,0,0,1-.06,4.49,4.49,0,0,0,.79-.17l.59-.23a4.27,4.27,0,0,1,.49-.18,1.7,1.7,0,0,1,.42-.1,1,1,0,0,1,.68.21,2.11,2.11,0,0,1,.57.71,1.65,1.65,0,0,1,.24.53,2.07,2.07,0,0,1,.06.5,1.35,1.35,0,0,1-.61,1.08,4.73,4.73,0,0,1-1.73.74A11.56,11.56,0,0,1,184.8,34.51Zm-2.67-7.4h4a1.06,1.06,0,0,0,.58-.13.62.62,0,0,0,.2-.54,1.23,1.23,0,0,0-.28-.78,1.67,1.67,0,0,0-.73-.53,2.83,2.83,0,0,0-1.09-.19,3,3,0,0,0-1.35.3,2.38,2.38,0,0,0-.94.8A1.91,1.91,0,0,0,182.13,27.11Z"/><path class="cls-3" d="M197.33,34.3a16.54,16.54,0,0,1-1.83-.1,3.9,3.9,0,0,1-1.35-.41,2.64,2.64,0,0,1-.9-.83,4.19,4.19,0,0,1-.52-1.38,10.11,10.11,0,0,1-.17-2.06V18a4.49,4.49,0,0,1,.1-.93,1.21,1.21,0,0,1,.49-.7,2.39,2.39,0,0,1,1.31-.27,2.34,2.34,0,0,1,1.29.27,1.2,1.2,0,0,1,.49.71,3.82,3.82,0,0,1,.1.92V29.35a4.16,4.16,0,0,0,0,.66.8.8,0,0,0,.15.41.51.51,0,0,0,.31.2,2.44,2.44,0,0,0,.53.05,2.62,2.62,0,0,1,.61.08.85.85,0,0,1,.53.45,2.42,2.42,0,0,1,.23,1.25,2.79,2.79,0,0,1-.23,1.3.91.91,0,0,1-.53.47A2.8,2.8,0,0,1,197.33,34.3Z"/><path class="cls-3" d="M209,34.28a2.39,2.39,0,0,1-1.31-.27,1,1,0,0,1-.47-.7,4.46,4.46,0,0,1-.09-.91V23.6a4.26,4.26,0,0,1,.09-.89,1,1,0,0,1,.49-.66A2.71,2.71,0,0,1,209,21.8a2.35,2.35,0,0,1,1.17.22,1,1,0,0,1,.49.51,1.73,1.73,0,0,1,.11.56.91.91,0,0,0,.05.36l-.15.48a1.43,1.43,0,0,1,.39-.76,3.53,3.53,0,0,1,.85-.7A4.73,4.73,0,0,1,213,22a3.93,3.93,0,0,1,1.16-.17,5,5,0,0,1,2.14.43,4.42,4.42,0,0,1,1.58,1.27,5.56,5.56,0,0,1,1,1.94,8.16,8.16,0,0,1,.34,2.43v4.55a5.43,5.43,0,0,1-.08.92,1,1,0,0,1-.48.68A3.6,3.6,0,0,1,216,34a1.08,1.08,0,0,1-.49-.7,4.53,4.53,0,0,1-.09-.91V27.88a2.87,2.87,0,0,0-.26-1.27,1.88,1.88,0,0,0-.75-.8,2.39,2.39,0,0,0-1.22-.28,2.59,2.59,0,0,0-1.25.29,2,2,0,0,0-.81.81,2.59,2.59,0,0,0-.29,1.25v4.55a4.46,4.46,0,0,1-.09.91,1.08,1.08,0,0,1-.47.69A2.53,2.53,0,0,1,209,34.28Z"/><path class="cls-3" d="M227,34.29a5.25,5.25,0,0,1-2.18-.45,5.31,5.31,0,0,1-1.75-1.27,5.8,5.8,0,0,1-1.16-1.92,7.1,7.1,0,0,1-.41-2.44V23.69a4.45,4.45,0,0,1,.09-.93,1.1,1.1,0,0,1,.49-.7,2.46,2.46,0,0,1,1.32-.27,2.41,2.41,0,0,1,1.32.27,1.13,1.13,0,0,1,.47.72,4.59,4.59,0,0,1,.09.93v4.5a2.8,2.8,0,0,0,.26,1.27,1.83,1.83,0,0,0,.77.81,2.57,2.57,0,0,0,1.21.27,2.5,2.5,0,0,0,1.24-.28,2,2,0,0,0,.8-.81,2.59,2.59,0,0,0,.29-1.25V23.67a4.45,4.45,0,0,1,.09-.93,1.08,1.08,0,0,1,.49-.69,2.59,2.59,0,0,1,1.33-.26,2.29,2.29,0,0,1,1.31.28,1.1,1.1,0,0,1,.47.71,4.53,4.53,0,0,1,.09.91v8.8a4.91,4.91,0,0,1-.08.89,1,1,0,0,1-.49.66,2.52,2.52,0,0,1-1.3.25,2.92,2.92,0,0,1-1.05-.15,1.23,1.23,0,0,1-.55-.37.94.94,0,0,1-.21-.48,2.57,2.57,0,0,1,0-.45l.32-.27a3,3,0,0,1-.32.38,5.89,5.89,0,0,1-.66.58,4.26,4.26,0,0,1-1,.53A3.31,3.31,0,0,1,227,34.29Zm-.39-13.38a.82.82,0,0,1-.74-.25,2.63,2.63,0,0,1-.51-1,2,2,0,0,1-.1-1.3,1.35,1.35,0,0,1,.92-.67l4.4-1.35a.88.88,0,0,1,.73.29,2.53,2.53,0,0,1,.5,1,1.85,1.85,0,0,1,.08,1.27,1.3,1.3,0,0,1-.91.68Z"/><path class="cls-3" d="M238,34.32a2.28,2.28,0,0,1-1.3-.28,1,1,0,0,1-.48-.7,5.29,5.29,0,0,1-.07-.92V23.67a4.29,4.29,0,0,1,.09-.9,1.08,1.08,0,0,1,.49-.69,2.59,2.59,0,0,1,1.33-.26,2.09,2.09,0,0,1,1.35.36,1.51,1.51,0,0,1,.42,1.19l-.33.28a2.46,2.46,0,0,1,.3-.43,4.89,4.89,0,0,1,.65-.62,4.13,4.13,0,0,1,.94-.57,3,3,0,0,1,1.17-.23A4.33,4.33,0,0,1,244,22a3.82,3.82,0,0,1,1.2.7,4.38,4.38,0,0,1,.94,1.16,6.28,6.28,0,0,1,.85-1,4.41,4.41,0,0,1,1.17-.8,3.47,3.47,0,0,1,1.53-.33,4.15,4.15,0,0,1,2.49.74,4.56,4.56,0,0,1,1.53,2.11,9.38,9.38,0,0,1,.53,3.33v4.48a3.91,3.91,0,0,1-.1.91,1.14,1.14,0,0,1-.48.7,2.52,2.52,0,0,1-1.32.26,2.33,2.33,0,0,1-1.32-.28,1,1,0,0,1-.48-.71,5.41,5.41,0,0,1-.07-.91V28a3.71,3.71,0,0,0-.19-1.28,1.78,1.78,0,0,0-.53-.83,1.41,1.41,0,0,0-.9-.29,1.64,1.64,0,0,0-1,.28,1.72,1.72,0,0,0-.6.8,3.92,3.92,0,0,0-.2,1.35v4.47a3.19,3.19,0,0,1-.13.94,1.22,1.22,0,0,1-.53.7,2.52,2.52,0,0,1-1.34.23,2.1,2.1,0,0,1-1.25-.28,1.17,1.17,0,0,1-.45-.73,5.26,5.26,0,0,1-.08-.89V28a4.21,4.21,0,0,0-.18-1.3,1.65,1.65,0,0,0-.52-.83,1.49,1.49,0,0,0-.93-.27,1.59,1.59,0,0,0-1,.32,2,2,0,0,0-.59.86,3.59,3.59,0,0,0-.19,1.22v4.5a4.42,4.42,0,0,1-.09.92,1.06,1.06,0,0,1-.49.69A2.54,2.54,0,0,1,238,34.32Z"/><path class="cls-3" d="M262.9,34.56a7.12,7.12,0,0,1-3-.58,5.84,5.84,0,0,1-2.06-1.51,6.43,6.43,0,0,1-1.2-2.09,6.88,6.88,0,0,1-.4-2.3,6.38,6.38,0,0,1,.85-3.32,6.14,6.14,0,0,1,2.37-2.29,6.9,6.9,0,0,1,3.46-.83,6.22,6.22,0,0,1,2.51.46,5.23,5.23,0,0,1,1.75,1.2,5.1,5.1,0,0,1,1,1.59,4.5,4.5,0,0,1,.33,1.62,2.82,2.82,0,0,1-.66,2,2.28,2.28,0,0,1-1.69.68h-5.95a1.77,1.77,0,0,0,.46,1.08,2.85,2.85,0,0,0,1,.7,3.48,3.48,0,0,0,1.32.25,8.1,8.1,0,0,0,1-.06,3.7,3.7,0,0,0,.79-.18c.22-.07.41-.15.59-.22a4.32,4.32,0,0,1,.48-.19,2.63,2.63,0,0,1,.43-.1,1,1,0,0,1,.67.22,1.93,1.93,0,0,1,.58.71,2,2,0,0,1,.24.52,2.2,2.2,0,0,1,.06.5,1.36,1.36,0,0,1-.61,1.09,4.91,4.91,0,0,1-1.73.74A11.56,11.56,0,0,1,262.9,34.56Zm-2.67-7.4h3.95a1,1,0,0,0,.58-.14.61.61,0,0,0,.2-.53,1.21,1.21,0,0,0-.28-.78,1.84,1.84,0,0,0-.73-.54,3,3,0,0,0-1.09-.18,3,3,0,0,0-1.35.29,2.39,2.39,0,0,0-.94.8A1.89,1.89,0,0,0,260.23,27.16Z"/><path class="cls-3" d="M272.5,34.34a2.5,2.5,0,0,1-1.31-.26,1.11,1.11,0,0,1-.48-.72,5.43,5.43,0,0,1-.08-.92V23.72a4.45,4.45,0,0,1,.09-.93,1.08,1.08,0,0,1,.49-.69,2.57,2.57,0,0,1,1.32-.26,2.52,2.52,0,0,1,1.27.24,1,1,0,0,1,.48.55,1.73,1.73,0,0,1,.1.54l-.3.15a2.73,2.73,0,0,1,.27-.37,3.45,3.45,0,0,1,.58-.54,3.21,3.21,0,0,1,.92-.49,3.6,3.6,0,0,1,1.23-.2,4.7,4.7,0,0,1,.62,0,3.14,3.14,0,0,1,.7.15,2.47,2.47,0,0,1,.66.3,1.66,1.66,0,0,1,.49.46,1.21,1.21,0,0,1,.18.68,3.08,3.08,0,0,1-.47,1.73,1.4,1.4,0,0,1-1.2.71,2,2,0,0,1-.6-.06,1,1,0,0,1-.29-.15,1.1,1.1,0,0,0-.26-.15,1.72,1.72,0,0,0-.55-.06,2.34,2.34,0,0,0-.71.1,1.85,1.85,0,0,0-.63.31,1.6,1.6,0,0,0-.45.52,1.53,1.53,0,0,0-.16.72v5.47a5.52,5.52,0,0,1-.08.92,1,1,0,0,1-.49.68A2.6,2.6,0,0,1,272.5,34.34Z"/><path class="cls-3" d="M287.7,34.55a6.49,6.49,0,0,1-2.34-.46,7.19,7.19,0,0,1-2.11-1.32,6.31,6.31,0,0,1-1.51-2,6.14,6.14,0,0,1-.56-2.63,6.24,6.24,0,0,1,.51-2.52,7,7,0,0,1,1.42-2.06,6.75,6.75,0,0,1,2.06-1.41,6.16,6.16,0,0,1,2.49-.51,6.33,6.33,0,0,1,3.26.86,6.64,6.64,0,0,1,2.34,2.34,6.71,6.71,0,0,1,.31,6A6.5,6.5,0,0,1,290,34.11,6.17,6.17,0,0,1,287.7,34.55Zm-.05-3.77a2.85,2.85,0,0,0,1.23-.3,2.56,2.56,0,0,0,1.48-2.43,2.77,2.77,0,0,0-.35-1.4,2.58,2.58,0,0,0-1-.94,2.88,2.88,0,0,0-1.41-.33,2.52,2.52,0,0,0-1.34.34,2.76,2.76,0,0,0-1,1,2.66,2.66,0,0,0-.36,1.38,2.71,2.71,0,0,0,.41,1.52,2.56,2.56,0,0,0,1,.9A3.06,3.06,0,0,0,287.65,30.78Z"/><path class="cls-3" d="M305.31,23.69a2.08,2.08,0,0,1-1.3.61,1.91,1.91,0,0,1-1.25-.74,1.88,1.88,0,0,1-.63-1.38,2.23,2.23,0,0,1,.88-1.37l3.73-3.3a1.75,1.75,0,0,1,1.28-.57,2,2,0,0,1,1.24.77,1.72,1.72,0,0,1,.61,1.34,2.21,2.21,0,0,1-.88,1.36Zm3.14,10.72A2,2,0,0,1,307,34a2.15,2.15,0,0,1-.41-1.48V18.76A2.05,2.05,0,0,1,307,17.3a2.05,2.05,0,0,1,1.47-.41,2,2,0,0,1,1.46.42,2.19,2.19,0,0,1,.41,1.5V32.54a2.05,2.05,0,0,1-.41,1.46A2.06,2.06,0,0,1,308.45,34.41Z"/><path class="cls-3" d="M322.63,34.37a2.38,2.38,0,0,1-1.3-.27,1.14,1.14,0,0,1-.49-.73,4.7,4.7,0,0,1-.09-.92v-3.2h-6.7a2.4,2.4,0,0,1-1.3-.27,1.24,1.24,0,0,1-.5-.72,4.46,4.46,0,0,1-.09-.91,2.43,2.43,0,0,1,0-.41c0-.11,0-.21.05-.32l2.21-8.32c.18-.76.44-1.23.78-1.39a2.59,2.59,0,0,1,1.57,0,2.64,2.64,0,0,1,1.22.6,1,1,0,0,1,.28,1l-1.88,7.17h4.35v-7a3.88,3.88,0,0,1,.09-.87,1.05,1.05,0,0,1,.5-.67,2.63,2.63,0,0,1,1.34-.26,2.33,2.33,0,0,1,1.32.28,1.1,1.1,0,0,1,.49.71,4.62,4.62,0,0,1,.09.94V32.47a4.59,4.59,0,0,1-.1.94,1.17,1.17,0,0,1-.5.7A2.65,2.65,0,0,1,322.63,34.37Z"/><path class="cls-2" d="M114.17,16.75a3.84,3.84,0,0,1,.78.07.9.9,0,0,1,.59.43,2.19,2.19,0,0,1,.22,1.15,2.14,2.14,0,0,1-.22,1.12.89.89,0,0,1-.6.43,4.11,4.11,0,0,1-.8.07h-4V32.39a4.29,4.29,0,0,1-.09.9,1.06,1.06,0,0,1-.48.69,3.4,3.4,0,0,1-2.61,0,1.08,1.08,0,0,1-.49-.7,4.53,4.53,0,0,1-.08-.91V20h-4a3.3,3.3,0,0,1-.77-.08,1,1,0,0,1-.61-.43,2,2,0,0,1-.24-1.14,2,2,0,0,1,.24-1.12,1,1,0,0,1,.61-.43,4,4,0,0,1,.78-.07Z"/><path class="cls-2" d="M119.73,34.25a2.45,2.45,0,0,1-1.31-.26,1.11,1.11,0,0,1-.48-.72,4.7,4.7,0,0,1-.08-.92V23.62a4.42,4.42,0,0,1,.09-.92,1.06,1.06,0,0,1,.49-.69,2.54,2.54,0,0,1,1.32-.26A2.47,2.47,0,0,1,121,22a1.06,1.06,0,0,1,.49.55,1.73,1.73,0,0,1,.1.54l-.3.15a2.39,2.39,0,0,1,.26-.37,4.66,4.66,0,0,1,.59-.55,3.55,3.55,0,0,1,.91-.48,3.4,3.4,0,0,1,1.24-.2,4.45,4.45,0,0,1,.61,0,3,3,0,0,1,.7.15,2.4,2.4,0,0,1,.67.3,1.51,1.51,0,0,1,.48.46,1.13,1.13,0,0,1,.19.67,3.09,3.09,0,0,1-.47,1.74,1.4,1.4,0,0,1-1.21.71,2.11,2.11,0,0,1-.6-.06.92.92,0,0,1-.28-.15,1,1,0,0,0-.27-.15,1.64,1.64,0,0,0-.55-.06,2.39,2.39,0,0,0-.71.1,1.9,1.9,0,0,0-.62.31,1.6,1.6,0,0,0-.45.52,1.53,1.53,0,0,0-.17.72V32.4a4.46,4.46,0,0,1-.09.91,1,1,0,0,1-.49.69A2.53,2.53,0,0,1,119.73,34.25Z"/><path class="cls-2" d="M139.13,34.24a2.34,2.34,0,0,1-1.38-.33.89.89,0,0,1-.42-.8l.25-.42a2.8,2.8,0,0,1-.58.61,4.11,4.11,0,0,1-1.11.65,4.34,4.34,0,0,1-1.66.28,4.88,4.88,0,0,1-2.19-.5,5.7,5.7,0,0,1-1.83-1.39,7,7,0,0,1-1.28-2,6.16,6.16,0,0,1-.47-2.38,6,6,0,0,1,.47-2.33,6.9,6.9,0,0,1,1.29-2,6.37,6.37,0,0,1,1.84-1.36,5,5,0,0,1,2.18-.5,4.09,4.09,0,0,1,1.57.27,4.15,4.15,0,0,1,1.09.61,3.43,3.43,0,0,1,.66.67l-.22-.34a1.05,1.05,0,0,1,.43-.92,2.44,2.44,0,0,1,1.39-.31,2.24,2.24,0,0,1,1.29.28,1.07,1.07,0,0,1,.47.72,4.86,4.86,0,0,1,.09.95v8.63a4.7,4.7,0,0,1-.08.92,1.07,1.07,0,0,1-.48.71A2.37,2.37,0,0,1,139.13,34.24Zm-4.37-3.73a2.13,2.13,0,0,0,1.2-.34,2.57,2.57,0,0,0,.85-.91,2.6,2.6,0,0,0,.32-1.27,2.57,2.57,0,0,0-.32-1.29,2.42,2.42,0,0,0-.88-.89,2.3,2.3,0,0,0-1.22-.33,2.42,2.42,0,0,0-1.26.34,2.53,2.53,0,0,0-.9.91,2.5,2.5,0,0,0-.34,1.3,2.42,2.42,0,0,0,.33,1.24,2.59,2.59,0,0,0,.93.9A2.49,2.49,0,0,0,134.76,30.51Z"/><path class="cls-2" d="M144.88,34.26a1.79,1.79,0,0,1-1.31-.53,1.82,1.82,0,0,1-.54-1.34,2.06,2.06,0,0,1,.14-.73,1.81,1.81,0,0,1,.41-.62l5.68-5.5h-3.8a3.85,3.85,0,0,1-.91-.1,1.22,1.22,0,0,1-.73-.49,2.2,2.2,0,0,1-.28-1.31,2.25,2.25,0,0,1,.28-1.31,1.19,1.19,0,0,1,.73-.48,4.46,4.46,0,0,1,.91-.09h7.83a1.81,1.81,0,0,1,1.85,1.85,2.14,2.14,0,0,1-.14.76,1.45,1.45,0,0,1-.39.59l-5.55,5.52h4.52a5.41,5.41,0,0,1,.93.1,1.11,1.11,0,0,1,.68.51,2.41,2.41,0,0,1,.27,1.32,2.48,2.48,0,0,1-.28,1.3,1.05,1.05,0,0,1-.7.48,5.33,5.33,0,0,1-.93.07Z"/><path class="cls-2" d="M167.7,34.25a2.41,2.41,0,0,1-1.37-.32.93.93,0,0,1-.43-.8l.26-.43a2.82,2.82,0,0,1-.58.61,4,4,0,0,1-1.11.65,4.2,4.2,0,0,1-1.67.29,5,5,0,0,1-2.18-.5,5.78,5.78,0,0,1-1.84-1.39,7,7,0,0,1-1.27-2A6,6,0,0,1,157,28a5.9,5.9,0,0,1,.48-2.34,6.65,6.65,0,0,1,1.29-2,6.24,6.24,0,0,1,1.84-1.36,4.9,4.9,0,0,1,2.17-.5,4.35,4.35,0,0,1,1.58.26,4.26,4.26,0,0,1,1.08.62,3.51,3.51,0,0,1,.67.67l-.23-.35a1.05,1.05,0,0,1,.44-.91,2.4,2.4,0,0,1,1.39-.31,2.3,2.3,0,0,1,1.28.27,1.16,1.16,0,0,1,.48.73,4.87,4.87,0,0,1,.08.95v8.62a4.73,4.73,0,0,1-.09.93A1.09,1.09,0,0,1,169,34,2.42,2.42,0,0,1,167.7,34.25Zm-4.37-3.72a2.21,2.21,0,0,0,1.2-.34A2.6,2.6,0,0,0,165.71,28a2.53,2.53,0,0,0-.33-1.29,2.3,2.3,0,0,0-.87-.88,2.48,2.48,0,0,0-2.49,0,2.61,2.61,0,0,0-.9.91,2.57,2.57,0,0,0-.34,1.3,2.34,2.34,0,0,0,.34,1.24,2.56,2.56,0,0,0,.92.9A2.62,2.62,0,0,0,163.33,30.53Z"/><path class="cls-2" d="M184.8,34.51a7.28,7.28,0,0,1-3-.57,5.86,5.86,0,0,1-2.06-1.52,6.51,6.51,0,0,1-1.2-2.09,6.83,6.83,0,0,1-.4-2.3,6.51,6.51,0,0,1,.85-3.32,6.14,6.14,0,0,1,2.37-2.29,7.11,7.11,0,0,1,3.46-.83,6.22,6.22,0,0,1,2.51.46,5.23,5.23,0,0,1,1.75,1.2,5.34,5.34,0,0,1,1,1.59,4.51,4.51,0,0,1,.33,1.63,2.84,2.84,0,0,1-.66,2.05,2.27,2.27,0,0,1-1.69.67h-6a1.82,1.82,0,0,0,.46,1.07,2.73,2.73,0,0,0,1,.7,3.5,3.5,0,0,0,1.33.25,8.05,8.05,0,0,0,1-.06,4.49,4.49,0,0,0,.79-.17l.59-.23a4.27,4.27,0,0,1,.49-.18,1.7,1.7,0,0,1,.42-.1,1,1,0,0,1,.68.21,2.11,2.11,0,0,1,.57.71,1.65,1.65,0,0,1,.24.53,2.07,2.07,0,0,1,.06.5,1.35,1.35,0,0,1-.61,1.08,4.73,4.73,0,0,1-1.73.74A11.56,11.56,0,0,1,184.8,34.51Zm-2.67-7.4h4a1.06,1.06,0,0,0,.58-.13.62.62,0,0,0,.2-.54,1.23,1.23,0,0,0-.28-.78,1.67,1.67,0,0,0-.73-.53,2.83,2.83,0,0,0-1.09-.19,3,3,0,0,0-1.35.3,2.38,2.38,0,0,0-.94.8A1.91,1.91,0,0,0,182.13,27.11Z"/><path class="cls-2" d="M197.33,34.3a16.54,16.54,0,0,1-1.83-.1,3.9,3.9,0,0,1-1.35-.41,2.64,2.64,0,0,1-.9-.83,4.19,4.19,0,0,1-.52-1.38,10.11,10.11,0,0,1-.17-2.06V18a4.49,4.49,0,0,1,.1-.93,1.21,1.21,0,0,1,.49-.7,2.39,2.39,0,0,1,1.31-.27,2.34,2.34,0,0,1,1.29.27,1.2,1.2,0,0,1,.49.71,3.82,3.82,0,0,1,.1.92V29.35a4.16,4.16,0,0,0,0,.66.8.8,0,0,0,.15.41.51.51,0,0,0,.31.2,2.44,2.44,0,0,0,.53.05,2.62,2.62,0,0,1,.61.08.85.85,0,0,1,.53.45,2.42,2.42,0,0,1,.23,1.25,2.79,2.79,0,0,1-.23,1.3.91.91,0,0,1-.53.47A2.8,2.8,0,0,1,197.33,34.3Z"/><path class="cls-2" d="M209,34.28a2.39,2.39,0,0,1-1.31-.27,1,1,0,0,1-.47-.7,4.46,4.46,0,0,1-.09-.91V23.6a4.26,4.26,0,0,1,.09-.89,1,1,0,0,1,.49-.66A2.71,2.71,0,0,1,209,21.8a2.35,2.35,0,0,1,1.17.22,1,1,0,0,1,.49.51,1.73,1.73,0,0,1,.11.56.91.91,0,0,0,.05.36l-.15.48a1.43,1.43,0,0,1,.39-.76,3.53,3.53,0,0,1,.85-.7A4.73,4.73,0,0,1,213,22a3.93,3.93,0,0,1,1.16-.17,5,5,0,0,1,2.14.43,4.42,4.42,0,0,1,1.58,1.27,5.56,5.56,0,0,1,1,1.94,8.16,8.16,0,0,1,.34,2.43v4.55a5.43,5.43,0,0,1-.08.92,1,1,0,0,1-.48.68A3.6,3.6,0,0,1,216,34a1.08,1.08,0,0,1-.49-.7,4.53,4.53,0,0,1-.09-.91V27.88a2.87,2.87,0,0,0-.26-1.27,1.88,1.88,0,0,0-.75-.8,2.39,2.39,0,0,0-1.22-.28,2.59,2.59,0,0,0-1.25.29,2,2,0,0,0-.81.81,2.59,2.59,0,0,0-.29,1.25v4.55a4.46,4.46,0,0,1-.09.91,1.08,1.08,0,0,1-.47.69A2.53,2.53,0,0,1,209,34.28Z"/><path class="cls-2" d="M227,34.29a5.25,5.25,0,0,1-2.18-.45,5.31,5.31,0,0,1-1.75-1.27,5.8,5.8,0,0,1-1.16-1.92,7.1,7.1,0,0,1-.41-2.44V23.69a4.45,4.45,0,0,1,.09-.93,1.1,1.1,0,0,1,.49-.7,2.46,2.46,0,0,1,1.32-.27,2.41,2.41,0,0,1,1.32.27,1.13,1.13,0,0,1,.47.72,4.59,4.59,0,0,1,.09.93v4.5a2.8,2.8,0,0,0,.26,1.27,1.83,1.83,0,0,0,.77.81,2.57,2.57,0,0,0,1.21.27,2.5,2.5,0,0,0,1.24-.28,2,2,0,0,0,.8-.81,2.59,2.59,0,0,0,.29-1.25V23.67a4.45,4.45,0,0,1,.09-.93,1.08,1.08,0,0,1,.49-.69,2.59,2.59,0,0,1,1.33-.26,2.29,2.29,0,0,1,1.31.28,1.1,1.1,0,0,1,.47.71,4.53,4.53,0,0,1,.09.91v8.8a4.91,4.91,0,0,1-.08.89,1,1,0,0,1-.49.66,2.52,2.52,0,0,1-1.3.25,2.92,2.92,0,0,1-1.05-.15,1.23,1.23,0,0,1-.55-.37.94.94,0,0,1-.21-.48,2.57,2.57,0,0,1,0-.45l.32-.27a3,3,0,0,1-.32.38,5.89,5.89,0,0,1-.66.58,4.26,4.26,0,0,1-1,.53A3.31,3.31,0,0,1,227,34.29Zm-.39-13.38a.82.82,0,0,1-.74-.25,2.63,2.63,0,0,1-.51-1,2,2,0,0,1-.1-1.3,1.35,1.35,0,0,1,.92-.67l4.4-1.35a.88.88,0,0,1,.73.29,2.53,2.53,0,0,1,.5,1,1.85,1.85,0,0,1,.08,1.27,1.3,1.3,0,0,1-.91.68Z"/><path class="cls-2" d="M238,34.32a2.28,2.28,0,0,1-1.3-.28,1,1,0,0,1-.48-.7,5.29,5.29,0,0,1-.07-.92V23.67a4.29,4.29,0,0,1,.09-.9,1.08,1.08,0,0,1,.49-.69,2.59,2.59,0,0,1,1.33-.26,2.09,2.09,0,0,1,1.35.36,1.51,1.51,0,0,1,.42,1.19l-.33.28a2.46,2.46,0,0,1,.3-.43,4.89,4.89,0,0,1,.65-.62,4.13,4.13,0,0,1,.94-.57,3,3,0,0,1,1.17-.23A4.33,4.33,0,0,1,244,22a3.82,3.82,0,0,1,1.2.7,4.38,4.38,0,0,1,.94,1.16,6.28,6.28,0,0,1,.85-1,4.41,4.41,0,0,1,1.17-.8,3.47,3.47,0,0,1,1.53-.33,4.15,4.15,0,0,1,2.49.74,4.56,4.56,0,0,1,1.53,2.11,9.38,9.38,0,0,1,.53,3.33v4.48a3.91,3.91,0,0,1-.1.91,1.14,1.14,0,0,1-.48.7,2.52,2.52,0,0,1-1.32.26,2.33,2.33,0,0,1-1.32-.28,1,1,0,0,1-.48-.71,5.41,5.41,0,0,1-.07-.91V28a3.71,3.71,0,0,0-.19-1.28,1.78,1.78,0,0,0-.53-.83,1.41,1.41,0,0,0-.9-.29,1.64,1.64,0,0,0-1,.28,1.72,1.72,0,0,0-.6.8,3.92,3.92,0,0,0-.2,1.35v4.47a3.19,3.19,0,0,1-.13.94,1.22,1.22,0,0,1-.53.7,2.52,2.52,0,0,1-1.34.23,2.1,2.1,0,0,1-1.25-.28,1.17,1.17,0,0,1-.45-.73,5.26,5.26,0,0,1-.08-.89V28a4.21,4.21,0,0,0-.18-1.3,1.65,1.65,0,0,0-.52-.83,1.49,1.49,0,0,0-.93-.27,1.59,1.59,0,0,0-1,.32,2,2,0,0,0-.59.86,3.59,3.59,0,0,0-.19,1.22v4.5a4.42,4.42,0,0,1-.09.92,1.06,1.06,0,0,1-.49.69A2.54,2.54,0,0,1,238,34.32Z"/><path class="cls-2" d="M262.9,34.56a7.12,7.12,0,0,1-3-.58,5.84,5.84,0,0,1-2.06-1.51,6.43,6.43,0,0,1-1.2-2.09,6.88,6.88,0,0,1-.4-2.3,6.38,6.38,0,0,1,.85-3.32,6.14,6.14,0,0,1,2.37-2.29,6.9,6.9,0,0,1,3.46-.83,6.22,6.22,0,0,1,2.51.46,5.23,5.23,0,0,1,1.75,1.2,5.1,5.1,0,0,1,1,1.59,4.5,4.5,0,0,1,.33,1.62,2.82,2.82,0,0,1-.66,2,2.28,2.28,0,0,1-1.69.68h-5.95a1.77,1.77,0,0,0,.46,1.08,2.85,2.85,0,0,0,1,.7,3.48,3.48,0,0,0,1.32.25,8.1,8.1,0,0,0,1-.06,3.7,3.7,0,0,0,.79-.18c.22-.07.41-.15.59-.22a4.32,4.32,0,0,1,.48-.19,2.63,2.63,0,0,1,.43-.1,1,1,0,0,1,.67.22,1.93,1.93,0,0,1,.58.71,2,2,0,0,1,.24.52,2.2,2.2,0,0,1,.06.5,1.36,1.36,0,0,1-.61,1.09,4.91,4.91,0,0,1-1.73.74A11.56,11.56,0,0,1,262.9,34.56Zm-2.67-7.4h3.95a1,1,0,0,0,.58-.14.61.61,0,0,0,.2-.53,1.21,1.21,0,0,0-.28-.78,1.84,1.84,0,0,0-.73-.54,3,3,0,0,0-1.09-.18,3,3,0,0,0-1.35.29,2.39,2.39,0,0,0-.94.8A1.89,1.89,0,0,0,260.23,27.16Z"/><path class="cls-2" d="M272.5,34.34a2.5,2.5,0,0,1-1.31-.26,1.11,1.11,0,0,1-.48-.72,5.43,5.43,0,0,1-.08-.92V23.72a4.45,4.45,0,0,1,.09-.93,1.08,1.08,0,0,1,.49-.69,2.57,2.57,0,0,1,1.32-.26,2.52,2.52,0,0,1,1.27.24,1,1,0,0,1,.48.55,1.73,1.73,0,0,1,.1.54l-.3.15a2.73,2.73,0,0,1,.27-.37,3.45,3.45,0,0,1,.58-.54,3.21,3.21,0,0,1,.92-.49,3.6,3.6,0,0,1,1.23-.2,4.7,4.7,0,0,1,.62,0,3.14,3.14,0,0,1,.7.15,2.47,2.47,0,0,1,.66.3,1.66,1.66,0,0,1,.49.46,1.21,1.21,0,0,1,.18.68,3.08,3.08,0,0,1-.47,1.73,1.4,1.4,0,0,1-1.2.71,2,2,0,0,1-.6-.06,1,1,0,0,1-.29-.15,1.1,1.1,0,0,0-.26-.15,1.72,1.72,0,0,0-.55-.06,2.34,2.34,0,0,0-.71.1,1.85,1.85,0,0,0-.63.31,1.6,1.6,0,0,0-.45.52,1.53,1.53,0,0,0-.16.72v5.47a5.52,5.52,0,0,1-.08.92,1,1,0,0,1-.49.68A2.6,2.6,0,0,1,272.5,34.34Z"/><path class="cls-2" d="M287.7,34.55a6.49,6.49,0,0,1-2.34-.46,7.19,7.19,0,0,1-2.11-1.32,6.31,6.31,0,0,1-1.51-2,6.14,6.14,0,0,1-.56-2.63,6.24,6.24,0,0,1,.51-2.52,7,7,0,0,1,1.42-2.06,6.75,6.75,0,0,1,2.06-1.41,6.16,6.16,0,0,1,2.49-.51,6.33,6.33,0,0,1,3.26.86,6.64,6.64,0,0,1,2.34,2.34,6.71,6.71,0,0,1,.31,6A6.5,6.5,0,0,1,290,34.11,6.17,6.17,0,0,1,287.7,34.55Zm-.05-3.77a2.85,2.85,0,0,0,1.23-.3,2.56,2.56,0,0,0,1.48-2.43,2.77,2.77,0,0,0-.35-1.4,2.58,2.58,0,0,0-1-.94,2.88,2.88,0,0,0-1.41-.33,2.52,2.52,0,0,0-1.34.34,2.76,2.76,0,0,0-1,1,2.66,2.66,0,0,0-.36,1.38,2.71,2.71,0,0,0,.41,1.52,2.56,2.56,0,0,0,1,.9A3.06,3.06,0,0,0,287.65,30.78Z"/><path class="cls-2" d="M305.31,23.69a2.08,2.08,0,0,1-1.3.61,1.91,1.91,0,0,1-1.25-.74,1.88,1.88,0,0,1-.63-1.38,2.23,2.23,0,0,1,.88-1.37l3.73-3.3a1.75,1.75,0,0,1,1.28-.57,2,2,0,0,1,1.24.77,1.72,1.72,0,0,1,.61,1.34,2.21,2.21,0,0,1-.88,1.36Zm3.14,10.72A2,2,0,0,1,307,34a2.15,2.15,0,0,1-.41-1.48V18.76A2.05,2.05,0,0,1,307,17.3a2.05,2.05,0,0,1,1.47-.41,2,2,0,0,1,1.46.42,2.19,2.19,0,0,1,.41,1.5V32.54a2.05,2.05,0,0,1-.41,1.46A2.06,2.06,0,0,1,308.45,34.41Z"/><path class="cls-2" d="M322.63,34.37a2.38,2.38,0,0,1-1.3-.27,1.14,1.14,0,0,1-.49-.73,4.7,4.7,0,0,1-.09-.92v-3.2h-6.7a2.4,2.4,0,0,1-1.3-.27,1.24,1.24,0,0,1-.5-.72,4.46,4.46,0,0,1-.09-.91,2.43,2.43,0,0,1,0-.41c0-.11,0-.21.05-.32l2.21-8.32c.18-.76.44-1.23.78-1.39a2.59,2.59,0,0,1,1.57,0,2.64,2.64,0,0,1,1.22.6,1,1,0,0,1,.28,1l-1.88,7.17h4.35v-7a3.88,3.88,0,0,1,.09-.87,1.05,1.05,0,0,1,.5-.67,2.63,2.63,0,0,1,1.34-.26,2.33,2.33,0,0,1,1.32.28,1.1,1.1,0,0,1,.49.71,4.62,4.62,0,0,1,.09.94V32.47a4.59,4.59,0,0,1-.1.94,1.17,1.17,0,0,1-.5.7A2.65,2.65,0,0,1,322.63,34.37Z"/><path class="cls-4" d="M55.46,35q0,3.4-1.18,4.85a4.36,4.36,0,0,1-3.59,1.45,5.6,5.6,0,0,1-2.57-.5,3.25,3.25,0,0,1-1.48-1.85,11,11,0,0,1-.55-3.61L46,19.62a6.3,6.3,0,0,1-3.21-.73,2.58,2.58,0,0,1-1.26-2.46,2.77,2.77,0,0,1,1.16-2.29,5.16,5.16,0,0,1,3.24-.9l2.3,0,2.1,0c2,0,3.36.34,4,1a5,5,0,0,1,1,3.59Z"/><path class="cls-4" d="M76.56,41.25a4.22,4.22,0,0,1-3.5-1.36c-.73-.91-1.1-2.5-1.1-4.77H64.42a5.27,5.27,0,0,1-3.92-1.3,4.53,4.53,0,0,1-1.28-3.36,7.14,7.14,0,0,1,1.1-3.95q2.9-4.67,6.52-10.08a6.65,6.65,0,0,1,5.83-3.19l3.55,0c2,0,3.32.34,4,1a4.89,4.89,0,0,1,1.06,3.59V29a3.69,3.69,0,0,1,2.4.88,3.28,3.28,0,0,1,.65,2.27,2.84,2.84,0,0,1-.69,2.2,4,4,0,0,1-2.37.74c0,2.21-.39,3.79-1.18,4.75A4.35,4.35,0,0,1,76.56,41.25ZM71.93,29.16l.13-8.95-5.47,9Z"/><path class="cls-5" d="M55.46,35q0,3.4-1.18,4.85a4.36,4.36,0,0,1-3.59,1.45,5.6,5.6,0,0,1-2.57-.5,3.25,3.25,0,0,1-1.48-1.85,11,11,0,0,1-.55-3.61L46,19.62a6.3,6.3,0,0,1-3.21-.73,2.58,2.58,0,0,1-1.26-2.46,2.77,2.77,0,0,1,1.16-2.29,5.16,5.16,0,0,1,3.24-.9l2.3,0,2.1,0c2,0,3.36.34,4,1a5,5,0,0,1,1,3.59Z"/><path class="cls-5" d="M76.56,41.25a4.22,4.22,0,0,1-3.5-1.36c-.73-.91-1.1-2.5-1.1-4.77H64.42a5.27,5.27,0,0,1-3.92-1.3,4.53,4.53,0,0,1-1.28-3.36,7.14,7.14,0,0,1,1.1-3.95q2.9-4.67,6.52-10.08a6.65,6.65,0,0,1,5.83-3.19l3.55,0c2,0,3.32.34,4,1a4.89,4.89,0,0,1,1.06,3.59V29a3.69,3.69,0,0,1,2.4.88,3.28,3.28,0,0,1,.65,2.27,2.84,2.84,0,0,1-.69,2.2,4,4,0,0,1-2.37.74c0,2.21-.39,3.79-1.18,4.75A4.35,4.35,0,0,1,76.56,41.25ZM71.93,29.16l.13-8.95-5.47,9Z"/></g></g></svg>