<svg xmlns="http://www.w3.org/2000/svg" viewBox="0 0 399.98 91.27"><defs><style>.cls-1{fill:#512573;}.cls-2{fill:#fff;}.cls-3,.cls-4{fill:none;stroke-width:4.85px;}.cls-3{stroke:#ff7300;stroke-linejoin:round;}.cls-4{stroke:#fff;}.cls-5{fill:#ff7300;}</style></defs><title>27tv</title><g id="Layer_2" data-name="Layer 2"><g id="pestaña_identificativa" data-name="pestaña identificativa"><rect class="cls-1" width="399.98" height="91.27" rx="32.4"/><path class="cls-2" d="M114.16,18.28a3.94,3.94,0,0,1,.79.07,1,1,0,0,1,.59.4,2.08,2.08,0,0,1,.22,1.08,1.91,1.91,0,0,1-.23,1.06.88.88,0,0,1-.6.4,4,4,0,0,1-.8.07h-4V33a3.89,3.89,0,0,1-.09.85,1,1,0,0,1-.47.65,2.72,2.72,0,0,1-1.34.24,2.42,2.42,0,0,1-1.27-.25,1,1,0,0,1-.49-.65,4.12,4.12,0,0,1-.09-.86V21.36h-4a3.33,3.33,0,0,1-.78-.09,1,1,0,0,1-.61-.4,1.82,1.82,0,0,1-.24-1.07,1.84,1.84,0,0,1,.24-1.06,1,1,0,0,1,.62-.4,4.79,4.79,0,0,1,.77-.07Z"/><path class="cls-2" d="M119.73,34.76a2.53,2.53,0,0,1-1.32-.25,1,1,0,0,1-.47-.67,4.14,4.14,0,0,1-.09-.87V24.75a4.77,4.77,0,0,1,.08-.87,1,1,0,0,1,.49-.64,2.6,2.6,0,0,1,1.33-.25,2.78,2.78,0,0,1,1.26.22,1,1,0,0,1,.49.52,1.89,1.89,0,0,1,.1.51l-.3.14a2.15,2.15,0,0,1,.26-.34,3.15,3.15,0,0,1,.59-.52,3.68,3.68,0,0,1,.91-.46,3.9,3.9,0,0,1,1.24-.18l.61,0a3.62,3.62,0,0,1,.7.14,2.81,2.81,0,0,1,.66.29,1.57,1.57,0,0,1,.49.43,1.1,1.1,0,0,1,.19.64,2.71,2.71,0,0,1-.48,1.63,1.42,1.42,0,0,1-1.2.67,2.11,2.11,0,0,1-.6-.06,1,1,0,0,1-.29-.14,1.26,1.26,0,0,0-.26-.14,1.68,1.68,0,0,0-.55-.06,2.34,2.34,0,0,0-.71.1,2,2,0,0,0-.63.29,1.5,1.5,0,0,0-.45.49,1.35,1.35,0,0,0-.16.67V33a4,4,0,0,1-.09.86,1,1,0,0,1-.49.64A2.71,2.71,0,0,1,119.73,34.76Z"/><path class="cls-2" d="M139.12,34.75a2.5,2.5,0,0,1-1.37-.31.85.85,0,0,1-.43-.75l.26-.4a2.83,2.83,0,0,1-.58.57,4.25,4.25,0,0,1-1.11.61,4.6,4.6,0,0,1-1.67.27,5.12,5.12,0,0,1-2.18-.47A5.68,5.68,0,0,1,130.2,33a6.41,6.41,0,0,1-1.27-1.89,5.37,5.37,0,0,1-.48-2.24,5.22,5.22,0,0,1,.48-2.2,6.35,6.35,0,0,1,3.13-3.14,5.2,5.2,0,0,1,2.17-.47,4.59,4.59,0,0,1,1.58.25,4.55,4.55,0,0,1,1.08.58,3.18,3.18,0,0,1,.67.63l-.23-.33a1,1,0,0,1,.44-.86,2.59,2.59,0,0,1,1.39-.29,2.38,2.38,0,0,1,1.28.26,1.06,1.06,0,0,1,.48.68,4.36,4.36,0,0,1,.09.9V33a4.14,4.14,0,0,1-.09.87,1,1,0,0,1-.47.67A2.64,2.64,0,0,1,139.12,34.75Zm-4.37-3.51a2.29,2.29,0,0,0,1.2-.32,2.42,2.42,0,0,0,.85-.86,2.37,2.37,0,0,0,0-2.41,2.34,2.34,0,0,0-.87-.84,2.54,2.54,0,0,0-3.39.87,2.32,2.32,0,0,0-.34,1.23,2.07,2.07,0,0,0,.34,1.16,2.44,2.44,0,0,0,.92.85A2.71,2.71,0,0,0,134.75,31.24Z"/><path class="cls-2" d="M144.88,34.77a1.89,1.89,0,0,1-1.32-.5A1.66,1.66,0,0,1,143,33a1.8,1.8,0,0,1,.13-.69,1.69,1.69,0,0,1,.42-.58l5.68-5.18h-3.81a3.91,3.91,0,0,1-.91-.1,1.21,1.21,0,0,1-.72-.45,2.07,2.07,0,0,1-.29-1.24,2.07,2.07,0,0,1,.29-1.24,1.15,1.15,0,0,1,.72-.44,4,4,0,0,1,.92-.08h7.82a1.87,1.87,0,0,1,1.33.49,1.65,1.65,0,0,1,.52,1.25,2,2,0,0,1-.14.72,1.39,1.39,0,0,1-.38.55l-5.56,5.2h4.53a4.4,4.4,0,0,1,.92.1,1.1,1.1,0,0,1,.69.47,2.31,2.31,0,0,1,.26,1.25,2.14,2.14,0,0,1-.27,1.22,1.1,1.1,0,0,1-.71.45,6.5,6.5,0,0,1-.92.07Z"/><path class="cls-2" d="M167.7,34.76a2.55,2.55,0,0,1-1.38-.3.83.83,0,0,1-.42-.76l.25-.4a2.59,2.59,0,0,1-.58.58,4.1,4.1,0,0,1-1.11.61,4.55,4.55,0,0,1-1.66.27,5.29,5.29,0,0,1-2.19-.47A5.91,5.91,0,0,1,158.78,33a6.62,6.62,0,0,1-1.28-1.9,5.47,5.47,0,0,1-.47-2.23,5.22,5.22,0,0,1,.48-2.2,6.12,6.12,0,0,1,1.28-1.86,6.42,6.42,0,0,1,1.84-1.28,5.06,5.06,0,0,1,2.18-.47,4.37,4.37,0,0,1,2.66.82,3.38,3.38,0,0,1,.66.64l-.22-.33a1,1,0,0,1,.43-.86,2.55,2.55,0,0,1,1.39-.29,2.35,2.35,0,0,1,1.29.26,1,1,0,0,1,.47.68,4.26,4.26,0,0,1,.09.89V33a4.31,4.31,0,0,1-.09.88,1,1,0,0,1-.48.67A2.62,2.62,0,0,1,167.7,34.76Zm-4.37-3.51a2.28,2.28,0,0,0,1.2-.31,2.59,2.59,0,0,0,.85-.86,2.45,2.45,0,0,0,0-2.42,2.39,2.39,0,0,0-.87-.83,2.44,2.44,0,0,0-1.23-.31,2.51,2.51,0,0,0-1.26.32,2.4,2.4,0,0,0-.9.86,2.22,2.22,0,0,0-.34,1.22,2.13,2.13,0,0,0,.34,1.17,2.41,2.41,0,0,0,.92.84A2.57,2.57,0,0,0,163.33,31.25Z"/><path class="cls-2" d="M184.8,35a7.42,7.42,0,0,1-3-.55,5.76,5.76,0,0,1-3.26-3.39,6.11,6.11,0,0,1-.4-2.16,5.76,5.76,0,0,1,.85-3.13,6,6,0,0,1,2.36-2.15,7.36,7.36,0,0,1,3.47-.79,6.43,6.43,0,0,1,2.51.44,5.09,5.09,0,0,1,1.75,1.13,4.61,4.61,0,0,1,1,1.49,3.9,3.9,0,0,1,.34,1.53,2.53,2.53,0,0,1-.67,1.93,2.34,2.34,0,0,1-1.68.64h-6a1.53,1.53,0,0,0,.46,1,2.58,2.58,0,0,0,1,.66,3.6,3.6,0,0,0,1.32.24,8.22,8.22,0,0,0,1-.06,4.56,4.56,0,0,0,.79-.16l.58-.21.49-.18a1.74,1.74,0,0,1,.43-.09,1,1,0,0,1,.67.2,1.94,1.94,0,0,1,.58.67,1.78,1.78,0,0,1,.23.49,2,2,0,0,1,.07.47,1.25,1.25,0,0,1-.62,1,4.88,4.88,0,0,1-1.72.69A12.19,12.19,0,0,1,184.8,35Zm-2.67-7h4a1,1,0,0,0,.57-.13c.14-.08.2-.25.2-.5a1.12,1.12,0,0,0-.27-.73,1.75,1.75,0,0,0-.74-.51,3,3,0,0,0-1.08-.18,3.3,3.3,0,0,0-1.36.28,2.28,2.28,0,0,0-.93.76A1.66,1.66,0,0,0,182.13,28Z"/><path class="cls-2" d="M197.32,34.8a16.39,16.39,0,0,1-1.82-.09,4.14,4.14,0,0,1-1.35-.38,2.37,2.37,0,0,1-.9-.79,3.83,3.83,0,0,1-.53-1.29,9.74,9.74,0,0,1-.17-1.95V19.43a3.46,3.46,0,0,1,.1-.87,1.1,1.1,0,0,1,.49-.66,2.48,2.48,0,0,1,1.31-.26,2.44,2.44,0,0,1,1.29.26,1.07,1.07,0,0,1,.48.66,3.46,3.46,0,0,1,.1.87V30.14a5.53,5.53,0,0,0,0,.63.89.89,0,0,0,.15.38.52.52,0,0,0,.32.19,2.34,2.34,0,0,0,.52.05,2.54,2.54,0,0,1,.61.07.9.9,0,0,1,.54.42,2.32,2.32,0,0,1,.22,1.18,2.54,2.54,0,0,1-.22,1.23.84.84,0,0,1-.54.44A2.73,2.73,0,0,1,197.32,34.8Z"/><path class="cls-2" d="M209,34.79a2.57,2.57,0,0,1-1.31-.25,1,1,0,0,1-.48-.66,4,4,0,0,1-.08-.86V24.73a3.7,3.7,0,0,1,.09-.83.94.94,0,0,1,.49-.62A2.66,2.66,0,0,1,209,23a2.69,2.69,0,0,1,1.18.2,1,1,0,0,1,.48.48,1.39,1.39,0,0,1,.12.53,1,1,0,0,0,0,.35l-.15.44a1.52,1.52,0,0,1,.39-.72,3.6,3.6,0,0,1,.85-.65,4.65,4.65,0,0,1,1.1-.46,4.3,4.3,0,0,1,1.17-.17,5.12,5.12,0,0,1,2.13.42,4.17,4.17,0,0,1,1.59,1.19,5.42,5.42,0,0,1,1,1.82,7.61,7.61,0,0,1,.33,2.3v4.28a4,4,0,0,1-.09.86,1,1,0,0,1-.47.65,2.87,2.87,0,0,1-1.34.23,2.6,2.6,0,0,1-1.33-.25,1,1,0,0,1-.48-.66,4,4,0,0,1-.09-.86V28.76a2.47,2.47,0,0,0-.26-1.2,1.7,1.7,0,0,0-.75-.75,2.58,2.58,0,0,0-1.21-.26,2.71,2.71,0,0,0-1.25.27,2,2,0,0,0-.81.76,2.25,2.25,0,0,0-.29,1.18V33a4,4,0,0,1-.09.86,1,1,0,0,1-.48.65A2.62,2.62,0,0,1,209,34.79Z"/><path class="cls-2" d="M227,34.8a5.53,5.53,0,0,1-2.17-.43,5.32,5.32,0,0,1-2.91-3,6.15,6.15,0,0,1-.41-2.3V24.81a4,4,0,0,1,.09-.87,1.1,1.1,0,0,1,.48-.66,3.61,3.61,0,0,1,2.64,0,1.09,1.09,0,0,1,.48.68,4.06,4.06,0,0,1,.08.88v4.24a2.57,2.57,0,0,0,.26,1.18,1.76,1.76,0,0,0,.78.77,2.67,2.67,0,0,0,1.21.26,2.64,2.64,0,0,0,1.24-.27,2,2,0,0,0,.8-.77,2.28,2.28,0,0,0,.29-1.17V24.79a4,4,0,0,1,.09-.87,1,1,0,0,1,.49-.64,2.53,2.53,0,0,1,1.32-.25,2.48,2.48,0,0,1,1.31.26,1.07,1.07,0,0,1,.48.67,3.49,3.49,0,0,1,.08.86V33.1a3.73,3.73,0,0,1-.09.84.94.94,0,0,1-.49.62,2.62,2.62,0,0,1-1.3.24,3.2,3.2,0,0,1-1.05-.14,1.38,1.38,0,0,1-.55-.36,1,1,0,0,1-.21-.44,3.62,3.62,0,0,1,0-.43l.33-.26a2.63,2.63,0,0,1-.33.37,5.33,5.33,0,0,1-.66.54,4.13,4.13,0,0,1-1,.5A3.37,3.37,0,0,1,227,34.8Zm-.39-12.6a.88.88,0,0,1-.74-.23,2.45,2.45,0,0,1-.51-.94,1.89,1.89,0,0,1-.1-1.23,1.4,1.4,0,0,1,.93-.63l4.4-1.27a.89.89,0,0,1,.72.27,2.24,2.24,0,0,1,.5.93,1.67,1.67,0,0,1,.09,1.2,1.33,1.33,0,0,1-.91.63Z"/><path class="cls-2" d="M238,34.83a2.62,2.62,0,0,1-1.3-.26,1,1,0,0,1-.47-.66,4.77,4.77,0,0,1-.08-.87V24.8a3.89,3.89,0,0,1,.09-.85,1,1,0,0,1,.49-.65,2.66,2.66,0,0,1,1.32-.24,2.12,2.12,0,0,1,1.35.34,1.36,1.36,0,0,1,.42,1.12l-.32.26a1.52,1.52,0,0,1,.3-.4,4.29,4.29,0,0,1,.65-.59,4,4,0,0,1,.94-.53,3,3,0,0,1,1.16-.22,4.62,4.62,0,0,1,1.49.22,3.91,3.91,0,0,1,1.2.66,4.13,4.13,0,0,1,.93,1.09,6.58,6.58,0,0,1,.86-.91,4.63,4.63,0,0,1,1.17-.76,3.73,3.73,0,0,1,1.53-.3,4.07,4.07,0,0,1,4,2.69,8.3,8.3,0,0,1,.52,3.13v4.21a3.49,3.49,0,0,1-.1.86,1.1,1.1,0,0,1-.49.66,2.62,2.62,0,0,1-1.31.24,2.49,2.49,0,0,1-1.33-.26,1,1,0,0,1-.47-.67,4.74,4.74,0,0,1-.08-.86V28.83a3.61,3.61,0,0,0-.19-1.21,1.61,1.61,0,0,0-.54-.78,1.42,1.42,0,0,0-.9-.27,1.75,1.75,0,0,0-1,.26,1.51,1.51,0,0,0-.6.75,3.28,3.28,0,0,0-.2,1.27v4.22A3.17,3.17,0,0,1,247,34a1.19,1.19,0,0,1-.54.66,2.59,2.59,0,0,1-1.34.22,2.21,2.21,0,0,1-1.25-.27,1.06,1.06,0,0,1-.45-.69,4.57,4.57,0,0,1-.07-.83V28.83a4.11,4.11,0,0,0-.17-1.23,1.52,1.52,0,0,0-.53-.77,1.46,1.46,0,0,0-.92-.26,1.68,1.68,0,0,0-1,.3,1.94,1.94,0,0,0-.59.81,3.41,3.41,0,0,0-.18,1.14v4.24a4.6,4.6,0,0,1-.08.87,1,1,0,0,1-.49.65A2.71,2.71,0,0,1,238,34.83Z"/><path class="cls-2" d="M262.9,35.05a7.6,7.6,0,0,1-3-.54,5.83,5.83,0,0,1-2.07-1.43,5.93,5.93,0,0,1-1.19-2,6.16,6.16,0,0,1-.4-2.17,5.76,5.76,0,0,1,.85-3.13,5.92,5.92,0,0,1,2.36-2.15,7.36,7.36,0,0,1,3.47-.79,6.62,6.62,0,0,1,2.51.44,5.24,5.24,0,0,1,1.75,1.13,4.7,4.7,0,0,1,1,1.5,3.83,3.83,0,0,1,.34,1.53,2.54,2.54,0,0,1-.67,1.93,2.33,2.33,0,0,1-1.68.63h-5.95a1.55,1.55,0,0,0,.46,1,2.86,2.86,0,0,0,1,.66,3.68,3.68,0,0,0,1.33.23,8.33,8.33,0,0,0,1-.05,4.49,4.49,0,0,0,.79-.17l.58-.21.49-.18.43-.09a1,1,0,0,1,.67.2,1.94,1.94,0,0,1,.58.67,1.71,1.71,0,0,1,.23.5,1.84,1.84,0,0,1,.06.47,1.24,1.24,0,0,1-.61,1,4.88,4.88,0,0,1-1.72.69A11.67,11.67,0,0,1,262.9,35.05Zm-2.67-7h3.95a1.1,1.1,0,0,0,.57-.12.58.58,0,0,0,.2-.51,1.12,1.12,0,0,0-.27-.73,1.82,1.82,0,0,0-.74-.51,3.24,3.24,0,0,0-1.09-.17,3.11,3.11,0,0,0-1.35.28,2.34,2.34,0,0,0-.93.75A1.66,1.66,0,0,0,260.23,28.08Z"/><path class="cls-2" d="M272.5,34.84a2.59,2.59,0,0,1-1.31-.24,1,1,0,0,1-.48-.67,4.31,4.31,0,0,1-.09-.88V24.84a4,4,0,0,1,.09-.87,1,1,0,0,1,.48-.65,2.73,2.73,0,0,1,1.33-.24,2.65,2.65,0,0,1,1.26.22,1,1,0,0,1,.49.52,1.47,1.47,0,0,1,.1.5l-.3.15a2.08,2.08,0,0,1,.26-.35,3.55,3.55,0,0,1,.59-.51,3.37,3.37,0,0,1,.91-.46,3.63,3.63,0,0,1,1.24-.19,4.55,4.55,0,0,1,.61,0,3.62,3.62,0,0,1,.7.14,2.79,2.79,0,0,1,.66.28,1.4,1.4,0,0,1,.49.44,1,1,0,0,1,.19.63,2.74,2.74,0,0,1-.48,1.64,1.4,1.4,0,0,1-1.2.67,2.11,2.11,0,0,1-.6-.06,1.22,1.22,0,0,1-.28-.14,1.15,1.15,0,0,0-.27-.14,1.68,1.68,0,0,0-.55-.06,2.76,2.76,0,0,0-.71.09,2.24,2.24,0,0,0-.63.29,1.4,1.4,0,0,0-.44.5,1.33,1.33,0,0,0-.17.67V33.1a4,4,0,0,1-.09.86,1,1,0,0,1-.49.65A2.71,2.71,0,0,1,272.5,34.84Z"/><path class="cls-2" d="M287.7,35a6.39,6.39,0,0,1-2.34-.44,7.08,7.08,0,0,1-2.11-1.23,6,6,0,0,1-1.51-1.92,5.38,5.38,0,0,1-.56-2.48,5.54,5.54,0,0,1,.51-2.37,6.24,6.24,0,0,1,1.41-1.94,6.62,6.62,0,0,1,2.07-1.33,6.41,6.41,0,0,1,2.48-.48,6.66,6.66,0,0,1,3.27.81,6.34,6.34,0,0,1,2.33,2.21,5.59,5.59,0,0,1,.88,3.08,5.5,5.5,0,0,1-.57,2.55,5.88,5.88,0,0,1-1.5,1.92A6.8,6.8,0,0,1,287.7,35Zm-.05-3.55a3,3,0,0,0,1.22-.28,2.72,2.72,0,0,0,1.06-.85,2.36,2.36,0,0,0,.42-1.44A2.5,2.5,0,0,0,290,27.6a2.4,2.4,0,0,0-1-.88,3.05,3.05,0,0,0-1.41-.32,2.69,2.69,0,0,0-1.34.33,2.59,2.59,0,0,0-1,.91,2.4,2.4,0,0,0-.36,1.3,2.3,2.3,0,0,0,.41,1.43,2.49,2.49,0,0,0,1,.85A3.11,3.11,0,0,0,287.65,31.49Z"/><path class="cls-2" d="M305.3,24.81a2.08,2.08,0,0,1-1.3.58,1.94,1.94,0,0,1-1.25-.7,1.7,1.7,0,0,1-.62-1.29,2.07,2.07,0,0,1,.88-1.3l3.72-3.1a1.87,1.87,0,0,1,1.29-.54,2,2,0,0,1,1.24.73,1.6,1.6,0,0,1,.61,1.26,2.1,2.1,0,0,1-.89,1.28Zm3.15,10.1a2,2,0,0,1-1.44-.4,1.92,1.92,0,0,1-.41-1.39V20.18A1.88,1.88,0,0,1,307,18.8a2.13,2.13,0,0,1,1.46-.39,2.11,2.11,0,0,1,1.46.4,1.93,1.93,0,0,1,.42,1.42V33.15a1.79,1.79,0,0,1-.42,1.37A2.15,2.15,0,0,1,308.45,34.91Z"/><path class="cls-2" d="M318.47,35.11a6.71,6.71,0,0,1-3.3-.79,5.29,5.29,0,0,1-2.11-2.3,8.14,8.14,0,0,1-.73-3.6,11.78,11.78,0,0,1,.45-3.34,9.78,9.78,0,0,1,1.29-2.77,8.58,8.58,0,0,1,2-2.1,9.17,9.17,0,0,1,2.67-1.34,10.27,10.27,0,0,1,3.2-.47,4.27,4.27,0,0,1,.89.08,1.06,1.06,0,0,1,.67.46,2.22,2.22,0,0,1,.26,1.25,2.17,2.17,0,0,1-.27,1.24,1.14,1.14,0,0,1-.72.46,4.6,4.6,0,0,1-.93.08,6.45,6.45,0,0,0-2.07.3,5.21,5.21,0,0,0-1.51.76,4.66,4.66,0,0,0-1,1,4.05,4.05,0,0,0-.59,1.06,2.59,2.59,0,0,0-.19.87l-.33-.07a1.18,1.18,0,0,1,.44-.42,3.13,3.13,0,0,1,.9-.39,4.34,4.34,0,0,1,1.16-.15,6.11,6.11,0,0,1,2.85.66,5.42,5.42,0,0,1,2,1.75,4.24,4.24,0,0,1,.75,2.44,5.13,5.13,0,0,1-2.83,4.62A6.27,6.27,0,0,1,318.47,35.11Zm-.09-3.35a3,3,0,0,0,1.18-.21,1.47,1.47,0,0,0,.73-.63,2,2,0,0,0,.24-1,1.74,1.74,0,0,0-.24-.93,1.62,1.62,0,0,0-.7-.61,2.39,2.39,0,0,0-1.06-.23,3,3,0,0,0-1.2.23,1.64,1.64,0,0,0-.79.6,1.44,1.44,0,0,0-.26.87,2.18,2.18,0,0,0,.22,1,1.5,1.5,0,0,0,.69.65A2.72,2.72,0,0,0,318.38,31.76Z"/><path class="cls-3" d="M114.16,18.28a3.94,3.94,0,0,1,.79.07,1,1,0,0,1,.59.4,2.08,2.08,0,0,1,.22,1.08,1.91,1.91,0,0,1-.23,1.06.88.88,0,0,1-.6.4,4,4,0,0,1-.8.07h-4V33a3.89,3.89,0,0,1-.09.85,1,1,0,0,1-.47.65,2.72,2.72,0,0,1-1.34.24,2.42,2.42,0,0,1-1.27-.25,1,1,0,0,1-.49-.65,4.12,4.12,0,0,1-.09-.86V21.36h-4a3.33,3.33,0,0,1-.78-.09,1,1,0,0,1-.61-.4,1.82,1.82,0,0,1-.24-1.07,1.84,1.84,0,0,1,.24-1.06,1,1,0,0,1,.62-.4,4.79,4.79,0,0,1,.77-.07Z"/><path class="cls-3" d="M119.73,34.76a2.53,2.53,0,0,1-1.32-.25,1,1,0,0,1-.47-.67,4.14,4.14,0,0,1-.09-.87V24.75a4.77,4.77,0,0,1,.08-.87,1,1,0,0,1,.49-.64,2.6,2.6,0,0,1,1.33-.25,2.78,2.78,0,0,1,1.26.22,1,1,0,0,1,.49.52,1.89,1.89,0,0,1,.1.51l-.3.14a2.15,2.15,0,0,1,.26-.34,3.15,3.15,0,0,1,.59-.52,3.68,3.68,0,0,1,.91-.46,3.9,3.9,0,0,1,1.24-.18l.61,0a3.62,3.62,0,0,1,.7.14,2.81,2.81,0,0,1,.66.29,1.57,1.57,0,0,1,.49.43,1.1,1.1,0,0,1,.19.64,2.71,2.71,0,0,1-.48,1.63,1.42,1.42,0,0,1-1.2.67,2.11,2.11,0,0,1-.6-.06,1,1,0,0,1-.29-.14,1.26,1.26,0,0,0-.26-.14,1.68,1.68,0,0,0-.55-.06,2.34,2.34,0,0,0-.71.1,2,2,0,0,0-.63.29,1.5,1.5,0,0,0-.45.49,1.35,1.35,0,0,0-.16.67V33a4,4,0,0,1-.09.86,1,1,0,0,1-.49.64A2.71,2.71,0,0,1,119.73,34.76Z"/><path class="cls-3" d="M139.12,34.75a2.5,2.5,0,0,1-1.37-.31.85.85,0,0,1-.43-.75l.26-.4a2.83,2.83,0,0,1-.58.57,4.25,4.25,0,0,1-1.11.61,4.6,4.6,0,0,1-1.67.27,5.12,5.12,0,0,1-2.18-.47A5.68,5.68,0,0,1,130.2,33a6.41,6.41,0,0,1-1.27-1.89,5.37,5.37,0,0,1-.48-2.24,5.22,5.22,0,0,1,.48-2.2,6.35,6.35,0,0,1,3.13-3.14,5.2,5.2,0,0,1,2.17-.47,4.59,4.59,0,0,1,1.58.25,4.55,4.55,0,0,1,1.08.58,3.18,3.18,0,0,1,.67.63l-.23-.33a1,1,0,0,1,.44-.86,2.59,2.59,0,0,1,1.39-.29,2.38,2.38,0,0,1,1.28.26,1.06,1.06,0,0,1,.48.68,4.36,4.36,0,0,1,.09.9V33a4.14,4.14,0,0,1-.09.87,1,1,0,0,1-.47.67A2.64,2.64,0,0,1,139.12,34.75Zm-4.37-3.51a2.29,2.29,0,0,0,1.2-.32,2.42,2.42,0,0,0,.85-.86,2.37,2.37,0,0,0,0-2.41,2.34,2.34,0,0,0-.87-.84,2.54,2.54,0,0,0-3.39.87,2.32,2.32,0,0,0-.34,1.23,2.07,2.07,0,0,0,.34,1.16,2.44,2.44,0,0,0,.92.85A2.71,2.71,0,0,0,134.75,31.24Z"/><path class="cls-3" d="M144.88,34.77a1.89,1.89,0,0,1-1.32-.5A1.66,1.66,0,0,1,143,33a1.8,1.8,0,0,1,.13-.69,1.69,1.69,0,0,1,.42-.58l5.68-5.18h-3.81a3.91,3.91,0,0,1-.91-.1,1.21,1.21,0,0,1-.72-.45,2.07,2.07,0,0,1-.29-1.24,2.07,2.07,0,0,1,.29-1.24,1.15,1.15,0,0,1,.72-.44,4,4,0,0,1,.92-.08h7.82a1.87,1.87,0,0,1,1.33.49,1.65,1.65,0,0,1,.52,1.25,2,2,0,0,1-.14.72,1.39,1.39,0,0,1-.38.55l-5.56,5.2h4.53a4.4,4.4,0,0,1,.92.1,1.1,1.1,0,0,1,.69.47,2.31,2.31,0,0,1,.26,1.25,2.14,2.14,0,0,1-.27,1.22,1.1,1.1,0,0,1-.71.45,6.5,6.5,0,0,1-.92.07Z"/><path class="cls-3" d="M167.7,34.76a2.55,2.55,0,0,1-1.38-.3.83.83,0,0,1-.42-.76l.25-.4a2.59,2.59,0,0,1-.58.58,4.1,4.1,0,0,1-1.11.61,4.55,4.55,0,0,1-1.66.27,5.29,5.29,0,0,1-2.19-.47A5.91,5.91,0,0,1,158.78,33a6.62,6.62,0,0,1-1.28-1.9,5.47,5.47,0,0,1-.47-2.23,5.22,5.22,0,0,1,.48-2.2,6.12,6.12,0,0,1,1.28-1.86,6.42,6.42,0,0,1,1.84-1.28,5.06,5.06,0,0,1,2.18-.47,4.37,4.37,0,0,1,2.66.82,3.38,3.38,0,0,1,.66.64l-.22-.33a1,1,0,0,1,.43-.86,2.55,2.55,0,0,1,1.39-.29,2.35,2.35,0,0,1,1.29.26,1,1,0,0,1,.47.68,4.26,4.26,0,0,1,.09.89V33a4.31,4.31,0,0,1-.09.88,1,1,0,0,1-.48.67A2.62,2.62,0,0,1,167.7,34.76Zm-4.37-3.51a2.28,2.28,0,0,0,1.2-.31,2.59,2.59,0,0,0,.85-.86,2.45,2.45,0,0,0,0-2.42,2.39,2.39,0,0,0-.87-.83,2.44,2.44,0,0,0-1.23-.31,2.51,2.51,0,0,0-1.26.32,2.4,2.4,0,0,0-.9.86,2.22,2.22,0,0,0-.34,1.22,2.13,2.13,0,0,0,.34,1.17,2.41,2.41,0,0,0,.92.84A2.57,2.57,0,0,0,163.33,31.25Z"/><path class="cls-3" d="M184.8,35a7.42,7.42,0,0,1-3-.55,5.76,5.76,0,0,1-3.26-3.39,6.11,6.11,0,0,1-.4-2.16,5.76,5.76,0,0,1,.85-3.13,6,6,0,0,1,2.36-2.15,7.36,7.36,0,0,1,3.47-.79,6.43,6.43,0,0,1,2.51.44,5.09,5.09,0,0,1,1.75,1.13,4.61,4.61,0,0,1,1,1.49,3.9,3.9,0,0,1,.34,1.53,2.53,2.53,0,0,1-.67,1.93,2.34,2.34,0,0,1-1.68.64h-6a1.53,1.53,0,0,0,.46,1,2.58,2.58,0,0,0,1,.66,3.6,3.6,0,0,0,1.32.24,8.22,8.22,0,0,0,1-.06,4.56,4.56,0,0,0,.79-.16l.58-.21.49-.18a1.74,1.74,0,0,1,.43-.09,1,1,0,0,1,.67.2,1.94,1.94,0,0,1,.58.67,1.78,1.78,0,0,1,.23.49,2,2,0,0,1,.07.47,1.25,1.25,0,0,1-.62,1,4.88,4.88,0,0,1-1.72.69A12.19,12.19,0,0,1,184.8,35Zm-2.67-7h4a1,1,0,0,0,.57-.13c.14-.08.2-.25.2-.5a1.12,1.12,0,0,0-.27-.73,1.75,1.75,0,0,0-.74-.51,3,3,0,0,0-1.08-.18,3.3,3.3,0,0,0-1.36.28,2.28,2.28,0,0,0-.93.76A1.66,1.66,0,0,0,182.13,28Z"/><path class="cls-3" d="M197.32,34.8a16.39,16.39,0,0,1-1.82-.09,4.14,4.14,0,0,1-1.35-.38,2.37,2.37,0,0,1-.9-.79,3.83,3.83,0,0,1-.53-1.29,9.74,9.74,0,0,1-.17-1.95V19.43a3.46,3.46,0,0,1,.1-.87,1.1,1.1,0,0,1,.49-.66,2.48,2.48,0,0,1,1.31-.26,2.44,2.44,0,0,1,1.29.26,1.07,1.07,0,0,1,.48.66,3.46,3.46,0,0,1,.1.87V30.14a5.53,5.53,0,0,0,0,.63.89.89,0,0,0,.15.38.52.52,0,0,0,.32.19,2.34,2.34,0,0,0,.52.05,2.54,2.54,0,0,1,.61.07.9.9,0,0,1,.54.42,2.32,2.32,0,0,1,.22,1.18,2.54,2.54,0,0,1-.22,1.23.84.84,0,0,1-.54.44A2.73,2.73,0,0,1,197.32,34.8Z"/><path class="cls-3" d="M209,34.79a2.57,2.57,0,0,1-1.31-.25,1,1,0,0,1-.48-.66,4,4,0,0,1-.08-.86V24.73a3.7,3.7,0,0,1,.09-.83.94.94,0,0,1,.49-.62A2.66,2.66,0,0,1,209,23a2.69,2.69,0,0,1,1.18.2,1,1,0,0,1,.48.48,1.39,1.39,0,0,1,.12.53,1,1,0,0,0,0,.35l-.15.44a1.52,1.52,0,0,1,.39-.72,3.6,3.6,0,0,1,.85-.65,4.65,4.65,0,0,1,1.1-.46,4.3,4.3,0,0,1,1.17-.17,5.12,5.12,0,0,1,2.13.42,4.17,4.17,0,0,1,1.59,1.19,5.42,5.42,0,0,1,1,1.82,7.61,7.61,0,0,1,.33,2.3v4.28a4,4,0,0,1-.09.86,1,1,0,0,1-.47.65,2.87,2.87,0,0,1-1.34.23,2.6,2.6,0,0,1-1.33-.25,1,1,0,0,1-.48-.66,4,4,0,0,1-.09-.86V28.76a2.47,2.47,0,0,0-.26-1.2,1.7,1.7,0,0,0-.75-.75,2.58,2.58,0,0,0-1.21-.26,2.71,2.71,0,0,0-1.25.27,2,2,0,0,0-.81.76,2.25,2.25,0,0,0-.29,1.18V33a4,4,0,0,1-.09.86,1,1,0,0,1-.48.65A2.62,2.62,0,0,1,209,34.79Z"/><path class="cls-3" d="M227,34.8a5.53,5.53,0,0,1-2.17-.43,5.32,5.32,0,0,1-2.91-3,6.15,6.15,0,0,1-.41-2.3V24.81a4,4,0,0,1,.09-.87,1.1,1.1,0,0,1,.48-.66,3.61,3.61,0,0,1,2.64,0,1.09,1.09,0,0,1,.48.68,4.06,4.06,0,0,1,.08.88v4.24a2.57,2.57,0,0,0,.26,1.18,1.76,1.76,0,0,0,.78.77,2.67,2.67,0,0,0,1.21.26,2.64,2.64,0,0,0,1.24-.27,2,2,0,0,0,.8-.77,2.28,2.28,0,0,0,.29-1.17V24.79a4,4,0,0,1,.09-.87,1,1,0,0,1,.49-.64,2.53,2.53,0,0,1,1.32-.25,2.48,2.48,0,0,1,1.31.26,1.07,1.07,0,0,1,.48.67,3.49,3.49,0,0,1,.08.86V33.1a3.73,3.73,0,0,1-.09.84.94.94,0,0,1-.49.62,2.62,2.62,0,0,1-1.3.24,3.2,3.2,0,0,1-1.05-.14,1.38,1.38,0,0,1-.55-.36,1,1,0,0,1-.21-.44,3.62,3.62,0,0,1,0-.43l.33-.26a2.63,2.63,0,0,1-.33.37,5.33,5.33,0,0,1-.66.54,4.13,4.13,0,0,1-1,.5A3.37,3.37,0,0,1,227,34.8Zm-.39-12.6a.88.88,0,0,1-.74-.23,2.45,2.45,0,0,1-.51-.94,1.89,1.89,0,0,1-.1-1.23,1.4,1.4,0,0,1,.93-.63l4.4-1.27a.89.89,0,0,1,.72.27,2.24,2.24,0,0,1,.5.93,1.67,1.67,0,0,1,.09,1.2,1.33,1.33,0,0,1-.91.63Z"/><path class="cls-3" d="M238,34.83a2.62,2.62,0,0,1-1.3-.26,1,1,0,0,1-.47-.66,4.77,4.77,0,0,1-.08-.87V24.8a3.89,3.89,0,0,1,.09-.85,1,1,0,0,1,.49-.65,2.66,2.66,0,0,1,1.32-.24,2.12,2.12,0,0,1,1.35.34,1.36,1.36,0,0,1,.42,1.12l-.32.26a1.52,1.52,0,0,1,.3-.4,4.29,4.29,0,0,1,.65-.59,4,4,0,0,1,.94-.53,3,3,0,0,1,1.16-.22,4.62,4.62,0,0,1,1.49.22,3.91,3.91,0,0,1,1.2.66,4.13,4.13,0,0,1,.93,1.09,6.58,6.58,0,0,1,.86-.91,4.63,4.63,0,0,1,1.17-.76,3.73,3.73,0,0,1,1.53-.3,4.07,4.07,0,0,1,4,2.69,8.3,8.3,0,0,1,.52,3.13v4.21a3.49,3.49,0,0,1-.1.86,1.1,1.1,0,0,1-.49.66,2.62,2.62,0,0,1-1.31.24,2.49,2.49,0,0,1-1.33-.26,1,1,0,0,1-.47-.67,4.74,4.74,0,0,1-.08-.86V28.83a3.61,3.61,0,0,0-.19-1.21,1.61,1.61,0,0,0-.54-.78,1.42,1.42,0,0,0-.9-.27,1.75,1.75,0,0,0-1,.26,1.51,1.51,0,0,0-.6.75,3.28,3.28,0,0,0-.2,1.27v4.22A3.17,3.17,0,0,1,247,34a1.19,1.19,0,0,1-.54.66,2.59,2.59,0,0,1-1.34.22,2.21,2.21,0,0,1-1.25-.27,1.06,1.06,0,0,1-.45-.69,4.57,4.57,0,0,1-.07-.83V28.83a4.11,4.11,0,0,0-.17-1.23,1.52,1.52,0,0,0-.53-.77,1.46,1.46,0,0,0-.92-.26,1.68,1.68,0,0,0-1,.3,1.94,1.94,0,0,0-.59.81,3.41,3.41,0,0,0-.18,1.14v4.24a4.6,4.6,0,0,1-.08.87,1,1,0,0,1-.49.65A2.71,2.71,0,0,1,238,34.83Z"/><path class="cls-3" d="M262.9,35.05a7.6,7.6,0,0,1-3-.54,5.83,5.83,0,0,1-2.07-1.43,5.93,5.93,0,0,1-1.19-2,6.16,6.16,0,0,1-.4-2.17,5.76,5.76,0,0,1,.85-3.13,5.92,5.92,0,0,1,2.36-2.15,7.36,7.36,0,0,1,3.47-.79,6.62,6.62,0,0,1,2.51.44,5.24,5.24,0,0,1,1.75,1.13,4.7,4.7,0,0,1,1,1.5,3.83,3.83,0,0,1,.34,1.53,2.54,2.54,0,0,1-.67,1.93,2.33,2.33,0,0,1-1.68.63h-5.95a1.55,1.55,0,0,0,.46,1,2.86,2.86,0,0,0,1,.66,3.68,3.68,0,0,0,1.33.23,8.33,8.33,0,0,0,1-.05,4.49,4.49,0,0,0,.79-.17l.58-.21.49-.18.43-.09a1,1,0,0,1,.67.2,1.94,1.94,0,0,1,.58.67,1.71,1.71,0,0,1,.23.5,1.84,1.84,0,0,1,.06.47,1.24,1.24,0,0,1-.61,1,4.88,4.88,0,0,1-1.72.69A11.67,11.67,0,0,1,262.9,35.05Zm-2.67-7h3.95a1.1,1.1,0,0,0,.57-.12.58.58,0,0,0,.2-.51,1.12,1.12,0,0,0-.27-.73,1.82,1.82,0,0,0-.74-.51,3.24,3.24,0,0,0-1.09-.17,3.11,3.11,0,0,0-1.35.28,2.34,2.34,0,0,0-.93.75A1.66,1.66,0,0,0,260.23,28.08Z"/><path class="cls-3" d="M272.5,34.84a2.59,2.59,0,0,1-1.31-.24,1,1,0,0,1-.48-.67,4.31,4.31,0,0,1-.09-.88V24.84a4,4,0,0,1,.09-.87,1,1,0,0,1,.48-.65,2.73,2.73,0,0,1,1.33-.24,2.65,2.65,0,0,1,1.26.22,1,1,0,0,1,.49.52,1.47,1.47,0,0,1,.1.5l-.3.15a2.08,2.08,0,0,1,.26-.35,3.55,3.55,0,0,1,.59-.51,3.37,3.37,0,0,1,.91-.46,3.63,3.63,0,0,1,1.24-.19,4.55,4.55,0,0,1,.61,0,3.62,3.62,0,0,1,.7.14,2.79,2.79,0,0,1,.66.28,1.4,1.4,0,0,1,.49.44,1,1,0,0,1,.19.63,2.74,2.74,0,0,1-.48,1.64,1.4,1.4,0,0,1-1.2.67,2.11,2.11,0,0,1-.6-.06,1.22,1.22,0,0,1-.28-.14,1.15,1.15,0,0,0-.27-.14,1.68,1.68,0,0,0-.55-.06,2.76,2.76,0,0,0-.71.09,2.24,2.24,0,0,0-.63.29,1.4,1.4,0,0,0-.44.5,1.33,1.33,0,0,0-.17.67V33.1a4,4,0,0,1-.09.86,1,1,0,0,1-.49.65A2.71,2.71,0,0,1,272.5,34.84Z"/><path class="cls-3" d="M287.7,35a6.39,6.39,0,0,1-2.34-.44,7.08,7.08,0,0,1-2.11-1.23,6,6,0,0,1-1.51-1.92,5.38,5.38,0,0,1-.56-2.48,5.54,5.54,0,0,1,.51-2.37,6.24,6.24,0,0,1,1.41-1.94,6.62,6.62,0,0,1,2.07-1.33,6.41,6.41,0,0,1,2.48-.48,6.66,6.66,0,0,1,3.27.81,6.34,6.34,0,0,1,2.33,2.21,5.59,5.59,0,0,1,.88,3.08,5.5,5.5,0,0,1-.57,2.55,5.88,5.88,0,0,1-1.5,1.92A6.8,6.8,0,0,1,287.7,35Zm-.05-3.55a3,3,0,0,0,1.22-.28,2.72,2.72,0,0,0,1.06-.85,2.36,2.36,0,0,0,.42-1.44A2.5,2.5,0,0,0,290,27.6a2.4,2.4,0,0,0-1-.88,3.05,3.05,0,0,0-1.41-.32,2.69,2.69,0,0,0-1.34.33,2.59,2.59,0,0,0-1,.91,2.4,2.4,0,0,0-.36,1.3,2.3,2.3,0,0,0,.41,1.43,2.49,2.49,0,0,0,1,.85A3.11,3.11,0,0,0,287.65,31.49Z"/><path class="cls-3" d="M305.3,24.81a2.08,2.08,0,0,1-1.3.58,1.94,1.94,0,0,1-1.25-.7,1.7,1.7,0,0,1-.62-1.29,2.07,2.07,0,0,1,.88-1.3l3.72-3.1a1.87,1.87,0,0,1,1.29-.54,2,2,0,0,1,1.24.73,1.6,1.6,0,0,1,.61,1.26,2.1,2.1,0,0,1-.89,1.28Zm3.15,10.1a2,2,0,0,1-1.44-.4,1.92,1.92,0,0,1-.41-1.39V20.18A1.88,1.88,0,0,1,307,18.8a2.13,2.13,0,0,1,1.46-.39,2.11,2.11,0,0,1,1.46.4,1.93,1.93,0,0,1,.42,1.42V33.15a1.79,1.79,0,0,1-.42,1.37A2.15,2.15,0,0,1,308.45,34.91Z"/><path class="cls-3" d="M318.47,35.11a6.71,6.71,0,0,1-3.3-.79,5.29,5.29,0,0,1-2.11-2.3,8.14,8.14,0,0,1-.73-3.6,11.78,11.78,0,0,1,.45-3.34,9.78,9.78,0,0,1,1.29-2.77,8.58,8.58,0,0,1,2-2.1,9.17,9.17,0,0,1,2.67-1.34,10.27,10.27,0,0,1,3.2-.47,4.27,4.27,0,0,1,.89.08,1.06,1.06,0,0,1,.67.46,2.22,2.22,0,0,1,.26,1.25,2.17,2.17,0,0,1-.27,1.24,1.14,1.14,0,0,1-.72.46,4.6,4.6,0,0,1-.93.08,6.45,6.45,0,0,0-2.07.3,5.21,5.21,0,0,0-1.51.76,4.66,4.66,0,0,0-1,1,4.05,4.05,0,0,0-.59,1.06,2.59,2.59,0,0,0-.19.87l-.33-.07a1.18,1.18,0,0,1,.44-.42,3.13,3.13,0,0,1,.9-.39,4.34,4.34,0,0,1,1.16-.15,6.11,6.11,0,0,1,2.85.66,5.42,5.42,0,0,1,2,1.75,4.24,4.24,0,0,1,.75,2.44,5.13,5.13,0,0,1-2.83,4.62A6.27,6.27,0,0,1,318.47,35.11Zm-.09-3.35a3,3,0,0,0,1.18-.21,1.47,1.47,0,0,0,.73-.63,2,2,0,0,0,.24-1,1.74,1.74,0,0,0-.24-.93,1.62,1.62,0,0,0-.7-.61,2.39,2.39,0,0,0-1.06-.23,3,3,0,0,0-1.2.23,1.64,1.64,0,0,0-.79.6,1.44,1.44,0,0,0-.26.87,2.18,2.18,0,0,0,.22,1,1.5,1.5,0,0,0,.69.65A2.72,2.72,0,0,0,318.38,31.76Z"/><path class="cls-2" d="M114.16,18.28a3.94,3.94,0,0,1,.79.07,1,1,0,0,1,.59.4,2.08,2.08,0,0,1,.22,1.08,1.91,1.91,0,0,1-.23,1.06.88.88,0,0,1-.6.4,4,4,0,0,1-.8.07h-4V33a3.89,3.89,0,0,1-.09.85,1,1,0,0,1-.47.65,2.72,2.72,0,0,1-1.34.24,2.42,2.42,0,0,1-1.27-.25,1,1,0,0,1-.49-.65,4.12,4.12,0,0,1-.09-.86V21.36h-4a3.33,3.33,0,0,1-.78-.09,1,1,0,0,1-.61-.4,1.82,1.82,0,0,1-.24-1.07,1.84,1.84,0,0,1,.24-1.06,1,1,0,0,1,.62-.4,4.79,4.79,0,0,1,.77-.07Z"/><path class="cls-2" d="M119.73,34.76a2.53,2.53,0,0,1-1.32-.25,1,1,0,0,1-.47-.67,4.14,4.14,0,0,1-.09-.87V24.75a4.77,4.77,0,0,1,.08-.87,1,1,0,0,1,.49-.64,2.6,2.6,0,0,1,1.33-.25,2.78,2.78,0,0,1,1.26.22,1,1,0,0,1,.49.52,1.89,1.89,0,0,1,.1.51l-.3.14a2.15,2.15,0,0,1,.26-.34,3.15,3.15,0,0,1,.59-.52,3.68,3.68,0,0,1,.91-.46,3.9,3.9,0,0,1,1.24-.18l.61,0a3.62,3.62,0,0,1,.7.14,2.81,2.81,0,0,1,.66.29,1.57,1.57,0,0,1,.49.43,1.1,1.1,0,0,1,.19.64,2.71,2.71,0,0,1-.48,1.63,1.42,1.42,0,0,1-1.2.67,2.11,2.11,0,0,1-.6-.06,1,1,0,0,1-.29-.14,1.26,1.26,0,0,0-.26-.14,1.68,1.68,0,0,0-.55-.06,2.34,2.34,0,0,0-.71.1,2,2,0,0,0-.63.29,1.5,1.5,0,0,0-.45.49,1.35,1.35,0,0,0-.16.67V33a4,4,0,0,1-.09.86,1,1,0,0,1-.49.64A2.71,2.71,0,0,1,119.73,34.76Z"/><path class="cls-2" d="M139.12,34.75a2.5,2.5,0,0,1-1.37-.31.85.85,0,0,1-.43-.75l.26-.4a2.83,2.83,0,0,1-.58.57,4.25,4.25,0,0,1-1.11.61,4.6,4.6,0,0,1-1.67.27,5.12,5.12,0,0,1-2.18-.47A5.68,5.68,0,0,1,130.2,33a6.41,6.41,0,0,1-1.27-1.89,5.37,5.37,0,0,1-.48-2.24,5.22,5.22,0,0,1,.48-2.2,6.35,6.35,0,0,1,3.13-3.14,5.2,5.2,0,0,1,2.17-.47,4.59,4.59,0,0,1,1.58.25,4.55,4.55,0,0,1,1.08.58,3.18,3.18,0,0,1,.67.63l-.23-.33a1,1,0,0,1,.44-.86,2.59,2.59,0,0,1,1.39-.29,2.38,2.38,0,0,1,1.28.26,1.06,1.06,0,0,1,.48.68,4.36,4.36,0,0,1,.09.9V33a4.14,4.14,0,0,1-.09.87,1,1,0,0,1-.47.67A2.64,2.64,0,0,1,139.12,34.75Zm-4.37-3.51a2.29,2.29,0,0,0,1.2-.32,2.42,2.42,0,0,0,.85-.86,2.37,2.37,0,0,0,0-2.41,2.34,2.34,0,0,0-.87-.84,2.54,2.54,0,0,0-3.39.87,2.32,2.32,0,0,0-.34,1.23,2.07,2.07,0,0,0,.34,1.16,2.44,2.44,0,0,0,.92.85A2.71,2.71,0,0,0,134.75,31.24Z"/><path class="cls-2" d="M144.88,34.77a1.89,1.89,0,0,1-1.32-.5A1.66,1.66,0,0,1,143,33a1.8,1.8,0,0,1,.13-.69,1.69,1.69,0,0,1,.42-.58l5.68-5.18h-3.81a3.91,3.91,0,0,1-.91-.1,1.21,1.21,0,0,1-.72-.45,2.07,2.07,0,0,1-.29-1.24,2.07,2.07,0,0,1,.29-1.24,1.15,1.15,0,0,1,.72-.44,4,4,0,0,1,.92-.08h7.82a1.87,1.87,0,0,1,1.33.49,1.65,1.65,0,0,1,.52,1.25,2,2,0,0,1-.14.72,1.39,1.39,0,0,1-.38.55l-5.56,5.2h4.53a4.4,4.4,0,0,1,.92.1,1.1,1.1,0,0,1,.69.47,2.31,2.31,0,0,1,.26,1.25,2.14,2.14,0,0,1-.27,1.22,1.1,1.1,0,0,1-.71.45,6.5,6.5,0,0,1-.92.07Z"/><path class="cls-2" d="M167.7,34.76a2.55,2.55,0,0,1-1.38-.3.83.83,0,0,1-.42-.76l.25-.4a2.59,2.59,0,0,1-.58.58,4.1,4.1,0,0,1-1.11.61,4.55,4.55,0,0,1-1.66.27,5.29,5.29,0,0,1-2.19-.47A5.91,5.91,0,0,1,158.78,33a6.62,6.62,0,0,1-1.28-1.9,5.47,5.47,0,0,1-.47-2.23,5.22,5.22,0,0,1,.48-2.2,6.12,6.12,0,0,1,1.28-1.86,6.42,6.42,0,0,1,1.84-1.28,5.06,5.06,0,0,1,2.18-.47,4.37,4.37,0,0,1,2.66.82,3.38,3.38,0,0,1,.66.64l-.22-.33a1,1,0,0,1,.43-.86,2.55,2.55,0,0,1,1.39-.29,2.35,2.35,0,0,1,1.29.26,1,1,0,0,1,.47.68,4.26,4.26,0,0,1,.09.89V33a4.31,4.31,0,0,1-.09.88,1,1,0,0,1-.48.67A2.62,2.62,0,0,1,167.7,34.76Zm-4.37-3.51a2.28,2.28,0,0,0,1.2-.31,2.59,2.59,0,0,0,.85-.86,2.45,2.45,0,0,0,0-2.42,2.39,2.39,0,0,0-.87-.83,2.44,2.44,0,0,0-1.23-.31,2.51,2.51,0,0,0-1.26.32,2.4,2.4,0,0,0-.9.86,2.22,2.22,0,0,0-.34,1.22,2.13,2.13,0,0,0,.34,1.17,2.41,2.41,0,0,0,.92.84A2.57,2.57,0,0,0,163.33,31.25Z"/><path class="cls-2" d="M184.8,35a7.42,7.42,0,0,1-3-.55,5.76,5.76,0,0,1-3.26-3.39,6.11,6.11,0,0,1-.4-2.16,5.76,5.76,0,0,1,.85-3.13,6,6,0,0,1,2.36-2.15,7.36,7.36,0,0,1,3.47-.79,6.43,6.43,0,0,1,2.51.44,5.09,5.09,0,0,1,1.75,1.13,4.61,4.61,0,0,1,1,1.49,3.9,3.9,0,0,1,.34,1.53,2.53,2.53,0,0,1-.67,1.93,2.34,2.34,0,0,1-1.68.64h-6a1.53,1.53,0,0,0,.46,1,2.58,2.58,0,0,0,1,.66,3.6,3.6,0,0,0,1.32.24,8.22,8.22,0,0,0,1-.06,4.56,4.56,0,0,0,.79-.16l.58-.21.49-.18a1.74,1.74,0,0,1,.43-.09,1,1,0,0,1,.67.2,1.94,1.94,0,0,1,.58.67,1.78,1.78,0,0,1,.23.49,2,2,0,0,1,.07.47,1.25,1.25,0,0,1-.62,1,4.88,4.88,0,0,1-1.72.69A12.19,12.19,0,0,1,184.8,35Zm-2.67-7h4a1,1,0,0,0,.57-.13c.14-.08.2-.25.2-.5a1.12,1.12,0,0,0-.27-.73,1.75,1.75,0,0,0-.74-.51,3,3,0,0,0-1.08-.18,3.3,3.3,0,0,0-1.36.28,2.28,2.28,0,0,0-.93.76A1.66,1.66,0,0,0,182.13,28Z"/><path class="cls-2" d="M197.32,34.8a16.39,16.39,0,0,1-1.82-.09,4.14,4.14,0,0,1-1.35-.38,2.37,2.37,0,0,1-.9-.79,3.83,3.83,0,0,1-.53-1.29,9.74,9.74,0,0,1-.17-1.95V19.43a3.46,3.46,0,0,1,.1-.87,1.1,1.1,0,0,1,.49-.66,2.48,2.48,0,0,1,1.31-.26,2.44,2.44,0,0,1,1.29.26,1.07,1.07,0,0,1,.48.66,3.46,3.46,0,0,1,.1.87V30.14a5.53,5.53,0,0,0,0,.63.89.89,0,0,0,.15.38.52.52,0,0,0,.32.19,2.34,2.34,0,0,0,.52.05,2.54,2.54,0,0,1,.61.07.9.9,0,0,1,.54.42,2.32,2.32,0,0,1,.22,1.18,2.54,2.54,0,0,1-.22,1.23.84.84,0,0,1-.54.44A2.73,2.73,0,0,1,197.32,34.8Z"/><path class="cls-2" d="M209,34.79a2.57,2.57,0,0,1-1.31-.25,1,1,0,0,1-.48-.66,4,4,0,0,1-.08-.86V24.73a3.7,3.7,0,0,1,.09-.83.94.94,0,0,1,.49-.62A2.66,2.66,0,0,1,209,23a2.69,2.69,0,0,1,1.18.2,1,1,0,0,1,.48.48,1.39,1.39,0,0,1,.12.53,1,1,0,0,0,0,.35l-.15.44a1.52,1.52,0,0,1,.39-.72,3.6,3.6,0,0,1,.85-.65,4.65,4.65,0,0,1,1.1-.46,4.3,4.3,0,0,1,1.17-.17,5.12,5.12,0,0,1,2.13.42,4.17,4.17,0,0,1,1.59,1.19,5.42,5.42,0,0,1,1,1.82,7.61,7.61,0,0,1,.33,2.3v4.28a4,4,0,0,1-.09.86,1,1,0,0,1-.47.65,2.87,2.87,0,0,1-1.34.23,2.6,2.6,0,0,1-1.33-.25,1,1,0,0,1-.48-.66,4,4,0,0,1-.09-.86V28.76a2.47,2.47,0,0,0-.26-1.2,1.7,1.7,0,0,0-.75-.75,2.58,2.58,0,0,0-1.21-.26,2.71,2.71,0,0,0-1.25.27,2,2,0,0,0-.81.76,2.25,2.25,0,0,0-.29,1.18V33a4,4,0,0,1-.09.86,1,1,0,0,1-.48.65A2.62,2.62,0,0,1,209,34.79Z"/><path class="cls-2" d="M227,34.8a5.53,5.53,0,0,1-2.17-.43,5.32,5.32,0,0,1-2.91-3,6.15,6.15,0,0,1-.41-2.3V24.81a4,4,0,0,1,.09-.87,1.1,1.1,0,0,1,.48-.66,3.61,3.61,0,0,1,2.64,0,1.09,1.09,0,0,1,.48.68,4.06,4.06,0,0,1,.08.88v4.24a2.57,2.57,0,0,0,.26,1.18,1.76,1.76,0,0,0,.78.77,2.67,2.67,0,0,0,1.21.26,2.64,2.64,0,0,0,1.24-.27,2,2,0,0,0,.8-.77,2.28,2.28,0,0,0,.29-1.17V24.79a4,4,0,0,1,.09-.87,1,1,0,0,1,.49-.64,2.53,2.53,0,0,1,1.32-.25,2.48,2.48,0,0,1,1.31.26,1.07,1.07,0,0,1,.48.67,3.49,3.49,0,0,1,.08.86V33.1a3.73,3.73,0,0,1-.09.84.94.94,0,0,1-.49.62,2.62,2.62,0,0,1-1.3.24,3.2,3.2,0,0,1-1.05-.14,1.38,1.38,0,0,1-.55-.36,1,1,0,0,1-.21-.44,3.62,3.62,0,0,1,0-.43l.33-.26a2.63,2.63,0,0,1-.33.37,5.33,5.33,0,0,1-.66.54,4.13,4.13,0,0,1-1,.5A3.37,3.37,0,0,1,227,34.8Zm-.39-12.6a.88.88,0,0,1-.74-.23,2.45,2.45,0,0,1-.51-.94,1.89,1.89,0,0,1-.1-1.23,1.4,1.4,0,0,1,.93-.63l4.4-1.27a.89.89,0,0,1,.72.27,2.24,2.24,0,0,1,.5.93,1.67,1.67,0,0,1,.09,1.2,1.33,1.33,0,0,1-.91.63Z"/><path class="cls-2" d="M238,34.83a2.62,2.62,0,0,1-1.3-.26,1,1,0,0,1-.47-.66,4.77,4.77,0,0,1-.08-.87V24.8a3.89,3.89,0,0,1,.09-.85,1,1,0,0,1,.49-.65,2.66,2.66,0,0,1,1.32-.24,2.12,2.12,0,0,1,1.35.34,1.36,1.36,0,0,1,.42,1.12l-.32.26a1.52,1.52,0,0,1,.3-.4,4.29,4.29,0,0,1,.65-.59,4,4,0,0,1,.94-.53,3,3,0,0,1,1.16-.22,4.62,4.62,0,0,1,1.49.22,3.91,3.91,0,0,1,1.2.66,4.13,4.13,0,0,1,.93,1.09,6.58,6.58,0,0,1,.86-.91,4.63,4.63,0,0,1,1.17-.76,3.73,3.73,0,0,1,1.53-.3,4.07,4.07,0,0,1,4,2.69,8.3,8.3,0,0,1,.52,3.13v4.21a3.49,3.49,0,0,1-.1.86,1.1,1.1,0,0,1-.49.66,2.62,2.62,0,0,1-1.31.24,2.49,2.49,0,0,1-1.33-.26,1,1,0,0,1-.47-.67,4.74,4.74,0,0,1-.08-.86V28.83a3.61,3.61,0,0,0-.19-1.21,1.61,1.61,0,0,0-.54-.78,1.42,1.42,0,0,0-.9-.27,1.75,1.75,0,0,0-1,.26,1.51,1.51,0,0,0-.6.75,3.28,3.28,0,0,0-.2,1.27v4.22A3.17,3.17,0,0,1,247,34a1.19,1.19,0,0,1-.54.66,2.59,2.59,0,0,1-1.34.22,2.21,2.21,0,0,1-1.25-.27,1.06,1.06,0,0,1-.45-.69,4.57,4.57,0,0,1-.07-.83V28.83a4.11,4.11,0,0,0-.17-1.23,1.52,1.52,0,0,0-.53-.77,1.46,1.46,0,0,0-.92-.26,1.68,1.68,0,0,0-1,.3,1.94,1.94,0,0,0-.59.81,3.41,3.41,0,0,0-.18,1.14v4.24a4.6,4.6,0,0,1-.08.87,1,1,0,0,1-.49.65A2.71,2.71,0,0,1,238,34.83Z"/><path class="cls-2" d="M262.9,35.05a7.6,7.6,0,0,1-3-.54,5.83,5.83,0,0,1-2.07-1.43,5.93,5.93,0,0,1-1.19-2,6.16,6.16,0,0,1-.4-2.17,5.76,5.76,0,0,1,.85-3.13,5.92,5.92,0,0,1,2.36-2.15,7.36,7.36,0,0,1,3.47-.79,6.62,6.62,0,0,1,2.51.44,5.24,5.24,0,0,1,1.75,1.13,4.7,4.7,0,0,1,1,1.5,3.83,3.83,0,0,1,.34,1.53,2.54,2.54,0,0,1-.67,1.93,2.33,2.33,0,0,1-1.68.63h-5.95a1.55,1.55,0,0,0,.46,1,2.86,2.86,0,0,0,1,.66,3.68,3.68,0,0,0,1.33.23,8.33,8.33,0,0,0,1-.05,4.49,4.49,0,0,0,.79-.17l.58-.21.49-.18.43-.09a1,1,0,0,1,.67.2,1.94,1.94,0,0,1,.58.67,1.71,1.71,0,0,1,.23.5,1.84,1.84,0,0,1,.06.47,1.24,1.24,0,0,1-.61,1,4.88,4.88,0,0,1-1.72.69A11.67,11.67,0,0,1,262.9,35.05Zm-2.67-7h3.95a1.1,1.1,0,0,0,.57-.12.58.58,0,0,0,.2-.51,1.12,1.12,0,0,0-.27-.73,1.82,1.82,0,0,0-.74-.51,3.24,3.24,0,0,0-1.09-.17,3.11,3.11,0,0,0-1.35.28,2.34,2.34,0,0,0-.93.75A1.66,1.66,0,0,0,260.23,28.08Z"/><path class="cls-2" d="M272.5,34.84a2.59,2.59,0,0,1-1.31-.24,1,1,0,0,1-.48-.67,4.31,4.31,0,0,1-.09-.88V24.84a4,4,0,0,1,.09-.87,1,1,0,0,1,.48-.65,2.73,2.73,0,0,1,1.33-.24,2.65,2.65,0,0,1,1.26.22,1,1,0,0,1,.49.52,1.47,1.47,0,0,1,.1.5l-.3.15a2.08,2.08,0,0,1,.26-.35,3.55,3.55,0,0,1,.59-.51,3.37,3.37,0,0,1,.91-.46,3.63,3.63,0,0,1,1.24-.19,4.55,4.55,0,0,1,.61,0,3.62,3.62,0,0,1,.7.14,2.79,2.79,0,0,1,.66.28,1.4,1.4,0,0,1,.49.44,1,1,0,0,1,.19.63,2.74,2.74,0,0,1-.48,1.64,1.4,1.4,0,0,1-1.2.67,2.11,2.11,0,0,1-.6-.06,1.22,1.22,0,0,1-.28-.14,1.15,1.15,0,0,0-.27-.14,1.68,1.68,0,0,0-.55-.06,2.76,2.76,0,0,0-.71.09,2.24,2.24,0,0,0-.63.29,1.4,1.4,0,0,0-.44.5,1.33,1.33,0,0,0-.17.67V33.1a4,4,0,0,1-.09.86,1,1,0,0,1-.49.65A2.71,2.71,0,0,1,272.5,34.84Z"/><path class="cls-2" d="M287.7,35a6.39,6.39,0,0,1-2.34-.44,7.08,7.08,0,0,1-2.11-1.23,6,6,0,0,1-1.51-1.92,5.38,5.38,0,0,1-.56-2.48,5.54,5.54,0,0,1,.51-2.37,6.24,6.24,0,0,1,1.41-1.94,6.62,6.62,0,0,1,2.07-1.33,6.41,6.41,0,0,1,2.48-.48,6.66,6.66,0,0,1,3.27.81,6.34,6.34,0,0,1,2.33,2.21,5.59,5.59,0,0,1,.88,3.08,5.5,5.5,0,0,1-.57,2.55,5.88,5.88,0,0,1-1.5,1.92A6.8,6.8,0,0,1,287.7,35Zm-.05-3.55a3,3,0,0,0,1.22-.28,2.72,2.72,0,0,0,1.06-.85,2.36,2.36,0,0,0,.42-1.44A2.5,2.5,0,0,0,290,27.6a2.4,2.4,0,0,0-1-.88,3.05,3.05,0,0,0-1.41-.32,2.69,2.69,0,0,0-1.34.33,2.59,2.59,0,0,0-1,.91,2.4,2.4,0,0,0-.36,1.3,2.3,2.3,0,0,0,.41,1.43,2.49,2.49,0,0,0,1,.85A3.11,3.11,0,0,0,287.65,31.49Z"/><path class="cls-2" d="M305.3,24.81a2.08,2.08,0,0,1-1.3.58,1.94,1.94,0,0,1-1.25-.7,1.7,1.7,0,0,1-.62-1.29,2.07,2.07,0,0,1,.88-1.3l3.72-3.1a1.87,1.87,0,0,1,1.29-.54,2,2,0,0,1,1.24.73,1.6,1.6,0,0,1,.61,1.26,2.1,2.1,0,0,1-.89,1.28Zm3.15,10.1a2,2,0,0,1-1.44-.4,1.92,1.92,0,0,1-.41-1.39V20.18A1.88,1.88,0,0,1,307,18.8a2.13,2.13,0,0,1,1.46-.39,2.11,2.11,0,0,1,1.46.4,1.93,1.93,0,0,1,.42,1.42V33.15a1.79,1.79,0,0,1-.42,1.37A2.15,2.15,0,0,1,308.45,34.91Z"/><path class="cls-2" d="M318.47,35.11a6.71,6.71,0,0,1-3.3-.79,5.29,5.29,0,0,1-2.11-2.3,8.14,8.14,0,0,1-.73-3.6,11.78,11.78,0,0,1,.45-3.34,9.78,9.78,0,0,1,1.29-2.77,8.58,8.58,0,0,1,2-2.1,9.17,9.17,0,0,1,2.67-1.34,10.27,10.27,0,0,1,3.2-.47,4.27,4.27,0,0,1,.89.08,1.06,1.06,0,0,1,.67.46,2.22,2.22,0,0,1,.26,1.25,2.17,2.17,0,0,1-.27,1.24,1.14,1.14,0,0,1-.72.46,4.6,4.6,0,0,1-.93.08,6.45,6.45,0,0,0-2.07.3,5.21,5.21,0,0,0-1.51.76,4.66,4.66,0,0,0-1,1,4.05,4.05,0,0,0-.59,1.06,2.59,2.59,0,0,0-.19.87l-.33-.07a1.18,1.18,0,0,1,.44-.42,3.13,3.13,0,0,1,.9-.39,4.34,4.34,0,0,1,1.16-.15,6.11,6.11,0,0,1,2.85.66,5.42,5.42,0,0,1,2,1.75,4.24,4.24,0,0,1,.75,2.44,5.13,5.13,0,0,1-2.83,4.62A6.27,6.27,0,0,1,318.47,35.11Zm-.09-3.35a3,3,0,0,0,1.18-.21,1.47,1.47,0,0,0,.73-.63,2,2,0,0,0,.24-1,1.74,1.74,0,0,0-.24-.93,1.62,1.62,0,0,0-.7-.61,2.39,2.39,0,0,0-1.06-.23,3,3,0,0,0-1.2.23,1.64,1.64,0,0,0-.79.6,1.44,1.44,0,0,0-.26.87,2.18,2.18,0,0,0,.22,1,1.5,1.5,0,0,0,.69.65A2.72,2.72,0,0,0,318.38,31.76Z"/><path class="cls-4" d="M55.47,35.47c0,2.13-.4,3.66-1.19,4.56a4.49,4.49,0,0,1-3.59,1.37,5.84,5.84,0,0,1-2.56-.48,3.08,3.08,0,0,1-1.49-1.74,9.62,9.62,0,0,1-.54-3.4L46,21a6.65,6.65,0,0,1-3.22-.69A2.42,2.42,0,0,1,41.55,18a2.59,2.59,0,0,1,1.16-2.16A5.47,5.47,0,0,1,46,15l2.3,0c1,0,1.7,0,2.1,0,2,0,3.36.33,4.06,1a4.53,4.53,0,0,1,1,3.38Z"/><path class="cls-4" d="M68.31,25.42a14.38,14.38,0,0,1,4.12-.63,10.52,10.52,0,0,1,4.6,1,7.81,7.81,0,0,1,3.19,2.69,6.75,6.75,0,0,1,1.16,3.89,9.69,9.69,0,0,1-1.29,5.08,8.39,8.39,0,0,1-3.54,3.29,11.64,11.64,0,0,1-5.24,1.12,15.43,15.43,0,0,1-4.22-.53,9.81,9.81,0,0,1-3.17-1.48,11.19,11.19,0,0,1-2.2-2.14A8.73,8.73,0,0,1,60.32,35a17,17,0,0,1-.71-2.9,18.79,18.79,0,0,1-.23-2.93,20.68,20.68,0,0,1,.78-5.81,12.92,12.92,0,0,1,2.41-4.55A10.55,10.55,0,0,1,67,15.76a17.56,17.56,0,0,1,6.5-1.09A10.36,10.36,0,0,1,79,16a4,4,0,0,1,2.24,3.5,3.57,3.57,0,0,1-.88,2.39A2.88,2.88,0,0,1,78,23a6.46,6.46,0,0,1-2.18-.63,6.94,6.94,0,0,0-2.67-.63A5,5,0,0,0,70,22.77,4.46,4.46,0,0,0,68.31,25.42ZM73,32.94a7.86,7.86,0,0,0-.53-3c-.35-.86-.85-1.28-1.5-1.28s-1.22.43-1.61,1.3a7,7,0,0,0-.6,3,6.42,6.42,0,0,0,.57,2.78A1.77,1.77,0,0,0,71,36.93a1.65,1.65,0,0,0,1.55-1.19A7,7,0,0,0,73,32.94Z"/><path class="cls-5" d="M55.47,35.47c0,2.13-.4,3.66-1.19,4.56a4.49,4.49,0,0,1-3.59,1.37,5.84,5.84,0,0,1-2.56-.48,3.08,3.08,0,0,1-1.49-1.74,9.62,9.62,0,0,1-.54-3.4L46,21a6.65,6.65,0,0,1-3.22-.69A2.42,2.42,0,0,1,41.55,18a2.59,2.59,0,0,1,1.16-2.16A5.47,5.47,0,0,1,46,15l2.3,0c1,0,1.7,0,2.1,0,2,0,3.36.33,4.06,1a4.53,4.53,0,0,1,1,3.38Z"/><path class="cls-5" d="M68.31,25.42a14.38,14.38,0,0,1,4.12-.63,10.52,10.52,0,0,1,4.6,1,7.81,7.81,0,0,1,3.19,2.69,6.75,6.75,0,0,1,1.16,3.89,9.69,9.69,0,0,1-1.29,5.08,8.39,8.39,0,0,1-3.54,3.29,11.64,11.64,0,0,1-5.24,1.12,15.43,15.43,0,0,1-4.22-.53,9.81,9.81,0,0,1-3.17-1.48,11.19,11.19,0,0,1-2.2-2.14A8.73,8.73,0,0,1,60.32,35a17,17,0,0,1-.71-2.9,18.79,18.79,0,0,1-.23-2.93,20.68,20.68,0,0,1,.78-5.81,12.92,12.92,0,0,1,2.41-4.55A10.55,10.55,0,0,1,67,15.76a17.56,17.56,0,0,1,6.5-1.09A10.36,10.36,0,0,1,79,16a4,4,0,0,1,2.24,3.5,3.57,3.57,0,0,1-.88,2.39A2.88,2.88,0,0,1,78,23a6.46,6.46,0,0,1-2.18-.63,6.94,6.94,0,0,0-2.67-.63A5,5,0,0,0,70,22.77,4.46,4.46,0,0,0,68.31,25.42ZM73,32.94a7.86,7.86,0,0,0-.53-3c-.35-.86-.85-1.28-1.5-1.28s-1.22.43-1.61,1.3a7,7,0,0,0-.6,3,6.42,6.42,0,0,0,.57,2.78A1.77,1.77,0,0,0,71,36.93a1.65,1.65,0,0,0,1.55-1.19A7,7,0,0,0,73,32.94Z"/></g></g></svg>