<svg xmlns="http://www.w3.org/2000/svg" viewBox="0 0 399.98 91.27"><defs><style>.cls-1{fill:#512573;}.cls-2{fill:#fff;}.cls-3,.cls-4{fill:none;stroke-width:4.85px;}.cls-3{stroke:#ff7300;stroke-linejoin:round;}.cls-4,.cls-5{font-size:39.54px;font-family:Coiny-Regular, Coiny;}.cls-4{stroke:#fff;}.cls-5{fill:#ff7300;}</style></defs><title>27tv</title><g id="Layer_2" data-name="Layer 2"><g id="pestaña_identificativa" data-name="pestaña identificativa"><rect class="cls-1" width="399.98" height="91.27" rx="32.4"/><path class="cls-2" d="M114.16,18.33a4.74,4.74,0,0,1,.79.07.92.92,0,0,1,.59.4,2,2,0,0,1,.22,1.09,1.89,1.89,0,0,1-.22,1.05.88.88,0,0,1-.6.4,4.11,4.11,0,0,1-.8.07h-4V33.06a3.89,3.89,0,0,1-.08.85,1,1,0,0,1-.48.65,2.7,2.7,0,0,1-1.34.24,2.57,2.57,0,0,1-1.27-.24,1,1,0,0,1-.49-.66,4,4,0,0,1-.09-.86V21.41h-4a3.94,3.94,0,0,1-.77-.08,1,1,0,0,1-.61-.41,1.8,1.8,0,0,1-.24-1.07,1.84,1.84,0,0,1,.24-1.06.94.94,0,0,1,.61-.4,4.9,4.9,0,0,1,.77-.07Z"/><path class="cls-2" d="M119.73,34.81a2.49,2.49,0,0,1-1.31-.25,1,1,0,0,1-.48-.67,4.14,4.14,0,0,1-.08-.87V24.81a3.88,3.88,0,0,1,.09-.87,1,1,0,0,1,.49-.65,2.53,2.53,0,0,1,1.32-.25,2.63,2.63,0,0,1,1.26.23,1,1,0,0,1,.49.51,1.57,1.57,0,0,1,.1.51l-.3.14a2.15,2.15,0,0,1,.26-.34,4,4,0,0,1,.59-.52,3.52,3.52,0,0,1,2.15-.64l.61,0a4.56,4.56,0,0,1,.7.14,2.71,2.71,0,0,1,.67.29,1.43,1.43,0,0,1,.48.43,1.05,1.05,0,0,1,.19.64,2.71,2.71,0,0,1-.48,1.63,1.4,1.4,0,0,1-1.2.67,2.11,2.11,0,0,1-.6-.06.74.74,0,0,1-.28-.14,1.71,1.71,0,0,0-.27-.14,1.68,1.68,0,0,0-.55-.06,2.39,2.39,0,0,0-.71.1,2.07,2.07,0,0,0-.62.29,1.31,1.31,0,0,0-.45.49,1.37,1.37,0,0,0-.17.68v5.15a4,4,0,0,1-.09.86,1,1,0,0,1-.49.65A2.8,2.8,0,0,1,119.73,34.81Z"/><path class="cls-2" d="M139.13,34.8a2.51,2.51,0,0,1-1.38-.31.81.81,0,0,1-.42-.75l.25-.4a2.59,2.59,0,0,1-.58.57,4.1,4.1,0,0,1-1.11.62,4.35,4.35,0,0,1-1.66.26,5.13,5.13,0,0,1-2.19-.47A6,6,0,0,1,130.2,33a6.8,6.8,0,0,1-1.27-1.9,5.48,5.48,0,0,1,0-4.44,6.6,6.6,0,0,1,1.29-1.86,6.48,6.48,0,0,1,1.84-1.28,5.21,5.21,0,0,1,2.18-.47,4.53,4.53,0,0,1,1.57.25,4.63,4.63,0,0,1,1.09.58,3.36,3.36,0,0,1,.66.63l-.22-.32a1,1,0,0,1,.43-.86,2.52,2.52,0,0,1,1.39-.3,2.44,2.44,0,0,1,1.29.26,1.06,1.06,0,0,1,.47.69,4.26,4.26,0,0,1,.09.89V33a4.94,4.94,0,0,1-.08.87,1,1,0,0,1-.48.67A2.49,2.49,0,0,1,139.13,34.8Zm-4.37-3.51A2.29,2.29,0,0,0,136,31a2.5,2.5,0,0,0,.85-.86,2.43,2.43,0,0,0,0-2.41,2.45,2.45,0,0,0-.88-.84,2.48,2.48,0,0,0-1.22-.3,2.5,2.5,0,0,0-1.26.31,2.48,2.48,0,0,0-.9.86,2.23,2.23,0,0,0-.34,1.23,2.14,2.14,0,0,0,.33,1.16,2.46,2.46,0,0,0,.93.85A2.68,2.68,0,0,0,134.76,31.29Z"/><path class="cls-2" d="M144.88,34.82a1.8,1.8,0,0,1-1.31-.5,1.66,1.66,0,0,1-.54-1.26,1.76,1.76,0,0,1,.14-.68,1.7,1.7,0,0,1,.41-.59l5.68-5.18h-3.8a4.46,4.46,0,0,1-.91-.09,1.26,1.26,0,0,1-.73-.46,2.07,2.07,0,0,1-.29-1.24,2.15,2.15,0,0,1,.29-1.24,1.17,1.17,0,0,1,.73-.44,4.47,4.47,0,0,1,.91-.08h7.83a1.85,1.85,0,0,1,1.32.5,1.59,1.59,0,0,1,.52,1.24,2,2,0,0,1-.13.72,1.31,1.31,0,0,1-.39.55l-5.55,5.2h4.52a4.59,4.59,0,0,1,.93.09,1.08,1.08,0,0,1,.68.47,2.22,2.22,0,0,1,.26,1.25,2.14,2.14,0,0,1-.27,1.22,1.08,1.08,0,0,1-.7.45,5.33,5.33,0,0,1-.93.07Z"/><path class="cls-2" d="M167.7,34.81a2.51,2.51,0,0,1-1.37-.3.87.87,0,0,1-.43-.76l.25-.4a2.72,2.72,0,0,1-.57.58,4.25,4.25,0,0,1-1.11.61,4.6,4.6,0,0,1-1.67.27,5.28,5.28,0,0,1-2.18-.47A5.84,5.84,0,0,1,158.78,33a6.68,6.68,0,0,1-1.27-1.89A5.4,5.4,0,0,1,157,28.9a5.22,5.22,0,0,1,.48-2.2,6.33,6.33,0,0,1,1.29-1.86,6.15,6.15,0,0,1,1.84-1.28,5.16,5.16,0,0,1,2.17-.47,4.37,4.37,0,0,1,1.58.25,4.54,4.54,0,0,1,1.08.57,3.38,3.38,0,0,1,.66.64l-.22-.33a1,1,0,0,1,.44-.86,2.59,2.59,0,0,1,1.39-.29,2.4,2.4,0,0,1,1.28.26,1.06,1.06,0,0,1,.48.68,4.31,4.31,0,0,1,.08.9V33a4.28,4.28,0,0,1-.09.87,1.06,1.06,0,0,1-.47.67A2.66,2.66,0,0,1,167.7,34.81Zm-4.37-3.51a2.28,2.28,0,0,0,1.2-.31,2.42,2.42,0,0,0,.85-.86,2.26,2.26,0,0,0,.33-1.2,2.32,2.32,0,0,0-1.2-2.05,2.54,2.54,0,0,0-3.39.87,2.22,2.22,0,0,0-.34,1.22,2.1,2.1,0,0,0,.34,1.17A2.52,2.52,0,0,0,162,31,2.67,2.67,0,0,0,163.33,31.3Z"/><path class="cls-2" d="M184.8,35.06a7.64,7.64,0,0,1-3-.54,5.92,5.92,0,0,1-2.06-1.43,6.22,6.22,0,0,1-1.6-4.13,5.85,5.85,0,0,1,.85-3.13,6,6,0,0,1,2.37-2.15,7.32,7.32,0,0,1,3.46-.79,6.59,6.59,0,0,1,2.51.44,5.09,5.09,0,0,1,1.75,1.13,4.81,4.81,0,0,1,1,1.49,4.06,4.06,0,0,1,.33,1.53,2.55,2.55,0,0,1-.66,1.93,2.32,2.32,0,0,1-1.69.64h-6a1.63,1.63,0,0,0,.46,1,2.9,2.9,0,0,0,1,.66A3.91,3.91,0,0,0,185,32a8.05,8.05,0,0,0,1-.06,4.56,4.56,0,0,0,.79-.16l.59-.21.49-.18a1.76,1.76,0,0,1,.42-.09,1,1,0,0,1,.68.2,2,2,0,0,1,.57.67,1.84,1.84,0,0,1,.24.49,2,2,0,0,1,.06.47,1.26,1.26,0,0,1-.61,1,4.94,4.94,0,0,1-1.73.69A12.19,12.19,0,0,1,184.8,35.06Zm-2.67-7h4a1.06,1.06,0,0,0,.58-.13.55.55,0,0,0,.2-.5,1.08,1.08,0,0,0-.28-.73,1.78,1.78,0,0,0-.73-.51,3,3,0,0,0-1.09-.18,3.11,3.11,0,0,0-1.35.29,2.28,2.28,0,0,0-.94.75A1.73,1.73,0,0,0,182.13,28.09Z"/><path class="cls-2" d="M197.33,34.85a16.58,16.58,0,0,1-1.83-.09,3.91,3.91,0,0,1-1.35-.38,2.53,2.53,0,0,1-.9-.79,3.55,3.55,0,0,1-.52-1.29,9,9,0,0,1-.18-1.94V19.48a3.46,3.46,0,0,1,.1-.87,1.1,1.1,0,0,1,.49-.66,2.5,2.5,0,0,1,1.31-.26,2.44,2.44,0,0,1,1.29.26,1.16,1.16,0,0,1,.49.66,4,4,0,0,1,.1.87V30.19a3.77,3.77,0,0,0,0,.63.76.76,0,0,0,.15.39.54.54,0,0,0,.31.18,1.9,1.9,0,0,0,.52.05,2.68,2.68,0,0,1,.62.07.87.87,0,0,1,.53.43,2.24,2.24,0,0,1,.23,1.17,2.5,2.5,0,0,1-.23,1.23.85.85,0,0,1-.53.44A2.79,2.79,0,0,1,197.33,34.85Z"/><path class="cls-2" d="M209,34.84a2.62,2.62,0,0,1-1.31-.25,1,1,0,0,1-.48-.66,4.74,4.74,0,0,1-.08-.86V24.79a3.73,3.73,0,0,1,.09-.84.94.94,0,0,1,.49-.62,2.71,2.71,0,0,1,1.32-.24,2.66,2.66,0,0,1,1.18.2,1,1,0,0,1,.49.49,1.48,1.48,0,0,1,.11.53.73.73,0,0,0,.05.34l-.15.44a1.3,1.3,0,0,1,.39-.71,3.05,3.05,0,0,1,.85-.66,4.48,4.48,0,0,1,1.1-.46,3.91,3.91,0,0,1,1.16-.16,5.2,5.2,0,0,1,2.14.41,4.21,4.21,0,0,1,1.58,1.19,5.17,5.17,0,0,1,1,1.82,7.65,7.65,0,0,1,.34,2.3V33.1a4,4,0,0,1-.09.86,1,1,0,0,1-.47.65,2.87,2.87,0,0,1-1.34.23,2.53,2.53,0,0,1-1.32-.25,1,1,0,0,1-.49-.66,4,4,0,0,1-.09-.85V28.82a2.49,2.49,0,0,0-.27-1.21,1.75,1.75,0,0,0-.75-.75,2.55,2.55,0,0,0-1.21-.26,2.71,2.71,0,0,0-1.25.27,1.94,1.94,0,0,0-.81.77,2.31,2.31,0,0,0-.29,1.17V33.1a4.12,4.12,0,0,1-.09.86,1,1,0,0,1-.48.64A2.59,2.59,0,0,1,209,34.84Z"/><path class="cls-2" d="M227,34.85a5.36,5.36,0,0,1-5.09-3.43,6.31,6.31,0,0,1-.41-2.3V24.86a4,4,0,0,1,.09-.87,1.08,1.08,0,0,1,.49-.66,2.58,2.58,0,0,1,1.32-.25,2.42,2.42,0,0,1,1.32.26,1,1,0,0,1,.47.67,4.1,4.1,0,0,1,.09.88v4.24a2.52,2.52,0,0,0,.27,1.19,1.72,1.72,0,0,0,.77.76,2.7,2.7,0,0,0,1.21.26,2.61,2.61,0,0,0,1.24-.27,2,2,0,0,0,.8-.76,2.34,2.34,0,0,0,.29-1.18V24.85A4,4,0,0,1,230,24a1,1,0,0,1,.49-.64,2.58,2.58,0,0,1,1.32-.25,2.52,2.52,0,0,1,1.32.26,1.09,1.09,0,0,1,.47.67,4,4,0,0,1,.09.86v8.29a3.7,3.7,0,0,1-.09.83,1,1,0,0,1-.48.63,2.79,2.79,0,0,1-1.3.23,3.2,3.2,0,0,1-1.05-.14,1.23,1.23,0,0,1-.55-.36.85.85,0,0,1-.21-.44,2.29,2.29,0,0,1,0-.43l.32-.25a3.29,3.29,0,0,1-.32.36,6.46,6.46,0,0,1-.67.54,4,4,0,0,1-1,.51A3.52,3.52,0,0,1,227,34.85Zm-.4-12.6a.83.83,0,0,1-.73-.23,2.45,2.45,0,0,1-.51-.94,1.77,1.77,0,0,1-.1-1.23,1.39,1.39,0,0,1,.92-.63l4.4-1.27a.89.89,0,0,1,.73.27,2.36,2.36,0,0,1,.5.93,1.66,1.66,0,0,1,.08,1.2A1.32,1.32,0,0,1,231,21Z"/><path class="cls-2" d="M238,34.88a2.48,2.48,0,0,1-1.3-.26,1,1,0,0,1-.48-.66,4.79,4.79,0,0,1-.07-.87V24.85a3.89,3.89,0,0,1,.09-.85,1,1,0,0,1,.49-.65,2.71,2.71,0,0,1,1.32-.24,2.12,2.12,0,0,1,1.35.34,1.34,1.34,0,0,1,.43,1.12l-.33.26a2.62,2.62,0,0,1,.3-.4,4.83,4.83,0,0,1,.65-.59,4.43,4.43,0,0,1,.94-.53,3,3,0,0,1,1.16-.22,4.62,4.62,0,0,1,1.49.22,3.91,3.91,0,0,1,1.2.66,4.24,4.24,0,0,1,.94,1.1,6,6,0,0,1,.85-.92,4.35,4.35,0,0,1,1.17-.75,3.58,3.58,0,0,1,1.53-.31,4,4,0,0,1,4,2.69,8.29,8.29,0,0,1,.53,3.13v4.21a3.44,3.44,0,0,1-.1.86,1.06,1.06,0,0,1-.49.66,2.57,2.57,0,0,1-1.31.25,2.65,2.65,0,0,1-1.32-.26,1,1,0,0,1-.48-.68,4.72,4.72,0,0,1-.07-.85V28.88a3.38,3.38,0,0,0-.19-1.21,1.67,1.67,0,0,0-.53-.78,1.46,1.46,0,0,0-.9-.27,1.79,1.79,0,0,0-1,.26,1.62,1.62,0,0,0-.6.75,3.52,3.52,0,0,0-.2,1.27v4.22A2.8,2.8,0,0,1,247,34a1.15,1.15,0,0,1-.54.66,2.57,2.57,0,0,1-1.33.22,2.18,2.18,0,0,1-1.25-.27,1.06,1.06,0,0,1-.45-.68,4.78,4.78,0,0,1-.08-.84V28.88a3.8,3.8,0,0,0-.18-1.23,1.57,1.57,0,0,0-.52-.77,1.49,1.49,0,0,0-.93-.26,1.63,1.63,0,0,0-1,.3,1.78,1.78,0,0,0-.59.81,3.19,3.19,0,0,0-.19,1.15v4.23a3.88,3.88,0,0,1-.09.87,1,1,0,0,1-.49.65A2.56,2.56,0,0,1,238,34.88Z"/><path class="cls-2" d="M262.9,35.1a7.64,7.64,0,0,1-3-.54,5.79,5.79,0,0,1-2.06-1.43,5.86,5.86,0,0,1-1.2-2,6.12,6.12,0,0,1-.4-2.17,5.78,5.78,0,0,1,.85-3.13,6,6,0,0,1,2.37-2.15,7.42,7.42,0,0,1,3.46-.79,6.59,6.59,0,0,1,2.51.44,5.24,5.24,0,0,1,1.75,1.13,4.85,4.85,0,0,1,1,1.5,4,4,0,0,1,.33,1.53,2.58,2.58,0,0,1-.66,1.93,2.36,2.36,0,0,1-1.69.63h-5.95a1.6,1.6,0,0,0,.46,1,2.9,2.9,0,0,0,1,.66,3.68,3.68,0,0,0,1.32.24,8.1,8.1,0,0,0,1-.06,4.49,4.49,0,0,0,.79-.17l.59-.21a4,4,0,0,1,.48-.17,2.63,2.63,0,0,1,.43-.1,1.05,1.05,0,0,1,.67.2,2,2,0,0,1,.58.67,2.26,2.26,0,0,1,.24.5,1.84,1.84,0,0,1,.06.47,1.25,1.25,0,0,1-.62,1,5,5,0,0,1-1.72.7A12.25,12.25,0,0,1,262.9,35.1Zm-2.67-7h3.95a1.16,1.16,0,0,0,.58-.13.58.58,0,0,0,.2-.51,1.08,1.08,0,0,0-.28-.73,1.65,1.65,0,0,0-.74-.5,2.94,2.94,0,0,0-1.08-.18,3.11,3.11,0,0,0-1.35.28,2.37,2.37,0,0,0-.94.75A1.68,1.68,0,0,0,260.23,28.13Z"/><path class="cls-2" d="M272.5,34.9a2.6,2.6,0,0,1-1.31-.25,1,1,0,0,1-.48-.67,4.94,4.94,0,0,1-.08-.87V24.89a4,4,0,0,1,.09-.87,1,1,0,0,1,.49-.65,3.76,3.76,0,0,1,2.59,0,1,1,0,0,1,.48.52,1.57,1.57,0,0,1,.1.51l-.3.14a2.46,2.46,0,0,1,.27-.34,3.06,3.06,0,0,1,.58-.52,3.76,3.76,0,0,1,.92-.46,3.83,3.83,0,0,1,1.23-.19,4.7,4.7,0,0,1,.62,0,3.94,3.94,0,0,1,.7.14,3.28,3.28,0,0,1,.66.28,1.74,1.74,0,0,1,.49.44,1.07,1.07,0,0,1,.18.63,2.81,2.81,0,0,1-.47,1.64,1.42,1.42,0,0,1-1.2.67,2,2,0,0,1-.6-.06,1.12,1.12,0,0,1-.29-.14,1.08,1.08,0,0,0-.26-.14,1.72,1.72,0,0,0-.55-.06,2.84,2.84,0,0,0-.72.09,2.09,2.09,0,0,0-.62.3,1.41,1.41,0,0,0-.45.49,1.35,1.35,0,0,0-.16.67v5.16a4.12,4.12,0,0,1-.09.86.93.93,0,0,1-.48.64A2.73,2.73,0,0,1,272.5,34.9Z"/><path class="cls-2" d="M287.7,35.09a6.67,6.67,0,0,1-2.34-.43,7.24,7.24,0,0,1-2.11-1.24,5.91,5.91,0,0,1-1.51-1.92,5.48,5.48,0,0,1-.56-2.48,5.54,5.54,0,0,1,.51-2.37,6.56,6.56,0,0,1,1.42-1.94,6.88,6.88,0,0,1,2.06-1.33,6.81,6.81,0,0,1,5.75.34,6.34,6.34,0,0,1,2.34,2.2,6,6,0,0,1,.31,5.63,6,6,0,0,1-1.51,1.92A6.37,6.37,0,0,1,290,34.68,6.55,6.55,0,0,1,287.7,35.09Zm-.05-3.55a3,3,0,0,0,1.23-.28,2.77,2.77,0,0,0,1.05-.85,2.33,2.33,0,0,0,.42-1.43,2.45,2.45,0,0,0-.34-1.32,2.52,2.52,0,0,0-1-.89,3,3,0,0,0-1.41-.31,2.68,2.68,0,0,0-1.34.32,2.76,2.76,0,0,0-1,.91,2.62,2.62,0,0,0,.05,2.73,2.52,2.52,0,0,0,1,.85A3,3,0,0,0,287.65,31.54Z"/><path class="cls-2" d="M305.31,24.86a2.07,2.07,0,0,1-1.3.58,1.94,1.94,0,0,1-1.25-.69,1.75,1.75,0,0,1-.63-1.3,2.07,2.07,0,0,1,.88-1.29l3.73-3.11a1.83,1.83,0,0,1,1.28-.54,2.05,2.05,0,0,1,1.24.73,1.6,1.6,0,0,1,.61,1.26,2.1,2.1,0,0,1-.89,1.28ZM308.45,35a2,2,0,0,1-1.44-.4,1.91,1.91,0,0,1-.41-1.39V20.23a1.88,1.88,0,0,1,.41-1.38,2.16,2.16,0,0,1,1.47-.39,2.07,2.07,0,0,1,1.46.41,1.93,1.93,0,0,1,.41,1.41V33.2a1.88,1.88,0,0,1-.41,1.38A2.19,2.19,0,0,1,308.45,35Z"/><path class="cls-2" d="M318.48,35.16a6.55,6.55,0,0,1-3.3-.79,5.18,5.18,0,0,1-2.11-2.3,8,8,0,0,1-.74-3.6,11.78,11.78,0,0,1,.45-3.34,9.91,9.91,0,0,1,1.29-2.77,8.44,8.44,0,0,1,2-2.1,9.11,9.11,0,0,1,2.66-1.34,10.27,10.27,0,0,1,3.2-.47,5,5,0,0,1,.89.08,1.07,1.07,0,0,1,.67.46,2.14,2.14,0,0,1,.26,1.25,2.23,2.23,0,0,1-.27,1.25,1.08,1.08,0,0,1-.71.45,4.76,4.76,0,0,1-.94.09,6.45,6.45,0,0,0-2.06.29,5.4,5.4,0,0,0-1.52.76,5.14,5.14,0,0,0-1,1,4.22,4.22,0,0,0-.59,1.06,2.59,2.59,0,0,0-.19.87l-.32-.07a1.13,1.13,0,0,1,.43-.42,3.39,3.39,0,0,1,.9-.39,4.36,4.36,0,0,1,1.17-.15,6.11,6.11,0,0,1,2.85.66,5.42,5.42,0,0,1,2,1.76,4.21,4.21,0,0,1,.75,2.43,5.06,5.06,0,0,1-.75,2.72,5.33,5.33,0,0,1-2.08,1.91A6.31,6.31,0,0,1,318.48,35.16Zm-.1-3.34a2.87,2.87,0,0,0,1.19-.22,1.49,1.49,0,0,0,.72-.63,2,2,0,0,0,.24-1,1.74,1.74,0,0,0-.24-.93,1.62,1.62,0,0,0-.7-.61,2.39,2.39,0,0,0-1.06-.23,3,3,0,0,0-1.2.23,1.83,1.83,0,0,0-.79.6,1.51,1.51,0,0,0-.26.87,2.15,2.15,0,0,0,.22,1,1.45,1.45,0,0,0,.69.65A2.71,2.71,0,0,0,318.38,31.82Z"/><path class="cls-3" d="M114.16,18.33a4.74,4.74,0,0,1,.79.07.92.92,0,0,1,.59.4,2,2,0,0,1,.22,1.09,1.89,1.89,0,0,1-.22,1.05.88.88,0,0,1-.6.4,4.11,4.11,0,0,1-.8.07h-4V33.06a3.89,3.89,0,0,1-.08.85,1,1,0,0,1-.48.65,2.7,2.7,0,0,1-1.34.24,2.57,2.57,0,0,1-1.27-.24,1,1,0,0,1-.49-.66,4,4,0,0,1-.09-.86V21.41h-4a3.94,3.94,0,0,1-.77-.08,1,1,0,0,1-.61-.41,1.8,1.8,0,0,1-.24-1.07,1.84,1.84,0,0,1,.24-1.06.94.94,0,0,1,.61-.4,4.9,4.9,0,0,1,.77-.07Z"/><path class="cls-3" d="M119.73,34.81a2.49,2.49,0,0,1-1.31-.25,1,1,0,0,1-.48-.67,4.14,4.14,0,0,1-.08-.87V24.81a3.88,3.88,0,0,1,.09-.87,1,1,0,0,1,.49-.65,2.53,2.53,0,0,1,1.32-.25,2.63,2.63,0,0,1,1.26.23,1,1,0,0,1,.49.51,1.57,1.57,0,0,1,.1.51l-.3.14a2.15,2.15,0,0,1,.26-.34,4,4,0,0,1,.59-.52,3.52,3.52,0,0,1,2.15-.64l.61,0a4.56,4.56,0,0,1,.7.14,2.71,2.71,0,0,1,.67.29,1.43,1.43,0,0,1,.48.43,1.05,1.05,0,0,1,.19.64,2.71,2.71,0,0,1-.48,1.63,1.4,1.4,0,0,1-1.2.67,2.11,2.11,0,0,1-.6-.06.74.74,0,0,1-.28-.14,1.71,1.71,0,0,0-.27-.14,1.68,1.68,0,0,0-.55-.06,2.39,2.39,0,0,0-.71.1,2.07,2.07,0,0,0-.62.29,1.31,1.31,0,0,0-.45.49,1.37,1.37,0,0,0-.17.68v5.15a4,4,0,0,1-.09.86,1,1,0,0,1-.49.65A2.8,2.8,0,0,1,119.73,34.81Z"/><path class="cls-3" d="M139.13,34.8a2.51,2.51,0,0,1-1.38-.31.81.81,0,0,1-.42-.75l.25-.4a2.59,2.59,0,0,1-.58.57,4.1,4.1,0,0,1-1.11.62,4.35,4.35,0,0,1-1.66.26,5.13,5.13,0,0,1-2.19-.47A6,6,0,0,1,130.2,33a6.8,6.8,0,0,1-1.27-1.9,5.48,5.48,0,0,1,0-4.44,6.6,6.6,0,0,1,1.29-1.86,6.48,6.48,0,0,1,1.84-1.28,5.21,5.21,0,0,1,2.18-.47,4.53,4.53,0,0,1,1.57.25,4.63,4.63,0,0,1,1.09.58,3.36,3.36,0,0,1,.66.63l-.22-.32a1,1,0,0,1,.43-.86,2.52,2.52,0,0,1,1.39-.3,2.44,2.44,0,0,1,1.29.26,1.06,1.06,0,0,1,.47.69,4.26,4.26,0,0,1,.09.89V33a4.94,4.94,0,0,1-.08.87,1,1,0,0,1-.48.67A2.49,2.49,0,0,1,139.13,34.8Zm-4.37-3.51A2.29,2.29,0,0,0,136,31a2.5,2.5,0,0,0,.85-.86,2.43,2.43,0,0,0,0-2.41,2.45,2.45,0,0,0-.88-.84,2.48,2.48,0,0,0-1.22-.3,2.5,2.5,0,0,0-1.26.31,2.48,2.48,0,0,0-.9.86,2.23,2.23,0,0,0-.34,1.23,2.14,2.14,0,0,0,.33,1.16,2.46,2.46,0,0,0,.93.85A2.68,2.68,0,0,0,134.76,31.29Z"/><path class="cls-3" d="M144.88,34.82a1.8,1.8,0,0,1-1.31-.5,1.66,1.66,0,0,1-.54-1.26,1.76,1.76,0,0,1,.14-.68,1.7,1.7,0,0,1,.41-.59l5.68-5.18h-3.8a4.46,4.46,0,0,1-.91-.09,1.26,1.26,0,0,1-.73-.46,2.07,2.07,0,0,1-.29-1.24,2.15,2.15,0,0,1,.29-1.24,1.17,1.17,0,0,1,.73-.44,4.47,4.47,0,0,1,.91-.08h7.83a1.85,1.85,0,0,1,1.32.5,1.59,1.59,0,0,1,.52,1.24,2,2,0,0,1-.13.72,1.31,1.31,0,0,1-.39.55l-5.55,5.2h4.52a4.59,4.59,0,0,1,.93.09,1.08,1.08,0,0,1,.68.47,2.22,2.22,0,0,1,.26,1.25,2.14,2.14,0,0,1-.27,1.22,1.08,1.08,0,0,1-.7.45,5.33,5.33,0,0,1-.93.07Z"/><path class="cls-3" d="M167.7,34.81a2.51,2.51,0,0,1-1.37-.3.87.87,0,0,1-.43-.76l.25-.4a2.72,2.72,0,0,1-.57.58,4.25,4.25,0,0,1-1.11.61,4.6,4.6,0,0,1-1.67.27,5.28,5.28,0,0,1-2.18-.47A5.84,5.84,0,0,1,158.78,33a6.68,6.68,0,0,1-1.27-1.89A5.4,5.4,0,0,1,157,28.9a5.22,5.22,0,0,1,.48-2.2,6.33,6.33,0,0,1,1.29-1.86,6.15,6.15,0,0,1,1.84-1.28,5.16,5.16,0,0,1,2.17-.47,4.37,4.37,0,0,1,1.58.25,4.54,4.54,0,0,1,1.08.57,3.38,3.38,0,0,1,.66.64l-.22-.33a1,1,0,0,1,.44-.86,2.59,2.59,0,0,1,1.39-.29,2.4,2.4,0,0,1,1.28.26,1.06,1.06,0,0,1,.48.68,4.31,4.31,0,0,1,.08.9V33a4.28,4.28,0,0,1-.09.87,1.06,1.06,0,0,1-.47.67A2.66,2.66,0,0,1,167.7,34.81Zm-4.37-3.51a2.28,2.28,0,0,0,1.2-.31,2.42,2.42,0,0,0,.85-.86,2.26,2.26,0,0,0,.33-1.2,2.32,2.32,0,0,0-1.2-2.05,2.54,2.54,0,0,0-3.39.87,2.22,2.22,0,0,0-.34,1.22,2.1,2.1,0,0,0,.34,1.17A2.52,2.52,0,0,0,162,31,2.67,2.67,0,0,0,163.33,31.3Z"/><path class="cls-3" d="M184.8,35.06a7.64,7.64,0,0,1-3-.54,5.92,5.92,0,0,1-2.06-1.43,6.22,6.22,0,0,1-1.6-4.13,5.85,5.85,0,0,1,.85-3.13,6,6,0,0,1,2.37-2.15,7.32,7.32,0,0,1,3.46-.79,6.59,6.59,0,0,1,2.51.44,5.09,5.09,0,0,1,1.75,1.13,4.81,4.81,0,0,1,1,1.49,4.06,4.06,0,0,1,.33,1.53,2.55,2.55,0,0,1-.66,1.93,2.32,2.32,0,0,1-1.69.64h-6a1.63,1.63,0,0,0,.46,1,2.9,2.9,0,0,0,1,.66A3.91,3.91,0,0,0,185,32a8.05,8.05,0,0,0,1-.06,4.56,4.56,0,0,0,.79-.16l.59-.21.49-.18a1.76,1.76,0,0,1,.42-.09,1,1,0,0,1,.68.2,2,2,0,0,1,.57.67,1.84,1.84,0,0,1,.24.49,2,2,0,0,1,.06.47,1.26,1.26,0,0,1-.61,1,4.94,4.94,0,0,1-1.73.69A12.19,12.19,0,0,1,184.8,35.06Zm-2.67-7h4a1.06,1.06,0,0,0,.58-.13.55.55,0,0,0,.2-.5,1.08,1.08,0,0,0-.28-.73,1.78,1.78,0,0,0-.73-.51,3,3,0,0,0-1.09-.18,3.11,3.11,0,0,0-1.35.29,2.28,2.28,0,0,0-.94.75A1.73,1.73,0,0,0,182.13,28.09Z"/><path class="cls-3" d="M197.33,34.85a16.58,16.58,0,0,1-1.83-.09,3.91,3.91,0,0,1-1.35-.38,2.53,2.53,0,0,1-.9-.79,3.55,3.55,0,0,1-.52-1.29,9,9,0,0,1-.18-1.94V19.48a3.46,3.46,0,0,1,.1-.87,1.1,1.1,0,0,1,.49-.66,2.5,2.5,0,0,1,1.31-.26,2.44,2.44,0,0,1,1.29.26,1.16,1.16,0,0,1,.49.66,4,4,0,0,1,.1.87V30.19a3.77,3.77,0,0,0,0,.63.76.76,0,0,0,.15.39.54.54,0,0,0,.31.18,1.9,1.9,0,0,0,.52.05,2.68,2.68,0,0,1,.62.07.87.87,0,0,1,.53.43,2.24,2.24,0,0,1,.23,1.17,2.5,2.5,0,0,1-.23,1.23.85.85,0,0,1-.53.44A2.79,2.79,0,0,1,197.33,34.85Z"/><path class="cls-3" d="M209,34.84a2.62,2.62,0,0,1-1.31-.25,1,1,0,0,1-.48-.66,4.74,4.74,0,0,1-.08-.86V24.79a3.73,3.73,0,0,1,.09-.84.94.94,0,0,1,.49-.62,2.71,2.71,0,0,1,1.32-.24,2.66,2.66,0,0,1,1.18.2,1,1,0,0,1,.49.49,1.48,1.48,0,0,1,.11.53.73.73,0,0,0,.05.34l-.15.44a1.3,1.3,0,0,1,.39-.71,3.05,3.05,0,0,1,.85-.66,4.48,4.48,0,0,1,1.1-.46,3.91,3.91,0,0,1,1.16-.16,5.2,5.2,0,0,1,2.14.41,4.21,4.21,0,0,1,1.58,1.19,5.17,5.17,0,0,1,1,1.82,7.65,7.65,0,0,1,.34,2.3V33.1a4,4,0,0,1-.09.86,1,1,0,0,1-.47.65,2.87,2.87,0,0,1-1.34.23,2.53,2.53,0,0,1-1.32-.25,1,1,0,0,1-.49-.66,4,4,0,0,1-.09-.85V28.82a2.49,2.49,0,0,0-.27-1.21,1.75,1.75,0,0,0-.75-.75,2.55,2.55,0,0,0-1.21-.26,2.71,2.71,0,0,0-1.25.27,1.94,1.94,0,0,0-.81.77,2.31,2.31,0,0,0-.29,1.17V33.1a4.12,4.12,0,0,1-.09.86,1,1,0,0,1-.48.64A2.59,2.59,0,0,1,209,34.84Z"/><path class="cls-3" d="M227,34.85a5.36,5.36,0,0,1-5.09-3.43,6.31,6.31,0,0,1-.41-2.3V24.86a4,4,0,0,1,.09-.87,1.08,1.08,0,0,1,.49-.66,2.58,2.58,0,0,1,1.32-.25,2.42,2.42,0,0,1,1.32.26,1,1,0,0,1,.47.67,4.1,4.1,0,0,1,.09.88v4.24a2.52,2.52,0,0,0,.27,1.19,1.72,1.72,0,0,0,.77.76,2.7,2.7,0,0,0,1.21.26,2.61,2.61,0,0,0,1.24-.27,2,2,0,0,0,.8-.76,2.34,2.34,0,0,0,.29-1.18V24.85A4,4,0,0,1,230,24a1,1,0,0,1,.49-.64,2.58,2.58,0,0,1,1.32-.25,2.52,2.52,0,0,1,1.32.26,1.09,1.09,0,0,1,.47.67,4,4,0,0,1,.09.86v8.29a3.7,3.7,0,0,1-.09.83,1,1,0,0,1-.48.63,2.79,2.79,0,0,1-1.3.23,3.2,3.2,0,0,1-1.05-.14,1.23,1.23,0,0,1-.55-.36.85.85,0,0,1-.21-.44,2.29,2.29,0,0,1,0-.43l.32-.25a3.29,3.29,0,0,1-.32.36,6.46,6.46,0,0,1-.67.54,4,4,0,0,1-1,.51A3.52,3.52,0,0,1,227,34.85Zm-.4-12.6a.83.83,0,0,1-.73-.23,2.45,2.45,0,0,1-.51-.94,1.77,1.77,0,0,1-.1-1.23,1.39,1.39,0,0,1,.92-.63l4.4-1.27a.89.89,0,0,1,.73.27,2.36,2.36,0,0,1,.5.93,1.66,1.66,0,0,1,.08,1.2A1.32,1.32,0,0,1,231,21Z"/><path class="cls-3" d="M238,34.88a2.48,2.48,0,0,1-1.3-.26,1,1,0,0,1-.48-.66,4.79,4.79,0,0,1-.07-.87V24.85a3.89,3.89,0,0,1,.09-.85,1,1,0,0,1,.49-.65,2.71,2.71,0,0,1,1.32-.24,2.12,2.12,0,0,1,1.35.34,1.34,1.34,0,0,1,.43,1.12l-.33.26a2.62,2.62,0,0,1,.3-.4,4.83,4.83,0,0,1,.65-.59,4.43,4.43,0,0,1,.94-.53,3,3,0,0,1,1.16-.22,4.62,4.62,0,0,1,1.49.22,3.91,3.91,0,0,1,1.2.66,4.24,4.24,0,0,1,.94,1.1,6,6,0,0,1,.85-.92,4.35,4.35,0,0,1,1.17-.75,3.58,3.58,0,0,1,1.53-.31,4,4,0,0,1,4,2.69,8.29,8.29,0,0,1,.53,3.13v4.21a3.44,3.44,0,0,1-.1.86,1.06,1.06,0,0,1-.49.66,2.57,2.57,0,0,1-1.31.25,2.65,2.65,0,0,1-1.32-.26,1,1,0,0,1-.48-.68,4.72,4.72,0,0,1-.07-.85V28.88a3.38,3.38,0,0,0-.19-1.21,1.67,1.67,0,0,0-.53-.78,1.46,1.46,0,0,0-.9-.27,1.79,1.79,0,0,0-1,.26,1.62,1.62,0,0,0-.6.75,3.52,3.52,0,0,0-.2,1.27v4.22A2.8,2.8,0,0,1,247,34a1.15,1.15,0,0,1-.54.66,2.57,2.57,0,0,1-1.33.22,2.18,2.18,0,0,1-1.25-.27,1.06,1.06,0,0,1-.45-.68,4.78,4.78,0,0,1-.08-.84V28.88a3.8,3.8,0,0,0-.18-1.23,1.57,1.57,0,0,0-.52-.77,1.49,1.49,0,0,0-.93-.26,1.63,1.63,0,0,0-1,.3,1.78,1.78,0,0,0-.59.81,3.19,3.19,0,0,0-.19,1.15v4.23a3.88,3.88,0,0,1-.09.87,1,1,0,0,1-.49.65A2.56,2.56,0,0,1,238,34.88Z"/><path class="cls-3" d="M262.9,35.1a7.64,7.64,0,0,1-3-.54,5.79,5.79,0,0,1-2.06-1.43,5.86,5.86,0,0,1-1.2-2,6.12,6.12,0,0,1-.4-2.17,5.78,5.78,0,0,1,.85-3.13,6,6,0,0,1,2.37-2.15,7.42,7.42,0,0,1,3.46-.79,6.59,6.59,0,0,1,2.51.44,5.24,5.24,0,0,1,1.75,1.13,4.85,4.85,0,0,1,1,1.5,4,4,0,0,1,.33,1.53,2.58,2.58,0,0,1-.66,1.93,2.36,2.36,0,0,1-1.69.63h-5.95a1.6,1.6,0,0,0,.46,1,2.9,2.9,0,0,0,1,.66,3.68,3.68,0,0,0,1.32.24,8.1,8.1,0,0,0,1-.06,4.49,4.49,0,0,0,.79-.17l.59-.21a4,4,0,0,1,.48-.17,2.63,2.63,0,0,1,.43-.1,1.05,1.05,0,0,1,.67.2,2,2,0,0,1,.58.67,2.26,2.26,0,0,1,.24.5,1.84,1.84,0,0,1,.06.47,1.25,1.25,0,0,1-.62,1,5,5,0,0,1-1.72.7A12.25,12.25,0,0,1,262.9,35.1Zm-2.67-7h3.95a1.16,1.16,0,0,0,.58-.13.58.58,0,0,0,.2-.51,1.08,1.08,0,0,0-.28-.73,1.65,1.65,0,0,0-.74-.5,2.94,2.94,0,0,0-1.08-.18,3.11,3.11,0,0,0-1.35.28,2.37,2.37,0,0,0-.94.75A1.68,1.68,0,0,0,260.23,28.13Z"/><path class="cls-3" d="M272.5,34.9a2.6,2.6,0,0,1-1.31-.25,1,1,0,0,1-.48-.67,4.94,4.94,0,0,1-.08-.87V24.89a4,4,0,0,1,.09-.87,1,1,0,0,1,.49-.65,3.76,3.76,0,0,1,2.59,0,1,1,0,0,1,.48.52,1.57,1.57,0,0,1,.1.51l-.3.14a2.46,2.46,0,0,1,.27-.34,3.06,3.06,0,0,1,.58-.52,3.76,3.76,0,0,1,.92-.46,3.83,3.83,0,0,1,1.23-.19,4.7,4.7,0,0,1,.62,0,3.94,3.94,0,0,1,.7.14,3.28,3.28,0,0,1,.66.28,1.74,1.74,0,0,1,.49.44,1.07,1.07,0,0,1,.18.63,2.81,2.81,0,0,1-.47,1.64,1.42,1.42,0,0,1-1.2.67,2,2,0,0,1-.6-.06,1.12,1.12,0,0,1-.29-.14,1.08,1.08,0,0,0-.26-.14,1.72,1.72,0,0,0-.55-.06,2.84,2.84,0,0,0-.72.09,2.09,2.09,0,0,0-.62.3,1.41,1.41,0,0,0-.45.49,1.35,1.35,0,0,0-.16.67v5.16a4.12,4.12,0,0,1-.09.86.93.93,0,0,1-.48.64A2.73,2.73,0,0,1,272.5,34.9Z"/><path class="cls-3" d="M287.7,35.09a6.67,6.67,0,0,1-2.34-.43,7.24,7.24,0,0,1-2.11-1.24,5.91,5.91,0,0,1-1.51-1.92,5.48,5.48,0,0,1-.56-2.48,5.54,5.54,0,0,1,.51-2.37,6.56,6.56,0,0,1,1.42-1.94,6.88,6.88,0,0,1,2.06-1.33,6.81,6.81,0,0,1,5.75.34,6.34,6.34,0,0,1,2.34,2.2,6,6,0,0,1,.31,5.63,6,6,0,0,1-1.51,1.92A6.37,6.37,0,0,1,290,34.68,6.55,6.55,0,0,1,287.7,35.09Zm-.05-3.55a3,3,0,0,0,1.23-.28,2.77,2.77,0,0,0,1.05-.85,2.33,2.33,0,0,0,.42-1.43,2.45,2.45,0,0,0-.34-1.32,2.52,2.52,0,0,0-1-.89,3,3,0,0,0-1.41-.31,2.68,2.68,0,0,0-1.34.32,2.76,2.76,0,0,0-1,.91,2.62,2.62,0,0,0,.05,2.73,2.52,2.52,0,0,0,1,.85A3,3,0,0,0,287.65,31.54Z"/><path class="cls-3" d="M305.31,24.86a2.07,2.07,0,0,1-1.3.58,1.94,1.94,0,0,1-1.25-.69,1.75,1.75,0,0,1-.63-1.3,2.07,2.07,0,0,1,.88-1.29l3.73-3.11a1.83,1.83,0,0,1,1.28-.54,2.05,2.05,0,0,1,1.24.73,1.6,1.6,0,0,1,.61,1.26,2.1,2.1,0,0,1-.89,1.28ZM308.45,35a2,2,0,0,1-1.44-.4,1.91,1.91,0,0,1-.41-1.39V20.23a1.88,1.88,0,0,1,.41-1.38,2.16,2.16,0,0,1,1.47-.39,2.07,2.07,0,0,1,1.46.41,1.93,1.93,0,0,1,.41,1.41V33.2a1.88,1.88,0,0,1-.41,1.38A2.19,2.19,0,0,1,308.45,35Z"/><path class="cls-3" d="M318.48,35.16a6.55,6.55,0,0,1-3.3-.79,5.18,5.18,0,0,1-2.11-2.3,8,8,0,0,1-.74-3.6,11.78,11.78,0,0,1,.45-3.34,9.91,9.91,0,0,1,1.29-2.77,8.44,8.44,0,0,1,2-2.1,9.11,9.11,0,0,1,2.66-1.34,10.27,10.27,0,0,1,3.2-.47,5,5,0,0,1,.89.08,1.07,1.07,0,0,1,.67.46,2.14,2.14,0,0,1,.26,1.25,2.23,2.23,0,0,1-.27,1.25,1.08,1.08,0,0,1-.71.45,4.76,4.76,0,0,1-.94.09,6.45,6.45,0,0,0-2.06.29,5.4,5.4,0,0,0-1.52.76,5.14,5.14,0,0,0-1,1,4.22,4.22,0,0,0-.59,1.06,2.59,2.59,0,0,0-.19.87l-.32-.07a1.13,1.13,0,0,1,.43-.42,3.39,3.39,0,0,1,.9-.39,4.36,4.36,0,0,1,1.17-.15,6.11,6.11,0,0,1,2.85.66,5.42,5.42,0,0,1,2,1.76,4.21,4.21,0,0,1,.75,2.43,5.06,5.06,0,0,1-.75,2.72,5.33,5.33,0,0,1-2.08,1.91A6.31,6.31,0,0,1,318.48,35.16Zm-.1-3.34a2.87,2.87,0,0,0,1.19-.22,1.49,1.49,0,0,0,.72-.63,2,2,0,0,0,.24-1,1.74,1.74,0,0,0-.24-.93,1.62,1.62,0,0,0-.7-.61,2.39,2.39,0,0,0-1.06-.23,3,3,0,0,0-1.2.23,1.83,1.83,0,0,0-.79.6,1.51,1.51,0,0,0-.26.87,2.15,2.15,0,0,0,.22,1,1.45,1.45,0,0,0,.69.65A2.71,2.71,0,0,0,318.38,31.82Z"/><path class="cls-2" d="M114.16,18.33a4.74,4.74,0,0,1,.79.07.92.92,0,0,1,.59.4,2,2,0,0,1,.22,1.09,1.89,1.89,0,0,1-.22,1.05.88.88,0,0,1-.6.4,4.11,4.11,0,0,1-.8.07h-4V33.06a3.89,3.89,0,0,1-.08.85,1,1,0,0,1-.48.65,2.7,2.7,0,0,1-1.34.24,2.57,2.57,0,0,1-1.27-.24,1,1,0,0,1-.49-.66,4,4,0,0,1-.09-.86V21.41h-4a3.94,3.94,0,0,1-.77-.08,1,1,0,0,1-.61-.41,1.8,1.8,0,0,1-.24-1.07,1.84,1.84,0,0,1,.24-1.06.94.94,0,0,1,.61-.4,4.9,4.9,0,0,1,.77-.07Z"/><path class="cls-2" d="M119.73,34.81a2.49,2.49,0,0,1-1.31-.25,1,1,0,0,1-.48-.67,4.14,4.14,0,0,1-.08-.87V24.81a3.88,3.88,0,0,1,.09-.87,1,1,0,0,1,.49-.65,2.53,2.53,0,0,1,1.32-.25,2.63,2.63,0,0,1,1.26.23,1,1,0,0,1,.49.51,1.57,1.57,0,0,1,.1.51l-.3.14a2.15,2.15,0,0,1,.26-.34,4,4,0,0,1,.59-.52,3.52,3.52,0,0,1,2.15-.64l.61,0a4.56,4.56,0,0,1,.7.14,2.71,2.71,0,0,1,.67.29,1.43,1.43,0,0,1,.48.43,1.05,1.05,0,0,1,.19.64,2.71,2.71,0,0,1-.48,1.63,1.4,1.4,0,0,1-1.2.67,2.11,2.11,0,0,1-.6-.06.74.74,0,0,1-.28-.14,1.71,1.71,0,0,0-.27-.14,1.68,1.68,0,0,0-.55-.06,2.39,2.39,0,0,0-.71.1,2.07,2.07,0,0,0-.62.29,1.31,1.31,0,0,0-.45.49,1.37,1.37,0,0,0-.17.68v5.15a4,4,0,0,1-.09.86,1,1,0,0,1-.49.65A2.8,2.8,0,0,1,119.73,34.81Z"/><path class="cls-2" d="M139.13,34.8a2.51,2.51,0,0,1-1.38-.31.81.81,0,0,1-.42-.75l.25-.4a2.59,2.59,0,0,1-.58.57,4.1,4.1,0,0,1-1.11.62,4.35,4.35,0,0,1-1.66.26,5.13,5.13,0,0,1-2.19-.47A6,6,0,0,1,130.2,33a6.8,6.8,0,0,1-1.27-1.9,5.48,5.48,0,0,1,0-4.44,6.6,6.6,0,0,1,1.29-1.86,6.48,6.48,0,0,1,1.84-1.28,5.21,5.21,0,0,1,2.18-.47,4.53,4.53,0,0,1,1.57.25,4.63,4.63,0,0,1,1.09.58,3.36,3.36,0,0,1,.66.63l-.22-.32a1,1,0,0,1,.43-.86,2.52,2.52,0,0,1,1.39-.3,2.44,2.44,0,0,1,1.29.26,1.06,1.06,0,0,1,.47.69,4.26,4.26,0,0,1,.09.89V33a4.94,4.94,0,0,1-.08.87,1,1,0,0,1-.48.67A2.49,2.49,0,0,1,139.13,34.8Zm-4.37-3.51A2.29,2.29,0,0,0,136,31a2.5,2.5,0,0,0,.85-.86,2.43,2.43,0,0,0,0-2.41,2.45,2.45,0,0,0-.88-.84,2.48,2.48,0,0,0-1.22-.3,2.5,2.5,0,0,0-1.26.31,2.48,2.48,0,0,0-.9.86,2.23,2.23,0,0,0-.34,1.23,2.14,2.14,0,0,0,.33,1.16,2.46,2.46,0,0,0,.93.85A2.68,2.68,0,0,0,134.76,31.29Z"/><path class="cls-2" d="M144.88,34.82a1.8,1.8,0,0,1-1.31-.5,1.66,1.66,0,0,1-.54-1.26,1.76,1.76,0,0,1,.14-.68,1.7,1.7,0,0,1,.41-.59l5.68-5.18h-3.8a4.46,4.46,0,0,1-.91-.09,1.26,1.26,0,0,1-.73-.46,2.07,2.07,0,0,1-.29-1.24,2.15,2.15,0,0,1,.29-1.24,1.17,1.17,0,0,1,.73-.44,4.47,4.47,0,0,1,.91-.08h7.83a1.85,1.85,0,0,1,1.32.5,1.59,1.59,0,0,1,.52,1.24,2,2,0,0,1-.13.72,1.31,1.31,0,0,1-.39.55l-5.55,5.2h4.52a4.59,4.59,0,0,1,.93.09,1.08,1.08,0,0,1,.68.47,2.22,2.22,0,0,1,.26,1.25,2.14,2.14,0,0,1-.27,1.22,1.08,1.08,0,0,1-.7.45,5.33,5.33,0,0,1-.93.07Z"/><path class="cls-2" d="M167.7,34.81a2.51,2.51,0,0,1-1.37-.3.87.87,0,0,1-.43-.76l.25-.4a2.72,2.72,0,0,1-.57.58,4.25,4.25,0,0,1-1.11.61,4.6,4.6,0,0,1-1.67.27,5.28,5.28,0,0,1-2.18-.47A5.84,5.84,0,0,1,158.78,33a6.68,6.68,0,0,1-1.27-1.89A5.4,5.4,0,0,1,157,28.9a5.22,5.22,0,0,1,.48-2.2,6.33,6.33,0,0,1,1.29-1.86,6.15,6.15,0,0,1,1.84-1.28,5.16,5.16,0,0,1,2.17-.47,4.37,4.37,0,0,1,1.58.25,4.54,4.54,0,0,1,1.08.57,3.38,3.38,0,0,1,.66.64l-.22-.33a1,1,0,0,1,.44-.86,2.59,2.59,0,0,1,1.39-.29,2.4,2.4,0,0,1,1.28.26,1.06,1.06,0,0,1,.48.68,4.31,4.31,0,0,1,.08.9V33a4.28,4.28,0,0,1-.09.87,1.06,1.06,0,0,1-.47.67A2.66,2.66,0,0,1,167.7,34.81Zm-4.37-3.51a2.28,2.28,0,0,0,1.2-.31,2.42,2.42,0,0,0,.85-.86,2.26,2.26,0,0,0,.33-1.2,2.32,2.32,0,0,0-1.2-2.05,2.54,2.54,0,0,0-3.39.87,2.22,2.22,0,0,0-.34,1.22,2.1,2.1,0,0,0,.34,1.17A2.52,2.52,0,0,0,162,31,2.67,2.67,0,0,0,163.33,31.3Z"/><path class="cls-2" d="M184.8,35.06a7.64,7.64,0,0,1-3-.54,5.92,5.92,0,0,1-2.06-1.43,6.22,6.22,0,0,1-1.6-4.13,5.85,5.85,0,0,1,.85-3.13,6,6,0,0,1,2.37-2.15,7.32,7.32,0,0,1,3.46-.79,6.59,6.59,0,0,1,2.51.44,5.09,5.09,0,0,1,1.75,1.13,4.81,4.81,0,0,1,1,1.49,4.06,4.06,0,0,1,.33,1.53,2.55,2.55,0,0,1-.66,1.93,2.32,2.32,0,0,1-1.69.64h-6a1.63,1.63,0,0,0,.46,1,2.9,2.9,0,0,0,1,.66A3.91,3.91,0,0,0,185,32a8.05,8.05,0,0,0,1-.06,4.56,4.56,0,0,0,.79-.16l.59-.21.49-.18a1.76,1.76,0,0,1,.42-.09,1,1,0,0,1,.68.2,2,2,0,0,1,.57.67,1.84,1.84,0,0,1,.24.49,2,2,0,0,1,.06.47,1.26,1.26,0,0,1-.61,1,4.94,4.94,0,0,1-1.73.69A12.19,12.19,0,0,1,184.8,35.06Zm-2.67-7h4a1.06,1.06,0,0,0,.58-.13.55.55,0,0,0,.2-.5,1.08,1.08,0,0,0-.28-.73,1.78,1.78,0,0,0-.73-.51,3,3,0,0,0-1.09-.18,3.11,3.11,0,0,0-1.35.29,2.28,2.28,0,0,0-.94.75A1.73,1.73,0,0,0,182.13,28.09Z"/><path class="cls-2" d="M197.33,34.85a16.58,16.58,0,0,1-1.83-.09,3.91,3.91,0,0,1-1.35-.38,2.53,2.53,0,0,1-.9-.79,3.55,3.55,0,0,1-.52-1.29,9,9,0,0,1-.18-1.94V19.48a3.46,3.46,0,0,1,.1-.87,1.1,1.1,0,0,1,.49-.66,2.5,2.5,0,0,1,1.31-.26,2.44,2.44,0,0,1,1.29.26,1.16,1.16,0,0,1,.49.66,4,4,0,0,1,.1.87V30.19a3.77,3.77,0,0,0,0,.63.76.76,0,0,0,.15.39.54.54,0,0,0,.31.18,1.9,1.9,0,0,0,.52.05,2.68,2.68,0,0,1,.62.07.87.87,0,0,1,.53.43,2.24,2.24,0,0,1,.23,1.17,2.5,2.5,0,0,1-.23,1.23.85.85,0,0,1-.53.44A2.79,2.79,0,0,1,197.33,34.85Z"/><path class="cls-2" d="M209,34.84a2.62,2.62,0,0,1-1.31-.25,1,1,0,0,1-.48-.66,4.74,4.74,0,0,1-.08-.86V24.79a3.73,3.73,0,0,1,.09-.84.94.94,0,0,1,.49-.62,2.71,2.71,0,0,1,1.32-.24,2.66,2.66,0,0,1,1.18.2,1,1,0,0,1,.49.49,1.48,1.48,0,0,1,.11.53.73.73,0,0,0,.05.34l-.15.44a1.3,1.3,0,0,1,.39-.71,3.05,3.05,0,0,1,.85-.66,4.48,4.48,0,0,1,1.1-.46,3.91,3.91,0,0,1,1.16-.16,5.2,5.2,0,0,1,2.14.41,4.21,4.21,0,0,1,1.58,1.19,5.17,5.17,0,0,1,1,1.82,7.65,7.65,0,0,1,.34,2.3V33.1a4,4,0,0,1-.09.86,1,1,0,0,1-.47.65,2.87,2.87,0,0,1-1.34.23,2.53,2.53,0,0,1-1.32-.25,1,1,0,0,1-.49-.66,4,4,0,0,1-.09-.85V28.82a2.49,2.49,0,0,0-.27-1.21,1.75,1.75,0,0,0-.75-.75,2.55,2.55,0,0,0-1.21-.26,2.71,2.71,0,0,0-1.25.27,1.94,1.94,0,0,0-.81.77,2.31,2.31,0,0,0-.29,1.17V33.1a4.12,4.12,0,0,1-.09.86,1,1,0,0,1-.48.64A2.59,2.59,0,0,1,209,34.84Z"/><path class="cls-2" d="M227,34.85a5.36,5.36,0,0,1-5.09-3.43,6.31,6.31,0,0,1-.41-2.3V24.86a4,4,0,0,1,.09-.87,1.08,1.08,0,0,1,.49-.66,2.58,2.58,0,0,1,1.32-.25,2.42,2.42,0,0,1,1.32.26,1,1,0,0,1,.47.67,4.1,4.1,0,0,1,.09.88v4.24a2.52,2.52,0,0,0,.27,1.19,1.72,1.72,0,0,0,.77.76,2.7,2.7,0,0,0,1.21.26,2.61,2.61,0,0,0,1.24-.27,2,2,0,0,0,.8-.76,2.34,2.34,0,0,0,.29-1.18V24.85A4,4,0,0,1,230,24a1,1,0,0,1,.49-.64,2.58,2.58,0,0,1,1.32-.25,2.52,2.52,0,0,1,1.32.26,1.09,1.09,0,0,1,.47.67,4,4,0,0,1,.09.86v8.29a3.7,3.7,0,0,1-.09.83,1,1,0,0,1-.48.63,2.79,2.79,0,0,1-1.3.23,3.2,3.2,0,0,1-1.05-.14,1.23,1.23,0,0,1-.55-.36.85.85,0,0,1-.21-.44,2.29,2.29,0,0,1,0-.43l.32-.25a3.29,3.29,0,0,1-.32.36,6.46,6.46,0,0,1-.67.54,4,4,0,0,1-1,.51A3.52,3.52,0,0,1,227,34.85Zm-.4-12.6a.83.83,0,0,1-.73-.23,2.45,2.45,0,0,1-.51-.94,1.77,1.77,0,0,1-.1-1.23,1.39,1.39,0,0,1,.92-.63l4.4-1.27a.89.89,0,0,1,.73.27,2.36,2.36,0,0,1,.5.93,1.66,1.66,0,0,1,.08,1.2A1.32,1.32,0,0,1,231,21Z"/><path class="cls-2" d="M238,34.88a2.48,2.48,0,0,1-1.3-.26,1,1,0,0,1-.48-.66,4.79,4.79,0,0,1-.07-.87V24.85a3.89,3.89,0,0,1,.09-.85,1,1,0,0,1,.49-.65,2.71,2.71,0,0,1,1.32-.24,2.12,2.12,0,0,1,1.35.34,1.34,1.34,0,0,1,.43,1.12l-.33.26a2.62,2.62,0,0,1,.3-.4,4.83,4.83,0,0,1,.65-.59,4.43,4.43,0,0,1,.94-.53,3,3,0,0,1,1.16-.22,4.62,4.62,0,0,1,1.49.22,3.91,3.91,0,0,1,1.2.66,4.24,4.24,0,0,1,.94,1.1,6,6,0,0,1,.85-.92,4.35,4.35,0,0,1,1.17-.75,3.58,3.58,0,0,1,1.53-.31,4,4,0,0,1,4,2.69,8.29,8.29,0,0,1,.53,3.13v4.21a3.44,3.44,0,0,1-.1.86,1.06,1.06,0,0,1-.49.66,2.57,2.57,0,0,1-1.31.25,2.65,2.65,0,0,1-1.32-.26,1,1,0,0,1-.48-.68,4.72,4.72,0,0,1-.07-.85V28.88a3.38,3.38,0,0,0-.19-1.21,1.67,1.67,0,0,0-.53-.78,1.46,1.46,0,0,0-.9-.27,1.79,1.79,0,0,0-1,.26,1.62,1.62,0,0,0-.6.75,3.52,3.52,0,0,0-.2,1.27v4.22A2.8,2.8,0,0,1,247,34a1.15,1.15,0,0,1-.54.66,2.57,2.57,0,0,1-1.33.22,2.18,2.18,0,0,1-1.25-.27,1.06,1.06,0,0,1-.45-.68,4.78,4.78,0,0,1-.08-.84V28.88a3.8,3.8,0,0,0-.18-1.23,1.57,1.57,0,0,0-.52-.77,1.49,1.49,0,0,0-.93-.26,1.63,1.63,0,0,0-1,.3,1.78,1.78,0,0,0-.59.81,3.19,3.19,0,0,0-.19,1.15v4.23a3.88,3.88,0,0,1-.09.87,1,1,0,0,1-.49.65A2.56,2.56,0,0,1,238,34.88Z"/><path class="cls-2" d="M262.9,35.1a7.64,7.64,0,0,1-3-.54,5.79,5.79,0,0,1-2.06-1.43,5.86,5.86,0,0,1-1.2-2,6.12,6.12,0,0,1-.4-2.17,5.78,5.78,0,0,1,.85-3.13,6,6,0,0,1,2.37-2.15,7.42,7.42,0,0,1,3.46-.79,6.59,6.59,0,0,1,2.51.44,5.24,5.24,0,0,1,1.75,1.13,4.85,4.85,0,0,1,1,1.5,4,4,0,0,1,.33,1.53,2.58,2.58,0,0,1-.66,1.93,2.36,2.36,0,0,1-1.69.63h-5.95a1.6,1.6,0,0,0,.46,1,2.9,2.9,0,0,0,1,.66,3.68,3.68,0,0,0,1.32.24,8.1,8.1,0,0,0,1-.06,4.49,4.49,0,0,0,.79-.17l.59-.21a4,4,0,0,1,.48-.17,2.63,2.63,0,0,1,.43-.1,1.05,1.05,0,0,1,.67.2,2,2,0,0,1,.58.67,2.26,2.26,0,0,1,.24.5,1.84,1.84,0,0,1,.06.47,1.25,1.25,0,0,1-.62,1,5,5,0,0,1-1.72.7A12.25,12.25,0,0,1,262.9,35.1Zm-2.67-7h3.95a1.16,1.16,0,0,0,.58-.13.58.58,0,0,0,.2-.51,1.08,1.08,0,0,0-.28-.73,1.65,1.65,0,0,0-.74-.5,2.94,2.94,0,0,0-1.08-.18,3.11,3.11,0,0,0-1.35.28,2.37,2.37,0,0,0-.94.75A1.68,1.68,0,0,0,260.23,28.13Z"/><path class="cls-2" d="M272.5,34.9a2.6,2.6,0,0,1-1.31-.25,1,1,0,0,1-.48-.67,4.94,4.94,0,0,1-.08-.87V24.89a4,4,0,0,1,.09-.87,1,1,0,0,1,.49-.65,3.76,3.76,0,0,1,2.59,0,1,1,0,0,1,.48.52,1.57,1.57,0,0,1,.1.51l-.3.14a2.46,2.46,0,0,1,.27-.34,3.06,3.06,0,0,1,.58-.52,3.76,3.76,0,0,1,.92-.46,3.83,3.83,0,0,1,1.23-.19,4.7,4.7,0,0,1,.62,0,3.94,3.94,0,0,1,.7.14,3.28,3.28,0,0,1,.66.28,1.74,1.74,0,0,1,.49.44,1.07,1.07,0,0,1,.18.63,2.81,2.81,0,0,1-.47,1.64,1.42,1.42,0,0,1-1.2.67,2,2,0,0,1-.6-.06,1.12,1.12,0,0,1-.29-.14,1.08,1.08,0,0,0-.26-.14,1.72,1.72,0,0,0-.55-.06,2.84,2.84,0,0,0-.72.09,2.09,2.09,0,0,0-.62.3,1.41,1.41,0,0,0-.45.49,1.35,1.35,0,0,0-.16.67v5.16a4.12,4.12,0,0,1-.09.86.93.93,0,0,1-.48.64A2.73,2.73,0,0,1,272.5,34.9Z"/><path class="cls-2" d="M287.7,35.09a6.67,6.67,0,0,1-2.34-.43,7.24,7.24,0,0,1-2.11-1.24,5.91,5.91,0,0,1-1.51-1.92,5.48,5.48,0,0,1-.56-2.48,5.54,5.54,0,0,1,.51-2.37,6.56,6.56,0,0,1,1.42-1.94,6.88,6.88,0,0,1,2.06-1.33,6.81,6.81,0,0,1,5.75.34,6.34,6.34,0,0,1,2.34,2.2,6,6,0,0,1,.31,5.63,6,6,0,0,1-1.51,1.92A6.37,6.37,0,0,1,290,34.68,6.55,6.55,0,0,1,287.7,35.09Zm-.05-3.55a3,3,0,0,0,1.23-.28,2.77,2.77,0,0,0,1.05-.85,2.33,2.33,0,0,0,.42-1.43,2.45,2.45,0,0,0-.34-1.32,2.52,2.52,0,0,0-1-.89,3,3,0,0,0-1.41-.31,2.68,2.68,0,0,0-1.34.32,2.76,2.76,0,0,0-1,.91,2.62,2.62,0,0,0,.05,2.73,2.52,2.52,0,0,0,1,.85A3,3,0,0,0,287.65,31.54Z"/><path class="cls-2" d="M305.31,24.86a2.07,2.07,0,0,1-1.3.58,1.94,1.94,0,0,1-1.25-.69,1.75,1.75,0,0,1-.63-1.3,2.07,2.07,0,0,1,.88-1.29l3.73-3.11a1.83,1.83,0,0,1,1.28-.54,2.05,2.05,0,0,1,1.24.73,1.6,1.6,0,0,1,.61,1.26,2.1,2.1,0,0,1-.89,1.28ZM308.45,35a2,2,0,0,1-1.44-.4,1.91,1.91,0,0,1-.41-1.39V20.23a1.88,1.88,0,0,1,.41-1.38,2.16,2.16,0,0,1,1.47-.39,2.07,2.07,0,0,1,1.46.41,1.93,1.93,0,0,1,.41,1.41V33.2a1.88,1.88,0,0,1-.41,1.38A2.19,2.19,0,0,1,308.45,35Z"/><path class="cls-2" d="M318.48,35.16a6.55,6.55,0,0,1-3.3-.79,5.18,5.18,0,0,1-2.11-2.3,8,8,0,0,1-.74-3.6,11.78,11.78,0,0,1,.45-3.34,9.91,9.91,0,0,1,1.29-2.77,8.44,8.44,0,0,1,2-2.1,9.11,9.11,0,0,1,2.66-1.34,10.27,10.27,0,0,1,3.2-.47,5,5,0,0,1,.89.08,1.07,1.07,0,0,1,.67.46,2.14,2.14,0,0,1,.26,1.25,2.23,2.23,0,0,1-.27,1.25,1.08,1.08,0,0,1-.71.45,4.76,4.76,0,0,1-.94.09,6.45,6.45,0,0,0-2.06.29,5.4,5.4,0,0,0-1.52.76,5.14,5.14,0,0,0-1,1,4.22,4.22,0,0,0-.59,1.06,2.59,2.59,0,0,0-.19.87l-.32-.07a1.13,1.13,0,0,1,.43-.42,3.39,3.39,0,0,1,.9-.39,4.36,4.36,0,0,1,1.17-.15,6.11,6.11,0,0,1,2.85.66,5.42,5.42,0,0,1,2,1.76,4.21,4.21,0,0,1,.75,2.43,5.06,5.06,0,0,1-.75,2.72,5.33,5.33,0,0,1-2.08,1.91A6.31,6.31,0,0,1,318.48,35.16Zm-.1-3.34a2.87,2.87,0,0,0,1.19-.22,1.49,1.49,0,0,0,.72-.63,2,2,0,0,0,.24-1,1.74,1.74,0,0,0-.24-.93,1.62,1.62,0,0,0-.7-.61,2.39,2.39,0,0,0-1.06-.23,3,3,0,0,0-1.2.23,1.83,1.83,0,0,0-.79.6,1.51,1.51,0,0,0-.26.87,2.15,2.15,0,0,0,.22,1,1.45,1.45,0,0,0,.69.65A2.71,2.71,0,0,0,318.38,31.82Z"/><text class="cls-4" transform="matrix(1.03, 0, 0, 1, 40.3, 41.44)">16</text><text class="cls-5" transform="matrix(1.03, 0, 0, 1, 40.3, 41.44)">16</text></g></g></svg>