<svg xmlns="http://www.w3.org/2000/svg" viewBox="0 0 399.98 91.27"><defs><style>.cls-1{fill:#512573;}.cls-2{fill:#fff;}.cls-3,.cls-4{fill:none;stroke-width:5px;}.cls-3{stroke:#ff7300;stroke-linejoin:round;}.cls-4,.cls-5{font-size:42px;font-family:Coiny-Regular, Coiny;}.cls-4{stroke:#fff;}.cls-5{fill:#ff7300;}</style></defs><title>28tv</title><g id="Layer_2" data-name="Layer 2"><g id="pestaña_identificativa" data-name="pestaña identificativa"><rect class="cls-1" width="399.98" height="91.27" rx="32.4"/><path class="cls-2" d="M114.17,17.34a3.81,3.81,0,0,1,.78.08.92.92,0,0,1,.59.42,2.24,2.24,0,0,1,.22,1.15,2.16,2.16,0,0,1-.22,1.13.91.91,0,0,1-.6.42,4.09,4.09,0,0,1-.8.08h-4V33a4.29,4.29,0,0,1-.09.9,1.1,1.1,0,0,1-.48.69,2.54,2.54,0,0,1-1.33.26,2.45,2.45,0,0,1-1.28-.26,1.08,1.08,0,0,1-.49-.7,4.63,4.63,0,0,1-.08-.92V20.61h-4a3.31,3.31,0,0,1-.77-.09,1,1,0,0,1-.61-.42,2.06,2.06,0,0,1-.24-1.14,2,2,0,0,1,.24-1.12.93.93,0,0,1,.61-.43,4,4,0,0,1,.78-.07Z"/><path class="cls-2" d="M119.73,34.85a2.37,2.37,0,0,1-1.31-.27,1.07,1.07,0,0,1-.48-.71,4.7,4.7,0,0,1-.08-.92V24.22a4.59,4.59,0,0,1,.09-.93,1,1,0,0,1,.49-.68,2.45,2.45,0,0,1,1.32-.26,2.6,2.6,0,0,1,1.26.23,1.07,1.07,0,0,1,.49.56,1.63,1.63,0,0,1,.1.53l-.3.15a3.22,3.22,0,0,1,.26-.36,4,4,0,0,1,.59-.55,3.9,3.9,0,0,1,.91-.49,3.62,3.62,0,0,1,1.24-.2c.19,0,.39,0,.62,0a4.77,4.77,0,0,1,.69.15,3.16,3.16,0,0,1,.67.3,1.54,1.54,0,0,1,.48.47,1.11,1.11,0,0,1,.19.67,3.14,3.14,0,0,1-.47,1.74,1.42,1.42,0,0,1-1.21.71,2.11,2.11,0,0,1-.6-.06.92.92,0,0,1-.28-.15,1,1,0,0,0-.27-.15,1.54,1.54,0,0,0-.54-.07,2.84,2.84,0,0,0-.72.1,1.93,1.93,0,0,0-.62.32,1.5,1.5,0,0,0-.45.52,1.52,1.52,0,0,0-.17.71V33a4.53,4.53,0,0,1-.09.91,1,1,0,0,1-.49.69A2.64,2.64,0,0,1,119.73,34.85Z"/><path class="cls-2" d="M139.13,34.83a2.36,2.36,0,0,1-1.37-.32.88.88,0,0,1-.43-.8l.25-.43a2.72,2.72,0,0,1-.57.61,4.08,4.08,0,0,1-1.12.65,4.33,4.33,0,0,1-1.66.29,5,5,0,0,1-2.19-.5,5.85,5.85,0,0,1-1.83-1.39,7,7,0,0,1-1.28-2,6.16,6.16,0,0,1-.47-2.38,6,6,0,0,1,.47-2.34,6.72,6.72,0,0,1,1.29-2,6.37,6.37,0,0,1,1.84-1.36,5,5,0,0,1,2.18-.5,4.3,4.3,0,0,1,1.57.26,4.16,4.16,0,0,1,1.09.62,3.43,3.43,0,0,1,.66.67l-.22-.35a1,1,0,0,1,.43-.91,2.44,2.44,0,0,1,1.39-.31,2.34,2.34,0,0,1,1.29.27,1.11,1.11,0,0,1,.47.73,4.86,4.86,0,0,1,.09.95v8.62a4.73,4.73,0,0,1-.09.93,1.07,1.07,0,0,1-.48.71A2.38,2.38,0,0,1,139.13,34.83Zm-4.37-3.72a2.21,2.21,0,0,0,1.2-.34,2.56,2.56,0,0,0,1.17-2.19,2.62,2.62,0,0,0-.32-1.29,2.4,2.4,0,0,0-.88-.88,2.3,2.3,0,0,0-1.22-.33,2.33,2.33,0,0,0-1.26.34,2.53,2.53,0,0,0-1.24,2.21,2.34,2.34,0,0,0,.34,1.24,2.56,2.56,0,0,0,.92.9A2.59,2.59,0,0,0,134.76,31.11Z"/><path class="cls-2" d="M144.88,34.86a1.77,1.77,0,0,1-1.31-.54A1.8,1.8,0,0,1,143,33a2,2,0,0,1,.14-.73,1.81,1.81,0,0,1,.41-.62l5.68-5.5h-3.8a4.45,4.45,0,0,1-.91-.1,1.25,1.25,0,0,1-.73-.49,2.22,2.22,0,0,1-.28-1.31,2.31,2.31,0,0,1,.28-1.32,1.21,1.21,0,0,1,.73-.47,4.46,4.46,0,0,1,.91-.09h7.83a1.8,1.8,0,0,1,1.85,1.85A2.18,2.18,0,0,1,155,25a1.45,1.45,0,0,1-.39.59l-5.55,5.52h4.52a4.57,4.57,0,0,1,.93.1,1.13,1.13,0,0,1,.68.5,2.47,2.47,0,0,1,.27,1.33,2.48,2.48,0,0,1-.28,1.3,1.07,1.07,0,0,1-.7.47,5.28,5.28,0,0,1-.93.08Z"/><path class="cls-2" d="M167.7,34.85a2.33,2.33,0,0,1-1.37-.33.91.91,0,0,1-.43-.8l.26-.42a2.82,2.82,0,0,1-.58.61,4.11,4.11,0,0,1-1.11.65,4.38,4.38,0,0,1-1.67.29,5,5,0,0,1-2.18-.5A6,6,0,0,1,158.78,33a7,7,0,0,1-1.27-2,6,6,0,0,1-.48-2.37,5.83,5.83,0,0,1,.48-2.34,6.72,6.72,0,0,1,1.29-2,6.07,6.07,0,0,1,1.84-1.36,4.77,4.77,0,0,1,2.17-.5,4.35,4.35,0,0,1,1.58.26,4.57,4.57,0,0,1,1.08.61,3.53,3.53,0,0,1,.67.68l-.23-.35a1.05,1.05,0,0,1,.44-.91,2.4,2.4,0,0,1,1.39-.31,2.3,2.3,0,0,1,1.28.27,1.14,1.14,0,0,1,.48.73,4.79,4.79,0,0,1,.09.95V33a4.73,4.73,0,0,1-.09.93,1.12,1.12,0,0,1-.47.71A2.52,2.52,0,0,1,167.7,34.85Zm-4.37-3.73a2.21,2.21,0,0,0,1.2-.33,2.51,2.51,0,0,0,.85-.92,2.48,2.48,0,0,0,.33-1.27,2.53,2.53,0,0,0-.33-1.29,2.4,2.4,0,0,0-.87-.89,2.55,2.55,0,0,0-2.49,0,2.64,2.64,0,0,0-.9.92,2.54,2.54,0,0,0-.34,1.3,2.28,2.28,0,0,0,.34,1.23,2.41,2.41,0,0,0,.92.9A2.51,2.51,0,0,0,163.33,31.12Z"/><path class="cls-2" d="M184.8,35.11a7.12,7.12,0,0,1-3-.58A5.72,5.72,0,0,1,179.73,33a6.61,6.61,0,0,1-1.2-2.09,6.83,6.83,0,0,1-.4-2.3,6.48,6.48,0,0,1,.85-3.32A6.14,6.14,0,0,1,181.35,23a6.9,6.9,0,0,1,3.46-.83,6.22,6.22,0,0,1,2.51.46,5.23,5.23,0,0,1,1.75,1.2,5.1,5.1,0,0,1,1,1.59,4.5,4.5,0,0,1,.33,1.62,2.82,2.82,0,0,1-.66,2.05,2.28,2.28,0,0,1-1.69.68h-6a1.82,1.82,0,0,0,.46,1.08,2.85,2.85,0,0,0,1,.7,3.5,3.5,0,0,0,1.33.25,8.05,8.05,0,0,0,1-.06,3.7,3.7,0,0,0,.79-.18c.22-.07.41-.15.59-.22a4.44,4.44,0,0,1,.49-.19,2.53,2.53,0,0,1,.42-.1,1.06,1.06,0,0,1,.68.22,2,2,0,0,1,.57.71,1.71,1.71,0,0,1,.24.52,2.2,2.2,0,0,1,.06.5,1.34,1.34,0,0,1-.61,1.09,4.91,4.91,0,0,1-1.73.74A11.56,11.56,0,0,1,184.8,35.11Zm-2.67-7.4h4a1,1,0,0,0,.58-.14.61.61,0,0,0,.2-.53,1.21,1.21,0,0,0-.28-.78,1.77,1.77,0,0,0-.73-.54,3.33,3.33,0,0,0-2.44.11,2.47,2.47,0,0,0-.94.8A2,2,0,0,0,182.13,27.71Z"/><path class="cls-2" d="M197.33,34.89a14.41,14.41,0,0,1-1.83-.1,3.9,3.9,0,0,1-1.35-.4,2.58,2.58,0,0,1-.9-.84,4.13,4.13,0,0,1-.52-1.37,10.11,10.11,0,0,1-.17-2.06V18.56a4.4,4.4,0,0,1,.1-.92,1.18,1.18,0,0,1,.49-.7,2.39,2.39,0,0,1,1.31-.27,2.34,2.34,0,0,1,1.29.27,1.21,1.21,0,0,1,.49.7,3.9,3.9,0,0,1,.1.93V29.94a4.22,4.22,0,0,0,0,.67.8.8,0,0,0,.15.41.56.56,0,0,0,.31.2,2.44,2.44,0,0,0,.53.05,2.6,2.6,0,0,1,.61.07.89.89,0,0,1,.54.45,2.58,2.58,0,0,1,.22,1.25,2.76,2.76,0,0,1-.23,1.3.87.87,0,0,1-.53.48A2.73,2.73,0,0,1,197.33,34.89Z"/><path class="cls-2" d="M209,34.88a2.49,2.49,0,0,1-1.31-.27,1,1,0,0,1-.47-.7,4.46,4.46,0,0,1-.09-.91V24.2a4.21,4.21,0,0,1,.08-.89,1,1,0,0,1,.49-.66A2.6,2.6,0,0,1,209,22.4a2.49,2.49,0,0,1,1.17.21,1.06,1.06,0,0,1,.49.52,1.68,1.68,0,0,1,.11.56,1,1,0,0,0,.05.36l-.15.48a1.45,1.45,0,0,1,.39-.77,3.78,3.78,0,0,1,.85-.7,4.7,4.7,0,0,1,1.1-.48,4,4,0,0,1,1.16-.18,5.05,5.05,0,0,1,2.14.44,4.32,4.32,0,0,1,1.58,1.27,5.6,5.6,0,0,1,1,1.93,8.27,8.27,0,0,1,.34,2.44V33a4.47,4.47,0,0,1-.08.91,1,1,0,0,1-.48.69,3.6,3.6,0,0,1-2.66,0,1.08,1.08,0,0,1-.49-.7,4.56,4.56,0,0,1-.09-.92V28.48a2.92,2.92,0,0,0-.26-1.28,1.93,1.93,0,0,0-.75-.8,2.5,2.5,0,0,0-1.22-.27,2.59,2.59,0,0,0-1.25.28,2.06,2.06,0,0,0-.81.82,2.57,2.57,0,0,0-.29,1.25V33a4.53,4.53,0,0,1-.09.91,1.08,1.08,0,0,1-.47.69A2.64,2.64,0,0,1,209,34.88Z"/><path class="cls-2" d="M227,34.89a5.26,5.26,0,0,1-2.18-.46,5.43,5.43,0,0,1-1.75-1.26,5.8,5.8,0,0,1-1.16-1.92,7.14,7.14,0,0,1-.41-2.44V24.28a4.42,4.42,0,0,1,.09-.92,1.08,1.08,0,0,1,.49-.7,2.44,2.44,0,0,1,1.32-.28,2.4,2.4,0,0,1,1.32.28,1.1,1.1,0,0,1,.47.71,4.69,4.69,0,0,1,.09.94v4.5a2.78,2.78,0,0,0,.26,1.26,1.8,1.8,0,0,0,.77.82,2.57,2.57,0,0,0,1.21.27,2.4,2.4,0,0,0,1.24-.29,2,2,0,0,0,.8-.81,2.57,2.57,0,0,0,.29-1.25V24.26a4.42,4.42,0,0,1,.09-.92,1.06,1.06,0,0,1,.49-.69,2.59,2.59,0,0,1,1.33-.26,2.39,2.39,0,0,1,1.31.27,1.15,1.15,0,0,1,.47.72,4.46,4.46,0,0,1,.09.91v8.8a5,5,0,0,1-.08.89,1.06,1.06,0,0,1-.49.66,2.52,2.52,0,0,1-1.3.25,2.92,2.92,0,0,1-1.05-.15,1.25,1.25,0,0,1-.55-.38.94.94,0,0,1-.21-.47,2.57,2.57,0,0,1,0-.45l.32-.28a2.39,2.39,0,0,1-.32.39,5,5,0,0,1-.66.57,4.28,4.28,0,0,1-1,.54A3.31,3.31,0,0,1,227,34.89Zm-.39-13.38a.85.85,0,0,1-.74-.25,2.63,2.63,0,0,1-.51-1,2,2,0,0,1-.1-1.3,1.35,1.35,0,0,1,.92-.67l4.4-1.35a.88.88,0,0,1,.73.29,2.4,2.4,0,0,1,.5,1,2,2,0,0,1,.09,1.28,1.34,1.34,0,0,1-.92.67Z"/><path class="cls-2" d="M238,34.92a2.28,2.28,0,0,1-1.3-.28,1,1,0,0,1-.48-.7,5.29,5.29,0,0,1-.07-.92V24.27a4.29,4.29,0,0,1,.09-.9,1,1,0,0,1,.49-.69,2.49,2.49,0,0,1,1.33-.26,2.09,2.09,0,0,1,1.35.36,1.5,1.5,0,0,1,.42,1.19l-.33.27a3,3,0,0,1,.3-.42,5.64,5.64,0,0,1,.65-.63,4.49,4.49,0,0,1,.94-.56,2.84,2.84,0,0,1,1.17-.23,4.55,4.55,0,0,1,1.48.23,4,4,0,0,1,1.2.7,4.43,4.43,0,0,1,.94,1.17,6.34,6.34,0,0,1,.85-1,4.93,4.93,0,0,1,1.17-.8,3.61,3.61,0,0,1,1.53-.32,4.15,4.15,0,0,1,2.49.74,4.56,4.56,0,0,1,1.53,2.11,9.38,9.38,0,0,1,.53,3.33v4.47a3.85,3.85,0,0,1-.1.91,1.09,1.09,0,0,1-.48.7,3.31,3.31,0,0,1-2.64,0,1,1,0,0,1-.48-.71,5.45,5.45,0,0,1-.07-.92V28.55a4.1,4.1,0,0,0-.18-1.29,1.84,1.84,0,0,0-.54-.82,1.41,1.41,0,0,0-.9-.29,1.71,1.71,0,0,0-1,.27,1.77,1.77,0,0,0-.6.8,3.92,3.92,0,0,0-.2,1.35v4.48A3.24,3.24,0,0,1,247,34a1.17,1.17,0,0,1-.53.69,2.41,2.41,0,0,1-1.34.24,2.09,2.09,0,0,1-1.25-.29,1.12,1.12,0,0,1-.45-.72,5.26,5.26,0,0,1-.08-.89V28.55a4.16,4.16,0,0,0-.18-1.3,1.61,1.61,0,0,0-.52-.83,1.71,1.71,0,0,0-2,0,1.9,1.9,0,0,0-.59.86,3.53,3.53,0,0,0-.19,1.21V33a4.45,4.45,0,0,1-.09.93,1.08,1.08,0,0,1-.49.69A2.54,2.54,0,0,1,238,34.92Z"/><path class="cls-2" d="M262.9,35.16a7.28,7.28,0,0,1-3-.58,5.84,5.84,0,0,1-2.06-1.51,6.61,6.61,0,0,1-1.2-2.09,6.92,6.92,0,0,1-.4-2.3,6.45,6.45,0,0,1,.85-3.33,6.19,6.19,0,0,1,2.37-2.28,7,7,0,0,1,3.46-.84,6.21,6.21,0,0,1,2.51.47,5.12,5.12,0,0,1,2.78,2.79,4.42,4.42,0,0,1,.33,1.62,2.82,2.82,0,0,1-.66,2.05,2.27,2.27,0,0,1-1.69.67h-5.95a1.77,1.77,0,0,0,.46,1.08,2.85,2.85,0,0,0,1,.7,3.68,3.68,0,0,0,1.32.25,8.1,8.1,0,0,0,1-.06,4.43,4.43,0,0,0,.79-.18c.22-.07.41-.15.59-.22a4.32,4.32,0,0,1,.48-.19,2.63,2.63,0,0,1,.43-.1,1,1,0,0,1,.67.21,2.06,2.06,0,0,1,.58.72,1.85,1.85,0,0,1,.24.52,2.14,2.14,0,0,1,.06.5,1.36,1.36,0,0,1-.61,1.09,4.74,4.74,0,0,1-1.73.73A11,11,0,0,1,262.9,35.16Zm-2.67-7.4h3.95a1.06,1.06,0,0,0,.58-.14.62.62,0,0,0,.2-.54,1.18,1.18,0,0,0-.28-.77,1.75,1.75,0,0,0-.73-.54,3,3,0,0,0-1.09-.19,3,3,0,0,0-1.35.3,2.39,2.39,0,0,0-.94.8A1.84,1.84,0,0,0,260.23,27.76Z"/><path class="cls-2" d="M272.5,34.94a2.39,2.39,0,0,1-1.31-.27,1,1,0,0,1-.47-.71,4.7,4.7,0,0,1-.09-.92V24.31a4.42,4.42,0,0,1,.09-.92,1,1,0,0,1,.49-.69,2.47,2.47,0,0,1,1.32-.26,2.52,2.52,0,0,1,1.27.24,1,1,0,0,1,.48.55,1.68,1.68,0,0,1,.1.53l-.3.15a3.91,3.91,0,0,1,.27-.36,3.47,3.47,0,0,1,.58-.55,3.79,3.79,0,0,1,.92-.49,3.63,3.63,0,0,1,1.24-.19l.61,0a4.89,4.89,0,0,1,.7.15,3.32,3.32,0,0,1,.66.3,1.69,1.69,0,0,1,.49.47,1.2,1.2,0,0,1,.18.67,3.12,3.12,0,0,1-.47,1.74,1.42,1.42,0,0,1-1.2.71,2,2,0,0,1-.6-.06,1,1,0,0,1-.29-.15,1.1,1.1,0,0,0-.26-.15,1.72,1.72,0,0,0-.55-.06,2.71,2.71,0,0,0-.71.09,2.08,2.08,0,0,0-.63.32,1.45,1.45,0,0,0-.61,1.23v5.48a5.31,5.31,0,0,1-.08.91,1.07,1.07,0,0,1-.49.69A2.6,2.6,0,0,1,272.5,34.94Z"/><path class="cls-2" d="M287.7,35.15a6.3,6.3,0,0,1-2.34-.47,7.16,7.16,0,0,1-2.11-1.31,6.53,6.53,0,0,1-1.51-2,6.47,6.47,0,0,1-.05-5.15,7,7,0,0,1,1.42-2.06,6.75,6.75,0,0,1,2.06-1.41,6.16,6.16,0,0,1,2.49-.51,6.33,6.33,0,0,1,3.26.86,6.56,6.56,0,0,1,2.34,2.34,6.71,6.71,0,0,1,.31,6,6.5,6.5,0,0,1-1.5,2A6.57,6.57,0,0,1,290,34.71,6.38,6.38,0,0,1,287.7,35.15Zm-.05-3.78a2.85,2.85,0,0,0,1.23-.3,2.56,2.56,0,0,0,1.48-2.42,2.77,2.77,0,0,0-.35-1.4,2.58,2.58,0,0,0-1-.94,2.88,2.88,0,0,0-1.41-.34,2.63,2.63,0,0,0-1.34.35,2.82,2.82,0,0,0-1,1,2.93,2.93,0,0,0,.05,2.9,2.49,2.49,0,0,0,1,.9A2.76,2.76,0,0,0,287.65,31.37Z"/><path class="cls-2" d="M305.31,24.28a2,2,0,0,1-1.3.61,1.85,1.85,0,0,1-1.25-.73,1.91,1.91,0,0,1-.63-1.38,2.23,2.23,0,0,1,.88-1.37l3.73-3.3a1.77,1.77,0,0,1,1.28-.58,2,2,0,0,1,1.24.78,1.71,1.71,0,0,1,.61,1.34A2.24,2.24,0,0,1,309,21ZM308.45,35a2,2,0,0,1-1.44-.43,2.1,2.1,0,0,1-.41-1.47V19.36A2.05,2.05,0,0,1,307,17.9a2,2,0,0,1,1.47-.42,2,2,0,0,1,1.46.43,2.15,2.15,0,0,1,.41,1.5V33.14a2,2,0,0,1-.41,1.46A2.11,2.11,0,0,1,308.45,35Z"/><path class="cls-2" d="M316.6,35a3.41,3.41,0,0,1-1.31-.18.9.9,0,0,1-.5-.57,2.78,2.78,0,0,1-.11-.85,9.53,9.53,0,0,1,.37-2.65,15.19,15.19,0,0,1,1-2.48A24.26,24.26,0,0,1,317.28,26c.45-.71.88-1.36,1.28-2s.74-1.13,1-1.59a3.65,3.65,0,0,0,.51-1.11h-6a3.39,3.39,0,0,1-.91-.11,1.24,1.24,0,0,1-.72-.5,2.39,2.39,0,0,1-.27-1.31,2.38,2.38,0,0,1,.27-1.3,1,1,0,0,1,.66-.49,3.82,3.82,0,0,1,.85-.09h8.77a2.27,2.27,0,0,1,1.34.29,1.11,1.11,0,0,1,.47.72,4.75,4.75,0,0,1,.09,1,5.83,5.83,0,0,1-.44,2.12,17.08,17.08,0,0,1-1.12,2.28c-.46.79-1,1.58-1.48,2.38s-1,1.6-1.48,2.41a16.08,16.08,0,0,0-1.12,2.4,6.77,6.77,0,0,0-.44,2.34,2.88,2.88,0,0,1-.11.81.93.93,0,0,1-.52.55A3.42,3.42,0,0,1,316.6,35Z"/><path class="cls-3" d="M114.17,17.34a3.81,3.81,0,0,1,.78.08.92.92,0,0,1,.59.42,2.24,2.24,0,0,1,.22,1.15,2.16,2.16,0,0,1-.22,1.13.91.91,0,0,1-.6.42,4.09,4.09,0,0,1-.8.08h-4V33a4.29,4.29,0,0,1-.09.9,1.1,1.1,0,0,1-.48.69,2.54,2.54,0,0,1-1.33.26,2.45,2.45,0,0,1-1.28-.26,1.08,1.08,0,0,1-.49-.7,4.63,4.63,0,0,1-.08-.92V20.61h-4a3.31,3.31,0,0,1-.77-.09,1,1,0,0,1-.61-.42,2.06,2.06,0,0,1-.24-1.14,2,2,0,0,1,.24-1.12.93.93,0,0,1,.61-.43,4,4,0,0,1,.78-.07Z"/><path class="cls-3" d="M119.73,34.85a2.37,2.37,0,0,1-1.31-.27,1.07,1.07,0,0,1-.48-.71,4.7,4.7,0,0,1-.08-.92V24.22a4.59,4.59,0,0,1,.09-.93,1,1,0,0,1,.49-.68,2.45,2.45,0,0,1,1.32-.26,2.6,2.6,0,0,1,1.26.23,1.07,1.07,0,0,1,.49.56,1.63,1.63,0,0,1,.1.53l-.3.15a3.22,3.22,0,0,1,.26-.36,4,4,0,0,1,.59-.55,3.9,3.9,0,0,1,.91-.49,3.62,3.62,0,0,1,1.24-.2c.19,0,.39,0,.62,0a4.77,4.77,0,0,1,.69.15,3.16,3.16,0,0,1,.67.3,1.54,1.54,0,0,1,.48.47,1.11,1.11,0,0,1,.19.67,3.14,3.14,0,0,1-.47,1.74,1.42,1.42,0,0,1-1.21.71,2.11,2.11,0,0,1-.6-.06.92.92,0,0,1-.28-.15,1,1,0,0,0-.27-.15,1.54,1.54,0,0,0-.54-.07,2.84,2.84,0,0,0-.72.1,1.93,1.93,0,0,0-.62.32,1.5,1.5,0,0,0-.45.52,1.52,1.52,0,0,0-.17.71V33a4.53,4.53,0,0,1-.09.91,1,1,0,0,1-.49.69A2.64,2.64,0,0,1,119.73,34.85Z"/><path class="cls-3" d="M139.13,34.83a2.36,2.36,0,0,1-1.37-.32.88.88,0,0,1-.43-.8l.25-.43a2.72,2.72,0,0,1-.57.61,4.08,4.08,0,0,1-1.12.65,4.33,4.33,0,0,1-1.66.29,5,5,0,0,1-2.19-.5,5.85,5.85,0,0,1-1.83-1.39,7,7,0,0,1-1.28-2,6.16,6.16,0,0,1-.47-2.38,6,6,0,0,1,.47-2.34,6.72,6.72,0,0,1,1.29-2,6.37,6.37,0,0,1,1.84-1.36,5,5,0,0,1,2.18-.5,4.3,4.3,0,0,1,1.57.26,4.16,4.16,0,0,1,1.09.62,3.43,3.43,0,0,1,.66.67l-.22-.35a1,1,0,0,1,.43-.91,2.44,2.44,0,0,1,1.39-.31,2.34,2.34,0,0,1,1.29.27,1.11,1.11,0,0,1,.47.73,4.86,4.86,0,0,1,.09.95v8.62a4.73,4.73,0,0,1-.09.93,1.07,1.07,0,0,1-.48.71A2.38,2.38,0,0,1,139.13,34.83Zm-4.37-3.72a2.21,2.21,0,0,0,1.2-.34,2.56,2.56,0,0,0,1.17-2.19,2.62,2.62,0,0,0-.32-1.29,2.4,2.4,0,0,0-.88-.88,2.3,2.3,0,0,0-1.22-.33,2.33,2.33,0,0,0-1.26.34,2.53,2.53,0,0,0-1.24,2.21,2.34,2.34,0,0,0,.34,1.24,2.56,2.56,0,0,0,.92.9A2.59,2.59,0,0,0,134.76,31.11Z"/><path class="cls-3" d="M144.88,34.86a1.77,1.77,0,0,1-1.31-.54A1.8,1.8,0,0,1,143,33a2,2,0,0,1,.14-.73,1.81,1.81,0,0,1,.41-.62l5.68-5.5h-3.8a4.45,4.45,0,0,1-.91-.1,1.25,1.25,0,0,1-.73-.49,2.22,2.22,0,0,1-.28-1.31,2.31,2.31,0,0,1,.28-1.32,1.21,1.21,0,0,1,.73-.47,4.46,4.46,0,0,1,.91-.09h7.83a1.8,1.8,0,0,1,1.85,1.85A2.18,2.18,0,0,1,155,25a1.45,1.45,0,0,1-.39.59l-5.55,5.52h4.52a4.57,4.57,0,0,1,.93.1,1.13,1.13,0,0,1,.68.5,2.47,2.47,0,0,1,.27,1.33,2.48,2.48,0,0,1-.28,1.3,1.07,1.07,0,0,1-.7.47,5.28,5.28,0,0,1-.93.08Z"/><path class="cls-3" d="M167.7,34.85a2.33,2.33,0,0,1-1.37-.33.91.91,0,0,1-.43-.8l.26-.42a2.82,2.82,0,0,1-.58.61,4.11,4.11,0,0,1-1.11.65,4.38,4.38,0,0,1-1.67.29,5,5,0,0,1-2.18-.5A6,6,0,0,1,158.78,33a7,7,0,0,1-1.27-2,6,6,0,0,1-.48-2.37,5.83,5.83,0,0,1,.48-2.34,6.72,6.72,0,0,1,1.29-2,6.07,6.07,0,0,1,1.84-1.36,4.77,4.77,0,0,1,2.17-.5,4.35,4.35,0,0,1,1.58.26,4.57,4.57,0,0,1,1.08.61,3.53,3.53,0,0,1,.67.68l-.23-.35a1.05,1.05,0,0,1,.44-.91,2.4,2.4,0,0,1,1.39-.31,2.3,2.3,0,0,1,1.28.27,1.14,1.14,0,0,1,.48.73,4.79,4.79,0,0,1,.09.95V33a4.73,4.73,0,0,1-.09.93,1.12,1.12,0,0,1-.47.71A2.52,2.52,0,0,1,167.7,34.85Zm-4.37-3.73a2.21,2.21,0,0,0,1.2-.33,2.51,2.51,0,0,0,.85-.92,2.48,2.48,0,0,0,.33-1.27,2.53,2.53,0,0,0-.33-1.29,2.4,2.4,0,0,0-.87-.89,2.55,2.55,0,0,0-2.49,0,2.64,2.64,0,0,0-.9.92,2.54,2.54,0,0,0-.34,1.3,2.28,2.28,0,0,0,.34,1.23,2.41,2.41,0,0,0,.92.9A2.51,2.51,0,0,0,163.33,31.12Z"/><path class="cls-3" d="M184.8,35.11a7.12,7.12,0,0,1-3-.58A5.72,5.72,0,0,1,179.73,33a6.61,6.61,0,0,1-1.2-2.09,6.83,6.83,0,0,1-.4-2.3,6.48,6.48,0,0,1,.85-3.32A6.14,6.14,0,0,1,181.35,23a6.9,6.9,0,0,1,3.46-.83,6.22,6.22,0,0,1,2.51.46,5.23,5.23,0,0,1,1.75,1.2,5.1,5.1,0,0,1,1,1.59,4.5,4.5,0,0,1,.33,1.62,2.82,2.82,0,0,1-.66,2.05,2.28,2.28,0,0,1-1.69.68h-6a1.82,1.82,0,0,0,.46,1.08,2.85,2.85,0,0,0,1,.7,3.5,3.5,0,0,0,1.33.25,8.05,8.05,0,0,0,1-.06,3.7,3.7,0,0,0,.79-.18c.22-.07.41-.15.59-.22a4.44,4.44,0,0,1,.49-.19,2.53,2.53,0,0,1,.42-.1,1.06,1.06,0,0,1,.68.22,2,2,0,0,1,.57.71,1.71,1.71,0,0,1,.24.52,2.2,2.2,0,0,1,.06.5,1.34,1.34,0,0,1-.61,1.09,4.91,4.91,0,0,1-1.73.74A11.56,11.56,0,0,1,184.8,35.11Zm-2.67-7.4h4a1,1,0,0,0,.58-.14.61.61,0,0,0,.2-.53,1.21,1.21,0,0,0-.28-.78,1.77,1.77,0,0,0-.73-.54,3.33,3.33,0,0,0-2.44.11,2.47,2.47,0,0,0-.94.8A2,2,0,0,0,182.13,27.71Z"/><path class="cls-3" d="M197.33,34.89a14.41,14.41,0,0,1-1.83-.1,3.9,3.9,0,0,1-1.35-.4,2.58,2.58,0,0,1-.9-.84,4.13,4.13,0,0,1-.52-1.37,10.11,10.11,0,0,1-.17-2.06V18.56a4.4,4.4,0,0,1,.1-.92,1.18,1.18,0,0,1,.49-.7,2.39,2.39,0,0,1,1.31-.27,2.34,2.34,0,0,1,1.29.27,1.21,1.21,0,0,1,.49.7,3.9,3.9,0,0,1,.1.93V29.94a4.22,4.22,0,0,0,0,.67.8.8,0,0,0,.15.41.56.56,0,0,0,.31.2,2.44,2.44,0,0,0,.53.05,2.6,2.6,0,0,1,.61.07.89.89,0,0,1,.54.45,2.58,2.58,0,0,1,.22,1.25,2.76,2.76,0,0,1-.23,1.3.87.87,0,0,1-.53.48A2.73,2.73,0,0,1,197.33,34.89Z"/><path class="cls-3" d="M209,34.88a2.49,2.49,0,0,1-1.31-.27,1,1,0,0,1-.47-.7,4.46,4.46,0,0,1-.09-.91V24.2a4.21,4.21,0,0,1,.08-.89,1,1,0,0,1,.49-.66A2.6,2.6,0,0,1,209,22.4a2.49,2.49,0,0,1,1.17.21,1.06,1.06,0,0,1,.49.52,1.68,1.68,0,0,1,.11.56,1,1,0,0,0,.05.36l-.15.48a1.45,1.45,0,0,1,.39-.77,3.78,3.78,0,0,1,.85-.7,4.7,4.7,0,0,1,1.1-.48,4,4,0,0,1,1.16-.18,5.05,5.05,0,0,1,2.14.44,4.32,4.32,0,0,1,1.58,1.27,5.6,5.6,0,0,1,1,1.93,8.27,8.27,0,0,1,.34,2.44V33a4.47,4.47,0,0,1-.08.91,1,1,0,0,1-.48.69,3.6,3.6,0,0,1-2.66,0,1.08,1.08,0,0,1-.49-.7,4.56,4.56,0,0,1-.09-.92V28.48a2.92,2.92,0,0,0-.26-1.28,1.93,1.93,0,0,0-.75-.8,2.5,2.5,0,0,0-1.22-.27,2.59,2.59,0,0,0-1.25.28,2.06,2.06,0,0,0-.81.82,2.57,2.57,0,0,0-.29,1.25V33a4.53,4.53,0,0,1-.09.91,1.08,1.08,0,0,1-.47.69A2.64,2.64,0,0,1,209,34.88Z"/><path class="cls-3" d="M227,34.89a5.26,5.26,0,0,1-2.18-.46,5.43,5.43,0,0,1-1.75-1.26,5.8,5.8,0,0,1-1.16-1.92,7.14,7.14,0,0,1-.41-2.44V24.28a4.42,4.42,0,0,1,.09-.92,1.08,1.08,0,0,1,.49-.7,2.44,2.44,0,0,1,1.32-.28,2.4,2.4,0,0,1,1.32.28,1.1,1.1,0,0,1,.47.71,4.69,4.69,0,0,1,.09.94v4.5a2.78,2.78,0,0,0,.26,1.26,1.8,1.8,0,0,0,.77.82,2.57,2.57,0,0,0,1.21.27,2.4,2.4,0,0,0,1.24-.29,2,2,0,0,0,.8-.81,2.57,2.57,0,0,0,.29-1.25V24.26a4.42,4.42,0,0,1,.09-.92,1.06,1.06,0,0,1,.49-.69,2.59,2.59,0,0,1,1.33-.26,2.39,2.39,0,0,1,1.31.27,1.15,1.15,0,0,1,.47.72,4.46,4.46,0,0,1,.09.91v8.8a5,5,0,0,1-.08.89,1.06,1.06,0,0,1-.49.66,2.52,2.52,0,0,1-1.3.25,2.92,2.92,0,0,1-1.05-.15,1.25,1.25,0,0,1-.55-.38.94.94,0,0,1-.21-.47,2.57,2.57,0,0,1,0-.45l.32-.28a2.39,2.39,0,0,1-.32.39,5,5,0,0,1-.66.57,4.28,4.28,0,0,1-1,.54A3.31,3.31,0,0,1,227,34.89Zm-.39-13.38a.85.85,0,0,1-.74-.25,2.63,2.63,0,0,1-.51-1,2,2,0,0,1-.1-1.3,1.35,1.35,0,0,1,.92-.67l4.4-1.35a.88.88,0,0,1,.73.29,2.4,2.4,0,0,1,.5,1,2,2,0,0,1,.09,1.28,1.34,1.34,0,0,1-.92.67Z"/><path class="cls-3" d="M238,34.92a2.28,2.28,0,0,1-1.3-.28,1,1,0,0,1-.48-.7,5.29,5.29,0,0,1-.07-.92V24.27a4.29,4.29,0,0,1,.09-.9,1,1,0,0,1,.49-.69,2.49,2.49,0,0,1,1.33-.26,2.09,2.09,0,0,1,1.35.36,1.5,1.5,0,0,1,.42,1.19l-.33.27a3,3,0,0,1,.3-.42,5.64,5.64,0,0,1,.65-.63,4.49,4.49,0,0,1,.94-.56,2.84,2.84,0,0,1,1.17-.23,4.55,4.55,0,0,1,1.48.23,4,4,0,0,1,1.2.7,4.43,4.43,0,0,1,.94,1.17,6.34,6.34,0,0,1,.85-1,4.93,4.93,0,0,1,1.17-.8,3.61,3.61,0,0,1,1.53-.32,4.15,4.15,0,0,1,2.49.74,4.56,4.56,0,0,1,1.53,2.11,9.38,9.38,0,0,1,.53,3.33v4.47a3.85,3.85,0,0,1-.1.91,1.09,1.09,0,0,1-.48.7,3.31,3.31,0,0,1-2.64,0,1,1,0,0,1-.48-.71,5.45,5.45,0,0,1-.07-.92V28.55a4.1,4.1,0,0,0-.18-1.29,1.84,1.84,0,0,0-.54-.82,1.41,1.41,0,0,0-.9-.29,1.71,1.71,0,0,0-1,.27,1.77,1.77,0,0,0-.6.8,3.92,3.92,0,0,0-.2,1.35v4.48A3.24,3.24,0,0,1,247,34a1.17,1.17,0,0,1-.53.69,2.41,2.41,0,0,1-1.34.24,2.09,2.09,0,0,1-1.25-.29,1.12,1.12,0,0,1-.45-.72,5.26,5.26,0,0,1-.08-.89V28.55a4.16,4.16,0,0,0-.18-1.3,1.61,1.61,0,0,0-.52-.83,1.71,1.71,0,0,0-2,0,1.9,1.9,0,0,0-.59.86,3.53,3.53,0,0,0-.19,1.21V33a4.45,4.45,0,0,1-.09.93,1.08,1.08,0,0,1-.49.69A2.54,2.54,0,0,1,238,34.92Z"/><path class="cls-3" d="M262.9,35.16a7.28,7.28,0,0,1-3-.58,5.84,5.84,0,0,1-2.06-1.51,6.61,6.61,0,0,1-1.2-2.09,6.92,6.92,0,0,1-.4-2.3,6.45,6.45,0,0,1,.85-3.33,6.19,6.19,0,0,1,2.37-2.28,7,7,0,0,1,3.46-.84,6.21,6.21,0,0,1,2.51.47,5.12,5.12,0,0,1,2.78,2.79,4.42,4.42,0,0,1,.33,1.62,2.82,2.82,0,0,1-.66,2.05,2.27,2.27,0,0,1-1.69.67h-5.95a1.77,1.77,0,0,0,.46,1.08,2.85,2.85,0,0,0,1,.7,3.68,3.68,0,0,0,1.32.25,8.1,8.1,0,0,0,1-.06,4.43,4.43,0,0,0,.79-.18c.22-.07.41-.15.59-.22a4.32,4.32,0,0,1,.48-.19,2.63,2.63,0,0,1,.43-.1,1,1,0,0,1,.67.21,2.06,2.06,0,0,1,.58.72,1.85,1.85,0,0,1,.24.52,2.14,2.14,0,0,1,.06.5,1.36,1.36,0,0,1-.61,1.09,4.74,4.74,0,0,1-1.73.73A11,11,0,0,1,262.9,35.16Zm-2.67-7.4h3.95a1.06,1.06,0,0,0,.58-.14.62.62,0,0,0,.2-.54,1.18,1.18,0,0,0-.28-.77,1.75,1.75,0,0,0-.73-.54,3,3,0,0,0-1.09-.19,3,3,0,0,0-1.35.3,2.39,2.39,0,0,0-.94.8A1.84,1.84,0,0,0,260.23,27.76Z"/><path class="cls-3" d="M272.5,34.94a2.39,2.39,0,0,1-1.31-.27,1,1,0,0,1-.47-.71,4.7,4.7,0,0,1-.09-.92V24.31a4.42,4.42,0,0,1,.09-.92,1,1,0,0,1,.49-.69,2.47,2.47,0,0,1,1.32-.26,2.52,2.52,0,0,1,1.27.24,1,1,0,0,1,.48.55,1.68,1.68,0,0,1,.1.53l-.3.15a3.91,3.91,0,0,1,.27-.36,3.47,3.47,0,0,1,.58-.55,3.79,3.79,0,0,1,.92-.49,3.63,3.63,0,0,1,1.24-.19l.61,0a4.89,4.89,0,0,1,.7.15,3.32,3.32,0,0,1,.66.3,1.69,1.69,0,0,1,.49.47,1.2,1.2,0,0,1,.18.67,3.12,3.12,0,0,1-.47,1.74,1.42,1.42,0,0,1-1.2.71,2,2,0,0,1-.6-.06,1,1,0,0,1-.29-.15,1.1,1.1,0,0,0-.26-.15,1.72,1.72,0,0,0-.55-.06,2.71,2.71,0,0,0-.71.09,2.08,2.08,0,0,0-.63.32,1.45,1.45,0,0,0-.61,1.23v5.48a5.31,5.31,0,0,1-.08.91,1.07,1.07,0,0,1-.49.69A2.6,2.6,0,0,1,272.5,34.94Z"/><path class="cls-3" d="M287.7,35.15a6.3,6.3,0,0,1-2.34-.47,7.16,7.16,0,0,1-2.11-1.31,6.53,6.53,0,0,1-1.51-2,6.47,6.47,0,0,1-.05-5.15,7,7,0,0,1,1.42-2.06,6.75,6.75,0,0,1,2.06-1.41,6.16,6.16,0,0,1,2.49-.51,6.33,6.33,0,0,1,3.26.86,6.56,6.56,0,0,1,2.34,2.34,6.71,6.71,0,0,1,.31,6,6.5,6.5,0,0,1-1.5,2A6.57,6.57,0,0,1,290,34.71,6.38,6.38,0,0,1,287.7,35.15Zm-.05-3.78a2.85,2.85,0,0,0,1.23-.3,2.56,2.56,0,0,0,1.48-2.42,2.77,2.77,0,0,0-.35-1.4,2.58,2.58,0,0,0-1-.94,2.88,2.88,0,0,0-1.41-.34,2.63,2.63,0,0,0-1.34.35,2.82,2.82,0,0,0-1,1,2.93,2.93,0,0,0,.05,2.9,2.49,2.49,0,0,0,1,.9A2.76,2.76,0,0,0,287.65,31.37Z"/><path class="cls-3" d="M305.31,24.28a2,2,0,0,1-1.3.61,1.85,1.85,0,0,1-1.25-.73,1.91,1.91,0,0,1-.63-1.38,2.23,2.23,0,0,1,.88-1.37l3.73-3.3a1.77,1.77,0,0,1,1.28-.58,2,2,0,0,1,1.24.78,1.71,1.71,0,0,1,.61,1.34A2.24,2.24,0,0,1,309,21ZM308.45,35a2,2,0,0,1-1.44-.43,2.1,2.1,0,0,1-.41-1.47V19.36A2.05,2.05,0,0,1,307,17.9a2,2,0,0,1,1.47-.42,2,2,0,0,1,1.46.43,2.15,2.15,0,0,1,.41,1.5V33.14a2,2,0,0,1-.41,1.46A2.11,2.11,0,0,1,308.45,35Z"/><path class="cls-3" d="M316.6,35a3.41,3.41,0,0,1-1.31-.18.9.9,0,0,1-.5-.57,2.78,2.78,0,0,1-.11-.85,9.53,9.53,0,0,1,.37-2.65,15.19,15.19,0,0,1,1-2.48A24.26,24.26,0,0,1,317.28,26c.45-.71.88-1.36,1.28-2s.74-1.13,1-1.59a3.65,3.65,0,0,0,.51-1.11h-6a3.39,3.39,0,0,1-.91-.11,1.24,1.24,0,0,1-.72-.5,2.39,2.39,0,0,1-.27-1.31,2.38,2.38,0,0,1,.27-1.3,1,1,0,0,1,.66-.49,3.82,3.82,0,0,1,.85-.09h8.77a2.27,2.27,0,0,1,1.34.29,1.11,1.11,0,0,1,.47.72,4.75,4.75,0,0,1,.09,1,5.83,5.83,0,0,1-.44,2.12,17.08,17.08,0,0,1-1.12,2.28c-.46.79-1,1.58-1.48,2.38s-1,1.6-1.48,2.41a16.08,16.08,0,0,0-1.12,2.4,6.77,6.77,0,0,0-.44,2.34,2.88,2.88,0,0,1-.11.81.93.93,0,0,1-.52.55A3.42,3.42,0,0,1,316.6,35Z"/><path class="cls-2" d="M114.17,17.34a3.81,3.81,0,0,1,.78.08.92.92,0,0,1,.59.42,2.24,2.24,0,0,1,.22,1.15,2.16,2.16,0,0,1-.22,1.13.91.91,0,0,1-.6.42,4.09,4.09,0,0,1-.8.08h-4V33a4.29,4.29,0,0,1-.09.9,1.1,1.1,0,0,1-.48.69,2.54,2.54,0,0,1-1.33.26,2.45,2.45,0,0,1-1.28-.26,1.08,1.08,0,0,1-.49-.7,4.63,4.63,0,0,1-.08-.92V20.61h-4a3.31,3.31,0,0,1-.77-.09,1,1,0,0,1-.61-.42,2.06,2.06,0,0,1-.24-1.14,2,2,0,0,1,.24-1.12.93.93,0,0,1,.61-.43,4,4,0,0,1,.78-.07Z"/><path class="cls-2" d="M119.73,34.85a2.37,2.37,0,0,1-1.31-.27,1.07,1.07,0,0,1-.48-.71,4.7,4.7,0,0,1-.08-.92V24.22a4.59,4.59,0,0,1,.09-.93,1,1,0,0,1,.49-.68,2.45,2.45,0,0,1,1.32-.26,2.6,2.6,0,0,1,1.26.23,1.07,1.07,0,0,1,.49.56,1.63,1.63,0,0,1,.1.53l-.3.15a3.22,3.22,0,0,1,.26-.36,4,4,0,0,1,.59-.55,3.9,3.9,0,0,1,.91-.49,3.62,3.62,0,0,1,1.24-.2c.19,0,.39,0,.62,0a4.77,4.77,0,0,1,.69.15,3.16,3.16,0,0,1,.67.3,1.54,1.54,0,0,1,.48.47,1.11,1.11,0,0,1,.19.67,3.14,3.14,0,0,1-.47,1.74,1.42,1.42,0,0,1-1.21.71,2.11,2.11,0,0,1-.6-.06.92.92,0,0,1-.28-.15,1,1,0,0,0-.27-.15,1.54,1.54,0,0,0-.54-.07,2.84,2.84,0,0,0-.72.1,1.93,1.93,0,0,0-.62.32,1.5,1.5,0,0,0-.45.52,1.52,1.52,0,0,0-.17.71V33a4.53,4.53,0,0,1-.09.91,1,1,0,0,1-.49.69A2.64,2.64,0,0,1,119.73,34.85Z"/><path class="cls-2" d="M139.13,34.83a2.36,2.36,0,0,1-1.37-.32.88.88,0,0,1-.43-.8l.25-.43a2.72,2.72,0,0,1-.57.61,4.08,4.08,0,0,1-1.12.65,4.33,4.33,0,0,1-1.66.29,5,5,0,0,1-2.19-.5,5.85,5.85,0,0,1-1.83-1.39,7,7,0,0,1-1.28-2,6.16,6.16,0,0,1-.47-2.38,6,6,0,0,1,.47-2.34,6.72,6.72,0,0,1,1.29-2,6.37,6.37,0,0,1,1.84-1.36,5,5,0,0,1,2.18-.5,4.3,4.3,0,0,1,1.57.26,4.16,4.16,0,0,1,1.09.62,3.43,3.43,0,0,1,.66.67l-.22-.35a1,1,0,0,1,.43-.91,2.44,2.44,0,0,1,1.39-.31,2.34,2.34,0,0,1,1.29.27,1.11,1.11,0,0,1,.47.73,4.86,4.86,0,0,1,.09.95v8.62a4.73,4.73,0,0,1-.09.93,1.07,1.07,0,0,1-.48.71A2.38,2.38,0,0,1,139.13,34.83Zm-4.37-3.72a2.21,2.21,0,0,0,1.2-.34,2.56,2.56,0,0,0,1.17-2.19,2.62,2.62,0,0,0-.32-1.29,2.4,2.4,0,0,0-.88-.88,2.3,2.3,0,0,0-1.22-.33,2.33,2.33,0,0,0-1.26.34,2.53,2.53,0,0,0-1.24,2.21,2.34,2.34,0,0,0,.34,1.24,2.56,2.56,0,0,0,.92.9A2.59,2.59,0,0,0,134.76,31.11Z"/><path class="cls-2" d="M144.88,34.86a1.77,1.77,0,0,1-1.31-.54A1.8,1.8,0,0,1,143,33a2,2,0,0,1,.14-.73,1.81,1.81,0,0,1,.41-.62l5.68-5.5h-3.8a4.45,4.45,0,0,1-.91-.1,1.25,1.25,0,0,1-.73-.49,2.22,2.22,0,0,1-.28-1.31,2.31,2.31,0,0,1,.28-1.32,1.21,1.21,0,0,1,.73-.47,4.46,4.46,0,0,1,.91-.09h7.83a1.8,1.8,0,0,1,1.85,1.85A2.18,2.18,0,0,1,155,25a1.45,1.45,0,0,1-.39.59l-5.55,5.52h4.52a4.57,4.57,0,0,1,.93.1,1.13,1.13,0,0,1,.68.5,2.47,2.47,0,0,1,.27,1.33,2.48,2.48,0,0,1-.28,1.3,1.07,1.07,0,0,1-.7.47,5.28,5.28,0,0,1-.93.08Z"/><path class="cls-2" d="M167.7,34.85a2.33,2.33,0,0,1-1.37-.33.91.91,0,0,1-.43-.8l.26-.42a2.82,2.82,0,0,1-.58.61,4.11,4.11,0,0,1-1.11.65,4.38,4.38,0,0,1-1.67.29,5,5,0,0,1-2.18-.5A6,6,0,0,1,158.78,33a7,7,0,0,1-1.27-2,6,6,0,0,1-.48-2.37,5.83,5.83,0,0,1,.48-2.34,6.72,6.72,0,0,1,1.29-2,6.07,6.07,0,0,1,1.84-1.36,4.77,4.77,0,0,1,2.17-.5,4.35,4.35,0,0,1,1.58.26,4.57,4.57,0,0,1,1.08.61,3.53,3.53,0,0,1,.67.68l-.23-.35a1.05,1.05,0,0,1,.44-.91,2.4,2.4,0,0,1,1.39-.31,2.3,2.3,0,0,1,1.28.27,1.14,1.14,0,0,1,.48.73,4.79,4.79,0,0,1,.09.95V33a4.73,4.73,0,0,1-.09.93,1.12,1.12,0,0,1-.47.71A2.52,2.52,0,0,1,167.7,34.85Zm-4.37-3.73a2.21,2.21,0,0,0,1.2-.33,2.51,2.51,0,0,0,.85-.92,2.48,2.48,0,0,0,.33-1.27,2.53,2.53,0,0,0-.33-1.29,2.4,2.4,0,0,0-.87-.89,2.55,2.55,0,0,0-2.49,0,2.64,2.64,0,0,0-.9.92,2.54,2.54,0,0,0-.34,1.3,2.28,2.28,0,0,0,.34,1.23,2.41,2.41,0,0,0,.92.9A2.51,2.51,0,0,0,163.33,31.12Z"/><path class="cls-2" d="M184.8,35.11a7.12,7.12,0,0,1-3-.58A5.72,5.72,0,0,1,179.73,33a6.61,6.61,0,0,1-1.2-2.09,6.83,6.83,0,0,1-.4-2.3,6.48,6.48,0,0,1,.85-3.32A6.14,6.14,0,0,1,181.35,23a6.9,6.9,0,0,1,3.46-.83,6.22,6.22,0,0,1,2.51.46,5.23,5.23,0,0,1,1.75,1.2,5.1,5.1,0,0,1,1,1.59,4.5,4.5,0,0,1,.33,1.62,2.82,2.82,0,0,1-.66,2.05,2.28,2.28,0,0,1-1.69.68h-6a1.82,1.82,0,0,0,.46,1.08,2.85,2.85,0,0,0,1,.7,3.5,3.5,0,0,0,1.33.25,8.05,8.05,0,0,0,1-.06,3.7,3.7,0,0,0,.79-.18c.22-.07.41-.15.59-.22a4.44,4.44,0,0,1,.49-.19,2.53,2.53,0,0,1,.42-.1,1.06,1.06,0,0,1,.68.22,2,2,0,0,1,.57.71,1.71,1.71,0,0,1,.24.52,2.2,2.2,0,0,1,.06.5,1.34,1.34,0,0,1-.61,1.09,4.91,4.91,0,0,1-1.73.74A11.56,11.56,0,0,1,184.8,35.11Zm-2.67-7.4h4a1,1,0,0,0,.58-.14.61.61,0,0,0,.2-.53,1.21,1.21,0,0,0-.28-.78,1.77,1.77,0,0,0-.73-.54,3.33,3.33,0,0,0-2.44.11,2.47,2.47,0,0,0-.94.8A2,2,0,0,0,182.13,27.71Z"/><path class="cls-2" d="M197.33,34.89a14.41,14.41,0,0,1-1.83-.1,3.9,3.9,0,0,1-1.35-.4,2.58,2.58,0,0,1-.9-.84,4.13,4.13,0,0,1-.52-1.37,10.11,10.11,0,0,1-.17-2.06V18.56a4.4,4.4,0,0,1,.1-.92,1.18,1.18,0,0,1,.49-.7,2.39,2.39,0,0,1,1.31-.27,2.34,2.34,0,0,1,1.29.27,1.21,1.21,0,0,1,.49.7,3.9,3.9,0,0,1,.1.93V29.94a4.22,4.22,0,0,0,0,.67.8.8,0,0,0,.15.41.56.56,0,0,0,.31.2,2.44,2.44,0,0,0,.53.05,2.6,2.6,0,0,1,.61.07.89.89,0,0,1,.54.45,2.58,2.58,0,0,1,.22,1.25,2.76,2.76,0,0,1-.23,1.3.87.87,0,0,1-.53.48A2.73,2.73,0,0,1,197.33,34.89Z"/><path class="cls-2" d="M209,34.88a2.49,2.49,0,0,1-1.31-.27,1,1,0,0,1-.47-.7,4.46,4.46,0,0,1-.09-.91V24.2a4.21,4.21,0,0,1,.08-.89,1,1,0,0,1,.49-.66A2.6,2.6,0,0,1,209,22.4a2.49,2.49,0,0,1,1.17.21,1.06,1.06,0,0,1,.49.52,1.68,1.68,0,0,1,.11.56,1,1,0,0,0,.05.36l-.15.48a1.45,1.45,0,0,1,.39-.77,3.78,3.78,0,0,1,.85-.7,4.7,4.7,0,0,1,1.1-.48,4,4,0,0,1,1.16-.18,5.05,5.05,0,0,1,2.14.44,4.32,4.32,0,0,1,1.58,1.27,5.6,5.6,0,0,1,1,1.93,8.27,8.27,0,0,1,.34,2.44V33a4.47,4.47,0,0,1-.08.91,1,1,0,0,1-.48.69,3.6,3.6,0,0,1-2.66,0,1.08,1.08,0,0,1-.49-.7,4.56,4.56,0,0,1-.09-.92V28.48a2.92,2.92,0,0,0-.26-1.28,1.93,1.93,0,0,0-.75-.8,2.5,2.5,0,0,0-1.22-.27,2.59,2.59,0,0,0-1.25.28,2.06,2.06,0,0,0-.81.82,2.57,2.57,0,0,0-.29,1.25V33a4.53,4.53,0,0,1-.09.91,1.08,1.08,0,0,1-.47.69A2.64,2.64,0,0,1,209,34.88Z"/><path class="cls-2" d="M227,34.89a5.26,5.26,0,0,1-2.18-.46,5.43,5.43,0,0,1-1.75-1.26,5.8,5.8,0,0,1-1.16-1.92,7.14,7.14,0,0,1-.41-2.44V24.28a4.42,4.42,0,0,1,.09-.92,1.08,1.08,0,0,1,.49-.7,2.44,2.44,0,0,1,1.32-.28,2.4,2.4,0,0,1,1.32.28,1.1,1.1,0,0,1,.47.71,4.69,4.69,0,0,1,.09.94v4.5a2.78,2.78,0,0,0,.26,1.26,1.8,1.8,0,0,0,.77.82,2.57,2.57,0,0,0,1.21.27,2.4,2.4,0,0,0,1.24-.29,2,2,0,0,0,.8-.81,2.57,2.57,0,0,0,.29-1.25V24.26a4.42,4.42,0,0,1,.09-.92,1.06,1.06,0,0,1,.49-.69,2.59,2.59,0,0,1,1.33-.26,2.39,2.39,0,0,1,1.31.27,1.15,1.15,0,0,1,.47.72,4.46,4.46,0,0,1,.09.91v8.8a5,5,0,0,1-.08.89,1.06,1.06,0,0,1-.49.66,2.52,2.52,0,0,1-1.3.25,2.92,2.92,0,0,1-1.05-.15,1.25,1.25,0,0,1-.55-.38.94.94,0,0,1-.21-.47,2.57,2.57,0,0,1,0-.45l.32-.28a2.39,2.39,0,0,1-.32.39,5,5,0,0,1-.66.57,4.28,4.28,0,0,1-1,.54A3.31,3.31,0,0,1,227,34.89Zm-.39-13.38a.85.85,0,0,1-.74-.25,2.63,2.63,0,0,1-.51-1,2,2,0,0,1-.1-1.3,1.35,1.35,0,0,1,.92-.67l4.4-1.35a.88.88,0,0,1,.73.29,2.4,2.4,0,0,1,.5,1,2,2,0,0,1,.09,1.28,1.34,1.34,0,0,1-.92.67Z"/><path class="cls-2" d="M238,34.92a2.28,2.28,0,0,1-1.3-.28,1,1,0,0,1-.48-.7,5.29,5.29,0,0,1-.07-.92V24.27a4.29,4.29,0,0,1,.09-.9,1,1,0,0,1,.49-.69,2.49,2.49,0,0,1,1.33-.26,2.09,2.09,0,0,1,1.35.36,1.5,1.5,0,0,1,.42,1.19l-.33.27a3,3,0,0,1,.3-.42,5.64,5.64,0,0,1,.65-.63,4.49,4.49,0,0,1,.94-.56,2.84,2.84,0,0,1,1.17-.23,4.55,4.55,0,0,1,1.48.23,4,4,0,0,1,1.2.7,4.43,4.43,0,0,1,.94,1.17,6.34,6.34,0,0,1,.85-1,4.93,4.93,0,0,1,1.17-.8,3.61,3.61,0,0,1,1.53-.32,4.15,4.15,0,0,1,2.49.74,4.56,4.56,0,0,1,1.53,2.11,9.38,9.38,0,0,1,.53,3.33v4.47a3.85,3.85,0,0,1-.1.91,1.09,1.09,0,0,1-.48.7,3.31,3.31,0,0,1-2.64,0,1,1,0,0,1-.48-.71,5.45,5.45,0,0,1-.07-.92V28.55a4.1,4.1,0,0,0-.18-1.29,1.84,1.84,0,0,0-.54-.82,1.41,1.41,0,0,0-.9-.29,1.71,1.71,0,0,0-1,.27,1.77,1.77,0,0,0-.6.8,3.92,3.92,0,0,0-.2,1.35v4.48A3.24,3.24,0,0,1,247,34a1.17,1.17,0,0,1-.53.69,2.41,2.41,0,0,1-1.34.24,2.09,2.09,0,0,1-1.25-.29,1.12,1.12,0,0,1-.45-.72,5.26,5.26,0,0,1-.08-.89V28.55a4.16,4.16,0,0,0-.18-1.3,1.61,1.61,0,0,0-.52-.83,1.71,1.71,0,0,0-2,0,1.9,1.9,0,0,0-.59.86,3.53,3.53,0,0,0-.19,1.21V33a4.45,4.45,0,0,1-.09.93,1.08,1.08,0,0,1-.49.69A2.54,2.54,0,0,1,238,34.92Z"/><path class="cls-2" d="M262.9,35.16a7.28,7.28,0,0,1-3-.58,5.84,5.84,0,0,1-2.06-1.51,6.61,6.61,0,0,1-1.2-2.09,6.92,6.92,0,0,1-.4-2.3,6.45,6.45,0,0,1,.85-3.33,6.19,6.19,0,0,1,2.37-2.28,7,7,0,0,1,3.46-.84,6.21,6.21,0,0,1,2.51.47,5.12,5.12,0,0,1,2.78,2.79,4.42,4.42,0,0,1,.33,1.62,2.82,2.82,0,0,1-.66,2.05,2.27,2.27,0,0,1-1.69.67h-5.95a1.77,1.77,0,0,0,.46,1.08,2.85,2.85,0,0,0,1,.7,3.68,3.68,0,0,0,1.32.25,8.1,8.1,0,0,0,1-.06,4.43,4.43,0,0,0,.79-.18c.22-.07.41-.15.59-.22a4.32,4.32,0,0,1,.48-.19,2.63,2.63,0,0,1,.43-.1,1,1,0,0,1,.67.21,2.06,2.06,0,0,1,.58.72,1.85,1.85,0,0,1,.24.52,2.14,2.14,0,0,1,.06.5,1.36,1.36,0,0,1-.61,1.09,4.74,4.74,0,0,1-1.73.73A11,11,0,0,1,262.9,35.16Zm-2.67-7.4h3.95a1.06,1.06,0,0,0,.58-.14.62.62,0,0,0,.2-.54,1.18,1.18,0,0,0-.28-.77,1.75,1.75,0,0,0-.73-.54,3,3,0,0,0-1.09-.19,3,3,0,0,0-1.35.3,2.39,2.39,0,0,0-.94.8A1.84,1.84,0,0,0,260.23,27.76Z"/><path class="cls-2" d="M272.5,34.94a2.39,2.39,0,0,1-1.31-.27,1,1,0,0,1-.47-.71,4.7,4.7,0,0,1-.09-.92V24.31a4.42,4.42,0,0,1,.09-.92,1,1,0,0,1,.49-.69,2.47,2.47,0,0,1,1.32-.26,2.52,2.52,0,0,1,1.27.24,1,1,0,0,1,.48.55,1.68,1.68,0,0,1,.1.53l-.3.15a3.91,3.91,0,0,1,.27-.36,3.47,3.47,0,0,1,.58-.55,3.79,3.79,0,0,1,.92-.49,3.63,3.63,0,0,1,1.24-.19l.61,0a4.89,4.89,0,0,1,.7.15,3.32,3.32,0,0,1,.66.3,1.69,1.69,0,0,1,.49.47,1.2,1.2,0,0,1,.18.67,3.12,3.12,0,0,1-.47,1.74,1.42,1.42,0,0,1-1.2.71,2,2,0,0,1-.6-.06,1,1,0,0,1-.29-.15,1.1,1.1,0,0,0-.26-.15,1.72,1.72,0,0,0-.55-.06,2.71,2.71,0,0,0-.71.09,2.08,2.08,0,0,0-.63.32,1.45,1.45,0,0,0-.61,1.23v5.48a5.31,5.31,0,0,1-.08.91,1.07,1.07,0,0,1-.49.69A2.6,2.6,0,0,1,272.5,34.94Z"/><path class="cls-2" d="M287.7,35.15a6.3,6.3,0,0,1-2.34-.47,7.16,7.16,0,0,1-2.11-1.31,6.53,6.53,0,0,1-1.51-2,6.47,6.47,0,0,1-.05-5.15,7,7,0,0,1,1.42-2.06,6.75,6.75,0,0,1,2.06-1.41,6.16,6.16,0,0,1,2.49-.51,6.33,6.33,0,0,1,3.26.86,6.56,6.56,0,0,1,2.34,2.34,6.71,6.71,0,0,1,.31,6,6.5,6.5,0,0,1-1.5,2A6.57,6.57,0,0,1,290,34.71,6.38,6.38,0,0,1,287.7,35.15Zm-.05-3.78a2.85,2.85,0,0,0,1.23-.3,2.56,2.56,0,0,0,1.48-2.42,2.77,2.77,0,0,0-.35-1.4,2.58,2.58,0,0,0-1-.94,2.88,2.88,0,0,0-1.41-.34,2.63,2.63,0,0,0-1.34.35,2.82,2.82,0,0,0-1,1,2.93,2.93,0,0,0,.05,2.9,2.49,2.49,0,0,0,1,.9A2.76,2.76,0,0,0,287.65,31.37Z"/><path class="cls-2" d="M305.31,24.28a2,2,0,0,1-1.3.61,1.85,1.85,0,0,1-1.25-.73,1.91,1.91,0,0,1-.63-1.38,2.23,2.23,0,0,1,.88-1.37l3.73-3.3a1.77,1.77,0,0,1,1.28-.58,2,2,0,0,1,1.24.78,1.71,1.71,0,0,1,.61,1.34A2.24,2.24,0,0,1,309,21ZM308.45,35a2,2,0,0,1-1.44-.43,2.1,2.1,0,0,1-.41-1.47V19.36A2.05,2.05,0,0,1,307,17.9a2,2,0,0,1,1.47-.42,2,2,0,0,1,1.46.43,2.15,2.15,0,0,1,.41,1.5V33.14a2,2,0,0,1-.41,1.46A2.11,2.11,0,0,1,308.45,35Z"/><path class="cls-2" d="M316.6,35a3.41,3.41,0,0,1-1.31-.18.9.9,0,0,1-.5-.57,2.78,2.78,0,0,1-.11-.85,9.53,9.53,0,0,1,.37-2.65,15.19,15.19,0,0,1,1-2.48A24.26,24.26,0,0,1,317.28,26c.45-.71.88-1.36,1.28-2s.74-1.13,1-1.59a3.65,3.65,0,0,0,.51-1.11h-6a3.39,3.39,0,0,1-.91-.11,1.24,1.24,0,0,1-.72-.5,2.39,2.39,0,0,1-.27-1.31,2.38,2.38,0,0,1,.27-1.3,1,1,0,0,1,.66-.49,3.82,3.82,0,0,1,.85-.09h8.77a2.27,2.27,0,0,1,1.34.29,1.11,1.11,0,0,1,.47.72,4.75,4.75,0,0,1,.09,1,5.83,5.83,0,0,1-.44,2.12,17.08,17.08,0,0,1-1.12,2.28c-.46.79-1,1.58-1.48,2.38s-1,1.6-1.48,2.41a16.08,16.08,0,0,0-1.12,2.4,6.77,6.77,0,0,0-.44,2.34,2.88,2.88,0,0,1-.11.81.93.93,0,0,1-.52.55A3.42,3.42,0,0,1,316.6,35Z"/><text class="cls-4" transform="matrix(0.97, 0, 0, 1, 40.3, 41.89)">17</text><text class="cls-5" transform="matrix(0.97, 0, 0, 1, 40.3, 41.89)">17</text></g></g></svg>