<svg xmlns="http://www.w3.org/2000/svg" viewBox="0 0 399.98 84.12"><defs><style>.cls-1{fill:#512573;}.cls-2{fill:#fff;}.cls-3,.cls-4{fill:none;stroke-width:5px;}.cls-3{stroke:#ff7300;stroke-linejoin:round;}.cls-4{stroke:#fff;}.cls-5{fill:#ff7300;}</style></defs><title>30tv</title><g id="Layer_2" data-name="Layer 2"><g id="pestaña_identificativa" data-name="pestaña identificativa"><rect class="cls-1" width="399.98" height="84.12" rx="32.4"/><path class="cls-2" d="M118.17,15.79a3.84,3.84,0,0,1,.78.07,1,1,0,0,1,.59.43,2.22,2.22,0,0,1,.22,1.15,2.18,2.18,0,0,1-.22,1.13.91.91,0,0,1-.6.42,4.11,4.11,0,0,1-.8.07h-4V31.44a4.43,4.43,0,0,1-.09.9,1.06,1.06,0,0,1-.48.68,2.44,2.44,0,0,1-1.34.27,2.33,2.33,0,0,1-1.27-.27,1.06,1.06,0,0,1-.49-.7,4.47,4.47,0,0,1-.08-.91V19.06h-4a3.31,3.31,0,0,1-.77-.09,1,1,0,0,1-.61-.43,2,2,0,0,1-.24-1.13,2,2,0,0,1,.24-1.13,1,1,0,0,1,.61-.42,3.94,3.94,0,0,1,.77-.08Z"/><path class="cls-2" d="M123.73,33.29a2.45,2.45,0,0,1-1.31-.26,1.09,1.09,0,0,1-.48-.71,4.73,4.73,0,0,1-.09-.93V22.67a4.52,4.52,0,0,1,.09-.93,1.08,1.08,0,0,1,.49-.69A3.45,3.45,0,0,1,125,21a1.06,1.06,0,0,1,.49.55,1.73,1.73,0,0,1,.1.54l-.3.15a2,2,0,0,1,.26-.36,3.6,3.6,0,0,1,1.5-1,3.62,3.62,0,0,1,1.24-.2,4.45,4.45,0,0,1,.61,0,3,3,0,0,1,.7.15,2.4,2.4,0,0,1,.67.3,1.51,1.51,0,0,1,.48.46,1.16,1.16,0,0,1,.19.68,3,3,0,0,1-.48,1.73,1.39,1.39,0,0,1-1.2.72,1.73,1.73,0,0,1-.6-.07.92.92,0,0,1-.28-.15,1.17,1.17,0,0,0-.27-.15,1.65,1.65,0,0,0-.54-.06,2.46,2.46,0,0,0-.72.1,2.12,2.12,0,0,0-.62.31,1.44,1.44,0,0,0-.45.53,1.49,1.49,0,0,0-.17.71v5.47a4.56,4.56,0,0,1-.09.92,1,1,0,0,1-.49.68A2.53,2.53,0,0,1,123.73,33.29Z"/><path class="cls-2" d="M143.13,33.28a2.34,2.34,0,0,1-1.38-.33.88.88,0,0,1-.42-.8l.25-.42a2.72,2.72,0,0,1-.57.61,4.25,4.25,0,0,1-2.78.94,5,5,0,0,1-2.19-.5,6.17,6.17,0,0,1-1.84-1.39,7.27,7.27,0,0,1-1.27-2,6.13,6.13,0,0,1,0-4.71,6.72,6.72,0,0,1,1.29-2,6.19,6.19,0,0,1,1.84-1.36,4.81,4.81,0,0,1,2.18-.5,4.1,4.1,0,0,1,1.57.26,4.65,4.65,0,0,1,1.09.61,3.45,3.45,0,0,1,.66.68l-.22-.35a1,1,0,0,1,.43-.91,2.44,2.44,0,0,1,1.39-.32,2.33,2.33,0,0,1,1.29.28,1.12,1.12,0,0,1,.47.73,4.79,4.79,0,0,1,.09,1v8.62a4.73,4.73,0,0,1-.09.93,1.09,1.09,0,0,1-.48.71A2.48,2.48,0,0,1,143.13,33.28Zm-4.37-3.73a2.21,2.21,0,0,0,1.2-.33,2.67,2.67,0,0,0,.85-3.48,2.5,2.5,0,0,0-.88-.89,2.39,2.39,0,0,0-1.22-.32,2.42,2.42,0,0,0-1.26.33,2.48,2.48,0,0,0-.9.92,2.45,2.45,0,0,0-.34,1.3,2.36,2.36,0,0,0,.33,1.23,2.6,2.6,0,0,0,2.22,1.24Z"/><path class="cls-2" d="M148.88,33.31a1.76,1.76,0,0,1-1.31-.54,1.81,1.81,0,0,1-.54-1.34,2,2,0,0,1,.14-.72,1.85,1.85,0,0,1,.41-.63l5.68-5.49h-3.8a3.85,3.85,0,0,1-.91-.1,1.2,1.2,0,0,1-.73-.49,2.24,2.24,0,0,1-.29-1.31,2.37,2.37,0,0,1,.29-1.31,1.13,1.13,0,0,1,.73-.47,4.46,4.46,0,0,1,.91-.09h7.83a1.79,1.79,0,0,1,1.32.53,1.75,1.75,0,0,1,.52,1.32,2.19,2.19,0,0,1-.13.77,1.42,1.42,0,0,1-.39.58l-5.55,5.53h4.52a4,4,0,0,1,.93.1,1.09,1.09,0,0,1,.68.5,2.38,2.38,0,0,1,.26,1.32,2.38,2.38,0,0,1-.27,1.3,1.05,1.05,0,0,1-.7.48,5.41,5.41,0,0,1-.93.07Z"/><path class="cls-2" d="M171.7,33.3a2.33,2.33,0,0,1-1.37-.33.92.92,0,0,1-.43-.8l.25-.42a3,3,0,0,1-.57.61,4.28,4.28,0,0,1-1.11.65,4.39,4.39,0,0,1-1.67.28,4.87,4.87,0,0,1-2.18-.5,5.63,5.63,0,0,1-1.84-1.39,7,7,0,0,1-1.27-2A6,6,0,0,1,161,27a5.82,5.82,0,0,1,.48-2.33,6.9,6.9,0,0,1,1.29-2,6.42,6.42,0,0,1,1.84-1.36,4.9,4.9,0,0,1,2.17-.5,4.14,4.14,0,0,1,1.58.27,4.24,4.24,0,0,1,1.08.61,3,3,0,0,1,.66.68l-.22-.35a1.07,1.07,0,0,1,.44-.92,2.4,2.4,0,0,1,1.39-.31,2.21,2.21,0,0,1,1.28.28,1.11,1.11,0,0,1,.48.72,4.86,4.86,0,0,1,.09.95V31.4a4.7,4.7,0,0,1-.09.92A1.09,1.09,0,0,1,173,33,2.41,2.41,0,0,1,171.7,33.3Zm-4.37-3.73a2.13,2.13,0,0,0,1.2-.34,2.57,2.57,0,0,0,.85-.91,2.51,2.51,0,0,0,.33-1.27,2.48,2.48,0,0,0-.33-1.29,2.32,2.32,0,0,0-.87-.89,2.36,2.36,0,0,0-1.23-.33,2.48,2.48,0,0,0-1.26.34,2.7,2.7,0,0,0-.9.91,2.6,2.6,0,0,0-.34,1.3,2.34,2.34,0,0,0,.34,1.24,2.41,2.41,0,0,0,.92.9A2.49,2.49,0,0,0,167.33,29.57Z"/><path class="cls-2" d="M188.8,33.56a7.28,7.28,0,0,1-3-.58,5.84,5.84,0,0,1-2.06-1.51,6.61,6.61,0,0,1-1.2-2.09,6.92,6.92,0,0,1-.4-2.3,6.54,6.54,0,0,1,.85-3.33,6.19,6.19,0,0,1,2.37-2.28,7,7,0,0,1,3.46-.84,6.21,6.21,0,0,1,2.51.47,5.08,5.08,0,0,1,1.75,1.2,5.18,5.18,0,0,1,1,1.58,4.51,4.51,0,0,1,.33,1.63,2.82,2.82,0,0,1-.66,2,2.27,2.27,0,0,1-1.69.67h-6a1.77,1.77,0,0,0,.46,1.08,2.85,2.85,0,0,0,1,.7,3.7,3.7,0,0,0,1.33.25,8.05,8.05,0,0,0,1-.06,4.43,4.43,0,0,0,.79-.18c.22-.07.41-.15.59-.22s.34-.14.48-.19a2.89,2.89,0,0,1,.43-.1,1,1,0,0,1,.68.21,2.22,2.22,0,0,1,.57.71,1.75,1.75,0,0,1,.24.53,2.14,2.14,0,0,1,.06.5,1.36,1.36,0,0,1-.61,1.09,4.74,4.74,0,0,1-1.73.73A11,11,0,0,1,188.8,33.56Zm-2.67-7.41h4a1.06,1.06,0,0,0,.58-.14.62.62,0,0,0,.2-.54,1.18,1.18,0,0,0-.28-.77,1.75,1.75,0,0,0-.73-.54,2.83,2.83,0,0,0-1.09-.19,3,3,0,0,0-1.35.3,2.47,2.47,0,0,0-.94.8A1.91,1.91,0,0,0,186.13,26.15Z"/><path class="cls-2" d="M201.33,33.34a16.4,16.4,0,0,1-1.83-.1,3.9,3.9,0,0,1-1.35-.4,2.58,2.58,0,0,1-.9-.84,4,4,0,0,1-.52-1.38,10,10,0,0,1-.17-2.06V17a4.4,4.4,0,0,1,.1-.92,1.15,1.15,0,0,1,.49-.7,2.29,2.29,0,0,1,1.31-.28,2.33,2.33,0,0,1,1.29.28,1.18,1.18,0,0,1,.49.7,4.4,4.4,0,0,1,.1.92V28.39a4,4,0,0,0,0,.66.77.77,0,0,0,.15.41.51.51,0,0,0,.31.2,1.9,1.9,0,0,0,.52.05,2.7,2.7,0,0,1,.62.08.91.91,0,0,1,.54.45,2.7,2.7,0,0,1,.22,1.25,2.79,2.79,0,0,1-.23,1.3.84.84,0,0,1-.53.47A2.8,2.8,0,0,1,201.33,33.34Z"/><path class="cls-2" d="M213,33.32a2.5,2.5,0,0,1-1.31-.26,1,1,0,0,1-.47-.7,4.53,4.53,0,0,1-.09-.91v-8.8a4.13,4.13,0,0,1,.09-.89,1,1,0,0,1,.49-.66,2.6,2.6,0,0,1,1.33-.25,2.49,2.49,0,0,1,1.17.21,1,1,0,0,1,.49.51,1.73,1.73,0,0,1,.11.56,1,1,0,0,0,.05.37l-.15.47a1.43,1.43,0,0,1,.39-.76,3.53,3.53,0,0,1,.85-.7A4.73,4.73,0,0,1,217,21a4.29,4.29,0,0,1,1.16-.17,5.05,5.05,0,0,1,2.14.44,4.29,4.29,0,0,1,1.58,1.26,5.65,5.65,0,0,1,1,1.94,8.51,8.51,0,0,1,.34,2.44v4.55a5.4,5.4,0,0,1-.08.91,1.06,1.06,0,0,1-.48.69,2.68,2.68,0,0,1-1.34.25,2.43,2.43,0,0,1-1.32-.27,1.06,1.06,0,0,1-.49-.7,4.46,4.46,0,0,1-.09-.91V26.92a2.74,2.74,0,0,0-.27-1.27,1.8,1.8,0,0,0-.74-.8,2.5,2.5,0,0,0-1.22-.28,2.59,2.59,0,0,0-1.25.29,2,2,0,0,0-.81.81,2.59,2.59,0,0,0-.29,1.25v4.55a4.46,4.46,0,0,1-.09.91,1,1,0,0,1-.48.69A2.47,2.47,0,0,1,213,33.32Z"/><path class="cls-2" d="M231,33.33a5.25,5.25,0,0,1-2.18-.45,5.43,5.43,0,0,1-1.75-1.26,5.85,5.85,0,0,1-1.16-1.93,7.06,7.06,0,0,1-.41-2.44V22.73a4.59,4.59,0,0,1,.09-.93,1.13,1.13,0,0,1,.49-.7,2.46,2.46,0,0,1,1.32-.27,2.31,2.31,0,0,1,1.32.28,1.1,1.1,0,0,1,.47.71,4.62,4.62,0,0,1,.09.94v4.5a2.78,2.78,0,0,0,.26,1.26,1.73,1.73,0,0,0,.77.81,2.46,2.46,0,0,0,1.21.28,2.5,2.5,0,0,0,1.24-.29,2,2,0,0,0,.8-.81,2.59,2.59,0,0,0,.29-1.25V22.71a4.59,4.59,0,0,1,.09-.93,1,1,0,0,1,.49-.68,2.38,2.38,0,0,1,1.32-.26,2.41,2.41,0,0,1,1.32.27,1.1,1.1,0,0,1,.47.71,4.63,4.63,0,0,1,.09.92v8.8a4.88,4.88,0,0,1-.08.88,1.06,1.06,0,0,1-.49.67,2.63,2.63,0,0,1-1.3.25,2.89,2.89,0,0,1-1.05-.16,1.23,1.23,0,0,1-.55-.37.94.94,0,0,1-.21-.48,2.42,2.42,0,0,1,0-.45l.32-.27a3.74,3.74,0,0,1-.32.39,7.18,7.18,0,0,1-.66.57,4.28,4.28,0,0,1-1,.54A3.31,3.31,0,0,1,231,33.33ZM230.64,20a.85.85,0,0,1-.74-.25,2.71,2.71,0,0,1-.51-1,2,2,0,0,1-.1-1.3,1.36,1.36,0,0,1,.92-.68l4.4-1.35a.91.91,0,0,1,.73.29,2.53,2.53,0,0,1,.5,1,1.85,1.85,0,0,1,.08,1.27,1.28,1.28,0,0,1-.91.68Z"/><path class="cls-2" d="M242,33.36a2.38,2.38,0,0,1-1.3-.27,1.08,1.08,0,0,1-.48-.7,5.41,5.41,0,0,1-.07-.93V22.71a4.43,4.43,0,0,1,.09-.9,1,1,0,0,1,.49-.68,2.46,2.46,0,0,1,1.32-.27,2.05,2.05,0,0,1,1.35.37,1.44,1.44,0,0,1,.43,1.18l-.33.28a3.58,3.58,0,0,1,.3-.43,5.63,5.63,0,0,1,.65-.62,4.1,4.1,0,0,1,.94-.56,2.83,2.83,0,0,1,1.16-.24,4.31,4.31,0,0,1,1.49.24,3.82,3.82,0,0,1,1.2.7,4.55,4.55,0,0,1,.94,1.16,6.22,6.22,0,0,1,.85-1,4.66,4.66,0,0,1,1.17-.8,3.44,3.44,0,0,1,1.53-.32,4.14,4.14,0,0,1,2.49.73,4.6,4.6,0,0,1,1.53,2.12,9.32,9.32,0,0,1,.53,3.32V31.5a3.85,3.85,0,0,1-.1.91,1.11,1.11,0,0,1-.48.7,3.42,3.42,0,0,1-2.64,0,1.07,1.07,0,0,1-.48-.72,5.33,5.33,0,0,1-.07-.91V27a3.81,3.81,0,0,0-.19-1.29,1.84,1.84,0,0,0-.53-.83,1.4,1.4,0,0,0-.9-.28,1.56,1.56,0,0,0-1.58,1.07,3.92,3.92,0,0,0-.2,1.35v4.47a3.14,3.14,0,0,1-.13.94,1.19,1.19,0,0,1-.53.7,2.5,2.5,0,0,1-1.34.24,2.09,2.09,0,0,1-1.25-.29,1.12,1.12,0,0,1-.45-.73,5.14,5.14,0,0,1-.08-.88V27a4.21,4.21,0,0,0-.18-1.3,1.62,1.62,0,0,0-.52-.82,1.43,1.43,0,0,0-.93-.28,1.54,1.54,0,0,0-1,.33,1.78,1.78,0,0,0-.59.86,3.53,3.53,0,0,0-.19,1.21v4.5a4.42,4.42,0,0,1-.09.92,1,1,0,0,1-.49.69A2.45,2.45,0,0,1,242,33.36Z"/><path class="cls-2" d="M266.9,33.6a7.28,7.28,0,0,1-3-.57,5.86,5.86,0,0,1-2.06-1.52,6.33,6.33,0,0,1-1.2-2.09,6.83,6.83,0,0,1-.4-2.3,6.41,6.41,0,0,1,.85-3.32,6.14,6.14,0,0,1,2.37-2.29,7.08,7.08,0,0,1,3.46-.83,6.22,6.22,0,0,1,2.51.46,5.23,5.23,0,0,1,1.75,1.2,5.11,5.11,0,0,1,1,1.59,4.33,4.33,0,0,1,.34,1.63,2.84,2.84,0,0,1-.66,2.05,2.28,2.28,0,0,1-1.69.67h-5.95a1.76,1.76,0,0,0,.46,1.07,2.73,2.73,0,0,0,1,.7,3.48,3.48,0,0,0,1.32.25,8.1,8.1,0,0,0,1-.06,4.49,4.49,0,0,0,.79-.17l.59-.23.48-.18a1.89,1.89,0,0,1,.43-.1,1,1,0,0,1,.67.21,2.11,2.11,0,0,1,.58.71,2,2,0,0,1,.24.53,2.07,2.07,0,0,1,.06.5,1.35,1.35,0,0,1-.61,1.08,4.73,4.73,0,0,1-1.73.74A11.56,11.56,0,0,1,266.9,33.6Zm-2.67-7.4h3.95a1.06,1.06,0,0,0,.58-.13.62.62,0,0,0,.2-.54,1.24,1.24,0,0,0-.28-.77,1.64,1.64,0,0,0-.74-.54,2.74,2.74,0,0,0-1.08-.19,3,3,0,0,0-1.35.3,2.31,2.31,0,0,0-.94.8A1.84,1.84,0,0,0,264.23,26.2Z"/><path class="cls-2" d="M276.5,33.38a2.38,2.38,0,0,1-1.31-.26,1.07,1.07,0,0,1-.48-.71,5.64,5.64,0,0,1-.08-.93V22.76a4.52,4.52,0,0,1,.09-.93,1,1,0,0,1,.49-.68,2.46,2.46,0,0,1,1.32-.27,2.52,2.52,0,0,1,1.27.24,1,1,0,0,1,.48.55,1.73,1.73,0,0,1,.1.54l-.3.15a2.27,2.27,0,0,1,.27-.36,3.1,3.1,0,0,1,.58-.55,3.47,3.47,0,0,1,.92-.49,3.56,3.56,0,0,1,1.23-.2,4.7,4.7,0,0,1,.62,0,4.89,4.89,0,0,1,.7.15,3.32,3.32,0,0,1,.66.3,1.8,1.8,0,0,1,.49.46,1.23,1.23,0,0,1,.18.68,3.14,3.14,0,0,1-.47,1.74,1.42,1.42,0,0,1-1.2.71,1.66,1.66,0,0,1-.6-.07,1,1,0,0,1-.29-.15l-.26-.15a1.72,1.72,0,0,0-.55-.06,2.84,2.84,0,0,0-.72.1,2.12,2.12,0,0,0-.62.31,1.63,1.63,0,0,0-.45.53,1.49,1.49,0,0,0-.16.71v5.48a4.53,4.53,0,0,1-.09.91,1,1,0,0,1-.48.69A2.73,2.73,0,0,1,276.5,33.38Z"/><path class="cls-2" d="M291.7,33.59a6.29,6.29,0,0,1-2.34-.46,7.24,7.24,0,0,1-2.11-1.31,6.53,6.53,0,0,1-1.51-2,6.47,6.47,0,0,1-.05-5.15,6.83,6.83,0,0,1,1.42-2.06,7,7,0,0,1,2.06-1.42,6.13,6.13,0,0,1,2.49-.51,6.24,6.24,0,0,1,3.26.87,6.48,6.48,0,0,1,2.34,2.34,6.69,6.69,0,0,1,.31,6,6.43,6.43,0,0,1-1.5,2A6.57,6.57,0,0,1,294,33.16,6.36,6.36,0,0,1,291.7,33.59Zm-.05-3.77a2.85,2.85,0,0,0,1.23-.3,2.67,2.67,0,0,0,1.05-.9,2.61,2.61,0,0,0,.42-1.53A2.7,2.7,0,0,0,294,25.7a2.5,2.5,0,0,0-1-.94,2.78,2.78,0,0,0-1.41-.34,2.53,2.53,0,0,0-1.34.35,2.73,2.73,0,0,0-1,1,2.93,2.93,0,0,0,.05,2.9,2.49,2.49,0,0,0,1,.9A2.9,2.9,0,0,0,291.65,29.82Z"/><path class="cls-2" d="M309.31,22.73a2,2,0,0,1-1.3.61,1.87,1.87,0,0,1-1.25-.74,1.88,1.88,0,0,1-.63-1.37,2.25,2.25,0,0,1,.88-1.38l3.73-3.3A1.8,1.8,0,0,1,312,16a2,2,0,0,1,1.24.78,1.69,1.69,0,0,1,.61,1.33,2.26,2.26,0,0,1-.88,1.37Zm3.14,10.73A2,2,0,0,1,311,33a2.11,2.11,0,0,1-.41-1.48V17.8a2.07,2.07,0,0,1,.41-1.46,2.1,2.1,0,0,1,1.47-.41,2,2,0,0,1,1.46.43,2.15,2.15,0,0,1,.41,1.5V31.58a2.05,2.05,0,0,1-.41,1.46A2.07,2.07,0,0,1,312.45,33.46Z"/><path class="cls-2" d="M318.58,33.43a3.15,3.15,0,0,1-.87-.11,1.12,1.12,0,0,1-.66-.5,2.49,2.49,0,0,1-.25-1.31,2.25,2.25,0,0,1,.28-1.31,1.11,1.11,0,0,1,.72-.48,4.86,4.86,0,0,1,.95-.09,6,6,0,0,0,2.07-.31,4.84,4.84,0,0,0,1.51-.81,4.49,4.49,0,0,0,1-1.09,5.22,5.22,0,0,0,.58-1.12,3.07,3.07,0,0,0,.19-.94l.35.08a1.12,1.12,0,0,1-.44.44,4.32,4.32,0,0,1-.91.41,4.1,4.1,0,0,1-1.18.17,5.73,5.73,0,0,1-2.82-.7,5.61,5.61,0,0,1-2-1.86,4.65,4.65,0,0,1-.75-2.57,5.63,5.63,0,0,1,.76-2.9,5.38,5.38,0,0,1,2.06-2,5.93,5.93,0,0,1,3-.73,6.24,6.24,0,0,1,3.31.84A5.37,5.37,0,0,1,327.55,19a9.1,9.1,0,0,1,.73,3.84,13.43,13.43,0,0,1-.45,3.55,10.58,10.58,0,0,1-1.29,3,8.71,8.71,0,0,1-2,2.24A8.91,8.91,0,0,1,321.83,33,10.34,10.34,0,0,1,318.58,33.43ZM322.08,23a3.25,3.25,0,0,0,1.22-.21,1.64,1.64,0,0,0,.77-.64,1.74,1.74,0,0,0,.26-1,2.3,2.3,0,0,0-.23-1.1,1.54,1.54,0,0,0-.7-.68,2.75,2.75,0,0,0-1.19-.22,2.84,2.84,0,0,0-1.19.22,1.58,1.58,0,0,0-.72.65,2.16,2.16,0,0,0-.24,1.08,1.86,1.86,0,0,0,.25,1,1.57,1.57,0,0,0,.71.66A2.39,2.39,0,0,0,322.08,23Z"/><path class="cls-3" d="M118.17,15.79a3.84,3.84,0,0,1,.78.07,1,1,0,0,1,.59.43,2.22,2.22,0,0,1,.22,1.15,2.18,2.18,0,0,1-.22,1.13.91.91,0,0,1-.6.42,4.11,4.11,0,0,1-.8.07h-4V31.44a4.43,4.43,0,0,1-.09.9,1.06,1.06,0,0,1-.48.68,2.44,2.44,0,0,1-1.34.27,2.33,2.33,0,0,1-1.27-.27,1.06,1.06,0,0,1-.49-.7,4.47,4.47,0,0,1-.08-.91V19.06h-4a3.31,3.31,0,0,1-.77-.09,1,1,0,0,1-.61-.43,2,2,0,0,1-.24-1.13,2,2,0,0,1,.24-1.13,1,1,0,0,1,.61-.42,3.94,3.94,0,0,1,.77-.08Z"/><path class="cls-3" d="M123.73,33.29a2.45,2.45,0,0,1-1.31-.26,1.09,1.09,0,0,1-.48-.71,4.73,4.73,0,0,1-.09-.93V22.67a4.52,4.52,0,0,1,.09-.93,1.08,1.08,0,0,1,.49-.69A3.45,3.45,0,0,1,125,21a1.06,1.06,0,0,1,.49.55,1.73,1.73,0,0,1,.1.54l-.3.15a2,2,0,0,1,.26-.36,3.6,3.6,0,0,1,1.5-1,3.62,3.62,0,0,1,1.24-.2,4.45,4.45,0,0,1,.61,0,3,3,0,0,1,.7.15,2.4,2.4,0,0,1,.67.3,1.51,1.51,0,0,1,.48.46,1.16,1.16,0,0,1,.19.68,3,3,0,0,1-.48,1.73,1.39,1.39,0,0,1-1.2.72,1.73,1.73,0,0,1-.6-.07.92.92,0,0,1-.28-.15,1.17,1.17,0,0,0-.27-.15,1.65,1.65,0,0,0-.54-.06,2.46,2.46,0,0,0-.72.1,2.12,2.12,0,0,0-.62.31,1.44,1.44,0,0,0-.45.53,1.49,1.49,0,0,0-.17.71v5.47a4.56,4.56,0,0,1-.09.92,1,1,0,0,1-.49.68A2.53,2.53,0,0,1,123.73,33.29Z"/><path class="cls-3" d="M143.13,33.28a2.34,2.34,0,0,1-1.38-.33.88.88,0,0,1-.42-.8l.25-.42a2.72,2.72,0,0,1-.57.61,4.25,4.25,0,0,1-2.78.94,5,5,0,0,1-2.19-.5,6.17,6.17,0,0,1-1.84-1.39,7.27,7.27,0,0,1-1.27-2,6.13,6.13,0,0,1,0-4.71,6.72,6.72,0,0,1,1.29-2,6.19,6.19,0,0,1,1.84-1.36,4.81,4.81,0,0,1,2.18-.5,4.1,4.1,0,0,1,1.57.26,4.65,4.65,0,0,1,1.09.61,3.45,3.45,0,0,1,.66.68l-.22-.35a1,1,0,0,1,.43-.91,2.44,2.44,0,0,1,1.39-.32,2.33,2.33,0,0,1,1.29.28,1.12,1.12,0,0,1,.47.73,4.79,4.79,0,0,1,.09,1v8.62a4.73,4.73,0,0,1-.09.93,1.09,1.09,0,0,1-.48.71A2.48,2.48,0,0,1,143.13,33.28Zm-4.37-3.73a2.21,2.21,0,0,0,1.2-.33,2.67,2.67,0,0,0,.85-3.48,2.5,2.5,0,0,0-.88-.89,2.39,2.39,0,0,0-1.22-.32,2.42,2.42,0,0,0-1.26.33,2.48,2.48,0,0,0-.9.92,2.45,2.45,0,0,0-.34,1.3,2.36,2.36,0,0,0,.33,1.23,2.6,2.6,0,0,0,2.22,1.24Z"/><path class="cls-3" d="M148.88,33.31a1.76,1.76,0,0,1-1.31-.54,1.81,1.81,0,0,1-.54-1.34,2,2,0,0,1,.14-.72,1.85,1.85,0,0,1,.41-.63l5.68-5.49h-3.8a3.85,3.85,0,0,1-.91-.1,1.2,1.2,0,0,1-.73-.49,2.24,2.24,0,0,1-.29-1.31,2.37,2.37,0,0,1,.29-1.31,1.13,1.13,0,0,1,.73-.47,4.46,4.46,0,0,1,.91-.09h7.83a1.79,1.79,0,0,1,1.32.53,1.75,1.75,0,0,1,.52,1.32,2.19,2.19,0,0,1-.13.77,1.42,1.42,0,0,1-.39.58l-5.55,5.53h4.52a4,4,0,0,1,.93.1,1.09,1.09,0,0,1,.68.5,2.38,2.38,0,0,1,.26,1.32,2.38,2.38,0,0,1-.27,1.3,1.05,1.05,0,0,1-.7.48,5.41,5.41,0,0,1-.93.07Z"/><path class="cls-3" d="M171.7,33.3a2.33,2.33,0,0,1-1.37-.33.92.92,0,0,1-.43-.8l.25-.42a3,3,0,0,1-.57.61,4.28,4.28,0,0,1-1.11.65,4.39,4.39,0,0,1-1.67.28,4.87,4.87,0,0,1-2.18-.5,5.63,5.63,0,0,1-1.84-1.39,7,7,0,0,1-1.27-2A6,6,0,0,1,161,27a5.82,5.82,0,0,1,.48-2.33,6.9,6.9,0,0,1,1.29-2,6.42,6.42,0,0,1,1.84-1.36,4.9,4.9,0,0,1,2.17-.5,4.14,4.14,0,0,1,1.58.27,4.24,4.24,0,0,1,1.08.61,3,3,0,0,1,.66.68l-.22-.35a1.07,1.07,0,0,1,.44-.92,2.4,2.4,0,0,1,1.39-.31,2.21,2.21,0,0,1,1.28.28,1.11,1.11,0,0,1,.48.72,4.86,4.86,0,0,1,.09.95V31.4a4.7,4.7,0,0,1-.09.92A1.09,1.09,0,0,1,173,33,2.41,2.41,0,0,1,171.7,33.3Zm-4.37-3.73a2.13,2.13,0,0,0,1.2-.34,2.57,2.57,0,0,0,.85-.91,2.51,2.51,0,0,0,.33-1.27,2.48,2.48,0,0,0-.33-1.29,2.32,2.32,0,0,0-.87-.89,2.36,2.36,0,0,0-1.23-.33,2.48,2.48,0,0,0-1.26.34,2.7,2.7,0,0,0-.9.91,2.6,2.6,0,0,0-.34,1.3,2.34,2.34,0,0,0,.34,1.24,2.41,2.41,0,0,0,.92.9A2.49,2.49,0,0,0,167.33,29.57Z"/><path class="cls-3" d="M188.8,33.56a7.28,7.28,0,0,1-3-.58,5.84,5.84,0,0,1-2.06-1.51,6.61,6.61,0,0,1-1.2-2.09,6.92,6.92,0,0,1-.4-2.3,6.54,6.54,0,0,1,.85-3.33,6.19,6.19,0,0,1,2.37-2.28,7,7,0,0,1,3.46-.84,6.21,6.21,0,0,1,2.51.47,5.08,5.08,0,0,1,1.75,1.2,5.18,5.18,0,0,1,1,1.58,4.51,4.51,0,0,1,.33,1.63,2.82,2.82,0,0,1-.66,2,2.27,2.27,0,0,1-1.69.67h-6a1.77,1.77,0,0,0,.46,1.08,2.85,2.85,0,0,0,1,.7,3.7,3.7,0,0,0,1.33.25,8.05,8.05,0,0,0,1-.06,4.43,4.43,0,0,0,.79-.18c.22-.07.41-.15.59-.22s.34-.14.48-.19a2.89,2.89,0,0,1,.43-.1,1,1,0,0,1,.68.21,2.22,2.22,0,0,1,.57.71,1.75,1.75,0,0,1,.24.53,2.14,2.14,0,0,1,.06.5,1.36,1.36,0,0,1-.61,1.09,4.74,4.74,0,0,1-1.73.73A11,11,0,0,1,188.8,33.56Zm-2.67-7.41h4a1.06,1.06,0,0,0,.58-.14.62.62,0,0,0,.2-.54,1.18,1.18,0,0,0-.28-.77,1.75,1.75,0,0,0-.73-.54,2.83,2.83,0,0,0-1.09-.19,3,3,0,0,0-1.35.3,2.47,2.47,0,0,0-.94.8A1.91,1.91,0,0,0,186.13,26.15Z"/><path class="cls-3" d="M201.33,33.34a16.4,16.4,0,0,1-1.83-.1,3.9,3.9,0,0,1-1.35-.4,2.58,2.58,0,0,1-.9-.84,4,4,0,0,1-.52-1.38,10,10,0,0,1-.17-2.06V17a4.4,4.4,0,0,1,.1-.92,1.15,1.15,0,0,1,.49-.7,2.29,2.29,0,0,1,1.31-.28,2.33,2.33,0,0,1,1.29.28,1.18,1.18,0,0,1,.49.7,4.4,4.4,0,0,1,.1.92V28.39a4,4,0,0,0,0,.66.77.77,0,0,0,.15.41.51.51,0,0,0,.31.2,1.9,1.9,0,0,0,.52.05,2.7,2.7,0,0,1,.62.08.91.91,0,0,1,.54.45,2.7,2.7,0,0,1,.22,1.25,2.79,2.79,0,0,1-.23,1.3.84.84,0,0,1-.53.47A2.8,2.8,0,0,1,201.33,33.34Z"/><path class="cls-3" d="M213,33.32a2.5,2.5,0,0,1-1.31-.26,1,1,0,0,1-.47-.7,4.53,4.53,0,0,1-.09-.91v-8.8a4.13,4.13,0,0,1,.09-.89,1,1,0,0,1,.49-.66,2.6,2.6,0,0,1,1.33-.25,2.49,2.49,0,0,1,1.17.21,1,1,0,0,1,.49.51,1.73,1.73,0,0,1,.11.56,1,1,0,0,0,.05.37l-.15.47a1.43,1.43,0,0,1,.39-.76,3.53,3.53,0,0,1,.85-.7A4.73,4.73,0,0,1,217,21a4.29,4.29,0,0,1,1.16-.17,5.05,5.05,0,0,1,2.14.44,4.29,4.29,0,0,1,1.58,1.26,5.65,5.65,0,0,1,1,1.94,8.51,8.51,0,0,1,.34,2.44v4.55a5.4,5.4,0,0,1-.08.91,1.06,1.06,0,0,1-.48.69,2.68,2.68,0,0,1-1.34.25,2.43,2.43,0,0,1-1.32-.27,1.06,1.06,0,0,1-.49-.7,4.46,4.46,0,0,1-.09-.91V26.92a2.74,2.74,0,0,0-.27-1.27,1.8,1.8,0,0,0-.74-.8,2.5,2.5,0,0,0-1.22-.28,2.59,2.59,0,0,0-1.25.29,2,2,0,0,0-.81.81,2.59,2.59,0,0,0-.29,1.25v4.55a4.46,4.46,0,0,1-.09.91,1,1,0,0,1-.48.69A2.47,2.47,0,0,1,213,33.32Z"/><path class="cls-3" d="M231,33.33a5.25,5.25,0,0,1-2.18-.45,5.43,5.43,0,0,1-1.75-1.26,5.85,5.85,0,0,1-1.16-1.93,7.06,7.06,0,0,1-.41-2.44V22.73a4.59,4.59,0,0,1,.09-.93,1.13,1.13,0,0,1,.49-.7,2.46,2.46,0,0,1,1.32-.27,2.31,2.31,0,0,1,1.32.28,1.1,1.1,0,0,1,.47.71,4.62,4.62,0,0,1,.09.94v4.5a2.78,2.78,0,0,0,.26,1.26,1.73,1.73,0,0,0,.77.81,2.46,2.46,0,0,0,1.21.28,2.5,2.5,0,0,0,1.24-.29,2,2,0,0,0,.8-.81,2.59,2.59,0,0,0,.29-1.25V22.71a4.59,4.59,0,0,1,.09-.93,1,1,0,0,1,.49-.68,2.38,2.38,0,0,1,1.32-.26,2.41,2.41,0,0,1,1.32.27,1.1,1.1,0,0,1,.47.71,4.63,4.63,0,0,1,.09.92v8.8a4.88,4.88,0,0,1-.08.88,1.06,1.06,0,0,1-.49.67,2.63,2.63,0,0,1-1.3.25,2.89,2.89,0,0,1-1.05-.16,1.23,1.23,0,0,1-.55-.37.94.94,0,0,1-.21-.48,2.42,2.42,0,0,1,0-.45l.32-.27a3.74,3.74,0,0,1-.32.39,7.18,7.18,0,0,1-.66.57,4.28,4.28,0,0,1-1,.54A3.31,3.31,0,0,1,231,33.33ZM230.64,20a.85.85,0,0,1-.74-.25,2.71,2.71,0,0,1-.51-1,2,2,0,0,1-.1-1.3,1.36,1.36,0,0,1,.92-.68l4.4-1.35a.91.91,0,0,1,.73.29,2.53,2.53,0,0,1,.5,1,1.85,1.85,0,0,1,.08,1.27,1.28,1.28,0,0,1-.91.68Z"/><path class="cls-3" d="M242,33.36a2.38,2.38,0,0,1-1.3-.27,1.08,1.08,0,0,1-.48-.7,5.41,5.41,0,0,1-.07-.93V22.71a4.43,4.43,0,0,1,.09-.9,1,1,0,0,1,.49-.68,2.46,2.46,0,0,1,1.32-.27,2.05,2.05,0,0,1,1.35.37,1.44,1.44,0,0,1,.43,1.18l-.33.28a3.58,3.58,0,0,1,.3-.43,5.63,5.63,0,0,1,.65-.62,4.1,4.1,0,0,1,.94-.56,2.83,2.83,0,0,1,1.16-.24,4.31,4.31,0,0,1,1.49.24,3.82,3.82,0,0,1,1.2.7,4.55,4.55,0,0,1,.94,1.16,6.22,6.22,0,0,1,.85-1,4.66,4.66,0,0,1,1.17-.8,3.44,3.44,0,0,1,1.53-.32,4.14,4.14,0,0,1,2.49.73,4.6,4.6,0,0,1,1.53,2.12,9.32,9.32,0,0,1,.53,3.32V31.5a3.85,3.85,0,0,1-.1.91,1.11,1.11,0,0,1-.48.7,3.42,3.42,0,0,1-2.64,0,1.07,1.07,0,0,1-.48-.72,5.33,5.33,0,0,1-.07-.91V27a3.81,3.81,0,0,0-.19-1.29,1.84,1.84,0,0,0-.53-.83,1.4,1.4,0,0,0-.9-.28,1.56,1.56,0,0,0-1.58,1.07,3.92,3.92,0,0,0-.2,1.35v4.47a3.14,3.14,0,0,1-.13.94,1.19,1.19,0,0,1-.53.7,2.5,2.5,0,0,1-1.34.24,2.09,2.09,0,0,1-1.25-.29,1.12,1.12,0,0,1-.45-.73,5.14,5.14,0,0,1-.08-.88V27a4.21,4.21,0,0,0-.18-1.3,1.62,1.62,0,0,0-.52-.82,1.43,1.43,0,0,0-.93-.28,1.54,1.54,0,0,0-1,.33,1.78,1.78,0,0,0-.59.86,3.53,3.53,0,0,0-.19,1.21v4.5a4.42,4.42,0,0,1-.09.92,1,1,0,0,1-.49.69A2.45,2.45,0,0,1,242,33.36Z"/><path class="cls-3" d="M266.9,33.6a7.28,7.28,0,0,1-3-.57,5.86,5.86,0,0,1-2.06-1.52,6.33,6.33,0,0,1-1.2-2.09,6.83,6.83,0,0,1-.4-2.3,6.41,6.41,0,0,1,.85-3.32,6.14,6.14,0,0,1,2.37-2.29,7.08,7.08,0,0,1,3.46-.83,6.22,6.22,0,0,1,2.51.46,5.23,5.23,0,0,1,1.75,1.2,5.11,5.11,0,0,1,1,1.59,4.33,4.33,0,0,1,.34,1.63,2.84,2.84,0,0,1-.66,2.05,2.28,2.28,0,0,1-1.69.67h-5.95a1.76,1.76,0,0,0,.46,1.07,2.73,2.73,0,0,0,1,.7,3.48,3.48,0,0,0,1.32.25,8.1,8.1,0,0,0,1-.06,4.49,4.49,0,0,0,.79-.17l.59-.23.48-.18a1.89,1.89,0,0,1,.43-.1,1,1,0,0,1,.67.21,2.11,2.11,0,0,1,.58.71,2,2,0,0,1,.24.53,2.07,2.07,0,0,1,.06.5,1.35,1.35,0,0,1-.61,1.08,4.73,4.73,0,0,1-1.73.74A11.56,11.56,0,0,1,266.9,33.6Zm-2.67-7.4h3.95a1.06,1.06,0,0,0,.58-.13.62.62,0,0,0,.2-.54,1.24,1.24,0,0,0-.28-.77,1.64,1.64,0,0,0-.74-.54,2.74,2.74,0,0,0-1.08-.19,3,3,0,0,0-1.35.3,2.31,2.31,0,0,0-.94.8A1.84,1.84,0,0,0,264.23,26.2Z"/><path class="cls-3" d="M276.5,33.38a2.38,2.38,0,0,1-1.31-.26,1.07,1.07,0,0,1-.48-.71,5.64,5.64,0,0,1-.08-.93V22.76a4.52,4.52,0,0,1,.09-.93,1,1,0,0,1,.49-.68,2.46,2.46,0,0,1,1.32-.27,2.52,2.52,0,0,1,1.27.24,1,1,0,0,1,.48.55,1.73,1.73,0,0,1,.1.54l-.3.15a2.27,2.27,0,0,1,.27-.36,3.1,3.1,0,0,1,.58-.55,3.47,3.47,0,0,1,.92-.49,3.56,3.56,0,0,1,1.23-.2,4.7,4.7,0,0,1,.62,0,4.89,4.89,0,0,1,.7.15,3.32,3.32,0,0,1,.66.3,1.8,1.8,0,0,1,.49.46,1.23,1.23,0,0,1,.18.68,3.14,3.14,0,0,1-.47,1.74,1.42,1.42,0,0,1-1.2.71,1.66,1.66,0,0,1-.6-.07,1,1,0,0,1-.29-.15l-.26-.15a1.72,1.72,0,0,0-.55-.06,2.84,2.84,0,0,0-.72.1,2.12,2.12,0,0,0-.62.31,1.63,1.63,0,0,0-.45.53,1.49,1.49,0,0,0-.16.71v5.48a4.53,4.53,0,0,1-.09.91,1,1,0,0,1-.48.69A2.73,2.73,0,0,1,276.5,33.38Z"/><path class="cls-3" d="M291.7,33.59a6.29,6.29,0,0,1-2.34-.46,7.24,7.24,0,0,1-2.11-1.31,6.53,6.53,0,0,1-1.51-2,6.47,6.47,0,0,1-.05-5.15,6.83,6.83,0,0,1,1.42-2.06,7,7,0,0,1,2.06-1.42,6.13,6.13,0,0,1,2.49-.51,6.24,6.24,0,0,1,3.26.87,6.48,6.48,0,0,1,2.34,2.34,6.69,6.69,0,0,1,.31,6,6.43,6.43,0,0,1-1.5,2A6.57,6.57,0,0,1,294,33.16,6.36,6.36,0,0,1,291.7,33.59Zm-.05-3.77a2.85,2.85,0,0,0,1.23-.3,2.67,2.67,0,0,0,1.05-.9,2.61,2.61,0,0,0,.42-1.53A2.7,2.7,0,0,0,294,25.7a2.5,2.5,0,0,0-1-.94,2.78,2.78,0,0,0-1.41-.34,2.53,2.53,0,0,0-1.34.35,2.73,2.73,0,0,0-1,1,2.93,2.93,0,0,0,.05,2.9,2.49,2.49,0,0,0,1,.9A2.9,2.9,0,0,0,291.65,29.82Z"/><path class="cls-3" d="M309.31,22.73a2,2,0,0,1-1.3.61,1.87,1.87,0,0,1-1.25-.74,1.88,1.88,0,0,1-.63-1.37,2.25,2.25,0,0,1,.88-1.38l3.73-3.3A1.8,1.8,0,0,1,312,16a2,2,0,0,1,1.24.78,1.69,1.69,0,0,1,.61,1.33,2.26,2.26,0,0,1-.88,1.37Zm3.14,10.73A2,2,0,0,1,311,33a2.11,2.11,0,0,1-.41-1.48V17.8a2.07,2.07,0,0,1,.41-1.46,2.1,2.1,0,0,1,1.47-.41,2,2,0,0,1,1.46.43,2.15,2.15,0,0,1,.41,1.5V31.58a2.05,2.05,0,0,1-.41,1.46A2.07,2.07,0,0,1,312.45,33.46Z"/><path class="cls-3" d="M318.58,33.43a3.15,3.15,0,0,1-.87-.11,1.12,1.12,0,0,1-.66-.5,2.49,2.49,0,0,1-.25-1.31,2.25,2.25,0,0,1,.28-1.31,1.11,1.11,0,0,1,.72-.48,4.86,4.86,0,0,1,.95-.09,6,6,0,0,0,2.07-.31,4.84,4.84,0,0,0,1.51-.81,4.49,4.49,0,0,0,1-1.09,5.22,5.22,0,0,0,.58-1.12,3.07,3.07,0,0,0,.19-.94l.35.08a1.12,1.12,0,0,1-.44.44,4.32,4.32,0,0,1-.91.41,4.1,4.1,0,0,1-1.18.17,5.73,5.73,0,0,1-2.82-.7,5.61,5.61,0,0,1-2-1.86,4.65,4.65,0,0,1-.75-2.57,5.63,5.63,0,0,1,.76-2.9,5.38,5.38,0,0,1,2.06-2,5.93,5.93,0,0,1,3-.73,6.24,6.24,0,0,1,3.31.84A5.37,5.37,0,0,1,327.55,19a9.1,9.1,0,0,1,.73,3.84,13.43,13.43,0,0,1-.45,3.55,10.58,10.58,0,0,1-1.29,3,8.71,8.71,0,0,1-2,2.24A8.91,8.91,0,0,1,321.83,33,10.34,10.34,0,0,1,318.58,33.43ZM322.08,23a3.25,3.25,0,0,0,1.22-.21,1.64,1.64,0,0,0,.77-.64,1.74,1.74,0,0,0,.26-1,2.3,2.3,0,0,0-.23-1.1,1.54,1.54,0,0,0-.7-.68,2.75,2.75,0,0,0-1.19-.22,2.84,2.84,0,0,0-1.19.22,1.58,1.58,0,0,0-.72.65,2.16,2.16,0,0,0-.24,1.08,1.86,1.86,0,0,0,.25,1,1.57,1.57,0,0,0,.71.66A2.39,2.39,0,0,0,322.08,23Z"/><path class="cls-2" d="M118.17,15.79a3.84,3.84,0,0,1,.78.07,1,1,0,0,1,.59.43,2.22,2.22,0,0,1,.22,1.15,2.18,2.18,0,0,1-.22,1.13.91.91,0,0,1-.6.42,4.11,4.11,0,0,1-.8.07h-4V31.44a4.43,4.43,0,0,1-.09.9,1.06,1.06,0,0,1-.48.68,2.44,2.44,0,0,1-1.34.27,2.33,2.33,0,0,1-1.27-.27,1.06,1.06,0,0,1-.49-.7,4.47,4.47,0,0,1-.08-.91V19.06h-4a3.31,3.31,0,0,1-.77-.09,1,1,0,0,1-.61-.43,2,2,0,0,1-.24-1.13,2,2,0,0,1,.24-1.13,1,1,0,0,1,.61-.42,3.94,3.94,0,0,1,.77-.08Z"/><path class="cls-2" d="M123.73,33.29a2.45,2.45,0,0,1-1.31-.26,1.09,1.09,0,0,1-.48-.71,4.73,4.73,0,0,1-.09-.93V22.67a4.52,4.52,0,0,1,.09-.93,1.08,1.08,0,0,1,.49-.69A3.45,3.45,0,0,1,125,21a1.06,1.06,0,0,1,.49.55,1.73,1.73,0,0,1,.1.54l-.3.15a2,2,0,0,1,.26-.36,3.6,3.6,0,0,1,1.5-1,3.62,3.62,0,0,1,1.24-.2,4.45,4.45,0,0,1,.61,0,3,3,0,0,1,.7.15,2.4,2.4,0,0,1,.67.3,1.51,1.51,0,0,1,.48.46,1.16,1.16,0,0,1,.19.68,3,3,0,0,1-.48,1.73,1.39,1.39,0,0,1-1.2.72,1.73,1.73,0,0,1-.6-.07.92.92,0,0,1-.28-.15,1.17,1.17,0,0,0-.27-.15,1.65,1.65,0,0,0-.54-.06,2.46,2.46,0,0,0-.72.1,2.12,2.12,0,0,0-.62.31,1.44,1.44,0,0,0-.45.53,1.49,1.49,0,0,0-.17.71v5.47a4.56,4.56,0,0,1-.09.92,1,1,0,0,1-.49.68A2.53,2.53,0,0,1,123.73,33.29Z"/><path class="cls-2" d="M143.13,33.28a2.34,2.34,0,0,1-1.38-.33.88.88,0,0,1-.42-.8l.25-.42a2.72,2.72,0,0,1-.57.61,4.25,4.25,0,0,1-2.78.94,5,5,0,0,1-2.19-.5,6.17,6.17,0,0,1-1.84-1.39,7.27,7.27,0,0,1-1.27-2,6.13,6.13,0,0,1,0-4.71,6.72,6.72,0,0,1,1.29-2,6.19,6.19,0,0,1,1.84-1.36,4.81,4.81,0,0,1,2.18-.5,4.1,4.1,0,0,1,1.57.26,4.65,4.65,0,0,1,1.09.61,3.45,3.45,0,0,1,.66.68l-.22-.35a1,1,0,0,1,.43-.91,2.44,2.44,0,0,1,1.39-.32,2.33,2.33,0,0,1,1.29.28,1.12,1.12,0,0,1,.47.73,4.79,4.79,0,0,1,.09,1v8.62a4.73,4.73,0,0,1-.09.93,1.09,1.09,0,0,1-.48.71A2.48,2.48,0,0,1,143.13,33.28Zm-4.37-3.73a2.21,2.21,0,0,0,1.2-.33,2.67,2.67,0,0,0,.85-3.48,2.5,2.5,0,0,0-.88-.89,2.39,2.39,0,0,0-1.22-.32,2.42,2.42,0,0,0-1.26.33,2.48,2.48,0,0,0-.9.92,2.45,2.45,0,0,0-.34,1.3,2.36,2.36,0,0,0,.33,1.23,2.6,2.6,0,0,0,2.22,1.24Z"/><path class="cls-2" d="M148.88,33.31a1.76,1.76,0,0,1-1.31-.54,1.81,1.81,0,0,1-.54-1.34,2,2,0,0,1,.14-.72,1.85,1.85,0,0,1,.41-.63l5.68-5.49h-3.8a3.85,3.85,0,0,1-.91-.1,1.2,1.2,0,0,1-.73-.49,2.24,2.24,0,0,1-.29-1.31,2.37,2.37,0,0,1,.29-1.31,1.13,1.13,0,0,1,.73-.47,4.46,4.46,0,0,1,.91-.09h7.83a1.79,1.79,0,0,1,1.32.53,1.75,1.75,0,0,1,.52,1.32,2.19,2.19,0,0,1-.13.77,1.42,1.42,0,0,1-.39.58l-5.55,5.53h4.52a4,4,0,0,1,.93.1,1.09,1.09,0,0,1,.68.5,2.38,2.38,0,0,1,.26,1.32,2.38,2.38,0,0,1-.27,1.3,1.05,1.05,0,0,1-.7.48,5.41,5.41,0,0,1-.93.07Z"/><path class="cls-2" d="M171.7,33.3a2.33,2.33,0,0,1-1.37-.33.92.92,0,0,1-.43-.8l.25-.42a3,3,0,0,1-.57.61,4.28,4.28,0,0,1-1.11.65,4.39,4.39,0,0,1-1.67.28,4.87,4.87,0,0,1-2.18-.5,5.63,5.63,0,0,1-1.84-1.39,7,7,0,0,1-1.27-2A6,6,0,0,1,161,27a5.82,5.82,0,0,1,.48-2.33,6.9,6.9,0,0,1,1.29-2,6.42,6.42,0,0,1,1.84-1.36,4.9,4.9,0,0,1,2.17-.5,4.14,4.14,0,0,1,1.58.27,4.24,4.24,0,0,1,1.08.61,3,3,0,0,1,.66.68l-.22-.35a1.07,1.07,0,0,1,.44-.92,2.4,2.4,0,0,1,1.39-.31,2.21,2.21,0,0,1,1.28.28,1.11,1.11,0,0,1,.48.72,4.86,4.86,0,0,1,.09.95V31.4a4.7,4.7,0,0,1-.09.92A1.09,1.09,0,0,1,173,33,2.41,2.41,0,0,1,171.7,33.3Zm-4.37-3.73a2.13,2.13,0,0,0,1.2-.34,2.57,2.57,0,0,0,.85-.91,2.51,2.51,0,0,0,.33-1.27,2.48,2.48,0,0,0-.33-1.29,2.32,2.32,0,0,0-.87-.89,2.36,2.36,0,0,0-1.23-.33,2.48,2.48,0,0,0-1.26.34,2.7,2.7,0,0,0-.9.91,2.6,2.6,0,0,0-.34,1.3,2.34,2.34,0,0,0,.34,1.24,2.41,2.41,0,0,0,.92.9A2.49,2.49,0,0,0,167.33,29.57Z"/><path class="cls-2" d="M188.8,33.56a7.28,7.28,0,0,1-3-.58,5.84,5.84,0,0,1-2.06-1.51,6.61,6.61,0,0,1-1.2-2.09,6.92,6.92,0,0,1-.4-2.3,6.54,6.54,0,0,1,.85-3.33,6.19,6.19,0,0,1,2.37-2.28,7,7,0,0,1,3.46-.84,6.21,6.21,0,0,1,2.51.47,5.08,5.08,0,0,1,1.75,1.2,5.18,5.18,0,0,1,1,1.58,4.51,4.51,0,0,1,.33,1.63,2.82,2.82,0,0,1-.66,2,2.27,2.27,0,0,1-1.69.67h-6a1.77,1.77,0,0,0,.46,1.08,2.85,2.85,0,0,0,1,.7,3.7,3.7,0,0,0,1.33.25,8.05,8.05,0,0,0,1-.06,4.43,4.43,0,0,0,.79-.18c.22-.07.41-.15.59-.22s.34-.14.48-.19a2.89,2.89,0,0,1,.43-.1,1,1,0,0,1,.68.21,2.22,2.22,0,0,1,.57.71,1.75,1.75,0,0,1,.24.53,2.14,2.14,0,0,1,.06.5,1.36,1.36,0,0,1-.61,1.09,4.74,4.74,0,0,1-1.73.73A11,11,0,0,1,188.8,33.56Zm-2.67-7.41h4a1.06,1.06,0,0,0,.58-.14.62.62,0,0,0,.2-.54,1.18,1.18,0,0,0-.28-.77,1.75,1.75,0,0,0-.73-.54,2.83,2.83,0,0,0-1.09-.19,3,3,0,0,0-1.35.3,2.47,2.47,0,0,0-.94.8A1.91,1.91,0,0,0,186.13,26.15Z"/><path class="cls-2" d="M201.33,33.34a16.4,16.4,0,0,1-1.83-.1,3.9,3.9,0,0,1-1.35-.4,2.58,2.58,0,0,1-.9-.84,4,4,0,0,1-.52-1.38,10,10,0,0,1-.17-2.06V17a4.4,4.4,0,0,1,.1-.92,1.15,1.15,0,0,1,.49-.7,2.29,2.29,0,0,1,1.31-.28,2.33,2.33,0,0,1,1.29.28,1.18,1.18,0,0,1,.49.7,4.4,4.4,0,0,1,.1.92V28.39a4,4,0,0,0,0,.66.77.77,0,0,0,.15.41.51.51,0,0,0,.31.2,1.9,1.9,0,0,0,.52.05,2.7,2.7,0,0,1,.62.08.91.91,0,0,1,.54.45,2.7,2.7,0,0,1,.22,1.25,2.79,2.79,0,0,1-.23,1.3.84.84,0,0,1-.53.47A2.8,2.8,0,0,1,201.33,33.34Z"/><path class="cls-2" d="M213,33.32a2.5,2.5,0,0,1-1.31-.26,1,1,0,0,1-.47-.7,4.53,4.53,0,0,1-.09-.91v-8.8a4.13,4.13,0,0,1,.09-.89,1,1,0,0,1,.49-.66,2.6,2.6,0,0,1,1.33-.25,2.49,2.49,0,0,1,1.17.21,1,1,0,0,1,.49.51,1.73,1.73,0,0,1,.11.56,1,1,0,0,0,.05.37l-.15.47a1.43,1.43,0,0,1,.39-.76,3.53,3.53,0,0,1,.85-.7A4.73,4.73,0,0,1,217,21a4.29,4.29,0,0,1,1.16-.17,5.05,5.05,0,0,1,2.14.44,4.29,4.29,0,0,1,1.58,1.26,5.65,5.65,0,0,1,1,1.94,8.51,8.51,0,0,1,.34,2.44v4.55a5.4,5.4,0,0,1-.08.91,1.06,1.06,0,0,1-.48.69,2.68,2.68,0,0,1-1.34.25,2.43,2.43,0,0,1-1.32-.27,1.06,1.06,0,0,1-.49-.7,4.46,4.46,0,0,1-.09-.91V26.92a2.74,2.74,0,0,0-.27-1.27,1.8,1.8,0,0,0-.74-.8,2.5,2.5,0,0,0-1.22-.28,2.59,2.59,0,0,0-1.25.29,2,2,0,0,0-.81.81,2.59,2.59,0,0,0-.29,1.25v4.55a4.46,4.46,0,0,1-.09.91,1,1,0,0,1-.48.69A2.47,2.47,0,0,1,213,33.32Z"/><path class="cls-2" d="M231,33.33a5.25,5.25,0,0,1-2.18-.45,5.43,5.43,0,0,1-1.75-1.26,5.85,5.85,0,0,1-1.16-1.93,7.06,7.06,0,0,1-.41-2.44V22.73a4.59,4.59,0,0,1,.09-.93,1.13,1.13,0,0,1,.49-.7,2.46,2.46,0,0,1,1.32-.27,2.31,2.31,0,0,1,1.32.28,1.1,1.1,0,0,1,.47.71,4.62,4.62,0,0,1,.09.94v4.5a2.78,2.78,0,0,0,.26,1.26,1.73,1.73,0,0,0,.77.81,2.46,2.46,0,0,0,1.21.28,2.5,2.5,0,0,0,1.24-.29,2,2,0,0,0,.8-.81,2.59,2.59,0,0,0,.29-1.25V22.71a4.59,4.59,0,0,1,.09-.93,1,1,0,0,1,.49-.68,2.38,2.38,0,0,1,1.32-.26,2.41,2.41,0,0,1,1.32.27,1.1,1.1,0,0,1,.47.71,4.63,4.63,0,0,1,.09.92v8.8a4.88,4.88,0,0,1-.08.88,1.06,1.06,0,0,1-.49.67,2.63,2.63,0,0,1-1.3.25,2.89,2.89,0,0,1-1.05-.16,1.23,1.23,0,0,1-.55-.37.94.94,0,0,1-.21-.48,2.42,2.42,0,0,1,0-.45l.32-.27a3.74,3.74,0,0,1-.32.39,7.18,7.18,0,0,1-.66.57,4.28,4.28,0,0,1-1,.54A3.31,3.31,0,0,1,231,33.33ZM230.64,20a.85.85,0,0,1-.74-.25,2.71,2.71,0,0,1-.51-1,2,2,0,0,1-.1-1.3,1.36,1.36,0,0,1,.92-.68l4.4-1.35a.91.91,0,0,1,.73.29,2.53,2.53,0,0,1,.5,1,1.85,1.85,0,0,1,.08,1.27,1.28,1.28,0,0,1-.91.68Z"/><path class="cls-2" d="M242,33.36a2.38,2.38,0,0,1-1.3-.27,1.08,1.08,0,0,1-.48-.7,5.41,5.41,0,0,1-.07-.93V22.71a4.43,4.43,0,0,1,.09-.9,1,1,0,0,1,.49-.68,2.46,2.46,0,0,1,1.32-.27,2.05,2.05,0,0,1,1.35.37,1.44,1.44,0,0,1,.43,1.18l-.33.28a3.58,3.58,0,0,1,.3-.43,5.63,5.63,0,0,1,.65-.62,4.1,4.1,0,0,1,.94-.56,2.83,2.83,0,0,1,1.16-.24,4.31,4.31,0,0,1,1.49.24,3.82,3.82,0,0,1,1.2.7,4.55,4.55,0,0,1,.94,1.16,6.22,6.22,0,0,1,.85-1,4.66,4.66,0,0,1,1.17-.8,3.44,3.44,0,0,1,1.53-.32,4.14,4.14,0,0,1,2.49.73,4.6,4.6,0,0,1,1.53,2.12,9.32,9.32,0,0,1,.53,3.32V31.5a3.85,3.85,0,0,1-.1.91,1.11,1.11,0,0,1-.48.7,3.42,3.42,0,0,1-2.64,0,1.07,1.07,0,0,1-.48-.72,5.33,5.33,0,0,1-.07-.91V27a3.81,3.81,0,0,0-.19-1.29,1.84,1.84,0,0,0-.53-.83,1.4,1.4,0,0,0-.9-.28,1.56,1.56,0,0,0-1.58,1.07,3.92,3.92,0,0,0-.2,1.35v4.47a3.14,3.14,0,0,1-.13.94,1.19,1.19,0,0,1-.53.7,2.5,2.5,0,0,1-1.34.24,2.09,2.09,0,0,1-1.25-.29,1.12,1.12,0,0,1-.45-.73,5.14,5.14,0,0,1-.08-.88V27a4.21,4.21,0,0,0-.18-1.3,1.62,1.62,0,0,0-.52-.82,1.43,1.43,0,0,0-.93-.28,1.54,1.54,0,0,0-1,.33,1.78,1.78,0,0,0-.59.86,3.53,3.53,0,0,0-.19,1.21v4.5a4.42,4.42,0,0,1-.09.92,1,1,0,0,1-.49.69A2.45,2.45,0,0,1,242,33.36Z"/><path class="cls-2" d="M266.9,33.6a7.28,7.28,0,0,1-3-.57,5.86,5.86,0,0,1-2.06-1.52,6.33,6.33,0,0,1-1.2-2.09,6.83,6.83,0,0,1-.4-2.3,6.41,6.41,0,0,1,.85-3.32,6.14,6.14,0,0,1,2.37-2.29,7.08,7.08,0,0,1,3.46-.83,6.22,6.22,0,0,1,2.51.46,5.23,5.23,0,0,1,1.75,1.2,5.11,5.11,0,0,1,1,1.59,4.33,4.33,0,0,1,.34,1.63,2.84,2.84,0,0,1-.66,2.05,2.28,2.28,0,0,1-1.69.67h-5.95a1.76,1.76,0,0,0,.46,1.07,2.73,2.73,0,0,0,1,.7,3.48,3.48,0,0,0,1.32.25,8.1,8.1,0,0,0,1-.06,4.49,4.49,0,0,0,.79-.17l.59-.23.48-.18a1.89,1.89,0,0,1,.43-.1,1,1,0,0,1,.67.21,2.11,2.11,0,0,1,.58.71,2,2,0,0,1,.24.53,2.07,2.07,0,0,1,.06.5,1.35,1.35,0,0,1-.61,1.08,4.73,4.73,0,0,1-1.73.74A11.56,11.56,0,0,1,266.9,33.6Zm-2.67-7.4h3.95a1.06,1.06,0,0,0,.58-.13.62.62,0,0,0,.2-.54,1.24,1.24,0,0,0-.28-.77,1.64,1.64,0,0,0-.74-.54,2.74,2.74,0,0,0-1.08-.19,3,3,0,0,0-1.35.3,2.31,2.31,0,0,0-.94.8A1.84,1.84,0,0,0,264.23,26.2Z"/><path class="cls-2" d="M276.5,33.38a2.38,2.38,0,0,1-1.31-.26,1.07,1.07,0,0,1-.48-.71,5.64,5.64,0,0,1-.08-.93V22.76a4.52,4.52,0,0,1,.09-.93,1,1,0,0,1,.49-.68,2.46,2.46,0,0,1,1.32-.27,2.52,2.52,0,0,1,1.27.24,1,1,0,0,1,.48.55,1.73,1.73,0,0,1,.1.54l-.3.15a2.27,2.27,0,0,1,.27-.36,3.1,3.1,0,0,1,.58-.55,3.47,3.47,0,0,1,.92-.49,3.56,3.56,0,0,1,1.23-.2,4.7,4.7,0,0,1,.62,0,4.89,4.89,0,0,1,.7.15,3.32,3.32,0,0,1,.66.3,1.8,1.8,0,0,1,.49.46,1.23,1.23,0,0,1,.18.68,3.14,3.14,0,0,1-.47,1.74,1.42,1.42,0,0,1-1.2.71,1.66,1.66,0,0,1-.6-.07,1,1,0,0,1-.29-.15l-.26-.15a1.72,1.72,0,0,0-.55-.06,2.84,2.84,0,0,0-.72.1,2.12,2.12,0,0,0-.62.31,1.63,1.63,0,0,0-.45.53,1.49,1.49,0,0,0-.16.71v5.48a4.53,4.53,0,0,1-.09.91,1,1,0,0,1-.48.69A2.73,2.73,0,0,1,276.5,33.38Z"/><path class="cls-2" d="M291.7,33.59a6.29,6.29,0,0,1-2.34-.46,7.24,7.24,0,0,1-2.11-1.31,6.53,6.53,0,0,1-1.51-2,6.47,6.47,0,0,1-.05-5.15,6.83,6.83,0,0,1,1.42-2.06,7,7,0,0,1,2.06-1.42,6.13,6.13,0,0,1,2.49-.51,6.24,6.24,0,0,1,3.26.87,6.48,6.48,0,0,1,2.34,2.34,6.69,6.69,0,0,1,.31,6,6.43,6.43,0,0,1-1.5,2A6.57,6.57,0,0,1,294,33.16,6.36,6.36,0,0,1,291.7,33.59Zm-.05-3.77a2.85,2.85,0,0,0,1.23-.3,2.67,2.67,0,0,0,1.05-.9,2.61,2.61,0,0,0,.42-1.53A2.7,2.7,0,0,0,294,25.7a2.5,2.5,0,0,0-1-.94,2.78,2.78,0,0,0-1.41-.34,2.53,2.53,0,0,0-1.34.35,2.73,2.73,0,0,0-1,1,2.93,2.93,0,0,0,.05,2.9,2.49,2.49,0,0,0,1,.9A2.9,2.9,0,0,0,291.65,29.82Z"/><path class="cls-2" d="M309.31,22.73a2,2,0,0,1-1.3.61,1.87,1.87,0,0,1-1.25-.74,1.88,1.88,0,0,1-.63-1.37,2.25,2.25,0,0,1,.88-1.38l3.73-3.3A1.8,1.8,0,0,1,312,16a2,2,0,0,1,1.24.78,1.69,1.69,0,0,1,.61,1.33,2.26,2.26,0,0,1-.88,1.37Zm3.14,10.73A2,2,0,0,1,311,33a2.11,2.11,0,0,1-.41-1.48V17.8a2.07,2.07,0,0,1,.41-1.46,2.1,2.1,0,0,1,1.47-.41,2,2,0,0,1,1.46.43,2.15,2.15,0,0,1,.41,1.5V31.58a2.05,2.05,0,0,1-.41,1.46A2.07,2.07,0,0,1,312.45,33.46Z"/><path class="cls-2" d="M318.58,33.43a3.15,3.15,0,0,1-.87-.11,1.12,1.12,0,0,1-.66-.5,2.49,2.49,0,0,1-.25-1.31,2.25,2.25,0,0,1,.28-1.31,1.11,1.11,0,0,1,.72-.48,4.86,4.86,0,0,1,.95-.09,6,6,0,0,0,2.07-.31,4.84,4.84,0,0,0,1.51-.81,4.49,4.49,0,0,0,1-1.09,5.22,5.22,0,0,0,.58-1.12,3.07,3.07,0,0,0,.19-.94l.35.08a1.12,1.12,0,0,1-.44.44,4.32,4.32,0,0,1-.91.41,4.1,4.1,0,0,1-1.18.17,5.73,5.73,0,0,1-2.82-.7,5.61,5.61,0,0,1-2-1.86,4.65,4.65,0,0,1-.75-2.57,5.63,5.63,0,0,1,.76-2.9,5.38,5.38,0,0,1,2.06-2,5.93,5.93,0,0,1,3-.73,6.24,6.24,0,0,1,3.31.84A5.37,5.37,0,0,1,327.55,19a9.1,9.1,0,0,1,.73,3.84,13.43,13.43,0,0,1-.45,3.55,10.58,10.58,0,0,1-1.29,3,8.71,8.71,0,0,1-2,2.24A8.91,8.91,0,0,1,321.83,33,10.34,10.34,0,0,1,318.58,33.43ZM322.08,23a3.25,3.25,0,0,0,1.22-.21,1.64,1.64,0,0,0,.77-.64,1.74,1.74,0,0,0,.26-1,2.3,2.3,0,0,0-.23-1.1,1.54,1.54,0,0,0-.7-.68,2.75,2.75,0,0,0-1.19-.22,2.84,2.84,0,0,0-1.19.22,1.58,1.58,0,0,0-.72.65,2.16,2.16,0,0,0-.24,1.08,1.86,1.86,0,0,0,.25,1,1.57,1.57,0,0,0,.71.66A2.39,2.39,0,0,0,322.08,23Z"/><path class="cls-4" d="M55.46,34c0,2.26-.4,3.88-1.18,4.85a4.39,4.39,0,0,1-3.59,1.45,5.59,5.59,0,0,1-2.57-.51,3.22,3.22,0,0,1-1.48-1.85,11,11,0,0,1-.55-3.61L46,18.67a6.3,6.3,0,0,1-3.21-.74,2.58,2.58,0,0,1-1.26-2.46,2.78,2.78,0,0,1,1.16-2.29,5.16,5.16,0,0,1,3.24-.9l2.3,0c1,0,1.69,0,2.1,0,2,0,3.36.35,4,1a5,5,0,0,1,1,3.59Z"/><path class="cls-4" d="M72.41,29.59a13.69,13.69,0,0,1-4.07.67,8.62,8.62,0,0,1-9-8.91,9.77,9.77,0,0,1,1.27-5,8.22,8.22,0,0,1,3.53-3.25A11.73,11.73,0,0,1,69.41,12a13.1,13.1,0,0,1,4.93.86A9.48,9.48,0,0,1,77.8,15a11.11,11.11,0,0,1,2.14,3.26,15.12,15.12,0,0,1,1.14,3.76,24.64,24.64,0,0,1,.3,3.92,23.29,23.29,0,0,1-.47,4.81,14.73,14.73,0,0,1-1.51,4.06A11.44,11.44,0,0,1,76.79,38a11.22,11.22,0,0,1-3.88,2,17.31,17.31,0,0,1-5.19.72,10.12,10.12,0,0,1-5.54-1.43,4.27,4.27,0,0,1-2.24-3.7,4,4,0,0,1,.9-2.56,2.81,2.81,0,0,1,2.32-1.13,5.49,5.49,0,0,1,2.2.79,5.8,5.8,0,0,0,2.69.8A4.1,4.1,0,0,0,70,33a4.9,4.9,0,0,0,2.44-3.4Zm-4.92-8A8.81,8.81,0,0,0,68,24.78c.35.91.85,1.36,1.51,1.36a1.45,1.45,0,0,0,1.16-.69,4.68,4.68,0,0,0,.75-1.72,9.38,9.38,0,0,0,.25-2.12,7.88,7.88,0,0,0-.57-3.11q-.57-1.35-1.59-1.35c-.68,0-1.19.44-1.53,1.31A8.59,8.59,0,0,0,67.49,21.61Z"/><path class="cls-5" d="M55.46,34c0,2.26-.4,3.88-1.18,4.85a4.39,4.39,0,0,1-3.59,1.45,5.59,5.59,0,0,1-2.57-.51,3.22,3.22,0,0,1-1.48-1.85,11,11,0,0,1-.55-3.61L46,18.67a6.3,6.3,0,0,1-3.21-.74,2.58,2.58,0,0,1-1.26-2.46,2.78,2.78,0,0,1,1.16-2.29,5.16,5.16,0,0,1,3.24-.9l2.3,0c1,0,1.69,0,2.1,0,2,0,3.36.35,4,1a5,5,0,0,1,1,3.59Z"/><path class="cls-5" d="M72.41,29.59a13.69,13.69,0,0,1-4.07.67,8.62,8.62,0,0,1-9-8.91,9.77,9.77,0,0,1,1.27-5,8.22,8.22,0,0,1,3.53-3.25A11.73,11.73,0,0,1,69.41,12a13.1,13.1,0,0,1,4.93.86A9.48,9.48,0,0,1,77.8,15a11.11,11.11,0,0,1,2.14,3.26,15.12,15.12,0,0,1,1.14,3.76,24.64,24.64,0,0,1,.3,3.92,23.29,23.29,0,0,1-.47,4.81,14.73,14.73,0,0,1-1.51,4.06A11.44,11.44,0,0,1,76.79,38a11.22,11.22,0,0,1-3.88,2,17.31,17.31,0,0,1-5.19.72,10.12,10.12,0,0,1-5.54-1.43,4.27,4.27,0,0,1-2.24-3.7,4,4,0,0,1,.9-2.56,2.81,2.81,0,0,1,2.32-1.13,5.49,5.49,0,0,1,2.2.79,5.8,5.8,0,0,0,2.69.8A4.1,4.1,0,0,0,70,33a4.9,4.9,0,0,0,2.44-3.4Zm-4.92-8A8.81,8.81,0,0,0,68,24.78c.35.91.85,1.36,1.51,1.36a1.45,1.45,0,0,0,1.16-.69,4.68,4.68,0,0,0,.75-1.72,9.38,9.38,0,0,0,.25-2.12,7.88,7.88,0,0,0-.57-3.11q-.57-1.35-1.59-1.35c-.68,0-1.19.44-1.53,1.31A8.59,8.59,0,0,0,67.49,21.61Z"/></g></g></svg>