<svg xmlns="http://www.w3.org/2000/svg" viewBox="0 0 399.98 103.24"><defs><style>.cls-1{fill:#23841a;}.cls-2{fill:#fff;}.cls-3,.cls-4{fill:none;stroke-width:5px;}.cls-3{stroke:#ff7300;stroke-linejoin:round;}.cls-4{stroke:#fff;}.cls-5{fill:#ff7300;}</style></defs><title>31t</title><g id="Layer_2" data-name="Layer 2"><g id="pestaña_identificativa" data-name="pestaña identificativa"><rect class="cls-1" width="399.98" height="103.24" rx="28.02"/><path class="cls-2" d="M131.13,36.48a8.34,8.34,0,0,1-3.38-.69,8.85,8.85,0,0,1-5.34-8.17,9.58,9.58,0,0,1,.67-3.52,9.11,9.11,0,0,1,1.83-2.89,8.29,8.29,0,0,1,2.71-1.93,7.85,7.85,0,0,1,3.3-.7,8.53,8.53,0,0,1,6.18,2.6A9,9,0,0,1,139,24a9.13,9.13,0,0,1,.67,3.53A9,9,0,0,1,139,31a9.05,9.05,0,0,1-1.84,2.86,8.47,8.47,0,0,1-2.71,1.92A7.92,7.92,0,0,1,131.13,36.48Zm-.12-3.8a4.44,4.44,0,0,0,1.88-.4,5,5,0,0,0,1.53-1.09,4.72,4.72,0,0,0,1-1.62,5.6,5.6,0,0,0,.36-2,5.28,5.28,0,0,0-1.41-3.67,4.81,4.81,0,0,0-1.52-1.1A4.49,4.49,0,0,0,131,22.4a4.4,4.4,0,0,0-1.84.39,4.59,4.59,0,0,0-1.53,1.1,5.41,5.41,0,0,0-1.05,1.65,5.32,5.32,0,0,0,0,4,5.48,5.48,0,0,0,1.05,1.64,5.14,5.14,0,0,0,1.52,1.1A4.44,4.44,0,0,0,131,32.68Z"/><path class="cls-2" d="M143.46,36.21a2.45,2.45,0,0,1-1.31-.26,1.1,1.1,0,0,1-.48-.7,4.56,4.56,0,0,1-.09-.92v-8.8a4.1,4.1,0,0,1,.09-.88,1,1,0,0,1,.49-.67,2.66,2.66,0,0,1,1.32-.24,2.54,2.54,0,0,1,1.18.21,1,1,0,0,1,.48.51,1.53,1.53,0,0,1,.12.56.71.71,0,0,0,0,.37l-.15.47a1.48,1.48,0,0,1,.38-.76,3.74,3.74,0,0,1,.85-.7,4.93,4.93,0,0,1,1.1-.49,4.36,4.36,0,0,1,1.17-.17,5,5,0,0,1,2.13.44,4.24,4.24,0,0,1,1.59,1.26,6,6,0,0,1,1,1.94,8.52,8.52,0,0,1,.33,2.44v4.55a4.53,4.53,0,0,1-.09.91,1.08,1.08,0,0,1-.47.69,2.7,2.7,0,0,1-1.34.25,2.57,2.57,0,0,1-1.33-.27,1,1,0,0,1-.48-.7,4.46,4.46,0,0,1-.09-.91V29.81a2.74,2.74,0,0,0-.26-1.27,1.76,1.76,0,0,0-.75-.8,2.46,2.46,0,0,0-1.21-.28,2.59,2.59,0,0,0-1.25.29,2,2,0,0,0-.81.81,2.48,2.48,0,0,0-.29,1.25v4.55a5.31,5.31,0,0,1-.08.91,1,1,0,0,1-.48.69A2.49,2.49,0,0,1,143.46,36.21Z"/><path class="cls-2" d="M161.51,36.22a5,5,0,0,1-2.18-.49,5.83,5.83,0,0,1-1.82-1.36,7,7,0,0,1-1.26-2,6.35,6.35,0,0,1-.46-2.42,6,6,0,0,1,.46-2.33,6.54,6.54,0,0,1,1.28-2,6.24,6.24,0,0,1,1.84-1.36,4.88,4.88,0,0,1,2.15-.5,4.28,4.28,0,0,1,3.63,1.83,6.31,6.31,0,0,1,.94,2,9.6,9.6,0,0,1,.35,2.35,9.28,9.28,0,0,1-.3,2.4,6.23,6.23,0,0,1-.93,2,4.58,4.58,0,0,1-1.55,1.39A4.38,4.38,0,0,1,161.51,36.22Zm.5-3.7a2.19,2.19,0,0,0,1.21-.34,2.56,2.56,0,0,0,.88-.91,2.51,2.51,0,0,0,.34-1.27,2.42,2.42,0,0,0-.33-1.26,2.53,2.53,0,0,0-.87-.91A2.38,2.38,0,0,0,162,27.5a2.41,2.41,0,0,0-1.24.32,2.38,2.38,0,0,0-.88.9,2.71,2.71,0,0,0-.31,1.27,2.52,2.52,0,0,0,.33,1.28A2.48,2.48,0,0,0,162,32.52Zm4.35,3.73A2.22,2.22,0,0,1,165.1,36a1.25,1.25,0,0,1-.54-.85V20a6.73,6.73,0,0,1,.06-.91,1,1,0,0,1,.44-.71,2.15,2.15,0,0,1,1.27-.28,2.38,2.38,0,0,1,1.33.27,1.08,1.08,0,0,1,.47.69,3.82,3.82,0,0,1,.1.92v14.4a5.31,5.31,0,0,1-.08.91,1.17,1.17,0,0,1-.48.72A2.39,2.39,0,0,1,166.36,36.25Z"/><path class="cls-2" d="M181,36.23a2.42,2.42,0,0,1-1.38-.32.9.9,0,0,1-.42-.8l.25-.43a2.59,2.59,0,0,1-.58.61,3.87,3.87,0,0,1-1.11.65,4.33,4.33,0,0,1-1.66.29,5,5,0,0,1-2.19-.5A6.17,6.17,0,0,1,172,34.34a7.21,7.21,0,0,1-1.27-2,6.16,6.16,0,0,1,0-4.72,6.72,6.72,0,0,1,1.29-2,6.37,6.37,0,0,1,1.84-1.36,4.94,4.94,0,0,1,2.18-.5,4.05,4.05,0,0,1,2.66.88,3.18,3.18,0,0,1,.66.67l-.22-.35a1,1,0,0,1,.43-.91,2.42,2.42,0,0,1,1.39-.31,2.34,2.34,0,0,1,1.29.27,1.15,1.15,0,0,1,.47.73,4.86,4.86,0,0,1,.09.95v8.62a5.64,5.64,0,0,1-.08.93,1.07,1.07,0,0,1-.48.71A2.41,2.41,0,0,1,181,36.23Zm-4.38-3.72a2.25,2.25,0,0,0,1.21-.34A2.56,2.56,0,0,0,179,30a2.62,2.62,0,0,0-.32-1.29,2.4,2.4,0,0,0-.88-.88,2.3,2.3,0,0,0-1.22-.33,2.33,2.33,0,0,0-1.26.34A2.48,2.48,0,0,0,174,30a2.42,2.42,0,0,0,.33,1.24,2.6,2.6,0,0,0,2.21,1.24Z"/><path class="cls-3" d="M131.13,36.48a8.34,8.34,0,0,1-3.38-.69,8.85,8.85,0,0,1-5.34-8.17,9.58,9.58,0,0,1,.67-3.52,9.11,9.11,0,0,1,1.83-2.89,8.29,8.29,0,0,1,2.71-1.93,7.85,7.85,0,0,1,3.3-.7,8.53,8.53,0,0,1,6.18,2.6A9,9,0,0,1,139,24a9.13,9.13,0,0,1,.67,3.53A9,9,0,0,1,139,31a9.05,9.05,0,0,1-1.84,2.86,8.47,8.47,0,0,1-2.71,1.92A7.92,7.92,0,0,1,131.13,36.48Zm-.12-3.8a4.44,4.44,0,0,0,1.88-.4,5,5,0,0,0,1.53-1.09,4.72,4.72,0,0,0,1-1.62,5.6,5.6,0,0,0,.36-2,5.28,5.28,0,0,0-1.41-3.67,4.81,4.81,0,0,0-1.52-1.1A4.49,4.49,0,0,0,131,22.4a4.4,4.4,0,0,0-1.84.39,4.59,4.59,0,0,0-1.53,1.1,5.41,5.41,0,0,0-1.05,1.65,5.32,5.32,0,0,0,0,4,5.48,5.48,0,0,0,1.05,1.64,5.14,5.14,0,0,0,1.52,1.1A4.44,4.44,0,0,0,131,32.68Z"/><path class="cls-3" d="M143.46,36.21a2.45,2.45,0,0,1-1.31-.26,1.1,1.1,0,0,1-.48-.7,4.56,4.56,0,0,1-.09-.92v-8.8a4.1,4.1,0,0,1,.09-.88,1,1,0,0,1,.49-.67,2.66,2.66,0,0,1,1.32-.24,2.54,2.54,0,0,1,1.18.21,1,1,0,0,1,.48.51,1.53,1.53,0,0,1,.12.56.71.71,0,0,0,0,.37l-.15.47a1.48,1.48,0,0,1,.38-.76,3.74,3.74,0,0,1,.85-.7,4.93,4.93,0,0,1,1.1-.49,4.36,4.36,0,0,1,1.17-.17,5,5,0,0,1,2.13.44,4.24,4.24,0,0,1,1.59,1.26,6,6,0,0,1,1,1.94,8.52,8.52,0,0,1,.33,2.44v4.55a4.53,4.53,0,0,1-.09.91,1.08,1.08,0,0,1-.47.69,2.7,2.7,0,0,1-1.34.25,2.57,2.57,0,0,1-1.33-.27,1,1,0,0,1-.48-.7,4.46,4.46,0,0,1-.09-.91V29.81a2.74,2.74,0,0,0-.26-1.27,1.76,1.76,0,0,0-.75-.8,2.46,2.46,0,0,0-1.21-.28,2.59,2.59,0,0,0-1.25.29,2,2,0,0,0-.81.81,2.48,2.48,0,0,0-.29,1.25v4.55a5.31,5.31,0,0,1-.08.91,1,1,0,0,1-.48.69A2.49,2.49,0,0,1,143.46,36.21Z"/><path class="cls-3" d="M161.51,36.22a5,5,0,0,1-2.18-.49,5.83,5.83,0,0,1-1.82-1.36,7,7,0,0,1-1.26-2,6.35,6.35,0,0,1-.46-2.42,6,6,0,0,1,.46-2.33,6.54,6.54,0,0,1,1.28-2,6.24,6.24,0,0,1,1.84-1.36,4.88,4.88,0,0,1,2.15-.5,4.28,4.28,0,0,1,3.63,1.83,6.31,6.31,0,0,1,.94,2,9.6,9.6,0,0,1,.35,2.35,9.28,9.28,0,0,1-.3,2.4,6.23,6.23,0,0,1-.93,2,4.58,4.58,0,0,1-1.55,1.39A4.38,4.38,0,0,1,161.51,36.22Zm.5-3.7a2.19,2.19,0,0,0,1.21-.34,2.56,2.56,0,0,0,.88-.91,2.51,2.51,0,0,0,.34-1.27,2.42,2.42,0,0,0-.33-1.26,2.53,2.53,0,0,0-.87-.91A2.38,2.38,0,0,0,162,27.5a2.41,2.41,0,0,0-1.24.32,2.38,2.38,0,0,0-.88.9,2.71,2.71,0,0,0-.31,1.27,2.52,2.52,0,0,0,.33,1.28A2.48,2.48,0,0,0,162,32.52Zm4.35,3.73A2.22,2.22,0,0,1,165.1,36a1.25,1.25,0,0,1-.54-.85V20a6.73,6.73,0,0,1,.06-.91,1,1,0,0,1,.44-.71,2.15,2.15,0,0,1,1.27-.28,2.38,2.38,0,0,1,1.33.27,1.08,1.08,0,0,1,.47.69,3.82,3.82,0,0,1,.1.92v14.4a5.31,5.31,0,0,1-.08.91,1.17,1.17,0,0,1-.48.72A2.39,2.39,0,0,1,166.36,36.25Z"/><path class="cls-3" d="M181,36.23a2.42,2.42,0,0,1-1.38-.32.9.9,0,0,1-.42-.8l.25-.43a2.59,2.59,0,0,1-.58.61,3.87,3.87,0,0,1-1.11.65,4.33,4.33,0,0,1-1.66.29,5,5,0,0,1-2.19-.5A6.17,6.17,0,0,1,172,34.34a7.21,7.21,0,0,1-1.27-2,6.16,6.16,0,0,1,0-4.72,6.72,6.72,0,0,1,1.29-2,6.37,6.37,0,0,1,1.84-1.36,4.94,4.94,0,0,1,2.18-.5,4.05,4.05,0,0,1,2.66.88,3.18,3.18,0,0,1,.66.67l-.22-.35a1,1,0,0,1,.43-.91,2.42,2.42,0,0,1,1.39-.31,2.34,2.34,0,0,1,1.29.27,1.15,1.15,0,0,1,.47.73,4.86,4.86,0,0,1,.09.95v8.62a5.64,5.64,0,0,1-.08.93,1.07,1.07,0,0,1-.48.71A2.41,2.41,0,0,1,181,36.23Zm-4.38-3.72a2.25,2.25,0,0,0,1.21-.34A2.56,2.56,0,0,0,179,30a2.62,2.62,0,0,0-.32-1.29,2.4,2.4,0,0,0-.88-.88,2.3,2.3,0,0,0-1.22-.33,2.33,2.33,0,0,0-1.26.34A2.48,2.48,0,0,0,174,30a2.42,2.42,0,0,0,.33,1.24,2.6,2.6,0,0,0,2.21,1.24Z"/><path class="cls-2" d="M131.13,36.48a8.34,8.34,0,0,1-3.38-.69,8.85,8.85,0,0,1-5.34-8.17,9.58,9.58,0,0,1,.67-3.52,9.11,9.11,0,0,1,1.83-2.89,8.29,8.29,0,0,1,2.71-1.93,7.85,7.85,0,0,1,3.3-.7,8.53,8.53,0,0,1,6.18,2.6A9,9,0,0,1,139,24a9.13,9.13,0,0,1,.67,3.53A9,9,0,0,1,139,31a9.05,9.05,0,0,1-1.84,2.86,8.47,8.47,0,0,1-2.71,1.92A7.92,7.92,0,0,1,131.13,36.48Zm-.12-3.8a4.44,4.44,0,0,0,1.88-.4,5,5,0,0,0,1.53-1.09,4.72,4.72,0,0,0,1-1.62,5.6,5.6,0,0,0,.36-2,5.28,5.28,0,0,0-1.41-3.67,4.81,4.81,0,0,0-1.52-1.1A4.49,4.49,0,0,0,131,22.4a4.4,4.4,0,0,0-1.84.39,4.59,4.59,0,0,0-1.53,1.1,5.41,5.41,0,0,0-1.05,1.65,5.32,5.32,0,0,0,0,4,5.48,5.48,0,0,0,1.05,1.64,5.14,5.14,0,0,0,1.52,1.1A4.44,4.44,0,0,0,131,32.68Z"/><path class="cls-2" d="M143.46,36.21a2.45,2.45,0,0,1-1.31-.26,1.1,1.1,0,0,1-.48-.7,4.56,4.56,0,0,1-.09-.92v-8.8a4.1,4.1,0,0,1,.09-.88,1,1,0,0,1,.49-.67,2.66,2.66,0,0,1,1.32-.24,2.54,2.54,0,0,1,1.18.21,1,1,0,0,1,.48.51,1.53,1.53,0,0,1,.12.56.71.71,0,0,0,0,.37l-.15.47a1.48,1.48,0,0,1,.38-.76,3.74,3.74,0,0,1,.85-.7,4.93,4.93,0,0,1,1.1-.49,4.36,4.36,0,0,1,1.17-.17,5,5,0,0,1,2.13.44,4.24,4.24,0,0,1,1.59,1.26,6,6,0,0,1,1,1.94,8.52,8.52,0,0,1,.33,2.44v4.55a4.53,4.53,0,0,1-.09.91,1.08,1.08,0,0,1-.47.69,2.7,2.7,0,0,1-1.34.25,2.57,2.57,0,0,1-1.33-.27,1,1,0,0,1-.48-.7,4.46,4.46,0,0,1-.09-.91V29.81a2.74,2.74,0,0,0-.26-1.27,1.76,1.76,0,0,0-.75-.8,2.46,2.46,0,0,0-1.21-.28,2.59,2.59,0,0,0-1.25.29,2,2,0,0,0-.81.81,2.48,2.48,0,0,0-.29,1.25v4.55a5.31,5.31,0,0,1-.08.91,1,1,0,0,1-.48.69A2.49,2.49,0,0,1,143.46,36.21Z"/><path class="cls-2" d="M161.51,36.22a5,5,0,0,1-2.18-.49,5.83,5.83,0,0,1-1.82-1.36,7,7,0,0,1-1.26-2,6.35,6.35,0,0,1-.46-2.42,6,6,0,0,1,.46-2.33,6.54,6.54,0,0,1,1.28-2,6.24,6.24,0,0,1,1.84-1.36,4.88,4.88,0,0,1,2.15-.5,4.28,4.28,0,0,1,3.63,1.83,6.31,6.31,0,0,1,.94,2,9.6,9.6,0,0,1,.35,2.35,9.28,9.28,0,0,1-.3,2.4,6.23,6.23,0,0,1-.93,2,4.58,4.58,0,0,1-1.55,1.39A4.38,4.38,0,0,1,161.51,36.22Zm.5-3.7a2.19,2.19,0,0,0,1.21-.34,2.56,2.56,0,0,0,.88-.91,2.51,2.51,0,0,0,.34-1.27,2.42,2.42,0,0,0-.33-1.26,2.53,2.53,0,0,0-.87-.91A2.38,2.38,0,0,0,162,27.5a2.41,2.41,0,0,0-1.24.32,2.38,2.38,0,0,0-.88.9,2.71,2.71,0,0,0-.31,1.27,2.52,2.52,0,0,0,.33,1.28A2.48,2.48,0,0,0,162,32.52Zm4.35,3.73A2.22,2.22,0,0,1,165.1,36a1.25,1.25,0,0,1-.54-.85V20a6.73,6.73,0,0,1,.06-.91,1,1,0,0,1,.44-.71,2.15,2.15,0,0,1,1.27-.28,2.38,2.38,0,0,1,1.33.27,1.08,1.08,0,0,1,.47.69,3.82,3.82,0,0,1,.1.92v14.4a5.31,5.31,0,0,1-.08.91,1.17,1.17,0,0,1-.48.72A2.39,2.39,0,0,1,166.36,36.25Z"/><path class="cls-2" d="M181,36.23a2.42,2.42,0,0,1-1.38-.32.9.9,0,0,1-.42-.8l.25-.43a2.59,2.59,0,0,1-.58.61,3.87,3.87,0,0,1-1.11.65,4.33,4.33,0,0,1-1.66.29,5,5,0,0,1-2.19-.5A6.17,6.17,0,0,1,172,34.34a7.21,7.21,0,0,1-1.27-2,6.16,6.16,0,0,1,0-4.72,6.72,6.72,0,0,1,1.29-2,6.37,6.37,0,0,1,1.84-1.36,4.94,4.94,0,0,1,2.18-.5,4.05,4.05,0,0,1,2.66.88,3.18,3.18,0,0,1,.66.67l-.22-.35a1,1,0,0,1,.43-.91,2.42,2.42,0,0,1,1.39-.31,2.34,2.34,0,0,1,1.29.27,1.15,1.15,0,0,1,.47.73,4.86,4.86,0,0,1,.09.95v8.62a5.64,5.64,0,0,1-.08.93,1.07,1.07,0,0,1-.48.71A2.41,2.41,0,0,1,181,36.23Zm-4.38-3.72a2.25,2.25,0,0,0,1.21-.34A2.56,2.56,0,0,0,179,30a2.62,2.62,0,0,0-.32-1.29,2.4,2.4,0,0,0-.88-.88,2.3,2.3,0,0,0-1.22-.33,2.33,2.33,0,0,0-1.26.34A2.48,2.48,0,0,0,174,30a2.42,2.42,0,0,0,.33,1.24,2.6,2.6,0,0,0,2.21,1.24Z"/><path class="cls-4" d="M53.27,24.34c0-1.37-1.23-2.06-3.7-2.06a19.62,19.62,0,0,0-2.1.15,18.5,18.5,0,0,1-1.94.14q-2.93,0-2.93-3.61t8.48-3.74q5.51,0,8.23,1.85A5.57,5.57,0,0,1,62,21.9a7.75,7.75,0,0,1-3.5,6.64,9.38,9.38,0,0,1,3.31,2.71,7.17,7.17,0,0,1,1,4A7.32,7.32,0,0,1,60,41.24a11.41,11.41,0,0,1-7.48,2.29q-5.87,0-8.41-1.24a4,4,0,0,1-2.54-3.76,3.89,3.89,0,0,1,.82-2.87,3.15,3.15,0,0,1,2.28-.78c.49,0,1.25.06,2.28.17s1.82.17,2.36.17q4.44,0,4.44-1.68A1.61,1.61,0,0,0,52.9,32a8,8,0,0,0-3.22-.44,6.5,6.5,0,0,1-3.34-.63,2.56,2.56,0,0,1-1-2.35c0-1.74,1.11-2.61,3.34-2.61a17.73,17.73,0,0,0,3.2-.21q1-.21,1.2-.48A1.82,1.82,0,0,0,53.27,24.34Z"/><path class="cls-4" d="M65.4,40.38a2.76,2.76,0,0,1,1.17-2.31,5.28,5.28,0,0,1,3.27-.88q4.44,0,4.44,3.19a3.08,3.08,0,0,1-.57,1.95,2.76,2.76,0,0,1-1.51,1,9.16,9.16,0,0,1-2.36.25,6.14,6.14,0,0,1-3.18-.75A2.64,2.64,0,0,1,65.4,40.38Z"/><path class="cls-4" d="M86.51,36.94c0,2.27-.4,3.88-1.19,4.85a4.37,4.37,0,0,1-3.58,1.45,5.56,5.56,0,0,1-2.57-.51,3.24,3.24,0,0,1-1.49-1.84,10.88,10.88,0,0,1-.54-3.62l-.07-15.66a6.31,6.31,0,0,1-3.22-.74,2.61,2.61,0,0,1-1.26-2.45,2.78,2.78,0,0,1,1.16-2.29A5.2,5.2,0,0,1,77,15.22l2.3,0,2.1,0c2,0,3.36.34,4.06,1a5,5,0,0,1,1,3.6Z"/><path class="cls-5" d="M53.27,24.34c0-1.37-1.23-2.06-3.7-2.06a19.62,19.62,0,0,0-2.1.15,18.5,18.5,0,0,1-1.94.14q-2.93,0-2.93-3.61t8.48-3.74q5.51,0,8.23,1.85A5.57,5.57,0,0,1,62,21.9a7.75,7.75,0,0,1-3.5,6.64,9.38,9.38,0,0,1,3.31,2.71,7.17,7.17,0,0,1,1,4A7.32,7.32,0,0,1,60,41.24a11.41,11.41,0,0,1-7.48,2.29q-5.87,0-8.41-1.24a4,4,0,0,1-2.54-3.76,3.89,3.89,0,0,1,.82-2.87,3.15,3.15,0,0,1,2.28-.78c.49,0,1.25.06,2.28.17s1.82.17,2.36.17q4.44,0,4.44-1.68A1.61,1.61,0,0,0,52.9,32a8,8,0,0,0-3.22-.44,6.5,6.5,0,0,1-3.34-.63,2.56,2.56,0,0,1-1-2.35c0-1.74,1.11-2.61,3.34-2.61a17.73,17.73,0,0,0,3.2-.21q1-.21,1.2-.48A1.82,1.82,0,0,0,53.27,24.34Z"/><path class="cls-5" d="M65.4,40.38a2.76,2.76,0,0,1,1.17-2.31,5.28,5.28,0,0,1,3.27-.88q4.44,0,4.44,3.19a3.08,3.08,0,0,1-.57,1.95,2.76,2.76,0,0,1-1.51,1,9.16,9.16,0,0,1-2.36.25,6.14,6.14,0,0,1-3.18-.75A2.64,2.64,0,0,1,65.4,40.38Z"/><path class="cls-5" d="M86.51,36.94c0,2.27-.4,3.88-1.19,4.85a4.37,4.37,0,0,1-3.58,1.45,5.56,5.56,0,0,1-2.57-.51,3.24,3.24,0,0,1-1.49-1.84,10.88,10.88,0,0,1-.54-3.62l-.07-15.66a6.31,6.31,0,0,1-3.22-.74,2.61,2.61,0,0,1-1.26-2.45,2.78,2.78,0,0,1,1.16-2.29A5.2,5.2,0,0,1,77,15.22l2.3,0,2.1,0c2,0,3.36.34,4.06,1a5,5,0,0,1,1,3.6Z"/></g></g></svg>