<svg xmlns="http://www.w3.org/2000/svg" viewBox="0 0 399.98 103.24"><defs><style>.cls-1{fill:#23841a;}.cls-2{fill:#fff;}.cls-3,.cls-4{fill:none;stroke-width:5px;}.cls-3{stroke:#ff7300;stroke-linejoin:round;}.cls-4{stroke:#fff;}.cls-5{fill:#ff7300;}</style></defs><title>32t</title><g id="Layer_2" data-name="Layer 2"><g id="pestaña_identificativa" data-name="pestaña identificativa"><rect class="cls-1" width="399.98" height="103.24" rx="32.4"/><path class="cls-2" d="M125.11,36.22a2.39,2.39,0,0,1-1.3-.26,1.05,1.05,0,0,1-.49-.71,4.73,4.73,0,0,1-.09-.93V20.65a2.07,2.07,0,0,1,.43-1.49,2.2,2.2,0,0,1,1.52-.41h9.45a4.45,4.45,0,0,1,.93.09,1.13,1.13,0,0,1,.7.49,2.53,2.53,0,0,1,.27,1.35,2.4,2.4,0,0,1-.27,1.3,1.12,1.12,0,0,1-.72.49,4.6,4.6,0,0,1-.93.08H127v3.23h5.15a4.8,4.8,0,0,1,.89.07.92.92,0,0,1,.61.43,2.25,2.25,0,0,1,.22,1.17,2.16,2.16,0,0,1-.22,1.13.94.94,0,0,1-.64.42,5.05,5.05,0,0,1-.91.08H127v3.35h7.6a3.82,3.82,0,0,1,.92.1,1.18,1.18,0,0,1,.7.49,2.36,2.36,0,0,1,.27,1.34,2.4,2.4,0,0,1-.27,1.3,1.15,1.15,0,0,1-.71.48,4.76,4.76,0,0,1-.94.09Z"/><path class="cls-2" d="M143.23,36.44a9,9,0,0,1-1.47-.16,8.76,8.76,0,0,1-1.54-.43,5.43,5.43,0,0,1-1.25-.68,1.26,1.26,0,0,1-.56-.89,1.41,1.41,0,0,1,0-.54,2.18,2.18,0,0,1,.23-.59,4.94,4.94,0,0,1,.43-.67.94.94,0,0,1,.44-.35,1,1,0,0,1,.59,0,3.55,3.55,0,0,1,.8.26l.82.4c.29.14.58.27.88.38a2.66,2.66,0,0,0,.92.16,2.32,2.32,0,0,0,1.09-.21.65.65,0,0,0,.39-.59.64.64,0,0,0-.16-.45,1.27,1.27,0,0,0-.45-.3c-.19-.08-.42-.16-.68-.24l-.81-.21c-.28-.07-.58-.15-.9-.25a9.62,9.62,0,0,1-1.19-.45,3.77,3.77,0,0,1-1-.72,3.17,3.17,0,0,1-.73-1.07,3.85,3.85,0,0,1-.28-1.56A3.3,3.3,0,0,1,141,24a7.34,7.34,0,0,1,2.7-.44c.3,0,.6,0,.9.05a5.4,5.4,0,0,1,.89.18,7.54,7.54,0,0,1,1.71.72c.5.24.76.55.77.95a2,2,0,0,1-.42,1.25,2,2,0,0,1-.58.59.92.92,0,0,1-.62.14,3.93,3.93,0,0,1-.86-.34,9.71,9.71,0,0,0-1-.44,2.84,2.84,0,0,0-1-.2,2.24,2.24,0,0,0-.73.11,1.11,1.11,0,0,0-.45.3.75.75,0,0,0,0,.95,1.42,1.42,0,0,0,.51.31,5.58,5.58,0,0,0,.75.23l.93.2c.45.09.91.2,1.38.34a4.91,4.91,0,0,1,1.31.61,3,3,0,0,1,.94,1.08,3.75,3.75,0,0,1,.37,1.77,3.63,3.63,0,0,1-1.38,3A6.38,6.38,0,0,1,143.23,36.44Z"/><path class="cls-2" d="M156.86,36.34a6.64,6.64,0,0,1-2.24-.41,7.13,7.13,0,0,1-2.1-1.21,6,6,0,0,1-1.54-2,6.32,6.32,0,0,1-.57-2.75,6,6,0,0,1,.58-2.72,6,6,0,0,1,1.52-2,6.9,6.9,0,0,1,2.09-1.22,6.62,6.62,0,0,1,2.22-.41,6.06,6.06,0,0,1,1.66.22,5.41,5.41,0,0,1,1.25.51,3.45,3.45,0,0,1,.73.53,5.48,5.48,0,0,1,.75.65,1,1,0,0,1,.3.85,1.38,1.38,0,0,1-.17.56,4.48,4.48,0,0,1-.38.59c-.51.7-1,1-1.5.94a2.27,2.27,0,0,1-.69-.25l-.59-.35a6,6,0,0,0-.62-.31,1.89,1.89,0,0,0-.75-.14,2.6,2.6,0,0,0-1.3.34,2.6,2.6,0,0,0-.91,3.51,2.38,2.38,0,0,0,.9.91,2.33,2.33,0,0,0,1.26.34,2.28,2.28,0,0,0,.72-.1,2.25,2.25,0,0,0,.56-.23l.35-.22.57-.36a1.05,1.05,0,0,1,.55-.16,1.28,1.28,0,0,1,.74.26,4.7,4.7,0,0,1,.81.84,2.1,2.1,0,0,1,.49,1,1.19,1.19,0,0,1-.22.86,2.57,2.57,0,0,1-.85.76,3.69,3.69,0,0,1-.71.45,7.21,7.21,0,0,1-1.25.5A5.7,5.7,0,0,1,156.86,36.34Z"/><path class="cls-2" d="M174,36.23a2.34,2.34,0,0,1-1.38-.33.88.88,0,0,1-.42-.8l.25-.42a2.8,2.8,0,0,1-.58.61,4.11,4.11,0,0,1-1.11.65,4.33,4.33,0,0,1-1.66.29,4.89,4.89,0,0,1-2.19-.51,6,6,0,0,1-1.84-1.38,7.41,7.41,0,0,1-1.27-2,6.13,6.13,0,0,1,0-4.71,6.72,6.72,0,0,1,1.29-2,6.4,6.4,0,0,1,1.84-1.37,4.93,4.93,0,0,1,2.18-.49,4.1,4.1,0,0,1,1.57.26,4.5,4.5,0,0,1,1.09.61,3.45,3.45,0,0,1,.66.68l-.23-.35a1,1,0,0,1,.44-.91,2.42,2.42,0,0,1,1.39-.32,2.33,2.33,0,0,1,1.29.28,1.1,1.1,0,0,1,.47.72,4.86,4.86,0,0,1,.09.95v8.63a5.52,5.52,0,0,1-.08.92,1.11,1.11,0,0,1-.48.72A2.5,2.5,0,0,1,174,36.23Zm-4.37-3.73a2.12,2.12,0,0,0,1.19-.34,2.43,2.43,0,0,0,.86-.91,2.72,2.72,0,0,0,0-2.56,2.42,2.42,0,0,0-.88-.89,2.29,2.29,0,0,0-1.22-.32,2.48,2.48,0,0,0-1.27.33,2.7,2.7,0,0,0-.9.91,2.59,2.59,0,0,0-.33,1.3,2.4,2.4,0,0,0,.33,1.24,2.6,2.6,0,0,0,2.22,1.24Z"/><path class="cls-2" d="M183.18,36.26a16.21,16.21,0,0,1-1.82-.1,3.77,3.77,0,0,1-1.35-.4,2.42,2.42,0,0,1-.9-.84,4.19,4.19,0,0,1-.53-1.38,10.73,10.73,0,0,1-.17-2.06V19.93a3.82,3.82,0,0,1,.1-.92,1.11,1.11,0,0,1,.49-.7,3.16,3.16,0,0,1,2.6,0,1.17,1.17,0,0,1,.48.7,3.82,3.82,0,0,1,.1.92V31.31a6,6,0,0,0,0,.66,1,1,0,0,0,.15.41.54.54,0,0,0,.31.2,2,2,0,0,0,.53.05,2.62,2.62,0,0,1,.61.08.89.89,0,0,1,.54.45,2.58,2.58,0,0,1,.22,1.25,2.81,2.81,0,0,1-.22,1.3.86.86,0,0,1-.54.47A2.74,2.74,0,0,1,183.18,36.26Z"/><path class="cls-2" d="M192.41,36.46a6.21,6.21,0,0,1-2.34-.46A7.24,7.24,0,0,1,188,34.69a6.24,6.24,0,0,1-1.51-2,6,6,0,0,1-.56-2.64,6.16,6.16,0,0,1,.51-2.51A6.75,6.75,0,0,1,189.88,24a5.93,5.93,0,0,1,2.48-.52,6.37,6.37,0,0,1,3.27.87A6.45,6.45,0,0,1,198,26.72a6.38,6.38,0,0,1-1.19,8A6.46,6.46,0,0,1,194.69,36,6.31,6.31,0,0,1,192.41,36.46Zm0-3.77a2.89,2.89,0,0,0,2.28-1.2,2.6,2.6,0,0,0,.42-1.52,2.74,2.74,0,0,0-.35-1.4,2.41,2.41,0,0,0-1-.94,2.83,2.83,0,0,0-1.41-.34,2.6,2.6,0,0,0-1.34.35,2.65,2.65,0,0,0-.95,1,2.69,2.69,0,0,0-.36,1.39,2.6,2.6,0,0,0,.41,1.51,2.43,2.43,0,0,0,1,.9A2.9,2.9,0,0,0,192.36,32.69Z"/><path class="cls-2" d="M202.73,36.25a2.39,2.39,0,0,1-1.31-.27,1.07,1.07,0,0,1-.48-.7,5.31,5.31,0,0,1-.08-.91v-8.8a4.19,4.19,0,0,1,.09-.89,1,1,0,0,1,.49-.66,2.58,2.58,0,0,1,1.32-.25,2.51,2.51,0,0,1,1.18.21,1.1,1.1,0,0,1,.49.52,1.68,1.68,0,0,1,.11.56,1,1,0,0,0,.05.36l-.15.48a1.45,1.45,0,0,1,.39-.77,3.32,3.32,0,0,1,.85-.69,4.35,4.35,0,0,1,1.1-.49,4,4,0,0,1,1.16-.18,5.05,5.05,0,0,1,2.14.44,4.32,4.32,0,0,1,1.58,1.27,5.6,5.6,0,0,1,1,1.93,8.61,8.61,0,0,1,.34,2.44V34.4a5.31,5.31,0,0,1-.08.91,1,1,0,0,1-.48.69,2.57,2.57,0,0,1-1.34.25,2.54,2.54,0,0,1-1.32-.26,1.08,1.08,0,0,1-.49-.7,4.56,4.56,0,0,1-.09-.92V29.85a2.78,2.78,0,0,0-.27-1.28,1.81,1.81,0,0,0-.75-.8A2.43,2.43,0,0,0,207,27.5a2.59,2.59,0,0,0-1.25.28,2.06,2.06,0,0,0-.81.82,2.57,2.57,0,0,0-.29,1.25V34.4a4.53,4.53,0,0,1-.09.91A1.06,1.06,0,0,1,204,36,2.57,2.57,0,0,1,202.73,36.25Z"/><path class="cls-2" d="M225.63,36.26a2.33,2.33,0,0,1-1.37-.33.91.91,0,0,1-.43-.8l.25-.42a2.72,2.72,0,0,1-.57.61,4.35,4.35,0,0,1-1.12.65,4.29,4.29,0,0,1-1.66.29,5.08,5.08,0,0,1-2.19-.5,6,6,0,0,1-1.83-1.39,7.07,7.07,0,0,1-1.28-2A6.15,6.15,0,0,1,215,30a5.83,5.83,0,0,1,.48-2.34,6.34,6.34,0,0,1,1.29-2,6.15,6.15,0,0,1,1.83-1.36,4.84,4.84,0,0,1,2.18-.5,4.06,4.06,0,0,1,1.57.26,4.15,4.15,0,0,1,1.09.61,3.45,3.45,0,0,1,.66.68l-.22-.35a1,1,0,0,1,.44-.91,2.38,2.38,0,0,1,1.38-.32,2.33,2.33,0,0,1,1.29.28,1.14,1.14,0,0,1,.48.73,5.7,5.7,0,0,1,.08.95v8.62a4.73,4.73,0,0,1-.09.93,1.09,1.09,0,0,1-.48.71A2.45,2.45,0,0,1,225.63,36.26Zm-4.37-3.73a2.13,2.13,0,0,0,1.2-.34A2.6,2.6,0,0,0,223.64,30a2.53,2.53,0,0,0-.33-1.29,2.56,2.56,0,0,0-.87-.89,2.45,2.45,0,0,0-1.23-.32,2.42,2.42,0,0,0-1.26.33,2.48,2.48,0,0,0-.9.92,2.45,2.45,0,0,0-.34,1.3,2.28,2.28,0,0,0,.34,1.23,2.41,2.41,0,0,0,.92.9A2.49,2.49,0,0,0,221.26,32.53Z"/><path class="cls-2" d="M235.36,36.27a5.08,5.08,0,0,1-2.18-.49,5.86,5.86,0,0,1-1.82-1.37A6.54,6.54,0,0,1,229.64,30a6,6,0,0,1,.46-2.34,6.62,6.62,0,0,1,3.11-3.34,4.9,4.9,0,0,1,2.15-.49,4.51,4.51,0,0,1,2.12.48A4.65,4.65,0,0,1,239,25.64a6.48,6.48,0,0,1,.94,2,9.53,9.53,0,0,1,.35,2.35,9.73,9.73,0,0,1-.31,2.4,6.32,6.32,0,0,1-.92,2,4.75,4.75,0,0,1-1.55,1.38A4.31,4.31,0,0,1,235.36,36.27Zm.5-3.7a2.27,2.27,0,0,0,1.21-.34,2.74,2.74,0,0,0,.88-.91,2.66,2.66,0,0,0,.34-1.28,2.44,2.44,0,0,0-.33-1.26,2.5,2.5,0,0,0-.87-.9,2.32,2.32,0,0,0-1.25-.34,2.49,2.49,0,0,0-1.24.32,2.31,2.31,0,0,0-.88.9,2.63,2.63,0,0,0-.31,1.28,2.58,2.58,0,0,0,.32,1.27,2.48,2.48,0,0,0,.9.92A2.45,2.45,0,0,0,235.86,32.57Zm4.35,3.72a2.38,2.38,0,0,1-1.27-.27,1.32,1.32,0,0,1-.53-.85V20a6.62,6.62,0,0,1,.06-.91,1,1,0,0,1,.44-.72,2.24,2.24,0,0,1,1.27-.27,2.51,2.51,0,0,1,1.33.26,1.17,1.17,0,0,1,.47.69,3.82,3.82,0,0,1,.1.92v14.4a4.56,4.56,0,0,1-.09.92,1.07,1.07,0,0,1-.47.71A2.39,2.39,0,0,1,240.21,36.29Z"/><path class="cls-2" d="M250.61,36.5a6.41,6.41,0,0,1-2.34-.46,6.94,6.94,0,0,1-2.11-1.32,6.13,6.13,0,0,1-1.51-2,5.86,5.86,0,0,1-.56-2.63,6.24,6.24,0,0,1,.51-2.52A6.75,6.75,0,0,1,246,25.47a6.67,6.67,0,0,1,2.07-1.41,6.08,6.08,0,0,1,2.48-.51,6.39,6.39,0,0,1,3.27.86,6.61,6.61,0,0,1,2.33,2.34,6.41,6.41,0,0,1-1.19,8,6.73,6.73,0,0,1-2.08,1.28A6.32,6.32,0,0,1,250.61,36.5Zm-.05-3.78a2.9,2.9,0,0,0,1.22-.29,2.67,2.67,0,0,0,1.05-.9,2.54,2.54,0,0,0,.43-1.53,2.77,2.77,0,0,0-.35-1.4,2.48,2.48,0,0,0-1-.94,2.94,2.94,0,0,0-1.41-.34,2.6,2.6,0,0,0-1.34.35,2.76,2.76,0,0,0-.95,1,2.93,2.93,0,0,0,.05,2.9,2.61,2.61,0,0,0,1,.9A3,3,0,0,0,250.56,32.72Z"/><path class="cls-3" d="M125.11,36.22a2.39,2.39,0,0,1-1.3-.26,1.05,1.05,0,0,1-.49-.71,4.73,4.73,0,0,1-.09-.93V20.65a2.07,2.07,0,0,1,.43-1.49,2.2,2.2,0,0,1,1.52-.41h9.45a4.45,4.45,0,0,1,.93.09,1.13,1.13,0,0,1,.7.49,2.53,2.53,0,0,1,.27,1.35,2.4,2.4,0,0,1-.27,1.3,1.12,1.12,0,0,1-.72.49,4.6,4.6,0,0,1-.93.08H127v3.23h5.15a4.8,4.8,0,0,1,.89.07.92.92,0,0,1,.61.43,2.25,2.25,0,0,1,.22,1.17,2.16,2.16,0,0,1-.22,1.13.94.94,0,0,1-.64.42,5.05,5.05,0,0,1-.91.08H127v3.35h7.6a3.82,3.82,0,0,1,.92.1,1.18,1.18,0,0,1,.7.49,2.36,2.36,0,0,1,.27,1.34,2.4,2.4,0,0,1-.27,1.3,1.15,1.15,0,0,1-.71.48,4.76,4.76,0,0,1-.94.09Z"/><path class="cls-3" d="M143.23,36.44a9,9,0,0,1-1.47-.16,8.76,8.76,0,0,1-1.54-.43,5.43,5.43,0,0,1-1.25-.68,1.26,1.26,0,0,1-.56-.89,1.41,1.41,0,0,1,0-.54,2.18,2.18,0,0,1,.23-.59,4.94,4.94,0,0,1,.43-.67.94.94,0,0,1,.44-.35,1,1,0,0,1,.59,0,3.55,3.55,0,0,1,.8.26l.82.4c.29.14.58.27.88.38a2.66,2.66,0,0,0,.92.16,2.32,2.32,0,0,0,1.09-.21.65.65,0,0,0,.39-.59.64.64,0,0,0-.16-.45,1.27,1.27,0,0,0-.45-.3c-.19-.08-.42-.16-.68-.24l-.81-.21c-.28-.07-.58-.15-.9-.25a9.62,9.62,0,0,1-1.19-.45,3.77,3.77,0,0,1-1-.72,3.17,3.17,0,0,1-.73-1.07,3.85,3.85,0,0,1-.28-1.56A3.3,3.3,0,0,1,141,24a7.34,7.34,0,0,1,2.7-.44c.3,0,.6,0,.9.05a5.4,5.4,0,0,1,.89.18,7.54,7.54,0,0,1,1.71.72c.5.24.76.55.77.95a2,2,0,0,1-.42,1.25,2,2,0,0,1-.58.59.92.92,0,0,1-.62.14,3.93,3.93,0,0,1-.86-.34,9.71,9.71,0,0,0-1-.44,2.84,2.84,0,0,0-1-.2,2.24,2.24,0,0,0-.73.11,1.11,1.11,0,0,0-.45.3.75.75,0,0,0,0,.95,1.42,1.42,0,0,0,.51.31,5.58,5.58,0,0,0,.75.23l.93.2c.45.09.91.2,1.38.34a4.91,4.91,0,0,1,1.31.61,3,3,0,0,1,.94,1.08,3.75,3.75,0,0,1,.37,1.77,3.63,3.63,0,0,1-1.38,3A6.38,6.38,0,0,1,143.23,36.44Z"/><path class="cls-3" d="M156.86,36.34a6.64,6.64,0,0,1-2.24-.41,7.13,7.13,0,0,1-2.1-1.21,6,6,0,0,1-1.54-2,6.32,6.32,0,0,1-.57-2.75,6,6,0,0,1,.58-2.72,6,6,0,0,1,1.52-2,6.9,6.9,0,0,1,2.09-1.22,6.62,6.62,0,0,1,2.22-.41,6.06,6.06,0,0,1,1.66.22,5.41,5.41,0,0,1,1.25.51,3.45,3.45,0,0,1,.73.53,5.48,5.48,0,0,1,.75.65,1,1,0,0,1,.3.85,1.38,1.38,0,0,1-.17.56,4.48,4.48,0,0,1-.38.59c-.51.7-1,1-1.5.94a2.27,2.27,0,0,1-.69-.25l-.59-.35a6,6,0,0,0-.62-.31,1.89,1.89,0,0,0-.75-.14,2.6,2.6,0,0,0-1.3.34,2.6,2.6,0,0,0-.91,3.51,2.38,2.38,0,0,0,.9.91,2.33,2.33,0,0,0,1.26.34,2.28,2.28,0,0,0,.72-.1,2.25,2.25,0,0,0,.56-.23l.35-.22.57-.36a1.05,1.05,0,0,1,.55-.16,1.28,1.28,0,0,1,.74.26,4.7,4.7,0,0,1,.81.84,2.1,2.1,0,0,1,.49,1,1.19,1.19,0,0,1-.22.86,2.57,2.57,0,0,1-.85.76,3.69,3.69,0,0,1-.71.45,7.21,7.21,0,0,1-1.25.5A5.7,5.7,0,0,1,156.86,36.34Z"/><path class="cls-3" d="M174,36.23a2.34,2.34,0,0,1-1.38-.33.88.88,0,0,1-.42-.8l.25-.42a2.8,2.8,0,0,1-.58.61,4.11,4.11,0,0,1-1.11.65,4.33,4.33,0,0,1-1.66.29,4.89,4.89,0,0,1-2.19-.51,6,6,0,0,1-1.84-1.38,7.41,7.41,0,0,1-1.27-2,6.13,6.13,0,0,1,0-4.71,6.72,6.72,0,0,1,1.29-2,6.4,6.4,0,0,1,1.84-1.37,4.93,4.93,0,0,1,2.18-.49,4.1,4.1,0,0,1,1.57.26,4.5,4.5,0,0,1,1.09.61,3.45,3.45,0,0,1,.66.68l-.23-.35a1,1,0,0,1,.44-.91,2.42,2.42,0,0,1,1.39-.32,2.33,2.33,0,0,1,1.29.28,1.1,1.1,0,0,1,.47.72,4.86,4.86,0,0,1,.09.95v8.63a5.52,5.52,0,0,1-.08.92,1.11,1.11,0,0,1-.48.72A2.5,2.5,0,0,1,174,36.23Zm-4.37-3.73a2.12,2.12,0,0,0,1.19-.34,2.43,2.43,0,0,0,.86-.91,2.72,2.72,0,0,0,0-2.56,2.42,2.42,0,0,0-.88-.89,2.29,2.29,0,0,0-1.22-.32,2.48,2.48,0,0,0-1.27.33,2.7,2.7,0,0,0-.9.91,2.59,2.59,0,0,0-.33,1.3,2.4,2.4,0,0,0,.33,1.24,2.6,2.6,0,0,0,2.22,1.24Z"/><path class="cls-3" d="M183.18,36.26a16.21,16.21,0,0,1-1.82-.1,3.77,3.77,0,0,1-1.35-.4,2.42,2.42,0,0,1-.9-.84,4.19,4.19,0,0,1-.53-1.38,10.73,10.73,0,0,1-.17-2.06V19.93a3.82,3.82,0,0,1,.1-.92,1.11,1.11,0,0,1,.49-.7,3.16,3.16,0,0,1,2.6,0,1.17,1.17,0,0,1,.48.7,3.82,3.82,0,0,1,.1.92V31.31a6,6,0,0,0,0,.66,1,1,0,0,0,.15.41.54.54,0,0,0,.31.2,2,2,0,0,0,.53.05,2.62,2.62,0,0,1,.61.08.89.89,0,0,1,.54.45,2.58,2.58,0,0,1,.22,1.25,2.81,2.81,0,0,1-.22,1.3.86.86,0,0,1-.54.47A2.74,2.74,0,0,1,183.18,36.26Z"/><path class="cls-3" d="M192.41,36.46a6.21,6.21,0,0,1-2.34-.46A7.24,7.24,0,0,1,188,34.69a6.24,6.24,0,0,1-1.51-2,6,6,0,0,1-.56-2.64,6.16,6.16,0,0,1,.51-2.51A6.75,6.75,0,0,1,189.88,24a5.93,5.93,0,0,1,2.48-.52,6.37,6.37,0,0,1,3.27.87A6.45,6.45,0,0,1,198,26.72a6.38,6.38,0,0,1-1.19,8A6.46,6.46,0,0,1,194.69,36,6.31,6.31,0,0,1,192.41,36.46Zm0-3.77a2.89,2.89,0,0,0,2.28-1.2,2.6,2.6,0,0,0,.42-1.52,2.74,2.74,0,0,0-.35-1.4,2.41,2.41,0,0,0-1-.94,2.83,2.83,0,0,0-1.41-.34,2.6,2.6,0,0,0-1.34.35,2.65,2.65,0,0,0-.95,1,2.69,2.69,0,0,0-.36,1.39,2.6,2.6,0,0,0,.41,1.51,2.43,2.43,0,0,0,1,.9A2.9,2.9,0,0,0,192.36,32.69Z"/><path class="cls-3" d="M202.73,36.25a2.39,2.39,0,0,1-1.31-.27,1.07,1.07,0,0,1-.48-.7,5.31,5.31,0,0,1-.08-.91v-8.8a4.19,4.19,0,0,1,.09-.89,1,1,0,0,1,.49-.66,2.58,2.58,0,0,1,1.32-.25,2.51,2.51,0,0,1,1.18.21,1.1,1.1,0,0,1,.49.52,1.68,1.68,0,0,1,.11.56,1,1,0,0,0,.05.36l-.15.48a1.45,1.45,0,0,1,.39-.77,3.32,3.32,0,0,1,.85-.69,4.35,4.35,0,0,1,1.1-.49,4,4,0,0,1,1.16-.18,5.05,5.05,0,0,1,2.14.44,4.32,4.32,0,0,1,1.58,1.27,5.6,5.6,0,0,1,1,1.93,8.61,8.61,0,0,1,.34,2.44V34.4a5.31,5.31,0,0,1-.08.91,1,1,0,0,1-.48.69,2.57,2.57,0,0,1-1.34.25,2.54,2.54,0,0,1-1.32-.26,1.08,1.08,0,0,1-.49-.7,4.56,4.56,0,0,1-.09-.92V29.85a2.78,2.78,0,0,0-.27-1.28,1.81,1.81,0,0,0-.75-.8A2.43,2.43,0,0,0,207,27.5a2.59,2.59,0,0,0-1.25.28,2.06,2.06,0,0,0-.81.82,2.57,2.57,0,0,0-.29,1.25V34.4a4.53,4.53,0,0,1-.09.91A1.06,1.06,0,0,1,204,36,2.57,2.57,0,0,1,202.73,36.25Z"/><path class="cls-3" d="M225.63,36.26a2.33,2.33,0,0,1-1.37-.33.91.91,0,0,1-.43-.8l.25-.42a2.72,2.72,0,0,1-.57.61,4.35,4.35,0,0,1-1.12.65,4.29,4.29,0,0,1-1.66.29,5.08,5.08,0,0,1-2.19-.5,6,6,0,0,1-1.83-1.39,7.07,7.07,0,0,1-1.28-2A6.15,6.15,0,0,1,215,30a5.83,5.83,0,0,1,.48-2.34,6.34,6.34,0,0,1,1.29-2,6.15,6.15,0,0,1,1.83-1.36,4.84,4.84,0,0,1,2.18-.5,4.06,4.06,0,0,1,1.57.26,4.15,4.15,0,0,1,1.09.61,3.45,3.45,0,0,1,.66.68l-.22-.35a1,1,0,0,1,.44-.91,2.38,2.38,0,0,1,1.38-.32,2.33,2.33,0,0,1,1.29.28,1.14,1.14,0,0,1,.48.73,5.7,5.7,0,0,1,.08.95v8.62a4.73,4.73,0,0,1-.09.93,1.09,1.09,0,0,1-.48.71A2.45,2.45,0,0,1,225.63,36.26Zm-4.37-3.73a2.13,2.13,0,0,0,1.2-.34A2.6,2.6,0,0,0,223.64,30a2.53,2.53,0,0,0-.33-1.29,2.56,2.56,0,0,0-.87-.89,2.45,2.45,0,0,0-1.23-.32,2.42,2.42,0,0,0-1.26.33,2.48,2.48,0,0,0-.9.92,2.45,2.45,0,0,0-.34,1.3,2.28,2.28,0,0,0,.34,1.23,2.41,2.41,0,0,0,.92.9A2.49,2.49,0,0,0,221.26,32.53Z"/><path class="cls-3" d="M235.36,36.27a5.08,5.08,0,0,1-2.18-.49,5.86,5.86,0,0,1-1.82-1.37A6.54,6.54,0,0,1,229.64,30a6,6,0,0,1,.46-2.34,6.62,6.62,0,0,1,3.11-3.34,4.9,4.9,0,0,1,2.15-.49,4.51,4.51,0,0,1,2.12.48A4.65,4.65,0,0,1,239,25.64a6.48,6.48,0,0,1,.94,2,9.53,9.53,0,0,1,.35,2.35,9.73,9.73,0,0,1-.31,2.4,6.32,6.32,0,0,1-.92,2,4.75,4.75,0,0,1-1.55,1.38A4.31,4.31,0,0,1,235.36,36.27Zm.5-3.7a2.27,2.27,0,0,0,1.21-.34,2.74,2.74,0,0,0,.88-.91,2.66,2.66,0,0,0,.34-1.28,2.44,2.44,0,0,0-.33-1.26,2.5,2.5,0,0,0-.87-.9,2.32,2.32,0,0,0-1.25-.34,2.49,2.49,0,0,0-1.24.32,2.31,2.31,0,0,0-.88.9,2.63,2.63,0,0,0-.31,1.28,2.58,2.58,0,0,0,.32,1.27,2.48,2.48,0,0,0,.9.92A2.45,2.45,0,0,0,235.86,32.57Zm4.35,3.72a2.38,2.38,0,0,1-1.27-.27,1.32,1.32,0,0,1-.53-.85V20a6.62,6.62,0,0,1,.06-.91,1,1,0,0,1,.44-.72,2.24,2.24,0,0,1,1.27-.27,2.51,2.51,0,0,1,1.33.26,1.17,1.17,0,0,1,.47.69,3.82,3.82,0,0,1,.1.92v14.4a4.56,4.56,0,0,1-.09.92,1.07,1.07,0,0,1-.47.71A2.39,2.39,0,0,1,240.21,36.29Z"/><path class="cls-3" d="M250.61,36.5a6.41,6.41,0,0,1-2.34-.46,6.94,6.94,0,0,1-2.11-1.32,6.13,6.13,0,0,1-1.51-2,5.86,5.86,0,0,1-.56-2.63,6.24,6.24,0,0,1,.51-2.52A6.75,6.75,0,0,1,246,25.47a6.67,6.67,0,0,1,2.07-1.41,6.08,6.08,0,0,1,2.48-.51,6.39,6.39,0,0,1,3.27.86,6.61,6.61,0,0,1,2.33,2.34,6.41,6.41,0,0,1-1.19,8,6.73,6.73,0,0,1-2.08,1.28A6.32,6.32,0,0,1,250.61,36.5Zm-.05-3.78a2.9,2.9,0,0,0,1.22-.29,2.67,2.67,0,0,0,1.05-.9,2.54,2.54,0,0,0,.43-1.53,2.77,2.77,0,0,0-.35-1.4,2.48,2.48,0,0,0-1-.94,2.94,2.94,0,0,0-1.41-.34,2.6,2.6,0,0,0-1.34.35,2.76,2.76,0,0,0-.95,1,2.93,2.93,0,0,0,.05,2.9,2.61,2.61,0,0,0,1,.9A3,3,0,0,0,250.56,32.72Z"/><path class="cls-2" d="M125.11,36.22a2.39,2.39,0,0,1-1.3-.26,1.05,1.05,0,0,1-.49-.71,4.73,4.73,0,0,1-.09-.93V20.65a2.07,2.07,0,0,1,.43-1.49,2.2,2.2,0,0,1,1.52-.41h9.45a4.45,4.45,0,0,1,.93.09,1.13,1.13,0,0,1,.7.49,2.53,2.53,0,0,1,.27,1.35,2.4,2.4,0,0,1-.27,1.3,1.12,1.12,0,0,1-.72.49,4.6,4.6,0,0,1-.93.08H127v3.23h5.15a4.8,4.8,0,0,1,.89.07.92.92,0,0,1,.61.43,2.25,2.25,0,0,1,.22,1.17,2.16,2.16,0,0,1-.22,1.13.94.94,0,0,1-.64.42,5.05,5.05,0,0,1-.91.08H127v3.35h7.6a3.82,3.82,0,0,1,.92.1,1.18,1.18,0,0,1,.7.49,2.36,2.36,0,0,1,.27,1.34,2.4,2.4,0,0,1-.27,1.3,1.15,1.15,0,0,1-.71.48,4.76,4.76,0,0,1-.94.09Z"/><path class="cls-2" d="M143.23,36.44a9,9,0,0,1-1.47-.16,8.76,8.76,0,0,1-1.54-.43,5.43,5.43,0,0,1-1.25-.68,1.26,1.26,0,0,1-.56-.89,1.41,1.41,0,0,1,0-.54,2.18,2.18,0,0,1,.23-.59,4.94,4.94,0,0,1,.43-.67.94.94,0,0,1,.44-.35,1,1,0,0,1,.59,0,3.55,3.55,0,0,1,.8.26l.82.4c.29.14.58.27.88.38a2.66,2.66,0,0,0,.92.16,2.32,2.32,0,0,0,1.09-.21.65.65,0,0,0,.39-.59.64.64,0,0,0-.16-.45,1.27,1.27,0,0,0-.45-.3c-.19-.08-.42-.16-.68-.24l-.81-.21c-.28-.07-.58-.15-.9-.25a9.62,9.62,0,0,1-1.19-.45,3.77,3.77,0,0,1-1-.72,3.17,3.17,0,0,1-.73-1.07,3.85,3.85,0,0,1-.28-1.56A3.3,3.3,0,0,1,141,24a7.34,7.34,0,0,1,2.7-.44c.3,0,.6,0,.9.05a5.4,5.4,0,0,1,.89.18,7.54,7.54,0,0,1,1.71.72c.5.24.76.55.77.95a2,2,0,0,1-.42,1.25,2,2,0,0,1-.58.59.92.92,0,0,1-.62.14,3.93,3.93,0,0,1-.86-.34,9.71,9.71,0,0,0-1-.44,2.84,2.84,0,0,0-1-.2,2.24,2.24,0,0,0-.73.11,1.11,1.11,0,0,0-.45.3.75.75,0,0,0,0,.95,1.42,1.42,0,0,0,.51.31,5.58,5.58,0,0,0,.75.23l.93.2c.45.09.91.2,1.38.34a4.91,4.91,0,0,1,1.31.61,3,3,0,0,1,.94,1.08,3.75,3.75,0,0,1,.37,1.77,3.63,3.63,0,0,1-1.38,3A6.38,6.38,0,0,1,143.23,36.44Z"/><path class="cls-2" d="M156.86,36.34a6.64,6.64,0,0,1-2.24-.41,7.13,7.13,0,0,1-2.1-1.21,6,6,0,0,1-1.54-2,6.32,6.32,0,0,1-.57-2.75,6,6,0,0,1,.58-2.72,6,6,0,0,1,1.52-2,6.9,6.9,0,0,1,2.09-1.22,6.62,6.62,0,0,1,2.22-.41,6.06,6.06,0,0,1,1.66.22,5.41,5.41,0,0,1,1.25.51,3.45,3.45,0,0,1,.73.53,5.48,5.48,0,0,1,.75.65,1,1,0,0,1,.3.85,1.38,1.38,0,0,1-.17.56,4.48,4.48,0,0,1-.38.59c-.51.7-1,1-1.5.94a2.27,2.27,0,0,1-.69-.25l-.59-.35a6,6,0,0,0-.62-.31,1.89,1.89,0,0,0-.75-.14,2.6,2.6,0,0,0-1.3.34,2.6,2.6,0,0,0-.91,3.51,2.38,2.38,0,0,0,.9.91,2.33,2.33,0,0,0,1.26.34,2.28,2.28,0,0,0,.72-.1,2.25,2.25,0,0,0,.56-.23l.35-.22.57-.36a1.05,1.05,0,0,1,.55-.16,1.28,1.28,0,0,1,.74.26,4.7,4.7,0,0,1,.81.84,2.1,2.1,0,0,1,.49,1,1.19,1.19,0,0,1-.22.86,2.57,2.57,0,0,1-.85.76,3.69,3.69,0,0,1-.71.45,7.21,7.21,0,0,1-1.25.5A5.7,5.7,0,0,1,156.86,36.34Z"/><path class="cls-2" d="M174,36.23a2.34,2.34,0,0,1-1.38-.33.88.88,0,0,1-.42-.8l.25-.42a2.8,2.8,0,0,1-.58.61,4.11,4.11,0,0,1-1.11.65,4.33,4.33,0,0,1-1.66.29,4.89,4.89,0,0,1-2.19-.51,6,6,0,0,1-1.84-1.38,7.41,7.41,0,0,1-1.27-2,6.13,6.13,0,0,1,0-4.71,6.72,6.72,0,0,1,1.29-2,6.4,6.4,0,0,1,1.84-1.37,4.93,4.93,0,0,1,2.18-.49,4.1,4.1,0,0,1,1.57.26,4.5,4.5,0,0,1,1.09.61,3.45,3.45,0,0,1,.66.68l-.23-.35a1,1,0,0,1,.44-.91,2.42,2.42,0,0,1,1.39-.32,2.33,2.33,0,0,1,1.29.28,1.1,1.1,0,0,1,.47.72,4.86,4.86,0,0,1,.09.95v8.63a5.52,5.52,0,0,1-.08.92,1.11,1.11,0,0,1-.48.72A2.5,2.5,0,0,1,174,36.23Zm-4.37-3.73a2.12,2.12,0,0,0,1.19-.34,2.43,2.43,0,0,0,.86-.91,2.72,2.72,0,0,0,0-2.56,2.42,2.42,0,0,0-.88-.89,2.29,2.29,0,0,0-1.22-.32,2.48,2.48,0,0,0-1.27.33,2.7,2.7,0,0,0-.9.91,2.59,2.59,0,0,0-.33,1.3,2.4,2.4,0,0,0,.33,1.24,2.6,2.6,0,0,0,2.22,1.24Z"/><path class="cls-2" d="M183.18,36.26a16.21,16.21,0,0,1-1.82-.1,3.77,3.77,0,0,1-1.35-.4,2.42,2.42,0,0,1-.9-.84,4.19,4.19,0,0,1-.53-1.38,10.73,10.73,0,0,1-.17-2.06V19.93a3.82,3.82,0,0,1,.1-.92,1.11,1.11,0,0,1,.49-.7,3.16,3.16,0,0,1,2.6,0,1.17,1.17,0,0,1,.48.7,3.82,3.82,0,0,1,.1.92V31.31a6,6,0,0,0,0,.66,1,1,0,0,0,.15.41.54.54,0,0,0,.31.2,2,2,0,0,0,.53.05,2.62,2.62,0,0,1,.61.08.89.89,0,0,1,.54.45,2.58,2.58,0,0,1,.22,1.25,2.81,2.81,0,0,1-.22,1.3.86.86,0,0,1-.54.47A2.74,2.74,0,0,1,183.18,36.26Z"/><path class="cls-2" d="M192.41,36.46a6.21,6.21,0,0,1-2.34-.46A7.24,7.24,0,0,1,188,34.69a6.24,6.24,0,0,1-1.51-2,6,6,0,0,1-.56-2.64,6.16,6.16,0,0,1,.51-2.51A6.75,6.75,0,0,1,189.88,24a5.93,5.93,0,0,1,2.48-.52,6.37,6.37,0,0,1,3.27.87A6.45,6.45,0,0,1,198,26.72a6.38,6.38,0,0,1-1.19,8A6.46,6.46,0,0,1,194.69,36,6.31,6.31,0,0,1,192.41,36.46Zm0-3.77a2.89,2.89,0,0,0,2.28-1.2,2.6,2.6,0,0,0,.42-1.52,2.74,2.74,0,0,0-.35-1.4,2.41,2.41,0,0,0-1-.94,2.83,2.83,0,0,0-1.41-.34,2.6,2.6,0,0,0-1.34.35,2.65,2.65,0,0,0-.95,1,2.69,2.69,0,0,0-.36,1.39,2.6,2.6,0,0,0,.41,1.51,2.43,2.43,0,0,0,1,.9A2.9,2.9,0,0,0,192.36,32.69Z"/><path class="cls-2" d="M202.73,36.25a2.39,2.39,0,0,1-1.31-.27,1.07,1.07,0,0,1-.48-.7,5.31,5.31,0,0,1-.08-.91v-8.8a4.19,4.19,0,0,1,.09-.89,1,1,0,0,1,.49-.66,2.58,2.58,0,0,1,1.32-.25,2.51,2.51,0,0,1,1.18.21,1.1,1.1,0,0,1,.49.52,1.68,1.68,0,0,1,.11.56,1,1,0,0,0,.05.36l-.15.48a1.45,1.45,0,0,1,.39-.77,3.32,3.32,0,0,1,.85-.69,4.35,4.35,0,0,1,1.1-.49,4,4,0,0,1,1.16-.18,5.05,5.05,0,0,1,2.14.44,4.32,4.32,0,0,1,1.58,1.27,5.6,5.6,0,0,1,1,1.93,8.61,8.61,0,0,1,.34,2.44V34.4a5.31,5.31,0,0,1-.08.91,1,1,0,0,1-.48.69,2.57,2.57,0,0,1-1.34.25,2.54,2.54,0,0,1-1.32-.26,1.08,1.08,0,0,1-.49-.7,4.56,4.56,0,0,1-.09-.92V29.85a2.78,2.78,0,0,0-.27-1.28,1.81,1.81,0,0,0-.75-.8A2.43,2.43,0,0,0,207,27.5a2.59,2.59,0,0,0-1.25.28,2.06,2.06,0,0,0-.81.82,2.57,2.57,0,0,0-.29,1.25V34.4a4.53,4.53,0,0,1-.09.91A1.06,1.06,0,0,1,204,36,2.57,2.57,0,0,1,202.73,36.25Z"/><path class="cls-2" d="M225.63,36.26a2.33,2.33,0,0,1-1.37-.33.91.91,0,0,1-.43-.8l.25-.42a2.72,2.72,0,0,1-.57.61,4.35,4.35,0,0,1-1.12.65,4.29,4.29,0,0,1-1.66.29,5.08,5.08,0,0,1-2.19-.5,6,6,0,0,1-1.83-1.39,7.07,7.07,0,0,1-1.28-2A6.15,6.15,0,0,1,215,30a5.83,5.83,0,0,1,.48-2.34,6.34,6.34,0,0,1,1.29-2,6.15,6.15,0,0,1,1.83-1.36,4.84,4.84,0,0,1,2.18-.5,4.06,4.06,0,0,1,1.57.26,4.15,4.15,0,0,1,1.09.61,3.45,3.45,0,0,1,.66.68l-.22-.35a1,1,0,0,1,.44-.91,2.38,2.38,0,0,1,1.38-.32,2.33,2.33,0,0,1,1.29.28,1.14,1.14,0,0,1,.48.73,5.7,5.7,0,0,1,.08.95v8.62a4.73,4.73,0,0,1-.09.93,1.09,1.09,0,0,1-.48.71A2.45,2.45,0,0,1,225.63,36.26Zm-4.37-3.73a2.13,2.13,0,0,0,1.2-.34A2.6,2.6,0,0,0,223.64,30a2.53,2.53,0,0,0-.33-1.29,2.56,2.56,0,0,0-.87-.89,2.45,2.45,0,0,0-1.23-.32,2.42,2.42,0,0,0-1.26.33,2.48,2.48,0,0,0-.9.92,2.45,2.45,0,0,0-.34,1.3,2.28,2.28,0,0,0,.34,1.23,2.41,2.41,0,0,0,.92.9A2.49,2.49,0,0,0,221.26,32.53Z"/><path class="cls-2" d="M235.36,36.27a5.08,5.08,0,0,1-2.18-.49,5.86,5.86,0,0,1-1.82-1.37A6.54,6.54,0,0,1,229.64,30a6,6,0,0,1,.46-2.34,6.62,6.62,0,0,1,3.11-3.34,4.9,4.9,0,0,1,2.15-.49,4.51,4.51,0,0,1,2.12.48A4.65,4.65,0,0,1,239,25.64a6.48,6.48,0,0,1,.94,2,9.53,9.53,0,0,1,.35,2.35,9.73,9.73,0,0,1-.31,2.4,6.32,6.32,0,0,1-.92,2,4.75,4.75,0,0,1-1.55,1.38A4.31,4.31,0,0,1,235.36,36.27Zm.5-3.7a2.27,2.27,0,0,0,1.21-.34,2.74,2.74,0,0,0,.88-.91,2.66,2.66,0,0,0,.34-1.28,2.44,2.44,0,0,0-.33-1.26,2.5,2.5,0,0,0-.87-.9,2.32,2.32,0,0,0-1.25-.34,2.49,2.49,0,0,0-1.24.32,2.31,2.31,0,0,0-.88.9,2.63,2.63,0,0,0-.31,1.28,2.58,2.58,0,0,0,.32,1.27,2.48,2.48,0,0,0,.9.92A2.45,2.45,0,0,0,235.86,32.57Zm4.35,3.72a2.38,2.38,0,0,1-1.27-.27,1.32,1.32,0,0,1-.53-.85V20a6.62,6.62,0,0,1,.06-.91,1,1,0,0,1,.44-.72,2.24,2.24,0,0,1,1.27-.27,2.51,2.51,0,0,1,1.33.26,1.17,1.17,0,0,1,.47.69,3.82,3.82,0,0,1,.1.92v14.4a4.56,4.56,0,0,1-.09.92,1.07,1.07,0,0,1-.47.71A2.39,2.39,0,0,1,240.21,36.29Z"/><path class="cls-2" d="M250.61,36.5a6.41,6.41,0,0,1-2.34-.46,6.94,6.94,0,0,1-2.11-1.32,6.13,6.13,0,0,1-1.51-2,5.86,5.86,0,0,1-.56-2.63,6.24,6.24,0,0,1,.51-2.52A6.75,6.75,0,0,1,246,25.47a6.67,6.67,0,0,1,2.07-1.41,6.08,6.08,0,0,1,2.48-.51,6.39,6.39,0,0,1,3.27.86,6.61,6.61,0,0,1,2.33,2.34,6.41,6.41,0,0,1-1.19,8,6.73,6.73,0,0,1-2.08,1.28A6.32,6.32,0,0,1,250.61,36.5Zm-.05-3.78a2.9,2.9,0,0,0,1.22-.29,2.67,2.67,0,0,0,1.05-.9,2.54,2.54,0,0,0,.43-1.53,2.77,2.77,0,0,0-.35-1.4,2.48,2.48,0,0,0-1-.94,2.94,2.94,0,0,0-1.41-.34,2.6,2.6,0,0,0-1.34.35,2.76,2.76,0,0,0-.95,1,2.93,2.93,0,0,0,.05,2.9,2.61,2.61,0,0,0,1,.9A3,3,0,0,0,250.56,32.72Z"/><path class="cls-4" d="M53.27,24.34c0-1.37-1.23-2.06-3.7-2.06a19.62,19.62,0,0,0-2.1.15,18.5,18.5,0,0,1-1.94.14q-2.93,0-2.93-3.61t8.48-3.74q5.51,0,8.23,1.85A5.57,5.57,0,0,1,62,21.9a7.75,7.75,0,0,1-3.5,6.64,9.38,9.38,0,0,1,3.31,2.71,7.17,7.17,0,0,1,1,4A7.32,7.32,0,0,1,60,41.24a11.41,11.41,0,0,1-7.48,2.29q-5.87,0-8.41-1.24a4,4,0,0,1-2.54-3.76,3.89,3.89,0,0,1,.82-2.87,3.15,3.15,0,0,1,2.28-.78c.49,0,1.25.06,2.28.17s1.82.17,2.36.17q4.44,0,4.44-1.68A1.61,1.61,0,0,0,52.9,32a8,8,0,0,0-3.22-.44,6.5,6.5,0,0,1-3.34-.63,2.56,2.56,0,0,1-1-2.35c0-1.74,1.11-2.61,3.34-2.61a17.73,17.73,0,0,0,3.2-.21q1-.21,1.2-.48A1.82,1.82,0,0,0,53.27,24.34Z"/><path class="cls-4" d="M65.4,40.38a2.76,2.76,0,0,1,1.17-2.31,5.28,5.28,0,0,1,3.27-.88q4.44,0,4.44,3.19a3.08,3.08,0,0,1-.57,1.95,2.76,2.76,0,0,1-1.51,1,9.16,9.16,0,0,1-2.36.25,6.14,6.14,0,0,1-3.18-.75A2.64,2.64,0,0,1,65.4,40.38Z"/><path class="cls-4" d="M90,35.47h4.52q3.43,0,3.42,3.94a4,4,0,0,1-1.08,3.18c-.72.63-2,.94-3.85.94H82a6.87,6.87,0,0,1-3.89-.78c-.69-.51-1-1.63-1-3.33A5.55,5.55,0,0,1,77.22,38a3.41,3.41,0,0,1,.61-1.2,5.61,5.61,0,0,1,1.22-1.13c1.47-1,2.63-1.82,3.47-2.44s1.66-1.27,2.46-2a12.82,12.82,0,0,0,1.78-1.77,10,10,0,0,0,1-1.66A6,6,0,0,0,88.41,26a13.94,13.94,0,0,0,.15-2.19c0-1.57-.48-2.35-1.43-2.35s-1.55.92-1.55,2.77a2,2,0,0,1-1,2,7,7,0,0,1-2.89.46c-1.74,0-2.91-.39-3.52-1.18a6.35,6.35,0,0,1-.92-3.9,5.48,5.48,0,0,1,2.51-4.56,11.66,11.66,0,0,1,7-1.83q11.08,0,11.08,8.7a14.39,14.39,0,0,1-.46,3.67,11.09,11.09,0,0,1-1.1,2.77,9.07,9.07,0,0,1-1.77,2.13,17.25,17.25,0,0,1-2.1,1.63A26.83,26.83,0,0,1,90,35.47Z"/><path class="cls-5" d="M53.27,24.34c0-1.37-1.23-2.06-3.7-2.06a19.62,19.62,0,0,0-2.1.15,18.5,18.5,0,0,1-1.94.14q-2.93,0-2.93-3.61t8.48-3.74q5.51,0,8.23,1.85A5.57,5.57,0,0,1,62,21.9a7.75,7.75,0,0,1-3.5,6.64,9.38,9.38,0,0,1,3.31,2.71,7.17,7.17,0,0,1,1,4A7.32,7.32,0,0,1,60,41.24a11.41,11.41,0,0,1-7.48,2.29q-5.87,0-8.41-1.24a4,4,0,0,1-2.54-3.76,3.89,3.89,0,0,1,.82-2.87,3.15,3.15,0,0,1,2.28-.78c.49,0,1.25.06,2.28.17s1.82.17,2.36.17q4.44,0,4.44-1.68A1.61,1.61,0,0,0,52.9,32a8,8,0,0,0-3.22-.44,6.5,6.5,0,0,1-3.34-.63,2.56,2.56,0,0,1-1-2.35c0-1.74,1.11-2.61,3.34-2.61a17.73,17.73,0,0,0,3.2-.21q1-.21,1.2-.48A1.82,1.82,0,0,0,53.27,24.34Z"/><path class="cls-5" d="M65.4,40.38a2.76,2.76,0,0,1,1.17-2.31,5.28,5.28,0,0,1,3.27-.88q4.44,0,4.44,3.19a3.08,3.08,0,0,1-.57,1.95,2.76,2.76,0,0,1-1.51,1,9.16,9.16,0,0,1-2.36.25,6.14,6.14,0,0,1-3.18-.75A2.64,2.64,0,0,1,65.4,40.38Z"/><path class="cls-5" d="M90,35.47h4.52q3.43,0,3.42,3.94a4,4,0,0,1-1.08,3.18c-.72.63-2,.94-3.85.94H82a6.87,6.87,0,0,1-3.89-.78c-.69-.51-1-1.63-1-3.33A5.55,5.55,0,0,1,77.22,38a3.41,3.41,0,0,1,.61-1.2,5.61,5.61,0,0,1,1.22-1.13c1.47-1,2.63-1.82,3.47-2.44s1.66-1.27,2.46-2a12.82,12.82,0,0,0,1.78-1.77,10,10,0,0,0,1-1.66A6,6,0,0,0,88.41,26a13.94,13.94,0,0,0,.15-2.19c0-1.57-.48-2.35-1.43-2.35s-1.55.92-1.55,2.77a2,2,0,0,1-1,2,7,7,0,0,1-2.89.46c-1.74,0-2.91-.39-3.52-1.18a6.35,6.35,0,0,1-.92-3.9,5.48,5.48,0,0,1,2.51-4.56,11.66,11.66,0,0,1,7-1.83q11.08,0,11.08,8.7a14.39,14.39,0,0,1-.46,3.67,11.09,11.09,0,0,1-1.1,2.77,9.07,9.07,0,0,1-1.77,2.13,17.25,17.25,0,0,1-2.1,1.63A26.83,26.83,0,0,1,90,35.47Z"/></g></g></svg>