<svg xmlns="http://www.w3.org/2000/svg" viewBox="0 0 399.98 103.24"><defs><style>.cls-1{fill:#23841a;}.cls-2{fill:#fff;}.cls-3,.cls-4{fill:none;stroke-width:5px;}.cls-3{stroke:#ff7300;stroke-linejoin:round;}.cls-4{stroke:#fff;}.cls-5{fill:#ff7300;}</style></defs><title>33t</title><g id="Layer_2" data-name="Layer 2"><g id="pestaña_identificativa" data-name="pestaña identificativa"><rect class="cls-1" width="399.98" height="103.24" rx="32.4"/><path class="cls-2" d="M124.81,34.84a2.29,2.29,0,0,1-1.3-.29,1.21,1.21,0,0,1-.5-.75,4.34,4.34,0,0,1-.1-1V19.29a4,4,0,0,1,.1-.94,1.18,1.18,0,0,1,.5-.73,2.33,2.33,0,0,1,1.32-.28H131a5,5,0,0,1,2.65.71,5.4,5.4,0,0,1,1.83,1.88,4.86,4.86,0,0,1,.65,2.54,4.47,4.47,0,0,1-.1,1.09,5.09,5.09,0,0,1-.37,1,5,5,0,0,1-.59.9,4.31,4.31,0,0,1,.88,1.11,6.48,6.48,0,0,1,.54,1.34,5.64,5.64,0,0,1,.18,1.42,6.05,6.05,0,0,1-.45,2.17,5.51,5.51,0,0,1-1.16,1.75,5.67,5.67,0,0,1-1.72,1.16,5.25,5.25,0,0,1-2.1.42Zm1.93-3.78H131a2.46,2.46,0,0,0,.88-.17,1.43,1.43,0,0,0,.72-.6,2.34,2.34,0,0,0,.27-1.23,2.68,2.68,0,0,0-.12-.87,1.47,1.47,0,0,0-.34-.53,1.05,1.05,0,0,0-.49-.28,3.39,3.39,0,0,0-.57-.1l-.58,0h-.72a1.62,1.62,0,0,1-1.2-.36,1.76,1.76,0,0,1-.35-1.26,1.62,1.62,0,0,1,.39-1.23,1.84,1.84,0,0,1,1.24-.35h.72a3.21,3.21,0,0,0,.53,0,1.23,1.23,0,0,0,.48-.15.9.9,0,0,0,.35-.41,1.9,1.9,0,0,0,.14-.79,1.53,1.53,0,0,0-.42-1.21,2.43,2.43,0,0,0-1.53-.36h-3.7Z"/><path class="cls-2" d="M144.33,34.82a5.2,5.2,0,0,1-2.17-.45,5.33,5.33,0,0,1-1.75-1.26,5.69,5.69,0,0,1-1.16-1.93,6.83,6.83,0,0,1-.41-2.44V24.22a4.59,4.59,0,0,1,.09-.93,1.08,1.08,0,0,1,.49-.69,2.31,2.31,0,0,1,1.32-.28,2.27,2.27,0,0,1,1.31.28,1.12,1.12,0,0,1,.48.71,4.64,4.64,0,0,1,.08.94v4.5a2.92,2.92,0,0,0,.26,1.26,1.8,1.8,0,0,0,.78.81,2.43,2.43,0,0,0,1.21.28,2.53,2.53,0,0,0,1.24-.29,2,2,0,0,0,.8-.81,2.59,2.59,0,0,0,.29-1.25V24.2a4.42,4.42,0,0,1,.09-.92,1,1,0,0,1,.49-.69,2.42,2.42,0,0,1,1.32-.26,2.37,2.37,0,0,1,1.31.27,1.15,1.15,0,0,1,.48.71,4.63,4.63,0,0,1,.08.92V33a4.1,4.1,0,0,1-.09.88,1,1,0,0,1-.49.67,2.61,2.61,0,0,1-1.3.25,2.92,2.92,0,0,1-1.05-.15,1.31,1.31,0,0,1-.55-.38,1.16,1.16,0,0,1-.21-.47,4.14,4.14,0,0,1,0-.45l.33-.28a3.06,3.06,0,0,1-.33.39,5.22,5.22,0,0,1-.66.57,4.21,4.21,0,0,1-1,.54A3.37,3.37,0,0,1,144.33,34.82Z"/><path class="cls-2" d="M159.63,35a6.37,6.37,0,0,1-2.23-.42,6.92,6.92,0,0,1-2.1-1.21,5.68,5.68,0,0,1-1.54-2,6.35,6.35,0,0,1-.57-2.75,6.2,6.2,0,0,1,.57-2.73,6.11,6.11,0,0,1,1.53-2,6.75,6.75,0,0,1,2.09-1.21,6.33,6.33,0,0,1,2.21-.41,6,6,0,0,1,1.66.21,5.41,5.41,0,0,1,1.25.51,3.87,3.87,0,0,1,.74.53,8.35,8.35,0,0,1,.75.65,1.05,1.05,0,0,1,.3.85,1.59,1.59,0,0,1-.18.56,4.36,4.36,0,0,1-.37.59c-.52.7-1,1-1.5.95a2.58,2.58,0,0,1-.69-.25l-.6-.35a4.37,4.37,0,0,0-.61-.31,1.79,1.79,0,0,0-.75-.14,2.56,2.56,0,0,0-1.3.33,2.64,2.64,0,0,0-.92.9,2.77,2.77,0,0,0,0,2.62,2.7,2.7,0,0,0,.9.91,2.48,2.48,0,0,0,1.26.34,2.74,2.74,0,0,0,.73-.1,2.59,2.59,0,0,0,.55-.24l.35-.21a5.41,5.41,0,0,1,.58-.36,1,1,0,0,1,.55-.17,1.2,1.2,0,0,1,.73.27,4,4,0,0,1,.82.83,2.11,2.11,0,0,1,.48,1,1.22,1.22,0,0,1-.21.86,2.56,2.56,0,0,1-.85.76,4.05,4.05,0,0,1-.71.45,6.77,6.77,0,0,1-1.25.5A5.76,5.76,0,0,1,159.63,35Z"/><path class="cls-2" d="M171.38,34.86a14.14,14.14,0,0,1-1.82-.1,3.64,3.64,0,0,1-1.35-.4,2.42,2.42,0,0,1-.9-.84,4,4,0,0,1-.53-1.37,10.88,10.88,0,0,1-.17-2.06V18.54a3.84,3.84,0,0,1,.1-.93,1.17,1.17,0,0,1,.49-.7,3.26,3.26,0,0,1,2.6,0,1.19,1.19,0,0,1,.48.7,4,4,0,0,1,.1.93V29.91a6.19,6.19,0,0,0,0,.67,1,1,0,0,0,.15.41.54.54,0,0,0,.32.2,2.34,2.34,0,0,0,.52,0,2.6,2.6,0,0,1,.61.07.91.91,0,0,1,.54.46,2.55,2.55,0,0,1,.22,1.25,2.74,2.74,0,0,1-.22,1.29.88.88,0,0,1-.54.48A2.73,2.73,0,0,1,171.38,34.86Z"/><path class="cls-2" d="M180.81,35.1a7.49,7.49,0,0,1-3-.58A6,6,0,0,1,175.73,33a6.57,6.57,0,0,1-1.2-2.08,7.17,7.17,0,0,1-.39-2.3,6.45,6.45,0,0,1,.85-3.33A6.09,6.09,0,0,1,177.35,23a7,7,0,0,1,3.47-.84,6.43,6.43,0,0,1,2.51.46,5.06,5.06,0,0,1,2.77,2.79,4.33,4.33,0,0,1,.34,1.63,2.84,2.84,0,0,1-.67,2.05,2.25,2.25,0,0,1-1.68.67h-6a1.68,1.68,0,0,0,.46,1.07,2.69,2.69,0,0,0,1,.7,3.5,3.5,0,0,0,1.33.25,6.7,6.7,0,0,0,1-.06,4.18,4.18,0,0,0,.78-.17c.22-.08.42-.15.59-.23l.49-.18a1.81,1.81,0,0,1,.42-.1,1,1,0,0,1,.68.21,2,2,0,0,1,.57.71,1.75,1.75,0,0,1,.24.53,2.07,2.07,0,0,1,.06.5,1.32,1.32,0,0,1-.61,1.08,4.68,4.68,0,0,1-1.72.74A11.58,11.58,0,0,1,180.81,35.1Zm-2.67-7.41h4a1,1,0,0,0,.57-.14.62.62,0,0,0,.2-.54,1.23,1.23,0,0,0-.27-.77,1.7,1.7,0,0,0-.74-.54,2.8,2.8,0,0,0-1.09-.19,3,3,0,0,0-1.35.3,2.36,2.36,0,0,0-.93.8A1.84,1.84,0,0,0,178.14,27.69Z"/><path class="cls-3" d="M124.81,34.84a2.29,2.29,0,0,1-1.3-.29,1.21,1.21,0,0,1-.5-.75,4.34,4.34,0,0,1-.1-1V19.29a4,4,0,0,1,.1-.94,1.18,1.18,0,0,1,.5-.73,2.33,2.33,0,0,1,1.32-.28H131a5,5,0,0,1,2.65.71,5.4,5.4,0,0,1,1.83,1.88,4.86,4.86,0,0,1,.65,2.54,4.47,4.47,0,0,1-.1,1.09,5.09,5.09,0,0,1-.37,1,5,5,0,0,1-.59.9,4.31,4.31,0,0,1,.88,1.11,6.48,6.48,0,0,1,.54,1.34,5.64,5.64,0,0,1,.18,1.42,6.05,6.05,0,0,1-.45,2.17,5.51,5.51,0,0,1-1.16,1.75,5.67,5.67,0,0,1-1.72,1.16,5.25,5.25,0,0,1-2.1.42Zm1.93-3.78H131a2.46,2.46,0,0,0,.88-.17,1.43,1.43,0,0,0,.72-.6,2.34,2.34,0,0,0,.27-1.23,2.68,2.68,0,0,0-.12-.87,1.47,1.47,0,0,0-.34-.53,1.05,1.05,0,0,0-.49-.28,3.39,3.39,0,0,0-.57-.1l-.58,0h-.72a1.62,1.62,0,0,1-1.2-.36,1.76,1.76,0,0,1-.35-1.26,1.62,1.62,0,0,1,.39-1.23,1.84,1.84,0,0,1,1.24-.35h.72a3.21,3.21,0,0,0,.53,0,1.23,1.23,0,0,0,.48-.15.9.9,0,0,0,.35-.41,1.9,1.9,0,0,0,.14-.79,1.53,1.53,0,0,0-.42-1.21,2.43,2.43,0,0,0-1.53-.36h-3.7Z"/><path class="cls-3" d="M144.33,34.82a5.2,5.2,0,0,1-2.17-.45,5.33,5.33,0,0,1-1.75-1.26,5.69,5.69,0,0,1-1.16-1.93,6.83,6.83,0,0,1-.41-2.44V24.22a4.59,4.59,0,0,1,.09-.93,1.08,1.08,0,0,1,.49-.69,2.31,2.31,0,0,1,1.32-.28,2.27,2.27,0,0,1,1.31.28,1.12,1.12,0,0,1,.48.71,4.64,4.64,0,0,1,.08.94v4.5a2.92,2.92,0,0,0,.26,1.26,1.8,1.8,0,0,0,.78.81,2.43,2.43,0,0,0,1.21.28,2.53,2.53,0,0,0,1.24-.29,2,2,0,0,0,.8-.81,2.59,2.59,0,0,0,.29-1.25V24.2a4.42,4.42,0,0,1,.09-.92,1,1,0,0,1,.49-.69,2.42,2.42,0,0,1,1.32-.26,2.37,2.37,0,0,1,1.31.27,1.15,1.15,0,0,1,.48.71,4.63,4.63,0,0,1,.08.92V33a4.1,4.1,0,0,1-.09.88,1,1,0,0,1-.49.67,2.61,2.61,0,0,1-1.3.25,2.92,2.92,0,0,1-1.05-.15,1.31,1.31,0,0,1-.55-.38,1.16,1.16,0,0,1-.21-.47,4.14,4.14,0,0,1,0-.45l.33-.28a3.06,3.06,0,0,1-.33.39,5.22,5.22,0,0,1-.66.57,4.21,4.21,0,0,1-1,.54A3.37,3.37,0,0,1,144.33,34.82Z"/><path class="cls-3" d="M159.63,35a6.37,6.37,0,0,1-2.23-.42,6.92,6.92,0,0,1-2.1-1.21,5.68,5.68,0,0,1-1.54-2,6.35,6.35,0,0,1-.57-2.75,6.2,6.2,0,0,1,.57-2.73,6.11,6.11,0,0,1,1.53-2,6.75,6.75,0,0,1,2.09-1.21,6.33,6.33,0,0,1,2.21-.41,6,6,0,0,1,1.66.21,5.41,5.41,0,0,1,1.25.51,3.87,3.87,0,0,1,.74.53,8.35,8.35,0,0,1,.75.65,1.05,1.05,0,0,1,.3.85,1.59,1.59,0,0,1-.18.56,4.36,4.36,0,0,1-.37.59c-.52.7-1,1-1.5.95a2.58,2.58,0,0,1-.69-.25l-.6-.35a4.37,4.37,0,0,0-.61-.31,1.79,1.79,0,0,0-.75-.14,2.56,2.56,0,0,0-1.3.33,2.64,2.64,0,0,0-.92.9,2.77,2.77,0,0,0,0,2.62,2.7,2.7,0,0,0,.9.91,2.48,2.48,0,0,0,1.26.34,2.74,2.74,0,0,0,.73-.1,2.59,2.59,0,0,0,.55-.24l.35-.21a5.41,5.41,0,0,1,.58-.36,1,1,0,0,1,.55-.17,1.2,1.2,0,0,1,.73.27,4,4,0,0,1,.82.83,2.11,2.11,0,0,1,.48,1,1.22,1.22,0,0,1-.21.86,2.56,2.56,0,0,1-.85.76,4.05,4.05,0,0,1-.71.45,6.77,6.77,0,0,1-1.25.5A5.76,5.76,0,0,1,159.63,35Z"/><path class="cls-3" d="M171.38,34.86a14.14,14.14,0,0,1-1.82-.1,3.64,3.64,0,0,1-1.35-.4,2.42,2.42,0,0,1-.9-.84,4,4,0,0,1-.53-1.37,10.88,10.88,0,0,1-.17-2.06V18.54a3.84,3.84,0,0,1,.1-.93,1.17,1.17,0,0,1,.49-.7,3.26,3.26,0,0,1,2.6,0,1.19,1.19,0,0,1,.48.7,4,4,0,0,1,.1.93V29.91a6.19,6.19,0,0,0,0,.67,1,1,0,0,0,.15.41.54.54,0,0,0,.32.2,2.34,2.34,0,0,0,.52,0,2.6,2.6,0,0,1,.61.07.91.91,0,0,1,.54.46,2.55,2.55,0,0,1,.22,1.25,2.74,2.74,0,0,1-.22,1.29.88.88,0,0,1-.54.48A2.73,2.73,0,0,1,171.38,34.86Z"/><path class="cls-3" d="M180.81,35.1a7.49,7.49,0,0,1-3-.58A6,6,0,0,1,175.73,33a6.57,6.57,0,0,1-1.2-2.08,7.17,7.17,0,0,1-.39-2.3,6.45,6.45,0,0,1,.85-3.33A6.09,6.09,0,0,1,177.35,23a7,7,0,0,1,3.47-.84,6.43,6.43,0,0,1,2.51.46,5.06,5.06,0,0,1,2.77,2.79,4.33,4.33,0,0,1,.34,1.63,2.84,2.84,0,0,1-.67,2.05,2.25,2.25,0,0,1-1.68.67h-6a1.68,1.68,0,0,0,.46,1.07,2.69,2.69,0,0,0,1,.7,3.5,3.5,0,0,0,1.33.25,6.7,6.7,0,0,0,1-.06,4.18,4.18,0,0,0,.78-.17c.22-.08.42-.15.59-.23l.49-.18a1.81,1.81,0,0,1,.42-.1,1,1,0,0,1,.68.21,2,2,0,0,1,.57.71,1.75,1.75,0,0,1,.24.53,2.07,2.07,0,0,1,.06.5,1.32,1.32,0,0,1-.61,1.08,4.68,4.68,0,0,1-1.72.74A11.58,11.58,0,0,1,180.81,35.1Zm-2.67-7.41h4a1,1,0,0,0,.57-.14.62.62,0,0,0,.2-.54,1.23,1.23,0,0,0-.27-.77,1.7,1.7,0,0,0-.74-.54,2.8,2.8,0,0,0-1.09-.19,3,3,0,0,0-1.35.3,2.36,2.36,0,0,0-.93.8A1.84,1.84,0,0,0,178.14,27.69Z"/><path class="cls-2" d="M124.81,34.84a2.29,2.29,0,0,1-1.3-.29,1.21,1.21,0,0,1-.5-.75,4.34,4.34,0,0,1-.1-1V19.29a4,4,0,0,1,.1-.94,1.18,1.18,0,0,1,.5-.73,2.33,2.33,0,0,1,1.32-.28H131a5,5,0,0,1,2.65.71,5.4,5.4,0,0,1,1.83,1.88,4.86,4.86,0,0,1,.65,2.54,4.47,4.47,0,0,1-.1,1.09,5.09,5.09,0,0,1-.37,1,5,5,0,0,1-.59.9,4.31,4.31,0,0,1,.88,1.11,6.48,6.48,0,0,1,.54,1.34,5.64,5.64,0,0,1,.18,1.42,6.05,6.05,0,0,1-.45,2.17,5.51,5.51,0,0,1-1.16,1.75,5.67,5.67,0,0,1-1.72,1.16,5.25,5.25,0,0,1-2.1.42Zm1.93-3.78H131a2.46,2.46,0,0,0,.88-.17,1.43,1.43,0,0,0,.72-.6,2.34,2.34,0,0,0,.27-1.23,2.68,2.68,0,0,0-.12-.87,1.47,1.47,0,0,0-.34-.53,1.05,1.05,0,0,0-.49-.28,3.39,3.39,0,0,0-.57-.1l-.58,0h-.72a1.62,1.62,0,0,1-1.2-.36,1.76,1.76,0,0,1-.35-1.26,1.62,1.62,0,0,1,.39-1.23,1.84,1.84,0,0,1,1.24-.35h.72a3.21,3.21,0,0,0,.53,0,1.23,1.23,0,0,0,.48-.15.9.9,0,0,0,.35-.41,1.9,1.9,0,0,0,.14-.79,1.53,1.53,0,0,0-.42-1.21,2.43,2.43,0,0,0-1.53-.36h-3.7Z"/><path class="cls-2" d="M144.33,34.82a5.2,5.2,0,0,1-2.17-.45,5.33,5.33,0,0,1-1.75-1.26,5.69,5.69,0,0,1-1.16-1.93,6.83,6.83,0,0,1-.41-2.44V24.22a4.59,4.59,0,0,1,.09-.93,1.08,1.08,0,0,1,.49-.69,2.31,2.31,0,0,1,1.32-.28,2.27,2.27,0,0,1,1.31.28,1.12,1.12,0,0,1,.48.71,4.64,4.64,0,0,1,.08.94v4.5a2.92,2.92,0,0,0,.26,1.26,1.8,1.8,0,0,0,.78.81,2.43,2.43,0,0,0,1.21.28,2.53,2.53,0,0,0,1.24-.29,2,2,0,0,0,.8-.81,2.59,2.59,0,0,0,.29-1.25V24.2a4.42,4.42,0,0,1,.09-.92,1,1,0,0,1,.49-.69,2.42,2.42,0,0,1,1.32-.26,2.37,2.37,0,0,1,1.31.27,1.15,1.15,0,0,1,.48.71,4.63,4.63,0,0,1,.08.92V33a4.1,4.1,0,0,1-.09.88,1,1,0,0,1-.49.67,2.61,2.61,0,0,1-1.3.25,2.92,2.92,0,0,1-1.05-.15,1.31,1.31,0,0,1-.55-.38,1.16,1.16,0,0,1-.21-.47,4.14,4.14,0,0,1,0-.45l.33-.28a3.06,3.06,0,0,1-.33.39,5.22,5.22,0,0,1-.66.57,4.21,4.21,0,0,1-1,.54A3.37,3.37,0,0,1,144.33,34.82Z"/><path class="cls-2" d="M159.63,35a6.37,6.37,0,0,1-2.23-.42,6.92,6.92,0,0,1-2.1-1.21,5.68,5.68,0,0,1-1.54-2,6.35,6.35,0,0,1-.57-2.75,6.2,6.2,0,0,1,.57-2.73,6.11,6.11,0,0,1,1.53-2,6.75,6.75,0,0,1,2.09-1.21,6.33,6.33,0,0,1,2.21-.41,6,6,0,0,1,1.66.21,5.41,5.41,0,0,1,1.25.51,3.87,3.87,0,0,1,.74.53,8.35,8.35,0,0,1,.75.65,1.05,1.05,0,0,1,.3.85,1.59,1.59,0,0,1-.18.56,4.36,4.36,0,0,1-.37.59c-.52.7-1,1-1.5.95a2.58,2.58,0,0,1-.69-.25l-.6-.35a4.37,4.37,0,0,0-.61-.31,1.79,1.79,0,0,0-.75-.14,2.56,2.56,0,0,0-1.3.33,2.64,2.64,0,0,0-.92.9,2.77,2.77,0,0,0,0,2.62,2.7,2.7,0,0,0,.9.91,2.48,2.48,0,0,0,1.26.34,2.74,2.74,0,0,0,.73-.1,2.59,2.59,0,0,0,.55-.24l.35-.21a5.41,5.41,0,0,1,.58-.36,1,1,0,0,1,.55-.17,1.2,1.2,0,0,1,.73.27,4,4,0,0,1,.82.83,2.11,2.11,0,0,1,.48,1,1.22,1.22,0,0,1-.21.86,2.56,2.56,0,0,1-.85.76,4.05,4.05,0,0,1-.71.45,6.77,6.77,0,0,1-1.25.5A5.76,5.76,0,0,1,159.63,35Z"/><path class="cls-2" d="M171.38,34.86a14.14,14.14,0,0,1-1.82-.1,3.64,3.64,0,0,1-1.35-.4,2.42,2.42,0,0,1-.9-.84,4,4,0,0,1-.53-1.37,10.88,10.88,0,0,1-.17-2.06V18.54a3.84,3.84,0,0,1,.1-.93,1.17,1.17,0,0,1,.49-.7,3.26,3.26,0,0,1,2.6,0,1.19,1.19,0,0,1,.48.7,4,4,0,0,1,.1.93V29.91a6.19,6.19,0,0,0,0,.67,1,1,0,0,0,.15.41.54.54,0,0,0,.32.2,2.34,2.34,0,0,0,.52,0,2.6,2.6,0,0,1,.61.07.91.91,0,0,1,.54.46,2.55,2.55,0,0,1,.22,1.25,2.74,2.74,0,0,1-.22,1.29.88.88,0,0,1-.54.48A2.73,2.73,0,0,1,171.38,34.86Z"/><path class="cls-2" d="M180.81,35.1a7.49,7.49,0,0,1-3-.58A6,6,0,0,1,175.73,33a6.57,6.57,0,0,1-1.2-2.08,7.17,7.17,0,0,1-.39-2.3,6.45,6.45,0,0,1,.85-3.33A6.09,6.09,0,0,1,177.35,23a7,7,0,0,1,3.47-.84,6.43,6.43,0,0,1,2.51.46,5.06,5.06,0,0,1,2.77,2.79,4.33,4.33,0,0,1,.34,1.63,2.84,2.84,0,0,1-.67,2.05,2.25,2.25,0,0,1-1.68.67h-6a1.68,1.68,0,0,0,.46,1.07,2.69,2.69,0,0,0,1,.7,3.5,3.5,0,0,0,1.33.25,6.7,6.7,0,0,0,1-.06,4.18,4.18,0,0,0,.78-.17c.22-.08.42-.15.59-.23l.49-.18a1.81,1.81,0,0,1,.42-.1,1,1,0,0,1,.68.21,2,2,0,0,1,.57.71,1.75,1.75,0,0,1,.24.53,2.07,2.07,0,0,1,.06.5,1.32,1.32,0,0,1-.61,1.08,4.68,4.68,0,0,1-1.72.74A11.58,11.58,0,0,1,180.81,35.1Zm-2.67-7.41h4a1,1,0,0,0,.57-.14.62.62,0,0,0,.2-.54,1.23,1.23,0,0,0-.27-.77,1.7,1.7,0,0,0-.74-.54,2.8,2.8,0,0,0-1.09-.19,3,3,0,0,0-1.35.3,2.36,2.36,0,0,0-.93.8A1.84,1.84,0,0,0,178.14,27.69Z"/><path class="cls-4" d="M53.27,23c0-1.37-1.23-2.06-3.7-2.06a19.62,19.62,0,0,0-2.1.15,19.23,19.23,0,0,1-1.94.15q-2.93,0-2.93-3.62t8.48-3.73q5.51,0,8.23,1.84A5.59,5.59,0,0,1,62,20.51a7.74,7.74,0,0,1-3.5,6.64,9.38,9.38,0,0,1,3.31,2.71,7.17,7.17,0,0,1,1,4,7.35,7.35,0,0,1-2.8,6,11.46,11.46,0,0,1-7.48,2.28q-5.87,0-8.41-1.23a4,4,0,0,1-2.54-3.76,3.92,3.92,0,0,1,.82-2.88,3.15,3.15,0,0,1,2.28-.78c.49,0,1.25.06,2.28.17s1.82.17,2.36.17q4.44,0,4.44-1.68a1.62,1.62,0,0,0-.85-1.58,8,8,0,0,0-3.22-.44,6.5,6.5,0,0,1-3.34-.63,2.56,2.56,0,0,1-1-2.35c0-1.73,1.11-2.6,3.34-2.6a17.73,17.73,0,0,0,3.2-.21c.69-.14,1.09-.3,1.2-.49A1.82,1.82,0,0,0,53.27,23Z"/><path class="cls-4" d="M65.4,39a2.76,2.76,0,0,1,1.17-2.31,5.34,5.34,0,0,1,3.27-.88c3,0,4.44,1.07,4.44,3.19a3.11,3.11,0,0,1-.57,2,2.69,2.69,0,0,1-1.51,1,9.11,9.11,0,0,1-2.36.26,6.13,6.13,0,0,1-3.18-.76A2.62,2.62,0,0,1,65.4,39Z"/><path class="cls-4" d="M88.68,23c0-1.37-1.24-2.06-3.71-2.06a20,20,0,0,0-2.1.15,19.08,19.08,0,0,1-1.93.15C79,21.19,78,20,78,17.57s2.83-3.73,8.48-3.73c3.66,0,6.41.61,8.22,1.84a5.63,5.63,0,0,1,2.73,4.83,7.73,7.73,0,0,1-3.51,6.64,9.52,9.52,0,0,1,3.32,2.71,7.18,7.18,0,0,1,1,4,7.31,7.31,0,0,1-2.79,5.94,11.44,11.44,0,0,1-7.48,2.29c-3.91,0-6.72-.41-8.41-1.23A4,4,0,0,1,77,37.15a4,4,0,0,1,.82-2.88,3.15,3.15,0,0,1,2.28-.78c.49,0,1.25.06,2.28.17s1.82.17,2.37.17q4.44,0,4.44-1.68a1.63,1.63,0,0,0-.86-1.58,8,8,0,0,0-3.21-.44,6.47,6.47,0,0,1-3.34-.63,2.56,2.56,0,0,1-1-2.35c0-1.73,1.12-2.6,3.34-2.6a17.65,17.65,0,0,0,3.2-.21c.69-.14,1.09-.3,1.2-.49A1.81,1.81,0,0,0,88.68,23Z"/><path class="cls-5" d="M53.27,23c0-1.37-1.23-2.06-3.7-2.06a19.62,19.62,0,0,0-2.1.15,19.23,19.23,0,0,1-1.94.15q-2.93,0-2.93-3.62t8.48-3.73q5.51,0,8.23,1.84A5.59,5.59,0,0,1,62,20.51a7.74,7.74,0,0,1-3.5,6.64,9.38,9.38,0,0,1,3.31,2.71,7.17,7.17,0,0,1,1,4,7.35,7.35,0,0,1-2.8,6,11.46,11.46,0,0,1-7.48,2.28q-5.87,0-8.41-1.23a4,4,0,0,1-2.54-3.76,3.92,3.92,0,0,1,.82-2.88,3.15,3.15,0,0,1,2.28-.78c.49,0,1.25.06,2.28.17s1.82.17,2.36.17q4.44,0,4.44-1.68a1.62,1.62,0,0,0-.85-1.58,8,8,0,0,0-3.22-.44,6.5,6.5,0,0,1-3.34-.63,2.56,2.56,0,0,1-1-2.35c0-1.73,1.11-2.6,3.34-2.6a17.73,17.73,0,0,0,3.2-.21c.69-.14,1.09-.3,1.2-.49A1.82,1.82,0,0,0,53.27,23Z"/><path class="cls-5" d="M65.4,39a2.76,2.76,0,0,1,1.17-2.31,5.34,5.34,0,0,1,3.27-.88c3,0,4.44,1.07,4.44,3.19a3.11,3.11,0,0,1-.57,2,2.69,2.69,0,0,1-1.51,1,9.11,9.11,0,0,1-2.36.26,6.13,6.13,0,0,1-3.18-.76A2.62,2.62,0,0,1,65.4,39Z"/><path class="cls-5" d="M88.68,23c0-1.37-1.24-2.06-3.71-2.06a20,20,0,0,0-2.1.15,19.08,19.08,0,0,1-1.93.15C79,21.19,78,20,78,17.57s2.83-3.73,8.48-3.73c3.66,0,6.41.61,8.22,1.84a5.63,5.63,0,0,1,2.73,4.83,7.73,7.73,0,0,1-3.51,6.64,9.52,9.52,0,0,1,3.32,2.71,7.18,7.18,0,0,1,1,4,7.31,7.31,0,0,1-2.79,5.94,11.44,11.44,0,0,1-7.48,2.29c-3.91,0-6.72-.41-8.41-1.23A4,4,0,0,1,77,37.15a4,4,0,0,1,.82-2.88,3.15,3.15,0,0,1,2.28-.78c.49,0,1.25.06,2.28.17s1.82.17,2.37.17q4.44,0,4.44-1.68a1.63,1.63,0,0,0-.86-1.58,8,8,0,0,0-3.21-.44,6.47,6.47,0,0,1-3.34-.63,2.56,2.56,0,0,1-1-2.35c0-1.73,1.12-2.6,3.34-2.6a17.65,17.65,0,0,0,3.2-.21c.69-.14,1.09-.3,1.2-.49A1.81,1.81,0,0,0,88.68,23Z"/></g></g></svg>