<svg xmlns="http://www.w3.org/2000/svg" viewBox="0 0 399.98 78.84"><defs><style>.cls-1{fill:#a41010;}.cls-2{fill:#fff;}.cls-3,.cls-4{fill:none;stroke-width:5px;}.cls-3{stroke:#c8a927;stroke-linejoin:round;}.cls-4,.cls-5{font-size:42px;font-family:Coiny-Regular, Coiny;}.cls-4{stroke:#fff;}.cls-5{fill:#c8a927;}</style></defs><title>33tn</title><g id="Layer_2" data-name="Layer 2"><g id="pestaña_identificativa" data-name="pestaña identificativa"><rect class="cls-1" width="399.98" height="78.84" rx="32.4"/><path class="cls-2" d="M97.11,17.34a4,4,0,0,1,.79.08.9.9,0,0,1,.58.42A2.23,2.23,0,0,1,98.71,19a2.15,2.15,0,0,1-.23,1.13.91.91,0,0,1-.6.42,4.09,4.09,0,0,1-.8.08h-4V33a4.29,4.29,0,0,1-.09.9,1.13,1.13,0,0,1-.47.69,2.58,2.58,0,0,1-1.34.26,2.45,2.45,0,0,1-1.28-.26,1.06,1.06,0,0,1-.48-.7A4.63,4.63,0,0,1,89.3,33V20.61h-4a3.33,3.33,0,0,1-.78-.09,1,1,0,0,1-.61-.42A2.06,2.06,0,0,1,83.63,19a2.06,2.06,0,0,1,.24-1.13,1,1,0,0,1,.61-.42,4,4,0,0,1,.78-.07Z"/><path class="cls-2" d="M102.67,34.85a2.39,2.39,0,0,1-1.31-.27,1,1,0,0,1-.47-.71,4.7,4.7,0,0,1-.09-.92V24.22a4.59,4.59,0,0,1,.09-.93,1,1,0,0,1,.49-.68,2.47,2.47,0,0,1,1.32-.26,2.65,2.65,0,0,1,1.27.23,1,1,0,0,1,.48.56,1.63,1.63,0,0,1,.1.53l-.3.15a3.91,3.91,0,0,1,.27-.36,3.1,3.1,0,0,1,.58-.55,3.79,3.79,0,0,1,.92-.49,3.6,3.6,0,0,1,1.23-.2c.19,0,.39,0,.62,0a4.89,4.89,0,0,1,.7.15,3.32,3.32,0,0,1,.66.3,1.69,1.69,0,0,1,.49.47,1.17,1.17,0,0,1,.18.67,3.14,3.14,0,0,1-.47,1.74,1.42,1.42,0,0,1-1.2.71,2,2,0,0,1-.6-.06,1,1,0,0,1-.29-.15.93.93,0,0,0-.26-.15,1.65,1.65,0,0,0-.55-.07,2.71,2.71,0,0,0-.71.1,1.88,1.88,0,0,0-.63.32,1.45,1.45,0,0,0-.61,1.23V33a5.4,5.4,0,0,1-.08.91,1.07,1.07,0,0,1-.49.69A2.71,2.71,0,0,1,102.67,34.85Z"/><path class="cls-2" d="M122.07,34.83a2.41,2.41,0,0,1-1.37-.32.93.93,0,0,1-.43-.8l.25-.43a2.72,2.72,0,0,1-.57.61,4.25,4.25,0,0,1-2.78.94,5.08,5.08,0,0,1-2.19-.5,6,6,0,0,1-1.83-1.39,7.24,7.24,0,0,1-1.28-2,6.16,6.16,0,0,1-.47-2.38,5.9,5.9,0,0,1,.48-2.34,6.46,6.46,0,0,1,1.29-2A6.33,6.33,0,0,1,115,22.88a5,5,0,0,1,2.18-.5,4.26,4.26,0,0,1,1.57.26,4.16,4.16,0,0,1,1.09.62,3.43,3.43,0,0,1,.66.67l-.22-.35a1.05,1.05,0,0,1,.44-.91,2.39,2.39,0,0,1,1.38-.31,2.34,2.34,0,0,1,1.29.27,1.16,1.16,0,0,1,.48.73,5.8,5.8,0,0,1,.08.95v8.62a4.73,4.73,0,0,1-.09.93,1.07,1.07,0,0,1-.48.71A2.36,2.36,0,0,1,122.07,34.83Zm-4.37-3.72a2.21,2.21,0,0,0,1.2-.34,2.66,2.66,0,0,0,.85-.91,2.67,2.67,0,0,0,0-2.57,2.45,2.45,0,0,0-3.36-.87,2.53,2.53,0,0,0-1.24,2.21,2.34,2.34,0,0,0,.34,1.24,2.56,2.56,0,0,0,.92.9A2.59,2.59,0,0,0,117.7,31.11Z"/><path class="cls-2" d="M127.82,34.86A1.84,1.84,0,0,1,126,33a2,2,0,0,1,.14-.73,1.81,1.81,0,0,1,.41-.62l5.68-5.5h-3.8a4.53,4.53,0,0,1-.91-.1,1.28,1.28,0,0,1-.73-.49,2.29,2.29,0,0,1-.28-1.31,2.22,2.22,0,0,1,.29-1.32,1.15,1.15,0,0,1,.72-.47,4.53,4.53,0,0,1,.91-.09h7.83a1.8,1.8,0,0,1,1.85,1.85,2.18,2.18,0,0,1-.14.76,1.45,1.45,0,0,1-.39.59L132,31.09h4.52a4.49,4.49,0,0,1,.93.1,1.18,1.18,0,0,1,.69.5A2.59,2.59,0,0,1,138.4,33a2.3,2.3,0,0,1-.28,1.3,1.07,1.07,0,0,1-.7.47,5.25,5.25,0,0,1-.92.08Z"/><path class="cls-2" d="M150.65,34.85a2.34,2.34,0,0,1-1.38-.33.88.88,0,0,1-.42-.8l.25-.42a2.59,2.59,0,0,1-.58.61,4.11,4.11,0,0,1-1.11.65,4.33,4.33,0,0,1-1.66.29,5,5,0,0,1-2.19-.5A6.17,6.17,0,0,1,141.72,33a7.27,7.27,0,0,1-1.27-2,6.13,6.13,0,0,1,0-4.71,6.72,6.72,0,0,1,1.29-2,6.07,6.07,0,0,1,1.84-1.36,4.8,4.8,0,0,1,2.17-.5,4.32,4.32,0,0,1,1.58.26,4.86,4.86,0,0,1,1.09.61,3.45,3.45,0,0,1,.66.68l-.23-.35a1.05,1.05,0,0,1,.44-.91,3.24,3.24,0,0,1,2.68,0,1.16,1.16,0,0,1,.47.73,4.79,4.79,0,0,1,.09.95V33a4.73,4.73,0,0,1-.09.93,1,1,0,0,1-.47.71A2.5,2.5,0,0,1,150.65,34.85Zm-4.38-3.73a2.21,2.21,0,0,0,1.2-.33,2.51,2.51,0,0,0,.85-.92,2.48,2.48,0,0,0,.33-1.27,2.62,2.62,0,0,0-.32-1.29,2.5,2.5,0,0,0-.88-.89,2.41,2.41,0,0,0-1.22-.32,2.48,2.48,0,0,0-1.27.33,2.57,2.57,0,0,0-1.24,2.22,2.37,2.37,0,0,0,.34,1.23,2.51,2.51,0,0,0,.93.9A2.48,2.48,0,0,0,146.27,31.12Z"/><path class="cls-2" d="M167.75,35.11a7.17,7.17,0,0,1-3-.58A5.72,5.72,0,0,1,162.67,33a6.61,6.61,0,0,1-1.2-2.09,6.86,6.86,0,0,1-.39-2.3,6.38,6.38,0,0,1,.85-3.32A6,6,0,0,1,164.29,23a6.9,6.9,0,0,1,3.46-.83,6.27,6.27,0,0,1,2.52.46,5.33,5.33,0,0,1,1.75,1.2,5.25,5.25,0,0,1,1,1.59,4.53,4.53,0,0,1,.34,1.62,2.82,2.82,0,0,1-.67,2.05,2.26,2.26,0,0,1-1.69.68h-6a1.78,1.78,0,0,0,.47,1.08,2.81,2.81,0,0,0,1,.7,3.5,3.5,0,0,0,1.33.25,8.22,8.22,0,0,0,1-.06,3.6,3.6,0,0,0,.78-.18c.22-.07.42-.15.59-.22s.34-.14.49-.19a2.53,2.53,0,0,1,.42-.1,1,1,0,0,1,.68.22,1.91,1.91,0,0,1,.57.71,1.71,1.71,0,0,1,.24.52,2.2,2.2,0,0,1,.06.5,1.34,1.34,0,0,1-.61,1.09,4.83,4.83,0,0,1-1.73.74A11.47,11.47,0,0,1,167.75,35.11Zm-2.67-7.4H169a.92.92,0,0,0,.57-.14.61.61,0,0,0,.2-.53,1.23,1.23,0,0,0-.27-.78,1.87,1.87,0,0,0-.74-.54,3.22,3.22,0,0,0-1.09-.19,3,3,0,0,0-1.35.3,2.47,2.47,0,0,0-.94.8A2,2,0,0,0,165.08,27.71Z"/><path class="cls-2" d="M180.27,34.89a14.14,14.14,0,0,1-1.82-.1,3.77,3.77,0,0,1-1.35-.4,2.42,2.42,0,0,1-.9-.84,3.84,3.84,0,0,1-.53-1.37,10.92,10.92,0,0,1-.17-2.07V18.57a3.84,3.84,0,0,1,.1-.93,1.17,1.17,0,0,1,.48-.7,2.41,2.41,0,0,1,1.32-.27,2.28,2.28,0,0,1,1.28.27,1.21,1.21,0,0,1,.49.7,3.9,3.9,0,0,1,.1.93V29.94a5.88,5.88,0,0,0,0,.67,1,1,0,0,0,.15.41.6.6,0,0,0,.31.2,2.5,2.5,0,0,0,.53.05,2.6,2.6,0,0,1,.61.07.89.89,0,0,1,.54.45,2.58,2.58,0,0,1,.22,1.25,2.78,2.78,0,0,1-.22,1.3.88.88,0,0,1-.54.48A2.73,2.73,0,0,1,180.27,34.89Z"/><path class="cls-2" d="M191.9,34.87a2.42,2.42,0,0,1-1.32-.26,1.1,1.1,0,0,1-.47-.7A4.46,4.46,0,0,1,190,33V24.2a4.19,4.19,0,0,1,.09-.89,1,1,0,0,1,.48-.66,2.6,2.6,0,0,1,1.33-.25,2.49,2.49,0,0,1,1.17.21,1,1,0,0,1,.49.52,1.47,1.47,0,0,1,.11.56,1,1,0,0,0,.05.36l-.15.48a1.61,1.61,0,0,1,.39-.77,4,4,0,0,1,.85-.7,4.7,4.7,0,0,1,1.1-.48,4,4,0,0,1,1.16-.18,5,5,0,0,1,2.14.44,4.35,4.35,0,0,1,1.59,1.27,5.76,5.76,0,0,1,1,1.93,8.27,8.27,0,0,1,.34,2.44V33a4.46,4.46,0,0,1-.09.91,1,1,0,0,1-.48.69,2.53,2.53,0,0,1-1.33.25,2.59,2.59,0,0,1-1.33-.26,1.08,1.08,0,0,1-.49-.7,5.52,5.52,0,0,1-.08-.92V28.48a2.92,2.92,0,0,0-.26-1.28,1.93,1.93,0,0,0-.75-.8,2.49,2.49,0,0,0-1.21-.27,2.57,2.57,0,0,0-1.25.28,2.09,2.09,0,0,0-.82.82,2.57,2.57,0,0,0-.29,1.25V33a4.53,4.53,0,0,1-.09.91,1,1,0,0,1-.47.69A2.53,2.53,0,0,1,191.9,34.87Z"/><path class="cls-2" d="M210,34.89a5.06,5.06,0,0,1-2.17-.46,5.33,5.33,0,0,1-1.75-1.26,5.59,5.59,0,0,1-1.16-1.93,6.81,6.81,0,0,1-.42-2.43V24.28a5.25,5.25,0,0,1,.08-.92,1.11,1.11,0,0,1,.49-.7,2.46,2.46,0,0,1,1.33-.28,2.38,2.38,0,0,1,1.31.28,1.07,1.07,0,0,1,.47.71,4.69,4.69,0,0,1,.09.94v4.5a2.92,2.92,0,0,0,.26,1.26,1.82,1.82,0,0,0,.78.82,2.54,2.54,0,0,0,1.21.27,2.45,2.45,0,0,0,1.24-.29,2.08,2.08,0,0,0,.8-.81,2.57,2.57,0,0,0,.28-1.25V24.26a5.25,5.25,0,0,1,.08-.92,1.07,1.07,0,0,1,.49-.69,2.59,2.59,0,0,1,1.33-.26,2.39,2.39,0,0,1,1.31.27,1.17,1.17,0,0,1,.48.72,5.31,5.31,0,0,1,.08.91v8.8a4.19,4.19,0,0,1-.09.89,1,1,0,0,1-.49.66,2.52,2.52,0,0,1-1.3.25,2.92,2.92,0,0,1-1.05-.15,1.31,1.31,0,0,1-.55-.38.94.94,0,0,1-.21-.47,2.57,2.57,0,0,1,0-.45l.33-.28a2.49,2.49,0,0,1-.33.39,5,5,0,0,1-.66.57,4.43,4.43,0,0,1-1,.54A3.4,3.4,0,0,1,210,34.89Zm-.39-13.38a.85.85,0,0,1-.74-.25,2.63,2.63,0,0,1-.51-1,2,2,0,0,1-.1-1.3,1.44,1.44,0,0,1,.93-.68l4.4-1.34a.87.87,0,0,1,.72.29,2.29,2.29,0,0,1,.5,1,2,2,0,0,1,.09,1.28,1.34,1.34,0,0,1-.92.67Z"/><path class="cls-2" d="M220.92,34.92a2.39,2.39,0,0,1-1.3-.28,1,1,0,0,1-.47-.7,5.25,5.25,0,0,1-.08-.92V24.27a5.11,5.11,0,0,1,.08-.9,1.07,1.07,0,0,1,.49-.69,2.49,2.49,0,0,1,1.33-.26,2.09,2.09,0,0,1,1.35.36,1.5,1.5,0,0,1,.42,1.19l-.32.27a1.88,1.88,0,0,1,.3-.42,4.38,4.38,0,0,1,.65-.63,4.25,4.25,0,0,1,.94-.56,2.76,2.76,0,0,1,1.16-.23,4.66,4.66,0,0,1,1.49.23,3.85,3.85,0,0,1,1.19.7,4.24,4.24,0,0,1,.94,1.17,6.93,6.93,0,0,1,.85-1,5,5,0,0,1,1.18-.8,3.56,3.56,0,0,1,1.52-.32,4.11,4.11,0,0,1,2.49.74,4.58,4.58,0,0,1,1.54,2.11,9.39,9.39,0,0,1,.52,3.33v4.47a4.45,4.45,0,0,1-.1.91,1.1,1.1,0,0,1-.49.7,2.39,2.39,0,0,1-1.31.27,2.46,2.46,0,0,1-1.33-.28,1,1,0,0,1-.47-.71,5.4,5.4,0,0,1-.08-.91V28.55a4.1,4.1,0,0,0-.18-1.29,1.84,1.84,0,0,0-.54-.82,1.32,1.32,0,0,0-.9-.29,1.68,1.68,0,0,0-1,.27,1.72,1.72,0,0,0-.61.8,3.92,3.92,0,0,0-.2,1.35v4.48a3.61,3.61,0,0,1-.12.94,1.23,1.23,0,0,1-.54.69,2.39,2.39,0,0,1-1.34.24,2.11,2.11,0,0,1-1.25-.29,1.12,1.12,0,0,1-.45-.72,5.26,5.26,0,0,1-.07-.89V28.55a4.63,4.63,0,0,0-.17-1.31,1.7,1.7,0,0,0-.53-.82,1.53,1.53,0,0,0-.92-.28,1.57,1.57,0,0,0-1,.33,1.9,1.9,0,0,0-.59.86,3.79,3.79,0,0,0-.19,1.21V33a4.45,4.45,0,0,1-.09.93,1.07,1.07,0,0,1-.48.69A2.59,2.59,0,0,1,220.92,34.92Z"/><path class="cls-2" d="M245.85,35.16a7.29,7.29,0,0,1-3-.58,5.84,5.84,0,0,1-2.06-1.51,6.61,6.61,0,0,1-1.2-2.09,7.14,7.14,0,0,1-.4-2.3,6.45,6.45,0,0,1,.86-3.33,6.09,6.09,0,0,1,2.36-2.28,7,7,0,0,1,3.46-.84,6.18,6.18,0,0,1,2.51.47,5,5,0,0,1,1.75,1.2,5.1,5.1,0,0,1,1,1.59,4.42,4.42,0,0,1,.33,1.62,2.82,2.82,0,0,1-.66,2.05,2.25,2.25,0,0,1-1.69.67h-6a1.78,1.78,0,0,0,.47,1.08,2.81,2.81,0,0,0,1,.7,3.7,3.7,0,0,0,1.33.25,7.94,7.94,0,0,0,1-.06,4.23,4.23,0,0,0,.79-.18c.22-.07.41-.15.59-.22a4.44,4.44,0,0,1,.49-.19,2.53,2.53,0,0,1,.42-.1,1,1,0,0,1,.68.21,2.09,2.09,0,0,1,.57.71,1.75,1.75,0,0,1,.24.53,2.14,2.14,0,0,1,.06.5,1.34,1.34,0,0,1-.61,1.09,4.74,4.74,0,0,1-1.73.73A11,11,0,0,1,245.85,35.16Zm-2.68-7.4h4a1,1,0,0,0,.58-.14.62.62,0,0,0,.2-.54,1.18,1.18,0,0,0-.28-.77,1.69,1.69,0,0,0-.73-.54,3.2,3.2,0,0,0-2.44.11,2.47,2.47,0,0,0-.94.8A1.92,1.92,0,0,0,243.17,27.76Z"/><path class="cls-2" d="M255.44,34.94a2.39,2.39,0,0,1-1.31-.27,1.06,1.06,0,0,1-.47-.71,4.7,4.7,0,0,1-.09-.92V24.31a5.25,5.25,0,0,1,.08-.92,1.07,1.07,0,0,1,.49-.69,2.59,2.59,0,0,1,1.33-.26,2.5,2.5,0,0,1,1.26.24,1,1,0,0,1,.49.55,2,2,0,0,1,.1.53l-.3.15a3.22,3.22,0,0,1,.26-.36,3.58,3.58,0,0,1,.59-.55,3.71,3.71,0,0,1,.91-.49,3.63,3.63,0,0,1,1.24-.19l.61,0a4.89,4.89,0,0,1,.7.15,3.32,3.32,0,0,1,.66.3,1.69,1.69,0,0,1,.49.47,1.2,1.2,0,0,1,.19.67,3,3,0,0,1-.48,1.74,1.42,1.42,0,0,1-1.2.71,2.11,2.11,0,0,1-.6-.06,1,1,0,0,1-.29-.15.93.93,0,0,0-.26-.15,1.68,1.68,0,0,0-.55-.06,2.34,2.34,0,0,0-.71.1,1.85,1.85,0,0,0-.63.31,1.45,1.45,0,0,0-.61,1.23v5.48a4.46,4.46,0,0,1-.09.91,1,1,0,0,1-.49.69A2.6,2.6,0,0,1,255.44,34.94Z"/><path class="cls-2" d="M270.64,35.15a6.21,6.21,0,0,1-2.33-.47,6.91,6.91,0,0,1-2.11-1.31,6.41,6.41,0,0,1-1.52-2,6.41,6.41,0,0,1,0-5.15,6.78,6.78,0,0,1,3.47-3.47,6.16,6.16,0,0,1,2.49-.51,6.33,6.33,0,0,1,3.26.86,6.56,6.56,0,0,1,2.34,2.34,6.71,6.71,0,0,1,.31,6,6.5,6.5,0,0,1-1.5,2,6.57,6.57,0,0,1-2.08,1.29A6.38,6.38,0,0,1,270.64,35.15Zm0-3.78a2.81,2.81,0,0,0,1.22-.3,2.67,2.67,0,0,0,1.05-.9,2.51,2.51,0,0,0,.43-1.52,2.74,2.74,0,0,0-.35-1.4,2.55,2.55,0,0,0-1-.94,2.83,2.83,0,0,0-1.41-.34,2.6,2.6,0,0,0-1.34.35,2.65,2.65,0,0,0-.95,1,2.6,2.6,0,0,0-.37,1.39,2.66,2.66,0,0,0,.41,1.51,2.49,2.49,0,0,0,1,.9A2.83,2.83,0,0,0,270.6,31.37Z"/><path class="cls-2" d="M291.72,35.21a7.08,7.08,0,0,1-2.51-.44,6.86,6.86,0,0,1-2.06-1.19,5.9,5.9,0,0,1-1.42-1.71,4.37,4.37,0,0,1-.53-2q0-1.35,2.07-1.35a2.77,2.77,0,0,1,.92.11.94.94,0,0,1,.48.4,5.27,5.27,0,0,1,.38.81,2.14,2.14,0,0,0,.37.65,2.79,2.79,0,0,0,.85.72,3,3,0,0,0,1.48.31,3.81,3.81,0,0,0,1.46-.26,2.29,2.29,0,0,0,1-.73,1.66,1.66,0,0,0,.34-1,1.69,1.69,0,0,0-.34-1.09,2.15,2.15,0,0,0-.9-.68,3.23,3.23,0,0,0-1.29-.23,5.64,5.64,0,0,1-1-.08,1.08,1.08,0,0,1-.71-.45,2.26,2.26,0,0,1-.28-1.28,2.37,2.37,0,0,1,.28-1.31A1.06,1.06,0,0,1,291,24a7.25,7.25,0,0,1,1-.07,3.38,3.38,0,0,0,1.13-.14,1.42,1.42,0,0,0,.68-.44,1,1,0,0,0,.24-.69,1.62,1.62,0,0,0-.26-.91,1.7,1.7,0,0,0-.72-.6,2.86,2.86,0,0,0-1.12-.22,3.06,3.06,0,0,0-1.08.17,1.86,1.86,0,0,0-.73.46,4.56,4.56,0,0,0-.51.65,1.75,1.75,0,0,1-1.07,1.06,2.21,2.21,0,0,1-1.58-.36,1.89,1.89,0,0,1-1-1.09,2.13,2.13,0,0,1,.26-1.39,1.84,1.84,0,0,0,.23-.39,4.41,4.41,0,0,1,.56-.8,6,6,0,0,1,1-.91,5.39,5.39,0,0,1,1.54-.75,6.81,6.81,0,0,1,2.18-.29,6.71,6.71,0,0,1,2.63.47,6,6,0,0,1,1.91,1.23,5.26,5.26,0,0,1,1.18,1.67,4.85,4.85,0,0,1,.4,1.88,3.51,3.51,0,0,1-.32,1.55,3.56,3.56,0,0,1-.76,1.06,3.39,3.39,0,0,1-.83.59,4.28,4.28,0,0,1,.79.54,3.7,3.7,0,0,1,.75.82,4.87,4.87,0,0,1,.56,1.09,3.66,3.66,0,0,1,.23,1.3,5.37,5.37,0,0,1-.85,3,5.86,5.86,0,0,1-2.34,2.06A7.42,7.42,0,0,1,291.72,35.21Z"/><path class="cls-3" d="M97.11,17.34a4,4,0,0,1,.79.08.9.9,0,0,1,.58.42A2.23,2.23,0,0,1,98.71,19a2.15,2.15,0,0,1-.23,1.13.91.91,0,0,1-.6.42,4.09,4.09,0,0,1-.8.08h-4V33a4.29,4.29,0,0,1-.09.9,1.13,1.13,0,0,1-.47.69,2.58,2.58,0,0,1-1.34.26,2.45,2.45,0,0,1-1.28-.26,1.06,1.06,0,0,1-.48-.7A4.63,4.63,0,0,1,89.3,33V20.61h-4a3.33,3.33,0,0,1-.78-.09,1,1,0,0,1-.61-.42A2.06,2.06,0,0,1,83.63,19a2.06,2.06,0,0,1,.24-1.13,1,1,0,0,1,.61-.42,4,4,0,0,1,.78-.07Z"/><path class="cls-3" d="M102.67,34.85a2.39,2.39,0,0,1-1.31-.27,1,1,0,0,1-.47-.71,4.7,4.7,0,0,1-.09-.92V24.22a4.59,4.59,0,0,1,.09-.93,1,1,0,0,1,.49-.68,2.47,2.47,0,0,1,1.32-.26,2.65,2.65,0,0,1,1.27.23,1,1,0,0,1,.48.56,1.63,1.63,0,0,1,.1.53l-.3.15a3.91,3.91,0,0,1,.27-.36,3.1,3.1,0,0,1,.58-.55,3.79,3.79,0,0,1,.92-.49,3.6,3.6,0,0,1,1.23-.2c.19,0,.39,0,.62,0a4.89,4.89,0,0,1,.7.15,3.32,3.32,0,0,1,.66.3,1.69,1.69,0,0,1,.49.47,1.17,1.17,0,0,1,.18.67,3.14,3.14,0,0,1-.47,1.74,1.42,1.42,0,0,1-1.2.71,2,2,0,0,1-.6-.06,1,1,0,0,1-.29-.15.93.93,0,0,0-.26-.15,1.65,1.65,0,0,0-.55-.07,2.71,2.71,0,0,0-.71.1,1.88,1.88,0,0,0-.63.32,1.45,1.45,0,0,0-.61,1.23V33a5.4,5.4,0,0,1-.08.91,1.07,1.07,0,0,1-.49.69A2.71,2.71,0,0,1,102.67,34.85Z"/><path class="cls-3" d="M122.07,34.83a2.41,2.41,0,0,1-1.37-.32.93.93,0,0,1-.43-.8l.25-.43a2.72,2.72,0,0,1-.57.61,4.25,4.25,0,0,1-2.78.94,5.08,5.08,0,0,1-2.19-.5,6,6,0,0,1-1.83-1.39,7.24,7.24,0,0,1-1.28-2,6.16,6.16,0,0,1-.47-2.38,5.9,5.9,0,0,1,.48-2.34,6.46,6.46,0,0,1,1.29-2A6.33,6.33,0,0,1,115,22.88a5,5,0,0,1,2.18-.5,4.26,4.26,0,0,1,1.57.26,4.16,4.16,0,0,1,1.09.62,3.43,3.43,0,0,1,.66.67l-.22-.35a1.05,1.05,0,0,1,.44-.91,2.39,2.39,0,0,1,1.38-.31,2.34,2.34,0,0,1,1.29.27,1.16,1.16,0,0,1,.48.73,5.8,5.8,0,0,1,.08.95v8.62a4.73,4.73,0,0,1-.09.93,1.07,1.07,0,0,1-.48.71A2.36,2.36,0,0,1,122.07,34.83Zm-4.37-3.72a2.21,2.21,0,0,0,1.2-.34,2.66,2.66,0,0,0,.85-.91,2.67,2.67,0,0,0,0-2.57,2.45,2.45,0,0,0-3.36-.87,2.53,2.53,0,0,0-1.24,2.21,2.34,2.34,0,0,0,.34,1.24,2.56,2.56,0,0,0,.92.9A2.59,2.59,0,0,0,117.7,31.11Z"/><path class="cls-3" d="M127.82,34.86A1.84,1.84,0,0,1,126,33a2,2,0,0,1,.14-.73,1.81,1.81,0,0,1,.41-.62l5.68-5.5h-3.8a4.53,4.53,0,0,1-.91-.1,1.28,1.28,0,0,1-.73-.49,2.29,2.29,0,0,1-.28-1.31,2.22,2.22,0,0,1,.29-1.32,1.15,1.15,0,0,1,.72-.47,4.53,4.53,0,0,1,.91-.09h7.83a1.8,1.8,0,0,1,1.85,1.85,2.18,2.18,0,0,1-.14.76,1.45,1.45,0,0,1-.39.59L132,31.09h4.52a4.49,4.49,0,0,1,.93.1,1.18,1.18,0,0,1,.69.5A2.59,2.59,0,0,1,138.4,33a2.3,2.3,0,0,1-.28,1.3,1.07,1.07,0,0,1-.7.47,5.25,5.25,0,0,1-.92.08Z"/><path class="cls-3" d="M150.65,34.85a2.34,2.34,0,0,1-1.38-.33.88.88,0,0,1-.42-.8l.25-.42a2.59,2.59,0,0,1-.58.61,4.11,4.11,0,0,1-1.11.65,4.33,4.33,0,0,1-1.66.29,5,5,0,0,1-2.19-.5A6.17,6.17,0,0,1,141.72,33a7.27,7.27,0,0,1-1.27-2,6.13,6.13,0,0,1,0-4.71,6.72,6.72,0,0,1,1.29-2,6.07,6.07,0,0,1,1.84-1.36,4.8,4.8,0,0,1,2.17-.5,4.32,4.32,0,0,1,1.58.26,4.86,4.86,0,0,1,1.09.61,3.45,3.45,0,0,1,.66.68l-.23-.35a1.05,1.05,0,0,1,.44-.91,3.24,3.24,0,0,1,2.68,0,1.16,1.16,0,0,1,.47.73,4.79,4.79,0,0,1,.09.95V33a4.73,4.73,0,0,1-.09.93,1,1,0,0,1-.47.71A2.5,2.5,0,0,1,150.65,34.85Zm-4.38-3.73a2.21,2.21,0,0,0,1.2-.33,2.51,2.51,0,0,0,.85-.92,2.48,2.48,0,0,0,.33-1.27,2.62,2.62,0,0,0-.32-1.29,2.5,2.5,0,0,0-.88-.89,2.41,2.41,0,0,0-1.22-.32,2.48,2.48,0,0,0-1.27.33,2.57,2.57,0,0,0-1.24,2.22,2.37,2.37,0,0,0,.34,1.23,2.51,2.51,0,0,0,.93.9A2.48,2.48,0,0,0,146.27,31.12Z"/><path class="cls-3" d="M167.75,35.11a7.17,7.17,0,0,1-3-.58A5.72,5.72,0,0,1,162.67,33a6.61,6.61,0,0,1-1.2-2.09,6.86,6.86,0,0,1-.39-2.3,6.38,6.38,0,0,1,.85-3.32A6,6,0,0,1,164.29,23a6.9,6.9,0,0,1,3.46-.83,6.27,6.27,0,0,1,2.52.46,5.33,5.33,0,0,1,1.75,1.2,5.25,5.25,0,0,1,1,1.59,4.53,4.53,0,0,1,.34,1.62,2.82,2.82,0,0,1-.67,2.05,2.26,2.26,0,0,1-1.69.68h-6a1.78,1.78,0,0,0,.47,1.08,2.81,2.81,0,0,0,1,.7,3.5,3.5,0,0,0,1.33.25,8.22,8.22,0,0,0,1-.06,3.6,3.6,0,0,0,.78-.18c.22-.07.42-.15.59-.22s.34-.14.49-.19a2.53,2.53,0,0,1,.42-.1,1,1,0,0,1,.68.22,1.91,1.91,0,0,1,.57.71,1.71,1.71,0,0,1,.24.52,2.2,2.2,0,0,1,.06.5,1.34,1.34,0,0,1-.61,1.09,4.83,4.83,0,0,1-1.73.74A11.47,11.47,0,0,1,167.75,35.11Zm-2.67-7.4H169a.92.92,0,0,0,.57-.14.61.61,0,0,0,.2-.53,1.23,1.23,0,0,0-.27-.78,1.87,1.87,0,0,0-.74-.54,3.22,3.22,0,0,0-1.09-.19,3,3,0,0,0-1.35.3,2.47,2.47,0,0,0-.94.8A2,2,0,0,0,165.08,27.71Z"/><path class="cls-3" d="M180.27,34.89a14.14,14.14,0,0,1-1.82-.1,3.77,3.77,0,0,1-1.35-.4,2.42,2.42,0,0,1-.9-.84,3.84,3.84,0,0,1-.53-1.37,10.92,10.92,0,0,1-.17-2.07V18.57a3.84,3.84,0,0,1,.1-.93,1.17,1.17,0,0,1,.48-.7,2.41,2.41,0,0,1,1.32-.27,2.28,2.28,0,0,1,1.28.27,1.21,1.21,0,0,1,.49.7,3.9,3.9,0,0,1,.1.93V29.94a5.88,5.88,0,0,0,0,.67,1,1,0,0,0,.15.41.6.6,0,0,0,.31.2,2.5,2.5,0,0,0,.53.05,2.6,2.6,0,0,1,.61.07.89.89,0,0,1,.54.45,2.58,2.58,0,0,1,.22,1.25,2.78,2.78,0,0,1-.22,1.3.88.88,0,0,1-.54.48A2.73,2.73,0,0,1,180.27,34.89Z"/><path class="cls-3" d="M191.9,34.87a2.42,2.42,0,0,1-1.32-.26,1.1,1.1,0,0,1-.47-.7A4.46,4.46,0,0,1,190,33V24.2a4.19,4.19,0,0,1,.09-.89,1,1,0,0,1,.48-.66,2.6,2.6,0,0,1,1.33-.25,2.49,2.49,0,0,1,1.17.21,1,1,0,0,1,.49.52,1.47,1.47,0,0,1,.11.56,1,1,0,0,0,.05.36l-.15.48a1.61,1.61,0,0,1,.39-.77,4,4,0,0,1,.85-.7,4.7,4.7,0,0,1,1.1-.48,4,4,0,0,1,1.16-.18,5,5,0,0,1,2.14.44,4.35,4.35,0,0,1,1.59,1.27,5.76,5.76,0,0,1,1,1.93,8.27,8.27,0,0,1,.34,2.44V33a4.46,4.46,0,0,1-.09.91,1,1,0,0,1-.48.69,2.53,2.53,0,0,1-1.33.25,2.59,2.59,0,0,1-1.33-.26,1.08,1.08,0,0,1-.49-.7,5.52,5.52,0,0,1-.08-.92V28.48a2.92,2.92,0,0,0-.26-1.28,1.93,1.93,0,0,0-.75-.8,2.49,2.49,0,0,0-1.21-.27,2.57,2.57,0,0,0-1.25.28,2.09,2.09,0,0,0-.82.82,2.57,2.57,0,0,0-.29,1.25V33a4.53,4.53,0,0,1-.09.91,1,1,0,0,1-.47.69A2.53,2.53,0,0,1,191.9,34.87Z"/><path class="cls-3" d="M210,34.89a5.06,5.06,0,0,1-2.17-.46,5.33,5.33,0,0,1-1.75-1.26,5.59,5.59,0,0,1-1.16-1.93,6.81,6.81,0,0,1-.42-2.43V24.28a5.25,5.25,0,0,1,.08-.92,1.11,1.11,0,0,1,.49-.7,2.46,2.46,0,0,1,1.33-.28,2.38,2.38,0,0,1,1.31.28,1.07,1.07,0,0,1,.47.71,4.69,4.69,0,0,1,.09.94v4.5a2.92,2.92,0,0,0,.26,1.26,1.82,1.82,0,0,0,.78.82,2.54,2.54,0,0,0,1.21.27,2.45,2.45,0,0,0,1.24-.29,2.08,2.08,0,0,0,.8-.81,2.57,2.57,0,0,0,.28-1.25V24.26a5.25,5.25,0,0,1,.08-.92,1.07,1.07,0,0,1,.49-.69,2.59,2.59,0,0,1,1.33-.26,2.39,2.39,0,0,1,1.31.27,1.17,1.17,0,0,1,.48.72,5.31,5.31,0,0,1,.08.91v8.8a4.19,4.19,0,0,1-.09.89,1,1,0,0,1-.49.66,2.52,2.52,0,0,1-1.3.25,2.92,2.92,0,0,1-1.05-.15,1.31,1.31,0,0,1-.55-.38.94.94,0,0,1-.21-.47,2.57,2.57,0,0,1,0-.45l.33-.28a2.49,2.49,0,0,1-.33.39,5,5,0,0,1-.66.57,4.43,4.43,0,0,1-1,.54A3.4,3.4,0,0,1,210,34.89Zm-.39-13.38a.85.85,0,0,1-.74-.25,2.63,2.63,0,0,1-.51-1,2,2,0,0,1-.1-1.3,1.44,1.44,0,0,1,.93-.68l4.4-1.34a.87.87,0,0,1,.72.29,2.29,2.29,0,0,1,.5,1,2,2,0,0,1,.09,1.28,1.34,1.34,0,0,1-.92.67Z"/><path class="cls-3" d="M220.92,34.92a2.39,2.39,0,0,1-1.3-.28,1,1,0,0,1-.47-.7,5.25,5.25,0,0,1-.08-.92V24.27a5.11,5.11,0,0,1,.08-.9,1.07,1.07,0,0,1,.49-.69,2.49,2.49,0,0,1,1.33-.26,2.09,2.09,0,0,1,1.35.36,1.5,1.5,0,0,1,.42,1.19l-.32.27a1.88,1.88,0,0,1,.3-.42,4.38,4.38,0,0,1,.65-.63,4.25,4.25,0,0,1,.94-.56,2.76,2.76,0,0,1,1.16-.23,4.66,4.66,0,0,1,1.49.23,3.85,3.85,0,0,1,1.19.7,4.24,4.24,0,0,1,.94,1.17,6.93,6.93,0,0,1,.85-1,5,5,0,0,1,1.18-.8,3.56,3.56,0,0,1,1.52-.32,4.11,4.11,0,0,1,2.49.74,4.58,4.58,0,0,1,1.54,2.11,9.39,9.39,0,0,1,.52,3.33v4.47a4.45,4.45,0,0,1-.1.91,1.1,1.1,0,0,1-.49.7,2.39,2.39,0,0,1-1.31.27,2.46,2.46,0,0,1-1.33-.28,1,1,0,0,1-.47-.71,5.4,5.4,0,0,1-.08-.91V28.55a4.1,4.1,0,0,0-.18-1.29,1.84,1.84,0,0,0-.54-.82,1.32,1.32,0,0,0-.9-.29,1.68,1.68,0,0,0-1,.27,1.72,1.72,0,0,0-.61.8,3.92,3.92,0,0,0-.2,1.35v4.48a3.61,3.61,0,0,1-.12.94,1.23,1.23,0,0,1-.54.69,2.39,2.39,0,0,1-1.34.24,2.11,2.11,0,0,1-1.25-.29,1.12,1.12,0,0,1-.45-.72,5.26,5.26,0,0,1-.07-.89V28.55a4.63,4.63,0,0,0-.17-1.31,1.7,1.7,0,0,0-.53-.82,1.53,1.53,0,0,0-.92-.28,1.57,1.57,0,0,0-1,.33,1.9,1.9,0,0,0-.59.86,3.79,3.79,0,0,0-.19,1.21V33a4.45,4.45,0,0,1-.09.93,1.07,1.07,0,0,1-.48.69A2.59,2.59,0,0,1,220.92,34.92Z"/><path class="cls-3" d="M245.85,35.16a7.29,7.29,0,0,1-3-.58,5.84,5.84,0,0,1-2.06-1.51,6.61,6.61,0,0,1-1.2-2.09,7.14,7.14,0,0,1-.4-2.3,6.45,6.45,0,0,1,.86-3.33,6.09,6.09,0,0,1,2.36-2.28,7,7,0,0,1,3.46-.84,6.18,6.18,0,0,1,2.51.47,5,5,0,0,1,1.75,1.2,5.1,5.1,0,0,1,1,1.59,4.42,4.42,0,0,1,.33,1.62,2.82,2.82,0,0,1-.66,2.05,2.25,2.25,0,0,1-1.69.67h-6a1.78,1.78,0,0,0,.47,1.08,2.81,2.81,0,0,0,1,.7,3.7,3.7,0,0,0,1.33.25,7.94,7.94,0,0,0,1-.06,4.23,4.23,0,0,0,.79-.18c.22-.07.41-.15.59-.22a4.44,4.44,0,0,1,.49-.19,2.53,2.53,0,0,1,.42-.1,1,1,0,0,1,.68.21,2.09,2.09,0,0,1,.57.71,1.75,1.75,0,0,1,.24.53,2.14,2.14,0,0,1,.06.5,1.34,1.34,0,0,1-.61,1.09,4.74,4.74,0,0,1-1.73.73A11,11,0,0,1,245.85,35.16Zm-2.68-7.4h4a1,1,0,0,0,.58-.14.62.62,0,0,0,.2-.54,1.18,1.18,0,0,0-.28-.77,1.69,1.69,0,0,0-.73-.54,3.2,3.2,0,0,0-2.44.11,2.47,2.47,0,0,0-.94.8A1.92,1.92,0,0,0,243.17,27.76Z"/><path class="cls-3" d="M255.44,34.94a2.39,2.39,0,0,1-1.31-.27,1.06,1.06,0,0,1-.47-.71,4.7,4.7,0,0,1-.09-.92V24.31a5.25,5.25,0,0,1,.08-.92,1.07,1.07,0,0,1,.49-.69,2.59,2.59,0,0,1,1.33-.26,2.5,2.5,0,0,1,1.26.24,1,1,0,0,1,.49.55,2,2,0,0,1,.1.53l-.3.15a3.22,3.22,0,0,1,.26-.36,3.58,3.58,0,0,1,.59-.55,3.71,3.71,0,0,1,.91-.49,3.63,3.63,0,0,1,1.24-.19l.61,0a4.89,4.89,0,0,1,.7.15,3.32,3.32,0,0,1,.66.3,1.69,1.69,0,0,1,.49.47,1.2,1.2,0,0,1,.19.67,3,3,0,0,1-.48,1.74,1.42,1.42,0,0,1-1.2.71,2.11,2.11,0,0,1-.6-.06,1,1,0,0,1-.29-.15.93.93,0,0,0-.26-.15,1.68,1.68,0,0,0-.55-.06,2.34,2.34,0,0,0-.71.1,1.85,1.85,0,0,0-.63.31,1.45,1.45,0,0,0-.61,1.23v5.48a4.46,4.46,0,0,1-.09.91,1,1,0,0,1-.49.69A2.6,2.6,0,0,1,255.44,34.94Z"/><path class="cls-3" d="M270.64,35.15a6.21,6.21,0,0,1-2.33-.47,6.91,6.91,0,0,1-2.11-1.31,6.41,6.41,0,0,1-1.52-2,6.41,6.41,0,0,1,0-5.15,6.78,6.78,0,0,1,3.47-3.47,6.16,6.16,0,0,1,2.49-.51,6.33,6.33,0,0,1,3.26.86,6.56,6.56,0,0,1,2.34,2.34,6.71,6.71,0,0,1,.31,6,6.5,6.5,0,0,1-1.5,2,6.57,6.57,0,0,1-2.08,1.29A6.38,6.38,0,0,1,270.64,35.15Zm0-3.78a2.81,2.81,0,0,0,1.22-.3,2.67,2.67,0,0,0,1.05-.9,2.51,2.51,0,0,0,.43-1.52,2.74,2.74,0,0,0-.35-1.4,2.55,2.55,0,0,0-1-.94,2.83,2.83,0,0,0-1.41-.34,2.6,2.6,0,0,0-1.34.35,2.65,2.65,0,0,0-.95,1,2.6,2.6,0,0,0-.37,1.39,2.66,2.66,0,0,0,.41,1.51,2.49,2.49,0,0,0,1,.9A2.83,2.83,0,0,0,270.6,31.37Z"/><path class="cls-3" d="M291.72,35.21a7.08,7.08,0,0,1-2.51-.44,6.86,6.86,0,0,1-2.06-1.19,5.9,5.9,0,0,1-1.42-1.71,4.37,4.37,0,0,1-.53-2q0-1.35,2.07-1.35a2.77,2.77,0,0,1,.92.11.94.94,0,0,1,.48.4,5.27,5.27,0,0,1,.38.81,2.14,2.14,0,0,0,.37.65,2.79,2.79,0,0,0,.85.72,3,3,0,0,0,1.48.31,3.81,3.81,0,0,0,1.46-.26,2.29,2.29,0,0,0,1-.73,1.66,1.66,0,0,0,.34-1,1.69,1.69,0,0,0-.34-1.09,2.15,2.15,0,0,0-.9-.68,3.23,3.23,0,0,0-1.29-.23,5.64,5.64,0,0,1-1-.08,1.08,1.08,0,0,1-.71-.45,2.26,2.26,0,0,1-.28-1.28,2.37,2.37,0,0,1,.28-1.31A1.06,1.06,0,0,1,291,24a7.25,7.25,0,0,1,1-.07,3.38,3.38,0,0,0,1.13-.14,1.42,1.42,0,0,0,.68-.44,1,1,0,0,0,.24-.69,1.62,1.62,0,0,0-.26-.91,1.7,1.7,0,0,0-.72-.6,2.86,2.86,0,0,0-1.12-.22,3.06,3.06,0,0,0-1.08.17,1.86,1.86,0,0,0-.73.46,4.56,4.56,0,0,0-.51.65,1.75,1.75,0,0,1-1.07,1.06,2.21,2.21,0,0,1-1.58-.36,1.89,1.89,0,0,1-1-1.09,2.13,2.13,0,0,1,.26-1.39,1.84,1.84,0,0,0,.23-.39,4.41,4.41,0,0,1,.56-.8,6,6,0,0,1,1-.91,5.39,5.39,0,0,1,1.54-.75,6.81,6.81,0,0,1,2.18-.29,6.71,6.71,0,0,1,2.63.47,6,6,0,0,1,1.91,1.23,5.26,5.26,0,0,1,1.18,1.67,4.85,4.85,0,0,1,.4,1.88,3.51,3.51,0,0,1-.32,1.55,3.56,3.56,0,0,1-.76,1.06,3.39,3.39,0,0,1-.83.59,4.28,4.28,0,0,1,.79.54,3.7,3.7,0,0,1,.75.82,4.87,4.87,0,0,1,.56,1.09,3.66,3.66,0,0,1,.23,1.3,5.37,5.37,0,0,1-.85,3,5.86,5.86,0,0,1-2.34,2.06A7.42,7.42,0,0,1,291.72,35.21Z"/><path class="cls-2" d="M97.11,17.34a4,4,0,0,1,.79.08.9.9,0,0,1,.58.42A2.23,2.23,0,0,1,98.71,19a2.15,2.15,0,0,1-.23,1.13.91.91,0,0,1-.6.42,4.09,4.09,0,0,1-.8.08h-4V33a4.29,4.29,0,0,1-.09.9,1.13,1.13,0,0,1-.47.69,2.58,2.58,0,0,1-1.34.26,2.45,2.45,0,0,1-1.28-.26,1.06,1.06,0,0,1-.48-.7A4.63,4.63,0,0,1,89.3,33V20.61h-4a3.33,3.33,0,0,1-.78-.09,1,1,0,0,1-.61-.42A2.06,2.06,0,0,1,83.63,19a2.06,2.06,0,0,1,.24-1.13,1,1,0,0,1,.61-.42,4,4,0,0,1,.78-.07Z"/><path class="cls-2" d="M102.67,34.85a2.39,2.39,0,0,1-1.31-.27,1,1,0,0,1-.47-.71,4.7,4.7,0,0,1-.09-.92V24.22a4.59,4.59,0,0,1,.09-.93,1,1,0,0,1,.49-.68,2.47,2.47,0,0,1,1.32-.26,2.65,2.65,0,0,1,1.27.23,1,1,0,0,1,.48.56,1.63,1.63,0,0,1,.1.53l-.3.15a3.91,3.91,0,0,1,.27-.36,3.1,3.1,0,0,1,.58-.55,3.79,3.79,0,0,1,.92-.49,3.6,3.6,0,0,1,1.23-.2c.19,0,.39,0,.62,0a4.89,4.89,0,0,1,.7.15,3.32,3.32,0,0,1,.66.3,1.69,1.69,0,0,1,.49.47,1.17,1.17,0,0,1,.18.67,3.14,3.14,0,0,1-.47,1.74,1.42,1.42,0,0,1-1.2.71,2,2,0,0,1-.6-.06,1,1,0,0,1-.29-.15.93.93,0,0,0-.26-.15,1.65,1.65,0,0,0-.55-.07,2.71,2.71,0,0,0-.71.1,1.88,1.88,0,0,0-.63.32,1.45,1.45,0,0,0-.61,1.23V33a5.4,5.4,0,0,1-.08.91,1.07,1.07,0,0,1-.49.69A2.71,2.71,0,0,1,102.67,34.85Z"/><path class="cls-2" d="M122.07,34.83a2.41,2.41,0,0,1-1.37-.32.93.93,0,0,1-.43-.8l.25-.43a2.72,2.72,0,0,1-.57.61,4.25,4.25,0,0,1-2.78.94,5.08,5.08,0,0,1-2.19-.5,6,6,0,0,1-1.83-1.39,7.24,7.24,0,0,1-1.28-2,6.16,6.16,0,0,1-.47-2.38,5.9,5.9,0,0,1,.48-2.34,6.46,6.46,0,0,1,1.29-2A6.33,6.33,0,0,1,115,22.88a5,5,0,0,1,2.18-.5,4.26,4.26,0,0,1,1.57.26,4.16,4.16,0,0,1,1.09.62,3.43,3.43,0,0,1,.66.67l-.22-.35a1.05,1.05,0,0,1,.44-.91,2.39,2.39,0,0,1,1.38-.31,2.34,2.34,0,0,1,1.29.27,1.16,1.16,0,0,1,.48.73,5.8,5.8,0,0,1,.08.95v8.62a4.73,4.73,0,0,1-.09.93,1.07,1.07,0,0,1-.48.71A2.36,2.36,0,0,1,122.07,34.83Zm-4.37-3.72a2.21,2.21,0,0,0,1.2-.34,2.66,2.66,0,0,0,.85-.91,2.67,2.67,0,0,0,0-2.57,2.45,2.45,0,0,0-3.36-.87,2.53,2.53,0,0,0-1.24,2.21,2.34,2.34,0,0,0,.34,1.24,2.56,2.56,0,0,0,.92.9A2.59,2.59,0,0,0,117.7,31.11Z"/><path class="cls-2" d="M127.82,34.86A1.84,1.84,0,0,1,126,33a2,2,0,0,1,.14-.73,1.81,1.81,0,0,1,.41-.62l5.68-5.5h-3.8a4.53,4.53,0,0,1-.91-.1,1.28,1.28,0,0,1-.73-.49,2.29,2.29,0,0,1-.28-1.31,2.22,2.22,0,0,1,.29-1.32,1.15,1.15,0,0,1,.72-.47,4.53,4.53,0,0,1,.91-.09h7.83a1.8,1.8,0,0,1,1.85,1.85,2.18,2.18,0,0,1-.14.76,1.45,1.45,0,0,1-.39.59L132,31.09h4.52a4.49,4.49,0,0,1,.93.1,1.18,1.18,0,0,1,.69.5A2.59,2.59,0,0,1,138.4,33a2.3,2.3,0,0,1-.28,1.3,1.07,1.07,0,0,1-.7.47,5.25,5.25,0,0,1-.92.08Z"/><path class="cls-2" d="M150.65,34.85a2.34,2.34,0,0,1-1.38-.33.88.88,0,0,1-.42-.8l.25-.42a2.59,2.59,0,0,1-.58.61,4.11,4.11,0,0,1-1.11.65,4.33,4.33,0,0,1-1.66.29,5,5,0,0,1-2.19-.5A6.17,6.17,0,0,1,141.72,33a7.27,7.27,0,0,1-1.27-2,6.13,6.13,0,0,1,0-4.71,6.72,6.72,0,0,1,1.29-2,6.07,6.07,0,0,1,1.84-1.36,4.8,4.8,0,0,1,2.17-.5,4.32,4.32,0,0,1,1.58.26,4.86,4.86,0,0,1,1.09.61,3.45,3.45,0,0,1,.66.68l-.23-.35a1.05,1.05,0,0,1,.44-.91,3.24,3.24,0,0,1,2.68,0,1.16,1.16,0,0,1,.47.73,4.79,4.79,0,0,1,.09.95V33a4.73,4.73,0,0,1-.09.93,1,1,0,0,1-.47.71A2.5,2.5,0,0,1,150.65,34.85Zm-4.38-3.73a2.21,2.21,0,0,0,1.2-.33,2.51,2.51,0,0,0,.85-.92,2.48,2.48,0,0,0,.33-1.27,2.62,2.62,0,0,0-.32-1.29,2.5,2.5,0,0,0-.88-.89,2.41,2.41,0,0,0-1.22-.32,2.48,2.48,0,0,0-1.27.33,2.57,2.57,0,0,0-1.24,2.22,2.37,2.37,0,0,0,.34,1.23,2.51,2.51,0,0,0,.93.9A2.48,2.48,0,0,0,146.27,31.12Z"/><path class="cls-2" d="M167.75,35.11a7.17,7.17,0,0,1-3-.58A5.72,5.72,0,0,1,162.67,33a6.61,6.61,0,0,1-1.2-2.09,6.86,6.86,0,0,1-.39-2.3,6.38,6.38,0,0,1,.85-3.32A6,6,0,0,1,164.29,23a6.9,6.9,0,0,1,3.46-.83,6.27,6.27,0,0,1,2.52.46,5.33,5.33,0,0,1,1.75,1.2,5.25,5.25,0,0,1,1,1.59,4.53,4.53,0,0,1,.34,1.62,2.82,2.82,0,0,1-.67,2.05,2.26,2.26,0,0,1-1.69.68h-6a1.78,1.78,0,0,0,.47,1.08,2.81,2.81,0,0,0,1,.7,3.5,3.5,0,0,0,1.33.25,8.22,8.22,0,0,0,1-.06,3.6,3.6,0,0,0,.78-.18c.22-.07.42-.15.59-.22s.34-.14.49-.19a2.53,2.53,0,0,1,.42-.1,1,1,0,0,1,.68.22,1.91,1.91,0,0,1,.57.71,1.71,1.71,0,0,1,.24.52,2.2,2.2,0,0,1,.06.5,1.34,1.34,0,0,1-.61,1.09,4.83,4.83,0,0,1-1.73.74A11.47,11.47,0,0,1,167.75,35.11Zm-2.67-7.4H169a.92.92,0,0,0,.57-.14.61.61,0,0,0,.2-.53,1.23,1.23,0,0,0-.27-.78,1.87,1.87,0,0,0-.74-.54,3.22,3.22,0,0,0-1.09-.19,3,3,0,0,0-1.35.3,2.47,2.47,0,0,0-.94.8A2,2,0,0,0,165.08,27.71Z"/><path class="cls-2" d="M180.27,34.89a14.14,14.14,0,0,1-1.82-.1,3.77,3.77,0,0,1-1.35-.4,2.42,2.42,0,0,1-.9-.84,3.84,3.84,0,0,1-.53-1.37,10.92,10.92,0,0,1-.17-2.07V18.57a3.84,3.84,0,0,1,.1-.93,1.17,1.17,0,0,1,.48-.7,2.41,2.41,0,0,1,1.32-.27,2.28,2.28,0,0,1,1.28.27,1.21,1.21,0,0,1,.49.7,3.9,3.9,0,0,1,.1.93V29.94a5.88,5.88,0,0,0,0,.67,1,1,0,0,0,.15.41.6.6,0,0,0,.31.2,2.5,2.5,0,0,0,.53.05,2.6,2.6,0,0,1,.61.07.89.89,0,0,1,.54.45,2.58,2.58,0,0,1,.22,1.25,2.78,2.78,0,0,1-.22,1.3.88.88,0,0,1-.54.48A2.73,2.73,0,0,1,180.27,34.89Z"/><path class="cls-2" d="M191.9,34.87a2.42,2.42,0,0,1-1.32-.26,1.1,1.1,0,0,1-.47-.7A4.46,4.46,0,0,1,190,33V24.2a4.19,4.19,0,0,1,.09-.89,1,1,0,0,1,.48-.66,2.6,2.6,0,0,1,1.33-.25,2.49,2.49,0,0,1,1.17.21,1,1,0,0,1,.49.52,1.47,1.47,0,0,1,.11.56,1,1,0,0,0,.05.36l-.15.48a1.61,1.61,0,0,1,.39-.77,4,4,0,0,1,.85-.7,4.7,4.7,0,0,1,1.1-.48,4,4,0,0,1,1.16-.18,5,5,0,0,1,2.14.44,4.35,4.35,0,0,1,1.59,1.27,5.76,5.76,0,0,1,1,1.93,8.27,8.27,0,0,1,.34,2.44V33a4.46,4.46,0,0,1-.09.91,1,1,0,0,1-.48.69,2.53,2.53,0,0,1-1.33.25,2.59,2.59,0,0,1-1.33-.26,1.08,1.08,0,0,1-.49-.7,5.52,5.52,0,0,1-.08-.92V28.48a2.92,2.92,0,0,0-.26-1.28,1.93,1.93,0,0,0-.75-.8,2.49,2.49,0,0,0-1.21-.27,2.57,2.57,0,0,0-1.25.28,2.09,2.09,0,0,0-.82.82,2.57,2.57,0,0,0-.29,1.25V33a4.53,4.53,0,0,1-.09.91,1,1,0,0,1-.47.69A2.53,2.53,0,0,1,191.9,34.87Z"/><path class="cls-2" d="M210,34.89a5.06,5.06,0,0,1-2.17-.46,5.33,5.33,0,0,1-1.75-1.26,5.59,5.59,0,0,1-1.16-1.93,6.81,6.81,0,0,1-.42-2.43V24.28a5.25,5.25,0,0,1,.08-.92,1.11,1.11,0,0,1,.49-.7,2.46,2.46,0,0,1,1.33-.28,2.38,2.38,0,0,1,1.31.28,1.07,1.07,0,0,1,.47.71,4.69,4.69,0,0,1,.09.94v4.5a2.92,2.92,0,0,0,.26,1.26,1.82,1.82,0,0,0,.78.82,2.54,2.54,0,0,0,1.21.27,2.45,2.45,0,0,0,1.24-.29,2.08,2.08,0,0,0,.8-.81,2.57,2.57,0,0,0,.28-1.25V24.26a5.25,5.25,0,0,1,.08-.92,1.07,1.07,0,0,1,.49-.69,2.59,2.59,0,0,1,1.33-.26,2.39,2.39,0,0,1,1.31.27,1.17,1.17,0,0,1,.48.72,5.31,5.31,0,0,1,.08.91v8.8a4.19,4.19,0,0,1-.09.89,1,1,0,0,1-.49.66,2.52,2.52,0,0,1-1.3.25,2.92,2.92,0,0,1-1.05-.15,1.31,1.31,0,0,1-.55-.38.94.94,0,0,1-.21-.47,2.57,2.57,0,0,1,0-.45l.33-.28a2.49,2.49,0,0,1-.33.39,5,5,0,0,1-.66.57,4.43,4.43,0,0,1-1,.54A3.4,3.4,0,0,1,210,34.89Zm-.39-13.38a.85.85,0,0,1-.74-.25,2.63,2.63,0,0,1-.51-1,2,2,0,0,1-.1-1.3,1.44,1.44,0,0,1,.93-.68l4.4-1.34a.87.87,0,0,1,.72.29,2.29,2.29,0,0,1,.5,1,2,2,0,0,1,.09,1.28,1.34,1.34,0,0,1-.92.67Z"/><path class="cls-2" d="M220.92,34.92a2.39,2.39,0,0,1-1.3-.28,1,1,0,0,1-.47-.7,5.25,5.25,0,0,1-.08-.92V24.27a5.11,5.11,0,0,1,.08-.9,1.07,1.07,0,0,1,.49-.69,2.49,2.49,0,0,1,1.33-.26,2.09,2.09,0,0,1,1.35.36,1.5,1.5,0,0,1,.42,1.19l-.32.27a1.88,1.88,0,0,1,.3-.42,4.38,4.38,0,0,1,.65-.63,4.25,4.25,0,0,1,.94-.56,2.76,2.76,0,0,1,1.16-.23,4.66,4.66,0,0,1,1.49.23,3.85,3.85,0,0,1,1.19.7,4.24,4.24,0,0,1,.94,1.17,6.93,6.93,0,0,1,.85-1,5,5,0,0,1,1.18-.8,3.56,3.56,0,0,1,1.52-.32,4.11,4.11,0,0,1,2.49.74,4.58,4.58,0,0,1,1.54,2.11,9.39,9.39,0,0,1,.52,3.33v4.47a4.45,4.45,0,0,1-.1.91,1.1,1.1,0,0,1-.49.7,2.39,2.39,0,0,1-1.31.27,2.46,2.46,0,0,1-1.33-.28,1,1,0,0,1-.47-.71,5.4,5.4,0,0,1-.08-.91V28.55a4.1,4.1,0,0,0-.18-1.29,1.84,1.84,0,0,0-.54-.82,1.32,1.32,0,0,0-.9-.29,1.68,1.68,0,0,0-1,.27,1.72,1.72,0,0,0-.61.8,3.92,3.92,0,0,0-.2,1.35v4.48a3.61,3.61,0,0,1-.12.94,1.23,1.23,0,0,1-.54.69,2.39,2.39,0,0,1-1.34.24,2.11,2.11,0,0,1-1.25-.29,1.12,1.12,0,0,1-.45-.72,5.26,5.26,0,0,1-.07-.89V28.55a4.63,4.63,0,0,0-.17-1.31,1.7,1.7,0,0,0-.53-.82,1.53,1.53,0,0,0-.92-.28,1.57,1.57,0,0,0-1,.33,1.9,1.9,0,0,0-.59.86,3.79,3.79,0,0,0-.19,1.21V33a4.45,4.45,0,0,1-.09.93,1.07,1.07,0,0,1-.48.69A2.59,2.59,0,0,1,220.92,34.92Z"/><path class="cls-2" d="M245.85,35.16a7.29,7.29,0,0,1-3-.58,5.84,5.84,0,0,1-2.06-1.51,6.61,6.61,0,0,1-1.2-2.09,7.14,7.14,0,0,1-.4-2.3,6.45,6.45,0,0,1,.86-3.33,6.09,6.09,0,0,1,2.36-2.28,7,7,0,0,1,3.46-.84,6.18,6.18,0,0,1,2.51.47,5,5,0,0,1,1.75,1.2,5.1,5.1,0,0,1,1,1.59,4.42,4.42,0,0,1,.33,1.62,2.82,2.82,0,0,1-.66,2.05,2.25,2.25,0,0,1-1.69.67h-6a1.78,1.78,0,0,0,.47,1.08,2.81,2.81,0,0,0,1,.7,3.7,3.7,0,0,0,1.33.25,7.94,7.94,0,0,0,1-.06,4.23,4.23,0,0,0,.79-.18c.22-.07.41-.15.59-.22a4.44,4.44,0,0,1,.49-.19,2.53,2.53,0,0,1,.42-.1,1,1,0,0,1,.68.21,2.09,2.09,0,0,1,.57.71,1.75,1.75,0,0,1,.24.53,2.14,2.14,0,0,1,.06.5,1.34,1.34,0,0,1-.61,1.09,4.74,4.74,0,0,1-1.73.73A11,11,0,0,1,245.85,35.16Zm-2.68-7.4h4a1,1,0,0,0,.58-.14.62.62,0,0,0,.2-.54,1.18,1.18,0,0,0-.28-.77,1.69,1.69,0,0,0-.73-.54,3.2,3.2,0,0,0-2.44.11,2.47,2.47,0,0,0-.94.8A1.92,1.92,0,0,0,243.17,27.76Z"/><path class="cls-2" d="M255.44,34.94a2.39,2.39,0,0,1-1.31-.27,1.06,1.06,0,0,1-.47-.71,4.7,4.7,0,0,1-.09-.92V24.31a5.25,5.25,0,0,1,.08-.92,1.07,1.07,0,0,1,.49-.69,2.59,2.59,0,0,1,1.33-.26,2.5,2.5,0,0,1,1.26.24,1,1,0,0,1,.49.55,2,2,0,0,1,.1.53l-.3.15a3.22,3.22,0,0,1,.26-.36,3.58,3.58,0,0,1,.59-.55,3.71,3.71,0,0,1,.91-.49,3.63,3.63,0,0,1,1.24-.19l.61,0a4.89,4.89,0,0,1,.7.15,3.32,3.32,0,0,1,.66.3,1.69,1.69,0,0,1,.49.47,1.2,1.2,0,0,1,.19.67,3,3,0,0,1-.48,1.74,1.42,1.42,0,0,1-1.2.71,2.11,2.11,0,0,1-.6-.06,1,1,0,0,1-.29-.15.93.93,0,0,0-.26-.15,1.68,1.68,0,0,0-.55-.06,2.34,2.34,0,0,0-.71.1,1.85,1.85,0,0,0-.63.31,1.45,1.45,0,0,0-.61,1.23v5.48a4.46,4.46,0,0,1-.09.91,1,1,0,0,1-.49.69A2.6,2.6,0,0,1,255.44,34.94Z"/><path class="cls-2" d="M270.64,35.15a6.21,6.21,0,0,1-2.33-.47,6.91,6.91,0,0,1-2.11-1.31,6.41,6.41,0,0,1-1.52-2,6.41,6.41,0,0,1,0-5.15,6.78,6.78,0,0,1,3.47-3.47,6.16,6.16,0,0,1,2.49-.51,6.33,6.33,0,0,1,3.26.86,6.56,6.56,0,0,1,2.34,2.34,6.71,6.71,0,0,1,.31,6,6.5,6.5,0,0,1-1.5,2,6.57,6.57,0,0,1-2.08,1.29A6.38,6.38,0,0,1,270.64,35.15Zm0-3.78a2.81,2.81,0,0,0,1.22-.3,2.67,2.67,0,0,0,1.05-.9,2.51,2.51,0,0,0,.43-1.52,2.74,2.74,0,0,0-.35-1.4,2.55,2.55,0,0,0-1-.94,2.83,2.83,0,0,0-1.41-.34,2.6,2.6,0,0,0-1.34.35,2.65,2.65,0,0,0-.95,1,2.6,2.6,0,0,0-.37,1.39,2.66,2.66,0,0,0,.41,1.51,2.49,2.49,0,0,0,1,.9A2.83,2.83,0,0,0,270.6,31.37Z"/><path class="cls-2" d="M291.72,35.21a7.08,7.08,0,0,1-2.51-.44,6.86,6.86,0,0,1-2.06-1.19,5.9,5.9,0,0,1-1.42-1.71,4.37,4.37,0,0,1-.53-2q0-1.35,2.07-1.35a2.77,2.77,0,0,1,.92.11.94.94,0,0,1,.48.4,5.27,5.27,0,0,1,.38.81,2.14,2.14,0,0,0,.37.65,2.79,2.79,0,0,0,.85.72,3,3,0,0,0,1.48.31,3.81,3.81,0,0,0,1.46-.26,2.29,2.29,0,0,0,1-.73,1.66,1.66,0,0,0,.34-1,1.69,1.69,0,0,0-.34-1.09,2.15,2.15,0,0,0-.9-.68,3.23,3.23,0,0,0-1.29-.23,5.64,5.64,0,0,1-1-.08,1.08,1.08,0,0,1-.71-.45,2.26,2.26,0,0,1-.28-1.28,2.37,2.37,0,0,1,.28-1.31A1.06,1.06,0,0,1,291,24a7.25,7.25,0,0,1,1-.07,3.38,3.38,0,0,0,1.13-.14,1.42,1.42,0,0,0,.68-.44,1,1,0,0,0,.24-.69,1.62,1.62,0,0,0-.26-.91,1.7,1.7,0,0,0-.72-.6,2.86,2.86,0,0,0-1.12-.22,3.06,3.06,0,0,0-1.08.17,1.86,1.86,0,0,0-.73.46,4.56,4.56,0,0,0-.51.65,1.75,1.75,0,0,1-1.07,1.06,2.21,2.21,0,0,1-1.58-.36,1.89,1.89,0,0,1-1-1.09,2.13,2.13,0,0,1,.26-1.39,1.84,1.84,0,0,0,.23-.39,4.41,4.41,0,0,1,.56-.8,6,6,0,0,1,1-.91,5.39,5.39,0,0,1,1.54-.75,6.81,6.81,0,0,1,2.18-.29,6.71,6.71,0,0,1,2.63.47,6,6,0,0,1,1.91,1.23,5.26,5.26,0,0,1,1.18,1.67,4.85,4.85,0,0,1,.4,1.88,3.51,3.51,0,0,1-.32,1.55,3.56,3.56,0,0,1-.76,1.06,3.39,3.39,0,0,1-.83.59,4.28,4.28,0,0,1,.79.54,3.7,3.7,0,0,1,.75.82,4.87,4.87,0,0,1,.56,1.09,3.66,3.66,0,0,1,.23,1.3,5.37,5.37,0,0,1-.85,3,5.86,5.86,0,0,1-2.34,2.06A7.42,7.42,0,0,1,291.72,35.21Z"/><text class="cls-4" transform="matrix(0.97, 0, 0, 1, 40.3, 41.89)">3</text><text class="cls-5" transform="matrix(0.97, 0, 0, 1, 40.3, 41.89)">3</text></g></g></svg>