<svg xmlns="http://www.w3.org/2000/svg" viewBox="0 0 399.98 103.24"><defs><style>.cls-1{fill:#23841a;}.cls-2{fill:#fff;}.cls-3,.cls-4{fill:none;stroke-width:5px;}.cls-3{stroke:#ff7300;stroke-linejoin:round;}.cls-4{stroke:#fff;}.cls-5{fill:#ff7300;}</style></defs><title>34t</title><g id="Layer_2" data-name="Layer 2"><g id="pestaña_identificativa" data-name="pestaña identificativa"><rect class="cls-1" width="399.98" height="103.24" rx="32.4"/><path class="cls-2" d="M124.81,34.84a2.27,2.27,0,0,1-1.3-.29,1.21,1.21,0,0,1-.5-.75,4.37,4.37,0,0,1-.1-1V19.29a4,4,0,0,1,.1-.94,1.18,1.18,0,0,1,.5-.73,2.35,2.35,0,0,1,1.32-.28H131a5,5,0,0,1,2.65.71,5.4,5.4,0,0,1,1.83,1.88,4.86,4.86,0,0,1,.65,2.54,4.47,4.47,0,0,1-.1,1.09,5.09,5.09,0,0,1-.37,1,5,5,0,0,1-.59.9,4.36,4.36,0,0,1,.88,1.11,5.94,5.94,0,0,1,.53,1.34,5.23,5.23,0,0,1,.19,1.42,6.05,6.05,0,0,1-.45,2.17,5.36,5.36,0,0,1-1.16,1.74,5.64,5.64,0,0,1-1.72,1.17,5.25,5.25,0,0,1-2.1.42Zm1.93-3.78H131a2.5,2.5,0,0,0,.88-.17,1.48,1.48,0,0,0,.72-.6,2.34,2.34,0,0,0,.27-1.23,2.68,2.68,0,0,0-.12-.87,1.47,1.47,0,0,0-.34-.53,1.05,1.05,0,0,0-.49-.28,3.39,3.39,0,0,0-.57-.1l-.58,0h-.72a1.62,1.62,0,0,1-1.2-.36,1.81,1.81,0,0,1-.35-1.26,1.62,1.62,0,0,1,.39-1.23,1.84,1.84,0,0,1,1.24-.35h.72a3.21,3.21,0,0,0,.53,0,1.23,1.23,0,0,0,.48-.15.9.9,0,0,0,.35-.41,1.9,1.9,0,0,0,.14-.79,1.51,1.51,0,0,0-.42-1.21,2.51,2.51,0,0,0-1.53-.37h-3.7Z"/><path class="cls-2" d="M144.33,34.82a5.24,5.24,0,0,1-2.17-.45,5.33,5.33,0,0,1-1.75-1.26,5.69,5.69,0,0,1-1.16-1.93,6.83,6.83,0,0,1-.41-2.44V24.22a4.59,4.59,0,0,1,.09-.93,1.13,1.13,0,0,1,.49-.7,2.41,2.41,0,0,1,1.32-.27,2.27,2.27,0,0,1,1.31.28,1.12,1.12,0,0,1,.48.71,5.49,5.49,0,0,1,.08.94v4.5a2.92,2.92,0,0,0,.26,1.26,1.8,1.8,0,0,0,.78.81,2.43,2.43,0,0,0,1.21.28,2.53,2.53,0,0,0,1.24-.29,2,2,0,0,0,.8-.81,2.59,2.59,0,0,0,.29-1.25V24.2a4.59,4.59,0,0,1,.09-.93,1,1,0,0,1,.49-.68,2.42,2.42,0,0,1,1.32-.26,2.37,2.37,0,0,1,1.31.27,1.15,1.15,0,0,1,.48.71,4.63,4.63,0,0,1,.08.92V33a4.1,4.1,0,0,1-.09.88,1,1,0,0,1-.49.67,2.61,2.61,0,0,1-1.3.25,2.69,2.69,0,0,1-1.05-.16,1.21,1.21,0,0,1-.55-.37,1.16,1.16,0,0,1-.21-.47,4.14,4.14,0,0,1,0-.45l.33-.28a3.06,3.06,0,0,1-.33.39,5.22,5.22,0,0,1-.66.57,4.21,4.21,0,0,1-1,.54A3.37,3.37,0,0,1,144.33,34.82Z"/><path class="cls-2" d="M159.63,35a6.37,6.37,0,0,1-2.23-.42,6.92,6.92,0,0,1-2.1-1.21,5.8,5.8,0,0,1-1.54-2,6.35,6.35,0,0,1-.57-2.75,6.2,6.2,0,0,1,.57-2.73,6.11,6.11,0,0,1,1.53-2,6.75,6.75,0,0,1,2.09-1.21,6.33,6.33,0,0,1,2.21-.41,6,6,0,0,1,1.66.21,5.41,5.41,0,0,1,1.25.51,3.87,3.87,0,0,1,.74.53,8.35,8.35,0,0,1,.75.65,1.05,1.05,0,0,1,.3.85,1.59,1.59,0,0,1-.18.56,4.36,4.36,0,0,1-.37.59c-.52.7-1,1-1.5.95a2.58,2.58,0,0,1-.69-.25l-.6-.35a4.37,4.37,0,0,0-.61-.31,1.79,1.79,0,0,0-.75-.14,2.54,2.54,0,0,0-1.3.33,2.64,2.64,0,0,0-.92.9,2.77,2.77,0,0,0,0,2.62,2.7,2.7,0,0,0,.9.91,2.49,2.49,0,0,0,1.27.34,2.72,2.72,0,0,0,.72-.1,2.59,2.59,0,0,0,.55-.24l.35-.21a5.41,5.41,0,0,1,.58-.36,1,1,0,0,1,.55-.17,1.2,1.2,0,0,1,.73.27,4,4,0,0,1,.81.83,2,2,0,0,1,.49,1,1.22,1.22,0,0,1-.21.86,2.66,2.66,0,0,1-.85.76,4.05,4.05,0,0,1-.71.45,6.77,6.77,0,0,1-1.25.5A5.76,5.76,0,0,1,159.63,35Z"/><path class="cls-2" d="M171.38,34.86a14.14,14.14,0,0,1-1.82-.1,3.64,3.64,0,0,1-1.35-.4,2.42,2.42,0,0,1-.9-.84,4,4,0,0,1-.53-1.37,10.88,10.88,0,0,1-.17-2.06V18.54a3.84,3.84,0,0,1,.1-.93,1.14,1.14,0,0,1,.49-.7,3.26,3.26,0,0,1,2.6,0,1.19,1.19,0,0,1,.48.7,4,4,0,0,1,.1.93V29.91a6.19,6.19,0,0,0,0,.67,1,1,0,0,0,.15.41.54.54,0,0,0,.32.2,2.34,2.34,0,0,0,.52,0,2.6,2.6,0,0,1,.61.07.89.89,0,0,1,.54.45,2.58,2.58,0,0,1,.22,1.25,2.76,2.76,0,0,1-.22,1.3.88.88,0,0,1-.54.48A2.73,2.73,0,0,1,171.38,34.86Z"/><path class="cls-2" d="M180.81,35.09a7.33,7.33,0,0,1-3-.57A6,6,0,0,1,175.73,33a6.36,6.36,0,0,1-1.19-2.08,6.92,6.92,0,0,1-.4-2.3,6.45,6.45,0,0,1,.85-3.33A6.18,6.18,0,0,1,177.35,23a7.12,7.12,0,0,1,3.47-.83,6.43,6.43,0,0,1,2.51.46,5.23,5.23,0,0,1,1.75,1.2,5.3,5.3,0,0,1,1,1.59,4.33,4.33,0,0,1,.34,1.63,2.84,2.84,0,0,1-.67,2.05,2.25,2.25,0,0,1-1.69.67h-5.94a1.68,1.68,0,0,0,.46,1.07,2.69,2.69,0,0,0,1,.7,3.5,3.5,0,0,0,1.33.25,8.22,8.22,0,0,0,1-.06,4.18,4.18,0,0,0,.78-.17c.22-.08.42-.15.59-.23l.49-.18a1.78,1.78,0,0,1,.43-.1,1,1,0,0,1,.67.21,2,2,0,0,1,.57.71,1.75,1.75,0,0,1,.24.53,2.07,2.07,0,0,1,.06.5,1.32,1.32,0,0,1-.61,1.08,4.68,4.68,0,0,1-1.72.74A11.1,11.1,0,0,1,180.81,35.09Zm-2.67-7.4h4a1,1,0,0,0,.57-.14.62.62,0,0,0,.2-.54,1.23,1.23,0,0,0-.27-.77,1.7,1.7,0,0,0-.74-.54,2.8,2.8,0,0,0-1.09-.19,3,3,0,0,0-1.35.3,2.36,2.36,0,0,0-.93.8A1.84,1.84,0,0,0,178.14,27.69Z"/><path class="cls-2" d="M197.07,20.58a2.38,2.38,0,0,1-1.35-.28,1.09,1.09,0,0,1-.49-.72,4.86,4.86,0,0,1-.09-.95,4.75,4.75,0,0,1,.09-1,1.07,1.07,0,0,1,.5-.7,3.43,3.43,0,0,1,2.69,0,1.15,1.15,0,0,1,.49.73,5.86,5.86,0,0,1,.08,1,4.73,4.73,0,0,1-.09.93,1.09,1.09,0,0,1-.48.71A2.65,2.65,0,0,1,197.07,20.58Zm0,14.3a2.59,2.59,0,0,1-1.33-.26,1,1,0,0,1-.47-.7,5.52,5.52,0,0,1-.08-.92V24.28a4.46,4.46,0,0,1,.09-.91,1,1,0,0,1,.48-.7,2.47,2.47,0,0,1,1.33-.27,2.42,2.42,0,0,1,1.29.28,1.1,1.1,0,0,1,.47.71,4.69,4.69,0,0,1,.09.94V33a4.46,4.46,0,0,1-.09.91,1,1,0,0,1-.47.69A2.52,2.52,0,0,1,197.06,34.88Z"/><path class="cls-2" d="M203.48,34.86a2.39,2.39,0,0,1-1.31-.27,1.05,1.05,0,0,1-.48-.7,5.31,5.31,0,0,1-.08-.91v-8.8a4.26,4.26,0,0,1,.09-.89,1,1,0,0,1,.49-.66,2.69,2.69,0,0,1,1.32-.25,2.49,2.49,0,0,1,1.18.22,1,1,0,0,1,.49.51,1.73,1.73,0,0,1,.11.56.75.75,0,0,0,.05.36l-.15.48a1.43,1.43,0,0,1,.39-.76,3.35,3.35,0,0,1,.85-.7,4.73,4.73,0,0,1,1.1-.49,3.93,3.93,0,0,1,1.16-.17,4.9,4.9,0,0,1,2.14.44,4.29,4.29,0,0,1,1.58,1.26,5.83,5.83,0,0,1,1,1.94,8.49,8.49,0,0,1,.34,2.43V33a5.43,5.43,0,0,1-.08.92,1,1,0,0,1-.48.68,2.57,2.57,0,0,1-1.34.25,2.45,2.45,0,0,1-1.32-.26,1.08,1.08,0,0,1-.49-.7,4.53,4.53,0,0,1-.09-.91V28.46a2.74,2.74,0,0,0-.27-1.27,1.76,1.76,0,0,0-.75-.8,2.33,2.33,0,0,0-1.21-.28,2.59,2.59,0,0,0-1.25.29,2,2,0,0,0-.81.81,2.59,2.59,0,0,0-.29,1.25V33a4.46,4.46,0,0,1-.09.91,1.06,1.06,0,0,1-.48.69A2.47,2.47,0,0,1,203.48,34.86Z"/><path class="cls-2" d="M222.18,35a2.41,2.41,0,0,1-1-.23,1.45,1.45,0,0,1-.66-.7l-4.49-9a2,2,0,0,1-.26-1.49,2,2,0,0,1,1.13-1.06,2.43,2.43,0,0,1,1.52-.31c.37.09.71.49,1,1.19l2.79,6.5L225,23.5c.3-.72.64-1.14,1-1.25a2.21,2.21,0,0,1,1.56.32c.69.32,1.07.69,1.14,1.12a2.32,2.32,0,0,1-.31,1.46l-4.48,8.92a1.48,1.48,0,0,1-.65.7A2.33,2.33,0,0,1,222.18,35Z"/><path class="cls-2" d="M237,35.13a7.12,7.12,0,0,1-3-.58A5.84,5.84,0,0,1,231.91,33a6.43,6.43,0,0,1-1.2-2.09,6.88,6.88,0,0,1-.4-2.3,6.38,6.38,0,0,1,.85-3.32A6.14,6.14,0,0,1,233.53,23,7,7,0,0,1,237,22.2a6.21,6.21,0,0,1,2.51.47,5.23,5.23,0,0,1,1.75,1.2,4.89,4.89,0,0,1,1,1.59,4.28,4.28,0,0,1,.34,1.62,2.82,2.82,0,0,1-.66,2.05,2.29,2.29,0,0,1-1.69.68h-5.95a1.77,1.77,0,0,0,.46,1.08,2.85,2.85,0,0,0,1,.7,3.48,3.48,0,0,0,1.32.25,8.1,8.1,0,0,0,1-.06,3.7,3.7,0,0,0,.79-.18l.59-.22a4.32,4.32,0,0,1,.48-.19,2.63,2.63,0,0,1,.43-.1,1,1,0,0,1,.67.21,2.06,2.06,0,0,1,.58.72,2,2,0,0,1,.24.52,2.2,2.2,0,0,1,.06.5,1.36,1.36,0,0,1-.61,1.09,4.74,4.74,0,0,1-1.73.73A11,11,0,0,1,237,35.13Zm-2.67-7.4h3.95a1.06,1.06,0,0,0,.58-.14.62.62,0,0,0,.2-.54,1.24,1.24,0,0,0-.28-.77,1.8,1.8,0,0,0-.74-.54,2.94,2.94,0,0,0-1.08-.19,3,3,0,0,0-1.35.3,2.39,2.39,0,0,0-.94.8A1.87,1.87,0,0,0,234.31,27.73Z"/><path class="cls-2" d="M246.58,34.91a2.48,2.48,0,0,1-1.31-.26,1.11,1.11,0,0,1-.48-.72,5.62,5.62,0,0,1-.08-.92V24.28a4.42,4.42,0,0,1,.09-.92,1.06,1.06,0,0,1,.49-.69,2.54,2.54,0,0,1,1.32-.26,2.52,2.52,0,0,1,1.27.24,1,1,0,0,1,.48.55,1.68,1.68,0,0,1,.1.54l-.3.15a3.45,3.45,0,0,1,.26-.37A4.66,4.66,0,0,1,249,23a3.46,3.46,0,0,1,.92-.48,3.34,3.34,0,0,1,1.23-.2,4.7,4.7,0,0,1,.62,0,3.26,3.26,0,0,1,.7.15,2.47,2.47,0,0,1,.66.3,1.54,1.54,0,0,1,.49.46,1.2,1.2,0,0,1,.18.67,3.09,3.09,0,0,1-.47,1.74,1.4,1.4,0,0,1-1.2.71,2,2,0,0,1-.6-.06.87.87,0,0,1-.29-.15A1.1,1.1,0,0,0,251,26a1.72,1.72,0,0,0-.55-.06,2.46,2.46,0,0,0-.72.1,1.9,1.9,0,0,0-.62.31,1.6,1.6,0,0,0-.45.52,1.51,1.51,0,0,0-.16.71v5.48a4.46,4.46,0,0,1-.09.91,1.06,1.06,0,0,1-.48.69A2.6,2.6,0,0,1,246.58,34.91Z"/><path class="cls-2" d="M256.56,22.62h2.75l3.45-.1a4.29,4.29,0,0,1,.9.09,1.1,1.1,0,0,1,.7.48,2.37,2.37,0,0,1,.28,1.33,2.27,2.27,0,0,1-.27,1.25,1.11,1.11,0,0,1-.68.51,3.49,3.49,0,0,1-.93.11l-3.27-.07-3,0a1.26,1.26,0,0,1-1-.46,2.55,2.55,0,0,1-.29-1.39,2.15,2.15,0,0,1,.35-1.34A1.25,1.25,0,0,1,256.56,22.62Zm5.65,12.3a7.5,7.5,0,0,1-2.2-.28,3.63,3.63,0,0,1-1.52-.85,3.5,3.5,0,0,1-.87-1.46,6.94,6.94,0,0,1-.29-2.11V20.09a4.15,4.15,0,0,1,.09-.92,1.07,1.07,0,0,1,.49-.67,2.48,2.48,0,0,1,1.3-.26,2.3,2.3,0,0,1,1.3.28,1.12,1.12,0,0,1,.48.71,4.53,4.53,0,0,1,.09.91v9.93a2.52,2.52,0,0,0,.07.66.79.79,0,0,0,.18.39.72.72,0,0,0,.35.17,2.24,2.24,0,0,0,.55.05,4.77,4.77,0,0,1,1,.1,1.1,1.1,0,0,1,.66.45,2.19,2.19,0,0,1,.24,1.18,2.39,2.39,0,0,1-.28,1.3,1,1,0,0,1-.71.47A5.4,5.4,0,0,1,262.21,34.92Z"/><path class="cls-2" d="M268.56,20.62a2.53,2.53,0,0,1-1.35-.27,1.16,1.16,0,0,1-.48-.73,4.86,4.86,0,0,1-.09-.95,4.75,4.75,0,0,1,.09-1,1,1,0,0,1,.5-.7,2.59,2.59,0,0,1,1.36-.26,2.47,2.47,0,0,1,1.33.27,1.16,1.16,0,0,1,.48.73,4.92,4.92,0,0,1,.09,1,4.73,4.73,0,0,1-.09.93,1.07,1.07,0,0,1-.48.71A2.56,2.56,0,0,1,268.56,20.62Zm0,14.3a2.59,2.59,0,0,1-1.33-.26,1,1,0,0,1-.47-.7,5.4,5.4,0,0,1-.08-.91V24.32a5.31,5.31,0,0,1,.08-.91,1.09,1.09,0,0,1,.49-.7,2.49,2.49,0,0,1,1.33-.26,2.34,2.34,0,0,1,1.29.27,1.17,1.17,0,0,1,.47.72,4.59,4.59,0,0,1,.09.93v8.7a4.63,4.63,0,0,1-.09.92,1,1,0,0,1-.47.68A2.52,2.52,0,0,1,268.56,34.92Z"/><path class="cls-2" d="M278.46,34.9a4.93,4.93,0,0,1-2.18-.49,5.83,5.83,0,0,1-1.82-1.36,6.61,6.61,0,0,1-1.73-4.42,6.19,6.19,0,0,1,.47-2.34A6.41,6.41,0,0,1,276.31,23a4.91,4.91,0,0,1,2.15-.5,4.29,4.29,0,0,1,3.64,1.83,6.48,6.48,0,0,1,.94,2,9.07,9.07,0,0,1,.34,2.35,9.28,9.28,0,0,1-.3,2.4,6.16,6.16,0,0,1-.92,2,4.67,4.67,0,0,1-1.55,1.39A4.41,4.41,0,0,1,278.46,34.9Zm.5-3.7a2.27,2.27,0,0,0,1.21-.33,2.74,2.74,0,0,0,.88-.91,2.54,2.54,0,0,0,.33-1.28,2.41,2.41,0,0,0-.32-1.26,2.5,2.5,0,0,0-.87-.9,2.32,2.32,0,0,0-1.25-.34,2.49,2.49,0,0,0-1.24.32,2.31,2.31,0,0,0-.88.9,2.63,2.63,0,0,0-.31,1.28,2.6,2.6,0,0,0,.32,1.27,2.48,2.48,0,0,0,.9.92A2.44,2.44,0,0,0,279,31.2Zm4.35,3.73a2.38,2.38,0,0,1-1.27-.27,1.32,1.32,0,0,1-.53-.85V18.66a6.74,6.74,0,0,1,.07-.92A1,1,0,0,1,282,17a2.24,2.24,0,0,1,1.27-.27,2.42,2.42,0,0,1,1.33.26,1.11,1.11,0,0,1,.47.69,3.82,3.82,0,0,1,.1.92V33a4.46,4.46,0,0,1-.09.91,1.09,1.09,0,0,1-.47.72A2.39,2.39,0,0,1,283.31,34.93Z"/><path class="cls-2" d="M293.71,35.14a6.22,6.22,0,0,1-2.34-.47,6.72,6.72,0,0,1-2.11-1.31,6.24,6.24,0,0,1-1.51-2,6,6,0,0,1-.57-2.64,6.2,6.2,0,0,1,.52-2.51,6.78,6.78,0,0,1,3.47-3.47,6.16,6.16,0,0,1,2.49-.51,6.33,6.33,0,0,1,3.26.86,6.56,6.56,0,0,1,2.34,2.34,6.27,6.27,0,0,1,.87,3.28,6.2,6.2,0,0,1-.56,2.71A6.5,6.5,0,0,1,296,34.7,6.36,6.36,0,0,1,293.71,35.14Zm0-3.78a2.78,2.78,0,0,0,1.22-.3,2.67,2.67,0,0,0,1.05-.9,2.51,2.51,0,0,0,.43-1.52,2.77,2.77,0,0,0-.35-1.4,2.48,2.48,0,0,0-1-.94,2.94,2.94,0,0,0-1.41-.34,2.6,2.6,0,0,0-1.34.35,2.73,2.73,0,0,0-.95,1,2.7,2.7,0,0,0-.37,1.39,2.61,2.61,0,0,0,.42,1.51,2.47,2.47,0,0,0,1,.9A2.83,2.83,0,0,0,293.66,31.36Z"/><path class="cls-3" d="M124.81,34.84a2.27,2.27,0,0,1-1.3-.29,1.21,1.21,0,0,1-.5-.75,4.37,4.37,0,0,1-.1-1V19.29a4,4,0,0,1,.1-.94,1.18,1.18,0,0,1,.5-.73,2.35,2.35,0,0,1,1.32-.28H131a5,5,0,0,1,2.65.71,5.4,5.4,0,0,1,1.83,1.88,4.86,4.86,0,0,1,.65,2.54,4.47,4.47,0,0,1-.1,1.09,5.09,5.09,0,0,1-.37,1,5,5,0,0,1-.59.9,4.36,4.36,0,0,1,.88,1.11,5.94,5.94,0,0,1,.53,1.34,5.23,5.23,0,0,1,.19,1.42,6.05,6.05,0,0,1-.45,2.17,5.36,5.36,0,0,1-1.16,1.74,5.64,5.64,0,0,1-1.72,1.17,5.25,5.25,0,0,1-2.1.42Zm1.93-3.78H131a2.5,2.5,0,0,0,.88-.17,1.48,1.48,0,0,0,.72-.6,2.34,2.34,0,0,0,.27-1.23,2.68,2.68,0,0,0-.12-.87,1.47,1.47,0,0,0-.34-.53,1.05,1.05,0,0,0-.49-.28,3.39,3.39,0,0,0-.57-.1l-.58,0h-.72a1.62,1.62,0,0,1-1.2-.36,1.81,1.81,0,0,1-.35-1.26,1.62,1.62,0,0,1,.39-1.23,1.84,1.84,0,0,1,1.24-.35h.72a3.21,3.21,0,0,0,.53,0,1.23,1.23,0,0,0,.48-.15.9.9,0,0,0,.35-.41,1.9,1.9,0,0,0,.14-.79,1.51,1.51,0,0,0-.42-1.21,2.51,2.51,0,0,0-1.53-.37h-3.7Z"/><path class="cls-3" d="M144.33,34.82a5.24,5.24,0,0,1-2.17-.45,5.33,5.33,0,0,1-1.75-1.26,5.69,5.69,0,0,1-1.16-1.93,6.83,6.83,0,0,1-.41-2.44V24.22a4.59,4.59,0,0,1,.09-.93,1.13,1.13,0,0,1,.49-.7,2.41,2.41,0,0,1,1.32-.27,2.27,2.27,0,0,1,1.31.28,1.12,1.12,0,0,1,.48.71,5.49,5.49,0,0,1,.08.94v4.5a2.92,2.92,0,0,0,.26,1.26,1.8,1.8,0,0,0,.78.81,2.43,2.43,0,0,0,1.21.28,2.53,2.53,0,0,0,1.24-.29,2,2,0,0,0,.8-.81,2.59,2.59,0,0,0,.29-1.25V24.2a4.59,4.59,0,0,1,.09-.93,1,1,0,0,1,.49-.68,2.42,2.42,0,0,1,1.32-.26,2.37,2.37,0,0,1,1.31.27,1.15,1.15,0,0,1,.48.71,4.63,4.63,0,0,1,.08.92V33a4.1,4.1,0,0,1-.09.88,1,1,0,0,1-.49.67,2.61,2.61,0,0,1-1.3.25,2.69,2.69,0,0,1-1.05-.16,1.21,1.21,0,0,1-.55-.37,1.16,1.16,0,0,1-.21-.47,4.14,4.14,0,0,1,0-.45l.33-.28a3.06,3.06,0,0,1-.33.39,5.22,5.22,0,0,1-.66.57,4.21,4.21,0,0,1-1,.54A3.37,3.37,0,0,1,144.33,34.82Z"/><path class="cls-3" d="M159.63,35a6.37,6.37,0,0,1-2.23-.42,6.92,6.92,0,0,1-2.1-1.21,5.8,5.8,0,0,1-1.54-2,6.35,6.35,0,0,1-.57-2.75,6.2,6.2,0,0,1,.57-2.73,6.11,6.11,0,0,1,1.53-2,6.75,6.75,0,0,1,2.09-1.21,6.33,6.33,0,0,1,2.21-.41,6,6,0,0,1,1.66.21,5.41,5.41,0,0,1,1.25.51,3.87,3.87,0,0,1,.74.53,8.35,8.35,0,0,1,.75.65,1.05,1.05,0,0,1,.3.85,1.59,1.59,0,0,1-.18.56,4.36,4.36,0,0,1-.37.59c-.52.7-1,1-1.5.95a2.58,2.58,0,0,1-.69-.25l-.6-.35a4.37,4.37,0,0,0-.61-.31,1.79,1.79,0,0,0-.75-.14,2.54,2.54,0,0,0-1.3.33,2.64,2.64,0,0,0-.92.9,2.77,2.77,0,0,0,0,2.62,2.7,2.7,0,0,0,.9.91,2.49,2.49,0,0,0,1.27.34,2.72,2.72,0,0,0,.72-.1,2.59,2.59,0,0,0,.55-.24l.35-.21a5.41,5.41,0,0,1,.58-.36,1,1,0,0,1,.55-.17,1.2,1.2,0,0,1,.73.27,4,4,0,0,1,.81.83,2,2,0,0,1,.49,1,1.22,1.22,0,0,1-.21.86,2.66,2.66,0,0,1-.85.76,4.05,4.05,0,0,1-.71.45,6.77,6.77,0,0,1-1.25.5A5.76,5.76,0,0,1,159.63,35Z"/><path class="cls-3" d="M171.38,34.86a14.14,14.14,0,0,1-1.82-.1,3.64,3.64,0,0,1-1.35-.4,2.42,2.42,0,0,1-.9-.84,4,4,0,0,1-.53-1.37,10.88,10.88,0,0,1-.17-2.06V18.54a3.84,3.84,0,0,1,.1-.93,1.14,1.14,0,0,1,.49-.7,3.26,3.26,0,0,1,2.6,0,1.19,1.19,0,0,1,.48.7,4,4,0,0,1,.1.93V29.91a6.19,6.19,0,0,0,0,.67,1,1,0,0,0,.15.41.54.54,0,0,0,.32.2,2.34,2.34,0,0,0,.52,0,2.6,2.6,0,0,1,.61.07.89.89,0,0,1,.54.45,2.58,2.58,0,0,1,.22,1.25,2.76,2.76,0,0,1-.22,1.3.88.88,0,0,1-.54.48A2.73,2.73,0,0,1,171.38,34.86Z"/><path class="cls-3" d="M180.81,35.09a7.33,7.33,0,0,1-3-.57A6,6,0,0,1,175.73,33a6.36,6.36,0,0,1-1.19-2.08,6.92,6.92,0,0,1-.4-2.3,6.45,6.45,0,0,1,.85-3.33A6.18,6.18,0,0,1,177.35,23a7.12,7.12,0,0,1,3.47-.83,6.43,6.43,0,0,1,2.51.46,5.23,5.23,0,0,1,1.75,1.2,5.3,5.3,0,0,1,1,1.59,4.33,4.33,0,0,1,.34,1.63,2.84,2.84,0,0,1-.67,2.05,2.25,2.25,0,0,1-1.69.67h-5.94a1.68,1.68,0,0,0,.46,1.07,2.69,2.69,0,0,0,1,.7,3.5,3.5,0,0,0,1.33.25,8.22,8.22,0,0,0,1-.06,4.18,4.18,0,0,0,.78-.17c.22-.08.42-.15.59-.23l.49-.18a1.78,1.78,0,0,1,.43-.1,1,1,0,0,1,.67.21,2,2,0,0,1,.57.71,1.75,1.75,0,0,1,.24.53,2.07,2.07,0,0,1,.06.5,1.32,1.32,0,0,1-.61,1.08,4.68,4.68,0,0,1-1.72.74A11.1,11.1,0,0,1,180.81,35.09Zm-2.67-7.4h4a1,1,0,0,0,.57-.14.62.62,0,0,0,.2-.54,1.23,1.23,0,0,0-.27-.77,1.7,1.7,0,0,0-.74-.54,2.8,2.8,0,0,0-1.09-.19,3,3,0,0,0-1.35.3,2.36,2.36,0,0,0-.93.8A1.84,1.84,0,0,0,178.14,27.69Z"/><path class="cls-3" d="M197.07,20.58a2.38,2.38,0,0,1-1.35-.28,1.09,1.09,0,0,1-.49-.72,4.86,4.86,0,0,1-.09-.95,4.75,4.75,0,0,1,.09-1,1.07,1.07,0,0,1,.5-.7,3.43,3.43,0,0,1,2.69,0,1.15,1.15,0,0,1,.49.73,5.86,5.86,0,0,1,.08,1,4.73,4.73,0,0,1-.09.93,1.09,1.09,0,0,1-.48.71A2.65,2.65,0,0,1,197.07,20.58Zm0,14.3a2.59,2.59,0,0,1-1.33-.26,1,1,0,0,1-.47-.7,5.52,5.52,0,0,1-.08-.92V24.28a4.46,4.46,0,0,1,.09-.91,1,1,0,0,1,.48-.7,2.47,2.47,0,0,1,1.33-.27,2.42,2.42,0,0,1,1.29.28,1.1,1.1,0,0,1,.47.71,4.69,4.69,0,0,1,.09.94V33a4.46,4.46,0,0,1-.09.91,1,1,0,0,1-.47.69A2.52,2.52,0,0,1,197.06,34.88Z"/><path class="cls-3" d="M203.48,34.86a2.39,2.39,0,0,1-1.31-.27,1.05,1.05,0,0,1-.48-.7,5.31,5.31,0,0,1-.08-.91v-8.8a4.26,4.26,0,0,1,.09-.89,1,1,0,0,1,.49-.66,2.69,2.69,0,0,1,1.32-.25,2.49,2.49,0,0,1,1.18.22,1,1,0,0,1,.49.51,1.73,1.73,0,0,1,.11.56.75.75,0,0,0,.05.36l-.15.48a1.43,1.43,0,0,1,.39-.76,3.35,3.35,0,0,1,.85-.7,4.73,4.73,0,0,1,1.1-.49,3.93,3.93,0,0,1,1.16-.17,4.9,4.9,0,0,1,2.14.44,4.29,4.29,0,0,1,1.58,1.26,5.83,5.83,0,0,1,1,1.94,8.49,8.49,0,0,1,.34,2.43V33a5.43,5.43,0,0,1-.08.92,1,1,0,0,1-.48.68,2.57,2.57,0,0,1-1.34.25,2.45,2.45,0,0,1-1.32-.26,1.08,1.08,0,0,1-.49-.7,4.53,4.53,0,0,1-.09-.91V28.46a2.74,2.74,0,0,0-.27-1.27,1.76,1.76,0,0,0-.75-.8,2.33,2.33,0,0,0-1.21-.28,2.59,2.59,0,0,0-1.25.29,2,2,0,0,0-.81.81,2.59,2.59,0,0,0-.29,1.25V33a4.46,4.46,0,0,1-.09.91,1.06,1.06,0,0,1-.48.69A2.47,2.47,0,0,1,203.48,34.86Z"/><path class="cls-3" d="M222.18,35a2.41,2.41,0,0,1-1-.23,1.45,1.45,0,0,1-.66-.7l-4.49-9a2,2,0,0,1-.26-1.49,2,2,0,0,1,1.13-1.06,2.43,2.43,0,0,1,1.52-.31c.37.09.71.49,1,1.19l2.79,6.5L225,23.5c.3-.72.64-1.14,1-1.25a2.21,2.21,0,0,1,1.56.32c.69.32,1.07.69,1.14,1.12a2.32,2.32,0,0,1-.31,1.46l-4.48,8.92a1.48,1.48,0,0,1-.65.7A2.33,2.33,0,0,1,222.18,35Z"/><path class="cls-3" d="M237,35.13a7.12,7.12,0,0,1-3-.58A5.84,5.84,0,0,1,231.91,33a6.43,6.43,0,0,1-1.2-2.09,6.88,6.88,0,0,1-.4-2.3,6.38,6.38,0,0,1,.85-3.32A6.14,6.14,0,0,1,233.53,23,7,7,0,0,1,237,22.2a6.21,6.21,0,0,1,2.51.47,5.23,5.23,0,0,1,1.75,1.2,4.89,4.89,0,0,1,1,1.59,4.28,4.28,0,0,1,.34,1.62,2.82,2.82,0,0,1-.66,2.05,2.29,2.29,0,0,1-1.69.68h-5.95a1.77,1.77,0,0,0,.46,1.08,2.85,2.85,0,0,0,1,.7,3.48,3.48,0,0,0,1.32.25,8.1,8.1,0,0,0,1-.06,3.7,3.7,0,0,0,.79-.18l.59-.22a4.32,4.32,0,0,1,.48-.19,2.63,2.63,0,0,1,.43-.1,1,1,0,0,1,.67.21,2.06,2.06,0,0,1,.58.72,2,2,0,0,1,.24.52,2.2,2.2,0,0,1,.06.5,1.36,1.36,0,0,1-.61,1.09,4.74,4.74,0,0,1-1.73.73A11,11,0,0,1,237,35.13Zm-2.67-7.4h3.95a1.06,1.06,0,0,0,.58-.14.62.62,0,0,0,.2-.54,1.24,1.24,0,0,0-.28-.77,1.8,1.8,0,0,0-.74-.54,2.94,2.94,0,0,0-1.08-.19,3,3,0,0,0-1.35.3,2.39,2.39,0,0,0-.94.8A1.87,1.87,0,0,0,234.31,27.73Z"/><path class="cls-3" d="M246.58,34.91a2.48,2.48,0,0,1-1.31-.26,1.11,1.11,0,0,1-.48-.72,5.62,5.62,0,0,1-.08-.92V24.28a4.42,4.42,0,0,1,.09-.92,1.06,1.06,0,0,1,.49-.69,2.54,2.54,0,0,1,1.32-.26,2.52,2.52,0,0,1,1.27.24,1,1,0,0,1,.48.55,1.68,1.68,0,0,1,.1.54l-.3.15a3.45,3.45,0,0,1,.26-.37A4.66,4.66,0,0,1,249,23a3.46,3.46,0,0,1,.92-.48,3.34,3.34,0,0,1,1.23-.2,4.7,4.7,0,0,1,.62,0,3.26,3.26,0,0,1,.7.15,2.47,2.47,0,0,1,.66.3,1.54,1.54,0,0,1,.49.46,1.2,1.2,0,0,1,.18.67,3.09,3.09,0,0,1-.47,1.74,1.4,1.4,0,0,1-1.2.71,2,2,0,0,1-.6-.06.87.87,0,0,1-.29-.15A1.1,1.1,0,0,0,251,26a1.72,1.72,0,0,0-.55-.06,2.46,2.46,0,0,0-.72.1,1.9,1.9,0,0,0-.62.31,1.6,1.6,0,0,0-.45.52,1.51,1.51,0,0,0-.16.71v5.48a4.46,4.46,0,0,1-.09.91,1.06,1.06,0,0,1-.48.69A2.6,2.6,0,0,1,246.58,34.91Z"/><path class="cls-3" d="M256.56,22.62h2.75l3.45-.1a4.29,4.29,0,0,1,.9.09,1.1,1.1,0,0,1,.7.48,2.37,2.37,0,0,1,.28,1.33,2.27,2.27,0,0,1-.27,1.25,1.11,1.11,0,0,1-.68.51,3.49,3.49,0,0,1-.93.11l-3.27-.07-3,0a1.26,1.26,0,0,1-1-.46,2.55,2.55,0,0,1-.29-1.39,2.15,2.15,0,0,1,.35-1.34A1.25,1.25,0,0,1,256.56,22.62Zm5.65,12.3a7.5,7.5,0,0,1-2.2-.28,3.63,3.63,0,0,1-1.52-.85,3.5,3.5,0,0,1-.87-1.46,6.94,6.94,0,0,1-.29-2.11V20.09a4.15,4.15,0,0,1,.09-.92,1.07,1.07,0,0,1,.49-.67,2.48,2.48,0,0,1,1.3-.26,2.3,2.3,0,0,1,1.3.28,1.12,1.12,0,0,1,.48.71,4.53,4.53,0,0,1,.09.91v9.93a2.52,2.52,0,0,0,.07.66.79.79,0,0,0,.18.39.72.72,0,0,0,.35.17,2.24,2.24,0,0,0,.55.05,4.77,4.77,0,0,1,1,.1,1.1,1.1,0,0,1,.66.45,2.19,2.19,0,0,1,.24,1.18,2.39,2.39,0,0,1-.28,1.3,1,1,0,0,1-.71.47A5.4,5.4,0,0,1,262.21,34.92Z"/><path class="cls-3" d="M268.56,20.62a2.53,2.53,0,0,1-1.35-.27,1.16,1.16,0,0,1-.48-.73,4.86,4.86,0,0,1-.09-.95,4.75,4.75,0,0,1,.09-1,1,1,0,0,1,.5-.7,2.59,2.59,0,0,1,1.36-.26,2.47,2.47,0,0,1,1.33.27,1.16,1.16,0,0,1,.48.73,4.92,4.92,0,0,1,.09,1,4.73,4.73,0,0,1-.09.93,1.07,1.07,0,0,1-.48.71A2.56,2.56,0,0,1,268.56,20.62Zm0,14.3a2.59,2.59,0,0,1-1.33-.26,1,1,0,0,1-.47-.7,5.4,5.4,0,0,1-.08-.91V24.32a5.31,5.31,0,0,1,.08-.91,1.09,1.09,0,0,1,.49-.7,2.49,2.49,0,0,1,1.33-.26,2.34,2.34,0,0,1,1.29.27,1.17,1.17,0,0,1,.47.72,4.59,4.59,0,0,1,.09.93v8.7a4.63,4.63,0,0,1-.09.92,1,1,0,0,1-.47.68A2.52,2.52,0,0,1,268.56,34.92Z"/><path class="cls-3" d="M278.46,34.9a4.93,4.93,0,0,1-2.18-.49,5.83,5.83,0,0,1-1.82-1.36,6.61,6.61,0,0,1-1.73-4.42,6.19,6.19,0,0,1,.47-2.34A6.41,6.41,0,0,1,276.31,23a4.91,4.91,0,0,1,2.15-.5,4.29,4.29,0,0,1,3.64,1.83,6.48,6.48,0,0,1,.94,2,9.07,9.07,0,0,1,.34,2.35,9.28,9.28,0,0,1-.3,2.4,6.16,6.16,0,0,1-.92,2,4.67,4.67,0,0,1-1.55,1.39A4.41,4.41,0,0,1,278.46,34.9Zm.5-3.7a2.27,2.27,0,0,0,1.21-.33,2.74,2.74,0,0,0,.88-.91,2.54,2.54,0,0,0,.33-1.28,2.41,2.41,0,0,0-.32-1.26,2.5,2.5,0,0,0-.87-.9,2.32,2.32,0,0,0-1.25-.34,2.49,2.49,0,0,0-1.24.32,2.31,2.31,0,0,0-.88.9,2.63,2.63,0,0,0-.31,1.28,2.6,2.6,0,0,0,.32,1.27,2.48,2.48,0,0,0,.9.92A2.44,2.44,0,0,0,279,31.2Zm4.35,3.73a2.38,2.38,0,0,1-1.27-.27,1.32,1.32,0,0,1-.53-.85V18.66a6.74,6.74,0,0,1,.07-.92A1,1,0,0,1,282,17a2.24,2.24,0,0,1,1.27-.27,2.42,2.42,0,0,1,1.33.26,1.11,1.11,0,0,1,.47.69,3.82,3.82,0,0,1,.1.92V33a4.46,4.46,0,0,1-.09.91,1.09,1.09,0,0,1-.47.72A2.39,2.39,0,0,1,283.31,34.93Z"/><path class="cls-3" d="M293.71,35.14a6.22,6.22,0,0,1-2.34-.47,6.72,6.72,0,0,1-2.11-1.31,6.24,6.24,0,0,1-1.51-2,6,6,0,0,1-.57-2.64,6.2,6.2,0,0,1,.52-2.51,6.78,6.78,0,0,1,3.47-3.47,6.16,6.16,0,0,1,2.49-.51,6.33,6.33,0,0,1,3.26.86,6.56,6.56,0,0,1,2.34,2.34,6.27,6.27,0,0,1,.87,3.28,6.2,6.2,0,0,1-.56,2.71A6.5,6.5,0,0,1,296,34.7,6.36,6.36,0,0,1,293.71,35.14Zm0-3.78a2.78,2.78,0,0,0,1.22-.3,2.67,2.67,0,0,0,1.05-.9,2.51,2.51,0,0,0,.43-1.52,2.77,2.77,0,0,0-.35-1.4,2.48,2.48,0,0,0-1-.94,2.94,2.94,0,0,0-1.41-.34,2.6,2.6,0,0,0-1.34.35,2.73,2.73,0,0,0-.95,1,2.7,2.7,0,0,0-.37,1.39,2.61,2.61,0,0,0,.42,1.51,2.47,2.47,0,0,0,1,.9A2.83,2.83,0,0,0,293.66,31.36Z"/><path class="cls-2" d="M124.81,34.84a2.27,2.27,0,0,1-1.3-.29,1.21,1.21,0,0,1-.5-.75,4.37,4.37,0,0,1-.1-1V19.29a4,4,0,0,1,.1-.94,1.18,1.18,0,0,1,.5-.73,2.35,2.35,0,0,1,1.32-.28H131a5,5,0,0,1,2.65.71,5.4,5.4,0,0,1,1.83,1.88,4.86,4.86,0,0,1,.65,2.54,4.47,4.47,0,0,1-.1,1.09,5.09,5.09,0,0,1-.37,1,5,5,0,0,1-.59.9,4.36,4.36,0,0,1,.88,1.11,5.94,5.94,0,0,1,.53,1.34,5.23,5.23,0,0,1,.19,1.42,6.05,6.05,0,0,1-.45,2.17,5.36,5.36,0,0,1-1.16,1.74,5.64,5.64,0,0,1-1.72,1.17,5.25,5.25,0,0,1-2.1.42Zm1.93-3.78H131a2.5,2.5,0,0,0,.88-.17,1.48,1.48,0,0,0,.72-.6,2.34,2.34,0,0,0,.27-1.23,2.68,2.68,0,0,0-.12-.87,1.47,1.47,0,0,0-.34-.53,1.05,1.05,0,0,0-.49-.28,3.39,3.39,0,0,0-.57-.1l-.58,0h-.72a1.62,1.62,0,0,1-1.2-.36,1.81,1.81,0,0,1-.35-1.26,1.62,1.62,0,0,1,.39-1.23,1.84,1.84,0,0,1,1.24-.35h.72a3.21,3.21,0,0,0,.53,0,1.23,1.23,0,0,0,.48-.15.9.9,0,0,0,.35-.41,1.9,1.9,0,0,0,.14-.79,1.51,1.51,0,0,0-.42-1.21,2.51,2.51,0,0,0-1.53-.37h-3.7Z"/><path class="cls-2" d="M144.33,34.82a5.24,5.24,0,0,1-2.17-.45,5.33,5.33,0,0,1-1.75-1.26,5.69,5.69,0,0,1-1.16-1.93,6.83,6.83,0,0,1-.41-2.44V24.22a4.59,4.59,0,0,1,.09-.93,1.13,1.13,0,0,1,.49-.7,2.41,2.41,0,0,1,1.32-.27,2.27,2.27,0,0,1,1.31.28,1.12,1.12,0,0,1,.48.71,5.49,5.49,0,0,1,.08.94v4.5a2.92,2.92,0,0,0,.26,1.26,1.8,1.8,0,0,0,.78.81,2.43,2.43,0,0,0,1.21.28,2.53,2.53,0,0,0,1.24-.29,2,2,0,0,0,.8-.81,2.59,2.59,0,0,0,.29-1.25V24.2a4.59,4.59,0,0,1,.09-.93,1,1,0,0,1,.49-.68,2.42,2.42,0,0,1,1.32-.26,2.37,2.37,0,0,1,1.31.27,1.15,1.15,0,0,1,.48.71,4.63,4.63,0,0,1,.08.92V33a4.1,4.1,0,0,1-.09.88,1,1,0,0,1-.49.67,2.61,2.61,0,0,1-1.3.25,2.69,2.69,0,0,1-1.05-.16,1.21,1.21,0,0,1-.55-.37,1.16,1.16,0,0,1-.21-.47,4.14,4.14,0,0,1,0-.45l.33-.28a3.06,3.06,0,0,1-.33.39,5.22,5.22,0,0,1-.66.57,4.21,4.21,0,0,1-1,.54A3.37,3.37,0,0,1,144.33,34.82Z"/><path class="cls-2" d="M159.63,35a6.37,6.37,0,0,1-2.23-.42,6.92,6.92,0,0,1-2.1-1.21,5.8,5.8,0,0,1-1.54-2,6.35,6.35,0,0,1-.57-2.75,6.2,6.2,0,0,1,.57-2.73,6.11,6.11,0,0,1,1.53-2,6.75,6.75,0,0,1,2.09-1.21,6.33,6.33,0,0,1,2.21-.41,6,6,0,0,1,1.66.21,5.41,5.41,0,0,1,1.25.51,3.87,3.87,0,0,1,.74.53,8.35,8.35,0,0,1,.75.65,1.05,1.05,0,0,1,.3.85,1.59,1.59,0,0,1-.18.56,4.36,4.36,0,0,1-.37.59c-.52.7-1,1-1.5.95a2.58,2.58,0,0,1-.69-.25l-.6-.35a4.37,4.37,0,0,0-.61-.31,1.79,1.79,0,0,0-.75-.14,2.54,2.54,0,0,0-1.3.33,2.64,2.64,0,0,0-.92.9,2.77,2.77,0,0,0,0,2.62,2.7,2.7,0,0,0,.9.91,2.49,2.49,0,0,0,1.27.34,2.72,2.72,0,0,0,.72-.1,2.59,2.59,0,0,0,.55-.24l.35-.21a5.41,5.41,0,0,1,.58-.36,1,1,0,0,1,.55-.17,1.2,1.2,0,0,1,.73.27,4,4,0,0,1,.81.83,2,2,0,0,1,.49,1,1.22,1.22,0,0,1-.21.86,2.66,2.66,0,0,1-.85.76,4.05,4.05,0,0,1-.71.45,6.77,6.77,0,0,1-1.25.5A5.76,5.76,0,0,1,159.63,35Z"/><path class="cls-2" d="M171.38,34.86a14.14,14.14,0,0,1-1.82-.1,3.64,3.64,0,0,1-1.35-.4,2.42,2.42,0,0,1-.9-.84,4,4,0,0,1-.53-1.37,10.88,10.88,0,0,1-.17-2.06V18.54a3.84,3.84,0,0,1,.1-.93,1.14,1.14,0,0,1,.49-.7,3.26,3.26,0,0,1,2.6,0,1.19,1.19,0,0,1,.48.7,4,4,0,0,1,.1.93V29.91a6.19,6.19,0,0,0,0,.67,1,1,0,0,0,.15.41.54.54,0,0,0,.32.2,2.34,2.34,0,0,0,.52,0,2.6,2.6,0,0,1,.61.07.89.89,0,0,1,.54.45,2.58,2.58,0,0,1,.22,1.25,2.76,2.76,0,0,1-.22,1.3.88.88,0,0,1-.54.48A2.73,2.73,0,0,1,171.38,34.86Z"/><path class="cls-2" d="M180.81,35.09a7.33,7.33,0,0,1-3-.57A6,6,0,0,1,175.73,33a6.36,6.36,0,0,1-1.19-2.08,6.92,6.92,0,0,1-.4-2.3,6.45,6.45,0,0,1,.85-3.33A6.18,6.18,0,0,1,177.35,23a7.12,7.12,0,0,1,3.47-.83,6.43,6.43,0,0,1,2.51.46,5.23,5.23,0,0,1,1.75,1.2,5.3,5.3,0,0,1,1,1.59,4.33,4.33,0,0,1,.34,1.63,2.84,2.84,0,0,1-.67,2.05,2.25,2.25,0,0,1-1.69.67h-5.94a1.68,1.68,0,0,0,.46,1.07,2.69,2.69,0,0,0,1,.7,3.5,3.5,0,0,0,1.33.25,8.22,8.22,0,0,0,1-.06,4.18,4.18,0,0,0,.78-.17c.22-.08.42-.15.59-.23l.49-.18a1.78,1.78,0,0,1,.43-.1,1,1,0,0,1,.67.21,2,2,0,0,1,.57.71,1.75,1.75,0,0,1,.24.53,2.07,2.07,0,0,1,.06.5,1.32,1.32,0,0,1-.61,1.08,4.68,4.68,0,0,1-1.72.74A11.1,11.1,0,0,1,180.81,35.09Zm-2.67-7.4h4a1,1,0,0,0,.57-.14.62.62,0,0,0,.2-.54,1.23,1.23,0,0,0-.27-.77,1.7,1.7,0,0,0-.74-.54,2.8,2.8,0,0,0-1.09-.19,3,3,0,0,0-1.35.3,2.36,2.36,0,0,0-.93.8A1.84,1.84,0,0,0,178.14,27.69Z"/><path class="cls-2" d="M197.07,20.58a2.38,2.38,0,0,1-1.35-.28,1.09,1.09,0,0,1-.49-.72,4.86,4.86,0,0,1-.09-.95,4.75,4.75,0,0,1,.09-1,1.07,1.07,0,0,1,.5-.7,3.43,3.43,0,0,1,2.69,0,1.15,1.15,0,0,1,.49.73,5.86,5.86,0,0,1,.08,1,4.73,4.73,0,0,1-.09.93,1.09,1.09,0,0,1-.48.71A2.65,2.65,0,0,1,197.07,20.58Zm0,14.3a2.59,2.59,0,0,1-1.33-.26,1,1,0,0,1-.47-.7,5.52,5.52,0,0,1-.08-.92V24.28a4.46,4.46,0,0,1,.09-.91,1,1,0,0,1,.48-.7,2.47,2.47,0,0,1,1.33-.27,2.42,2.42,0,0,1,1.29.28,1.1,1.1,0,0,1,.47.71,4.69,4.69,0,0,1,.09.94V33a4.46,4.46,0,0,1-.09.91,1,1,0,0,1-.47.69A2.52,2.52,0,0,1,197.06,34.88Z"/><path class="cls-2" d="M203.48,34.86a2.39,2.39,0,0,1-1.31-.27,1.05,1.05,0,0,1-.48-.7,5.31,5.31,0,0,1-.08-.91v-8.8a4.26,4.26,0,0,1,.09-.89,1,1,0,0,1,.49-.66,2.69,2.69,0,0,1,1.32-.25,2.49,2.49,0,0,1,1.18.22,1,1,0,0,1,.49.51,1.73,1.73,0,0,1,.11.56.75.75,0,0,0,.05.36l-.15.48a1.43,1.43,0,0,1,.39-.76,3.35,3.35,0,0,1,.85-.7,4.73,4.73,0,0,1,1.1-.49,3.93,3.93,0,0,1,1.16-.17,4.9,4.9,0,0,1,2.14.44,4.29,4.29,0,0,1,1.58,1.26,5.83,5.83,0,0,1,1,1.94,8.49,8.49,0,0,1,.34,2.43V33a5.43,5.43,0,0,1-.08.92,1,1,0,0,1-.48.68,2.57,2.57,0,0,1-1.34.25,2.45,2.45,0,0,1-1.32-.26,1.08,1.08,0,0,1-.49-.7,4.53,4.53,0,0,1-.09-.91V28.46a2.74,2.74,0,0,0-.27-1.27,1.76,1.76,0,0,0-.75-.8,2.33,2.33,0,0,0-1.21-.28,2.59,2.59,0,0,0-1.25.29,2,2,0,0,0-.81.81,2.59,2.59,0,0,0-.29,1.25V33a4.46,4.46,0,0,1-.09.91,1.06,1.06,0,0,1-.48.69A2.47,2.47,0,0,1,203.48,34.86Z"/><path class="cls-2" d="M222.18,35a2.41,2.41,0,0,1-1-.23,1.45,1.45,0,0,1-.66-.7l-4.49-9a2,2,0,0,1-.26-1.49,2,2,0,0,1,1.13-1.06,2.43,2.43,0,0,1,1.52-.31c.37.09.71.49,1,1.19l2.79,6.5L225,23.5c.3-.72.64-1.14,1-1.25a2.21,2.21,0,0,1,1.56.32c.69.32,1.07.69,1.14,1.12a2.32,2.32,0,0,1-.31,1.46l-4.48,8.92a1.48,1.48,0,0,1-.65.7A2.33,2.33,0,0,1,222.18,35Z"/><path class="cls-2" d="M237,35.13a7.12,7.12,0,0,1-3-.58A5.84,5.84,0,0,1,231.91,33a6.43,6.43,0,0,1-1.2-2.09,6.88,6.88,0,0,1-.4-2.3,6.38,6.38,0,0,1,.85-3.32A6.14,6.14,0,0,1,233.53,23,7,7,0,0,1,237,22.2a6.21,6.21,0,0,1,2.51.47,5.23,5.23,0,0,1,1.75,1.2,4.89,4.89,0,0,1,1,1.59,4.28,4.28,0,0,1,.34,1.62,2.82,2.82,0,0,1-.66,2.05,2.29,2.29,0,0,1-1.69.68h-5.95a1.77,1.77,0,0,0,.46,1.08,2.85,2.85,0,0,0,1,.7,3.48,3.48,0,0,0,1.32.25,8.1,8.1,0,0,0,1-.06,3.7,3.7,0,0,0,.79-.18l.59-.22a4.32,4.32,0,0,1,.48-.19,2.63,2.63,0,0,1,.43-.1,1,1,0,0,1,.67.21,2.06,2.06,0,0,1,.58.72,2,2,0,0,1,.24.52,2.2,2.2,0,0,1,.06.5,1.36,1.36,0,0,1-.61,1.09,4.74,4.74,0,0,1-1.73.73A11,11,0,0,1,237,35.13Zm-2.67-7.4h3.95a1.06,1.06,0,0,0,.58-.14.62.62,0,0,0,.2-.54,1.24,1.24,0,0,0-.28-.77,1.8,1.8,0,0,0-.74-.54,2.94,2.94,0,0,0-1.08-.19,3,3,0,0,0-1.35.3,2.39,2.39,0,0,0-.94.8A1.87,1.87,0,0,0,234.31,27.73Z"/><path class="cls-2" d="M246.58,34.91a2.48,2.48,0,0,1-1.31-.26,1.11,1.11,0,0,1-.48-.72,5.62,5.62,0,0,1-.08-.92V24.28a4.42,4.42,0,0,1,.09-.92,1.06,1.06,0,0,1,.49-.69,2.54,2.54,0,0,1,1.32-.26,2.52,2.52,0,0,1,1.27.24,1,1,0,0,1,.48.55,1.68,1.68,0,0,1,.1.54l-.3.15a3.45,3.45,0,0,1,.26-.37A4.66,4.66,0,0,1,249,23a3.46,3.46,0,0,1,.92-.48,3.34,3.34,0,0,1,1.23-.2,4.7,4.7,0,0,1,.62,0,3.26,3.26,0,0,1,.7.15,2.47,2.47,0,0,1,.66.3,1.54,1.54,0,0,1,.49.46,1.2,1.2,0,0,1,.18.67,3.09,3.09,0,0,1-.47,1.74,1.4,1.4,0,0,1-1.2.71,2,2,0,0,1-.6-.06.87.87,0,0,1-.29-.15A1.1,1.1,0,0,0,251,26a1.72,1.72,0,0,0-.55-.06,2.46,2.46,0,0,0-.72.1,1.9,1.9,0,0,0-.62.31,1.6,1.6,0,0,0-.45.52,1.51,1.51,0,0,0-.16.71v5.48a4.46,4.46,0,0,1-.09.91,1.06,1.06,0,0,1-.48.69A2.6,2.6,0,0,1,246.58,34.91Z"/><path class="cls-2" d="M256.56,22.62h2.75l3.45-.1a4.29,4.29,0,0,1,.9.09,1.1,1.1,0,0,1,.7.48,2.37,2.37,0,0,1,.28,1.33,2.27,2.27,0,0,1-.27,1.25,1.11,1.11,0,0,1-.68.51,3.49,3.49,0,0,1-.93.11l-3.27-.07-3,0a1.26,1.26,0,0,1-1-.46,2.55,2.55,0,0,1-.29-1.39,2.15,2.15,0,0,1,.35-1.34A1.25,1.25,0,0,1,256.56,22.62Zm5.65,12.3a7.5,7.5,0,0,1-2.2-.28,3.63,3.63,0,0,1-1.52-.85,3.5,3.5,0,0,1-.87-1.46,6.94,6.94,0,0,1-.29-2.11V20.09a4.15,4.15,0,0,1,.09-.92,1.07,1.07,0,0,1,.49-.67,2.48,2.48,0,0,1,1.3-.26,2.3,2.3,0,0,1,1.3.28,1.12,1.12,0,0,1,.48.71,4.53,4.53,0,0,1,.09.91v9.93a2.52,2.52,0,0,0,.07.66.79.79,0,0,0,.18.39.72.72,0,0,0,.35.17,2.24,2.24,0,0,0,.55.05,4.77,4.77,0,0,1,1,.1,1.1,1.1,0,0,1,.66.45,2.19,2.19,0,0,1,.24,1.18,2.39,2.39,0,0,1-.28,1.3,1,1,0,0,1-.71.47A5.4,5.4,0,0,1,262.21,34.92Z"/><path class="cls-2" d="M268.56,20.62a2.53,2.53,0,0,1-1.35-.27,1.16,1.16,0,0,1-.48-.73,4.86,4.86,0,0,1-.09-.95,4.75,4.75,0,0,1,.09-1,1,1,0,0,1,.5-.7,2.59,2.59,0,0,1,1.36-.26,2.47,2.47,0,0,1,1.33.27,1.16,1.16,0,0,1,.48.73,4.92,4.92,0,0,1,.09,1,4.73,4.73,0,0,1-.09.93,1.07,1.07,0,0,1-.48.71A2.56,2.56,0,0,1,268.56,20.62Zm0,14.3a2.59,2.59,0,0,1-1.33-.26,1,1,0,0,1-.47-.7,5.4,5.4,0,0,1-.08-.91V24.32a5.31,5.31,0,0,1,.08-.91,1.09,1.09,0,0,1,.49-.7,2.49,2.49,0,0,1,1.33-.26,2.34,2.34,0,0,1,1.29.27,1.17,1.17,0,0,1,.47.72,4.59,4.59,0,0,1,.09.93v8.7a4.63,4.63,0,0,1-.09.92,1,1,0,0,1-.47.68A2.52,2.52,0,0,1,268.56,34.92Z"/><path class="cls-2" d="M278.46,34.9a4.93,4.93,0,0,1-2.18-.49,5.83,5.83,0,0,1-1.82-1.36,6.61,6.61,0,0,1-1.73-4.42,6.19,6.19,0,0,1,.47-2.34A6.41,6.41,0,0,1,276.31,23a4.91,4.91,0,0,1,2.15-.5,4.29,4.29,0,0,1,3.64,1.83,6.48,6.48,0,0,1,.94,2,9.07,9.07,0,0,1,.34,2.35,9.28,9.28,0,0,1-.3,2.4,6.16,6.16,0,0,1-.92,2,4.67,4.67,0,0,1-1.55,1.39A4.41,4.41,0,0,1,278.46,34.9Zm.5-3.7a2.27,2.27,0,0,0,1.21-.33,2.74,2.74,0,0,0,.88-.91,2.54,2.54,0,0,0,.33-1.28,2.41,2.41,0,0,0-.32-1.26,2.5,2.5,0,0,0-.87-.9,2.32,2.32,0,0,0-1.25-.34,2.49,2.49,0,0,0-1.24.32,2.31,2.31,0,0,0-.88.9,2.63,2.63,0,0,0-.31,1.28,2.6,2.6,0,0,0,.32,1.27,2.48,2.48,0,0,0,.9.92A2.44,2.44,0,0,0,279,31.2Zm4.35,3.73a2.38,2.38,0,0,1-1.27-.27,1.32,1.32,0,0,1-.53-.85V18.66a6.74,6.74,0,0,1,.07-.92A1,1,0,0,1,282,17a2.24,2.24,0,0,1,1.27-.27,2.42,2.42,0,0,1,1.33.26,1.11,1.11,0,0,1,.47.69,3.82,3.82,0,0,1,.1.92V33a4.46,4.46,0,0,1-.09.91,1.09,1.09,0,0,1-.47.72A2.39,2.39,0,0,1,283.31,34.93Z"/><path class="cls-2" d="M293.71,35.14a6.22,6.22,0,0,1-2.34-.47,6.72,6.72,0,0,1-2.11-1.31,6.24,6.24,0,0,1-1.51-2,6,6,0,0,1-.57-2.64,6.2,6.2,0,0,1,.52-2.51,6.78,6.78,0,0,1,3.47-3.47,6.16,6.16,0,0,1,2.49-.51,6.33,6.33,0,0,1,3.26.86,6.56,6.56,0,0,1,2.34,2.34,6.27,6.27,0,0,1,.87,3.28,6.2,6.2,0,0,1-.56,2.71A6.5,6.5,0,0,1,296,34.7,6.36,6.36,0,0,1,293.71,35.14Zm0-3.78a2.78,2.78,0,0,0,1.22-.3,2.67,2.67,0,0,0,1.05-.9,2.51,2.51,0,0,0,.43-1.52,2.77,2.77,0,0,0-.35-1.4,2.48,2.48,0,0,0-1-.94,2.94,2.94,0,0,0-1.41-.34,2.6,2.6,0,0,0-1.34.35,2.73,2.73,0,0,0-.95,1,2.7,2.7,0,0,0-.37,1.39,2.61,2.61,0,0,0,.42,1.51,2.47,2.47,0,0,0,1,.9A2.83,2.83,0,0,0,293.66,31.36Z"/><path class="cls-4" d="M53.27,23c0-1.37-1.23-2.06-3.7-2.06a19.62,19.62,0,0,0-2.1.15,19.23,19.23,0,0,1-1.94.15q-2.93,0-2.93-3.62t8.48-3.73q5.51,0,8.23,1.84A5.59,5.59,0,0,1,62,20.51a7.74,7.74,0,0,1-3.5,6.64,9.38,9.38,0,0,1,3.31,2.71,7.17,7.17,0,0,1,1,4,7.38,7.38,0,0,1-2.8,6,11.46,11.46,0,0,1-7.48,2.28q-5.87,0-8.41-1.23a4,4,0,0,1-2.54-3.76,3.92,3.92,0,0,1,.82-2.88,3.15,3.15,0,0,1,2.28-.78c.49,0,1.25.06,2.28.17s1.82.17,2.36.17q4.44,0,4.44-1.68a1.62,1.62,0,0,0-.85-1.58,8,8,0,0,0-3.22-.44,6.5,6.5,0,0,1-3.34-.63,2.56,2.56,0,0,1-1-2.35c0-1.73,1.11-2.6,3.34-2.6a17.73,17.73,0,0,0,3.2-.21c.69-.14,1.09-.3,1.2-.49A1.82,1.82,0,0,0,53.27,23Z"/><path class="cls-4" d="M65.4,39a2.78,2.78,0,0,1,1.16-2.31,5.4,5.4,0,0,1,3.28-.88c3,0,4.44,1.07,4.44,3.19a3.11,3.11,0,0,1-.57,2,2.69,2.69,0,0,1-1.51,1,9.11,9.11,0,0,1-2.36.26,6.13,6.13,0,0,1-3.18-.76A2.62,2.62,0,0,1,65.4,39Z"/><path class="cls-4" d="M90.21,41.85a4.22,4.22,0,0,1-3.5-1.36c-.74-.91-1.1-2.5-1.1-4.77H78.07a5.31,5.31,0,0,1-3.93-1.3,4.61,4.61,0,0,1-1.28-3.36A7.12,7.12,0,0,1,74,27.11q2.9-4.66,6.52-10.08a6.65,6.65,0,0,1,5.83-3.19l3.55,0c2,0,3.32.34,4,1A4.92,4.92,0,0,1,95,18.5V29.59a3.66,3.66,0,0,1,2.4.88A3.31,3.31,0,0,1,98,32.74a2.8,2.8,0,0,1-.7,2.2,4.07,4.07,0,0,1-2.36.74c0,2.21-.4,3.79-1.19,4.74A4.33,4.33,0,0,1,90.21,41.85Zm-4.63-12.1.13-8.94-5.47,8.94Z"/><path class="cls-5" d="M53.27,23c0-1.37-1.23-2.06-3.7-2.06a19.62,19.62,0,0,0-2.1.15,19.23,19.23,0,0,1-1.94.15q-2.93,0-2.93-3.62t8.48-3.73q5.51,0,8.23,1.84A5.59,5.59,0,0,1,62,20.51a7.74,7.74,0,0,1-3.5,6.64,9.38,9.38,0,0,1,3.31,2.71,7.17,7.17,0,0,1,1,4,7.38,7.38,0,0,1-2.8,6,11.46,11.46,0,0,1-7.48,2.28q-5.87,0-8.41-1.23a4,4,0,0,1-2.54-3.76,3.92,3.92,0,0,1,.82-2.88,3.15,3.15,0,0,1,2.28-.78c.49,0,1.25.06,2.28.17s1.82.17,2.36.17q4.44,0,4.44-1.68a1.62,1.62,0,0,0-.85-1.58,8,8,0,0,0-3.22-.44,6.5,6.5,0,0,1-3.34-.63,2.56,2.56,0,0,1-1-2.35c0-1.73,1.11-2.6,3.34-2.6a17.73,17.73,0,0,0,3.2-.21c.69-.14,1.09-.3,1.2-.49A1.82,1.82,0,0,0,53.27,23Z"/><path class="cls-5" d="M65.4,39a2.78,2.78,0,0,1,1.16-2.31,5.4,5.4,0,0,1,3.28-.88c3,0,4.44,1.07,4.44,3.19a3.11,3.11,0,0,1-.57,2,2.69,2.69,0,0,1-1.51,1,9.11,9.11,0,0,1-2.36.26,6.13,6.13,0,0,1-3.18-.76A2.62,2.62,0,0,1,65.4,39Z"/><path class="cls-5" d="M90.21,41.85a4.22,4.22,0,0,1-3.5-1.36c-.74-.91-1.1-2.5-1.1-4.77H78.07a5.31,5.31,0,0,1-3.93-1.3,4.61,4.61,0,0,1-1.28-3.36A7.12,7.12,0,0,1,74,27.11q2.9-4.66,6.52-10.08a6.65,6.65,0,0,1,5.83-3.19l3.55,0c2,0,3.32.34,4,1A4.92,4.92,0,0,1,95,18.5V29.59a3.66,3.66,0,0,1,2.4.88A3.31,3.31,0,0,1,98,32.74a2.8,2.8,0,0,1-.7,2.2,4.07,4.07,0,0,1-2.36.74c0,2.21-.4,3.79-1.19,4.74A4.33,4.33,0,0,1,90.21,41.85Zm-4.63-12.1.13-8.94-5.47,8.94Z"/></g></g></svg>