<svg xmlns="http://www.w3.org/2000/svg" viewBox="0 0 399.98 84.12"><defs><style>.cls-1{fill:#512573;}.cls-2{fill:#fff;}.cls-3,.cls-4{fill:none;stroke-width:5px;}.cls-3{stroke:#ff7300;stroke-linejoin:round;}.cls-4,.cls-5{font-size:42px;font-family:Coiny-Regular, Coiny;}.cls-4{stroke:#fff;}.cls-5{fill:#ff7300;}</style></defs><title>34tv</title><g id="Layer_2" data-name="Layer 2"><g id="pestaña_identificativa" data-name="pestaña identificativa"><rect class="cls-1" width="399.98" height="84.12" rx="32.4"/><path class="cls-2" d="M124.17,19.24a3.81,3.81,0,0,1,.78.08.92.92,0,0,1,.59.42,2.24,2.24,0,0,1,.22,1.15,2.18,2.18,0,0,1-.22,1.13.91.91,0,0,1-.6.42,4.09,4.09,0,0,1-.8.08h-4V34.89a4.29,4.29,0,0,1-.09.9,1.1,1.1,0,0,1-.48.69,2.55,2.55,0,0,1-1.34.26,2.33,2.33,0,0,1-1.27-.27,1,1,0,0,1-.49-.7,4.47,4.47,0,0,1-.08-.91V22.51h-4a3.31,3.31,0,0,1-.77-.09,1,1,0,0,1-.61-.42,2.06,2.06,0,0,1-.24-1.14,2.06,2.06,0,0,1,.24-1.13,1,1,0,0,1,.61-.42,3.94,3.94,0,0,1,.77-.08Z"/><path class="cls-2" d="M129.73,36.75a2.46,2.46,0,0,1-1.31-.27,1.07,1.07,0,0,1-.48-.71,4.73,4.73,0,0,1-.09-.93V26.12a4.59,4.59,0,0,1,.09-.93,1,1,0,0,1,.49-.68,2.33,2.33,0,0,1,1.32-.26,2.52,2.52,0,0,1,1.26.23,1.1,1.1,0,0,1,.49.55,1.73,1.73,0,0,1,.1.54l-.3.15a2.48,2.48,0,0,1,.26-.36,3.55,3.55,0,0,1,.59-.55,3.9,3.9,0,0,1,.91-.49,3.62,3.62,0,0,1,1.24-.2c.19,0,.39,0,.61,0a4.62,4.62,0,0,1,.7.15,3.16,3.16,0,0,1,.67.3,1.63,1.63,0,0,1,.48.46,1.16,1.16,0,0,1,.19.68,3.06,3.06,0,0,1-.48,1.74,1.4,1.4,0,0,1-1.2.71,2.11,2.11,0,0,1-.6-.06,1.77,1.77,0,0,1-.28-.15,1.17,1.17,0,0,0-.27-.15,1.36,1.36,0,0,0-.54-.07,2.84,2.84,0,0,0-.72.1,2.12,2.12,0,0,0-.62.31,1.53,1.53,0,0,0-.62,1.24V34.9a4.53,4.53,0,0,1-.09.91,1,1,0,0,1-.49.69A2.64,2.64,0,0,1,129.73,36.75Z"/><path class="cls-2" d="M149.13,36.73a2.42,2.42,0,0,1-1.38-.32.9.9,0,0,1-.42-.8l.25-.43a2.72,2.72,0,0,1-.57.61,4.25,4.25,0,0,1-2.78.94,5,5,0,0,1-2.19-.5,6.17,6.17,0,0,1-1.84-1.39,7.21,7.21,0,0,1-1.27-2,6.16,6.16,0,0,1,0-4.72,6.72,6.72,0,0,1,1.29-2,6.19,6.19,0,0,1,1.84-1.36,4.94,4.94,0,0,1,2.18-.5,4.05,4.05,0,0,1,2.66.88,3.18,3.18,0,0,1,.66.67l-.22-.35a1,1,0,0,1,.43-.91,2.44,2.44,0,0,1,1.39-.31,2.34,2.34,0,0,1,1.29.27,1.15,1.15,0,0,1,.47.73,4.79,4.79,0,0,1,.09.95v8.62a4.73,4.73,0,0,1-.09.93,1.07,1.07,0,0,1-.48.71A2.48,2.48,0,0,1,149.13,36.73ZM144.76,33a2.21,2.21,0,0,0,1.2-.33,2.56,2.56,0,0,0,1.17-2.19,2.62,2.62,0,0,0-.32-1.29,2.5,2.5,0,0,0-.88-.89,2.39,2.39,0,0,0-1.22-.32,2.33,2.33,0,0,0-1.26.34,2.38,2.38,0,0,0-.9.91,2.45,2.45,0,0,0-.34,1.3,2.36,2.36,0,0,0,.33,1.23,2.62,2.62,0,0,0,.93.91A2.58,2.58,0,0,0,144.76,33Z"/><path class="cls-2" d="M154.88,36.76a1.77,1.77,0,0,1-1.31-.54,1.81,1.81,0,0,1-.54-1.34,1.94,1.94,0,0,1,.55-1.35L159.26,28h-3.8a3.84,3.84,0,0,1-.91-.11,1.19,1.19,0,0,1-.73-.48,2.3,2.3,0,0,1-.29-1.32,2.37,2.37,0,0,1,.29-1.31,1.17,1.17,0,0,1,.73-.47,4.46,4.46,0,0,1,.91-.09h7.83a1.79,1.79,0,0,1,1.32.52,1.76,1.76,0,0,1,.52,1.33,2.17,2.17,0,0,1-.13.76,1.45,1.45,0,0,1-.39.59L159.06,33h4.52a4,4,0,0,1,.93.1,1.09,1.09,0,0,1,.68.5,2.39,2.39,0,0,1,.26,1.33,2.4,2.4,0,0,1-.27,1.3,1.07,1.07,0,0,1-.7.47,5.37,5.37,0,0,1-.93.08Z"/><path class="cls-2" d="M177.7,36.75a2.33,2.33,0,0,1-1.37-.33.91.91,0,0,1-.43-.8l.25-.42a3,3,0,0,1-.57.61,4.11,4.11,0,0,1-1.11.65,4.38,4.38,0,0,1-1.67.29,4.88,4.88,0,0,1-2.18-.51,5.86,5.86,0,0,1-1.84-1.38,7.18,7.18,0,0,1-1.27-2,6,6,0,0,1-.48-2.37,5.83,5.83,0,0,1,.48-2.34,6.72,6.72,0,0,1,1.29-2,6.27,6.27,0,0,1,1.84-1.37,4.89,4.89,0,0,1,2.17-.49,4.15,4.15,0,0,1,1.58.26,4.24,4.24,0,0,1,1.08.61,3.18,3.18,0,0,1,.66.68l-.22-.35a1,1,0,0,1,.44-.91,2.39,2.39,0,0,1,1.39-.32,2.29,2.29,0,0,1,1.28.28,1.11,1.11,0,0,1,.48.73,4.69,4.69,0,0,1,.09.94v8.63a4.81,4.81,0,0,1-.09.93,1.14,1.14,0,0,1-.47.71A2.52,2.52,0,0,1,177.7,36.75ZM173.33,33a2.13,2.13,0,0,0,1.2-.34,2.63,2.63,0,0,0,.85-3.47,2.32,2.32,0,0,0-.87-.89,2.55,2.55,0,0,0-2.49,0,2.7,2.7,0,0,0-.9.91,2.6,2.6,0,0,0-.34,1.3,2.31,2.31,0,0,0,.34,1.24,2.41,2.41,0,0,0,.92.9A2.49,2.49,0,0,0,173.33,33Z"/><path class="cls-2" d="M194.8,37a7.12,7.12,0,0,1-3-.58,5.84,5.84,0,0,1-2.06-1.51,6.61,6.61,0,0,1-1.2-2.09,6.88,6.88,0,0,1-.4-2.3,6.48,6.48,0,0,1,.85-3.32,6.14,6.14,0,0,1,2.37-2.29,7,7,0,0,1,3.46-.84,6.21,6.21,0,0,1,2.51.47,5.23,5.23,0,0,1,1.75,1.2,5.1,5.1,0,0,1,1,1.59,4.46,4.46,0,0,1,.33,1.62,2.82,2.82,0,0,1-.66,2.05,2.28,2.28,0,0,1-1.69.68h-6a1.77,1.77,0,0,0,.46,1.08,2.85,2.85,0,0,0,1,.7,3.5,3.5,0,0,0,1.33.25,8.05,8.05,0,0,0,1-.06,3.7,3.7,0,0,0,.79-.18c.22-.07.41-.15.59-.22s.34-.14.48-.19a2.89,2.89,0,0,1,.43-.1,1.11,1.11,0,0,1,.68.21,2.16,2.16,0,0,1,.57.72,1.71,1.71,0,0,1,.24.52,2.2,2.2,0,0,1,.06.5,1.36,1.36,0,0,1-.61,1.09,4.91,4.91,0,0,1-1.73.74A11.56,11.56,0,0,1,194.8,37Zm-2.67-7.4h4a1.06,1.06,0,0,0,.58-.14.61.61,0,0,0,.2-.53,1.19,1.19,0,0,0-.28-.78,1.84,1.84,0,0,0-.73-.54,3.2,3.2,0,0,0-2.44.11,2.47,2.47,0,0,0-.94.8A1.94,1.94,0,0,0,192.13,29.61Z"/><path class="cls-2" d="M207.33,36.79a14.3,14.3,0,0,1-1.83-.1,3.9,3.9,0,0,1-1.35-.4,2.58,2.58,0,0,1-.9-.84,3.92,3.92,0,0,1-.52-1.37,10.15,10.15,0,0,1-.17-2.07V20.46a4.4,4.4,0,0,1,.1-.92,1.18,1.18,0,0,1,.49-.7,2.38,2.38,0,0,1,1.31-.28,2.42,2.42,0,0,1,1.29.28,1.18,1.18,0,0,1,.49.7,4.42,4.42,0,0,1,.1.93V31.84a4,4,0,0,0,0,.66.8.8,0,0,0,.15.42.56.56,0,0,0,.31.2,2.4,2.4,0,0,0,.52.05,2.68,2.68,0,0,1,.62.07.91.91,0,0,1,.54.45,2.7,2.7,0,0,1,.22,1.25,2.76,2.76,0,0,1-.23,1.3.89.89,0,0,1-.53.48A2.79,2.79,0,0,1,207.33,36.79Z"/><path class="cls-2" d="M219,36.77a2.41,2.41,0,0,1-1.31-.26,1,1,0,0,1-.47-.7,4.53,4.53,0,0,1-.09-.91V26.1a4.19,4.19,0,0,1,.09-.89,1,1,0,0,1,.49-.66A2.6,2.6,0,0,1,219,24.3a2.49,2.49,0,0,1,1.17.21,1,1,0,0,1,.49.51,1.74,1.74,0,0,1,.11.57,1,1,0,0,0,.05.36l-.15.47a1.43,1.43,0,0,1,.39-.76,3.53,3.53,0,0,1,.85-.7,4.32,4.32,0,0,1,1.1-.48,4,4,0,0,1,1.16-.18,5.05,5.05,0,0,1,2.14.44A4.29,4.29,0,0,1,227.88,26a5.65,5.65,0,0,1,1,1.94,8.56,8.56,0,0,1,.34,2.44v4.55a5.31,5.31,0,0,1-.08.91,1.06,1.06,0,0,1-.48.69,2.57,2.57,0,0,1-1.34.25,2.54,2.54,0,0,1-1.32-.26,1.07,1.07,0,0,1-.49-.71,4.46,4.46,0,0,1-.09-.91V30.38a2.78,2.78,0,0,0-.27-1.28,1.85,1.85,0,0,0-.74-.8,2.5,2.5,0,0,0-1.22-.27,2.59,2.59,0,0,0-1.25.28,2,2,0,0,0-.81.81,2.59,2.59,0,0,0-.29,1.25v4.56a4.53,4.53,0,0,1-.09.91,1,1,0,0,1-.48.68A2.47,2.47,0,0,1,219,36.77Z"/><path class="cls-2" d="M237,36.78a5.25,5.25,0,0,1-2.18-.45,5.43,5.43,0,0,1-1.75-1.26,5.75,5.75,0,0,1-1.16-1.93,7,7,0,0,1-.41-2.43V26.18a4.42,4.42,0,0,1,.09-.92,1.08,1.08,0,0,1,.49-.7,2.35,2.35,0,0,1,1.32-.28,2.31,2.31,0,0,1,1.32.28,1.1,1.1,0,0,1,.47.71,4.69,4.69,0,0,1,.09.94v4.5a2.78,2.78,0,0,0,.26,1.26,1.73,1.73,0,0,0,.77.81,2.46,2.46,0,0,0,1.21.28,2.5,2.5,0,0,0,1.24-.29,2,2,0,0,0,.8-.81,2.59,2.59,0,0,0,.29-1.25V26.16a4.42,4.42,0,0,1,.09-.92,1,1,0,0,1,.49-.69,2.47,2.47,0,0,1,1.32-.26,2.41,2.41,0,0,1,1.32.27,1.13,1.13,0,0,1,.47.72,4.46,4.46,0,0,1,.09.91V35a5,5,0,0,1-.08.89,1.06,1.06,0,0,1-.49.66,2.63,2.63,0,0,1-1.3.25,2.92,2.92,0,0,1-1.05-.15,1.25,1.25,0,0,1-.55-.38.94.94,0,0,1-.21-.47,2.57,2.57,0,0,1,0-.45l.32-.28a3.74,3.74,0,0,1-.32.39,5.91,5.91,0,0,1-.66.57,4.28,4.28,0,0,1-1,.54A3.31,3.31,0,0,1,237,36.78Zm-.39-13.37a.85.85,0,0,1-.74-.25,2.63,2.63,0,0,1-.51-1,2,2,0,0,1-.1-1.3,1.36,1.36,0,0,1,.92-.68l4.4-1.34a.9.9,0,0,1,.73.28,2.53,2.53,0,0,1,.5,1,2,2,0,0,1,.09,1.28,1.34,1.34,0,0,1-.92.67Z"/><path class="cls-2" d="M248,36.82a2.36,2.36,0,0,1-1.3-.28,1.05,1.05,0,0,1-.48-.7,5.29,5.29,0,0,1-.07-.92V26.17a4.46,4.46,0,0,1,.09-.91,1,1,0,0,1,.49-.68,2.47,2.47,0,0,1,1.32-.26,2.06,2.06,0,0,1,1.35.36,1.47,1.47,0,0,1,.43,1.19l-.33.27a3,3,0,0,1,.3-.42,5.64,5.64,0,0,1,.65-.63,4.49,4.49,0,0,1,.94-.56,2.83,2.83,0,0,1,1.16-.24,4.31,4.31,0,0,1,1.49.24,3.82,3.82,0,0,1,1.2.7,4.43,4.43,0,0,1,.94,1.17,6.34,6.34,0,0,1,.85-1,4.93,4.93,0,0,1,1.17-.8,3.58,3.58,0,0,1,1.53-.32,4.15,4.15,0,0,1,2.49.74,4.51,4.51,0,0,1,1.53,2.11,9.38,9.38,0,0,1,.53,3.33V35a3.85,3.85,0,0,1-.1.91,1.09,1.09,0,0,1-.48.7,3.42,3.42,0,0,1-2.64,0,1,1,0,0,1-.48-.71,5.53,5.53,0,0,1-.07-.92V30.45a3.81,3.81,0,0,0-.19-1.29,1.75,1.75,0,0,0-.53-.82,1.35,1.35,0,0,0-.9-.29,1.71,1.71,0,0,0-1,.27,1.77,1.77,0,0,0-.6.8,3.92,3.92,0,0,0-.2,1.35V35a3.12,3.12,0,0,1-.13.93,1.16,1.16,0,0,1-.53.7,2.41,2.41,0,0,1-1.34.24,2.09,2.09,0,0,1-1.25-.29,1.12,1.12,0,0,1-.45-.72,5.35,5.35,0,0,1-.08-.89V30.44a4.21,4.21,0,0,0-.18-1.3,1.62,1.62,0,0,0-.52-.82,1.49,1.49,0,0,0-.93-.28,1.54,1.54,0,0,0-1,.33,1.78,1.78,0,0,0-.59.86,3.53,3.53,0,0,0-.19,1.21v4.5a4.52,4.52,0,0,1-.09.93,1,1,0,0,1-.49.68A2.43,2.43,0,0,1,248,36.82Z"/><path class="cls-2" d="M272.9,37.06a7.28,7.28,0,0,1-3-.58A5.84,5.84,0,0,1,267.83,35a6.53,6.53,0,0,1-1.2-2.09,6.92,6.92,0,0,1-.4-2.3,6.45,6.45,0,0,1,.85-3.33A6.12,6.12,0,0,1,269.45,25a7,7,0,0,1,3.46-.84,6.39,6.39,0,0,1,2.51.46,5.11,5.11,0,0,1,1.75,1.21,5,5,0,0,1,1,1.58,4.33,4.33,0,0,1,.34,1.63,2.82,2.82,0,0,1-.66,2,2.27,2.27,0,0,1-1.69.67h-5.95a1.74,1.74,0,0,0,.46,1.07,2.87,2.87,0,0,0,1,.71,3.68,3.68,0,0,0,1.32.25,6.54,6.54,0,0,0,1-.07,4.49,4.49,0,0,0,.79-.17l.59-.22a4.32,4.32,0,0,1,.48-.19,2.63,2.63,0,0,1,.43-.1,1,1,0,0,1,.67.21,2.11,2.11,0,0,1,.58.71,2,2,0,0,1,.24.53,2.14,2.14,0,0,1,.06.5,1.36,1.36,0,0,1-.61,1.09,4.91,4.91,0,0,1-1.73.73A11,11,0,0,1,272.9,37.06Zm-2.67-7.41h3.95a1.06,1.06,0,0,0,.58-.14A.62.62,0,0,0,275,29a1.24,1.24,0,0,0-.28-.77,1.64,1.64,0,0,0-.74-.54,2.74,2.74,0,0,0-1.08-.19,3,3,0,0,0-1.35.3,2.39,2.39,0,0,0-.94.8A1.84,1.84,0,0,0,270.23,29.65Z"/><path class="cls-2" d="M282.5,36.84a2.37,2.37,0,0,1-1.31-.27,1.07,1.07,0,0,1-.48-.71,5.62,5.62,0,0,1-.08-.92V26.21a4.42,4.42,0,0,1,.09-.92,1,1,0,0,1,.49-.69,2.47,2.47,0,0,1,1.32-.26,2.65,2.65,0,0,1,1.27.23,1.05,1.05,0,0,1,.48.56,1.63,1.63,0,0,1,.1.53l-.3.15a3.91,3.91,0,0,1,.27-.36,3.47,3.47,0,0,1,.58-.55,3.79,3.79,0,0,1,.92-.49,3.56,3.56,0,0,1,1.23-.2c.19,0,.39,0,.62,0a4.89,4.89,0,0,1,.7.15,3.32,3.32,0,0,1,.66.3,1.69,1.69,0,0,1,.49.47,1.17,1.17,0,0,1,.18.67,3.14,3.14,0,0,1-.47,1.74,1.42,1.42,0,0,1-1.2.71,2,2,0,0,1-.6-.06,1,1,0,0,1-.29-.15,1.1,1.1,0,0,0-.26-.15,1.65,1.65,0,0,0-.55-.07,2.84,2.84,0,0,0-.72.1,1.93,1.93,0,0,0-.62.32,1.45,1.45,0,0,0-.61,1.23V35a4.53,4.53,0,0,1-.09.91,1,1,0,0,1-.48.69A2.71,2.71,0,0,1,282.5,36.84Z"/><path class="cls-2" d="M297.7,37.05a6.3,6.3,0,0,1-2.34-.47,7,7,0,0,1-2.11-1.31,6.53,6.53,0,0,1-1.51-2,6.47,6.47,0,0,1-.05-5.15A6.83,6.83,0,0,1,293.11,26a6.75,6.75,0,0,1,2.06-1.41,6.13,6.13,0,0,1,2.49-.51,6.33,6.33,0,0,1,3.26.86,6.64,6.64,0,0,1,2.34,2.34,6.71,6.71,0,0,1,.31,6,6.5,6.5,0,0,1-1.5,2A6.57,6.57,0,0,1,300,36.61,6.38,6.38,0,0,1,297.7,37.05Zm-.05-3.78a2.85,2.85,0,0,0,1.23-.3,2.67,2.67,0,0,0,1.05-.9,2.6,2.6,0,0,0,.42-1.52,2.74,2.74,0,0,0-.34-1.4,2.5,2.5,0,0,0-1-.94,2.78,2.78,0,0,0-1.41-.34,2.63,2.63,0,0,0-1.34.35,2.73,2.73,0,0,0-1,1,2.93,2.93,0,0,0,.05,2.9,2.49,2.49,0,0,0,1,.9A2.9,2.9,0,0,0,297.65,33.27Z"/><path class="cls-2" d="M314.15,36.83a1.8,1.8,0,0,1-1.32-.59,1.84,1.84,0,0,1-.58-1.34,3.89,3.89,0,0,1,.09-.85,3.25,3.25,0,0,1,.28-.77,2.28,2.28,0,0,1,.48-.67,13.69,13.69,0,0,1,2-1.64c.72-.49,1.43-1,2.14-1.4s1.36-.88,1.95-1.32a6.34,6.34,0,0,0,1.41-1.43,2.87,2.87,0,0,0,.53-1.66,2.65,2.65,0,0,0-.21-1,1.8,1.8,0,0,0-.75-.85,2.86,2.86,0,0,0-1.54-.34,3.41,3.41,0,0,0-1.11.17,1.88,1.88,0,0,0-.8.53,2.13,2.13,0,0,0-.47.85,3.89,3.89,0,0,0-.15,1.12,5,5,0,0,1-.08.89,1,1,0,0,1-.49.66,2.66,2.66,0,0,1-1.35.25,2.33,2.33,0,0,1-1.34-.29,1.18,1.18,0,0,1-.48-.75,5.86,5.86,0,0,1-.08-.94,6.66,6.66,0,0,1,.42-2.33,6.19,6.19,0,0,1,1.26-2,6,6,0,0,1,2-1.41,6.4,6.4,0,0,1,2.65-.52,6.54,6.54,0,0,1,3.26.81,6.1,6.1,0,0,1,2.27,2.24,6.33,6.33,0,0,1,.84,3.28,5.3,5.3,0,0,1-.37,2,7.09,7.09,0,0,1-.93,1.69,8.78,8.78,0,0,1-1.29,1.36,14.71,14.71,0,0,1-1.44,1.06c-.48.31-.93.57-1.35.79l-1.05.55-.35,0h5.52a4.59,4.59,0,0,1,.94.1,1.14,1.14,0,0,1,.7.5A2.65,2.65,0,0,1,325.6,35a2.41,2.41,0,0,1-.27,1.29,1.12,1.12,0,0,1-.73.5,4.86,4.86,0,0,1-1,.09Z"/><path class="cls-2" d="M333.68,37.12a7.07,7.07,0,0,1-4.58-1.63,5.7,5.7,0,0,1-1.41-1.71,4.58,4.58,0,0,1-.54-2c0-.9.7-1.35,2.08-1.35a2.66,2.66,0,0,1,.91.12.92.92,0,0,1,.49.4,4.54,4.54,0,0,1,.37.81,2.34,2.34,0,0,0,.38.65,2.54,2.54,0,0,0,.85.71,2.94,2.94,0,0,0,1.47.32,3.83,3.83,0,0,0,1.47-.26,2.35,2.35,0,0,0,.95-.73,1.87,1.87,0,0,0,0-2.12,2.2,2.2,0,0,0-.9-.68,3.3,3.3,0,0,0-1.29-.24,5.69,5.69,0,0,1-1-.07,1.08,1.08,0,0,1-.71-.45,2.18,2.18,0,0,1-.28-1.28,2.21,2.21,0,0,1,.28-1.31,1.09,1.09,0,0,1,.72-.43,7.47,7.47,0,0,1,1-.06,3.57,3.57,0,0,0,1.12-.15,1.49,1.49,0,0,0,.69-.43,1.05,1.05,0,0,0,.24-.69,1.6,1.6,0,0,0-.26-.91A1.73,1.73,0,0,0,335,23a2.53,2.53,0,0,0-1.11-.22,3.39,3.39,0,0,0-1.09.16,1.92,1.92,0,0,0-.72.47,3.62,3.62,0,0,0-.52.65,1.72,1.72,0,0,1-1.06,1.06,2.25,2.25,0,0,1-1.59-.37,1.87,1.87,0,0,1-1-1.08,2,2,0,0,1,.26-1.39,2,2,0,0,0,.22-.39,5.14,5.14,0,0,1,.57-.8,5.63,5.63,0,0,1,1-.91,5.39,5.39,0,0,1,1.54-.75,7,7,0,0,1,2.17-.3,6.76,6.76,0,0,1,2.64.48,6,6,0,0,1,1.91,1.23,5,5,0,0,1,1.17,1.67,4.64,4.64,0,0,1,.4,1.88A3.42,3.42,0,0,1,338.76,27a3.32,3.32,0,0,1-.83.58,6.21,6.21,0,0,1,.79.54,4.33,4.33,0,0,1,.75.83,5.08,5.08,0,0,1,.56,1.09,3.66,3.66,0,0,1,.23,1.3,5.4,5.4,0,0,1-.86,3,5.8,5.8,0,0,1-2.34,2.06A7.4,7.4,0,0,1,333.68,37.12Z"/><path class="cls-3" d="M124.17,19.24a3.81,3.81,0,0,1,.78.08.92.92,0,0,1,.59.42,2.24,2.24,0,0,1,.22,1.15,2.18,2.18,0,0,1-.22,1.13.91.91,0,0,1-.6.42,4.09,4.09,0,0,1-.8.08h-4V34.89a4.29,4.29,0,0,1-.09.9,1.1,1.1,0,0,1-.48.69,2.55,2.55,0,0,1-1.34.26,2.33,2.33,0,0,1-1.27-.27,1,1,0,0,1-.49-.7,4.47,4.47,0,0,1-.08-.91V22.51h-4a3.31,3.31,0,0,1-.77-.09,1,1,0,0,1-.61-.42,2.06,2.06,0,0,1-.24-1.14,2.06,2.06,0,0,1,.24-1.13,1,1,0,0,1,.61-.42,3.94,3.94,0,0,1,.77-.08Z"/><path class="cls-3" d="M129.73,36.75a2.46,2.46,0,0,1-1.31-.27,1.07,1.07,0,0,1-.48-.71,4.73,4.73,0,0,1-.09-.93V26.12a4.59,4.59,0,0,1,.09-.93,1,1,0,0,1,.49-.68,2.33,2.33,0,0,1,1.32-.26,2.52,2.52,0,0,1,1.26.23,1.1,1.1,0,0,1,.49.55,1.73,1.73,0,0,1,.1.54l-.3.15a2.48,2.48,0,0,1,.26-.36,3.55,3.55,0,0,1,.59-.55,3.9,3.9,0,0,1,.91-.49,3.62,3.62,0,0,1,1.24-.2c.19,0,.39,0,.61,0a4.62,4.62,0,0,1,.7.15,3.16,3.16,0,0,1,.67.3,1.63,1.63,0,0,1,.48.46,1.16,1.16,0,0,1,.19.68,3.06,3.06,0,0,1-.48,1.74,1.4,1.4,0,0,1-1.2.71,2.11,2.11,0,0,1-.6-.06,1.77,1.77,0,0,1-.28-.15,1.17,1.17,0,0,0-.27-.15,1.36,1.36,0,0,0-.54-.07,2.84,2.84,0,0,0-.72.1,2.12,2.12,0,0,0-.62.31,1.53,1.53,0,0,0-.62,1.24V34.9a4.53,4.53,0,0,1-.09.91,1,1,0,0,1-.49.69A2.64,2.64,0,0,1,129.73,36.75Z"/><path class="cls-3" d="M149.13,36.73a2.42,2.42,0,0,1-1.38-.32.9.9,0,0,1-.42-.8l.25-.43a2.72,2.72,0,0,1-.57.61,4.25,4.25,0,0,1-2.78.94,5,5,0,0,1-2.19-.5,6.17,6.17,0,0,1-1.84-1.39,7.21,7.21,0,0,1-1.27-2,6.16,6.16,0,0,1,0-4.72,6.72,6.72,0,0,1,1.29-2,6.19,6.19,0,0,1,1.84-1.36,4.94,4.94,0,0,1,2.18-.5,4.05,4.05,0,0,1,2.66.88,3.18,3.18,0,0,1,.66.67l-.22-.35a1,1,0,0,1,.43-.91,2.44,2.44,0,0,1,1.39-.31,2.34,2.34,0,0,1,1.29.27,1.15,1.15,0,0,1,.47.73,4.79,4.79,0,0,1,.09.95v8.62a4.73,4.73,0,0,1-.09.93,1.07,1.07,0,0,1-.48.71A2.48,2.48,0,0,1,149.13,36.73ZM144.76,33a2.21,2.21,0,0,0,1.2-.33,2.56,2.56,0,0,0,1.17-2.19,2.62,2.62,0,0,0-.32-1.29,2.5,2.5,0,0,0-.88-.89,2.39,2.39,0,0,0-1.22-.32,2.33,2.33,0,0,0-1.26.34,2.38,2.38,0,0,0-.9.91,2.45,2.45,0,0,0-.34,1.3,2.36,2.36,0,0,0,.33,1.23,2.62,2.62,0,0,0,.93.91A2.58,2.58,0,0,0,144.76,33Z"/><path class="cls-3" d="M154.88,36.76a1.77,1.77,0,0,1-1.31-.54,1.81,1.81,0,0,1-.54-1.34,1.94,1.94,0,0,1,.55-1.35L159.26,28h-3.8a3.84,3.84,0,0,1-.91-.11,1.19,1.19,0,0,1-.73-.48,2.3,2.3,0,0,1-.29-1.32,2.37,2.37,0,0,1,.29-1.31,1.17,1.17,0,0,1,.73-.47,4.46,4.46,0,0,1,.91-.09h7.83a1.79,1.79,0,0,1,1.32.52,1.76,1.76,0,0,1,.52,1.33,2.17,2.17,0,0,1-.13.76,1.45,1.45,0,0,1-.39.59L159.06,33h4.52a4,4,0,0,1,.93.1,1.09,1.09,0,0,1,.68.5,2.39,2.39,0,0,1,.26,1.33,2.4,2.4,0,0,1-.27,1.3,1.07,1.07,0,0,1-.7.47,5.37,5.37,0,0,1-.93.08Z"/><path class="cls-3" d="M177.7,36.75a2.33,2.33,0,0,1-1.37-.33.91.91,0,0,1-.43-.8l.25-.42a3,3,0,0,1-.57.61,4.11,4.11,0,0,1-1.11.65,4.38,4.38,0,0,1-1.67.29,4.88,4.88,0,0,1-2.18-.51,5.86,5.86,0,0,1-1.84-1.38,7.18,7.18,0,0,1-1.27-2,6,6,0,0,1-.48-2.37,5.83,5.83,0,0,1,.48-2.34,6.72,6.72,0,0,1,1.29-2,6.27,6.27,0,0,1,1.84-1.37,4.89,4.89,0,0,1,2.17-.49,4.15,4.15,0,0,1,1.58.26,4.24,4.24,0,0,1,1.08.61,3.18,3.18,0,0,1,.66.68l-.22-.35a1,1,0,0,1,.44-.91,2.39,2.39,0,0,1,1.39-.32,2.29,2.29,0,0,1,1.28.28,1.11,1.11,0,0,1,.48.73,4.69,4.69,0,0,1,.09.94v8.63a4.81,4.81,0,0,1-.09.93,1.14,1.14,0,0,1-.47.71A2.52,2.52,0,0,1,177.7,36.75ZM173.33,33a2.13,2.13,0,0,0,1.2-.34,2.63,2.63,0,0,0,.85-3.47,2.32,2.32,0,0,0-.87-.89,2.55,2.55,0,0,0-2.49,0,2.7,2.7,0,0,0-.9.91,2.6,2.6,0,0,0-.34,1.3,2.31,2.31,0,0,0,.34,1.24,2.41,2.41,0,0,0,.92.9A2.49,2.49,0,0,0,173.33,33Z"/><path class="cls-3" d="M194.8,37a7.12,7.12,0,0,1-3-.58,5.84,5.84,0,0,1-2.06-1.51,6.61,6.61,0,0,1-1.2-2.09,6.88,6.88,0,0,1-.4-2.3,6.48,6.48,0,0,1,.85-3.32,6.14,6.14,0,0,1,2.37-2.29,7,7,0,0,1,3.46-.84,6.21,6.21,0,0,1,2.51.47,5.23,5.23,0,0,1,1.75,1.2,5.1,5.1,0,0,1,1,1.59,4.46,4.46,0,0,1,.33,1.62,2.82,2.82,0,0,1-.66,2.05,2.28,2.28,0,0,1-1.69.68h-6a1.77,1.77,0,0,0,.46,1.08,2.85,2.85,0,0,0,1,.7,3.5,3.5,0,0,0,1.33.25,8.05,8.05,0,0,0,1-.06,3.7,3.7,0,0,0,.79-.18c.22-.07.41-.15.59-.22s.34-.14.48-.19a2.89,2.89,0,0,1,.43-.1,1.11,1.11,0,0,1,.68.21,2.16,2.16,0,0,1,.57.72,1.71,1.71,0,0,1,.24.52,2.2,2.2,0,0,1,.06.5,1.36,1.36,0,0,1-.61,1.09,4.91,4.91,0,0,1-1.73.74A11.56,11.56,0,0,1,194.8,37Zm-2.67-7.4h4a1.06,1.06,0,0,0,.58-.14.61.61,0,0,0,.2-.53,1.19,1.19,0,0,0-.28-.78,1.84,1.84,0,0,0-.73-.54,3.2,3.2,0,0,0-2.44.11,2.47,2.47,0,0,0-.94.8A1.94,1.94,0,0,0,192.13,29.61Z"/><path class="cls-3" d="M207.33,36.79a14.3,14.3,0,0,1-1.83-.1,3.9,3.9,0,0,1-1.35-.4,2.58,2.58,0,0,1-.9-.84,3.92,3.92,0,0,1-.52-1.37,10.15,10.15,0,0,1-.17-2.07V20.46a4.4,4.4,0,0,1,.1-.92,1.18,1.18,0,0,1,.49-.7,2.38,2.38,0,0,1,1.31-.28,2.42,2.42,0,0,1,1.29.28,1.18,1.18,0,0,1,.49.7,4.42,4.42,0,0,1,.1.93V31.84a4,4,0,0,0,0,.66.8.8,0,0,0,.15.42.56.56,0,0,0,.31.2,2.4,2.4,0,0,0,.52.05,2.68,2.68,0,0,1,.62.07.91.91,0,0,1,.54.45,2.7,2.7,0,0,1,.22,1.25,2.76,2.76,0,0,1-.23,1.3.89.89,0,0,1-.53.48A2.79,2.79,0,0,1,207.33,36.79Z"/><path class="cls-3" d="M219,36.77a2.41,2.41,0,0,1-1.31-.26,1,1,0,0,1-.47-.7,4.53,4.53,0,0,1-.09-.91V26.1a4.19,4.19,0,0,1,.09-.89,1,1,0,0,1,.49-.66A2.6,2.6,0,0,1,219,24.3a2.49,2.49,0,0,1,1.17.21,1,1,0,0,1,.49.51,1.74,1.74,0,0,1,.11.57,1,1,0,0,0,.05.36l-.15.47a1.43,1.43,0,0,1,.39-.76,3.53,3.53,0,0,1,.85-.7,4.32,4.32,0,0,1,1.1-.48,4,4,0,0,1,1.16-.18,5.05,5.05,0,0,1,2.14.44A4.29,4.29,0,0,1,227.88,26a5.65,5.65,0,0,1,1,1.94,8.56,8.56,0,0,1,.34,2.44v4.55a5.31,5.31,0,0,1-.08.91,1.06,1.06,0,0,1-.48.69,2.57,2.57,0,0,1-1.34.25,2.54,2.54,0,0,1-1.32-.26,1.07,1.07,0,0,1-.49-.71,4.46,4.46,0,0,1-.09-.91V30.38a2.78,2.78,0,0,0-.27-1.28,1.85,1.85,0,0,0-.74-.8,2.5,2.5,0,0,0-1.22-.27,2.59,2.59,0,0,0-1.25.28,2,2,0,0,0-.81.81,2.59,2.59,0,0,0-.29,1.25v4.56a4.53,4.53,0,0,1-.09.91,1,1,0,0,1-.48.68A2.47,2.47,0,0,1,219,36.77Z"/><path class="cls-3" d="M237,36.78a5.25,5.25,0,0,1-2.18-.45,5.43,5.43,0,0,1-1.75-1.26,5.75,5.75,0,0,1-1.16-1.93,7,7,0,0,1-.41-2.43V26.18a4.42,4.42,0,0,1,.09-.92,1.08,1.08,0,0,1,.49-.7,2.35,2.35,0,0,1,1.32-.28,2.31,2.31,0,0,1,1.32.28,1.1,1.1,0,0,1,.47.71,4.69,4.69,0,0,1,.09.94v4.5a2.78,2.78,0,0,0,.26,1.26,1.73,1.73,0,0,0,.77.81,2.46,2.46,0,0,0,1.21.28,2.5,2.5,0,0,0,1.24-.29,2,2,0,0,0,.8-.81,2.59,2.59,0,0,0,.29-1.25V26.16a4.42,4.42,0,0,1,.09-.92,1,1,0,0,1,.49-.69,2.47,2.47,0,0,1,1.32-.26,2.41,2.41,0,0,1,1.32.27,1.13,1.13,0,0,1,.47.72,4.46,4.46,0,0,1,.09.91V35a5,5,0,0,1-.08.89,1.06,1.06,0,0,1-.49.66,2.63,2.63,0,0,1-1.3.25,2.92,2.92,0,0,1-1.05-.15,1.25,1.25,0,0,1-.55-.38.94.94,0,0,1-.21-.47,2.57,2.57,0,0,1,0-.45l.32-.28a3.74,3.74,0,0,1-.32.39,5.91,5.91,0,0,1-.66.57,4.28,4.28,0,0,1-1,.54A3.31,3.31,0,0,1,237,36.78Zm-.39-13.37a.85.85,0,0,1-.74-.25,2.63,2.63,0,0,1-.51-1,2,2,0,0,1-.1-1.3,1.36,1.36,0,0,1,.92-.68l4.4-1.34a.9.9,0,0,1,.73.28,2.53,2.53,0,0,1,.5,1,2,2,0,0,1,.09,1.28,1.34,1.34,0,0,1-.92.67Z"/><path class="cls-3" d="M248,36.82a2.36,2.36,0,0,1-1.3-.28,1.05,1.05,0,0,1-.48-.7,5.29,5.29,0,0,1-.07-.92V26.17a4.46,4.46,0,0,1,.09-.91,1,1,0,0,1,.49-.68,2.47,2.47,0,0,1,1.32-.26,2.06,2.06,0,0,1,1.35.36,1.47,1.47,0,0,1,.43,1.19l-.33.27a3,3,0,0,1,.3-.42,5.64,5.64,0,0,1,.65-.63,4.49,4.49,0,0,1,.94-.56,2.83,2.83,0,0,1,1.16-.24,4.31,4.31,0,0,1,1.49.24,3.82,3.82,0,0,1,1.2.7,4.43,4.43,0,0,1,.94,1.17,6.34,6.34,0,0,1,.85-1,4.93,4.93,0,0,1,1.17-.8,3.58,3.58,0,0,1,1.53-.32,4.15,4.15,0,0,1,2.49.74,4.51,4.51,0,0,1,1.53,2.11,9.38,9.38,0,0,1,.53,3.33V35a3.85,3.85,0,0,1-.1.91,1.09,1.09,0,0,1-.48.7,3.42,3.42,0,0,1-2.64,0,1,1,0,0,1-.48-.71,5.53,5.53,0,0,1-.07-.92V30.45a3.81,3.81,0,0,0-.19-1.29,1.75,1.75,0,0,0-.53-.82,1.35,1.35,0,0,0-.9-.29,1.71,1.71,0,0,0-1,.27,1.77,1.77,0,0,0-.6.8,3.92,3.92,0,0,0-.2,1.35V35a3.12,3.12,0,0,1-.13.93,1.16,1.16,0,0,1-.53.7,2.41,2.41,0,0,1-1.34.24,2.09,2.09,0,0,1-1.25-.29,1.12,1.12,0,0,1-.45-.72,5.35,5.35,0,0,1-.08-.89V30.44a4.21,4.21,0,0,0-.18-1.3,1.62,1.62,0,0,0-.52-.82,1.49,1.49,0,0,0-.93-.28,1.54,1.54,0,0,0-1,.33,1.78,1.78,0,0,0-.59.86,3.53,3.53,0,0,0-.19,1.21v4.5a4.52,4.52,0,0,1-.09.93,1,1,0,0,1-.49.68A2.43,2.43,0,0,1,248,36.82Z"/><path class="cls-3" d="M272.9,37.06a7.28,7.28,0,0,1-3-.58A5.84,5.84,0,0,1,267.83,35a6.53,6.53,0,0,1-1.2-2.09,6.92,6.92,0,0,1-.4-2.3,6.45,6.45,0,0,1,.85-3.33A6.12,6.12,0,0,1,269.45,25a7,7,0,0,1,3.46-.84,6.39,6.39,0,0,1,2.51.46,5.11,5.11,0,0,1,1.75,1.21,5,5,0,0,1,1,1.58,4.33,4.33,0,0,1,.34,1.63,2.82,2.82,0,0,1-.66,2,2.27,2.27,0,0,1-1.69.67h-5.95a1.74,1.74,0,0,0,.46,1.07,2.87,2.87,0,0,0,1,.71,3.68,3.68,0,0,0,1.32.25,6.54,6.54,0,0,0,1-.07,4.49,4.49,0,0,0,.79-.17l.59-.22a4.32,4.32,0,0,1,.48-.19,2.63,2.63,0,0,1,.43-.1,1,1,0,0,1,.67.21,2.11,2.11,0,0,1,.58.71,2,2,0,0,1,.24.53,2.14,2.14,0,0,1,.06.5,1.36,1.36,0,0,1-.61,1.09,4.91,4.91,0,0,1-1.73.73A11,11,0,0,1,272.9,37.06Zm-2.67-7.41h3.95a1.06,1.06,0,0,0,.58-.14A.62.62,0,0,0,275,29a1.24,1.24,0,0,0-.28-.77,1.64,1.64,0,0,0-.74-.54,2.74,2.74,0,0,0-1.08-.19,3,3,0,0,0-1.35.3,2.39,2.39,0,0,0-.94.8A1.84,1.84,0,0,0,270.23,29.65Z"/><path class="cls-3" d="M282.5,36.84a2.37,2.37,0,0,1-1.31-.27,1.07,1.07,0,0,1-.48-.71,5.62,5.62,0,0,1-.08-.92V26.21a4.42,4.42,0,0,1,.09-.92,1,1,0,0,1,.49-.69,2.47,2.47,0,0,1,1.32-.26,2.65,2.65,0,0,1,1.27.23,1.05,1.05,0,0,1,.48.56,1.63,1.63,0,0,1,.1.53l-.3.15a3.91,3.91,0,0,1,.27-.36,3.47,3.47,0,0,1,.58-.55,3.79,3.79,0,0,1,.92-.49,3.56,3.56,0,0,1,1.23-.2c.19,0,.39,0,.62,0a4.89,4.89,0,0,1,.7.15,3.32,3.32,0,0,1,.66.3,1.69,1.69,0,0,1,.49.47,1.17,1.17,0,0,1,.18.67,3.14,3.14,0,0,1-.47,1.74,1.42,1.42,0,0,1-1.2.71,2,2,0,0,1-.6-.06,1,1,0,0,1-.29-.15,1.1,1.1,0,0,0-.26-.15,1.65,1.65,0,0,0-.55-.07,2.84,2.84,0,0,0-.72.1,1.93,1.93,0,0,0-.62.32,1.45,1.45,0,0,0-.61,1.23V35a4.53,4.53,0,0,1-.09.91,1,1,0,0,1-.48.69A2.71,2.71,0,0,1,282.5,36.84Z"/><path class="cls-3" d="M297.7,37.05a6.3,6.3,0,0,1-2.34-.47,7,7,0,0,1-2.11-1.31,6.53,6.53,0,0,1-1.51-2,6.47,6.47,0,0,1-.05-5.15A6.83,6.83,0,0,1,293.11,26a6.75,6.75,0,0,1,2.06-1.41,6.13,6.13,0,0,1,2.49-.51,6.33,6.33,0,0,1,3.26.86,6.64,6.64,0,0,1,2.34,2.34,6.71,6.71,0,0,1,.31,6,6.5,6.5,0,0,1-1.5,2A6.57,6.57,0,0,1,300,36.61,6.38,6.38,0,0,1,297.7,37.05Zm-.05-3.78a2.85,2.85,0,0,0,1.23-.3,2.67,2.67,0,0,0,1.05-.9,2.6,2.6,0,0,0,.42-1.52,2.74,2.74,0,0,0-.34-1.4,2.5,2.5,0,0,0-1-.94,2.78,2.78,0,0,0-1.41-.34,2.63,2.63,0,0,0-1.34.35,2.73,2.73,0,0,0-1,1,2.93,2.93,0,0,0,.05,2.9,2.49,2.49,0,0,0,1,.9A2.9,2.9,0,0,0,297.65,33.27Z"/><path class="cls-3" d="M314.15,36.83a1.8,1.8,0,0,1-1.32-.59,1.84,1.84,0,0,1-.58-1.34,3.89,3.89,0,0,1,.09-.85,3.25,3.25,0,0,1,.28-.77,2.28,2.28,0,0,1,.48-.67,13.69,13.69,0,0,1,2-1.64c.72-.49,1.43-1,2.14-1.4s1.36-.88,1.95-1.32a6.34,6.34,0,0,0,1.41-1.43,2.87,2.87,0,0,0,.53-1.66,2.65,2.65,0,0,0-.21-1,1.8,1.8,0,0,0-.75-.85,2.86,2.86,0,0,0-1.54-.34,3.41,3.41,0,0,0-1.11.17,1.88,1.88,0,0,0-.8.53,2.13,2.13,0,0,0-.47.85,3.89,3.89,0,0,0-.15,1.12,5,5,0,0,1-.08.89,1,1,0,0,1-.49.66,2.66,2.66,0,0,1-1.35.25,2.33,2.33,0,0,1-1.34-.29,1.18,1.18,0,0,1-.48-.75,5.86,5.86,0,0,1-.08-.94,6.66,6.66,0,0,1,.42-2.33,6.19,6.19,0,0,1,1.26-2,6,6,0,0,1,2-1.41,6.4,6.4,0,0,1,2.65-.52,6.54,6.54,0,0,1,3.26.81,6.1,6.1,0,0,1,2.27,2.24,6.33,6.33,0,0,1,.84,3.28,5.3,5.3,0,0,1-.37,2,7.09,7.09,0,0,1-.93,1.69,8.78,8.78,0,0,1-1.29,1.36,14.71,14.71,0,0,1-1.44,1.06c-.48.31-.93.57-1.35.79l-1.05.55-.35,0h5.52a4.59,4.59,0,0,1,.94.1,1.14,1.14,0,0,1,.7.5A2.65,2.65,0,0,1,325.6,35a2.41,2.41,0,0,1-.27,1.29,1.12,1.12,0,0,1-.73.5,4.86,4.86,0,0,1-1,.09Z"/><path class="cls-3" d="M333.68,37.12a7.07,7.07,0,0,1-4.58-1.63,5.7,5.7,0,0,1-1.41-1.71,4.58,4.58,0,0,1-.54-2c0-.9.7-1.35,2.08-1.35a2.66,2.66,0,0,1,.91.12.92.92,0,0,1,.49.4,4.54,4.54,0,0,1,.37.81,2.34,2.34,0,0,0,.38.65,2.54,2.54,0,0,0,.85.71,2.94,2.94,0,0,0,1.47.32,3.83,3.83,0,0,0,1.47-.26,2.35,2.35,0,0,0,.95-.73,1.87,1.87,0,0,0,0-2.12,2.2,2.2,0,0,0-.9-.68,3.3,3.3,0,0,0-1.29-.24,5.69,5.69,0,0,1-1-.07,1.08,1.08,0,0,1-.71-.45,2.18,2.18,0,0,1-.28-1.28,2.21,2.21,0,0,1,.28-1.31,1.09,1.09,0,0,1,.72-.43,7.47,7.47,0,0,1,1-.06,3.57,3.57,0,0,0,1.12-.15,1.49,1.49,0,0,0,.69-.43,1.05,1.05,0,0,0,.24-.69,1.6,1.6,0,0,0-.26-.91A1.73,1.73,0,0,0,335,23a2.53,2.53,0,0,0-1.11-.22,3.39,3.39,0,0,0-1.09.16,1.92,1.92,0,0,0-.72.47,3.62,3.62,0,0,0-.52.65,1.72,1.72,0,0,1-1.06,1.06,2.25,2.25,0,0,1-1.59-.37,1.87,1.87,0,0,1-1-1.08,2,2,0,0,1,.26-1.39,2,2,0,0,0,.22-.39,5.14,5.14,0,0,1,.57-.8,5.63,5.63,0,0,1,1-.91,5.39,5.39,0,0,1,1.54-.75,7,7,0,0,1,2.17-.3,6.76,6.76,0,0,1,2.64.48,6,6,0,0,1,1.91,1.23,5,5,0,0,1,1.17,1.67,4.64,4.64,0,0,1,.4,1.88A3.42,3.42,0,0,1,338.76,27a3.32,3.32,0,0,1-.83.58,6.21,6.21,0,0,1,.79.54,4.33,4.33,0,0,1,.75.83,5.08,5.08,0,0,1,.56,1.09,3.66,3.66,0,0,1,.23,1.3,5.4,5.4,0,0,1-.86,3,5.8,5.8,0,0,1-2.34,2.06A7.4,7.4,0,0,1,333.68,37.12Z"/><path class="cls-2" d="M124.17,19.24a3.81,3.81,0,0,1,.78.08.92.92,0,0,1,.59.42,2.24,2.24,0,0,1,.22,1.15,2.18,2.18,0,0,1-.22,1.13.91.91,0,0,1-.6.42,4.09,4.09,0,0,1-.8.08h-4V34.89a4.29,4.29,0,0,1-.09.9,1.1,1.1,0,0,1-.48.69,2.55,2.55,0,0,1-1.34.26,2.33,2.33,0,0,1-1.27-.27,1,1,0,0,1-.49-.7,4.47,4.47,0,0,1-.08-.91V22.51h-4a3.31,3.31,0,0,1-.77-.09,1,1,0,0,1-.61-.42,2.06,2.06,0,0,1-.24-1.14,2.06,2.06,0,0,1,.24-1.13,1,1,0,0,1,.61-.42,3.94,3.94,0,0,1,.77-.08Z"/><path class="cls-2" d="M129.73,36.75a2.46,2.46,0,0,1-1.31-.27,1.07,1.07,0,0,1-.48-.71,4.73,4.73,0,0,1-.09-.93V26.12a4.59,4.59,0,0,1,.09-.93,1,1,0,0,1,.49-.68,2.33,2.33,0,0,1,1.32-.26,2.52,2.52,0,0,1,1.26.23,1.1,1.1,0,0,1,.49.55,1.73,1.73,0,0,1,.1.54l-.3.15a2.48,2.48,0,0,1,.26-.36,3.55,3.55,0,0,1,.59-.55,3.9,3.9,0,0,1,.91-.49,3.62,3.62,0,0,1,1.24-.2c.19,0,.39,0,.61,0a4.62,4.62,0,0,1,.7.15,3.16,3.16,0,0,1,.67.3,1.63,1.63,0,0,1,.48.46,1.16,1.16,0,0,1,.19.68,3.06,3.06,0,0,1-.48,1.74,1.4,1.4,0,0,1-1.2.71,2.11,2.11,0,0,1-.6-.06,1.77,1.77,0,0,1-.28-.15,1.17,1.17,0,0,0-.27-.15,1.36,1.36,0,0,0-.54-.07,2.84,2.84,0,0,0-.72.1,2.12,2.12,0,0,0-.62.31,1.53,1.53,0,0,0-.62,1.24V34.9a4.53,4.53,0,0,1-.09.91,1,1,0,0,1-.49.69A2.64,2.64,0,0,1,129.73,36.75Z"/><path class="cls-2" d="M149.13,36.73a2.42,2.42,0,0,1-1.38-.32.9.9,0,0,1-.42-.8l.25-.43a2.72,2.72,0,0,1-.57.61,4.25,4.25,0,0,1-2.78.94,5,5,0,0,1-2.19-.5,6.17,6.17,0,0,1-1.84-1.39,7.21,7.21,0,0,1-1.27-2,6.16,6.16,0,0,1,0-4.72,6.72,6.72,0,0,1,1.29-2,6.19,6.19,0,0,1,1.84-1.36,4.94,4.94,0,0,1,2.18-.5,4.05,4.05,0,0,1,2.66.88,3.18,3.18,0,0,1,.66.67l-.22-.35a1,1,0,0,1,.43-.91,2.44,2.44,0,0,1,1.39-.31,2.34,2.34,0,0,1,1.29.27,1.15,1.15,0,0,1,.47.73,4.79,4.79,0,0,1,.09.95v8.62a4.73,4.73,0,0,1-.09.93,1.07,1.07,0,0,1-.48.71A2.48,2.48,0,0,1,149.13,36.73ZM144.76,33a2.21,2.21,0,0,0,1.2-.33,2.56,2.56,0,0,0,1.17-2.19,2.62,2.62,0,0,0-.32-1.29,2.5,2.5,0,0,0-.88-.89,2.39,2.39,0,0,0-1.22-.32,2.33,2.33,0,0,0-1.26.34,2.38,2.38,0,0,0-.9.91,2.45,2.45,0,0,0-.34,1.3,2.36,2.36,0,0,0,.33,1.23,2.62,2.62,0,0,0,.93.91A2.58,2.58,0,0,0,144.76,33Z"/><path class="cls-2" d="M154.88,36.76a1.77,1.77,0,0,1-1.31-.54,1.81,1.81,0,0,1-.54-1.34,1.94,1.94,0,0,1,.55-1.35L159.26,28h-3.8a3.84,3.84,0,0,1-.91-.11,1.19,1.19,0,0,1-.73-.48,2.3,2.3,0,0,1-.29-1.32,2.37,2.37,0,0,1,.29-1.31,1.17,1.17,0,0,1,.73-.47,4.46,4.46,0,0,1,.91-.09h7.83a1.79,1.79,0,0,1,1.32.52,1.76,1.76,0,0,1,.52,1.33,2.17,2.17,0,0,1-.13.76,1.45,1.45,0,0,1-.39.59L159.06,33h4.52a4,4,0,0,1,.93.1,1.09,1.09,0,0,1,.68.5,2.39,2.39,0,0,1,.26,1.33,2.4,2.4,0,0,1-.27,1.3,1.07,1.07,0,0,1-.7.47,5.37,5.37,0,0,1-.93.08Z"/><path class="cls-2" d="M177.7,36.75a2.33,2.33,0,0,1-1.37-.33.91.91,0,0,1-.43-.8l.25-.42a3,3,0,0,1-.57.61,4.11,4.11,0,0,1-1.11.65,4.38,4.38,0,0,1-1.67.29,4.88,4.88,0,0,1-2.18-.51,5.86,5.86,0,0,1-1.84-1.38,7.18,7.18,0,0,1-1.27-2,6,6,0,0,1-.48-2.37,5.83,5.83,0,0,1,.48-2.34,6.72,6.72,0,0,1,1.29-2,6.27,6.27,0,0,1,1.84-1.37,4.89,4.89,0,0,1,2.17-.49,4.15,4.15,0,0,1,1.58.26,4.24,4.24,0,0,1,1.08.61,3.18,3.18,0,0,1,.66.68l-.22-.35a1,1,0,0,1,.44-.91,2.39,2.39,0,0,1,1.39-.32,2.29,2.29,0,0,1,1.28.28,1.11,1.11,0,0,1,.48.73,4.69,4.69,0,0,1,.09.94v8.63a4.81,4.81,0,0,1-.09.93,1.14,1.14,0,0,1-.47.71A2.52,2.52,0,0,1,177.7,36.75ZM173.33,33a2.13,2.13,0,0,0,1.2-.34,2.63,2.63,0,0,0,.85-3.47,2.32,2.32,0,0,0-.87-.89,2.55,2.55,0,0,0-2.49,0,2.7,2.7,0,0,0-.9.91,2.6,2.6,0,0,0-.34,1.3,2.31,2.31,0,0,0,.34,1.24,2.41,2.41,0,0,0,.92.9A2.49,2.49,0,0,0,173.33,33Z"/><path class="cls-2" d="M194.8,37a7.12,7.12,0,0,1-3-.58,5.84,5.84,0,0,1-2.06-1.51,6.61,6.61,0,0,1-1.2-2.09,6.88,6.88,0,0,1-.4-2.3,6.48,6.48,0,0,1,.85-3.32,6.14,6.14,0,0,1,2.37-2.29,7,7,0,0,1,3.46-.84,6.21,6.21,0,0,1,2.51.47,5.23,5.23,0,0,1,1.75,1.2,5.1,5.1,0,0,1,1,1.59,4.46,4.46,0,0,1,.33,1.62,2.82,2.82,0,0,1-.66,2.05,2.28,2.28,0,0,1-1.69.68h-6a1.77,1.77,0,0,0,.46,1.08,2.85,2.85,0,0,0,1,.7,3.5,3.5,0,0,0,1.33.25,8.05,8.05,0,0,0,1-.06,3.7,3.7,0,0,0,.79-.18c.22-.07.41-.15.59-.22s.34-.14.48-.19a2.89,2.89,0,0,1,.43-.1,1.11,1.11,0,0,1,.68.21,2.16,2.16,0,0,1,.57.72,1.71,1.71,0,0,1,.24.52,2.2,2.2,0,0,1,.06.5,1.36,1.36,0,0,1-.61,1.09,4.91,4.91,0,0,1-1.73.74A11.56,11.56,0,0,1,194.8,37Zm-2.67-7.4h4a1.06,1.06,0,0,0,.58-.14.61.61,0,0,0,.2-.53,1.19,1.19,0,0,0-.28-.78,1.84,1.84,0,0,0-.73-.54,3.2,3.2,0,0,0-2.44.11,2.47,2.47,0,0,0-.94.8A1.94,1.94,0,0,0,192.13,29.61Z"/><path class="cls-2" d="M207.33,36.79a14.3,14.3,0,0,1-1.83-.1,3.9,3.9,0,0,1-1.35-.4,2.58,2.58,0,0,1-.9-.84,3.92,3.92,0,0,1-.52-1.37,10.15,10.15,0,0,1-.17-2.07V20.46a4.4,4.4,0,0,1,.1-.92,1.18,1.18,0,0,1,.49-.7,2.38,2.38,0,0,1,1.31-.28,2.42,2.42,0,0,1,1.29.28,1.18,1.18,0,0,1,.49.7,4.42,4.42,0,0,1,.1.93V31.84a4,4,0,0,0,0,.66.8.8,0,0,0,.15.42.56.56,0,0,0,.31.2,2.4,2.4,0,0,0,.52.05,2.68,2.68,0,0,1,.62.07.91.91,0,0,1,.54.45,2.7,2.7,0,0,1,.22,1.25,2.76,2.76,0,0,1-.23,1.3.89.89,0,0,1-.53.48A2.79,2.79,0,0,1,207.33,36.79Z"/><path class="cls-2" d="M219,36.77a2.41,2.41,0,0,1-1.31-.26,1,1,0,0,1-.47-.7,4.53,4.53,0,0,1-.09-.91V26.1a4.19,4.19,0,0,1,.09-.89,1,1,0,0,1,.49-.66A2.6,2.6,0,0,1,219,24.3a2.49,2.49,0,0,1,1.17.21,1,1,0,0,1,.49.51,1.74,1.74,0,0,1,.11.57,1,1,0,0,0,.05.36l-.15.47a1.43,1.43,0,0,1,.39-.76,3.53,3.53,0,0,1,.85-.7,4.32,4.32,0,0,1,1.1-.48,4,4,0,0,1,1.16-.18,5.05,5.05,0,0,1,2.14.44A4.29,4.29,0,0,1,227.88,26a5.65,5.65,0,0,1,1,1.94,8.56,8.56,0,0,1,.34,2.44v4.55a5.31,5.31,0,0,1-.08.91,1.06,1.06,0,0,1-.48.69,2.57,2.57,0,0,1-1.34.25,2.54,2.54,0,0,1-1.32-.26,1.07,1.07,0,0,1-.49-.71,4.46,4.46,0,0,1-.09-.91V30.38a2.78,2.78,0,0,0-.27-1.28,1.85,1.85,0,0,0-.74-.8,2.5,2.5,0,0,0-1.22-.27,2.59,2.59,0,0,0-1.25.28,2,2,0,0,0-.81.81,2.59,2.59,0,0,0-.29,1.25v4.56a4.53,4.53,0,0,1-.09.91,1,1,0,0,1-.48.68A2.47,2.47,0,0,1,219,36.77Z"/><path class="cls-2" d="M237,36.78a5.25,5.25,0,0,1-2.18-.45,5.43,5.43,0,0,1-1.75-1.26,5.75,5.75,0,0,1-1.16-1.93,7,7,0,0,1-.41-2.43V26.18a4.42,4.42,0,0,1,.09-.92,1.08,1.08,0,0,1,.49-.7,2.35,2.35,0,0,1,1.32-.28,2.31,2.31,0,0,1,1.32.28,1.1,1.1,0,0,1,.47.71,4.69,4.69,0,0,1,.09.94v4.5a2.78,2.78,0,0,0,.26,1.26,1.73,1.73,0,0,0,.77.81,2.46,2.46,0,0,0,1.21.28,2.5,2.5,0,0,0,1.24-.29,2,2,0,0,0,.8-.81,2.59,2.59,0,0,0,.29-1.25V26.16a4.42,4.42,0,0,1,.09-.92,1,1,0,0,1,.49-.69,2.47,2.47,0,0,1,1.32-.26,2.41,2.41,0,0,1,1.32.27,1.13,1.13,0,0,1,.47.72,4.46,4.46,0,0,1,.09.91V35a5,5,0,0,1-.08.89,1.06,1.06,0,0,1-.49.66,2.63,2.63,0,0,1-1.3.25,2.92,2.92,0,0,1-1.05-.15,1.25,1.25,0,0,1-.55-.38.94.94,0,0,1-.21-.47,2.57,2.57,0,0,1,0-.45l.32-.28a3.74,3.74,0,0,1-.32.39,5.91,5.91,0,0,1-.66.57,4.28,4.28,0,0,1-1,.54A3.31,3.31,0,0,1,237,36.78Zm-.39-13.37a.85.85,0,0,1-.74-.25,2.63,2.63,0,0,1-.51-1,2,2,0,0,1-.1-1.3,1.36,1.36,0,0,1,.92-.68l4.4-1.34a.9.9,0,0,1,.73.28,2.53,2.53,0,0,1,.5,1,2,2,0,0,1,.09,1.28,1.34,1.34,0,0,1-.92.67Z"/><path class="cls-2" d="M248,36.82a2.36,2.36,0,0,1-1.3-.28,1.05,1.05,0,0,1-.48-.7,5.29,5.29,0,0,1-.07-.92V26.17a4.46,4.46,0,0,1,.09-.91,1,1,0,0,1,.49-.68,2.47,2.47,0,0,1,1.32-.26,2.06,2.06,0,0,1,1.35.36,1.47,1.47,0,0,1,.43,1.19l-.33.27a3,3,0,0,1,.3-.42,5.64,5.64,0,0,1,.65-.63,4.49,4.49,0,0,1,.94-.56,2.83,2.83,0,0,1,1.16-.24,4.31,4.31,0,0,1,1.49.24,3.82,3.82,0,0,1,1.2.7,4.43,4.43,0,0,1,.94,1.17,6.34,6.34,0,0,1,.85-1,4.93,4.93,0,0,1,1.17-.8,3.58,3.58,0,0,1,1.53-.32,4.15,4.15,0,0,1,2.49.74,4.51,4.51,0,0,1,1.53,2.11,9.38,9.38,0,0,1,.53,3.33V35a3.85,3.85,0,0,1-.1.91,1.09,1.09,0,0,1-.48.7,3.42,3.42,0,0,1-2.64,0,1,1,0,0,1-.48-.71,5.53,5.53,0,0,1-.07-.92V30.45a3.81,3.81,0,0,0-.19-1.29,1.75,1.75,0,0,0-.53-.82,1.35,1.35,0,0,0-.9-.29,1.71,1.71,0,0,0-1,.27,1.77,1.77,0,0,0-.6.8,3.92,3.92,0,0,0-.2,1.35V35a3.12,3.12,0,0,1-.13.93,1.16,1.16,0,0,1-.53.7,2.41,2.41,0,0,1-1.34.24,2.09,2.09,0,0,1-1.25-.29,1.12,1.12,0,0,1-.45-.72,5.35,5.35,0,0,1-.08-.89V30.44a4.21,4.21,0,0,0-.18-1.3,1.62,1.62,0,0,0-.52-.82,1.49,1.49,0,0,0-.93-.28,1.54,1.54,0,0,0-1,.33,1.78,1.78,0,0,0-.59.86,3.53,3.53,0,0,0-.19,1.21v4.5a4.52,4.52,0,0,1-.09.93,1,1,0,0,1-.49.68A2.43,2.43,0,0,1,248,36.82Z"/><path class="cls-2" d="M272.9,37.06a7.28,7.28,0,0,1-3-.58A5.84,5.84,0,0,1,267.83,35a6.53,6.53,0,0,1-1.2-2.09,6.92,6.92,0,0,1-.4-2.3,6.45,6.45,0,0,1,.85-3.33A6.12,6.12,0,0,1,269.45,25a7,7,0,0,1,3.46-.84,6.39,6.39,0,0,1,2.51.46,5.11,5.11,0,0,1,1.75,1.21,5,5,0,0,1,1,1.58,4.33,4.33,0,0,1,.34,1.63,2.82,2.82,0,0,1-.66,2,2.27,2.27,0,0,1-1.69.67h-5.95a1.74,1.74,0,0,0,.46,1.07,2.87,2.87,0,0,0,1,.71,3.68,3.68,0,0,0,1.32.25,6.54,6.54,0,0,0,1-.07,4.49,4.49,0,0,0,.79-.17l.59-.22a4.32,4.32,0,0,1,.48-.19,2.63,2.63,0,0,1,.43-.1,1,1,0,0,1,.67.21,2.11,2.11,0,0,1,.58.71,2,2,0,0,1,.24.53,2.14,2.14,0,0,1,.06.5,1.36,1.36,0,0,1-.61,1.09,4.91,4.91,0,0,1-1.73.73A11,11,0,0,1,272.9,37.06Zm-2.67-7.41h3.95a1.06,1.06,0,0,0,.58-.14A.62.62,0,0,0,275,29a1.24,1.24,0,0,0-.28-.77,1.64,1.64,0,0,0-.74-.54,2.74,2.74,0,0,0-1.08-.19,3,3,0,0,0-1.35.3,2.39,2.39,0,0,0-.94.8A1.84,1.84,0,0,0,270.23,29.65Z"/><path class="cls-2" d="M282.5,36.84a2.37,2.37,0,0,1-1.31-.27,1.07,1.07,0,0,1-.48-.71,5.62,5.62,0,0,1-.08-.92V26.21a4.42,4.42,0,0,1,.09-.92,1,1,0,0,1,.49-.69,2.47,2.47,0,0,1,1.32-.26,2.65,2.65,0,0,1,1.27.23,1.05,1.05,0,0,1,.48.56,1.63,1.63,0,0,1,.1.53l-.3.15a3.91,3.91,0,0,1,.27-.36,3.47,3.47,0,0,1,.58-.55,3.79,3.79,0,0,1,.92-.49,3.56,3.56,0,0,1,1.23-.2c.19,0,.39,0,.62,0a4.89,4.89,0,0,1,.7.15,3.32,3.32,0,0,1,.66.3,1.69,1.69,0,0,1,.49.47,1.17,1.17,0,0,1,.18.67,3.14,3.14,0,0,1-.47,1.74,1.42,1.42,0,0,1-1.2.71,2,2,0,0,1-.6-.06,1,1,0,0,1-.29-.15,1.1,1.1,0,0,0-.26-.15,1.65,1.65,0,0,0-.55-.07,2.84,2.84,0,0,0-.72.1,1.93,1.93,0,0,0-.62.32,1.45,1.45,0,0,0-.61,1.23V35a4.53,4.53,0,0,1-.09.91,1,1,0,0,1-.48.69A2.71,2.71,0,0,1,282.5,36.84Z"/><path class="cls-2" d="M297.7,37.05a6.3,6.3,0,0,1-2.34-.47,7,7,0,0,1-2.11-1.31,6.53,6.53,0,0,1-1.51-2,6.47,6.47,0,0,1-.05-5.15A6.83,6.83,0,0,1,293.11,26a6.75,6.75,0,0,1,2.06-1.41,6.13,6.13,0,0,1,2.49-.51,6.33,6.33,0,0,1,3.26.86,6.64,6.64,0,0,1,2.34,2.34,6.71,6.71,0,0,1,.31,6,6.5,6.5,0,0,1-1.5,2A6.57,6.57,0,0,1,300,36.61,6.38,6.38,0,0,1,297.7,37.05Zm-.05-3.78a2.85,2.85,0,0,0,1.23-.3,2.67,2.67,0,0,0,1.05-.9,2.6,2.6,0,0,0,.42-1.52,2.74,2.74,0,0,0-.34-1.4,2.5,2.5,0,0,0-1-.94,2.78,2.78,0,0,0-1.41-.34,2.63,2.63,0,0,0-1.34.35,2.73,2.73,0,0,0-1,1,2.93,2.93,0,0,0,.05,2.9,2.49,2.49,0,0,0,1,.9A2.9,2.9,0,0,0,297.65,33.27Z"/><path class="cls-2" d="M314.15,36.83a1.8,1.8,0,0,1-1.32-.59,1.84,1.84,0,0,1-.58-1.34,3.89,3.89,0,0,1,.09-.85,3.25,3.25,0,0,1,.28-.77,2.28,2.28,0,0,1,.48-.67,13.69,13.69,0,0,1,2-1.64c.72-.49,1.43-1,2.14-1.4s1.36-.88,1.95-1.32a6.34,6.34,0,0,0,1.41-1.43,2.87,2.87,0,0,0,.53-1.66,2.65,2.65,0,0,0-.21-1,1.8,1.8,0,0,0-.75-.85,2.86,2.86,0,0,0-1.54-.34,3.41,3.41,0,0,0-1.11.17,1.88,1.88,0,0,0-.8.53,2.13,2.13,0,0,0-.47.85,3.89,3.89,0,0,0-.15,1.12,5,5,0,0,1-.08.89,1,1,0,0,1-.49.66,2.66,2.66,0,0,1-1.35.25,2.33,2.33,0,0,1-1.34-.29,1.18,1.18,0,0,1-.48-.75,5.86,5.86,0,0,1-.08-.94,6.66,6.66,0,0,1,.42-2.33,6.19,6.19,0,0,1,1.26-2,6,6,0,0,1,2-1.41,6.4,6.4,0,0,1,2.65-.52,6.54,6.54,0,0,1,3.26.81,6.1,6.1,0,0,1,2.27,2.24,6.33,6.33,0,0,1,.84,3.28,5.3,5.3,0,0,1-.37,2,7.09,7.09,0,0,1-.93,1.69,8.78,8.78,0,0,1-1.29,1.36,14.71,14.71,0,0,1-1.44,1.06c-.48.31-.93.57-1.35.79l-1.05.55-.35,0h5.52a4.59,4.59,0,0,1,.94.1,1.14,1.14,0,0,1,.7.5A2.65,2.65,0,0,1,325.6,35a2.41,2.41,0,0,1-.27,1.29,1.12,1.12,0,0,1-.73.5,4.86,4.86,0,0,1-1,.09Z"/><path class="cls-2" d="M333.68,37.12a7.07,7.07,0,0,1-4.58-1.63,5.7,5.7,0,0,1-1.41-1.71,4.58,4.58,0,0,1-.54-2c0-.9.7-1.35,2.08-1.35a2.66,2.66,0,0,1,.91.12.92.92,0,0,1,.49.4,4.54,4.54,0,0,1,.37.81,2.34,2.34,0,0,0,.38.65,2.54,2.54,0,0,0,.85.71,2.94,2.94,0,0,0,1.47.32,3.83,3.83,0,0,0,1.47-.26,2.35,2.35,0,0,0,.95-.73,1.87,1.87,0,0,0,0-2.12,2.2,2.2,0,0,0-.9-.68,3.3,3.3,0,0,0-1.29-.24,5.69,5.69,0,0,1-1-.07,1.08,1.08,0,0,1-.71-.45,2.18,2.18,0,0,1-.28-1.28,2.21,2.21,0,0,1,.28-1.31,1.09,1.09,0,0,1,.72-.43,7.47,7.47,0,0,1,1-.06,3.57,3.57,0,0,0,1.12-.15,1.49,1.49,0,0,0,.69-.43,1.05,1.05,0,0,0,.24-.69,1.6,1.6,0,0,0-.26-.91A1.73,1.73,0,0,0,335,23a2.53,2.53,0,0,0-1.11-.22,3.39,3.39,0,0,0-1.09.16,1.92,1.92,0,0,0-.72.47,3.62,3.62,0,0,0-.52.65,1.72,1.72,0,0,1-1.06,1.06,2.25,2.25,0,0,1-1.59-.37,1.87,1.87,0,0,1-1-1.08,2,2,0,0,1,.26-1.39,2,2,0,0,0,.22-.39,5.14,5.14,0,0,1,.57-.8,5.63,5.63,0,0,1,1-.91,5.39,5.39,0,0,1,1.54-.75,7,7,0,0,1,2.17-.3,6.76,6.76,0,0,1,2.64.48,6,6,0,0,1,1.91,1.23,5,5,0,0,1,1.17,1.67,4.64,4.64,0,0,1,.4,1.88A3.42,3.42,0,0,1,338.76,27a3.32,3.32,0,0,1-.83.58,6.21,6.21,0,0,1,.79.54,4.33,4.33,0,0,1,.75.83,5.08,5.08,0,0,1,.56,1.09,3.66,3.66,0,0,1,.23,1.3,5.4,5.4,0,0,1-.86,3,5.8,5.8,0,0,1-2.34,2.06A7.4,7.4,0,0,1,333.68,37.12Z"/><text class="cls-4" transform="matrix(0.97, 0, 0, 1, 40.3, 43.79)">23</text><text class="cls-5" transform="matrix(0.97, 0, 0, 1, 40.3, 43.79)">23</text></g></g></svg>