<svg xmlns="http://www.w3.org/2000/svg" viewBox="0 0 399.98 101.93"><defs><style>.cls-1{fill:#a41010;}.cls-2{fill:#fff;}.cls-3,.cls-4{fill:none;stroke-width:5px;}.cls-3{stroke:#c8a927;stroke-linejoin:round;}.cls-4{stroke:#fff;}.cls-5{fill:#c8a927;}</style></defs><title>36tn</title><g id="Layer_2" data-name="Layer 2"><g id="pestaña_identificativa" data-name="pestaña identificativa"><rect class="cls-1" width="399.98" height="101.93" rx="32.4"/><path class="cls-2" d="M136,17.34a3.84,3.84,0,0,1,.79.08.92.92,0,0,1,.59.42,2.24,2.24,0,0,1,.22,1.15,2.16,2.16,0,0,1-.22,1.13.91.91,0,0,1-.6.42,4.09,4.09,0,0,1-.8.08h-4V33a4.31,4.31,0,0,1-.08.9,1.1,1.1,0,0,1-.48.69,2.55,2.55,0,0,1-1.34.26,2.43,2.43,0,0,1-1.27-.26,1.08,1.08,0,0,1-.49-.7,4.63,4.63,0,0,1-.09-.92V20.61h-4a3.25,3.25,0,0,1-.77-.09,1.06,1.06,0,0,1-.62-.42,2.16,2.16,0,0,1-.23-1.14,2.06,2.06,0,0,1,.24-1.13.93.93,0,0,1,.61-.42,3.94,3.94,0,0,1,.77-.07Z"/><path class="cls-2" d="M141.56,34.85a2.35,2.35,0,0,1-1.31-.27,1.07,1.07,0,0,1-.48-.71,4.73,4.73,0,0,1-.09-.93V24.22a4.59,4.59,0,0,1,.09-.93,1,1,0,0,1,.49-.68,2.42,2.42,0,0,1,1.32-.26,2.63,2.63,0,0,1,1.26.23,1.1,1.1,0,0,1,.49.55,1.73,1.73,0,0,1,.1.54l-.3.15a2.48,2.48,0,0,1,.26-.36,3.2,3.2,0,0,1,.59-.55,3.71,3.71,0,0,1,.91-.49,3.62,3.62,0,0,1,1.24-.2c.18,0,.39,0,.61,0a4.62,4.62,0,0,1,.7.15,3.41,3.41,0,0,1,.67.3,1.63,1.63,0,0,1,.48.46,1.16,1.16,0,0,1,.19.68,3.06,3.06,0,0,1-.48,1.74,1.4,1.4,0,0,1-1.2.71,2.11,2.11,0,0,1-.6-.06,1.21,1.21,0,0,1-.28-.15,1.17,1.17,0,0,0-.27-.15,1.39,1.39,0,0,0-.55-.07,2.77,2.77,0,0,0-.71.1,1.93,1.93,0,0,0-.62.32,1.32,1.32,0,0,0-.45.52,1.52,1.52,0,0,0-.17.71V33a4.53,4.53,0,0,1-.09.91,1,1,0,0,1-.49.69A2.67,2.67,0,0,1,141.56,34.85Z"/><path class="cls-2" d="M161,34.83a2.42,2.42,0,0,1-1.38-.32.9.9,0,0,1-.42-.8l.25-.43a2.59,2.59,0,0,1-.58.61,3.87,3.87,0,0,1-1.11.65,4.33,4.33,0,0,1-1.66.29,5,5,0,0,1-2.19-.5A6.17,6.17,0,0,1,152,32.94a7.21,7.21,0,0,1-1.27-2,6.16,6.16,0,0,1,0-4.72,6.72,6.72,0,0,1,1.29-2,6.37,6.37,0,0,1,1.84-1.36,4.94,4.94,0,0,1,2.18-.5,4.05,4.05,0,0,1,2.66.88,3.18,3.18,0,0,1,.66.67l-.23-.35a1.05,1.05,0,0,1,.44-.91,2.42,2.42,0,0,1,1.39-.31,2.34,2.34,0,0,1,1.29.27,1.15,1.15,0,0,1,.47.73,4.86,4.86,0,0,1,.09.95v8.62a5.64,5.64,0,0,1-.08.93,1.07,1.07,0,0,1-.48.71A2.41,2.41,0,0,1,161,34.83Zm-4.38-3.72a2.19,2.19,0,0,0,1.2-.34,2.59,2.59,0,0,0,.86-.91,2.74,2.74,0,0,0,0-2.57,2.4,2.4,0,0,0-.88-.88,2.3,2.3,0,0,0-1.22-.33,2.33,2.33,0,0,0-1.26.34A2.48,2.48,0,0,0,154,28.63a2.42,2.42,0,0,0,.33,1.24,2.6,2.6,0,0,0,2.21,1.24Z"/><path class="cls-2" d="M166.71,34.86a1.76,1.76,0,0,1-1.31-.54,1.8,1.8,0,0,1-.54-1.33,2,2,0,0,1,.14-.73,1.81,1.81,0,0,1,.41-.62l5.68-5.5h-3.8a4.45,4.45,0,0,1-.91-.1,1.22,1.22,0,0,1-.73-.49,2.28,2.28,0,0,1-.29-1.31,2.3,2.3,0,0,1,.29-1.32,1.17,1.17,0,0,1,.73-.47,4.46,4.46,0,0,1,.91-.09h7.82A1.78,1.78,0,0,1,177,24.22a2.17,2.17,0,0,1-.13.76,1.69,1.69,0,0,1-.39.59l-5.56,5.52h4.53a4.4,4.4,0,0,1,.92.1,1.12,1.12,0,0,1,.69.5,2.49,2.49,0,0,1,.26,1.33,2.4,2.4,0,0,1-.27,1.3,1.1,1.1,0,0,1-.7.47,5.37,5.37,0,0,1-.93.08Z"/><path class="cls-2" d="M189.53,34.85a2.33,2.33,0,0,1-1.37-.33.91.91,0,0,1-.43-.8l.25-.42a2.72,2.72,0,0,1-.57.61,4.35,4.35,0,0,1-1.12.65,4.29,4.29,0,0,1-1.66.29,5,5,0,0,1-2.18-.5A5.93,5.93,0,0,1,180.61,33a7.3,7.3,0,0,1-1.28-2,6.15,6.15,0,0,1-.47-2.37,5.83,5.83,0,0,1,.48-2.34,6.34,6.34,0,0,1,1.29-2,6.15,6.15,0,0,1,1.83-1.36,4.84,4.84,0,0,1,2.18-.5,4.26,4.26,0,0,1,1.57.26,4.45,4.45,0,0,1,1.09.61A3.45,3.45,0,0,1,188,24l-.22-.35a1,1,0,0,1,.44-.91,3.22,3.22,0,0,1,2.67,0,1.14,1.14,0,0,1,.48.73,4.81,4.81,0,0,1,.08.95V33a4.73,4.73,0,0,1-.09.93,1.12,1.12,0,0,1-.47.71A2.52,2.52,0,0,1,189.53,34.85Zm-4.37-3.73a2.21,2.21,0,0,0,1.2-.33,2.6,2.6,0,0,0,.85-.92,2.48,2.48,0,0,0,.33-1.27,2.53,2.53,0,0,0-.33-1.29,2.47,2.47,0,0,0-3.36-.88,2.56,2.56,0,0,0-.9.92,2.45,2.45,0,0,0-.34,1.3,2.28,2.28,0,0,0,.34,1.23,2.41,2.41,0,0,0,.92.9A2.49,2.49,0,0,0,185.16,31.12Z"/><path class="cls-2" d="M206.63,35.11a7.12,7.12,0,0,1-3-.58A5.84,5.84,0,0,1,201.56,33a6.61,6.61,0,0,1-1.2-2.09,6.88,6.88,0,0,1-.4-2.3,6.38,6.38,0,0,1,.85-3.32A6.14,6.14,0,0,1,203.18,23a6.9,6.9,0,0,1,3.46-.83,6.22,6.22,0,0,1,2.51.46,5.23,5.23,0,0,1,1.75,1.2,5.1,5.1,0,0,1,1,1.59,4.5,4.5,0,0,1,.33,1.62,2.82,2.82,0,0,1-.66,2.05,2.28,2.28,0,0,1-1.69.68H204a1.77,1.77,0,0,0,.46,1.08,2.85,2.85,0,0,0,1,.7,3.48,3.48,0,0,0,1.32.25,8.1,8.1,0,0,0,1-.06,3.7,3.7,0,0,0,.79-.18c.22-.07.41-.15.59-.22a4.32,4.32,0,0,1,.48-.19,2.63,2.63,0,0,1,.43-.1,1,1,0,0,1,.67.22,1.93,1.93,0,0,1,.58.71,2,2,0,0,1,.24.52,2.2,2.2,0,0,1,.06.5,1.36,1.36,0,0,1-.61,1.09,4.91,4.91,0,0,1-1.73.74A11.56,11.56,0,0,1,206.63,35.11ZM204,27.71h3.95a1,1,0,0,0,.58-.14.61.61,0,0,0,.2-.53,1.19,1.19,0,0,0-.28-.78,1.84,1.84,0,0,0-.73-.54,3.26,3.26,0,0,0-1.09-.19,3,3,0,0,0-1.35.3,2.39,2.39,0,0,0-.94.8A1.89,1.89,0,0,0,204,27.71Z"/><path class="cls-2" d="M219.16,34.89a14.2,14.2,0,0,1-1.83-.1,3.9,3.9,0,0,1-1.35-.4,2.58,2.58,0,0,1-.9-.84,3.92,3.92,0,0,1-.52-1.37,10.07,10.07,0,0,1-.18-2.07V18.56a4.4,4.4,0,0,1,.1-.92,1.18,1.18,0,0,1,.49-.7,2.39,2.39,0,0,1,1.31-.27,2.34,2.34,0,0,1,1.29.27,1.21,1.21,0,0,1,.49.7,4.49,4.49,0,0,1,.1.93V29.94a4,4,0,0,0,0,.66.8.8,0,0,0,.15.42.56.56,0,0,0,.31.2,2.4,2.4,0,0,0,.52.05,2.68,2.68,0,0,1,.62.07.9.9,0,0,1,.53.45,2.56,2.56,0,0,1,.23,1.25,2.76,2.76,0,0,1-.23,1.3.88.88,0,0,1-.54.48A2.65,2.65,0,0,1,219.16,34.89Z"/><path class="cls-2" d="M230.78,34.87a2.38,2.38,0,0,1-1.31-.26,1.07,1.07,0,0,1-.48-.7,5.31,5.31,0,0,1-.08-.91V24.2a4.19,4.19,0,0,1,.09-.89,1,1,0,0,1,.49-.66,2.58,2.58,0,0,1,1.32-.25,2.51,2.51,0,0,1,1.18.21,1.06,1.06,0,0,1,.49.52,1.68,1.68,0,0,1,.11.56.8.8,0,0,0,0,.36l-.15.48a1.45,1.45,0,0,1,.39-.77,3.57,3.57,0,0,1,.85-.7,4.7,4.7,0,0,1,1.1-.48A4,4,0,0,1,236,22.4a5.05,5.05,0,0,1,2.14.44,4.29,4.29,0,0,1,1.58,1.26,5.74,5.74,0,0,1,1,1.94,8.61,8.61,0,0,1,.34,2.44V33a5.31,5.31,0,0,1-.08.91,1,1,0,0,1-.48.69,2.57,2.57,0,0,1-1.34.25,2.54,2.54,0,0,1-1.32-.26,1.08,1.08,0,0,1-.49-.7,4.63,4.63,0,0,1-.09-.92V28.48A2.78,2.78,0,0,0,237,27.2a1.81,1.81,0,0,0-.75-.8,2.43,2.43,0,0,0-1.21-.27,2.59,2.59,0,0,0-1.25.28,2.06,2.06,0,0,0-.81.82,2.57,2.57,0,0,0-.29,1.25V33a4.53,4.53,0,0,1-.09.91,1.06,1.06,0,0,1-.48.69A2.49,2.49,0,0,1,230.78,34.87Z"/><path class="cls-2" d="M248.86,34.89a5.31,5.31,0,0,1-3.93-1.72,5.75,5.75,0,0,1-1.16-1.93,7,7,0,0,1-.41-2.43V24.28a4.42,4.42,0,0,1,.09-.92,1.08,1.08,0,0,1,.49-.7,2.33,2.33,0,0,1,1.32-.28,2.4,2.4,0,0,1,1.32.28,1.14,1.14,0,0,1,.47.71,4.69,4.69,0,0,1,.09.94v4.5a2.78,2.78,0,0,0,.27,1.26,1.8,1.8,0,0,0,.77.82,2.57,2.57,0,0,0,1.21.27,2.4,2.4,0,0,0,1.24-.29,2,2,0,0,0,.8-.81,2.57,2.57,0,0,0,.29-1.25V24.26a4.42,4.42,0,0,1,.09-.92,1,1,0,0,1,.49-.69,2.57,2.57,0,0,1,1.32-.26,2.41,2.41,0,0,1,1.32.27,1.19,1.19,0,0,1,.47.72,4.46,4.46,0,0,1,.09.91v8.8a4.19,4.19,0,0,1-.09.89,1,1,0,0,1-.48.66,2.52,2.52,0,0,1-1.3.25,2.92,2.92,0,0,1-1.05-.15,1.25,1.25,0,0,1-.55-.38,1.06,1.06,0,0,1-.22-.47,3.91,3.91,0,0,1,0-.45l.32-.28a2.91,2.91,0,0,1-.32.39,5.29,5.29,0,0,1-.67.57,4,4,0,0,1-1,.54A3.34,3.34,0,0,1,248.86,34.89Zm-.4-13.38a.83.83,0,0,1-.73-.25,2.49,2.49,0,0,1-.51-1,2,2,0,0,1-.1-1.3,1.39,1.39,0,0,1,.92-.68l4.4-1.34a.88.88,0,0,1,.73.29,2.4,2.4,0,0,1,.5,1,1.88,1.88,0,0,1,.08,1.28,1.32,1.32,0,0,1-.91.67Z"/><path class="cls-2" d="M259.81,34.92a2.36,2.36,0,0,1-1.3-.28,1.05,1.05,0,0,1-.48-.7A5.29,5.29,0,0,1,258,33V24.27a4.29,4.29,0,0,1,.09-.9,1,1,0,0,1,.49-.69,2.47,2.47,0,0,1,1.32-.26,2.06,2.06,0,0,1,1.35.36,1.47,1.47,0,0,1,.43,1.19l-.33.27a3,3,0,0,1,.3-.42,5.64,5.64,0,0,1,.65-.63,4.49,4.49,0,0,1,.94-.56,2.83,2.83,0,0,1,1.16-.24,4.61,4.61,0,0,1,1.49.24,4,4,0,0,1,1.2.7A4.43,4.43,0,0,1,268,24.5a5.84,5.84,0,0,1,.85-1,4.74,4.74,0,0,1,1.17-.8,3.58,3.58,0,0,1,1.53-.32,4.15,4.15,0,0,1,2.49.74,4.56,4.56,0,0,1,1.53,2.11,9.38,9.38,0,0,1,.53,3.33v4.47a3.85,3.85,0,0,1-.1.91,1.1,1.1,0,0,1-.49.7,2.35,2.35,0,0,1-1.31.27,2.42,2.42,0,0,1-1.32-.28,1,1,0,0,1-.48-.71,5.45,5.45,0,0,1-.07-.92V28.55a3.81,3.81,0,0,0-.19-1.29,1.75,1.75,0,0,0-.53-.82,1.35,1.35,0,0,0-.9-.29,1.56,1.56,0,0,0-1.58,1.07,3.92,3.92,0,0,0-.2,1.35v4.48a3.62,3.62,0,0,1-.13.94,1.15,1.15,0,0,1-.54.69,2.35,2.35,0,0,1-1.33.24,2.09,2.09,0,0,1-1.25-.29,1.12,1.12,0,0,1-.45-.72,5.26,5.26,0,0,1-.08-.89V28.55a4.28,4.28,0,0,0-.18-1.31,1.69,1.69,0,0,0-.52-.82,1.49,1.49,0,0,0-.93-.28,1.54,1.54,0,0,0-1,.33,1.82,1.82,0,0,0-.59.86,3.53,3.53,0,0,0-.19,1.21V33a4.52,4.52,0,0,1-.09.93,1.08,1.08,0,0,1-.49.69A2.57,2.57,0,0,1,259.81,34.92Z"/><path class="cls-2" d="M284.73,35.16a7.25,7.25,0,0,1-3-.58,5.84,5.84,0,0,1-2.06-1.51,6.25,6.25,0,0,1-1.2-2.09,6.92,6.92,0,0,1-.4-2.3,6.45,6.45,0,0,1,.85-3.33,6.19,6.19,0,0,1,2.37-2.28,7,7,0,0,1,3.46-.84,6.24,6.24,0,0,1,2.51.47A5.08,5.08,0,0,1,289,23.9a4.89,4.89,0,0,1,1,1.59,4.25,4.25,0,0,1,.34,1.62,2.82,2.82,0,0,1-.66,2.05,2.28,2.28,0,0,1-1.69.67h-5.95a1.77,1.77,0,0,0,.46,1.08,2.85,2.85,0,0,0,1,.7,3.64,3.64,0,0,0,1.32.25,8.1,8.1,0,0,0,1-.06,4.43,4.43,0,0,0,.79-.18l.59-.22a4.32,4.32,0,0,1,.48-.19,2.41,2.41,0,0,1,.43-.1,1,1,0,0,1,.67.21,2.11,2.11,0,0,1,.58.71,2.43,2.43,0,0,1,.24.53,2.14,2.14,0,0,1,.06.5,1.35,1.35,0,0,1-.62,1.09,4.61,4.61,0,0,1-1.72.73A11,11,0,0,1,284.73,35.16Zm-2.67-7.4H286a1.06,1.06,0,0,0,.58-.14.62.62,0,0,0,.19-.54,1.17,1.17,0,0,0-.27-.77,1.72,1.72,0,0,0-.74-.54,2.74,2.74,0,0,0-1.08-.19,3,3,0,0,0-1.35.3,2.39,2.39,0,0,0-.94.8A1.84,1.84,0,0,0,282.06,27.76Z"/><path class="cls-2" d="M294.33,34.94a2.37,2.37,0,0,1-1.31-.27,1.07,1.07,0,0,1-.48-.71,5.62,5.62,0,0,1-.08-.92V24.31a4.42,4.42,0,0,1,.09-.92,1,1,0,0,1,.49-.69,2.45,2.45,0,0,1,1.32-.26,2.52,2.52,0,0,1,1.27.24,1,1,0,0,1,.48.55,1.68,1.68,0,0,1,.1.53l-.3.15c0-.06.12-.18.26-.36a4,4,0,0,1,.59-.55,3.79,3.79,0,0,1,.92-.49,3.57,3.57,0,0,1,1.23-.19l.62,0a5.2,5.2,0,0,1,.7.15,3.32,3.32,0,0,1,.66.3,1.54,1.54,0,0,1,.48.47,1.13,1.13,0,0,1,.19.67,3.12,3.12,0,0,1-.47,1.74,1.42,1.42,0,0,1-1.2.71,2,2,0,0,1-.6-.06.87.87,0,0,1-.29-.15,1.1,1.1,0,0,0-.26-.15,1.65,1.65,0,0,0-.55-.07,2.84,2.84,0,0,0-.72.1,2.15,2.15,0,0,0-.62.32,1.45,1.45,0,0,0-.61,1.23v5.48a4.46,4.46,0,0,1-.09.91,1.06,1.06,0,0,1-.48.69A2.6,2.6,0,0,1,294.33,34.94Z"/><path class="cls-2" d="M309.53,35.15a6.3,6.3,0,0,1-2.34-.47,7,7,0,0,1-2.11-1.31,6.38,6.38,0,0,1-1.51-2,6.47,6.47,0,0,1-.05-5.15,6.78,6.78,0,0,1,1.42-2.06A6.63,6.63,0,0,1,307,22.71a6.13,6.13,0,0,1,2.49-.51,6.33,6.33,0,0,1,3.26.86,6.72,6.72,0,0,1,2.34,2.34,6.36,6.36,0,0,1-1.2,8,6.53,6.53,0,0,1-4.36,1.73Zm0-3.78a2.85,2.85,0,0,0,1.23-.3,2.81,2.81,0,0,0,1.05-.9,2.57,2.57,0,0,0,.42-1.52,2.65,2.65,0,0,0-.35-1.4,2.48,2.48,0,0,0-1-.94,2.83,2.83,0,0,0-1.41-.34,2.6,2.6,0,0,0-1.34.35,2.65,2.65,0,0,0-.95,1,2.93,2.93,0,0,0,.05,2.9,2.43,2.43,0,0,0,1,.9A2.76,2.76,0,0,0,309.48,31.37Z"/><path class="cls-2" d="M330.23,35.21a6.23,6.23,0,0,1-3.3-.84,5.39,5.39,0,0,1-2.11-2.44,9.1,9.1,0,0,1-.74-3.82,13.62,13.62,0,0,1,.46-3.55,10.58,10.58,0,0,1,1.29-2.94,8.67,8.67,0,0,1,2-2.24A9,9,0,0,1,330.52,18a10,10,0,0,1,3.2-.5,4.1,4.1,0,0,1,.88.09,1.06,1.06,0,0,1,.68.49,2.54,2.54,0,0,1,.26,1.32,2.37,2.37,0,0,1-.28,1.33,1.08,1.08,0,0,1-.71.48,4.62,4.62,0,0,1-.94.09,6.16,6.16,0,0,0-2.06.31,5.15,5.15,0,0,0-1.51.81,5.47,5.47,0,0,0-1,1.08,4.67,4.67,0,0,0-.59,1.12,3.13,3.13,0,0,0-.18.93l-.33-.08a1.2,1.2,0,0,1,.44-.45,3.43,3.43,0,0,1,.9-.41,3.92,3.92,0,0,1,1.16-.16,5.79,5.79,0,0,1,2.85.7,5.5,5.5,0,0,1,2,1.86,4.69,4.69,0,0,1,.75,2.59,5.64,5.64,0,0,1-.75,2.89,5.36,5.36,0,0,1-2.07,2A6.07,6.07,0,0,1,330.23,35.21Zm-.1-3.55a3,3,0,0,0,1.19-.22,1.56,1.56,0,0,0,.73-.68,2.32,2.32,0,0,0,.23-1.05,2.07,2.07,0,0,0-.23-1,1.7,1.7,0,0,0-.7-.65,2.28,2.28,0,0,0-1.07-.24,2.86,2.86,0,0,0-1.2.24,1.74,1.74,0,0,0-.78.64,1.58,1.58,0,0,0-.27.92,2.42,2.42,0,0,0,.23,1.1,1.54,1.54,0,0,0,.69.69A2.53,2.53,0,0,0,330.13,31.66Z"/><path class="cls-3" d="M136,17.34a3.84,3.84,0,0,1,.79.08.92.92,0,0,1,.59.42,2.24,2.24,0,0,1,.22,1.15,2.16,2.16,0,0,1-.22,1.13.91.91,0,0,1-.6.42,4.09,4.09,0,0,1-.8.08h-4V33a4.31,4.31,0,0,1-.08.9,1.1,1.1,0,0,1-.48.69,2.55,2.55,0,0,1-1.34.26,2.43,2.43,0,0,1-1.27-.26,1.08,1.08,0,0,1-.49-.7,4.63,4.63,0,0,1-.09-.92V20.61h-4a3.25,3.25,0,0,1-.77-.09,1.06,1.06,0,0,1-.62-.42,2.16,2.16,0,0,1-.23-1.14,2.06,2.06,0,0,1,.24-1.13.93.93,0,0,1,.61-.42,3.94,3.94,0,0,1,.77-.07Z"/><path class="cls-3" d="M141.56,34.85a2.35,2.35,0,0,1-1.31-.27,1.07,1.07,0,0,1-.48-.71,4.73,4.73,0,0,1-.09-.93V24.22a4.59,4.59,0,0,1,.09-.93,1,1,0,0,1,.49-.68,2.42,2.42,0,0,1,1.32-.26,2.63,2.63,0,0,1,1.26.23,1.1,1.1,0,0,1,.49.55,1.73,1.73,0,0,1,.1.54l-.3.15a2.48,2.48,0,0,1,.26-.36,3.2,3.2,0,0,1,.59-.55,3.71,3.71,0,0,1,.91-.49,3.62,3.62,0,0,1,1.24-.2c.18,0,.39,0,.61,0a4.62,4.62,0,0,1,.7.15,3.41,3.41,0,0,1,.67.3,1.63,1.63,0,0,1,.48.46,1.16,1.16,0,0,1,.19.68,3.06,3.06,0,0,1-.48,1.74,1.4,1.4,0,0,1-1.2.71,2.11,2.11,0,0,1-.6-.06,1.21,1.21,0,0,1-.28-.15,1.17,1.17,0,0,0-.27-.15,1.39,1.39,0,0,0-.55-.07,2.77,2.77,0,0,0-.71.1,1.93,1.93,0,0,0-.62.32,1.32,1.32,0,0,0-.45.52,1.52,1.52,0,0,0-.17.71V33a4.53,4.53,0,0,1-.09.91,1,1,0,0,1-.49.69A2.67,2.67,0,0,1,141.56,34.85Z"/><path class="cls-3" d="M161,34.83a2.42,2.42,0,0,1-1.38-.32.9.9,0,0,1-.42-.8l.25-.43a2.59,2.59,0,0,1-.58.61,3.87,3.87,0,0,1-1.11.65,4.33,4.33,0,0,1-1.66.29,5,5,0,0,1-2.19-.5A6.17,6.17,0,0,1,152,32.94a7.21,7.21,0,0,1-1.27-2,6.16,6.16,0,0,1,0-4.72,6.72,6.72,0,0,1,1.29-2,6.37,6.37,0,0,1,1.84-1.36,4.94,4.94,0,0,1,2.18-.5,4.05,4.05,0,0,1,2.66.88,3.18,3.18,0,0,1,.66.67l-.23-.35a1.05,1.05,0,0,1,.44-.91,2.42,2.42,0,0,1,1.39-.31,2.34,2.34,0,0,1,1.29.27,1.15,1.15,0,0,1,.47.73,4.86,4.86,0,0,1,.09.95v8.62a5.64,5.64,0,0,1-.08.93,1.07,1.07,0,0,1-.48.71A2.41,2.41,0,0,1,161,34.83Zm-4.38-3.72a2.19,2.19,0,0,0,1.2-.34,2.59,2.59,0,0,0,.86-.91,2.74,2.74,0,0,0,0-2.57,2.4,2.4,0,0,0-.88-.88,2.3,2.3,0,0,0-1.22-.33,2.33,2.33,0,0,0-1.26.34A2.48,2.48,0,0,0,154,28.63a2.42,2.42,0,0,0,.33,1.24,2.6,2.6,0,0,0,2.21,1.24Z"/><path class="cls-3" d="M166.71,34.86a1.76,1.76,0,0,1-1.31-.54,1.8,1.8,0,0,1-.54-1.33,2,2,0,0,1,.14-.73,1.81,1.81,0,0,1,.41-.62l5.68-5.5h-3.8a4.45,4.45,0,0,1-.91-.1,1.22,1.22,0,0,1-.73-.49,2.28,2.28,0,0,1-.29-1.31,2.3,2.3,0,0,1,.29-1.32,1.17,1.17,0,0,1,.73-.47,4.46,4.46,0,0,1,.91-.09h7.82A1.78,1.78,0,0,1,177,24.22a2.17,2.17,0,0,1-.13.76,1.69,1.69,0,0,1-.39.59l-5.56,5.52h4.53a4.4,4.4,0,0,1,.92.1,1.12,1.12,0,0,1,.69.5,2.49,2.49,0,0,1,.26,1.33,2.4,2.4,0,0,1-.27,1.3,1.1,1.1,0,0,1-.7.47,5.37,5.37,0,0,1-.93.08Z"/><path class="cls-3" d="M189.53,34.85a2.33,2.33,0,0,1-1.37-.33.91.91,0,0,1-.43-.8l.25-.42a2.72,2.72,0,0,1-.57.61,4.35,4.35,0,0,1-1.12.65,4.29,4.29,0,0,1-1.66.29,5,5,0,0,1-2.18-.5A5.93,5.93,0,0,1,180.61,33a7.3,7.3,0,0,1-1.28-2,6.15,6.15,0,0,1-.47-2.37,5.83,5.83,0,0,1,.48-2.34,6.34,6.34,0,0,1,1.29-2,6.15,6.15,0,0,1,1.83-1.36,4.84,4.84,0,0,1,2.18-.5,4.26,4.26,0,0,1,1.57.26,4.45,4.45,0,0,1,1.09.61A3.45,3.45,0,0,1,188,24l-.22-.35a1,1,0,0,1,.44-.91,3.22,3.22,0,0,1,2.67,0,1.14,1.14,0,0,1,.48.73,4.81,4.81,0,0,1,.08.95V33a4.73,4.73,0,0,1-.09.93,1.12,1.12,0,0,1-.47.71A2.52,2.52,0,0,1,189.53,34.85Zm-4.37-3.73a2.21,2.21,0,0,0,1.2-.33,2.6,2.6,0,0,0,.85-.92,2.48,2.48,0,0,0,.33-1.27,2.53,2.53,0,0,0-.33-1.29,2.47,2.47,0,0,0-3.36-.88,2.56,2.56,0,0,0-.9.92,2.45,2.45,0,0,0-.34,1.3,2.28,2.28,0,0,0,.34,1.23,2.41,2.41,0,0,0,.92.9A2.49,2.49,0,0,0,185.16,31.12Z"/><path class="cls-3" d="M206.63,35.11a7.12,7.12,0,0,1-3-.58A5.84,5.84,0,0,1,201.56,33a6.61,6.61,0,0,1-1.2-2.09,6.88,6.88,0,0,1-.4-2.3,6.38,6.38,0,0,1,.85-3.32A6.14,6.14,0,0,1,203.18,23a6.9,6.9,0,0,1,3.46-.83,6.22,6.22,0,0,1,2.51.46,5.23,5.23,0,0,1,1.75,1.2,5.1,5.1,0,0,1,1,1.59,4.5,4.5,0,0,1,.33,1.62,2.82,2.82,0,0,1-.66,2.05,2.28,2.28,0,0,1-1.69.68H204a1.77,1.77,0,0,0,.46,1.08,2.85,2.85,0,0,0,1,.7,3.48,3.48,0,0,0,1.32.25,8.1,8.1,0,0,0,1-.06,3.7,3.7,0,0,0,.79-.18c.22-.07.41-.15.59-.22a4.32,4.32,0,0,1,.48-.19,2.63,2.63,0,0,1,.43-.1,1,1,0,0,1,.67.22,1.93,1.93,0,0,1,.58.71,2,2,0,0,1,.24.52,2.2,2.2,0,0,1,.06.5,1.36,1.36,0,0,1-.61,1.09,4.91,4.91,0,0,1-1.73.74A11.56,11.56,0,0,1,206.63,35.11ZM204,27.71h3.95a1,1,0,0,0,.58-.14.61.61,0,0,0,.2-.53,1.19,1.19,0,0,0-.28-.78,1.84,1.84,0,0,0-.73-.54,3.26,3.26,0,0,0-1.09-.19,3,3,0,0,0-1.35.3,2.39,2.39,0,0,0-.94.8A1.89,1.89,0,0,0,204,27.71Z"/><path class="cls-3" d="M219.16,34.89a14.2,14.2,0,0,1-1.83-.1,3.9,3.9,0,0,1-1.35-.4,2.58,2.58,0,0,1-.9-.84,3.92,3.92,0,0,1-.52-1.37,10.07,10.07,0,0,1-.18-2.07V18.56a4.4,4.4,0,0,1,.1-.92,1.18,1.18,0,0,1,.49-.7,2.39,2.39,0,0,1,1.31-.27,2.34,2.34,0,0,1,1.29.27,1.21,1.21,0,0,1,.49.7,4.49,4.49,0,0,1,.1.93V29.94a4,4,0,0,0,0,.66.8.8,0,0,0,.15.42.56.56,0,0,0,.31.2,2.4,2.4,0,0,0,.52.05,2.68,2.68,0,0,1,.62.07.9.9,0,0,1,.53.45,2.56,2.56,0,0,1,.23,1.25,2.76,2.76,0,0,1-.23,1.3.88.88,0,0,1-.54.48A2.65,2.65,0,0,1,219.16,34.89Z"/><path class="cls-3" d="M230.78,34.87a2.38,2.38,0,0,1-1.31-.26,1.07,1.07,0,0,1-.48-.7,5.31,5.31,0,0,1-.08-.91V24.2a4.19,4.19,0,0,1,.09-.89,1,1,0,0,1,.49-.66,2.58,2.58,0,0,1,1.32-.25,2.51,2.51,0,0,1,1.18.21,1.06,1.06,0,0,1,.49.52,1.68,1.68,0,0,1,.11.56.8.8,0,0,0,0,.36l-.15.48a1.45,1.45,0,0,1,.39-.77,3.57,3.57,0,0,1,.85-.7,4.7,4.7,0,0,1,1.1-.48A4,4,0,0,1,236,22.4a5.05,5.05,0,0,1,2.14.44,4.29,4.29,0,0,1,1.58,1.26,5.74,5.74,0,0,1,1,1.94,8.61,8.61,0,0,1,.34,2.44V33a5.31,5.31,0,0,1-.08.91,1,1,0,0,1-.48.69,2.57,2.57,0,0,1-1.34.25,2.54,2.54,0,0,1-1.32-.26,1.08,1.08,0,0,1-.49-.7,4.63,4.63,0,0,1-.09-.92V28.48A2.78,2.78,0,0,0,237,27.2a1.81,1.81,0,0,0-.75-.8,2.43,2.43,0,0,0-1.21-.27,2.59,2.59,0,0,0-1.25.28,2.06,2.06,0,0,0-.81.82,2.57,2.57,0,0,0-.29,1.25V33a4.53,4.53,0,0,1-.09.91,1.06,1.06,0,0,1-.48.69A2.49,2.49,0,0,1,230.78,34.87Z"/><path class="cls-3" d="M248.86,34.89a5.31,5.31,0,0,1-3.93-1.72,5.75,5.75,0,0,1-1.16-1.93,7,7,0,0,1-.41-2.43V24.28a4.42,4.42,0,0,1,.09-.92,1.08,1.08,0,0,1,.49-.7,2.33,2.33,0,0,1,1.32-.28,2.4,2.4,0,0,1,1.32.28,1.14,1.14,0,0,1,.47.71,4.69,4.69,0,0,1,.09.94v4.5a2.78,2.78,0,0,0,.27,1.26,1.8,1.8,0,0,0,.77.82,2.57,2.57,0,0,0,1.21.27,2.4,2.4,0,0,0,1.24-.29,2,2,0,0,0,.8-.81,2.57,2.57,0,0,0,.29-1.25V24.26a4.42,4.42,0,0,1,.09-.92,1,1,0,0,1,.49-.69,2.57,2.57,0,0,1,1.32-.26,2.41,2.41,0,0,1,1.32.27,1.19,1.19,0,0,1,.47.72,4.46,4.46,0,0,1,.09.91v8.8a4.19,4.19,0,0,1-.09.89,1,1,0,0,1-.48.66,2.52,2.52,0,0,1-1.3.25,2.92,2.92,0,0,1-1.05-.15,1.25,1.25,0,0,1-.55-.38,1.06,1.06,0,0,1-.22-.47,3.91,3.91,0,0,1,0-.45l.32-.28a2.91,2.91,0,0,1-.32.39,5.29,5.29,0,0,1-.67.57,4,4,0,0,1-1,.54A3.34,3.34,0,0,1,248.86,34.89Zm-.4-13.38a.83.83,0,0,1-.73-.25,2.49,2.49,0,0,1-.51-1,2,2,0,0,1-.1-1.3,1.39,1.39,0,0,1,.92-.68l4.4-1.34a.88.88,0,0,1,.73.29,2.4,2.4,0,0,1,.5,1,1.88,1.88,0,0,1,.08,1.28,1.32,1.32,0,0,1-.91.67Z"/><path class="cls-3" d="M259.81,34.92a2.36,2.36,0,0,1-1.3-.28,1.05,1.05,0,0,1-.48-.7A5.29,5.29,0,0,1,258,33V24.27a4.29,4.29,0,0,1,.09-.9,1,1,0,0,1,.49-.69,2.47,2.47,0,0,1,1.32-.26,2.06,2.06,0,0,1,1.35.36,1.47,1.47,0,0,1,.43,1.19l-.33.27a3,3,0,0,1,.3-.42,5.64,5.64,0,0,1,.65-.63,4.49,4.49,0,0,1,.94-.56,2.83,2.83,0,0,1,1.16-.24,4.61,4.61,0,0,1,1.49.24,4,4,0,0,1,1.2.7A4.43,4.43,0,0,1,268,24.5a5.84,5.84,0,0,1,.85-1,4.74,4.74,0,0,1,1.17-.8,3.58,3.58,0,0,1,1.53-.32,4.15,4.15,0,0,1,2.49.74,4.56,4.56,0,0,1,1.53,2.11,9.38,9.38,0,0,1,.53,3.33v4.47a3.85,3.85,0,0,1-.1.91,1.1,1.1,0,0,1-.49.7,2.35,2.35,0,0,1-1.31.27,2.42,2.42,0,0,1-1.32-.28,1,1,0,0,1-.48-.71,5.45,5.45,0,0,1-.07-.92V28.55a3.81,3.81,0,0,0-.19-1.29,1.75,1.75,0,0,0-.53-.82,1.35,1.35,0,0,0-.9-.29,1.56,1.56,0,0,0-1.58,1.07,3.92,3.92,0,0,0-.2,1.35v4.48a3.62,3.62,0,0,1-.13.94,1.15,1.15,0,0,1-.54.69,2.35,2.35,0,0,1-1.33.24,2.09,2.09,0,0,1-1.25-.29,1.12,1.12,0,0,1-.45-.72,5.26,5.26,0,0,1-.08-.89V28.55a4.28,4.28,0,0,0-.18-1.31,1.69,1.69,0,0,0-.52-.82,1.49,1.49,0,0,0-.93-.28,1.54,1.54,0,0,0-1,.33,1.82,1.82,0,0,0-.59.86,3.53,3.53,0,0,0-.19,1.21V33a4.52,4.52,0,0,1-.09.93,1.08,1.08,0,0,1-.49.69A2.57,2.57,0,0,1,259.81,34.92Z"/><path class="cls-3" d="M284.73,35.16a7.25,7.25,0,0,1-3-.58,5.84,5.84,0,0,1-2.06-1.51,6.25,6.25,0,0,1-1.2-2.09,6.92,6.92,0,0,1-.4-2.3,6.45,6.45,0,0,1,.85-3.33,6.19,6.19,0,0,1,2.37-2.28,7,7,0,0,1,3.46-.84,6.24,6.24,0,0,1,2.51.47A5.08,5.08,0,0,1,289,23.9a4.89,4.89,0,0,1,1,1.59,4.25,4.25,0,0,1,.34,1.62,2.82,2.82,0,0,1-.66,2.05,2.28,2.28,0,0,1-1.69.67h-5.95a1.77,1.77,0,0,0,.46,1.08,2.85,2.85,0,0,0,1,.7,3.64,3.64,0,0,0,1.32.25,8.1,8.1,0,0,0,1-.06,4.43,4.43,0,0,0,.79-.18l.59-.22a4.32,4.32,0,0,1,.48-.19,2.41,2.41,0,0,1,.43-.1,1,1,0,0,1,.67.21,2.11,2.11,0,0,1,.58.71,2.43,2.43,0,0,1,.24.53,2.14,2.14,0,0,1,.06.5,1.35,1.35,0,0,1-.62,1.09,4.61,4.61,0,0,1-1.72.73A11,11,0,0,1,284.73,35.16Zm-2.67-7.4H286a1.06,1.06,0,0,0,.58-.14.62.62,0,0,0,.19-.54,1.17,1.17,0,0,0-.27-.77,1.72,1.72,0,0,0-.74-.54,2.74,2.74,0,0,0-1.08-.19,3,3,0,0,0-1.35.3,2.39,2.39,0,0,0-.94.8A1.84,1.84,0,0,0,282.06,27.76Z"/><path class="cls-3" d="M294.33,34.94a2.37,2.37,0,0,1-1.31-.27,1.07,1.07,0,0,1-.48-.71,5.62,5.62,0,0,1-.08-.92V24.31a4.42,4.42,0,0,1,.09-.92,1,1,0,0,1,.49-.69,2.45,2.45,0,0,1,1.32-.26,2.52,2.52,0,0,1,1.27.24,1,1,0,0,1,.48.55,1.68,1.68,0,0,1,.1.53l-.3.15c0-.06.12-.18.26-.36a4,4,0,0,1,.59-.55,3.79,3.79,0,0,1,.92-.49,3.57,3.57,0,0,1,1.23-.19l.62,0a5.2,5.2,0,0,1,.7.15,3.32,3.32,0,0,1,.66.3,1.54,1.54,0,0,1,.48.47,1.13,1.13,0,0,1,.19.67,3.12,3.12,0,0,1-.47,1.74,1.42,1.42,0,0,1-1.2.71,2,2,0,0,1-.6-.06.87.87,0,0,1-.29-.15,1.1,1.1,0,0,0-.26-.15,1.65,1.65,0,0,0-.55-.07,2.84,2.84,0,0,0-.72.1,2.15,2.15,0,0,0-.62.32,1.45,1.45,0,0,0-.61,1.23v5.48a4.46,4.46,0,0,1-.09.91,1.06,1.06,0,0,1-.48.69A2.6,2.6,0,0,1,294.33,34.94Z"/><path class="cls-3" d="M309.53,35.15a6.3,6.3,0,0,1-2.34-.47,7,7,0,0,1-2.11-1.31,6.38,6.38,0,0,1-1.51-2,6.47,6.47,0,0,1-.05-5.15,6.78,6.78,0,0,1,1.42-2.06A6.63,6.63,0,0,1,307,22.71a6.13,6.13,0,0,1,2.49-.51,6.33,6.33,0,0,1,3.26.86,6.72,6.72,0,0,1,2.34,2.34,6.36,6.36,0,0,1-1.2,8,6.53,6.53,0,0,1-4.36,1.73Zm0-3.78a2.85,2.85,0,0,0,1.23-.3,2.81,2.81,0,0,0,1.05-.9,2.57,2.57,0,0,0,.42-1.52,2.65,2.65,0,0,0-.35-1.4,2.48,2.48,0,0,0-1-.94,2.83,2.83,0,0,0-1.41-.34,2.6,2.6,0,0,0-1.34.35,2.65,2.65,0,0,0-.95,1,2.93,2.93,0,0,0,.05,2.9,2.43,2.43,0,0,0,1,.9A2.76,2.76,0,0,0,309.48,31.37Z"/><path class="cls-3" d="M330.23,35.21a6.23,6.23,0,0,1-3.3-.84,5.39,5.39,0,0,1-2.11-2.44,9.1,9.1,0,0,1-.74-3.82,13.62,13.62,0,0,1,.46-3.55,10.58,10.58,0,0,1,1.29-2.94,8.67,8.67,0,0,1,2-2.24A9,9,0,0,1,330.52,18a10,10,0,0,1,3.2-.5,4.1,4.1,0,0,1,.88.09,1.06,1.06,0,0,1,.68.49,2.54,2.54,0,0,1,.26,1.32,2.37,2.37,0,0,1-.28,1.33,1.08,1.08,0,0,1-.71.48,4.62,4.62,0,0,1-.94.09,6.16,6.16,0,0,0-2.06.31,5.15,5.15,0,0,0-1.51.81,5.47,5.47,0,0,0-1,1.08,4.67,4.67,0,0,0-.59,1.12,3.13,3.13,0,0,0-.18.93l-.33-.08a1.2,1.2,0,0,1,.44-.45,3.43,3.43,0,0,1,.9-.41,3.92,3.92,0,0,1,1.16-.16,5.79,5.79,0,0,1,2.85.7,5.5,5.5,0,0,1,2,1.86,4.69,4.69,0,0,1,.75,2.59,5.64,5.64,0,0,1-.75,2.89,5.36,5.36,0,0,1-2.07,2A6.07,6.07,0,0,1,330.23,35.21Zm-.1-3.55a3,3,0,0,0,1.19-.22,1.56,1.56,0,0,0,.73-.68,2.32,2.32,0,0,0,.23-1.05,2.07,2.07,0,0,0-.23-1,1.7,1.7,0,0,0-.7-.65,2.28,2.28,0,0,0-1.07-.24,2.86,2.86,0,0,0-1.2.24,1.74,1.74,0,0,0-.78.64,1.58,1.58,0,0,0-.27.92,2.42,2.42,0,0,0,.23,1.1,1.54,1.54,0,0,0,.69.69A2.53,2.53,0,0,0,330.13,31.66Z"/><path class="cls-2" d="M136,17.34a3.84,3.84,0,0,1,.79.08.92.92,0,0,1,.59.42,2.24,2.24,0,0,1,.22,1.15,2.16,2.16,0,0,1-.22,1.13.91.91,0,0,1-.6.42,4.09,4.09,0,0,1-.8.08h-4V33a4.31,4.31,0,0,1-.08.9,1.1,1.1,0,0,1-.48.69,2.55,2.55,0,0,1-1.34.26,2.43,2.43,0,0,1-1.27-.26,1.08,1.08,0,0,1-.49-.7,4.63,4.63,0,0,1-.09-.92V20.61h-4a3.25,3.25,0,0,1-.77-.09,1.06,1.06,0,0,1-.62-.42,2.16,2.16,0,0,1-.23-1.14,2.06,2.06,0,0,1,.24-1.13.93.93,0,0,1,.61-.42,3.94,3.94,0,0,1,.77-.07Z"/><path class="cls-2" d="M141.56,34.85a2.35,2.35,0,0,1-1.31-.27,1.07,1.07,0,0,1-.48-.71,4.73,4.73,0,0,1-.09-.93V24.22a4.59,4.59,0,0,1,.09-.93,1,1,0,0,1,.49-.68,2.42,2.42,0,0,1,1.32-.26,2.63,2.63,0,0,1,1.26.23,1.1,1.1,0,0,1,.49.55,1.73,1.73,0,0,1,.1.54l-.3.15a2.48,2.48,0,0,1,.26-.36,3.2,3.2,0,0,1,.59-.55,3.71,3.71,0,0,1,.91-.49,3.62,3.62,0,0,1,1.24-.2c.18,0,.39,0,.61,0a4.62,4.62,0,0,1,.7.15,3.41,3.41,0,0,1,.67.3,1.63,1.63,0,0,1,.48.46,1.16,1.16,0,0,1,.19.68,3.06,3.06,0,0,1-.48,1.74,1.4,1.4,0,0,1-1.2.71,2.11,2.11,0,0,1-.6-.06,1.21,1.21,0,0,1-.28-.15,1.17,1.17,0,0,0-.27-.15,1.39,1.39,0,0,0-.55-.07,2.77,2.77,0,0,0-.71.1,1.93,1.93,0,0,0-.62.32,1.32,1.32,0,0,0-.45.52,1.52,1.52,0,0,0-.17.71V33a4.53,4.53,0,0,1-.09.91,1,1,0,0,1-.49.69A2.67,2.67,0,0,1,141.56,34.85Z"/><path class="cls-2" d="M161,34.83a2.42,2.42,0,0,1-1.38-.32.9.9,0,0,1-.42-.8l.25-.43a2.59,2.59,0,0,1-.58.61,3.87,3.87,0,0,1-1.11.65,4.33,4.33,0,0,1-1.66.29,5,5,0,0,1-2.19-.5A6.17,6.17,0,0,1,152,32.94a7.21,7.21,0,0,1-1.27-2,6.16,6.16,0,0,1,0-4.72,6.72,6.72,0,0,1,1.29-2,6.37,6.37,0,0,1,1.84-1.36,4.94,4.94,0,0,1,2.18-.5,4.05,4.05,0,0,1,2.66.88,3.18,3.18,0,0,1,.66.67l-.23-.35a1.05,1.05,0,0,1,.44-.91,2.42,2.42,0,0,1,1.39-.31,2.34,2.34,0,0,1,1.29.27,1.15,1.15,0,0,1,.47.73,4.86,4.86,0,0,1,.09.95v8.62a5.64,5.64,0,0,1-.08.93,1.07,1.07,0,0,1-.48.71A2.41,2.41,0,0,1,161,34.83Zm-4.38-3.72a2.19,2.19,0,0,0,1.2-.34,2.59,2.59,0,0,0,.86-.91,2.74,2.74,0,0,0,0-2.57,2.4,2.4,0,0,0-.88-.88,2.3,2.3,0,0,0-1.22-.33,2.33,2.33,0,0,0-1.26.34A2.48,2.48,0,0,0,154,28.63a2.42,2.42,0,0,0,.33,1.24,2.6,2.6,0,0,0,2.21,1.24Z"/><path class="cls-2" d="M166.71,34.86a1.76,1.76,0,0,1-1.31-.54,1.8,1.8,0,0,1-.54-1.33,2,2,0,0,1,.14-.73,1.81,1.81,0,0,1,.41-.62l5.68-5.5h-3.8a4.45,4.45,0,0,1-.91-.1,1.22,1.22,0,0,1-.73-.49,2.28,2.28,0,0,1-.29-1.31,2.3,2.3,0,0,1,.29-1.32,1.17,1.17,0,0,1,.73-.47,4.46,4.46,0,0,1,.91-.09h7.82A1.78,1.78,0,0,1,177,24.22a2.17,2.17,0,0,1-.13.76,1.69,1.69,0,0,1-.39.59l-5.56,5.52h4.53a4.4,4.4,0,0,1,.92.1,1.12,1.12,0,0,1,.69.5,2.49,2.49,0,0,1,.26,1.33,2.4,2.4,0,0,1-.27,1.3,1.1,1.1,0,0,1-.7.47,5.37,5.37,0,0,1-.93.08Z"/><path class="cls-2" d="M189.53,34.85a2.33,2.33,0,0,1-1.37-.33.91.91,0,0,1-.43-.8l.25-.42a2.72,2.72,0,0,1-.57.61,4.35,4.35,0,0,1-1.12.65,4.29,4.29,0,0,1-1.66.29,5,5,0,0,1-2.18-.5A5.93,5.93,0,0,1,180.61,33a7.3,7.3,0,0,1-1.28-2,6.15,6.15,0,0,1-.47-2.37,5.83,5.83,0,0,1,.48-2.34,6.34,6.34,0,0,1,1.29-2,6.15,6.15,0,0,1,1.83-1.36,4.84,4.84,0,0,1,2.18-.5,4.26,4.26,0,0,1,1.57.26,4.45,4.45,0,0,1,1.09.61A3.45,3.45,0,0,1,188,24l-.22-.35a1,1,0,0,1,.44-.91,3.22,3.22,0,0,1,2.67,0,1.14,1.14,0,0,1,.48.73,4.81,4.81,0,0,1,.08.95V33a4.73,4.73,0,0,1-.09.93,1.12,1.12,0,0,1-.47.71A2.52,2.52,0,0,1,189.53,34.85Zm-4.37-3.73a2.21,2.21,0,0,0,1.2-.33,2.6,2.6,0,0,0,.85-.92,2.48,2.48,0,0,0,.33-1.27,2.53,2.53,0,0,0-.33-1.29,2.47,2.47,0,0,0-3.36-.88,2.56,2.56,0,0,0-.9.92,2.45,2.45,0,0,0-.34,1.3,2.28,2.28,0,0,0,.34,1.23,2.41,2.41,0,0,0,.92.9A2.49,2.49,0,0,0,185.16,31.12Z"/><path class="cls-2" d="M206.63,35.11a7.12,7.12,0,0,1-3-.58A5.84,5.84,0,0,1,201.56,33a6.61,6.61,0,0,1-1.2-2.09,6.88,6.88,0,0,1-.4-2.3,6.38,6.38,0,0,1,.85-3.32A6.14,6.14,0,0,1,203.18,23a6.9,6.9,0,0,1,3.46-.83,6.22,6.22,0,0,1,2.51.46,5.23,5.23,0,0,1,1.75,1.2,5.1,5.1,0,0,1,1,1.59,4.5,4.5,0,0,1,.33,1.62,2.82,2.82,0,0,1-.66,2.05,2.28,2.28,0,0,1-1.69.68H204a1.77,1.77,0,0,0,.46,1.08,2.85,2.85,0,0,0,1,.7,3.48,3.48,0,0,0,1.32.25,8.1,8.1,0,0,0,1-.06,3.7,3.7,0,0,0,.79-.18c.22-.07.41-.15.59-.22a4.32,4.32,0,0,1,.48-.19,2.63,2.63,0,0,1,.43-.1,1,1,0,0,1,.67.22,1.93,1.93,0,0,1,.58.71,2,2,0,0,1,.24.52,2.2,2.2,0,0,1,.06.5,1.36,1.36,0,0,1-.61,1.09,4.91,4.91,0,0,1-1.73.74A11.56,11.56,0,0,1,206.63,35.11ZM204,27.71h3.95a1,1,0,0,0,.58-.14.61.61,0,0,0,.2-.53,1.19,1.19,0,0,0-.28-.78,1.84,1.84,0,0,0-.73-.54,3.26,3.26,0,0,0-1.09-.19,3,3,0,0,0-1.35.3,2.39,2.39,0,0,0-.94.8A1.89,1.89,0,0,0,204,27.71Z"/><path class="cls-2" d="M219.16,34.89a14.2,14.2,0,0,1-1.83-.1,3.9,3.9,0,0,1-1.35-.4,2.58,2.58,0,0,1-.9-.84,3.92,3.92,0,0,1-.52-1.37,10.07,10.07,0,0,1-.18-2.07V18.56a4.4,4.4,0,0,1,.1-.92,1.18,1.18,0,0,1,.49-.7,2.39,2.39,0,0,1,1.31-.27,2.34,2.34,0,0,1,1.29.27,1.21,1.21,0,0,1,.49.7,4.49,4.49,0,0,1,.1.93V29.94a4,4,0,0,0,0,.66.8.8,0,0,0,.15.42.56.56,0,0,0,.31.2,2.4,2.4,0,0,0,.52.05,2.68,2.68,0,0,1,.62.07.9.9,0,0,1,.53.45,2.56,2.56,0,0,1,.23,1.25,2.76,2.76,0,0,1-.23,1.3.88.88,0,0,1-.54.48A2.65,2.65,0,0,1,219.16,34.89Z"/><path class="cls-2" d="M230.78,34.87a2.38,2.38,0,0,1-1.31-.26,1.07,1.07,0,0,1-.48-.7,5.31,5.31,0,0,1-.08-.91V24.2a4.19,4.19,0,0,1,.09-.89,1,1,0,0,1,.49-.66,2.58,2.58,0,0,1,1.32-.25,2.51,2.51,0,0,1,1.18.21,1.06,1.06,0,0,1,.49.52,1.68,1.68,0,0,1,.11.56.8.8,0,0,0,0,.36l-.15.48a1.45,1.45,0,0,1,.39-.77,3.57,3.57,0,0,1,.85-.7,4.7,4.7,0,0,1,1.1-.48A4,4,0,0,1,236,22.4a5.05,5.05,0,0,1,2.14.44,4.29,4.29,0,0,1,1.58,1.26,5.74,5.74,0,0,1,1,1.94,8.61,8.61,0,0,1,.34,2.44V33a5.31,5.31,0,0,1-.08.91,1,1,0,0,1-.48.69,2.57,2.57,0,0,1-1.34.25,2.54,2.54,0,0,1-1.32-.26,1.08,1.08,0,0,1-.49-.7,4.63,4.63,0,0,1-.09-.92V28.48A2.78,2.78,0,0,0,237,27.2a1.81,1.81,0,0,0-.75-.8,2.43,2.43,0,0,0-1.21-.27,2.59,2.59,0,0,0-1.25.28,2.06,2.06,0,0,0-.81.82,2.57,2.57,0,0,0-.29,1.25V33a4.53,4.53,0,0,1-.09.91,1.06,1.06,0,0,1-.48.69A2.49,2.49,0,0,1,230.78,34.87Z"/><path class="cls-2" d="M248.86,34.89a5.31,5.31,0,0,1-3.93-1.72,5.75,5.75,0,0,1-1.16-1.93,7,7,0,0,1-.41-2.43V24.28a4.42,4.42,0,0,1,.09-.92,1.08,1.08,0,0,1,.49-.7,2.33,2.33,0,0,1,1.32-.28,2.4,2.4,0,0,1,1.32.28,1.14,1.14,0,0,1,.47.71,4.69,4.69,0,0,1,.09.94v4.5a2.78,2.78,0,0,0,.27,1.26,1.8,1.8,0,0,0,.77.82,2.57,2.57,0,0,0,1.21.27,2.4,2.4,0,0,0,1.24-.29,2,2,0,0,0,.8-.81,2.57,2.57,0,0,0,.29-1.25V24.26a4.42,4.42,0,0,1,.09-.92,1,1,0,0,1,.49-.69,2.57,2.57,0,0,1,1.32-.26,2.41,2.41,0,0,1,1.32.27,1.19,1.19,0,0,1,.47.72,4.46,4.46,0,0,1,.09.91v8.8a4.19,4.19,0,0,1-.09.89,1,1,0,0,1-.48.66,2.52,2.52,0,0,1-1.3.25,2.92,2.92,0,0,1-1.05-.15,1.25,1.25,0,0,1-.55-.38,1.06,1.06,0,0,1-.22-.47,3.91,3.91,0,0,1,0-.45l.32-.28a2.91,2.91,0,0,1-.32.39,5.29,5.29,0,0,1-.67.57,4,4,0,0,1-1,.54A3.34,3.34,0,0,1,248.86,34.89Zm-.4-13.38a.83.83,0,0,1-.73-.25,2.49,2.49,0,0,1-.51-1,2,2,0,0,1-.1-1.3,1.39,1.39,0,0,1,.92-.68l4.4-1.34a.88.88,0,0,1,.73.29,2.4,2.4,0,0,1,.5,1,1.88,1.88,0,0,1,.08,1.28,1.32,1.32,0,0,1-.91.67Z"/><path class="cls-2" d="M259.81,34.92a2.36,2.36,0,0,1-1.3-.28,1.05,1.05,0,0,1-.48-.7A5.29,5.29,0,0,1,258,33V24.27a4.29,4.29,0,0,1,.09-.9,1,1,0,0,1,.49-.69,2.47,2.47,0,0,1,1.32-.26,2.06,2.06,0,0,1,1.35.36,1.47,1.47,0,0,1,.43,1.19l-.33.27a3,3,0,0,1,.3-.42,5.64,5.64,0,0,1,.65-.63,4.49,4.49,0,0,1,.94-.56,2.83,2.83,0,0,1,1.16-.24,4.61,4.61,0,0,1,1.49.24,4,4,0,0,1,1.2.7A4.43,4.43,0,0,1,268,24.5a5.84,5.84,0,0,1,.85-1,4.74,4.74,0,0,1,1.17-.8,3.58,3.58,0,0,1,1.53-.32,4.15,4.15,0,0,1,2.49.74,4.56,4.56,0,0,1,1.53,2.11,9.38,9.38,0,0,1,.53,3.33v4.47a3.85,3.85,0,0,1-.1.91,1.1,1.1,0,0,1-.49.7,2.35,2.35,0,0,1-1.31.27,2.42,2.42,0,0,1-1.32-.28,1,1,0,0,1-.48-.71,5.45,5.45,0,0,1-.07-.92V28.55a3.81,3.81,0,0,0-.19-1.29,1.75,1.75,0,0,0-.53-.82,1.35,1.35,0,0,0-.9-.29,1.56,1.56,0,0,0-1.58,1.07,3.92,3.92,0,0,0-.2,1.35v4.48a3.62,3.62,0,0,1-.13.94,1.15,1.15,0,0,1-.54.69,2.35,2.35,0,0,1-1.33.24,2.09,2.09,0,0,1-1.25-.29,1.12,1.12,0,0,1-.45-.72,5.26,5.26,0,0,1-.08-.89V28.55a4.28,4.28,0,0,0-.18-1.31,1.69,1.69,0,0,0-.52-.82,1.49,1.49,0,0,0-.93-.28,1.54,1.54,0,0,0-1,.33,1.82,1.82,0,0,0-.59.86,3.53,3.53,0,0,0-.19,1.21V33a4.52,4.52,0,0,1-.09.93,1.08,1.08,0,0,1-.49.69A2.57,2.57,0,0,1,259.81,34.92Z"/><path class="cls-2" d="M284.73,35.16a7.25,7.25,0,0,1-3-.58,5.84,5.84,0,0,1-2.06-1.51,6.25,6.25,0,0,1-1.2-2.09,6.92,6.92,0,0,1-.4-2.3,6.45,6.45,0,0,1,.85-3.33,6.19,6.19,0,0,1,2.37-2.28,7,7,0,0,1,3.46-.84,6.24,6.24,0,0,1,2.51.47A5.08,5.08,0,0,1,289,23.9a4.89,4.89,0,0,1,1,1.59,4.25,4.25,0,0,1,.34,1.62,2.82,2.82,0,0,1-.66,2.05,2.28,2.28,0,0,1-1.69.67h-5.95a1.77,1.77,0,0,0,.46,1.08,2.85,2.85,0,0,0,1,.7,3.64,3.64,0,0,0,1.32.25,8.1,8.1,0,0,0,1-.06,4.43,4.43,0,0,0,.79-.18l.59-.22a4.32,4.32,0,0,1,.48-.19,2.41,2.41,0,0,1,.43-.1,1,1,0,0,1,.67.21,2.11,2.11,0,0,1,.58.71,2.43,2.43,0,0,1,.24.53,2.14,2.14,0,0,1,.06.5,1.35,1.35,0,0,1-.62,1.09,4.61,4.61,0,0,1-1.72.73A11,11,0,0,1,284.73,35.16Zm-2.67-7.4H286a1.06,1.06,0,0,0,.58-.14.62.62,0,0,0,.19-.54,1.17,1.17,0,0,0-.27-.77,1.72,1.72,0,0,0-.74-.54,2.74,2.74,0,0,0-1.08-.19,3,3,0,0,0-1.35.3,2.39,2.39,0,0,0-.94.8A1.84,1.84,0,0,0,282.06,27.76Z"/><path class="cls-2" d="M294.33,34.94a2.37,2.37,0,0,1-1.31-.27,1.07,1.07,0,0,1-.48-.71,5.62,5.62,0,0,1-.08-.92V24.31a4.42,4.42,0,0,1,.09-.92,1,1,0,0,1,.49-.69,2.45,2.45,0,0,1,1.32-.26,2.52,2.52,0,0,1,1.27.24,1,1,0,0,1,.48.55,1.68,1.68,0,0,1,.1.53l-.3.15c0-.06.12-.18.26-.36a4,4,0,0,1,.59-.55,3.79,3.79,0,0,1,.92-.49,3.57,3.57,0,0,1,1.23-.19l.62,0a5.2,5.2,0,0,1,.7.15,3.32,3.32,0,0,1,.66.3,1.54,1.54,0,0,1,.48.47,1.13,1.13,0,0,1,.19.67,3.12,3.12,0,0,1-.47,1.74,1.42,1.42,0,0,1-1.2.71,2,2,0,0,1-.6-.06.87.87,0,0,1-.29-.15,1.1,1.1,0,0,0-.26-.15,1.65,1.65,0,0,0-.55-.07,2.84,2.84,0,0,0-.72.1,2.15,2.15,0,0,0-.62.32,1.45,1.45,0,0,0-.61,1.23v5.48a4.46,4.46,0,0,1-.09.91,1.06,1.06,0,0,1-.48.69A2.6,2.6,0,0,1,294.33,34.94Z"/><path class="cls-2" d="M309.53,35.15a6.3,6.3,0,0,1-2.34-.47,7,7,0,0,1-2.11-1.31,6.38,6.38,0,0,1-1.51-2,6.47,6.47,0,0,1-.05-5.15,6.78,6.78,0,0,1,1.42-2.06A6.63,6.63,0,0,1,307,22.71a6.13,6.13,0,0,1,2.49-.51,6.33,6.33,0,0,1,3.26.86,6.72,6.72,0,0,1,2.34,2.34,6.36,6.36,0,0,1-1.2,8,6.53,6.53,0,0,1-4.36,1.73Zm0-3.78a2.85,2.85,0,0,0,1.23-.3,2.81,2.81,0,0,0,1.05-.9,2.57,2.57,0,0,0,.42-1.52,2.65,2.65,0,0,0-.35-1.4,2.48,2.48,0,0,0-1-.94,2.83,2.83,0,0,0-1.41-.34,2.6,2.6,0,0,0-1.34.35,2.65,2.65,0,0,0-.95,1,2.93,2.93,0,0,0,.05,2.9,2.43,2.43,0,0,0,1,.9A2.76,2.76,0,0,0,309.48,31.37Z"/><path class="cls-2" d="M330.23,35.21a6.23,6.23,0,0,1-3.3-.84,5.39,5.39,0,0,1-2.11-2.44,9.1,9.1,0,0,1-.74-3.82,13.62,13.62,0,0,1,.46-3.55,10.58,10.58,0,0,1,1.29-2.94,8.67,8.67,0,0,1,2-2.24A9,9,0,0,1,330.52,18a10,10,0,0,1,3.2-.5,4.1,4.1,0,0,1,.88.09,1.06,1.06,0,0,1,.68.49,2.54,2.54,0,0,1,.26,1.32,2.37,2.37,0,0,1-.28,1.33,1.08,1.08,0,0,1-.71.48,4.62,4.62,0,0,1-.94.09,6.16,6.16,0,0,0-2.06.31,5.15,5.15,0,0,0-1.51.81,5.47,5.47,0,0,0-1,1.08,4.67,4.67,0,0,0-.59,1.12,3.13,3.13,0,0,0-.18.93l-.33-.08a1.2,1.2,0,0,1,.44-.45,3.43,3.43,0,0,1,.9-.41,3.92,3.92,0,0,1,1.16-.16,5.79,5.79,0,0,1,2.85.7,5.5,5.5,0,0,1,2,1.86,4.69,4.69,0,0,1,.75,2.59,5.64,5.64,0,0,1-.75,2.89,5.36,5.36,0,0,1-2.07,2A6.07,6.07,0,0,1,330.23,35.21Zm-.1-3.55a3,3,0,0,0,1.19-.22,1.56,1.56,0,0,0,.73-.68,2.32,2.32,0,0,0,.23-1.05,2.07,2.07,0,0,0-.23-1,1.7,1.7,0,0,0-.7-.65,2.28,2.28,0,0,0-1.07-.24,2.86,2.86,0,0,0-1.2.24,1.74,1.74,0,0,0-.78.64,1.58,1.58,0,0,0-.27.92,2.42,2.42,0,0,0,.23,1.1,1.54,1.54,0,0,0,.69.69A2.53,2.53,0,0,0,330.13,31.66Z"/><path class="cls-4" d="M50.62,24.88a13.9,13.9,0,0,1,4.12-.67,10,10,0,0,1,4.6,1,8,8,0,0,1,3.2,2.86,7.54,7.54,0,0,1,1.16,4.13,11,11,0,0,1-1.29,5.4,8.64,8.64,0,0,1-3.55,3.49,11,11,0,0,1-5.24,1.19,14.59,14.59,0,0,1-4.21-.56,9.57,9.57,0,0,1-3.18-1.58A11.51,11.51,0,0,1,44,37.9a9.48,9.48,0,0,1-1.4-2.83A20.15,20.15,0,0,1,41.92,32a21.09,21.09,0,0,1-.22-3.11,22.48,22.48,0,0,1,.78-6.17,13.88,13.88,0,0,1,2.41-4.83,10.53,10.53,0,0,1,4.38-3.26,16.71,16.71,0,0,1,6.5-1.15,9.91,9.91,0,0,1,5.5,1.45,4.3,4.3,0,0,1,2.23,3.72,4,4,0,0,1-.88,2.54,2.82,2.82,0,0,1-2.34,1.11,6.09,6.09,0,0,1-2.18-.67,6.54,6.54,0,0,0-2.67-.67,5,5,0,0,0-4.81,3.94Zm4.72,8a8.82,8.82,0,0,0-.52-3.17c-.36-.91-.86-1.36-1.51-1.36s-1.22.46-1.61,1.38a7.9,7.9,0,0,0-.59,3.15,7.2,7.2,0,0,0,.56,3,1.79,1.79,0,0,0,1.61,1.29,1.68,1.68,0,0,0,1.55-1.26A8,8,0,0,0,55.34,32.86Z"/><path class="cls-5" d="M50.62,24.88a13.9,13.9,0,0,1,4.12-.67,10,10,0,0,1,4.6,1,8,8,0,0,1,3.2,2.86,7.54,7.54,0,0,1,1.16,4.13,11,11,0,0,1-1.29,5.4,8.64,8.64,0,0,1-3.55,3.49,11,11,0,0,1-5.24,1.19,14.59,14.59,0,0,1-4.21-.56,9.57,9.57,0,0,1-3.18-1.58A11.51,11.51,0,0,1,44,37.9a9.48,9.48,0,0,1-1.4-2.83A20.15,20.15,0,0,1,41.92,32a21.09,21.09,0,0,1-.22-3.11,22.48,22.48,0,0,1,.78-6.17,13.88,13.88,0,0,1,2.41-4.83,10.53,10.53,0,0,1,4.38-3.26,16.71,16.71,0,0,1,6.5-1.15,9.91,9.91,0,0,1,5.5,1.45,4.3,4.3,0,0,1,2.23,3.72,4,4,0,0,1-.88,2.54,2.82,2.82,0,0,1-2.34,1.11,6.09,6.09,0,0,1-2.18-.67,6.54,6.54,0,0,0-2.67-.67,5,5,0,0,0-4.81,3.94Zm4.72,8a8.82,8.82,0,0,0-.52-3.17c-.36-.91-.86-1.36-1.51-1.36s-1.22.46-1.61,1.38a7.9,7.9,0,0,0-.59,3.15,7.2,7.2,0,0,0,.56,3,1.79,1.79,0,0,0,1.61,1.29,1.68,1.68,0,0,0,1.55-1.26A8,8,0,0,0,55.34,32.86Z"/></g></g></svg>