<svg xmlns="http://www.w3.org/2000/svg" viewBox="0 0 399.98 85.91"><defs><style>.cls-1{fill:#512573;}.cls-2{fill:#fff;}.cls-3,.cls-4{fill:none;stroke-width:5px;}.cls-3{stroke:#ff7300;stroke-linejoin:round;}.cls-4{stroke:#fff;}.cls-5{fill:#ff7300;}</style></defs><title>40tv</title><g id="Layer_2" data-name="Layer 2"><g id="pestaña_identificativa" data-name="pestaña identificativa"><rect class="cls-1" width="399.98" height="85.91" rx="32.4"/><path class="cls-2" d="M124.17,17.34a3.81,3.81,0,0,1,.78.08.92.92,0,0,1,.59.42,2.24,2.24,0,0,1,.22,1.15,2.16,2.16,0,0,1-.22,1.13.91.91,0,0,1-.6.42,4.09,4.09,0,0,1-.8.08h-4V33a4.29,4.29,0,0,1-.09.9,1.1,1.1,0,0,1-.48.69,2.55,2.55,0,0,1-1.34.26,2.43,2.43,0,0,1-1.27-.26,1.08,1.08,0,0,1-.49-.7,4.63,4.63,0,0,1-.08-.92V20.61h-4a3.31,3.31,0,0,1-.77-.09,1,1,0,0,1-.61-.42,2.06,2.06,0,0,1-.24-1.14,2.06,2.06,0,0,1,.24-1.13,1,1,0,0,1,.61-.42,3.94,3.94,0,0,1,.77-.07Z"/><path class="cls-2" d="M129.73,34.85a2.37,2.37,0,0,1-1.31-.27,1.07,1.07,0,0,1-.48-.71,4.7,4.7,0,0,1-.09-.92V24.22a4.59,4.59,0,0,1,.09-.93,1,1,0,0,1,.49-.68,2.42,2.42,0,0,1,1.32-.26,2.63,2.63,0,0,1,1.26.23,1.07,1.07,0,0,1,.49.56,1.63,1.63,0,0,1,.1.53l-.3.15a3.22,3.22,0,0,1,.26-.36,4,4,0,0,1,.59-.55,3.9,3.9,0,0,1,.91-.49,3.62,3.62,0,0,1,1.24-.2c.19,0,.39,0,.61,0a4.62,4.62,0,0,1,.7.15,3.16,3.16,0,0,1,.67.3,1.54,1.54,0,0,1,.48.47,1.11,1.11,0,0,1,.19.67,3.06,3.06,0,0,1-.48,1.74,1.4,1.4,0,0,1-1.2.71,2.11,2.11,0,0,1-.6-.06.92.92,0,0,1-.28-.15,1.17,1.17,0,0,0-.27-.15,1.58,1.58,0,0,0-.54-.07,2.84,2.84,0,0,0-.72.1,1.93,1.93,0,0,0-.62.32,1.41,1.41,0,0,0-.45.52,1.52,1.52,0,0,0-.17.71V33a4.53,4.53,0,0,1-.09.91,1,1,0,0,1-.49.69A2.64,2.64,0,0,1,129.73,34.85Z"/><path class="cls-2" d="M149.13,34.83a2.42,2.42,0,0,1-1.38-.32.9.9,0,0,1-.42-.8l.25-.43a2.72,2.72,0,0,1-.57.61,4.08,4.08,0,0,1-1.12.65,4.33,4.33,0,0,1-1.66.29,5,5,0,0,1-2.19-.5,6,6,0,0,1-1.84-1.39,7.21,7.21,0,0,1-1.27-2,6.16,6.16,0,0,1,0-4.72,6.72,6.72,0,0,1,1.29-2,6.37,6.37,0,0,1,1.84-1.36,4.94,4.94,0,0,1,2.18-.5,4.05,4.05,0,0,1,2.66.88,3.43,3.43,0,0,1,.66.67l-.22-.35a1,1,0,0,1,.43-.91,2.44,2.44,0,0,1,1.39-.31,2.34,2.34,0,0,1,1.29.27,1.15,1.15,0,0,1,.47.73,4.86,4.86,0,0,1,.09.95v8.62a4.73,4.73,0,0,1-.09.93,1.07,1.07,0,0,1-.48.71A2.38,2.38,0,0,1,149.13,34.83Zm-4.37-3.72a2.21,2.21,0,0,0,1.2-.34,2.56,2.56,0,0,0,1.17-2.19,2.62,2.62,0,0,0-.32-1.29,2.4,2.4,0,0,0-.88-.88,2.3,2.3,0,0,0-1.22-.33,2.33,2.33,0,0,0-1.26.34,2.53,2.53,0,0,0-1.24,2.21,2.42,2.42,0,0,0,.33,1.24,2.67,2.67,0,0,0,.93.9A2.59,2.59,0,0,0,144.76,31.11Z"/><path class="cls-2" d="M154.88,34.86a1.77,1.77,0,0,1-1.31-.54A1.8,1.8,0,0,1,153,33a2,2,0,0,1,.14-.73,1.81,1.81,0,0,1,.41-.62l5.68-5.5h-3.8a4.45,4.45,0,0,1-.91-.1,1.25,1.25,0,0,1-.73-.49,2.28,2.28,0,0,1-.29-1.31,2.38,2.38,0,0,1,.29-1.32,1.21,1.21,0,0,1,.73-.47,4.46,4.46,0,0,1,.91-.09h7.83a1.79,1.79,0,0,1,1.32.52,1.76,1.76,0,0,1,.52,1.33A2.17,2.17,0,0,1,165,25a1.45,1.45,0,0,1-.39.59l-5.55,5.52h4.52a4.57,4.57,0,0,1,.93.1,1.13,1.13,0,0,1,.68.5,2.39,2.39,0,0,1,.26,1.33,2.4,2.4,0,0,1-.27,1.3,1.07,1.07,0,0,1-.7.47,5.37,5.37,0,0,1-.93.08Z"/><path class="cls-2" d="M177.7,34.85a2.33,2.33,0,0,1-1.37-.33.91.91,0,0,1-.43-.8l.25-.42a2.72,2.72,0,0,1-.57.61,4.11,4.11,0,0,1-1.11.65,4.38,4.38,0,0,1-1.67.29,5,5,0,0,1-2.18-.5A6,6,0,0,1,168.78,33a7,7,0,0,1-1.27-2,6,6,0,0,1-.48-2.37,5.83,5.83,0,0,1,.48-2.34,6.72,6.72,0,0,1,1.29-2,6.07,6.07,0,0,1,1.84-1.36,4.77,4.77,0,0,1,2.17-.5,4.35,4.35,0,0,1,1.58.26,4.57,4.57,0,0,1,1.08.61,3.18,3.18,0,0,1,.66.68l-.22-.35a1.05,1.05,0,0,1,.44-.91,2.4,2.4,0,0,1,1.39-.31,2.3,2.3,0,0,1,1.28.27,1.14,1.14,0,0,1,.48.73,4.79,4.79,0,0,1,.09.95V33a4.73,4.73,0,0,1-.09.93,1.12,1.12,0,0,1-.47.71A2.52,2.52,0,0,1,177.7,34.85Zm-4.37-3.73a2.21,2.21,0,0,0,1.2-.33,2.6,2.6,0,0,0,.85-.92,2.48,2.48,0,0,0,.33-1.27,2.53,2.53,0,0,0-.33-1.29,2.4,2.4,0,0,0-.87-.89,2.55,2.55,0,0,0-2.49,0,2.64,2.64,0,0,0-.9.92,2.54,2.54,0,0,0-.34,1.3,2.28,2.28,0,0,0,.34,1.23,2.41,2.41,0,0,0,.92.9A2.49,2.49,0,0,0,173.33,31.12Z"/><path class="cls-2" d="M194.8,35.11a7.12,7.12,0,0,1-3-.58A5.72,5.72,0,0,1,189.73,33a6.61,6.61,0,0,1-1.2-2.09,6.83,6.83,0,0,1-.4-2.3,6.48,6.48,0,0,1,.85-3.32A6.14,6.14,0,0,1,191.35,23a6.9,6.9,0,0,1,3.46-.83,6.22,6.22,0,0,1,2.51.46,5.23,5.23,0,0,1,1.75,1.2,5.1,5.1,0,0,1,1,1.59,4.5,4.5,0,0,1,.33,1.62,2.82,2.82,0,0,1-.66,2.05,2.28,2.28,0,0,1-1.69.68h-6a1.77,1.77,0,0,0,.46,1.08,2.85,2.85,0,0,0,1,.7,3.5,3.5,0,0,0,1.33.25,8.05,8.05,0,0,0,1-.06,3.7,3.7,0,0,0,.79-.18c.22-.07.41-.15.59-.22s.34-.14.48-.19a2.89,2.89,0,0,1,.43-.1,1.06,1.06,0,0,1,.68.22,2,2,0,0,1,.57.71,1.71,1.71,0,0,1,.24.52,2.2,2.2,0,0,1,.06.5,1.36,1.36,0,0,1-.61,1.09,4.91,4.91,0,0,1-1.73.74A11.56,11.56,0,0,1,194.8,35.11Zm-2.67-7.4h4a1,1,0,0,0,.58-.14.61.61,0,0,0,.2-.53,1.21,1.21,0,0,0-.28-.78,1.84,1.84,0,0,0-.73-.54,3.33,3.33,0,0,0-2.44.11,2.47,2.47,0,0,0-.94.8A2,2,0,0,0,192.13,27.71Z"/><path class="cls-2" d="M207.33,34.89a14.3,14.3,0,0,1-1.83-.1,3.9,3.9,0,0,1-1.35-.4,2.58,2.58,0,0,1-.9-.84,3.92,3.92,0,0,1-.52-1.37,10.11,10.11,0,0,1-.17-2.06V18.56a4.4,4.4,0,0,1,.1-.92,1.18,1.18,0,0,1,.49-.7,2.39,2.39,0,0,1,1.31-.27,2.34,2.34,0,0,1,1.29.27,1.21,1.21,0,0,1,.49.7,4.49,4.49,0,0,1,.1.93V29.94a4.22,4.22,0,0,0,0,.67.8.8,0,0,0,.15.41.56.56,0,0,0,.31.2,2.4,2.4,0,0,0,.52.05,2.68,2.68,0,0,1,.62.07.91.91,0,0,1,.54.45,2.7,2.7,0,0,1,.22,1.25,2.76,2.76,0,0,1-.23,1.3.89.89,0,0,1-.53.48A2.79,2.79,0,0,1,207.33,34.89Z"/><path class="cls-2" d="M219,34.88a2.49,2.49,0,0,1-1.31-.27,1,1,0,0,1-.47-.7,4.46,4.46,0,0,1-.09-.91V24.2a4.19,4.19,0,0,1,.09-.89,1,1,0,0,1,.49-.66A2.6,2.6,0,0,1,219,22.4a2.49,2.49,0,0,1,1.17.21,1.06,1.06,0,0,1,.49.52,1.68,1.68,0,0,1,.11.56,1,1,0,0,0,.05.36l-.15.48a1.45,1.45,0,0,1,.39-.77,3.78,3.78,0,0,1,.85-.7,4.7,4.7,0,0,1,1.1-.48,4,4,0,0,1,1.16-.18,5.05,5.05,0,0,1,2.14.44,4.32,4.32,0,0,1,1.58,1.27,5.6,5.6,0,0,1,1,1.93,8.61,8.61,0,0,1,.34,2.44V33a5.31,5.31,0,0,1-.08.91,1,1,0,0,1-.48.69,2.57,2.57,0,0,1-1.34.25,2.54,2.54,0,0,1-1.32-.26,1.08,1.08,0,0,1-.49-.7,4.56,4.56,0,0,1-.09-.92V28.48a2.78,2.78,0,0,0-.27-1.28,1.85,1.85,0,0,0-.74-.8,2.5,2.5,0,0,0-1.22-.27,2.59,2.59,0,0,0-1.25.28,2.06,2.06,0,0,0-.81.82,2.57,2.57,0,0,0-.29,1.25V33a4.53,4.53,0,0,1-.09.91,1.06,1.06,0,0,1-.48.69A2.57,2.57,0,0,1,219,34.88Z"/><path class="cls-2" d="M237,34.89a5.26,5.26,0,0,1-2.18-.46,5.43,5.43,0,0,1-1.75-1.26,5.8,5.8,0,0,1-1.16-1.92,7.14,7.14,0,0,1-.41-2.44V24.28a4.42,4.42,0,0,1,.09-.92,1.08,1.08,0,0,1,.49-.7,2.44,2.44,0,0,1,1.32-.28,2.4,2.4,0,0,1,1.32.28,1.1,1.1,0,0,1,.47.71,4.69,4.69,0,0,1,.09.94v4.5a2.78,2.78,0,0,0,.26,1.26,1.8,1.8,0,0,0,.77.82,2.57,2.57,0,0,0,1.21.27,2.4,2.4,0,0,0,1.24-.29,2,2,0,0,0,.8-.81,2.57,2.57,0,0,0,.29-1.25V24.26a4.42,4.42,0,0,1,.09-.92,1.06,1.06,0,0,1,.49-.69,2.57,2.57,0,0,1,1.32-.26,2.41,2.41,0,0,1,1.32.27,1.15,1.15,0,0,1,.47.72,4.46,4.46,0,0,1,.09.91v8.8a5,5,0,0,1-.08.89,1.06,1.06,0,0,1-.49.66,2.52,2.52,0,0,1-1.3.25,2.92,2.92,0,0,1-1.05-.15,1.25,1.25,0,0,1-.55-.38.94.94,0,0,1-.21-.47,2.57,2.57,0,0,1,0-.45l.32-.28a2.39,2.39,0,0,1-.32.39,5,5,0,0,1-.66.57,4.28,4.28,0,0,1-1,.54A3.31,3.31,0,0,1,237,34.89Zm-.39-13.38a.85.85,0,0,1-.74-.25,2.63,2.63,0,0,1-.51-1,2,2,0,0,1-.1-1.3,1.35,1.35,0,0,1,.92-.67l4.4-1.35a.88.88,0,0,1,.73.29,2.4,2.4,0,0,1,.5,1,2,2,0,0,1,.09,1.28,1.34,1.34,0,0,1-.92.67Z"/><path class="cls-2" d="M248,34.92a2.28,2.28,0,0,1-1.3-.28,1,1,0,0,1-.48-.7,5.29,5.29,0,0,1-.07-.92V24.27a4.29,4.29,0,0,1,.09-.9,1,1,0,0,1,.49-.69,2.47,2.47,0,0,1,1.32-.26,2.06,2.06,0,0,1,1.35.36,1.47,1.47,0,0,1,.43,1.19l-.33.27a3,3,0,0,1,.3-.42,5.64,5.64,0,0,1,.65-.63,4.49,4.49,0,0,1,.94-.56,2.83,2.83,0,0,1,1.16-.23,4.57,4.57,0,0,1,1.49.23,4,4,0,0,1,1.2.7,4.43,4.43,0,0,1,.94,1.17,6.34,6.34,0,0,1,.85-1,4.93,4.93,0,0,1,1.17-.8,3.58,3.58,0,0,1,1.53-.32,4.15,4.15,0,0,1,2.49.74,4.56,4.56,0,0,1,1.53,2.11,9.38,9.38,0,0,1,.53,3.33v4.47a3.85,3.85,0,0,1-.1.91,1.09,1.09,0,0,1-.48.7,3.31,3.31,0,0,1-2.64,0,1,1,0,0,1-.48-.71,5.45,5.45,0,0,1-.07-.92V28.55a3.81,3.81,0,0,0-.19-1.29,1.75,1.75,0,0,0-.53-.82,1.41,1.41,0,0,0-.9-.29,1.71,1.71,0,0,0-1,.27,1.77,1.77,0,0,0-.6.8,3.92,3.92,0,0,0-.2,1.35v4.48A3.24,3.24,0,0,1,257,34a1.17,1.17,0,0,1-.53.69,2.41,2.41,0,0,1-1.34.24,2.09,2.09,0,0,1-1.25-.29,1.12,1.12,0,0,1-.45-.72,5.26,5.26,0,0,1-.08-.89V28.55a4.16,4.16,0,0,0-.18-1.3,1.61,1.61,0,0,0-.52-.83,1.71,1.71,0,0,0-2,0,1.82,1.82,0,0,0-.59.86,3.53,3.53,0,0,0-.19,1.21V33a4.45,4.45,0,0,1-.09.93,1.08,1.08,0,0,1-.49.69A2.54,2.54,0,0,1,248,34.92Z"/><path class="cls-2" d="M272.9,35.16a7.28,7.28,0,0,1-3-.58,5.84,5.84,0,0,1-2.06-1.51,6.43,6.43,0,0,1-1.2-2.09,6.92,6.92,0,0,1-.4-2.3,6.45,6.45,0,0,1,.85-3.33,6.19,6.19,0,0,1,2.37-2.28,7,7,0,0,1,3.46-.84,6.21,6.21,0,0,1,2.51.47,5.08,5.08,0,0,1,1.75,1.2,4.89,4.89,0,0,1,1,1.59,4.25,4.25,0,0,1,.34,1.62,2.82,2.82,0,0,1-.66,2.05,2.27,2.27,0,0,1-1.69.67h-5.95a1.77,1.77,0,0,0,.46,1.08,2.85,2.85,0,0,0,1,.7,3.68,3.68,0,0,0,1.32.25,8.1,8.1,0,0,0,1-.06,4.43,4.43,0,0,0,.79-.18l.59-.22a4.32,4.32,0,0,1,.48-.19,2.63,2.63,0,0,1,.43-.1,1,1,0,0,1,.67.21,2.06,2.06,0,0,1,.58.72,1.85,1.85,0,0,1,.24.52,2.14,2.14,0,0,1,.06.5,1.36,1.36,0,0,1-.61,1.09,4.74,4.74,0,0,1-1.73.73A11,11,0,0,1,272.9,35.16Zm-2.67-7.4h3.95a1.06,1.06,0,0,0,.58-.14.62.62,0,0,0,.2-.54,1.24,1.24,0,0,0-.28-.77,1.72,1.72,0,0,0-.74-.54,2.94,2.94,0,0,0-1.08-.19,3,3,0,0,0-1.35.3,2.39,2.39,0,0,0-.94.8A1.84,1.84,0,0,0,270.23,27.76Z"/><path class="cls-2" d="M282.5,34.94a2.37,2.37,0,0,1-1.31-.27,1.07,1.07,0,0,1-.48-.71,5.62,5.62,0,0,1-.08-.92V24.31a4.42,4.42,0,0,1,.09-.92,1,1,0,0,1,.49-.69,2.47,2.47,0,0,1,1.32-.26,2.52,2.52,0,0,1,1.27.24,1,1,0,0,1,.48.55,1.68,1.68,0,0,1,.1.53l-.3.15a3.91,3.91,0,0,1,.27-.36,3.47,3.47,0,0,1,.58-.55,3.79,3.79,0,0,1,.92-.49,3.57,3.57,0,0,1,1.23-.19l.62,0a4.89,4.89,0,0,1,.7.15,3.32,3.32,0,0,1,.66.3,1.69,1.69,0,0,1,.49.47,1.2,1.2,0,0,1,.18.67,3.12,3.12,0,0,1-.47,1.74,1.42,1.42,0,0,1-1.2.71,2,2,0,0,1-.6-.06,1,1,0,0,1-.29-.15,1.1,1.1,0,0,0-.26-.15,1.72,1.72,0,0,0-.55-.06,2.84,2.84,0,0,0-.72.09,2.15,2.15,0,0,0-.62.32,1.45,1.45,0,0,0-.61,1.23v5.48a4.46,4.46,0,0,1-.09.91,1,1,0,0,1-.48.69A2.6,2.6,0,0,1,282.5,34.94Z"/><path class="cls-2" d="M297.7,35.15a6.3,6.3,0,0,1-2.34-.47,7,7,0,0,1-2.11-1.31,6.53,6.53,0,0,1-1.51-2,6.47,6.47,0,0,1-.05-5.15,7,7,0,0,1,1.42-2.06,6.75,6.75,0,0,1,2.06-1.41,6.13,6.13,0,0,1,2.49-.51,6.33,6.33,0,0,1,3.26.86,6.64,6.64,0,0,1,2.34,2.34,6.71,6.71,0,0,1,.31,6,6.5,6.5,0,0,1-1.5,2A6.57,6.57,0,0,1,300,34.71,6.38,6.38,0,0,1,297.7,35.15Zm-.05-3.78a2.85,2.85,0,0,0,1.23-.3,2.67,2.67,0,0,0,1.05-.9,2.57,2.57,0,0,0,.42-1.52,2.77,2.77,0,0,0-.34-1.4,2.58,2.58,0,0,0-1-.94,2.78,2.78,0,0,0-1.41-.34,2.63,2.63,0,0,0-1.34.35,2.82,2.82,0,0,0-1,1,2.93,2.93,0,0,0,.05,2.9,2.49,2.49,0,0,0,1,.9A2.76,2.76,0,0,0,297.65,31.37Z"/><path class="cls-2" d="M314.15,34.93a1.76,1.76,0,0,1-1.32-.59,1.82,1.82,0,0,1-.58-1.33,3.82,3.82,0,0,1,.09-.85,3.17,3.17,0,0,1,.28-.78,2.42,2.42,0,0,1,.48-.67,13.69,13.69,0,0,1,2-1.64c.72-.49,1.43-1,2.14-1.4s1.36-.88,1.95-1.32a6.14,6.14,0,0,0,1.41-1.43,2.85,2.85,0,0,0,.53-1.66,2.65,2.65,0,0,0-.21-1,1.8,1.8,0,0,0-.75-.85,2.86,2.86,0,0,0-1.54-.34,3.41,3.41,0,0,0-1.11.17,2,2,0,0,0-.8.53,2.2,2.2,0,0,0-.47.85,3.89,3.89,0,0,0-.15,1.12,4.91,4.91,0,0,1-.08.89,1,1,0,0,1-.49.66,2.66,2.66,0,0,1-1.35.25,2.25,2.25,0,0,1-1.34-.29,1.18,1.18,0,0,1-.48-.75,5.74,5.74,0,0,1-.08-.93,6.72,6.72,0,0,1,.42-2.34,6.29,6.29,0,0,1,1.26-2,6,6,0,0,1,2-1.41,6.4,6.4,0,0,1,2.65-.52,6.54,6.54,0,0,1,3.26.81,6.1,6.1,0,0,1,2.27,2.24,6.35,6.35,0,0,1,.84,3.28,5.3,5.3,0,0,1-.37,2,7.09,7.09,0,0,1-.93,1.69,8.78,8.78,0,0,1-1.29,1.36,13.24,13.24,0,0,1-1.44,1.06c-.48.31-.93.57-1.35.79l-1.05.55-.35.05h5.52a4.59,4.59,0,0,1,.94.1,1.14,1.14,0,0,1,.7.5,2.65,2.65,0,0,1,.26,1.35,2.38,2.38,0,0,1-.27,1.29,1.12,1.12,0,0,1-.73.5,4.86,4.86,0,0,1-1,.09Z"/><path class="cls-2" d="M329.4,35a3.43,3.43,0,0,1-.86-.11,1.1,1.1,0,0,1-.66-.5,2.52,2.52,0,0,1-.25-1.31,2.41,2.41,0,0,1,.27-1.32,1.15,1.15,0,0,1,.73-.47,4.79,4.79,0,0,1,.95-.09,6.16,6.16,0,0,0,2.06-.31,5.15,5.15,0,0,0,1.51-.81,4.9,4.9,0,0,0,1.59-2.21,2.8,2.8,0,0,0,.19-.94l.35.07a1.06,1.06,0,0,1-.44.44,3.36,3.36,0,0,1-.91.41,3.77,3.77,0,0,1-1.17.18,5.85,5.85,0,0,1-2.83-.7,5.52,5.52,0,0,1-2-1.87,4.62,4.62,0,0,1-.75-2.56,5.62,5.62,0,0,1,.75-2.9A5.45,5.45,0,0,1,330,18a6,6,0,0,1,3-.74,6.29,6.29,0,0,1,3.31.84,5.43,5.43,0,0,1,2.12,2.43,9.1,9.1,0,0,1,.74,3.84,13.48,13.48,0,0,1-.45,3.55,11,11,0,0,1-1.29,3,8.78,8.78,0,0,1-4.72,3.65A10.59,10.59,0,0,1,329.4,35Zm3.51-10.4a3.19,3.19,0,0,0,1.21-.21,1.6,1.6,0,0,0,.78-.64,1.81,1.81,0,0,0,.26-.95,2.32,2.32,0,0,0-.24-1.1,1.52,1.52,0,0,0-.7-.67,2.71,2.71,0,0,0-1.19-.23,2.79,2.79,0,0,0-1.18.23,1.5,1.5,0,0,0-.73.65,2.14,2.14,0,0,0-.24,1.07,2,2,0,0,0,.25,1,1.64,1.64,0,0,0,.71.67A2.44,2.44,0,0,0,332.91,24.59Z"/><path class="cls-3" d="M124.17,17.34a3.81,3.81,0,0,1,.78.08.92.92,0,0,1,.59.42,2.24,2.24,0,0,1,.22,1.15,2.16,2.16,0,0,1-.22,1.13.91.91,0,0,1-.6.42,4.09,4.09,0,0,1-.8.08h-4V33a4.29,4.29,0,0,1-.09.9,1.1,1.1,0,0,1-.48.69,2.55,2.55,0,0,1-1.34.26,2.43,2.43,0,0,1-1.27-.26,1.08,1.08,0,0,1-.49-.7,4.63,4.63,0,0,1-.08-.92V20.61h-4a3.31,3.31,0,0,1-.77-.09,1,1,0,0,1-.61-.42,2.06,2.06,0,0,1-.24-1.14,2.06,2.06,0,0,1,.24-1.13,1,1,0,0,1,.61-.42,3.94,3.94,0,0,1,.77-.07Z"/><path class="cls-3" d="M129.73,34.85a2.37,2.37,0,0,1-1.31-.27,1.07,1.07,0,0,1-.48-.71,4.7,4.7,0,0,1-.09-.92V24.22a4.59,4.59,0,0,1,.09-.93,1,1,0,0,1,.49-.68,2.42,2.42,0,0,1,1.32-.26,2.63,2.63,0,0,1,1.26.23,1.07,1.07,0,0,1,.49.56,1.63,1.63,0,0,1,.1.53l-.3.15a3.22,3.22,0,0,1,.26-.36,4,4,0,0,1,.59-.55,3.9,3.9,0,0,1,.91-.49,3.62,3.62,0,0,1,1.24-.2c.19,0,.39,0,.61,0a4.62,4.62,0,0,1,.7.15,3.16,3.16,0,0,1,.67.3,1.54,1.54,0,0,1,.48.47,1.11,1.11,0,0,1,.19.67,3.06,3.06,0,0,1-.48,1.74,1.4,1.4,0,0,1-1.2.71,2.11,2.11,0,0,1-.6-.06.92.92,0,0,1-.28-.15,1.17,1.17,0,0,0-.27-.15,1.58,1.58,0,0,0-.54-.07,2.84,2.84,0,0,0-.72.1,1.93,1.93,0,0,0-.62.32,1.41,1.41,0,0,0-.45.52,1.52,1.52,0,0,0-.17.71V33a4.53,4.53,0,0,1-.09.91,1,1,0,0,1-.49.69A2.64,2.64,0,0,1,129.73,34.85Z"/><path class="cls-3" d="M149.13,34.83a2.42,2.42,0,0,1-1.38-.32.9.9,0,0,1-.42-.8l.25-.43a2.72,2.72,0,0,1-.57.61,4.08,4.08,0,0,1-1.12.65,4.33,4.33,0,0,1-1.66.29,5,5,0,0,1-2.19-.5,6,6,0,0,1-1.84-1.39,7.21,7.21,0,0,1-1.27-2,6.16,6.16,0,0,1,0-4.72,6.72,6.72,0,0,1,1.29-2,6.37,6.37,0,0,1,1.84-1.36,4.94,4.94,0,0,1,2.18-.5,4.05,4.05,0,0,1,2.66.88,3.43,3.43,0,0,1,.66.67l-.22-.35a1,1,0,0,1,.43-.91,2.44,2.44,0,0,1,1.39-.31,2.34,2.34,0,0,1,1.29.27,1.15,1.15,0,0,1,.47.73,4.86,4.86,0,0,1,.09.95v8.62a4.73,4.73,0,0,1-.09.93,1.07,1.07,0,0,1-.48.71A2.38,2.38,0,0,1,149.13,34.83Zm-4.37-3.72a2.21,2.21,0,0,0,1.2-.34,2.56,2.56,0,0,0,1.17-2.19,2.62,2.62,0,0,0-.32-1.29,2.4,2.4,0,0,0-.88-.88,2.3,2.3,0,0,0-1.22-.33,2.33,2.33,0,0,0-1.26.34,2.53,2.53,0,0,0-1.24,2.21,2.42,2.42,0,0,0,.33,1.24,2.67,2.67,0,0,0,.93.9A2.59,2.59,0,0,0,144.76,31.11Z"/><path class="cls-3" d="M154.88,34.86a1.77,1.77,0,0,1-1.31-.54A1.8,1.8,0,0,1,153,33a2,2,0,0,1,.14-.73,1.81,1.81,0,0,1,.41-.62l5.68-5.5h-3.8a4.45,4.45,0,0,1-.91-.1,1.25,1.25,0,0,1-.73-.49,2.28,2.28,0,0,1-.29-1.31,2.38,2.38,0,0,1,.29-1.32,1.21,1.21,0,0,1,.73-.47,4.46,4.46,0,0,1,.91-.09h7.83a1.79,1.79,0,0,1,1.32.52,1.76,1.76,0,0,1,.52,1.33A2.17,2.17,0,0,1,165,25a1.45,1.45,0,0,1-.39.59l-5.55,5.52h4.52a4.57,4.57,0,0,1,.93.1,1.13,1.13,0,0,1,.68.5,2.39,2.39,0,0,1,.26,1.33,2.4,2.4,0,0,1-.27,1.3,1.07,1.07,0,0,1-.7.47,5.37,5.37,0,0,1-.93.08Z"/><path class="cls-3" d="M177.7,34.85a2.33,2.33,0,0,1-1.37-.33.91.91,0,0,1-.43-.8l.25-.42a2.72,2.72,0,0,1-.57.61,4.11,4.11,0,0,1-1.11.65,4.38,4.38,0,0,1-1.67.29,5,5,0,0,1-2.18-.5A6,6,0,0,1,168.78,33a7,7,0,0,1-1.27-2,6,6,0,0,1-.48-2.37,5.83,5.83,0,0,1,.48-2.34,6.72,6.72,0,0,1,1.29-2,6.07,6.07,0,0,1,1.84-1.36,4.77,4.77,0,0,1,2.17-.5,4.35,4.35,0,0,1,1.58.26,4.57,4.57,0,0,1,1.08.61,3.18,3.18,0,0,1,.66.68l-.22-.35a1.05,1.05,0,0,1,.44-.91,2.4,2.4,0,0,1,1.39-.31,2.3,2.3,0,0,1,1.28.27,1.14,1.14,0,0,1,.48.73,4.79,4.79,0,0,1,.09.95V33a4.73,4.73,0,0,1-.09.93,1.12,1.12,0,0,1-.47.71A2.52,2.52,0,0,1,177.7,34.85Zm-4.37-3.73a2.21,2.21,0,0,0,1.2-.33,2.6,2.6,0,0,0,.85-.92,2.48,2.48,0,0,0,.33-1.27,2.53,2.53,0,0,0-.33-1.29,2.4,2.4,0,0,0-.87-.89,2.55,2.55,0,0,0-2.49,0,2.64,2.64,0,0,0-.9.92,2.54,2.54,0,0,0-.34,1.3,2.28,2.28,0,0,0,.34,1.23,2.41,2.41,0,0,0,.92.9A2.49,2.49,0,0,0,173.33,31.12Z"/><path class="cls-3" d="M194.8,35.11a7.12,7.12,0,0,1-3-.58A5.72,5.72,0,0,1,189.73,33a6.61,6.61,0,0,1-1.2-2.09,6.83,6.83,0,0,1-.4-2.3,6.48,6.48,0,0,1,.85-3.32A6.14,6.14,0,0,1,191.35,23a6.9,6.9,0,0,1,3.46-.83,6.22,6.22,0,0,1,2.51.46,5.23,5.23,0,0,1,1.75,1.2,5.1,5.1,0,0,1,1,1.59,4.5,4.5,0,0,1,.33,1.62,2.82,2.82,0,0,1-.66,2.05,2.28,2.28,0,0,1-1.69.68h-6a1.77,1.77,0,0,0,.46,1.08,2.85,2.85,0,0,0,1,.7,3.5,3.5,0,0,0,1.33.25,8.05,8.05,0,0,0,1-.06,3.7,3.7,0,0,0,.79-.18c.22-.07.41-.15.59-.22s.34-.14.48-.19a2.89,2.89,0,0,1,.43-.1,1.06,1.06,0,0,1,.68.22,2,2,0,0,1,.57.71,1.71,1.71,0,0,1,.24.52,2.2,2.2,0,0,1,.06.5,1.36,1.36,0,0,1-.61,1.09,4.91,4.91,0,0,1-1.73.74A11.56,11.56,0,0,1,194.8,35.11Zm-2.67-7.4h4a1,1,0,0,0,.58-.14.61.61,0,0,0,.2-.53,1.21,1.21,0,0,0-.28-.78,1.84,1.84,0,0,0-.73-.54,3.33,3.33,0,0,0-2.44.11,2.47,2.47,0,0,0-.94.8A2,2,0,0,0,192.13,27.71Z"/><path class="cls-3" d="M207.33,34.89a14.3,14.3,0,0,1-1.83-.1,3.9,3.9,0,0,1-1.35-.4,2.58,2.58,0,0,1-.9-.84,3.92,3.92,0,0,1-.52-1.37,10.11,10.11,0,0,1-.17-2.06V18.56a4.4,4.4,0,0,1,.1-.92,1.18,1.18,0,0,1,.49-.7,2.39,2.39,0,0,1,1.31-.27,2.34,2.34,0,0,1,1.29.27,1.21,1.21,0,0,1,.49.7,4.49,4.49,0,0,1,.1.93V29.94a4.22,4.22,0,0,0,0,.67.8.8,0,0,0,.15.41.56.56,0,0,0,.31.2,2.4,2.4,0,0,0,.52.05,2.68,2.68,0,0,1,.62.07.91.91,0,0,1,.54.45,2.7,2.7,0,0,1,.22,1.25,2.76,2.76,0,0,1-.23,1.3.89.89,0,0,1-.53.48A2.79,2.79,0,0,1,207.33,34.89Z"/><path class="cls-3" d="M219,34.88a2.49,2.49,0,0,1-1.31-.27,1,1,0,0,1-.47-.7,4.46,4.46,0,0,1-.09-.91V24.2a4.19,4.19,0,0,1,.09-.89,1,1,0,0,1,.49-.66A2.6,2.6,0,0,1,219,22.4a2.49,2.49,0,0,1,1.17.21,1.06,1.06,0,0,1,.49.52,1.68,1.68,0,0,1,.11.56,1,1,0,0,0,.05.36l-.15.48a1.45,1.45,0,0,1,.39-.77,3.78,3.78,0,0,1,.85-.7,4.7,4.7,0,0,1,1.1-.48,4,4,0,0,1,1.16-.18,5.05,5.05,0,0,1,2.14.44,4.32,4.32,0,0,1,1.58,1.27,5.6,5.6,0,0,1,1,1.93,8.61,8.61,0,0,1,.34,2.44V33a5.31,5.31,0,0,1-.08.91,1,1,0,0,1-.48.69,2.57,2.57,0,0,1-1.34.25,2.54,2.54,0,0,1-1.32-.26,1.08,1.08,0,0,1-.49-.7,4.56,4.56,0,0,1-.09-.92V28.48a2.78,2.78,0,0,0-.27-1.28,1.85,1.85,0,0,0-.74-.8,2.5,2.5,0,0,0-1.22-.27,2.59,2.59,0,0,0-1.25.28,2.06,2.06,0,0,0-.81.82,2.57,2.57,0,0,0-.29,1.25V33a4.53,4.53,0,0,1-.09.91,1.06,1.06,0,0,1-.48.69A2.57,2.57,0,0,1,219,34.88Z"/><path class="cls-3" d="M237,34.89a5.26,5.26,0,0,1-2.18-.46,5.43,5.43,0,0,1-1.75-1.26,5.8,5.8,0,0,1-1.16-1.92,7.14,7.14,0,0,1-.41-2.44V24.28a4.42,4.42,0,0,1,.09-.92,1.08,1.08,0,0,1,.49-.7,2.44,2.44,0,0,1,1.32-.28,2.4,2.4,0,0,1,1.32.28,1.1,1.1,0,0,1,.47.71,4.69,4.69,0,0,1,.09.94v4.5a2.78,2.78,0,0,0,.26,1.26,1.8,1.8,0,0,0,.77.82,2.57,2.57,0,0,0,1.21.27,2.4,2.4,0,0,0,1.24-.29,2,2,0,0,0,.8-.81,2.57,2.57,0,0,0,.29-1.25V24.26a4.42,4.42,0,0,1,.09-.92,1.06,1.06,0,0,1,.49-.69,2.57,2.57,0,0,1,1.32-.26,2.41,2.41,0,0,1,1.32.27,1.15,1.15,0,0,1,.47.72,4.46,4.46,0,0,1,.09.91v8.8a5,5,0,0,1-.08.89,1.06,1.06,0,0,1-.49.66,2.52,2.52,0,0,1-1.3.25,2.92,2.92,0,0,1-1.05-.15,1.25,1.25,0,0,1-.55-.38.94.94,0,0,1-.21-.47,2.57,2.57,0,0,1,0-.45l.32-.28a2.39,2.39,0,0,1-.32.39,5,5,0,0,1-.66.57,4.28,4.28,0,0,1-1,.54A3.31,3.31,0,0,1,237,34.89Zm-.39-13.38a.85.85,0,0,1-.74-.25,2.63,2.63,0,0,1-.51-1,2,2,0,0,1-.1-1.3,1.35,1.35,0,0,1,.92-.67l4.4-1.35a.88.88,0,0,1,.73.29,2.4,2.4,0,0,1,.5,1,2,2,0,0,1,.09,1.28,1.34,1.34,0,0,1-.92.67Z"/><path class="cls-3" d="M248,34.92a2.28,2.28,0,0,1-1.3-.28,1,1,0,0,1-.48-.7,5.29,5.29,0,0,1-.07-.92V24.27a4.29,4.29,0,0,1,.09-.9,1,1,0,0,1,.49-.69,2.47,2.47,0,0,1,1.32-.26,2.06,2.06,0,0,1,1.35.36,1.47,1.47,0,0,1,.43,1.19l-.33.27a3,3,0,0,1,.3-.42,5.64,5.64,0,0,1,.65-.63,4.49,4.49,0,0,1,.94-.56,2.83,2.83,0,0,1,1.16-.23,4.57,4.57,0,0,1,1.49.23,4,4,0,0,1,1.2.7,4.43,4.43,0,0,1,.94,1.17,6.34,6.34,0,0,1,.85-1,4.93,4.93,0,0,1,1.17-.8,3.58,3.58,0,0,1,1.53-.32,4.15,4.15,0,0,1,2.49.74,4.56,4.56,0,0,1,1.53,2.11,9.38,9.38,0,0,1,.53,3.33v4.47a3.85,3.85,0,0,1-.1.91,1.09,1.09,0,0,1-.48.7,3.31,3.31,0,0,1-2.64,0,1,1,0,0,1-.48-.71,5.45,5.45,0,0,1-.07-.92V28.55a3.81,3.81,0,0,0-.19-1.29,1.75,1.75,0,0,0-.53-.82,1.41,1.41,0,0,0-.9-.29,1.71,1.71,0,0,0-1,.27,1.77,1.77,0,0,0-.6.8,3.92,3.92,0,0,0-.2,1.35v4.48A3.24,3.24,0,0,1,257,34a1.17,1.17,0,0,1-.53.69,2.41,2.41,0,0,1-1.34.24,2.09,2.09,0,0,1-1.25-.29,1.12,1.12,0,0,1-.45-.72,5.26,5.26,0,0,1-.08-.89V28.55a4.16,4.16,0,0,0-.18-1.3,1.61,1.61,0,0,0-.52-.83,1.71,1.71,0,0,0-2,0,1.82,1.82,0,0,0-.59.86,3.53,3.53,0,0,0-.19,1.21V33a4.45,4.45,0,0,1-.09.93,1.08,1.08,0,0,1-.49.69A2.54,2.54,0,0,1,248,34.92Z"/><path class="cls-3" d="M272.9,35.16a7.28,7.28,0,0,1-3-.58,5.84,5.84,0,0,1-2.06-1.51,6.43,6.43,0,0,1-1.2-2.09,6.92,6.92,0,0,1-.4-2.3,6.45,6.45,0,0,1,.85-3.33,6.19,6.19,0,0,1,2.37-2.28,7,7,0,0,1,3.46-.84,6.21,6.21,0,0,1,2.51.47,5.08,5.08,0,0,1,1.75,1.2,4.89,4.89,0,0,1,1,1.59,4.25,4.25,0,0,1,.34,1.62,2.82,2.82,0,0,1-.66,2.05,2.27,2.27,0,0,1-1.69.67h-5.95a1.77,1.77,0,0,0,.46,1.08,2.85,2.85,0,0,0,1,.7,3.68,3.68,0,0,0,1.32.25,8.1,8.1,0,0,0,1-.06,4.43,4.43,0,0,0,.79-.18l.59-.22a4.32,4.32,0,0,1,.48-.19,2.63,2.63,0,0,1,.43-.1,1,1,0,0,1,.67.21,2.06,2.06,0,0,1,.58.72,1.85,1.85,0,0,1,.24.52,2.14,2.14,0,0,1,.06.5,1.36,1.36,0,0,1-.61,1.09,4.74,4.74,0,0,1-1.73.73A11,11,0,0,1,272.9,35.16Zm-2.67-7.4h3.95a1.06,1.06,0,0,0,.58-.14.62.62,0,0,0,.2-.54,1.24,1.24,0,0,0-.28-.77,1.72,1.72,0,0,0-.74-.54,2.94,2.94,0,0,0-1.08-.19,3,3,0,0,0-1.35.3,2.39,2.39,0,0,0-.94.8A1.84,1.84,0,0,0,270.23,27.76Z"/><path class="cls-3" d="M282.5,34.94a2.37,2.37,0,0,1-1.31-.27,1.07,1.07,0,0,1-.48-.71,5.62,5.62,0,0,1-.08-.92V24.31a4.42,4.42,0,0,1,.09-.92,1,1,0,0,1,.49-.69,2.47,2.47,0,0,1,1.32-.26,2.52,2.52,0,0,1,1.27.24,1,1,0,0,1,.48.55,1.68,1.68,0,0,1,.1.53l-.3.15a3.91,3.91,0,0,1,.27-.36,3.47,3.47,0,0,1,.58-.55,3.79,3.79,0,0,1,.92-.49,3.57,3.57,0,0,1,1.23-.19l.62,0a4.89,4.89,0,0,1,.7.15,3.32,3.32,0,0,1,.66.3,1.69,1.69,0,0,1,.49.47,1.2,1.2,0,0,1,.18.67,3.12,3.12,0,0,1-.47,1.74,1.42,1.42,0,0,1-1.2.71,2,2,0,0,1-.6-.06,1,1,0,0,1-.29-.15,1.1,1.1,0,0,0-.26-.15,1.72,1.72,0,0,0-.55-.06,2.84,2.84,0,0,0-.72.09,2.15,2.15,0,0,0-.62.32,1.45,1.45,0,0,0-.61,1.23v5.48a4.46,4.46,0,0,1-.09.91,1,1,0,0,1-.48.69A2.6,2.6,0,0,1,282.5,34.94Z"/><path class="cls-3" d="M297.7,35.15a6.3,6.3,0,0,1-2.34-.47,7,7,0,0,1-2.11-1.31,6.53,6.53,0,0,1-1.51-2,6.47,6.47,0,0,1-.05-5.15,7,7,0,0,1,1.42-2.06,6.75,6.75,0,0,1,2.06-1.41,6.13,6.13,0,0,1,2.49-.51,6.33,6.33,0,0,1,3.26.86,6.64,6.64,0,0,1,2.34,2.34,6.71,6.71,0,0,1,.31,6,6.5,6.5,0,0,1-1.5,2A6.57,6.57,0,0,1,300,34.71,6.38,6.38,0,0,1,297.7,35.15Zm-.05-3.78a2.85,2.85,0,0,0,1.23-.3,2.67,2.67,0,0,0,1.05-.9,2.57,2.57,0,0,0,.42-1.52,2.77,2.77,0,0,0-.34-1.4,2.58,2.58,0,0,0-1-.94,2.78,2.78,0,0,0-1.41-.34,2.63,2.63,0,0,0-1.34.35,2.82,2.82,0,0,0-1,1,2.93,2.93,0,0,0,.05,2.9,2.49,2.49,0,0,0,1,.9A2.76,2.76,0,0,0,297.65,31.37Z"/><path class="cls-3" d="M314.15,34.93a1.76,1.76,0,0,1-1.32-.59,1.82,1.82,0,0,1-.58-1.33,3.82,3.82,0,0,1,.09-.85,3.17,3.17,0,0,1,.28-.78,2.42,2.42,0,0,1,.48-.67,13.69,13.69,0,0,1,2-1.64c.72-.49,1.43-1,2.14-1.4s1.36-.88,1.95-1.32a6.14,6.14,0,0,0,1.41-1.43,2.85,2.85,0,0,0,.53-1.66,2.65,2.65,0,0,0-.21-1,1.8,1.8,0,0,0-.75-.85,2.86,2.86,0,0,0-1.54-.34,3.41,3.41,0,0,0-1.11.17,2,2,0,0,0-.8.53,2.2,2.2,0,0,0-.47.85,3.89,3.89,0,0,0-.15,1.12,4.91,4.91,0,0,1-.08.89,1,1,0,0,1-.49.66,2.66,2.66,0,0,1-1.35.25,2.25,2.25,0,0,1-1.34-.29,1.18,1.18,0,0,1-.48-.75,5.74,5.74,0,0,1-.08-.93,6.72,6.72,0,0,1,.42-2.34,6.29,6.29,0,0,1,1.26-2,6,6,0,0,1,2-1.41,6.4,6.4,0,0,1,2.65-.52,6.54,6.54,0,0,1,3.26.81,6.1,6.1,0,0,1,2.27,2.24,6.35,6.35,0,0,1,.84,3.28,5.3,5.3,0,0,1-.37,2,7.09,7.09,0,0,1-.93,1.69,8.78,8.78,0,0,1-1.29,1.36,13.24,13.24,0,0,1-1.44,1.06c-.48.31-.93.57-1.35.79l-1.05.55-.35.05h5.52a4.59,4.59,0,0,1,.94.1,1.14,1.14,0,0,1,.7.5,2.65,2.65,0,0,1,.26,1.35,2.38,2.38,0,0,1-.27,1.29,1.12,1.12,0,0,1-.73.5,4.86,4.86,0,0,1-1,.09Z"/><path class="cls-3" d="M329.4,35a3.43,3.43,0,0,1-.86-.11,1.1,1.1,0,0,1-.66-.5,2.52,2.52,0,0,1-.25-1.31,2.41,2.41,0,0,1,.27-1.32,1.15,1.15,0,0,1,.73-.47,4.79,4.79,0,0,1,.95-.09,6.16,6.16,0,0,0,2.06-.31,5.15,5.15,0,0,0,1.51-.81,4.9,4.9,0,0,0,1.59-2.21,2.8,2.8,0,0,0,.19-.94l.35.07a1.06,1.06,0,0,1-.44.44,3.36,3.36,0,0,1-.91.41,3.77,3.77,0,0,1-1.17.18,5.85,5.85,0,0,1-2.83-.7,5.52,5.52,0,0,1-2-1.87,4.62,4.62,0,0,1-.75-2.56,5.62,5.62,0,0,1,.75-2.9A5.45,5.45,0,0,1,330,18a6,6,0,0,1,3-.74,6.29,6.29,0,0,1,3.31.84,5.43,5.43,0,0,1,2.12,2.43,9.1,9.1,0,0,1,.74,3.84,13.48,13.48,0,0,1-.45,3.55,11,11,0,0,1-1.29,3,8.78,8.78,0,0,1-4.72,3.65A10.59,10.59,0,0,1,329.4,35Zm3.51-10.4a3.19,3.19,0,0,0,1.21-.21,1.6,1.6,0,0,0,.78-.64,1.81,1.81,0,0,0,.26-.95,2.32,2.32,0,0,0-.24-1.1,1.52,1.52,0,0,0-.7-.67,2.71,2.71,0,0,0-1.19-.23,2.79,2.79,0,0,0-1.18.23,1.5,1.5,0,0,0-.73.65,2.14,2.14,0,0,0-.24,1.07,2,2,0,0,0,.25,1,1.64,1.64,0,0,0,.71.67A2.44,2.44,0,0,0,332.91,24.59Z"/><path class="cls-2" d="M124.17,17.34a3.81,3.81,0,0,1,.78.08.92.92,0,0,1,.59.42,2.24,2.24,0,0,1,.22,1.15,2.16,2.16,0,0,1-.22,1.13.91.91,0,0,1-.6.42,4.09,4.09,0,0,1-.8.08h-4V33a4.29,4.29,0,0,1-.09.9,1.1,1.1,0,0,1-.48.69,2.55,2.55,0,0,1-1.34.26,2.43,2.43,0,0,1-1.27-.26,1.08,1.08,0,0,1-.49-.7,4.63,4.63,0,0,1-.08-.92V20.61h-4a3.31,3.31,0,0,1-.77-.09,1,1,0,0,1-.61-.42,2.06,2.06,0,0,1-.24-1.14,2.06,2.06,0,0,1,.24-1.13,1,1,0,0,1,.61-.42,3.94,3.94,0,0,1,.77-.07Z"/><path class="cls-2" d="M129.73,34.85a2.37,2.37,0,0,1-1.31-.27,1.07,1.07,0,0,1-.48-.71,4.7,4.7,0,0,1-.09-.92V24.22a4.59,4.59,0,0,1,.09-.93,1,1,0,0,1,.49-.68,2.42,2.42,0,0,1,1.32-.26,2.63,2.63,0,0,1,1.26.23,1.07,1.07,0,0,1,.49.56,1.63,1.63,0,0,1,.1.53l-.3.15a3.22,3.22,0,0,1,.26-.36,4,4,0,0,1,.59-.55,3.9,3.9,0,0,1,.91-.49,3.62,3.62,0,0,1,1.24-.2c.19,0,.39,0,.61,0a4.62,4.62,0,0,1,.7.15,3.16,3.16,0,0,1,.67.3,1.54,1.54,0,0,1,.48.47,1.11,1.11,0,0,1,.19.67,3.06,3.06,0,0,1-.48,1.74,1.4,1.4,0,0,1-1.2.71,2.11,2.11,0,0,1-.6-.06.92.92,0,0,1-.28-.15,1.17,1.17,0,0,0-.27-.15,1.58,1.58,0,0,0-.54-.07,2.84,2.84,0,0,0-.72.1,1.93,1.93,0,0,0-.62.32,1.41,1.41,0,0,0-.45.52,1.52,1.52,0,0,0-.17.71V33a4.53,4.53,0,0,1-.09.91,1,1,0,0,1-.49.69A2.64,2.64,0,0,1,129.73,34.85Z"/><path class="cls-2" d="M149.13,34.83a2.42,2.42,0,0,1-1.38-.32.9.9,0,0,1-.42-.8l.25-.43a2.72,2.72,0,0,1-.57.61,4.08,4.08,0,0,1-1.12.65,4.33,4.33,0,0,1-1.66.29,5,5,0,0,1-2.19-.5,6,6,0,0,1-1.84-1.39,7.21,7.21,0,0,1-1.27-2,6.16,6.16,0,0,1,0-4.72,6.72,6.72,0,0,1,1.29-2,6.37,6.37,0,0,1,1.84-1.36,4.94,4.94,0,0,1,2.18-.5,4.05,4.05,0,0,1,2.66.88,3.43,3.43,0,0,1,.66.67l-.22-.35a1,1,0,0,1,.43-.91,2.44,2.44,0,0,1,1.39-.31,2.34,2.34,0,0,1,1.29.27,1.15,1.15,0,0,1,.47.73,4.86,4.86,0,0,1,.09.95v8.62a4.73,4.73,0,0,1-.09.93,1.07,1.07,0,0,1-.48.71A2.38,2.38,0,0,1,149.13,34.83Zm-4.37-3.72a2.21,2.21,0,0,0,1.2-.34,2.56,2.56,0,0,0,1.17-2.19,2.62,2.62,0,0,0-.32-1.29,2.4,2.4,0,0,0-.88-.88,2.3,2.3,0,0,0-1.22-.33,2.33,2.33,0,0,0-1.26.34,2.53,2.53,0,0,0-1.24,2.21,2.42,2.42,0,0,0,.33,1.24,2.67,2.67,0,0,0,.93.9A2.59,2.59,0,0,0,144.76,31.11Z"/><path class="cls-2" d="M154.88,34.86a1.77,1.77,0,0,1-1.31-.54A1.8,1.8,0,0,1,153,33a2,2,0,0,1,.14-.73,1.81,1.81,0,0,1,.41-.62l5.68-5.5h-3.8a4.45,4.45,0,0,1-.91-.1,1.25,1.25,0,0,1-.73-.49,2.28,2.28,0,0,1-.29-1.31,2.38,2.38,0,0,1,.29-1.32,1.21,1.21,0,0,1,.73-.47,4.46,4.46,0,0,1,.91-.09h7.83a1.79,1.79,0,0,1,1.32.52,1.76,1.76,0,0,1,.52,1.33A2.17,2.17,0,0,1,165,25a1.45,1.45,0,0,1-.39.59l-5.55,5.52h4.52a4.57,4.57,0,0,1,.93.1,1.13,1.13,0,0,1,.68.5,2.39,2.39,0,0,1,.26,1.33,2.4,2.4,0,0,1-.27,1.3,1.07,1.07,0,0,1-.7.47,5.37,5.37,0,0,1-.93.08Z"/><path class="cls-2" d="M177.7,34.85a2.33,2.33,0,0,1-1.37-.33.91.91,0,0,1-.43-.8l.25-.42a2.72,2.72,0,0,1-.57.61,4.11,4.11,0,0,1-1.11.65,4.38,4.38,0,0,1-1.67.29,5,5,0,0,1-2.18-.5A6,6,0,0,1,168.78,33a7,7,0,0,1-1.27-2,6,6,0,0,1-.48-2.37,5.83,5.83,0,0,1,.48-2.34,6.72,6.72,0,0,1,1.29-2,6.07,6.07,0,0,1,1.84-1.36,4.77,4.77,0,0,1,2.17-.5,4.35,4.35,0,0,1,1.58.26,4.57,4.57,0,0,1,1.08.61,3.18,3.18,0,0,1,.66.68l-.22-.35a1.05,1.05,0,0,1,.44-.91,2.4,2.4,0,0,1,1.39-.31,2.3,2.3,0,0,1,1.28.27,1.14,1.14,0,0,1,.48.73,4.79,4.79,0,0,1,.09.95V33a4.73,4.73,0,0,1-.09.93,1.12,1.12,0,0,1-.47.71A2.52,2.52,0,0,1,177.7,34.85Zm-4.37-3.73a2.21,2.21,0,0,0,1.2-.33,2.6,2.6,0,0,0,.85-.92,2.48,2.48,0,0,0,.33-1.27,2.53,2.53,0,0,0-.33-1.29,2.4,2.4,0,0,0-.87-.89,2.55,2.55,0,0,0-2.49,0,2.64,2.64,0,0,0-.9.92,2.54,2.54,0,0,0-.34,1.3,2.28,2.28,0,0,0,.34,1.23,2.41,2.41,0,0,0,.92.9A2.49,2.49,0,0,0,173.33,31.12Z"/><path class="cls-2" d="M194.8,35.11a7.12,7.12,0,0,1-3-.58A5.72,5.72,0,0,1,189.73,33a6.61,6.61,0,0,1-1.2-2.09,6.83,6.83,0,0,1-.4-2.3,6.48,6.48,0,0,1,.85-3.32A6.14,6.14,0,0,1,191.35,23a6.9,6.9,0,0,1,3.46-.83,6.22,6.22,0,0,1,2.51.46,5.23,5.23,0,0,1,1.75,1.2,5.1,5.1,0,0,1,1,1.59,4.5,4.5,0,0,1,.33,1.62,2.82,2.82,0,0,1-.66,2.05,2.28,2.28,0,0,1-1.69.68h-6a1.77,1.77,0,0,0,.46,1.08,2.85,2.85,0,0,0,1,.7,3.5,3.5,0,0,0,1.33.25,8.05,8.05,0,0,0,1-.06,3.7,3.7,0,0,0,.79-.18c.22-.07.41-.15.59-.22s.34-.14.48-.19a2.89,2.89,0,0,1,.43-.1,1.06,1.06,0,0,1,.68.22,2,2,0,0,1,.57.71,1.71,1.71,0,0,1,.24.52,2.2,2.2,0,0,1,.06.5,1.36,1.36,0,0,1-.61,1.09,4.91,4.91,0,0,1-1.73.74A11.56,11.56,0,0,1,194.8,35.11Zm-2.67-7.4h4a1,1,0,0,0,.58-.14.61.61,0,0,0,.2-.53,1.21,1.21,0,0,0-.28-.78,1.84,1.84,0,0,0-.73-.54,3.33,3.33,0,0,0-2.44.11,2.47,2.47,0,0,0-.94.8A2,2,0,0,0,192.13,27.71Z"/><path class="cls-2" d="M207.33,34.89a14.3,14.3,0,0,1-1.83-.1,3.9,3.9,0,0,1-1.35-.4,2.58,2.58,0,0,1-.9-.84,3.92,3.92,0,0,1-.52-1.37,10.11,10.11,0,0,1-.17-2.06V18.56a4.4,4.4,0,0,1,.1-.92,1.18,1.18,0,0,1,.49-.7,2.39,2.39,0,0,1,1.31-.27,2.34,2.34,0,0,1,1.29.27,1.21,1.21,0,0,1,.49.7,4.49,4.49,0,0,1,.1.93V29.94a4.22,4.22,0,0,0,0,.67.8.8,0,0,0,.15.41.56.56,0,0,0,.31.2,2.4,2.4,0,0,0,.52.05,2.68,2.68,0,0,1,.62.07.91.91,0,0,1,.54.45,2.7,2.7,0,0,1,.22,1.25,2.76,2.76,0,0,1-.23,1.3.89.89,0,0,1-.53.48A2.79,2.79,0,0,1,207.33,34.89Z"/><path class="cls-2" d="M219,34.88a2.49,2.49,0,0,1-1.31-.27,1,1,0,0,1-.47-.7,4.46,4.46,0,0,1-.09-.91V24.2a4.19,4.19,0,0,1,.09-.89,1,1,0,0,1,.49-.66A2.6,2.6,0,0,1,219,22.4a2.49,2.49,0,0,1,1.17.21,1.06,1.06,0,0,1,.49.52,1.68,1.68,0,0,1,.11.56,1,1,0,0,0,.05.36l-.15.48a1.45,1.45,0,0,1,.39-.77,3.78,3.78,0,0,1,.85-.7,4.7,4.7,0,0,1,1.1-.48,4,4,0,0,1,1.16-.18,5.05,5.05,0,0,1,2.14.44,4.32,4.32,0,0,1,1.58,1.27,5.6,5.6,0,0,1,1,1.93,8.61,8.61,0,0,1,.34,2.44V33a5.31,5.31,0,0,1-.08.91,1,1,0,0,1-.48.69,2.57,2.57,0,0,1-1.34.25,2.54,2.54,0,0,1-1.32-.26,1.08,1.08,0,0,1-.49-.7,4.56,4.56,0,0,1-.09-.92V28.48a2.78,2.78,0,0,0-.27-1.28,1.85,1.85,0,0,0-.74-.8,2.5,2.5,0,0,0-1.22-.27,2.59,2.59,0,0,0-1.25.28,2.06,2.06,0,0,0-.81.82,2.57,2.57,0,0,0-.29,1.25V33a4.53,4.53,0,0,1-.09.91,1.06,1.06,0,0,1-.48.69A2.57,2.57,0,0,1,219,34.88Z"/><path class="cls-2" d="M237,34.89a5.26,5.26,0,0,1-2.18-.46,5.43,5.43,0,0,1-1.75-1.26,5.8,5.8,0,0,1-1.16-1.92,7.14,7.14,0,0,1-.41-2.44V24.28a4.42,4.42,0,0,1,.09-.92,1.08,1.08,0,0,1,.49-.7,2.44,2.44,0,0,1,1.32-.28,2.4,2.4,0,0,1,1.32.28,1.1,1.1,0,0,1,.47.71,4.69,4.69,0,0,1,.09.94v4.5a2.78,2.78,0,0,0,.26,1.26,1.8,1.8,0,0,0,.77.82,2.57,2.57,0,0,0,1.21.27,2.4,2.4,0,0,0,1.24-.29,2,2,0,0,0,.8-.81,2.57,2.57,0,0,0,.29-1.25V24.26a4.42,4.42,0,0,1,.09-.92,1.06,1.06,0,0,1,.49-.69,2.57,2.57,0,0,1,1.32-.26,2.41,2.41,0,0,1,1.32.27,1.15,1.15,0,0,1,.47.72,4.46,4.46,0,0,1,.09.91v8.8a5,5,0,0,1-.08.89,1.06,1.06,0,0,1-.49.66,2.52,2.52,0,0,1-1.3.25,2.92,2.92,0,0,1-1.05-.15,1.25,1.25,0,0,1-.55-.38.94.94,0,0,1-.21-.47,2.57,2.57,0,0,1,0-.45l.32-.28a2.39,2.39,0,0,1-.32.39,5,5,0,0,1-.66.57,4.28,4.28,0,0,1-1,.54A3.31,3.31,0,0,1,237,34.89Zm-.39-13.38a.85.85,0,0,1-.74-.25,2.63,2.63,0,0,1-.51-1,2,2,0,0,1-.1-1.3,1.35,1.35,0,0,1,.92-.67l4.4-1.35a.88.88,0,0,1,.73.29,2.4,2.4,0,0,1,.5,1,2,2,0,0,1,.09,1.28,1.34,1.34,0,0,1-.92.67Z"/><path class="cls-2" d="M248,34.92a2.28,2.28,0,0,1-1.3-.28,1,1,0,0,1-.48-.7,5.29,5.29,0,0,1-.07-.92V24.27a4.29,4.29,0,0,1,.09-.9,1,1,0,0,1,.49-.69,2.47,2.47,0,0,1,1.32-.26,2.06,2.06,0,0,1,1.35.36,1.47,1.47,0,0,1,.43,1.19l-.33.27a3,3,0,0,1,.3-.42,5.64,5.64,0,0,1,.65-.63,4.49,4.49,0,0,1,.94-.56,2.83,2.83,0,0,1,1.16-.23,4.57,4.57,0,0,1,1.49.23,4,4,0,0,1,1.2.7,4.43,4.43,0,0,1,.94,1.17,6.34,6.34,0,0,1,.85-1,4.93,4.93,0,0,1,1.17-.8,3.58,3.58,0,0,1,1.53-.32,4.15,4.15,0,0,1,2.49.74,4.56,4.56,0,0,1,1.53,2.11,9.38,9.38,0,0,1,.53,3.33v4.47a3.85,3.85,0,0,1-.1.91,1.09,1.09,0,0,1-.48.7,3.31,3.31,0,0,1-2.64,0,1,1,0,0,1-.48-.71,5.45,5.45,0,0,1-.07-.92V28.55a3.81,3.81,0,0,0-.19-1.29,1.75,1.75,0,0,0-.53-.82,1.41,1.41,0,0,0-.9-.29,1.71,1.71,0,0,0-1,.27,1.77,1.77,0,0,0-.6.8,3.92,3.92,0,0,0-.2,1.35v4.48A3.24,3.24,0,0,1,257,34a1.17,1.17,0,0,1-.53.69,2.41,2.41,0,0,1-1.34.24,2.09,2.09,0,0,1-1.25-.29,1.12,1.12,0,0,1-.45-.72,5.26,5.26,0,0,1-.08-.89V28.55a4.16,4.16,0,0,0-.18-1.3,1.61,1.61,0,0,0-.52-.83,1.71,1.71,0,0,0-2,0,1.82,1.82,0,0,0-.59.86,3.53,3.53,0,0,0-.19,1.21V33a4.45,4.45,0,0,1-.09.93,1.08,1.08,0,0,1-.49.69A2.54,2.54,0,0,1,248,34.92Z"/><path class="cls-2" d="M272.9,35.16a7.28,7.28,0,0,1-3-.58,5.84,5.84,0,0,1-2.06-1.51,6.43,6.43,0,0,1-1.2-2.09,6.92,6.92,0,0,1-.4-2.3,6.45,6.45,0,0,1,.85-3.33,6.19,6.19,0,0,1,2.37-2.28,7,7,0,0,1,3.46-.84,6.21,6.21,0,0,1,2.51.47,5.08,5.08,0,0,1,1.75,1.2,4.89,4.89,0,0,1,1,1.59,4.25,4.25,0,0,1,.34,1.62,2.82,2.82,0,0,1-.66,2.05,2.27,2.27,0,0,1-1.69.67h-5.95a1.77,1.77,0,0,0,.46,1.08,2.85,2.85,0,0,0,1,.7,3.68,3.68,0,0,0,1.32.25,8.1,8.1,0,0,0,1-.06,4.43,4.43,0,0,0,.79-.18l.59-.22a4.32,4.32,0,0,1,.48-.19,2.63,2.63,0,0,1,.43-.1,1,1,0,0,1,.67.21,2.06,2.06,0,0,1,.58.72,1.85,1.85,0,0,1,.24.52,2.14,2.14,0,0,1,.06.5,1.36,1.36,0,0,1-.61,1.09,4.74,4.74,0,0,1-1.73.73A11,11,0,0,1,272.9,35.16Zm-2.67-7.4h3.95a1.06,1.06,0,0,0,.58-.14.62.62,0,0,0,.2-.54,1.24,1.24,0,0,0-.28-.77,1.72,1.72,0,0,0-.74-.54,2.94,2.94,0,0,0-1.08-.19,3,3,0,0,0-1.35.3,2.39,2.39,0,0,0-.94.8A1.84,1.84,0,0,0,270.23,27.76Z"/><path class="cls-2" d="M282.5,34.94a2.37,2.37,0,0,1-1.31-.27,1.07,1.07,0,0,1-.48-.71,5.62,5.62,0,0,1-.08-.92V24.31a4.42,4.42,0,0,1,.09-.92,1,1,0,0,1,.49-.69,2.47,2.47,0,0,1,1.32-.26,2.52,2.52,0,0,1,1.27.24,1,1,0,0,1,.48.55,1.68,1.68,0,0,1,.1.53l-.3.15a3.91,3.91,0,0,1,.27-.36,3.47,3.47,0,0,1,.58-.55,3.79,3.79,0,0,1,.92-.49,3.57,3.57,0,0,1,1.23-.19l.62,0a4.89,4.89,0,0,1,.7.15,3.32,3.32,0,0,1,.66.3,1.69,1.69,0,0,1,.49.47,1.2,1.2,0,0,1,.18.67,3.12,3.12,0,0,1-.47,1.74,1.42,1.42,0,0,1-1.2.71,2,2,0,0,1-.6-.06,1,1,0,0,1-.29-.15,1.1,1.1,0,0,0-.26-.15,1.72,1.72,0,0,0-.55-.06,2.84,2.84,0,0,0-.72.09,2.15,2.15,0,0,0-.62.32,1.45,1.45,0,0,0-.61,1.23v5.48a4.46,4.46,0,0,1-.09.91,1,1,0,0,1-.48.69A2.6,2.6,0,0,1,282.5,34.94Z"/><path class="cls-2" d="M297.7,35.15a6.3,6.3,0,0,1-2.34-.47,7,7,0,0,1-2.11-1.31,6.53,6.53,0,0,1-1.51-2,6.47,6.47,0,0,1-.05-5.15,7,7,0,0,1,1.42-2.06,6.75,6.75,0,0,1,2.06-1.41,6.13,6.13,0,0,1,2.49-.51,6.33,6.33,0,0,1,3.26.86,6.64,6.64,0,0,1,2.34,2.34,6.71,6.71,0,0,1,.31,6,6.5,6.5,0,0,1-1.5,2A6.57,6.57,0,0,1,300,34.71,6.38,6.38,0,0,1,297.7,35.15Zm-.05-3.78a2.85,2.85,0,0,0,1.23-.3,2.67,2.67,0,0,0,1.05-.9,2.57,2.57,0,0,0,.42-1.52,2.77,2.77,0,0,0-.34-1.4,2.58,2.58,0,0,0-1-.94,2.78,2.78,0,0,0-1.41-.34,2.63,2.63,0,0,0-1.34.35,2.82,2.82,0,0,0-1,1,2.93,2.93,0,0,0,.05,2.9,2.49,2.49,0,0,0,1,.9A2.76,2.76,0,0,0,297.65,31.37Z"/><path class="cls-2" d="M314.15,34.93a1.76,1.76,0,0,1-1.32-.59,1.82,1.82,0,0,1-.58-1.33,3.82,3.82,0,0,1,.09-.85,3.17,3.17,0,0,1,.28-.78,2.42,2.42,0,0,1,.48-.67,13.69,13.69,0,0,1,2-1.64c.72-.49,1.43-1,2.14-1.4s1.36-.88,1.95-1.32a6.14,6.14,0,0,0,1.41-1.43,2.85,2.85,0,0,0,.53-1.66,2.65,2.65,0,0,0-.21-1,1.8,1.8,0,0,0-.75-.85,2.86,2.86,0,0,0-1.54-.34,3.41,3.41,0,0,0-1.11.17,2,2,0,0,0-.8.53,2.2,2.2,0,0,0-.47.85,3.89,3.89,0,0,0-.15,1.12,4.91,4.91,0,0,1-.08.89,1,1,0,0,1-.49.66,2.66,2.66,0,0,1-1.35.25,2.25,2.25,0,0,1-1.34-.29,1.18,1.18,0,0,1-.48-.75,5.74,5.74,0,0,1-.08-.93,6.72,6.72,0,0,1,.42-2.34,6.29,6.29,0,0,1,1.26-2,6,6,0,0,1,2-1.41,6.4,6.4,0,0,1,2.65-.52,6.54,6.54,0,0,1,3.26.81,6.1,6.1,0,0,1,2.27,2.24,6.35,6.35,0,0,1,.84,3.28,5.3,5.3,0,0,1-.37,2,7.09,7.09,0,0,1-.93,1.69,8.78,8.78,0,0,1-1.29,1.36,13.24,13.24,0,0,1-1.44,1.06c-.48.31-.93.57-1.35.79l-1.05.55-.35.05h5.52a4.59,4.59,0,0,1,.94.1,1.14,1.14,0,0,1,.7.5,2.65,2.65,0,0,1,.26,1.35,2.38,2.38,0,0,1-.27,1.29,1.12,1.12,0,0,1-.73.5,4.86,4.86,0,0,1-1,.09Z"/><path class="cls-2" d="M329.4,35a3.43,3.43,0,0,1-.86-.11,1.1,1.1,0,0,1-.66-.5,2.52,2.52,0,0,1-.25-1.31,2.41,2.41,0,0,1,.27-1.32,1.15,1.15,0,0,1,.73-.47,4.79,4.79,0,0,1,.95-.09,6.16,6.16,0,0,0,2.06-.31,5.15,5.15,0,0,0,1.51-.81,4.9,4.9,0,0,0,1.59-2.21,2.8,2.8,0,0,0,.19-.94l.35.07a1.06,1.06,0,0,1-.44.44,3.36,3.36,0,0,1-.91.41,3.77,3.77,0,0,1-1.17.18,5.85,5.85,0,0,1-2.83-.7,5.52,5.52,0,0,1-2-1.87,4.62,4.62,0,0,1-.75-2.56,5.62,5.62,0,0,1,.75-2.9A5.45,5.45,0,0,1,330,18a6,6,0,0,1,3-.74,6.29,6.29,0,0,1,3.31.84,5.43,5.43,0,0,1,2.12,2.43,9.1,9.1,0,0,1,.74,3.84,13.48,13.48,0,0,1-.45,3.55,11,11,0,0,1-1.29,3,8.78,8.78,0,0,1-4.72,3.65A10.59,10.59,0,0,1,329.4,35Zm3.51-10.4a3.19,3.19,0,0,0,1.21-.21,1.6,1.6,0,0,0,.78-.64,1.81,1.81,0,0,0,.26-.95,2.32,2.32,0,0,0-.24-1.1,1.52,1.52,0,0,0-.7-.67,2.71,2.71,0,0,0-1.19-.23,2.79,2.79,0,0,0-1.18.23,1.5,1.5,0,0,0-.73.65,2.14,2.14,0,0,0-.24,1.07,2,2,0,0,0,.25,1,1.64,1.64,0,0,0,.71.67A2.44,2.44,0,0,0,332.91,24.59Z"/><path class="cls-4" d="M54.61,34.08h4.52q3.42,0,3.42,4a4,4,0,0,1-1.08,3.17c-.72.63-2,.94-3.85.94h-11a6.93,6.93,0,0,1-3.9-.77c-.69-.52-1-1.63-1-3.34a5.64,5.64,0,0,1,.16-1.45,3.53,3.53,0,0,1,.62-1.2,5.18,5.18,0,0,1,1.22-1.13c1.47-1,2.62-1.82,3.46-2.44s1.67-1.26,2.47-1.95a13.25,13.25,0,0,0,1.77-1.76,10.41,10.41,0,0,0,1-1.66A6.12,6.12,0,0,0,53,24.59a15.39,15.39,0,0,0,.14-2.19c0-1.56-.47-2.35-1.42-2.35s-1.55.93-1.55,2.77a2,2,0,0,1-1,2,7,7,0,0,1-2.9.46c-1.73,0-2.91-.39-3.52-1.17a6.48,6.48,0,0,1-.91-3.91,5.48,5.48,0,0,1,2.51-4.56,11.74,11.74,0,0,1,7-1.82q11.07,0,11.07,8.69A14.05,14.05,0,0,1,62,26.21,11.66,11.66,0,0,1,60.89,29a9.08,9.08,0,0,1-1.78,2.12A17.42,17.42,0,0,1,57,32.74,26.68,26.68,0,0,1,54.61,34.08Z"/><path class="cls-4" d="M78.44,31.14a13.37,13.37,0,0,1-4.07.67,8.74,8.74,0,0,1-6.44-2.52,8.64,8.64,0,0,1-2.52-6.38,9.77,9.77,0,0,1,1.27-5,8.24,8.24,0,0,1,3.53-3.26,11.73,11.73,0,0,1,5.23-1.11,13.3,13.3,0,0,1,4.93.86,9.63,9.63,0,0,1,3.46,2.23A11.06,11.06,0,0,1,86,19.84a15.69,15.69,0,0,1,1.14,3.76,24.86,24.86,0,0,1,.3,3.93,23.36,23.36,0,0,1-.47,4.81,14.54,14.54,0,0,1-1.51,4,11.44,11.44,0,0,1-2.61,3.15,11.23,11.23,0,0,1-3.88,2,17.65,17.65,0,0,1-5.19.71,10.12,10.12,0,0,1-5.54-1.43A4.26,4.26,0,0,1,66,37.15a4,4,0,0,1,.9-2.57,2.84,2.84,0,0,1,2.32-1.13,5.61,5.61,0,0,1,2.2.8,5.93,5.93,0,0,0,2.69.8A4,4,0,0,0,76,34.54a4.71,4.71,0,0,0,1.59-1.4A4.93,4.93,0,0,0,78.44,31.14Zm-4.92-8a8.77,8.77,0,0,0,.53,3.17c.35.91.85,1.37,1.5,1.37a1.44,1.44,0,0,0,1.17-.7,4.6,4.6,0,0,0,.75-1.72,9.25,9.25,0,0,0,.25-2.12,7.92,7.92,0,0,0-.57-3.11c-.38-.89-.91-1.34-1.59-1.34S74.37,19.14,74,20A8.66,8.66,0,0,0,73.52,23.16Z"/><path class="cls-5" d="M54.61,34.08h4.52q3.42,0,3.42,4a4,4,0,0,1-1.08,3.17c-.72.63-2,.94-3.85.94h-11a6.93,6.93,0,0,1-3.9-.77c-.69-.52-1-1.63-1-3.34a5.64,5.64,0,0,1,.16-1.45,3.53,3.53,0,0,1,.62-1.2,5.18,5.18,0,0,1,1.22-1.13c1.47-1,2.62-1.82,3.46-2.44s1.67-1.26,2.47-1.95a13.25,13.25,0,0,0,1.77-1.76,10.41,10.41,0,0,0,1-1.66A6.12,6.12,0,0,0,53,24.59a15.39,15.39,0,0,0,.14-2.19c0-1.56-.47-2.35-1.42-2.35s-1.55.93-1.55,2.77a2,2,0,0,1-1,2,7,7,0,0,1-2.9.46c-1.73,0-2.91-.39-3.52-1.17a6.48,6.48,0,0,1-.91-3.91,5.48,5.48,0,0,1,2.51-4.56,11.74,11.74,0,0,1,7-1.82q11.07,0,11.07,8.69A14.05,14.05,0,0,1,62,26.21,11.66,11.66,0,0,1,60.89,29a9.08,9.08,0,0,1-1.78,2.12A17.42,17.42,0,0,1,57,32.74,26.68,26.68,0,0,1,54.61,34.08Z"/><path class="cls-5" d="M78.44,31.14a13.37,13.37,0,0,1-4.07.67,8.74,8.74,0,0,1-6.44-2.52,8.64,8.64,0,0,1-2.52-6.38,9.77,9.77,0,0,1,1.27-5,8.24,8.24,0,0,1,3.53-3.26,11.73,11.73,0,0,1,5.23-1.11,13.3,13.3,0,0,1,4.93.86,9.63,9.63,0,0,1,3.46,2.23A11.06,11.06,0,0,1,86,19.84a15.69,15.69,0,0,1,1.14,3.76,24.86,24.86,0,0,1,.3,3.93,23.36,23.36,0,0,1-.47,4.81,14.54,14.54,0,0,1-1.51,4,11.44,11.44,0,0,1-2.61,3.15,11.23,11.23,0,0,1-3.88,2,17.65,17.65,0,0,1-5.19.71,10.12,10.12,0,0,1-5.54-1.43A4.26,4.26,0,0,1,66,37.15a4,4,0,0,1,.9-2.57,2.84,2.84,0,0,1,2.32-1.13,5.61,5.61,0,0,1,2.2.8,5.93,5.93,0,0,0,2.69.8A4,4,0,0,0,76,34.54a4.71,4.71,0,0,0,1.59-1.4A4.93,4.93,0,0,0,78.44,31.14Zm-4.92-8a8.77,8.77,0,0,0,.53,3.17c.35.91.85,1.37,1.5,1.37a1.44,1.44,0,0,0,1.17-.7,4.6,4.6,0,0,0,.75-1.72,9.25,9.25,0,0,0,.25-2.12,7.92,7.92,0,0,0-.57-3.11c-.38-.89-.91-1.34-1.59-1.34S74.37,19.14,74,20A8.66,8.66,0,0,0,73.52,23.16Z"/></g></g></svg>