<svg xmlns="http://www.w3.org/2000/svg" viewBox="0 0 399.98 94.95"><defs><style>.cls-1{fill:#23841a;}.cls-2{fill:#fff;}.cls-3,.cls-4{fill:none;stroke-width:5px;}.cls-3{stroke:#ff7300;stroke-linejoin:round;}.cls-4{stroke:#fff;}.cls-5{fill:#ff7300;}</style></defs><title>41t</title><g id="Layer_2" data-name="Layer 2"><g id="pestaña_identificativa" data-name="pestaña identificativa"><rect class="cls-1" width="399.98" height="94.95" rx="32.4"/><path class="cls-2" d="M136,17.34a3.84,3.84,0,0,1,.79.08.92.92,0,0,1,.59.42,2.24,2.24,0,0,1,.22,1.15,2.16,2.16,0,0,1-.22,1.13.91.91,0,0,1-.6.42,4.09,4.09,0,0,1-.8.08h-4V33a5.11,5.11,0,0,1-.08.9,1.1,1.1,0,0,1-.48.69,2.55,2.55,0,0,1-1.34.26,2.41,2.41,0,0,1-1.27-.26,1.08,1.08,0,0,1-.49-.7,4.63,4.63,0,0,1-.09-.92V20.61h-4a3.31,3.31,0,0,1-.77-.09,1,1,0,0,1-.61-.42,2.06,2.06,0,0,1-.24-1.14,2,2,0,0,1,.24-1.12.91.91,0,0,1,.61-.43,3.94,3.94,0,0,1,.77-.07Z"/><path class="cls-2" d="M141.56,34.85a2.35,2.35,0,0,1-1.31-.27,1.07,1.07,0,0,1-.48-.71,4.7,4.7,0,0,1-.09-.92V24.22a4.59,4.59,0,0,1,.09-.93,1,1,0,0,1,.49-.68,2.42,2.42,0,0,1,1.32-.26,2.63,2.63,0,0,1,1.26.23,1.1,1.1,0,0,1,.49.55,1.73,1.73,0,0,1,.1.54l-.3.15a2.48,2.48,0,0,1,.26-.36,3.58,3.58,0,0,1,.59-.55,3.71,3.71,0,0,1,.91-.49,3.62,3.62,0,0,1,1.24-.2c.18,0,.39,0,.61,0a4.62,4.62,0,0,1,.7.15,3.41,3.41,0,0,1,.67.3,1.63,1.63,0,0,1,.48.46,1.16,1.16,0,0,1,.19.68,3.06,3.06,0,0,1-.48,1.74,1.4,1.4,0,0,1-1.2.71,2.11,2.11,0,0,1-.6-.06,1.21,1.21,0,0,1-.28-.15,1.17,1.17,0,0,0-.27-.15,1.39,1.39,0,0,0-.55-.07,2.77,2.77,0,0,0-.71.1,1.93,1.93,0,0,0-.62.32,1.32,1.32,0,0,0-.45.52,1.52,1.52,0,0,0-.17.71V33a4.53,4.53,0,0,1-.09.91,1,1,0,0,1-.49.69A2.64,2.64,0,0,1,141.56,34.85Z"/><path class="cls-2" d="M152.77,20.55a2.48,2.48,0,0,1-1.35-.27,1.14,1.14,0,0,1-.49-.73,5.11,5.11,0,0,1,0-1.91,1.07,1.07,0,0,1,.5-.7,2.61,2.61,0,0,1,1.36-.26,2.47,2.47,0,0,1,1.33.27,1.18,1.18,0,0,1,.49.73,5.86,5.86,0,0,1,.08,1,4.73,4.73,0,0,1-.09.93,1,1,0,0,1-.48.71A2.54,2.54,0,0,1,152.77,20.55Zm0,14.3a2.59,2.59,0,0,1-1.33-.26,1,1,0,0,1-.47-.7,5.4,5.4,0,0,1-.08-.91V24.25a4.53,4.53,0,0,1,.09-.91,1.06,1.06,0,0,1,.49-.7,2.42,2.42,0,0,1,1.32-.26,2.34,2.34,0,0,1,1.29.27,1.15,1.15,0,0,1,.47.72,4.59,4.59,0,0,1,.09.93V33a5.43,5.43,0,0,1-.08.92,1,1,0,0,1-.48.68A2.52,2.52,0,0,1,152.76,34.85Z"/><path class="cls-2" d="M167.51,34.84a2.34,2.34,0,0,1-1.38-.33.89.89,0,0,1-.42-.8l.25-.42a2.8,2.8,0,0,1-.58.61,4.11,4.11,0,0,1-1.11.65,4.34,4.34,0,0,1-1.66.28,4.88,4.88,0,0,1-2.19-.5,5.85,5.85,0,0,1-1.84-1.39,7.21,7.21,0,0,1-1.27-2,6.13,6.13,0,0,1,0-4.71,6.9,6.9,0,0,1,1.29-2,6.56,6.56,0,0,1,1.84-1.36,4.94,4.94,0,0,1,2.18-.5,4.09,4.09,0,0,1,1.57.27,4.32,4.32,0,0,1,1.09.61,3.2,3.2,0,0,1,.66.68l-.23-.35a1.07,1.07,0,0,1,.44-.92,2.42,2.42,0,0,1,1.39-.31,2.24,2.24,0,0,1,1.29.28,1.1,1.1,0,0,1,.47.72,4.86,4.86,0,0,1,.09.95v8.63a5.62,5.62,0,0,1-.08.92,1.11,1.11,0,0,1-.48.72A2.5,2.5,0,0,1,167.51,34.84Zm-4.38-3.73a2.16,2.16,0,0,0,1.21-.34,2.66,2.66,0,0,0,.85-.91,2.6,2.6,0,0,0,.32-1.27,2.57,2.57,0,0,0-.32-1.29,2.42,2.42,0,0,0-.88-.89,2.4,2.4,0,0,0-1.22-.33,2.42,2.42,0,0,0-1.26.34,2.53,2.53,0,0,0-.9.91,2.5,2.5,0,0,0-.34,1.3,2.4,2.4,0,0,0,.33,1.24,2.51,2.51,0,0,0,.93.9A2.48,2.48,0,0,0,163.13,31.11Zm-.84-9.65a.85.85,0,0,1-.74-.25,2.71,2.71,0,0,1-.51-1,2.11,2.11,0,0,1-.1-1.3,1.44,1.44,0,0,1,.93-.68l4.4-1.34a.89.89,0,0,1,.72.28,2.4,2.4,0,0,1,.5,1,1.89,1.89,0,0,1,.09,1.28,1.34,1.34,0,0,1-.91.67Z"/><path class="cls-2" d="M173.76,34.84a2.52,2.52,0,0,1-1.32-.26,1.12,1.12,0,0,1-.47-.7,4.56,4.56,0,0,1-.09-.92v-8.8a4.1,4.1,0,0,1,.09-.88,1,1,0,0,1,.49-.66,3.52,3.52,0,0,1,2.5,0,1,1,0,0,1,.48.51,1.5,1.5,0,0,1,.11.56,1,1,0,0,0,.05.37l-.15.47a1.58,1.58,0,0,1,.39-.76,3.74,3.74,0,0,1,.85-.7,4.73,4.73,0,0,1,1.1-.49,4.3,4.3,0,0,1,1.17-.17,5,5,0,0,1,2.13.44,4.24,4.24,0,0,1,1.59,1.26,6,6,0,0,1,1,1.94,8.52,8.52,0,0,1,.33,2.44V33a4.53,4.53,0,0,1-.09.91,1.06,1.06,0,0,1-.48.69,2.63,2.63,0,0,1-1.33.25,2.47,2.47,0,0,1-1.33-.27,1,1,0,0,1-.48-.7,4.46,4.46,0,0,1-.09-.91V28.44a2.87,2.87,0,0,0-.26-1.27,1.88,1.88,0,0,0-.75-.8,2.46,2.46,0,0,0-1.21-.28,2.57,2.57,0,0,0-1.25.29,2.06,2.06,0,0,0-.82.81,2.59,2.59,0,0,0-.28,1.25V33a5.31,5.31,0,0,1-.08.91,1,1,0,0,1-.48.69A2.52,2.52,0,0,1,173.76,34.84Z"/><path class="cls-2" d="M191.63,34.55a4.85,4.85,0,0,1-2.16-.49,5.8,5.8,0,0,1-1.79-1.34,6.5,6.5,0,0,1-1.22-1.95,6.07,6.07,0,0,1-.45-2.32,6,6,0,0,1,.45-2.31,6.38,6.38,0,0,1,1.24-1.93,6.06,6.06,0,0,1,1.8-1.32,4.76,4.76,0,0,1,2.11-.49,3.81,3.81,0,0,1,1.9.44,3.26,3.26,0,0,1,1.25,1.25,6.1,6.1,0,0,1,.71,1.93,11.79,11.79,0,0,1,.24,2.48,11.35,11.35,0,0,1-.41,3.22,4.37,4.37,0,0,1-1.3,2.1A3.61,3.61,0,0,1,191.63,34.55Zm.45,5.48a6.91,6.91,0,0,1-1.76-.23,7.49,7.49,0,0,1-1.59-.6,4.71,4.71,0,0,1-1.15-.8,1.23,1.23,0,0,1-.42-.85,1.81,1.81,0,0,1,.15-.74,2.58,2.58,0,0,1,.45-.66,6.14,6.14,0,0,1,.6-.58.92.92,0,0,1,.6-.19,1.1,1.1,0,0,1,.62.18l.59.42a3.85,3.85,0,0,0,.79.41,3.35,3.35,0,0,0,1.2.19,2.41,2.41,0,0,0,.93-.19,2.15,2.15,0,0,0,.75-.55,2.65,2.65,0,0,0,.5-.85,2.9,2.9,0,0,0,.19-1.09V23.55a1.21,1.21,0,0,1,.51-.93,2.4,2.4,0,0,1,1.34-.29,2.31,2.31,0,0,1,1.25.26,1.11,1.11,0,0,1,.46.69,4.29,4.29,0,0,1,.09.9v9.87a5.88,5.88,0,0,1-.52,2.54,5.75,5.75,0,0,1-1.4,1.88,6.6,6.6,0,0,1-2,1.16A6.46,6.46,0,0,1,192.08,40Zm0-9.1a2.21,2.21,0,0,0,1.2-.34,2.48,2.48,0,0,0,.84-.89,2.44,2.44,0,0,0,.31-1.25,2.49,2.49,0,0,0-.31-1.25,2.36,2.36,0,0,0-.85-.87A2.27,2.27,0,0,0,192,26a2.13,2.13,0,0,0-1.2.34,2.48,2.48,0,0,0-.84.89,2.44,2.44,0,0,0-.31,1.25A2.34,2.34,0,0,0,190,29.7a2.62,2.62,0,0,0,.86.89A2.26,2.26,0,0,0,192.06,30.93Z"/><path class="cls-2" d="M206.13,34.86a5.21,5.21,0,0,1-3.92-1.72,5.64,5.64,0,0,1-1.16-1.92,6.83,6.83,0,0,1-.42-2.44V24.26a4.52,4.52,0,0,1,.09-.93,1.11,1.11,0,0,1,.48-.7,2.47,2.47,0,0,1,1.33-.27,2.37,2.37,0,0,1,1.31.27,1.14,1.14,0,0,1,.48.72,5.46,5.46,0,0,1,.08.93v4.5a2.94,2.94,0,0,0,.26,1.27,1.75,1.75,0,0,0,.78.81,2.67,2.67,0,0,0,1.21.28,2.55,2.55,0,0,0,1.24-.29,2,2,0,0,0,.8-.81,2.59,2.59,0,0,0,.29-1.25V24.24a4.45,4.45,0,0,1,.09-.93,1.07,1.07,0,0,1,.48-.69,2.59,2.59,0,0,1,1.33-.26,2.36,2.36,0,0,1,1.31.28,1.12,1.12,0,0,1,.48.71,5.4,5.4,0,0,1,.08.91v8.8a4.13,4.13,0,0,1-.09.89,1,1,0,0,1-.49.66,2.5,2.5,0,0,1-1.3.25,2.92,2.92,0,0,1-1-.15,1.3,1.3,0,0,1-.55-.37,1,1,0,0,1-.21-.48,3.93,3.93,0,0,1,0-.45l.33-.27a2.55,2.55,0,0,1-.33.38,5.11,5.11,0,0,1-.66.58,4.43,4.43,0,0,1-1,.54A3.37,3.37,0,0,1,206.13,34.86Z"/><path class="cls-2" d="M220.06,34.89a14.2,14.2,0,0,1-1.83-.1,3.9,3.9,0,0,1-1.35-.4,2.58,2.58,0,0,1-.9-.84,3.85,3.85,0,0,1-.52-1.37,10,10,0,0,1-.18-2.06V18.57a4.42,4.42,0,0,1,.1-.93,1.18,1.18,0,0,1,.49-.7,2.39,2.39,0,0,1,1.31-.27,2.34,2.34,0,0,1,1.29.27,1.21,1.21,0,0,1,.49.7,4.49,4.49,0,0,1,.1.93V29.94a4.22,4.22,0,0,0,0,.67.8.8,0,0,0,.15.41.56.56,0,0,0,.31.2,2.4,2.4,0,0,0,.52.05,2.68,2.68,0,0,1,.62.07.9.9,0,0,1,.53.45,2.56,2.56,0,0,1,.23,1.25,2.76,2.76,0,0,1-.23,1.3.88.88,0,0,1-.54.48A2.65,2.65,0,0,1,220.06,34.89Z"/><path class="cls-2" d="M229.28,35.1a6.3,6.3,0,0,1-2.34-.47,7,7,0,0,1-2.11-1.31,6.42,6.42,0,0,1-1.51-2,6.15,6.15,0,0,1-.56-2.64,6.22,6.22,0,0,1,.51-2.51,7,7,0,0,1,1.42-2.06,6.75,6.75,0,0,1,2.06-1.41,6.16,6.16,0,0,1,2.49-.51,6.33,6.33,0,0,1,3.26.86,6.64,6.64,0,0,1,2.34,2.34,6.71,6.71,0,0,1,.31,6,6.5,6.5,0,0,1-3.58,3.32A6.38,6.38,0,0,1,229.28,35.1Zm-.05-3.78a2.85,2.85,0,0,0,1.23-.3,2.64,2.64,0,0,0,1-.89,2.71,2.71,0,0,0,.43-1.53,2.77,2.77,0,0,0-.35-1.4,2.58,2.58,0,0,0-1-.94,2.88,2.88,0,0,0-1.41-.34,2.63,2.63,0,0,0-1.34.35,2.91,2.91,0,0,0-1,1,2.72,2.72,0,0,0-.36,1.39,2.66,2.66,0,0,0,.41,1.51,2.59,2.59,0,0,0,1,.91A2.92,2.92,0,0,0,229.23,31.32Z"/><path class="cls-3" d="M136,17.34a3.84,3.84,0,0,1,.79.08.92.92,0,0,1,.59.42,2.24,2.24,0,0,1,.22,1.15,2.16,2.16,0,0,1-.22,1.13.91.91,0,0,1-.6.42,4.09,4.09,0,0,1-.8.08h-4V33a5.11,5.11,0,0,1-.08.9,1.1,1.1,0,0,1-.48.69,2.55,2.55,0,0,1-1.34.26,2.41,2.41,0,0,1-1.27-.26,1.08,1.08,0,0,1-.49-.7,4.63,4.63,0,0,1-.09-.92V20.61h-4a3.31,3.31,0,0,1-.77-.09,1,1,0,0,1-.61-.42,2.06,2.06,0,0,1-.24-1.14,2,2,0,0,1,.24-1.12.91.91,0,0,1,.61-.43,3.94,3.94,0,0,1,.77-.07Z"/><path class="cls-3" d="M141.56,34.85a2.35,2.35,0,0,1-1.31-.27,1.07,1.07,0,0,1-.48-.71,4.7,4.7,0,0,1-.09-.92V24.22a4.59,4.59,0,0,1,.09-.93,1,1,0,0,1,.49-.68,2.42,2.42,0,0,1,1.32-.26,2.63,2.63,0,0,1,1.26.23,1.1,1.1,0,0,1,.49.55,1.73,1.73,0,0,1,.1.54l-.3.15a2.48,2.48,0,0,1,.26-.36,3.58,3.58,0,0,1,.59-.55,3.71,3.71,0,0,1,.91-.49,3.62,3.62,0,0,1,1.24-.2c.18,0,.39,0,.61,0a4.62,4.62,0,0,1,.7.15,3.41,3.41,0,0,1,.67.3,1.63,1.63,0,0,1,.48.46,1.16,1.16,0,0,1,.19.68,3.06,3.06,0,0,1-.48,1.74,1.4,1.4,0,0,1-1.2.71,2.11,2.11,0,0,1-.6-.06,1.21,1.21,0,0,1-.28-.15,1.17,1.17,0,0,0-.27-.15,1.39,1.39,0,0,0-.55-.07,2.77,2.77,0,0,0-.71.1,1.93,1.93,0,0,0-.62.32,1.32,1.32,0,0,0-.45.52,1.52,1.52,0,0,0-.17.71V33a4.53,4.53,0,0,1-.09.91,1,1,0,0,1-.49.69A2.64,2.64,0,0,1,141.56,34.85Z"/><path class="cls-3" d="M152.77,20.55a2.48,2.48,0,0,1-1.35-.27,1.14,1.14,0,0,1-.49-.73,5.11,5.11,0,0,1,0-1.91,1.07,1.07,0,0,1,.5-.7,2.61,2.61,0,0,1,1.36-.26,2.47,2.47,0,0,1,1.33.27,1.18,1.18,0,0,1,.49.73,5.86,5.86,0,0,1,.08,1,4.73,4.73,0,0,1-.09.93,1,1,0,0,1-.48.71A2.54,2.54,0,0,1,152.77,20.55Zm0,14.3a2.59,2.59,0,0,1-1.33-.26,1,1,0,0,1-.47-.7,5.4,5.4,0,0,1-.08-.91V24.25a4.53,4.53,0,0,1,.09-.91,1.06,1.06,0,0,1,.49-.7,2.42,2.42,0,0,1,1.32-.26,2.34,2.34,0,0,1,1.29.27,1.15,1.15,0,0,1,.47.72,4.59,4.59,0,0,1,.09.93V33a5.43,5.43,0,0,1-.08.92,1,1,0,0,1-.48.68A2.52,2.52,0,0,1,152.76,34.85Z"/><path class="cls-3" d="M167.51,34.84a2.34,2.34,0,0,1-1.38-.33.89.89,0,0,1-.42-.8l.25-.42a2.8,2.8,0,0,1-.58.61,4.11,4.11,0,0,1-1.11.65,4.34,4.34,0,0,1-1.66.28,4.88,4.88,0,0,1-2.19-.5,5.85,5.85,0,0,1-1.84-1.39,7.21,7.21,0,0,1-1.27-2,6.13,6.13,0,0,1,0-4.71,6.9,6.9,0,0,1,1.29-2,6.56,6.56,0,0,1,1.84-1.36,4.94,4.94,0,0,1,2.18-.5,4.09,4.09,0,0,1,1.57.27,4.32,4.32,0,0,1,1.09.61,3.2,3.2,0,0,1,.66.68l-.23-.35a1.07,1.07,0,0,1,.44-.92,2.42,2.42,0,0,1,1.39-.31,2.24,2.24,0,0,1,1.29.28,1.1,1.1,0,0,1,.47.72,4.86,4.86,0,0,1,.09.95v8.63a5.62,5.62,0,0,1-.08.92,1.11,1.11,0,0,1-.48.72A2.5,2.5,0,0,1,167.51,34.84Zm-4.38-3.73a2.16,2.16,0,0,0,1.21-.34,2.66,2.66,0,0,0,.85-.91,2.6,2.6,0,0,0,.32-1.27,2.57,2.57,0,0,0-.32-1.29,2.42,2.42,0,0,0-.88-.89,2.4,2.4,0,0,0-1.22-.33,2.42,2.42,0,0,0-1.26.34,2.53,2.53,0,0,0-.9.91,2.5,2.5,0,0,0-.34,1.3,2.4,2.4,0,0,0,.33,1.24,2.51,2.51,0,0,0,.93.9A2.48,2.48,0,0,0,163.13,31.11Zm-.84-9.65a.85.85,0,0,1-.74-.25,2.71,2.71,0,0,1-.51-1,2.11,2.11,0,0,1-.1-1.3,1.44,1.44,0,0,1,.93-.68l4.4-1.34a.89.89,0,0,1,.72.28,2.4,2.4,0,0,1,.5,1,1.89,1.89,0,0,1,.09,1.28,1.34,1.34,0,0,1-.91.67Z"/><path class="cls-3" d="M173.76,34.84a2.52,2.52,0,0,1-1.32-.26,1.12,1.12,0,0,1-.47-.7,4.56,4.56,0,0,1-.09-.92v-8.8a4.1,4.1,0,0,1,.09-.88,1,1,0,0,1,.49-.66,3.52,3.52,0,0,1,2.5,0,1,1,0,0,1,.48.51,1.5,1.5,0,0,1,.11.56,1,1,0,0,0,.05.37l-.15.47a1.58,1.58,0,0,1,.39-.76,3.74,3.74,0,0,1,.85-.7,4.73,4.73,0,0,1,1.1-.49,4.3,4.3,0,0,1,1.17-.17,5,5,0,0,1,2.13.44,4.24,4.24,0,0,1,1.59,1.26,6,6,0,0,1,1,1.94,8.52,8.52,0,0,1,.33,2.44V33a4.53,4.53,0,0,1-.09.91,1.06,1.06,0,0,1-.48.69,2.63,2.63,0,0,1-1.33.25,2.47,2.47,0,0,1-1.33-.27,1,1,0,0,1-.48-.7,4.46,4.46,0,0,1-.09-.91V28.44a2.87,2.87,0,0,0-.26-1.27,1.88,1.88,0,0,0-.75-.8,2.46,2.46,0,0,0-1.21-.28,2.57,2.57,0,0,0-1.25.29,2.06,2.06,0,0,0-.82.81,2.59,2.59,0,0,0-.28,1.25V33a5.31,5.31,0,0,1-.08.91,1,1,0,0,1-.48.69A2.52,2.52,0,0,1,173.76,34.84Z"/><path class="cls-3" d="M191.63,34.55a4.85,4.85,0,0,1-2.16-.49,5.8,5.8,0,0,1-1.79-1.34,6.5,6.5,0,0,1-1.22-1.95,6.07,6.07,0,0,1-.45-2.32,6,6,0,0,1,.45-2.31,6.38,6.38,0,0,1,1.24-1.93,6.06,6.06,0,0,1,1.8-1.32,4.76,4.76,0,0,1,2.11-.49,3.81,3.81,0,0,1,1.9.44,3.26,3.26,0,0,1,1.25,1.25,6.1,6.1,0,0,1,.71,1.93,11.79,11.79,0,0,1,.24,2.48,11.35,11.35,0,0,1-.41,3.22,4.37,4.37,0,0,1-1.3,2.1A3.61,3.61,0,0,1,191.63,34.55Zm.45,5.48a6.91,6.91,0,0,1-1.76-.23,7.49,7.49,0,0,1-1.59-.6,4.71,4.71,0,0,1-1.15-.8,1.23,1.23,0,0,1-.42-.85,1.81,1.81,0,0,1,.15-.74,2.58,2.58,0,0,1,.45-.66,6.14,6.14,0,0,1,.6-.58.92.92,0,0,1,.6-.19,1.1,1.1,0,0,1,.62.18l.59.42a3.85,3.85,0,0,0,.79.41,3.35,3.35,0,0,0,1.2.19,2.41,2.41,0,0,0,.93-.19,2.15,2.15,0,0,0,.75-.55,2.65,2.65,0,0,0,.5-.85,2.9,2.9,0,0,0,.19-1.09V23.55a1.21,1.21,0,0,1,.51-.93,2.4,2.4,0,0,1,1.34-.29,2.31,2.31,0,0,1,1.25.26,1.11,1.11,0,0,1,.46.69,4.29,4.29,0,0,1,.09.9v9.87a5.88,5.88,0,0,1-.52,2.54,5.75,5.75,0,0,1-1.4,1.88,6.6,6.6,0,0,1-2,1.16A6.46,6.46,0,0,1,192.08,40Zm0-9.1a2.21,2.21,0,0,0,1.2-.34,2.48,2.48,0,0,0,.84-.89,2.44,2.44,0,0,0,.31-1.25,2.49,2.49,0,0,0-.31-1.25,2.36,2.36,0,0,0-.85-.87A2.27,2.27,0,0,0,192,26a2.13,2.13,0,0,0-1.2.34,2.48,2.48,0,0,0-.84.89,2.44,2.44,0,0,0-.31,1.25A2.34,2.34,0,0,0,190,29.7a2.62,2.62,0,0,0,.86.89A2.26,2.26,0,0,0,192.06,30.93Z"/><path class="cls-3" d="M206.13,34.86a5.21,5.21,0,0,1-3.92-1.72,5.64,5.64,0,0,1-1.16-1.92,6.83,6.83,0,0,1-.42-2.44V24.26a4.52,4.52,0,0,1,.09-.93,1.11,1.11,0,0,1,.48-.7,2.47,2.47,0,0,1,1.33-.27,2.37,2.37,0,0,1,1.31.27,1.14,1.14,0,0,1,.48.72,5.46,5.46,0,0,1,.08.93v4.5a2.94,2.94,0,0,0,.26,1.27,1.75,1.75,0,0,0,.78.81,2.67,2.67,0,0,0,1.21.28,2.55,2.55,0,0,0,1.24-.29,2,2,0,0,0,.8-.81,2.59,2.59,0,0,0,.29-1.25V24.24a4.45,4.45,0,0,1,.09-.93,1.07,1.07,0,0,1,.48-.69,2.59,2.59,0,0,1,1.33-.26,2.36,2.36,0,0,1,1.31.28,1.12,1.12,0,0,1,.48.71,5.4,5.4,0,0,1,.08.91v8.8a4.13,4.13,0,0,1-.09.89,1,1,0,0,1-.49.66,2.5,2.5,0,0,1-1.3.25,2.92,2.92,0,0,1-1-.15,1.3,1.3,0,0,1-.55-.37,1,1,0,0,1-.21-.48,3.93,3.93,0,0,1,0-.45l.33-.27a2.55,2.55,0,0,1-.33.38,5.11,5.11,0,0,1-.66.58,4.43,4.43,0,0,1-1,.54A3.37,3.37,0,0,1,206.13,34.86Z"/><path class="cls-3" d="M220.06,34.89a14.2,14.2,0,0,1-1.83-.1,3.9,3.9,0,0,1-1.35-.4,2.58,2.58,0,0,1-.9-.84,3.85,3.85,0,0,1-.52-1.37,10,10,0,0,1-.18-2.06V18.57a4.42,4.42,0,0,1,.1-.93,1.18,1.18,0,0,1,.49-.7,2.39,2.39,0,0,1,1.31-.27,2.34,2.34,0,0,1,1.29.27,1.21,1.21,0,0,1,.49.7,4.49,4.49,0,0,1,.1.93V29.94a4.22,4.22,0,0,0,0,.67.8.8,0,0,0,.15.41.56.56,0,0,0,.31.2,2.4,2.4,0,0,0,.52.05,2.68,2.68,0,0,1,.62.07.9.9,0,0,1,.53.45,2.56,2.56,0,0,1,.23,1.25,2.76,2.76,0,0,1-.23,1.3.88.88,0,0,1-.54.48A2.65,2.65,0,0,1,220.06,34.89Z"/><path class="cls-3" d="M229.28,35.1a6.3,6.3,0,0,1-2.34-.47,7,7,0,0,1-2.11-1.31,6.42,6.42,0,0,1-1.51-2,6.15,6.15,0,0,1-.56-2.64,6.22,6.22,0,0,1,.51-2.51,7,7,0,0,1,1.42-2.06,6.75,6.75,0,0,1,2.06-1.41,6.16,6.16,0,0,1,2.49-.51,6.33,6.33,0,0,1,3.26.86,6.64,6.64,0,0,1,2.34,2.34,6.71,6.71,0,0,1,.31,6,6.5,6.5,0,0,1-3.58,3.32A6.38,6.38,0,0,1,229.28,35.1Zm-.05-3.78a2.85,2.85,0,0,0,1.23-.3,2.64,2.64,0,0,0,1-.89,2.71,2.71,0,0,0,.43-1.53,2.77,2.77,0,0,0-.35-1.4,2.58,2.58,0,0,0-1-.94,2.88,2.88,0,0,0-1.41-.34,2.63,2.63,0,0,0-1.34.35,2.91,2.91,0,0,0-1,1,2.72,2.72,0,0,0-.36,1.39,2.66,2.66,0,0,0,.41,1.51,2.59,2.59,0,0,0,1,.91A2.92,2.92,0,0,0,229.23,31.32Z"/><path class="cls-2" d="M136,17.34a3.84,3.84,0,0,1,.79.08.92.92,0,0,1,.59.42,2.24,2.24,0,0,1,.22,1.15,2.16,2.16,0,0,1-.22,1.13.91.91,0,0,1-.6.42,4.09,4.09,0,0,1-.8.08h-4V33a5.11,5.11,0,0,1-.08.9,1.1,1.1,0,0,1-.48.69,2.55,2.55,0,0,1-1.34.26,2.41,2.41,0,0,1-1.27-.26,1.08,1.08,0,0,1-.49-.7,4.63,4.63,0,0,1-.09-.92V20.61h-4a3.31,3.31,0,0,1-.77-.09,1,1,0,0,1-.61-.42,2.06,2.06,0,0,1-.24-1.14,2,2,0,0,1,.24-1.12.91.91,0,0,1,.61-.43,3.94,3.94,0,0,1,.77-.07Z"/><path class="cls-2" d="M141.56,34.85a2.35,2.35,0,0,1-1.31-.27,1.07,1.07,0,0,1-.48-.71,4.7,4.7,0,0,1-.09-.92V24.22a4.59,4.59,0,0,1,.09-.93,1,1,0,0,1,.49-.68,2.42,2.42,0,0,1,1.32-.26,2.63,2.63,0,0,1,1.26.23,1.1,1.1,0,0,1,.49.55,1.73,1.73,0,0,1,.1.54l-.3.15a2.48,2.48,0,0,1,.26-.36,3.58,3.58,0,0,1,.59-.55,3.71,3.71,0,0,1,.91-.49,3.62,3.62,0,0,1,1.24-.2c.18,0,.39,0,.61,0a4.62,4.62,0,0,1,.7.15,3.41,3.41,0,0,1,.67.3,1.63,1.63,0,0,1,.48.46,1.16,1.16,0,0,1,.19.68,3.06,3.06,0,0,1-.48,1.74,1.4,1.4,0,0,1-1.2.71,2.11,2.11,0,0,1-.6-.06,1.21,1.21,0,0,1-.28-.15,1.17,1.17,0,0,0-.27-.15,1.39,1.39,0,0,0-.55-.07,2.77,2.77,0,0,0-.71.1,1.93,1.93,0,0,0-.62.32,1.32,1.32,0,0,0-.45.52,1.52,1.52,0,0,0-.17.71V33a4.53,4.53,0,0,1-.09.91,1,1,0,0,1-.49.69A2.64,2.64,0,0,1,141.56,34.85Z"/><path class="cls-2" d="M152.77,20.55a2.48,2.48,0,0,1-1.35-.27,1.14,1.14,0,0,1-.49-.73,5.11,5.11,0,0,1,0-1.91,1.07,1.07,0,0,1,.5-.7,2.61,2.61,0,0,1,1.36-.26,2.47,2.47,0,0,1,1.33.27,1.18,1.18,0,0,1,.49.73,5.86,5.86,0,0,1,.08,1,4.73,4.73,0,0,1-.09.93,1,1,0,0,1-.48.71A2.54,2.54,0,0,1,152.77,20.55Zm0,14.3a2.59,2.59,0,0,1-1.33-.26,1,1,0,0,1-.47-.7,5.4,5.4,0,0,1-.08-.91V24.25a4.53,4.53,0,0,1,.09-.91,1.06,1.06,0,0,1,.49-.7,2.42,2.42,0,0,1,1.32-.26,2.34,2.34,0,0,1,1.29.27,1.15,1.15,0,0,1,.47.72,4.59,4.59,0,0,1,.09.93V33a5.43,5.43,0,0,1-.08.92,1,1,0,0,1-.48.68A2.52,2.52,0,0,1,152.76,34.85Z"/><path class="cls-2" d="M167.51,34.84a2.34,2.34,0,0,1-1.38-.33.89.89,0,0,1-.42-.8l.25-.42a2.8,2.8,0,0,1-.58.61,4.11,4.11,0,0,1-1.11.65,4.34,4.34,0,0,1-1.66.28,4.88,4.88,0,0,1-2.19-.5,5.85,5.85,0,0,1-1.84-1.39,7.21,7.21,0,0,1-1.27-2,6.13,6.13,0,0,1,0-4.71,6.9,6.9,0,0,1,1.29-2,6.56,6.56,0,0,1,1.84-1.36,4.94,4.94,0,0,1,2.18-.5,4.09,4.09,0,0,1,1.57.27,4.32,4.32,0,0,1,1.09.61,3.2,3.2,0,0,1,.66.68l-.23-.35a1.07,1.07,0,0,1,.44-.92,2.42,2.42,0,0,1,1.39-.31,2.24,2.24,0,0,1,1.29.28,1.1,1.1,0,0,1,.47.72,4.86,4.86,0,0,1,.09.95v8.63a5.62,5.62,0,0,1-.08.92,1.11,1.11,0,0,1-.48.72A2.5,2.5,0,0,1,167.51,34.84Zm-4.38-3.73a2.16,2.16,0,0,0,1.21-.34,2.66,2.66,0,0,0,.85-.91,2.6,2.6,0,0,0,.32-1.27,2.57,2.57,0,0,0-.32-1.29,2.42,2.42,0,0,0-.88-.89,2.4,2.4,0,0,0-1.22-.33,2.42,2.42,0,0,0-1.26.34,2.53,2.53,0,0,0-.9.91,2.5,2.5,0,0,0-.34,1.3,2.4,2.4,0,0,0,.33,1.24,2.51,2.51,0,0,0,.93.9A2.48,2.48,0,0,0,163.13,31.11Zm-.84-9.65a.85.85,0,0,1-.74-.25,2.71,2.71,0,0,1-.51-1,2.11,2.11,0,0,1-.1-1.3,1.44,1.44,0,0,1,.93-.68l4.4-1.34a.89.89,0,0,1,.72.28,2.4,2.4,0,0,1,.5,1,1.89,1.89,0,0,1,.09,1.28,1.34,1.34,0,0,1-.91.67Z"/><path class="cls-2" d="M173.76,34.84a2.52,2.52,0,0,1-1.32-.26,1.12,1.12,0,0,1-.47-.7,4.56,4.56,0,0,1-.09-.92v-8.8a4.1,4.1,0,0,1,.09-.88,1,1,0,0,1,.49-.66,3.52,3.52,0,0,1,2.5,0,1,1,0,0,1,.48.51,1.5,1.5,0,0,1,.11.56,1,1,0,0,0,.05.37l-.15.47a1.58,1.58,0,0,1,.39-.76,3.74,3.74,0,0,1,.85-.7,4.73,4.73,0,0,1,1.1-.49,4.3,4.3,0,0,1,1.17-.17,5,5,0,0,1,2.13.44,4.24,4.24,0,0,1,1.59,1.26,6,6,0,0,1,1,1.94,8.52,8.52,0,0,1,.33,2.44V33a4.53,4.53,0,0,1-.09.91,1.06,1.06,0,0,1-.48.69,2.63,2.63,0,0,1-1.33.25,2.47,2.47,0,0,1-1.33-.27,1,1,0,0,1-.48-.7,4.46,4.46,0,0,1-.09-.91V28.44a2.87,2.87,0,0,0-.26-1.27,1.88,1.88,0,0,0-.75-.8,2.46,2.46,0,0,0-1.21-.28,2.57,2.57,0,0,0-1.25.29,2.06,2.06,0,0,0-.82.81,2.59,2.59,0,0,0-.28,1.25V33a5.31,5.31,0,0,1-.08.91,1,1,0,0,1-.48.69A2.52,2.52,0,0,1,173.76,34.84Z"/><path class="cls-2" d="M191.63,34.55a4.85,4.85,0,0,1-2.16-.49,5.8,5.8,0,0,1-1.79-1.34,6.5,6.5,0,0,1-1.22-1.95,6.07,6.07,0,0,1-.45-2.32,6,6,0,0,1,.45-2.31,6.38,6.38,0,0,1,1.24-1.93,6.06,6.06,0,0,1,1.8-1.32,4.76,4.76,0,0,1,2.11-.49,3.81,3.81,0,0,1,1.9.44,3.26,3.26,0,0,1,1.25,1.25,6.1,6.1,0,0,1,.71,1.93,11.79,11.79,0,0,1,.24,2.48,11.35,11.35,0,0,1-.41,3.22,4.37,4.37,0,0,1-1.3,2.1A3.61,3.61,0,0,1,191.63,34.55Zm.45,5.48a6.91,6.91,0,0,1-1.76-.23,7.49,7.49,0,0,1-1.59-.6,4.71,4.71,0,0,1-1.15-.8,1.23,1.23,0,0,1-.42-.85,1.81,1.81,0,0,1,.15-.74,2.58,2.58,0,0,1,.45-.66,6.14,6.14,0,0,1,.6-.58.92.92,0,0,1,.6-.19,1.1,1.1,0,0,1,.62.18l.59.42a3.85,3.85,0,0,0,.79.41,3.35,3.35,0,0,0,1.2.19,2.41,2.41,0,0,0,.93-.19,2.15,2.15,0,0,0,.75-.55,2.65,2.65,0,0,0,.5-.85,2.9,2.9,0,0,0,.19-1.09V23.55a1.21,1.21,0,0,1,.51-.93,2.4,2.4,0,0,1,1.34-.29,2.31,2.31,0,0,1,1.25.26,1.11,1.11,0,0,1,.46.69,4.29,4.29,0,0,1,.09.9v9.87a5.88,5.88,0,0,1-.52,2.54,5.75,5.75,0,0,1-1.4,1.88,6.6,6.6,0,0,1-2,1.16A6.46,6.46,0,0,1,192.08,40Zm0-9.1a2.21,2.21,0,0,0,1.2-.34,2.48,2.48,0,0,0,.84-.89,2.44,2.44,0,0,0,.31-1.25,2.49,2.49,0,0,0-.31-1.25,2.36,2.36,0,0,0-.85-.87A2.27,2.27,0,0,0,192,26a2.13,2.13,0,0,0-1.2.34,2.48,2.48,0,0,0-.84.89,2.44,2.44,0,0,0-.31,1.25A2.34,2.34,0,0,0,190,29.7a2.62,2.62,0,0,0,.86.89A2.26,2.26,0,0,0,192.06,30.93Z"/><path class="cls-2" d="M206.13,34.86a5.21,5.21,0,0,1-3.92-1.72,5.64,5.64,0,0,1-1.16-1.92,6.83,6.83,0,0,1-.42-2.44V24.26a4.52,4.52,0,0,1,.09-.93,1.11,1.11,0,0,1,.48-.7,2.47,2.47,0,0,1,1.33-.27,2.37,2.37,0,0,1,1.31.27,1.14,1.14,0,0,1,.48.72,5.46,5.46,0,0,1,.08.93v4.5a2.94,2.94,0,0,0,.26,1.27,1.75,1.75,0,0,0,.78.81,2.67,2.67,0,0,0,1.21.28,2.55,2.55,0,0,0,1.24-.29,2,2,0,0,0,.8-.81,2.59,2.59,0,0,0,.29-1.25V24.24a4.45,4.45,0,0,1,.09-.93,1.07,1.07,0,0,1,.48-.69,2.59,2.59,0,0,1,1.33-.26,2.36,2.36,0,0,1,1.31.28,1.12,1.12,0,0,1,.48.71,5.4,5.4,0,0,1,.08.91v8.8a4.13,4.13,0,0,1-.09.89,1,1,0,0,1-.49.66,2.5,2.5,0,0,1-1.3.25,2.92,2.92,0,0,1-1-.15,1.3,1.3,0,0,1-.55-.37,1,1,0,0,1-.21-.48,3.93,3.93,0,0,1,0-.45l.33-.27a2.55,2.55,0,0,1-.33.38,5.11,5.11,0,0,1-.66.58,4.43,4.43,0,0,1-1,.54A3.37,3.37,0,0,1,206.13,34.86Z"/><path class="cls-2" d="M220.06,34.89a14.2,14.2,0,0,1-1.83-.1,3.9,3.9,0,0,1-1.35-.4,2.58,2.58,0,0,1-.9-.84,3.85,3.85,0,0,1-.52-1.37,10,10,0,0,1-.18-2.06V18.57a4.42,4.42,0,0,1,.1-.93,1.18,1.18,0,0,1,.49-.7,2.39,2.39,0,0,1,1.31-.27,2.34,2.34,0,0,1,1.29.27,1.21,1.21,0,0,1,.49.7,4.49,4.49,0,0,1,.1.93V29.94a4.22,4.22,0,0,0,0,.67.8.8,0,0,0,.15.41.56.56,0,0,0,.31.2,2.4,2.4,0,0,0,.52.05,2.68,2.68,0,0,1,.62.07.9.9,0,0,1,.53.45,2.56,2.56,0,0,1,.23,1.25,2.76,2.76,0,0,1-.23,1.3.88.88,0,0,1-.54.48A2.65,2.65,0,0,1,220.06,34.89Z"/><path class="cls-2" d="M229.28,35.1a6.3,6.3,0,0,1-2.34-.47,7,7,0,0,1-2.11-1.31,6.42,6.42,0,0,1-1.51-2,6.15,6.15,0,0,1-.56-2.64,6.22,6.22,0,0,1,.51-2.51,7,7,0,0,1,1.42-2.06,6.75,6.75,0,0,1,2.06-1.41,6.16,6.16,0,0,1,2.49-.51,6.33,6.33,0,0,1,3.26.86,6.64,6.64,0,0,1,2.34,2.34,6.71,6.71,0,0,1,.31,6,6.5,6.5,0,0,1-3.58,3.32A6.38,6.38,0,0,1,229.28,35.1Zm-.05-3.78a2.85,2.85,0,0,0,1.23-.3,2.64,2.64,0,0,0,1-.89,2.71,2.71,0,0,0,.43-1.53,2.77,2.77,0,0,0-.35-1.4,2.58,2.58,0,0,0-1-.94,2.88,2.88,0,0,0-1.41-.34,2.63,2.63,0,0,0-1.34.35,2.91,2.91,0,0,0-1,1,2.72,2.72,0,0,0-.36,1.39,2.66,2.66,0,0,0,.41,1.51,2.59,2.59,0,0,0,1,.91A2.92,2.92,0,0,0,229.23,31.32Z"/><path class="cls-4" d="M58.88,41.85a4.22,4.22,0,0,1-3.5-1.36c-.74-.91-1.1-2.5-1.1-4.77H46.74a5.31,5.31,0,0,1-3.93-1.3,4.61,4.61,0,0,1-1.28-3.36,7.12,7.12,0,0,1,1.11-3.95Q45.54,22.45,49.16,17A6.65,6.65,0,0,1,55,13.84l3.55,0c2,0,3.32.34,4,1a4.92,4.92,0,0,1,1.06,3.59V29.59a3.66,3.66,0,0,1,2.4.88,3.33,3.33,0,0,1,.65,2.27,2.8,2.8,0,0,1-.7,2.2,4.07,4.07,0,0,1-2.36.74c0,2.21-.4,3.79-1.18,4.74A4.33,4.33,0,0,1,58.88,41.85Zm-4.63-12.1.13-8.94-5.47,8.94Z"/><path class="cls-4" d="M69.23,39a2.78,2.78,0,0,1,1.16-2.31,5.4,5.4,0,0,1,3.28-.88c3,0,4.44,1.07,4.44,3.19a3.11,3.11,0,0,1-.57,2,2.69,2.69,0,0,1-1.51,1,9.11,9.11,0,0,1-2.36.26,6.13,6.13,0,0,1-3.18-.76A2.62,2.62,0,0,1,69.23,39Z"/><path class="cls-4" d="M90.34,35.55q0,3.41-1.19,4.85a4.35,4.35,0,0,1-3.59,1.45,5.69,5.69,0,0,1-2.56-.5,3.3,3.3,0,0,1-1.49-1.85A10.86,10.86,0,0,1,81,35.89L80.9,20.22a6.32,6.32,0,0,1-3.22-.73A2.62,2.62,0,0,1,76.42,17a2.78,2.78,0,0,1,1.16-2.29,5.2,5.2,0,0,1,3.24-.9c.54,0,1.31,0,2.3,0l2.1,0c2,0,3.36.34,4,1a4.92,4.92,0,0,1,1,3.59Z"/><path class="cls-5" d="M58.88,41.85a4.22,4.22,0,0,1-3.5-1.36c-.74-.91-1.1-2.5-1.1-4.77H46.74a5.31,5.31,0,0,1-3.93-1.3,4.61,4.61,0,0,1-1.28-3.36,7.12,7.12,0,0,1,1.11-3.95Q45.54,22.45,49.16,17A6.65,6.65,0,0,1,55,13.84l3.55,0c2,0,3.32.34,4,1a4.92,4.92,0,0,1,1.06,3.59V29.59a3.66,3.66,0,0,1,2.4.88,3.33,3.33,0,0,1,.65,2.27,2.8,2.8,0,0,1-.7,2.2,4.07,4.07,0,0,1-2.36.74c0,2.21-.4,3.79-1.18,4.74A4.33,4.33,0,0,1,58.88,41.85Zm-4.63-12.1.13-8.94-5.47,8.94Z"/><path class="cls-5" d="M69.23,39a2.78,2.78,0,0,1,1.16-2.31,5.4,5.4,0,0,1,3.28-.88c3,0,4.44,1.07,4.44,3.19a3.11,3.11,0,0,1-.57,2,2.69,2.69,0,0,1-1.51,1,9.11,9.11,0,0,1-2.36.26,6.13,6.13,0,0,1-3.18-.76A2.62,2.62,0,0,1,69.23,39Z"/><path class="cls-5" d="M90.34,35.55q0,3.41-1.19,4.85a4.35,4.35,0,0,1-3.59,1.45,5.69,5.69,0,0,1-2.56-.5,3.3,3.3,0,0,1-1.49-1.85A10.86,10.86,0,0,1,81,35.89L80.9,20.22a6.32,6.32,0,0,1-3.22-.73A2.62,2.62,0,0,1,76.42,17a2.78,2.78,0,0,1,1.16-2.29,5.2,5.2,0,0,1,3.24-.9c.54,0,1.31,0,2.3,0l2.1,0c2,0,3.36.34,4,1a4.92,4.92,0,0,1,1,3.59Z"/></g></g></svg>