<svg xmlns="http://www.w3.org/2000/svg" viewBox="0 0 399.98 94.95"><defs><style>.cls-1{fill:#23841a;}.cls-2{fill:#fff;}.cls-3,.cls-4{fill:none;stroke-width:5px;}.cls-3{stroke:#ff7300;stroke-linejoin:round;}.cls-4{stroke:#fff;}.cls-5{fill:#ff7300;}</style></defs><title>42t</title><g id="Layer_2" data-name="Layer 2"><g id="pestaña_identificativa" data-name="pestaña identificativa"><rect class="cls-1" width="399.98" height="94.95" rx="32.4"/><path class="cls-2" d="M131.56,35a8.58,8.58,0,0,1-2.33-.34,9.52,9.52,0,0,1-4.55-2.84,8.48,8.48,0,0,1-1.51-2.55,9.38,9.38,0,0,1-.56-3.33,8.58,8.58,0,0,1,.57-3.23,8.06,8.06,0,0,1,1.51-2.46,9,9,0,0,1,2.13-1.74,9.69,9.69,0,0,1,2.41-1,8.89,8.89,0,0,1,2.39-.34,7.36,7.36,0,0,1,2.22.3,8.09,8.09,0,0,1,1.54.63l.76.42a7.94,7.94,0,0,1,.85.65,1.25,1.25,0,0,1,.43.9,1.61,1.61,0,0,1-.12.6,2.24,2.24,0,0,1-.33.6,3.23,3.23,0,0,1-.78.84,1.23,1.23,0,0,1-.72.26,1.19,1.19,0,0,1-.58-.15c-.18-.1-.4-.23-.65-.4s-.28-.19-.5-.31a3.53,3.53,0,0,0-.89-.34,5.38,5.38,0,0,0-1.38-.15,5.53,5.53,0,0,0-1.77.3,5.18,5.18,0,0,0-1.63.92,4.73,4.73,0,0,0-1.21,1.59,5.3,5.3,0,0,0-.45,2.26,5,5,0,0,0,.47,2.25,4.57,4.57,0,0,0,1.21,1.58,5.24,5.24,0,0,0,1.63.94,5.16,5.16,0,0,0,1.74.31,4.73,4.73,0,0,0,1.28-.15,4.9,4.9,0,0,0,.92-.36c.27-.14.49-.27.68-.39l.56-.32a1.26,1.26,0,0,1,.59-.15,1.19,1.19,0,0,1,.71.27,3.44,3.44,0,0,1,.74.88,2.6,2.6,0,0,1,.33.64,1.66,1.66,0,0,1,.12.61,1,1,0,0,1-.42.86,6.38,6.38,0,0,1-.86.61l-.75.44a7.41,7.41,0,0,1-1.53.62A7.59,7.59,0,0,1,131.56,35Z"/><path class="cls-2" d="M144.93,34.82a5.24,5.24,0,0,1-2.17-.45A5.33,5.33,0,0,1,141,33.11a5.69,5.69,0,0,1-1.16-1.93,6.81,6.81,0,0,1-.41-2.43V24.22a4.59,4.59,0,0,1,.09-.93,1.08,1.08,0,0,1,.49-.69,2.31,2.31,0,0,1,1.32-.28,2.27,2.27,0,0,1,1.31.28,1.12,1.12,0,0,1,.48.71,4.64,4.64,0,0,1,.08.94v4.5a2.92,2.92,0,0,0,.26,1.26,1.8,1.8,0,0,0,.78.81,2.43,2.43,0,0,0,1.21.28,2.53,2.53,0,0,0,1.24-.29,2,2,0,0,0,.8-.81,2.59,2.59,0,0,0,.29-1.25V24.2a4.59,4.59,0,0,1,.09-.93,1,1,0,0,1,.49-.68,2.42,2.42,0,0,1,1.32-.26,2.37,2.37,0,0,1,1.31.27,1.15,1.15,0,0,1,.48.71,4.63,4.63,0,0,1,.08.92V33a4.26,4.26,0,0,1-.09.89,1,1,0,0,1-.49.66,2.61,2.61,0,0,1-1.3.25,2.69,2.69,0,0,1-1.05-.16,1.21,1.21,0,0,1-.55-.37,1.16,1.16,0,0,1-.21-.47,4.14,4.14,0,0,1,0-.45l.33-.28a3.06,3.06,0,0,1-.33.39,5.22,5.22,0,0,1-.66.57,4.21,4.21,0,0,1-1,.54A3.37,3.37,0,0,1,144.93,34.82Z"/><path class="cls-2" d="M164.26,34.84a2.34,2.34,0,0,1-1.38-.33.89.89,0,0,1-.42-.8l.25-.43a2.79,2.79,0,0,1-.58.62,4.26,4.26,0,0,1-2.77.93,5,5,0,0,1-2.19-.5,6,6,0,0,1-1.84-1.39,7.21,7.21,0,0,1-1.27-2,6.13,6.13,0,0,1,0-4.71,6.77,6.77,0,0,1,1.29-2,6.37,6.37,0,0,1,1.84-1.36,4.94,4.94,0,0,1,2.18-.5,4.09,4.09,0,0,1,1.57.27,4,4,0,0,1,1.09.61,3.43,3.43,0,0,1,.66.67l-.22-.35a1,1,0,0,1,.43-.91,2.42,2.42,0,0,1,1.39-.31,2.24,2.24,0,0,1,1.29.28,1.1,1.1,0,0,1,.47.72,4.86,4.86,0,0,1,.09.95v8.63a5.62,5.62,0,0,1-.08.92,1.07,1.07,0,0,1-.48.71A2.39,2.39,0,0,1,164.26,34.84Zm-4.37-3.73a2.13,2.13,0,0,0,1.2-.34,2.57,2.57,0,0,0,.85-.91,2.61,2.61,0,0,0,.32-1.28,2.56,2.56,0,0,0-.32-1.28,2.42,2.42,0,0,0-.88-.89,2.3,2.3,0,0,0-1.22-.33,2.33,2.33,0,0,0-1.26.34,2.53,2.53,0,0,0-1.24,2.21,2.42,2.42,0,0,0,.33,1.24,2.67,2.67,0,0,0,.93.9A2.59,2.59,0,0,0,159.89,31.11Z"/><path class="cls-2" d="M174,34.84a4.92,4.92,0,0,1-2.17-.49A6,6,0,0,1,170,33a6.88,6.88,0,0,1-1.26-2,6.36,6.36,0,0,1,0-4.75,6.62,6.62,0,0,1,1.28-2,6.37,6.37,0,0,1,1.84-1.36,4.88,4.88,0,0,1,2.15-.5,4.35,4.35,0,0,1,2.11.49,4.47,4.47,0,0,1,1.53,1.34,6.3,6.3,0,0,1,.93,2,8.73,8.73,0,0,1,.35,2.35,9.28,9.28,0,0,1-.3,2.4,6,6,0,0,1-.93,2,4.49,4.49,0,0,1-1.55,1.39A4.35,4.35,0,0,1,174,34.84Zm.5-3.7a2.22,2.22,0,0,0,1.22-.34,2.46,2.46,0,0,0,.87-.91,2.42,2.42,0,0,0,.34-1.27,2.58,2.58,0,0,0-.32-1.27,2.61,2.61,0,0,0-.88-.9,2.36,2.36,0,0,0-1.25-.33,2.41,2.41,0,0,0-1.24.32,2.35,2.35,0,0,0-.87.9,2.6,2.6,0,0,0-.31,1.27,2.51,2.51,0,0,0,.32,1.28,2.46,2.46,0,0,0,.9.91A2.32,2.32,0,0,0,174.48,31.14Zm4.35,3.73a2.26,2.26,0,0,1-1.26-.28,1.32,1.32,0,0,1-.54-.85V18.59a5.41,5.41,0,0,1,.07-.91,1,1,0,0,1,.43-.71,2.18,2.18,0,0,1,1.28-.28,2.36,2.36,0,0,1,1.32.27,1.14,1.14,0,0,1,.48.68,4.57,4.57,0,0,1,.1.93V33a4.46,4.46,0,0,1-.09.91,1.14,1.14,0,0,1-.47.71A2.31,2.31,0,0,1,178.83,34.87Z"/><path class="cls-2" d="M185.11,34.87a2.45,2.45,0,0,1-1.31-.26,1.09,1.09,0,0,1-.48-.71,4.73,4.73,0,0,1-.09-.93V24.25a4.45,4.45,0,0,1,.09-.93,1.08,1.08,0,0,1,.49-.69,3.45,3.45,0,0,1,2.58,0,1.06,1.06,0,0,1,.49.55,1.73,1.73,0,0,1,.1.54l-.3.15a2,2,0,0,1,.26-.36,3.2,3.2,0,0,1,.59-.55,3.4,3.4,0,0,1,.91-.49,3.62,3.62,0,0,1,1.24-.2,4.55,4.55,0,0,1,.61,0,3,3,0,0,1,.7.15,2.54,2.54,0,0,1,.67.3,1.51,1.51,0,0,1,.48.46,1.14,1.14,0,0,1,.19.68,3,3,0,0,1-.48,1.73,1.39,1.39,0,0,1-1.2.72,2,2,0,0,1-.6-.07.92.92,0,0,1-.28-.15,1.17,1.17,0,0,0-.27-.15,1.68,1.68,0,0,0-.55-.06,2.39,2.39,0,0,0-.71.1,2.12,2.12,0,0,0-.62.31,1.35,1.35,0,0,0-.45.53,1.46,1.46,0,0,0-.17.71V33a4.63,4.63,0,0,1-.09.92,1,1,0,0,1-.49.68A2.56,2.56,0,0,1,185.11,34.87Z"/><path class="cls-2" d="M204.51,34.86a2.34,2.34,0,0,1-1.38-.33.88.88,0,0,1-.42-.8l.25-.42a2.8,2.8,0,0,1-.58.61,4.11,4.11,0,0,1-1.11.65,4.33,4.33,0,0,1-1.66.29,4.89,4.89,0,0,1-2.19-.51A6,6,0,0,1,195.58,33a7.41,7.41,0,0,1-1.27-2,6.13,6.13,0,0,1,0-4.71,6.72,6.72,0,0,1,1.29-2,6.4,6.4,0,0,1,1.84-1.37,4.93,4.93,0,0,1,2.18-.49,4.1,4.1,0,0,1,1.57.26,4.32,4.32,0,0,1,1.09.61,3.45,3.45,0,0,1,.66.68l-.23-.35a1,1,0,0,1,.44-.91,2.42,2.42,0,0,1,1.39-.32,2.33,2.33,0,0,1,1.29.28,1.13,1.13,0,0,1,.47.72,4.89,4.89,0,0,1,.09,1V33a5.43,5.43,0,0,1-.08.92,1.11,1.11,0,0,1-.48.72A2.5,2.5,0,0,1,204.51,34.86Zm-4.37-3.73a2.16,2.16,0,0,0,1.2-.34,2.57,2.57,0,0,0,.85-.91,2.72,2.72,0,0,0,0-2.56,2.5,2.5,0,0,0-.88-.89,2.39,2.39,0,0,0-1.22-.32,2.42,2.42,0,0,0-1.26.33,2.48,2.48,0,0,0-.9.92,2.44,2.44,0,0,0-.34,1.29,2.4,2.4,0,0,0,.33,1.24,2.6,2.6,0,0,0,2.22,1.24Z"/><path class="cls-2" d="M214.23,34.87a5.22,5.22,0,0,1-2.17-.49A5.9,5.9,0,0,1,210.23,33,6.7,6.7,0,0,1,209,31a6.3,6.3,0,0,1-.46-2.41,6.18,6.18,0,0,1,.46-2.34,6.67,6.67,0,0,1,1.28-2,6.56,6.56,0,0,1,1.84-1.36,4.74,4.74,0,0,1,2.15-.49,4.47,4.47,0,0,1,2.11.48,4.58,4.58,0,0,1,1.53,1.34,6.46,6.46,0,0,1,.93,2,9.08,9.08,0,0,1,.35,2.35,9.28,9.28,0,0,1-.3,2.4,6.12,6.12,0,0,1-.93,2,4.56,4.56,0,0,1-1.55,1.38A4.36,4.36,0,0,1,214.23,34.87Zm.5-3.7a2.31,2.31,0,0,0,1.22-.34,2.62,2.62,0,0,0,.87-.91,2.45,2.45,0,0,0,.34-1.28,2.51,2.51,0,0,0-.32-1.26,2.45,2.45,0,0,0-.88-.9,2.28,2.28,0,0,0-1.25-.34,2.52,2.52,0,0,0-1.24.32,2.35,2.35,0,0,0-.87.9,2.63,2.63,0,0,0-.31,1.28,2.49,2.49,0,0,0,1.22,2.19A2.41,2.41,0,0,0,214.73,31.17Zm4.35,3.72a2.36,2.36,0,0,1-1.26-.27,1.38,1.38,0,0,1-.54-.85V18.62a6.88,6.88,0,0,1,.06-.92,1.09,1.09,0,0,1,.44-.71,2.28,2.28,0,0,1,1.28-.27,2.47,2.47,0,0,1,1.32.26,1.19,1.19,0,0,1,.48.69,4.4,4.4,0,0,1,.1.92V33a4.56,4.56,0,0,1-.09.92,1.12,1.12,0,0,1-.48.71A2.35,2.35,0,0,1,219.08,34.89Z"/><path class="cls-2" d="M229.48,35.1a6.3,6.3,0,0,1-2.34-.47A7,7,0,0,1,225,33.32a6.42,6.42,0,0,1-1.51-2,6.14,6.14,0,0,1-.56-2.63,6.24,6.24,0,0,1,.51-2.52,7,7,0,0,1,1.42-2.06A6.75,6.75,0,0,1,227,22.66a6.16,6.16,0,0,1,2.49-.51,6.33,6.33,0,0,1,3.26.86A6.64,6.64,0,0,1,235,25.35a6.71,6.71,0,0,1,.31,6,6.5,6.5,0,0,1-3.58,3.32A6.38,6.38,0,0,1,229.48,35.1Zm0-3.78a2.85,2.85,0,0,0,1.23-.3,2.57,2.57,0,0,0,1.05-.89,2.61,2.61,0,0,0,.43-1.53,2.77,2.77,0,0,0-.35-1.4,2.58,2.58,0,0,0-1-.94,2.88,2.88,0,0,0-1.41-.34,2.63,2.63,0,0,0-1.34.35,2.85,2.85,0,0,0-.95,1,2.91,2.91,0,0,0,0,2.89,2.59,2.59,0,0,0,1,.91A2.92,2.92,0,0,0,229.43,31.32Z"/><path class="cls-3" d="M131.56,35a8.58,8.58,0,0,1-2.33-.34,9.52,9.52,0,0,1-4.55-2.84,8.48,8.48,0,0,1-1.51-2.55,9.38,9.38,0,0,1-.56-3.33,8.58,8.58,0,0,1,.57-3.23,8.06,8.06,0,0,1,1.51-2.46,9,9,0,0,1,2.13-1.74,9.69,9.69,0,0,1,2.41-1,8.89,8.89,0,0,1,2.39-.34,7.36,7.36,0,0,1,2.22.3,8.09,8.09,0,0,1,1.54.63l.76.42a7.94,7.94,0,0,1,.85.65,1.25,1.25,0,0,1,.43.9,1.61,1.61,0,0,1-.12.6,2.24,2.24,0,0,1-.33.6,3.23,3.23,0,0,1-.78.84,1.23,1.23,0,0,1-.72.26,1.19,1.19,0,0,1-.58-.15c-.18-.1-.4-.23-.65-.4s-.28-.19-.5-.31a3.53,3.53,0,0,0-.89-.34,5.38,5.38,0,0,0-1.38-.15,5.53,5.53,0,0,0-1.77.3,5.18,5.18,0,0,0-1.63.92,4.73,4.73,0,0,0-1.21,1.59,5.3,5.3,0,0,0-.45,2.26,5,5,0,0,0,.47,2.25,4.57,4.57,0,0,0,1.21,1.58,5.24,5.24,0,0,0,1.63.94,5.16,5.16,0,0,0,1.74.31,4.73,4.73,0,0,0,1.28-.15,4.9,4.9,0,0,0,.92-.36c.27-.14.49-.27.68-.39l.56-.32a1.26,1.26,0,0,1,.59-.15,1.19,1.19,0,0,1,.71.27,3.44,3.44,0,0,1,.74.88,2.6,2.6,0,0,1,.33.64,1.66,1.66,0,0,1,.12.61,1,1,0,0,1-.42.86,6.38,6.38,0,0,1-.86.61l-.75.44a7.41,7.41,0,0,1-1.53.62A7.59,7.59,0,0,1,131.56,35Z"/><path class="cls-3" d="M144.93,34.82a5.24,5.24,0,0,1-2.17-.45A5.33,5.33,0,0,1,141,33.11a5.69,5.69,0,0,1-1.16-1.93,6.81,6.81,0,0,1-.41-2.43V24.22a4.59,4.59,0,0,1,.09-.93,1.08,1.08,0,0,1,.49-.69,2.31,2.31,0,0,1,1.32-.28,2.27,2.27,0,0,1,1.31.28,1.12,1.12,0,0,1,.48.71,4.64,4.64,0,0,1,.08.94v4.5a2.92,2.92,0,0,0,.26,1.26,1.8,1.8,0,0,0,.78.81,2.43,2.43,0,0,0,1.21.28,2.53,2.53,0,0,0,1.24-.29,2,2,0,0,0,.8-.81,2.59,2.59,0,0,0,.29-1.25V24.2a4.59,4.59,0,0,1,.09-.93,1,1,0,0,1,.49-.68,2.42,2.42,0,0,1,1.32-.26,2.37,2.37,0,0,1,1.31.27,1.15,1.15,0,0,1,.48.71,4.63,4.63,0,0,1,.08.92V33a4.26,4.26,0,0,1-.09.89,1,1,0,0,1-.49.66,2.61,2.61,0,0,1-1.3.25,2.69,2.69,0,0,1-1.05-.16,1.21,1.21,0,0,1-.55-.37,1.16,1.16,0,0,1-.21-.47,4.14,4.14,0,0,1,0-.45l.33-.28a3.06,3.06,0,0,1-.33.39,5.22,5.22,0,0,1-.66.57,4.21,4.21,0,0,1-1,.54A3.37,3.37,0,0,1,144.93,34.82Z"/><path class="cls-3" d="M164.26,34.84a2.34,2.34,0,0,1-1.38-.33.89.89,0,0,1-.42-.8l.25-.43a2.79,2.79,0,0,1-.58.62,4.26,4.26,0,0,1-2.77.93,5,5,0,0,1-2.19-.5,6,6,0,0,1-1.84-1.39,7.21,7.21,0,0,1-1.27-2,6.13,6.13,0,0,1,0-4.71,6.77,6.77,0,0,1,1.29-2,6.37,6.37,0,0,1,1.84-1.36,4.94,4.94,0,0,1,2.18-.5,4.09,4.09,0,0,1,1.57.27,4,4,0,0,1,1.09.61,3.43,3.43,0,0,1,.66.67l-.22-.35a1,1,0,0,1,.43-.91,2.42,2.42,0,0,1,1.39-.31,2.24,2.24,0,0,1,1.29.28,1.1,1.1,0,0,1,.47.72,4.86,4.86,0,0,1,.09.95v8.63a5.62,5.62,0,0,1-.08.92,1.07,1.07,0,0,1-.48.71A2.39,2.39,0,0,1,164.26,34.84Zm-4.37-3.73a2.13,2.13,0,0,0,1.2-.34,2.57,2.57,0,0,0,.85-.91,2.61,2.61,0,0,0,.32-1.28,2.56,2.56,0,0,0-.32-1.28,2.42,2.42,0,0,0-.88-.89,2.3,2.3,0,0,0-1.22-.33,2.33,2.33,0,0,0-1.26.34,2.53,2.53,0,0,0-1.24,2.21,2.42,2.42,0,0,0,.33,1.24,2.67,2.67,0,0,0,.93.9A2.59,2.59,0,0,0,159.89,31.11Z"/><path class="cls-3" d="M174,34.84a4.92,4.92,0,0,1-2.17-.49A6,6,0,0,1,170,33a6.88,6.88,0,0,1-1.26-2,6.36,6.36,0,0,1,0-4.75,6.62,6.62,0,0,1,1.28-2,6.37,6.37,0,0,1,1.84-1.36,4.88,4.88,0,0,1,2.15-.5,4.35,4.35,0,0,1,2.11.49,4.47,4.47,0,0,1,1.53,1.34,6.3,6.3,0,0,1,.93,2,8.73,8.73,0,0,1,.35,2.35,9.28,9.28,0,0,1-.3,2.4,6,6,0,0,1-.93,2,4.49,4.49,0,0,1-1.55,1.39A4.35,4.35,0,0,1,174,34.84Zm.5-3.7a2.22,2.22,0,0,0,1.22-.34,2.46,2.46,0,0,0,.87-.91,2.42,2.42,0,0,0,.34-1.27,2.58,2.58,0,0,0-.32-1.27,2.61,2.61,0,0,0-.88-.9,2.36,2.36,0,0,0-1.25-.33,2.41,2.41,0,0,0-1.24.32,2.35,2.35,0,0,0-.87.9,2.6,2.6,0,0,0-.31,1.27,2.51,2.51,0,0,0,.32,1.28,2.46,2.46,0,0,0,.9.91A2.32,2.32,0,0,0,174.48,31.14Zm4.35,3.73a2.26,2.26,0,0,1-1.26-.28,1.32,1.32,0,0,1-.54-.85V18.59a5.41,5.41,0,0,1,.07-.91,1,1,0,0,1,.43-.71,2.18,2.18,0,0,1,1.28-.28,2.36,2.36,0,0,1,1.32.27,1.14,1.14,0,0,1,.48.68,4.57,4.57,0,0,1,.1.93V33a4.46,4.46,0,0,1-.09.91,1.14,1.14,0,0,1-.47.71A2.31,2.31,0,0,1,178.83,34.87Z"/><path class="cls-3" d="M185.11,34.87a2.45,2.45,0,0,1-1.31-.26,1.09,1.09,0,0,1-.48-.71,4.73,4.73,0,0,1-.09-.93V24.25a4.45,4.45,0,0,1,.09-.93,1.08,1.08,0,0,1,.49-.69,3.45,3.45,0,0,1,2.58,0,1.06,1.06,0,0,1,.49.55,1.73,1.73,0,0,1,.1.54l-.3.15a2,2,0,0,1,.26-.36,3.2,3.2,0,0,1,.59-.55,3.4,3.4,0,0,1,.91-.49,3.62,3.62,0,0,1,1.24-.2,4.55,4.55,0,0,1,.61,0,3,3,0,0,1,.7.15,2.54,2.54,0,0,1,.67.3,1.51,1.51,0,0,1,.48.46,1.14,1.14,0,0,1,.19.68,3,3,0,0,1-.48,1.73,1.39,1.39,0,0,1-1.2.72,2,2,0,0,1-.6-.07.92.92,0,0,1-.28-.15,1.17,1.17,0,0,0-.27-.15,1.68,1.68,0,0,0-.55-.06,2.39,2.39,0,0,0-.71.1,2.12,2.12,0,0,0-.62.31,1.35,1.35,0,0,0-.45.53,1.46,1.46,0,0,0-.17.71V33a4.63,4.63,0,0,1-.09.92,1,1,0,0,1-.49.68A2.56,2.56,0,0,1,185.11,34.87Z"/><path class="cls-3" d="M204.51,34.86a2.34,2.34,0,0,1-1.38-.33.88.88,0,0,1-.42-.8l.25-.42a2.8,2.8,0,0,1-.58.61,4.11,4.11,0,0,1-1.11.65,4.33,4.33,0,0,1-1.66.29,4.89,4.89,0,0,1-2.19-.51A6,6,0,0,1,195.58,33a7.41,7.41,0,0,1-1.27-2,6.13,6.13,0,0,1,0-4.71,6.72,6.72,0,0,1,1.29-2,6.4,6.4,0,0,1,1.84-1.37,4.93,4.93,0,0,1,2.18-.49,4.1,4.1,0,0,1,1.57.26,4.32,4.32,0,0,1,1.09.61,3.45,3.45,0,0,1,.66.68l-.23-.35a1,1,0,0,1,.44-.91,2.42,2.42,0,0,1,1.39-.32,2.33,2.33,0,0,1,1.29.28,1.13,1.13,0,0,1,.47.72,4.89,4.89,0,0,1,.09,1V33a5.43,5.43,0,0,1-.08.92,1.11,1.11,0,0,1-.48.72A2.5,2.5,0,0,1,204.51,34.86Zm-4.37-3.73a2.16,2.16,0,0,0,1.2-.34,2.57,2.57,0,0,0,.85-.91,2.72,2.72,0,0,0,0-2.56,2.5,2.5,0,0,0-.88-.89,2.39,2.39,0,0,0-1.22-.32,2.42,2.42,0,0,0-1.26.33,2.48,2.48,0,0,0-.9.92,2.44,2.44,0,0,0-.34,1.29,2.4,2.4,0,0,0,.33,1.24,2.6,2.6,0,0,0,2.22,1.24Z"/><path class="cls-3" d="M214.23,34.87a5.22,5.22,0,0,1-2.17-.49A5.9,5.9,0,0,1,210.23,33,6.7,6.7,0,0,1,209,31a6.3,6.3,0,0,1-.46-2.41,6.18,6.18,0,0,1,.46-2.34,6.67,6.67,0,0,1,1.28-2,6.56,6.56,0,0,1,1.84-1.36,4.74,4.74,0,0,1,2.15-.49,4.47,4.47,0,0,1,2.11.48,4.58,4.58,0,0,1,1.53,1.34,6.46,6.46,0,0,1,.93,2,9.08,9.08,0,0,1,.35,2.35,9.28,9.28,0,0,1-.3,2.4,6.12,6.12,0,0,1-.93,2,4.56,4.56,0,0,1-1.55,1.38A4.36,4.36,0,0,1,214.23,34.87Zm.5-3.7a2.31,2.31,0,0,0,1.22-.34,2.62,2.62,0,0,0,.87-.91,2.45,2.45,0,0,0,.34-1.28,2.51,2.51,0,0,0-.32-1.26,2.45,2.45,0,0,0-.88-.9,2.28,2.28,0,0,0-1.25-.34,2.52,2.52,0,0,0-1.24.32,2.35,2.35,0,0,0-.87.9,2.63,2.63,0,0,0-.31,1.28,2.49,2.49,0,0,0,1.22,2.19A2.41,2.41,0,0,0,214.73,31.17Zm4.35,3.72a2.36,2.36,0,0,1-1.26-.27,1.38,1.38,0,0,1-.54-.85V18.62a6.88,6.88,0,0,1,.06-.92,1.09,1.09,0,0,1,.44-.71,2.28,2.28,0,0,1,1.28-.27,2.47,2.47,0,0,1,1.32.26,1.19,1.19,0,0,1,.48.69,4.4,4.4,0,0,1,.1.92V33a4.56,4.56,0,0,1-.09.92,1.12,1.12,0,0,1-.48.71A2.35,2.35,0,0,1,219.08,34.89Z"/><path class="cls-3" d="M229.48,35.1a6.3,6.3,0,0,1-2.34-.47A7,7,0,0,1,225,33.32a6.42,6.42,0,0,1-1.51-2,6.14,6.14,0,0,1-.56-2.63,6.24,6.24,0,0,1,.51-2.52,7,7,0,0,1,1.42-2.06A6.75,6.75,0,0,1,227,22.66a6.16,6.16,0,0,1,2.49-.51,6.33,6.33,0,0,1,3.26.86A6.64,6.64,0,0,1,235,25.35a6.71,6.71,0,0,1,.31,6,6.5,6.5,0,0,1-3.58,3.32A6.38,6.38,0,0,1,229.48,35.1Zm0-3.78a2.85,2.85,0,0,0,1.23-.3,2.57,2.57,0,0,0,1.05-.89,2.61,2.61,0,0,0,.43-1.53,2.77,2.77,0,0,0-.35-1.4,2.58,2.58,0,0,0-1-.94,2.88,2.88,0,0,0-1.41-.34,2.63,2.63,0,0,0-1.34.35,2.85,2.85,0,0,0-.95,1,2.91,2.91,0,0,0,0,2.89,2.59,2.59,0,0,0,1,.91A2.92,2.92,0,0,0,229.43,31.32Z"/><path class="cls-2" d="M131.56,35a8.58,8.58,0,0,1-2.33-.34,9.52,9.52,0,0,1-4.55-2.84,8.48,8.48,0,0,1-1.51-2.55,9.38,9.38,0,0,1-.56-3.33,8.58,8.58,0,0,1,.57-3.23,8.06,8.06,0,0,1,1.51-2.46,9,9,0,0,1,2.13-1.74,9.69,9.69,0,0,1,2.41-1,8.89,8.89,0,0,1,2.39-.34,7.36,7.36,0,0,1,2.22.3,8.09,8.09,0,0,1,1.54.63l.76.42a7.94,7.94,0,0,1,.85.65,1.25,1.25,0,0,1,.43.9,1.61,1.61,0,0,1-.12.6,2.24,2.24,0,0,1-.33.6,3.23,3.23,0,0,1-.78.84,1.23,1.23,0,0,1-.72.26,1.19,1.19,0,0,1-.58-.15c-.18-.1-.4-.23-.65-.4s-.28-.19-.5-.31a3.53,3.53,0,0,0-.89-.34,5.38,5.38,0,0,0-1.38-.15,5.53,5.53,0,0,0-1.77.3,5.18,5.18,0,0,0-1.63.92,4.73,4.73,0,0,0-1.21,1.59,5.3,5.3,0,0,0-.45,2.26,5,5,0,0,0,.47,2.25,4.57,4.57,0,0,0,1.21,1.58,5.24,5.24,0,0,0,1.63.94,5.16,5.16,0,0,0,1.74.31,4.73,4.73,0,0,0,1.28-.15,4.9,4.9,0,0,0,.92-.36c.27-.14.49-.27.68-.39l.56-.32a1.26,1.26,0,0,1,.59-.15,1.19,1.19,0,0,1,.71.27,3.44,3.44,0,0,1,.74.88,2.6,2.6,0,0,1,.33.64,1.66,1.66,0,0,1,.12.61,1,1,0,0,1-.42.86,6.38,6.38,0,0,1-.86.61l-.75.44a7.41,7.41,0,0,1-1.53.62A7.59,7.59,0,0,1,131.56,35Z"/><path class="cls-2" d="M144.93,34.82a5.24,5.24,0,0,1-2.17-.45A5.33,5.33,0,0,1,141,33.11a5.69,5.69,0,0,1-1.16-1.93,6.81,6.81,0,0,1-.41-2.43V24.22a4.59,4.59,0,0,1,.09-.93,1.08,1.08,0,0,1,.49-.69,2.31,2.31,0,0,1,1.32-.28,2.27,2.27,0,0,1,1.31.28,1.12,1.12,0,0,1,.48.71,4.64,4.64,0,0,1,.08.94v4.5a2.92,2.92,0,0,0,.26,1.26,1.8,1.8,0,0,0,.78.81,2.43,2.43,0,0,0,1.21.28,2.53,2.53,0,0,0,1.24-.29,2,2,0,0,0,.8-.81,2.59,2.59,0,0,0,.29-1.25V24.2a4.59,4.59,0,0,1,.09-.93,1,1,0,0,1,.49-.68,2.42,2.42,0,0,1,1.32-.26,2.37,2.37,0,0,1,1.31.27,1.15,1.15,0,0,1,.48.71,4.63,4.63,0,0,1,.08.92V33a4.26,4.26,0,0,1-.09.89,1,1,0,0,1-.49.66,2.61,2.61,0,0,1-1.3.25,2.69,2.69,0,0,1-1.05-.16,1.21,1.21,0,0,1-.55-.37,1.16,1.16,0,0,1-.21-.47,4.14,4.14,0,0,1,0-.45l.33-.28a3.06,3.06,0,0,1-.33.39,5.22,5.22,0,0,1-.66.57,4.21,4.21,0,0,1-1,.54A3.37,3.37,0,0,1,144.93,34.82Z"/><path class="cls-2" d="M164.26,34.84a2.34,2.34,0,0,1-1.38-.33.89.89,0,0,1-.42-.8l.25-.43a2.79,2.79,0,0,1-.58.62,4.26,4.26,0,0,1-2.77.93,5,5,0,0,1-2.19-.5,6,6,0,0,1-1.84-1.39,7.21,7.21,0,0,1-1.27-2,6.13,6.13,0,0,1,0-4.71,6.77,6.77,0,0,1,1.29-2,6.37,6.37,0,0,1,1.84-1.36,4.94,4.94,0,0,1,2.18-.5,4.09,4.09,0,0,1,1.57.27,4,4,0,0,1,1.09.61,3.43,3.43,0,0,1,.66.67l-.22-.35a1,1,0,0,1,.43-.91,2.42,2.42,0,0,1,1.39-.31,2.24,2.24,0,0,1,1.29.28,1.1,1.1,0,0,1,.47.72,4.86,4.86,0,0,1,.09.95v8.63a5.62,5.62,0,0,1-.08.92,1.07,1.07,0,0,1-.48.71A2.39,2.39,0,0,1,164.26,34.84Zm-4.37-3.73a2.13,2.13,0,0,0,1.2-.34,2.57,2.57,0,0,0,.85-.91,2.61,2.61,0,0,0,.32-1.28,2.56,2.56,0,0,0-.32-1.28,2.42,2.42,0,0,0-.88-.89,2.3,2.3,0,0,0-1.22-.33,2.33,2.33,0,0,0-1.26.34,2.53,2.53,0,0,0-1.24,2.21,2.42,2.42,0,0,0,.33,1.24,2.67,2.67,0,0,0,.93.9A2.59,2.59,0,0,0,159.89,31.11Z"/><path class="cls-2" d="M174,34.84a4.92,4.92,0,0,1-2.17-.49A6,6,0,0,1,170,33a6.88,6.88,0,0,1-1.26-2,6.36,6.36,0,0,1,0-4.75,6.62,6.62,0,0,1,1.28-2,6.37,6.37,0,0,1,1.84-1.36,4.88,4.88,0,0,1,2.15-.5,4.35,4.35,0,0,1,2.11.49,4.47,4.47,0,0,1,1.53,1.34,6.3,6.3,0,0,1,.93,2,8.73,8.73,0,0,1,.35,2.35,9.28,9.28,0,0,1-.3,2.4,6,6,0,0,1-.93,2,4.49,4.49,0,0,1-1.55,1.39A4.35,4.35,0,0,1,174,34.84Zm.5-3.7a2.22,2.22,0,0,0,1.22-.34,2.46,2.46,0,0,0,.87-.91,2.42,2.42,0,0,0,.34-1.27,2.58,2.58,0,0,0-.32-1.27,2.61,2.61,0,0,0-.88-.9,2.36,2.36,0,0,0-1.25-.33,2.41,2.41,0,0,0-1.24.32,2.35,2.35,0,0,0-.87.9,2.6,2.6,0,0,0-.31,1.27,2.51,2.51,0,0,0,.32,1.28,2.46,2.46,0,0,0,.9.91A2.32,2.32,0,0,0,174.48,31.14Zm4.35,3.73a2.26,2.26,0,0,1-1.26-.28,1.32,1.32,0,0,1-.54-.85V18.59a5.41,5.41,0,0,1,.07-.91,1,1,0,0,1,.43-.71,2.18,2.18,0,0,1,1.28-.28,2.36,2.36,0,0,1,1.32.27,1.14,1.14,0,0,1,.48.68,4.57,4.57,0,0,1,.1.93V33a4.46,4.46,0,0,1-.09.91,1.14,1.14,0,0,1-.47.71A2.31,2.31,0,0,1,178.83,34.87Z"/><path class="cls-2" d="M185.11,34.87a2.45,2.45,0,0,1-1.31-.26,1.09,1.09,0,0,1-.48-.71,4.73,4.73,0,0,1-.09-.93V24.25a4.45,4.45,0,0,1,.09-.93,1.08,1.08,0,0,1,.49-.69,3.45,3.45,0,0,1,2.58,0,1.06,1.06,0,0,1,.49.55,1.73,1.73,0,0,1,.1.54l-.3.15a2,2,0,0,1,.26-.36,3.2,3.2,0,0,1,.59-.55,3.4,3.4,0,0,1,.91-.49,3.62,3.62,0,0,1,1.24-.2,4.55,4.55,0,0,1,.61,0,3,3,0,0,1,.7.15,2.54,2.54,0,0,1,.67.3,1.51,1.51,0,0,1,.48.46,1.14,1.14,0,0,1,.19.68,3,3,0,0,1-.48,1.73,1.39,1.39,0,0,1-1.2.72,2,2,0,0,1-.6-.07.92.92,0,0,1-.28-.15,1.17,1.17,0,0,0-.27-.15,1.68,1.68,0,0,0-.55-.06,2.39,2.39,0,0,0-.71.1,2.12,2.12,0,0,0-.62.31,1.35,1.35,0,0,0-.45.53,1.46,1.46,0,0,0-.17.71V33a4.63,4.63,0,0,1-.09.92,1,1,0,0,1-.49.68A2.56,2.56,0,0,1,185.11,34.87Z"/><path class="cls-2" d="M204.51,34.86a2.34,2.34,0,0,1-1.38-.33.88.88,0,0,1-.42-.8l.25-.42a2.8,2.8,0,0,1-.58.61,4.11,4.11,0,0,1-1.11.65,4.33,4.33,0,0,1-1.66.29,4.89,4.89,0,0,1-2.19-.51A6,6,0,0,1,195.58,33a7.41,7.41,0,0,1-1.27-2,6.13,6.13,0,0,1,0-4.71,6.72,6.72,0,0,1,1.29-2,6.4,6.4,0,0,1,1.84-1.37,4.93,4.93,0,0,1,2.18-.49,4.1,4.1,0,0,1,1.57.26,4.32,4.32,0,0,1,1.09.61,3.45,3.45,0,0,1,.66.68l-.23-.35a1,1,0,0,1,.44-.91,2.42,2.42,0,0,1,1.39-.32,2.33,2.33,0,0,1,1.29.28,1.13,1.13,0,0,1,.47.72,4.89,4.89,0,0,1,.09,1V33a5.43,5.43,0,0,1-.08.92,1.11,1.11,0,0,1-.48.72A2.5,2.5,0,0,1,204.51,34.86Zm-4.37-3.73a2.16,2.16,0,0,0,1.2-.34,2.57,2.57,0,0,0,.85-.91,2.72,2.72,0,0,0,0-2.56,2.5,2.5,0,0,0-.88-.89,2.39,2.39,0,0,0-1.22-.32,2.42,2.42,0,0,0-1.26.33,2.48,2.48,0,0,0-.9.92,2.44,2.44,0,0,0-.34,1.29,2.4,2.4,0,0,0,.33,1.24,2.6,2.6,0,0,0,2.22,1.24Z"/><path class="cls-2" d="M214.23,34.87a5.22,5.22,0,0,1-2.17-.49A5.9,5.9,0,0,1,210.23,33,6.7,6.7,0,0,1,209,31a6.3,6.3,0,0,1-.46-2.41,6.18,6.18,0,0,1,.46-2.34,6.67,6.67,0,0,1,1.28-2,6.56,6.56,0,0,1,1.84-1.36,4.74,4.74,0,0,1,2.15-.49,4.47,4.47,0,0,1,2.11.48,4.58,4.58,0,0,1,1.53,1.34,6.46,6.46,0,0,1,.93,2,9.08,9.08,0,0,1,.35,2.35,9.28,9.28,0,0,1-.3,2.4,6.12,6.12,0,0,1-.93,2,4.56,4.56,0,0,1-1.55,1.38A4.36,4.36,0,0,1,214.23,34.87Zm.5-3.7a2.31,2.31,0,0,0,1.22-.34,2.62,2.62,0,0,0,.87-.91,2.45,2.45,0,0,0,.34-1.28,2.51,2.51,0,0,0-.32-1.26,2.45,2.45,0,0,0-.88-.9,2.28,2.28,0,0,0-1.25-.34,2.52,2.52,0,0,0-1.24.32,2.35,2.35,0,0,0-.87.9,2.63,2.63,0,0,0-.31,1.28,2.49,2.49,0,0,0,1.22,2.19A2.41,2.41,0,0,0,214.73,31.17Zm4.35,3.72a2.36,2.36,0,0,1-1.26-.27,1.38,1.38,0,0,1-.54-.85V18.62a6.88,6.88,0,0,1,.06-.92,1.09,1.09,0,0,1,.44-.71,2.28,2.28,0,0,1,1.28-.27,2.47,2.47,0,0,1,1.32.26,1.19,1.19,0,0,1,.48.69,4.4,4.4,0,0,1,.1.92V33a4.56,4.56,0,0,1-.09.92,1.12,1.12,0,0,1-.48.71A2.35,2.35,0,0,1,219.08,34.89Z"/><path class="cls-2" d="M229.48,35.1a6.3,6.3,0,0,1-2.34-.47A7,7,0,0,1,225,33.32a6.42,6.42,0,0,1-1.51-2,6.14,6.14,0,0,1-.56-2.63,6.24,6.24,0,0,1,.51-2.52,7,7,0,0,1,1.42-2.06A6.75,6.75,0,0,1,227,22.66a6.16,6.16,0,0,1,2.49-.51,6.33,6.33,0,0,1,3.26.86A6.64,6.64,0,0,1,235,25.35a6.71,6.71,0,0,1,.31,6,6.5,6.5,0,0,1-3.58,3.32A6.38,6.38,0,0,1,229.48,35.1Zm0-3.78a2.85,2.85,0,0,0,1.23-.3,2.57,2.57,0,0,0,1.05-.89,2.61,2.61,0,0,0,.43-1.53,2.77,2.77,0,0,0-.35-1.4,2.58,2.58,0,0,0-1-.94,2.88,2.88,0,0,0-1.41-.34,2.63,2.63,0,0,0-1.34.35,2.85,2.85,0,0,0-.95,1,2.91,2.91,0,0,0,0,2.89,2.59,2.59,0,0,0,1,.91A2.92,2.92,0,0,0,229.43,31.32Z"/><path class="cls-4" d="M58.88,41.85a4.22,4.22,0,0,1-3.5-1.36c-.74-.91-1.1-2.5-1.1-4.77H46.74a5.31,5.31,0,0,1-3.93-1.3,4.61,4.61,0,0,1-1.28-3.36,7.12,7.12,0,0,1,1.11-3.95Q45.54,22.45,49.16,17A6.65,6.65,0,0,1,55,13.84l3.55,0c2,0,3.32.34,4,1a4.92,4.92,0,0,1,1.06,3.59V29.59a3.66,3.66,0,0,1,2.4.88,3.33,3.33,0,0,1,.65,2.27,2.8,2.8,0,0,1-.7,2.2,4.07,4.07,0,0,1-2.36.74c0,2.21-.4,3.79-1.18,4.74A4.33,4.33,0,0,1,58.88,41.85Zm-4.63-12.1.13-8.94-5.47,8.94Z"/><path class="cls-4" d="M69.23,39a2.78,2.78,0,0,1,1.16-2.31,5.4,5.4,0,0,1,3.28-.88c3,0,4.44,1.07,4.44,3.19a3.11,3.11,0,0,1-.57,2,2.69,2.69,0,0,1-1.51,1,9.11,9.11,0,0,1-2.36.26,6.13,6.13,0,0,1-3.18-.76A2.62,2.62,0,0,1,69.23,39Z"/><path class="cls-4" d="M93.84,34.08h4.52q3.44,0,3.42,4a4,4,0,0,1-1.08,3.17c-.72.63-2,.94-3.85.94h-11c-1.9,0-3.2-.25-3.89-.77s-1-1.63-1-3.34a5.6,5.6,0,0,1,.17-1.45,3.33,3.33,0,0,1,.61-1.2,5.39,5.39,0,0,1,1.22-1.13c1.47-1,2.62-1.82,3.47-2.44s1.66-1.26,2.46-1.95a13.44,13.44,0,0,0,1.78-1.76,11.18,11.18,0,0,0,1-1.66,6.47,6.47,0,0,0,.61-1.85,15.26,15.26,0,0,0,.15-2.19c0-1.56-.48-2.35-1.43-2.35s-1.55.93-1.55,2.77a2,2,0,0,1-1,2,7,7,0,0,1-2.89.46c-1.74,0-2.91-.39-3.53-1.17a6.48,6.48,0,0,1-.91-3.91,5.48,5.48,0,0,1,2.51-4.56,11.74,11.74,0,0,1,7-1.82q11.09,0,11.07,8.69a14.11,14.11,0,0,1-.45,3.68,11.66,11.66,0,0,1-1.1,2.77,9.28,9.28,0,0,1-1.77,2.12,17.42,17.42,0,0,1-2.1,1.64C95.59,33.16,94.79,33.6,93.84,34.08Z"/><path class="cls-5" d="M58.88,41.85a4.22,4.22,0,0,1-3.5-1.36c-.74-.91-1.1-2.5-1.1-4.77H46.74a5.31,5.31,0,0,1-3.93-1.3,4.61,4.61,0,0,1-1.28-3.36,7.12,7.12,0,0,1,1.11-3.95Q45.54,22.45,49.16,17A6.65,6.65,0,0,1,55,13.84l3.55,0c2,0,3.32.34,4,1a4.92,4.92,0,0,1,1.06,3.59V29.59a3.66,3.66,0,0,1,2.4.88,3.33,3.33,0,0,1,.65,2.27,2.8,2.8,0,0,1-.7,2.2,4.07,4.07,0,0,1-2.36.74c0,2.21-.4,3.79-1.18,4.74A4.33,4.33,0,0,1,58.88,41.85Zm-4.63-12.1.13-8.94-5.47,8.94Z"/><path class="cls-5" d="M69.23,39a2.78,2.78,0,0,1,1.16-2.31,5.4,5.4,0,0,1,3.28-.88c3,0,4.44,1.07,4.44,3.19a3.11,3.11,0,0,1-.57,2,2.69,2.69,0,0,1-1.51,1,9.11,9.11,0,0,1-2.36.26,6.13,6.13,0,0,1-3.18-.76A2.62,2.62,0,0,1,69.23,39Z"/><path class="cls-5" d="M93.84,34.08h4.52q3.44,0,3.42,4a4,4,0,0,1-1.08,3.17c-.72.63-2,.94-3.85.94h-11c-1.9,0-3.2-.25-3.89-.77s-1-1.63-1-3.34a5.6,5.6,0,0,1,.17-1.45,3.33,3.33,0,0,1,.61-1.2,5.39,5.39,0,0,1,1.22-1.13c1.47-1,2.62-1.82,3.47-2.44s1.66-1.26,2.46-1.95a13.44,13.44,0,0,0,1.78-1.76,11.18,11.18,0,0,0,1-1.66,6.47,6.47,0,0,0,.61-1.85,15.26,15.26,0,0,0,.15-2.19c0-1.56-.48-2.35-1.43-2.35s-1.55.93-1.55,2.77a2,2,0,0,1-1,2,7,7,0,0,1-2.89.46c-1.74,0-2.91-.39-3.53-1.17a6.48,6.48,0,0,1-.91-3.91,5.48,5.48,0,0,1,2.51-4.56,11.74,11.74,0,0,1,7-1.82q11.09,0,11.07,8.69a14.11,14.11,0,0,1-.45,3.68,11.66,11.66,0,0,1-1.1,2.77,9.28,9.28,0,0,1-1.77,2.12,17.42,17.42,0,0,1-2.1,1.64C95.59,33.16,94.79,33.6,93.84,34.08Z"/></g></g></svg>