<svg xmlns="http://www.w3.org/2000/svg" viewBox="0 0 399.98 94.95"><defs><style>.cls-1{fill:#23841a;}.cls-2{fill:#fff;}.cls-3,.cls-4{fill:none;stroke-width:5px;}.cls-3{stroke:#ff7300;stroke-linejoin:round;}.cls-4{stroke:#fff;}.cls-5{fill:#ff7300;}</style></defs><title>44t</title><g id="Layer_2" data-name="Layer 2"><g id="pestaña_identificativa" data-name="pestaña identificativa"><rect class="cls-1" width="399.98" height="94.95" rx="32.4"/><path class="cls-2" d="M125.11,34.84a2.4,2.4,0,0,1-1.3-.27,1.05,1.05,0,0,1-.49-.71,4.7,4.7,0,0,1-.09-.92V19.26a2.07,2.07,0,0,1,.43-1.49,2.2,2.2,0,0,1,1.52-.41h9.45a4.45,4.45,0,0,1,.93.09,1.07,1.07,0,0,1,.69.48,2.65,2.65,0,0,1,.26,1.35,2.28,2.28,0,0,1-.28,1.3,1.1,1.1,0,0,1-.71.49,4.62,4.62,0,0,1-.94.09H127v3.23h5.13a4.63,4.63,0,0,1,.88.08,1,1,0,0,1,.62.42,2.5,2.5,0,0,1,.22,1.2,2,2,0,0,1-.23,1.11.93.93,0,0,1-.62.42,5,5,0,0,1-.9.07H127V33a4,4,0,0,1-.1.92,1.09,1.09,0,0,1-.48.69A2.47,2.47,0,0,1,125.11,34.84Z"/><path class="cls-2" d="M145,35.05a6.3,6.3,0,0,1-2.34-.47,6.84,6.84,0,0,1-2.11-1.31,6.38,6.38,0,0,1-1.51-2,6,6,0,0,1-.56-2.64,6.19,6.19,0,0,1,.51-2.51,6.75,6.75,0,0,1,3.48-3.47,6.09,6.09,0,0,1,2.49-.51,6.35,6.35,0,0,1,3.26.86,6.61,6.61,0,0,1,2.33,2.34,6.27,6.27,0,0,1,.88,3.28,6.2,6.2,0,0,1-.57,2.71,6.35,6.35,0,0,1-1.5,2,6.68,6.68,0,0,1-2.07,1.28A6.42,6.42,0,0,1,145,35.05Zm-.05-3.78a2.85,2.85,0,0,0,1.23-.3,2.81,2.81,0,0,0,1.05-.9,2.57,2.57,0,0,0,.42-1.52,2.67,2.67,0,0,0-.35-1.4,2.48,2.48,0,0,0-1-.94,2.94,2.94,0,0,0-1.41-.34,2.6,2.6,0,0,0-1.34.35,2.82,2.82,0,0,0-1,1,2.69,2.69,0,0,0-.36,1.39,2.58,2.58,0,0,0,.41,1.51,2.43,2.43,0,0,0,1,.9A2.76,2.76,0,0,0,144.91,31.27Z"/><path class="cls-2" d="M155.28,34.85a2.41,2.41,0,0,1-1.31-.26,1,1,0,0,1-.47-.71,4.73,4.73,0,0,1-.09-.93V24.23a4.54,4.54,0,0,1,.08-.93,1,1,0,0,1,.49-.68,2.47,2.47,0,0,1,1.33-.27,2.5,2.5,0,0,1,1.26.24,1.06,1.06,0,0,1,.49.55,2.08,2.08,0,0,1,.1.54l-.31.15a3.56,3.56,0,0,1,.86-.91,3.4,3.4,0,0,1,.91-.49,3.62,3.62,0,0,1,1.24-.2c.18,0,.38,0,.61,0a3.14,3.14,0,0,1,.7.15,3.32,3.32,0,0,1,.66.3,1.8,1.8,0,0,1,.49.46,1.23,1.23,0,0,1,.18.68A3.06,3.06,0,0,1,162,25.6a1.42,1.42,0,0,1-1.2.71,2,2,0,0,1-.6-.06,1.3,1.3,0,0,1-.29-.16l-.26-.15a1.68,1.68,0,0,0-.55-.06,2.71,2.71,0,0,0-.71.1,2.06,2.06,0,0,0-.63.31,1.54,1.54,0,0,0-.45.53,1.49,1.49,0,0,0-.16.71V33a5.4,5.4,0,0,1-.08.91,1.07,1.07,0,0,1-.49.69A2.73,2.73,0,0,1,155.28,34.85Z"/><path class="cls-2" d="M166.31,34.86a2.38,2.38,0,0,1-1.3-.27,1.07,1.07,0,0,1-.48-.71,5.29,5.29,0,0,1-.07-.92V24.21a4.29,4.29,0,0,1,.09-.9,1.08,1.08,0,0,1,.49-.69,2.59,2.59,0,0,1,1.33-.26,2.09,2.09,0,0,1,1.35.36,1.51,1.51,0,0,1,.42,1.19l-.33.28a2.46,2.46,0,0,1,.3-.43,4.89,4.89,0,0,1,.65-.62,3.77,3.77,0,0,1,.94-.56,2.85,2.85,0,0,1,1.17-.24,4.29,4.29,0,0,1,1.48.24,3.82,3.82,0,0,1,1.2.7,4.38,4.38,0,0,1,.94,1.16,6.28,6.28,0,0,1,.85-1,4.41,4.41,0,0,1,1.17-.8,3.47,3.47,0,0,1,1.53-.33,4.15,4.15,0,0,1,2.49.74,4.54,4.54,0,0,1,1.53,2.12,9.28,9.28,0,0,1,.53,3.32V33a3.91,3.91,0,0,1-.1.91,1.14,1.14,0,0,1-.48.7,2.52,2.52,0,0,1-1.32.26,2.33,2.33,0,0,1-1.32-.28,1,1,0,0,1-.48-.71,5.33,5.33,0,0,1-.07-.91V28.49a4,4,0,0,0-.18-1.28,1.88,1.88,0,0,0-.54-.83,1.41,1.41,0,0,0-.9-.29,1.64,1.64,0,0,0-1,.28,1.72,1.72,0,0,0-.6.8,3.92,3.92,0,0,0-.2,1.35V33a3.14,3.14,0,0,1-.13.94,1.22,1.22,0,0,1-.53.7,2.6,2.6,0,0,1-1.34.24,2.09,2.09,0,0,1-1.25-.29,1.14,1.14,0,0,1-.45-.73,5.26,5.26,0,0,1-.08-.89V28.49a4.21,4.21,0,0,0-.18-1.3,1.65,1.65,0,0,0-.52-.83,1.49,1.49,0,0,0-.93-.27,1.61,1.61,0,0,0-1,.32,1.93,1.93,0,0,0-.59.87,3.49,3.49,0,0,0-.19,1.21V33a4.42,4.42,0,0,1-.09.92,1.06,1.06,0,0,1-.49.69A2.52,2.52,0,0,1,166.31,34.86Z"/><path class="cls-2" d="M195.23,34.85a2.41,2.41,0,0,1-1.37-.32.93.93,0,0,1-.43-.8l.25-.43a3,3,0,0,1-.57.62,4.44,4.44,0,0,1-1.11.64,4.38,4.38,0,0,1-1.67.29,5,5,0,0,1-2.18-.5A5.78,5.78,0,0,1,186.31,33,7.24,7.24,0,0,1,185,31a6.16,6.16,0,0,1-.47-2.38,5.87,5.87,0,0,1,.48-2.34,6.46,6.46,0,0,1,1.29-2,6.24,6.24,0,0,1,1.84-1.36,4.9,4.9,0,0,1,2.17-.5,4.35,4.35,0,0,1,1.58.26,4.26,4.26,0,0,1,1.08.62,3.43,3.43,0,0,1,.66.67l-.22-.35a1.05,1.05,0,0,1,.44-.91,2.39,2.39,0,0,1,1.38-.31,2.34,2.34,0,0,1,1.29.27,1.16,1.16,0,0,1,.48.73,4.87,4.87,0,0,1,.08.95V33a4.73,4.73,0,0,1-.09.93,1.09,1.09,0,0,1-.47.71A2.42,2.42,0,0,1,195.23,34.85Zm-4.37-3.72a2.21,2.21,0,0,0,1.2-.34,2.66,2.66,0,0,0,.85-.91,2.67,2.67,0,0,0,0-2.57,2.45,2.45,0,0,0-3.36-.87,2.53,2.53,0,0,0-.9.91,2.57,2.57,0,0,0-.34,1.3,2.34,2.34,0,0,0,.34,1.24,2.56,2.56,0,0,0,.92.9A2.59,2.59,0,0,0,190.86,31.13Z"/><path class="cls-2" d="M212.31,35a6.64,6.64,0,0,1-2.24-.41,7.16,7.16,0,0,1-2.1-1.22,5.92,5.92,0,0,1-1.54-2,6.35,6.35,0,0,1-.57-2.75,6.09,6.09,0,0,1,.58-2.73,6,6,0,0,1,1.52-2,6.87,6.87,0,0,1,2.09-1.21,6.61,6.61,0,0,1,2.21-.41,6.1,6.1,0,0,1,1.67.21,5.41,5.41,0,0,1,1.25.52,3.39,3.39,0,0,1,.73.52,6.26,6.26,0,0,1,.75.65,1.05,1.05,0,0,1,.3.85,1.38,1.38,0,0,1-.17.56,3.91,3.91,0,0,1-.38.59c-.51.7-1,1-1.5.95a2.27,2.27,0,0,1-.69-.25l-.59-.35a4.48,4.48,0,0,0-.62-.31,1.73,1.73,0,0,0-.75-.14,2.5,2.5,0,0,0-1.3.34,2.48,2.48,0,0,0-1.25,2.21,2.5,2.5,0,0,0,.34,1.3,2.46,2.46,0,0,0,.9.91,2.33,2.33,0,0,0,1.26.34,2.28,2.28,0,0,0,.72-.1,2.69,2.69,0,0,0,.56-.24l.35-.21.57-.36a1.05,1.05,0,0,1,.55-.16,1.21,1.21,0,0,1,.74.26,4.1,4.1,0,0,1,.81.84,2.07,2.07,0,0,1,.49,1,1.18,1.18,0,0,1-.22.86,2.58,2.58,0,0,1-.85.77,5.06,5.06,0,0,1-.71.45,6.52,6.52,0,0,1-1.25.49A5.69,5.69,0,0,1,212.31,35Z"/><path class="cls-2" d="M225.26,35.1a6.22,6.22,0,0,1-2.34-.47,7,7,0,0,1-2.11-1.31,6.38,6.38,0,0,1-1.51-2,6,6,0,0,1-.56-2.64,6.19,6.19,0,0,1,.51-2.51,6.75,6.75,0,0,1,1.41-2.06,6.67,6.67,0,0,1,2.07-1.41,6.08,6.08,0,0,1,2.48-.51,6.39,6.39,0,0,1,3.27.86,6.61,6.61,0,0,1,2.33,2.34,6.22,6.22,0,0,1,.88,3.28,6.34,6.34,0,0,1-.57,2.71,6.21,6.21,0,0,1-1.5,2,6.46,6.46,0,0,1-2.08,1.29A6.32,6.32,0,0,1,225.26,35.1Zm0-3.78a2.89,2.89,0,0,0,2.28-1.2,2.6,2.6,0,0,0,.42-1.52,2.74,2.74,0,0,0-.35-1.4,2.48,2.48,0,0,0-1-.94,2.83,2.83,0,0,0-1.41-.34,2.6,2.6,0,0,0-1.34.35,2.65,2.65,0,0,0-.95,1,2.69,2.69,0,0,0-.36,1.39,2.6,2.6,0,0,0,.41,1.51,2.47,2.47,0,0,0,1,.9A3,3,0,0,0,225.21,31.32Z"/><path class="cls-2" d="M235.53,34.9a2.4,2.4,0,0,1-1.3-.27,1.1,1.1,0,0,1-.47-.7,5.37,5.37,0,0,1-.08-.93V24.25a4.36,4.36,0,0,1,.09-.9,1.1,1.1,0,0,1,.48-.69,2.59,2.59,0,0,1,1.33-.26,2,2,0,0,1,1.35.37,1.47,1.47,0,0,1,.42,1.18l-.32.28a1.87,1.87,0,0,1,.3-.43,4.92,4.92,0,0,1,.65-.62,4.1,4.1,0,0,1,.94-.56,2.8,2.8,0,0,1,1.16-.24,4.35,4.35,0,0,1,1.49.24,3.82,3.82,0,0,1,1.2.7,4.32,4.32,0,0,1,.93,1.16,6.87,6.87,0,0,1,.85-1,4.46,4.46,0,0,1,1.18-.8,3.43,3.43,0,0,1,1.52-.33,4.17,4.17,0,0,1,2.49.74,4.54,4.54,0,0,1,1.54,2.12,9.29,9.29,0,0,1,.52,3.32V33a4.53,4.53,0,0,1-.1.91,1.15,1.15,0,0,1-.49.7,2.5,2.5,0,0,1-1.31.26,2.47,2.47,0,0,1-1.33-.27,1.11,1.11,0,0,1-.47-.72A5.31,5.31,0,0,1,248,33V28.54a4.08,4.08,0,0,0-.19-1.29,1.8,1.8,0,0,0-.54-.83,1.37,1.37,0,0,0-.9-.29,1.68,1.68,0,0,0-1,.28,1.6,1.6,0,0,0-.6.8,3.7,3.7,0,0,0-.2,1.35V33a3.51,3.51,0,0,1-.12.94,1.21,1.21,0,0,1-.54.7,2.58,2.58,0,0,1-1.34.24,2.11,2.11,0,0,1-1.25-.29,1.12,1.12,0,0,1-.45-.73,5.14,5.14,0,0,1-.07-.88V28.53a4.55,4.55,0,0,0-.17-1.3,1.59,1.59,0,0,0-.53-.82,1.4,1.4,0,0,0-.92-.28,1.62,1.62,0,0,0-1,.32,2,2,0,0,0-.59.87,3.76,3.76,0,0,0-.18,1.21V33a4.42,4.42,0,0,1-.09.92,1,1,0,0,1-.48.69A2.49,2.49,0,0,1,235.53,34.9Z"/><path class="cls-2" d="M256,40.09a2.48,2.48,0,0,1-1.3-.26,1,1,0,0,1-.48-.68,4.94,4.94,0,0,1-.07-.89v-14a5.1,5.1,0,0,1,.07-.91,1.05,1.05,0,0,1,.47-.69,2.19,2.19,0,0,1,1.28-.27,2.87,2.87,0,0,1,1.24.22,1.29,1.29,0,0,1,.66.7v14.9a3.29,3.29,0,0,1-.07.9,1.16,1.16,0,0,1-.49.69A2.5,2.5,0,0,1,256,40.09Zm4.8-5.4a4.52,4.52,0,0,1-2.15-.49,4.36,4.36,0,0,1-1.54-1.32,6.33,6.33,0,0,1-.92-1.94,7.9,7.9,0,0,1-.28-2.38,8.51,8.51,0,0,1,.32-2.33,6.71,6.71,0,0,1,.94-2,4.5,4.5,0,0,1,1.53-1.35,4.44,4.44,0,0,1,2.11-.48,4.88,4.88,0,0,1,2.15.5,6.38,6.38,0,0,1,3.11,3.35,6.15,6.15,0,0,1,.46,2.38,6.24,6.24,0,0,1-.46,2.36A6,6,0,0,1,263,34.23,5.23,5.23,0,0,1,260.78,34.69Zm-.5-3.52a2.28,2.28,0,0,0,1.25-.34,2.51,2.51,0,0,0,.89-.91,2.43,2.43,0,0,0,.34-1.28,2.6,2.6,0,0,0-.32-1.27,2.43,2.43,0,0,0-2.13-1.23,2.4,2.4,0,0,0-2.11,1.24,2.5,2.5,0,0,0-.31,1.26,2.54,2.54,0,0,0,.32,1.28,2.62,2.62,0,0,0,.87.91A2.32,2.32,0,0,0,260.28,31.17Z"/><path class="cls-2" d="M273.36,34.93a16.07,16.07,0,0,1-1.83-.11,3.7,3.7,0,0,1-1.35-.4,2.56,2.56,0,0,1-.9-.83,4,4,0,0,1-.52-1.38,10,10,0,0,1-.18-2.06V18.6a3.9,3.9,0,0,1,.1-.93,1.21,1.21,0,0,1,.49-.7,2.39,2.39,0,0,1,1.31-.27,2.34,2.34,0,0,1,1.29.27,1.21,1.21,0,0,1,.49.7,4.57,4.57,0,0,1,.1.93V30a4.22,4.22,0,0,0,0,.67.8.8,0,0,0,.15.41.49.49,0,0,0,.31.2,2.4,2.4,0,0,0,.52.05,2.7,2.7,0,0,1,.62.08.9.9,0,0,1,.53.45,2.53,2.53,0,0,1,.23,1.25,2.79,2.79,0,0,1-.23,1.3.89.89,0,0,1-.54.47A2.65,2.65,0,0,1,273.36,34.93Z"/><path class="cls-2" d="M282.78,35.16a7.25,7.25,0,0,1-3-.58,5.84,5.84,0,0,1-2.06-1.51,6.35,6.35,0,0,1-1.2-2.09,6.92,6.92,0,0,1-.4-2.3,6.45,6.45,0,0,1,.85-3.33,6.12,6.12,0,0,1,2.37-2.28,7,7,0,0,1,3.46-.84,6.39,6.39,0,0,1,2.51.46,5.11,5.11,0,0,1,1.75,1.21,5,5,0,0,1,1,1.58,4.33,4.33,0,0,1,.34,1.63,2.82,2.82,0,0,1-.66,2.05,2.28,2.28,0,0,1-1.69.67h-5.95a1.74,1.74,0,0,0,.46,1.07,2.75,2.75,0,0,0,1,.71,3.64,3.64,0,0,0,1.32.25,6.54,6.54,0,0,0,1-.07,4.49,4.49,0,0,0,.79-.17l.59-.23.48-.18a2.63,2.63,0,0,1,.43-.1,1,1,0,0,1,.67.21,2.11,2.11,0,0,1,.58.71,2.43,2.43,0,0,1,.24.53,2.14,2.14,0,0,1,.06.5,1.35,1.35,0,0,1-.62,1.09,4.78,4.78,0,0,1-1.72.73A11,11,0,0,1,282.78,35.16Zm-2.67-7.41h3.95a1.06,1.06,0,0,0,.58-.14.62.62,0,0,0,.2-.54,1.24,1.24,0,0,0-.28-.77,1.64,1.64,0,0,0-.74-.54,2.74,2.74,0,0,0-1.08-.19,3,3,0,0,0-1.35.3,2.39,2.39,0,0,0-.94.8A1.84,1.84,0,0,0,280.11,27.75Z"/><path class="cls-2" d="M291.29,22.64H294l3.45-.1a4.43,4.43,0,0,1,.9.09,1.1,1.1,0,0,1,.7.49,2.41,2.41,0,0,1,.27,1.32,2.38,2.38,0,0,1-.26,1.25,1.15,1.15,0,0,1-.69.51,3,3,0,0,1-.92.11l-3.28-.07-3,0a1.28,1.28,0,0,1-1-.46,2.56,2.56,0,0,1-.28-1.39,2.15,2.15,0,0,1,.35-1.34A1.26,1.26,0,0,1,291.29,22.64Zm5.64,12.3a7.54,7.54,0,0,1-2.2-.28,3.43,3.43,0,0,1-1.51-.85,3.62,3.62,0,0,1-.88-1.46,7,7,0,0,1-.28-2.11V20.11a4.2,4.2,0,0,1,.08-.92,1.07,1.07,0,0,1,.49-.67,2.51,2.51,0,0,1,1.3-.26,2.3,2.3,0,0,1,1.3.28,1.1,1.1,0,0,1,.49.71,4.53,4.53,0,0,1,.09.91v9.93a3,3,0,0,0,.06.66.71.71,0,0,0,.19.39.68.68,0,0,0,.35.17,2.19,2.19,0,0,0,.55.05,4.67,4.67,0,0,1,1,.1,1,1,0,0,1,.66.46,2.13,2.13,0,0,1,.24,1.17,2.4,2.4,0,0,1-.27,1.3,1.07,1.07,0,0,1-.72.48A5.33,5.33,0,0,1,296.93,34.94Z"/><path class="cls-2" d="M311.48,34.92a2.39,2.39,0,0,1-1.37-.32.93.93,0,0,1-.43-.8l.25-.43a2.72,2.72,0,0,1-.57.61,4.08,4.08,0,0,1-1.12.65,4.15,4.15,0,0,1-1.66.29,5,5,0,0,1-2.19-.5A5.85,5.85,0,0,1,302.56,33a7,7,0,0,1-1.28-2,6.16,6.16,0,0,1-.47-2.38,5.9,5.9,0,0,1,.48-2.34,6.46,6.46,0,0,1,1.29-2A6.33,6.33,0,0,1,304.41,23a5,5,0,0,1,2.18-.5,4.3,4.3,0,0,1,1.57.26,4.16,4.16,0,0,1,1.09.62,3.43,3.43,0,0,1,.66.67l-.22-.35a1,1,0,0,1,.44-.91,2.39,2.39,0,0,1,1.38-.31,2.34,2.34,0,0,1,1.29.27,1.16,1.16,0,0,1,.48.73,5.8,5.8,0,0,1,.08.95V33a4.73,4.73,0,0,1-.09.93,1.07,1.07,0,0,1-.48.71A2.38,2.38,0,0,1,311.48,34.92Zm-4.37-3.72a2.21,2.21,0,0,0,1.2-.34,2.6,2.6,0,0,0,1.18-2.19,2.53,2.53,0,0,0-.33-1.29,2.45,2.45,0,0,0-.87-.88,2.36,2.36,0,0,0-1.23-.33,2.33,2.33,0,0,0-1.26.34,2.53,2.53,0,0,0-1.24,2.21A2.34,2.34,0,0,0,304.9,30a2.56,2.56,0,0,0,.92.9A2.59,2.59,0,0,0,307.11,31.2Z"/><path class="cls-3" d="M125.11,34.84a2.4,2.4,0,0,1-1.3-.27,1.05,1.05,0,0,1-.49-.71,4.7,4.7,0,0,1-.09-.92V19.26a2.07,2.07,0,0,1,.43-1.49,2.2,2.2,0,0,1,1.52-.41h9.45a4.45,4.45,0,0,1,.93.09,1.07,1.07,0,0,1,.69.48,2.65,2.65,0,0,1,.26,1.35,2.28,2.28,0,0,1-.28,1.3,1.1,1.1,0,0,1-.71.49,4.62,4.62,0,0,1-.94.09H127v3.23h5.13a4.63,4.63,0,0,1,.88.08,1,1,0,0,1,.62.42,2.5,2.5,0,0,1,.22,1.2,2,2,0,0,1-.23,1.11.93.93,0,0,1-.62.42,5,5,0,0,1-.9.07H127V33a4,4,0,0,1-.1.92,1.09,1.09,0,0,1-.48.69A2.47,2.47,0,0,1,125.11,34.84Z"/><path class="cls-3" d="M145,35.05a6.3,6.3,0,0,1-2.34-.47,6.84,6.84,0,0,1-2.11-1.31,6.38,6.38,0,0,1-1.51-2,6,6,0,0,1-.56-2.64,6.19,6.19,0,0,1,.51-2.51,6.75,6.75,0,0,1,3.48-3.47,6.09,6.09,0,0,1,2.49-.51,6.35,6.35,0,0,1,3.26.86,6.61,6.61,0,0,1,2.33,2.34,6.27,6.27,0,0,1,.88,3.28,6.2,6.2,0,0,1-.57,2.71,6.35,6.35,0,0,1-1.5,2,6.68,6.68,0,0,1-2.07,1.28A6.42,6.42,0,0,1,145,35.05Zm-.05-3.78a2.85,2.85,0,0,0,1.23-.3,2.81,2.81,0,0,0,1.05-.9,2.57,2.57,0,0,0,.42-1.52,2.67,2.67,0,0,0-.35-1.4,2.48,2.48,0,0,0-1-.94,2.94,2.94,0,0,0-1.41-.34,2.6,2.6,0,0,0-1.34.35,2.82,2.82,0,0,0-1,1,2.69,2.69,0,0,0-.36,1.39,2.58,2.58,0,0,0,.41,1.51,2.43,2.43,0,0,0,1,.9A2.76,2.76,0,0,0,144.91,31.27Z"/><path class="cls-3" d="M155.28,34.85a2.41,2.41,0,0,1-1.31-.26,1,1,0,0,1-.47-.71,4.73,4.73,0,0,1-.09-.93V24.23a4.54,4.54,0,0,1,.08-.93,1,1,0,0,1,.49-.68,2.47,2.47,0,0,1,1.33-.27,2.5,2.5,0,0,1,1.26.24,1.06,1.06,0,0,1,.49.55,2.08,2.08,0,0,1,.1.54l-.31.15a3.56,3.56,0,0,1,.86-.91,3.4,3.4,0,0,1,.91-.49,3.62,3.62,0,0,1,1.24-.2c.18,0,.38,0,.61,0a3.14,3.14,0,0,1,.7.15,3.32,3.32,0,0,1,.66.3,1.8,1.8,0,0,1,.49.46,1.23,1.23,0,0,1,.18.68A3.06,3.06,0,0,1,162,25.6a1.42,1.42,0,0,1-1.2.71,2,2,0,0,1-.6-.06,1.3,1.3,0,0,1-.29-.16l-.26-.15a1.68,1.68,0,0,0-.55-.06,2.71,2.71,0,0,0-.71.1,2.06,2.06,0,0,0-.63.31,1.54,1.54,0,0,0-.45.53,1.49,1.49,0,0,0-.16.71V33a5.4,5.4,0,0,1-.08.91,1.07,1.07,0,0,1-.49.69A2.73,2.73,0,0,1,155.28,34.85Z"/><path class="cls-3" d="M166.31,34.86a2.38,2.38,0,0,1-1.3-.27,1.07,1.07,0,0,1-.48-.71,5.29,5.29,0,0,1-.07-.92V24.21a4.29,4.29,0,0,1,.09-.9,1.08,1.08,0,0,1,.49-.69,2.59,2.59,0,0,1,1.33-.26,2.09,2.09,0,0,1,1.35.36,1.51,1.51,0,0,1,.42,1.19l-.33.28a2.46,2.46,0,0,1,.3-.43,4.89,4.89,0,0,1,.65-.62,3.77,3.77,0,0,1,.94-.56,2.85,2.85,0,0,1,1.17-.24,4.29,4.29,0,0,1,1.48.24,3.82,3.82,0,0,1,1.2.7,4.38,4.38,0,0,1,.94,1.16,6.28,6.28,0,0,1,.85-1,4.41,4.41,0,0,1,1.17-.8,3.47,3.47,0,0,1,1.53-.33,4.15,4.15,0,0,1,2.49.74,4.54,4.54,0,0,1,1.53,2.12,9.28,9.28,0,0,1,.53,3.32V33a3.91,3.91,0,0,1-.1.91,1.14,1.14,0,0,1-.48.7,2.52,2.52,0,0,1-1.32.26,2.33,2.33,0,0,1-1.32-.28,1,1,0,0,1-.48-.71,5.33,5.33,0,0,1-.07-.91V28.49a4,4,0,0,0-.18-1.28,1.88,1.88,0,0,0-.54-.83,1.41,1.41,0,0,0-.9-.29,1.64,1.64,0,0,0-1,.28,1.72,1.72,0,0,0-.6.8,3.92,3.92,0,0,0-.2,1.35V33a3.14,3.14,0,0,1-.13.94,1.22,1.22,0,0,1-.53.7,2.6,2.6,0,0,1-1.34.24,2.09,2.09,0,0,1-1.25-.29,1.14,1.14,0,0,1-.45-.73,5.26,5.26,0,0,1-.08-.89V28.49a4.21,4.21,0,0,0-.18-1.3,1.65,1.65,0,0,0-.52-.83,1.49,1.49,0,0,0-.93-.27,1.61,1.61,0,0,0-1,.32,1.93,1.93,0,0,0-.59.87,3.49,3.49,0,0,0-.19,1.21V33a4.42,4.42,0,0,1-.09.92,1.06,1.06,0,0,1-.49.69A2.52,2.52,0,0,1,166.31,34.86Z"/><path class="cls-3" d="M195.23,34.85a2.41,2.41,0,0,1-1.37-.32.93.93,0,0,1-.43-.8l.25-.43a3,3,0,0,1-.57.62,4.44,4.44,0,0,1-1.11.64,4.38,4.38,0,0,1-1.67.29,5,5,0,0,1-2.18-.5A5.78,5.78,0,0,1,186.31,33,7.24,7.24,0,0,1,185,31a6.16,6.16,0,0,1-.47-2.38,5.87,5.87,0,0,1,.48-2.34,6.46,6.46,0,0,1,1.29-2,6.24,6.24,0,0,1,1.84-1.36,4.9,4.9,0,0,1,2.17-.5,4.35,4.35,0,0,1,1.58.26,4.26,4.26,0,0,1,1.08.62,3.43,3.43,0,0,1,.66.67l-.22-.35a1.05,1.05,0,0,1,.44-.91,2.39,2.39,0,0,1,1.38-.31,2.34,2.34,0,0,1,1.29.27,1.16,1.16,0,0,1,.48.73,4.87,4.87,0,0,1,.08.95V33a4.73,4.73,0,0,1-.09.93,1.09,1.09,0,0,1-.47.71A2.42,2.42,0,0,1,195.23,34.85Zm-4.37-3.72a2.21,2.21,0,0,0,1.2-.34,2.66,2.66,0,0,0,.85-.91,2.67,2.67,0,0,0,0-2.57,2.45,2.45,0,0,0-3.36-.87,2.53,2.53,0,0,0-.9.91,2.57,2.57,0,0,0-.34,1.3,2.34,2.34,0,0,0,.34,1.24,2.56,2.56,0,0,0,.92.9A2.59,2.59,0,0,0,190.86,31.13Z"/><path class="cls-3" d="M212.31,35a6.64,6.64,0,0,1-2.24-.41,7.16,7.16,0,0,1-2.1-1.22,5.92,5.92,0,0,1-1.54-2,6.35,6.35,0,0,1-.57-2.75,6.09,6.09,0,0,1,.58-2.73,6,6,0,0,1,1.52-2,6.87,6.87,0,0,1,2.09-1.21,6.61,6.61,0,0,1,2.21-.41,6.1,6.1,0,0,1,1.67.21,5.41,5.41,0,0,1,1.25.52,3.39,3.39,0,0,1,.73.52,6.26,6.26,0,0,1,.75.65,1.05,1.05,0,0,1,.3.85,1.38,1.38,0,0,1-.17.56,3.91,3.91,0,0,1-.38.59c-.51.7-1,1-1.5.95a2.27,2.27,0,0,1-.69-.25l-.59-.35a4.48,4.48,0,0,0-.62-.31,1.73,1.73,0,0,0-.75-.14,2.5,2.5,0,0,0-1.3.34,2.48,2.48,0,0,0-1.25,2.21,2.5,2.5,0,0,0,.34,1.3,2.46,2.46,0,0,0,.9.91,2.33,2.33,0,0,0,1.26.34,2.28,2.28,0,0,0,.72-.1,2.69,2.69,0,0,0,.56-.24l.35-.21.57-.36a1.05,1.05,0,0,1,.55-.16,1.21,1.21,0,0,1,.74.26,4.1,4.1,0,0,1,.81.84,2.07,2.07,0,0,1,.49,1,1.18,1.18,0,0,1-.22.86,2.58,2.58,0,0,1-.85.77,5.06,5.06,0,0,1-.71.45,6.52,6.52,0,0,1-1.25.49A5.69,5.69,0,0,1,212.31,35Z"/><path class="cls-3" d="M225.26,35.1a6.22,6.22,0,0,1-2.34-.47,7,7,0,0,1-2.11-1.31,6.38,6.38,0,0,1-1.51-2,6,6,0,0,1-.56-2.64,6.19,6.19,0,0,1,.51-2.51,6.75,6.75,0,0,1,1.41-2.06,6.67,6.67,0,0,1,2.07-1.41,6.08,6.08,0,0,1,2.48-.51,6.39,6.39,0,0,1,3.27.86,6.61,6.61,0,0,1,2.33,2.34,6.22,6.22,0,0,1,.88,3.28,6.34,6.34,0,0,1-.57,2.71,6.21,6.21,0,0,1-1.5,2,6.46,6.46,0,0,1-2.08,1.29A6.32,6.32,0,0,1,225.26,35.1Zm0-3.78a2.89,2.89,0,0,0,2.28-1.2,2.6,2.6,0,0,0,.42-1.52,2.74,2.74,0,0,0-.35-1.4,2.48,2.48,0,0,0-1-.94,2.83,2.83,0,0,0-1.41-.34,2.6,2.6,0,0,0-1.34.35,2.65,2.65,0,0,0-.95,1,2.69,2.69,0,0,0-.36,1.39,2.6,2.6,0,0,0,.41,1.51,2.47,2.47,0,0,0,1,.9A3,3,0,0,0,225.21,31.32Z"/><path class="cls-3" d="M235.53,34.9a2.4,2.4,0,0,1-1.3-.27,1.1,1.1,0,0,1-.47-.7,5.37,5.37,0,0,1-.08-.93V24.25a4.36,4.36,0,0,1,.09-.9,1.1,1.1,0,0,1,.48-.69,2.59,2.59,0,0,1,1.33-.26,2,2,0,0,1,1.35.37,1.47,1.47,0,0,1,.42,1.18l-.32.28a1.87,1.87,0,0,1,.3-.43,4.92,4.92,0,0,1,.65-.62,4.1,4.1,0,0,1,.94-.56,2.8,2.8,0,0,1,1.16-.24,4.35,4.35,0,0,1,1.49.24,3.82,3.82,0,0,1,1.2.7,4.32,4.32,0,0,1,.93,1.16,6.87,6.87,0,0,1,.85-1,4.46,4.46,0,0,1,1.18-.8,3.43,3.43,0,0,1,1.52-.33,4.17,4.17,0,0,1,2.49.74,4.54,4.54,0,0,1,1.54,2.12,9.29,9.29,0,0,1,.52,3.32V33a4.53,4.53,0,0,1-.1.91,1.15,1.15,0,0,1-.49.7,2.5,2.5,0,0,1-1.31.26,2.47,2.47,0,0,1-1.33-.27,1.11,1.11,0,0,1-.47-.72A5.31,5.31,0,0,1,248,33V28.54a4.08,4.08,0,0,0-.19-1.29,1.8,1.8,0,0,0-.54-.83,1.37,1.37,0,0,0-.9-.29,1.68,1.68,0,0,0-1,.28,1.6,1.6,0,0,0-.6.8,3.7,3.7,0,0,0-.2,1.35V33a3.51,3.51,0,0,1-.12.94,1.21,1.21,0,0,1-.54.7,2.58,2.58,0,0,1-1.34.24,2.11,2.11,0,0,1-1.25-.29,1.12,1.12,0,0,1-.45-.73,5.14,5.14,0,0,1-.07-.88V28.53a4.55,4.55,0,0,0-.17-1.3,1.59,1.59,0,0,0-.53-.82,1.4,1.4,0,0,0-.92-.28,1.62,1.62,0,0,0-1,.32,2,2,0,0,0-.59.87,3.76,3.76,0,0,0-.18,1.21V33a4.42,4.42,0,0,1-.09.92,1,1,0,0,1-.48.69A2.49,2.49,0,0,1,235.53,34.9Z"/><path class="cls-3" d="M256,40.09a2.48,2.48,0,0,1-1.3-.26,1,1,0,0,1-.48-.68,4.94,4.94,0,0,1-.07-.89v-14a5.1,5.1,0,0,1,.07-.91,1.05,1.05,0,0,1,.47-.69,2.19,2.19,0,0,1,1.28-.27,2.87,2.87,0,0,1,1.24.22,1.29,1.29,0,0,1,.66.7v14.9a3.29,3.29,0,0,1-.07.9,1.16,1.16,0,0,1-.49.69A2.5,2.5,0,0,1,256,40.09Zm4.8-5.4a4.52,4.52,0,0,1-2.15-.49,4.36,4.36,0,0,1-1.54-1.32,6.33,6.33,0,0,1-.92-1.94,7.9,7.9,0,0,1-.28-2.38,8.51,8.51,0,0,1,.32-2.33,6.71,6.71,0,0,1,.94-2,4.5,4.5,0,0,1,1.53-1.35,4.44,4.44,0,0,1,2.11-.48,4.88,4.88,0,0,1,2.15.5,6.38,6.38,0,0,1,3.11,3.35,6.15,6.15,0,0,1,.46,2.38,6.24,6.24,0,0,1-.46,2.36A6,6,0,0,1,263,34.23,5.23,5.23,0,0,1,260.78,34.69Zm-.5-3.52a2.28,2.28,0,0,0,1.25-.34,2.51,2.51,0,0,0,.89-.91,2.43,2.43,0,0,0,.34-1.28,2.6,2.6,0,0,0-.32-1.27,2.43,2.43,0,0,0-2.13-1.23,2.4,2.4,0,0,0-2.11,1.24,2.5,2.5,0,0,0-.31,1.26,2.54,2.54,0,0,0,.32,1.28,2.62,2.62,0,0,0,.87.91A2.32,2.32,0,0,0,260.28,31.17Z"/><path class="cls-3" d="M273.36,34.93a16.07,16.07,0,0,1-1.83-.11,3.7,3.7,0,0,1-1.35-.4,2.56,2.56,0,0,1-.9-.83,4,4,0,0,1-.52-1.38,10,10,0,0,1-.18-2.06V18.6a3.9,3.9,0,0,1,.1-.93,1.21,1.21,0,0,1,.49-.7,2.39,2.39,0,0,1,1.31-.27,2.34,2.34,0,0,1,1.29.27,1.21,1.21,0,0,1,.49.7,4.57,4.57,0,0,1,.1.93V30a4.22,4.22,0,0,0,0,.67.8.8,0,0,0,.15.41.49.49,0,0,0,.31.2,2.4,2.4,0,0,0,.52.05,2.7,2.7,0,0,1,.62.08.9.9,0,0,1,.53.45,2.53,2.53,0,0,1,.23,1.25,2.79,2.79,0,0,1-.23,1.3.89.89,0,0,1-.54.47A2.65,2.65,0,0,1,273.36,34.93Z"/><path class="cls-3" d="M282.78,35.16a7.25,7.25,0,0,1-3-.58,5.84,5.84,0,0,1-2.06-1.51,6.35,6.35,0,0,1-1.2-2.09,6.92,6.92,0,0,1-.4-2.3,6.45,6.45,0,0,1,.85-3.33,6.12,6.12,0,0,1,2.37-2.28,7,7,0,0,1,3.46-.84,6.39,6.39,0,0,1,2.51.46,5.11,5.11,0,0,1,1.75,1.21,5,5,0,0,1,1,1.58,4.33,4.33,0,0,1,.34,1.63,2.82,2.82,0,0,1-.66,2.05,2.28,2.28,0,0,1-1.69.67h-5.95a1.74,1.74,0,0,0,.46,1.07,2.75,2.75,0,0,0,1,.71,3.64,3.64,0,0,0,1.32.25,6.54,6.54,0,0,0,1-.07,4.49,4.49,0,0,0,.79-.17l.59-.23.48-.18a2.63,2.63,0,0,1,.43-.1,1,1,0,0,1,.67.21,2.11,2.11,0,0,1,.58.71,2.43,2.43,0,0,1,.24.53,2.14,2.14,0,0,1,.06.5,1.35,1.35,0,0,1-.62,1.09,4.78,4.78,0,0,1-1.72.73A11,11,0,0,1,282.78,35.16Zm-2.67-7.41h3.95a1.06,1.06,0,0,0,.58-.14.62.62,0,0,0,.2-.54,1.24,1.24,0,0,0-.28-.77,1.64,1.64,0,0,0-.74-.54,2.74,2.74,0,0,0-1.08-.19,3,3,0,0,0-1.35.3,2.39,2.39,0,0,0-.94.8A1.84,1.84,0,0,0,280.11,27.75Z"/><path class="cls-3" d="M291.29,22.64H294l3.45-.1a4.43,4.43,0,0,1,.9.09,1.1,1.1,0,0,1,.7.49,2.41,2.41,0,0,1,.27,1.32,2.38,2.38,0,0,1-.26,1.25,1.15,1.15,0,0,1-.69.51,3,3,0,0,1-.92.11l-3.28-.07-3,0a1.28,1.28,0,0,1-1-.46,2.56,2.56,0,0,1-.28-1.39,2.15,2.15,0,0,1,.35-1.34A1.26,1.26,0,0,1,291.29,22.64Zm5.64,12.3a7.54,7.54,0,0,1-2.2-.28,3.43,3.43,0,0,1-1.51-.85,3.62,3.62,0,0,1-.88-1.46,7,7,0,0,1-.28-2.11V20.11a4.2,4.2,0,0,1,.08-.92,1.07,1.07,0,0,1,.49-.67,2.51,2.51,0,0,1,1.3-.26,2.3,2.3,0,0,1,1.3.28,1.1,1.1,0,0,1,.49.71,4.53,4.53,0,0,1,.09.91v9.93a3,3,0,0,0,.06.66.71.71,0,0,0,.19.39.68.68,0,0,0,.35.17,2.19,2.19,0,0,0,.55.05,4.67,4.67,0,0,1,1,.1,1,1,0,0,1,.66.46,2.13,2.13,0,0,1,.24,1.17,2.4,2.4,0,0,1-.27,1.3,1.07,1.07,0,0,1-.72.48A5.33,5.33,0,0,1,296.93,34.94Z"/><path class="cls-3" d="M311.48,34.92a2.39,2.39,0,0,1-1.37-.32.93.93,0,0,1-.43-.8l.25-.43a2.72,2.72,0,0,1-.57.61,4.08,4.08,0,0,1-1.12.65,4.15,4.15,0,0,1-1.66.29,5,5,0,0,1-2.19-.5A5.85,5.85,0,0,1,302.56,33a7,7,0,0,1-1.28-2,6.16,6.16,0,0,1-.47-2.38,5.9,5.9,0,0,1,.48-2.34,6.46,6.46,0,0,1,1.29-2A6.33,6.33,0,0,1,304.41,23a5,5,0,0,1,2.18-.5,4.3,4.3,0,0,1,1.57.26,4.16,4.16,0,0,1,1.09.62,3.43,3.43,0,0,1,.66.67l-.22-.35a1,1,0,0,1,.44-.91,2.39,2.39,0,0,1,1.38-.31,2.34,2.34,0,0,1,1.29.27,1.16,1.16,0,0,1,.48.73,5.8,5.8,0,0,1,.08.95V33a4.73,4.73,0,0,1-.09.93,1.07,1.07,0,0,1-.48.71A2.38,2.38,0,0,1,311.48,34.92Zm-4.37-3.72a2.21,2.21,0,0,0,1.2-.34,2.6,2.6,0,0,0,1.18-2.19,2.53,2.53,0,0,0-.33-1.29,2.45,2.45,0,0,0-.87-.88,2.36,2.36,0,0,0-1.23-.33,2.33,2.33,0,0,0-1.26.34,2.53,2.53,0,0,0-1.24,2.21A2.34,2.34,0,0,0,304.9,30a2.56,2.56,0,0,0,.92.9A2.59,2.59,0,0,0,307.11,31.2Z"/><path class="cls-2" d="M125.11,34.84a2.4,2.4,0,0,1-1.3-.27,1.05,1.05,0,0,1-.49-.71,4.7,4.7,0,0,1-.09-.92V19.26a2.07,2.07,0,0,1,.43-1.49,2.2,2.2,0,0,1,1.52-.41h9.45a4.45,4.45,0,0,1,.93.09,1.07,1.07,0,0,1,.69.48,2.65,2.65,0,0,1,.26,1.35,2.28,2.28,0,0,1-.28,1.3,1.1,1.1,0,0,1-.71.49,4.62,4.62,0,0,1-.94.09H127v3.23h5.13a4.63,4.63,0,0,1,.88.08,1,1,0,0,1,.62.42,2.5,2.5,0,0,1,.22,1.2,2,2,0,0,1-.23,1.11.93.93,0,0,1-.62.42,5,5,0,0,1-.9.07H127V33a4,4,0,0,1-.1.92,1.09,1.09,0,0,1-.48.69A2.47,2.47,0,0,1,125.11,34.84Z"/><path class="cls-2" d="M145,35.05a6.3,6.3,0,0,1-2.34-.47,6.84,6.84,0,0,1-2.11-1.31,6.38,6.38,0,0,1-1.51-2,6,6,0,0,1-.56-2.64,6.19,6.19,0,0,1,.51-2.51,6.75,6.75,0,0,1,3.48-3.47,6.09,6.09,0,0,1,2.49-.51,6.35,6.35,0,0,1,3.26.86,6.61,6.61,0,0,1,2.33,2.34,6.27,6.27,0,0,1,.88,3.28,6.2,6.2,0,0,1-.57,2.71,6.35,6.35,0,0,1-1.5,2,6.68,6.68,0,0,1-2.07,1.28A6.42,6.42,0,0,1,145,35.05Zm-.05-3.78a2.85,2.85,0,0,0,1.23-.3,2.81,2.81,0,0,0,1.05-.9,2.57,2.57,0,0,0,.42-1.52,2.67,2.67,0,0,0-.35-1.4,2.48,2.48,0,0,0-1-.94,2.94,2.94,0,0,0-1.41-.34,2.6,2.6,0,0,0-1.34.35,2.82,2.82,0,0,0-1,1,2.69,2.69,0,0,0-.36,1.39,2.58,2.58,0,0,0,.41,1.51,2.43,2.43,0,0,0,1,.9A2.76,2.76,0,0,0,144.91,31.27Z"/><path class="cls-2" d="M155.28,34.85a2.41,2.41,0,0,1-1.31-.26,1,1,0,0,1-.47-.71,4.73,4.73,0,0,1-.09-.93V24.23a4.54,4.54,0,0,1,.08-.93,1,1,0,0,1,.49-.68,2.47,2.47,0,0,1,1.33-.27,2.5,2.5,0,0,1,1.26.24,1.06,1.06,0,0,1,.49.55,2.08,2.08,0,0,1,.1.54l-.31.15a3.56,3.56,0,0,1,.86-.91,3.4,3.4,0,0,1,.91-.49,3.62,3.62,0,0,1,1.24-.2c.18,0,.38,0,.61,0a3.14,3.14,0,0,1,.7.15,3.32,3.32,0,0,1,.66.3,1.8,1.8,0,0,1,.49.46,1.23,1.23,0,0,1,.18.68A3.06,3.06,0,0,1,162,25.6a1.42,1.42,0,0,1-1.2.71,2,2,0,0,1-.6-.06,1.3,1.3,0,0,1-.29-.16l-.26-.15a1.68,1.68,0,0,0-.55-.06,2.71,2.71,0,0,0-.71.1,2.06,2.06,0,0,0-.63.31,1.54,1.54,0,0,0-.45.53,1.49,1.49,0,0,0-.16.71V33a5.4,5.4,0,0,1-.08.91,1.07,1.07,0,0,1-.49.69A2.73,2.73,0,0,1,155.28,34.85Z"/><path class="cls-2" d="M166.31,34.86a2.38,2.38,0,0,1-1.3-.27,1.07,1.07,0,0,1-.48-.71,5.29,5.29,0,0,1-.07-.92V24.21a4.29,4.29,0,0,1,.09-.9,1.08,1.08,0,0,1,.49-.69,2.59,2.59,0,0,1,1.33-.26,2.09,2.09,0,0,1,1.35.36,1.51,1.51,0,0,1,.42,1.19l-.33.28a2.46,2.46,0,0,1,.3-.43,4.89,4.89,0,0,1,.65-.62,3.77,3.77,0,0,1,.94-.56,2.85,2.85,0,0,1,1.17-.24,4.29,4.29,0,0,1,1.48.24,3.82,3.82,0,0,1,1.2.7,4.38,4.38,0,0,1,.94,1.16,6.28,6.28,0,0,1,.85-1,4.41,4.41,0,0,1,1.17-.8,3.47,3.47,0,0,1,1.53-.33,4.15,4.15,0,0,1,2.49.74,4.54,4.54,0,0,1,1.53,2.12,9.28,9.28,0,0,1,.53,3.32V33a3.91,3.91,0,0,1-.1.91,1.14,1.14,0,0,1-.48.7,2.52,2.52,0,0,1-1.32.26,2.33,2.33,0,0,1-1.32-.28,1,1,0,0,1-.48-.71,5.33,5.33,0,0,1-.07-.91V28.49a4,4,0,0,0-.18-1.28,1.88,1.88,0,0,0-.54-.83,1.41,1.41,0,0,0-.9-.29,1.64,1.64,0,0,0-1,.28,1.72,1.72,0,0,0-.6.8,3.92,3.92,0,0,0-.2,1.35V33a3.14,3.14,0,0,1-.13.94,1.22,1.22,0,0,1-.53.7,2.6,2.6,0,0,1-1.34.24,2.09,2.09,0,0,1-1.25-.29,1.14,1.14,0,0,1-.45-.73,5.26,5.26,0,0,1-.08-.89V28.49a4.21,4.21,0,0,0-.18-1.3,1.65,1.65,0,0,0-.52-.83,1.49,1.49,0,0,0-.93-.27,1.61,1.61,0,0,0-1,.32,1.93,1.93,0,0,0-.59.87,3.49,3.49,0,0,0-.19,1.21V33a4.42,4.42,0,0,1-.09.92,1.06,1.06,0,0,1-.49.69A2.52,2.52,0,0,1,166.31,34.86Z"/><path class="cls-2" d="M195.23,34.85a2.41,2.41,0,0,1-1.37-.32.93.93,0,0,1-.43-.8l.25-.43a3,3,0,0,1-.57.62,4.44,4.44,0,0,1-1.11.64,4.38,4.38,0,0,1-1.67.29,5,5,0,0,1-2.18-.5A5.78,5.78,0,0,1,186.31,33,7.24,7.24,0,0,1,185,31a6.16,6.16,0,0,1-.47-2.38,5.87,5.87,0,0,1,.48-2.34,6.46,6.46,0,0,1,1.29-2,6.24,6.24,0,0,1,1.84-1.36,4.9,4.9,0,0,1,2.17-.5,4.35,4.35,0,0,1,1.58.26,4.26,4.26,0,0,1,1.08.62,3.43,3.43,0,0,1,.66.67l-.22-.35a1.05,1.05,0,0,1,.44-.91,2.39,2.39,0,0,1,1.38-.31,2.34,2.34,0,0,1,1.29.27,1.16,1.16,0,0,1,.48.73,4.87,4.87,0,0,1,.08.95V33a4.73,4.73,0,0,1-.09.93,1.09,1.09,0,0,1-.47.71A2.42,2.42,0,0,1,195.23,34.85Zm-4.37-3.72a2.21,2.21,0,0,0,1.2-.34,2.66,2.66,0,0,0,.85-.91,2.67,2.67,0,0,0,0-2.57,2.45,2.45,0,0,0-3.36-.87,2.53,2.53,0,0,0-.9.91,2.57,2.57,0,0,0-.34,1.3,2.34,2.34,0,0,0,.34,1.24,2.56,2.56,0,0,0,.92.9A2.59,2.59,0,0,0,190.86,31.13Z"/><path class="cls-2" d="M212.31,35a6.64,6.64,0,0,1-2.24-.41,7.16,7.16,0,0,1-2.1-1.22,5.92,5.92,0,0,1-1.54-2,6.35,6.35,0,0,1-.57-2.75,6.09,6.09,0,0,1,.58-2.73,6,6,0,0,1,1.52-2,6.87,6.87,0,0,1,2.09-1.21,6.61,6.61,0,0,1,2.21-.41,6.1,6.1,0,0,1,1.67.21,5.41,5.41,0,0,1,1.25.52,3.39,3.39,0,0,1,.73.52,6.26,6.26,0,0,1,.75.65,1.05,1.05,0,0,1,.3.85,1.38,1.38,0,0,1-.17.56,3.91,3.91,0,0,1-.38.59c-.51.7-1,1-1.5.95a2.27,2.27,0,0,1-.69-.25l-.59-.35a4.48,4.48,0,0,0-.62-.31,1.73,1.73,0,0,0-.75-.14,2.5,2.5,0,0,0-1.3.34,2.48,2.48,0,0,0-1.25,2.21,2.5,2.5,0,0,0,.34,1.3,2.46,2.46,0,0,0,.9.91,2.33,2.33,0,0,0,1.26.34,2.28,2.28,0,0,0,.72-.1,2.69,2.69,0,0,0,.56-.24l.35-.21.57-.36a1.05,1.05,0,0,1,.55-.16,1.21,1.21,0,0,1,.74.26,4.1,4.1,0,0,1,.81.84,2.07,2.07,0,0,1,.49,1,1.18,1.18,0,0,1-.22.86,2.58,2.58,0,0,1-.85.77,5.06,5.06,0,0,1-.71.45,6.52,6.52,0,0,1-1.25.49A5.69,5.69,0,0,1,212.31,35Z"/><path class="cls-2" d="M225.26,35.1a6.22,6.22,0,0,1-2.34-.47,7,7,0,0,1-2.11-1.31,6.38,6.38,0,0,1-1.51-2,6,6,0,0,1-.56-2.64,6.19,6.19,0,0,1,.51-2.51,6.75,6.75,0,0,1,1.41-2.06,6.67,6.67,0,0,1,2.07-1.41,6.08,6.08,0,0,1,2.48-.51,6.39,6.39,0,0,1,3.27.86,6.61,6.61,0,0,1,2.33,2.34,6.22,6.22,0,0,1,.88,3.28,6.34,6.34,0,0,1-.57,2.71,6.21,6.21,0,0,1-1.5,2,6.46,6.46,0,0,1-2.08,1.29A6.32,6.32,0,0,1,225.26,35.1Zm0-3.78a2.89,2.89,0,0,0,2.28-1.2,2.6,2.6,0,0,0,.42-1.52,2.74,2.74,0,0,0-.35-1.4,2.48,2.48,0,0,0-1-.94,2.83,2.83,0,0,0-1.41-.34,2.6,2.6,0,0,0-1.34.35,2.65,2.65,0,0,0-.95,1,2.69,2.69,0,0,0-.36,1.39,2.6,2.6,0,0,0,.41,1.51,2.47,2.47,0,0,0,1,.9A3,3,0,0,0,225.21,31.32Z"/><path class="cls-2" d="M235.53,34.9a2.4,2.4,0,0,1-1.3-.27,1.1,1.1,0,0,1-.47-.7,5.37,5.37,0,0,1-.08-.93V24.25a4.36,4.36,0,0,1,.09-.9,1.1,1.1,0,0,1,.48-.69,2.59,2.59,0,0,1,1.33-.26,2,2,0,0,1,1.35.37,1.47,1.47,0,0,1,.42,1.18l-.32.28a1.87,1.87,0,0,1,.3-.43,4.92,4.92,0,0,1,.65-.62,4.1,4.1,0,0,1,.94-.56,2.8,2.8,0,0,1,1.16-.24,4.35,4.35,0,0,1,1.49.24,3.82,3.82,0,0,1,1.2.7,4.32,4.32,0,0,1,.93,1.16,6.87,6.87,0,0,1,.85-1,4.46,4.46,0,0,1,1.18-.8,3.43,3.43,0,0,1,1.52-.33,4.17,4.17,0,0,1,2.49.74,4.54,4.54,0,0,1,1.54,2.12,9.29,9.29,0,0,1,.52,3.32V33a4.53,4.53,0,0,1-.1.91,1.15,1.15,0,0,1-.49.7,2.5,2.5,0,0,1-1.31.26,2.47,2.47,0,0,1-1.33-.27,1.11,1.11,0,0,1-.47-.72A5.31,5.31,0,0,1,248,33V28.54a4.08,4.08,0,0,0-.19-1.29,1.8,1.8,0,0,0-.54-.83,1.37,1.37,0,0,0-.9-.29,1.68,1.68,0,0,0-1,.28,1.6,1.6,0,0,0-.6.8,3.7,3.7,0,0,0-.2,1.35V33a3.51,3.51,0,0,1-.12.94,1.21,1.21,0,0,1-.54.7,2.58,2.58,0,0,1-1.34.24,2.11,2.11,0,0,1-1.25-.29,1.12,1.12,0,0,1-.45-.73,5.14,5.14,0,0,1-.07-.88V28.53a4.55,4.55,0,0,0-.17-1.3,1.59,1.59,0,0,0-.53-.82,1.4,1.4,0,0,0-.92-.28,1.62,1.62,0,0,0-1,.32,2,2,0,0,0-.59.87,3.76,3.76,0,0,0-.18,1.21V33a4.42,4.42,0,0,1-.09.92,1,1,0,0,1-.48.69A2.49,2.49,0,0,1,235.53,34.9Z"/><path class="cls-2" d="M256,40.09a2.48,2.48,0,0,1-1.3-.26,1,1,0,0,1-.48-.68,4.94,4.94,0,0,1-.07-.89v-14a5.1,5.1,0,0,1,.07-.91,1.05,1.05,0,0,1,.47-.69,2.19,2.19,0,0,1,1.28-.27,2.87,2.87,0,0,1,1.24.22,1.29,1.29,0,0,1,.66.7v14.9a3.29,3.29,0,0,1-.07.9,1.16,1.16,0,0,1-.49.69A2.5,2.5,0,0,1,256,40.09Zm4.8-5.4a4.52,4.52,0,0,1-2.15-.49,4.36,4.36,0,0,1-1.54-1.32,6.33,6.33,0,0,1-.92-1.94,7.9,7.9,0,0,1-.28-2.38,8.51,8.51,0,0,1,.32-2.33,6.71,6.71,0,0,1,.94-2,4.5,4.5,0,0,1,1.53-1.35,4.44,4.44,0,0,1,2.11-.48,4.88,4.88,0,0,1,2.15.5,6.38,6.38,0,0,1,3.11,3.35,6.15,6.15,0,0,1,.46,2.38,6.24,6.24,0,0,1-.46,2.36A6,6,0,0,1,263,34.23,5.23,5.23,0,0,1,260.78,34.69Zm-.5-3.52a2.28,2.28,0,0,0,1.25-.34,2.51,2.51,0,0,0,.89-.91,2.43,2.43,0,0,0,.34-1.28,2.6,2.6,0,0,0-.32-1.27,2.43,2.43,0,0,0-2.13-1.23,2.4,2.4,0,0,0-2.11,1.24,2.5,2.5,0,0,0-.31,1.26,2.54,2.54,0,0,0,.32,1.28,2.62,2.62,0,0,0,.87.91A2.32,2.32,0,0,0,260.28,31.17Z"/><path class="cls-2" d="M273.36,34.93a16.07,16.07,0,0,1-1.83-.11,3.7,3.7,0,0,1-1.35-.4,2.56,2.56,0,0,1-.9-.83,4,4,0,0,1-.52-1.38,10,10,0,0,1-.18-2.06V18.6a3.9,3.9,0,0,1,.1-.93,1.21,1.21,0,0,1,.49-.7,2.39,2.39,0,0,1,1.31-.27,2.34,2.34,0,0,1,1.29.27,1.21,1.21,0,0,1,.49.7,4.57,4.57,0,0,1,.1.93V30a4.22,4.22,0,0,0,0,.67.8.8,0,0,0,.15.41.49.49,0,0,0,.31.2,2.4,2.4,0,0,0,.52.05,2.7,2.7,0,0,1,.62.08.9.9,0,0,1,.53.45,2.53,2.53,0,0,1,.23,1.25,2.79,2.79,0,0,1-.23,1.3.89.89,0,0,1-.54.47A2.65,2.65,0,0,1,273.36,34.93Z"/><path class="cls-2" d="M282.78,35.16a7.25,7.25,0,0,1-3-.58,5.84,5.84,0,0,1-2.06-1.51,6.35,6.35,0,0,1-1.2-2.09,6.92,6.92,0,0,1-.4-2.3,6.45,6.45,0,0,1,.85-3.33,6.12,6.12,0,0,1,2.37-2.28,7,7,0,0,1,3.46-.84,6.39,6.39,0,0,1,2.51.46,5.11,5.11,0,0,1,1.75,1.21,5,5,0,0,1,1,1.58,4.33,4.33,0,0,1,.34,1.63,2.82,2.82,0,0,1-.66,2.05,2.28,2.28,0,0,1-1.69.67h-5.95a1.74,1.74,0,0,0,.46,1.07,2.75,2.75,0,0,0,1,.71,3.64,3.64,0,0,0,1.32.25,6.54,6.54,0,0,0,1-.07,4.49,4.49,0,0,0,.79-.17l.59-.23.48-.18a2.63,2.63,0,0,1,.43-.1,1,1,0,0,1,.67.21,2.11,2.11,0,0,1,.58.71,2.43,2.43,0,0,1,.24.53,2.14,2.14,0,0,1,.06.5,1.35,1.35,0,0,1-.62,1.09,4.78,4.78,0,0,1-1.72.73A11,11,0,0,1,282.78,35.16Zm-2.67-7.41h3.95a1.06,1.06,0,0,0,.58-.14.62.62,0,0,0,.2-.54,1.24,1.24,0,0,0-.28-.77,1.64,1.64,0,0,0-.74-.54,2.74,2.74,0,0,0-1.08-.19,3,3,0,0,0-1.35.3,2.39,2.39,0,0,0-.94.8A1.84,1.84,0,0,0,280.11,27.75Z"/><path class="cls-2" d="M291.29,22.64H294l3.45-.1a4.43,4.43,0,0,1,.9.09,1.1,1.1,0,0,1,.7.49,2.41,2.41,0,0,1,.27,1.32,2.38,2.38,0,0,1-.26,1.25,1.15,1.15,0,0,1-.69.51,3,3,0,0,1-.92.11l-3.28-.07-3,0a1.28,1.28,0,0,1-1-.46,2.56,2.56,0,0,1-.28-1.39,2.15,2.15,0,0,1,.35-1.34A1.26,1.26,0,0,1,291.29,22.64Zm5.64,12.3a7.54,7.54,0,0,1-2.2-.28,3.43,3.43,0,0,1-1.51-.85,3.62,3.62,0,0,1-.88-1.46,7,7,0,0,1-.28-2.11V20.11a4.2,4.2,0,0,1,.08-.92,1.07,1.07,0,0,1,.49-.67,2.51,2.51,0,0,1,1.3-.26,2.3,2.3,0,0,1,1.3.28,1.1,1.1,0,0,1,.49.71,4.53,4.53,0,0,1,.09.91v9.93a3,3,0,0,0,.06.66.71.71,0,0,0,.19.39.68.68,0,0,0,.35.17,2.19,2.19,0,0,0,.55.05,4.67,4.67,0,0,1,1,.1,1,1,0,0,1,.66.46,2.13,2.13,0,0,1,.24,1.17,2.4,2.4,0,0,1-.27,1.3,1.07,1.07,0,0,1-.72.48A5.33,5.33,0,0,1,296.93,34.94Z"/><path class="cls-2" d="M311.48,34.92a2.39,2.39,0,0,1-1.37-.32.93.93,0,0,1-.43-.8l.25-.43a2.72,2.72,0,0,1-.57.61,4.08,4.08,0,0,1-1.12.65,4.15,4.15,0,0,1-1.66.29,5,5,0,0,1-2.19-.5A5.85,5.85,0,0,1,302.56,33a7,7,0,0,1-1.28-2,6.16,6.16,0,0,1-.47-2.38,5.9,5.9,0,0,1,.48-2.34,6.46,6.46,0,0,1,1.29-2A6.33,6.33,0,0,1,304.41,23a5,5,0,0,1,2.18-.5,4.3,4.3,0,0,1,1.57.26,4.16,4.16,0,0,1,1.09.62,3.43,3.43,0,0,1,.66.67l-.22-.35a1,1,0,0,1,.44-.91,2.39,2.39,0,0,1,1.38-.31,2.34,2.34,0,0,1,1.29.27,1.16,1.16,0,0,1,.48.73,5.8,5.8,0,0,1,.08.95V33a4.73,4.73,0,0,1-.09.93,1.07,1.07,0,0,1-.48.71A2.38,2.38,0,0,1,311.48,34.92Zm-4.37-3.72a2.21,2.21,0,0,0,1.2-.34,2.6,2.6,0,0,0,1.18-2.19,2.53,2.53,0,0,0-.33-1.29,2.45,2.45,0,0,0-.87-.88,2.36,2.36,0,0,0-1.23-.33,2.33,2.33,0,0,0-1.26.34,2.53,2.53,0,0,0-1.24,2.21A2.34,2.34,0,0,0,304.9,30a2.56,2.56,0,0,0,.92.9A2.59,2.59,0,0,0,307.11,31.2Z"/><path class="cls-4" d="M58.88,41.85a4.22,4.22,0,0,1-3.5-1.36c-.74-.91-1.1-2.5-1.1-4.77H46.74a5.31,5.31,0,0,1-3.93-1.3,4.61,4.61,0,0,1-1.28-3.36,7.12,7.12,0,0,1,1.11-3.95Q45.54,22.45,49.16,17A6.65,6.65,0,0,1,55,13.84l3.55,0c2,0,3.32.34,4,1a4.92,4.92,0,0,1,1.06,3.59V29.59a3.66,3.66,0,0,1,2.4.88,3.33,3.33,0,0,1,.65,2.27,2.8,2.8,0,0,1-.7,2.2,4.07,4.07,0,0,1-2.36.74c0,2.21-.4,3.79-1.18,4.74A4.33,4.33,0,0,1,58.88,41.85Zm-4.63-12.1.13-8.94-5.47,8.94Z"/><path class="cls-4" d="M69.23,39a2.78,2.78,0,0,1,1.16-2.31,5.4,5.4,0,0,1,3.28-.88c3,0,4.44,1.07,4.44,3.19a3.11,3.11,0,0,1-.57,2,2.69,2.69,0,0,1-1.51,1,9.11,9.11,0,0,1-2.36.26,6.13,6.13,0,0,1-3.18-.76A2.62,2.62,0,0,1,69.23,39Z"/><path class="cls-4" d="M94,41.85a4.22,4.22,0,0,1-3.5-1.36c-.74-.91-1.1-2.5-1.1-4.77H81.9A5.31,5.31,0,0,1,78,34.42a4.61,4.61,0,0,1-1.28-3.36,7.12,7.12,0,0,1,1.11-3.95Q80.7,22.45,84.32,17a6.65,6.65,0,0,1,5.83-3.19l3.55,0c2,0,3.32.34,4,1a4.92,4.92,0,0,1,1.06,3.59V29.59a3.66,3.66,0,0,1,2.4.88,3.31,3.31,0,0,1,.65,2.27,2.8,2.8,0,0,1-.7,2.2,4,4,0,0,1-2.36.74c0,2.21-.4,3.79-1.18,4.74A4.36,4.36,0,0,1,94,41.85Zm-4.63-12.1.13-8.94-5.47,8.94Z"/><path class="cls-5" d="M58.88,41.85a4.22,4.22,0,0,1-3.5-1.36c-.74-.91-1.1-2.5-1.1-4.77H46.74a5.31,5.31,0,0,1-3.93-1.3,4.61,4.61,0,0,1-1.28-3.36,7.12,7.12,0,0,1,1.11-3.95Q45.54,22.45,49.16,17A6.65,6.65,0,0,1,55,13.84l3.55,0c2,0,3.32.34,4,1a4.92,4.92,0,0,1,1.06,3.59V29.59a3.66,3.66,0,0,1,2.4.88,3.33,3.33,0,0,1,.65,2.27,2.8,2.8,0,0,1-.7,2.2,4.07,4.07,0,0,1-2.36.74c0,2.21-.4,3.79-1.18,4.74A4.33,4.33,0,0,1,58.88,41.85Zm-4.63-12.1.13-8.94-5.47,8.94Z"/><path class="cls-5" d="M69.23,39a2.78,2.78,0,0,1,1.16-2.31,5.4,5.4,0,0,1,3.28-.88c3,0,4.44,1.07,4.44,3.19a3.11,3.11,0,0,1-.57,2,2.69,2.69,0,0,1-1.51,1,9.11,9.11,0,0,1-2.36.26,6.13,6.13,0,0,1-3.18-.76A2.62,2.62,0,0,1,69.23,39Z"/><path class="cls-5" d="M94,41.85a4.22,4.22,0,0,1-3.5-1.36c-.74-.91-1.1-2.5-1.1-4.77H81.9A5.31,5.31,0,0,1,78,34.42a4.61,4.61,0,0,1-1.28-3.36,7.12,7.12,0,0,1,1.11-3.95Q80.7,22.45,84.32,17a6.65,6.65,0,0,1,5.83-3.19l3.55,0c2,0,3.32.34,4,1a4.92,4.92,0,0,1,1.06,3.59V29.59a3.66,3.66,0,0,1,2.4.88,3.31,3.31,0,0,1,.65,2.27,2.8,2.8,0,0,1-.7,2.2,4,4,0,0,1-2.36.74c0,2.21-.4,3.79-1.18,4.74A4.36,4.36,0,0,1,94,41.85Zm-4.63-12.1.13-8.94-5.47,8.94Z"/></g></g></svg>