<svg xmlns="http://www.w3.org/2000/svg" viewBox="0 0 429 216.04"><defs><style>.cls-1{fill:#fff;}.cls-2{fill:none;}</style></defs><title>pag33</title><g id="Layer_2" data-name="Layer 2"><g id="Paso_4" data-name="Paso 4"><path class="cls-1" d="M28.67,12.48a.94.94,0,0,1,.11.32.35.35,0,0,1-.08.24.81.81,0,0,1-.28.2.52.52,0,0,1-.48,0,.78.78,0,0,1-.31-.37L22.38,1.62,17.16,12.86a.78.78,0,0,1-.32.38.59.59,0,0,1-.5,0,.48.48,0,0,1-.27-.2.4.4,0,0,1,0-.31,1.64,1.64,0,0,1,.15-.44L21.87.38a.65.65,0,0,1,.22-.25A.56.56,0,0,1,22.4,0a.46.46,0,0,1,.21,0,.45.45,0,0,1,.17.11.54.54,0,0,1,.13.21Zm-10-3.32L19,8.21h6.8l.36.95Z"/><path class="cls-1" d="M31.16,16.93a.75.75,0,0,1-.33-.06.32.32,0,0,1-.18-.18.75.75,0,0,1-.06-.33V4.83a1.11,1.11,0,0,1,.05-.36.33.33,0,0,1,.17-.18,1,1,0,0,1,.33,0,.66.66,0,0,1,.45.12.64.64,0,0,1,.12.45V16.34a1.06,1.06,0,0,1-.05.34.32.32,0,0,1-.17.19A.75.75,0,0,1,31.16,16.93Zm4.08-3.67a4.53,4.53,0,0,1-1.71-.32A3.94,3.94,0,0,1,32.19,12a4.36,4.36,0,0,1-.89-1.45A5.18,5.18,0,0,1,31,8.7a5.17,5.17,0,0,1,.31-1.85,4.27,4.27,0,0,1,.89-1.43,4.06,4.06,0,0,1,1.34-.92,4.53,4.53,0,0,1,1.71-.32,4.31,4.31,0,0,1,1.66.32,4.1,4.1,0,0,1,1.33.93,4.47,4.47,0,0,1,.89,1.46,5.1,5.1,0,0,1,.32,1.87,4.89,4.89,0,0,1-.32,1.83A4.44,4.44,0,0,1,38.23,12a4.07,4.07,0,0,1-1.33.92A4.31,4.31,0,0,1,35.24,13.26Zm-.17-1A3.15,3.15,0,0,0,38,10.55,3.8,3.8,0,0,0,38.4,8.7,3.78,3.78,0,0,0,38,6.85a3.2,3.2,0,0,0-1.19-1.23A3.29,3.29,0,0,0,32.2,6.87a3.7,3.7,0,0,0-.43,1.83,3.8,3.8,0,0,0,.43,1.85,3.29,3.29,0,0,0,1.19,1.26A3.19,3.19,0,0,0,35.07,12.25Z"/><path class="cls-1" d="M46.15,13.38A4.52,4.52,0,0,1,44.36,13a5,5,0,0,1-1.47-1,4.85,4.85,0,0,1-1-1.47,4.63,4.63,0,0,1,0-3.58,4.52,4.52,0,0,1,1-1.46,4.7,4.7,0,0,1,1.47-1,4.54,4.54,0,0,1,1.77-.35,4.46,4.46,0,0,1,2.3.6,4.45,4.45,0,0,1,2.24,4,4.51,4.51,0,0,1-.35,1.82,4.59,4.59,0,0,1-1,1.47,4.53,4.53,0,0,1-1.43,1A4.32,4.32,0,0,1,46.15,13.38Zm0-1a3.32,3.32,0,0,0,1.76-.48,3.52,3.52,0,0,0,1.25-1.32,3.67,3.67,0,0,0,.47-1.83,3.54,3.54,0,0,0-.46-1.82,3.31,3.31,0,0,0-1.24-1.25,3.58,3.58,0,0,0-1.8-.44,3.39,3.39,0,0,0-1.77.46,3.46,3.46,0,0,0-1.26,1.26,3.56,3.56,0,0,0-.46,1.81,3.64,3.64,0,0,0,.46,1.84,3.44,3.44,0,0,0,3,1.77Z"/><path class="cls-1" d="M56.81,11.76,52.53,5.11a.66.66,0,0,1-.13-.44.57.57,0,0,1,.29-.32.6.6,0,0,1,.44-.13.56.56,0,0,1,.35.3l3.9,6.18Zm-2,5.15c-.18-.08-.3-.17-.33-.28a.73.73,0,0,1,.09-.46L59.76,4.54a.67.67,0,0,1,.29-.38.55.55,0,0,1,.45.06c.19.09.29.19.32.3a.8.8,0,0,1-.1.46l-5.2,11.66c-.09.21-.18.32-.28.35A.79.79,0,0,1,54.81,16.91Z"/><path class="cls-1" d="M71,13.28a.49.49,0,0,1-.38-.13,1.09,1.09,0,0,1-.15-.5V11.38a4.49,4.49,0,0,1-.65.81A3.94,3.94,0,0,1,66.9,13.3,4.17,4.17,0,0,1,63.8,12a4.65,4.65,0,0,1-.92-1.45,4.84,4.84,0,0,1-.33-1.8A4.57,4.57,0,0,1,62.88,7,4.47,4.47,0,0,1,65.2,4.59a4,4,0,0,1,1.7-.35,4.66,4.66,0,0,1,1.53.22,4.07,4.07,0,0,1,1.12.63,5.56,5.56,0,0,1,.88.93V4.94a.86.86,0,0,1,.13-.54A.48.48,0,0,1,71,4.24a.61.61,0,0,1,.3.06.4.4,0,0,1,.15.22,1.5,1.5,0,0,1,0,.42v7.71a1.18,1.18,0,0,1,0,.37.3.3,0,0,1-.16.2A.68.68,0,0,1,71,13.28Zm-3.85-1a3,3,0,0,0,1.65-.46,3.36,3.36,0,0,0,1.18-1.27,3.74,3.74,0,0,0,.44-1.82,3.77,3.77,0,0,0-.46-1.88,3.38,3.38,0,0,0-1.21-1.25,3.22,3.22,0,0,0-1.64-.44,3.45,3.45,0,0,0-1.82.47A3.41,3.41,0,0,0,64,6.94a3.87,3.87,0,0,0-.44,1.86A3.69,3.69,0,0,0,64,10.6a3.24,3.24,0,0,0,1.23,1.26A3.73,3.73,0,0,0,67.11,12.31Z"/><path class="cls-1" d="M75,13.3a.67.67,0,0,1-.3-.06.28.28,0,0,1-.16-.19,1.06,1.06,0,0,1,0-.34V4.79a1,1,0,0,1,0-.35.25.25,0,0,1,.16-.17,1.33,1.33,0,0,1,.32,0,1.45,1.45,0,0,1,.32,0,.3.3,0,0,1,.18.17.84.84,0,0,1,0,.35v.8c.13-.22.26-.42.38-.59a2.05,2.05,0,0,1,.46-.47A2,2,0,0,1,77,4.22a3.28,3.28,0,0,1,1-.12,2.4,2.4,0,0,1,.56.06,3,3,0,0,1,.48.15,2.43,2.43,0,0,1,.37.21,1,1,0,0,1,.23.23A.41.41,0,0,1,79.7,5a.56.56,0,0,1-.2.42.6.6,0,0,1-.7.1,2.39,2.39,0,0,1-.22-.16.9.9,0,0,0-.34-.16,2.46,2.46,0,0,0-.7-.07,1.93,1.93,0,0,0-.63.12,2.65,2.65,0,0,0-.65.37,2,2,0,0,0-.74,1.6v5.55a1,1,0,0,1,0,.33.31.31,0,0,1-.17.17A1.11,1.11,0,0,1,75,13.3Z"/><path class="cls-1" d="M90,13.3a4.08,4.08,0,0,1-1-.11,2.35,2.35,0,0,1-.75-.35,2,2,0,0,1-.54-.57,2.34,2.34,0,0,1-.32-.79,4.53,4.53,0,0,1-.11-1V.59a1,1,0,0,1,0-.35.3.3,0,0,1,.17-.18A.71.71,0,0,1,87.87,0a1.06,1.06,0,0,1,.34.05.31.31,0,0,1,.18.16.72.72,0,0,1,0,.32v10a2.63,2.63,0,0,0,.1.73,1.3,1.3,0,0,0,.29.53,1.2,1.2,0,0,0,.5.32,2,2,0,0,0,.67.11.84.84,0,0,1,.35.05.26.26,0,0,1,.18.17.94.94,0,0,1,0,.66.28.28,0,0,1-.18.17A1,1,0,0,1,90,13.3Z"/><path class="cls-1" d="M96.94,13.38A4.48,4.48,0,0,1,95.15,13a4.79,4.79,0,0,1-1.47-1,4.51,4.51,0,0,1-1-1.47,4.42,4.42,0,0,1-.36-1.78A4.62,4.62,0,0,1,92.67,7a4.55,4.55,0,0,1,4.23-2.8,4.49,4.49,0,0,1,4.54,4.58,4.69,4.69,0,0,1-.35,1.82,4.76,4.76,0,0,1-1,1.47,4.46,4.46,0,0,1-1.44,1A4.24,4.24,0,0,1,96.94,13.38Zm0-1a3.32,3.32,0,0,0,1.76-.48,3.6,3.6,0,0,0,1.25-1.32,3.81,3.81,0,0,0,0-3.65,3.31,3.31,0,0,0-1.24-1.25,3.58,3.58,0,0,0-1.8-.44,3.45,3.45,0,0,0-1.78.46,3.51,3.51,0,0,0-1.25,1.26,3.56,3.56,0,0,0-.47,1.81,3.65,3.65,0,0,0,.47,1.84,3.41,3.41,0,0,0,3.05,1.77Z"/><path class="cls-1" d="M106.8,13.36a4.56,4.56,0,0,1-.89-.09,4.89,4.89,0,0,1-.85-.25,3.77,3.77,0,0,1-.75-.38,1.75,1.75,0,0,1-.74-.8.31.31,0,0,1,0-.25.44.44,0,0,1,.18-.21.46.46,0,0,1,.4-.19,1.23,1.23,0,0,1,.49.36,1.74,1.74,0,0,0,.44.35,3.77,3.77,0,0,0,.57.28,4.24,4.24,0,0,0,.61.17,2.91,2.91,0,0,0,.57.06,3.16,3.16,0,0,0,1.69-.41,1.25,1.25,0,0,0,.64-1.11,1.44,1.44,0,0,0-.13-.64,1.37,1.37,0,0,0-.36-.46,2.75,2.75,0,0,0-.52-.34,4.91,4.91,0,0,0-.65-.24l-.71-.2c-.36-.09-.71-.19-1.06-.3a4.45,4.45,0,0,1-.94-.41,2.05,2.05,0,0,1-.67-.64,1.89,1.89,0,0,1-.26-1,2.17,2.17,0,0,1,.37-1.25,2.49,2.49,0,0,1,1-.84,3.71,3.71,0,0,1,1.54-.3,5.13,5.13,0,0,1,.81.06,3.79,3.79,0,0,1,.72.2,4,4,0,0,1,.62.32,3.2,3.2,0,0,1,.55.42.66.66,0,0,1,.24.38.45.45,0,0,1-.13.36.59.59,0,0,1-.36.22.47.47,0,0,1-.4-.18,2.82,2.82,0,0,0-.64-.48,3.61,3.61,0,0,0-.68-.28,2.92,2.92,0,0,0-.73-.09,2.57,2.57,0,0,0-1,.18,1.47,1.47,0,0,0-.67.51,1.28,1.28,0,0,0-.24.77.85.85,0,0,0,.16.54,1.3,1.3,0,0,0,.43.37,3.29,3.29,0,0,0,.62.27l.76.23,1.16.33a5,5,0,0,1,1.08.47,2.49,2.49,0,0,1,.78.77,2.21,2.21,0,0,1,.31,1.24,2.12,2.12,0,0,1-1,1.82A4.07,4.07,0,0,1,106.8,13.36Z"/><path class="cls-1" d="M118.62,13.32a.73.73,0,0,1-.32-.06.39.39,0,0,1-.18-.18.75.75,0,0,1-.06-.33V.65a1.11,1.11,0,0,1,0-.36.33.33,0,0,1,.17-.18,1,1,0,0,1,.32,0,.89.89,0,0,1,.32.05.37.37,0,0,1,.17.18.83.83,0,0,1,.06.34v12.1a.69.69,0,0,1-.12.46A.54.54,0,0,1,118.62,13.32Zm4.06,0A4.53,4.53,0,0,1,121,13a4.1,4.1,0,0,1-1.35-.92,4.25,4.25,0,0,1-.88-1.43,5.17,5.17,0,0,1-.31-1.85,5.18,5.18,0,0,1,.31-1.86,4.34,4.34,0,0,1,.88-1.45A4,4,0,0,1,121,4.54a4.53,4.53,0,0,1,1.71-.32,4.22,4.22,0,0,1,1.65.32,4,4,0,0,1,1.33.92,4.46,4.46,0,0,1,.9,1.43,5.09,5.09,0,0,1,.32,1.83,5.28,5.28,0,0,1-.32,1.87,4.49,4.49,0,0,1-.9,1.46,4,4,0,0,1-1.33.93A4.22,4.22,0,0,1,122.68,13.3Zm-.17-1a3.34,3.34,0,0,0,1.7-.44,3.23,3.23,0,0,0,1.19-1.24,3.73,3.73,0,0,0,.44-1.83,3.82,3.82,0,0,0-.44-1.86,3.19,3.19,0,0,0-1.19-1.25,3.25,3.25,0,0,0-1.7-.45,3.2,3.2,0,0,0-2.87,1.7,3.82,3.82,0,0,0-.44,1.86,3.73,3.73,0,0,0,.44,1.83,3.23,3.23,0,0,0,1.19,1.24A3.29,3.29,0,0,0,122.51,12.29Z"/><path class="cls-1" d="M130.26,13.3a.64.64,0,0,1-.3-.06.28.28,0,0,1-.16-.19,1.06,1.06,0,0,1-.05-.34V4.79a1,1,0,0,1,.05-.35.25.25,0,0,1,.16-.17,1.27,1.27,0,0,1,.32,0,1.3,1.3,0,0,1,.31,0,.29.29,0,0,1,.19.17,1,1,0,0,1,.05.35v.8c.13-.22.26-.42.38-.59a2.05,2.05,0,0,1,.46-.47,2,2,0,0,1,.65-.31,3.4,3.4,0,0,1,1-.12,2.4,2.4,0,0,1,.56.06,3.37,3.37,0,0,1,.48.15,3,3,0,0,1,.37.21,1,1,0,0,1,.23.23A.41.41,0,0,1,135,5a.54.54,0,0,1-.21.42.64.64,0,0,1-.38.17.62.62,0,0,1-.31-.07,2.39,2.39,0,0,1-.22-.16.9.9,0,0,0-.34-.16,2.46,2.46,0,0,0-.7-.07,1.93,1.93,0,0,0-.63.12,2.71,2.71,0,0,0-.66.37,2,2,0,0,0-.52.65,2,2,0,0,0-.21,1v5.55a1,1,0,0,1,0,.33.3.3,0,0,1-.18.17A1,1,0,0,1,130.26,13.3Z"/><path class="cls-1" d="M145.44,13.28a.49.49,0,0,1-.38-.13,1.09,1.09,0,0,1-.15-.5V11.38a4.49,4.49,0,0,1-.65.81,3.94,3.94,0,0,1-2.88,1.11,4.17,4.17,0,0,1-3.1-1.33,4.65,4.65,0,0,1-.92-1.45,4.84,4.84,0,0,1-.33-1.8A4.57,4.57,0,0,1,137.36,7a4.47,4.47,0,0,1,2.32-2.39,4,4,0,0,1,1.7-.35,4.66,4.66,0,0,1,1.53.22,4.07,4.07,0,0,1,1.12.63,5.56,5.56,0,0,1,.88.93V4.94A.94.94,0,0,1,145,4.4a.52.52,0,0,1,.43-.16.61.61,0,0,1,.3.06.4.4,0,0,1,.15.22,1.5,1.5,0,0,1,.05.42v7.71a1.18,1.18,0,0,1-.05.37.3.3,0,0,1-.16.2A.68.68,0,0,1,145.44,13.28Zm-3.85-1a3,3,0,0,0,1.65-.46,3.36,3.36,0,0,0,1.18-1.27,3.74,3.74,0,0,0,.43-1.82,3.76,3.76,0,0,0-.45-1.88,3.46,3.46,0,0,0-1.21-1.25,3.22,3.22,0,0,0-1.64-.44,3.51,3.51,0,0,0-1.83.47,3.46,3.46,0,0,0-1.21,1.28,3.87,3.87,0,0,0-.44,1.86,3.69,3.69,0,0,0,.44,1.8,3.24,3.24,0,0,0,1.23,1.26A3.73,3.73,0,0,0,141.59,12.31Z"/><path class="cls-1" d="M148.88,13.3a.64.64,0,0,1-.42-.11.6.6,0,0,1-.11-.4.79.79,0,0,1,.05-.29.85.85,0,0,1,.14-.21l6.25-6.95h-5.43a1.06,1.06,0,0,1-.34,0,.33.33,0,0,1-.18-.17,1,1,0,0,1-.05-.33,1,1,0,0,1,.05-.33.35.35,0,0,1,.18-.18,1.09,1.09,0,0,1,.34,0h6.49a.56.56,0,0,1,.42.11.55.55,0,0,1,.12.4.75.75,0,0,1,0,.23.38.38,0,0,1-.09.15L150,12.2h6.08a1,1,0,0,1,.33.05.34.34,0,0,1,.18.19,1,1,0,0,1,0,.33.91.91,0,0,1-.05.31.33.33,0,0,1-.18.17,1.06,1.06,0,0,1-.34.05Z"/><path class="cls-1" d="M163.17,13.38a4.52,4.52,0,0,1-1.79-.37,5,5,0,0,1-1.47-1,4.67,4.67,0,0,1-1-1.47,4.42,4.42,0,0,1-.36-1.78A4.62,4.62,0,0,1,158.9,7a4.72,4.72,0,0,1,1-1.46,4.59,4.59,0,0,1,1.47-1,4.54,4.54,0,0,1,1.77-.35,4.49,4.49,0,0,1,4.54,4.58,4.51,4.51,0,0,1-.35,1.82,4.59,4.59,0,0,1-1,1.47,4.53,4.53,0,0,1-1.43,1A4.32,4.32,0,0,1,163.17,13.38Zm0-1a3.32,3.32,0,0,0,1.76-.48,3.52,3.52,0,0,0,1.25-1.32,3.67,3.67,0,0,0,.47-1.83,3.54,3.54,0,0,0-.46-1.82,3.31,3.31,0,0,0-1.24-1.25,3.58,3.58,0,0,0-1.8-.44,3.39,3.39,0,0,0-1.77.46,3.46,3.46,0,0,0-1.26,1.26,3.56,3.56,0,0,0-.46,1.81,3.64,3.64,0,0,0,.46,1.84,3.44,3.44,0,0,0,3,1.77Z"/><path class="cls-1" d="M173,13.36a4.38,4.38,0,0,1-.88-.09,4.75,4.75,0,0,1-.86-.25,3.77,3.77,0,0,1-.75-.38,1.75,1.75,0,0,1-.74-.8.31.31,0,0,1,0-.25.44.44,0,0,1,.18-.21.46.46,0,0,1,.4-.19,1.16,1.16,0,0,1,.49.36,1.74,1.74,0,0,0,.44.35,3.77,3.77,0,0,0,.57.28,4.63,4.63,0,0,0,.61.17,2.91,2.91,0,0,0,.57.06,3.13,3.13,0,0,0,1.69-.41,1.26,1.26,0,0,0,.65-1.11,1.44,1.44,0,0,0-.14-.64,1.16,1.16,0,0,0-.36-.46,2.46,2.46,0,0,0-.52-.34,4.91,4.91,0,0,0-.65-.24L173,9l-1-.3A4.24,4.24,0,0,1,171,8.3a2,2,0,0,1-.68-.64,1.89,1.89,0,0,1-.25-1,2.1,2.1,0,0,1,.37-1.25,2.4,2.4,0,0,1,1-.84,3.71,3.71,0,0,1,1.54-.3,5.36,5.36,0,0,1,.82.06,3.9,3.9,0,0,1,.71.2,4.65,4.65,0,0,1,.63.32,3.57,3.57,0,0,1,.54.42.75.75,0,0,1,.25.38.5.5,0,0,1-.14.36.59.59,0,0,1-.36.22.47.47,0,0,1-.4-.18,2.77,2.77,0,0,0-.63-.48,3.7,3.7,0,0,0-.69-.28,2.92,2.92,0,0,0-.73-.09,2.57,2.57,0,0,0-1,.18,1.52,1.52,0,0,0-.67.51,1.28,1.28,0,0,0-.24.77.85.85,0,0,0,.16.54,1.3,1.3,0,0,0,.43.37,3.72,3.72,0,0,0,.63.27l.76.23,1.16.33a5,5,0,0,1,1.07.47,2.53,2.53,0,0,1,.79.77,2.3,2.3,0,0,1,.3,1.24,2.12,2.12,0,0,1-1,1.82A4.07,4.07,0,0,1,173,13.36Z"/><path class="cls-1" d="M187.32,13.36a4.56,4.56,0,0,1-.89-.09,4.89,4.89,0,0,1-.85-.25,3.77,3.77,0,0,1-.75-.38,1.75,1.75,0,0,1-.74-.8.31.31,0,0,1,0-.25.44.44,0,0,1,.18-.21.46.46,0,0,1,.4-.19,1.23,1.23,0,0,1,.49.36,1.74,1.74,0,0,0,.44.35,3.77,3.77,0,0,0,.57.28,4.24,4.24,0,0,0,.61.17,2.91,2.91,0,0,0,.57.06A3.16,3.16,0,0,0,189,12a1.25,1.25,0,0,0,.64-1.11,1.44,1.44,0,0,0-.13-.64,1.37,1.37,0,0,0-.36-.46,2.75,2.75,0,0,0-.52-.34,4.91,4.91,0,0,0-.65-.24L187.3,9q-.54-.13-1.05-.3a4.32,4.32,0,0,1-.95-.41,2.05,2.05,0,0,1-.67-.64,1.89,1.89,0,0,1-.26-1,2.17,2.17,0,0,1,.37-1.25,2.49,2.49,0,0,1,1-.84,3.71,3.71,0,0,1,1.54-.3,5.36,5.36,0,0,1,.82.06,3.9,3.9,0,0,1,.71.2,4,4,0,0,1,.62.32,3.2,3.2,0,0,1,.55.42.66.66,0,0,1,.24.38.45.45,0,0,1-.13.36.59.59,0,0,1-.36.22.47.47,0,0,1-.4-.18,2.62,2.62,0,0,0-.64-.48,3.61,3.61,0,0,0-.68-.28,2.92,2.92,0,0,0-.73-.09,2.57,2.57,0,0,0-1,.18,1.47,1.47,0,0,0-.67.51,1.28,1.28,0,0,0-.24.77.85.85,0,0,0,.16.54,1.3,1.3,0,0,0,.43.37,3.29,3.29,0,0,0,.62.27l.76.23,1.16.33a5,5,0,0,1,1.08.47,2.64,2.64,0,0,1,.79.77,2.3,2.3,0,0,1,.3,1.24,2.12,2.12,0,0,1-1,1.82A4.07,4.07,0,0,1,187.32,13.36Z"/><path class="cls-1" d="M197.45,13.38a4.48,4.48,0,0,1-1.79-.37,4.79,4.79,0,0,1-1.47-1,4.51,4.51,0,0,1-1-1.47,4.42,4.42,0,0,1-.36-1.78,4.62,4.62,0,0,1,.35-1.8,4.39,4.39,0,0,1,1-1.46,4.48,4.48,0,0,1,3.24-1.34,4.49,4.49,0,0,1,2.3.6,4.55,4.55,0,0,1,1.63,1.63A4.5,4.5,0,0,1,202,8.76a4.69,4.69,0,0,1-.35,1.82,4.76,4.76,0,0,1-1,1.47,4.46,4.46,0,0,1-1.44,1A4.24,4.24,0,0,1,197.45,13.38Zm0-1a3.35,3.35,0,0,0,1.76-.48,3.6,3.6,0,0,0,1.25-1.32,3.66,3.66,0,0,0,.46-1.83,3.64,3.64,0,0,0-.45-1.82,3.33,3.33,0,0,0-1.25-1.25,3.52,3.52,0,0,0-1.79-.44,3.45,3.45,0,0,0-1.78.46,3.51,3.51,0,0,0-1.25,1.26,3.56,3.56,0,0,0-.47,1.81,3.65,3.65,0,0,0,.47,1.84,3.41,3.41,0,0,0,3,1.77Z"/><path class="cls-1" d="M204.84,13.32a.76.76,0,0,1-.32-.06.39.39,0,0,1-.18-.18.76.76,0,0,1-.05-.33V.65a1.15,1.15,0,0,1,0-.36.33.33,0,0,1,.17-.18,1,1,0,0,1,.32,0,.89.89,0,0,1,.32.05.37.37,0,0,1,.17.18.83.83,0,0,1,.06.34v12.1a.75.75,0,0,1-.11.46A.58.58,0,0,1,204.84,13.32Zm4.06,0a4.53,4.53,0,0,1-1.71-.32,4.1,4.1,0,0,1-1.35-.92,4.25,4.25,0,0,1-.88-1.43,5.17,5.17,0,0,1-.31-1.85A5.18,5.18,0,0,1,205,6.92a4.34,4.34,0,0,1,.88-1.45,4,4,0,0,1,1.35-.93,4.53,4.53,0,0,1,1.71-.32,4.31,4.31,0,0,1,1.66.32,4.07,4.07,0,0,1,1.33.92,4.44,4.44,0,0,1,.89,1.43,5.09,5.09,0,0,1,.32,1.83,5.28,5.28,0,0,1-.32,1.87,4.47,4.47,0,0,1-.89,1.46,4.1,4.1,0,0,1-1.33.93A4.31,4.31,0,0,1,208.9,13.3Zm-.17-1a3.34,3.34,0,0,0,1.7-.44,3.23,3.23,0,0,0,1.19-1.24,3.73,3.73,0,0,0,.44-1.83,3.82,3.82,0,0,0-.44-1.86,3.19,3.19,0,0,0-1.19-1.25,3.25,3.25,0,0,0-1.7-.45,3.2,3.2,0,0,0-2.87,1.7,3.81,3.81,0,0,0-.43,1.86,3.72,3.72,0,0,0,.43,1.83,3.23,3.23,0,0,0,1.19,1.24A3.29,3.29,0,0,0,208.73,12.29Z"/><path class="cls-1" d="M216.48,13.3a.67.67,0,0,1-.3-.06.28.28,0,0,1-.16-.19,1.06,1.06,0,0,1-.05-.34V4.79a1,1,0,0,1,.05-.35.25.25,0,0,1,.16-.17,1.33,1.33,0,0,1,.32,0,1.45,1.45,0,0,1,.32,0,.3.3,0,0,1,.18.17,1,1,0,0,1,.05.35v.8c.13-.22.26-.42.38-.59a2.05,2.05,0,0,1,.46-.47,2,2,0,0,1,.66-.31,3.28,3.28,0,0,1,1-.12,2.4,2.4,0,0,1,.56.06,3,3,0,0,1,.48.15,3,3,0,0,1,.37.21,1,1,0,0,1,.23.23.41.41,0,0,1,.07.23.54.54,0,0,1-.21.42.61.61,0,0,1-.38.17.65.65,0,0,1-.31-.07,2.39,2.39,0,0,1-.22-.16.9.9,0,0,0-.34-.16,2.46,2.46,0,0,0-.7-.07,1.93,1.93,0,0,0-.63.12,2.71,2.71,0,0,0-.66.37,2.13,2.13,0,0,0-.52.65,2,2,0,0,0-.21,1v5.55a1,1,0,0,1,0,.33.31.31,0,0,1-.17.17A1.11,1.11,0,0,1,216.48,13.3Z"/><path class="cls-1" d="M227.94,13.34A5.32,5.32,0,0,1,226,13a4.33,4.33,0,0,1-1.48-1,4.44,4.44,0,0,1-1-1.49,5,5,0,0,1-.34-1.9,4.19,4.19,0,0,1,.59-2.22,4.25,4.25,0,0,1,1.63-1.57,4.94,4.94,0,0,1,2.39-.58,4.51,4.51,0,0,1,1.6.27,4.14,4.14,0,0,1,1.25.72,3.44,3.44,0,0,1,.83,1,2.64,2.64,0,0,1,.3,1.21,1.56,1.56,0,0,1-.43,1.27,1.66,1.66,0,0,1-1,.33h-6a2.61,2.61,0,0,0,.5,1.73A3.62,3.62,0,0,0,226.26,12a3.84,3.84,0,0,0,1.66.39,6.65,6.65,0,0,0,1-.06,3.64,3.64,0,0,0,.7-.16,4.42,4.42,0,0,0,.51-.21l.38-.21a1.91,1.91,0,0,1,.32-.16.73.73,0,0,1,.22,0,.22.22,0,0,1,.18.11,1,1,0,0,1,.13.24.56.56,0,0,1,0,.23c0,.12-.15.27-.46.47a5.18,5.18,0,0,1-1.23.53A5.88,5.88,0,0,1,227.94,13.34Zm-3.55-5.13h5.66a1.55,1.55,0,0,0,.59-.09c.14,0,.21-.24.21-.56a1.88,1.88,0,0,0-.39-1.15,2.72,2.72,0,0,0-1.06-.84,3.37,3.37,0,0,0-1.52-.33,4.07,4.07,0,0,0-1.75.38,3.3,3.3,0,0,0-1.29,1.06A2.55,2.55,0,0,0,224.39,8.21Z"/><path class="cls-1" d="M242.15,13.3a4.08,4.08,0,0,1-1-.11,2.35,2.35,0,0,1-.75-.35,2.1,2.1,0,0,1-.54-.57,2.56,2.56,0,0,1-.32-.79,4.53,4.53,0,0,1-.11-1V.59a1,1,0,0,1,.05-.35.3.3,0,0,1,.17-.18A.73.73,0,0,1,240,0a1,1,0,0,1,.33.05.31.31,0,0,1,.18.16.7.7,0,0,1,.06.32v10a2.65,2.65,0,0,0,.09.73,1.21,1.21,0,0,0,.3.53,1.1,1.1,0,0,0,.49.32,2,2,0,0,0,.67.11.81.81,0,0,1,.35.05.29.29,0,0,1,.19.17,1.11,1.11,0,0,1,0,.66.32.32,0,0,1-.19.17A1,1,0,0,1,242.15,13.3Z"/><path class="cls-1" d="M253,13.28a.49.49,0,0,1-.38-.13,1.09,1.09,0,0,1-.15-.5V11.38a4.49,4.49,0,0,1-.65.81,3.94,3.94,0,0,1-2.88,1.11A4.17,4.17,0,0,1,245.8,12a4.65,4.65,0,0,1-.92-1.45,4.84,4.84,0,0,1-.33-1.8A4.57,4.57,0,0,1,244.88,7a4.47,4.47,0,0,1,2.32-2.39,4,4,0,0,1,1.7-.35,4.66,4.66,0,0,1,1.53.22,4.22,4.22,0,0,1,1.12.63,5.56,5.56,0,0,1,.88.93V4.94a.94.94,0,0,1,.12-.54.52.52,0,0,1,.43-.16.61.61,0,0,1,.3.06.4.4,0,0,1,.15.22,1.5,1.5,0,0,1,0,.42v7.71a1.18,1.18,0,0,1,0,.37.3.3,0,0,1-.16.2A.68.68,0,0,1,253,13.28Zm-3.85-1a3,3,0,0,0,1.65-.46,3.36,3.36,0,0,0,1.18-1.27,3.74,3.74,0,0,0,.43-1.82,3.76,3.76,0,0,0-.45-1.88,3.46,3.46,0,0,0-1.21-1.25,3.22,3.22,0,0,0-1.64-.44,3.51,3.51,0,0,0-1.83.47A3.38,3.38,0,0,0,246,6.94a3.87,3.87,0,0,0-.44,1.86,3.69,3.69,0,0,0,.44,1.8,3.24,3.24,0,0,0,1.23,1.26A3.73,3.73,0,0,0,249.11,12.31Z"/><path class="cls-1" d="M262.2,13.28a.68.68,0,0,1-.31-.06.29.29,0,0,1-.16-.18,1,1,0,0,1-.05-.33v-8a.72.72,0,0,1,.05-.29.33.33,0,0,1,.17-.16,1,1,0,0,1,.32,0,.52.52,0,0,1,.38.11.56.56,0,0,1,.11.38V5.87a2.13,2.13,0,0,1,.48-.7,3.15,3.15,0,0,1,.72-.52,3.65,3.65,0,0,1,.82-.34,3.51,3.51,0,0,1,.83-.11,2.88,2.88,0,0,1,1.23.26,3,3,0,0,1,.95.75,4.32,4.32,0,0,1,.71,1.19,6.85,6.85,0,0,1,.88-1.24,2.69,2.69,0,0,1,1-.72,3.15,3.15,0,0,1,1.26-.24,3,3,0,0,1,1.8.53,3.29,3.29,0,0,1,1.07,1.48,6.36,6.36,0,0,1,.36,2.25v4.27a.76.76,0,0,1-.05.33.27.27,0,0,1-.16.17.85.85,0,0,1-.32,0,.75.75,0,0,1-.33-.06.28.28,0,0,1-.17-.18.76.76,0,0,1-.05-.33V8.44a5.41,5.41,0,0,0-.24-1.7,2.42,2.42,0,0,0-.71-1.14,1.8,1.8,0,0,0-1.24-.41,2.49,2.49,0,0,0-1.42.41,2.76,2.76,0,0,0-1,1.14,3.77,3.77,0,0,0-.36,1.7v4.31a.61.61,0,0,1-.12.39.56.56,0,0,1-.31.17.53.53,0,0,1-.33-.05.49.49,0,0,1-.19-.1.32.32,0,0,1-.1-.18,1.12,1.12,0,0,1,0-.27V8.44a5.41,5.41,0,0,0-.24-1.7,2.5,2.5,0,0,0-.71-1.14,1.8,1.8,0,0,0-1.24-.41,2.46,2.46,0,0,0-1.42.41,2.76,2.76,0,0,0-1,1.14,3.77,3.77,0,0,0-.36,1.7v4.29a1,1,0,0,1-.05.33.29.29,0,0,1-.17.17A1,1,0,0,1,262.2,13.28Z"/><path class="cls-1" d="M282,13.34A5.36,5.36,0,0,1,280.1,13a4.27,4.27,0,0,1-2.44-2.46,5,5,0,0,1-.34-1.9,4.24,4.24,0,0,1,2.22-3.79,5,5,0,0,1,2.4-.58,4.5,4.5,0,0,1,1.59.27,4.32,4.32,0,0,1,1.26.72,3.41,3.41,0,0,1,.82,1,2.64,2.64,0,0,1,.3,1.21,1.53,1.53,0,0,1-.43,1.27,1.63,1.63,0,0,1-1,.33h-6a2.61,2.61,0,0,0,.5,1.73A3.62,3.62,0,0,0,280.33,12a3.87,3.87,0,0,0,1.66.39,6.65,6.65,0,0,0,1-.06,3.76,3.76,0,0,0,.71-.16,5,5,0,0,0,.5-.21l.38-.21a1.91,1.91,0,0,1,.32-.16.78.78,0,0,1,.22,0,.22.22,0,0,1,.18.11,1,1,0,0,1,.14.24.8.8,0,0,1,0,.23c0,.12-.15.27-.45.47a5.47,5.47,0,0,1-1.24.53A5.83,5.83,0,0,1,282,13.34Zm-3.55-5.13h5.66a1.52,1.52,0,0,0,.59-.09c.14,0,.21-.24.21-.56a1.88,1.88,0,0,0-.39-1.15,2.76,2.76,0,0,0-1-.84A3.4,3.4,0,0,0,282,5.24a4.12,4.12,0,0,0-1.76.38,3.19,3.19,0,0,0-1.28,1.06A2.49,2.49,0,0,0,278.46,8.21Z"/><path class="cls-1" d="M291.36,13.36a4.46,4.46,0,0,1-.88-.09,4.75,4.75,0,0,1-.86-.25,3.77,3.77,0,0,1-.75-.38,1.75,1.75,0,0,1-.74-.8.31.31,0,0,1,0-.25.44.44,0,0,1,.18-.21.46.46,0,0,1,.4-.19,1.24,1.24,0,0,1,.5.36,1.69,1.69,0,0,0,.43.35,3.77,3.77,0,0,0,.57.28,4.63,4.63,0,0,0,.61.17,2.91,2.91,0,0,0,.57.06,3.13,3.13,0,0,0,1.69-.41,1.26,1.26,0,0,0,.65-1.11,1.44,1.44,0,0,0-.14-.64,1.16,1.16,0,0,0-.36-.46,2.46,2.46,0,0,0-.52-.34,4.91,4.91,0,0,0-.65-.24l-.71-.2q-.52-.13-1-.3a4.24,4.24,0,0,1-.94-.41,2,2,0,0,1-.68-.64,1.89,1.89,0,0,1-.25-1,2.1,2.1,0,0,1,.37-1.25,2.4,2.4,0,0,1,1-.84,3.74,3.74,0,0,1,1.54-.3,5.27,5.27,0,0,1,.82.06,3.9,3.9,0,0,1,.71.2,4.65,4.65,0,0,1,.63.32,3.57,3.57,0,0,1,.54.42.75.75,0,0,1,.25.38.5.5,0,0,1-.14.36.59.59,0,0,1-.36.22.48.48,0,0,1-.4-.18,2.77,2.77,0,0,0-.63-.48,3.7,3.7,0,0,0-.69-.28,2.92,2.92,0,0,0-.73-.09,2.57,2.57,0,0,0-1,.18,1.52,1.52,0,0,0-.67.51,1.28,1.28,0,0,0-.24.77.85.85,0,0,0,.16.54,1.3,1.3,0,0,0,.43.37,3.72,3.72,0,0,0,.63.27l.76.23,1.16.33a5,5,0,0,1,1.07.47,2.53,2.53,0,0,1,.79.77,2.3,2.3,0,0,1,.3,1.24,2.12,2.12,0,0,1-1,1.82A4.07,4.07,0,0,1,291.36,13.36Z"/><path class="cls-1" d="M305.38,13.28a.49.49,0,0,1-.38-.13,1.09,1.09,0,0,1-.15-.5V11.38a4.49,4.49,0,0,1-.65.81,3.94,3.94,0,0,1-2.88,1.11,4.17,4.17,0,0,1-3.1-1.33,4.65,4.65,0,0,1-.92-1.45,4.84,4.84,0,0,1-.33-1.8A4.57,4.57,0,0,1,297.3,7a4.47,4.47,0,0,1,2.32-2.39,4,4,0,0,1,1.7-.35,4.66,4.66,0,0,1,1.53.22,4.22,4.22,0,0,1,1.12.63,5.56,5.56,0,0,1,.88.93V4.94A.94.94,0,0,1,305,4.4a.52.52,0,0,1,.43-.16.61.61,0,0,1,.3.06.4.4,0,0,1,.15.22,1.5,1.5,0,0,1,0,.42v7.71a1.18,1.18,0,0,1,0,.37.3.3,0,0,1-.16.2A.68.68,0,0,1,305.38,13.28Zm-3.85-1a3,3,0,0,0,1.65-.46,3.36,3.36,0,0,0,1.18-1.27,3.74,3.74,0,0,0,.43-1.82,3.76,3.76,0,0,0-.45-1.88,3.46,3.46,0,0,0-1.21-1.25,3.22,3.22,0,0,0-1.64-.44,3.51,3.51,0,0,0-1.83.47,3.38,3.38,0,0,0-1.21,1.28A3.87,3.87,0,0,0,298,8.8a3.69,3.69,0,0,0,.44,1.8,3.24,3.24,0,0,0,1.23,1.26A3.73,3.73,0,0,0,301.53,12.31Z"/><path class="cls-1" d="M309,14.38a.22.22,0,0,1-.09-.08.37.37,0,0,1,0-.2.42.42,0,0,1,.13-.33.8.8,0,0,0,.38-.62.89.89,0,0,1-.21-.06A.55.55,0,0,1,309,13a.44.44,0,0,1-.11-.25c0-.1,0-.2,0-.3a2,2,0,0,1,0-.36.42.42,0,0,1,.18-.26.92.92,0,0,1,.51-.11.79.79,0,0,1,.59.18.39.39,0,0,1,.12.24c0,.1,0,.21,0,.32v.16a.77.77,0,0,1,0,.15,2.51,2.51,0,0,1-.22.8,1.79,1.79,0,0,1-.46.61A.94.94,0,0,1,309,14.38Z"/><path class="cls-1" d="M17.67,36.28a.61.61,0,0,1-.3-.06A.3.3,0,0,1,17.2,36a1,1,0,0,1,0-.33v-8a.75.75,0,0,1,0-.29.36.36,0,0,1,.18-.16.9.9,0,0,1,.31,0,.51.51,0,0,1,.38.11.56.56,0,0,1,.11.38v1.14a2.16,2.16,0,0,1,.49-.7,3.09,3.09,0,0,1,.71-.52,3.72,3.72,0,0,1,.83-.34A3.43,3.43,0,0,1,21,27.2a2.85,2.85,0,0,1,1.23.26,3.13,3.13,0,0,1,1,.75,4.3,4.3,0,0,1,.7,1.19,7.38,7.38,0,0,1,.88-1.24,2.77,2.77,0,0,1,1-.72,3.18,3.18,0,0,1,1.26-.24,2.94,2.94,0,0,1,1.8.53,3.29,3.29,0,0,1,1.07,1.48,6.36,6.36,0,0,1,.36,2.25v4.27a1,1,0,0,1,0,.33.3.3,0,0,1-.16.17,1,1,0,0,1-.33.05.75.75,0,0,1-.33-.06.28.28,0,0,1-.17-.18,1,1,0,0,1-.05-.33V31.44a5.41,5.41,0,0,0-.24-1.7,2.35,2.35,0,0,0-.71-1.14A1.78,1.78,0,0,0,27,28.19a2.52,2.52,0,0,0-1.43.41,2.76,2.76,0,0,0-1,1.14,3.77,3.77,0,0,0-.36,1.7v4.31a.61.61,0,0,1-.12.39.51.51,0,0,1-.3.17.56.56,0,0,1-.34-.05.57.57,0,0,1-.19-.1.4.4,0,0,1-.1-.18,1.12,1.12,0,0,1,0-.27V31.44a5.41,5.41,0,0,0-.24-1.7,2.42,2.42,0,0,0-.71-1.14A1.79,1.79,0,0,0,21,28.19a2.5,2.5,0,0,0-1.43.41,2.76,2.76,0,0,0-1,1.14,3.77,3.77,0,0,0-.36,1.7v4.29a.76.76,0,0,1,0,.33.29.29,0,0,1-.17.17A1,1,0,0,1,17.67,36.28Z"/><path class="cls-1" d="M41.21,36.28a.47.47,0,0,1-.38-.13.89.89,0,0,1-.15-.5V34.38a4.19,4.19,0,0,1-.66.81,3.92,3.92,0,0,1-1.16.78,4,4,0,0,1-1.72.33A4.18,4.18,0,0,1,35.43,36a4.23,4.23,0,0,1-1.38-1,4.48,4.48,0,0,1-.92-1.45,4.65,4.65,0,0,1-.34-1.8,4.5,4.5,0,0,1,2.65-4.13,4.08,4.08,0,0,1,1.7-.35,4.58,4.58,0,0,1,1.53.22,4.12,4.12,0,0,1,1.13.63,6,6,0,0,1,.88.93V27.94a.94.94,0,0,1,.12-.54.5.5,0,0,1,.43-.16.57.57,0,0,1,.29.06.47.47,0,0,1,.16.22,1.56,1.56,0,0,1,0,.42v7.71a1.22,1.22,0,0,1,0,.37.32.32,0,0,1-.17.2A.61.61,0,0,1,41.21,36.28Zm-3.86-1A3.08,3.08,0,0,0,39,34.85a3.34,3.34,0,0,0,1.17-1.27,3.63,3.63,0,0,0,.44-1.82,3.76,3.76,0,0,0-.45-1.88A3.46,3.46,0,0,0,39,28.63a3.22,3.22,0,0,0-1.64-.44,3.51,3.51,0,0,0-1.83.47,3.38,3.38,0,0,0-1.21,1.28,3.76,3.76,0,0,0-.44,1.86,3.58,3.58,0,0,0,.44,1.8,3.24,3.24,0,0,0,1.23,1.26A3.69,3.69,0,0,0,37.35,35.31Z"/><path class="cls-1" d="M45.2,36.28a.61.61,0,0,1-.3-.06.3.3,0,0,1-.17-.18,1,1,0,0,1,0-.33v-8a.75.75,0,0,1,0-.29.36.36,0,0,1,.18-.16.9.9,0,0,1,.31,0,.8.8,0,0,1,.23,0,.29.29,0,0,1,.23.23.8.8,0,0,1,0,.23v1.12a7.88,7.88,0,0,1,.55-.62,5.14,5.14,0,0,1,.68-.53,3.21,3.21,0,0,1,.82-.37,3.39,3.39,0,0,1,1-.13,4.1,4.1,0,0,1,1.51.27,3.46,3.46,0,0,1,1.21.8,3.67,3.67,0,0,1,.8,1.27,4.89,4.89,0,0,1,.28,1.72v4.47a1,1,0,0,1,0,.33.31.31,0,0,1-.17.17.85.85,0,0,1-.32.05.75.75,0,0,1-.33-.06.28.28,0,0,1-.17-.18,1,1,0,0,1-.05-.33V31.25a4,4,0,0,0-.3-1.62,2.33,2.33,0,0,0-.92-1.06,2.76,2.76,0,0,0-1.53-.38,3.06,3.06,0,0,0-1.58.38,2.51,2.51,0,0,0-1,1.06,3.46,3.46,0,0,0-.36,1.62v4.48a.76.76,0,0,1,0,.33.29.29,0,0,1-.17.17A1,1,0,0,1,45.2,36.28Z"/><path class="cls-1" d="M55.33,27.48l1.69,0,2.64,0a1,1,0,0,1,.33.05.35.35,0,0,1,.18.16.68.68,0,0,1,.06.31,1,1,0,0,1,0,.33.27.27,0,0,1-.16.17.89.89,0,0,1-.32.05l-2.68,0-1.73,0a.54.54,0,0,1-.42-.13.64.64,0,0,1-.11-.42.49.49,0,0,1,.13-.4A.64.64,0,0,1,55.33,27.48Zm4.22,8.82a5.84,5.84,0,0,1-1.44-.15,2.15,2.15,0,0,1-.94-.48,1.73,1.73,0,0,1-.51-.86,5.11,5.11,0,0,1-.15-1.34V24.73a1.08,1.08,0,0,1,0-.35.29.29,0,0,1,.16-.18.68.68,0,0,1,.31-.06,1,1,0,0,1,.33.05.31.31,0,0,1,.18.16.67.67,0,0,1,.06.32v8.84a3.46,3.46,0,0,0,.1.94A1,1,0,0,0,58,35a1.18,1.18,0,0,0,.59.22,8,8,0,0,0,.92.05,1.08,1.08,0,0,1,.35,0,.4.4,0,0,1,.18.16.75.75,0,0,1,.06.33.7.7,0,0,1-.06.32.31.31,0,0,1-.18.16A1,1,0,0,1,59.55,36.3Z"/><path class="cls-1" d="M66.75,36.34A5.28,5.28,0,0,1,64.84,36a4.24,4.24,0,0,1-2.45-2.46,5.22,5.22,0,0,1-.34-1.9,4.22,4.22,0,0,1,2.23-3.79,4.89,4.89,0,0,1,2.39-.58,4.59,4.59,0,0,1,1.6.27,4.14,4.14,0,0,1,1.25.72,3.6,3.6,0,0,1,.83,1,2.76,2.76,0,0,1,.29,1.21,1.53,1.53,0,0,1-.43,1.27,1.63,1.63,0,0,1-1,.33h-6a2.67,2.67,0,0,0,.51,1.73A3.59,3.59,0,0,0,65.06,35a3.92,3.92,0,0,0,1.67.39,6.85,6.85,0,0,0,1-.06,3.83,3.83,0,0,0,.7-.16,4.2,4.2,0,0,0,.5-.21l.38-.21a2,2,0,0,1,.33-.16.66.66,0,0,1,.21,0,.19.19,0,0,1,.18.11,1,1,0,0,1,.14.24.79.79,0,0,1,0,.23c0,.12-.16.27-.46.47a5.28,5.28,0,0,1-1.24.53A5.77,5.77,0,0,1,66.75,36.34Zm-3.56-5.13h5.66a1.52,1.52,0,0,0,.59-.09c.14-.05.21-.24.21-.56a1.88,1.88,0,0,0-.39-1.15,2.76,2.76,0,0,0-1.05-.84,3.4,3.4,0,0,0-1.52-.33,4.12,4.12,0,0,0-1.76.38,3.26,3.26,0,0,0-1.28,1.06A2.49,2.49,0,0,0,63.19,31.21Z"/><path class="cls-1" d="M73.74,36.28a.68.68,0,0,1-.31-.06.29.29,0,0,1-.16-.18,1,1,0,0,1,0-.33v-8a.72.72,0,0,1,0-.29.33.33,0,0,1,.17-.16,1,1,0,0,1,.32,0,.73.73,0,0,1,.22,0,.27.27,0,0,1,.16.08.36.36,0,0,1,.08.15.8.8,0,0,1,0,.23v1.12a7.88,7.88,0,0,1,.55-.62,4.56,4.56,0,0,1,.68-.53,3.15,3.15,0,0,1,.81-.37,3.46,3.46,0,0,1,1-.13,4.1,4.1,0,0,1,1.51.27,3.55,3.55,0,0,1,1.21.8,3.67,3.67,0,0,1,.8,1.27,4.89,4.89,0,0,1,.28,1.72v4.47a1,1,0,0,1,0,.33.27.27,0,0,1-.16.17.85.85,0,0,1-.32.05.75.75,0,0,1-.33-.06.29.29,0,0,1-.18-.18,1,1,0,0,1,0-.33V31.25a3.87,3.87,0,0,0-.31-1.62,2.25,2.25,0,0,0-.91-1.06,2.79,2.79,0,0,0-1.54-.38,3,3,0,0,0-1.57.38,2.51,2.51,0,0,0-1,1.06,3.46,3.46,0,0,0-.36,1.62v4.48a1,1,0,0,1-.05.33.29.29,0,0,1-.17.17A1,1,0,0,1,73.74,36.28Z"/><path class="cls-1" d="M84.66,24.5a.85.85,0,0,1-.42-.08.42.42,0,0,1-.21-.24,1.13,1.13,0,0,1-.07-.44,1,1,0,0,1,.07-.42.43.43,0,0,1,.22-.22,1.27,1.27,0,0,1,.43-.06,1,1,0,0,1,.42.07.51.51,0,0,1,.22.24,1.36,1.36,0,0,1,.06.45,1.22,1.22,0,0,1-.06.41.43.43,0,0,1-.22.22A1,1,0,0,1,84.66,24.5Zm0,11.8a.71.71,0,0,1-.31-.06.3.3,0,0,1-.17-.18,1,1,0,0,1-.05-.33V27.79a1,1,0,0,1,.05-.33.3.3,0,0,1,.17-.18,1,1,0,0,1,.33,0,.85.85,0,0,1,.32.05.37.37,0,0,1,.17.18,1.15,1.15,0,0,1,0,.36v7.92a1,1,0,0,1,0,.33.31.31,0,0,1-.17.17A1.06,1.06,0,0,1,84.66,36.3Z"/><path class="cls-1" d="M92.57,36.34A5.28,5.28,0,0,1,90.66,36a4.33,4.33,0,0,1-1.48-1,4.16,4.16,0,0,1-1-1.49,5,5,0,0,1-.35-1.9,4.22,4.22,0,0,1,2.23-3.79,4.89,4.89,0,0,1,2.39-.58,4.59,4.59,0,0,1,1.6.27,4.14,4.14,0,0,1,1.25.72,3.6,3.6,0,0,1,.83,1,2.76,2.76,0,0,1,.29,1.21A1.53,1.53,0,0,1,96,31.79a1.63,1.63,0,0,1-1,.33H89a2.67,2.67,0,0,0,.51,1.73A3.55,3.55,0,0,0,90.89,35a3.84,3.84,0,0,0,1.66.39,6.85,6.85,0,0,0,1-.06,3.83,3.83,0,0,0,.7-.16,4.2,4.2,0,0,0,.5-.21l.38-.21a2,2,0,0,1,.33-.16.69.69,0,0,1,.22,0,.22.22,0,0,1,.18.11,1.47,1.47,0,0,1,.13.24.79.79,0,0,1,0,.23c0,.12-.16.27-.46.47a5.37,5.37,0,0,1-1.23.53A5.88,5.88,0,0,1,92.57,36.34ZM89,31.21h5.67a1.46,1.46,0,0,0,.58-.09c.14-.05.21-.24.21-.56a1.88,1.88,0,0,0-.39-1.15,2.76,2.76,0,0,0-1-.84,3.37,3.37,0,0,0-1.52-.33,4.15,4.15,0,0,0-1.76.38,3.26,3.26,0,0,0-1.28,1.06A2.49,2.49,0,0,0,89,31.21Z"/><path class="cls-1" d="M99.56,36.28a.68.68,0,0,1-.31-.06.29.29,0,0,1-.16-.18,1,1,0,0,1,0-.33v-8a.75.75,0,0,1,0-.29.33.33,0,0,1,.17-.16,1,1,0,0,1,.32,0,.8.8,0,0,1,.23,0,.28.28,0,0,1,.15.08.36.36,0,0,1,.08.15.8.8,0,0,1,0,.23v1.12a7.88,7.88,0,0,1,.55-.62,5.14,5.14,0,0,1,.68-.53,3.15,3.15,0,0,1,.81-.37,3.46,3.46,0,0,1,1-.13,4.1,4.1,0,0,1,1.51.27,3.55,3.55,0,0,1,1.21.8,3.67,3.67,0,0,1,.8,1.27,4.89,4.89,0,0,1,.28,1.72v4.47a.76.76,0,0,1,0,.33.27.27,0,0,1-.16.17.85.85,0,0,1-.32.05.75.75,0,0,1-.33-.06.26.26,0,0,1-.17-.18.76.76,0,0,1,0-.33V31.25a3.87,3.87,0,0,0-.31-1.62,2.25,2.25,0,0,0-.91-1.06,2.79,2.79,0,0,0-1.54-.38,3,3,0,0,0-1.57.38,2.51,2.51,0,0,0-1,1.06,3.46,3.46,0,0,0-.36,1.62v4.48a1,1,0,0,1,0,.33.29.29,0,0,1-.17.17A1,1,0,0,1,99.56,36.28Z"/><path class="cls-1" d="M113.79,36.3a4.28,4.28,0,0,1-1.64-.32,3.94,3.94,0,0,1-1.34-.93,4.49,4.49,0,0,1-.9-1.46,5.28,5.28,0,0,1-.32-1.87,5.09,5.09,0,0,1,.32-1.83,4.46,4.46,0,0,1,.9-1.43,3.91,3.91,0,0,1,1.34-.92,4.28,4.28,0,0,1,1.64-.32,4.53,4.53,0,0,1,1.71.32,4,4,0,0,1,1.35.93,4.34,4.34,0,0,1,.88,1.45,5.54,5.54,0,0,1,0,3.71,4.25,4.25,0,0,1-.88,1.43,4.1,4.1,0,0,1-1.35.92A4.53,4.53,0,0,1,113.79,36.3Zm.17-1a3.15,3.15,0,0,0,2.87-1.68,3.73,3.73,0,0,0,.44-1.83,3.82,3.82,0,0,0-.44-1.86,3.2,3.2,0,0,0-2.87-1.7,3.26,3.26,0,0,0-1.69.45,3.14,3.14,0,0,0-1.2,1.25,3.81,3.81,0,0,0-.43,1.86,3.72,3.72,0,0,0,.43,1.83,3.18,3.18,0,0,0,1.2,1.24A3.35,3.35,0,0,0,114,35.29Zm3.91,1a.58.58,0,0,1-.42-.13.61.61,0,0,1-.13-.44V23.63a1,1,0,0,1,.05-.35.32.32,0,0,1,.17-.19.91.91,0,0,1,.31-.05,1,1,0,0,1,.33.05.4.4,0,0,1,.17.19.75.75,0,0,1,.06.33v12.1a1.06,1.06,0,0,1,0,.34.31.31,0,0,1-.16.19A.75.75,0,0,1,117.87,36.3Z"/><path class="cls-1" d="M125.46,36.38a4.48,4.48,0,0,1-1.79-.37,4.79,4.79,0,0,1-1.47-1,4.51,4.51,0,0,1-1-1.47,4.42,4.42,0,0,1-.36-1.78,4.62,4.62,0,0,1,.35-1.8,4.39,4.39,0,0,1,1-1.46,4.48,4.48,0,0,1,3.24-1.34,4.49,4.49,0,0,1,2.3.6,4.55,4.55,0,0,1,1.63,1.63,4.5,4.5,0,0,1,.61,2.35,4.69,4.69,0,0,1-.35,1.82,4.76,4.76,0,0,1-1,1.47,4.46,4.46,0,0,1-1.44,1A4.24,4.24,0,0,1,125.46,36.38Zm0-1a3.35,3.35,0,0,0,1.76-.48,3.6,3.6,0,0,0,1.25-1.32,3.89,3.89,0,0,0,0-3.65,3.33,3.33,0,0,0-1.25-1.25,3.52,3.52,0,0,0-1.79-.44,3.45,3.45,0,0,0-1.78.46,3.51,3.51,0,0,0-1.25,1.26,3.56,3.56,0,0,0-.47,1.81,3.65,3.65,0,0,0,.47,1.84,3.41,3.41,0,0,0,3,1.77Z"/><path class="cls-1" d="M140.18,36.3a4.08,4.08,0,0,1-1-.11,2.35,2.35,0,0,1-.75-.35,1.84,1.84,0,0,1-.54-.57,2.34,2.34,0,0,1-.32-.79,4.53,4.53,0,0,1-.11-1V23.59a1,1,0,0,1,.05-.35.3.3,0,0,1,.17-.18A.71.71,0,0,1,138,23a1.06,1.06,0,0,1,.34.05.31.31,0,0,1,.18.16.89.89,0,0,1,0,.32v10a2.63,2.63,0,0,0,.1.73,1.3,1.3,0,0,0,.29.53,1.2,1.2,0,0,0,.5.32,2,2,0,0,0,.67.11.84.84,0,0,1,.35,0,.28.28,0,0,1,.18.17.94.94,0,0,1,0,.66.3.3,0,0,1-.18.17A1,1,0,0,1,140.18,36.3Z"/><path class="cls-1" d="M147.1,36.38a4.48,4.48,0,0,1-1.79-.37,4.79,4.79,0,0,1-1.47-1,4.51,4.51,0,0,1-1-1.47,4.42,4.42,0,0,1-.36-1.78,4.62,4.62,0,0,1,.35-1.8,4.39,4.39,0,0,1,1-1.46,4.48,4.48,0,0,1,3.24-1.34,4.49,4.49,0,0,1,4.54,4.58,4.69,4.69,0,0,1-.35,1.82,4.76,4.76,0,0,1-1,1.47,4.46,4.46,0,0,1-1.44,1A4.24,4.24,0,0,1,147.1,36.38Zm0-1a3.35,3.35,0,0,0,1.76-.48,3.6,3.6,0,0,0,1.25-1.32,3.89,3.89,0,0,0,0-3.65,3.33,3.33,0,0,0-1.25-1.25,3.52,3.52,0,0,0-1.79-.44,3.45,3.45,0,0,0-1.78.46A3.51,3.51,0,0,0,144,29.93a3.56,3.56,0,0,0-.47,1.81,3.65,3.65,0,0,0,.47,1.84,3.41,3.41,0,0,0,3.05,1.77Z"/><path class="cls-1" d="M157,36.36a4.56,4.56,0,0,1-.89-.09,4.89,4.89,0,0,1-.85-.25,3.77,3.77,0,0,1-.75-.38,2,2,0,0,1-.55-.48,1.46,1.46,0,0,1-.19-.32.31.31,0,0,1,0-.25.44.44,0,0,1,.18-.21.46.46,0,0,1,.4-.19,1.23,1.23,0,0,1,.49.36,1.74,1.74,0,0,0,.44.35,3.35,3.35,0,0,0,.57.28,4.24,4.24,0,0,0,.61.17,2.91,2.91,0,0,0,.57.06,3.16,3.16,0,0,0,1.69-.41,1.25,1.25,0,0,0,.64-1.11,1.44,1.44,0,0,0-.13-.64,1.37,1.37,0,0,0-.36-.46,2.75,2.75,0,0,0-.52-.34,4.91,4.91,0,0,0-.65-.24l-.71-.2c-.36-.09-.71-.19-1.06-.3a4.45,4.45,0,0,1-.94-.41,2,2,0,0,1-.67-.64,1.89,1.89,0,0,1-.26-1,2.17,2.17,0,0,1,.37-1.25,2.43,2.43,0,0,1,1-.84,3.68,3.68,0,0,1,1.54-.3,5.13,5.13,0,0,1,.81.06,3.52,3.52,0,0,1,1.34.52,3.2,3.2,0,0,1,.55.42.66.66,0,0,1,.24.38.49.49,0,0,1-.13.36.61.61,0,0,1-.36.22A.47.47,0,0,1,159,29a2.82,2.82,0,0,0-.64-.48,3.61,3.61,0,0,0-.68-.28,3,3,0,0,0-.73-.09,2.57,2.57,0,0,0-1,.18,1.55,1.55,0,0,0-.68.51,1.34,1.34,0,0,0-.23.77.85.85,0,0,0,.16.54,1.3,1.3,0,0,0,.43.37,3.29,3.29,0,0,0,.62.27L157,31l1.16.33a5.26,5.26,0,0,1,1.08.47,2.49,2.49,0,0,1,.78.77,2.21,2.21,0,0,1,.31,1.24,2.12,2.12,0,0,1-1,1.82A4.07,4.07,0,0,1,157,36.36Z"/><path class="cls-1" d="M168.74,36.3a.83.83,0,0,1-.34-.06.29.29,0,0,1-.17-.19,1.09,1.09,0,0,1,0-.34V23.61a.76.76,0,0,1,.05-.33.37.37,0,0,1,.18-.19,1.06,1.06,0,0,1,.34-.05,1,1,0,0,1,.33.05.32.32,0,0,1,.17.19,1,1,0,0,1,.05.35v5.11a5.2,5.2,0,0,1,1.2-1.08,3.21,3.21,0,0,1,1.78-.46,3.9,3.9,0,0,1,1.94.48,3.63,3.63,0,0,1,1.36,1.39,4.49,4.49,0,0,1,.5,2.19v4.47a1,1,0,0,1-.05.33.27.27,0,0,1-.16.17.89.89,0,0,1-.32.05.83.83,0,0,1-.34-.06.3.3,0,0,1-.17-.18,1,1,0,0,1,0-.33V31.25a3.87,3.87,0,0,0-.31-1.62,2.25,2.25,0,0,0-.91-1.06,2.79,2.79,0,0,0-1.54-.38,2.76,2.76,0,0,0-2.94,2.66v4.88a.75.75,0,0,1-.06.33.35.35,0,0,1-.18.18A.75.75,0,0,1,168.74,36.3Z"/><path class="cls-1" d="M182.63,36.38a4.48,4.48,0,0,1-1.79-.37,4.79,4.79,0,0,1-1.47-1,4.51,4.51,0,0,1-1-1.47,4.42,4.42,0,0,1-.36-1.78,4.62,4.62,0,0,1,.35-1.8,4.39,4.39,0,0,1,1-1.46,4.48,4.48,0,0,1,3.24-1.34,4.49,4.49,0,0,1,4.54,4.58,4.69,4.69,0,0,1-.35,1.82,4.76,4.76,0,0,1-1,1.47,4.46,4.46,0,0,1-1.44,1A4.24,4.24,0,0,1,182.63,36.38Zm0-1a3.29,3.29,0,0,0,1.75-.48,3.55,3.55,0,0,0,1.26-1.32,3.89,3.89,0,0,0,0-3.65,3.33,3.33,0,0,0-1.25-1.25,3.52,3.52,0,0,0-1.79-.44,3.45,3.45,0,0,0-1.78.46,3.51,3.51,0,0,0-1.25,1.26,3.56,3.56,0,0,0-.47,1.81,3.65,3.65,0,0,0,.47,1.84,3.41,3.41,0,0,0,3.05,1.77Z"/><path class="cls-1" d="M190.13,36.28a.61.61,0,0,1-.3-.06.26.26,0,0,1-.16-.18.76.76,0,0,1,0-.33v-8a.58.58,0,0,1,0-.29.3.3,0,0,1,.17-.16.9.9,0,0,1,.31,0,.41.41,0,0,1,.49.49v1.14a2.16,2.16,0,0,1,.49-.7,3.09,3.09,0,0,1,.71-.52,3.72,3.72,0,0,1,.83-.34,3.43,3.43,0,0,1,.82-.11,2.85,2.85,0,0,1,1.23.26,3.13,3.13,0,0,1,1,.75,4.3,4.3,0,0,1,.7,1.19,7.38,7.38,0,0,1,.88-1.24,2.77,2.77,0,0,1,1-.72,3.23,3.23,0,0,1,1.27-.24,2.92,2.92,0,0,1,1.79.53,3.22,3.22,0,0,1,1.07,1.48,6.35,6.35,0,0,1,.37,2.25v4.27a1,1,0,0,1-.05.33.3.3,0,0,1-.16.17,1,1,0,0,1-.33.05.75.75,0,0,1-.33-.06.28.28,0,0,1-.17-.18,1,1,0,0,1,0-.33V31.44a5.41,5.41,0,0,0-.24-1.7,2.35,2.35,0,0,0-.71-1.14,1.78,1.78,0,0,0-1.23-.41,2.52,2.52,0,0,0-1.43.41,2.76,2.76,0,0,0-1,1.14,3.77,3.77,0,0,0-.36,1.7v4.31a.61.61,0,0,1-.12.39.51.51,0,0,1-.3.17.56.56,0,0,1-.34-.05.57.57,0,0,1-.19-.1.4.4,0,0,1-.1-.18,1.12,1.12,0,0,1,0-.27V31.44a5.41,5.41,0,0,0-.24-1.7,2.42,2.42,0,0,0-.71-1.14,1.79,1.79,0,0,0-1.23-.41,2.5,2.5,0,0,0-1.43.41,2.76,2.76,0,0,0-1,1.14,3.77,3.77,0,0,0-.36,1.7v4.29a.76.76,0,0,1-.05.33.26.26,0,0,1-.17.17A1,1,0,0,1,190.13,36.28Z"/><path class="cls-1" d="M206.22,36.32a.71.71,0,0,1-.31-.06.39.39,0,0,1-.18-.18.75.75,0,0,1-.06-.33V23.65a1.11,1.11,0,0,1,.05-.36.33.33,0,0,1,.17-.18.91.91,0,0,1,.31-.05,1,1,0,0,1,.33.05.42.42,0,0,1,.17.18.83.83,0,0,1,.06.34v12.1a.69.69,0,0,1-.12.46A.55.55,0,0,1,206.22,36.32Zm4.07,0a4.53,4.53,0,0,1-1.71-.32,4.1,4.1,0,0,1-1.35-.92,4.25,4.25,0,0,1-.88-1.43,5.54,5.54,0,0,1,0-3.71,4.34,4.34,0,0,1,.88-1.45,4,4,0,0,1,1.35-.93,4.53,4.53,0,0,1,1.71-.32,4.22,4.22,0,0,1,1.65.32,4,4,0,0,1,1.33.92,4.46,4.46,0,0,1,.9,1.43,5.09,5.09,0,0,1,.32,1.83,5.28,5.28,0,0,1-.32,1.87,4.49,4.49,0,0,1-.9,1.46,4,4,0,0,1-1.33.93A4.22,4.22,0,0,1,210.29,36.3Zm-.17-1a3.34,3.34,0,0,0,1.7-.44A3.23,3.23,0,0,0,213,33.61a3.72,3.72,0,0,0,.43-1.83,3.81,3.81,0,0,0-.43-1.86,3.19,3.19,0,0,0-1.19-1.25,3.25,3.25,0,0,0-1.7-.45,3.2,3.2,0,0,0-2.87,1.7,3.82,3.82,0,0,0-.44,1.86,3.73,3.73,0,0,0,.44,1.83,3.23,3.23,0,0,0,1.19,1.24A3.29,3.29,0,0,0,210.12,35.29Z"/><path class="cls-1" d="M217.87,36.3a.61.61,0,0,1-.3-.06.28.28,0,0,1-.16-.19.84.84,0,0,1,0-.34V27.79a.84.84,0,0,1,0-.35.25.25,0,0,1,.16-.17,1.27,1.27,0,0,1,.32,0,1.3,1.3,0,0,1,.31,0,.26.26,0,0,1,.18.17.82.82,0,0,1,.06.35v.8a6.06,6.06,0,0,1,.38-.59,2.05,2.05,0,0,1,.46-.47,1.87,1.87,0,0,1,.65-.31,3.4,3.4,0,0,1,1-.12,2.47,2.47,0,0,1,.56.06,3.37,3.37,0,0,1,.48.15,3,3,0,0,1,.37.21.94.94,0,0,1,.22.23.43.43,0,0,1,.08.23.54.54,0,0,1-.21.42.64.64,0,0,1-.38.17.62.62,0,0,1-.31-.07,2.39,2.39,0,0,1-.22-.16,1,1,0,0,0-.34-.16,2.49,2.49,0,0,0-.71-.07,1.88,1.88,0,0,0-.62.12,2.71,2.71,0,0,0-.66.37,2,2,0,0,0-.52.65,2,2,0,0,0-.21.95v5.55a.76.76,0,0,1-.05.33.29.29,0,0,1-.17.17A1,1,0,0,1,217.87,36.3Z"/><path class="cls-1" d="M229.16,36.38a4.48,4.48,0,0,1-1.79-.37,4.79,4.79,0,0,1-1.47-1,4.51,4.51,0,0,1-1-1.47,4.42,4.42,0,0,1-.36-1.78,4.62,4.62,0,0,1,.35-1.8,4.55,4.55,0,0,1,4.23-2.8,4.49,4.49,0,0,1,4.54,4.58,4.69,4.69,0,0,1-.35,1.82,4.76,4.76,0,0,1-1,1.47,4.46,4.46,0,0,1-1.44,1A4.24,4.24,0,0,1,229.16,36.38Zm0-1a3.35,3.35,0,0,0,1.76-.48,3.6,3.6,0,0,0,1.25-1.32,3.89,3.89,0,0,0,0-3.65,3.26,3.26,0,0,0-1.25-1.25,3.52,3.52,0,0,0-1.79-.44,3.45,3.45,0,0,0-1.78.46,3.51,3.51,0,0,0-1.25,1.26,3.56,3.56,0,0,0-.47,1.81,3.65,3.65,0,0,0,.47,1.84,3.41,3.41,0,0,0,3.05,1.77Z"/><path class="cls-1" d="M239,36.36a4.56,4.56,0,0,1-.89-.09,4.89,4.89,0,0,1-.85-.25,3.77,3.77,0,0,1-.75-.38,1.75,1.75,0,0,1-.74-.8.31.31,0,0,1,0-.25.44.44,0,0,1,.18-.21.46.46,0,0,1,.4-.19,1.23,1.23,0,0,1,.49.36,1.74,1.74,0,0,0,.44.35,3.77,3.77,0,0,0,.57.28,4.24,4.24,0,0,0,.61.17,2.91,2.91,0,0,0,.57.06,3.16,3.16,0,0,0,1.69-.41,1.25,1.25,0,0,0,.64-1.11,1.44,1.44,0,0,0-.13-.64,1.37,1.37,0,0,0-.36-.46,2.75,2.75,0,0,0-.52-.34,4.91,4.91,0,0,0-.65-.24L239,32c-.36-.09-.71-.19-1.06-.3a4.45,4.45,0,0,1-.94-.41,2,2,0,0,1-.67-.64,1.89,1.89,0,0,1-.26-1,2.17,2.17,0,0,1,.37-1.25,2.49,2.49,0,0,1,1-.84,3.68,3.68,0,0,1,1.54-.3,5.13,5.13,0,0,1,.81.06,3.79,3.79,0,0,1,.72.2,4,4,0,0,1,.62.32,3.2,3.2,0,0,1,.55.42.66.66,0,0,1,.24.38.49.49,0,0,1-.13.36.61.61,0,0,1-.36.22.47.47,0,0,1-.4-.18,2.82,2.82,0,0,0-.64-.48,3.61,3.61,0,0,0-.68-.28,3,3,0,0,0-.73-.09,2.57,2.57,0,0,0-1,.18,1.55,1.55,0,0,0-.68.51,1.34,1.34,0,0,0-.23.77.85.85,0,0,0,.16.54,1.3,1.3,0,0,0,.43.37,3.29,3.29,0,0,0,.62.27l.76.23,1.16.33a5.26,5.26,0,0,1,1.08.47,2.49,2.49,0,0,1,.78.77,2.21,2.21,0,0,1,.31,1.24,2.12,2.12,0,0,1-1,1.82A4.07,4.07,0,0,1,239,36.36Z"/><path class="cls-1" d="M251,36.3a.68.68,0,0,1-.31-.06.31.31,0,0,1-.16-.19,1.09,1.09,0,0,1,0-.34V27.79a1.08,1.08,0,0,1,0-.35.27.27,0,0,1,.16-.17,1.42,1.42,0,0,1,.33,0,1.35,1.35,0,0,1,.31,0,.3.3,0,0,1,.18.17.82.82,0,0,1,.06.35v.8a6.06,6.06,0,0,1,.38-.59,2.05,2.05,0,0,1,.46-.47,1.87,1.87,0,0,1,.65-.31,3.4,3.4,0,0,1,1-.12,2.47,2.47,0,0,1,.56.06,2.88,2.88,0,0,1,.47.15,2.43,2.43,0,0,1,.37.21.83.83,0,0,1,.23.23.43.43,0,0,1,.08.23.54.54,0,0,1-.21.42.66.66,0,0,1-.38.17.62.62,0,0,1-.31-.07,1.53,1.53,0,0,1-.22-.16,1,1,0,0,0-.34-.16,2.54,2.54,0,0,0-.71-.07,1.83,1.83,0,0,0-.62.12,2.71,2.71,0,0,0-.66.37,2,2,0,0,0-.52.65,2,2,0,0,0-.21.95v5.55a1,1,0,0,1-.05.33.29.29,0,0,1-.17.17A1,1,0,0,1,251,36.3Z"/><path class="cls-1" d="M262.41,36.34A5.28,5.28,0,0,1,260.5,36a4.24,4.24,0,0,1-2.45-2.46,5.22,5.22,0,0,1-.34-1.9,4.22,4.22,0,0,1,2.23-3.79,4.89,4.89,0,0,1,2.39-.58,4.59,4.59,0,0,1,1.6.27,4.14,4.14,0,0,1,1.25.72,3.6,3.6,0,0,1,.83,1,2.76,2.76,0,0,1,.29,1.21,1.53,1.53,0,0,1-.43,1.27,1.63,1.63,0,0,1-1,.33h-6a2.67,2.67,0,0,0,.51,1.73A3.59,3.59,0,0,0,260.72,35a3.92,3.92,0,0,0,1.67.39,6.85,6.85,0,0,0,1-.06,3.83,3.83,0,0,0,.7-.16,4.2,4.2,0,0,0,.5-.21l.38-.21a2,2,0,0,1,.33-.16.66.66,0,0,1,.21,0,.22.22,0,0,1,.19.11,1.47,1.47,0,0,1,.13.24.79.79,0,0,1,0,.23c0,.12-.16.27-.46.47a5.37,5.37,0,0,1-1.23.53A5.88,5.88,0,0,1,262.41,36.34Zm-3.56-5.13h5.67a1.46,1.46,0,0,0,.58-.09c.14-.05.21-.24.21-.56a1.88,1.88,0,0,0-.39-1.15,2.76,2.76,0,0,0-1.05-.84,3.37,3.37,0,0,0-1.52-.33,4.15,4.15,0,0,0-1.76.38,3.26,3.26,0,0,0-1.28,1.06A2.49,2.49,0,0,0,258.85,31.21Z"/><path class="cls-1" d="M271.37,36.3a4.08,4.08,0,0,1-1-.11,2.35,2.35,0,0,1-.75-.35,2.1,2.1,0,0,1-.54-.57,2.56,2.56,0,0,1-.32-.79,4.53,4.53,0,0,1-.11-1V23.59a1,1,0,0,1,.05-.35.3.3,0,0,1,.17-.18.76.76,0,0,1,.32-.06,1,1,0,0,1,.33.05.31.31,0,0,1,.18.16.7.7,0,0,1,.06.32v10a2.65,2.65,0,0,0,.09.73,1.31,1.31,0,0,0,.3.53,1.1,1.1,0,0,0,.49.32,2,2,0,0,0,.67.11.89.89,0,0,1,.36,0,.3.3,0,0,1,.18.17,1.11,1.11,0,0,1,0,.66.33.33,0,0,1-.18.17A1.06,1.06,0,0,1,271.37,36.3Z"/><path class="cls-1" d="M282.18,36.28a.49.49,0,0,1-.38-.13,1.09,1.09,0,0,1-.15-.5V34.38a4,4,0,0,1-3.53,1.92A4.17,4.17,0,0,1,275,35a4.65,4.65,0,0,1-.92-1.45,4.84,4.84,0,0,1-.33-1.8A4.57,4.57,0,0,1,274.1,30a4.47,4.47,0,0,1,2.32-2.39,4,4,0,0,1,1.7-.35,4.66,4.66,0,0,1,1.53.22,4.07,4.07,0,0,1,1.12.63,5.56,5.56,0,0,1,.88.93V27.94a.86.86,0,0,1,.13-.54.48.48,0,0,1,.42-.16.61.61,0,0,1,.3.06.4.4,0,0,1,.15.22,1.5,1.5,0,0,1,.05.42v7.71a1.18,1.18,0,0,1-.05.37.3.3,0,0,1-.16.2A.68.68,0,0,1,282.18,36.28Zm-3.85-1a3,3,0,0,0,1.65-.46,3.36,3.36,0,0,0,1.18-1.27,4,4,0,0,0,0-3.7,3.38,3.38,0,0,0-1.21-1.25,3.2,3.2,0,0,0-1.64-.44,3.47,3.47,0,0,0-1.82.47,3.41,3.41,0,0,0-1.22,1.28,3.87,3.87,0,0,0-.44,1.86,3.69,3.69,0,0,0,.44,1.8,3.24,3.24,0,0,0,1.23,1.26A3.73,3.73,0,0,0,278.33,35.31Z"/><path class="cls-1" d="M283.48,39.89a.81.81,0,0,1-.33-.06.32.32,0,0,1-.19-.17.78.78,0,0,1,0-.3.87.87,0,0,1,0-.31.4.4,0,0,1,.19-.17,1.13,1.13,0,0,1,.35-.05,5.21,5.21,0,0,0,1-.09,2,2,0,0,0,.81-.34,1.57,1.57,0,0,0,.53-.75,3.58,3.58,0,0,0,.19-1.29V27.77a.68.68,0,0,1,.06-.31.42.42,0,0,1,.18-.17.91.91,0,0,1,.31-.05.87.87,0,0,1,.31.05.45.45,0,0,1,.17.19.88.88,0,0,1,.06.35v8.49a4.64,4.64,0,0,1-.26,1.63,2.76,2.76,0,0,1-.73,1.11,2.89,2.89,0,0,1-1.14.63A5.39,5.39,0,0,1,283.48,39.89Zm3.06-15.39a.76.76,0,0,1-.56-.17.89.89,0,0,1-.15-.59.77.77,0,0,1,.15-.55.85.85,0,0,1,.57-.15.72.72,0,0,1,.56.17.89.89,0,0,1,.15.59.59.59,0,0,1-.72.7Z"/><path class="cls-1" d="M298.41,36.28a.47.47,0,0,1-.38-.13.89.89,0,0,1-.15-.5V34.38a4.19,4.19,0,0,1-.66.81,3.8,3.8,0,0,1-1.16.78,4,4,0,0,1-1.72.33A4.12,4.12,0,0,1,291.25,35a4.48,4.48,0,0,1-.92-1.45,4.65,4.65,0,0,1-.34-1.8,4.5,4.5,0,0,1,2.65-4.13,4.08,4.08,0,0,1,1.7-.35,4.58,4.58,0,0,1,1.53.22,3.92,3.92,0,0,1,1.12.63,5.62,5.62,0,0,1,.89.93V27.94a.94.94,0,0,1,.12-.54.5.5,0,0,1,.43-.16.57.57,0,0,1,.29.06.47.47,0,0,1,.16.22,1.56,1.56,0,0,1,0,.42v7.71a1.22,1.22,0,0,1,0,.37.32.32,0,0,1-.17.2A.61.61,0,0,1,298.41,36.28Zm-3.86-1a3.08,3.08,0,0,0,1.66-.46,3.34,3.34,0,0,0,1.17-1.27,3.63,3.63,0,0,0,.44-1.82,3.76,3.76,0,0,0-.45-1.88,3.46,3.46,0,0,0-1.21-1.25,3.23,3.23,0,0,0-1.65-.44,3.32,3.32,0,0,0-3,1.75A3.87,3.87,0,0,0,291,31.8a3.69,3.69,0,0,0,.43,1.8,3.33,3.33,0,0,0,1.24,1.26A3.69,3.69,0,0,0,294.55,35.31Z"/><path class="cls-1" d="M305.8,36.3a4.28,4.28,0,0,1-1.64-.32,3.94,3.94,0,0,1-1.34-.93,4.31,4.31,0,0,1-.89-1.46,5.06,5.06,0,0,1-.33-1.87,4.89,4.89,0,0,1,.33-1.83,4.27,4.27,0,0,1,.89-1.43,3.91,3.91,0,0,1,1.34-.92,4.28,4.28,0,0,1,1.64-.32,4.53,4.53,0,0,1,1.71.32,4,4,0,0,1,1.35.93,4.34,4.34,0,0,1,.88,1.45,5.54,5.54,0,0,1,0,3.71,4.25,4.25,0,0,1-.88,1.43,4.1,4.1,0,0,1-1.35.92A4.53,4.53,0,0,1,305.8,36.3Zm.17-1a3.27,3.27,0,0,0,1.69-.44,3.2,3.2,0,0,0,1.18-1.24,3.73,3.73,0,0,0,.44-1.83,3.82,3.82,0,0,0-.44-1.86,3.2,3.2,0,0,0-2.87-1.7,3.26,3.26,0,0,0-1.69.45,3.21,3.21,0,0,0-1.2,1.25,3.81,3.81,0,0,0-.43,1.86,3.72,3.72,0,0,0,.43,1.83,3.25,3.25,0,0,0,1.2,1.24A3.35,3.35,0,0,0,306,35.29Zm3.92,1a.59.59,0,0,1-.43-.13.66.66,0,0,1-.12-.44V23.63a1,1,0,0,1,0-.35.32.32,0,0,1,.17-.19,1,1,0,0,1,.32-.05.89.89,0,0,1,.32.05.35.35,0,0,1,.17.19.75.75,0,0,1,.06.33v12.1a1.06,1.06,0,0,1-.05.34.28.28,0,0,1-.16.19A.7.7,0,0,1,309.89,36.3Z"/><path class="cls-1" d="M317.47,36.38a4.48,4.48,0,0,1-1.79-.37,4.79,4.79,0,0,1-1.47-1,4.51,4.51,0,0,1-1-1.47,4.42,4.42,0,0,1-.36-1.78,4.62,4.62,0,0,1,.35-1.8,4.39,4.39,0,0,1,1-1.46,4.48,4.48,0,0,1,3.24-1.34A4.49,4.49,0,0,1,322,31.76a4.69,4.69,0,0,1-.35,1.82,4.76,4.76,0,0,1-1,1.47,4.46,4.46,0,0,1-1.44,1A4.24,4.24,0,0,1,317.47,36.38Zm0-1a3.35,3.35,0,0,0,1.76-.48,3.6,3.6,0,0,0,1.25-1.32,3.81,3.81,0,0,0,0-3.65,3.31,3.31,0,0,0-1.24-1.25,3.58,3.58,0,0,0-1.8-.44,3.45,3.45,0,0,0-1.78.46,3.51,3.51,0,0,0-1.25,1.26,3.56,3.56,0,0,0-.47,1.81,3.65,3.65,0,0,0,.47,1.84,3.41,3.41,0,0,0,3.05,1.77Z"/><path class="cls-1" d="M327.33,36.36a4.56,4.56,0,0,1-.89-.09,4.89,4.89,0,0,1-.85-.25,3.77,3.77,0,0,1-.75-.38,1.75,1.75,0,0,1-.74-.8.31.31,0,0,1,0-.25.44.44,0,0,1,.18-.21.46.46,0,0,1,.4-.19,1.23,1.23,0,0,1,.49.36,1.74,1.74,0,0,0,.44.35,3.77,3.77,0,0,0,.57.28,4.24,4.24,0,0,0,.61.17,2.91,2.91,0,0,0,.57.06A3.16,3.16,0,0,0,329,35a1.25,1.25,0,0,0,.64-1.11,1.44,1.44,0,0,0-.13-.64,1.37,1.37,0,0,0-.36-.46,2.75,2.75,0,0,0-.52-.34,4.91,4.91,0,0,0-.65-.24l-.71-.2c-.36-.09-.71-.19-1.06-.3a4.45,4.45,0,0,1-.94-.41,2.05,2.05,0,0,1-.67-.64,1.89,1.89,0,0,1-.26-1,2.17,2.17,0,0,1,.37-1.25,2.43,2.43,0,0,1,1-.84,3.71,3.71,0,0,1,1.54-.3,5.13,5.13,0,0,1,.81.06,3.79,3.79,0,0,1,.72.2,4,4,0,0,1,.62.32,3.2,3.2,0,0,1,.55.42.66.66,0,0,1,.24.38.45.45,0,0,1-.13.36.59.59,0,0,1-.36.22.47.47,0,0,1-.4-.18,2.62,2.62,0,0,0-.64-.48,3.61,3.61,0,0,0-.68-.28,3,3,0,0,0-.73-.09,2.57,2.57,0,0,0-1,.18,1.47,1.47,0,0,0-.67.51,1.28,1.28,0,0,0-.24.77.85.85,0,0,0,.16.54,1.3,1.3,0,0,0,.43.37,3.29,3.29,0,0,0,.62.27l.76.23,1.16.33a5,5,0,0,1,1.08.47,2.64,2.64,0,0,1,.79.77,2.3,2.3,0,0,1,.3,1.24,2.12,2.12,0,0,1-1,1.82A4.07,4.07,0,0,1,327.33,36.36Z"/><path class="cls-1" d="M334.05,36.3a.81.81,0,0,1-.58-.16.83.83,0,0,1-.16-.56,1.12,1.12,0,0,1,.07-.45.41.41,0,0,1,.24-.24,1.08,1.08,0,0,1,.43-.07.61.61,0,0,1,.74.74,1.25,1.25,0,0,1-.06.44.4.4,0,0,1-.23.23A1.12,1.12,0,0,1,334.05,36.3Z"/><path class="cls-1" d="M17.71,72.3a.75.75,0,0,1-.33-.06.31.31,0,0,1-.18-.19,1.09,1.09,0,0,1,0-.34V59.61a1,1,0,0,1,.05-.33.37.37,0,0,1,.18-.19,1.06,1.06,0,0,1,.34-.05,1,1,0,0,1,.33.05.32.32,0,0,1,.17.19,1,1,0,0,1,.05.35v12.1a.75.75,0,0,1-.06.33.35.35,0,0,1-.18.18A.75.75,0,0,1,17.71,72.3Z"/><path class="cls-1" d="M21.94,72.28a.67.67,0,0,1-.3-.06.26.26,0,0,1-.16-.18,1,1,0,0,1-.05-.33v-8a.72.72,0,0,1,.05-.29.33.33,0,0,1,.17-.16.93.93,0,0,1,.31,0,.75.75,0,0,1,.23,0,.22.22,0,0,1,.15.08.38.38,0,0,1,.09.15.8.8,0,0,1,0,.23v1.12a6.27,6.27,0,0,1,.55-.62,5,5,0,0,1,.67-.53,3.21,3.21,0,0,1,.82-.37,3.46,3.46,0,0,1,1-.13,4.13,4.13,0,0,1,1.51.27,3.45,3.45,0,0,1,2,2.07,4.88,4.88,0,0,1,.29,1.72v4.47a1,1,0,0,1-.05.33.27.27,0,0,1-.16.17.89.89,0,0,1-.32,0,.83.83,0,0,1-.34-.06.28.28,0,0,1-.17-.18,1,1,0,0,1,0-.33V67.25a4,4,0,0,0-.31-1.62A2.31,2.31,0,0,0,27,64.57a2.82,2.82,0,0,0-1.54-.38,3.08,3.08,0,0,0-1.58.38,2.54,2.54,0,0,0-1,1.06,3.46,3.46,0,0,0-.36,1.62v4.48a1,1,0,0,1-.05.33.29.29,0,0,1-.17.17A1.06,1.06,0,0,1,21.94,72.28Z"/><path class="cls-1" d="M36.39,72.3A5.5,5.5,0,0,1,34.48,72a4.56,4.56,0,0,1-1.5-.92,4.29,4.29,0,0,1-1-1.43,5.35,5.35,0,0,1,0-3.7A4.3,4.3,0,0,1,33,64.49a4.43,4.43,0,0,1,1.48-.93,5.23,5.23,0,0,1,1.9-.32,4,4,0,0,1,1.28.22,4.67,4.67,0,0,1,1.19.57,2.16,2.16,0,0,1,.76.78.92.92,0,0,1,.13.36.32.32,0,0,1-.1.23.82.82,0,0,1-.25.21.59.59,0,0,1-.26.08.55.55,0,0,1-.43-.27,2.27,2.27,0,0,0-.46-.47,3.48,3.48,0,0,0-1.22-.6,2.35,2.35,0,0,0-.64-.09,3.88,3.88,0,0,0-1.87.44,3,3,0,0,0-1.23,1.23,4.07,4.07,0,0,0,0,3.68,3,3,0,0,0,1.23,1.23,3.7,3.7,0,0,0,1.83.43,3.24,3.24,0,0,0,.87-.11,4.31,4.31,0,0,0,.84-.33,3,3,0,0,0,.68-.51l.26-.21a.37.37,0,0,1,.26-.09.32.32,0,0,1,.21.09,1,1,0,0,1,.22.23.32.32,0,0,1,.1.18.55.55,0,0,1,0,.22.39.39,0,0,1-.13.21,3.84,3.84,0,0,1-1,.7,5.8,5.8,0,0,1-1.16.48A4.23,4.23,0,0,1,36.39,72.3Z"/><path class="cls-1" d="M44.75,72.3a4,4,0,0,1-1-.11,2.16,2.16,0,0,1-.75-.35,2,2,0,0,1-.55-.57,2.56,2.56,0,0,1-.32-.79,4.55,4.55,0,0,1-.1-1V59.59a1.08,1.08,0,0,1,0-.35.3.3,0,0,1,.17-.18A.76.76,0,0,1,42.6,59a1,1,0,0,1,.33,0,.31.31,0,0,1,.18.16.7.7,0,0,1,.06.32v10a2.65,2.65,0,0,0,.09.73,1.31,1.31,0,0,0,.3.53,1.1,1.1,0,0,0,.49.32,2,2,0,0,0,.68.11.84.84,0,0,1,.35,0,.3.3,0,0,1,.18.17,1.11,1.11,0,0,1,0,.66.33.33,0,0,1-.18.17A1,1,0,0,1,44.75,72.3Z"/><path class="cls-1" d="M48.32,60.5a.83.83,0,0,1-.42-.08.43.43,0,0,1-.22-.24,1.35,1.35,0,0,1-.07-.44,1.14,1.14,0,0,1,.07-.42.41.41,0,0,1,.23-.22,1.27,1.27,0,0,1,.43-.06.94.94,0,0,1,.41.07.47.47,0,0,1,.22.24,1.12,1.12,0,0,1,.07.45,1,1,0,0,1-.07.41.4.4,0,0,1-.22.22A1,1,0,0,1,48.32,60.5Zm0,11.8a.76.76,0,0,1-.32-.06.3.3,0,0,1-.17-.18,1,1,0,0,1,0-.33V63.79a1,1,0,0,1,0-.33.3.3,0,0,1,.17-.18,1.09,1.09,0,0,1,.34,0,.93.93,0,0,1,.32,0,.35.35,0,0,1,.16.18,1.11,1.11,0,0,1,0,.36v7.92a1,1,0,0,1,0,.33.29.29,0,0,1-.17.17A1,1,0,0,1,48.32,72.3Z"/><path class="cls-1" d="M52.61,72.28a.61.61,0,0,1-.3-.06.26.26,0,0,1-.16-.18.76.76,0,0,1,0-.33v-8a.58.58,0,0,1,0-.29.3.3,0,0,1,.17-.16.9.9,0,0,1,.31,0,.8.8,0,0,1,.23,0,.29.29,0,0,1,.23.23.8.8,0,0,1,0,.23v1.12a6.4,6.4,0,0,1,.56-.62,4.47,4.47,0,0,1,.67-.53,3.21,3.21,0,0,1,.82-.37,3.39,3.39,0,0,1,1-.13,4.1,4.1,0,0,1,1.51.27,3.46,3.46,0,0,1,1.21.8,3.67,3.67,0,0,1,.8,1.27A4.89,4.89,0,0,1,60,67.26v4.47a1,1,0,0,1,0,.33.3.3,0,0,1-.16.17,1,1,0,0,1-.33,0,.75.75,0,0,1-.33-.06.28.28,0,0,1-.17-.18,1,1,0,0,1,0-.33V67.25a4,4,0,0,0-.3-1.62,2.37,2.37,0,0,0-.91-1.06,2.82,2.82,0,0,0-1.54-.38,3.06,3.06,0,0,0-1.58.38,2.57,2.57,0,0,0-1,1.06,3.46,3.46,0,0,0-.36,1.62v4.48a.76.76,0,0,1,0,.33.26.26,0,0,1-.17.17A1,1,0,0,1,52.61,72.28Z"/><path class="cls-1" d="M70.77,72.28a.49.49,0,0,1-.38-.13,1.09,1.09,0,0,1-.15-.5V70.38a4.49,4.49,0,0,1-.65.81,3.94,3.94,0,0,1-2.88,1.11A4.17,4.17,0,0,1,63.61,71a4.65,4.65,0,0,1-.92-1.45,4.84,4.84,0,0,1-.33-1.8A4.57,4.57,0,0,1,62.69,66,4.47,4.47,0,0,1,65,63.59a4,4,0,0,1,1.7-.35,4.66,4.66,0,0,1,1.53.22,4.07,4.07,0,0,1,1.12.63,5.56,5.56,0,0,1,.88.93V63.94a.86.86,0,0,1,.13-.54.48.48,0,0,1,.42-.16.61.61,0,0,1,.3.06.4.4,0,0,1,.15.22,1.5,1.5,0,0,1,.05.42v7.71a1.18,1.18,0,0,1-.05.37.3.3,0,0,1-.16.2A.68.68,0,0,1,70.77,72.28Zm-3.85-1a3,3,0,0,0,1.65-.46,3.36,3.36,0,0,0,1.18-1.27,4,4,0,0,0,0-3.7,3.38,3.38,0,0,0-1.21-1.25,3.22,3.22,0,0,0-1.64-.44,3.45,3.45,0,0,0-1.82.47,3.41,3.41,0,0,0-1.22,1.28,3.87,3.87,0,0,0-.44,1.86,3.69,3.69,0,0,0,.44,1.8,3.24,3.24,0,0,0,1.23,1.26A3.73,3.73,0,0,0,66.92,71.31Z"/><path class="cls-1" d="M74.76,72.3a.67.67,0,0,1-.3-.06.28.28,0,0,1-.16-.19,1.06,1.06,0,0,1,0-.34V63.79a1,1,0,0,1,0-.35.25.25,0,0,1,.16-.17,1.33,1.33,0,0,1,.32,0,1.45,1.45,0,0,1,.32,0,.3.3,0,0,1,.18.17,1,1,0,0,1,0,.35v.8c.13-.22.26-.42.38-.59a2.05,2.05,0,0,1,.46-.47,2,2,0,0,1,.66-.31,3.33,3.33,0,0,1,1-.12,2.4,2.4,0,0,1,.56.06,3,3,0,0,1,.48.15,2.43,2.43,0,0,1,.37.21,1,1,0,0,1,.23.23.41.41,0,0,1,.07.23.54.54,0,0,1-.21.42.61.61,0,0,1-.37.17.66.66,0,0,1-.32-.07,2.39,2.39,0,0,1-.22-.16.9.9,0,0,0-.34-.16,2.46,2.46,0,0,0-.7-.07,1.93,1.93,0,0,0-.63.12,2.48,2.48,0,0,0-.65.37,2,2,0,0,0-.74,1.6v5.55a1,1,0,0,1,0,.33.29.29,0,0,1-.17.17A1.11,1.11,0,0,1,74.76,72.3Z"/><path class="cls-1" d="M89.83,72.3a4.08,4.08,0,0,1-1-.11,2.35,2.35,0,0,1-.75-.35,2,2,0,0,1-.54-.57,2.34,2.34,0,0,1-.32-.79,4.53,4.53,0,0,1-.11-1V59.59a1,1,0,0,1,0-.35.3.3,0,0,1,.17-.18.71.71,0,0,1,.31-.06,1.06,1.06,0,0,1,.34,0,.31.31,0,0,1,.18.16.89.89,0,0,1,0,.32v10a2.63,2.63,0,0,0,.1.73,1.3,1.3,0,0,0,.29.53,1.2,1.2,0,0,0,.5.32,2,2,0,0,0,.67.11.84.84,0,0,1,.35,0,.26.26,0,0,1,.18.17.94.94,0,0,1,0,.66.28.28,0,0,1-.18.17A1,1,0,0,1,89.83,72.3Z"/><path class="cls-1" d="M93.4,60.5a.81.81,0,0,1-.41-.08.4.4,0,0,1-.22-.24,1.13,1.13,0,0,1-.07-.44,1,1,0,0,1,.07-.42A.43.43,0,0,1,93,59.1a1.27,1.27,0,0,1,.43-.06,1,1,0,0,1,.42.07.51.51,0,0,1,.22.24,1.32,1.32,0,0,1,.07.45,1.21,1.21,0,0,1-.07.41.43.43,0,0,1-.22.22A1,1,0,0,1,93.4,60.5Zm0,11.8a.71.71,0,0,1-.31-.06.3.3,0,0,1-.17-.18,1,1,0,0,1,0-.33V63.79a1,1,0,0,1,0-.33.3.3,0,0,1,.17-.18,1,1,0,0,1,.33,0,1,1,0,0,1,.33,0,.35.35,0,0,1,.16.18,1.15,1.15,0,0,1,0,.36v7.92a1,1,0,0,1,0,.33.29.29,0,0,1-.17.17A1.06,1.06,0,0,1,93.4,72.3Z"/><path class="cls-1" d="M100.93,72.11a4.66,4.66,0,0,1-1.72-.31,3.63,3.63,0,0,1-1.33-.91A4,4,0,0,1,97,69.5a5.58,5.58,0,0,1,0-3.61,4.23,4.23,0,0,1,.86-1.4,3.69,3.69,0,0,1,1.32-.9,4.44,4.44,0,0,1,1.7-.32,3.91,3.91,0,0,1,1.58.32,3.68,3.68,0,0,1,1.27.9,4.33,4.33,0,0,1,.83,1.4,5.33,5.33,0,0,1,.29,1.79,5,5,0,0,1-.51,2.33,3.83,3.83,0,0,1-1.4,1.55A3.71,3.71,0,0,1,100.93,72.11Zm-.08,3.8a5.37,5.37,0,0,1-1.25-.14,4.55,4.55,0,0,1-1-.37,2.35,2.35,0,0,1-.65-.49.74.74,0,0,1-.23-.46.41.41,0,0,1,0-.19.8.8,0,0,1,.09-.14,1.33,1.33,0,0,1,.22-.19.54.54,0,0,1,.22,0,.48.48,0,0,1,.33.17c.12.11.28.24.47.39a3.8,3.8,0,0,0,.73.39,3.16,3.16,0,0,0,1.09.17,3.81,3.81,0,0,0,1.3-.22,2.73,2.73,0,0,0,1-.66,2.78,2.78,0,0,0,.63-1,4.11,4.11,0,0,0,.22-1.42l0-7.92a.54.54,0,0,1,.14-.42.69.69,0,0,1,.43-.11.62.62,0,0,1,.3.05.26.26,0,0,1,.15.16.85.85,0,0,1,0,.32v8.06a4.72,4.72,0,0,1-.3,1.73,3.45,3.45,0,0,1-2.17,2.09A5.14,5.14,0,0,1,100.85,75.91Zm0-4.77a2.94,2.94,0,0,0,1.62-.44,3,3,0,0,0,1.13-1.22,3.87,3.87,0,0,0,.42-1.84,3.67,3.67,0,0,0-.42-1.79,3.06,3.06,0,0,0-1.14-1.2,3.17,3.17,0,0,0-1.63-.43,3.09,3.09,0,0,0-1.63.43,3,3,0,0,0-1.1,1.2,4,4,0,0,0-.39,1.81,4,4,0,0,0,.4,1.83,3,3,0,0,0,1.11,1.21A2.93,2.93,0,0,0,100.89,71.14Z"/><path class="cls-1" d="M112.46,72.34a5.32,5.32,0,0,1-1.91-.34,4.33,4.33,0,0,1-1.48-1,4.44,4.44,0,0,1-1-1.49,5,5,0,0,1-.34-1.9,4.19,4.19,0,0,1,.59-2.22A4.25,4.25,0,0,1,110,63.85a4.91,4.91,0,0,1,2.39-.58,4.51,4.51,0,0,1,1.6.27,4.14,4.14,0,0,1,1.25.72,3.44,3.44,0,0,1,.83,1,2.63,2.63,0,0,1,.29,1.21,1.56,1.56,0,0,1-.42,1.27,1.66,1.66,0,0,1-1,.33h-6a2.61,2.61,0,0,0,.5,1.73A3.62,3.62,0,0,0,110.78,71a3.84,3.84,0,0,0,1.66.39,6.65,6.65,0,0,0,1-.06,3.64,3.64,0,0,0,.7-.16,4.42,4.42,0,0,0,.51-.21l.38-.21a1.91,1.91,0,0,1,.32-.16.73.73,0,0,1,.22,0,.22.22,0,0,1,.18.11,1,1,0,0,1,.13.24.56.56,0,0,1,0,.23c0,.12-.15.27-.46.47a5.18,5.18,0,0,1-1.23.53A5.88,5.88,0,0,1,112.46,72.34Zm-3.55-5.13h5.66a1.55,1.55,0,0,0,.59-.09c.14-.05.21-.24.21-.56a1.88,1.88,0,0,0-.39-1.15,2.72,2.72,0,0,0-1.06-.84,3.37,3.37,0,0,0-1.52-.33,4.07,4.07,0,0,0-1.75.38,3.3,3.3,0,0,0-1.29,1.06A2.48,2.48,0,0,0,108.91,67.21Z"/><path class="cls-1" d="M119.45,72.3a.61.61,0,0,1-.3-.06.28.28,0,0,1-.16-.19.84.84,0,0,1,0-.34V63.79a.84.84,0,0,1,0-.35.25.25,0,0,1,.16-.17,1.27,1.27,0,0,1,.32,0,1.3,1.3,0,0,1,.31,0,.29.29,0,0,1,.19.17,1,1,0,0,1,0,.35v.8a6.06,6.06,0,0,1,.38-.59,2.05,2.05,0,0,1,.46-.47,1.87,1.87,0,0,1,.65-.31,3.4,3.4,0,0,1,1-.12,2.47,2.47,0,0,1,.56.06,3.37,3.37,0,0,1,.48.15,3,3,0,0,1,.37.21,1.25,1.25,0,0,1,.23.23.41.41,0,0,1,.07.23.54.54,0,0,1-.21.42.64.64,0,0,1-.38.17.62.62,0,0,1-.31-.07,2.39,2.39,0,0,1-.22-.16.9.9,0,0,0-.34-.16,2.46,2.46,0,0,0-.7-.07,1.93,1.93,0,0,0-.63.12,2.71,2.71,0,0,0-.66.37,2,2,0,0,0-.52.65,2,2,0,0,0-.21,1v5.55a.76.76,0,0,1,0,.33.26.26,0,0,1-.17.17A1,1,0,0,1,119.45,72.3Z"/><path class="cls-1" d="M134.63,72.28a.49.49,0,0,1-.38-.13,1.09,1.09,0,0,1-.15-.5V70.38a4.49,4.49,0,0,1-.65.81,3.94,3.94,0,0,1-2.88,1.11,4.17,4.17,0,0,1-3.1-1.33,4.65,4.65,0,0,1-.92-1.45,4.84,4.84,0,0,1-.33-1.8,4.57,4.57,0,0,1,.33-1.74,4.47,4.47,0,0,1,2.32-2.39,4,4,0,0,1,1.7-.35,4.66,4.66,0,0,1,1.53.22,4.22,4.22,0,0,1,1.12.63,5.56,5.56,0,0,1,.88.93V63.94a.94.94,0,0,1,.12-.54.52.52,0,0,1,.43-.16.61.61,0,0,1,.3.06.4.4,0,0,1,.15.22,1.5,1.5,0,0,1,.05.42v7.71a1.18,1.18,0,0,1-.05.37.3.3,0,0,1-.16.2A.68.68,0,0,1,134.63,72.28Zm-3.85-1a3.07,3.07,0,0,0,1.65-.46,3.36,3.36,0,0,0,1.18-1.27,4.11,4.11,0,0,0,0-3.7,3.46,3.46,0,0,0-1.21-1.25,3.22,3.22,0,0,0-1.64-.44,3.51,3.51,0,0,0-1.83.47,3.38,3.38,0,0,0-1.21,1.28,3.87,3.87,0,0,0-.44,1.86,3.69,3.69,0,0,0,.44,1.8,3.24,3.24,0,0,0,1.23,1.26A3.73,3.73,0,0,0,130.78,71.31Z"/><path class="cls-1" d="M138.62,72.28a.64.64,0,0,1-.3-.06.26.26,0,0,1-.16-.18,1,1,0,0,1,0-.33v-8a.72.72,0,0,1,0-.29.33.33,0,0,1,.17-.16.9.9,0,0,1,.31,0,.49.49,0,0,1,.38.11.51.51,0,0,1,.12.38v1.14a2,2,0,0,1,.48-.7,3.33,3.33,0,0,1,.71-.52,3.72,3.72,0,0,1,.83-.34,3.44,3.44,0,0,1,.83-.11,2.84,2.84,0,0,1,1.22.26,3.13,3.13,0,0,1,1,.75,4.3,4.3,0,0,1,.7,1.19,7.38,7.38,0,0,1,.89-1.24,2.66,2.66,0,0,1,1-.72A3.23,3.23,0,0,1,148,63.2a2.92,2.92,0,0,1,1.79.53,3.23,3.23,0,0,1,1.08,1.48,6.36,6.36,0,0,1,.36,2.25v4.27a1,1,0,0,1,0,.33.3.3,0,0,1-.16.17.93.93,0,0,1-.32,0,.8.8,0,0,1-.34-.06.28.28,0,0,1-.17-.18,1,1,0,0,1,0-.33V67.44a5.71,5.71,0,0,0-.24-1.7,2.44,2.44,0,0,0-.72-1.14,1.76,1.76,0,0,0-1.23-.41,2.52,2.52,0,0,0-1.43.41,2.82,2.82,0,0,0-1,1.14,3.77,3.77,0,0,0-.36,1.7v4.31a.61.61,0,0,1-.13.39.51.51,0,0,1-.3.17.53.53,0,0,1-.33,0,.49.49,0,0,1-.19-.1.42.42,0,0,1-.11-.18,1.12,1.12,0,0,1,0-.27V67.44a5.41,5.41,0,0,0-.24-1.7,2.35,2.35,0,0,0-.71-1.14,1.78,1.78,0,0,0-1.23-.41,2.52,2.52,0,0,0-1.43.41,2.76,2.76,0,0,0-1,1.14,3.77,3.77,0,0,0-.36,1.7v4.29a1,1,0,0,1,0,.33.31.31,0,0,1-.17.17A1.06,1.06,0,0,1,138.62,72.28Z"/><path class="cls-1" d="M158.44,72.34a5.32,5.32,0,0,1-1.91-.34,4.33,4.33,0,0,1-1.48-1,4.44,4.44,0,0,1-1-1.49,5,5,0,0,1-.34-1.9,4.19,4.19,0,0,1,.59-2.22A4.25,4.25,0,0,1,156,63.85a4.91,4.91,0,0,1,2.39-.58,4.51,4.51,0,0,1,1.6.27,4.14,4.14,0,0,1,1.25.72,3.44,3.44,0,0,1,.83,1,2.63,2.63,0,0,1,.29,1.21,1.56,1.56,0,0,1-.42,1.27,1.66,1.66,0,0,1-1,.33h-6a2.61,2.61,0,0,0,.5,1.73A3.62,3.62,0,0,0,156.76,71a3.84,3.84,0,0,0,1.66.39,6.65,6.65,0,0,0,1-.06,3.64,3.64,0,0,0,.7-.16,4.42,4.42,0,0,0,.51-.21l.38-.21a1.91,1.91,0,0,1,.32-.16.73.73,0,0,1,.22,0,.22.22,0,0,1,.18.11,1,1,0,0,1,.13.24.56.56,0,0,1,0,.23c0,.12-.15.27-.46.47a5.18,5.18,0,0,1-1.23.53A5.88,5.88,0,0,1,158.44,72.34Zm-3.55-5.13h5.66a1.55,1.55,0,0,0,.59-.09c.14-.05.21-.24.21-.56a1.88,1.88,0,0,0-.39-1.15,2.79,2.79,0,0,0-1.06-.84,3.37,3.37,0,0,0-1.52-.33,4.15,4.15,0,0,0-1.76.38,3.34,3.34,0,0,0-1.28,1.06A2.48,2.48,0,0,0,154.89,67.21Z"/><path class="cls-1" d="M165.43,72.28a.61.61,0,0,1-.3-.06A.26.26,0,0,1,165,72a.76.76,0,0,1-.05-.33v-8a.58.58,0,0,1,.05-.29.3.3,0,0,1,.17-.16.9.9,0,0,1,.31,0,.8.8,0,0,1,.23,0,.28.28,0,0,1,.15.08.38.38,0,0,1,.09.15,1.52,1.52,0,0,1,0,.23v1.12a6.4,6.4,0,0,1,.56-.62,4.47,4.47,0,0,1,.67-.53,3.21,3.21,0,0,1,.82-.37,3.39,3.39,0,0,1,1-.13,4.1,4.1,0,0,1,1.51.27,3.46,3.46,0,0,1,1.21.8,3.67,3.67,0,0,1,.8,1.27,4.89,4.89,0,0,1,.28,1.72v4.47a1,1,0,0,1,0,.33.3.3,0,0,1-.16.17,1,1,0,0,1-.33,0,.75.75,0,0,1-.33-.06.28.28,0,0,1-.17-.18,1,1,0,0,1-.05-.33V67.25a4,4,0,0,0-.3-1.62,2.37,2.37,0,0,0-.91-1.06,2.82,2.82,0,0,0-1.54-.38,3.06,3.06,0,0,0-1.58.38,2.57,2.57,0,0,0-1,1.06,3.46,3.46,0,0,0-.36,1.62v4.48a.76.76,0,0,1,0,.33.26.26,0,0,1-.17.17A1,1,0,0,1,165.43,72.28Z"/><path class="cls-1" d="M175.56,63.48l1.69,0,2.64,0a1,1,0,0,1,.33.05.35.35,0,0,1,.18.16.68.68,0,0,1,.06.31,1,1,0,0,1-.05.33.27.27,0,0,1-.16.17.85.85,0,0,1-.32,0l-2.68,0-1.73,0a.54.54,0,0,1-.42-.13A.64.64,0,0,1,175,64a.49.49,0,0,1,.13-.4A.64.64,0,0,1,175.56,63.48Zm4.22,8.82a5.89,5.89,0,0,1-1.44-.15,2.15,2.15,0,0,1-.94-.48,1.73,1.73,0,0,1-.51-.86,5.11,5.11,0,0,1-.15-1.34V60.73a1.08,1.08,0,0,1,0-.35.29.29,0,0,1,.16-.18.68.68,0,0,1,.31-.06,1,1,0,0,1,.33,0,.31.31,0,0,1,.18.16.67.67,0,0,1,.06.32v8.84a3.46,3.46,0,0,0,.1.94,1,1,0,0,0,.33.52,1.18,1.18,0,0,0,.59.22,8,8,0,0,0,.92,0,1.08,1.08,0,0,1,.35,0,.4.4,0,0,1,.18.16.75.75,0,0,1,.06.33.7.7,0,0,1-.06.32.31.31,0,0,1-.18.16A1,1,0,0,1,179.78,72.3Z"/><path class="cls-1" d="M187,72.34a5.28,5.28,0,0,1-1.91-.34,4.33,4.33,0,0,1-1.48-1,4.16,4.16,0,0,1-1-1.49,5,5,0,0,1-.35-1.9,4.22,4.22,0,0,1,2.23-3.79,4.89,4.89,0,0,1,2.39-.58,4.59,4.59,0,0,1,1.6.27,4.14,4.14,0,0,1,1.25.72,3.6,3.6,0,0,1,.83,1,2.76,2.76,0,0,1,.29,1.21,1.53,1.53,0,0,1-.43,1.27,1.63,1.63,0,0,1-1,.33h-6a2.67,2.67,0,0,0,.51,1.73A3.55,3.55,0,0,0,185.3,71a3.84,3.84,0,0,0,1.66.39,6.85,6.85,0,0,0,1-.06,3.83,3.83,0,0,0,.7-.16,4.2,4.2,0,0,0,.5-.21l.38-.21a2,2,0,0,1,.33-.16.69.69,0,0,1,.22,0,.22.22,0,0,1,.18.11,1.47,1.47,0,0,1,.13.24.79.79,0,0,1,0,.23c0,.12-.16.27-.46.47a5.37,5.37,0,0,1-1.23.53A5.88,5.88,0,0,1,187,72.34Zm-3.56-5.13h5.67a1.55,1.55,0,0,0,.59-.09c.13-.05.2-.24.2-.56a1.88,1.88,0,0,0-.39-1.15,2.76,2.76,0,0,0-1.05-.84,3.37,3.37,0,0,0-1.52-.33,4.15,4.15,0,0,0-1.76.38,3.26,3.26,0,0,0-1.28,1.06A2.49,2.49,0,0,0,183.42,67.21Z"/><path class="cls-1" d="M201.19,72.3a4,4,0,0,1-1-.11,2.16,2.16,0,0,1-.75-.35,1.84,1.84,0,0,1-.54-.57,2.35,2.35,0,0,1-.33-.79,4.55,4.55,0,0,1-.1-1V59.59a1,1,0,0,1,.05-.35.3.3,0,0,1,.17-.18A.68.68,0,0,1,199,59a1,1,0,0,1,.33,0,.26.26,0,0,1,.18.16.7.7,0,0,1,.06.32v10a2.3,2.3,0,0,0,.1.73,1.3,1.3,0,0,0,.29.53,1.14,1.14,0,0,0,.5.32,2,2,0,0,0,.67.11.84.84,0,0,1,.35,0,.3.3,0,0,1,.18.17.94.94,0,0,1,0,.66.33.33,0,0,1-.18.17A1,1,0,0,1,201.19,72.3Z"/><path class="cls-1" d="M212,72.28a.47.47,0,0,1-.38-.13.89.89,0,0,1-.15-.5V70.38a4.19,4.19,0,0,1-.66.81,3.92,3.92,0,0,1-1.16.78,4.06,4.06,0,0,1-1.72.33A4.12,4.12,0,0,1,204.84,71a4.48,4.48,0,0,1-.92-1.45,4.65,4.65,0,0,1-.34-1.8,4.5,4.5,0,0,1,2.65-4.13,4.08,4.08,0,0,1,1.7-.35,4.58,4.58,0,0,1,1.53.22,3.92,3.92,0,0,1,1.12.63,5.62,5.62,0,0,1,.89.93V63.94a.94.94,0,0,1,.12-.54.5.5,0,0,1,.43-.16.6.6,0,0,1,.29.06.47.47,0,0,1,.16.22,1.56,1.56,0,0,1,0,.42v7.71a1.22,1.22,0,0,1,0,.37.32.32,0,0,1-.17.2A.61.61,0,0,1,212,72.28Zm-3.86-1a3.08,3.08,0,0,0,1.66-.46A3.34,3.34,0,0,0,211,69.58a3.74,3.74,0,0,0,.44-1.82,3.66,3.66,0,0,0-.46-1.88,3.35,3.35,0,0,0-1.2-1.25,3.23,3.23,0,0,0-1.65-.44,3.32,3.32,0,0,0-3,1.75,3.87,3.87,0,0,0-.43,1.86,3.69,3.69,0,0,0,.43,1.8,3.33,3.33,0,0,0,1.24,1.26A3.69,3.69,0,0,0,208.14,71.31Z"/><path class="cls-1" d="M224.84,72.3a5.59,5.59,0,0,1-1.91-.32,4.62,4.62,0,0,1-1.49-.92,4,4,0,0,1-1-1.43,5.35,5.35,0,0,1,0-3.7,4.16,4.16,0,0,1,1-1.44,4.38,4.38,0,0,1,1.47-.93,5.26,5.26,0,0,1,1.9-.32,4,4,0,0,1,1.29.22,4.61,4.61,0,0,1,1.18.57,2.2,2.2,0,0,1,.77.78,1.12,1.12,0,0,1,.13.36.32.32,0,0,1-.1.23.82.82,0,0,1-.25.21.59.59,0,0,1-.26.08.58.58,0,0,1-.44-.27,2.22,2.22,0,0,0-.45-.47,3.48,3.48,0,0,0-1.22-.6,2.37,2.37,0,0,0-.65-.09,3.82,3.82,0,0,0-1.86.44,3,3,0,0,0-1.23,1.23,4.07,4.07,0,0,0,0,3.68,3.07,3.07,0,0,0,1.22,1.23,3.76,3.76,0,0,0,1.84.43,3.24,3.24,0,0,0,.87-.11,4.31,4.31,0,0,0,.84-.33,3.27,3.27,0,0,0,.68-.51l.26-.21a.37.37,0,0,1,.25-.09.33.33,0,0,1,.22.09,1,1,0,0,1,.22.23.4.4,0,0,1,.1.18.55.55,0,0,1,0,.22.39.39,0,0,1-.13.21,3.72,3.72,0,0,1-1,.7,5.57,5.57,0,0,1-1.16.48A4.17,4.17,0,0,1,224.84,72.3Z"/><path class="cls-1" d="M238.56,72.28a.47.47,0,0,1-.38-.13.89.89,0,0,1-.15-.5V70.38a4.19,4.19,0,0,1-.66.81,3.8,3.8,0,0,1-1.16.78,4,4,0,0,1-1.71.33A4.17,4.17,0,0,1,231.4,71a4.65,4.65,0,0,1-.92-1.45,4.84,4.84,0,0,1-.34-1.8,4.57,4.57,0,0,1,.34-1.74,4.37,4.37,0,0,1,.93-1.42,4.43,4.43,0,0,1,1.38-1,4.09,4.09,0,0,1,1.71-.35,4.56,4.56,0,0,1,1.52.22,4.12,4.12,0,0,1,1.13.63A6,6,0,0,1,238,65V63.94a.94.94,0,0,1,.12-.54.5.5,0,0,1,.43-.16.57.57,0,0,1,.29.06.47.47,0,0,1,.16.22,1.56,1.56,0,0,1,0,.42v7.71a1.22,1.22,0,0,1,0,.37.33.33,0,0,1-.16.2A.68.68,0,0,1,238.56,72.28Zm-3.86-1a3.08,3.08,0,0,0,1.66-.46,3.44,3.44,0,0,0,1.18-1.27,4.11,4.11,0,0,0,0-3.7,3.46,3.46,0,0,0-1.21-1.25,3.22,3.22,0,0,0-1.64-.44,3.51,3.51,0,0,0-1.83.47,3.38,3.38,0,0,0-1.21,1.28,3.76,3.76,0,0,0-.44,1.86,3.58,3.58,0,0,0,.44,1.8,3.24,3.24,0,0,0,1.23,1.26A3.69,3.69,0,0,0,234.7,71.31Z"/><path class="cls-1" d="M242.44,72.32a.76.76,0,0,1-.32-.06.39.39,0,0,1-.18-.18.76.76,0,0,1-.05-.33V59.65a1.15,1.15,0,0,1,0-.36.33.33,0,0,1,.17-.18,1,1,0,0,1,.32,0,.89.89,0,0,1,.32,0,.37.37,0,0,1,.17.18.83.83,0,0,1,.06.34v12.1a.69.69,0,0,1-.12.46A.54.54,0,0,1,242.44,72.32Zm4.06,0a4.53,4.53,0,0,1-1.71-.32,4.1,4.1,0,0,1-1.35-.92,4.25,4.25,0,0,1-.88-1.43,5.71,5.71,0,0,1,0-3.71,4.34,4.34,0,0,1,.88-1.45,4,4,0,0,1,1.35-.93,4.53,4.53,0,0,1,1.71-.32,4.31,4.31,0,0,1,1.66.32,4.07,4.07,0,0,1,1.33.92,4.44,4.44,0,0,1,.89,1.43,5.09,5.09,0,0,1,.32,1.83,5.28,5.28,0,0,1-.32,1.87,4.47,4.47,0,0,1-.89,1.46,4.1,4.1,0,0,1-1.33.93A4.31,4.31,0,0,1,246.5,72.3Zm-.17-1a3.34,3.34,0,0,0,1.7-.44,3.23,3.23,0,0,0,1.19-1.24,3.73,3.73,0,0,0,.44-1.83,3.82,3.82,0,0,0-.44-1.86A3.19,3.19,0,0,0,248,64.67a3.25,3.25,0,0,0-1.7-.45,3.2,3.2,0,0,0-2.87,1.7,3.81,3.81,0,0,0-.43,1.86,3.72,3.72,0,0,0,.43,1.83,3.23,3.23,0,0,0,1.19,1.24A3.29,3.29,0,0,0,246.33,71.29Z"/><path class="cls-1" d="M257.69,72.34a5.36,5.36,0,0,1-1.91-.34,4.27,4.27,0,0,1-2.44-2.46,5,5,0,0,1-.34-1.9,4.24,4.24,0,0,1,2.22-3.79,5,5,0,0,1,2.4-.58,4.5,4.5,0,0,1,1.59.27,4.32,4.32,0,0,1,1.26.72,3.41,3.41,0,0,1,.82,1,2.64,2.64,0,0,1,.3,1.21,1.53,1.53,0,0,1-.43,1.27,1.63,1.63,0,0,1-1,.33h-6a2.61,2.61,0,0,0,.5,1.73A3.7,3.7,0,0,0,256,71a3.87,3.87,0,0,0,1.66.39,6.65,6.65,0,0,0,1-.06,3.76,3.76,0,0,0,.71-.16,5,5,0,0,0,.5-.21l.38-.21a1.91,1.91,0,0,1,.32-.16.78.78,0,0,1,.22,0,.22.22,0,0,1,.18.11,1,1,0,0,1,.14.24.8.8,0,0,1,0,.23c0,.12-.15.27-.45.47a5.47,5.47,0,0,1-1.24.53A5.83,5.83,0,0,1,257.69,72.34Zm-3.55-5.13h5.66a1.52,1.52,0,0,0,.59-.09c.14-.05.21-.24.21-.56a1.88,1.88,0,0,0-.39-1.15,2.76,2.76,0,0,0-1-.84,3.4,3.4,0,0,0-1.52-.33,4.12,4.12,0,0,0-1.76.38,3.19,3.19,0,0,0-1.28,1.06A2.49,2.49,0,0,0,254.14,67.21Z"/><path class="cls-1" d="M264.13,72.3a.59.59,0,0,1-.41-.11.55.55,0,0,1-.12-.4.79.79,0,0,1,0-.29.85.85,0,0,1,.14-.21l6.25-7h-5.43a1,1,0,0,1-.33,0,.28.28,0,0,1-.18-.17.94.94,0,0,1,0-.66.29.29,0,0,1,.18-.18,1,1,0,0,1,.33,0h6.5a.43.43,0,0,1,.53.51.75.75,0,0,1,0,.23.38.38,0,0,1-.09.15l-6.25,7.07h6.08a1.06,1.06,0,0,1,.34,0,.32.32,0,0,1,.17.19,1,1,0,0,1,.05.33.71.71,0,0,1-.06.31.33.33,0,0,1-.18.17,1,1,0,0,1-.33,0Z"/><path class="cls-1" d="M282.32,72.28a.46.46,0,0,1-.38-.13.89.89,0,0,1-.15-.5V70.38a4.19,4.19,0,0,1-.66.81A3.92,3.92,0,0,1,280,72a4.06,4.06,0,0,1-1.72.33,4.26,4.26,0,0,1-1.72-.35,4.46,4.46,0,0,1-1.38-1,4.65,4.65,0,0,1-.92-1.45,4.84,4.84,0,0,1-.33-1.8,4.57,4.57,0,0,1,.33-1.74,4.47,4.47,0,0,1,2.32-2.39,4,4,0,0,1,1.7-.35,4.58,4.58,0,0,1,1.53.22,4.07,4.07,0,0,1,1.12.63,6.06,6.06,0,0,1,.89.93V63.94a.94.94,0,0,1,.12-.54.49.49,0,0,1,.43-.16.6.6,0,0,1,.29.06.4.4,0,0,1,.15.22,1.5,1.5,0,0,1,.05.42v7.71a1.18,1.18,0,0,1-.05.37.28.28,0,0,1-.16.2A.64.64,0,0,1,282.32,72.28Zm-3.86-1a3,3,0,0,0,1.65-.46,3.29,3.29,0,0,0,1.18-1.27,3.74,3.74,0,0,0,.44-1.82,3.66,3.66,0,0,0-.46-1.88,3.35,3.35,0,0,0-1.2-1.25,3.26,3.26,0,0,0-1.65-.44,3.47,3.47,0,0,0-1.82.47,3.41,3.41,0,0,0-1.22,1.28,3.87,3.87,0,0,0-.44,1.86,3.69,3.69,0,0,0,.44,1.8,3.26,3.26,0,0,0,1.24,1.26A3.66,3.66,0,0,0,278.46,71.31Z"/><path class="cls-1" d="M17.52,95.3a.75.75,0,0,1-.33-.06.31.31,0,0,1-.18-.19,1.09,1.09,0,0,1,0-.34V82.61a1,1,0,0,1,.05-.33.37.37,0,0,1,.18-.19,1.06,1.06,0,0,1,.34,0,1,1,0,0,1,.33,0,.32.32,0,0,1,.17.19,1,1,0,0,1,.05.35v5.11a5.2,5.2,0,0,1,1.2-1.08,3.21,3.21,0,0,1,1.78-.46,3.9,3.9,0,0,1,1.94.48,3.63,3.63,0,0,1,1.36,1.39,4.49,4.49,0,0,1,.5,2.19v4.47a1,1,0,0,1-.05.33.27.27,0,0,1-.16.17.85.85,0,0,1-.32,0,.75.75,0,0,1-.33-.06.26.26,0,0,1-.17-.18.76.76,0,0,1-.05-.33V90.25a3.87,3.87,0,0,0-.31-1.62,2.25,2.25,0,0,0-.91-1.06A2.79,2.79,0,0,0,21,87.19a2.76,2.76,0,0,0-2.94,2.66v4.88a.75.75,0,0,1-.06.33.35.35,0,0,1-.18.18A.75.75,0,0,1,17.52,95.3Z"/><path class="cls-1" d="M35.3,95.28a.47.47,0,0,1-.38-.13.89.89,0,0,1-.15-.5V93.38a4.19,4.19,0,0,1-.66.81A3.8,3.8,0,0,1,33,95a4,4,0,0,1-1.71.33A4.17,4.17,0,0,1,28.14,94a4.65,4.65,0,0,1-.92-1.45,4.84,4.84,0,0,1-.34-1.8A4.57,4.57,0,0,1,27.22,89a4.37,4.37,0,0,1,.93-1.42,4.43,4.43,0,0,1,1.38-1,4.09,4.09,0,0,1,1.71-.35,4.56,4.56,0,0,1,1.52.22,4.12,4.12,0,0,1,1.13.63,6,6,0,0,1,.88.93V86.94a.94.94,0,0,1,.12-.54.5.5,0,0,1,.43-.16.55.55,0,0,1,.29.06.47.47,0,0,1,.16.22,1.56,1.56,0,0,1,0,.42v7.71a1.22,1.22,0,0,1,0,.37.33.33,0,0,1-.16.2A.68.68,0,0,1,35.3,95.28Zm-3.86-1a3.08,3.08,0,0,0,1.66-.46,3.44,3.44,0,0,0,1.18-1.27,4.11,4.11,0,0,0,0-3.7,3.46,3.46,0,0,0-1.21-1.25,3.22,3.22,0,0,0-1.64-.44,3.51,3.51,0,0,0-1.83.47,3.38,3.38,0,0,0-1.21,1.28,3.76,3.76,0,0,0-.44,1.86,3.58,3.58,0,0,0,.44,1.8,3.24,3.24,0,0,0,1.23,1.26A3.69,3.69,0,0,0,31.44,94.31Z"/><path class="cls-1" d="M42.9,95.3A5.55,5.55,0,0,1,41,95a4.62,4.62,0,0,1-1.49-.92,4,4,0,0,1-1-1.43,5.35,5.35,0,0,1,0-3.7,4.16,4.16,0,0,1,1-1.44A4.29,4.29,0,0,1,41,86.56a5.26,5.26,0,0,1,1.9-.32,4,4,0,0,1,1.29.22,4.61,4.61,0,0,1,1.18.57,2.08,2.08,0,0,1,.76.78,1,1,0,0,1,.14.36.37.37,0,0,1-.1.23.86.86,0,0,1-.26.21.56.56,0,0,1-.25.08.58.58,0,0,1-.44-.27,2.27,2.27,0,0,0-.46-.47,3,3,0,0,0-.57-.36,3.33,3.33,0,0,0-.64-.24,2.43,2.43,0,0,0-.65-.09A3.82,3.82,0,0,0,41,87.7a3,3,0,0,0-1.23,1.23,4.07,4.07,0,0,0,0,3.68A3.07,3.07,0,0,0,41,93.84a3.76,3.76,0,0,0,1.84.43,3.24,3.24,0,0,0,.87-.11,4.31,4.31,0,0,0,.84-.33,3.27,3.27,0,0,0,.68-.51l.26-.21a.37.37,0,0,1,.25-.09.33.33,0,0,1,.22.09,1.23,1.23,0,0,1,.22.23.31.31,0,0,1,.09.18.41.41,0,0,1,0,.22.38.38,0,0,1-.12.21,3.72,3.72,0,0,1-1,.7,5.57,5.57,0,0,1-1.16.48A4.23,4.23,0,0,1,42.9,95.3Z"/><path class="cls-1" d="M49.38,83.5a.83.83,0,0,1-.42-.08.47.47,0,0,1-.22-.24,1.37,1.37,0,0,1-.06-.44,1.17,1.17,0,0,1,.06-.42A.45.45,0,0,1,49,82.1,1.27,1.27,0,0,1,49.4,82a1,1,0,0,1,.42.07.51.51,0,0,1,.22.24,1.36,1.36,0,0,1,.06.45,1.22,1.22,0,0,1-.06.41.43.43,0,0,1-.22.22A1,1,0,0,1,49.38,83.5Zm0,11.8a.68.68,0,0,1-.31-.06.28.28,0,0,1-.17-.18.76.76,0,0,1,0-.33V86.79a.76.76,0,0,1,0-.33.28.28,0,0,1,.17-.18,1,1,0,0,1,.33,0,.85.85,0,0,1,.32.05.31.31,0,0,1,.16.18.89.89,0,0,1,0,.36v7.92a.76.76,0,0,1,0,.33.26.26,0,0,1-.17.17A1,1,0,0,1,49.38,95.3Z"/><path class="cls-1" d="M61,95.28a.46.46,0,0,1-.38-.13.89.89,0,0,1-.15-.5V93.38a4.19,4.19,0,0,1-.66.81,3.92,3.92,0,0,1-1.16.78,4.06,4.06,0,0,1-1.72.33A4.26,4.26,0,0,1,55.22,95a4.46,4.46,0,0,1-1.38-1,4.65,4.65,0,0,1-.92-1.45,4.84,4.84,0,0,1-.33-1.8,4.45,4.45,0,0,1,1.26-3.16,4.47,4.47,0,0,1,1.39-1,4,4,0,0,1,1.7-.35,4.58,4.58,0,0,1,1.53.22,3.92,3.92,0,0,1,1.12.63,5.62,5.62,0,0,1,.89.93V86.94a.94.94,0,0,1,.12-.54.49.49,0,0,1,.43-.16.6.6,0,0,1,.29.06.4.4,0,0,1,.15.22,1.2,1.2,0,0,1,.05.42v7.71a.94.94,0,0,1-.05.37.28.28,0,0,1-.16.2A.64.64,0,0,1,61,95.28Zm-3.86-1a3,3,0,0,0,1.65-.46A3.29,3.29,0,0,0,60,92.58a3.74,3.74,0,0,0,.44-1.82A3.66,3.66,0,0,0,60,88.88a3.35,3.35,0,0,0-1.2-1.25,3.23,3.23,0,0,0-1.65-.44,3.5,3.5,0,0,0-1.82.47,3.41,3.41,0,0,0-1.22,1.28,3.87,3.87,0,0,0-.43,1.86,3.69,3.69,0,0,0,.43,1.8,3.26,3.26,0,0,0,1.24,1.26A3.66,3.66,0,0,0,57.15,94.31Z"/><path class="cls-1" d="M72.22,95.3a4,4,0,0,1-1-.11,2.16,2.16,0,0,1-.75-.35,1.84,1.84,0,0,1-.54-.57,2.35,2.35,0,0,1-.33-.79,4.55,4.55,0,0,1-.1-1V82.59a.84.84,0,0,1,0-.35.28.28,0,0,1,.17-.18.68.68,0,0,1,.31-.06,1,1,0,0,1,.33,0,.29.29,0,0,1,.18.16.7.7,0,0,1,.06.32v10a2.3,2.3,0,0,0,.1.73,1.3,1.3,0,0,0,.29.53,1.16,1.16,0,0,0,.49.32,2,2,0,0,0,.68.11.84.84,0,0,1,.35,0,.3.3,0,0,1,.18.17.94.94,0,0,1,0,.66.33.33,0,0,1-.18.17A1,1,0,0,1,72.22,95.3Z"/><path class="cls-1" d="M83,95.28a.46.46,0,0,1-.38-.13.89.89,0,0,1-.15-.5V93.38a4.19,4.19,0,0,1-.66.81,3.92,3.92,0,0,1-1.16.78A4.06,4.06,0,0,1,79,95.3,4.12,4.12,0,0,1,75.87,94a4.68,4.68,0,0,1-.93-1.45,4.84,4.84,0,0,1-.33-1.8,4.4,4.4,0,0,1,1.27-3.16,4.31,4.31,0,0,1,1.38-1,4,4,0,0,1,1.7-.35,4.58,4.58,0,0,1,1.53.22,3.92,3.92,0,0,1,1.12.63,5.62,5.62,0,0,1,.89.93V86.94a.94.94,0,0,1,.12-.54.49.49,0,0,1,.43-.16.6.6,0,0,1,.29.06.4.4,0,0,1,.15.22,1.2,1.2,0,0,1,.05.42v7.71a.94.94,0,0,1-.05.37.28.28,0,0,1-.16.2A.64.64,0,0,1,83,95.28Zm-3.86-1a3,3,0,0,0,1.65-.46A3.29,3.29,0,0,0,82,92.58a3.74,3.74,0,0,0,.44-1.82A3.66,3.66,0,0,0,82,88.88a3.35,3.35,0,0,0-1.2-1.25,3.23,3.23,0,0,0-1.65-.44,3.32,3.32,0,0,0-3,1.75,3.87,3.87,0,0,0-.43,1.86,3.69,3.69,0,0,0,.43,1.8,3.33,3.33,0,0,0,1.24,1.26A3.66,3.66,0,0,0,79.17,94.31Z"/><path class="cls-1" d="M92.11,95.3a.75.75,0,0,1-.33-.06.27.27,0,0,1-.17-.19.84.84,0,0,1,0-.34V82.61a.75.75,0,0,1,.06-.33.31.31,0,0,1,.18-.19,1.11,1.11,0,0,1,.66,0,.32.32,0,0,1,.17.19,1,1,0,0,1,.05.35v5.11a5.06,5.06,0,0,1,1.21-1.08,3.15,3.15,0,0,1,1.77-.46,3.88,3.88,0,0,1,1.94.48A3.63,3.63,0,0,1,99,88.07a4.38,4.38,0,0,1,.5,2.19v4.47a1,1,0,0,1,0,.33.31.31,0,0,1-.17.17.85.85,0,0,1-.32,0,.75.75,0,0,1-.33-.06.28.28,0,0,1-.17-.18,1,1,0,0,1-.05-.33V90.25a4,4,0,0,0-.3-1.62,2.33,2.33,0,0,0-.92-1.06,2.77,2.77,0,0,0-1.54-.38,2.76,2.76,0,0,0-2.94,2.66v4.88a.75.75,0,0,1-.06.33.32.32,0,0,1-.18.18A.75.75,0,0,1,92.11,95.3Z"/><path class="cls-1" d="M106,95.38a4.52,4.52,0,0,1-1.79-.37,4.91,4.91,0,0,1-1.47-1,4.67,4.67,0,0,1-1-1.47,4.42,4.42,0,0,1-.36-1.78,4.62,4.62,0,0,1,.35-1.8,4.72,4.72,0,0,1,1-1.46,4.66,4.66,0,0,1,1.46-1,4.59,4.59,0,0,1,1.78-.35,4.49,4.49,0,0,1,4.54,4.58,4.69,4.69,0,0,1-.35,1.82,4.59,4.59,0,0,1-1,1.47,4.53,4.53,0,0,1-1.43,1A4.32,4.32,0,0,1,106,95.38Zm0-1a3.32,3.32,0,0,0,1.76-.48A3.6,3.6,0,0,0,109,92.55a3.67,3.67,0,0,0,.47-1.83A3.54,3.54,0,0,0,109,88.9a3.31,3.31,0,0,0-1.24-1.25,3.58,3.58,0,0,0-1.8-.44,3.39,3.39,0,0,0-1.77.46,3.46,3.46,0,0,0-1.26,1.26,3.56,3.56,0,0,0-.46,1.81,3.64,3.64,0,0,0,.46,1.84,3.44,3.44,0,0,0,3,1.77Z"/><path class="cls-1" d="M110.81,98.89a.81.81,0,0,1-.33-.06.32.32,0,0,1-.19-.17.62.62,0,0,1-.05-.3.69.69,0,0,1,.05-.31.4.4,0,0,1,.19-.17,1.06,1.06,0,0,1,.34,0,5.24,5.24,0,0,0,1-.09,2,2,0,0,0,.81-.34,1.64,1.64,0,0,0,.53-.75,3.58,3.58,0,0,0,.19-1.29V86.77a.68.68,0,0,1,.06-.31.42.42,0,0,1,.18-.17.91.91,0,0,1,.31-.05.87.87,0,0,1,.31.05.45.45,0,0,1,.17.19.89.89,0,0,1,.05.35v8.49a4.66,4.66,0,0,1-.25,1.63,2.76,2.76,0,0,1-.73,1.11,2.89,2.89,0,0,1-1.14.63A5.39,5.39,0,0,1,110.81,98.89Zm3-15.39a.74.74,0,0,1-.55-.17.89.89,0,0,1-.15-.59.77.77,0,0,1,.15-.55.81.81,0,0,1,.57-.15.68.68,0,0,1,.55.17.83.83,0,0,1,.16.59.74.74,0,0,1-.16.54A.76.76,0,0,1,113.86,83.5Z"/><path class="cls-1" d="M125.74,95.28a.46.46,0,0,1-.38-.13.89.89,0,0,1-.15-.5V93.38a4.19,4.19,0,0,1-.66.81,3.92,3.92,0,0,1-1.16.78,4.06,4.06,0,0,1-1.72.33A4.12,4.12,0,0,1,118.58,94a4.68,4.68,0,0,1-.93-1.45,4.84,4.84,0,0,1-.33-1.8,4.4,4.4,0,0,1,1.27-3.16,4.31,4.31,0,0,1,1.38-1,4.08,4.08,0,0,1,1.7-.35,4.58,4.58,0,0,1,1.53.22,3.92,3.92,0,0,1,1.12.63,5.62,5.62,0,0,1,.89.93V86.94a.94.94,0,0,1,.12-.54.5.5,0,0,1,.43-.16.57.57,0,0,1,.29.06.4.4,0,0,1,.15.22,1.2,1.2,0,0,1,0,.42v7.71a.94.94,0,0,1,0,.37.28.28,0,0,1-.16.2A.61.61,0,0,1,125.74,95.28Zm-3.86-1a3.08,3.08,0,0,0,1.66-.46,3.34,3.34,0,0,0,1.17-1.27,3.74,3.74,0,0,0,.44-1.82,3.66,3.66,0,0,0-.46-1.88,3.35,3.35,0,0,0-1.2-1.25,3.23,3.23,0,0,0-1.65-.44,3.32,3.32,0,0,0-3,1.75,3.87,3.87,0,0,0-.43,1.86,3.69,3.69,0,0,0,.43,1.8A3.33,3.33,0,0,0,120,93.86,3.69,3.69,0,0,0,121.88,94.31Z"/><path class="cls-1" d="M129.31,96.38a.14.14,0,0,1-.09-.08.37.37,0,0,1,0-.2.39.39,0,0,1,.13-.33.8.8,0,0,0,.38-.62,1,1,0,0,1-.22-.06.51.51,0,0,1-.16-.11.44.44,0,0,1-.11-.25,1.51,1.51,0,0,1,0-.3,2,2,0,0,1,0-.36.38.38,0,0,1,.18-.26.92.92,0,0,1,.51-.11.8.8,0,0,1,.59.18.38.38,0,0,1,.11.24,1.67,1.67,0,0,1,0,.32v.16a.39.39,0,0,1,0,.15,2.27,2.27,0,0,1-.22.8,1.9,1.9,0,0,1-.45.61A1,1,0,0,1,129.31,96.38Z"/><path class="cls-1" d="M141.93,95.36a4.56,4.56,0,0,1-.89-.09,4.89,4.89,0,0,1-.85-.25,3.77,3.77,0,0,1-.75-.38,2,2,0,0,1-.55-.48,1.46,1.46,0,0,1-.19-.32.31.31,0,0,1,0-.25.44.44,0,0,1,.18-.21.46.46,0,0,1,.4-.19,1.23,1.23,0,0,1,.49.36,1.74,1.74,0,0,0,.44.35,3.35,3.35,0,0,0,.57.28,4.24,4.24,0,0,0,.61.17,2.91,2.91,0,0,0,.57.06,3.16,3.16,0,0,0,1.69-.41,1.25,1.25,0,0,0,.64-1.11,1.44,1.44,0,0,0-.13-.64,1.37,1.37,0,0,0-.36-.46,2.75,2.75,0,0,0-.52-.34,5.49,5.49,0,0,0-.65-.24l-.71-.2c-.36-.09-.71-.19-1.06-.3a4.45,4.45,0,0,1-.94-.41,2,2,0,0,1-.67-.64,1.89,1.89,0,0,1-.26-1,2.17,2.17,0,0,1,.37-1.25,2.43,2.43,0,0,1,1-.84,3.68,3.68,0,0,1,1.54-.3,5.13,5.13,0,0,1,.81.06,3.52,3.52,0,0,1,1.34.52,3.2,3.2,0,0,1,.55.42.66.66,0,0,1,.24.38.49.49,0,0,1-.13.36.61.61,0,0,1-.36.22A.47.47,0,0,1,144,88a2.82,2.82,0,0,0-.64-.48,3.61,3.61,0,0,0-.68-.28,3,3,0,0,0-.73-.09,2.57,2.57,0,0,0-1,.18,1.55,1.55,0,0,0-.68.51,1.34,1.34,0,0,0-.23.77.85.85,0,0,0,.16.54,1.3,1.3,0,0,0,.43.37,3.29,3.29,0,0,0,.62.27L142,90l1.16.33a5.26,5.26,0,0,1,1.08.47,2.49,2.49,0,0,1,.78.77,2.21,2.21,0,0,1,.31,1.24,2.12,2.12,0,0,1-1,1.82A4.07,4.07,0,0,1,141.93,95.36Z"/><path class="cls-1" d="M148.71,83.5a.83.83,0,0,1-.42-.08.47.47,0,0,1-.22-.24,1.37,1.37,0,0,1-.06-.44,1.17,1.17,0,0,1,.06-.42.45.45,0,0,1,.23-.22,1.27,1.27,0,0,1,.43-.06,1,1,0,0,1,.42.07.45.45,0,0,1,.21.24,1.12,1.12,0,0,1,.07.45,1,1,0,0,1-.07.41.38.38,0,0,1-.21.22A1,1,0,0,1,148.71,83.5Zm0,11.8a.68.68,0,0,1-.31-.06.32.32,0,0,1-.18-.18,1,1,0,0,1,0-.33V86.79a1,1,0,0,1,0-.33.32.32,0,0,1,.18-.18,1,1,0,0,1,.33,0,.89.89,0,0,1,.32.05.31.31,0,0,1,.16.18,1.11,1.11,0,0,1,0,.36v7.92a1,1,0,0,1,0,.33.29.29,0,0,1-.17.17A1,1,0,0,1,148.71,95.3Z"/><path class="cls-1" d="M153,95.28a.67.67,0,0,1-.3-.06.26.26,0,0,1-.16-.18,1,1,0,0,1,0-.33v-8a.72.72,0,0,1,0-.29.33.33,0,0,1,.17-.16.93.93,0,0,1,.31,0,.75.75,0,0,1,.23,0,.28.28,0,0,1,.15.08.38.38,0,0,1,.09.15.8.8,0,0,1,0,.23v1.12a5.2,5.2,0,0,1,.55-.62,5,5,0,0,1,.67-.53,3.21,3.21,0,0,1,.82-.37,3.46,3.46,0,0,1,1-.13,4.17,4.17,0,0,1,1.51.27,3.52,3.52,0,0,1,2,2.07,4.88,4.88,0,0,1,.29,1.72v4.47a1,1,0,0,1-.05.33.3.3,0,0,1-.16.17,1,1,0,0,1-.33,0,.75.75,0,0,1-.33-.06.28.28,0,0,1-.17-.18,1,1,0,0,1,0-.33V90.25a4,4,0,0,0-.3-1.62,2.31,2.31,0,0,0-.91-1.06,2.82,2.82,0,0,0-1.54-.38,3.08,3.08,0,0,0-1.58.38,2.54,2.54,0,0,0-1,1.06,3.46,3.46,0,0,0-.37,1.62v4.48a1,1,0,0,1,0,.33.31.31,0,0,1-.17.17A1.06,1.06,0,0,1,153,95.28Z"/><path class="cls-1" d="M176.41,95.28a.47.47,0,0,1-.38-.13,1,1,0,0,1-.15-.5V93.38a4.19,4.19,0,0,1-.66.81,3.8,3.8,0,0,1-1.16.78,4,4,0,0,1-1.72.33,4.18,4.18,0,0,1-1.71-.35,4.23,4.23,0,0,1-1.38-1A4.71,4.71,0,0,1,168,90.72a4.5,4.5,0,0,1,2.65-4.13,4.08,4.08,0,0,1,1.7-.35,4.58,4.58,0,0,1,1.53.22,4.12,4.12,0,0,1,1.13.63,6,6,0,0,1,.88.93V86.94a.94.94,0,0,1,.12-.54.52.52,0,0,1,.43-.16.57.57,0,0,1,.29.06.47.47,0,0,1,.16.22,1.56,1.56,0,0,1,0,.42v7.71a1.22,1.22,0,0,1,0,.37.33.33,0,0,1-.16.2A.68.68,0,0,1,176.41,95.28Zm-3.86-1a3.08,3.08,0,0,0,1.66-.46,3.44,3.44,0,0,0,1.18-1.27,4.11,4.11,0,0,0,0-3.7,3.46,3.46,0,0,0-1.21-1.25,3.22,3.22,0,0,0-1.64-.44,3.51,3.51,0,0,0-1.83.47,3.38,3.38,0,0,0-1.21,1.28A3.76,3.76,0,0,0,169,90.8a3.58,3.58,0,0,0,.44,1.8,3.24,3.24,0,0,0,1.23,1.26A3.69,3.69,0,0,0,172.55,94.31Z"/><path class="cls-1" d="M184,95.3A5.55,5.55,0,0,1,182.1,95a4.51,4.51,0,0,1-1.49-.92,4,4,0,0,1-1-1.43,5.35,5.35,0,0,1,0-3.7,4.16,4.16,0,0,1,.95-1.44,4.29,4.29,0,0,1,1.47-.93,5.26,5.26,0,0,1,1.9-.32,4,4,0,0,1,1.29.22,4.61,4.61,0,0,1,1.18.57,2.08,2.08,0,0,1,.76.78,1,1,0,0,1,.14.36.37.37,0,0,1-.1.23.75.75,0,0,1-.26.21.56.56,0,0,1-.25.08.58.58,0,0,1-.44-.27,2.51,2.51,0,0,0-.45-.47,3.5,3.5,0,0,0-.58-.36,3.33,3.33,0,0,0-.64-.24,2.43,2.43,0,0,0-.65-.09,3.82,3.82,0,0,0-1.86.44,3,3,0,0,0-1.23,1.23,4.07,4.07,0,0,0,0,3.68,3.07,3.07,0,0,0,1.22,1.23,3.75,3.75,0,0,0,1.83.43,3.27,3.27,0,0,0,.88-.11,4,4,0,0,0,.83-.33,3.09,3.09,0,0,0,.69-.51l.26-.21a.35.35,0,0,1,.25-.09.33.33,0,0,1,.22.09,1.23,1.23,0,0,1,.22.23.31.31,0,0,1,.09.18.41.41,0,0,1,0,.22.45.45,0,0,1-.12.21,4.09,4.09,0,0,1-1,.7,5.57,5.57,0,0,1-1.16.48A4.23,4.23,0,0,1,184,95.3Z"/><path class="cls-1" d="M194,95.34a5.36,5.36,0,0,1-1.91-.34,4.27,4.27,0,0,1-2.44-2.46,5.22,5.22,0,0,1-.34-1.9,4.24,4.24,0,0,1,2.22-3.79,5,5,0,0,1,2.4-.58,4.5,4.5,0,0,1,1.59.27,4.19,4.19,0,0,1,1.26.72,3.41,3.41,0,0,1,.82,1,2.64,2.64,0,0,1,.3,1.21,1.53,1.53,0,0,1-.43,1.27,1.63,1.63,0,0,1-1,.33h-6a2.61,2.61,0,0,0,.51,1.73A3.59,3.59,0,0,0,192.32,94a3.88,3.88,0,0,0,1.67.39,6.6,6.6,0,0,0,.95-.06,3.76,3.76,0,0,0,.71-.16,5,5,0,0,0,.5-.21l.38-.21.32-.16a.78.78,0,0,1,.22,0,.19.19,0,0,1,.18.11,1,1,0,0,1,.14.24.8.8,0,0,1,0,.23c0,.12-.15.27-.45.47a5.47,5.47,0,0,1-1.24.53A5.83,5.83,0,0,1,194,95.34Zm-3.55-5.13h5.66a1.52,1.52,0,0,0,.59-.09c.14-.05.21-.24.21-.56a1.88,1.88,0,0,0-.39-1.15,2.76,2.76,0,0,0-1.05-.84,3.4,3.4,0,0,0-1.52-.33,4.12,4.12,0,0,0-1.76.38,3.19,3.19,0,0,0-1.28,1.06A2.49,2.49,0,0,0,190.45,90.21Z"/><path class="cls-1" d="M201,95.3a.68.68,0,0,1-.31-.06.31.31,0,0,1-.16-.19,1.06,1.06,0,0,1-.05-.34V86.79a1,1,0,0,1,.05-.35.27.27,0,0,1,.16-.17,1.42,1.42,0,0,1,.33,0,1.35,1.35,0,0,1,.31,0,.3.3,0,0,1,.18.17.82.82,0,0,1,.06.35v.8A4.63,4.63,0,0,1,202,87a1.83,1.83,0,0,1,.45-.47,2,2,0,0,1,.66-.31,3.36,3.36,0,0,1,1-.12,2.47,2.47,0,0,1,.56.06,2.88,2.88,0,0,1,.47.15,2.43,2.43,0,0,1,.37.21,1,1,0,0,1,.23.23.43.43,0,0,1,.08.23.54.54,0,0,1-.21.42.6.6,0,0,1-.7.1,1.46,1.46,0,0,1-.21-.16,1,1,0,0,0-.35-.16,2.41,2.41,0,0,0-.7-.07,1.93,1.93,0,0,0-.63.12,2.85,2.85,0,0,0-.65.37,2,2,0,0,0-.52.65,2,2,0,0,0-.21,1v5.55a1,1,0,0,1,0,.33.29.29,0,0,1-.17.17A1,1,0,0,1,201,95.3Z"/><path class="cls-1" d="M212.45,95.3a5.59,5.59,0,0,1-1.91-.32,4.62,4.62,0,0,1-1.49-.92,4,4,0,0,1-1-1.43,5.35,5.35,0,0,1,0-3.7,4.16,4.16,0,0,1,.95-1.44,4.38,4.38,0,0,1,1.47-.93,5.32,5.32,0,0,1,1.91-.32,4,4,0,0,1,1.28.22,4.67,4.67,0,0,1,1.19.57,2.25,2.25,0,0,1,.76.78,1.12,1.12,0,0,1,.13.36.32.32,0,0,1-.1.23.82.82,0,0,1-.25.21.59.59,0,0,1-.26.08.58.58,0,0,1-.44-.27,2.22,2.22,0,0,0-.45-.47,3.48,3.48,0,0,0-1.22-.6,2.35,2.35,0,0,0-.64-.09,3.88,3.88,0,0,0-1.87.44,3,3,0,0,0-1.23,1.23,4.07,4.07,0,0,0,0,3.68,3.07,3.07,0,0,0,1.22,1.23,3.76,3.76,0,0,0,1.84.43,3.24,3.24,0,0,0,.87-.11,4.31,4.31,0,0,0,.84-.33,3.27,3.27,0,0,0,.68-.51l.26-.21a.37.37,0,0,1,.25-.09.33.33,0,0,1,.22.09,1,1,0,0,1,.22.23.4.4,0,0,1,.1.18.55.55,0,0,1,0,.22.39.39,0,0,1-.13.21,3.72,3.72,0,0,1-1,.7,5.57,5.57,0,0,1-1.16.48A4.11,4.11,0,0,1,212.45,95.3Z"/><path class="cls-1" d="M226.17,95.28a.47.47,0,0,1-.38-.13,1,1,0,0,1-.15-.5V93.38a4.19,4.19,0,0,1-.66.81,3.8,3.8,0,0,1-1.16.78,4,4,0,0,1-1.71.33A4.17,4.17,0,0,1,219,94a4.65,4.65,0,0,1-.92-1.45,4.84,4.84,0,0,1-.34-1.8,4.57,4.57,0,0,1,.34-1.74,4.37,4.37,0,0,1,.93-1.42,4.43,4.43,0,0,1,1.38-1,4.09,4.09,0,0,1,1.71-.35,4.66,4.66,0,0,1,1.53.22,4.22,4.22,0,0,1,1.12.63,6,6,0,0,1,.88.93V86.94a.94.94,0,0,1,.12-.54.5.5,0,0,1,.43-.16.55.55,0,0,1,.29.06.47.47,0,0,1,.16.22,1.56,1.56,0,0,1,0,.42v7.71a1.22,1.22,0,0,1,0,.37.33.33,0,0,1-.16.2A.68.68,0,0,1,226.17,95.28Zm-3.86-1a3.08,3.08,0,0,0,1.66-.46,3.44,3.44,0,0,0,1.18-1.27,4.11,4.11,0,0,0,0-3.7,3.46,3.46,0,0,0-1.21-1.25,3.22,3.22,0,0,0-1.64-.44,3.51,3.51,0,0,0-1.83.47,3.38,3.38,0,0,0-1.21,1.28,3.76,3.76,0,0,0-.44,1.86,3.58,3.58,0,0,0,.44,1.8,3.24,3.24,0,0,0,1.23,1.26A3.69,3.69,0,0,0,222.31,94.31Z"/><path class="cls-1" d="M230.16,95.3a.61.61,0,0,1-.3-.06.28.28,0,0,1-.16-.19.84.84,0,0,1,0-.34V86.79a.84.84,0,0,1,0-.35.25.25,0,0,1,.16-.17,1.27,1.27,0,0,1,.32,0,1.3,1.3,0,0,1,.31,0,.26.26,0,0,1,.18.17.82.82,0,0,1,.06.35v.8a6.06,6.06,0,0,1,.38-.59,2.05,2.05,0,0,1,.46-.47,1.87,1.87,0,0,1,.65-.31,3.4,3.4,0,0,1,1-.12,2.47,2.47,0,0,1,.56.06,3.37,3.37,0,0,1,.48.15,3,3,0,0,1,.37.21,1.25,1.25,0,0,1,.23.23.41.41,0,0,1,.07.23.54.54,0,0,1-.21.42.64.64,0,0,1-.38.17.62.62,0,0,1-.31-.07,2.39,2.39,0,0,1-.22-.16,1,1,0,0,0-.34-.16,2.46,2.46,0,0,0-.7-.07,1.89,1.89,0,0,0-.63.12,2.71,2.71,0,0,0-.66.37,2,2,0,0,0-.52.65,2,2,0,0,0-.21,1v5.55a.76.76,0,0,1,0,.33.29.29,0,0,1-.17.17A1,1,0,0,1,230.16,95.3Z"/><path class="cls-1" d="M240.36,95.36a4.46,4.46,0,0,1-.88-.09,4.65,4.65,0,0,1-.85-.25,3.3,3.3,0,0,1-.75-.38,2.05,2.05,0,0,1-.56-.48,2,2,0,0,1-.19-.32.36.36,0,0,1,0-.25.6.6,0,0,1,.18-.21.47.47,0,0,1,.4-.19,1.18,1.18,0,0,1,.5.36,1.58,1.58,0,0,0,.44.35,3.25,3.25,0,0,0,.56.28,5.1,5.1,0,0,0,.61.17,3,3,0,0,0,.57.06,3.13,3.13,0,0,0,1.69-.41,1.26,1.26,0,0,0,.65-1.11,1.44,1.44,0,0,0-.13-.64,1.37,1.37,0,0,0-.36-.46,2.83,2.83,0,0,0-.53-.34,4.75,4.75,0,0,0-.64-.24l-.72-.2q-.53-.14-1.05-.3a4.24,4.24,0,0,1-.94-.41,2,2,0,0,1-.67-.64,1.81,1.81,0,0,1-.26-1,2.1,2.1,0,0,1,.37-1.25,2.46,2.46,0,0,1,1-.84,3.74,3.74,0,0,1,1.54-.3,5.17,5.17,0,0,1,.82.06,3.9,3.9,0,0,1,.71.2,4.65,4.65,0,0,1,.63.32,2.79,2.79,0,0,1,.54.42.69.69,0,0,1,.25.38.49.49,0,0,1-.13.36.63.63,0,0,1-.37.22.46.46,0,0,1-.39-.18,3.06,3.06,0,0,0-.64-.48,3.44,3.44,0,0,0-.69-.28,2.86,2.86,0,0,0-.73-.09,2.55,2.55,0,0,0-1,.18,1.5,1.5,0,0,0-.68.51,1.28,1.28,0,0,0-.24.77.85.85,0,0,0,.17.54,1.26,1.26,0,0,0,.42.37,3.72,3.72,0,0,0,.63.27l.76.23,1.16.33a5,5,0,0,1,1.07.47,2.42,2.42,0,0,1,.79.77,2.3,2.3,0,0,1,.3,1.24,2.12,2.12,0,0,1-1,1.82A4,4,0,0,1,240.36,95.36Z"/><path class="cls-1" d="M250.66,95.34a5.36,5.36,0,0,1-1.91-.34,4.27,4.27,0,0,1-2.44-2.46,5,5,0,0,1-.34-1.9,4.24,4.24,0,0,1,2.22-3.79,5,5,0,0,1,2.4-.58,4.5,4.5,0,0,1,1.59.27,4.32,4.32,0,0,1,1.26.72,3.41,3.41,0,0,1,.82,1,2.64,2.64,0,0,1,.3,1.21,1.56,1.56,0,0,1-.43,1.27,1.66,1.66,0,0,1-1,.33h-6a2.61,2.61,0,0,0,.5,1.73A3.62,3.62,0,0,0,249,94a3.87,3.87,0,0,0,1.66.39,6.65,6.65,0,0,0,1-.06,3.64,3.64,0,0,0,.7-.16,4.42,4.42,0,0,0,.51-.21l.38-.21a1.91,1.91,0,0,1,.32-.16.78.78,0,0,1,.22,0,.22.22,0,0,1,.18.11,1,1,0,0,1,.13.24.56.56,0,0,1,0,.23c0,.12-.15.27-.45.47a5.47,5.47,0,0,1-1.24.53A5.83,5.83,0,0,1,250.66,95.34Zm-3.55-5.13h5.66a1.55,1.55,0,0,0,.59-.09c.14-.05.21-.24.21-.56a1.88,1.88,0,0,0-.39-1.15,2.76,2.76,0,0,0-1.05-.84,3.41,3.41,0,0,0-1.53-.33,4.11,4.11,0,0,0-1.75.38,3.3,3.3,0,0,0-1.29,1.06A2.55,2.55,0,0,0,247.11,90.21Z"/><path class="cls-1" d="M266.3,95.3a4.37,4.37,0,0,1-1.65-.32,4,4,0,0,1-1.33-.93,4.49,4.49,0,0,1-.9-1.46,5.28,5.28,0,0,1-.32-1.87,5.09,5.09,0,0,1,.32-1.83,4.46,4.46,0,0,1,.9-1.43,4,4,0,0,1,1.33-.92,4.37,4.37,0,0,1,1.65-.32,4.53,4.53,0,0,1,1.71.32,4,4,0,0,1,1.35.93,4.34,4.34,0,0,1,.88,1.45,5.71,5.71,0,0,1,0,3.71,4.25,4.25,0,0,1-.88,1.43A4.1,4.1,0,0,1,268,95,4.53,4.53,0,0,1,266.3,95.3Zm.17-1a3.15,3.15,0,0,0,2.87-1.68,3.73,3.73,0,0,0,.44-1.83,3.82,3.82,0,0,0-.44-1.86,3.2,3.2,0,0,0-2.87-1.7,3.26,3.26,0,0,0-1.69.45,3.14,3.14,0,0,0-1.2,1.25,3.82,3.82,0,0,0-.44,1.86,3.73,3.73,0,0,0,.44,1.83,3.18,3.18,0,0,0,1.2,1.24A3.35,3.35,0,0,0,266.47,94.29Zm3.91,1a.58.58,0,0,1-.42-.13.61.61,0,0,1-.13-.44V82.63a1,1,0,0,1,.05-.35.32.32,0,0,1,.17-.19.91.91,0,0,1,.31,0,1,1,0,0,1,.33,0,.4.4,0,0,1,.17.19.75.75,0,0,1,.06.33v12.1a1.06,1.06,0,0,1-.05.34.31.31,0,0,1-.16.19A.75.75,0,0,1,270.38,95.3Z"/><path class="cls-1" d="M278.14,95.34a5.28,5.28,0,0,1-1.91-.34,4.24,4.24,0,0,1-2.45-2.46,5.22,5.22,0,0,1-.34-1.9,4.22,4.22,0,0,1,2.23-3.79,4.89,4.89,0,0,1,2.39-.58,4.59,4.59,0,0,1,1.6.27,4.26,4.26,0,0,1,1.25.72,3.6,3.6,0,0,1,.83,1,2.76,2.76,0,0,1,.29,1.21,1.53,1.53,0,0,1-.43,1.27,1.63,1.63,0,0,1-1,.33h-6a2.61,2.61,0,0,0,.51,1.73A3.59,3.59,0,0,0,276.45,94a3.92,3.92,0,0,0,1.67.39,6.85,6.85,0,0,0,1-.06,3.83,3.83,0,0,0,.7-.16,5,5,0,0,0,.5-.21l.38-.21a2,2,0,0,1,.33-.16.66.66,0,0,1,.21,0,.19.19,0,0,1,.18.11,1,1,0,0,1,.14.24.8.8,0,0,1,0,.23c0,.12-.15.27-.45.47a5.28,5.28,0,0,1-1.24.53A5.81,5.81,0,0,1,278.14,95.34Zm-3.56-5.13h5.66a1.52,1.52,0,0,0,.59-.09c.14-.05.21-.24.21-.56a1.88,1.88,0,0,0-.39-1.15,2.76,2.76,0,0,0-1-.84,3.4,3.4,0,0,0-1.52-.33,4.12,4.12,0,0,0-1.76.38A3.19,3.19,0,0,0,275,88.68,2.49,2.49,0,0,0,274.58,90.21Z"/><path class="cls-1" d="M285.13,95.28a.68.68,0,0,1-.31-.06.29.29,0,0,1-.16-.18,1,1,0,0,1-.05-.33v-8a.72.72,0,0,1,.05-.29.33.33,0,0,1,.17-.16,1,1,0,0,1,.32,0,.52.52,0,0,1,.38.11.56.56,0,0,1,.11.38v1.14a2.13,2.13,0,0,1,.48-.7,3.15,3.15,0,0,1,.72-.52,3.65,3.65,0,0,1,.82-.34,3.51,3.51,0,0,1,.83-.11,2.88,2.88,0,0,1,1.23.26,3.13,3.13,0,0,1,1,.75,4.56,4.56,0,0,1,.7,1.19,6.85,6.85,0,0,1,.88-1.24,2.69,2.69,0,0,1,1-.72,3.15,3.15,0,0,1,1.26-.24,3,3,0,0,1,1.8.53,3.29,3.29,0,0,1,1.07,1.48,6.36,6.36,0,0,1,.36,2.25v4.27a.76.76,0,0,1-.05.33.27.27,0,0,1-.16.17.85.85,0,0,1-.32,0,.75.75,0,0,1-.33-.06.26.26,0,0,1-.17-.18.76.76,0,0,1-.05-.33V90.44a5.41,5.41,0,0,0-.24-1.7,2.42,2.42,0,0,0-.71-1.14,1.8,1.8,0,0,0-1.24-.41,2.49,2.49,0,0,0-1.42.41,2.76,2.76,0,0,0-1,1.14,3.77,3.77,0,0,0-.36,1.7v4.31a.61.61,0,0,1-.12.39.56.56,0,0,1-.31.17.53.53,0,0,1-.33,0,.49.49,0,0,1-.19-.1.32.32,0,0,1-.1-.18,1.12,1.12,0,0,1,0-.27V90.44a5.41,5.41,0,0,0-.24-1.7,2.5,2.5,0,0,0-.71-1.14,1.8,1.8,0,0,0-1.24-.41,2.46,2.46,0,0,0-1.42.41,2.76,2.76,0,0,0-1,1.14,3.77,3.77,0,0,0-.36,1.7v4.29a1,1,0,0,1-.05.33.29.29,0,0,1-.17.17A1,1,0,0,1,285.13,95.28Z"/><path class="cls-1" d="M308.67,95.28a.46.46,0,0,1-.38-.13.89.89,0,0,1-.15-.5V93.38a4.19,4.19,0,0,1-.66.81,3.92,3.92,0,0,1-1.16.78,4.06,4.06,0,0,1-1.72.33A4.12,4.12,0,0,1,301.51,94a4.5,4.5,0,0,1-.93-1.45,4.84,4.84,0,0,1-.33-1.8,4.45,4.45,0,0,1,1.26-3.16,4.47,4.47,0,0,1,1.39-1,4,4,0,0,1,1.7-.35,4.58,4.58,0,0,1,1.53.22,3.92,3.92,0,0,1,1.12.63,5.62,5.62,0,0,1,.89.93V86.94a.94.94,0,0,1,.12-.54.49.49,0,0,1,.43-.16.6.6,0,0,1,.29.06.4.4,0,0,1,.15.22,1.2,1.2,0,0,1,.05.42v7.71a.94.94,0,0,1-.05.37.28.28,0,0,1-.16.2A.64.64,0,0,1,308.67,95.28Zm-3.86-1a3,3,0,0,0,1.65-.46,3.29,3.29,0,0,0,1.18-1.27,3.74,3.74,0,0,0,.44-1.82,3.66,3.66,0,0,0-.46-1.88,3.35,3.35,0,0,0-1.2-1.25,3.23,3.23,0,0,0-1.65-.44,3.5,3.5,0,0,0-1.82.47,3.41,3.41,0,0,0-1.22,1.28,3.87,3.87,0,0,0-.43,1.86,3.69,3.69,0,0,0,.43,1.8A3.26,3.26,0,0,0,303,93.86,3.66,3.66,0,0,0,304.81,94.31Z"/><path class="cls-1" d="M315,95.36a4.46,4.46,0,0,1-.88-.09,5,5,0,0,1-.86-.25,3.77,3.77,0,0,1-.75-.38,2.16,2.16,0,0,1-.55-.48,2,2,0,0,1-.19-.32.36.36,0,0,1,0-.25.51.51,0,0,1,.18-.21.47.47,0,0,1,.4-.19,1.24,1.24,0,0,1,.5.36,1.69,1.69,0,0,0,.43.35,3.77,3.77,0,0,0,.57.28,5.1,5.1,0,0,0,.61.17,2.91,2.91,0,0,0,.57.06,3.13,3.13,0,0,0,1.69-.41,1.26,1.26,0,0,0,.65-1.11,1.59,1.59,0,0,0-.13-.64,1.37,1.37,0,0,0-.36-.46,2.83,2.83,0,0,0-.53-.34,4.75,4.75,0,0,0-.64-.24L315,91q-.53-.14-1.05-.3a4.24,4.24,0,0,1-.94-.41,2.08,2.08,0,0,1-.68-.64,1.89,1.89,0,0,1-.25-1,2.1,2.1,0,0,1,.37-1.25,2.46,2.46,0,0,1,1-.84,3.74,3.74,0,0,1,1.54-.3,5.27,5.27,0,0,1,.82.06,3.9,3.9,0,0,1,.71.2,4.65,4.65,0,0,1,.63.32,2.79,2.79,0,0,1,.54.42.69.69,0,0,1,.25.38.49.49,0,0,1-.13.36.63.63,0,0,1-.37.22.46.46,0,0,1-.39-.18,3.06,3.06,0,0,0-.64-.48,3.44,3.44,0,0,0-.69-.28,2.86,2.86,0,0,0-.73-.09,2.55,2.55,0,0,0-1,.18,1.5,1.5,0,0,0-.68.51,1.28,1.28,0,0,0-.24.77.91.91,0,0,0,.16.54,1.3,1.3,0,0,0,.43.37,3.72,3.72,0,0,0,.63.27l.76.23,1.16.33a5,5,0,0,1,1.07.47,2.53,2.53,0,0,1,.79.77,2.3,2.3,0,0,1,.3,1.24,2.12,2.12,0,0,1-1,1.82A4.07,4.07,0,0,1,315,95.36Z"/><path class="cls-1" d="M321.8,83.5a.83.83,0,0,1-.42-.08.43.43,0,0,1-.22-.24,1.35,1.35,0,0,1-.07-.44,1.14,1.14,0,0,1,.07-.42.41.41,0,0,1,.23-.22,1.25,1.25,0,0,1,.42-.06,1,1,0,0,1,.42.07.47.47,0,0,1,.22.24,1.12,1.12,0,0,1,.07.45,1,1,0,0,1-.07.41.4.4,0,0,1-.22.22A1,1,0,0,1,321.8,83.5Zm0,11.8a.73.73,0,0,1-.32-.06.3.3,0,0,1-.17-.18,1,1,0,0,1-.05-.33V86.79a1,1,0,0,1,.05-.33.3.3,0,0,1,.17-.18,1,1,0,0,1,.33,0,1,1,0,0,1,.33.05.35.35,0,0,1,.16.18,1.11,1.11,0,0,1,.05.36v7.92a1,1,0,0,1-.05.33.29.29,0,0,1-.17.17A1,1,0,0,1,321.8,95.3Z"/><path class="cls-1" d="M333.42,95.28a.49.49,0,0,1-.38-.13,1.09,1.09,0,0,1-.15-.5V93.38a4.49,4.49,0,0,1-.65.81,3.94,3.94,0,0,1-2.88,1.11,4.17,4.17,0,0,1-3.1-1.33,4.65,4.65,0,0,1-.92-1.45,4.84,4.84,0,0,1-.33-1.8,4.57,4.57,0,0,1,.33-1.74,4.47,4.47,0,0,1,2.32-2.39,4,4,0,0,1,1.7-.35,4.66,4.66,0,0,1,1.53.22,4.07,4.07,0,0,1,1.12.63,5.56,5.56,0,0,1,.88.93V86.94a.94.94,0,0,1,.12-.54.52.52,0,0,1,.43-.16.61.61,0,0,1,.3.06.4.4,0,0,1,.15.22,1.5,1.5,0,0,1,.05.42v7.71a1.18,1.18,0,0,1-.05.37.3.3,0,0,1-.16.2A.68.68,0,0,1,333.42,95.28Zm-3.85-1a3,3,0,0,0,1.65-.46,3.36,3.36,0,0,0,1.18-1.27,4,4,0,0,0,0-3.7,3.46,3.46,0,0,0-1.21-1.25,3.22,3.22,0,0,0-1.64-.44,3.45,3.45,0,0,0-1.82.47,3.41,3.41,0,0,0-1.22,1.28,3.87,3.87,0,0,0-.44,1.86,3.69,3.69,0,0,0,.44,1.8,3.24,3.24,0,0,0,1.23,1.26A3.73,3.73,0,0,0,329.57,94.31Z"/><path class="cls-1" d="M340.81,95.3a4.28,4.28,0,0,1-1.64-.32,4,4,0,0,1-1.34-.93,4.31,4.31,0,0,1-.89-1.46,5.06,5.06,0,0,1-.32-1.87,4.89,4.89,0,0,1,.32-1.83,4.27,4.27,0,0,1,.89-1.43,4,4,0,0,1,1.34-.92,4.28,4.28,0,0,1,1.64-.32,4.49,4.49,0,0,1,1.71.32,4,4,0,0,1,1.35.93,4.36,4.36,0,0,1,.89,1.45,5.71,5.71,0,0,1,0,3.71,4.27,4.27,0,0,1-.89,1.43,4.1,4.1,0,0,1-1.35.92A4.49,4.49,0,0,1,340.81,95.3Zm.18-1a3.3,3.3,0,0,0,1.69-.44,3.25,3.25,0,0,0,1.17-1.24,3.62,3.62,0,0,0,.44-1.83,3.71,3.71,0,0,0-.44-1.86,3.16,3.16,0,0,0-1.18-1.25,3.2,3.2,0,0,0-1.68-.45,3.27,3.27,0,0,0-1.7.45,3.19,3.19,0,0,0-1.19,1.25,3.82,3.82,0,0,0-.44,1.86,3.73,3.73,0,0,0,.44,1.83,3.23,3.23,0,0,0,1.19,1.24A3.36,3.36,0,0,0,341,94.29Zm3.91,1a.61.61,0,0,1-.43-.13.66.66,0,0,1-.12-.44V82.63a.81.81,0,0,1,0-.35.29.29,0,0,1,.17-.19.87.87,0,0,1,.31,0,.85.85,0,0,1,.32,0,.32.32,0,0,1,.17.19.75.75,0,0,1,.06.33v12.1a.84.84,0,0,1-.05.34.28.28,0,0,1-.16.19A.67.67,0,0,1,344.9,95.3Z"/><path class="cls-1" d="M352.48,95.38a4.52,4.52,0,0,1-1.79-.37,5,5,0,0,1-1.47-1,4.85,4.85,0,0,1-1-1.47,4.63,4.63,0,0,1,0-3.58,4.52,4.52,0,0,1,1-1.46,4.7,4.7,0,0,1,1.47-1,4.54,4.54,0,0,1,1.77-.35,4.5,4.5,0,0,1,3.94,2.23,4.59,4.59,0,0,1,.6,2.35,4.51,4.51,0,0,1-.35,1.82,4.59,4.59,0,0,1-1,1.47,4.53,4.53,0,0,1-1.43,1A4.32,4.32,0,0,1,352.48,95.38Zm0-1a3.32,3.32,0,0,0,1.76-.48,3.52,3.52,0,0,0,1.25-1.32,3.67,3.67,0,0,0,.47-1.83,3.54,3.54,0,0,0-.46-1.82,3.31,3.31,0,0,0-1.24-1.25,3.58,3.58,0,0,0-1.8-.44,3.39,3.39,0,0,0-1.77.46,3.46,3.46,0,0,0-1.26,1.26,3.56,3.56,0,0,0-.46,1.81,3.64,3.64,0,0,0,.46,1.84,3.44,3.44,0,0,0,3.05,1.77Z"/><path class="cls-1" d="M360,95.3a.81.81,0,0,1-.58-.16.83.83,0,0,1-.16-.56,1.12,1.12,0,0,1,.07-.45.41.41,0,0,1,.24-.24,1.08,1.08,0,0,1,.43-.07.79.79,0,0,1,.58.16.81.81,0,0,1,.16.58,1.25,1.25,0,0,1-.06.44.4.4,0,0,1-.23.23A1.12,1.12,0,0,1,360,95.3Z"/><circle class="cls-1" cx="6.09" cy="6.48" r="3"/><circle class="cls-1" cx="6.09" cy="65.48" r="3"/><rect class="cls-2" y="0.04" width="429" height="216"/></g></g></svg>