<svg xmlns="http://www.w3.org/2000/svg" viewBox="0 0 429 216"><defs><style>.cls-1{fill:#fff;}.cls-2{fill:none;}</style></defs><title>pag32</title><g id="Layer_2" data-name="Layer 2"><g id="Paso_4" data-name="Paso 4"><path class="cls-1" d="M.94,13.56A.83.83,0,0,1,.6,13.5a.35.35,0,0,1-.17-.19,1.09,1.09,0,0,1,0-.34V.86A.71.71,0,0,1,.45.55.46.46,0,0,1,.65.36.74.74,0,0,1,1,.29H5.23A5,5,0,0,1,7,.57a3.14,3.14,0,0,1,1.27.82A3.52,3.52,0,0,1,9,2.69,4.87,4.87,0,0,1,9.3,4.42,4.85,4.85,0,0,1,9,6.14a3.41,3.41,0,0,1-.81,1.28,3.59,3.59,0,0,1-1.28.81,5,5,0,0,1-1.72.27H1.53V13a.78.78,0,0,1-.06.33.39.39,0,0,1-.18.18A.82.82,0,0,1,.94,13.56Zm.59-6.2h3.7A3.28,3.28,0,0,0,6.82,7a2.45,2.45,0,0,0,1-1,3.47,3.47,0,0,0,.35-1.6,3.39,3.39,0,0,0-.35-1.59,2.48,2.48,0,0,0-1-1,3.44,3.44,0,0,0-1.6-.35H1.53Z"/><path class="cls-1" d="M19.88,13.54a.48.48,0,0,1-.38-.14.83.83,0,0,1-.15-.49V11.64a3.89,3.89,0,0,1-.66.8,3.8,3.8,0,0,1-1.16.78,4,4,0,0,1-1.71.34,4.12,4.12,0,0,1-1.73-.36,4.27,4.27,0,0,1-1.37-1,4.7,4.7,0,0,1-.92-1.46A4.79,4.79,0,0,1,11.46,9a4.57,4.57,0,0,1,.34-1.74,4.42,4.42,0,0,1,.93-1.43,4.6,4.6,0,0,1,1.38-1,4.25,4.25,0,0,1,1.71-.35,4.54,4.54,0,0,1,1.52.23,3.66,3.66,0,0,1,1.13.63,5.22,5.22,0,0,1,.88.93V5.19a.94.94,0,0,1,.12-.54.54.54,0,0,1,.43-.16.48.48,0,0,1,.29.07.42.42,0,0,1,.16.22,1.53,1.53,0,0,1,0,.41v7.72a1.31,1.31,0,0,1,0,.37.38.38,0,0,1-.17.2A.61.61,0,0,1,19.88,13.54Zm-3.86-1a3.08,3.08,0,0,0,1.66-.47,3.38,3.38,0,0,0,1.17-1.26A3.65,3.65,0,0,0,19.29,9a3.76,3.76,0,0,0-.45-1.88,3.43,3.43,0,0,0-1.21-1.24A3.14,3.14,0,0,0,16,5.44a3.42,3.42,0,0,0-1.83.48A3.24,3.24,0,0,0,13,7.2a3.75,3.75,0,0,0-.44,1.85A3.62,3.62,0,0,0,13,10.86a3.15,3.15,0,0,0,1.23,1.25A3.69,3.69,0,0,0,16,12.57Z"/><path class="cls-1" d="M23.85,13.56a.61.61,0,0,1-.3-.06.31.31,0,0,1-.16-.19.84.84,0,0,1-.05-.34V5a.84.84,0,0,1,.05-.35.25.25,0,0,1,.16-.16,1.26,1.26,0,0,1,.63,0,.26.26,0,0,1,.18.16.82.82,0,0,1,.06.35v.8c.13-.21.25-.41.38-.59a2.23,2.23,0,0,1,.46-.46,1.88,1.88,0,0,1,.65-.32,3.84,3.84,0,0,1,1-.11,2.47,2.47,0,0,1,.56.06,1.92,1.92,0,0,1,.48.15,1.63,1.63,0,0,1,.37.21.91.91,0,0,1,.22.22.38.38,0,0,1,.08.23.51.51,0,0,1-.21.42.64.64,0,0,1-.38.17.53.53,0,0,1-.31-.07,1.34,1.34,0,0,1-.22-.16,1.2,1.2,0,0,0-.34-.16,3,3,0,0,0-.71-.06,1.93,1.93,0,0,0-.62.12,2.41,2.41,0,0,0-.66.37,1.89,1.89,0,0,0-.52.65,2,2,0,0,0-.21,1V13a.84.84,0,0,1-.05.34.29.29,0,0,1-.17.17A1,1,0,0,1,23.85,13.56Z"/><path class="cls-1" d="M39,13.54a.48.48,0,0,1-.38-.14,1,1,0,0,1-.15-.49V11.64a4.15,4.15,0,0,1-.65.8,4.27,4.27,0,0,1-4.6.76,4.21,4.21,0,0,1-1.38-1,4.7,4.7,0,0,1-.92-1.46A4.79,4.79,0,0,1,30.6,9a4.57,4.57,0,0,1,.33-1.74,4.42,4.42,0,0,1,.93-1.43,4.52,4.52,0,0,1,1.39-1A4.17,4.17,0,0,1,35,4.49a4.65,4.65,0,0,1,1.53.23,3.73,3.73,0,0,1,1.12.63,4.88,4.88,0,0,1,.88.93V5.19a.94.94,0,0,1,.12-.54A.55.55,0,0,1,39,4.49a.51.51,0,0,1,.3.07.36.36,0,0,1,.15.22,1.47,1.47,0,0,1,.05.41v7.72a1.27,1.27,0,0,1-.05.37.36.36,0,0,1-.16.2A.68.68,0,0,1,39,13.54Zm-3.85-1a3.05,3.05,0,0,0,1.65-.47A3.41,3.41,0,0,0,38,10.84,3.75,3.75,0,0,0,38.42,9,3.76,3.76,0,0,0,38,7.13a3.43,3.43,0,0,0-1.21-1.24,3.14,3.14,0,0,0-1.64-.45,3.42,3.42,0,0,0-1.83.48A3.24,3.24,0,0,0,32.08,7.2a3.86,3.86,0,0,0-.44,1.85,3.73,3.73,0,0,0,.44,1.81,3.15,3.15,0,0,0,1.23,1.25A3.7,3.7,0,0,0,35.16,12.57Z"/><path class="cls-1" d="M51.82,13.59a5.11,5.11,0,0,1-1.91-.34,4.19,4.19,0,0,1-1.48-1,4.35,4.35,0,0,1-1-1.48,5,5,0,0,1-.34-1.9,4.28,4.28,0,0,1,.58-2.22,4.34,4.34,0,0,1,1.64-1.57,4.78,4.78,0,0,1,2.39-.58,4.51,4.51,0,0,1,1.6.27,3.76,3.76,0,0,1,1.25.72,3.29,3.29,0,0,1,.83,1,2.67,2.67,0,0,1,.29,1.22A1.54,1.54,0,0,1,55.29,9a1.66,1.66,0,0,1-1,.34h-6a2.58,2.58,0,0,0,.5,1.72,3.65,3.65,0,0,0,1.37,1.12,3.83,3.83,0,0,0,1.66.38,6.79,6.79,0,0,0,1,0,3.64,3.64,0,0,0,.7-.16,4.42,4.42,0,0,0,.51-.21l.38-.21a1.36,1.36,0,0,1,.32-.16.38.38,0,0,1,.22,0,.24.24,0,0,1,.18.1,1.47,1.47,0,0,1,.13.24.61.61,0,0,1,0,.24c0,.11-.15.27-.46.46a4.78,4.78,0,0,1-1.23.54A6.24,6.24,0,0,1,51.82,13.59ZM48.27,8.46h5.66a1.82,1.82,0,0,0,.59-.08c.14-.06.21-.25.21-.56a1.88,1.88,0,0,0-.39-1.15,2.91,2.91,0,0,0-1.06-.85,3.5,3.5,0,0,0-1.52-.32A4.15,4.15,0,0,0,50,5.88a3.23,3.23,0,0,0-1.28,1A2.48,2.48,0,0,0,48.27,8.46Z"/><path class="cls-1" d="M60.77,13.56a3.5,3.5,0,0,1-1-.12,2.35,2.35,0,0,1-.75-.34,1.84,1.84,0,0,1-.54-.57,2.41,2.41,0,0,1-.33-.8,4.49,4.49,0,0,1-.1-1V.84a.86.86,0,0,1,0-.35.3.3,0,0,1,.17-.18.68.68,0,0,1,.31-.06A1,1,0,0,1,59,.3a.29.29,0,0,1,.18.16.75.75,0,0,1,.06.33v10a2.3,2.3,0,0,0,.1.73,1.41,1.41,0,0,0,.29.54,1.27,1.27,0,0,0,.49.32,2.07,2.07,0,0,0,.68.1,1,1,0,0,1,.35.05.33.33,0,0,1,.18.17.75.75,0,0,1,.06.33.83.83,0,0,1-.06.34.33.33,0,0,1-.18.17A1,1,0,0,1,60.77,13.56Z"/><path class="cls-1" d="M66.2,13.56a3.6,3.6,0,0,1-1-.12,2.57,2.57,0,0,1-.75-.34,2.1,2.1,0,0,1-.54-.57,2.4,2.4,0,0,1-.32-.8,4.46,4.46,0,0,1-.11-1V.84a1.08,1.08,0,0,1,0-.35.33.33,0,0,1,.17-.18.71.71,0,0,1,.31-.06,1.06,1.06,0,0,1,.34,0,.35.35,0,0,1,.18.16.76.76,0,0,1,.05.33v10a2.63,2.63,0,0,0,.1.73A1.41,1.41,0,0,0,65,12a1.3,1.3,0,0,0,.5.32,2,2,0,0,0,.67.1,1,1,0,0,1,.35.05.28.28,0,0,1,.18.17.75.75,0,0,1,.06.33.83.83,0,0,1-.06.34.28.28,0,0,1-.18.17A1,1,0,0,1,66.2,13.56Z"/><path class="cls-1" d="M73.1,13.63a4.47,4.47,0,0,1-1.79-.36,4.64,4.64,0,0,1-1.47-1A4.5,4.5,0,0,1,68.48,9a4.61,4.61,0,0,1,.35-1.79,4.88,4.88,0,0,1,1-1.47,4.63,4.63,0,0,1,1.46-1,4.42,4.42,0,0,1,1.78-.36A4.5,4.5,0,0,1,77.6,9a4.77,4.77,0,0,1-.35,1.83,4.72,4.72,0,0,1-1,1.46,4.39,4.39,0,0,1-1.43,1A4.48,4.48,0,0,1,73.1,13.63Zm0-1a3.32,3.32,0,0,0,1.76-.48,3.58,3.58,0,0,0,1.25-1.31A3.67,3.67,0,0,0,76.54,9a3.55,3.55,0,0,0-.46-1.83,3.28,3.28,0,0,0-1.24-1.24A3.59,3.59,0,0,0,73,5.46a3.45,3.45,0,0,0-1.78.47A3.46,3.46,0,0,0,69.55,9,3.67,3.67,0,0,0,70,10.84a3.54,3.54,0,0,0,1.26,1.29A3.42,3.42,0,0,0,73.06,12.6Z"/><path class="cls-1" d="M88.16,13.61a5.33,5.33,0,0,1-.88-.08,4.65,4.65,0,0,1-.85-.25,4.39,4.39,0,0,1-.75-.38,2,2,0,0,1-.55-.49,1.26,1.26,0,0,1-.19-.32.28.28,0,0,1,0-.25.48.48,0,0,1,.18-.2c.14-.16.27-.22.39-.19a1,1,0,0,1,.5.36,2.05,2.05,0,0,0,.44.35,2.5,2.5,0,0,0,.57.27,2.7,2.7,0,0,0,.6.17,3.43,3.43,0,0,0,2.27-.35,1.25,1.25,0,0,0,.64-1.11A1.35,1.35,0,0,0,90,10a2.16,2.16,0,0,0-.53-.33,3.71,3.71,0,0,0-.64-.25l-.71-.2c-.36-.09-.71-.18-1.06-.29a4.76,4.76,0,0,1-.94-.41,2,2,0,0,1-.67-.65,1.86,1.86,0,0,1-.26-1,2.15,2.15,0,0,1,.37-1.26,2.48,2.48,0,0,1,1-.83,3.51,3.51,0,0,1,1.53-.31,4.18,4.18,0,0,1,.82.07,3.32,3.32,0,0,1,.72.2,4,4,0,0,1,.62.31,2.49,2.49,0,0,1,.54.43.61.61,0,0,1,.25.38.52.52,0,0,1-.13.36.64.64,0,0,1-.36.22.47.47,0,0,1-.4-.18,3.12,3.12,0,0,0-.64-.49,3,3,0,0,0-.68-.27,2.59,2.59,0,0,0-.74-.1,2.55,2.55,0,0,0-1,.18,1.57,1.57,0,0,0-.68.52,1.25,1.25,0,0,0-.23.77.89.89,0,0,0,.16.54,1.38,1.38,0,0,0,.42.37,3.06,3.06,0,0,0,.63.26l.76.23,1.16.33a5,5,0,0,1,1.07.48,2.33,2.33,0,0,1,.79.77,2.29,2.29,0,0,1,.31,1.23,2.15,2.15,0,0,1-1,1.83A4.17,4.17,0,0,1,88.16,13.61Z"/><path class="cls-1" d="M98.44,13.59a5.15,5.15,0,0,1-1.91-.34,4.28,4.28,0,0,1-1.48-1,4.5,4.5,0,0,1-1-1.48,5.22,5.22,0,0,1-.34-1.9A4.24,4.24,0,0,1,96,5.11a4.84,4.84,0,0,1,2.4-.58A4.5,4.5,0,0,1,100,4.8a3.81,3.81,0,0,1,1.26.72,3.26,3.26,0,0,1,.82,1,2.68,2.68,0,0,1,.3,1.22A1.51,1.51,0,0,1,101.91,9a1.64,1.64,0,0,1-1,.34h-6a2.63,2.63,0,0,0,.5,1.72,3.65,3.65,0,0,0,1.37,1.12,3.86,3.86,0,0,0,1.66.38,6.79,6.79,0,0,0,1,0,3.76,3.76,0,0,0,.71-.16,5,5,0,0,0,.5-.21L101,12a1.36,1.36,0,0,1,.32-.16.41.41,0,0,1,.22,0,.22.22,0,0,1,.18.1,1,1,0,0,1,.14.24.88.88,0,0,1,0,.24c0,.11-.15.27-.45.46a5,5,0,0,1-1.24.54A6.19,6.19,0,0,1,98.44,13.59ZM94.89,8.46h5.66a1.78,1.78,0,0,0,.59-.08c.14-.06.21-.25.21-.56A1.88,1.88,0,0,0,101,6.67a2.88,2.88,0,0,0-1-.85,3.53,3.53,0,0,0-1.52-.32,4.12,4.12,0,0,0-1.76.38,3.1,3.1,0,0,0-1.28,1A2.49,2.49,0,0,0,94.89,8.46Z"/><path class="cls-1" d="M110.64,13.56a.61.61,0,0,1-.3-.06.31.31,0,0,1-.16-.19,1.06,1.06,0,0,1-.05-.34V5a1,1,0,0,1,.05-.35.25.25,0,0,1,.16-.16,1.26,1.26,0,0,1,.63,0,.31.31,0,0,1,.19.16,1,1,0,0,1,0,.35v.8l.38-.59a2.23,2.23,0,0,1,.46-.46,2,2,0,0,1,.65-.32,3.84,3.84,0,0,1,1-.11,2.47,2.47,0,0,1,.56.06,1.92,1.92,0,0,1,.48.15,1.63,1.63,0,0,1,.37.21,1.22,1.22,0,0,1,.23.22.43.43,0,0,1,.07.23.51.51,0,0,1-.21.42.64.64,0,0,1-.38.17.53.53,0,0,1-.31-.07,1.34,1.34,0,0,1-.22-.16,1.08,1.08,0,0,0-.34-.16,3,3,0,0,0-.7-.06,1.93,1.93,0,0,0-.63.12,2.41,2.41,0,0,0-.66.37,1.89,1.89,0,0,0-.52.65,2,2,0,0,0-.21,1V13a.84.84,0,0,1,0,.34.26.26,0,0,1-.17.17A1,1,0,0,1,110.64,13.56Z"/><path class="cls-1" d="M122.08,13.59a5.11,5.11,0,0,1-1.91-.34,4.19,4.19,0,0,1-1.48-1,4.5,4.5,0,0,1-1-1.48,5,5,0,0,1-.34-1.9A4.19,4.19,0,0,1,118,6.68a4.25,4.25,0,0,1,1.63-1.57A4.81,4.81,0,0,1,122,4.53a4.51,4.51,0,0,1,1.6.27,3.76,3.76,0,0,1,1.25.72,3.29,3.29,0,0,1,.83,1,2.68,2.68,0,0,1,.3,1.22A1.54,1.54,0,0,1,125.55,9a1.66,1.66,0,0,1-1,.34h-6a2.58,2.58,0,0,0,.5,1.72,3.65,3.65,0,0,0,1.37,1.12,3.83,3.83,0,0,0,1.66.38,6.79,6.79,0,0,0,1,0,3.64,3.64,0,0,0,.7-.16,4.42,4.42,0,0,0,.51-.21l.38-.21a1.36,1.36,0,0,1,.32-.16.4.4,0,0,1,.22,0,.24.24,0,0,1,.18.1,1,1,0,0,1,.13.24.61.61,0,0,1,0,.24c0,.11-.15.27-.46.46a4.78,4.78,0,0,1-1.23.54A6.24,6.24,0,0,1,122.08,13.59Zm-3.55-5.13h5.66a1.82,1.82,0,0,0,.59-.08c.14-.06.21-.25.21-.56a1.88,1.88,0,0,0-.39-1.15,2.83,2.83,0,0,0-1.06-.85A3.5,3.5,0,0,0,122,5.5a4.07,4.07,0,0,0-1.75.38,3.19,3.19,0,0,0-1.29,1A2.48,2.48,0,0,0,118.53,8.46Z"/><path class="cls-1" d="M132.66,13.56a5.36,5.36,0,0,1-1.91-.33,4.3,4.3,0,0,1-1.49-.92,4,4,0,0,1-1-1.42A5,5,0,0,1,128,9a5,5,0,0,1,.33-1.85,4.14,4.14,0,0,1,2.42-2.36,5.26,5.26,0,0,1,1.9-.33,4.26,4.26,0,0,1,1.29.22,5.38,5.38,0,0,1,1.18.57,2.1,2.1,0,0,1,.76.79.88.88,0,0,1,.14.36.34.34,0,0,1-.1.23.82.82,0,0,1-.25.21.56.56,0,0,1-.26.07.6.6,0,0,1-.44-.26,2.27,2.27,0,0,0-.45-.48,3.13,3.13,0,0,0-.58-.36,3.81,3.81,0,0,0-.64-.24,2.82,2.82,0,0,0-.65-.08,3.71,3.71,0,0,0-1.86.44,3.07,3.07,0,0,0-1.23,1.22A3.78,3.78,0,0,0,129.09,9a3.76,3.76,0,0,0,.44,1.84,3.11,3.11,0,0,0,1.22,1.22,3.76,3.76,0,0,0,1.84.44,3.26,3.26,0,0,0,.87-.12,3.34,3.34,0,0,0,.84-.33,2.92,2.92,0,0,0,.68-.5l.26-.22a.37.37,0,0,1,.25-.09.33.33,0,0,1,.22.09,1.79,1.79,0,0,1,.22.24.4.4,0,0,1,.1.18.55.55,0,0,1,0,.22.48.48,0,0,1-.13.21,4,4,0,0,1-1,.7,5.53,5.53,0,0,1-1.16.47A3.83,3.83,0,0,1,132.66,13.56Z"/><path class="cls-1" d="M142.47,13.63a4.47,4.47,0,0,1-1.79-.36,4.64,4.64,0,0,1-1.47-1A4.5,4.5,0,0,1,137.85,9a4.61,4.61,0,0,1,.35-1.79,4.7,4.7,0,0,1,1-1.47,4.52,4.52,0,0,1,1.46-1,4.42,4.42,0,0,1,1.78-.36A4.5,4.5,0,0,1,147,9a4.77,4.77,0,0,1-.35,1.83,4.72,4.72,0,0,1-1,1.46,4.33,4.33,0,0,1-1.44,1A4.4,4.4,0,0,1,142.47,13.63Zm0-1a3.32,3.32,0,0,0,1.76-.48,3.58,3.58,0,0,0,1.25-1.31,3.83,3.83,0,0,0,0-3.66,3.28,3.28,0,0,0-1.24-1.24,3.59,3.59,0,0,0-1.8-.45,3.45,3.45,0,0,0-1.78.47A3.5,3.5,0,0,0,138.91,9a3.68,3.68,0,0,0,.47,1.84,3.54,3.54,0,0,0,1.26,1.29A3.4,3.4,0,0,0,142.43,12.6Z"/><path class="cls-1" d="M150,13.54a.67.67,0,0,1-.3-.06.31.31,0,0,1-.16-.18,1,1,0,0,1-.05-.33V5a.78.78,0,0,1,.05-.3.28.28,0,0,1,.17-.15.87.87,0,0,1,.31,0,.43.43,0,0,1,.5.5V6.13a2.12,2.12,0,0,1,.48-.71,3.71,3.71,0,0,1,.71-.52,3.27,3.27,0,0,1,.83-.33,3,3,0,0,1,.83-.12,2.7,2.7,0,0,1,1.22.27,3.13,3.13,0,0,1,1,.75,4.16,4.16,0,0,1,.7,1.19,7.5,7.5,0,0,1,.89-1.25,3,3,0,0,1,1-.72,3.23,3.23,0,0,1,1.27-.24,2.87,2.87,0,0,1,1.79.54,3.13,3.13,0,0,1,1.08,1.48,6.3,6.3,0,0,1,.36,2.24V13a1,1,0,0,1-.05.33.27.27,0,0,1-.16.17.89.89,0,0,1-.32,0,.83.83,0,0,1-.34-.06.33.33,0,0,1-.17-.18,1,1,0,0,1-.05-.33V8.69a5.51,5.51,0,0,0-.23-1.7,2.5,2.5,0,0,0-.71-1.14,1.85,1.85,0,0,0-1.24-.41,2.54,2.54,0,0,0-1.42.41,2.76,2.76,0,0,0-1,1.14,3.83,3.83,0,0,0-.36,1.7V13a.57.57,0,0,1-.13.39.47.47,0,0,1-.3.18.61.61,0,0,1-.33-.05.5.5,0,0,1-.19-.11.33.33,0,0,1-.11-.18,1,1,0,0,1,0-.26V8.69a5.83,5.83,0,0,0-.23-1.7,2.44,2.44,0,0,0-.72-1.14,1.83,1.83,0,0,0-1.23-.41,2.6,2.6,0,0,0-1.43.41,2.74,2.74,0,0,0-1,1.14,3.7,3.7,0,0,0-.37,1.7V13a1,1,0,0,1,0,.33.31.31,0,0,1-.17.17A1.06,1.06,0,0,1,150,13.54Z"/><path class="cls-1" d="M166.24,1.76a1,1,0,0,1-.42-.08.42.42,0,0,1-.22-.25,1.08,1.08,0,0,1-.07-.43,1,1,0,0,1,.07-.42.39.39,0,0,1,.23-.22,1.18,1.18,0,0,1,.42-.07,1,1,0,0,1,.42.08.43.43,0,0,1,.22.24,1,1,0,0,1,.07.44,1,1,0,0,1-.07.41.39.39,0,0,1-.22.23A1.16,1.16,0,0,1,166.24,1.76Zm0,11.8a.73.73,0,0,1-.32-.06.33.33,0,0,1-.17-.18,1,1,0,0,1-.05-.33V5a1,1,0,0,1,.05-.33.29.29,0,0,1,.17-.17,1,1,0,0,1,.33,0,.75.75,0,0,1,.33.06.35.35,0,0,1,.16.18,1,1,0,0,1,0,.35V13a1.06,1.06,0,0,1,0,.34.29.29,0,0,1-.17.17A1,1,0,0,1,166.24,13.56Z"/><path class="cls-1" d="M174.12,13.59a5.11,5.11,0,0,1-1.91-.34,4.19,4.19,0,0,1-1.48-1,4.5,4.5,0,0,1-1-1.48,5,5,0,0,1-.34-1.9A4.19,4.19,0,0,1,170,6.68a4.25,4.25,0,0,1,1.63-1.57A4.83,4.83,0,0,1,174,4.53a4.51,4.51,0,0,1,1.6.27,3.76,3.76,0,0,1,1.25.72,3.29,3.29,0,0,1,.83,1,2.68,2.68,0,0,1,.3,1.22A1.54,1.54,0,0,1,177.59,9a1.66,1.66,0,0,1-1,.34h-6a2.58,2.58,0,0,0,.5,1.72,3.65,3.65,0,0,0,1.37,1.12,3.83,3.83,0,0,0,1.66.38,6.79,6.79,0,0,0,1,0,3.64,3.64,0,0,0,.7-.16,4.42,4.42,0,0,0,.51-.21l.38-.21a1.36,1.36,0,0,1,.32-.16.4.4,0,0,1,.22,0,.24.24,0,0,1,.18.1,1,1,0,0,1,.13.24.61.61,0,0,1,0,.24c0,.11-.15.27-.46.46a4.78,4.78,0,0,1-1.23.54A6.24,6.24,0,0,1,174.12,13.59Zm-3.55-5.13h5.66a1.82,1.82,0,0,0,.59-.08c.14-.06.21-.25.21-.56a1.88,1.88,0,0,0-.39-1.15,2.83,2.83,0,0,0-1.06-.85,3.5,3.5,0,0,0-1.52-.32,4.07,4.07,0,0,0-1.75.38,3.19,3.19,0,0,0-1.29,1A2.55,2.55,0,0,0,170.57,8.46Z"/><path class="cls-1" d="M181.09,13.54a.67.67,0,0,1-.3-.06.31.31,0,0,1-.16-.18,1,1,0,0,1,0-.33V5a.78.78,0,0,1,0-.3.28.28,0,0,1,.17-.15.91.91,0,0,1,.31,0,.75.75,0,0,1,.23,0,.38.38,0,0,1,.15.09.27.27,0,0,1,.09.15.75.75,0,0,1,0,.23V6.11a5.31,5.31,0,0,1,.55-.62,3.91,3.91,0,0,1,.67-.53,3.21,3.21,0,0,1,.82-.37,3.45,3.45,0,0,1,1-.14,4.18,4.18,0,0,1,1.51.28,3.37,3.37,0,0,1,1.2.8,3.53,3.53,0,0,1,.8,1.27,4.81,4.81,0,0,1,.29,1.72V13a1,1,0,0,1,0,.33.3.3,0,0,1-.16.17,1,1,0,0,1-.33,0,.78.78,0,0,1-.33-.06.33.33,0,0,1-.17-.18,1,1,0,0,1,0-.33V8.5a4,4,0,0,0-.3-1.61,2.39,2.39,0,0,0-.91-1.07,2.9,2.9,0,0,0-1.54-.38,3.18,3.18,0,0,0-1.58.38,2.63,2.63,0,0,0-1,1.07,3.27,3.27,0,0,0-.37,1.61V13a1,1,0,0,1,0,.33.29.29,0,0,1-.17.17A1.06,1.06,0,0,1,181.09,13.54Z"/><path class="cls-1" d="M195.31,13.56a4.12,4.12,0,0,1-1.65-.33,3.76,3.76,0,0,1-1.34-.93,4.26,4.26,0,0,1-.89-1.45A5.14,5.14,0,0,1,191.11,9a4.94,4.94,0,0,1,.32-1.84,4.23,4.23,0,0,1,.89-1.42,3.87,3.87,0,0,1,1.34-.92,4.12,4.12,0,0,1,1.65-.33,4.26,4.26,0,0,1,1.7.33,3.72,3.72,0,0,1,1.35.93,4.22,4.22,0,0,1,.89,1.44A5.26,5.26,0,0,1,199.56,9a5.22,5.22,0,0,1-.31,1.86,4.23,4.23,0,0,1-.89,1.42,3.82,3.82,0,0,1-1.35.92A4.26,4.26,0,0,1,195.31,13.56Zm.17-1a3.21,3.21,0,0,0,1.69-.45,3.29,3.29,0,0,0,1.17-1.23A3.66,3.66,0,0,0,198.78,9a3.71,3.71,0,0,0-.44-1.86,3.13,3.13,0,0,0-1.18-1.24,3.2,3.2,0,0,0-1.68-.45,3.24,3.24,0,0,0-1.69.45,3.11,3.11,0,0,0-1.2,1.24A3.82,3.82,0,0,0,192.15,9a3.76,3.76,0,0,0,.44,1.84,3.26,3.26,0,0,0,2.89,1.68Zm3.91,1a.57.57,0,0,1-.43-.14.63.63,0,0,1-.12-.43V.88a.84.84,0,0,1,0-.35.33.33,0,0,1,.17-.18.71.71,0,0,1,.31-.06.67.67,0,0,1,.32.06.39.39,0,0,1,.18.18,1,1,0,0,1,0,.33V13a.84.84,0,0,1,0,.34.31.31,0,0,1-.16.19A.67.67,0,0,1,199.39,13.56Z"/><path class="cls-1" d="M210.85,13.54a.46.46,0,0,1-.38-.14.83.83,0,0,1-.15-.49V11.64a4.23,4.23,0,0,1-1.82,1.58,4.06,4.06,0,0,1-1.72.34,4.11,4.11,0,0,1-1.72-.36,4.43,4.43,0,0,1-1.38-1,4.7,4.7,0,0,1-.92-1.46A4.79,4.79,0,0,1,202.43,9a4.57,4.57,0,0,1,.33-1.74,4.42,4.42,0,0,1,.93-1.43,4.52,4.52,0,0,1,1.39-1,4.2,4.2,0,0,1,1.7-.35,4.56,4.56,0,0,1,1.53.23,3.5,3.5,0,0,1,1.12.63,5.26,5.26,0,0,1,.89.93V5.19a.94.94,0,0,1,.12-.54.52.52,0,0,1,.43-.16.5.5,0,0,1,.29.07.36.36,0,0,1,.15.22,1.47,1.47,0,0,1,.05.41v7.72a1.27,1.27,0,0,1-.05.37.32.32,0,0,1-.16.2A.64.64,0,0,1,210.85,13.54Zm-3.86-1a3,3,0,0,0,1.65-.47,3.33,3.33,0,0,0,1.18-1.26A3.75,3.75,0,0,0,210.26,9a3.66,3.66,0,0,0-.46-1.88,3.33,3.33,0,0,0-1.2-1.24A3.17,3.17,0,0,0,207,5.44a3.39,3.39,0,0,0-1.82.48,3.27,3.27,0,0,0-1.22,1.28,3.86,3.86,0,0,0-.43,1.85,3.72,3.72,0,0,0,.43,1.81,3.17,3.17,0,0,0,1.24,1.25A3.67,3.67,0,0,0,207,12.57Z"/><path class="cls-1" d="M215,6.56a.81.81,0,0,1-.58-.16.77.77,0,0,1-.16-.56,1.12,1.12,0,0,1,.07-.45.37.37,0,0,1,.23-.24,1.13,1.13,0,0,1,.44-.07.86.86,0,0,1,.58.16.81.81,0,0,1,.16.58,1.1,1.1,0,0,1-.07.44.43.43,0,0,1-.22.24A1.36,1.36,0,0,1,215,6.56Zm0,7a.8.8,0,0,1-.58-.17.75.75,0,0,1-.16-.56,1.06,1.06,0,0,1,.07-.44.42.42,0,0,1,.23-.24,1.12,1.12,0,0,1,.44-.08.8.8,0,0,1,.58.17.78.78,0,0,1,.16.57,1.12,1.12,0,0,1-.07.45.41.41,0,0,1-.22.23A1.32,1.32,0,0,1,215,13.56Z"/><path class="cls-1" d="M19.69,63.73a5.09,5.09,0,0,1-1.15-.14,5.17,5.17,0,0,1-2.09-1,3.27,3.27,0,0,1-.73-.85,2.63,2.63,0,0,1-.19-.37.39.39,0,0,1,0-.28.63.63,0,0,1,.26-.26.59.59,0,0,1,.41-.14.52.52,0,0,1,.31.18,2.68,2.68,0,0,1,.28.38,2.79,2.79,0,0,0,1.29,1,3.85,3.85,0,0,0,1.54.33,5.32,5.32,0,0,0,1.75-.26,2.83,2.83,0,0,0,1.25-.81,2,2,0,0,0,.46-1.39,2.37,2.37,0,0,0-.29-1.2A2.7,2.7,0,0,0,22,58.1a5.72,5.72,0,0,0-1.13-.58c-.41-.16-.84-.3-1.28-.44l-1.1-.38a6.3,6.3,0,0,1-1-.49,3.88,3.88,0,0,1-.84-.64,2.83,2.83,0,0,1-.57-.89,3.48,3.48,0,0,1,.28-3,3.28,3.28,0,0,1,1.36-1.18,4.63,4.63,0,0,1,2-.43,5.19,5.19,0,0,1,1.2.14,5,5,0,0,1,1,.35,4.9,4.9,0,0,1,.82.47,3.18,3.18,0,0,1,.56.52,1.12,1.12,0,0,1,.28.48c0,.13-.05.27-.22.42a.74.74,0,0,1-.42.18.64.64,0,0,1-.4-.24,3.3,3.3,0,0,0-.9-.77,3.19,3.19,0,0,0-.95-.34,5.69,5.69,0,0,0-1-.09,3.78,3.78,0,0,0-1.09.15,2.49,2.49,0,0,0-.88.43,2.22,2.22,0,0,0-.57.72,2.27,2.27,0,0,0-.2,1,1.8,1.8,0,0,0,.26,1,2.37,2.37,0,0,0,.7.71,6.37,6.37,0,0,0,1,.52q.55.23,1.17.42c.49.15,1,.33,1.47.53a6,6,0,0,1,1.32.74,3.44,3.44,0,0,1,.95,1.09,3.3,3.3,0,0,1,.36,1.61,3.51,3.51,0,0,1-.33,1.54,3.19,3.19,0,0,1-.95,1.15,4.46,4.46,0,0,1-1.43.71A6.35,6.35,0,0,1,19.69,63.73Z"/><path class="cls-1" d="M31,63.59a5.07,5.07,0,0,1-1.91-.34,4.21,4.21,0,0,1-2.44-2.45,5,5,0,0,1-.35-1.9,4.22,4.22,0,0,1,2.23-3.79,4.78,4.78,0,0,1,2.39-.58,4.59,4.59,0,0,1,1.6.27,3.76,3.76,0,0,1,1.25.72,3.44,3.44,0,0,1,.83,1,2.8,2.8,0,0,1,.29,1.22A1.51,1.51,0,0,1,34.44,59a1.64,1.64,0,0,1-1,.34h-6a2.64,2.64,0,0,0,.51,1.72,3.57,3.57,0,0,0,1.37,1.12A3.83,3.83,0,0,0,31,62.6a6.88,6.88,0,0,0,1-.05,3.83,3.83,0,0,0,.7-.16,4.2,4.2,0,0,0,.5-.21L33.5,62a1.64,1.64,0,0,1,.33-.16.38.38,0,0,1,.22,0,.24.24,0,0,1,.18.1,1.47,1.47,0,0,1,.13.24.86.86,0,0,1,0,.24c0,.11-.15.27-.46.46a4.78,4.78,0,0,1-1.23.54A6.24,6.24,0,0,1,31,63.59Zm-3.56-5.13h5.67a1.71,1.71,0,0,0,.58-.08c.14-.06.21-.25.21-.56a1.88,1.88,0,0,0-.39-1.15,2.88,2.88,0,0,0-1.05-.85,3.5,3.5,0,0,0-1.52-.32,4.15,4.15,0,0,0-1.76.38,3.16,3.16,0,0,0-1.28,1A2.49,2.49,0,0,0,27.42,58.46Z"/><path class="cls-1" d="M38,63.54a.61.61,0,0,1-.3-.06.33.33,0,0,1-.17-.18,1,1,0,0,1,0-.33V55a.8.8,0,0,1,0-.3.28.28,0,0,1,.18-.15.87.87,0,0,1,.31,0,.8.8,0,0,1,.23,0,.38.38,0,0,1,.15.09.27.27,0,0,1,.08.15.75.75,0,0,1,0,.23v1.12a6.42,6.42,0,0,1,.55-.62,4.42,4.42,0,0,1,.68-.53,3.15,3.15,0,0,1,.81-.37,3.45,3.45,0,0,1,1-.14,4.1,4.1,0,0,1,1.51.28,3.32,3.32,0,0,1,1.21.8A3.67,3.67,0,0,1,45,56.8a4.81,4.81,0,0,1,.28,1.72V63a.79.79,0,0,1,0,.33.27.27,0,0,1-.16.17.85.85,0,0,1-.32,0,.75.75,0,0,1-.33-.06.3.3,0,0,1-.17-.18,1,1,0,0,1-.05-.33V58.5a3.79,3.79,0,0,0-.31-1.61A2.33,2.33,0,0,0,43,55.82a2.88,2.88,0,0,0-1.54-.38,3.15,3.15,0,0,0-1.57.38,2.59,2.59,0,0,0-1,1.07,3.39,3.39,0,0,0-.36,1.61V63a1,1,0,0,1,0,.33.29.29,0,0,1-.17.17A1,1,0,0,1,38,63.54Z"/><path class="cls-1" d="M48.06,54.74l1.69,0,2.64,0a.76.76,0,0,1,.33,0,.31.31,0,0,1,.18.16.64.64,0,0,1,.06.3,1,1,0,0,1-.05.33.25.25,0,0,1-.16.17.72.72,0,0,1-.32,0l-2.68,0L48,55.8a.59.59,0,0,1-.42-.12.67.67,0,0,1-.11-.43.51.51,0,0,1,.13-.4A.71.71,0,0,1,48.06,54.74Zm4.22,8.82a5.85,5.85,0,0,1-1.44-.16,2.25,2.25,0,0,1-.94-.47,1.8,1.8,0,0,1-.51-.87,5.05,5.05,0,0,1-.15-1.34V52a1.12,1.12,0,0,1,0-.35.35.35,0,0,1,.16-.18.69.69,0,0,1,.31-.05,1,1,0,0,1,.33,0,.35.35,0,0,1,.18.16.75.75,0,0,1,.06.33v8.83a3.36,3.36,0,0,0,.1.94,1,1,0,0,0,.33.53,1.18,1.18,0,0,0,.59.21,6.21,6.21,0,0,0,.92.05,1,1,0,0,1,.35,0,.31.31,0,0,1,.18.16.72.72,0,0,1,.05.32.76.76,0,0,1-.05.33.35.35,0,0,1-.18.16A1,1,0,0,1,52.28,63.56Z"/><path class="cls-1" d="M63.18,63.54a.48.48,0,0,1-.38-.14.91.91,0,0,1-.15-.49V61.64a3.89,3.89,0,0,1-.66.8,3.8,3.8,0,0,1-1.16.78,4,4,0,0,1-1.71.34,4.08,4.08,0,0,1-1.72-.36,4.21,4.21,0,0,1-1.38-1,4.7,4.7,0,0,1-.92-1.46A4.6,4.6,0,0,1,54.76,59,4.56,4.56,0,0,1,56,55.81a4.6,4.6,0,0,1,1.38-1,4.25,4.25,0,0,1,1.71-.35,4.54,4.54,0,0,1,1.52.23,3.66,3.66,0,0,1,1.13.63,5.22,5.22,0,0,1,.88.93V55.19a.94.94,0,0,1,.12-.54.67.67,0,0,1,.73-.09.47.47,0,0,1,.15.22,1.53,1.53,0,0,1,0,.41v7.72a1.31,1.31,0,0,1,0,.37.41.41,0,0,1-.16.2A.68.68,0,0,1,63.18,63.54Zm-3.86-1A3.08,3.08,0,0,0,61,62.1a3.49,3.49,0,0,0,1.18-1.26,4.13,4.13,0,0,0,0-3.71,3.43,3.43,0,0,0-1.21-1.24,3.14,3.14,0,0,0-1.64-.45,3.42,3.42,0,0,0-1.83.48,3.24,3.24,0,0,0-1.21,1.28,3.75,3.75,0,0,0-.44,1.85,3.62,3.62,0,0,0,.44,1.81,3.15,3.15,0,0,0,1.23,1.25A3.69,3.69,0,0,0,59.32,62.57Z"/><path class="cls-1" d="M67.15,63.56a.61.61,0,0,1-.3-.06.31.31,0,0,1-.16-.19.84.84,0,0,1,0-.34V55a.84.84,0,0,1,0-.35.25.25,0,0,1,.16-.16,1.26,1.26,0,0,1,.63,0,.26.26,0,0,1,.18.16.82.82,0,0,1,.06.35v.8c.13-.21.25-.41.38-.59a2.23,2.23,0,0,1,.46-.46,1.88,1.88,0,0,1,.65-.32,3.84,3.84,0,0,1,1-.11,2.47,2.47,0,0,1,.56.06,1.92,1.92,0,0,1,.48.15,1.63,1.63,0,0,1,.37.21,1.22,1.22,0,0,1,.23.22.43.43,0,0,1,.07.23.51.51,0,0,1-.21.42.64.64,0,0,1-.38.17.53.53,0,0,1-.31-.07,1.34,1.34,0,0,1-.22-.16,1.2,1.2,0,0,0-.34-.16,3,3,0,0,0-.7-.06,1.93,1.93,0,0,0-.63.12,2.41,2.41,0,0,0-.66.37,1.89,1.89,0,0,0-.52.65,2,2,0,0,0-.21,1V63a.84.84,0,0,1,0,.34.29.29,0,0,1-.17.17A1,1,0,0,1,67.15,63.56Z"/><path class="cls-1" d="M77.33,63.61a5.33,5.33,0,0,1-.88-.08,4.65,4.65,0,0,1-.85-.25,4.39,4.39,0,0,1-.75-.38,2,2,0,0,1-.55-.49,1.26,1.26,0,0,1-.19-.32.28.28,0,0,1,0-.25.48.48,0,0,1,.18-.2.4.4,0,0,1,.39-.19,1,1,0,0,1,.5.36,2.05,2.05,0,0,0,.44.35,2.5,2.5,0,0,0,.57.27,2.7,2.7,0,0,0,.6.17,3.43,3.43,0,0,0,2.27-.35,1.25,1.25,0,0,0,.64-1.11A1.35,1.35,0,0,0,79.2,60a2.16,2.16,0,0,0-.53-.33,3.71,3.71,0,0,0-.64-.25l-.71-.2c-.36-.09-.71-.18-1.06-.29a4.76,4.76,0,0,1-.94-.41,2,2,0,0,1-.67-.65,1.86,1.86,0,0,1-.26-1,2.15,2.15,0,0,1,.37-1.26,2.48,2.48,0,0,1,1-.83,3.51,3.51,0,0,1,1.53-.31,4.18,4.18,0,0,1,.82.07,3.32,3.32,0,0,1,.72.2,4,4,0,0,1,.62.31,2.49,2.49,0,0,1,.54.43.61.61,0,0,1,.25.38.52.52,0,0,1-.13.36.64.64,0,0,1-.36.22.47.47,0,0,1-.4-.18,3.12,3.12,0,0,0-.64-.49,3,3,0,0,0-.68-.27,2.59,2.59,0,0,0-.74-.1,2.55,2.55,0,0,0-1,.18,1.57,1.57,0,0,0-.68.52,1.25,1.25,0,0,0-.23.77.89.89,0,0,0,.16.54,1.38,1.38,0,0,0,.42.37,3.06,3.06,0,0,0,.63.26l.76.23,1.16.33a5,5,0,0,1,1.07.48,2.33,2.33,0,0,1,.79.77,2.29,2.29,0,0,1,.31,1.23,2.15,2.15,0,0,1-1,1.83A4.17,4.17,0,0,1,77.33,63.61Z"/><path class="cls-1" d="M87.61,63.59a5.06,5.06,0,0,1-1.9-.34,4.23,4.23,0,0,1-1.49-1,4.5,4.5,0,0,1-1-1.48,5.22,5.22,0,0,1-.34-1.9,4.24,4.24,0,0,1,2.22-3.79,4.84,4.84,0,0,1,2.4-.58,4.5,4.5,0,0,1,1.59.27,3.81,3.81,0,0,1,1.26.72,3.26,3.26,0,0,1,.82,1,2.68,2.68,0,0,1,.3,1.22A1.51,1.51,0,0,1,91.08,59a1.64,1.64,0,0,1-1,.34h-6a2.59,2.59,0,0,0,.51,1.72,3.61,3.61,0,0,0,1.36,1.12,3.86,3.86,0,0,0,1.66.38,6.79,6.79,0,0,0,1-.05,3.76,3.76,0,0,0,.71-.16,5,5,0,0,0,.5-.21l.38-.21a1.36,1.36,0,0,1,.32-.16.41.41,0,0,1,.22,0,.22.22,0,0,1,.18.1,1,1,0,0,1,.14.24.88.88,0,0,1,0,.24c0,.11-.15.27-.45.46a5,5,0,0,1-1.24.54A6.19,6.19,0,0,1,87.61,63.59Zm-3.55-5.13h5.66a1.78,1.78,0,0,0,.59-.08c.14-.06.21-.25.21-.56a1.88,1.88,0,0,0-.39-1.15,2.88,2.88,0,0,0-1-.85,3.53,3.53,0,0,0-1.52-.32,4.12,4.12,0,0,0-1.76.38,3.1,3.1,0,0,0-1.28,1A2.49,2.49,0,0,0,84.06,58.46Z"/><path class="cls-1" d="M103.42,63.56a5.36,5.36,0,0,1-1.91-.33,4.3,4.3,0,0,1-1.49-.92,4,4,0,0,1-1-1.42A5,5,0,0,1,98.73,59a5,5,0,0,1,.33-1.85,4.12,4.12,0,0,1,1-1.43,4,4,0,0,1,1.47-.93,5.26,5.26,0,0,1,1.9-.33,4.26,4.26,0,0,1,1.29.22,5.38,5.38,0,0,1,1.18.57,2.1,2.1,0,0,1,.76.79.88.88,0,0,1,.14.36.34.34,0,0,1-.1.23.82.82,0,0,1-.25.21.51.51,0,0,1-.7-.19,2.27,2.27,0,0,0-.45-.48,3.13,3.13,0,0,0-.58-.36,3.81,3.81,0,0,0-.64-.24,2.89,2.89,0,0,0-.65-.08,3.71,3.71,0,0,0-1.86.44,3.07,3.07,0,0,0-1.23,1.22,4.09,4.09,0,0,0,0,3.69,3.11,3.11,0,0,0,1.22,1.22,3.76,3.76,0,0,0,1.84.44,3.26,3.26,0,0,0,.87-.12,3.34,3.34,0,0,0,.84-.33,2.92,2.92,0,0,0,.68-.5l.26-.22a.37.37,0,0,1,.25-.09.33.33,0,0,1,.22.09,1.79,1.79,0,0,1,.22.24.4.4,0,0,1,.1.18.83.83,0,0,1,0,.22.48.48,0,0,1-.13.21,4,4,0,0,1-1,.7,5.53,5.53,0,0,1-1.16.47A3.88,3.88,0,0,1,103.42,63.56Z"/><path class="cls-1" d="M113.23,63.63a4.47,4.47,0,0,1-1.79-.36,4.64,4.64,0,0,1-1.47-1A4.5,4.5,0,0,1,108.61,59a4.61,4.61,0,0,1,.35-1.79,4.59,4.59,0,0,1,2.45-2.45,4.39,4.39,0,0,1,1.78-.36A4.5,4.5,0,0,1,117.73,59a4.77,4.77,0,0,1-.35,1.83,4.72,4.72,0,0,1-1,1.46,4.33,4.33,0,0,1-1.44,1A4.4,4.4,0,0,1,113.23,63.63Zm0-1a3.35,3.35,0,0,0,1.76-.48,3.58,3.58,0,0,0,1.25-1.31,3.91,3.91,0,0,0,0-3.66A3.24,3.24,0,0,0,115,55.91a3.53,3.53,0,0,0-1.79-.45,3.45,3.45,0,0,0-1.78.47A3.5,3.5,0,0,0,109.67,59a3.68,3.68,0,0,0,.47,1.84,3.54,3.54,0,0,0,1.26,1.29A3.4,3.4,0,0,0,113.19,62.6Z"/><path class="cls-1" d="M120.71,63.54a.61.61,0,0,1-.3-.06.31.31,0,0,1-.16-.18,1,1,0,0,1,0-.33V55a.78.78,0,0,1,0-.3.26.26,0,0,1,.17-.15.87.87,0,0,1,.31,0,.75.75,0,0,1,.23,0,.38.38,0,0,1,.15.09.27.27,0,0,1,.09.15.75.75,0,0,1,0,.23v1.12a4.53,4.53,0,0,1,.55-.62,3.91,3.91,0,0,1,.67-.53,3.21,3.21,0,0,1,.82-.37,3.45,3.45,0,0,1,1-.14,4.18,4.18,0,0,1,1.51.28,3.37,3.37,0,0,1,1.2.8,3.67,3.67,0,0,1,.8,1.27,4.81,4.81,0,0,1,.29,1.72V63a1,1,0,0,1,0,.33.3.3,0,0,1-.16.17,1,1,0,0,1-.33,0,.75.75,0,0,1-.33-.06.33.33,0,0,1-.17-.18,1,1,0,0,1,0-.33V58.5a4,4,0,0,0-.3-1.61,2.39,2.39,0,0,0-.91-1.07,2.9,2.9,0,0,0-1.54-.38,3.16,3.16,0,0,0-1.58.38,2.65,2.65,0,0,0-1,1.07,3.39,3.39,0,0,0-.36,1.61V63a1,1,0,0,1,0,.33.3.3,0,0,1-.18.17A1,1,0,0,1,120.71,63.54Z"/><path class="cls-1" d="M138.72,63.56a3.6,3.6,0,0,1-1-.12,2.57,2.57,0,0,1-.75-.34,2.1,2.1,0,0,1-.54-.57,2.63,2.63,0,0,1-.32-.8,4.46,4.46,0,0,1-.11-1V50.84a1.08,1.08,0,0,1,.05-.35.33.33,0,0,1,.17-.18.76.76,0,0,1,.32-.06,1,1,0,0,1,.33,0,.35.35,0,0,1,.18.16.75.75,0,0,1,.06.33v10a2.65,2.65,0,0,0,.09.73,1.42,1.42,0,0,0,.3.54,1.2,1.2,0,0,0,.49.32,2,2,0,0,0,.68.1,1.08,1.08,0,0,1,.35,0,.33.33,0,0,1,.18.17,1,1,0,0,1,0,.33,1.06,1.06,0,0,1,0,.34.33.33,0,0,1-.18.17A1.06,1.06,0,0,1,138.72,63.56Z"/><path class="cls-1" d="M149.52,63.54a.46.46,0,0,1-.38-.14.89.89,0,0,1-.16-.49V61.64a3.8,3.8,0,0,1-.65.8,4,4,0,0,1-2.88,1.12,4.11,4.11,0,0,1-1.72-.36,4.43,4.43,0,0,1-1.38-1,4.7,4.7,0,0,1-.92-1.46A4.79,4.79,0,0,1,141.1,59a4.57,4.57,0,0,1,.33-1.74,4.42,4.42,0,0,1,.93-1.43,4.52,4.52,0,0,1,1.39-1,4.17,4.17,0,0,1,1.7-.35,4.56,4.56,0,0,1,1.53.23,3.61,3.61,0,0,1,1.12.63,4.88,4.88,0,0,1,.88.93V55.19a.86.86,0,0,1,.13-.54.52.52,0,0,1,.43-.16.5.5,0,0,1,.29.07.36.36,0,0,1,.15.22,1.47,1.47,0,0,1,.05.41v7.72a1.27,1.27,0,0,1-.05.37.32.32,0,0,1-.16.2A.67.67,0,0,1,149.52,63.54Zm-3.86-1a3,3,0,0,0,1.65-.47,3.33,3.33,0,0,0,1.18-1.26,4,4,0,0,0,0-3.71,3.35,3.35,0,0,0-1.21-1.24,3.11,3.11,0,0,0-1.64-.45,3.39,3.39,0,0,0-1.82.48,3.27,3.27,0,0,0-1.22,1.28,3.86,3.86,0,0,0-.44,1.85,3.73,3.73,0,0,0,.44,1.81,3.11,3.11,0,0,0,1.24,1.25A3.67,3.67,0,0,0,145.66,62.57Z"/><path class="cls-1" d="M162.32,63.59a5.11,5.11,0,0,1-1.91-.34,4.19,4.19,0,0,1-1.48-1,4.5,4.5,0,0,1-1-1.48,5,5,0,0,1-.34-1.9,4.24,4.24,0,0,1,2.22-3.79,4.84,4.84,0,0,1,2.4-.58,4.5,4.5,0,0,1,1.59.27,3.76,3.76,0,0,1,1.25.72,3.16,3.16,0,0,1,.83,1,2.68,2.68,0,0,1,.3,1.22,1.54,1.54,0,0,1-.43,1.26,1.66,1.66,0,0,1-1,.34h-6a2.58,2.58,0,0,0,.5,1.72,3.65,3.65,0,0,0,1.37,1.12,3.86,3.86,0,0,0,1.66.38,6.79,6.79,0,0,0,1-.05,3.64,3.64,0,0,0,.7-.16,4.42,4.42,0,0,0,.51-.21l.38-.21a1.36,1.36,0,0,1,.32-.16.41.41,0,0,1,.22,0,.24.24,0,0,1,.18.1,1,1,0,0,1,.13.24.61.61,0,0,1,0,.24c0,.11-.15.27-.45.46a5,5,0,0,1-1.24.54A6.24,6.24,0,0,1,162.32,63.59Zm-3.55-5.13h5.66a1.82,1.82,0,0,0,.59-.08c.14-.06.21-.25.21-.56a1.88,1.88,0,0,0-.39-1.15,2.83,2.83,0,0,0-1.06-.85,3.5,3.5,0,0,0-1.52-.32,4.11,4.11,0,0,0-1.75.38,3.19,3.19,0,0,0-1.29,1A2.55,2.55,0,0,0,158.77,58.46Z"/><path class="cls-1" d="M171.65,63.61a5.24,5.24,0,0,1-.88-.08,4.75,4.75,0,0,1-.86-.25,4.39,4.39,0,0,1-.75-.38,2.21,2.21,0,0,1-.55-.49,1.66,1.66,0,0,1-.19-.32.31.31,0,0,1,0-.25.48.48,0,0,1,.18-.2c.14-.16.27-.22.4-.19a1,1,0,0,1,.49.36,2.33,2.33,0,0,0,.44.35,3,3,0,0,0,.57.27,2.78,2.78,0,0,0,.61.17,2.91,2.91,0,0,0,.57.06,3,3,0,0,0,1.69-.41,1.26,1.26,0,0,0,.65-1.11,1.39,1.39,0,0,0-.5-1.1,2.1,2.1,0,0,0-.52-.33,3.82,3.82,0,0,0-.65-.25l-.71-.2c-.35-.09-.71-.18-1-.29a4.51,4.51,0,0,1-.94-.41,2,2,0,0,1-.68-.65,1.86,1.86,0,0,1-.25-1,2.15,2.15,0,0,1,.37-1.26,2.45,2.45,0,0,1,1-.83,3.56,3.56,0,0,1,1.54-.31,4.32,4.32,0,0,1,.82.07,3.23,3.23,0,0,1,.71.2,4.6,4.6,0,0,1,.63.31,3.09,3.09,0,0,1,.54.43.63.63,0,0,1,.24.38.47.47,0,0,1-.13.36.59.59,0,0,1-.36.22.47.47,0,0,1-.4-.18,2.83,2.83,0,0,0-.63-.49,3.09,3.09,0,0,0-.69-.27,2.52,2.52,0,0,0-.73-.1,2.57,2.57,0,0,0-1,.18,1.54,1.54,0,0,0-.67.52,1.26,1.26,0,0,0-.24.77.89.89,0,0,0,.16.54,1.42,1.42,0,0,0,.43.37,3.06,3.06,0,0,0,.63.26c.24.08.49.16.76.23l1.16.33a5,5,0,0,1,1.07.48,2.52,2.52,0,0,1,.79.77,2.29,2.29,0,0,1,.3,1.23,2.15,2.15,0,0,1-1,1.83A4.14,4.14,0,0,1,171.65,63.61Z"/><path class="cls-1" d="M178.19,67.18a1.06,1.06,0,0,1-.34-.05.39.39,0,0,1-.18-.18.84.84,0,0,1,0-.34V55.08a1.08,1.08,0,0,1,0-.35.33.33,0,0,1,.17-.18.83.83,0,0,1,.34-.06.48.48,0,0,1,.57.57V66.59a1.08,1.08,0,0,1-.05.35.32.32,0,0,1-.17.19A1,1,0,0,1,178.19,67.18Zm4.08-3.66a4.34,4.34,0,0,1-1.71-.33,3.72,3.72,0,0,1-1.35-.93,4.2,4.2,0,0,1-.88-1.44,5.57,5.57,0,0,1,0-3.72,4.2,4.2,0,0,1,.88-1.42,3.82,3.82,0,0,1,1.35-.92,4.34,4.34,0,0,1,1.71-.33,4.05,4.05,0,0,1,1.65.33,3.73,3.73,0,0,1,1.33.93,4.45,4.45,0,0,1,.9,1.45,5.36,5.36,0,0,1,.32,1.87,5.11,5.11,0,0,1-.32,1.84,4.41,4.41,0,0,1-.9,1.42,3.83,3.83,0,0,1-1.33.92A4.05,4.05,0,0,1,182.27,63.52Zm-.17-1a3.25,3.25,0,0,0,1.7-.45A3.12,3.12,0,0,0,185,60.81a3.86,3.86,0,0,0,.43-1.85A3.81,3.81,0,0,0,185,57.1a3.17,3.17,0,0,0-1.19-1.22,3.34,3.34,0,0,0-1.7-.44,3.2,3.2,0,0,0-1.68.45,3.27,3.27,0,0,0-1.19,1.23,3.76,3.76,0,0,0-.44,1.84,3.86,3.86,0,0,0,.44,1.85,3.12,3.12,0,0,0,1.19,1.25A3.2,3.2,0,0,0,182.1,62.51Z"/><path class="cls-1" d="M197.05,63.54a.48.48,0,0,1-.38-.14,1,1,0,0,1-.15-.49V61.64a4.15,4.15,0,0,1-.65.8,4.27,4.27,0,0,1-4.6.76,4.21,4.21,0,0,1-1.38-1,4.7,4.7,0,0,1-.92-1.46,4.79,4.79,0,0,1-.33-1.79,4.57,4.57,0,0,1,.33-1.74,4.42,4.42,0,0,1,.93-1.43,4.52,4.52,0,0,1,1.39-1,4.17,4.17,0,0,1,1.7-.35,4.65,4.65,0,0,1,1.53.23,3.73,3.73,0,0,1,1.12.63,5.22,5.22,0,0,1,.88.93V55.19a.94.94,0,0,1,.12-.54.55.55,0,0,1,.43-.16.51.51,0,0,1,.3.07.36.36,0,0,1,.15.22,1.47,1.47,0,0,1,0,.41v7.72a1.27,1.27,0,0,1,0,.37.36.36,0,0,1-.16.2A.68.68,0,0,1,197.05,63.54Zm-3.85-1a3.07,3.07,0,0,0,1.65-.47A3.41,3.41,0,0,0,196,60.84a4.13,4.13,0,0,0,0-3.71,3.43,3.43,0,0,0-1.21-1.24,3.14,3.14,0,0,0-1.64-.45,3.42,3.42,0,0,0-1.83.48,3.24,3.24,0,0,0-1.21,1.28,3.86,3.86,0,0,0-.44,1.85,3.73,3.73,0,0,0,.44,1.81,3.15,3.15,0,0,0,1.23,1.25A3.7,3.7,0,0,0,193.2,62.57Z"/><path class="cls-1" d="M203,63.56a3.55,3.55,0,0,1-1-.12,2.35,2.35,0,0,1-.75-.34,1.84,1.84,0,0,1-.54-.57,2.64,2.64,0,0,1-.33-.8,4.49,4.49,0,0,1-.1-1V50.84a1.08,1.08,0,0,1,.05-.35.33.33,0,0,1,.17-.18.71.71,0,0,1,.31-.06,1,1,0,0,1,.33,0,.34.34,0,0,1,.19.16,1,1,0,0,1,0,.33v10a2.3,2.3,0,0,0,.1.73,1.41,1.41,0,0,0,.29.54,1.23,1.23,0,0,0,.5.32,2,2,0,0,0,.67.1,1,1,0,0,1,.35,0,.33.33,0,0,1,.18.17.75.75,0,0,1,.06.33.83.83,0,0,1-.06.34.33.33,0,0,1-.18.17A1,1,0,0,1,203,63.56Z"/><path class="cls-1" d="M209.86,63.56a4.19,4.19,0,0,1-1.65-.33,3.76,3.76,0,0,1-1.34-.93,4.6,4.6,0,0,1-.89-1.45,5.36,5.36,0,0,1-.32-1.87,5.15,5.15,0,0,1,.32-1.84,4.56,4.56,0,0,1,.89-1.42,3.87,3.87,0,0,1,1.34-.92,4.19,4.19,0,0,1,1.65-.33,4.34,4.34,0,0,1,1.71.33,3.72,3.72,0,0,1,1.35.93,4.2,4.2,0,0,1,.88,1.44,5.74,5.74,0,0,1,0,3.72,4.2,4.2,0,0,1-.88,1.42,3.82,3.82,0,0,1-1.35.92A4.34,4.34,0,0,1,209.86,63.56Zm.17-1a3.19,3.19,0,0,0,1.69-.45,3.32,3.32,0,0,0,1.18-1.23,3.76,3.76,0,0,0,.43-1.84,3.81,3.81,0,0,0-.43-1.86,3.16,3.16,0,0,0-1.19-1.24,3.2,3.2,0,0,0-1.68-.45,3.24,3.24,0,0,0-1.69.45,3.11,3.11,0,0,0-1.2,1.24A3.82,3.82,0,0,0,206.7,59a3.76,3.76,0,0,0,.44,1.84A3.26,3.26,0,0,0,210,62.55Zm3.91,1a.54.54,0,0,1-.42-.14.58.58,0,0,1-.13-.43V50.88a1,1,0,0,1,.05-.35.33.33,0,0,1,.17-.18.71.71,0,0,1,.31-.06.75.75,0,0,1,.33.06.42.42,0,0,1,.17.18.75.75,0,0,1,.06.33V63a1.06,1.06,0,0,1,0,.34.34.34,0,0,1-.16.19A.75.75,0,0,1,213.94,63.56Z"/><path class="cls-1" d="M225.4,63.54a.48.48,0,0,1-.38-.14.83.83,0,0,1-.15-.49V61.64a4.23,4.23,0,0,1-1.82,1.58,4.06,4.06,0,0,1-1.72.34,4.11,4.11,0,0,1-1.72-.36,4.27,4.27,0,0,1-1.37-1,4.52,4.52,0,0,1-.92-1.46A4.6,4.6,0,0,1,217,59a4.56,4.56,0,0,1,1.27-3.17,4.6,4.6,0,0,1,1.38-1,4.24,4.24,0,0,1,1.7-.35,4.56,4.56,0,0,1,1.53.23,3.5,3.5,0,0,1,1.12.63,4.93,4.93,0,0,1,.89.93V55.19a.94.94,0,0,1,.12-.54.54.54,0,0,1,.43-.16.48.48,0,0,1,.29.07.42.42,0,0,1,.16.22,1.53,1.53,0,0,1,0,.41v7.72a1.31,1.31,0,0,1,0,.37.38.38,0,0,1-.17.2A.61.61,0,0,1,225.4,63.54Zm-3.86-1a3.08,3.08,0,0,0,1.66-.47,3.38,3.38,0,0,0,1.17-1.26,3.75,3.75,0,0,0,.44-1.83,3.66,3.66,0,0,0-.46-1.88,3.33,3.33,0,0,0-1.2-1.24,3.15,3.15,0,0,0-1.65-.45,3.41,3.41,0,0,0-1.82.48,3.34,3.34,0,0,0-1.22,1.28,3.86,3.86,0,0,0-.43,1.85,3.72,3.72,0,0,0,.43,1.81,3.24,3.24,0,0,0,1.24,1.25A3.69,3.69,0,0,0,221.54,62.57Z"/><path class="cls-1" d="M234.59,63.56a.67.67,0,0,1-.3-.06.34.34,0,0,1-.16-.19,1.06,1.06,0,0,1,0-.34V55a1,1,0,0,1,0-.35.28.28,0,0,1,.16-.16.92.92,0,0,1,.32,0,1,1,0,0,1,.32,0,.31.31,0,0,1,.18.16.84.84,0,0,1,0,.35v.8c.13-.21.26-.41.39-.59a2,2,0,0,1,.45-.46,2,2,0,0,1,.66-.32,3.78,3.78,0,0,1,1-.11,2.53,2.53,0,0,1,.56.06,1.84,1.84,0,0,1,.47.15,1.44,1.44,0,0,1,.37.21,1,1,0,0,1,.23.22.43.43,0,0,1,.07.23.5.5,0,0,1-.2.42.66.66,0,0,1-.38.17.56.56,0,0,1-.32-.07,1.34,1.34,0,0,1-.22-.16,1.08,1.08,0,0,0-.34-.16,2.94,2.94,0,0,0-.7-.06,1.93,1.93,0,0,0-.63.12,2.36,2.36,0,0,0-.65.37,1.92,1.92,0,0,0-.53.65,2.11,2.11,0,0,0-.21,1V63a1.09,1.09,0,0,1,0,.34.29.29,0,0,1-.17.17A1.11,1.11,0,0,1,234.59,63.56Z"/><path class="cls-1" d="M246,63.59a5.15,5.15,0,0,1-1.91-.34,4.28,4.28,0,0,1-1.48-1,4.5,4.5,0,0,1-1-1.48,5,5,0,0,1-.34-1.9,4.24,4.24,0,0,1,2.22-3.79,4.84,4.84,0,0,1,2.4-.58,4.5,4.5,0,0,1,1.59.27,3.91,3.91,0,0,1,1.26.72,3.26,3.26,0,0,1,.82,1,2.68,2.68,0,0,1,.3,1.22A1.51,1.51,0,0,1,249.5,59a1.64,1.64,0,0,1-1,.34h-6a2.58,2.58,0,0,0,.5,1.72,3.65,3.65,0,0,0,1.37,1.12,3.86,3.86,0,0,0,1.66.38,6.79,6.79,0,0,0,1-.05,3.76,3.76,0,0,0,.71-.16,5,5,0,0,0,.5-.21l.38-.21a1.36,1.36,0,0,1,.32-.16.41.41,0,0,1,.22,0,.24.24,0,0,1,.18.1.72.72,0,0,1,.13.24.61.61,0,0,1,0,.24c0,.11-.15.27-.45.46a5,5,0,0,1-1.24.54A6.19,6.19,0,0,1,246,63.59Zm-3.55-5.13h5.66a1.78,1.78,0,0,0,.59-.08c.14-.06.21-.25.21-.56a1.88,1.88,0,0,0-.39-1.15,2.88,2.88,0,0,0-1.05-.85A3.53,3.53,0,0,0,246,55.5a4.12,4.12,0,0,0-1.76.38,3.1,3.1,0,0,0-1.28,1A2.49,2.49,0,0,0,242.48,58.46Z"/><path class="cls-1" d="M256.62,63.56a5.28,5.28,0,0,1-1.91-.33,4.12,4.12,0,0,1-1.49-.92,4,4,0,0,1-1-1.42,4.82,4.82,0,0,1-.34-1.86,4.76,4.76,0,0,1,.34-1.85,4.14,4.14,0,0,1,2.42-2.36,5.23,5.23,0,0,1,1.9-.33,4.2,4.2,0,0,1,1.28.22,5.46,5.46,0,0,1,1.19.57,2.18,2.18,0,0,1,.76.79.82.82,0,0,1,.13.36.37.37,0,0,1-.09.23,1,1,0,0,1-.26.21.54.54,0,0,1-.26.07.58.58,0,0,1-.43-.26,2.32,2.32,0,0,0-.46-.48,3.13,3.13,0,0,0-.58-.36,3.81,3.81,0,0,0-.64-.24,2.8,2.8,0,0,0-.64-.08,3.71,3.71,0,0,0-1.86.44,3,3,0,0,0-1.24,1.22,4.09,4.09,0,0,0,0,3.69,3.07,3.07,0,0,0,1.23,1.22,3.7,3.7,0,0,0,1.83.44,3.26,3.26,0,0,0,.87-.12,3.19,3.19,0,0,0,.84-.33,2.72,2.72,0,0,0,.68-.5l.26-.22a.39.39,0,0,1,.26-.09.35.35,0,0,1,.22.09,1.29,1.29,0,0,1,.21.24.32.32,0,0,1,.1.18.55.55,0,0,1,0,.22.57.57,0,0,1-.12.21,4.4,4.4,0,0,1-1,.7,5.76,5.76,0,0,1-1.16.47A3.88,3.88,0,0,1,256.62,63.56Z"/><path class="cls-1" d="M262.28,54.74l1.69,0,2.64,0a.76.76,0,0,1,.33,0,.31.31,0,0,1,.18.16.64.64,0,0,1,.06.3,1,1,0,0,1-.05.33.25.25,0,0,1-.16.17.69.69,0,0,1-.32,0l-2.68,0-1.73,0a.59.59,0,0,1-.42-.12.67.67,0,0,1-.11-.43.51.51,0,0,1,.13-.4A.73.73,0,0,1,262.28,54.74Zm4.22,8.82a5.85,5.85,0,0,1-1.44-.16,2.25,2.25,0,0,1-.94-.47,1.8,1.8,0,0,1-.51-.87,5.05,5.05,0,0,1-.15-1.34V52a1.12,1.12,0,0,1,0-.35.4.4,0,0,1,.16-.18.69.69,0,0,1,.31-.05,1,1,0,0,1,.33,0,.35.35,0,0,1,.18.16.75.75,0,0,1,.06.33v8.83a3.36,3.36,0,0,0,.1.94,1,1,0,0,0,.33.53,1.18,1.18,0,0,0,.6.21,6,6,0,0,0,.91.05,1,1,0,0,1,.35,0,.31.31,0,0,1,.18.16.7.7,0,0,1,.06.32.75.75,0,0,1-.06.33.35.35,0,0,1-.18.16A1,1,0,0,1,266.5,63.56Z"/><path class="cls-1" d="M277.4,63.54a.48.48,0,0,1-.38-.14,1,1,0,0,1-.15-.49V61.64a4.27,4.27,0,0,1-1.81,1.58,4.4,4.4,0,0,1-3.44,0,4.21,4.21,0,0,1-1.38-1,4.7,4.7,0,0,1-.92-1.46A4.79,4.79,0,0,1,269,59a4.57,4.57,0,0,1,.33-1.74,4.42,4.42,0,0,1,.93-1.43,4.52,4.52,0,0,1,1.39-1,4.17,4.17,0,0,1,1.7-.35,4.65,4.65,0,0,1,1.53.23,3.73,3.73,0,0,1,1.12.63,5.22,5.22,0,0,1,.88.93V55.19a.94.94,0,0,1,.12-.54.55.55,0,0,1,.43-.16.51.51,0,0,1,.3.07.47.47,0,0,1,.15.22,1.53,1.53,0,0,1,0,.41v7.72a1.31,1.31,0,0,1,0,.37.41.41,0,0,1-.16.2A.68.68,0,0,1,277.4,63.54Zm-3.86-1a3.08,3.08,0,0,0,1.66-.47,3.49,3.49,0,0,0,1.18-1.26,4.13,4.13,0,0,0,0-3.71,3.43,3.43,0,0,0-1.21-1.24,3.14,3.14,0,0,0-1.64-.45,3.42,3.42,0,0,0-1.83.48,3.24,3.24,0,0,0-1.21,1.28,3.75,3.75,0,0,0-.44,1.85,3.62,3.62,0,0,0,.44,1.81,3.15,3.15,0,0,0,1.23,1.25A3.69,3.69,0,0,0,273.54,62.57Z"/><path class="cls-1" d="M19.63,87l-4.27-6.65a.62.62,0,0,1-.13-.44.55.55,0,0,1,.28-.32.65.65,0,0,1,.45-.14.65.65,0,0,1,.35.31L20.2,86Zm-2,5.14q-.29-.1-.33-.27a.68.68,0,0,1,.08-.47L22.58,79.8a.67.67,0,0,1,.29-.38.54.54,0,0,1,.45,0c.19.09.3.19.32.31a.69.69,0,0,1-.09.45L18.34,91.9c-.09.2-.18.32-.27.34A.69.69,0,0,1,17.64,92.16Z"/><path class="cls-1" d="M39,88.54a.49.49,0,0,1-.38-.14,1,1,0,0,1-.15-.49V86.64a4.15,4.15,0,0,1-.65.8,4.27,4.27,0,0,1-4.6.76,4.21,4.21,0,0,1-1.38-1,4.7,4.7,0,0,1-.92-1.46A4.79,4.79,0,0,1,30.58,84a4.57,4.57,0,0,1,.33-1.74,4.42,4.42,0,0,1,.93-1.43,4.52,4.52,0,0,1,1.39-1,4.17,4.17,0,0,1,1.7-.35,4.65,4.65,0,0,1,1.53.23,3.61,3.61,0,0,1,1.12.63,4.88,4.88,0,0,1,.88.93V80.19a.94.94,0,0,1,.12-.54.55.55,0,0,1,.43-.16.51.51,0,0,1,.3.07.36.36,0,0,1,.15.22,1.47,1.47,0,0,1,0,.41v7.72a1.27,1.27,0,0,1,0,.37.36.36,0,0,1-.16.2A.68.68,0,0,1,39,88.54Zm-3.85-1a3,3,0,0,0,1.65-.47A3.41,3.41,0,0,0,38,85.84a4,4,0,0,0,0-3.71,3.35,3.35,0,0,0-1.21-1.24,3.14,3.14,0,0,0-1.64-.45,3.36,3.36,0,0,0-1.82.48,3.27,3.27,0,0,0-1.22,1.28,3.86,3.86,0,0,0-.44,1.85,3.73,3.73,0,0,0,.44,1.81,3.15,3.15,0,0,0,1.23,1.25A3.73,3.73,0,0,0,35.14,87.57Z"/><path class="cls-1" d="M42.83,92.18a1,1,0,0,1-.33-.05.39.39,0,0,1-.18-.18.83.83,0,0,1-.06-.34V80.08a1,1,0,0,1,.05-.35.33.33,0,0,1,.17-.18.75.75,0,0,1,.33-.06.59.59,0,0,1,.45.13.63.63,0,0,1,.12.44V91.59a.86.86,0,0,1-.05.35.29.29,0,0,1-.17.19A1,1,0,0,1,42.83,92.18Zm4.09-3.66a4.34,4.34,0,0,1-1.71-.33,3.72,3.72,0,0,1-1.35-.93A4.22,4.22,0,0,1,43,85.82a5.73,5.73,0,0,1,0-3.72,4.23,4.23,0,0,1,.89-1.42,3.82,3.82,0,0,1,1.35-.92,4.34,4.34,0,0,1,1.71-.33,4.12,4.12,0,0,1,1.65.33,3.73,3.73,0,0,1,1.33.93,4.26,4.26,0,0,1,.89,1.45A5.14,5.14,0,0,1,51.12,84a4.9,4.9,0,0,1-.33,1.84,4.23,4.23,0,0,1-.89,1.42,3.83,3.83,0,0,1-1.33.92A4.12,4.12,0,0,1,46.92,88.52Zm-.17-1a3.25,3.25,0,0,0,1.7-.45,3.1,3.1,0,0,0,1.18-1.25A3.86,3.86,0,0,0,50.07,84a3.82,3.82,0,0,0-.44-1.86,3.15,3.15,0,0,0-1.18-1.22,3.34,3.34,0,0,0-1.7-.44,3.2,3.2,0,0,0-2.87,1.68A3.66,3.66,0,0,0,43.44,84a3.75,3.75,0,0,0,.44,1.85,3.1,3.1,0,0,0,1.18,1.25A3.21,3.21,0,0,0,46.75,87.51Z"/><path class="cls-1" d="M57.8,88.63A4.46,4.46,0,0,1,56,88.27a4.64,4.64,0,0,1-1.47-1,4.62,4.62,0,0,1-1-5A4.59,4.59,0,0,1,56,79.79a4.39,4.39,0,0,1,1.78-.36,4.51,4.51,0,0,1,2.3.6,4.54,4.54,0,0,1,2.24,4A4.77,4.77,0,0,1,62,85.84a4.72,4.72,0,0,1-1,1.46,4.33,4.33,0,0,1-1.44,1A4.45,4.45,0,0,1,57.8,88.63Zm0-1a3.29,3.29,0,0,0,1.75-.48,3.52,3.52,0,0,0,1.26-1.31,3.91,3.91,0,0,0,0-3.66,3.31,3.31,0,0,0-1.25-1.24,3.53,3.53,0,0,0-1.79-.45,3.44,3.44,0,0,0-3,1.73A3.51,3.51,0,0,0,54.25,84a3.68,3.68,0,0,0,.47,1.84A3.54,3.54,0,0,0,56,87.13,3.4,3.4,0,0,0,57.77,87.6Z"/><path class="cls-1" d="M68.44,87l-4.27-6.65a.57.57,0,0,1-.13-.44.55.55,0,0,1,.28-.32.65.65,0,0,1,.45-.14.65.65,0,0,1,.35.31L69,86Zm-2,5.14q-.28-.1-.33-.27a.68.68,0,0,1,.08-.47L71.39,79.8a.72.72,0,0,1,.29-.38.54.54,0,0,1,.45,0c.19.09.3.19.32.31a.69.69,0,0,1-.09.45L67.15,91.9c-.09.2-.18.32-.27.34A.69.69,0,0,1,66.45,92.16Z"/><path class="cls-1" d="M82.58,88.54a.48.48,0,0,1-.38-.14.83.83,0,0,1-.15-.49V86.64a4.23,4.23,0,0,1-1.82,1.58,4.06,4.06,0,0,1-1.72.34,4.11,4.11,0,0,1-1.72-.36,4.27,4.27,0,0,1-1.37-1,4.52,4.52,0,0,1-.92-1.46A4.6,4.6,0,0,1,74.16,84a4.56,4.56,0,0,1,1.27-3.17,4.6,4.6,0,0,1,1.38-1,4.24,4.24,0,0,1,1.7-.35,4.56,4.56,0,0,1,1.53.23,3.5,3.5,0,0,1,1.12.63,4.93,4.93,0,0,1,.89.93V80.19a.94.94,0,0,1,.12-.54.54.54,0,0,1,.43-.16.48.48,0,0,1,.29.07.36.36,0,0,1,.15.22,1.17,1.17,0,0,1,0,.41v7.72a1,1,0,0,1,0,.37.32.32,0,0,1-.16.2A.61.61,0,0,1,82.58,88.54Zm-3.86-1a3.08,3.08,0,0,0,1.66-.47,3.38,3.38,0,0,0,1.17-1.26A3.75,3.75,0,0,0,82,84a3.66,3.66,0,0,0-.46-1.88,3.33,3.33,0,0,0-1.2-1.24,3.15,3.15,0,0,0-1.65-.45,3.41,3.41,0,0,0-1.82.48,3.34,3.34,0,0,0-1.22,1.28,3.86,3.86,0,0,0-.43,1.85,3.72,3.72,0,0,0,.43,1.81,3.24,3.24,0,0,0,1.24,1.25A3.69,3.69,0,0,0,78.72,87.57Z"/><path class="cls-1" d="M90,88.56a4.11,4.11,0,0,1-1.64-.33A3.68,3.68,0,0,1,87,87.3a4.26,4.26,0,0,1-.89-1.45A5.14,5.14,0,0,1,85.75,84a4.94,4.94,0,0,1,.33-1.84A4.23,4.23,0,0,1,87,80.72a3.78,3.78,0,0,1,1.34-.92A4.11,4.11,0,0,1,90,79.47a4.34,4.34,0,0,1,1.71.33,3.72,3.72,0,0,1,1.35.93,4.2,4.2,0,0,1,.88,1.44,5.57,5.57,0,0,1,0,3.72A4.2,4.2,0,0,1,93,87.31a3.82,3.82,0,0,1-1.35.92A4.34,4.34,0,0,1,90,88.56Zm.17-1a3.19,3.19,0,0,0,1.69-.45A3.24,3.24,0,0,0,93,85.87,3.76,3.76,0,0,0,93.43,84,3.82,3.82,0,0,0,93,82.17a3.16,3.16,0,0,0-1.19-1.24,3.2,3.2,0,0,0-1.68-.45,3.26,3.26,0,0,0-1.69.45,3.18,3.18,0,0,0-1.2,1.24A3.81,3.81,0,0,0,86.8,84a3.76,3.76,0,0,0,.43,1.84,3.26,3.26,0,0,0,2.89,1.68Zm3.92,1a.55.55,0,0,1-.43-.14.63.63,0,0,1-.12-.43V75.88a1.08,1.08,0,0,1,0-.35.33.33,0,0,1,.17-.18.76.76,0,0,1,.32-.06.7.7,0,0,1,.32.06.37.37,0,0,1,.17.18.75.75,0,0,1,.06.33V88a1.06,1.06,0,0,1,0,.34.31.31,0,0,1-.16.19A.7.7,0,0,1,94,88.56Z"/><path class="cls-1" d="M105.49,88.54a.49.49,0,0,1-.38-.14,1,1,0,0,1-.15-.49V86.64a4.15,4.15,0,0,1-.65.8,4.27,4.27,0,0,1-4.6.76,4.21,4.21,0,0,1-1.38-1,4.7,4.7,0,0,1-.92-1.46A4.79,4.79,0,0,1,97.08,84a4.57,4.57,0,0,1,.33-1.74,4.42,4.42,0,0,1,.93-1.43,4.52,4.52,0,0,1,1.39-1,4.17,4.17,0,0,1,1.7-.35,4.65,4.65,0,0,1,1.53.23,3.73,3.73,0,0,1,1.12.63,5.22,5.22,0,0,1,.88.93V80.19a.94.94,0,0,1,.12-.54.55.55,0,0,1,.43-.16.51.51,0,0,1,.3.07.36.36,0,0,1,.15.22,1.47,1.47,0,0,1,.05.41v7.72a1.27,1.27,0,0,1-.05.37.36.36,0,0,1-.16.2A.68.68,0,0,1,105.49,88.54Zm-3.85-1a3.07,3.07,0,0,0,1.65-.47,3.49,3.49,0,0,0,1.18-1.26,4.13,4.13,0,0,0,0-3.71,3.43,3.43,0,0,0-1.21-1.24,3.14,3.14,0,0,0-1.64-.45,3.42,3.42,0,0,0-1.83.48,3.24,3.24,0,0,0-1.21,1.28,3.86,3.86,0,0,0-.44,1.85,3.73,3.73,0,0,0,.44,1.81,3.15,3.15,0,0,0,1.23,1.25A3.73,3.73,0,0,0,101.64,87.57Z"/><path class="cls-1" d="M118.3,88.59a5.11,5.11,0,0,1-1.91-.34,4.19,4.19,0,0,1-1.48-1,4.35,4.35,0,0,1-1-1.48,5,5,0,0,1-.34-1.9,4.28,4.28,0,0,1,.58-2.22,4.34,4.34,0,0,1,1.64-1.57,4.78,4.78,0,0,1,2.39-.58,4.51,4.51,0,0,1,1.6.27,3.76,3.76,0,0,1,1.25.72,3.29,3.29,0,0,1,.83,1,2.8,2.8,0,0,1,.29,1.22,1.54,1.54,0,0,1-.42,1.26,1.66,1.66,0,0,1-1,.34h-6a2.58,2.58,0,0,0,.5,1.72,3.65,3.65,0,0,0,1.37,1.12,3.83,3.83,0,0,0,1.66.38,6.79,6.79,0,0,0,1,0,3.64,3.64,0,0,0,.7-.16,4.42,4.42,0,0,0,.51-.21l.38-.21a1.36,1.36,0,0,1,.32-.16.38.38,0,0,1,.22,0,.24.24,0,0,1,.18.1,1,1,0,0,1,.13.24.61.61,0,0,1,0,.24c0,.11-.15.27-.46.46a4.78,4.78,0,0,1-1.23.54A6.24,6.24,0,0,1,118.3,88.59Zm-3.55-5.13h5.66a1.82,1.82,0,0,0,.59-.08c.14-.06.21-.25.21-.56a1.88,1.88,0,0,0-.39-1.15,2.91,2.91,0,0,0-1.06-.85,3.5,3.5,0,0,0-1.52-.32,4.15,4.15,0,0,0-1.76.38,3.23,3.23,0,0,0-1.28,1.05A2.42,2.42,0,0,0,114.75,83.46Z"/><path class="cls-1" d="M125.27,88.54a.61.61,0,0,1-.3-.06.31.31,0,0,1-.16-.18.76.76,0,0,1,0-.33V80a.62.62,0,0,1,0-.3.26.26,0,0,1,.17-.15.87.87,0,0,1,.31-.05.75.75,0,0,1,.23,0,.38.38,0,0,1,.15.09.27.27,0,0,1,.09.15,1.4,1.4,0,0,1,0,.23v1.12a6.42,6.42,0,0,1,.55-.62A4.42,4.42,0,0,1,127,80a3.21,3.21,0,0,1,.82-.37,3.4,3.4,0,0,1,1-.14,4.08,4.08,0,0,1,1.5.28,3.32,3.32,0,0,1,1.21.8,3.67,3.67,0,0,1,.8,1.27,4.81,4.81,0,0,1,.28,1.72V88a1,1,0,0,1,0,.33.29.29,0,0,1-.17.17.85.85,0,0,1-.32.05.75.75,0,0,1-.33-.06.33.33,0,0,1-.17-.18,1,1,0,0,1-.05-.33V83.5a4,4,0,0,0-.3-1.61,2.45,2.45,0,0,0-.91-1.07,2.9,2.9,0,0,0-1.54-.38,3.16,3.16,0,0,0-1.58.38,2.65,2.65,0,0,0-1,1.07,3.39,3.39,0,0,0-.36,1.61V88a.79.79,0,0,1,0,.33.26.26,0,0,1-.17.17A1,1,0,0,1,125.27,88.54Z"/><path class="cls-1" d="M144.92,88.59a5.07,5.07,0,0,1-1.91-.34,4.29,4.29,0,0,1-2.44-2.45,5,5,0,0,1-.35-1.9,4.28,4.28,0,0,1,.59-2.22,4.34,4.34,0,0,1,1.64-1.57,4.78,4.78,0,0,1,2.39-.58,4.55,4.55,0,0,1,1.6.27,3.76,3.76,0,0,1,1.25.72,3.29,3.29,0,0,1,.83,1,2.8,2.8,0,0,1,.29,1.22,1.51,1.51,0,0,1-.43,1.26,1.64,1.64,0,0,1-1,.34h-6a2.64,2.64,0,0,0,.51,1.72,3.57,3.57,0,0,0,1.37,1.12,3.83,3.83,0,0,0,1.66.38,7,7,0,0,0,1,0,3.83,3.83,0,0,0,.7-.16,4.2,4.2,0,0,0,.5-.21l.38-.21a1.42,1.42,0,0,1,.33-.16.38.38,0,0,1,.22,0,.24.24,0,0,1,.18.1,1.47,1.47,0,0,1,.13.24.86.86,0,0,1,0,.24c0,.11-.16.27-.46.46a4.94,4.94,0,0,1-1.23.54A6.24,6.24,0,0,1,144.92,88.59Zm-3.56-5.13H147a1.82,1.82,0,0,0,.59-.08c.13-.06.2-.25.2-.56a1.88,1.88,0,0,0-.39-1.15,2.88,2.88,0,0,0-1.05-.85,3.5,3.5,0,0,0-1.52-.32,4.15,4.15,0,0,0-1.76.38,3.16,3.16,0,0,0-1.28,1.05A2.49,2.49,0,0,0,141.36,83.46Z"/><path class="cls-1" d="M153.87,88.56a3.5,3.5,0,0,1-1-.12,2.35,2.35,0,0,1-.75-.34,2,2,0,0,1-.55-.57,2.63,2.63,0,0,1-.32-.8,4.49,4.49,0,0,1-.1-1V75.84a.86.86,0,0,1,.05-.35.3.3,0,0,1,.17-.18.68.68,0,0,1,.31-.06,1,1,0,0,1,.33,0,.35.35,0,0,1,.18.16.75.75,0,0,1,.06.33v10a2.65,2.65,0,0,0,.09.73,1.57,1.57,0,0,0,.3.54,1.27,1.27,0,0,0,.49.32,2,2,0,0,0,.68.1,1,1,0,0,1,.35,0,.33.33,0,0,1,.18.17.75.75,0,0,1,.06.33.83.83,0,0,1-.06.34.33.33,0,0,1-.18.17A1,1,0,0,1,153.87,88.56Z"/><path class="cls-1" d="M162.55,88.56a.61.61,0,0,1-.3-.06.32.32,0,0,1-.17-.19,1.09,1.09,0,0,1,0-.34V80a1.08,1.08,0,0,1,0-.35.27.27,0,0,1,.17-.16.89.89,0,0,1,.32,0,.93.93,0,0,1,.31,0,.31.31,0,0,1,.18.16.82.82,0,0,1,.06.35v.8c.13-.21.25-.41.38-.59a2.23,2.23,0,0,1,.46-.46,1.88,1.88,0,0,1,.65-.32,3.84,3.84,0,0,1,1-.11,2.47,2.47,0,0,1,.56.06,2.37,2.37,0,0,1,.85.36.91.91,0,0,1,.22.22.46.46,0,0,1,.08.23.51.51,0,0,1-.21.42.66.66,0,0,1-.38.17.53.53,0,0,1-.31-.07,1,1,0,0,1-.22-.16,1.2,1.2,0,0,0-.34-.16,3.1,3.1,0,0,0-.71-.06,1.83,1.83,0,0,0-.62.12,2.41,2.41,0,0,0-.66.37,1.89,1.89,0,0,0-.52.65,2,2,0,0,0-.21.95V88a1.06,1.06,0,0,1-.05.34.29.29,0,0,1-.17.17A1,1,0,0,1,162.55,88.56Z"/><path class="cls-1" d="M174,88.59a5.07,5.07,0,0,1-1.91-.34,4.29,4.29,0,0,1-2.44-2.45,5,5,0,0,1-.35-1.9,4.28,4.28,0,0,1,.59-2.22,4.34,4.34,0,0,1,1.64-1.57,4.78,4.78,0,0,1,2.39-.58,4.55,4.55,0,0,1,1.6.27,3.76,3.76,0,0,1,1.25.72,3.29,3.29,0,0,1,.83,1,2.8,2.8,0,0,1,.29,1.22,1.51,1.51,0,0,1-.43,1.26,1.64,1.64,0,0,1-1,.34h-6a2.64,2.64,0,0,0,.51,1.72,3.57,3.57,0,0,0,1.37,1.12,3.83,3.83,0,0,0,1.66.38,6.88,6.88,0,0,0,1,0,3.83,3.83,0,0,0,.7-.16,3.59,3.59,0,0,0,.5-.21l.38-.21a1.64,1.64,0,0,1,.33-.16.38.38,0,0,1,.22,0,.24.24,0,0,1,.18.1,1.47,1.47,0,0,1,.13.24.86.86,0,0,1,0,.24c0,.11-.16.27-.46.46a4.78,4.78,0,0,1-1.23.54A6.24,6.24,0,0,1,174,88.59Zm-3.56-5.13h5.67a1.71,1.71,0,0,0,.58-.08c.14-.06.21-.25.21-.56a1.88,1.88,0,0,0-.39-1.15,2.8,2.8,0,0,0-1.05-.85,3.5,3.5,0,0,0-1.52-.32,4.15,4.15,0,0,0-1.76.38,3.16,3.16,0,0,0-1.28,1.05A2.49,2.49,0,0,0,170.43,83.46Z"/><path class="cls-1" d="M183.32,88.61a5.35,5.35,0,0,1-.89-.08,4.65,4.65,0,0,1-.85-.25,3.76,3.76,0,0,1-.75-.38,2,2,0,0,1-.55-.49,1.78,1.78,0,0,1-.2-.32.31.31,0,0,1,0-.25.48.48,0,0,1,.18-.2c.14-.16.27-.22.4-.19a1.05,1.05,0,0,1,.49.36,2.05,2.05,0,0,0,.44.35,2.5,2.5,0,0,0,.57.27,2.7,2.7,0,0,0,.6.17,3.43,3.43,0,0,0,2.27-.35,1.25,1.25,0,0,0,.64-1.11,1.35,1.35,0,0,0-.49-1.1,2.3,2.3,0,0,0-.52-.33,4.18,4.18,0,0,0-.65-.25l-.71-.2c-.36-.09-.71-.18-1.06-.29a4.76,4.76,0,0,1-.94-.41,2,2,0,0,1-.67-.65,1.86,1.86,0,0,1-.26-1,2.15,2.15,0,0,1,.37-1.26,2.48,2.48,0,0,1,1-.83,3.53,3.53,0,0,1,1.54-.31,4.14,4.14,0,0,1,.81.07,3.08,3.08,0,0,1,.71.2,3.69,3.69,0,0,1,.63.31,2.49,2.49,0,0,1,.54.43.66.66,0,0,1,.25.38.52.52,0,0,1-.13.36.64.64,0,0,1-.36.22.47.47,0,0,1-.4-.18,3.12,3.12,0,0,0-.64-.49,3,3,0,0,0-.68-.27,2.77,2.77,0,0,0-1.72.08,1.57,1.57,0,0,0-.68.52,1.33,1.33,0,0,0-.24.77.89.89,0,0,0,.17.54,1.38,1.38,0,0,0,.42.37,3.06,3.06,0,0,0,.63.26l.76.23,1.16.33a5,5,0,0,1,1.07.48,2.33,2.33,0,0,1,.79.77,2.29,2.29,0,0,1,.31,1.23,2.15,2.15,0,0,1-1,1.83A4.16,4.16,0,0,1,183.32,88.61Z"/><path class="cls-1" d="M189.85,92.18a1,1,0,0,1-.33-.05.39.39,0,0,1-.18-.18.83.83,0,0,1-.06-.34V80.08a1,1,0,0,1,.05-.35.33.33,0,0,1,.17-.18.75.75,0,0,1,.33-.06.59.59,0,0,1,.45.13.63.63,0,0,1,.12.44V91.59a.86.86,0,0,1-.05.35.29.29,0,0,1-.17.19A1,1,0,0,1,189.85,92.18Zm4.09-3.66a4.34,4.34,0,0,1-1.71-.33,3.72,3.72,0,0,1-1.35-.93,4.22,4.22,0,0,1-.89-1.44,5.73,5.73,0,0,1,0-3.72,4.23,4.23,0,0,1,.89-1.42,3.82,3.82,0,0,1,1.35-.92,4.34,4.34,0,0,1,1.71-.33,4.12,4.12,0,0,1,1.65.33,3.73,3.73,0,0,1,1.33.93,4.26,4.26,0,0,1,.89,1.45,5.14,5.14,0,0,1,.33,1.87,4.9,4.9,0,0,1-.33,1.84,4.23,4.23,0,0,1-.89,1.42,3.83,3.83,0,0,1-1.33.92A4.12,4.12,0,0,1,193.94,88.52Zm-.17-1a3.25,3.25,0,0,0,1.7-.45,3.1,3.1,0,0,0,1.18-1.25,3.86,3.86,0,0,0,.44-1.85,3.82,3.82,0,0,0-.44-1.86,3.15,3.15,0,0,0-1.18-1.22,3.34,3.34,0,0,0-1.7-.44,3.2,3.2,0,0,0-2.87,1.68,3.66,3.66,0,0,0-.44,1.84,3.75,3.75,0,0,0,.44,1.85,3.1,3.1,0,0,0,1.18,1.25A3.21,3.21,0,0,0,193.77,87.51Z"/><path class="cls-1" d="M208.72,88.54a.46.46,0,0,1-.38-.14.83.83,0,0,1-.15-.49V86.64a4.23,4.23,0,0,1-1.82,1.58,4.06,4.06,0,0,1-1.72.34,4.11,4.11,0,0,1-1.72-.36,4.27,4.27,0,0,1-1.37-1,4.72,4.72,0,0,1-.93-1.46A4.79,4.79,0,0,1,200.3,84a4.45,4.45,0,0,1,1.27-3.17,4.48,4.48,0,0,1,1.38-1,4.2,4.2,0,0,1,1.7-.35,4.56,4.56,0,0,1,1.53.23,3.5,3.5,0,0,1,1.12.63,4.93,4.93,0,0,1,.89.93V80.19a.94.94,0,0,1,.12-.54.52.52,0,0,1,.43-.16.5.5,0,0,1,.29.07.36.36,0,0,1,.15.22,1.17,1.17,0,0,1,0,.41v7.72a1,1,0,0,1,0,.37.32.32,0,0,1-.16.2A.64.64,0,0,1,208.72,88.54Zm-3.86-1a3,3,0,0,0,1.65-.47,3.33,3.33,0,0,0,1.18-1.26,3.75,3.75,0,0,0,.44-1.83,3.66,3.66,0,0,0-.46-1.88,3.33,3.33,0,0,0-1.2-1.24,3.15,3.15,0,0,0-1.65-.45,3.41,3.41,0,0,0-1.82.48,3.34,3.34,0,0,0-1.22,1.28,3.86,3.86,0,0,0-.43,1.85,3.72,3.72,0,0,0,.43,1.81A3.24,3.24,0,0,0,203,87.11,3.67,3.67,0,0,0,204.86,87.57Z"/><path class="cls-1" d="M214.66,88.56a3.48,3.48,0,0,1-.95-.12,2.51,2.51,0,0,1-.76-.34,2.1,2.1,0,0,1-.54-.57,2.63,2.63,0,0,1-.32-.8,4.49,4.49,0,0,1-.1-1V75.84a1.12,1.12,0,0,1,0-.35.33.33,0,0,1,.17-.18.76.76,0,0,1,.32-.06,1,1,0,0,1,.33,0,.35.35,0,0,1,.18.16.75.75,0,0,1,.06.33v10a2.65,2.65,0,0,0,.09.73,1.42,1.42,0,0,0,.3.54,1.2,1.2,0,0,0,.49.32,2,2,0,0,0,.68.1,1.08,1.08,0,0,1,.35,0,.33.33,0,0,1,.18.17.76.76,0,0,1,0,.33.84.84,0,0,1,0,.34.33.33,0,0,1-.18.17A1.06,1.06,0,0,1,214.66,88.56Z"/><path class="cls-1" d="M221.52,88.56a4.11,4.11,0,0,1-1.64-.33,3.76,3.76,0,0,1-1.34-.93,4.26,4.26,0,0,1-.89-1.45,5.14,5.14,0,0,1-.32-1.87,4.94,4.94,0,0,1,.32-1.84,4.23,4.23,0,0,1,.89-1.42,3.87,3.87,0,0,1,1.34-.92,4.11,4.11,0,0,1,1.64-.33,4.34,4.34,0,0,1,1.71.33,3.72,3.72,0,0,1,1.35.93,4.22,4.22,0,0,1,.89,1.44,5.74,5.74,0,0,1,0,3.72,4.23,4.23,0,0,1-.89,1.42,3.82,3.82,0,0,1-1.35.92A4.34,4.34,0,0,1,221.52,88.56Zm.17-1a3.22,3.22,0,0,0,1.7-.45,3.29,3.29,0,0,0,1.17-1.23A3.76,3.76,0,0,0,225,84a3.82,3.82,0,0,0-.44-1.86,3.13,3.13,0,0,0-1.18-1.24,3.21,3.21,0,0,0-1.69-.45,3.26,3.26,0,0,0-1.69.45,3.16,3.16,0,0,0-1.19,1.24,3.71,3.71,0,0,0-.44,1.86,3.66,3.66,0,0,0,.44,1.84,3.23,3.23,0,0,0,2.88,1.68Zm3.92,1a.57.57,0,0,1-.43-.14.63.63,0,0,1-.12-.43V75.88a1.08,1.08,0,0,1,0-.35.35.35,0,0,1,.18-.18.68.68,0,0,1,.31-.06.67.67,0,0,1,.32.06.33.33,0,0,1,.17.18.75.75,0,0,1,.06.33V88a1.06,1.06,0,0,1,0,.34.31.31,0,0,1-.16.19A.67.67,0,0,1,225.61,88.56Z"/><path class="cls-1" d="M233.17,88.63a4.51,4.51,0,0,1-1.79-.36,4.88,4.88,0,0,1-1.47-1,4.8,4.8,0,0,1-1-1.46,4.63,4.63,0,0,1,0-3.58,4.5,4.5,0,0,1,2.45-2.45,4.38,4.38,0,0,1,1.77-.36,4.46,4.46,0,0,1,2.3.6,4.52,4.52,0,0,1,1.64,1.64,4.71,4.71,0,0,1-.72,5.63,4.39,4.39,0,0,1-1.43,1A4.48,4.48,0,0,1,233.17,88.63Zm0-1a3.32,3.32,0,0,0,1.76-.48,3.58,3.58,0,0,0,1.25-1.31,3.67,3.67,0,0,0,.47-1.83,3.55,3.55,0,0,0-.46-1.83,3.28,3.28,0,0,0-1.24-1.24,3.59,3.59,0,0,0-1.8-.45,3.39,3.39,0,0,0-1.77.47,3.46,3.46,0,0,0-1.26,1.26,3.51,3.51,0,0,0-.46,1.81,3.67,3.67,0,0,0,.46,1.84,3.49,3.49,0,0,0,1.27,1.29A3.36,3.36,0,0,0,233.13,87.6Z"/><path class="cls-1" d="M249.28,88.56a4.11,4.11,0,0,1-1.64-.33,3.76,3.76,0,0,1-1.34-.93,4.26,4.26,0,0,1-.89-1.45,5.14,5.14,0,0,1-.33-1.87,4.94,4.94,0,0,1,.33-1.84,4.23,4.23,0,0,1,.89-1.42,3.87,3.87,0,0,1,1.34-.92,4.11,4.11,0,0,1,1.64-.33,4.34,4.34,0,0,1,1.71.33,3.72,3.72,0,0,1,1.35.93,4.22,4.22,0,0,1,.89,1.44,5.74,5.74,0,0,1,0,3.72,4.23,4.23,0,0,1-.89,1.42,3.82,3.82,0,0,1-1.35.92A4.34,4.34,0,0,1,249.28,88.56Zm.17-1a3.16,3.16,0,0,0,1.69-.45,3.24,3.24,0,0,0,1.18-1.23,3.76,3.76,0,0,0,.44-1.84,3.82,3.82,0,0,0-.44-1.86,3.09,3.09,0,0,0-1.19-1.24,3.2,3.2,0,0,0-1.68-.45,3.26,3.26,0,0,0-1.69.45,3.09,3.09,0,0,0-1.19,1.24,3.71,3.71,0,0,0-.44,1.86,3.66,3.66,0,0,0,.44,1.84,3.2,3.2,0,0,0,1.19,1.23A3.26,3.26,0,0,0,249.45,87.55Zm3.92,1a.55.55,0,0,1-.43-.14.63.63,0,0,1-.12-.43V75.88a1.08,1.08,0,0,1,0-.35.37.37,0,0,1,.17-.18.76.76,0,0,1,.32-.06.7.7,0,0,1,.32.06.37.37,0,0,1,.17.18.75.75,0,0,1,.06.33V88a1.06,1.06,0,0,1-.05.34.31.31,0,0,1-.16.19A.7.7,0,0,1,253.37,88.56Z"/><path class="cls-1" d="M261.1,88.59a5.11,5.11,0,0,1-1.91-.34,4.19,4.19,0,0,1-1.48-1,4.5,4.5,0,0,1-1-1.48,5,5,0,0,1-.34-1.9,4.19,4.19,0,0,1,.59-2.22,4.25,4.25,0,0,1,1.63-1.57,4.81,4.81,0,0,1,2.39-.58,4.51,4.51,0,0,1,1.6.27,3.76,3.76,0,0,1,1.25.72,3.29,3.29,0,0,1,.83,1,2.68,2.68,0,0,1,.3,1.22,1.54,1.54,0,0,1-.43,1.26,1.66,1.66,0,0,1-1,.34h-6a2.58,2.58,0,0,0,.5,1.72,3.65,3.65,0,0,0,1.37,1.12,3.83,3.83,0,0,0,1.66.38,6.79,6.79,0,0,0,1,0,3.64,3.64,0,0,0,.7-.16,4.42,4.42,0,0,0,.51-.21l.38-.21a1.36,1.36,0,0,1,.32-.16.4.4,0,0,1,.22,0,.24.24,0,0,1,.18.1,1,1,0,0,1,.13.24.61.61,0,0,1,0,.24c0,.11-.15.27-.46.46a4.78,4.78,0,0,1-1.23.54A6.24,6.24,0,0,1,261.1,88.59Zm-3.55-5.13h5.66a1.82,1.82,0,0,0,.59-.08c.14-.06.21-.25.21-.56a1.88,1.88,0,0,0-.39-1.15,2.83,2.83,0,0,0-1.06-.85A3.5,3.5,0,0,0,261,80.5a4.07,4.07,0,0,0-1.75.38A3.19,3.19,0,0,0,258,81.93,2.48,2.48,0,0,0,257.55,83.46Z"/><path class="cls-1" d="M275.27,88.56a3.6,3.6,0,0,1-1-.12,2.57,2.57,0,0,1-.75-.34,2.1,2.1,0,0,1-.54-.57,2.63,2.63,0,0,1-.32-.8,4.46,4.46,0,0,1-.11-1V75.84a1.08,1.08,0,0,1,.05-.35.33.33,0,0,1,.17-.18.76.76,0,0,1,.32-.06,1,1,0,0,1,.33,0,.35.35,0,0,1,.18.16.75.75,0,0,1,.06.33v10a2.65,2.65,0,0,0,.09.73,1.3,1.3,0,0,0,.3.54,1.2,1.2,0,0,0,.49.32,2,2,0,0,0,.67.1,1.11,1.11,0,0,1,.36,0,.33.33,0,0,1,.18.17.76.76,0,0,1,0,.33.84.84,0,0,1,0,.34.33.33,0,0,1-.18.17A1.06,1.06,0,0,1,275.27,88.56Z"/><path class="cls-1" d="M286.07,88.54a.46.46,0,0,1-.38-.14.89.89,0,0,1-.16-.49V86.64a3.8,3.8,0,0,1-.65.8A4,4,0,0,1,282,88.56a4.11,4.11,0,0,1-1.72-.36,4.31,4.31,0,0,1-1.38-1,4.7,4.7,0,0,1-.92-1.46,4.79,4.79,0,0,1-.33-1.79,4.57,4.57,0,0,1,.33-1.74,4.42,4.42,0,0,1,.93-1.43,4.52,4.52,0,0,1,1.39-1,4.2,4.2,0,0,1,1.7-.35,4.65,4.65,0,0,1,1.53.23,3.61,3.61,0,0,1,1.12.63,4.88,4.88,0,0,1,.88.93V80.19a.93.93,0,0,1,.13-.54.65.65,0,0,1,.72-.09.36.36,0,0,1,.15.22,1.47,1.47,0,0,1,.05.41v7.72a1.27,1.27,0,0,1-.05.37.32.32,0,0,1-.16.2A.67.67,0,0,1,286.07,88.54Zm-3.86-1a3,3,0,0,0,1.65-.47A3.33,3.33,0,0,0,285,85.84a3.75,3.75,0,0,0,.44-1.83,3.66,3.66,0,0,0-.46-1.88,3.35,3.35,0,0,0-1.21-1.24,3.11,3.11,0,0,0-1.64-.45,3.39,3.39,0,0,0-1.82.48,3.27,3.27,0,0,0-1.22,1.28,3.86,3.86,0,0,0-.44,1.85,3.73,3.73,0,0,0,.44,1.81,3.11,3.11,0,0,0,1.24,1.25A3.67,3.67,0,0,0,282.21,87.57Z"/><path class="cls-1" d="M297.62,88.61a5.45,5.45,0,0,1-.89-.08,4.89,4.89,0,0,1-.85-.25,4.39,4.39,0,0,1-.75-.38,2.21,2.21,0,0,1-.55-.49,1.26,1.26,0,0,1-.19-.32.31.31,0,0,1,0-.25.48.48,0,0,1,.18-.2c.14-.16.27-.22.4-.19a1.05,1.05,0,0,1,.49.36,2.33,2.33,0,0,0,.44.35,2.72,2.72,0,0,0,.57.27,2.64,2.64,0,0,0,.61.17,2.91,2.91,0,0,0,.57.06,3.07,3.07,0,0,0,1.69-.41,1.25,1.25,0,0,0,.64-1.11,1.35,1.35,0,0,0-.49-1.1,2.3,2.3,0,0,0-.52-.33,4.18,4.18,0,0,0-.65-.25l-.71-.2c-.36-.09-.71-.18-1.06-.29a5,5,0,0,1-.94-.41,2.08,2.08,0,0,1-.67-.65,1.86,1.86,0,0,1-.26-1,2.22,2.22,0,0,1,.37-1.26,2.48,2.48,0,0,1,1-.83,3.53,3.53,0,0,1,1.54-.31,4.14,4.14,0,0,1,.81.07,3.32,3.32,0,0,1,.72.2,4,4,0,0,1,.62.31,2.82,2.82,0,0,1,.55.43.63.63,0,0,1,.24.38.47.47,0,0,1-.13.36.61.61,0,0,1-.36.22.47.47,0,0,1-.4-.18,2.87,2.87,0,0,0-.64-.49,3,3,0,0,0-.68-.27,2.77,2.77,0,0,0-1.72.08,1.57,1.57,0,0,0-.68.52,1.32,1.32,0,0,0-.23.77.89.89,0,0,0,.16.54,1.42,1.42,0,0,0,.43.37,2.75,2.75,0,0,0,.62.26l.76.23,1.16.33a5.05,5.05,0,0,1,1.08.48,2.39,2.39,0,0,1,.78.77A2.2,2.2,0,0,1,301,86.1a2.15,2.15,0,0,1-1,1.83A4.14,4.14,0,0,1,297.62,88.61Z"/><path class="cls-1" d="M304.38,76.76a1,1,0,0,1-.42-.08.41.41,0,0,1-.21-.25,1.08,1.08,0,0,1-.07-.43,1,1,0,0,1,.07-.42.37.37,0,0,1,.22-.22,1.24,1.24,0,0,1,.43-.07,1,1,0,0,1,.42.08.47.47,0,0,1,.22.24,1.25,1.25,0,0,1,.06.44,1.18,1.18,0,0,1-.06.41.41.41,0,0,1-.22.23A1.22,1.22,0,0,1,304.38,76.76Zm0,11.8a.68.68,0,0,1-.31-.06.33.33,0,0,1-.17-.18.79.79,0,0,1,0-.33V80a.76.76,0,0,1,0-.33.29.29,0,0,1,.17-.17,1,1,0,0,1,.33-.05.67.67,0,0,1,.32.06.31.31,0,0,1,.16.18.84.84,0,0,1,.05.35V88a.84.84,0,0,1-.05.34.26.26,0,0,1-.17.17A1,1,0,0,1,304.38,88.56Z"/><path class="cls-1" d="M310.63,88.56a3.6,3.6,0,0,1-1-.12,2.57,2.57,0,0,1-.75-.34,2.1,2.1,0,0,1-.54-.57,2.4,2.4,0,0,1-.32-.8,4.46,4.46,0,0,1-.11-1V75.84a1.08,1.08,0,0,1,.05-.35.33.33,0,0,1,.17-.18.73.73,0,0,1,.32-.06,1,1,0,0,1,.33,0,.35.35,0,0,1,.18.16.76.76,0,0,1,.05.33v10a2.63,2.63,0,0,0,.1.73,1.41,1.41,0,0,0,.29.54,1.3,1.3,0,0,0,.5.32,2,2,0,0,0,.67.1,1,1,0,0,1,.35,0,.28.28,0,0,1,.18.17.75.75,0,0,1,.06.33.83.83,0,0,1-.06.34.28.28,0,0,1-.18.17A1,1,0,0,1,310.63,88.56Z"/><path class="cls-1" d="M316.07,88.56a3.5,3.5,0,0,1-1-.12,2.35,2.35,0,0,1-.75-.34,2,2,0,0,1-.55-.57,2.63,2.63,0,0,1-.32-.8,4.49,4.49,0,0,1-.1-1V75.84a1.12,1.12,0,0,1,0-.35.35.35,0,0,1,.18-.18.68.68,0,0,1,.31-.06,1,1,0,0,1,.33,0,.35.35,0,0,1,.18.16.75.75,0,0,1,.06.33v10a2.65,2.65,0,0,0,.09.73,1.57,1.57,0,0,0,.3.54,1.27,1.27,0,0,0,.49.32,2,2,0,0,0,.68.1,1,1,0,0,1,.35,0,.33.33,0,0,1,.18.17.75.75,0,0,1,.06.33.83.83,0,0,1-.06.34.33.33,0,0,1-.18.17A1,1,0,0,1,316.07,88.56Z"/><path class="cls-1" d="M326.86,88.54a.46.46,0,0,1-.38-.14.83.83,0,0,1-.15-.49V86.64a4.23,4.23,0,0,1-1.82,1.58,4.06,4.06,0,0,1-1.72.34,4.11,4.11,0,0,1-1.72-.36,4.43,4.43,0,0,1-1.38-1,4.89,4.89,0,0,1-.92-1.46,4.79,4.79,0,0,1-.33-1.79,4.57,4.57,0,0,1,.33-1.74,4.77,4.77,0,0,1,.93-1.43,4.64,4.64,0,0,1,1.39-1,4.2,4.2,0,0,1,1.7-.35,4.56,4.56,0,0,1,1.53.23,3.5,3.5,0,0,1,1.12.63,4.93,4.93,0,0,1,.89.93V80.19a.94.94,0,0,1,.12-.54.52.52,0,0,1,.43-.16.5.5,0,0,1,.29.07.36.36,0,0,1,.15.22,1.47,1.47,0,0,1,.05.41v7.72a1.27,1.27,0,0,1-.05.37.32.32,0,0,1-.16.2A.64.64,0,0,1,326.86,88.54Zm-3.86-1a3,3,0,0,0,1.65-.47,3.33,3.33,0,0,0,1.18-1.26,3.75,3.75,0,0,0,.44-1.83,3.66,3.66,0,0,0-.46-1.88,3.33,3.33,0,0,0-1.2-1.24,3.15,3.15,0,0,0-1.65-.45,3.41,3.41,0,0,0-1.82.48,3.27,3.27,0,0,0-1.22,1.28,3.86,3.86,0,0,0-.43,1.85,3.72,3.72,0,0,0,.43,1.81,3.17,3.17,0,0,0,1.24,1.25A3.67,3.67,0,0,0,323,87.57Z"/><path class="cls-1" d="M330.87,88.56a.79.79,0,0,1-.58-.17.75.75,0,0,1-.16-.56,1.29,1.29,0,0,1,.06-.44.47.47,0,0,1,.24-.24,1.08,1.08,0,0,1,.44-.08.8.8,0,0,1,.58.17.83.83,0,0,1,.16.57,1.32,1.32,0,0,1-.07.45.4.4,0,0,1-.23.23A1.22,1.22,0,0,1,330.87,88.56Z"/><path class="cls-1" d="M16.67,138.56a.73.73,0,0,1-.3-.07.52.52,0,0,1-.19-.2.79.79,0,0,1-.06-.32V125.84a.67.67,0,0,1,.06-.3.49.49,0,0,1,.2-.18.81.81,0,0,1,.33-.07l.32,0a.85.85,0,0,1,.24.08.76.76,0,0,1,.2.17l5.32,7.9H22l5.39-8a.46.46,0,0,1,.18-.13l.25,0h.31a.72.72,0,0,1,.32.07.46.46,0,0,1,.19.2.76.76,0,0,1,.06.32V138a.67.67,0,0,1-.06.3.52.52,0,0,1-.2.19.79.79,0,0,1-.32.07.66.66,0,0,1-.3-.07.52.52,0,0,1-.19-.2.79.79,0,0,1-.07-.32V127.06l-4.67,7a.86.86,0,0,1-.13.14l-.17.08a.76.76,0,0,1-.21,0,.5.5,0,0,1-.19,0l-.14-.08-.19-.17-4.65-6.94V138a.56.56,0,0,1-.07.3.44.44,0,0,1-.19.19A.68.68,0,0,1,16.67,138.56Z"/><path class="cls-1" d="M39.87,138.54a.46.46,0,0,1-.38-.14.83.83,0,0,1-.15-.49v-1.27a4.23,4.23,0,0,1-1.82,1.58,4.06,4.06,0,0,1-1.72.34,4.11,4.11,0,0,1-1.72-.36,4.27,4.27,0,0,1-1.37-1,4.55,4.55,0,0,1-.93-1.46,4.79,4.79,0,0,1-.33-1.79,4.5,4.5,0,0,1,1.26-3.17,4.64,4.64,0,0,1,1.39-1,4.2,4.2,0,0,1,1.7-.35,4.56,4.56,0,0,1,1.53.23,3.5,3.5,0,0,1,1.12.63,4.93,4.93,0,0,1,.89.93v-1.09a.94.94,0,0,1,.12-.54.52.52,0,0,1,.43-.16.5.5,0,0,1,.29.07.36.36,0,0,1,.15.22,1.17,1.17,0,0,1,.05.41v7.72a1,1,0,0,1-.05.37.32.32,0,0,1-.16.2A.61.61,0,0,1,39.87,138.54Zm-3.86-1a3,3,0,0,0,1.65-.47,3.33,3.33,0,0,0,1.18-1.26,3.75,3.75,0,0,0,.44-1.83,3.66,3.66,0,0,0-.46-1.88,3.33,3.33,0,0,0-1.2-1.24,3.15,3.15,0,0,0-1.65-.45,3.41,3.41,0,0,0-1.82.48,3.27,3.27,0,0,0-1.22,1.28,3.86,3.86,0,0,0-.43,1.85,3.72,3.72,0,0,0,.43,1.81,3.17,3.17,0,0,0,1.24,1.25A3.67,3.67,0,0,0,36,137.57Z"/><path class="cls-1" d="M43.84,138.54a.68.68,0,0,1-.31-.06.35.35,0,0,1-.16-.18,1,1,0,0,1,0-.33v-8a.8.8,0,0,1,0-.3.28.28,0,0,1,.17-.15,1,1,0,0,1,.32,0,.69.69,0,0,1,.22,0,.35.35,0,0,1,.16.09.27.27,0,0,1,.08.15.75.75,0,0,1,0,.23v1.12a6.42,6.42,0,0,1,.55-.62,4,4,0,0,1,.68-.53,3.15,3.15,0,0,1,.81-.37,3.45,3.45,0,0,1,1-.14,4.1,4.1,0,0,1,1.51.28,3.41,3.41,0,0,1,1.21.8,3.67,3.67,0,0,1,.8,1.27,4.81,4.81,0,0,1,.28,1.72V138a1,1,0,0,1,0,.33.27.27,0,0,1-.16.17.85.85,0,0,1-.32,0,.75.75,0,0,1-.33-.06.3.3,0,0,1-.17-.18.76.76,0,0,1,0-.33V133.5a3.79,3.79,0,0,0-.31-1.61,2.33,2.33,0,0,0-.91-1.07,2.88,2.88,0,0,0-1.54-.38,3.15,3.15,0,0,0-1.57.38,2.59,2.59,0,0,0-1,1.07,3.39,3.39,0,0,0-.36,1.61V138a1,1,0,0,1,0,.33.29.29,0,0,1-.17.17A1,1,0,0,1,43.84,138.54Z"/><path class="cls-1" d="M54,129.74l1.69,0,2.64,0a.76.76,0,0,1,.33,0,.31.31,0,0,1,.18.16.64.64,0,0,1,.06.3,1,1,0,0,1-.05.33.25.25,0,0,1-.16.17.72.72,0,0,1-.32.05l-2.68,0-1.73,0a.59.59,0,0,1-.42-.12.62.62,0,0,1-.11-.43.51.51,0,0,1,.13-.4A.71.71,0,0,1,54,129.74Zm4.21,8.82a5.76,5.76,0,0,1-1.43-.16,2.25,2.25,0,0,1-.94-.47,1.8,1.8,0,0,1-.51-.87,4.64,4.64,0,0,1-.16-1.34V127a1.08,1.08,0,0,1,.05-.35.35.35,0,0,1,.16-.18.69.69,0,0,1,.31,0,1,1,0,0,1,.33,0,.35.35,0,0,1,.18.16.75.75,0,0,1,.06.33v8.83a3.36,3.36,0,0,0,.1.94,1.06,1.06,0,0,0,.32.53,1.25,1.25,0,0,0,.6.21,6.21,6.21,0,0,0,.92.05,1.08,1.08,0,0,1,.35,0,.31.31,0,0,1,.18.16.72.72,0,0,1,0,.32.76.76,0,0,1,0,.33.35.35,0,0,1-.18.16A1.06,1.06,0,0,1,58.16,138.56Z"/><path class="cls-1" d="M65.35,138.59a5.07,5.07,0,0,1-1.91-.34A4.29,4.29,0,0,1,61,135.8a5,5,0,0,1-.35-1.9,4.22,4.22,0,0,1,2.23-3.79,4.78,4.78,0,0,1,2.39-.58,4.59,4.59,0,0,1,1.6.27,3.76,3.76,0,0,1,1.25.72,3.44,3.44,0,0,1,.83,1,2.8,2.8,0,0,1,.29,1.22,1.51,1.51,0,0,1-.43,1.26,1.64,1.64,0,0,1-1,.34h-6a2.64,2.64,0,0,0,.51,1.72,3.61,3.61,0,0,0,1.36,1.12,3.9,3.9,0,0,0,1.67.38,7,7,0,0,0,1,0,3.83,3.83,0,0,0,.7-.16,4.2,4.2,0,0,0,.5-.21l.38-.21a1.42,1.42,0,0,1,.33-.16.36.36,0,0,1,.21,0,.21.21,0,0,1,.18.1,1,1,0,0,1,.14.24.86.86,0,0,1,0,.24c0,.11-.16.27-.46.46a4.94,4.94,0,0,1-1.23.54A6.24,6.24,0,0,1,65.35,138.59Zm-3.56-5.13h5.67a1.71,1.71,0,0,0,.58-.08c.14-.06.21-.25.21-.56a1.88,1.88,0,0,0-.39-1.15,2.88,2.88,0,0,0-1-.85,3.5,3.5,0,0,0-1.52-.32,4.15,4.15,0,0,0-1.76.38,3.16,3.16,0,0,0-1.28,1.05A2.49,2.49,0,0,0,61.79,133.46Z"/><path class="cls-1" d="M72.32,138.54a.68.68,0,0,1-.31-.06.35.35,0,0,1-.16-.18,1,1,0,0,1,0-.33v-8a.8.8,0,0,1,0-.3.28.28,0,0,1,.17-.15,1,1,0,0,1,.32,0,.8.8,0,0,1,.23,0,.38.38,0,0,1,.15.09.27.27,0,0,1,.08.15.75.75,0,0,1,0,.23v1.12a6.42,6.42,0,0,1,.55-.62,4,4,0,0,1,.68-.53,3.15,3.15,0,0,1,.81-.37,3.45,3.45,0,0,1,1-.14,4.1,4.1,0,0,1,1.51.28,3.41,3.41,0,0,1,1.21.8,3.67,3.67,0,0,1,.8,1.27,4.81,4.81,0,0,1,.28,1.72V138a.79.79,0,0,1,0,.33.27.27,0,0,1-.16.17.85.85,0,0,1-.32,0,.75.75,0,0,1-.33-.06.3.3,0,0,1-.17-.18.76.76,0,0,1,0-.33V133.5a3.79,3.79,0,0,0-.31-1.61,2.33,2.33,0,0,0-.91-1.07,2.88,2.88,0,0,0-1.54-.38,3.15,3.15,0,0,0-1.57.38,2.59,2.59,0,0,0-1,1.07,3.39,3.39,0,0,0-.36,1.61V138a1,1,0,0,1-.05.33.29.29,0,0,1-.17.17A1,1,0,0,1,72.32,138.54Z"/><path class="cls-1" d="M86.74,138.59a5.11,5.11,0,0,1-1.91-.34,4.19,4.19,0,0,1-1.48-1,4.5,4.5,0,0,1-1-1.48,5,5,0,0,1-.34-1.9,4.19,4.19,0,0,1,.59-2.22,4.25,4.25,0,0,1,1.63-1.57,4.81,4.81,0,0,1,2.39-.58,4.51,4.51,0,0,1,1.6.27,3.76,3.76,0,0,1,1.25.72,3.29,3.29,0,0,1,.83,1,2.67,2.67,0,0,1,.29,1.22,1.54,1.54,0,0,1-.42,1.26,1.66,1.66,0,0,1-1,.34h-6a2.58,2.58,0,0,0,.5,1.72,3.65,3.65,0,0,0,1.37,1.12,3.83,3.83,0,0,0,1.66.38,6.79,6.79,0,0,0,1,0,3.64,3.64,0,0,0,.7-.16,4.42,4.42,0,0,0,.51-.21l.38-.21a1.36,1.36,0,0,1,.32-.16.4.4,0,0,1,.22,0,.24.24,0,0,1,.18.1,1,1,0,0,1,.13.24.61.61,0,0,1,0,.24c0,.11-.15.27-.46.46a4.78,4.78,0,0,1-1.23.54A6.24,6.24,0,0,1,86.74,138.59Zm-3.55-5.13h5.66a1.82,1.82,0,0,0,.59-.08c.14-.06.21-.25.21-.56a1.88,1.88,0,0,0-.39-1.15,2.83,2.83,0,0,0-1.06-.85,3.5,3.5,0,0,0-1.52-.32,4.15,4.15,0,0,0-1.76.38,3.23,3.23,0,0,0-1.28,1.05A2.48,2.48,0,0,0,83.19,133.46Z"/><path class="cls-1" d="M93.71,138.56a.67.67,0,0,1-.3-.06.31.31,0,0,1-.16-.19,1.06,1.06,0,0,1,0-.34V130a1,1,0,0,1,0-.35.25.25,0,0,1,.16-.16.92.92,0,0,1,.32,0,1,1,0,0,1,.32,0,.31.31,0,0,1,.18.16,1,1,0,0,1,0,.35v.8l.38-.59a2.23,2.23,0,0,1,.46-.46,2,2,0,0,1,.65-.32,3.84,3.84,0,0,1,1-.11,2.4,2.4,0,0,1,.56.06,1.92,1.92,0,0,1,.48.15,1.63,1.63,0,0,1,.37.21,1,1,0,0,1,.23.22.43.43,0,0,1,.07.23.51.51,0,0,1-.21.42.64.64,0,0,1-.38.17.53.53,0,0,1-.31-.07,1.34,1.34,0,0,1-.22-.16,1.08,1.08,0,0,0-.34-.16,3,3,0,0,0-.7-.06,1.93,1.93,0,0,0-.63.12,2.41,2.41,0,0,0-.66.37,2,2,0,0,0-.52.65,2,2,0,0,0-.21,1V138a1.09,1.09,0,0,1,0,.34.3.3,0,0,1-.18.17A1,1,0,0,1,93.71,138.56Z"/><path class="cls-1" d="M108.74,138.56a3.6,3.6,0,0,1-1-.12,2.57,2.57,0,0,1-.75-.34,2.1,2.1,0,0,1-.54-.57,2.4,2.4,0,0,1-.32-.8,4.46,4.46,0,0,1-.11-1v-9.88a1.08,1.08,0,0,1,0-.35.33.33,0,0,1,.17-.18.71.71,0,0,1,.31-.06,1.06,1.06,0,0,1,.34,0,.35.35,0,0,1,.18.16.76.76,0,0,1,0,.33v10a2.63,2.63,0,0,0,.1.73,1.41,1.41,0,0,0,.29.54,1.3,1.3,0,0,0,.5.32,2,2,0,0,0,.67.1,1,1,0,0,1,.35.05.28.28,0,0,1,.18.17.75.75,0,0,1,.06.33.83.83,0,0,1-.06.34.28.28,0,0,1-.18.17A1,1,0,0,1,108.74,138.56Z"/><path class="cls-1" d="M115.64,138.63a4.47,4.47,0,0,1-1.79-.36,4.76,4.76,0,0,1-1.47-1,4.63,4.63,0,0,1-1-1.46A4.47,4.47,0,0,1,111,134a4.61,4.61,0,0,1,.35-1.79,4.88,4.88,0,0,1,1-1.47,4.63,4.63,0,0,1,1.46-1,4.65,4.65,0,0,1,4.08.24,4.54,4.54,0,0,1,2.24,4,4.77,4.77,0,0,1-.35,1.83,4.55,4.55,0,0,1-1,1.46,4.39,4.39,0,0,1-1.43,1A4.48,4.48,0,0,1,115.64,138.63Zm0-1a3.32,3.32,0,0,0,1.76-.48,3.58,3.58,0,0,0,1.25-1.31,3.67,3.67,0,0,0,.47-1.83,3.55,3.55,0,0,0-.46-1.83,3.28,3.28,0,0,0-1.24-1.24,3.59,3.59,0,0,0-1.8-.45,3.39,3.39,0,0,0-1.77.47,3.46,3.46,0,0,0-1.26,1.26,3.51,3.51,0,0,0-.46,1.81,3.67,3.67,0,0,0,.46,1.84,3.49,3.49,0,0,0,1.27,1.29A3.36,3.36,0,0,0,115.6,137.6Z"/><path class="cls-1" d="M125.48,138.61a5.33,5.33,0,0,1-.88-.08,4.75,4.75,0,0,1-.86-.25,4.39,4.39,0,0,1-.75-.38,2.21,2.21,0,0,1-.55-.49,1.66,1.66,0,0,1-.19-.32.31.31,0,0,1,0-.25.48.48,0,0,1,.18-.2c.14-.16.27-.22.4-.19a1.07,1.07,0,0,1,.5.36,2.25,2.25,0,0,0,.43.35,3,3,0,0,0,.57.27,2.78,2.78,0,0,0,.61.17,2.91,2.91,0,0,0,.57.06,3,3,0,0,0,1.69-.41,1.26,1.26,0,0,0,.65-1.11,1.47,1.47,0,0,0-.14-.64,1.23,1.23,0,0,0-.36-.46,2.1,2.1,0,0,0-.52-.33,3.82,3.82,0,0,0-.65-.25l-.71-.2c-.35-.09-.7-.18-1-.29a4.76,4.76,0,0,1-.94-.41,2,2,0,0,1-.68-.65,1.86,1.86,0,0,1-.25-1,2.15,2.15,0,0,1,.37-1.26,2.45,2.45,0,0,1,1-.83,3.59,3.59,0,0,1,1.54-.31,4.32,4.32,0,0,1,.82.07,3.23,3.23,0,0,1,.71.2,4.6,4.6,0,0,1,.63.31,3.09,3.09,0,0,1,.54.43.71.71,0,0,1,.25.38.53.53,0,0,1-.14.36.59.59,0,0,1-.36.22.48.48,0,0,1-.4-.18,2.83,2.83,0,0,0-.63-.49,3.09,3.09,0,0,0-.69-.27,2.52,2.52,0,0,0-.73-.1,2.57,2.57,0,0,0-1,.18,1.54,1.54,0,0,0-.67.52,1.26,1.26,0,0,0-.24.77.89.89,0,0,0,.16.54,1.42,1.42,0,0,0,.43.37,3.06,3.06,0,0,0,.63.26c.24.08.49.16.76.23l1.16.33a5,5,0,0,1,1.07.48,2.42,2.42,0,0,1,.79.77,2.29,2.29,0,0,1,.3,1.23,2.15,2.15,0,0,1-1,1.83A4.14,4.14,0,0,1,125.48,138.61Z"/><path class="cls-1" d="M137.24,142.18a1,1,0,0,1-.33-.05.39.39,0,0,1-.18-.18.83.83,0,0,1-.06-.34V130.08a1,1,0,0,1,.05-.35.33.33,0,0,1,.17-.18.75.75,0,0,1,.33-.06.59.59,0,0,1,.45.13.63.63,0,0,1,.12.44v11.53a1.12,1.12,0,0,1,0,.35.34.34,0,0,1-.18.19A1,1,0,0,1,137.24,142.18Zm4.09-3.66a4.34,4.34,0,0,1-1.71-.33,3.72,3.72,0,0,1-1.35-.93,4.22,4.22,0,0,1-.89-1.44,5.74,5.74,0,0,1,0-3.72,4.23,4.23,0,0,1,.89-1.42,3.82,3.82,0,0,1,1.35-.92,4.34,4.34,0,0,1,1.71-.33,4.12,4.12,0,0,1,1.65.33,3.73,3.73,0,0,1,1.33.93,4.26,4.26,0,0,1,.89,1.45,5.14,5.14,0,0,1,.33,1.87,4.9,4.9,0,0,1-.33,1.84,4.23,4.23,0,0,1-.89,1.42,3.83,3.83,0,0,1-1.33.92A4.12,4.12,0,0,1,141.33,138.52Zm-.17-1a3.25,3.25,0,0,0,1.7-.45,3.1,3.1,0,0,0,1.18-1.25,3.86,3.86,0,0,0,.44-1.85,3.82,3.82,0,0,0-.44-1.86,3.15,3.15,0,0,0-1.18-1.22,3.34,3.34,0,0,0-1.7-.44,3.2,3.2,0,0,0-2.87,1.68,3.76,3.76,0,0,0-.44,1.84,3.86,3.86,0,0,0,.44,1.85,3.1,3.1,0,0,0,1.18,1.25A3.21,3.21,0,0,0,141.16,137.51Z"/><path class="cls-1" d="M148.87,126.76a1,1,0,0,1-.42-.08.46.46,0,0,1-.22-.25,1.31,1.31,0,0,1-.06-.43,1.17,1.17,0,0,1,.06-.42.41.41,0,0,1,.23-.22,1.24,1.24,0,0,1,.43-.07,1,1,0,0,1,.42.08.42.42,0,0,1,.21.24,1,1,0,0,1,.07.44,1,1,0,0,1-.07.41.37.37,0,0,1-.21.23A1.22,1.22,0,0,1,148.87,126.76Zm0,11.8a.68.68,0,0,1-.31-.06.35.35,0,0,1-.18-.18,1,1,0,0,1,0-.33v-8a1,1,0,0,1,0-.33.3.3,0,0,1,.18-.17,1,1,0,0,1,.33,0,.67.67,0,0,1,.32.06.31.31,0,0,1,.16.18,1,1,0,0,1,0,.35V138a1.06,1.06,0,0,1,0,.34.29.29,0,0,1-.17.17A1,1,0,0,1,148.87,138.56Z"/><path class="cls-1" d="M156.75,138.59a5.15,5.15,0,0,1-1.91-.34,4.28,4.28,0,0,1-1.48-1,4.5,4.5,0,0,1-1-1.48,5,5,0,0,1-.34-1.9,4.24,4.24,0,0,1,2.22-3.79,4.84,4.84,0,0,1,2.4-.58,4.5,4.5,0,0,1,1.59.27,3.91,3.91,0,0,1,1.26.72,3.26,3.26,0,0,1,.82,1,2.68,2.68,0,0,1,.3,1.22,1.51,1.51,0,0,1-.43,1.26,1.64,1.64,0,0,1-1,.34h-6a2.58,2.58,0,0,0,.5,1.72,3.73,3.73,0,0,0,1.37,1.12,3.87,3.87,0,0,0,1.67.38,6.73,6.73,0,0,0,.95,0,3.76,3.76,0,0,0,.71-.16,5,5,0,0,0,.5-.21l.38-.21a1.59,1.59,0,0,1,.32-.16.41.41,0,0,1,.22,0,.22.22,0,0,1,.18.1,1,1,0,0,1,.14.24.88.88,0,0,1,0,.24c0,.11-.15.27-.45.46a5,5,0,0,1-1.24.54A6.19,6.19,0,0,1,156.75,138.59Zm-3.55-5.13h5.66a1.78,1.78,0,0,0,.59-.08c.14-.06.21-.25.21-.56a1.88,1.88,0,0,0-.39-1.15,2.88,2.88,0,0,0-1.05-.85,3.53,3.53,0,0,0-1.52-.32,4.12,4.12,0,0,0-1.76.38,3.1,3.1,0,0,0-1.28,1.05A2.49,2.49,0,0,0,153.2,133.46Z"/><path class="cls-1" d="M166.08,138.61a5.33,5.33,0,0,1-.88-.08,5,5,0,0,1-.86-.25,4.39,4.39,0,0,1-.75-.38,2.4,2.4,0,0,1-.55-.49,1.66,1.66,0,0,1-.19-.32.36.36,0,0,1,0-.25.48.48,0,0,1,.18-.2c.14-.16.28-.22.4-.19a1.07,1.07,0,0,1,.5.36,2.25,2.25,0,0,0,.43.35,3.71,3.71,0,0,0,1.18.44,2.91,2.91,0,0,0,.57.06,3,3,0,0,0,1.69-.41,1.26,1.26,0,0,0,.65-1.11,1.62,1.62,0,0,0-.13-.64,1.37,1.37,0,0,0-.37-.46,2.1,2.1,0,0,0-.52-.33,3.71,3.71,0,0,0-.64-.25l-.72-.2c-.35-.09-.7-.18-1.05-.29a4.76,4.76,0,0,1-.94-.41,2.11,2.11,0,0,1-.68-.65,1.86,1.86,0,0,1-.25-1,2.15,2.15,0,0,1,.37-1.26,2.45,2.45,0,0,1,1-.83,3.59,3.59,0,0,1,1.54-.31,4.25,4.25,0,0,1,.82.07,3.23,3.23,0,0,1,.71.2,4.6,4.6,0,0,1,.63.31,2.49,2.49,0,0,1,.54.43.71.71,0,0,1,.25.38.52.52,0,0,1-.13.36.63.63,0,0,1-.37.22.46.46,0,0,1-.39-.18,3.12,3.12,0,0,0-.64-.49,2.91,2.91,0,0,0-.69-.27,2.48,2.48,0,0,0-.73-.1,2.64,2.64,0,0,0-1,.18,1.54,1.54,0,0,0-.67.52,1.26,1.26,0,0,0-.24.77,1,1,0,0,0,.16.54,1.42,1.42,0,0,0,.43.37,3.06,3.06,0,0,0,.63.26c.24.08.49.16.76.23l1.16.33a5,5,0,0,1,1.07.48,2.42,2.42,0,0,1,.79.77,2.29,2.29,0,0,1,.3,1.23,2.15,2.15,0,0,1-1,1.83A4.14,4.14,0,0,1,166.08,138.61Z"/><path class="cls-1" d="M185.31,138.54a.48.48,0,0,1-.38-.14.83.83,0,0,1-.15-.49v-1.27a3.89,3.89,0,0,1-.66.8,3.8,3.8,0,0,1-1.16.78,4,4,0,0,1-1.71.34,4.12,4.12,0,0,1-1.73-.36,4.27,4.27,0,0,1-1.37-1,4.52,4.52,0,0,1-.92-1.46,4.6,4.6,0,0,1-.34-1.79,4.56,4.56,0,0,1,1.27-3.17,4.6,4.6,0,0,1,1.38-1,4.25,4.25,0,0,1,1.71-.35,4.54,4.54,0,0,1,1.52.23,3.66,3.66,0,0,1,1.13.63,5.22,5.22,0,0,1,.88.93v-1.09a.94.94,0,0,1,.12-.54.54.54,0,0,1,.43-.16.48.48,0,0,1,.29.07.42.42,0,0,1,.16.22,1.53,1.53,0,0,1,0,.41v7.72a1.31,1.31,0,0,1,0,.37.38.38,0,0,1-.17.2A.61.61,0,0,1,185.31,138.54Zm-3.86-1a3.08,3.08,0,0,0,1.66-.47,3.38,3.38,0,0,0,1.17-1.26,3.65,3.65,0,0,0,.44-1.83,3.76,3.76,0,0,0-.45-1.88,3.43,3.43,0,0,0-1.21-1.24,3.15,3.15,0,0,0-1.65-.45,3.41,3.41,0,0,0-1.82.48,3.24,3.24,0,0,0-1.21,1.28,3.75,3.75,0,0,0-.44,1.85,3.62,3.62,0,0,0,.44,1.81,3.15,3.15,0,0,0,1.23,1.25A3.69,3.69,0,0,0,181.45,137.57Z"/><path class="cls-1" d="M189.15,142.18a1,1,0,0,1-.33-.05.32.32,0,0,1-.18-.18.83.83,0,0,1-.06-.34V130.08a.84.84,0,0,1,0-.35.3.3,0,0,1,.17-.18.75.75,0,0,1,.33-.06.47.47,0,0,1,.57.57v11.53a1.08,1.08,0,0,1,0,.35.32.32,0,0,1-.17.19A1,1,0,0,1,189.15,142.18Zm4.08-3.66a4.34,4.34,0,0,1-1.71-.33,3.72,3.72,0,0,1-1.35-.93,4.2,4.2,0,0,1-.88-1.44,5.74,5.74,0,0,1,0-3.72,4.2,4.2,0,0,1,.88-1.42,3.82,3.82,0,0,1,1.35-.92,4.34,4.34,0,0,1,1.71-.33,4.13,4.13,0,0,1,1.66.33,3.82,3.82,0,0,1,1.33.93,4.42,4.42,0,0,1,.89,1.45,5.14,5.14,0,0,1,.32,1.87,4.9,4.9,0,0,1-.32,1.84,4.39,4.39,0,0,1-.89,1.42,3.92,3.92,0,0,1-1.33.92A4.13,4.13,0,0,1,193.23,138.52Zm-.17-1a3.22,3.22,0,0,0,1.7-.45,3.12,3.12,0,0,0,1.19-1.25,3.86,3.86,0,0,0,.44-1.85,3.82,3.82,0,0,0-.44-1.86,3.17,3.17,0,0,0-1.19-1.22,3.31,3.31,0,0,0-1.7-.44,3.2,3.2,0,0,0-1.68.45,3.27,3.27,0,0,0-1.19,1.23,3.76,3.76,0,0,0-.43,1.84,3.86,3.86,0,0,0,.43,1.85,3.12,3.12,0,0,0,1.19,1.25A3.2,3.2,0,0,0,193.06,137.51Z"/><path class="cls-1" d="M204.12,138.63a4.51,4.51,0,0,1-1.79-.36,4.88,4.88,0,0,1-1.47-1,4.63,4.63,0,0,1-1-1.46,4.47,4.47,0,0,1-.36-1.79,4.61,4.61,0,0,1,.35-1.79,4.88,4.88,0,0,1,1-1.47,4.56,4.56,0,0,1,1.47-1,4.38,4.38,0,0,1,1.77-.36,4.5,4.5,0,0,1,4.54,4.58,4.59,4.59,0,0,1-.35,1.83,4.55,4.55,0,0,1-1,1.46,4.39,4.39,0,0,1-1.43,1A4.48,4.48,0,0,1,204.12,138.63Zm0-1a3.32,3.32,0,0,0,1.76-.48,3.5,3.5,0,0,0,1.25-1.31,3.67,3.67,0,0,0,.47-1.83,3.55,3.55,0,0,0-.46-1.83,3.28,3.28,0,0,0-1.24-1.24,3.59,3.59,0,0,0-1.8-.45,3.39,3.39,0,0,0-1.77.47,3.46,3.46,0,0,0-1.26,1.26,3.51,3.51,0,0,0-.46,1.81,3.67,3.67,0,0,0,.46,1.84,3.49,3.49,0,0,0,1.27,1.29A3.36,3.36,0,0,0,204.08,137.6Z"/><path class="cls-1" d="M214.76,137l-4.27-6.65a.64.64,0,0,1-.14-.44.57.57,0,0,1,.29-.32.61.61,0,0,1,.44-.14.62.62,0,0,1,.35.31l3.9,6.17Zm-2,5.14c-.18-.07-.3-.16-.33-.27a.76.76,0,0,1,.09-.47l5.19-11.62a.64.64,0,0,1,.29-.38.54.54,0,0,1,.45.05c.19.09.29.19.32.31a.78.78,0,0,1-.1.45l-5.2,11.67c-.09.2-.18.32-.28.34A.71.71,0,0,1,212.76,142.16Z"/><path class="cls-1" d="M228.9,138.54a.46.46,0,0,1-.38-.14.89.89,0,0,1-.16-.49v-1.27a3.8,3.8,0,0,1-.65.8,4,4,0,0,1-2.88,1.12,4.11,4.11,0,0,1-1.72-.36,4.31,4.31,0,0,1-1.38-1,4.7,4.7,0,0,1-.92-1.46,4.79,4.79,0,0,1-.33-1.79,4.57,4.57,0,0,1,.33-1.74,4.42,4.42,0,0,1,.93-1.43,4.52,4.52,0,0,1,1.39-1,4.2,4.2,0,0,1,1.7-.35,4.65,4.65,0,0,1,1.53.23,3.61,3.61,0,0,1,1.12.63,4.88,4.88,0,0,1,.88.93v-1.09a.93.93,0,0,1,.13-.54.65.65,0,0,1,.72-.09.36.36,0,0,1,.15.22,1.47,1.47,0,0,1,0,.41v7.72a1.27,1.27,0,0,1,0,.37.32.32,0,0,1-.16.2A.67.67,0,0,1,228.9,138.54Zm-3.86-1a3,3,0,0,0,1.65-.47,3.33,3.33,0,0,0,1.18-1.26,3.75,3.75,0,0,0,.44-1.83,3.66,3.66,0,0,0-.46-1.88,3.35,3.35,0,0,0-1.21-1.24,3.11,3.11,0,0,0-1.64-.45,3.39,3.39,0,0,0-1.82.48A3.27,3.27,0,0,0,222,132.2a3.86,3.86,0,0,0-.44,1.85,3.73,3.73,0,0,0,.44,1.81,3.11,3.11,0,0,0,1.24,1.25A3.67,3.67,0,0,0,225,137.57Z"/><path class="cls-1" d="M236.27,138.56a4.16,4.16,0,0,1-1.65-.33,3.76,3.76,0,0,1-1.34-.93,4.6,4.6,0,0,1-.89-1.45,5.36,5.36,0,0,1-.32-1.87,5.15,5.15,0,0,1,.32-1.84,4.56,4.56,0,0,1,.89-1.42,3.87,3.87,0,0,1,1.34-.92,4.16,4.16,0,0,1,1.65-.33,4.34,4.34,0,0,1,1.71.33,3.72,3.72,0,0,1,1.35.93,4.2,4.2,0,0,1,.88,1.44,5.73,5.73,0,0,1,0,3.72,4.2,4.2,0,0,1-.88,1.42,3.82,3.82,0,0,1-1.35.92A4.34,4.34,0,0,1,236.27,138.56Zm.17-1a3.19,3.19,0,0,0,1.69-.45,3.32,3.32,0,0,0,1.18-1.23,3.76,3.76,0,0,0,.44-1.84,3.82,3.82,0,0,0-.44-1.86,3.16,3.16,0,0,0-1.19-1.24,3.2,3.2,0,0,0-1.68-.45,3.24,3.24,0,0,0-1.69.45,3.11,3.11,0,0,0-1.2,1.24,3.82,3.82,0,0,0-.44,1.86,3.76,3.76,0,0,0,.44,1.84,3.26,3.26,0,0,0,2.89,1.68Zm3.91,1a.58.58,0,0,1-.43-.14.63.63,0,0,1-.12-.43V125.88a1,1,0,0,1,0-.35.33.33,0,0,1,.17-.18.71.71,0,0,1,.31-.06.75.75,0,0,1,.33.06.42.42,0,0,1,.17.18.76.76,0,0,1,0,.33V138a1.09,1.09,0,0,1,0,.34.34.34,0,0,1-.16.19A.75.75,0,0,1,240.35,138.56Z"/><path class="cls-1" d="M247.91,138.63a4.46,4.46,0,0,1-1.78-.36,4.64,4.64,0,0,1-1.47-1,4.62,4.62,0,0,1-1-5,4.59,4.59,0,0,1,2.45-2.45,4.39,4.39,0,0,1,1.78-.36,4.45,4.45,0,0,1,2.29.6,4.52,4.52,0,0,1,1.64,1.64,4.59,4.59,0,0,1,.61,2.34,4.77,4.77,0,0,1-.35,1.83,4.72,4.72,0,0,1-1,1.46,4.44,4.44,0,0,1-3.19,1.33Zm0-1a3.29,3.29,0,0,0,1.75-.48,3.52,3.52,0,0,0,1.26-1.31,3.91,3.91,0,0,0,0-3.66,3.31,3.31,0,0,0-1.25-1.24,3.53,3.53,0,0,0-1.79-.45,3.44,3.44,0,0,0-3,1.73,3.51,3.51,0,0,0-.47,1.81,3.68,3.68,0,0,0,.47,1.84,3.54,3.54,0,0,0,1.26,1.29A3.4,3.4,0,0,0,247.88,137.6Z"/><path class="cls-1" d="M257.76,138.61a5.35,5.35,0,0,1-.89-.08,4.89,4.89,0,0,1-.85-.25,4.39,4.39,0,0,1-.75-.38,2.21,2.21,0,0,1-.55-.49,1.26,1.26,0,0,1-.19-.32.31.31,0,0,1,0-.25.48.48,0,0,1,.18-.2c.14-.16.27-.22.4-.19a1.05,1.05,0,0,1,.49.36,2.05,2.05,0,0,0,.44.35,2.5,2.5,0,0,0,.57.27,2.64,2.64,0,0,0,.61.17,2.91,2.91,0,0,0,.57.06,3.07,3.07,0,0,0,1.69-.41,1.25,1.25,0,0,0,.64-1.11,1.35,1.35,0,0,0-.49-1.1,2.3,2.3,0,0,0-.52-.33,4.18,4.18,0,0,0-.65-.25l-.71-.2c-.36-.09-.71-.18-1.06-.29a4.76,4.76,0,0,1-.94-.41,2,2,0,0,1-.67-.65,1.86,1.86,0,0,1-.26-1,2.15,2.15,0,0,1,.37-1.26,2.48,2.48,0,0,1,1-.83,3.53,3.53,0,0,1,1.54-.31,4.14,4.14,0,0,1,.81.07,3.32,3.32,0,0,1,.72.2,4,4,0,0,1,.62.31,2.49,2.49,0,0,1,.54.43.61.61,0,0,1,.25.38.52.52,0,0,1-.13.36.64.64,0,0,1-.36.22.47.47,0,0,1-.4-.18,2.87,2.87,0,0,0-.64-.49,3,3,0,0,0-.68-.27,2.77,2.77,0,0,0-1.72.08,1.57,1.57,0,0,0-.68.52,1.32,1.32,0,0,0-.23.77.89.89,0,0,0,.16.54,1.42,1.42,0,0,0,.43.37,2.75,2.75,0,0,0,.62.26l.76.23,1.16.33a5.29,5.29,0,0,1,1.08.48,2.39,2.39,0,0,1,.78.77,2.2,2.2,0,0,1,.31,1.23,2.15,2.15,0,0,1-1,1.83A4.14,4.14,0,0,1,257.76,138.61Z"/><path class="cls-1" d="M273.26,138.59a5.11,5.11,0,0,1-1.91-.34,4.19,4.19,0,0,1-1.48-1,4.5,4.5,0,0,1-1-1.48,5,5,0,0,1-.34-1.9,4.19,4.19,0,0,1,.59-2.22,4.25,4.25,0,0,1,1.63-1.57,4.81,4.81,0,0,1,2.39-.58,4.51,4.51,0,0,1,1.6.27,3.76,3.76,0,0,1,1.25.72,3.29,3.29,0,0,1,.83,1,2.68,2.68,0,0,1,.3,1.22,1.54,1.54,0,0,1-.43,1.26,1.66,1.66,0,0,1-1,.34h-6a2.58,2.58,0,0,0,.5,1.72,3.65,3.65,0,0,0,1.37,1.12,3.83,3.83,0,0,0,1.66.38,6.79,6.79,0,0,0,1,0,3.64,3.64,0,0,0,.7-.16,4.42,4.42,0,0,0,.51-.21l.38-.21a1.36,1.36,0,0,1,.32-.16.4.4,0,0,1,.22,0,.24.24,0,0,1,.18.1,1,1,0,0,1,.13.24.61.61,0,0,1,0,.24c0,.11-.15.27-.46.46a4.78,4.78,0,0,1-1.23.54A6.24,6.24,0,0,1,273.26,138.59Zm-3.55-5.13h5.66a1.82,1.82,0,0,0,.59-.08c.14-.06.21-.25.21-.56a1.88,1.88,0,0,0-.39-1.15,2.83,2.83,0,0,0-1.06-.85,3.5,3.5,0,0,0-1.52-.32,4.07,4.07,0,0,0-1.75.38,3.19,3.19,0,0,0-1.29,1.05A2.48,2.48,0,0,0,269.71,133.46Z"/><path class="cls-1" d="M280.23,138.54a.64.64,0,0,1-.3-.06.31.31,0,0,1-.16-.18,1,1,0,0,1,0-.33v-8a.78.78,0,0,1,0-.3.28.28,0,0,1,.17-.15.87.87,0,0,1,.31,0,.75.75,0,0,1,.23,0,.38.38,0,0,1,.15.09.27.27,0,0,1,.09.15.75.75,0,0,1,0,.23v1.12a4.53,4.53,0,0,1,.55-.62A3.91,3.91,0,0,1,282,130a3.21,3.21,0,0,1,.82-.37,3.45,3.45,0,0,1,1-.14,4.18,4.18,0,0,1,1.51.28,3.37,3.37,0,0,1,1.2.8,3.67,3.67,0,0,1,.8,1.27,4.81,4.81,0,0,1,.29,1.72V138a1,1,0,0,1,0,.33.3.3,0,0,1-.16.17,1,1,0,0,1-.33,0,.75.75,0,0,1-.33-.06.33.33,0,0,1-.17-.18,1,1,0,0,1-.05-.33V133.5a4,4,0,0,0-.3-1.61,2.39,2.39,0,0,0-.91-1.07,2.9,2.9,0,0,0-1.54-.38,3.16,3.16,0,0,0-1.58.38,2.63,2.63,0,0,0-1,1.07,3.27,3.27,0,0,0-.37,1.61V138a1,1,0,0,1,0,.33.31.31,0,0,1-.17.17A1.06,1.06,0,0,1,280.23,138.54Z"/><path class="cls-1" d="M20.09,163.59a5.11,5.11,0,0,1-1.91-.34,4.19,4.19,0,0,1-1.48-1,4.5,4.5,0,0,1-1-1.48,5,5,0,0,1-.34-1.9,4.19,4.19,0,0,1,.59-2.22,4.25,4.25,0,0,1,1.63-1.57,4.81,4.81,0,0,1,2.39-.58,4.51,4.51,0,0,1,1.6.27,3.76,3.76,0,0,1,1.25.72,3.29,3.29,0,0,1,.83,1,2.67,2.67,0,0,1,.29,1.22,1.54,1.54,0,0,1-.42,1.26,1.66,1.66,0,0,1-1,.34h-6a2.58,2.58,0,0,0,.5,1.72,3.65,3.65,0,0,0,1.37,1.12,3.83,3.83,0,0,0,1.66.38,6.79,6.79,0,0,0,1,0,3.64,3.64,0,0,0,.7-.16,4.42,4.42,0,0,0,.51-.21l.38-.21a1.36,1.36,0,0,1,.32-.16.4.4,0,0,1,.22,0,.24.24,0,0,1,.18.1,1,1,0,0,1,.13.24.61.61,0,0,1,0,.24c0,.11-.15.27-.46.46a4.78,4.78,0,0,1-1.23.54A6.24,6.24,0,0,1,20.09,163.59Zm-3.55-5.13H22.2a1.82,1.82,0,0,0,.59-.08c.14-.06.21-.25.21-.56a1.88,1.88,0,0,0-.39-1.15,2.83,2.83,0,0,0-1.06-.85A3.5,3.5,0,0,0,20,155.5a4.15,4.15,0,0,0-1.76.38A3.23,3.23,0,0,0,17,156.93,2.48,2.48,0,0,0,16.54,158.46Z"/><path class="cls-1" d="M29,163.56a3.5,3.5,0,0,1-1-.12,2.35,2.35,0,0,1-.75-.34,1.84,1.84,0,0,1-.54-.57,2.41,2.41,0,0,1-.33-.8,4.49,4.49,0,0,1-.1-1v-9.88a1.08,1.08,0,0,1,.05-.35.33.33,0,0,1,.17-.18.68.68,0,0,1,.31-.06,1,1,0,0,1,.33.05.29.29,0,0,1,.18.16.75.75,0,0,1,.06.33v10a2.3,2.3,0,0,0,.1.73,1.41,1.41,0,0,0,.29.54,1.27,1.27,0,0,0,.49.32,2.07,2.07,0,0,0,.68.1,1,1,0,0,1,.35.05.33.33,0,0,1,.18.17.75.75,0,0,1,.06.33.83.83,0,0,1-.06.34.33.33,0,0,1-.18.17A1,1,0,0,1,29,163.56Z"/><path class="cls-1" d="M40.08,163.61a5.45,5.45,0,0,1-.89-.08,4.89,4.89,0,0,1-.85-.25,4.39,4.39,0,0,1-.75-.38,2.21,2.21,0,0,1-.55-.49,1.66,1.66,0,0,1-.19-.32.31.31,0,0,1,0-.25.48.48,0,0,1,.18-.2c.14-.16.27-.22.4-.19a1.05,1.05,0,0,1,.49.36,2.33,2.33,0,0,0,.44.35,3,3,0,0,0,.57.27,2.64,2.64,0,0,0,.61.17,2.91,2.91,0,0,0,.57.06,3.07,3.07,0,0,0,1.69-.41,1.25,1.25,0,0,0,.64-1.11,1.35,1.35,0,0,0-.49-1.1,2.3,2.3,0,0,0-.52-.33,4.18,4.18,0,0,0-.65-.25l-.71-.2c-.36-.09-.71-.18-1.06-.29a5,5,0,0,1-.94-.41,2,2,0,0,1-.67-.65,1.86,1.86,0,0,1-.26-1,2.22,2.22,0,0,1,.37-1.26,2.48,2.48,0,0,1,1-.83,3.56,3.56,0,0,1,1.54-.31,4.14,4.14,0,0,1,.81.07,3.32,3.32,0,0,1,.72.2,4,4,0,0,1,.62.31,2.82,2.82,0,0,1,.55.43.63.63,0,0,1,.24.38.52.52,0,0,1-.13.36.59.59,0,0,1-.36.22.47.47,0,0,1-.4-.18,2.87,2.87,0,0,0-.64-.49,3,3,0,0,0-.68-.27,2.77,2.77,0,0,0-1.72.08,1.57,1.57,0,0,0-.68.52,1.32,1.32,0,0,0-.23.77.89.89,0,0,0,.16.54,1.42,1.42,0,0,0,.43.37,2.75,2.75,0,0,0,.62.26l.76.23,1.16.33a5.29,5.29,0,0,1,1.08.48,2.39,2.39,0,0,1,.78.77,2.2,2.2,0,0,1,.31,1.23,2.15,2.15,0,0,1-1,1.83A4.14,4.14,0,0,1,40.08,163.61Z"/><path class="cls-1" d="M49.63,163.57a4.08,4.08,0,0,1-1.5-.27,3.57,3.57,0,0,1-1.19-.8,3.53,3.53,0,0,1-.8-1.27,4.84,4.84,0,0,1-.29-1.72V155a1,1,0,0,1,0-.33.29.29,0,0,1,.17-.17.93.93,0,0,1,.32,0,.78.78,0,0,1,.33.06.33.33,0,0,1,.17.18,1,1,0,0,1,0,.33v4.47a4,4,0,0,0,.3,1.6,2.41,2.41,0,0,0,.91,1.08,2.86,2.86,0,0,0,1.52.38,3.21,3.21,0,0,0,1.6-.38,2.65,2.65,0,0,0,1-1.08,3.4,3.4,0,0,0,.37-1.6V155a1,1,0,0,1,0-.33.29.29,0,0,1,.17-.17,1.06,1.06,0,0,1,.34,0,.67.67,0,0,1,.3.06.31.31,0,0,1,.16.18,1,1,0,0,1,0,.33v8a.79.79,0,0,1,0,.29.28.28,0,0,1-.16.16.89.89,0,0,1-.32,0,.75.75,0,0,1-.23,0,.32.32,0,0,1-.15-.09.38.38,0,0,1-.09-.15.75.75,0,0,1,0-.23v-1.12a5.31,5.31,0,0,1-.55.62,4.34,4.34,0,0,1-.67.53,3.13,3.13,0,0,1-.83.37A3.53,3.53,0,0,1,49.63,163.57Z"/><path class="cls-1" d="M60.79,163.59a5.07,5.07,0,0,1-1.91-.34,4.29,4.29,0,0,1-2.44-2.45,5,5,0,0,1-.35-1.9,4.28,4.28,0,0,1,.59-2.22,4.34,4.34,0,0,1,1.64-1.57,4.78,4.78,0,0,1,2.39-.58,4.55,4.55,0,0,1,1.6.27,3.76,3.76,0,0,1,1.25.72,3.44,3.44,0,0,1,.83,1,2.8,2.8,0,0,1,.29,1.22,1.51,1.51,0,0,1-.43,1.26,1.64,1.64,0,0,1-1,.34h-6a2.64,2.64,0,0,0,.51,1.72,3.57,3.57,0,0,0,1.37,1.12,3.83,3.83,0,0,0,1.66.38,7,7,0,0,0,1,0,3.83,3.83,0,0,0,.7-.16,4.2,4.2,0,0,0,.5-.21l.38-.21a1.64,1.64,0,0,1,.33-.16.38.38,0,0,1,.22,0,.24.24,0,0,1,.18.1,1.47,1.47,0,0,1,.13.24.86.86,0,0,1,0,.24c0,.11-.16.27-.46.46a4.78,4.78,0,0,1-1.23.54A6.24,6.24,0,0,1,60.79,163.59Zm-3.56-5.13H62.9a1.86,1.86,0,0,0,.59-.08c.13-.06.2-.25.2-.56a1.88,1.88,0,0,0-.39-1.15,2.88,2.88,0,0,0-1-.85,3.5,3.5,0,0,0-1.52-.32,4.15,4.15,0,0,0-1.76.38,3.16,3.16,0,0,0-1.28,1.05A2.49,2.49,0,0,0,57.23,158.46Z"/><path class="cls-1" d="M69.74,163.56a3.5,3.5,0,0,1-1-.12,2.35,2.35,0,0,1-.75-.34,2,2,0,0,1-.55-.57,2.63,2.63,0,0,1-.32-.8,4.49,4.49,0,0,1-.1-1v-9.88a1.12,1.12,0,0,1,0-.35.35.35,0,0,1,.18-.18.68.68,0,0,1,.31-.06,1,1,0,0,1,.33.05.35.35,0,0,1,.18.16.75.75,0,0,1,.06.33v10a2.65,2.65,0,0,0,.09.73,1.42,1.42,0,0,0,.3.54,1.27,1.27,0,0,0,.49.32,2,2,0,0,0,.68.1,1,1,0,0,1,.35.05.33.33,0,0,1,.18.17.75.75,0,0,1,.06.33.83.83,0,0,1-.06.34.33.33,0,0,1-.18.17A1,1,0,0,1,69.74,163.56Z"/><path class="cls-1" d="M76.63,163.63a4.42,4.42,0,0,1-1.78-.36,4.8,4.8,0,0,1-1.48-1,4.6,4.6,0,0,1-1-1.46,4.69,4.69,0,0,1,0-3.58,4.59,4.59,0,0,1,2.45-2.45,4.38,4.38,0,0,1,1.77-.36,4.46,4.46,0,0,1,2.3.6,4.52,4.52,0,0,1,1.64,1.64,4.81,4.81,0,0,1,.25,4.17,4.48,4.48,0,0,1-2.4,2.44A4.45,4.45,0,0,1,76.63,163.63Zm0-1a3.3,3.3,0,0,0,1.76-.48,3.52,3.52,0,0,0,1.26-1.31,3.91,3.91,0,0,0,0-3.66,3.31,3.31,0,0,0-1.25-1.24,3.53,3.53,0,0,0-1.79-.45,3.44,3.44,0,0,0-3,1.73,3.51,3.51,0,0,0-.47,1.81,3.68,3.68,0,0,0,.47,1.84,3.54,3.54,0,0,0,1.26,1.29A3.39,3.39,0,0,0,76.59,162.6Z"/><path class="cls-1" d="M92.78,163.63a4.42,4.42,0,0,1-1.78-.36,4.8,4.8,0,0,1-1.48-1,4.6,4.6,0,0,1-1-1.46,4.57,4.57,0,0,1,0-3.58A4.5,4.5,0,0,1,91,154.79a4.39,4.39,0,0,1,1.78-.36A4.45,4.45,0,0,1,95,155a4.52,4.52,0,0,1,1.64,1.64,4.81,4.81,0,0,1,.25,4.17,4.52,4.52,0,0,1-1,1.46,4.44,4.44,0,0,1-3.19,1.33Zm0-1a3.29,3.29,0,0,0,1.75-.48,3.52,3.52,0,0,0,1.26-1.31,3.91,3.91,0,0,0,0-3.66,3.31,3.31,0,0,0-1.25-1.24,3.53,3.53,0,0,0-1.79-.45,3.43,3.43,0,0,0-1.78.47,3.36,3.36,0,0,0-1.25,1.26,3.42,3.42,0,0,0-.47,1.81,3.58,3.58,0,0,0,.47,1.84A3.47,3.47,0,0,0,91,162.13,3.4,3.4,0,0,0,92.75,162.6Z"/><path class="cls-1" d="M109.1,163.59a5.15,5.15,0,0,1-1.91-.34,4.28,4.28,0,0,1-1.48-1,4.5,4.5,0,0,1-1-1.48,5.22,5.22,0,0,1-.34-1.9,4.24,4.24,0,0,1,2.22-3.79,4.84,4.84,0,0,1,2.4-.58,4.5,4.5,0,0,1,1.59.27,3.81,3.81,0,0,1,1.26.72,3.26,3.26,0,0,1,.82,1,2.68,2.68,0,0,1,.3,1.22,1.51,1.51,0,0,1-.43,1.26,1.64,1.64,0,0,1-1,.34h-6a2.63,2.63,0,0,0,.5,1.72,3.65,3.65,0,0,0,1.37,1.12,3.86,3.86,0,0,0,1.66.38,6.79,6.79,0,0,0,1,0,3.76,3.76,0,0,0,.71-.16,5,5,0,0,0,.5-.21l.38-.21a1.59,1.59,0,0,1,.32-.16.41.41,0,0,1,.22,0,.22.22,0,0,1,.18.1,1,1,0,0,1,.14.24.88.88,0,0,1,0,.24c0,.11-.15.27-.45.46a5,5,0,0,1-1.24.54A6.19,6.19,0,0,1,109.1,163.59Zm-3.55-5.13h5.66a1.78,1.78,0,0,0,.59-.08c.14-.06.21-.25.21-.56a1.88,1.88,0,0,0-.39-1.15,2.88,2.88,0,0,0-1.05-.85,3.53,3.53,0,0,0-1.52-.32,4.12,4.12,0,0,0-1.76.38,3.1,3.1,0,0,0-1.28,1.05A2.49,2.49,0,0,0,105.55,158.46Z"/><path class="cls-1" d="M116.08,163.54a.68.68,0,0,1-.31-.06.35.35,0,0,1-.16-.18,1,1,0,0,1,0-.33v-8a.78.78,0,0,1,0-.3.28.28,0,0,1,.17-.15.93.93,0,0,1,.32,0,.73.73,0,0,1,.22,0,.35.35,0,0,1,.16.09.35.35,0,0,1,.08.15.75.75,0,0,1,0,.23v1.12a5.31,5.31,0,0,1,.55-.62,4,4,0,0,1,.68-.53,3,3,0,0,1,.81-.37,3.45,3.45,0,0,1,1-.14,4.14,4.14,0,0,1,1.51.28,3.5,3.5,0,0,1,1.21.8,3.65,3.65,0,0,1,.79,1.27,4.81,4.81,0,0,1,.29,1.72V163a1,1,0,0,1-.05.33.27.27,0,0,1-.16.17.89.89,0,0,1-.32,0,.75.75,0,0,1-.33-.06.35.35,0,0,1-.18-.18,1,1,0,0,1,0-.33V158.5a3.79,3.79,0,0,0-.31-1.61,2.33,2.33,0,0,0-.91-1.07,2.88,2.88,0,0,0-1.54-.38,3.18,3.18,0,0,0-1.58.38,2.63,2.63,0,0,0-1,1.07,3.39,3.39,0,0,0-.36,1.61V163a1,1,0,0,1,0,.33.29.29,0,0,1-.17.17A1,1,0,0,1,116.08,163.54Z"/><path class="cls-1" d="M135,163.57a4.08,4.08,0,0,1-1.5-.27,3.61,3.61,0,0,1-1.2-.8,3.67,3.67,0,0,1-.8-1.27,5.08,5.08,0,0,1-.28-1.72V155a1,1,0,0,1,.05-.33.29.29,0,0,1,.17-.17.87.87,0,0,1,.31,0,.75.75,0,0,1,.33.06.3.3,0,0,1,.17.18.76.76,0,0,1,.05.33v4.47a3.81,3.81,0,0,0,.31,1.6,2.35,2.35,0,0,0,.91,1.08,2.83,2.83,0,0,0,1.52.38,3.17,3.17,0,0,0,1.59-.38,2.61,2.61,0,0,0,1-1.08,3.4,3.4,0,0,0,.36-1.6V155a1,1,0,0,1,0-.33.29.29,0,0,1,.17-.17,1,1,0,0,1,.33,0,.68.68,0,0,1,.31.06.35.35,0,0,1,.16.18,1,1,0,0,1,.05.33v8a.79.79,0,0,1-.05.29.31.31,0,0,1-.16.16,1,1,0,0,1-.33,0,.69.69,0,0,1-.22,0,.35.35,0,0,1-.16-.09.53.53,0,0,1-.08-.15.75.75,0,0,1,0-.23v-1.12a5.31,5.31,0,0,1-.55.62,4,4,0,0,1-.68.53,3.06,3.06,0,0,1-.82.37A3.58,3.58,0,0,1,135,163.57Z"/><path class="cls-1" d="M142.54,163.54a.67.67,0,0,1-.3-.06.31.31,0,0,1-.16-.18A1,1,0,0,1,142,163v-8a.78.78,0,0,1,.05-.3.28.28,0,0,1,.17-.15.91.91,0,0,1,.31,0,.75.75,0,0,1,.23,0,.38.38,0,0,1,.15.09.27.27,0,0,1,.09.15.75.75,0,0,1,0,.23v1.12a5.31,5.31,0,0,1,.55-.62,4.34,4.34,0,0,1,.67-.53,3.21,3.21,0,0,1,.82-.37,3.45,3.45,0,0,1,1-.14,4.18,4.18,0,0,1,1.51.28,3.37,3.37,0,0,1,1.2.8,3.53,3.53,0,0,1,.8,1.27,4.81,4.81,0,0,1,.29,1.72V163a1,1,0,0,1-.05.33.3.3,0,0,1-.16.17,1,1,0,0,1-.33,0,.78.78,0,0,1-.33-.06.33.33,0,0,1-.17-.18,1,1,0,0,1-.05-.33V158.5a4,4,0,0,0-.3-1.61,2.39,2.39,0,0,0-.91-1.07,2.9,2.9,0,0,0-1.54-.38,3.16,3.16,0,0,0-1.58.38,2.63,2.63,0,0,0-1,1.07,3.27,3.27,0,0,0-.37,1.61V163a1,1,0,0,1,0,.33.31.31,0,0,1-.17.17A1.06,1.06,0,0,1,142.54,163.54Z"/><path class="cls-1" d="M160.94,163.61a5.35,5.35,0,0,1-.89-.08,4.65,4.65,0,0,1-.85-.25,3.76,3.76,0,0,1-.75-.38,2,2,0,0,1-.55-.49,1.26,1.26,0,0,1-.19-.32.28.28,0,0,1,0-.25.48.48,0,0,1,.18-.2c.14-.16.27-.22.4-.19a1.05,1.05,0,0,1,.49.36,2.05,2.05,0,0,0,.44.35,2.5,2.5,0,0,0,.57.27,2.7,2.7,0,0,0,.6.17,3.43,3.43,0,0,0,2.27-.35,1.25,1.25,0,0,0,.64-1.11,1.35,1.35,0,0,0-.49-1.1,2.16,2.16,0,0,0-.53-.33,3.71,3.71,0,0,0-.64-.25l-.71-.2c-.36-.09-.71-.18-1.06-.29a4.76,4.76,0,0,1-.94-.41,2,2,0,0,1-.67-.65,1.86,1.86,0,0,1-.26-1,2.15,2.15,0,0,1,.37-1.26,2.48,2.48,0,0,1,1-.83,3.53,3.53,0,0,1,1.54-.31,4.14,4.14,0,0,1,.81.07,3.32,3.32,0,0,1,.72.2,4,4,0,0,1,.62.31,2.49,2.49,0,0,1,.54.43.61.61,0,0,1,.25.38.52.52,0,0,1-.13.36.64.64,0,0,1-.36.22.47.47,0,0,1-.4-.18,3.12,3.12,0,0,0-.64-.49,3,3,0,0,0-.68-.27,2.77,2.77,0,0,0-1.72.08,1.57,1.57,0,0,0-.68.52,1.25,1.25,0,0,0-.23.77.89.89,0,0,0,.16.54,1.38,1.38,0,0,0,.42.37,3.06,3.06,0,0,0,.63.26l.76.23,1.16.33a5,5,0,0,1,1.07.48,2.33,2.33,0,0,1,.79.77,2.2,2.2,0,0,1,.31,1.23,2.15,2.15,0,0,1-1,1.83A4.16,4.16,0,0,1,160.94,163.61Z"/><path class="cls-1" d="M171,163.63a4.42,4.42,0,0,1-1.78-.36,4.8,4.8,0,0,1-1.48-1,4.6,4.6,0,0,1-1-1.46,4.69,4.69,0,0,1,0-3.58,4.59,4.59,0,0,1,2.45-2.45,4.38,4.38,0,0,1,1.77-.36,4.46,4.46,0,0,1,2.3.6,4.52,4.52,0,0,1,1.64,1.64,4.81,4.81,0,0,1,.25,4.17,4.48,4.48,0,0,1-2.4,2.44A4.45,4.45,0,0,1,171,163.63Zm0-1a3.3,3.3,0,0,0,1.76-.48,3.52,3.52,0,0,0,1.26-1.31,3.91,3.91,0,0,0,0-3.66,3.31,3.31,0,0,0-1.25-1.24,3.53,3.53,0,0,0-1.79-.45,3.44,3.44,0,0,0-3,1.73,3.51,3.51,0,0,0-.47,1.81,3.68,3.68,0,0,0,.47,1.84,3.54,3.54,0,0,0,1.26,1.29A3.39,3.39,0,0,0,171,162.6Z"/><path class="cls-1" d="M178.4,167.18a1.06,1.06,0,0,1-.34-.05.39.39,0,0,1-.18-.18.84.84,0,0,1,0-.34V155.08a1.08,1.08,0,0,1,0-.35.37.37,0,0,1,.17-.18.83.83,0,0,1,.34-.06.48.48,0,0,1,.57.57v11.53a1.08,1.08,0,0,1,0,.35.32.32,0,0,1-.17.19A1,1,0,0,1,178.4,167.18Zm4.08-3.66a4.34,4.34,0,0,1-1.71-.33,3.72,3.72,0,0,1-1.35-.93,4.2,4.2,0,0,1-.88-1.44,5.74,5.74,0,0,1,0-3.72,4.2,4.2,0,0,1,.88-1.42,3.82,3.82,0,0,1,1.35-.92,4.34,4.34,0,0,1,1.71-.33,4.05,4.05,0,0,1,1.65.33,3.73,3.73,0,0,1,1.33.93,4.45,4.45,0,0,1,.9,1.45,5.36,5.36,0,0,1,.32,1.87,5.11,5.11,0,0,1-.32,1.84,4.41,4.41,0,0,1-.9,1.42,3.83,3.83,0,0,1-1.33.92A4.05,4.05,0,0,1,182.48,163.52Zm-.17-1a3.25,3.25,0,0,0,1.7-.45,3.12,3.12,0,0,0,1.19-1.25,3.86,3.86,0,0,0,.44-1.85,3.82,3.82,0,0,0-.44-1.86,3.17,3.17,0,0,0-1.19-1.22,3.34,3.34,0,0,0-1.7-.44,3.2,3.2,0,0,0-1.68.45,3.27,3.27,0,0,0-1.19,1.23A3.76,3.76,0,0,0,179,159a3.86,3.86,0,0,0,.44,1.85,3.12,3.12,0,0,0,1.19,1.25A3.2,3.2,0,0,0,182.31,162.51Z"/><path class="cls-1" d="M193.37,163.63a4.51,4.51,0,0,1-1.79-.36,4.64,4.64,0,0,1-1.47-1,4.5,4.5,0,0,1-1.36-3.25,4.61,4.61,0,0,1,.35-1.79,4.88,4.88,0,0,1,1-1.47,4.52,4.52,0,0,1,1.46-1,4.65,4.65,0,0,1,4.08.24,4.54,4.54,0,0,1,2.24,4,4.77,4.77,0,0,1-.35,1.83,4.55,4.55,0,0,1-1,1.46,4.39,4.39,0,0,1-1.43,1A4.48,4.48,0,0,1,193.37,163.63Zm0-1a3.32,3.32,0,0,0,1.76-.48,3.58,3.58,0,0,0,1.25-1.31,3.67,3.67,0,0,0,.47-1.83,3.55,3.55,0,0,0-.46-1.83,3.28,3.28,0,0,0-1.24-1.24,3.59,3.59,0,0,0-1.8-.45,3.45,3.45,0,0,0-1.78.47,3.46,3.46,0,0,0-1.71,3.07,3.67,3.67,0,0,0,.46,1.84,3.54,3.54,0,0,0,1.26,1.29A3.42,3.42,0,0,0,193.33,162.6Z"/><path class="cls-1" d="M200.85,163.56a.67.67,0,0,1-.3-.06.31.31,0,0,1-.16-.19,1.06,1.06,0,0,1,0-.34V155a1,1,0,0,1,0-.35.25.25,0,0,1,.16-.16.92.92,0,0,1,.32,0,1,1,0,0,1,.32,0,.31.31,0,0,1,.18.16.84.84,0,0,1,0,.35v.8l.38-.59a2.23,2.23,0,0,1,.46-.46,2.08,2.08,0,0,1,.65-.32,3.84,3.84,0,0,1,1-.11,2.4,2.4,0,0,1,.56.06,1.8,1.8,0,0,1,.48.15,1.44,1.44,0,0,1,.37.21,1,1,0,0,1,.23.22.43.43,0,0,1,.07.23.53.53,0,0,1-.2.42.69.69,0,0,1-.39.17.55.55,0,0,1-.31-.07,1.34,1.34,0,0,1-.22-.16,1.08,1.08,0,0,0-.34-.16,3,3,0,0,0-.7-.06,1.93,1.93,0,0,0-.63.12,2.23,2.23,0,0,0-.65.37,1.92,1.92,0,0,0-.53.65,2,2,0,0,0-.21,1V163a1.09,1.09,0,0,1,0,.34.31.31,0,0,1-.17.17A1.11,1.11,0,0,1,200.85,163.56Z"/><path class="cls-1" d="M208,154.74l1.69,0,2.64,0a.76.76,0,0,1,.33,0,.26.26,0,0,1,.18.16.64.64,0,0,1,.06.3.76.76,0,0,1,0,.33.25.25,0,0,1-.16.17.69.69,0,0,1-.32.05l-2.68,0-1.73,0a.59.59,0,0,1-.42-.12.67.67,0,0,1-.11-.43.51.51,0,0,1,.13-.4A.73.73,0,0,1,208,154.74Zm4.22,8.82a5.85,5.85,0,0,1-1.44-.16,2.31,2.31,0,0,1-.94-.47,1.8,1.8,0,0,1-.51-.87,5.05,5.05,0,0,1-.15-1.34V152a1.12,1.12,0,0,1,0-.35.37.37,0,0,1,.17-.18.62.62,0,0,1,.3,0,1,1,0,0,1,.33,0,.32.32,0,0,1,.18.16.75.75,0,0,1,.06.33v8.83a3.36,3.36,0,0,0,.1.94,1,1,0,0,0,.33.53,1.18,1.18,0,0,0,.6.21,6,6,0,0,0,.91.05,1,1,0,0,1,.35,0,.31.31,0,0,1,.18.16.7.7,0,0,1,.06.32.75.75,0,0,1-.06.33.35.35,0,0,1-.18.16A1,1,0,0,1,212.2,163.56Z"/><path class="cls-1" d="M219.38,163.59a5.11,5.11,0,0,1-1.91-.34,4.19,4.19,0,0,1-1.48-1,4.5,4.5,0,0,1-1-1.48,5,5,0,0,1-.34-1.9,4.28,4.28,0,0,1,.58-2.22,4.34,4.34,0,0,1,1.64-1.57,4.81,4.81,0,0,1,2.39-.58,4.51,4.51,0,0,1,1.6.27,3.76,3.76,0,0,1,1.25.72,3.29,3.29,0,0,1,.83,1,2.67,2.67,0,0,1,.29,1.22,1.54,1.54,0,0,1-.42,1.26,1.66,1.66,0,0,1-1,.34h-6a2.58,2.58,0,0,0,.5,1.72,3.65,3.65,0,0,0,1.37,1.12,3.83,3.83,0,0,0,1.66.38,6.79,6.79,0,0,0,1,0,3.64,3.64,0,0,0,.7-.16,4.42,4.42,0,0,0,.51-.21l.38-.21a1.36,1.36,0,0,1,.32-.16.4.4,0,0,1,.22,0,.24.24,0,0,1,.18.1,1,1,0,0,1,.13.24.61.61,0,0,1,0,.24c0,.11-.15.27-.46.46a4.78,4.78,0,0,1-1.23.54A6.24,6.24,0,0,1,219.38,163.59Zm-3.55-5.13h5.66a1.82,1.82,0,0,0,.59-.08c.14-.06.21-.25.21-.56a1.88,1.88,0,0,0-.39-1.15,2.83,2.83,0,0,0-1.06-.85,3.5,3.5,0,0,0-1.52-.32,4.15,4.15,0,0,0-1.76.38,3.23,3.23,0,0,0-1.28,1.05A2.48,2.48,0,0,0,215.83,158.46Z"/><path class="cls-1" d="M235.19,163.59a5.07,5.07,0,0,1-1.91-.34,4.19,4.19,0,0,1-1.48-1,4.37,4.37,0,0,1-1-1.48,5.22,5.22,0,0,1-.34-1.9,4.28,4.28,0,0,1,.59-2.22,4.34,4.34,0,0,1,1.64-1.57,4.78,4.78,0,0,1,2.39-.58,4.55,4.55,0,0,1,1.6.27,3.76,3.76,0,0,1,1.25.72,3.29,3.29,0,0,1,.83,1,2.8,2.8,0,0,1,.29,1.22,1.51,1.51,0,0,1-.43,1.26,1.64,1.64,0,0,1-1,.34h-6a2.64,2.64,0,0,0,.51,1.72,3.61,3.61,0,0,0,1.36,1.12,3.9,3.9,0,0,0,1.67.38,7,7,0,0,0,1,0,3.83,3.83,0,0,0,.7-.16,4.2,4.2,0,0,0,.5-.21l.38-.21a1.42,1.42,0,0,1,.33-.16.36.36,0,0,1,.21,0,.24.24,0,0,1,.19.1,1.47,1.47,0,0,1,.13.24.86.86,0,0,1,0,.24c0,.11-.16.27-.46.46a4.87,4.87,0,0,1-1.24.54A6.12,6.12,0,0,1,235.19,163.59Zm-3.56-5.13h5.67a1.71,1.71,0,0,0,.58-.08c.14-.06.21-.25.21-.56a1.88,1.88,0,0,0-.39-1.15,2.88,2.88,0,0,0-1-.85,3.5,3.5,0,0,0-1.52-.32,4.15,4.15,0,0,0-1.76.38,3.16,3.16,0,0,0-1.28,1.05A2.49,2.49,0,0,0,231.63,158.46Z"/><path class="cls-1" d="M244.52,163.61a5.35,5.35,0,0,1-.89-.08,4.65,4.65,0,0,1-.85-.25,3.76,3.76,0,0,1-.75-.38,2,2,0,0,1-.55-.49,1.26,1.26,0,0,1-.19-.32.31.31,0,0,1,0-.25.48.48,0,0,1,.18-.2c.14-.16.27-.22.4-.19a1.05,1.05,0,0,1,.49.36,2.05,2.05,0,0,0,.44.35,2.5,2.5,0,0,0,.57.27,2.7,2.7,0,0,0,.6.17,3.43,3.43,0,0,0,2.27-.35,1.25,1.25,0,0,0,.64-1.11,1.35,1.35,0,0,0-.49-1.1,2.16,2.16,0,0,0-.53-.33,3.71,3.71,0,0,0-.64-.25l-.71-.2c-.36-.09-.71-.18-1.06-.29a4.76,4.76,0,0,1-.94-.41,2,2,0,0,1-.67-.65,1.86,1.86,0,0,1-.26-1,2.15,2.15,0,0,1,.37-1.26,2.48,2.48,0,0,1,1-.83,3.53,3.53,0,0,1,1.54-.31,4.14,4.14,0,0,1,.81.07,3.32,3.32,0,0,1,.72.2,4,4,0,0,1,.62.31,2.49,2.49,0,0,1,.54.43.61.61,0,0,1,.25.38.52.52,0,0,1-.13.36.64.64,0,0,1-.36.22.47.47,0,0,1-.4-.18,3.12,3.12,0,0,0-.64-.49,3,3,0,0,0-.68-.27,2.77,2.77,0,0,0-1.72.08,1.57,1.57,0,0,0-.68.52,1.25,1.25,0,0,0-.23.77.89.89,0,0,0,.16.54,1.38,1.38,0,0,0,.42.37,3.06,3.06,0,0,0,.63.26l.76.23,1.16.33a5,5,0,0,1,1.07.48,2.33,2.33,0,0,1,.79.77,2.2,2.2,0,0,1,.31,1.23,2.15,2.15,0,0,1-1,1.83A4.16,4.16,0,0,1,244.52,163.61Z"/><path class="cls-1" d="M250.48,154.74l1.69,0,2.64,0a.84.84,0,0,1,.34,0,.31.31,0,0,1,.18.16.81.81,0,0,1,0,.3.76.76,0,0,1,0,.33.25.25,0,0,1-.16.17.69.69,0,0,1-.32.05l-2.68,0-1.73,0a.59.59,0,0,1-.42-.12.67.67,0,0,1-.11-.43.55.55,0,0,1,.13-.4A.73.73,0,0,1,250.48,154.74Zm4.22,8.82a5.85,5.85,0,0,1-1.44-.16,2.31,2.31,0,0,1-.94-.47,1.8,1.8,0,0,1-.51-.87,5.05,5.05,0,0,1-.15-1.34V152a.86.86,0,0,1,.05-.35.31.31,0,0,1,.16-.18.65.65,0,0,1,.3,0,1,1,0,0,1,.33,0,.29.29,0,0,1,.18.16.75.75,0,0,1,.06.33v8.83a3.31,3.31,0,0,0,.11.94,1,1,0,0,0,.32.53,1.22,1.22,0,0,0,.6.21,6.06,6.06,0,0,0,.91.05,1,1,0,0,1,.35,0,.31.31,0,0,1,.18.16.7.7,0,0,1,.06.32.75.75,0,0,1-.06.33.35.35,0,0,1-.18.16A1,1,0,0,1,254.7,163.56Z"/><path class="cls-1" d="M265.6,163.54a.45.45,0,0,1-.37-.14.89.89,0,0,1-.16-.49v-1.27a4.15,4.15,0,0,1-.65.8,4.27,4.27,0,0,1-4.6.76,4.21,4.21,0,0,1-1.38-1,4.7,4.7,0,0,1-.92-1.46,4.79,4.79,0,0,1-.33-1.79,4.57,4.57,0,0,1,.33-1.74,4.42,4.42,0,0,1,.93-1.43,4.52,4.52,0,0,1,1.39-1,4.17,4.17,0,0,1,1.7-.35,4.65,4.65,0,0,1,1.53.23,3.61,3.61,0,0,1,1.12.63,4.88,4.88,0,0,1,.88.93v-1.09a.86.86,0,0,1,.13-.54.65.65,0,0,1,.72-.09.36.36,0,0,1,.15.22,1.47,1.47,0,0,1,.05.41v7.72a1.27,1.27,0,0,1-.05.37.32.32,0,0,1-.16.2A.68.68,0,0,1,265.6,163.54Zm-3.85-1a3,3,0,0,0,1.65-.47,3.33,3.33,0,0,0,1.18-1.26,4,4,0,0,0,0-3.71,3.35,3.35,0,0,0-1.21-1.24,3.11,3.11,0,0,0-1.64-.45,3.39,3.39,0,0,0-1.82.48,3.27,3.27,0,0,0-1.22,1.28,3.86,3.86,0,0,0-.44,1.85,3.73,3.73,0,0,0,.44,1.81,3.11,3.11,0,0,0,1.24,1.25A3.67,3.67,0,0,0,261.75,162.57Z"/><path class="cls-1" d="M269.46,163.57a.69.69,0,0,1-.31,0,.39.39,0,0,1-.18-.18.83.83,0,0,1-.06-.34V150.9a1,1,0,0,1,0-.35.33.33,0,0,1,.17-.18.71.71,0,0,1,.31-.06.75.75,0,0,1,.33.06.42.42,0,0,1,.17.18,1,1,0,0,1,.05.33V163a.68.68,0,0,1-.11.45A.54.54,0,0,1,269.46,163.57Zm4.07,0a4.34,4.34,0,0,1-1.71-.33,3.82,3.82,0,0,1-1.35-.92,4.23,4.23,0,0,1-.89-1.42,5.74,5.74,0,0,1,0-3.72,4.22,4.22,0,0,1,.89-1.44,3.72,3.72,0,0,1,1.35-.93,4.34,4.34,0,0,1,1.71-.33,4.12,4.12,0,0,1,1.65.33,3.83,3.83,0,0,1,1.33.92,4.23,4.23,0,0,1,.89,1.42,4.94,4.94,0,0,1,.33,1.84,5.14,5.14,0,0,1-.33,1.87,4.26,4.26,0,0,1-.89,1.45,3.73,3.73,0,0,1-1.33.93A4.12,4.12,0,0,1,273.53,163.56Zm-.17-1a3.25,3.25,0,0,0,1.7-.45,3.35,3.35,0,0,0,1.19-1.23,3.76,3.76,0,0,0,.43-1.84,3.81,3.81,0,0,0-.43-1.86,3.34,3.34,0,0,0-4.58-1.24,3.13,3.13,0,0,0-1.18,1.24,3.82,3.82,0,0,0-.44,1.86,3.76,3.76,0,0,0,.44,1.84,3.2,3.2,0,0,0,2.87,1.68Z"/><path class="cls-1" d="M283.07,163.56a3.5,3.5,0,0,1-1-.12,2.35,2.35,0,0,1-.75-.34,2,2,0,0,1-.55-.57,2.63,2.63,0,0,1-.32-.8,4.49,4.49,0,0,1-.1-1v-9.88a1.12,1.12,0,0,1,0-.35.37.37,0,0,1,.17-.18.76.76,0,0,1,.32-.06,1,1,0,0,1,.33.05.35.35,0,0,1,.18.16.75.75,0,0,1,.06.33v10a2.65,2.65,0,0,0,.09.73,1.57,1.57,0,0,0,.3.54,1.2,1.2,0,0,0,.49.32,2,2,0,0,0,.68.1,1,1,0,0,1,.35.05.33.33,0,0,1,.18.17.75.75,0,0,1,.06.33.83.83,0,0,1-.06.34.33.33,0,0,1-.18.17A1,1,0,0,1,283.07,163.56Z"/><path class="cls-1" d="M290.13,163.59a5.15,5.15,0,0,1-1.91-.34,4.28,4.28,0,0,1-1.48-1,4.5,4.5,0,0,1-1-1.48,5,5,0,0,1-.34-1.9,4.24,4.24,0,0,1,2.22-3.79,4.84,4.84,0,0,1,2.4-.58,4.5,4.5,0,0,1,1.59.27,3.91,3.91,0,0,1,1.26.72,3.26,3.26,0,0,1,.82,1,2.68,2.68,0,0,1,.3,1.22,1.51,1.51,0,0,1-.43,1.26,1.64,1.64,0,0,1-1,.34h-6a2.58,2.58,0,0,0,.5,1.72,3.65,3.65,0,0,0,1.37,1.12,3.86,3.86,0,0,0,1.66.38,6.79,6.79,0,0,0,1,0,3.76,3.76,0,0,0,.71-.16,5,5,0,0,0,.5-.21l.38-.21a1.36,1.36,0,0,1,.32-.16.41.41,0,0,1,.22,0,.24.24,0,0,1,.18.1,1,1,0,0,1,.14.24.88.88,0,0,1,0,.24c0,.11-.15.27-.45.46a5,5,0,0,1-1.24.54A6.19,6.19,0,0,1,290.13,163.59Zm-3.55-5.13h5.66a1.78,1.78,0,0,0,.59-.08c.14-.06.21-.25.21-.56a1.88,1.88,0,0,0-.39-1.15,2.88,2.88,0,0,0-1-.85,3.53,3.53,0,0,0-1.52-.32,4.12,4.12,0,0,0-1.76.38,3.1,3.1,0,0,0-1.28,1.05A2.49,2.49,0,0,0,286.58,158.46Z"/><path class="cls-1" d="M297.14,163.56a.78.78,0,0,1-.57-.17.75.75,0,0,1-.17-.56,1.06,1.06,0,0,1,.07-.44.41.41,0,0,1,.24-.24,1.06,1.06,0,0,1,.43-.08.79.79,0,0,1,.58.17.78.78,0,0,1,.17.57,1.32,1.32,0,0,1-.07.45.43.43,0,0,1-.23.23A1.32,1.32,0,0,1,297.14,163.56Z"/><circle class="cls-1" cx="5.7" cy="57.73" r="3"/><circle class="cls-1" cx="5.7" cy="132.73" r="3"/><rect class="cls-2" width="429" height="216"/></g></g></svg>