<svg xmlns="http://www.w3.org/2000/svg" viewBox="0 0 429 216"><defs><style>.cls-1{fill:#fff;}.cls-2{fill:none;}</style></defs><title>pag42</title><g id="Layer_2" data-name="Layer 2"><g id="Paso_4" data-name="Paso 4"><path class="cls-1" d="M1.56,13.47a1.14,1.14,0,0,1-.56-.1.5.5,0,0,1-.24-.31A1.6,1.6,0,0,1,.7,12.6V1.06A.91.91,0,0,1,.9.4,1,1,0,0,1,1.61.21H9.25a1.56,1.56,0,0,1,.46.06A.44.44,0,0,1,10,.51a1.24,1.24,0,0,1,.1.57,1.12,1.12,0,0,1-.11.56.49.49,0,0,1-.29.24,1.56,1.56,0,0,1-.46.06H2.41V5.87H7.16a1.44,1.44,0,0,1,.45.06.44.44,0,0,1,.27.23,1,1,0,0,1,.1.53,1,1,0,0,1-.1.51.41.41,0,0,1-.29.22,2.12,2.12,0,0,1-.47,0H2.41v4.29H9.25a1.56,1.56,0,0,1,.46.06.47.47,0,0,1,.28.24,1.14,1.14,0,0,1,.1.56,1.15,1.15,0,0,1-.11.56.44.44,0,0,1-.29.23,1.56,1.56,0,0,1-.46.06Z"/><path class="cls-1" d="M15.47,13.47a6.23,6.23,0,0,1-1.11-.09,2.27,2.27,0,0,1-.84-.33,2,2,0,0,1-.59-.59,2.63,2.63,0,0,1-.35-.89,5.29,5.29,0,0,1-.12-1.2V.87A1.58,1.58,0,0,1,12.52.4a.51.51,0,0,1,.24-.3A1.23,1.23,0,0,1,13.3,0a1.17,1.17,0,0,1,.56.1.45.45,0,0,1,.24.28,1.58,1.58,0,0,1,.05.46v9.52a2.46,2.46,0,0,0,.08.65,1.23,1.23,0,0,0,.24.47.88.88,0,0,0,.41.26,2,2,0,0,0,.59.08,1,1,0,0,1,.38.06.43.43,0,0,1,.26.22,1.18,1.18,0,0,1,.1.53,1.32,1.32,0,0,1-.1.57.4.4,0,0,1-.26.22A1.06,1.06,0,0,1,15.47,13.47Z"/><path class="cls-1" d="M26.2,13.47a6.12,6.12,0,0,1-1.1-.09,2.4,2.4,0,0,1-.85-.33,2.07,2.07,0,0,1-.59-.59,3.12,3.12,0,0,1-.35-.89,6,6,0,0,1-.11-1.2V.87A1.58,1.58,0,0,1,23.26.4a.46.46,0,0,1,.23-.3A1.23,1.23,0,0,1,24,0a1.14,1.14,0,0,1,.56.1.45.45,0,0,1,.24.28,1.56,1.56,0,0,1,.06.46v9.52A2.1,2.1,0,0,0,25,11a1.22,1.22,0,0,0,.23.47.93.93,0,0,0,.41.26,2.05,2.05,0,0,0,.59.08,1.14,1.14,0,0,1,.39.06.46.46,0,0,1,.26.22,1.2,1.2,0,0,1,.09.53,1.35,1.35,0,0,1-.09.57.43.43,0,0,1-.26.22A1.15,1.15,0,0,1,26.2,13.47Z"/><path class="cls-1" d="M36.76,13.45a.84.84,0,0,1-.6-.17.7.7,0,0,1-.21-.53L36,11.8a3.63,3.63,0,0,1-.59.69,3.54,3.54,0,0,1-1,.69,3.93,3.93,0,0,1-1.57.29,4.05,4.05,0,0,1-1.7-.36,4.43,4.43,0,0,1-1.39-1,5,5,0,0,1-.94-1.48,4.83,4.83,0,0,1-.34-1.79,4.66,4.66,0,0,1,.34-1.75,4.78,4.78,0,0,1,.95-1.46,4.72,4.72,0,0,1,1.4-1,4,4,0,0,1,1.68-.36,4.31,4.31,0,0,1,1.43.21,3.64,3.64,0,0,1,1,.57,4.3,4.3,0,0,1,.75.79l0-.8a.74.74,0,0,1,.2-.59.91.91,0,0,1,.63-.18.93.93,0,0,1,.53.11.52.52,0,0,1,.21.32,1.9,1.9,0,0,1,.06.52v7.33a1.68,1.68,0,0,1-.06.47.5.5,0,0,1-.22.32A1.1,1.1,0,0,1,36.76,13.45Zm-3.68-1.57a2.57,2.57,0,0,0,1.4-.4,3,3,0,0,0,1-1.08,3.12,3.12,0,0,0,.38-1.55,3.06,3.06,0,0,0-.39-1.56,3,3,0,0,0-1-1.06A2.77,2.77,0,0,0,33,5.85a3,3,0,0,0-1.53.4,2.89,2.89,0,0,0-1,1.08,3.11,3.11,0,0,0-.38,1.56,3,3,0,0,0,.38,1.53,2.77,2.77,0,0,0,1.05,1.07A3.05,3.05,0,0,0,33.08,11.88ZM32.64,3a.56.56,0,0,1-.47,0,.86.86,0,0,1-.29-.49,1,1,0,0,1-.05-.61.65.65,0,0,1,.45-.32l3-1a.58.58,0,0,1,.46.07.89.89,0,0,1,.28.48.82.82,0,0,1,0,.61.72.72,0,0,1-.47.32Z"/><path class="cls-1" d="M40.83,17.21a1.17,1.17,0,0,1-.55-.1.5.5,0,0,1-.25-.29,1.56,1.56,0,0,1-.06-.46V5.13A1.56,1.56,0,0,1,40,4.67a.52.52,0,0,1,.24-.29,1.1,1.1,0,0,1,.54-.1,1.12,1.12,0,0,1,.62.13.65.65,0,0,1,.24.47V16.34a1.4,1.4,0,0,1,0,.47.51.51,0,0,1-.24.3A1.17,1.17,0,0,1,40.83,17.21Zm3.93-3.81a4,4,0,0,1-1.68-.35,3.46,3.46,0,0,1-1.28-1A4.4,4.4,0,0,1,41,10.64,5.19,5.19,0,0,1,40.7,8.8,5.66,5.66,0,0,1,41,7a4.33,4.33,0,0,1,.83-1.45,3.67,3.67,0,0,1,1.29-.95,4.07,4.07,0,0,1,1.66-.33,4,4,0,0,1,1.66.34,4.34,4.34,0,0,1,1.34,1A4.44,4.44,0,0,1,48.69,7,5.09,5.09,0,0,1,49,8.85a5,5,0,0,1-.33,1.83,4.44,4.44,0,0,1-.92,1.44,3.92,3.92,0,0,1-1.34.94A4.22,4.22,0,0,1,44.76,13.4Zm-.23-1.56A2.74,2.74,0,0,0,46,11.45a2.79,2.79,0,0,0,1-1.08,3.26,3.26,0,0,0,.37-1.55A3.23,3.23,0,0,0,47,7.27a2.71,2.71,0,0,0-1-1,2.92,2.92,0,0,0-1.45-.37,2.75,2.75,0,0,0-1.43.38,2.83,2.83,0,0,0-1,1,3.16,3.16,0,0,0-.37,1.54,3.26,3.26,0,0,0,.37,1.55,2.84,2.84,0,0,0,1,1.08A2.67,2.67,0,0,0,44.53,11.84Z"/><path class="cls-1" d="M52.25,2a1.29,1.29,0,0,1-.63-.13.56.56,0,0,1-.27-.35A1.7,1.7,0,0,1,51.28,1a1.6,1.6,0,0,1,.07-.52.51.51,0,0,1,.28-.33,1.56,1.56,0,0,1,.64-.1,1.41,1.41,0,0,1,.61.11.57.57,0,0,1,.27.34,1.84,1.84,0,0,1,.07.55,1.57,1.57,0,0,1-.07.51.55.55,0,0,1-.27.33A1.3,1.3,0,0,1,52.25,2Zm0,11.47a1.15,1.15,0,0,1-.55-.1.45.45,0,0,1-.24-.3,1.93,1.93,0,0,1-.05-.45V5.11a1.51,1.51,0,0,1,.06-.44.46.46,0,0,1,.24-.3,1.29,1.29,0,0,1,.56-.09,1,1,0,0,1,.53.1.53.53,0,0,1,.23.3,1.7,1.7,0,0,1,0,.47v7.48a1.58,1.58,0,0,1,0,.46.49.49,0,0,1-.24.29A1.25,1.25,0,0,1,52.25,13.47Z"/><path class="cls-1" d="M56.2,13.47a.86.86,0,0,1-.62-.21.82.82,0,0,1-.22-.61,1.06,1.06,0,0,1,.07-.37,1.08,1.08,0,0,1,.2-.29l5.61-6H56.66a1.56,1.56,0,0,1-.46-.06.51.51,0,0,1-.3-.24,1,1,0,0,1-.12-.56,1,1,0,0,1,.12-.56.46.46,0,0,1,.3-.23,2.07,2.07,0,0,1,.46,0H63a.85.85,0,0,1,.63.2.8.8,0,0,1,.21.59,1,1,0,0,1-.06.35.6.6,0,0,1-.15.26L58,11.78h5.2a1.27,1.27,0,0,1,.46.07.47.47,0,0,1,.28.24,1.17,1.17,0,0,1,.1.56,1.13,1.13,0,0,1-.11.55.45.45,0,0,1-.29.22,1.58,1.58,0,0,1-.46.05Z"/><path class="cls-1" d="M4.41,48.66a5,5,0,0,1-1.15-.13,5.22,5.22,0,0,1-1.11-.39,4.55,4.55,0,0,1-1-.63,3.4,3.4,0,0,1-.73-.84,2.63,2.63,0,0,1-.19-.37.39.39,0,0,1,0-.28.56.56,0,0,1,.25-.27.63.63,0,0,1,.42-.14.52.52,0,0,1,.31.18c.08.1.18.23.28.38a2.79,2.79,0,0,0,1.28,1,4.12,4.12,0,0,0,1.55.33,5.31,5.31,0,0,0,1.75-.27,2.7,2.7,0,0,0,1.24-.8,2.08,2.08,0,0,0,.47-1.4,2.27,2.27,0,0,0-.3-1.2,2.53,2.53,0,0,0-.8-.83,5.72,5.72,0,0,0-1.13-.58c-.42-.16-.84-.31-1.29-.45s-.73-.24-1.09-.38a7.25,7.25,0,0,1-1-.48,3.92,3.92,0,0,1-.84-.65,2.78,2.78,0,0,1-.57-.88,3.54,3.54,0,0,1,.27-3,3.31,3.31,0,0,1,1.36-1.17,4.54,4.54,0,0,1,2-.43,5.17,5.17,0,0,1,1.19.13,5.76,5.76,0,0,1,1,.35,5.72,5.72,0,0,1,.82.48,2.84,2.84,0,0,1,.56.52,1.12,1.12,0,0,1,.28.48c0,.12-.05.26-.23.41a.59.59,0,0,1-.41.18.58.58,0,0,1-.4-.23,3.3,3.3,0,0,0-.91-.77,2.86,2.86,0,0,0-1-.34,5.5,5.5,0,0,0-1-.09,4.25,4.25,0,0,0-1.1.14,2.55,2.55,0,0,0-.87.44,2,2,0,0,0-.57.71,2.27,2.27,0,0,0-.2,1,1.81,1.81,0,0,0,.26,1,2.23,2.23,0,0,0,.7.7,5.32,5.32,0,0,0,1,.52A10.08,10.08,0,0,0,4.81,41c.49.15,1,.33,1.47.53a6,6,0,0,1,1.32.75,3.33,3.33,0,0,1,1,1.09A3.26,3.26,0,0,1,8.91,45a3.48,3.48,0,0,1-.33,1.54,3.11,3.11,0,0,1-1,1.15,4.41,4.41,0,0,1-1.44.71A5.94,5.94,0,0,1,4.41,48.66Z"/><path class="cls-1" d="M15.69,48.53a5.36,5.36,0,0,1-1.91-.34,4.42,4.42,0,0,1-1.48-1,4.5,4.5,0,0,1-1-1.48A5.07,5.07,0,0,1,11,43.83,4.24,4.24,0,0,1,13.22,40a5,5,0,0,1,2.4-.58,4.5,4.5,0,0,1,1.59.27,4.32,4.32,0,0,1,1.26.72,3.41,3.41,0,0,1,.82,1,2.64,2.64,0,0,1,.3,1.21A1.53,1.53,0,0,1,19.16,44a1.63,1.63,0,0,1-1,.33h-6a2.61,2.61,0,0,0,.5,1.73A3.62,3.62,0,0,0,14,47.15a3.87,3.87,0,0,0,1.66.39,6.65,6.65,0,0,0,1-.06,3.11,3.11,0,0,0,.71-.16,5,5,0,0,0,.5-.21l.38-.21a1.91,1.91,0,0,1,.32-.16.78.78,0,0,1,.22,0,.22.22,0,0,1,.18.11,1,1,0,0,1,.14.24.85.85,0,0,1,0,.23c0,.12-.15.27-.45.47a5.05,5.05,0,0,1-1.24.53A5.83,5.83,0,0,1,15.69,48.53ZM12.14,43.4H17.8a1.52,1.52,0,0,0,.59-.09c.14-.05.21-.24.21-.56a1.88,1.88,0,0,0-.39-1.15,2.76,2.76,0,0,0-1.05-.84,3.4,3.4,0,0,0-1.52-.33,4.12,4.12,0,0,0-1.76.38,3.19,3.19,0,0,0-1.28,1.06A2.49,2.49,0,0,0,12.14,43.4Z"/><path class="cls-1" d="M30.25,48.55a4.56,4.56,0,0,1-.89-.09,4.89,4.89,0,0,1-.85-.25,3.77,3.77,0,0,1-.75-.38A1.75,1.75,0,0,1,27,47a.31.31,0,0,1,0-.25.44.44,0,0,1,.18-.21.46.46,0,0,1,.4-.19,1.23,1.23,0,0,1,.49.36,1.74,1.74,0,0,0,.44.35,3.77,3.77,0,0,0,.57.28,3.25,3.25,0,0,0,.61.17,2.91,2.91,0,0,0,.57.06A3.16,3.16,0,0,0,32,47.19a1.25,1.25,0,0,0,.64-1.11,1.47,1.47,0,0,0-.13-.64,1.37,1.37,0,0,0-.36-.46,2.75,2.75,0,0,0-.52-.34,5.49,5.49,0,0,0-.65-.24l-.71-.2c-.36-.09-.71-.19-1.06-.3a4.45,4.45,0,0,1-.94-.41,2,2,0,0,1-.67-.64,1.89,1.89,0,0,1-.26-1,2.17,2.17,0,0,1,.37-1.25,2.43,2.43,0,0,1,1-.84,3.68,3.68,0,0,1,1.54-.3,5.13,5.13,0,0,1,.81.06A3.52,3.52,0,0,1,32.4,40a3.2,3.2,0,0,1,.55.42.66.66,0,0,1,.24.38.49.49,0,0,1-.13.36.57.57,0,0,1-.36.22.47.47,0,0,1-.4-.18,2.82,2.82,0,0,0-.64-.48,3.61,3.61,0,0,0-.68-.28,3,3,0,0,0-.73-.09,2.57,2.57,0,0,0-1,.18,1.55,1.55,0,0,0-.68.51,1.34,1.34,0,0,0-.23.77.85.85,0,0,0,.16.54,1.3,1.3,0,0,0,.43.37,3.29,3.29,0,0,0,.62.27l.76.23,1.16.33a4.79,4.79,0,0,1,1.08.48,2.36,2.36,0,0,1,.78.76A2.21,2.21,0,0,1,33.65,46a2.12,2.12,0,0,1-1,1.82A4.07,4.07,0,0,1,30.25,48.55Z"/><path class="cls-1" d="M40.35,48.57a4.46,4.46,0,0,1-1.78-.36,5,5,0,0,1-1.47-1,4.51,4.51,0,0,1-1-1.47,4.56,4.56,0,0,1,1-5,4.72,4.72,0,0,1,1.46-1,4.56,4.56,0,0,1,1.78-.35,4.49,4.49,0,0,1,2.3.6,4.51,4.51,0,0,1,2.24,4,4.69,4.69,0,0,1-.35,1.82,4.76,4.76,0,0,1-1,1.47,4.46,4.46,0,0,1-1.44,1A4.25,4.25,0,0,1,40.35,48.57Zm0-1a3.29,3.29,0,0,0,1.75-.48,3.6,3.6,0,0,0,1.26-1.31,3.72,3.72,0,0,0,.46-1.84,3.64,3.64,0,0,0-.45-1.82,3.33,3.33,0,0,0-1.25-1.25,3.52,3.52,0,0,0-1.79-.44,3.39,3.39,0,0,0-3,1.73,3.5,3.5,0,0,0-.47,1.8,3.65,3.65,0,0,0,.47,1.84,3.41,3.41,0,0,0,3,1.77Z"/><path class="cls-1" d="M50.2,48.55a4.56,4.56,0,0,1-.89-.09,4.89,4.89,0,0,1-.85-.25,3.77,3.77,0,0,1-.75-.38A1.75,1.75,0,0,1,47,47a.31.31,0,0,1,0-.25.44.44,0,0,1,.18-.21.46.46,0,0,1,.4-.19,1.23,1.23,0,0,1,.49.36,1.74,1.74,0,0,0,.44.35,3.77,3.77,0,0,0,.57.28,3.25,3.25,0,0,0,.61.17,2.91,2.91,0,0,0,.57.06,3.16,3.16,0,0,0,1.69-.41,1.25,1.25,0,0,0,.64-1.11,1.47,1.47,0,0,0-.13-.64,1.37,1.37,0,0,0-.36-.46,2.75,2.75,0,0,0-.52-.34,5.49,5.49,0,0,0-.65-.24l-.71-.2c-.36-.09-.71-.19-1.06-.3a4.45,4.45,0,0,1-.94-.41,2,2,0,0,1-.67-.64,1.89,1.89,0,0,1-.26-1,2.17,2.17,0,0,1,.37-1.25,2.43,2.43,0,0,1,1-.84,3.68,3.68,0,0,1,1.54-.3,5.13,5.13,0,0,1,.81.06,3.52,3.52,0,0,1,1.34.52,3.2,3.2,0,0,1,.55.42.66.66,0,0,1,.24.38.49.49,0,0,1-.13.36.57.57,0,0,1-.36.22.47.47,0,0,1-.4-.18,2.82,2.82,0,0,0-.64-.48,3.61,3.61,0,0,0-.68-.28,3,3,0,0,0-.73-.09,2.57,2.57,0,0,0-1,.18,1.55,1.55,0,0,0-.68.51,1.34,1.34,0,0,0-.23.77.85.85,0,0,0,.16.54,1.3,1.3,0,0,0,.43.37,3.29,3.29,0,0,0,.62.27l.76.23,1.16.33a4.79,4.79,0,0,1,1.08.48,2.36,2.36,0,0,1,.78.76A2.21,2.21,0,0,1,53.6,46a2.12,2.12,0,0,1-1,1.82A4.07,4.07,0,0,1,50.2,48.55Z"/><path class="cls-1" d="M56.16,39.67l1.69,0,2.64,0a1.06,1.06,0,0,1,.34,0,.35.35,0,0,1,.18.16.69.69,0,0,1,.05.31,1,1,0,0,1,0,.33.3.3,0,0,1-.16.17,1,1,0,0,1-.33.05l-2.68,0-1.73,0a.54.54,0,0,1-.41-.12.63.63,0,0,1-.12-.43.49.49,0,0,1,.14-.4A.61.61,0,0,1,56.16,39.67Zm4.22,8.82A5.75,5.75,0,0,1,59,48.34a2.15,2.15,0,0,1-.94-.48,1.74,1.74,0,0,1-.52-.86,5.11,5.11,0,0,1-.15-1.34V36.92a1,1,0,0,1,0-.35.29.29,0,0,1,.16-.18.67.67,0,0,1,.3-.06,1.06,1.06,0,0,1,.34.05.31.31,0,0,1,.18.16.89.89,0,0,1,.05.32V45.7a3.41,3.41,0,0,0,.11.94,1,1,0,0,0,.32.52,1.26,1.26,0,0,0,.6.22,7.77,7.77,0,0,0,.91,0,1.08,1.08,0,0,1,.35,0,.32.32,0,0,1,.18.16A.75.75,0,0,1,61,48a.67.67,0,0,1-.06.32.26.26,0,0,1-.18.16A1,1,0,0,1,60.38,48.49Z"/><path class="cls-1" d="M64.05,36.69a1,1,0,0,1-.42-.07.54.54,0,0,1-.22-.25,1.35,1.35,0,0,1-.07-.44,1.18,1.18,0,0,1,.07-.42.45.45,0,0,1,.23-.22,1.27,1.27,0,0,1,.43-.06.94.94,0,0,1,.41.07.43.43,0,0,1,.22.24,1.12,1.12,0,0,1,.07.45,1,1,0,0,1-.07.41.41.41,0,0,1-.22.23A1.19,1.19,0,0,1,64.05,36.69Zm0,11.8a.76.76,0,0,1-.32-.06.3.3,0,0,1-.17-.18,1,1,0,0,1,0-.33V40a1,1,0,0,1,0-.33.3.3,0,0,1,.17-.18,1.09,1.09,0,0,1,.34,0,.89.89,0,0,1,.32,0,.31.31,0,0,1,.16.19,1,1,0,0,1,0,.35v7.92a1,1,0,0,1,0,.33.29.29,0,0,1-.17.17A1,1,0,0,1,64.05,48.49Z"/><path class="cls-1" d="M71.93,48.53A5.36,5.36,0,0,1,70,48.19a4.42,4.42,0,0,1-1.48-1,4.5,4.5,0,0,1-1-1.48,5.07,5.07,0,0,1-.34-1.91A4.24,4.24,0,0,1,69.46,40a5,5,0,0,1,2.4-.58,4.5,4.5,0,0,1,1.59.27,4.32,4.32,0,0,1,1.26.72,3.41,3.41,0,0,1,.82,1,2.64,2.64,0,0,1,.3,1.21A1.56,1.56,0,0,1,75.4,44a1.64,1.64,0,0,1-1,.33h-6a2.61,2.61,0,0,0,.5,1.73,3.62,3.62,0,0,0,1.37,1.11,3.87,3.87,0,0,0,1.66.39,6.65,6.65,0,0,0,1-.06,3.11,3.11,0,0,0,.71-.16,5,5,0,0,0,.5-.21l.38-.21a1.91,1.91,0,0,1,.32-.16.78.78,0,0,1,.22,0,.22.22,0,0,1,.18.11.72.72,0,0,1,.13.24.59.59,0,0,1,0,.23c0,.12-.15.27-.45.47a5.05,5.05,0,0,1-1.24.53A5.83,5.83,0,0,1,71.93,48.53ZM68.38,43.4H74a1.55,1.55,0,0,0,.59-.09c.14-.05.21-.24.21-.56a1.88,1.88,0,0,0-.39-1.15,2.76,2.76,0,0,0-1-.84,3.4,3.4,0,0,0-1.52-.33,4.12,4.12,0,0,0-1.76.38,3.19,3.19,0,0,0-1.28,1.06A2.49,2.49,0,0,0,68.38,43.4Z"/><path class="cls-1" d="M78.91,48.47a.68.68,0,0,1-.31-.06.29.29,0,0,1-.16-.18,1,1,0,0,1,0-.33v-8a.72.72,0,0,1,0-.29.33.33,0,0,1,.17-.16.93.93,0,0,1,.31,0,.75.75,0,0,1,.23,0,.22.22,0,0,1,.15.08.38.38,0,0,1,.09.15.8.8,0,0,1,0,.23V41a6.27,6.27,0,0,1,.55-.62,5,5,0,0,1,.67-.53,3.21,3.21,0,0,1,.82-.37,3.46,3.46,0,0,1,1-.13,3.94,3.94,0,0,1,1.51.28,3.48,3.48,0,0,1,1.21.79A3.69,3.69,0,0,1,86,41.74a4.81,4.81,0,0,1,.29,1.72v4.46a1,1,0,0,1-.05.33.27.27,0,0,1-.16.17.72.72,0,0,1-.32,0,.83.83,0,0,1-.34-.06.28.28,0,0,1-.17-.18,1,1,0,0,1,0-.33V43.44a4,4,0,0,0-.31-1.62A2.36,2.36,0,0,0,84,40.76a2.82,2.82,0,0,0-1.54-.38,3.08,3.08,0,0,0-1.58.38,2.6,2.6,0,0,0-1,1.06,3.46,3.46,0,0,0-.36,1.62v4.48a1,1,0,0,1,0,.33.29.29,0,0,1-.17.17A.79.79,0,0,1,78.91,48.47Z"/><path class="cls-1" d="M93.33,48.53a5.28,5.28,0,0,1-1.91-.34,4.47,4.47,0,0,1-1.49-1,4.32,4.32,0,0,1-1-1.48,5.08,5.08,0,0,1-.35-1.91A4.22,4.22,0,0,1,90.86,40a4.89,4.89,0,0,1,2.39-.58,4.59,4.59,0,0,1,1.6.27,4.14,4.14,0,0,1,1.25.72,3.6,3.6,0,0,1,.83,1,2.76,2.76,0,0,1,.29,1.21A1.53,1.53,0,0,1,96.79,44a1.63,1.63,0,0,1-1,.33h-6A2.67,2.67,0,0,0,90.28,46a3.59,3.59,0,0,0,1.36,1.11,3.92,3.92,0,0,0,1.67.39,6.85,6.85,0,0,0,1-.06,3.15,3.15,0,0,0,.7-.16,4.2,4.2,0,0,0,.5-.21l.38-.21a2,2,0,0,1,.33-.16.66.66,0,0,1,.21,0,.22.22,0,0,1,.19.11,1.47,1.47,0,0,1,.13.24.85.85,0,0,1,0,.23c0,.12-.16.27-.46.47a5,5,0,0,1-1.23.53A5.88,5.88,0,0,1,93.33,48.53ZM89.77,43.4h5.67a1.5,1.5,0,0,0,.58-.09c.14-.05.21-.24.21-.56a1.88,1.88,0,0,0-.39-1.15,2.76,2.76,0,0,0-1-.84,3.37,3.37,0,0,0-1.52-.33,4.15,4.15,0,0,0-1.76.38,3.26,3.26,0,0,0-1.28,1.06A2.49,2.49,0,0,0,89.77,43.4Z"/><path class="cls-1" d="M109.13,48.53a5.36,5.36,0,0,1-1.91-.34,4.42,4.42,0,0,1-1.48-1,4.5,4.5,0,0,1-1-1.48,5.28,5.28,0,0,1-.34-1.91A4.24,4.24,0,0,1,106.66,40a5,5,0,0,1,2.4-.58,4.5,4.5,0,0,1,1.59.27,4.19,4.19,0,0,1,1.26.72,3.41,3.41,0,0,1,.82,1,2.64,2.64,0,0,1,.3,1.21A1.53,1.53,0,0,1,112.6,44a1.63,1.63,0,0,1-1,.33h-6a2.66,2.66,0,0,0,.5,1.73,3.7,3.7,0,0,0,1.37,1.11,3.87,3.87,0,0,0,1.66.39,6.65,6.65,0,0,0,1-.06,3.11,3.11,0,0,0,.71-.16,5,5,0,0,0,.5-.21l.38-.21a1.91,1.91,0,0,1,.32-.16.78.78,0,0,1,.22,0,.22.22,0,0,1,.18.11,1,1,0,0,1,.14.24.85.85,0,0,1,0,.23c0,.12-.15.27-.45.47a5.05,5.05,0,0,1-1.24.53A5.83,5.83,0,0,1,109.13,48.53Zm-3.55-5.13h5.66a1.52,1.52,0,0,0,.59-.09c.14-.05.21-.24.21-.56a1.88,1.88,0,0,0-.39-1.15,2.76,2.76,0,0,0-1.05-.84,3.4,3.4,0,0,0-1.52-.33,4.12,4.12,0,0,0-1.76.38A3.19,3.19,0,0,0,106,41.87,2.49,2.49,0,0,0,105.58,43.4Z"/><path class="cls-1" d="M116.11,48.47a.68.68,0,0,1-.31-.06.29.29,0,0,1-.16-.18,1,1,0,0,1,0-.33v-8a.72.72,0,0,1,0-.29.33.33,0,0,1,.17-.16,1,1,0,0,1,.32,0,.73.73,0,0,1,.22,0,.27.27,0,0,1,.16.08.53.53,0,0,1,.08.15.8.8,0,0,1,0,.23V41a6.27,6.27,0,0,1,.55-.62,4.56,4.56,0,0,1,.68-.53,3,3,0,0,1,.81-.37,3.46,3.46,0,0,1,1-.13,3.94,3.94,0,0,1,1.51.28,3.39,3.39,0,0,1,1.21.79,3.69,3.69,0,0,1,.79,1.28,4.81,4.81,0,0,1,.29,1.72v4.46a1,1,0,0,1,0,.33.27.27,0,0,1-.16.17.72.72,0,0,1-.32,0,.75.75,0,0,1-.33-.06.29.29,0,0,1-.18-.18,1,1,0,0,1,0-.33V43.44a3.87,3.87,0,0,0-.31-1.62,2.3,2.3,0,0,0-.91-1.06,2.79,2.79,0,0,0-1.54-.38,3.08,3.08,0,0,0-1.58.38,2.6,2.6,0,0,0-1,1.06,3.46,3.46,0,0,0-.36,1.62v4.48a1,1,0,0,1,0,.33.29.29,0,0,1-.17.17A.76.76,0,0,1,116.11,48.47Z"/><path class="cls-1" d="M126.21,39.67l1.7,0,2.64,0a1,1,0,0,1,.33,0,.35.35,0,0,1,.18.16.68.68,0,0,1,.06.31,1,1,0,0,1-.05.33.3.3,0,0,1-.16.17,1,1,0,0,1-.33.05l-2.67,0-1.73,0a.55.55,0,0,1-.42-.12.63.63,0,0,1-.12-.43.49.49,0,0,1,.14-.4A.63.63,0,0,1,126.21,39.67Zm4.22,8.82a5.75,5.75,0,0,1-1.43-.15,2.15,2.15,0,0,1-.94-.48,1.81,1.81,0,0,1-.52-.86,5.11,5.11,0,0,1-.15-1.34V36.92a1,1,0,0,1,0-.35.32.32,0,0,1,.16-.18.68.68,0,0,1,.31-.06,1,1,0,0,1,.33.05.31.31,0,0,1,.18.16.7.7,0,0,1,.06.32V45.7a3.46,3.46,0,0,0,.1.94,1,1,0,0,0,.32.52,1.26,1.26,0,0,0,.6.22,7.9,7.9,0,0,0,.91,0,1.15,1.15,0,0,1,.36,0,.4.4,0,0,1,.18.16A1,1,0,0,1,131,48a.85.85,0,0,1-.05.32.31.31,0,0,1-.18.16A1.06,1.06,0,0,1,130.43,48.49Z"/><path class="cls-1" d="M134,48.49a.67.67,0,0,1-.3-.06.28.28,0,0,1-.16-.19,1.06,1.06,0,0,1,0-.34V40a1,1,0,0,1,0-.35.25.25,0,0,1,.16-.17,1.33,1.33,0,0,1,.32,0,1.45,1.45,0,0,1,.32,0,.3.3,0,0,1,.18.17.84.84,0,0,1,0,.35v.8c.13-.22.26-.41.39-.59a1.83,1.83,0,0,1,.45-.47,2,2,0,0,1,.66-.31,3.33,3.33,0,0,1,1-.12,2.56,2.56,0,0,1,.57.06,3.23,3.23,0,0,1,.47.15,2.43,2.43,0,0,1,.37.21,1,1,0,0,1,.23.23.41.41,0,0,1,.07.23.56.56,0,0,1-.2.42.66.66,0,0,1-.38.17.56.56,0,0,1-.32-.07,2.39,2.39,0,0,1-.22-.16.9.9,0,0,0-.34-.16,2.41,2.41,0,0,0-.7-.07,1.93,1.93,0,0,0-.63.12,2.65,2.65,0,0,0-.65.37,2,2,0,0,0-.74,1.6v5.55a1,1,0,0,1,0,.33.29.29,0,0,1-.17.17A1.11,1.11,0,0,1,134,48.49Z"/><path class="cls-1" d="M145.44,48.53a5.36,5.36,0,0,1-1.91-.34,4.42,4.42,0,0,1-1.48-1,4.5,4.5,0,0,1-1-1.48,5.07,5.07,0,0,1-.34-1.91A4.24,4.24,0,0,1,143,40a5,5,0,0,1,2.4-.58,4.5,4.5,0,0,1,1.59.27,4.32,4.32,0,0,1,1.26.72,3.41,3.41,0,0,1,.82,1,2.64,2.64,0,0,1,.3,1.21,1.56,1.56,0,0,1-.43,1.27,1.66,1.66,0,0,1-1,.33h-6a2.61,2.61,0,0,0,.5,1.73,3.62,3.62,0,0,0,1.37,1.11,3.87,3.87,0,0,0,1.66.39,6.65,6.65,0,0,0,1-.06,3.11,3.11,0,0,0,.71-.16,5,5,0,0,0,.5-.21l.38-.21a1.91,1.91,0,0,1,.32-.16.78.78,0,0,1,.22,0,.22.22,0,0,1,.18.11,1,1,0,0,1,.13.24.59.59,0,0,1,0,.23c0,.12-.15.27-.45.47a5.05,5.05,0,0,1-1.24.53A5.83,5.83,0,0,1,145.44,48.53Zm-3.55-5.13h5.66a1.55,1.55,0,0,0,.59-.09c.14-.05.21-.24.21-.56A1.88,1.88,0,0,0,148,41.6a2.76,2.76,0,0,0-1.05-.84,3.4,3.4,0,0,0-1.52-.33,4.12,4.12,0,0,0-1.76.38,3.19,3.19,0,0,0-1.28,1.06A2.49,2.49,0,0,0,141.89,43.4Z"/><path class="cls-1" d="M161.25,48.53a5.32,5.32,0,0,1-1.91-.34,4.33,4.33,0,0,1-1.48-1,4.5,4.5,0,0,1-1-1.48,5.07,5.07,0,0,1-.34-1.91,4.19,4.19,0,0,1,.59-2.22A4.25,4.25,0,0,1,158.78,40a4.91,4.91,0,0,1,2.39-.58,4.51,4.51,0,0,1,1.6.27,4.14,4.14,0,0,1,1.25.72,3.44,3.44,0,0,1,.83,1,2.64,2.64,0,0,1,.3,1.21,1.56,1.56,0,0,1-.43,1.27,1.66,1.66,0,0,1-1,.33h-6a2.61,2.61,0,0,0,.5,1.73,3.62,3.62,0,0,0,1.37,1.11,3.84,3.84,0,0,0,1.66.39,6.65,6.65,0,0,0,1-.06,3,3,0,0,0,.7-.16,4.42,4.42,0,0,0,.51-.21l.38-.21a1.91,1.91,0,0,1,.32-.16.73.73,0,0,1,.22,0,.22.22,0,0,1,.18.11,1,1,0,0,1,.13.24.59.59,0,0,1,0,.23c0,.12-.15.27-.46.47a4.8,4.8,0,0,1-1.23.53A5.88,5.88,0,0,1,161.25,48.53ZM157.7,43.4h5.66a1.55,1.55,0,0,0,.59-.09c.14-.05.21-.24.21-.56a1.88,1.88,0,0,0-.39-1.15,2.72,2.72,0,0,0-1.06-.84,3.37,3.37,0,0,0-1.52-.33,4.07,4.07,0,0,0-1.75.38,3.3,3.3,0,0,0-1.29,1.06A2.48,2.48,0,0,0,157.7,43.4Z"/><path class="cls-1" d="M170.2,48.49a4,4,0,0,1-1-.11,2.16,2.16,0,0,1-.75-.35,1.84,1.84,0,0,1-.54-.57,2.35,2.35,0,0,1-.33-.79,4.55,4.55,0,0,1-.1-1V35.78a1,1,0,0,1,0-.35.33.33,0,0,1,.17-.18.71.71,0,0,1,.31-.06,1,1,0,0,1,.33.05.26.26,0,0,1,.18.16.7.7,0,0,1,.06.32v10a2.3,2.3,0,0,0,.1.73A1.3,1.3,0,0,0,169,47a1.14,1.14,0,0,0,.5.32,2,2,0,0,0,.67.11.84.84,0,0,1,.35,0,.3.3,0,0,1,.18.17.94.94,0,0,1,0,.66.33.33,0,0,1-.18.17A1,1,0,0,1,170.2,48.49Z"/><path class="cls-1" d="M178.75,52.12a.75.75,0,0,1-.33-.06.32.32,0,0,1-.18-.18.75.75,0,0,1-.06-.33V40a1,1,0,0,1,0-.35.32.32,0,0,1,.17-.19,1,1,0,0,1,.33,0,.66.66,0,0,1,.45.12.64.64,0,0,1,.12.45V51.53a1.06,1.06,0,0,1-.05.34.32.32,0,0,1-.17.19A.75.75,0,0,1,178.75,52.12Zm4.08-3.67a4.53,4.53,0,0,1-1.71-.32,3.94,3.94,0,0,1-1.34-.93,4.36,4.36,0,0,1-.89-1.45,5.71,5.71,0,0,1,0-3.71,4.13,4.13,0,0,1,.89-1.42,3.94,3.94,0,0,1,1.34-.93,4.53,4.53,0,0,1,1.71-.32,4.31,4.31,0,0,1,1.66.32,4.1,4.1,0,0,1,1.33.93,4.47,4.47,0,0,1,.89,1.46A5.1,5.1,0,0,1,187,44a4.89,4.89,0,0,1-.32,1.83,4.44,4.44,0,0,1-.89,1.43,4.07,4.07,0,0,1-1.33.92A4.31,4.31,0,0,1,182.83,48.45Zm-.17-1a3.2,3.2,0,0,0,2.89-1.7,3.87,3.87,0,0,0,.44-1.86,3.78,3.78,0,0,0-.44-1.85,3.2,3.2,0,0,0-1.19-1.23,3.29,3.29,0,0,0-4.57,1.25,3.72,3.72,0,0,0-.43,1.83,3.87,3.87,0,0,0,.43,1.86A3.33,3.33,0,0,0,181,47,3.2,3.2,0,0,0,182.66,47.45Z"/><path class="cls-1" d="M193.17,48.51a3.82,3.82,0,0,1-1.5-.28,3.48,3.48,0,0,1-1.2-.79,3.71,3.71,0,0,1-.8-1.28,4.81,4.81,0,0,1-.28-1.72V40a.76.76,0,0,1,.05-.33.28.28,0,0,1,.17-.18.9.9,0,0,1,.31,0,1,1,0,0,1,.33,0,.29.29,0,0,1,.17.19.76.76,0,0,1,.05.33v4.46a3.85,3.85,0,0,0,.31,1.61,2.28,2.28,0,0,0,.91,1.07,2.83,2.83,0,0,0,1.52.38,3.17,3.17,0,0,0,1.59-.38,2.53,2.53,0,0,0,1-1.07,3.44,3.44,0,0,0,.36-1.61V40a1,1,0,0,1,.05-.33.3.3,0,0,1,.17-.18,1,1,0,0,1,.33,0,.87.87,0,0,1,.31,0,.34.34,0,0,1,.16.19,1,1,0,0,1,0,.33v8a.75.75,0,0,1,0,.28.28.28,0,0,1-.16.16.76.76,0,0,1-.33,0,.8.8,0,0,1-.23,0,.29.29,0,0,1-.23-.23.8.8,0,0,1,0-.23V46.86a6.31,6.31,0,0,1-.55.61A4,4,0,0,1,195,48a3.41,3.41,0,0,1-.82.37A4,4,0,0,1,193.17,48.51Z"/><path class="cls-1" d="M202.69,48.49a4,4,0,0,1-1-.11A2.16,2.16,0,0,1,201,48a1.84,1.84,0,0,1-.54-.57,2.35,2.35,0,0,1-.33-.79,4.55,4.55,0,0,1-.1-1V35.78a1,1,0,0,1,.05-.35.33.33,0,0,1,.17-.18.68.68,0,0,1,.31-.06,1,1,0,0,1,.33.05.26.26,0,0,1,.18.16.7.7,0,0,1,.06.32v10a2.3,2.3,0,0,0,.1.73,1.3,1.3,0,0,0,.29.53,1.14,1.14,0,0,0,.5.32,2,2,0,0,0,.67.11.84.84,0,0,1,.35,0,.3.3,0,0,1,.18.17.94.94,0,0,1,0,.66.33.33,0,0,1-.18.17A1,1,0,0,1,202.69,48.49Z"/><path class="cls-1" d="M209.38,48.3a4.47,4.47,0,0,1-1.72-.31,3.63,3.63,0,0,1-1.33-.91,4,4,0,0,1-.87-1.39,5.58,5.58,0,0,1,0-3.61,4.23,4.23,0,0,1,.86-1.4,3.69,3.69,0,0,1,1.32-.9,4.44,4.44,0,0,1,1.7-.32,4,4,0,0,1,1.59.32,3.74,3.74,0,0,1,1.26.9,4.33,4.33,0,0,1,.83,1.4,5.33,5.33,0,0,1,.29,1.79,5,5,0,0,1-.51,2.33,3.83,3.83,0,0,1-1.4,1.55A3.71,3.71,0,0,1,209.38,48.3Zm-.08,3.8a5.44,5.44,0,0,1-1.25-.14,4.55,4.55,0,0,1-1-.37,2.35,2.35,0,0,1-.65-.49.74.74,0,0,1-.23-.46.44.44,0,0,1,0-.19.8.8,0,0,1,.09-.14,1.33,1.33,0,0,1,.22-.19.54.54,0,0,1,.22,0,.48.48,0,0,1,.33.17c.12.11.28.24.47.39a3.8,3.8,0,0,0,.73.39,3.16,3.16,0,0,0,1.09.17,3.81,3.81,0,0,0,1.3-.22,2.73,2.73,0,0,0,1-.66,2.78,2.78,0,0,0,.63-1,4.11,4.11,0,0,0,.22-1.42l0-7.92a.54.54,0,0,1,.14-.42.69.69,0,0,1,.43-.11.62.62,0,0,1,.3.05.26.26,0,0,1,.15.16.85.85,0,0,1,0,.32V48a4.72,4.72,0,0,1-.3,1.73A3.52,3.52,0,0,1,212.4,51a3.8,3.8,0,0,1-1.33.81A5.39,5.39,0,0,1,209.3,52.1Zm0-4.77a2.94,2.94,0,0,0,1.62-.44,3,3,0,0,0,1.13-1.22,3.87,3.87,0,0,0,.42-1.84,3.67,3.67,0,0,0-.42-1.79,3.06,3.06,0,0,0-1.14-1.2,3.17,3.17,0,0,0-1.63-.42,3.09,3.09,0,0,0-1.63.42,3,3,0,0,0-1.1,1.2,4,4,0,0,0-.39,1.81,4,4,0,0,0,.4,1.83,3,3,0,0,0,1.11,1.21A2.93,2.93,0,0,0,209.34,47.33Z"/><path class="cls-1" d="M224.61,48.47a.49.49,0,0,1-.38-.13,1.09,1.09,0,0,1-.15-.5V46.57a4.49,4.49,0,0,1-.65.81,3.94,3.94,0,0,1-2.88,1.11,4.17,4.17,0,0,1-3.1-1.33,4.65,4.65,0,0,1-.92-1.45,4.8,4.8,0,0,1-.33-1.8,4.57,4.57,0,0,1,.33-1.74,4.47,4.47,0,0,1,2.32-2.39,4,4,0,0,1,1.7-.35,4.4,4.4,0,0,1,1.53.23,3.8,3.8,0,0,1,1.12.62,5.56,5.56,0,0,1,.88.93V40.13a.86.86,0,0,1,.13-.54.48.48,0,0,1,.42-.16.61.61,0,0,1,.3.06.4.4,0,0,1,.15.22,1.5,1.5,0,0,1,0,.42v7.71a1.18,1.18,0,0,1,0,.37.3.3,0,0,1-.16.2A.68.68,0,0,1,224.61,48.47Zm-3.85-1a3,3,0,0,0,1.65-.46,3.36,3.36,0,0,0,1.18-1.27,4,4,0,0,0,0-3.7,3.38,3.38,0,0,0-1.21-1.25,3.22,3.22,0,0,0-1.64-.44,3.45,3.45,0,0,0-1.82.47,3.41,3.41,0,0,0-1.22,1.28,3.87,3.87,0,0,0-.44,1.86,3.69,3.69,0,0,0,.44,1.8,3.24,3.24,0,0,0,1.23,1.26A3.73,3.73,0,0,0,220.76,47.5Z"/><path class="cls-1" d="M228.59,48.49a.68.68,0,0,1-.31-.06.31.31,0,0,1-.16-.19,1.06,1.06,0,0,1-.05-.34V40a1,1,0,0,1,.05-.35.27.27,0,0,1,.16-.17,1.33,1.33,0,0,1,.32,0,1.39,1.39,0,0,1,.32,0,.3.3,0,0,1,.18.17.82.82,0,0,1,.06.35v.8a5.46,5.46,0,0,1,.38-.59,1.83,1.83,0,0,1,.45-.47,2,2,0,0,1,.66-.31,3.36,3.36,0,0,1,1-.12,2.47,2.47,0,0,1,.56.06,2.88,2.88,0,0,1,.47.15,2.43,2.43,0,0,1,.37.21,1,1,0,0,1,.23.23.43.43,0,0,1,.08.23.54.54,0,0,1-.21.42.66.66,0,0,1-.38.17.56.56,0,0,1-.32-.07,2.39,2.39,0,0,1-.22-.16.9.9,0,0,0-.34-.16,2.41,2.41,0,0,0-.7-.07,1.93,1.93,0,0,0-.63.12,2.65,2.65,0,0,0-.65.37,2,2,0,0,0-.53.65,2.15,2.15,0,0,0-.2,1v5.55a1,1,0,0,1,0,.33.29.29,0,0,1-.17.17A1.08,1.08,0,0,1,228.59,48.49Z"/><path class="cls-1" d="M244.79,47l-4.27-6.65a.62.62,0,0,1-.14-.44.57.57,0,0,1,.29-.32.63.63,0,0,1,.45-.13c.12,0,.23.13.35.3l3.89,6.18Zm-2,5.15a.58.58,0,0,1-.34-.27.75.75,0,0,1,.09-.47l5.19-11.63a.71.71,0,0,1,.29-.38.55.55,0,0,1,.45.06c.19.09.3.19.32.3a.78.78,0,0,1-.09.46L243.5,51.83c-.09.21-.18.32-.28.35A.75.75,0,0,1,242.8,52.1Z"/><path class="cls-1" d="M260.43,48.53a5.32,5.32,0,0,1-1.91-.34,4.33,4.33,0,0,1-1.48-1,4.5,4.5,0,0,1-1-1.48,5.07,5.07,0,0,1-.34-1.91,4.19,4.19,0,0,1,.59-2.22A4.25,4.25,0,0,1,258,40a4.91,4.91,0,0,1,2.39-.58,4.51,4.51,0,0,1,1.6.27,4.14,4.14,0,0,1,1.25.72,3.44,3.44,0,0,1,.83,1,2.63,2.63,0,0,1,.29,1.21A1.56,1.56,0,0,1,263.9,44a1.66,1.66,0,0,1-1,.33h-6a2.61,2.61,0,0,0,.5,1.73,3.62,3.62,0,0,0,1.37,1.11,3.84,3.84,0,0,0,1.66.39,6.65,6.65,0,0,0,1-.06,3,3,0,0,0,.7-.16,4.42,4.42,0,0,0,.51-.21l.38-.21a1.91,1.91,0,0,1,.32-.16.73.73,0,0,1,.22,0,.22.22,0,0,1,.18.11,1,1,0,0,1,.13.24.59.59,0,0,1,0,.23c0,.12-.15.27-.46.47a4.8,4.8,0,0,1-1.23.53A5.88,5.88,0,0,1,260.43,48.53Zm-3.55-5.13h5.66a1.55,1.55,0,0,0,.59-.09c.14-.05.21-.24.21-.56A1.88,1.88,0,0,0,263,41.6a2.72,2.72,0,0,0-1.06-.84,3.37,3.37,0,0,0-1.52-.33,4.15,4.15,0,0,0-1.76.38,3.34,3.34,0,0,0-1.28,1.06A2.48,2.48,0,0,0,256.88,43.4Z"/><path class="cls-1" d="M269.38,48.49a4,4,0,0,1-1-.11,2.16,2.16,0,0,1-.75-.35,1.84,1.84,0,0,1-.54-.57,2.35,2.35,0,0,1-.33-.79,4.55,4.55,0,0,1-.1-1V35.78a.84.84,0,0,1,.05-.35.3.3,0,0,1,.17-.18.68.68,0,0,1,.31-.06,1,1,0,0,1,.33.05.26.26,0,0,1,.18.16.7.7,0,0,1,.06.32v10a2.3,2.3,0,0,0,.1.73,1.3,1.3,0,0,0,.29.53,1.16,1.16,0,0,0,.49.32,2.06,2.06,0,0,0,.68.11.84.84,0,0,1,.35,0,.3.3,0,0,1,.18.17.94.94,0,0,1,0,.66.33.33,0,0,1-.18.17A1,1,0,0,1,269.38,48.49Z"/><path class="cls-1" d="M277.57,37.89a.76.76,0,0,1-.43,0c-.1,0-.17-.16-.24-.35a.6.6,0,0,1,0-.41.53.53,0,0,1,.32-.25l2.89-1a.54.54,0,0,1,.41,0,.53.53,0,0,1,.23.36.54.54,0,0,1,0,.41.55.55,0,0,1-.34.24Zm.32,10.6a.68.68,0,0,1-.31-.06.28.28,0,0,1-.17-.18.76.76,0,0,1-.05-.33V40a.76.76,0,0,1,.05-.33.28.28,0,0,1,.17-.18,1,1,0,0,1,.33,0,.85.85,0,0,1,.32,0,.31.31,0,0,1,.16.19,1,1,0,0,1,.05.35v7.92a1,1,0,0,1-.05.33.29.29,0,0,1-.17.17A1,1,0,0,1,277.89,48.49Z"/><path class="cls-1" d="M281.9,48.47a.68.68,0,0,1-.31-.06.29.29,0,0,1-.16-.18,1,1,0,0,1,0-.33v-8a.75.75,0,0,1,0-.29.33.33,0,0,1,.17-.16,1,1,0,0,1,.32,0,.8.8,0,0,1,.23,0,.28.28,0,0,1,.15.08.36.36,0,0,1,.08.15.8.8,0,0,1,0,.23V41a7.88,7.88,0,0,1,.55-.62,4.56,4.56,0,0,1,.68-.53,3.15,3.15,0,0,1,.81-.37,3.46,3.46,0,0,1,1-.13,3.9,3.9,0,0,1,1.51.28,3.39,3.39,0,0,1,1.21.79,3.71,3.71,0,0,1,.8,1.28,4.81,4.81,0,0,1,.28,1.72v4.46a.76.76,0,0,1-.05.33.27.27,0,0,1-.16.17.69.69,0,0,1-.32,0,.75.75,0,0,1-.33-.06.26.26,0,0,1-.17-.18.76.76,0,0,1-.05-.33V43.44a3.87,3.87,0,0,0-.31-1.62,2.3,2.3,0,0,0-.91-1.06,2.79,2.79,0,0,0-1.54-.38,3,3,0,0,0-1.57.38,2.57,2.57,0,0,0-1,1.06,3.46,3.46,0,0,0-.36,1.62v4.48a1,1,0,0,1-.05.33.29.29,0,0,1-.17.17A.76.76,0,0,1,281.9,48.47Z"/><path class="cls-1" d="M296.11,48.49a4.28,4.28,0,0,1-1.64-.32,3.94,3.94,0,0,1-1.34-.93,4.49,4.49,0,0,1-.9-1.46,5.28,5.28,0,0,1-.32-1.87,5.09,5.09,0,0,1,.32-1.83,4.46,4.46,0,0,1,.9-1.43,3.91,3.91,0,0,1,1.34-.92,4.28,4.28,0,0,1,1.64-.32,4.53,4.53,0,0,1,1.71.32,4,4,0,0,1,1.35.93,4.34,4.34,0,0,1,.88,1.45,5.54,5.54,0,0,1,0,3.71,4.25,4.25,0,0,1-.88,1.43,4.1,4.1,0,0,1-1.35.92A4.53,4.53,0,0,1,296.11,48.49Zm.17-1A3.27,3.27,0,0,0,298,47a3.2,3.2,0,0,0,1.18-1.24,3.7,3.7,0,0,0,.44-1.83,3.82,3.82,0,0,0-.44-1.86,3.17,3.17,0,0,0-2.87-1.69,3.26,3.26,0,0,0-1.69.44,3.14,3.14,0,0,0-1.2,1.25A3.81,3.81,0,0,0,293,44a3.7,3.7,0,0,0,.43,1.83,3.18,3.18,0,0,0,1.2,1.24A3.35,3.35,0,0,0,296.28,47.48Zm3.92,1a.55.55,0,0,1-.43-.13.66.66,0,0,1-.13-.44V35.82a1,1,0,0,1,.05-.35.28.28,0,0,1,.17-.18.76.76,0,0,1,.32-.06.7.7,0,0,1,.32.06.3.3,0,0,1,.17.18.75.75,0,0,1,.06.33V47.9a1.06,1.06,0,0,1-.05.34.31.31,0,0,1-.16.19A.73.73,0,0,1,300.2,48.49Z"/><path class="cls-1" d="M304.41,36.69a.94.94,0,0,1-.41-.07.45.45,0,0,1-.22-.25,1.13,1.13,0,0,1-.07-.44,1,1,0,0,1,.07-.42.43.43,0,0,1,.22-.22,1.27,1.27,0,0,1,.43-.06,1,1,0,0,1,.42.07.51.51,0,0,1,.22.24,1.32,1.32,0,0,1,.07.45,1.21,1.21,0,0,1-.07.41.49.49,0,0,1-.22.23A1.25,1.25,0,0,1,304.41,36.69Zm0,11.8a.71.71,0,0,1-.31-.06.3.3,0,0,1-.17-.18,1,1,0,0,1-.05-.33V40a1,1,0,0,1,.05-.33.3.3,0,0,1,.17-.18,1,1,0,0,1,.33,0,1,1,0,0,1,.33,0,.34.34,0,0,1,.16.19,1,1,0,0,1,0,.35v7.92a1,1,0,0,1,0,.33.29.29,0,0,1-.17.17A1.06,1.06,0,0,1,304.41,48.49Z"/><path class="cls-1" d="M312.3,48.49a5.5,5.5,0,0,1-1.91-.32,4.41,4.41,0,0,1-1.49-.92,4,4,0,0,1-1-1.43,5.2,5.2,0,0,1,0-3.7,4.16,4.16,0,0,1,.95-1.44,4.29,4.29,0,0,1,1.47-.93,5.45,5.45,0,0,1,1.9-.32,3.87,3.87,0,0,1,1.28.22,4.67,4.67,0,0,1,1.19.57,2.16,2.16,0,0,1,.76.78.9.9,0,0,1,.13.37.35.35,0,0,1-.09.22.86.86,0,0,1-.26.21.56.56,0,0,1-.25.08.57.57,0,0,1-.44-.27,2.27,2.27,0,0,0-.46-.47,3.13,3.13,0,0,0-.58-.36,3.25,3.25,0,0,0-.63-.24,2.43,2.43,0,0,0-.65-.09,3.82,3.82,0,0,0-1.86.44,3.06,3.06,0,0,0-1.24,1.23,3.75,3.75,0,0,0-.43,1.85,3.7,3.7,0,0,0,.43,1.83A3,3,0,0,0,310.39,47a3.72,3.72,0,0,0,1.83.43,3.37,3.37,0,0,0,.88-.11,4,4,0,0,0,.83-.33,3.09,3.09,0,0,0,.69-.51l.25-.21a.39.39,0,0,1,.26-.09.33.33,0,0,1,.22.09,1.23,1.23,0,0,1,.22.23.31.31,0,0,1,.09.18.55.55,0,0,1,0,.22.45.45,0,0,1-.12.21,4.09,4.09,0,0,1-1,.7,5.27,5.27,0,0,1-1.16.48A4.23,4.23,0,0,1,312.3,48.49Z"/><path class="cls-1" d="M322.27,48.53a5.36,5.36,0,0,1-1.91-.34,4.42,4.42,0,0,1-1.48-1,4.5,4.5,0,0,1-1-1.48,5.07,5.07,0,0,1-.34-1.91A4.24,4.24,0,0,1,319.8,40a5,5,0,0,1,2.4-.58,4.5,4.5,0,0,1,1.59.27,4.32,4.32,0,0,1,1.26.72,3.41,3.41,0,0,1,.82,1,2.64,2.64,0,0,1,.3,1.21,1.53,1.53,0,0,1-.43,1.27,1.63,1.63,0,0,1-1,.33h-6a2.61,2.61,0,0,0,.5,1.73,3.62,3.62,0,0,0,1.37,1.11,3.87,3.87,0,0,0,1.66.39,6.65,6.65,0,0,0,1-.06,3.11,3.11,0,0,0,.71-.16,5,5,0,0,0,.5-.21l.38-.21a1.91,1.91,0,0,1,.32-.16.78.78,0,0,1,.22,0,.22.22,0,0,1,.18.11,1,1,0,0,1,.14.24.85.85,0,0,1,0,.23c0,.12-.15.27-.45.47a5.05,5.05,0,0,1-1.24.53A5.83,5.83,0,0,1,322.27,48.53Zm-3.55-5.13h5.66a1.52,1.52,0,0,0,.59-.09c.14-.05.21-.24.21-.56a1.88,1.88,0,0,0-.39-1.15,2.76,2.76,0,0,0-1.05-.84,3.4,3.4,0,0,0-1.52-.33,4.12,4.12,0,0,0-1.76.38,3.19,3.19,0,0,0-1.28,1.06A2.49,2.49,0,0,0,318.72,43.4Z"/><path class="cls-1" d="M328.83,49.57a.19.19,0,0,1-.1-.08.53.53,0,0,1,0-.2.39.39,0,0,1,.13-.33.8.8,0,0,0,.38-.62.64.64,0,0,1-.22-.06.42.42,0,0,1-.16-.11.45.45,0,0,1-.12-.25c0-.1,0-.2,0-.3a2.06,2.06,0,0,1,0-.36.42.42,0,0,1,.18-.26,1,1,0,0,1,.52-.11.8.8,0,0,1,.59.18.38.38,0,0,1,.11.24c0,.1,0,.21,0,.32v.16a.77.77,0,0,1,0,.15,2.51,2.51,0,0,1-.22.8,1.9,1.9,0,0,1-.45.61A1,1,0,0,1,328.83,49.57Z"/><path class="cls-1" d="M8.53,73.47a.47.47,0,0,1-.38-.13.89.89,0,0,1-.15-.5V71.57a4.19,4.19,0,0,1-.66.81,3.92,3.92,0,0,1-1.16.78,4,4,0,0,1-1.72.33,4.26,4.26,0,0,1-1.72-.35,4.3,4.3,0,0,1-1.37-1,4.48,4.48,0,0,1-.92-1.45,4.62,4.62,0,0,1-.34-1.8,4.51,4.51,0,0,1,1.27-3.16,4.43,4.43,0,0,1,1.38-1,4.08,4.08,0,0,1,1.7-.35A4.32,4.32,0,0,1,6,64.66a3.68,3.68,0,0,1,1.12.62,5.62,5.62,0,0,1,.89.93V65.13a.94.94,0,0,1,.12-.54.5.5,0,0,1,.43-.16.57.57,0,0,1,.29.06.47.47,0,0,1,.16.22,1.56,1.56,0,0,1,0,.42v7.71a1.22,1.22,0,0,1,0,.37.32.32,0,0,1-.17.2A.61.61,0,0,1,8.53,73.47Zm-3.86-1A3.08,3.08,0,0,0,6.33,72,3.34,3.34,0,0,0,7.5,70.77,3.63,3.63,0,0,0,7.94,69a3.76,3.76,0,0,0-.45-1.88,3.46,3.46,0,0,0-1.21-1.25,3.22,3.22,0,0,0-1.64-.44,3.51,3.51,0,0,0-1.83.47A3.38,3.38,0,0,0,1.6,67.13,3.76,3.76,0,0,0,1.16,69a3.58,3.58,0,0,0,.44,1.8,3.24,3.24,0,0,0,1.23,1.26A3.69,3.69,0,0,0,4.67,72.5Z"/><path class="cls-1" d="M12.37,77.12a.75.75,0,0,1-.33-.06.37.37,0,0,1-.19-.18,1,1,0,0,1,0-.33V65a.81.81,0,0,1,0-.35.29.29,0,0,1,.17-.19,1,1,0,0,1,.33,0,.67.67,0,0,1,.45.12.64.64,0,0,1,.12.45V76.53a1.06,1.06,0,0,1-.05.34.32.32,0,0,1-.17.19A.75.75,0,0,1,12.37,77.12Zm4.08-3.67a4.53,4.53,0,0,1-1.71-.32,4,4,0,0,1-1.35-.93,4.34,4.34,0,0,1-.88-1.45,5.71,5.71,0,0,1,0-3.71,4.11,4.11,0,0,1,.88-1.42,4,4,0,0,1,1.35-.93,4.53,4.53,0,0,1,1.71-.32,4.31,4.31,0,0,1,1.66.32,4.1,4.1,0,0,1,1.33.93,4.47,4.47,0,0,1,.89,1.46A5.32,5.32,0,0,1,20.65,69a5.09,5.09,0,0,1-.32,1.83,4.44,4.44,0,0,1-.89,1.43,4.07,4.07,0,0,1-1.33.92A4.31,4.31,0,0,1,16.45,73.45Zm-.17-1a3.2,3.2,0,0,0,2.89-1.7,3.87,3.87,0,0,0,.44-1.86A3.78,3.78,0,0,0,19.17,67,3.2,3.2,0,0,0,18,65.81a3.33,3.33,0,0,0-1.7-.43,3.29,3.29,0,0,0-1.68.44,3.23,3.23,0,0,0-1.19,1.24A3.72,3.72,0,0,0,13,68.89a3.87,3.87,0,0,0,.43,1.86A3.25,3.25,0,0,0,14.6,72,3.2,3.2,0,0,0,16.28,72.45Z"/><path class="cls-1" d="M27.34,73.57a4.51,4.51,0,0,1-1.79-.36,5.28,5.28,0,0,1-1.47-1,4.67,4.67,0,0,1-1-1.47A4.42,4.42,0,0,1,22.72,69a4.62,4.62,0,0,1,.35-1.8,4.72,4.72,0,0,1,1-1.46,4.84,4.84,0,0,1,1.46-1,4.63,4.63,0,0,1,1.78-.35,4.47,4.47,0,0,1,3.93,2.23,4.86,4.86,0,0,1,.26,4.17,4.59,4.59,0,0,1-1,1.47,4.53,4.53,0,0,1-1.43,1A4.32,4.32,0,0,1,27.34,73.57Zm0-1a3.32,3.32,0,0,0,1.76-.48,3.65,3.65,0,0,0,1.25-1.31,3.73,3.73,0,0,0,.47-1.84,3.54,3.54,0,0,0-.46-1.82,3.31,3.31,0,0,0-1.24-1.25,3.58,3.58,0,0,0-1.8-.44,3.42,3.42,0,0,0-3,1.73,3.5,3.5,0,0,0-.46,1.8,3.64,3.64,0,0,0,.46,1.84,3.44,3.44,0,0,0,3.05,1.77Z"/><path class="cls-1" d="M38,72,33.7,65.3a.66.66,0,0,1-.13-.44.57.57,0,0,1,.29-.32.48.48,0,0,1,.79.17l3.9,6.18ZM36,77.1q-.28-.12-.33-.27a.75.75,0,0,1,.09-.47l5.18-11.63a.72.72,0,0,1,.3-.38.55.55,0,0,1,.45.06c.19.09.29.19.32.3a.8.8,0,0,1-.1.46l-5.2,11.66c-.09.21-.18.32-.28.35A.78.78,0,0,1,36,77.1Z"/><path class="cls-1" d="M52.12,73.47a.46.46,0,0,1-.38-.13,1,1,0,0,1-.16-.5V71.57a4,4,0,0,1-3.53,1.92,4.26,4.26,0,0,1-1.72-.35,4.34,4.34,0,0,1-1.38-1A4.65,4.65,0,0,1,44,70.71a4.8,4.8,0,0,1-.33-1.8A4.57,4.57,0,0,1,44,67.17a4.47,4.47,0,0,1,2.32-2.39,4,4,0,0,1,1.7-.35,4.4,4.4,0,0,1,1.53.23,3.8,3.8,0,0,1,1.12.62,5.56,5.56,0,0,1,.88.93V65.13a.86.86,0,0,1,.13-.54.48.48,0,0,1,.42-.16.61.61,0,0,1,.3.06.4.4,0,0,1,.15.22,1.5,1.5,0,0,1,.05.42v7.71a1.18,1.18,0,0,1-.05.37.28.28,0,0,1-.16.2A.67.67,0,0,1,52.12,73.47Zm-3.86-1A3,3,0,0,0,49.91,72a3.29,3.29,0,0,0,1.18-1.27,4,4,0,0,0,0-3.7,3.38,3.38,0,0,0-1.21-1.25,3.2,3.2,0,0,0-1.64-.44,3.47,3.47,0,0,0-1.82.47,3.41,3.41,0,0,0-1.22,1.28A3.87,3.87,0,0,0,44.74,69a3.69,3.69,0,0,0,.44,1.8,3.2,3.2,0,0,0,1.24,1.26A3.66,3.66,0,0,0,48.26,72.5Z"/><path class="cls-1" d="M59.49,73.49a4.33,4.33,0,0,1-1.65-.32,4,4,0,0,1-1.34-.93,4.47,4.47,0,0,1-.89-1.46,5.28,5.28,0,0,1-.32-1.87,5.09,5.09,0,0,1,.32-1.83,4.44,4.44,0,0,1,.89-1.43,4,4,0,0,1,1.34-.92,4.33,4.33,0,0,1,1.65-.32,4.53,4.53,0,0,1,1.71.32,4,4,0,0,1,1.35.93,4.34,4.34,0,0,1,.88,1.45,5.71,5.71,0,0,1,0,3.71,4.25,4.25,0,0,1-.88,1.43,4.1,4.1,0,0,1-1.35.92A4.53,4.53,0,0,1,59.49,73.49Zm.17-1a3.15,3.15,0,0,0,2.87-1.68A3.7,3.7,0,0,0,63,69a3.81,3.81,0,0,0-.43-1.86,3.17,3.17,0,0,0-2.87-1.69,3.23,3.23,0,0,0-1.69.44,3.14,3.14,0,0,0-1.2,1.25A3.82,3.82,0,0,0,56.33,69a3.7,3.7,0,0,0,.44,1.83A3.18,3.18,0,0,0,58,72,3.33,3.33,0,0,0,59.66,72.48Zm3.91,1a.58.58,0,0,1-.43-.13.66.66,0,0,1-.12-.44V60.82a1,1,0,0,1,0-.35.28.28,0,0,1,.17-.18.71.71,0,0,1,.31-.06.75.75,0,0,1,.33.06.33.33,0,0,1,.17.18,1,1,0,0,1,0,.33V72.9a1.09,1.09,0,0,1,0,.34.32.32,0,0,1-.17.19A.67.67,0,0,1,63.57,73.49Z"/><path class="cls-1" d="M71.13,73.57a4.46,4.46,0,0,1-1.78-.36,5,5,0,0,1-1.47-1,4.51,4.51,0,0,1-1-1.47,4.56,4.56,0,0,1,1-5,4.72,4.72,0,0,1,1.46-1,4.56,4.56,0,0,1,1.78-.35,4.45,4.45,0,0,1,2.29.6A4.5,4.5,0,0,1,75,66.6,4.62,4.62,0,0,1,75.64,69a4.69,4.69,0,0,1-.35,1.82,4.76,4.76,0,0,1-1,1.47,4.57,4.57,0,0,1-1.44,1A4.28,4.28,0,0,1,71.13,73.57Zm0-1a3.29,3.29,0,0,0,1.75-.48,3.6,3.6,0,0,0,1.26-1.31,3.72,3.72,0,0,0,.46-1.84,3.64,3.64,0,0,0-.45-1.82,3.33,3.33,0,0,0-1.25-1.25,3.52,3.52,0,0,0-1.79-.44,3.45,3.45,0,0,0-1.78.46,3.39,3.39,0,0,0-1.25,1.27,3.5,3.5,0,0,0-.47,1.8,3.65,3.65,0,0,0,.47,1.84,3.41,3.41,0,0,0,3,1.77Z"/><path class="cls-1" d="M86.2,73.55a4.38,4.38,0,0,1-.88-.09,4.75,4.75,0,0,1-.86-.25,3.77,3.77,0,0,1-.75-.38A1.75,1.75,0,0,1,83,72a.31.31,0,0,1,0-.25.44.44,0,0,1,.18-.21.46.46,0,0,1,.4-.19,1.16,1.16,0,0,1,.49.36,1.74,1.74,0,0,0,.44.35,3.77,3.77,0,0,0,.57.28,3.48,3.48,0,0,0,.61.17,2.91,2.91,0,0,0,.57.06,3.13,3.13,0,0,0,1.69-.41,1.26,1.26,0,0,0,.65-1.11,1.47,1.47,0,0,0-.14-.64,1.37,1.37,0,0,0-.36-.46,2.46,2.46,0,0,0-.52-.34,4.91,4.91,0,0,0-.65-.24l-.71-.2q-.53-.14-1.05-.3a4.24,4.24,0,0,1-.94-.41,2,2,0,0,1-.68-.64,1.89,1.89,0,0,1-.25-1,2.1,2.1,0,0,1,.37-1.25,2.4,2.4,0,0,1,1-.84,3.71,3.71,0,0,1,1.54-.3,5.36,5.36,0,0,1,.82.06,3.9,3.9,0,0,1,.71.2,4.65,4.65,0,0,1,.63.32,3.57,3.57,0,0,1,.54.42.75.75,0,0,1,.25.38.5.5,0,0,1-.14.36.54.54,0,0,1-.36.22.47.47,0,0,1-.4-.18,2.77,2.77,0,0,0-.63-.48,3.7,3.7,0,0,0-.69-.28,2.92,2.92,0,0,0-.73-.09,2.57,2.57,0,0,0-1,.18,1.52,1.52,0,0,0-.67.51,1.28,1.28,0,0,0-.24.77.85.85,0,0,0,.16.54,1.3,1.3,0,0,0,.43.37,3.72,3.72,0,0,0,.63.27l.76.23,1.16.33a4.53,4.53,0,0,1,1.07.48,2.39,2.39,0,0,1,.79.76A2.3,2.3,0,0,1,89.6,71a2.12,2.12,0,0,1-1,1.82A4.07,4.07,0,0,1,86.2,73.55Z"/><path class="cls-1" d="M96.31,73.57a4.51,4.51,0,0,1-1.79-.36,5.14,5.14,0,0,1-1.47-1,4.67,4.67,0,0,1-1-1.47A4.42,4.42,0,0,1,91.69,69a4.62,4.62,0,0,1,.35-1.8,4.72,4.72,0,0,1,1-1.46,4.84,4.84,0,0,1,1.46-1,4.59,4.59,0,0,1,1.78-.35,4.47,4.47,0,0,1,3.93,2.23,4.53,4.53,0,0,1,.61,2.35,4.69,4.69,0,0,1-.35,1.82,4.59,4.59,0,0,1-1,1.47,4.53,4.53,0,0,1-1.43,1A4.32,4.32,0,0,1,96.31,73.57Zm0-1A3.32,3.32,0,0,0,98,72.06a3.65,3.65,0,0,0,1.25-1.31,3.73,3.73,0,0,0,.47-1.84,3.54,3.54,0,0,0-.46-1.82,3.31,3.31,0,0,0-1.24-1.25,3.58,3.58,0,0,0-1.8-.44,3.42,3.42,0,0,0-3,1.73,3.5,3.5,0,0,0-.46,1.8,3.64,3.64,0,0,0,.46,1.84,3.41,3.41,0,0,0,3,1.77Z"/><path class="cls-1" d="M103.68,73.51a.68.68,0,0,1-.31-.06.35.35,0,0,1-.18-.18.75.75,0,0,1-.06-.33V60.84a1.11,1.11,0,0,1,.05-.36.33.33,0,0,1,.17-.18.91.91,0,0,1,.31,0,.85.85,0,0,1,.32,0,.39.39,0,0,1,.18.18,1.06,1.06,0,0,1,0,.34v12.1a.75.75,0,0,1-.11.46A.58.58,0,0,1,103.68,73.51Zm4.07,0a4.53,4.53,0,0,1-1.71-.32,4.1,4.1,0,0,1-1.35-.92,4.27,4.27,0,0,1-.89-1.43,5.71,5.71,0,0,1,0-3.71,4.36,4.36,0,0,1,.89-1.45,4,4,0,0,1,1.35-.93,4.53,4.53,0,0,1,1.71-.32,4.29,4.29,0,0,1,1.65.32,4,4,0,0,1,1.33.92,4.27,4.27,0,0,1,.89,1.43,4.89,4.89,0,0,1,.33,1.83,5.06,5.06,0,0,1-.33,1.87,4.31,4.31,0,0,1-.89,1.46,4,4,0,0,1-1.33.93A4.29,4.29,0,0,1,107.75,73.49Zm-.17-1a3.34,3.34,0,0,0,1.7-.44,3.2,3.2,0,0,0,1.18-1.24A3.59,3.59,0,0,0,110.9,69a3.71,3.71,0,0,0-.44-1.86,3.16,3.16,0,0,0-1.18-1.25,3.48,3.48,0,0,0-3.39,0,3.16,3.16,0,0,0-1.18,1.25,3.82,3.82,0,0,0-.44,1.86,3.7,3.7,0,0,0,.44,1.83A3.2,3.2,0,0,0,105.89,72,3.33,3.33,0,0,0,107.58,72.48Z"/><path class="cls-1" d="M115.31,73.49a.68.68,0,0,1-.31-.06.31.31,0,0,1-.16-.19,1.09,1.09,0,0,1,0-.34V65a1.08,1.08,0,0,1,0-.35.27.27,0,0,1,.16-.17,1.42,1.42,0,0,1,.33,0,1.35,1.35,0,0,1,.31,0,.3.3,0,0,1,.18.17.82.82,0,0,1,.06.35v.8a5.46,5.46,0,0,1,.38-.59,2.24,2.24,0,0,1,.45-.47,2,2,0,0,1,.66-.31,3.4,3.4,0,0,1,1-.12,2.47,2.47,0,0,1,.56.06,2.88,2.88,0,0,1,.47.15,2.43,2.43,0,0,1,.37.21.83.83,0,0,1,.23.23.43.43,0,0,1,.08.23.54.54,0,0,1-.21.42.66.66,0,0,1-.38.17.53.53,0,0,1-.31-.07,1.53,1.53,0,0,1-.22-.16,1,1,0,0,0-.34-.16,2.54,2.54,0,0,0-.71-.07,1.83,1.83,0,0,0-.62.12,2.71,2.71,0,0,0-.66.37,2,2,0,0,0-.52.65,2,2,0,0,0-.21,1v5.55a1,1,0,0,1,0,.33.29.29,0,0,1-.17.17A1,1,0,0,1,115.31,73.49Z"/><path class="cls-1" d="M126.75,73.53a5.28,5.28,0,0,1-1.91-.34,4.33,4.33,0,0,1-1.48-1,4.21,4.21,0,0,1-1-1.48,5.08,5.08,0,0,1-.35-1.91,4.28,4.28,0,0,1,.59-2.22A4.34,4.34,0,0,1,124.28,65a4.89,4.89,0,0,1,2.39-.58,4.55,4.55,0,0,1,1.6.27,4.14,4.14,0,0,1,1.25.72,3.6,3.6,0,0,1,.83,1,2.76,2.76,0,0,1,.29,1.21,1.53,1.53,0,0,1-.43,1.27,1.63,1.63,0,0,1-1,.33h-6A2.67,2.67,0,0,0,123.7,71a3.55,3.55,0,0,0,1.37,1.11,3.84,3.84,0,0,0,1.66.39,6.85,6.85,0,0,0,1-.06,3.15,3.15,0,0,0,.7-.16,4.2,4.2,0,0,0,.5-.21l.38-.21a2.45,2.45,0,0,1,.33-.16.69.69,0,0,1,.22,0,.22.22,0,0,1,.18.11,1.47,1.47,0,0,1,.13.24.85.85,0,0,1,0,.23c0,.12-.16.27-.46.47a4.8,4.8,0,0,1-1.23.53A5.88,5.88,0,0,1,126.75,73.53Zm-3.56-5.13h5.67a1.46,1.46,0,0,0,.58-.09c.14,0,.21-.24.21-.56a1.88,1.88,0,0,0-.39-1.15,2.76,2.76,0,0,0-1-.84,3.37,3.37,0,0,0-1.52-.33,4.15,4.15,0,0,0-1.76.38,3.26,3.26,0,0,0-1.28,1.06A2.49,2.49,0,0,0,123.19,68.4Z"/><path class="cls-1" d="M142.55,73.53a5.26,5.26,0,0,1-1.9-.34,4.37,4.37,0,0,1-1.49-1,4.5,4.5,0,0,1-1-1.48,5.28,5.28,0,0,1-.34-1.91A4.24,4.24,0,0,1,140.08,65a5,5,0,0,1,2.4-.58,4.5,4.5,0,0,1,1.59.27,4.19,4.19,0,0,1,1.26.72,3.6,3.6,0,0,1,.83,1,2.76,2.76,0,0,1,.29,1.21A1.53,1.53,0,0,1,146,69a1.63,1.63,0,0,1-1,.33h-6a2.61,2.61,0,0,0,.51,1.73,3.59,3.59,0,0,0,1.36,1.11,3.88,3.88,0,0,0,1.67.39,6.85,6.85,0,0,0,1-.06,3.15,3.15,0,0,0,.7-.16,5,5,0,0,0,.5-.21l.38-.21a2.38,2.38,0,0,1,.32-.16.78.78,0,0,1,.22,0,.19.19,0,0,1,.18.11,1,1,0,0,1,.14.24.85.85,0,0,1,0,.23c0,.12-.15.27-.45.47a5.05,5.05,0,0,1-1.24.53A5.83,5.83,0,0,1,142.55,73.53ZM139,68.4h5.66a1.52,1.52,0,0,0,.59-.09c.14,0,.21-.24.21-.56a1.88,1.88,0,0,0-.39-1.15,2.76,2.76,0,0,0-1-.84,3.4,3.4,0,0,0-1.52-.33,4.12,4.12,0,0,0-1.76.38,3.19,3.19,0,0,0-1.28,1.06A2.49,2.49,0,0,0,139,68.4Z"/><path class="cls-1" d="M151.5,73.49a4.08,4.08,0,0,1-1-.11,2.35,2.35,0,0,1-.75-.35,2.1,2.1,0,0,1-.54-.57,2.56,2.56,0,0,1-.32-.79,4.53,4.53,0,0,1-.11-1V60.78a1,1,0,0,1,.05-.35.33.33,0,0,1,.17-.18.73.73,0,0,1,.32-.06,1,1,0,0,1,.33.05.31.31,0,0,1,.18.16.7.7,0,0,1,.06.32v10a2.65,2.65,0,0,0,.09.73,1.21,1.21,0,0,0,.3.53,1.1,1.1,0,0,0,.49.32,2,2,0,0,0,.67.11.89.89,0,0,1,.36,0,.3.3,0,0,1,.18.17,1.11,1.11,0,0,1,0,.66.33.33,0,0,1-.18.17A1.06,1.06,0,0,1,151.5,73.49Z"/><path class="cls-1" d="M163.59,73.49a4.33,4.33,0,0,1-1.65-.32,4,4,0,0,1-1.34-.93,4.47,4.47,0,0,1-.89-1.46,5.28,5.28,0,0,1-.32-1.87,5.09,5.09,0,0,1,.32-1.83,4.44,4.44,0,0,1,.89-1.43,4,4,0,0,1,1.34-.92,4.33,4.33,0,0,1,1.65-.32,4.53,4.53,0,0,1,1.71.32,4,4,0,0,1,1.35.93,4.34,4.34,0,0,1,.88,1.45,5.71,5.71,0,0,1,0,3.71,4.25,4.25,0,0,1-.88,1.43,4.1,4.1,0,0,1-1.35.92A4.53,4.53,0,0,1,163.59,73.49Zm.17-1a3.15,3.15,0,0,0,2.87-1.68,3.7,3.7,0,0,0,.43-1.83,3.81,3.81,0,0,0-.43-1.86,3.17,3.17,0,0,0-2.87-1.69,3.23,3.23,0,0,0-1.69.44,3.14,3.14,0,0,0-1.2,1.25,3.82,3.82,0,0,0-.44,1.86,3.7,3.7,0,0,0,.44,1.83,3.18,3.18,0,0,0,1.2,1.24A3.33,3.33,0,0,0,163.76,72.48Zm3.91,1a.54.54,0,0,1-.42-.13.61.61,0,0,1-.13-.44V60.82a1,1,0,0,1,0-.35.28.28,0,0,1,.17-.18.71.71,0,0,1,.31-.06.75.75,0,0,1,.33.06.33.33,0,0,1,.17.18.76.76,0,0,1,0,.33V72.9a1.09,1.09,0,0,1,0,.34.31.31,0,0,1-.16.19A.75.75,0,0,1,167.67,73.49Z"/><path class="cls-1" d="M175.4,73.53a5.26,5.26,0,0,1-1.9-.34,4.37,4.37,0,0,1-1.49-1,4.5,4.5,0,0,1-1-1.48,5.28,5.28,0,0,1-.34-1.91A4.24,4.24,0,0,1,172.93,65a5,5,0,0,1,2.4-.58,4.5,4.5,0,0,1,1.59.27,4.19,4.19,0,0,1,1.26.72,3.6,3.6,0,0,1,.83,1,2.76,2.76,0,0,1,.29,1.21,1.53,1.53,0,0,1-.43,1.27,1.63,1.63,0,0,1-1,.33h-6a2.61,2.61,0,0,0,.51,1.73,3.59,3.59,0,0,0,1.36,1.11,3.88,3.88,0,0,0,1.67.39,6.85,6.85,0,0,0,1-.06,3.15,3.15,0,0,0,.7-.16,5,5,0,0,0,.5-.21l.38-.21a2.38,2.38,0,0,1,.32-.16.78.78,0,0,1,.22,0,.19.19,0,0,1,.18.11,1,1,0,0,1,.14.24.85.85,0,0,1,0,.23c0,.12-.15.27-.45.47a5.05,5.05,0,0,1-1.24.53A5.83,5.83,0,0,1,175.4,73.53Zm-3.55-5.13h5.66a1.52,1.52,0,0,0,.59-.09c.14,0,.21-.24.21-.56a1.88,1.88,0,0,0-.39-1.15,2.76,2.76,0,0,0-1-.84,3.4,3.4,0,0,0-1.52-.33,4.12,4.12,0,0,0-1.76.38,3.19,3.19,0,0,0-1.28,1.06A2.49,2.49,0,0,0,171.85,68.4Z"/><path class="cls-1" d="M185.78,73.49a4.28,4.28,0,0,1-1.64-.32,3.94,3.94,0,0,1-1.34-.93,4.49,4.49,0,0,1-.9-1.46,5.28,5.28,0,0,1-.32-1.87,5.09,5.09,0,0,1,.32-1.83,4.46,4.46,0,0,1,.9-1.43,3.91,3.91,0,0,1,1.34-.92,4.28,4.28,0,0,1,1.64-.32,4.53,4.53,0,0,1,1.71.32,4,4,0,0,1,1.35.93,4.34,4.34,0,0,1,.88,1.45,5.54,5.54,0,0,1,0,3.71,4.25,4.25,0,0,1-.88,1.43,4.1,4.1,0,0,1-1.35.92A4.53,4.53,0,0,1,185.78,73.49Zm.17-1a3.15,3.15,0,0,0,2.87-1.68,3.7,3.7,0,0,0,.44-1.83,3.82,3.82,0,0,0-.44-1.86A3.17,3.17,0,0,0,186,65.42a3.26,3.26,0,0,0-1.69.44,3.14,3.14,0,0,0-1.2,1.25,3.82,3.82,0,0,0-.44,1.86,3.7,3.7,0,0,0,.44,1.83,3.18,3.18,0,0,0,1.2,1.24A3.35,3.35,0,0,0,186,72.48Zm3.91,1a.54.54,0,0,1-.42-.13.61.61,0,0,1-.13-.44V60.82a1,1,0,0,1,.05-.35.28.28,0,0,1,.17-.18.71.71,0,0,1,.31-.06.75.75,0,0,1,.33.06.33.33,0,0,1,.17.18.75.75,0,0,1,.06.33V72.9a1.06,1.06,0,0,1-.05.34.31.31,0,0,1-.16.19A.75.75,0,0,1,189.86,73.49Z"/><path class="cls-1" d="M197.43,73.57a4.47,4.47,0,0,1-1.79-.36,5,5,0,0,1-1.47-1,4.51,4.51,0,0,1-1-1.47,4.42,4.42,0,0,1-.36-1.78,4.62,4.62,0,0,1,.35-1.8,4.39,4.39,0,0,1,1-1.46,4.72,4.72,0,0,1,1.46-1,4.56,4.56,0,0,1,1.78-.35A4.49,4.49,0,0,1,201.93,69a4.69,4.69,0,0,1-.35,1.82,4.76,4.76,0,0,1-1,1.47,4.46,4.46,0,0,1-1.44,1A4.24,4.24,0,0,1,197.43,73.57Zm0-1a3.35,3.35,0,0,0,1.76-.48,3.65,3.65,0,0,0,1.25-1.31,3.72,3.72,0,0,0,.46-1.84,3.64,3.64,0,0,0-.45-1.82,3.33,3.33,0,0,0-1.25-1.25,3.52,3.52,0,0,0-1.79-.44,3.39,3.39,0,0,0-3,1.73,3.5,3.5,0,0,0-.47,1.8,3.65,3.65,0,0,0,.47,1.84,3.41,3.41,0,0,0,3,1.77Z"/><path class="cls-1" d="M210.14,73.47a.68.68,0,0,1-.31-.06.29.29,0,0,1-.16-.18,1,1,0,0,1,0-.33v-8a.72.72,0,0,1,0-.29.33.33,0,0,1,.17-.16,1,1,0,0,1,.32,0,.52.52,0,0,1,.38.11.56.56,0,0,1,.11.38v1.14a2.13,2.13,0,0,1,.48-.7,3.15,3.15,0,0,1,.72-.52,3.65,3.65,0,0,1,.82-.34,3.51,3.51,0,0,1,.83-.11,2.75,2.75,0,0,1,2.18,1,4.26,4.26,0,0,1,.71,1.18,6.85,6.85,0,0,1,.88-1.24,2.93,2.93,0,0,1,1-.72,3.15,3.15,0,0,1,1.26-.24,3,3,0,0,1,1.8.53,3.29,3.29,0,0,1,1.07,1.48,6.36,6.36,0,0,1,.36,2.25v4.27a.76.76,0,0,1-.05.33.27.27,0,0,1-.16.17.69.69,0,0,1-.32,0,.75.75,0,0,1-.33-.06.26.26,0,0,1-.17-.18.76.76,0,0,1-.05-.33V68.63a5.41,5.41,0,0,0-.24-1.7,2.42,2.42,0,0,0-.71-1.14,1.8,1.8,0,0,0-1.24-.41,2.49,2.49,0,0,0-1.42.41,2.76,2.76,0,0,0-1,1.14,3.77,3.77,0,0,0-.36,1.7v4.31a.61.61,0,0,1-.12.39.56.56,0,0,1-.31.17.53.53,0,0,1-.33,0,.49.49,0,0,1-.19-.1.32.32,0,0,1-.1-.18,1.12,1.12,0,0,1,0-.27V68.63a5.41,5.41,0,0,0-.24-1.7,2.5,2.5,0,0,0-.71-1.14,1.8,1.8,0,0,0-1.24-.41,2.46,2.46,0,0,0-1.42.41,2.76,2.76,0,0,0-1,1.14,3.77,3.77,0,0,0-.36,1.7v4.29a1,1,0,0,1-.05.33.29.29,0,0,1-.17.17A.76.76,0,0,1,210.14,73.47Z"/><path class="cls-1" d="M229.93,73.53a5.26,5.26,0,0,1-1.9-.34,4.37,4.37,0,0,1-1.49-1,4.5,4.5,0,0,1-1-1.48,5.28,5.28,0,0,1-.34-1.91A4.24,4.24,0,0,1,227.46,65a5,5,0,0,1,2.4-.58,4.5,4.5,0,0,1,1.59.27,4.19,4.19,0,0,1,1.26.72,3.6,3.6,0,0,1,.83,1,2.76,2.76,0,0,1,.29,1.21A1.53,1.53,0,0,1,233.4,69a1.63,1.63,0,0,1-1,.33h-6a2.61,2.61,0,0,0,.51,1.73,3.59,3.59,0,0,0,1.36,1.11,3.88,3.88,0,0,0,1.67.39,6.6,6.6,0,0,0,1-.06,3.11,3.11,0,0,0,.71-.16,5,5,0,0,0,.5-.21l.38-.21a2.38,2.38,0,0,1,.32-.16.78.78,0,0,1,.22,0,.19.19,0,0,1,.18.11,1,1,0,0,1,.14.24.85.85,0,0,1,0,.23c0,.12-.15.27-.45.47a5.05,5.05,0,0,1-1.24.53A5.83,5.83,0,0,1,229.93,73.53Zm-3.55-5.13H232a1.52,1.52,0,0,0,.59-.09c.14,0,.21-.24.21-.56a1.88,1.88,0,0,0-.39-1.15,2.76,2.76,0,0,0-1-.84,3.4,3.4,0,0,0-1.52-.33,4.12,4.12,0,0,0-1.76.38,3.19,3.19,0,0,0-1.28,1.06A2.49,2.49,0,0,0,226.38,68.4Z"/><path class="cls-1" d="M240.31,73.49a4.37,4.37,0,0,1-1.65-.32,4,4,0,0,1-1.33-.93,4.49,4.49,0,0,1-.9-1.46,5.28,5.28,0,0,1-.32-1.87,5.09,5.09,0,0,1,.32-1.83,4.46,4.46,0,0,1,.9-1.43,4,4,0,0,1,1.33-.92,4.37,4.37,0,0,1,1.65-.32,4.53,4.53,0,0,1,1.71.32,4,4,0,0,1,1.35.93,4.34,4.34,0,0,1,.88,1.45,5.71,5.71,0,0,1,0,3.71,4.25,4.25,0,0,1-.88,1.43,4.1,4.1,0,0,1-1.35.92A4.53,4.53,0,0,1,240.31,73.49Zm.17-1a3.15,3.15,0,0,0,2.87-1.68,3.7,3.7,0,0,0,.44-1.83,3.82,3.82,0,0,0-.44-1.86,3.17,3.17,0,0,0-2.87-1.69,3.23,3.23,0,0,0-1.69.44,3.14,3.14,0,0,0-1.2,1.25,3.82,3.82,0,0,0-.44,1.86,3.7,3.7,0,0,0,.44,1.83,3.18,3.18,0,0,0,1.2,1.24A3.33,3.33,0,0,0,240.48,72.48Zm3.91,1a.54.54,0,0,1-.42-.13.61.61,0,0,1-.13-.44V60.82a1,1,0,0,1,0-.35.28.28,0,0,1,.17-.18.71.71,0,0,1,.31-.06.75.75,0,0,1,.33.06.33.33,0,0,1,.17.18.75.75,0,0,1,.06.33V72.9a1.06,1.06,0,0,1-.05.34.31.31,0,0,1-.16.19A.75.75,0,0,1,244.39,73.49Z"/><path class="cls-1" d="M248.61,61.69a1,1,0,0,1-.42-.07.54.54,0,0,1-.22-.25,1.37,1.37,0,0,1-.06-.44,1.21,1.21,0,0,1,.06-.42.45.45,0,0,1,.23-.22,1.27,1.27,0,0,1,.43-.06,1,1,0,0,1,.42.07.51.51,0,0,1,.22.24,1.36,1.36,0,0,1,.06.45,1.22,1.22,0,0,1-.06.41.49.49,0,0,1-.22.23A1.25,1.25,0,0,1,248.61,61.69Zm0,11.8a.68.68,0,0,1-.31-.06.3.3,0,0,1-.17-.18.76.76,0,0,1,0-.33V65a.76.76,0,0,1,0-.33.3.3,0,0,1,.17-.18,1,1,0,0,1,.33,0,.85.85,0,0,1,.32,0,.31.31,0,0,1,.16.19.81.81,0,0,1,0,.35v7.92a.76.76,0,0,1,0,.33.26.26,0,0,1-.17.17A1,1,0,0,1,248.61,73.49Z"/><path class="cls-1" d="M256.33,73.57a4.47,4.47,0,0,1-1.79-.36,5,5,0,0,1-1.47-1,4.51,4.51,0,0,1-1-1.47,4.42,4.42,0,0,1-.36-1.78,4.62,4.62,0,0,1,.35-1.8,4.39,4.39,0,0,1,1-1.46,4.72,4.72,0,0,1,1.46-1,4.56,4.56,0,0,1,1.78-.35,4.49,4.49,0,0,1,2.3.6,4.51,4.51,0,0,1,2.24,4,4.69,4.69,0,0,1-.35,1.82,4.76,4.76,0,0,1-1,1.47,4.46,4.46,0,0,1-1.44,1A4.24,4.24,0,0,1,256.33,73.57Zm0-1a3.29,3.29,0,0,0,1.75-.48,3.6,3.6,0,0,0,1.26-1.31,3.72,3.72,0,0,0,.46-1.84,3.64,3.64,0,0,0-.45-1.82,3.33,3.33,0,0,0-1.25-1.25,3.52,3.52,0,0,0-1.79-.44,3.39,3.39,0,0,0-3,1.73,3.5,3.5,0,0,0-.47,1.8,3.65,3.65,0,0,0,.47,1.84,3.41,3.41,0,0,0,3.05,1.77Z"/><path class="cls-1" d="M263.39,74.57a.14.14,0,0,1-.09-.08.37.37,0,0,1,0-.2.39.39,0,0,1,.13-.33.8.8,0,0,0,.38-.62.64.64,0,0,1-.22-.06.51.51,0,0,1-.16-.11.44.44,0,0,1-.11-.25c0-.1,0-.2,0-.3a2,2,0,0,1,0-.36.42.42,0,0,1,.18-.26.92.92,0,0,1,.51-.11.79.79,0,0,1,.59.18.38.38,0,0,1,.11.24,1.67,1.67,0,0,1,0,.32v.16a.39.39,0,0,1,0,.15,2.26,2.26,0,0,1-.21.8,1.92,1.92,0,0,1-.46.61A.94.94,0,0,1,263.39,74.57Z"/><path class="cls-1" d="M273.62,73.47a.68.68,0,0,1-.31-.06.29.29,0,0,1-.16-.18,1,1,0,0,1,0-.33v-8a.72.72,0,0,1,0-.29.33.33,0,0,1,.17-.16.93.93,0,0,1,.31,0,.49.49,0,0,1,.38.11.51.51,0,0,1,.12.38v1.14a2,2,0,0,1,.48-.7,3.15,3.15,0,0,1,.72-.52,3.65,3.65,0,0,1,.82-.34,3.51,3.51,0,0,1,.83-.11,2.7,2.7,0,0,1,1.22.27,2.85,2.85,0,0,1,1,.75,4.26,4.26,0,0,1,.71,1.18,6.85,6.85,0,0,1,.88-1.24,2.93,2.93,0,0,1,1-.72,3.15,3.15,0,0,1,1.26-.24,3,3,0,0,1,1.8.53,3.29,3.29,0,0,1,1.07,1.48,6.36,6.36,0,0,1,.36,2.25v4.27a1,1,0,0,1-.05.33.27.27,0,0,1-.16.17.69.69,0,0,1-.32,0,.75.75,0,0,1-.33-.06.29.29,0,0,1-.18-.18,1,1,0,0,1,0-.33V68.63a5.41,5.41,0,0,0-.24-1.7,2.5,2.5,0,0,0-.71-1.14,1.8,1.8,0,0,0-1.24-.41,2.49,2.49,0,0,0-1.42.41,2.76,2.76,0,0,0-1,1.14,3.77,3.77,0,0,0-.36,1.7v4.31a.56.56,0,0,1-.13.39.51.51,0,0,1-.3.17.53.53,0,0,1-.33,0,.49.49,0,0,1-.19-.1.42.42,0,0,1-.11-.18,1.14,1.14,0,0,1,0-.27V68.63a5.41,5.41,0,0,0-.24-1.7,2.5,2.5,0,0,0-.71-1.14,1.8,1.8,0,0,0-1.24-.41,2.46,2.46,0,0,0-1.42.41,2.76,2.76,0,0,0-1,1.14,3.77,3.77,0,0,0-.36,1.7v4.29a1,1,0,0,1-.05.33.29.29,0,0,1-.17.17A.79.79,0,0,1,273.62,73.47Z"/><path class="cls-1" d="M297.14,73.47a.46.46,0,0,1-.38-.13,1,1,0,0,1-.16-.5V71.57a3.76,3.76,0,0,1-.65.81,3.92,3.92,0,0,1-1.16.78,4.06,4.06,0,0,1-1.72.33,4.26,4.26,0,0,1-1.72-.35,4.46,4.46,0,0,1-1.38-1,4.65,4.65,0,0,1-.92-1.45,4.8,4.8,0,0,1-.33-1.8,4.57,4.57,0,0,1,.33-1.74,4.47,4.47,0,0,1,2.32-2.39,4,4,0,0,1,1.7-.35,4.32,4.32,0,0,1,1.53.23,3.8,3.8,0,0,1,1.12.62,5.56,5.56,0,0,1,.88.93V65.13a.93.93,0,0,1,.13-.54.49.49,0,0,1,.43-.16.6.6,0,0,1,.29.06.4.4,0,0,1,.15.22,1.5,1.5,0,0,1,0,.42v7.71a1.18,1.18,0,0,1,0,.37.28.28,0,0,1-.16.2A.67.67,0,0,1,297.14,73.47Zm-3.86-1a3,3,0,0,0,1.65-.46,3.29,3.29,0,0,0,1.18-1.27,3.74,3.74,0,0,0,.44-1.82,3.66,3.66,0,0,0-.46-1.88,3.35,3.35,0,0,0-1.2-1.25,3.26,3.26,0,0,0-1.65-.44,3.47,3.47,0,0,0-1.82.47,3.41,3.41,0,0,0-1.22,1.28,3.87,3.87,0,0,0-.44,1.86,3.69,3.69,0,0,0,.44,1.8,3.2,3.2,0,0,0,1.24,1.26A3.66,3.66,0,0,0,293.28,72.5Z"/><path class="cls-1" d="M301.11,73.47a.68.68,0,0,1-.31-.06.29.29,0,0,1-.16-.18,1,1,0,0,1-.05-.33v-8a.72.72,0,0,1,.05-.29.33.33,0,0,1,.17-.16,1,1,0,0,1,.32,0,.73.73,0,0,1,.22,0,.27.27,0,0,1,.16.08.53.53,0,0,1,.08.15.8.8,0,0,1,0,.23V66a6.27,6.27,0,0,1,.55-.62,4.56,4.56,0,0,1,.68-.53,3.15,3.15,0,0,1,.81-.37,3.46,3.46,0,0,1,1-.13,3.9,3.9,0,0,1,1.51.28,3.39,3.39,0,0,1,1.21.79,3.71,3.71,0,0,1,.8,1.28,4.81,4.81,0,0,1,.28,1.72v4.46a1,1,0,0,1,0,.33.27.27,0,0,1-.16.17.69.69,0,0,1-.32,0,.75.75,0,0,1-.33-.06.29.29,0,0,1-.18-.18,1,1,0,0,1,0-.33V68.44a3.87,3.87,0,0,0-.31-1.62,2.3,2.3,0,0,0-.91-1.06,2.79,2.79,0,0,0-1.54-.38,3,3,0,0,0-1.57.38,2.57,2.57,0,0,0-1,1.06,3.46,3.46,0,0,0-.36,1.62v4.48a1,1,0,0,1-.05.33.29.29,0,0,1-.17.17A.76.76,0,0,1,301.11,73.47Z"/><path class="cls-1" d="M311.22,64.67l1.69,0,2.64,0a1,1,0,0,1,.33,0,.35.35,0,0,1,.18.16.68.68,0,0,1,.06.31,1,1,0,0,1-.05.33.3.3,0,0,1-.16.17.93.93,0,0,1-.32,0l-2.68,0-1.73,0a.57.57,0,0,1-.42-.12.63.63,0,0,1-.11-.43.49.49,0,0,1,.13-.4A.64.64,0,0,1,311.22,64.67Zm4.21,8.82a5.81,5.81,0,0,1-1.43-.15,2.15,2.15,0,0,1-.94-.48,1.73,1.73,0,0,1-.51-.86,4.68,4.68,0,0,1-.16-1.34V61.92a1,1,0,0,1,.05-.35.32.32,0,0,1,.16-.18.68.68,0,0,1,.31-.06,1,1,0,0,1,.33.05.31.31,0,0,1,.18.16.7.7,0,0,1,.06.32V70.7a3.46,3.46,0,0,0,.1.94,1,1,0,0,0,.32.52,1.26,1.26,0,0,0,.6.22,7.9,7.9,0,0,0,.91.05,1.15,1.15,0,0,1,.36,0,.4.4,0,0,1,.18.16A1,1,0,0,1,316,73a.85.85,0,0,1-.05.32.31.31,0,0,1-.18.16A1.06,1.06,0,0,1,315.43,73.49Z"/><path class="cls-1" d="M322.61,73.53a5.26,5.26,0,0,1-1.9-.34,4.37,4.37,0,0,1-1.49-1,4.5,4.5,0,0,1-1-1.48,5.28,5.28,0,0,1-.34-1.91A4.24,4.24,0,0,1,320.14,65a5,5,0,0,1,2.4-.58,4.5,4.5,0,0,1,1.59.27,4.19,4.19,0,0,1,1.26.72,3.6,3.6,0,0,1,.83,1,2.76,2.76,0,0,1,.29,1.21,1.53,1.53,0,0,1-.43,1.27,1.63,1.63,0,0,1-1,.33h-6a2.61,2.61,0,0,0,.51,1.73,3.59,3.59,0,0,0,1.36,1.11,3.88,3.88,0,0,0,1.67.39,6.85,6.85,0,0,0,1-.06,3.15,3.15,0,0,0,.7-.16,5,5,0,0,0,.5-.21l.38-.21a2.38,2.38,0,0,1,.32-.16.78.78,0,0,1,.22,0,.19.19,0,0,1,.18.11,1,1,0,0,1,.14.24.85.85,0,0,1,0,.23c0,.12-.15.27-.45.47a5.05,5.05,0,0,1-1.24.53A5.83,5.83,0,0,1,322.61,73.53Zm-3.55-5.13h5.66a1.52,1.52,0,0,0,.59-.09c.14,0,.21-.24.21-.56a1.88,1.88,0,0,0-.39-1.15,2.76,2.76,0,0,0-1.05-.84,3.4,3.4,0,0,0-1.52-.33,4.12,4.12,0,0,0-1.76.38,3.19,3.19,0,0,0-1.28,1.06A2.49,2.49,0,0,0,319.06,68.4Z"/><path class="cls-1" d="M329.59,73.47a.68.68,0,0,1-.31-.06.29.29,0,0,1-.16-.18,1,1,0,0,1-.05-.33v-8a.72.72,0,0,1,.05-.29.33.33,0,0,1,.17-.16,1,1,0,0,1,.32,0,.69.69,0,0,1,.22,0,.27.27,0,0,1,.16.08.53.53,0,0,1,.08.15.8.8,0,0,1,0,.23V66a7.88,7.88,0,0,1,.55-.62,4.56,4.56,0,0,1,.68-.53,3.15,3.15,0,0,1,.81-.37,3.46,3.46,0,0,1,1-.13,3.9,3.9,0,0,1,1.51.28,3.39,3.39,0,0,1,1.21.79,3.71,3.71,0,0,1,.8,1.28,4.81,4.81,0,0,1,.28,1.72v4.46a1,1,0,0,1-.05.33.27.27,0,0,1-.16.17.69.69,0,0,1-.32,0,.75.75,0,0,1-.33-.06.26.26,0,0,1-.17-.18.76.76,0,0,1-.05-.33V68.44a3.87,3.87,0,0,0-.31-1.62,2.3,2.3,0,0,0-.91-1.06,2.79,2.79,0,0,0-1.54-.38,3,3,0,0,0-1.57.38,2.57,2.57,0,0,0-1,1.06,3.46,3.46,0,0,0-.36,1.62v4.48a1,1,0,0,1-.05.33.29.29,0,0,1-.17.17A.76.76,0,0,1,329.59,73.47Z"/><path class="cls-1" d="M340.49,61.69a.94.94,0,0,1-.41-.07.45.45,0,0,1-.22-.25,1.13,1.13,0,0,1-.07-.44,1,1,0,0,1,.07-.42.41.41,0,0,1,.23-.22,1.21,1.21,0,0,1,.42-.06,1,1,0,0,1,.42.07.51.51,0,0,1,.22.24,1.32,1.32,0,0,1,.07.45,1.21,1.21,0,0,1-.07.41.49.49,0,0,1-.22.23A1.25,1.25,0,0,1,340.49,61.69Zm0,11.8a.71.71,0,0,1-.31-.06.3.3,0,0,1-.17-.18,1,1,0,0,1-.05-.33V65a1,1,0,0,1,.05-.33.3.3,0,0,1,.17-.18,1,1,0,0,1,.33,0,1,1,0,0,1,.33,0,.34.34,0,0,1,.16.19,1,1,0,0,1,0,.35v7.92a1,1,0,0,1,0,.33.29.29,0,0,1-.17.17A1.06,1.06,0,0,1,340.49,73.49Z"/><path class="cls-1" d="M348.38,73.53a5.32,5.32,0,0,1-1.91-.34,4.33,4.33,0,0,1-1.48-1,4.5,4.5,0,0,1-1-1.48,5.07,5.07,0,0,1-.34-1.91,4.28,4.28,0,0,1,.58-2.22A4.34,4.34,0,0,1,345.91,65a4.89,4.89,0,0,1,2.39-.58,4.51,4.51,0,0,1,1.6.27,4.14,4.14,0,0,1,1.25.72,3.44,3.44,0,0,1,.83,1,2.63,2.63,0,0,1,.29,1.21,1.56,1.56,0,0,1-.42,1.27,1.66,1.66,0,0,1-1,.33h-6a2.61,2.61,0,0,0,.5,1.73,3.62,3.62,0,0,0,1.37,1.11,3.84,3.84,0,0,0,1.66.39,6.65,6.65,0,0,0,1-.06,3,3,0,0,0,.7-.16,4.42,4.42,0,0,0,.51-.21l.38-.21a1.91,1.91,0,0,1,.32-.16.69.69,0,0,1,.22,0,.22.22,0,0,1,.18.11,1.47,1.47,0,0,1,.13.24.59.59,0,0,1,0,.23c0,.12-.15.27-.46.47a4.8,4.8,0,0,1-1.23.53A5.88,5.88,0,0,1,348.38,73.53Zm-3.55-5.13h5.66a1.55,1.55,0,0,0,.59-.09c.14,0,.21-.24.21-.56a1.88,1.88,0,0,0-.39-1.15,2.79,2.79,0,0,0-1.06-.84,3.37,3.37,0,0,0-1.52-.33,4.15,4.15,0,0,0-1.76.38,3.34,3.34,0,0,0-1.28,1.06A2.42,2.42,0,0,0,344.83,68.4Z"/><path class="cls-1" d="M355.35,73.47a.61.61,0,0,1-.3-.06.26.26,0,0,1-.16-.18.76.76,0,0,1-.05-.33v-8a.58.58,0,0,1,.05-.29.3.3,0,0,1,.17-.16.9.9,0,0,1,.31,0,.75.75,0,0,1,.23,0,.28.28,0,0,1,.15.08.38.38,0,0,1,.09.15,1.52,1.52,0,0,1,0,.23V66a6.4,6.4,0,0,1,.56-.62,4.47,4.47,0,0,1,.67-.53,3.21,3.21,0,0,1,.82-.37,3.39,3.39,0,0,1,1-.13,3.9,3.9,0,0,1,1.51.28,3.3,3.3,0,0,1,1.21.79,3.71,3.71,0,0,1,.8,1.28,4.81,4.81,0,0,1,.28,1.72v4.46a1,1,0,0,1,0,.33.3.3,0,0,1-.16.17.76.76,0,0,1-.33,0,.75.75,0,0,1-.33-.06.28.28,0,0,1-.17-.18,1,1,0,0,1-.05-.33V68.44a4,4,0,0,0-.3-1.62,2.42,2.42,0,0,0-.91-1.06,2.82,2.82,0,0,0-1.54-.38,3.06,3.06,0,0,0-1.58.38,2.63,2.63,0,0,0-1,1.06,3.46,3.46,0,0,0-.36,1.62v4.48a.76.76,0,0,1,0,.33.26.26,0,0,1-.17.17A.76.76,0,0,1,355.35,73.47Z"/><path class="cls-1" d="M369.56,73.49a4.28,4.28,0,0,1-1.64-.32,4,4,0,0,1-1.34-.93,4.31,4.31,0,0,1-.89-1.46,5.06,5.06,0,0,1-.33-1.87,4.89,4.89,0,0,1,.33-1.83,4.27,4.27,0,0,1,.89-1.43,4,4,0,0,1,1.34-.92,4.28,4.28,0,0,1,1.64-.32,4.53,4.53,0,0,1,1.71.32,4,4,0,0,1,1.35.93,4.36,4.36,0,0,1,.89,1.45,5.71,5.71,0,0,1,0,3.71,4.27,4.27,0,0,1-.89,1.43,4.1,4.1,0,0,1-1.35.92A4.53,4.53,0,0,1,369.56,73.49Zm.17-1a3.31,3.31,0,0,0,1.7-.44,3.25,3.25,0,0,0,1.17-1.24A3.7,3.7,0,0,0,373,69a3.82,3.82,0,0,0-.44-1.86,3.16,3.16,0,0,0-1.18-1.25,3.47,3.47,0,0,0-3.38,0,3.19,3.19,0,0,0-1.19,1.25,3.82,3.82,0,0,0-.44,1.86,3.7,3.7,0,0,0,.44,1.83A3.23,3.23,0,0,0,368,72,3.35,3.35,0,0,0,369.73,72.48Zm3.92,1a.57.57,0,0,1-.43-.13.66.66,0,0,1-.12-.44V60.82a1.08,1.08,0,0,1,0-.35.29.29,0,0,1,.18-.18.68.68,0,0,1,.31-.06.67.67,0,0,1,.32.06.28.28,0,0,1,.17.18.75.75,0,0,1,.06.33V72.9a1.06,1.06,0,0,1-.05.34.28.28,0,0,1-.16.19A.67.67,0,0,1,373.65,73.49Z"/><path class="cls-1" d="M381.21,73.57a4.51,4.51,0,0,1-1.79-.36,5.28,5.28,0,0,1-1.47-1,4.67,4.67,0,0,1-1-1.47,4.42,4.42,0,0,1-.36-1.78,4.62,4.62,0,0,1,.35-1.8,4.72,4.72,0,0,1,1-1.46,4.88,4.88,0,0,1,1.47-1,4.54,4.54,0,0,1,1.77-.35,4.5,4.5,0,0,1,3.94,2.23,4.62,4.62,0,0,1,.6,2.35,4.51,4.51,0,0,1-.35,1.82,4.59,4.59,0,0,1-1,1.47,4.53,4.53,0,0,1-1.43,1A4.32,4.32,0,0,1,381.21,73.57Zm0-1a3.32,3.32,0,0,0,1.76-.48,3.57,3.57,0,0,0,1.25-1.31,3.73,3.73,0,0,0,.47-1.84,3.54,3.54,0,0,0-.46-1.82A3.31,3.31,0,0,0,383,65.84a3.58,3.58,0,0,0-1.8-.44,3.42,3.42,0,0,0-3,1.73,3.5,3.5,0,0,0-.46,1.8,3.64,3.64,0,0,0,.46,1.84,3.44,3.44,0,0,0,3.05,1.77Z"/><path class="cls-1" d="M3.17,98.49a4.08,4.08,0,0,1-1-.11A2.35,2.35,0,0,1,1.46,98a2.1,2.1,0,0,1-.54-.57,2.34,2.34,0,0,1-.32-.79,4.53,4.53,0,0,1-.11-1V85.78a1,1,0,0,1,.05-.35.33.33,0,0,1,.17-.18A.73.73,0,0,1,1,85.19a1,1,0,0,1,.33,0,.31.31,0,0,1,.18.16.7.7,0,0,1,.06.32v10a2.65,2.65,0,0,0,.09.73A1.3,1.3,0,0,0,2,97a1.2,1.2,0,0,0,.5.32,2,2,0,0,0,.67.11.81.81,0,0,1,.35,0,.26.26,0,0,1,.18.17.94.94,0,0,1,0,.66.28.28,0,0,1-.18.17A1,1,0,0,1,3.17,98.49Z"/><path class="cls-1" d="M10.07,98.57a4.51,4.51,0,0,1-1.79-.36,5.28,5.28,0,0,1-1.47-1,4.67,4.67,0,0,1-1-1.47A4.42,4.42,0,0,1,5.45,94a4.62,4.62,0,0,1,.35-1.8,4.72,4.72,0,0,1,1-1.46,4.84,4.84,0,0,1,1.46-1A4.63,4.63,0,0,1,10,89.37,4.47,4.47,0,0,1,14,91.6a4.86,4.86,0,0,1,.26,4.17,4.59,4.59,0,0,1-1,1.47,4.53,4.53,0,0,1-1.43,1A4.32,4.32,0,0,1,10.07,98.57Zm0-1a3.32,3.32,0,0,0,1.76-.48A3.65,3.65,0,0,0,13,95.75a3.73,3.73,0,0,0,.47-1.84,3.54,3.54,0,0,0-.46-1.82,3.31,3.31,0,0,0-1.24-1.25A3.58,3.58,0,0,0,10,90.4a3.42,3.42,0,0,0-3,1.73,3.5,3.5,0,0,0-.46,1.8A3.64,3.64,0,0,0,7,95.77a3.44,3.44,0,0,0,3,1.77Z"/><path class="cls-1" d="M19.91,98.55a4.46,4.46,0,0,1-.88-.09,4.75,4.75,0,0,1-.86-.25,3.77,3.77,0,0,1-.75-.38,1.75,1.75,0,0,1-.74-.8.31.31,0,0,1,0-.25.44.44,0,0,1,.18-.21.46.46,0,0,1,.4-.19,1.24,1.24,0,0,1,.5.36,1.53,1.53,0,0,0,.43.35,3.77,3.77,0,0,0,.57.28,3.48,3.48,0,0,0,.61.17,2.91,2.91,0,0,0,.57.06,3.13,3.13,0,0,0,1.69-.41,1.26,1.26,0,0,0,.65-1.11,1.47,1.47,0,0,0-.14-.64,1.16,1.16,0,0,0-.36-.46,2.46,2.46,0,0,0-.52-.34,4.91,4.91,0,0,0-.65-.24l-.71-.2q-.53-.14-1.05-.3a4.24,4.24,0,0,1-.94-.41,2,2,0,0,1-.68-.64,1.89,1.89,0,0,1-.25-1,2.1,2.1,0,0,1,.37-1.25,2.4,2.4,0,0,1,1-.84,3.74,3.74,0,0,1,1.54-.3,5.36,5.36,0,0,1,.82.06,3.9,3.9,0,0,1,.71.2,4.65,4.65,0,0,1,.63.32,3.57,3.57,0,0,1,.54.42.75.75,0,0,1,.25.38.5.5,0,0,1-.14.36.54.54,0,0,1-.36.22.48.48,0,0,1-.4-.18,2.77,2.77,0,0,0-.63-.48,3.7,3.7,0,0,0-.69-.28,2.92,2.92,0,0,0-.73-.09,2.57,2.57,0,0,0-1,.18,1.52,1.52,0,0,0-.67.51,1.28,1.28,0,0,0-.24.77.85.85,0,0,0,.16.54,1.3,1.3,0,0,0,.43.37,3.72,3.72,0,0,0,.63.27l.76.23,1.16.33a4.53,4.53,0,0,1,1.07.48,2.39,2.39,0,0,1,.79.76,2.3,2.3,0,0,1,.3,1.24,2.12,2.12,0,0,1-1,1.82A4.07,4.07,0,0,1,19.91,98.55Z"/><path class="cls-1" d="M35.21,98.49a4.33,4.33,0,0,1-1.65-.32,4,4,0,0,1-1.34-.93,4.47,4.47,0,0,1-.89-1.46A5.06,5.06,0,0,1,31,93.91a4.89,4.89,0,0,1,.32-1.83,4.44,4.44,0,0,1,.89-1.43,4,4,0,0,1,1.34-.92,4.33,4.33,0,0,1,1.65-.32,4.53,4.53,0,0,1,1.71.32,4,4,0,0,1,1.35.93,4.51,4.51,0,0,1,.88,1.45,5.71,5.71,0,0,1,0,3.71,4.41,4.41,0,0,1-.88,1.43,4.1,4.1,0,0,1-1.35.92A4.53,4.53,0,0,1,35.21,98.49Zm.17-1A3.3,3.3,0,0,0,37.07,97a3.35,3.35,0,0,0,1.18-1.24A3.7,3.7,0,0,0,38.68,94a3.81,3.81,0,0,0-.43-1.86,3.26,3.26,0,0,0-1.19-1.25,3.19,3.19,0,0,0-1.68-.44,3.23,3.23,0,0,0-1.69.44,3.14,3.14,0,0,0-1.2,1.25A3.82,3.82,0,0,0,32.05,94a3.7,3.7,0,0,0,.44,1.83A3.18,3.18,0,0,0,33.69,97,3.33,3.33,0,0,0,35.38,97.48Zm3.91,1a.58.58,0,0,1-.43-.13.66.66,0,0,1-.12-.44V85.82a1,1,0,0,1,0-.35.28.28,0,0,1,.17-.18.71.71,0,0,1,.31-.06.75.75,0,0,1,.33.06.33.33,0,0,1,.17.18,1,1,0,0,1,0,.33V97.9a1.09,1.09,0,0,1,0,.34.32.32,0,0,1-.17.19A.67.67,0,0,1,39.29,98.49Z"/><path class="cls-1" d="M47,98.53a5.36,5.36,0,0,1-1.91-.34,4.42,4.42,0,0,1-1.48-1,4.5,4.5,0,0,1-1-1.48,5.07,5.07,0,0,1-.34-1.91A4.24,4.24,0,0,1,44.55,90a5,5,0,0,1,2.4-.58,4.5,4.5,0,0,1,1.59.27,4.32,4.32,0,0,1,1.26.72,3.41,3.41,0,0,1,.82,1,2.64,2.64,0,0,1,.3,1.21A1.53,1.53,0,0,1,50.49,94a1.63,1.63,0,0,1-1,.33h-6A2.61,2.61,0,0,0,44,96a3.62,3.62,0,0,0,1.37,1.11,3.87,3.87,0,0,0,1.66.39,6.65,6.65,0,0,0,1-.06,3.11,3.11,0,0,0,.71-.16,5,5,0,0,0,.5-.21l.38-.21a1.91,1.91,0,0,1,.32-.16.78.78,0,0,1,.22,0,.22.22,0,0,1,.18.11,1,1,0,0,1,.14.24.85.85,0,0,1,0,.23c0,.12-.15.27-.45.47a5.05,5.05,0,0,1-1.24.53A5.83,5.83,0,0,1,47,98.53ZM43.47,93.4h5.66a1.52,1.52,0,0,0,.59-.09c.14,0,.21-.24.21-.56a1.88,1.88,0,0,0-.39-1.15,2.76,2.76,0,0,0-1-.84A3.4,3.4,0,0,0,47,90.43a4.12,4.12,0,0,0-1.76.38,3.19,3.19,0,0,0-1.28,1.06A2.49,2.49,0,0,0,43.47,93.4Z"/><path class="cls-1" d="M57.4,98.49a4.33,4.33,0,0,1-1.65-.32,4,4,0,0,1-1.34-.93,4.47,4.47,0,0,1-.89-1.46,5.28,5.28,0,0,1-.32-1.87,5.09,5.09,0,0,1,.32-1.83,4.44,4.44,0,0,1,.89-1.43,4,4,0,0,1,1.34-.92,4.33,4.33,0,0,1,1.65-.32,4.53,4.53,0,0,1,1.71.32,4,4,0,0,1,1.35.93,4.34,4.34,0,0,1,.88,1.45,5.71,5.71,0,0,1,0,3.71,4.25,4.25,0,0,1-.88,1.43,4.1,4.1,0,0,1-1.35.92A4.53,4.53,0,0,1,57.4,98.49Zm.17-1a3.15,3.15,0,0,0,2.87-1.68A3.7,3.7,0,0,0,60.87,94a3.81,3.81,0,0,0-.43-1.86,3.17,3.17,0,0,0-2.87-1.69,3.23,3.23,0,0,0-1.69.44,3.14,3.14,0,0,0-1.2,1.25A3.82,3.82,0,0,0,54.24,94a3.7,3.7,0,0,0,.44,1.83A3.18,3.18,0,0,0,55.88,97,3.33,3.33,0,0,0,57.57,97.48Zm3.91,1a.54.54,0,0,1-.42-.13.61.61,0,0,1-.13-.44V85.82a1,1,0,0,1,0-.35.28.28,0,0,1,.17-.18.71.71,0,0,1,.31-.06.75.75,0,0,1,.33.06.33.33,0,0,1,.17.18.76.76,0,0,1,0,.33V97.9a1.09,1.09,0,0,1,0,.34.31.31,0,0,1-.16.19A.75.75,0,0,1,61.48,98.49Z"/><path class="cls-1" d="M69,98.57a4.46,4.46,0,0,1-1.78-.36,5,5,0,0,1-1.47-1,4.51,4.51,0,0,1-1-1.47,4.56,4.56,0,0,1,1-5,4.72,4.72,0,0,1,1.46-1A4.56,4.56,0,0,1,69,89.37a4.47,4.47,0,0,1,3.93,2.23A4.62,4.62,0,0,1,73.55,94a4.69,4.69,0,0,1-.35,1.82,4.76,4.76,0,0,1-1,1.47,4.46,4.46,0,0,1-1.44,1A4.28,4.28,0,0,1,69,98.57Zm0-1a3.29,3.29,0,0,0,1.75-.48A3.6,3.6,0,0,0,72,95.75a3.72,3.72,0,0,0,.46-1.84A3.64,3.64,0,0,0,72,92.09a3.33,3.33,0,0,0-1.25-1.25A3.52,3.52,0,0,0,69,90.4a3.45,3.45,0,0,0-1.78.46A3.39,3.39,0,0,0,66,92.13a3.5,3.5,0,0,0-.47,1.8A3.65,3.65,0,0,0,66,95.77,3.41,3.41,0,0,0,69,97.54Z"/><path class="cls-1" d="M78.89,98.55a4.48,4.48,0,0,1-.89-.09,4.89,4.89,0,0,1-.85-.25,3.77,3.77,0,0,1-.75-.38,2,2,0,0,1-.55-.48,1.46,1.46,0,0,1-.19-.32.31.31,0,0,1,0-.25.44.44,0,0,1,.18-.21.46.46,0,0,1,.4-.19,1.23,1.23,0,0,1,.49.36,1.58,1.58,0,0,0,.44.35,3,3,0,0,0,.57.28,3.25,3.25,0,0,0,.61.17,2.91,2.91,0,0,0,.57.06,3.16,3.16,0,0,0,1.69-.41,1.25,1.25,0,0,0,.64-1.11,1.47,1.47,0,0,0-.13-.64,1.37,1.37,0,0,0-.36-.46,2.75,2.75,0,0,0-.52-.34,5.49,5.49,0,0,0-.65-.24l-.71-.2c-.36-.09-.71-.19-1.06-.3a4.24,4.24,0,0,1-.94-.41,2,2,0,0,1-.67-.64,1.89,1.89,0,0,1-.26-1,2.1,2.1,0,0,1,.37-1.25,2.43,2.43,0,0,1,1-.84,3.68,3.68,0,0,1,1.54-.3,5.13,5.13,0,0,1,.81.06A3.52,3.52,0,0,1,81,90a2.79,2.79,0,0,1,.54.42.64.64,0,0,1,.25.38.49.49,0,0,1-.13.36.59.59,0,0,1-.36.22.47.47,0,0,1-.4-.18,2.82,2.82,0,0,0-.64-.48,3.61,3.61,0,0,0-.68-.28,3,3,0,0,0-.73-.09,2.57,2.57,0,0,0-1,.18,1.55,1.55,0,0,0-.68.51,1.34,1.34,0,0,0-.23.77.85.85,0,0,0,.16.54,1.3,1.3,0,0,0,.43.37,3.29,3.29,0,0,0,.62.27l.76.23,1.16.33a4.53,4.53,0,0,1,1.07.48,2.3,2.3,0,0,1,.79.76A2.21,2.21,0,0,1,82.29,96a2.12,2.12,0,0,1-1,1.82A4.09,4.09,0,0,1,78.89,98.55Z"/><path class="cls-1" d="M90.78,98.49a.61.61,0,0,1-.3-.06.32.32,0,0,1-.17-.19,1.09,1.09,0,0,1,0-.34V90a1.08,1.08,0,0,1,0-.35.29.29,0,0,1,.17-.17,1.27,1.27,0,0,1,.32,0,1.3,1.3,0,0,1,.31,0,.28.28,0,0,1,.18.17.82.82,0,0,1,.06.35v.8c.13-.22.25-.41.38-.59a2.05,2.05,0,0,1,.46-.47,1.87,1.87,0,0,1,.65-.31,3.4,3.4,0,0,1,1-.12,2.47,2.47,0,0,1,.56.06,3.37,3.37,0,0,1,.48.15l.37.21a.94.94,0,0,1,.22.23.43.43,0,0,1,.08.23.54.54,0,0,1-.21.42.64.64,0,0,1-.38.17.53.53,0,0,1-.31-.07,2.39,2.39,0,0,1-.22-.16,1,1,0,0,0-.34-.16,2.49,2.49,0,0,0-.71-.07,1.88,1.88,0,0,0-.62.12,2.71,2.71,0,0,0-.66.37,2,2,0,0,0-.52.65,2,2,0,0,0-.21,1v5.55a1,1,0,0,1,0,.33.29.29,0,0,1-.17.17A1,1,0,0,1,90.78,98.49Z"/><path class="cls-1" d="M102.22,98.53a5.28,5.28,0,0,1-1.91-.34,4.33,4.33,0,0,1-1.48-1,4.21,4.21,0,0,1-1-1.48,5.08,5.08,0,0,1-.35-1.91,4.28,4.28,0,0,1,.59-2.22A4.34,4.34,0,0,1,99.75,90a4.89,4.89,0,0,1,2.39-.58,4.55,4.55,0,0,1,1.6.27,4.14,4.14,0,0,1,1.25.72,3.44,3.44,0,0,1,.83,1,2.76,2.76,0,0,1,.29,1.21,1.56,1.56,0,0,1-.42,1.27,1.66,1.66,0,0,1-1,.33h-6A2.67,2.67,0,0,0,99.17,96a3.62,3.62,0,0,0,1.37,1.11,3.84,3.84,0,0,0,1.66.39,6.65,6.65,0,0,0,1-.06,3.15,3.15,0,0,0,.7-.16,3.59,3.59,0,0,0,.5-.21l.39-.21a1.91,1.91,0,0,1,.32-.16.69.69,0,0,1,.22,0,.22.22,0,0,1,.18.11,1.47,1.47,0,0,1,.13.24.85.85,0,0,1,0,.23c0,.12-.15.27-.46.47a4.8,4.8,0,0,1-1.23.53A5.88,5.88,0,0,1,102.22,98.53ZM98.66,93.4h5.67a1.55,1.55,0,0,0,.59-.09c.14,0,.2-.24.2-.56a1.87,1.87,0,0,0-.38-1.15,2.79,2.79,0,0,0-1.06-.84,3.37,3.37,0,0,0-1.52-.33,4.15,4.15,0,0,0-1.76.38,3.26,3.26,0,0,0-1.28,1.06A2.49,2.49,0,0,0,98.66,93.4Z"/><path class="cls-1" d="M111.17,98.49a4,4,0,0,1-1-.11,2.16,2.16,0,0,1-.75-.35,1.84,1.84,0,0,1-.54-.57,2.35,2.35,0,0,1-.33-.79,4.55,4.55,0,0,1-.1-1V85.78a.84.84,0,0,1,.05-.35.3.3,0,0,1,.17-.18.68.68,0,0,1,.31-.06,1,1,0,0,1,.33,0,.29.29,0,0,1,.18.16.7.7,0,0,1,.06.32v10a2.65,2.65,0,0,0,.09.73,1.44,1.44,0,0,0,.3.53,1.16,1.16,0,0,0,.49.32,2,2,0,0,0,.68.11.84.84,0,0,1,.35,0,.3.3,0,0,1,.18.17.94.94,0,0,1,0,.66.33.33,0,0,1-.18.17A1,1,0,0,1,111.17,98.49Z"/><path class="cls-1" d="M122,98.47a.46.46,0,0,1-.38-.13.89.89,0,0,1-.15-.5V96.57a4.19,4.19,0,0,1-.66.81,3.92,3.92,0,0,1-1.16.78,4.06,4.06,0,0,1-1.72.33,4.12,4.12,0,0,1-3.09-1.33,4.68,4.68,0,0,1-.93-1.45,4.8,4.8,0,0,1-.33-1.8,4.4,4.4,0,0,1,1.27-3.16,4.31,4.31,0,0,1,1.38-1,4.08,4.08,0,0,1,1.7-.35,4.32,4.32,0,0,1,1.53.23,3.68,3.68,0,0,1,1.12.62,5.62,5.62,0,0,1,.89.93V90.13a.94.94,0,0,1,.12-.54.5.5,0,0,1,.43-.16.6.6,0,0,1,.29.06.4.4,0,0,1,.15.22,1.2,1.2,0,0,1,0,.42v7.71a.94.94,0,0,1,0,.37.28.28,0,0,1-.16.2A.61.61,0,0,1,122,98.47Zm-3.86-1a3,3,0,0,0,1.65-.46,3.29,3.29,0,0,0,1.18-1.27,3.74,3.74,0,0,0,.44-1.82,3.66,3.66,0,0,0-.46-1.88,3.35,3.35,0,0,0-1.2-1.25,3.23,3.23,0,0,0-1.65-.44,3.32,3.32,0,0,0-3,1.75,3.87,3.87,0,0,0-.43,1.86,3.69,3.69,0,0,0,.43,1.8,3.33,3.33,0,0,0,1.24,1.26A3.69,3.69,0,0,0,118.1,97.5Z"/><path class="cls-1" d="M123.23,102.08a.79.79,0,0,1-.32-.06.32.32,0,0,1-.19-.17.78.78,0,0,1,0-.6.37.37,0,0,1,.19-.18,1.06,1.06,0,0,1,.34,0,5.24,5.24,0,0,0,1-.09,1.84,1.84,0,0,0,.81-.34,1.72,1.72,0,0,0,.53-.75,3.82,3.82,0,0,0,.19-1.29V90a.78.78,0,0,1,0-.3.37.37,0,0,1,.19-.18.87.87,0,0,1,.31,0,.78.78,0,0,1,.3,0,.35.35,0,0,1,.17.19.88.88,0,0,1,.06.35v8.49a4.43,4.43,0,0,1-.26,1.63,2.66,2.66,0,0,1-.73,1.11,2.76,2.76,0,0,1-1.14.63A5.29,5.29,0,0,1,123.23,102.08Zm3.06-15.39a.72.72,0,0,1-.55-.17.89.89,0,0,1-.15-.59.79.79,0,0,1,.15-.55.81.81,0,0,1,.57-.15.72.72,0,0,1,.55.17A.89.89,0,0,1,127,86a.79.79,0,0,1-.15.54A.76.76,0,0,1,126.29,86.69Z"/><path class="cls-1" d="M138.15,98.47a.46.46,0,0,1-.38-.13,1,1,0,0,1-.16-.5V96.57a4,4,0,0,1-3.53,1.92,4.26,4.26,0,0,1-1.72-.35,4.34,4.34,0,0,1-1.38-1,4.65,4.65,0,0,1-.92-1.45,4.8,4.8,0,0,1-.33-1.8,4.57,4.57,0,0,1,.33-1.74,4.47,4.47,0,0,1,2.32-2.39,4,4,0,0,1,1.7-.35,4.36,4.36,0,0,1,1.53.23,3.8,3.8,0,0,1,1.12.62,5.56,5.56,0,0,1,.88.93V90.13a.86.86,0,0,1,.13-.54.48.48,0,0,1,.42-.16.61.61,0,0,1,.3.06.4.4,0,0,1,.15.22,1.5,1.5,0,0,1,0,.42v7.71a1.18,1.18,0,0,1,0,.37.28.28,0,0,1-.16.2A.67.67,0,0,1,138.15,98.47Zm-3.86-1a3,3,0,0,0,1.65-.46,3.29,3.29,0,0,0,1.18-1.27,4,4,0,0,0,0-3.7,3.38,3.38,0,0,0-1.21-1.25,3.2,3.2,0,0,0-1.64-.44,3.47,3.47,0,0,0-1.82.47,3.41,3.41,0,0,0-1.22,1.28,3.87,3.87,0,0,0-.44,1.86,3.69,3.69,0,0,0,.44,1.8,3.2,3.2,0,0,0,1.24,1.26A3.66,3.66,0,0,0,134.29,97.5Z"/><path class="cls-1" d="M145.52,98.49a4.33,4.33,0,0,1-1.65-.32,4,4,0,0,1-1.34-.93,4.47,4.47,0,0,1-.89-1.46,5.28,5.28,0,0,1-.32-1.87,5.09,5.09,0,0,1,.32-1.83,4.44,4.44,0,0,1,.89-1.43,4,4,0,0,1,1.34-.92,4.33,4.33,0,0,1,1.65-.32,4.53,4.53,0,0,1,1.71.32,4,4,0,0,1,1.35.93,4.34,4.34,0,0,1,.88,1.45,5.71,5.71,0,0,1,0,3.71,4.25,4.25,0,0,1-.88,1.43,4.1,4.1,0,0,1-1.35.92A4.53,4.53,0,0,1,145.52,98.49Zm.17-1a3.15,3.15,0,0,0,2.87-1.68A3.7,3.7,0,0,0,149,94a3.81,3.81,0,0,0-.43-1.86,3.17,3.17,0,0,0-2.87-1.69,3.23,3.23,0,0,0-1.69.44,3.14,3.14,0,0,0-1.2,1.25,3.82,3.82,0,0,0-.44,1.86,3.7,3.7,0,0,0,.44,1.83A3.18,3.18,0,0,0,144,97,3.33,3.33,0,0,0,145.69,97.48Zm3.91,1a.54.54,0,0,1-.42-.13.61.61,0,0,1-.13-.44V85.82a1,1,0,0,1,0-.35.28.28,0,0,1,.17-.18.71.71,0,0,1,.31-.06.75.75,0,0,1,.33.06.33.33,0,0,1,.17.18.76.76,0,0,1,0,.33V97.9a1.09,1.09,0,0,1,0,.34.31.31,0,0,1-.16.19A.75.75,0,0,1,149.6,98.49Z"/><path class="cls-1" d="M157.16,98.57a4.46,4.46,0,0,1-1.78-.36,5,5,0,0,1-1.47-1,4.51,4.51,0,0,1-1-1.47,4.56,4.56,0,0,1,1-5,4.72,4.72,0,0,1,1.46-1,4.56,4.56,0,0,1,1.78-.35,4.49,4.49,0,0,1,2.3.6,4.55,4.55,0,0,1,1.63,1.63,4.62,4.62,0,0,1,.61,2.35,4.69,4.69,0,0,1-.35,1.82,4.76,4.76,0,0,1-1,1.47,4.46,4.46,0,0,1-1.44,1A4.25,4.25,0,0,1,157.16,98.57Zm0-1a3.29,3.29,0,0,0,1.75-.48,3.6,3.6,0,0,0,1.26-1.31,3.72,3.72,0,0,0,.46-1.84,3.64,3.64,0,0,0-.45-1.82,3.33,3.33,0,0,0-1.25-1.25,3.52,3.52,0,0,0-1.79-.44,3.39,3.39,0,0,0-3,1.73,3.5,3.5,0,0,0-.47,1.8,3.65,3.65,0,0,0,.47,1.84,3.41,3.41,0,0,0,3,1.77Z"/><path class="cls-1" d="M167,98.55a4.48,4.48,0,0,1-.89-.09,4.89,4.89,0,0,1-.85-.25,3.77,3.77,0,0,1-.75-.38,2,2,0,0,1-.55-.48,1.46,1.46,0,0,1-.19-.32.31.31,0,0,1,0-.25.44.44,0,0,1,.18-.21.46.46,0,0,1,.4-.19,1.23,1.23,0,0,1,.49.36,1.58,1.58,0,0,0,.44.35,3,3,0,0,0,.57.28,3.25,3.25,0,0,0,.61.17,2.91,2.91,0,0,0,.57.06,3.16,3.16,0,0,0,1.69-.41,1.25,1.25,0,0,0,.64-1.11,1.47,1.47,0,0,0-.13-.64,1.37,1.37,0,0,0-.36-.46,2.75,2.75,0,0,0-.52-.34,5.49,5.49,0,0,0-.65-.24l-.71-.2c-.36-.09-.71-.19-1.06-.3a4.24,4.24,0,0,1-.94-.41,2,2,0,0,1-.67-.64,1.89,1.89,0,0,1-.26-1,2.1,2.1,0,0,1,.37-1.25,2.43,2.43,0,0,1,1-.84,3.68,3.68,0,0,1,1.54-.3,5.13,5.13,0,0,1,.81.06,3.52,3.52,0,0,1,1.34.52,2.79,2.79,0,0,1,.54.42.64.64,0,0,1,.25.38.49.49,0,0,1-.13.36.59.59,0,0,1-.36.22.47.47,0,0,1-.4-.18,2.82,2.82,0,0,0-.64-.48,3.61,3.61,0,0,0-.68-.28,3,3,0,0,0-.73-.09,2.57,2.57,0,0,0-1,.18,1.55,1.55,0,0,0-.68.51,1.34,1.34,0,0,0-.23.77.85.85,0,0,0,.16.54,1.3,1.3,0,0,0,.43.37,3.29,3.29,0,0,0,.62.27l.76.23,1.16.33a4.53,4.53,0,0,1,1.07.48,2.3,2.3,0,0,1,.79.76,2.21,2.21,0,0,1,.31,1.24,2.12,2.12,0,0,1-1,1.82A4.09,4.09,0,0,1,167,98.55Z"/><path class="cls-1" d="M182.05,97l-4.27-6.65a.61.61,0,0,1-.13-.44.55.55,0,0,1,.28-.32.63.63,0,0,1,.45-.13.6.6,0,0,1,.35.3l3.89,6.18Zm-2,5.15q-.28-.12-.33-.27a.73.73,0,0,1,.08-.47L185,89.73a.77.77,0,0,1,.29-.38.55.55,0,0,1,.45.06c.19.09.3.19.32.3a.71.71,0,0,1-.09.46l-5.21,11.66c-.09.21-.18.32-.27.35A.77.77,0,0,1,180.06,102.1Z"/><path class="cls-1" d="M196.44,98.55a4.56,4.56,0,0,1-.89-.09,4.89,4.89,0,0,1-.85-.25,3.77,3.77,0,0,1-.75-.38,1.75,1.75,0,0,1-.74-.8.31.31,0,0,1,0-.25.44.44,0,0,1,.18-.21.46.46,0,0,1,.4-.19,1.23,1.23,0,0,1,.49.36,1.74,1.74,0,0,0,.44.35,3.77,3.77,0,0,0,.57.28,3.25,3.25,0,0,0,.61.17,2.91,2.91,0,0,0,.57.06,3.16,3.16,0,0,0,1.69-.41,1.25,1.25,0,0,0,.64-1.11,1.47,1.47,0,0,0-.13-.64,1.37,1.37,0,0,0-.36-.46,2.75,2.75,0,0,0-.52-.34,5.49,5.49,0,0,0-.65-.24l-.71-.2c-.36-.09-.71-.19-1.06-.3a4.45,4.45,0,0,1-.94-.41,2,2,0,0,1-.67-.64,1.89,1.89,0,0,1-.26-1,2.17,2.17,0,0,1,.37-1.25,2.43,2.43,0,0,1,1-.84,3.68,3.68,0,0,1,1.54-.3,5.13,5.13,0,0,1,.81.06,3.52,3.52,0,0,1,1.34.52,3.2,3.2,0,0,1,.55.42.66.66,0,0,1,.24.38.49.49,0,0,1-.13.36.57.57,0,0,1-.36.22.47.47,0,0,1-.4-.18,2.82,2.82,0,0,0-.64-.48,3.61,3.61,0,0,0-.68-.28,3,3,0,0,0-.73-.09,2.57,2.57,0,0,0-1,.18,1.55,1.55,0,0,0-.68.51,1.34,1.34,0,0,0-.23.77.85.85,0,0,0,.16.54,1.3,1.3,0,0,0,.43.37,3.29,3.29,0,0,0,.62.27l.76.23,1.16.33a4.79,4.79,0,0,1,1.08.48,2.36,2.36,0,0,1,.78.76,2.21,2.21,0,0,1,.31,1.24,2.12,2.12,0,0,1-1,1.82A4.07,4.07,0,0,1,196.44,98.55Z"/><path class="cls-1" d="M203.2,86.69a1,1,0,0,1-.42-.07.54.54,0,0,1-.22-.25,1.37,1.37,0,0,1-.06-.44,1.21,1.21,0,0,1,.06-.42.45.45,0,0,1,.23-.22,1.27,1.27,0,0,1,.43-.06,1,1,0,0,1,.42.07.51.51,0,0,1,.22.24,1.36,1.36,0,0,1,.06.45,1.22,1.22,0,0,1-.06.41.49.49,0,0,1-.22.23A1.25,1.25,0,0,1,203.2,86.69Zm0,11.8a.68.68,0,0,1-.31-.06.3.3,0,0,1-.17-.18.76.76,0,0,1-.05-.33V90a.76.76,0,0,1,.05-.33.3.3,0,0,1,.17-.18,1,1,0,0,1,.33,0,.85.85,0,0,1,.32,0,.31.31,0,0,1,.16.19.81.81,0,0,1,.05.35v7.92a.76.76,0,0,1-.05.33.26.26,0,0,1-.17.17A1,1,0,0,1,203.2,98.49Z"/><path class="cls-1" d="M207.48,98.47a.68.68,0,0,1-.31-.06.29.29,0,0,1-.16-.18,1,1,0,0,1,0-.33v-8a.72.72,0,0,1,0-.29.33.33,0,0,1,.17-.16.93.93,0,0,1,.31,0,.75.75,0,0,1,.23,0,.22.22,0,0,1,.15.08.38.38,0,0,1,.09.15.8.8,0,0,1,0,.23V91a6.27,6.27,0,0,1,.55-.62,5,5,0,0,1,.67-.53,3.21,3.21,0,0,1,.82-.37,3.46,3.46,0,0,1,1-.13,3.94,3.94,0,0,1,1.51.28,3.48,3.48,0,0,1,1.21.79,3.69,3.69,0,0,1,.79,1.28,4.81,4.81,0,0,1,.29,1.72v4.46a1,1,0,0,1-.05.33.27.27,0,0,1-.16.17.72.72,0,0,1-.32,0,.83.83,0,0,1-.34-.06.28.28,0,0,1-.17-.18,1,1,0,0,1,0-.33V93.44a4,4,0,0,0-.31-1.62,2.36,2.36,0,0,0-.91-1.06,2.82,2.82,0,0,0-1.54-.38,3.08,3.08,0,0,0-1.58.38,2.6,2.6,0,0,0-1,1.06,3.46,3.46,0,0,0-.36,1.62v4.48a1,1,0,0,1-.05.33.29.29,0,0,1-.17.17A.79.79,0,0,1,207.48,98.47Z"/><path class="cls-1" d="M230.85,98.47a.46.46,0,0,1-.38-.13,1,1,0,0,1-.16-.5V96.57a4,4,0,0,1-3.53,1.92,4.26,4.26,0,0,1-1.72-.35,4.34,4.34,0,0,1-1.38-1,4.65,4.65,0,0,1-.92-1.45,4.8,4.8,0,0,1-.33-1.8,4.57,4.57,0,0,1,.33-1.74,4.47,4.47,0,0,1,2.32-2.39,4,4,0,0,1,1.7-.35,4.4,4.4,0,0,1,1.53.23,3.8,3.8,0,0,1,1.12.62,5.56,5.56,0,0,1,.88.93V90.13a.86.86,0,0,1,.13-.54.48.48,0,0,1,.42-.16.61.61,0,0,1,.3.06.4.4,0,0,1,.15.22,1.5,1.5,0,0,1,.05.42v7.71a1.18,1.18,0,0,1-.05.37.28.28,0,0,1-.16.2A.67.67,0,0,1,230.85,98.47Zm-3.86-1a3,3,0,0,0,1.65-.46,3.29,3.29,0,0,0,1.18-1.27,4,4,0,0,0,0-3.7,3.38,3.38,0,0,0-1.21-1.25,3.2,3.2,0,0,0-1.64-.44,3.47,3.47,0,0,0-1.82.47,3.41,3.41,0,0,0-1.22,1.28,3.87,3.87,0,0,0-.44,1.86,3.69,3.69,0,0,0,.44,1.8,3.2,3.2,0,0,0,1.24,1.26A3.66,3.66,0,0,0,227,97.5Z"/><path class="cls-1" d="M234.68,102.12a.75.75,0,0,1-.33-.06.39.39,0,0,1-.18-.18.75.75,0,0,1-.06-.33V90a1,1,0,0,1,0-.35.32.32,0,0,1,.17-.19,1,1,0,0,1,.33,0,.46.46,0,0,1,.57.57v11.53a1.09,1.09,0,0,1,0,.34.35.35,0,0,1-.17.19A.83.83,0,0,1,234.68,102.12Zm4.09-3.67a4.53,4.53,0,0,1-1.71-.32,4,4,0,0,1-1.35-.93,4.18,4.18,0,0,1-.88-1.45,5.54,5.54,0,0,1,0-3.71,4,4,0,0,1,2.23-2.35,4.53,4.53,0,0,1,1.71-.32,4.29,4.29,0,0,1,1.65.32,4,4,0,0,1,1.33.93,4.31,4.31,0,0,1,.89,1.46A5.1,5.1,0,0,1,243,94a4.89,4.89,0,0,1-.33,1.83,4.27,4.27,0,0,1-.89,1.43,4,4,0,0,1-1.33.92A4.29,4.29,0,0,1,238.77,98.45Zm-.17-1a3.17,3.17,0,0,0,2.88-1.7,3.76,3.76,0,0,0,.44-1.86,3.67,3.67,0,0,0-.44-1.85,3.17,3.17,0,0,0-1.18-1.23,3.33,3.33,0,0,0-1.7-.43,3.29,3.29,0,0,0-1.68.44,3.16,3.16,0,0,0-1.19,1.24,3.73,3.73,0,0,0-.44,1.83,3.87,3.87,0,0,0,.44,1.86,3.2,3.2,0,0,0,2.87,1.7Z"/><path class="cls-1" d="M246.22,98.49a.68.68,0,0,1-.31-.06.31.31,0,0,1-.16-.19,1.06,1.06,0,0,1-.05-.34V90a1,1,0,0,1,.05-.35.27.27,0,0,1,.16-.17,1.72,1.72,0,0,1,.64,0,.3.3,0,0,1,.18.17.82.82,0,0,1,.06.35v.8a5.46,5.46,0,0,1,.38-.59,1.83,1.83,0,0,1,.45-.47,2,2,0,0,1,.66-.31,3.36,3.36,0,0,1,1-.12,2.47,2.47,0,0,1,.56.06,2.88,2.88,0,0,1,.47.15,2.43,2.43,0,0,1,.37.21,1,1,0,0,1,.23.23.43.43,0,0,1,.08.23.54.54,0,0,1-.21.42.66.66,0,0,1-.38.17.56.56,0,0,1-.32-.07,2.39,2.39,0,0,1-.22-.16.9.9,0,0,0-.34-.16,2.41,2.41,0,0,0-.7-.07,1.93,1.93,0,0,0-.63.12,2.65,2.65,0,0,0-.65.37,2,2,0,0,0-.53.65,2.15,2.15,0,0,0-.2,1v5.55a1,1,0,0,1,0,.33.29.29,0,0,1-.17.17A1.08,1.08,0,0,1,246.22,98.49Z"/><path class="cls-1" d="M257.65,98.53a5.36,5.36,0,0,1-1.91-.34,4.42,4.42,0,0,1-1.48-1,4.5,4.5,0,0,1-1-1.48,5.28,5.28,0,0,1-.34-1.91A4.24,4.24,0,0,1,255.18,90a5,5,0,0,1,2.4-.58,4.5,4.5,0,0,1,1.59.27,4.19,4.19,0,0,1,1.26.72,3.41,3.41,0,0,1,.82,1,2.64,2.64,0,0,1,.3,1.21,1.53,1.53,0,0,1-.43,1.27,1.63,1.63,0,0,1-1,.33h-6a2.66,2.66,0,0,0,.5,1.73A3.7,3.7,0,0,0,256,97.15a3.87,3.87,0,0,0,1.66.39,6.65,6.65,0,0,0,1-.06,3.11,3.11,0,0,0,.71-.16,5,5,0,0,0,.5-.21l.38-.21a1.91,1.91,0,0,1,.32-.16.78.78,0,0,1,.22,0,.22.22,0,0,1,.18.11,1,1,0,0,1,.14.24.85.85,0,0,1,0,.23c0,.12-.15.27-.45.47a5.05,5.05,0,0,1-1.24.53A5.83,5.83,0,0,1,257.65,98.53ZM254.1,93.4h5.66a1.52,1.52,0,0,0,.59-.09c.14,0,.21-.24.21-.56a1.88,1.88,0,0,0-.39-1.15,2.76,2.76,0,0,0-1.05-.84,3.4,3.4,0,0,0-1.52-.33,4.12,4.12,0,0,0-1.76.38,3.19,3.19,0,0,0-1.28,1.06A2.49,2.49,0,0,0,254.1,93.4Z"/><path class="cls-1" d="M263.92,89.67l1.69,0,2.65,0a1,1,0,0,1,.33,0,.35.35,0,0,1,.18.16.68.68,0,0,1,.06.31,1,1,0,0,1-.05.33.3.3,0,0,1-.16.17,1,1,0,0,1-.33,0l-2.68,0-1.72,0a.55.55,0,0,1-.42-.12.63.63,0,0,1-.12-.43.49.49,0,0,1,.14-.4A.61.61,0,0,1,263.92,89.67Zm4.22,8.82a5.75,5.75,0,0,1-1.43-.15,2.15,2.15,0,0,1-.94-.48,1.74,1.74,0,0,1-.52-.86,5.11,5.11,0,0,1-.15-1.34V86.92a1,1,0,0,1,0-.35.29.29,0,0,1,.16-.18.67.67,0,0,1,.3-.06,1.06,1.06,0,0,1,.34,0,.31.31,0,0,1,.18.16.72.72,0,0,1,.05.32V95.7a3.41,3.41,0,0,0,.11.94,1,1,0,0,0,.32.52,1.26,1.26,0,0,0,.6.22,7.77,7.77,0,0,0,.91.05,1.08,1.08,0,0,1,.35,0,.32.32,0,0,1,.18.16.75.75,0,0,1,.06.33.67.67,0,0,1-.06.32.26.26,0,0,1-.18.16A1,1,0,0,1,268.14,98.49Z"/><path class="cls-1" d="M279.05,98.47a.46.46,0,0,1-.38-.13.89.89,0,0,1-.15-.5V96.57a4.19,4.19,0,0,1-.66.81,3.92,3.92,0,0,1-1.16.78,4.06,4.06,0,0,1-1.72.33,4.26,4.26,0,0,1-1.72-.35,4.46,4.46,0,0,1-1.38-1,4.65,4.65,0,0,1-.92-1.45,4.8,4.8,0,0,1-.33-1.8,4.45,4.45,0,0,1,1.26-3.16,4.36,4.36,0,0,1,1.39-1,4,4,0,0,1,1.7-.35,4.32,4.32,0,0,1,1.53.23,3.8,3.8,0,0,1,1.12.62,5.62,5.62,0,0,1,.89.93V90.13a.94.94,0,0,1,.12-.54.49.49,0,0,1,.43-.16.6.6,0,0,1,.29.06.4.4,0,0,1,.15.22,1.5,1.5,0,0,1,.05.42v7.71a1.18,1.18,0,0,1-.05.37.28.28,0,0,1-.16.2A.64.64,0,0,1,279.05,98.47Zm-3.86-1a3,3,0,0,0,1.65-.46A3.29,3.29,0,0,0,278,95.77a3.74,3.74,0,0,0,.44-1.82,3.66,3.66,0,0,0-.46-1.88,3.35,3.35,0,0,0-1.2-1.25,3.23,3.23,0,0,0-1.65-.44,3.5,3.5,0,0,0-1.82.47,3.41,3.41,0,0,0-1.22,1.28,3.87,3.87,0,0,0-.43,1.86,3.69,3.69,0,0,0,.43,1.8,3.26,3.26,0,0,0,1.24,1.26A3.66,3.66,0,0,0,275.19,97.5Z"/><path class="cls-1" d="M283,98.49a.68.68,0,0,1-.31-.06.31.31,0,0,1-.16-.19,1.06,1.06,0,0,1-.05-.34V90a1,1,0,0,1,.05-.35.27.27,0,0,1,.16-.17,1.42,1.42,0,0,1,.33,0,1.35,1.35,0,0,1,.31,0,.3.3,0,0,1,.18.17.82.82,0,0,1,.06.35v.8a5.46,5.46,0,0,1,.38-.59,1.89,1.89,0,0,1,1.11-.78,3.4,3.4,0,0,1,1-.12,2.47,2.47,0,0,1,.56.06,2.88,2.88,0,0,1,.47.15,2.43,2.43,0,0,1,.37.21.83.83,0,0,1,.23.23.43.43,0,0,1,.08.23.54.54,0,0,1-.21.42.66.66,0,0,1-.38.17.51.51,0,0,1-.31-.07,1.53,1.53,0,0,1-.22-.16,1,1,0,0,0-.34-.16,2.54,2.54,0,0,0-.71-.07,1.83,1.83,0,0,0-.62.12,2.71,2.71,0,0,0-.66.37,2,2,0,0,0-.52.65,2,2,0,0,0-.21,1v5.55a1,1,0,0,1,0,.33.29.29,0,0,1-.17.17A1,1,0,0,1,283,98.49Z"/><path class="cls-1" d="M299.47,98.49a4.28,4.28,0,0,1-1.64-.32,4,4,0,0,1-1.34-.93,4.31,4.31,0,0,1-.89-1.46,5.06,5.06,0,0,1-.33-1.87,4.89,4.89,0,0,1,.33-1.83,4.27,4.27,0,0,1,.89-1.43,4,4,0,0,1,1.34-.92,4.28,4.28,0,0,1,1.64-.32,4.53,4.53,0,0,1,1.71.32,4,4,0,0,1,1.35.93,4.18,4.18,0,0,1,.88,1.45,5.54,5.54,0,0,1,0,3.71,4,4,0,0,1-2.23,2.35A4.53,4.53,0,0,1,299.47,98.49Zm.17-1a3.25,3.25,0,0,0,1.69-.44,3.2,3.2,0,0,0,1.18-1.24A3.7,3.7,0,0,0,303,94a3.82,3.82,0,0,0-.44-1.86,3.17,3.17,0,0,0-2.87-1.69,3.26,3.26,0,0,0-1.69.44,3.21,3.21,0,0,0-1.2,1.25,3.81,3.81,0,0,0-.43,1.86,3.7,3.7,0,0,0,.43,1.83A3.25,3.25,0,0,0,298,97,3.35,3.35,0,0,0,299.64,97.48Zm3.92,1a.55.55,0,0,1-.43-.13.66.66,0,0,1-.12-.44V85.82a1.08,1.08,0,0,1,0-.35.28.28,0,0,1,.17-.18.76.76,0,0,1,.32-.06.7.7,0,0,1,.32.06.3.3,0,0,1,.17.18.75.75,0,0,1,.06.33V97.9a1.06,1.06,0,0,1,0,.34.28.28,0,0,1-.16.19A.7.7,0,0,1,303.56,98.49Z"/><path class="cls-1" d="M311.29,98.53a5.32,5.32,0,0,1-1.91-.34,4.33,4.33,0,0,1-1.48-1,4.5,4.5,0,0,1-1-1.48,5.07,5.07,0,0,1-.34-1.91,4.19,4.19,0,0,1,.59-2.22A4.25,4.25,0,0,1,308.82,90a4.91,4.91,0,0,1,2.39-.58,4.51,4.51,0,0,1,1.6.27,4.14,4.14,0,0,1,1.25.72,3.44,3.44,0,0,1,.83,1,2.63,2.63,0,0,1,.29,1.21,1.56,1.56,0,0,1-.42,1.27,1.66,1.66,0,0,1-1,.33h-6a2.61,2.61,0,0,0,.5,1.73,3.62,3.62,0,0,0,1.37,1.11,3.84,3.84,0,0,0,1.66.39,6.65,6.65,0,0,0,1-.06,3,3,0,0,0,.7-.16,4.42,4.42,0,0,0,.51-.21l.38-.21a1.91,1.91,0,0,1,.32-.16.73.73,0,0,1,.22,0,.22.22,0,0,1,.18.11,1,1,0,0,1,.13.24.59.59,0,0,1,0,.23c0,.12-.15.27-.46.47a4.8,4.8,0,0,1-1.23.53A5.88,5.88,0,0,1,311.29,98.53Zm-3.55-5.13h5.66a1.55,1.55,0,0,0,.59-.09c.14,0,.21-.24.21-.56a1.88,1.88,0,0,0-.39-1.15,2.72,2.72,0,0,0-1.06-.84,3.37,3.37,0,0,0-1.52-.33,4.07,4.07,0,0,0-1.75.38,3.3,3.3,0,0,0-1.29,1.06A2.48,2.48,0,0,0,307.74,93.4Z"/><path class="cls-1" d="M318.26,98.47a.64.64,0,0,1-.3-.06.26.26,0,0,1-.16-.18,1,1,0,0,1-.05-.33v-8a.72.72,0,0,1,.05-.29.33.33,0,0,1,.17-.16.9.9,0,0,1,.31,0,.49.49,0,0,1,.38.11.51.51,0,0,1,.12.38v1.14a2,2,0,0,1,.48-.7,3.33,3.33,0,0,1,.71-.52,3.72,3.72,0,0,1,.83-.34,3.43,3.43,0,0,1,.82-.11,2.71,2.71,0,0,1,1.23.27,2.85,2.85,0,0,1,1,.75,4.24,4.24,0,0,1,.7,1.18,6.86,6.86,0,0,1,.89-1.24,2.9,2.9,0,0,1,1-.72,3.23,3.23,0,0,1,1.27-.24,2.92,2.92,0,0,1,1.79.53,3.23,3.23,0,0,1,1.08,1.48,6.36,6.36,0,0,1,.36,2.25v4.27a1,1,0,0,1,0,.33.3.3,0,0,1-.16.17.74.74,0,0,1-.32,0,.8.8,0,0,1-.34-.06.28.28,0,0,1-.17-.18,1,1,0,0,1-.05-.33V93.63a5.73,5.73,0,0,0-.23-1.7,2.44,2.44,0,0,0-.72-1.14,1.76,1.76,0,0,0-1.23-.41,2.52,2.52,0,0,0-1.43.41,2.82,2.82,0,0,0-1,1.14,3.77,3.77,0,0,0-.37,1.7v4.31a.61.61,0,0,1-.12.39.51.51,0,0,1-.3.17.53.53,0,0,1-.33,0,.49.49,0,0,1-.19-.1.34.34,0,0,1-.11-.18,1.12,1.12,0,0,1,0-.27V93.63a5.41,5.41,0,0,0-.24-1.7,2.35,2.35,0,0,0-.71-1.14,1.78,1.78,0,0,0-1.23-.41,2.52,2.52,0,0,0-1.43.41,2.76,2.76,0,0,0-1,1.14,3.77,3.77,0,0,0-.36,1.7v4.29a1,1,0,0,1,0,.33.3.3,0,0,1-.18.17A.76.76,0,0,1,318.26,98.47Z"/><path class="cls-1" d="M341.78,98.47a.49.49,0,0,1-.38-.13,1.09,1.09,0,0,1-.15-.5V96.57a4.49,4.49,0,0,1-.65.81,3.94,3.94,0,0,1-2.88,1.11,4.17,4.17,0,0,1-3.1-1.33,4.65,4.65,0,0,1-.92-1.45,4.8,4.8,0,0,1-.33-1.8,4.57,4.57,0,0,1,.33-1.74A4.47,4.47,0,0,1,336,89.78a4,4,0,0,1,1.7-.35,4.4,4.4,0,0,1,1.53.23,3.8,3.8,0,0,1,1.12.62,5.56,5.56,0,0,1,.88.93V90.13a.86.86,0,0,1,.13-.54.48.48,0,0,1,.42-.16.61.61,0,0,1,.3.06.4.4,0,0,1,.15.22,1.5,1.5,0,0,1,.05.42v7.71a1.18,1.18,0,0,1-.05.37.3.3,0,0,1-.16.2A.68.68,0,0,1,341.78,98.47Zm-3.85-1a3,3,0,0,0,1.65-.46,3.36,3.36,0,0,0,1.18-1.27,4,4,0,0,0,0-3.7,3.46,3.46,0,0,0-1.21-1.25,3.22,3.22,0,0,0-1.64-.44,3.45,3.45,0,0,0-1.82.47,3.41,3.41,0,0,0-1.22,1.28,3.87,3.87,0,0,0-.44,1.86,3.69,3.69,0,0,0,.44,1.8,3.24,3.24,0,0,0,1.23,1.26A3.73,3.73,0,0,0,337.93,97.5Z"/><path class="cls-1" d="M348.11,98.55a4.38,4.38,0,0,1-.88-.09,4.75,4.75,0,0,1-.86-.25,3.77,3.77,0,0,1-.75-.38,1.75,1.75,0,0,1-.74-.8.31.31,0,0,1,0-.25.44.44,0,0,1,.18-.21.46.46,0,0,1,.4-.19,1.16,1.16,0,0,1,.49.36,1.74,1.74,0,0,0,.44.35,3.77,3.77,0,0,0,.57.28,3.48,3.48,0,0,0,.61.17,2.91,2.91,0,0,0,.57.06,3.13,3.13,0,0,0,1.69-.41,1.26,1.26,0,0,0,.65-1.11,1.47,1.47,0,0,0-.14-.64A1.25,1.25,0,0,0,350,95a2.46,2.46,0,0,0-.52-.34,4.91,4.91,0,0,0-.65-.24l-.71-.2q-.52-.14-1-.3a4.24,4.24,0,0,1-.94-.41,2,2,0,0,1-.68-.64,1.89,1.89,0,0,1-.25-1,2.1,2.1,0,0,1,.37-1.25,2.4,2.4,0,0,1,1-.84,3.74,3.74,0,0,1,1.54-.3,5.36,5.36,0,0,1,.82.06,3.9,3.9,0,0,1,.71.2,4.65,4.65,0,0,1,.63.32,3.57,3.57,0,0,1,.54.42.75.75,0,0,1,.25.38.5.5,0,0,1-.14.36.54.54,0,0,1-.36.22.47.47,0,0,1-.4-.18,2.77,2.77,0,0,0-.63-.48,3.7,3.7,0,0,0-.69-.28,2.92,2.92,0,0,0-.73-.09,2.57,2.57,0,0,0-1,.18,1.52,1.52,0,0,0-.67.51,1.28,1.28,0,0,0-.24.77.85.85,0,0,0,.16.54,1.3,1.3,0,0,0,.43.37,3.72,3.72,0,0,0,.63.27l.76.23,1.16.33a4.53,4.53,0,0,1,1.07.48,2.39,2.39,0,0,1,.79.76,2.3,2.3,0,0,1,.3,1.24,2.12,2.12,0,0,1-1,1.82A4.07,4.07,0,0,1,348.11,98.55Z"/><path class="cls-1" d="M354.87,86.69a.94.94,0,0,1-.41-.07.49.49,0,0,1-.22-.25,1.13,1.13,0,0,1-.07-.44,1,1,0,0,1,.07-.42.41.41,0,0,1,.23-.22,1.21,1.21,0,0,1,.42-.06,1,1,0,0,1,.42.07.47.47,0,0,1,.22.24,1.32,1.32,0,0,1,.07.45,1.21,1.21,0,0,1-.07.41.45.45,0,0,1-.22.23A1.25,1.25,0,0,1,354.87,86.69Zm0,11.8a.71.71,0,0,1-.31-.06.3.3,0,0,1-.17-.18,1,1,0,0,1-.05-.33V90a1,1,0,0,1,.05-.33.3.3,0,0,1,.17-.18,1,1,0,0,1,.33,0,1,1,0,0,1,.33,0,.34.34,0,0,1,.16.19,1,1,0,0,1,.05.35v7.92a1,1,0,0,1-.05.33.29.29,0,0,1-.17.17A1.06,1.06,0,0,1,354.87,98.49Z"/><path class="cls-1" d="M366.48,98.47a.49.49,0,0,1-.38-.13,1.09,1.09,0,0,1-.15-.5V96.57a4.49,4.49,0,0,1-.65.81,3.94,3.94,0,0,1-2.88,1.11,4.17,4.17,0,0,1-3.1-1.33,4.65,4.65,0,0,1-.92-1.45,4.8,4.8,0,0,1-.33-1.8,4.57,4.57,0,0,1,.33-1.74,4.47,4.47,0,0,1,2.32-2.39,4,4,0,0,1,1.7-.35,4.4,4.4,0,0,1,1.53.23,3.8,3.8,0,0,1,1.12.62,5.56,5.56,0,0,1,.88.93V90.13a.94.94,0,0,1,.12-.54.52.52,0,0,1,.43-.16.61.61,0,0,1,.3.06.4.4,0,0,1,.15.22,1.5,1.5,0,0,1,.05.42v7.71a1.18,1.18,0,0,1-.05.37.3.3,0,0,1-.16.2A.68.68,0,0,1,366.48,98.47Zm-3.85-1a3,3,0,0,0,1.65-.46,3.36,3.36,0,0,0,1.18-1.27,4.11,4.11,0,0,0,0-3.7,3.46,3.46,0,0,0-1.21-1.25,3.22,3.22,0,0,0-1.64-.44,3.51,3.51,0,0,0-1.83.47,3.46,3.46,0,0,0-1.21,1.28,3.87,3.87,0,0,0-.44,1.86,3.69,3.69,0,0,0,.44,1.8,3.24,3.24,0,0,0,1.23,1.26A3.73,3.73,0,0,0,362.63,97.5Z"/><path class="cls-1" d="M373.85,98.49a4.28,4.28,0,0,1-1.64-.32,4,4,0,0,1-1.34-.93,4.31,4.31,0,0,1-.89-1.46,5.06,5.06,0,0,1-.32-1.87,4.89,4.89,0,0,1,.32-1.83,4.27,4.27,0,0,1,.89-1.43,4,4,0,0,1,1.34-.92,4.28,4.28,0,0,1,1.64-.32,4.45,4.45,0,0,1,1.71.32,4,4,0,0,1,1.35.93,4.36,4.36,0,0,1,.89,1.45,5.71,5.71,0,0,1,0,3.71,4.27,4.27,0,0,1-.89,1.43,4.1,4.1,0,0,1-1.35.92A4.45,4.45,0,0,1,373.85,98.49Zm.18-1a3.3,3.3,0,0,0,1.69-.44,3.25,3.25,0,0,0,1.17-1.24,3.59,3.59,0,0,0,.44-1.83,3.71,3.71,0,0,0-.44-1.86,3.16,3.16,0,0,0-1.18-1.25,3.19,3.19,0,0,0-1.68-.44,3.29,3.29,0,0,0-1.7.44,3.19,3.19,0,0,0-1.19,1.25A3.82,3.82,0,0,0,370.7,94a3.7,3.7,0,0,0,.44,1.83A3.23,3.23,0,0,0,372.33,97,3.39,3.39,0,0,0,374,97.48Zm3.91,1a.57.57,0,0,1-.43-.13.66.66,0,0,1-.12-.44V85.82a.84.84,0,0,1,.05-.35.26.26,0,0,1,.17-.18.68.68,0,0,1,.31-.06.67.67,0,0,1,.32.06.28.28,0,0,1,.17.18.75.75,0,0,1,.06.33V97.9a.84.84,0,0,1-.05.34.28.28,0,0,1-.16.19A.67.67,0,0,1,377.94,98.49Z"/><path class="cls-1" d="M385.5,98.57a4.42,4.42,0,0,1-1.78-.36,5.19,5.19,0,0,1-1.48-1,4.64,4.64,0,0,1-1-1.47,4.57,4.57,0,0,1,0-3.58,4.52,4.52,0,0,1,1-1.46,4.88,4.88,0,0,1,1.47-1,4.54,4.54,0,0,1,1.77-.35,4.5,4.5,0,0,1,3.94,2.23A4.62,4.62,0,0,1,390,94a4.51,4.51,0,0,1-.35,1.82,4.43,4.43,0,0,1-1,1.47,4.53,4.53,0,0,1-1.43,1A4.28,4.28,0,0,1,385.5,98.57Zm0-1a3.3,3.3,0,0,0,1.76-.48,3.68,3.68,0,0,0,1.26-1.31,3.72,3.72,0,0,0,.46-1.84,3.54,3.54,0,0,0-.46-1.82,3.24,3.24,0,0,0-1.24-1.25,3.56,3.56,0,0,0-1.8-.44,3.42,3.42,0,0,0-3,1.73,3.5,3.5,0,0,0-.46,1.8,3.64,3.64,0,0,0,.46,1.84,3.52,3.52,0,0,0,1.27,1.3A3.48,3.48,0,0,0,385.46,97.54Z"/><path class="cls-1" d="M393,98.49a.79.79,0,0,1-.58-.16.78.78,0,0,1-.17-.56,1.32,1.32,0,0,1,.07-.45.43.43,0,0,1,.24-.24A1.1,1.1,0,0,1,393,97a.82.82,0,0,1,.58.16.86.86,0,0,1,.16.58,1.32,1.32,0,0,1-.07.45.39.39,0,0,1-.23.22A1.06,1.06,0,0,1,393,98.49Z"/><rect class="cls-2" width="429" height="216"/></g></g></svg>