<svg xmlns="http://www.w3.org/2000/svg" viewBox="0 0 429 216"><defs><style>.cls-1{fill:none;}.cls-2{fill:#fff;}</style></defs><title>pag41</title><g id="Layer_2" data-name="Layer 2"><g id="Paso_4" data-name="Paso 4"><rect class="cls-1" width="429" height="216"/><path class="cls-2" d="M1.39,13.3a.83.83,0,0,1-.34-.06.32.32,0,0,1-.17-.19,1.09,1.09,0,0,1,0-.34V.61A.59.59,0,0,1,1,.16.72.72,0,0,1,1.44,0H9.31a1,1,0,0,1,.33,0,.32.32,0,0,1,.17.19.81.81,0,0,1,0,.35A.75.75,0,0,1,9.8,1a.28.28,0,0,1-.18.17,1,1,0,0,1-.33.05H2V5.87H7.11a.75.75,0,0,1,.33.06.35.35,0,0,1,.18.18.82.82,0,0,1,.06.35.75.75,0,0,1-.06.33A.29.29,0,0,1,7.43,7a1.15,1.15,0,0,1-.36,0H2v5.15H9.31a.75.75,0,0,1,.33.06.28.28,0,0,1,.17.18.76.76,0,0,1,0,.33.75.75,0,0,1-.06.33.29.29,0,0,1-.18.18.75.75,0,0,1-.33.06Z"/><path class="cls-2" d="M15.71,13.36a4.46,4.46,0,0,1-.88-.09A5,5,0,0,1,14,13a3.77,3.77,0,0,1-.75-.38,2.16,2.16,0,0,1-.55-.48,2,2,0,0,1-.19-.32.31.31,0,0,1,0-.25.44.44,0,0,1,.18-.21.47.47,0,0,1,.4-.19,1.24,1.24,0,0,1,.5.36,1.93,1.93,0,0,0,.43.35,3.77,3.77,0,0,0,.57.28,5.1,5.1,0,0,0,.61.17,2.91,2.91,0,0,0,.57.06A3.13,3.13,0,0,0,17.42,12a1.26,1.26,0,0,0,.65-1.11,1.59,1.59,0,0,0-.13-.64,1.28,1.28,0,0,0-.37-.46,2.46,2.46,0,0,0-.52-.34,4.75,4.75,0,0,0-.64-.24c-.24-.08-.48-.14-.72-.2l-1-.3a4.24,4.24,0,0,1-.94-.41A2.08,2.08,0,0,1,13,7.66a1.89,1.89,0,0,1-.25-1,2.1,2.1,0,0,1,.37-1.25,2.46,2.46,0,0,1,1-.84,3.74,3.74,0,0,1,1.54-.3,5.27,5.27,0,0,1,.82.06,3.9,3.9,0,0,1,.71.2,4.65,4.65,0,0,1,.63.32,2.79,2.79,0,0,1,.54.42.69.69,0,0,1,.25.38.46.46,0,0,1-.14.36.59.59,0,0,1-.36.22A.46.46,0,0,1,17.77,6a3.06,3.06,0,0,0-.64-.48,3.44,3.44,0,0,0-.69-.28,2.86,2.86,0,0,0-.73-.09,2.55,2.55,0,0,0-1,.18,1.5,1.5,0,0,0-.68.51,1.28,1.28,0,0,0-.24.77.91.91,0,0,0,.16.54,1.3,1.3,0,0,0,.43.37,3.72,3.72,0,0,0,.63.27l.76.23L17,8.37A5,5,0,0,1,18,8.84a2.53,2.53,0,0,1,.79.77,2.3,2.3,0,0,1,.3,1.24,2.12,2.12,0,0,1-1,1.82A4.07,4.07,0,0,1,15.71,13.36Z"/><path class="cls-2" d="M27,4.48l1.69,0,2.64,0a1,1,0,0,1,.33,0,.29.29,0,0,1,.18.16A.68.68,0,0,1,31.9,5a1,1,0,0,1,0,.33.27.27,0,0,1-.16.17.85.85,0,0,1-.32,0l-2.68,0L27,5.55a.54.54,0,0,1-.42-.13A.64.64,0,0,1,26.43,5a.49.49,0,0,1,.13-.4A.66.66,0,0,1,27,4.48Zm1.67,8.82a.61.61,0,0,1-.3-.06.28.28,0,0,1-.16-.19.84.84,0,0,1-.05-.34V2.83a5.11,5.11,0,0,1,.15-1.34,1.73,1.73,0,0,1,.51-.86,2.2,2.2,0,0,1,.94-.48A5.89,5.89,0,0,1,31.2,0a1,1,0,0,1,.33.05.31.31,0,0,1,.18.16.7.7,0,0,1,.06.32.76.76,0,0,1-.06.32.37.37,0,0,1-.18.17,1.08,1.08,0,0,1-.35,0,7.64,7.64,0,0,0-.91.05,1.18,1.18,0,0,0-.6.21.89.89,0,0,0-.32.51,3.51,3.51,0,0,0-.11,1v10a.71.71,0,0,1-.06.31.28.28,0,0,1-.18.17A1,1,0,0,1,28.67,13.3Z"/><path class="cls-2" d="M37.75,13.32a3.89,3.89,0,0,1-1.5-.28,3.47,3.47,0,0,1-2-2.07A4.81,4.81,0,0,1,34,9.25V4.79A1,1,0,0,1,34,4.46a.3.3,0,0,1,.17-.18.93.93,0,0,1,.31,0,1.06,1.06,0,0,1,.34,0,.33.33,0,0,1,.17.18,1.09,1.09,0,0,1,0,.34V9.27a4.05,4.05,0,0,0,.31,1.61A2.28,2.28,0,0,0,36.27,12a2.86,2.86,0,0,0,1.52.38,3.24,3.24,0,0,0,1.6-.38,2.57,2.57,0,0,0,1-1.07,3.47,3.47,0,0,0,.36-1.61V4.79a1,1,0,0,1,0-.33A.3.3,0,0,1,41,4.28a1,1,0,0,1,.33,0,.87.87,0,0,1,.31,0,.35.35,0,0,1,.16.18,1.06,1.06,0,0,1,.05.34v8a.74.74,0,0,1-.05.28.28.28,0,0,1-.16.16.93.93,0,0,1-.32,0,.75.75,0,0,1-.23,0,.27.27,0,0,1-.15-.08.35.35,0,0,1-.09-.16.69.69,0,0,1,0-.22V11.67a5.22,5.22,0,0,1-.55.61,3.81,3.81,0,0,1-.67.53,3.3,3.3,0,0,1-.83.38A3.92,3.92,0,0,1,37.75,13.32Z"/><path class="cls-2" d="M45.31,13.28a.67.67,0,0,1-.3-.06.26.26,0,0,1-.16-.18,1,1,0,0,1-.05-.33v-8a.72.72,0,0,1,.05-.29A.33.33,0,0,1,45,4.28a.93.93,0,0,1,.31,0,.75.75,0,0,1,.23,0,.24.24,0,0,1,.15.08.38.38,0,0,1,.09.15.8.8,0,0,1,0,.23V5.85a6.27,6.27,0,0,1,.55-.62,5,5,0,0,1,.67-.53,3.21,3.21,0,0,1,.82-.37,3.46,3.46,0,0,1,1-.13,4.13,4.13,0,0,1,1.51.27,3.52,3.52,0,0,1,2,2.07,4.84,4.84,0,0,1,.29,1.72v4.47a1,1,0,0,1-.05.33.3.3,0,0,1-.16.17.93.93,0,0,1-.32,0,.83.83,0,0,1-.34-.06.28.28,0,0,1-.17-.18,1,1,0,0,1-.05-.33V8.25a4,4,0,0,0-.3-1.62,2.31,2.31,0,0,0-.91-1.06,2.82,2.82,0,0,0-1.54-.38,3.08,3.08,0,0,0-1.58.38,2.54,2.54,0,0,0-1,1.06,3.46,3.46,0,0,0-.36,1.62v4.48a1,1,0,0,1,0,.33.29.29,0,0,1-.17.17A1.06,1.06,0,0,1,45.31,13.28Z"/><path class="cls-2" d="M59.55,13.3A4.33,4.33,0,0,1,57.9,13,3.92,3.92,0,0,1,56.56,12a4.17,4.17,0,0,1-.89-1.45,5.1,5.1,0,0,1-.32-1.87,4.89,4.89,0,0,1,.32-1.83,4.27,4.27,0,0,1,.89-1.43,4,4,0,0,1,1.34-.92,4.15,4.15,0,0,1,1.65-.32,4.34,4.34,0,0,1,1.71.32,4,4,0,0,1,1.34.93,4.36,4.36,0,0,1,.89,1.45,5.18,5.18,0,0,1,.31,1.86,5.17,5.17,0,0,1-.31,1.85,4.13,4.13,0,0,1-.89,1.42,4,4,0,0,1-1.34.93A4.53,4.53,0,0,1,59.55,13.3Zm.17-1a3.3,3.3,0,0,0,1.69-.44,3.35,3.35,0,0,0,1.18-1.24A3.72,3.72,0,0,0,63,8.78a3.81,3.81,0,0,0-.43-1.86A3.26,3.26,0,0,0,61.4,5.67a3.2,3.2,0,0,0-1.68-.45A3.24,3.24,0,0,0,58,5.67a3.14,3.14,0,0,0-1.2,1.25,3.82,3.82,0,0,0-.44,1.86,3.73,3.73,0,0,0,.44,1.83A3.18,3.18,0,0,0,58,11.85,3.33,3.33,0,0,0,59.72,12.29Zm3.91,1a.63.63,0,0,1-.43-.13.66.66,0,0,1-.12-.44V.63a1,1,0,0,1,.05-.35A.32.32,0,0,1,63.3.09a.87.87,0,0,1,.31,0,.85.85,0,0,1,.32,0,.37.37,0,0,1,.18.19,1,1,0,0,1,0,.33v12.1a1.09,1.09,0,0,1,0,.34.32.32,0,0,1-.17.19A.67.67,0,0,1,63.63,13.3Z"/><path class="cls-2" d="M75.11,13.28a.46.46,0,0,1-.38-.13,1,1,0,0,1-.16-.5V11.38A4,4,0,0,1,71,13.3,4.26,4.26,0,0,1,69.32,13a4.34,4.34,0,0,1-1.38-1A4.65,4.65,0,0,1,67,10.52a4.84,4.84,0,0,1-.33-1.8A4.57,4.57,0,0,1,67,7,4.37,4.37,0,0,1,68,5.56a4.2,4.2,0,0,1,1.39-1A4,4,0,0,1,71,4.24a4.58,4.58,0,0,1,1.53.22,4.07,4.07,0,0,1,1.12.63,5.56,5.56,0,0,1,.88.93V4.94a.86.86,0,0,1,.13-.54.49.49,0,0,1,.43-.16.6.6,0,0,1,.29.06.4.4,0,0,1,.15.22,1.5,1.5,0,0,1,.05.42v7.71a1.22,1.22,0,0,1-.05.37.28.28,0,0,1-.16.2A.67.67,0,0,1,75.11,13.28Zm-3.86-1a3,3,0,0,0,1.65-.46,3.29,3.29,0,0,0,1.18-1.27,3.74,3.74,0,0,0,.44-1.82,3.77,3.77,0,0,0-.46-1.88,3.38,3.38,0,0,0-1.21-1.25,3.2,3.2,0,0,0-1.64-.44,3.47,3.47,0,0,0-1.82.47,3.41,3.41,0,0,0-1.22,1.28,3.87,3.87,0,0,0-.44,1.86,3.69,3.69,0,0,0,.44,1.8,3.2,3.2,0,0,0,1.24,1.26A3.66,3.66,0,0,0,71.25,12.31Z"/><path class="cls-2" d="M79.1,13.28a.68.68,0,0,1-.31-.06.29.29,0,0,1-.16-.18,1,1,0,0,1,0-.33v-8a.72.72,0,0,1,0-.29.33.33,0,0,1,.17-.16.93.93,0,0,1,.31,0,.49.49,0,0,1,.38.11.51.51,0,0,1,.12.38V5.87a2,2,0,0,1,.48-.7,3.19,3.19,0,0,1,.72-.53,4.14,4.14,0,0,1,.82-.33,3.51,3.51,0,0,1,.83-.11,2.84,2.84,0,0,1,1.22.26,3,3,0,0,1,1,.75,4.32,4.32,0,0,1,.71,1.19,6.85,6.85,0,0,1,.88-1.24,2.69,2.69,0,0,1,1-.72A3.15,3.15,0,0,1,88.5,4.2a3,3,0,0,1,1.8.53,3.29,3.29,0,0,1,1.07,1.48,6.36,6.36,0,0,1,.36,2.25v4.27a1,1,0,0,1,0,.33.27.27,0,0,1-.16.17.85.85,0,0,1-.32,0,.75.75,0,0,1-.33-.06A.26.26,0,0,1,90.7,13a.76.76,0,0,1,0-.33V8.44a5.52,5.52,0,0,0-.24-1.71A2.52,2.52,0,0,0,89.7,5.6a1.8,1.8,0,0,0-1.24-.41A2.49,2.49,0,0,0,87,5.6a2.8,2.8,0,0,0-1,1.13,3.84,3.84,0,0,0-.36,1.71v4.31a.61.61,0,0,1-.12.39.56.56,0,0,1-.31.17.53.53,0,0,1-.33-.05.49.49,0,0,1-.19-.1.42.42,0,0,1-.11-.18,2.13,2.13,0,0,1,0-.27V8.44a5.52,5.52,0,0,0-.24-1.71,2.52,2.52,0,0,0-.71-1.13,1.8,1.8,0,0,0-1.24-.41A2.46,2.46,0,0,0,81,5.6a2.8,2.8,0,0,0-1,1.13,3.84,3.84,0,0,0-.36,1.71v4.29a1,1,0,0,1-.05.33.29.29,0,0,1-.17.17A1,1,0,0,1,79.1,13.28Z"/><path class="cls-2" d="M98.91,13.34A5.36,5.36,0,0,1,97,13a4.27,4.27,0,0,1-2.44-2.46,5,5,0,0,1-.34-1.9,4.24,4.24,0,0,1,2.22-3.79,5,5,0,0,1,2.4-.58,4.5,4.5,0,0,1,1.59.27,4.32,4.32,0,0,1,1.26.72,3.29,3.29,0,0,1,.82,1,2.64,2.64,0,0,1,.3,1.21,1.57,1.57,0,0,1-.43,1.27,1.66,1.66,0,0,1-1,.33h-6a2.61,2.61,0,0,0,.5,1.73A3.62,3.62,0,0,0,97.23,12a3.87,3.87,0,0,0,1.66.39,6.65,6.65,0,0,0,1-.06,3.76,3.76,0,0,0,.71-.16,5,5,0,0,0,.5-.21l.38-.21a1.91,1.91,0,0,1,.32-.16.78.78,0,0,1,.22,0,.22.22,0,0,1,.18.11.82.82,0,0,1,.13.24.56.56,0,0,1,0,.23c0,.12-.15.27-.45.47a5.47,5.47,0,0,1-1.24.53A5.83,5.83,0,0,1,98.91,13.34ZM95.36,8.21H101a1.55,1.55,0,0,0,.59-.09c.14-.06.21-.24.21-.56a1.88,1.88,0,0,0-.39-1.15,2.76,2.76,0,0,0-1.05-.84,3.4,3.4,0,0,0-1.52-.33,4.12,4.12,0,0,0-1.76.38,3.19,3.19,0,0,0-1.28,1.06A2.49,2.49,0,0,0,95.36,8.21Z"/><path class="cls-2" d="M105.9,13.28a.67.67,0,0,1-.3-.06.26.26,0,0,1-.16-.18,1,1,0,0,1,0-.33v-8a.72.72,0,0,1,0-.29.33.33,0,0,1,.17-.16.93.93,0,0,1,.31,0,.75.75,0,0,1,.23,0,.24.24,0,0,1,.15.08.38.38,0,0,1,.09.15.8.8,0,0,1,0,.23V5.85a6.27,6.27,0,0,1,.55-.62,5,5,0,0,1,.67-.53,3.21,3.21,0,0,1,.82-.37,3.46,3.46,0,0,1,1-.13,4.13,4.13,0,0,1,1.51.27,3.52,3.52,0,0,1,2,2.07,4.84,4.84,0,0,1,.29,1.72v4.47a1,1,0,0,1-.05.33.3.3,0,0,1-.16.17.93.93,0,0,1-.32,0,.83.83,0,0,1-.34-.06.28.28,0,0,1-.17-.18,1,1,0,0,1,0-.33V8.25a4,4,0,0,0-.3-1.62A2.31,2.31,0,0,0,111,5.57a2.82,2.82,0,0,0-1.54-.38,3.08,3.08,0,0,0-1.58.38,2.54,2.54,0,0,0-1,1.06,3.46,3.46,0,0,0-.36,1.62v4.48a1,1,0,0,1,0,.33.29.29,0,0,1-.17.17A1.06,1.06,0,0,1,105.9,13.28Z"/><path class="cls-2" d="M116,4.48l1.69,0,2.64,0a1.06,1.06,0,0,1,.34,0,.35.35,0,0,1,.18.16.87.87,0,0,1,.05.31,1,1,0,0,1,0,.33.31.31,0,0,1-.17.17.85.85,0,0,1-.32,0l-2.68,0-1.73,0a.5.5,0,0,1-.41-.13.59.59,0,0,1-.12-.42.53.53,0,0,1,.13-.4A.66.66,0,0,1,116,4.48Zm4.22,8.82a5.89,5.89,0,0,1-1.44-.15,2.2,2.2,0,0,1-.94-.48,1.73,1.73,0,0,1-.51-.86,5.11,5.11,0,0,1-.15-1.34V1.73a1,1,0,0,1,.05-.35.26.26,0,0,1,.16-.18.64.64,0,0,1,.3-.06,1,1,0,0,1,.33.05.31.31,0,0,1,.19.16.85.85,0,0,1,.05.32v8.84a3.41,3.41,0,0,0,.11.94,1,1,0,0,0,.32.52,1.22,1.22,0,0,0,.6.22,8,8,0,0,0,.91,0,1,1,0,0,1,.35,0,.35.35,0,0,1,.18.16.75.75,0,0,1,.06.33.7.7,0,0,1-.06.32.31.31,0,0,1-.18.16A1,1,0,0,1,120.25,13.3Z"/><path class="cls-2" d="M131.17,13.28a.49.49,0,0,1-.38-.13,1.09,1.09,0,0,1-.15-.5V11.38a4.49,4.49,0,0,1-.65.81,3.94,3.94,0,0,1-2.88,1.11A4.17,4.17,0,0,1,124,12a4.65,4.65,0,0,1-.92-1.45,4.84,4.84,0,0,1-.33-1.8A4.57,4.57,0,0,1,123.09,7,4.37,4.37,0,0,1,124,5.56a4.2,4.2,0,0,1,1.39-1,4,4,0,0,1,1.7-.35,4.66,4.66,0,0,1,1.53.22,4.07,4.07,0,0,1,1.12.63,5.56,5.56,0,0,1,.88.93V4.94a.86.86,0,0,1,.13-.54.48.48,0,0,1,.42-.16.61.61,0,0,1,.3.06.4.4,0,0,1,.15.22,1.5,1.5,0,0,1,.05.42v7.71a1.22,1.22,0,0,1-.05.37.3.3,0,0,1-.16.2A.68.68,0,0,1,131.17,13.28Zm-3.85-1a3,3,0,0,0,1.65-.46,3.36,3.36,0,0,0,1.18-1.27,3.74,3.74,0,0,0,.43-1.82,3.76,3.76,0,0,0-.45-1.88,3.46,3.46,0,0,0-1.21-1.25,3.22,3.22,0,0,0-1.64-.44,3.45,3.45,0,0,0-1.82.47,3.41,3.41,0,0,0-1.22,1.28,3.87,3.87,0,0,0-.44,1.86,3.69,3.69,0,0,0,.44,1.8,3.24,3.24,0,0,0,1.23,1.26A3.73,3.73,0,0,0,127.32,12.31Z"/><path class="cls-2" d="M137.14,13.3a4,4,0,0,1-1-.11,2.35,2.35,0,0,1-.75-.35,1.84,1.84,0,0,1-.54-.57,2.41,2.41,0,0,1-.33-.8,5.05,5.05,0,0,1-.1-1V.59a1,1,0,0,1,0-.35.28.28,0,0,1,.17-.18A.71.71,0,0,1,135,0a1.06,1.06,0,0,1,.34.05.31.31,0,0,1,.18.16.89.89,0,0,1,.05.32v10a2.3,2.3,0,0,0,.1.73,1.3,1.3,0,0,0,.29.53,1.14,1.14,0,0,0,.5.32,2,2,0,0,0,.67.11,1.08,1.08,0,0,1,.35,0,.35.35,0,0,1,.18.18.94.94,0,0,1,0,.66.33.33,0,0,1-.18.17A1,1,0,0,1,137.14,13.3Z"/><path class="cls-2" d="M149.47,13.34a5.32,5.32,0,0,1-1.91-.34,4.33,4.33,0,0,1-1.48-1,4.44,4.44,0,0,1-1-1.49,5,5,0,0,1-.34-1.9,4.19,4.19,0,0,1,.59-2.22A4.25,4.25,0,0,1,147,4.85a4.91,4.91,0,0,1,2.39-.58,4.51,4.51,0,0,1,1.6.27,4.14,4.14,0,0,1,1.25.72,3.33,3.33,0,0,1,.83,1,2.64,2.64,0,0,1,.3,1.21,1.57,1.57,0,0,1-.43,1.27,1.66,1.66,0,0,1-1,.33h-6a2.61,2.61,0,0,0,.5,1.73A3.62,3.62,0,0,0,147.79,12a3.84,3.84,0,0,0,1.66.39,6.65,6.65,0,0,0,1-.06,3.64,3.64,0,0,0,.7-.16,4.42,4.42,0,0,0,.51-.21l.38-.21a1.91,1.91,0,0,1,.32-.16.73.73,0,0,1,.22,0,.22.22,0,0,1,.18.11.82.82,0,0,1,.13.24.56.56,0,0,1,0,.23c0,.12-.15.27-.46.47a5.18,5.18,0,0,1-1.23.53A5.88,5.88,0,0,1,149.47,13.34Zm-3.55-5.13h5.66a1.55,1.55,0,0,0,.59-.09c.14-.06.21-.24.21-.56A1.88,1.88,0,0,0,152,6.41a2.72,2.72,0,0,0-1.06-.84,3.37,3.37,0,0,0-1.52-.33,4.07,4.07,0,0,0-1.75.38,3.3,3.3,0,0,0-1.29,1.06A2.48,2.48,0,0,0,145.92,8.21Z"/><path class="cls-2" d="M156.46,13.28a.61.61,0,0,1-.3-.06A.26.26,0,0,1,156,13a.76.76,0,0,1-.05-.33v-8a.58.58,0,0,1,.05-.29.3.3,0,0,1,.17-.16.9.9,0,0,1,.31,0,.75.75,0,0,1,.23,0,.28.28,0,0,1,.15.08.38.38,0,0,1,.09.15.8.8,0,0,1,0,.23V5.85a5.2,5.2,0,0,1,.55-.62,4.47,4.47,0,0,1,.67-.53,3.21,3.21,0,0,1,.82-.37,3.41,3.41,0,0,1,1-.13,4.17,4.17,0,0,1,1.51.27,3.51,3.51,0,0,1,1.2.8,3.67,3.67,0,0,1,.8,1.27,4.85,4.85,0,0,1,.28,1.72v4.47a1,1,0,0,1,0,.33.3.3,0,0,1-.16.17,1,1,0,0,1-.33,0,.75.75,0,0,1-.33-.06.28.28,0,0,1-.17-.18,1,1,0,0,1-.05-.33V8.25a4,4,0,0,0-.3-1.62,2.31,2.31,0,0,0-.91-1.06A2.82,2.82,0,0,0,160,5.19a3.06,3.06,0,0,0-1.58.38,2.57,2.57,0,0,0-1,1.06A3.46,3.46,0,0,0,157,8.25v4.48a1,1,0,0,1,0,.33.3.3,0,0,1-.18.17A1,1,0,0,1,156.46,13.28Z"/><path class="cls-2" d="M169.65,13.36a4.56,4.56,0,0,1-.89-.09,4.89,4.89,0,0,1-.85-.25,3.77,3.77,0,0,1-.75-.38,1.75,1.75,0,0,1-.74-.8.31.31,0,0,1,0-.25.44.44,0,0,1,.18-.21.46.46,0,0,1,.4-.19,1.23,1.23,0,0,1,.49.36,2,2,0,0,0,.44.35,3.77,3.77,0,0,0,.57.28,4.24,4.24,0,0,0,.61.17,2.91,2.91,0,0,0,.57.06,3.16,3.16,0,0,0,1.69-.41,1.25,1.25,0,0,0,.64-1.11,1.44,1.44,0,0,0-.13-.64,1.37,1.37,0,0,0-.36-.46,2.75,2.75,0,0,0-.52-.34,4.91,4.91,0,0,0-.65-.24c-.23-.08-.47-.14-.71-.2s-.71-.19-1.06-.3a4.45,4.45,0,0,1-.94-.41,2.05,2.05,0,0,1-.67-.64,1.89,1.89,0,0,1-.26-1,2.17,2.17,0,0,1,.37-1.25,2.49,2.49,0,0,1,1-.84,3.71,3.71,0,0,1,1.54-.3,5.13,5.13,0,0,1,.81.06,3.79,3.79,0,0,1,.72.2,4,4,0,0,1,.62.32,3.2,3.2,0,0,1,.55.42.66.66,0,0,1,.24.38.45.45,0,0,1-.13.36.59.59,0,0,1-.36.22.47.47,0,0,1-.4-.18,2.62,2.62,0,0,0-.64-.48,3.61,3.61,0,0,0-.68-.28,2.92,2.92,0,0,0-.73-.09,2.57,2.57,0,0,0-1,.18,1.47,1.47,0,0,0-.67.51,1.28,1.28,0,0,0-.24.77.85.85,0,0,0,.16.54,1.3,1.3,0,0,0,.43.37,3.29,3.29,0,0,0,.62.27l.76.23,1.16.33a5,5,0,0,1,1.08.47,2.64,2.64,0,0,1,.79.77,2.3,2.3,0,0,1,.3,1.24,2.12,2.12,0,0,1-1,1.82A4.07,4.07,0,0,1,169.65,13.36Z"/><path class="cls-2" d="M180,13.34A5.28,5.28,0,0,1,178,13a4.24,4.24,0,0,1-2.45-2.46,5.22,5.22,0,0,1-.34-1.9,4.22,4.22,0,0,1,2.23-3.79,4.89,4.89,0,0,1,2.39-.58,4.59,4.59,0,0,1,1.6.27,4.14,4.14,0,0,1,1.25.72,3.47,3.47,0,0,1,.83,1,2.76,2.76,0,0,1,.29,1.21,1.54,1.54,0,0,1-.43,1.27,1.63,1.63,0,0,1-1,.33h-6a2.67,2.67,0,0,0,.51,1.73A3.59,3.59,0,0,0,178.26,12a3.92,3.92,0,0,0,1.67.39,6.85,6.85,0,0,0,1-.06,3.83,3.83,0,0,0,.7-.16,4.2,4.2,0,0,0,.5-.21l.38-.21a2,2,0,0,1,.33-.16.66.66,0,0,1,.21,0,.19.19,0,0,1,.18.11.87.87,0,0,1,.14.24.79.79,0,0,1,0,.23c0,.12-.16.27-.46.47a5.28,5.28,0,0,1-1.24.53A5.77,5.77,0,0,1,180,13.34Zm-3.56-5.13h5.67a1.5,1.5,0,0,0,.58-.09c.14-.06.21-.24.21-.56a1.88,1.88,0,0,0-.39-1.15,2.76,2.76,0,0,0-1.05-.84,3.37,3.37,0,0,0-1.52-.33,4.15,4.15,0,0,0-1.76.38,3.26,3.26,0,0,0-1.28,1.06A2.49,2.49,0,0,0,176.39,8.21Z"/><path class="cls-2" d="M186.94,13.28a.68.68,0,0,1-.31-.06.29.29,0,0,1-.16-.18,1,1,0,0,1-.05-.33v-8a.72.72,0,0,1,.05-.29.33.33,0,0,1,.17-.16,1,1,0,0,1,.32,0,.73.73,0,0,1,.22,0,.27.27,0,0,1,.16.08.53.53,0,0,1,.08.15.8.8,0,0,1,0,.23V5.85a6.27,6.27,0,0,1,.55-.62,4.56,4.56,0,0,1,.68-.53,3.15,3.15,0,0,1,.81-.37,3.46,3.46,0,0,1,1-.13,4.1,4.1,0,0,1,1.51.27,3.55,3.55,0,0,1,1.21.8,3.67,3.67,0,0,1,.8,1.27,4.85,4.85,0,0,1,.28,1.72v4.47a1,1,0,0,1,0,.33.27.27,0,0,1-.16.17.85.85,0,0,1-.32,0,.75.75,0,0,1-.33-.06.29.29,0,0,1-.18-.18,1,1,0,0,1,0-.33V8.25a3.87,3.87,0,0,0-.31-1.62A2.25,2.25,0,0,0,192,5.57a2.79,2.79,0,0,0-1.54-.38,3,3,0,0,0-1.57.38,2.51,2.51,0,0,0-1,1.06,3.46,3.46,0,0,0-.36,1.62v4.48a1,1,0,0,1-.05.33.29.29,0,0,1-.17.17A1,1,0,0,1,186.94,13.28Zm2.3-12.6a1.51,1.51,0,0,1,.81.22l.64.43a1,1,0,0,0,.56.21.63.63,0,0,0,.28-.08,1.15,1.15,0,0,0,.26-.19A.8.8,0,0,0,192,1a.41.41,0,0,1,.29-.25.48.48,0,0,1,.4.06.73.73,0,0,1,.21.16.3.3,0,0,1,.09.2,1.08,1.08,0,0,1-.24.67,1.79,1.79,0,0,1-.61.51,2,2,0,0,1-.86.18,1.4,1.4,0,0,1-.69-.2c-.24-.14-.46-.29-.68-.43a1.1,1.1,0,0,0-.64-.22.94.94,0,0,0-.45.14.79.79,0,0,0-.33.35.41.41,0,0,1-.28.18.58.58,0,0,1-.39,0,.62.62,0,0,1-.22-.28.42.42,0,0,1,0-.33,2,2,0,0,1,.4-.54,2.1,2.1,0,0,1,.6-.38A1.58,1.58,0,0,1,189.24.68Z"/><path class="cls-2" d="M205.1,13.28a.47.47,0,0,1-.38-.13,1,1,0,0,1-.15-.5V11.38a4.19,4.19,0,0,1-.66.81,3.8,3.8,0,0,1-1.16.78,4,4,0,0,1-1.71.33,4.17,4.17,0,0,1-3.1-1.33,4.65,4.65,0,0,1-.92-1.45,4.84,4.84,0,0,1-.34-1.8A4.57,4.57,0,0,1,197,7,4.37,4.37,0,0,1,198,5.56a4.27,4.27,0,0,1,1.38-1A4.09,4.09,0,0,1,201,4.24a4.56,4.56,0,0,1,1.52.22,4.12,4.12,0,0,1,1.13.63,6,6,0,0,1,.88.93V4.94a.94.94,0,0,1,.12-.54.52.52,0,0,1,.43-.16.61.61,0,0,1,.3.06.45.45,0,0,1,.15.22,1.56,1.56,0,0,1,0,.42v7.71a1.26,1.26,0,0,1,0,.37.3.3,0,0,1-.16.2A.68.68,0,0,1,205.1,13.28Zm-3.86-1a3.08,3.08,0,0,0,1.66-.46,3.44,3.44,0,0,0,1.18-1.27,3.74,3.74,0,0,0,.43-1.82,3.76,3.76,0,0,0-.45-1.88,3.46,3.46,0,0,0-1.21-1.25,3.22,3.22,0,0,0-1.64-.44,3.51,3.51,0,0,0-1.83.47,3.38,3.38,0,0,0-1.21,1.28,3.87,3.87,0,0,0-.44,1.86,3.69,3.69,0,0,0,.44,1.8,3.24,3.24,0,0,0,1.23,1.26A3.69,3.69,0,0,0,201.24,12.31Z"/><path class="cls-2" d="M209.09,13.3a.61.61,0,0,1-.3-.06.28.28,0,0,1-.16-.19.84.84,0,0,1,0-.34V4.79a.81.81,0,0,1,0-.35.25.25,0,0,1,.16-.17,1.27,1.27,0,0,1,.32,0,1.3,1.3,0,0,1,.31,0,.26.26,0,0,1,.18.17.79.79,0,0,1,.06.35v.8A6.06,6.06,0,0,1,210,5a2.05,2.05,0,0,1,.46-.47,1.87,1.87,0,0,1,.65-.31,3.4,3.4,0,0,1,1-.12,2.47,2.47,0,0,1,.56.06,3.37,3.37,0,0,1,.48.15,3,3,0,0,1,.37.21.94.94,0,0,1,.22.23.36.36,0,0,1,.08.23.51.51,0,0,1-.21.41.6.6,0,0,1-.38.18.62.62,0,0,1-.31-.07,2.39,2.39,0,0,1-.22-.16,1,1,0,0,0-.34-.16,2.49,2.49,0,0,0-.71-.07,1.88,1.88,0,0,0-.62.12,2.71,2.71,0,0,0-.66.37,2,2,0,0,0-.52.65,2,2,0,0,0-.21,1v5.55a.76.76,0,0,1,0,.33.29.29,0,0,1-.17.17A1,1,0,0,1,209.09,13.3Z"/><path class="cls-2" d="M229.52,13.28a.46.46,0,0,1-.38-.13,1,1,0,0,1-.16-.5V11.38a4,4,0,0,1-3.53,1.92,4.26,4.26,0,0,1-1.72-.35,4.46,4.46,0,0,1-1.38-1,4.65,4.65,0,0,1-.92-1.45,4.84,4.84,0,0,1-.33-1.8A4.57,4.57,0,0,1,221.43,7a4.37,4.37,0,0,1,.93-1.42,4.2,4.2,0,0,1,1.39-1,4,4,0,0,1,1.7-.35,4.58,4.58,0,0,1,1.53.22,4.07,4.07,0,0,1,1.12.63A5.56,5.56,0,0,1,229,6V4.94a.86.86,0,0,1,.13-.54.49.49,0,0,1,.43-.16.6.6,0,0,1,.29.06.4.4,0,0,1,.15.22,1.5,1.5,0,0,1,.05.42v7.71A1.22,1.22,0,0,1,230,13a.28.28,0,0,1-.16.2A.67.67,0,0,1,229.52,13.28Zm-3.86-1a3,3,0,0,0,1.65-.46,3.29,3.29,0,0,0,1.18-1.27,3.74,3.74,0,0,0,.44-1.82,3.77,3.77,0,0,0-.46-1.88,3.38,3.38,0,0,0-1.21-1.25,3.2,3.2,0,0,0-1.64-.44,3.47,3.47,0,0,0-1.82.47,3.41,3.41,0,0,0-1.22,1.28,3.87,3.87,0,0,0-.44,1.86,3.69,3.69,0,0,0,.44,1.8,3.2,3.2,0,0,0,1.24,1.26A3.66,3.66,0,0,0,225.66,12.31Z"/><path class="cls-2" d="M235.48,13.3a4.08,4.08,0,0,1-1-.11,2.35,2.35,0,0,1-.75-.35,2.1,2.1,0,0,1-.54-.57,2.4,2.4,0,0,1-.32-.8,4.37,4.37,0,0,1-.11-1V.59a1,1,0,0,1,0-.35A.28.28,0,0,1,233,.06a.71.71,0,0,1,.31-.06,1.06,1.06,0,0,1,.34.05.31.31,0,0,1,.18.16.72.72,0,0,1,.05.32v10a2.63,2.63,0,0,0,.1.73,1.3,1.3,0,0,0,.29.53,1.2,1.2,0,0,0,.5.32,2,2,0,0,0,.67.11,1.08,1.08,0,0,1,.35,0,.29.29,0,0,1,.18.18.94.94,0,0,1,0,.66.28.28,0,0,1-.18.17A1,1,0,0,1,235.48,13.3Z"/><path class="cls-2" d="M244.2,13.28a.64.64,0,0,1-.3-.06.26.26,0,0,1-.16-.18,1,1,0,0,1-.05-.33v-8a.72.72,0,0,1,.05-.29.33.33,0,0,1,.17-.16.9.9,0,0,1,.31,0,.75.75,0,0,1,.23,0,.28.28,0,0,1,.15.08.38.38,0,0,1,.09.15.8.8,0,0,1,0,.23V5.85a5.2,5.2,0,0,1,.55-.62,4.47,4.47,0,0,1,.67-.53,3.21,3.21,0,0,1,.82-.37,3.46,3.46,0,0,1,1-.13,4.17,4.17,0,0,1,1.51.27,3.51,3.51,0,0,1,1.2.8,3.67,3.67,0,0,1,.8,1.27,4.84,4.84,0,0,1,.29,1.72v4.47a1,1,0,0,1-.05.33.3.3,0,0,1-.16.17,1,1,0,0,1-.33,0,.75.75,0,0,1-.33-.06.28.28,0,0,1-.17-.18,1,1,0,0,1-.05-.33V8.25a4,4,0,0,0-.3-1.62,2.31,2.31,0,0,0-.91-1.06,2.82,2.82,0,0,0-1.54-.38,3.06,3.06,0,0,0-1.58.38,2.57,2.57,0,0,0-1,1.06,3.46,3.46,0,0,0-.36,1.62v4.48a1,1,0,0,1,0,.33.3.3,0,0,1-.18.17A1,1,0,0,1,244.2,13.28Z"/><path class="cls-2" d="M255.13,1.5a1,1,0,0,1-.42-.08.47.47,0,0,1-.22-.24,1.35,1.35,0,0,1-.07-.44,1.14,1.14,0,0,1,.07-.42.45.45,0,0,1,.23-.22,1.27,1.27,0,0,1,.43-.06.94.94,0,0,1,.41.07.4.4,0,0,1,.22.24,1.12,1.12,0,0,1,.07.45,1,1,0,0,1-.07.41.37.37,0,0,1-.22.22A1,1,0,0,1,255.13,1.5Zm0,11.8a.76.76,0,0,1-.32-.06.3.3,0,0,1-.17-.18,1,1,0,0,1,0-.33V4.79a1,1,0,0,1,0-.33.3.3,0,0,1,.17-.18,1.09,1.09,0,0,1,.34,0,.89.89,0,0,1,.32,0,.31.31,0,0,1,.16.18,1.11,1.11,0,0,1,.05.36v7.92a1,1,0,0,1-.05.33.29.29,0,0,1-.17.17A1,1,0,0,1,255.13,13.3Z"/><path class="cls-2" d="M259.42,13.28a.61.61,0,0,1-.3-.06A.26.26,0,0,1,259,13a.76.76,0,0,1,0-.33v-8a.58.58,0,0,1,0-.29.3.3,0,0,1,.17-.16.9.9,0,0,1,.31,0,.8.8,0,0,1,.23,0,.28.28,0,0,1,.15.08.38.38,0,0,1,.09.15,1.52,1.52,0,0,1,0,.23V5.85a6.4,6.4,0,0,1,.56-.62,4.47,4.47,0,0,1,.67-.53,3.21,3.21,0,0,1,.82-.37,3.39,3.39,0,0,1,1-.13,4.1,4.1,0,0,1,1.51.27,3.46,3.46,0,0,1,1.21.8,3.67,3.67,0,0,1,.8,1.27,4.85,4.85,0,0,1,.28,1.72v4.47a1,1,0,0,1,0,.33.3.3,0,0,1-.16.17,1,1,0,0,1-.33,0,.75.75,0,0,1-.33-.06.28.28,0,0,1-.17-.18,1,1,0,0,1-.05-.33V8.25a4,4,0,0,0-.3-1.62,2.37,2.37,0,0,0-.91-1.06,2.82,2.82,0,0,0-1.54-.38,3.06,3.06,0,0,0-1.58.38,2.57,2.57,0,0,0-1,1.06A3.46,3.46,0,0,0,260,8.25v4.48a.76.76,0,0,1-.05.33.26.26,0,0,1-.17.17A1,1,0,0,1,259.42,13.28Zm2.3-12.6a1.54,1.54,0,0,1,.82.22c.23.15.44.29.63.43a1,1,0,0,0,.56.21.6.6,0,0,0,.28-.08,1.48,1.48,0,0,0,.27-.19.8.8,0,0,0,.18-.24.39.39,0,0,1,.28-.25.48.48,0,0,1,.4.06.54.54,0,0,1,.21.16.3.3,0,0,1,.09.2,1.07,1.07,0,0,1-.23.67,1.83,1.83,0,0,1-.62.51,2,2,0,0,1-.86.18,1.43,1.43,0,0,1-.69-.2l-.67-.43a1.13,1.13,0,0,0-.65-.22.94.94,0,0,0-.45.14.85.85,0,0,0-.33.35.39.39,0,0,1-.27.18.58.58,0,0,1-.39,0,.51.51,0,0,1-.22-.28.38.38,0,0,1,0-.33,1.8,1.8,0,0,1,.4-.54,1.93,1.93,0,0,1,.59-.38A1.62,1.62,0,0,1,261.72.68Z"/><path class="cls-2" d="M273.69,13.38A4.52,4.52,0,0,1,271.9,13a5,5,0,0,1-1.47-1,4.67,4.67,0,0,1-1-1.47,4.42,4.42,0,0,1-.36-1.78,4.62,4.62,0,0,1,.35-1.8,4.72,4.72,0,0,1,1-1.46,4.59,4.59,0,0,1,1.47-1,4.54,4.54,0,0,1,1.77-.35,4.49,4.49,0,0,1,4.54,4.58,4.51,4.51,0,0,1-.35,1.82,4.44,4.44,0,0,1-1,1.46,4.39,4.39,0,0,1-1.43,1A4.32,4.32,0,0,1,273.69,13.38Zm0-1a3.32,3.32,0,0,0,1.76-.48,3.52,3.52,0,0,0,1.25-1.32,3.67,3.67,0,0,0,.47-1.83,3.54,3.54,0,0,0-.46-1.82,3.31,3.31,0,0,0-1.24-1.25,3.58,3.58,0,0,0-1.8-.44,3.39,3.39,0,0,0-1.77.46,3.46,3.46,0,0,0-1.26,1.26,3.56,3.56,0,0,0-.46,1.81,3.64,3.64,0,0,0,.46,1.84,3.44,3.44,0,0,0,3,1.77Z"/><path class="cls-2" d="M8.42,36.28A.46.46,0,0,1,8,36.15a.89.89,0,0,1-.15-.5V34.38a4.19,4.19,0,0,1-.66.81A3.92,3.92,0,0,1,6.07,36a4.06,4.06,0,0,1-1.72.33A4.26,4.26,0,0,1,2.63,36a4.46,4.46,0,0,1-1.38-1,4.65,4.65,0,0,1-.92-1.45A4.84,4.84,0,0,1,0,31.72,4.57,4.57,0,0,1,.33,30a4.37,4.37,0,0,1,.93-1.42,4.2,4.2,0,0,1,1.39-1,4,4,0,0,1,1.7-.35,4.58,4.58,0,0,1,1.53.22A4.07,4.07,0,0,1,7,28.09a6.06,6.06,0,0,1,.89.93V27.94A.94.94,0,0,1,8,27.4a.49.49,0,0,1,.43-.16.6.6,0,0,1,.29.06.4.4,0,0,1,.15.22,1.5,1.5,0,0,1,0,.42v7.71a1.22,1.22,0,0,1,0,.37.28.28,0,0,1-.16.2A.64.64,0,0,1,8.42,36.28Zm-3.86-1a3,3,0,0,0,1.65-.46,3.29,3.29,0,0,0,1.18-1.27,3.74,3.74,0,0,0,.44-1.82,3.66,3.66,0,0,0-.46-1.88,3.35,3.35,0,0,0-1.2-1.25,3.23,3.23,0,0,0-1.65-.44,3.5,3.5,0,0,0-1.82.47,3.41,3.41,0,0,0-1.22,1.28A3.87,3.87,0,0,0,1,31.8a3.69,3.69,0,0,0,.44,1.8,3.26,3.26,0,0,0,1.24,1.26A3.66,3.66,0,0,0,4.56,35.31Z"/><path class="cls-2" d="M20.54,36.32A3.82,3.82,0,0,1,19,36a3.37,3.37,0,0,1-1.2-.8A3.58,3.58,0,0,1,17,34a4.81,4.81,0,0,1-.28-1.72V27.79a1,1,0,0,1,0-.33.32.32,0,0,1,.18-.18.9.9,0,0,1,.31,0,1,1,0,0,1,.33.05.33.33,0,0,1,.17.18,1.06,1.06,0,0,1,.05.34v4.46a4.06,4.06,0,0,0,.3,1.61A2.35,2.35,0,0,0,19.06,35a2.83,2.83,0,0,0,1.52.38A3.17,3.17,0,0,0,22.17,35a2.53,2.53,0,0,0,1-1.07,3.47,3.47,0,0,0,.36-1.61V27.79a1,1,0,0,1,.05-.33.3.3,0,0,1,.17-.18,1,1,0,0,1,.33,0,.78.78,0,0,1,.3.05.37.37,0,0,1,.17.18,1.09,1.09,0,0,1,0,.34v8a.75.75,0,0,1,0,.28.3.3,0,0,1-.17.16.85.85,0,0,1-.32.05.8.8,0,0,1-.23,0,.36.36,0,0,1-.15-.08.34.34,0,0,1-.08-.16.69.69,0,0,1,0-.22V34.67a6.31,6.31,0,0,1-.55.61,3.88,3.88,0,0,1-.68.53,3.08,3.08,0,0,1-.82.38A4,4,0,0,1,20.54,36.32Z"/><path class="cls-2" d="M30.46,36.36a4.56,4.56,0,0,1-.89-.09,4.89,4.89,0,0,1-.85-.25,3.77,3.77,0,0,1-.75-.38,2,2,0,0,1-.55-.48,1.46,1.46,0,0,1-.19-.32.31.31,0,0,1,0-.25.44.44,0,0,1,.18-.21.46.46,0,0,1,.4-.19,1.23,1.23,0,0,1,.49.36,1.78,1.78,0,0,0,.44.35,3,3,0,0,0,.57.28,4.24,4.24,0,0,0,.61.17,2.91,2.91,0,0,0,.57.06A3.16,3.16,0,0,0,32.17,35a1.25,1.25,0,0,0,.64-1.11,1.44,1.44,0,0,0-.13-.64,1.37,1.37,0,0,0-.36-.46,2.75,2.75,0,0,0-.52-.34,5.49,5.49,0,0,0-.65-.24c-.23-.08-.47-.14-.71-.2s-.71-.19-1.06-.3a4.24,4.24,0,0,1-.94-.41,2,2,0,0,1-.67-.64,1.89,1.89,0,0,1-.26-1,2.17,2.17,0,0,1,.37-1.25,2.43,2.43,0,0,1,1-.84,3.68,3.68,0,0,1,1.54-.3,5.13,5.13,0,0,1,.81.06,3.52,3.52,0,0,1,1.34.52,2.79,2.79,0,0,1,.54.42.64.64,0,0,1,.25.38.49.49,0,0,1-.13.36.64.64,0,0,1-.36.22.47.47,0,0,1-.4-.18,2.82,2.82,0,0,0-.64-.48,3.61,3.61,0,0,0-.68-.28,3,3,0,0,0-.73-.09,2.57,2.57,0,0,0-1,.18,1.55,1.55,0,0,0-.68.51,1.34,1.34,0,0,0-.23.77.85.85,0,0,0,.16.54,1.3,1.3,0,0,0,.43.37,3.29,3.29,0,0,0,.62.27l.76.23,1.16.33a5.26,5.26,0,0,1,1.08.47,2.49,2.49,0,0,1,.78.77,2.21,2.21,0,0,1,.31,1.24,2.12,2.12,0,0,1-1,1.82A4.09,4.09,0,0,1,30.46,36.36Z"/><path class="cls-2" d="M44.48,36.28a.46.46,0,0,1-.38-.13.89.89,0,0,1-.15-.5V34.38a4.19,4.19,0,0,1-.66.81,3.92,3.92,0,0,1-1.16.78,4.06,4.06,0,0,1-1.72.33A4.26,4.26,0,0,1,38.69,36a4.46,4.46,0,0,1-1.38-1,4.65,4.65,0,0,1-1.25-3.25A4.57,4.57,0,0,1,36.39,30a4.72,4.72,0,0,1,.93-1.42,4.31,4.31,0,0,1,1.39-1,4,4,0,0,1,1.7-.35,4.58,4.58,0,0,1,1.53.22,3.92,3.92,0,0,1,1.12.63A5.62,5.62,0,0,1,44,29V27.94a.94.94,0,0,1,.12-.54.49.49,0,0,1,.43-.16.6.6,0,0,1,.29.06.4.4,0,0,1,.15.22,1.2,1.2,0,0,1,.05.42v7.71a1,1,0,0,1-.05.37.28.28,0,0,1-.16.2A.64.64,0,0,1,44.48,36.28Zm-3.86-1a3,3,0,0,0,1.65-.46,3.29,3.29,0,0,0,1.18-1.27,3.74,3.74,0,0,0,.44-1.82,3.66,3.66,0,0,0-.46-1.88,3.35,3.35,0,0,0-1.2-1.25,3.23,3.23,0,0,0-1.65-.44,3.5,3.5,0,0,0-1.82.47,3.41,3.41,0,0,0-1.22,1.28,3.87,3.87,0,0,0-.43,1.86,3.69,3.69,0,0,0,.43,1.8,3.26,3.26,0,0,0,1.24,1.26A3.66,3.66,0,0,0,40.62,35.31Z"/><path class="cls-2" d="M48.47,36.3a.68.68,0,0,1-.31-.06.31.31,0,0,1-.16-.19,1.06,1.06,0,0,1,0-.34V27.79a1,1,0,0,1,0-.35.27.27,0,0,1,.16-.17,1.42,1.42,0,0,1,.33,0,1.35,1.35,0,0,1,.31,0,.3.3,0,0,1,.18.17.79.79,0,0,1,.06.35v.8a4.63,4.63,0,0,1,.38-.59,1.89,1.89,0,0,1,1.11-.78,3.4,3.4,0,0,1,1-.12,2.47,2.47,0,0,1,.56.06,2.88,2.88,0,0,1,.47.15,2.43,2.43,0,0,1,.37.21.83.83,0,0,1,.23.23.43.43,0,0,1,.08.23.51.51,0,0,1-.21.41.62.62,0,0,1-.38.18.59.59,0,0,1-.31-.07,1.53,1.53,0,0,1-.22-.16,1,1,0,0,0-.35-.16,2.41,2.41,0,0,0-.7-.07,1.93,1.93,0,0,0-.63.12,2.85,2.85,0,0,0-.65.37,2,2,0,0,0-.52.65,2,2,0,0,0-.21.95v5.55a1,1,0,0,1,0,.33.29.29,0,0,1-.17.17A1,1,0,0,1,48.47,36.3Z"/><path class="cls-2" d="M65.17,36.3A5.55,5.55,0,0,1,63.26,36a4.37,4.37,0,0,1-1.49-.93,3.88,3.88,0,0,1-1-1.42,5.35,5.35,0,0,1,0-3.7,4.16,4.16,0,0,1,.95-1.44,4.29,4.29,0,0,1,1.47-.93,5.23,5.23,0,0,1,1.9-.32,3.87,3.87,0,0,1,1.28.22A4.52,4.52,0,0,1,67.6,28a2.08,2.08,0,0,1,.76.78.92.92,0,0,1,.13.36.35.35,0,0,1-.09.23.86.86,0,0,1-.26.21.56.56,0,0,1-.25.08.57.57,0,0,1-.44-.27A2.27,2.27,0,0,0,67,29a3.13,3.13,0,0,0-.58-.36,2.71,2.71,0,0,0-.63-.24,2.43,2.43,0,0,0-.65-.09,3.82,3.82,0,0,0-1.86.44A3.06,3.06,0,0,0,62,29.93a4.15,4.15,0,0,0,0,3.68,3.1,3.1,0,0,0,1.23,1.23,3.72,3.72,0,0,0,1.83.43,3.79,3.79,0,0,0,.88-.11,4,4,0,0,0,.83-.33,3.09,3.09,0,0,0,.69-.51l.25-.21A.39.39,0,0,1,68,34a.33.33,0,0,1,.22.09,1.23,1.23,0,0,1,.22.23.31.31,0,0,1,.09.18.55.55,0,0,1,0,.22.45.45,0,0,1-.12.21,4.09,4.09,0,0,1-1,.7,5.57,5.57,0,0,1-1.16.48A4.23,4.23,0,0,1,65.17,36.3Z"/><path class="cls-2" d="M75,36.38A4.43,4.43,0,0,1,73.21,36a5,5,0,0,1-1.48-1,4.64,4.64,0,0,1-1-1.47,4.57,4.57,0,0,1,0-3.58,4.52,4.52,0,0,1,1-1.46,4.7,4.7,0,0,1,1.47-1A4.54,4.54,0,0,1,75,27.18a4.5,4.5,0,0,1,3.94,2.23,4.59,4.59,0,0,1,.6,2.35,4.51,4.51,0,0,1-.35,1.82,4.29,4.29,0,0,1-1,1.46,4.39,4.39,0,0,1-1.43,1A4.32,4.32,0,0,1,75,36.38Zm0-1a3.3,3.3,0,0,0,1.76-.48,3.64,3.64,0,0,0,1.72-3.15A3.54,3.54,0,0,0,78,29.9a3.24,3.24,0,0,0-1.24-1.25,3.56,3.56,0,0,0-1.8-.44,3.41,3.41,0,0,0-1.77.46,3.46,3.46,0,0,0-1.26,1.26,3.56,3.56,0,0,0-.46,1.81,3.64,3.64,0,0,0,.46,1.84,3.52,3.52,0,0,0,1.27,1.3A3.45,3.45,0,0,0,75,35.35Z"/><path class="cls-2" d="M82.5,36.3a.68.68,0,0,1-.31-.06.31.31,0,0,1-.16-.19,1.06,1.06,0,0,1,0-.34V27.79a1,1,0,0,1,0-.35.27.27,0,0,1,.16-.17,1.42,1.42,0,0,1,.33,0,1.35,1.35,0,0,1,.31,0,.3.3,0,0,1,.18.17.79.79,0,0,1,.06.35v.8a4.63,4.63,0,0,1,.38-.59,1.89,1.89,0,0,1,1.11-.78,3.36,3.36,0,0,1,1-.12,2.47,2.47,0,0,1,.56.06,2.88,2.88,0,0,1,.47.15,2.43,2.43,0,0,1,.37.21,1,1,0,0,1,.23.23.43.43,0,0,1,.08.23.51.51,0,0,1-.21.41.62.62,0,0,1-.38.18.66.66,0,0,1-.32-.07,1.46,1.46,0,0,1-.21-.16,1,1,0,0,0-.35-.16,2.41,2.41,0,0,0-.7-.07,1.93,1.93,0,0,0-.63.12,2.85,2.85,0,0,0-.65.37,2,2,0,0,0-.52.65,2,2,0,0,0-.21.95v5.55a1,1,0,0,1,0,.33.29.29,0,0,1-.17.17A1,1,0,0,1,82.5,36.3Z"/><path class="cls-2" d="M90.34,36.3a.67.67,0,0,1-.3-.06.28.28,0,0,1-.16-.19,1.06,1.06,0,0,1,0-.34V27.79a1,1,0,0,1,0-.35.25.25,0,0,1,.16-.17,1.33,1.33,0,0,1,.32,0,1.45,1.45,0,0,1,.32,0,.3.3,0,0,1,.18.17,1,1,0,0,1,0,.35v.8c.13-.22.26-.42.38-.59a2.05,2.05,0,0,1,.46-.47,2,2,0,0,1,.66-.31,3.28,3.28,0,0,1,1-.12,2.4,2.4,0,0,1,.56.06,3,3,0,0,1,.48.15,3,3,0,0,1,.37.21,1,1,0,0,1,.23.23.41.41,0,0,1,.07.23.51.51,0,0,1-.21.41.58.58,0,0,1-.38.18.65.65,0,0,1-.31-.07,2.39,2.39,0,0,1-.22-.16.9.9,0,0,0-.34-.16,2.46,2.46,0,0,0-.7-.07,1.93,1.93,0,0,0-.63.12,2.48,2.48,0,0,0-.65.37,2,2,0,0,0-.74,1.6v5.55a1,1,0,0,1,0,.33.31.31,0,0,1-.17.17A1.11,1.11,0,0,1,90.34,36.3Z"/><path class="cls-2" d="M101.8,36.34A5.32,5.32,0,0,1,99.89,36a4.33,4.33,0,0,1-1.48-1,4.44,4.44,0,0,1-1-1.49,5,5,0,0,1-.34-1.9,4.19,4.19,0,0,1,.59-2.22,4.25,4.25,0,0,1,1.63-1.57,5,5,0,0,1,2.4-.58,4.5,4.5,0,0,1,1.59.27,4.14,4.14,0,0,1,1.25.72,3.19,3.19,0,0,1,.83,1,2.64,2.64,0,0,1,.3,1.21,1.57,1.57,0,0,1-.43,1.27,1.66,1.66,0,0,1-1,.33h-6a2.61,2.61,0,0,0,.5,1.73A3.62,3.62,0,0,0,100.12,35a3.84,3.84,0,0,0,1.66.39,6.65,6.65,0,0,0,1-.06,3.64,3.64,0,0,0,.7-.16,4.42,4.42,0,0,0,.51-.21l.38-.21a1.91,1.91,0,0,1,.32-.16.73.73,0,0,1,.22,0,.22.22,0,0,1,.18.11.82.82,0,0,1,.13.24.56.56,0,0,1,0,.23c0,.12-.15.27-.45.47a5.47,5.47,0,0,1-1.24.53A5.88,5.88,0,0,1,101.8,36.34Zm-3.55-5.13h5.66a1.55,1.55,0,0,0,.59-.09c.14-.06.21-.24.21-.56a1.88,1.88,0,0,0-.39-1.15,2.72,2.72,0,0,0-1.06-.84,3.37,3.37,0,0,0-1.52-.33,4.07,4.07,0,0,0-1.75.38,3.3,3.3,0,0,0-1.29,1.06A2.55,2.55,0,0,0,98.25,31.21Z"/><path class="cls-2" d="M112.4,36.3a5.59,5.59,0,0,1-1.91-.32,4.47,4.47,0,0,1-1.49-.93,3.88,3.88,0,0,1-1-1.42,5.35,5.35,0,0,1,0-3.7,4.16,4.16,0,0,1,.95-1.44,4.29,4.29,0,0,1,1.47-.93,5.26,5.26,0,0,1,1.9-.32,4,4,0,0,1,1.29.22,4.61,4.61,0,0,1,1.18.57,2.08,2.08,0,0,1,.76.78,1,1,0,0,1,.14.36.32.32,0,0,1-.1.23.82.82,0,0,1-.25.21.59.59,0,0,1-.26.08.58.58,0,0,1-.44-.27,2.22,2.22,0,0,0-.45-.47,3.13,3.13,0,0,0-.58-.36,2.62,2.62,0,0,0-.64-.24,2.43,2.43,0,0,0-.65-.09,3.82,3.82,0,0,0-1.86.44,3,3,0,0,0-1.23,1.23,4.07,4.07,0,0,0,0,3.68,3.14,3.14,0,0,0,1.22,1.23,3.76,3.76,0,0,0,1.84.43,3.7,3.7,0,0,0,.87-.11,4.31,4.31,0,0,0,.84-.33,3.27,3.27,0,0,0,.68-.51l.26-.21a.37.37,0,0,1,.25-.09.33.33,0,0,1,.22.09,1.23,1.23,0,0,1,.22.23.4.4,0,0,1,.1.18.81.81,0,0,1,0,.22.39.39,0,0,1-.13.21,3.72,3.72,0,0,1-1,.7,5.57,5.57,0,0,1-1.16.48A4.17,4.17,0,0,1,112.4,36.3Z"/><path class="cls-2" d="M118.08,27.48l1.69,0,2.65,0a1,1,0,0,1,.33.05.35.35,0,0,1,.18.16A.68.68,0,0,1,123,28a1,1,0,0,1,0,.33.3.3,0,0,1-.16.17,1,1,0,0,1-.33.05l-2.68,0-1.72,0a.51.51,0,0,1-.42-.13.59.59,0,0,1-.12-.42.49.49,0,0,1,.14-.4A.61.61,0,0,1,118.08,27.48Zm4.22,8.82a5.75,5.75,0,0,1-1.43-.15,2.15,2.15,0,0,1-.94-.48,1.74,1.74,0,0,1-.52-.86,5.11,5.11,0,0,1-.15-1.34V24.73a1,1,0,0,1,0-.35.26.26,0,0,1,.16-.18.67.67,0,0,1,.3-.06,1.06,1.06,0,0,1,.34.05.31.31,0,0,1,.18.16.69.69,0,0,1,0,.32v8.84a3.41,3.41,0,0,0,.11.94,1,1,0,0,0,.32.52,1.26,1.26,0,0,0,.6.22,8,8,0,0,0,.91,0,1,1,0,0,1,.35.05.29.29,0,0,1,.18.16.75.75,0,0,1,.06.33.7.7,0,0,1-.06.32.26.26,0,0,1-.18.16A1,1,0,0,1,122.3,36.3Z"/><path class="cls-2" d="M133.23,36.28a.46.46,0,0,1-.38-.13,1,1,0,0,1-.16-.5V34.38a4,4,0,0,1-3.53,1.92,4.26,4.26,0,0,1-1.72-.35,4.46,4.46,0,0,1-1.38-1,4.65,4.65,0,0,1-.92-1.45,4.84,4.84,0,0,1-.33-1.8,4.57,4.57,0,0,1,.33-1.74,4.37,4.37,0,0,1,.93-1.42,4.2,4.2,0,0,1,1.39-1,4,4,0,0,1,1.7-.35,4.58,4.58,0,0,1,1.53.22,4.07,4.07,0,0,1,1.12.63,5.56,5.56,0,0,1,.88.93V27.94a.86.86,0,0,1,.13-.54.49.49,0,0,1,.43-.16.6.6,0,0,1,.29.06.4.4,0,0,1,.15.22,1.5,1.5,0,0,1,.05.42v7.71a1.22,1.22,0,0,1-.05.37.28.28,0,0,1-.16.2A.67.67,0,0,1,133.23,36.28Zm-3.86-1a3,3,0,0,0,1.65-.46,3.29,3.29,0,0,0,1.18-1.27,4,4,0,0,0,0-3.7A3.38,3.38,0,0,0,131,28.63a3.2,3.2,0,0,0-1.64-.44,3.47,3.47,0,0,0-1.82.47,3.41,3.41,0,0,0-1.22,1.28,3.87,3.87,0,0,0-.44,1.86,3.69,3.69,0,0,0,.44,1.8,3.2,3.2,0,0,0,1.24,1.26A3.66,3.66,0,0,0,129.37,35.31Z"/><path class="cls-2" d="M137.22,36.28a.68.68,0,0,1-.31-.06.29.29,0,0,1-.16-.18,1,1,0,0,1-.05-.33v-8a.72.72,0,0,1,.05-.29.33.33,0,0,1,.17-.16.93.93,0,0,1,.31,0,.49.49,0,0,1,.38.11.51.51,0,0,1,.12.38v1.14a2,2,0,0,1,.48-.7,3.19,3.19,0,0,1,.72-.53,4.14,4.14,0,0,1,.82-.33,3.51,3.51,0,0,1,.83-.11,2.84,2.84,0,0,1,1.22.26,3,3,0,0,1,1,.75,4.32,4.32,0,0,1,.71,1.19,6.85,6.85,0,0,1,.88-1.24,2.69,2.69,0,0,1,1-.72,3.15,3.15,0,0,1,1.26-.24,3,3,0,0,1,1.8.53,3.29,3.29,0,0,1,1.07,1.48,6.36,6.36,0,0,1,.36,2.25v4.27a1,1,0,0,1,0,.33.27.27,0,0,1-.16.17.85.85,0,0,1-.32.05.75.75,0,0,1-.33-.06.26.26,0,0,1-.17-.18.76.76,0,0,1,0-.33V31.44a5.52,5.52,0,0,0-.24-1.71,2.52,2.52,0,0,0-.71-1.13,1.8,1.8,0,0,0-1.24-.41,2.49,2.49,0,0,0-1.42.41,2.8,2.8,0,0,0-1,1.13,3.84,3.84,0,0,0-.36,1.71v4.31a.61.61,0,0,1-.12.39.56.56,0,0,1-.31.17.53.53,0,0,1-.33-.05.49.49,0,0,1-.19-.1.42.42,0,0,1-.11-.18,2.13,2.13,0,0,1,0-.27V31.44a5.52,5.52,0,0,0-.24-1.71,2.52,2.52,0,0,0-.71-1.13,1.8,1.8,0,0,0-1.24-.41,2.46,2.46,0,0,0-1.42.41,2.8,2.8,0,0,0-1,1.13,3.84,3.84,0,0,0-.36,1.71v4.29a1,1,0,0,1-.05.33.29.29,0,0,1-.17.17A1,1,0,0,1,137.22,36.28Z"/><path class="cls-2" d="M157,36.34a5.36,5.36,0,0,1-1.91-.34,4.27,4.27,0,0,1-2.44-2.46,5,5,0,0,1-.34-1.9,4.24,4.24,0,0,1,2.22-3.79,5,5,0,0,1,2.4-.58,4.5,4.5,0,0,1,1.59.27,4.32,4.32,0,0,1,1.26.72,3.29,3.29,0,0,1,.82,1,2.64,2.64,0,0,1,.3,1.21,1.57,1.57,0,0,1-.43,1.27,1.66,1.66,0,0,1-1,.33h-6a2.61,2.61,0,0,0,.5,1.73A3.62,3.62,0,0,0,155.35,35a3.87,3.87,0,0,0,1.66.39,6.65,6.65,0,0,0,1-.06,3.76,3.76,0,0,0,.71-.16,5,5,0,0,0,.5-.21l.38-.21a1.91,1.91,0,0,1,.32-.16.78.78,0,0,1,.22,0,.22.22,0,0,1,.18.11.82.82,0,0,1,.13.24.56.56,0,0,1,0,.23c0,.12-.15.27-.45.47a5.47,5.47,0,0,1-1.24.53A5.83,5.83,0,0,1,157,36.34Zm-3.55-5.13h5.66a1.55,1.55,0,0,0,.59-.09c.14-.06.21-.24.21-.56a1.88,1.88,0,0,0-.39-1.15,2.76,2.76,0,0,0-1.05-.84,3.4,3.4,0,0,0-1.52-.33,4.12,4.12,0,0,0-1.76.38,3.19,3.19,0,0,0-1.28,1.06A2.49,2.49,0,0,0,153.48,31.21Z"/><path class="cls-2" d="M164,36.28a.67.67,0,0,1-.3-.06.26.26,0,0,1-.16-.18,1,1,0,0,1-.05-.33v-8a.72.72,0,0,1,.05-.29.33.33,0,0,1,.17-.16.93.93,0,0,1,.31,0,.75.75,0,0,1,.23,0,.24.24,0,0,1,.15.08.38.38,0,0,1,.09.15.8.8,0,0,1,0,.23v1.12a6.27,6.27,0,0,1,.55-.62,5,5,0,0,1,.67-.53,3.21,3.21,0,0,1,.82-.37,3.46,3.46,0,0,1,1-.13,4.13,4.13,0,0,1,1.51.27,3.52,3.52,0,0,1,2,2.07,4.84,4.84,0,0,1,.29,1.72v4.47a1,1,0,0,1,0,.33.3.3,0,0,1-.16.17.93.93,0,0,1-.32.05.83.83,0,0,1-.34-.06.28.28,0,0,1-.17-.18,1,1,0,0,1-.05-.33V31.25a4,4,0,0,0-.3-1.62,2.31,2.31,0,0,0-.91-1.06,2.82,2.82,0,0,0-1.54-.38,3.08,3.08,0,0,0-1.58.38,2.54,2.54,0,0,0-1,1.06,3.46,3.46,0,0,0-.36,1.62v4.48a1,1,0,0,1-.05.33.29.29,0,0,1-.17.17A1.06,1.06,0,0,1,164,36.28Z"/><path class="cls-2" d="M174.15,27.48l1.69,0,2.64,0a1.06,1.06,0,0,1,.34.05.35.35,0,0,1,.18.16.87.87,0,0,1,.05.31,1,1,0,0,1,0,.33.31.31,0,0,1-.17.17.85.85,0,0,1-.32.05l-2.68,0-1.73,0a.5.5,0,0,1-.41-.13.59.59,0,0,1-.12-.42.53.53,0,0,1,.13-.4A.66.66,0,0,1,174.15,27.48Zm4.22,8.82a5.75,5.75,0,0,1-1.43-.15,2.19,2.19,0,0,1-.95-.48,1.73,1.73,0,0,1-.51-.86,5.11,5.11,0,0,1-.15-1.34V24.73a1,1,0,0,1,0-.35.26.26,0,0,1,.16-.18.64.64,0,0,1,.3-.06,1,1,0,0,1,.33.05.31.31,0,0,1,.19.16.85.85,0,0,1,0,.32v8.84a3.41,3.41,0,0,0,.11.94,1,1,0,0,0,.32.52,1.26,1.26,0,0,0,.6.22,8,8,0,0,0,.91,0,1,1,0,0,1,.35.05.35.35,0,0,1,.18.16.75.75,0,0,1,.06.33.7.7,0,0,1-.06.32.31.31,0,0,1-.18.16A1,1,0,0,1,178.37,36.3Z"/><path class="cls-2" d="M185.57,36.34a5.32,5.32,0,0,1-1.91-.34,4.33,4.33,0,0,1-1.48-1,4.44,4.44,0,0,1-1-1.49,5,5,0,0,1-.34-1.9,4.19,4.19,0,0,1,.59-2.22,4.25,4.25,0,0,1,1.63-1.57,4.91,4.91,0,0,1,2.39-.58,4.51,4.51,0,0,1,1.6.27,4.14,4.14,0,0,1,1.25.72,3.33,3.33,0,0,1,.83,1,2.63,2.63,0,0,1,.29,1.21,1.57,1.57,0,0,1-.42,1.27,1.66,1.66,0,0,1-1,.33h-6a2.61,2.61,0,0,0,.5,1.73A3.62,3.62,0,0,0,183.89,35a3.84,3.84,0,0,0,1.66.39,6.65,6.65,0,0,0,1-.06,3.64,3.64,0,0,0,.7-.16,4.42,4.42,0,0,0,.51-.21l.38-.21a1.91,1.91,0,0,1,.32-.16.73.73,0,0,1,.22,0,.22.22,0,0,1,.18.11.82.82,0,0,1,.13.24.56.56,0,0,1,0,.23c0,.12-.15.27-.46.47a5.18,5.18,0,0,1-1.23.53A5.88,5.88,0,0,1,185.57,36.34ZM182,31.21h5.66a1.55,1.55,0,0,0,.59-.09c.14-.06.21-.24.21-.56a1.88,1.88,0,0,0-.39-1.15,2.72,2.72,0,0,0-1.06-.84,3.37,3.37,0,0,0-1.52-.33,4.07,4.07,0,0,0-1.75.38,3.3,3.3,0,0,0-1.29,1.06A2.48,2.48,0,0,0,182,31.21Z"/><path class="cls-2" d="M199.78,36.3a4.08,4.08,0,0,1-1-.11,2.35,2.35,0,0,1-.75-.35,2.1,2.1,0,0,1-.54-.57,2.4,2.4,0,0,1-.32-.8,4.37,4.37,0,0,1-.11-1V23.59a1,1,0,0,1,.05-.35.28.28,0,0,1,.17-.18.71.71,0,0,1,.31-.06,1.06,1.06,0,0,1,.34.05.31.31,0,0,1,.18.16.72.72,0,0,1,0,.32v10a2.63,2.63,0,0,0,.1.73,1.3,1.3,0,0,0,.29.53,1.2,1.2,0,0,0,.5.32,2,2,0,0,0,.67.11,1.08,1.08,0,0,1,.35,0,.29.29,0,0,1,.18.18.94.94,0,0,1,0,.66.28.28,0,0,1-.18.17A1,1,0,0,1,199.78,36.3Z"/><path class="cls-2" d="M206.7,36.38a4.48,4.48,0,0,1-1.79-.37,4.79,4.79,0,0,1-1.47-1,4.51,4.51,0,0,1-1-1.47,4.42,4.42,0,0,1-.36-1.78,4.62,4.62,0,0,1,.35-1.8,4.72,4.72,0,0,1,1-1.46,4.48,4.48,0,0,1,3.24-1.34,4.49,4.49,0,0,1,4.54,4.58,4.69,4.69,0,0,1-.35,1.82,4.6,4.6,0,0,1-1,1.46,4.39,4.39,0,0,1-1.43,1A4.32,4.32,0,0,1,206.7,36.38Zm0-1a3.32,3.32,0,0,0,1.76-.48,3.6,3.6,0,0,0,1.25-1.32,3.81,3.81,0,0,0,0-3.65,3.31,3.31,0,0,0-1.24-1.25,3.58,3.58,0,0,0-1.8-.44,3.45,3.45,0,0,0-1.78.46,3.51,3.51,0,0,0-1.25,1.26,3.56,3.56,0,0,0-.46,1.81,3.64,3.64,0,0,0,.46,1.84,3.41,3.41,0,0,0,3,1.77Z"/><path class="cls-2" d="M216.56,36.36a4.38,4.38,0,0,1-.88-.09,4.75,4.75,0,0,1-.86-.25,3.77,3.77,0,0,1-.75-.38,1.75,1.75,0,0,1-.74-.8.31.31,0,0,1,0-.25.44.44,0,0,1,.18-.21.46.46,0,0,1,.4-.19,1.16,1.16,0,0,1,.49.36,2,2,0,0,0,.44.35,3.77,3.77,0,0,0,.57.28,4.63,4.63,0,0,0,.61.17,2.91,2.91,0,0,0,.57.06,3.16,3.16,0,0,0,1.69-.41,1.26,1.26,0,0,0,.65-1.11,1.44,1.44,0,0,0-.14-.64,1.37,1.37,0,0,0-.36-.46,2.75,2.75,0,0,0-.52-.34,4.91,4.91,0,0,0-.65-.24c-.23-.08-.47-.14-.71-.2s-.71-.19-1-.3a4.32,4.32,0,0,1-1-.41,2.05,2.05,0,0,1-.67-.64,1.89,1.89,0,0,1-.26-1,2.17,2.17,0,0,1,.37-1.25,2.49,2.49,0,0,1,1-.84,3.71,3.71,0,0,1,1.54-.3,5.36,5.36,0,0,1,.82.06,3.9,3.9,0,0,1,.71.2,4.65,4.65,0,0,1,.63.32,3.57,3.57,0,0,1,.54.42.66.66,0,0,1,.24.38.45.45,0,0,1-.13.36.59.59,0,0,1-.36.22.47.47,0,0,1-.4-.18,2.62,2.62,0,0,0-.64-.48,3.61,3.61,0,0,0-.68-.28,2.92,2.92,0,0,0-.73-.09,2.57,2.57,0,0,0-1,.18,1.47,1.47,0,0,0-.67.51,1.28,1.28,0,0,0-.24.77.85.85,0,0,0,.16.54,1.3,1.3,0,0,0,.43.37,3.4,3.4,0,0,0,.63.27l.76.23,1.15.33a5,5,0,0,1,1.08.47,2.64,2.64,0,0,1,.79.77,2.3,2.3,0,0,1,.3,1.24,2.12,2.12,0,0,1-1,1.82A4.07,4.07,0,0,1,216.56,36.36Z"/><path class="cls-2" d="M228.49,36.28a.61.61,0,0,1-.3-.06A.26.26,0,0,1,228,36a.76.76,0,0,1-.05-.33v-8a.58.58,0,0,1,.05-.29.3.3,0,0,1,.17-.16.9.9,0,0,1,.31,0,.41.41,0,0,1,.49.49v1.14a2.16,2.16,0,0,1,.49-.7,3.13,3.13,0,0,1,.71-.53,4.22,4.22,0,0,1,.83-.33,3.43,3.43,0,0,1,.82-.11,2.85,2.85,0,0,1,1.23.26,3.13,3.13,0,0,1,1,.75,4.3,4.3,0,0,1,.7,1.19,6.86,6.86,0,0,1,.89-1.24,2.66,2.66,0,0,1,1-.72,3.23,3.23,0,0,1,1.27-.24,2.92,2.92,0,0,1,1.79.53,3.22,3.22,0,0,1,1.07,1.48,6.13,6.13,0,0,1,.37,2.25v4.27a1,1,0,0,1,0,.33.3.3,0,0,1-.16.17,1,1,0,0,1-.33.05.75.75,0,0,1-.33-.06.28.28,0,0,1-.17-.18,1,1,0,0,1-.05-.33V31.44a5.85,5.85,0,0,0-.23-1.71,2.46,2.46,0,0,0-.72-1.13,1.78,1.78,0,0,0-1.23-.41,2.52,2.52,0,0,0-1.43.41,2.87,2.87,0,0,0-1,1.13,3.84,3.84,0,0,0-.36,1.71v4.31a.61.61,0,0,1-.12.39.51.51,0,0,1-.3.17.56.56,0,0,1-.34-.05.57.57,0,0,1-.19-.1A.4.4,0,0,1,234,36a1.12,1.12,0,0,1,0-.27V31.44a5.52,5.52,0,0,0-.24-1.71,2.44,2.44,0,0,0-.71-1.13,1.79,1.79,0,0,0-1.23-.41,2.5,2.5,0,0,0-1.43.41,2.8,2.8,0,0,0-1,1.13,3.84,3.84,0,0,0-.36,1.71v4.29a.76.76,0,0,1,0,.33.26.26,0,0,1-.17.17A1,1,0,0,1,228.49,36.28Z"/><path class="cls-2" d="M252,36.28a.47.47,0,0,1-.38-.13,1,1,0,0,1-.15-.5V34.38a4.19,4.19,0,0,1-.66.81,3.8,3.8,0,0,1-1.16.78,4,4,0,0,1-1.71.33,4.17,4.17,0,0,1-3.1-1.33,4.65,4.65,0,0,1-.92-1.45,4.84,4.84,0,0,1-.34-1.8A4.57,4.57,0,0,1,244,30a4.37,4.37,0,0,1,.93-1.42,4.27,4.27,0,0,1,1.38-1,4.09,4.09,0,0,1,1.71-.35,4.56,4.56,0,0,1,1.52.22,4.12,4.12,0,0,1,1.13.63,6,6,0,0,1,.88.93V27.94a.94.94,0,0,1,.12-.54.52.52,0,0,1,.43-.16.57.57,0,0,1,.29.06.47.47,0,0,1,.16.22,1.56,1.56,0,0,1,0,.42v7.71a1.26,1.26,0,0,1,0,.37.33.33,0,0,1-.16.2A.68.68,0,0,1,252,36.28Zm-3.86-1a3.08,3.08,0,0,0,1.66-.46A3.44,3.44,0,0,0,251,33.58a4.11,4.11,0,0,0,0-3.7,3.46,3.46,0,0,0-1.21-1.25,3.22,3.22,0,0,0-1.64-.44,3.51,3.51,0,0,0-1.83.47,3.38,3.38,0,0,0-1.21,1.28,3.76,3.76,0,0,0-.44,1.86,3.58,3.58,0,0,0,.44,1.8,3.24,3.24,0,0,0,1.23,1.26A3.69,3.69,0,0,0,248.17,35.31Z"/><path class="cls-2" d="M255.32,27.48l1.69,0,2.64,0a1,1,0,0,1,.33.05.32.32,0,0,1,.18.16.68.68,0,0,1,.06.31,1,1,0,0,1-.05.33.27.27,0,0,1-.16.17.85.85,0,0,1-.32.05l-2.68,0-1.73,0a.54.54,0,0,1-.42-.13.64.64,0,0,1-.11-.42.49.49,0,0,1,.13-.4A.66.66,0,0,1,255.32,27.48Zm4.22,8.82a5.89,5.89,0,0,1-1.44-.15,2.15,2.15,0,0,1-.94-.48,1.73,1.73,0,0,1-.51-.86,5.11,5.11,0,0,1-.15-1.34V24.73a1.08,1.08,0,0,1,0-.35.3.3,0,0,1,.17-.18.61.61,0,0,1,.3-.06,1,1,0,0,1,.33.05.31.31,0,0,1,.18.16.67.67,0,0,1,.06.32v8.84a3.46,3.46,0,0,0,.1.94A1,1,0,0,0,258,35a1.18,1.18,0,0,0,.59.22,8.19,8.19,0,0,0,.92,0,1,1,0,0,1,.35.05.35.35,0,0,1,.18.16.75.75,0,0,1,.06.33.7.7,0,0,1-.06.32.31.31,0,0,1-.18.16A1,1,0,0,1,259.54,36.3Z"/><path class="cls-2" d="M266.74,36.34a5.28,5.28,0,0,1-1.91-.34,4.33,4.33,0,0,1-1.48-1,4.16,4.16,0,0,1-1-1.49,5,5,0,0,1-.35-1.9,4.28,4.28,0,0,1,.59-2.22,4.34,4.34,0,0,1,1.64-1.57,4.89,4.89,0,0,1,2.39-.58,4.55,4.55,0,0,1,1.6.27,4.14,4.14,0,0,1,1.25.72,3.33,3.33,0,0,1,.83,1,2.76,2.76,0,0,1,.29,1.21,1.54,1.54,0,0,1-.43,1.27,1.63,1.63,0,0,1-1,.33h-6a2.67,2.67,0,0,0,.51,1.73A3.55,3.55,0,0,0,265.06,35a3.84,3.84,0,0,0,1.66.39,6.85,6.85,0,0,0,1-.06,3.83,3.83,0,0,0,.7-.16,4.2,4.2,0,0,0,.5-.21l.38-.21a2.45,2.45,0,0,1,.33-.16.69.69,0,0,1,.22,0,.22.22,0,0,1,.18.11,1.15,1.15,0,0,1,.13.24.79.79,0,0,1,0,.23c0,.12-.16.27-.46.47a5.18,5.18,0,0,1-1.23.53A5.88,5.88,0,0,1,266.74,36.34Zm-3.56-5.13h5.67a1.55,1.55,0,0,0,.59-.09c.13-.06.2-.24.2-.56a1.88,1.88,0,0,0-.39-1.15,2.76,2.76,0,0,0-1.05-.84,3.37,3.37,0,0,0-1.52-.33,4.15,4.15,0,0,0-1.76.38,3.26,3.26,0,0,0-1.28,1.06A2.49,2.49,0,0,0,263.18,31.21Z"/><path class="cls-2" d="M273.73,36.3a.68.68,0,0,1-.31-.06.31.31,0,0,1-.16-.19,1.09,1.09,0,0,1,0-.34V27.79a1,1,0,0,1,0-.35.27.27,0,0,1,.16-.17,1.42,1.42,0,0,1,.33,0,1.35,1.35,0,0,1,.31,0,.3.3,0,0,1,.18.17.79.79,0,0,1,.06.35v.8a4.63,4.63,0,0,1,.38-.59,2.24,2.24,0,0,1,.45-.47,2,2,0,0,1,.66-.31,3.4,3.4,0,0,1,1-.12,2.47,2.47,0,0,1,.56.06,2.88,2.88,0,0,1,.47.15,2.43,2.43,0,0,1,.37.21.83.83,0,0,1,.23.23.43.43,0,0,1,.08.23.51.51,0,0,1-.21.41.57.57,0,0,1-.69.11,1.53,1.53,0,0,1-.22-.16,1,1,0,0,0-.34-.16,2.54,2.54,0,0,0-.71-.07,1.83,1.83,0,0,0-.62.12,2.71,2.71,0,0,0-.66.37,2,2,0,0,0-.52.65,2,2,0,0,0-.21.95v5.55a1,1,0,0,1-.05.33.29.29,0,0,1-.17.17A1,1,0,0,1,273.73,36.3Z"/><path class="cls-2" d="M281.67,24.5a1,1,0,0,1-.42-.08.47.47,0,0,1-.22-.24,1.37,1.37,0,0,1-.06-.44,1.17,1.17,0,0,1,.06-.42.45.45,0,0,1,.23-.22,1.27,1.27,0,0,1,.43-.06,1,1,0,0,1,.42.07.47.47,0,0,1,.22.24,1.36,1.36,0,0,1,.06.45,1.22,1.22,0,0,1-.06.41.43.43,0,0,1-.22.22A1,1,0,0,1,281.67,24.5Zm0,11.8a.68.68,0,0,1-.31-.06.28.28,0,0,1-.17-.18.76.76,0,0,1-.05-.33V27.79a.76.76,0,0,1,.05-.33.28.28,0,0,1,.17-.18,1,1,0,0,1,.33,0,.85.85,0,0,1,.32.05.31.31,0,0,1,.16.18.89.89,0,0,1,.05.36v7.92a.76.76,0,0,1-.05.33.26.26,0,0,1-.17.17A1,1,0,0,1,281.67,36.3Z"/><path class="cls-2" d="M293.3,36.28a.46.46,0,0,1-.38-.13.89.89,0,0,1-.15-.5V34.38a4.19,4.19,0,0,1-.66.81A3.92,3.92,0,0,1,291,36a4.06,4.06,0,0,1-1.72.33A4.12,4.12,0,0,1,286.14,35a4.68,4.68,0,0,1-.93-1.45,4.84,4.84,0,0,1-.33-1.8,4.4,4.4,0,0,1,1.27-3.16,4.16,4.16,0,0,1,1.38-1,4,4,0,0,1,1.7-.35,4.58,4.58,0,0,1,1.53.22,3.92,3.92,0,0,1,1.12.63,5.62,5.62,0,0,1,.89.93V27.94a.94.94,0,0,1,.12-.54.49.49,0,0,1,.43-.16.6.6,0,0,1,.29.06.4.4,0,0,1,.15.22,1.2,1.2,0,0,1,.05.42v7.71a1,1,0,0,1-.05.37.28.28,0,0,1-.16.2A.64.64,0,0,1,293.3,36.28Zm-3.86-1a3,3,0,0,0,1.65-.46,3.29,3.29,0,0,0,1.18-1.27,3.74,3.74,0,0,0,.44-1.82,3.66,3.66,0,0,0-.46-1.88,3.35,3.35,0,0,0-1.2-1.25,3.23,3.23,0,0,0-1.65-.44,3.5,3.5,0,0,0-1.82.47,3.41,3.41,0,0,0-1.22,1.28,3.87,3.87,0,0,0-.43,1.86,3.69,3.69,0,0,0,.43,1.8,3.26,3.26,0,0,0,1.24,1.26A3.66,3.66,0,0,0,289.44,35.31Z"/><path class="cls-2" d="M299.26,36.3a4.08,4.08,0,0,1-1-.11,2.35,2.35,0,0,1-.75-.35,2.1,2.1,0,0,1-.54-.57,2.63,2.63,0,0,1-.32-.8,4.37,4.37,0,0,1-.11-1V23.59a1,1,0,0,1,.05-.35.28.28,0,0,1,.17-.18.76.76,0,0,1,.32-.06,1,1,0,0,1,.33.05.31.31,0,0,1,.18.16.7.7,0,0,1,.06.32v10a2.65,2.65,0,0,0,.09.73,1.31,1.31,0,0,0,.3.53,1.1,1.1,0,0,0,.49.32,2,2,0,0,0,.68.11,1.12,1.12,0,0,1,.35,0,.35.35,0,0,1,.18.18,1.11,1.11,0,0,1,0,.66.33.33,0,0,1-.18.17A1.06,1.06,0,0,1,299.26,36.3Z"/><path class="cls-2" d="M306.35,36.34a5.32,5.32,0,0,1-1.91-.34A4.27,4.27,0,0,1,302,33.54a5,5,0,0,1-.34-1.9,4.19,4.19,0,0,1,.59-2.22,4.25,4.25,0,0,1,1.63-1.57,5,5,0,0,1,2.4-.58,4.5,4.5,0,0,1,1.59.27,4.32,4.32,0,0,1,1.26.72,3.29,3.29,0,0,1,.82,1,2.64,2.64,0,0,1,.3,1.21,1.57,1.57,0,0,1-.43,1.27,1.66,1.66,0,0,1-1,.33h-6a2.61,2.61,0,0,0,.5,1.73A3.62,3.62,0,0,0,304.67,35a3.84,3.84,0,0,0,1.66.39,6.65,6.65,0,0,0,1-.06,3.64,3.64,0,0,0,.7-.16,4.42,4.42,0,0,0,.51-.21l.38-.21a1.91,1.91,0,0,1,.32-.16.73.73,0,0,1,.22,0,.22.22,0,0,1,.18.11.82.82,0,0,1,.13.24.56.56,0,0,1,0,.23c0,.12-.15.27-.45.47a5.47,5.47,0,0,1-1.24.53A5.88,5.88,0,0,1,306.35,36.34Zm-3.55-5.13h5.66a1.55,1.55,0,0,0,.59-.09c.14-.06.21-.24.21-.56a1.88,1.88,0,0,0-.39-1.15,2.72,2.72,0,0,0-1.06-.84,3.37,3.37,0,0,0-1.52-.33,4.11,4.11,0,0,0-1.75.38,3.3,3.3,0,0,0-1.29,1.06A2.55,2.55,0,0,0,302.8,31.21Z"/><path class="cls-2" d="M315.7,36.36a4.38,4.38,0,0,1-.88-.09A4.75,4.75,0,0,1,314,36a3.77,3.77,0,0,1-.75-.38,1.75,1.75,0,0,1-.74-.8.31.31,0,0,1,0-.25.44.44,0,0,1,.18-.21.46.46,0,0,1,.4-.19,1.16,1.16,0,0,1,.49.36,2,2,0,0,0,.44.35,3.77,3.77,0,0,0,.57.28,4.24,4.24,0,0,0,.61.17,2.91,2.91,0,0,0,.57.06,3.16,3.16,0,0,0,1.69-.41,1.25,1.25,0,0,0,.64-1.11,1.44,1.44,0,0,0-.13-.64,1.37,1.37,0,0,0-.36-.46,2.75,2.75,0,0,0-.52-.34,4.91,4.91,0,0,0-.65-.24c-.23-.08-.47-.14-.71-.2s-.71-.19-1.05-.3a4.32,4.32,0,0,1-.95-.41,2.05,2.05,0,0,1-.67-.64,1.89,1.89,0,0,1-.26-1,2.17,2.17,0,0,1,.37-1.25,2.49,2.49,0,0,1,1-.84,3.71,3.71,0,0,1,1.54-.3,5.36,5.36,0,0,1,.82.06,3.9,3.9,0,0,1,.71.2,4.65,4.65,0,0,1,.63.32,3.57,3.57,0,0,1,.54.42.66.66,0,0,1,.24.38.45.45,0,0,1-.13.36.59.59,0,0,1-.36.22.47.47,0,0,1-.4-.18,2.62,2.62,0,0,0-.64-.48,3.61,3.61,0,0,0-.68-.28,2.92,2.92,0,0,0-.73-.09,2.57,2.57,0,0,0-1,.18,1.47,1.47,0,0,0-.67.51,1.28,1.28,0,0,0-.24.77.85.85,0,0,0,.16.54,1.3,1.3,0,0,0,.43.37,3.29,3.29,0,0,0,.62.27l.76.23,1.16.33a5,5,0,0,1,1.08.47,2.64,2.64,0,0,1,.79.77,2.3,2.3,0,0,1,.3,1.24,2.12,2.12,0,0,1-1,1.82A4.07,4.07,0,0,1,315.7,36.36Z"/><path class="cls-2" d="M330.78,34.76l-4.27-6.65a.61.61,0,0,1-.13-.44.55.55,0,0,1,.28-.32.63.63,0,0,1,.45-.13.56.56,0,0,1,.35.3l3.89,6.18Zm-2,5.15c-.19-.08-.3-.17-.33-.28a.71.71,0,0,1,.08-.46l5.19-11.63a.77.77,0,0,1,.29-.38.55.55,0,0,1,.45.06c.19.09.3.19.32.3a.72.72,0,0,1-.09.46l-5.21,11.66c-.09.21-.18.32-.27.34A.74.74,0,0,1,328.79,39.91Z"/><path class="cls-2" d="M342.15,27.48l1.69,0,2.64,0a1,1,0,0,1,.33.05.35.35,0,0,1,.18.16.68.68,0,0,1,.06.31,1,1,0,0,1-.05.33.27.27,0,0,1-.16.17.89.89,0,0,1-.32.05l-2.68,0-1.73,0a.54.54,0,0,1-.42-.13.59.59,0,0,1-.11-.42.49.49,0,0,1,.13-.4A.64.64,0,0,1,342.15,27.48Zm4.21,8.82a5.81,5.81,0,0,1-1.43-.15,2.15,2.15,0,0,1-.94-.48,1.73,1.73,0,0,1-.51-.86,4.68,4.68,0,0,1-.16-1.34V24.73a1,1,0,0,1,.05-.35.29.29,0,0,1,.16-.18.68.68,0,0,1,.31-.06,1,1,0,0,1,.33.05.31.31,0,0,1,.18.16.67.67,0,0,1,.06.32v8.84a3.46,3.46,0,0,0,.1.94,1,1,0,0,0,.32.52,1.26,1.26,0,0,0,.6.22,8.19,8.19,0,0,0,.92,0,1.08,1.08,0,0,1,.35.05.35.35,0,0,1,.18.16.76.76,0,0,1,.05.33.72.72,0,0,1-.05.32.31.31,0,0,1-.18.16A1.06,1.06,0,0,1,346.36,36.3Z"/><path class="cls-2" d="M357.29,36.28a.46.46,0,0,1-.38-.13.89.89,0,0,1-.15-.5V34.38a4.19,4.19,0,0,1-.66.81,3.92,3.92,0,0,1-1.16.78,4.06,4.06,0,0,1-1.72.33A4.12,4.12,0,0,1,350.13,35a4.68,4.68,0,0,1-.93-1.45,4.84,4.84,0,0,1-.33-1.8,4.4,4.4,0,0,1,1.27-3.16,4.16,4.16,0,0,1,1.38-1,4.08,4.08,0,0,1,1.7-.35,4.58,4.58,0,0,1,1.53.22,3.92,3.92,0,0,1,1.12.63,5.62,5.62,0,0,1,.89.93V27.94a.94.94,0,0,1,.12-.54.5.5,0,0,1,.43-.16.6.6,0,0,1,.29.06.4.4,0,0,1,.15.22,1.2,1.2,0,0,1,.05.42v7.71a1,1,0,0,1-.05.37.28.28,0,0,1-.16.2A.61.61,0,0,1,357.29,36.28Zm-3.86-1a3,3,0,0,0,1.65-.46,3.29,3.29,0,0,0,1.18-1.27,3.74,3.74,0,0,0,.44-1.82,3.66,3.66,0,0,0-.46-1.88,3.35,3.35,0,0,0-1.2-1.25,3.23,3.23,0,0,0-1.65-.44,3.32,3.32,0,0,0-3,1.75,3.87,3.87,0,0,0-.43,1.86,3.69,3.69,0,0,0,.43,1.8,3.33,3.33,0,0,0,1.24,1.26A3.69,3.69,0,0,0,353.43,35.31Z"/><path class="cls-2" d="M361.28,36.28a.68.68,0,0,1-.31-.06.29.29,0,0,1-.16-.18,1,1,0,0,1,0-.33v-8a.75.75,0,0,1,0-.29.33.33,0,0,1,.17-.16,1,1,0,0,1,.32,0,.51.51,0,0,1,.38.11.56.56,0,0,1,.11.38v1.14a2.16,2.16,0,0,1,.49-.7,3.13,3.13,0,0,1,.71-.53,4,4,0,0,1,.83-.33,3.43,3.43,0,0,1,.82-.11,2.85,2.85,0,0,1,1.23.26,3.13,3.13,0,0,1,1,.75,4.3,4.3,0,0,1,.7,1.19,7.38,7.38,0,0,1,.88-1.24,2.77,2.77,0,0,1,1-.72,3.15,3.15,0,0,1,1.26-.24,3,3,0,0,1,1.8.53,3.29,3.29,0,0,1,1.07,1.48,6.36,6.36,0,0,1,.36,2.25v4.27a1,1,0,0,1,0,.33.31.31,0,0,1-.17.17.85.85,0,0,1-.32.05.75.75,0,0,1-.33-.06.28.28,0,0,1-.17-.18,1,1,0,0,1-.05-.33V31.44a5.52,5.52,0,0,0-.24-1.71,2.44,2.44,0,0,0-.71-1.13,1.79,1.79,0,0,0-1.23-.41,2.5,2.5,0,0,0-1.43.41,2.8,2.8,0,0,0-1,1.13,3.84,3.84,0,0,0-.36,1.71v4.31a.61.61,0,0,1-.12.39.54.54,0,0,1-.64.12.57.57,0,0,1-.19-.1.4.4,0,0,1-.1-.18,1.12,1.12,0,0,1,0-.27V31.44a5.52,5.52,0,0,0-.24-1.71,2.44,2.44,0,0,0-.71-1.13,1.8,1.8,0,0,0-1.24-.41,2.49,2.49,0,0,0-1.42.41,2.8,2.8,0,0,0-1,1.13,3.84,3.84,0,0,0-.36,1.71v4.29a1,1,0,0,1-.05.33.29.29,0,0,1-.17.17A1,1,0,0,1,361.28,36.28Z"/><path class="cls-2" d="M377.37,36.32a.68.68,0,0,1-.31-.06.39.39,0,0,1-.18-.18.75.75,0,0,1-.06-.33V23.64a1.08,1.08,0,0,1,.05-.35.33.33,0,0,1,.17-.18.91.91,0,0,1,.31-.05,1,1,0,0,1,.33.05.42.42,0,0,1,.17.18,1.06,1.06,0,0,1,0,.34v12.1a.69.69,0,0,1-.11.46A.58.58,0,0,1,377.37,36.32Zm4.07,0a4.53,4.53,0,0,1-1.71-.32,4,4,0,0,1-1.35-.93,4.13,4.13,0,0,1-.89-1.42,5.71,5.71,0,0,1,0-3.71,4.36,4.36,0,0,1,.89-1.45,4,4,0,0,1,1.35-.93,4.34,4.34,0,0,1,1.71-.32,4.11,4.11,0,0,1,1.65.32,4,4,0,0,1,1.33.92,4.27,4.27,0,0,1,.89,1.43,4.89,4.89,0,0,1,.33,1.83,5.1,5.1,0,0,1-.33,1.87,4.17,4.17,0,0,1-.89,1.45,3.88,3.88,0,0,1-1.33.94A4.29,4.29,0,0,1,381.44,36.3Zm-.17-1a3.34,3.34,0,0,0,1.7-.44,3.2,3.2,0,0,0,1.18-1.24,3.62,3.62,0,0,0,.44-1.83,3.71,3.71,0,0,0-.44-1.86A3.16,3.16,0,0,0,383,28.67a3.42,3.42,0,0,0-3.39,0,3.16,3.16,0,0,0-1.18,1.25,3.82,3.82,0,0,0-.44,1.86,3.73,3.73,0,0,0,.44,1.83,3.2,3.2,0,0,0,1.18,1.24A3.33,3.33,0,0,0,381.27,35.29Z"/><path class="cls-2" d="M389.11,24.5a.93.93,0,0,1-.41-.08.4.4,0,0,1-.22-.24,1.13,1.13,0,0,1-.07-.44,1,1,0,0,1,.07-.42.41.41,0,0,1,.23-.22,1.21,1.21,0,0,1,.42-.06,1,1,0,0,1,.42.07.47.47,0,0,1,.22.24,1.32,1.32,0,0,1,.07.45,1.21,1.21,0,0,1-.07.41.43.43,0,0,1-.22.22A1,1,0,0,1,389.11,24.5Zm0,11.8a.71.71,0,0,1-.31-.06.3.3,0,0,1-.17-.18,1,1,0,0,1-.05-.33V27.79a1,1,0,0,1,.05-.33.3.3,0,0,1,.17-.18,1,1,0,0,1,.33,0,1,1,0,0,1,.33.05.35.35,0,0,1,.16.18,1.15,1.15,0,0,1,0,.36v7.92a1,1,0,0,1,0,.33.29.29,0,0,1-.17.17A1.06,1.06,0,0,1,389.11,36.3Z"/><path class="cls-2" d="M397,36.34a5.28,5.28,0,0,1-1.91-.34,4.33,4.33,0,0,1-1.48-1,4.16,4.16,0,0,1-1-1.49,5,5,0,0,1-.35-1.9,4.28,4.28,0,0,1,.59-2.22,4.34,4.34,0,0,1,1.64-1.57,4.89,4.89,0,0,1,2.39-.58,4.55,4.55,0,0,1,1.6.27,4.14,4.14,0,0,1,1.25.72,3.33,3.33,0,0,1,.83,1,2.76,2.76,0,0,1,.29,1.21,1.54,1.54,0,0,1-.43,1.27,1.63,1.63,0,0,1-1,.33h-6a2.67,2.67,0,0,0,.51,1.73A3.55,3.55,0,0,0,395.34,35a3.84,3.84,0,0,0,1.66.39,6.65,6.65,0,0,0,1-.06,3.83,3.83,0,0,0,.7-.16,4.2,4.2,0,0,0,.5-.21l.38-.21a2.45,2.45,0,0,1,.33-.16.69.69,0,0,1,.22,0,.22.22,0,0,1,.18.11,1.15,1.15,0,0,1,.13.24.79.79,0,0,1,0,.23c0,.12-.15.27-.46.47a5.18,5.18,0,0,1-1.23.53A5.88,5.88,0,0,1,397,36.34Zm-3.56-5.13h5.67a1.55,1.55,0,0,0,.59-.09c.13-.06.2-.24.2-.56a1.88,1.88,0,0,0-.39-1.15,2.76,2.76,0,0,0-1-.84,3.37,3.37,0,0,0-1.52-.33,4.15,4.15,0,0,0-1.76.38,3.26,3.26,0,0,0-1.28,1.06A2.49,2.49,0,0,0,393.46,31.21Z"/><path class="cls-2" d="M404,36.28a.61.61,0,0,1-.3-.06.3.3,0,0,1-.17-.18,1,1,0,0,1,0-.33v-8a.75.75,0,0,1,0-.29.38.38,0,0,1,.17-.16,1,1,0,0,1,.32,0,.8.8,0,0,1,.23,0,.28.28,0,0,1,.15.08.36.36,0,0,1,.08.15.8.8,0,0,1,0,.23v1.12a7.88,7.88,0,0,1,.55-.62,5.14,5.14,0,0,1,.68-.53,3.15,3.15,0,0,1,.81-.37,3.46,3.46,0,0,1,1-.13,4.1,4.1,0,0,1,1.51.27,3.46,3.46,0,0,1,1.21.8,3.67,3.67,0,0,1,.8,1.27,4.85,4.85,0,0,1,.28,1.72v4.47a.76.76,0,0,1-.05.33.27.27,0,0,1-.16.17.85.85,0,0,1-.32.05.75.75,0,0,1-.33-.06.28.28,0,0,1-.17-.18.76.76,0,0,1-.05-.33V31.25a4,4,0,0,0-.3-1.62,2.33,2.33,0,0,0-.92-1.06,2.79,2.79,0,0,0-1.54-.38,3,3,0,0,0-1.57.38,2.51,2.51,0,0,0-1,1.06,3.46,3.46,0,0,0-.36,1.62v4.48a1,1,0,0,1-.05.33.29.29,0,0,1-.17.17A1,1,0,0,1,404,36.28Z"/><path class="cls-2" d="M8.42,59.28A.46.46,0,0,1,8,59.15a.89.89,0,0,1-.15-.5V57.38a4.19,4.19,0,0,1-.66.81A3.92,3.92,0,0,1,6.07,59a4.06,4.06,0,0,1-1.72.33A4.26,4.26,0,0,1,2.63,59a4.46,4.46,0,0,1-1.38-1,4.65,4.65,0,0,1-.92-1.45A4.84,4.84,0,0,1,0,54.72,4.57,4.57,0,0,1,.33,53a4.37,4.37,0,0,1,.93-1.42,4.2,4.2,0,0,1,1.39-1,4,4,0,0,1,1.7-.35,4.58,4.58,0,0,1,1.53.22A4.07,4.07,0,0,1,7,51.09a6.06,6.06,0,0,1,.89.93V50.94A.94.94,0,0,1,8,50.4a.49.49,0,0,1,.43-.16.6.6,0,0,1,.29.06.4.4,0,0,1,.15.22,1.5,1.5,0,0,1,0,.42v7.71a1.22,1.22,0,0,1,0,.37.28.28,0,0,1-.16.2A.64.64,0,0,1,8.42,59.28Zm-3.86-1a3,3,0,0,0,1.65-.46,3.29,3.29,0,0,0,1.18-1.27,3.74,3.74,0,0,0,.44-1.82,3.66,3.66,0,0,0-.46-1.88,3.35,3.35,0,0,0-1.2-1.25,3.23,3.23,0,0,0-1.65-.44,3.5,3.5,0,0,0-1.82.47,3.41,3.41,0,0,0-1.22,1.28A3.87,3.87,0,0,0,1,54.8a3.69,3.69,0,0,0,.44,1.8,3.26,3.26,0,0,0,1.24,1.26A3.66,3.66,0,0,0,4.56,58.31Z"/><path class="cls-2" d="M21.26,59.3A5.55,5.55,0,0,1,19.35,59a4.37,4.37,0,0,1-1.49-.93,3.88,3.88,0,0,1-1-1.42,5.35,5.35,0,0,1,0-3.7,4.16,4.16,0,0,1,1-1.44,4.29,4.29,0,0,1,1.47-.93,5.26,5.26,0,0,1,1.9-.32,3.87,3.87,0,0,1,1.28.22,4.52,4.52,0,0,1,1.19.57,2.08,2.08,0,0,1,.76.78,1,1,0,0,1,.14.36.37.37,0,0,1-.1.23.86.86,0,0,1-.26.21.56.56,0,0,1-.25.08.58.58,0,0,1-.44-.27,2.27,2.27,0,0,0-.46-.47,2.83,2.83,0,0,0-.58-.36,2.55,2.55,0,0,0-.63-.24,2.43,2.43,0,0,0-.65-.09,3.82,3.82,0,0,0-1.86.44,3,3,0,0,0-1.23,1.23,4.07,4.07,0,0,0,0,3.68,3.14,3.14,0,0,0,1.22,1.23,3.92,3.92,0,0,0,2.71.32,4,4,0,0,0,.83-.33,3.09,3.09,0,0,0,.69-.51l.25-.21a.39.39,0,0,1,.26-.09.33.33,0,0,1,.22.09,1.23,1.23,0,0,1,.22.23.31.31,0,0,1,.09.18.41.41,0,0,1,0,.22.45.45,0,0,1-.12.21,4.09,4.09,0,0,1-1,.7,5.57,5.57,0,0,1-1.16.48A4.23,4.23,0,0,1,21.26,59.3Z"/><path class="cls-2" d="M31.08,59.38A4.43,4.43,0,0,1,29.3,59a4.79,4.79,0,0,1-1.47-1,4.51,4.51,0,0,1-1-1.47,4.56,4.56,0,0,1,1-5,4.48,4.48,0,0,1,3.24-1.34,4.45,4.45,0,0,1,2.29.6A4.5,4.5,0,0,1,35,52.41a4.6,4.6,0,0,1,.61,2.35,4.51,4.51,0,0,1-.36,1.82A4.48,4.48,0,0,1,32.83,59,4.28,4.28,0,0,1,31.08,59.38Zm0-1a3.29,3.29,0,0,0,1.75-.48,3.55,3.55,0,0,0,1.26-1.32,3.89,3.89,0,0,0,0-3.65,3.33,3.33,0,0,0-1.25-1.25A3.52,3.52,0,0,0,31,51.21a3.41,3.41,0,0,0-3,1.72,3.56,3.56,0,0,0-.47,1.81A3.65,3.65,0,0,0,28,56.58a3.41,3.41,0,0,0,3.05,1.77Z"/><path class="cls-2" d="M40.56,59.3a4.08,4.08,0,0,1-1-.11,2.35,2.35,0,0,1-.75-.35,2.1,2.1,0,0,1-.54-.57,2.63,2.63,0,0,1-.32-.8,4.4,4.4,0,0,1-.1-1V46.59a1.08,1.08,0,0,1,0-.35.28.28,0,0,1,.17-.18.76.76,0,0,1,.32-.06,1,1,0,0,1,.33,0,.31.31,0,0,1,.18.16.7.7,0,0,1,.06.32v10a2.65,2.65,0,0,0,.09.73,1.31,1.31,0,0,0,.3.53,1.1,1.1,0,0,0,.49.32,2,2,0,0,0,.68.11,1.12,1.12,0,0,1,.35,0,.35.35,0,0,1,.18.18,1.11,1.11,0,0,1,0,.66.33.33,0,0,1-.18.17A1.06,1.06,0,0,1,40.56,59.3Z"/><path class="cls-2" d="M47.48,59.38A4.52,4.52,0,0,1,45.69,59a5,5,0,0,1-1.47-1,4.67,4.67,0,0,1-1-1.47,4.42,4.42,0,0,1-.36-1.78,4.62,4.62,0,0,1,.35-1.8,4.65,4.65,0,0,1,2.46-2.45,4.54,4.54,0,0,1,1.77-.35,4.5,4.5,0,0,1,3.94,2.23,4.59,4.59,0,0,1,.6,2.35,4.51,4.51,0,0,1-.35,1.82,4.44,4.44,0,0,1-1,1.46,4.39,4.39,0,0,1-1.43,1A4.32,4.32,0,0,1,47.48,59.38Zm0-1a3.32,3.32,0,0,0,1.76-.48,3.52,3.52,0,0,0,1.25-1.32,3.67,3.67,0,0,0,.47-1.83,3.54,3.54,0,0,0-.46-1.82,3.31,3.31,0,0,0-1.24-1.25,3.58,3.58,0,0,0-1.8-.44,3.39,3.39,0,0,0-1.77.46,3.46,3.46,0,0,0-1.26,1.26,3.56,3.56,0,0,0-.46,1.81,3.64,3.64,0,0,0,.46,1.84,3.44,3.44,0,0,0,3,1.77Z"/><path class="cls-2" d="M58.6,59.3A5.5,5.5,0,0,1,56.69,59a4.42,4.42,0,0,1-1.5-.93,4,4,0,0,1-.95-1.42,5.2,5.2,0,0,1,0-3.7,4,4,0,0,1,.95-1.44,4.29,4.29,0,0,1,1.47-.93,5.23,5.23,0,0,1,1.9-.32,3.92,3.92,0,0,1,1.28.22A4.67,4.67,0,0,1,61,51a2.16,2.16,0,0,1,.76.78.92.92,0,0,1,.13.36.35.35,0,0,1-.09.23,1,1,0,0,1-.26.21.59.59,0,0,1-.26.08.57.57,0,0,1-.43-.27,2.27,2.27,0,0,0-.46-.47,3.13,3.13,0,0,0-.58-.36,2.62,2.62,0,0,0-.64-.24,2.35,2.35,0,0,0-.64-.09,3.82,3.82,0,0,0-1.86.44,3,3,0,0,0-1.24,1.23,4.07,4.07,0,0,0,0,3.68,3.1,3.1,0,0,0,1.23,1.23,3.89,3.89,0,0,0,2.7.32,4.08,4.08,0,0,0,.84-.33,3,3,0,0,0,.68-.51l.26-.21a.39.39,0,0,1,.26-.09.35.35,0,0,1,.22.09,1.22,1.22,0,0,1,.21.23.32.32,0,0,1,.1.18.55.55,0,0,1,0,.22.45.45,0,0,1-.12.21,4.09,4.09,0,0,1-1,.7,5.8,5.8,0,0,1-1.16.48A4.23,4.23,0,0,1,58.6,59.3Z"/><path class="cls-2" d="M72.31,59.28a.49.49,0,0,1-.38-.13,1.09,1.09,0,0,1-.15-.5V57.38a4.49,4.49,0,0,1-.65.81,3.94,3.94,0,0,1-2.88,1.11A4.17,4.17,0,0,1,65.15,58a4.65,4.65,0,0,1-.92-1.45,4.84,4.84,0,0,1-.33-1.8A4.57,4.57,0,0,1,64.23,53a4.37,4.37,0,0,1,.93-1.42,4.2,4.2,0,0,1,1.39-1,4,4,0,0,1,1.7-.35,4.66,4.66,0,0,1,1.53.22,4.07,4.07,0,0,1,1.12.63,5.56,5.56,0,0,1,.88.93V50.94a.94.94,0,0,1,.12-.54.52.52,0,0,1,.43-.16.61.61,0,0,1,.3.06.4.4,0,0,1,.15.22,1.5,1.5,0,0,1,0,.42v7.71a1.22,1.22,0,0,1,0,.37.3.3,0,0,1-.16.2A.68.68,0,0,1,72.31,59.28Zm-3.85-1a3,3,0,0,0,1.65-.46,3.36,3.36,0,0,0,1.18-1.27,4.11,4.11,0,0,0,0-3.7,3.46,3.46,0,0,0-1.21-1.25,3.22,3.22,0,0,0-1.64-.44,3.51,3.51,0,0,0-1.83.47,3.46,3.46,0,0,0-1.21,1.28,3.87,3.87,0,0,0-.44,1.86,3.69,3.69,0,0,0,.44,1.8,3.24,3.24,0,0,0,1.23,1.26A3.73,3.73,0,0,0,68.46,58.31Z"/><path class="cls-2" d="M76.3,59.3a.67.67,0,0,1-.3-.06.28.28,0,0,1-.16-.19,1.06,1.06,0,0,1,0-.34V50.79a1,1,0,0,1,0-.35.25.25,0,0,1,.16-.17,1.33,1.33,0,0,1,.32,0,1.45,1.45,0,0,1,.32,0,.3.3,0,0,1,.18.17,1,1,0,0,1,.05.35v.8c.13-.22.26-.42.38-.59a2.05,2.05,0,0,1,.46-.47,2,2,0,0,1,.65-.31,3.4,3.4,0,0,1,1-.12,2.4,2.4,0,0,1,.56.06,3.37,3.37,0,0,1,.48.15,3,3,0,0,1,.37.21,1,1,0,0,1,.23.23.41.41,0,0,1,.07.23.51.51,0,0,1-.21.41.6.6,0,0,1-.38.18.62.62,0,0,1-.31-.07,2.39,2.39,0,0,1-.22-.16.9.9,0,0,0-.34-.16,2.46,2.46,0,0,0-.7-.07,1.93,1.93,0,0,0-.63.12,2.71,2.71,0,0,0-.66.37,2.13,2.13,0,0,0-.52.65,2,2,0,0,0-.21,1v5.55a1,1,0,0,1,0,.33.3.3,0,0,1-.18.17A1,1,0,0,1,76.3,59.3Z"/><path class="cls-2" d="M89.28,59.32a.68.68,0,0,1-.31-.06.32.32,0,0,1-.18-.18.75.75,0,0,1-.06-.33V46.64a.86.86,0,0,1,0-.35.33.33,0,0,1,.17-.18.87.87,0,0,1,.31,0,.85.85,0,0,1,.32,0,.33.33,0,0,1,.17.18.83.83,0,0,1,.06.34v12.1a.75.75,0,0,1-.11.46A.58.58,0,0,1,89.28,59.32Zm4.07,0A4.53,4.53,0,0,1,91.64,59a4,4,0,0,1-1.35-.93,4.13,4.13,0,0,1-.89-1.42,5.71,5.71,0,0,1,0-3.71,4.36,4.36,0,0,1,.89-1.45,4,4,0,0,1,1.35-.93,4.34,4.34,0,0,1,1.71-.32,4.11,4.11,0,0,1,1.65.32,4,4,0,0,1,1.33.92,4.27,4.27,0,0,1,.89,1.43,4.89,4.89,0,0,1,.32,1.83,5.1,5.1,0,0,1-.32,1.87A4.17,4.17,0,0,1,96.33,58,3.88,3.88,0,0,1,95,59,4.29,4.29,0,0,1,93.35,59.3Zm-.17-1a3.34,3.34,0,0,0,1.7-.44,3.2,3.2,0,0,0,1.18-1.24,3.73,3.73,0,0,0,.44-1.83,3.82,3.82,0,0,0-.44-1.86,3.16,3.16,0,0,0-1.18-1.25,3.25,3.25,0,0,0-1.7-.45,3.21,3.21,0,0,0-1.69.45,3.16,3.16,0,0,0-1.18,1.25,3.71,3.71,0,0,0-.44,1.86,3.62,3.62,0,0,0,.44,1.83,3.2,3.2,0,0,0,1.18,1.24A3.3,3.3,0,0,0,93.18,58.29Z"/><path class="cls-2" d="M101,47.5a1,1,0,0,1-.42-.08.42.42,0,0,1-.21-.24,1.13,1.13,0,0,1-.07-.44,1,1,0,0,1,.07-.42.43.43,0,0,1,.22-.22A1.27,1.27,0,0,1,101,46a1,1,0,0,1,.42.07.47.47,0,0,1,.22.24,1.36,1.36,0,0,1,.06.45,1.22,1.22,0,0,1-.06.41.43.43,0,0,1-.22.22A1,1,0,0,1,101,47.5Zm0,11.8a.71.71,0,0,1-.31-.06.3.3,0,0,1-.17-.18,1,1,0,0,1-.05-.33V50.79a1,1,0,0,1,.05-.33.3.3,0,0,1,.17-.18,1,1,0,0,1,.33,0,.85.85,0,0,1,.32,0,.37.37,0,0,1,.17.18,1.15,1.15,0,0,1,0,.36v7.92a1,1,0,0,1,0,.33.3.3,0,0,1-.18.17A1,1,0,0,1,101,59.3Z"/><path class="cls-2" d="M108.93,59.34A5.28,5.28,0,0,1,107,59a4.24,4.24,0,0,1-2.45-2.46,5.22,5.22,0,0,1-.34-1.9,4.22,4.22,0,0,1,2.23-3.79,4.89,4.89,0,0,1,2.39-.58,4.59,4.59,0,0,1,1.6.27,4.14,4.14,0,0,1,1.25.72,3.47,3.47,0,0,1,.83,1.05,2.76,2.76,0,0,1,.29,1.21,1.54,1.54,0,0,1-.43,1.27,1.63,1.63,0,0,1-1,.33h-6a2.67,2.67,0,0,0,.51,1.73A3.59,3.59,0,0,0,107.24,58a3.92,3.92,0,0,0,1.67.39,6.85,6.85,0,0,0,1-.06,3.83,3.83,0,0,0,.7-.16,4.2,4.2,0,0,0,.5-.21l.38-.21a2,2,0,0,1,.33-.16.66.66,0,0,1,.21,0,.19.19,0,0,1,.18.11.87.87,0,0,1,.14.24.79.79,0,0,1,0,.23c0,.12-.16.27-.46.47a5.28,5.28,0,0,1-1.24.53A5.77,5.77,0,0,1,108.93,59.34Zm-3.56-5.13H111a1.5,1.5,0,0,0,.58-.09c.14-.06.21-.24.21-.56a1.88,1.88,0,0,0-.39-1.15,2.76,2.76,0,0,0-1-.84,3.37,3.37,0,0,0-1.52-.33,4.15,4.15,0,0,0-1.76.38,3.26,3.26,0,0,0-1.28,1.06A2.49,2.49,0,0,0,105.37,54.21Z"/><path class="cls-2" d="M115.92,59.28a.68.68,0,0,1-.31-.06.29.29,0,0,1-.16-.18,1,1,0,0,1,0-.33v-8a.72.72,0,0,1,0-.29.33.33,0,0,1,.17-.16,1,1,0,0,1,.32,0,.8.8,0,0,1,.23,0,.28.28,0,0,1,.15.08.53.53,0,0,1,.08.15.8.8,0,0,1,0,.23v1.12a7.88,7.88,0,0,1,.55-.62,4.56,4.56,0,0,1,.68-.53,3.15,3.15,0,0,1,.81-.37,3.46,3.46,0,0,1,1-.13,4.1,4.1,0,0,1,1.51.27,3.55,3.55,0,0,1,1.21.8,3.67,3.67,0,0,1,.8,1.27,4.85,4.85,0,0,1,.28,1.72v4.47a1,1,0,0,1,0,.33.27.27,0,0,1-.16.17.85.85,0,0,1-.32.05.75.75,0,0,1-.33-.06.26.26,0,0,1-.17-.18.76.76,0,0,1,0-.33V54.25a3.87,3.87,0,0,0-.31-1.62,2.25,2.25,0,0,0-.91-1.06,2.79,2.79,0,0,0-1.54-.38,3,3,0,0,0-1.57.38,2.51,2.51,0,0,0-1,1.06,3.46,3.46,0,0,0-.36,1.62v4.48a1,1,0,0,1,0,.33.29.29,0,0,1-.17.17A1,1,0,0,1,115.92,59.28Z"/><path class="cls-2" d="M135.6,59.34a5.32,5.32,0,0,1-1.91-.34,4.27,4.27,0,0,1-2.44-2.46,5,5,0,0,1-.34-1.9,4.19,4.19,0,0,1,.59-2.22,4.32,4.32,0,0,1,1.63-1.57,5,5,0,0,1,2.4-.58,4.5,4.5,0,0,1,1.59.27,4.32,4.32,0,0,1,1.26.72,3.29,3.29,0,0,1,.82,1.05,2.64,2.64,0,0,1,.3,1.21,1.57,1.57,0,0,1-.43,1.27,1.66,1.66,0,0,1-1,.33h-6a2.61,2.61,0,0,0,.5,1.73A3.62,3.62,0,0,0,133.92,58a3.87,3.87,0,0,0,1.66.39,6.65,6.65,0,0,0,1-.06,4,4,0,0,0,.71-.16,5,5,0,0,0,.5-.21l.38-.21a1.91,1.91,0,0,1,.32-.16.78.78,0,0,1,.22,0,.22.22,0,0,1,.18.11.82.82,0,0,1,.13.24.56.56,0,0,1,0,.23c0,.12-.15.27-.45.47a5.47,5.47,0,0,1-1.24.53A5.88,5.88,0,0,1,135.6,59.34Zm-3.55-5.13h5.66a1.55,1.55,0,0,0,.59-.09c.14-.06.21-.24.21-.56a1.88,1.88,0,0,0-.39-1.15,2.72,2.72,0,0,0-1.06-.84,3.37,3.37,0,0,0-1.52-.33,4.11,4.11,0,0,0-1.75.38,3.3,3.3,0,0,0-1.29,1.06A2.55,2.55,0,0,0,132.05,54.21Z"/><path class="cls-2" d="M144.57,59.3a4,4,0,0,1-1-.11,2.16,2.16,0,0,1-.75-.35,1.84,1.84,0,0,1-.54-.57,2.41,2.41,0,0,1-.33-.8,4.4,4.4,0,0,1-.1-1V46.59a1,1,0,0,1,.05-.35.28.28,0,0,1,.17-.18.71.71,0,0,1,.31-.06,1,1,0,0,1,.33,0,.31.31,0,0,1,.19.16.89.89,0,0,1,.05.32v10a2.3,2.3,0,0,0,.1.73,1.3,1.3,0,0,0,.29.53,1.14,1.14,0,0,0,.5.32,2,2,0,0,0,.67.11,1.08,1.08,0,0,1,.35,0,.35.35,0,0,1,.18.18.94.94,0,0,1,0,.66.33.33,0,0,1-.18.17A1,1,0,0,1,144.57,59.3Z"/><path class="cls-2" d="M156.9,59.3A5.55,5.55,0,0,1,155,59a4.37,4.37,0,0,1-1.49-.93,3.88,3.88,0,0,1-1-1.42,5.35,5.35,0,0,1,0-3.7,4.16,4.16,0,0,1,1-1.44,4.29,4.29,0,0,1,1.47-.93,5.26,5.26,0,0,1,1.9-.32,4,4,0,0,1,1.29.22,4.61,4.61,0,0,1,1.18.57,2.08,2.08,0,0,1,.76.78,1,1,0,0,1,.14.36.37.37,0,0,1-.1.23.86.86,0,0,1-.26.21.56.56,0,0,1-.25.08.58.58,0,0,1-.44-.27,2.27,2.27,0,0,0-.46-.47,3,3,0,0,0-.57-.36,2.78,2.78,0,0,0-.64-.24,2.43,2.43,0,0,0-.65-.09,3.82,3.82,0,0,0-1.86.44,3,3,0,0,0-1.23,1.23,4.07,4.07,0,0,0,0,3.68A3.14,3.14,0,0,0,155,57.84a3.92,3.92,0,0,0,2.71.32,4,4,0,0,0,.83-.33,3.09,3.09,0,0,0,.69-.51l.26-.21a.35.35,0,0,1,.25-.09.33.33,0,0,1,.22.09,1.23,1.23,0,0,1,.22.23.31.31,0,0,1,.09.18.41.41,0,0,1,0,.22.45.45,0,0,1-.12.21,4.09,4.09,0,0,1-1,.7,5.57,5.57,0,0,1-1.16.48A4.23,4.23,0,0,1,156.9,59.3Z"/><path class="cls-2" d="M166.17,59.32a3.89,3.89,0,0,1-1.5-.28,3.47,3.47,0,0,1-2-2.07,4.81,4.81,0,0,1-.29-1.72V50.79a1,1,0,0,1,.05-.33.3.3,0,0,1,.17-.18.93.93,0,0,1,.31,0,1.06,1.06,0,0,1,.34,0,.33.33,0,0,1,.17.18,1.09,1.09,0,0,1,0,.34v4.46a4.05,4.05,0,0,0,.31,1.61,2.28,2.28,0,0,0,.91,1.07,2.86,2.86,0,0,0,1.52.38,3.24,3.24,0,0,0,1.6-.38,2.57,2.57,0,0,0,1-1.07,3.47,3.47,0,0,0,.36-1.61V50.79a1,1,0,0,1,.05-.33.3.3,0,0,1,.17-.18,1,1,0,0,1,.33,0,.87.87,0,0,1,.31,0,.35.35,0,0,1,.16.18,1.06,1.06,0,0,1,0,.34v8a.74.74,0,0,1,0,.28.28.28,0,0,1-.16.16.93.93,0,0,1-.32.05.75.75,0,0,1-.23,0,.27.27,0,0,1-.15-.08.35.35,0,0,1-.09-.16.69.69,0,0,1,0-.22V57.67a5.22,5.22,0,0,1-.55.61,3.81,3.81,0,0,1-.67.53,3.3,3.3,0,0,1-.83.38A3.92,3.92,0,0,1,166.17,59.32Z"/><path class="cls-2" d="M181.07,59.28a.46.46,0,0,1-.38-.13.89.89,0,0,1-.15-.5V57.38a4.19,4.19,0,0,1-.66.81,3.92,3.92,0,0,1-1.16.78,4.06,4.06,0,0,1-1.72.33A4.12,4.12,0,0,1,173.91,58a4.68,4.68,0,0,1-.93-1.45,4.84,4.84,0,0,1-.33-1.8,4.4,4.4,0,0,1,1.27-3.16,4.16,4.16,0,0,1,1.38-1,4,4,0,0,1,1.7-.35,4.58,4.58,0,0,1,1.53.22,3.92,3.92,0,0,1,1.12.63,5.62,5.62,0,0,1,.89.93V50.94a.94.94,0,0,1,.12-.54.49.49,0,0,1,.43-.16.6.6,0,0,1,.29.06.4.4,0,0,1,.15.22,1.2,1.2,0,0,1,.05.42v7.71a1,1,0,0,1-.05.37.28.28,0,0,1-.16.2A.64.64,0,0,1,181.07,59.28Zm-3.86-1a3,3,0,0,0,1.65-.46A3.29,3.29,0,0,0,180,56.58a3.74,3.74,0,0,0,.44-1.82,3.66,3.66,0,0,0-.46-1.88,3.35,3.35,0,0,0-1.2-1.25,3.23,3.23,0,0,0-1.65-.44,3.5,3.5,0,0,0-1.82.47,3.41,3.41,0,0,0-1.22,1.28,3.87,3.87,0,0,0-.43,1.86,3.69,3.69,0,0,0,.43,1.8,3.26,3.26,0,0,0,1.24,1.26A3.66,3.66,0,0,0,177.21,58.31Z"/><path class="cls-2" d="M188.46,59.3a4.37,4.37,0,0,1-1.65-.32,3.88,3.88,0,0,1-1.33-.94,4.34,4.34,0,0,1-.9-1.45,5.32,5.32,0,0,1-.32-1.87,5.09,5.09,0,0,1,.32-1.83,4.46,4.46,0,0,1,.9-1.43,4,4,0,0,1,1.33-.92,4.18,4.18,0,0,1,1.65-.32,4.34,4.34,0,0,1,1.71.32,4,4,0,0,1,1.35.93,4.34,4.34,0,0,1,.88,1.45,5.71,5.71,0,0,1,0,3.71,4.11,4.11,0,0,1-.88,1.42,4,4,0,0,1-1.35.93A4.53,4.53,0,0,1,188.46,59.3Zm.17-1a3.15,3.15,0,0,0,2.87-1.68,3.73,3.73,0,0,0,.44-1.83,3.82,3.82,0,0,0-.44-1.86,3.2,3.2,0,0,0-2.87-1.7,3.26,3.26,0,0,0-1.69.45,3.14,3.14,0,0,0-1.2,1.25,3.82,3.82,0,0,0-.44,1.86,3.73,3.73,0,0,0,.44,1.83,3.18,3.18,0,0,0,1.2,1.24A3.35,3.35,0,0,0,188.63,58.29Zm3.91,1a.58.58,0,0,1-.42-.13.61.61,0,0,1-.13-.44V46.63a1,1,0,0,1,0-.35.32.32,0,0,1,.17-.19.91.91,0,0,1,.31-.05,1,1,0,0,1,.33.05.4.4,0,0,1,.17.19.75.75,0,0,1,.06.33v12.1a1.06,1.06,0,0,1-.05.34.31.31,0,0,1-.16.19A.75.75,0,0,1,192.54,59.3Z"/><path class="cls-2" d="M200.3,59.34a5.28,5.28,0,0,1-1.91-.34,4.24,4.24,0,0,1-2.45-2.46,5.22,5.22,0,0,1-.34-1.9,4.22,4.22,0,0,1,2.23-3.79,4.89,4.89,0,0,1,2.39-.58,4.59,4.59,0,0,1,1.6.27,4.26,4.26,0,0,1,1.25.72,3.47,3.47,0,0,1,.83,1.05,2.76,2.76,0,0,1,.29,1.21,1.54,1.54,0,0,1-.43,1.27,1.63,1.63,0,0,1-1,.33h-6a2.67,2.67,0,0,0,.51,1.73A3.59,3.59,0,0,0,198.61,58a3.92,3.92,0,0,0,1.67.39,6.85,6.85,0,0,0,1-.06,3.83,3.83,0,0,0,.7-.16,4.2,4.2,0,0,0,.5-.21l.38-.21a2,2,0,0,1,.33-.16.66.66,0,0,1,.21,0,.19.19,0,0,1,.18.11.87.87,0,0,1,.14.24.79.79,0,0,1,0,.23c0,.12-.16.27-.46.47a5.28,5.28,0,0,1-1.24.53A5.81,5.81,0,0,1,200.3,59.34Zm-3.56-5.13h5.66a1.52,1.52,0,0,0,.59-.09c.14-.06.21-.24.21-.56a1.88,1.88,0,0,0-.39-1.15,2.76,2.76,0,0,0-1.05-.84,3.4,3.4,0,0,0-1.52-.33,4.12,4.12,0,0,0-1.76.38,3.26,3.26,0,0,0-1.28,1.06A2.49,2.49,0,0,0,196.74,54.21Z"/><path class="cls-2" d="M207.29,59.3a.68.68,0,0,1-.31-.06.31.31,0,0,1-.16-.19,1.06,1.06,0,0,1,0-.34V50.79a1,1,0,0,1,0-.35.27.27,0,0,1,.16-.17,1.42,1.42,0,0,1,.33,0,1.35,1.35,0,0,1,.31,0,.3.3,0,0,1,.18.17.79.79,0,0,1,.06.35v.8a4.63,4.63,0,0,1,.38-.59,1.89,1.89,0,0,1,1.11-.78,3.4,3.4,0,0,1,1-.12,2.47,2.47,0,0,1,.56.06,2.88,2.88,0,0,1,.47.15,2.43,2.43,0,0,1,.37.21,1,1,0,0,1,.23.23A.43.43,0,0,1,212,51a.51.51,0,0,1-.21.41.62.62,0,0,1-.38.18.59.59,0,0,1-.31-.07,1.53,1.53,0,0,1-.22-.16,1,1,0,0,0-.35-.16,2.41,2.41,0,0,0-.7-.07,1.93,1.93,0,0,0-.63.12,2.85,2.85,0,0,0-.65.37,2,2,0,0,0-.52.65,2,2,0,0,0-.21,1v5.55a1,1,0,0,1-.05.33.29.29,0,0,1-.17.17A1,1,0,0,1,207.29,59.3Z"/><path class="cls-2" d="M215.13,59.28a.67.67,0,0,1-.3-.06.26.26,0,0,1-.16-.18,1,1,0,0,1,0-.33v-8a.72.72,0,0,1,0-.29.33.33,0,0,1,.17-.16.93.93,0,0,1,.31,0,.75.75,0,0,1,.23,0,.24.24,0,0,1,.15.08.38.38,0,0,1,.09.15.8.8,0,0,1,0,.23v1.12a6.27,6.27,0,0,1,.55-.62,5,5,0,0,1,.67-.53,3.21,3.21,0,0,1,.82-.37,3.46,3.46,0,0,1,1-.13,4.13,4.13,0,0,1,1.51.27,3.52,3.52,0,0,1,2,2.07,4.84,4.84,0,0,1,.29,1.72v4.47a1,1,0,0,1-.05.33.3.3,0,0,1-.16.17.93.93,0,0,1-.32.05.83.83,0,0,1-.34-.06.28.28,0,0,1-.17-.18,1,1,0,0,1,0-.33V54.25a4,4,0,0,0-.3-1.62,2.31,2.31,0,0,0-.91-1.06,2.82,2.82,0,0,0-1.54-.38,3.08,3.08,0,0,0-1.58.38,2.54,2.54,0,0,0-1,1.06,3.46,3.46,0,0,0-.36,1.62v4.48a1,1,0,0,1-.05.33.29.29,0,0,1-.17.17A1.06,1.06,0,0,1,215.13,59.28Z"/><path class="cls-2" d="M229.4,59.38a4.43,4.43,0,0,1-1.78-.37,4.79,4.79,0,0,1-1.47-1,4.51,4.51,0,0,1-1-1.47,4.56,4.56,0,0,1,1-5,4.48,4.48,0,0,1,3.24-1.34,4.45,4.45,0,0,1,2.29.6,4.5,4.5,0,0,1,1.64,1.63,4.6,4.6,0,0,1,.61,2.35,4.51,4.51,0,0,1-.36,1.82,4.48,4.48,0,0,1-2.4,2.44A4.28,4.28,0,0,1,229.4,59.38Zm0-1a3.29,3.29,0,0,0,1.75-.48,3.55,3.55,0,0,0,1.26-1.32,3.89,3.89,0,0,0,0-3.65,3.33,3.33,0,0,0-1.25-1.25,3.52,3.52,0,0,0-1.79-.44,3.41,3.41,0,0,0-3,1.72,3.56,3.56,0,0,0-.47,1.81,3.65,3.65,0,0,0,.47,1.84,3.41,3.41,0,0,0,3.05,1.77Z"/><path class="cls-2" d="M242,62.93a.75.75,0,0,1-.33-.06.32.32,0,0,1-.18-.18.75.75,0,0,1-.06-.33V50.83a1.11,1.11,0,0,1,.05-.36.33.33,0,0,1,.17-.18,1,1,0,0,1,.33,0,.66.66,0,0,1,.45.12.64.64,0,0,1,.12.45V62.34a1.06,1.06,0,0,1,0,.34.32.32,0,0,1-.17.19A.75.75,0,0,1,242,62.93Zm4.08-3.67a4.53,4.53,0,0,1-1.71-.32,4,4,0,0,1-1.34-.93,4.36,4.36,0,0,1-.89-1.45,5.22,5.22,0,0,1-.31-1.86,5.17,5.17,0,0,1,.31-1.85,4.27,4.27,0,0,1,.89-1.43,4.16,4.16,0,0,1,1.34-.92,4.53,4.53,0,0,1,1.71-.32,4.31,4.31,0,0,1,1.66.32,4.1,4.1,0,0,1,1.33.93,4.47,4.47,0,0,1,.89,1.46,5.06,5.06,0,0,1,.32,1.87,4.89,4.89,0,0,1-.32,1.83,4.44,4.44,0,0,1-.89,1.43,4.07,4.07,0,0,1-1.33.92A4.31,4.31,0,0,1,246.1,59.26Zm-.17-1a3.15,3.15,0,0,0,2.89-1.7,4.11,4.11,0,0,0,0-3.7,3.13,3.13,0,0,0-1.19-1.23,3.29,3.29,0,0,0-4.57,1.25,3.7,3.7,0,0,0-.43,1.83,3.8,3.8,0,0,0,.43,1.85,3.29,3.29,0,0,0,1.19,1.26A3.19,3.19,0,0,0,245.93,58.25Z"/><path class="cls-2" d="M260.91,59.28a.46.46,0,0,1-.38-.13,1,1,0,0,1-.16-.5V57.38a4,4,0,0,1-3.53,1.92,4.17,4.17,0,0,1-3.1-1.33,4.65,4.65,0,0,1-.92-1.45,4.84,4.84,0,0,1-.33-1.8,4.57,4.57,0,0,1,.33-1.74,4.37,4.37,0,0,1,.93-1.42,4.2,4.2,0,0,1,1.39-1,4,4,0,0,1,1.7-.35,4.66,4.66,0,0,1,1.53.22,4.07,4.07,0,0,1,1.12.63,5.56,5.56,0,0,1,.88.93V50.94a.86.86,0,0,1,.13-.54.48.48,0,0,1,.42-.16.61.61,0,0,1,.3.06.4.4,0,0,1,.15.22,1.5,1.5,0,0,1,.05.42v7.71a1.22,1.22,0,0,1-.05.37.28.28,0,0,1-.16.2A.67.67,0,0,1,260.91,59.28Zm-3.86-1a3,3,0,0,0,1.65-.46,3.29,3.29,0,0,0,1.18-1.27,4,4,0,0,0,0-3.7,3.38,3.38,0,0,0-1.21-1.25,3.2,3.2,0,0,0-1.64-.44,3.47,3.47,0,0,0-1.82.47A3.41,3.41,0,0,0,254,52.94a3.87,3.87,0,0,0-.44,1.86,3.69,3.69,0,0,0,.44,1.8,3.2,3.2,0,0,0,1.24,1.26A3.66,3.66,0,0,0,257.05,58.31Z"/><path class="cls-2" d="M264.89,59.3a.67.67,0,0,1-.3-.06.28.28,0,0,1-.16-.19,1.06,1.06,0,0,1-.05-.34V50.79a1,1,0,0,1,.05-.35.25.25,0,0,1,.16-.17,1.33,1.33,0,0,1,.32,0,1.45,1.45,0,0,1,.32,0,.3.3,0,0,1,.18.17.81.81,0,0,1,0,.35v.8c.13-.22.26-.42.38-.59a2.05,2.05,0,0,1,.46-.47,2,2,0,0,1,.66-.31,3.33,3.33,0,0,1,1-.12,2.56,2.56,0,0,1,.57.06,3.23,3.23,0,0,1,.47.15,2.43,2.43,0,0,1,.37.21,1,1,0,0,1,.23.23.41.41,0,0,1,.07.23.53.53,0,0,1-.2.41.62.62,0,0,1-.38.18.66.66,0,0,1-.32-.07,2.39,2.39,0,0,1-.22-.16.9.9,0,0,0-.34-.16,2.46,2.46,0,0,0-.7-.07,1.93,1.93,0,0,0-.63.12,2.65,2.65,0,0,0-.65.37,2,2,0,0,0-.74,1.6v5.55a1,1,0,0,1,0,.33.29.29,0,0,1-.17.17A1.11,1.11,0,0,1,264.89,59.3Z"/><path class="cls-2" d="M280.08,59.28a.46.46,0,0,1-.38-.13,1,1,0,0,1-.16-.5V57.38A4,4,0,0,1,276,59.3a4.26,4.26,0,0,1-1.72-.35,4.34,4.34,0,0,1-1.38-1,4.65,4.65,0,0,1-.92-1.45,4.84,4.84,0,0,1-.33-1.8A4.57,4.57,0,0,1,272,53a4.37,4.37,0,0,1,.93-1.42,4.2,4.2,0,0,1,1.39-1,4,4,0,0,1,1.7-.35,4.66,4.66,0,0,1,1.53.22,4.07,4.07,0,0,1,1.12.63,5.56,5.56,0,0,1,.88.93V50.94a.86.86,0,0,1,.13-.54.48.48,0,0,1,.42-.16.61.61,0,0,1,.3.06.4.4,0,0,1,.15.22,1.5,1.5,0,0,1,0,.42v7.71a1.22,1.22,0,0,1,0,.37.28.28,0,0,1-.16.2A.67.67,0,0,1,280.08,59.28Zm-3.86-1a3,3,0,0,0,1.65-.46,3.29,3.29,0,0,0,1.18-1.27,4,4,0,0,0,0-3.7,3.38,3.38,0,0,0-1.21-1.25,3.2,3.2,0,0,0-1.64-.44,3.47,3.47,0,0,0-1.82.47,3.41,3.41,0,0,0-1.22,1.28,3.87,3.87,0,0,0-.44,1.86,3.69,3.69,0,0,0,.44,1.8,3.2,3.2,0,0,0,1.24,1.26A3.66,3.66,0,0,0,276.22,58.31Z"/><path class="cls-2" d="M288.61,50.48l1.69,0,2.64,0a1,1,0,0,1,.33.05.35.35,0,0,1,.18.16.68.68,0,0,1,.06.31,1,1,0,0,1-.05.33.27.27,0,0,1-.16.17.89.89,0,0,1-.32,0l-2.68,0-1.73,0a.54.54,0,0,1-.42-.13A.59.59,0,0,1,288,51a.49.49,0,0,1,.13-.4A.64.64,0,0,1,288.61,50.48Zm4.21,8.82a5.81,5.81,0,0,1-1.43-.15,2.15,2.15,0,0,1-.94-.48,1.73,1.73,0,0,1-.51-.86,4.68,4.68,0,0,1-.16-1.34V47.73a1,1,0,0,1,.05-.35.29.29,0,0,1,.16-.18.68.68,0,0,1,.31-.06,1,1,0,0,1,.33,0,.31.31,0,0,1,.18.16.67.67,0,0,1,.06.32v8.84a3.46,3.46,0,0,0,.1.94,1,1,0,0,0,.32.52,1.26,1.26,0,0,0,.6.22,8.19,8.19,0,0,0,.92,0,1.08,1.08,0,0,1,.35.05.35.35,0,0,1,.18.16.76.76,0,0,1,.05.33.72.72,0,0,1-.05.32.31.31,0,0,1-.18.16A1.06,1.06,0,0,1,292.82,59.3Z"/><path class="cls-2" d="M296.42,59.3a.68.68,0,0,1-.31-.06.31.31,0,0,1-.16-.19,1.06,1.06,0,0,1-.05-.34V50.79a1,1,0,0,1,.05-.35.27.27,0,0,1,.16-.17,1.33,1.33,0,0,1,.32,0,1.39,1.39,0,0,1,.32,0,.3.3,0,0,1,.18.17.81.81,0,0,1,.05.35v.8a6,6,0,0,1,.39-.59,1.83,1.83,0,0,1,.45-.47,2,2,0,0,1,.66-.31,3.36,3.36,0,0,1,1-.12,2.53,2.53,0,0,1,.56.06,3.23,3.23,0,0,1,.47.15,2.43,2.43,0,0,1,.37.21,1,1,0,0,1,.23.23.43.43,0,0,1,.08.23.51.51,0,0,1-.21.41.62.62,0,0,1-.38.18.66.66,0,0,1-.32-.07,2.39,2.39,0,0,1-.22-.16.9.9,0,0,0-.34-.16,2.41,2.41,0,0,0-.7-.07,1.93,1.93,0,0,0-.63.12,2.65,2.65,0,0,0-.65.37,2,2,0,0,0-.74,1.6v5.55a1,1,0,0,1,0,.33.29.29,0,0,1-.17.17A1.08,1.08,0,0,1,296.42,59.3Z"/><path class="cls-2" d="M311.6,59.28a.46.46,0,0,1-.38-.13,1,1,0,0,1-.16-.5V57.38a4,4,0,0,1-3.53,1.92,4.26,4.26,0,0,1-1.72-.35,4.34,4.34,0,0,1-1.38-1,4.65,4.65,0,0,1-.92-1.45,4.84,4.84,0,0,1-.33-1.8,4.57,4.57,0,0,1,.33-1.74,4.37,4.37,0,0,1,.93-1.42,4.2,4.2,0,0,1,1.39-1,4,4,0,0,1,1.7-.35,4.62,4.62,0,0,1,1.53.22,4.07,4.07,0,0,1,1.12.63,5.56,5.56,0,0,1,.88.93V50.94a.86.86,0,0,1,.13-.54.48.48,0,0,1,.42-.16.61.61,0,0,1,.3.06.4.4,0,0,1,.15.22,1.5,1.5,0,0,1,.05.42v7.71a1.22,1.22,0,0,1-.05.37.28.28,0,0,1-.16.2A.67.67,0,0,1,311.6,59.28Zm-3.86-1a3,3,0,0,0,1.65-.46,3.29,3.29,0,0,0,1.18-1.27,4,4,0,0,0,0-3.7,3.38,3.38,0,0,0-1.21-1.25,3.2,3.2,0,0,0-1.64-.44,3.47,3.47,0,0,0-1.82.47,3.41,3.41,0,0,0-1.22,1.28,3.87,3.87,0,0,0-.44,1.86,3.69,3.69,0,0,0,.44,1.8,3.2,3.2,0,0,0,1.24,1.26A3.66,3.66,0,0,0,307.74,58.31Z"/><path class="cls-2" d="M315.47,59.32a.68.68,0,0,1-.31-.06.39.39,0,0,1-.18-.18.75.75,0,0,1-.06-.33V46.64a1.08,1.08,0,0,1,.05-.35.33.33,0,0,1,.17-.18.91.91,0,0,1,.31,0,1,1,0,0,1,.33,0,.42.42,0,0,1,.17.18,1.06,1.06,0,0,1,.05.34v12.1a.69.69,0,0,1-.11.46A.58.58,0,0,1,315.47,59.32Zm4.07,0a4.53,4.53,0,0,1-1.71-.32,4,4,0,0,1-1.35-.93,4.13,4.13,0,0,1-.89-1.42,5.71,5.71,0,0,1,0-3.71,4.36,4.36,0,0,1,.89-1.45,4,4,0,0,1,1.35-.93,4.34,4.34,0,0,1,1.71-.32,4.11,4.11,0,0,1,1.65.32,4,4,0,0,1,1.33.92,4.27,4.27,0,0,1,.89,1.43,4.89,4.89,0,0,1,.33,1.83,5.1,5.1,0,0,1-.33,1.87,4.17,4.17,0,0,1-.89,1.45,3.88,3.88,0,0,1-1.33.94A4.29,4.29,0,0,1,319.54,59.3Zm-.17-1a3.34,3.34,0,0,0,1.7-.44,3.2,3.2,0,0,0,1.18-1.24,3.62,3.62,0,0,0,.44-1.83,3.71,3.71,0,0,0-.44-1.86,3.16,3.16,0,0,0-1.18-1.25,3.25,3.25,0,0,0-1.7-.45,3.2,3.2,0,0,0-1.68.45,3.12,3.12,0,0,0-1.19,1.25,3.82,3.82,0,0,0-.44,1.86,3.73,3.73,0,0,0,.44,1.83,3.16,3.16,0,0,0,1.19,1.24A3.29,3.29,0,0,0,319.37,58.29Z"/><path class="cls-2" d="M334.45,59.28a.47.47,0,0,1-.38-.13,1.09,1.09,0,0,1-.15-.5V57.38a4.19,4.19,0,0,1-.66.81,3.87,3.87,0,0,1-1.15.78,4.09,4.09,0,0,1-1.72.33,4.17,4.17,0,0,1-3.1-1.33,4.65,4.65,0,0,1-.92-1.45,4.84,4.84,0,0,1-.33-1.8,4.57,4.57,0,0,1,.33-1.74,4.37,4.37,0,0,1,.93-1.42,4.2,4.2,0,0,1,1.39-1,4,4,0,0,1,1.7-.35,4.66,4.66,0,0,1,1.53.22,4.22,4.22,0,0,1,1.12.63,6,6,0,0,1,.88.93V50.94a.94.94,0,0,1,.12-.54.52.52,0,0,1,.43-.16.61.61,0,0,1,.3.06.45.45,0,0,1,.15.22,1.5,1.5,0,0,1,.05.42v7.71a1.22,1.22,0,0,1-.05.37.3.3,0,0,1-.16.2A.68.68,0,0,1,334.45,59.28Zm-3.85-1a3.07,3.07,0,0,0,1.65-.46,3.44,3.44,0,0,0,1.18-1.27,4.11,4.11,0,0,0,0-3.7,3.46,3.46,0,0,0-1.21-1.25,3.22,3.22,0,0,0-1.64-.44,3.51,3.51,0,0,0-1.83.47,3.38,3.38,0,0,0-1.21,1.28,3.87,3.87,0,0,0-.44,1.86,3.69,3.69,0,0,0,.44,1.8,3.24,3.24,0,0,0,1.23,1.26A3.7,3.7,0,0,0,330.6,58.31Z"/><path class="cls-2" d="M335.74,62.89a.79.79,0,0,1-.32-.06.35.35,0,0,1-.19-.17.64.64,0,0,1-.06-.3.68.68,0,0,1,.06-.31.4.4,0,0,1,.19-.17,1.06,1.06,0,0,1,.34-.05,5.24,5.24,0,0,0,1-.09,2,2,0,0,0,.81-.34,1.64,1.64,0,0,0,.53-.75,3.58,3.58,0,0,0,.19-1.29V50.77a.68.68,0,0,1,.06-.31.33.33,0,0,1,.18-.17,1,1,0,0,1,.62,0,.4.4,0,0,1,.17.19,1.13,1.13,0,0,1,.05.35v8.49a4.66,4.66,0,0,1-.25,1.63,2.68,2.68,0,0,1-.74,1.11,2.78,2.78,0,0,1-1.13.63A5.41,5.41,0,0,1,335.74,62.89ZM338.8,47.5a.74.74,0,0,1-.55-.17.91.91,0,0,1-.15-.59.77.77,0,0,1,.15-.55.81.81,0,0,1,.57-.15.68.68,0,0,1,.55.17.89.89,0,0,1,.15.59.79.79,0,0,1-.15.54A.76.76,0,0,1,338.8,47.5Z"/><path class="cls-2" d="M350.68,59.28a.46.46,0,0,1-.38-.13.89.89,0,0,1-.15-.5V57.38a4.19,4.19,0,0,1-.66.81,3.92,3.92,0,0,1-1.16.78,4.06,4.06,0,0,1-1.72.33,4.26,4.26,0,0,1-1.72-.35,4.46,4.46,0,0,1-1.38-1,4.65,4.65,0,0,1-.92-1.45,4.84,4.84,0,0,1-.33-1.8,4.45,4.45,0,0,1,1.26-3.16,4.2,4.2,0,0,1,1.39-1,4,4,0,0,1,1.7-.35,4.58,4.58,0,0,1,1.53.22,4.07,4.07,0,0,1,1.12.63,6.06,6.06,0,0,1,.89.93V50.94a.94.94,0,0,1,.12-.54.49.49,0,0,1,.43-.16.6.6,0,0,1,.29.06.4.4,0,0,1,.15.22,1.5,1.5,0,0,1,.05.42v7.71a1.22,1.22,0,0,1-.05.37.28.28,0,0,1-.16.2A.64.64,0,0,1,350.68,59.28Zm-3.86-1a3,3,0,0,0,1.65-.46,3.29,3.29,0,0,0,1.18-1.27,3.74,3.74,0,0,0,.44-1.82,3.66,3.66,0,0,0-.46-1.88,3.35,3.35,0,0,0-1.2-1.25,3.23,3.23,0,0,0-1.65-.44,3.5,3.5,0,0,0-1.82.47,3.41,3.41,0,0,0-1.22,1.28,3.87,3.87,0,0,0-.43,1.86,3.69,3.69,0,0,0,.43,1.8A3.26,3.26,0,0,0,345,57.86,3.66,3.66,0,0,0,346.82,58.31Z"/><path class="cls-2" d="M354.67,59.3a.68.68,0,0,1-.31-.06.31.31,0,0,1-.16-.19,1.06,1.06,0,0,1-.05-.34V50.79a1,1,0,0,1,.05-.35.27.27,0,0,1,.16-.17,1.42,1.42,0,0,1,.33,0,1.35,1.35,0,0,1,.31,0,.3.3,0,0,1,.18.17.79.79,0,0,1,.06.35v.8a4.63,4.63,0,0,1,.38-.59,1.89,1.89,0,0,1,1.11-.78,3.36,3.36,0,0,1,1-.12,2.47,2.47,0,0,1,.56.06,2.88,2.88,0,0,1,.47.15,2.43,2.43,0,0,1,.37.21,1,1,0,0,1,.23.23.43.43,0,0,1,.08.23.51.51,0,0,1-.21.41.62.62,0,0,1-.38.18.66.66,0,0,1-.32-.07,1.46,1.46,0,0,1-.21-.16,1,1,0,0,0-.35-.16,2.41,2.41,0,0,0-.7-.07,1.93,1.93,0,0,0-.63.12,2.85,2.85,0,0,0-.65.37,2,2,0,0,0-.52.65,2,2,0,0,0-.21,1v5.55a1,1,0,0,1-.05.33.29.29,0,0,1-.17.17A1,1,0,0,1,354.67,59.3Z"/><path class="cls-2" d="M4.69,82.3A5.59,5.59,0,0,1,2.78,82a4.47,4.47,0,0,1-1.49-.93,3.88,3.88,0,0,1-1-1.42,5.35,5.35,0,0,1,0-3.7,4.16,4.16,0,0,1,1-1.44,4.38,4.38,0,0,1,1.47-.93,5.3,5.3,0,0,1,1.9-.32,4,4,0,0,1,1.29.22A4.84,4.84,0,0,1,7.13,74a2.25,2.25,0,0,1,.76.78,1.12,1.12,0,0,1,.13.36.32.32,0,0,1-.1.23.82.82,0,0,1-.25.21.59.59,0,0,1-.26.08A.58.58,0,0,1,7,75.42,2.22,2.22,0,0,0,6.52,75a3.13,3.13,0,0,0-.58-.36,2.62,2.62,0,0,0-.64-.24,2.37,2.37,0,0,0-.65-.09,3.87,3.87,0,0,0-1.86.44,3,3,0,0,0-1.23,1.23,4.07,4.07,0,0,0,0,3.68,3.14,3.14,0,0,0,1.22,1.23,3.76,3.76,0,0,0,1.84.43,3.7,3.7,0,0,0,.87-.11,4.31,4.31,0,0,0,.84-.33A3.27,3.27,0,0,0,7,80.32l.26-.21A.37.37,0,0,1,7.52,80a.33.33,0,0,1,.22.09,1,1,0,0,1,.22.23.4.4,0,0,1,.1.18.55.55,0,0,1,0,.22.39.39,0,0,1-.13.21,3.72,3.72,0,0,1-1,.7,5.57,5.57,0,0,1-1.16.48A4.11,4.11,0,0,1,4.69,82.3Z"/><path class="cls-2" d="M14.52,82.38A4.48,4.48,0,0,1,12.73,82a4.79,4.79,0,0,1-1.47-1,4.51,4.51,0,0,1-1-1.47,4.42,4.42,0,0,1-.36-1.78,4.62,4.62,0,0,1,.35-1.8,4.39,4.39,0,0,1,1-1.46,4.48,4.48,0,0,1,3.24-1.34A4.49,4.49,0,0,1,19,77.76a4.69,4.69,0,0,1-.35,1.82,4.6,4.6,0,0,1-1,1.46,4.33,4.33,0,0,1-1.44,1A4.24,4.24,0,0,1,14.52,82.38Zm0-1a3.35,3.35,0,0,0,1.76-.48,3.6,3.6,0,0,0,1.25-1.32,3.81,3.81,0,0,0,0-3.65,3.26,3.26,0,0,0-1.25-1.25,3.52,3.52,0,0,0-1.79-.44,3.45,3.45,0,0,0-1.78.46,3.51,3.51,0,0,0-1.25,1.26A3.56,3.56,0,0,0,11,77.74a3.65,3.65,0,0,0,.47,1.84,3.41,3.41,0,0,0,3.05,1.77Z"/><path class="cls-2" d="M22,82.28a.61.61,0,0,1-.3-.06.26.26,0,0,1-.16-.18.76.76,0,0,1,0-.33v-8a.58.58,0,0,1,0-.29.3.3,0,0,1,.17-.16.9.9,0,0,1,.31,0,.8.8,0,0,1,.23,0,.28.28,0,0,1,.15.08.38.38,0,0,1,.09.15,1.52,1.52,0,0,1,0,.23v1.12a7.88,7.88,0,0,1,.55-.62,5.14,5.14,0,0,1,.68-.53,3.21,3.21,0,0,1,.82-.37,3.39,3.39,0,0,1,1-.13,4.1,4.1,0,0,1,1.51.27,3.46,3.46,0,0,1,1.21.8,3.67,3.67,0,0,1,.8,1.27,4.85,4.85,0,0,1,.28,1.72v4.47a1,1,0,0,1,0,.33.33.33,0,0,1-.16.17,1,1,0,0,1-.33,0,.75.75,0,0,1-.33-.06.28.28,0,0,1-.17-.18,1,1,0,0,1-.05-.33V77.25a4,4,0,0,0-.3-1.62,2.37,2.37,0,0,0-.91-1.06,2.82,2.82,0,0,0-1.54-.38,3.06,3.06,0,0,0-1.58.38,2.57,2.57,0,0,0-1,1.06,3.46,3.46,0,0,0-.36,1.62v4.48a.76.76,0,0,1-.05.33.26.26,0,0,1-.17.17A1,1,0,0,1,22,82.28Z"/><path class="cls-2" d="M38.09,82.28a.67.67,0,0,1-.3-.06.26.26,0,0,1-.16-.18,1,1,0,0,1-.05-.33v-8a.72.72,0,0,1,.05-.29.33.33,0,0,1,.17-.16.93.93,0,0,1,.31,0,.49.49,0,0,1,.38.11.51.51,0,0,1,.12.38v1.14a2,2,0,0,1,.48-.7,3.37,3.37,0,0,1,.71-.53,4.48,4.48,0,0,1,.83-.33,3.51,3.51,0,0,1,.83-.11,2.84,2.84,0,0,1,1.22.26,3.13,3.13,0,0,1,1,.75,4.32,4.32,0,0,1,.71,1.19,6.85,6.85,0,0,1,.88-1.24,2.69,2.69,0,0,1,1-.72,3.15,3.15,0,0,1,1.26-.24,3,3,0,0,1,1.8.53,3.29,3.29,0,0,1,1.07,1.48,6.36,6.36,0,0,1,.36,2.25v4.27a1,1,0,0,1,0,.33.27.27,0,0,1-.16.17.89.89,0,0,1-.32,0,.75.75,0,0,1-.33-.06.29.29,0,0,1-.18-.18,1,1,0,0,1,0-.33V77.44a5.52,5.52,0,0,0-.24-1.71,2.52,2.52,0,0,0-.71-1.13,1.8,1.8,0,0,0-1.24-.41A2.46,2.46,0,0,0,46,74.6a2.8,2.8,0,0,0-1,1.13,3.84,3.84,0,0,0-.36,1.71v4.31a.56.56,0,0,1-.13.39.51.51,0,0,1-.3.17.53.53,0,0,1-.33,0,.49.49,0,0,1-.19-.1.42.42,0,0,1-.11-.18,1.12,1.12,0,0,1,0-.27V77.44a5.53,5.53,0,0,0-.23-1.71,2.46,2.46,0,0,0-.72-1.13,1.76,1.76,0,0,0-1.23-.41A2.52,2.52,0,0,0,40,74.6a2.85,2.85,0,0,0-1,1.13,3.84,3.84,0,0,0-.36,1.71v4.29a1,1,0,0,1,0,.33.29.29,0,0,1-.17.17A1.06,1.06,0,0,1,38.09,82.28Z"/><path class="cls-2" d="M61.64,82.28a.46.46,0,0,1-.38-.13,1,1,0,0,1-.16-.5V80.38a4,4,0,0,1-3.53,1.92A4.26,4.26,0,0,1,55.85,82a4.34,4.34,0,0,1-1.38-1,4.65,4.65,0,0,1-.92-1.45,4.84,4.84,0,0,1-.33-1.8A4.57,4.57,0,0,1,53.55,76a4.37,4.37,0,0,1,.93-1.42,4.2,4.2,0,0,1,1.39-1,4,4,0,0,1,1.7-.35,4.62,4.62,0,0,1,1.53.22,4.07,4.07,0,0,1,1.12.63,5.56,5.56,0,0,1,.88.93V73.94a.86.86,0,0,1,.13-.54.48.48,0,0,1,.42-.16.61.61,0,0,1,.3.06.4.4,0,0,1,.15.22,1.5,1.5,0,0,1,0,.42v7.71a1.22,1.22,0,0,1,0,.37.28.28,0,0,1-.16.2A.67.67,0,0,1,61.64,82.28Zm-3.86-1a3,3,0,0,0,1.65-.46,3.29,3.29,0,0,0,1.18-1.27,4,4,0,0,0,0-3.7,3.38,3.38,0,0,0-1.21-1.25,3.2,3.2,0,0,0-1.64-.44,3.47,3.47,0,0,0-1.82.47,3.41,3.41,0,0,0-1.22,1.28,3.87,3.87,0,0,0-.44,1.86,3.69,3.69,0,0,0,.44,1.8,3.2,3.2,0,0,0,1.24,1.26A3.66,3.66,0,0,0,57.78,81.31Z"/><path class="cls-2" d="M68.78,80.76,64.5,74.11a.66.66,0,0,1-.13-.44.57.57,0,0,1,.29-.32.6.6,0,0,1,.44-.13.56.56,0,0,1,.35.3l3.9,6.18Zm-2,5.15c-.19-.08-.3-.17-.33-.28a.73.73,0,0,1,.09-.46l5.18-11.63a.72.72,0,0,1,.3-.38.55.55,0,0,1,.45.06c.19.09.29.19.32.3a.81.81,0,0,1-.1.46l-5.2,11.66c-.09.21-.18.32-.28.34A.75.75,0,0,1,66.78,85.91Z"/><path class="cls-2" d="M79,82.38A4.52,4.52,0,0,1,77.25,82a5,5,0,0,1-1.47-1,4.67,4.67,0,0,1-1-1.47,4.42,4.42,0,0,1-.36-1.78,4.62,4.62,0,0,1,.35-1.8,4.72,4.72,0,0,1,1-1.46A4.48,4.48,0,0,1,79,73.18a4.49,4.49,0,0,1,4.54,4.58,4.69,4.69,0,0,1-.35,1.82,4.44,4.44,0,0,1-1,1.46,4.39,4.39,0,0,1-1.43,1A4.32,4.32,0,0,1,79,82.38Zm0-1a3.32,3.32,0,0,0,1.76-.48A3.6,3.6,0,0,0,82,79.55a3.67,3.67,0,0,0,.47-1.83A3.54,3.54,0,0,0,82,75.9a3.31,3.31,0,0,0-1.24-1.25,3.58,3.58,0,0,0-1.8-.44,3.39,3.39,0,0,0-1.77.46A3.46,3.46,0,0,0,76,75.93a3.56,3.56,0,0,0-.46,1.81A3.64,3.64,0,0,0,76,79.58a3.44,3.44,0,0,0,3,1.77Z"/><path class="cls-2" d="M86.54,82.3a.67.67,0,0,1-.3-.06.28.28,0,0,1-.16-.19,1.06,1.06,0,0,1,0-.34V73.79a1,1,0,0,1,0-.35.25.25,0,0,1,.16-.17,1.33,1.33,0,0,1,.32,0,1.45,1.45,0,0,1,.32,0,.3.3,0,0,1,.18.17.81.81,0,0,1,0,.35v.8c.13-.22.26-.42.38-.59a2.05,2.05,0,0,1,.46-.47,2,2,0,0,1,.66-.31,3.33,3.33,0,0,1,1-.12,2.56,2.56,0,0,1,.57.06,3.23,3.23,0,0,1,.47.15,2.43,2.43,0,0,1,.37.21,1,1,0,0,1,.23.23.41.41,0,0,1,.07.23.53.53,0,0,1-.2.41.62.62,0,0,1-.38.18.66.66,0,0,1-.32-.07,2.39,2.39,0,0,1-.22-.16.9.9,0,0,0-.34-.16,2.46,2.46,0,0,0-.7-.07,1.93,1.93,0,0,0-.63.12,2.65,2.65,0,0,0-.65.37,2,2,0,0,0-.74,1.6v5.55a1,1,0,0,1,0,.33.29.29,0,0,1-.17.17A1.11,1.11,0,0,1,86.54,82.3Z"/><path class="cls-2" d="M103.25,82.3a5.5,5.5,0,0,1-1.91-.32,4.42,4.42,0,0,1-1.5-.93,4.15,4.15,0,0,1-1-1.42,5.35,5.35,0,0,1,0-3.7,4.3,4.3,0,0,1,1-1.44,4.43,4.43,0,0,1,1.48-.93,5.23,5.23,0,0,1,1.9-.32,3.92,3.92,0,0,1,1.28.22,4.67,4.67,0,0,1,1.19.57,2.16,2.16,0,0,1,.76.78.92.92,0,0,1,.13.36.35.35,0,0,1-.09.23,1,1,0,0,1-.26.21.59.59,0,0,1-.26.08.55.55,0,0,1-.43-.27,2.27,2.27,0,0,0-.46-.47,3.13,3.13,0,0,0-.58-.36,2.62,2.62,0,0,0-.64-.24,2.35,2.35,0,0,0-.64-.09,3.82,3.82,0,0,0-1.86.44,3,3,0,0,0-1.24,1.23,4.07,4.07,0,0,0,0,3.68,3.1,3.1,0,0,0,1.23,1.23,3.89,3.89,0,0,0,2.7.32,4.31,4.31,0,0,0,.84-.33,3,3,0,0,0,.68-.51l.26-.21a.37.37,0,0,1,.26-.09.3.3,0,0,1,.21.09,1,1,0,0,1,.22.23.32.32,0,0,1,.1.18.55.55,0,0,1,0,.22.45.45,0,0,1-.12.21,4.09,4.09,0,0,1-1,.7,5.8,5.8,0,0,1-1.16.48A4.23,4.23,0,0,1,103.25,82.3Z"/><path class="cls-2" d="M113.07,82.38a4.52,4.52,0,0,1-1.79-.37,4.91,4.91,0,0,1-1.47-1,4.67,4.67,0,0,1-1-1.47,4.42,4.42,0,0,1-.36-1.78,4.62,4.62,0,0,1,.35-1.8,4.72,4.72,0,0,1,1-1.46,4.66,4.66,0,0,1,1.46-1,4.59,4.59,0,0,1,1.78-.35,4.49,4.49,0,0,1,4.54,4.58,4.69,4.69,0,0,1-.35,1.82,4.44,4.44,0,0,1-1,1.46,4.39,4.39,0,0,1-1.43,1A4.32,4.32,0,0,1,113.07,82.38Zm0-1a3.32,3.32,0,0,0,1.76-.48A3.6,3.6,0,0,0,116,79.55a3.67,3.67,0,0,0,.47-1.83,3.54,3.54,0,0,0-.46-1.82,3.31,3.31,0,0,0-1.24-1.25,3.58,3.58,0,0,0-1.8-.44,3.45,3.45,0,0,0-1.78.46A3.51,3.51,0,0,0,110,75.93a3.56,3.56,0,0,0-.46,1.81,3.64,3.64,0,0,0,.46,1.84,3.41,3.41,0,0,0,3,1.77Z"/><path class="cls-2" d="M120.57,82.28a.67.67,0,0,1-.3-.06.26.26,0,0,1-.16-.18,1,1,0,0,1,0-.33v-8a.72.72,0,0,1,0-.29.33.33,0,0,1,.17-.16.93.93,0,0,1,.31,0,.49.49,0,0,1,.38.11.51.51,0,0,1,.12.38v1.14a2,2,0,0,1,.48-.7,3.37,3.37,0,0,1,.71-.53,4.22,4.22,0,0,1,.83-.33,3.44,3.44,0,0,1,.83-.11,2.84,2.84,0,0,1,1.22.26,3.13,3.13,0,0,1,1,.75,4.3,4.3,0,0,1,.7,1.19,7.38,7.38,0,0,1,.89-1.24,2.74,2.74,0,0,1,1-.72A3.23,3.23,0,0,1,130,73.2a2.92,2.92,0,0,1,1.79.53,3.23,3.23,0,0,1,1.08,1.48,6.36,6.36,0,0,1,.36,2.25v4.27a1,1,0,0,1-.05.33.27.27,0,0,1-.16.17.89.89,0,0,1-.32,0,.83.83,0,0,1-.34-.06.28.28,0,0,1-.17-.18,1,1,0,0,1,0-.33V77.44a5.52,5.52,0,0,0-.24-1.71,2.52,2.52,0,0,0-.71-1.13,1.8,1.8,0,0,0-1.24-.41,2.46,2.46,0,0,0-1.42.41,2.8,2.8,0,0,0-1,1.13,3.84,3.84,0,0,0-.36,1.71v4.31a.56.56,0,0,1-.13.39.51.51,0,0,1-.3.17.53.53,0,0,1-.33,0,.49.49,0,0,1-.19-.1.42.42,0,0,1-.11-.18,1.12,1.12,0,0,1,0-.27V77.44a5.85,5.85,0,0,0-.23-1.71,2.46,2.46,0,0,0-.72-1.13,1.78,1.78,0,0,0-1.23-.41,2.52,2.52,0,0,0-1.43.41,2.85,2.85,0,0,0-1,1.13,3.71,3.71,0,0,0-.37,1.71v4.29a1,1,0,0,1,0,.33.31.31,0,0,1-.17.17A1.06,1.06,0,0,1,120.57,82.28Z"/><path class="cls-2" d="M140.22,82.38a4.52,4.52,0,0,1-1.79-.37A5,5,0,0,1,137,81a4.67,4.67,0,0,1-1-1.47,4.42,4.42,0,0,1-.36-1.78A4.62,4.62,0,0,1,136,76a4.72,4.72,0,0,1,1-1.46,4.48,4.48,0,0,1,3.24-1.34,4.49,4.49,0,0,1,4.54,4.58,4.69,4.69,0,0,1-.35,1.82,4.44,4.44,0,0,1-1,1.46A4.39,4.39,0,0,1,142,82,4.32,4.32,0,0,1,140.22,82.38Zm0-1a3.32,3.32,0,0,0,1.76-.48,3.6,3.6,0,0,0,1.25-1.32,3.67,3.67,0,0,0,.47-1.83,3.54,3.54,0,0,0-.46-1.82A3.31,3.31,0,0,0,142,74.65a3.58,3.58,0,0,0-1.8-.44,3.39,3.39,0,0,0-1.77.46,3.46,3.46,0,0,0-1.26,1.26,3.56,3.56,0,0,0-.46,1.81,3.64,3.64,0,0,0,.46,1.84,3.44,3.44,0,0,0,3.05,1.77Z"/><path class="cls-2" d="M151.13,82.3a4.29,4.29,0,0,1-1.65-.32,3.92,3.92,0,0,1-1.34-.94,4.17,4.17,0,0,1-.89-1.45,5.1,5.1,0,0,1-.32-1.87,4.89,4.89,0,0,1,.32-1.83,4.27,4.27,0,0,1,.89-1.43,4,4,0,0,1,1.34-.92,4.11,4.11,0,0,1,1.65-.32,4.26,4.26,0,0,1,1.7.32,4,4,0,0,1,1.35.93,4.36,4.36,0,0,1,.89,1.45,5.71,5.71,0,0,1,0,3.71,4.13,4.13,0,0,1-.89,1.42,4,4,0,0,1-1.35.93A4.44,4.44,0,0,1,151.13,82.3Zm.17-1a3.3,3.3,0,0,0,1.69-.44,3.35,3.35,0,0,0,1.18-1.24,3.72,3.72,0,0,0,.43-1.83,3.81,3.81,0,0,0-.43-1.86A3.26,3.26,0,0,0,153,74.67a3.2,3.2,0,0,0-1.68-.45,3.3,3.3,0,0,0-1.7.45,3.19,3.19,0,0,0-1.19,1.25,3.82,3.82,0,0,0-.44,1.86,3.73,3.73,0,0,0,.44,1.83,3.23,3.23,0,0,0,1.19,1.24A3.39,3.39,0,0,0,151.3,81.29Zm3.91,1a.61.61,0,0,1-.43-.13.66.66,0,0,1-.12-.44V69.63a.81.81,0,0,1,.05-.35.29.29,0,0,1,.17-.19.87.87,0,0,1,.31,0,.85.85,0,0,1,.32,0,.37.37,0,0,1,.18.19,1,1,0,0,1,.05.33v12.1a.84.84,0,0,1-.05.34.28.28,0,0,1-.16.19A.67.67,0,0,1,155.21,82.3Z"/><path class="cls-2" d="M159.45,70.5a1,1,0,0,1-.42-.08.43.43,0,0,1-.22-.24,1.35,1.35,0,0,1-.07-.44,1.14,1.14,0,0,1,.07-.42.41.41,0,0,1,.23-.22,1.27,1.27,0,0,1,.43-.06.94.94,0,0,1,.41.07.4.4,0,0,1,.22.24,1.12,1.12,0,0,1,.07.45,1,1,0,0,1-.07.41.37.37,0,0,1-.22.22A1,1,0,0,1,159.45,70.5Zm0,11.8a.76.76,0,0,1-.32-.06.3.3,0,0,1-.17-.18,1,1,0,0,1,0-.33V73.79a1,1,0,0,1,0-.33.3.3,0,0,1,.17-.18,1.09,1.09,0,0,1,.34,0,.89.89,0,0,1,.32.05.31.31,0,0,1,.16.18,1.11,1.11,0,0,1,.05.36v7.92a1,1,0,0,1-.05.33.29.29,0,0,1-.17.17A1,1,0,0,1,159.45,82.3Z"/><path class="cls-2" d="M167.14,82.3A4.28,4.28,0,0,1,165.5,82a3.92,3.92,0,0,1-1.34-.94,4.17,4.17,0,0,1-.89-1.45,5.1,5.1,0,0,1-.33-1.87,4.89,4.89,0,0,1,.33-1.83,4.27,4.27,0,0,1,.89-1.43,4,4,0,0,1,1.34-.92,4.1,4.1,0,0,1,1.64-.32,4.34,4.34,0,0,1,1.71.32,4,4,0,0,1,1.35.93,4.18,4.18,0,0,1,.88,1.45,5.54,5.54,0,0,1,0,3.71A4,4,0,0,1,168.85,82,4.53,4.53,0,0,1,167.14,82.3Zm.17-1a3.25,3.25,0,0,0,1.69-.44,3.2,3.2,0,0,0,1.18-1.24,3.73,3.73,0,0,0,.44-1.83,3.82,3.82,0,0,0-.44-1.86,3.2,3.2,0,0,0-2.87-1.7,3.26,3.26,0,0,0-1.69.45,3.21,3.21,0,0,0-1.2,1.25,3.81,3.81,0,0,0-.43,1.86,3.72,3.72,0,0,0,.43,1.83,3.25,3.25,0,0,0,1.2,1.24A3.35,3.35,0,0,0,167.31,81.29Zm3.92,1a.59.59,0,0,1-.43-.13.66.66,0,0,1-.12-.44V69.63a1,1,0,0,1,0-.35.32.32,0,0,1,.17-.19,1,1,0,0,1,.32,0,.89.89,0,0,1,.32,0,.35.35,0,0,1,.17.19.75.75,0,0,1,.06.33v12.1a1.06,1.06,0,0,1,0,.34.28.28,0,0,1-.16.19A.7.7,0,0,1,171.23,82.3Z"/><path class="cls-2" d="M182.7,82.28a.47.47,0,0,1-.38-.13,1.09,1.09,0,0,1-.15-.5V80.38a4.49,4.49,0,0,1-.65.81,3.94,3.94,0,0,1-2.88,1.11,4.17,4.17,0,0,1-3.1-1.33,4.65,4.65,0,0,1-.92-1.45,4.84,4.84,0,0,1-.33-1.8,4.57,4.57,0,0,1,.33-1.74,4.37,4.37,0,0,1,.93-1.42,4.2,4.2,0,0,1,1.39-1,4,4,0,0,1,1.7-.35,4.66,4.66,0,0,1,1.53.22,4.22,4.22,0,0,1,1.12.63,6,6,0,0,1,.88.93V73.94a.94.94,0,0,1,.12-.54.52.52,0,0,1,.43-.16.61.61,0,0,1,.3.06.4.4,0,0,1,.15.22,1.5,1.5,0,0,1,.05.42v7.71a1.22,1.22,0,0,1-.05.37.3.3,0,0,1-.16.2A.68.68,0,0,1,182.7,82.28Zm-3.85-1a3.07,3.07,0,0,0,1.65-.46,3.36,3.36,0,0,0,1.18-1.27,4.11,4.11,0,0,0,0-3.7,3.46,3.46,0,0,0-1.21-1.25,3.22,3.22,0,0,0-1.64-.44,3.51,3.51,0,0,0-1.83.47,3.38,3.38,0,0,0-1.21,1.28,3.87,3.87,0,0,0-.44,1.86,3.69,3.69,0,0,0,.44,1.8A3.24,3.24,0,0,0,177,80.86,3.7,3.7,0,0,0,178.85,81.31Z"/><path class="cls-2" d="M190.09,82.3a4.28,4.28,0,0,1-1.64-.32,3.92,3.92,0,0,1-1.34-.94,4.17,4.17,0,0,1-.89-1.45,5.1,5.1,0,0,1-.33-1.87,4.89,4.89,0,0,1,.33-1.83,4.27,4.27,0,0,1,.89-1.43,4,4,0,0,1,1.34-.92,4.1,4.1,0,0,1,1.64-.32,4.34,4.34,0,0,1,1.71.32,4,4,0,0,1,1.35.93,4.36,4.36,0,0,1,.89,1.45,5.71,5.71,0,0,1,0,3.71,4.13,4.13,0,0,1-.89,1.42,4,4,0,0,1-1.35.93A4.53,4.53,0,0,1,190.09,82.3Zm.17-1a3.31,3.31,0,0,0,1.7-.44,3.25,3.25,0,0,0,1.17-1.24,3.73,3.73,0,0,0,.44-1.83,3.82,3.82,0,0,0-.44-1.86A3.16,3.16,0,0,0,192,74.67a3.4,3.4,0,0,0-3.38,0,3.19,3.19,0,0,0-1.19,1.25,3.71,3.71,0,0,0-.44,1.86,3.62,3.62,0,0,0,.44,1.83,3.23,3.23,0,0,0,1.19,1.24A3.35,3.35,0,0,0,190.26,81.29Zm3.92,1a.61.61,0,0,1-.43-.13.66.66,0,0,1-.12-.44V69.63a1,1,0,0,1,0-.35.34.34,0,0,1,.18-.19.87.87,0,0,1,.31,0,.85.85,0,0,1,.32,0,.32.32,0,0,1,.17.19.75.75,0,0,1,.06.33v12.1a1.06,1.06,0,0,1-.05.34.28.28,0,0,1-.16.19A.67.67,0,0,1,194.18,82.3Z"/><path class="cls-2" d="M198.36,82.3a.81.81,0,0,1-.58-.16.78.78,0,0,1-.16-.56,1.36,1.36,0,0,1,.06-.45.47.47,0,0,1,.24-.24,1.1,1.1,0,0,1,.44-.07.81.81,0,0,1,.58.16.86.86,0,0,1,.16.58A1,1,0,0,1,199,82a.37.37,0,0,1-.23.23A1,1,0,0,1,198.36,82.3Z"/></g></g></svg>