<?xml version="1.0" encoding="utf-8"?>
<!-- Generator: Adobe Illustrator 24.0.2, SVG Export Plug-In . SVG Version: 6.00 Build 0)  -->
<svg version="1.1" id="Layer_1" xmlns="http://www.w3.org/2000/svg" xmlns:xlink="http://www.w3.org/1999/xlink" x="0px" y="0px"
	 viewBox="0 0 32 32" style="enable-background:new 0 0 32 32;" xml:space="preserve">
<style type="text/css">
	.st0{fill:#32B228;}
	.st1{fill:#FFFFFF;}
</style>
<title>abajo</title>
<g id="Layer_2_1_">
	<g id="botonabajo">
		<circle class="st0" cx="16" cy="16" r="16"/>
		<path class="st1" d="M17.1,24.8l5.1-8.8c0.5-0.8,0.2-1.9-0.6-2.3c-0.3-0.1-0.6-0.2-0.8-0.2H10.6c-0.9,0-1.7,0.8-1.7,1.7
			c0,0.3,0.1,0.6,0.2,0.8l5.1,8.8c0.5,0.8,1.5,1.1,2.3,0.6C16.8,25.3,17,25.1,17.1,24.8z"/>
		<path class="st1" d="M18.5,9.6V14c0,0.9-0.7,1.6-1.6,1.6h-2.5c-0.9,0-1.6-0.7-1.6-1.6V9.6c0-0.9,0.7-1.6,1.6-1.6h2.5
			C17.8,8,18.5,8.7,18.5,9.6z"/>
	</g>
</g>
</svg>
