<?xml version="1.0" encoding="utf-8"?>
<!-- Generator: Adobe Illustrator 24.0.2, SVG Export Plug-In . SVG Version: 6.00 Build 0)  -->
<svg version="1.1" id="Layer_1" xmlns="http://www.w3.org/2000/svg" xmlns:xlink="http://www.w3.org/1999/xlink" x="0px" y="0px"
	 viewBox="0 0 46.6 46.6" style="enable-background:new 0 0 46.6 46.6;" xml:space="preserve">
<style type="text/css">
	.st0{fill:#32B228;}
	.st1{fill:#FFFFFF;}
</style>
<title>arriba</title>
<g id="Layer_2_1_">
	<g id="botonarriba">
		<circle class="st0" cx="23.3" cy="23.3" r="23.3"/>
		<path class="st1" d="M21.7,10.4l-7.4,12.8c-0.7,1.2-0.3,2.7,0.9,3.4c0.4,0.2,0.8,0.3,1.2,0.3h14.7c1.4,0,2.5-1.1,2.5-2.5
			c0-0.4-0.1-0.9-0.3-1.2l-7.4-12.8c-0.7-1.2-2.2-1.6-3.4-0.9C22.2,9.8,21.9,10.1,21.7,10.4z"/>
		<path class="st1" d="M19.7,32.7v-6.5c0-1.3,1-2.3,2.3-2.3h3.6c1.3,0,2.3,1,2.3,2.3v6.5c0,1.3-1,2.3-2.3,2.3H22
			C20.7,35,19.7,33.9,19.7,32.7z"/>
	</g>
</g>
</svg>
