<?xml version="1.0" encoding="utf-8"?>
<!-- Generator: Adobe Illustrator 24.0.2, SVG Export Plug-In . SVG Version: 6.00 Build 0)  -->
<svg version="1.1" id="Layer_1" xmlns="http://www.w3.org/2000/svg" xmlns:xlink="http://www.w3.org/1999/xlink" x="0px" y="0px"
	 viewBox="0 0 196.3 218.6" style="enable-background:new 0 0 196.3 218.6;" xml:space="preserve">
<style type="text/css">
	.st0{fill:#747E7F;}
	.st1{fill:#9BA7A7;}
	.st2{fill:#C08D54;}
	.st3{fill:#996E43;}
	.st4{fill:#FFFFFF;stroke:#1D1D1B;stroke-width:0.58;stroke-miterlimit:10;}
	.st5{fill:#FFFFFF;}
	.st6{fill:#FFD396;stroke:#000000;stroke-width:0.2;stroke-miterlimit:10;}
	.st7{stroke:#000000;stroke-width:0.18;stroke-miterlimit:10;}
	.st8{fill:#FBCA2C;stroke:#000000;stroke-width:0.19;stroke-miterlimit:10;}
	.st9{fill:#F4B21C;stroke:#000000;stroke-width:0.19;stroke-miterlimit:10;}
	.st10{fill:#CAC3B9;stroke:#000000;stroke-width:0.19;stroke-miterlimit:10;}
	.st11{fill:#FC5465;stroke:#000000;stroke-width:0.19;stroke-miterlimit:10;}
	.st12{clip-path:url(#SVGID_2_);}
	.st13{clip-path:url(#SVGID_4_);}
</style>
<title>paso4img3</title>
<g id="Layer_2_1_">
	<g id="Paso_4">
		<path class="st0" d="M151.8,133.7c1.2,1.2,3.2,1.4,4.5,0.3l3.2-36c-1.3-1-2.8-1.7-4.4-2.2L151.8,133.7z"/>
		<path class="st0" d="M36.8,95.1c-2.2,0-4.4-0.7-6.2-2c-4.3,3.7-6.7,9.1-6.7,14.7v87c1.8,1.4,4.3,1.2,5.8-0.4v-84.3
			c0-6.7,4.3-12.7,10.6-15H36.8z"/>
		<path class="st0" d="M159.5,95.1h-3.4c6.3,2.3,10.6,8.3,10.6,15v84c1.6,1.6,4.1,1.7,5.9,0.2v-86.5c0-5.7-2.5-11-6.7-14.7
			C164,94.4,161.8,95.1,159.5,95.1z"/>
		<path class="st0" d="M38.5,96.9l3.1,37.2c1.4,1.3,3.7,1.1,4.9-0.3c0,0,0.1-0.1,0.1-0.1l-3.1-38.5C41.7,95.5,40.1,96,38.5,96.9z"/>
		<path class="st1" d="M27.4,87.1c1.3,4.1,5.1,7,9.4,7h122.7c4.3,0,8.2-2.9,9.4-7l2.9-9.8H24.5L27.4,87.1z"/>
		<path class="st2" d="M164.3,18.6c-0.7-2.2-2.7-3.6-4.9-3.6H37c-2.3,0-4.2,1.5-4.9,3.6L18,63.3c-0.1,0.3-0.2,0.7-0.2,1v1.1
			c0.1,0.9,0.5,1.8,1,2.5c1,1.3,2.5,2.1,4.1,2.2h150.5c1.6,0,3.2-0.8,4.2-2.1c0.5-0.7,0.8-1.5,0.9-2.3v-1.4l0,0
			c0-0.3-0.1-0.6-0.2-0.9L164.3,18.6z"/>
		<path class="st3" d="M173.4,70.9H22.9c-2.1,0-4-1.1-5.1-2.8v3.5c0,2.7,2.1,4.8,4.8,4.9h151.1c2.7,0,4.8-2.2,4.8-4.8v-3.5
			C177.4,69.8,175.5,70.9,173.4,70.9z"/>
		<path d="M165.1,18.3c-0.8-2.5-3.1-4.3-5.8-4.3H37c-2.7,0-5,1.7-5.8,4.3L17.1,63c-0.1,0.4-0.2,0.8-0.3,1.2l0,0v0.1
			c0,0.4,0,0.7,0,1.1v6.2c0,3.2,2.6,5.8,5.8,5.8c0,0,0,0,0,0h0.9l3,10.1c0.6,2,1.8,3.8,3.4,5.1c-4.4,3.9-6.9,9.4-6.9,15.3v86.3
			c-0.2-0.1-0.5-0.1-0.6,0.2c0,0.1-0.1,0.2-0.1,0.2v6.6c0,0.8,0.3,1.5,0.9,2.1c2.7,2.5,5.4,1.3,6.9,0.1c0.8-0.6,1.2-1.5,1.2-2.5
			l-0.4-6.5c0-0.1-0.1-0.3-0.2-0.4v-83.9c0-5.2,2.6-10,7-12.7l3,36.3c-0.1,0.1-0.2,0.2-0.2,0.3l-0.2,6.6c-0.1,0.9,0.2,1.8,0.8,2.4
			c2.9,3.1,5.7,1.3,7.1-0.2c0.7-0.8,1-1.9,0.8-3l-1.3-6.3c0-0.1-0.1-0.2-0.1-0.2l-3.1-38.1c0.4,0,0.9-0.1,1.3-0.1h105.1
			c1.2,0,2.3,0.1,3.4,0.4l-3.2,37.4c-0.2,0-0.4,0.1-0.5,0.3l-1.3,6.3c-0.2,1.1,0.1,2.2,0.8,3c1.4,1.5,4.2,3.4,7.1,0.2
			c0.6-0.7,0.9-1.5,0.8-2.4l-0.2-6.6c0-0.2-0.2-0.4-0.4-0.4l3-34.7c3.4,2.8,5.5,7.1,5.5,11.5v83.4c-0.2,0-0.3,0.2-0.3,0.4l-0.4,6.5
			c-0.1,1,0.4,1.9,1.2,2.5c1.5,1.1,4.3,2.3,6.9-0.1c0.6-0.5,0.9-1.3,0.9-2.1v-6.6c0-0.3-0.2-0.5-0.5-0.5c0,0-0.1,0-0.1,0v-85.8
			c0-5.9-2.5-11.4-6.9-15.3c1.6-1.3,2.7-3.1,3.4-5.1l3-10.1h0.8c3.2,0,5.8-2.6,5.8-5.8v-6c0.1-0.9,0-1.8-0.2-2.6L165.1,18.3z
			 M29.7,110.1v84.3c-1.5,1.7-4.1,1.8-5.8,0.4v-87c0-5.6,2.5-11,6.7-14.7c1.8,1.3,4,2,6.2,2h3.5C34,97.3,29.7,103.3,29.7,110.1z
			 M46.7,133.7c-1.2,1.5-3.4,1.7-4.9,0.5c0,0-0.1,0-0.1-0.1l-3.1-37.2c1.5-0.8,3.2-1.4,5-1.7L46.7,133.7z M156.3,133.9
			c-1.4,1.1-3.3,1-4.5-0.3l3.3-37.9c1.6,0.5,3.1,1.2,4.4,2.2L156.3,133.9z M172.6,107.7v86.6c-1.7,1.5-4.3,1.4-5.9-0.2v-84
			c0-6.7-4.3-12.7-10.6-15h3.4c2.2,0,4.4-0.7,6.3-2C170.1,96.8,172.6,102.1,172.6,107.7L172.6,107.7z M169,87.1
			c-1.3,4.1-5.1,7-9.4,7H36.8c-4.3,0-8.2-2.9-9.4-7l-2.9-9.8h147.5L169,87.1z M178.5,71.5c0,2.7-2.2,4.8-4.8,4.8H22.6
			c-2.6,0-4.8-2.2-4.8-4.8v-3.5c1.1,1.8,3.1,2.8,5.1,2.8h150.4c2.1,0,4-1.1,5.1-2.8V71.5z M178.5,64.1v1.4c-0.1,0.9-0.4,1.7-0.9,2.3
			c-1,1.3-2.5,2.1-4.2,2.1H22.9c-1.6,0-3.2-0.8-4.2-2.1c-0.5-0.7-0.9-1.6-1-2.5v-1c0-0.3,0.1-0.7,0.2-1L32,18.6
			c0.7-2.2,2.7-3.6,4.9-3.6h122.4c2.3,0,4.3,1.5,4.9,3.6l14.1,44.7C178.4,63.5,178.5,63.8,178.5,64.1L178.5,64.1z"/>
		<polygon class="st4" points="47.8,55.1 155.9,68 151.7,26.1 61.7,15.4 		"/>
		<path class="st5" d="M153.5,54.6c0.7-1.3,1.1-2.8,1.1-4.2c0.1-4.9-2.6-10.9-7.2-15.6c-6.5-6.6-11.9-8.7-16.1-6.4
			c4.8,2.1,9,5.5,12,9.8c0.1,0.2,0.1,0.4,0,0.5l0,0c-0.2,0.1-0.4,0.1-0.6-0.1c0,0,0,0,0,0c-3.1-4.3-7.3-7.7-12.3-9.7l-0.2-0.1
			c-3-1.1-5.4-1-6.6,0.3c-0.2,0.2-0.4,0.5-0.5,0.7c6.1,1,13,9.4,13.3,9.9c0.1,0.2,0,0.4-0.1,0.6c-0.2,0.1-0.4,0.1-0.5-0.1
			c-0.1-0.1-7.4-9.1-13.3-9.6l0,0c-1.2-0.1-2.3,0.2-3.3,0.8c-0.4,0.4-0.5,1-0.4,1.5c0.1,1.2,1.1,3.2,5.2,6c2.8,1.9,7.3,6.2,8.2,10.1
			c0.1,0.3,0,0.7-0.3,1l0,0c-0.3,0.3-0.6,0.4-1,0.3c-2.3-0.6-10-2.3-11.8,2.7c-0.2,1-0.1,2,0.5,2.9c0.8,1,2.3,1.5,4.6,1.4
			c0.6-0.2,5-1.2,11.7,3.1c2.2,1.3,4.8,1.8,7.4,1.5h0.1c2.5-0.3,4.9-1.4,6.7-3.2c0.2-0.2,0.4-0.2,0.6,0c0,0,0,0,0,0
			c0.2,0.2,0.2,0.4,0,0.6c0,0,0,0,0,0c-1.8,1.8-4.2,3-6.8,3.4c0.2,0.6,0.5,1.2,0.9,1.6c2.1,2.1,6.6,1.1,10-2.3
			c3.4-3.4,4.6-7.9,2.5-10c-0.5-0.5-1.1-0.8-1.8-1c0,1.5-0.4,3-1.1,4.3c0,0,0,0.1-0.1,0.1c-0.1,0.1-0.3,0.1-0.5,0.1
			C153.4,55.1,153.4,54.9,153.5,54.6C153.5,54.7,153.5,54.6,153.5,54.6z"/>
		<path d="M130.3,28.1L130.3,28.1L130.3,28.1c-3.2-1.2-5.8-0.9-7.3,0.6c-0.3,0.3-0.6,0.7-0.8,1.2c-1.3-0.1-2.5,0.3-3.5,1l0,0
			c-0.5,0.6-0.8,1.4-0.7,2.2c0.1,2,2,4.3,5.5,6.7c2.7,1.9,7,6,7.8,9.7c0,0.1,0,0.1-0.1,0.2c-0.1,0-0.1,0-0.2,0
			c-0.5-0.1-1.2-0.3-2-0.5H129c-3.4-0.6-9-0.8-10.7,3.6l0,0c-0.3,1.2-0.1,2.6,0.7,3.6c1,1.2,2.8,1.8,5.3,1.7h0.1c0,0,4.4-1.2,11,3
			c2.3,1.3,4.9,1.9,7.6,1.6c0.2,0.8,0.6,1.5,1.1,2.1c2.4,2.5,7.4,1.4,11.2-2.3s4.9-8.7,2.5-11.2c-0.7-0.6-1.5-1-2.4-1.1
			c0-5.1-2.8-11.1-7.5-15.8C140.8,27.1,134.9,25,130.3,28.1z M153.6,55.2c0.2,0.1,0.4,0.1,0.5-0.1c0,0,0-0.1,0.1-0.1
			c0.7-1.3,1.1-2.7,1.1-4.1c0.7,0.2,1.3,0.5,1.8,1c2.1,2.1,1,6.6-2.5,10s-8,4.4-10,2.3c-0.4-0.5-0.7-1-0.9-1.6
			c2.6-0.4,4.9-1.6,6.8-3.4c0.2-0.2,0.2-0.4,0-0.6c0,0,0,0,0,0c-0.2-0.2-0.4-0.2-0.6,0c0,0,0,0,0,0c-1.8,1.8-4.2,2.9-6.7,3.2h-0.1
			c-2.5,0.3-5.1-0.2-7.4-1.5c-6.7-4.3-11.2-3.3-11.7-3.1c-2.3,0.1-3.8-0.4-4.6-1.4c-0.6-0.8-0.8-1.9-0.5-2.9c1.9-5,9.5-3.3,11.9-2.7
			c0.4,0.1,0.7,0,1-0.3l0,0c0.3-0.2,0.4-0.6,0.3-1c-0.9-3.9-5.4-8.2-8.2-10.1c-4.1-2.8-5.1-4.8-5.2-6c-0.1-0.5,0.1-1.1,0.4-1.5
			c0.9-0.7,2.1-1,3.3-0.8l0,0c5.9,0.5,13.2,9.5,13.3,9.6c0.2,0.2,0.4,0.1,0.6,0c0.1-0.1,0.1-0.3,0.1-0.5c-0.4-0.5-7.2-8.9-13.3-9.9
			c0.1-0.3,0.3-0.5,0.5-0.7c1.2-1.3,3.7-1.4,6.6-0.3l0.2,0.1c4.9,2,9.2,5.4,12.3,9.7c0.1,0.2,0.4,0.2,0.6,0.1c0,0,0,0,0,0l0,0
			c0.1-0.2,0.1-0.4,0-0.5c-3-4.3-7.2-7.7-12-9.8c4.2-2.4,9.6-0.2,16.1,6.4c4.6,4.7,7.4,10.7,7.2,15.6c0,1.5-0.4,2.9-1.1,4.2
			C153.5,54.9,153.5,55.1,153.6,55.2L153.6,55.2z"/>
		<path class="st5" d="M68.1,51.8c1.4-2.1,2.8-4,4.4-4.9c1.3-0.5,2.3-1.7,2.4-3.1c0-0.7-0.3-1.4-0.9-1.7c-1.4-0.9-3.1-1.1-4.7-0.6
			c-2.2,0.8-3.6,3.1-4.4,5c-0.3,0.8-1.2,1.1-2,0.8c-0.5-0.2-0.8-0.6-0.9-1.1c-0.8-5,1.9-8.9,4.1-11.1c0,0,0.1-0.1,0.1-0.1
			c0,0,0,0,0.1,0c0.7-0.7,1.5-1.4,2.4-2c0.2-0.1,0.4-0.1,0.6,0.1c0.1,0.2,0.1,0.4-0.1,0.6c0,0-0.1,0-0.1,0.1c-0.7,0.5-1.4,1.1-2,1.7
			c2.7,3.1,5.5,2.3,5.6,2.2c0.4-0.1,0.8-0.4,1-0.8c0.3-0.8-0.2-2.1-0.7-3.4c-0.3-0.7-0.6-1.4-0.8-2.2c-0.7-2.7-1.8-4.2-3.5-4.6
			c-0.9-0.2-1.7-0.1-2.6,0.2H66c-4.5,1.4-9.7,7.5-9.8,7.6c-0.1,0.2-0.4,0.2-0.6,0c0,0-0.1-0.1-0.1-0.1c-0.1-0.1,0-0.3,0-0.4
			c0.3-0.3,4.9-5.8,9.4-7.6c-1.2-0.7-2.6-1-4-0.8c-4.8,0.7-9,6.4-9,6.5c-0.1,0.2-0.4,0.2-0.6,0.1c0,0,0,0,0,0
			c-0.1,0-0.1-0.1-0.1-0.1c-0.1-0.1-0.1-0.3,0-0.4c1.6-2.2,3.6-4,5.9-5.4c-10-1.6-15.7,16.6-15.9,17.1c-0.6,2.8-0.3,5.8,1,8.5
			c0.1,0.2,0.2,0.4,0.3,0.6c0.1,0.2,0,0.4-0.2,0.5c-0.2,0.1-0.4,0-0.5-0.1c-0.1-0.2-0.2-0.4-0.3-0.7c-1.1-2.2-1.5-4.6-1.3-7
			c-0.9-0.1-1.8,0.2-2.6,0.7c-1.2,1.1-1.8,2.7-1.6,4.3c0.2,2.2,1.1,4.4,2.4,6.2c3.1,4.2,6.8,6,9.1,4.4c0.6-0.5,1-1,1.3-1.7
			c-1.7-0.7-3.3-1.6-4.6-2.9c0,0-0.1-0.1-0.1-0.1c-0.1-0.1,0-0.3,0.1-0.5c0.2-0.2,0.4-0.2,0.6,0c0,0,0,0,0,0
			c1.3,1.3,2.9,2.3,4.7,2.9c1.1,0.4,2.3,0.6,3.5,0.7l0,0c4.1,0.2,11.1-1.5,13.8-5.2C67.3,53,67.7,52.4,68.1,51.8z"/>
		<path d="M68.8,52.3c1.4-2,2.7-3.9,4.1-4.6c1.6-0.6,2.7-2.1,2.8-3.9c0-1-0.5-2-1.3-2.5c-1.6-1-3.6-1.3-5.4-0.7
			c-2.5,0.9-4,3.5-4.9,5.4c-0.1,0.3-0.4,0.5-0.7,0.4c-0.3,0-0.6-0.3-0.6-0.6c-0.8-4.5,1.6-8,3.7-10.1c3.1,3.5,6.3,2.5,6.4,2.4
			c0.6-0.2,1.2-0.7,1.5-1.3c0.5-1.1-0.1-2.5-0.7-4c-0.3-0.7-0.6-1.4-0.8-2.1c-0.8-3-2.1-4.7-4.1-5.2c-0.9-0.2-1.9-0.1-2.8,0.2
			c-1.5-1.1-3.3-1.5-5.1-1.2c-0.9,0.1-1.7,0.4-2.5,0.8c-4.7-1.3-9.3,1.3-13.2,7.5c-1.3,2.1-2.4,4.3-3.4,6.7l0,0l0,0
			c-0.5,1-0.9,2.1-1.2,3.2l0,0c-0.1,0.4-0.1,0.8-0.2,1.2c-1.1-0.1-2.2,0.2-3.1,0.8c-1.5,1.2-2.2,3.1-1.9,5c0.1,1.5,0.5,2.9,1.2,4.3
			c0.4,0.8,0.9,1.6,1.4,2.3c3.4,4.7,7.5,6.5,10.2,4.5c0.7-0.5,1.2-1.2,1.6-2c1.1,0.3,2.2,0.6,3.3,0.6h0.1c0.8,0,1.7,0,2.5-0.1h0.1
			l0,0c4.1-0.4,9.4-2.1,11.8-5.4C68,53.4,68.4,52.8,68.8,52.3z M53.2,58.7L53.2,58.7c-1.2-0.1-2.3-0.3-3.5-0.7
			c-1.7-0.6-3.3-1.6-4.7-2.9c-0.2-0.2-0.4-0.2-0.6,0c0,0,0,0,0,0c-0.1,0.1-0.1,0.3-0.1,0.5c0,0,0,0.1,0.1,0.1
			c1.3,1.3,2.9,2.2,4.6,2.9c-0.3,0.7-0.7,1.3-1.3,1.7c-2.3,1.7-6-0.1-9.1-4.4c-1.4-1.8-2.2-3.9-2.4-6.2c-0.3-1.6,0.3-3.3,1.6-4.3
			c0.7-0.5,1.7-0.8,2.6-0.7c-0.2,2.4,0.3,4.8,1.3,7c0.1,0.2,0.2,0.5,0.3,0.7c0.1,0.2,0.4,0.2,0.6,0.1c0.1-0.1,0.2-0.3,0.1-0.5
			c-0.1-0.2-0.2-0.4-0.3-0.6c-1.3-2.6-1.6-5.6-1-8.5c0.2-0.5,5.9-18.7,15.9-17.1c-2.3,1.4-4.3,3.3-5.9,5.4c-0.1,0.1-0.1,0.3,0,0.4
			c0,0.1,0.1,0.1,0.1,0.1c0.2,0.1,0.4,0.1,0.6-0.1c0,0,0,0,0,0c0-0.1,4.3-5.8,9-6.5c1.4-0.2,2.8,0.1,4,0.8c-4.5,1.9-9.2,7.3-9.4,7.6
			c-0.1,0.1-0.1,0.3,0,0.4c0,0.1,0.1,0.1,0.1,0.1c0.2,0.1,0.4,0.1,0.6,0c0.1-0.1,5.2-6.2,9.8-7.6h0.1c0.8-0.3,1.7-0.4,2.5-0.2
			c1.6,0.4,2.8,1.9,3.5,4.6c0.2,0.8,0.5,1.5,0.8,2.2c0.6,1.3,1.1,2.6,0.7,3.4c-0.2,0.4-0.6,0.7-1,0.8c-0.1,0-2.9,0.9-5.6-2.2
			c0.6-0.6,1.3-1.2,2-1.7c0.2-0.1,0.3-0.3,0.2-0.5s-0.3-0.3-0.5-0.2c0,0-0.1,0-0.1,0.1c-0.8,0.6-1.6,1.3-2.4,2c0,0,0,0,0,0
			c0,0-0.1,0.1-0.1,0.1c-2.2,2.2-5,6.1-4.2,11.1c0.1,0.8,0.9,1.4,1.7,1.2c0.5-0.1,0.9-0.4,1.1-0.9c0.8-1.9,2.2-4.2,4.4-5
			c1.6-0.5,3.3-0.2,4.7,0.7c0.6,0.4,0.9,1,0.9,1.8c-0.2,1.4-1.1,2.6-2.4,3.2c-1.6,0.8-3,2.8-4.4,4.9c-0.4,0.6-0.8,1.2-1.2,1.7
			C64.2,57.2,57.2,58.9,53.2,58.7L53.2,58.7z"/>
		<path class="st6" d="M83,35.7c-2.2-0.1-5.2-0.5-5.2-0.5l0.3,2.9l1.8,2.3c0,0,2.1-1.8,3.7-3L83,35.7z"/>
		<path class="st7" d="M84.6,36.6c0.8-0.6,0-0.9-0.4-0.9L83,35.7l0.7,1.7L84.6,36.6z"/>
		<path class="st8" d="M44.7,46.7c-0.5,0.1-1.1-0.1-1.3-0.6l0,0c-0.2-0.4,0-0.9,0.4-1.1c0,0,0.1,0,0.1,0l33.5-9.8
			c0.5-0.1,1.1,0.1,1.3,0.6l0,0c0.2,0.4,0,0.9-0.4,1.1c0,0-0.1,0-0.1,0L44.7,46.7z"/>
		<path class="st9" d="M45.4,48.5c-0.5,0.1-1.1-0.1-1.3-0.6l0,0c-0.2-0.4,0-0.9,0.5-1.1c0,0,0.1,0,0.1,0L78.2,37
			c0.5-0.1,1.1,0.1,1.3,0.6l0,0c0.2,0.4,0,0.9-0.5,1.1c0,0-0.1,0-0.1,0L45.4,48.5z"/>
		<path class="st8" d="M46.1,50.2c-0.5,0.1-1.1-0.1-1.3-0.6l0,0c-0.2-0.4,0-0.9,0.4-1.1c0,0,0.1,0,0.1,0l33.5-9.8
			c0.5-0.1,1.1,0.1,1.3,0.6l0,0c0.2,0.4,0,0.9-0.4,1.1c0,0-0.1,0-0.1,0L46.1,50.2z"/>
		<polygon class="st10" points="46.7,50 44.6,44.8 42.9,45.3 45,50.5 		"/>
		<path class="st11" d="M45,50.5l-2.1-5.2l-1.7,0.5l0,0h-0.1c-1.2,0.5-1.8,1.8-1.4,3c0,0.1,0.1,0.2,0.1,0.3c0.5,1.4,1.9,2.3,3.4,2
			h0.1l0,0L45,50.5z"/>
		<g>
			<defs>
				<polygon id="SVGID_1_" points="75.3,28.1 76.3,37.3 72.6,39.1 67.7,38.5 64.1,32.6 72.2,25 				"/>
			</defs>
			<clipPath id="SVGID_2_">
				<use xlink:href="#SVGID_1_"  style="overflow:visible;"/>
			</clipPath>
			<g class="st12">
				<path class="st5" d="M68.1,51.8c1.4-2.1,2.8-4,4.4-4.9c1.3-0.5,2.3-1.7,2.4-3.1c0-0.7-0.3-1.4-0.9-1.7c-1.4-0.9-3.1-1.1-4.7-0.6
					c-2.2,0.8-3.6,3.1-4.4,5c-0.3,0.8-1.2,1.1-2,0.8c-0.5-0.2-0.8-0.6-0.9-1.1c-0.8-5,1.9-8.9,4.1-11.1c0,0,0.1-0.1,0.1-0.1
					c0,0,0,0,0.1,0c0.7-0.7,1.5-1.4,2.4-2c0.2-0.1,0.4-0.1,0.6,0.1c0.1,0.2,0.1,0.4-0.1,0.6c0,0-0.1,0-0.1,0.1
					c-0.7,0.5-1.4,1.1-2,1.7c2.7,3.1,5.5,2.3,5.6,2.2c0.4-0.1,0.8-0.4,1-0.8c0.3-0.8-0.2-2.1-0.7-3.4c-0.3-0.7-0.6-1.4-0.8-2.2
					c-0.7-2.7-1.8-4.2-3.5-4.6c-0.9-0.2-1.7-0.1-2.6,0.2H66c-4.5,1.4-9.7,7.5-9.8,7.6c-0.1,0.2-0.4,0.2-0.6,0c0,0-0.1-0.1-0.1-0.1
					c-0.1-0.1,0-0.3,0-0.4c0.3-0.3,4.9-5.8,9.4-7.6c-1.2-0.7-2.6-1-4-0.8c-4.8,0.7-9,6.4-9,6.5c-0.1,0.2-0.4,0.2-0.6,0.1
					c0,0,0,0,0,0c-0.1,0-0.1-0.1-0.1-0.1c-0.1-0.1-0.1-0.3,0-0.4c1.6-2.2,3.6-4,5.9-5.4c-10-1.6-15.7,16.6-15.9,17.1
					c-0.6,2.8-0.3,5.8,1,8.5c0.1,0.2,0.2,0.4,0.3,0.6c0.1,0.2,0,0.4-0.2,0.5c-0.2,0.1-0.4,0-0.5-0.1c-0.1-0.2-0.2-0.4-0.3-0.7
					c-1.1-2.2-1.5-4.6-1.3-7c-0.9-0.1-1.8,0.2-2.6,0.7c-1.2,1.1-1.8,2.7-1.6,4.3c0.2,2.2,1.1,4.4,2.4,6.2c3.1,4.2,6.8,6,9.1,4.4
					c0.6-0.5,1-1,1.3-1.7c-1.7-0.7-3.3-1.6-4.6-2.9c0,0-0.1-0.1-0.1-0.1c-0.1-0.1,0-0.3,0.1-0.5c0.2-0.2,0.4-0.2,0.6,0c0,0,0,0,0,0
					c1.3,1.3,2.9,2.3,4.7,2.9c1.1,0.4,2.3,0.6,3.5,0.7l0,0c4.1,0.2,11.1-1.5,13.8-5.2C67.3,53,67.7,52.4,68.1,51.8z"/>
				<path d="M68.8,52.3c1.4-2,2.7-3.9,4.1-4.6c1.6-0.6,2.7-2.1,2.8-3.9c0-1-0.5-2-1.3-2.5c-1.6-1-3.6-1.3-5.4-0.7
					c-2.5,0.9-4,3.5-4.9,5.4c-0.1,0.3-0.4,0.5-0.7,0.4c-0.3,0-0.6-0.3-0.6-0.6c-0.8-4.5,1.6-8,3.7-10.1c3.1,3.5,6.3,2.5,6.4,2.4
					c0.6-0.2,1.2-0.7,1.5-1.3c0.5-1.1-0.1-2.5-0.7-4c-0.3-0.7-0.6-1.4-0.8-2.1c-0.8-3-2.1-4.7-4.1-5.2c-0.9-0.2-1.9-0.1-2.8,0.2
					c-1.5-1.1-3.3-1.5-5.1-1.2c-0.9,0.1-1.7,0.4-2.5,0.8c-4.7-1.3-9.3,1.3-13.2,7.5c-1.3,2.1-2.4,4.3-3.4,6.7l0,0l0,0
					c-0.5,1-0.9,2.1-1.2,3.2l0,0c-0.1,0.4-0.1,0.8-0.2,1.2c-1.1-0.1-2.2,0.2-3.1,0.8c-1.5,1.2-2.2,3.1-1.9,5
					c0.1,1.5,0.5,2.9,1.2,4.3c0.4,0.8,0.9,1.6,1.4,2.3c3.4,4.7,7.5,6.5,10.2,4.5c0.7-0.5,1.2-1.2,1.6-2c1.1,0.3,2.2,0.6,3.3,0.6h0.1
					c0.8,0,1.7,0,2.5-0.1h0.1l0,0c4.1-0.4,9.4-2.1,11.8-5.4C68,53.4,68.4,52.8,68.8,52.3z M53.2,58.7L53.2,58.7
					c-1.2-0.1-2.3-0.3-3.5-0.7c-1.7-0.6-3.3-1.6-4.7-2.9c-0.2-0.2-0.4-0.2-0.6,0c0,0,0,0,0,0c-0.1,0.1-0.1,0.3-0.1,0.5
					c0,0,0,0.1,0.1,0.1c1.3,1.3,2.9,2.2,4.6,2.9c-0.3,0.7-0.7,1.3-1.3,1.7c-2.3,1.7-6-0.1-9.1-4.4c-1.4-1.8-2.2-3.9-2.4-6.2
					c-0.3-1.6,0.3-3.3,1.6-4.3c0.7-0.5,1.7-0.8,2.6-0.7c-0.2,2.4,0.3,4.8,1.3,7c0.1,0.2,0.2,0.5,0.3,0.7c0.1,0.2,0.4,0.2,0.6,0.1
					c0.1-0.1,0.2-0.3,0.1-0.5c-0.1-0.2-0.2-0.4-0.3-0.6c-1.3-2.6-1.6-5.6-1-8.5c0.2-0.5,5.9-18.7,15.9-17.1
					c-2.3,1.4-4.3,3.3-5.9,5.4c-0.1,0.1-0.1,0.3,0,0.4c0,0.1,0.1,0.1,0.1,0.1c0.2,0.1,0.4,0.1,0.6-0.1c0,0,0,0,0,0
					c0-0.1,4.3-5.8,9-6.5c1.4-0.2,2.8,0.1,4,0.8c-4.5,1.9-9.2,7.3-9.4,7.6c-0.1,0.1-0.1,0.3,0,0.4c0,0.1,0.1,0.1,0.1,0.1
					c0.2,0.1,0.4,0.1,0.6,0c0.1-0.1,5.2-6.2,9.8-7.6h0.1c0.8-0.3,1.7-0.4,2.5-0.2c1.6,0.4,2.8,1.9,3.5,4.6c0.2,0.8,0.5,1.5,0.8,2.2
					c0.6,1.3,1.1,2.6,0.7,3.4c-0.2,0.4-0.6,0.7-1,0.8c-0.1,0-2.9,0.9-5.6-2.2c0.6-0.6,1.3-1.2,2-1.7c0.2-0.1,0.3-0.3,0.2-0.5
					s-0.3-0.3-0.5-0.2c0,0-0.1,0-0.1,0.1c-0.8,0.6-1.6,1.3-2.4,2c0,0,0,0,0,0c0,0-0.1,0.1-0.1,0.1c-2.2,2.2-5,6.1-4.2,11.1
					c0.1,0.8,0.9,1.4,1.7,1.2c0.5-0.1,0.9-0.4,1.1-0.9c0.8-1.9,2.2-4.2,4.4-5c1.6-0.5,3.3-0.2,4.7,0.7c0.6,0.4,0.9,1,0.9,1.8
					c-0.2,1.4-1.1,2.6-2.4,3.2c-1.6,0.8-3,2.8-4.4,4.9c-0.4,0.6-0.8,1.2-1.2,1.7C64.2,57.2,57.2,58.9,53.2,58.7L53.2,58.7z"/>
			</g>
		</g>
		<g>
			<defs>
				<path id="SVGID_3_" d="M77.6,41.7L83,52.8l0,0l-11.7,5.7l0,0l-7.6-15.7l0,0l7.1-3.4C73.2,38.1,76.3,39.2,77.6,41.7z"/>
			</defs>
			<clipPath id="SVGID_4_">
				<use xlink:href="#SVGID_3_"  style="overflow:visible;"/>
			</clipPath>
			<g class="st13">
				<path class="st5" d="M68.1,51.8c1.4-2.1,2.8-4,4.4-4.9c1.3-0.5,2.3-1.7,2.4-3.1c0-0.7-0.3-1.4-0.9-1.7c-1.4-0.9-3.1-1.1-4.7-0.6
					c-2.2,0.8-3.6,3.1-4.4,5c-0.3,0.8-1.2,1.1-2,0.8c-0.5-0.2-0.8-0.6-0.9-1.1c-0.8-5,1.9-8.9,4.1-11.1c0,0,0.1-0.1,0.1-0.1
					c0,0,0,0,0.1,0c0.7-0.7,1.5-1.4,2.4-2c0.2-0.1,0.4-0.1,0.6,0.1c0.1,0.2,0.1,0.4-0.1,0.6c0,0-0.1,0-0.1,0.1
					c-0.7,0.5-1.4,1.1-2,1.7c2.7,3.1,5.5,2.3,5.6,2.2c0.4-0.1,0.8-0.4,1-0.8c0.3-0.8-0.2-2.1-0.7-3.4c-0.3-0.7-0.6-1.4-0.8-2.2
					c-0.7-2.7-1.8-4.2-3.5-4.6c-0.9-0.2-1.7-0.1-2.6,0.2H66c-4.5,1.4-9.7,7.5-9.8,7.6c-0.1,0.2-0.4,0.2-0.6,0c0,0-0.1-0.1-0.1-0.1
					c-0.1-0.1,0-0.3,0-0.4c0.3-0.3,4.9-5.8,9.4-7.6c-1.2-0.7-2.6-1-4-0.8c-4.8,0.7-9,6.4-9,6.5c-0.1,0.2-0.4,0.2-0.6,0.1
					c0,0,0,0,0,0c-0.1,0-0.1-0.1-0.1-0.1c-0.1-0.1-0.1-0.3,0-0.4c1.6-2.2,3.6-4,5.9-5.4c-10-1.6-15.7,16.6-15.9,17.1
					c-0.6,2.8-0.3,5.8,1,8.5c0.1,0.2,0.2,0.4,0.3,0.6c0.1,0.2,0,0.4-0.2,0.5c-0.2,0.1-0.4,0-0.5-0.1c-0.1-0.2-0.2-0.4-0.3-0.7
					c-1.1-2.2-1.5-4.6-1.3-7c-0.9-0.1-1.8,0.2-2.6,0.7c-1.2,1.1-1.8,2.7-1.6,4.3c0.2,2.2,1.1,4.4,2.4,6.2c3.1,4.2,6.8,6,9.1,4.4
					c0.6-0.5,1-1,1.3-1.7c-1.7-0.7-3.3-1.6-4.6-2.9c0,0-0.1-0.1-0.1-0.1c-0.1-0.1,0-0.3,0.1-0.5c0.2-0.2,0.4-0.2,0.6,0c0,0,0,0,0,0
					c1.3,1.3,2.9,2.3,4.7,2.9c1.1,0.4,2.3,0.6,3.5,0.7l0,0c4.1,0.2,11.1-1.5,13.8-5.2C67.3,53,67.7,52.4,68.1,51.8z"/>
				<path d="M68.8,52.3c1.4-2,2.7-3.9,4.1-4.6c1.6-0.6,2.7-2.1,2.8-3.9c0-1-0.5-2-1.3-2.5c-1.6-1-3.6-1.3-5.4-0.7
					c-2.5,0.9-4,3.5-4.9,5.4c-0.1,0.3-0.4,0.5-0.7,0.4c-0.3,0-0.6-0.3-0.6-0.6c-0.8-4.5,1.6-8,3.7-10.1c3.1,3.5,6.3,2.5,6.4,2.4
					c0.6-0.2,1.2-0.7,1.5-1.3c0.5-1.1-0.1-2.5-0.7-4c-0.3-0.7-0.6-1.4-0.8-2.1c-0.8-3-2.1-4.7-4.1-5.2c-0.9-0.2-1.9-0.1-2.8,0.2
					c-1.5-1.1-3.3-1.5-5.1-1.2c-0.9,0.1-1.7,0.4-2.5,0.8c-4.7-1.3-9.3,1.3-13.2,7.5c-1.3,2.1-2.4,4.3-3.4,6.7l0,0l0,0
					c-0.5,1-0.9,2.1-1.2,3.2l0,0c-0.1,0.4-0.1,0.8-0.2,1.2c-1.1-0.1-2.2,0.2-3.1,0.8c-1.5,1.2-2.2,3.1-1.9,5
					c0.1,1.5,0.5,2.9,1.2,4.3c0.4,0.8,0.9,1.6,1.4,2.3c3.4,4.7,7.5,6.5,10.2,4.5c0.7-0.5,1.2-1.2,1.6-2c1.1,0.3,2.2,0.6,3.3,0.6h0.1
					c0.8,0,1.7,0,2.5-0.1h0.1l0,0c4.1-0.4,9.4-2.1,11.8-5.4C68,53.4,68.4,52.8,68.8,52.3z M53.2,58.7L53.2,58.7
					c-1.2-0.1-2.3-0.3-3.5-0.7c-1.7-0.6-3.3-1.6-4.7-2.9c-0.2-0.2-0.4-0.2-0.6,0c0,0,0,0,0,0c-0.1,0.1-0.1,0.3-0.1,0.5
					c0,0,0,0.1,0.1,0.1c1.3,1.3,2.9,2.2,4.6,2.9c-0.3,0.7-0.7,1.3-1.3,1.7c-2.3,1.7-6-0.1-9.1-4.4c-1.4-1.8-2.2-3.9-2.4-6.2
					c-0.3-1.6,0.3-3.3,1.6-4.3c0.7-0.5,1.7-0.8,2.6-0.7c-0.2,2.4,0.3,4.8,1.3,7c0.1,0.2,0.2,0.5,0.3,0.7c0.1,0.2,0.4,0.2,0.6,0.1
					c0.1-0.1,0.2-0.3,0.1-0.5c-0.1-0.2-0.2-0.4-0.3-0.6c-1.3-2.6-1.6-5.6-1-8.5c0.2-0.5,5.9-18.7,15.9-17.1
					c-2.3,1.4-4.3,3.3-5.9,5.4c-0.1,0.1-0.1,0.3,0,0.4c0,0.1,0.1,0.1,0.1,0.1c0.2,0.1,0.4,0.1,0.6-0.1c0,0,0,0,0,0
					c0-0.1,4.3-5.8,9-6.5c1.4-0.2,2.8,0.1,4,0.8c-4.5,1.9-9.2,7.3-9.4,7.6c-0.1,0.1-0.1,0.3,0,0.4c0,0.1,0.1,0.1,0.1,0.1
					c0.2,0.1,0.4,0.1,0.6,0c0.1-0.1,5.2-6.2,9.8-7.6h0.1c0.8-0.3,1.7-0.4,2.5-0.2c1.6,0.4,2.8,1.9,3.5,4.6c0.2,0.8,0.5,1.5,0.8,2.2
					c0.6,1.3,1.1,2.6,0.7,3.4c-0.2,0.4-0.6,0.7-1,0.8c-0.1,0-2.9,0.9-5.6-2.2c0.6-0.6,1.3-1.2,2-1.7c0.2-0.1,0.3-0.3,0.2-0.5
					s-0.3-0.3-0.5-0.2c0,0-0.1,0-0.1,0.1c-0.8,0.6-1.6,1.3-2.4,2c0,0,0,0,0,0c0,0-0.1,0.1-0.1,0.1c-2.2,2.2-5,6.1-4.2,11.1
					c0.1,0.8,0.9,1.4,1.7,1.2c0.5-0.1,0.9-0.4,1.1-0.9c0.8-1.9,2.2-4.2,4.4-5c1.6-0.5,3.3-0.2,4.7,0.7c0.6,0.4,0.9,1,0.9,1.8
					c-0.2,1.4-1.1,2.6-2.4,3.2c-1.6,0.8-3,2.8-4.4,4.9c-0.4,0.6-0.8,1.2-1.2,1.7C64.2,57.2,57.2,58.9,53.2,58.7L53.2,58.7z"/>
			</g>
		</g>
	</g>
</g>
</svg>
