<svg xmlns="http://www.w3.org/2000/svg" viewBox="0 0 114.24 208.6"><defs><style>.cls-1{fill:#fff;stroke-width:0.96px;}.cls-1,.cls-10,.cls-11,.cls-12,.cls-14,.cls-2,.cls-3,.cls-4,.cls-5,.cls-6,.cls-7,.cls-8,.cls-9{stroke:#000;stroke-miterlimit:10;}.cls-2{stroke-width:1.16px;}.cls-3{fill:#ffd396;stroke-width:0.39px;}.cls-4{stroke-width:0.35px;}.cls-5{fill:#fbca2c;}.cls-5,.cls-6,.cls-7,.cls-8{stroke-width:0.37px;}.cls-6{fill:#f4b21c;}.cls-7{fill:#cac3b9;}.cls-8{fill:#fc5465;}.cls-9{fill:#f9d34e;}.cls-10,.cls-11,.cls-12,.cls-9{stroke-width:0.39px;}.cls-10{fill:#716cc8;}.cls-11{fill:#9b5cc5;}.cls-12{fill:#b3b3b3;}.cls-13{fill:#4d4d4d;opacity:0.25;}.cls-14{fill:#8e1c79;stroke-width:0.61px;}</style></defs><title>paso4img1</title><g id="Layer_2" data-name="Layer 2"><g id="Layer_1-2" data-name="Layer 1"><g id="Layer_2-2" data-name="Layer 2"><g id="Paso_4" data-name="Paso 4"><polygon class="cls-1" points="5.61 208.12 101.02 208.12 113.64 149.57 43.98 149.06 5.61 208.12"/><polygon class="cls-1" points="3.61 206.89 99.01 206.89 111.63 148.34 41.97 147.83 3.61 206.89"/><polygon class="cls-1" points="0.88 205.34 96.28 205.34 108.9 146.79 39.24 146.29 0.88 205.34"/><ellipse class="cls-2" cx="64.94" cy="48.03" rx="29.84" ry="10.45"/><path class="cls-3" d="M90.84,3.85c-2.84,4.46-7.1,10.33-7.1,10.33L90.06,17l7-1.1s-1.24-6.52-1.9-11.5Z"/><path class="cls-4" d="M94.79,1.57c-.38-2.48-1.84-1-2.32-.28-.4.62-1,1.51-1.63,2.56l4.34.56C95,3.27,94.9,2.28,94.79,1.57Z"/><path class="cls-5" d="M68.74,98.46a2.62,2.62,0,0,1-2.79,2h0a2,2,0,0,1-1.73-2.55L83.46,15a2.59,2.59,0,0,1,2.78-2h0A2,2,0,0,1,88,15.6Z"/><path class="cls-6" d="M73.25,99a2.6,2.6,0,0,1-2.78,2h0a2,2,0,0,1-1.73-2.55L88,15.6a2.6,2.6,0,0,1,2.78-2h0a2,2,0,0,1,1.74,2.55Z"/><path class="cls-5" d="M77.77,99.59a2.61,2.61,0,0,1-2.79,2h0A2,2,0,0,1,73.25,99L92.49,16.16a2.61,2.61,0,0,1,2.78-2h0A2,2,0,0,1,97,16.72Z"/><polygon class="cls-7" points="78.1 98.12 64.56 96.44 63.63 100.47 77.17 102.16 78.1 98.12"/><path class="cls-8" d="M77.17,102.15l-13.54-1.68-1,4.21h0a1.05,1.05,0,0,0,0,.19c-.73,3.16,1.71,6.1,5.45,6.56s7.36-1.72,8.09-4.88a1.06,1.06,0,0,0,0-.19h0Z"/><path class="cls-9" d="M49.48,41.66,58,81a1.18,1.18,0,0,1-.92,1.42,5.22,5.22,0,0,1-4-1,5.43,5.43,0,0,1-2.2-2.91L41.45,48.64c1.56-.9,2.79-3.37,3.81-6.89Z"/><path class="cls-10" d="M33.56,11.29c-1.34,4.26-.34,7.75,1.54,11a13.36,13.36,0,0,1,.65,1.24L44,41.22a1.63,1.63,0,0,0,1.1.9,7.57,7.57,0,0,0,4-.26A1.73,1.73,0,0,0,50.25,40,30.67,30.67,0,0,1,50,34.4a3.38,3.38,0,0,1,.53-1.6l3-4.59a10.55,10.55,0,0,0,1.6-4,17.47,17.47,0,0,0-.87-8.61,15.37,15.37,0,0,0-1-2.42,15,15,0,0,0-7.36-7.3,9.33,9.33,0,0,0-5.73-.62A8.55,8.55,0,0,0,33.56,11.29Zm4.14-.73A5.46,5.46,0,0,1,39.47,9a5.16,5.16,0,0,1,3.68-.48c2.86.65,5.1,2.76,6.93,5.82a11.54,11.54,0,0,1,1.31,3.19,12.83,12.83,0,0,1-.56,8.35,8.15,8.15,0,0,1-1.33,2.09,4.73,4.73,0,0,1-3.31,2h-.28a4.91,4.91,0,0,1-4.4-2.7L39.26,22.8a9.6,9.6,0,0,1-.71-1.87l-1.62-6.06A5.12,5.12,0,0,1,37.7,10.56Z"/><path class="cls-9" d="M42.51,44.83l2.21,1.45,4.76,1.29a1.59,1.59,0,0,1,1.09,1l8.78,25.5a8.49,8.49,0,0,1,.07,5.41,4.43,4.43,0,0,1-3,3.22A1.17,1.17,0,0,1,55,82.05L40,47.67Z"/><path class="cls-11" d="M20.41,43.22a10.58,10.58,0,0,0,9.48,3.42,11.89,11.89,0,0,1,3.37,0l1.32.18a3.46,3.46,0,0,1,1.61.65L38.28,49a2,2,0,0,0,2.36,0,7.64,7.64,0,0,0,2.64-3.76,2.18,2.18,0,0,0-.44-2.15l-2.27-2.54a5.47,5.47,0,0,1-.9-1.38l-.82-1.83a10.6,10.6,0,1,0-18.44,5.9ZM34,31.6a7.11,7.11,0,1,1-10-.56A7.1,7.1,0,0,1,34,31.6Z"/><circle class="cls-12" cx="46.82" cy="51.86" r="2.28"/><ellipse class="cls-13" cx="64.94" cy="115.24" rx="29.84" ry="8.02"/><path class="cls-14" d="M35.09,49.39,43.65,115c7.36,5.47,34.92,6.17,42,0l9.15-65.65C86,61.19,44.05,61.86,35.09,49.39Z"/></g></g></g></g></svg>