<svg xmlns="http://www.w3.org/2000/svg" xmlns:xlink="http://www.w3.org/1999/xlink" viewBox="0 0 168.95 186.83"><defs><style>.cls-1,.cls-20,.cls-26,.cls-32,.cls-39,.cls-65,.cls-69,.cls-70,.cls-78,.cls-83{fill:none;}.cls-2{fill:#39b54a;stroke:#009245;}.cls-10,.cls-11,.cls-12,.cls-13,.cls-14,.cls-15,.cls-16,.cls-17,.cls-18,.cls-2,.cls-20,.cls-21,.cls-22,.cls-23,.cls-24,.cls-25,.cls-26,.cls-27,.cls-28,.cls-29,.cls-30,.cls-31,.cls-32,.cls-33,.cls-34,.cls-35,.cls-36,.cls-37,.cls-38,.cls-39,.cls-4,.cls-40,.cls-41,.cls-43,.cls-44,.cls-45,.cls-46,.cls-47,.cls-50,.cls-51,.cls-52,.cls-53,.cls-54,.cls-55,.cls-56,.cls-57,.cls-58,.cls-59,.cls-61,.cls-62,.cls-63,.cls-64,.cls-65,.cls-69,.cls-71,.cls-72,.cls-73,.cls-74,.cls-75,.cls-77,.cls-79,.cls-8,.cls-80,.cls-81,.cls-83,.cls-85,.cls-86,.cls-9{stroke-miterlimit:10;}.cls-2,.cls-4{stroke-width:2.26px;}.cls-3,.cls-34,.cls-36,.cls-37,.cls-43,.cls-44,.cls-75,.cls-8{fill:#fff;}.cls-4{fill:red;stroke:#ed0018;}.cls-5{fill:#e5e5e5;}.cls-6{fill:#bf4400;}.cls-35,.cls-7{fill:#003b49;}.cls-10,.cls-11,.cls-12,.cls-13,.cls-14,.cls-15,.cls-16,.cls-17,.cls-18,.cls-20,.cls-21,.cls-22,.cls-23,.cls-24,.cls-25,.cls-26,.cls-27,.cls-28,.cls-29,.cls-30,.cls-31,.cls-32,.cls-33,.cls-34,.cls-35,.cls-36,.cls-37,.cls-38,.cls-39,.cls-40,.cls-41,.cls-44,.cls-45,.cls-46,.cls-47,.cls-50,.cls-51,.cls-52,.cls-53,.cls-54,.cls-55,.cls-56,.cls-57,.cls-58,.cls-59,.cls-61,.cls-62,.cls-63,.cls-64,.cls-69,.cls-70,.cls-71,.cls-72,.cls-73,.cls-74,.cls-75,.cls-77,.cls-78,.cls-79,.cls-8,.cls-80,.cls-81,.cls-83,.cls-85,.cls-86,.cls-9{stroke:#000;}.cls-39,.cls-8{stroke-width:0.69px;}.cls-50,.cls-9{fill:#ccc;}.cls-14,.cls-15,.cls-16,.cls-9{stroke-width:0.54px;}.cls-10,.cls-28,.cls-51,.cls-62{fill:#a4aeaf;}.cls-10{stroke-width:0.55px;}.cls-11,.cls-13,.cls-52,.cls-54{fill:#3d3d3d;}.cls-11,.cls-27,.cls-28,.cls-29,.cls-30,.cls-31,.cls-32,.cls-33,.cls-34,.cls-35{stroke-width:0.52px;}.cls-12,.cls-27,.cls-53,.cls-61{fill:#9caeae;}.cls-12,.cls-13{stroke-width:0.46px;}.cls-14,.cls-55{fill:#80644f;}.cls-15,.cls-56{fill:#b58148;}.cls-16,.cls-57{fill:#c39156;}.cls-17,.cls-58{fill:#a97746;}.cls-17{stroke-width:0.55px;}.cls-18,.cls-59{fill:#a27242;}.cls-18{stroke-width:0.54px;}.cls-19,.cls-21{fill:#00607a;}.cls-20,.cls-22{stroke-width:0.89px;}.cls-21,.cls-26{stroke-width:0.52px;}.cls-22{fill:#3291b2;}.cls-23,.cls-24,.cls-25{fill:#b3b3b3;}.cls-23{stroke-width:0.39px;}.cls-24{stroke-width:0.23px;}.cls-25{stroke-width:0.26px;}.cls-29,.cls-63{fill:#9fafaf;}.cls-30,.cls-64{fill:#9cabae;}.cls-31,.cls-73{fill:#9e7549;}.cls-33,.cls-74{fill:#c18a51;}.cls-36,.cls-39,.cls-70,.cls-78{stroke-linecap:round;}.cls-36{stroke-width:0.37px;}.cls-37{stroke-width:0.32px;}.cls-38{stroke-width:0.04px;}.cls-40,.cls-85{fill:#75c6d3;}.cls-40{stroke-width:0.42px;}.cls-41{stroke-width:0.04px;}.cls-42{clip-path:url(#clip-path);}.cls-43{stroke:#fff;stroke-width:0.38px;}.cls-44,.cls-45,.cls-46,.cls-47{stroke-width:0.34px;}.cls-45,.cls-79{fill:#e35154;}.cls-46,.cls-80{fill:#873f4a;}.cls-47,.cls-81{fill:#b94244;}.cls-48{fill:#afaeac;}.cls-49{fill:#3990ac;}.cls-50,.cls-55,.cls-56,.cls-57{stroke-width:0.56px;}.cls-51{stroke-width:0.56px;}.cls-52,.cls-61,.cls-62,.cls-63,.cls-64,.cls-73,.cls-74,.cls-75{stroke-width:0.53px;}.cls-53,.cls-54{stroke-width:0.47px;}.cls-58{stroke-width:0.56px;}.cls-59{stroke-width:0.55px;}.cls-60{fill:#7f7f7f;}.cls-65{stroke:#56ff28;}.cls-65,.cls-69,.cls-70,.cls-71{stroke-width:0.63px;}.cls-66{fill:#075f73;}.cls-67{fill:#043f4f;}.cls-68{fill:#056075;}.cls-70,.cls-78{stroke-linejoin:round;}.cls-71,.cls-72{fill:#999;}.cls-72{stroke-width:0.03px;}.cls-76{clip-path:url(#clip-path-2);}.cls-77{stroke-width:0.16px;}.cls-78{stroke-width:0.38px;}.cls-79,.cls-80,.cls-81{stroke-width:0.37px;}.cls-82{fill:#388cae;}.cls-83{stroke-width:0.36px;}.cls-84{fill:#00040c;}.cls-85{stroke-width:0.3px;}.cls-86{stroke-width:0.03px;}</style><clipPath id="clip-path" transform="translate(-3.91)"><rect class="cls-1" y="91.08" width="32.84" height="36.39"/></clipPath><clipPath id="clip-path-2" transform="translate(-3.91)"><path class="cls-1" d="M129.12,101.27s2.37,6.08,2.61,9.7L125,117.13l-11.41,6.74-6.57-1.1s-4.74-.47-4.84-2.46,1-11.83,1-11.83l4.46-11.27,8.46-.09Z"/></clipPath></defs><title>paso3img1</title><g id="Layer_2" data-name="Layer 2"><g id="Ilustraciones"><circle class="cls-2" cx="141.72" cy="16.75" r="15.62"/><path class="cls-3" d="M154.76,10.58a2.32,2.32,0,0,0-3.3,0l-8,8-3.38-3.37a2.34,2.34,0,0,0-3.3,3.31l5,5a2.32,2.32,0,0,0,3.3,0l9.65-9.65A2.32,2.32,0,0,0,154.76,10.58Z" transform="translate(-3.91)"/><circle class="cls-4" cx="28.06" cy="17.27" r="15.62"/><path class="cls-3" d="M39.71,10.08a2.18,2.18,0,0,0-3.08,0L32,14.73l-4.65-4.65a2.18,2.18,0,0,0-3.08,3.08l4.65,4.65-4.65,4.65a2.18,2.18,0,1,0,3.08,3.08L32,20.89l4.65,4.65a2.18,2.18,0,0,0,1.54.64,2.22,2.22,0,0,0,1.54-.64,2.18,2.18,0,0,0,0-3.08l-4.65-4.65,4.65-4.65A2.18,2.18,0,0,0,39.71,10.08Z" transform="translate(-3.91)"/><path class="cls-5" d="M45.06,160.81a5.83,5.83,0,0,1-1-.09l-.19,0a37.71,37.71,0,0,0-5.36-.81,46.15,46.15,0,0,0-4.61.57,19.31,19.31,0,0,1-2.06.23,7.79,7.79,0,0,1-6.12-2.58,3.49,3.49,0,0,0,1.62,3.19c2.28,1.28,4,1.06,6.4.76a30.48,30.48,0,0,1,5.11-.29,23.8,23.8,0,0,1,3.27.43c2.3.41,4.13.74,6.31-.77a2.74,2.74,0,0,0,1-3.12A5,5,0,0,1,45.06,160.81Z" transform="translate(-3.91)"/><path class="cls-6" d="M46.59,149.4a9.54,9.54,0,0,1-1.45.4.34.34,0,0,1-.38-.26.33.33,0,0,1,.26-.38,7.9,7.9,0,0,0,1.46-.41h.05c1.23-.49,2-1.22,2-2,0-1.41-2.51-2.59-5.48-2.59s-5.49,1.18-5.49,2.59c0,.72.67,1.4,1.75,1.88h0a8.46,8.46,0,0,0,2.36.62.32.32,0,0,1,0,.64h0a9,9,0,0,1-2.41-.61,6.74,6.74,0,0,0-2.34,2.52A6.72,6.72,0,0,1,38.36,154a.32.32,0,1,1-.59.25,5.14,5.14,0,0,0-2.46-2.8h0a8.25,8.25,0,0,0-3.46-.73c-3.57,0-6.47,2.08-6.47,4.63a3.41,3.41,0,0,0,.41,1.61c.94,1.81,3.38,3,6.06,3,.09,0,1.41-.1,1.93-.21h0a44.23,44.23,0,0,1,4.73-.57A37.34,37.34,0,0,1,44,160l.2,0a4.35,4.35,0,0,0,5-2.7l0,0a6.78,6.78,0,0,0-2.56-7.93Z" transform="translate(-3.91)"/><path d="M47.28,149.11a2.88,2.88,0,0,0,1.89-2.36c0-1.82-2.69-3.24-6.13-3.24s-6.14,1.42-6.14,3.24A2.71,2.71,0,0,0,38.54,149a7.29,7.29,0,0,0-2.17,2.42,4.14,4.14,0,0,0-.82-.49,9.14,9.14,0,0,0-3.72-.77c-3.93,0-7.12,2.36-7.12,5.27a4.11,4.11,0,0,0,.43,1.8,5.36,5.36,0,0,0,0,1.55,3.89,3.89,0,0,0,1.92,3.1c2.46,1.38,4.37,1.14,6.79.84a28.47,28.47,0,0,1,5-.28,22.79,22.79,0,0,1,3.17.41,16.37,16.37,0,0,0,2.95.36,6.4,6.4,0,0,0,3.84-1.23,3.53,3.53,0,0,0,1-4.51,7.39,7.39,0,0,0-2.52-8.32Zm1.14,12.3c-2.18,1.51-4,1.18-6.31.77a23.8,23.8,0,0,0-3.27-.43,30.48,30.48,0,0,0-5.11.29c-2.39.3-4.12.52-6.4-.76a3.49,3.49,0,0,1-1.62-3.19,7.79,7.79,0,0,0,6.12,2.58,19.31,19.31,0,0,0,2.06-.23,46.15,46.15,0,0,1,4.61-.57,37.71,37.71,0,0,1,5.36.81l.19,0a5.83,5.83,0,0,0,1,.09,5,5,0,0,0,4.36-2.52A2.74,2.74,0,0,1,48.42,161.41Zm.73-4.08,0,0a4.35,4.35,0,0,1-5,2.7l-.2,0a37.34,37.34,0,0,0-5.47-.81,44.23,44.23,0,0,0-4.73.57h0c-.52.11-1.84.21-1.93.21-2.68,0-5.12-1.21-6.06-3a3.41,3.41,0,0,1-.41-1.61c0-2.55,2.9-4.63,6.47-4.63a8.25,8.25,0,0,1,3.46.73h0a5.14,5.14,0,0,1,2.46,2.8.32.32,0,1,0,.59-.25,6.72,6.72,0,0,0-1.49-2.23,6.74,6.74,0,0,1,2.34-2.52,9,9,0,0,0,2.41.61h0a.32.32,0,0,0,0-.64,8.46,8.46,0,0,1-2.36-.62h0c-1.08-.48-1.75-1.16-1.75-1.88,0-1.41,2.51-2.59,5.49-2.59s5.48,1.18,5.48,2.59c0,.77-.76,1.5-2,2h-.05a7.9,7.9,0,0,1-1.46.41.33.33,0,0,0-.26.38.34.34,0,0,0,.38.26,9.54,9.54,0,0,0,1.45-.4,6.78,6.78,0,0,1,2.56,7.93Z" transform="translate(-3.91)"/><path class="cls-7" d="M43.14,148A2.19,2.19,0,0,1,41,146.19c-1.78-11,3.16-22.35,3.37-22.83a2.21,2.21,0,0,1,2-1.31,2.08,2.08,0,0,1,.88.19,2.19,2.19,0,0,1,1.13,2.9c0,.11-4.63,10.68-3,20.34A2.22,2.22,0,0,1,43.5,148,2.19,2.19,0,0,1,43.14,148Z" transform="translate(-3.91)"/><path d="M46.36,122.4a1.92,1.92,0,0,1,.74.15,1.85,1.85,0,0,1,.95,2.45c-.07.17-4.66,10.79-3.07,20.54a1.87,1.87,0,0,1-1.54,2.13l-.3,0a1.85,1.85,0,0,1-1.83-1.56c-1.77-10.88,3.14-22.15,3.35-22.63a1.84,1.84,0,0,1,1.7-1.1m0-.69h0A2.53,2.53,0,0,0,44,123.22c-.22.48-5.2,11.94-3.4,23a2.54,2.54,0,0,0,2.51,2.14,2.73,2.73,0,0,0,.41,0,2.56,2.56,0,0,0,2.11-2.92c-1.56-9.54,3-20.05,3-20.15a2.53,2.53,0,0,0-2.32-3.57Z" transform="translate(-3.91)"/><path class="cls-8" d="M40.77,142.59h4.38a.27.27,0,0,1,.27.27v3.68a1.66,1.66,0,0,1-1.66,1.66h-1.6a1.66,1.66,0,0,1-1.66-1.66v-3.68A.27.27,0,0,1,40.77,142.59Z" transform="translate(-12.74 2.9) rotate(-3.51)"/><path d="M67.23,156l-.36-2.2a6.71,6.71,0,0,0-2.2-4.87,2.64,2.64,0,0,0,.94-1.92c0-2-2.62-3.54-6-3.54s-6,1.56-6,3.54a2.51,2.51,0,0,0,.71,1.68,6.93,6.93,0,0,0-1.94,2.57,11.4,11.4,0,0,0-4.15.05,8.87,8.87,0,0,0-3.15,1.3,6.53,6.53,0,0,0-3,6s0,.12,0,.27l0,2.15a4,4,0,0,0,1.29,3c1.07,1,3,2,6.59,2a23.94,23.94,0,0,0,3.09-.22c.36,0,3.32-.15,7.74-3.59.26-.12,1.64-.71,2.85-1.16A5.4,5.4,0,0,0,67.24,156,.15.15,0,0,0,67.23,156ZM48.42,152c5.73-1.05,8.25,2.33,8.36,2.47a.38.38,0,0,0,.53.09.38.38,0,0,0,.09-.54,7.84,7.84,0,0,0-4.2-2.65A6.26,6.26,0,0,1,55,149.18a7.41,7.41,0,0,0,3.52,1.26h.05a.39.39,0,0,0,0-.77c-2.35-.27-4.12-1.43-4.12-2.7,0-1.5,2.38-2.77,5.2-2.77s5.2,1.27,5.2,2.77c0,.92-.93,1.81-2.41,2.32a.39.39,0,0,0,.25.73,6.45,6.45,0,0,0,1.37-.65,5.89,5.89,0,0,1,2,4.43,5.62,5.62,0,0,1-.44,2.18l-.21.47c-.75,1.64-3.68,2.73-4.91,3.12a6.24,6.24,0,0,0-1.65.83,15.79,15.79,0,0,1-6.64,2.28c-3.55.35-6.18-.17-7.81-1.55A4.21,4.21,0,0,1,43,158.77s0,0,0,0,0-.17,0-.18C42.69,153.06,48.18,152.07,48.42,152Zm15,8.33c-1.37.5-2.92,1.19-2.94,1.19l-.08,0c-4.41,3.44-7.31,3.46-7.33,3.46H53c-5.26.74-7.84-.46-9.07-1.59a3.29,3.29,0,0,1-1-2.45v-.41a5.11,5.11,0,0,0,1,1.09c1.45,1.24,3.57,1.85,6.33,1.85.65,0,1.34,0,2.07-.1a16.17,16.17,0,0,0,7-2.42,5.49,5.49,0,0,1,1.45-.73c1.64-.52,4.52-1.68,5.37-3.53l.22-.47h0l.1-.25v0A4.63,4.63,0,0,1,63.46,160.36Z" transform="translate(-3.91)"/><path class="cls-3" d="M66.47,156.06a4.63,4.63,0,0,1-3,4.3c-1.37.5-2.92,1.19-2.94,1.19l-.08,0c-4.41,3.44-7.31,3.46-7.33,3.46H53c-5.26.74-7.84-.46-9.07-1.59a3.29,3.29,0,0,1-1-2.45v-.41a5.11,5.11,0,0,0,1,1.09c1.45,1.24,3.57,1.85,6.33,1.85.65,0,1.34,0,2.07-.1a16.17,16.17,0,0,0,7-2.42,5.49,5.49,0,0,1,1.45-.73c1.64-.52,4.52-1.68,5.37-3.53l.22-.47h0l.1-.25Z" transform="translate(-3.91)"/><path class="cls-6" d="M66.1,153.8a5.62,5.62,0,0,1-.44,2.18l-.21.47c-.75,1.64-3.68,2.73-4.91,3.12a6.24,6.24,0,0,0-1.65.83,15.79,15.79,0,0,1-6.64,2.28c-3.55.35-6.18-.17-7.81-1.55A4.21,4.21,0,0,1,43,158.77s0,0,0,0,0-.17,0-.18c-.23-5.49,5.26-6.48,5.5-6.52,5.73-1.05,8.25,2.33,8.36,2.47a.38.38,0,0,0,.53.09.38.38,0,0,0,.09-.54,7.84,7.84,0,0,0-4.2-2.65A6.26,6.26,0,0,1,55,149.18a7.41,7.41,0,0,0,3.52,1.26h.05a.39.39,0,0,0,0-.77c-2.35-.27-4.12-1.43-4.12-2.7,0-1.5,2.38-2.77,5.2-2.77s5.2,1.27,5.2,2.77c0,.92-.93,1.81-2.41,2.32a.39.39,0,0,0,.25.73,6.45,6.45,0,0,0,1.37-.65A5.89,5.89,0,0,1,66.1,153.8Z" transform="translate(-3.91)"/><path class="cls-7" d="M59.92,147.49a2.18,2.18,0,0,1-2.17-1.84c-1.79-11,3.16-22.35,3.37-22.83a2.19,2.19,0,0,1,2-1.31,2.09,2.09,0,0,1,.89.19,2.15,2.15,0,0,1,1.16,1.21,2.2,2.2,0,0,1,0,1.69c0,.1-4.61,10.73-3,20.34a2.21,2.21,0,0,1-1.82,2.53Z" transform="translate(-3.91)"/><path d="M63.13,121.85a1.81,1.81,0,0,1,.75.16,1.86,1.86,0,0,1,.95,2.45c-.08.17-4.66,10.78-3.08,20.54a1.86,1.86,0,0,1-1.53,2.13l-.3,0a1.85,1.85,0,0,1-1.83-1.56c-1.77-10.89,3.13-22.16,3.34-22.63a1.86,1.86,0,0,1,1.7-1.11m0-.69h0a2.55,2.55,0,0,0-2.33,1.52c-.21.48-5.2,11.93-3.39,23a2.53,2.53,0,0,0,2.51,2.14l.41,0a2.56,2.56,0,0,0,2.1-2.93c-1.55-9.54,3-20,3-20.14a2.55,2.55,0,0,0-1.3-3.36,2.61,2.61,0,0,0-1-.22Z" transform="translate(-3.91)"/><path class="cls-8" d="M57.55,142.05h4.38a.27.27,0,0,1,.27.27V146a1.66,1.66,0,0,1-1.66,1.66h-1.6A1.66,1.66,0,0,1,57.28,146v-3.68A.27.27,0,0,1,57.55,142.05Z" transform="translate(-12.67 3.93) rotate(-3.51)"/><polygon class="cls-9" points="73.4 120.57 74.22 102.76 76.59 102.76 76.23 120.57 73.4 120.57"/><polygon class="cls-9" points="52.14 117.1 52.96 99.29 55.34 99.29 54.97 117.1 52.14 117.1"/><path class="cls-10" d="M63.28,132.54l-1.3,0c-.48,0-1,0-1.44,0l-.28,0-.92,27.29c1.16,1.34,2.37,1.41,3.64,0l.73-27.37Z" transform="translate(-3.91)"/><path class="cls-11" d="M63.05,159.9l.39,4.65a3.72,3.72,0,0,1-4.62,0l.59-4.78A2.72,2.72,0,0,0,63.05,159.9Z" transform="translate(-3.91)"/><path class="cls-12" d="M76.71,125.8l2.68,23.33c1,.67,1.89.76,2.68-.33l-3.14-24.07A16.2,16.2,0,0,0,76.71,125.8Z" transform="translate(-3.91)"/><path class="cls-13" d="M79.34,148.68l.07,4c1.29,1.71,2.46,1.28,3.57-.22l-1-4.41A1.66,1.66,0,0,1,79.34,148.68Z" transform="translate(-3.91)"/><path class="cls-14" d="M82.56,102.12l.68-13.39a2.5,2.5,0,0,0-1.89-2.58l-21.8-5.06a2.45,2.45,0,0,0-3,2.28L55.76,96.3a2.5,2.5,0,0,0,1.86,2.59l21.93,5.53a2.09,2.09,0,0,0,.74.07A2.47,2.47,0,0,0,82.56,102.12Z" transform="translate(-3.91)"/><path class="cls-15" d="M80.65,103.4,81.33,90a2.5,2.5,0,0,0-1.9-2.57l-21.8-5.06a2.45,2.45,0,0,0-3,2.28l-.81,12.92a2.49,2.49,0,0,0,1.85,2.6l21.93,5.53a2.73,2.73,0,0,0,.75.07A2.48,2.48,0,0,0,80.65,103.4Z" transform="translate(-3.91)"/><path class="cls-16" d="M78.8,120.1l-29.69-7.83a2,2,0,0,0-1.16,0L33,118a1.28,1.28,0,0,0,0,2.48l28.33,10a1.87,1.87,0,0,0,1.43-.07l16.37-7.77A1.28,1.28,0,0,0,78.8,120.1Z" transform="translate(-3.91)"/><polygon class="cls-17" points="76.02 121.93 76.02 125.15 58.63 134.26 58.84 130.54 76.02 121.93"/><polygon class="cls-18" points="27.67 123.85 28.12 120.45 58.11 130.34 58.11 134.24 27.67 123.85"/><rect class="cls-19" x="72.53" y="96.13" width="3.4" height="26.3"/><path class="cls-7" d="M79.84,96.13h-3.4a7.68,7.68,0,0,1-1.3-1.31,16.1,16.1,0,0,1-2.83-9.69c0-4,1.16-7.63,2.93-9.81a7.84,7.84,0,0,1,1.2-1.18h3.4a7.36,7.36,0,0,0-1.19,1.18c-1.78,2.18-2.94,5.76-2.94,9.81a16.1,16.1,0,0,0,2.84,9.69A7.64,7.64,0,0,0,79.84,96.13Z" transform="translate(-3.91)"/><rect class="cls-19" x="72.53" y="61.45" width="3.4" height="12.69"/><path class="cls-20" d="M78.65,75.32c-1.78,2.18-2.94,5.76-2.94,9.81a16.17,16.17,0,0,0,2.83,9.69,8.06,8.06,0,0,0,1.3,1.31v26.3H36.24V95.48a6.22,6.22,0,0,0,.58-.66,16.1,16.1,0,0,0,2.84-9.69c0-4-1.16-7.63-2.94-9.81a6.17,6.17,0,0,0-.48-.54V61.45h43.6V74.14A7,7,0,0,0,78.65,75.32Z" transform="translate(-3.91)"/><path class="cls-21" d="M75.24,75.32c-1.77,2.18-2.93,5.76-2.93,9.81a16.1,16.1,0,0,0,2.83,9.69,7.68,7.68,0,0,0,1.3,1.31v26.3H36.24V95.48a6.22,6.22,0,0,0,.58-.66,16.1,16.1,0,0,0,2.84-9.69c0-4-1.16-7.63-2.94-9.81a6.17,6.17,0,0,0-.48-.54V61.45h40.2V74.14A7.84,7.84,0,0,0,75.24,75.32Z" transform="translate(-3.91)"/><path class="cls-22" d="M75.24,75.32c-1.77,2.18-2.93,5.76-2.93,9.81a16.1,16.1,0,0,0,2.83,9.69,7.68,7.68,0,0,0,1.3,1.31v26.3H32.84V95.48a7.59,7.59,0,0,0,.58-.66,16.1,16.1,0,0,0,2.83-9.69c0-4-1.16-7.63-2.93-9.81l-.48-.54V61.45h43.6V74.14A7.84,7.84,0,0,0,75.24,75.32Z" transform="translate(-3.91)"/><path class="cls-23" d="M43.92,61.44H59.25a0,0,0,0,1,0,0V75a7.67,7.67,0,0,1-7.67,7.67h0A7.67,7.67,0,0,1,43.92,75V61.44A0,0,0,0,1,43.92,61.44Z"/><line class="cls-24" x1="51.44" y1="61.48" x2="51.44" y2="82.71"/><circle class="cls-25" cx="55.68" cy="70.54" r="1.55"/><line class="cls-26" x1="72.53" y1="74.14" x2="75.93" y2="74.14"/><line class="cls-26" x1="72.53" y1="96.13" x2="75.93" y2="96.13"/><path class="cls-27" d="M66.83,135.71l.66.47a2.39,2.39,0,0,1,1,1.62l4.21,28.45c1.26.67,2.44.77,3.45-.32l-4.81-28.67a4.82,4.82,0,0,0-1-2.19l-1-1.31Z" transform="translate(-3.91)"/><path class="cls-11" d="M72.63,165.8l.08,4c1.67,1.72,3.18,1.28,4.61-.21L76,165.2A2.47,2.47,0,0,1,72.63,165.8Z" transform="translate(-3.91)"/><path class="cls-28" d="M40.4,146.05l.89,1.75a9.14,9.14,0,0,1,1,3.87l.85,28.56c1.28,1.24,2.49,1.19,3.65,0l-1.14-29.89a6.45,6.45,0,0,0-.35-1.9l-1.12-3.24Z" transform="translate(-3.91)"/><path class="cls-11" d="M43.07,180.12l-.39,4.65a3.72,3.72,0,0,0,4.62,0L46.71,180A2.72,2.72,0,0,1,43.07,180.12Z" transform="translate(-3.91)"/><path class="cls-29" d="M10.84,134.38l-.91,1.81a3.94,3.94,0,0,0-.38,1.4L7.67,165.11l0,.32a2.37,2.37,0,0,0,3.19,0l1.34-27.28a4.36,4.36,0,0,1,.18-1l.56-1.84Z" transform="translate(-3.91)"/><path class="cls-11" d="M7.09,168.89a3.1,3.1,0,0,0,4.25,0l-.48-4.32a2.27,2.27,0,0,1-3.19.19Z" transform="translate(-3.91)"/><path class="cls-30" d="M7.21,126.21l1.56,6.25a3.41,3.41,0,0,0,2.11,2.36L43.18,147a5,5,0,0,0,4.16-.28L69,135.11A3.71,3.71,0,0,0,70.93,132l.2-5.4L45.06,138.8Z" transform="translate(-3.91)"/><path class="cls-31" d="M4.17,122.13v1.32a2.36,2.36,0,0,0,1.52,2.2l37.4,14a5.1,5.1,0,0,0,4.17-.27l24.22-13a2.3,2.3,0,0,0,1.2-2.27l-.1-.94-27.43,14Z" transform="translate(-3.91)"/><line class="cls-32" x1="51.08" y1="109.01" x2="51.08" y2="109"/><path class="cls-33" d="M72.58,123.07,47.76,136.44a7,7,0,0,1-5.85.35L4.72,122.2a.86.86,0,0,1,0-1.59l25.24-11.38a5,5,0,0,1,3.6-.18l39,13.09A.51.51,0,0,1,72.58,123.07Z" transform="translate(-3.91)"/><polygon class="cls-34" points="13.59 127.52 36.81 131.79 53.5 116.84 31.89 112.69 13.59 127.52"/><path class="cls-35" d="M75.54,99.81a13.49,13.49,0,0,1-.38,3.38,18.29,18.29,0,0,1-7.94,11.14c-3.9,2.52-6.11,2.87-8,2.79a1.19,1.19,0,0,0-1.13,1.7l1.9,4a1.15,1.15,0,0,0,1.28.62C72,121,80.63,115.55,81.44,99.11a2.83,2.83,0,0,0-4.76-2.21l-.05,0A3.92,3.92,0,0,0,75.54,99.81Z" transform="translate(-3.91)"/><polygon class="cls-3" points="44.07 120.54 44.23 121.98 51.09 124.54 55.86 120.58 54.55 118.84 52.11 118.13 49.09 117.23 46.51 117.29 44.07 120.54"/><path class="cls-36" d="M56.55,117.47c1.06-.93,2.3-1,4,1.06a5.8,5.8,0,0,1,.83,1.31,3.76,3.76,0,0,1,.21,2.8,2.72,2.72,0,0,1-2.68,1.79h-.54" transform="translate(-3.91)"/><path class="cls-36" d="M58.18,119c-1-1.49-3.24-2-5.69-2.24a3.22,3.22,0,0,1-.76-.17,7,7,0,0,0-2.22-.44,2,2,0,0,0-2,2.09,3.07,3.07,0,0,0,.24,1" transform="translate(-3.91)"/><path class="cls-36" d="M52,118.12c-5.18.21-7.28,1.95-8.25,4.25a1.69,1.69,0,0,0,1,2.25l.53.17" transform="translate(-3.91)"/><path class="cls-36" d="M50.73,120.83c-4.55,1.14-6.07,3-6.17,5.24a1.31,1.31,0,0,0,1,1.33l.12,0a2.2,2.2,0,0,0,2-.64,14.22,14.22,0,0,1,4.88-3.06c-1.88,1-3.47,2.22-3.8,4.59a1.38,1.38,0,0,0,.93,1.53l.14,0a1.59,1.59,0,0,0,1.5-.58l2.28-2.74c4,1.08,5.66-1.06,6.09-4.86" transform="translate(-3.91)"/><ellipse class="cls-37" cx="41.99" cy="95.39" rx="4.35" ry="6.44"/><ellipse class="cls-38" cx="41.99" cy="98.51" rx="2.24" ry="3.31"/><circle class="cls-3" cx="42.85" cy="96.92" r="0.86"/><ellipse class="cls-37" cx="54.39" cy="95.2" rx="4.35" ry="6.44"/><ellipse class="cls-38" cx="53.68" cy="97.77" rx="2.24" ry="3.31"/><circle class="cls-3" cx="54.54" cy="96.24" r="0.86"/><path class="cls-39" d="M42.29,86.45s2.51-2.62,4.94,0" transform="translate(-3.91)"/><path class="cls-39" d="M56.37,85.44s2.51-2.62,4.94,0" transform="translate(-3.91)"/><path class="cls-40" d="M60.27,104.44a1.6,1.6,0,0,1,1.47,2.7,13,13,0,0,1-13.83,2.94,1.6,1.6,0,1,1,1.15-3,9.77,9.77,0,0,0,10.41-2.22A1.58,1.58,0,0,1,60.27,104.44Z" transform="translate(-3.91)"/><path class="cls-41" d="M48.38,108.06a.52.52,0,0,1,.3,0,10.85,10.85,0,0,0,11.55-2.46.54.54,0,0,1,.76.76,11.94,11.94,0,0,1-12.7,2.71.54.54,0,0,1-.3-.7A.53.53,0,0,1,48.38,108.06Z" transform="translate(-3.91)"/><g class="cls-42"><path class="cls-35" d="M18.24,120a2.68,2.68,0,0,1-.86-5.22c13.44-4.51,16.19-21.24,16.22-21.41a2.68,2.68,0,1,1,5.29.81c-.12.82-3.23,20.12-19.8,25.68A2.85,2.85,0,0,1,18.24,120Z" transform="translate(-3.91)"/><ellipse class="cls-43" cx="10.93" cy="118.56" rx="2.94" ry="3.39"/><path class="cls-44" d="M8.66,119.37a2.72,2.72,0,0,0-.79,2.82,3.44,3.44,0,0,0,3.21,2.72,1.36,1.36,0,0,0,1.42-1c.45-1.76-.85-2.55-2.67-3" transform="translate(-3.91)"/><path class="cls-44" d="M8.42,116.77a2.72,2.72,0,0,0-.79,2.82,3.44,3.44,0,0,0,3.21,2.72,1.37,1.37,0,0,0,1.42-1c.44-1.76-.85-2.55-2.67-3" transform="translate(-3.91)"/><path class="cls-44" d="M16.05,113.2c1.82-.11,3.42.56,4.33,3.57.62,3.5-.94,4.08-2.52,4.64" transform="translate(-3.91)"/><path class="cls-44" d="M12.59,124.4c3-.75,6.16-1.34,5.71-6.41" transform="translate(-3.91)"/><path class="cls-44" d="M17.86,115.75c-.13-2.62-5.95-4.58-9.44-1.52a2.73,2.73,0,0,0-.79,2.83,3.43,3.43,0,0,0,3.21,2.71,1.35,1.35,0,0,0,1.42-1c.44-1.76-.85-2.54-2.67-3,1.32-1.12,2.75-2,4.85-.88-1.72,1.92-1.57,3.4-.7,4.72a1.56,1.56,0,0,0,2.36.26c.92-.88.92-2.11,0-3.71" transform="translate(-3.91)"/><path class="cls-45" d="M11.6,106.36a.08.08,0,0,0,0,0l3.86,14.74-3.52.92L8.08,107.28a.26.26,0,0,1,.14-.33,5,5,0,0,1,3.1-.81C11.43,106.11,11.56,106.21,11.6,106.36Z" transform="translate(-3.91)"/><rect class="cls-46" x="8.65" y="108.42" width="3.64" height="1.66" transform="translate(-31.25 6.22) rotate(-14.68)"/><rect class="cls-46" x="11.44" y="119.05" width="3.64" height="1.66" transform="matrix(0.97, -0.25, 0.25, 0.97, -33.85, 7.27)"/><path class="cls-47" d="M14.87,125.09l.58-3.88a.05.05,0,0,0,0-.06L12,122a.05.05,0,0,0,0,.08l2.42,3.09Z" transform="translate(-3.91)"/><path class="cls-44" d="M9.43,115.57l.34-.28c-.19-.65-.22-1.33-.41-2a6.08,6.08,0,0,0-1.1.77,2.72,2.72,0,0,0-.79,2.82,3.44,3.44,0,0,0,3.21,2.72,1.36,1.36,0,0,0,1.42-1C12.55,116.84,11.26,116.05,9.43,115.57Z" transform="translate(-3.91)"/><path class="cls-44" d="M13.94,114.47a3.93,3.93,0,0,1,.52.23c-1.71,1.92-1.57,3.4-.69,4.72a1.55,1.55,0,0,0,2.35.26c.92-.88.93-2.11,0-3.71" transform="translate(-3.91)"/></g><path class="cls-3" d="M159.31,150.53c0,.3,0,.61,0,.92a6.68,6.68,0,0,1,.57.49c0-.26,0-.51-.06-.76a10.9,10.9,0,0,0-.59-2.64c.06.61.1,1.23.1,1.85Z" transform="translate(-3.91)"/><path class="cls-6" d="M148.13,151.15a9.76,9.76,0,0,1,5.62-1.64,8.91,8.91,0,0,1,4.89,1.47c0-.15,0-.3,0-.45v-.13a17.16,17.16,0,0,0-.46-3.91,13.08,13.08,0,0,0-.54-1.77,5.89,5.89,0,0,1-4,1.8h0a.33.33,0,0,1-.32-.3.31.31,0,0,1,.3-.33,5,5,0,0,0,3.82-1.94.32.32,0,0,1,.08-.12,2.32,2.32,0,0,0,.31-1.14c0-1.77-2.11-3.21-4.71-3.21s-4.71,1.44-4.71,3.21a2.48,2.48,0,0,0,.65,1.61.27.27,0,0,1,.07.08,5.06,5.06,0,0,0,2.88,1.43.32.32,0,0,1,.26.37.31.31,0,0,1-.36.26,6,6,0,0,1-2.92-1.3c-.12.35-.23.71-.33,1.09a17.59,17.59,0,0,0-.52,4.3v.13C148.12,150.82,148.13,151,148.13,151.15Z" transform="translate(-3.91)"/><path class="cls-6" d="M159.85,152.89a7.21,7.21,0,0,0-1.1-1h0a8.26,8.26,0,0,0-5-1.69,8.8,8.8,0,0,0-5.7,1.88,5.72,5.72,0,0,0-1.26,1.45,4.54,4.54,0,0,0-.61,1.85c0,.05,0,.1,0,.15a4.75,4.75,0,0,0,1.57,1.67,8,8,0,0,0,2.22,1.06,12.09,12.09,0,0,0,3.66.55c3.41,0,6.44-1.35,7.45-3.3a4.64,4.64,0,0,0-1.15-2.5Z" transform="translate(-3.91)"/><path class="cls-48" d="M153.62,159.39a12.65,12.65,0,0,1-3.84-.58,9.28,9.28,0,0,1-2.39-1.14,6,6,0,0,1-1.17-1c.29,1.66,1.54,2.83,3.68,3.41l.08,0a14.85,14.85,0,0,0,3.22.41h.55c4.24,0,6.72-1.31,7.23-3.8C159.53,158.33,156.76,159.39,153.62,159.39Z" transform="translate(-3.91)"/><path d="M160.51,152.65l0,0v-.19a12,12,0,0,0-1.65-6.1h0a15.23,15.23,0,0,0-.75-2.28,2.82,2.82,0,0,0,.35-1.37c0-2.12-2.39-3.84-5.34-3.84s-5.34,1.72-5.34,3.84a3.07,3.07,0,0,0,.7,1.92c-.17.46-.33.95-.46,1.45a11.33,11.33,0,0,0-1.81,5.66h0c0,.22,0,.45,0,.71s0,.53,0,.79a5.15,5.15,0,0,0-.67,2.06c0,.07,0,.14,0,.21-.17,2.53,1.31,4.36,4.14,5.15l.08,0a14.44,14.44,0,0,0,3.45.45h.57c6.85,0,7.95-3.35,8-5.35h0a2.63,2.63,0,0,0,0-.3A5.15,5.15,0,0,0,160.51,152.65Zm-.71-1.47c0,.25,0,.5.06.76a6.68,6.68,0,0,0-.57-.49c0-.31,0-.62,0-.92v-.14c0-.62,0-1.24-.1-1.85A10.9,10.9,0,0,1,159.8,151.18Zm-11.16-5c.1-.38.21-.74.33-1.09a6,6,0,0,0,2.92,1.3.31.31,0,0,0,.36-.26.32.32,0,0,0-.26-.37,5.06,5.06,0,0,1-2.88-1.43.27.27,0,0,0-.07-.08,2.48,2.48,0,0,1-.65-1.61c0-1.77,2.11-3.21,4.71-3.21s4.71,1.44,4.71,3.21a2.32,2.32,0,0,1-.31,1.14.32.32,0,0,0-.08.12,5,5,0,0,1-3.82,1.94.31.31,0,0,0-.3.33.33.33,0,0,0,.32.3h0a5.89,5.89,0,0,0,4-1.8,13.08,13.08,0,0,1,.54,1.77,17.16,17.16,0,0,1,.46,3.91v.13c0,.15,0,.3,0,.45a8.91,8.91,0,0,0-4.89-1.47,9.76,9.76,0,0,0-5.62,1.64c0-.17,0-.33,0-.49v-.13A17.59,17.59,0,0,1,148.64,146.23Zm-1.83,5.53h0a11.37,11.37,0,0,1,.8-3.63,19,19,0,0,0-.15,2.41v.14c0,.32,0,.65,0,1a6.87,6.87,0,0,0-.71.72C146.79,152.15,146.8,152,146.81,151.76Zm6.94,8.71h-.55a14.85,14.85,0,0,1-3.22-.41l-.08,0c-2.14-.58-3.39-1.75-3.68-3.41a6,6,0,0,0,1.17,1,9.28,9.28,0,0,0,2.39,1.14,12.65,12.65,0,0,0,3.84.58c3.14,0,5.91-1.06,7.36-2.72C160.47,159.16,158,160.47,153.75,160.47Zm-.13-1.69a12.09,12.09,0,0,1-3.66-.55,8,8,0,0,1-2.22-1.06,4.75,4.75,0,0,1-1.57-1.67c0-.05,0-.1,0-.15a4.54,4.54,0,0,1,.61-1.85,5.72,5.72,0,0,1,1.26-1.45,8.8,8.8,0,0,1,5.7-1.88,8.26,8.26,0,0,1,5,1.69h0a7.21,7.21,0,0,1,1.1,1l.07.09a4.64,4.64,0,0,1,1.15,2.5C160.06,157.43,157,158.78,153.62,158.78Z" transform="translate(-3.91)"/><path class="cls-49" d="M153.28,142.8a2.15,2.15,0,0,1-2.15-2.15V124a2.15,2.15,0,0,1,4.29,0v16.67A2.14,2.14,0,0,1,153.28,142.8Z" transform="translate(-3.91)"/><path d="M153.28,122.09a1.89,1.89,0,0,1,1.89,1.89v16.67a1.9,1.9,0,1,1-3.79,0V124a1.89,1.89,0,0,1,1.9-1.89m0-.5a2.39,2.39,0,0,0-2.4,2.39v16.67a2.4,2.4,0,1,0,4.79,0V124a2.39,2.39,0,0,0-2.39-2.39Z" transform="translate(-3.91)"/><polygon class="cls-50" points="162.59 120.15 163.43 101.89 165.87 101.89 165.49 120.15 162.59 120.15"/><polygon class="cls-50" points="140.79 116.59 141.63 98.33 144.07 98.33 143.69 116.59 140.79 116.59"/><path class="cls-51" d="M152.12,132.43l-1.34,0a12,12,0,0,0-1.47,0l-.3,0-.94,28c1.19,1.38,2.43,1.44,3.74,0l.74-28.07A3.11,3.11,0,0,1,152.12,132.43Z" transform="translate(-3.91)"/><path class="cls-52" d="M151.88,160.48l.4,4.77a3.82,3.82,0,0,1-4.74,0l.6-4.9A2.8,2.8,0,0,0,151.88,160.48Z" transform="translate(-3.91)"/><path class="cls-53" d="M165.88,125.51l2.75,23.93c1,.68,1.94.78,2.75-.34l-3.21-24.68A16,16,0,0,0,165.88,125.51Z" transform="translate(-3.91)"/><path class="cls-54" d="M168.58,149l.07,4.14c1.33,1.76,2.53,1.31,3.66-.22l-1-4.53A1.7,1.7,0,0,1,168.58,149Z" transform="translate(-3.91)"/><path class="cls-55" d="M171.89,101.23l.7-13.74a2.57,2.57,0,0,0-2-2.64l-22.35-5.19a2.52,2.52,0,0,0-3,2.34l-.83,13.26a2.56,2.56,0,0,0,1.9,2.66l22.48,5.67a2.49,2.49,0,0,0,3.1-2.36Z" transform="translate(-3.91)"/><path class="cls-56" d="M169.92,102.54l.7-13.74a2.57,2.57,0,0,0-2-2.64L146.32,81a2.52,2.52,0,0,0-3,2.34l-.83,13.26a2.56,2.56,0,0,0,1.9,2.66l22.49,5.67a2.2,2.2,0,0,0,.76.07A2.52,2.52,0,0,0,169.92,102.54Z" transform="translate(-3.91)"/><path class="cls-57" d="M168,119.66l-30.45-8a2,2,0,0,0-1.19.06L121,117.48a1.31,1.31,0,0,0,0,2.55l29.05,10.21a2,2,0,0,0,1.47-.07l16.78-8A1.32,1.32,0,0,0,168,119.66Z" transform="translate(-3.91)"/><polygon class="cls-58" points="165.28 121.54 165.28 124.85 147.44 134.19 147.66 130.37 165.28 121.54"/><polygon class="cls-59" points="115.69 123.51 116.16 120.03 146.91 130.17 146.91 134.17 115.69 123.51"/><path class="cls-49" d="M137.2,151.51a2.14,2.14,0,0,1-1.3-3.85c7.52-5.72,6.36-19.88,6.35-20a2.16,2.16,0,0,1,1.95-2.33h.19a2.14,2.14,0,0,1,2.14,2c.06.68,1.36,16.67-8,23.81A2.13,2.13,0,0,1,137.2,151.51Z" transform="translate(-3.91)"/><path d="M144.39,125.55a1.91,1.91,0,0,1,1.89,1.73c.06.67,1.35,16.54-7.93,23.6a1.9,1.9,0,0,1-2.3-3c7.61-5.79,6.46-20.1,6.45-20.24a1.9,1.9,0,0,1,1.72-2.06h.17m0-.5h-.21a2.41,2.41,0,0,0-2.18,2.6c0,.14,1.13,14.19-6.25,19.8a2.4,2.4,0,0,0-.46,3.36,2.4,2.4,0,0,0,3.36.45c9.51-7.22,8.19-23.35,8.13-24a2.39,2.39,0,0,0-2.39-2.19Z" transform="translate(-3.91)"/><path class="cls-3" d="M131.59,154.61a7.46,7.46,0,0,1-2.17-3.39c-.45-1.48-.78-2.47-1-2.86a9.9,9.9,0,0,0-1.32-2.18c-1.9-2.38-4.91-4.61-7.63-3.74a3.78,3.78,0,0,0-1.05.55,5.35,5.35,0,0,0-.47.54,3.65,3.65,0,0,1,1.47-.37,6,6,0,0,1,3.57.9c2.61,1.49,4.71,4.51,6.25,9a3.52,3.52,0,0,0,.72,1.22c1.47,1.63,3.85,4.7,3.36,6.86a2.06,2.06,0,0,1-.2.54,5.11,5.11,0,0,0,1.13-.84C134.94,159.08,133.89,156.65,131.59,154.61Z" transform="translate(-3.91)"/><path class="cls-6" d="M134.28,146.25a1.88,1.88,0,0,0-.18.12l-.1.08a1.41,1.41,0,0,0-.36,1,4.64,4.64,0,0,1,1.67.78.34.34,0,0,1,.08.48.33.33,0,0,1-.28.15.35.35,0,0,1-.21-.07,4,4,0,0,0-2.31-.78c0,.17,0,.33,0,.48s0,.2,0,.3,0,1.41-.07,1.64a.35.35,0,0,1-.37.33.35.35,0,0,1-.32-.37c0-.52.08-1.41.07-1.56s0-.21,0-.31a6.83,6.83,0,0,0-.06-.8,7.58,7.58,0,0,0-.57-2.06,8,8,0,0,0-10.8-4.05c2.7-.15,5.41,1.95,7.2,4.18a10.64,10.64,0,0,1,1.41,2.33c.19.43.53,1.42,1,2.94a6.65,6.65,0,0,0,2,3.07c2.16,1.93,3.3,4.22,3.09,6.11a8,8,0,0,0,3.3-6.47c0-.07,0-.13,0-.2a11.83,11.83,0,0,0-.36-2.22.36.36,0,0,1,.26-.43.36.36,0,0,1,.42.26,14.24,14.24,0,0,1,.37,2.14,2.17,2.17,0,0,0,.68,0,1.22,1.22,0,0,0,.66-.33c.87-.87.13-3.09-1.62-4.84C137.27,146.5,135.31,145.72,134.28,146.25Z" transform="translate(-3.91)"/><path class="cls-60" d="M129.2,154.39l-.3.31a10.21,10.21,0,0,1-3.85,2.48l-.31.11c.23.32.43.64.63,1a11.48,11.48,0,0,0,3.25,3.54,3.64,3.64,0,0,0,2.16.49,4.37,4.37,0,0,0,.72-.06,1.79,1.79,0,0,0,1.18-1.25c.45-2-2.34-5.27-3.2-6.23C129.38,154.62,129.29,154.51,129.2,154.39Z" transform="translate(-3.91)"/><path class="cls-48" d="M128.4,154.21l.43-.44a3.89,3.89,0,0,1-.21-.51c-1.84-5.31-4.21-7.59-5.89-8.56a5.26,5.26,0,0,0-3.18-.84h0a2.67,2.67,0,0,0-2.63,2.26h0a4.22,4.22,0,0,0,.05,1.22,10.53,10.53,0,0,0,2.84,4.94c.32.37,1.61,1.56,2.56,2.43.61.57,1.1,1,1.26,1.18s.5.54.71.8l.52-.18A9.48,9.48,0,0,0,128.4,154.21Z" transform="translate(-3.91)"/><path d="M134,145.73a1.4,1.4,0,0,0-.28.17l-.15.14a1.94,1.94,0,0,0-.53,1.26,4.89,4.89,0,0,0-.54,0,8.71,8.71,0,0,0-8.56-7.2,8.59,8.59,0,0,0-5.25,1.77,7,7,0,0,0-.68.6.46.46,0,0,0-.07.07l0,0a6,6,0,0,0-1.74,3.48h0a5,5,0,0,0,0,1.43,11.15,11.15,0,0,0,3,5.28c.35.4,1.61,1.55,2.61,2.48.59.54,1.1,1,1.24,1.15a11.88,11.88,0,0,1,.8.93l0,0c.33.43.59.84.86,1.26a12.19,12.19,0,0,0,3.42,3.73,4.28,4.28,0,0,0,2.58.62,6.4,6.4,0,0,0,.88-.06h0a5.58,5.58,0,0,0,3.16-1.64l0-.06a8.72,8.72,0,0,0,4.25-7.33l.3,0a2.44,2.44,0,0,0,.48,0,1.8,1.8,0,0,0,1-.49c1.14-1.14.42-3.63-1.63-5.68C137.48,145.88,135.27,145.07,134,145.73ZM123.59,155.9c-.16-.16-.65-.61-1.26-1.18-1-.87-2.24-2.06-2.56-2.43a10.53,10.53,0,0,1-2.84-4.94,4.22,4.22,0,0,1-.05-1.22h0a2.67,2.67,0,0,1,2.63-2.26h0a5.26,5.26,0,0,1,3.18.84c1.68,1,4,3.25,5.89,8.56a3.89,3.89,0,0,0,.21.51l-.43.44a9.48,9.48,0,0,1-3.58,2.31l-.52.18C124.09,156.44,123.86,156.18,123.59,155.9Zm9.09,5.06a1.79,1.79,0,0,1-1.18,1.25,4.37,4.37,0,0,1-.72.06,3.64,3.64,0,0,1-2.16-.49,11.48,11.48,0,0,1-3.25-3.54c-.2-.31-.4-.63-.63-1l.31-.11a10.21,10.21,0,0,0,3.85-2.48l.3-.31c.09.12.18.23.28.34C130.34,155.69,133.13,159,132.68,161Zm1.61-.14a5.11,5.11,0,0,1-1.13.84,2.06,2.06,0,0,0,.2-.54c.49-2.16-1.89-5.23-3.36-6.86a3.52,3.52,0,0,1-.72-1.22c-1.54-4.47-3.64-7.49-6.25-9a6,6,0,0,0-3.57-.9,3.65,3.65,0,0,0-1.47.37,5.35,5.35,0,0,1,.47-.54,3.78,3.78,0,0,1,1.05-.55c2.72-.87,5.73,1.36,7.63,3.74a9.9,9.9,0,0,1,1.32,2.18c.18.39.51,1.38,1,2.86a7.46,7.46,0,0,0,2.17,3.39C133.89,156.65,134.94,159.08,134.29,160.82Zm6.18-7.9a1.22,1.22,0,0,1-.66.33,2.17,2.17,0,0,1-.68,0,14.24,14.24,0,0,0-.37-2.14.36.36,0,0,0-.42-.26.36.36,0,0,0-.26.43,11.83,11.83,0,0,1,.36,2.22c0,.07,0,.13,0,.2a8,8,0,0,1-3.3,6.47c.21-1.89-.93-4.18-3.09-6.11a6.65,6.65,0,0,1-2-3.07c-.46-1.52-.8-2.51-1-2.94a10.64,10.64,0,0,0-1.41-2.33c-1.79-2.23-4.5-4.33-7.2-4.18a8,8,0,0,1,10.8,4.05,7.58,7.58,0,0,1,.57,2.06,6.83,6.83,0,0,1,.06.8c0,.1,0,.2,0,.31s0,1-.07,1.56a.35.35,0,0,0,.32.37.35.35,0,0,0,.37-.33c0-.23.09-1.4.07-1.64s0-.2,0-.3,0-.31,0-.48a4,4,0,0,1,2.31.78.35.35,0,0,0,.21.07.33.33,0,0,0,.28-.15.34.34,0,0,0-.08-.48,4.64,4.64,0,0,0-1.67-.78,1.41,1.41,0,0,1,.36-1l.1-.08a1.88,1.88,0,0,1,.18-.12c1-.53,3,.25,4.57,1.83C140.6,149.83,141.34,152.05,140.47,152.92Z" transform="translate(-3.91)"/><path class="cls-61" d="M160.68,135.43l.67.48a2.49,2.49,0,0,1,1,1.65l4.32,29.19c1.29.68,2.5.78,3.54-.34L165.29,137a4.79,4.79,0,0,0-1-2.24l-1.07-1.34Z" transform="translate(-3.91)"/><path class="cls-52" d="M166.62,166.28l.09,4.14c1.71,1.76,3.25,1.31,4.72-.23l-1.33-4.52A2.54,2.54,0,0,1,166.62,166.28Z" transform="translate(-3.91)"/><path class="cls-62" d="M133.57,146l.92,1.8a9.41,9.41,0,0,1,1,4l.87,29.29c1.31,1.28,2.56,1.22,3.74,0L139,150.43a7.22,7.22,0,0,0-.36-2l-1.15-3.33Z" transform="translate(-3.91)"/><path class="cls-52" d="M136.31,181l-.4,4.76a3.81,3.81,0,0,0,4.74,0l-.61-4.9A2.79,2.79,0,0,1,136.31,181Z" transform="translate(-3.91)"/><path class="cls-63" d="M103.26,134.06l-.93,1.86a3.72,3.72,0,0,0-.39,1.43L100,165.57l0,.34a2.44,2.44,0,0,0,3.27,0l1.38-28a3.73,3.73,0,0,1,.18-1.05l.58-1.89Z" transform="translate(-3.91)"/><path class="cls-52" d="M99.41,169.45a3.18,3.18,0,0,0,4.36,0l-.49-4.43a2.32,2.32,0,0,1-3.27.19Z" transform="translate(-3.91)"/><path class="cls-64" d="M99.53,125.69l1.61,6.41a3.5,3.5,0,0,0,2.16,2.42L136.43,147a5.16,5.16,0,0,0,4.26-.28l22.2-11.93a3.79,3.79,0,0,0,2-3.19l.21-5.53-26.74,12.5Z" transform="translate(-3.91)"/><path class="cls-65" d="M136.18,79.87l-1.1.3-.52.15a8,8,0,0,1-9.07-3.61L119.67,67l7.38-1,6.67-.93,4.95,8.83A4.15,4.15,0,0,1,136.18,79.87Z" transform="translate(-3.91)"/><line class="cls-65" x1="123.13" y1="65.95" x2="131.17" y2="80.17"/><ellipse class="cls-65" cx="133.91" cy="71.35" rx="1.32" ry="1.79" transform="translate(33.57 188.51) rotate(-78.59)"/><path class="cls-49" d="M163.14,118.62l-29.65,2.9c-1.32-18.44-5.82-23.35-5.82-23.35,2.4-11.9-13.43-18.09-13.43-18.09l-7.51-11.3L119.67,67l5.82,9.73a8,8,0,0,0,9.07,3.61l.52-.15,1.1-.3a4.15,4.15,0,0,0,2.49-6L133.72,65l11.45-1.6,6.34,10.47s-3.32,11.85,7.4,21.4C158.91,95.29,163.1,108.65,163.14,118.62Z" transform="translate(-3.91)"/><path class="cls-66" d="M169.06,115.31l-5.92,3.31c0-10-4.23-23.33-4.23-23.33l5.61-3.06C167.66,99.45,169.06,115.31,169.06,115.31Z" transform="translate(-3.91)"/><path class="cls-67" d="M164.52,92.23l-5.61,3.06c-10.72-9.55-7.4-21.4-7.4-21.4s3.68-3.72,6.05-4.79C154.44,84.55,164.52,92.23,164.52,92.23Z" transform="translate(-3.91)"/><path class="cls-68" d="M157.56,69.1c-2.37,1.07-6.05,4.79-6.05,4.79l-6.34-10.47L133.72,65l-6.67.93-7.38,1-12.94,1.8,6.78-5,36.87-5.9Z" transform="translate(-3.91)"/><line class="cls-69" x1="141.25" y1="63.42" x2="146.46" y2="57.91"/><path class="cls-70" d="M139.29,81.68s2.68,2.88,8.28,2.17" transform="translate(-3.91)"/><path class="cls-70" d="M131.18,84.9s.43,4.63-5.26,5.63" transform="translate(-3.91)"/><path class="cls-69" d="M106.73,68.78l7.51,11.3s15.83,6.19,13.43,18.09c0,0,4.5,4.91,5.81,23.35l29.66-2.9,5.92-3.31s-1.4-15.86-4.53-23.08c0,0-10.09-7.68-7-23.13l-7.18-11.19-36.87,5.9Z" transform="translate(-3.91)"/><path class="cls-69" d="M133.72,65l11.45-1.6,6.34,10.47s-3.32,11.85,7.4,21.4c0,0,4.19,13.36,4.23,23.33" transform="translate(-3.91)"/><line class="cls-69" x1="115.76" y1="66.98" x2="102.82" y2="68.78"/><path class="cls-69" d="M151.51,73.89s3.68-3.72,6.05-4.79" transform="translate(-3.91)"/><line class="cls-69" x1="155" y1="95.29" x2="160.61" y2="92.23"/><path class="cls-71" d="M135.08,80.17l-.52.15a8,8,0,0,1-9.07-3.61L119.67,67l7.38-1Z" transform="translate(-3.91)"/><path class="cls-71" d="M138.67,73.85,133.72,65l-6.67.93,8,14.22,1.1-.3A4.15,4.15,0,0,0,138.67,73.85Zm-3-2.14a1.61,1.61,0,0,1-2,.94c-1-.2-1.64-.94-1.5-1.65a1.62,1.62,0,0,1,2-.94C135.15,70.25,135.82,71,135.67,71.71Z" transform="translate(-3.91)"/><line class="cls-69" x1="123.13" y1="65.95" x2="123.13" y2="65.95"/><path class="cls-72" d="M135.67,71.71a1.61,1.61,0,0,1-2,.94c-1-.2-1.64-.94-1.5-1.65a1.62,1.62,0,0,1,2-.94C135.15,70.25,135.82,71,135.67,71.71Z" transform="translate(-3.91)"/><path class="cls-73" d="M96.42,121.49v1.37A2.41,2.41,0,0,0,98,125.11l38.36,14.35a5.16,5.16,0,0,0,4.26-.29l24.85-13.28a2.33,2.33,0,0,0,1.22-2.32l-.1-1L138.44,137Z" transform="translate(-3.91)"/><path class="cls-74" d="M166.57,122.47l-25.45,13.7a7.12,7.12,0,0,1-6,.36L97,121.57a.89.89,0,0,1,0-1.63l25.88-11.67a5.06,5.06,0,0,1,3.69-.18l40,13.42A.53.53,0,0,1,166.57,122.47Z" transform="translate(-3.91)"/><polygon class="cls-75" points="101.48 122.24 124.19 130.66 143.68 118.5 122.58 110.49 101.48 122.24"/><path class="cls-49" d="M145.41,124.77h-.27a2.81,2.81,0,0,1-.42-5.53c7.62-1.93,12.43-5.77,14.29-11.4a16.63,16.63,0,0,0,.61-7.8,2.82,2.82,0,0,1,.38-2.12,2.78,2.78,0,0,1,1.77-1.23,2.48,2.48,0,0,1,.61-.07,2.83,2.83,0,0,1,2.74,2.21,22.14,22.14,0,0,1-.76,10.78c-1.72,5.21-6.29,12.05-18.26,15.08A2.72,2.72,0,0,1,145.41,124.77Z" transform="translate(-3.91)"/><path d="M162.38,96.86a2.57,2.57,0,0,1,2.5,2,22,22,0,0,1-.76,10.65c-1.7,5.15-6.22,11.92-18.08,14.92a2.79,2.79,0,0,1-.63.08h-.24a2.56,2.56,0,0,1-.39-5c7.71-2,12.58-5.84,14.47-11.56a16.94,16.94,0,0,0,.62-7.93,2.56,2.56,0,0,1,1.95-3.06,2.67,2.67,0,0,1,.56-.06m0-.5h0a3,3,0,0,0-.67.07,3.08,3.08,0,0,0-2.33,3.66,16.39,16.39,0,0,1-.61,7.67c-1.83,5.54-6.58,9.32-14.11,11.22a3.05,3.05,0,0,0-1.89,1.4,3.11,3.11,0,0,0-.33,2.33,3.07,3.07,0,0,0,2.68,2.3h.29a3.2,3.2,0,0,0,.75-.09c12.08-3.06,16.69-10,18.43-15.25a22.58,22.58,0,0,0,.78-10.92,3.09,3.09,0,0,0-3-2.4Z" transform="translate(-3.91)"/><g class="cls-76"><path class="cls-49" d="M118.66,115.76h-.26a2.81,2.81,0,0,1-2.46-2.11,2.82,2.82,0,0,1,2-3.42c7.62-1.93,12.43-5.76,14.29-11.39a16.51,16.51,0,0,0,.61-7.81,2.83,2.83,0,0,1,.38-2.12A2.78,2.78,0,0,1,135,87.67a2.48,2.48,0,0,1,.61-.07,2.83,2.83,0,0,1,2.74,2.21,22,22,0,0,1-.76,10.78c-1.72,5.21-6.29,12.06-18.26,15.09A3.27,3.27,0,0,1,118.66,115.76Z" transform="translate(-3.91)"/><path d="M135.64,87.85a2.58,2.58,0,0,1,2.5,2,22.08,22.08,0,0,1-.76,10.66c-1.7,5.14-6.22,11.91-18.08,14.91a2.32,2.32,0,0,1-.63.08h-.24a2.56,2.56,0,0,1-.39-5c7.71-1.95,12.58-5.84,14.47-11.55a17,17,0,0,0,.62-7.94,2.57,2.57,0,0,1,2-3.06,2.67,2.67,0,0,1,.56-.06m0-.5a3.71,3.71,0,0,0-.67.07,3.08,3.08,0,0,0-2.33,3.66,16.39,16.39,0,0,1-.61,7.67c-1.83,5.54-6.58,9.32-14.11,11.23a3.06,3.06,0,0,0,.46,6h.29a3.2,3.2,0,0,0,.75-.09c12.08-3.06,16.69-10,18.43-15.25a22.53,22.53,0,0,0,.78-10.91,3.09,3.09,0,0,0-3-2.41Z" transform="translate(-3.91)"/></g><path class="cls-77" d="M148.07,123.25a5.66,5.66,0,0,0-2.32-3.91,3.71,3.71,0,0,0-1.88-.76,1.82,1.82,0,0,0-1.8.65,1.63,1.63,0,0,0-.28.59,7.18,7.18,0,0,0-3.6.17c-.44-.13-3.13-.9-4.29.47a2.38,2.38,0,0,0-.33,2.5,6.48,6.48,0,0,0-2.81,3.52,2.73,2.73,0,0,0,0,1.81,1.57,1.57,0,0,0,1.29,1.17,2.12,2.12,0,0,0,1.06,2.15c.54.3,1.37.41,2.24-.7h0a16.43,16.43,0,0,1,2.26-2.65,4.51,4.51,0,0,0-1.1,3.54,2.24,2.24,0,0,0,.61,1.26,1.35,1.35,0,0,0,1,.46,1.39,1.39,0,0,0,.77-.26,2,2,0,0,0,.75-.93,12.45,12.45,0,0,1,1.59-2.83,4.26,4.26,0,0,0,4.77-3,1,1,0,0,0,.05-.21h.2a1.63,1.63,0,0,0,1.41-1A3.58,3.58,0,0,0,148.07,123.25Zm-.71,1.82c-.32.6-.73.87-1.21.82a4.94,4.94,0,0,0-.13-2.54.18.18,0,0,0-.34.14,5.51,5.51,0,0,1,0,2.88,3.88,3.88,0,0,1-4.45,2.74.21.21,0,0,0-.17,0,11.69,11.69,0,0,0-1.72,3,1.78,1.78,0,0,1-.61.76.91.91,0,0,1-1.29-.15,2,2,0,0,1-.5-1.06c-.39-2.5,2-4.28,2.71-4.77a.22.22,0,0,0,.07-.28.21.21,0,0,0-.27-.1c-2.19.91-4.21,3.9-4.35,4.1q-.85,1.09-1.77.6a1.74,1.74,0,0,1-.86-1.8c.36-2.87,5.23-5.15,5.28-5.17a.2.2,0,0,0,.09-.25.18.18,0,0,0-.25-.09c-.2.09-4.75,2.22-5.43,5.12-.56-.06-.81-.42-1-.93a2.41,2.41,0,0,1,0-1.57,6.05,6.05,0,0,1,2.66-3.32h.06l.09,0a.23.23,0,0,0,.1-.14,11.39,11.39,0,0,1,4.14-1.38.19.19,0,0,0,.17-.2.19.19,0,0,0-.21-.17,11.64,11.64,0,0,0-4.24,1.4,2,2,0,0,1,.29-2.06c1.08-1.27,3.92-.35,3.94-.34h.12a6.59,6.59,0,0,1,3.59-.15l.08,0h0a4.62,4.62,0,0,1,2.12,1.21.18.18,0,1,0,.28-.24,4.85,4.85,0,0,0-2.18-1.3,1.38,1.38,0,0,1,1.68-1,3.44,3.44,0,0,1,1.7.69,5.23,5.23,0,0,1,2.16,3.65A3.13,3.13,0,0,1,147.36,125.07Z" transform="translate(-3.91)"/><path class="cls-3" d="M147.36,125.07c-.32.6-.73.87-1.21.82a4.94,4.94,0,0,0-.13-2.54.18.18,0,0,0-.34.14,5.51,5.51,0,0,1,0,2.88,3.88,3.88,0,0,1-4.45,2.74.21.21,0,0,0-.17,0,11.69,11.69,0,0,0-1.72,3,1.78,1.78,0,0,1-.61.76.91.91,0,0,1-1.29-.15,2,2,0,0,1-.5-1.06c-.39-2.5,2-4.28,2.71-4.77a.22.22,0,0,0,.07-.28.21.21,0,0,0-.27-.1c-2.19.91-4.21,3.9-4.35,4.1q-.85,1.09-1.77.6a1.74,1.74,0,0,1-.86-1.8c.36-2.87,5.23-5.15,5.28-5.17a.2.2,0,0,0,.09-.25.18.18,0,0,0-.25-.09c-.2.09-4.75,2.22-5.43,5.12-.56-.06-.81-.42-1-.93a2.41,2.41,0,0,1,0-1.57,6.05,6.05,0,0,1,2.66-3.32h.06l.09,0a.23.23,0,0,0,.1-.14,11.39,11.39,0,0,1,4.14-1.38.19.19,0,0,0,.17-.2.19.19,0,0,0-.21-.17,11.64,11.64,0,0,0-4.24,1.4,2,2,0,0,1,.29-2.06c1.08-1.27,3.92-.35,3.94-.34h.12a6.59,6.59,0,0,1,3.59-.15l.08,0h0a4.62,4.62,0,0,1,2.12,1.21.18.18,0,1,0,.28-.24,4.85,4.85,0,0,0-2.18-1.3,1.38,1.38,0,0,1,1.68-1,3.44,3.44,0,0,1,1.7.69,5.23,5.23,0,0,1,2.16,3.65A3.13,3.13,0,0,1,147.36,125.07Z" transform="translate(-3.91)"/><path class="cls-78" d="M112.6,119.86s6.2,1.51,5.74-5.51" transform="translate(-3.91)"/><path class="cls-78" d="M108.94,111.25s2.48.64,3.14,2.28a1.84,1.84,0,0,1-.5,2.1c-.57.47-1.57.7-3.24-.65,0,0-3.53-3-.12-5.24a5.32,5.32,0,0,1,1.71-.74c1.92-.46,6.8-1.14,8.21,3.29" transform="translate(-3.91)"/><path class="cls-3" d="M119.72,116.14a2.23,2.23,0,0,1-.94,1,1,1,0,0,1-.56.17,8,8,0,0,0,.31-3,.19.19,0,1,0-.38,0c.14,2.13-.33,3.66-1.39,4.55a5.12,5.12,0,0,1-4,.8,1.88,1.88,0,0,0-.09-.57,1.59,1.59,0,0,0-.57-.83,1.47,1.47,0,0,0,.49-.82,3,3,0,0,0-.48-2.23,2.06,2.06,0,0,0,.11-1.8c-.68-1.71-3.16-2.37-3.26-2.4a.2.2,0,0,0-.23.14.19.19,0,0,0,.13.23s2.4.64,3,2.17a1.66,1.66,0,0,1-.14,1.55v0a1.75,1.75,0,0,1-.29.32c-.71.59-1.75.36-3-.65,0,0-1.62-1.38-1.54-2.9a2.74,2.74,0,0,1,1.4-2,5.32,5.32,0,0,1,1.65-.71c2-.46,6.63-1.09,8,3.17a.18.18,0,0,0,.23.12.18.18,0,0,0,.12-.23,5.22,5.22,0,0,0-1.65-2.54,2,2,0,0,1,2.26.85h0S121,113.32,119.72,116.14Z" transform="translate(-3.91)"/><path class="cls-78" d="M116.26,109.64a2.31,2.31,0,0,1,2.83.81s2.16,2.8.8,5.77a2.54,2.54,0,0,1-1,1.13,1.08,1.08,0,0,1-.9.14" transform="translate(-3.91)"/><path class="cls-79" d="M113.05,104.21v.05l2.67,16.27-3.88.63-2.68-16.31a.28.28,0,0,1,.19-.34,5.39,5.39,0,0,1,3.42-.56C112.9,103.93,113,104.05,113.05,104.21Z" transform="translate(-3.91)"/><rect class="cls-80" x="109.58" y="106.32" width="3.94" height="1.8" transform="translate(-19.78 19.45) rotate(-9.31)"/><rect class="cls-80" x="111.5" y="118.05" width="3.94" height="1.8" transform="translate(-21.66 19.91) rotate(-9.31)"/><path class="cls-81" d="M114.68,124.73l1-4.12s0-.08,0-.07l-3.75.61s0,0,0,.09l2.29,3.57Z" transform="translate(-3.91)"/><path class="cls-78" d="M108.94,111.25s2.48.64,3.14,2.28a1.84,1.84,0,0,1-.5,2.1c-.57.47-1.57.7-3.24-.65a4.75,4.75,0,0,1-1.6-2.76" transform="translate(-3.91)"/><path class="cls-3" d="M116.14,115.65a1.7,1.7,0,0,1-2.44-.13c-1.5-2.17.2-4.17.79-4.76l1.22,1.56a.19.19,0,0,0,.15.08l.07,0,.22-.08a3.18,3.18,0,0,1,.47,1.41A2.28,2.28,0,0,1,116.14,115.65Z" transform="translate(-3.91)"/><path class="cls-3" d="M111.46,115.49c-.71.59-1.75.36-3-.65a5.1,5.1,0,0,1-1.45-2.17l2-1.2c.53.16,2.34.82,2.86,2.13A1.63,1.63,0,0,1,111.46,115.49Z" transform="translate(-3.91)"/><path class="cls-78" d="M114.56,110.45s-2.89,2.47-1,5.19a1.9,1.9,0,0,0,2.71.15,2.4,2.4,0,0,0,.54-2.1,3.13,3.13,0,0,0-.63-1.68" transform="translate(-3.91)"/><path class="cls-3" d="M112.21,120.45c-.73,1.11-2.65.38-2.87.3a3.07,3.07,0,0,1-1.75-3.54,4.6,4.6,0,0,0,3,1.53,2.77,2.77,0,0,0,1.1-.22,1.09,1.09,0,0,1,.61.74A1.41,1.41,0,0,1,112.21,120.45Z" transform="translate(-3.91)"/><path class="cls-3" d="M112.25,117.41a.94.94,0,0,1-.43.65c-2,1.09-4-1.11-4-1.13a3,3,0,0,1-.58-2.88,6,6,0,0,0,1,1.08,3.89,3.89,0,0,0,2.34,1.06,1.78,1.78,0,0,0,1.14-.41l.2-.19A2.5,2.5,0,0,1,112.25,117.41Z" transform="translate(-3.91)"/><path class="cls-78" d="M107.21,113.62a3.33,3.33,0,0,0,.49,3.44s2,2.34,4.21,1.17c.66-.35.88-1.71,0-3" transform="translate(-3.91)"/><path class="cls-78" d="M107.49,116.79s-.85,3.09,1.78,4.13c.7.28,2.38.72,3.09-.37a1.61,1.61,0,0,0,.17-1.35,1.31,1.31,0,0,0-.77-.88" transform="translate(-3.91)"/><path class="cls-3" d="M135.68,101c-2.31.88-5.17-.89-6.59-4a15.63,15.63,0,0,0,2.78-.88,13.6,13.6,0,0,0,5.33-3.83l.12-.16c.15.3.28.61.41.93C139,96.52,138.12,100.08,135.68,101Z" transform="translate(-3.91)"/><path class="cls-82" d="M137.3,92.12l-.13.17a13.3,13.3,0,0,1-5.32,3.82,14.54,14.54,0,0,1-2.77.88c-.08-.17-.15-.35-.22-.53a8.23,8.23,0,0,1-.38-4.91,4.18,4.18,0,0,1,2.43-3,3.65,3.65,0,0,1,2-.14A6.77,6.77,0,0,1,137.3,92.12Z" transform="translate(-3.91)"/><path class="cls-3" d="M149.69,94.11a4.3,4.3,0,0,1-6.8,2.6,8.08,8.08,0,0,1-3.15-4,8.76,8.76,0,0,1-.46-1.68l.12,0a9.34,9.34,0,0,0,1.36.38,14.79,14.79,0,0,0,5.19,0,15.11,15.11,0,0,0,3.81-1.15A7.73,7.73,0,0,1,149.69,94.11Z" transform="translate(-3.91)"/><path class="cls-82" d="M149.75,90.28a14.91,14.91,0,0,1-3.8,1.15,13.41,13.41,0,0,1-6.54-.39l-.14-.06c-.5-3,.61-5.69,2.83-6.54a4.16,4.16,0,0,1,2.29-.17,7.33,7.33,0,0,1,5,4.76A9.44,9.44,0,0,1,149.75,90.28Z" transform="translate(-3.91)"/><ellipse class="cls-83" cx="144.55" cy="90.87" rx="5.17" ry="6.89" transform="translate(-26.81 57.52) rotate(-20.89)"/><path class="cls-83" d="M129.09,97s5.64-1.19,8.23-4.87" transform="translate(-3.91)"/><path class="cls-83" d="M139.28,91s4.46,1.82,10.48-.71" transform="translate(-3.91)"/><ellipse class="cls-84" cx="144.47" cy="95.01" rx="2.35" ry="2.5" transform="translate(18.85 217.84) rotate(-78.59)"/><circle class="cls-3" cx="141.41" cy="93.91" r="0.76"/><ellipse class="cls-84" cx="134.04" cy="98.89" rx="2.35" ry="2.5" transform="translate(6.68 210.73) rotate(-78.59)"/><circle class="cls-3" cx="130.98" cy="97.78" r="0.76"/><ellipse class="cls-83" cx="133.29" cy="94.77" rx="4.76" ry="6.69" transform="translate(-28.95 53.76) rotate(-20.89)"/><path class="cls-85" d="M140.11,107.76a1.18,1.18,0,0,1-1.1-.15,1.16,1.16,0,0,1-.25-1.62,9.42,9.42,0,0,1,9.59-3.66,1.17,1.17,0,0,1,.89,1.38,1.15,1.15,0,0,1-1.38.89,7.12,7.12,0,0,0-7.22,2.76A1.15,1.15,0,0,1,140.11,107.76Z" transform="translate(-3.91)"/><path class="cls-86" d="M148.24,103.83a.41.41,0,0,1-.22,0,7.9,7.9,0,0,0-8,3.06.39.39,0,0,1-.54.09.4.4,0,0,1-.09-.55,8.68,8.68,0,0,1,8.8-3.36.39.39,0,0,1,.3.46A.4.4,0,0,1,148.24,103.83Z" transform="translate(-3.91)"/></g></g></svg>