<svg xmlns="http://www.w3.org/2000/svg" xmlns:xlink="http://www.w3.org/1999/xlink" viewBox="0 0 210.43 231.32"><defs><style>.cls-1{fill:#747e7f;}.cls-2{fill:#9ba7a7;}.cls-3{fill:#996e43;stroke-width:0.78px;}.cls-10,.cls-11,.cls-12,.cls-13,.cls-14,.cls-15,.cls-16,.cls-17,.cls-18,.cls-19,.cls-20,.cls-21,.cls-22,.cls-23,.cls-24,.cls-25,.cls-26,.cls-28,.cls-29,.cls-3,.cls-30,.cls-31,.cls-32,.cls-33,.cls-35,.cls-36,.cls-37,.cls-38,.cls-39,.cls-4,.cls-40,.cls-5,.cls-7,.cls-8,.cls-9{stroke:#000;}.cls-33,.cls-4,.cls-40{fill:none;}.cls-4{stroke-width:1.02px;}.cls-5{fill:#fff;stroke-width:0.75px;}.cls-10,.cls-11,.cls-12,.cls-13,.cls-14,.cls-15,.cls-16,.cls-17,.cls-18,.cls-19,.cls-20,.cls-21,.cls-22,.cls-23,.cls-24,.cls-25,.cls-26,.cls-28,.cls-29,.cls-30,.cls-31,.cls-32,.cls-33,.cls-35,.cls-36,.cls-37,.cls-38,.cls-39,.cls-40,.cls-5,.cls-7,.cls-8,.cls-9{stroke-miterlimit:10;}.cls-6{fill:url(#Degradado_sin_nombre_2);}.cls-7{stroke-width:0.55px;}.cls-8{fill:#ffd396;stroke-width:0.2px;}.cls-9{stroke-width:0.18px;}.cls-10{fill:#fbca2c;}.cls-10,.cls-11,.cls-12,.cls-13{stroke-width:0.19px;}.cls-11{fill:#f4b21c;}.cls-12{fill:#cac3b9;}.cls-13{fill:#fc5465;}.cls-14{fill:#f9d34e;}.cls-14,.cls-15,.cls-16,.cls-17{stroke-width:0.39px;}.cls-15{fill:#716cc8;}.cls-16{fill:#9b5cc5;}.cls-17,.cls-37,.cls-38,.cls-39{fill:#b3b3b3;}.cls-18{fill:#2e5129;}.cls-18,.cls-19,.cls-20,.cls-21,.cls-22,.cls-23,.cls-24,.cls-25,.cls-26{stroke-width:0.4px;}.cls-19{fill:#142c14;}.cls-20{fill:#b24701;}.cls-21{fill:#7f3301;}.cls-22{fill:#2c3b91;}.cls-23{fill:#000e5e;}.cls-24{fill:#00005e;}.cls-25{fill:#5d224e;}.cls-26{fill:#44093f;}.cls-27{fill:#4d4d4d;opacity:0.25;}.cls-28{fill:#38a05b;stroke-width:0.29px;}.cls-29{fill:#e6e6e6;}.cls-29,.cls-30{stroke-width:0.14px;}.cls-30{fill:#ccc;}.cls-31,.cls-32{fill:#223663;}.cls-31{stroke-width:0.11px;}.cls-32{stroke-width:0.11px;}.cls-33,.cls-35,.cls-36{stroke-width:0.19px;}.cls-34{fill:#8c135e;}.cls-35{fill:#a85e88;}.cls-36{fill:#db2195;}.cls-37{stroke-width:0.08px;}.cls-38{stroke-width:0.05px;}.cls-39{stroke-width:0.06px;}.cls-40{stroke-width:0.11px;}</style><linearGradient id="Degradado_sin_nombre_2" x1="108.25" y1="95" x2="111.12" y2="1.19" gradientUnits="userSpaceOnUse"><stop offset="0.4" stop-color="#fff" stop-opacity="0"/><stop offset="0.6" stop-color="#fffcdc" stop-opacity="0.26"/><stop offset="0.79" stop-color="#fff9bd" stop-opacity="0.5"/><stop offset="0.93" stop-color="#fff7a9" stop-opacity="0.64"/><stop offset="1" stop-color="#fff6a2" stop-opacity="0.7"/></linearGradient></defs><title>paso1img1</title><g id="Ilustraciones"><path class="cls-1" d="M32.9,189.56a12.16,12.16,0,0,1-7.3-2.48,24.73,24.73,0,0,0-7.9,18.28v108.1c1.61,1.21,4.1,2.09,6.85-.53V208.24A19.83,19.83,0,0,1,37,189.56Z"/><path class="cls-1" d="M34.88,191.81l3.61,46.27a3.93,3.93,0,0,0,5.91-.49l-3.73-47.82A16.67,16.67,0,0,0,34.88,191.81Z"/><path class="cls-1" d="M167.62,237.51a3.83,3.83,0,0,0,5.31.34l3.7-44.78a17.22,17.22,0,0,0-5.16-2.71Z"/><path class="cls-1" d="M176.68,189.56h-4a19.83,19.83,0,0,1,12.42,18.68v104.4a4.84,4.84,0,0,0,6.85.26V205.36a24.71,24.71,0,0,0-7.92-18.3A12.15,12.15,0,0,1,176.68,189.56Z"/><path class="cls-2" d="M32.9,188.41H176.68a11.73,11.73,0,0,0,11.07-8.74l3.44-12.19H18.39l3.44,12.19A11.73,11.73,0,0,0,32.9,188.41Z"/><path d="M187.75,179.67a11.73,11.73,0,0,1-11.07,8.74H32.9a11.73,11.73,0,0,1-11.07-8.74l-3.44-12.19H17.25L20.79,180a13.39,13.39,0,0,0,3.94,6.36,25.93,25.93,0,0,0-8.11,19V312.51a.53.53,0,0,0-.8.49v8.26a3.57,3.57,0,0,0,1,2.55c3.12,3.05,6.3,1.55,8.1.18a3.59,3.59,0,0,0,1.39-3.07l-.46-8.05a.6.6,0,0,0-.25-.44V208.24a19,19,0,0,1,8.2-15.77l3.52,45.13a.53.53,0,0,0-.18.39l-.25,8.18a4.43,4.43,0,0,0,1,3c3.36,3.9,6.64,1.61,8.33-.29a4.42,4.42,0,0,0,.9-3.76l-1.51-7.78a.5.5,0,0,0-.17-.3l-3.7-47.41a14.76,14.76,0,0,1,1.5-.08H166.38a16.7,16.7,0,0,1,4,.5l-3.79,46.44a.5.5,0,0,0-.55.41l-1.5,7.79a4.41,4.41,0,0,0,.9,3.75c1.68,1.9,5,4.19,8.33.3a4.53,4.53,0,0,0,1-3l-.25-8.18a.52.52,0,0,0-.42-.5l3.56-43.14A19.09,19.09,0,0,1,184,208.24V311.92a.56.56,0,0,0-.41.51l-.46,8.05a3.62,3.62,0,0,0,1.39,3.08c1.79,1.36,5,2.86,8.1-.18a3.59,3.59,0,0,0,1-2.56v-8.26A.54.54,0,0,0,193,312V205.36a25.89,25.89,0,0,0-8.14-19,13.42,13.42,0,0,0,3.92-6.34l3.54-12.52h-1.14ZM24.55,208.24V312.93c-2.75,2.62-5.24,1.74-6.85.53V205.36a24.73,24.73,0,0,1,7.9-18.28,12.16,12.16,0,0,0,7.3,2.48H37A19.83,19.83,0,0,0,24.55,208.24ZM44.4,237.59a3.93,3.93,0,0,1-5.91.49l-3.61-46.27a16.67,16.67,0,0,1,5.79-2Zm128.53.26a3.83,3.83,0,0,1-5.31-.34l3.85-47.15a17.22,17.22,0,0,1,5.16,2.71Zm19-32.49V312.9a4.84,4.84,0,0,1-6.85-.26V208.24a19.83,19.83,0,0,0-12.42-18.68h4a12.15,12.15,0,0,0,7.32-2.5A24.71,24.71,0,0,1,191.92,205.36Z"/><path class="cls-3" d="M199.78,167H9.8c-4.56,0-6.43-6.2-2.72-9l42.76-32.33h109.9L202.5,158C206.21,160.79,204.34,167,199.78,167Z"/><line class="cls-4" x1="6.07" y1="159.13" x2="203.68" y2="159.13"/><polygon class="cls-5" points="54.45 152.85 102.85 152.85 109.25 123.14 73.91 122.88 54.45 152.85"/><polygon class="cls-5" points="52.43 154.22 100.83 154.22 107.24 124.52 71.9 124.26 52.43 154.22"/><polygon class="cls-5" points="51.05 151.44 99.45 151.44 105.85 121.73 70.51 121.47 51.05 151.44"/><polygon class="cls-6" points="200.43 94.89 16.07 94.89 51.09 1.08 162.44 1.08 200.43 94.89"/><ellipse class="cls-7" cx="144.92" cy="118.51" rx="11.18" ry="3.92"/><path class="cls-8" d="M138.7,126c-1.16-1.83-2.91-4.24-2.91-4.24l2.59-1.16,2.88.46s-.5,2.67-.78,4.71Z"/><path class="cls-9" d="M140.32,126.92c-.15,1-.75.43-.95.11l-.67-1,1.78-.23C140.42,126.22,140.37,126.62,140.32,126.92Z"/><path class="cls-10" d="M129.63,87.17a1.07,1.07,0,0,0-1.14-.82h0a.84.84,0,0,0-.71,1.05l7.89,34a1.07,1.07,0,0,0,1.14.82h0a.84.84,0,0,0,.72-1Z"/><path class="cls-11" d="M131.49,86.94a1.07,1.07,0,0,0-1.14-.82h0a.84.84,0,0,0-.72,1l7.9,34a1.07,1.07,0,0,0,1.14.82h0a.84.84,0,0,0,.71-1Z"/><path class="cls-10" d="M133.34,86.71a1.07,1.07,0,0,0-1.14-.82h0a.83.83,0,0,0-.71,1l7.89,34a1.07,1.07,0,0,0,1.14.82h0a.84.84,0,0,0,.71-1Z"/><polygon class="cls-12" points="133.48 87.31 127.92 88 127.54 86.34 133.09 85.65 133.48 87.31"/><path class="cls-13" d="M133.1,85.65l-5.56.69-.4-1.72h0s0-.05,0-.08a2.32,2.32,0,0,1,2.24-2.69,3,3,0,0,1,3.32,2s0,.05,0,.08h0Z"/><path class="cls-14" d="M154.85,98.65l-8.16,30.56a1,1,0,0,1-1.16.66,4.11,4.11,0,0,1-2.46-2.13,4.24,4.24,0,0,1-.49-2.83l4.15-24.26c1.42-.08,3.17-1.36,5.14-3.45Z"/><path class="cls-15" d="M154.64,71.71a10.13,10.13,0,0,0-2.86,8.21,10.28,10.28,0,0,1,0,1.11l-.63,15.34a1.28,1.28,0,0,0,.45,1,5.88,5.88,0,0,0,2.86,1.24,1.34,1.34,0,0,0,1.52-.87,23.32,23.32,0,0,1,1.85-4,2.52,2.52,0,0,1,.94-.92l3.76-2.13a8.31,8.31,0,0,0,2.56-2.23,13.76,13.76,0,0,0,2.48-6.33,12.81,12.81,0,0,0,.19-2,11.88,11.88,0,0,0-2.53-7.75,7.32,7.32,0,0,0-3.78-2.48A6.69,6.69,0,0,0,154.64,71.71Zm3.16,1a4.21,4.21,0,0,1,1.81-.49,4.05,4.05,0,0,1,2.75,1c1.76,1.48,2.56,3.76,2.75,6.56a9.37,9.37,0,0,1-.23,2.69,10.07,10.07,0,0,1-3.4,5.64,6.27,6.27,0,0,1-1.68,1,3.72,3.72,0,0,1-3,.18l-.2-.1a3.89,3.89,0,0,1-2.11-3.47V81.8a7.45,7.45,0,0,1,.17-1.56l1.05-4.82A4,4,0,0,1,157.8,72.69Z"/><path class="cls-14" d="M148.85,98.37l1,1.8,2.86,2.61a1.26,1.26,0,0,1,.4,1.11l-3,21a6.72,6.72,0,0,1-1.89,3.81,3.47,3.47,0,0,1-3.26,1.16.9.9,0,0,1-.72-1l1.85-29.43Z"/><path class="cls-16" d="M134,89.3a8.34,8.34,0,0,0,5.4,5.8,9.21,9.21,0,0,1,2.37,1.18l.86.6a2.74,2.74,0,0,1,.88,1l.91,1.83a1.54,1.54,0,0,0,1.65.85,6,6,0,0,0,3.2-1.68,1.7,1.7,0,0,0,.46-1.66L149,94.66a4.26,4.26,0,0,1-.13-1.28L149,91.8a8.33,8.33,0,1,0-15-2.5ZM147.62,86a5.59,5.59,0,1,1-6.81-4A5.59,5.59,0,0,1,147.62,86Z"/><circle class="cls-17" cx="149.33" cy="104.82" r="1.79"/><path class="cls-18" d="M142.31,125.3a.25.25,0,0,1,0-.07L133.8,102.9l5.34-2,8.5,22.39a.4.4,0,0,1-.16.53,7.86,7.86,0,0,1-4.7,1.78A.39.39,0,0,1,142.31,125.3Z"/><rect class="cls-19" x="140.73" y="119.29" width="5.7" height="2.61" transform="translate(-33.47 58.86) rotate(-20.8)"/><rect class="cls-19" x="134.61" y="103.19" width="5.7" height="2.61" transform="translate(-28.15 55.63) rotate(-20.8)"/><path class="cls-19" d="M134.08,96.64l-.27,6.14s.05.1.09.08l5.14-2a.07.07,0,0,0,0-.12l-4.28-4.42Z"/><path class="cls-20" d="M141.68,126.28a.13.13,0,0,1,0-.06V102.33h5.7v24a.4.4,0,0,1-.34.44,7.87,7.87,0,0,1-5,0A.4.4,0,0,1,141.68,126.28Z"/><rect class="cls-21" x="141.69" y="121.04" width="5.7" height="2.61"/><rect class="cls-21" x="141.69" y="103.81" width="5.7" height="2.61"/><path class="cls-21" d="M144.17,96.57l-2.43,5.65a.07.07,0,0,0,0,.11h5.5s.07-.06.05-.11l-2.43-5.65Z"/><path class="cls-22" d="M143.88,134.86v-24h5.7v24a.39.39,0,0,1-.34.43,7.84,7.84,0,0,1-5,0C144,135.3,143.88,135.11,143.88,134.86Z"/><rect class="cls-23" x="143.88" y="129.62" width="5.7" height="2.61"/><rect class="cls-23" x="143.88" y="112.39" width="5.7" height="2.61"/><path class="cls-24" d="M146.36,105.15l-2.43,5.65s0,.11,0,.11h5.5a.08.08,0,0,0,.06-.11l-2.43-5.65Z"/><path class="cls-25" d="M140.92,130.3l0-.06-11.39-21,5-2.72,11.43,21.06a.39.39,0,0,1-.1.54,7.79,7.79,0,0,1-4.41,2.4A.4.4,0,0,1,140.92,130.3Z"/><rect class="cls-26" x="138.7" y="124.17" width="5.7" height="2.61" transform="translate(-42.71 82.72) rotate(-28.49)"/><rect class="cls-26" x="130.48" y="109.03" width="5.7" height="2.61" transform="translate(-36.48 76.96) rotate(-28.49)"/><path class="cls-26" d="M128.93,103l.55,6.12c0,.06.06.1.1.07l4.84-2.62a.07.07,0,0,0,0-.12l-4.83-3.81Z"/><path class="cls-8" d="M158.52,90.68c-1.17,1.83-2.92,4.24-2.92,4.24l2.6,1.16,2.88-.45s-.51-2.68-.78-4.72Z"/><path class="cls-9" d="M160.14,89.75c-.16-1-.76-.44-1-.12l-.66,1.05,1.78.23C160.24,90.44,160.18,90,160.14,89.75Z"/><path class="cls-10" d="M149.45,129.5a1.07,1.07,0,0,1-1.14.81h0a.83.83,0,0,1-.71-1.05l7.89-34a1.07,1.07,0,0,1,1.14-.82h0a.84.84,0,0,1,.71,1Z"/><path class="cls-11" d="M151.3,129.73a1.07,1.07,0,0,1-1.14.81h0a.83.83,0,0,1-.71-1l7.89-34a1.08,1.08,0,0,1,1.14-.82h0a.84.84,0,0,1,.71,1Z"/><path class="cls-10" d="M153.15,130a1.06,1.06,0,0,1-1.14.81h0a.83.83,0,0,1-.71-1l7.89-34a1.06,1.06,0,0,1,1.14-.81h0a.83.83,0,0,1,.71,1Z"/><polygon class="cls-12" points="153.29 129.36 147.74 128.66 147.35 130.32 152.91 131.01 153.29 129.36"/><path class="cls-13" d="M152.91,131l-5.56-.69-.4,1.73h0a.19.19,0,0,0,0,.07,2.32,2.32,0,0,0,2.23,2.7,3,3,0,0,0,3.32-2s0-.06,0-.08h0Z"/><ellipse class="cls-27" cx="144.92" cy="143.7" rx="11.18" ry="3.01"/><path class="cls-28" d="M133.73,119l3.21,24.6c2.76,2,13.08,2.32,15.73,0L156.1,119C152.79,123.44,137.09,123.69,133.73,119Z"/><polygon class="cls-29" points="139.92 146.68 141.2 148.43 146.92 144.23 145.7 142.56 143.58 139.68 141.05 136.22 135.33 140.42 137.92 143.96 139.92 146.68"/><polygon class="cls-30" points="134.88 140.75 140.6 136.55 143.14 140 145.25 142.89 146.48 144.56 140.75 148.75 139.47 147 134.88 140.75"/><polygon class="cls-31" points="137.59 144.47 143.31 140.28 144.66 142.12 145.79 143.66 146.44 144.54 140.72 148.74 140.04 147.81 137.59 144.47"/><polygon class="cls-32" points="143.37 140.23 143.77 139.94 145.13 141.79 146.27 143.33 146.93 144.23 146.53 144.52 145.84 143.58 143.37 140.23"/><path class="cls-33" d="M152.9,137.77a3.92,3.92,0,0,0,0,4.26,1.55,1.55,0,0,0,.28.29v5.75h-9.53v-5.89c0-.05.08-.09.12-.15a3.92,3.92,0,0,0,0-4.26l-.1-.12v-2.92h9.53v2.78A1.6,1.6,0,0,0,152.9,137.77Z"/><path class="cls-34" d="M152.16,137.77a3.47,3.47,0,0,0-.64,2.14,3.56,3.56,0,0,0,.61,2.12,1.59,1.59,0,0,0,.29.29v5.75h-8.79v-5.89c0-.05.08-.09.12-.15a3.92,3.92,0,0,0,0-4.26l-.1-.12v-2.92h8.79v2.78A1.6,1.6,0,0,0,152.16,137.77Z"/><rect class="cls-35" x="152.42" y="142.32" width="0.74" height="5.75"/><path class="cls-34" d="M153.16,142.32h-.74c-1.21-1-1.2-3.84,0-4.81h.74C152,138.48,152,141.35,153.16,142.32Z"/><rect class="cls-35" x="152.42" y="134.73" width="0.74" height="2.78"/><path class="cls-36" d="M152.16,137.77c-.89,1-.88,3.67.26,4.55v5.75h-9.54v-5.89a3.83,3.83,0,0,0,0-4.53v-2.92h9.54v2.78A1.6,1.6,0,0,0,152.16,137.77Z"/><path class="cls-37" d="M147.84,139.39c-2.35,0-1.55-3.19-1.68-4.66h3.36C149.38,136.21,150.19,139.34,147.84,139.39Z"/><line class="cls-38" x1="147.81" y1="134.74" x2="147.81" y2="139.39"/><path class="cls-39" d="M149.07,136.72a.34.34,0,0,1-.68,0A.34.34,0,0,1,149.07,136.72Z"/><line class="cls-40" x1="152.42" y1="137.51" x2="153.16" y2="137.51"/><line class="cls-40" x1="152.42" y1="142.32" x2="153.16" y2="142.32"/></g></svg>