<?xml version="1.0" encoding="utf-8"?>
<!-- Generator: Adobe Illustrator 24.0.2, SVG Export Plug-In . SVG Version: 6.00 Build 0)  -->
<svg version="1.1" id="Layer_1" xmlns="http://www.w3.org/2000/svg" xmlns:xlink="http://www.w3.org/1999/xlink" x="0px" y="0px"
	 viewBox="0 0 168.9 186.8" style="enable-background:new 0 0 168.9 186.8;" xml:space="preserve">
<style type="text/css">
	.st0{fill:#39B54A;stroke:#009245;stroke-width:2.26;stroke-miterlimit:10;}
	.st1{fill:#FFFFFF;}
	.st2{fill:#FF0000;stroke:#ED0018;stroke-width:2.26;stroke-miterlimit:10;}
	.st3{fill:#E5E5E5;}
	.st4{fill:#BF4400;}
	.st5{fill:#003B49;}
	.st6{fill:#FFFFFF;stroke:#000000;stroke-width:0.69;stroke-miterlimit:10;}
	.st7{fill:#CCCCCC;stroke:#000000;stroke-width:0.54;stroke-miterlimit:10;}
	.st8{fill:#A4AEAF;stroke:#000000;stroke-width:0.55;stroke-miterlimit:10;}
	.st9{fill:#3D3D3D;stroke:#000000;stroke-width:0.52;stroke-miterlimit:10;}
	.st10{fill:#9CAEAE;stroke:#000000;stroke-width:0.46;stroke-miterlimit:10;}
	.st11{fill:#3D3D3D;stroke:#000000;stroke-width:0.46;stroke-miterlimit:10;}
	.st12{fill:#80644F;stroke:#000000;stroke-width:0.54;stroke-miterlimit:10;}
	.st13{fill:#B58148;stroke:#000000;stroke-width:0.54;stroke-miterlimit:10;}
	.st14{fill:#C39156;stroke:#000000;stroke-width:0.54;stroke-miterlimit:10;}
	.st15{fill:#A97746;stroke:#000000;stroke-width:0.55;stroke-miterlimit:10;}
	.st16{fill:#A27242;stroke:#000000;stroke-width:0.54;stroke-miterlimit:10;}
	.st17{fill:#00607A;}
	.st18{fill:none;stroke:#000000;stroke-width:0.89;stroke-miterlimit:10;}
	.st19{fill:#00607A;stroke:#000000;stroke-width:0.52;stroke-miterlimit:10;}
	.st20{fill:#3291B2;stroke:#000000;stroke-width:0.89;stroke-miterlimit:10;}
	.st21{fill:#B3B3B3;stroke:#000000;stroke-width:0.39;stroke-miterlimit:10;}
	.st22{fill:none;stroke:#000000;stroke-width:0.23;stroke-miterlimit:10;}
	.st23{fill:#B3B3B3;stroke:#000000;stroke-width:0.26;stroke-miterlimit:10;}
	.st24{fill:none;stroke:#000000;stroke-width:0.52;stroke-miterlimit:10;}
	.st25{fill:#9CAEAE;stroke:#000000;stroke-width:0.52;stroke-miterlimit:10;}
	.st26{fill:#A4AEAF;stroke:#000000;stroke-width:0.52;stroke-miterlimit:10;}
	.st27{fill:#9FAFAF;stroke:#000000;stroke-width:0.52;stroke-miterlimit:10;}
	.st28{fill:#9CABAE;stroke:#000000;stroke-width:0.52;stroke-miterlimit:10;}
	.st29{fill:#9E7549;stroke:#000000;stroke-width:0.52;stroke-miterlimit:10;}
	.st30{fill:#C18A51;stroke:#000000;stroke-width:0.52;stroke-miterlimit:10;}
	.st31{fill:#FFFFFF;stroke:#000000;stroke-width:0.52;stroke-miterlimit:10;}
	.st32{fill:#003B49;stroke:#000000;stroke-width:0.52;stroke-miterlimit:10;}
	.st33{fill:#FFFFFF;stroke:#000000;stroke-width:0.37;stroke-linecap:round;stroke-miterlimit:10;}
	.st34{fill:#FFFFFF;stroke:#000000;stroke-width:0.32;stroke-miterlimit:10;}
	.st35{stroke:#000000;stroke-width:4.000000e-02;stroke-miterlimit:10;}
	.st36{fill:none;stroke:#000000;stroke-width:0.69;stroke-linecap:round;stroke-miterlimit:10;}
	.st37{fill:#75C6D3;stroke:#000000;stroke-width:0.42;stroke-miterlimit:10;}
	.st38{clip-path:url(#SVGID_2_);}
	.st39{fill:#FFFFFF;stroke:#FFFFFF;stroke-width:0.38;stroke-miterlimit:10;}
	.st40{fill:#FFFFFF;stroke:#000000;stroke-width:0.34;stroke-miterlimit:10;}
	.st41{fill:#E35154;stroke:#000000;stroke-width:0.34;stroke-miterlimit:10;}
	.st42{fill:#873F4A;stroke:#000000;stroke-width:0.34;stroke-miterlimit:10;}
	.st43{fill:#873F4A;stroke:#000000;stroke-width:0.3406;stroke-miterlimit:10.017;}
	.st44{fill:#B94244;stroke:#000000;stroke-width:0.34;stroke-miterlimit:10;}
	.st45{fill:#AFAEAC;}
	.st46{fill:#3990AC;}
	.st47{fill:#CCCCCC;stroke:#000000;stroke-width:0.56;stroke-miterlimit:10;}
	.st48{fill:#A4AEAF;stroke:#000000;stroke-width:0.56;stroke-miterlimit:10;}
	.st49{fill:#3D3D3D;stroke:#000000;stroke-width:0.53;stroke-miterlimit:10;}
	.st50{fill:#9CAEAE;stroke:#000000;stroke-width:0.47;stroke-miterlimit:10;}
	.st51{fill:#3D3D3D;stroke:#000000;stroke-width:0.47;stroke-miterlimit:10;}
	.st52{fill:#80644F;stroke:#000000;stroke-width:0.56;stroke-miterlimit:10;}
	.st53{fill:#B58148;stroke:#000000;stroke-width:0.56;stroke-miterlimit:10;}
	.st54{fill:#C39156;stroke:#000000;stroke-width:0.56;stroke-miterlimit:10;}
	.st55{fill:#A97746;stroke:#000000;stroke-width:0.56;stroke-miterlimit:10;}
	.st56{fill:#A27242;stroke:#000000;stroke-width:0.55;stroke-miterlimit:10;}
	.st57{fill:#7F7F7F;}
	.st58{fill:#9CAEAE;stroke:#000000;stroke-width:0.53;stroke-miterlimit:10;}
	.st59{fill:#A4AEAF;stroke:#000000;stroke-width:0.53;stroke-miterlimit:10;}
	.st60{fill:#9FAFAF;stroke:#000000;stroke-width:0.53;stroke-miterlimit:10;}
	.st61{fill:#9CABAE;stroke:#000000;stroke-width:0.53;stroke-miterlimit:10;}
	.st62{fill:none;stroke:#56FF28;stroke-width:0.63;stroke-miterlimit:10;}
	.st63{fill:#075F73;}
	.st64{fill:#043F4F;}
	.st65{fill:#056075;}
	.st66{fill:none;stroke:#000000;stroke-width:0.63;stroke-miterlimit:10;}
	.st67{fill:none;stroke:#000000;stroke-width:0.63;stroke-linecap:round;stroke-linejoin:round;}
	.st68{fill:#999999;stroke:#000000;stroke-width:0.63;stroke-miterlimit:10;}
	.st69{fill:#999999;stroke:#000000;stroke-width:3.000000e-02;stroke-miterlimit:10;}
	.st70{fill:#9E7549;stroke:#000000;stroke-width:0.53;stroke-miterlimit:10;}
	.st71{fill:#C18A51;stroke:#000000;stroke-width:0.53;stroke-miterlimit:10;}
	.st72{fill:#FFFFFF;stroke:#000000;stroke-width:0.53;stroke-miterlimit:10;}
	.st73{clip-path:url(#SVGID_4_);}
	.st74{stroke:#000000;stroke-width:0.16;stroke-miterlimit:10;}
	.st75{fill:none;stroke:#000000;stroke-width:0.38;stroke-linecap:round;stroke-linejoin:round;}
	.st76{fill:#E35154;stroke:#000000;stroke-width:0.37;stroke-miterlimit:10;}
	.st77{fill:#873F4A;stroke:#000000;stroke-width:0.37;stroke-miterlimit:10;}
	.st78{fill:#B94244;stroke:#000000;stroke-width:0.37;stroke-miterlimit:10;}
	.st79{fill:#388CAE;}
	.st80{fill:none;stroke:#000000;stroke-width:0.36;stroke-miterlimit:10;}
	.st81{fill:#00040C;}
	.st82{fill:#75C6D3;stroke:#000000;stroke-width:0.3;stroke-miterlimit:10;}
	.st83{stroke:#000000;stroke-width:3.000000e-02;stroke-miterlimit:10;}
</style>
<title>paso3img1</title>
<circle class="st0" cx="50" cy="16.8" r="15.6"/>
<path class="st1" d="M59.1,10.6c-0.9-0.9-2.4-0.9-3.3,0c0,0,0,0,0,0l-8,8l-3.4-3.4c-1-0.9-2.4-0.8-3.3,0.2c-0.8,0.9-0.8,2.2,0,3.1
	l5,5c0.9,0.9,2.4,0.9,3.3,0c0,0,0,0,0,0l9.6-9.6C60,13,60,11.5,59.1,10.6C59.1,10.6,59.1,10.6,59.1,10.6z"/>
<circle class="st2" cx="127.8" cy="17.3" r="15.6"/>
<path class="st1" d="M135.6,10.1c-0.9-0.8-2.2-0.8-3.1,0l-4.6,4.6l-4.7-4.6c-0.9-0.8-2.3-0.8-3.1,0.1c-0.8,0.8-0.8,2.1,0,2.9
	l4.7,4.6l-4.7,4.6c-0.9,0.8-0.9,2.2-0.1,3.1s2.2,0.9,3.1,0.1c0,0,0.1-0.1,0.1-0.1l4.7-4.6l4.7,4.6c0.4,0.4,1,0.6,1.5,0.6
	c0.6,0,1.1-0.2,1.5-0.6c0.8-0.9,0.8-2.2,0-3.1l-4.7-4.6l4.7-4.6C136.4,12.3,136.4,10.9,135.6,10.1z"/>
<path class="st3" d="M41.2,160.8c-0.3,0-0.7,0-1-0.1H40c-1.8-0.4-3.6-0.7-5.4-0.8c-1.5,0.1-3.1,0.3-4.6,0.6
	c-0.7,0.1-1.4,0.2-2.1,0.2c-2.3,0.1-4.6-0.8-6.1-2.6c-0.1,1.3,0.5,2.5,1.6,3.2c2.3,1.3,4,1.1,6.4,0.8c1.7-0.2,3.4-0.3,5.1-0.3
	c1.1,0.1,2.2,0.2,3.3,0.4c2.3,0.4,4.1,0.7,6.3-0.8c1-0.7,1.4-2,1-3.1C44.6,159.9,42.9,160.8,41.2,160.8z"/>
<path class="st4" d="M42.7,149.4c-0.5,0.2-1,0.3-1.5,0.4c-0.2,0-0.3-0.1-0.4-0.3c0-0.2,0.1-0.3,0.3-0.4c0.5-0.1,1-0.2,1.5-0.4h0
	c1.2-0.5,2-1.2,2-2c0-1.4-2.5-2.6-5.5-2.6s-5.5,1.2-5.5,2.6c0,0.7,0.7,1.4,1.8,1.9l0,0c0.8,0.3,1.5,0.5,2.4,0.6
	c0.2,0,0.3,0.1,0.3,0.3c0,0.2-0.1,0.3-0.3,0.3l0,0c-0.8-0.1-1.6-0.3-2.4-0.6c-1,0.6-1.8,1.5-2.3,2.5c0.6,0.6,1.1,1.4,1.4,2.2
	c0.1,0.2,0,0.4-0.2,0.4c-0.2,0.1-0.4,0-0.4-0.2l0,0c-0.4-1.2-1.3-2.2-2.5-2.8l0,0c-1.1-0.5-2.3-0.7-3.5-0.7c-3.6,0-6.5,2.1-6.5,4.6
	c0,0.6,0.1,1.1,0.4,1.6c0.9,1.8,3.4,3,6.1,3c0.1,0,1.4-0.1,1.9-0.2l0,0c1.6-0.3,3.1-0.5,4.7-0.6c1.8,0.1,3.7,0.4,5.5,0.8h0.2
	c2.1,0.5,4.2-0.7,5-2.7l0,0C46.4,154.4,45.3,151.1,42.7,149.4L42.7,149.4z"/>
<path d="M43.4,149.1c1-0.4,1.8-1.3,1.9-2.4c0-1.8-2.7-3.2-6.1-3.2s-6.1,1.4-6.1,3.2c0.1,1,0.7,1.9,1.6,2.3c-0.9,0.6-1.6,1.5-2.2,2.4
	c-0.3-0.2-0.5-0.4-0.8-0.5c-1.2-0.5-2.4-0.8-3.7-0.8c-3.9,0-7.1,2.4-7.1,5.3c0,0.6,0.2,1.2,0.4,1.8c-0.1,0.5-0.1,1,0,1.6
	c0.1,1.3,0.8,2.4,1.9,3.1c2.5,1.4,4.4,1.1,6.8,0.8c1.7-0.2,3.3-0.3,5-0.3c1.1,0.1,2.1,0.2,3.2,0.4c1,0.2,2,0.3,3,0.4
	c1.4,0,2.7-0.4,3.8-1.2c1.4-1,1.8-3,1-4.5C47,154.4,45.9,151.1,43.4,149.1L43.4,149.1z M44.5,161.4c-2.2,1.5-4,1.2-6.3,0.8
	c-1.1-0.2-2.2-0.4-3.3-0.4c-1.7,0-3.4,0.1-5.1,0.3c-2.4,0.3-4.1,0.5-6.4-0.8c-1.1-0.7-1.7-1.9-1.6-3.2c1.6,1.7,3.8,2.7,6.1,2.6
	c0.7,0,1.4-0.1,2.1-0.2c1.5-0.3,3.1-0.5,4.6-0.6c1.8,0.1,3.6,0.4,5.4,0.8h0.2c0.3,0.1,0.7,0.1,1,0.1c1.8,0,3.5-1,4.4-2.5
	C45.9,159.4,45.5,160.7,44.5,161.4z M45.2,157.3L45.2,157.3c-0.8,2-2.9,3.2-5,2.7H40c-1.8-0.4-3.6-0.7-5.5-0.8
	c-1.6,0.1-3.2,0.3-4.7,0.6l0,0c-0.5,0.1-1.8,0.2-1.9,0.2c-2.7,0-5.1-1.2-6.1-3c-0.3-0.5-0.4-1-0.4-1.6c0-2.6,2.9-4.6,6.5-4.6
	c1.2,0,2.4,0.2,3.5,0.7l0,0c1.1,0.6,2,1.6,2.5,2.8c0.1,0.2,0.3,0.2,0.4,0.2c0.2-0.1,0.2-0.3,0.2-0.4l0,0c-0.3-0.8-0.8-1.6-1.5-2.2
	c0.5-1,1.4-1.9,2.3-2.5c0.8,0.3,1.6,0.5,2.4,0.6l0,0c0.2,0,0.3-0.1,0.3-0.3c0-0.2-0.1-0.3-0.3-0.3c-0.8-0.1-1.6-0.3-2.4-0.6l0,0
	c-1.1-0.5-1.8-1.2-1.8-1.9c0-1.4,2.5-2.6,5.5-2.6s5.5,1.2,5.5,2.6c0,0.8-0.8,1.5-2,2h0c-0.5,0.2-1,0.3-1.5,0.4
	c-0.2,0-0.3,0.2-0.3,0.4c0,0.2,0.2,0.3,0.4,0.3c0.5-0.1,1-0.2,1.5-0.4C45.2,151.2,46.2,154.4,45.2,157.3L45.2,157.3z"/>
<path class="st5" d="M39.2,148c-1.1,0-2-0.8-2.1-1.8c-1.8-11,3.2-22.3,3.4-22.8c0.4-0.8,1.1-1.3,2-1.3c0.3,0,0.6,0.1,0.9,0.2
	c1.1,0.5,1.6,1.8,1.1,2.9c0,0,0,0,0,0c0,0.1-4.6,10.7-3,20.3c0.2,1.2-0.7,2.3-1.9,2.5c0,0,0,0,0,0C39.5,148,39.3,148,39.2,148z"/>
<path d="M42.5,122.4c0.3,0,0.5,0.1,0.7,0.2c0.9,0.4,1.4,1.5,1,2.4c0,0,0,0,0,0c-0.1,0.2-4.7,10.8-3.1,20.5c0.2,1-0.5,2-1.5,2.1h-0.3
	c-0.9,0-1.7-0.7-1.8-1.6c-1.8-10.9,3.1-22.2,3.3-22.6C41,122.8,41.7,122.4,42.5,122.4 M42.5,121.7L42.5,121.7c-1,0-2,0.6-2.4,1.5
	c-0.2,0.5-5.2,11.9-3.4,23c0.2,1.2,1.3,2.1,2.5,2.1c0.1,0,0.3,0,0.4,0c1.4-0.2,2.3-1.5,2.1-2.9c-1.6-9.5,3-20.1,3-20.2
	c0.6-1.3,0-2.8-1.3-3.3C43.1,121.8,42.8,121.7,42.5,121.7L42.5,121.7z"/>
<path class="st6" d="M36.7,142.7l4.4-0.3c0.1,0,0.3,0.1,0.3,0.3l0,0l0.2,3.7c0.1,0.9-0.6,1.7-1.6,1.8h0l-1.6,0.1
	c-0.9,0.1-1.7-0.6-1.8-1.6l0,0l-0.2-3.7C36.4,142.9,36.5,142.7,36.7,142.7L36.7,142.7z"/>
<path d="M63.3,156l-0.4-2.2c0-1.9-0.8-3.6-2.2-4.9c0.6-0.5,0.9-1.2,0.9-1.9c0-2-2.6-3.5-6-3.5s-6,1.6-6,3.5c0,0.6,0.3,1.2,0.7,1.7
	c-0.8,0.7-1.5,1.6-1.9,2.6c-1.4-0.2-2.8-0.2-4.2,0.1c-1.1,0.2-2.2,0.7-3.2,1.3c-2,1.3-3.2,3.6-3,6c0,0,0,0.1,0,0.3v2.1
	c0,1.1,0.5,2.2,1.3,3c1.1,1,3,2,6.6,2c1,0,2.1-0.1,3.1-0.2c0.4,0,3.3-0.1,7.7-3.6c0.3-0.1,1.6-0.7,2.8-1.2
	C61.9,160.3,63.3,158.3,63.3,156C63.3,156,63.3,156,63.3,156z M44.5,152c5.7-1.1,8.3,2.3,8.4,2.5c0.1,0.2,0.4,0.2,0.5,0.1
	c0,0,0,0,0,0c0.2-0.1,0.2-0.4,0.1-0.5c0,0,0,0,0,0c-1.1-1.3-2.5-2.2-4.2-2.6c0.4-0.9,1-1.6,1.8-2.2c1,0.7,2.3,1.1,3.5,1.3h0
	c0.2,0,0.4-0.2,0.3-0.4c0-0.2-0.2-0.3-0.3-0.3c-2.3-0.3-4.1-1.4-4.1-2.7c0-1.5,2.4-2.8,5.2-2.8s5.2,1.3,5.2,2.8
	c0,0.9-0.9,1.8-2.4,2.3c-0.2,0.1-0.3,0.3-0.2,0.5c0.1,0.2,0.2,0.2,0.4,0.2c0.5-0.2,0.9-0.4,1.4-0.6c1.3,1.1,2,2.7,2,4.4
	c0,0.7-0.1,1.5-0.4,2.2l-0.2,0.5c-0.8,1.6-3.7,2.7-4.9,3.1c-0.6,0.2-1.1,0.5-1.7,0.8c-2,1.2-4.3,2-6.6,2.3c-3.5,0.4-6.2-0.2-7.8-1.6
	c-0.7-0.6-1.2-1.4-1.4-2.4l0,0c0,0,0-0.2,0-0.2C38.8,153.1,44.3,152.1,44.5,152z M59.5,160.3c-1.4,0.5-2.9,1.2-2.9,1.2h-0.1
	c-4.4,3.4-7.3,3.5-7.3,3.5h-0.1c-5.3,0.7-7.8-0.5-9.1-1.6c-0.7-0.6-1-1.5-1-2.4v-0.4c0.3,0.4,0.6,0.8,1,1.1c1.5,1.2,3.6,1.9,6.3,1.9
	c0.7,0,1.3,0,2.1-0.1c2.5-0.3,4.9-1.1,7-2.4c0.4-0.3,0.9-0.6,1.5-0.7c1.6-0.5,4.5-1.7,5.4-3.5l0.2-0.5l0,0l0.1-0.3l0,0
	C62.6,157.9,61.4,159.7,59.5,160.3L59.5,160.3z"/>
<path class="st1" d="M62.6,156.1c0,1.9-1.2,3.6-3,4.3c-1.4,0.5-2.9,1.2-2.9,1.2h-0.1c-4.4,3.4-7.3,3.5-7.3,3.5h-0.1
	c-5.3,0.7-7.8-0.5-9.1-1.6c-0.7-0.6-1-1.5-1-2.4v-0.4c0.3,0.4,0.6,0.8,1,1.1c1.5,1.2,3.6,1.9,6.3,1.9c0.7,0,1.3,0,2.1-0.1
	c2.5-0.3,4.9-1.1,7-2.4c0.4-0.3,0.9-0.6,1.5-0.7c1.6-0.5,4.5-1.7,5.4-3.5l0.2-0.5l0,0L62.6,156.1L62.6,156.1z"/>
<path class="st4" d="M62.2,153.8c0,0.7-0.1,1.5-0.4,2.2l-0.2,0.5c-0.8,1.6-3.7,2.7-4.9,3.1c-0.6,0.2-1.1,0.5-1.7,0.8
	c-2,1.2-4.3,2-6.6,2.3c-3.5,0.4-6.2-0.2-7.8-1.6c-0.7-0.6-1.2-1.4-1.4-2.4l0,0c0,0,0-0.2,0-0.2c-0.2-5.5,5.3-6.5,5.5-6.5
	c5.7-1.1,8.3,2.3,8.4,2.5c0.1,0.2,0.4,0.2,0.5,0.1c0,0,0,0,0,0c0.2-0.1,0.2-0.4,0.1-0.5c0,0,0,0,0,0c-1.1-1.3-2.5-2.2-4.2-2.6
	c0.4-0.9,1-1.6,1.7-2.3c1,0.7,2.3,1.1,3.5,1.3h0c0.2,0,0.4-0.2,0.3-0.4c0-0.2-0.2-0.3-0.3-0.3c-2.3-0.3-4.1-1.4-4.1-2.7
	c0-1.5,2.4-2.8,5.2-2.8s5.2,1.3,5.2,2.8c0,0.9-0.9,1.8-2.4,2.3c-0.2,0.1-0.3,0.3-0.2,0.5c0.1,0.2,0.2,0.2,0.4,0.2
	c0.5-0.2,0.9-0.4,1.4-0.6C61.4,150.5,62.2,152.1,62.2,153.8z"/>
<path class="st5" d="M56,147.5c-1.1,0-2-0.8-2.2-1.8c-1.8-11,3.2-22.3,3.4-22.8c0.3-0.8,1.1-1.3,2-1.3c0.3,0,0.6,0.1,0.9,0.2
	c0.5,0.2,1,0.7,1.2,1.2c0.2,0.5,0.2,1.1,0,1.7c0,0.1-4.6,10.7-3,20.3c0.2,1.2-0.6,2.3-1.8,2.5L56,147.5z"/>
<path d="M59.2,121.8c0.3,0,0.5,0.1,0.8,0.2c0.9,0.4,1.4,1.5,1,2.4c-0.1,0.2-4.7,10.8-3.1,20.5c0.2,1-0.5,2-1.5,2.1H56
	c-0.9,0-1.7-0.7-1.8-1.6c-1.8-10.9,3.1-22.2,3.3-22.6C57.8,122.3,58.5,121.8,59.2,121.8 M59.2,121.1L59.2,121.1
	c-1,0-1.9,0.6-2.3,1.5c-0.2,0.5-5.2,11.9-3.4,23c0.2,1.2,1.3,2.1,2.5,2.1h0.4c1.4-0.2,2.3-1.5,2.1-2.9c-1.5-9.5,3-20,3-20.1
	c0.6-1.3,0-2.8-1.3-3.4C59.9,121.2,59.6,121.2,59.2,121.1L59.2,121.1z"/>
<path class="st6" d="M53.5,142.2l4.4-0.3c0.1,0,0.3,0.1,0.3,0.3l0,0l0.2,3.7c0.1,0.9-0.6,1.7-1.6,1.8h0l-1.6,0.1
	c-0.9,0.1-1.7-0.6-1.8-1.6l0,0l-0.2-3.7C53.2,142.3,53.3,142.2,53.5,142.2L53.5,142.2z"/>
<polygon class="st7" points="73.4,120.6 74.2,102.8 76.6,102.8 76.2,120.6 "/>
<polygon class="st7" points="52.1,117.1 53,99.3 55.3,99.3 55,117.1 "/>
<path class="st8" d="M59.4,132.5h-1.3c-0.5,0-1,0-1.4,0h-0.3l-0.9,27.3c1.2,1.3,2.4,1.4,3.6,0l0.7-27.4L59.4,132.5z"/>
<path class="st9" d="M59.1,159.9l0.4,4.6c-1.4,1.1-3.3,1.1-4.6,0l0.6-4.8C56.5,160.7,58.1,160.8,59.1,159.9z"/>
<path class="st10" d="M72.8,125.8l2.7,23.3c1,0.7,1.9,0.8,2.7-0.3L75,124.7C74.3,125,73.5,125.4,72.8,125.8z"/>
<path class="st11" d="M75.4,148.7l0.1,4c1.3,1.7,2.5,1.3,3.6-0.2l-1-4.4c-0.3,0.9-1.3,1.3-2.2,0.9C75.7,148.9,75.6,148.8,75.4,148.7
	z"/>
<path class="st12" d="M78.6,102.1l0.7-13.4c0.1-1.2-0.7-2.3-1.9-2.6l-21.8-5.1c-1.3-0.3-2.6,0.5-2.9,1.8c0,0.1-0.1,0.3-0.1,0.4
	l-0.8,12.9c-0.1,1.2,0.7,2.3,1.9,2.6l21.9,5.5c0.2,0.1,0.5,0.1,0.7,0.1C77.6,104.4,78.6,103.4,78.6,102.1z"/>
<path class="st13" d="M76.7,103.4L77.4,90c0.1-1.2-0.7-2.3-1.9-2.6l-21.8-5.1c-1.3-0.3-2.6,0.5-2.9,1.8c0,0.1-0.1,0.3-0.1,0.4
	l-0.8,12.9c-0.1,1.2,0.7,2.3,1.8,2.6l21.9,5.5c0.2,0.1,0.5,0.1,0.8,0.1C75.7,105.7,76.7,104.7,76.7,103.4z"/>
<path class="st14" d="M74.9,120.1l-29.7-7.8c-0.4-0.1-0.8-0.1-1.2,0l-15,5.7c-0.7,0.2-1.1,0.9-0.9,1.6c0.1,0.5,0.5,0.8,0.9,0.9
	l28.3,10c0.5,0.2,1,0.1,1.4-0.1l16.4-7.8c0.7-0.1,1.2-0.7,1.1-1.4S75.6,120,74.9,120.1z"/>
<polygon class="st15" points="76,121.9 76,125.2 58.6,134.3 58.8,130.5 "/>
<polygon class="st16" points="27.7,123.8 28.1,120.4 58.1,130.3 58.1,134.2 "/>
<rect x="72.5" y="96.1" class="st17" width="3.4" height="26.3"/>
<path class="st5" d="M75.9,96.1h-3.4c-0.5-0.4-0.9-0.8-1.3-1.3c-2-2.8-2.9-6.2-2.8-9.7c0-4,1.2-7.6,2.9-9.8c0.4-0.4,0.8-0.8,1.2-1.2
	h3.4c-0.4,0.3-0.8,0.7-1.2,1.2c-1.8,2.2-2.9,5.8-2.9,9.8c-0.1,3.5,0.9,6.8,2.8,9.7C75,95.3,75.4,95.7,75.9,96.1z"/>
<rect x="72.5" y="61.5" class="st17" width="3.4" height="12.7"/>
<path class="st18" d="M74.7,75.3c-1.8,2.2-2.9,5.8-2.9,9.8c-0.1,3.4,0.9,6.8,2.8,9.7c0.4,0.5,0.8,0.9,1.3,1.3v26.3H32.3V95.5
	c0.2-0.2,0.4-0.4,0.6-0.7c2-2.8,3-6.2,2.8-9.7c0-4-1.2-7.6-2.9-9.8c-0.1-0.2-0.3-0.4-0.5-0.5V61.5h43.6v12.7
	C75.5,74.5,75.1,74.9,74.7,75.3z"/>
<path class="st19" d="M71.3,75.3c-1.8,2.2-2.9,5.8-2.9,9.8c-0.1,3.4,0.9,6.8,2.8,9.7c0.4,0.5,0.8,0.9,1.3,1.3v26.3H32.3V95.5
	c0.2-0.2,0.4-0.4,0.6-0.7c2-2.8,3-6.2,2.8-9.7c0-4-1.2-7.6-2.9-9.8c-0.1-0.2-0.3-0.4-0.5-0.5V61.5h40.2v12.7
	C72.1,74.5,71.7,74.9,71.3,75.3z"/>
<path class="st20" d="M71.3,75.3c-1.8,2.2-2.9,5.8-2.9,9.8c-0.1,3.4,0.9,6.8,2.8,9.7c0.4,0.5,0.8,0.9,1.3,1.3v26.3H28.9V95.5
	c0.2-0.2,0.4-0.4,0.6-0.7c2-2.8,2.9-6.2,2.8-9.7c0-4-1.2-7.6-2.9-9.8l-0.5-0.5V61.5h43.6v12.7C72.1,74.5,71.7,74.9,71.3,75.3z"/>
<path class="st21" d="M43.9,61.4h15.3l0,0V75c0,4.2-3.4,7.7-7.7,7.7l0,0c-4.2,0-7.7-3.4-7.7-7.7V61.4L43.9,61.4z"/>
<line class="st22" x1="51.4" y1="61.5" x2="51.4" y2="82.7"/>
<circle class="st23" cx="55.7" cy="70.5" r="1.6"/>
<line class="st24" x1="72.5" y1="74.1" x2="75.9" y2="74.1"/>
<line class="st24" x1="72.5" y1="96.1" x2="75.9" y2="96.1"/>
<path class="st25" d="M62.9,135.7l0.7,0.5c0.5,0.4,0.9,1,1,1.6l4.2,28.4c1.3,0.7,2.4,0.8,3.4-0.3l-4.8-28.7c-0.1-0.8-0.5-1.6-1-2.2
	l-1-1.3L62.9,135.7z"/>
<path class="st9" d="M68.7,165.8l0.1,4c1.7,1.7,3.2,1.3,4.6-0.2l-1.3-4.4C71.3,166.3,69.8,166.5,68.7,165.8z"/>
<path class="st26" d="M36.5,146.1l0.9,1.8c0.6,1.2,1,2.5,1,3.9l0.8,28.6c1.3,1.2,2.5,1.2,3.7,0l-1.1-29.9c0-0.6-0.1-1.3-0.3-1.9
	l-1.1-3.2L36.5,146.1z"/>
<path class="st9" d="M39.2,180.1l-0.4,4.6c1.4,1.1,3.3,1.1,4.6,0l-0.6-4.8C41.8,181,40.2,181,39.2,180.1z"/>
<path class="st27" d="M6.9,134.4L6,136.2c-0.2,0.4-0.3,0.9-0.4,1.4l-1.9,27.5v0.3c0.9,0.8,2.3,0.8,3.2,0l1.3-27.3
	c0-0.3,0.1-0.7,0.2-1l0.6-1.8L6.9,134.4z"/>
<path class="st9" d="M3.2,168.9c1.2,1.1,3.1,1.1,4.3,0L7,164.6c-0.8,0.9-2.3,1-3.2,0.2L3.2,168.9z"/>
<path class="st28" d="M3.3,126.2l1.6,6.2c0.3,1.1,1.1,2,2.1,2.4L39.3,147c1.4,0.5,2.9,0.4,4.2-0.3l21.7-11.6
	c1.1-0.6,1.9-1.8,1.9-3.1l0.2-5.4l-26.1,12.2L3.3,126.2z"/>
<path class="st29" d="M0.3,122.1v1.3c0,1,0.6,1.9,1.5,2.2l37.4,14c1.4,0.5,2.9,0.4,4.2-0.3l24.2-13c0.8-0.4,1.3-1.3,1.2-2.3
	l-0.1-0.9l-27.4,14L0.3,122.1z"/>
<line class="st24" x1="51.1" y1="109" x2="51.1" y2="109"/>
<path class="st30" d="M68.7,123.1l-24.8,13.4c-1.8,1-3.9,1.1-5.8,0.4L0.8,122.2c-0.4-0.2-0.6-0.7-0.5-1.1c0.1-0.2,0.3-0.4,0.5-0.5
	L26,109.2c1.1-0.5,2.4-0.6,3.6-0.2l39,13.1c0.3,0.1,0.4,0.4,0.3,0.7C68.9,122.9,68.8,123,68.7,123.1z"/>
<polygon class="st31" points="13.6,127.5 36.8,131.8 53.5,116.8 31.9,112.7 "/>
<path class="st32" d="M71.6,99.8c0,1.1-0.1,2.3-0.4,3.4c-1.1,4.6-4,8.6-7.9,11.1c-3.9,2.5-6.1,2.9-8,2.8c-0.7,0-1.2,0.5-1.2,1.1
	c0,0.2,0,0.4,0.1,0.6l1.9,4c0.2,0.5,0.8,0.7,1.3,0.6c10.7-2.4,19.4-7.9,20.2-24.3c0.1-1.6-1.1-2.9-2.7-3c-0.8,0-1.5,0.2-2.1,0.8
	h-0.1C72,97.7,71.6,98.7,71.6,99.8z"/>
<polygon class="st1" points="44.1,120.5 44.2,122 51.1,124.5 55.9,120.6 54.5,118.8 52.1,118.1 49.1,117.2 46.5,117.3 "/>
<path class="st33" d="M52.6,117.5c1.1-0.9,2.3-1,4,1.1c0.3,0.4,0.6,0.8,0.8,1.3c0.4,0.9,0.5,1.9,0.2,2.8c-0.4,1.1-1.5,1.8-2.7,1.8
	h-0.5"/>
<path class="st33" d="M54.3,119c-1-1.5-3.2-2-5.7-2.2c-0.3,0-0.5-0.1-0.8-0.2c-0.7-0.3-1.5-0.4-2.2-0.4c-1.1,0-2,0.9-2,2
	c0,0,0,0.1,0,0.1c0,0.3,0.1,0.7,0.2,1"/>
<path class="st33" d="M48.1,118.1c-5.2,0.2-7.3,1.9-8.3,4.3c-0.4,0.9,0,1.9,0.9,2.2c0,0,0.1,0,0.1,0l0.5,0.2"/>
<path class="st33" d="M46.8,120.8c-4.5,1.1-6.1,3-6.2,5.2c0,0.6,0.4,1.2,1,1.3h0.1c0.7,0.1,1.5-0.1,2-0.6c1.4-1.3,3.1-2.4,4.9-3.1
	c-1.9,1-3.5,2.2-3.8,4.6c-0.1,0.7,0.3,1.3,0.9,1.5h0.1c0.6,0.1,1.1-0.1,1.5-0.6l2.3-2.7c4,1.1,5.7-1.1,6.1-4.9"/>
<ellipse class="st34" cx="42" cy="95.4" rx="4.3" ry="6.4"/>
<ellipse class="st35" cx="42" cy="98.5" rx="2.2" ry="3.3"/>
<circle class="st1" cx="42.8" cy="96.9" r="0.9"/>
<ellipse class="st34" cx="54.4" cy="95.2" rx="4.3" ry="6.4"/>
<ellipse class="st35" cx="53.7" cy="97.8" rx="2.2" ry="3.3"/>
<circle class="st1" cx="54.5" cy="96.2" r="0.9"/>
<path class="st36" d="M38.4,86.4c0,0,2.5-2.6,4.9,0"/>
<path class="st36" d="M52.5,85.4c0,0,2.5-2.6,4.9,0"/>
<path class="st37" d="M56.4,104.4c0.9-0.2,1.7,0.4,1.9,1.2c0.1,0.5,0,1.1-0.4,1.5c-3.6,3.6-9,4.8-13.8,2.9c-0.8-0.3-1.2-1.2-0.9-2.1
	c0.3-0.8,1.2-1.2,2.1-0.9c3.6,1.4,7.7,0.5,10.4-2.2C55.8,104.6,56.1,104.5,56.4,104.4z"/>
<path class="st35" d="M44.5,108.1c0.1,0,0.2,0,0.3,0c4,1.5,8.5,0.6,11.5-2.5c0.2-0.2,0.6-0.2,0.8,0.1c0.2,0.2,0.2,0.5,0,0.7
	c-3.3,3.3-8.3,4.4-12.7,2.7c-0.3-0.1-0.4-0.4-0.3-0.7C44.2,108.2,44.3,108.1,44.5,108.1z"/>
<g>
	<defs>
		<rect id="SVGID_1_" x="-3.9" y="91.1" width="32.8" height="36.4"/>
	</defs>
	<clipPath id="SVGID_2_">
		<use xlink:href="#SVGID_1_"  style="overflow:visible;"/>
	</clipPath>
	<g class="st38">
		<path class="st32" d="M14.3,120c-1.5,0-2.7-1.2-2.7-2.7c0-1.2,0.7-2.2,1.8-2.5c13.4-4.5,16.2-21.2,16.2-21.4
			c0.1-1.5,1.5-2.6,2.9-2.4s2.6,1.5,2.4,2.9c0,0.1,0,0.2,0,0.3c-0.1,0.8-3.2,20.1-19.8,25.7C14.9,119.9,14.6,120,14.3,120z"/>
		<ellipse class="st39" cx="10.9" cy="118.6" rx="2.9" ry="3.4"/>
		<path class="st40" d="M4.8,119.4c-0.8,0.7-1.1,1.8-0.8,2.8c0.3,1.5,1.6,2.6,3.2,2.7c0.7,0.1,1.2-0.4,1.4-1c0.4-1.8-0.9-2.6-2.7-3"
			/>
		<path class="st40" d="M4.5,116.8c-0.8,0.7-1.1,1.8-0.8,2.8c0.3,1.5,1.6,2.6,3.2,2.7c0.7,0,1.2-0.4,1.4-1c0.4-1.8-0.9-2.6-2.7-3"/>
		<path class="st40" d="M12.1,113.2c1.8-0.1,3.4,0.6,4.3,3.6c0.6,3.5-0.9,4.1-2.5,4.6"/>
		<path class="st40" d="M8.7,124.4c3-0.8,6.2-1.3,5.7-6.4"/>
		<path class="st40" d="M14,115.8c-0.1-2.6-5.9-4.6-9.4-1.5c-0.8,0.7-1.1,1.8-0.8,2.8c0.3,1.5,1.6,2.6,3.2,2.7
			c0.7,0.1,1.3-0.4,1.4-1c0.4-1.8-0.9-2.5-2.7-3c1.3-1.1,2.8-2,4.8-0.9c-1.7,1.9-1.6,3.4-0.7,4.7c0.5,0.7,1.5,0.9,2.2,0.4
			c0.1,0,0.1-0.1,0.2-0.2c0.9-0.9,0.9-2.1,0-3.7"/>
		<path class="st41" d="M7.7,106.4L7.7,106.4l3.9,14.7L8,122l-3.9-14.7c0-0.1,0-0.3,0.1-0.3c0.9-0.6,2-0.9,3.1-0.8
			C7.5,106.1,7.7,106.2,7.7,106.4z"/>
		
			<rect x="4.7" y="108.4" transform="matrix(0.9674 -0.2534 0.2534 0.9674 -27.472 5.2299)" class="st42" width="3.6" height="1.7"/>
		
			<rect x="7.2" y="119.4" transform="matrix(0.9684 -0.2496 0.2496 0.9684 -29.7244 6.0467)" class="st43" width="3.6" height="1.7"/>
		<path class="st44" d="M11,125.1l0.6-3.9c0,0,0,0,0-0.1L8.1,122c0,0,0,0,0,0.1c0,0,0,0,0,0l2.4,3.1L11,125.1z"/>
		<path class="st40" d="M5.5,115.6l0.3-0.3c-0.2-0.7-0.2-1.3-0.4-2c-0.4,0.2-0.8,0.5-1.1,0.8c-0.8,0.7-1.1,1.8-0.8,2.8
			c0.3,1.5,1.6,2.6,3.2,2.7c0.7,0.1,1.2-0.4,1.4-1C8.6,116.8,7.4,116.1,5.5,115.6z"/>
		<path class="st40" d="M10,114.5c0.2,0.1,0.4,0.1,0.5,0.2c-1.7,1.9-1.6,3.4-0.7,4.7c0.5,0.7,1.4,0.9,2.2,0.4c0.1,0,0.1-0.1,0.2-0.2
			c0.9-0.9,0.9-2.1,0-3.7"/>
	</g>
</g>
<path class="st1" d="M155.4,150.5c0,0.3,0,0.6,0,0.9c0.2,0.2,0.4,0.3,0.6,0.5c0-0.3,0-0.5-0.1-0.8c-0.1-0.9-0.3-1.8-0.6-2.6
	c0.1,0.6,0.1,1.2,0.1,1.9L155.4,150.5z"/>
<path class="st4" d="M144.2,151.1c1.7-1.1,3.6-1.7,5.6-1.6c1.7,0,3.4,0.5,4.9,1.5c0-0.1,0-0.3,0-0.4v-0.1c0-1.3-0.2-2.6-0.5-3.9
	c-0.1-0.6-0.3-1.2-0.5-1.8c-1.1,1.1-2.5,1.7-4,1.8l0,0c-0.2,0-0.3-0.1-0.3-0.3c0-0.2,0.1-0.3,0.3-0.3c0,0,0,0,0,0
	c1.5,0,2.9-0.8,3.8-1.9c0,0,0-0.1,0.1-0.1c0.2-0.3,0.3-0.7,0.3-1.1c0-1.8-2.1-3.2-4.7-3.2s-4.7,1.4-4.7,3.2c0,0.6,0.2,1.2,0.6,1.6
	c0,0,0.1,0,0.1,0.1c0.8,0.8,1.8,1.3,2.9,1.4c0.2,0,0.3,0.2,0.3,0.4c0,0.2-0.2,0.3-0.4,0.3c0,0,0,0,0,0c-1.1-0.2-2.1-0.6-2.9-1.3
	c-0.1,0.4-0.2,0.7-0.3,1.1c-0.3,1.4-0.5,2.9-0.5,4.3v0.1C144.2,150.8,144.2,151,144.2,151.1z"/>
<path class="st4" d="M155.9,152.9c-0.3-0.4-0.7-0.7-1.1-1l0,0c-1.4-1.1-3.2-1.7-5-1.7c-2.1-0.1-4.1,0.6-5.7,1.9
	c-0.5,0.4-0.9,0.9-1.3,1.4c-0.3,0.6-0.5,1.2-0.6,1.9c0,0.1,0,0.1,0,0.1c0.4,0.7,0.9,1.2,1.6,1.7c0.7,0.5,1.4,0.8,2.2,1.1
	c1.2,0.4,2.4,0.6,3.7,0.6c3.4,0,6.4-1.4,7.4-3.3c-0.1-0.9-0.5-1.8-1.1-2.5L155.9,152.9z"/>
<path class="st45" d="M149.7,159.4c-1.3,0-2.6-0.2-3.8-0.6c-0.8-0.3-1.7-0.6-2.4-1.1c-0.4-0.3-0.8-0.6-1.2-1
	c0.3,1.7,1.5,2.8,3.7,3.4h0.1c1.1,0.3,2.1,0.4,3.2,0.4h0.6c4.2,0,6.7-1.3,7.2-3.8C155.6,158.3,152.8,159.4,149.7,159.4z"/>
<path d="M156.6,152.6L156.6,152.6v-0.2c0-2.1-0.6-4.3-1.6-6.1l0,0c-0.2-0.8-0.4-1.5-0.8-2.3c0.2-0.4,0.4-0.9,0.4-1.4
	c0-2.1-2.4-3.8-5.3-3.8s-5.3,1.7-5.3,3.8c0,0.7,0.3,1.4,0.7,1.9c-0.2,0.5-0.3,0.9-0.5,1.4c-1.1,1.7-1.7,3.6-1.8,5.7l0,0
	c0,0.2,0,0.4,0,0.7s0,0.5,0,0.8c-0.4,0.6-0.6,1.3-0.7,2.1c0,0.1,0,0.1,0,0.2c-0.2,2.5,1.3,4.4,4.1,5.1h0.1c1.1,0.3,2.3,0.4,3.4,0.4
	h0.6c6.9,0,7.9-3.4,8-5.4l0,0c0-0.1,0-0.2,0-0.3C157.7,154.4,157.3,153.4,156.6,152.6z M155.9,151.2c0,0.3,0,0.5,0.1,0.8
	c-0.2-0.2-0.4-0.3-0.6-0.5c0-0.3,0-0.6,0-0.9v-0.1c0-0.6,0-1.2-0.1-1.9C155.6,149.4,155.8,150.3,155.9,151.2L155.9,151.2z
	 M144.7,146.2c0.1-0.4,0.2-0.7,0.3-1.1c0.8,0.7,1.8,1.1,2.9,1.3c0.2,0,0.3-0.1,0.4-0.3c0,0,0,0,0,0c0-0.2-0.1-0.3-0.3-0.4
	c-1.1-0.2-2.1-0.7-2.9-1.4c0,0,0-0.1-0.1-0.1c-0.4-0.4-0.6-1-0.6-1.6c0-1.8,2.1-3.2,4.7-3.2s4.7,1.4,4.7,3.2c0,0.4-0.1,0.8-0.3,1.1
	c0,0-0.1,0.1-0.1,0.1c-0.9,1.2-2.3,1.9-3.8,1.9c-0.2,0-0.3,0.1-0.3,0.3c0,0,0,0,0,0c0,0.2,0.2,0.3,0.3,0.3l0,0
	c1.5-0.1,2.9-0.7,4-1.8c0.2,0.6,0.4,1.2,0.5,1.8c0.3,1.3,0.5,2.6,0.5,3.9v0.1c0,0.1,0,0.3,0,0.4c-1.5-1-3.2-1.5-4.9-1.5
	c-2,0-4,0.5-5.6,1.6c0-0.2,0-0.3,0-0.5v-0.1C144.2,149,144.4,147.6,144.7,146.2L144.7,146.2z M142.9,151.7L142.9,151.7
	c0.1-1.2,0.3-2.5,0.8-3.6c-0.1,0.8-0.2,1.6-0.1,2.4v0.1c0,0.3,0,0.6,0,1c-0.3,0.2-0.5,0.5-0.7,0.7
	C142.9,152.1,142.9,152,142.9,151.7L142.9,151.7z M149.8,160.4h-0.6c-1.1,0-2.2-0.2-3.2-0.4H146c-2.1-0.6-3.4-1.8-3.7-3.4
	c0.3,0.4,0.7,0.7,1.2,1c0.7,0.5,1.5,0.9,2.4,1.1c1.2,0.4,2.5,0.6,3.8,0.6c3.1,0,5.9-1.1,7.4-2.7
	C156.6,159.2,154.1,160.5,149.8,160.4L149.8,160.4z M149.7,158.7c-1.2,0-2.5-0.2-3.7-0.6c-0.8-0.2-1.5-0.6-2.2-1.1
	c-0.7-0.4-1.2-1-1.6-1.7c0-0.1,0-0.1,0-0.1c0.1-0.7,0.3-1.3,0.6-1.9c0.3-0.6,0.8-1,1.3-1.4c1.6-1.3,3.6-1.9,5.7-1.9
	c1.8,0,3.6,0.6,5,1.7l0,0c0.4,0.3,0.8,0.6,1.1,1l0.1,0.1c0.6,0.7,1,1.6,1.1,2.5C156.1,157.4,153.1,158.8,149.7,158.7L149.7,158.7z"
	/>
<path class="st46" d="M149.4,142.8c-1.2,0-2.1-1-2.1-2.1V124c0.1-1.2,1.1-2.1,2.3-2c1.1,0.1,1.9,0.9,2,2v16.7
	C151.5,141.8,150.5,142.8,149.4,142.8z"/>
<path d="M149.4,122.1c1,0,1.9,0.8,1.9,1.9v16.7c0.1,1-0.7,2-1.8,2c-1,0.1-2-0.7-2-1.8c0-0.1,0-0.2,0-0.3V124
	C147.5,123,148.3,122.1,149.4,122.1C149.4,122.1,149.4,122.1,149.4,122.1 M149.4,121.6c-1.3,0-2.4,1.1-2.4,2.4c0,0,0,0,0,0v16.7
	c-0.1,1.3,0.9,2.5,2.2,2.5c1.3,0.1,2.5-0.9,2.5-2.2c0-0.1,0-0.2,0-0.3V124C151.8,122.7,150.7,121.6,149.4,121.6z"/>
<polygon class="st47" points="162.6,120.2 163.4,101.9 165.9,101.9 165.5,120.2 "/>
<polygon class="st47" points="140.8,116.6 141.6,98.3 144.1,98.3 143.7,116.6 "/>
<path class="st48" d="M148.2,132.4h-1.3c-0.5,0-1,0-1.5,0h-0.3l-0.9,28c1.2,1.4,2.4,1.4,3.7,0l0.7-28.1
	C148.5,132.4,148.4,132.4,148.2,132.4z"/>
<path class="st49" d="M148,160.5l0.4,4.8c-1.4,1.1-3.4,1.1-4.7,0l0.6-4.9C145.3,161.3,146.9,161.4,148,160.5z"/>
<path class="st50" d="M162,125.5l2.8,23.9c1,0.7,1.9,0.8,2.8-0.3l-3.2-24.7C163.5,124.7,162.7,125.1,162,125.5z"/>
<path class="st51" d="M164.7,149l0.1,4.1c1.3,1.8,2.5,1.3,3.7-0.2l-1-4.5c-0.4,0.9-1.3,1.3-2.2,0.9C165,149.3,164.8,149.1,164.7,149
	z"/>
<path class="st52" d="M168,101.2l0.7-13.7c0.1-1.2-0.8-2.4-2-2.6l-22.4-5.2c-1.4-0.3-2.7,0.6-3,2c0,0.1,0,0.2,0,0.4l-0.8,13.3
	c-0.1,1.2,0.7,2.3,1.9,2.7l22.5,5.7c1.3,0.3,2.7-0.5,3-1.8C168,101.6,168,101.4,168,101.2L168,101.2z"/>
<path class="st53" d="M166,102.5l0.7-13.7c0.1-1.2-0.8-2.4-2-2.6L142.4,81c-1.4-0.3-2.7,0.6-3,2c0,0.1,0,0.2,0,0.4l-0.8,13.3
	c-0.1,1.2,0.7,2.3,1.9,2.7l22.5,5.7c0.2,0.1,0.5,0.1,0.8,0.1C165,104.9,166,103.8,166,102.5z"/>
<path class="st54" d="M164.1,119.7l-30.4-8c-0.4-0.1-0.8-0.1-1.2,0.1l-15.4,5.8c-0.7,0.2-1.1,0.9-1,1.6c0.1,0.5,0.5,0.9,1,1
	l29.1,10.2c0.5,0.2,1,0.1,1.5-0.1l16.8-8c0.7-0.3,1-1.1,0.7-1.7C164.9,120,164.5,119.7,164.1,119.7z"/>
<polygon class="st55" points="165.3,121.5 165.3,124.8 147.4,134.2 147.7,130.4 "/>
<polygon class="st56" points="115.7,123.5 116.2,120 146.9,130.2 146.9,134.2 "/>
<path class="st46" d="M133.3,151.5c-1.2,0-2.1-0.9-2.2-2.1c0-0.7,0.3-1.3,0.9-1.7c7.5-5.7,6.4-19.9,6.4-20c-0.1-1.2,0.8-2.2,1.9-2.3
	h0.2c1.1,0,2.1,0.9,2.1,2c0.1,0.7,1.4,16.7-8,23.8C134.2,151.4,133.8,151.5,133.3,151.5z"/>
<path d="M140.5,125.6c1,0,1.8,0.8,1.9,1.7c0.1,0.7,1.4,16.5-7.9,23.6c-0.9,0.6-2.1,0.3-2.6-0.6c-0.5-0.8-0.3-1.8,0.3-2.4
	c7.6-5.8,6.5-20.1,6.4-20.2c-0.1-1,0.7-2,1.7-2.1L140.5,125.6 M140.5,125.1h-0.2c-1.3,0.1-2.3,1.3-2.2,2.6c0,0.1,1.1,14.2-6.3,19.8
	c-1.1,0.8-1.3,2.3-0.5,3.4c0.8,1.1,2.3,1.3,3.4,0.4c9.5-7.2,8.2-23.3,8.1-24C142.8,126,141.7,125.1,140.5,125.1L140.5,125.1z"/>
<path class="st1" d="M127.7,154.6c-1-0.9-1.8-2.1-2.2-3.4c-0.4-1.5-0.8-2.5-1-2.9c-0.3-0.8-0.8-1.5-1.3-2.2
	c-1.9-2.4-4.9-4.6-7.6-3.7c-0.4,0.1-0.7,0.3-1.1,0.6c-0.2,0.2-0.3,0.3-0.5,0.5c0.5-0.2,1-0.4,1.5-0.4c1.3-0.1,2.5,0.2,3.6,0.9
	c2.6,1.5,4.7,4.5,6.2,9c0.2,0.5,0.4,0.9,0.7,1.2c1.5,1.6,3.9,4.7,3.4,6.9c0,0.2-0.1,0.4-0.2,0.5c0.4-0.2,0.8-0.5,1.1-0.8
	C131,159.1,130,156.6,127.7,154.6z"/>
<path class="st4" d="M130.4,146.3c-0.1,0-0.1,0.1-0.2,0.1l-0.1,0.1c-0.2,0.3-0.4,0.6-0.4,1c0.6,0.1,1.2,0.4,1.7,0.8
	c0.2,0.1,0.2,0.3,0.1,0.5c0,0,0,0,0,0c-0.1,0.1-0.2,0.2-0.3,0.1c-0.1,0-0.1,0-0.2-0.1c-0.7-0.5-1.5-0.8-2.3-0.8c0,0.2,0,0.3,0,0.5
	s0,0.2,0,0.3s0,1.4-0.1,1.6c0,0.2-0.2,0.3-0.4,0.3c0,0,0,0,0,0c-0.2,0-0.3-0.2-0.3-0.4c0-0.5,0.1-1.4,0.1-1.6s0-0.2,0-0.3
	c0-0.3,0-0.5-0.1-0.8c-0.1-0.7-0.3-1.4-0.6-2.1c-1.7-4.1-6.5-5.9-10.5-4.2c-0.1,0-0.2,0.1-0.3,0.1c2.7-0.1,5.4,1.9,7.2,4.2
	c0.6,0.7,1,1.5,1.4,2.3c0.2,0.4,0.5,1.4,1,2.9c0.4,1.2,1.1,2.3,2,3.1c2.2,1.9,3.3,4.2,3.1,6.1c2.1-1.5,3.3-3.9,3.3-6.5
	c0-0.1,0-0.1,0-0.2c0-0.7-0.2-1.5-0.4-2.2c0-0.2,0.1-0.4,0.3-0.4c0.2,0,0.4,0.1,0.4,0.3c0.2,0.7,0.3,1.4,0.4,2.1c0.2,0,0.5,0,0.7,0
	c0.2,0,0.5-0.2,0.7-0.3c0.9-0.9,0.1-3.1-1.6-4.8C133.4,146.5,131.4,145.7,130.4,146.3z"/>
<path class="st57" d="M125.3,154.4l-0.3,0.3c-1.1,1.1-2.4,2-3.8,2.5l-0.3,0.1c0.2,0.3,0.4,0.6,0.6,1c0.8,1.4,1.9,2.6,3.3,3.5
	c0.7,0.4,1.4,0.6,2.2,0.5c0.2,0,0.5,0,0.7-0.1c0.6-0.2,1-0.7,1.2-1.3c0.4-2-2.3-5.3-3.2-6.2C125.5,154.6,125.4,154.5,125.3,154.4z"
	/>
<path class="st45" d="M124.5,154.2l0.4-0.4c-0.1-0.2-0.2-0.3-0.2-0.5c-1.8-5.3-4.2-7.6-5.9-8.6c-0.9-0.6-2.1-0.9-3.2-0.8l0,0
	c-1.3,0-2.4,1-2.6,2.3l0,0c0,0.4,0,0.8,0.1,1.2c0.5,1.9,1.5,3.6,2.8,4.9c0.3,0.4,1.6,1.6,2.6,2.4c0.6,0.6,1.1,1,1.3,1.2
	s0.5,0.5,0.7,0.8l0.5-0.2C122.3,156,123.5,155.2,124.5,154.2z"/>
<path d="M130.1,145.7c-0.1,0-0.2,0.1-0.3,0.2l-0.1,0.1c-0.3,0.3-0.5,0.8-0.5,1.3c-0.2,0-0.4,0-0.5,0c-0.7-4.2-4.3-7.2-8.6-7.2
	c-1.9,0-3.7,0.6-5.3,1.8c-0.2,0.2-0.5,0.4-0.7,0.6c0,0,0,0-0.1,0.1l0,0c-1,0.9-1.6,2.2-1.7,3.5l0,0c-0.1,0.5-0.1,1,0,1.4
	c0.5,2,1.5,3.8,3,5.3c0.3,0.4,1.6,1.6,2.6,2.5c0.6,0.5,1.1,1,1.2,1.1c0.3,0.3,0.5,0.6,0.8,0.9l0,0c0.3,0.4,0.6,0.8,0.9,1.3
	c0.9,1.5,2,2.7,3.4,3.7c0.8,0.5,1.7,0.7,2.6,0.6c0.3,0,0.6,0,0.9-0.1l0,0c1.2-0.2,2.3-0.8,3.2-1.6v-0.1c2.6-1.5,4.2-4.3,4.3-7.3h0.3
	c0.2,0,0.3,0,0.5,0c0.4-0.1,0.7-0.2,1-0.5c1.1-1.1,0.4-3.6-1.6-5.7C133.6,145.9,131.4,145.1,130.1,145.7z M119.7,155.9
	c-0.2-0.2-0.7-0.6-1.3-1.2c-1-0.9-2.2-2.1-2.6-2.4c-1.4-1.4-2.4-3.1-2.8-4.9c-0.1-0.4-0.1-0.8-0.1-1.2l0,0c0.2-1.3,1.3-2.3,2.6-2.3
	l0,0c1.1-0.1,2.2,0.2,3.2,0.8c1.7,1,4,3.3,5.9,8.6c0.1,0.2,0.1,0.3,0.2,0.5l-0.4,0.4c-1,1-2.2,1.8-3.6,2.3l-0.5,0.2
	C120.2,156.4,119.9,156.2,119.7,155.9z M128.8,161c-0.2,0.6-0.6,1.1-1.2,1.3c-0.2,0-0.5,0.1-0.7,0.1c-0.8,0.1-1.5-0.1-2.2-0.5
	c-1.3-0.9-2.4-2.1-3.3-3.5c-0.2-0.3-0.4-0.6-0.6-1l0.3-0.1c1.5-0.5,2.8-1.4,3.8-2.5l0.3-0.3c0.1,0.1,0.2,0.2,0.3,0.3
	C126.4,155.7,129.2,159,128.8,161L128.8,161z M130.4,160.8c-0.3,0.3-0.7,0.6-1.1,0.8c0.1-0.2,0.2-0.4,0.2-0.5
	c0.5-2.2-1.9-5.2-3.4-6.9c-0.3-0.4-0.6-0.8-0.7-1.2c-1.5-4.5-3.6-7.5-6.3-9c-1.1-0.7-2.3-1-3.6-0.9c-0.5,0-1,0.1-1.5,0.4
	c0.1-0.2,0.3-0.4,0.5-0.5c0.3-0.2,0.7-0.4,1.1-0.6c2.7-0.9,5.7,1.4,7.6,3.7c0.5,0.7,1,1.4,1.3,2.2c0.2,0.4,0.5,1.4,1,2.9
	c0.4,1.3,1.1,2.5,2.2,3.4C130,156.6,131,159.1,130.4,160.8L130.4,160.8z M136.6,152.9c-0.2,0.2-0.4,0.3-0.7,0.3c-0.2,0-0.5,0-0.7,0
	c-0.1-0.7-0.2-1.4-0.4-2.1c0-0.2-0.2-0.3-0.4-0.3c-0.2,0-0.3,0.2-0.3,0.4c0.2,0.7,0.3,1.5,0.4,2.2c0,0.1,0,0.1,0,0.2
	c0,2.6-1.2,5-3.3,6.5c0.2-1.9-0.9-4.2-3.1-6.1c-0.9-0.8-1.6-1.9-2-3.1c-0.5-1.5-0.8-2.5-1-2.9c-0.4-0.8-0.8-1.6-1.4-2.3
	c-1.8-2.2-4.5-4.3-7.2-4.2c4-1.9,8.8-0.2,10.7,3.8c0,0.1,0.1,0.2,0.1,0.3c0.3,0.7,0.5,1.3,0.6,2.1c0,0.3,0.1,0.5,0.1,0.8
	c0,0.1,0,0.2,0,0.3s0,1-0.1,1.6c0,0.2,0.1,0.4,0.3,0.4c0.2,0,0.4-0.1,0.4-0.3c0,0,0,0,0,0c0-0.2,0.1-1.4,0.1-1.6s0-0.2,0-0.3
	s0-0.3,0-0.5c0.8,0,1.6,0.3,2.3,0.8c0.1,0,0.1,0.1,0.2,0.1c0.1,0,0.2-0.1,0.3-0.1c0.1-0.2,0.1-0.4-0.1-0.5c0,0,0,0,0,0
	c-0.5-0.4-1.1-0.6-1.7-0.8c0-0.4,0.1-0.7,0.4-1l0.1-0.1c0.1,0,0.1-0.1,0.2-0.1c1-0.5,3,0.3,4.6,1.8
	C136.7,149.8,137.4,152.1,136.6,152.9L136.6,152.9z"/>
<path class="st58" d="M156.8,135.4l0.7,0.5c0.5,0.4,0.9,1,1,1.6l4.3,29.2c1.3,0.7,2.5,0.8,3.5-0.3l-4.9-29.4c-0.1-0.8-0.5-1.6-1-2.2
	l-1.1-1.3L156.8,135.4z"/>
<path class="st49" d="M162.7,166.3l0.1,4.1c1.7,1.8,3.3,1.3,4.7-0.2l-1.3-4.5C165.4,166.8,163.8,167,162.7,166.3z"/>
<path class="st59" d="M129.7,146l0.9,1.8c0.6,1.2,1,2.6,1,4l0.9,29.3c1.3,1.3,2.6,1.2,3.7,0l-1.1-30.7c0-0.7-0.1-1.4-0.4-2l-1.1-3.3
	L129.7,146z"/>
<path class="st49" d="M132.4,181l-0.4,4.8c1.4,1.1,3.4,1.1,4.7,0l-0.6-4.9C135.1,181.9,133.5,181.9,132.4,181z"/>
<path class="st60" d="M99.3,134.1l-0.9,1.9c-0.2,0.4-0.4,0.9-0.4,1.4l-1.9,28.2v0.3c0.9,0.8,2.3,0.8,3.3,0l1.4-28
	c0-0.4,0.1-0.7,0.2-1.1l0.6-1.9L99.3,134.1z"/>
<path class="st49" d="M95.5,169.4c1.2,1.2,3.1,1.2,4.4,0l-0.5-4.4c-0.9,1-2.3,1-3.3,0.2L95.5,169.4z"/>
<path class="st61" d="M95.6,125.7l1.6,6.4c0.3,1.1,1.1,2,2.2,2.4l33.1,12.5c1.4,0.5,2.9,0.4,4.3-0.3l22.2-11.9
	c1.2-0.6,1.9-1.8,2-3.2l0.2-5.5l-26.7,12.5L95.6,125.7z"/>
<path class="st62" d="M132.3,79.9l-1.1,0.3l-0.5,0.2c-3.5,1-7.2-0.5-9.1-3.6l-5.8-9.7l7.4-1l6.7-0.9l4.9,8.8c1.1,2,0.4,4.5-1.7,5.6
	C132.8,79.7,132.6,79.8,132.3,79.9z"/>
<line class="st62" x1="123.1" y1="65.9" x2="131.2" y2="80.2"/>
<ellipse transform="matrix(0.1978 -0.9802 0.9802 0.1978 34.332 184.6761)" class="st62" cx="130" cy="71.4" rx="1.3" ry="1.8"/>
<path class="st46" d="M159.2,118.6l-29.6,2.9c-1.3-18.4-5.8-23.3-5.8-23.3c2.4-11.9-13.4-18.1-13.4-18.1l-7.5-11.3l12.9-1.8l5.8,9.7
	c1.9,3.1,5.6,4.6,9.1,3.6l0.5-0.2l1.1-0.3c2.2-0.6,3.5-2.9,2.8-5.1c-0.1-0.3-0.2-0.6-0.4-0.9l-5-8.9l11.4-1.6l6.3,10.5
	c0,0-3.3,11.8,7.4,21.4C155,95.3,159.2,108.7,159.2,118.6z"/>
<path class="st63" d="M165.1,115.3l-5.9,3.3c0-10-4.2-23.3-4.2-23.3l5.6-3.1C163.8,99.4,165.1,115.3,165.1,115.3z"/>
<path class="st64" d="M160.6,92.2l-5.6,3.1c-10.7-9.6-7.4-21.4-7.4-21.4s3.7-3.7,6.1-4.8C150.5,84.6,160.6,92.2,160.6,92.2z"/>
<path class="st65" d="M153.6,69.1c-2.4,1.1-6.1,4.8-6.1,4.8l-6.3-10.5L129.8,65l-6.7,0.9l-7.4,1l-12.9,1.8l6.8-5l36.9-5.9
	L153.6,69.1z"/>
<line class="st66" x1="141.3" y1="63.4" x2="146.5" y2="57.9"/>
<path class="st67" d="M135.4,81.7c0,0,2.7,2.9,8.3,2.2"/>
<path class="st67" d="M127.3,84.9c0,0,0.4,4.6-5.3,5.6"/>
<path class="st66" d="M102.8,68.8l7.5,11.3c0,0,15.8,6.2,13.4,18.1c0,0,4.5,4.9,5.8,23.3l29.7-2.9l5.9-3.3c0,0-1.4-15.9-4.5-23.1
	c0,0-10.1-7.7-7-23.1l-7.2-11.2l-36.9,5.9L102.8,68.8z"/>
<path class="st66" d="M129.8,65l11.4-1.6l6.3,10.5c0,0-3.3,11.8,7.4,21.4c0,0,4.2,13.4,4.2,23.3"/>
<line class="st66" x1="115.8" y1="67" x2="102.8" y2="68.8"/>
<path class="st66" d="M147.6,73.9c0,0,3.7-3.7,6.1-4.8"/>
<line class="st66" x1="155" y1="95.3" x2="160.6" y2="92.2"/>
<path class="st68" d="M131.2,80.2l-0.5,0.2c-3.5,1-7.2-0.5-9.1-3.6l-5.8-9.7l7.4-1L131.2,80.2z"/>
<path class="st68" d="M134.8,73.8l-4.9-8.8l-6.7,0.9l8,14.2l1.1-0.3c2.2-0.6,3.5-2.9,2.9-5.1C135,74.4,134.9,74.1,134.8,73.8z
	 M131.8,71.7c-0.3,0.8-1.2,1.2-2,0.9c-1-0.2-1.6-0.9-1.5-1.7c0.3-0.8,1.2-1.2,2-0.9C131.2,70.3,131.9,71,131.8,71.7z"/>
<line class="st66" x1="123.1" y1="65.9" x2="123.1" y2="65.9"/>
<path class="st69" d="M131.8,71.7c-0.3,0.8-1.2,1.2-2,0.9c-1-0.2-1.6-0.9-1.5-1.7c0.3-0.8,1.2-1.2,2-0.9
	C131.2,70.3,131.9,71,131.8,71.7z"/>
<path class="st70" d="M92.5,121.5v1.4c0,1,0.6,1.9,1.6,2.3l38.4,14.4c1.4,0.5,2.9,0.4,4.3-0.3l24.9-13.3c0.8-0.4,1.3-1.4,1.2-2.3
	l-0.1-1L134.5,137L92.5,121.5z"/>
<path class="st71" d="M162.7,122.5l-25.4,13.7c-1.8,1-4,1.1-6,0.4l-38.1-15c-0.5-0.2-0.7-0.7-0.5-1.2c0.1-0.2,0.3-0.4,0.5-0.5
	l25.9-11.7c1.2-0.5,2.5-0.6,3.7-0.2l40,13.4c0.3,0.1,0.4,0.4,0.3,0.7C162.9,122.3,162.8,122.4,162.7,122.5z"/>
<polygon class="st72" points="101.5,122.2 124.2,130.7 143.7,118.5 122.6,110.5 "/>
<path class="st46" d="M141.5,124.8h-0.3c-1.5-0.1-2.7-1.5-2.6-3c0.1-1.2,1-2.2,2.1-2.5c7.6-1.9,12.4-5.8,14.3-11.4
	c0.8-2.5,1-5.2,0.6-7.8c-0.2-0.7,0-1.5,0.4-2.1c0.4-0.6,1-1.1,1.8-1.2c0.2,0,0.4-0.1,0.6-0.1c1.3,0,2.5,0.9,2.7,2.2
	c0.6,3.6,0.4,7.3-0.8,10.8c-1.7,5.2-6.3,12.1-18.3,15.1C142,124.7,141.7,124.8,141.5,124.8z"/>
<path d="M158.5,96.9c1.2,0,2.2,0.8,2.5,2c0.6,3.6,0.4,7.2-0.8,10.7c-1.7,5.2-6.2,11.9-18.1,14.9c-0.2,0.1-0.4,0.1-0.6,0.1h-0.2
	c-1.4-0.2-2.4-1.5-2.2-2.9c0.1-1,0.8-1.9,1.8-2.1c7.7-2,12.6-5.8,14.5-11.6c0.8-2.6,1-5.3,0.6-7.9c-0.3-1.4,0.6-2.7,1.9-3.1
	c0,0,0,0,0,0C158.1,96.9,158.3,96.9,158.5,96.9 M158.5,96.4L158.5,96.4c-0.2,0-0.4,0-0.7,0.1c-1.6,0.4-2.7,2-2.3,3.7
	c0.4,2.6,0.2,5.2-0.6,7.7c-1.8,5.5-6.6,9.3-14.1,11.2c-0.8,0.2-1.5,0.7-1.9,1.4c-0.4,0.7-0.5,1.5-0.3,2.3c0.3,1.3,1.4,2.2,2.7,2.3
	h0.3c0.3,0,0.5,0,0.8-0.1c12.1-3.1,16.7-10,18.4-15.3c1.2-3.5,1.4-7.3,0.8-10.9C161.1,97.4,159.9,96.4,158.5,96.4L158.5,96.4z"/>
<g>
	<defs>
		<path id="SVGID_3_" d="M125.2,101.3c0,0,2.4,6.1,2.6,9.7l-6.7,6.2l-11.4,6.7l-6.6-1.1c0,0-4.7-0.5-4.8-2.5s1-11.8,1-11.8l4.5-11.3
			l8.5-0.1L125.2,101.3z"/>
	</defs>
	<clipPath id="SVGID_4_">
		<use xlink:href="#SVGID_3_"  style="overflow:visible;"/>
	</clipPath>
	<g class="st73">
		<path class="st46" d="M114.8,115.8h-0.3c-1.2-0.1-2.2-1-2.5-2.1c-0.4-1.5,0.5-3,2-3.4c7.6-1.9,12.4-5.8,14.3-11.4
			c0.8-2.5,1-5.2,0.6-7.8c-0.2-0.7,0-1.5,0.4-2.1c0.4-0.6,1-1.1,1.8-1.2c0.2,0,0.4-0.1,0.6-0.1c1.3,0,2.5,0.9,2.7,2.2
			c0.6,3.6,0.4,7.3-0.8,10.8c-1.7,5.2-6.3,12.1-18.3,15.1C115.2,115.7,115,115.8,114.8,115.8z"/>
		<path d="M131.7,87.8c1.2,0,2.2,0.8,2.5,2c0.6,3.6,0.4,7.2-0.8,10.7c-1.7,5.1-6.2,11.9-18.1,14.9c-0.2,0.1-0.4,0.1-0.6,0.1h-0.2
			c-1.4-0.2-2.4-1.5-2.2-2.9c0.1-1,0.8-1.9,1.8-2.1c7.7-1.9,12.6-5.8,14.5-11.6c0.8-2.6,1-5.3,0.6-7.9c-0.3-1.4,0.6-2.8,2-3.1
			c0,0,0,0,0,0C131.4,87.9,131.6,87.9,131.7,87.8 M131.8,87.4c-0.2,0-0.4,0-0.7,0.1c-1.6,0.4-2.7,2-2.3,3.7c0.4,2.6,0.2,5.2-0.6,7.7
			c-1.8,5.5-6.6,9.3-14.1,11.2c-1.6,0.4-2.6,2.1-2.2,3.7c0.3,1.2,1.4,2.1,2.6,2.3h0.3c0.3,0,0.5,0,0.8-0.1
			c12.1-3.1,16.7-10,18.4-15.3c1.2-3.5,1.4-7.3,0.8-10.9C134.5,88.4,133.2,87.4,131.8,87.4L131.8,87.4z"/>
	</g>
</g>
<path class="st74" d="M144.2,123.3c-0.2-1.6-1-3-2.3-3.9c-0.5-0.4-1.2-0.7-1.9-0.8c-0.7-0.1-1.4,0.1-1.8,0.7
	c-0.1,0.2-0.2,0.4-0.3,0.6c-1.2-0.3-2.4-0.2-3.6,0.2c-0.4-0.1-3.1-0.9-4.3,0.5c-0.6,0.7-0.7,1.7-0.3,2.5c-1.3,0.8-2.3,2-2.8,3.5
	c-0.2,0.6-0.2,1.2,0,1.8c0.2,0.6,0.7,1.1,1.3,1.2c-0.1,0.9,0.3,1.7,1.1,2.1c0.5,0.3,1.4,0.4,2.2-0.7l0,0c0.7-1,1.4-1.8,2.3-2.6
	c-0.9,1-1.3,2.3-1.1,3.5c0.1,0.5,0.3,0.9,0.6,1.3c0.3,0.3,0.6,0.5,1,0.5c0.3,0,0.5-0.1,0.8-0.3c0.3-0.2,0.6-0.6,0.8-0.9
	c0.4-1,0.9-2,1.6-2.8c2.1,0.3,4.2-0.9,4.8-3c0-0.1,0-0.1,0.1-0.2h0.2c0.6,0,1.2-0.4,1.4-1C144.1,124.7,144.2,124,144.2,123.3z
	 M143.4,125.1c-0.3,0.6-0.7,0.9-1.2,0.8c0.2-0.8,0.1-1.7-0.1-2.5c0-0.1-0.1-0.1-0.2-0.1c-0.1,0-0.1,0.1-0.1,0.2
	c0.3,0.9,0.3,1.9,0,2.9c-0.6,1.9-2.5,3.1-4.4,2.7c-0.1,0-0.1,0-0.2,0c-0.7,0.9-1.3,1.9-1.7,3c-0.1,0.3-0.3,0.6-0.6,0.8
	c-0.4,0.3-1,0.3-1.3-0.1c0,0,0,0,0,0c-0.3-0.3-0.4-0.7-0.5-1.1c-0.4-2.5,2-4.3,2.7-4.8c0.1-0.1,0.1-0.2,0.1-0.3
	c0-0.1-0.2-0.1-0.3-0.1c-2.2,0.9-4.2,3.9-4.4,4.1c-0.6,0.7-1.2,0.9-1.8,0.6c-0.6-0.4-1-1.1-0.9-1.8c0.4-2.9,5.2-5.2,5.3-5.2
	c0.1,0,0.1-0.2,0.1-0.3c0-0.1-0.1-0.1-0.2-0.1c0,0,0,0,0,0c-0.2,0.1-4.8,2.2-5.4,5.1c-0.6-0.1-0.8-0.4-1-0.9c-0.2-0.5-0.2-1.1,0-1.6
	c0.5-1.4,1.4-2.6,2.7-3.3h0.1h0.1c0.1,0,0.1-0.1,0.1-0.1c1.3-0.7,2.7-1.2,4.1-1.4c0.1,0,0.2-0.1,0.2-0.2c0-0.1-0.1-0.2-0.2-0.2
	c0,0,0,0,0,0c-1.5,0.2-2.9,0.7-4.2,1.4c-0.3-0.7-0.2-1.5,0.3-2.1c1.1-1.3,3.9-0.3,3.9-0.3h0.1c1.2-0.4,2.4-0.4,3.6-0.2h0.1l0,0
	c0.8,0.2,1.5,0.6,2.1,1.2c0.1,0.1,0.2,0.1,0.3,0c0.1-0.1,0.1-0.2,0-0.3l0,0c-0.6-0.6-1.4-1.1-2.2-1.3c0.2-0.7,0.9-1.2,1.7-1
	c0,0,0,0,0,0c0.6,0.1,1.2,0.3,1.7,0.7c1.2,0.9,2,2.2,2.2,3.7C143.9,123.8,143.8,124.5,143.4,125.1z"/>
<path class="st1" d="M143.4,125.1c-0.3,0.6-0.7,0.9-1.2,0.8c0.2-0.8,0.1-1.7-0.1-2.5c0-0.1-0.1-0.1-0.2-0.1c-0.1,0-0.1,0.1-0.1,0.2
	c0.3,0.9,0.3,1.9,0,2.9c-0.6,1.9-2.5,3.1-4.4,2.7c-0.1,0-0.1,0-0.2,0c-0.7,0.9-1.3,1.9-1.7,3c-0.1,0.3-0.3,0.6-0.6,0.8
	c-0.4,0.3-1,0.3-1.3-0.1c0,0,0,0,0,0c-0.3-0.3-0.4-0.7-0.5-1.1c-0.4-2.5,2-4.3,2.7-4.8c0.1-0.1,0.1-0.2,0.1-0.3
	c0-0.1-0.2-0.1-0.3-0.1c-2.2,0.9-4.2,3.9-4.4,4.1c-0.6,0.7-1.2,0.9-1.8,0.6c-0.6-0.4-1-1.1-0.9-1.8c0.4-2.9,5.2-5.2,5.3-5.2
	c0.1,0,0.1-0.2,0.1-0.3c0-0.1-0.1-0.1-0.2-0.1c0,0,0,0,0,0c-0.2,0.1-4.8,2.2-5.4,5.1c-0.6-0.1-0.8-0.4-1-0.9c-0.2-0.5-0.2-1.1,0-1.6
	c0.5-1.4,1.4-2.6,2.7-3.3h0.1h0.1c0.1,0,0.1-0.1,0.1-0.1c1.3-0.7,2.7-1.2,4.1-1.4c0.1,0,0.2-0.1,0.2-0.2c0-0.1-0.1-0.2-0.2-0.2
	c0,0,0,0,0,0c-1.5,0.2-2.9,0.7-4.2,1.4c-0.3-0.7-0.2-1.5,0.3-2.1c1.1-1.3,3.9-0.3,3.9-0.3h0.1c1.2-0.4,2.4-0.4,3.6-0.2h0.1l0,0
	c0.8,0.2,1.5,0.6,2.1,1.2c0.1,0.1,0.2,0.1,0.3,0c0.1-0.1,0.1-0.2,0-0.3l0,0c-0.6-0.6-1.4-1.1-2.2-1.3c0.2-0.7,0.9-1.2,1.7-1
	c0,0,0,0,0,0c0.6,0.1,1.2,0.3,1.7,0.7c1.2,0.9,2,2.2,2.2,3.7C143.9,123.8,143.8,124.5,143.4,125.1z"/>
<path class="st75" d="M108.7,119.9c0,0,6.2,1.5,5.7-5.5"/>
<path class="st75" d="M105,111.3c0,0,2.5,0.6,3.1,2.3c0.3,0.7,0.1,1.6-0.5,2.1c-0.6,0.5-1.6,0.7-3.2-0.7c0,0-3.5-3-0.1-5.2
	c0.5-0.3,1.1-0.6,1.7-0.7c1.9-0.5,6.8-1.1,8.2,3.3"/>
<path class="st1" d="M115.8,116.1c-0.2,0.4-0.5,0.8-0.9,1c-0.2,0.1-0.4,0.2-0.6,0.2c0.3-1,0.4-2,0.3-3c0-0.1-0.1-0.2-0.2-0.2
	s-0.2,0.1-0.2,0.2c0,0,0,0,0,0c0.1,2.1-0.3,3.7-1.4,4.6c-1.2,0.8-2.6,1.1-4,0.8c0-0.2,0-0.4-0.1-0.6c-0.1-0.3-0.3-0.6-0.6-0.8
	c0.3-0.2,0.4-0.5,0.5-0.8c0.1-0.8,0-1.6-0.5-2.2c0.3-0.6,0.4-1.2,0.1-1.8c-0.7-1.7-3.2-2.4-3.3-2.4c-0.1,0-0.2,0-0.2,0.1
	c0,0.1,0,0.2,0.1,0.2c0,0,2.4,0.6,3,2.2c0.2,0.5,0.2,1.1-0.1,1.6l0,0c-0.1,0.1-0.2,0.2-0.3,0.3c-0.7,0.6-1.8,0.4-3-0.7
	c0,0-1.6-1.4-1.5-2.9c0.1-0.8,0.6-1.6,1.4-2c0.5-0.3,1.1-0.6,1.7-0.7c2-0.5,6.6-1.1,8,3.2c0,0.1,0.1,0.2,0.2,0.1c0,0,0,0,0,0
	c0.1,0,0.2-0.1,0.1-0.2c0,0,0,0,0,0c-0.3-1-0.9-1.9-1.7-2.5c0.9-0.3,1.8,0.1,2.3,0.8l0,0C115,110.5,117.1,113.3,115.8,116.1z"/>
<path class="st75" d="M112.3,109.6c1-0.4,2.2-0.1,2.8,0.8c0,0,2.2,2.8,0.8,5.8c-0.2,0.5-0.6,0.9-1,1.1c-0.3,0.2-0.6,0.2-0.9,0.1"/>
<path class="st76" d="M109.1,104.2L109.1,104.2l2.7,16.3l-3.9,0.6l-2.7-16.3c0-0.1,0-0.3,0.2-0.3c1-0.6,2.2-0.8,3.4-0.6
	C109,103.9,109.1,104.1,109.1,104.2z"/>
<rect x="105.7" y="106.3" transform="matrix(0.9868 -0.1618 0.1618 0.9868 -15.9263 18.8268)" class="st77" width="3.9" height="1.8"/>
<rect x="107.6" y="118" transform="matrix(0.9868 -0.1618 0.1618 0.9868 -17.7979 19.2906)" class="st77" width="3.9" height="1.8"/>
<path class="st78" d="M110.8,124.7l1-4.1c0,0,0-0.1,0-0.1l-3.8,0.6c0,0,0,0,0,0.1l2.3,3.6L110.8,124.7z"/>
<path class="st75" d="M105,111.3c0,0,2.5,0.6,3.1,2.3c0.3,0.7,0.1,1.6-0.5,2.1c-0.6,0.5-1.6,0.7-3.2-0.7c-0.8-0.7-1.4-1.7-1.6-2.8"
	/>
<path class="st1" d="M112.2,115.7c-0.7,0.6-1.8,0.6-2.4-0.1c0,0,0,0,0,0c-1.5-2.2,0.2-4.2,0.8-4.8l1.2,1.6c0,0,0.1,0.1,0.2,0.1h0.1
	l0.2-0.1c0.3,0.4,0.4,0.9,0.5,1.4C112.9,114.4,112.7,115.1,112.2,115.7z"/>
<path class="st1" d="M107.5,115.5c-0.7,0.6-1.8,0.4-3-0.7c-0.7-0.6-1.2-1.3-1.4-2.2l2-1.2c0.5,0.2,2.3,0.8,2.9,2.1
	C108.3,114.3,108.1,115,107.5,115.5z"/>
<path class="st75" d="M110.6,110.4c0,0-2.9,2.5-1,5.2c0.7,0.8,1.9,0.9,2.7,0.2c0,0,0,0,0,0c0.5-0.6,0.7-1.4,0.5-2.1
	c0-0.6-0.3-1.2-0.6-1.7"/>
<path class="st1" d="M108.3,120.4c-0.7,1.1-2.7,0.4-2.9,0.3c-1.4-0.6-2.1-2.1-1.8-3.5c0.8,0.9,1.8,1.4,3,1.5c0.4,0,0.8-0.1,1.1-0.2
	c0.3,0.1,0.5,0.4,0.6,0.7C108.5,119.7,108.5,120.1,108.3,120.4z"/>
<path class="st1" d="M108.3,117.4c0,0.3-0.2,0.5-0.4,0.7c-2,1.1-4-1.1-4-1.1c-0.7-0.8-0.9-1.9-0.6-2.9c0.3,0.4,0.6,0.8,1,1.1
	c0.6,0.6,1.5,1,2.3,1.1c0.4,0,0.8-0.1,1.1-0.4l0.2-0.2C108.3,116.1,108.5,116.8,108.3,117.4z"/>
<path class="st75" d="M103.3,113.6c-0.5,1.1-0.3,2.5,0.5,3.4c0,0,2,2.3,4.2,1.2c0.7-0.3,0.9-1.7,0-3"/>
<path class="st75" d="M103.6,116.8c0,0-0.8,3.1,1.8,4.1c0.7,0.3,2.4,0.7,3.1-0.4c0.3-0.4,0.3-0.9,0.2-1.3c-0.1-0.4-0.4-0.7-0.8-0.9"
	/>
<path class="st1" d="M131.8,101c-2.3,0.9-5.2-0.9-6.6-4c1-0.2,1.9-0.5,2.8-0.9c2.1-0.8,3.9-2.1,5.3-3.8l0.1-0.2
	c0.1,0.3,0.3,0.6,0.4,0.9C135.1,96.5,134.2,100.1,131.8,101z"/>
<path class="st79" d="M133.4,92.1l-0.1,0.2c-1.4,1.7-3.3,3-5.3,3.8c-0.9,0.4-1.8,0.7-2.8,0.9c-0.1-0.2-0.1-0.3-0.2-0.5
	c-0.6-1.6-0.8-3.3-0.4-4.9c0.3-1.3,1.2-2.5,2.4-3c0.6-0.2,1.3-0.3,2-0.1C130.9,88.9,132.6,90.3,133.4,92.1z"/>
<path class="st1" d="M145.8,94.1c-0.5,2.3-2.7,3.8-5.1,3.4c-0.6-0.1-1.2-0.4-1.7-0.8c-1.5-1-2.6-2.4-3.1-4c-0.2-0.5-0.4-1.1-0.5-1.7
	h0.1c0.4,0.2,0.9,0.3,1.4,0.4c1.7,0.3,3.5,0.3,5.2,0c1.3-0.2,2.6-0.6,3.8-1.2C146.2,91.5,146.1,92.9,145.8,94.1z"/>
<path class="st79" d="M145.8,90.3c-1.2,0.6-2.5,0.9-3.8,1.2c-2.2,0.4-4.4,0.3-6.5-0.4l-0.1-0.1c-0.5-3,0.6-5.7,2.8-6.5
	c0.7-0.3,1.5-0.3,2.3-0.2c2.4,0.7,4.2,2.4,5,4.8C145.6,89.4,145.7,89.9,145.8,90.3z"/>
<ellipse transform="matrix(0.9343 -0.3566 0.3566 0.9343 -23.1586 56.1222)" class="st80" cx="140.6" cy="90.9" rx="5.2" ry="6.9"/>
<path class="st80" d="M125.2,97c0,0,5.6-1.2,8.2-4.9"/>
<path class="st80" d="M135.4,91c0,0,4.5,1.8,10.5-0.7"/>
<ellipse transform="matrix(0.1978 -0.9802 0.9802 0.1978 19.6123 214.0076)" class="st81" cx="140.6" cy="95" rx="2.4" ry="2.5"/>
<circle class="st1" cx="141.4" cy="93.9" r="0.8"/>
<ellipse transform="matrix(0.1978 -0.9802 0.9802 0.1978 7.4409 206.8973)" class="st81" cx="130.1" cy="98.9" rx="2.4" ry="2.5"/>
<circle class="st1" cx="131" cy="97.8" r="0.8"/>
<ellipse transform="matrix(0.9343 -0.3566 0.3566 0.9343 -25.2895 52.3602)" class="st80" cx="129.4" cy="94.8" rx="4.8" ry="6.7"/>
<path class="st82" d="M136.2,107.8c-0.4,0.1-0.8,0.1-1.1-0.2c-0.5-0.4-0.6-1.1-0.3-1.6c2.2-3,6-4.4,9.6-3.7c0.6,0.1,1,0.8,0.9,1.4
	c-0.1,0.6-0.7,1-1.4,0.9c0,0,0,0,0,0c-2.7-0.6-5.6,0.5-7.2,2.8C136.6,107.5,136.4,107.7,136.2,107.8z"/>
<path class="st83" d="M144.3,103.8c-0.1,0-0.1,0-0.2,0c-3-0.6-6.2,0.6-8,3.1c-0.1,0.2-0.4,0.2-0.5,0.1c-0.2-0.1-0.2-0.4-0.1-0.6
	c2-2.8,5.5-4.1,8.8-3.4c0.2,0,0.3,0.3,0.3,0.5C144.6,103.7,144.5,103.8,144.3,103.8z"/>
</svg>
