<svg xmlns="http://www.w3.org/2000/svg" viewBox="0 0 399.98 84.15"><defs><style>.cls-1{fill:#cf5c05;}.cls-2{fill:#fff;}.cls-3,.cls-4{fill:none;stroke-width:5px;}.cls-3{stroke:#32b228;stroke-linejoin:round;}.cls-4{stroke:#fff;}.cls-5{fill:#32b228;}</style></defs><title>t1</title><g id="Layer_2" data-name="Layer 2"><g id="pestaña_identificativa" data-name="pestaña identificativa"><rect class="cls-1" width="399.98" height="84.15" rx="32.4"/><path class="cls-2" d="M76.49,34.84a2.42,2.42,0,0,1-1.32-.28,1.09,1.09,0,0,1-.49-.72,4.73,4.73,0,0,1-.09-.93V19.26a4.45,4.45,0,0,1,.1-.91,1.19,1.19,0,0,1,.5-.71,2.37,2.37,0,0,1,1.33-.28h5.12a6.3,6.3,0,0,1,2.1.38,6.18,6.18,0,0,1,2,1.16,5.9,5.9,0,0,1,2,4.64,5.74,5.74,0,0,1-2,4.6,6.21,6.21,0,0,1-2,1.15,6.46,6.46,0,0,1-2.13.37h-3.2v3.28a4.53,4.53,0,0,1-.1.91,1.19,1.19,0,0,1-.5.71A2.37,2.37,0,0,1,76.49,34.84Zm1.93-9h3.23a2.67,2.67,0,0,0,1.09-.23,2.24,2.24,0,0,0,.9-.76,2.65,2.65,0,0,0,0-2.58,2.2,2.2,0,0,0-.84-.82,2.43,2.43,0,0,0-1.22-.31h-3.2Z"/><path class="cls-2" d="M91.77,34.85a2.41,2.41,0,0,1-1.32-.27,1.09,1.09,0,0,1-.47-.71,4.73,4.73,0,0,1-.09-.93V24.22a4.59,4.59,0,0,1,.09-.93,1,1,0,0,1,.49-.68,2.42,2.42,0,0,1,1.32-.26,2.63,2.63,0,0,1,1.26.23,1.1,1.1,0,0,1,.49.55,1.73,1.73,0,0,1,.1.54l-.3.15a2.48,2.48,0,0,1,.26-.36,3.2,3.2,0,0,1,.59-.55,3.71,3.71,0,0,1,.91-.49,3.62,3.62,0,0,1,1.24-.2c.18,0,.39,0,.61,0a4.62,4.62,0,0,1,.7.15,3.32,3.32,0,0,1,.66.3,1.67,1.67,0,0,1,.49.46,1.16,1.16,0,0,1,.19.68,3.06,3.06,0,0,1-.48,1.74,1.4,1.4,0,0,1-1.2.71,2.11,2.11,0,0,1-.6-.06,1.77,1.77,0,0,1-.28-.15,1.17,1.17,0,0,0-.27-.15,1.39,1.39,0,0,0-.55-.07,2.77,2.77,0,0,0-.71.1,2.31,2.31,0,0,0-.63.31,1.49,1.49,0,0,0-.61,1.24V33a4.53,4.53,0,0,1-.09.91,1,1,0,0,1-.49.69A2.67,2.67,0,0,1,91.77,34.85Z"/><path class="cls-2" d="M107.17,35.08a7.17,7.17,0,0,1-3-.58A5.93,5.93,0,0,1,102.09,33a6.4,6.4,0,0,1-1.19-2.09,6.88,6.88,0,0,1-.4-2.3,6.38,6.38,0,0,1,.85-3.32A6,6,0,0,1,103.71,23a7,7,0,0,1,3.46-.84,6.44,6.44,0,0,1,2.52.47,5.23,5.23,0,0,1,1.75,1.2,5.07,5.07,0,0,1,1,1.59A4.32,4.32,0,0,1,112.8,27a2.82,2.82,0,0,1-.67,2,2.26,2.26,0,0,1-1.69.68h-6a1.78,1.78,0,0,0,.47,1.08,2.81,2.81,0,0,0,1,.7,3.5,3.5,0,0,0,1.33.25,8.22,8.22,0,0,0,1-.06,3.6,3.6,0,0,0,.78-.18c.22-.07.42-.15.59-.22s.34-.14.49-.19a2.41,2.41,0,0,1,.43-.1,1.08,1.08,0,0,1,.67.21,1.94,1.94,0,0,1,.57.72,1.71,1.71,0,0,1,.24.52,2.2,2.2,0,0,1,.06.5,1.34,1.34,0,0,1-.61,1.09,4.83,4.83,0,0,1-1.73.74A11.47,11.47,0,0,1,107.17,35.08Zm-2.67-7.4h4a.92.92,0,0,0,.57-.14.61.61,0,0,0,.2-.53,1.23,1.23,0,0,0-.27-.78,1.87,1.87,0,0,0-.74-.54,3.2,3.2,0,0,0-2.44.11,2.47,2.47,0,0,0-.94.8A2,2,0,0,0,104.5,27.68Z"/><path class="cls-2" d="M116.61,40a2.4,2.4,0,0,1-1.3-.27,1,1,0,0,1-.47-.67,5,5,0,0,1-.08-.89v-14a5.14,5.14,0,0,1,.08-.91,1.09,1.09,0,0,1,.46-.69,2.34,2.34,0,0,1,1.29-.27,2.89,2.89,0,0,1,1.24.23,1.37,1.37,0,0,1,.66.7v14.9a3,3,0,0,1-.08.9,1.1,1.1,0,0,1-.48.68A2.41,2.41,0,0,1,116.61,40Zm4.81-5.4a4.39,4.39,0,0,1-3.69-1.82,5.75,5.75,0,0,1-.92-1.93,8,8,0,0,1-.29-2.38,8.17,8.17,0,0,1,.33-2.34,6.3,6.3,0,0,1,.94-2,4.19,4.19,0,0,1,1.52-1.35,4.47,4.47,0,0,1,2.11-.49,4.88,4.88,0,0,1,2.15.5,6.45,6.45,0,0,1,3.11,3.36,6.15,6.15,0,0,1,.47,2.37,6,6,0,0,1-.47,2.36,6,6,0,0,1-3.09,3.23A5.19,5.19,0,0,1,121.42,34.64Zm-.5-3.53a2.38,2.38,0,0,0,1.25-.33,2.62,2.62,0,0,0,.89-.92,2.49,2.49,0,0,0,.34-1.27,2.54,2.54,0,0,0-.33-1.28,2.4,2.4,0,0,0-.89-.9,2.45,2.45,0,0,0-1.23-.32,2.4,2.4,0,0,0-1.24.33,2.45,2.45,0,0,0-.88.9,2.57,2.57,0,0,0-.31,1.27,2.6,2.6,0,0,0,.32,1.27,2.41,2.41,0,0,0,.88.91A2.2,2.2,0,0,0,120.92,31.11Z"/><path class="cls-2" d="M139.39,34.85a2.3,2.3,0,0,1-1.37-.33.88.88,0,0,1-.43-.8l.25-.42a3,3,0,0,1-.57.61,4.25,4.25,0,0,1-2.78.94,5,5,0,0,1-2.19-.5A6,6,0,0,1,130.47,33a7.21,7.21,0,0,1-1.28-2,6.15,6.15,0,0,1-.47-2.37,5.83,5.83,0,0,1,.48-2.34,6.58,6.58,0,0,1,3.12-3.34,5,5,0,0,1,2.18-.49,4.1,4.1,0,0,1,1.57.26,4.15,4.15,0,0,1,1.09.61,3.45,3.45,0,0,1,.66.68l-.22-.35a1,1,0,0,1,.44-.91,2.38,2.38,0,0,1,1.38-.32,2.33,2.33,0,0,1,1.29.28,1.14,1.14,0,0,1,.48.73,5.7,5.7,0,0,1,.08.95V33a4.73,4.73,0,0,1-.09.93,1.09,1.09,0,0,1-.48.71A2.48,2.48,0,0,1,139.39,34.85ZM135,31.12a2.21,2.21,0,0,0,1.2-.33,2.6,2.6,0,0,0,.85-.92,2.65,2.65,0,0,0,0-2.56A2.35,2.35,0,0,0,135,26.1a2.42,2.42,0,0,0-1.26.33,2.48,2.48,0,0,0-.9.92,2.44,2.44,0,0,0-.34,1.29,2.29,2.29,0,0,0,.34,1.24,2.41,2.41,0,0,0,.92.9A2.49,2.49,0,0,0,135,31.12Z"/><path class="cls-2" d="M145.64,34.88a2.37,2.37,0,0,1-1.31-.27,1.07,1.07,0,0,1-.48-.71,5.62,5.62,0,0,1-.08-.92V24.25a4.42,4.42,0,0,1,.09-.92,1,1,0,0,1,.49-.69,2.45,2.45,0,0,1,1.32-.26,2.52,2.52,0,0,1,1.27.24,1,1,0,0,1,.48.55,1.63,1.63,0,0,1,.1.53l-.3.15c0-.06.12-.18.26-.36a4,4,0,0,1,.59-.55,3.79,3.79,0,0,1,.92-.49,3.57,3.57,0,0,1,1.23-.19l.62,0a5.2,5.2,0,0,1,.7.15,3.32,3.32,0,0,1,.66.3,1.69,1.69,0,0,1,.49.47,1.2,1.2,0,0,1,.18.67,3.12,3.12,0,0,1-.47,1.74,1.42,1.42,0,0,1-1.2.71,2,2,0,0,1-.6-.06.87.87,0,0,1-.29-.15,1.1,1.1,0,0,0-.26-.15,1.72,1.72,0,0,0-.55-.06,2.84,2.84,0,0,0-.72.09,2.15,2.15,0,0,0-.62.32,1.45,1.45,0,0,0-.61,1.23V33a4.46,4.46,0,0,1-.09.91,1,1,0,0,1-.48.69A2.6,2.6,0,0,1,145.64,34.88Z"/><path class="cls-2" d="M165,34.86a2.31,2.31,0,0,1-1.37-.32.89.89,0,0,1-.43-.8l.25-.43a3,3,0,0,1-.57.62,4.66,4.66,0,0,1-1.12.65,4.34,4.34,0,0,1-1.66.28,5,5,0,0,1-2.19-.5A5.85,5.85,0,0,1,156.12,33a7,7,0,0,1-1.28-2,6.16,6.16,0,0,1-.47-2.38,5.82,5.82,0,0,1,.48-2.33A6.48,6.48,0,0,1,158,22.91a5,5,0,0,1,2.18-.5,4.09,4.09,0,0,1,1.57.27,3.88,3.88,0,0,1,1.09.61,3.43,3.43,0,0,1,.66.67l-.22-.35a1,1,0,0,1,.44-.91,2.39,2.39,0,0,1,1.38-.31,2.24,2.24,0,0,1,1.29.28,1.11,1.11,0,0,1,.48.72,5.8,5.8,0,0,1,.08.95V33a4.7,4.7,0,0,1-.09.92,1.07,1.07,0,0,1-.48.71A2.3,2.3,0,0,1,165,34.86Zm-4.37-3.72a2.21,2.21,0,0,0,1.2-.34,2.57,2.57,0,0,0,.85-.91,2.54,2.54,0,0,0,.32-1.28,2.46,2.46,0,0,0-.32-1.28,2.4,2.4,0,0,0-.87-.89,2.36,2.36,0,0,0-1.23-.33,2.33,2.33,0,0,0-1.26.34,2.53,2.53,0,0,0-1.24,2.21,2.34,2.34,0,0,0,.34,1.24,2.56,2.56,0,0,0,.92.9A2.59,2.59,0,0,0,160.67,31.14Z"/><path class="cls-2" d="M171.29,34.89a2.38,2.38,0,0,1-1.31-.26,1.07,1.07,0,0,1-.48-.71,4.73,4.73,0,0,1-.08-.93V24.27a4.52,4.52,0,0,1,.09-.93,1.08,1.08,0,0,1,.49-.69,2.54,2.54,0,0,1,1.32-.26,2.52,2.52,0,0,1,1.27.24,1,1,0,0,1,.48.55,1.73,1.73,0,0,1,.1.54l-.3.15a2,2,0,0,1,.26-.36,3.55,3.55,0,0,1,.59-.55,3.47,3.47,0,0,1,.92-.49,3.56,3.56,0,0,1,1.23-.2,4.45,4.45,0,0,1,.61,0,3.22,3.22,0,0,1,.71.15,2.47,2.47,0,0,1,.66.3,1.51,1.51,0,0,1,.48.46,1.16,1.16,0,0,1,.19.68,3.08,3.08,0,0,1-.47,1.73,1.41,1.41,0,0,1-1.2.72,1.66,1.66,0,0,1-.6-.07.87.87,0,0,1-.29-.15L175.7,26a1.72,1.72,0,0,0-.55-.06,2.46,2.46,0,0,0-.72.1,2.12,2.12,0,0,0-.62.31,1.54,1.54,0,0,0-.45.53,1.49,1.49,0,0,0-.17.71V33a4.56,4.56,0,0,1-.09.92,1,1,0,0,1-.48.68A2.6,2.6,0,0,1,171.29,34.89Z"/><path class="cls-2" d="M193.22,35.13a7.14,7.14,0,0,1-3-.58A5.72,5.72,0,0,1,188.14,33a6.51,6.51,0,0,1-1.2-2.09,7.09,7.09,0,0,1-.4-2.3,6.39,6.39,0,0,1,.86-3.32A6,6,0,0,1,189.76,23a7,7,0,0,1,3.46-.83,6.18,6.18,0,0,1,2.51.46,5.12,5.12,0,0,1,2.78,2.79,4.3,4.3,0,0,1,.33,1.62,2.82,2.82,0,0,1-.66,2.05,2.26,2.26,0,0,1-1.69.68h-6a1.78,1.78,0,0,0,.47,1.08,2.81,2.81,0,0,0,1,.7,3.5,3.5,0,0,0,1.33.25,7.94,7.94,0,0,0,1-.06,4.3,4.3,0,0,0,.79-.17l.59-.23.49-.19a2.53,2.53,0,0,1,.42-.1,1,1,0,0,1,.68.22,2.11,2.11,0,0,1,.57.71,1.71,1.71,0,0,1,.24.52,2.2,2.2,0,0,1,.06.5,1.34,1.34,0,0,1-.61,1.09,4.73,4.73,0,0,1-1.73.74A11.47,11.47,0,0,1,193.22,35.13Zm-2.68-7.4h4a1,1,0,0,0,.58-.13.65.65,0,0,0,.2-.54,1.21,1.21,0,0,0-.28-.78,1.77,1.77,0,0,0-.73-.54,3.27,3.27,0,0,0-2.44.12,2.38,2.38,0,0,0-.94.8A1.91,1.91,0,0,0,190.54,27.73Z"/><path class="cls-2" d="M205.74,34.91a14.41,14.41,0,0,1-1.83-.1,3.7,3.7,0,0,1-1.35-.4,2.47,2.47,0,0,1-.89-.84,3.84,3.84,0,0,1-.53-1.37,10.11,10.11,0,0,1-.17-2.06V18.59a4.42,4.42,0,0,1,.1-.93,1.18,1.18,0,0,1,.49-.7,2.41,2.41,0,0,1,1.32-.27,2.3,2.3,0,0,1,1.28.27,1.21,1.21,0,0,1,.49.7,4,4,0,0,1,.1.93V30a4.22,4.22,0,0,0,0,.67.9.9,0,0,0,.15.41.51.51,0,0,0,.31.2,2.44,2.44,0,0,0,.53.05,2.6,2.6,0,0,1,.61.07.89.89,0,0,1,.54.45,2.58,2.58,0,0,1,.22,1.25,2.92,2.92,0,0,1-.22,1.3.88.88,0,0,1-.54.48A2.73,2.73,0,0,1,205.74,34.91Z"/><path class="cls-2" d="M221.69,35.15a7.09,7.09,0,0,1-3-.58,5.84,5.84,0,0,1-2.06-1.51,6.25,6.25,0,0,1-1.2-2.09,6.88,6.88,0,0,1-.4-2.3,6.45,6.45,0,0,1,.85-3.33,6.23,6.23,0,0,1,2.36-2.28,7,7,0,0,1,3.47-.84,6.24,6.24,0,0,1,2.51.47,5.23,5.23,0,0,1,1.75,1.2,4.89,4.89,0,0,1,1,1.59,4.28,4.28,0,0,1,.34,1.62,2.82,2.82,0,0,1-.66,2,2.29,2.29,0,0,1-1.69.68H219a1.71,1.71,0,0,0,.46,1.08,2.77,2.77,0,0,0,1,.7,3.41,3.41,0,0,0,1.32.25,8.1,8.1,0,0,0,1-.06,3.7,3.7,0,0,0,.79-.18l.58-.22c.18-.08.34-.14.49-.19a2.41,2.41,0,0,1,.43-.1,1,1,0,0,1,.67.21,2.06,2.06,0,0,1,.58.72,1.93,1.93,0,0,1,.23.52,2.23,2.23,0,0,1,.07.5,1.35,1.35,0,0,1-.62,1.09,4.68,4.68,0,0,1-1.72.73A11,11,0,0,1,221.69,35.15ZM219,27.75H223a1,1,0,0,0,.57-.14c.14-.09.2-.27.2-.54a1.23,1.23,0,0,0-.27-.77,1.8,1.8,0,0,0-.74-.54,3.18,3.18,0,0,0-2.43.11,2.39,2.39,0,0,0-.94.8A1.87,1.87,0,0,0,219,27.75Z"/><path class="cls-2" d="M233.91,35.13a8,8,0,0,1-1.47-.15,8.79,8.79,0,0,1-1.54-.44,5.43,5.43,0,0,1-1.25-.67,1.28,1.28,0,0,1-.56-.89,1.41,1.41,0,0,1,0-.54,2.82,2.82,0,0,1,.23-.6,3.78,3.78,0,0,1,.44-.66.92.92,0,0,1,.43-.35,1.09,1.09,0,0,1,.59,0,3.15,3.15,0,0,1,.8.27c.27.12.54.26.83.4a8.41,8.41,0,0,0,.87.37,2.69,2.69,0,0,0,.93.17,2.17,2.17,0,0,0,1.08-.22.64.64,0,0,0,.39-.58.61.61,0,0,0-.16-.45,1.27,1.27,0,0,0-.45-.3,4.1,4.1,0,0,0-.68-.24,7.94,7.94,0,0,0-.81-.21c-.28-.07-.58-.15-.9-.25a7.78,7.78,0,0,1-1.18-.46,3.67,3.67,0,0,1-1-.71,3.15,3.15,0,0,1-.74-1.07,4,4,0,0,1-.28-1.57A3.54,3.54,0,0,1,230,24a3.48,3.48,0,0,1,1.66-1.26,7.39,7.39,0,0,1,2.7-.43,6.79,6.79,0,0,1,.9,0,5.38,5.38,0,0,1,.89.17c.29.09.58.19.86.3a6.16,6.16,0,0,1,.85.43,1.13,1.13,0,0,1,.78.95,2.1,2.1,0,0,1-.43,1.25,2,2,0,0,1-.57.59.9.9,0,0,1-.63.13,3.64,3.64,0,0,1-.86-.34c-.31-.15-.64-.3-1-.43a2.63,2.63,0,0,0-1-.2,2,2,0,0,0-.73.11,1,1,0,0,0-.45.3.71.71,0,0,0-.14.43.73.73,0,0,0,.18.52,1.58,1.58,0,0,0,.51.31,7.54,7.54,0,0,0,.75.23l.93.2a11.22,11.22,0,0,1,1.39.34,4.69,4.69,0,0,1,1.3.61,3,3,0,0,1,.94,1.07,3.68,3.68,0,0,1,.37,1.78,3.56,3.56,0,0,1-1.38,3A6.38,6.38,0,0,1,233.91,35.13Z"/><path class="cls-2" d="M243.09,40.11a2.48,2.48,0,0,1-1.3-.26,1,1,0,0,1-.48-.68,4.91,4.91,0,0,1-.07-.88v-14a5.1,5.1,0,0,1,.07-.91,1,1,0,0,1,.46-.69,2.34,2.34,0,0,1,1.29-.27,2.87,2.87,0,0,1,1.24.22,1.33,1.33,0,0,1,.66.7v14.9a3.29,3.29,0,0,1-.07.9,1.13,1.13,0,0,1-.49.69A2.5,2.5,0,0,1,243.09,40.11Zm4.8-5.4a4.6,4.6,0,0,1-2.15-.48,4.49,4.49,0,0,1-1.54-1.33,6.1,6.1,0,0,1-.92-1.94,9.1,9.1,0,0,1,0-4.71,6.71,6.71,0,0,1,.94-2,4.29,4.29,0,0,1,3.64-1.83,4.91,4.91,0,0,1,2.15.5,6.33,6.33,0,0,1,1.83,1.36,6.59,6.59,0,0,1,1.28,2,6.34,6.34,0,0,1,.46,2.38,6.26,6.26,0,0,1-1.73,4.3,5.66,5.66,0,0,1-1.83,1.28A5.15,5.15,0,0,1,247.89,34.71Zm-.5-3.52a2.3,2.3,0,0,0,1.25-.34,2.59,2.59,0,0,0,.89-.91,2.59,2.59,0,0,0,0-2.55,2.38,2.38,0,0,0-.88-.9,2.46,2.46,0,0,0-2.48,0,2.5,2.5,0,0,0-.87.9,2.64,2.64,0,0,0,0,2.54,2.38,2.38,0,0,0,.87.91A2.23,2.23,0,0,0,247.39,31.19Z"/><path class="cls-2" d="M265.86,34.93a2.4,2.4,0,0,1-1.37-.33.92.92,0,0,1-.43-.8l.25-.43a2.51,2.51,0,0,1-.57.62,4.58,4.58,0,0,1-1.11.65,4.39,4.39,0,0,1-1.67.28,5,5,0,0,1-2.18-.5A5.89,5.89,0,0,1,256.94,33a7,7,0,0,1-1.27-2,6,6,0,0,1-.48-2.38,5.82,5.82,0,0,1,.48-2.33,6.9,6.9,0,0,1,1.29-2A6.24,6.24,0,0,1,258.8,23a4.9,4.9,0,0,1,2.17-.5,4.14,4.14,0,0,1,1.58.27,4.24,4.24,0,0,1,1.08.61,3.51,3.51,0,0,1,.67.67l-.23-.35a1.05,1.05,0,0,1,.44-.91,2.4,2.4,0,0,1,1.39-.31,2.18,2.18,0,0,1,1.28.28,1.11,1.11,0,0,1,.48.72,4.86,4.86,0,0,1,.09.95V33a4.7,4.7,0,0,1-.09.92,1.06,1.06,0,0,1-.47.71A2.41,2.41,0,0,1,265.86,34.93Zm-4.37-3.73a2.13,2.13,0,0,0,1.2-.34,2.57,2.57,0,0,0,.85-.91,2.52,2.52,0,0,0,.33-1.28,2.46,2.46,0,0,0-.33-1.28,2.26,2.26,0,0,0-.87-.89,2.48,2.48,0,0,0-2.49,0,2.61,2.61,0,0,0-.9.91,2.57,2.57,0,0,0-.34,1.3,2.34,2.34,0,0,0,.34,1.24,2.56,2.56,0,0,0,.92.9A2.62,2.62,0,0,0,261.49,31.2Z"/><path class="cls-2" d="M276.41,35.06a6.37,6.37,0,0,1-2.23-.42,6.92,6.92,0,0,1-2.1-1.21,5.8,5.8,0,0,1-1.54-2,6.35,6.35,0,0,1-.57-2.75,6.2,6.2,0,0,1,.57-2.73,6.11,6.11,0,0,1,1.53-2,6.75,6.75,0,0,1,2.09-1.21,6.33,6.33,0,0,1,2.21-.41,6,6,0,0,1,1.66.21,5.41,5.41,0,0,1,1.25.51,3.87,3.87,0,0,1,.74.53,8.35,8.35,0,0,1,.75.65,1.05,1.05,0,0,1,.3.85,1.59,1.59,0,0,1-.18.56,4.36,4.36,0,0,1-.37.59c-.52.7-1,1-1.5.95a2.58,2.58,0,0,1-.69-.25l-.6-.35a5.86,5.86,0,0,0-.61-.32,2,2,0,0,0-.75-.13,2.56,2.56,0,0,0-1.3.33,2.61,2.61,0,0,0-.91.9,2.5,2.5,0,0,0-.34,1.32,2.53,2.53,0,0,0,.33,1.29,2.64,2.64,0,0,0,.9.92,2.49,2.49,0,0,0,1.27.34,2.72,2.72,0,0,0,.72-.1,2.59,2.59,0,0,0,.55-.24l.35-.21c.2-.14.39-.26.58-.37a1.12,1.12,0,0,1,.55-.16,1.2,1.2,0,0,1,.73.27,4,4,0,0,1,.82.83,2.07,2.07,0,0,1,.48,1,1.22,1.22,0,0,1-.21.86,2.56,2.56,0,0,1-.85.76,3.69,3.69,0,0,1-.71.45,6.77,6.77,0,0,1-1.25.5A5.76,5.76,0,0,1,276.41,35.06Z"/><path class="cls-2" d="M285.37,20.66a2.53,2.53,0,0,1-1.35-.27,1.18,1.18,0,0,1-.49-.73,5.8,5.8,0,0,1-.08-.95,4.75,4.75,0,0,1,.09-1,1,1,0,0,1,.5-.7,2.59,2.59,0,0,1,1.36-.26,2.41,2.41,0,0,1,1.32.27,1.14,1.14,0,0,1,.49.73,4.92,4.92,0,0,1,.09,1,4.73,4.73,0,0,1-.09.93,1.05,1.05,0,0,1-.49.71A2.62,2.62,0,0,1,285.37,20.66Zm0,14.3A2.54,2.54,0,0,1,284,34.7a1,1,0,0,1-.48-.7,5.41,5.41,0,0,1-.07-.91V24.36a4.46,4.46,0,0,1,.09-.91,1.06,1.06,0,0,1,.49-.7,2.49,2.49,0,0,1,1.33-.26,2.3,2.3,0,0,1,1.28.27,1.14,1.14,0,0,1,.48.72,4.6,4.6,0,0,1,.08.93v8.7a4.63,4.63,0,0,1-.09.92,1,1,0,0,1-.47.68A2.53,2.53,0,0,1,285.36,35Z"/><path class="cls-2" d="M295.91,35.17a6.21,6.21,0,0,1-2.33-.47,6.88,6.88,0,0,1-2.12-1.31,6.53,6.53,0,0,1-1.51-2,6.15,6.15,0,0,1-.56-2.64,6,6,0,0,1,.52-2.51,6.78,6.78,0,0,1,3.47-3.47,6.16,6.16,0,0,1,2.49-.51,6.33,6.33,0,0,1,3.26.86,6.56,6.56,0,0,1,2.34,2.34,6.71,6.71,0,0,1,.31,6,6.5,6.5,0,0,1-3.58,3.32A6.38,6.38,0,0,1,295.91,35.17Zm-.05-3.78a2.82,2.82,0,0,0,1.23-.3,2.67,2.67,0,0,0,1.05-.9,2.58,2.58,0,0,0,.43-1.52,2.77,2.77,0,0,0-.35-1.4,2.62,2.62,0,0,0-1-.94,3,3,0,0,0-1.42-.34,2.56,2.56,0,0,0-1.33.35,2.73,2.73,0,0,0-.95,1,2.63,2.63,0,0,0-.37,1.39,2.66,2.66,0,0,0,.41,1.51,2.49,2.49,0,0,0,1,.9A2.82,2.82,0,0,0,295.86,31.39Z"/><path class="cls-3" d="M76.49,34.84a2.42,2.42,0,0,1-1.32-.28,1.09,1.09,0,0,1-.49-.72,4.73,4.73,0,0,1-.09-.93V19.26a4.45,4.45,0,0,1,.1-.91,1.19,1.19,0,0,1,.5-.71,2.37,2.37,0,0,1,1.33-.28h5.12a6.3,6.3,0,0,1,2.1.38,6.18,6.18,0,0,1,2,1.16,5.9,5.9,0,0,1,2,4.64,5.74,5.74,0,0,1-2,4.6,6.21,6.21,0,0,1-2,1.15,6.46,6.46,0,0,1-2.13.37h-3.2v3.28a4.53,4.53,0,0,1-.1.91,1.19,1.19,0,0,1-.5.71A2.37,2.37,0,0,1,76.49,34.84Zm1.93-9h3.23a2.67,2.67,0,0,0,1.09-.23,2.24,2.24,0,0,0,.9-.76,2.65,2.65,0,0,0,0-2.58,2.2,2.2,0,0,0-.84-.82,2.43,2.43,0,0,0-1.22-.31h-3.2Z"/><path class="cls-3" d="M91.77,34.85a2.41,2.41,0,0,1-1.32-.27,1.09,1.09,0,0,1-.47-.71,4.73,4.73,0,0,1-.09-.93V24.22a4.59,4.59,0,0,1,.09-.93,1,1,0,0,1,.49-.68,2.42,2.42,0,0,1,1.32-.26,2.63,2.63,0,0,1,1.26.23,1.1,1.1,0,0,1,.49.55,1.73,1.73,0,0,1,.1.54l-.3.15a2.48,2.48,0,0,1,.26-.36,3.2,3.2,0,0,1,.59-.55,3.71,3.71,0,0,1,.91-.49,3.62,3.62,0,0,1,1.24-.2c.18,0,.39,0,.61,0a4.62,4.62,0,0,1,.7.15,3.32,3.32,0,0,1,.66.3,1.67,1.67,0,0,1,.49.46,1.16,1.16,0,0,1,.19.68,3.06,3.06,0,0,1-.48,1.74,1.4,1.4,0,0,1-1.2.71,2.11,2.11,0,0,1-.6-.06,1.77,1.77,0,0,1-.28-.15,1.17,1.17,0,0,0-.27-.15,1.39,1.39,0,0,0-.55-.07,2.77,2.77,0,0,0-.71.1,2.31,2.31,0,0,0-.63.31,1.49,1.49,0,0,0-.61,1.24V33a4.53,4.53,0,0,1-.09.91,1,1,0,0,1-.49.69A2.67,2.67,0,0,1,91.77,34.85Z"/><path class="cls-3" d="M107.17,35.08a7.17,7.17,0,0,1-3-.58A5.93,5.93,0,0,1,102.09,33a6.4,6.4,0,0,1-1.19-2.09,6.88,6.88,0,0,1-.4-2.3,6.38,6.38,0,0,1,.85-3.32A6,6,0,0,1,103.71,23a7,7,0,0,1,3.46-.84,6.44,6.44,0,0,1,2.52.47,5.23,5.23,0,0,1,1.75,1.2,5.07,5.07,0,0,1,1,1.59A4.32,4.32,0,0,1,112.8,27a2.82,2.82,0,0,1-.67,2,2.26,2.26,0,0,1-1.69.68h-6a1.78,1.78,0,0,0,.47,1.08,2.81,2.81,0,0,0,1,.7,3.5,3.5,0,0,0,1.33.25,8.22,8.22,0,0,0,1-.06,3.6,3.6,0,0,0,.78-.18c.22-.07.42-.15.59-.22s.34-.14.49-.19a2.41,2.41,0,0,1,.43-.1,1.08,1.08,0,0,1,.67.21,1.94,1.94,0,0,1,.57.72,1.71,1.71,0,0,1,.24.52,2.2,2.2,0,0,1,.06.5,1.34,1.34,0,0,1-.61,1.09,4.83,4.83,0,0,1-1.73.74A11.47,11.47,0,0,1,107.17,35.08Zm-2.67-7.4h4a.92.92,0,0,0,.57-.14.61.61,0,0,0,.2-.53,1.23,1.23,0,0,0-.27-.78,1.87,1.87,0,0,0-.74-.54,3.2,3.2,0,0,0-2.44.11,2.47,2.47,0,0,0-.94.8A2,2,0,0,0,104.5,27.68Z"/><path class="cls-3" d="M116.61,40a2.4,2.4,0,0,1-1.3-.27,1,1,0,0,1-.47-.67,5,5,0,0,1-.08-.89v-14a5.14,5.14,0,0,1,.08-.91,1.09,1.09,0,0,1,.46-.69,2.34,2.34,0,0,1,1.29-.27,2.89,2.89,0,0,1,1.24.23,1.37,1.37,0,0,1,.66.7v14.9a3,3,0,0,1-.08.9,1.1,1.1,0,0,1-.48.68A2.41,2.41,0,0,1,116.61,40Zm4.81-5.4a4.39,4.39,0,0,1-3.69-1.82,5.75,5.75,0,0,1-.92-1.93,8,8,0,0,1-.29-2.38,8.17,8.17,0,0,1,.33-2.34,6.3,6.3,0,0,1,.94-2,4.19,4.19,0,0,1,1.52-1.35,4.47,4.47,0,0,1,2.11-.49,4.88,4.88,0,0,1,2.15.5,6.45,6.45,0,0,1,3.11,3.36,6.15,6.15,0,0,1,.47,2.37,6,6,0,0,1-.47,2.36,6,6,0,0,1-3.09,3.23A5.19,5.19,0,0,1,121.42,34.64Zm-.5-3.53a2.38,2.38,0,0,0,1.25-.33,2.62,2.62,0,0,0,.89-.92,2.49,2.49,0,0,0,.34-1.27,2.54,2.54,0,0,0-.33-1.28,2.4,2.4,0,0,0-.89-.9,2.45,2.45,0,0,0-1.23-.32,2.4,2.4,0,0,0-1.24.33,2.45,2.45,0,0,0-.88.9,2.57,2.57,0,0,0-.31,1.27,2.6,2.6,0,0,0,.32,1.27,2.41,2.41,0,0,0,.88.91A2.2,2.2,0,0,0,120.92,31.11Z"/><path class="cls-3" d="M139.39,34.85a2.3,2.3,0,0,1-1.37-.33.88.88,0,0,1-.43-.8l.25-.42a3,3,0,0,1-.57.61,4.25,4.25,0,0,1-2.78.94,5,5,0,0,1-2.19-.5A6,6,0,0,1,130.47,33a7.21,7.21,0,0,1-1.28-2,6.15,6.15,0,0,1-.47-2.37,5.83,5.83,0,0,1,.48-2.34,6.58,6.58,0,0,1,3.12-3.34,5,5,0,0,1,2.18-.49,4.1,4.1,0,0,1,1.57.26,4.15,4.15,0,0,1,1.09.61,3.45,3.45,0,0,1,.66.68l-.22-.35a1,1,0,0,1,.44-.91,2.38,2.38,0,0,1,1.38-.32,2.33,2.33,0,0,1,1.29.28,1.14,1.14,0,0,1,.48.73,5.7,5.7,0,0,1,.08.95V33a4.73,4.73,0,0,1-.09.93,1.09,1.09,0,0,1-.48.71A2.48,2.48,0,0,1,139.39,34.85ZM135,31.12a2.21,2.21,0,0,0,1.2-.33,2.6,2.6,0,0,0,.85-.92,2.65,2.65,0,0,0,0-2.56A2.35,2.35,0,0,0,135,26.1a2.42,2.42,0,0,0-1.26.33,2.48,2.48,0,0,0-.9.92,2.44,2.44,0,0,0-.34,1.29,2.29,2.29,0,0,0,.34,1.24,2.41,2.41,0,0,0,.92.9A2.49,2.49,0,0,0,135,31.12Z"/><path class="cls-3" d="M145.64,34.88a2.37,2.37,0,0,1-1.31-.27,1.07,1.07,0,0,1-.48-.71,5.62,5.62,0,0,1-.08-.92V24.25a4.42,4.42,0,0,1,.09-.92,1,1,0,0,1,.49-.69,2.45,2.45,0,0,1,1.32-.26,2.52,2.52,0,0,1,1.27.24,1,1,0,0,1,.48.55,1.63,1.63,0,0,1,.1.53l-.3.15c0-.06.12-.18.26-.36a4,4,0,0,1,.59-.55,3.79,3.79,0,0,1,.92-.49,3.57,3.57,0,0,1,1.23-.19l.62,0a5.2,5.2,0,0,1,.7.15,3.32,3.32,0,0,1,.66.3,1.69,1.69,0,0,1,.49.47,1.2,1.2,0,0,1,.18.67,3.12,3.12,0,0,1-.47,1.74,1.42,1.42,0,0,1-1.2.71,2,2,0,0,1-.6-.06.87.87,0,0,1-.29-.15,1.1,1.1,0,0,0-.26-.15,1.72,1.72,0,0,0-.55-.06,2.84,2.84,0,0,0-.72.09,2.15,2.15,0,0,0-.62.32,1.45,1.45,0,0,0-.61,1.23V33a4.46,4.46,0,0,1-.09.91,1,1,0,0,1-.48.69A2.6,2.6,0,0,1,145.64,34.88Z"/><path class="cls-3" d="M165,34.86a2.31,2.31,0,0,1-1.37-.32.89.89,0,0,1-.43-.8l.25-.43a3,3,0,0,1-.57.62,4.66,4.66,0,0,1-1.12.65,4.34,4.34,0,0,1-1.66.28,5,5,0,0,1-2.19-.5A5.85,5.85,0,0,1,156.12,33a7,7,0,0,1-1.28-2,6.16,6.16,0,0,1-.47-2.38,5.82,5.82,0,0,1,.48-2.33A6.48,6.48,0,0,1,158,22.91a5,5,0,0,1,2.18-.5,4.09,4.09,0,0,1,1.57.27,3.88,3.88,0,0,1,1.09.61,3.43,3.43,0,0,1,.66.67l-.22-.35a1,1,0,0,1,.44-.91,2.39,2.39,0,0,1,1.38-.31,2.24,2.24,0,0,1,1.29.28,1.11,1.11,0,0,1,.48.72,5.8,5.8,0,0,1,.08.95V33a4.7,4.7,0,0,1-.09.92,1.07,1.07,0,0,1-.48.71A2.3,2.3,0,0,1,165,34.86Zm-4.37-3.72a2.21,2.21,0,0,0,1.2-.34,2.57,2.57,0,0,0,.85-.91,2.54,2.54,0,0,0,.32-1.28,2.46,2.46,0,0,0-.32-1.28,2.4,2.4,0,0,0-.87-.89,2.36,2.36,0,0,0-1.23-.33,2.33,2.33,0,0,0-1.26.34,2.53,2.53,0,0,0-1.24,2.21,2.34,2.34,0,0,0,.34,1.24,2.56,2.56,0,0,0,.92.9A2.59,2.59,0,0,0,160.67,31.14Z"/><path class="cls-3" d="M171.29,34.89a2.38,2.38,0,0,1-1.31-.26,1.07,1.07,0,0,1-.48-.71,4.73,4.73,0,0,1-.08-.93V24.27a4.52,4.52,0,0,1,.09-.93,1.08,1.08,0,0,1,.49-.69,2.54,2.54,0,0,1,1.32-.26,2.52,2.52,0,0,1,1.27.24,1,1,0,0,1,.48.55,1.73,1.73,0,0,1,.1.54l-.3.15a2,2,0,0,1,.26-.36,3.55,3.55,0,0,1,.59-.55,3.47,3.47,0,0,1,.92-.49,3.56,3.56,0,0,1,1.23-.2,4.45,4.45,0,0,1,.61,0,3.22,3.22,0,0,1,.71.15,2.47,2.47,0,0,1,.66.3,1.51,1.51,0,0,1,.48.46,1.16,1.16,0,0,1,.19.68,3.08,3.08,0,0,1-.47,1.73,1.41,1.41,0,0,1-1.2.72,1.66,1.66,0,0,1-.6-.07.87.87,0,0,1-.29-.15L175.7,26a1.72,1.72,0,0,0-.55-.06,2.46,2.46,0,0,0-.72.1,2.12,2.12,0,0,0-.62.31,1.54,1.54,0,0,0-.45.53,1.49,1.49,0,0,0-.17.71V33a4.56,4.56,0,0,1-.09.92,1,1,0,0,1-.48.68A2.6,2.6,0,0,1,171.29,34.89Z"/><path class="cls-3" d="M193.22,35.13a7.14,7.14,0,0,1-3-.58A5.72,5.72,0,0,1,188.14,33a6.51,6.51,0,0,1-1.2-2.09,7.09,7.09,0,0,1-.4-2.3,6.39,6.39,0,0,1,.86-3.32A6,6,0,0,1,189.76,23a7,7,0,0,1,3.46-.83,6.18,6.18,0,0,1,2.51.46,5.12,5.12,0,0,1,2.78,2.79,4.3,4.3,0,0,1,.33,1.62,2.82,2.82,0,0,1-.66,2.05,2.26,2.26,0,0,1-1.69.68h-6a1.78,1.78,0,0,0,.47,1.08,2.81,2.81,0,0,0,1,.7,3.5,3.5,0,0,0,1.33.25,7.94,7.94,0,0,0,1-.06,4.3,4.3,0,0,0,.79-.17l.59-.23.49-.19a2.53,2.53,0,0,1,.42-.1,1,1,0,0,1,.68.22,2.11,2.11,0,0,1,.57.71,1.71,1.71,0,0,1,.24.52,2.2,2.2,0,0,1,.06.5,1.34,1.34,0,0,1-.61,1.09,4.73,4.73,0,0,1-1.73.74A11.47,11.47,0,0,1,193.22,35.13Zm-2.68-7.4h4a1,1,0,0,0,.58-.13.65.65,0,0,0,.2-.54,1.21,1.21,0,0,0-.28-.78,1.77,1.77,0,0,0-.73-.54,3.27,3.27,0,0,0-2.44.12,2.38,2.38,0,0,0-.94.8A1.91,1.91,0,0,0,190.54,27.73Z"/><path class="cls-3" d="M205.74,34.91a14.41,14.41,0,0,1-1.83-.1,3.7,3.7,0,0,1-1.35-.4,2.47,2.47,0,0,1-.89-.84,3.84,3.84,0,0,1-.53-1.37,10.11,10.11,0,0,1-.17-2.06V18.59a4.42,4.42,0,0,1,.1-.93,1.18,1.18,0,0,1,.49-.7,2.41,2.41,0,0,1,1.32-.27,2.3,2.3,0,0,1,1.28.27,1.21,1.21,0,0,1,.49.7,4,4,0,0,1,.1.93V30a4.22,4.22,0,0,0,0,.67.9.9,0,0,0,.15.41.51.51,0,0,0,.31.2,2.44,2.44,0,0,0,.53.05,2.6,2.6,0,0,1,.61.07.89.89,0,0,1,.54.45,2.58,2.58,0,0,1,.22,1.25,2.92,2.92,0,0,1-.22,1.3.88.88,0,0,1-.54.48A2.73,2.73,0,0,1,205.74,34.91Z"/><path class="cls-3" d="M221.69,35.15a7.09,7.09,0,0,1-3-.58,5.84,5.84,0,0,1-2.06-1.51,6.25,6.25,0,0,1-1.2-2.09,6.88,6.88,0,0,1-.4-2.3,6.45,6.45,0,0,1,.85-3.33,6.23,6.23,0,0,1,2.36-2.28,7,7,0,0,1,3.47-.84,6.24,6.24,0,0,1,2.51.47,5.23,5.23,0,0,1,1.75,1.2,4.89,4.89,0,0,1,1,1.59,4.28,4.28,0,0,1,.34,1.62,2.82,2.82,0,0,1-.66,2,2.29,2.29,0,0,1-1.69.68H219a1.71,1.71,0,0,0,.46,1.08,2.77,2.77,0,0,0,1,.7,3.41,3.41,0,0,0,1.32.25,8.1,8.1,0,0,0,1-.06,3.7,3.7,0,0,0,.79-.18l.58-.22c.18-.08.34-.14.49-.19a2.41,2.41,0,0,1,.43-.1,1,1,0,0,1,.67.21,2.06,2.06,0,0,1,.58.72,1.93,1.93,0,0,1,.23.52,2.23,2.23,0,0,1,.07.5,1.35,1.35,0,0,1-.62,1.09,4.68,4.68,0,0,1-1.72.73A11,11,0,0,1,221.69,35.15ZM219,27.75H223a1,1,0,0,0,.57-.14c.14-.09.2-.27.2-.54a1.23,1.23,0,0,0-.27-.77,1.8,1.8,0,0,0-.74-.54,3.18,3.18,0,0,0-2.43.11,2.39,2.39,0,0,0-.94.8A1.87,1.87,0,0,0,219,27.75Z"/><path class="cls-3" d="M233.91,35.13a8,8,0,0,1-1.47-.15,8.79,8.79,0,0,1-1.54-.44,5.43,5.43,0,0,1-1.25-.67,1.28,1.28,0,0,1-.56-.89,1.41,1.41,0,0,1,0-.54,2.82,2.82,0,0,1,.23-.6,3.78,3.78,0,0,1,.44-.66.92.92,0,0,1,.43-.35,1.09,1.09,0,0,1,.59,0,3.15,3.15,0,0,1,.8.27c.27.12.54.26.83.4a8.41,8.41,0,0,0,.87.37,2.69,2.69,0,0,0,.93.17,2.17,2.17,0,0,0,1.08-.22.64.64,0,0,0,.39-.58.61.61,0,0,0-.16-.45,1.27,1.27,0,0,0-.45-.3,4.1,4.1,0,0,0-.68-.24,7.94,7.94,0,0,0-.81-.21c-.28-.07-.58-.15-.9-.25a7.78,7.78,0,0,1-1.18-.46,3.67,3.67,0,0,1-1-.71,3.15,3.15,0,0,1-.74-1.07,4,4,0,0,1-.28-1.57A3.54,3.54,0,0,1,230,24a3.48,3.48,0,0,1,1.66-1.26,7.39,7.39,0,0,1,2.7-.43,6.79,6.79,0,0,1,.9,0,5.38,5.38,0,0,1,.89.17c.29.09.58.19.86.3a6.16,6.16,0,0,1,.85.43,1.13,1.13,0,0,1,.78.95,2.1,2.1,0,0,1-.43,1.25,2,2,0,0,1-.57.59.9.9,0,0,1-.63.13,3.64,3.64,0,0,1-.86-.34c-.31-.15-.64-.3-1-.43a2.63,2.63,0,0,0-1-.2,2,2,0,0,0-.73.11,1,1,0,0,0-.45.3.71.71,0,0,0-.14.43.73.73,0,0,0,.18.52,1.58,1.58,0,0,0,.51.31,7.54,7.54,0,0,0,.75.23l.93.2a11.22,11.22,0,0,1,1.39.34,4.69,4.69,0,0,1,1.3.61,3,3,0,0,1,.94,1.07,3.68,3.68,0,0,1,.37,1.78,3.56,3.56,0,0,1-1.38,3A6.38,6.38,0,0,1,233.91,35.13Z"/><path class="cls-3" d="M243.09,40.11a2.48,2.48,0,0,1-1.3-.26,1,1,0,0,1-.48-.68,4.91,4.91,0,0,1-.07-.88v-14a5.1,5.1,0,0,1,.07-.91,1,1,0,0,1,.46-.69,2.34,2.34,0,0,1,1.29-.27,2.87,2.87,0,0,1,1.24.22,1.33,1.33,0,0,1,.66.7v14.9a3.29,3.29,0,0,1-.07.9,1.13,1.13,0,0,1-.49.69A2.5,2.5,0,0,1,243.09,40.11Zm4.8-5.4a4.6,4.6,0,0,1-2.15-.48,4.49,4.49,0,0,1-1.54-1.33,6.1,6.1,0,0,1-.92-1.94,9.1,9.1,0,0,1,0-4.71,6.71,6.71,0,0,1,.94-2,4.29,4.29,0,0,1,3.64-1.83,4.91,4.91,0,0,1,2.15.5,6.33,6.33,0,0,1,1.83,1.36,6.59,6.59,0,0,1,1.28,2,6.34,6.34,0,0,1,.46,2.38,6.26,6.26,0,0,1-1.73,4.3,5.66,5.66,0,0,1-1.83,1.28A5.15,5.15,0,0,1,247.89,34.71Zm-.5-3.52a2.3,2.3,0,0,0,1.25-.34,2.59,2.59,0,0,0,.89-.91,2.59,2.59,0,0,0,0-2.55,2.38,2.38,0,0,0-.88-.9,2.46,2.46,0,0,0-2.48,0,2.5,2.5,0,0,0-.87.9,2.64,2.64,0,0,0,0,2.54,2.38,2.38,0,0,0,.87.91A2.23,2.23,0,0,0,247.39,31.19Z"/><path class="cls-3" d="M265.86,34.93a2.4,2.4,0,0,1-1.37-.33.92.92,0,0,1-.43-.8l.25-.43a2.51,2.51,0,0,1-.57.62,4.58,4.58,0,0,1-1.11.65,4.39,4.39,0,0,1-1.67.28,5,5,0,0,1-2.18-.5A5.89,5.89,0,0,1,256.94,33a7,7,0,0,1-1.27-2,6,6,0,0,1-.48-2.38,5.82,5.82,0,0,1,.48-2.33,6.9,6.9,0,0,1,1.29-2A6.24,6.24,0,0,1,258.8,23a4.9,4.9,0,0,1,2.17-.5,4.14,4.14,0,0,1,1.58.27,4.24,4.24,0,0,1,1.08.61,3.51,3.51,0,0,1,.67.67l-.23-.35a1.05,1.05,0,0,1,.44-.91,2.4,2.4,0,0,1,1.39-.31,2.18,2.18,0,0,1,1.28.28,1.11,1.11,0,0,1,.48.72,4.86,4.86,0,0,1,.09.95V33a4.7,4.7,0,0,1-.09.92,1.06,1.06,0,0,1-.47.71A2.41,2.41,0,0,1,265.86,34.93Zm-4.37-3.73a2.13,2.13,0,0,0,1.2-.34,2.57,2.57,0,0,0,.85-.91,2.52,2.52,0,0,0,.33-1.28,2.46,2.46,0,0,0-.33-1.28,2.26,2.26,0,0,0-.87-.89,2.48,2.48,0,0,0-2.49,0,2.61,2.61,0,0,0-.9.91,2.57,2.57,0,0,0-.34,1.3,2.34,2.34,0,0,0,.34,1.24,2.56,2.56,0,0,0,.92.9A2.62,2.62,0,0,0,261.49,31.2Z"/><path class="cls-3" d="M276.41,35.06a6.37,6.37,0,0,1-2.23-.42,6.92,6.92,0,0,1-2.1-1.21,5.8,5.8,0,0,1-1.54-2,6.35,6.35,0,0,1-.57-2.75,6.2,6.2,0,0,1,.57-2.73,6.11,6.11,0,0,1,1.53-2,6.75,6.75,0,0,1,2.09-1.21,6.33,6.33,0,0,1,2.21-.41,6,6,0,0,1,1.66.21,5.41,5.41,0,0,1,1.25.51,3.87,3.87,0,0,1,.74.53,8.35,8.35,0,0,1,.75.65,1.05,1.05,0,0,1,.3.85,1.59,1.59,0,0,1-.18.56,4.36,4.36,0,0,1-.37.59c-.52.7-1,1-1.5.95a2.58,2.58,0,0,1-.69-.25l-.6-.35a5.86,5.86,0,0,0-.61-.32,2,2,0,0,0-.75-.13,2.56,2.56,0,0,0-1.3.33,2.61,2.61,0,0,0-.91.9,2.5,2.5,0,0,0-.34,1.32,2.53,2.53,0,0,0,.33,1.29,2.64,2.64,0,0,0,.9.92,2.49,2.49,0,0,0,1.27.34,2.72,2.72,0,0,0,.72-.1,2.59,2.59,0,0,0,.55-.24l.35-.21c.2-.14.39-.26.58-.37a1.12,1.12,0,0,1,.55-.16,1.2,1.2,0,0,1,.73.27,4,4,0,0,1,.82.83,2.07,2.07,0,0,1,.48,1,1.22,1.22,0,0,1-.21.86,2.56,2.56,0,0,1-.85.76,3.69,3.69,0,0,1-.71.45,6.77,6.77,0,0,1-1.25.5A5.76,5.76,0,0,1,276.41,35.06Z"/><path class="cls-3" d="M285.37,20.66a2.53,2.53,0,0,1-1.35-.27,1.18,1.18,0,0,1-.49-.73,5.8,5.8,0,0,1-.08-.95,4.75,4.75,0,0,1,.09-1,1,1,0,0,1,.5-.7,2.59,2.59,0,0,1,1.36-.26,2.41,2.41,0,0,1,1.32.27,1.14,1.14,0,0,1,.49.73,4.92,4.92,0,0,1,.09,1,4.73,4.73,0,0,1-.09.93,1.05,1.05,0,0,1-.49.71A2.62,2.62,0,0,1,285.37,20.66Zm0,14.3A2.54,2.54,0,0,1,284,34.7a1,1,0,0,1-.48-.7,5.41,5.41,0,0,1-.07-.91V24.36a4.46,4.46,0,0,1,.09-.91,1.06,1.06,0,0,1,.49-.7,2.49,2.49,0,0,1,1.33-.26,2.3,2.3,0,0,1,1.28.27,1.14,1.14,0,0,1,.48.72,4.6,4.6,0,0,1,.08.93v8.7a4.63,4.63,0,0,1-.09.92,1,1,0,0,1-.47.68A2.53,2.53,0,0,1,285.36,35Z"/><path class="cls-3" d="M295.91,35.17a6.21,6.21,0,0,1-2.33-.47,6.88,6.88,0,0,1-2.12-1.31,6.53,6.53,0,0,1-1.51-2,6.15,6.15,0,0,1-.56-2.64,6,6,0,0,1,.52-2.51,6.78,6.78,0,0,1,3.47-3.47,6.16,6.16,0,0,1,2.49-.51,6.33,6.33,0,0,1,3.26.86,6.56,6.56,0,0,1,2.34,2.34,6.71,6.71,0,0,1,.31,6,6.5,6.5,0,0,1-3.58,3.32A6.38,6.38,0,0,1,295.91,35.17Zm-.05-3.78a2.82,2.82,0,0,0,1.23-.3,2.67,2.67,0,0,0,1.05-.9,2.58,2.58,0,0,0,.43-1.52,2.77,2.77,0,0,0-.35-1.4,2.62,2.62,0,0,0-1-.94,3,3,0,0,0-1.42-.34,2.56,2.56,0,0,0-1.33.35,2.73,2.73,0,0,0-.95,1,2.63,2.63,0,0,0-.37,1.39,2.66,2.66,0,0,0,.41,1.51,2.49,2.49,0,0,0,1,.9A2.82,2.82,0,0,0,295.86,31.39Z"/><path class="cls-2" d="M76.49,34.84a2.42,2.42,0,0,1-1.32-.28,1.09,1.09,0,0,1-.49-.72,4.73,4.73,0,0,1-.09-.93V19.26a4.45,4.45,0,0,1,.1-.91,1.19,1.19,0,0,1,.5-.71,2.37,2.37,0,0,1,1.33-.28h5.12a6.3,6.3,0,0,1,2.1.38,6.18,6.18,0,0,1,2,1.16,5.9,5.9,0,0,1,2,4.64,5.74,5.74,0,0,1-2,4.6,6.21,6.21,0,0,1-2,1.15,6.46,6.46,0,0,1-2.13.37h-3.2v3.28a4.53,4.53,0,0,1-.1.91,1.19,1.19,0,0,1-.5.71A2.37,2.37,0,0,1,76.49,34.84Zm1.93-9h3.23a2.67,2.67,0,0,0,1.09-.23,2.24,2.24,0,0,0,.9-.76,2.65,2.65,0,0,0,0-2.58,2.2,2.2,0,0,0-.84-.82,2.43,2.43,0,0,0-1.22-.31h-3.2Z"/><path class="cls-2" d="M91.77,34.85a2.41,2.41,0,0,1-1.32-.27,1.09,1.09,0,0,1-.47-.71,4.73,4.73,0,0,1-.09-.93V24.22a4.59,4.59,0,0,1,.09-.93,1,1,0,0,1,.49-.68,2.42,2.42,0,0,1,1.32-.26,2.63,2.63,0,0,1,1.26.23,1.1,1.1,0,0,1,.49.55,1.73,1.73,0,0,1,.1.54l-.3.15a2.48,2.48,0,0,1,.26-.36,3.2,3.2,0,0,1,.59-.55,3.71,3.71,0,0,1,.91-.49,3.62,3.62,0,0,1,1.24-.2c.18,0,.39,0,.61,0a4.62,4.62,0,0,1,.7.15,3.32,3.32,0,0,1,.66.3,1.67,1.67,0,0,1,.49.46,1.16,1.16,0,0,1,.19.68,3.06,3.06,0,0,1-.48,1.74,1.4,1.4,0,0,1-1.2.71,2.11,2.11,0,0,1-.6-.06,1.77,1.77,0,0,1-.28-.15,1.17,1.17,0,0,0-.27-.15,1.39,1.39,0,0,0-.55-.07,2.77,2.77,0,0,0-.71.1,2.31,2.31,0,0,0-.63.31,1.49,1.49,0,0,0-.61,1.24V33a4.53,4.53,0,0,1-.09.91,1,1,0,0,1-.49.69A2.67,2.67,0,0,1,91.77,34.85Z"/><path class="cls-2" d="M107.17,35.08a7.17,7.17,0,0,1-3-.58A5.93,5.93,0,0,1,102.09,33a6.4,6.4,0,0,1-1.19-2.09,6.88,6.88,0,0,1-.4-2.3,6.38,6.38,0,0,1,.85-3.32A6,6,0,0,1,103.71,23a7,7,0,0,1,3.46-.84,6.44,6.44,0,0,1,2.52.47,5.23,5.23,0,0,1,1.75,1.2,5.07,5.07,0,0,1,1,1.59A4.32,4.32,0,0,1,112.8,27a2.82,2.82,0,0,1-.67,2,2.26,2.26,0,0,1-1.69.68h-6a1.78,1.78,0,0,0,.47,1.08,2.81,2.81,0,0,0,1,.7,3.5,3.5,0,0,0,1.33.25,8.22,8.22,0,0,0,1-.06,3.6,3.6,0,0,0,.78-.18c.22-.07.42-.15.59-.22s.34-.14.49-.19a2.41,2.41,0,0,1,.43-.1,1.08,1.08,0,0,1,.67.21,1.94,1.94,0,0,1,.57.72,1.71,1.71,0,0,1,.24.52,2.2,2.2,0,0,1,.06.5,1.34,1.34,0,0,1-.61,1.09,4.83,4.83,0,0,1-1.73.74A11.47,11.47,0,0,1,107.17,35.08Zm-2.67-7.4h4a.92.92,0,0,0,.57-.14.61.61,0,0,0,.2-.53,1.23,1.23,0,0,0-.27-.78,1.87,1.87,0,0,0-.74-.54,3.2,3.2,0,0,0-2.44.11,2.47,2.47,0,0,0-.94.8A2,2,0,0,0,104.5,27.68Z"/><path class="cls-2" d="M116.61,40a2.4,2.4,0,0,1-1.3-.27,1,1,0,0,1-.47-.67,5,5,0,0,1-.08-.89v-14a5.14,5.14,0,0,1,.08-.91,1.09,1.09,0,0,1,.46-.69,2.34,2.34,0,0,1,1.29-.27,2.89,2.89,0,0,1,1.24.23,1.37,1.37,0,0,1,.66.7v14.9a3,3,0,0,1-.08.9,1.1,1.1,0,0,1-.48.68A2.41,2.41,0,0,1,116.61,40Zm4.81-5.4a4.39,4.39,0,0,1-3.69-1.82,5.75,5.75,0,0,1-.92-1.93,8,8,0,0,1-.29-2.38,8.17,8.17,0,0,1,.33-2.34,6.3,6.3,0,0,1,.94-2,4.19,4.19,0,0,1,1.52-1.35,4.47,4.47,0,0,1,2.11-.49,4.88,4.88,0,0,1,2.15.5,6.45,6.45,0,0,1,3.11,3.36,6.15,6.15,0,0,1,.47,2.37,6,6,0,0,1-.47,2.36,6,6,0,0,1-3.09,3.23A5.19,5.19,0,0,1,121.42,34.64Zm-.5-3.53a2.38,2.38,0,0,0,1.25-.33,2.62,2.62,0,0,0,.89-.92,2.49,2.49,0,0,0,.34-1.27,2.54,2.54,0,0,0-.33-1.28,2.4,2.4,0,0,0-.89-.9,2.45,2.45,0,0,0-1.23-.32,2.4,2.4,0,0,0-1.24.33,2.45,2.45,0,0,0-.88.9,2.57,2.57,0,0,0-.31,1.27,2.6,2.6,0,0,0,.32,1.27,2.41,2.41,0,0,0,.88.91A2.2,2.2,0,0,0,120.92,31.11Z"/><path class="cls-2" d="M139.39,34.85a2.3,2.3,0,0,1-1.37-.33.88.88,0,0,1-.43-.8l.25-.42a3,3,0,0,1-.57.61,4.25,4.25,0,0,1-2.78.94,5,5,0,0,1-2.19-.5A6,6,0,0,1,130.47,33a7.21,7.21,0,0,1-1.28-2,6.15,6.15,0,0,1-.47-2.37,5.83,5.83,0,0,1,.48-2.34,6.58,6.58,0,0,1,3.12-3.34,5,5,0,0,1,2.18-.49,4.1,4.1,0,0,1,1.57.26,4.15,4.15,0,0,1,1.09.61,3.45,3.45,0,0,1,.66.68l-.22-.35a1,1,0,0,1,.44-.91,2.38,2.38,0,0,1,1.38-.32,2.33,2.33,0,0,1,1.29.28,1.14,1.14,0,0,1,.48.73,5.7,5.7,0,0,1,.08.95V33a4.73,4.73,0,0,1-.09.93,1.09,1.09,0,0,1-.48.71A2.48,2.48,0,0,1,139.39,34.85ZM135,31.12a2.21,2.21,0,0,0,1.2-.33,2.6,2.6,0,0,0,.85-.92,2.65,2.65,0,0,0,0-2.56A2.35,2.35,0,0,0,135,26.1a2.42,2.42,0,0,0-1.26.33,2.48,2.48,0,0,0-.9.92,2.44,2.44,0,0,0-.34,1.29,2.29,2.29,0,0,0,.34,1.24,2.41,2.41,0,0,0,.92.9A2.49,2.49,0,0,0,135,31.12Z"/><path class="cls-2" d="M145.64,34.88a2.37,2.37,0,0,1-1.31-.27,1.07,1.07,0,0,1-.48-.71,5.62,5.62,0,0,1-.08-.92V24.25a4.42,4.42,0,0,1,.09-.92,1,1,0,0,1,.49-.69,2.45,2.45,0,0,1,1.32-.26,2.52,2.52,0,0,1,1.27.24,1,1,0,0,1,.48.55,1.63,1.63,0,0,1,.1.53l-.3.15c0-.06.12-.18.26-.36a4,4,0,0,1,.59-.55,3.79,3.79,0,0,1,.92-.49,3.57,3.57,0,0,1,1.23-.19l.62,0a5.2,5.2,0,0,1,.7.15,3.32,3.32,0,0,1,.66.3,1.69,1.69,0,0,1,.49.47,1.2,1.2,0,0,1,.18.67,3.12,3.12,0,0,1-.47,1.74,1.42,1.42,0,0,1-1.2.71,2,2,0,0,1-.6-.06.87.87,0,0,1-.29-.15,1.1,1.1,0,0,0-.26-.15,1.72,1.72,0,0,0-.55-.06,2.84,2.84,0,0,0-.72.09,2.15,2.15,0,0,0-.62.32,1.45,1.45,0,0,0-.61,1.23V33a4.46,4.46,0,0,1-.09.91,1,1,0,0,1-.48.69A2.6,2.6,0,0,1,145.64,34.88Z"/><path class="cls-2" d="M165,34.86a2.31,2.31,0,0,1-1.37-.32.89.89,0,0,1-.43-.8l.25-.43a3,3,0,0,1-.57.62,4.66,4.66,0,0,1-1.12.65,4.34,4.34,0,0,1-1.66.28,5,5,0,0,1-2.19-.5A5.85,5.85,0,0,1,156.12,33a7,7,0,0,1-1.28-2,6.16,6.16,0,0,1-.47-2.38,5.82,5.82,0,0,1,.48-2.33A6.48,6.48,0,0,1,158,22.91a5,5,0,0,1,2.18-.5,4.09,4.09,0,0,1,1.57.27,3.88,3.88,0,0,1,1.09.61,3.43,3.43,0,0,1,.66.67l-.22-.35a1,1,0,0,1,.44-.91,2.39,2.39,0,0,1,1.38-.31,2.24,2.24,0,0,1,1.29.28,1.11,1.11,0,0,1,.48.72,5.8,5.8,0,0,1,.08.95V33a4.7,4.7,0,0,1-.09.92,1.07,1.07,0,0,1-.48.71A2.3,2.3,0,0,1,165,34.86Zm-4.37-3.72a2.21,2.21,0,0,0,1.2-.34,2.57,2.57,0,0,0,.85-.91,2.54,2.54,0,0,0,.32-1.28,2.46,2.46,0,0,0-.32-1.28,2.4,2.4,0,0,0-.87-.89,2.36,2.36,0,0,0-1.23-.33,2.33,2.33,0,0,0-1.26.34,2.53,2.53,0,0,0-1.24,2.21,2.34,2.34,0,0,0,.34,1.24,2.56,2.56,0,0,0,.92.9A2.59,2.59,0,0,0,160.67,31.14Z"/><path class="cls-2" d="M171.29,34.89a2.38,2.38,0,0,1-1.31-.26,1.07,1.07,0,0,1-.48-.71,4.73,4.73,0,0,1-.08-.93V24.27a4.52,4.52,0,0,1,.09-.93,1.08,1.08,0,0,1,.49-.69,2.54,2.54,0,0,1,1.32-.26,2.52,2.52,0,0,1,1.27.24,1,1,0,0,1,.48.55,1.73,1.73,0,0,1,.1.54l-.3.15a2,2,0,0,1,.26-.36,3.55,3.55,0,0,1,.59-.55,3.47,3.47,0,0,1,.92-.49,3.56,3.56,0,0,1,1.23-.2,4.45,4.45,0,0,1,.61,0,3.22,3.22,0,0,1,.71.15,2.47,2.47,0,0,1,.66.3,1.51,1.51,0,0,1,.48.46,1.16,1.16,0,0,1,.19.68,3.08,3.08,0,0,1-.47,1.73,1.41,1.41,0,0,1-1.2.72,1.66,1.66,0,0,1-.6-.07.87.87,0,0,1-.29-.15L175.7,26a1.72,1.72,0,0,0-.55-.06,2.46,2.46,0,0,0-.72.1,2.12,2.12,0,0,0-.62.31,1.54,1.54,0,0,0-.45.53,1.49,1.49,0,0,0-.17.71V33a4.56,4.56,0,0,1-.09.92,1,1,0,0,1-.48.68A2.6,2.6,0,0,1,171.29,34.89Z"/><path class="cls-2" d="M193.22,35.13a7.14,7.14,0,0,1-3-.58A5.72,5.72,0,0,1,188.14,33a6.51,6.51,0,0,1-1.2-2.09,7.09,7.09,0,0,1-.4-2.3,6.39,6.39,0,0,1,.86-3.32A6,6,0,0,1,189.76,23a7,7,0,0,1,3.46-.83,6.18,6.18,0,0,1,2.51.46,5.12,5.12,0,0,1,2.78,2.79,4.3,4.3,0,0,1,.33,1.62,2.82,2.82,0,0,1-.66,2.05,2.26,2.26,0,0,1-1.69.68h-6a1.78,1.78,0,0,0,.47,1.08,2.81,2.81,0,0,0,1,.7,3.5,3.5,0,0,0,1.33.25,7.94,7.94,0,0,0,1-.06,4.3,4.3,0,0,0,.79-.17l.59-.23.49-.19a2.53,2.53,0,0,1,.42-.1,1,1,0,0,1,.68.22,2.11,2.11,0,0,1,.57.71,1.71,1.71,0,0,1,.24.52,2.2,2.2,0,0,1,.06.5,1.34,1.34,0,0,1-.61,1.09,4.73,4.73,0,0,1-1.73.74A11.47,11.47,0,0,1,193.22,35.13Zm-2.68-7.4h4a1,1,0,0,0,.58-.13.65.65,0,0,0,.2-.54,1.21,1.21,0,0,0-.28-.78,1.77,1.77,0,0,0-.73-.54,3.27,3.27,0,0,0-2.44.12,2.38,2.38,0,0,0-.94.8A1.91,1.91,0,0,0,190.54,27.73Z"/><path class="cls-2" d="M205.74,34.91a14.41,14.41,0,0,1-1.83-.1,3.7,3.7,0,0,1-1.35-.4,2.47,2.47,0,0,1-.89-.84,3.84,3.84,0,0,1-.53-1.37,10.11,10.11,0,0,1-.17-2.06V18.59a4.42,4.42,0,0,1,.1-.93,1.18,1.18,0,0,1,.49-.7,2.41,2.41,0,0,1,1.32-.27,2.3,2.3,0,0,1,1.28.27,1.21,1.21,0,0,1,.49.7,4,4,0,0,1,.1.93V30a4.22,4.22,0,0,0,0,.67.9.9,0,0,0,.15.41.51.51,0,0,0,.31.2,2.44,2.44,0,0,0,.53.05,2.6,2.6,0,0,1,.61.07.89.89,0,0,1,.54.45,2.58,2.58,0,0,1,.22,1.25,2.92,2.92,0,0,1-.22,1.3.88.88,0,0,1-.54.48A2.73,2.73,0,0,1,205.74,34.91Z"/><path class="cls-2" d="M221.69,35.15a7.09,7.09,0,0,1-3-.58,5.84,5.84,0,0,1-2.06-1.51,6.25,6.25,0,0,1-1.2-2.09,6.88,6.88,0,0,1-.4-2.3,6.45,6.45,0,0,1,.85-3.33,6.23,6.23,0,0,1,2.36-2.28,7,7,0,0,1,3.47-.84,6.24,6.24,0,0,1,2.51.47,5.23,5.23,0,0,1,1.75,1.2,4.89,4.89,0,0,1,1,1.59,4.28,4.28,0,0,1,.34,1.62,2.82,2.82,0,0,1-.66,2,2.29,2.29,0,0,1-1.69.68H219a1.71,1.71,0,0,0,.46,1.08,2.77,2.77,0,0,0,1,.7,3.41,3.41,0,0,0,1.32.25,8.1,8.1,0,0,0,1-.06,3.7,3.7,0,0,0,.79-.18l.58-.22c.18-.08.34-.14.49-.19a2.41,2.41,0,0,1,.43-.1,1,1,0,0,1,.67.21,2.06,2.06,0,0,1,.58.72,1.93,1.93,0,0,1,.23.52,2.23,2.23,0,0,1,.07.5,1.35,1.35,0,0,1-.62,1.09,4.68,4.68,0,0,1-1.72.73A11,11,0,0,1,221.69,35.15ZM219,27.75H223a1,1,0,0,0,.57-.14c.14-.09.2-.27.2-.54a1.23,1.23,0,0,0-.27-.77,1.8,1.8,0,0,0-.74-.54,3.18,3.18,0,0,0-2.43.11,2.39,2.39,0,0,0-.94.8A1.87,1.87,0,0,0,219,27.75Z"/><path class="cls-2" d="M233.91,35.13a8,8,0,0,1-1.47-.15,8.79,8.79,0,0,1-1.54-.44,5.43,5.43,0,0,1-1.25-.67,1.28,1.28,0,0,1-.56-.89,1.41,1.41,0,0,1,0-.54,2.82,2.82,0,0,1,.23-.6,3.78,3.78,0,0,1,.44-.66.92.92,0,0,1,.43-.35,1.09,1.09,0,0,1,.59,0,3.15,3.15,0,0,1,.8.27c.27.12.54.26.83.4a8.41,8.41,0,0,0,.87.37,2.69,2.69,0,0,0,.93.17,2.17,2.17,0,0,0,1.08-.22.64.64,0,0,0,.39-.58.61.61,0,0,0-.16-.45,1.27,1.27,0,0,0-.45-.3,4.1,4.1,0,0,0-.68-.24,7.94,7.94,0,0,0-.81-.21c-.28-.07-.58-.15-.9-.25a7.78,7.78,0,0,1-1.18-.46,3.67,3.67,0,0,1-1-.71,3.15,3.15,0,0,1-.74-1.07,4,4,0,0,1-.28-1.57A3.54,3.54,0,0,1,230,24a3.48,3.48,0,0,1,1.66-1.26,7.39,7.39,0,0,1,2.7-.43,6.79,6.79,0,0,1,.9,0,5.38,5.38,0,0,1,.89.17c.29.09.58.19.86.3a6.16,6.16,0,0,1,.85.43,1.13,1.13,0,0,1,.78.95,2.1,2.1,0,0,1-.43,1.25,2,2,0,0,1-.57.59.9.9,0,0,1-.63.13,3.64,3.64,0,0,1-.86-.34c-.31-.15-.64-.3-1-.43a2.63,2.63,0,0,0-1-.2,2,2,0,0,0-.73.11,1,1,0,0,0-.45.3.71.71,0,0,0-.14.43.73.73,0,0,0,.18.52,1.58,1.58,0,0,0,.51.31,7.54,7.54,0,0,0,.75.23l.93.2a11.22,11.22,0,0,1,1.39.34,4.69,4.69,0,0,1,1.3.61,3,3,0,0,1,.94,1.07,3.68,3.68,0,0,1,.37,1.78,3.56,3.56,0,0,1-1.38,3A6.38,6.38,0,0,1,233.91,35.13Z"/><path class="cls-2" d="M243.09,40.11a2.48,2.48,0,0,1-1.3-.26,1,1,0,0,1-.48-.68,4.91,4.91,0,0,1-.07-.88v-14a5.1,5.1,0,0,1,.07-.91,1,1,0,0,1,.46-.69,2.34,2.34,0,0,1,1.29-.27,2.87,2.87,0,0,1,1.24.22,1.33,1.33,0,0,1,.66.7v14.9a3.29,3.29,0,0,1-.07.9,1.13,1.13,0,0,1-.49.69A2.5,2.5,0,0,1,243.09,40.11Zm4.8-5.4a4.6,4.6,0,0,1-2.15-.48,4.49,4.49,0,0,1-1.54-1.33,6.1,6.1,0,0,1-.92-1.94,9.1,9.1,0,0,1,0-4.71,6.71,6.71,0,0,1,.94-2,4.29,4.29,0,0,1,3.64-1.83,4.91,4.91,0,0,1,2.15.5,6.33,6.33,0,0,1,1.83,1.36,6.59,6.59,0,0,1,1.28,2,6.34,6.34,0,0,1,.46,2.38,6.26,6.26,0,0,1-1.73,4.3,5.66,5.66,0,0,1-1.83,1.28A5.15,5.15,0,0,1,247.89,34.71Zm-.5-3.52a2.3,2.3,0,0,0,1.25-.34,2.59,2.59,0,0,0,.89-.91,2.59,2.59,0,0,0,0-2.55,2.38,2.38,0,0,0-.88-.9,2.46,2.46,0,0,0-2.48,0,2.5,2.5,0,0,0-.87.9,2.64,2.64,0,0,0,0,2.54,2.38,2.38,0,0,0,.87.91A2.23,2.23,0,0,0,247.39,31.19Z"/><path class="cls-2" d="M265.86,34.93a2.4,2.4,0,0,1-1.37-.33.92.92,0,0,1-.43-.8l.25-.43a2.51,2.51,0,0,1-.57.62,4.58,4.58,0,0,1-1.11.65,4.39,4.39,0,0,1-1.67.28,5,5,0,0,1-2.18-.5A5.89,5.89,0,0,1,256.94,33a7,7,0,0,1-1.27-2,6,6,0,0,1-.48-2.38,5.82,5.82,0,0,1,.48-2.33,6.9,6.9,0,0,1,1.29-2A6.24,6.24,0,0,1,258.8,23a4.9,4.9,0,0,1,2.17-.5,4.14,4.14,0,0,1,1.58.27,4.24,4.24,0,0,1,1.08.61,3.51,3.51,0,0,1,.67.67l-.23-.35a1.05,1.05,0,0,1,.44-.91,2.4,2.4,0,0,1,1.39-.31,2.18,2.18,0,0,1,1.28.28,1.11,1.11,0,0,1,.48.72,4.86,4.86,0,0,1,.09.95V33a4.7,4.7,0,0,1-.09.92,1.06,1.06,0,0,1-.47.71A2.41,2.41,0,0,1,265.86,34.93Zm-4.37-3.73a2.13,2.13,0,0,0,1.2-.34,2.57,2.57,0,0,0,.85-.91,2.52,2.52,0,0,0,.33-1.28,2.46,2.46,0,0,0-.33-1.28,2.26,2.26,0,0,0-.87-.89,2.48,2.48,0,0,0-2.49,0,2.61,2.61,0,0,0-.9.91,2.57,2.57,0,0,0-.34,1.3,2.34,2.34,0,0,0,.34,1.24,2.56,2.56,0,0,0,.92.9A2.62,2.62,0,0,0,261.49,31.2Z"/><path class="cls-2" d="M276.41,35.06a6.37,6.37,0,0,1-2.23-.42,6.92,6.92,0,0,1-2.1-1.21,5.8,5.8,0,0,1-1.54-2,6.35,6.35,0,0,1-.57-2.75,6.2,6.2,0,0,1,.57-2.73,6.11,6.11,0,0,1,1.53-2,6.75,6.75,0,0,1,2.09-1.21,6.33,6.33,0,0,1,2.21-.41,6,6,0,0,1,1.66.21,5.41,5.41,0,0,1,1.25.51,3.87,3.87,0,0,1,.74.53,8.35,8.35,0,0,1,.75.65,1.05,1.05,0,0,1,.3.85,1.59,1.59,0,0,1-.18.56,4.36,4.36,0,0,1-.37.59c-.52.7-1,1-1.5.95a2.58,2.58,0,0,1-.69-.25l-.6-.35a5.86,5.86,0,0,0-.61-.32,2,2,0,0,0-.75-.13,2.56,2.56,0,0,0-1.3.33,2.61,2.61,0,0,0-.91.9,2.5,2.5,0,0,0-.34,1.32,2.53,2.53,0,0,0,.33,1.29,2.64,2.64,0,0,0,.9.92,2.49,2.49,0,0,0,1.27.34,2.72,2.72,0,0,0,.72-.1,2.59,2.59,0,0,0,.55-.24l.35-.21c.2-.14.39-.26.58-.37a1.12,1.12,0,0,1,.55-.16,1.2,1.2,0,0,1,.73.27,4,4,0,0,1,.82.83,2.07,2.07,0,0,1,.48,1,1.22,1.22,0,0,1-.21.86,2.56,2.56,0,0,1-.85.76,3.69,3.69,0,0,1-.71.45,6.77,6.77,0,0,1-1.25.5A5.76,5.76,0,0,1,276.41,35.06Z"/><path class="cls-2" d="M285.37,20.66a2.53,2.53,0,0,1-1.35-.27,1.18,1.18,0,0,1-.49-.73,5.8,5.8,0,0,1-.08-.95,4.75,4.75,0,0,1,.09-1,1,1,0,0,1,.5-.7,2.59,2.59,0,0,1,1.36-.26,2.41,2.41,0,0,1,1.32.27,1.14,1.14,0,0,1,.49.73,4.92,4.92,0,0,1,.09,1,4.73,4.73,0,0,1-.09.93,1.05,1.05,0,0,1-.49.71A2.62,2.62,0,0,1,285.37,20.66Zm0,14.3A2.54,2.54,0,0,1,284,34.7a1,1,0,0,1-.48-.7,5.41,5.41,0,0,1-.07-.91V24.36a4.46,4.46,0,0,1,.09-.91,1.06,1.06,0,0,1,.49-.7,2.49,2.49,0,0,1,1.33-.26,2.3,2.3,0,0,1,1.28.27,1.14,1.14,0,0,1,.48.72,4.6,4.6,0,0,1,.08.93v8.7a4.63,4.63,0,0,1-.09.92,1,1,0,0,1-.47.68A2.53,2.53,0,0,1,285.36,35Z"/><path class="cls-2" d="M295.91,35.17a6.21,6.21,0,0,1-2.33-.47,6.88,6.88,0,0,1-2.12-1.31,6.53,6.53,0,0,1-1.51-2,6.15,6.15,0,0,1-.56-2.64,6,6,0,0,1,.52-2.51,6.78,6.78,0,0,1,3.47-3.47,6.16,6.16,0,0,1,2.49-.51,6.33,6.33,0,0,1,3.26.86,6.56,6.56,0,0,1,2.34,2.34,6.71,6.71,0,0,1,.31,6,6.5,6.5,0,0,1-3.58,3.32A6.38,6.38,0,0,1,295.91,35.17Zm-.05-3.78a2.82,2.82,0,0,0,1.23-.3,2.67,2.67,0,0,0,1.05-.9,2.58,2.58,0,0,0,.43-1.52,2.77,2.77,0,0,0-.35-1.4,2.62,2.62,0,0,0-1-.94,3,3,0,0,0-1.42-.34,2.56,2.56,0,0,0-1.33.35,2.73,2.73,0,0,0-.95,1,2.63,2.63,0,0,0-.37,1.39,2.66,2.66,0,0,0,.41,1.51,2.49,2.49,0,0,0,1,.9A2.82,2.82,0,0,0,295.86,31.39Z"/><path class="cls-4" d="M47.12,35.55c0,2.27-.4,3.89-1.19,4.85a4.36,4.36,0,0,1-3.59,1.45,5.66,5.66,0,0,1-2.56-.5,3.26,3.26,0,0,1-1.49-1.85,11.09,11.09,0,0,1-.55-3.61l-.06-15.67a6.32,6.32,0,0,1-3.22-.73A2.62,2.62,0,0,1,33.2,17a2.76,2.76,0,0,1,1.16-2.29,5.16,5.16,0,0,1,3.24-.9c.54,0,1.31,0,2.3,0l2.1,0c2,0,3.36.34,4,1a5,5,0,0,1,1,3.59Z"/><path class="cls-4" d="M50.86,39A2.78,2.78,0,0,1,52,36.68a5.4,5.4,0,0,1,3.28-.88c3,0,4.44,1.07,4.44,3.19a3.11,3.11,0,0,1-.57,2,2.69,2.69,0,0,1-1.51,1,9.11,9.11,0,0,1-2.36.26,6.13,6.13,0,0,1-3.18-.76A2.62,2.62,0,0,1,50.86,39Z"/><path class="cls-5" d="M47.12,35.55c0,2.27-.4,3.89-1.19,4.85a4.36,4.36,0,0,1-3.59,1.45,5.66,5.66,0,0,1-2.56-.5,3.26,3.26,0,0,1-1.49-1.85,11.09,11.09,0,0,1-.55-3.61l-.06-15.67a6.32,6.32,0,0,1-3.22-.73A2.62,2.62,0,0,1,33.2,17a2.76,2.76,0,0,1,1.16-2.29,5.16,5.16,0,0,1,3.24-.9c.54,0,1.31,0,2.3,0l2.1,0c2,0,3.36.34,4,1a5,5,0,0,1,1,3.59Z"/><path class="cls-5" d="M50.86,39A2.78,2.78,0,0,1,52,36.68a5.4,5.4,0,0,1,3.28-.88c3,0,4.44,1.07,4.44,3.19a3.11,3.11,0,0,1-.57,2,2.69,2.69,0,0,1-1.51,1,9.11,9.11,0,0,1-2.36.26,6.13,6.13,0,0,1-3.18-.76A2.62,2.62,0,0,1,50.86,39Z"/></g></g></svg>