<svg xmlns="http://www.w3.org/2000/svg" viewBox="0 0 399.98 84.15"><defs><style>.cls-1{fill:#cf5c05;}.cls-2{fill:#fff;}.cls-3,.cls-4{fill:none;stroke-width:5px;}.cls-3{stroke:#32b228;stroke-linejoin:round;}.cls-4{stroke:#fff;}.cls-5{fill:#32b228;}</style></defs><title>t2</title><g id="Layer_2" data-name="Layer 2"><g id="pestaña_identificativa" data-name="pestaña identificativa"><rect class="cls-1" width="399.98" height="84.15" rx="32.4"/><path class="cls-2" d="M92.82,32.2a2.77,2.77,0,0,1,.32,1.06,1,1,0,0,1-.26.77,2.84,2.84,0,0,1-.94.66,2,2,0,0,1-1.55.3,2.1,2.1,0,0,1-1-1.2l-4.9-10.25L79.59,33.79a2.2,2.2,0,0,1-1,1.16A2.16,2.16,0,0,1,77,34.66a2.74,2.74,0,0,1-1-.64,1,1,0,0,1-.27-.8,3,3,0,0,1,.37-1.09l6.58-13.67a2,2,0,0,1,.74-.8,1.88,1.88,0,0,1,1-.3,2,2,0,0,1,.7.14,2.09,2.09,0,0,1,.59.39,2.45,2.45,0,0,1,.44.6ZM80.27,30.76l1.55-3.22h5.33l1.54,3.23Z"/><path class="cls-2" d="M101,35a6.69,6.69,0,0,1-2.24-.41,7.2,7.2,0,0,1-2.1-1.22,5.77,5.77,0,0,1-1.53-2,6.85,6.85,0,0,1,0-5.47,6,6,0,0,1,1.53-2,7,7,0,0,1,2.09-1.21,6.52,6.52,0,0,1,2.21-.41,6,6,0,0,1,1.66.21,5.88,5.88,0,0,1,1.25.52,3.91,3.91,0,0,1,.74.52c.28.22.53.44.75.65a1.13,1.13,0,0,1,.3.85,1.53,1.53,0,0,1-.18.56,3.82,3.82,0,0,1-.37.59c-.52.7-1,1-1.5,1a2.27,2.27,0,0,1-.69-.25l-.6-.35a4.37,4.37,0,0,0-.61-.31,2,2,0,0,0-.75-.14,2.45,2.45,0,0,0-1.3.34,2.48,2.48,0,0,0-.92.9,2.52,2.52,0,0,0-.33,1.31,2.47,2.47,0,0,0,.33,1.3,2.61,2.61,0,0,0,.9.91,2.58,2.58,0,0,0,2,.24,2.59,2.59,0,0,0,.55-.24l.35-.21.57-.36a1.08,1.08,0,0,1,.55-.16,1.21,1.21,0,0,1,.74.26,4.1,4.1,0,0,1,.81.84,2,2,0,0,1,.49,1,1.26,1.26,0,0,1-.21.87,2.92,2.92,0,0,1-.85.76,5.33,5.33,0,0,1-.72.45,6.9,6.9,0,0,1-1.25.5A5.66,5.66,0,0,1,101,35Z"/><path class="cls-2" d="M114,35.06a6.3,6.3,0,0,1-2.34-.47,6.84,6.84,0,0,1-2.11-1.31,6.38,6.38,0,0,1-1.51-2,6.47,6.47,0,0,1,0-5.15A7,7,0,0,1,109.4,24a6.75,6.75,0,0,1,2.06-1.41,6.13,6.13,0,0,1,2.49-.51,6.33,6.33,0,0,1,3.26.86,6.64,6.64,0,0,1,2.34,2.34,6.71,6.71,0,0,1,.31,6,6.59,6.59,0,0,1-3.58,3.32A6.38,6.38,0,0,1,114,35.06Zm0-3.78a2.85,2.85,0,0,0,1.23-.3,2.81,2.81,0,0,0,1-.9,2.57,2.57,0,0,0,.42-1.52,2.77,2.77,0,0,0-.34-1.4,2.58,2.58,0,0,0-1-.94,2.91,2.91,0,0,0-1.41-.34,2.63,2.63,0,0,0-1.34.35,2.73,2.73,0,0,0-1,1,2.93,2.93,0,0,0,.05,2.9,2.49,2.49,0,0,0,1,.9A2.76,2.76,0,0,0,113.94,31.28Z"/><path class="cls-2" d="M124.27,34.86a2.38,2.38,0,0,1-1.3-.27,1.08,1.08,0,0,1-.48-.7,5.41,5.41,0,0,1-.07-.93V24.21a4.43,4.43,0,0,1,.09-.9,1,1,0,0,1,.49-.68,2.43,2.43,0,0,1,1.32-.27,2.05,2.05,0,0,1,1.35.37,1.46,1.46,0,0,1,.43,1.18l-.33.28a2.91,2.91,0,0,1,.3-.43,5.63,5.63,0,0,1,.65-.62,4.1,4.1,0,0,1,.94-.56,2.83,2.83,0,0,1,1.16-.24,4.35,4.35,0,0,1,1.49.24,3.82,3.82,0,0,1,1.2.7,4.55,4.55,0,0,1,.94,1.16,6.22,6.22,0,0,1,.85-1,4.48,4.48,0,0,1,1.17-.8,3.44,3.44,0,0,1,1.53-.32,4.14,4.14,0,0,1,2.49.73A4.6,4.6,0,0,1,140,25.2a9.11,9.11,0,0,1,.52,3.32V33a3.85,3.85,0,0,1-.1.91,1.13,1.13,0,0,1-.49.7,2.38,2.38,0,0,1-1.31.26,2.41,2.41,0,0,1-1.32-.27,1.07,1.07,0,0,1-.48-.72,5.33,5.33,0,0,1-.07-.91V28.5a3.81,3.81,0,0,0-.19-1.29,1.84,1.84,0,0,0-.53-.83,1.4,1.4,0,0,0-.9-.28,1.71,1.71,0,0,0-1,.27,1.6,1.6,0,0,0-.6.8,3.92,3.92,0,0,0-.2,1.35V33a3.5,3.5,0,0,1-.13.94,1.17,1.17,0,0,1-.54.7,2.44,2.44,0,0,1-1.33.24,2.09,2.09,0,0,1-1.25-.29,1.12,1.12,0,0,1-.45-.73,5.14,5.14,0,0,1-.08-.88V28.49a4.23,4.23,0,0,0-.17-1.3,1.69,1.69,0,0,0-.52-.82,1.45,1.45,0,0,0-.93-.28,1.53,1.53,0,0,0-1,.33,1.78,1.78,0,0,0-.59.86,3.53,3.53,0,0,0-.19,1.21V33a4.42,4.42,0,0,1-.09.92,1,1,0,0,1-.49.69A2.47,2.47,0,0,1,124.27,34.86Z"/><path class="cls-2" d="M144.71,40.05a2.51,2.51,0,0,1-1.3-.26,1,1,0,0,1-.47-.68,4.88,4.88,0,0,1-.08-.88v-14a5.05,5.05,0,0,1,.08-.91,1,1,0,0,1,.46-.69,2.34,2.34,0,0,1,1.29-.27,2.9,2.9,0,0,1,1.24.22,1.41,1.41,0,0,1,.66.7V38.2a3.28,3.28,0,0,1-.08.9,1.09,1.09,0,0,1-.49.69A2.45,2.45,0,0,1,144.71,40.05Zm4.81-5.4a4.58,4.58,0,0,1-2.15-.48,4.49,4.49,0,0,1-1.54-1.33,5.9,5.9,0,0,1-.92-1.94,7.86,7.86,0,0,1-.29-2.37,8.17,8.17,0,0,1,.33-2.34,6.69,6.69,0,0,1,.93-2,4.32,4.32,0,0,1,3.64-1.83,4.88,4.88,0,0,1,2.15.5,6.24,6.24,0,0,1,1.84,1.36,6.56,6.56,0,0,1,1.27,2,6.15,6.15,0,0,1,.46,2.38,6.05,6.05,0,0,1-.46,2.36,6.25,6.25,0,0,1-1.26,1.94,5.88,5.88,0,0,1-1.83,1.28A5.19,5.19,0,0,1,149.52,34.65Zm-.5-3.52a2.32,2.32,0,0,0,1.25-.34,2.67,2.67,0,0,0,.89-.91,2.66,2.66,0,0,0,0-2.55,2.4,2.4,0,0,0-.89-.9,2.36,2.36,0,0,0-1.23-.33,2.41,2.41,0,0,0-1.24.34,2.37,2.37,0,0,0-.88.9,2.53,2.53,0,0,0-.31,1.26,2.64,2.64,0,0,0,.32,1.28,2.48,2.48,0,0,0,.88.91A2.18,2.18,0,0,0,149,31.13Z"/><path class="cls-2" d="M167.49,34.86a2.31,2.31,0,0,1-1.37-.32.89.89,0,0,1-.43-.8l.25-.43a3,3,0,0,1-.57.62,4.66,4.66,0,0,1-1.12.65,4.34,4.34,0,0,1-1.66.28,5,5,0,0,1-2.19-.5A5.85,5.85,0,0,1,158.57,33a7,7,0,0,1-1.28-2,6.16,6.16,0,0,1-.47-2.38,6,6,0,0,1,.47-2.33,6.77,6.77,0,0,1,1.29-2,6.51,6.51,0,0,1,1.84-1.36,5,5,0,0,1,2.18-.5,4.09,4.09,0,0,1,1.57.27,3.88,3.88,0,0,1,1.09.61,3.43,3.43,0,0,1,.66.67l-.22-.35a1,1,0,0,1,.43-.91,2.44,2.44,0,0,1,1.39-.31,2.24,2.24,0,0,1,1.29.28,1.07,1.07,0,0,1,.47.72,4.86,4.86,0,0,1,.09.95V33a4.7,4.7,0,0,1-.09.92,1.07,1.07,0,0,1-.48.71A2.3,2.3,0,0,1,167.49,34.86Zm-4.37-3.72a2.21,2.21,0,0,0,1.2-.34,2.57,2.57,0,0,0,.85-.91,2.61,2.61,0,0,0,.32-1.28,2.46,2.46,0,0,0-.32-1.28,2.35,2.35,0,0,0-.88-.89,2.3,2.3,0,0,0-1.22-.33,2.33,2.33,0,0,0-1.26.34,2.53,2.53,0,0,0-1.24,2.21,2.34,2.34,0,0,0,.34,1.24,2.56,2.56,0,0,0,.92.9A2.59,2.59,0,0,0,163.12,31.14Z"/><path class="cls-2" d="M173.74,34.87a2.37,2.37,0,0,1-1.31-.27,1.05,1.05,0,0,1-.48-.7,4.47,4.47,0,0,1-.08-.91v-8.8a4.1,4.1,0,0,1,.09-.88,1,1,0,0,1,.49-.67,2.67,2.67,0,0,1,1.32-.25,2.37,2.37,0,0,1,1.18.22,1,1,0,0,1,.48.51,1.53,1.53,0,0,1,.12.56.75.75,0,0,0,0,.36l-.15.48a1.48,1.48,0,0,1,.38-.76,3.74,3.74,0,0,1,.85-.7,4.93,4.93,0,0,1,1.1-.49A4.36,4.36,0,0,1,179,22.4a4.83,4.83,0,0,1,2.13.44,4.24,4.24,0,0,1,1.59,1.26,6,6,0,0,1,1,1.94,8.5,8.5,0,0,1,.33,2.43V33a4.56,4.56,0,0,1-.09.92,1,1,0,0,1-.47.68,2.59,2.59,0,0,1-1.34.25,2.49,2.49,0,0,1-1.33-.26,1.1,1.1,0,0,1-.48-.7,4.53,4.53,0,0,1-.09-.91V28.47a2.74,2.74,0,0,0-.26-1.27,1.76,1.76,0,0,0-.75-.8,2.36,2.36,0,0,0-1.21-.28,2.59,2.59,0,0,0-1.25.29,2,2,0,0,0-.81.81,2.48,2.48,0,0,0-.29,1.25V33a4.46,4.46,0,0,1-.09.91,1.06,1.06,0,0,1-.48.69A2.49,2.49,0,0,1,173.74,34.87ZM176.6,17a1.6,1.6,0,0,1,1,.28,6.21,6.21,0,0,1,.64.59.77.77,0,0,0,.57.3.66.66,0,0,0,.54-.25c.14-.16.29-.34.45-.51a1,1,0,0,1,.62-.31.89.89,0,0,1,.46,0,1.3,1.3,0,0,1,.54.25,2,2,0,0,1,.81.84,1.17,1.17,0,0,1-.19,1,3.23,3.23,0,0,1-.7.94,4,4,0,0,1-1.08.73,2.71,2.71,0,0,1-1.17.28,1.49,1.49,0,0,1-1-.3,7.08,7.08,0,0,1-.69-.6.89.89,0,0,0-.63-.3,1.43,1.43,0,0,0-.9.23,2.33,2.33,0,0,0-.5.49A1.08,1.08,0,0,1,175,21c-.16,0-.44-.06-.84-.34a1.88,1.88,0,0,1-.72-.91,1.28,1.28,0,0,1,.27-1,3.72,3.72,0,0,1,.81-.89,4.79,4.79,0,0,1,1.07-.67A2.31,2.31,0,0,1,176.6,17Z"/><path class="cls-2" d="M196.64,34.88a2.42,2.42,0,0,1-1.38-.32.9.9,0,0,1-.42-.8l.25-.43a2.72,2.72,0,0,1-.57.61,4.25,4.25,0,0,1-2.78.94,5,5,0,0,1-2.19-.5A6,6,0,0,1,187.72,33a7,7,0,0,1-1.28-2A6.2,6.2,0,0,1,186,28.6a6,6,0,0,1,.47-2.34,6.72,6.72,0,0,1,1.29-2,6.32,6.32,0,0,1,1.84-1.36,4.94,4.94,0,0,1,2.18-.5,4.05,4.05,0,0,1,2.66.88,3.18,3.18,0,0,1,.66.67l-.22-.35a1,1,0,0,1,.43-.91,2.44,2.44,0,0,1,1.39-.31,2.34,2.34,0,0,1,1.29.27,1.11,1.11,0,0,1,.47.73,4.86,4.86,0,0,1,.09.95V33a4.73,4.73,0,0,1-.09.93,1.07,1.07,0,0,1-.48.71A2.48,2.48,0,0,1,196.64,34.88Zm-4.37-3.73a2.21,2.21,0,0,0,1.2-.33,2.56,2.56,0,0,0,1.17-2.19,2.52,2.52,0,0,0-.32-1.29,2.4,2.4,0,0,0-.88-.88,2.3,2.3,0,0,0-1.22-.33,2.33,2.33,0,0,0-1.26.34,2.53,2.53,0,0,0-1.24,2.21,2.34,2.34,0,0,0,.34,1.24,2.53,2.53,0,0,0,2.21,1.23Z"/><path class="cls-2" d="M202.89,34.91a2.45,2.45,0,0,1-1.31-.26,1.11,1.11,0,0,1-.48-.72A4.57,4.57,0,0,1,201,33V24.29a4.45,4.45,0,0,1,.09-.93,1.08,1.08,0,0,1,.49-.69,2.52,2.52,0,0,1,1.32-.26,2.47,2.47,0,0,1,1.26.24,1.06,1.06,0,0,1,.49.55,1.73,1.73,0,0,1,.1.54l-.3.15a2.39,2.39,0,0,1,.26-.37,3.57,3.57,0,0,1,.59-.54,3.28,3.28,0,0,1,.91-.49,3.4,3.4,0,0,1,1.24-.2,4.55,4.55,0,0,1,.61,0,3,3,0,0,1,.7.15,2.4,2.4,0,0,1,.67.3,1.51,1.51,0,0,1,.48.46,1.14,1.14,0,0,1,.19.68,3,3,0,0,1-.48,1.73,1.38,1.38,0,0,1-1.2.71,2.11,2.11,0,0,1-.6-.06.92.92,0,0,1-.28-.15,1.17,1.17,0,0,0-.27-.15,1.68,1.68,0,0,0-.55-.06,2.39,2.39,0,0,0-.71.1,1.9,1.9,0,0,0-.62.31,1.39,1.39,0,0,0-.45.52,1.53,1.53,0,0,0-.17.72v5.47a4.46,4.46,0,0,1-.09.91,1,1,0,0,1-.49.69A2.53,2.53,0,0,1,202.89,34.91Z"/><path class="cls-2" d="M223.41,34.92a14.14,14.14,0,0,1-1.82-.1,3.9,3.9,0,0,1-1.35-.4,2.42,2.42,0,0,1-.9-.84,3.85,3.85,0,0,1-.52-1.37,10,10,0,0,1-.18-2.06V18.6a3.84,3.84,0,0,1,.1-.93,1.18,1.18,0,0,1,.49-.7,2.37,2.37,0,0,1,1.31-.27,2.34,2.34,0,0,1,1.29.27,1.15,1.15,0,0,1,.48.7,3.9,3.9,0,0,1,.1.93V30a6.19,6.19,0,0,0,0,.67,1,1,0,0,0,.15.41.59.59,0,0,0,.32.2,2.34,2.34,0,0,0,.52.05,2.6,2.6,0,0,1,.61.07.89.89,0,0,1,.54.45,2.47,2.47,0,0,1,.22,1.25,2.78,2.78,0,0,1-.22,1.3.88.88,0,0,1-.54.48A2.73,2.73,0,0,1,223.41,34.92Z"/><path class="cls-2" d="M232.64,35.13a6.26,6.26,0,0,1-2.34-.47,6.84,6.84,0,0,1-2.11-1.31,6.38,6.38,0,0,1-1.51-2,6,6,0,0,1-.56-2.64,6.19,6.19,0,0,1,.51-2.51,6.75,6.75,0,0,1,3.48-3.47,6.09,6.09,0,0,1,2.49-.51,6.35,6.35,0,0,1,3.26.86,6.61,6.61,0,0,1,2.33,2.34,6.27,6.27,0,0,1,.88,3.28,6.2,6.2,0,0,1-.57,2.71,6.35,6.35,0,0,1-1.5,2,6.68,6.68,0,0,1-2.07,1.28A6.38,6.38,0,0,1,232.64,35.13Zm0-3.78a2.85,2.85,0,0,0,1.23-.3,2.79,2.79,0,0,0,1.05-.89,2.61,2.61,0,0,0,.42-1.53,2.67,2.67,0,0,0-.35-1.4,2.48,2.48,0,0,0-1-.94,2.94,2.94,0,0,0-1.41-.34,2.6,2.6,0,0,0-1.34.35,2.76,2.76,0,0,0-.95,1,2.66,2.66,0,0,0-.36,1.38,2.58,2.58,0,0,0,.41,1.51,2.53,2.53,0,0,0,1,.91A2.89,2.89,0,0,0,232.59,31.35Z"/><path class="cls-2" d="M245.59,35.14a8.15,8.15,0,0,1-1.48-.15,8.68,8.68,0,0,1-1.53-.44,4.9,4.9,0,0,1-1.25-.68,1.26,1.26,0,0,1-.56-.89,1.19,1.19,0,0,1,0-.53,2.19,2.19,0,0,1,.22-.6,5.08,5.08,0,0,1,.44-.67.89.89,0,0,1,.44-.35,1,1,0,0,1,.59,0,3.72,3.72,0,0,1,.8.26l.82.4a8.64,8.64,0,0,0,.88.38,2.62,2.62,0,0,0,.92.16,2.32,2.32,0,0,0,1.09-.21.65.65,0,0,0,.39-.59.64.64,0,0,0-.17-.45,1.35,1.35,0,0,0-.45-.3c-.19-.08-.41-.16-.67-.24l-.81-.21a8.76,8.76,0,0,1-.9-.25,9.05,9.05,0,0,1-1.19-.45,4,4,0,0,1-1.05-.71,3.24,3.24,0,0,1-.74-1.08,4,4,0,0,1-.27-1.56,3.59,3.59,0,0,1,.56-2.05,3.51,3.51,0,0,1,1.67-1.26,7.34,7.34,0,0,1,2.7-.44c.3,0,.6,0,.9,0a5.28,5.28,0,0,1,.88.18,7.47,7.47,0,0,1,.87.3c.28.12.56.26.85.42a1.13,1.13,0,0,1,.77.95,2,2,0,0,1-.43,1.25,1.9,1.9,0,0,1-.57.59.89.89,0,0,1-.63.14,4.36,4.36,0,0,1-.86-.34c-.31-.16-.63-.3-1-.44a2.85,2.85,0,0,0-1-.2,2.18,2.18,0,0,0-.72.11,1.11,1.11,0,0,0-.45.3.69.69,0,0,0-.15.44.66.66,0,0,0,.19.51,1.4,1.4,0,0,0,.51.32,5.64,5.64,0,0,0,.75.22c.28.07.59.14.92.2s.92.2,1.39.34a4.71,4.71,0,0,1,1.3.61,3,3,0,0,1,.95,1.08,3.76,3.76,0,0,1,.36,1.77,3.58,3.58,0,0,1-1.38,3A6.33,6.33,0,0,1,245.59,35.14Z"/><path class="cls-2" d="M260.35,22.64h2.75l3.45-.1a4.43,4.43,0,0,1,.9.09,1.15,1.15,0,0,1,.7.48,2.47,2.47,0,0,1,.27,1.33,2.38,2.38,0,0,1-.26,1.25,1.15,1.15,0,0,1-.69.51,3.39,3.39,0,0,1-.93.11l-3.27-.07-3,0a1.26,1.26,0,0,1-1-.46,2.55,2.55,0,0,1-.29-1.39,2.08,2.08,0,0,1,.36-1.34A1.26,1.26,0,0,1,260.35,22.64ZM266,35a7.5,7.5,0,0,1-2.2-.28,3.43,3.43,0,0,1-1.51-.85,3.51,3.51,0,0,1-.88-1.46,7,7,0,0,1-.28-2.11V20.12a4.15,4.15,0,0,1,.09-.92,1.07,1.07,0,0,1,.49-.67,2.48,2.48,0,0,1,1.3-.26,2.3,2.3,0,0,1,1.3.28,1.13,1.13,0,0,1,.49.71,5.4,5.4,0,0,1,.08.91V30.1a3,3,0,0,0,.06.66.75.75,0,0,0,.19.39.68.68,0,0,0,.35.17,2.19,2.19,0,0,0,.55.05,4.67,4.67,0,0,1,1,.1,1.1,1.1,0,0,1,.66.45,2.19,2.19,0,0,1,.24,1.18,2.3,2.3,0,0,1-.28,1.3,1,1,0,0,1-.71.47A5.31,5.31,0,0,1,266,35Z"/><path class="cls-2" d="M272.21,35a2.5,2.5,0,0,1-1.31-.26,1,1,0,0,1-.47-.71,4.73,4.73,0,0,1-.09-.93V24.33a4.45,4.45,0,0,1,.09-.93,1.08,1.08,0,0,1,.49-.69,2.59,2.59,0,0,1,1.33-.26,2.5,2.5,0,0,1,1.26.24,1.06,1.06,0,0,1,.49.55,2.08,2.08,0,0,1,.1.54l-.31.15a3.56,3.56,0,0,1,.86-.91,3.4,3.4,0,0,1,.91-.49,3.62,3.62,0,0,1,1.24-.2,4.66,4.66,0,0,1,.61,0,3.14,3.14,0,0,1,.7.15,2.47,2.47,0,0,1,.66.3,1.66,1.66,0,0,1,.49.46,1.15,1.15,0,0,1,.18.68,3,3,0,0,1-.47,1.73,1.41,1.41,0,0,1-1.2.72,1.93,1.93,0,0,1-.6-.07,1,1,0,0,1-.29-.15.93.93,0,0,0-.26-.15,1.68,1.68,0,0,0-.55-.06,2.34,2.34,0,0,0-.71.1,2.06,2.06,0,0,0-.63.31,1.54,1.54,0,0,0-.45.53,1.46,1.46,0,0,0-.16.71V33.1A5.52,5.52,0,0,1,274,34a1,1,0,0,1-.49.68A2.6,2.6,0,0,1,272.21,35Z"/><path class="cls-2" d="M291.61,34.94a2.33,2.33,0,0,1-1.37-.33.91.91,0,0,1-.43-.8l.25-.42a2.72,2.72,0,0,1-.57.61,4.28,4.28,0,0,1-1.11.65,4.38,4.38,0,0,1-1.67.29,4.88,4.88,0,0,1-2.18-.51,5.75,5.75,0,0,1-1.84-1.38,7.18,7.18,0,0,1-1.27-2,6,6,0,0,1-.48-2.37,5.83,5.83,0,0,1,.48-2.34,6.34,6.34,0,0,1,1.29-2A6.27,6.27,0,0,1,284.55,23a4.89,4.89,0,0,1,2.17-.49,4.15,4.15,0,0,1,1.58.26,4.24,4.24,0,0,1,1.08.61A3.45,3.45,0,0,1,290,24l-.22-.35a1,1,0,0,1,.44-.91,2.39,2.39,0,0,1,1.39-.32,2.29,2.29,0,0,1,1.28.28,1.11,1.11,0,0,1,.48.73,4.77,4.77,0,0,1,.08.94V33a4.81,4.81,0,0,1-.09.93,1.12,1.12,0,0,1-.47.71A2.52,2.52,0,0,1,291.61,34.94Zm-4.37-3.73a2.13,2.13,0,0,0,1.2-.34,2.57,2.57,0,0,0,0-4.36,2.55,2.55,0,0,0-2.49,0,2.64,2.64,0,0,0-.9.92,2.53,2.53,0,0,0-.34,1.29A2.31,2.31,0,0,0,285,30a2.41,2.41,0,0,0,.92.9A2.49,2.49,0,0,0,287.24,31.21Z"/><path class="cls-2" d="M297.36,35a1.79,1.79,0,0,1-1.31-.54,1.81,1.81,0,0,1-.54-1.34,2,2,0,0,1,.14-.72,1.85,1.85,0,0,1,.41-.63l5.68-5.49h-3.8a3.91,3.91,0,0,1-.91-.1,1.18,1.18,0,0,1-.72-.49,2.17,2.17,0,0,1-.29-1.31,2.28,2.28,0,0,1,.29-1.31,1.11,1.11,0,0,1,.72-.47,4.56,4.56,0,0,1,.92-.09h7.82a1.8,1.8,0,0,1,1.85,1.85,2.19,2.19,0,0,1-.14.77,1.42,1.42,0,0,1-.39.58l-5.55,5.53h4.52a3.84,3.84,0,0,1,.93.1,1.14,1.14,0,0,1,.69.5,2.57,2.57,0,0,1,.26,1.32,2.28,2.28,0,0,1-.28,1.3,1,1,0,0,1-.7.48A5.29,5.29,0,0,1,306,35Z"/><path class="cls-2" d="M316,35.18a6.26,6.26,0,0,1-2.34-.47,6.84,6.84,0,0,1-2.11-1.31,6.38,6.38,0,0,1-1.51-2,6,6,0,0,1-.56-2.63,6.24,6.24,0,0,1,.51-2.52,6.75,6.75,0,0,1,1.41-2.06,6.67,6.67,0,0,1,2.07-1.41,6.09,6.09,0,0,1,2.49-.51,6.38,6.38,0,0,1,3.26.86,6.61,6.61,0,0,1,2.33,2.34,6.27,6.27,0,0,1,.88,3.28,6.2,6.2,0,0,1-.57,2.71,6.35,6.35,0,0,1-1.5,2,6.68,6.68,0,0,1-2.07,1.28A6.42,6.42,0,0,1,316,35.18Zm-.05-3.78a2.85,2.85,0,0,0,1.23-.3,2.88,2.88,0,0,0,1.05-.89,2.61,2.61,0,0,0,.42-1.53,2.67,2.67,0,0,0-.35-1.4,2.48,2.48,0,0,0-1-.94,2.94,2.94,0,0,0-1.41-.34,2.6,2.6,0,0,0-1.34.35,2.82,2.82,0,0,0-.95,1,2.72,2.72,0,0,0-.36,1.39,2.58,2.58,0,0,0,.41,1.51,2.53,2.53,0,0,0,1,.91A2.89,2.89,0,0,0,315.94,31.4Z"/><path class="cls-2" d="M328.94,35.19a8.15,8.15,0,0,1-1.48-.15,9.62,9.62,0,0,1-1.53-.44,4.9,4.9,0,0,1-1.25-.68,1.28,1.28,0,0,1-.57-.89,1.2,1.2,0,0,1,0-.53,2.08,2.08,0,0,1,.22-.6,5.08,5.08,0,0,1,.44-.67.89.89,0,0,1,.44-.35,1,1,0,0,1,.58,0,3.63,3.63,0,0,1,.81.26l.82.4a8.47,8.47,0,0,0,.87.38,2.68,2.68,0,0,0,.93.16,2.32,2.32,0,0,0,1.09-.21.67.67,0,0,0,.22-1,1.6,1.6,0,0,0-.45-.3c-.19-.08-.41-.16-.67-.24l-.81-.21c-.29-.07-.59-.15-.9-.25a9.05,9.05,0,0,1-1.19-.45,4,4,0,0,1-1-.71,3.1,3.1,0,0,1-.74-1.08,4,4,0,0,1-.27-1.56,3.59,3.59,0,0,1,.56-2,3.53,3.53,0,0,1,1.66-1.26,7.41,7.41,0,0,1,2.7-.44,8.88,8.88,0,0,1,.9.05,5.4,5.4,0,0,1,.89.18,6.74,6.74,0,0,1,.86.3,7.44,7.44,0,0,1,.85.42,1.14,1.14,0,0,1,.78.95,2,2,0,0,1-.43,1.25,1.9,1.9,0,0,1-.57.59.89.89,0,0,1-.63.14,4.36,4.36,0,0,1-.86-.34c-.31-.16-.63-.3-1-.44a2.89,2.89,0,0,0-1-.2,2.18,2.18,0,0,0-.72.11,1.11,1.11,0,0,0-.45.3.69.69,0,0,0-.15.44.66.66,0,0,0,.19.51,1.4,1.4,0,0,0,.51.32,4.87,4.87,0,0,0,.75.22c.28.07.59.14.92.2s.91.2,1.39.34a4.85,4.85,0,0,1,1.3.61,3,3,0,0,1,.95,1.08,3.76,3.76,0,0,1,.36,1.77,3.58,3.58,0,0,1-1.38,3A6.33,6.33,0,0,1,328.94,35.19Z"/><path class="cls-3" d="M92.82,32.2a2.77,2.77,0,0,1,.32,1.06,1,1,0,0,1-.26.77,2.84,2.84,0,0,1-.94.66,2,2,0,0,1-1.55.3,2.1,2.1,0,0,1-1-1.2l-4.9-10.25L79.59,33.79a2.2,2.2,0,0,1-1,1.16A2.16,2.16,0,0,1,77,34.66a2.74,2.74,0,0,1-1-.64,1,1,0,0,1-.27-.8,3,3,0,0,1,.37-1.09l6.58-13.67a2,2,0,0,1,.74-.8,1.88,1.88,0,0,1,1-.3,2,2,0,0,1,.7.14,2.09,2.09,0,0,1,.59.39,2.45,2.45,0,0,1,.44.6ZM80.27,30.76l1.55-3.22h5.33l1.54,3.23Z"/><path class="cls-3" d="M101,35a6.69,6.69,0,0,1-2.24-.41,7.2,7.2,0,0,1-2.1-1.22,5.77,5.77,0,0,1-1.53-2,6.85,6.85,0,0,1,0-5.47,6,6,0,0,1,1.53-2,7,7,0,0,1,2.09-1.21,6.52,6.52,0,0,1,2.21-.41,6,6,0,0,1,1.66.21,5.88,5.88,0,0,1,1.25.52,3.91,3.91,0,0,1,.74.52c.28.22.53.44.75.65a1.13,1.13,0,0,1,.3.85,1.53,1.53,0,0,1-.18.56,3.82,3.82,0,0,1-.37.59c-.52.7-1,1-1.5,1a2.27,2.27,0,0,1-.69-.25l-.6-.35a4.37,4.37,0,0,0-.61-.31,2,2,0,0,0-.75-.14,2.45,2.45,0,0,0-1.3.34,2.48,2.48,0,0,0-.92.9,2.52,2.52,0,0,0-.33,1.31,2.47,2.47,0,0,0,.33,1.3,2.61,2.61,0,0,0,.9.91,2.58,2.58,0,0,0,2,.24,2.59,2.59,0,0,0,.55-.24l.35-.21.57-.36a1.08,1.08,0,0,1,.55-.16,1.21,1.21,0,0,1,.74.26,4.1,4.1,0,0,1,.81.84,2,2,0,0,1,.49,1,1.26,1.26,0,0,1-.21.87,2.92,2.92,0,0,1-.85.76,5.33,5.33,0,0,1-.72.45,6.9,6.9,0,0,1-1.25.5A5.66,5.66,0,0,1,101,35Z"/><path class="cls-3" d="M114,35.06a6.3,6.3,0,0,1-2.34-.47,6.84,6.84,0,0,1-2.11-1.31,6.38,6.38,0,0,1-1.51-2,6.47,6.47,0,0,1,0-5.15A7,7,0,0,1,109.4,24a6.75,6.75,0,0,1,2.06-1.41,6.13,6.13,0,0,1,2.49-.51,6.33,6.33,0,0,1,3.26.86,6.64,6.64,0,0,1,2.34,2.34,6.71,6.71,0,0,1,.31,6,6.59,6.59,0,0,1-3.58,3.32A6.38,6.38,0,0,1,114,35.06Zm0-3.78a2.85,2.85,0,0,0,1.23-.3,2.81,2.81,0,0,0,1-.9,2.57,2.57,0,0,0,.42-1.52,2.77,2.77,0,0,0-.34-1.4,2.58,2.58,0,0,0-1-.94,2.91,2.91,0,0,0-1.41-.34,2.63,2.63,0,0,0-1.34.35,2.73,2.73,0,0,0-1,1,2.93,2.93,0,0,0,.05,2.9,2.49,2.49,0,0,0,1,.9A2.76,2.76,0,0,0,113.94,31.28Z"/><path class="cls-3" d="M124.27,34.86a2.38,2.38,0,0,1-1.3-.27,1.08,1.08,0,0,1-.48-.7,5.41,5.41,0,0,1-.07-.93V24.21a4.43,4.43,0,0,1,.09-.9,1,1,0,0,1,.49-.68,2.43,2.43,0,0,1,1.32-.27,2.05,2.05,0,0,1,1.35.37,1.46,1.46,0,0,1,.43,1.18l-.33.28a2.91,2.91,0,0,1,.3-.43,5.63,5.63,0,0,1,.65-.62,4.1,4.1,0,0,1,.94-.56,2.83,2.83,0,0,1,1.16-.24,4.35,4.35,0,0,1,1.49.24,3.82,3.82,0,0,1,1.2.7,4.55,4.55,0,0,1,.94,1.16,6.22,6.22,0,0,1,.85-1,4.48,4.48,0,0,1,1.17-.8,3.44,3.44,0,0,1,1.53-.32,4.14,4.14,0,0,1,2.49.73A4.6,4.6,0,0,1,140,25.2a9.11,9.11,0,0,1,.52,3.32V33a3.85,3.85,0,0,1-.1.91,1.13,1.13,0,0,1-.49.7,2.38,2.38,0,0,1-1.31.26,2.41,2.41,0,0,1-1.32-.27,1.07,1.07,0,0,1-.48-.72,5.33,5.33,0,0,1-.07-.91V28.5a3.81,3.81,0,0,0-.19-1.29,1.84,1.84,0,0,0-.53-.83,1.4,1.4,0,0,0-.9-.28,1.71,1.71,0,0,0-1,.27,1.6,1.6,0,0,0-.6.8,3.92,3.92,0,0,0-.2,1.35V33a3.5,3.5,0,0,1-.13.94,1.17,1.17,0,0,1-.54.7,2.44,2.44,0,0,1-1.33.24,2.09,2.09,0,0,1-1.25-.29,1.12,1.12,0,0,1-.45-.73,5.14,5.14,0,0,1-.08-.88V28.49a4.23,4.23,0,0,0-.17-1.3,1.69,1.69,0,0,0-.52-.82,1.45,1.45,0,0,0-.93-.28,1.53,1.53,0,0,0-1,.33,1.78,1.78,0,0,0-.59.86,3.53,3.53,0,0,0-.19,1.21V33a4.42,4.42,0,0,1-.09.92,1,1,0,0,1-.49.69A2.47,2.47,0,0,1,124.27,34.86Z"/><path class="cls-3" d="M144.71,40.05a2.51,2.51,0,0,1-1.3-.26,1,1,0,0,1-.47-.68,4.88,4.88,0,0,1-.08-.88v-14a5.05,5.05,0,0,1,.08-.91,1,1,0,0,1,.46-.69,2.34,2.34,0,0,1,1.29-.27,2.9,2.9,0,0,1,1.24.22,1.41,1.41,0,0,1,.66.7V38.2a3.28,3.28,0,0,1-.08.9,1.09,1.09,0,0,1-.49.69A2.45,2.45,0,0,1,144.71,40.05Zm4.81-5.4a4.58,4.58,0,0,1-2.15-.48,4.49,4.49,0,0,1-1.54-1.33,5.9,5.9,0,0,1-.92-1.94,7.86,7.86,0,0,1-.29-2.37,8.17,8.17,0,0,1,.33-2.34,6.69,6.69,0,0,1,.93-2,4.32,4.32,0,0,1,3.64-1.83,4.88,4.88,0,0,1,2.15.5,6.24,6.24,0,0,1,1.84,1.36,6.56,6.56,0,0,1,1.27,2,6.15,6.15,0,0,1,.46,2.38,6.05,6.05,0,0,1-.46,2.36,6.25,6.25,0,0,1-1.26,1.94,5.88,5.88,0,0,1-1.83,1.28A5.19,5.19,0,0,1,149.52,34.65Zm-.5-3.52a2.32,2.32,0,0,0,1.25-.34,2.67,2.67,0,0,0,.89-.91,2.66,2.66,0,0,0,0-2.55,2.4,2.4,0,0,0-.89-.9,2.36,2.36,0,0,0-1.23-.33,2.41,2.41,0,0,0-1.24.34,2.37,2.37,0,0,0-.88.9,2.53,2.53,0,0,0-.31,1.26,2.64,2.64,0,0,0,.32,1.28,2.48,2.48,0,0,0,.88.91A2.18,2.18,0,0,0,149,31.13Z"/><path class="cls-3" d="M167.49,34.86a2.31,2.31,0,0,1-1.37-.32.89.89,0,0,1-.43-.8l.25-.43a3,3,0,0,1-.57.62,4.66,4.66,0,0,1-1.12.65,4.34,4.34,0,0,1-1.66.28,5,5,0,0,1-2.19-.5A5.85,5.85,0,0,1,158.57,33a7,7,0,0,1-1.28-2,6.16,6.16,0,0,1-.47-2.38,6,6,0,0,1,.47-2.33,6.77,6.77,0,0,1,1.29-2,6.51,6.51,0,0,1,1.84-1.36,5,5,0,0,1,2.18-.5,4.09,4.09,0,0,1,1.57.27,3.88,3.88,0,0,1,1.09.61,3.43,3.43,0,0,1,.66.67l-.22-.35a1,1,0,0,1,.43-.91,2.44,2.44,0,0,1,1.39-.31,2.24,2.24,0,0,1,1.29.28,1.07,1.07,0,0,1,.47.72,4.86,4.86,0,0,1,.09.95V33a4.7,4.7,0,0,1-.09.92,1.07,1.07,0,0,1-.48.71A2.3,2.3,0,0,1,167.49,34.86Zm-4.37-3.72a2.21,2.21,0,0,0,1.2-.34,2.57,2.57,0,0,0,.85-.91,2.61,2.61,0,0,0,.32-1.28,2.46,2.46,0,0,0-.32-1.28,2.35,2.35,0,0,0-.88-.89,2.3,2.3,0,0,0-1.22-.33,2.33,2.33,0,0,0-1.26.34,2.53,2.53,0,0,0-1.24,2.21,2.34,2.34,0,0,0,.34,1.24,2.56,2.56,0,0,0,.92.9A2.59,2.59,0,0,0,163.12,31.14Z"/><path class="cls-3" d="M173.74,34.87a2.37,2.37,0,0,1-1.31-.27,1.05,1.05,0,0,1-.48-.7,4.47,4.47,0,0,1-.08-.91v-8.8a4.1,4.1,0,0,1,.09-.88,1,1,0,0,1,.49-.67,2.67,2.67,0,0,1,1.32-.25,2.37,2.37,0,0,1,1.18.22,1,1,0,0,1,.48.51,1.53,1.53,0,0,1,.12.56.75.75,0,0,0,0,.36l-.15.48a1.48,1.48,0,0,1,.38-.76,3.74,3.74,0,0,1,.85-.7,4.93,4.93,0,0,1,1.1-.49A4.36,4.36,0,0,1,179,22.4a4.83,4.83,0,0,1,2.13.44,4.24,4.24,0,0,1,1.59,1.26,6,6,0,0,1,1,1.94,8.5,8.5,0,0,1,.33,2.43V33a4.56,4.56,0,0,1-.09.92,1,1,0,0,1-.47.68,2.59,2.59,0,0,1-1.34.25,2.49,2.49,0,0,1-1.33-.26,1.1,1.1,0,0,1-.48-.7,4.53,4.53,0,0,1-.09-.91V28.47a2.74,2.74,0,0,0-.26-1.27,1.76,1.76,0,0,0-.75-.8,2.36,2.36,0,0,0-1.21-.28,2.59,2.59,0,0,0-1.25.29,2,2,0,0,0-.81.81,2.48,2.48,0,0,0-.29,1.25V33a4.46,4.46,0,0,1-.09.91,1.06,1.06,0,0,1-.48.69A2.49,2.49,0,0,1,173.74,34.87ZM176.6,17a1.6,1.6,0,0,1,1,.28,6.21,6.21,0,0,1,.64.59.77.77,0,0,0,.57.3.66.66,0,0,0,.54-.25c.14-.16.29-.34.45-.51a1,1,0,0,1,.62-.31.89.89,0,0,1,.46,0,1.3,1.3,0,0,1,.54.25,2,2,0,0,1,.81.84,1.17,1.17,0,0,1-.19,1,3.23,3.23,0,0,1-.7.94,4,4,0,0,1-1.08.73,2.71,2.71,0,0,1-1.17.28,1.49,1.49,0,0,1-1-.3,7.08,7.08,0,0,1-.69-.6.89.89,0,0,0-.63-.3,1.43,1.43,0,0,0-.9.23,2.33,2.33,0,0,0-.5.49A1.08,1.08,0,0,1,175,21c-.16,0-.44-.06-.84-.34a1.88,1.88,0,0,1-.72-.91,1.28,1.28,0,0,1,.27-1,3.72,3.72,0,0,1,.81-.89,4.79,4.79,0,0,1,1.07-.67A2.31,2.31,0,0,1,176.6,17Z"/><path class="cls-3" d="M196.64,34.88a2.42,2.42,0,0,1-1.38-.32.9.9,0,0,1-.42-.8l.25-.43a2.72,2.72,0,0,1-.57.61,4.25,4.25,0,0,1-2.78.94,5,5,0,0,1-2.19-.5A6,6,0,0,1,187.72,33a7,7,0,0,1-1.28-2A6.2,6.2,0,0,1,186,28.6a6,6,0,0,1,.47-2.34,6.72,6.72,0,0,1,1.29-2,6.32,6.32,0,0,1,1.84-1.36,4.94,4.94,0,0,1,2.18-.5,4.05,4.05,0,0,1,2.66.88,3.18,3.18,0,0,1,.66.67l-.22-.35a1,1,0,0,1,.43-.91,2.44,2.44,0,0,1,1.39-.31,2.34,2.34,0,0,1,1.29.27,1.11,1.11,0,0,1,.47.73,4.86,4.86,0,0,1,.09.95V33a4.73,4.73,0,0,1-.09.93,1.07,1.07,0,0,1-.48.71A2.48,2.48,0,0,1,196.64,34.88Zm-4.37-3.73a2.21,2.21,0,0,0,1.2-.33,2.56,2.56,0,0,0,1.17-2.19,2.52,2.52,0,0,0-.32-1.29,2.4,2.4,0,0,0-.88-.88,2.3,2.3,0,0,0-1.22-.33,2.33,2.33,0,0,0-1.26.34,2.53,2.53,0,0,0-1.24,2.21,2.34,2.34,0,0,0,.34,1.24,2.53,2.53,0,0,0,2.21,1.23Z"/><path class="cls-3" d="M202.89,34.91a2.45,2.45,0,0,1-1.31-.26,1.11,1.11,0,0,1-.48-.72A4.57,4.57,0,0,1,201,33V24.29a4.45,4.45,0,0,1,.09-.93,1.08,1.08,0,0,1,.49-.69,2.52,2.52,0,0,1,1.32-.26,2.47,2.47,0,0,1,1.26.24,1.06,1.06,0,0,1,.49.55,1.73,1.73,0,0,1,.1.54l-.3.15a2.39,2.39,0,0,1,.26-.37,3.57,3.57,0,0,1,.59-.54,3.28,3.28,0,0,1,.91-.49,3.4,3.4,0,0,1,1.24-.2,4.55,4.55,0,0,1,.61,0,3,3,0,0,1,.7.15,2.4,2.4,0,0,1,.67.3,1.51,1.51,0,0,1,.48.46,1.14,1.14,0,0,1,.19.68,3,3,0,0,1-.48,1.73,1.38,1.38,0,0,1-1.2.71,2.11,2.11,0,0,1-.6-.06.92.92,0,0,1-.28-.15,1.17,1.17,0,0,0-.27-.15,1.68,1.68,0,0,0-.55-.06,2.39,2.39,0,0,0-.71.1,1.9,1.9,0,0,0-.62.31,1.39,1.39,0,0,0-.45.52,1.53,1.53,0,0,0-.17.72v5.47a4.46,4.46,0,0,1-.09.91,1,1,0,0,1-.49.69A2.53,2.53,0,0,1,202.89,34.91Z"/><path class="cls-3" d="M223.41,34.92a14.14,14.14,0,0,1-1.82-.1,3.9,3.9,0,0,1-1.35-.4,2.42,2.42,0,0,1-.9-.84,3.85,3.85,0,0,1-.52-1.37,10,10,0,0,1-.18-2.06V18.6a3.84,3.84,0,0,1,.1-.93,1.18,1.18,0,0,1,.49-.7,2.37,2.37,0,0,1,1.31-.27,2.34,2.34,0,0,1,1.29.27,1.15,1.15,0,0,1,.48.7,3.9,3.9,0,0,1,.1.93V30a6.19,6.19,0,0,0,0,.67,1,1,0,0,0,.15.41.59.59,0,0,0,.32.2,2.34,2.34,0,0,0,.52.05,2.6,2.6,0,0,1,.61.07.89.89,0,0,1,.54.45,2.47,2.47,0,0,1,.22,1.25,2.78,2.78,0,0,1-.22,1.3.88.88,0,0,1-.54.48A2.73,2.73,0,0,1,223.41,34.92Z"/><path class="cls-3" d="M232.64,35.13a6.26,6.26,0,0,1-2.34-.47,6.84,6.84,0,0,1-2.11-1.31,6.38,6.38,0,0,1-1.51-2,6,6,0,0,1-.56-2.64,6.19,6.19,0,0,1,.51-2.51,6.75,6.75,0,0,1,3.48-3.47,6.09,6.09,0,0,1,2.49-.51,6.35,6.35,0,0,1,3.26.86,6.61,6.61,0,0,1,2.33,2.34,6.27,6.27,0,0,1,.88,3.28,6.2,6.2,0,0,1-.57,2.71,6.35,6.35,0,0,1-1.5,2,6.68,6.68,0,0,1-2.07,1.28A6.38,6.38,0,0,1,232.64,35.13Zm0-3.78a2.85,2.85,0,0,0,1.23-.3,2.79,2.79,0,0,0,1.05-.89,2.61,2.61,0,0,0,.42-1.53,2.67,2.67,0,0,0-.35-1.4,2.48,2.48,0,0,0-1-.94,2.94,2.94,0,0,0-1.41-.34,2.6,2.6,0,0,0-1.34.35,2.76,2.76,0,0,0-.95,1,2.66,2.66,0,0,0-.36,1.38,2.58,2.58,0,0,0,.41,1.51,2.53,2.53,0,0,0,1,.91A2.89,2.89,0,0,0,232.59,31.35Z"/><path class="cls-3" d="M245.59,35.14a8.15,8.15,0,0,1-1.48-.15,8.68,8.68,0,0,1-1.53-.44,4.9,4.9,0,0,1-1.25-.68,1.26,1.26,0,0,1-.56-.89,1.19,1.19,0,0,1,0-.53,2.19,2.19,0,0,1,.22-.6,5.08,5.08,0,0,1,.44-.67.89.89,0,0,1,.44-.35,1,1,0,0,1,.59,0,3.72,3.72,0,0,1,.8.26l.82.4a8.64,8.64,0,0,0,.88.38,2.62,2.62,0,0,0,.92.16,2.32,2.32,0,0,0,1.09-.21.65.65,0,0,0,.39-.59.64.64,0,0,0-.17-.45,1.35,1.35,0,0,0-.45-.3c-.19-.08-.41-.16-.67-.24l-.81-.21a8.76,8.76,0,0,1-.9-.25,9.05,9.05,0,0,1-1.19-.45,4,4,0,0,1-1.05-.71,3.24,3.24,0,0,1-.74-1.08,4,4,0,0,1-.27-1.56,3.59,3.59,0,0,1,.56-2.05,3.51,3.51,0,0,1,1.67-1.26,7.34,7.34,0,0,1,2.7-.44c.3,0,.6,0,.9,0a5.28,5.28,0,0,1,.88.18,7.47,7.47,0,0,1,.87.3c.28.12.56.26.85.42a1.13,1.13,0,0,1,.77.95,2,2,0,0,1-.43,1.25,1.9,1.9,0,0,1-.57.59.89.89,0,0,1-.63.14,4.36,4.36,0,0,1-.86-.34c-.31-.16-.63-.3-1-.44a2.85,2.85,0,0,0-1-.2,2.18,2.18,0,0,0-.72.11,1.11,1.11,0,0,0-.45.3.69.69,0,0,0-.15.44.66.66,0,0,0,.19.51,1.4,1.4,0,0,0,.51.32,5.64,5.64,0,0,0,.75.22c.28.07.59.14.92.2s.92.2,1.39.34a4.71,4.71,0,0,1,1.3.61,3,3,0,0,1,.95,1.08,3.76,3.76,0,0,1,.36,1.77,3.58,3.58,0,0,1-1.38,3A6.33,6.33,0,0,1,245.59,35.14Z"/><path class="cls-3" d="M260.35,22.64h2.75l3.45-.1a4.43,4.43,0,0,1,.9.09,1.15,1.15,0,0,1,.7.48,2.47,2.47,0,0,1,.27,1.33,2.38,2.38,0,0,1-.26,1.25,1.15,1.15,0,0,1-.69.51,3.39,3.39,0,0,1-.93.11l-3.27-.07-3,0a1.26,1.26,0,0,1-1-.46,2.55,2.55,0,0,1-.29-1.39,2.08,2.08,0,0,1,.36-1.34A1.26,1.26,0,0,1,260.35,22.64ZM266,35a7.5,7.5,0,0,1-2.2-.28,3.43,3.43,0,0,1-1.51-.85,3.51,3.51,0,0,1-.88-1.46,7,7,0,0,1-.28-2.11V20.12a4.15,4.15,0,0,1,.09-.92,1.07,1.07,0,0,1,.49-.67,2.48,2.48,0,0,1,1.3-.26,2.3,2.3,0,0,1,1.3.28,1.13,1.13,0,0,1,.49.71,5.4,5.4,0,0,1,.08.91V30.1a3,3,0,0,0,.06.66.75.75,0,0,0,.19.39.68.68,0,0,0,.35.17,2.19,2.19,0,0,0,.55.05,4.67,4.67,0,0,1,1,.1,1.1,1.1,0,0,1,.66.45,2.19,2.19,0,0,1,.24,1.18,2.3,2.3,0,0,1-.28,1.3,1,1,0,0,1-.71.47A5.31,5.31,0,0,1,266,35Z"/><path class="cls-3" d="M272.21,35a2.5,2.5,0,0,1-1.31-.26,1,1,0,0,1-.47-.71,4.73,4.73,0,0,1-.09-.93V24.33a4.45,4.45,0,0,1,.09-.93,1.08,1.08,0,0,1,.49-.69,2.59,2.59,0,0,1,1.33-.26,2.5,2.5,0,0,1,1.26.24,1.06,1.06,0,0,1,.49.55,2.08,2.08,0,0,1,.1.54l-.31.15a3.56,3.56,0,0,1,.86-.91,3.4,3.4,0,0,1,.91-.49,3.62,3.62,0,0,1,1.24-.2,4.66,4.66,0,0,1,.61,0,3.14,3.14,0,0,1,.7.15,2.47,2.47,0,0,1,.66.3,1.66,1.66,0,0,1,.49.46,1.15,1.15,0,0,1,.18.68,3,3,0,0,1-.47,1.73,1.41,1.41,0,0,1-1.2.72,1.93,1.93,0,0,1-.6-.07,1,1,0,0,1-.29-.15.93.93,0,0,0-.26-.15,1.68,1.68,0,0,0-.55-.06,2.34,2.34,0,0,0-.71.1,2.06,2.06,0,0,0-.63.31,1.54,1.54,0,0,0-.45.53,1.46,1.46,0,0,0-.16.71V33.1A5.52,5.52,0,0,1,274,34a1,1,0,0,1-.49.68A2.6,2.6,0,0,1,272.21,35Z"/><path class="cls-3" d="M291.61,34.94a2.33,2.33,0,0,1-1.37-.33.91.91,0,0,1-.43-.8l.25-.42a2.72,2.72,0,0,1-.57.61,4.28,4.28,0,0,1-1.11.65,4.38,4.38,0,0,1-1.67.29,4.88,4.88,0,0,1-2.18-.51,5.75,5.75,0,0,1-1.84-1.38,7.18,7.18,0,0,1-1.27-2,6,6,0,0,1-.48-2.37,5.83,5.83,0,0,1,.48-2.34,6.34,6.34,0,0,1,1.29-2A6.27,6.27,0,0,1,284.55,23a4.89,4.89,0,0,1,2.17-.49,4.15,4.15,0,0,1,1.58.26,4.24,4.24,0,0,1,1.08.61A3.45,3.45,0,0,1,290,24l-.22-.35a1,1,0,0,1,.44-.91,2.39,2.39,0,0,1,1.39-.32,2.29,2.29,0,0,1,1.28.28,1.11,1.11,0,0,1,.48.73,4.77,4.77,0,0,1,.08.94V33a4.81,4.81,0,0,1-.09.93,1.12,1.12,0,0,1-.47.71A2.52,2.52,0,0,1,291.61,34.94Zm-4.37-3.73a2.13,2.13,0,0,0,1.2-.34,2.57,2.57,0,0,0,0-4.36,2.55,2.55,0,0,0-2.49,0,2.64,2.64,0,0,0-.9.92,2.53,2.53,0,0,0-.34,1.29A2.31,2.31,0,0,0,285,30a2.41,2.41,0,0,0,.92.9A2.49,2.49,0,0,0,287.24,31.21Z"/><path class="cls-3" d="M297.36,35a1.79,1.79,0,0,1-1.31-.54,1.81,1.81,0,0,1-.54-1.34,2,2,0,0,1,.14-.72,1.85,1.85,0,0,1,.41-.63l5.68-5.49h-3.8a3.91,3.91,0,0,1-.91-.1,1.18,1.18,0,0,1-.72-.49,2.17,2.17,0,0,1-.29-1.31,2.28,2.28,0,0,1,.29-1.31,1.11,1.11,0,0,1,.72-.47,4.56,4.56,0,0,1,.92-.09h7.82a1.8,1.8,0,0,1,1.85,1.85,2.19,2.19,0,0,1-.14.77,1.42,1.42,0,0,1-.39.58l-5.55,5.53h4.52a3.84,3.84,0,0,1,.93.1,1.14,1.14,0,0,1,.69.5,2.57,2.57,0,0,1,.26,1.32,2.28,2.28,0,0,1-.28,1.3,1,1,0,0,1-.7.48A5.29,5.29,0,0,1,306,35Z"/><path class="cls-3" d="M316,35.18a6.26,6.26,0,0,1-2.34-.47,6.84,6.84,0,0,1-2.11-1.31,6.38,6.38,0,0,1-1.51-2,6,6,0,0,1-.56-2.63,6.24,6.24,0,0,1,.51-2.52,6.75,6.75,0,0,1,1.41-2.06,6.67,6.67,0,0,1,2.07-1.41,6.09,6.09,0,0,1,2.49-.51,6.38,6.38,0,0,1,3.26.86,6.61,6.61,0,0,1,2.33,2.34,6.27,6.27,0,0,1,.88,3.28,6.2,6.2,0,0,1-.57,2.71,6.35,6.35,0,0,1-1.5,2,6.68,6.68,0,0,1-2.07,1.28A6.42,6.42,0,0,1,316,35.18Zm-.05-3.78a2.85,2.85,0,0,0,1.23-.3,2.88,2.88,0,0,0,1.05-.89,2.61,2.61,0,0,0,.42-1.53,2.67,2.67,0,0,0-.35-1.4,2.48,2.48,0,0,0-1-.94,2.94,2.94,0,0,0-1.41-.34,2.6,2.6,0,0,0-1.34.35,2.82,2.82,0,0,0-.95,1,2.72,2.72,0,0,0-.36,1.39,2.58,2.58,0,0,0,.41,1.51,2.53,2.53,0,0,0,1,.91A2.89,2.89,0,0,0,315.94,31.4Z"/><path class="cls-3" d="M328.94,35.19a8.15,8.15,0,0,1-1.48-.15,9.62,9.62,0,0,1-1.53-.44,4.9,4.9,0,0,1-1.25-.68,1.28,1.28,0,0,1-.57-.89,1.2,1.2,0,0,1,0-.53,2.08,2.08,0,0,1,.22-.6,5.08,5.08,0,0,1,.44-.67.89.89,0,0,1,.44-.35,1,1,0,0,1,.58,0,3.63,3.63,0,0,1,.81.26l.82.4a8.47,8.47,0,0,0,.87.38,2.68,2.68,0,0,0,.93.16,2.32,2.32,0,0,0,1.09-.21.67.67,0,0,0,.22-1,1.6,1.6,0,0,0-.45-.3c-.19-.08-.41-.16-.67-.24l-.81-.21c-.29-.07-.59-.15-.9-.25a9.05,9.05,0,0,1-1.19-.45,4,4,0,0,1-1-.71,3.1,3.1,0,0,1-.74-1.08,4,4,0,0,1-.27-1.56,3.59,3.59,0,0,1,.56-2,3.53,3.53,0,0,1,1.66-1.26,7.41,7.41,0,0,1,2.7-.44,8.88,8.88,0,0,1,.9.05,5.4,5.4,0,0,1,.89.18,6.74,6.74,0,0,1,.86.3,7.44,7.44,0,0,1,.85.42,1.14,1.14,0,0,1,.78.95,2,2,0,0,1-.43,1.25,1.9,1.9,0,0,1-.57.59.89.89,0,0,1-.63.14,4.36,4.36,0,0,1-.86-.34c-.31-.16-.63-.3-1-.44a2.89,2.89,0,0,0-1-.2,2.18,2.18,0,0,0-.72.11,1.11,1.11,0,0,0-.45.3.69.69,0,0,0-.15.44.66.66,0,0,0,.19.51,1.4,1.4,0,0,0,.51.32,4.87,4.87,0,0,0,.75.22c.28.07.59.14.92.2s.91.2,1.39.34a4.85,4.85,0,0,1,1.3.61,3,3,0,0,1,.95,1.08,3.76,3.76,0,0,1,.36,1.77,3.58,3.58,0,0,1-1.38,3A6.33,6.33,0,0,1,328.94,35.19Z"/><path class="cls-2" d="M92.82,32.2a2.77,2.77,0,0,1,.32,1.06,1,1,0,0,1-.26.77,2.84,2.84,0,0,1-.94.66,2,2,0,0,1-1.55.3,2.1,2.1,0,0,1-1-1.2l-4.9-10.25L79.59,33.79a2.2,2.2,0,0,1-1,1.16A2.16,2.16,0,0,1,77,34.66a2.74,2.74,0,0,1-1-.64,1,1,0,0,1-.27-.8,3,3,0,0,1,.37-1.09l6.58-13.67a2,2,0,0,1,.74-.8,1.88,1.88,0,0,1,1-.3,2,2,0,0,1,.7.14,2.09,2.09,0,0,1,.59.39,2.45,2.45,0,0,1,.44.6ZM80.27,30.76l1.55-3.22h5.33l1.54,3.23Z"/><path class="cls-2" d="M101,35a6.69,6.69,0,0,1-2.24-.41,7.2,7.2,0,0,1-2.1-1.22,5.77,5.77,0,0,1-1.53-2,6.85,6.85,0,0,1,0-5.47,6,6,0,0,1,1.53-2,7,7,0,0,1,2.09-1.21,6.52,6.52,0,0,1,2.21-.41,6,6,0,0,1,1.66.21,5.88,5.88,0,0,1,1.25.52,3.91,3.91,0,0,1,.74.52c.28.22.53.44.75.65a1.13,1.13,0,0,1,.3.85,1.53,1.53,0,0,1-.18.56,3.82,3.82,0,0,1-.37.59c-.52.7-1,1-1.5,1a2.27,2.27,0,0,1-.69-.25l-.6-.35a4.37,4.37,0,0,0-.61-.31,2,2,0,0,0-.75-.14,2.45,2.45,0,0,0-1.3.34,2.48,2.48,0,0,0-.92.9,2.52,2.52,0,0,0-.33,1.31,2.47,2.47,0,0,0,.33,1.3,2.61,2.61,0,0,0,.9.91,2.58,2.58,0,0,0,2,.24,2.59,2.59,0,0,0,.55-.24l.35-.21.57-.36a1.08,1.08,0,0,1,.55-.16,1.21,1.21,0,0,1,.74.26,4.1,4.1,0,0,1,.81.84,2,2,0,0,1,.49,1,1.26,1.26,0,0,1-.21.87,2.92,2.92,0,0,1-.85.76,5.33,5.33,0,0,1-.72.45,6.9,6.9,0,0,1-1.25.5A5.66,5.66,0,0,1,101,35Z"/><path class="cls-2" d="M114,35.06a6.3,6.3,0,0,1-2.34-.47,6.84,6.84,0,0,1-2.11-1.31,6.38,6.38,0,0,1-1.51-2,6.47,6.47,0,0,1,0-5.15A7,7,0,0,1,109.4,24a6.75,6.75,0,0,1,2.06-1.41,6.13,6.13,0,0,1,2.49-.51,6.33,6.33,0,0,1,3.26.86,6.64,6.64,0,0,1,2.34,2.34,6.71,6.71,0,0,1,.31,6,6.59,6.59,0,0,1-3.58,3.32A6.38,6.38,0,0,1,114,35.06Zm0-3.78a2.85,2.85,0,0,0,1.23-.3,2.81,2.81,0,0,0,1-.9,2.57,2.57,0,0,0,.42-1.52,2.77,2.77,0,0,0-.34-1.4,2.58,2.58,0,0,0-1-.94,2.91,2.91,0,0,0-1.41-.34,2.63,2.63,0,0,0-1.34.35,2.73,2.73,0,0,0-1,1,2.93,2.93,0,0,0,.05,2.9,2.49,2.49,0,0,0,1,.9A2.76,2.76,0,0,0,113.94,31.28Z"/><path class="cls-2" d="M124.27,34.86a2.38,2.38,0,0,1-1.3-.27,1.08,1.08,0,0,1-.48-.7,5.41,5.41,0,0,1-.07-.93V24.21a4.43,4.43,0,0,1,.09-.9,1,1,0,0,1,.49-.68,2.43,2.43,0,0,1,1.32-.27,2.05,2.05,0,0,1,1.35.37,1.46,1.46,0,0,1,.43,1.18l-.33.28a2.91,2.91,0,0,1,.3-.43,5.63,5.63,0,0,1,.65-.62,4.1,4.1,0,0,1,.94-.56,2.83,2.83,0,0,1,1.16-.24,4.35,4.35,0,0,1,1.49.24,3.82,3.82,0,0,1,1.2.7,4.55,4.55,0,0,1,.94,1.16,6.22,6.22,0,0,1,.85-1,4.48,4.48,0,0,1,1.17-.8,3.44,3.44,0,0,1,1.53-.32,4.14,4.14,0,0,1,2.49.73A4.6,4.6,0,0,1,140,25.2a9.11,9.11,0,0,1,.52,3.32V33a3.85,3.85,0,0,1-.1.91,1.13,1.13,0,0,1-.49.7,2.38,2.38,0,0,1-1.31.26,2.41,2.41,0,0,1-1.32-.27,1.07,1.07,0,0,1-.48-.72,5.33,5.33,0,0,1-.07-.91V28.5a3.81,3.81,0,0,0-.19-1.29,1.84,1.84,0,0,0-.53-.83,1.4,1.4,0,0,0-.9-.28,1.71,1.71,0,0,0-1,.27,1.6,1.6,0,0,0-.6.8,3.92,3.92,0,0,0-.2,1.35V33a3.5,3.5,0,0,1-.13.94,1.17,1.17,0,0,1-.54.7,2.44,2.44,0,0,1-1.33.24,2.09,2.09,0,0,1-1.25-.29,1.12,1.12,0,0,1-.45-.73,5.14,5.14,0,0,1-.08-.88V28.49a4.23,4.23,0,0,0-.17-1.3,1.69,1.69,0,0,0-.52-.82,1.45,1.45,0,0,0-.93-.28,1.53,1.53,0,0,0-1,.33,1.78,1.78,0,0,0-.59.86,3.53,3.53,0,0,0-.19,1.21V33a4.42,4.42,0,0,1-.09.92,1,1,0,0,1-.49.69A2.47,2.47,0,0,1,124.27,34.86Z"/><path class="cls-2" d="M144.71,40.05a2.51,2.51,0,0,1-1.3-.26,1,1,0,0,1-.47-.68,4.88,4.88,0,0,1-.08-.88v-14a5.05,5.05,0,0,1,.08-.91,1,1,0,0,1,.46-.69,2.34,2.34,0,0,1,1.29-.27,2.9,2.9,0,0,1,1.24.22,1.41,1.41,0,0,1,.66.7V38.2a3.28,3.28,0,0,1-.08.9,1.09,1.09,0,0,1-.49.69A2.45,2.45,0,0,1,144.71,40.05Zm4.81-5.4a4.58,4.58,0,0,1-2.15-.48,4.49,4.49,0,0,1-1.54-1.33,5.9,5.9,0,0,1-.92-1.94,7.86,7.86,0,0,1-.29-2.37,8.17,8.17,0,0,1,.33-2.34,6.69,6.69,0,0,1,.93-2,4.32,4.32,0,0,1,3.64-1.83,4.88,4.88,0,0,1,2.15.5,6.24,6.24,0,0,1,1.84,1.36,6.56,6.56,0,0,1,1.27,2,6.15,6.15,0,0,1,.46,2.38,6.05,6.05,0,0,1-.46,2.36,6.25,6.25,0,0,1-1.26,1.94,5.88,5.88,0,0,1-1.83,1.28A5.19,5.19,0,0,1,149.52,34.65Zm-.5-3.52a2.32,2.32,0,0,0,1.25-.34,2.67,2.67,0,0,0,.89-.91,2.66,2.66,0,0,0,0-2.55,2.4,2.4,0,0,0-.89-.9,2.36,2.36,0,0,0-1.23-.33,2.41,2.41,0,0,0-1.24.34,2.37,2.37,0,0,0-.88.9,2.53,2.53,0,0,0-.31,1.26,2.64,2.64,0,0,0,.32,1.28,2.48,2.48,0,0,0,.88.91A2.18,2.18,0,0,0,149,31.13Z"/><path class="cls-2" d="M167.49,34.86a2.31,2.31,0,0,1-1.37-.32.89.89,0,0,1-.43-.8l.25-.43a3,3,0,0,1-.57.62,4.66,4.66,0,0,1-1.12.65,4.34,4.34,0,0,1-1.66.28,5,5,0,0,1-2.19-.5A5.85,5.85,0,0,1,158.57,33a7,7,0,0,1-1.28-2,6.16,6.16,0,0,1-.47-2.38,6,6,0,0,1,.47-2.33,6.77,6.77,0,0,1,1.29-2,6.51,6.51,0,0,1,1.84-1.36,5,5,0,0,1,2.18-.5,4.09,4.09,0,0,1,1.57.27,3.88,3.88,0,0,1,1.09.61,3.43,3.43,0,0,1,.66.67l-.22-.35a1,1,0,0,1,.43-.91,2.44,2.44,0,0,1,1.39-.31,2.24,2.24,0,0,1,1.29.28,1.07,1.07,0,0,1,.47.72,4.86,4.86,0,0,1,.09.95V33a4.7,4.7,0,0,1-.09.92,1.07,1.07,0,0,1-.48.71A2.3,2.3,0,0,1,167.49,34.86Zm-4.37-3.72a2.21,2.21,0,0,0,1.2-.34,2.57,2.57,0,0,0,.85-.91,2.61,2.61,0,0,0,.32-1.28,2.46,2.46,0,0,0-.32-1.28,2.35,2.35,0,0,0-.88-.89,2.3,2.3,0,0,0-1.22-.33,2.33,2.33,0,0,0-1.26.34,2.53,2.53,0,0,0-1.24,2.21,2.34,2.34,0,0,0,.34,1.24,2.56,2.56,0,0,0,.92.9A2.59,2.59,0,0,0,163.12,31.14Z"/><path class="cls-2" d="M173.74,34.87a2.37,2.37,0,0,1-1.31-.27,1.05,1.05,0,0,1-.48-.7,4.47,4.47,0,0,1-.08-.91v-8.8a4.1,4.1,0,0,1,.09-.88,1,1,0,0,1,.49-.67,2.67,2.67,0,0,1,1.32-.25,2.37,2.37,0,0,1,1.18.22,1,1,0,0,1,.48.51,1.53,1.53,0,0,1,.12.56.75.75,0,0,0,0,.36l-.15.48a1.48,1.48,0,0,1,.38-.76,3.74,3.74,0,0,1,.85-.7,4.93,4.93,0,0,1,1.1-.49A4.36,4.36,0,0,1,179,22.4a4.83,4.83,0,0,1,2.13.44,4.24,4.24,0,0,1,1.59,1.26,6,6,0,0,1,1,1.94,8.5,8.5,0,0,1,.33,2.43V33a4.56,4.56,0,0,1-.09.92,1,1,0,0,1-.47.68,2.59,2.59,0,0,1-1.34.25,2.49,2.49,0,0,1-1.33-.26,1.1,1.1,0,0,1-.48-.7,4.53,4.53,0,0,1-.09-.91V28.47a2.74,2.74,0,0,0-.26-1.27,1.76,1.76,0,0,0-.75-.8,2.36,2.36,0,0,0-1.21-.28,2.59,2.59,0,0,0-1.25.29,2,2,0,0,0-.81.81,2.48,2.48,0,0,0-.29,1.25V33a4.46,4.46,0,0,1-.09.91,1.06,1.06,0,0,1-.48.69A2.49,2.49,0,0,1,173.74,34.87ZM176.6,17a1.6,1.6,0,0,1,1,.28,6.21,6.21,0,0,1,.64.59.77.77,0,0,0,.57.3.66.66,0,0,0,.54-.25c.14-.16.29-.34.45-.51a1,1,0,0,1,.62-.31.89.89,0,0,1,.46,0,1.3,1.3,0,0,1,.54.25,2,2,0,0,1,.81.84,1.17,1.17,0,0,1-.19,1,3.23,3.23,0,0,1-.7.94,4,4,0,0,1-1.08.73,2.71,2.71,0,0,1-1.17.28,1.49,1.49,0,0,1-1-.3,7.08,7.08,0,0,1-.69-.6.89.89,0,0,0-.63-.3,1.43,1.43,0,0,0-.9.23,2.33,2.33,0,0,0-.5.49A1.08,1.08,0,0,1,175,21c-.16,0-.44-.06-.84-.34a1.88,1.88,0,0,1-.72-.91,1.28,1.28,0,0,1,.27-1,3.72,3.72,0,0,1,.81-.89,4.79,4.79,0,0,1,1.07-.67A2.31,2.31,0,0,1,176.6,17Z"/><path class="cls-2" d="M196.64,34.88a2.42,2.42,0,0,1-1.38-.32.9.9,0,0,1-.42-.8l.25-.43a2.72,2.72,0,0,1-.57.61,4.25,4.25,0,0,1-2.78.94,5,5,0,0,1-2.19-.5A6,6,0,0,1,187.72,33a7,7,0,0,1-1.28-2A6.2,6.2,0,0,1,186,28.6a6,6,0,0,1,.47-2.34,6.72,6.72,0,0,1,1.29-2,6.32,6.32,0,0,1,1.84-1.36,4.94,4.94,0,0,1,2.18-.5,4.05,4.05,0,0,1,2.66.88,3.18,3.18,0,0,1,.66.67l-.22-.35a1,1,0,0,1,.43-.91,2.44,2.44,0,0,1,1.39-.31,2.34,2.34,0,0,1,1.29.27,1.11,1.11,0,0,1,.47.73,4.86,4.86,0,0,1,.09.95V33a4.73,4.73,0,0,1-.09.93,1.07,1.07,0,0,1-.48.71A2.48,2.48,0,0,1,196.64,34.88Zm-4.37-3.73a2.21,2.21,0,0,0,1.2-.33,2.56,2.56,0,0,0,1.17-2.19,2.52,2.52,0,0,0-.32-1.29,2.4,2.4,0,0,0-.88-.88,2.3,2.3,0,0,0-1.22-.33,2.33,2.33,0,0,0-1.26.34,2.53,2.53,0,0,0-1.24,2.21,2.34,2.34,0,0,0,.34,1.24,2.53,2.53,0,0,0,2.21,1.23Z"/><path class="cls-2" d="M202.89,34.91a2.45,2.45,0,0,1-1.31-.26,1.11,1.11,0,0,1-.48-.72A4.57,4.57,0,0,1,201,33V24.29a4.45,4.45,0,0,1,.09-.93,1.08,1.08,0,0,1,.49-.69,2.52,2.52,0,0,1,1.32-.26,2.47,2.47,0,0,1,1.26.24,1.06,1.06,0,0,1,.49.55,1.73,1.73,0,0,1,.1.54l-.3.15a2.39,2.39,0,0,1,.26-.37,3.57,3.57,0,0,1,.59-.54,3.28,3.28,0,0,1,.91-.49,3.4,3.4,0,0,1,1.24-.2,4.55,4.55,0,0,1,.61,0,3,3,0,0,1,.7.15,2.4,2.4,0,0,1,.67.3,1.51,1.51,0,0,1,.48.46,1.14,1.14,0,0,1,.19.68,3,3,0,0,1-.48,1.73,1.38,1.38,0,0,1-1.2.71,2.11,2.11,0,0,1-.6-.06.92.92,0,0,1-.28-.15,1.17,1.17,0,0,0-.27-.15,1.68,1.68,0,0,0-.55-.06,2.39,2.39,0,0,0-.71.1,1.9,1.9,0,0,0-.62.31,1.39,1.39,0,0,0-.45.52,1.53,1.53,0,0,0-.17.72v5.47a4.46,4.46,0,0,1-.09.91,1,1,0,0,1-.49.69A2.53,2.53,0,0,1,202.89,34.91Z"/><path class="cls-2" d="M223.41,34.92a14.14,14.14,0,0,1-1.82-.1,3.9,3.9,0,0,1-1.35-.4,2.42,2.42,0,0,1-.9-.84,3.85,3.85,0,0,1-.52-1.37,10,10,0,0,1-.18-2.06V18.6a3.84,3.84,0,0,1,.1-.93,1.18,1.18,0,0,1,.49-.7,2.37,2.37,0,0,1,1.31-.27,2.34,2.34,0,0,1,1.29.27,1.15,1.15,0,0,1,.48.7,3.9,3.9,0,0,1,.1.93V30a6.19,6.19,0,0,0,0,.67,1,1,0,0,0,.15.41.59.59,0,0,0,.32.2,2.34,2.34,0,0,0,.52.05,2.6,2.6,0,0,1,.61.07.89.89,0,0,1,.54.45,2.47,2.47,0,0,1,.22,1.25,2.78,2.78,0,0,1-.22,1.3.88.88,0,0,1-.54.48A2.73,2.73,0,0,1,223.41,34.92Z"/><path class="cls-2" d="M232.64,35.13a6.26,6.26,0,0,1-2.34-.47,6.84,6.84,0,0,1-2.11-1.31,6.38,6.38,0,0,1-1.51-2,6,6,0,0,1-.56-2.64,6.19,6.19,0,0,1,.51-2.51,6.75,6.75,0,0,1,3.48-3.47,6.09,6.09,0,0,1,2.49-.51,6.35,6.35,0,0,1,3.26.86,6.61,6.61,0,0,1,2.33,2.34,6.27,6.27,0,0,1,.88,3.28,6.2,6.2,0,0,1-.57,2.71,6.35,6.35,0,0,1-1.5,2,6.68,6.68,0,0,1-2.07,1.28A6.38,6.38,0,0,1,232.64,35.13Zm0-3.78a2.85,2.85,0,0,0,1.23-.3,2.79,2.79,0,0,0,1.05-.89,2.61,2.61,0,0,0,.42-1.53,2.67,2.67,0,0,0-.35-1.4,2.48,2.48,0,0,0-1-.94,2.94,2.94,0,0,0-1.41-.34,2.6,2.6,0,0,0-1.34.35,2.76,2.76,0,0,0-.95,1,2.66,2.66,0,0,0-.36,1.38,2.58,2.58,0,0,0,.41,1.51,2.53,2.53,0,0,0,1,.91A2.89,2.89,0,0,0,232.59,31.35Z"/><path class="cls-2" d="M245.59,35.14a8.15,8.15,0,0,1-1.48-.15,8.68,8.68,0,0,1-1.53-.44,4.9,4.9,0,0,1-1.25-.68,1.26,1.26,0,0,1-.56-.89,1.19,1.19,0,0,1,0-.53,2.19,2.19,0,0,1,.22-.6,5.08,5.08,0,0,1,.44-.67.89.89,0,0,1,.44-.35,1,1,0,0,1,.59,0,3.72,3.72,0,0,1,.8.26l.82.4a8.64,8.64,0,0,0,.88.38,2.62,2.62,0,0,0,.92.16,2.32,2.32,0,0,0,1.09-.21.65.65,0,0,0,.39-.59.64.64,0,0,0-.17-.45,1.35,1.35,0,0,0-.45-.3c-.19-.08-.41-.16-.67-.24l-.81-.21a8.76,8.76,0,0,1-.9-.25,9.05,9.05,0,0,1-1.19-.45,4,4,0,0,1-1.05-.71,3.24,3.24,0,0,1-.74-1.08,4,4,0,0,1-.27-1.56,3.59,3.59,0,0,1,.56-2.05,3.51,3.51,0,0,1,1.67-1.26,7.34,7.34,0,0,1,2.7-.44c.3,0,.6,0,.9,0a5.28,5.28,0,0,1,.88.18,7.47,7.47,0,0,1,.87.3c.28.12.56.26.85.42a1.13,1.13,0,0,1,.77.95,2,2,0,0,1-.43,1.25,1.9,1.9,0,0,1-.57.59.89.89,0,0,1-.63.14,4.36,4.36,0,0,1-.86-.34c-.31-.16-.63-.3-1-.44a2.85,2.85,0,0,0-1-.2,2.18,2.18,0,0,0-.72.11,1.11,1.11,0,0,0-.45.3.69.69,0,0,0-.15.44.66.66,0,0,0,.19.51,1.4,1.4,0,0,0,.51.32,5.64,5.64,0,0,0,.75.22c.28.07.59.14.92.2s.92.2,1.39.34a4.71,4.71,0,0,1,1.3.61,3,3,0,0,1,.95,1.08,3.76,3.76,0,0,1,.36,1.77,3.58,3.58,0,0,1-1.38,3A6.33,6.33,0,0,1,245.59,35.14Z"/><path class="cls-2" d="M260.35,22.64h2.75l3.45-.1a4.43,4.43,0,0,1,.9.09,1.15,1.15,0,0,1,.7.48,2.47,2.47,0,0,1,.27,1.33,2.38,2.38,0,0,1-.26,1.25,1.15,1.15,0,0,1-.69.51,3.39,3.39,0,0,1-.93.11l-3.27-.07-3,0a1.26,1.26,0,0,1-1-.46,2.55,2.55,0,0,1-.29-1.39,2.08,2.08,0,0,1,.36-1.34A1.26,1.26,0,0,1,260.35,22.64ZM266,35a7.5,7.5,0,0,1-2.2-.28,3.43,3.43,0,0,1-1.51-.85,3.51,3.51,0,0,1-.88-1.46,7,7,0,0,1-.28-2.11V20.12a4.15,4.15,0,0,1,.09-.92,1.07,1.07,0,0,1,.49-.67,2.48,2.48,0,0,1,1.3-.26,2.3,2.3,0,0,1,1.3.28,1.13,1.13,0,0,1,.49.71,5.4,5.4,0,0,1,.08.91V30.1a3,3,0,0,0,.06.66.75.75,0,0,0,.19.39.68.68,0,0,0,.35.17,2.19,2.19,0,0,0,.55.05,4.67,4.67,0,0,1,1,.1,1.1,1.1,0,0,1,.66.45,2.19,2.19,0,0,1,.24,1.18,2.3,2.3,0,0,1-.28,1.3,1,1,0,0,1-.71.47A5.31,5.31,0,0,1,266,35Z"/><path class="cls-2" d="M272.21,35a2.5,2.5,0,0,1-1.31-.26,1,1,0,0,1-.47-.71,4.73,4.73,0,0,1-.09-.93V24.33a4.45,4.45,0,0,1,.09-.93,1.08,1.08,0,0,1,.49-.69,2.59,2.59,0,0,1,1.33-.26,2.5,2.5,0,0,1,1.26.24,1.06,1.06,0,0,1,.49.55,2.08,2.08,0,0,1,.1.54l-.31.15a3.56,3.56,0,0,1,.86-.91,3.4,3.4,0,0,1,.91-.49,3.62,3.62,0,0,1,1.24-.2,4.66,4.66,0,0,1,.61,0,3.14,3.14,0,0,1,.7.15,2.47,2.47,0,0,1,.66.3,1.66,1.66,0,0,1,.49.46,1.15,1.15,0,0,1,.18.68,3,3,0,0,1-.47,1.73,1.41,1.41,0,0,1-1.2.72,1.93,1.93,0,0,1-.6-.07,1,1,0,0,1-.29-.15.93.93,0,0,0-.26-.15,1.68,1.68,0,0,0-.55-.06,2.34,2.34,0,0,0-.71.1,2.06,2.06,0,0,0-.63.31,1.54,1.54,0,0,0-.45.53,1.46,1.46,0,0,0-.16.71V33.1A5.52,5.52,0,0,1,274,34a1,1,0,0,1-.49.68A2.6,2.6,0,0,1,272.21,35Z"/><path class="cls-2" d="M291.61,34.94a2.33,2.33,0,0,1-1.37-.33.91.91,0,0,1-.43-.8l.25-.42a2.72,2.72,0,0,1-.57.61,4.28,4.28,0,0,1-1.11.65,4.38,4.38,0,0,1-1.67.29,4.88,4.88,0,0,1-2.18-.51,5.75,5.75,0,0,1-1.84-1.38,7.18,7.18,0,0,1-1.27-2,6,6,0,0,1-.48-2.37,5.83,5.83,0,0,1,.48-2.34,6.34,6.34,0,0,1,1.29-2A6.27,6.27,0,0,1,284.55,23a4.89,4.89,0,0,1,2.17-.49,4.15,4.15,0,0,1,1.58.26,4.24,4.24,0,0,1,1.08.61A3.45,3.45,0,0,1,290,24l-.22-.35a1,1,0,0,1,.44-.91,2.39,2.39,0,0,1,1.39-.32,2.29,2.29,0,0,1,1.28.28,1.11,1.11,0,0,1,.48.73,4.77,4.77,0,0,1,.08.94V33a4.81,4.81,0,0,1-.09.93,1.12,1.12,0,0,1-.47.71A2.52,2.52,0,0,1,291.61,34.94Zm-4.37-3.73a2.13,2.13,0,0,0,1.2-.34,2.57,2.57,0,0,0,0-4.36,2.55,2.55,0,0,0-2.49,0,2.64,2.64,0,0,0-.9.92,2.53,2.53,0,0,0-.34,1.29A2.31,2.31,0,0,0,285,30a2.41,2.41,0,0,0,.92.9A2.49,2.49,0,0,0,287.24,31.21Z"/><path class="cls-2" d="M297.36,35a1.79,1.79,0,0,1-1.31-.54,1.81,1.81,0,0,1-.54-1.34,2,2,0,0,1,.14-.72,1.85,1.85,0,0,1,.41-.63l5.68-5.49h-3.8a3.91,3.91,0,0,1-.91-.1,1.18,1.18,0,0,1-.72-.49,2.17,2.17,0,0,1-.29-1.31,2.28,2.28,0,0,1,.29-1.31,1.11,1.11,0,0,1,.72-.47,4.56,4.56,0,0,1,.92-.09h7.82a1.8,1.8,0,0,1,1.85,1.85,2.19,2.19,0,0,1-.14.77,1.42,1.42,0,0,1-.39.58l-5.55,5.53h4.52a3.84,3.84,0,0,1,.93.1,1.14,1.14,0,0,1,.69.5,2.57,2.57,0,0,1,.26,1.32,2.28,2.28,0,0,1-.28,1.3,1,1,0,0,1-.7.48A5.29,5.29,0,0,1,306,35Z"/><path class="cls-2" d="M316,35.18a6.26,6.26,0,0,1-2.34-.47,6.84,6.84,0,0,1-2.11-1.31,6.38,6.38,0,0,1-1.51-2,6,6,0,0,1-.56-2.63,6.24,6.24,0,0,1,.51-2.52,6.75,6.75,0,0,1,1.41-2.06,6.67,6.67,0,0,1,2.07-1.41,6.09,6.09,0,0,1,2.49-.51,6.38,6.38,0,0,1,3.26.86,6.61,6.61,0,0,1,2.33,2.34,6.27,6.27,0,0,1,.88,3.28,6.2,6.2,0,0,1-.57,2.71,6.35,6.35,0,0,1-1.5,2,6.68,6.68,0,0,1-2.07,1.28A6.42,6.42,0,0,1,316,35.18Zm-.05-3.78a2.85,2.85,0,0,0,1.23-.3,2.88,2.88,0,0,0,1.05-.89,2.61,2.61,0,0,0,.42-1.53,2.67,2.67,0,0,0-.35-1.4,2.48,2.48,0,0,0-1-.94,2.94,2.94,0,0,0-1.41-.34,2.6,2.6,0,0,0-1.34.35,2.82,2.82,0,0,0-.95,1,2.72,2.72,0,0,0-.36,1.39,2.58,2.58,0,0,0,.41,1.51,2.53,2.53,0,0,0,1,.91A2.89,2.89,0,0,0,315.94,31.4Z"/><path class="cls-2" d="M328.94,35.19a8.15,8.15,0,0,1-1.48-.15,9.62,9.62,0,0,1-1.53-.44,4.9,4.9,0,0,1-1.25-.68,1.28,1.28,0,0,1-.57-.89,1.2,1.2,0,0,1,0-.53,2.08,2.08,0,0,1,.22-.6,5.08,5.08,0,0,1,.44-.67.89.89,0,0,1,.44-.35,1,1,0,0,1,.58,0,3.63,3.63,0,0,1,.81.26l.82.4a8.47,8.47,0,0,0,.87.38,2.68,2.68,0,0,0,.93.16,2.32,2.32,0,0,0,1.09-.21.67.67,0,0,0,.22-1,1.6,1.6,0,0,0-.45-.3c-.19-.08-.41-.16-.67-.24l-.81-.21c-.29-.07-.59-.15-.9-.25a9.05,9.05,0,0,1-1.19-.45,4,4,0,0,1-1-.71,3.1,3.1,0,0,1-.74-1.08,4,4,0,0,1-.27-1.56,3.59,3.59,0,0,1,.56-2,3.53,3.53,0,0,1,1.66-1.26,7.41,7.41,0,0,1,2.7-.44,8.88,8.88,0,0,1,.9.05,5.4,5.4,0,0,1,.89.18,6.74,6.74,0,0,1,.86.3,7.44,7.44,0,0,1,.85.42,1.14,1.14,0,0,1,.78.95,2,2,0,0,1-.43,1.25,1.9,1.9,0,0,1-.57.59.89.89,0,0,1-.63.14,4.36,4.36,0,0,1-.86-.34c-.31-.16-.63-.3-1-.44a2.89,2.89,0,0,0-1-.2,2.18,2.18,0,0,0-.72.11,1.11,1.11,0,0,0-.45.3.69.69,0,0,0-.15.44.66.66,0,0,0,.19.51,1.4,1.4,0,0,0,.51.32,4.87,4.87,0,0,0,.75.22c.28.07.59.14.92.2s.91.2,1.39.34a4.85,4.85,0,0,1,1.3.61,3,3,0,0,1,.95,1.08,3.76,3.76,0,0,1,.36,1.77,3.58,3.58,0,0,1-1.38,3A6.33,6.33,0,0,1,328.94,35.19Z"/><path class="cls-4" d="M44.64,34.08h4.52q3.44,0,3.42,4A4,4,0,0,1,51.5,41.2c-.72.63-2,.94-3.85.94h-11c-1.9,0-3.2-.25-3.89-.77s-1-1.63-1-3.34a5.6,5.6,0,0,1,.17-1.45,3.5,3.5,0,0,1,.61-1.2,5.61,5.61,0,0,1,1.22-1.13c1.47-1,2.63-1.82,3.47-2.44s1.66-1.26,2.46-1.95a12.84,12.84,0,0,0,1.78-1.76,10.41,10.41,0,0,0,1-1.66A6.09,6.09,0,0,0,43,24.59a13.94,13.94,0,0,0,.15-2.19c0-1.56-.48-2.35-1.43-2.35s-1.55.93-1.55,2.77a2,2,0,0,1-1,2,7,7,0,0,1-2.89.46c-1.74,0-2.91-.39-3.52-1.17a6.41,6.41,0,0,1-.92-3.91,5.48,5.48,0,0,1,2.51-4.56,11.74,11.74,0,0,1,7-1.82q11.09,0,11.08,8.69A14.53,14.53,0,0,1,52,26.21,11.25,11.25,0,0,1,50.92,29a9,9,0,0,1-1.77,2.12,17.42,17.42,0,0,1-2.1,1.64C46.39,33.16,45.59,33.6,44.64,34.08Z"/><path class="cls-4" d="M55.27,39a2.76,2.76,0,0,1,1.17-2.31,5.34,5.34,0,0,1,3.27-.88c3,0,4.44,1.07,4.44,3.19a3.11,3.11,0,0,1-.57,2,2.69,2.69,0,0,1-1.51,1,9.11,9.11,0,0,1-2.36.26,6.13,6.13,0,0,1-3.18-.76A2.62,2.62,0,0,1,55.27,39Z"/><path class="cls-5" d="M44.64,34.08h4.52q3.44,0,3.42,4A4,4,0,0,1,51.5,41.2c-.72.63-2,.94-3.85.94h-11c-1.9,0-3.2-.25-3.89-.77s-1-1.63-1-3.34a5.6,5.6,0,0,1,.17-1.45,3.5,3.5,0,0,1,.61-1.2,5.61,5.61,0,0,1,1.22-1.13c1.47-1,2.63-1.82,3.47-2.44s1.66-1.26,2.46-1.95a12.84,12.84,0,0,0,1.78-1.76,10.41,10.41,0,0,0,1-1.66A6.09,6.09,0,0,0,43,24.59a13.94,13.94,0,0,0,.15-2.19c0-1.56-.48-2.35-1.43-2.35s-1.55.93-1.55,2.77a2,2,0,0,1-1,2,7,7,0,0,1-2.89.46c-1.74,0-2.91-.39-3.52-1.17a6.41,6.41,0,0,1-.92-3.91,5.48,5.48,0,0,1,2.51-4.56,11.74,11.74,0,0,1,7-1.82q11.09,0,11.08,8.69A14.53,14.53,0,0,1,52,26.21,11.25,11.25,0,0,1,50.92,29a9,9,0,0,1-1.77,2.12,17.42,17.42,0,0,1-2.1,1.64C46.39,33.16,45.59,33.6,44.64,34.08Z"/><path class="cls-5" d="M55.27,39a2.76,2.76,0,0,1,1.17-2.31,5.34,5.34,0,0,1,3.27-.88c3,0,4.44,1.07,4.44,3.19a3.11,3.11,0,0,1-.57,2,2.69,2.69,0,0,1-1.51,1,9.11,9.11,0,0,1-2.36.26,6.13,6.13,0,0,1-3.18-.76A2.62,2.62,0,0,1,55.27,39Z"/></g></g></svg>