<svg xmlns="http://www.w3.org/2000/svg" viewBox="0 0 399.98 84.15"><defs><style>.cls-1{fill:#cf5c05;}.cls-2{fill:#fff;}.cls-3,.cls-4{fill:none;stroke-width:5px;}.cls-3{stroke:#32b228;stroke-linejoin:round;}.cls-4{stroke:#fff;}.cls-5{fill:#32b228;}</style></defs><title>t3</title><g id="Layer_2" data-name="Layer 2"><g id="pestaña_identificativa" data-name="pestaña identificativa"><rect class="cls-1" width="399.98" height="84.15" rx="32.4"/><path class="cls-2" d="M76.49,34.84a2.42,2.42,0,0,1-1.32-.28,1.09,1.09,0,0,1-.49-.72,4.73,4.73,0,0,1-.09-.93V19.26a4.45,4.45,0,0,1,.1-.91,1.19,1.19,0,0,1,.5-.71,2.37,2.37,0,0,1,1.33-.28h5.12a6.29,6.29,0,0,1,2.1.37,6,6,0,0,1,2,1.17,5.9,5.9,0,0,1,1.47,1.93,6,6,0,0,1,.56,2.7,5.74,5.74,0,0,1-2,4.6,6.21,6.21,0,0,1-2,1.15,6.46,6.46,0,0,1-2.13.37h-3.2v3.28a4.53,4.53,0,0,1-.1.91,1.19,1.19,0,0,1-.5.71A2.37,2.37,0,0,1,76.49,34.84Zm1.93-9h3.23a2.69,2.69,0,0,0,1.09-.24,2.24,2.24,0,0,0,.9-.76,2.65,2.65,0,0,0,0-2.58,2.28,2.28,0,0,0-.84-.82,2.43,2.43,0,0,0-1.22-.31h-3.2Z"/><path class="cls-2" d="M95.89,35.05a6.3,6.3,0,0,1-2.34-.47,7,7,0,0,1-2.11-1.31,6.53,6.53,0,0,1-1.51-2,6.15,6.15,0,0,1-.56-2.64,6,6,0,0,1,.52-2.51,6.78,6.78,0,0,1,3.47-3.47,6.16,6.16,0,0,1,2.49-.51,6.33,6.33,0,0,1,3.26.86,6.64,6.64,0,0,1,2.34,2.34,6.71,6.71,0,0,1,.31,6,6.5,6.5,0,0,1-3.58,3.32A6.38,6.38,0,0,1,95.89,35.05Zm0-3.78a2.85,2.85,0,0,0,1.23-.3,2.73,2.73,0,0,0,1.05-.89,2.63,2.63,0,0,0,.43-1.53,2.77,2.77,0,0,0-.35-1.4,2.58,2.58,0,0,0-1-.94,2.88,2.88,0,0,0-1.41-.34,2.63,2.63,0,0,0-1.34.35,2.91,2.91,0,0,0-1,1,2.72,2.72,0,0,0-.36,1.39,2.66,2.66,0,0,0,.41,1.51,2.59,2.59,0,0,0,1,.91A2.92,2.92,0,0,0,95.84,31.27Z"/><path class="cls-2" d="M108.84,35.06a8,8,0,0,1-1.47-.15,8.55,8.55,0,0,1-1.54-.44,5.08,5.08,0,0,1-1.25-.68,1.26,1.26,0,0,1-.56-.89,1.19,1.19,0,0,1,0-.53,2.12,2.12,0,0,1,.23-.6,4.12,4.12,0,0,1,.43-.67.94.94,0,0,1,.44-.35,1,1,0,0,1,.59,0,3.55,3.55,0,0,1,.8.26l.82.4c.29.14.58.27.88.38a2.66,2.66,0,0,0,.92.16,2.32,2.32,0,0,0,1.09-.21.65.65,0,0,0,.39-.59.69.69,0,0,0-.16-.45,1.6,1.6,0,0,0-.45-.3c-.2-.08-.42-.16-.68-.24l-.81-.21c-.28-.07-.58-.15-.9-.25a9.05,9.05,0,0,1-1.19-.45,4,4,0,0,1-1.05-.71,3.17,3.17,0,0,1-.73-1.08,3.79,3.79,0,0,1-.28-1.56,3.3,3.3,0,0,1,2.23-3.31,7.34,7.34,0,0,1,2.7-.44c.3,0,.6,0,.9.05a5.62,5.62,0,0,1,.89.18,6.74,6.74,0,0,1,.86.3,8.36,8.36,0,0,1,.85.42c.5.24.76.55.77.95a2.39,2.39,0,0,1-1,1.84.88.88,0,0,1-.62.14,4.2,4.2,0,0,1-.87-.34c-.3-.16-.63-.3-1-.44a2.84,2.84,0,0,0-1-.2,2.2,2.2,0,0,0-.73.11,1.11,1.11,0,0,0-.45.3.69.69,0,0,0-.15.44.66.66,0,0,0,.19.51,1.4,1.4,0,0,0,.51.32,7.67,7.67,0,0,0,.75.22c.28.07.59.14.93.2s.91.2,1.38.34a4.71,4.71,0,0,1,1.3.61,3,3,0,0,1,1,1.08,3.76,3.76,0,0,1,.36,1.77,3.6,3.6,0,0,1-1.37,3A6.38,6.38,0,0,1,108.84,35.06Z"/><path class="cls-2" d="M117.07,22.56h2.75l3.45-.09a4.31,4.31,0,0,1,.9.08,1.08,1.08,0,0,1,.7.49,2.37,2.37,0,0,1,.28,1.33,2.3,2.3,0,0,1-.27,1.25,1.19,1.19,0,0,1-.68.51,4,4,0,0,1-.93.11L120,26.16l-3,0a1.27,1.27,0,0,1-1-.47,2.48,2.48,0,0,1-.29-1.38A2.15,2.15,0,0,1,116,23,1.29,1.29,0,0,1,117.07,22.56Zm5.65,12.3a7.87,7.87,0,0,1-2.2-.27,3.74,3.74,0,0,1-1.52-.85,3.53,3.53,0,0,1-.87-1.47,6.89,6.89,0,0,1-.29-2.11V20a4.31,4.31,0,0,1,.09-.93,1.05,1.05,0,0,1,.49-.66,3.32,3.32,0,0,1,2.6,0,1.14,1.14,0,0,1,.48.72,4.46,4.46,0,0,1,.09.91V30a2.55,2.55,0,0,0,.07.67.79.79,0,0,0,.18.38.65.65,0,0,0,.35.18,2.87,2.87,0,0,0,.55.05,4.1,4.1,0,0,1,1,.1,1.1,1.1,0,0,1,.66.45,2.17,2.17,0,0,1,.24,1.18,2.3,2.3,0,0,1-.28,1.3,1.07,1.07,0,0,1-.71.47A5.41,5.41,0,0,1,122.72,34.86Z"/><path class="cls-2" d="M132.44,34.85a5.21,5.21,0,0,1-2.17-.46,5.33,5.33,0,0,1-1.75-1.26,5.64,5.64,0,0,1-1.16-1.92,6.91,6.91,0,0,1-.42-2.44V24.24a4.42,4.42,0,0,1,.09-.92,1.06,1.06,0,0,1,.48-.7,3.25,3.25,0,0,1,2.64,0,1.12,1.12,0,0,1,.48.71,5.58,5.58,0,0,1,.08.94v4.5A2.92,2.92,0,0,0,131,30a1.82,1.82,0,0,0,.78.82,2.54,2.54,0,0,0,1.21.27,2.45,2.45,0,0,0,1.24-.29A2.08,2.08,0,0,0,135,30a2.57,2.57,0,0,0,.28-1.25V24.22a4.42,4.42,0,0,1,.09-.92,1,1,0,0,1,.48-.69,2.59,2.59,0,0,1,1.33-.26,2.37,2.37,0,0,1,1.31.27,1.17,1.17,0,0,1,.48.72,5.31,5.31,0,0,1,.08.91v8.8a4.19,4.19,0,0,1-.09.89,1,1,0,0,1-.49.66,2.52,2.52,0,0,1-1.3.25,2.92,2.92,0,0,1-1.05-.15,1.31,1.31,0,0,1-.55-.38,1,1,0,0,1-.21-.47,2.57,2.57,0,0,1,0-.45l.33-.28a2.49,2.49,0,0,1-.33.39,5.12,5.12,0,0,1-.66.57,4.43,4.43,0,0,1-1,.54A3.4,3.4,0,0,1,132.44,34.85Z"/><path class="cls-2" d="M143.44,34.88a2.37,2.37,0,0,1-1.31-.27,1.07,1.07,0,0,1-.48-.71,5.62,5.62,0,0,1-.08-.92V24.25a4.42,4.42,0,0,1,.09-.92,1,1,0,0,1,.49-.69,2.47,2.47,0,0,1,1.32-.26,2.52,2.52,0,0,1,1.27.24,1,1,0,0,1,.48.55,1.63,1.63,0,0,1,.1.53l-.3.15a3.91,3.91,0,0,1,.27-.36,3.47,3.47,0,0,1,.58-.55,3.79,3.79,0,0,1,.92-.49,3.56,3.56,0,0,1,1.23-.2c.19,0,.39,0,.62,0a5.2,5.2,0,0,1,.7.15,3.32,3.32,0,0,1,.66.3,1.69,1.69,0,0,1,.49.47,1.17,1.17,0,0,1,.18.67,3.14,3.14,0,0,1-.47,1.74,1.42,1.42,0,0,1-1.2.71,2,2,0,0,1-.6-.06.87.87,0,0,1-.29-.15,1.1,1.1,0,0,0-.26-.15,1.65,1.65,0,0,0-.55-.07,2.84,2.84,0,0,0-.72.1,1.93,1.93,0,0,0-.62.32,1.45,1.45,0,0,0-.61,1.23V33a4.46,4.46,0,0,1-.09.91,1,1,0,0,1-.48.69A2.71,2.71,0,0,1,143.44,34.88Z"/><path class="cls-2" d="M162.84,34.86a2.39,2.39,0,0,1-1.37-.32.91.91,0,0,1-.43-.8l.25-.43a3,3,0,0,1-.57.62,4.34,4.34,0,0,1-1.12.64,4.11,4.11,0,0,1-1.66.29,5,5,0,0,1-2.19-.5A5.85,5.85,0,0,1,153.92,33a7,7,0,0,1-1.28-2,6.16,6.16,0,0,1-.47-2.38,5.82,5.82,0,0,1,.48-2.33,6.59,6.59,0,0,1,3.12-3.34,5,5,0,0,1,2.18-.5,4.3,4.3,0,0,1,1.57.26,4.16,4.16,0,0,1,1.09.62,3.43,3.43,0,0,1,.66.67l-.22-.35a1,1,0,0,1,.44-.91,2.39,2.39,0,0,1,1.38-.31,2.34,2.34,0,0,1,1.29.27,1.16,1.16,0,0,1,.48.73,5.8,5.8,0,0,1,.08.95V33a4.73,4.73,0,0,1-.09.93,1.07,1.07,0,0,1-.48.71A2.36,2.36,0,0,1,162.84,34.86Zm-4.37-3.72a2.21,2.21,0,0,0,1.2-.34,2.6,2.6,0,0,0,1.18-2.19,2.53,2.53,0,0,0-.33-1.29,2.45,2.45,0,0,0-.87-.88,2.36,2.36,0,0,0-1.23-.33,2.33,2.33,0,0,0-1.26.34,2.53,2.53,0,0,0-1.24,2.21,2.34,2.34,0,0,0,.34,1.24,2.56,2.56,0,0,0,.92.9A2.59,2.59,0,0,0,158.47,31.14Z"/><path class="cls-2" d="M179.92,35a6.64,6.64,0,0,1-2.24-.41,7,7,0,0,1-2.1-1.22,5.92,5.92,0,0,1-1.54-2,6.35,6.35,0,0,1-.57-2.75,6,6,0,0,1,.58-2.72,5.89,5.89,0,0,1,1.52-2,6.87,6.87,0,0,1,2.09-1.21,6.61,6.61,0,0,1,2.21-.41,6.15,6.15,0,0,1,1.67.21,5.6,5.6,0,0,1,1.25.52,3.77,3.77,0,0,1,.73.52,6.26,6.26,0,0,1,.75.65,1.05,1.05,0,0,1,.3.85,1.5,1.5,0,0,1-.17.56,3.91,3.91,0,0,1-.38.59c-.52.7-1,1-1.5.95a2.27,2.27,0,0,1-.69-.25l-.6-.35a3.88,3.88,0,0,0-.61-.31,2,2,0,0,0-.75-.14,2.53,2.53,0,0,0-2.21,1.24,2.44,2.44,0,0,0-.34,1.31,2.5,2.5,0,0,0,.34,1.3,2.46,2.46,0,0,0,.9.91,2.55,2.55,0,0,0,2,.24,2.59,2.59,0,0,0,.55-.24l.35-.21.58-.36a1.05,1.05,0,0,1,.55-.16,1.24,1.24,0,0,1,.74.26,4.1,4.1,0,0,1,.81.84,2,2,0,0,1,.48,1,1.13,1.13,0,0,1-.21.86,2.69,2.69,0,0,1-.85.77,5.06,5.06,0,0,1-.71.45,6.52,6.52,0,0,1-1.25.49A5.69,5.69,0,0,1,179.92,35Z"/><path class="cls-2" d="M192.87,35.11a6.22,6.22,0,0,1-2.34-.47,6.91,6.91,0,0,1-2.11-1.31,6.24,6.24,0,0,1-1.51-2,6,6,0,0,1-.57-2.64,6.33,6.33,0,0,1,.52-2.51,6.75,6.75,0,0,1,1.41-2.06,6.67,6.67,0,0,1,2.07-1.41,6.08,6.08,0,0,1,2.48-.51,6.33,6.33,0,0,1,3.26.86,6.56,6.56,0,0,1,2.34,2.34,6.71,6.71,0,0,1,.31,6,6.5,6.5,0,0,1-1.5,2,6.57,6.57,0,0,1-2.08,1.29A6.36,6.36,0,0,1,192.87,35.11Zm-.05-3.78A2.78,2.78,0,0,0,194,31a2.67,2.67,0,0,0,1.05-.9,2.51,2.51,0,0,0,.43-1.52,2.74,2.74,0,0,0-.35-1.4,2.48,2.48,0,0,0-1-.94,2.83,2.83,0,0,0-1.41-.34,2.6,2.6,0,0,0-1.34.35,2.65,2.65,0,0,0-1,1,2.7,2.7,0,0,0-.37,1.39,2.61,2.61,0,0,0,.42,1.51,2.47,2.47,0,0,0,1,.9A2.83,2.83,0,0,0,192.82,31.33Z"/><path class="cls-2" d="M203.19,34.91a2.38,2.38,0,0,1-1.31-.26,1.09,1.09,0,0,1-.48-.71,4.73,4.73,0,0,1-.08-.93V24.29a4.52,4.52,0,0,1,.09-.93,1.08,1.08,0,0,1,.49-.69,2.54,2.54,0,0,1,1.32-.26,2.52,2.52,0,0,1,1.27.24,1,1,0,0,1,.48.55,1.73,1.73,0,0,1,.1.54l-.3.15a2.76,2.76,0,0,1,.26-.36,3.55,3.55,0,0,1,.59-.55,3.47,3.47,0,0,1,.92-.49,3.56,3.56,0,0,1,1.23-.2,4.7,4.7,0,0,1,.62,0,3.26,3.26,0,0,1,.7.15,2.47,2.47,0,0,1,.66.3,1.51,1.51,0,0,1,.48.46,1.16,1.16,0,0,1,.19.68,3.08,3.08,0,0,1-.47,1.73,1.41,1.41,0,0,1-1.2.72,1.66,1.66,0,0,1-.6-.07.87.87,0,0,1-.29-.15,1.61,1.61,0,0,0-.26-.15,1.72,1.72,0,0,0-.55-.06,2.46,2.46,0,0,0-.72.1,2.12,2.12,0,0,0-.62.31,1.54,1.54,0,0,0-.45.53,1.46,1.46,0,0,0-.17.71v5.47A4.63,4.63,0,0,1,205,34a1,1,0,0,1-.48.68A2.6,2.6,0,0,1,203.19,34.91Z"/><path class="cls-2" d="M214.27,34.92a2.52,2.52,0,0,1-1.32-.26,1.1,1.1,0,0,1-.47-.72,4.7,4.7,0,0,1-.09-.92V24.29a5.25,5.25,0,0,1,.08-.92,1.09,1.09,0,0,1,.49-.69,2.59,2.59,0,0,1,1.33-.26,2.5,2.5,0,0,1,1.26.24,1.06,1.06,0,0,1,.49.55,2.08,2.08,0,0,1,.1.54l-.3.15a2.39,2.39,0,0,1,.26-.37,4.06,4.06,0,0,1,.59-.55,3.53,3.53,0,0,1,2.15-.68,4.66,4.66,0,0,1,.61,0,3,3,0,0,1,.7.15,2.47,2.47,0,0,1,.66.3,1.66,1.66,0,0,1,.49.46,1.2,1.2,0,0,1,.19.67,3,3,0,0,1-.48,1.74,1.4,1.4,0,0,1-1.2.71,2.11,2.11,0,0,1-.6-.06,1,1,0,0,1-.29-.15.93.93,0,0,0-.26-.15,1.68,1.68,0,0,0-.55-.06,2.34,2.34,0,0,0-.71.1,1.85,1.85,0,0,0-.63.31,1.6,1.6,0,0,0-.45.52,1.53,1.53,0,0,0-.16.72v5.47a4.46,4.46,0,0,1-.09.91,1,1,0,0,1-.49.69A2.58,2.58,0,0,1,214.27,34.92Z"/><path class="cls-2" d="M229.67,35.15a7.3,7.3,0,0,1-3-.57,5.86,5.86,0,0,1-2.06-1.52,6.57,6.57,0,0,1-1.2-2.08,7.2,7.2,0,0,1-.4-2.31,6.42,6.42,0,0,1,.86-3.32,6,6,0,0,1,2.36-2.29,7.11,7.11,0,0,1,3.46-.83,6.18,6.18,0,0,1,2.51.46,5.13,5.13,0,0,1,1.75,1.2,5.34,5.34,0,0,1,1,1.59,4.51,4.51,0,0,1,.33,1.63,2.84,2.84,0,0,1-.66,2.05,2.25,2.25,0,0,1-1.69.67H227a1.77,1.77,0,0,0,.47,1.07,2.69,2.69,0,0,0,1,.7,3.5,3.5,0,0,0,1.33.25,7.94,7.94,0,0,0,1-.06,4.3,4.3,0,0,0,.79-.17l.59-.23.49-.18a1.81,1.81,0,0,1,.42-.1,1,1,0,0,1,.68.21,2.09,2.09,0,0,1,.57.71,1.75,1.75,0,0,1,.24.53,2.07,2.07,0,0,1,.06.5,1.32,1.32,0,0,1-.61,1.08,4.73,4.73,0,0,1-1.73.74A11.53,11.53,0,0,1,229.67,35.15ZM227,27.75h3.95a1,1,0,0,0,.58-.13.62.62,0,0,0,.2-.54,1.18,1.18,0,0,0-.28-.77,1.61,1.61,0,0,0-.73-.54,2.8,2.8,0,0,0-1.09-.19,3,3,0,0,0-1.35.3,2.38,2.38,0,0,0-.94.8A1.91,1.91,0,0,0,227,27.75Z"/><path class="cls-2" d="M243.56,35a6.41,6.41,0,0,1-2.23-.42,6.92,6.92,0,0,1-2.1-1.21,5.8,5.8,0,0,1-1.54-2,6.35,6.35,0,0,1-.57-2.75,6.09,6.09,0,0,1,.58-2.73,6,6,0,0,1,1.52-2,6.75,6.75,0,0,1,2.09-1.21,6.37,6.37,0,0,1,2.21-.41,6,6,0,0,1,1.66.21,5.23,5.23,0,0,1,1.25.51,3.57,3.57,0,0,1,.74.53,8.35,8.35,0,0,1,.75.65,1.05,1.05,0,0,1,.3.85,1.41,1.41,0,0,1-.18.56,3.55,3.55,0,0,1-.37.59c-.52.7-1,1-1.5,1a2.27,2.27,0,0,1-.69-.25l-.6-.35a5,5,0,0,0-.61-.32,2,2,0,0,0-.75-.13,2.56,2.56,0,0,0-1.3.33,2.61,2.61,0,0,0-.91.9,2.69,2.69,0,0,0,0,2.62,2.59,2.59,0,0,0,.89.91,2.49,2.49,0,0,0,1.27.34,2.66,2.66,0,0,0,.72-.1,2.59,2.59,0,0,0,.55-.24l.35-.21c.2-.13.39-.26.58-.36a1,1,0,0,1,.55-.17,1.2,1.2,0,0,1,.73.27,4,4,0,0,1,.82.83,2.07,2.07,0,0,1,.48,1,1.22,1.22,0,0,1-.21.86,2.56,2.56,0,0,1-.85.76,3.69,3.69,0,0,1-.71.45,6.49,6.49,0,0,1-1.25.5A5.71,5.71,0,0,1,243.56,35Z"/><path class="cls-2" d="M251.3,22.64h2.75l3.45-.09a5.29,5.29,0,0,1,.9.08,1.13,1.13,0,0,1,.7.49,2.47,2.47,0,0,1,.27,1.33,2.4,2.4,0,0,1-.26,1.25,1.24,1.24,0,0,1-.69.51,3.83,3.83,0,0,1-.93.11l-3.27-.08-3,0a1.27,1.27,0,0,1-1-.47,2.5,2.5,0,0,1-.28-1.38,2.08,2.08,0,0,1,.35-1.34A1.26,1.26,0,0,1,251.3,22.64ZM256.94,35a8.29,8.29,0,0,1-2.2-.28,3.36,3.36,0,0,1-2.39-2.32,6.91,6.91,0,0,1-.28-2.11V20.12a4.31,4.31,0,0,1,.09-.93,1.05,1.05,0,0,1,.49-.66,2.51,2.51,0,0,1,1.3-.26,2.4,2.4,0,0,1,1.3.27,1.14,1.14,0,0,1,.49.72,5.31,5.31,0,0,1,.08.91v9.92a3.13,3.13,0,0,0,.06.67.72.72,0,0,0,.19.38.62.62,0,0,0,.35.18,2.79,2.79,0,0,0,.55.05,4.07,4.07,0,0,1,1,.1,1,1,0,0,1,.66.45,2.17,2.17,0,0,1,.24,1.18,2.4,2.4,0,0,1-.27,1.3,1.11,1.11,0,0,1-.72.47A5.31,5.31,0,0,1,256.94,35Z"/><path class="cls-2" d="M271.49,34.93a2.34,2.34,0,0,1-1.38-.33.88.88,0,0,1-.42-.8l.25-.42a3,3,0,0,1-.57.61,4.25,4.25,0,0,1-2.78.94,4.89,4.89,0,0,1-2.19-.51A5.82,5.82,0,0,1,262.57,33a7.21,7.21,0,0,1-1.28-2,6.15,6.15,0,0,1-.47-2.37,6,6,0,0,1,.47-2.34,6.72,6.72,0,0,1,1.29-2A6.54,6.54,0,0,1,264.42,23a4.93,4.93,0,0,1,2.18-.49,4.1,4.1,0,0,1,1.57.26,4.32,4.32,0,0,1,1.09.61,3.45,3.45,0,0,1,.66.68l-.22-.35a1,1,0,0,1,.43-.91,2.44,2.44,0,0,1,1.39-.32,2.33,2.33,0,0,1,1.29.28,1.06,1.06,0,0,1,.47.73,4.69,4.69,0,0,1,.09.94V33a4.81,4.81,0,0,1-.09.93,1.12,1.12,0,0,1-.48.71A2.48,2.48,0,0,1,271.49,34.93Zm-4.37-3.73a2.13,2.13,0,0,0,1.2-.34,2.49,2.49,0,0,0,.85-.91,2.6,2.6,0,0,0,.32-1.27,2.43,2.43,0,0,0-1.2-2.18,2.39,2.39,0,0,0-1.22-.32,2.42,2.42,0,0,0-1.26.33,2.48,2.48,0,0,0-.9.92,2.44,2.44,0,0,0-.34,1.29,2.31,2.31,0,0,0,.34,1.24,2.41,2.41,0,0,0,.92.9A2.49,2.49,0,0,0,267.12,31.2Z"/><path class="cls-3" d="M76.49,34.84a2.42,2.42,0,0,1-1.32-.28,1.09,1.09,0,0,1-.49-.72,4.73,4.73,0,0,1-.09-.93V19.26a4.45,4.45,0,0,1,.1-.91,1.19,1.19,0,0,1,.5-.71,2.37,2.37,0,0,1,1.33-.28h5.12a6.29,6.29,0,0,1,2.1.37,6,6,0,0,1,2,1.17,5.9,5.9,0,0,1,1.47,1.93,6,6,0,0,1,.56,2.7,5.74,5.74,0,0,1-2,4.6,6.21,6.21,0,0,1-2,1.15,6.46,6.46,0,0,1-2.13.37h-3.2v3.28a4.53,4.53,0,0,1-.1.91,1.19,1.19,0,0,1-.5.71A2.37,2.37,0,0,1,76.49,34.84Zm1.93-9h3.23a2.69,2.69,0,0,0,1.09-.24,2.24,2.24,0,0,0,.9-.76,2.65,2.65,0,0,0,0-2.58,2.28,2.28,0,0,0-.84-.82,2.43,2.43,0,0,0-1.22-.31h-3.2Z"/><path class="cls-3" d="M95.89,35.05a6.3,6.3,0,0,1-2.34-.47,7,7,0,0,1-2.11-1.31,6.53,6.53,0,0,1-1.51-2,6.15,6.15,0,0,1-.56-2.64,6,6,0,0,1,.52-2.51,6.78,6.78,0,0,1,3.47-3.47,6.16,6.16,0,0,1,2.49-.51,6.33,6.33,0,0,1,3.26.86,6.64,6.64,0,0,1,2.34,2.34,6.71,6.71,0,0,1,.31,6,6.5,6.5,0,0,1-3.58,3.32A6.38,6.38,0,0,1,95.89,35.05Zm0-3.78a2.85,2.85,0,0,0,1.23-.3,2.73,2.73,0,0,0,1.05-.89,2.63,2.63,0,0,0,.43-1.53,2.77,2.77,0,0,0-.35-1.4,2.58,2.58,0,0,0-1-.94,2.88,2.88,0,0,0-1.41-.34,2.63,2.63,0,0,0-1.34.35,2.91,2.91,0,0,0-1,1,2.72,2.72,0,0,0-.36,1.39,2.66,2.66,0,0,0,.41,1.51,2.59,2.59,0,0,0,1,.91A2.92,2.92,0,0,0,95.84,31.27Z"/><path class="cls-3" d="M108.84,35.06a8,8,0,0,1-1.47-.15,8.55,8.55,0,0,1-1.54-.44,5.08,5.08,0,0,1-1.25-.68,1.26,1.26,0,0,1-.56-.89,1.19,1.19,0,0,1,0-.53,2.12,2.12,0,0,1,.23-.6,4.12,4.12,0,0,1,.43-.67.94.94,0,0,1,.44-.35,1,1,0,0,1,.59,0,3.55,3.55,0,0,1,.8.26l.82.4c.29.14.58.27.88.38a2.66,2.66,0,0,0,.92.16,2.32,2.32,0,0,0,1.09-.21.65.65,0,0,0,.39-.59.69.69,0,0,0-.16-.45,1.6,1.6,0,0,0-.45-.3c-.2-.08-.42-.16-.68-.24l-.81-.21c-.28-.07-.58-.15-.9-.25a9.05,9.05,0,0,1-1.19-.45,4,4,0,0,1-1.05-.71,3.17,3.17,0,0,1-.73-1.08,3.79,3.79,0,0,1-.28-1.56,3.3,3.3,0,0,1,2.23-3.31,7.34,7.34,0,0,1,2.7-.44c.3,0,.6,0,.9.05a5.62,5.62,0,0,1,.89.18,6.74,6.74,0,0,1,.86.3,8.36,8.36,0,0,1,.85.42c.5.24.76.55.77.95a2.39,2.39,0,0,1-1,1.84.88.88,0,0,1-.62.14,4.2,4.2,0,0,1-.87-.34c-.3-.16-.63-.3-1-.44a2.84,2.84,0,0,0-1-.2,2.2,2.2,0,0,0-.73.11,1.11,1.11,0,0,0-.45.3.69.69,0,0,0-.15.44.66.66,0,0,0,.19.51,1.4,1.4,0,0,0,.51.32,7.67,7.67,0,0,0,.75.22c.28.07.59.14.93.2s.91.2,1.38.34a4.71,4.71,0,0,1,1.3.61,3,3,0,0,1,1,1.08,3.76,3.76,0,0,1,.36,1.77,3.6,3.6,0,0,1-1.37,3A6.38,6.38,0,0,1,108.84,35.06Z"/><path class="cls-3" d="M117.07,22.56h2.75l3.45-.09a4.31,4.31,0,0,1,.9.08,1.08,1.08,0,0,1,.7.49,2.37,2.37,0,0,1,.28,1.33,2.3,2.3,0,0,1-.27,1.25,1.19,1.19,0,0,1-.68.51,4,4,0,0,1-.93.11L120,26.16l-3,0a1.27,1.27,0,0,1-1-.47,2.48,2.48,0,0,1-.29-1.38A2.15,2.15,0,0,1,116,23,1.29,1.29,0,0,1,117.07,22.56Zm5.65,12.3a7.87,7.87,0,0,1-2.2-.27,3.74,3.74,0,0,1-1.52-.85,3.53,3.53,0,0,1-.87-1.47,6.89,6.89,0,0,1-.29-2.11V20a4.31,4.31,0,0,1,.09-.93,1.05,1.05,0,0,1,.49-.66,3.32,3.32,0,0,1,2.6,0,1.14,1.14,0,0,1,.48.72,4.46,4.46,0,0,1,.09.91V30a2.55,2.55,0,0,0,.07.67.79.79,0,0,0,.18.38.65.65,0,0,0,.35.18,2.87,2.87,0,0,0,.55.05,4.1,4.1,0,0,1,1,.1,1.1,1.1,0,0,1,.66.45,2.17,2.17,0,0,1,.24,1.18,2.3,2.3,0,0,1-.28,1.3,1.07,1.07,0,0,1-.71.47A5.41,5.41,0,0,1,122.72,34.86Z"/><path class="cls-3" d="M132.44,34.85a5.21,5.21,0,0,1-2.17-.46,5.33,5.33,0,0,1-1.75-1.26,5.64,5.64,0,0,1-1.16-1.92,6.91,6.91,0,0,1-.42-2.44V24.24a4.42,4.42,0,0,1,.09-.92,1.06,1.06,0,0,1,.48-.7,3.25,3.25,0,0,1,2.64,0,1.12,1.12,0,0,1,.48.71,5.58,5.58,0,0,1,.08.94v4.5A2.92,2.92,0,0,0,131,30a1.82,1.82,0,0,0,.78.82,2.54,2.54,0,0,0,1.21.27,2.45,2.45,0,0,0,1.24-.29A2.08,2.08,0,0,0,135,30a2.57,2.57,0,0,0,.28-1.25V24.22a4.42,4.42,0,0,1,.09-.92,1,1,0,0,1,.48-.69,2.59,2.59,0,0,1,1.33-.26,2.37,2.37,0,0,1,1.31.27,1.17,1.17,0,0,1,.48.72,5.31,5.31,0,0,1,.08.91v8.8a4.19,4.19,0,0,1-.09.89,1,1,0,0,1-.49.66,2.52,2.52,0,0,1-1.3.25,2.92,2.92,0,0,1-1.05-.15,1.31,1.31,0,0,1-.55-.38,1,1,0,0,1-.21-.47,2.57,2.57,0,0,1,0-.45l.33-.28a2.49,2.49,0,0,1-.33.39,5.12,5.12,0,0,1-.66.57,4.43,4.43,0,0,1-1,.54A3.4,3.4,0,0,1,132.44,34.85Z"/><path class="cls-3" d="M143.44,34.88a2.37,2.37,0,0,1-1.31-.27,1.07,1.07,0,0,1-.48-.71,5.62,5.62,0,0,1-.08-.92V24.25a4.42,4.42,0,0,1,.09-.92,1,1,0,0,1,.49-.69,2.47,2.47,0,0,1,1.32-.26,2.52,2.52,0,0,1,1.27.24,1,1,0,0,1,.48.55,1.63,1.63,0,0,1,.1.53l-.3.15a3.91,3.91,0,0,1,.27-.36,3.47,3.47,0,0,1,.58-.55,3.79,3.79,0,0,1,.92-.49,3.56,3.56,0,0,1,1.23-.2c.19,0,.39,0,.62,0a5.2,5.2,0,0,1,.7.15,3.32,3.32,0,0,1,.66.3,1.69,1.69,0,0,1,.49.47,1.17,1.17,0,0,1,.18.67,3.14,3.14,0,0,1-.47,1.74,1.42,1.42,0,0,1-1.2.71,2,2,0,0,1-.6-.06.87.87,0,0,1-.29-.15,1.1,1.1,0,0,0-.26-.15,1.65,1.65,0,0,0-.55-.07,2.84,2.84,0,0,0-.72.1,1.93,1.93,0,0,0-.62.32,1.45,1.45,0,0,0-.61,1.23V33a4.46,4.46,0,0,1-.09.91,1,1,0,0,1-.48.69A2.71,2.71,0,0,1,143.44,34.88Z"/><path class="cls-3" d="M162.84,34.86a2.39,2.39,0,0,1-1.37-.32.91.91,0,0,1-.43-.8l.25-.43a3,3,0,0,1-.57.62,4.34,4.34,0,0,1-1.12.64,4.11,4.11,0,0,1-1.66.29,5,5,0,0,1-2.19-.5A5.85,5.85,0,0,1,153.92,33a7,7,0,0,1-1.28-2,6.16,6.16,0,0,1-.47-2.38,5.82,5.82,0,0,1,.48-2.33,6.59,6.59,0,0,1,3.12-3.34,5,5,0,0,1,2.18-.5,4.3,4.3,0,0,1,1.57.26,4.16,4.16,0,0,1,1.09.62,3.43,3.43,0,0,1,.66.67l-.22-.35a1,1,0,0,1,.44-.91,2.39,2.39,0,0,1,1.38-.31,2.34,2.34,0,0,1,1.29.27,1.16,1.16,0,0,1,.48.73,5.8,5.8,0,0,1,.08.95V33a4.73,4.73,0,0,1-.09.93,1.07,1.07,0,0,1-.48.71A2.36,2.36,0,0,1,162.84,34.86Zm-4.37-3.72a2.21,2.21,0,0,0,1.2-.34,2.6,2.6,0,0,0,1.18-2.19,2.53,2.53,0,0,0-.33-1.29,2.45,2.45,0,0,0-.87-.88,2.36,2.36,0,0,0-1.23-.33,2.33,2.33,0,0,0-1.26.34,2.53,2.53,0,0,0-1.24,2.21,2.34,2.34,0,0,0,.34,1.24,2.56,2.56,0,0,0,.92.9A2.59,2.59,0,0,0,158.47,31.14Z"/><path class="cls-3" d="M179.92,35a6.64,6.64,0,0,1-2.24-.41,7,7,0,0,1-2.1-1.22,5.92,5.92,0,0,1-1.54-2,6.35,6.35,0,0,1-.57-2.75,6,6,0,0,1,.58-2.72,5.89,5.89,0,0,1,1.52-2,6.87,6.87,0,0,1,2.09-1.21,6.61,6.61,0,0,1,2.21-.41,6.15,6.15,0,0,1,1.67.21,5.6,5.6,0,0,1,1.25.52,3.77,3.77,0,0,1,.73.52,6.26,6.26,0,0,1,.75.65,1.05,1.05,0,0,1,.3.85,1.5,1.5,0,0,1-.17.56,3.91,3.91,0,0,1-.38.59c-.52.7-1,1-1.5.95a2.27,2.27,0,0,1-.69-.25l-.6-.35a3.88,3.88,0,0,0-.61-.31,2,2,0,0,0-.75-.14,2.53,2.53,0,0,0-2.21,1.24,2.44,2.44,0,0,0-.34,1.31,2.5,2.5,0,0,0,.34,1.3,2.46,2.46,0,0,0,.9.91,2.55,2.55,0,0,0,2,.24,2.59,2.59,0,0,0,.55-.24l.35-.21.58-.36a1.05,1.05,0,0,1,.55-.16,1.24,1.24,0,0,1,.74.26,4.1,4.1,0,0,1,.81.84,2,2,0,0,1,.48,1,1.13,1.13,0,0,1-.21.86,2.69,2.69,0,0,1-.85.77,5.06,5.06,0,0,1-.71.45,6.52,6.52,0,0,1-1.25.49A5.69,5.69,0,0,1,179.92,35Z"/><path class="cls-3" d="M192.87,35.11a6.22,6.22,0,0,1-2.34-.47,6.91,6.91,0,0,1-2.11-1.31,6.24,6.24,0,0,1-1.51-2,6,6,0,0,1-.57-2.64,6.33,6.33,0,0,1,.52-2.51,6.75,6.75,0,0,1,1.41-2.06,6.67,6.67,0,0,1,2.07-1.41,6.08,6.08,0,0,1,2.48-.51,6.33,6.33,0,0,1,3.26.86,6.56,6.56,0,0,1,2.34,2.34,6.71,6.71,0,0,1,.31,6,6.5,6.5,0,0,1-1.5,2,6.57,6.57,0,0,1-2.08,1.29A6.36,6.36,0,0,1,192.87,35.11Zm-.05-3.78A2.78,2.78,0,0,0,194,31a2.67,2.67,0,0,0,1.05-.9,2.51,2.51,0,0,0,.43-1.52,2.74,2.74,0,0,0-.35-1.4,2.48,2.48,0,0,0-1-.94,2.83,2.83,0,0,0-1.41-.34,2.6,2.6,0,0,0-1.34.35,2.65,2.65,0,0,0-1,1,2.7,2.7,0,0,0-.37,1.39,2.61,2.61,0,0,0,.42,1.51,2.47,2.47,0,0,0,1,.9A2.83,2.83,0,0,0,192.82,31.33Z"/><path class="cls-3" d="M203.19,34.91a2.38,2.38,0,0,1-1.31-.26,1.09,1.09,0,0,1-.48-.71,4.73,4.73,0,0,1-.08-.93V24.29a4.52,4.52,0,0,1,.09-.93,1.08,1.08,0,0,1,.49-.69,2.54,2.54,0,0,1,1.32-.26,2.52,2.52,0,0,1,1.27.24,1,1,0,0,1,.48.55,1.73,1.73,0,0,1,.1.54l-.3.15a2.76,2.76,0,0,1,.26-.36,3.55,3.55,0,0,1,.59-.55,3.47,3.47,0,0,1,.92-.49,3.56,3.56,0,0,1,1.23-.2,4.7,4.7,0,0,1,.62,0,3.26,3.26,0,0,1,.7.15,2.47,2.47,0,0,1,.66.3,1.51,1.51,0,0,1,.48.46,1.16,1.16,0,0,1,.19.68,3.08,3.08,0,0,1-.47,1.73,1.41,1.41,0,0,1-1.2.72,1.66,1.66,0,0,1-.6-.07.87.87,0,0,1-.29-.15,1.61,1.61,0,0,0-.26-.15,1.72,1.72,0,0,0-.55-.06,2.46,2.46,0,0,0-.72.1,2.12,2.12,0,0,0-.62.31,1.54,1.54,0,0,0-.45.53,1.46,1.46,0,0,0-.17.71v5.47A4.63,4.63,0,0,1,205,34a1,1,0,0,1-.48.68A2.6,2.6,0,0,1,203.19,34.91Z"/><path class="cls-3" d="M214.27,34.92a2.52,2.52,0,0,1-1.32-.26,1.1,1.1,0,0,1-.47-.72,4.7,4.7,0,0,1-.09-.92V24.29a5.25,5.25,0,0,1,.08-.92,1.09,1.09,0,0,1,.49-.69,2.59,2.59,0,0,1,1.33-.26,2.5,2.5,0,0,1,1.26.24,1.06,1.06,0,0,1,.49.55,2.08,2.08,0,0,1,.1.54l-.3.15a2.39,2.39,0,0,1,.26-.37,4.06,4.06,0,0,1,.59-.55,3.53,3.53,0,0,1,2.15-.68,4.66,4.66,0,0,1,.61,0,3,3,0,0,1,.7.15,2.47,2.47,0,0,1,.66.3,1.66,1.66,0,0,1,.49.46,1.2,1.2,0,0,1,.19.67,3,3,0,0,1-.48,1.74,1.4,1.4,0,0,1-1.2.71,2.11,2.11,0,0,1-.6-.06,1,1,0,0,1-.29-.15.93.93,0,0,0-.26-.15,1.68,1.68,0,0,0-.55-.06,2.34,2.34,0,0,0-.71.1,1.85,1.85,0,0,0-.63.31,1.6,1.6,0,0,0-.45.52,1.53,1.53,0,0,0-.16.72v5.47a4.46,4.46,0,0,1-.09.91,1,1,0,0,1-.49.69A2.58,2.58,0,0,1,214.27,34.92Z"/><path class="cls-3" d="M229.67,35.15a7.3,7.3,0,0,1-3-.57,5.86,5.86,0,0,1-2.06-1.52,6.57,6.57,0,0,1-1.2-2.08,7.2,7.2,0,0,1-.4-2.31,6.42,6.42,0,0,1,.86-3.32,6,6,0,0,1,2.36-2.29,7.11,7.11,0,0,1,3.46-.83,6.18,6.18,0,0,1,2.51.46,5.13,5.13,0,0,1,1.75,1.2,5.34,5.34,0,0,1,1,1.59,4.51,4.51,0,0,1,.33,1.63,2.84,2.84,0,0,1-.66,2.05,2.25,2.25,0,0,1-1.69.67H227a1.77,1.77,0,0,0,.47,1.07,2.69,2.69,0,0,0,1,.7,3.5,3.5,0,0,0,1.33.25,7.94,7.94,0,0,0,1-.06,4.3,4.3,0,0,0,.79-.17l.59-.23.49-.18a1.81,1.81,0,0,1,.42-.1,1,1,0,0,1,.68.21,2.09,2.09,0,0,1,.57.71,1.75,1.75,0,0,1,.24.53,2.07,2.07,0,0,1,.06.5,1.32,1.32,0,0,1-.61,1.08,4.73,4.73,0,0,1-1.73.74A11.53,11.53,0,0,1,229.67,35.15ZM227,27.75h3.95a1,1,0,0,0,.58-.13.62.62,0,0,0,.2-.54,1.18,1.18,0,0,0-.28-.77,1.61,1.61,0,0,0-.73-.54,2.8,2.8,0,0,0-1.09-.19,3,3,0,0,0-1.35.3,2.38,2.38,0,0,0-.94.8A1.91,1.91,0,0,0,227,27.75Z"/><path class="cls-3" d="M243.56,35a6.41,6.41,0,0,1-2.23-.42,6.92,6.92,0,0,1-2.1-1.21,5.8,5.8,0,0,1-1.54-2,6.35,6.35,0,0,1-.57-2.75,6.09,6.09,0,0,1,.58-2.73,6,6,0,0,1,1.52-2,6.75,6.75,0,0,1,2.09-1.21,6.37,6.37,0,0,1,2.21-.41,6,6,0,0,1,1.66.21,5.23,5.23,0,0,1,1.25.51,3.57,3.57,0,0,1,.74.53,8.35,8.35,0,0,1,.75.65,1.05,1.05,0,0,1,.3.85,1.41,1.41,0,0,1-.18.56,3.55,3.55,0,0,1-.37.59c-.52.7-1,1-1.5,1a2.27,2.27,0,0,1-.69-.25l-.6-.35a5,5,0,0,0-.61-.32,2,2,0,0,0-.75-.13,2.56,2.56,0,0,0-1.3.33,2.61,2.61,0,0,0-.91.9,2.69,2.69,0,0,0,0,2.62,2.59,2.59,0,0,0,.89.91,2.49,2.49,0,0,0,1.27.34,2.66,2.66,0,0,0,.72-.1,2.59,2.59,0,0,0,.55-.24l.35-.21c.2-.13.39-.26.58-.36a1,1,0,0,1,.55-.17,1.2,1.2,0,0,1,.73.27,4,4,0,0,1,.82.83,2.07,2.07,0,0,1,.48,1,1.22,1.22,0,0,1-.21.86,2.56,2.56,0,0,1-.85.76,3.69,3.69,0,0,1-.71.45,6.49,6.49,0,0,1-1.25.5A5.71,5.71,0,0,1,243.56,35Z"/><path class="cls-3" d="M251.3,22.64h2.75l3.45-.09a5.29,5.29,0,0,1,.9.08,1.13,1.13,0,0,1,.7.49,2.47,2.47,0,0,1,.27,1.33,2.4,2.4,0,0,1-.26,1.25,1.24,1.24,0,0,1-.69.51,3.83,3.83,0,0,1-.93.11l-3.27-.08-3,0a1.27,1.27,0,0,1-1-.47,2.5,2.5,0,0,1-.28-1.38,2.08,2.08,0,0,1,.35-1.34A1.26,1.26,0,0,1,251.3,22.64ZM256.94,35a8.29,8.29,0,0,1-2.2-.28,3.36,3.36,0,0,1-2.39-2.32,6.91,6.91,0,0,1-.28-2.11V20.12a4.31,4.31,0,0,1,.09-.93,1.05,1.05,0,0,1,.49-.66,2.51,2.51,0,0,1,1.3-.26,2.4,2.4,0,0,1,1.3.27,1.14,1.14,0,0,1,.49.72,5.31,5.31,0,0,1,.08.91v9.92a3.13,3.13,0,0,0,.06.67.72.72,0,0,0,.19.38.62.62,0,0,0,.35.18,2.79,2.79,0,0,0,.55.05,4.07,4.07,0,0,1,1,.1,1,1,0,0,1,.66.45,2.17,2.17,0,0,1,.24,1.18,2.4,2.4,0,0,1-.27,1.3,1.11,1.11,0,0,1-.72.47A5.31,5.31,0,0,1,256.94,35Z"/><path class="cls-3" d="M271.49,34.93a2.34,2.34,0,0,1-1.38-.33.88.88,0,0,1-.42-.8l.25-.42a3,3,0,0,1-.57.61,4.25,4.25,0,0,1-2.78.94,4.89,4.89,0,0,1-2.19-.51A5.82,5.82,0,0,1,262.57,33a7.21,7.21,0,0,1-1.28-2,6.15,6.15,0,0,1-.47-2.37,6,6,0,0,1,.47-2.34,6.72,6.72,0,0,1,1.29-2A6.54,6.54,0,0,1,264.42,23a4.93,4.93,0,0,1,2.18-.49,4.1,4.1,0,0,1,1.57.26,4.32,4.32,0,0,1,1.09.61,3.45,3.45,0,0,1,.66.68l-.22-.35a1,1,0,0,1,.43-.91,2.44,2.44,0,0,1,1.39-.32,2.33,2.33,0,0,1,1.29.28,1.06,1.06,0,0,1,.47.73,4.69,4.69,0,0,1,.09.94V33a4.81,4.81,0,0,1-.09.93,1.12,1.12,0,0,1-.48.71A2.48,2.48,0,0,1,271.49,34.93Zm-4.37-3.73a2.13,2.13,0,0,0,1.2-.34,2.49,2.49,0,0,0,.85-.91,2.6,2.6,0,0,0,.32-1.27,2.43,2.43,0,0,0-1.2-2.18,2.39,2.39,0,0,0-1.22-.32,2.42,2.42,0,0,0-1.26.33,2.48,2.48,0,0,0-.9.92,2.44,2.44,0,0,0-.34,1.29,2.31,2.31,0,0,0,.34,1.24,2.41,2.41,0,0,0,.92.9A2.49,2.49,0,0,0,267.12,31.2Z"/><path class="cls-2" d="M76.49,34.84a2.42,2.42,0,0,1-1.32-.28,1.09,1.09,0,0,1-.49-.72,4.73,4.73,0,0,1-.09-.93V19.26a4.45,4.45,0,0,1,.1-.91,1.19,1.19,0,0,1,.5-.71,2.37,2.37,0,0,1,1.33-.28h5.12a6.29,6.29,0,0,1,2.1.37,6,6,0,0,1,2,1.17,5.9,5.9,0,0,1,1.47,1.93,6,6,0,0,1,.56,2.7,5.74,5.74,0,0,1-2,4.6,6.21,6.21,0,0,1-2,1.15,6.46,6.46,0,0,1-2.13.37h-3.2v3.28a4.53,4.53,0,0,1-.1.91,1.19,1.19,0,0,1-.5.71A2.37,2.37,0,0,1,76.49,34.84Zm1.93-9h3.23a2.69,2.69,0,0,0,1.09-.24,2.24,2.24,0,0,0,.9-.76,2.65,2.65,0,0,0,0-2.58,2.28,2.28,0,0,0-.84-.82,2.43,2.43,0,0,0-1.22-.31h-3.2Z"/><path class="cls-2" d="M95.89,35.05a6.3,6.3,0,0,1-2.34-.47,7,7,0,0,1-2.11-1.31,6.53,6.53,0,0,1-1.51-2,6.15,6.15,0,0,1-.56-2.64,6,6,0,0,1,.52-2.51,6.78,6.78,0,0,1,3.47-3.47,6.16,6.16,0,0,1,2.49-.51,6.33,6.33,0,0,1,3.26.86,6.64,6.64,0,0,1,2.34,2.34,6.71,6.71,0,0,1,.31,6,6.5,6.5,0,0,1-3.58,3.32A6.38,6.38,0,0,1,95.89,35.05Zm0-3.78a2.85,2.85,0,0,0,1.23-.3,2.73,2.73,0,0,0,1.05-.89,2.63,2.63,0,0,0,.43-1.53,2.77,2.77,0,0,0-.35-1.4,2.58,2.58,0,0,0-1-.94,2.88,2.88,0,0,0-1.41-.34,2.63,2.63,0,0,0-1.34.35,2.91,2.91,0,0,0-1,1,2.72,2.72,0,0,0-.36,1.39,2.66,2.66,0,0,0,.41,1.51,2.59,2.59,0,0,0,1,.91A2.92,2.92,0,0,0,95.84,31.27Z"/><path class="cls-2" d="M108.84,35.06a8,8,0,0,1-1.47-.15,8.55,8.55,0,0,1-1.54-.44,5.08,5.08,0,0,1-1.25-.68,1.26,1.26,0,0,1-.56-.89,1.19,1.19,0,0,1,0-.53,2.12,2.12,0,0,1,.23-.6,4.12,4.12,0,0,1,.43-.67.94.94,0,0,1,.44-.35,1,1,0,0,1,.59,0,3.55,3.55,0,0,1,.8.26l.82.4c.29.14.58.27.88.38a2.66,2.66,0,0,0,.92.16,2.32,2.32,0,0,0,1.09-.21.65.65,0,0,0,.39-.59.69.69,0,0,0-.16-.45,1.6,1.6,0,0,0-.45-.3c-.2-.08-.42-.16-.68-.24l-.81-.21c-.28-.07-.58-.15-.9-.25a9.05,9.05,0,0,1-1.19-.45,4,4,0,0,1-1.05-.71,3.17,3.17,0,0,1-.73-1.08,3.79,3.79,0,0,1-.28-1.56,3.3,3.3,0,0,1,2.23-3.31,7.34,7.34,0,0,1,2.7-.44c.3,0,.6,0,.9.05a5.62,5.62,0,0,1,.89.18,6.74,6.74,0,0,1,.86.3,8.36,8.36,0,0,1,.85.42c.5.24.76.55.77.95a2.39,2.39,0,0,1-1,1.84.88.88,0,0,1-.62.14,4.2,4.2,0,0,1-.87-.34c-.3-.16-.63-.3-1-.44a2.84,2.84,0,0,0-1-.2,2.2,2.2,0,0,0-.73.11,1.11,1.11,0,0,0-.45.3.69.69,0,0,0-.15.44.66.66,0,0,0,.19.51,1.4,1.4,0,0,0,.51.32,7.67,7.67,0,0,0,.75.22c.28.07.59.14.93.2s.91.2,1.38.34a4.71,4.71,0,0,1,1.3.61,3,3,0,0,1,1,1.08,3.76,3.76,0,0,1,.36,1.77,3.6,3.6,0,0,1-1.37,3A6.38,6.38,0,0,1,108.84,35.06Z"/><path class="cls-2" d="M117.07,22.56h2.75l3.45-.09a4.31,4.31,0,0,1,.9.08,1.08,1.08,0,0,1,.7.49,2.37,2.37,0,0,1,.28,1.33,2.3,2.3,0,0,1-.27,1.25,1.19,1.19,0,0,1-.68.51,4,4,0,0,1-.93.11L120,26.16l-3,0a1.27,1.27,0,0,1-1-.47,2.48,2.48,0,0,1-.29-1.38A2.15,2.15,0,0,1,116,23,1.29,1.29,0,0,1,117.07,22.56Zm5.65,12.3a7.87,7.87,0,0,1-2.2-.27,3.74,3.74,0,0,1-1.52-.85,3.53,3.53,0,0,1-.87-1.47,6.89,6.89,0,0,1-.29-2.11V20a4.31,4.31,0,0,1,.09-.93,1.05,1.05,0,0,1,.49-.66,3.32,3.32,0,0,1,2.6,0,1.14,1.14,0,0,1,.48.72,4.46,4.46,0,0,1,.09.91V30a2.55,2.55,0,0,0,.07.67.79.79,0,0,0,.18.38.65.65,0,0,0,.35.18,2.87,2.87,0,0,0,.55.05,4.1,4.1,0,0,1,1,.1,1.1,1.1,0,0,1,.66.45,2.17,2.17,0,0,1,.24,1.18,2.3,2.3,0,0,1-.28,1.3,1.07,1.07,0,0,1-.71.47A5.41,5.41,0,0,1,122.72,34.86Z"/><path class="cls-2" d="M132.44,34.85a5.21,5.21,0,0,1-2.17-.46,5.33,5.33,0,0,1-1.75-1.26,5.64,5.64,0,0,1-1.16-1.92,6.91,6.91,0,0,1-.42-2.44V24.24a4.42,4.42,0,0,1,.09-.92,1.06,1.06,0,0,1,.48-.7,3.25,3.25,0,0,1,2.64,0,1.12,1.12,0,0,1,.48.71,5.58,5.58,0,0,1,.08.94v4.5A2.92,2.92,0,0,0,131,30a1.82,1.82,0,0,0,.78.82,2.54,2.54,0,0,0,1.21.27,2.45,2.45,0,0,0,1.24-.29A2.08,2.08,0,0,0,135,30a2.57,2.57,0,0,0,.28-1.25V24.22a4.42,4.42,0,0,1,.09-.92,1,1,0,0,1,.48-.69,2.59,2.59,0,0,1,1.33-.26,2.37,2.37,0,0,1,1.31.27,1.17,1.17,0,0,1,.48.72,5.31,5.31,0,0,1,.08.91v8.8a4.19,4.19,0,0,1-.09.89,1,1,0,0,1-.49.66,2.52,2.52,0,0,1-1.3.25,2.92,2.92,0,0,1-1.05-.15,1.31,1.31,0,0,1-.55-.38,1,1,0,0,1-.21-.47,2.57,2.57,0,0,1,0-.45l.33-.28a2.49,2.49,0,0,1-.33.39,5.12,5.12,0,0,1-.66.57,4.43,4.43,0,0,1-1,.54A3.4,3.4,0,0,1,132.44,34.85Z"/><path class="cls-2" d="M143.44,34.88a2.37,2.37,0,0,1-1.31-.27,1.07,1.07,0,0,1-.48-.71,5.62,5.62,0,0,1-.08-.92V24.25a4.42,4.42,0,0,1,.09-.92,1,1,0,0,1,.49-.69,2.47,2.47,0,0,1,1.32-.26,2.52,2.52,0,0,1,1.27.24,1,1,0,0,1,.48.55,1.63,1.63,0,0,1,.1.53l-.3.15a3.91,3.91,0,0,1,.27-.36,3.47,3.47,0,0,1,.58-.55,3.79,3.79,0,0,1,.92-.49,3.56,3.56,0,0,1,1.23-.2c.19,0,.39,0,.62,0a5.2,5.2,0,0,1,.7.15,3.32,3.32,0,0,1,.66.3,1.69,1.69,0,0,1,.49.47,1.17,1.17,0,0,1,.18.67,3.14,3.14,0,0,1-.47,1.74,1.42,1.42,0,0,1-1.2.71,2,2,0,0,1-.6-.06.87.87,0,0,1-.29-.15,1.1,1.1,0,0,0-.26-.15,1.65,1.65,0,0,0-.55-.07,2.84,2.84,0,0,0-.72.1,1.93,1.93,0,0,0-.62.32,1.45,1.45,0,0,0-.61,1.23V33a4.46,4.46,0,0,1-.09.91,1,1,0,0,1-.48.69A2.71,2.71,0,0,1,143.44,34.88Z"/><path class="cls-2" d="M162.84,34.86a2.39,2.39,0,0,1-1.37-.32.91.91,0,0,1-.43-.8l.25-.43a3,3,0,0,1-.57.62,4.34,4.34,0,0,1-1.12.64,4.11,4.11,0,0,1-1.66.29,5,5,0,0,1-2.19-.5A5.85,5.85,0,0,1,153.92,33a7,7,0,0,1-1.28-2,6.16,6.16,0,0,1-.47-2.38,5.82,5.82,0,0,1,.48-2.33,6.59,6.59,0,0,1,3.12-3.34,5,5,0,0,1,2.18-.5,4.3,4.3,0,0,1,1.57.26,4.16,4.16,0,0,1,1.09.62,3.43,3.43,0,0,1,.66.67l-.22-.35a1,1,0,0,1,.44-.91,2.39,2.39,0,0,1,1.38-.31,2.34,2.34,0,0,1,1.29.27,1.16,1.16,0,0,1,.48.73,5.8,5.8,0,0,1,.08.95V33a4.73,4.73,0,0,1-.09.93,1.07,1.07,0,0,1-.48.71A2.36,2.36,0,0,1,162.84,34.86Zm-4.37-3.72a2.21,2.21,0,0,0,1.2-.34,2.6,2.6,0,0,0,1.18-2.19,2.53,2.53,0,0,0-.33-1.29,2.45,2.45,0,0,0-.87-.88,2.36,2.36,0,0,0-1.23-.33,2.33,2.33,0,0,0-1.26.34,2.53,2.53,0,0,0-1.24,2.21,2.34,2.34,0,0,0,.34,1.24,2.56,2.56,0,0,0,.92.9A2.59,2.59,0,0,0,158.47,31.14Z"/><path class="cls-2" d="M179.92,35a6.64,6.64,0,0,1-2.24-.41,7,7,0,0,1-2.1-1.22,5.92,5.92,0,0,1-1.54-2,6.35,6.35,0,0,1-.57-2.75,6,6,0,0,1,.58-2.72,5.89,5.89,0,0,1,1.52-2,6.87,6.87,0,0,1,2.09-1.21,6.61,6.61,0,0,1,2.21-.41,6.15,6.15,0,0,1,1.67.21,5.6,5.6,0,0,1,1.25.52,3.77,3.77,0,0,1,.73.52,6.26,6.26,0,0,1,.75.65,1.05,1.05,0,0,1,.3.85,1.5,1.5,0,0,1-.17.56,3.91,3.91,0,0,1-.38.59c-.52.7-1,1-1.5.95a2.27,2.27,0,0,1-.69-.25l-.6-.35a3.88,3.88,0,0,0-.61-.31,2,2,0,0,0-.75-.14,2.53,2.53,0,0,0-2.21,1.24,2.44,2.44,0,0,0-.34,1.31,2.5,2.5,0,0,0,.34,1.3,2.46,2.46,0,0,0,.9.91,2.55,2.55,0,0,0,2,.24,2.59,2.59,0,0,0,.55-.24l.35-.21.58-.36a1.05,1.05,0,0,1,.55-.16,1.24,1.24,0,0,1,.74.26,4.1,4.1,0,0,1,.81.84,2,2,0,0,1,.48,1,1.13,1.13,0,0,1-.21.86,2.69,2.69,0,0,1-.85.77,5.06,5.06,0,0,1-.71.45,6.52,6.52,0,0,1-1.25.49A5.69,5.69,0,0,1,179.92,35Z"/><path class="cls-2" d="M192.87,35.11a6.22,6.22,0,0,1-2.34-.47,6.91,6.91,0,0,1-2.11-1.31,6.24,6.24,0,0,1-1.51-2,6,6,0,0,1-.57-2.64,6.33,6.33,0,0,1,.52-2.51,6.75,6.75,0,0,1,1.41-2.06,6.67,6.67,0,0,1,2.07-1.41,6.08,6.08,0,0,1,2.48-.51,6.33,6.33,0,0,1,3.26.86,6.56,6.56,0,0,1,2.34,2.34,6.71,6.71,0,0,1,.31,6,6.5,6.5,0,0,1-1.5,2,6.57,6.57,0,0,1-2.08,1.29A6.36,6.36,0,0,1,192.87,35.11Zm-.05-3.78A2.78,2.78,0,0,0,194,31a2.67,2.67,0,0,0,1.05-.9,2.51,2.51,0,0,0,.43-1.52,2.74,2.74,0,0,0-.35-1.4,2.48,2.48,0,0,0-1-.94,2.83,2.83,0,0,0-1.41-.34,2.6,2.6,0,0,0-1.34.35,2.65,2.65,0,0,0-1,1,2.7,2.7,0,0,0-.37,1.39,2.61,2.61,0,0,0,.42,1.51,2.47,2.47,0,0,0,1,.9A2.83,2.83,0,0,0,192.82,31.33Z"/><path class="cls-2" d="M203.19,34.91a2.38,2.38,0,0,1-1.31-.26,1.09,1.09,0,0,1-.48-.71,4.73,4.73,0,0,1-.08-.93V24.29a4.52,4.52,0,0,1,.09-.93,1.08,1.08,0,0,1,.49-.69,2.54,2.54,0,0,1,1.32-.26,2.52,2.52,0,0,1,1.27.24,1,1,0,0,1,.48.55,1.73,1.73,0,0,1,.1.54l-.3.15a2.76,2.76,0,0,1,.26-.36,3.55,3.55,0,0,1,.59-.55,3.47,3.47,0,0,1,.92-.49,3.56,3.56,0,0,1,1.23-.2,4.7,4.7,0,0,1,.62,0,3.26,3.26,0,0,1,.7.15,2.47,2.47,0,0,1,.66.3,1.51,1.51,0,0,1,.48.46,1.16,1.16,0,0,1,.19.68,3.08,3.08,0,0,1-.47,1.73,1.41,1.41,0,0,1-1.2.72,1.66,1.66,0,0,1-.6-.07.87.87,0,0,1-.29-.15,1.61,1.61,0,0,0-.26-.15,1.72,1.72,0,0,0-.55-.06,2.46,2.46,0,0,0-.72.1,2.12,2.12,0,0,0-.62.31,1.54,1.54,0,0,0-.45.53,1.46,1.46,0,0,0-.17.71v5.47A4.63,4.63,0,0,1,205,34a1,1,0,0,1-.48.68A2.6,2.6,0,0,1,203.19,34.91Z"/><path class="cls-2" d="M214.27,34.92a2.52,2.52,0,0,1-1.32-.26,1.1,1.1,0,0,1-.47-.72,4.7,4.7,0,0,1-.09-.92V24.29a5.25,5.25,0,0,1,.08-.92,1.09,1.09,0,0,1,.49-.69,2.59,2.59,0,0,1,1.33-.26,2.5,2.5,0,0,1,1.26.24,1.06,1.06,0,0,1,.49.55,2.08,2.08,0,0,1,.1.54l-.3.15a2.39,2.39,0,0,1,.26-.37,4.06,4.06,0,0,1,.59-.55,3.53,3.53,0,0,1,2.15-.68,4.66,4.66,0,0,1,.61,0,3,3,0,0,1,.7.15,2.47,2.47,0,0,1,.66.3,1.66,1.66,0,0,1,.49.46,1.2,1.2,0,0,1,.19.67,3,3,0,0,1-.48,1.74,1.4,1.4,0,0,1-1.2.71,2.11,2.11,0,0,1-.6-.06,1,1,0,0,1-.29-.15.93.93,0,0,0-.26-.15,1.68,1.68,0,0,0-.55-.06,2.34,2.34,0,0,0-.71.1,1.85,1.85,0,0,0-.63.31,1.6,1.6,0,0,0-.45.52,1.53,1.53,0,0,0-.16.72v5.47a4.46,4.46,0,0,1-.09.91,1,1,0,0,1-.49.69A2.58,2.58,0,0,1,214.27,34.92Z"/><path class="cls-2" d="M229.67,35.15a7.3,7.3,0,0,1-3-.57,5.86,5.86,0,0,1-2.06-1.52,6.57,6.57,0,0,1-1.2-2.08,7.2,7.2,0,0,1-.4-2.31,6.42,6.42,0,0,1,.86-3.32,6,6,0,0,1,2.36-2.29,7.11,7.11,0,0,1,3.46-.83,6.18,6.18,0,0,1,2.51.46,5.13,5.13,0,0,1,1.75,1.2,5.34,5.34,0,0,1,1,1.59,4.51,4.51,0,0,1,.33,1.63,2.84,2.84,0,0,1-.66,2.05,2.25,2.25,0,0,1-1.69.67H227a1.77,1.77,0,0,0,.47,1.07,2.69,2.69,0,0,0,1,.7,3.5,3.5,0,0,0,1.33.25,7.94,7.94,0,0,0,1-.06,4.3,4.3,0,0,0,.79-.17l.59-.23.49-.18a1.81,1.81,0,0,1,.42-.1,1,1,0,0,1,.68.21,2.09,2.09,0,0,1,.57.71,1.75,1.75,0,0,1,.24.53,2.07,2.07,0,0,1,.06.5,1.32,1.32,0,0,1-.61,1.08,4.73,4.73,0,0,1-1.73.74A11.53,11.53,0,0,1,229.67,35.15ZM227,27.75h3.95a1,1,0,0,0,.58-.13.62.62,0,0,0,.2-.54,1.18,1.18,0,0,0-.28-.77,1.61,1.61,0,0,0-.73-.54,2.8,2.8,0,0,0-1.09-.19,3,3,0,0,0-1.35.3,2.38,2.38,0,0,0-.94.8A1.91,1.91,0,0,0,227,27.75Z"/><path class="cls-2" d="M243.56,35a6.41,6.41,0,0,1-2.23-.42,6.92,6.92,0,0,1-2.1-1.21,5.8,5.8,0,0,1-1.54-2,6.35,6.35,0,0,1-.57-2.75,6.09,6.09,0,0,1,.58-2.73,6,6,0,0,1,1.52-2,6.75,6.75,0,0,1,2.09-1.21,6.37,6.37,0,0,1,2.21-.41,6,6,0,0,1,1.66.21,5.23,5.23,0,0,1,1.25.51,3.57,3.57,0,0,1,.74.53,8.35,8.35,0,0,1,.75.65,1.05,1.05,0,0,1,.3.85,1.41,1.41,0,0,1-.18.56,3.55,3.55,0,0,1-.37.59c-.52.7-1,1-1.5,1a2.27,2.27,0,0,1-.69-.25l-.6-.35a5,5,0,0,0-.61-.32,2,2,0,0,0-.75-.13,2.56,2.56,0,0,0-1.3.33,2.61,2.61,0,0,0-.91.9,2.69,2.69,0,0,0,0,2.62,2.59,2.59,0,0,0,.89.91,2.49,2.49,0,0,0,1.27.34,2.66,2.66,0,0,0,.72-.1,2.59,2.59,0,0,0,.55-.24l.35-.21c.2-.13.39-.26.58-.36a1,1,0,0,1,.55-.17,1.2,1.2,0,0,1,.73.27,4,4,0,0,1,.82.83,2.07,2.07,0,0,1,.48,1,1.22,1.22,0,0,1-.21.86,2.56,2.56,0,0,1-.85.76,3.69,3.69,0,0,1-.71.45,6.49,6.49,0,0,1-1.25.5A5.71,5.71,0,0,1,243.56,35Z"/><path class="cls-2" d="M251.3,22.64h2.75l3.45-.09a5.29,5.29,0,0,1,.9.08,1.13,1.13,0,0,1,.7.49,2.47,2.47,0,0,1,.27,1.33,2.4,2.4,0,0,1-.26,1.25,1.24,1.24,0,0,1-.69.51,3.83,3.83,0,0,1-.93.11l-3.27-.08-3,0a1.27,1.27,0,0,1-1-.47,2.5,2.5,0,0,1-.28-1.38,2.08,2.08,0,0,1,.35-1.34A1.26,1.26,0,0,1,251.3,22.64ZM256.94,35a8.29,8.29,0,0,1-2.2-.28,3.36,3.36,0,0,1-2.39-2.32,6.91,6.91,0,0,1-.28-2.11V20.12a4.31,4.31,0,0,1,.09-.93,1.05,1.05,0,0,1,.49-.66,2.51,2.51,0,0,1,1.3-.26,2.4,2.4,0,0,1,1.3.27,1.14,1.14,0,0,1,.49.72,5.31,5.31,0,0,1,.08.91v9.92a3.13,3.13,0,0,0,.06.67.72.72,0,0,0,.19.38.62.62,0,0,0,.35.18,2.79,2.79,0,0,0,.55.05,4.07,4.07,0,0,1,1,.1,1,1,0,0,1,.66.45,2.17,2.17,0,0,1,.24,1.18,2.4,2.4,0,0,1-.27,1.3,1.11,1.11,0,0,1-.72.47A5.31,5.31,0,0,1,256.94,35Z"/><path class="cls-2" d="M271.49,34.93a2.34,2.34,0,0,1-1.38-.33.88.88,0,0,1-.42-.8l.25-.42a3,3,0,0,1-.57.61,4.25,4.25,0,0,1-2.78.94,4.89,4.89,0,0,1-2.19-.51A5.82,5.82,0,0,1,262.57,33a7.21,7.21,0,0,1-1.28-2,6.15,6.15,0,0,1-.47-2.37,6,6,0,0,1,.47-2.34,6.72,6.72,0,0,1,1.29-2A6.54,6.54,0,0,1,264.42,23a4.93,4.93,0,0,1,2.18-.49,4.1,4.1,0,0,1,1.57.26,4.32,4.32,0,0,1,1.09.61,3.45,3.45,0,0,1,.66.68l-.22-.35a1,1,0,0,1,.43-.91,2.44,2.44,0,0,1,1.39-.32,2.33,2.33,0,0,1,1.29.28,1.06,1.06,0,0,1,.47.73,4.69,4.69,0,0,1,.09.94V33a4.81,4.81,0,0,1-.09.93,1.12,1.12,0,0,1-.48.71A2.48,2.48,0,0,1,271.49,34.93Zm-4.37-3.73a2.13,2.13,0,0,0,1.2-.34,2.49,2.49,0,0,0,.85-.91,2.6,2.6,0,0,0,.32-1.27,2.43,2.43,0,0,0-1.2-2.18,2.39,2.39,0,0,0-1.22-.32,2.42,2.42,0,0,0-1.26.33,2.48,2.48,0,0,0-.9.92,2.44,2.44,0,0,0-.34,1.29,2.31,2.31,0,0,0,.34,1.24,2.41,2.41,0,0,0,.92.9A2.49,2.49,0,0,0,267.12,31.2Z"/><path class="cls-4" d="M44.93,23c0-1.37-1.24-2.06-3.71-2.06a19.62,19.62,0,0,0-2.1.15,19.29,19.29,0,0,1-1.93.15q-2.94,0-2.94-3.62t8.48-3.73q5.51,0,8.23,1.84a5.63,5.63,0,0,1,2.73,4.83,7.77,7.77,0,0,1-3.51,6.64,9.52,9.52,0,0,1,3.32,2.71,7.26,7.26,0,0,1,1,4,7.35,7.35,0,0,1-2.8,6,11.45,11.45,0,0,1-7.47,2.28c-3.92,0-6.72-.41-8.42-1.23a4,4,0,0,1-2.54-3.76A3.92,3.92,0,0,1,34,34.27a3.15,3.15,0,0,1,2.28-.78c.49,0,1.25.06,2.28.17s1.82.17,2.36.17c3,0,4.45-.56,4.45-1.68a1.63,1.63,0,0,0-.86-1.58,8,8,0,0,0-3.22-.44A6.52,6.52,0,0,1,38,29.5a2.58,2.58,0,0,1-1-2.35c0-1.74,1.11-2.6,3.34-2.6a17.65,17.65,0,0,0,3.2-.21c.69-.14,1.09-.3,1.2-.49A1.92,1.92,0,0,0,44.93,23Z"/><path class="cls-4" d="M57.05,39a2.76,2.76,0,0,1,1.17-2.31,5.36,5.36,0,0,1,3.28-.88c3,0,4.44,1.07,4.43,3.19a3.11,3.11,0,0,1-.57,2,2.69,2.69,0,0,1-1.51,1,9.11,9.11,0,0,1-2.36.26,6.16,6.16,0,0,1-3.18-.76A2.62,2.62,0,0,1,57.05,39Z"/><path class="cls-5" d="M44.93,23c0-1.37-1.24-2.06-3.71-2.06a19.62,19.62,0,0,0-2.1.15,19.29,19.29,0,0,1-1.93.15q-2.94,0-2.94-3.62t8.48-3.73q5.51,0,8.23,1.84a5.63,5.63,0,0,1,2.73,4.83,7.77,7.77,0,0,1-3.51,6.64,9.52,9.52,0,0,1,3.32,2.71,7.26,7.26,0,0,1,1,4,7.35,7.35,0,0,1-2.8,6,11.45,11.45,0,0,1-7.47,2.28c-3.92,0-6.72-.41-8.42-1.23a4,4,0,0,1-2.54-3.76A3.92,3.92,0,0,1,34,34.27a3.15,3.15,0,0,1,2.28-.78c.49,0,1.25.06,2.28.17s1.82.17,2.36.17c3,0,4.45-.56,4.45-1.68a1.63,1.63,0,0,0-.86-1.58,8,8,0,0,0-3.22-.44A6.52,6.52,0,0,1,38,29.5a2.58,2.58,0,0,1-1-2.35c0-1.74,1.11-2.6,3.34-2.6a17.65,17.65,0,0,0,3.2-.21c.69-.14,1.09-.3,1.2-.49A1.92,1.92,0,0,0,44.93,23Z"/><path class="cls-5" d="M57.05,39a2.76,2.76,0,0,1,1.17-2.31,5.36,5.36,0,0,1,3.28-.88c3,0,4.44,1.07,4.43,3.19a3.11,3.11,0,0,1-.57,2,2.69,2.69,0,0,1-1.51,1,9.11,9.11,0,0,1-2.36.26,6.16,6.16,0,0,1-3.18-.76A2.62,2.62,0,0,1,57.05,39Z"/></g></g></svg>