<svg xmlns="http://www.w3.org/2000/svg" viewBox="0 0 399.98 81.13"><defs><style>.cls-1{fill:#c49e00;}.cls-2{fill:#fff;}.cls-3,.cls-4{fill:none;stroke-width:5px;}.cls-3{stroke:#148adb;stroke-linejoin:round;}.cls-4{stroke:#fff;}.cls-5{fill:#148adb;}</style></defs><title>t4_1</title><g id="Layer_2" data-name="Layer 2"><g id="Pestaña_Paso_4" data-name="Pestaña Paso 4"><rect class="cls-1" width="399.98" height="81.13" rx="32.4"/><path class="cls-2" d="M84.66,34a6.43,6.43,0,0,1-3-.66,6.69,6.69,0,0,1-2.16-1.75,7.67,7.67,0,0,1-1.31-2.46,9.15,9.15,0,0,1-.43-2.8V19.49a4.57,4.57,0,0,1,.08-.86,1.08,1.08,0,0,1,.45-.66,2.22,2.22,0,0,1,1.22-.25,2.26,2.26,0,0,1,1.24.25,1,1,0,0,1,.45.66,4.06,4.06,0,0,1,.08.88v6.86a5.87,5.87,0,0,0,.33,1.95,3.55,3.55,0,0,0,1.09,1.57,3.08,3.08,0,0,0,2,.62A3.12,3.12,0,0,0,86.55,30a3.2,3.2,0,0,0,1.17-1.45,5.28,5.28,0,0,0,.42-2.19v-7a3,3,0,0,1,.1-.81,1,1,0,0,1,.46-.6,2.95,2.95,0,0,1,2.42,0,1.07,1.07,0,0,1,.44.67,4.65,4.65,0,0,1,.08.86v6.9a8.89,8.89,0,0,1-.45,2.81,7.41,7.41,0,0,1-1.34,2.43A6.45,6.45,0,0,1,84.66,34Z"/><path class="cls-2" d="M98.16,34a6.73,6.73,0,0,1-1.35-.14,7.26,7.26,0,0,1-1.42-.4,5,5,0,0,1-1.15-.62,1.19,1.19,0,0,1-.52-.82,1.17,1.17,0,0,1,0-.49,1.84,1.84,0,0,1,.2-.55,3.43,3.43,0,0,1,.41-.61.75.75,0,0,1,.4-.32.92.92,0,0,1,.54,0,3,3,0,0,1,.73.24l.76.37a5.77,5.77,0,0,0,.81.34,2.45,2.45,0,0,0,.85.15,2,2,0,0,0,1-.19.6.6,0,0,0,.36-.54.56.56,0,0,0-.15-.41,1.23,1.23,0,0,0-.42-.28,4.38,4.38,0,0,0-.62-.22l-.74-.2a7.45,7.45,0,0,1-.83-.23A6.56,6.56,0,0,1,96,28.7,3.47,3.47,0,0,1,95,28a3.06,3.06,0,0,1-.68-1,3.59,3.59,0,0,1-.25-1.43,3.24,3.24,0,0,1,.52-1.89,3.17,3.17,0,0,1,1.53-1.16,6.68,6.68,0,0,1,2.48-.4,7.69,7.69,0,0,1,.83,0,5.68,5.68,0,0,1,.82.17,7.35,7.35,0,0,1,.79.27,7.09,7.09,0,0,1,.78.39,1,1,0,0,1,.71.88,1.83,1.83,0,0,1-.39,1.15,2,2,0,0,1-.53.54.78.78,0,0,1-.57.12,3.3,3.3,0,0,1-.79-.31c-.29-.14-.59-.28-.9-.4a2.64,2.64,0,0,0-.93-.18,1.89,1.89,0,0,0-.67.1.91.91,0,0,0-.41.28.56.56,0,0,0-.14.4.62.62,0,0,0,.17.47,1.4,1.4,0,0,0,.47.29,6.52,6.52,0,0,0,.69.2c.26.07.55.13.85.19s.84.18,1.28.31a4.34,4.34,0,0,1,1.19.56,2.81,2.81,0,0,1,.88,1,3.51,3.51,0,0,1,.33,1.64,3.27,3.27,0,0,1-1.27,2.78A5.86,5.86,0,0,1,98.16,34Z"/><path class="cls-2" d="M110.54,34a5.61,5.61,0,0,1-2.15-.43,6.34,6.34,0,0,1-2-1.2,6.05,6.05,0,0,1-1.39-1.88,5.69,5.69,0,0,1-.51-2.43,5.58,5.58,0,0,1,.47-2.31,6.14,6.14,0,0,1,1.3-1.89,5.9,5.9,0,0,1,1.9-1.3,5.49,5.49,0,0,1,2.29-.47,5.8,5.8,0,0,1,3,.79,6.15,6.15,0,0,1,2.15,2.15,5.88,5.88,0,0,1,.8,3,5.69,5.69,0,0,1-.52,2.49,5.91,5.91,0,0,1-1.38,1.88,6.14,6.14,0,0,1-1.91,1.18A5.79,5.79,0,0,1,110.54,34Zm-.05-3.47a2.51,2.51,0,0,0,1.13-.28,2.46,2.46,0,0,0,1-.83A2.28,2.28,0,0,0,113,28a2.57,2.57,0,0,0-.32-1.29,2.37,2.37,0,0,0-.89-.86,2.63,2.63,0,0,0-1.3-.31,2.4,2.4,0,0,0-1.23.32,2.48,2.48,0,0,0-.87.89,2.37,2.37,0,0,0-.34,1.27,2.45,2.45,0,0,0,.38,1.39,2.22,2.22,0,0,0,1,.83A2.67,2.67,0,0,0,110.49,30.55Z"/><path class="cls-2" d="M129.24,33.82a4.62,4.62,0,0,1-2-.45,5.27,5.27,0,0,1-1.67-1.25,6.09,6.09,0,0,1-1.16-1.85,5.74,5.74,0,0,1-.43-2.22,5.43,5.43,0,0,1,.43-2.15,5.91,5.91,0,0,1,1.17-1.82,5.84,5.84,0,0,1,1.69-1.25,4.42,4.42,0,0,1,2-.46,4,4,0,0,1,1.94.45,4.16,4.16,0,0,1,1.41,1.23,6,6,0,0,1,.86,1.82,8.54,8.54,0,0,1,.32,2.16,8.31,8.31,0,0,1-.28,2.21,5.65,5.65,0,0,1-.85,1.84,4.15,4.15,0,0,1-1.43,1.27A3.81,3.81,0,0,1,129.24,33.82Zm.46-3.4a2,2,0,0,0,1.11-.31,2.42,2.42,0,0,0,.81-.84,2.23,2.23,0,0,0,.31-1.17,2.25,2.25,0,0,0-.3-1.16,2.36,2.36,0,0,0-.8-.83,2.13,2.13,0,0,0-1.15-.31,2.21,2.21,0,0,0-1.14.3,2.06,2.06,0,0,0-.81.82,2.48,2.48,0,0,0-.29,1.18,2.29,2.29,0,0,0,1.13,2A2.16,2.16,0,0,0,129.7,30.42Zm4,3.43a2.1,2.1,0,0,1-1.16-.25,1.19,1.19,0,0,1-.5-.79V18.88a5.73,5.73,0,0,1,.06-.84,1,1,0,0,1,.4-.66,2,2,0,0,1,1.17-.25,2.24,2.24,0,0,1,1.22.24,1,1,0,0,1,.44.63,3.91,3.91,0,0,1,.09.86V32.1a3.8,3.8,0,0,1-.08.84,1,1,0,0,1-.44.66A2.12,2.12,0,0,1,133.7,33.85Z"/><path class="cls-2" d="M143.45,34.06a6.52,6.52,0,0,1-2.77-.53,5.24,5.24,0,0,1-1.9-1.39,6,6,0,0,1-1.1-1.92,6.31,6.31,0,0,1-.37-2.12A5.86,5.86,0,0,1,138.1,25a5.55,5.55,0,0,1,2.17-2.1,6.52,6.52,0,0,1,3.19-.77,5.67,5.67,0,0,1,2.31.43,4.84,4.84,0,0,1,1.61,1.1,4.77,4.77,0,0,1,.94,1.47,4.19,4.19,0,0,1,.31,1.49,2.65,2.65,0,0,1-.61,1.89,2.12,2.12,0,0,1-1.56.62H141a1.59,1.59,0,0,0,.42,1,2.72,2.72,0,0,0,1,.65,3.31,3.31,0,0,0,1.22.23,6.8,6.8,0,0,0,.95-.06,3.82,3.82,0,0,0,.73-.16l.54-.21.45-.17a2.74,2.74,0,0,1,.39-.09.93.93,0,0,1,.62.19,2.79,2.79,0,0,1,.75,1.14,2.49,2.49,0,0,1,0,.46,1.23,1.23,0,0,1-.56,1,4.37,4.37,0,0,1-1.59.68A10.38,10.38,0,0,1,143.45,34.06ZM141,27.25h3.64a.92.92,0,0,0,.52-.13.54.54,0,0,0,.19-.49,1.21,1.21,0,0,0-.25-.72,1.64,1.64,0,0,0-.68-.49,2.59,2.59,0,0,0-1-.18,2.76,2.76,0,0,0-1.24.28,2.18,2.18,0,0,0-.87.74A1.75,1.75,0,0,0,141,27.25Z"/><path class="cls-2" d="M161,33.87a12,12,0,0,1-1.67-.1,3.35,3.35,0,0,1-1.25-.37,2.24,2.24,0,0,1-.82-.77,3.65,3.65,0,0,1-.49-1.26,10.06,10.06,0,0,1-.16-1.9V18.85a3.91,3.91,0,0,1,.09-.86,1.06,1.06,0,0,1,.45-.64,2.16,2.16,0,0,1,1.21-.25,2.07,2.07,0,0,1,1.18.25A1.08,1.08,0,0,1,160,18a3.76,3.76,0,0,1,.09.85V29.31a5,5,0,0,0,0,.61.78.78,0,0,0,.14.38.55.55,0,0,0,.29.19,2.09,2.09,0,0,0,.48,0,2.77,2.77,0,0,1,.56.07.86.86,0,0,1,.5.42,2.46,2.46,0,0,1,.2,1.15,2.65,2.65,0,0,1-.2,1.19.83.83,0,0,1-.5.44A2.88,2.88,0,0,1,161,33.87Z"/><path class="cls-2" d="M169.46,34.06a5.85,5.85,0,0,1-2.15-.43,6.45,6.45,0,0,1-1.94-1.21A5.86,5.86,0,0,1,164,30.55a5.55,5.55,0,0,1-.52-2.43,5.71,5.71,0,0,1,.47-2.31,6.09,6.09,0,0,1,1.31-1.9,6.31,6.31,0,0,1,1.89-1.3,5.93,5.93,0,0,1,5.29.33,5.91,5.91,0,0,1,2.15,2.15,5.75,5.75,0,0,1,.81,3,5.85,5.85,0,0,1-.52,2.5,6,6,0,0,1-3.29,3A5.82,5.82,0,0,1,169.46,34.06Zm0-3.48a2.59,2.59,0,0,0,1.12-.27,2.5,2.5,0,0,0,1-.83,2.36,2.36,0,0,0,.39-1.4,2.47,2.47,0,0,0-.32-1.29,2.21,2.21,0,0,0-.88-.86,2.75,2.75,0,0,0-1.3-.32,2.31,2.31,0,0,0-1.23.33A2.44,2.44,0,0,0,167,28.1a2.39,2.39,0,0,0,.38,1.39,2.36,2.36,0,0,0,.95.83A2.77,2.77,0,0,0,169.42,30.58Z"/><path class="cls-2" d="M181.38,34.06a6.75,6.75,0,0,1-1.36-.14,7.67,7.67,0,0,1-1.42-.4,5,5,0,0,1-1.15-.62,1.18,1.18,0,0,1-.51-.82,1.16,1.16,0,0,1,0-.49,2.21,2.21,0,0,1,.21-.55,3.35,3.35,0,0,1,.4-.61.78.78,0,0,1,.4-.32.92.92,0,0,1,.54,0,3,3,0,0,1,.74.24l.76.37a8,8,0,0,0,.8.34,2.5,2.5,0,0,0,.85.15,2.09,2.09,0,0,0,1-.19.6.6,0,0,0,.36-.54.56.56,0,0,0-.15-.41,1.29,1.29,0,0,0-.41-.28,5.51,5.51,0,0,0-.62-.22l-.75-.2a8.09,8.09,0,0,1-.83-.23,6.56,6.56,0,0,1-1.09-.41,3.78,3.78,0,0,1-1-.66,2.89,2.89,0,0,1-.67-1,3.58,3.58,0,0,1-.26-1.43,3.31,3.31,0,0,1,.52-1.89,3.26,3.26,0,0,1,1.53-1.16,6.73,6.73,0,0,1,2.49-.4,5.64,5.64,0,0,1,.82.05,4.57,4.57,0,0,1,.82.16,7.35,7.35,0,0,1,.79.27,8.23,8.23,0,0,1,.79.39,1,1,0,0,1,.71.88,2,2,0,0,1-.39,1.15,2.1,2.1,0,0,1-.53.54.81.81,0,0,1-.58.12,3.47,3.47,0,0,1-.79-.31c-.29-.14-.58-.28-.9-.4a2.56,2.56,0,0,0-.93-.18,1.93,1.93,0,0,0-.67.1.91.91,0,0,0-.41.28.61.61,0,0,0-.14.4.66.66,0,0,0,.17.47,1.64,1.64,0,0,0,.47.29,6.52,6.52,0,0,0,.69.2c.27.07.55.13.86.19s.83.18,1.27.31a4.4,4.4,0,0,1,1.2.56,2.79,2.79,0,0,1,.87,1,3.51,3.51,0,0,1,.33,1.64A3.29,3.29,0,0,1,185,33.1,5.9,5.9,0,0,1,181.38,34.06Z"/><path class="cls-2" d="M195.91,33.89a2.18,2.18,0,0,1-1.2-.26.93.93,0,0,1-.43-.64,4.5,4.5,0,0,1-.07-.85v-8a3.7,3.7,0,0,1,.09-.83,1,1,0,0,1,.44-.63,2.35,2.35,0,0,1,1.22-.24,2,2,0,0,1,1.25.33,1.37,1.37,0,0,1,.39,1.09l-.3.26a1.7,1.7,0,0,1,.27-.39,4.79,4.79,0,0,1,.6-.58,3.62,3.62,0,0,1,.86-.51,2.56,2.56,0,0,1,1.07-.22,3.9,3.9,0,0,1,1.37.22,3.42,3.42,0,0,1,1.11.64,4.21,4.21,0,0,1,.86,1.07,5.77,5.77,0,0,1,.78-.9,4.36,4.36,0,0,1,1.08-.73,3.19,3.19,0,0,1,1.4-.3,3.79,3.79,0,0,1,2.29.68A4.21,4.21,0,0,1,210.41,25a8.62,8.62,0,0,1,.48,3.06v4.11a3.86,3.86,0,0,1-.1.84,1,1,0,0,1-.45.64,2.12,2.12,0,0,1-1.2.25,2.19,2.19,0,0,1-1.22-.26,1,1,0,0,1-.44-.65,4.61,4.61,0,0,1-.07-.84V28a3.46,3.46,0,0,0-.17-1.18,1.62,1.62,0,0,0-.49-.76,1.26,1.26,0,0,0-.83-.27,1.43,1.43,0,0,0-1.45,1,3.57,3.57,0,0,0-.18,1.24v4.12a3.37,3.37,0,0,1-.11.86,1.09,1.09,0,0,1-.5.64,2.21,2.21,0,0,1-1.23.22,2,2,0,0,1-1.15-.26,1.06,1.06,0,0,1-.41-.67,4.47,4.47,0,0,1-.07-.82V28a3.92,3.92,0,0,0-.16-1.2,1.49,1.49,0,0,0-.48-.76,1.32,1.32,0,0,0-.85-.25,1.43,1.43,0,0,0-.94.3,1.6,1.6,0,0,0-.54.79,3.23,3.23,0,0,0-.18,1.11v4.14a4.65,4.65,0,0,1-.08.86,1,1,0,0,1-.45.63A2.33,2.33,0,0,1,195.91,33.89Z"/><path class="cls-2" d="M222.52,33.88a2.13,2.13,0,0,1-1.26-.3.8.8,0,0,1-.39-.73l.23-.4a2.6,2.6,0,0,1-.53.57,3.82,3.82,0,0,1-1,.59,3.88,3.88,0,0,1-1.53.27,4.69,4.69,0,0,1-2-.46,5.64,5.64,0,0,1-1.69-1.28,6.46,6.46,0,0,1-1.17-1.85,5.6,5.6,0,0,1-.44-2.19,5.44,5.44,0,0,1,.44-2.15,6,6,0,0,1,1.19-1.81A5.88,5.88,0,0,1,216,22.88a4.61,4.61,0,0,1,2-.46,3.88,3.88,0,0,1,1.45.25,4.09,4.09,0,0,1,1,.56,3.2,3.2,0,0,1,.61.62l-.21-.32a1,1,0,0,1,.41-.84,2.2,2.2,0,0,1,1.27-.29,2.12,2.12,0,0,1,1.19.26,1,1,0,0,1,.43.66,4.18,4.18,0,0,1,.08.88v7.93a4.63,4.63,0,0,1-.08.85,1,1,0,0,1-.44.66A2.27,2.27,0,0,1,222.52,33.88Zm-4-3.43a2,2,0,0,0,1.1-.31,2.28,2.28,0,0,0,.79-.84,2.42,2.42,0,0,0,.29-1.17,2.36,2.36,0,0,0-.29-1.19,2.25,2.25,0,0,0-.81-.81,2.16,2.16,0,0,0-1.12-.3,2.23,2.23,0,0,0-1.17.31,2.38,2.38,0,0,0-1.14,2,2.21,2.21,0,0,0,.31,1.14,2.36,2.36,0,0,0,2,1.14Z"/><path class="cls-2" d="M227.27,22.59h2.53L233,22.5a4.41,4.41,0,0,1,.83.08,1.06,1.06,0,0,1,.64.45,2.22,2.22,0,0,1,.25,1.22,2.14,2.14,0,0,1-.24,1.15,1,1,0,0,1-.63.47A3.3,3.3,0,0,1,233,26l-3-.08-2.79,0a1.18,1.18,0,0,1-.93-.43,2.29,2.29,0,0,1-.26-1.28A1.92,1.92,0,0,1,226.3,23,1.16,1.16,0,0,1,227.27,22.59Zm5.19,11.32a7.56,7.56,0,0,1-2-.25,3.27,3.27,0,0,1-1.39-.79,3.16,3.16,0,0,1-.8-1.34,6.29,6.29,0,0,1-.27-2V20.27a4.23,4.23,0,0,1,.08-.85,1,1,0,0,1,.45-.61,2.27,2.27,0,0,1,1.2-.24,2.13,2.13,0,0,1,1.19.25,1,1,0,0,1,.45.66,4.44,4.44,0,0,1,.08.84v9.13a2.62,2.62,0,0,0,.06.61.76.76,0,0,0,.17.35.64.64,0,0,0,.33.16,1.79,1.79,0,0,0,.5.05,4,4,0,0,1,.9.09,1,1,0,0,1,.61.42,2,2,0,0,1,.22,1.08A2.12,2.12,0,0,1,234,33.4a1,1,0,0,1-.65.44A4.61,4.61,0,0,1,232.46,33.91Z"/><path class="cls-2" d="M242.16,34.12a6.71,6.71,0,0,1-2.77-.53,5.41,5.41,0,0,1-1.89-1.39,6.17,6.17,0,0,1-1.11-1.92,6.56,6.56,0,0,1-.36-2.12,6,6,0,0,1,.78-3.06A5.62,5.62,0,0,1,239,23a6.52,6.52,0,0,1,3.19-.77,5.64,5.64,0,0,1,2.31.43,4.74,4.74,0,0,1,1.61,1.1,4.59,4.59,0,0,1,.94,1.47,3.94,3.94,0,0,1,.31,1.49,2.6,2.6,0,0,1-.61,1.89,2.08,2.08,0,0,1-1.55.62h-5.47a1.59,1.59,0,0,0,.42,1,2.59,2.59,0,0,0,1,.65,3.35,3.35,0,0,0,1.22.23,7,7,0,0,0,1-.06,3.88,3.88,0,0,0,.72-.16l.54-.21.45-.17a1.55,1.55,0,0,1,.39-.09.91.91,0,0,1,.62.19,1.9,1.9,0,0,1,.53.66,1.68,1.68,0,0,1,.22.48,1.88,1.88,0,0,1,.06.46,1.22,1.22,0,0,1-.57,1,4.24,4.24,0,0,1-1.58.68A10.47,10.47,0,0,1,242.16,34.12Zm-2.45-6.81h3.63a1,1,0,0,0,.53-.12.57.57,0,0,0,.18-.5,1.12,1.12,0,0,0-.25-.71,1.57,1.57,0,0,0-.68-.49,2.52,2.52,0,0,0-1-.18,2.66,2.66,0,0,0-1.24.28,2.14,2.14,0,0,0-.86.73A1.73,1.73,0,0,0,239.71,27.31Z"/><path class="cls-2" d="M251,33.92a2.25,2.25,0,0,1-1.2-.24,1,1,0,0,1-.44-.66,4.71,4.71,0,0,1-.08-.85v-8a3.87,3.87,0,0,1,.08-.86,1,1,0,0,1,.45-.63,3.19,3.19,0,0,1,2.38,0,1,1,0,0,1,.44.51,1.42,1.42,0,0,1,.1.49l-.28.14a2.36,2.36,0,0,1,.24-.33,3,3,0,0,1,.54-.51,3,3,0,0,1,.84-.45,3.33,3.33,0,0,1,1.14-.18l.56,0a4,4,0,0,1,.65.14,2.6,2.6,0,0,1,.61.28,1.64,1.64,0,0,1,.45.42,1.14,1.14,0,0,1,.17.63,2.8,2.8,0,0,1-.44,1.59,1.29,1.29,0,0,1-1.1.66,1.84,1.84,0,0,1-.56-.06.92.92,0,0,1-.26-.14,1.38,1.38,0,0,0-.24-.14,1.83,1.83,0,0,0-.51,0,2.27,2.27,0,0,0-.65.09,1.83,1.83,0,0,0-.58.28,1.47,1.47,0,0,0-.41.49,1.38,1.38,0,0,0-.15.65v5a3.86,3.86,0,0,1-.08.84.9.9,0,0,1-.45.63A2.43,2.43,0,0,1,251,33.92Z"/><path class="cls-2" d="M261.31,20.77a2.3,2.3,0,0,1-1.25-.25,1,1,0,0,1-.44-.67,4.14,4.14,0,0,1-.08-.87,4.09,4.09,0,0,1,.08-.89.93.93,0,0,1,.46-.64,2.43,2.43,0,0,1,1.25-.24,2.2,2.2,0,0,1,1.22.25,1,1,0,0,1,.45.67,4.91,4.91,0,0,1,.08.89,4.71,4.71,0,0,1-.08.85,1,1,0,0,1-.45.66A2.39,2.39,0,0,1,261.31,20.77Zm0,13.16a2.31,2.31,0,0,1-1.22-.24,1,1,0,0,1-.44-.65,5.71,5.71,0,0,1-.07-.84v-8a4.6,4.6,0,0,1,.08-.84,1,1,0,0,1,.45-.64,2.31,2.31,0,0,1,1.22-.24,2.09,2.09,0,0,1,1.18.25,1,1,0,0,1,.44.66,4.74,4.74,0,0,1,.08.86v8a3.86,3.86,0,0,1-.08.84,1,1,0,0,1-.43.63A2.38,2.38,0,0,1,261.3,33.93Z"/><path class="cls-2" d="M274.87,33.91a2.18,2.18,0,0,1-1.27-.3.84.84,0,0,1-.39-.73l.23-.4a2.37,2.37,0,0,1-.53.57,3.79,3.79,0,0,1-2.55.86,4.52,4.52,0,0,1-2-.46,5.37,5.37,0,0,1-1.69-1.28,6.46,6.46,0,0,1-1.17-1.85,5.6,5.6,0,0,1-.44-2.19,5.48,5.48,0,0,1,.44-2.15,6.28,6.28,0,0,1,1.18-1.81,5.92,5.92,0,0,1,1.7-1.26,4.41,4.41,0,0,1,2-.45,3.93,3.93,0,0,1,1.45.24,4.29,4.29,0,0,1,1,.56,3.51,3.51,0,0,1,.61.62l-.21-.32a1,1,0,0,1,.4-.84,2.27,2.27,0,0,1,1.28-.28,2.09,2.09,0,0,1,1.18.25,1,1,0,0,1,.44.67,4.77,4.77,0,0,1,.08.87v7.94a4,4,0,0,1-.08.85,1,1,0,0,1-.43.65A2.27,2.27,0,0,1,274.87,33.91Zm-4-3.43a2,2,0,0,0,1.1-.31,2.26,2.26,0,0,0,.78-.84,2.45,2.45,0,0,0,0-2.35,2.26,2.26,0,0,0-3.09-.81,2.47,2.47,0,0,0-.83.84,2.27,2.27,0,0,0-.31,1.19,2.12,2.12,0,0,0,.31,1.14,2.36,2.36,0,0,0,2,1.14Z"/><path class="cls-2" d="M283.31,33.94a14,14,0,0,1-1.68-.09,3.49,3.49,0,0,1-1.24-.37,2.35,2.35,0,0,1-.83-.77,3.62,3.62,0,0,1-.48-1.27,9.22,9.22,0,0,1-.16-1.9V18.92a4.4,4.4,0,0,1,.1-.85,1.08,1.08,0,0,1,.45-.65,2.21,2.21,0,0,1,1.2-.25,2.1,2.1,0,0,1,1.19.26,1,1,0,0,1,.45.64,3.76,3.76,0,0,1,.09.85V29.39a3.59,3.59,0,0,0,0,.61.74.74,0,0,0,.13.37.48.48,0,0,0,.29.19,2,2,0,0,0,.48.05,2.76,2.76,0,0,1,.57.06.85.85,0,0,1,.49.42,2.32,2.32,0,0,1,.21,1.15,2.57,2.57,0,0,1-.21,1.2.8.8,0,0,1-.49.43A2.38,2.38,0,0,1,283.31,33.94Z"/><path class="cls-2" d="M292,34.15a6.68,6.68,0,0,1-2.77-.53,5.36,5.36,0,0,1-1.9-1.39,6,6,0,0,1-1.1-1.92,6.31,6.31,0,0,1-.37-2.12,5.86,5.86,0,0,1,.79-3.06A5.55,5.55,0,0,1,288.8,23a6.52,6.52,0,0,1,3.19-.77,5.64,5.64,0,0,1,2.31.43,4.74,4.74,0,0,1,1.61,1.1,4.84,4.84,0,0,1,.94,1.46,4,4,0,0,1,.31,1.5,2.65,2.65,0,0,1-.61,1.89,2.11,2.11,0,0,1-1.55.62h-5.48a1.55,1.55,0,0,0,.43,1,2.59,2.59,0,0,0,.95.65,3.31,3.31,0,0,0,1.22.23,6.8,6.8,0,0,0,.95-.06,3.82,3.82,0,0,0,.73-.16l.54-.21.45-.17a1.55,1.55,0,0,1,.39-.09.93.93,0,0,1,.62.19,2,2,0,0,1,.53.66,1.68,1.68,0,0,1,.22.48,2.49,2.49,0,0,1,.05.46,1.21,1.21,0,0,1-.56,1,4.37,4.37,0,0,1-1.59.68A10.33,10.33,0,0,1,292,34.15Zm-2.46-6.81h3.64a1,1,0,0,0,.53-.13.57.57,0,0,0,.18-.5,1.12,1.12,0,0,0-.25-.71,1.64,1.64,0,0,0-.68-.49,2.55,2.55,0,0,0-1-.18,2.76,2.76,0,0,0-1.24.28,2.24,2.24,0,0,0-.87.73A1.81,1.81,0,0,0,289.52,27.34Z"/><path class="cls-2" d="M303.23,34.14a7.57,7.57,0,0,1-1.36-.14,8.18,8.18,0,0,1-1.41-.41,4.3,4.3,0,0,1-1.15-.62,1.16,1.16,0,0,1-.52-.81,1.21,1.21,0,0,1,0-.5,2.21,2.21,0,0,1,.21-.55,3.73,3.73,0,0,1,.4-.61.78.78,0,0,1,.4-.32.92.92,0,0,1,.54,0,3.54,3.54,0,0,1,.74.24l.76.37a8.08,8.08,0,0,0,.8.35,2.5,2.5,0,0,0,.85.15,2.08,2.08,0,0,0,1-.2.6.6,0,0,0,.36-.54.58.58,0,0,0-.15-.41,1.29,1.29,0,0,0-.41-.28c-.18-.07-.38-.15-.62-.22l-.75-.19c-.26-.06-.54-.14-.83-.23a7.64,7.64,0,0,1-1.09-.42,4,4,0,0,1-1-.65,3,3,0,0,1-.67-1,3.6,3.6,0,0,1-.26-1.44,3.42,3.42,0,0,1,.52-1.89,3.33,3.33,0,0,1,1.53-1.16,6.77,6.77,0,0,1,2.49-.4,7.86,7.86,0,0,1,.83.05,4.64,4.64,0,0,1,.81.16,7.58,7.58,0,0,1,.8.28,4.73,4.73,0,0,1,.78.39,1,1,0,0,1,.71.87,1.89,1.89,0,0,1-.39,1.15,1.82,1.82,0,0,1-.53.54.82.82,0,0,1-.58.13,4,4,0,0,1-.79-.31,9.38,9.38,0,0,0-.9-.41,2.56,2.56,0,0,0-.93-.18,1.83,1.83,0,0,0-.66.1.89.89,0,0,0-.42.28.63.63,0,0,0-.14.4.64.64,0,0,0,.17.47,1.4,1.4,0,0,0,.48.29,4.73,4.73,0,0,0,.69.21l.85.18a13,13,0,0,1,1.27.31,4.15,4.15,0,0,1,1.2.57,2.63,2.63,0,0,1,.87,1,3.35,3.35,0,0,1,.33,1.63,3.29,3.29,0,0,1-1.26,2.78A5.83,5.83,0,0,1,303.23,34.14Z"/><path class="cls-3" d="M84.66,34a6.43,6.43,0,0,1-3-.66,6.69,6.69,0,0,1-2.16-1.75,7.67,7.67,0,0,1-1.31-2.46,9.15,9.15,0,0,1-.43-2.8V19.49a4.57,4.57,0,0,1,.08-.86,1.08,1.08,0,0,1,.45-.66,2.22,2.22,0,0,1,1.22-.25,2.26,2.26,0,0,1,1.24.25,1,1,0,0,1,.45.66,4.06,4.06,0,0,1,.08.88v6.86a5.87,5.87,0,0,0,.33,1.95,3.55,3.55,0,0,0,1.09,1.57,3.08,3.08,0,0,0,2,.62A3.12,3.12,0,0,0,86.55,30a3.2,3.2,0,0,0,1.17-1.45,5.28,5.28,0,0,0,.42-2.19v-7a3,3,0,0,1,.1-.81,1,1,0,0,1,.46-.6,2.95,2.95,0,0,1,2.42,0,1.07,1.07,0,0,1,.44.67,4.65,4.65,0,0,1,.08.86v6.9a8.89,8.89,0,0,1-.45,2.81,7.41,7.41,0,0,1-1.34,2.43A6.45,6.45,0,0,1,84.66,34Z"/><path class="cls-3" d="M98.16,34a6.73,6.73,0,0,1-1.35-.14,7.26,7.26,0,0,1-1.42-.4,5,5,0,0,1-1.15-.62,1.19,1.19,0,0,1-.52-.82,1.17,1.17,0,0,1,0-.49,1.84,1.84,0,0,1,.2-.55,3.43,3.43,0,0,1,.41-.61.75.75,0,0,1,.4-.32.92.92,0,0,1,.54,0,3,3,0,0,1,.73.24l.76.37a5.77,5.77,0,0,0,.81.34,2.45,2.45,0,0,0,.85.15,2,2,0,0,0,1-.19.6.6,0,0,0,.36-.54.56.56,0,0,0-.15-.41,1.23,1.23,0,0,0-.42-.28,4.38,4.38,0,0,0-.62-.22l-.74-.2a7.45,7.45,0,0,1-.83-.23A6.56,6.56,0,0,1,96,28.7,3.47,3.47,0,0,1,95,28a3.06,3.06,0,0,1-.68-1,3.59,3.59,0,0,1-.25-1.43,3.24,3.24,0,0,1,.52-1.89,3.17,3.17,0,0,1,1.53-1.16,6.68,6.68,0,0,1,2.48-.4,7.69,7.69,0,0,1,.83,0,5.68,5.68,0,0,1,.82.17,7.35,7.35,0,0,1,.79.27,7.09,7.09,0,0,1,.78.39,1,1,0,0,1,.71.88,1.83,1.83,0,0,1-.39,1.15,2,2,0,0,1-.53.54.78.78,0,0,1-.57.12,3.3,3.3,0,0,1-.79-.31c-.29-.14-.59-.28-.9-.4a2.64,2.64,0,0,0-.93-.18,1.89,1.89,0,0,0-.67.1.91.91,0,0,0-.41.28.56.56,0,0,0-.14.4.62.62,0,0,0,.17.47,1.4,1.4,0,0,0,.47.29,6.52,6.52,0,0,0,.69.2c.26.07.55.13.85.19s.84.18,1.28.31a4.34,4.34,0,0,1,1.19.56,2.81,2.81,0,0,1,.88,1,3.51,3.51,0,0,1,.33,1.64,3.27,3.27,0,0,1-1.27,2.78A5.86,5.86,0,0,1,98.16,34Z"/><path class="cls-3" d="M110.54,34a5.61,5.61,0,0,1-2.15-.43,6.34,6.34,0,0,1-2-1.2,6.05,6.05,0,0,1-1.39-1.88,5.69,5.69,0,0,1-.51-2.43,5.58,5.58,0,0,1,.47-2.31,6.14,6.14,0,0,1,1.3-1.89,5.9,5.9,0,0,1,1.9-1.3,5.49,5.49,0,0,1,2.29-.47,5.8,5.8,0,0,1,3,.79,6.15,6.15,0,0,1,2.15,2.15,5.88,5.88,0,0,1,.8,3,5.69,5.69,0,0,1-.52,2.49,5.91,5.91,0,0,1-1.38,1.88,6.14,6.14,0,0,1-1.91,1.18A5.79,5.79,0,0,1,110.54,34Zm-.05-3.47a2.51,2.51,0,0,0,1.13-.28,2.46,2.46,0,0,0,1-.83A2.28,2.28,0,0,0,113,28a2.57,2.57,0,0,0-.32-1.29,2.37,2.37,0,0,0-.89-.86,2.63,2.63,0,0,0-1.3-.31,2.4,2.4,0,0,0-1.23.32,2.48,2.48,0,0,0-.87.89,2.37,2.37,0,0,0-.34,1.27,2.45,2.45,0,0,0,.38,1.39,2.22,2.22,0,0,0,1,.83A2.67,2.67,0,0,0,110.49,30.55Z"/><path class="cls-3" d="M129.24,33.82a4.62,4.62,0,0,1-2-.45,5.27,5.27,0,0,1-1.67-1.25,6.09,6.09,0,0,1-1.16-1.85,5.74,5.74,0,0,1-.43-2.22,5.43,5.43,0,0,1,.43-2.15,5.91,5.91,0,0,1,1.17-1.82,5.84,5.84,0,0,1,1.69-1.25,4.42,4.42,0,0,1,2-.46,4,4,0,0,1,1.94.45,4.16,4.16,0,0,1,1.41,1.23,6,6,0,0,1,.86,1.82,8.54,8.54,0,0,1,.32,2.16,8.31,8.31,0,0,1-.28,2.21,5.65,5.65,0,0,1-.85,1.84,4.15,4.15,0,0,1-1.43,1.27A3.81,3.81,0,0,1,129.24,33.82Zm.46-3.4a2,2,0,0,0,1.11-.31,2.42,2.42,0,0,0,.81-.84,2.23,2.23,0,0,0,.31-1.17,2.25,2.25,0,0,0-.3-1.16,2.36,2.36,0,0,0-.8-.83,2.13,2.13,0,0,0-1.15-.31,2.21,2.21,0,0,0-1.14.3,2.06,2.06,0,0,0-.81.82,2.48,2.48,0,0,0-.29,1.18,2.29,2.29,0,0,0,1.13,2A2.16,2.16,0,0,0,129.7,30.42Zm4,3.43a2.1,2.1,0,0,1-1.16-.25,1.19,1.19,0,0,1-.5-.79V18.88a5.73,5.73,0,0,1,.06-.84,1,1,0,0,1,.4-.66,2,2,0,0,1,1.17-.25,2.24,2.24,0,0,1,1.22.24,1,1,0,0,1,.44.63,3.91,3.91,0,0,1,.09.86V32.1a3.8,3.8,0,0,1-.08.84,1,1,0,0,1-.44.66A2.12,2.12,0,0,1,133.7,33.85Z"/><path class="cls-3" d="M143.45,34.06a6.52,6.52,0,0,1-2.77-.53,5.24,5.24,0,0,1-1.9-1.39,6,6,0,0,1-1.1-1.92,6.31,6.31,0,0,1-.37-2.12A5.86,5.86,0,0,1,138.1,25a5.55,5.55,0,0,1,2.17-2.1,6.52,6.52,0,0,1,3.19-.77,5.67,5.67,0,0,1,2.31.43,4.84,4.84,0,0,1,1.61,1.1,4.77,4.77,0,0,1,.94,1.47,4.19,4.19,0,0,1,.31,1.49,2.65,2.65,0,0,1-.61,1.89,2.12,2.12,0,0,1-1.56.62H141a1.59,1.59,0,0,0,.42,1,2.72,2.72,0,0,0,1,.65,3.31,3.31,0,0,0,1.22.23,6.8,6.8,0,0,0,.95-.06,3.82,3.82,0,0,0,.73-.16l.54-.21.45-.17a2.74,2.74,0,0,1,.39-.09.93.93,0,0,1,.62.19,2.79,2.79,0,0,1,.75,1.14,2.49,2.49,0,0,1,0,.46,1.23,1.23,0,0,1-.56,1,4.37,4.37,0,0,1-1.59.68A10.38,10.38,0,0,1,143.45,34.06ZM141,27.25h3.64a.92.92,0,0,0,.52-.13.54.54,0,0,0,.19-.49,1.21,1.21,0,0,0-.25-.72,1.64,1.64,0,0,0-.68-.49,2.59,2.59,0,0,0-1-.18,2.76,2.76,0,0,0-1.24.28,2.18,2.18,0,0,0-.87.74A1.75,1.75,0,0,0,141,27.25Z"/><path class="cls-3" d="M161,33.87a12,12,0,0,1-1.67-.1,3.35,3.35,0,0,1-1.25-.37,2.24,2.24,0,0,1-.82-.77,3.65,3.65,0,0,1-.49-1.26,10.06,10.06,0,0,1-.16-1.9V18.85a3.91,3.91,0,0,1,.09-.86,1.06,1.06,0,0,1,.45-.64,2.16,2.16,0,0,1,1.21-.25,2.07,2.07,0,0,1,1.18.25A1.08,1.08,0,0,1,160,18a3.76,3.76,0,0,1,.09.85V29.31a5,5,0,0,0,0,.61.78.78,0,0,0,.14.38.55.55,0,0,0,.29.19,2.09,2.09,0,0,0,.48,0,2.77,2.77,0,0,1,.56.07.86.86,0,0,1,.5.42,2.46,2.46,0,0,1,.2,1.15,2.65,2.65,0,0,1-.2,1.19.83.83,0,0,1-.5.44A2.88,2.88,0,0,1,161,33.87Z"/><path class="cls-3" d="M169.46,34.06a5.85,5.85,0,0,1-2.15-.43,6.45,6.45,0,0,1-1.94-1.21A5.86,5.86,0,0,1,164,30.55a5.55,5.55,0,0,1-.52-2.43,5.71,5.71,0,0,1,.47-2.31,6.09,6.09,0,0,1,1.31-1.9,6.31,6.31,0,0,1,1.89-1.3,5.93,5.93,0,0,1,5.29.33,5.91,5.91,0,0,1,2.15,2.15,5.75,5.75,0,0,1,.81,3,5.85,5.85,0,0,1-.52,2.5,6,6,0,0,1-3.29,3A5.82,5.82,0,0,1,169.46,34.06Zm0-3.48a2.59,2.59,0,0,0,1.12-.27,2.5,2.5,0,0,0,1-.83,2.36,2.36,0,0,0,.39-1.4,2.47,2.47,0,0,0-.32-1.29,2.21,2.21,0,0,0-.88-.86,2.75,2.75,0,0,0-1.3-.32,2.31,2.31,0,0,0-1.23.33A2.44,2.44,0,0,0,167,28.1a2.39,2.39,0,0,0,.38,1.39,2.36,2.36,0,0,0,.95.83A2.77,2.77,0,0,0,169.42,30.58Z"/><path class="cls-3" d="M181.38,34.06a6.75,6.75,0,0,1-1.36-.14,7.67,7.67,0,0,1-1.42-.4,5,5,0,0,1-1.15-.62,1.18,1.18,0,0,1-.51-.82,1.16,1.16,0,0,1,0-.49,2.21,2.21,0,0,1,.21-.55,3.35,3.35,0,0,1,.4-.61.78.78,0,0,1,.4-.32.92.92,0,0,1,.54,0,3,3,0,0,1,.74.24l.76.37a8,8,0,0,0,.8.34,2.5,2.5,0,0,0,.85.15,2.09,2.09,0,0,0,1-.19.6.6,0,0,0,.36-.54.56.56,0,0,0-.15-.41,1.29,1.29,0,0,0-.41-.28,5.51,5.51,0,0,0-.62-.22l-.75-.2a8.09,8.09,0,0,1-.83-.23,6.56,6.56,0,0,1-1.09-.41,3.78,3.78,0,0,1-1-.66,2.89,2.89,0,0,1-.67-1,3.58,3.58,0,0,1-.26-1.43,3.31,3.31,0,0,1,.52-1.89,3.26,3.26,0,0,1,1.53-1.16,6.73,6.73,0,0,1,2.49-.4,5.64,5.64,0,0,1,.82.05,4.57,4.57,0,0,1,.82.16,7.35,7.35,0,0,1,.79.27,8.23,8.23,0,0,1,.79.39,1,1,0,0,1,.71.88,2,2,0,0,1-.39,1.15,2.1,2.1,0,0,1-.53.54.81.81,0,0,1-.58.12,3.47,3.47,0,0,1-.79-.31c-.29-.14-.58-.28-.9-.4a2.56,2.56,0,0,0-.93-.18,1.93,1.93,0,0,0-.67.1.91.91,0,0,0-.41.28.61.61,0,0,0-.14.4.66.66,0,0,0,.17.47,1.64,1.64,0,0,0,.47.29,6.52,6.52,0,0,0,.69.2c.27.07.55.13.86.19s.83.18,1.27.31a4.4,4.4,0,0,1,1.2.56,2.79,2.79,0,0,1,.87,1,3.51,3.51,0,0,1,.33,1.64A3.29,3.29,0,0,1,185,33.1,5.9,5.9,0,0,1,181.38,34.06Z"/><path class="cls-3" d="M195.91,33.89a2.18,2.18,0,0,1-1.2-.26.93.93,0,0,1-.43-.64,4.5,4.5,0,0,1-.07-.85v-8a3.7,3.7,0,0,1,.09-.83,1,1,0,0,1,.44-.63,2.35,2.35,0,0,1,1.22-.24,2,2,0,0,1,1.25.33,1.37,1.37,0,0,1,.39,1.09l-.3.26a1.7,1.7,0,0,1,.27-.39,4.79,4.79,0,0,1,.6-.58,3.62,3.62,0,0,1,.86-.51,2.56,2.56,0,0,1,1.07-.22,3.9,3.9,0,0,1,1.37.22,3.42,3.42,0,0,1,1.11.64,4.21,4.21,0,0,1,.86,1.07,5.77,5.77,0,0,1,.78-.9,4.36,4.36,0,0,1,1.08-.73,3.19,3.19,0,0,1,1.4-.3,3.79,3.79,0,0,1,2.29.68A4.21,4.21,0,0,1,210.41,25a8.62,8.62,0,0,1,.48,3.06v4.11a3.86,3.86,0,0,1-.1.84,1,1,0,0,1-.45.64,2.12,2.12,0,0,1-1.2.25,2.19,2.19,0,0,1-1.22-.26,1,1,0,0,1-.44-.65,4.61,4.61,0,0,1-.07-.84V28a3.46,3.46,0,0,0-.17-1.18,1.62,1.62,0,0,0-.49-.76,1.26,1.26,0,0,0-.83-.27,1.43,1.43,0,0,0-1.45,1,3.57,3.57,0,0,0-.18,1.24v4.12a3.37,3.37,0,0,1-.11.86,1.09,1.09,0,0,1-.5.64,2.21,2.21,0,0,1-1.23.22,2,2,0,0,1-1.15-.26,1.06,1.06,0,0,1-.41-.67,4.47,4.47,0,0,1-.07-.82V28a3.92,3.92,0,0,0-.16-1.2,1.49,1.49,0,0,0-.48-.76,1.32,1.32,0,0,0-.85-.25,1.43,1.43,0,0,0-.94.3,1.6,1.6,0,0,0-.54.79,3.23,3.23,0,0,0-.18,1.11v4.14a4.65,4.65,0,0,1-.08.86,1,1,0,0,1-.45.63A2.33,2.33,0,0,1,195.91,33.89Z"/><path class="cls-3" d="M222.52,33.88a2.13,2.13,0,0,1-1.26-.3.8.8,0,0,1-.39-.73l.23-.4a2.6,2.6,0,0,1-.53.57,3.82,3.82,0,0,1-1,.59,3.88,3.88,0,0,1-1.53.27,4.69,4.69,0,0,1-2-.46,5.64,5.64,0,0,1-1.69-1.28,6.46,6.46,0,0,1-1.17-1.85,5.6,5.6,0,0,1-.44-2.19,5.44,5.44,0,0,1,.44-2.15,6,6,0,0,1,1.19-1.81A5.88,5.88,0,0,1,216,22.88a4.61,4.61,0,0,1,2-.46,3.88,3.88,0,0,1,1.45.25,4.09,4.09,0,0,1,1,.56,3.2,3.2,0,0,1,.61.62l-.21-.32a1,1,0,0,1,.41-.84,2.2,2.2,0,0,1,1.27-.29,2.12,2.12,0,0,1,1.19.26,1,1,0,0,1,.43.66,4.18,4.18,0,0,1,.08.88v7.93a4.63,4.63,0,0,1-.08.85,1,1,0,0,1-.44.66A2.27,2.27,0,0,1,222.52,33.88Zm-4-3.43a2,2,0,0,0,1.1-.31,2.28,2.28,0,0,0,.79-.84,2.42,2.42,0,0,0,.29-1.17,2.36,2.36,0,0,0-.29-1.19,2.25,2.25,0,0,0-.81-.81,2.16,2.16,0,0,0-1.12-.3,2.23,2.23,0,0,0-1.17.31,2.38,2.38,0,0,0-1.14,2,2.21,2.21,0,0,0,.31,1.14,2.36,2.36,0,0,0,2,1.14Z"/><path class="cls-3" d="M227.27,22.59h2.53L233,22.5a4.41,4.41,0,0,1,.83.08,1.06,1.06,0,0,1,.64.45,2.22,2.22,0,0,1,.25,1.22,2.14,2.14,0,0,1-.24,1.15,1,1,0,0,1-.63.47A3.3,3.3,0,0,1,233,26l-3-.08-2.79,0a1.18,1.18,0,0,1-.93-.43,2.29,2.29,0,0,1-.26-1.28A1.92,1.92,0,0,1,226.3,23,1.16,1.16,0,0,1,227.27,22.59Zm5.19,11.32a7.56,7.56,0,0,1-2-.25,3.27,3.27,0,0,1-1.39-.79,3.16,3.16,0,0,1-.8-1.34,6.29,6.29,0,0,1-.27-2V20.27a4.23,4.23,0,0,1,.08-.85,1,1,0,0,1,.45-.61,2.27,2.27,0,0,1,1.2-.24,2.13,2.13,0,0,1,1.19.25,1,1,0,0,1,.45.66,4.44,4.44,0,0,1,.08.84v9.13a2.62,2.62,0,0,0,.06.61.76.76,0,0,0,.17.35.64.64,0,0,0,.33.16,1.79,1.79,0,0,0,.5.05,4,4,0,0,1,.9.09,1,1,0,0,1,.61.42,2,2,0,0,1,.22,1.08A2.12,2.12,0,0,1,234,33.4a1,1,0,0,1-.65.44A4.61,4.61,0,0,1,232.46,33.91Z"/><path class="cls-3" d="M242.16,34.12a6.71,6.71,0,0,1-2.77-.53,5.41,5.41,0,0,1-1.89-1.39,6.17,6.17,0,0,1-1.11-1.92,6.56,6.56,0,0,1-.36-2.12,6,6,0,0,1,.78-3.06A5.62,5.62,0,0,1,239,23a6.52,6.52,0,0,1,3.19-.77,5.64,5.64,0,0,1,2.31.43,4.74,4.74,0,0,1,1.61,1.1,4.59,4.59,0,0,1,.94,1.47,3.94,3.94,0,0,1,.31,1.49,2.6,2.6,0,0,1-.61,1.89,2.08,2.08,0,0,1-1.55.62h-5.47a1.59,1.59,0,0,0,.42,1,2.59,2.59,0,0,0,1,.65,3.35,3.35,0,0,0,1.22.23,7,7,0,0,0,1-.06,3.88,3.88,0,0,0,.72-.16l.54-.21.45-.17a1.55,1.55,0,0,1,.39-.09.91.91,0,0,1,.62.19,1.9,1.9,0,0,1,.53.66,1.68,1.68,0,0,1,.22.48,1.88,1.88,0,0,1,.06.46,1.22,1.22,0,0,1-.57,1,4.24,4.24,0,0,1-1.58.68A10.47,10.47,0,0,1,242.16,34.12Zm-2.45-6.81h3.63a1,1,0,0,0,.53-.12.57.57,0,0,0,.18-.5,1.12,1.12,0,0,0-.25-.71,1.57,1.57,0,0,0-.68-.49,2.52,2.52,0,0,0-1-.18,2.66,2.66,0,0,0-1.24.28,2.14,2.14,0,0,0-.86.73A1.73,1.73,0,0,0,239.71,27.31Z"/><path class="cls-3" d="M251,33.92a2.25,2.25,0,0,1-1.2-.24,1,1,0,0,1-.44-.66,4.71,4.71,0,0,1-.08-.85v-8a3.87,3.87,0,0,1,.08-.86,1,1,0,0,1,.45-.63,3.19,3.19,0,0,1,2.38,0,1,1,0,0,1,.44.51,1.42,1.42,0,0,1,.1.49l-.28.14a2.36,2.36,0,0,1,.24-.33,3,3,0,0,1,.54-.51,3,3,0,0,1,.84-.45,3.33,3.33,0,0,1,1.14-.18l.56,0a4,4,0,0,1,.65.14,2.6,2.6,0,0,1,.61.28,1.64,1.64,0,0,1,.45.42,1.14,1.14,0,0,1,.17.63,2.8,2.8,0,0,1-.44,1.59,1.29,1.29,0,0,1-1.1.66,1.84,1.84,0,0,1-.56-.06.92.92,0,0,1-.26-.14,1.38,1.38,0,0,0-.24-.14,1.83,1.83,0,0,0-.51,0,2.27,2.27,0,0,0-.65.09,1.83,1.83,0,0,0-.58.28,1.47,1.47,0,0,0-.41.49,1.38,1.38,0,0,0-.15.65v5a3.86,3.86,0,0,1-.08.84.9.9,0,0,1-.45.63A2.43,2.43,0,0,1,251,33.92Z"/><path class="cls-3" d="M261.31,20.77a2.3,2.3,0,0,1-1.25-.25,1,1,0,0,1-.44-.67,4.14,4.14,0,0,1-.08-.87,4.09,4.09,0,0,1,.08-.89.93.93,0,0,1,.46-.64,2.43,2.43,0,0,1,1.25-.24,2.2,2.2,0,0,1,1.22.25,1,1,0,0,1,.45.67,4.91,4.91,0,0,1,.08.89,4.71,4.71,0,0,1-.08.85,1,1,0,0,1-.45.66A2.39,2.39,0,0,1,261.31,20.77Zm0,13.16a2.31,2.31,0,0,1-1.22-.24,1,1,0,0,1-.44-.65,5.71,5.71,0,0,1-.07-.84v-8a4.6,4.6,0,0,1,.08-.84,1,1,0,0,1,.45-.64,2.31,2.31,0,0,1,1.22-.24,2.09,2.09,0,0,1,1.18.25,1,1,0,0,1,.44.66,4.74,4.74,0,0,1,.08.86v8a3.86,3.86,0,0,1-.08.84,1,1,0,0,1-.43.63A2.38,2.38,0,0,1,261.3,33.93Z"/><path class="cls-3" d="M274.87,33.91a2.18,2.18,0,0,1-1.27-.3.84.84,0,0,1-.39-.73l.23-.4a2.37,2.37,0,0,1-.53.57,3.79,3.79,0,0,1-2.55.86,4.52,4.52,0,0,1-2-.46,5.37,5.37,0,0,1-1.69-1.28,6.46,6.46,0,0,1-1.17-1.85,5.6,5.6,0,0,1-.44-2.19,5.48,5.48,0,0,1,.44-2.15,6.28,6.28,0,0,1,1.18-1.81,5.92,5.92,0,0,1,1.7-1.26,4.41,4.41,0,0,1,2-.45,3.93,3.93,0,0,1,1.45.24,4.29,4.29,0,0,1,1,.56,3.51,3.51,0,0,1,.61.62l-.21-.32a1,1,0,0,1,.4-.84,2.27,2.27,0,0,1,1.28-.28,2.09,2.09,0,0,1,1.18.25,1,1,0,0,1,.44.67,4.77,4.77,0,0,1,.08.87v7.94a4,4,0,0,1-.08.85,1,1,0,0,1-.43.65A2.27,2.27,0,0,1,274.87,33.91Zm-4-3.43a2,2,0,0,0,1.1-.31,2.26,2.26,0,0,0,.78-.84,2.45,2.45,0,0,0,0-2.35,2.26,2.26,0,0,0-3.09-.81,2.47,2.47,0,0,0-.83.84,2.27,2.27,0,0,0-.31,1.19,2.12,2.12,0,0,0,.31,1.14,2.36,2.36,0,0,0,2,1.14Z"/><path class="cls-3" d="M283.31,33.94a14,14,0,0,1-1.68-.09,3.49,3.49,0,0,1-1.24-.37,2.35,2.35,0,0,1-.83-.77,3.62,3.62,0,0,1-.48-1.27,9.22,9.22,0,0,1-.16-1.9V18.92a4.4,4.4,0,0,1,.1-.85,1.08,1.08,0,0,1,.45-.65,2.21,2.21,0,0,1,1.2-.25,2.1,2.1,0,0,1,1.19.26,1,1,0,0,1,.45.64,3.76,3.76,0,0,1,.09.85V29.39a3.59,3.59,0,0,0,0,.61.74.74,0,0,0,.13.37.48.48,0,0,0,.29.19,2,2,0,0,0,.48.05,2.76,2.76,0,0,1,.57.06.85.85,0,0,1,.49.42,2.32,2.32,0,0,1,.21,1.15,2.57,2.57,0,0,1-.21,1.2.8.8,0,0,1-.49.43A2.38,2.38,0,0,1,283.31,33.94Z"/><path class="cls-3" d="M292,34.15a6.68,6.68,0,0,1-2.77-.53,5.36,5.36,0,0,1-1.9-1.39,6,6,0,0,1-1.1-1.92,6.31,6.31,0,0,1-.37-2.12,5.86,5.86,0,0,1,.79-3.06A5.55,5.55,0,0,1,288.8,23a6.52,6.52,0,0,1,3.19-.77,5.64,5.64,0,0,1,2.31.43,4.74,4.74,0,0,1,1.61,1.1,4.84,4.84,0,0,1,.94,1.46,4,4,0,0,1,.31,1.5,2.65,2.65,0,0,1-.61,1.89,2.11,2.11,0,0,1-1.55.62h-5.48a1.55,1.55,0,0,0,.43,1,2.59,2.59,0,0,0,.95.65,3.31,3.31,0,0,0,1.22.23,6.8,6.8,0,0,0,.95-.06,3.82,3.82,0,0,0,.73-.16l.54-.21.45-.17a1.55,1.55,0,0,1,.39-.09.93.93,0,0,1,.62.19,2,2,0,0,1,.53.66,1.68,1.68,0,0,1,.22.48,2.49,2.49,0,0,1,.05.46,1.21,1.21,0,0,1-.56,1,4.37,4.37,0,0,1-1.59.68A10.33,10.33,0,0,1,292,34.15Zm-2.46-6.81h3.64a1,1,0,0,0,.53-.13.57.57,0,0,0,.18-.5,1.12,1.12,0,0,0-.25-.71,1.64,1.64,0,0,0-.68-.49,2.55,2.55,0,0,0-1-.18,2.76,2.76,0,0,0-1.24.28,2.24,2.24,0,0,0-.87.73A1.81,1.81,0,0,0,289.52,27.34Z"/><path class="cls-3" d="M303.23,34.14a7.57,7.57,0,0,1-1.36-.14,8.18,8.18,0,0,1-1.41-.41,4.3,4.3,0,0,1-1.15-.62,1.16,1.16,0,0,1-.52-.81,1.21,1.21,0,0,1,0-.5,2.21,2.21,0,0,1,.21-.55,3.73,3.73,0,0,1,.4-.61.78.78,0,0,1,.4-.32.92.92,0,0,1,.54,0,3.54,3.54,0,0,1,.74.24l.76.37a8.08,8.08,0,0,0,.8.35,2.5,2.5,0,0,0,.85.15,2.08,2.08,0,0,0,1-.2.6.6,0,0,0,.36-.54.58.58,0,0,0-.15-.41,1.29,1.29,0,0,0-.41-.28c-.18-.07-.38-.15-.62-.22l-.75-.19c-.26-.06-.54-.14-.83-.23a7.64,7.64,0,0,1-1.09-.42,4,4,0,0,1-1-.65,3,3,0,0,1-.67-1,3.6,3.6,0,0,1-.26-1.44,3.42,3.42,0,0,1,.52-1.89,3.33,3.33,0,0,1,1.53-1.16,6.77,6.77,0,0,1,2.49-.4,7.86,7.86,0,0,1,.83.05,4.64,4.64,0,0,1,.81.16,7.58,7.58,0,0,1,.8.28,4.73,4.73,0,0,1,.78.39,1,1,0,0,1,.71.87,1.89,1.89,0,0,1-.39,1.15,1.82,1.82,0,0,1-.53.54.82.82,0,0,1-.58.13,4,4,0,0,1-.79-.31,9.38,9.38,0,0,0-.9-.41,2.56,2.56,0,0,0-.93-.18,1.83,1.83,0,0,0-.66.1.89.89,0,0,0-.42.28.63.63,0,0,0-.14.4.64.64,0,0,0,.17.47,1.4,1.4,0,0,0,.48.29,4.73,4.73,0,0,0,.69.21l.85.18a13,13,0,0,1,1.27.31,4.15,4.15,0,0,1,1.2.57,2.63,2.63,0,0,1,.87,1,3.35,3.35,0,0,1,.33,1.63,3.29,3.29,0,0,1-1.26,2.78A5.83,5.83,0,0,1,303.23,34.14Z"/><path class="cls-2" d="M84.66,34a6.43,6.43,0,0,1-3-.66,6.69,6.69,0,0,1-2.16-1.75,7.67,7.67,0,0,1-1.31-2.46,9.15,9.15,0,0,1-.43-2.8V19.49a4.57,4.57,0,0,1,.08-.86,1.08,1.08,0,0,1,.45-.66,2.22,2.22,0,0,1,1.22-.25,2.26,2.26,0,0,1,1.24.25,1,1,0,0,1,.45.66,4.06,4.06,0,0,1,.08.88v6.86a5.87,5.87,0,0,0,.33,1.95,3.55,3.55,0,0,0,1.09,1.57,3.08,3.08,0,0,0,2,.62A3.12,3.12,0,0,0,86.55,30a3.2,3.2,0,0,0,1.17-1.45,5.28,5.28,0,0,0,.42-2.19v-7a3,3,0,0,1,.1-.81,1,1,0,0,1,.46-.6,2.95,2.95,0,0,1,2.42,0,1.07,1.07,0,0,1,.44.67,4.65,4.65,0,0,1,.08.86v6.9a8.89,8.89,0,0,1-.45,2.81,7.41,7.41,0,0,1-1.34,2.43A6.45,6.45,0,0,1,84.66,34Z"/><path class="cls-2" d="M98.16,34a6.73,6.73,0,0,1-1.35-.14,7.26,7.26,0,0,1-1.42-.4,5,5,0,0,1-1.15-.62,1.19,1.19,0,0,1-.52-.82,1.17,1.17,0,0,1,0-.49,1.84,1.84,0,0,1,.2-.55,3.43,3.43,0,0,1,.41-.61.75.75,0,0,1,.4-.32.92.92,0,0,1,.54,0,3,3,0,0,1,.73.24l.76.37a5.77,5.77,0,0,0,.81.34,2.45,2.45,0,0,0,.85.15,2,2,0,0,0,1-.19.6.6,0,0,0,.36-.54.56.56,0,0,0-.15-.41,1.23,1.23,0,0,0-.42-.28,4.38,4.38,0,0,0-.62-.22l-.74-.2a7.45,7.45,0,0,1-.83-.23A6.56,6.56,0,0,1,96,28.7,3.47,3.47,0,0,1,95,28a3.06,3.06,0,0,1-.68-1,3.59,3.59,0,0,1-.25-1.43,3.24,3.24,0,0,1,.52-1.89,3.17,3.17,0,0,1,1.53-1.16,6.68,6.68,0,0,1,2.48-.4,7.69,7.69,0,0,1,.83,0,5.68,5.68,0,0,1,.82.17,7.35,7.35,0,0,1,.79.27,7.09,7.09,0,0,1,.78.39,1,1,0,0,1,.71.88,1.83,1.83,0,0,1-.39,1.15,2,2,0,0,1-.53.54.78.78,0,0,1-.57.12,3.3,3.3,0,0,1-.79-.31c-.29-.14-.59-.28-.9-.4a2.64,2.64,0,0,0-.93-.18,1.89,1.89,0,0,0-.67.1.91.91,0,0,0-.41.28.56.56,0,0,0-.14.4.62.62,0,0,0,.17.47,1.4,1.4,0,0,0,.47.29,6.52,6.52,0,0,0,.69.2c.26.07.55.13.85.19s.84.18,1.28.31a4.34,4.34,0,0,1,1.19.56,2.81,2.81,0,0,1,.88,1,3.51,3.51,0,0,1,.33,1.64,3.27,3.27,0,0,1-1.27,2.78A5.86,5.86,0,0,1,98.16,34Z"/><path class="cls-2" d="M110.54,34a5.61,5.61,0,0,1-2.15-.43,6.34,6.34,0,0,1-2-1.2,6.05,6.05,0,0,1-1.39-1.88,5.69,5.69,0,0,1-.51-2.43,5.58,5.58,0,0,1,.47-2.31,6.14,6.14,0,0,1,1.3-1.89,5.9,5.9,0,0,1,1.9-1.3,5.49,5.49,0,0,1,2.29-.47,5.8,5.8,0,0,1,3,.79,6.15,6.15,0,0,1,2.15,2.15,5.88,5.88,0,0,1,.8,3,5.69,5.69,0,0,1-.52,2.49,5.91,5.91,0,0,1-1.38,1.88,6.14,6.14,0,0,1-1.91,1.18A5.79,5.79,0,0,1,110.54,34Zm-.05-3.47a2.51,2.51,0,0,0,1.13-.28,2.46,2.46,0,0,0,1-.83A2.28,2.28,0,0,0,113,28a2.57,2.57,0,0,0-.32-1.29,2.37,2.37,0,0,0-.89-.86,2.63,2.63,0,0,0-1.3-.31,2.4,2.4,0,0,0-1.23.32,2.48,2.48,0,0,0-.87.89,2.37,2.37,0,0,0-.34,1.27,2.45,2.45,0,0,0,.38,1.39,2.22,2.22,0,0,0,1,.83A2.67,2.67,0,0,0,110.49,30.55Z"/><path class="cls-2" d="M129.24,33.82a4.62,4.62,0,0,1-2-.45,5.27,5.27,0,0,1-1.67-1.25,6.09,6.09,0,0,1-1.16-1.85,5.74,5.74,0,0,1-.43-2.22,5.43,5.43,0,0,1,.43-2.15,5.91,5.91,0,0,1,1.17-1.82,5.84,5.84,0,0,1,1.69-1.25,4.42,4.42,0,0,1,2-.46,4,4,0,0,1,1.94.45,4.16,4.16,0,0,1,1.41,1.23,6,6,0,0,1,.86,1.82,8.54,8.54,0,0,1,.32,2.16,8.31,8.31,0,0,1-.28,2.21,5.65,5.65,0,0,1-.85,1.84,4.15,4.15,0,0,1-1.43,1.27A3.81,3.81,0,0,1,129.24,33.82Zm.46-3.4a2,2,0,0,0,1.11-.31,2.42,2.42,0,0,0,.81-.84,2.23,2.23,0,0,0,.31-1.17,2.25,2.25,0,0,0-.3-1.16,2.36,2.36,0,0,0-.8-.83,2.13,2.13,0,0,0-1.15-.31,2.21,2.21,0,0,0-1.14.3,2.06,2.06,0,0,0-.81.82,2.48,2.48,0,0,0-.29,1.18,2.29,2.29,0,0,0,1.13,2A2.16,2.16,0,0,0,129.7,30.42Zm4,3.43a2.1,2.1,0,0,1-1.16-.25,1.19,1.19,0,0,1-.5-.79V18.88a5.73,5.73,0,0,1,.06-.84,1,1,0,0,1,.4-.66,2,2,0,0,1,1.17-.25,2.24,2.24,0,0,1,1.22.24,1,1,0,0,1,.44.63,3.91,3.91,0,0,1,.09.86V32.1a3.8,3.8,0,0,1-.08.84,1,1,0,0,1-.44.66A2.12,2.12,0,0,1,133.7,33.85Z"/><path class="cls-2" d="M143.45,34.06a6.52,6.52,0,0,1-2.77-.53,5.24,5.24,0,0,1-1.9-1.39,6,6,0,0,1-1.1-1.92,6.31,6.31,0,0,1-.37-2.12A5.86,5.86,0,0,1,138.1,25a5.55,5.55,0,0,1,2.17-2.1,6.52,6.52,0,0,1,3.19-.77,5.67,5.67,0,0,1,2.31.43,4.84,4.84,0,0,1,1.61,1.1,4.77,4.77,0,0,1,.94,1.47,4.19,4.19,0,0,1,.31,1.49,2.65,2.65,0,0,1-.61,1.89,2.12,2.12,0,0,1-1.56.62H141a1.59,1.59,0,0,0,.42,1,2.72,2.72,0,0,0,1,.65,3.31,3.31,0,0,0,1.22.23,6.8,6.8,0,0,0,.95-.06,3.82,3.82,0,0,0,.73-.16l.54-.21.45-.17a2.74,2.74,0,0,1,.39-.09.93.93,0,0,1,.62.19,2.79,2.79,0,0,1,.75,1.14,2.49,2.49,0,0,1,0,.46,1.23,1.23,0,0,1-.56,1,4.37,4.37,0,0,1-1.59.68A10.38,10.38,0,0,1,143.45,34.06ZM141,27.25h3.64a.92.92,0,0,0,.52-.13.54.54,0,0,0,.19-.49,1.21,1.21,0,0,0-.25-.72,1.64,1.64,0,0,0-.68-.49,2.59,2.59,0,0,0-1-.18,2.76,2.76,0,0,0-1.24.28,2.18,2.18,0,0,0-.87.74A1.75,1.75,0,0,0,141,27.25Z"/><path class="cls-2" d="M161,33.87a12,12,0,0,1-1.67-.1,3.35,3.35,0,0,1-1.25-.37,2.24,2.24,0,0,1-.82-.77,3.65,3.65,0,0,1-.49-1.26,10.06,10.06,0,0,1-.16-1.9V18.85a3.91,3.91,0,0,1,.09-.86,1.06,1.06,0,0,1,.45-.64,2.16,2.16,0,0,1,1.21-.25,2.07,2.07,0,0,1,1.18.25A1.08,1.08,0,0,1,160,18a3.76,3.76,0,0,1,.09.85V29.31a5,5,0,0,0,0,.61.78.78,0,0,0,.14.38.55.55,0,0,0,.29.19,2.09,2.09,0,0,0,.48,0,2.77,2.77,0,0,1,.56.07.86.86,0,0,1,.5.42,2.46,2.46,0,0,1,.2,1.15,2.65,2.65,0,0,1-.2,1.19.83.83,0,0,1-.5.44A2.88,2.88,0,0,1,161,33.87Z"/><path class="cls-2" d="M169.46,34.06a5.85,5.85,0,0,1-2.15-.43,6.45,6.45,0,0,1-1.94-1.21A5.86,5.86,0,0,1,164,30.55a5.55,5.55,0,0,1-.52-2.43,5.71,5.71,0,0,1,.47-2.31,6.09,6.09,0,0,1,1.31-1.9,6.31,6.31,0,0,1,1.89-1.3,5.93,5.93,0,0,1,5.29.33,5.91,5.91,0,0,1,2.15,2.15,5.75,5.75,0,0,1,.81,3,5.85,5.85,0,0,1-.52,2.5,6,6,0,0,1-3.29,3A5.82,5.82,0,0,1,169.46,34.06Zm0-3.48a2.59,2.59,0,0,0,1.12-.27,2.5,2.5,0,0,0,1-.83,2.36,2.36,0,0,0,.39-1.4,2.47,2.47,0,0,0-.32-1.29,2.21,2.21,0,0,0-.88-.86,2.75,2.75,0,0,0-1.3-.32,2.31,2.31,0,0,0-1.23.33A2.44,2.44,0,0,0,167,28.1a2.39,2.39,0,0,0,.38,1.39,2.36,2.36,0,0,0,.95.83A2.77,2.77,0,0,0,169.42,30.58Z"/><path class="cls-2" d="M181.38,34.06a6.75,6.75,0,0,1-1.36-.14,7.67,7.67,0,0,1-1.42-.4,5,5,0,0,1-1.15-.62,1.18,1.18,0,0,1-.51-.82,1.16,1.16,0,0,1,0-.49,2.21,2.21,0,0,1,.21-.55,3.35,3.35,0,0,1,.4-.61.78.78,0,0,1,.4-.32.92.92,0,0,1,.54,0,3,3,0,0,1,.74.24l.76.37a8,8,0,0,0,.8.34,2.5,2.5,0,0,0,.85.15,2.09,2.09,0,0,0,1-.19.6.6,0,0,0,.36-.54.56.56,0,0,0-.15-.41,1.29,1.29,0,0,0-.41-.28,5.51,5.51,0,0,0-.62-.22l-.75-.2a8.09,8.09,0,0,1-.83-.23,6.56,6.56,0,0,1-1.09-.41,3.78,3.78,0,0,1-1-.66,2.89,2.89,0,0,1-.67-1,3.58,3.58,0,0,1-.26-1.43,3.31,3.31,0,0,1,.52-1.89,3.26,3.26,0,0,1,1.53-1.16,6.73,6.73,0,0,1,2.49-.4,5.64,5.64,0,0,1,.82.05,4.57,4.57,0,0,1,.82.16,7.35,7.35,0,0,1,.79.27,8.23,8.23,0,0,1,.79.39,1,1,0,0,1,.71.88,2,2,0,0,1-.39,1.15,2.1,2.1,0,0,1-.53.54.81.81,0,0,1-.58.12,3.47,3.47,0,0,1-.79-.31c-.29-.14-.58-.28-.9-.4a2.56,2.56,0,0,0-.93-.18,1.93,1.93,0,0,0-.67.1.91.91,0,0,0-.41.28.61.61,0,0,0-.14.4.66.66,0,0,0,.17.47,1.64,1.64,0,0,0,.47.29,6.52,6.52,0,0,0,.69.2c.27.07.55.13.86.19s.83.18,1.27.31a4.4,4.4,0,0,1,1.2.56,2.79,2.79,0,0,1,.87,1,3.51,3.51,0,0,1,.33,1.64A3.29,3.29,0,0,1,185,33.1,5.9,5.9,0,0,1,181.38,34.06Z"/><path class="cls-2" d="M195.91,33.89a2.18,2.18,0,0,1-1.2-.26.93.93,0,0,1-.43-.64,4.5,4.5,0,0,1-.07-.85v-8a3.7,3.7,0,0,1,.09-.83,1,1,0,0,1,.44-.63,2.35,2.35,0,0,1,1.22-.24,2,2,0,0,1,1.25.33,1.37,1.37,0,0,1,.39,1.09l-.3.26a1.7,1.7,0,0,1,.27-.39,4.79,4.79,0,0,1,.6-.58,3.62,3.62,0,0,1,.86-.51,2.56,2.56,0,0,1,1.07-.22,3.9,3.9,0,0,1,1.37.22,3.42,3.42,0,0,1,1.11.64,4.21,4.21,0,0,1,.86,1.07,5.77,5.77,0,0,1,.78-.9,4.36,4.36,0,0,1,1.08-.73,3.19,3.19,0,0,1,1.4-.3,3.79,3.79,0,0,1,2.29.68A4.21,4.21,0,0,1,210.41,25a8.62,8.62,0,0,1,.48,3.06v4.11a3.86,3.86,0,0,1-.1.84,1,1,0,0,1-.45.64,2.12,2.12,0,0,1-1.2.25,2.19,2.19,0,0,1-1.22-.26,1,1,0,0,1-.44-.65,4.61,4.61,0,0,1-.07-.84V28a3.46,3.46,0,0,0-.17-1.18,1.62,1.62,0,0,0-.49-.76,1.26,1.26,0,0,0-.83-.27,1.43,1.43,0,0,0-1.45,1,3.57,3.57,0,0,0-.18,1.24v4.12a3.37,3.37,0,0,1-.11.86,1.09,1.09,0,0,1-.5.64,2.21,2.21,0,0,1-1.23.22,2,2,0,0,1-1.15-.26,1.06,1.06,0,0,1-.41-.67,4.47,4.47,0,0,1-.07-.82V28a3.92,3.92,0,0,0-.16-1.2,1.49,1.49,0,0,0-.48-.76,1.32,1.32,0,0,0-.85-.25,1.43,1.43,0,0,0-.94.3,1.6,1.6,0,0,0-.54.79,3.23,3.23,0,0,0-.18,1.11v4.14a4.65,4.65,0,0,1-.08.86,1,1,0,0,1-.45.63A2.33,2.33,0,0,1,195.91,33.89Z"/><path class="cls-2" d="M222.52,33.88a2.13,2.13,0,0,1-1.26-.3.8.8,0,0,1-.39-.73l.23-.4a2.6,2.6,0,0,1-.53.57,3.82,3.82,0,0,1-1,.59,3.88,3.88,0,0,1-1.53.27,4.69,4.69,0,0,1-2-.46,5.64,5.64,0,0,1-1.69-1.28,6.46,6.46,0,0,1-1.17-1.85,5.6,5.6,0,0,1-.44-2.19,5.44,5.44,0,0,1,.44-2.15,6,6,0,0,1,1.19-1.81A5.88,5.88,0,0,1,216,22.88a4.61,4.61,0,0,1,2-.46,3.88,3.88,0,0,1,1.45.25,4.09,4.09,0,0,1,1,.56,3.2,3.2,0,0,1,.61.62l-.21-.32a1,1,0,0,1,.41-.84,2.2,2.2,0,0,1,1.27-.29,2.12,2.12,0,0,1,1.19.26,1,1,0,0,1,.43.66,4.18,4.18,0,0,1,.08.88v7.93a4.63,4.63,0,0,1-.08.85,1,1,0,0,1-.44.66A2.27,2.27,0,0,1,222.52,33.88Zm-4-3.43a2,2,0,0,0,1.1-.31,2.28,2.28,0,0,0,.79-.84,2.42,2.42,0,0,0,.29-1.17,2.36,2.36,0,0,0-.29-1.19,2.25,2.25,0,0,0-.81-.81,2.16,2.16,0,0,0-1.12-.3,2.23,2.23,0,0,0-1.17.31,2.38,2.38,0,0,0-1.14,2,2.21,2.21,0,0,0,.31,1.14,2.36,2.36,0,0,0,2,1.14Z"/><path class="cls-2" d="M227.27,22.59h2.53L233,22.5a4.41,4.41,0,0,1,.83.08,1.06,1.06,0,0,1,.64.45,2.22,2.22,0,0,1,.25,1.22,2.14,2.14,0,0,1-.24,1.15,1,1,0,0,1-.63.47A3.3,3.3,0,0,1,233,26l-3-.08-2.79,0a1.18,1.18,0,0,1-.93-.43,2.29,2.29,0,0,1-.26-1.28A1.92,1.92,0,0,1,226.3,23,1.16,1.16,0,0,1,227.27,22.59Zm5.19,11.32a7.56,7.56,0,0,1-2-.25,3.27,3.27,0,0,1-1.39-.79,3.16,3.16,0,0,1-.8-1.34,6.29,6.29,0,0,1-.27-2V20.27a4.23,4.23,0,0,1,.08-.85,1,1,0,0,1,.45-.61,2.27,2.27,0,0,1,1.2-.24,2.13,2.13,0,0,1,1.19.25,1,1,0,0,1,.45.66,4.44,4.44,0,0,1,.08.84v9.13a2.62,2.62,0,0,0,.06.61.76.76,0,0,0,.17.35.64.64,0,0,0,.33.16,1.79,1.79,0,0,0,.5.05,4,4,0,0,1,.9.09,1,1,0,0,1,.61.42,2,2,0,0,1,.22,1.08A2.12,2.12,0,0,1,234,33.4a1,1,0,0,1-.65.44A4.61,4.61,0,0,1,232.46,33.91Z"/><path class="cls-2" d="M242.16,34.12a6.71,6.71,0,0,1-2.77-.53,5.41,5.41,0,0,1-1.89-1.39,6.17,6.17,0,0,1-1.11-1.92,6.56,6.56,0,0,1-.36-2.12,6,6,0,0,1,.78-3.06A5.62,5.62,0,0,1,239,23a6.52,6.52,0,0,1,3.19-.77,5.64,5.64,0,0,1,2.31.43,4.74,4.74,0,0,1,1.61,1.1,4.59,4.59,0,0,1,.94,1.47,3.94,3.94,0,0,1,.31,1.49,2.6,2.6,0,0,1-.61,1.89,2.08,2.08,0,0,1-1.55.62h-5.47a1.59,1.59,0,0,0,.42,1,2.59,2.59,0,0,0,1,.65,3.35,3.35,0,0,0,1.22.23,7,7,0,0,0,1-.06,3.88,3.88,0,0,0,.72-.16l.54-.21.45-.17a1.55,1.55,0,0,1,.39-.09.91.91,0,0,1,.62.19,1.9,1.9,0,0,1,.53.66,1.68,1.68,0,0,1,.22.48,1.88,1.88,0,0,1,.06.46,1.22,1.22,0,0,1-.57,1,4.24,4.24,0,0,1-1.58.68A10.47,10.47,0,0,1,242.16,34.12Zm-2.45-6.81h3.63a1,1,0,0,0,.53-.12.57.57,0,0,0,.18-.5,1.12,1.12,0,0,0-.25-.71,1.57,1.57,0,0,0-.68-.49,2.52,2.52,0,0,0-1-.18,2.66,2.66,0,0,0-1.24.28,2.14,2.14,0,0,0-.86.73A1.73,1.73,0,0,0,239.71,27.31Z"/><path class="cls-2" d="M251,33.92a2.25,2.25,0,0,1-1.2-.24,1,1,0,0,1-.44-.66,4.71,4.71,0,0,1-.08-.85v-8a3.87,3.87,0,0,1,.08-.86,1,1,0,0,1,.45-.63,3.19,3.19,0,0,1,2.38,0,1,1,0,0,1,.44.51,1.42,1.42,0,0,1,.1.49l-.28.14a2.36,2.36,0,0,1,.24-.33,3,3,0,0,1,.54-.51,3,3,0,0,1,.84-.45,3.33,3.33,0,0,1,1.14-.18l.56,0a4,4,0,0,1,.65.14,2.6,2.6,0,0,1,.61.28,1.64,1.64,0,0,1,.45.42,1.14,1.14,0,0,1,.17.63,2.8,2.8,0,0,1-.44,1.59,1.29,1.29,0,0,1-1.1.66,1.84,1.84,0,0,1-.56-.06.92.92,0,0,1-.26-.14,1.38,1.38,0,0,0-.24-.14,1.83,1.83,0,0,0-.51,0,2.27,2.27,0,0,0-.65.09,1.83,1.83,0,0,0-.58.28,1.47,1.47,0,0,0-.41.49,1.38,1.38,0,0,0-.15.65v5a3.86,3.86,0,0,1-.08.84.9.9,0,0,1-.45.63A2.43,2.43,0,0,1,251,33.92Z"/><path class="cls-2" d="M261.31,20.77a2.3,2.3,0,0,1-1.25-.25,1,1,0,0,1-.44-.67,4.14,4.14,0,0,1-.08-.87,4.09,4.09,0,0,1,.08-.89.93.93,0,0,1,.46-.64,2.43,2.43,0,0,1,1.25-.24,2.2,2.2,0,0,1,1.22.25,1,1,0,0,1,.45.67,4.91,4.91,0,0,1,.08.89,4.71,4.71,0,0,1-.08.85,1,1,0,0,1-.45.66A2.39,2.39,0,0,1,261.31,20.77Zm0,13.16a2.31,2.31,0,0,1-1.22-.24,1,1,0,0,1-.44-.65,5.71,5.71,0,0,1-.07-.84v-8a4.6,4.6,0,0,1,.08-.84,1,1,0,0,1,.45-.64,2.31,2.31,0,0,1,1.22-.24,2.09,2.09,0,0,1,1.18.25,1,1,0,0,1,.44.66,4.74,4.74,0,0,1,.08.86v8a3.86,3.86,0,0,1-.08.84,1,1,0,0,1-.43.63A2.38,2.38,0,0,1,261.3,33.93Z"/><path class="cls-2" d="M274.87,33.91a2.18,2.18,0,0,1-1.27-.3.84.84,0,0,1-.39-.73l.23-.4a2.37,2.37,0,0,1-.53.57,3.79,3.79,0,0,1-2.55.86,4.52,4.52,0,0,1-2-.46,5.37,5.37,0,0,1-1.69-1.28,6.46,6.46,0,0,1-1.17-1.85,5.6,5.6,0,0,1-.44-2.19,5.48,5.48,0,0,1,.44-2.15,6.28,6.28,0,0,1,1.18-1.81,5.92,5.92,0,0,1,1.7-1.26,4.41,4.41,0,0,1,2-.45,3.93,3.93,0,0,1,1.45.24,4.29,4.29,0,0,1,1,.56,3.51,3.51,0,0,1,.61.62l-.21-.32a1,1,0,0,1,.4-.84,2.27,2.27,0,0,1,1.28-.28,2.09,2.09,0,0,1,1.18.25,1,1,0,0,1,.44.67,4.77,4.77,0,0,1,.08.87v7.94a4,4,0,0,1-.08.85,1,1,0,0,1-.43.65A2.27,2.27,0,0,1,274.87,33.91Zm-4-3.43a2,2,0,0,0,1.1-.31,2.26,2.26,0,0,0,.78-.84,2.45,2.45,0,0,0,0-2.35,2.26,2.26,0,0,0-3.09-.81,2.47,2.47,0,0,0-.83.84,2.27,2.27,0,0,0-.31,1.19,2.12,2.12,0,0,0,.31,1.14,2.36,2.36,0,0,0,2,1.14Z"/><path class="cls-2" d="M283.31,33.94a14,14,0,0,1-1.68-.09,3.49,3.49,0,0,1-1.24-.37,2.35,2.35,0,0,1-.83-.77,3.62,3.62,0,0,1-.48-1.27,9.22,9.22,0,0,1-.16-1.9V18.92a4.4,4.4,0,0,1,.1-.85,1.08,1.08,0,0,1,.45-.65,2.21,2.21,0,0,1,1.2-.25,2.1,2.1,0,0,1,1.19.26,1,1,0,0,1,.45.64,3.76,3.76,0,0,1,.09.85V29.39a3.59,3.59,0,0,0,0,.61.74.74,0,0,0,.13.37.48.48,0,0,0,.29.19,2,2,0,0,0,.48.05,2.76,2.76,0,0,1,.57.06.85.85,0,0,1,.49.42,2.32,2.32,0,0,1,.21,1.15,2.57,2.57,0,0,1-.21,1.2.8.8,0,0,1-.49.43A2.38,2.38,0,0,1,283.31,33.94Z"/><path class="cls-2" d="M292,34.15a6.68,6.68,0,0,1-2.77-.53,5.36,5.36,0,0,1-1.9-1.39,6,6,0,0,1-1.1-1.92,6.31,6.31,0,0,1-.37-2.12,5.86,5.86,0,0,1,.79-3.06A5.55,5.55,0,0,1,288.8,23a6.52,6.52,0,0,1,3.19-.77,5.64,5.64,0,0,1,2.31.43,4.74,4.74,0,0,1,1.61,1.1,4.84,4.84,0,0,1,.94,1.46,4,4,0,0,1,.31,1.5,2.65,2.65,0,0,1-.61,1.89,2.11,2.11,0,0,1-1.55.62h-5.48a1.55,1.55,0,0,0,.43,1,2.59,2.59,0,0,0,.95.65,3.31,3.31,0,0,0,1.22.23,6.8,6.8,0,0,0,.95-.06,3.82,3.82,0,0,0,.73-.16l.54-.21.45-.17a1.55,1.55,0,0,1,.39-.09.93.93,0,0,1,.62.19,2,2,0,0,1,.53.66,1.68,1.68,0,0,1,.22.48,2.49,2.49,0,0,1,.05.46,1.21,1.21,0,0,1-.56,1,4.37,4.37,0,0,1-1.59.68A10.33,10.33,0,0,1,292,34.15Zm-2.46-6.81h3.64a1,1,0,0,0,.53-.13.57.57,0,0,0,.18-.5,1.12,1.12,0,0,0-.25-.71,1.64,1.64,0,0,0-.68-.49,2.55,2.55,0,0,0-1-.18,2.76,2.76,0,0,0-1.24.28,2.24,2.24,0,0,0-.87.73A1.81,1.81,0,0,0,289.52,27.34Z"/><path class="cls-2" d="M303.23,34.14a7.57,7.57,0,0,1-1.36-.14,8.18,8.18,0,0,1-1.41-.41,4.3,4.3,0,0,1-1.15-.62,1.16,1.16,0,0,1-.52-.81,1.21,1.21,0,0,1,0-.5,2.21,2.21,0,0,1,.21-.55,3.73,3.73,0,0,1,.4-.61.78.78,0,0,1,.4-.32.92.92,0,0,1,.54,0,3.54,3.54,0,0,1,.74.24l.76.37a8.08,8.08,0,0,0,.8.35,2.5,2.5,0,0,0,.85.15,2.08,2.08,0,0,0,1-.2.6.6,0,0,0,.36-.54.58.58,0,0,0-.15-.41,1.29,1.29,0,0,0-.41-.28c-.18-.07-.38-.15-.62-.22l-.75-.19c-.26-.06-.54-.14-.83-.23a7.64,7.64,0,0,1-1.09-.42,4,4,0,0,1-1-.65,3,3,0,0,1-.67-1,3.6,3.6,0,0,1-.26-1.44,3.42,3.42,0,0,1,.52-1.89,3.33,3.33,0,0,1,1.53-1.16,6.77,6.77,0,0,1,2.49-.4,7.86,7.86,0,0,1,.83.05,4.64,4.64,0,0,1,.81.16,7.58,7.58,0,0,1,.8.28,4.73,4.73,0,0,1,.78.39,1,1,0,0,1,.71.87,1.89,1.89,0,0,1-.39,1.15,1.82,1.82,0,0,1-.53.54.82.82,0,0,1-.58.13,4,4,0,0,1-.79-.31,9.38,9.38,0,0,0-.9-.41,2.56,2.56,0,0,0-.93-.18,1.83,1.83,0,0,0-.66.1.89.89,0,0,0-.42.28.63.63,0,0,0-.14.4.64.64,0,0,0,.17.47,1.4,1.4,0,0,0,.48.29,4.73,4.73,0,0,0,.69.21l.85.18a13,13,0,0,1,1.27.31,4.15,4.15,0,0,1,1.2.57,2.63,2.63,0,0,1,.87,1,3.35,3.35,0,0,1,.33,1.63,3.29,3.29,0,0,1-1.26,2.78A5.83,5.83,0,0,1,303.23,34.14Z"/><path class="cls-4" d="M50.3,40.43a4.22,4.22,0,0,1-3.5-1.36c-.74-.91-1.1-2.5-1.1-4.77H38.16A5.31,5.31,0,0,1,34.23,33,4.61,4.61,0,0,1,33,29.64a7.12,7.12,0,0,1,1.11-3.95Q37,21,40.58,15.61a6.65,6.65,0,0,1,5.83-3.19l3.55,0c2,0,3.32.34,4,1a4.93,4.93,0,0,1,1.06,3.59V28.17a3.66,3.66,0,0,1,2.4.88,3.33,3.33,0,0,1,.65,2.27,2.8,2.8,0,0,1-.7,2.2,4.07,4.07,0,0,1-2.36.74c0,2.21-.4,3.79-1.18,4.74A4.33,4.33,0,0,1,50.3,40.43ZM45.67,28.34l.13-8.95-5.47,9Z"/><path class="cls-4" d="M60.65,37.58a2.75,2.75,0,0,1,1.16-2.31,5.33,5.33,0,0,1,3.28-.89q4.44,0,4.44,3.2a3.1,3.1,0,0,1-.57,2,2.76,2.76,0,0,1-1.51,1,9.63,9.63,0,0,1-2.36.25A6,6,0,0,1,61.91,40,2.61,2.61,0,0,1,60.65,37.58Z"/><path class="cls-5" d="M50.3,40.43a4.22,4.22,0,0,1-3.5-1.36c-.74-.91-1.1-2.5-1.1-4.77H38.16A5.31,5.31,0,0,1,34.23,33,4.61,4.61,0,0,1,33,29.64a7.12,7.12,0,0,1,1.11-3.95Q37,21,40.58,15.61a6.65,6.65,0,0,1,5.83-3.19l3.55,0c2,0,3.32.34,4,1a4.93,4.93,0,0,1,1.06,3.59V28.17a3.66,3.66,0,0,1,2.4.88,3.33,3.33,0,0,1,.65,2.27,2.8,2.8,0,0,1-.7,2.2,4.07,4.07,0,0,1-2.36.74c0,2.21-.4,3.79-1.18,4.74A4.33,4.33,0,0,1,50.3,40.43ZM45.67,28.34l.13-8.95-5.47,9Z"/><path class="cls-5" d="M60.65,37.58a2.75,2.75,0,0,1,1.16-2.31,5.33,5.33,0,0,1,3.28-.89q4.44,0,4.44,3.2a3.1,3.1,0,0,1-.57,2,2.76,2.76,0,0,1-1.51,1,9.63,9.63,0,0,1-2.36.25A6,6,0,0,1,61.91,40,2.61,2.61,0,0,1,60.65,37.58Z"/></g></g></svg>