<svg xmlns="http://www.w3.org/2000/svg" viewBox="0 0 399.98 84.15"><defs><style>.cls-1{fill:#cf5c05;}.cls-2{fill:#fff;}.cls-3,.cls-4{fill:none;stroke-width:5px;}.cls-3{stroke:#32b228;stroke-linejoin:round;}.cls-4{stroke:#fff;}.cls-5{fill:#32b228;}</style></defs><title>t4</title><g id="Layer_2" data-name="Layer 2"><g id="pestaña_identificativa" data-name="pestaña identificativa"><rect class="cls-1" width="399.98" height="84.15" rx="32.4"/><path class="cls-2" d="M82,35.07a6.93,6.93,0,0,1-5.57-2.62A8.12,8.12,0,0,1,75,29.77a9.79,9.79,0,0,1-.48-3V19.26a5.67,5.67,0,0,1,.08-.94,1.13,1.13,0,0,1,.49-.71,2.47,2.47,0,0,1,1.33-.27,2.53,2.53,0,0,1,1.35.27,1.1,1.1,0,0,1,.48.72,4.75,4.75,0,0,1,.09,1v7.45a6.34,6.34,0,0,0,.36,2.12,3.74,3.74,0,0,0,1.19,1.7,3.3,3.3,0,0,0,2.17.68,3.49,3.49,0,0,0,2-.56,3.72,3.72,0,0,0,1.27-1.58,5.81,5.81,0,0,0,.45-2.38V19.14a3.41,3.41,0,0,1,.1-.87,1.09,1.09,0,0,1,.5-.67,2.48,2.48,0,0,1,1.3-.26,2.35,2.35,0,0,1,1.34.29,1.21,1.21,0,0,1,.47.73,4.59,4.59,0,0,1,.09.93v7.5a9.5,9.5,0,0,1-.49,3.05,7.89,7.89,0,0,1-1.46,2.65A7,7,0,0,1,82,35.07Z"/><path class="cls-2" d="M96.67,35.05a8.15,8.15,0,0,1-1.48-.15,9,9,0,0,1-1.54-.44,5,5,0,0,1-1.24-.68,1.26,1.26,0,0,1-.57-.88,1.24,1.24,0,0,1,0-.54,2.32,2.32,0,0,1,.22-.6,4.44,4.44,0,0,1,.44-.66.84.84,0,0,1,.44-.35,1.06,1.06,0,0,1,.58,0,3,3,0,0,1,.8.27c.27.12.55.25.83.4a8.41,8.41,0,0,0,.87.37A2.68,2.68,0,0,0,97,32a2.32,2.32,0,0,0,1.09-.21.67.67,0,0,0,.22-1,1.6,1.6,0,0,0-.45-.3,5.18,5.18,0,0,0-.67-.23L96.35,30c-.29-.06-.59-.15-.91-.25a7.12,7.12,0,0,1-1.18-.45,4,4,0,0,1-1.05-.71,3.1,3.1,0,0,1-.74-1.08,4,4,0,0,1-.27-1.56,3.59,3.59,0,0,1,.56-2.05,3.53,3.53,0,0,1,1.66-1.26,7.41,7.41,0,0,1,2.7-.44c.3,0,.6,0,.9,0a6.69,6.69,0,0,1,1.75.48,6.16,6.16,0,0,1,.85.43,1.13,1.13,0,0,1,.78.95,2.05,2.05,0,0,1-.43,1.25,2,2,0,0,1-.57.58.89.89,0,0,1-.63.14,4.36,4.36,0,0,1-.86-.34c-.31-.16-.63-.3-1-.44a2.89,2.89,0,0,0-1-.2,1.94,1.94,0,0,0-.72.12.94.94,0,0,0-.45.3.66.66,0,0,0-.15.43.73.73,0,0,0,.18.52,1.7,1.7,0,0,0,.52.31,4.87,4.87,0,0,0,.75.22c.28.07.59.14.92.2s.91.2,1.39.34a4.87,4.87,0,0,1,1.3.62,2.91,2.91,0,0,1,1,1.07A3.78,3.78,0,0,1,102,31a3.57,3.57,0,0,1-1.38,3A6.33,6.33,0,0,1,96.67,35.05Z"/><path class="cls-2" d="M110.12,35.06a6.22,6.22,0,0,1-2.34-.47,7,7,0,0,1-2.11-1.31,6.24,6.24,0,0,1-1.51-2,5.87,5.87,0,0,1-.56-2.64,6.19,6.19,0,0,1,.51-2.51A6.75,6.75,0,0,1,105.52,24a6.67,6.67,0,0,1,2.07-1.41,6.08,6.08,0,0,1,2.48-.51,6.39,6.39,0,0,1,3.27.86,6.61,6.61,0,0,1,2.33,2.34,6.38,6.38,0,0,1-1.19,8,6.46,6.46,0,0,1-2.08,1.29A6.32,6.32,0,0,1,110.12,35.06Zm-.05-3.78a2.78,2.78,0,0,0,1.22-.3,2.67,2.67,0,0,0,1-.9,2.51,2.51,0,0,0,.43-1.52,2.77,2.77,0,0,0-.35-1.4,2.48,2.48,0,0,0-1-.94,2.94,2.94,0,0,0-1.41-.34,2.6,2.6,0,0,0-1.34.35,2.73,2.73,0,0,0-.95,1,2.69,2.69,0,0,0-.36,1.39,2.6,2.6,0,0,0,.41,1.51,2.47,2.47,0,0,0,1,.9A2.83,2.83,0,0,0,110.07,31.28Z"/><path class="cls-2" d="M130.44,34.84a5.06,5.06,0,0,1-2.17-.48A5.9,5.9,0,0,1,126.44,33a6.7,6.7,0,0,1-1.26-2,6.34,6.34,0,0,1-.46-2.41,6.18,6.18,0,0,1,.46-2.34,6.67,6.67,0,0,1,1.28-2,6.56,6.56,0,0,1,1.84-1.36,4.88,4.88,0,0,1,2.15-.5,4.32,4.32,0,0,1,3.64,1.83,6.46,6.46,0,0,1,.93,2,9.08,9.08,0,0,1,.35,2.35,9.28,9.28,0,0,1-.3,2.4,6.12,6.12,0,0,1-.93,2,4.56,4.56,0,0,1-1.55,1.38A4.35,4.35,0,0,1,130.44,34.84Zm.5-3.7a2.3,2.3,0,0,0,1.22-.33,2.62,2.62,0,0,0,.87-.91,2.45,2.45,0,0,0,.34-1.28,2.51,2.51,0,0,0-.32-1.26,2.45,2.45,0,0,0-.88-.9,2.28,2.28,0,0,0-1.25-.34,2.52,2.52,0,0,0-1.24.32,2.35,2.35,0,0,0-.87.9,2.63,2.63,0,0,0-.31,1.28,2.49,2.49,0,0,0,1.22,2.19A2.4,2.4,0,0,0,130.94,31.14Zm4.35,3.73A2.34,2.34,0,0,1,134,34.6a1.34,1.34,0,0,1-.54-.85V18.6a6.77,6.77,0,0,1,.06-.92A1.09,1.09,0,0,1,134,17a2.28,2.28,0,0,1,1.28-.27,2.47,2.47,0,0,1,1.32.26,1.16,1.16,0,0,1,.48.69,4.4,4.4,0,0,1,.1.92V33a4.63,4.63,0,0,1-.09.92,1.15,1.15,0,0,1-.48.71A2.35,2.35,0,0,1,135.29,34.87Z"/><path class="cls-2" d="M145.89,35.1a7.25,7.25,0,0,1-3-.57A5.86,5.86,0,0,1,140.82,33a6.16,6.16,0,0,1-1.2-2.09,6.83,6.83,0,0,1-.4-2.3,6.41,6.41,0,0,1,.85-3.32A6.14,6.14,0,0,1,142.44,23a7.08,7.08,0,0,1,3.46-.83,6.22,6.22,0,0,1,2.51.46,5.23,5.23,0,0,1,1.75,1.2,5,5,0,0,1,1,1.59,4.33,4.33,0,0,1,.34,1.63,2.84,2.84,0,0,1-.66,2.05,2.27,2.27,0,0,1-1.69.67h-5.95a1.76,1.76,0,0,0,.46,1.07,2.73,2.73,0,0,0,1,.7,3.44,3.44,0,0,0,1.32.25,8.1,8.1,0,0,0,1-.06,4.49,4.49,0,0,0,.79-.17l.59-.23.48-.18a1.89,1.89,0,0,1,.43-.1,1,1,0,0,1,.67.21,2,2,0,0,1,.58.71,2.24,2.24,0,0,1,.24.53,2.07,2.07,0,0,1,.06.5,1.33,1.33,0,0,1-.62,1.08,4.6,4.6,0,0,1-1.72.74A11.56,11.56,0,0,1,145.89,35.1Zm-2.67-7.4h3.95a1.06,1.06,0,0,0,.58-.13A.62.62,0,0,0,148,27a1.29,1.29,0,0,0-.28-.78,1.7,1.7,0,0,0-.74-.53,2.74,2.74,0,0,0-1.08-.19,3,3,0,0,0-1.35.3,2.31,2.31,0,0,0-.94.8A1.84,1.84,0,0,0,143.22,27.7Z"/><path class="cls-2" d="M164.94,34.89a14.14,14.14,0,0,1-1.82-.1,3.77,3.77,0,0,1-1.35-.4,2.42,2.42,0,0,1-.9-.84,4,4,0,0,1-.53-1.38,10.73,10.73,0,0,1-.17-2.06V18.56a3.82,3.82,0,0,1,.1-.92,1.14,1.14,0,0,1,.48-.7,2.31,2.31,0,0,1,1.32-.28,2.26,2.26,0,0,1,1.28.28,1.18,1.18,0,0,1,.49.7,3.82,3.82,0,0,1,.1.92V29.94a5.54,5.54,0,0,0,0,.66,1,1,0,0,0,.15.41.54.54,0,0,0,.31.2,2,2,0,0,0,.53.05,2.62,2.62,0,0,1,.61.08.89.89,0,0,1,.54.45,2.58,2.58,0,0,1,.22,1.25,2.81,2.81,0,0,1-.22,1.3.88.88,0,0,1-.54.48A2.73,2.73,0,0,1,164.94,34.89Z"/><path class="cls-2" d="M174.17,35.09a6.21,6.21,0,0,1-2.34-.46,7.11,7.11,0,0,1-2.11-1.31,6.24,6.24,0,0,1-1.51-2,5.87,5.87,0,0,1-.56-2.64,6.16,6.16,0,0,1,.51-2.51,6.75,6.75,0,0,1,3.48-3.47,5.92,5.92,0,0,1,2.48-.51,6.29,6.29,0,0,1,3.27.86,6.53,6.53,0,0,1,2.33,2.34,6.31,6.31,0,0,1,.88,3.27,6.22,6.22,0,0,1-2.07,4.75,6.57,6.57,0,0,1-2.08,1.29A6.14,6.14,0,0,1,174.17,35.09Zm0-3.77a2.78,2.78,0,0,0,1.22-.3,2.67,2.67,0,0,0,1-.9,2.53,2.53,0,0,0,.43-1.52,2.74,2.74,0,0,0-.35-1.4,2.41,2.41,0,0,0-1-.94,2.83,2.83,0,0,0-1.41-.34,2.6,2.6,0,0,0-1.34.35,2.65,2.65,0,0,0-.95,1,2.7,2.7,0,0,0-.37,1.39,2.61,2.61,0,0,0,.42,1.51,2.47,2.47,0,0,0,1,.9A3,3,0,0,0,174.12,31.32Z"/><path class="cls-2" d="M187.12,35.1a8.07,8.07,0,0,1-1.48-.15,8.21,8.21,0,0,1-1.54-.44,5.26,5.26,0,0,1-1.25-.67,1.31,1.31,0,0,1-.56-.89,1.24,1.24,0,0,1,0-.54,2.32,2.32,0,0,1,.22-.6,3.78,3.78,0,0,1,.44-.66.89.89,0,0,1,.44-.35,1,1,0,0,1,.58,0,3,3,0,0,1,.8.26c.27.12.54.26.83.4a8.47,8.47,0,0,0,.87.38,2.93,2.93,0,0,0,.93.16,2.35,2.35,0,0,0,1.09-.21.67.67,0,0,0,.38-.59.64.64,0,0,0-.16-.45,1.27,1.27,0,0,0-.45-.3c-.19-.08-.42-.16-.67-.24s-.53-.15-.82-.21-.58-.15-.9-.25a8.93,8.93,0,0,1-1.18-.45,4,4,0,0,1-1.05-.72,3.15,3.15,0,0,1-.74-1.07,4,4,0,0,1-.27-1.56,3.3,3.3,0,0,1,2.22-3.32,7.42,7.42,0,0,1,2.7-.43c.3,0,.6,0,.9.05a5.38,5.38,0,0,1,.89.17c.29.09.58.19.86.3a6.16,6.16,0,0,1,.85.43,1.13,1.13,0,0,1,.78.95,2.1,2.1,0,0,1-.43,1.25,2,2,0,0,1-.57.59.89.89,0,0,1-.63.13,3.75,3.75,0,0,1-.86-.33,8.8,8.8,0,0,0-1-.44,2.79,2.79,0,0,0-1-.2,2,2,0,0,0-.72.11,1,1,0,0,0-.45.3.67.67,0,0,0-.15.44.71.71,0,0,0,.18.51,1.38,1.38,0,0,0,.52.31,4.8,4.8,0,0,0,.75.23l.92.2a13.35,13.35,0,0,1,1.39.34,4.56,4.56,0,0,1,1.3.61,3,3,0,0,1,.95,1.08,3.76,3.76,0,0,1,.36,1.77,3.58,3.58,0,0,1-1.38,3A6.42,6.42,0,0,1,187.12,35.1Z"/><path class="cls-2" d="M202.92,34.91a2.38,2.38,0,0,1-1.3-.27,1.08,1.08,0,0,1-.48-.7,5.49,5.49,0,0,1-.07-.93V24.26a4.36,4.36,0,0,1,.09-.9,1.08,1.08,0,0,1,.49-.69,2.54,2.54,0,0,1,1.32-.26,2,2,0,0,1,1.35.37,1.44,1.44,0,0,1,.43,1.18l-.33.28a2.91,2.91,0,0,1,.3-.43,5.63,5.63,0,0,1,.65-.62,4.1,4.1,0,0,1,.94-.56,2.83,2.83,0,0,1,1.16-.24,4.35,4.35,0,0,1,1.49.24,3.82,3.82,0,0,1,1.2.7,4.55,4.55,0,0,1,.94,1.16,5.79,5.79,0,0,1,.85-1,4.48,4.48,0,0,1,1.17-.8,3.44,3.44,0,0,1,1.53-.33,4.22,4.22,0,0,1,2.49.74,4.6,4.6,0,0,1,1.53,2.12,9.08,9.08,0,0,1,.52,3.32v4.48a3.91,3.91,0,0,1-.1.91,1.15,1.15,0,0,1-.49.7,2.48,2.48,0,0,1-1.31.26,2.41,2.41,0,0,1-1.32-.27,1.09,1.09,0,0,1-.48-.72,5.33,5.33,0,0,1-.07-.91V28.54a3.75,3.75,0,0,0-.19-1.28,1.78,1.78,0,0,0-.53-.83,1.41,1.41,0,0,0-.9-.29,1.72,1.72,0,0,0-1,.28,1.6,1.6,0,0,0-.6.8,3.92,3.92,0,0,0-.2,1.35V33a3.5,3.5,0,0,1-.13.94,1.2,1.2,0,0,1-.54.7,2.44,2.44,0,0,1-1.33.24,2.09,2.09,0,0,1-1.25-.29,1.12,1.12,0,0,1-.45-.73,5.14,5.14,0,0,1-.08-.88V28.54a4.23,4.23,0,0,0-.17-1.3,1.72,1.72,0,0,0-.52-.83,1.51,1.51,0,0,0-.93-.27,1.58,1.58,0,0,0-1,.32,1.85,1.85,0,0,0-.59.87,3.49,3.49,0,0,0-.19,1.21V33a4.42,4.42,0,0,1-.09.92,1,1,0,0,1-.49.69A2.47,2.47,0,0,1,202.92,34.91Z"/><path class="cls-2" d="M231.84,34.91a2.38,2.38,0,0,1-1.37-.33.89.89,0,0,1-.43-.8l.25-.43a3,3,0,0,1-.57.62,4.66,4.66,0,0,1-1.12.65,4.34,4.34,0,0,1-1.66.28,5,5,0,0,1-2.19-.5A5.85,5.85,0,0,1,222.92,33a7,7,0,0,1-1.28-2,6.16,6.16,0,0,1-.47-2.38,5.82,5.82,0,0,1,.48-2.33A6.48,6.48,0,0,1,224.77,23a5,5,0,0,1,2.18-.5,4.09,4.09,0,0,1,1.57.27,3.88,3.88,0,0,1,1.09.61,3.43,3.43,0,0,1,.66.67l-.22-.35a1,1,0,0,1,.44-.91,2.39,2.39,0,0,1,1.38-.31,2.24,2.24,0,0,1,1.29.28,1.11,1.11,0,0,1,.48.72,5.8,5.8,0,0,1,.08.95V33a4.7,4.7,0,0,1-.09.92,1.07,1.07,0,0,1-.48.71A2.37,2.37,0,0,1,231.84,34.91Zm-4.37-3.73a2.13,2.13,0,0,0,1.2-.34,2.57,2.57,0,0,0,.85-.91,2.51,2.51,0,0,0,.32-1.28,2.45,2.45,0,0,0-1.19-2.17,2.36,2.36,0,0,0-1.23-.33,2.33,2.33,0,0,0-1.26.34,2.53,2.53,0,0,0-1.24,2.21,2.34,2.34,0,0,0,.34,1.24,2.56,2.56,0,0,0,.92.9A2.59,2.59,0,0,0,227.47,31.18Z"/><path class="cls-2" d="M237,22.63h2.75l3.45-.09a5.29,5.29,0,0,1,.9.08,1.17,1.17,0,0,1,.7.49,2.47,2.47,0,0,1,.27,1.33,2.4,2.4,0,0,1-.26,1.25,1.24,1.24,0,0,1-.69.51,3.8,3.8,0,0,1-.92.11l-3.28-.08-3,0a1.27,1.27,0,0,1-1-.47,2.5,2.5,0,0,1-.28-1.38,2.08,2.08,0,0,1,.35-1.34A1.26,1.26,0,0,1,237,22.63Zm5.64,12.31a7.9,7.9,0,0,1-2.2-.28,3.53,3.53,0,0,1-1.51-.85,3.62,3.62,0,0,1-.88-1.46,7,7,0,0,1-.28-2.12V20.11a4.31,4.31,0,0,1,.09-.93,1.08,1.08,0,0,1,.49-.66,2.51,2.51,0,0,1,1.3-.26,2.3,2.3,0,0,1,1.3.28,1.1,1.1,0,0,1,.49.71,4.47,4.47,0,0,1,.08.91v9.93a3.1,3.1,0,0,0,.06.66.79.79,0,0,0,.19.39.68.68,0,0,0,.35.17,2.79,2.79,0,0,0,.55.05,4.67,4.67,0,0,1,1,.1,1,1,0,0,1,.66.45,2.19,2.19,0,0,1,.24,1.18,2.4,2.4,0,0,1-.27,1.3,1.11,1.11,0,0,1-.72.47A5.31,5.31,0,0,1,242.64,34.94Z"/><path class="cls-2" d="M253.19,35.17a7.25,7.25,0,0,1-3-.58,5.84,5.84,0,0,1-2.06-1.51,6.25,6.25,0,0,1-1.2-2.09,6.88,6.88,0,0,1-.4-2.3,6.45,6.45,0,0,1,.85-3.33,6.19,6.19,0,0,1,2.37-2.28,7,7,0,0,1,3.46-.84,6.24,6.24,0,0,1,2.51.47,5.23,5.23,0,0,1,1.75,1.2,4.89,4.89,0,0,1,1,1.59,4.25,4.25,0,0,1,.34,1.62,2.82,2.82,0,0,1-.66,2.05,2.28,2.28,0,0,1-1.69.67h-6a1.77,1.77,0,0,0,.46,1.08,2.85,2.85,0,0,0,1,.7,3.64,3.64,0,0,0,1.32.25,8.1,8.1,0,0,0,1-.06,4.43,4.43,0,0,0,.79-.18l.59-.22a4.32,4.32,0,0,1,.48-.19,2.41,2.41,0,0,1,.43-.1,1,1,0,0,1,.67.21,2.06,2.06,0,0,1,.58.72,1.8,1.8,0,0,1,.23.52,1.73,1.73,0,0,1,.07.5,1.35,1.35,0,0,1-.62,1.09,4.68,4.68,0,0,1-1.72.73A11,11,0,0,1,253.19,35.17Zm-2.67-7.4h3.95a1.06,1.06,0,0,0,.58-.14.62.62,0,0,0,.19-.54,1.17,1.17,0,0,0-.27-.77,1.72,1.72,0,0,0-.74-.54,3.18,3.18,0,0,0-2.43.11,2.39,2.39,0,0,0-.94.8A1.84,1.84,0,0,0,250.52,27.77Z"/><path class="cls-2" d="M262.79,35a2.48,2.48,0,0,1-1.31-.26A1.11,1.11,0,0,1,261,34a4.7,4.7,0,0,1-.08-.92V24.32a4.42,4.42,0,0,1,.09-.92,1,1,0,0,1,.49-.69,2.54,2.54,0,0,1,1.32-.26,2.45,2.45,0,0,1,1.26.24,1,1,0,0,1,.49.55,1.68,1.68,0,0,1,.1.53l-.3.15a3.22,3.22,0,0,1,.26-.36,4,4,0,0,1,.59-.55,3.55,3.55,0,0,1,.91-.48,3.43,3.43,0,0,1,1.24-.2l.61,0a4.62,4.62,0,0,1,.7.15,3.16,3.16,0,0,1,.67.3,1.54,1.54,0,0,1,.48.47A1.13,1.13,0,0,1,270,24a3.12,3.12,0,0,1-.47,1.74,1.42,1.42,0,0,1-1.21.71,2.11,2.11,0,0,1-.6-.06.92.92,0,0,1-.28-.15,1,1,0,0,0-.27-.15,1.61,1.61,0,0,0-.54-.06,2.46,2.46,0,0,0-.72.1,1.9,1.9,0,0,0-.62.31,1.5,1.5,0,0,0-.45.52,1.52,1.52,0,0,0-.17.71V33.1a4.46,4.46,0,0,1-.09.91,1,1,0,0,1-.49.69A2.53,2.53,0,0,1,262.79,35Z"/><path class="cls-2" d="M274,20.66a2.56,2.56,0,0,1-1.35-.28,1.11,1.11,0,0,1-.49-.73,5.11,5.11,0,0,1,0-1.91,1.09,1.09,0,0,1,.5-.7,2.73,2.73,0,0,1,1.37-.26,2.35,2.35,0,0,1,1.32.28,1.09,1.09,0,0,1,.49.72,5.05,5.05,0,0,1,.08,1,5.62,5.62,0,0,1-.08.92,1.09,1.09,0,0,1-.49.71A2.53,2.53,0,0,1,274,20.66ZM274,35a2.47,2.47,0,0,1-1.33-.27,1,1,0,0,1-.47-.7,5.33,5.33,0,0,1-.07-.91V24.35a4.53,4.53,0,0,1,.09-.91,1.08,1.08,0,0,1,.49-.7,2.52,2.52,0,0,1,1.32-.26,2.24,2.24,0,0,1,1.29.28,1.07,1.07,0,0,1,.47.71,4.62,4.62,0,0,1,.09.94v8.7a4.53,4.53,0,0,1-.09.91,1.06,1.06,0,0,1-.48.69A2.6,2.6,0,0,1,274,35Z"/><path class="cls-2" d="M288.74,34.94a2.34,2.34,0,0,1-1.38-.33.88.88,0,0,1-.42-.8l.25-.42a2.8,2.8,0,0,1-.58.61,4.11,4.11,0,0,1-1.11.65,4.33,4.33,0,0,1-1.66.29,4.89,4.89,0,0,1-2.19-.51,5.82,5.82,0,0,1-1.83-1.38,7.21,7.21,0,0,1-1.28-2,6.15,6.15,0,0,1-.47-2.37,6,6,0,0,1,.47-2.34,6.72,6.72,0,0,1,1.29-2A6.54,6.54,0,0,1,281.67,23a4.93,4.93,0,0,1,2.18-.49,4.1,4.1,0,0,1,1.57.26,4.32,4.32,0,0,1,1.09.61,3.45,3.45,0,0,1,.66.68l-.22-.35a1,1,0,0,1,.43-.91,2.44,2.44,0,0,1,1.39-.32,2.33,2.33,0,0,1,1.29.28,1.07,1.07,0,0,1,.47.72,4.86,4.86,0,0,1,.09.95V33a4.63,4.63,0,0,1-.09.92,1.11,1.11,0,0,1-.48.72A2.48,2.48,0,0,1,288.74,34.94Zm-4.37-3.73a2.13,2.13,0,0,0,1.2-.34,2.49,2.49,0,0,0,.85-.91,2.58,2.58,0,0,0,.32-1.27,2.62,2.62,0,0,0-.32-1.29,2.5,2.5,0,0,0-.88-.89,2.39,2.39,0,0,0-1.22-.32,2.42,2.42,0,0,0-1.26.33,2.48,2.48,0,0,0-.9.92,2.45,2.45,0,0,0-.34,1.3,2.36,2.36,0,0,0,.33,1.23,2.6,2.6,0,0,0,2.22,1.24Z"/><path class="cls-2" d="M297.91,35a14.14,14.14,0,0,1-1.82-.1,3.9,3.9,0,0,1-1.35-.4,2.42,2.42,0,0,1-.9-.84,4,4,0,0,1-.52-1.38,9.9,9.9,0,0,1-.18-2.06V18.64a3.82,3.82,0,0,1,.1-.92,1.15,1.15,0,0,1,.49-.7,2.27,2.27,0,0,1,1.31-.28,2.24,2.24,0,0,1,1.29.28,1.12,1.12,0,0,1,.48.7,3.82,3.82,0,0,1,.1.92V30a5.86,5.86,0,0,0,0,.66,1,1,0,0,0,.15.41.54.54,0,0,0,.32.2,1.86,1.86,0,0,0,.52.05,2.62,2.62,0,0,1,.61.08.89.89,0,0,1,.54.45,2.56,2.56,0,0,1,.23,1.25,2.93,2.93,0,0,1-.23,1.3.86.86,0,0,1-.54.47A2.29,2.29,0,0,1,297.91,35Z"/><path class="cls-2" d="M307.34,35.2a7.09,7.09,0,0,1-3-.58,6,6,0,0,1-2.07-1.51A6.4,6.4,0,0,1,301.07,31a6.88,6.88,0,0,1-.4-2.3,6.38,6.38,0,0,1,.85-3.32,6.11,6.11,0,0,1,2.36-2.29,6.93,6.93,0,0,1,3.47-.83,6.25,6.25,0,0,1,2.51.46,5.23,5.23,0,0,1,1.75,1.2,4.89,4.89,0,0,1,1,1.59,4.32,4.32,0,0,1,.34,1.62,2.78,2.78,0,0,1-.67,2.05,2.25,2.25,0,0,1-1.68.68h-5.95a1.71,1.71,0,0,0,.46,1.08,2.77,2.77,0,0,0,1,.7,3.41,3.41,0,0,0,1.32.25,8.22,8.22,0,0,0,1-.06,3.7,3.7,0,0,0,.79-.18l.58-.22c.18-.08.34-.14.49-.19a2.41,2.41,0,0,1,.43-.1,1,1,0,0,1,.67.22,2.78,2.78,0,0,1,.81,1.23,2.2,2.2,0,0,1,.06.5,1.34,1.34,0,0,1-.61,1.09,4.85,4.85,0,0,1-1.72.74A11.62,11.62,0,0,1,307.34,35.2Zm-2.67-7.4h3.95a.92.92,0,0,0,.57-.14.59.59,0,0,0,.2-.53,1.23,1.23,0,0,0-.27-.78,1.8,1.8,0,0,0-.74-.54,3.2,3.2,0,0,0-2.44.11,2.36,2.36,0,0,0-.93.8A1.89,1.89,0,0,0,304.67,27.8Z"/><path class="cls-2" d="M319.56,35.18a8.73,8.73,0,0,1-3-.59,5.07,5.07,0,0,1-1.25-.67,1.28,1.28,0,0,1-.56-.89,1.41,1.41,0,0,1,0-.54,2.37,2.37,0,0,1,.23-.6,3.78,3.78,0,0,1,.44-.66.87.87,0,0,1,.43-.35,1,1,0,0,1,.59,0,3.11,3.11,0,0,1,.8.26c.27.12.54.26.83.4a6.68,6.68,0,0,0,.87.37,2.69,2.69,0,0,0,.93.17A2.3,2.3,0,0,0,321,31.9a.66.66,0,0,0,.39-.59.62.62,0,0,0-.16-.45,1.27,1.27,0,0,0-.45-.3,5.28,5.28,0,0,0-.68-.24c-.25-.07-.52-.15-.81-.21s-.58-.15-.9-.25a9.62,9.62,0,0,1-1.19-.45,3.79,3.79,0,0,1-1-.72,3.15,3.15,0,0,1-.74-1.07,3.87,3.87,0,0,1-.28-1.57,3.54,3.54,0,0,1,.57-2.05,3.61,3.61,0,0,1,1.66-1.26,7.35,7.35,0,0,1,2.7-.43c.3,0,.6,0,.9.05a5.38,5.38,0,0,1,.89.17c.29.09.58.19.86.3a6.79,6.79,0,0,1,.85.43,1.13,1.13,0,0,1,.78.95,2.1,2.1,0,0,1-.43,1.25,2,2,0,0,1-.58.59.86.86,0,0,1-.62.13,3.86,3.86,0,0,1-.86-.33,9.71,9.71,0,0,0-1-.44,2.63,2.63,0,0,0-1-.2,2.24,2.24,0,0,0-.73.11.94.94,0,0,0-.45.3.67.67,0,0,0-.15.44.73.73,0,0,0,.19.51,1.58,1.58,0,0,0,.51.31,5.58,5.58,0,0,0,.75.23l.93.2a11.22,11.22,0,0,1,1.39.34,4.69,4.69,0,0,1,1.3.61,3,3,0,0,1,.94,1.08,3.64,3.64,0,0,1,.37,1.77,3.55,3.55,0,0,1-1.38,3A6.38,6.38,0,0,1,319.56,35.18Z"/><path class="cls-3" d="M82,35.07a6.93,6.93,0,0,1-5.57-2.62A8.12,8.12,0,0,1,75,29.77a9.79,9.79,0,0,1-.48-3V19.26a5.67,5.67,0,0,1,.08-.94,1.13,1.13,0,0,1,.49-.71,2.47,2.47,0,0,1,1.33-.27,2.53,2.53,0,0,1,1.35.27,1.1,1.1,0,0,1,.48.72,4.75,4.75,0,0,1,.09,1v7.45a6.34,6.34,0,0,0,.36,2.12,3.74,3.74,0,0,0,1.19,1.7,3.3,3.3,0,0,0,2.17.68,3.49,3.49,0,0,0,2-.56,3.72,3.72,0,0,0,1.27-1.58,5.81,5.81,0,0,0,.45-2.38V19.14a3.41,3.41,0,0,1,.1-.87,1.09,1.09,0,0,1,.5-.67,2.48,2.48,0,0,1,1.3-.26,2.35,2.35,0,0,1,1.34.29,1.21,1.21,0,0,1,.47.73,4.59,4.59,0,0,1,.09.93v7.5a9.5,9.5,0,0,1-.49,3.05,7.89,7.89,0,0,1-1.46,2.65A7,7,0,0,1,82,35.07Z"/><path class="cls-3" d="M96.67,35.05a8.15,8.15,0,0,1-1.48-.15,9,9,0,0,1-1.54-.44,5,5,0,0,1-1.24-.68,1.26,1.26,0,0,1-.57-.88,1.24,1.24,0,0,1,0-.54,2.32,2.32,0,0,1,.22-.6,4.44,4.44,0,0,1,.44-.66.84.84,0,0,1,.44-.35,1.06,1.06,0,0,1,.58,0,3,3,0,0,1,.8.27c.27.12.55.25.83.4a8.41,8.41,0,0,0,.87.37A2.68,2.68,0,0,0,97,32a2.32,2.32,0,0,0,1.09-.21.67.67,0,0,0,.22-1,1.6,1.6,0,0,0-.45-.3,5.18,5.18,0,0,0-.67-.23L96.35,30c-.29-.06-.59-.15-.91-.25a7.12,7.12,0,0,1-1.18-.45,4,4,0,0,1-1.05-.71,3.1,3.1,0,0,1-.74-1.08,4,4,0,0,1-.27-1.56,3.59,3.59,0,0,1,.56-2.05,3.53,3.53,0,0,1,1.66-1.26,7.41,7.41,0,0,1,2.7-.44c.3,0,.6,0,.9,0a6.69,6.69,0,0,1,1.75.48,6.16,6.16,0,0,1,.85.43,1.13,1.13,0,0,1,.78.95,2.05,2.05,0,0,1-.43,1.25,2,2,0,0,1-.57.58.89.89,0,0,1-.63.14,4.36,4.36,0,0,1-.86-.34c-.31-.16-.63-.3-1-.44a2.89,2.89,0,0,0-1-.2,1.94,1.94,0,0,0-.72.12.94.94,0,0,0-.45.3.66.66,0,0,0-.15.43.73.73,0,0,0,.18.52,1.7,1.7,0,0,0,.52.31,4.87,4.87,0,0,0,.75.22c.28.07.59.14.92.2s.91.2,1.39.34a4.87,4.87,0,0,1,1.3.62,2.91,2.91,0,0,1,1,1.07A3.78,3.78,0,0,1,102,31a3.57,3.57,0,0,1-1.38,3A6.33,6.33,0,0,1,96.67,35.05Z"/><path class="cls-3" d="M110.12,35.06a6.22,6.22,0,0,1-2.34-.47,7,7,0,0,1-2.11-1.31,6.24,6.24,0,0,1-1.51-2,5.87,5.87,0,0,1-.56-2.64,6.19,6.19,0,0,1,.51-2.51A6.75,6.75,0,0,1,105.52,24a6.67,6.67,0,0,1,2.07-1.41,6.08,6.08,0,0,1,2.48-.51,6.39,6.39,0,0,1,3.27.86,6.61,6.61,0,0,1,2.33,2.34,6.38,6.38,0,0,1-1.19,8,6.46,6.46,0,0,1-2.08,1.29A6.32,6.32,0,0,1,110.12,35.06Zm-.05-3.78a2.78,2.78,0,0,0,1.22-.3,2.67,2.67,0,0,0,1-.9,2.51,2.51,0,0,0,.43-1.52,2.77,2.77,0,0,0-.35-1.4,2.48,2.48,0,0,0-1-.94,2.94,2.94,0,0,0-1.41-.34,2.6,2.6,0,0,0-1.34.35,2.73,2.73,0,0,0-.95,1,2.69,2.69,0,0,0-.36,1.39,2.6,2.6,0,0,0,.41,1.51,2.47,2.47,0,0,0,1,.9A2.83,2.83,0,0,0,110.07,31.28Z"/><path class="cls-3" d="M130.44,34.84a5.06,5.06,0,0,1-2.17-.48A5.9,5.9,0,0,1,126.44,33a6.7,6.7,0,0,1-1.26-2,6.34,6.34,0,0,1-.46-2.41,6.18,6.18,0,0,1,.46-2.34,6.67,6.67,0,0,1,1.28-2,6.56,6.56,0,0,1,1.84-1.36,4.88,4.88,0,0,1,2.15-.5,4.32,4.32,0,0,1,3.64,1.83,6.46,6.46,0,0,1,.93,2,9.08,9.08,0,0,1,.35,2.35,9.28,9.28,0,0,1-.3,2.4,6.12,6.12,0,0,1-.93,2,4.56,4.56,0,0,1-1.55,1.38A4.35,4.35,0,0,1,130.44,34.84Zm.5-3.7a2.3,2.3,0,0,0,1.22-.33,2.62,2.62,0,0,0,.87-.91,2.45,2.45,0,0,0,.34-1.28,2.51,2.51,0,0,0-.32-1.26,2.45,2.45,0,0,0-.88-.9,2.28,2.28,0,0,0-1.25-.34,2.52,2.52,0,0,0-1.24.32,2.35,2.35,0,0,0-.87.9,2.63,2.63,0,0,0-.31,1.28,2.49,2.49,0,0,0,1.22,2.19A2.4,2.4,0,0,0,130.94,31.14Zm4.35,3.73A2.34,2.34,0,0,1,134,34.6a1.34,1.34,0,0,1-.54-.85V18.6a6.77,6.77,0,0,1,.06-.92A1.09,1.09,0,0,1,134,17a2.28,2.28,0,0,1,1.28-.27,2.47,2.47,0,0,1,1.32.26,1.16,1.16,0,0,1,.48.69,4.4,4.4,0,0,1,.1.92V33a4.63,4.63,0,0,1-.09.92,1.15,1.15,0,0,1-.48.71A2.35,2.35,0,0,1,135.29,34.87Z"/><path class="cls-3" d="M145.89,35.1a7.25,7.25,0,0,1-3-.57A5.86,5.86,0,0,1,140.82,33a6.16,6.16,0,0,1-1.2-2.09,6.83,6.83,0,0,1-.4-2.3,6.41,6.41,0,0,1,.85-3.32A6.14,6.14,0,0,1,142.44,23a7.08,7.08,0,0,1,3.46-.83,6.22,6.22,0,0,1,2.51.46,5.23,5.23,0,0,1,1.75,1.2,5,5,0,0,1,1,1.59,4.33,4.33,0,0,1,.34,1.63,2.84,2.84,0,0,1-.66,2.05,2.27,2.27,0,0,1-1.69.67h-5.95a1.76,1.76,0,0,0,.46,1.07,2.73,2.73,0,0,0,1,.7,3.44,3.44,0,0,0,1.32.25,8.1,8.1,0,0,0,1-.06,4.49,4.49,0,0,0,.79-.17l.59-.23.48-.18a1.89,1.89,0,0,1,.43-.1,1,1,0,0,1,.67.21,2,2,0,0,1,.58.71,2.24,2.24,0,0,1,.24.53,2.07,2.07,0,0,1,.06.5,1.33,1.33,0,0,1-.62,1.08,4.6,4.6,0,0,1-1.72.74A11.56,11.56,0,0,1,145.89,35.1Zm-2.67-7.4h3.95a1.06,1.06,0,0,0,.58-.13A.62.62,0,0,0,148,27a1.29,1.29,0,0,0-.28-.78,1.7,1.7,0,0,0-.74-.53,2.74,2.74,0,0,0-1.08-.19,3,3,0,0,0-1.35.3,2.31,2.31,0,0,0-.94.8A1.84,1.84,0,0,0,143.22,27.7Z"/><path class="cls-3" d="M164.94,34.89a14.14,14.14,0,0,1-1.82-.1,3.77,3.77,0,0,1-1.35-.4,2.42,2.42,0,0,1-.9-.84,4,4,0,0,1-.53-1.38,10.73,10.73,0,0,1-.17-2.06V18.56a3.82,3.82,0,0,1,.1-.92,1.14,1.14,0,0,1,.48-.7,2.31,2.31,0,0,1,1.32-.28,2.26,2.26,0,0,1,1.28.28,1.18,1.18,0,0,1,.49.7,3.82,3.82,0,0,1,.1.92V29.94a5.54,5.54,0,0,0,0,.66,1,1,0,0,0,.15.41.54.54,0,0,0,.31.2,2,2,0,0,0,.53.05,2.62,2.62,0,0,1,.61.08.89.89,0,0,1,.54.45,2.58,2.58,0,0,1,.22,1.25,2.81,2.81,0,0,1-.22,1.3.88.88,0,0,1-.54.48A2.73,2.73,0,0,1,164.94,34.89Z"/><path class="cls-3" d="M174.17,35.09a6.21,6.21,0,0,1-2.34-.46,7.11,7.11,0,0,1-2.11-1.31,6.24,6.24,0,0,1-1.51-2,5.87,5.87,0,0,1-.56-2.64,6.16,6.16,0,0,1,.51-2.51,6.75,6.75,0,0,1,3.48-3.47,5.92,5.92,0,0,1,2.48-.51,6.29,6.29,0,0,1,3.27.86,6.53,6.53,0,0,1,2.33,2.34,6.31,6.31,0,0,1,.88,3.27,6.22,6.22,0,0,1-2.07,4.75,6.57,6.57,0,0,1-2.08,1.29A6.14,6.14,0,0,1,174.17,35.09Zm0-3.77a2.78,2.78,0,0,0,1.22-.3,2.67,2.67,0,0,0,1-.9,2.53,2.53,0,0,0,.43-1.52,2.74,2.74,0,0,0-.35-1.4,2.41,2.41,0,0,0-1-.94,2.83,2.83,0,0,0-1.41-.34,2.6,2.6,0,0,0-1.34.35,2.65,2.65,0,0,0-.95,1,2.7,2.7,0,0,0-.37,1.39,2.61,2.61,0,0,0,.42,1.51,2.47,2.47,0,0,0,1,.9A3,3,0,0,0,174.12,31.32Z"/><path class="cls-3" d="M187.12,35.1a8.07,8.07,0,0,1-1.48-.15,8.21,8.21,0,0,1-1.54-.44,5.26,5.26,0,0,1-1.25-.67,1.31,1.31,0,0,1-.56-.89,1.24,1.24,0,0,1,0-.54,2.32,2.32,0,0,1,.22-.6,3.78,3.78,0,0,1,.44-.66.89.89,0,0,1,.44-.35,1,1,0,0,1,.58,0,3,3,0,0,1,.8.26c.27.12.54.26.83.4a8.47,8.47,0,0,0,.87.38,2.93,2.93,0,0,0,.93.16,2.35,2.35,0,0,0,1.09-.21.67.67,0,0,0,.38-.59.64.64,0,0,0-.16-.45,1.27,1.27,0,0,0-.45-.3c-.19-.08-.42-.16-.67-.24s-.53-.15-.82-.21-.58-.15-.9-.25a8.93,8.93,0,0,1-1.18-.45,4,4,0,0,1-1.05-.72,3.15,3.15,0,0,1-.74-1.07,4,4,0,0,1-.27-1.56,3.3,3.3,0,0,1,2.22-3.32,7.42,7.42,0,0,1,2.7-.43c.3,0,.6,0,.9.05a5.38,5.38,0,0,1,.89.17c.29.09.58.19.86.3a6.16,6.16,0,0,1,.85.43,1.13,1.13,0,0,1,.78.95,2.1,2.1,0,0,1-.43,1.25,2,2,0,0,1-.57.59.89.89,0,0,1-.63.13,3.75,3.75,0,0,1-.86-.33,8.8,8.8,0,0,0-1-.44,2.79,2.79,0,0,0-1-.2,2,2,0,0,0-.72.11,1,1,0,0,0-.45.3.67.67,0,0,0-.15.44.71.71,0,0,0,.18.51,1.38,1.38,0,0,0,.52.31,4.8,4.8,0,0,0,.75.23l.92.2a13.35,13.35,0,0,1,1.39.34,4.56,4.56,0,0,1,1.3.61,3,3,0,0,1,.95,1.08,3.76,3.76,0,0,1,.36,1.77,3.58,3.58,0,0,1-1.38,3A6.42,6.42,0,0,1,187.12,35.1Z"/><path class="cls-3" d="M202.92,34.91a2.38,2.38,0,0,1-1.3-.27,1.08,1.08,0,0,1-.48-.7,5.49,5.49,0,0,1-.07-.93V24.26a4.36,4.36,0,0,1,.09-.9,1.08,1.08,0,0,1,.49-.69,2.54,2.54,0,0,1,1.32-.26,2,2,0,0,1,1.35.37,1.44,1.44,0,0,1,.43,1.18l-.33.28a2.91,2.91,0,0,1,.3-.43,5.63,5.63,0,0,1,.65-.62,4.1,4.1,0,0,1,.94-.56,2.83,2.83,0,0,1,1.16-.24,4.35,4.35,0,0,1,1.49.24,3.82,3.82,0,0,1,1.2.7,4.55,4.55,0,0,1,.94,1.16,5.79,5.79,0,0,1,.85-1,4.48,4.48,0,0,1,1.17-.8,3.44,3.44,0,0,1,1.53-.33,4.22,4.22,0,0,1,2.49.74,4.6,4.6,0,0,1,1.53,2.12,9.08,9.08,0,0,1,.52,3.32v4.48a3.91,3.91,0,0,1-.1.91,1.15,1.15,0,0,1-.49.7,2.48,2.48,0,0,1-1.31.26,2.41,2.41,0,0,1-1.32-.27,1.09,1.09,0,0,1-.48-.72,5.33,5.33,0,0,1-.07-.91V28.54a3.75,3.75,0,0,0-.19-1.28,1.78,1.78,0,0,0-.53-.83,1.41,1.41,0,0,0-.9-.29,1.72,1.72,0,0,0-1,.28,1.6,1.6,0,0,0-.6.8,3.92,3.92,0,0,0-.2,1.35V33a3.5,3.5,0,0,1-.13.94,1.2,1.2,0,0,1-.54.7,2.44,2.44,0,0,1-1.33.24,2.09,2.09,0,0,1-1.25-.29,1.12,1.12,0,0,1-.45-.73,5.14,5.14,0,0,1-.08-.88V28.54a4.23,4.23,0,0,0-.17-1.3,1.72,1.72,0,0,0-.52-.83,1.51,1.51,0,0,0-.93-.27,1.58,1.58,0,0,0-1,.32,1.85,1.85,0,0,0-.59.87,3.49,3.49,0,0,0-.19,1.21V33a4.42,4.42,0,0,1-.09.92,1,1,0,0,1-.49.69A2.47,2.47,0,0,1,202.92,34.91Z"/><path class="cls-3" d="M231.84,34.91a2.38,2.38,0,0,1-1.37-.33.89.89,0,0,1-.43-.8l.25-.43a3,3,0,0,1-.57.62,4.66,4.66,0,0,1-1.12.65,4.34,4.34,0,0,1-1.66.28,5,5,0,0,1-2.19-.5A5.85,5.85,0,0,1,222.92,33a7,7,0,0,1-1.28-2,6.16,6.16,0,0,1-.47-2.38,5.82,5.82,0,0,1,.48-2.33A6.48,6.48,0,0,1,224.77,23a5,5,0,0,1,2.18-.5,4.09,4.09,0,0,1,1.57.27,3.88,3.88,0,0,1,1.09.61,3.43,3.43,0,0,1,.66.67l-.22-.35a1,1,0,0,1,.44-.91,2.39,2.39,0,0,1,1.38-.31,2.24,2.24,0,0,1,1.29.28,1.11,1.11,0,0,1,.48.72,5.8,5.8,0,0,1,.08.95V33a4.7,4.7,0,0,1-.09.92,1.07,1.07,0,0,1-.48.71A2.37,2.37,0,0,1,231.84,34.91Zm-4.37-3.73a2.13,2.13,0,0,0,1.2-.34,2.57,2.57,0,0,0,.85-.91,2.51,2.51,0,0,0,.32-1.28,2.45,2.45,0,0,0-1.19-2.17,2.36,2.36,0,0,0-1.23-.33,2.33,2.33,0,0,0-1.26.34,2.53,2.53,0,0,0-1.24,2.21,2.34,2.34,0,0,0,.34,1.24,2.56,2.56,0,0,0,.92.9A2.59,2.59,0,0,0,227.47,31.18Z"/><path class="cls-3" d="M237,22.63h2.75l3.45-.09a5.29,5.29,0,0,1,.9.08,1.17,1.17,0,0,1,.7.49,2.47,2.47,0,0,1,.27,1.33,2.4,2.4,0,0,1-.26,1.25,1.24,1.24,0,0,1-.69.51,3.8,3.8,0,0,1-.92.11l-3.28-.08-3,0a1.27,1.27,0,0,1-1-.47,2.5,2.5,0,0,1-.28-1.38,2.08,2.08,0,0,1,.35-1.34A1.26,1.26,0,0,1,237,22.63Zm5.64,12.31a7.9,7.9,0,0,1-2.2-.28,3.53,3.53,0,0,1-1.51-.85,3.62,3.62,0,0,1-.88-1.46,7,7,0,0,1-.28-2.12V20.11a4.31,4.31,0,0,1,.09-.93,1.08,1.08,0,0,1,.49-.66,2.51,2.51,0,0,1,1.3-.26,2.3,2.3,0,0,1,1.3.28,1.1,1.1,0,0,1,.49.71,4.47,4.47,0,0,1,.08.91v9.93a3.1,3.1,0,0,0,.06.66.79.79,0,0,0,.19.39.68.68,0,0,0,.35.17,2.79,2.79,0,0,0,.55.05,4.67,4.67,0,0,1,1,.1,1,1,0,0,1,.66.45,2.19,2.19,0,0,1,.24,1.18,2.4,2.4,0,0,1-.27,1.3,1.11,1.11,0,0,1-.72.47A5.31,5.31,0,0,1,242.64,34.94Z"/><path class="cls-3" d="M253.19,35.17a7.25,7.25,0,0,1-3-.58,5.84,5.84,0,0,1-2.06-1.51,6.25,6.25,0,0,1-1.2-2.09,6.88,6.88,0,0,1-.4-2.3,6.45,6.45,0,0,1,.85-3.33,6.19,6.19,0,0,1,2.37-2.28,7,7,0,0,1,3.46-.84,6.24,6.24,0,0,1,2.51.47,5.23,5.23,0,0,1,1.75,1.2,4.89,4.89,0,0,1,1,1.59,4.25,4.25,0,0,1,.34,1.62,2.82,2.82,0,0,1-.66,2.05,2.28,2.28,0,0,1-1.69.67h-6a1.77,1.77,0,0,0,.46,1.08,2.85,2.85,0,0,0,1,.7,3.64,3.64,0,0,0,1.32.25,8.1,8.1,0,0,0,1-.06,4.43,4.43,0,0,0,.79-.18l.59-.22a4.32,4.32,0,0,1,.48-.19,2.41,2.41,0,0,1,.43-.1,1,1,0,0,1,.67.21,2.06,2.06,0,0,1,.58.72,1.8,1.8,0,0,1,.23.52,1.73,1.73,0,0,1,.07.5,1.35,1.35,0,0,1-.62,1.09,4.68,4.68,0,0,1-1.72.73A11,11,0,0,1,253.19,35.17Zm-2.67-7.4h3.95a1.06,1.06,0,0,0,.58-.14.62.62,0,0,0,.19-.54,1.17,1.17,0,0,0-.27-.77,1.72,1.72,0,0,0-.74-.54,3.18,3.18,0,0,0-2.43.11,2.39,2.39,0,0,0-.94.8A1.84,1.84,0,0,0,250.52,27.77Z"/><path class="cls-3" d="M262.79,35a2.48,2.48,0,0,1-1.31-.26A1.11,1.11,0,0,1,261,34a4.7,4.7,0,0,1-.08-.92V24.32a4.42,4.42,0,0,1,.09-.92,1,1,0,0,1,.49-.69,2.54,2.54,0,0,1,1.32-.26,2.45,2.45,0,0,1,1.26.24,1,1,0,0,1,.49.55,1.68,1.68,0,0,1,.1.53l-.3.15a3.22,3.22,0,0,1,.26-.36,4,4,0,0,1,.59-.55,3.55,3.55,0,0,1,.91-.48,3.43,3.43,0,0,1,1.24-.2l.61,0a4.62,4.62,0,0,1,.7.15,3.16,3.16,0,0,1,.67.3,1.54,1.54,0,0,1,.48.47A1.13,1.13,0,0,1,270,24a3.12,3.12,0,0,1-.47,1.74,1.42,1.42,0,0,1-1.21.71,2.11,2.11,0,0,1-.6-.06.92.92,0,0,1-.28-.15,1,1,0,0,0-.27-.15,1.61,1.61,0,0,0-.54-.06,2.46,2.46,0,0,0-.72.1,1.9,1.9,0,0,0-.62.31,1.5,1.5,0,0,0-.45.52,1.52,1.52,0,0,0-.17.71V33.1a4.46,4.46,0,0,1-.09.91,1,1,0,0,1-.49.69A2.53,2.53,0,0,1,262.79,35Z"/><path class="cls-3" d="M274,20.66a2.56,2.56,0,0,1-1.35-.28,1.11,1.11,0,0,1-.49-.73,5.11,5.11,0,0,1,0-1.91,1.09,1.09,0,0,1,.5-.7,2.73,2.73,0,0,1,1.37-.26,2.35,2.35,0,0,1,1.32.28,1.09,1.09,0,0,1,.49.72,5.05,5.05,0,0,1,.08,1,5.62,5.62,0,0,1-.08.92,1.09,1.09,0,0,1-.49.71A2.53,2.53,0,0,1,274,20.66ZM274,35a2.47,2.47,0,0,1-1.33-.27,1,1,0,0,1-.47-.7,5.33,5.33,0,0,1-.07-.91V24.35a4.53,4.53,0,0,1,.09-.91,1.08,1.08,0,0,1,.49-.7,2.52,2.52,0,0,1,1.32-.26,2.24,2.24,0,0,1,1.29.28,1.07,1.07,0,0,1,.47.71,4.62,4.62,0,0,1,.09.94v8.7a4.53,4.53,0,0,1-.09.91,1.06,1.06,0,0,1-.48.69A2.6,2.6,0,0,1,274,35Z"/><path class="cls-3" d="M288.74,34.94a2.34,2.34,0,0,1-1.38-.33.88.88,0,0,1-.42-.8l.25-.42a2.8,2.8,0,0,1-.58.61,4.11,4.11,0,0,1-1.11.65,4.33,4.33,0,0,1-1.66.29,4.89,4.89,0,0,1-2.19-.51,5.82,5.82,0,0,1-1.83-1.38,7.21,7.21,0,0,1-1.28-2,6.15,6.15,0,0,1-.47-2.37,6,6,0,0,1,.47-2.34,6.72,6.72,0,0,1,1.29-2A6.54,6.54,0,0,1,281.67,23a4.93,4.93,0,0,1,2.18-.49,4.1,4.1,0,0,1,1.57.26,4.32,4.32,0,0,1,1.09.61,3.45,3.45,0,0,1,.66.68l-.22-.35a1,1,0,0,1,.43-.91,2.44,2.44,0,0,1,1.39-.32,2.33,2.33,0,0,1,1.29.28,1.07,1.07,0,0,1,.47.72,4.86,4.86,0,0,1,.09.95V33a4.63,4.63,0,0,1-.09.92,1.11,1.11,0,0,1-.48.72A2.48,2.48,0,0,1,288.74,34.94Zm-4.37-3.73a2.13,2.13,0,0,0,1.2-.34,2.49,2.49,0,0,0,.85-.91,2.58,2.58,0,0,0,.32-1.27,2.62,2.62,0,0,0-.32-1.29,2.5,2.5,0,0,0-.88-.89,2.39,2.39,0,0,0-1.22-.32,2.42,2.42,0,0,0-1.26.33,2.48,2.48,0,0,0-.9.92,2.45,2.45,0,0,0-.34,1.3,2.36,2.36,0,0,0,.33,1.23,2.6,2.6,0,0,0,2.22,1.24Z"/><path class="cls-3" d="M297.91,35a14.14,14.14,0,0,1-1.82-.1,3.9,3.9,0,0,1-1.35-.4,2.42,2.42,0,0,1-.9-.84,4,4,0,0,1-.52-1.38,9.9,9.9,0,0,1-.18-2.06V18.64a3.82,3.82,0,0,1,.1-.92,1.15,1.15,0,0,1,.49-.7,2.27,2.27,0,0,1,1.31-.28,2.24,2.24,0,0,1,1.29.28,1.12,1.12,0,0,1,.48.7,3.82,3.82,0,0,1,.1.92V30a5.86,5.86,0,0,0,0,.66,1,1,0,0,0,.15.41.54.54,0,0,0,.32.2,1.86,1.86,0,0,0,.52.05,2.62,2.62,0,0,1,.61.08.89.89,0,0,1,.54.45,2.56,2.56,0,0,1,.23,1.25,2.93,2.93,0,0,1-.23,1.3.86.86,0,0,1-.54.47A2.29,2.29,0,0,1,297.91,35Z"/><path class="cls-3" d="M307.34,35.2a7.09,7.09,0,0,1-3-.58,6,6,0,0,1-2.07-1.51A6.4,6.4,0,0,1,301.07,31a6.88,6.88,0,0,1-.4-2.3,6.38,6.38,0,0,1,.85-3.32,6.11,6.11,0,0,1,2.36-2.29,6.93,6.93,0,0,1,3.47-.83,6.25,6.25,0,0,1,2.51.46,5.23,5.23,0,0,1,1.75,1.2,4.89,4.89,0,0,1,1,1.59,4.32,4.32,0,0,1,.34,1.62,2.78,2.78,0,0,1-.67,2.05,2.25,2.25,0,0,1-1.68.68h-5.95a1.71,1.71,0,0,0,.46,1.08,2.77,2.77,0,0,0,1,.7,3.41,3.41,0,0,0,1.32.25,8.22,8.22,0,0,0,1-.06,3.7,3.7,0,0,0,.79-.18l.58-.22c.18-.08.34-.14.49-.19a2.41,2.41,0,0,1,.43-.1,1,1,0,0,1,.67.22,2.78,2.78,0,0,1,.81,1.23,2.2,2.2,0,0,1,.06.5,1.34,1.34,0,0,1-.61,1.09,4.85,4.85,0,0,1-1.72.74A11.62,11.62,0,0,1,307.34,35.2Zm-2.67-7.4h3.95a.92.92,0,0,0,.57-.14.59.59,0,0,0,.2-.53,1.23,1.23,0,0,0-.27-.78,1.8,1.8,0,0,0-.74-.54,3.2,3.2,0,0,0-2.44.11,2.36,2.36,0,0,0-.93.8A1.89,1.89,0,0,0,304.67,27.8Z"/><path class="cls-3" d="M319.56,35.18a8.73,8.73,0,0,1-3-.59,5.07,5.07,0,0,1-1.25-.67,1.28,1.28,0,0,1-.56-.89,1.41,1.41,0,0,1,0-.54,2.37,2.37,0,0,1,.23-.6,3.78,3.78,0,0,1,.44-.66.87.87,0,0,1,.43-.35,1,1,0,0,1,.59,0,3.11,3.11,0,0,1,.8.26c.27.12.54.26.83.4a6.68,6.68,0,0,0,.87.37,2.69,2.69,0,0,0,.93.17A2.3,2.3,0,0,0,321,31.9a.66.66,0,0,0,.39-.59.62.62,0,0,0-.16-.45,1.27,1.27,0,0,0-.45-.3,5.28,5.28,0,0,0-.68-.24c-.25-.07-.52-.15-.81-.21s-.58-.15-.9-.25a9.62,9.62,0,0,1-1.19-.45,3.79,3.79,0,0,1-1-.72,3.15,3.15,0,0,1-.74-1.07,3.87,3.87,0,0,1-.28-1.57,3.54,3.54,0,0,1,.57-2.05,3.61,3.61,0,0,1,1.66-1.26,7.35,7.35,0,0,1,2.7-.43c.3,0,.6,0,.9.05a5.38,5.38,0,0,1,.89.17c.29.09.58.19.86.3a6.79,6.79,0,0,1,.85.43,1.13,1.13,0,0,1,.78.95,2.1,2.1,0,0,1-.43,1.25,2,2,0,0,1-.58.59.86.86,0,0,1-.62.13,3.86,3.86,0,0,1-.86-.33,9.71,9.71,0,0,0-1-.44,2.63,2.63,0,0,0-1-.2,2.24,2.24,0,0,0-.73.11.94.94,0,0,0-.45.3.67.67,0,0,0-.15.44.73.73,0,0,0,.19.51,1.58,1.58,0,0,0,.51.31,5.58,5.58,0,0,0,.75.23l.93.2a11.22,11.22,0,0,1,1.39.34,4.69,4.69,0,0,1,1.3.61,3,3,0,0,1,.94,1.08,3.64,3.64,0,0,1,.37,1.77,3.55,3.55,0,0,1-1.38,3A6.38,6.38,0,0,1,319.56,35.18Z"/><path class="cls-2" d="M82,35.07a6.93,6.93,0,0,1-5.57-2.62A8.12,8.12,0,0,1,75,29.77a9.79,9.79,0,0,1-.48-3V19.26a5.67,5.67,0,0,1,.08-.94,1.13,1.13,0,0,1,.49-.71,2.47,2.47,0,0,1,1.33-.27,2.53,2.53,0,0,1,1.35.27,1.1,1.1,0,0,1,.48.72,4.75,4.75,0,0,1,.09,1v7.45a6.34,6.34,0,0,0,.36,2.12,3.74,3.74,0,0,0,1.19,1.7,3.3,3.3,0,0,0,2.17.68,3.49,3.49,0,0,0,2-.56,3.72,3.72,0,0,0,1.27-1.58,5.81,5.81,0,0,0,.45-2.38V19.14a3.41,3.41,0,0,1,.1-.87,1.09,1.09,0,0,1,.5-.67,2.48,2.48,0,0,1,1.3-.26,2.35,2.35,0,0,1,1.34.29,1.21,1.21,0,0,1,.47.73,4.59,4.59,0,0,1,.09.93v7.5a9.5,9.5,0,0,1-.49,3.05,7.89,7.89,0,0,1-1.46,2.65A7,7,0,0,1,82,35.07Z"/><path class="cls-2" d="M96.67,35.05a8.15,8.15,0,0,1-1.48-.15,9,9,0,0,1-1.54-.44,5,5,0,0,1-1.24-.68,1.26,1.26,0,0,1-.57-.88,1.24,1.24,0,0,1,0-.54,2.32,2.32,0,0,1,.22-.6,4.44,4.44,0,0,1,.44-.66.84.84,0,0,1,.44-.35,1.06,1.06,0,0,1,.58,0,3,3,0,0,1,.8.27c.27.12.55.25.83.4a8.41,8.41,0,0,0,.87.37A2.68,2.68,0,0,0,97,32a2.32,2.32,0,0,0,1.09-.21.67.67,0,0,0,.22-1,1.6,1.6,0,0,0-.45-.3,5.18,5.18,0,0,0-.67-.23L96.35,30c-.29-.06-.59-.15-.91-.25a7.12,7.12,0,0,1-1.18-.45,4,4,0,0,1-1.05-.71,3.1,3.1,0,0,1-.74-1.08,4,4,0,0,1-.27-1.56,3.59,3.59,0,0,1,.56-2.05,3.53,3.53,0,0,1,1.66-1.26,7.41,7.41,0,0,1,2.7-.44c.3,0,.6,0,.9,0a6.69,6.69,0,0,1,1.75.48,6.16,6.16,0,0,1,.85.43,1.13,1.13,0,0,1,.78.95,2.05,2.05,0,0,1-.43,1.25,2,2,0,0,1-.57.58.89.89,0,0,1-.63.14,4.36,4.36,0,0,1-.86-.34c-.31-.16-.63-.3-1-.44a2.89,2.89,0,0,0-1-.2,1.94,1.94,0,0,0-.72.12.94.94,0,0,0-.45.3.66.66,0,0,0-.15.43.73.73,0,0,0,.18.52,1.7,1.7,0,0,0,.52.31,4.87,4.87,0,0,0,.75.22c.28.07.59.14.92.2s.91.2,1.39.34a4.87,4.87,0,0,1,1.3.62,2.91,2.91,0,0,1,1,1.07A3.78,3.78,0,0,1,102,31a3.57,3.57,0,0,1-1.38,3A6.33,6.33,0,0,1,96.67,35.05Z"/><path class="cls-2" d="M110.12,35.06a6.22,6.22,0,0,1-2.34-.47,7,7,0,0,1-2.11-1.31,6.24,6.24,0,0,1-1.51-2,5.87,5.87,0,0,1-.56-2.64,6.19,6.19,0,0,1,.51-2.51A6.75,6.75,0,0,1,105.52,24a6.67,6.67,0,0,1,2.07-1.41,6.08,6.08,0,0,1,2.48-.51,6.39,6.39,0,0,1,3.27.86,6.61,6.61,0,0,1,2.33,2.34,6.38,6.38,0,0,1-1.19,8,6.46,6.46,0,0,1-2.08,1.29A6.32,6.32,0,0,1,110.12,35.06Zm-.05-3.78a2.78,2.78,0,0,0,1.22-.3,2.67,2.67,0,0,0,1-.9,2.51,2.51,0,0,0,.43-1.52,2.77,2.77,0,0,0-.35-1.4,2.48,2.48,0,0,0-1-.94,2.94,2.94,0,0,0-1.41-.34,2.6,2.6,0,0,0-1.34.35,2.73,2.73,0,0,0-.95,1,2.69,2.69,0,0,0-.36,1.39,2.6,2.6,0,0,0,.41,1.51,2.47,2.47,0,0,0,1,.9A2.83,2.83,0,0,0,110.07,31.28Z"/><path class="cls-2" d="M130.44,34.84a5.06,5.06,0,0,1-2.17-.48A5.9,5.9,0,0,1,126.44,33a6.7,6.7,0,0,1-1.26-2,6.34,6.34,0,0,1-.46-2.41,6.18,6.18,0,0,1,.46-2.34,6.67,6.67,0,0,1,1.28-2,6.56,6.56,0,0,1,1.84-1.36,4.88,4.88,0,0,1,2.15-.5,4.32,4.32,0,0,1,3.64,1.83,6.46,6.46,0,0,1,.93,2,9.08,9.08,0,0,1,.35,2.35,9.28,9.28,0,0,1-.3,2.4,6.12,6.12,0,0,1-.93,2,4.56,4.56,0,0,1-1.55,1.38A4.35,4.35,0,0,1,130.44,34.84Zm.5-3.7a2.3,2.3,0,0,0,1.22-.33,2.62,2.62,0,0,0,.87-.91,2.45,2.45,0,0,0,.34-1.28,2.51,2.51,0,0,0-.32-1.26,2.45,2.45,0,0,0-.88-.9,2.28,2.28,0,0,0-1.25-.34,2.52,2.52,0,0,0-1.24.32,2.35,2.35,0,0,0-.87.9,2.63,2.63,0,0,0-.31,1.28,2.49,2.49,0,0,0,1.22,2.19A2.4,2.4,0,0,0,130.94,31.14Zm4.35,3.73A2.34,2.34,0,0,1,134,34.6a1.34,1.34,0,0,1-.54-.85V18.6a6.77,6.77,0,0,1,.06-.92A1.09,1.09,0,0,1,134,17a2.28,2.28,0,0,1,1.28-.27,2.47,2.47,0,0,1,1.32.26,1.16,1.16,0,0,1,.48.69,4.4,4.4,0,0,1,.1.92V33a4.63,4.63,0,0,1-.09.92,1.15,1.15,0,0,1-.48.71A2.35,2.35,0,0,1,135.29,34.87Z"/><path class="cls-2" d="M145.89,35.1a7.25,7.25,0,0,1-3-.57A5.86,5.86,0,0,1,140.82,33a6.16,6.16,0,0,1-1.2-2.09,6.83,6.83,0,0,1-.4-2.3,6.41,6.41,0,0,1,.85-3.32A6.14,6.14,0,0,1,142.44,23a7.08,7.08,0,0,1,3.46-.83,6.22,6.22,0,0,1,2.51.46,5.23,5.23,0,0,1,1.75,1.2,5,5,0,0,1,1,1.59,4.33,4.33,0,0,1,.34,1.63,2.84,2.84,0,0,1-.66,2.05,2.27,2.27,0,0,1-1.69.67h-5.95a1.76,1.76,0,0,0,.46,1.07,2.73,2.73,0,0,0,1,.7,3.44,3.44,0,0,0,1.32.25,8.1,8.1,0,0,0,1-.06,4.49,4.49,0,0,0,.79-.17l.59-.23.48-.18a1.89,1.89,0,0,1,.43-.1,1,1,0,0,1,.67.21,2,2,0,0,1,.58.71,2.24,2.24,0,0,1,.24.53,2.07,2.07,0,0,1,.06.5,1.33,1.33,0,0,1-.62,1.08,4.6,4.6,0,0,1-1.72.74A11.56,11.56,0,0,1,145.89,35.1Zm-2.67-7.4h3.95a1.06,1.06,0,0,0,.58-.13A.62.62,0,0,0,148,27a1.29,1.29,0,0,0-.28-.78,1.7,1.7,0,0,0-.74-.53,2.74,2.74,0,0,0-1.08-.19,3,3,0,0,0-1.35.3,2.31,2.31,0,0,0-.94.8A1.84,1.84,0,0,0,143.22,27.7Z"/><path class="cls-2" d="M164.94,34.89a14.14,14.14,0,0,1-1.82-.1,3.77,3.77,0,0,1-1.35-.4,2.42,2.42,0,0,1-.9-.84,4,4,0,0,1-.53-1.38,10.73,10.73,0,0,1-.17-2.06V18.56a3.82,3.82,0,0,1,.1-.92,1.14,1.14,0,0,1,.48-.7,2.31,2.31,0,0,1,1.32-.28,2.26,2.26,0,0,1,1.28.28,1.18,1.18,0,0,1,.49.7,3.82,3.82,0,0,1,.1.92V29.94a5.54,5.54,0,0,0,0,.66,1,1,0,0,0,.15.41.54.54,0,0,0,.31.2,2,2,0,0,0,.53.05,2.62,2.62,0,0,1,.61.08.89.89,0,0,1,.54.45,2.58,2.58,0,0,1,.22,1.25,2.81,2.81,0,0,1-.22,1.3.88.88,0,0,1-.54.48A2.73,2.73,0,0,1,164.94,34.89Z"/><path class="cls-2" d="M174.17,35.09a6.21,6.21,0,0,1-2.34-.46,7.11,7.11,0,0,1-2.11-1.31,6.24,6.24,0,0,1-1.51-2,5.87,5.87,0,0,1-.56-2.64,6.16,6.16,0,0,1,.51-2.51,6.75,6.75,0,0,1,3.48-3.47,5.92,5.92,0,0,1,2.48-.51,6.29,6.29,0,0,1,3.27.86,6.53,6.53,0,0,1,2.33,2.34,6.31,6.31,0,0,1,.88,3.27,6.22,6.22,0,0,1-2.07,4.75,6.57,6.57,0,0,1-2.08,1.29A6.14,6.14,0,0,1,174.17,35.09Zm0-3.77a2.78,2.78,0,0,0,1.22-.3,2.67,2.67,0,0,0,1-.9,2.53,2.53,0,0,0,.43-1.52,2.74,2.74,0,0,0-.35-1.4,2.41,2.41,0,0,0-1-.94,2.83,2.83,0,0,0-1.41-.34,2.6,2.6,0,0,0-1.34.35,2.65,2.65,0,0,0-.95,1,2.7,2.7,0,0,0-.37,1.39,2.61,2.61,0,0,0,.42,1.51,2.47,2.47,0,0,0,1,.9A3,3,0,0,0,174.12,31.32Z"/><path class="cls-2" d="M187.12,35.1a8.07,8.07,0,0,1-1.48-.15,8.21,8.21,0,0,1-1.54-.44,5.26,5.26,0,0,1-1.25-.67,1.31,1.31,0,0,1-.56-.89,1.24,1.24,0,0,1,0-.54,2.32,2.32,0,0,1,.22-.6,3.78,3.78,0,0,1,.44-.66.89.89,0,0,1,.44-.35,1,1,0,0,1,.58,0,3,3,0,0,1,.8.26c.27.12.54.26.83.4a8.47,8.47,0,0,0,.87.38,2.93,2.93,0,0,0,.93.16,2.35,2.35,0,0,0,1.09-.21.67.67,0,0,0,.38-.59.64.64,0,0,0-.16-.45,1.27,1.27,0,0,0-.45-.3c-.19-.08-.42-.16-.67-.24s-.53-.15-.82-.21-.58-.15-.9-.25a8.93,8.93,0,0,1-1.18-.45,4,4,0,0,1-1.05-.72,3.15,3.15,0,0,1-.74-1.07,4,4,0,0,1-.27-1.56,3.3,3.3,0,0,1,2.22-3.32,7.42,7.42,0,0,1,2.7-.43c.3,0,.6,0,.9.05a5.38,5.38,0,0,1,.89.17c.29.09.58.19.86.3a6.16,6.16,0,0,1,.85.43,1.13,1.13,0,0,1,.78.95,2.1,2.1,0,0,1-.43,1.25,2,2,0,0,1-.57.59.89.89,0,0,1-.63.13,3.75,3.75,0,0,1-.86-.33,8.8,8.8,0,0,0-1-.44,2.79,2.79,0,0,0-1-.2,2,2,0,0,0-.72.11,1,1,0,0,0-.45.3.67.67,0,0,0-.15.44.71.71,0,0,0,.18.51,1.38,1.38,0,0,0,.52.31,4.8,4.8,0,0,0,.75.23l.92.2a13.35,13.35,0,0,1,1.39.34,4.56,4.56,0,0,1,1.3.61,3,3,0,0,1,.95,1.08,3.76,3.76,0,0,1,.36,1.77,3.58,3.58,0,0,1-1.38,3A6.42,6.42,0,0,1,187.12,35.1Z"/><path class="cls-2" d="M202.92,34.91a2.38,2.38,0,0,1-1.3-.27,1.08,1.08,0,0,1-.48-.7,5.49,5.49,0,0,1-.07-.93V24.26a4.36,4.36,0,0,1,.09-.9,1.08,1.08,0,0,1,.49-.69,2.54,2.54,0,0,1,1.32-.26,2,2,0,0,1,1.35.37,1.44,1.44,0,0,1,.43,1.18l-.33.28a2.91,2.91,0,0,1,.3-.43,5.63,5.63,0,0,1,.65-.62,4.1,4.1,0,0,1,.94-.56,2.83,2.83,0,0,1,1.16-.24,4.35,4.35,0,0,1,1.49.24,3.82,3.82,0,0,1,1.2.7,4.55,4.55,0,0,1,.94,1.16,5.79,5.79,0,0,1,.85-1,4.48,4.48,0,0,1,1.17-.8,3.44,3.44,0,0,1,1.53-.33,4.22,4.22,0,0,1,2.49.74,4.6,4.6,0,0,1,1.53,2.12,9.08,9.08,0,0,1,.52,3.32v4.48a3.91,3.91,0,0,1-.1.91,1.15,1.15,0,0,1-.49.7,2.48,2.48,0,0,1-1.31.26,2.41,2.41,0,0,1-1.32-.27,1.09,1.09,0,0,1-.48-.72,5.33,5.33,0,0,1-.07-.91V28.54a3.75,3.75,0,0,0-.19-1.28,1.78,1.78,0,0,0-.53-.83,1.41,1.41,0,0,0-.9-.29,1.72,1.72,0,0,0-1,.28,1.6,1.6,0,0,0-.6.8,3.92,3.92,0,0,0-.2,1.35V33a3.5,3.5,0,0,1-.13.94,1.2,1.2,0,0,1-.54.7,2.44,2.44,0,0,1-1.33.24,2.09,2.09,0,0,1-1.25-.29,1.12,1.12,0,0,1-.45-.73,5.14,5.14,0,0,1-.08-.88V28.54a4.23,4.23,0,0,0-.17-1.3,1.72,1.72,0,0,0-.52-.83,1.51,1.51,0,0,0-.93-.27,1.58,1.58,0,0,0-1,.32,1.85,1.85,0,0,0-.59.87,3.49,3.49,0,0,0-.19,1.21V33a4.42,4.42,0,0,1-.09.92,1,1,0,0,1-.49.69A2.47,2.47,0,0,1,202.92,34.91Z"/><path class="cls-2" d="M231.84,34.91a2.38,2.38,0,0,1-1.37-.33.89.89,0,0,1-.43-.8l.25-.43a3,3,0,0,1-.57.62,4.66,4.66,0,0,1-1.12.65,4.34,4.34,0,0,1-1.66.28,5,5,0,0,1-2.19-.5A5.85,5.85,0,0,1,222.92,33a7,7,0,0,1-1.28-2,6.16,6.16,0,0,1-.47-2.38,5.82,5.82,0,0,1,.48-2.33A6.48,6.48,0,0,1,224.77,23a5,5,0,0,1,2.18-.5,4.09,4.09,0,0,1,1.57.27,3.88,3.88,0,0,1,1.09.61,3.43,3.43,0,0,1,.66.67l-.22-.35a1,1,0,0,1,.44-.91,2.39,2.39,0,0,1,1.38-.31,2.24,2.24,0,0,1,1.29.28,1.11,1.11,0,0,1,.48.72,5.8,5.8,0,0,1,.08.95V33a4.7,4.7,0,0,1-.09.92,1.07,1.07,0,0,1-.48.71A2.37,2.37,0,0,1,231.84,34.91Zm-4.37-3.73a2.13,2.13,0,0,0,1.2-.34,2.57,2.57,0,0,0,.85-.91,2.51,2.51,0,0,0,.32-1.28,2.45,2.45,0,0,0-1.19-2.17,2.36,2.36,0,0,0-1.23-.33,2.33,2.33,0,0,0-1.26.34,2.53,2.53,0,0,0-1.24,2.21,2.34,2.34,0,0,0,.34,1.24,2.56,2.56,0,0,0,.92.9A2.59,2.59,0,0,0,227.47,31.18Z"/><path class="cls-2" d="M237,22.63h2.75l3.45-.09a5.29,5.29,0,0,1,.9.08,1.17,1.17,0,0,1,.7.49,2.47,2.47,0,0,1,.27,1.33,2.4,2.4,0,0,1-.26,1.25,1.24,1.24,0,0,1-.69.51,3.8,3.8,0,0,1-.92.11l-3.28-.08-3,0a1.27,1.27,0,0,1-1-.47,2.5,2.5,0,0,1-.28-1.38,2.08,2.08,0,0,1,.35-1.34A1.26,1.26,0,0,1,237,22.63Zm5.64,12.31a7.9,7.9,0,0,1-2.2-.28,3.53,3.53,0,0,1-1.51-.85,3.62,3.62,0,0,1-.88-1.46,7,7,0,0,1-.28-2.12V20.11a4.31,4.31,0,0,1,.09-.93,1.08,1.08,0,0,1,.49-.66,2.51,2.51,0,0,1,1.3-.26,2.3,2.3,0,0,1,1.3.28,1.1,1.1,0,0,1,.49.71,4.47,4.47,0,0,1,.08.91v9.93a3.1,3.1,0,0,0,.06.66.79.79,0,0,0,.19.39.68.68,0,0,0,.35.17,2.79,2.79,0,0,0,.55.05,4.67,4.67,0,0,1,1,.1,1,1,0,0,1,.66.45,2.19,2.19,0,0,1,.24,1.18,2.4,2.4,0,0,1-.27,1.3,1.11,1.11,0,0,1-.72.47A5.31,5.31,0,0,1,242.64,34.94Z"/><path class="cls-2" d="M253.19,35.17a7.25,7.25,0,0,1-3-.58,5.84,5.84,0,0,1-2.06-1.51,6.25,6.25,0,0,1-1.2-2.09,6.88,6.88,0,0,1-.4-2.3,6.45,6.45,0,0,1,.85-3.33,6.19,6.19,0,0,1,2.37-2.28,7,7,0,0,1,3.46-.84,6.24,6.24,0,0,1,2.51.47,5.23,5.23,0,0,1,1.75,1.2,4.89,4.89,0,0,1,1,1.59,4.25,4.25,0,0,1,.34,1.62,2.82,2.82,0,0,1-.66,2.05,2.28,2.28,0,0,1-1.69.67h-6a1.77,1.77,0,0,0,.46,1.08,2.85,2.85,0,0,0,1,.7,3.64,3.64,0,0,0,1.32.25,8.1,8.1,0,0,0,1-.06,4.43,4.43,0,0,0,.79-.18l.59-.22a4.32,4.32,0,0,1,.48-.19,2.41,2.41,0,0,1,.43-.1,1,1,0,0,1,.67.21,2.06,2.06,0,0,1,.58.72,1.8,1.8,0,0,1,.23.52,1.73,1.73,0,0,1,.07.5,1.35,1.35,0,0,1-.62,1.09,4.68,4.68,0,0,1-1.72.73A11,11,0,0,1,253.19,35.17Zm-2.67-7.4h3.95a1.06,1.06,0,0,0,.58-.14.62.62,0,0,0,.19-.54,1.17,1.17,0,0,0-.27-.77,1.72,1.72,0,0,0-.74-.54,3.18,3.18,0,0,0-2.43.11,2.39,2.39,0,0,0-.94.8A1.84,1.84,0,0,0,250.52,27.77Z"/><path class="cls-2" d="M262.79,35a2.48,2.48,0,0,1-1.31-.26A1.11,1.11,0,0,1,261,34a4.7,4.7,0,0,1-.08-.92V24.32a4.42,4.42,0,0,1,.09-.92,1,1,0,0,1,.49-.69,2.54,2.54,0,0,1,1.32-.26,2.45,2.45,0,0,1,1.26.24,1,1,0,0,1,.49.55,1.68,1.68,0,0,1,.1.53l-.3.15a3.22,3.22,0,0,1,.26-.36,4,4,0,0,1,.59-.55,3.55,3.55,0,0,1,.91-.48,3.43,3.43,0,0,1,1.24-.2l.61,0a4.62,4.62,0,0,1,.7.15,3.16,3.16,0,0,1,.67.3,1.54,1.54,0,0,1,.48.47A1.13,1.13,0,0,1,270,24a3.12,3.12,0,0,1-.47,1.74,1.42,1.42,0,0,1-1.21.71,2.11,2.11,0,0,1-.6-.06.92.92,0,0,1-.28-.15,1,1,0,0,0-.27-.15,1.61,1.61,0,0,0-.54-.06,2.46,2.46,0,0,0-.72.1,1.9,1.9,0,0,0-.62.31,1.5,1.5,0,0,0-.45.52,1.52,1.52,0,0,0-.17.71V33.1a4.46,4.46,0,0,1-.09.91,1,1,0,0,1-.49.69A2.53,2.53,0,0,1,262.79,35Z"/><path class="cls-2" d="M274,20.66a2.56,2.56,0,0,1-1.35-.28,1.11,1.11,0,0,1-.49-.73,5.11,5.11,0,0,1,0-1.91,1.09,1.09,0,0,1,.5-.7,2.73,2.73,0,0,1,1.37-.26,2.35,2.35,0,0,1,1.32.28,1.09,1.09,0,0,1,.49.72,5.05,5.05,0,0,1,.08,1,5.62,5.62,0,0,1-.08.92,1.09,1.09,0,0,1-.49.71A2.53,2.53,0,0,1,274,20.66ZM274,35a2.47,2.47,0,0,1-1.33-.27,1,1,0,0,1-.47-.7,5.33,5.33,0,0,1-.07-.91V24.35a4.53,4.53,0,0,1,.09-.91,1.08,1.08,0,0,1,.49-.7,2.52,2.52,0,0,1,1.32-.26,2.24,2.24,0,0,1,1.29.28,1.07,1.07,0,0,1,.47.71,4.62,4.62,0,0,1,.09.94v8.7a4.53,4.53,0,0,1-.09.91,1.06,1.06,0,0,1-.48.69A2.6,2.6,0,0,1,274,35Z"/><path class="cls-2" d="M288.74,34.94a2.34,2.34,0,0,1-1.38-.33.88.88,0,0,1-.42-.8l.25-.42a2.8,2.8,0,0,1-.58.61,4.11,4.11,0,0,1-1.11.65,4.33,4.33,0,0,1-1.66.29,4.89,4.89,0,0,1-2.19-.51,5.82,5.82,0,0,1-1.83-1.38,7.21,7.21,0,0,1-1.28-2,6.15,6.15,0,0,1-.47-2.37,6,6,0,0,1,.47-2.34,6.72,6.72,0,0,1,1.29-2A6.54,6.54,0,0,1,281.67,23a4.93,4.93,0,0,1,2.18-.49,4.1,4.1,0,0,1,1.57.26,4.32,4.32,0,0,1,1.09.61,3.45,3.45,0,0,1,.66.68l-.22-.35a1,1,0,0,1,.43-.91,2.44,2.44,0,0,1,1.39-.32,2.33,2.33,0,0,1,1.29.28,1.07,1.07,0,0,1,.47.72,4.86,4.86,0,0,1,.09.95V33a4.63,4.63,0,0,1-.09.92,1.11,1.11,0,0,1-.48.72A2.48,2.48,0,0,1,288.74,34.94Zm-4.37-3.73a2.13,2.13,0,0,0,1.2-.34,2.49,2.49,0,0,0,.85-.91,2.58,2.58,0,0,0,.32-1.27,2.62,2.62,0,0,0-.32-1.29,2.5,2.5,0,0,0-.88-.89,2.39,2.39,0,0,0-1.22-.32,2.42,2.42,0,0,0-1.26.33,2.48,2.48,0,0,0-.9.92,2.45,2.45,0,0,0-.34,1.3,2.36,2.36,0,0,0,.33,1.23,2.6,2.6,0,0,0,2.22,1.24Z"/><path class="cls-2" d="M297.91,35a14.14,14.14,0,0,1-1.82-.1,3.9,3.9,0,0,1-1.35-.4,2.42,2.42,0,0,1-.9-.84,4,4,0,0,1-.52-1.38,9.9,9.9,0,0,1-.18-2.06V18.64a3.82,3.82,0,0,1,.1-.92,1.15,1.15,0,0,1,.49-.7,2.27,2.27,0,0,1,1.31-.28,2.24,2.24,0,0,1,1.29.28,1.12,1.12,0,0,1,.48.7,3.82,3.82,0,0,1,.1.92V30a5.86,5.86,0,0,0,0,.66,1,1,0,0,0,.15.41.54.54,0,0,0,.32.2,1.86,1.86,0,0,0,.52.05,2.62,2.62,0,0,1,.61.08.89.89,0,0,1,.54.45,2.56,2.56,0,0,1,.23,1.25,2.93,2.93,0,0,1-.23,1.3.86.86,0,0,1-.54.47A2.29,2.29,0,0,1,297.91,35Z"/><path class="cls-2" d="M307.34,35.2a7.09,7.09,0,0,1-3-.58,6,6,0,0,1-2.07-1.51A6.4,6.4,0,0,1,301.07,31a6.88,6.88,0,0,1-.4-2.3,6.38,6.38,0,0,1,.85-3.32,6.11,6.11,0,0,1,2.36-2.29,6.93,6.93,0,0,1,3.47-.83,6.25,6.25,0,0,1,2.51.46,5.23,5.23,0,0,1,1.75,1.2,4.89,4.89,0,0,1,1,1.59,4.32,4.32,0,0,1,.34,1.62,2.78,2.78,0,0,1-.67,2.05,2.25,2.25,0,0,1-1.68.68h-5.95a1.71,1.71,0,0,0,.46,1.08,2.77,2.77,0,0,0,1,.7,3.41,3.41,0,0,0,1.32.25,8.22,8.22,0,0,0,1-.06,3.7,3.7,0,0,0,.79-.18l.58-.22c.18-.08.34-.14.49-.19a2.41,2.41,0,0,1,.43-.1,1,1,0,0,1,.67.22,2.78,2.78,0,0,1,.81,1.23,2.2,2.2,0,0,1,.06.5,1.34,1.34,0,0,1-.61,1.09,4.85,4.85,0,0,1-1.72.74A11.62,11.62,0,0,1,307.34,35.2Zm-2.67-7.4h3.95a.92.92,0,0,0,.57-.14.59.59,0,0,0,.2-.53,1.23,1.23,0,0,0-.27-.78,1.8,1.8,0,0,0-.74-.54,3.2,3.2,0,0,0-2.44.11,2.36,2.36,0,0,0-.93.8A1.89,1.89,0,0,0,304.67,27.8Z"/><path class="cls-2" d="M319.56,35.18a8.73,8.73,0,0,1-3-.59,5.07,5.07,0,0,1-1.25-.67,1.28,1.28,0,0,1-.56-.89,1.41,1.41,0,0,1,0-.54,2.37,2.37,0,0,1,.23-.6,3.78,3.78,0,0,1,.44-.66.87.87,0,0,1,.43-.35,1,1,0,0,1,.59,0,3.11,3.11,0,0,1,.8.26c.27.12.54.26.83.4a6.68,6.68,0,0,0,.87.37,2.69,2.69,0,0,0,.93.17A2.3,2.3,0,0,0,321,31.9a.66.66,0,0,0,.39-.59.62.62,0,0,0-.16-.45,1.27,1.27,0,0,0-.45-.3,5.28,5.28,0,0,0-.68-.24c-.25-.07-.52-.15-.81-.21s-.58-.15-.9-.25a9.62,9.62,0,0,1-1.19-.45,3.79,3.79,0,0,1-1-.72,3.15,3.15,0,0,1-.74-1.07,3.87,3.87,0,0,1-.28-1.57,3.54,3.54,0,0,1,.57-2.05,3.61,3.61,0,0,1,1.66-1.26,7.35,7.35,0,0,1,2.7-.43c.3,0,.6,0,.9.05a5.38,5.38,0,0,1,.89.17c.29.09.58.19.86.3a6.79,6.79,0,0,1,.85.43,1.13,1.13,0,0,1,.78.95,2.1,2.1,0,0,1-.43,1.25,2,2,0,0,1-.58.59.86.86,0,0,1-.62.13,3.86,3.86,0,0,1-.86-.33,9.71,9.71,0,0,0-1-.44,2.63,2.63,0,0,0-1-.2,2.24,2.24,0,0,0-.73.11.94.94,0,0,0-.45.3.67.67,0,0,0-.15.44.73.73,0,0,0,.19.51,1.58,1.58,0,0,0,.51.31,5.58,5.58,0,0,0,.75.23l.93.2a11.22,11.22,0,0,1,1.39.34,4.69,4.69,0,0,1,1.3.61,3,3,0,0,1,.94,1.08,3.64,3.64,0,0,1,.37,1.77,3.55,3.55,0,0,1-1.38,3A6.38,6.38,0,0,1,319.56,35.18Z"/><path class="cls-4" d="M47,41.85a4.25,4.25,0,0,1-3.51-1.36c-.73-.91-1.09-2.5-1.09-4.77H34.82a5.29,5.29,0,0,1-3.93-1.3,4.61,4.61,0,0,1-1.28-3.36,7.2,7.2,0,0,1,1.1-3.95q2.9-4.66,6.53-10.08a6.64,6.64,0,0,1,5.83-3.19l3.54,0c2,0,3.33.34,4,1A4.92,4.92,0,0,1,51.7,18.5V29.59a3.69,3.69,0,0,1,2.41.88,3.33,3.33,0,0,1,.65,2.27,2.84,2.84,0,0,1-.7,2.2,4.07,4.07,0,0,1-2.36.74c0,2.21-.4,3.79-1.19,4.74A4.34,4.34,0,0,1,47,41.85Zm-4.64-12.1.13-8.94L37,29.75Z"/><path class="cls-4" d="M57.31,39a2.78,2.78,0,0,1,1.16-2.31,5.38,5.38,0,0,1,3.28-.88c3,0,4.44,1.07,4.44,3.19a3.11,3.11,0,0,1-.57,2,2.73,2.73,0,0,1-1.51,1,9.17,9.17,0,0,1-2.36.26,6.13,6.13,0,0,1-3.18-.76A2.62,2.62,0,0,1,57.31,39Z"/><path class="cls-5" d="M47,41.85a4.25,4.25,0,0,1-3.51-1.36c-.73-.91-1.09-2.5-1.09-4.77H34.82a5.29,5.29,0,0,1-3.93-1.3,4.61,4.61,0,0,1-1.28-3.36,7.2,7.2,0,0,1,1.1-3.95q2.9-4.66,6.53-10.08a6.64,6.64,0,0,1,5.83-3.19l3.54,0c2,0,3.33.34,4,1A4.92,4.92,0,0,1,51.7,18.5V29.59a3.69,3.69,0,0,1,2.41.88,3.33,3.33,0,0,1,.65,2.27,2.84,2.84,0,0,1-.7,2.2,4.07,4.07,0,0,1-2.36.74c0,2.21-.4,3.79-1.19,4.74A4.34,4.34,0,0,1,47,41.85Zm-4.64-12.1.13-8.94L37,29.75Z"/><path class="cls-5" d="M57.31,39a2.78,2.78,0,0,1,1.16-2.31,5.38,5.38,0,0,1,3.28-.88c3,0,4.44,1.07,4.44,3.19a3.11,3.11,0,0,1-.57,2,2.73,2.73,0,0,1-1.51,1,9.17,9.17,0,0,1-2.36.26,6.13,6.13,0,0,1-3.18-.76A2.62,2.62,0,0,1,57.31,39Z"/></g></g></svg>