<svg xmlns="http://www.w3.org/2000/svg" viewBox="0 0 399.98 82.66"><defs><style>.cls-1{fill:#cf5c05;}.cls-2{fill:#fff;}.cls-3{fill:none;stroke:#32b228;stroke-linejoin:round;stroke-width:5px;}</style></defs><title>tpg</title><g id="Layer_2" data-name="Layer 2"><g id="pestaña_identificativa" data-name="pestaña identificativa"><rect class="cls-1" width="399.98" height="82.66" rx="32.4"/><path class="cls-2" d="M33.38,34.84a2.44,2.44,0,0,1-1.32-.28,1.09,1.09,0,0,1-.49-.72,4.73,4.73,0,0,1-.08-.93V19.26a4.45,4.45,0,0,1,.1-.91,1.17,1.17,0,0,1,.51-.71,2.31,2.31,0,0,1,1.32-.28h5.13a6.29,6.29,0,0,1,2.09.38,5.94,5.94,0,0,1,4,5.8,5.93,5.93,0,0,1-.57,2.69,5.85,5.85,0,0,1-1.47,1.91,6.26,6.26,0,0,1-2,1.15,6.46,6.46,0,0,1-2.13.37h-3.2v3.28a3.91,3.91,0,0,1-.1.91,1.15,1.15,0,0,1-.5.71A2.37,2.37,0,0,1,33.38,34.84Zm1.93-9h3.23a2.64,2.64,0,0,0,1.09-.23,2.12,2.12,0,0,0,.9-.76,2.65,2.65,0,0,0,0-2.58,2.2,2.2,0,0,0-.84-.82,2.43,2.43,0,0,0-1.22-.31h-3.2Z"/><path class="cls-2" d="M48.66,34.85a2.35,2.35,0,0,1-1.31-.27,1.07,1.07,0,0,1-.48-.71,4.73,4.73,0,0,1-.08-.93V24.22a4.59,4.59,0,0,1,.09-.93,1,1,0,0,1,.49-.68,2.42,2.42,0,0,1,1.32-.26,2.6,2.6,0,0,1,1.26.23,1.1,1.1,0,0,1,.49.55,1.73,1.73,0,0,1,.1.54l-.3.15a2.48,2.48,0,0,1,.26-.36,3.2,3.2,0,0,1,.59-.55,3.9,3.9,0,0,1,.91-.49,3.62,3.62,0,0,1,1.24-.2c.19,0,.39,0,.61,0a4.62,4.62,0,0,1,.7.15,3.16,3.16,0,0,1,.67.3,1.63,1.63,0,0,1,.48.46,1.16,1.16,0,0,1,.19.68,3.06,3.06,0,0,1-.48,1.74,1.4,1.4,0,0,1-1.2.71,2.11,2.11,0,0,1-.6-.06,1.77,1.77,0,0,1-.28-.15,1.17,1.17,0,0,0-.27-.15,1.35,1.35,0,0,0-.55-.07,2.77,2.77,0,0,0-.71.1,2.12,2.12,0,0,0-.62.31,1.53,1.53,0,0,0-.62,1.24V33a4.53,4.53,0,0,1-.09.91,1,1,0,0,1-.49.69A2.64,2.64,0,0,1,48.66,34.85Z"/><path class="cls-2" d="M63.86,35.05a6.29,6.29,0,0,1-2.34-.46,7.24,7.24,0,0,1-2.11-1.31,6.38,6.38,0,0,1-1.51-2,6,6,0,0,1-.56-2.64,6.16,6.16,0,0,1,.51-2.51,6.75,6.75,0,0,1,3.48-3.47,5.94,5.94,0,0,1,2.49-.52,6.36,6.36,0,0,1,3.26.87,6.56,6.56,0,0,1,2.34,2.34,6.67,6.67,0,0,1,.3,6,6.21,6.21,0,0,1-1.5,2,6.53,6.53,0,0,1-2.07,1.29A6.15,6.15,0,0,1,63.86,35.05Zm0-3.77A2.85,2.85,0,0,0,65,31a2.81,2.81,0,0,0,1-.9,2.6,2.6,0,0,0,.42-1.52,2.65,2.65,0,0,0-.35-1.4,2.41,2.41,0,0,0-1-.94,2.83,2.83,0,0,0-1.41-.34,2.6,2.6,0,0,0-1.34.35,2.65,2.65,0,0,0-1,1,2.69,2.69,0,0,0-.36,1.39,2.6,2.6,0,0,0,.41,1.51,2.43,2.43,0,0,0,1,.9A2.9,2.9,0,0,0,63.81,31.28Z"/><path class="cls-2" d="M74,40a2.4,2.4,0,0,1-1.3-.27,1,1,0,0,1-.47-.67,5,5,0,0,1-.08-.89v-14a5.14,5.14,0,0,1,.08-.91,1,1,0,0,1,.46-.68A2.24,2.24,0,0,1,74,22.36a2.84,2.84,0,0,1,1.23.23,1.35,1.35,0,0,1,.67.7v14.9a3.36,3.36,0,0,1-.08.9,1.11,1.11,0,0,1-.49.68A2.37,2.37,0,0,1,74,40Zm4.8-5.4a4.35,4.35,0,0,1-3.68-1.82,6,6,0,0,1-.93-1.93,8.31,8.31,0,0,1-.28-2.38,8.53,8.53,0,0,1,.32-2.34,6.53,6.53,0,0,1,.94-2,4.3,4.3,0,0,1,1.53-1.35,4.47,4.47,0,0,1,2.11-.49,4.76,4.76,0,0,1,2.15.51,6.19,6.19,0,0,1,1.84,1.36,6.44,6.44,0,0,1,1.27,2,6.14,6.14,0,0,1,.46,2.37,6.14,6.14,0,0,1-1.73,4.3A5.92,5.92,0,0,1,81,34.18,5.2,5.2,0,0,1,78.83,34.64Zm-.49-3.53a2.41,2.41,0,0,0,1.25-.33,2.59,2.59,0,0,0,.88-.92,2.39,2.39,0,0,0,.34-1.27,2.64,2.64,0,0,0-.32-1.28,2.4,2.4,0,0,0-.89-.9,2.49,2.49,0,0,0-1.24-.32,2.28,2.28,0,0,0-1.23.34,2.35,2.35,0,0,0-.88.89,2.57,2.57,0,0,0-.31,1.27,2.6,2.6,0,0,0,.32,1.27,2.51,2.51,0,0,0,.88.92A2.26,2.26,0,0,0,78.34,31.11Z"/><path class="cls-2" d="M92.61,35.07a6.25,6.25,0,0,1-2.34-.46,7.06,7.06,0,0,1-2.11-1.32,6.23,6.23,0,0,1-1.51-2,6.07,6.07,0,0,1-.56-2.64,6.16,6.16,0,0,1,.51-2.51A6.67,6.67,0,0,1,88,24a6.79,6.79,0,0,1,2.07-1.41,6.09,6.09,0,0,1,2.49-.51,6.26,6.26,0,0,1,3.26.87,6.45,6.45,0,0,1,2.33,2.34,6.61,6.61,0,0,1,.31,6,6.35,6.35,0,0,1-1.5,2,6.53,6.53,0,0,1-2.07,1.29A6.36,6.36,0,0,1,92.61,35.07Zm0-3.77a2.85,2.85,0,0,0,1.23-.3,2.81,2.81,0,0,0,1-.9,2.61,2.61,0,0,0,.42-1.53,2.67,2.67,0,0,0-.35-1.4,2.39,2.39,0,0,0-1-.93,2.83,2.83,0,0,0-1.41-.34,2.51,2.51,0,0,0-1.34.35,2.65,2.65,0,0,0-1,1,2.69,2.69,0,0,0-.36,1.39,2.6,2.6,0,0,0,.41,1.51,2.43,2.43,0,0,0,1,.9A2.9,2.9,0,0,0,92.56,31.3Zm-1-9.83a.86.86,0,0,1-.74-.25,2.63,2.63,0,0,1-.51-1,2.11,2.11,0,0,1-.1-1.3,1.4,1.4,0,0,1,.93-.67l4.4-1.35a.87.87,0,0,1,.72.29,2.35,2.35,0,0,1,.5,1,1.83,1.83,0,0,1,.09,1.28,1.32,1.32,0,0,1-.91.67Z"/><path class="cls-2" d="M105.56,35.08a8.15,8.15,0,0,1-1.48-.15,8.68,8.68,0,0,1-1.53-.44,4.9,4.9,0,0,1-1.25-.68,1.26,1.26,0,0,1-.57-.88,1.42,1.42,0,0,1,0-.54,2.32,2.32,0,0,1,.22-.6,4.44,4.44,0,0,1,.44-.66.84.84,0,0,1,.44-.35,1.09,1.09,0,0,1,.59,0,3.28,3.28,0,0,1,.8.27c.26.12.54.25.82.4s.58.26.87.37a2.68,2.68,0,0,0,.93.16,2.2,2.2,0,0,0,1.09-.21.64.64,0,0,0,.39-.58.61.61,0,0,0-.17-.45,1.27,1.27,0,0,0-.45-.3,4,4,0,0,0-.67-.24l-.81-.22a8.76,8.76,0,0,1-.9-.25,6.9,6.9,0,0,1-1.19-.45,4,4,0,0,1-1.05-.71,3.24,3.24,0,0,1-.74-1.08,4,4,0,0,1-.27-1.56,3.61,3.61,0,0,1,.56-2.05,3.51,3.51,0,0,1,1.67-1.26,7.34,7.34,0,0,1,2.7-.44c.3,0,.6,0,.9.06a5.26,5.26,0,0,1,.88.17,7.47,7.47,0,0,1,.87.3,6.68,6.68,0,0,1,.84.43,1.13,1.13,0,0,1,.78.95,2.05,2.05,0,0,1-.43,1.25,2,2,0,0,1-.57.58.85.85,0,0,1-.63.14,4.36,4.36,0,0,1-.86-.34,9.49,9.49,0,0,0-1-.43,2.91,2.91,0,0,0-1-.21,1.94,1.94,0,0,0-.72.12.94.94,0,0,0-.45.3.66.66,0,0,0-.15.43.69.69,0,0,0,.19.52,1.39,1.39,0,0,0,.51.31,4.87,4.87,0,0,0,.75.22l.92.21a13.23,13.23,0,0,1,1.39.33,4.87,4.87,0,0,1,1.3.62,2.91,2.91,0,0,1,1,1.07,3.78,3.78,0,0,1,.36,1.78,3.57,3.57,0,0,1-1.38,3A6.33,6.33,0,0,1,105.56,35.08Z"/><path class="cls-2" d="M115,20.59a2.56,2.56,0,0,1-1.35-.28,1.11,1.11,0,0,1-.49-.73,5.11,5.11,0,0,1,0-1.91,1.09,1.09,0,0,1,.5-.7,2.71,2.71,0,0,1,1.36-.26,2.37,2.37,0,0,1,1.33.28,1.09,1.09,0,0,1,.49.72,6,6,0,0,1,.08,1,4.7,4.7,0,0,1-.09.92,1,1,0,0,1-.48.71A2.53,2.53,0,0,1,115,20.59Zm0,14.3a2.47,2.47,0,0,1-1.33-.27,1,1,0,0,1-.47-.7,5.31,5.31,0,0,1-.08-.91V24.28a4.53,4.53,0,0,1,.09-.91,1.08,1.08,0,0,1,.49-.7,2.52,2.52,0,0,1,1.32-.26,2.24,2.24,0,0,1,1.29.28,1.1,1.1,0,0,1,.47.71,4.62,4.62,0,0,1,.09.94V33a5.4,5.4,0,0,1-.08.91,1.06,1.06,0,0,1-.48.69A2.6,2.6,0,0,1,115,34.89Z"/><path class="cls-2" d="M120.34,22.59h2.75l3.45-.1a4.29,4.29,0,0,1,.9.09,1.1,1.1,0,0,1,.7.49,2.46,2.46,0,0,1,.27,1.32,2.26,2.26,0,0,1-.26,1.25,1.15,1.15,0,0,1-.69.52,3.8,3.8,0,0,1-.92.11l-3.28-.08-3,0a1.23,1.23,0,0,1-1-.46,2.44,2.44,0,0,1-.29-1.39,2.11,2.11,0,0,1,.35-1.33A1.23,1.23,0,0,1,120.34,22.59ZM126,34.89a7.92,7.92,0,0,1-2.2-.27,3.61,3.61,0,0,1-1.51-.86,3.5,3.5,0,0,1-.87-1.46,6.89,6.89,0,0,1-.29-2.11V20.06a4.22,4.22,0,0,1,.09-.92,1,1,0,0,1,.48-.66,2.4,2.4,0,0,1,1.3-.27,2.46,2.46,0,0,1,1.3.28,1.1,1.1,0,0,1,.49.71,4.63,4.63,0,0,1,.09.92V30a3,3,0,0,0,.06.66.79.79,0,0,0,.19.39.69.69,0,0,0,.35.18,2.79,2.79,0,0,0,.55.05,4.16,4.16,0,0,1,1,.1,1,1,0,0,1,.66.45,2.05,2.05,0,0,1,.23,1.17,2.38,2.38,0,0,1-.27,1.3,1,1,0,0,1-.71.48A5.53,5.53,0,0,1,126,34.89Z"/><path class="cls-2" d="M136.33,35.1a6.21,6.21,0,0,1-2.33-.47,6.88,6.88,0,0,1-2.12-1.31,6.53,6.53,0,0,1-1.51-2,6.15,6.15,0,0,1-.56-2.64,6,6,0,0,1,.52-2.51,6.78,6.78,0,0,1,3.47-3.47,6.16,6.16,0,0,1,2.49-.51,6.33,6.33,0,0,1,3.26.86,6.56,6.56,0,0,1,2.34,2.34,6.71,6.71,0,0,1,.31,6,6.5,6.5,0,0,1-3.58,3.32A6.38,6.38,0,0,1,136.33,35.1Zm-.05-3.78a2.85,2.85,0,0,0,1.23-.3,2.67,2.67,0,0,0,1.05-.9A2.58,2.58,0,0,0,139,28.6a2.77,2.77,0,0,0-.35-1.4,2.62,2.62,0,0,0-1-.94,3,3,0,0,0-1.42-.34,2.56,2.56,0,0,0-1.33.35,2.84,2.84,0,0,0-1,1,2.69,2.69,0,0,0-.36,1.39,2.66,2.66,0,0,0,.41,1.51,2.49,2.49,0,0,0,1,.9A2.82,2.82,0,0,0,136.28,31.32Z"/><path class="cls-2" d="M149.28,35.11a8,8,0,0,1-1.47-.15,9.45,9.45,0,0,1-1.54-.44,5.43,5.43,0,0,1-1.25-.68,1.26,1.26,0,0,1-.56-.89,1.36,1.36,0,0,1,0-.53,2.12,2.12,0,0,1,.23-.6,4.24,4.24,0,0,1,.44-.67.87.87,0,0,1,.43-.35,1,1,0,0,1,.59,0,3.55,3.55,0,0,1,.8.26l.82.4c.29.14.58.27.88.38a2.66,2.66,0,0,0,.92.16,2.32,2.32,0,0,0,1.09-.21.65.65,0,0,0,.39-.59.64.64,0,0,0-.16-.45,1.6,1.6,0,0,0-.45-.3c-.19-.08-.42-.16-.68-.24L149,30c-.28-.07-.58-.15-.9-.25a9.05,9.05,0,0,1-1.19-.45,4,4,0,0,1-1.05-.71,3.32,3.32,0,0,1-.73-1.08,3.79,3.79,0,0,1-.28-1.56A3.3,3.3,0,0,1,147,22.67a7.34,7.34,0,0,1,2.7-.44c.3,0,.6,0,.9.05a5.4,5.4,0,0,1,.89.18,7.54,7.54,0,0,1,1.71.72c.5.24.76.55.77.95A2.39,2.39,0,0,1,153,26a.88.88,0,0,1-.62.14,3.93,3.93,0,0,1-.86-.34c-.31-.16-.64-.3-1-.44a2.84,2.84,0,0,0-1-.2,2.24,2.24,0,0,0-.73.11,1.11,1.11,0,0,0-.45.3.75.75,0,0,0,0,.95,1.59,1.59,0,0,0,.51.32,7.67,7.67,0,0,0,.75.22l.93.2c.45.09.91.2,1.38.34a4.71,4.71,0,0,1,1.3.61,2.93,2.93,0,0,1,.95,1.08,3.64,3.64,0,0,1,.37,1.77,3.6,3.6,0,0,1-1.38,3A6.38,6.38,0,0,1,149.28,35.11Z"/><path class="cls-2" d="M168.43,34.59a4.85,4.85,0,0,1-2.16-.49,5.93,5.93,0,0,1-1.79-1.33,6.68,6.68,0,0,1-1.22-2,6,6,0,0,1-.45-2.32,6,6,0,0,1,.45-2.31,6.38,6.38,0,0,1,1.24-1.93,6.06,6.06,0,0,1,1.8-1.32,4.76,4.76,0,0,1,2.11-.49,3.81,3.81,0,0,1,1.9.44,3.26,3.26,0,0,1,1.25,1.25,6.46,6.46,0,0,1,.72,1.93,12.53,12.53,0,0,1,.23,2.48,11.35,11.35,0,0,1-.41,3.22,4.27,4.27,0,0,1-1.3,2.1A3.61,3.61,0,0,1,168.43,34.59Zm.45,5.48a6.91,6.91,0,0,1-1.76-.23,7.49,7.49,0,0,1-1.59-.6,4.71,4.71,0,0,1-1.15-.8,1.23,1.23,0,0,1-.42-.85,1.81,1.81,0,0,1,.15-.74,2.58,2.58,0,0,1,.45-.66,4.94,4.94,0,0,1,.6-.57.87.87,0,0,1,.6-.2,1.1,1.1,0,0,1,.62.18L167,36a3.85,3.85,0,0,0,.79.41,3.35,3.35,0,0,0,1.2.19,2.24,2.24,0,0,0,.93-.19,1.88,1.88,0,0,0,.75-.55,2.65,2.65,0,0,0,.5-.85,2.9,2.9,0,0,0,.19-1.09V23.59a1.21,1.21,0,0,1,.51-.93,2.49,2.49,0,0,1,1.34-.29,2.31,2.31,0,0,1,1.25.26,1.11,1.11,0,0,1,.46.69,4.29,4.29,0,0,1,.09.9V34.1a5.84,5.84,0,0,1-.52,2.53,5.75,5.75,0,0,1-1.4,1.88,6.4,6.4,0,0,1-4.18,1.56Zm0-9.1a2.13,2.13,0,0,0,1.2-.34,2.48,2.48,0,0,0,.84-.89,2.44,2.44,0,0,0,.31-1.25,2.49,2.49,0,0,0-.31-1.25,2.44,2.44,0,0,0-.85-.87,2.27,2.27,0,0,0-1.21-.33,2.13,2.13,0,0,0-1.2.34,2.48,2.48,0,0,0-.84.89,2.44,2.44,0,0,0-.31,1.25,2.32,2.32,0,0,0,.32,1.22,2.62,2.62,0,0,0,.86.89A2.26,2.26,0,0,0,168.86,31Z"/><path class="cls-2" d="M183.76,35.15a7.17,7.17,0,0,1-3-.58,5.8,5.8,0,0,1-2.06-1.51,6.51,6.51,0,0,1-1.2-2.09,7.08,7.08,0,0,1-.39-2.3,6.38,6.38,0,0,1,.85-3.32,6.11,6.11,0,0,1,2.36-2.29,7,7,0,0,1,3.46-.83,6.27,6.27,0,0,1,2.52.46,5.33,5.33,0,0,1,1.75,1.2,5.07,5.07,0,0,1,1,1.59,4.53,4.53,0,0,1,.34,1.62,2.81,2.81,0,0,1-.67,2,2.25,2.25,0,0,1-1.68.68h-5.95a1.71,1.71,0,0,0,.46,1.07,2.81,2.81,0,0,0,1,.7,3.5,3.5,0,0,0,1.33.25,8.22,8.22,0,0,0,1-.06,4.18,4.18,0,0,0,.78-.17c.22-.08.42-.15.59-.23l.49-.19a2.53,2.53,0,0,1,.42-.1,1,1,0,0,1,.68.22,1.9,1.9,0,0,1,.57.71,1.71,1.71,0,0,1,.24.52,2.2,2.2,0,0,1,.06.5,1.34,1.34,0,0,1-.61,1.09,4.66,4.66,0,0,1-1.73.74A11.47,11.47,0,0,1,183.76,35.15Zm-2.67-7.4H185a1,1,0,0,0,.57-.13.65.65,0,0,0,.2-.54,1.25,1.25,0,0,0-.27-.78,1.87,1.87,0,0,0-.74-.54,3.27,3.27,0,0,0-2.44.12,2.28,2.28,0,0,0-.93.8A1.84,1.84,0,0,0,181.09,27.75Z"/><path class="cls-2" d="M193.36,34.91a2.41,2.41,0,0,1-1.32-.27,1.07,1.07,0,0,1-.47-.7,4.46,4.46,0,0,1-.09-.91v-8.8a4.19,4.19,0,0,1,.09-.89,1,1,0,0,1,.48-.66,2.71,2.71,0,0,1,1.33-.25,2.35,2.35,0,0,1,1.17.22,1,1,0,0,1,.49.51,1.5,1.5,0,0,1,.11.56.91.91,0,0,0,.05.36l-.15.48a1.54,1.54,0,0,1,.39-.76,3.74,3.74,0,0,1,.85-.7,4.73,4.73,0,0,1,1.1-.49,3.93,3.93,0,0,1,1.16-.17,5,5,0,0,1,2.14.43,4.37,4.37,0,0,1,1.59,1.27,5.72,5.72,0,0,1,1,1.94,8.16,8.16,0,0,1,.34,2.43v4.55a4.63,4.63,0,0,1-.09.92,1,1,0,0,1-.48.68,2.53,2.53,0,0,1-1.33.25,2.59,2.59,0,0,1-1.33-.26,1.11,1.11,0,0,1-.49-.7,5.4,5.4,0,0,1-.08-.91V28.51a2.87,2.87,0,0,0-.26-1.27,1.88,1.88,0,0,0-.75-.8,2.38,2.38,0,0,0-1.21-.28,2.57,2.57,0,0,0-1.25.29,2.06,2.06,0,0,0-.82.81,2.59,2.59,0,0,0-.28,1.25v4.55a4.46,4.46,0,0,1-.09.91,1,1,0,0,1-.47.69A2.62,2.62,0,0,1,193.36,34.91Z"/><path class="cls-2" d="M212.26,35.17a7.17,7.17,0,0,1-3-.58,5.93,5.93,0,0,1-2.06-1.51A6.61,6.61,0,0,1,206,31a7.12,7.12,0,0,1-.39-2.3,6.38,6.38,0,0,1,.85-3.32,6,6,0,0,1,2.36-2.29,7,7,0,0,1,3.46-.84,6.26,6.26,0,0,1,2.52.47,5.33,5.33,0,0,1,1.75,1.2,5.07,5.07,0,0,1,1,1.59,4.48,4.48,0,0,1,.34,1.62,2.82,2.82,0,0,1-.67,2.05,2.26,2.26,0,0,1-1.69.68h-5.95a1.78,1.78,0,0,0,.47,1.08,2.81,2.81,0,0,0,1,.7,3.5,3.5,0,0,0,1.33.25,8.22,8.22,0,0,0,1-.06,3.6,3.6,0,0,0,.78-.18c.22-.07.42-.15.59-.22s.34-.14.49-.19a2.53,2.53,0,0,1,.42-.1,1,1,0,0,1,.68.21,1.94,1.94,0,0,1,.57.72,1.71,1.71,0,0,1,.24.52,2.2,2.2,0,0,1,.06.5,1.34,1.34,0,0,1-.61,1.09,4.66,4.66,0,0,1-1.73.73A10.91,10.91,0,0,1,212.26,35.17Zm-2.67-7.4h3.95a1,1,0,0,0,.57-.14.61.61,0,0,0,.2-.53,1.23,1.23,0,0,0-.27-.78,1.87,1.87,0,0,0-.74-.54,3.2,3.2,0,0,0-2.44.11,2.47,2.47,0,0,0-.94.8A1.93,1.93,0,0,0,209.59,27.77Z"/><path class="cls-2" d="M221.86,35a2.52,2.52,0,0,1-1.32-.26,1.14,1.14,0,0,1-.47-.72,4.63,4.63,0,0,1-.09-.92V24.32a4.42,4.42,0,0,1,.09-.92,1.07,1.07,0,0,1,.48-.69,2.59,2.59,0,0,1,1.33-.26,2.5,2.5,0,0,1,1.26.24,1.06,1.06,0,0,1,.49.55,2.08,2.08,0,0,1,.1.54l-.3.15a2.39,2.39,0,0,1,.26-.37,4.06,4.06,0,0,1,.59-.55,3.53,3.53,0,0,1,2.15-.68,4.55,4.55,0,0,1,.61,0,3,3,0,0,1,.7.15,2.47,2.47,0,0,1,.66.3,1.55,1.55,0,0,1,.49.46,1.13,1.13,0,0,1,.19.67,3,3,0,0,1-.48,1.74,1.4,1.4,0,0,1-1.2.71,2.11,2.11,0,0,1-.6-.06,1,1,0,0,1-.29-.15.93.93,0,0,0-.26-.15,1.68,1.68,0,0,0-.55-.06,2.34,2.34,0,0,0-.71.1,2,2,0,0,0-.63.31,1.6,1.6,0,0,0-.45.52,1.53,1.53,0,0,0-.16.72V33.1a4.46,4.46,0,0,1-.09.91,1,1,0,0,1-.49.69A2.58,2.58,0,0,1,221.86,35Z"/><path class="cls-2" d="M241.26,34.94a2.34,2.34,0,0,1-1.38-.33.89.89,0,0,1-.42-.8l.25-.42a2.8,2.8,0,0,1-.58.61,4.11,4.11,0,0,1-1.11.65,4.34,4.34,0,0,1-1.66.28,4.88,4.88,0,0,1-2.19-.5A5.74,5.74,0,0,1,232.33,33a7,7,0,0,1-1.27-2,6.13,6.13,0,0,1,0-4.71,6.9,6.9,0,0,1,1.29-2A6.24,6.24,0,0,1,234.19,23a4.93,4.93,0,0,1,2.17-.5,4.11,4.11,0,0,1,1.58.27,4.5,4.5,0,0,1,1.09.61,3.2,3.2,0,0,1,.66.68l-.23-.36a1.05,1.05,0,0,1,.44-.91,2.4,2.4,0,0,1,1.39-.31,2.24,2.24,0,0,1,1.29.28,1.14,1.14,0,0,1,.47.72,4.86,4.86,0,0,1,.09.95V33A4.7,4.7,0,0,1,243,34a1,1,0,0,1-.47.71A2.39,2.39,0,0,1,241.26,34.94Zm-4.38-3.73a2.13,2.13,0,0,0,1.2-.34,2.48,2.48,0,0,0,.85-.91,2.52,2.52,0,0,0,.33-1.28,2.56,2.56,0,0,0-.32-1.28,2.42,2.42,0,0,0-.88-.89,2.33,2.33,0,0,0-1.22-.33,2.49,2.49,0,0,0-1.27.34,2.53,2.53,0,0,0-1.24,2.21,2.43,2.43,0,0,0,.34,1.24,2.59,2.59,0,0,0,.93.9A2.48,2.48,0,0,0,236.88,31.21Z"/><path class="cls-2" d="M250.43,35a16.21,16.21,0,0,1-1.82-.1,3.77,3.77,0,0,1-1.35-.41,2.39,2.39,0,0,1-.9-.83,4,4,0,0,1-.53-1.38,10.81,10.81,0,0,1-.17-2.06V18.64a4,4,0,0,1,.1-.93,1.19,1.19,0,0,1,.48-.7,2.41,2.41,0,0,1,1.32-.27,2.18,2.18,0,0,1,1.28.28,1.15,1.15,0,0,1,.49.7,3.82,3.82,0,0,1,.1.92V30a5.83,5.83,0,0,0,0,.66,1,1,0,0,0,.15.41.54.54,0,0,0,.31.2,2.5,2.5,0,0,0,.53.05,2.62,2.62,0,0,1,.61.08.89.89,0,0,1,.54.45,2.55,2.55,0,0,1,.22,1.25,2.81,2.81,0,0,1-.22,1.3.89.89,0,0,1-.54.47A2.74,2.74,0,0,1,250.43,35Z"/><path class="cls-2" d="M259.86,35.2a7.29,7.29,0,0,1-3-.58,5.84,5.84,0,0,1-2.06-1.51,6.61,6.61,0,0,1-1.2-2.09,7.19,7.19,0,0,1-.4-2.3,6.45,6.45,0,0,1,.86-3.33,6.09,6.09,0,0,1,2.36-2.28,7,7,0,0,1,3.46-.84,6.26,6.26,0,0,1,2.52.47,5,5,0,0,1,1.74,1.2,5.1,5.1,0,0,1,1,1.59,4.23,4.23,0,0,1,.33,1.62,2.82,2.82,0,0,1-.66,2.05,2.25,2.25,0,0,1-1.69.67h-5.95a1.78,1.78,0,0,0,.47,1.08,2.81,2.81,0,0,0,1,.7,3.7,3.7,0,0,0,1.33.25,8.22,8.22,0,0,0,1-.06,4.3,4.3,0,0,0,.78-.18c.22-.07.41-.15.59-.22s.34-.14.49-.19a2.53,2.53,0,0,1,.42-.1,1,1,0,0,1,.68.21,2,2,0,0,1,.57.72,1.61,1.61,0,0,1,.24.52,2.14,2.14,0,0,1,.06.5,1.34,1.34,0,0,1-.61,1.09,4.74,4.74,0,0,1-1.73.73A10.91,10.91,0,0,1,259.86,35.2Zm-2.68-7.4h4a1,1,0,0,0,.57-.14.62.62,0,0,0,.2-.54,1.23,1.23,0,0,0-.27-.77,1.78,1.78,0,0,0-.74-.54,2.8,2.8,0,0,0-1.09-.19,3,3,0,0,0-1.35.3,2.47,2.47,0,0,0-.94.8A1.92,1.92,0,0,0,257.18,27.8Z"/><path class="cls-2" d="M272.08,35.18A8.15,8.15,0,0,1,270.6,35a8.68,8.68,0,0,1-1.53-.44,5.08,5.08,0,0,1-1.25-.68,1.38,1.38,0,0,1-.55-1.42,2.76,2.76,0,0,1,.22-.6,4.44,4.44,0,0,1,.44-.66.88.88,0,0,1,.44-.35,1.09,1.09,0,0,1,.59,0,3.28,3.28,0,0,1,.8.27c.26.12.54.25.82.4s.58.26.88.37a2.62,2.62,0,0,0,.92.16,2.32,2.32,0,0,0,1.09-.21.64.64,0,0,0,.39-.58.65.65,0,0,0-.16-.45,1.27,1.27,0,0,0-.45-.3,4.46,4.46,0,0,0-.68-.24l-.81-.22a8.76,8.76,0,0,1-.9-.25,6.9,6.9,0,0,1-1.19-.45,4,4,0,0,1-1.05-.71,3.08,3.08,0,0,1-.73-1.08,3.79,3.79,0,0,1-.28-1.56,3.61,3.61,0,0,1,.56-2.05,3.51,3.51,0,0,1,1.67-1.26,7.34,7.34,0,0,1,2.7-.44,6.8,6.8,0,0,1,.9.06,5.58,5.58,0,0,1,.89.17,7.33,7.33,0,0,1,.86.3,7.55,7.55,0,0,1,.85.43,1.1,1.1,0,0,1,.77.95,2,2,0,0,1-.42,1.25,2.12,2.12,0,0,1-.58.58.83.83,0,0,1-.62.14,4.2,4.2,0,0,1-.87-.34,9.49,9.49,0,0,0-1-.43,2.63,2.63,0,0,0-1-.2,2,2,0,0,0-.73.11.94.94,0,0,0-.45.3.66.66,0,0,0-.15.43.69.69,0,0,0,.19.52,1.39,1.39,0,0,0,.51.31,5.64,5.64,0,0,0,.75.22l.93.21a13.06,13.06,0,0,1,1.38.33,4.73,4.73,0,0,1,1.3.62,2.91,2.91,0,0,1,.95,1.07,3.78,3.78,0,0,1,.36,1.78,3.59,3.59,0,0,1-1.37,3A6.38,6.38,0,0,1,272.08,35.18Z"/><path class="cls-3" d="M33.38,34.84a2.44,2.44,0,0,1-1.32-.28,1.09,1.09,0,0,1-.49-.72,4.73,4.73,0,0,1-.08-.93V19.26a4.45,4.45,0,0,1,.1-.91,1.17,1.17,0,0,1,.51-.71,2.31,2.31,0,0,1,1.32-.28h5.13a6.29,6.29,0,0,1,2.09.38,5.94,5.94,0,0,1,4,5.8,5.93,5.93,0,0,1-.57,2.69,5.85,5.85,0,0,1-1.47,1.91,6.26,6.26,0,0,1-2,1.15,6.46,6.46,0,0,1-2.13.37h-3.2v3.28a3.91,3.91,0,0,1-.1.91,1.15,1.15,0,0,1-.5.71A2.37,2.37,0,0,1,33.38,34.84Zm1.93-9h3.23a2.64,2.64,0,0,0,1.09-.23,2.12,2.12,0,0,0,.9-.76,2.65,2.65,0,0,0,0-2.58,2.2,2.2,0,0,0-.84-.82,2.43,2.43,0,0,0-1.22-.31h-3.2Z"/><path class="cls-3" d="M48.66,34.85a2.35,2.35,0,0,1-1.31-.27,1.07,1.07,0,0,1-.48-.71,4.73,4.73,0,0,1-.08-.93V24.22a4.59,4.59,0,0,1,.09-.93,1,1,0,0,1,.49-.68,2.42,2.42,0,0,1,1.32-.26,2.6,2.6,0,0,1,1.26.23,1.1,1.1,0,0,1,.49.55,1.73,1.73,0,0,1,.1.54l-.3.15a2.48,2.48,0,0,1,.26-.36,3.2,3.2,0,0,1,.59-.55,3.9,3.9,0,0,1,.91-.49,3.62,3.62,0,0,1,1.24-.2c.19,0,.39,0,.61,0a4.62,4.62,0,0,1,.7.15,3.16,3.16,0,0,1,.67.3,1.63,1.63,0,0,1,.48.46,1.16,1.16,0,0,1,.19.68,3.06,3.06,0,0,1-.48,1.74,1.4,1.4,0,0,1-1.2.71,2.11,2.11,0,0,1-.6-.06,1.77,1.77,0,0,1-.28-.15,1.17,1.17,0,0,0-.27-.15,1.35,1.35,0,0,0-.55-.07,2.77,2.77,0,0,0-.71.1,2.12,2.12,0,0,0-.62.31,1.53,1.53,0,0,0-.62,1.24V33a4.53,4.53,0,0,1-.09.91,1,1,0,0,1-.49.69A2.64,2.64,0,0,1,48.66,34.85Z"/><path class="cls-3" d="M63.86,35.05a6.29,6.29,0,0,1-2.34-.46,7.24,7.24,0,0,1-2.11-1.31,6.38,6.38,0,0,1-1.51-2,6,6,0,0,1-.56-2.64,6.16,6.16,0,0,1,.51-2.51,6.75,6.75,0,0,1,3.48-3.47,5.94,5.94,0,0,1,2.49-.52,6.36,6.36,0,0,1,3.26.87,6.56,6.56,0,0,1,2.34,2.34,6.67,6.67,0,0,1,.3,6,6.21,6.21,0,0,1-1.5,2,6.53,6.53,0,0,1-2.07,1.29A6.15,6.15,0,0,1,63.86,35.05Zm0-3.77A2.85,2.85,0,0,0,65,31a2.81,2.81,0,0,0,1-.9,2.6,2.6,0,0,0,.42-1.52,2.65,2.65,0,0,0-.35-1.4,2.41,2.41,0,0,0-1-.94,2.83,2.83,0,0,0-1.41-.34,2.6,2.6,0,0,0-1.34.35,2.65,2.65,0,0,0-1,1,2.69,2.69,0,0,0-.36,1.39,2.6,2.6,0,0,0,.41,1.51,2.43,2.43,0,0,0,1,.9A2.9,2.9,0,0,0,63.81,31.28Z"/><path class="cls-3" d="M74,40a2.4,2.4,0,0,1-1.3-.27,1,1,0,0,1-.47-.67,5,5,0,0,1-.08-.89v-14a5.14,5.14,0,0,1,.08-.91,1,1,0,0,1,.46-.68A2.24,2.24,0,0,1,74,22.36a2.84,2.84,0,0,1,1.23.23,1.35,1.35,0,0,1,.67.7v14.9a3.36,3.36,0,0,1-.08.9,1.11,1.11,0,0,1-.49.68A2.37,2.37,0,0,1,74,40Zm4.8-5.4a4.35,4.35,0,0,1-3.68-1.82,6,6,0,0,1-.93-1.93,8.31,8.31,0,0,1-.28-2.38,8.53,8.53,0,0,1,.32-2.34,6.53,6.53,0,0,1,.94-2,4.3,4.3,0,0,1,1.53-1.35,4.47,4.47,0,0,1,2.11-.49,4.76,4.76,0,0,1,2.15.51,6.19,6.19,0,0,1,1.84,1.36,6.44,6.44,0,0,1,1.27,2,6.14,6.14,0,0,1,.46,2.37,6.14,6.14,0,0,1-1.73,4.3A5.92,5.92,0,0,1,81,34.18,5.2,5.2,0,0,1,78.83,34.64Zm-.49-3.53a2.41,2.41,0,0,0,1.25-.33,2.59,2.59,0,0,0,.88-.92,2.39,2.39,0,0,0,.34-1.27,2.64,2.64,0,0,0-.32-1.28,2.4,2.4,0,0,0-.89-.9,2.49,2.49,0,0,0-1.24-.32,2.28,2.28,0,0,0-1.23.34,2.35,2.35,0,0,0-.88.89,2.57,2.57,0,0,0-.31,1.27,2.6,2.6,0,0,0,.32,1.27,2.51,2.51,0,0,0,.88.92A2.26,2.26,0,0,0,78.34,31.11Z"/><path class="cls-3" d="M92.61,35.07a6.25,6.25,0,0,1-2.34-.46,7.06,7.06,0,0,1-2.11-1.32,6.23,6.23,0,0,1-1.51-2,6.07,6.07,0,0,1-.56-2.64,6.16,6.16,0,0,1,.51-2.51A6.67,6.67,0,0,1,88,24a6.79,6.79,0,0,1,2.07-1.41,6.09,6.09,0,0,1,2.49-.51,6.26,6.26,0,0,1,3.26.87,6.45,6.45,0,0,1,2.33,2.34,6.61,6.61,0,0,1,.31,6,6.35,6.35,0,0,1-1.5,2,6.53,6.53,0,0,1-2.07,1.29A6.36,6.36,0,0,1,92.61,35.07Zm0-3.77a2.85,2.85,0,0,0,1.23-.3,2.81,2.81,0,0,0,1-.9,2.61,2.61,0,0,0,.42-1.53,2.67,2.67,0,0,0-.35-1.4,2.39,2.39,0,0,0-1-.93,2.83,2.83,0,0,0-1.41-.34,2.51,2.51,0,0,0-1.34.35,2.65,2.65,0,0,0-1,1,2.69,2.69,0,0,0-.36,1.39,2.6,2.6,0,0,0,.41,1.51,2.43,2.43,0,0,0,1,.9A2.9,2.9,0,0,0,92.56,31.3Zm-1-9.83a.86.86,0,0,1-.74-.25,2.63,2.63,0,0,1-.51-1,2.11,2.11,0,0,1-.1-1.3,1.4,1.4,0,0,1,.93-.67l4.4-1.35a.87.87,0,0,1,.72.29,2.35,2.35,0,0,1,.5,1,1.83,1.83,0,0,1,.09,1.28,1.32,1.32,0,0,1-.91.67Z"/><path class="cls-3" d="M105.56,35.08a8.15,8.15,0,0,1-1.48-.15,8.68,8.68,0,0,1-1.53-.44,4.9,4.9,0,0,1-1.25-.68,1.26,1.26,0,0,1-.57-.88,1.42,1.42,0,0,1,0-.54,2.32,2.32,0,0,1,.22-.6,4.44,4.44,0,0,1,.44-.66.84.84,0,0,1,.44-.35,1.09,1.09,0,0,1,.59,0,3.28,3.28,0,0,1,.8.27c.26.12.54.25.82.4s.58.26.87.37a2.68,2.68,0,0,0,.93.16,2.2,2.2,0,0,0,1.09-.21.64.64,0,0,0,.39-.58.61.61,0,0,0-.17-.45,1.27,1.27,0,0,0-.45-.3,4,4,0,0,0-.67-.24l-.81-.22a8.76,8.76,0,0,1-.9-.25,6.9,6.9,0,0,1-1.19-.45,4,4,0,0,1-1.05-.71,3.24,3.24,0,0,1-.74-1.08,4,4,0,0,1-.27-1.56,3.61,3.61,0,0,1,.56-2.05,3.51,3.51,0,0,1,1.67-1.26,7.34,7.34,0,0,1,2.7-.44c.3,0,.6,0,.9.06a5.26,5.26,0,0,1,.88.17,7.47,7.47,0,0,1,.87.3,6.68,6.68,0,0,1,.84.43,1.13,1.13,0,0,1,.78.95,2.05,2.05,0,0,1-.43,1.25,2,2,0,0,1-.57.58.85.85,0,0,1-.63.14,4.36,4.36,0,0,1-.86-.34,9.49,9.49,0,0,0-1-.43,2.91,2.91,0,0,0-1-.21,1.94,1.94,0,0,0-.72.12.94.94,0,0,0-.45.3.66.66,0,0,0-.15.43.69.69,0,0,0,.19.52,1.39,1.39,0,0,0,.51.31,4.87,4.87,0,0,0,.75.22l.92.21a13.23,13.23,0,0,1,1.39.33,4.87,4.87,0,0,1,1.3.62,2.91,2.91,0,0,1,1,1.07,3.78,3.78,0,0,1,.36,1.78,3.57,3.57,0,0,1-1.38,3A6.33,6.33,0,0,1,105.56,35.08Z"/><path class="cls-3" d="M115,20.59a2.56,2.56,0,0,1-1.35-.28,1.11,1.11,0,0,1-.49-.73,5.11,5.11,0,0,1,0-1.91,1.09,1.09,0,0,1,.5-.7,2.71,2.71,0,0,1,1.36-.26,2.37,2.37,0,0,1,1.33.28,1.09,1.09,0,0,1,.49.72,6,6,0,0,1,.08,1,4.7,4.7,0,0,1-.09.92,1,1,0,0,1-.48.71A2.53,2.53,0,0,1,115,20.59Zm0,14.3a2.47,2.47,0,0,1-1.33-.27,1,1,0,0,1-.47-.7,5.31,5.31,0,0,1-.08-.91V24.28a4.53,4.53,0,0,1,.09-.91,1.08,1.08,0,0,1,.49-.7,2.52,2.52,0,0,1,1.32-.26,2.24,2.24,0,0,1,1.29.28,1.1,1.1,0,0,1,.47.71,4.62,4.62,0,0,1,.09.94V33a5.4,5.4,0,0,1-.08.91,1.06,1.06,0,0,1-.48.69A2.6,2.6,0,0,1,115,34.89Z"/><path class="cls-3" d="M120.34,22.59h2.75l3.45-.1a4.29,4.29,0,0,1,.9.09,1.1,1.1,0,0,1,.7.49,2.46,2.46,0,0,1,.27,1.32,2.26,2.26,0,0,1-.26,1.25,1.15,1.15,0,0,1-.69.52,3.8,3.8,0,0,1-.92.11l-3.28-.08-3,0a1.23,1.23,0,0,1-1-.46,2.44,2.44,0,0,1-.29-1.39,2.11,2.11,0,0,1,.35-1.33A1.23,1.23,0,0,1,120.34,22.59ZM126,34.89a7.92,7.92,0,0,1-2.2-.27,3.61,3.61,0,0,1-1.51-.86,3.5,3.5,0,0,1-.87-1.46,6.89,6.89,0,0,1-.29-2.11V20.06a4.22,4.22,0,0,1,.09-.92,1,1,0,0,1,.48-.66,2.4,2.4,0,0,1,1.3-.27,2.46,2.46,0,0,1,1.3.28,1.1,1.1,0,0,1,.49.71,4.63,4.63,0,0,1,.09.92V30a3,3,0,0,0,.06.66.79.79,0,0,0,.19.39.69.69,0,0,0,.35.18,2.79,2.79,0,0,0,.55.05,4.16,4.16,0,0,1,1,.1,1,1,0,0,1,.66.45,2.05,2.05,0,0,1,.23,1.17,2.38,2.38,0,0,1-.27,1.3,1,1,0,0,1-.71.48A5.53,5.53,0,0,1,126,34.89Z"/><path class="cls-3" d="M136.33,35.1a6.21,6.21,0,0,1-2.33-.47,6.88,6.88,0,0,1-2.12-1.31,6.53,6.53,0,0,1-1.51-2,6.15,6.15,0,0,1-.56-2.64,6,6,0,0,1,.52-2.51,6.78,6.78,0,0,1,3.47-3.47,6.16,6.16,0,0,1,2.49-.51,6.33,6.33,0,0,1,3.26.86,6.56,6.56,0,0,1,2.34,2.34,6.71,6.71,0,0,1,.31,6,6.5,6.5,0,0,1-3.58,3.32A6.38,6.38,0,0,1,136.33,35.1Zm-.05-3.78a2.85,2.85,0,0,0,1.23-.3,2.67,2.67,0,0,0,1.05-.9A2.58,2.58,0,0,0,139,28.6a2.77,2.77,0,0,0-.35-1.4,2.62,2.62,0,0,0-1-.94,3,3,0,0,0-1.42-.34,2.56,2.56,0,0,0-1.33.35,2.84,2.84,0,0,0-1,1,2.69,2.69,0,0,0-.36,1.39,2.66,2.66,0,0,0,.41,1.51,2.49,2.49,0,0,0,1,.9A2.82,2.82,0,0,0,136.28,31.32Z"/><path class="cls-3" d="M149.28,35.11a8,8,0,0,1-1.47-.15,9.45,9.45,0,0,1-1.54-.44,5.43,5.43,0,0,1-1.25-.68,1.26,1.26,0,0,1-.56-.89,1.36,1.36,0,0,1,0-.53,2.12,2.12,0,0,1,.23-.6,4.24,4.24,0,0,1,.44-.67.87.87,0,0,1,.43-.35,1,1,0,0,1,.59,0,3.55,3.55,0,0,1,.8.26l.82.4c.29.14.58.27.88.38a2.66,2.66,0,0,0,.92.16,2.32,2.32,0,0,0,1.09-.21.65.65,0,0,0,.39-.59.64.64,0,0,0-.16-.45,1.6,1.6,0,0,0-.45-.3c-.19-.08-.42-.16-.68-.24L149,30c-.28-.07-.58-.15-.9-.25a9.05,9.05,0,0,1-1.19-.45,4,4,0,0,1-1.05-.71,3.32,3.32,0,0,1-.73-1.08,3.79,3.79,0,0,1-.28-1.56A3.3,3.3,0,0,1,147,22.67a7.34,7.34,0,0,1,2.7-.44c.3,0,.6,0,.9.05a5.4,5.4,0,0,1,.89.18,7.54,7.54,0,0,1,1.71.72c.5.24.76.55.77.95A2.39,2.39,0,0,1,153,26a.88.88,0,0,1-.62.14,3.93,3.93,0,0,1-.86-.34c-.31-.16-.64-.3-1-.44a2.84,2.84,0,0,0-1-.2,2.24,2.24,0,0,0-.73.11,1.11,1.11,0,0,0-.45.3.75.75,0,0,0,0,.95,1.59,1.59,0,0,0,.51.32,7.67,7.67,0,0,0,.75.22l.93.2c.45.09.91.2,1.38.34a4.71,4.71,0,0,1,1.3.61,2.93,2.93,0,0,1,.95,1.08,3.64,3.64,0,0,1,.37,1.77,3.6,3.6,0,0,1-1.38,3A6.38,6.38,0,0,1,149.28,35.11Z"/><path class="cls-3" d="M168.43,34.59a4.85,4.85,0,0,1-2.16-.49,5.93,5.93,0,0,1-1.79-1.33,6.68,6.68,0,0,1-1.22-2,6,6,0,0,1-.45-2.32,6,6,0,0,1,.45-2.31,6.38,6.38,0,0,1,1.24-1.93,6.06,6.06,0,0,1,1.8-1.32,4.76,4.76,0,0,1,2.11-.49,3.81,3.81,0,0,1,1.9.44,3.26,3.26,0,0,1,1.25,1.25,6.46,6.46,0,0,1,.72,1.93,12.53,12.53,0,0,1,.23,2.48,11.35,11.35,0,0,1-.41,3.22,4.27,4.27,0,0,1-1.3,2.1A3.61,3.61,0,0,1,168.43,34.59Zm.45,5.48a6.91,6.91,0,0,1-1.76-.23,7.49,7.49,0,0,1-1.59-.6,4.71,4.71,0,0,1-1.15-.8,1.23,1.23,0,0,1-.42-.85,1.81,1.81,0,0,1,.15-.74,2.58,2.58,0,0,1,.45-.66,4.94,4.94,0,0,1,.6-.57.87.87,0,0,1,.6-.2,1.1,1.1,0,0,1,.62.18L167,36a3.85,3.85,0,0,0,.79.41,3.35,3.35,0,0,0,1.2.19,2.24,2.24,0,0,0,.93-.19,1.88,1.88,0,0,0,.75-.55,2.65,2.65,0,0,0,.5-.85,2.9,2.9,0,0,0,.19-1.09V23.59a1.21,1.21,0,0,1,.51-.93,2.49,2.49,0,0,1,1.34-.29,2.31,2.31,0,0,1,1.25.26,1.11,1.11,0,0,1,.46.69,4.29,4.29,0,0,1,.09.9V34.1a5.84,5.84,0,0,1-.52,2.53,5.75,5.75,0,0,1-1.4,1.88,6.4,6.4,0,0,1-4.18,1.56Zm0-9.1a2.13,2.13,0,0,0,1.2-.34,2.48,2.48,0,0,0,.84-.89,2.44,2.44,0,0,0,.31-1.25,2.49,2.49,0,0,0-.31-1.25,2.44,2.44,0,0,0-.85-.87,2.27,2.27,0,0,0-1.21-.33,2.13,2.13,0,0,0-1.2.34,2.48,2.48,0,0,0-.84.89,2.44,2.44,0,0,0-.31,1.25,2.32,2.32,0,0,0,.32,1.22,2.62,2.62,0,0,0,.86.89A2.26,2.26,0,0,0,168.86,31Z"/><path class="cls-3" d="M183.76,35.15a7.17,7.17,0,0,1-3-.58,5.8,5.8,0,0,1-2.06-1.51,6.51,6.51,0,0,1-1.2-2.09,7.08,7.08,0,0,1-.39-2.3,6.38,6.38,0,0,1,.85-3.32,6.11,6.11,0,0,1,2.36-2.29,7,7,0,0,1,3.46-.83,6.27,6.27,0,0,1,2.52.46,5.33,5.33,0,0,1,1.75,1.2,5.07,5.07,0,0,1,1,1.59,4.53,4.53,0,0,1,.34,1.62,2.81,2.81,0,0,1-.67,2,2.25,2.25,0,0,1-1.68.68h-5.95a1.71,1.71,0,0,0,.46,1.07,2.81,2.81,0,0,0,1,.7,3.5,3.5,0,0,0,1.33.25,8.22,8.22,0,0,0,1-.06,4.18,4.18,0,0,0,.78-.17c.22-.08.42-.15.59-.23l.49-.19a2.53,2.53,0,0,1,.42-.1,1,1,0,0,1,.68.22,1.9,1.9,0,0,1,.57.71,1.71,1.71,0,0,1,.24.52,2.2,2.2,0,0,1,.06.5,1.34,1.34,0,0,1-.61,1.09,4.66,4.66,0,0,1-1.73.74A11.47,11.47,0,0,1,183.76,35.15Zm-2.67-7.4H185a1,1,0,0,0,.57-.13.65.65,0,0,0,.2-.54,1.25,1.25,0,0,0-.27-.78,1.87,1.87,0,0,0-.74-.54,3.27,3.27,0,0,0-2.44.12,2.28,2.28,0,0,0-.93.8A1.84,1.84,0,0,0,181.09,27.75Z"/><path class="cls-3" d="M193.36,34.91a2.41,2.41,0,0,1-1.32-.27,1.07,1.07,0,0,1-.47-.7,4.46,4.46,0,0,1-.09-.91v-8.8a4.19,4.19,0,0,1,.09-.89,1,1,0,0,1,.48-.66,2.71,2.71,0,0,1,1.33-.25,2.35,2.35,0,0,1,1.17.22,1,1,0,0,1,.49.51,1.5,1.5,0,0,1,.11.56.91.91,0,0,0,.05.36l-.15.48a1.54,1.54,0,0,1,.39-.76,3.74,3.74,0,0,1,.85-.7,4.73,4.73,0,0,1,1.1-.49,3.93,3.93,0,0,1,1.16-.17,5,5,0,0,1,2.14.43,4.37,4.37,0,0,1,1.59,1.27,5.72,5.72,0,0,1,1,1.94,8.16,8.16,0,0,1,.34,2.43v4.55a4.63,4.63,0,0,1-.09.92,1,1,0,0,1-.48.68,2.53,2.53,0,0,1-1.33.25,2.59,2.59,0,0,1-1.33-.26,1.11,1.11,0,0,1-.49-.7,5.4,5.4,0,0,1-.08-.91V28.51a2.87,2.87,0,0,0-.26-1.27,1.88,1.88,0,0,0-.75-.8,2.38,2.38,0,0,0-1.21-.28,2.57,2.57,0,0,0-1.25.29,2.06,2.06,0,0,0-.82.81,2.59,2.59,0,0,0-.28,1.25v4.55a4.46,4.46,0,0,1-.09.91,1,1,0,0,1-.47.69A2.62,2.62,0,0,1,193.36,34.91Z"/><path class="cls-3" d="M212.26,35.17a7.17,7.17,0,0,1-3-.58,5.93,5.93,0,0,1-2.06-1.51A6.61,6.61,0,0,1,206,31a7.12,7.12,0,0,1-.39-2.3,6.38,6.38,0,0,1,.85-3.32,6,6,0,0,1,2.36-2.29,7,7,0,0,1,3.46-.84,6.26,6.26,0,0,1,2.52.47,5.33,5.33,0,0,1,1.75,1.2,5.07,5.07,0,0,1,1,1.59,4.48,4.48,0,0,1,.34,1.62,2.82,2.82,0,0,1-.67,2.05,2.26,2.26,0,0,1-1.69.68h-5.95a1.78,1.78,0,0,0,.47,1.08,2.81,2.81,0,0,0,1,.7,3.5,3.5,0,0,0,1.33.25,8.22,8.22,0,0,0,1-.06,3.6,3.6,0,0,0,.78-.18c.22-.07.42-.15.59-.22s.34-.14.49-.19a2.53,2.53,0,0,1,.42-.1,1,1,0,0,1,.68.21,1.94,1.94,0,0,1,.57.72,1.71,1.71,0,0,1,.24.52,2.2,2.2,0,0,1,.06.5,1.34,1.34,0,0,1-.61,1.09,4.66,4.66,0,0,1-1.73.73A10.91,10.91,0,0,1,212.26,35.17Zm-2.67-7.4h3.95a1,1,0,0,0,.57-.14.61.61,0,0,0,.2-.53,1.23,1.23,0,0,0-.27-.78,1.87,1.87,0,0,0-.74-.54,3.2,3.2,0,0,0-2.44.11,2.47,2.47,0,0,0-.94.8A1.93,1.93,0,0,0,209.59,27.77Z"/><path class="cls-3" d="M221.86,35a2.52,2.52,0,0,1-1.32-.26,1.14,1.14,0,0,1-.47-.72,4.63,4.63,0,0,1-.09-.92V24.32a4.42,4.42,0,0,1,.09-.92,1.07,1.07,0,0,1,.48-.69,2.59,2.59,0,0,1,1.33-.26,2.5,2.5,0,0,1,1.26.24,1.06,1.06,0,0,1,.49.55,2.08,2.08,0,0,1,.1.54l-.3.15a2.39,2.39,0,0,1,.26-.37,4.06,4.06,0,0,1,.59-.55,3.53,3.53,0,0,1,2.15-.68,4.55,4.55,0,0,1,.61,0,3,3,0,0,1,.7.15,2.47,2.47,0,0,1,.66.3,1.55,1.55,0,0,1,.49.46,1.13,1.13,0,0,1,.19.67,3,3,0,0,1-.48,1.74,1.4,1.4,0,0,1-1.2.71,2.11,2.11,0,0,1-.6-.06,1,1,0,0,1-.29-.15.93.93,0,0,0-.26-.15,1.68,1.68,0,0,0-.55-.06,2.34,2.34,0,0,0-.71.1,2,2,0,0,0-.63.31,1.6,1.6,0,0,0-.45.52,1.53,1.53,0,0,0-.16.72V33.1a4.46,4.46,0,0,1-.09.91,1,1,0,0,1-.49.69A2.58,2.58,0,0,1,221.86,35Z"/><path class="cls-3" d="M241.26,34.94a2.34,2.34,0,0,1-1.38-.33.89.89,0,0,1-.42-.8l.25-.42a2.8,2.8,0,0,1-.58.61,4.11,4.11,0,0,1-1.11.65,4.34,4.34,0,0,1-1.66.28,4.88,4.88,0,0,1-2.19-.5A5.74,5.74,0,0,1,232.33,33a7,7,0,0,1-1.27-2,6.13,6.13,0,0,1,0-4.71,6.9,6.9,0,0,1,1.29-2A6.24,6.24,0,0,1,234.19,23a4.93,4.93,0,0,1,2.17-.5,4.11,4.11,0,0,1,1.58.27,4.5,4.5,0,0,1,1.09.61,3.2,3.2,0,0,1,.66.68l-.23-.36a1.05,1.05,0,0,1,.44-.91,2.4,2.4,0,0,1,1.39-.31,2.24,2.24,0,0,1,1.29.28,1.14,1.14,0,0,1,.47.72,4.86,4.86,0,0,1,.09.95V33A4.7,4.7,0,0,1,243,34a1,1,0,0,1-.47.71A2.39,2.39,0,0,1,241.26,34.94Zm-4.38-3.73a2.13,2.13,0,0,0,1.2-.34,2.48,2.48,0,0,0,.85-.91,2.52,2.52,0,0,0,.33-1.28,2.56,2.56,0,0,0-.32-1.28,2.42,2.42,0,0,0-.88-.89,2.33,2.33,0,0,0-1.22-.33,2.49,2.49,0,0,0-1.27.34,2.53,2.53,0,0,0-1.24,2.21,2.43,2.43,0,0,0,.34,1.24,2.59,2.59,0,0,0,.93.9A2.48,2.48,0,0,0,236.88,31.21Z"/><path class="cls-3" d="M250.43,35a16.21,16.21,0,0,1-1.82-.1,3.77,3.77,0,0,1-1.35-.41,2.39,2.39,0,0,1-.9-.83,4,4,0,0,1-.53-1.38,10.81,10.81,0,0,1-.17-2.06V18.64a4,4,0,0,1,.1-.93,1.19,1.19,0,0,1,.48-.7,2.41,2.41,0,0,1,1.32-.27,2.18,2.18,0,0,1,1.28.28,1.15,1.15,0,0,1,.49.7,3.82,3.82,0,0,1,.1.92V30a5.83,5.83,0,0,0,0,.66,1,1,0,0,0,.15.41.54.54,0,0,0,.31.2,2.5,2.5,0,0,0,.53.05,2.62,2.62,0,0,1,.61.08.89.89,0,0,1,.54.45,2.55,2.55,0,0,1,.22,1.25,2.81,2.81,0,0,1-.22,1.3.89.89,0,0,1-.54.47A2.74,2.74,0,0,1,250.43,35Z"/><path class="cls-3" d="M259.86,35.2a7.29,7.29,0,0,1-3-.58,5.84,5.84,0,0,1-2.06-1.51,6.61,6.61,0,0,1-1.2-2.09,7.19,7.19,0,0,1-.4-2.3,6.45,6.45,0,0,1,.86-3.33,6.09,6.09,0,0,1,2.36-2.28,7,7,0,0,1,3.46-.84,6.26,6.26,0,0,1,2.52.47,5,5,0,0,1,1.74,1.2,5.1,5.1,0,0,1,1,1.59,4.23,4.23,0,0,1,.33,1.62,2.82,2.82,0,0,1-.66,2.05,2.25,2.25,0,0,1-1.69.67h-5.95a1.78,1.78,0,0,0,.47,1.08,2.81,2.81,0,0,0,1,.7,3.7,3.7,0,0,0,1.33.25,8.22,8.22,0,0,0,1-.06,4.3,4.3,0,0,0,.78-.18c.22-.07.41-.15.59-.22s.34-.14.49-.19a2.53,2.53,0,0,1,.42-.1,1,1,0,0,1,.68.21,2,2,0,0,1,.57.72,1.61,1.61,0,0,1,.24.52,2.14,2.14,0,0,1,.06.5,1.34,1.34,0,0,1-.61,1.09,4.74,4.74,0,0,1-1.73.73A10.91,10.91,0,0,1,259.86,35.2Zm-2.68-7.4h4a1,1,0,0,0,.57-.14.62.62,0,0,0,.2-.54,1.23,1.23,0,0,0-.27-.77,1.78,1.78,0,0,0-.74-.54,2.8,2.8,0,0,0-1.09-.19,3,3,0,0,0-1.35.3,2.47,2.47,0,0,0-.94.8A1.92,1.92,0,0,0,257.18,27.8Z"/><path class="cls-3" d="M272.08,35.18A8.15,8.15,0,0,1,270.6,35a8.68,8.68,0,0,1-1.53-.44,5.08,5.08,0,0,1-1.25-.68,1.38,1.38,0,0,1-.55-1.42,2.76,2.76,0,0,1,.22-.6,4.44,4.44,0,0,1,.44-.66.88.88,0,0,1,.44-.35,1.09,1.09,0,0,1,.59,0,3.28,3.28,0,0,1,.8.27c.26.12.54.25.82.4s.58.26.88.37a2.62,2.62,0,0,0,.92.16,2.32,2.32,0,0,0,1.09-.21.64.64,0,0,0,.39-.58.65.65,0,0,0-.16-.45,1.27,1.27,0,0,0-.45-.3,4.46,4.46,0,0,0-.68-.24l-.81-.22a8.76,8.76,0,0,1-.9-.25,6.9,6.9,0,0,1-1.19-.45,4,4,0,0,1-1.05-.71,3.08,3.08,0,0,1-.73-1.08,3.79,3.79,0,0,1-.28-1.56,3.61,3.61,0,0,1,.56-2.05,3.51,3.51,0,0,1,1.67-1.26,7.34,7.34,0,0,1,2.7-.44,6.8,6.8,0,0,1,.9.06,5.58,5.58,0,0,1,.89.17,7.33,7.33,0,0,1,.86.3,7.55,7.55,0,0,1,.85.43,1.1,1.1,0,0,1,.77.95,2,2,0,0,1-.42,1.25,2.12,2.12,0,0,1-.58.58.83.83,0,0,1-.62.14,4.2,4.2,0,0,1-.87-.34,9.49,9.49,0,0,0-1-.43,2.63,2.63,0,0,0-1-.2,2,2,0,0,0-.73.11.94.94,0,0,0-.45.3.66.66,0,0,0-.15.43.69.69,0,0,0,.19.52,1.39,1.39,0,0,0,.51.31,5.64,5.64,0,0,0,.75.22l.93.21a13.06,13.06,0,0,1,1.38.33,4.73,4.73,0,0,1,1.3.62,2.91,2.91,0,0,1,.95,1.07,3.78,3.78,0,0,1,.36,1.78,3.59,3.59,0,0,1-1.37,3A6.38,6.38,0,0,1,272.08,35.18Z"/><path class="cls-2" d="M33.38,34.84a2.44,2.44,0,0,1-1.32-.28,1.09,1.09,0,0,1-.49-.72,4.73,4.73,0,0,1-.08-.93V19.26a4.45,4.45,0,0,1,.1-.91,1.17,1.17,0,0,1,.51-.71,2.31,2.31,0,0,1,1.32-.28h5.13a6.29,6.29,0,0,1,2.09.38,5.94,5.94,0,0,1,4,5.8,5.93,5.93,0,0,1-.57,2.69,5.85,5.85,0,0,1-1.47,1.91,6.26,6.26,0,0,1-2,1.15,6.46,6.46,0,0,1-2.13.37h-3.2v3.28a3.91,3.91,0,0,1-.1.91,1.15,1.15,0,0,1-.5.71A2.37,2.37,0,0,1,33.38,34.84Zm1.93-9h3.23a2.64,2.64,0,0,0,1.09-.23,2.12,2.12,0,0,0,.9-.76,2.65,2.65,0,0,0,0-2.58,2.2,2.2,0,0,0-.84-.82,2.43,2.43,0,0,0-1.22-.31h-3.2Z"/><path class="cls-2" d="M48.66,34.85a2.35,2.35,0,0,1-1.31-.27,1.07,1.07,0,0,1-.48-.71,4.73,4.73,0,0,1-.08-.93V24.22a4.59,4.59,0,0,1,.09-.93,1,1,0,0,1,.49-.68,2.42,2.42,0,0,1,1.32-.26,2.6,2.6,0,0,1,1.26.23,1.1,1.1,0,0,1,.49.55,1.73,1.73,0,0,1,.1.54l-.3.15a2.48,2.48,0,0,1,.26-.36,3.2,3.2,0,0,1,.59-.55,3.9,3.9,0,0,1,.91-.49,3.62,3.62,0,0,1,1.24-.2c.19,0,.39,0,.61,0a4.62,4.62,0,0,1,.7.15,3.16,3.16,0,0,1,.67.3,1.63,1.63,0,0,1,.48.46,1.16,1.16,0,0,1,.19.68,3.06,3.06,0,0,1-.48,1.74,1.4,1.4,0,0,1-1.2.71,2.11,2.11,0,0,1-.6-.06,1.77,1.77,0,0,1-.28-.15,1.17,1.17,0,0,0-.27-.15,1.35,1.35,0,0,0-.55-.07,2.77,2.77,0,0,0-.71.1,2.12,2.12,0,0,0-.62.31,1.53,1.53,0,0,0-.62,1.24V33a4.53,4.53,0,0,1-.09.91,1,1,0,0,1-.49.69A2.64,2.64,0,0,1,48.66,34.85Z"/><path class="cls-2" d="M63.86,35.05a6.29,6.29,0,0,1-2.34-.46,7.24,7.24,0,0,1-2.11-1.31,6.38,6.38,0,0,1-1.51-2,6,6,0,0,1-.56-2.64,6.16,6.16,0,0,1,.51-2.51,6.75,6.75,0,0,1,3.48-3.47,5.94,5.94,0,0,1,2.49-.52,6.36,6.36,0,0,1,3.26.87,6.56,6.56,0,0,1,2.34,2.34,6.67,6.67,0,0,1,.3,6,6.21,6.21,0,0,1-1.5,2,6.53,6.53,0,0,1-2.07,1.29A6.15,6.15,0,0,1,63.86,35.05Zm0-3.77A2.85,2.85,0,0,0,65,31a2.81,2.81,0,0,0,1-.9,2.6,2.6,0,0,0,.42-1.52,2.65,2.65,0,0,0-.35-1.4,2.41,2.41,0,0,0-1-.94,2.83,2.83,0,0,0-1.41-.34,2.6,2.6,0,0,0-1.34.35,2.65,2.65,0,0,0-1,1,2.69,2.69,0,0,0-.36,1.39,2.6,2.6,0,0,0,.41,1.51,2.43,2.43,0,0,0,1,.9A2.9,2.9,0,0,0,63.81,31.28Z"/><path class="cls-2" d="M74,40a2.4,2.4,0,0,1-1.3-.27,1,1,0,0,1-.47-.67,5,5,0,0,1-.08-.89v-14a5.14,5.14,0,0,1,.08-.91,1,1,0,0,1,.46-.68A2.24,2.24,0,0,1,74,22.36a2.84,2.84,0,0,1,1.23.23,1.35,1.35,0,0,1,.67.7v14.9a3.36,3.36,0,0,1-.08.9,1.11,1.11,0,0,1-.49.68A2.37,2.37,0,0,1,74,40Zm4.8-5.4a4.35,4.35,0,0,1-3.68-1.82,6,6,0,0,1-.93-1.93,8.31,8.31,0,0,1-.28-2.38,8.53,8.53,0,0,1,.32-2.34,6.53,6.53,0,0,1,.94-2,4.3,4.3,0,0,1,1.53-1.35,4.47,4.47,0,0,1,2.11-.49,4.76,4.76,0,0,1,2.15.51,6.19,6.19,0,0,1,1.84,1.36,6.44,6.44,0,0,1,1.27,2,6.14,6.14,0,0,1,.46,2.37,6.14,6.14,0,0,1-1.73,4.3A5.92,5.92,0,0,1,81,34.18,5.2,5.2,0,0,1,78.83,34.64Zm-.49-3.53a2.41,2.41,0,0,0,1.25-.33,2.59,2.59,0,0,0,.88-.92,2.39,2.39,0,0,0,.34-1.27,2.64,2.64,0,0,0-.32-1.28,2.4,2.4,0,0,0-.89-.9,2.49,2.49,0,0,0-1.24-.32,2.28,2.28,0,0,0-1.23.34,2.35,2.35,0,0,0-.88.89,2.57,2.57,0,0,0-.31,1.27,2.6,2.6,0,0,0,.32,1.27,2.51,2.51,0,0,0,.88.92A2.26,2.26,0,0,0,78.34,31.11Z"/><path class="cls-2" d="M92.61,35.07a6.25,6.25,0,0,1-2.34-.46,7.06,7.06,0,0,1-2.11-1.32,6.23,6.23,0,0,1-1.51-2,6.07,6.07,0,0,1-.56-2.64,6.16,6.16,0,0,1,.51-2.51A6.67,6.67,0,0,1,88,24a6.79,6.79,0,0,1,2.07-1.41,6.09,6.09,0,0,1,2.49-.51,6.26,6.26,0,0,1,3.26.87,6.45,6.45,0,0,1,2.33,2.34,6.61,6.61,0,0,1,.31,6,6.35,6.35,0,0,1-1.5,2,6.53,6.53,0,0,1-2.07,1.29A6.36,6.36,0,0,1,92.61,35.07Zm0-3.77a2.85,2.85,0,0,0,1.23-.3,2.81,2.81,0,0,0,1-.9,2.61,2.61,0,0,0,.42-1.53,2.67,2.67,0,0,0-.35-1.4,2.39,2.39,0,0,0-1-.93,2.83,2.83,0,0,0-1.41-.34,2.51,2.51,0,0,0-1.34.35,2.65,2.65,0,0,0-1,1,2.69,2.69,0,0,0-.36,1.39,2.6,2.6,0,0,0,.41,1.51,2.43,2.43,0,0,0,1,.9A2.9,2.9,0,0,0,92.56,31.3Zm-1-9.83a.86.86,0,0,1-.74-.25,2.63,2.63,0,0,1-.51-1,2.11,2.11,0,0,1-.1-1.3,1.4,1.4,0,0,1,.93-.67l4.4-1.35a.87.87,0,0,1,.72.29,2.35,2.35,0,0,1,.5,1,1.83,1.83,0,0,1,.09,1.28,1.32,1.32,0,0,1-.91.67Z"/><path class="cls-2" d="M105.56,35.08a8.15,8.15,0,0,1-1.48-.15,8.68,8.68,0,0,1-1.53-.44,4.9,4.9,0,0,1-1.25-.68,1.26,1.26,0,0,1-.57-.88,1.42,1.42,0,0,1,0-.54,2.32,2.32,0,0,1,.22-.6,4.44,4.44,0,0,1,.44-.66.84.84,0,0,1,.44-.35,1.09,1.09,0,0,1,.59,0,3.28,3.28,0,0,1,.8.27c.26.12.54.25.82.4s.58.26.87.37a2.68,2.68,0,0,0,.93.16,2.2,2.2,0,0,0,1.09-.21.64.64,0,0,0,.39-.58.61.61,0,0,0-.17-.45,1.27,1.27,0,0,0-.45-.3,4,4,0,0,0-.67-.24l-.81-.22a8.76,8.76,0,0,1-.9-.25,6.9,6.9,0,0,1-1.19-.45,4,4,0,0,1-1.05-.71,3.24,3.24,0,0,1-.74-1.08,4,4,0,0,1-.27-1.56,3.61,3.61,0,0,1,.56-2.05,3.51,3.51,0,0,1,1.67-1.26,7.34,7.34,0,0,1,2.7-.44c.3,0,.6,0,.9.06a5.26,5.26,0,0,1,.88.17,7.47,7.47,0,0,1,.87.3,6.68,6.68,0,0,1,.84.43,1.13,1.13,0,0,1,.78.95,2.05,2.05,0,0,1-.43,1.25,2,2,0,0,1-.57.58.85.85,0,0,1-.63.14,4.36,4.36,0,0,1-.86-.34,9.49,9.49,0,0,0-1-.43,2.91,2.91,0,0,0-1-.21,1.94,1.94,0,0,0-.72.12.94.94,0,0,0-.45.3.66.66,0,0,0-.15.43.69.69,0,0,0,.19.52,1.39,1.39,0,0,0,.51.31,4.87,4.87,0,0,0,.75.22l.92.21a13.23,13.23,0,0,1,1.39.33,4.87,4.87,0,0,1,1.3.62,2.91,2.91,0,0,1,1,1.07,3.78,3.78,0,0,1,.36,1.78,3.57,3.57,0,0,1-1.38,3A6.33,6.33,0,0,1,105.56,35.08Z"/><path class="cls-2" d="M115,20.59a2.56,2.56,0,0,1-1.35-.28,1.11,1.11,0,0,1-.49-.73,5.11,5.11,0,0,1,0-1.91,1.09,1.09,0,0,1,.5-.7,2.71,2.71,0,0,1,1.36-.26,2.37,2.37,0,0,1,1.33.28,1.09,1.09,0,0,1,.49.72,6,6,0,0,1,.08,1,4.7,4.7,0,0,1-.09.92,1,1,0,0,1-.48.71A2.53,2.53,0,0,1,115,20.59Zm0,14.3a2.47,2.47,0,0,1-1.33-.27,1,1,0,0,1-.47-.7,5.31,5.31,0,0,1-.08-.91V24.28a4.53,4.53,0,0,1,.09-.91,1.08,1.08,0,0,1,.49-.7,2.52,2.52,0,0,1,1.32-.26,2.24,2.24,0,0,1,1.29.28,1.1,1.1,0,0,1,.47.71,4.62,4.62,0,0,1,.09.94V33a5.4,5.4,0,0,1-.08.91,1.06,1.06,0,0,1-.48.69A2.6,2.6,0,0,1,115,34.89Z"/><path class="cls-2" d="M120.34,22.59h2.75l3.45-.1a4.29,4.29,0,0,1,.9.09,1.1,1.1,0,0,1,.7.49,2.46,2.46,0,0,1,.27,1.32,2.26,2.26,0,0,1-.26,1.25,1.15,1.15,0,0,1-.69.52,3.8,3.8,0,0,1-.92.11l-3.28-.08-3,0a1.23,1.23,0,0,1-1-.46,2.44,2.44,0,0,1-.29-1.39,2.11,2.11,0,0,1,.35-1.33A1.23,1.23,0,0,1,120.34,22.59ZM126,34.89a7.92,7.92,0,0,1-2.2-.27,3.61,3.61,0,0,1-1.51-.86,3.5,3.5,0,0,1-.87-1.46,6.89,6.89,0,0,1-.29-2.11V20.06a4.22,4.22,0,0,1,.09-.92,1,1,0,0,1,.48-.66,2.4,2.4,0,0,1,1.3-.27,2.46,2.46,0,0,1,1.3.28,1.1,1.1,0,0,1,.49.71,4.63,4.63,0,0,1,.09.92V30a3,3,0,0,0,.06.66.79.79,0,0,0,.19.39.69.69,0,0,0,.35.18,2.79,2.79,0,0,0,.55.05,4.16,4.16,0,0,1,1,.1,1,1,0,0,1,.66.45,2.05,2.05,0,0,1,.23,1.17,2.38,2.38,0,0,1-.27,1.3,1,1,0,0,1-.71.48A5.53,5.53,0,0,1,126,34.89Z"/><path class="cls-2" d="M136.33,35.1a6.21,6.21,0,0,1-2.33-.47,6.88,6.88,0,0,1-2.12-1.31,6.53,6.53,0,0,1-1.51-2,6.15,6.15,0,0,1-.56-2.64,6,6,0,0,1,.52-2.51,6.78,6.78,0,0,1,3.47-3.47,6.16,6.16,0,0,1,2.49-.51,6.33,6.33,0,0,1,3.26.86,6.56,6.56,0,0,1,2.34,2.34,6.71,6.71,0,0,1,.31,6,6.5,6.5,0,0,1-3.58,3.32A6.38,6.38,0,0,1,136.33,35.1Zm-.05-3.78a2.85,2.85,0,0,0,1.23-.3,2.67,2.67,0,0,0,1.05-.9A2.58,2.58,0,0,0,139,28.6a2.77,2.77,0,0,0-.35-1.4,2.62,2.62,0,0,0-1-.94,3,3,0,0,0-1.42-.34,2.56,2.56,0,0,0-1.33.35,2.84,2.84,0,0,0-1,1,2.69,2.69,0,0,0-.36,1.39,2.66,2.66,0,0,0,.41,1.51,2.49,2.49,0,0,0,1,.9A2.82,2.82,0,0,0,136.28,31.32Z"/><path class="cls-2" d="M149.28,35.11a8,8,0,0,1-1.47-.15,9.45,9.45,0,0,1-1.54-.44,5.43,5.43,0,0,1-1.25-.68,1.26,1.26,0,0,1-.56-.89,1.36,1.36,0,0,1,0-.53,2.12,2.12,0,0,1,.23-.6,4.24,4.24,0,0,1,.44-.67.87.87,0,0,1,.43-.35,1,1,0,0,1,.59,0,3.55,3.55,0,0,1,.8.26l.82.4c.29.14.58.27.88.38a2.66,2.66,0,0,0,.92.16,2.32,2.32,0,0,0,1.09-.21.65.65,0,0,0,.39-.59.64.64,0,0,0-.16-.45,1.6,1.6,0,0,0-.45-.3c-.19-.08-.42-.16-.68-.24L149,30c-.28-.07-.58-.15-.9-.25a9.05,9.05,0,0,1-1.19-.45,4,4,0,0,1-1.05-.71,3.32,3.32,0,0,1-.73-1.08,3.79,3.79,0,0,1-.28-1.56A3.3,3.3,0,0,1,147,22.67a7.34,7.34,0,0,1,2.7-.44c.3,0,.6,0,.9.05a5.4,5.4,0,0,1,.89.18,7.54,7.54,0,0,1,1.71.72c.5.24.76.55.77.95A2.39,2.39,0,0,1,153,26a.88.88,0,0,1-.62.14,3.93,3.93,0,0,1-.86-.34c-.31-.16-.64-.3-1-.44a2.84,2.84,0,0,0-1-.2,2.24,2.24,0,0,0-.73.11,1.11,1.11,0,0,0-.45.3.75.75,0,0,0,0,.95,1.59,1.59,0,0,0,.51.32,7.67,7.67,0,0,0,.75.22l.93.2c.45.09.91.2,1.38.34a4.71,4.71,0,0,1,1.3.61,2.93,2.93,0,0,1,.95,1.08,3.64,3.64,0,0,1,.37,1.77,3.6,3.6,0,0,1-1.38,3A6.38,6.38,0,0,1,149.28,35.11Z"/><path class="cls-2" d="M168.43,34.59a4.85,4.85,0,0,1-2.16-.49,5.93,5.93,0,0,1-1.79-1.33,6.68,6.68,0,0,1-1.22-2,6,6,0,0,1-.45-2.32,6,6,0,0,1,.45-2.31,6.38,6.38,0,0,1,1.24-1.93,6.06,6.06,0,0,1,1.8-1.32,4.76,4.76,0,0,1,2.11-.49,3.81,3.81,0,0,1,1.9.44,3.26,3.26,0,0,1,1.25,1.25,6.46,6.46,0,0,1,.72,1.93,12.53,12.53,0,0,1,.23,2.48,11.35,11.35,0,0,1-.41,3.22,4.27,4.27,0,0,1-1.3,2.1A3.61,3.61,0,0,1,168.43,34.59Zm.45,5.48a6.91,6.91,0,0,1-1.76-.23,7.49,7.49,0,0,1-1.59-.6,4.71,4.71,0,0,1-1.15-.8,1.23,1.23,0,0,1-.42-.85,1.81,1.81,0,0,1,.15-.74,2.58,2.58,0,0,1,.45-.66,4.94,4.94,0,0,1,.6-.57.87.87,0,0,1,.6-.2,1.1,1.1,0,0,1,.62.18L167,36a3.85,3.85,0,0,0,.79.41,3.35,3.35,0,0,0,1.2.19,2.24,2.24,0,0,0,.93-.19,1.88,1.88,0,0,0,.75-.55,2.65,2.65,0,0,0,.5-.85,2.9,2.9,0,0,0,.19-1.09V23.59a1.21,1.21,0,0,1,.51-.93,2.49,2.49,0,0,1,1.34-.29,2.31,2.31,0,0,1,1.25.26,1.11,1.11,0,0,1,.46.69,4.29,4.29,0,0,1,.09.9V34.1a5.84,5.84,0,0,1-.52,2.53,5.75,5.75,0,0,1-1.4,1.88,6.4,6.4,0,0,1-4.18,1.56Zm0-9.1a2.13,2.13,0,0,0,1.2-.34,2.48,2.48,0,0,0,.84-.89,2.44,2.44,0,0,0,.31-1.25,2.49,2.49,0,0,0-.31-1.25,2.44,2.44,0,0,0-.85-.87,2.27,2.27,0,0,0-1.21-.33,2.13,2.13,0,0,0-1.2.34,2.48,2.48,0,0,0-.84.89,2.44,2.44,0,0,0-.31,1.25,2.32,2.32,0,0,0,.32,1.22,2.62,2.62,0,0,0,.86.89A2.26,2.26,0,0,0,168.86,31Z"/><path class="cls-2" d="M183.76,35.15a7.17,7.17,0,0,1-3-.58,5.8,5.8,0,0,1-2.06-1.51,6.51,6.51,0,0,1-1.2-2.09,7.08,7.08,0,0,1-.39-2.3,6.38,6.38,0,0,1,.85-3.32,6.11,6.11,0,0,1,2.36-2.29,7,7,0,0,1,3.46-.83,6.27,6.27,0,0,1,2.52.46,5.33,5.33,0,0,1,1.75,1.2,5.07,5.07,0,0,1,1,1.59,4.53,4.53,0,0,1,.34,1.62,2.81,2.81,0,0,1-.67,2,2.25,2.25,0,0,1-1.68.68h-5.95a1.71,1.71,0,0,0,.46,1.07,2.81,2.81,0,0,0,1,.7,3.5,3.5,0,0,0,1.33.25,8.22,8.22,0,0,0,1-.06,4.18,4.18,0,0,0,.78-.17c.22-.08.42-.15.59-.23l.49-.19a2.53,2.53,0,0,1,.42-.1,1,1,0,0,1,.68.22,1.9,1.9,0,0,1,.57.71,1.71,1.71,0,0,1,.24.52,2.2,2.2,0,0,1,.06.5,1.34,1.34,0,0,1-.61,1.09,4.66,4.66,0,0,1-1.73.74A11.47,11.47,0,0,1,183.76,35.15Zm-2.67-7.4H185a1,1,0,0,0,.57-.13.65.65,0,0,0,.2-.54,1.25,1.25,0,0,0-.27-.78,1.87,1.87,0,0,0-.74-.54,3.27,3.27,0,0,0-2.44.12,2.28,2.28,0,0,0-.93.8A1.84,1.84,0,0,0,181.09,27.75Z"/><path class="cls-2" d="M193.36,34.91a2.41,2.41,0,0,1-1.32-.27,1.07,1.07,0,0,1-.47-.7,4.46,4.46,0,0,1-.09-.91v-8.8a4.19,4.19,0,0,1,.09-.89,1,1,0,0,1,.48-.66,2.71,2.71,0,0,1,1.33-.25,2.35,2.35,0,0,1,1.17.22,1,1,0,0,1,.49.51,1.5,1.5,0,0,1,.11.56.91.91,0,0,0,.05.36l-.15.48a1.54,1.54,0,0,1,.39-.76,3.74,3.74,0,0,1,.85-.7,4.73,4.73,0,0,1,1.1-.49,3.93,3.93,0,0,1,1.16-.17,5,5,0,0,1,2.14.43,4.37,4.37,0,0,1,1.59,1.27,5.72,5.72,0,0,1,1,1.94,8.16,8.16,0,0,1,.34,2.43v4.55a4.63,4.63,0,0,1-.09.92,1,1,0,0,1-.48.68,2.53,2.53,0,0,1-1.33.25,2.59,2.59,0,0,1-1.33-.26,1.11,1.11,0,0,1-.49-.7,5.4,5.4,0,0,1-.08-.91V28.51a2.87,2.87,0,0,0-.26-1.27,1.88,1.88,0,0,0-.75-.8,2.38,2.38,0,0,0-1.21-.28,2.57,2.57,0,0,0-1.25.29,2.06,2.06,0,0,0-.82.81,2.59,2.59,0,0,0-.28,1.25v4.55a4.46,4.46,0,0,1-.09.91,1,1,0,0,1-.47.69A2.62,2.62,0,0,1,193.36,34.91Z"/><path class="cls-2" d="M212.26,35.17a7.17,7.17,0,0,1-3-.58,5.93,5.93,0,0,1-2.06-1.51A6.61,6.61,0,0,1,206,31a7.12,7.12,0,0,1-.39-2.3,6.38,6.38,0,0,1,.85-3.32,6,6,0,0,1,2.36-2.29,7,7,0,0,1,3.46-.84,6.26,6.26,0,0,1,2.52.47,5.33,5.33,0,0,1,1.75,1.2,5.07,5.07,0,0,1,1,1.59,4.48,4.48,0,0,1,.34,1.62,2.82,2.82,0,0,1-.67,2.05,2.26,2.26,0,0,1-1.69.68h-5.95a1.78,1.78,0,0,0,.47,1.08,2.81,2.81,0,0,0,1,.7,3.5,3.5,0,0,0,1.33.25,8.22,8.22,0,0,0,1-.06,3.6,3.6,0,0,0,.78-.18c.22-.07.42-.15.59-.22s.34-.14.49-.19a2.53,2.53,0,0,1,.42-.1,1,1,0,0,1,.68.21,1.94,1.94,0,0,1,.57.72,1.71,1.71,0,0,1,.24.52,2.2,2.2,0,0,1,.06.5,1.34,1.34,0,0,1-.61,1.09,4.66,4.66,0,0,1-1.73.73A10.91,10.91,0,0,1,212.26,35.17Zm-2.67-7.4h3.95a1,1,0,0,0,.57-.14.61.61,0,0,0,.2-.53,1.23,1.23,0,0,0-.27-.78,1.87,1.87,0,0,0-.74-.54,3.2,3.2,0,0,0-2.44.11,2.47,2.47,0,0,0-.94.8A1.93,1.93,0,0,0,209.59,27.77Z"/><path class="cls-2" d="M221.86,35a2.52,2.52,0,0,1-1.32-.26,1.14,1.14,0,0,1-.47-.72,4.63,4.63,0,0,1-.09-.92V24.32a4.42,4.42,0,0,1,.09-.92,1.07,1.07,0,0,1,.48-.69,2.59,2.59,0,0,1,1.33-.26,2.5,2.5,0,0,1,1.26.24,1.06,1.06,0,0,1,.49.55,2.08,2.08,0,0,1,.1.54l-.3.15a2.39,2.39,0,0,1,.26-.37,4.06,4.06,0,0,1,.59-.55,3.53,3.53,0,0,1,2.15-.68,4.55,4.55,0,0,1,.61,0,3,3,0,0,1,.7.15,2.47,2.47,0,0,1,.66.3,1.55,1.55,0,0,1,.49.46,1.13,1.13,0,0,1,.19.67,3,3,0,0,1-.48,1.74,1.4,1.4,0,0,1-1.2.71,2.11,2.11,0,0,1-.6-.06,1,1,0,0,1-.29-.15.93.93,0,0,0-.26-.15,1.68,1.68,0,0,0-.55-.06,2.34,2.34,0,0,0-.71.1,2,2,0,0,0-.63.31,1.6,1.6,0,0,0-.45.52,1.53,1.53,0,0,0-.16.72V33.1a4.46,4.46,0,0,1-.09.91,1,1,0,0,1-.49.69A2.58,2.58,0,0,1,221.86,35Z"/><path class="cls-2" d="M241.26,34.94a2.34,2.34,0,0,1-1.38-.33.89.89,0,0,1-.42-.8l.25-.42a2.8,2.8,0,0,1-.58.61,4.11,4.11,0,0,1-1.11.65,4.34,4.34,0,0,1-1.66.28,4.88,4.88,0,0,1-2.19-.5A5.74,5.74,0,0,1,232.33,33a7,7,0,0,1-1.27-2,6.13,6.13,0,0,1,0-4.71,6.9,6.9,0,0,1,1.29-2A6.24,6.24,0,0,1,234.19,23a4.93,4.93,0,0,1,2.17-.5,4.11,4.11,0,0,1,1.58.27,4.5,4.5,0,0,1,1.09.61,3.2,3.2,0,0,1,.66.68l-.23-.36a1.05,1.05,0,0,1,.44-.91,2.4,2.4,0,0,1,1.39-.31,2.24,2.24,0,0,1,1.29.28,1.14,1.14,0,0,1,.47.72,4.86,4.86,0,0,1,.09.95V33A4.7,4.7,0,0,1,243,34a1,1,0,0,1-.47.71A2.39,2.39,0,0,1,241.26,34.94Zm-4.38-3.73a2.13,2.13,0,0,0,1.2-.34,2.48,2.48,0,0,0,.85-.91,2.52,2.52,0,0,0,.33-1.28,2.56,2.56,0,0,0-.32-1.28,2.42,2.42,0,0,0-.88-.89,2.33,2.33,0,0,0-1.22-.33,2.49,2.49,0,0,0-1.27.34,2.53,2.53,0,0,0-1.24,2.21,2.43,2.43,0,0,0,.34,1.24,2.59,2.59,0,0,0,.93.9A2.48,2.48,0,0,0,236.88,31.21Z"/><path class="cls-2" d="M250.43,35a16.21,16.21,0,0,1-1.82-.1,3.77,3.77,0,0,1-1.35-.41,2.39,2.39,0,0,1-.9-.83,4,4,0,0,1-.53-1.38,10.81,10.81,0,0,1-.17-2.06V18.64a4,4,0,0,1,.1-.93,1.19,1.19,0,0,1,.48-.7,2.41,2.41,0,0,1,1.32-.27,2.18,2.18,0,0,1,1.28.28,1.15,1.15,0,0,1,.49.7,3.82,3.82,0,0,1,.1.92V30a5.83,5.83,0,0,0,0,.66,1,1,0,0,0,.15.41.54.54,0,0,0,.31.2,2.5,2.5,0,0,0,.53.05,2.62,2.62,0,0,1,.61.08.89.89,0,0,1,.54.45,2.55,2.55,0,0,1,.22,1.25,2.81,2.81,0,0,1-.22,1.3.89.89,0,0,1-.54.47A2.74,2.74,0,0,1,250.43,35Z"/><path class="cls-2" d="M259.86,35.2a7.29,7.29,0,0,1-3-.58,5.84,5.84,0,0,1-2.06-1.51,6.61,6.61,0,0,1-1.2-2.09,7.19,7.19,0,0,1-.4-2.3,6.45,6.45,0,0,1,.86-3.33,6.09,6.09,0,0,1,2.36-2.28,7,7,0,0,1,3.46-.84,6.26,6.26,0,0,1,2.52.47,5,5,0,0,1,1.74,1.2,5.1,5.1,0,0,1,1,1.59,4.23,4.23,0,0,1,.33,1.62,2.82,2.82,0,0,1-.66,2.05,2.25,2.25,0,0,1-1.69.67h-5.95a1.78,1.78,0,0,0,.47,1.08,2.81,2.81,0,0,0,1,.7,3.7,3.7,0,0,0,1.33.25,8.22,8.22,0,0,0,1-.06,4.3,4.3,0,0,0,.78-.18c.22-.07.41-.15.59-.22s.34-.14.49-.19a2.53,2.53,0,0,1,.42-.1,1,1,0,0,1,.68.21,2,2,0,0,1,.57.72,1.61,1.61,0,0,1,.24.52,2.14,2.14,0,0,1,.06.5,1.34,1.34,0,0,1-.61,1.09,4.74,4.74,0,0,1-1.73.73A10.91,10.91,0,0,1,259.86,35.2Zm-2.68-7.4h4a1,1,0,0,0,.57-.14.62.62,0,0,0,.2-.54,1.23,1.23,0,0,0-.27-.77,1.78,1.78,0,0,0-.74-.54,2.8,2.8,0,0,0-1.09-.19,3,3,0,0,0-1.35.3,2.47,2.47,0,0,0-.94.8A1.92,1.92,0,0,0,257.18,27.8Z"/><path class="cls-2" d="M272.08,35.18A8.15,8.15,0,0,1,270.6,35a8.68,8.68,0,0,1-1.53-.44,5.08,5.08,0,0,1-1.25-.68,1.38,1.38,0,0,1-.55-1.42,2.76,2.76,0,0,1,.22-.6,4.44,4.44,0,0,1,.44-.66.88.88,0,0,1,.44-.35,1.09,1.09,0,0,1,.59,0,3.28,3.28,0,0,1,.8.27c.26.12.54.25.82.4s.58.26.88.37a2.62,2.62,0,0,0,.92.16,2.32,2.32,0,0,0,1.09-.21.64.64,0,0,0,.39-.58.65.65,0,0,0-.16-.45,1.27,1.27,0,0,0-.45-.3,4.46,4.46,0,0,0-.68-.24l-.81-.22a8.76,8.76,0,0,1-.9-.25,6.9,6.9,0,0,1-1.19-.45,4,4,0,0,1-1.05-.71,3.08,3.08,0,0,1-.73-1.08,3.79,3.79,0,0,1-.28-1.56,3.61,3.61,0,0,1,.56-2.05,3.51,3.51,0,0,1,1.67-1.26,7.34,7.34,0,0,1,2.7-.44,6.8,6.8,0,0,1,.9.06,5.58,5.58,0,0,1,.89.17,7.33,7.33,0,0,1,.86.3,7.55,7.55,0,0,1,.85.43,1.1,1.1,0,0,1,.77.95,2,2,0,0,1-.42,1.25,2.12,2.12,0,0,1-.58.58.83.83,0,0,1-.62.14,4.2,4.2,0,0,1-.87-.34,9.49,9.49,0,0,0-1-.43,2.63,2.63,0,0,0-1-.2,2,2,0,0,0-.73.11.94.94,0,0,0-.45.3.66.66,0,0,0-.15.43.69.69,0,0,0,.19.52,1.39,1.39,0,0,0,.51.31,5.64,5.64,0,0,0,.75.22l.93.21a13.06,13.06,0,0,1,1.38.33,4.73,4.73,0,0,1,1.3.62,2.91,2.91,0,0,1,.95,1.07,3.78,3.78,0,0,1,.36,1.78,3.59,3.59,0,0,1-1.37,3A6.38,6.38,0,0,1,272.08,35.18Z"/></g></g></svg>