<svg xmlns="http://www.w3.org/2000/svg" viewBox="0 0 392.39 70.85"><defs><style>.cls-1{fill:#fff;}.cls-2{fill:none;stroke:#999;stroke-linejoin:round;stroke-width:12px;}</style></defs><title>conte</title><g id="Layer_2" data-name="Layer 2"><g id="TITULO_ÍNDICE" data-name="TITULO ÍNDICE"><path class="cls-1" d="M34.62,64.65a27.38,27.38,0,0,1-7.44-1.12,32.54,32.54,0,0,1-7.67-3.37,28.61,28.61,0,0,1-6.84-5.72,26.8,26.8,0,0,1-4.88-8.17A29.82,29.82,0,0,1,6,35.59,27.43,27.43,0,0,1,7.81,25.31a25.71,25.71,0,0,1,4.84-7.87,28.94,28.94,0,0,1,6.8-5.56A32,32,0,0,1,27.22,8.6a29.54,29.54,0,0,1,7.6-1.07,23.73,23.73,0,0,1,7.12,1,30.77,30.77,0,0,1,5,2,17.21,17.21,0,0,1,2.4,1.4,19.61,19.61,0,0,1,2.72,2,4,4,0,0,1,1.36,3A5.11,5.11,0,0,1,53,18.7a9.72,9.72,0,0,1-1.08,2,11.31,11.31,0,0,1-2.44,2.68,4,4,0,0,1-2.36.84,3.57,3.57,0,0,1-1.8-.48c-.56-.32-1.27-.75-2.12-1.29-.38-.26-.91-.6-1.6-1a13.38,13.38,0,0,0-2.8-1.12,16.06,16.06,0,0,0-4.48-.52,17.23,17.23,0,0,0-10.88,4,14.72,14.72,0,0,0-3.85,5.08A16.73,16.73,0,0,0,18.16,36a16.58,16.58,0,0,0,1.47,7.28,15,15,0,0,0,3.88,5,17.11,17.11,0,0,0,10.8,4,15.49,15.49,0,0,0,4.12-.48,13.63,13.63,0,0,0,3-1.16c.83-.45,1.53-.86,2.12-1.23a20.41,20.41,0,0,1,1.8-1,4,4,0,0,1,1.88-.48,3.75,3.75,0,0,1,2.28.88,10.55,10.55,0,0,1,2.36,2.8,10.37,10.37,0,0,1,1.12,2,4.42,4.42,0,0,1,.32,2A3.46,3.46,0,0,1,52,58.38a23,23,0,0,1-2.73,2c-.42.21-1.25.68-2.48,1.4a22.55,22.55,0,0,1-4.88,2A25.39,25.39,0,0,1,34.62,64.65Z"/><path class="cls-1" d="M79.42,64.68a20.23,20.23,0,0,1-7.48-1.49A22.61,22.61,0,0,1,65.19,59a19.68,19.68,0,0,1-6.56-15,20.25,20.25,0,0,1,1.61-8,21,21,0,0,1,4.48-6.59,21.42,21.42,0,0,1,6.61-4.52,19.38,19.38,0,0,1,8-1.63A20.1,20.1,0,0,1,89.72,26a21,21,0,0,1,7.48,7.49A20.1,20.1,0,0,1,100,44a20,20,0,0,1-1.8,8.68,20.43,20.43,0,0,1-4.81,6.51,20.89,20.89,0,0,1-6.64,4.12A20.35,20.35,0,0,1,79.42,64.68ZM79.27,52.6a9,9,0,0,0,3.92-1,8.74,8.74,0,0,0,3.36-2.88,8.23,8.23,0,0,0,1.36-4.88A8.68,8.68,0,0,0,86.8,39.4a8,8,0,0,0-3.08-3,9.21,9.21,0,0,0-4.52-1.08,8.16,8.16,0,0,0-4.28,1.11,8.63,8.63,0,0,0-3,3.08A9.28,9.28,0,0,0,72,48.79a8,8,0,0,0,3.32,2.88A9.39,9.39,0,0,0,79.27,52.6Z"/><path class="cls-1" d="M112.54,64a7.9,7.9,0,0,1-4.2-.85,3.43,3.43,0,0,1-1.52-2.24,15.31,15.31,0,0,1-.28-2.92l0-28.16a12.23,12.23,0,0,1,.32-2.84,3.48,3.48,0,0,1,1.57-2.12,8,8,0,0,1,4.19-.79,7.93,7.93,0,0,1,3.76.68A3.22,3.22,0,0,1,118,26.38a5.14,5.14,0,0,1,.36,1.8,3,3,0,0,0,.16,1.16L118,30.86a4.78,4.78,0,0,1,1.24-2.44A11.59,11.59,0,0,1,122,26.18a15.66,15.66,0,0,1,3.52-1.56,12.82,12.82,0,0,1,3.73-.55,16,16,0,0,1,6.83,1.4,13.75,13.75,0,0,1,5.08,4,18.62,18.62,0,0,1,3.16,6.2,26.53,26.53,0,0,1,1.07,7.81V58.08a14.68,14.68,0,0,1-.28,2.92,3.25,3.25,0,0,1-1.52,2.19,11.37,11.37,0,0,1-8.48,0,3.58,3.58,0,0,1-1.56-2.24,13.26,13.26,0,0,1-.32-2.92V43.51a9.49,9.49,0,0,0-.79-4.08,5.87,5.87,0,0,0-2.4-2.6,7.71,7.71,0,0,0-3.92-.93,7.92,7.92,0,0,0-4,1,6.67,6.67,0,0,0-2.6,2.64,8.13,8.13,0,0,0-.93,4V58.06a14.61,14.61,0,0,1-.28,2.92,3.3,3.3,0,0,1-1.52,2.2A8.18,8.18,0,0,1,112.54,64Z"/><path class="cls-1" d="M155.68,24.72h8.8l11-.32a13.92,13.92,0,0,1,2.88.29,3.46,3.46,0,0,1,2.24,1.56,7.68,7.68,0,0,1,.88,4.24,7.47,7.47,0,0,1-.84,4,3.7,3.7,0,0,1-2.2,1.63,11.17,11.17,0,0,1-3,.36L165,36.25h-9.68a3.83,3.83,0,0,1-3.24-1.4,8,8,0,0,1-.92-4.44,6.76,6.76,0,0,1,1.12-4.28A4.06,4.06,0,0,1,155.68,24.72Zm18.06,39.37a24.7,24.7,0,0,1-7-.88,11.86,11.86,0,0,1-4.84-2.72,11,11,0,0,1-2.83-4.69,21.79,21.79,0,0,1-.92-6.76l0-32.48a13.4,13.4,0,0,1,.28-2.88A3.41,3.41,0,0,1,160,11.56a7.86,7.86,0,0,1,4.16-.83,7.5,7.5,0,0,1,4.16.88,3.56,3.56,0,0,1,1.56,2.24,14.45,14.45,0,0,1,.28,3l0,31.76a9,9,0,0,0,.2,2.12,2.53,2.53,0,0,0,.6,1.24,2.2,2.2,0,0,0,1.12.56,8,8,0,0,0,1.76.16A13.93,13.93,0,0,1,177,53a3.47,3.47,0,0,1,2.12,1.45,7,7,0,0,1,.75,3.76,7.53,7.53,0,0,1-.88,4.16,3.41,3.41,0,0,1-2.28,1.51A17.26,17.26,0,0,1,173.74,64.09Z"/><path class="cls-1" d="M207.5,64.83A23.22,23.22,0,0,1,197.86,63a18.83,18.83,0,0,1-6.6-4.85,20,20,0,0,1-3.79-6.68,22.84,22.84,0,0,1-1.24-7.36A20.58,20.58,0,0,1,189,33.46a19.57,19.57,0,0,1,7.52-7.31,22.23,22.23,0,0,1,11-2.68,19.93,19.93,0,0,1,8,1.49,16.66,16.66,0,0,1,5.6,3.84,16.28,16.28,0,0,1,3.28,5.08,14.12,14.12,0,0,1,1.08,5.2q0,4.41-2.13,6.52a7.28,7.28,0,0,1-5.4,2.12H199a5.65,5.65,0,0,0,1.48,3.52,8.82,8.82,0,0,0,3.32,2.24,11.34,11.34,0,0,0,4.24.8,25.44,25.44,0,0,0,3.36-.19,13.88,13.88,0,0,0,2.48-.56q1-.36,1.92-.72t1.56-.6a6,6,0,0,1,1.32-.32,3.19,3.19,0,0,1,2.2.68,7,7,0,0,1,1.8,2.28,5.81,5.81,0,0,1,.75,1.68,6.32,6.32,0,0,1,.2,1.6,4.32,4.32,0,0,1-2,3.44A15,15,0,0,1,216.1,64,36.7,36.7,0,0,1,207.5,64.83ZM199,41.15h12.64a3.15,3.15,0,0,0,1.88-.43,2.07,2.07,0,0,0,.61-1.72,3.91,3.91,0,0,0-.88-2.52,5.94,5.94,0,0,0-2.36-1.69,9,9,0,0,0-3.4-.6,9.69,9.69,0,0,0-4.4,1,7.63,7.63,0,0,0-3,2.56A6,6,0,0,0,199,41.15Z"/><path class="cls-1" d="M238.22,64.05a7.82,7.82,0,0,1-4.2-.84A3.45,3.45,0,0,1,232.5,61a14.61,14.61,0,0,1-.28-2.92l0-28.16a12.23,12.23,0,0,1,.32-2.84,3.4,3.4,0,0,1,1.56-2.12,8.18,8.18,0,0,1,4.2-.8,8,8,0,0,1,3.76.68,3.28,3.28,0,0,1,1.56,1.65,5,5,0,0,1,.36,1.79,2.82,2.82,0,0,0,.16,1.16l-.48,1.52a4.71,4.71,0,0,1,1.24-2.43,11.35,11.35,0,0,1,2.72-2.24,14.64,14.64,0,0,1,3.52-1.56,13.17,13.17,0,0,1,3.72-.56,16,16,0,0,1,6.84,1.4,14,14,0,0,1,5.08,4.05,18.81,18.81,0,0,1,3.16,6.2,27.09,27.09,0,0,1,1.07,7.8V58.15a14.61,14.61,0,0,1-.28,2.92,3.3,3.3,0,0,1-1.52,2.2,8.18,8.18,0,0,1-4.2.8,7.9,7.9,0,0,1-4.28-.85A3.56,3.56,0,0,1,259.18,61a13.2,13.2,0,0,1-.32-2.92V43.58a9.34,9.34,0,0,0-.8-4.08,5.84,5.84,0,0,0-2.39-2.6,7.81,7.81,0,0,0-3.92-.92,8,8,0,0,0-4,1,6.73,6.73,0,0,0-2.6,2.64,8.22,8.22,0,0,0-.92,4V58.13a14.54,14.54,0,0,1-.28,2.92,3.28,3.28,0,0,1-1.52,2.2A8.08,8.08,0,0,1,238.22,64.05Z"/><path class="cls-1" d="M285.29,18.4a8,8,0,0,1-4.32-.88,3.52,3.52,0,0,1-1.56-2.32,15.69,15.69,0,0,1-.28-3,14,14,0,0,1,.32-3.08,3.54,3.54,0,0,1,1.6-2.24A8.27,8.27,0,0,1,285.37,6a7.68,7.68,0,0,1,4.24.88,3.6,3.6,0,0,1,1.56,2.32,15.69,15.69,0,0,1,.28,3,16.44,16.44,0,0,1-.28,3,3.45,3.45,0,0,1-1.56,2.28A8.27,8.27,0,0,1,285.29,18.4Zm0,45.76a7.77,7.77,0,0,1-4.2-.84,3.45,3.45,0,0,1-1.52-2.24,14.68,14.68,0,0,1-.28-2.92l0-27.92a14.38,14.38,0,0,1,.28-3,3.41,3.41,0,0,1,1.56-2.2,8,8,0,0,1,4.24-.84,7.39,7.39,0,0,1,4.12.88A3.6,3.6,0,0,1,291,27.36a14.91,14.91,0,0,1,.28,3l0,27.84a14.54,14.54,0,0,1-.28,2.92,3.28,3.28,0,0,1-1.52,2.2A8.18,8.18,0,0,1,285.26,64.16Z"/><path class="cls-1" d="M316.94,64.1A15.94,15.94,0,0,1,310,62.53a18.59,18.59,0,0,1-5.88-4.36,21.4,21.4,0,0,1-4-6.44A20.43,20.43,0,0,1,298.63,44a19.38,19.38,0,0,1,1.48-7.48,20.76,20.76,0,0,1,4.09-6.32,20.18,20.18,0,0,1,5.88-4.36A15.59,15.59,0,0,1,317,24.26a14.14,14.14,0,0,1,6.76,1.56,14.55,14.55,0,0,1,4.92,4.29,19.14,19.14,0,0,1,3,6.32A30,30,0,0,1,332.71,44a27,27,0,0,1-.92,7.68,20.41,20.41,0,0,1-3,6.4,15.09,15.09,0,0,1-4.92,4.43A14,14,0,0,1,316.94,64.1Zm1.6-11.84a7.13,7.13,0,0,0,3.88-1.08,8.37,8.37,0,0,0,2.81-2.92,7.88,7.88,0,0,0,1.08-4.08,8.14,8.14,0,0,0-1-4.12,7.95,7.95,0,0,0-10.76-2.84,7.39,7.39,0,0,0-2.8,2.83,8.32,8.32,0,0,0-1,4.12,8,8,0,0,0,1,4.08,7.72,7.72,0,0,0,2.88,2.93A7.58,7.58,0,0,0,318.54,52.26Zm14,11.93a7.53,7.53,0,0,1-4.08-.89,4.05,4.05,0,0,1-1.76-2.72l0-48.48a19.79,19.79,0,0,1,.2-2.92,3.29,3.29,0,0,1,1.4-2.27A7.28,7.28,0,0,1,332.49,6a7.82,7.82,0,0,1,4.2.84,3.44,3.44,0,0,1,1.52,2.2,14.45,14.45,0,0,1,.28,3l0,46.08a14.54,14.54,0,0,1-.28,2.92,3.64,3.64,0,0,1-1.52,2.28A7.3,7.3,0,0,1,332.54,64.19Z"/><path class="cls-1" d="M365.82,64.85a20,20,0,0,1-7.48-1.49,22.45,22.45,0,0,1-6.76-4.2,19.58,19.58,0,0,1-6.55-15,20,20,0,0,1,1.6-8,21.06,21.06,0,0,1,4.49-6.6,21.49,21.49,0,0,1,6.6-4.52,19.55,19.55,0,0,1,8-1.63,20.17,20.17,0,0,1,10.44,2.76,21,21,0,0,1,7.47,7.49,20.13,20.13,0,0,1,2.8,10.48,20,20,0,0,1-1.81,8.68,20.71,20.71,0,0,1-4.8,6.52,21.15,21.15,0,0,1-6.64,4.11A20.35,20.35,0,0,1,365.82,64.85Zm-.16-12.08a9,9,0,0,0,3.92-1A8.69,8.69,0,0,0,373,48.93a8.28,8.28,0,0,0,1.36-4.88,8.71,8.71,0,0,0-1.12-4.48,7.93,7.93,0,0,0-3.08-3,9.19,9.19,0,0,0-4.52-1.08,8.19,8.19,0,0,0-4.28,1.12,8.58,8.58,0,0,0-4.2,7.51A8.45,8.45,0,0,0,358.43,49a8,8,0,0,0,3.31,2.89A9.41,9.41,0,0,0,365.66,52.77Z"/><path class="cls-2" d="M34.62,64.65a27.38,27.38,0,0,1-7.44-1.12,32.54,32.54,0,0,1-7.67-3.37,28.61,28.61,0,0,1-6.84-5.72,26.8,26.8,0,0,1-4.88-8.17A29.82,29.82,0,0,1,6,35.59,27.43,27.43,0,0,1,7.81,25.31a25.71,25.71,0,0,1,4.84-7.87,28.94,28.94,0,0,1,6.8-5.56A32,32,0,0,1,27.22,8.6a29.54,29.54,0,0,1,7.6-1.07,23.73,23.73,0,0,1,7.12,1,30.77,30.77,0,0,1,5,2,17.21,17.21,0,0,1,2.4,1.4,19.61,19.61,0,0,1,2.72,2,4,4,0,0,1,1.36,3A5.11,5.11,0,0,1,53,18.7a9.72,9.72,0,0,1-1.08,2,11.31,11.31,0,0,1-2.44,2.68,4,4,0,0,1-2.36.84,3.57,3.57,0,0,1-1.8-.48c-.56-.32-1.27-.75-2.12-1.29-.38-.26-.91-.6-1.6-1a13.38,13.38,0,0,0-2.8-1.12,16.06,16.06,0,0,0-4.48-.52,17.23,17.23,0,0,0-10.88,4,14.72,14.72,0,0,0-3.85,5.08A16.73,16.73,0,0,0,18.16,36a16.58,16.58,0,0,0,1.47,7.28,15,15,0,0,0,3.88,5,17.11,17.11,0,0,0,10.8,4,15.49,15.49,0,0,0,4.12-.48,13.63,13.63,0,0,0,3-1.16c.83-.45,1.53-.86,2.12-1.23a20.41,20.41,0,0,1,1.8-1,4,4,0,0,1,1.88-.48,3.75,3.75,0,0,1,2.28.88,10.55,10.55,0,0,1,2.36,2.8,10.37,10.37,0,0,1,1.12,2,4.42,4.42,0,0,1,.32,2A3.46,3.46,0,0,1,52,58.38a23,23,0,0,1-2.73,2c-.42.21-1.25.68-2.48,1.4a22.55,22.55,0,0,1-4.88,2A25.39,25.39,0,0,1,34.62,64.65Z"/><path class="cls-2" d="M79.42,64.68a20.23,20.23,0,0,1-7.48-1.49A22.61,22.61,0,0,1,65.19,59a19.68,19.68,0,0,1-6.56-15,20.25,20.25,0,0,1,1.61-8,21,21,0,0,1,4.48-6.59,21.42,21.42,0,0,1,6.61-4.52,19.38,19.38,0,0,1,8-1.63A20.1,20.1,0,0,1,89.72,26a21,21,0,0,1,7.48,7.49A20.1,20.1,0,0,1,100,44a20,20,0,0,1-1.8,8.68,20.43,20.43,0,0,1-4.81,6.51,20.89,20.89,0,0,1-6.64,4.12A20.35,20.35,0,0,1,79.42,64.68ZM79.27,52.6a9,9,0,0,0,3.92-1,8.74,8.74,0,0,0,3.36-2.88,8.23,8.23,0,0,0,1.36-4.88A8.68,8.68,0,0,0,86.8,39.4a8,8,0,0,0-3.08-3,9.21,9.21,0,0,0-4.52-1.08,8.16,8.16,0,0,0-4.28,1.11,8.63,8.63,0,0,0-3,3.08A9.28,9.28,0,0,0,72,48.79a8,8,0,0,0,3.32,2.88A9.39,9.39,0,0,0,79.27,52.6Z"/><path class="cls-2" d="M112.54,64a7.9,7.9,0,0,1-4.2-.85,3.43,3.43,0,0,1-1.52-2.24,15.31,15.31,0,0,1-.28-2.92l0-28.16a12.23,12.23,0,0,1,.32-2.84,3.48,3.48,0,0,1,1.57-2.12,8,8,0,0,1,4.19-.79,7.93,7.93,0,0,1,3.76.68A3.22,3.22,0,0,1,118,26.38a5.14,5.14,0,0,1,.36,1.8,3,3,0,0,0,.16,1.16L118,30.86a4.78,4.78,0,0,1,1.24-2.44A11.59,11.59,0,0,1,122,26.18a15.66,15.66,0,0,1,3.52-1.56,12.82,12.82,0,0,1,3.73-.55,16,16,0,0,1,6.83,1.4,13.75,13.75,0,0,1,5.08,4,18.62,18.62,0,0,1,3.16,6.2,26.53,26.53,0,0,1,1.07,7.81V58.08a14.68,14.68,0,0,1-.28,2.92,3.25,3.25,0,0,1-1.52,2.19,11.37,11.37,0,0,1-8.48,0,3.58,3.58,0,0,1-1.56-2.24,13.26,13.26,0,0,1-.32-2.92V43.51a9.49,9.49,0,0,0-.79-4.08,5.87,5.87,0,0,0-2.4-2.6,7.71,7.71,0,0,0-3.92-.93,7.92,7.92,0,0,0-4,1,6.67,6.67,0,0,0-2.6,2.64,8.13,8.13,0,0,0-.93,4V58.06a14.61,14.61,0,0,1-.28,2.92,3.3,3.3,0,0,1-1.52,2.2A8.18,8.18,0,0,1,112.54,64Z"/><path class="cls-2" d="M155.68,24.72h8.8l11-.32a13.92,13.92,0,0,1,2.88.29,3.46,3.46,0,0,1,2.24,1.56,7.68,7.68,0,0,1,.88,4.24,7.47,7.47,0,0,1-.84,4,3.7,3.7,0,0,1-2.2,1.63,11.17,11.17,0,0,1-3,.36L165,36.25h-9.68a3.83,3.83,0,0,1-3.24-1.4,8,8,0,0,1-.92-4.44,6.76,6.76,0,0,1,1.12-4.28A4.06,4.06,0,0,1,155.68,24.72Zm18.06,39.37a24.7,24.7,0,0,1-7-.88,11.86,11.86,0,0,1-4.84-2.72,11,11,0,0,1-2.83-4.69,21.79,21.79,0,0,1-.92-6.76l0-32.48a13.4,13.4,0,0,1,.28-2.88A3.41,3.41,0,0,1,160,11.56a7.86,7.86,0,0,1,4.16-.83,7.5,7.5,0,0,1,4.16.88,3.56,3.56,0,0,1,1.56,2.24,14.45,14.45,0,0,1,.28,3l0,31.76a9,9,0,0,0,.2,2.12,2.53,2.53,0,0,0,.6,1.24,2.2,2.2,0,0,0,1.12.56,8,8,0,0,0,1.76.16A13.93,13.93,0,0,1,177,53a3.47,3.47,0,0,1,2.12,1.45,7,7,0,0,1,.75,3.76,7.53,7.53,0,0,1-.88,4.16,3.41,3.41,0,0,1-2.28,1.51A17.26,17.26,0,0,1,173.74,64.09Z"/><path class="cls-2" d="M207.5,64.83A23.22,23.22,0,0,1,197.86,63a18.83,18.83,0,0,1-6.6-4.85,20,20,0,0,1-3.79-6.68,22.84,22.84,0,0,1-1.24-7.36A20.58,20.58,0,0,1,189,33.46a19.57,19.57,0,0,1,7.52-7.31,22.23,22.23,0,0,1,11-2.68,19.93,19.93,0,0,1,8,1.49,16.66,16.66,0,0,1,5.6,3.84,16.28,16.28,0,0,1,3.28,5.08,14.12,14.12,0,0,1,1.08,5.2q0,4.41-2.13,6.52a7.28,7.28,0,0,1-5.4,2.12H199a5.65,5.65,0,0,0,1.48,3.52,8.82,8.82,0,0,0,3.32,2.24,11.34,11.34,0,0,0,4.24.8,25.44,25.44,0,0,0,3.36-.19,13.88,13.88,0,0,0,2.48-.56q1-.36,1.92-.72t1.56-.6a6,6,0,0,1,1.32-.32,3.19,3.19,0,0,1,2.2.68,7,7,0,0,1,1.8,2.28,5.81,5.81,0,0,1,.75,1.68,6.32,6.32,0,0,1,.2,1.6,4.32,4.32,0,0,1-2,3.44A15,15,0,0,1,216.1,64,36.7,36.7,0,0,1,207.5,64.83ZM199,41.15h12.64a3.15,3.15,0,0,0,1.88-.43,2.07,2.07,0,0,0,.61-1.72,3.91,3.91,0,0,0-.88-2.52,5.94,5.94,0,0,0-2.36-1.69,9,9,0,0,0-3.4-.6,9.69,9.69,0,0,0-4.4,1,7.63,7.63,0,0,0-3,2.56A6,6,0,0,0,199,41.15Z"/><path class="cls-2" d="M238.22,64.05a7.82,7.82,0,0,1-4.2-.84A3.45,3.45,0,0,1,232.5,61a14.61,14.61,0,0,1-.28-2.92l0-28.16a12.23,12.23,0,0,1,.32-2.84,3.4,3.4,0,0,1,1.56-2.12,8.18,8.18,0,0,1,4.2-.8,8,8,0,0,1,3.76.68,3.28,3.28,0,0,1,1.56,1.65,5,5,0,0,1,.36,1.79,2.82,2.82,0,0,0,.16,1.16l-.48,1.52a4.71,4.71,0,0,1,1.24-2.43,11.35,11.35,0,0,1,2.72-2.24,14.64,14.64,0,0,1,3.52-1.56,13.17,13.17,0,0,1,3.72-.56,16,16,0,0,1,6.84,1.4,14,14,0,0,1,5.08,4.05,18.81,18.81,0,0,1,3.16,6.2,27.09,27.09,0,0,1,1.07,7.8V58.15a14.61,14.61,0,0,1-.28,2.92,3.3,3.3,0,0,1-1.52,2.2,8.18,8.18,0,0,1-4.2.8,7.9,7.9,0,0,1-4.28-.85A3.56,3.56,0,0,1,259.18,61a13.2,13.2,0,0,1-.32-2.92V43.58a9.34,9.34,0,0,0-.8-4.08,5.84,5.84,0,0,0-2.39-2.6,7.81,7.81,0,0,0-3.92-.92,8,8,0,0,0-4,1,6.73,6.73,0,0,0-2.6,2.64,8.22,8.22,0,0,0-.92,4V58.13a14.54,14.54,0,0,1-.28,2.92,3.28,3.28,0,0,1-1.52,2.2A8.08,8.08,0,0,1,238.22,64.05Z"/><path class="cls-2" d="M285.29,18.4a8,8,0,0,1-4.32-.88,3.52,3.52,0,0,1-1.56-2.32,15.69,15.69,0,0,1-.28-3,14,14,0,0,1,.32-3.08,3.54,3.54,0,0,1,1.6-2.24A8.27,8.27,0,0,1,285.37,6a7.68,7.68,0,0,1,4.24.88,3.6,3.6,0,0,1,1.56,2.32,15.69,15.69,0,0,1,.28,3,16.44,16.44,0,0,1-.28,3,3.45,3.45,0,0,1-1.56,2.28A8.27,8.27,0,0,1,285.29,18.4Zm0,45.76a7.77,7.77,0,0,1-4.2-.84,3.45,3.45,0,0,1-1.52-2.24,14.68,14.68,0,0,1-.28-2.92l0-27.92a14.38,14.38,0,0,1,.28-3,3.41,3.41,0,0,1,1.56-2.2,8,8,0,0,1,4.24-.84,7.39,7.39,0,0,1,4.12.88A3.6,3.6,0,0,1,291,27.36a14.91,14.91,0,0,1,.28,3l0,27.84a14.54,14.54,0,0,1-.28,2.92,3.28,3.28,0,0,1-1.52,2.2A8.18,8.18,0,0,1,285.26,64.16Z"/><path class="cls-2" d="M316.94,64.1A15.94,15.94,0,0,1,310,62.53a18.59,18.59,0,0,1-5.88-4.36,21.4,21.4,0,0,1-4-6.44A20.43,20.43,0,0,1,298.63,44a19.38,19.38,0,0,1,1.48-7.48,20.76,20.76,0,0,1,4.09-6.32,20.18,20.18,0,0,1,5.88-4.36A15.59,15.59,0,0,1,317,24.26a14.14,14.14,0,0,1,6.76,1.56,14.55,14.55,0,0,1,4.92,4.29,19.14,19.14,0,0,1,3,6.32A30,30,0,0,1,332.71,44a27,27,0,0,1-.92,7.68,20.41,20.41,0,0,1-3,6.4,15.09,15.09,0,0,1-4.92,4.43A14,14,0,0,1,316.94,64.1Zm1.6-11.84a7.13,7.13,0,0,0,3.88-1.08,8.37,8.37,0,0,0,2.81-2.92,7.88,7.88,0,0,0,1.08-4.08,8.14,8.14,0,0,0-1-4.12,7.95,7.95,0,0,0-10.76-2.84,7.39,7.39,0,0,0-2.8,2.83,8.32,8.32,0,0,0-1,4.12,8,8,0,0,0,1,4.08,7.72,7.72,0,0,0,2.88,2.93A7.58,7.58,0,0,0,318.54,52.26Zm14,11.93a7.53,7.53,0,0,1-4.08-.89,4.05,4.05,0,0,1-1.76-2.72l0-48.48a19.79,19.79,0,0,1,.2-2.92,3.29,3.29,0,0,1,1.4-2.27A7.28,7.28,0,0,1,332.49,6a7.82,7.82,0,0,1,4.2.84,3.44,3.44,0,0,1,1.52,2.2,14.45,14.45,0,0,1,.28,3l0,46.08a14.54,14.54,0,0,1-.28,2.92,3.64,3.64,0,0,1-1.52,2.28A7.3,7.3,0,0,1,332.54,64.19Z"/><path class="cls-2" d="M365.82,64.85a20,20,0,0,1-7.48-1.49,22.45,22.45,0,0,1-6.76-4.2,19.58,19.58,0,0,1-6.55-15,20,20,0,0,1,1.6-8,21.06,21.06,0,0,1,4.49-6.6,21.49,21.49,0,0,1,6.6-4.52,19.55,19.55,0,0,1,8-1.63,20.17,20.17,0,0,1,10.44,2.76,21,21,0,0,1,7.47,7.49,20.13,20.13,0,0,1,2.8,10.48,20,20,0,0,1-1.81,8.68,20.71,20.71,0,0,1-4.8,6.52,21.15,21.15,0,0,1-6.64,4.11A20.35,20.35,0,0,1,365.82,64.85Zm-.16-12.08a9,9,0,0,0,3.92-1A8.69,8.69,0,0,0,373,48.93a8.28,8.28,0,0,0,1.36-4.88,8.71,8.71,0,0,0-1.12-4.48,7.93,7.93,0,0,0-3.08-3,9.19,9.19,0,0,0-4.52-1.08,8.19,8.19,0,0,0-4.28,1.12,8.58,8.58,0,0,0-4.2,7.51A8.45,8.45,0,0,0,358.43,49a8,8,0,0,0,3.31,2.89A9.41,9.41,0,0,0,365.66,52.77Z"/><path class="cls-1" d="M34.62,64.65a27.38,27.38,0,0,1-7.44-1.12,32.54,32.54,0,0,1-7.67-3.37,28.61,28.61,0,0,1-6.84-5.72,26.8,26.8,0,0,1-4.88-8.17A29.82,29.82,0,0,1,6,35.59,27.43,27.43,0,0,1,7.81,25.31a25.71,25.71,0,0,1,4.84-7.87,28.94,28.94,0,0,1,6.8-5.56A32,32,0,0,1,27.22,8.6a29.54,29.54,0,0,1,7.6-1.07,23.73,23.73,0,0,1,7.12,1,30.77,30.77,0,0,1,5,2,17.21,17.21,0,0,1,2.4,1.4,19.61,19.61,0,0,1,2.72,2,4,4,0,0,1,1.36,3A5.11,5.11,0,0,1,53,18.7a9.72,9.72,0,0,1-1.08,2,11.31,11.31,0,0,1-2.44,2.68,4,4,0,0,1-2.36.84,3.57,3.57,0,0,1-1.8-.48c-.56-.32-1.27-.75-2.12-1.29-.38-.26-.91-.6-1.6-1a13.38,13.38,0,0,0-2.8-1.12,16.06,16.06,0,0,0-4.48-.52,17.23,17.23,0,0,0-10.88,4,14.72,14.72,0,0,0-3.85,5.08A16.73,16.73,0,0,0,18.16,36a16.58,16.58,0,0,0,1.47,7.28,15,15,0,0,0,3.88,5,17.11,17.11,0,0,0,10.8,4,15.49,15.49,0,0,0,4.12-.48,13.63,13.63,0,0,0,3-1.16c.83-.45,1.53-.86,2.12-1.23a20.41,20.41,0,0,1,1.8-1,4,4,0,0,1,1.88-.48,3.75,3.75,0,0,1,2.28.88,10.55,10.55,0,0,1,2.36,2.8,10.37,10.37,0,0,1,1.12,2,4.42,4.42,0,0,1,.32,2A3.46,3.46,0,0,1,52,58.38a23,23,0,0,1-2.73,2c-.42.21-1.25.68-2.48,1.4a22.55,22.55,0,0,1-4.88,2A25.39,25.39,0,0,1,34.62,64.65Z"/><path class="cls-1" d="M79.42,64.68a20.23,20.23,0,0,1-7.48-1.49A22.61,22.61,0,0,1,65.19,59a19.68,19.68,0,0,1-6.56-15,20.25,20.25,0,0,1,1.61-8,21,21,0,0,1,4.48-6.59,21.42,21.42,0,0,1,6.61-4.52,19.38,19.38,0,0,1,8-1.63A20.1,20.1,0,0,1,89.72,26a21,21,0,0,1,7.48,7.49A20.1,20.1,0,0,1,100,44a20,20,0,0,1-1.8,8.68,20.43,20.43,0,0,1-4.81,6.51,20.89,20.89,0,0,1-6.64,4.12A20.35,20.35,0,0,1,79.42,64.68ZM79.27,52.6a9,9,0,0,0,3.92-1,8.74,8.74,0,0,0,3.36-2.88,8.23,8.23,0,0,0,1.36-4.88A8.68,8.68,0,0,0,86.8,39.4a8,8,0,0,0-3.08-3,9.21,9.21,0,0,0-4.52-1.08,8.16,8.16,0,0,0-4.28,1.11,8.63,8.63,0,0,0-3,3.08A9.28,9.28,0,0,0,72,48.79a8,8,0,0,0,3.32,2.88A9.39,9.39,0,0,0,79.27,52.6Z"/><path class="cls-1" d="M112.54,64a7.9,7.9,0,0,1-4.2-.85,3.43,3.43,0,0,1-1.52-2.24,15.31,15.31,0,0,1-.28-2.92l0-28.16a12.23,12.23,0,0,1,.32-2.84,3.48,3.48,0,0,1,1.57-2.12,8,8,0,0,1,4.19-.79,7.93,7.93,0,0,1,3.76.68A3.22,3.22,0,0,1,118,26.38a5.14,5.14,0,0,1,.36,1.8,3,3,0,0,0,.16,1.16L118,30.86a4.78,4.78,0,0,1,1.24-2.44A11.59,11.59,0,0,1,122,26.18a15.66,15.66,0,0,1,3.52-1.56,12.82,12.82,0,0,1,3.73-.55,16,16,0,0,1,6.83,1.4,13.75,13.75,0,0,1,5.08,4,18.62,18.62,0,0,1,3.16,6.2,26.53,26.53,0,0,1,1.07,7.81V58.08a14.68,14.68,0,0,1-.28,2.92,3.25,3.25,0,0,1-1.52,2.19,11.37,11.37,0,0,1-8.48,0,3.58,3.58,0,0,1-1.56-2.24,13.26,13.26,0,0,1-.32-2.92V43.51a9.49,9.49,0,0,0-.79-4.08,5.87,5.87,0,0,0-2.4-2.6,7.71,7.71,0,0,0-3.92-.93,7.92,7.92,0,0,0-4,1,6.67,6.67,0,0,0-2.6,2.64,8.13,8.13,0,0,0-.93,4V58.06a14.61,14.61,0,0,1-.28,2.92,3.3,3.3,0,0,1-1.52,2.2A8.18,8.18,0,0,1,112.54,64Z"/><path class="cls-1" d="M155.68,24.72h8.8l11-.32a13.92,13.92,0,0,1,2.88.29,3.46,3.46,0,0,1,2.24,1.56,7.68,7.68,0,0,1,.88,4.24,7.47,7.47,0,0,1-.84,4,3.7,3.7,0,0,1-2.2,1.63,11.17,11.17,0,0,1-3,.36L165,36.25h-9.68a3.83,3.83,0,0,1-3.24-1.4,8,8,0,0,1-.92-4.44,6.76,6.76,0,0,1,1.12-4.28A4.06,4.06,0,0,1,155.68,24.72Zm18.06,39.37a24.7,24.7,0,0,1-7-.88,11.86,11.86,0,0,1-4.84-2.72,11,11,0,0,1-2.83-4.69,21.79,21.79,0,0,1-.92-6.76l0-32.48a13.4,13.4,0,0,1,.28-2.88A3.41,3.41,0,0,1,160,11.56a7.86,7.86,0,0,1,4.16-.83,7.5,7.5,0,0,1,4.16.88,3.56,3.56,0,0,1,1.56,2.24,14.45,14.45,0,0,1,.28,3l0,31.76a9,9,0,0,0,.2,2.12,2.53,2.53,0,0,0,.6,1.24,2.2,2.2,0,0,0,1.12.56,8,8,0,0,0,1.76.16A13.93,13.93,0,0,1,177,53a3.47,3.47,0,0,1,2.12,1.45,7,7,0,0,1,.75,3.76,7.53,7.53,0,0,1-.88,4.16,3.41,3.41,0,0,1-2.28,1.51A17.26,17.26,0,0,1,173.74,64.09Z"/><path class="cls-1" d="M207.5,64.83A23.22,23.22,0,0,1,197.86,63a18.83,18.83,0,0,1-6.6-4.85,20,20,0,0,1-3.79-6.68,22.84,22.84,0,0,1-1.24-7.36A20.58,20.58,0,0,1,189,33.46a19.57,19.57,0,0,1,7.52-7.31,22.23,22.23,0,0,1,11-2.68,19.93,19.93,0,0,1,8,1.49,16.66,16.66,0,0,1,5.6,3.84,16.28,16.28,0,0,1,3.28,5.08,14.12,14.12,0,0,1,1.08,5.2q0,4.41-2.13,6.52a7.28,7.28,0,0,1-5.4,2.12H199a5.65,5.65,0,0,0,1.48,3.52,8.82,8.82,0,0,0,3.32,2.24,11.34,11.34,0,0,0,4.24.8,25.44,25.44,0,0,0,3.36-.19,13.88,13.88,0,0,0,2.48-.56q1-.36,1.92-.72t1.56-.6a6,6,0,0,1,1.32-.32,3.19,3.19,0,0,1,2.2.68,7,7,0,0,1,1.8,2.28,5.81,5.81,0,0,1,.75,1.68,6.32,6.32,0,0,1,.2,1.6,4.32,4.32,0,0,1-2,3.44A15,15,0,0,1,216.1,64,36.7,36.7,0,0,1,207.5,64.83ZM199,41.15h12.64a3.15,3.15,0,0,0,1.88-.43,2.07,2.07,0,0,0,.61-1.72,3.91,3.91,0,0,0-.88-2.52,5.94,5.94,0,0,0-2.36-1.69,9,9,0,0,0-3.4-.6,9.69,9.69,0,0,0-4.4,1,7.63,7.63,0,0,0-3,2.56A6,6,0,0,0,199,41.15Z"/><path class="cls-1" d="M238.22,64.05a7.82,7.82,0,0,1-4.2-.84A3.45,3.45,0,0,1,232.5,61a14.61,14.61,0,0,1-.28-2.92l0-28.16a12.23,12.23,0,0,1,.32-2.84,3.4,3.4,0,0,1,1.56-2.12,8.18,8.18,0,0,1,4.2-.8,8,8,0,0,1,3.76.68,3.28,3.28,0,0,1,1.56,1.65,5,5,0,0,1,.36,1.79,2.82,2.82,0,0,0,.16,1.16l-.48,1.52a4.71,4.71,0,0,1,1.24-2.43,11.35,11.35,0,0,1,2.72-2.24,14.64,14.64,0,0,1,3.52-1.56,13.17,13.17,0,0,1,3.72-.56,16,16,0,0,1,6.84,1.4,14,14,0,0,1,5.08,4.05,18.81,18.81,0,0,1,3.16,6.2,27.09,27.09,0,0,1,1.07,7.8V58.15a14.61,14.61,0,0,1-.28,2.92,3.3,3.3,0,0,1-1.52,2.2,8.18,8.18,0,0,1-4.2.8,7.9,7.9,0,0,1-4.28-.85A3.56,3.56,0,0,1,259.18,61a13.2,13.2,0,0,1-.32-2.92V43.58a9.34,9.34,0,0,0-.8-4.08,5.84,5.84,0,0,0-2.39-2.6,7.81,7.81,0,0,0-3.92-.92,8,8,0,0,0-4,1,6.73,6.73,0,0,0-2.6,2.64,8.22,8.22,0,0,0-.92,4V58.13a14.54,14.54,0,0,1-.28,2.92,3.28,3.28,0,0,1-1.52,2.2A8.08,8.08,0,0,1,238.22,64.05Z"/><path class="cls-1" d="M285.29,18.4a8,8,0,0,1-4.32-.88,3.52,3.52,0,0,1-1.56-2.32,15.69,15.69,0,0,1-.28-3,14,14,0,0,1,.32-3.08,3.54,3.54,0,0,1,1.6-2.24A8.27,8.27,0,0,1,285.37,6a7.68,7.68,0,0,1,4.24.88,3.6,3.6,0,0,1,1.56,2.32,15.69,15.69,0,0,1,.28,3,16.44,16.44,0,0,1-.28,3,3.45,3.45,0,0,1-1.56,2.28A8.27,8.27,0,0,1,285.29,18.4Zm0,45.76a7.77,7.77,0,0,1-4.2-.84,3.45,3.45,0,0,1-1.52-2.24,14.68,14.68,0,0,1-.28-2.92l0-27.92a14.38,14.38,0,0,1,.28-3,3.41,3.41,0,0,1,1.56-2.2,8,8,0,0,1,4.24-.84,7.39,7.39,0,0,1,4.12.88A3.6,3.6,0,0,1,291,27.36a14.91,14.91,0,0,1,.28,3l0,27.84a14.54,14.54,0,0,1-.28,2.92,3.28,3.28,0,0,1-1.52,2.2A8.18,8.18,0,0,1,285.26,64.16Z"/><path class="cls-1" d="M316.94,64.1A15.94,15.94,0,0,1,310,62.53a18.59,18.59,0,0,1-5.88-4.36,21.4,21.4,0,0,1-4-6.44A20.43,20.43,0,0,1,298.63,44a19.38,19.38,0,0,1,1.48-7.48,20.76,20.76,0,0,1,4.09-6.32,20.18,20.18,0,0,1,5.88-4.36A15.59,15.59,0,0,1,317,24.26a14.14,14.14,0,0,1,6.76,1.56,14.55,14.55,0,0,1,4.92,4.29,19.14,19.14,0,0,1,3,6.32A30,30,0,0,1,332.71,44a27,27,0,0,1-.92,7.68,20.41,20.41,0,0,1-3,6.4,15.09,15.09,0,0,1-4.92,4.43A14,14,0,0,1,316.94,64.1Zm1.6-11.84a7.13,7.13,0,0,0,3.88-1.08,8.37,8.37,0,0,0,2.81-2.92,7.88,7.88,0,0,0,1.08-4.08,8.14,8.14,0,0,0-1-4.12,7.95,7.95,0,0,0-10.76-2.84,7.39,7.39,0,0,0-2.8,2.83,8.32,8.32,0,0,0-1,4.12,8,8,0,0,0,1,4.08,7.72,7.72,0,0,0,2.88,2.93A7.58,7.58,0,0,0,318.54,52.26Zm14,11.93a7.53,7.53,0,0,1-4.08-.89,4.05,4.05,0,0,1-1.76-2.72l0-48.48a19.79,19.79,0,0,1,.2-2.92,3.29,3.29,0,0,1,1.4-2.27A7.28,7.28,0,0,1,332.49,6a7.82,7.82,0,0,1,4.2.84,3.44,3.44,0,0,1,1.52,2.2,14.45,14.45,0,0,1,.28,3l0,46.08a14.54,14.54,0,0,1-.28,2.92,3.64,3.64,0,0,1-1.52,2.28A7.3,7.3,0,0,1,332.54,64.19Z"/><path class="cls-1" d="M365.82,64.85a20,20,0,0,1-7.48-1.49,22.45,22.45,0,0,1-6.76-4.2,19.58,19.58,0,0,1-6.55-15,20,20,0,0,1,1.6-8,21.06,21.06,0,0,1,4.49-6.6,21.49,21.49,0,0,1,6.6-4.52,19.55,19.55,0,0,1,8-1.63,20.17,20.17,0,0,1,10.44,2.76,21,21,0,0,1,7.47,7.49,20.13,20.13,0,0,1,2.8,10.48,20,20,0,0,1-1.81,8.68,20.71,20.71,0,0,1-4.8,6.52,21.15,21.15,0,0,1-6.64,4.11A20.35,20.35,0,0,1,365.82,64.85Zm-.16-12.08a9,9,0,0,0,3.92-1A8.69,8.69,0,0,0,373,48.93a8.28,8.28,0,0,0,1.36-4.88,8.71,8.71,0,0,0-1.12-4.48,7.93,7.93,0,0,0-3.08-3,9.19,9.19,0,0,0-4.52-1.08,8.19,8.19,0,0,0-4.28,1.12,8.58,8.58,0,0,0-4.2,7.51A8.45,8.45,0,0,0,358.43,49a8,8,0,0,0,3.31,2.89A9.41,9.41,0,0,0,365.66,52.77Z"/></g></g></svg>