<svg xmlns="http://www.w3.org/2000/svg" viewBox="0 0 1519.15 258.35"><defs><style>.cls-1{fill:#148adb;}</style></defs><title>decop_2</title><g id="Layer_2" data-name="Layer 2"><g id="Portada_Guia_1" data-name="Portada Guia 1"><path class="cls-1" d="M1505.56,115.45a56,56,0,0,1-5.74,11.22l-.3.43a0,0,0,0,1,0,0c-44.78,72.72-166.63,70.72-208.93-3.46v0C1224.55-36.91,996.39-41.42,922.24,112c-13.38,27.69-36.36,50-65.42,60.25-53.5,18.94-121,2.66-150.33-49.11v0C684.66,68.43,637.86,28.49,583.82,10.19V93.38a107.21,107.21,0,0,1,41.3,40.28s0,0,0,0c19.64,43,50.46,80.54,93.67,101.89v0c104,55.67,237.29,4.62,280.57-103.71v0c43.45-73.36,165.2-73.49,208.8-.17,0,0,0,0,0,0a123.2,123.2,0,0,1,8.76,15.51c7.36,15.53,16.22,30.38,27.65,43.23a202.43,202.43,0,0,0,55.67,43.86v0c67.63,38.4,157.54,28.38,218.85-17.64V87.38A199.45,199.45,0,0,0,1505.56,115.45Z"/><path class="cls-1" d="M921.74,115.45A55.5,55.5,0,0,1,916,126.67l-.3.43a0,0,0,0,1,0,0c-44.78,72.72-166.63,70.72-208.93-3.46v0C640.74-36.91,412.57-41.42,338.42,112,325,139.68,302.06,162,273,172.24c-53.5,18.94-121,2.66-150.33-49.11v0C100.84,68.43,54,28.49,0,10.19V93.38a107.21,107.21,0,0,1,41.3,40.28s0,0,0,0C61,176.64,91.79,214.22,135,235.57v0c104,55.67,237.29,4.62,280.57-103.71v0c43.45-73.36,165.2-73.49,208.8-.17,0,0,0,0,0,0a123.2,123.2,0,0,1,8.76,15.51c7.36,15.53,16.22,30.38,27.65,43.23a202.43,202.43,0,0,0,55.67,43.86v0c67.63,38.4,157.54,28.38,218.85-17.64V87.38A199.45,199.45,0,0,0,921.74,115.45Z"/></g></g></svg>