<?xml version="1.0" encoding="utf-8"?>
<!-- Generator: Adobe Illustrator 24.0.2, SVG Export Plug-In . SVG Version: 6.00 Build 0)  -->
<svg version="1.1" id="Layer_1" xmlns="http://www.w3.org/2000/svg" xmlns:xlink="http://www.w3.org/1999/xlink" x="0px" y="0px"
	 viewBox="0 0 1519.2 258.4" style="enable-background:new 0 0 1519.2 258.4;" xml:space="preserve">
<style type="text/css">
	.st0{fill:#7C439F;}
</style>
<title>decop_2</title>
<g id="Layer_2_1_">
	<g id="Portada_Guia_1">
		<path class="st0" d="M1505.6,115.4c-1.5,3.9-3.4,7.7-5.7,11.2l-0.3,0.4l0,0c-44.8,72.7-166.6,70.7-208.9-3.5l0,0
			c-66-160.6-294.2-165.1-368.4-11.6c-13.4,27.7-36.4,50-65.4,60.3c-53.5,18.9-121,2.7-150.3-49.1l0,0
			c-21.8-54.7-68.6-94.7-122.7-112.9v83.2c17.2,9.4,31.5,23.3,41.3,40.3l0,0c19.6,43,50.5,80.5,93.7,101.9l0,0
			c104,55.7,237.3,4.6,280.6-103.7l0,0c43.4-73.4,165.2-73.5,208.8-0.2l0,0c3.3,5,6.2,10.1,8.8,15.5c7.4,15.5,16.2,30.4,27.7,43.2
			c15.8,17.8,34.7,32.6,55.7,43.9l0,0c67.6,38.4,157.5,28.4,218.8-17.6V87.4C1513.9,96.4,1509.3,105.8,1505.6,115.4z"/>
		<path class="st0" d="M921.7,115.4c-1.5,3.9-3.4,7.7-5.7,11.2l-0.3,0.4l0,0c-44.8,72.7-166.6,70.7-208.9-3.5l0,0
			C640.7-36.9,412.6-41.4,338.4,112c-13.4,27.7-36.4,50-65.4,60.2c-53.5,18.9-121,2.7-150.3-49.1l0,0C100.8,68.4,54,28.5,0,10.2
			v83.2c17.2,9.4,31.5,23.3,41.3,40.3l0,0c19.7,43,50.5,80.6,93.7,101.9l0,0c104,55.7,237.3,4.6,280.6-103.7l0,0
			c43.5-73.4,165.2-73.5,208.8-0.2l0,0c3.3,5,6.2,10.1,8.8,15.5c7.4,15.5,16.2,30.4,27.7,43.2c15.8,17.8,34.7,32.6,55.7,43.9l0,0
			c67.6,38.4,157.5,28.4,218.9-17.6V87.4C930.1,96.4,925.5,105.8,921.7,115.4z"/>
	</g>
</g>
</svg>
