<svg xmlns="http://www.w3.org/2000/svg" viewBox="0 0 588.56 527.79"><defs><style>.cls-1{fill:#e5e5e5;}.cls-2{fill:#bf4400;}.cls-21,.cls-3{fill:#003b49;}.cls-15,.cls-18,.cls-23,.cls-4,.cls-6{fill:#fff;}.cls-10,.cls-11,.cls-12,.cls-13,.cls-14,.cls-15,.cls-16,.cls-17,.cls-19,.cls-20,.cls-21,.cls-22,.cls-23,.cls-4,.cls-5,.cls-6,.cls-7,.cls-9{stroke:#000;}.cls-10,.cls-11,.cls-12,.cls-13,.cls-14,.cls-15,.cls-16,.cls-17,.cls-19,.cls-20,.cls-21,.cls-22,.cls-25,.cls-26,.cls-4,.cls-5,.cls-6,.cls-7,.cls-9{stroke-miterlimit:10;}.cls-17,.cls-21,.cls-4,.cls-5,.cls-9{stroke-width:4.75px;}.cls-5{fill:#3291b2;}.cls-6,.cls-7{stroke-width:2.18px;}.cls-14,.cls-17,.cls-22,.cls-24,.cls-25,.cls-26,.cls-27,.cls-29,.cls-30,.cls-31,.cls-32,.cls-33,.cls-34,.cls-35,.cls-36,.cls-7,.cls-9{fill:none;}.cls-17,.cls-22,.cls-23,.cls-24,.cls-27,.cls-29,.cls-30,.cls-31,.cls-32,.cls-33,.cls-34,.cls-35,.cls-36,.cls-7{stroke-linecap:round;}.cls-10,.cls-8{fill:#00607a;}.cls-10,.cls-14{stroke-width:2.78px;}.cls-11,.cls-12,.cls-13{fill:#b3b3b3;}.cls-11{stroke-width:2.05px;}.cls-12{stroke-width:1.21px;}.cls-13{stroke-width:1.39px;}.cls-15{stroke-width:2.37px;}.cls-16{stroke-width:0.28px;}.cls-19{fill:#75c6d3;stroke-width:2.1px;}.cls-20{stroke-width:0.24px;}.cls-22{stroke-width:2.96px;}.cls-23,.cls-24,.cls-27,.cls-29,.cls-30,.cls-31,.cls-32,.cls-33,.cls-34,.cls-35,.cls-36{stroke-linejoin:round;}.cls-23{stroke-width:3.22px;}.cls-24{stroke:#b3b3b3;stroke-width:0.44px;}.cls-25,.cls-26,.cls-29,.cls-30,.cls-31,.cls-34,.cls-35,.cls-36{stroke:#1d1d1b;}.cls-25{stroke-width:0.38px;}.cls-26{stroke-width:0.44px;}.cls-27,.cls-32,.cls-33{stroke:#7c439f;}.cls-27{stroke-width:0.52px;}.cls-28{fill:#7c439f;}.cls-29,.cls-30,.cls-31{stroke-width:0.21px;}.cls-30{stroke-dasharray:1.27 1.27;}.cls-31{stroke-dasharray:1.29 1.29;}.cls-32{stroke-width:0.47px;}.cls-33{stroke-width:0.31px;}.cls-34,.cls-35{stroke-width:0.21px;}.cls-35{stroke-dasharray:0.91 0.91;}.cls-36{stroke-width:0.22px;stroke-dasharray:0.98;}</style></defs><title>lcp</title><g id="Layer_2" data-name="Layer 2"><g id="pizarra"><path class="cls-1" d="M406.74,513.93a92.68,92.68,0,0,1-10.64-1.82c-1-.22-17.62-4-23.56-4.4h-.16c-6.9-.36-20.11,1.42-28,2.47l-1,.14a26.4,26.4,0,0,1-5.24.19A25.91,25.91,0,0,1,316.31,496c-2.56,7.62.26,13.4,4.19,16.48,10.83,8.5,20.38,7.39,32.46,6A123.58,123.58,0,0,1,370,517.35a149,149,0,0,1,26.42,3.13c12.31,2.3,21.2,4,33.43-1.92,7.45-3.58,9.14-11.26,9.43-16C432.23,510.35,420,514.75,406.74,513.93Z"/><path class="cls-2" d="M409.89,462.6a43.52,43.52,0,0,0-18.2,2.64l-.11,0c-.08,0-8.06,2.64-13.62,13.74a1.67,1.67,0,1,1-3-1.51,35.12,35.12,0,0,1,8.47-11.11,35.19,35.19,0,0,0-11.36-13.78,47.09,47.09,0,0,1-12.66,2.4h-.21a1.67,1.67,0,0,1,0-3.34,44.48,44.48,0,0,0,12.47-2.45l.17-.07c5.74-2.16,9.43-5.46,9.66-9.19.44-7.29-12.21-14.24-27.63-15.19s-28.83,4.41-29.28,11.7c-.24,4,3.48,8,9.73,10.93a1.13,1.13,0,0,1,.22.11A43,43,0,0,0,342,450.1a1.68,1.68,0,0,1-.82,3.26,47.59,47.59,0,0,1-7.38-2.5A35.11,35.11,0,0,0,318,491.15l.07.22A22.62,22.62,0,0,0,342.9,507l1-.14c8.53-1.14,21.42-2.87,28.63-2.5,6.22.31,23.6,4.33,24.34,4.5l.09,0a95.43,95.43,0,0,0,10,1.71c13.89.85,26.9-4.66,32.37-13.7a17.94,17.94,0,0,0,2.62-8.25C442.77,475.42,428.38,463.73,409.89,462.6Z"/><path d="M410.1,459.25a47.07,47.07,0,0,0-19.57,2.84,19.76,19.76,0,0,0-4.37,2.24,38.34,38.34,0,0,0-10.48-13.2c5.49-2.69,8.9-6.55,9.17-11,.58-9.41-12.93-17.64-30.77-18.74s-32.25,5.43-32.83,14.84c-.29,4.79,3.07,9.36,9.05,12.82a38.42,38.42,0,0,0-15.69,42.37c-5.49,11-1.42,19.59,3.82,23.7a33.44,33.44,0,0,0,19.51,7.58,86.91,86.91,0,0,0,15.41-.91A119.87,119.87,0,0,1,370,520.7a146.19,146.19,0,0,1,25.87,3.08c12.44,2.32,22.27,4.16,35.49-2.2,7.36-3.54,10-10.38,10.94-15.5a27.5,27.5,0,0,0,.28-8.05,21.11,21.11,0,0,0,2.77-9.18C446.23,473.77,430.44,460.5,410.1,459.25Zm19.76,59.31c-12.23,5.88-21.12,4.22-33.43,1.92A149,149,0,0,0,370,517.35,123.58,123.58,0,0,0,353,518.5c-12.08,1.41-21.63,2.52-32.46-6-3.93-3.08-6.75-8.86-4.19-16.48a25.91,25.91,0,0,0,21.8,14.46,26.4,26.4,0,0,0,5.24-.19l1-.14c7.89-1.05,21.1-2.83,28-2.47h.16c5.94.37,22.59,4.18,23.56,4.4a92.68,92.68,0,0,0,10.64,1.82c13.29.82,25.49-3.58,32.55-11.42C439,507.3,437.31,515,429.86,518.56Zm9.47-21.67c-5.47,9-18.48,14.55-32.37,13.7a95.43,95.43,0,0,1-10-1.71l-.09,0c-.74-.17-18.12-4.19-24.34-4.5-7.21-.37-20.1,1.36-28.63,2.5l-1,.14a22.62,22.62,0,0,1-24.83-15.62l-.07-.22a35.11,35.11,0,0,1,15.8-40.29,47.59,47.59,0,0,0,7.38,2.5,1.68,1.68,0,0,0,.82-3.26,43,43,0,0,1-7.45-2.58,1.13,1.13,0,0,0-.22-.11c-6.25-2.93-10-6.94-9.73-10.93.45-7.29,13.86-12.65,29.28-11.7S382,432.68,381.51,440c-.23,3.73-3.92,7-9.66,9.19l-.17.07a44.48,44.48,0,0,1-12.47,2.45,1.67,1.67,0,0,0,0,3.34h.21a47.09,47.09,0,0,0,12.66-2.4,35.19,35.19,0,0,1,11.36,13.78A35.12,35.12,0,0,0,375,477.51a1.67,1.67,0,1,0,3,1.51c5.56-11.1,13.54-13.72,13.62-13.74l.11,0a43.52,43.52,0,0,1,18.2-2.64c18.49,1.13,32.88,12.82,32.06,26A17.94,17.94,0,0,1,439.33,496.89Z"/><path class="cls-3" d="M352.13,441.92a14.9,14.9,0,0,1-14.74-17.31c10.6-65.17-20.31-136.7-20.62-137.41a14.93,14.93,0,0,1,7.62-19.67,14.73,14.73,0,0,1,6-1.28,14.94,14.94,0,0,1,13.65,8.89c1.43,3.23,34.84,80,22.78,154.26A14.85,14.85,0,0,1,352.13,441.92Z"/><path d="M330.41,268.63a12.55,12.55,0,0,1,11.48,7.47c1.41,3.21,34.56,79.36,22.6,152.92a12.54,12.54,0,0,1-12.36,10.53,12.71,12.71,0,0,1-2-.16A12.55,12.55,0,0,1,339.74,425c10.7-65.88-20.3-137.61-20.8-138.75a12.54,12.54,0,0,1,6.41-16.54,12.4,12.4,0,0,1,5.06-1.07m0-4.75a17.3,17.3,0,0,0-15.81,24.28c.31.69,30.92,71.67,20.45,136.07a17.3,17.3,0,0,0,14.29,19.84,17.41,17.41,0,0,0,2.79.23,17.22,17.22,0,0,0,17.05-14.52c12.18-74.92-21.51-152.34-22.95-155.6a17.31,17.31,0,0,0-15.82-10.3Z"/><path class="cls-4" d="M351.53,405.1h3.58A14.85,14.85,0,0,1,370,420v20.69a2.43,2.43,0,0,1-2.43,2.43H339.12a2.43,2.43,0,0,1-2.43-2.43V420a14.85,14.85,0,0,1,14.85-14.85Z" transform="translate(680.02 869.03) rotate(-176.49)"/><path class="cls-1" d="M200.36,513.93A92,92,0,0,0,211,512.11c1-.22,17.62-4,23.57-4.4h.15c6.9-.36,20.12,1.42,28,2.47l1,.14a26.4,26.4,0,0,0,5.24.19A25.89,25.89,0,0,0,290.79,496c2.56,7.62-.25,13.4-4.18,16.48-10.83,8.5-20.38,7.39-32.46,6a123.73,123.73,0,0,0-17.06-1.15,149,149,0,0,0-26.42,3.13c-12.3,2.3-21.19,4-33.42-1.92-7.45-3.58-9.15-11.26-9.43-16C174.87,510.35,187.08,514.75,200.36,513.93Z"/><path class="cls-2" d="M197.21,462.6a43.57,43.57,0,0,1,18.21,2.64l.11,0c.07,0,8.05,2.64,13.61,13.74a1.68,1.68,0,0,0,3-1.51,35.27,35.27,0,0,0-8.47-11.11A35.1,35.1,0,0,1,235,452.62a47,47,0,0,0,12.66,2.4h.21a1.67,1.67,0,0,0,0-3.34,44.4,44.4,0,0,1-12.47-2.45l-.17-.07c-5.75-2.16-9.43-5.46-9.66-9.19-.45-7.29,12.21-14.24,27.63-15.19s28.83,4.41,29.28,11.7c.24,4-3.48,8-9.73,10.93a.91.91,0,0,0-.22.11,43,43,0,0,1-7.45,2.58,1.68,1.68,0,1,0,.82,3.26,47.59,47.59,0,0,0,7.38-2.5,35.11,35.11,0,0,1,15.8,40.29l-.07.22A22.63,22.63,0,0,1,264.21,507l-1-.14c-8.53-1.14-21.42-2.87-28.63-2.5-6.22.31-23.61,4.33-24.34,4.5l-.09,0a95.52,95.52,0,0,1-10,1.71c-13.88.85-26.9-4.66-32.36-13.7a18,18,0,0,1-2.63-8.25C164.34,475.42,178.72,463.73,197.21,462.6Z"/><path d="M161.81,488.85a21.09,21.09,0,0,0,2.76,9.18,27.86,27.86,0,0,0,.29,8.05c.93,5.12,3.58,12,10.94,15.5,13.22,6.36,23,4.52,35.49,2.2a146.19,146.19,0,0,1,25.86-3.08,119.91,119.91,0,0,1,16.61,1.13,86.85,86.85,0,0,0,15.4.91,33.44,33.44,0,0,0,19.52-7.58c5.24-4.11,9.3-12.75,3.82-23.7a38.42,38.42,0,0,0-15.69-42.37c6-3.46,9.34-8,9-12.82-.57-9.41-15-15.93-32.83-14.84s-31.34,9.33-30.77,18.74c.27,4.41,3.68,8.27,9.18,11a38.48,38.48,0,0,0-10.49,13.2,19.76,19.76,0,0,0-4.37-2.24A47,47,0,0,0,197,459.25C176.67,460.5,160.88,473.77,161.81,488.85Zm6,13.66c7.05,7.84,19.26,12.24,32.54,11.42A92,92,0,0,0,211,512.11c1-.22,17.62-4,23.57-4.4h.15c6.9-.36,20.12,1.42,28,2.47l1,.14a26.4,26.4,0,0,0,5.24.19A25.89,25.89,0,0,0,290.79,496c2.56,7.62-.25,13.4-4.18,16.48-10.83,8.5-20.38,7.39-32.46,6a123.73,123.73,0,0,0-17.06-1.15,149,149,0,0,0-26.42,3.13c-12.3,2.3-21.19,4-33.42-1.92C169.8,515,168.1,507.3,167.82,502.51Zm-2.67-13.87c-.81-13.22,13.57-24.91,32.06-26a43.57,43.57,0,0,1,18.21,2.64l.11,0c.07,0,8.05,2.64,13.61,13.74a1.68,1.68,0,0,0,3-1.51,35.27,35.27,0,0,0-8.47-11.11A35.1,35.1,0,0,1,235,452.62a47,47,0,0,0,12.66,2.4h.21a1.67,1.67,0,0,0,0-3.34,44.4,44.4,0,0,1-12.47-2.45l-.17-.07c-5.75-2.16-9.43-5.46-9.66-9.19-.45-7.29,12.21-14.24,27.63-15.19s28.83,4.41,29.28,11.7c.24,4-3.48,8-9.73,10.93a.91.91,0,0,0-.22.11,43,43,0,0,1-7.45,2.58,1.68,1.68,0,1,0,.82,3.26,47.59,47.59,0,0,0,7.38-2.5,35.11,35.11,0,0,1,15.8,40.29l-.07.22A22.63,22.63,0,0,1,264.21,507l-1-.14c-8.53-1.14-21.42-2.87-28.63-2.5-6.22.31-23.61,4.33-24.34,4.5l-.09,0a95.52,95.52,0,0,1-10,1.71c-13.88.85-26.9-4.66-32.36-13.7A18,18,0,0,1,165.15,488.64Z"/><path class="cls-3" d="M255,441.92a14.84,14.84,0,0,1-14.71-12.52c-12.06-74.21,21.35-151,22.78-154.26a14.93,14.93,0,0,1,13.65-8.89,14.73,14.73,0,0,1,6,1.28,14.93,14.93,0,0,1,7.61,19.67c-.3.71-31.19,72.34-20.62,137.41a14.92,14.92,0,0,1-12.33,17.12A15,15,0,0,1,255,441.92Z"/><path d="M276.7,268.63a12.54,12.54,0,0,1,11.46,17.61c-.5,1.14-31.5,72.87-20.79,138.75A12.55,12.55,0,0,1,257,439.39a12.68,12.68,0,0,1-2,.16A12.55,12.55,0,0,1,242.61,429c-12-73.56,21.19-149.71,22.61-152.92a12.54,12.54,0,0,1,11.48-7.47m0-4.75h0a17.33,17.33,0,0,0-15.82,10.3c-1.44,3.26-35.13,80.68-22.95,155.6a17.21,17.21,0,0,0,17,14.52,17.6,17.6,0,0,0,2.79-.23,17.3,17.3,0,0,0,14.29-19.84c-10.47-64.41,20.14-135.38,20.45-136.08a17.3,17.3,0,0,0-15.81-24.27Z"/><path class="cls-4" d="M239.57,405.1H268a2.43,2.43,0,0,1,2.43,2.43v20.69a14.85,14.85,0,0,1-14.85,14.85H252a14.85,14.85,0,0,1-14.85-14.85V407.54a2.43,2.43,0,0,1,2.43-2.43Z" transform="translate(-25.49 16.34) rotate(-3.51)"/><path class="cls-5" d="M181.77,199.72l-2,27.4c-2-.14-20.22-1.73-45-14a184.63,184.63,0,0,1-41-28,225.16,225.16,0,0,1-36.81-42.81l22.91-16c18.39,27.85,40.66,48.55,66.27,61.59C165.77,197.93,180.49,199.59,181.77,199.72Z"/><path class="cls-6" d="M76.33,115.35s10.58,6.25,4.16,19.81C73,150.87,46.33,152.67,46.1,133.6Z"/><path class="cls-6" d="M78.09,115.56c-.73-11.85,14.58-19,17.18-27.51,3-9.75-8.51-23.22-24.57,2.88,0,0-6-15.11-2.76-27.53,3.61-14.07-8.58-19.68-14.49-13.48C48.06,55.58,48.36,74.07,51.84,84A2.26,2.26,0,0,1,50,87l-.55.07A2.26,2.26,0,0,1,47,85.57C45.36,80.91,41,68,40,60.72c-1.51-11.45-22.12-8.62-20.33,6.62,1.42,12,9.88,21.42,13.4,24.86a2.26,2.26,0,0,1,.15,3.07h0a2.26,2.26,0,0,1-3,.41c-3.8-2.67-13-9.27-18.56-14.36C4.5,74.8-12.86,95.69,22.83,110.85c0,0,4.3,25.64,28.29,25C78.55,135.11,78.09,115.56,78.09,115.56Z"/><path class="cls-7" d="M66.72,97.25s-17.32,3.53-10.83,21"/><rect class="cls-8" x="407.48" y="187.2" width="18.13" height="140.18"/><path class="cls-3" d="M425.61,187.2H407.48a39.1,39.1,0,0,1-6.93-7c-9.16-11.69-15.1-30.46-15.1-51.62,0-21.58,6.19-40.67,15.64-52.31A39.85,39.85,0,0,1,407.48,70h18.13a40.22,40.22,0,0,0-6.38,6.29c-9.46,11.64-15.65,30.73-15.65,52.31,0,21.16,5.95,39.93,15.11,51.62A39.05,39.05,0,0,0,425.61,187.2Z"/><rect class="cls-8" x="407.48" y="2.38" width="18.13" height="67.63"/><path class="cls-9" d="M419.24,76.3c-9.47,11.64-15.65,30.73-15.65,52.31,0,21.16,5.94,39.93,15.09,51.61a39.91,39.91,0,0,0,6.93,7V327.39H193.23V183.78a45.2,45.2,0,0,0,3.1-3.56c9.15-11.68,15.09-30.45,15.09-51.61,0-21.58-6.18-40.67-15.64-52.31-.83-1-1.68-2-2.55-2.86V2.37H425.61V70A39.76,39.76,0,0,0,419.24,76.3Z"/><path class="cls-10" d="M401.09,76.3c-9.45,11.64-15.64,30.73-15.64,52.31,0,21.16,5.94,39.93,15.1,51.62a39.1,39.1,0,0,0,6.93,7V327.38H193.23V183.78a45,45,0,0,0,3.1-3.55c9.15-11.69,15.09-30.46,15.09-51.62,0-21.58-6.18-40.67-15.65-52.31-.82-1-1.67-2-2.54-2.86V2.38H407.48V70A39.85,39.85,0,0,0,401.09,76.3Z"/><path class="cls-5" d="M401.09,76.3c-9.45,11.64-15.64,30.73-15.64,52.31,0,21.16,5.94,39.93,15.1,51.62a39.1,39.1,0,0,0,6.93,7V327.38H175.09V183.78a45,45,0,0,0,3.1-3.55c9.16-11.69,15.09-30.46,15.09-51.62,0-21.58-6.17-40.67-15.64-52.31-.83-1-1.67-2-2.55-2.86V2.38H407.48V70A39.85,39.85,0,0,0,401.09,76.3Z"/><path class="cls-11" d="M255,2.36h81.71a0,0,0,0,1,0,0V79.24a36.46,36.46,0,0,1-36.46,36.46h-8.79A36.46,36.46,0,0,1,255,79.24V2.36A0,0,0,0,1,255,2.36Z"/><line class="cls-12" x1="295.11" y1="2.57" x2="295.11" y2="115.7"/><circle class="cls-13" cx="317.7" cy="50.85" r="8.28"/><line class="cls-14" x1="407.47" y1="70.01" x2="425.61" y2="70.01"/><line class="cls-14" x1="407.47" y1="187.21" x2="425.61" y2="187.21"/><ellipse class="cls-15" cx="229.29" cy="206.49" rx="28.11" ry="41.61"/><ellipse class="cls-15" cx="304.33" cy="204.3" rx="28.11" ry="41.61"/><ellipse class="cls-16" cx="305.14" cy="204.3" rx="14.46" ry="21.41"/><ellipse class="cls-16" cx="230.62" cy="204.3" rx="14.46" ry="21.41"/><path class="cls-17" d="M209.3,150.89s14.92-15.58,29.36,0"/><path class="cls-17" d="M290.6,150.89s14.92-15.58,29.36,0"/><circle class="cls-18" cx="225.35" cy="196.16" r="4.34"/><circle class="cls-18" cx="300.72" cy="196.16" r="4.34"/><path class="cls-19" d="M328,255.85a10.38,10.38,0,0,1,9.21,17.64A84.15,84.15,0,0,1,247.46,291a10.38,10.38,0,0,1,7.75-19.25,63.34,63.34,0,0,0,67.62-13.19A10.49,10.49,0,0,1,328,255.85Z"/><path class="cls-20" d="M250.67,278a3.49,3.49,0,0,1,2,.19,70.27,70.27,0,0,0,75-14.63,3.48,3.48,0,1,1,4.83,5A77.2,77.2,0,0,1,250,284.61a3.48,3.48,0,0,1,.63-6.64Z"/><line class="cls-14" x1="407.47" y1="327.39" x2="425.61" y2="327.39"/><path class="cls-21" d="M488.54,341q-14.28,2.82-28.71,4.91c-8.84-44.28-21.45-72.59-31.25-89.33a136,136,0,0,0-12.2-17.74l-.17-29.08,5.75-2.91c9.14,6.86,21.23,17.68,30,32.12s16.6,31.57,23.12,50.8A402.1,402.1,0,0,1,488.54,341Z"/><path class="cls-18" d="M479.33,386.4,458,371.87c-2-15,13.55-22.6,14.23-22.92a1.48,1.48,0,1,0-1.27-2.67c-.13.06-8.49,4.11-13.11,12.09l-.09-.06a9.91,9.91,0,0,1-4-7.21,10.29,10.29,0,0,1,2.89-8c5.31-5.41,12.49-9.42,21.36-11.9a14.16,14.16,0,0,1,16.5,7.41l.47,1a51.64,51.64,0,0,0-11.61,1.23,1.47,1.47,0,0,0-1.07,1,1.5,1.5,0,0,0,0,.76,1.48,1.48,0,0,0,1.79,1.09c.17,0,17.06-4.05,28.23,3.39,5.16,3.42,8.35,8.82,9.49,16.06a77,77,0,0,0,7.52,20.76,8.38,8.38,0,0,1-.3,8.47c-2.51,3.77-7,3.7-13.41-.25-.1-.06-10.3-6.19-10.13-28.4a1.49,1.49,0,0,0-3,0A68.52,68.52,0,0,0,503,372c-4.85.15-19.83-.36-23-12.25a1.49,1.49,0,0,0-1.82-1,1.47,1.47,0,0,0-1,1,1.45,1.45,0,0,0,0,.8c3.81,14.2,21.24,14.6,26.31,14.41A36.14,36.14,0,0,0,509,389.36Z"/><path class="cls-22" d="M497.43,341.1l-1.27-2.59a16.48,16.48,0,0,0-19.47-8.5c-6.65,2-14.48,5.47-20.7,11.65-5.3,5.27-4.78,14.2,1.49,18.26l.62.38"/><path class="cls-22" d="M471.58,347.62s-17.71,8.36-15,25.1l22.18,15.12,33.54,3.35"/><polygon class="cls-23" points="586.95 378.18 414.22 356.64 394.77 504.97 568.29 526.17 586.95 378.18"/><path class="cls-18" d="M514.91,393.35s-7.91-4.41-10.26-20c0,0-21.51,2.26-26-12.78l5.14-18.38c1.54-.36,35-7.88,39.47,20.66a76.25,76.25,0,0,0,7.38,20.32,9.86,9.86,0,0,1-.39,10C528.05,396.46,523.65,398.75,514.91,393.35Z"/><path class="cls-22" d="M483.75,342.19s34.92-8.56,39.52,20.64a76.68,76.68,0,0,0,7.38,20.33,9.84,9.84,0,0,1-.38,10c-2.21,3.33-6.62,5.62-15.36.23,0,0-11.06-6.18-10.9-29.71"/><path class="cls-22" d="M504.66,373.34s-22,2.3-26.13-13.25"/><line class="cls-24" x1="517.65" y1="399.28" x2="504.99" y2="489.9"/><line class="cls-24" x1="487.66" y1="395.63" x2="475" y2="486.25"/><line class="cls-24" x1="501.17" y1="397.51" x2="488.5" y2="488.14"/><line class="cls-24" x1="468.26" y1="392.37" x2="455.59" y2="483"/><path class="cls-25" d="M478.17,460.06l-.06.47a2.62,2.62,0,0,1-2.94,2.22h0v.07a6.22,6.22,0,0,1,2.27,6c-.37,2.66-1.77,4.69-4.22,5.38a6.24,6.24,0,0,1,2.56,6.49c-.72,5.15-4.57,6.2-9.17,5.56L458,485a2.59,2.59,0,0,1-2.21-2.93l.09-.7a2.6,2.6,0,0,1,2.94-2.22l8.47,1.18c1.76.25,3.33-.21,3.6-2.12.38-2.69-1.42-3.82-3.76-4.15l-7.45-1a2.59,2.59,0,0,1-2.22-2.93l.1-.71a2.59,2.59,0,0,1,2.93-2.21l7.46,1c1.4.2,4.24.67,4.62-2,.42-3.05-1.89-3.85-4.35-4.19l-6.87-1a2.61,2.61,0,0,1-2.22-2.94l.1-.7a2.6,2.6,0,0,1,2.94-2.21L476,457.13A2.59,2.59,0,0,1,478.17,460.06Z"/><path class="cls-26" d="M516.71,406l-.5,3.57a7.65,7.65,0,0,1-6,6.42l-28.53,5.79,0,.14,25.86,13.46a7.62,7.62,0,0,1,4,7.82l-.49,3.51a7.63,7.63,0,0,1-8.61,6.5L466,448.16a5.49,5.49,0,0,1-4.68-6.2h0a5.49,5.49,0,0,1,6.2-4.68L500,441.81l0-.14-32.57-16.5a5.48,5.48,0,0,1-2.95-5.66l.06-.48a5.5,5.5,0,0,1,4.46-4.64l35.72-6.49,0-.14-32.44-4.53a5.49,5.49,0,0,1-4.68-6.2h0a5.49,5.49,0,0,1,6.2-4.68l36.4,5.08A7.64,7.64,0,0,1,516.71,406Z"/><line class="cls-27" x1="473.37" y1="389.2" x2="509.7" y2="394.27"/><polygon class="cls-28" points="509.37 394.99 510.77 394.42 509.58 393.5 509.37 394.99"/><line class="cls-27" x1="515.41" y1="418.3" x2="495.64" y2="421.97"/><polygon class="cls-28" points="495.71 421.19 494.57 422.17 495.99 422.67 495.71 421.19"/><line class="cls-27" x1="493.92" y1="425.11" x2="511.96" y2="434.07"/><polygon class="cls-28" points="511.43 434.65 512.93 434.56 512.1 433.3 511.43 434.65"/><line class="cls-27" x1="502.1" y1="456.44" x2="465.78" y2="451.36"/><polygon class="cls-28" points="466.1 450.65 464.71 451.21 465.89 452.14 466.1 450.65"/><line class="cls-29" x1="511.05" y1="403.22" x2="510.41" y2="403.13"/><line class="cls-30" x1="509.15" y1="402.96" x2="471.94" y2="397.75"/><line class="cls-29" x1="471.31" y1="397.67" x2="470.68" y2="397.58"/><line class="cls-29" x1="504.71" y1="448.59" x2="504.07" y2="448.5"/><line class="cls-30" x1="502.81" y1="448.33" x2="465.6" y2="443.13"/><line class="cls-29" x1="464.97" y1="443.04" x2="464.34" y2="442.95"/><line class="cls-29" x1="510.52" y1="410.97" x2="509.89" y2="411.09"/><line class="cls-31" x1="508.63" y1="411.33" x2="471.33" y2="418.32"/><line class="cls-29" x1="470.7" y1="418.44" x2="470.07" y2="418.56"/><line class="cls-29" x1="506.61" y1="439" x2="506.03" y2="438.71"/><line class="cls-31" x1="504.88" y1="438.14" x2="470.93" y2="421.19"/><line class="cls-29" x1="470.35" y1="420.9" x2="469.78" y2="420.61"/><line class="cls-32" x1="478.35" y1="455.96" x2="465.34" y2="454.14"/><polygon class="cls-28" points="465.63 453.5 464.37 454.01 465.44 454.84 465.63 453.5"/><path class="cls-33" d="M479.07,463.89a7.48,7.48,0,0,1-1.32,9.37"/><polygon class="cls-28" points="477.57 472.82 477.23 473.66 478.12 473.53 477.57 472.82"/><path class="cls-33" d="M477.45,475.48a7.48,7.48,0,0,1-1.32,9.37"/><polygon class="cls-28" points="475.95 484.41 475.61 485.25 476.5 485.12 475.95 484.41"/><line class="cls-34" x1="475.47" y1="459.86" x2="475.01" y2="459.8"/><line class="cls-35" x1="474.11" y1="459.67" x2="461.96" y2="457.97"/><line class="cls-34" x1="461.51" y1="457.91" x2="461.06" y2="457.85"/><path class="cls-36" d="M474.34,464.12a3.47,3.47,0,0,1,.63,1.22c0,.11.07.27.1.38a5.74,5.74,0,0,1-.64,4.22,4.71,4.71,0,0,1-2.18,1.69c-.11,0-.27.07-.38.1a3.67,3.67,0,0,1-1.27.09c-3.77-.43-7.53-1-11.28-1.53"/><path class="cls-36" d="M457.69,481.93c3.76.53,7.51,1.1,11.28,1.53a3,3,0,0,0,.84,0,3.35,3.35,0,0,0,.55-.11l.27-.07a4.76,4.76,0,0,0,2.18-1.69,5.63,5.63,0,0,0,.69-3.92c0-.15-.06-.29-.09-.44a1.68,1.68,0,0,0-.07-.24,4.58,4.58,0,0,0-.63-1.22,8.54,8.54,0,0,0-1.59-1.66"/></g></g></svg>