<svg xmlns="http://www.w3.org/2000/svg" viewBox="0 0 392.22 562.51"><defs><style>.cls-1,.cls-24,.cls-38,.cls-44,.cls-5,.cls-7{fill:#fff;}.cls-2{fill:#b261ff;}.cls-3{fill:#660dbc;}.cls-4{fill:#d7840b;}.cls-10,.cls-11,.cls-12,.cls-23,.cls-24,.cls-25,.cls-26,.cls-27,.cls-28,.cls-29,.cls-30,.cls-32,.cls-37,.cls-38,.cls-39,.cls-40,.cls-41,.cls-42,.cls-43,.cls-44,.cls-5,.cls-6,.cls-7,.cls-8,.cls-9{stroke:#000;}.cls-10,.cls-11,.cls-12,.cls-25,.cls-26,.cls-27,.cls-28,.cls-29,.cls-30,.cls-36,.cls-37,.cls-38,.cls-39,.cls-40,.cls-41,.cls-42,.cls-43,.cls-44,.cls-5,.cls-6,.cls-7,.cls-8,.cls-9{stroke-miterlimit:10;}.cls-5{stroke-width:2.35px;}.cls-23,.cls-33,.cls-6{fill:#d88500;}.cls-6{stroke-width:1.88px;}.cls-7,.cls-8{stroke-width:1.83px;}.cls-12,.cls-17,.cls-18,.cls-19,.cls-20,.cls-21,.cls-22,.cls-35,.cls-36,.cls-37,.cls-40,.cls-8{fill:none;}.cls-17,.cls-18,.cls-19,.cls-20,.cls-21,.cls-22,.cls-23,.cls-24,.cls-32,.cls-40,.cls-8{stroke-linecap:round;}.cls-9{fill:#ff7bac;}.cls-10,.cls-37,.cls-9{stroke-width:3.73px;}.cls-10{fill:#ccc;}.cls-11{fill:#666;stroke-width:1.86px;}.cls-12{stroke-width:2.79px;}.cls-13{fill:#747e7f;}.cls-14{fill:#9ba7a7;}.cls-15{fill:#c08d54;}.cls-16{fill:#996e43;}.cls-17,.cls-18,.cls-19,.cls-20,.cls-21,.cls-22{stroke:#4d4d4d;stroke-width:0.7px;}.cls-17,.cls-18,.cls-19,.cls-20,.cls-21,.cls-22,.cls-23,.cls-24,.cls-32{stroke-linejoin:round;}.cls-18{stroke-dasharray:2.31 2.31;}.cls-19{stroke-dasharray:2.27 2.27;}.cls-20{stroke-dasharray:2.18 2.18;}.cls-21{stroke-dasharray:2.22 2.22;}.cls-22{stroke-dasharray:2.26 2.26;}.cls-23{stroke-width:3.21px;}.cls-24{stroke-width:0.79px;}.cls-25{fill:#ffd396;stroke-width:0.38px;}.cls-26{stroke-width:0.34px;}.cls-27{fill:#fbca2c;}.cls-27,.cls-28,.cls-29,.cls-30{stroke-width:0.36px;}.cls-28{fill:#f4b21c;}.cls-29{fill:#cac3b9;}.cls-30{fill:#fc5465;}.cls-31{fill:#fbccac;}.cls-32{stroke-width:0.03px;}.cls-34{fill:#f9b233;}.cls-36{stroke:#bf720c;stroke-width:1.49px;}.cls-38{stroke-width:1.93px;}.cls-39{stroke-width:0.25px;}.cls-40{stroke-width:3.87px;}.cls-41{fill:#abd6bd;stroke-width:0.71px;}.cls-42{fill:#ffd18f;stroke-width:1.4px;}.cls-43,.cls-44{stroke-width:0.07px;}</style></defs><title>lpa</title><g id="Layer_2" data-name="Layer 2"><g id="Portadilla_1_GUIA_1" data-name="Portadilla 1 GUIA 1"><path class="cls-1" d="M186.26,521.61c-4.37,5.15-13.17,8.11-24.13,8.11-11.8,0-21.35-3.16-25.55-8.44a11.32,11.32,0,0,1-1.52-2.54,6.24,6.24,0,0,0-.87,3.09c0,6.92,12.79,12.76,27.94,12.76s27.94-5.84,27.94-12.76a6.72,6.72,0,0,0-1.56-4.11A12.28,12.28,0,0,1,186.26,521.61Z"/><path class="cls-2" d="M162.13,527c10,0,18.24-2.67,22-7.14a8.82,8.82,0,0,0,2.1-7.43c-1.42-8.54-10.36-17.62-24.13-17.62-13.29,0-22.13,6.5-24.88,18.31a7.34,7.34,0,0,0,1.48,6.48C142.36,524.14,151.32,527,162.13,527Z"/><path class="cls-3" d="M181.17,498.8c-1.14-6.58-3.62-12.47-7.07-16.64a27.1,27.1,0,0,1-4.26,1.2,1.25,1.25,0,0,1-1.47-1,1.26,1.26,0,0,1,1-1.47,24.25,24.25,0,0,0,4.3-1.25l0,0a1.29,1.29,0,0,1,.8-.33c3-1.4,4.9-3.3,4.9-5.23,0-3.59-6.52-7.44-16.22-7.44s-16.22,3.85-16.22,7.44c0,1.78,1.5,3.46,3.95,4.77a1.33,1.33,0,0,1,.79.35l.07.08a27.15,27.15,0,0,0,10,2.2,1.25,1.25,0,0,1,0,2.5h-.05a29.23,29.23,0,0,1-10.48-2.23A34.91,34.91,0,0,0,144,497.42c4.71-3.51,10.85-5.38,18.12-5.38A28.76,28.76,0,0,1,181.17,498.8Z"/><path d="M189.13,514.43A12.3,12.3,0,0,0,189,512a21.66,21.66,0,0,0-4.64-9.91c-.79-8.2-3.56-15.74-7.69-21,3.3-1.8,5.24-4.26,5.24-6.95,0-5.58-8.22-9.94-18.72-9.94s-18.72,4.36-18.72,9.94c0,2.43,1.6,4.66,4.3,6.38-4.12,5-6.91,11.95-8,19.87a26.55,26.55,0,0,0-6.22,12.15,11.09,11.09,0,0,0-.28,2.84,9.61,9.61,0,0,0-2.78,6.53c0,8.66,13.45,15.44,30.62,15.44s30.62-6.78,30.62-15.44A10.25,10.25,0,0,0,189.13,514.43Zm-37.95-32.7A29.23,29.23,0,0,0,161.66,484h.05a1.25,1.25,0,0,0,0-2.5,27.15,27.15,0,0,1-10-2.2l-.07-.08a1.33,1.33,0,0,0-.79-.35c-2.45-1.31-3.95-3-3.95-4.77,0-3.59,6.52-7.44,16.22-7.44s16.22,3.85,16.22,7.44c0,1.93-1.87,3.83-4.9,5.23a1.29,1.29,0,0,0-.8.33l0,0a24.25,24.25,0,0,1-4.3,1.25,1.26,1.26,0,0,0-1,1.47,1.25,1.25,0,0,0,1.47,1,27.1,27.1,0,0,0,4.26-1.2c3.45,4.17,5.93,10.06,7.07,16.64a28.76,28.76,0,0,0-19-6.76c-7.27,0-13.41,1.87-18.12,5.38A34.91,34.91,0,0,1,151.18,481.73Zm-13.93,31.36c2.75-11.81,11.59-18.31,24.88-18.31,13.77,0,22.71,9.08,24.13,17.62a8.82,8.82,0,0,1-2.1,7.43c-3.79,4.47-12,7.14-22,7.14-10.81,0-19.77-2.83-23.4-7.4A7.34,7.34,0,0,1,137.25,513.09Zm24.88,21.5c-15.15,0-27.94-5.84-27.94-12.76a6.24,6.24,0,0,1,.87-3.09,11.32,11.32,0,0,0,1.52,2.54c4.2,5.28,13.75,8.44,25.55,8.44,11,0,19.76-3,24.13-8.11a12.28,12.28,0,0,0,2.25-3.89,6.72,6.72,0,0,1,1.56,4.11C190.07,528.75,177.28,534.59,162.13,534.59Z"/><path class="cls-4" d="M163,476.24a7.61,7.61,0,0,1-7.55-6.43c-6.23-38.32,11-78,11.76-79.64a7.65,7.65,0,0,1,14.14.33,7.59,7.59,0,0,1-.14,5.86c-.16.36-16.12,37.37-10.65,71a7.67,7.67,0,0,1-6.33,8.78A7.29,7.29,0,0,1,163,476.24Z"/><path d="M174.24,386.78a6.39,6.39,0,0,1,2.61.56,6.48,6.48,0,0,1,3.31,8.54c-.26.59-16.27,37.64-10.74,71.67a6.48,6.48,0,0,1-5.36,7.43,6.15,6.15,0,0,1-1,.08,6.48,6.48,0,0,1-6.39-5.44c-6.18-38,10.94-77.32,11.68-79a6.48,6.48,0,0,1,5.93-3.86m0-2.35h0a8.84,8.84,0,0,0-8.08,5.26c-.75,1.68-18.14,41.64-11.85,80.31a8.79,8.79,0,0,0,8.71,7.41,8.49,8.49,0,0,0,1.42-.11,8.82,8.82,0,0,0,7.3-10.13c-5.42-33.3,10.41-70,10.57-70.35a8.84,8.84,0,0,0-8.07-12.39Z"/><path class="cls-5" d="M155.21,457.27h14.38a1.41,1.41,0,0,1,1.41,1.41v9.61a8.6,8.6,0,0,1-8.6,8.6h0a8.6,8.6,0,0,1-8.6-8.6v-9.61a1.41,1.41,0,0,1,1.41-1.41Z" transform="translate(-28.3 10.82) rotate(-3.51)"/><path class="cls-1" d="M254.38,521.53c-4.39,5.18-13.23,8.15-24.25,8.15-11.86,0-21.46-3.17-25.67-8.48a10.72,10.72,0,0,1-1.53-2.55,6.19,6.19,0,0,0-.88,3.1c0,7,12.86,12.83,28.08,12.83s28.08-5.88,28.08-12.83a6.81,6.81,0,0,0-1.57-4.13A12.4,12.4,0,0,1,254.38,521.53Z"/><path class="cls-2" d="M230.13,526.92c10.06,0,18.33-2.68,22.14-7.18a8.85,8.85,0,0,0,2.11-7.46c-1.43-8.59-10.41-17.71-24.25-17.71-13.36,0-22.24,6.53-25,18.4a7.35,7.35,0,0,0,1.5,6.51C210.26,524.07,219.27,526.92,230.13,526.92Z"/><path class="cls-3" d="M249.27,498.6c-1.15-6.61-3.64-12.52-7.11-16.72a27.35,27.35,0,0,1-4.28,1.21,1.25,1.25,0,0,1-1.48-1,1.27,1.27,0,0,1,1-1.48,23.89,23.89,0,0,0,4.32-1.26l0,0a1.37,1.37,0,0,1,.82-.33c3-1.41,4.92-3.32,4.92-5.26,0-3.61-6.55-7.47-16.3-7.47s-16.3,3.86-16.3,7.47c0,1.79,1.5,3.48,4,4.8a1.32,1.32,0,0,1,.8.35l.07.08a27.17,27.17,0,0,0,10.06,2.21,1.26,1.26,0,0,1,0,2.51h-.05a29.35,29.35,0,0,1-10.54-2.24c-3.38,3.92-5.91,9.49-7.2,15.77,4.73-3.53,10.91-5.41,18.21-5.41A28.91,28.91,0,0,1,249.27,498.6Z"/><path d="M257.27,514.32a12.5,12.5,0,0,0-.16-2.5,21.74,21.74,0,0,0-4.67-10c-.8-8.23-3.58-15.81-7.73-21.13,3.32-1.81,5.27-4.29,5.27-7,0-5.6-8.26-10-18.81-10s-18.82,4.39-18.82,10c0,2.45,1.61,4.68,4.32,6.42-4.13,5-6.94,12-8,20a26.52,26.52,0,0,0-6.26,12.22,11.12,11.12,0,0,0-.28,2.85,9.66,9.66,0,0,0-2.8,6.56c0,8.7,13.52,15.52,30.78,15.52s30.78-6.82,30.78-15.52A10.28,10.28,0,0,0,257.27,514.32Zm-38.15-32.87a29.35,29.35,0,0,0,10.54,2.24h.05a1.26,1.26,0,0,0,0-2.51A27.17,27.17,0,0,1,219.7,479l-.07-.08a1.32,1.32,0,0,0-.8-.35c-2.46-1.32-4-3-4-4.8,0-3.61,6.55-7.47,16.3-7.47s16.3,3.86,16.3,7.47c0,1.94-1.89,3.85-4.92,5.26a1.37,1.37,0,0,0-.82.33l0,0a23.89,23.89,0,0,1-4.32,1.26,1.27,1.27,0,0,0-1,1.48,1.25,1.25,0,0,0,1.48,1,27.35,27.35,0,0,0,4.28-1.21c3.47,4.2,6,10.11,7.11,16.72a28.91,28.91,0,0,0-19.14-6.79c-7.3,0-13.48,1.88-18.21,5.41C213.21,490.94,215.74,485.37,219.12,481.45Zm-14,31.52c2.77-11.87,11.65-18.4,25-18.4,13.84,0,22.82,9.12,24.25,17.71a8.85,8.85,0,0,1-2.11,7.46c-3.81,4.5-12.08,7.18-22.14,7.18-10.86,0-19.87-2.85-23.51-7.44A7.35,7.35,0,0,1,205.12,513Zm25,21.61c-15.22,0-28.08-5.88-28.08-12.83a6.19,6.19,0,0,1,.88-3.1,10.72,10.72,0,0,0,1.53,2.55c4.21,5.31,13.81,8.48,25.67,8.48,11,0,19.86-3,24.25-8.15a12.4,12.4,0,0,0,2.26-3.91,6.81,6.81,0,0,1,1.57,4.13C258.21,528.7,245.35,534.58,230.13,534.58Z"/><path class="cls-4" d="M229.61,476.24a7.29,7.29,0,0,1-1.23-.1,7.67,7.67,0,0,1-6.33-8.78c5.47-33.62-10.49-70.64-10.65-71a7.64,7.64,0,0,1,3.91-10.09,7.66,7.66,0,0,1,10.09,3.91c.74,1.67,18,41.32,11.76,79.64A7.61,7.61,0,0,1,229.61,476.24Z"/><path d="M218.39,386.78a6.48,6.48,0,0,1,5.93,3.86c.74,1.66,17.86,41,11.68,79a6.48,6.48,0,0,1-6.39,5.44,6.15,6.15,0,0,1-1-.08,6.48,6.48,0,0,1-5.36-7.43c5.53-34-10.48-71.08-10.74-71.67a6.48,6.48,0,0,1,3.31-8.54,6.39,6.39,0,0,1,2.61-.56m0-2.35a8.84,8.84,0,0,0-8.07,12.4c.16.36,16,37,10.57,70.34a8.82,8.82,0,0,0,7.3,10.13,8.49,8.49,0,0,0,1.42.11,8.79,8.79,0,0,0,8.71-7.41c6.29-38.67-11.1-78.63-11.85-80.31a8.84,8.84,0,0,0-8.08-5.26Z"/><path class="cls-5" d="M230.23,457.27h0a8.6,8.6,0,0,1,8.6,8.6v9.61a1.41,1.41,0,0,1-1.41,1.41H223a1.41,1.41,0,0,1-1.41-1.41v-9.61a8.6,8.6,0,0,1,8.6-8.6Z" transform="translate(431.43 947.38) rotate(-176.49)"/><path class="cls-6" d="M234.26,197.84,236,221.41c1.72-.12,17.4-1.49,38.72-12A159.33,159.33,0,0,0,310,185.3a193.89,193.89,0,0,0,31.67-36.83L322,134.71c-15.82,24-35,41.77-57,53C248,196.3,235.36,197.73,234.26,197.84Z"/><path class="cls-7" d="M325.16,123.79s-8.89,5.26-3.49,16.65c6.25,13.2,28.69,14.72,28.89-1.31Z"/><path class="cls-7" d="M323.68,124c.61-10-12.25-16-14.44-23.12-2.5-8.19,7.16-19.51,20.65,2.43,0,0,5-12.7,2.32-23.14-3-11.82,7.21-16.53,12.17-11.32,4.53,4.75,4.29,20.29,1.36,28.64a1.9,1.9,0,0,0,1.54,2.51l.46.06a1.91,1.91,0,0,0,2.06-1.26c1.38-3.91,5.07-14.74,5.88-20.87,1.28-9.63,18.59-7.25,17.09,5.56-1.19,10.1-8.3,18-11.26,20.88a1.91,1.91,0,0,0-.13,2.59h0a1.91,1.91,0,0,0,2.56.34,181.81,181.81,0,0,0,15.6-12.07c6-5.48,20.56,12.07-9.43,24.81,0,0-3.61,21.55-23.77,21C323.3,140.4,323.68,124,323.68,124Z"/><path class="cls-8" d="M333.23,108.59s14.56,3,9.11,17.6"/><path class="cls-9" d="M236.45,294.25a36.68,36.68,0,0,1-7.52,14.45c-12,14-30.61,13.11-33.11,12.95-3.41,0-19.49-.28-31.64-12.8a41.22,41.22,0,0,1-9.12-14.6Z"/><path class="cls-10" d="M237.17,258.94l-.09,32.52c-.16.81-.36,1.75-.63,2.79H155.06c-.47-1.28-.82-2.42-1.09-3.39V258.94Z"/><line class="cls-11" x1="153.97" y1="265.44" x2="237.68" y2="265.44"/><line class="cls-11" x1="153.97" y1="288.09" x2="237.68" y2="288.09"/><line class="cls-12" x1="181.84" y1="258.95" x2="181.84" y2="258.94"/><path class="cls-13" d="M325.49,454a12,12,0,0,0,10.93.42L344,399.3A46.89,46.89,0,0,0,333.41,396Z"/><path class="cls-13" d="M48.28,395a37,37,0,0,1-15-3.07C22.93,397.58,17,405.76,17,414.43V547.56a15,15,0,0,0,14.09-.65V418c0-10.59,10.68-19.63,25.56-23Z"/><path class="cls-13" d="M344.13,395h-8.29c14.88,3.37,25.55,12.41,25.55,23V546.55a15.06,15.06,0,0,0,14.1.32V414.43c0-8.69-5.94-16.87-16.3-22.54A36.81,36.81,0,0,1,344.13,395Z"/><path class="cls-13" d="M52.35,397.75l7.43,57a12,12,0,0,0,12.17-.6l-7.68-58.9A51.28,51.28,0,0,0,52.35,397.75Z"/><path class="cls-14" d="M25.51,382.8c3,6.34,12.35,10.76,22.77,10.76H344.13c10.42,0,19.79-4.42,22.78-10.76l7.08-15H18.42Z"/><path class="cls-15" d="M355.51,278c-1.64-3.31-6.41-5.53-11.88-5.53h-295c-5.47,0-10.24,2.22-11.88,5.53L2.81,346.28a5.42,5.42,0,0,0-.51,1.6v1.62a6.6,6.6,0,0,0,2.35,3.83,15.51,15.51,0,0,0,10,3.23H377.53a15.51,15.51,0,0,0,10-3.23,6.7,6.7,0,0,0,2.3-3.6v-2.1h0a6,6,0,0,0-.47-1.35Z"/><path class="cls-16" d="M377.53,358H14.69c-5.33,0-9.82-1.76-12.39-4.32v5.29c0,4.09,5.24,7.42,11.68,7.42H378.19c6.44,0,11.68-3.33,11.68-7.42V353.7C387.3,356.24,382.82,358,377.53,358Z"/><path d="M357.64,277.53c-1.93-3.88-7.6-6.52-14-6.52h-295c-6.42,0-12.09,2.64-14,6.52L.68,345.85a7,7,0,0,0-.59,1.78h0v.19a6.05,6.05,0,0,0,0,1.7v9.42c0,4.87,6.25,8.84,13.92,8.84h2.11l7.27,15.42A18.17,18.17,0,0,0,31.47,391c-10.61,5.93-16.69,14.41-16.69,23.4v132c-.7-.26-1.64,0-1.64.6v10.17a3.78,3.78,0,0,0,2.14,3.15c6.43,3.75,13,1.9,16.67.22,1.92-.87,3-2.3,2.85-3.79l-.95-9.91a.7.7,0,0,0-.51-.54V418c0-8.17,6.75-15.35,16.88-19.43l7.24,55.59a.63.63,0,0,0-.38.48l-.5,10.07a4.27,4.27,0,0,0,2,3.71c6.91,4.81,13.67,2,17.14-.36a4,4,0,0,0,1.86-4.62l-3.1-9.59a.67.67,0,0,0-.37-.37l-7.61-58.39Q68,395,69.58,395H322.93a57.09,57.09,0,0,1,8.28.61l-7.8,57.2c-.47-.05-1,.14-1.13.5l-3.1,9.59A4,4,0,0,0,321,467.5c3.48,2.34,10.23,5.17,17.14.37a4.28,4.28,0,0,0,2-3.72l-.51-10.07c0-.34-.42-.58-.87-.62l7.33-53.13c8,4.22,13,10.56,13,17.65V545.67c-.43.07-.8.29-.83.63l-.95,9.91c-.15,1.49.93,2.92,2.85,3.79,3.7,1.69,10.24,3.53,16.67-.22a3.8,3.8,0,0,0,2.14-3.15V546.46c0-.48-.69-.77-1.32-.69V414.43c0-9-6.09-17.49-16.73-23.42,3.73-2,6.6-4.7,8.06-7.81l7.27-15.42h1.87c7.67,0,13.92-4,13.92-8.84v-9.12a6.17,6.17,0,0,0-.57-4ZM31.11,418V546.91a15,15,0,0,1-14.09.65V414.43c0-8.67,5.91-16.85,16.24-22.52a37,37,0,0,0,15,3.07h8.39C41.79,398.35,31.11,407.39,31.11,418ZM72,454.13a12,12,0,0,1-12.17.6l-7.43-57a51.28,51.28,0,0,1,11.92-2.52Zm264.47.31a12,12,0,0,1-10.93-.42L333.41,396A46.89,46.89,0,0,1,344,399.3Zm39.07-40V546.87a15.06,15.06,0,0,1-14.1-.32V418c0-10.59-10.67-19.63-25.55-23h8.29a36.81,36.81,0,0,0,15.06-3.09C369.55,397.56,375.49,405.74,375.49,414.43Zm-8.58-31.63c-3,6.34-12.36,10.76-22.78,10.76H48.28c-10.42,0-19.79-4.42-22.77-10.76l-7.09-15H374Zm23-23.86c0,4.09-5.24,7.42-11.68,7.42H14c-6.44,0-11.68-3.33-11.68-7.42v-5.29C4.87,356.21,9.36,358,14.69,358H377.53c5.29,0,9.77-1.73,12.34-4.27Zm0-11.31v2.1a6.7,6.7,0,0,1-2.3,3.6,15.51,15.51,0,0,1-10,3.23H14.69a15.51,15.51,0,0,1-10-3.23A6.6,6.6,0,0,1,2.3,349.5v-1.62a5.42,5.42,0,0,1,.51-1.6L36.71,278c1.64-3.31,6.41-5.53,11.88-5.53h295c5.47,0,10.24,2.22,11.88,5.53l33.9,68.32a6,6,0,0,1,.47,1.35Z"/><polygon class="cls-1" points="166.3 291.81 253.68 291.81 266.59 331.08 150.03 331.08 166.3 291.81"/><line class="cls-17" x1="170.35" y1="315.05" x2="171.17" y2="314.23"/><line class="cls-18" x1="172.8" y1="312.6" x2="181.77" y2="303.63"/><polyline class="cls-17" points="182.59 302.82 183.41 302 184.23 302.82"/><line class="cls-19" x1="185.83" y1="304.42" x2="194.64" y2="313.23"/><polyline class="cls-17" points="195.44 314.03 196.26 314.85 197.08 314.03"/><line class="cls-20" x1="198.63" y1="312.49" x2="207.11" y2="304"/><polyline class="cls-17" points="207.88 303.23 208.7 302.41 209.52 303.23"/><line class="cls-21" x1="211.1" y1="304.8" x2="219.74" y2="313.45"/><polyline class="cls-17" points="220.52 314.23 221.34 315.05 222.16 314.23"/><line class="cls-22" x1="223.76" y1="312.63" x2="229.36" y2="307.03"/><line class="cls-17" x1="230.16" y1="306.23" x2="230.98" y2="305.41"/><path class="cls-23" d="M151.73,199.91c-17.85-.83-34.4,7-43.42,20.94a43.64,43.64,0,0,0-6.9,24.33,51.84,51.84,0,0,0,1.91,13.64c5.13,18.59,21.24,33.16,42,38a10.09,10.09,0,1,0,4.6-19.64c-13.59-3.18-24-12.28-27.17-23.75-1.29-4.65-2.68-13.65,2.49-21.64,5.78-8.94,17.53-13.36,29.93-11.26a10.09,10.09,0,0,0,3.37-19.9A57.19,57.19,0,0,0,151.73,199.91Z"/><ellipse class="cls-24" cx="141.95" cy="286.47" rx="14.16" ry="10.1" transform="translate(-176.1 253.86) rotate(-57.79)"/><ellipse class="cls-1" cx="151.77" cy="292.85" rx="14.16" ry="17.96" transform="translate(-176.9 265.15) rotate(-57.79)"/><path class="cls-24" d="M161,307.5c-2.72,4.38-5.94,6.68-10.25,6.85a13.05,13.05,0,0,1-8.95-3.21c-4.68-4-6.76-10.52-6-19.72"/><path class="cls-24" d="M142.77,278A24.88,24.88,0,0,1,157.12,271a27,27,0,0,1,10.78.69c4.69,1.29,7.74,3.48,9.61,6.32a5.52,5.52,0,0,1-.58,6.88,2.61,2.61,0,0,1-.24.22,4.8,4.8,0,0,1-4.56.95c-7.75-2.33-13.13-2.12-16.33.43"/><path class="cls-24" d="M170.75,298a10.08,10.08,0,0,1-1,4,10.21,10.21,0,0,1-8.51,5.56,18.47,18.47,0,0,1-10.37-2.17"/><path class="cls-25" d="M180.57,301.45c-3.85-1.3-9.23-2.75-9.23-2.75l2.41-4.74,4.73-2.73s2.4,4.5,4.41,7.78Z"/><path class="cls-26" d="M184,300.9c1,1.67-.58,1.51-1.25,1.29l-2.2-.74,2.32-2.44C183.35,299.77,183.74,300.42,184,300.9Z"/><path class="cls-27" d="M121.73,255.6a2,2,0,0,0-2.62.16h0a1.56,1.56,0,0,0,.19,2.36l51.46,40.21a2,2,0,0,0,2.62-.16h0a1.57,1.57,0,0,0-.19-2.36Z"/><path class="cls-28" d="M124.15,253.09a2,2,0,0,0-2.62.16h0a1.55,1.55,0,0,0,.2,2.35l51.46,40.21a2,2,0,0,0,2.62-.15h0a1.56,1.56,0,0,0-.2-2.36Z"/><path class="cls-27" d="M126.58,250.58a2,2,0,0,0-2.62.15h0a1.56,1.56,0,0,0,.19,2.36l51.46,40.21a2,2,0,0,0,2.62-.16h0a1.55,1.55,0,0,0-.19-2.35Z"/><polygon class="cls-29" points="127.48 251.29 120.21 258.83 117.71 256.87 124.98 249.33 127.48 251.29"/><path class="cls-30" d="M125,249.33l-7.27,7.54-2.61-2h0a.94.94,0,0,1-.12-.09c-2-1.53-1.92-4.46.08-6.55s5.23-2.52,7.19-1l.12.1h0Z"/><path class="cls-24" d="M155.16,284.17l1.86.48a28.64,28.64,0,0,0,9.75.88A16.05,16.05,0,0,1,172,286a7.29,7.29,0,0,1,3,1.4l.06,0a4.91,4.91,0,0,1,.12,7.4,13.67,13.67,0,0,1-5.28,3.09c-.33.11-.64.26-1,.36-4.11,1.2-9.94.66-15.31-1.45"/><polygon class="cls-31" points="237.89 63.63 223.65 77.98 209.72 63.63 195.82 77.98 181.84 63.63 167.9 77.98 153.75 63.63 195.75 3.26 237.89 63.63"/><path class="cls-32" d="M186,19.35s9.62,9.07,20.41,0l-10-15.72Z"/><path class="cls-33" d="M237.89,63.63V88.72s-.58,113.48-.73,170.22H209.72V63.63L223.65,78Z"/><polygon class="cls-33" points="181.79 63.58 181.79 258.89 153.92 258.89 153.7 88.67 153.7 63.58 167.86 77.93 181.79 63.58"/><polygon class="cls-34" points="209.72 63.63 209.72 258.94 181.84 258.94 181.84 63.63 195.82 77.98 209.72 63.63"/><line class="cls-35" x1="209.72" y1="63.63" x2="209.72" y2="63.53"/><line class="cls-12" x1="181.84" y1="63.63" x2="181.84" y2="63.62"/><line class="cls-36" x1="209.71" y1="63.53" x2="209.71" y2="258.94"/><line class="cls-36" x1="181.84" y1="63.73" x2="181.84" y2="258.94"/><path class="cls-37" d="M237.9,63.63,195.75,3.26l-42,60.37V88.72L154,258.94h83.2c.15-56.74.73-170.22.73-170.22Z"/><polyline class="cls-37" points="153.75 63.63 167.9 77.98 181.84 63.63 195.82 77.98 209.71 63.63 223.65 77.98 237.9 63.63"/><ellipse class="cls-38" cx="217.98" cy="145.18" rx="17.93" ry="26.55"/><ellipse class="cls-39" cx="218.59" cy="145.18" rx="9.22" ry="13.66"/><path class="cls-40" d="M209.22,111.11s9.52-9.94,18.73,0"/><circle class="cls-1" cx="215.33" cy="140.67" r="3.54"/><ellipse class="cls-38" cx="172.94" cy="145.18" rx="17.93" ry="26.55"/><ellipse class="cls-39" cx="173.54" cy="145.18" rx="9.22" ry="13.66"/><path class="cls-40" d="M164.17,111.11s9.53-9.94,18.74,0"/><circle class="cls-1" cx="170.28" cy="140.67" r="3.54"/><path class="cls-41" d="M194.85,189.69a3.54,3.54,0,0,1,0,.46c0-.15,0-.31,0-.46Z"/><path class="cls-42" d="M226.83,183a9.17,9.17,0,0,0-12.67-2.33,35.84,35.84,0,0,1-12.84,4.49,37.26,37.26,0,0,1-4.57.48c-.6,0-1.22,0-1.84,0s-1.29,0-1.92,0a39,39,0,0,1-4.55-.47,35.86,35.86,0,0,1-12.79-4.49,9.15,9.15,0,0,0-10.41,15c1.21.85,12.3,8.26,29.67,8.26s28.45-7.41,29.66-8.26A9.16,9.16,0,0,0,226.83,183Zm-4.57,9.42c-.44.3-10.95,7.53-27.35,7.53s-26.92-7.23-27.36-7.53a5.13,5.13,0,0,1,5.86-8.41,37.7,37.7,0,0,0,12.64,4.8,44.15,44.15,0,0,0,8.8.89h.06a45,45,0,0,0,8.79-.87A37.88,37.88,0,0,0,216.41,184a5.13,5.13,0,0,1,5.85,8.42Z"/><path class="cls-43" d="M222.26,192.41c-.44.3-10.95,7.53-27.35,7.53s-26.92-7.23-27.36-7.53a5.13,5.13,0,0,1,5.86-8.41,37.7,37.7,0,0,0,12.64,4.8,6.72,6.72,0,0,0-.13,1.35c0,3.08,2,5.57,4.48,5.57s4.47-2.49,4.47-5.57c0,3.08,2,5.57,4.48,5.57s4.48-2.49,4.48-5.57a7.14,7.14,0,0,0-.13-1.33A37.88,37.88,0,0,0,216.41,184a5.13,5.13,0,0,1,5.85,8.42Z"/><path class="cls-43" d="M194.89,189.69c0,.15,0,.31,0,.46a3.54,3.54,0,0,0,0-.46Z"/><path class="cls-44" d="M194.87,190.15c0,3.08-2,5.57-4.47,5.57s-4.48-2.49-4.48-5.57a6.72,6.72,0,0,1,.13-1.35,44.15,44.15,0,0,0,8.8.89A3.54,3.54,0,0,1,194.87,190.15Z"/><path class="cls-44" d="M203.83,190.15c0,3.08-2,5.57-4.48,5.57s-4.48-2.49-4.48-5.57c0-.15,0-.31,0-.46h0a45,45,0,0,0,8.79-.87A7.14,7.14,0,0,1,203.83,190.15Z"/></g></g></svg>