<svg xmlns="http://www.w3.org/2000/svg" viewBox="0 0 524.89 519.23"><defs><style>.cls-1{fill:#e5e5e5;}.cls-2{fill:#bf4400;}.cls-19,.cls-3{fill:#003b49;}.cls-13,.cls-18,.cls-20,.cls-4{fill:#fff;}.cls-10,.cls-11,.cls-12,.cls-13,.cls-14,.cls-15,.cls-16,.cls-17,.cls-19,.cls-20,.cls-21,.cls-22,.cls-23,.cls-24,.cls-25,.cls-26,.cls-4,.cls-5,.cls-7,.cls-8,.cls-9{stroke:#000;}.cls-10,.cls-11,.cls-12,.cls-13,.cls-14,.cls-15,.cls-16,.cls-17,.cls-19,.cls-20,.cls-21,.cls-22,.cls-23,.cls-25,.cls-26,.cls-4,.cls-5,.cls-7,.cls-8,.cls-9{stroke-miterlimit:10;}.cls-15,.cls-19,.cls-4,.cls-5,.cls-7{stroke-width:4.69px;}.cls-5{fill:#3291b2;}.cls-6,.cls-8{fill:#00607a;}.cls-12,.cls-15,.cls-21,.cls-22,.cls-23,.cls-24,.cls-25,.cls-26,.cls-7{fill:none;}.cls-12,.cls-8{stroke-width:2.74px;}.cls-10,.cls-11,.cls-9{fill:#b3b3b3;}.cls-9{stroke-width:2.03px;}.cls-10{stroke-width:1.2px;}.cls-11{stroke-width:1.37px;}.cls-13{stroke-width:2.34px;}.cls-14{stroke-width:0.27px;}.cls-15,.cls-21,.cls-22,.cls-24,.cls-25{stroke-linecap:round;}.cls-16{fill:#75c6d3;stroke-width:1.76px;}.cls-17{fill:#ea5e58;stroke-width:0.08px;}.cls-20,.cls-21{stroke-width:2.4px;}.cls-22,.cls-23{stroke-width:2.06px;}.cls-24{stroke-linejoin:round;}.cls-24,.cls-25,.cls-26{stroke-width:2.75px;}</style></defs><title>lpa</title><g id="Layer_2" data-name="Layer 2"><g id="pizarra"><path class="cls-1" d="M401.39,507.38a95.22,95.22,0,0,1-10.51-1.8c-1-.22-17.39-4-23.26-4.34h-.16c-6.81-.36-19.85,1.39-27.65,2.44l-1,.13a26.49,26.49,0,0,1-5.17.19,25.59,25.59,0,0,1-21.52-14.28c-2.53,7.52.25,13.23,4.13,16.28,10.69,8.39,20.12,7.29,32.05,5.9a120.49,120.49,0,0,1,16.83-1.14,147.66,147.66,0,0,1,26.09,3.09c12.14,2.27,20.92,3.91,33-1.9,7.36-3.53,9-11.11,9.32-15.84C426.55,503.84,414.5,508.18,401.39,507.38Z"/><path class="cls-2" d="M404.49,456.69a43.13,43.13,0,0,0-18,2.62l-.11,0c-.07,0-8,2.61-13.44,13.57a1.66,1.66,0,0,1-3-1.49,35,35,0,0,1,8.36-11,34.59,34.59,0,0,0-11.21-13.6,46.68,46.68,0,0,1-12.5,2.37h-.2a1.66,1.66,0,0,1,0-3.31,43.85,43.85,0,0,0,12.31-2.41l.16-.07c5.68-2.13,9.31-5.39,9.54-9.07.44-7.2-12.05-14.07-27.28-15s-28.46,4.35-28.9,11.55c-.24,3.94,3.43,7.9,9.6,10.79l.22.11a42.78,42.78,0,0,0,7.36,2.55,1.66,1.66,0,0,1-.81,3.21,46.45,46.45,0,0,1-7.29-2.46,34.68,34.68,0,0,0-15.6,39.78l.07.21a22.34,22.34,0,0,0,24.52,15.42l1-.13c8.42-1.13,21.15-2.84,28.27-2.47,6.14.3,23.3,4.27,24,4.44l.09,0a91.77,91.77,0,0,0,9.84,1.69c13.71.85,26.56-4.59,32-13.52a17.87,17.87,0,0,0,2.59-8.14C437,469.35,422.75,457.81,404.49,456.69Z"/><path d="M404.7,453.39a46.39,46.39,0,0,0-19.32,2.81,18.74,18.74,0,0,0-4.31,2.21,37.85,37.85,0,0,0-10.36-13c5.43-2.66,8.8-6.47,9.06-10.82.57-9.3-12.77-17.42-30.37-18.5s-31.84,5.35-32.41,14.65c-.3,4.73,3,9.24,8.93,12.65a37.93,37.93,0,0,0-15.5,41.83C305,496,309,504.53,314.2,508.59a33,33,0,0,0,19.26,7.48,86.5,86.5,0,0,0,15.21-.9,118.42,118.42,0,0,1,16.39-1.11,145,145,0,0,1,25.54,3c12.28,2.3,22,4.11,35-2.16,7.26-3.5,9.88-10.25,10.8-15.3a27.89,27.89,0,0,0,.28-7.95,20.87,20.87,0,0,0,2.73-9.07C440.36,467.73,424.77,454.62,404.7,453.39Zm19.5,58.55c-12.07,5.81-20.85,4.17-33,1.9a147.66,147.66,0,0,0-26.09-3.09,120.49,120.49,0,0,0-16.83,1.14c-11.93,1.39-21.36,2.49-32.05-5.9-3.88-3.05-6.66-8.76-4.13-16.28A25.59,25.59,0,0,0,333.63,504a26.49,26.49,0,0,0,5.17-.19l1-.13c7.8-1.05,20.84-2.8,27.65-2.44h.16c5.87.36,22.3,4.12,23.26,4.34a95.22,95.22,0,0,0,10.51,1.8c13.11.8,25.16-3.54,32.13-11.28C433.23,500.83,431.56,508.41,424.2,511.94Zm9.36-21.39c-5.4,8.93-18.25,14.37-32,13.52a91.77,91.77,0,0,1-9.84-1.69l-.09,0c-.73-.17-17.89-4.14-24-4.44-7.12-.37-19.85,1.34-28.27,2.47l-1,.13a22.34,22.34,0,0,1-24.52-15.42l-.07-.21a34.68,34.68,0,0,1,15.6-39.78,46.45,46.45,0,0,0,7.29,2.46,1.66,1.66,0,0,0,.81-3.21,42.78,42.78,0,0,1-7.36-2.55l-.22-.11c-6.17-2.89-9.84-6.85-9.6-10.79.44-7.2,13.68-12.48,28.9-11.55s27.72,7.8,27.28,15c-.23,3.68-3.86,6.94-9.54,9.07l-.16.07a43.85,43.85,0,0,1-12.31,2.41,1.66,1.66,0,0,0,0,3.31h.2a46.68,46.68,0,0,0,12.5-2.37,34.59,34.59,0,0,1,11.21,13.6,35,35,0,0,0-8.36,11,1.66,1.66,0,0,0,3,1.49c5.49-11,13.37-13.54,13.44-13.57l.11,0a43.13,43.13,0,0,1,18-2.62c18.26,1.12,32.46,12.66,31.66,25.72A17.87,17.87,0,0,1,433.56,490.55Z"/><path class="cls-3" d="M347.47,436.29a14.73,14.73,0,0,1-14.55-17.09c10.44-64.26-20.05-135-20.36-135.67a14.73,14.73,0,0,1,7.52-19.41,14.54,14.54,0,0,1,5.94-1.26,14.75,14.75,0,0,1,13.48,8.77c1.41,3.19,34.4,79,22.49,152.29A14.66,14.66,0,0,1,347.47,436.29Z"/><path d="M326,265.2a12.38,12.38,0,0,1,11.33,7.38c1.4,3.16,34.13,78.35,22.32,151a12.38,12.38,0,0,1-24.44-4c10.57-65-20-135.85-20.53-137A12.39,12.39,0,0,1,326,265.2m0-4.69a17.07,17.07,0,0,0-15.6,24c.3.69,30.52,70.75,20.19,134.34a17.05,17.05,0,0,0,14.11,19.59,18.1,18.1,0,0,0,2.75.22A17,17,0,0,0,364.3,424.3c12-74-21.24-150.4-22.66-153.61A17.09,17.09,0,0,0,326,260.51Z"/><path class="cls-4" d="M348.65,399.94h0a16.43,16.43,0,0,1,16.43,16.43v18.37a2.69,2.69,0,0,1-2.69,2.69H334.91a2.69,2.69,0,0,1-2.69-2.69V416.37a16.43,16.43,0,0,1,16.43-16.43Z" transform="translate(671 857.93) rotate(-176.49)"/><path class="cls-1" d="M197.64,507.38a95.54,95.54,0,0,0,10.5-1.8c1-.22,17.4-4,23.26-4.34h.16c6.81-.36,19.85,1.39,27.65,2.44l1,.13a26.43,26.43,0,0,0,5.17.19,25.58,25.58,0,0,0,21.51-14.28c2.53,7.52-.25,13.23-4.13,16.28-10.69,8.39-20.11,7.29-32,5.9a120.49,120.49,0,0,0-16.83-1.14,147.53,147.53,0,0,0-26.08,3.09c-12.15,2.27-20.93,3.91-33-1.9-7.36-3.53-9-11.11-9.31-15.84C172.47,503.84,184.52,508.18,197.64,507.38Z"/><path class="cls-2" d="M194.53,456.69a43.13,43.13,0,0,1,18,2.62l.11,0c.07,0,7.95,2.61,13.44,13.57a1.66,1.66,0,0,0,3-1.49,34.85,34.85,0,0,0-8.36-11,34.67,34.67,0,0,1,11.21-13.6,46.68,46.68,0,0,0,12.5,2.37h.21a1.66,1.66,0,0,0,0-3.31,43.92,43.92,0,0,1-12.31-2.41l-.16-.07c-5.67-2.13-9.31-5.39-9.54-9.07-.44-7.2,12-14.07,27.28-15s28.46,4.35,28.9,11.55c.24,3.94-3.43,7.9-9.6,10.79l-.22.11a42.78,42.78,0,0,1-7.36,2.55,1.66,1.66,0,0,0,.81,3.21,46.45,46.45,0,0,0,7.29-2.46,34.63,34.63,0,0,1,15.6,39.78l-.07.21a22.33,22.33,0,0,1-24.51,15.42l-1-.13c-8.42-1.13-21.14-2.84-28.27-2.47-6.14.3-23.3,4.27-24,4.44l-.08,0a92.27,92.27,0,0,1-9.85,1.69c-13.71.85-26.56-4.59-31.95-13.52a17.63,17.63,0,0,1-2.59-8.14C162.07,469.35,176.27,457.81,194.53,456.69Z"/><path d="M159.57,482.61a21,21,0,0,0,2.73,9.07,27.89,27.89,0,0,0,.28,7.95c.92,5.05,3.54,11.8,10.8,15.3,13.06,6.27,22.76,4.46,35,2.16a145,145,0,0,1,25.54-3,118.42,118.42,0,0,1,16.39,1.11,86.56,86.56,0,0,0,15.21.9,33.09,33.09,0,0,0,19.27-7.48c5.17-4.06,9.18-12.59,3.77-23.4a37.94,37.94,0,0,0-15.49-41.83c5.89-3.41,9.22-7.92,8.93-12.65-.57-9.3-14.81-15.73-32.41-14.65s-30.95,9.2-30.38,18.5c.27,4.35,3.63,8.16,9.06,10.82a38,38,0,0,0-10.36,13,18.74,18.74,0,0,0-4.31-2.21,46.37,46.37,0,0,0-19.32-2.81C174.25,454.62,158.66,467.73,159.57,482.61Zm5.94,13.49c7,7.74,19,12.08,32.13,11.28a95.54,95.54,0,0,0,10.5-1.8c1-.22,17.4-4,23.26-4.34h.16c6.81-.36,19.85,1.39,27.65,2.44l1,.13a26.43,26.43,0,0,0,5.17.19,25.58,25.58,0,0,0,21.51-14.28c2.53,7.52-.25,13.23-4.13,16.28-10.69,8.39-20.11,7.29-32,5.9a120.49,120.49,0,0,0-16.83-1.14,147.53,147.53,0,0,0-26.08,3.09c-12.15,2.27-20.93,3.91-33-1.9C167.46,508.41,165.79,500.83,165.51,496.1Zm-2.63-13.69c-.81-13.06,13.39-24.6,31.65-25.72a43.13,43.13,0,0,1,18,2.62l.11,0c.07,0,7.95,2.61,13.44,13.57a1.66,1.66,0,0,0,3-1.49,34.85,34.85,0,0,0-8.36-11,34.67,34.67,0,0,1,11.21-13.6,46.68,46.68,0,0,0,12.5,2.37h.21a1.66,1.66,0,0,0,0-3.31,43.92,43.92,0,0,1-12.31-2.41l-.16-.07c-5.67-2.13-9.31-5.39-9.54-9.07-.44-7.2,12-14.07,27.28-15s28.46,4.35,28.9,11.55c.24,3.94-3.43,7.9-9.6,10.79l-.22.11a42.78,42.78,0,0,1-7.36,2.55,1.66,1.66,0,0,0,.81,3.21,46.45,46.45,0,0,0,7.29-2.46,34.63,34.63,0,0,1,15.6,39.78l-.07.21a22.33,22.33,0,0,1-24.51,15.42l-1-.13c-8.42-1.13-21.14-2.84-28.27-2.47-6.14.3-23.3,4.27-24,4.44l-.08,0a92.27,92.27,0,0,1-9.85,1.69c-13.71.85-26.56-4.59-31.95-13.52A17.63,17.63,0,0,1,162.88,482.41Z"/><path class="cls-3" d="M251.55,436.29A14.65,14.65,0,0,1,237,423.92c-11.91-73.28,21.07-149.1,22.48-152.29A14.75,14.75,0,0,1,273,262.86a14.54,14.54,0,0,1,5.94,1.26,14.74,14.74,0,0,1,7.52,19.42c-.31.7-30.8,71.4-20.36,135.66a14.78,14.78,0,0,1-14.55,17.09Z"/><path d="M273,265.2a12.39,12.39,0,0,1,11.32,17.39c-.5,1.13-31.1,71.94-20.53,137a12.38,12.38,0,0,1-24.44,4c-11.81-72.62,20.92-147.81,22.32-151A12.38,12.38,0,0,1,273,265.2m0-4.69h0a17.11,17.11,0,0,0-15.62,10.17C256,273.9,222.7,350.34,234.72,424.3a17,17,0,0,0,16.83,14.33,18.34,18.34,0,0,0,2.76-.22,17.07,17.07,0,0,0,14.11-19.59c-10.34-63.59,19.88-133.65,20.19-134.35a17.08,17.08,0,0,0-15.61-24Z"/><path class="cls-4" d="M236.64,399.94h27.48a2.69,2.69,0,0,1,2.69,2.69V421a16.43,16.43,0,0,1-16.43,16.43h0A16.43,16.43,0,0,1,233.94,421V402.63A2.69,2.69,0,0,1,236.64,399.94Z" transform="translate(-25.17 16.12) rotate(-3.51)"/><path class="cls-5" d="M179.28,197.17l-2,27.05c-2-.14-20-1.71-44.43-13.83a182.67,182.67,0,0,1-40.48-27.61A222.81,222.81,0,0,1,56,140.51l22.62-15.78c18.16,27.5,40.14,47.93,65.43,60.8C163.48,195.41,178,197,179.28,197.17Z"/><rect class="cls-6" x="402.11" y="184.82" width="17.9" height="138.39"/><path class="cls-3" d="M420,184.82h-17.9a39.51,39.51,0,0,1-6.84-6.89c-9-11.54-14.9-30.07-14.9-51,0-21.31,6.1-40.15,15.44-51.65a38.74,38.74,0,0,1,6.3-6.2H420a39.1,39.1,0,0,0-6.29,6.2c-9.35,11.5-15.45,30.34-15.45,51.65,0,20.89,5.86,39.42,14.91,51A39.46,39.46,0,0,0,420,184.82Z"/><rect class="cls-6" x="402.11" y="2.35" width="17.9" height="66.77"/><path class="cls-7" d="M413.72,75.33c-9.35,11.48-15.45,30.34-15.45,51.64,0,20.89,5.86,39.42,14.9,50.95a39.58,39.58,0,0,0,6.84,6.9V323.21H190.6V181.43a42.2,42.2,0,0,0,3.05-3.51c9-11.53,14.91-30.06,14.91-50.95,0-21.3-6.1-40.16-15.45-51.64-.82-1-1.65-1.94-2.51-2.83V2.34H420V69.12A38.76,38.76,0,0,0,413.72,75.33Z"/><path class="cls-8" d="M395.81,75.32c-9.34,11.5-15.44,30.34-15.44,51.65,0,20.89,5.85,39.42,14.9,51a39.51,39.51,0,0,0,6.84,6.89V323.21H190.6V181.43a45.89,45.89,0,0,0,3.06-3.5c9-11.54,14.9-30.07,14.9-51,0-21.31-6.11-40.15-15.45-51.65-.81-1-1.66-1.93-2.51-2.82V2.35H402.11V69.12A38.74,38.74,0,0,0,395.81,75.32Z"/><path class="cls-5" d="M395.81,75.32c-9.34,11.5-15.44,30.34-15.44,51.65,0,20.89,5.85,39.42,14.9,51a39.51,39.51,0,0,0,6.84,6.89V323.21H172.69V181.43a43.71,43.71,0,0,0,3.05-3.5c9-11.54,14.91-30.07,14.91-51,0-21.31-6.1-40.15-15.44-51.65q-1.23-1.48-2.52-2.82V2.35H402.11V69.12A38.74,38.74,0,0,0,395.81,75.32Z"/><path class="cls-9" d="M251.59,2.33h80.67a0,0,0,0,1,0,0V73.89a40.33,40.33,0,0,1-40.33,40.33h0a40.33,40.33,0,0,1-40.33-40.33V2.33A0,0,0,0,1,251.59,2.33Z"/><line class="cls-10" x1="291.17" y1="2.54" x2="291.17" y2="114.22"/><circle class="cls-11" cx="313.48" cy="50.2" r="8.18"/><line class="cls-12" x1="402.1" y1="69.12" x2="420.01" y2="69.12"/><line class="cls-12" x1="402.1" y1="184.82" x2="420.01" y2="184.82"/><ellipse class="cls-13" cx="226.2" cy="203.86" rx="27.75" ry="41.08"/><ellipse class="cls-13" cx="300.28" cy="201.69" rx="27.75" ry="41.08"/><ellipse class="cls-14" cx="286.81" cy="201.69" rx="14.27" ry="21.13"/><ellipse class="cls-14" cx="213.23" cy="201.69" rx="14.27" ry="21.13"/><path class="cls-15" d="M206.46,149s14.73-15.38,29,0"/><path class="cls-15" d="M286.72,149s14.74-15.38,29,0"/><path class="cls-16" d="M306.7,262.78a12.91,12.91,0,0,0-10-4.51H238a13,13,0,0,0-10,4.51,11.27,11.27,0,0,0-2.49,9.22c1.51,8.52,6.75,16.24,14.75,21.72A46.72,46.72,0,0,0,260,301.23a50.56,50.56,0,0,0,7.4.54,48.21,48.21,0,0,0,27.09-8,36.07,36.07,0,0,0,11.86-13.19A30.07,30.07,0,0,0,309.2,272,11.24,11.24,0,0,0,306.7,262.78Zm-5.92,7.72a22.06,22.06,0,0,1-1.52,4.94c-4.56,10.34-17.12,17.77-31.9,17.77a43.69,43.69,0,0,1-6.52-.49c-14-2.15-24.9-11.07-26.89-22.22-.34-1.94,1.56-3.67,4.06-3.67h58.71C299.22,266.83,301.12,268.56,300.78,270.5Z"/><path class="cls-14" d="M300.78,270.5a22.06,22.06,0,0,1-1.52,4.94,27.21,27.21,0,0,0-38.42,17.28c-14-2.15-24.9-11.07-26.89-22.22-.34-1.94,1.56-3.67,4.06-3.67h58.71C299.22,266.83,301.12,268.56,300.78,270.5Z"/><path class="cls-17" d="M299.26,275.44c-4.56,10.34-17.12,17.77-31.9,17.77a43.69,43.69,0,0,1-6.52-.49,27.21,27.21,0,0,1,38.42-17.28Z"/><circle class="cls-18" cx="208.03" cy="193.65" r="4.28"/><circle class="cls-18" cx="282.44" cy="193.65" r="4.28"/><line class="cls-12" x1="402.1" y1="323.21" x2="420.01" y2="323.21"/><path class="cls-19" d="M482.14,336.64q-14.11,2.78-28.35,4.85c-8.73-43.71-21.17-71.67-30.84-88.19a135.38,135.38,0,0,0-12.05-17.52l-.17-28.71,5.68-2.87c9,6.77,20.95,17.46,29.63,31.71s16.38,31.17,22.82,50.15A396.56,396.56,0,0,1,482.14,336.64Z"/><ellipse class="cls-20" cx="468.14" cy="337.86" rx="20.89" ry="13.31" transform="translate(-107.22 290.26) rotate(-31.09)"/><path class="cls-20" d="M487,332.71c10.7,1.23,15.39,4,23.52-2.42,9.35-7.35,20,5.67,7.41,15.32-9.9,7.58-17.82,6.62-17.82,6.62s9.9,10.78,15.33,20.4c10.42,18.43,6.21,24.53-.42,25.4-7.63,1-17.52-26.83-22.48-25.92s6.44,20.28,8.66,27.26c3.82,12-9.32,15.71-13.86,8.81s-7.42-29.94-10.56-27-.3,20.87-6.33,24-16.37-.11-13.38-12.57,6.8-16.14,1.76-22.95S449.68,328.43,487,332.71Z"/><path class="cls-21" d="M494.71,352.49s-14,12.28-26.72,1"/><path class="cls-18" d="M42.66,102.06a8,8,0,0,1-5.35,3.72c-.77.12-1.53.21-2.28.28a1.37,1.37,0,0,0-1.68.07l-.08.08c-7.7.51-14-1-18.63-4.52A20.74,20.74,0,0,1,6.91,89.21C6.37,79.8,14.76,77.1,17.36,76.49a24.93,24.93,0,0,0,1.29,2.26l.15.18c.57.56,12.61,12.22,23.15,13.51C43.7,96.43,44,99.67,42.66,102.06Z"/><path class="cls-18" d="M80.64,114.26a7.64,7.64,0,0,0-4.07-2.76,30.38,30.38,0,0,1-6.09,9.26,1,1,0,0,1-1.46-.05,1,1,0,0,1,0-1.46c.65-.61,15.8-15.25,3.29-38.44-2.84-5.25-2.91-12.24-.22-19.68a116.23,116.23,0,0,1,6.43-14.28A8.86,8.86,0,0,0,77.46,38c-1.29-1.66-3.77-3.4-8.25-2.31-8.87,2.16-17.85,11.21-16.45,30.15l.18,2.4L51.08,66.7C50.93,66.56,35.4,54,22.71,59.89a12.29,12.29,0,0,0-4.91,7c-.73,3.25.12,6.81,2.52,10.59C21.53,78.69,35.76,92,45.53,90.35c3-.51,5.18-2.33,6.78-5.57a8.71,8.71,0,0,0-.72-6.57c-2.29-4.61-8.27-8.44-17.29-11a1,1,0,0,1,.58-2c9.76,2.83,16,6.94,18.6,12.2a10.68,10.68,0,0,1,.74,8.2l0,.07c-1.89,3.86-4.68,6.13-8.31,6.75a12.49,12.49,0,0,1-1.64.15c1.65,4.2,1.73,7.72.23,10.5a10.18,10.18,0,0,1-6.86,4.79l-1.13.14c1.18,1.86,2.73,5,2.33,8.42a9.3,9.3,0,0,1-4.07,6.5l-.07,0a14.89,14.89,0,0,1-7.6,1.78c-3.74,0-8.75-1.06-14.74-4.8a1.37,1.37,0,1,1,1.46-2.33c11.64,7.28,18.75,3.41,19.37,3a6.51,6.51,0,0,0,2.91-4.56c.42-3.44-2-6.93-2.72-7.8-1,.07-2,.11-2.91.11-6.9,0-12.61-1.7-17.07-5.06a22.29,22.29,0,0,1-4.55-4.64,10.71,10.71,0,0,0-5.44,5.49c-1.23,3.11-.65,6.93,1.7,11.37,1.11,2.07,17.14,18.84,33.19,20.94a20.87,20.87,0,0,0,18.84-6.82l2,1.88a23.52,23.52,0,0,1-14.91,7.77,8.07,8.07,0,0,0,1.33,2.84c4.36,5.8,15.95,4.45,25.85-3C81.61,131.47,84.71,119.67,80.64,114.26Zm-25.31,3.47a1,1,0,0,1-.63.22,1,1,0,0,1-.82-.4c-11.13-14.34-2.38-25.8-2.28-25.91a1,1,0,0,1,1.62,1.28c-.33.41-7.82,10.34,2.29,23.36A1,1,0,0,1,55.33,117.73Z"/><path class="cls-22" d="M69.77,120s16.56-15.48,3.5-39.69c-3.08-5.7-2.37-12.74-.16-18.84a116.21,116.21,0,0,1,6.37-14.15C82,42.47,78.93,32.24,69,34.66,60.19,36.8,50.25,46,51.74,65.89c0,0-16.07-13.19-29.53-6.91,0,0-10.77,6.65-2.69,19.21,0,0,25.13,24.59,33.74,7,0,0,4.85-12.21-18.67-19"/><path class="cls-23" d="M17.94,75.32s-12.78,2-12.06,14c0,0,2.88,21.68,31.58,17.49,1.54-.23,11-3,5.2-15.33"/><path class="cls-24" d="M9,97.11s-12.91,4.41-5.14,19.08c1.56,2.94,33.61,36.49,54.25,14.41"/><path class="cls-25" d="M34.24,107.18s7.53,8.88-.31,14.6c0,0-7.95,5-20.87-3"/><path class="cls-26" d="M76.15,110a9.27,9.27,0,0,1,5.59,3.46c4.82,6.41,1,18.93-9.54,26.83s-23,9.13-27.77,2.71a9.57,9.57,0,0,1-1.85-4.92"/><path class="cls-22" d="M52.41,92.28s-8.48,10.77,2.29,24.63"/></g></g></svg>