<svg xmlns="http://www.w3.org/2000/svg" viewBox="0 0 430.12 545.04"><defs><style>.cls-1,.cls-20{fill:#c08d54;}.cls-1,.cls-11,.cls-12,.cls-13,.cls-14,.cls-15,.cls-16,.cls-17,.cls-23,.cls-24,.cls-25,.cls-26,.cls-27,.cls-28,.cls-29,.cls-30,.cls-31,.cls-32,.cls-33,.cls-34,.cls-6,.cls-7,.cls-8,.cls-9{stroke:#000;}.cls-1,.cls-11,.cls-12,.cls-13,.cls-14,.cls-15,.cls-16,.cls-17,.cls-24,.cls-25,.cls-26,.cls-27,.cls-28,.cls-29,.cls-30,.cls-31,.cls-32,.cls-33,.cls-34,.cls-6,.cls-7,.cls-8,.cls-9{stroke-miterlimit:10;}.cls-1{stroke-width:2.47px;}.cls-2,.cls-23,.cls-30,.cls-6,.cls-8{fill:#fff;}.cls-3{fill:#ef6825;}.cls-4{fill:#bf4400;}.cls-5,.cls-7{fill:#003b49;}.cls-6{stroke-width:2.52px;}.cls-11,.cls-13,.cls-7{stroke-width:3.64px;}.cls-8,.cls-9{stroke-width:1.43px;}.cls-11,.cls-17,.cls-22,.cls-32,.cls-9{fill:none;}.cls-22,.cls-23,.cls-32,.cls-9{stroke-linecap:round;}.cls-10,.cls-12{fill:#00607a;}.cls-12,.cls-17{stroke-width:2.13px;}.cls-13{fill:#3291b2;}.cls-14,.cls-15,.cls-16{fill:#b3b3b3;}.cls-14{stroke-width:1.57px;}.cls-15{stroke-width:0.93px;}.cls-16{stroke-width:1.06px;}.cls-18{fill:#747e7f;}.cls-19{fill:#9ba7a7;}.cls-21{fill:#996e43;}.cls-22{stroke:#4d4d4d;stroke-width:0.74px;stroke-dasharray:2.48;}.cls-22,.cls-23{stroke-linejoin:round;}.cls-23{stroke-width:0.84px;}.cls-24{fill:#ffd396;stroke-width:0.37px;}.cls-25{stroke-width:0.33px;}.cls-26{fill:#fbca2c;}.cls-26,.cls-27,.cls-28,.cls-29{stroke-width:0.35px;}.cls-27{fill:#f4b21c;}.cls-28{fill:#cac3b9;}.cls-29{fill:#fc5465;}.cls-30{stroke-width:1.82px;}.cls-31{stroke-width:0.3px;}.cls-32{stroke-width:4.78px;}.cls-33{fill:#75c6d3;stroke-width:1.36px;}.cls-34{stroke-width:0.15px;}</style></defs><title>lpb</title><g id="Layer_2" data-name="Layer 2"><g id="pizarra"><rect class="cls-1" x="84.12" y="152.92" width="247.09" height="80.24" rx="9.14"/><path class="cls-2" d="M199.32,487c-4.67,5.51-14.08,8.68-25.82,8.68-12.62,0-22.84-3.38-27.33-9a11.56,11.56,0,0,1-1.63-2.71,6.57,6.57,0,0,0-.94,3.3c0,7.41,13.69,13.66,29.9,13.66s29.91-6.25,29.91-13.66a7.26,7.26,0,0,0-1.68-4.4A13.05,13.05,0,0,1,199.32,487Z"/><path class="cls-3" d="M173.5,492.78c10.71,0,19.52-2.86,23.58-7.64a9.44,9.44,0,0,0,2.25-7.95c-1.52-9.14-11.09-18.86-25.83-18.86-14.22,0-23.68,7-26.62,19.59a7.83,7.83,0,0,0,1.59,6.94C152.35,489.74,161.94,492.78,173.5,492.78Z"/><path class="cls-4" d="M193.88,462.63c-1.21-7-3.88-13.34-7.57-17.81a28.91,28.91,0,0,1-4.56,1.29,1.34,1.34,0,0,1-.51-2.63,24.56,24.56,0,0,0,4.59-1.35l0,0a1.45,1.45,0,0,1,.86-.35c3.24-1.49,5.24-3.53,5.24-5.6,0-3.84-7-8-17.35-8s-17.36,4.12-17.36,8c0,1.9,1.61,3.7,4.23,5.11a1.46,1.46,0,0,1,.85.38l.07.08a28.71,28.71,0,0,0,10.71,2.35,1.34,1.34,0,0,1-.05,2.68H173a31.73,31.73,0,0,1-11.22-2.38c-3.6,4.16-6.3,10.1-7.67,16.78,5-3.75,11.62-5.76,19.39-5.76A30.78,30.78,0,0,1,193.88,462.63Z"/><path d="M202.4,479.36a13.36,13.36,0,0,0-.17-2.66,23.18,23.18,0,0,0-5-10.6c-.85-8.77-3.81-16.84-8.23-22.51,3.54-1.93,5.61-4.56,5.61-7.44,0-6-8.8-10.63-20-10.63s-20,4.67-20,10.63c0,2.61,1.72,5,4.6,6.83-4.4,5.33-7.39,12.79-8.5,21.26a28.45,28.45,0,0,0-6.66,13,11.28,11.28,0,0,0-.29,3,10.28,10.28,0,0,0-3,7c0,9.27,14.4,16.53,32.77,16.53s32.78-7.26,32.78-16.53C206.28,484.47,204.94,481.75,202.4,479.36Zm-40.62-35A31.73,31.73,0,0,0,173,446.75h.06a1.34,1.34,0,0,0,.05-2.68,28.71,28.71,0,0,1-10.71-2.35l-.07-.08a1.46,1.46,0,0,0-.85-.38c-2.62-1.41-4.23-3.21-4.23-5.11,0-3.84,7-8,17.36-8s17.35,4.12,17.35,8c0,2.07-2,4.11-5.24,5.6a1.45,1.45,0,0,0-.86.35l0,0a24.56,24.56,0,0,1-4.59,1.35,1.34,1.34,0,0,0,.51,2.63,28.91,28.91,0,0,0,4.56-1.29c3.69,4.47,6.36,10.77,7.57,17.81a30.78,30.78,0,0,0-20.38-7.24c-7.77,0-14.35,2-19.39,5.76C155.48,454.47,158.18,448.53,161.78,444.37Zm-14.9,33.55c2.94-12.63,12.4-19.59,26.62-19.59,14.74,0,24.31,9.72,25.83,18.86a9.44,9.44,0,0,1-2.25,7.95c-4.06,4.78-12.87,7.64-23.58,7.64-11.56,0-21.15-3-25-7.92A7.83,7.83,0,0,1,146.88,477.92Zm26.62,23c-16.21,0-29.9-6.25-29.9-13.66a6.57,6.57,0,0,1,.94-3.3,11.56,11.56,0,0,0,1.63,2.71c4.49,5.66,14.71,9,27.33,9,11.74,0,21.15-3.17,25.82-8.68a13.05,13.05,0,0,0,2.41-4.17,7.26,7.26,0,0,1,1.68,4.4C203.41,494.68,189.71,500.93,173.5,500.93Z"/><path class="cls-5" d="M174.45,438.72a8.39,8.39,0,0,1-8.31-7.07c-6.68-41.1,11.82-83.58,12.61-85.37a8.43,8.43,0,0,1,7.71-5,8.34,8.34,0,0,1,3.4.72,8.43,8.43,0,0,1,4.3,11.11c-.17.39-17.23,39.9-11.39,75.85a8.41,8.41,0,0,1-7,9.67A8.81,8.81,0,0,1,174.45,438.72Z"/><path d="M186.46,342.75a6.82,6.82,0,0,1,2.8.6,6.92,6.92,0,0,1,3.53,9.14c-.27.63-17.41,40.28-11.49,76.69a6.93,6.93,0,0,1-5.73,8,7,7,0,0,1-1.12.09,6.93,6.93,0,0,1-6.83-5.82c-6.61-40.66,11.71-82.75,12.49-84.53a7,7,0,0,1,6.35-4.13m0-3h0a9.93,9.93,0,0,0-9.08,5.91c-.79,1.8-19.46,44.69-12.71,86.21a9.87,9.87,0,0,0,9.78,8.32,9.59,9.59,0,0,0,1.6-.13,9.91,9.91,0,0,0,8.2-11.38c-5.77-35.5,11.11-74.62,11.28-75a9.92,9.92,0,0,0-5.07-13.07,9.71,9.71,0,0,0-4-.85Z"/><path class="cls-6" d="M166,418.19H181.6a1.39,1.39,0,0,1,1.39,1.39v11.1a8.5,8.5,0,0,1-8.5,8.5h-1.39a8.5,8.5,0,0,1-8.5-8.5v-11.1A1.39,1.39,0,0,1,166,418.19Z" transform="translate(-25.92 11.45) rotate(-3.51)"/><path class="cls-2" d="M272.22,487c-4.7,5.55-14.15,8.73-26,8.73-12.69,0-23-3.4-27.47-9.08a12.07,12.07,0,0,1-1.64-2.73,6.61,6.61,0,0,0-.94,3.32c0,7.44,13.76,13.73,30.05,13.73s30.06-6.29,30.06-13.73a7.27,7.27,0,0,0-1.68-4.42A13.16,13.16,0,0,1,272.22,487Z"/><path class="cls-3" d="M246.27,492.73c10.77,0,19.62-2.88,23.7-7.69a9.49,9.49,0,0,0,2.26-8c-1.53-9.18-11.15-18.95-26-18.95-14.29,0-23.8,7-26.76,19.69a7.89,7.89,0,0,0,1.6,7C225,489.67,234.65,492.73,246.27,492.73Z"/><path class="cls-4" d="M266.75,462.42c-1.22-7.07-3.89-13.4-7.6-17.89a29.49,29.49,0,0,1-4.58,1.29,1.35,1.35,0,1,1-.53-2.64,25.78,25.78,0,0,0,4.63-1.36l0,0a1.45,1.45,0,0,1,.87-.35c3.25-1.5,5.27-3.55,5.27-5.63,0-3.86-7-8-17.45-8s-17.44,4.14-17.44,8c0,1.91,1.61,3.72,4.25,5.14a1.42,1.42,0,0,1,.85.37l.07.09a29,29,0,0,0,10.77,2.36,1.35,1.35,0,0,1,0,2.69h-.06a31.53,31.53,0,0,1-11.27-2.39c-3.63,4.19-6.34,10.15-7.71,16.87,5.06-3.78,11.67-5.79,19.48-5.79A30.92,30.92,0,0,1,266.75,462.42Z"/><path d="M275.31,479.24a12.7,12.7,0,0,0-.17-2.67,23.22,23.22,0,0,0-5-10.66c-.85-8.82-3.83-16.93-8.27-22.62,3.55-1.94,5.64-4.59,5.64-7.48,0-6-8.85-10.69-20.14-10.69s-20.13,4.7-20.13,10.69c0,2.62,1.72,5,4.62,6.87-4.42,5.35-7.43,12.84-8.54,21.36a28.5,28.5,0,0,0-6.69,13.08,11,11,0,0,0-.3,3.05,10.3,10.3,0,0,0-3,7c0,9.31,14.46,16.61,32.93,16.61s32.94-7.3,32.94-16.61C279.21,484.37,277.87,481.64,275.31,479.24ZM234.5,444.07a31.53,31.53,0,0,0,11.27,2.39h.06a1.35,1.35,0,0,0,0-2.69,29,29,0,0,1-10.77-2.36l-.07-.09a1.42,1.42,0,0,0-.85-.37c-2.64-1.42-4.25-3.23-4.25-5.14,0-3.86,7-8,17.44-8s17.45,4.14,17.45,8c0,2.08-2,4.13-5.27,5.63a1.45,1.45,0,0,0-.87.35l0,0a25.78,25.78,0,0,1-4.63,1.36,1.35,1.35,0,1,0,.53,2.64,29.49,29.49,0,0,0,4.58-1.29c3.71,4.49,6.38,10.82,7.6,17.89a30.92,30.92,0,0,0-20.48-7.27c-7.81,0-14.42,2-19.48,5.79C228.16,454.22,230.87,448.26,234.5,444.07Zm-15,33.72c3-12.7,12.47-19.69,26.76-19.69,14.81,0,24.43,9.77,26,18.95a9.49,9.49,0,0,1-2.26,8c-4.08,4.81-12.93,7.69-23.7,7.69-11.62,0-21.26-3.06-25.16-8A7.89,7.89,0,0,1,219.51,477.79Zm26.76,23.13c-16.29,0-30.05-6.29-30.05-13.73a6.61,6.61,0,0,1,.94-3.32,12.07,12.07,0,0,0,1.64,2.73c4.51,5.68,14.78,9.08,27.47,9.08,11.8,0,21.25-3.18,26-8.73a13.16,13.16,0,0,0,2.43-4.18,7.27,7.27,0,0,1,1.68,4.42C276.33,494.63,262.56,500.92,246.27,500.92Z"/><path class="cls-5" d="M245.72,438.72a8.91,8.91,0,0,1-1.36-.11,8.43,8.43,0,0,1-7-9.67c5.84-35.95-11.22-75.46-11.39-75.85a8.43,8.43,0,0,1,15.42-6.81c.79,1.79,19.28,44.27,12.6,85.37A8.39,8.39,0,0,1,245.72,438.72Z"/><path d="M233.72,342.75a6.92,6.92,0,0,1,6.34,4.13c.78,1.78,19.11,43.87,12.5,84.53a7,7,0,0,1-6.84,5.82,7.14,7.14,0,0,1-1.12-.09,6.94,6.94,0,0,1-5.73-8c5.92-36.41-11.21-76.06-11.49-76.69a6.93,6.93,0,0,1,3.54-9.14,6.79,6.79,0,0,1,2.8-.6m0-3a9.72,9.72,0,0,0-4,.85,9.93,9.93,0,0,0-5.06,13.08c.17.38,17,39.51,11.28,75a9.91,9.91,0,0,0,8.19,11.38,9.59,9.59,0,0,0,1.6.13,9.86,9.86,0,0,0,9.78-8.32c6.75-41.52-11.91-84.41-12.71-86.21a9.93,9.93,0,0,0-9.07-5.91Z"/><path class="cls-6" d="M245.69,418.19h1.39a8.5,8.5,0,0,1,8.5,8.5v11.1a1.39,1.39,0,0,1-1.39,1.39H238.58a1.39,1.39,0,0,1-1.39-1.39v-11.1a8.5,8.5,0,0,1,8.5-8.5Z" transform="translate(466.05 871.65) rotate(-176.49)"/><path class="cls-7" d="M309.11,168.35l1.36,18.39c1.35-.09,13.58-1.16,30.22-9.4a124.39,124.39,0,0,0,27.53-18.78,151.66,151.66,0,0,0,24.72-28.75l-15.39-10.73c-12.34,18.7-27.29,32.6-44.49,41.35C319.86,167.15,310,168.26,309.11,168.35Z"/><path class="cls-8" d="M380.06,110.55s-6.94,4.11-2.72,13c4.88,10.3,22.39,11.48,22.55-1Z"/><path class="cls-8" d="M378.91,110.69c.48-7.77-9.57-12.46-11.27-18-1.95-6.4,5.58-15.23,16.12,1.89,0,0,3.9-9.91,1.81-18.06-2.37-9.22,5.62-12.9,9.5-8.83,3.53,3.71,3.34,15.83,1.05,22.35a1.49,1.49,0,0,0,1.21,2l.36.05a1.49,1.49,0,0,0,1.6-1c1.08-3,4-11.5,4.6-16.29,1-7.51,14.5-5.66,13.33,4.34-.93,7.88-6.48,14.05-8.79,16.3a1.49,1.49,0,0,0-.1,2h0a1.49,1.49,0,0,0,2,.26,139.2,139.2,0,0,0,12.17-9.41c4.67-4.28,16.05,9.42-7.35,19.36,0,0-2.82,16.82-18.55,16.4C378.61,123.52,378.91,110.69,378.91,110.69Z"/><path class="cls-9" d="M386.36,98.68s11.36,2.32,7.11,13.75"/><rect class="cls-10" x="302.39" y="143.48" width="13.9" height="107.44"/><path class="cls-5" d="M316.29,143.48h-13.9a30.51,30.51,0,0,1-5.31-5.34c-7-9-11.56-23.35-11.56-39.56,0-16.55,4.73-31.18,12-40.1a31.27,31.27,0,0,1,4.89-4.82h13.9a30.8,30.8,0,0,0-4.88,4.82c-7.26,8.92-12,23.55-12,40.1,0,16.21,4.56,30.6,11.58,39.56A30.47,30.47,0,0,0,316.29,143.48Z"/><rect class="cls-10" x="302.39" y="1.82" width="13.9" height="51.84"/><path class="cls-11" d="M311.41,58.48c-7.26,8.92-12,23.55-12,40.1,0,16.21,4.55,30.59,11.56,39.55a31,31,0,0,0,5.31,5.36V250.93H138.19V140.86a33.65,33.65,0,0,0,2.37-2.73c7-9,11.57-23.34,11.57-39.55,0-16.55-4.74-31.18-12-40.1q-1-1.15-1.95-2.19V1.82h178.1V53.66A30,30,0,0,0,311.41,58.48Z"/><path class="cls-12" d="M297.5,58.48c-7.25,8.92-12,23.55-12,40.1,0,16.21,4.54,30.6,11.56,39.56a30.51,30.51,0,0,0,5.31,5.34V250.92H138.19V140.86a33.23,33.23,0,0,0,2.37-2.72c7-9,11.57-23.35,11.57-39.56,0-16.55-4.74-31.18-12-40.1-.62-.77-1.28-1.5-1.94-2.19V1.82h164.2V53.66A31.27,31.27,0,0,0,297.5,58.48Z"/><path class="cls-13" d="M297.5,58.48c-7.25,8.92-12,23.55-12,40.1,0,16.21,4.54,30.6,11.56,39.56a30.51,30.51,0,0,0,5.31,5.34V250.92H124.28V140.86a35.35,35.35,0,0,0,2.38-2.72c7-9,11.56-23.35,11.56-39.56,0-16.55-4.73-31.18-12-40.1-.64-.77-1.28-1.5-2-2.19V1.82H302.39V53.66A31.27,31.27,0,0,0,297.5,58.48Z"/><path class="cls-14" d="M185.54,1.81h62.63a0,0,0,0,1,0,0V59.73a28.94,28.94,0,0,1-28.94,28.94h-4.74a28.94,28.94,0,0,1-28.94-28.94V1.81A0,0,0,0,1,185.54,1.81Z"/><line class="cls-15" x1="216.27" y1="1.97" x2="216.27" y2="88.68"/><circle class="cls-16" cx="233.59" cy="38.98" r="6.35"/><line class="cls-17" x1="302.39" y1="53.66" x2="316.29" y2="53.66"/><line class="cls-17" x1="302.39" y1="143.49" x2="316.29" y2="143.49"/><path class="cls-18" d="M348.32,428.94a12.83,12.83,0,0,0,11.7.45l8.14-59a50.26,50.26,0,0,0-11.37-3.56Z"/><path class="cls-18" d="M51.67,365.75a39.46,39.46,0,0,1-16.07-3.28c-11.06,6.07-17.39,14.82-17.39,24.1V529a16.06,16.06,0,0,0,15.08-.7v-138c0-11.33,11.43-21,27.35-24.61Z"/><path class="cls-18" d="M368.27,365.75H359.4c15.92,3.61,27.35,13.28,27.35,24.61V528a16.08,16.08,0,0,0,15.08.34V386.57c0-9.3-6.35-18.05-17.44-24.12A39.51,39.51,0,0,1,368.27,365.75Z"/><path class="cls-18" d="M56,368.72l7.95,61a12.89,12.89,0,0,0,13-.64l-8.22-63A54.66,54.66,0,0,0,56,368.72Z"/><path class="cls-19" d="M27.3,352.72c3.19,6.78,13.22,11.51,24.37,11.51h316.6c11.16,0,21.18-4.73,24.38-11.51l7.58-16.08H19.72Z"/><path class="cls-20" d="M380.45,240.52c-1.76-3.54-6.86-5.91-12.71-5.91H52c-5.84,0-11,2.37-12.7,5.91L3,313.64a5.88,5.88,0,0,0-.55,1.71v1.74A7,7,0,0,0,5,321.18c2.53,2.19,6.45,3.45,10.74,3.45H404c4.29,0,8.2-1.26,10.74-3.45a7.13,7.13,0,0,0,2.46-3.85v-2.25h0a5.77,5.77,0,0,0-.51-1.44Z"/><path class="cls-21" d="M404,326.15H15.72c-5.7,0-10.51-1.88-13.26-4.62v5.66c0,4.37,5.61,7.93,12.5,7.93H404.72c6.9,0,12.5-3.56,12.5-7.93v-5.61C414.47,324.29,409.68,326.15,404,326.15Z"/><path d="M382.73,240.07c-2.06-4.16-8.13-7-15-7H52c-6.86,0-12.92,2.82-15,7L.73,313.18a7.18,7.18,0,0,0-.63,1.9h0v.21a6.17,6.17,0,0,0,0,1.82v10.08c0,5.21,6.68,9.45,14.89,9.45h2.26L25,353.15c1.57,3.33,4.66,6.21,8.68,8.38-11.36,6.34-17.86,15.42-17.86,25V527.79c-.75-.28-1.76.05-1.76.64v10.89a4.05,4.05,0,0,0,2.29,3.37c6.88,4,13.88,2,17.84.24,2.05-.93,3.21-2.46,3.06-4.06l-1-10.6a.75.75,0,0,0-.55-.58V390.36c0-8.73,7.22-16.41,18.06-20.78l7.75,59.48a.65.65,0,0,0-.4.52l-.54,10.77a4.56,4.56,0,0,0,2.13,4c7.4,5.14,14.63,2.12,18.35-.39A4.28,4.28,0,0,0,83,439l-3.32-10.26a.68.68,0,0,0-.39-.39l-8.14-62.49c1.09-.06,2.19-.1,3.3-.1H345.58a59.51,59.51,0,0,1,8.87.66l-8.35,61.21c-.51-.06-1.09.15-1.21.53l-3.32,10.26a4.28,4.28,0,0,0,2,4.95c3.72,2.51,10.95,5.53,18.35.39a4.56,4.56,0,0,0,2.13-4L363.49,429c0-.36-.46-.62-.93-.66l7.85-56.86c8.51,4.51,13.95,11.3,13.95,18.88V527c-.47.07-.86.31-.9.67l-1,10.6c-.16,1.6,1,3.13,3.05,4.06,4,1.8,11,3.78,17.85-.24a4,4,0,0,0,2.28-3.37V527.86c0-.51-.73-.82-1.41-.73V386.57c0-9.64-6.52-18.72-17.91-25.07,4-2.16,7.06-5,8.63-8.35l7.78-16.51h2c8.21,0,14.9-4.24,14.9-9.45v-9.76a6.51,6.51,0,0,0-.62-4.25ZM33.29,390.36v138a16.06,16.06,0,0,1-15.08.7V386.57c0-9.28,6.33-18,17.39-24.1a39.46,39.46,0,0,0,16.07,3.28h9C44.72,369.36,33.29,379,33.29,390.36ZM77,429.06a12.89,12.89,0,0,1-13,.64l-7.95-61A54.66,54.66,0,0,1,68.78,366Zm283,.33a12.83,12.83,0,0,1-11.7-.45l8.47-62.13a50.26,50.26,0,0,1,11.37,3.56Zm41.81-42.82V528.3a16.08,16.08,0,0,1-15.08-.34V390.36c0-11.33-11.43-21-27.35-24.61h8.87a39.51,39.51,0,0,0,16.12-3.3C395.48,368.52,401.83,377.27,401.83,386.57Zm-9.18-33.85c-3.2,6.78-13.22,11.51-24.38,11.51H51.67c-11.15,0-21.18-4.73-24.37-11.51l-7.58-16.08H400.23Zm24.57-25.53c0,4.37-5.6,7.93-12.5,7.93H15c-6.89,0-12.5-3.56-12.5-7.93v-5.66c2.75,2.74,7.56,4.62,13.26,4.62H404c5.66,0,10.45-1.86,13.2-4.57Zm0-12.11v2.25a7.13,7.13,0,0,1-2.46,3.85c-2.54,2.19-6.45,3.45-10.74,3.45H15.72c-4.29,0-8.21-1.26-10.74-3.45a7,7,0,0,1-2.52-4.09v-1.74A5.88,5.88,0,0,1,3,313.64l36.28-73.12C41,237,46.15,234.61,52,234.61H367.74c5.85,0,10.95,2.37,12.71,5.91l36.27,73.12a5.77,5.77,0,0,1,.51,1.44Z"/><polygon class="cls-2" points="177.97 241.12 271.48 241.12 285.3 283.14 160.56 283.14 177.97 241.12"/><path class="cls-22" d="M262.42,252.68c-7.64-.16-12.93,6.57-12.81,13.33.07,3.77,5.81,3.77,5.87,0,.13-6.76-5.16-13.49-12.81-13.33-7.64-.16-12.93,6.57-12.81,13.33.07,3.77,5.81,3.77,5.88,0,.12-6.76-5.17-13.49-12.81-13.33-7.65-.16-12.94,6.57-12.81,13.33.06,3.77,5.8,3.77,5.87,0,.12-6.76-5.16-13.49-12.81-13.33-7.65-.16-12.94,6.58-12.81,13.34.07,3.77,5.8,3.77,5.87,0,.13-6.76-5.16-13.5-12.81-13.34"/><path class="cls-7" d="M147.47,225.47c-14.54-3.4-25.69-13.14-29.08-25.41-1.37-5-2.86-14.61,2.67-23.16a24.77,24.77,0,0,1,3.43-4.2V148.3c0-.37,0-.74,0-1.12a48.25,48.25,0,0,0-21.59,18,46.79,46.79,0,0,0-7.38,26,55.77,55.77,0,0,0,2,14.59c5.5,19.9,22.73,35.49,45,40.69a10.8,10.8,0,1,0,4.92-21Z"/><ellipse class="cls-23" cx="136.51" cy="235.83" rx="15.15" ry="10.8" transform="translate(-135.78 225.62) rotate(-57.79)"/><ellipse class="cls-2" cx="147.03" cy="242.65" rx="15.15" ry="19.22" transform="translate(-136.65 237.7) rotate(-57.79)"/><path class="cls-23" d="M156.91,258.32c-2.92,4.7-6.37,7.16-11,7.34a14,14,0,0,1-9.57-3.44c-5-4.29-7.24-11.25-6.46-21.1"/><path class="cls-23" d="M137.39,226.72a26.62,26.62,0,0,1,15.36-7.43,28.91,28.91,0,0,1,11.53.73c5,1.39,8.29,3.73,10.29,6.77a5.9,5.9,0,0,1-.62,7.36l-.25.24a5.13,5.13,0,0,1-4.89,1c-8.29-2.49-14.05-2.27-17.47.47"/><path class="cls-24" d="M180,250.62c-3.72-1.25-8.92-2.65-8.92-2.65l2.33-4.58,4.57-2.64s2.32,4.34,4.26,7.52Z"/><path class="cls-25" d="M183.31,250.09c.94,1.61-.56,1.46-1.2,1.25l-2.13-.72,2.24-2.35Z"/><path class="cls-26" d="M123.13,206.34a1.93,1.93,0,0,0-2.53.15h0a1.51,1.51,0,0,0,.19,2.28l49.71,38.84a1.93,1.93,0,0,0,2.53-.15h0a1.51,1.51,0,0,0-.18-2.28Z"/><path class="cls-27" d="M125.48,203.91a1.93,1.93,0,0,0-2.53.15h0a1.51,1.51,0,0,0,.18,2.28l49.72,38.84a1.93,1.93,0,0,0,2.53-.15h0a1.51,1.51,0,0,0-.19-2.28Z"/><path class="cls-26" d="M127.82,201.48a1.93,1.93,0,0,0-2.53.15h0a1.51,1.51,0,0,0,.19,2.28l49.71,38.84a1.93,1.93,0,0,0,2.53-.15h0a1.51,1.51,0,0,0-.19-2.28Z"/><polygon class="cls-28" points="128.7 202.17 121.67 209.45 119.25 207.56 126.28 200.28 128.7 202.17"/><path class="cls-29" d="M126.28,200.28l-7,7.28-2.52-2h0l-.12-.08c-1.89-1.49-1.85-4.32.09-6.33s5-2.44,6.94-1l.11.09h0Z"/><path class="cls-23" d="M167.34,248.17a10.67,10.67,0,0,1-10.19,10.19,19.72,19.72,0,0,1-11.1-2.33"/><path class="cls-23" d="M150.66,233.36l2,.51a30.67,30.67,0,0,0,10.44.95,17.23,17.23,0,0,1,5.61.44,8.07,8.07,0,0,1,3.17,1.5l.06.05a5.25,5.25,0,0,1,.13,7.91,14.72,14.72,0,0,1-5.66,3.31c-.34.12-.67.28-1,.38-4.39,1.29-10.63.72-16.37-1.55"/><ellipse class="cls-30" cx="241.15" cy="138.95" rx="22.14" ry="32.78"/><ellipse class="cls-31" cx="241.89" cy="138.95" rx="11.39" ry="16.86"/><path class="cls-32" d="M230.33,96.87s11.76-12.27,23.13,0"/><circle class="cls-2" cx="237.87" cy="133.37" r="4.37"/><ellipse class="cls-30" cx="185.53" cy="138.95" rx="22.14" ry="32.78"/><ellipse class="cls-31" cx="186.27" cy="138.95" rx="11.39" ry="16.86"/><path class="cls-32" d="M174.71,96.87s11.76-12.27,23.13,0"/><circle class="cls-2" cx="182.25" cy="133.37" r="4.37"/><path class="cls-33" d="M239.38,188.1a6.74,6.74,0,0,1,3.67,12.4,54.66,54.66,0,0,1-59.43,0A6.74,6.74,0,0,1,191,189.19a41.17,41.17,0,0,0,44.76,0A6.65,6.65,0,0,1,239.38,188.1Z"/><path class="cls-34" d="M187.29,192.58a2.24,2.24,0,0,1,1.23.37,45.66,45.66,0,0,0,49.64,0,2.26,2.26,0,0,1,2.46,3.79,50.18,50.18,0,0,1-54.56,0,2.26,2.26,0,0,1,1.23-4.16Z"/></g></g></svg>