<svg xmlns="http://www.w3.org/2000/svg" viewBox="0 0 345.74 536.49"><defs><style>.cls-1{fill:#d8850b;stroke-width:2.71px;}.cls-1,.cls-12,.cls-13,.cls-15,.cls-17,.cls-18,.cls-19,.cls-2,.cls-20,.cls-21,.cls-22,.cls-23,.cls-24,.cls-26,.cls-27,.cls-28,.cls-29,.cls-3,.cls-32,.cls-37,.cls-4,.cls-5,.cls-6,.cls-8,.cls-9{stroke:#000;}.cls-1,.cls-13,.cls-15,.cls-16,.cls-17,.cls-18,.cls-19,.cls-20,.cls-21,.cls-22,.cls-23,.cls-24,.cls-26,.cls-3,.cls-32,.cls-33,.cls-37,.cls-4,.cls-5,.cls-6,.cls-8,.cls-9{stroke-miterlimit:10;}.cls-2,.cls-22,.cls-23,.cls-25,.cls-26,.cls-27,.cls-28,.cls-29,.cls-32,.cls-37{fill:#fff;}.cls-12,.cls-18,.cls-2,.cls-27,.cls-28,.cls-29{stroke-linecap:round;}.cls-12,.cls-2,.cls-27,.cls-28,.cls-29{stroke-linejoin:round;}.cls-2{stroke-width:1.76px;}.cls-3{fill:#f9d34e;}.cls-3,.cls-4,.cls-5,.cls-6{stroke-width:1.19px;}.cls-4{fill:#6969ff;}.cls-5{fill:#b04aff;}.cls-6{fill:#b3b3b3;}.cls-7{fill:#fbccac;}.cls-8{fill:#ff7bac;}.cls-17,.cls-18,.cls-8,.cls-9{stroke-width:4.68px;}.cls-9{fill:#ccc;}.cls-10{fill:#d88500;}.cls-11{fill:#f9b233;}.cls-12{stroke-width:0.03px;}.cls-13{fill:#666;}.cls-13,.cls-23{stroke-width:2.34px;}.cls-14,.cls-15,.cls-16,.cls-17,.cls-18,.cls-33{fill:none;}.cls-15{stroke-width:3.51px;}.cls-16{stroke:#bf720c;stroke-width:1.87px;}.cls-19{fill:#abd6bd;stroke-width:0.89px;}.cls-20{fill:#ffd18f;stroke-width:1.76px;}.cls-21,.cls-22{stroke-width:0.09px;}.cls-24{stroke-width:0.3px;}.cls-26,.cls-27,.cls-33{stroke-width:2.04px;}.cls-28{stroke-width:1.96px;}.cls-29{stroke-width:1.94px;}.cls-30{fill:#f7e96e;}.cls-31{fill:#bdd38b;}.cls-32{stroke-width:1.36px;}.cls-33{stroke:#1562a8;}.cls-34{fill:#e5e5e5;}.cls-35{fill:#760dc9;}.cls-36{fill:#d7840b;}.cls-37{stroke-width:4.02px;}</style></defs><title>lpb</title><g id="Layer_2" data-name="Layer 2"><g id="Portadilla_2_GUIA_1" data-name="Portadilla 2 GUIA 1"><path class="cls-1" d="M59.66,295.73a61.19,61.19,0,0,0,86.44,1.1l21.83-21.27a10.18,10.18,0,0,0,.18-14.4h0a10.16,10.16,0,0,0-14.39-.18l-21.83,21.28a40.82,40.82,0,0,1-57.66-.74Z"/><path class="cls-2" d="M68.62,287.64c-8.69,9.68-26.4,8-39.55-3.83S12.3,254.59,21,244.91c4.55-14.56,32.66-1.81,39.55,3.84S77.3,278,68.62,287.64Z"/><path class="cls-2" d="M67.3,281.9l5.61-5.12a3.75,3.75,0,0,1,4-.73c1.13.47,1.83,1.43,1.73,3.32a7.48,7.48,0,0,1-1.43,4c-8.85,12.31-17.56,17.2-26.15,16.35-3.07-.92-4.05-2.74-3.74-5.13A1.87,1.87,0,0,1,49,292.93a21.69,21.69,0,0,0,15.4-8A34.47,34.47,0,0,1,67.3,281.9Z"/><path class="cls-2" d="M67.71,281.5C80,270.44,78.93,260.28,74.2,251.6c-8.11,5.8-13.05,2-17.5-3.27q-8.33,18.32-.83,28.54"/><path class="cls-2" d="M54.43,244.78l-20.88-9.73a24,24,0,0,0-5.47-1.78l-7.91-1.57a13.78,13.78,0,0,0-5.72.06c-4,.87-6.82,2.64-8.47,5.37a6,6,0,0,0-.77,4.39,6.58,6.58,0,0,0,3.14,4.07,11.31,11.31,0,0,0,9.81,1c.65-.22,1.28-.47,1.91-.74a10.65,10.65,0,0,0,6.24-8.15l.18-1.17"/><path class="cls-2" d="M19.2,246.23a25.51,25.51,0,0,1,18.09,4.34"/><path class="cls-2" d="M47.42,293.92a19.15,19.15,0,0,1-8.26-1.59A24.73,24.73,0,0,1,30,285.61L25.13,280c5.84,1.55,10.66,1,13.52-3.37a7.24,7.24,0,0,0,1-2.22c.89-3.87-2.5-5.27-5.71-6.78,5.14-3,5.67-6.21,3-9.58a6.36,6.36,0,0,1-1-1.71,4.55,4.55,0,0,1,1.24-5.16c.3-.31.6-.61.89-.93l3.5-3.9"/><path class="cls-3" d="M23,233.21l-4.82-65.93A2,2,0,0,1,20,165.17c1.94-.13,4,.53,6.32,2.54a8.83,8.83,0,0,1,2.91,5.23l8.43,50.76c-2.75,1.12-5.33,4.85-7.79,10.33Z"/><path class="cls-4" d="M41.86,286.25c3.15-6.61,2.33-12.53,0-18.18-.29-.71-.56-1.43-.78-2.16l-9.28-30.72a2.61,2.61,0,0,0-1.59-1.71,12.22,12.22,0,0,0-6.5-.49,2.8,2.8,0,0,0-2.39,2.75,49.37,49.37,0,0,1-.92,9.14,5.27,5.27,0,0,1-1.22,2.48l-6,6.78A17.4,17.4,0,0,0,9.7,260.3c-1.7,5.29-1.27,9.79-.55,14.19a25,25,0,0,0,1,4.18c2.21,6.39,5.76,10.73,10.3,13.56a15.28,15.28,0,0,0,9.17,2.32C34.68,294.21,38.94,291.91,41.86,286.25Zm-6.91.24a8.86,8.86,0,0,1-3.24,2.2,8.5,8.5,0,0,1-6.1-.06c-4.5-1.72-7.65-5.67-9.92-11.07a18.5,18.5,0,0,1-1.4-5.48,21.05,21.05,0,0,1,2.84-13.45,13.28,13.28,0,0,1,2.64-3.1c1.84-1.59,3.76-2.65,5.83-2.41l.46.06a8.11,8.11,0,0,1,6.54,5.4l2.63,7.65a15.18,15.18,0,0,1,.74,3.2l1.23,10.23A8.39,8.39,0,0,1,35,286.49Z"/><path class="cls-3" d="M38.36,229.12l-4-1.69-8.08-.65a2.6,2.6,0,0,1-2.06-1.33L2.44,186.89a14,14,0,0,1-1.73-8.72q.62-4.51,3.91-6.09a1.91,1.91,0,0,1,2.4.67l34.52,51Z"/><path class="cls-5" d="M74.52,225.12a17.37,17.37,0,0,0-16.32-2.68,19.8,19.8,0,0,1-5.43,1.06l-2.19.1a5.72,5.72,0,0,1-2.79-.57L44,221.16a3.23,3.23,0,0,0-3.8.7A12.53,12.53,0,0,0,37,228.73a3.57,3.57,0,0,0,1.36,3.33l4.43,3.43a8.78,8.78,0,0,1,1.85,1.95l1.87,2.71a17.42,17.42,0,1,0,28-15Zm-18.4,22.82a11.67,11.67,0,1,1,16.38-2.1A11.67,11.67,0,0,1,56.12,247.94Z"/><circle class="cls-6" cx="29.3" cy="219.06" r="3.74"/><path class="cls-2" d="M29,267c-4.14-3.15-8.53-3.45-13.43,2a5.2,5.2,0,0,0-1,5.51,12.33,12.33,0,0,0,3,4c3.27,2.39,7.69,3.55,13.13,3.61a8.8,8.8,0,0,0,5.65-1.91l.11-.09A5.44,5.44,0,0,0,38,273.59c-1.9-3.91-7.24-5.11-12.7-6.22"/><path class="cls-2" d="M27.34,254.2c-4.14-3.14-8.53-3.45-13.43,2a5.2,5.2,0,0,0-1,5.51,12.33,12.33,0,0,0,3,4c3.27,2.39,7.69,3.55,13.13,3.61a8.8,8.8,0,0,0,5.65-1.91l.11-.09a5.44,5.44,0,0,0,1.46-6.53c-1.9-3.91-7.24-5.11-12.7-6.22"/><path class="cls-2" d="M70.16,247.23a27.55,27.55,0,0,1-.85-16.42,6.5,6.5,0,0,0-.2-3.88,5.26,5.26,0,0,0-2.29-2.74,6,6,0,0,0-6,0,17.13,17.13,0,0,0-3.9,3.17,15.09,15.09,0,0,0-3.8,7.51c-.84,4.37-.82,7.81.14,10.2C59.91,252.65,65.49,252.92,70.16,247.23Z"/><polygon class="cls-7" points="282.26 84.86 262.65 101.01 247.03 81.33 227.85 97.52 212.17 77.83 192.94 94.03 177.04 74.31 237.14 4.08 282.26 84.86"/><path class="cls-8" d="M251.55,373.07a45.85,45.85,0,0,1-11.22,17.13c-16.81,16-39.92,12.57-43,12.05-4.27-.41-24.34-2.79-38-20a52.1,52.1,0,0,1-9.57-19.41Z"/><path class="cls-9" d="M256.87,329q-2.09,20.33-4.18,40.65c-.3,1-.67,2.15-1.14,3.41l-101.78-10.2c-.43-1.65-.73-3.12-.94-4.38l4-39.91Z"/><path class="cls-10" d="M282.26,84.86l-3.14,31.37S264.17,258.07,256.87,329l-34.32-3.44L247,81.33,262.66,101Z"/><polygon class="cls-10" points="212.11 77.76 187.63 322.01 152.78 318.52 173.84 105.61 176.98 74.24 192.89 93.95 212.11 77.76"/><polygon class="cls-11" points="247.03 81.33 222.55 325.57 187.68 322.08 212.17 77.83 227.85 97.52 247.03 81.33"/><path class="cls-12" d="M223.87,20.29s9.62,11.07,22.54,2.26L237.13,4.07Z"/><line class="cls-13" x1="152.01" y1="326.72" x2="256.7" y2="337.21"/><line class="cls-13" x1="149.17" y1="355.04" x2="253.86" y2="365.53"/><line class="cls-14" x1="247.03" y1="81.33" x2="247.04" y2="81.2"/><line class="cls-15" x1="187.68" y1="322.09" x2="187.68" y2="322.08"/><line class="cls-15" x1="212.17" y1="77.83" x2="212.17" y2="77.81"/><line class="cls-16" x1="247.04" y1="81.2" x2="222.54" y2="325.57"/><line class="cls-16" x1="212.15" y1="77.96" x2="187.69" y2="322.08"/><path class="cls-17" d="M282.27,84.86,237.13,4.07,177,74.31l-3.15,31.37-21.06,212.9,104,10.43c7.3-70.94,22.25-212.78,22.25-212.78Z"/><polyline class="cls-17" points="177.04 74.31 192.94 94.03 212.17 77.83 227.85 97.53 247.03 81.33 262.65 101.01 282.27 84.86"/><path class="cls-18" d="M159.34,131.09s12.67-10.82,22.56,2.26"/><path class="cls-18" d="M221.8,137.35s12.66-10.82,22.55,2.26"/><path class="cls-19" d="M191.87,232.53c0,.2,0,.39,0,.59,0-.2,0-.39.08-.58Z"/><path class="cls-20" d="M232.69,228.17a11.52,11.52,0,0,0-15.55-4.51,44.78,44.78,0,0,1-16.62,4,48.33,48.33,0,0,1-5.78,0c-.75,0-1.52-.1-2.31-.17s-1.6-.18-2.38-.3a50.91,50.91,0,0,1-5.64-1.17A45,45,0,0,1,169,218.84a11.49,11.49,0,0,0-14.9,17.5c1.41,1.21,14.34,11.87,36.06,14s36.52-5.71,38.13-6.61A11.51,11.51,0,0,0,232.69,228.17Zm-6.89,11.2c-.59.33-14.64,8-35.15,6S157.89,233,157.38,232.51a6.44,6.44,0,0,1,8.38-9.78,47.89,47.89,0,0,0,15.21,7.6,56.39,56.39,0,0,0,10.9,2.2h.06a55.55,55.55,0,0,0,11.1,0,47.64,47.64,0,0,0,16.5-4.43,6.44,6.44,0,1,1,6.27,11.25Z"/><path class="cls-21" d="M225.8,239.37c-.59.33-14.64,8-35.15,6S157.89,233,157.38,232.51a6.44,6.44,0,0,1,8.38-9.78,47.89,47.89,0,0,0,15.21,7.6,8.72,8.72,0,0,0-.34,1.66c-.38,3.85,1.81,7.22,4.91,7.53s5.91-2.56,6.29-6.4c-.38,3.84,1.81,7.21,4.91,7.52s5.91-2.56,6.29-6.4a8,8,0,0,0,0-1.69,47.64,47.64,0,0,0,16.5-4.43,6.44,6.44,0,1,1,6.27,11.25Z"/><path class="cls-21" d="M191.91,232.54c0,.19-.06.38-.08.58,0-.2,0-.39,0-.59Z"/><path class="cls-22" d="M191.83,233.12c-.38,3.84-3.2,6.7-6.29,6.4s-5.29-3.68-4.91-7.53a8.72,8.72,0,0,1,.34-1.66,56.39,56.39,0,0,0,10.9,2.2C191.86,232.73,191.85,232.92,191.83,233.12Z"/><path class="cls-22" d="M203,234.24c-.38,3.84-3.2,6.71-6.29,6.4s-5.29-3.68-4.91-7.52c0-.2,0-.39.08-.58h0a55.55,55.55,0,0,0,11.1,0A8,8,0,0,1,203,234.24Z"/><ellipse class="cls-23" cx="170.42" cy="175.34" rx="32.13" ry="21.7" transform="translate(-21.04 327.42) rotate(-84.28)"/><ellipse class="cls-24" cx="160.5" cy="175.22" rx="16.53" ry="11.16" transform="translate(-29.86 317.44) rotate(-84.28)"/><circle class="cls-25" cx="166.34" cy="168.74" r="4.28"/><ellipse class="cls-23" cx="228.23" cy="179.44" rx="32.13" ry="21.7" transform="translate(26.93 388.64) rotate(-84.28)"/><ellipse class="cls-24" cx="217.75" cy="181.64" rx="16.53" ry="11.16" transform="translate(15.3 380.19) rotate(-84.28)"/><circle class="cls-25" cx="223.95" cy="175.19" r="4.28"/><ellipse class="cls-26" cx="291.99" cy="317.21" rx="8.79" ry="14.13" transform="translate(-66.47 77.65) rotate(-13.62)"/><path class="cls-27" d="M294.36,312.84c-1.13-9-6.39-15-14.44-18.79a4.8,4.8,0,0,0-5.72,1.06,4.22,4.22,0,0,0-1,3.07,3.13,3.13,0,0,0,0,.44,5.11,5.11,0,0,0,2.27,3.43c4.86,3.23,8.21,6.9,8.49,11.49"/><path class="cls-28" d="M200.78,275.59l94.43-14.73-22,101.54s-92.72,18.71-92.55,18S200.78,275.59,200.78,275.59Z"/><path class="cls-27" d="M281.92,330.8a51,51,0,0,1-17.78.65,3.53,3.53,0,0,0-3.35,5.54l.06.08a6.27,6.27,0,0,0,3.86,2.26,39.35,39.35,0,0,0,18.24-.59,24.4,24.4,0,0,0,5.94-2.61c.26-.16.54-.32.81-.5a14.29,14.29,0,0,0,4.73-4.74c1.58-2.63,1.26-4.21,1.74-9.56"/><ellipse class="cls-25" cx="286.33" cy="321.74" rx="7.7" ry="9.66"/><path class="cls-28" d="M287.65,309.4c-9.2,2.32-16.73,1.77-24,.78h-1.42a6.25,6.25,0,0,0-4.57,1.83,4.48,4.48,0,0,0-1.2,3.8,6.2,6.2,0,0,0,2.46,4.17,11.58,11.58,0,0,0,3.34,1.67,17.25,17.25,0,0,0,6,.8l14.12-.52"/><path class="cls-29" d="M283.59,330.11c-3.08,2.09-10.35,2.56-19.38,2.35a32.67,32.67,0,0,1-6-.73,12.55,12.55,0,0,1-3.18-1.46,5.83,5.83,0,0,1-2.62-4,4,4,0,0,1,1.2-3.53,6.49,6.49,0,0,1,4.57-1.71h1.43c7.27.93,14.8,1.44,24-.73"/><polygon class="cls-30" points="77.15 521.77 126.82 536.49 171.17 521.77 211.67 457.48 136.06 444.31 77.15 521.77"/><polygon class="cls-31" points="131.84 508.1 149.86 491.24 114.05 478.99 153.33 445.96 136 438.1 70.16 479.46 131.84 508.1"/><polygon class="cls-32" points="176.81 437.58 279.74 418.87 344.54 503.43 224.64 527.34 176.81 437.58"/><ellipse class="cls-33" cx="253.31" cy="469.52" rx="29.89" ry="22.25"/><path d="M189,404.64c2.69-13.06,10.69-22.07,18.2-20.52,3.07.63,5.55,2.93,7.2,6.39a22.36,22.36,0,0,1,12.35-2,22.11,22.11,0,0,1,3.28.63,15.8,15.8,0,0,1,16.8,6.58l2.18,3.22a47.52,47.52,0,0,0,6.65,7.85c4,3.79,12.64,14.52,7.87,32.15-.25,1-6.43,24.91-22.08,24.39h-.09a32.28,32.28,0,0,1-6.95-1.82c-.5,0-1,0-1.51-.09-6.18-.7-11.15-3.33-14.37-7.6-3.34-4.45-4.55-10.53-3.53-17.61a31.88,31.88,0,0,1-7.9-8.87c-2.74,2.54-5.78,3.81-8.74,3.47-.25,0-.5-.07-.74-.11C190.05,429.13,186.26,417.7,189,404.64Zm52.56,56.73c14.06.41,20-22.7,20.07-22.94,4.35-16-2.72-25.83-7.32-30.24a50.43,50.43,0,0,1-6.93-8.16l-2.17-3.23a13.94,13.94,0,0,0-11.22-6.15A23.6,23.6,0,0,1,245.87,405c8.09,4.79,13,16.54,11.55,29.54-1.5,13.29-9.21,23.8-18.42,26.4C240.31,461.19,241.29,461.34,241.51,461.37ZM198,428.69c5,1,10.75-4.29,14.05-12.93a1,1,0,1,1,1.9.73,30.41,30.41,0,0,1-5.48,9.39,32,32,0,0,0,6.89,8.15A21.44,21.44,0,0,1,229,418a1.36,1.36,0,1,1,.93,2.55,18.87,18.87,0,0,0-12.14,15.12c-1.14,6.74-.15,12.44,2.89,16.47,2.75,3.67,7.07,5.93,12.5,6.54,10.24,1.15,19.91-9.85,21.57-24.53s-5.33-27.56-15.57-28.72a1.35,1.35,0,1,1,.3-2.69,15.33,15.33,0,0,1,2.95.63,20.08,20.08,0,0,0-16-12.2A19.72,19.72,0,0,0,215.34,393a31,31,0,0,1,1.23,10.85,1,1,0,1,1-2-.1c.45-9.37-2.75-16.64-7.8-17.68-6.29-1.29-13.38,7.21-15.79,18.95S191.69,427.4,198,428.69Z"/><path class="cls-34" d="M239,460.89c1.31.3,2.29.45,2.51.48,14.06.41,20-22.7,20.07-22.94,4.35-16-2.72-25.83-7.32-30.24a50.43,50.43,0,0,1-6.93-8.16l-2.17-3.23a13.94,13.94,0,0,0-11.22-6.15A23.6,23.6,0,0,1,245.87,405c8.09,4.79,13,16.54,11.55,29.54C255.92,447.78,248.21,458.29,239,460.89Z"/><path class="cls-35" d="M198,428.69c5,1,10.75-4.29,14.05-12.93a1,1,0,1,1,1.9.73,30.41,30.41,0,0,1-5.48,9.39,32,32,0,0,0,6.89,8.15A21.44,21.44,0,0,1,229,418a1.36,1.36,0,1,1,.93,2.55,18.87,18.87,0,0,0-12.14,15.12c-1.14,6.74-.15,12.44,2.89,16.47,2.75,3.67,7.07,5.93,12.5,6.54,10.24,1.15,19.91-9.85,21.57-24.53s-5.33-27.56-15.57-28.72a1.35,1.35,0,1,1,.3-2.69,15.33,15.33,0,0,1,2.95.63,20.08,20.08,0,0,0-16-12.2A19.72,19.72,0,0,0,215.34,393a31,31,0,0,1,1.23,10.85,1,1,0,1,1-2-.1c.45-9.37-2.75-16.64-7.8-17.68-6.29-1.29-13.38,7.21-15.79,18.95S191.69,427.4,198,428.69Z"/><path class="cls-36" d="M185.65,412.06a12,12,0,0,1-2.46-.26c-44.79-9.64-70.87-21.41-79.75-36a16.15,16.15,0,0,1-2.29-9.67l0-.32a10.85,10.85,0,0,1,10.91-9.7l.69,0c6.89.16,13.23.42,19.29.81a43.28,43.28,0,0,1,29.36,14.13l10.26,11.27a1.73,1.73,0,0,1-1.23,2.9H170c5.2,1.34,11,2.61,17.61,3.77A11.61,11.61,0,0,1,197,402.85,11.65,11.65,0,0,1,185.65,412.06Z"/><path d="M112.09,357.86h.58c7.51.17,13.77.46,19.29.81a41.76,41.76,0,0,1,28.19,13.57l10.26,11.26-1,0c-13.19,0-28.06-8.13-43.22-17.69,11.82,9.61,26.08,18.71,61.12,24.9a9.87,9.87,0,0,1-1.7,19.59,10.08,10.08,0,0,1-2.1-.23c-41.1-8.84-69.47-20.15-78.63-35.19a14.27,14.27,0,0,1-2-8.62l0-.31a9.16,9.16,0,0,1,9.18-8.12m0-3.47h0a12.56,12.56,0,0,0-12.63,11.25l0,.35A18,18,0,0,0,102,376.72c9.14,15,35.59,27,80.86,36.77A13.35,13.35,0,0,0,198.7,403.2,13.35,13.35,0,0,0,188,387.32c-5.17-.91-9.88-1.89-14.18-2.92a3.49,3.49,0,0,0-.79-3.22l-10.27-11.27a45,45,0,0,0-30.53-14.69c-6.07-.39-12.41-.65-19.37-.81-.24,0-.48,0-.72,0Z"/><path class="cls-36" d="M198.36,423A11.67,11.67,0,0,1,187,413.79,11.61,11.61,0,0,1,196.36,400c6.57-1.16,12.4-2.43,17.61-3.77h-.43a1.74,1.74,0,0,1-1.23-2.91L222.58,382a43.26,43.26,0,0,1,29.36-14.13c6.07-.39,12.4-.66,19.36-.81l.62,0a10.85,10.85,0,0,1,10.91,9.69l0,.32a16.16,16.16,0,0,1-2.29,9.68c-8.88,14.58-35,26.35-79.75,36A12,12,0,0,1,198.36,423Z"/><path d="M271.92,368.79a9.17,9.17,0,0,1,9.18,8.13l0,.31a14.2,14.2,0,0,1-2.05,8.62c-9.15,15-37.53,26.35-78.62,35.19a10.13,10.13,0,0,1-2.1.22,9.88,9.88,0,0,1-9.66-7.83h0a9.87,9.87,0,0,1,8-11.75c35-6.19,49.3-15.3,61.12-24.9-15.16,9.56-30,17.69-43.22,17.69l-1,0,10.26-11.26a41.76,41.76,0,0,1,28.19-13.57c5.52-.36,11.78-.64,19.29-.81l.58,0m0-3.46c-.24,0-.48,0-.72,0-7,.15-13.3.42-19.37.81a45,45,0,0,0-30.54,14.69L211,392.12a3.45,3.45,0,0,0-.79,3.22c-4.3,1-9,2-14.18,2.92a13.35,13.35,0,0,0-10.75,15.88,13.35,13.35,0,0,0,15.88,10.29c45.27-9.74,71.72-21.77,80.86-36.77a17.87,17.87,0,0,0,2.53-10.73l0-.35a12.56,12.56,0,0,0-12.63-11.25Z"/><path d="M140.66,405.54a48.58,48.58,0,0,0,7.49-7.05l2.52-3a15.79,15.79,0,0,1,17.43-4.65,21.68,21.68,0,0,1,3.33-.27,22.35,22.35,0,0,1,12,3.38c2-3.25,4.75-5.25,7.87-5.54,7.64-.7,14.58,9.15,15.79,22.43s-3.83,24.22-11.48,24.92l-.75,0c-3,0-5.85-1.61-8.3-4.43a31.65,31.65,0,0,1-8.85,7.93c.23,7.16-1.66,13.05-5.48,17.1-3.67,3.89-8.9,5.94-15.12,5.94a15.16,15.16,0,0,1-1.52-.08,31.07,31.07,0,0,1-7.1,1h-.09c-15.61-1.24-19.08-25.7-19.22-26.71C126.47,418.55,136.3,408.87,140.66,405.54Zm16.5,54.12c5.45,0,10-1.76,13.15-5.09,3.47-3.68,5.1-9.23,4.71-16.06a18.9,18.9,0,0,0-10.37-16.38,1.35,1.35,0,1,1,1.21-2.42,21.41,21.41,0,0,1,11.77,17.42,31.87,31.87,0,0,0,7.75-7.33,30.58,30.58,0,0,1-4.39-9.94,1,1,0,0,1,.72-1.24,1,1,0,0,1,1.25.73c2.3,8.95,7.46,14.88,12.52,14.42,6.4-.58,10.72-10.77,9.63-22.7s-7.18-21.17-13.58-20.59c-5.13.47-9.12,7.33-9.72,16.69a1,1,0,1,1-2-.13,31.2,31.2,0,0,1,2.45-10.64,19.71,19.71,0,0,0-10.79-3.07,20.11,20.11,0,0,0-17.28,10.33,15.83,15.83,0,0,1,3-.29,1.36,1.36,0,1,1,0,2.71c-10.31,0-18.7,12-18.7,26.79S146.85,459.66,157.16,459.66Zm-26-23.34c0,.25,3.36,23.88,17.38,25.05.21,0,1.2,0,2.55-.2-8.87-3.61-15.36-14.93-15.36-28.3,0-13.09,6.22-24.2,14.79-28.05A23.62,23.62,0,0,1,164,391.94a13.92,13.92,0,0,0-11.84,4.86l-2.52,3a50.7,50.7,0,0,1-7.8,7.34C136.78,411,128.66,419.9,131.18,436.32Z"/><path class="cls-34" d="M131.18,436.32c0,.25,3.36,23.88,17.38,25.05.21,0,1.2,0,2.55-.2-8.87-3.61-15.36-14.93-15.36-28.3,0-13.09,6.22-24.2,14.79-28.05A23.62,23.62,0,0,1,164,391.94a13.92,13.92,0,0,0-11.84,4.86l-2.52,3a50.7,50.7,0,0,1-7.8,7.34C136.78,411,128.66,419.9,131.18,436.32Z"/><path class="cls-35" d="M138.46,432.87c0,14.77,8.39,26.79,18.7,26.79,5.45,0,10-1.76,13.15-5.09,3.47-3.68,5.1-9.23,4.71-16.06a18.9,18.9,0,0,0-10.37-16.38,1.35,1.35,0,1,1,1.21-2.42,21.41,21.41,0,0,1,11.77,17.42,31.87,31.87,0,0,0,7.75-7.33,30.58,30.58,0,0,1-4.39-9.94,1,1,0,0,1,.72-1.24,1,1,0,0,1,1.25.73c2.3,8.95,7.46,14.88,12.52,14.42,6.4-.58,10.72-10.77,9.63-22.7s-7.18-21.17-13.58-20.59c-5.13.47-9.12,7.33-9.72,16.69a1,1,0,1,1-2-.13,31.2,31.2,0,0,1,2.45-10.64,19.71,19.71,0,0,0-10.79-3.07,20.11,20.11,0,0,0-17.28,10.33,15.83,15.83,0,0,1,3-.29,1.36,1.36,0,1,1,0,2.71C146.85,406.08,138.46,418.1,138.46,432.87Z"/><path class="cls-37" d="M200.46,421a9.88,9.88,0,0,1-11.76-7.61h0a9.87,9.87,0,0,1,8-11.75l11.48-2.29c-1.48,8.13-.07,14.47,4.44,18.88Z"/></g></g></svg>