<svg xmlns="http://www.w3.org/2000/svg" viewBox="0 0 508.49 528.95"><defs><style>.cls-1{fill:#e5e5e5;}.cls-2{fill:#760dc9;}.cls-3{fill:#d7840b;}.cls-22,.cls-23,.cls-25,.cls-27,.cls-4{fill:#fff;}.cls-12,.cls-13,.cls-15,.cls-17,.cls-18,.cls-19,.cls-20,.cls-21,.cls-22,.cls-23,.cls-24,.cls-26,.cls-27,.cls-28,.cls-4,.cls-5,.cls-6,.cls-8,.cls-9{stroke:#000;}.cls-13,.cls-15,.cls-16,.cls-17,.cls-18,.cls-19,.cls-20,.cls-21,.cls-22,.cls-23,.cls-24,.cls-26,.cls-28,.cls-4,.cls-6,.cls-8,.cls-9{stroke-miterlimit:10;}.cls-17,.cls-18,.cls-4,.cls-5,.cls-8,.cls-9{stroke-width:4.22px;}.cls-11,.cls-5{fill:#f9b233;}.cls-12,.cls-18,.cls-26,.cls-27,.cls-28,.cls-5{stroke-linecap:round;}.cls-12,.cls-27,.cls-5{stroke-linejoin:round;}.cls-14,.cls-15,.cls-16,.cls-17,.cls-18,.cls-26,.cls-28,.cls-6{fill:none;}.cls-6{stroke-width:2.68px;}.cls-7{fill:#fbccac;}.cls-8{fill:#ff7bac;}.cls-9{fill:#ccc;}.cls-10{fill:#d88500;}.cls-12{stroke-width:0.03px;}.cls-13{fill:#666;}.cls-13,.cls-23{stroke-width:2.11px;}.cls-15{stroke-width:3.16px;}.cls-16{stroke:#bf720c;stroke-width:1.69px;}.cls-19{fill:#abd6bd;stroke-width:0.8px;}.cls-20{fill:#ffd18f;stroke-width:1.58px;}.cls-21,.cls-22{stroke-width:0.08px;}.cls-24{stroke-width:0.27px;}.cls-26{stroke-width:2.78px;}.cls-27{stroke-width:3.03px;}.cls-28{stroke-width:2.66px;}.cls-29{fill:#f6bf98;}.cls-30{fill:#020605;}.cls-31{fill:#050100;}.cls-32{fill:#f88781;}.cls-33{fill:#c1c1c1;}.cls-34{fill:#eabb49;}.cls-35{fill:#9d9da5;}</style></defs><title>lpc</title><g id="Layer_2" data-name="Layer 2"><g id="Portadilla_3_GUIA_1" data-name="Portadilla 3 GUIA 1"><path class="cls-1" d="M300.48,517.25a81.23,81.23,0,0,1-9.2-1c-.85-.14-15.3-2.53-20.4-2.53h-.14c-5.92.06-17.14,2.27-23.84,3.59l-.88.17a22.8,22.8,0,0,1-4.47.44,22.22,22.22,0,0,1-19.42-11.24c-1.79,6.66.92,11.46,4.45,13.9,9.72,6.7,17.83,5.25,28.1,3.41a105.84,105.84,0,0,1,14.54-1.89A129,129,0,0,1,292,523.4c10.66,1.32,18.35,2.27,28.51-3.4,6.19-3.46,7.24-10.12,7.24-14.24C322.12,512.84,311.9,517.25,300.48,517.25Z"/><path class="cls-2" d="M300.48,473.14A37.34,37.34,0,0,0,285,476.36l-.09,0c-.07,0-6.76,2.68-10.94,12.47a1.44,1.44,0,1,1-2.64-1.13,30.05,30.05,0,0,1,6.66-10,30.17,30.17,0,0,0-10.44-11.2,40.78,40.78,0,0,1-10.72,2.73h-.17a1.44,1.44,0,0,1-.18-2.87,37.93,37.93,0,0,0,10.55-2.75l.14-.06c4.8-2.15,7.78-5.18,7.78-8.38,0-6.26-11.19-11.55-24.45-11.55S226.1,449,226.1,455.26c0,3.43,3.39,6.67,8.9,8.85a.77.77,0,0,1,.19.08,37,37,0,0,0,6.52,1.82,1.44,1.44,0,0,1-.53,2.83,41.49,41.49,0,0,1-6.46-1.76,30.1,30.1,0,0,0-11.4,35.33l.06.18a19.42,19.42,0,0,0,22.08,12.07l.88-.17c7.24-1.43,18.18-3.59,24.38-3.64,5.34-.07,20.43,2.46,21.07,2.57h.08a80.9,80.9,0,0,0,8.63,1c11.93,0,22.78-5.4,27-13.43a15.44,15.44,0,0,0,1.81-7.2C329.3,482.39,316.37,473.14,300.48,473.14Z"/><path d="M300.48,470.26a40.44,40.44,0,0,0-16.6,3.46,16.84,16.84,0,0,0-3.62,2.15,33,33,0,0,0-9.67-10.75c4.56-2.59,7.28-6.07,7.28-9.86,0-8.09-12-14.43-27.33-14.43s-27.32,6.34-27.32,14.43c0,4.12,3.12,7.85,8.42,10.5a32.91,32.91,0,0,0-11.21,37.09c-4.12,9.67-.19,16.85,4.51,20.09a28.71,28.71,0,0,0,17.11,5.47,75.05,75.05,0,0,0,13.14-1.59A102.21,102.21,0,0,1,269.34,525a125.4,125.4,0,0,1,22.31,1.27c10.77,1.34,19.28,2.39,30.27-3.74,6.11-3.42,8-9.41,8.55-13.84a23.89,23.89,0,0,0-.18-6.91,18.12,18.12,0,0,0,1.89-8C332.18,480.8,318,470.26,300.48,470.26Zm20,49.74c-10.16,5.67-17.85,4.72-28.51,3.4a129,129,0,0,0-22.78-1.3A105.84,105.84,0,0,0,254.68,524c-10.27,1.84-18.38,3.29-28.1-3.41-3.53-2.44-6.24-7.24-4.45-13.9a22.22,22.22,0,0,0,19.42,11.24,22.8,22.8,0,0,0,4.47-.44l.88-.17c6.7-1.32,17.92-3.53,23.84-3.59h.14c5.1,0,19.55,2.39,20.4,2.53a81.23,81.23,0,0,0,9.2,1c11.42,0,21.64-4.41,27.27-11.49C327.75,509.88,326.7,516.54,320.51,520Zm7-19.05c-4.21,8-15.06,13.43-27,13.43a80.9,80.9,0,0,1-8.63-1h-.08c-.64-.11-15.73-2.64-21.07-2.57-6.2,0-17.14,2.21-24.38,3.64l-.88.17a19.42,19.42,0,0,1-22.08-12.07l-.06-.18a30.1,30.1,0,0,1,11.4-35.33,41.49,41.49,0,0,0,6.46,1.76,1.44,1.44,0,0,0,.53-2.83,37,37,0,0,1-6.52-1.82.77.77,0,0,0-.19-.08c-5.51-2.18-8.9-5.42-8.9-8.85,0-6.26,11.19-11.55,24.44-11.55S275,449,275,455.26c0,3.2-3,6.23-7.78,8.38l-.14.06a37.93,37.93,0,0,1-10.55,2.75,1.44,1.44,0,0,0,.18,2.87h.17a40.78,40.78,0,0,0,10.72-2.73A30.17,30.17,0,0,1,278,477.78a30.05,30.05,0,0,0-6.66,10,1.44,1.44,0,1,0,2.64,1.13c4.18-9.79,10.87-12.45,10.94-12.47l.09,0a37.34,37.34,0,0,1,15.44-3.22c15.89,0,28.82,9.25,28.82,20.61A15.44,15.44,0,0,1,327.49,501Z"/><path class="cls-3" d="M249.5,457.37a12.64,12.64,0,0,1-1.83-.14,11.36,11.36,0,0,1-9.37-13c7.76-47.74-14.91-100.32-15.14-100.85a11.33,11.33,0,0,1,20.74-9.15c1,2.38,25.66,59,16.78,113.64A11.29,11.29,0,0,1,249.5,457.37Z"/><path d="M233.53,329.57a9.22,9.22,0,0,1,8.44,5.5c1,2.36,25.41,58.36,16.62,112.45a9.21,9.21,0,0,1-9.09,7.74,9.45,9.45,0,0,1-1.49-.12,9.21,9.21,0,0,1-7.62-10.58c7.87-48.45-14.93-101.19-15.29-102a9.23,9.23,0,0,1,4.7-12.17,9.33,9.33,0,0,1,3.73-.79m0-4.21a13.24,13.24,0,0,0-5.43,1.15,13.44,13.44,0,0,0-6.86,17.72c.22.51,22.65,52.46,15,99.65a13.44,13.44,0,0,0,11.11,15.43,14.42,14.42,0,0,0,2.17.17,13.38,13.38,0,0,0,13.26-11.28c9-55.32-15.87-112.43-16.93-114.83a13.45,13.45,0,0,0-12.3-8Z"/><path class="cls-4" d="M249.42,429.93h1.92a11.28,11.28,0,0,1,11.28,11.28V456a1.85,1.85,0,0,1-1.85,1.85H240a1.85,1.85,0,0,1-1.85-1.85v-14.8a11.28,11.28,0,0,1,11.28-11.28Z" transform="translate(473.11 902.3) rotate(-176.49)"/><path class="cls-1" d="M121.29,517.8a79.62,79.62,0,0,0,9.21-1c.84-.14,15.29-2.52,20.4-2.52H151c5.93.05,17.15,2.26,23.85,3.58l.87.18a23.62,23.62,0,0,0,4.48.44,22.21,22.21,0,0,0,19.41-11.24c1.8,6.65-.92,11.46-4.44,13.89-9.72,6.71-17.83,5.25-28.11,3.41a105.69,105.69,0,0,0-14.54-1.88,128.17,128.17,0,0,0-22.78,1.29c-10.65,1.32-18.35,2.28-28.51-3.4C95.07,517.08,94,510.43,94,506.31,99.66,513.39,109.87,517.8,121.29,517.8Z"/><path class="cls-2" d="M121.29,473.68a37.5,37.5,0,0,1,15.44,3.22l.1,0c.06,0,6.76,2.69,10.93,12.48a1.44,1.44,0,0,0,2.65-1.13,30.21,30.21,0,0,0-6.67-10,30,30,0,0,1,10.45-11.2,40.71,40.71,0,0,0,10.71,2.72h.18a1.44,1.44,0,0,0,.17-2.86,38.2,38.2,0,0,1-10.54-2.75l-.14-.07c-4.81-2.15-7.79-5.17-7.79-8.38,0-6.26,11.2-11.55,24.45-11.55s24.45,5.29,24.45,11.55c0,3.43-3.4,6.67-8.9,8.85l-.19.08a37.28,37.28,0,0,1-6.52,1.82,1.44,1.44,0,0,0,.53,2.83,40,40,0,0,0,6.45-1.75A30.14,30.14,0,0,1,198.46,503l-.07.18a19.42,19.42,0,0,1-22.08,12.07l-.88-.18c-7.24-1.43-18.18-3.58-24.37-3.64-5.34-.06-20.44,2.47-21.08,2.57l-.08,0a80.17,80.17,0,0,1-8.62.94c-11.94,0-22.79-5.4-27-13.43a15.44,15.44,0,0,1-1.82-7.19C92.47,482.93,105.4,473.68,121.29,473.68Z"/><path d="M89.6,494.3a18.08,18.08,0,0,0,1.89,8,23.9,23.9,0,0,0-.18,6.91c.52,4.43,2.43,10.43,8.55,13.84,11,6.14,19.49,5.08,30.27,3.75a126.13,126.13,0,0,1,22.3-1.28,103.91,103.91,0,0,1,14.16,1.84A74.94,74.94,0,0,0,179.73,529a28.69,28.69,0,0,0,17.1-5.46c4.7-3.25,8.64-10.43,4.52-20.1a33,33,0,0,0-11.21-37.09c5.29-2.65,8.42-6.38,8.42-10.5,0-8.09-12-14.43-27.33-14.43s-27.33,6.34-27.33,14.43c0,3.79,2.72,7.27,7.28,9.87a32.89,32.89,0,0,0-9.67,10.75,16.13,16.13,0,0,0-3.62-2.15,40.28,40.28,0,0,0-16.6-3.46C103.81,470.81,89.6,481.34,89.6,494.3Zm4.43,12c5.63,7.08,15.84,11.49,27.26,11.49a79.62,79.62,0,0,0,9.21-1c.84-.14,15.29-2.52,20.4-2.52H151c5.93.05,17.15,2.26,23.85,3.58l.87.18a23.62,23.62,0,0,0,4.48.44,22.21,22.21,0,0,0,19.41-11.24c1.8,6.65-.92,11.46-4.44,13.89-9.72,6.71-17.83,5.25-28.11,3.41a105.69,105.69,0,0,0-14.54-1.88,128.17,128.17,0,0,0-22.78,1.29c-10.65,1.32-18.35,2.28-28.51-3.4C95.07,517.08,94,510.43,94,506.31Zm-1.56-12c0-11.37,12.93-20.62,28.82-20.62a37.5,37.5,0,0,1,15.44,3.22l.1,0c.06,0,6.76,2.69,10.93,12.48a1.44,1.44,0,0,0,2.65-1.13,30.21,30.21,0,0,0-6.67-10,30,30,0,0,1,10.45-11.2,40.71,40.71,0,0,0,10.71,2.72h.18a1.44,1.44,0,0,0,.17-2.86,38.2,38.2,0,0,1-10.54-2.75l-.14-.07c-4.81-2.15-7.79-5.17-7.79-8.38,0-6.26,11.2-11.55,24.45-11.55s24.45,5.29,24.45,11.55c0,3.43-3.4,6.67-8.9,8.85l-.19.08a37.28,37.28,0,0,1-6.52,1.82,1.44,1.44,0,0,0,.53,2.83,40,40,0,0,0,6.45-1.75A30.14,30.14,0,0,1,198.46,503l-.07.18a19.42,19.42,0,0,1-22.08,12.07l-.88-.18c-7.24-1.43-18.18-3.58-24.37-3.64-5.34-.06-20.44,2.47-21.08,2.57l-.08,0a80.17,80.17,0,0,1-8.62.94c-11.94,0-22.79-5.4-27-13.43A15.44,15.44,0,0,1,92.47,494.3Z"/><path class="cls-3" d="M172.27,457.92a11.27,11.27,0,0,1-11.17-9.52c-8.89-54.7,15.72-111.26,16.78-113.64a11.33,11.33,0,0,1,20.73,9.17c-.23.51-22.9,53.09-15.14,100.84a11.35,11.35,0,0,1-9.37,13A11.2,11.2,0,0,1,172.27,457.92Z"/><path d="M188.25,330.12a9.12,9.12,0,0,1,3.72.79,9.22,9.22,0,0,1,4.71,12.16c-.37.84-23.17,53.59-15.29,102a9.23,9.23,0,0,1-7.63,10.58,9.45,9.45,0,0,1-1.49.12,9.23,9.23,0,0,1-9.09-7.75C154.39,394,178.76,338,179.81,335.62a9.22,9.22,0,0,1,8.44-5.5m0-4.22h0a13.45,13.45,0,0,0-12.3,8C174.88,336.32,150,393.44,159,448.74A13.38,13.38,0,0,0,172.27,460a13.45,13.45,0,0,0,13.28-15.6c-7.66-47.15,14.76-99.15,15-99.67a13.45,13.45,0,0,0-12.29-18.86Z"/><path class="cls-4" d="M161,430.48h20.78a1.85,1.85,0,0,1,1.85,1.85v14.8a11.28,11.28,0,0,1-11.28,11.28h-1.92a11.28,11.28,0,0,1-11.28-11.28v-14.8a1.85,1.85,0,0,1,1.85-1.85Z" transform="translate(-26.89 11.33) rotate(-3.51)"/><path class="cls-5" d="M169.13,235.86l-1.95,26.45c-1.93-.14-19.53-1.67-43.45-13.52a178.93,178.93,0,0,1-39.58-27,217.82,217.82,0,0,1-35.53-41.33L70.74,165c17.75,26.88,39.24,46.86,64,59.45C153.68,234.14,167.9,235.74,169.13,235.86Z"/><line class="cls-6" x1="69.73" y1="165.23" x2="47.61" y2="180.66"/><path class="cls-5" d="M228.44,248.54,230.39,275c1.93-.14,19.53-1.67,43.45-13.53a178.54,178.54,0,0,0,39.58-27A217.46,217.46,0,0,0,349,193.14L326.84,177.7c-17.76,26.89-39.25,46.87-64,59.46C243.89,246.82,229.67,248.42,228.44,248.54Z"/><polygon class="cls-7" points="260.34 72.64 244.21 88.89 228.44 72.64 212.7 88.89 196.87 72.64 181.1 88.89 165.07 72.64 212.63 4.28 260.34 72.64"/><path class="cls-8" d="M258.7,333.76a41.27,41.27,0,0,1-8.51,16.36C236.56,366,215.53,365,212.7,364.78c-3.86,0-22.07-.31-35.82-14.49a46.89,46.89,0,0,1-10.33-16.53Z"/><path class="cls-9" d="M259.52,293.78q-.06,18.41-.1,36.82c-.18.92-.41,2-.72,3.16H166.55c-.53-1.44-.93-2.74-1.24-3.84V293.78Z"/><path class="cls-10" d="M260.34,72.64V101s-.65,128.5-.82,192.74H228.44V72.64l15.77,16.25Z"/><polygon class="cls-10" points="196.82 72.59 196.82 293.73 165.26 293.73 165.01 100.99 165.01 72.59 181.04 88.83 196.82 72.59"/><polygon class="cls-11" points="228.44 72.64 228.44 293.79 196.87 293.79 196.87 72.64 212.7 88.89 228.44 72.64"/><path class="cls-12" d="M202.19,20s9.62,9.06,20.41,0l-10-15.73Z"/><line class="cls-13" x1="165.32" y1="301.15" x2="260.09" y2="301.15"/><line class="cls-13" x1="165.32" y1="326.79" x2="260.09" y2="326.79"/><line class="cls-14" x1="228.44" y1="72.64" x2="228.44" y2="72.53"/><line class="cls-15" x1="196.87" y1="293.8" x2="196.87" y2="293.79"/><line class="cls-15" x1="196.87" y1="72.64" x2="196.87" y2="72.62"/><line class="cls-16" x1="228.43" y1="72.53" x2="228.43" y2="293.78"/><line class="cls-16" x1="196.87" y1="72.75" x2="196.87" y2="293.78"/><path class="cls-17" d="M260.34,72.64,212.63,4.28,165.07,72.64v28.41l.24,192.73h94.21c.17-64.24.82-192.73.82-192.73Z"/><polyline class="cls-17" points="165.07 72.64 181.09 88.89 196.87 72.64 212.71 88.89 228.43 72.64 244.21 88.89 260.34 72.64"/><path class="cls-18" d="M233.81,126.73s-10.38-10.84-20.42,0"/><path class="cls-18" d="M177.27,126.73s-10.38-10.84-20.43,0"/><path class="cls-19" d="M195.5,214.74c0,.17,0,.35,0,.53,0-.18,0-.36,0-.53Z"/><path class="cls-20" d="M161.9,221.55c1.36,1,13.92,9.35,33.58,9.35s32.22-8.39,33.59-9.35a10.36,10.36,0,0,0-11.79-17,40.38,40.38,0,0,1-14.47,5.08,47.25,47.25,0,0,1-5.16.54c-.71,0-1.43.05-2.17.05s-1.4,0-2.08-.05a45.09,45.09,0,0,1-5.18-.53,40.26,40.26,0,0,1-14.54-5.1,10.36,10.36,0,0,0-11.78,17Zm1.17-11.82a5.8,5.8,0,0,1,8.07-1.44,42.69,42.69,0,0,0,14.39,5.46,50,50,0,0,0,9.95,1h.06a50,50,0,0,0,10-1,43.24,43.24,0,0,0,14.32-5.44,5.8,5.8,0,0,1,6.63,9.52c-.5.35-12.4,8.53-31,8.53s-30.47-8.18-31-8.53A5.81,5.81,0,0,1,163.07,209.73Z"/><path class="cls-21" d="M164.51,217.82c.5.35,12.4,8.53,31,8.53s30.48-8.18,31-8.53a5.8,5.8,0,0,0-6.63-9.52,43.24,43.24,0,0,1-14.32,5.44,7.63,7.63,0,0,1,.15,1.53c0,3.48-2.27,6.3-5.07,6.3s-5.07-2.82-5.07-6.3c0,3.48-2.27,6.3-5.07,6.3s-5.07-2.82-5.07-6.3a7.54,7.54,0,0,1,.15-1.52,42.69,42.69,0,0,1-14.39-5.46,5.8,5.8,0,0,0-6.63,9.53Z"/><path class="cls-21" d="M195.5,214.74c0,.17,0,.35,0,.53,0-.18,0-.36,0-.53Z"/><path class="cls-22" d="M195.52,215.27c0,3.48,2.27,6.3,5.07,6.3s5.07-2.82,5.07-6.3a7.63,7.63,0,0,0-.15-1.53,50,50,0,0,1-10,1C195.53,214.91,195.52,215.09,195.52,215.27Z"/><path class="cls-22" d="M185.38,215.27c0,3.48,2.27,6.3,5.07,6.3s5.07-2.82,5.07-6.3c0-.18,0-.36,0-.53h0a50,50,0,0,1-9.95-1A7.54,7.54,0,0,0,185.38,215.27Z"/><ellipse class="cls-23" cx="219.91" cy="165.4" rx="19.55" ry="28.94"/><ellipse class="cls-24" cx="210.04" cy="167.88" rx="10.06" ry="14.89"/><circle class="cls-25" cx="214.17" cy="162.42" r="3.86"/><ellipse class="cls-23" cx="167.71" cy="163.88" rx="19.55" ry="28.94"/><ellipse class="cls-24" cx="157.21" cy="167.88" rx="10.06" ry="14.89"/><circle class="cls-25" cx="161.06" cy="162.42" r="3.86"/><path class="cls-25" d="M377.87,161.68l-7.49,23c-13,5.76-23.92-6.27-24.39-6.8a1.38,1.38,0,0,0-2.07,1.84c.08.11,5.93,6.58,14.34,8.64l0,.1a9.31,9.31,0,0,1-5.46,5.46,9.66,9.66,0,0,1-8-.49c-6.26-3.36-11.76-8.77-16.34-16.11a13.31,13.31,0,0,1,2.35-16.83l.74-.68A49.09,49.09,0,0,0,335.66,170a1.4,1.4,0,0,0,1.21.69,1.32,1.32,0,0,0,.69-.18,1.39,1.39,0,0,0,.51-1.9c-.08-.14-8.14-14.31-4.37-26.34,1.73-5.54,5.76-9.83,12-12.77a72.41,72.41,0,0,0,16.73-12.24,7.89,7.89,0,0,1,7.72-2c4.06,1.27,5.17,5.33,3.3,12.14,0,.12-2.87,10.92-22.94,16.61a1.39,1.39,0,0,0,.76,2.68,62.48,62.48,0,0,0,7.39-2.59c1.41,4.34,4.89,18-5,24a1.39,1.39,0,0,0-.46,1.91,1.36,1.36,0,0,0,1.18.66,1.33,1.33,0,0,0,.72-.2c11.8-7.17,7.58-23,6.07-27.5a33.67,33.67,0,0,0,11.59-8.81Z"/><path class="cls-26" d="M332.28,157.27l-2,1.83a15.45,15.45,0,0,0-2.54,19.78c3.52,5.48,8.73,11.61,15.94,15.6,6.14,3.39,14.05.57,16.06-6.15q.11-.33.18-.66"/><path class="cls-26" d="M345,178.86s12.19,13.76,26.56,6.88l7.79-24-5.8-31.11"/><polygon class="cls-27" points="342.16 66.84 368.17 228.18 506.98 206.71 480.46 44.74 342.16 66.84"/><path class="cls-25" d="M374.78,127.78s-1.9,8.28-15.34,14.5c0,0,7.7,18.8-4.68,26.78l-17.92.21c-.73-1.3-16.29-29.45,8.24-41a71.21,71.21,0,0,0,16.37-12,9.28,9.28,0,0,1,9.08-2.26C374.12,115.12,377.35,118.49,374.78,127.78Z"/><path class="cls-26" d="M336.87,169.32s-16.91-29.22,8.21-41a72.14,72.14,0,0,0,16.38-12,9.24,9.24,0,0,1,9.08-2.27c3.58,1.11,6.8,4.48,4.24,13.78,0,0-2.66,11.59-23.91,17.63"/><path class="cls-26" d="M359.44,142.28s7.85,19.19-5.07,27"/><path class="cls-25" d="M71.25,164.86C69,176.73,62.45,183.46,57.31,187a8.78,8.78,0,0,1-11.26-1.12L45,184.79a27.27,27.27,0,0,0,11.48-10.24,1.33,1.33,0,0,0-2.29-1.35c-4,6.78-11.32,9.75-13.4,10.48L28,175.14a10,10,0,0,0,5.8-6.71c.47-2,.55-5.54-3.42-8.44a14.24,14.24,0,0,0,4.56-5.67,12.33,12.33,0,0,0,4.84-2.5c.87,3.26,3.07,9,8.16,11.78a1.22,1.22,0,0,0,.63.17,1.35,1.35,0,0,0,1.3-1.65,1.4,1.4,0,0,0-.66-.85c-5.07-2.76-6.78-9.52-7.2-11.59a27.6,27.6,0,0,0,2.55-3.32c2.16-3.25,3.78-7.36,3.78-9.58a1.33,1.33,0,1,0-2.66,0c0,1.49-1.34,5.11-3.33,8.11a26.26,26.26,0,0,1-2.63,3.37l-.08.08c-4.57,4.76-8.25,3.57-9.41,3a7.17,7.17,0,0,1-3.8-6.9c.78-12.42,13.07-20.61,17.93-20.61h0C55,123.23,60.51,133.6,62,142.67c1.54,9.56-1.09,19.32-1.12,19.42a1,1,0,0,0,0,.25,1.32,1.32,0,0,0,1,1.38,1.48,1.48,0,0,0,.35.05,1.34,1.34,0,0,0,1.29-1A55.57,55.57,0,0,0,65,153.16l2.22,1.58A10.18,10.18,0,0,1,71.25,164.86Z"/><path class="cls-28" d="M25.05,174.79l15.51,10.36s9.72-2.78,14.74-11.27"/><path class="cls-28" d="M42.68,184.37l2.42,2.46a10.13,10.13,0,0,0,13,1.28c5.48-3.79,12.22-10.79,14.49-23A11.48,11.48,0,0,0,68,153.66l-4.2-3"/><polygon class="cls-29" points="42.71 220.51 39.55 213.06 20 213.06 16.44 220.51 23.21 237.5 35.93 237.5 42.71 220.51"/><polygon class="cls-30" points="35.93 237.5 23.21 237.5 29.57 253.45 35.93 237.5"/><path class="cls-31" d="M34.73,42.58V215.36a5.16,5.16,0,0,1-10.32,0V42.58Z"/><path class="cls-32" d="M42.71,9.87V19.94H16.44V9.87a9.86,9.86,0,0,1,8-9.68A9.21,9.21,0,0,1,26.31,0h6.53a9.18,9.18,0,0,1,1.89.19A9.87,9.87,0,0,1,42.71,9.87Z"/><rect class="cls-33" x="16.44" y="19.94" width="26.27" height="5.43"/><rect class="cls-33" x="16.44" y="37.15" width="26.27" height="5.43"/><path class="cls-34" d="M24.41,42.58v170a8,8,0,0,1-8,8V42.58Z"/><rect class="cls-35" x="16.44" y="25.37" width="26.27" height="11.78"/><path class="cls-34" d="M42.71,42.58V220.51a8,8,0,0,1-8-8v-170Z"/><path class="cls-25" d="M30.78,167.82a7.46,7.46,0,0,1-4.62,5.05,16.84,16.84,0,0,1-18.36-3.7c-3.76-4.11-2.07-7.76-.25-9.95a22,22,0,0,0,12.14,3.39,32.18,32.18,0,0,0,7.07-.84l.17-.05a4.66,4.66,0,0,0,.48-.2C30.26,163.19,31.39,165.25,30.78,167.82Z"/><path class="cls-28" d="M7.32,157.5c-1.71,1.72-5.76,6.84-.5,12.57,0,0,8.06,8.74,19.83,4a8.77,8.77,0,0,0,5.42-6c.6-2.55,0-5.7-4.61-8.12"/><path class="cls-25" d="M60.84,162.09a1,1,0,0,0,0,.25l-11-.22a1.4,1.4,0,0,0-.66-.85c-5.07-2.76-6.78-9.52-7.2-11.59a27.6,27.6,0,0,0,2.55-3.32c2.16-3.25,3.78-7.36,3.78-9.58a1.33,1.33,0,1,0-2.66,0c0,1.49-1.34,5.11-3.33,8.11a26.26,26.26,0,0,1-2.63,3.37l-.08.08c-4.57,4.76-8.25,3.57-9.41,3a7.17,7.17,0,0,1-3.8-6.9c.78-12.42,13.07-20.61,17.93-20.61h0C55,123.23,60.51,133.6,62,142.67,63.5,152.23,60.87,162,60.84,162.09Z"/><path class="cls-28" d="M62.12,162.44s2.76-10,1.16-20c-1.65-10.29-7.82-20.58-19-19.95-5.53,0-18.37,8.59-19.21,21.84a8.52,8.52,0,0,0,4.54,8.19c3.19,1.58,8.53,1.07,13.82-6.91,2.06-3.11,3.55-7,3.55-8.84"/><path class="cls-28" d="M40.56,149.25s1.31,9.55,8,13.19"/><path class="cls-25" d="M31.42,154.51a12.23,12.23,0,0,1-5.35,4.69c-8.61,1.93-14.3-.14-17.8-2.61l0,0A1.25,1.25,0,0,0,8,156.4a15.49,15.49,0,0,1-4.39-4.84c-2.85-5.78,1.44-9.78,3.4-11.22a20.64,20.64,0,0,0,15.85,6.83l.7,0a9.5,9.5,0,0,0,5.05,6.56A8,8,0,0,0,31.42,154.51Z"/><path class="cls-25" d="M27.88,131.76a24.63,24.63,0,0,0-4.54,12.5v.25A18.11,18.11,0,0,1,8.4,138a0,0,0,0,1,0,0,1.18,1.18,0,0,0-.3-.33,18.35,18.35,0,0,1-2.71-4.68,7.34,7.34,0,0,1,.8-5.88c1.91-3.06,5.91-4.7,8.05-5.38l.3,2.72-1.64,3.13,2.12.06C22.4,127.83,26.06,129.85,27.88,131.76Z"/><path class="cls-28" d="M29.57,131.71c-1.75-2.38-5.69-5.16-14.52-5.45l.85-1.61L15.38,120s-13.87,3-11.27,13.35c0,0,4.67,13.59,20.59,12.47"/><path class="cls-28" d="M7.23,138.6s-9,5.12-4.8,13.55c0,0,6.24,12.37,24,8.32a13.19,13.19,0,0,0,7.09-7.33"/></g></g></svg>