<svg xmlns="http://www.w3.org/2000/svg" viewBox="0 0 153.41 185.02"><defs><style>.cls-1,.cls-17,.cls-9{fill:#441216;}.cls-1,.cls-10,.cls-11,.cls-12,.cls-13,.cls-15,.cls-16,.cls-17,.cls-18,.cls-19,.cls-2,.cls-20,.cls-21,.cls-22,.cls-3,.cls-4,.cls-5,.cls-6,.cls-9{stroke:#000;}.cls-1,.cls-10,.cls-11,.cls-12,.cls-13,.cls-15,.cls-16,.cls-17,.cls-18,.cls-19,.cls-2,.cls-20,.cls-21,.cls-3,.cls-4,.cls-5,.cls-6,.cls-9{stroke-miterlimit:10;}.cls-1{stroke-width:0.77px;}.cls-2{fill:#82000a;}.cls-17,.cls-2,.cls-5{stroke-width:1.17px;}.cls-10,.cls-11,.cls-14,.cls-18,.cls-20,.cls-21,.cls-22,.cls-3{fill:#fff;}.cls-3,.cls-4{stroke-width:0.61px;}.cls-13,.cls-19,.cls-23,.cls-4,.cls-6{fill:none;}.cls-5{fill:#c1272d;}.cls-13,.cls-19,.cls-22,.cls-23,.cls-6{stroke-linecap:round;}.cls-6{stroke-width:2.03px;}.cls-7{fill:#e5e5e5;}.cls-8{fill:#004f27;}.cls-9{stroke-width:0.71px;}.cls-10{stroke-width:1.8px;}.cls-11{stroke-width:0.83px;}.cls-12{stroke-width:0.1px;}.cls-13{stroke-width:1.65px;}.cls-15{fill:#d85067;stroke-width:0.36px;}.cls-16{stroke-width:0.07px;}.cls-18,.cls-19{stroke-width:0.71px;}.cls-20{stroke-width:0.73px;}.cls-21,.cls-22{stroke-width:0.76px;}.cls-22,.cls-23{stroke-linejoin:round;}.cls-23{stroke:#ee3976;stroke-width:8px;}.cls-24{fill:#fcee21;}</style></defs><title>nivel3</title><g id="Layer_2" data-name="Layer 2"><g id="Contraportada_GUIA_1" data-name="Contraportada GUIA 1"><path class="cls-1" d="M11.82,125.43A16.25,16.25,0,0,1,.7,113.63a14.73,14.73,0,0,1,.75-8.47,17.87,17.87,0,0,1,2.24-4c3.85-5.22,10.66-7.86,17.77-6.89a3.39,3.39,0,0,1-.92,6.72c-4.65-.63-9,1-11.39,4.19a9,9,0,0,0-1.81,7.1c.74,3.5,3.89,6.3,8,7.13A3.39,3.39,0,1,1,14.05,126,19.68,19.68,0,0,1,11.82,125.43Z"/><rect class="cls-2" x="29.79" y="57.13" width="71.17" height="96.65" transform="translate(9.1 -5.13) rotate(4.83)"/><rect class="cls-3" x="79.69" y="59.04" width="19.5" height="96.65" transform="translate(9.35 -7.14) rotate(4.83)"/><line class="cls-4" x1="87.14" y1="58.82" x2="79.01" y2="155.11"/><line class="cls-4" x1="90.51" y1="58.96" x2="82.36" y2="155.52"/><line class="cls-4" x1="93.87" y1="59.24" x2="85.72" y2="155.8"/><line class="cls-4" x1="97.21" y1="59.7" x2="89.08" y2="155.98"/><line class="cls-4" x1="100.57" y1="59.98" x2="92.44" y2="156.27"/><rect class="cls-5" x="20.22" y="56.45" width="71.17" height="96.65" transform="translate(9.01 -4.32) rotate(4.83)"/><path class="cls-6" d="M28.12,61.31s-18.27-1.55-5.62,5.4"/><path class="cls-6" d="M26.52,80.26S8.25,78.72,20.9,85.67"/><path class="cls-6" d="M24.92,99.22s-18.27-1.54-5.62,5.41"/><path class="cls-6" d="M23.32,118.18s-18.27-1.54-5.62,5.41"/><path class="cls-6" d="M21.72,137.14s-18.28-1.54-5.62,5.41"/><path d="M51.48,161.84c-.48-5.94-3.54-10.37-7-10.09A4.79,4.79,0,0,0,41,154.19a10,10,0,0,0-5.36-1.55,9.17,9.17,0,0,0-1.49.1,7.05,7.05,0,0,0-7.8,2l-1.15,1.32a21.44,21.44,0,0,1-3.37,3.11c-2,1.47-6.39,5.76-5.23,13.83.06.46,1.5,11.4,8.47,12h0a14.47,14.47,0,0,0,3.17-.43c.23,0,.45,0,.68,0A9,9,0,0,0,35.72,182a10.35,10.35,0,0,0,2.52-7.62,14.21,14.21,0,0,0,4-3.5,5,5,0,0,0,3.68,2h.34C49.67,172.64,52,167.77,51.48,161.84ZM25.1,184.14c-6.25-.58-7.64-11.15-7.65-11.26-1.06-7.34,2.6-11.3,4.88-13a22.3,22.3,0,0,0,3.51-3.24L27,155.32a6.19,6.19,0,0,1,5.3-2.12,10.55,10.55,0,0,0-6.07,5.69c-3.84,1.69-6.66,6.63-6.72,12.47s2.8,11.06,6.74,12.7A11.14,11.14,0,0,1,25.1,184.14ZM46.18,172c-2.27.19-4.54-2.48-5.54-6.49a.45.45,0,0,0-.55-.33.45.45,0,0,0-.33.55,13.87,13.87,0,0,0,1.92,4.46,14.16,14.16,0,0,1-3.49,3.24A9.57,9.57,0,0,0,33,165.61a.6.6,0,0,0-.82.26.62.62,0,0,0,.26.82A8.42,8.42,0,0,1,37,174.05c.14,3-.61,5.52-2.17,7.14a7.79,7.79,0,0,1-5.9,2.22c-4.6,0-8.3-5.44-8.24-12s3.86-11.93,8.47-11.89a.6.6,0,0,0,.61-.6.61.61,0,0,0-.6-.61,7.53,7.53,0,0,0-1.35.12,9,9,0,0,1,7.77-4.54,8.87,8.87,0,0,1,4.8,1.41A14.1,14.1,0,0,0,39.27,160a.47.47,0,0,0,.42.49.45.45,0,0,0,.49-.42c.31-4.18,2.12-7.23,4.42-7.42,2.85-.23,5.54,3.92,6,9.25S49,171.78,46.18,172Z"/><path class="cls-7" d="M26.24,184.06a11.14,11.14,0,0,1-1.14.08c-6.25-.58-7.64-11.15-7.65-11.26-1.06-7.34,2.6-11.3,4.88-13a22.3,22.3,0,0,0,3.51-3.24L27,155.32a6.19,6.19,0,0,1,5.3-2.12,10.55,10.55,0,0,0-6.07,5.69c-3.84,1.69-6.66,6.63-6.72,12.47S22.3,182.42,26.24,184.06Z"/><path class="cls-8" d="M46.18,172c-2.27.19-4.54-2.48-5.54-6.49a.45.45,0,0,0-.55-.33.45.45,0,0,0-.33.55,13.87,13.87,0,0,0,1.92,4.46,14.16,14.16,0,0,1-3.49,3.24A9.57,9.57,0,0,0,33,165.61a.6.6,0,0,0-.82.26.62.62,0,0,0,.26.82A8.42,8.42,0,0,1,37,174.05c.14,3-.61,5.52-2.17,7.14a7.79,7.79,0,0,1-5.9,2.22c-4.6,0-8.3-5.44-8.24-12s3.86-11.93,8.47-11.89a.6.6,0,0,0,.61-.6.61.61,0,0,0-.6-.61,7.53,7.53,0,0,0-1.35.12,9,9,0,0,1,7.77-4.54,8.87,8.87,0,0,1,4.8,1.41A14.1,14.1,0,0,0,39.27,160a.47.47,0,0,0,.42.49.45.45,0,0,0,.49-.42c.31-4.18,2.12-7.23,4.42-7.42,2.85-.23,5.54,3.92,6,9.25S49,171.78,46.18,172Z"/><path class="cls-9" d="M60.85,153.48,66,149a18.63,18.63,0,0,1,13.23-4.49c2.46.14,5.26.35,8.6.69a4.09,4.09,0,0,1,3.88,4.12v.14a6.35,6.35,0,0,1-1.37,3.71c-4.88,6.17-18.07,9.65-36.77,11.34a4.41,4.41,0,0,1-4.8-4h0a4.4,4.4,0,0,1,4.16-4.78c15.87-.84,22.69-4.11,28.45-7.73C74,151.53,66.78,154.38,60.85,153.48Z"/><path class="cls-9" d="M42.87,151.85l-4.3-5.27a18.66,18.66,0,0,0-12.25-6.74c-2.45-.29-5.24-.57-8.58-.82a4.09,4.09,0,0,0-4.55,3.38.59.59,0,0,0,0,.13,6.36,6.36,0,0,0,.7,3.9C17.59,153.36,30,159.09,48.09,164a4.41,4.41,0,0,0,5.43-3.11h0a4.42,4.42,0,0,0-3.27-5.43c-15.48-3.61-21.62-8-26.66-12.58C30.28,147.64,36.87,151.71,42.87,151.85Z"/><path d="M75.14,158.56A22.08,22.08,0,0,1,72,155.23l-1-1.38a7.06,7.06,0,0,0-7.66-2.5,9.08,9.08,0,0,0-1.48-.19,9.9,9.9,0,0,0-5.45,1.21,4.77,4.77,0,0,0-3.38-2.66c-3.39-.5-6.72,3.73-7.58,9.62s1.12,10.9,4.51,11.39l.34,0A5,5,0,0,0,54,169a14,14,0,0,0,3.75,3.75,10.35,10.35,0,0,0,2,7.76,9,9,0,0,0,6.6,3c.23,0,.46,0,.68,0a14,14,0,0,0,3.14.63h0c7-.18,9.13-11,9.22-11.45C81.15,164.7,77,160.15,75.14,158.56ZM66.47,182.3a7.86,7.86,0,0,1-5.74-2.59c-1.46-1.73-2.06-4.24-1.72-7.28a8.45,8.45,0,0,1,5-7.05.61.61,0,0,0,.32-.8.6.6,0,0,0-.8-.31,9.58,9.58,0,0,0-5.67,7.48,14.34,14.34,0,0,1-3.28-3.45A13.63,13.63,0,0,0,56.8,164a.45.45,0,1,0-.86-.28c-1.25,3.94-3.69,6.46-5.94,6.13-2.84-.41-4.52-5.06-3.75-10.35s3.72-9.28,6.56-8.86c2.27.33,3.89,3.49,3.93,7.68a.45.45,0,0,0,.46.45.46.46,0,0,0,.45-.46,13.89,13.89,0,0,0-.83-4.81,8.83,8.83,0,0,1,4.88-1.1,9,9,0,0,1,7.46,5,6.57,6.57,0,0,0-1.33-.2.61.61,0,0,0-.64.57.61.61,0,0,0,.57.64c4.6.25,8,5.81,7.69,12.4S71.06,182.55,66.47,182.3Zm12.15-9.78c0,.1-2.08,10.56-8.36,10.75-.09,0-.53-.05-1.13-.16,4-1.39,7.21-6.28,7.53-12.25S74.48,159.92,70.75,158a10.57,10.57,0,0,0-5.7-6.07,6.25,6.25,0,0,1,5.17,2.45l1,1.38a21.88,21.88,0,0,0,3.3,3.46C76.73,161.07,80.14,165.25,78.62,172.52Z"/><path class="cls-7" d="M78.62,172.52c0,.1-2.08,10.56-8.36,10.75-.09,0-.53-.05-1.13-.16,4-1.39,7.21-6.28,7.53-12.25S74.48,159.92,70.75,158a10.57,10.57,0,0,0-5.7-6.07,6.25,6.25,0,0,1,5.17,2.45l1,1.38a21.88,21.88,0,0,0,3.3,3.46C76.73,161.07,80.14,165.25,78.62,172.52Z"/><path class="cls-8" d="M75.45,170.8c-.35,6.59-4.39,11.75-9,11.5a7.86,7.86,0,0,1-5.74-2.59c-1.46-1.73-2.06-4.24-1.72-7.28a8.45,8.45,0,0,1,5-7.05.61.61,0,0,0,.32-.8.6.6,0,0,0-.8-.31,9.58,9.58,0,0,0-5.67,7.48,14.34,14.34,0,0,1-3.28-3.45A13.63,13.63,0,0,0,56.8,164a.45.45,0,1,0-.86-.28c-1.25,3.94-3.69,6.46-5.94,6.13-2.84-.41-4.52-5.06-3.75-10.35s3.72-9.28,6.56-8.86c2.27.33,3.89,3.49,3.93,7.68a.45.45,0,0,0,.46.45.46.46,0,0,0,.45-.46,13.89,13.89,0,0,0-.83-4.81,8.83,8.83,0,0,1,4.88-1.1,9,9,0,0,1,7.46,5,6.57,6.57,0,0,0-1.33-.2.61.61,0,0,0-.64.57.61.61,0,0,0,.57.64C72.36,158.65,75.81,164.21,75.45,170.8Z"/><path class="cls-10" d="M48.09,164a4.41,4.41,0,0,0,5.43-3.11h0a4.42,4.42,0,0,0-3.27-5.43l-5.06-1.3c.46,3.67-.32,6.46-2.44,8.32Z"/><ellipse class="cls-11" cx="45.13" cy="97.67" rx="14.5" ry="9.79" transform="translate(-58.47 126.68) rotate(-80.84)"/><ellipse class="cls-11" cx="71.06" cy="101.07" rx="14.5" ry="9.79" transform="translate(-40.03 155.14) rotate(-80.84)"/><ellipse class="cls-12" cx="66.37" cy="100.32" rx="7.46" ry="5.04" transform="translate(-43.23 149.87) rotate(-80.84)"/><ellipse class="cls-12" cx="40.74" cy="96.19" rx="7.46" ry="5.04" transform="translate(-60.71 121.1) rotate(-80.84)"/><path class="cls-13" d="M41.34,77.44s6-4.53,10.1,1.62"/><path class="cls-13" d="M69.3,81.94s6-4.53,10.1,1.63"/><circle class="cls-14" cx="39.38" cy="93.09" r="1.51"/><circle class="cls-14" cx="65.3" cy="97.27" r="1.51"/><path class="cls-15" d="M48.73,123.22a3,3,0,0,0-2.46,1.58A3.07,3.07,0,0,0,47.48,129a24.84,24.84,0,0,0,26.94-2,3.06,3.06,0,0,0-3.7-4.88,18.7,18.7,0,0,1-20.29,1.48A3,3,0,0,0,48.73,123.22Z"/><path class="cls-16" d="M72.49,123.53a1,1,0,0,0-.54.2,20.74,20.74,0,0,1-22.5,1.64,1,1,0,0,0-1.4.41,1,1,0,0,0,.41,1.39,22.8,22.8,0,0,0,24.73-1.8,1,1,0,0,0,.2-1.44A1,1,0,0,0,72.49,123.53Z"/><path class="cls-17" d="M97.07,113l-.79,7.65A36.46,36.46,0,0,0,109.36,119,51.67,51.67,0,0,0,122,113.3a63,63,0,0,0,12.23-10l-5.52-5.53c-6.43,6.77-13.58,11.38-21.27,13.72A30.42,30.42,0,0,1,97.07,113Z"/><path class="cls-18" d="M127.49,97.12c-1.13,2,.46,5,3.55,6.76s6.51,1.62,7.63-.35-.46-5-3.54-6.77S128.62,95.15,127.49,97.12Z"/><path class="cls-18" d="M133.93,100.93s-4.19,1.19-4.93-4.54c0,0-4.55-2.7-4.56-6.8,0-3.9,2-5,3.25-4.2,1.1.69,1.31,4.28,3.8,5.48,0,0,3.83-2.76,3.5-6.92s.32-7.46,3.46-7.08,3.22,8.19.81,11.86a5.87,5.87,0,0,1,2.07,1.2,12.47,12.47,0,0,0,3.29-6,2.82,2.82,0,1,1,5.6.71c-.26,4-2,7-5.27,8.43l.49,1.18a7.32,7.32,0,0,0,4.7-1.4c2.31-1.68,4.5,2.54,1.31,5.25s-8.06.89-8.06.89S139,106.92,133.93,100.93Z"/><path class="cls-19" d="M137.66,95.34s0,5.25-3.73,5.59"/><ellipse class="cls-20" cx="14.02" cy="130.28" rx="1.31" ry="2.24" transform="translate(-93.96 56.05) rotate(-49.35)"/><path class="cls-21" d="M17.43,118.37h0a1.57,1.57,0,0,0-2-.73l0,0A8.83,8.83,0,0,0,10,124.37l0,.09a1.85,1.85,0,0,0,1.18,2h0a1.22,1.22,0,0,0,1.24-.21l3.27-2.79a6.51,6.51,0,0,0,2-3h0A2.79,2.79,0,0,0,17.43,118.37Z"/><path class="cls-22" d="M16,120.88h0a6.35,6.35,0,0,1,7.5,2.1,9.52,9.52,0,0,1,1.12,2,11.71,11.71,0,0,1,.47,1.5,6.69,6.69,0,0,1-.94,5.29h0a.65.65,0,0,1-1.16-.15l-.84-2.44"/><ellipse class="cls-14" cx="18.56" cy="126.67" rx="4.41" ry="5.67" transform="translate(-56.38 22.88) rotate(-27.49)"/><path class="cls-22" d="M22.88,128.45a6.27,6.27,0,0,1,.59,2.61,3.93,3.93,0,0,1-2,3.4,4,4,0,0,1-.6.26,2,2,0,0,1-2.18-.67h0"/><path class="cls-22" d="M19.71,130.1a8,8,0,0,1-.2,3.75,2.72,2.72,0,0,1-.94,1.52,3.81,3.81,0,0,1-3.47.71l-.33-.1a5.52,5.52,0,0,1-2.26-1.52l-1.58-1.74a1.67,1.67,0,0,1-.14-2.14l0-.05a1.12,1.12,0,0,1,1.45-.24l2.26,1.39a.14.14,0,0,0,.18-.2l-1-1.41a5.32,5.32,0,0,1-.56-5.38c.19-.42.4-.85.59-1.27"/><path class="cls-23" d="M13.11,26.06a3.35,3.35,0,0,1-1.89-.41,1.6,1.6,0,0,1-.69-1,7.06,7.06,0,0,1-.11-1.32l0-15.57a6.41,6.41,0,0,1,.12-1.26,1.54,1.54,0,0,1,.71-1,3.64,3.64,0,0,1,1.94-.39A3.37,3.37,0,0,1,15,5.43a3.83,3.83,0,0,1,.87.84l7.48,10.09,0-8.61a5.57,5.57,0,0,1,.14-1.25,1.6,1.6,0,0,1,.7-1,3.55,3.55,0,0,1,1.93-.39,3.39,3.39,0,0,1,1.93.41,1.63,1.63,0,0,1,.67,1,7,7,0,0,1,.12,1.32l0,15.48a6.88,6.88,0,0,1-.13,1.29,1.6,1.6,0,0,1-.69,1,3.5,3.5,0,0,1-1.95.4,5.4,5.4,0,0,1-1.54-.17,1.75,1.75,0,0,1-.89-.64L15.89,15v8.34a6.88,6.88,0,0,1-.13,1.29,1.6,1.6,0,0,1-.69,1A3.5,3.5,0,0,1,13.11,26.06Z"/><path class="cls-23" d="M35.31,26.11a3.42,3.42,0,0,1-1.92-.41,1.56,1.56,0,0,1-.67-1,7.84,7.84,0,0,1-.1-1.29l0-9.78a6.59,6.59,0,0,1,.12-1.27,1.61,1.61,0,0,1,.69-1,3.43,3.43,0,0,1,1.92-.4,3.36,3.36,0,0,1,1.91.41,1.63,1.63,0,0,1,.67,1,7,7,0,0,1,.12,1.32l0,9.75a6.88,6.88,0,0,1-.13,1.29,1.54,1.54,0,0,1-.67,1A3.54,3.54,0,0,1,35.31,26.11Zm0-16.68A3.42,3.42,0,0,1,33.43,9a1.57,1.57,0,0,1-.68-1,7.84,7.84,0,0,1-.1-1.29,6.75,6.75,0,0,1,.12-1.3,1.56,1.56,0,0,1,.7-1A3.53,3.53,0,0,1,35.39,4a3.32,3.32,0,0,1,1.9.41,1.59,1.59,0,0,1,.67,1A7,7,0,0,1,38,8a1.54,1.54,0,0,1-.68,1A3.5,3.5,0,0,1,35.35,9.43Z"/><path class="cls-23" d="M49.62,26.29A3,3,0,0,1,48.17,26a2.22,2.22,0,0,1-1-1L41.93,14.84a3.1,3.1,0,0,1-.41-2.16,2.68,2.68,0,0,1,1.62-1.52,3.43,3.43,0,0,1,2.22-.48q.81.21,1.47,1.71l2.81,6.43,2.83-6.41q.69-1.56,1.5-1.74a3.52,3.52,0,0,1,2.19.51c.94.47,1.48,1,1.62,1.58a3.1,3.1,0,0,1-.43,2.12L52,25a2.21,2.21,0,0,1-.93,1A3,3,0,0,1,49.62,26.29Z"/><path class="cls-23" d="M68.82,26.51A8.89,8.89,0,0,1,65,25.77a7.06,7.06,0,0,1-2.52-1.93,8.07,8.07,0,0,1-1.4-2.57,8.57,8.57,0,0,1-.44-2.67,8.06,8.06,0,0,1,1.05-4.16,7.54,7.54,0,0,1,2.92-2.82,8.82,8.82,0,0,1,4.26-1,7.64,7.64,0,0,1,3.18.61,6.21,6.21,0,0,1,3.35,3.51,5.72,5.72,0,0,1,.39,2,3.6,3.6,0,0,1-.85,2.6,2.82,2.82,0,0,1-2.16.9H66.4a1.64,1.64,0,0,0,.5.82,2.61,2.61,0,0,0,.94.54,3.78,3.78,0,0,0,1.23.2,8.17,8.17,0,0,0,1.17-.07,6,6,0,0,0,.89-.19l.69-.24.57-.2a1.71,1.71,0,0,1,.49-.07,1.55,1.55,0,0,1,1,.36,3.18,3.18,0,0,1,.81,1.08,3.38,3.38,0,0,1,.3.74,2.53,2.53,0,0,1,.09.64,1.89,1.89,0,0,1-.74,1.5,5,5,0,0,1-2.12.91A15.54,15.54,0,0,1,68.82,26.51Zm-2.41-9.15h3.36a.87.87,0,0,0,.61-.18.7.7,0,0,0,.2-.54,1,1,0,0,0-.22-.66,1.36,1.36,0,0,0-.62-.4,2.84,2.84,0,0,0-.93-.14,2.66,2.66,0,0,0-1.26.28,2.15,2.15,0,0,0-.82.72A1.79,1.79,0,0,0,66.41,17.36Z"/><path class="cls-23" d="M85.38,26.22A23.33,23.33,0,0,1,83,26.09a5.24,5.24,0,0,1-1.76-.48,3,3,0,0,1-1.17-1,4.82,4.82,0,0,1-.65-1.77,15,15,0,0,1-.21-2.75l0-13.29a6.75,6.75,0,0,1,.12-1.3,1.62,1.62,0,0,1,.7-1A3.43,3.43,0,0,1,82,4a3.32,3.32,0,0,1,1.9.41,1.61,1.61,0,0,1,.67,1,7,7,0,0,1,.12,1.32l0,12.93c0,.3,0,.54,0,.71a.8.8,0,0,0,.09.37A.28.28,0,0,0,85,21l.46,0a3.54,3.54,0,0,1,.83.1,1.2,1.2,0,0,1,.74.63,3.81,3.81,0,0,1,.32,1.82A4.37,4.37,0,0,1,87,25.44a1.23,1.23,0,0,1-.77.67A3.73,3.73,0,0,1,85.38,26.22Z"/><path class="cls-23" d="M106.71,26.62a8.74,8.74,0,0,1-5.62-2,7,7,0,0,1-1.75-2.16,5.46,5.46,0,0,1-.63-2.54c0-1.26,1-1.88,3-1.88a4.09,4.09,0,0,1,1.27.15,1.37,1.37,0,0,1,.7.53,5,5,0,0,1,.54,1.07,3,3,0,0,0,.93,1.12,2.78,2.78,0,0,0,1.59.38,4,4,0,0,0,1.38-.21,1.91,1.91,0,0,0,.89-.59,1.39,1.39,0,0,0,.31-.9,1.64,1.64,0,0,0-.29-1,1.8,1.8,0,0,0-.81-.58,3.61,3.61,0,0,0-1.2-.18,9.11,9.11,0,0,1-1.29-.09,1.54,1.54,0,0,1-1-.63,3.27,3.27,0,0,1-.4-1.89,3.35,3.35,0,0,1,.41-1.91,1.5,1.5,0,0,1,1.05-.6c.43,0,.87-.07,1.31-.07a5.64,5.64,0,0,0,1-.07,1.15,1.15,0,0,0,.62-.28.81.81,0,0,0,.21-.6,1.29,1.29,0,0,0-.22-.77,1.41,1.41,0,0,0-.65-.48,2.7,2.7,0,0,0-1-.17,3,3,0,0,0-1.14.18,1.58,1.58,0,0,0-.64.46,4.27,4.27,0,0,0-.38.56A2.45,2.45,0,0,1,103.36,13a3.1,3.1,0,0,1-2.26-.47,2.8,2.8,0,0,1-1.47-1.65,3.19,3.19,0,0,1,.43-2.07,2.74,2.74,0,0,0,.16-.35,4.78,4.78,0,0,1,.62-.94A7,7,0,0,1,102,6.32a6.16,6.16,0,0,1,1.92-1A8.86,8.86,0,0,1,106.75,5a8.51,8.51,0,0,1,3.32.61,7.55,7.55,0,0,1,2.4,1.56,6.89,6.89,0,0,1,1.46,2.12,5.81,5.81,0,0,1,.49,2.3,4.21,4.21,0,0,1-.38,1.87,3.8,3.8,0,0,1-.87,1.2,4.84,4.84,0,0,1-.83.61c.18.12.41.3.69.53a4.76,4.76,0,0,1,.82.89,5.46,5.46,0,0,1,.69,1.24,4.28,4.28,0,0,1,.28,1.61,6.55,6.55,0,0,1-1,3.67,7.42,7.42,0,0,1-2.89,2.53A9.07,9.07,0,0,1,106.71,26.62Z"/><path class="cls-24" d="M13.11,26.06a3.35,3.35,0,0,1-1.89-.41,1.6,1.6,0,0,1-.69-1,7.06,7.06,0,0,1-.11-1.32l0-15.57a6.41,6.41,0,0,1,.12-1.26,1.54,1.54,0,0,1,.71-1,3.64,3.64,0,0,1,1.94-.39A3.37,3.37,0,0,1,15,5.43a3.83,3.83,0,0,1,.87.84l7.48,10.09,0-8.61a5.57,5.57,0,0,1,.14-1.25,1.6,1.6,0,0,1,.7-1,3.55,3.55,0,0,1,1.93-.39,3.39,3.39,0,0,1,1.93.41,1.63,1.63,0,0,1,.67,1,7,7,0,0,1,.12,1.32l0,15.48a6.88,6.88,0,0,1-.13,1.29,1.6,1.6,0,0,1-.69,1,3.5,3.5,0,0,1-1.95.4,5.4,5.4,0,0,1-1.54-.17,1.75,1.75,0,0,1-.89-.64L15.89,15v8.34a6.88,6.88,0,0,1-.13,1.29,1.6,1.6,0,0,1-.69,1A3.5,3.5,0,0,1,13.11,26.06Z"/><path class="cls-24" d="M35.31,26.11a3.42,3.42,0,0,1-1.92-.41,1.56,1.56,0,0,1-.67-1,7.84,7.84,0,0,1-.1-1.29l0-9.78a6.59,6.59,0,0,1,.12-1.27,1.61,1.61,0,0,1,.69-1,3.43,3.43,0,0,1,1.92-.4,3.36,3.36,0,0,1,1.91.41,1.63,1.63,0,0,1,.67,1,7,7,0,0,1,.12,1.32l0,9.75a6.88,6.88,0,0,1-.13,1.29,1.54,1.54,0,0,1-.67,1A3.54,3.54,0,0,1,35.31,26.11Zm0-16.68A3.42,3.42,0,0,1,33.43,9a1.57,1.57,0,0,1-.68-1,7.84,7.84,0,0,1-.1-1.29,6.75,6.75,0,0,1,.12-1.3,1.56,1.56,0,0,1,.7-1A3.53,3.53,0,0,1,35.39,4a3.32,3.32,0,0,1,1.9.41,1.59,1.59,0,0,1,.67,1A7,7,0,0,1,38,8a1.54,1.54,0,0,1-.68,1A3.5,3.5,0,0,1,35.35,9.43Z"/><path class="cls-24" d="M49.62,26.29A3,3,0,0,1,48.17,26a2.22,2.22,0,0,1-1-1L41.93,14.84a3.1,3.1,0,0,1-.41-2.16,2.68,2.68,0,0,1,1.62-1.52,3.43,3.43,0,0,1,2.22-.48q.81.21,1.47,1.71l2.81,6.43,2.83-6.41q.69-1.56,1.5-1.74a3.52,3.52,0,0,1,2.19.51c.94.47,1.48,1,1.62,1.58a3.1,3.1,0,0,1-.43,2.12L52,25a2.21,2.21,0,0,1-.93,1A3,3,0,0,1,49.62,26.29Z"/><path class="cls-24" d="M68.82,26.51A8.89,8.89,0,0,1,65,25.77a7.06,7.06,0,0,1-2.52-1.93,8.07,8.07,0,0,1-1.4-2.57,8.57,8.57,0,0,1-.44-2.67,8.06,8.06,0,0,1,1.05-4.16,7.54,7.54,0,0,1,2.92-2.82,8.82,8.82,0,0,1,4.26-1,7.64,7.64,0,0,1,3.18.61,6.21,6.21,0,0,1,3.35,3.51,5.72,5.72,0,0,1,.39,2,3.6,3.6,0,0,1-.85,2.6,2.82,2.82,0,0,1-2.16.9H66.4a1.64,1.64,0,0,0,.5.82,2.61,2.61,0,0,0,.94.54,3.78,3.78,0,0,0,1.23.2,8.17,8.17,0,0,0,1.17-.07,6,6,0,0,0,.89-.19l.69-.24.57-.2a1.71,1.71,0,0,1,.49-.07,1.55,1.55,0,0,1,1,.36,3.18,3.18,0,0,1,.81,1.08,3.38,3.38,0,0,1,.3.74,2.53,2.53,0,0,1,.09.64,1.89,1.89,0,0,1-.74,1.5,5,5,0,0,1-2.12.91A15.54,15.54,0,0,1,68.82,26.51Zm-2.41-9.15h3.36a.87.87,0,0,0,.61-.18.7.7,0,0,0,.2-.54,1,1,0,0,0-.22-.66,1.36,1.36,0,0,0-.62-.4,2.84,2.84,0,0,0-.93-.14,2.66,2.66,0,0,0-1.26.28,2.15,2.15,0,0,0-.82.72A1.79,1.79,0,0,0,66.41,17.36Z"/><path class="cls-24" d="M85.38,26.22A23.33,23.33,0,0,1,83,26.09a5.24,5.24,0,0,1-1.76-.48,3,3,0,0,1-1.17-1,4.82,4.82,0,0,1-.65-1.77,15,15,0,0,1-.21-2.75l0-13.29a6.75,6.75,0,0,1,.12-1.3,1.62,1.62,0,0,1,.7-1A3.43,3.43,0,0,1,82,4a3.32,3.32,0,0,1,1.9.41,1.61,1.61,0,0,1,.67,1,7,7,0,0,1,.12,1.32l0,12.93c0,.3,0,.54,0,.71a.8.8,0,0,0,.09.37A.28.28,0,0,0,85,21l.46,0a3.54,3.54,0,0,1,.83.1,1.2,1.2,0,0,1,.74.63,3.81,3.81,0,0,1,.32,1.82A4.37,4.37,0,0,1,87,25.44a1.23,1.23,0,0,1-.77.67A3.73,3.73,0,0,1,85.38,26.22Z"/><path class="cls-24" d="M106.71,26.62a8.74,8.74,0,0,1-5.62-2,7,7,0,0,1-1.75-2.16,5.46,5.46,0,0,1-.63-2.54c0-1.26,1-1.88,3-1.88a4.09,4.09,0,0,1,1.27.15,1.37,1.37,0,0,1,.7.53,5,5,0,0,1,.54,1.07,3,3,0,0,0,.93,1.12,2.78,2.78,0,0,0,1.59.38,4,4,0,0,0,1.38-.21,1.91,1.91,0,0,0,.89-.59,1.39,1.39,0,0,0,.31-.9,1.64,1.64,0,0,0-.29-1,1.8,1.8,0,0,0-.81-.58,3.61,3.61,0,0,0-1.2-.18,9.11,9.11,0,0,1-1.29-.09,1.54,1.54,0,0,1-1-.63,3.27,3.27,0,0,1-.4-1.89,3.35,3.35,0,0,1,.41-1.91,1.5,1.5,0,0,1,1.05-.6c.43,0,.87-.07,1.31-.07a5.64,5.64,0,0,0,1-.07,1.15,1.15,0,0,0,.62-.28.81.81,0,0,0,.21-.6,1.29,1.29,0,0,0-.22-.77,1.41,1.41,0,0,0-.65-.48,2.7,2.7,0,0,0-1-.17,3,3,0,0,0-1.14.18,1.58,1.58,0,0,0-.64.46,4.27,4.27,0,0,0-.38.56A2.45,2.45,0,0,1,103.36,13a3.1,3.1,0,0,1-2.26-.47,2.8,2.8,0,0,1-1.47-1.65,3.19,3.19,0,0,1,.43-2.07,2.74,2.74,0,0,0,.16-.35,4.78,4.78,0,0,1,.62-.94A7,7,0,0,1,102,6.32a6.16,6.16,0,0,1,1.92-1A8.86,8.86,0,0,1,106.75,5a8.51,8.51,0,0,1,3.32.61,7.55,7.55,0,0,1,2.4,1.56,6.89,6.89,0,0,1,1.46,2.12,5.81,5.81,0,0,1,.49,2.3,4.21,4.21,0,0,1-.38,1.87,3.8,3.8,0,0,1-.87,1.2,4.84,4.84,0,0,1-.83.61c.18.12.41.3.69.53a4.76,4.76,0,0,1,.82.89,5.46,5.46,0,0,1,.69,1.24,4.28,4.28,0,0,1,.28,1.61,6.55,6.55,0,0,1-1,3.67,7.42,7.42,0,0,1-2.89,2.53A9.07,9.07,0,0,1,106.71,26.62Z"/><path class="cls-14" d="M13.11,26.06a3.35,3.35,0,0,1-1.89-.41,1.6,1.6,0,0,1-.69-1,7.06,7.06,0,0,1-.11-1.32l0-15.57a6.41,6.41,0,0,1,.12-1.26,1.54,1.54,0,0,1,.71-1,3.64,3.64,0,0,1,1.94-.39A3.37,3.37,0,0,1,15,5.43a3.83,3.83,0,0,1,.87.84l7.48,10.09,0-8.61a5.57,5.57,0,0,1,.14-1.25,1.6,1.6,0,0,1,.7-1,3.55,3.55,0,0,1,1.93-.39,3.39,3.39,0,0,1,1.93.41,1.63,1.63,0,0,1,.67,1,7,7,0,0,1,.12,1.32l0,15.48a6.88,6.88,0,0,1-.13,1.29,1.6,1.6,0,0,1-.69,1,3.5,3.5,0,0,1-1.95.4,5.4,5.4,0,0,1-1.54-.17,1.75,1.75,0,0,1-.89-.64L15.89,15v8.34a6.88,6.88,0,0,1-.13,1.29,1.6,1.6,0,0,1-.69,1A3.5,3.5,0,0,1,13.11,26.06Z"/><path class="cls-14" d="M35.31,26.11a3.42,3.42,0,0,1-1.92-.41,1.56,1.56,0,0,1-.67-1,7.84,7.84,0,0,1-.1-1.29l0-9.78a6.59,6.59,0,0,1,.12-1.27,1.61,1.61,0,0,1,.69-1,3.43,3.43,0,0,1,1.92-.4,3.36,3.36,0,0,1,1.91.41,1.63,1.63,0,0,1,.67,1,7,7,0,0,1,.12,1.32l0,9.75a6.88,6.88,0,0,1-.13,1.29,1.54,1.54,0,0,1-.67,1A3.54,3.54,0,0,1,35.31,26.11Zm0-16.68A3.42,3.42,0,0,1,33.43,9a1.57,1.57,0,0,1-.68-1,7.84,7.84,0,0,1-.1-1.29,6.75,6.75,0,0,1,.12-1.3,1.56,1.56,0,0,1,.7-1A3.53,3.53,0,0,1,35.39,4a3.32,3.32,0,0,1,1.9.41,1.59,1.59,0,0,1,.67,1A7,7,0,0,1,38,8a1.54,1.54,0,0,1-.68,1A3.5,3.5,0,0,1,35.35,9.43Z"/><path class="cls-14" d="M49.62,26.29A3,3,0,0,1,48.17,26a2.22,2.22,0,0,1-1-1L41.93,14.84a3.1,3.1,0,0,1-.41-2.16,2.68,2.68,0,0,1,1.62-1.52,3.43,3.43,0,0,1,2.22-.48q.81.21,1.47,1.71l2.81,6.43,2.83-6.41q.69-1.56,1.5-1.74a3.52,3.52,0,0,1,2.19.51c.94.47,1.48,1,1.62,1.58a3.1,3.1,0,0,1-.43,2.12L52,25a2.21,2.21,0,0,1-.93,1A3,3,0,0,1,49.62,26.29Z"/><path class="cls-14" d="M68.82,26.51A8.89,8.89,0,0,1,65,25.77a7.06,7.06,0,0,1-2.52-1.93,8.07,8.07,0,0,1-1.4-2.57,8.57,8.57,0,0,1-.44-2.67,8.06,8.06,0,0,1,1.05-4.16,7.54,7.54,0,0,1,2.92-2.82,8.82,8.82,0,0,1,4.26-1,7.64,7.64,0,0,1,3.18.61,6.21,6.21,0,0,1,3.35,3.51,5.72,5.72,0,0,1,.39,2,3.6,3.6,0,0,1-.85,2.6,2.82,2.82,0,0,1-2.16.9H66.4a1.64,1.64,0,0,0,.5.82,2.61,2.61,0,0,0,.94.54,3.78,3.78,0,0,0,1.23.2,8.17,8.17,0,0,0,1.17-.07,6,6,0,0,0,.89-.19l.69-.24.57-.2a1.71,1.71,0,0,1,.49-.07,1.55,1.55,0,0,1,1,.36,3.18,3.18,0,0,1,.81,1.08,3.38,3.38,0,0,1,.3.74,2.53,2.53,0,0,1,.09.64,1.89,1.89,0,0,1-.74,1.5,5,5,0,0,1-2.12.91A15.54,15.54,0,0,1,68.82,26.51Zm-2.41-9.15h3.36a.87.87,0,0,0,.61-.18.7.7,0,0,0,.2-.54,1,1,0,0,0-.22-.66,1.36,1.36,0,0,0-.62-.4,2.84,2.84,0,0,0-.93-.14,2.66,2.66,0,0,0-1.26.28,2.15,2.15,0,0,0-.82.72A1.79,1.79,0,0,0,66.41,17.36Z"/><path class="cls-14" d="M85.38,26.22A23.33,23.33,0,0,1,83,26.09a5.24,5.24,0,0,1-1.76-.48,3,3,0,0,1-1.17-1,4.82,4.82,0,0,1-.65-1.77,15,15,0,0,1-.21-2.75l0-13.29a6.75,6.75,0,0,1,.12-1.3,1.62,1.62,0,0,1,.7-1A3.43,3.43,0,0,1,82,4a3.32,3.32,0,0,1,1.9.41,1.61,1.61,0,0,1,.67,1,7,7,0,0,1,.12,1.32l0,12.93c0,.3,0,.54,0,.71a.8.8,0,0,0,.09.37A.28.28,0,0,0,85,21l.46,0a3.54,3.54,0,0,1,.83.1,1.2,1.2,0,0,1,.74.63,3.81,3.81,0,0,1,.32,1.82A4.37,4.37,0,0,1,87,25.44a1.23,1.23,0,0,1-.77.67A3.73,3.73,0,0,1,85.38,26.22Z"/><path class="cls-14" d="M106.71,26.62a8.74,8.74,0,0,1-5.62-2,7,7,0,0,1-1.75-2.16,5.46,5.46,0,0,1-.63-2.54c0-1.26,1-1.88,3-1.88a4.09,4.09,0,0,1,1.27.15,1.37,1.37,0,0,1,.7.53,5,5,0,0,1,.54,1.07,3,3,0,0,0,.93,1.12,2.78,2.78,0,0,0,1.59.38,4,4,0,0,0,1.38-.21,1.91,1.91,0,0,0,.89-.59,1.39,1.39,0,0,0,.31-.9,1.64,1.64,0,0,0-.29-1,1.8,1.8,0,0,0-.81-.58,3.61,3.61,0,0,0-1.2-.18,9.11,9.11,0,0,1-1.29-.09,1.54,1.54,0,0,1-1-.63,3.27,3.27,0,0,1-.4-1.89,3.35,3.35,0,0,1,.41-1.91,1.5,1.5,0,0,1,1.05-.6c.43,0,.87-.07,1.31-.07a5.64,5.64,0,0,0,1-.07,1.15,1.15,0,0,0,.62-.28.81.81,0,0,0,.21-.6,1.29,1.29,0,0,0-.22-.77,1.41,1.41,0,0,0-.65-.48,2.7,2.7,0,0,0-1-.17,3,3,0,0,0-1.14.18,1.58,1.58,0,0,0-.64.46,4.27,4.27,0,0,0-.38.56A2.45,2.45,0,0,1,103.36,13a3.1,3.1,0,0,1-2.26-.47,2.8,2.8,0,0,1-1.47-1.65,3.19,3.19,0,0,1,.43-2.07,2.74,2.74,0,0,0,.16-.35,4.78,4.78,0,0,1,.62-.94A7,7,0,0,1,102,6.32a6.16,6.16,0,0,1,1.92-1A8.86,8.86,0,0,1,106.75,5a8.51,8.51,0,0,1,3.32.61,7.55,7.55,0,0,1,2.4,1.56,6.89,6.89,0,0,1,1.46,2.12,5.81,5.81,0,0,1,.49,2.3,4.21,4.21,0,0,1-.38,1.87,3.8,3.8,0,0,1-.87,1.2,4.84,4.84,0,0,1-.83.61c.18.12.41.3.69.53a4.76,4.76,0,0,1,.82.89,5.46,5.46,0,0,1,.69,1.24,4.28,4.28,0,0,1,.28,1.61,6.55,6.55,0,0,1-1,3.67,7.42,7.42,0,0,1-2.89,2.53A9.07,9.07,0,0,1,106.71,26.62Z"/></g></g></svg>