<svg xmlns="http://www.w3.org/2000/svg" viewBox="0 0 128.98 228.56"><defs><style>.cls-1,.cls-10,.cls-12,.cls-13,.cls-21,.cls-22,.cls-23,.cls-24,.cls-25{fill:none;}.cls-1{stroke:#d80000;stroke-width:8px;}.cls-1,.cls-12,.cls-19,.cls-25,.cls-8,.cls-9{stroke-linecap:round;}.cls-1,.cls-19,.cls-8,.cls-9{stroke-linejoin:round;}.cls-2{fill:#fcee21;}.cls-11,.cls-3,.cls-7{fill:#fff;}.cls-4{fill:#e5e5e5;}.cls-5{fill:#760dc9;}.cls-6{fill:#d7840b;}.cls-10,.cls-11,.cls-12,.cls-13,.cls-15,.cls-16,.cls-19,.cls-20,.cls-22,.cls-24,.cls-25,.cls-26,.cls-27,.cls-28,.cls-7,.cls-8,.cls-9{stroke:#000;}.cls-10,.cls-11,.cls-12,.cls-13,.cls-15,.cls-16,.cls-20,.cls-22,.cls-23,.cls-24,.cls-25,.cls-26,.cls-27,.cls-28,.cls-7{stroke-miterlimit:10;}.cls-15,.cls-16,.cls-24,.cls-25,.cls-7,.cls-8,.cls-9{stroke-width:1.56px;}.cls-18,.cls-8{fill:#f9b233;}.cls-17,.cls-9{fill:#d88500;}.cls-10{stroke-width:0.99px;}.cls-11,.cls-12,.cls-13,.cls-20{stroke-width:0.78px;}.cls-14{fill:#fbccac;}.cls-15{fill:#ff7bac;}.cls-16{fill:#ccc;}.cls-19{stroke-width:0.01px;}.cls-20{fill:#666;}.cls-22{stroke-width:1.17px;}.cls-23{stroke:#bf720c;stroke-width:0.62px;}.cls-26{stroke-width:0.1px;}.cls-27{fill:#ffd18f;stroke-width:0.4px;}.cls-28{stroke-width:0.07px;}</style></defs><title>nivel2</title><g id="Layer_2" data-name="Layer 2"><g id="Contraportada_GUIA_2" data-name="Contraportada GUIA 2"><path class="cls-1" d="M29.27,26.06a3.29,3.29,0,0,1-1.88-.41,1.6,1.6,0,0,1-.69-1,7,7,0,0,1-.12-1.32l0-15.57a6.4,6.4,0,0,1,.13-1.26,1.53,1.53,0,0,1,.7-1,3.64,3.64,0,0,1,1.94-.39,3.41,3.41,0,0,1,1.8.34,3.83,3.83,0,0,1,.87.84l7.47,10.09,0-8.61a5.63,5.63,0,0,1,.14-1.25,1.62,1.62,0,0,1,.71-1,3.53,3.53,0,0,1,1.92-.39,3.39,3.39,0,0,1,1.93.41,1.64,1.64,0,0,1,.68,1A7.06,7.06,0,0,1,45,7.89l0,15.48a6.88,6.88,0,0,1-.12,1.29,1.58,1.58,0,0,1-.7,1,3.5,3.5,0,0,1-2,.4,5.4,5.4,0,0,1-1.54-.17,1.73,1.73,0,0,1-.88-.64L32.06,15l0,8.34a6.88,6.88,0,0,1-.12,1.29,1.64,1.64,0,0,1-.69,1A3.54,3.54,0,0,1,29.27,26.06Z"/><path class="cls-1" d="M51.47,26.11a3.36,3.36,0,0,1-1.91-.41,1.57,1.57,0,0,1-.68-1,7.84,7.84,0,0,1-.1-1.29l0-9.78a6.59,6.59,0,0,1,.12-1.27,1.62,1.62,0,0,1,.7-1,3.43,3.43,0,0,1,1.92-.4,3.32,3.32,0,0,1,1.9.41,1.63,1.63,0,0,1,.67,1,7,7,0,0,1,.12,1.32l0,9.75a6.88,6.88,0,0,1-.12,1.29,1.56,1.56,0,0,1-.68,1A3.54,3.54,0,0,1,51.47,26.11Zm0-16.68A3.42,3.42,0,0,1,49.59,9a1.56,1.56,0,0,1-.67-1,6.88,6.88,0,0,1-.1-1.29,6.75,6.75,0,0,1,.12-1.3,1.54,1.54,0,0,1,.69-1A3.53,3.53,0,0,1,51.55,4a3.36,3.36,0,0,1,1.91.41,1.67,1.67,0,0,1,.67,1,6.88,6.88,0,0,1,.12,1.29A7.83,7.83,0,0,1,54.12,8a1.52,1.52,0,0,1-.67,1A3.57,3.57,0,0,1,51.51,9.43Z"/><path class="cls-1" d="M65.78,26.29A3,3,0,0,1,64.33,26a2.2,2.2,0,0,1-.94-1L58.1,14.84a3.06,3.06,0,0,1-.42-2.16,2.7,2.7,0,0,1,1.63-1.52,3.43,3.43,0,0,1,2.22-.48c.54.14,1,.71,1.46,1.71l2.81,6.43,2.83-6.41c.47-1,1-1.62,1.51-1.74a3.52,3.52,0,0,1,2.19.51c.93.47,1.47,1,1.61,1.58a3.14,3.14,0,0,1-.42,2.12L68.19,25a2.23,2.23,0,0,1-.94,1A3,3,0,0,1,65.78,26.29Z"/><path class="cls-1" d="M85,26.51a8.82,8.82,0,0,1-3.8-.74,7.06,7.06,0,0,1-2.52-1.93,7.91,7.91,0,0,1-1.41-2.57,8.88,8.88,0,0,1-.44-2.67,8.07,8.07,0,0,1,1.06-4.16,7.45,7.45,0,0,1,2.91-2.82,8.89,8.89,0,0,1,4.27-1,7.64,7.64,0,0,1,3.18.61,6.38,6.38,0,0,1,2.14,1.53,6.26,6.26,0,0,1,1.21,2,5.47,5.47,0,0,1,.38,2,3.65,3.65,0,0,1-.84,2.6,2.82,2.82,0,0,1-2.16.9H82.57a1.62,1.62,0,0,0,.49.82,2.61,2.61,0,0,0,.94.54,3.78,3.78,0,0,0,1.23.2,8.17,8.17,0,0,0,1.17-.07,5.72,5.72,0,0,0,.89-.19l.69-.24.57-.2A1.71,1.71,0,0,1,89,21a1.55,1.55,0,0,1,1,.36,3.18,3.18,0,0,1,.81,1.08,3.38,3.38,0,0,1,.3.74,2.53,2.53,0,0,1,.09.64,1.86,1.86,0,0,1-.74,1.5,5,5,0,0,1-2.12.91A15.54,15.54,0,0,1,85,26.51Zm-2.41-9.15h3.36a.9.9,0,0,0,.62-.18.7.7,0,0,0,.19-.54,1,1,0,0,0-.22-.66,1.33,1.33,0,0,0-.61-.4,2.84,2.84,0,0,0-.93-.14,2.66,2.66,0,0,0-1.26.28,2.18,2.18,0,0,0-.83.72A1.89,1.89,0,0,0,82.57,17.36Z"/><path class="cls-1" d="M101.54,26.22a23.5,23.5,0,0,1-2.41-.13,5.31,5.31,0,0,1-1.76-.48,3,3,0,0,1-1.16-1,4.82,4.82,0,0,1-.66-1.77,14.26,14.26,0,0,1-.2-2.75l0-13.29a7.63,7.63,0,0,1,.13-1.3,1.61,1.61,0,0,1,.69-1A3.43,3.43,0,0,1,98.11,4a3.32,3.32,0,0,1,1.9.41,1.62,1.62,0,0,1,.68,1,7,7,0,0,1,.12,1.32l0,12.93c0,.3,0,.54,0,.71a.76.76,0,0,0,.09.37.28.28,0,0,0,.24.14l.47,0a3.46,3.46,0,0,1,.82.1,1.24,1.24,0,0,1,.75.63,3.83,3.83,0,0,1,.31,1.82,4.23,4.23,0,0,1-.32,1.92,1.23,1.23,0,0,1-.77.67A3.73,3.73,0,0,1,101.54,26.22Z"/><path class="cls-1" d="M119.24,13.71a2.8,2.8,0,0,1-1.85.87,2.76,2.76,0,0,1-1.78-1.05,2.77,2.77,0,0,1-.93-2,3.16,3.16,0,0,1,1.27-2l3.81-3.42a2.57,2.57,0,0,1,1.85-.82,2.93,2.93,0,0,1,1.79,1.1,2.64,2.64,0,0,1,.88,1.94,3.35,3.35,0,0,1-1.28,2Zm3,12.61a2.93,2.93,0,0,1-2.1-.6,3,3,0,0,1-.59-2.14l0-15.63a2.9,2.9,0,0,1,.61-2.09,3,3,0,0,1,2.13-.6,2.88,2.88,0,0,1,2.1.62A3.11,3.11,0,0,1,125,8l0,15.6a2.84,2.84,0,0,1-.61,2.09A3,3,0,0,1,122.21,26.32Z"/><path class="cls-2" d="M29.27,26.06a3.29,3.29,0,0,1-1.88-.41,1.6,1.6,0,0,1-.69-1,7,7,0,0,1-.12-1.32l0-15.57a6.4,6.4,0,0,1,.13-1.26,1.53,1.53,0,0,1,.7-1,3.64,3.64,0,0,1,1.94-.39,3.41,3.41,0,0,1,1.8.34,3.83,3.83,0,0,1,.87.84l7.47,10.09,0-8.61a5.63,5.63,0,0,1,.14-1.25,1.62,1.62,0,0,1,.71-1,3.53,3.53,0,0,1,1.92-.39,3.39,3.39,0,0,1,1.93.41,1.64,1.64,0,0,1,.68,1A7.06,7.06,0,0,1,45,7.89l0,15.48a6.88,6.88,0,0,1-.12,1.29,1.58,1.58,0,0,1-.7,1,3.5,3.5,0,0,1-2,.4,5.4,5.4,0,0,1-1.54-.17,1.73,1.73,0,0,1-.88-.64L32.06,15l0,8.34a6.88,6.88,0,0,1-.12,1.29,1.64,1.64,0,0,1-.69,1A3.54,3.54,0,0,1,29.27,26.06Z"/><path class="cls-2" d="M51.47,26.11a3.36,3.36,0,0,1-1.91-.41,1.57,1.57,0,0,1-.68-1,7.84,7.84,0,0,1-.1-1.29l0-9.78a6.59,6.59,0,0,1,.12-1.27,1.62,1.62,0,0,1,.7-1,3.43,3.43,0,0,1,1.92-.4,3.32,3.32,0,0,1,1.9.41,1.63,1.63,0,0,1,.67,1,7,7,0,0,1,.12,1.32l0,9.75a6.88,6.88,0,0,1-.12,1.29,1.56,1.56,0,0,1-.68,1A3.54,3.54,0,0,1,51.47,26.11Zm0-16.68A3.42,3.42,0,0,1,49.59,9a1.56,1.56,0,0,1-.67-1,6.88,6.88,0,0,1-.1-1.29,6.75,6.75,0,0,1,.12-1.3,1.54,1.54,0,0,1,.69-1A3.53,3.53,0,0,1,51.55,4a3.36,3.36,0,0,1,1.91.41,1.67,1.67,0,0,1,.67,1,6.88,6.88,0,0,1,.12,1.29A7.83,7.83,0,0,1,54.12,8a1.52,1.52,0,0,1-.67,1A3.57,3.57,0,0,1,51.51,9.43Z"/><path class="cls-2" d="M65.78,26.29A3,3,0,0,1,64.33,26a2.2,2.2,0,0,1-.94-1L58.1,14.84a3.06,3.06,0,0,1-.42-2.16,2.7,2.7,0,0,1,1.63-1.52,3.43,3.43,0,0,1,2.22-.48c.54.14,1,.71,1.46,1.71l2.81,6.43,2.83-6.41c.47-1,1-1.62,1.51-1.74a3.52,3.52,0,0,1,2.19.51c.93.47,1.47,1,1.61,1.58a3.14,3.14,0,0,1-.42,2.12L68.19,25a2.23,2.23,0,0,1-.94,1A3,3,0,0,1,65.78,26.29Z"/><path class="cls-2" d="M85,26.51a8.82,8.82,0,0,1-3.8-.74,7.06,7.06,0,0,1-2.52-1.93,7.91,7.91,0,0,1-1.41-2.57,8.88,8.88,0,0,1-.44-2.67,8.07,8.07,0,0,1,1.06-4.16,7.45,7.45,0,0,1,2.91-2.82,8.89,8.89,0,0,1,4.27-1,7.64,7.64,0,0,1,3.18.61,6.38,6.38,0,0,1,2.14,1.53,6.26,6.26,0,0,1,1.21,2,5.47,5.47,0,0,1,.38,2,3.65,3.65,0,0,1-.84,2.6,2.82,2.82,0,0,1-2.16.9H82.57a1.62,1.62,0,0,0,.49.82,2.61,2.61,0,0,0,.94.54,3.78,3.78,0,0,0,1.23.2,8.17,8.17,0,0,0,1.17-.07,5.72,5.72,0,0,0,.89-.19l.69-.24.57-.2A1.71,1.71,0,0,1,89,21a1.55,1.55,0,0,1,1,.36,3.18,3.18,0,0,1,.81,1.08,3.38,3.38,0,0,1,.3.74,2.53,2.53,0,0,1,.09.64,1.86,1.86,0,0,1-.74,1.5,5,5,0,0,1-2.12.91A15.54,15.54,0,0,1,85,26.51Zm-2.41-9.15h3.36a.9.9,0,0,0,.62-.18.7.7,0,0,0,.19-.54,1,1,0,0,0-.22-.66,1.33,1.33,0,0,0-.61-.4,2.84,2.84,0,0,0-.93-.14,2.66,2.66,0,0,0-1.26.28,2.18,2.18,0,0,0-.83.72A1.89,1.89,0,0,0,82.57,17.36Z"/><path class="cls-2" d="M101.54,26.22a23.5,23.5,0,0,1-2.41-.13,5.31,5.31,0,0,1-1.76-.48,3,3,0,0,1-1.16-1,4.82,4.82,0,0,1-.66-1.77,14.26,14.26,0,0,1-.2-2.75l0-13.29a7.63,7.63,0,0,1,.13-1.3,1.61,1.61,0,0,1,.69-1A3.43,3.43,0,0,1,98.11,4a3.32,3.32,0,0,1,1.9.41,1.62,1.62,0,0,1,.68,1,7,7,0,0,1,.12,1.32l0,12.93c0,.3,0,.54,0,.71a.76.76,0,0,0,.09.37.28.28,0,0,0,.24.14l.47,0a3.46,3.46,0,0,1,.82.1,1.24,1.24,0,0,1,.75.63,3.83,3.83,0,0,1,.31,1.82,4.23,4.23,0,0,1-.32,1.92,1.23,1.23,0,0,1-.77.67A3.73,3.73,0,0,1,101.54,26.22Z"/><path class="cls-2" d="M119.24,13.71a2.8,2.8,0,0,1-1.85.87,2.76,2.76,0,0,1-1.78-1.05,2.77,2.77,0,0,1-.93-2,3.16,3.16,0,0,1,1.27-2l3.81-3.42a2.57,2.57,0,0,1,1.85-.82,2.93,2.93,0,0,1,1.79,1.1,2.64,2.64,0,0,1,.88,1.94,3.35,3.35,0,0,1-1.28,2Zm3,12.61a2.93,2.93,0,0,1-2.1-.6,3,3,0,0,1-.59-2.14l0-15.63a2.9,2.9,0,0,1,.61-2.09,3,3,0,0,1,2.13-.6,2.88,2.88,0,0,1,2.1.62A3.11,3.11,0,0,1,125,8l0,15.6a2.84,2.84,0,0,1-.61,2.09A3,3,0,0,1,122.21,26.32Z"/><path class="cls-3" d="M29.27,26.06a3.29,3.29,0,0,1-1.88-.41,1.6,1.6,0,0,1-.69-1,7,7,0,0,1-.12-1.32l0-15.57a6.4,6.4,0,0,1,.13-1.26,1.53,1.53,0,0,1,.7-1,3.64,3.64,0,0,1,1.94-.39,3.41,3.41,0,0,1,1.8.34,3.83,3.83,0,0,1,.87.84l7.47,10.09,0-8.61a5.63,5.63,0,0,1,.14-1.25,1.62,1.62,0,0,1,.71-1,3.53,3.53,0,0,1,1.92-.39,3.39,3.39,0,0,1,1.93.41,1.64,1.64,0,0,1,.68,1A7.06,7.06,0,0,1,45,7.89l0,15.48a6.88,6.88,0,0,1-.12,1.29,1.58,1.58,0,0,1-.7,1,3.5,3.5,0,0,1-2,.4,5.4,5.4,0,0,1-1.54-.17,1.73,1.73,0,0,1-.88-.64L32.06,15l0,8.34a6.88,6.88,0,0,1-.12,1.29,1.64,1.64,0,0,1-.69,1A3.54,3.54,0,0,1,29.27,26.06Z"/><path class="cls-3" d="M51.47,26.11a3.36,3.36,0,0,1-1.91-.41,1.57,1.57,0,0,1-.68-1,7.84,7.84,0,0,1-.1-1.29l0-9.78a6.59,6.59,0,0,1,.12-1.27,1.62,1.62,0,0,1,.7-1,3.43,3.43,0,0,1,1.92-.4,3.32,3.32,0,0,1,1.9.41,1.63,1.63,0,0,1,.67,1,7,7,0,0,1,.12,1.32l0,9.75a6.88,6.88,0,0,1-.12,1.29,1.56,1.56,0,0,1-.68,1A3.54,3.54,0,0,1,51.47,26.11Zm0-16.68A3.42,3.42,0,0,1,49.59,9a1.56,1.56,0,0,1-.67-1,6.88,6.88,0,0,1-.1-1.29,6.75,6.75,0,0,1,.12-1.3,1.54,1.54,0,0,1,.69-1A3.53,3.53,0,0,1,51.55,4a3.36,3.36,0,0,1,1.91.41,1.67,1.67,0,0,1,.67,1,6.88,6.88,0,0,1,.12,1.29A7.83,7.83,0,0,1,54.12,8a1.52,1.52,0,0,1-.67,1A3.57,3.57,0,0,1,51.51,9.43Z"/><path class="cls-3" d="M65.78,26.29A3,3,0,0,1,64.33,26a2.2,2.2,0,0,1-.94-1L58.1,14.84a3.06,3.06,0,0,1-.42-2.16,2.7,2.7,0,0,1,1.63-1.52,3.43,3.43,0,0,1,2.22-.48c.54.14,1,.71,1.46,1.71l2.81,6.43,2.83-6.41c.47-1,1-1.62,1.51-1.74a3.52,3.52,0,0,1,2.19.51c.93.47,1.47,1,1.61,1.58a3.14,3.14,0,0,1-.42,2.12L68.19,25a2.23,2.23,0,0,1-.94,1A3,3,0,0,1,65.78,26.29Z"/><path class="cls-3" d="M85,26.51a8.82,8.82,0,0,1-3.8-.74,7.06,7.06,0,0,1-2.52-1.93,7.91,7.91,0,0,1-1.41-2.57,8.88,8.88,0,0,1-.44-2.67,8.07,8.07,0,0,1,1.06-4.16,7.45,7.45,0,0,1,2.91-2.82,8.89,8.89,0,0,1,4.27-1,7.64,7.64,0,0,1,3.18.61,6.38,6.38,0,0,1,2.14,1.53,6.26,6.26,0,0,1,1.21,2,5.47,5.47,0,0,1,.38,2,3.65,3.65,0,0,1-.84,2.6,2.82,2.82,0,0,1-2.16.9H82.57a1.62,1.62,0,0,0,.49.82,2.61,2.61,0,0,0,.94.54,3.78,3.78,0,0,0,1.23.2,8.17,8.17,0,0,0,1.17-.07,5.72,5.72,0,0,0,.89-.19l.69-.24.57-.2A1.71,1.71,0,0,1,89,21a1.55,1.55,0,0,1,1,.36,3.18,3.18,0,0,1,.81,1.08,3.38,3.38,0,0,1,.3.74,2.53,2.53,0,0,1,.09.64,1.86,1.86,0,0,1-.74,1.5,5,5,0,0,1-2.12.91A15.54,15.54,0,0,1,85,26.51Zm-2.41-9.15h3.36a.9.9,0,0,0,.62-.18.7.7,0,0,0,.19-.54,1,1,0,0,0-.22-.66,1.33,1.33,0,0,0-.61-.4,2.84,2.84,0,0,0-.93-.14,2.66,2.66,0,0,0-1.26.28,2.18,2.18,0,0,0-.83.72A1.89,1.89,0,0,0,82.57,17.36Z"/><path class="cls-3" d="M101.54,26.22a23.5,23.5,0,0,1-2.41-.13,5.31,5.31,0,0,1-1.76-.48,3,3,0,0,1-1.16-1,4.82,4.82,0,0,1-.66-1.77,14.26,14.26,0,0,1-.2-2.75l0-13.29a7.63,7.63,0,0,1,.13-1.3,1.61,1.61,0,0,1,.69-1A3.43,3.43,0,0,1,98.11,4a3.32,3.32,0,0,1,1.9.41,1.62,1.62,0,0,1,.68,1,7,7,0,0,1,.12,1.32l0,12.93c0,.3,0,.54,0,.71a.76.76,0,0,0,.09.37.28.28,0,0,0,.24.14l.47,0a3.46,3.46,0,0,1,.82.1,1.24,1.24,0,0,1,.75.63,3.83,3.83,0,0,1,.31,1.82,4.23,4.23,0,0,1-.32,1.92,1.23,1.23,0,0,1-.77.67A3.73,3.73,0,0,1,101.54,26.22Z"/><path class="cls-3" d="M119.24,13.71a2.8,2.8,0,0,1-1.85.87,2.76,2.76,0,0,1-1.78-1.05,2.77,2.77,0,0,1-.93-2,3.16,3.16,0,0,1,1.27-2l3.81-3.42a2.57,2.57,0,0,1,1.85-.82,2.93,2.93,0,0,1,1.79,1.1,2.64,2.64,0,0,1,.88,1.94,3.35,3.35,0,0,1-1.28,2Zm3,12.61a2.93,2.93,0,0,1-2.1-.6,3,3,0,0,1-.59-2.14l0-15.63a2.9,2.9,0,0,1,.61-2.09,3,3,0,0,1,2.13-.6,2.88,2.88,0,0,1,2.1.62A3.11,3.11,0,0,1,125,8l0,15.6a2.84,2.84,0,0,1-.61,2.09A3,3,0,0,1,122.21,26.32Z"/><path class="cls-4" d="M113.77,224.24a32,32,0,0,1-3.41-.37,74,74,0,0,0-7.55-.94h0a62.94,62.94,0,0,0-8.82,1.33l-.32.06a8.56,8.56,0,0,1-1.66.16,8.23,8.23,0,0,1-7.18-4.15,4.52,4.52,0,0,0,1.64,5.14c3.6,2.48,6.6,1.94,10.4,1.26a39.93,39.93,0,0,1,5.38-.7,48.42,48.42,0,0,1,8.43.48c3.94.49,6.79.84,10.55-1.26a5.75,5.75,0,0,0,2.67-5.26C121.77,222.61,118,224.24,113.77,224.24Z"/><path class="cls-5" d="M113.77,207.92a13.84,13.84,0,0,0-5.72,1.19h0a8.43,8.43,0,0,0-4,4.62.53.53,0,0,1-.7.28.54.54,0,0,1-.28-.7,11.11,11.11,0,0,1,2.47-3.69,11.14,11.14,0,0,0-3.87-4.14,14.7,14.7,0,0,1-4,1h-.06a.53.53,0,0,1-.07-1.06,13.77,13.77,0,0,0,3.9-1l0,0c1.78-.79,2.88-1.91,2.88-3.1,0-2.32-4.14-4.27-9-4.27s-9.05,1.95-9.05,4.27c0,1.27,1.26,2.47,3.3,3.27l.07,0a13.75,13.75,0,0,0,2.41.68.53.53,0,0,1-.2,1,15.24,15.24,0,0,1-2.38-.64,11.11,11.11,0,0,0-4.22,13.07l0,.06a7.18,7.18,0,0,0,8.17,4.47l.32-.07a63.38,63.38,0,0,1,9-1.34,71.62,71.62,0,0,1,7.8.95h0a27,27,0,0,0,3.19.35c4.41,0,8.43-2,10-5a5.73,5.73,0,0,0,.67-2.66C124.43,211.34,119.64,207.92,113.77,207.92Z"/><path d="M113.77,206.85a15,15,0,0,0-6.15,1.28,6.46,6.46,0,0,0-1.34.8,12.16,12.16,0,0,0-3.57-4c1.68-1,2.69-2.25,2.69-3.65,0-3-4.44-5.34-10.11-5.34s-10.11,2.35-10.11,5.34c0,1.52,1.15,2.91,3.11,3.88a12.2,12.2,0,0,0-4.14,13.73c-1.53,3.57-.07,6.23,1.67,7.43a10.61,10.61,0,0,0,6.33,2,28.07,28.07,0,0,0,4.86-.58,38.52,38.52,0,0,1,5.23-.69,46.62,46.62,0,0,1,8.26.48c4,.49,7.13.88,11.2-1.39a6.5,6.5,0,0,0,3.16-5.12,8.79,8.79,0,0,0-.07-2.56,6.7,6.7,0,0,0,.7-3C125.49,210.75,120.23,206.85,113.77,206.85Zm7.41,18.4c-3.76,2.1-6.61,1.75-10.55,1.26a48.42,48.42,0,0,0-8.43-.48,39.93,39.93,0,0,0-5.38.7c-3.8.68-6.8,1.22-10.4-1.26a4.52,4.52,0,0,1-1.64-5.14A8.23,8.23,0,0,0,92,224.48a8.56,8.56,0,0,0,1.66-.16l.32-.06a62.94,62.94,0,0,1,8.82-1.33h0a74,74,0,0,1,7.55.94,32,32,0,0,0,3.41.37c4.22,0,8-1.63,10.08-4.25A5.75,5.75,0,0,1,121.18,225.25Zm2.58-7.05c-1.56,3-5.58,5-10,5a27,27,0,0,1-3.19-.35h0a71.62,71.62,0,0,0-7.8-.95,63.38,63.38,0,0,0-9,1.34l-.32.07a7.18,7.18,0,0,1-8.17-4.47l0-.06a11.11,11.11,0,0,1,4.22-13.07,15.24,15.24,0,0,0,2.38.64.53.53,0,0,0,.2-1,13.75,13.75,0,0,1-2.41-.68l-.07,0c-2-.8-3.3-2-3.3-3.27,0-2.32,4.15-4.27,9.05-4.27s9,1.95,9,4.27c0,1.19-1.1,2.31-2.88,3.1l0,0a13.77,13.77,0,0,1-3.9,1,.53.53,0,0,0,.07,1.06h.06a14.7,14.7,0,0,0,4-1,11.14,11.14,0,0,1,3.87,4.14,11.11,11.11,0,0,0-2.47,3.69.54.54,0,0,0,.28.7.53.53,0,0,0,.7-.28,8.43,8.43,0,0,1,4-4.62h0a13.84,13.84,0,0,1,5.72-1.19c5.87,0,10.66,3.42,10.66,7.62A5.73,5.73,0,0,1,123.76,218.2Z"/><path class="cls-6" d="M94.9,202.08a3.78,3.78,0,0,1-.67-.05,4.2,4.2,0,0,1-3.47-4.81c2.89-17.78-5.51-37.12-5.6-37.31a4.21,4.21,0,0,1,2.14-5.53A4.14,4.14,0,0,1,89,154a4.2,4.2,0,0,1,3.84,2.5c.39.88,9.5,21.79,6.21,42A4.17,4.17,0,0,1,94.9,202.08Z"/><path d="M89,154.8a3.43,3.43,0,0,1,3.13,2c.38.87,9.4,21.59,6.15,41.6a3.41,3.41,0,0,1-3.37,2.86,3.48,3.48,0,0,1-.55,0,3.42,3.42,0,0,1-2.82-3.92c2.91-17.92-5.52-37.44-5.66-37.75a3.42,3.42,0,0,1,1.75-4.5A3.48,3.48,0,0,1,89,154.8m0-1.56a4.77,4.77,0,0,0-2,.43,5,5,0,0,0-2.54,6.56c.08.18,8.38,19.42,5.54,36.86a5,5,0,0,0,4.11,5.71,5.49,5.49,0,0,0,.8.06,5,5,0,0,0,4.91-4.17c3.32-20.46-5.87-41.6-6.27-42.49a5,5,0,0,0-4.55-3Z"/><path class="cls-7" d="M95.23,191.93h0a4.53,4.53,0,0,1,4.53,4.53v5.06a.74.74,0,0,1-.74.74H91.44a.74.74,0,0,1-.74-.74v-5.06a4.53,4.53,0,0,1,4.53-4.53Z" transform="translate(178.21 399.66) rotate(-176.49)"/><path class="cls-4" d="M47.47,224.44a29.78,29.78,0,0,0,3.41-.37c.31,0,5.65-.94,7.54-.94h0a62.85,62.85,0,0,1,8.83,1.33l.32.06a8.48,8.48,0,0,0,1.65.17,8.22,8.22,0,0,0,7.19-4.16,4.52,4.52,0,0,1-1.65,5.14c-3.59,2.48-6.59,1.94-10.39,1.26a39.93,39.93,0,0,0-5.38-.7,48.35,48.35,0,0,0-8.43.48c-3.94.49-6.79.84-10.55-1.26a5.76,5.76,0,0,1-2.68-5.26C39.47,222.81,43.25,224.44,47.47,224.44Z"/><path class="cls-5" d="M47.47,208.12a13.8,13.8,0,0,1,5.71,1.19h0a8.43,8.43,0,0,1,4,4.62.54.54,0,0,0,.7.28.53.53,0,0,0,.28-.7,11.31,11.31,0,0,0-2.46-3.68,11.07,11.07,0,0,1,3.86-4.15,14.8,14.8,0,0,0,4,1h.07a.53.53,0,0,0,.06-1.06,14.32,14.32,0,0,1-3.9-1l0,0c-1.78-.79-2.88-1.91-2.88-3.1,0-2.31,4.14-4.27,9.05-4.27s9,2,9,4.27c0,1.27-1.26,2.47-3.29,3.28l-.07,0a14,14,0,0,1-2.41.68.53.53,0,1,0,.19,1.05,16.2,16.2,0,0,0,2.39-.65A11.15,11.15,0,0,1,76,219l0,.06a7.17,7.17,0,0,1-8.16,4.47l-.33-.06a62.07,62.07,0,0,0-9-1.35,71.36,71.36,0,0,0-7.79,1h0a29.08,29.08,0,0,1-3.19.34c-4.42,0-8.43-2-10-5a5.8,5.8,0,0,1-.67-2.67C36.81,211.54,41.59,208.12,47.47,208.12Z"/><path d="M35.75,215.74a6.77,6.77,0,0,0,.69,3,9.07,9.07,0,0,0-.06,2.55,6.47,6.47,0,0,0,3.16,5.12c4.06,2.27,7.21,1.88,11.2,1.39A45.73,45.73,0,0,1,59,227.3a37,37,0,0,1,5.24.68,28.07,28.07,0,0,0,4.86.58,10.58,10.58,0,0,0,6.33-2c1.74-1.2,3.19-3.85,1.67-7.43a12.17,12.17,0,0,0-4.15-13.72c2-1,3.12-2.36,3.12-3.89,0-3-4.45-5.34-10.11-5.34s-10.11,2.35-10.11,5.34c0,1.4,1,2.69,2.69,3.65a12.19,12.19,0,0,0-3.58,4,6,6,0,0,0-1.34-.8,15,15,0,0,0-6.14-1.28C41,207.05,35.75,211,35.75,215.74Zm1.63,4.45c2.09,2.62,5.87,4.25,10.09,4.25a29.78,29.78,0,0,0,3.41-.37c.31,0,5.65-.94,7.54-.94h0a62.85,62.85,0,0,1,8.83,1.33l.32.06a8.48,8.48,0,0,0,1.65.17,8.22,8.22,0,0,0,7.19-4.16,4.52,4.52,0,0,1-1.65,5.14c-3.59,2.48-6.59,1.94-10.39,1.26a39.93,39.93,0,0,0-5.38-.7,48.35,48.35,0,0,0-8.43.48c-3.94.49-6.79.84-10.55-1.26A5.76,5.76,0,0,1,37.38,220.19Zm-.57-4.45c0-4.2,4.78-7.62,10.66-7.62a13.8,13.8,0,0,1,5.71,1.19h0a8.43,8.43,0,0,1,4,4.62.54.54,0,0,0,.7.28.53.53,0,0,0,.28-.7,11.31,11.31,0,0,0-2.46-3.68,11.07,11.07,0,0,1,3.86-4.15,14.8,14.8,0,0,0,4,1h.07a.53.53,0,0,0,.06-1.06,14.32,14.32,0,0,1-3.9-1l0,0c-1.78-.79-2.88-1.91-2.88-3.1,0-2.31,4.14-4.27,9.05-4.27s9,2,9,4.27c0,1.27-1.26,2.47-3.29,3.28l-.07,0a14,14,0,0,1-2.41.68.53.53,0,1,0,.19,1.05,16.2,16.2,0,0,0,2.39-.65A11.15,11.15,0,0,1,76,219l0,.06a7.17,7.17,0,0,1-8.16,4.47l-.33-.06a62.07,62.07,0,0,0-9-1.35,71.36,71.36,0,0,0-7.79,1h0a29.08,29.08,0,0,1-3.19.34c-4.42,0-8.43-2-10-5A5.8,5.8,0,0,1,36.81,215.74Z"/><path class="cls-6" d="M66.33,202.28a4.17,4.17,0,0,1-4.13-3.52c-3.29-20.25,5.81-41.16,6.2-42a4.21,4.21,0,0,1,3.84-2.5,4.07,4.07,0,0,1,1.69.36,4.19,4.19,0,0,1,2.14,5.53c-.08.19-8.47,19.66-5.6,37.31A4.18,4.18,0,0,1,67,202.23,4,4,0,0,1,66.33,202.28Z"/><path d="M72.24,155a3.43,3.43,0,0,1,3.12,4.8c-.14.31-8.57,19.82-5.66,37.74a3.41,3.41,0,1,1-6.73,1.1c-3.25-20,5.76-40.73,6.15-41.6a3.4,3.4,0,0,1,3.12-2m0-1.56h0a5,5,0,0,0-4.55,3c-.39.89-9.59,22-6.26,42.48a5,5,0,0,0,4.9,4.18,5.29,5.29,0,0,0,.8-.07,5,5,0,0,0,4.11-5.71c-2.83-17.44,5.47-36.68,5.55-36.87a5,5,0,0,0-4.55-7Z"/><path class="cls-7" d="M62.22,192.13h7.57a.74.74,0,0,1,.74.74v5.06A4.53,4.53,0,0,1,66,202.47h0a4.53,4.53,0,0,1-4.53-4.53v-5.06a.74.74,0,0,1,.74-.74Z" transform="translate(-11.96 4.41) rotate(-3.51)"/><path class="cls-8" d="M65.17,120.13l-.72,9.79c-.72,0-7.23-.62-16.08-5a65.86,65.86,0,0,1-14.64-10A80.57,80.57,0,0,1,20.58,99.63l8.19-5.71c6.56,10,14.52,17.34,23.66,22A38.93,38.93,0,0,0,65.17,120.13Z"/><path class="cls-9" d="M113.64,170.88q-5.19-.25-10.37-.77c.74-16.11-1.19-27-3.15-33.65-2.38-8.1-5.26-11.64-5.56-12l0,0,3.76-10c.45.47,8.21,7.63,11.4,17.82a91.78,91.78,0,0,1,3.64,19.6A143.69,143.69,0,0,1,113.64,170.88Z"/><line class="cls-10" x1="28.39" y1="94" x2="20.21" y2="99.71"/><path class="cls-11" d="M27.31,89.18s3.79,2.24,1.49,7.09c-2.67,5.62-12.22,6.26-12.31-.56Z"/><path class="cls-11" d="M27.94,89.26c-.26-4.25,5.22-6.8,6.15-9.85,1.06-3.49-3.05-8.31-8.8,1,0,0-2.13-5.4-1-9.85,1.29-5-3.07-7-5.19-4.82-1.92,2-1.82,8.64-.57,12.19A.81.81,0,0,1,17.89,79l-.2,0a.81.81,0,0,1-.87-.54,57.82,57.82,0,0,1-2.51-8.88C13.77,65.54,6.4,66.55,7,72c.5,4.3,3.53,7.66,4.79,8.9a.8.8,0,0,1,.06,1.1h0a.82.82,0,0,1-1.09.14A77.26,77.26,0,0,1,4.16,77c-2.55-2.34-8.76,5.13,4,10.56,0,0,1.54,9.17,10.12,8.94C28.1,96.25,27.94,89.26,27.94,89.26Z"/><path class="cls-12" d="M23.87,82.7S17.67,84,20,90.2"/><path class="cls-3" d="M102.75,172.88A19.48,19.48,0,0,0,97.49,179c-1.94,3.95,0,5.16,1.74,5.38s5-5.34,5-5.34a10.76,10.76,0,0,1-1.09,8.35c-2.49,4.46-2.86,7.17-.22,7.39s4.61-2.93,4.61-2.93-1.25,3.15.66,3.74,4-1.32,4.68-2.57c0,0,2.42,1,3.52-1.24s.8-5.86-.66-9c0,0,1.68-6.3-1.32-8.57,0,0,2.29-4.81-7.74-4.82C99.45,169.36,102.75,172.88,102.75,172.88Z"/><path class="cls-13" d="M102.75,172.88A19.48,19.48,0,0,0,97.49,179c-1.94,3.95,0,5.16,1.74,5.38s5-5.34,5-5.34a10.76,10.76,0,0,1-1.09,8.35c-2.49,4.46-2.86,7.17-.22,7.39s4.61-2.93,4.61-2.93-1.25,3.15.66,3.74,4-1.32,4.68-2.57c0,0,2.42,1,3.52-1.24s.8-5.86-.66-9c0,0,1.68-6.3-1.32-8.57,0,0,2.29-4.81-7.74-4.82C99.45,169.36,102.75,172.88,102.75,172.88Z"/><path class="cls-12" d="M109,183s1.07,6-1.76,9.31"/><path class="cls-12" d="M113.86,183.28s1.89,6-.94,9.73"/><path class="cls-12" d="M109.21,172.37a11.15,11.15,0,0,1,5.25,1.82"/><polygon class="cls-14" points="98.91 59.75 92.95 65.75 87.11 59.75 81.29 65.75 75.43 59.75 69.6 65.75 63.66 59.75 81.26 34.46 98.91 59.75"/><path class="cls-15" d="M98.31,156.35a15.33,15.33,0,0,1-3.15,6.05c-5,5.87-12.82,5.5-13.87,5.43A18.74,18.74,0,0,1,68,162.47a17.31,17.31,0,0,1-3.83-6.12Z"/><path class="cls-16" d="M98.61,141.56q0,6.81,0,13.62c-.06.34-.15.74-.26,1.17H64.21c-.19-.53-.34-1-.45-1.42V141.56Z"/><path class="cls-17" d="M98.91,59.75v10.5s-.24,47.54-.3,71.31H87.11V59.75l5.84,6Z"/><polygon class="cls-17" points="75.41 59.73 75.41 141.54 63.74 141.54 63.65 70.23 63.65 59.73 69.58 65.73 75.41 59.73"/><polygon class="cls-18" points="87.11 59.75 87.11 141.56 75.43 141.56 75.43 59.75 81.29 65.75 87.11 59.75"/><path class="cls-19" d="M77.4,40.27a5.6,5.6,0,0,0,7.55,0l-3.69-5.81Z"/><line class="cls-20" x1="63.76" y1="144.28" x2="98.82" y2="144.28"/><line class="cls-20" x1="63.76" y1="153.77" x2="98.82" y2="153.77"/><line class="cls-21" x1="87.11" y1="59.75" x2="87.11" y2="59.7"/><line class="cls-22" x1="75.43" y1="141.57" x2="75.43" y2="141.56"/><line class="cls-22" x1="75.43" y1="59.75" x2="75.43" y2="59.74"/><line class="cls-23" x1="87.11" y1="59.7" x2="87.11" y2="141.56"/><line class="cls-23" x1="75.43" y1="59.79" x2="75.43" y2="141.56"/><path class="cls-24" d="M98.91,59.75,81.26,34.46,63.67,59.75V70.26l.09,71.3H98.61c.06-23.77.3-71.3.3-71.3Z"/><polyline class="cls-24" points="63.67 59.75 69.59 65.75 75.43 59.75 81.29 65.75 87.11 59.75 92.95 65.75 98.92 59.75"/><path class="cls-25" d="M62.68,79.16s3.85-4,7.56,0"/><path class="cls-25" d="M83.6,79.16s3.85-4,7.56,0"/><ellipse class="cls-11" cx="67.83" cy="93.47" rx="7.23" ry="10.71"/><ellipse class="cls-26" cx="67.81" cy="92.91" rx="3.72" ry="5.51"/><circle class="cls-3" cx="66.29" cy="90.89" r="1.43"/><ellipse class="cls-11" cx="87.14" cy="92.91" rx="7.23" ry="10.71"/><ellipse class="cls-26" cx="87.14" cy="92.91" rx="3.72" ry="5.51"/><circle class="cls-3" cx="85.71" cy="90.89" r="1.43"/><path class="cls-27" d="M88.39,107.72A3,3,0,0,1,90,113.17a24.06,24.06,0,0,1-26.15,0,3,3,0,0,1,3.23-5,18.09,18.09,0,0,0,19.7,0A2.93,2.93,0,0,1,88.39,107.72Z"/><path class="cls-28" d="M65.47,109.69a1,1,0,0,1,.54.16,20.1,20.1,0,0,0,21.84,0,1,1,0,0,1,1.37.29,1,1,0,0,1-.29,1.38,22.07,22.07,0,0,1-24,0,1,1,0,0,1,.54-1.83Z"/></g></g></svg>