<svg xmlns="http://www.w3.org/2000/svg" viewBox="0 0 132.06 185.22"><defs><style>.cls-1{fill:#e5e5e5;}.cls-2{fill:#bf4400;}.cls-23,.cls-3{fill:#003b49;}.cls-14,.cls-17,.cls-20,.cls-21,.cls-22,.cls-24,.cls-25,.cls-4{fill:#fff;}.cls-10,.cls-11,.cls-12,.cls-13,.cls-14,.cls-15,.cls-16,.cls-18,.cls-19,.cls-20,.cls-21,.cls-22,.cls-23,.cls-24,.cls-25,.cls-4,.cls-5,.cls-7,.cls-8,.cls-9{stroke:#000;}.cls-10,.cls-11,.cls-12,.cls-13,.cls-14,.cls-15,.cls-16,.cls-18,.cls-19,.cls-20,.cls-21,.cls-23,.cls-24,.cls-25,.cls-4,.cls-5,.cls-7,.cls-8,.cls-9{stroke-miterlimit:10;}.cls-4{stroke-width:1.3px;}.cls-5,.cls-9{fill:#3291b2;}.cls-5{stroke-width:1.34px;}.cls-6,.cls-8{fill:#00607a;}.cls-13,.cls-16,.cls-26,.cls-7{fill:none;}.cls-16,.cls-23,.cls-7,.cls-9{stroke-width:1.34px;}.cls-13,.cls-8{stroke-width:0.78px;}.cls-10,.cls-11,.cls-12{fill:#b3b3b3;}.cls-10{stroke-width:0.58px;}.cls-11{stroke-width:0.34px;}.cls-12{stroke-width:0.39px;}.cls-14{stroke-width:0.67px;}.cls-15{stroke-width:0.08px;}.cls-16,.cls-22,.cls-26{stroke-linecap:round;}.cls-18{fill:#75c6d3;stroke-width:0.5px;}.cls-19{stroke-width:0.06px;}.cls-20{stroke-width:0.68px;}.cls-21,.cls-22{stroke-width:0.7px;}.cls-22,.cls-26{stroke-linejoin:round;}.cls-24{stroke-width:0.69px;}.cls-25{stroke-width:0.51px;}.cls-26{stroke:#32b228;stroke-width:8px;}.cls-27{fill:#fcee21;}</style></defs><title>nivel2</title><g id="Layer_2" data-name="Layer 2"><g id="Contraportada_GUIA_1" data-name="Contraportada GUIA 1"><path class="cls-1" d="M23.92,181.62a24.77,24.77,0,0,0,2.83-.3,61.52,61.52,0,0,1,6.27-.78h0a53.85,53.85,0,0,1,7.33,1.1l.27.05a6.44,6.44,0,0,0,1.37.14,6.84,6.84,0,0,0,6-3.45,3.77,3.77,0,0,1-1.37,4.27c-3,2.06-5.48,1.61-8.64,1a33.79,33.79,0,0,0-4.46-.58,39.87,39.87,0,0,0-7,.4c-3.28.41-5.64.7-8.76-1a4.77,4.77,0,0,1-2.22-4.38A10.65,10.65,0,0,0,23.92,181.62Z"/><path class="cls-2" d="M23.92,168.07a11.47,11.47,0,0,1,4.75,1h0a7,7,0,0,1,3.35,3.83.44.44,0,1,0,.82-.34,9.35,9.35,0,0,0-2-3.06A9.14,9.14,0,0,1,34,166.06a12.56,12.56,0,0,0,3.29.83h.06a.43.43,0,0,0,.43-.39.44.44,0,0,0-.38-.49,11.51,11.51,0,0,1-3.24-.85l0,0c-1.48-.66-2.4-1.59-2.4-2.57,0-1.93,3.44-3.55,7.52-3.55s7.51,1.62,7.51,3.55c0,1-1.05,2-2.74,2.72l-.06,0a11.31,11.31,0,0,1-2,.56.44.44,0,0,0-.35.52.44.44,0,0,0,.51.35,13.05,13.05,0,0,0,2-.54,9.22,9.22,0,0,1,4.07,7.66,9.09,9.09,0,0,1-.57,3.19l0,.06a6,6,0,0,1-6.78,3.71l-.27-.06a52.05,52.05,0,0,0-7.49-1.11,59.17,59.17,0,0,0-6.48.79h0a24,24,0,0,1-2.65.29c-3.67,0-7-1.66-8.29-4.13a4.71,4.71,0,0,1-.56-2.21C15.07,170.91,19,168.07,23.92,168.07Z"/><path d="M23.92,167.19a12.32,12.32,0,0,1,5.1,1.06,4.72,4.72,0,0,1,1.11.66,10.13,10.13,0,0,1,3-3.3,3.73,3.73,0,0,1-2.24-3c0-2.49,3.69-4.44,8.4-4.44s8.39,2,8.39,4.44c0,1.26-1,2.41-2.59,3.22a10.06,10.06,0,0,1,4,8.07,10.17,10.17,0,0,1-.56,3.33c1.26,3,.06,5.18-1.39,6.17a8.81,8.81,0,0,1-5.25,1.68,23.18,23.18,0,0,1-4-.49,32.6,32.6,0,0,0-4.35-.56,38.37,38.37,0,0,0-6.85.39c-3.31.41-5.93.73-9.3-1.15A5.38,5.38,0,0,1,14.71,179a7.25,7.25,0,0,1,.06-2.13,5.46,5.46,0,0,1-.58-2.46C14.19,170.42,18.55,167.19,23.92,167.19Zm-6.15,15.28c3.12,1.74,5.48,1.45,8.76,1a39.87,39.87,0,0,1,7-.4,33.79,33.79,0,0,1,4.46.58c3.16.57,5.65,1,8.64-1A3.77,3.77,0,0,0,48,178.38a6.84,6.84,0,0,1-6,3.45,6.44,6.44,0,0,1-1.37-.14l-.27-.05a53.85,53.85,0,0,0-7.33-1.1h0a61.52,61.52,0,0,0-6.27.78,24.77,24.77,0,0,1-2.83.3,10.65,10.65,0,0,1-8.37-3.53A4.77,4.77,0,0,0,17.77,182.47Zm-2.14-5.86c1.29,2.47,4.62,4.13,8.29,4.13a24,24,0,0,0,2.65-.29h0a59.17,59.17,0,0,1,6.48-.79,52.05,52.05,0,0,1,7.49,1.11l.27.06a6,6,0,0,0,6.78-3.71l0-.06a9.09,9.09,0,0,0,.57-3.19,9.22,9.22,0,0,0-4.07-7.66,13.05,13.05,0,0,1-2,.54.44.44,0,0,1-.51-.35.44.44,0,0,1,.35-.52,11.31,11.31,0,0,0,2-.56l.06,0c1.69-.67,2.74-1.67,2.74-2.72,0-1.93-3.44-3.55-7.51-3.55s-7.52,1.62-7.52,3.55c0,1,.92,1.91,2.4,2.57l0,0a11.51,11.51,0,0,0,3.24.85.44.44,0,0,1,.38.49.43.43,0,0,1-.43.39h-.06a12.56,12.56,0,0,1-3.29-.83,9.14,9.14,0,0,0-3.21,3.44,9.35,9.35,0,0,1,2,3.06.44.44,0,1,1-.82.34,7,7,0,0,0-3.35-3.83h0a11.47,11.47,0,0,0-4.75-1c-4.88,0-8.85,2.84-8.85,6.33A4.71,4.71,0,0,0,15.63,176.61Z"/><path class="cls-3" d="M39.59,163.25a3.49,3.49,0,0,1-3.46-2.94c-2.72-16.78,4.83-34.19,5.16-34.93a3.5,3.5,0,0,1,3.2-2.09,3.65,3.65,0,0,1,1.42.3,3.49,3.49,0,0,1,1.78,4.62c-.06.16-7,16.36-4.65,31a3.42,3.42,0,0,1-.61,2.61,3.49,3.49,0,0,1-2.28,1.41A3.64,3.64,0,0,1,39.59,163.25Z"/><path d="M44.49,124a2.77,2.77,0,0,1,1.15.25,2.82,2.82,0,0,1,1.44,3.73c-.11.26-7.11,16.47-4.69,31.35A2.83,2.83,0,0,1,40,162.54a2.28,2.28,0,0,1-.45,0,2.84,2.84,0,0,1-2.8-2.38c-2.7-16.62,4.79-33.82,5.11-34.55A2.84,2.84,0,0,1,44.49,124m0-1.33h0a4.16,4.16,0,0,0-3.81,2.48c-.33.74-8,18.29-5.21,35.3a4.16,4.16,0,0,0,4.12,3.51,3.79,3.79,0,0,0,.67-.06,4.17,4.17,0,0,0,3.44-4.78c-2.35-14.48,4.54-30.44,4.61-30.6a4.19,4.19,0,0,0-2.13-5.5,4.26,4.26,0,0,0-1.69-.35Z"/><path class="cls-4" d="M36.17,154.8h6.29a.62.62,0,0,1,.62.62v4.2a3.76,3.76,0,0,1-3.76,3.76h0a3.76,3.76,0,0,1-3.76-3.76v-4.2A.62.62,0,0,1,36.17,154.8Z" transform="translate(-9.67 2.71) rotate(-3.51)"/><path class="cls-1" d="M79,181.79a25.39,25.39,0,0,1-2.83-.31c-.26,0-4.7-.77-6.27-.77h0a50.9,50.9,0,0,0-7.33,1.1l-.27.05a7.16,7.16,0,0,1-1.37.14,6.84,6.84,0,0,1-6-3.46,3.76,3.76,0,0,0,1.37,4.27c3,2.06,5.48,1.62,8.63,1.05a32.55,32.55,0,0,1,4.47-.58,39.87,39.87,0,0,1,7,.4c3.27.41,5.64.7,8.76-1.05a4.77,4.77,0,0,0,2.22-4.37A10.67,10.67,0,0,1,79,181.79Z"/><path class="cls-2" d="M79,168.24a11.47,11.47,0,0,0-4.75,1h0a7,7,0,0,0-3.36,3.83.43.43,0,0,1-.58.23.44.44,0,0,1-.23-.58,9.1,9.1,0,0,1,2-3.05,9.33,9.33,0,0,0-3.21-3.45,12.27,12.27,0,0,1-3.29.84h-.06a.42.42,0,0,1-.43-.38.44.44,0,0,1,.38-.5,11.52,11.52,0,0,0,3.24-.84l0,0c1.48-.66,2.4-1.59,2.4-2.58,0-1.92-3.44-3.54-7.52-3.54s-7.51,1.62-7.51,3.54c0,1.06,1.05,2,2.74,2.72l.06,0a11.31,11.31,0,0,0,2,.56.43.43,0,0,1,.35.51.45.45,0,0,1-.52.36,13.24,13.24,0,0,1-2-.54,9.24,9.24,0,0,0-3.5,10.85l0,.06A6,6,0,0,0,62.07,181l.27-.06a52.14,52.14,0,0,1,7.49-1.12,61.79,61.79,0,0,1,6.48.79h0a24,24,0,0,0,2.65.29c3.67,0,7-1.66,8.29-4.13a4.71,4.71,0,0,0,.56-2.21C87.83,171.08,83.86,168.24,79,168.24Z"/><path d="M88.71,174.57a5.49,5.49,0,0,1-.58,2.46,7.18,7.18,0,0,1,.06,2.12,5.4,5.4,0,0,1-2.63,4.26c-3.37,1.88-6,1.56-9.3,1.15a39.29,39.29,0,0,0-6.85-.4,32.54,32.54,0,0,0-4.35.57,23.18,23.18,0,0,1-4,.49,8.81,8.81,0,0,1-5.25-1.68c-1.45-1-2.66-3.2-1.39-6.17a10.18,10.18,0,0,1-.56-3.34,10.08,10.08,0,0,1,4-8.06c-1.62-.81-2.58-2-2.58-3.23,0-2.48,3.69-4.43,8.39-4.43s8.4,1.95,8.4,4.43a3.75,3.75,0,0,1-2.24,3,9.89,9.89,0,0,1,3,3.3,4.9,4.9,0,0,1,1.12-.66,12.32,12.32,0,0,1,5.1-1.07C84.35,167.35,88.71,170.59,88.71,174.57Zm-1.36,3.69A10.67,10.67,0,0,1,79,181.79a25.39,25.39,0,0,1-2.83-.31c-.26,0-4.7-.77-6.27-.77h0a50.9,50.9,0,0,0-7.33,1.1l-.27.05a7.16,7.16,0,0,1-1.37.14,6.84,6.84,0,0,1-6-3.46,3.76,3.76,0,0,0,1.37,4.27c3,2.06,5.48,1.62,8.63,1.05a32.55,32.55,0,0,1,4.47-.58,39.87,39.87,0,0,1,7,.4c3.27.41,5.64.7,8.76-1.05A4.77,4.77,0,0,0,87.35,178.26Zm.48-3.69c0-3.49-4-6.33-8.85-6.33a11.47,11.47,0,0,0-4.75,1h0a7,7,0,0,0-3.36,3.83.43.43,0,0,1-.58.23.44.44,0,0,1-.23-.58,9.1,9.1,0,0,1,2-3.05,9.33,9.33,0,0,0-3.21-3.45,12.27,12.27,0,0,1-3.29.84h-.06a.42.42,0,0,1-.43-.38.44.44,0,0,1,.38-.5,11.52,11.52,0,0,0,3.24-.84l0,0c1.48-.66,2.4-1.59,2.4-2.58,0-1.92-3.44-3.54-7.52-3.54s-7.51,1.62-7.51,3.54c0,1.06,1.05,2,2.74,2.72l.06,0a11.31,11.31,0,0,0,2,.56.43.43,0,0,1,.35.51.45.45,0,0,1-.52.36,13.24,13.24,0,0,1-2-.54,9.24,9.24,0,0,0-3.5,10.85l0,.06A6,6,0,0,0,62.07,181l.27-.06a52.14,52.14,0,0,1,7.49-1.12,61.79,61.79,0,0,1,6.48.79h0a24,24,0,0,0,2.65.29c3.67,0,7-1.66,8.29-4.13A4.71,4.71,0,0,0,87.83,174.57Z"/><path class="cls-3" d="M63.31,163.41a3.6,3.6,0,0,1-.56,0,3.51,3.51,0,0,1-2.9-4c2.38-14.61-4.58-30.81-4.65-31a3.5,3.5,0,1,1,6.41-2.83c.32.73,7.89,18.1,5.16,34.92A3.49,3.49,0,0,1,63.31,163.41Z"/><path d="M58.4,124.13a2.84,2.84,0,0,1,2.6,1.69c.32.72,7.81,17.93,5.11,34.55a2.84,2.84,0,0,1-2.8,2.38,3.42,3.42,0,0,1-.45,0,2.84,2.84,0,0,1-2.35-3.25c2.42-14.89-4.58-31.09-4.7-31.35a2.84,2.84,0,0,1,1.45-3.74,2.88,2.88,0,0,1,1.14-.24m0-1.34a4.18,4.18,0,0,0-3.88,2.67,4.15,4.15,0,0,0,.07,3.19c.07.15,7,16.12,4.6,30.59A4.19,4.19,0,0,0,62.64,164a5,5,0,0,0,.67.05,4.15,4.15,0,0,0,4.12-3.5c2.76-17-4.88-34.56-5.21-35.3a4.18,4.18,0,0,0-3.82-2.49Z"/><path class="cls-4" d="M63.58,155h0a3.76,3.76,0,0,1,3.76,3.76v4.2a.62.62,0,0,1-.62.62H60.44a.62.62,0,0,1-.62-.62v-4.2A3.76,3.76,0,0,1,63.58,155Z" transform="translate(117.29 322.1) rotate(-176.49)"/><path class="cls-5" d="M14.81,126.49a15.06,15.06,0,0,1-12.73-7.92,13.58,13.58,0,0,1-1.31-7.75,16,16,0,0,1,1-4.15C4,101.09,9.49,97.13,16.07,96.32a3.14,3.14,0,0,1,.77,6.23c-4.31.52-7.83,3-9.2,6.43a8.37,8.37,0,0,0,.05,6.77c1.49,3,5,4.72,8.87,4.48a3.14,3.14,0,0,1,.38,6.27A16.8,16.8,0,0,1,14.81,126.49Z"/><rect class="cls-6" x="81.51" y="92.3" width="5.1" height="39.46"/><path class="cls-3" d="M86.62,92.3H81.51a11.31,11.31,0,0,1-2-2c-2.58-3.29-4.25-8.58-4.25-14.53s1.75-11.45,4.41-14.73a11.49,11.49,0,0,1,1.79-1.77h5.11a12,12,0,0,0-1.8,1.77c-2.66,3.28-4.4,8.65-4.4,14.73s1.67,11.24,4.25,14.53A11,11,0,0,0,86.62,92.3Z"/><rect class="cls-6" x="81.51" y="40.27" width="5.1" height="19.04"/><path class="cls-7" d="M84.82,61.08c-2.66,3.28-4.4,8.65-4.4,14.73s1.67,11.24,4.25,14.53a11,11,0,0,0,2,2v39.46H21.2V91.34c.3-.31.6-.65.88-1,2.57-3.29,4.25-8.58,4.25-14.53s-1.74-11.45-4.41-14.73c-.23-.28-.47-.55-.72-.8v-20H86.62v19A11.54,11.54,0,0,0,84.82,61.08Z"/><path class="cls-8" d="M79.72,61.08c-2.66,3.28-4.41,8.65-4.41,14.73S77,87.05,79.56,90.34a11.31,11.31,0,0,0,2,2v39.46H21.2V91.34a10.66,10.66,0,0,0,.88-1c2.57-3.29,4.25-8.58,4.25-14.53s-1.75-11.45-4.41-14.73c-.23-.28-.47-.55-.72-.8v-20H81.51v19A11.49,11.49,0,0,0,79.72,61.08Z"/><path class="cls-9" d="M79.72,61.08c-2.66,3.28-4.41,8.65-4.41,14.73S77,87.05,79.56,90.34a11.31,11.31,0,0,0,2,2v39.46H16.1V91.34a12.23,12.23,0,0,0,.87-1c2.58-3.29,4.25-8.58,4.25-14.53s-1.74-11.45-4.4-14.73c-.24-.28-.48-.55-.72-.8v-20H81.51v19A11.49,11.49,0,0,0,79.72,61.08Z"/><path class="cls-10" d="M38.59,40.27h23a0,0,0,0,1,0,0V60.67a11.5,11.5,0,0,1-11.5,11.5h0a11.5,11.5,0,0,1-11.5-11.5V40.27A0,0,0,0,1,38.59,40.27Z"/><line class="cls-11" x1="49.88" y1="40.33" x2="49.88" y2="72.17"/><circle class="cls-12" cx="56.24" cy="53.92" r="2.33"/><line class="cls-13" x1="81.51" y1="59.31" x2="86.62" y2="59.31"/><line class="cls-13" x1="81.51" y1="92.3" x2="86.62" y2="92.3"/><ellipse class="cls-14" cx="61.43" cy="97.73" rx="7.91" ry="11.71"/><ellipse class="cls-14" cx="40.3" cy="97.11" rx="7.91" ry="11.71"/><ellipse class="cls-15" cx="41.15" cy="91.11" rx="4.07" ry="6.03"/><ellipse class="cls-15" cx="62.13" cy="92.11" rx="4.07" ry="6.03"/><path class="cls-16" d="M67.06,82.08s-4.2-4.39-8.27,0"/><path class="cls-16" d="M44.17,82.08s-4.2-4.39-8.27,0"/><circle class="cls-17" cx="63.61" cy="89.82" r="1.22"/><circle class="cls-17" cx="42.39" cy="88.82" r="1.22"/><path class="cls-18" d="M60.92,114.92a2.47,2.47,0,0,1,1.35,4.55,20,20,0,0,1-21.82,0,2.47,2.47,0,1,1,2.69-4.15,15.12,15.12,0,0,0,16.44,0A2.46,2.46,0,0,1,60.92,114.92Z"/><path class="cls-19" d="M41.79,116.57a.81.81,0,0,1,.45.13,16.79,16.79,0,0,0,18.24,0,.83.83,0,0,1,.9,1.39,18.43,18.43,0,0,1-20,0A.82.82,0,0,1,41.1,117,.81.81,0,0,1,41.79,116.57Z"/><ellipse class="cls-20" cx="17.75" cy="130.74" rx="1.21" ry="2.07" transform="translate(-107.62 89.63) rotate(-64.12)"/><path class="cls-21" d="M18,119.28h0a1.45,1.45,0,0,0-1.94-.18l0,0a8.16,8.16,0,0,0-3.29,7.28v.09A1.73,1.73,0,0,0,14.26,128h0a1.15,1.15,0,0,0,1.06-.49l2.27-3.26a6,6,0,0,0,1.06-3.15h0A2.58,2.58,0,0,0,18,119.28Z"/><path class="cls-22" d="M17.27,121.87h0a5.9,5.9,0,0,1,7.2.11,9.69,9.69,0,0,1,1.47,1.53,12,12,0,0,1,.78,1.23,6.19,6.19,0,0,1,.4,5h0a.6.6,0,0,1-1.07.15l-1.33-2"/><ellipse class="cls-17" cx="20.96" cy="126.44" rx="4.08" ry="5.25" transform="translate(-79.58 46.95) rotate(-42.26)"/><path class="cls-22" d="M25.24,127a5.63,5.63,0,0,1,1.14,2.19,3.61,3.61,0,0,1-1,3.52,3.54,3.54,0,0,1-.47.38,1.85,1.85,0,0,1-2.11-.09h0"/><path class="cls-22" d="M22.79,129.24a7.46,7.46,0,0,1,.71,3.4,2.5,2.5,0,0,1-.49,1.58,3.53,3.53,0,0,1-2.93,1.45h-.32a5.15,5.15,0,0,1-2.37-.83l-1.83-1.18a1.55,1.55,0,0,1-.63-1.88l0-.06a1,1,0,0,1,1.25-.55l2.34.7a.13.13,0,0,0,.12-.22l-1.26-1A4.91,4.91,0,0,1,15.62,126l.24-1.27"/><path class="cls-23" d="M83.56,100l.6,8.13A38.48,38.48,0,0,0,97.51,104a55,55,0,0,0,12.16-8.3A66.74,66.74,0,0,0,120.58,83l-6.79-4.74c-5.46,8.26-12.06,14.4-19.66,18.27A32.27,32.27,0,0,1,83.56,100Z"/><path class="cls-24" d="M112,73.92s-3,2.34.64,6.28c4.21,4.57,13.6,4.1,11.69-1.8Z"/><ellipse class="cls-17" cx="121.19" cy="72.78" rx="6.49" ry="6.36" transform="translate(4.51 152.59) rotate(-65.36)"/><path class="cls-17" d="M128.69,73.92a7.46,7.46,0,0,1-1.49,3.5,4.78,4.78,0,0,1-2.67,1.74h0a7.07,7.07,0,0,1-3.39,0l-1.28-.33"/><path d="M128.38,73.83c-.32,2.15-1.6,4.38-3.8,5a8.83,8.83,0,0,1-4.64-.31.32.32,0,0,0-.17.62,9.09,9.09,0,0,0,5.24.23A6.53,6.53,0,0,0,129,74c.06-.4-.56-.58-.62-.17Z"/><path class="cls-25" d="M126.45,66.26a3.7,3.7,0,0,1,3.84-.63,2.28,2.28,0,0,1,1.16,1.11,3.79,3.79,0,0,1,.35,1.81,4.52,4.52,0,0,1-.17,1,8.88,8.88,0,0,1-.29.91,7.09,7.09,0,0,1-2.07,3h0a4.48,4.48,0,0,1-2.15,1l-.2,0a2,2,0,0,1-1.57-.39h0a1.48,1.48,0,0,1-.57-1.2v-.13A4.89,4.89,0,0,1,126,69.71l1.88-2.13a0,0,0,0,0-.06-.07l-2.77,1.69a.08.08,0,0,1-.11-.1Z"/><path class="cls-25" d="M122.13,63.18a4,4,0,0,1,4.11-1,2.49,2.49,0,0,1,1.36,1.09,4.12,4.12,0,0,1,.55,1.94,5.33,5.33,0,0,1-.08,1.13c-.07.37-.15.7-.23,1a7.76,7.76,0,0,1-2,3.45h0a4.73,4.73,0,0,1-2.24,1.31l-.21.06a2.24,2.24,0,0,1-1.75-.28h0A1.62,1.62,0,0,1,121,70.6v-.14a5.31,5.31,0,0,1,1-3.5l1.84-2.48a.06.06,0,0,0-.08-.08l-2.85,2.1a.08.08,0,0,1-.12-.1Z"/><path class="cls-24" d="M116.06,64.67l2.86-7.24,1.83-4.61a2.8,2.8,0,0,1,3.31-1.69h0c1.29.63,1.84,1.93,1.83,3.71-.37,4.34-2.48,8.12-4.81,11.84Z"/><path class="cls-17" d="M116.68,77.39c-2.51-1.36-5.22-2.43-5-8,.12-2.46,1-4.07,2.47-4.88a2.93,2.93,0,0,1,1.91-.27,11.28,11.28,0,0,1,2.48.78,6.15,6.15,0,0,0,2.36.53,4.91,4.91,0,0,1,1,.12,2.36,2.36,0,0,1,1.83,2.25,2.4,2.4,0,0,1-1.25,2.29,4.54,4.54,0,0,1-2.46.65A6.53,6.53,0,0,1,116,69.22l3.5,2.25a1.51,1.51,0,0,0,.18.09,1.24,1.24,0,0,1,.56.64,3.08,3.08,0,0,1,.2,2L120,75.76"/><path d="M116.84,77.11a10.36,10.36,0,0,1-3.6-2.55c-1.31-1.73-1.43-4.28-1.07-6.33a5,5,0,0,1,1.37-2.86c1.09-1,2.35-.92,3.68-.51a15.15,15.15,0,0,0,3.61,1,3.39,3.39,0,0,1,1.77.43,2.1,2.1,0,0,1,.86,1.73c0,1.52-1.41,2.33-2.78,2.49A6.16,6.16,0,0,1,116.17,69l-.38.51,3.14,2,.36.23a2,2,0,0,1,.85,2,15.43,15.43,0,0,1-.42,1.88c-.09.4.53.57.62.17a13,13,0,0,0,.46-2.21,3.21,3.21,0,0,0-.47-1.84,2.19,2.19,0,0,0-.8-.65c-1.16-.7-2.28-1.47-3.42-2.2-.3-.19-.68.27-.39.51a7.18,7.18,0,0,0,4.15,1.74,4.46,4.46,0,0,0,3.67-1.42,2.87,2.87,0,0,0,.1-3.31c-.88-1.29-2.25-1.08-3.61-1.32-1.56-.27-3-1.31-4.58-1.27a3.88,3.88,0,0,0-3,1.82,7.44,7.44,0,0,0-1,3.94,9.61,9.61,0,0,0,.57,3.94c.84,2.08,2.68,3.08,4.55,4.1.37.19.69-.36.33-.56Z"/><path class="cls-26" d="M7.19,26.06a3.35,3.35,0,0,1-1.89-.41,1.6,1.6,0,0,1-.69-1A7.06,7.06,0,0,1,4.5,23.3l0-15.57a6.41,6.41,0,0,1,.12-1.26,1.54,1.54,0,0,1,.71-1,3.6,3.6,0,0,1,1.93-.39,3.41,3.41,0,0,1,1.8.34,3.83,3.83,0,0,1,.87.84l7.48,10.09,0-8.61A5,5,0,0,1,17.6,6.5a1.6,1.6,0,0,1,.7-1,3.53,3.53,0,0,1,1.92-.39,3.43,3.43,0,0,1,1.94.41,1.63,1.63,0,0,1,.67,1A7,7,0,0,1,23,7.89l0,15.48a6.88,6.88,0,0,1-.13,1.29,1.6,1.6,0,0,1-.69,1,3.5,3.5,0,0,1-2,.4,5.48,5.48,0,0,1-1.55-.17,1.73,1.73,0,0,1-.88-.64L10,15v8.34a7.83,7.83,0,0,1-.13,1.29,1.6,1.6,0,0,1-.69,1A3.5,3.5,0,0,1,7.19,26.06Z"/><path class="cls-26" d="M29.39,26.11a3.42,3.42,0,0,1-1.92-.41,1.56,1.56,0,0,1-.67-1,7.83,7.83,0,0,1-.11-1.29l0-9.78a6.59,6.59,0,0,1,.12-1.27,1.61,1.61,0,0,1,.69-1,3.43,3.43,0,0,1,1.92-.4,3.36,3.36,0,0,1,1.91.41,1.63,1.63,0,0,1,.67,1,7,7,0,0,1,.12,1.32l0,9.75A7.83,7.83,0,0,1,32,24.71a1.54,1.54,0,0,1-.67,1A3.57,3.57,0,0,1,29.39,26.11Zm0-16.68A3.36,3.36,0,0,1,27.51,9a1.57,1.57,0,0,1-.68-1,7.84,7.84,0,0,1-.1-1.29,6.75,6.75,0,0,1,.12-1.3,1.56,1.56,0,0,1,.7-1A3.53,3.53,0,0,1,29.47,4a3.32,3.32,0,0,1,1.9.41,1.63,1.63,0,0,1,.67,1A7,7,0,0,1,32,8a1.54,1.54,0,0,1-.68,1A3.54,3.54,0,0,1,29.42,9.43Z"/><path class="cls-26" d="M43.7,26.29A3,3,0,0,1,42.25,26a2.17,2.17,0,0,1-1-1L36,14.84a3.1,3.1,0,0,1-.41-2.16,2.68,2.68,0,0,1,1.62-1.52,3.43,3.43,0,0,1,2.22-.48q.81.21,1.47,1.71l2.8,6.43,2.84-6.41q.69-1.56,1.5-1.74a3.52,3.52,0,0,1,2.19.51c.94.47,1.48,1,1.62,1.58a3.15,3.15,0,0,1-.43,2.12L46.1,25a2.21,2.21,0,0,1-.93,1A3,3,0,0,1,43.7,26.29Z"/><path class="cls-26" d="M62.9,26.51a8.89,8.89,0,0,1-3.81-.74,7.06,7.06,0,0,1-2.52-1.93,8.07,8.07,0,0,1-1.4-2.57,8.29,8.29,0,0,1-.44-2.67,8.06,8.06,0,0,1,1.05-4.16,7.54,7.54,0,0,1,2.92-2.82,8.82,8.82,0,0,1,4.26-1,7.64,7.64,0,0,1,3.18.61,6.21,6.21,0,0,1,3.35,3.51,5.72,5.72,0,0,1,.39,2,3.65,3.65,0,0,1-.85,2.6,2.82,2.82,0,0,1-2.16.9H60.48A1.64,1.64,0,0,0,61,21a2.53,2.53,0,0,0,.94.54,3.78,3.78,0,0,0,1.23.2,8.17,8.17,0,0,0,1.17-.07,5.57,5.57,0,0,0,.88-.19l.69-.24.57-.2A1.77,1.77,0,0,1,67,21a1.55,1.55,0,0,1,1,.36,3.18,3.18,0,0,1,.81,1.08,3.38,3.38,0,0,1,.3.74,2.49,2.49,0,0,1,.08.64,1.86,1.86,0,0,1-.73,1.5,5,5,0,0,1-2.12.91A15.54,15.54,0,0,1,62.9,26.51Zm-2.41-9.15h3.36a.87.87,0,0,0,.61-.18.7.7,0,0,0,.2-.54,1,1,0,0,0-.22-.66,1.36,1.36,0,0,0-.62-.4,2.84,2.84,0,0,0-.93-.14,2.66,2.66,0,0,0-1.26.28,2.26,2.26,0,0,0-.83.72A1.87,1.87,0,0,0,60.49,17.36Z"/><path class="cls-26" d="M79.46,26.22A23.71,23.71,0,0,1,77,26.09a5.25,5.25,0,0,1-1.75-.48,3,3,0,0,1-1.17-1,4.65,4.65,0,0,1-.65-1.77,15,15,0,0,1-.21-2.75l0-13.29a6.75,6.75,0,0,1,.12-1.3,1.61,1.61,0,0,1,.69-1A3.49,3.49,0,0,1,76,4a3.32,3.32,0,0,1,1.9.41,1.61,1.61,0,0,1,.67,1,7,7,0,0,1,.12,1.32l0,12.93c0,.3,0,.54,0,.71a.8.8,0,0,0,.09.37A.25.25,0,0,0,79,21l.46,0a3.61,3.61,0,0,1,.83.1,1.26,1.26,0,0,1,.74.63,3.68,3.68,0,0,1,.31,1.82,4.25,4.25,0,0,1-.31,1.92,1.25,1.25,0,0,1-.77.67A3.73,3.73,0,0,1,79.46,26.22Z"/><path class="cls-26" d="M95.51,26.31a2.58,2.58,0,0,1-1.92-.84,2.75,2.75,0,0,1-.81-2,4.2,4.2,0,0,1,.14-1.08,4.77,4.77,0,0,1,.38-1,4.51,4.51,0,0,1,.57-.85,9.21,9.21,0,0,1,1.92-1.8c.76-.54,1.56-1,2.38-1.52s1.59-1,2.31-1.44a7.74,7.74,0,0,0,1.76-1.56,2.86,2.86,0,0,0,.68-1.85,2.94,2.94,0,0,0-.14-.77,1.66,1.66,0,0,0-.61-.84,2.49,2.49,0,0,0-1.53-.38,3.15,3.15,0,0,0-1.08.16,1.69,1.69,0,0,0-.72.48,2.07,2.07,0,0,0-.41.78,3.87,3.87,0,0,0-.13,1.07,6,6,0,0,1-.13,1.21,1.49,1.49,0,0,1-.69,1,3.73,3.73,0,0,1-2,.37,3.42,3.42,0,0,1-1.92-.41A1.62,1.62,0,0,1,92.92,14a7.17,7.17,0,0,1-.11-1.31A7.67,7.67,0,0,1,93.34,10a7.91,7.91,0,0,1,1.55-2.51,8,8,0,0,1,2.46-1.81A7.62,7.62,0,0,1,100.62,5a7.54,7.54,0,0,1,4,1.07,8.13,8.13,0,0,1,2.82,2.86,7.86,7.86,0,0,1,1,4,7.34,7.34,0,0,1-.49,2.67,8.24,8.24,0,0,1-1.25,2.14,10,10,0,0,1-1.64,1.62,13,13,0,0,1-1.68,1.1,10.89,10.89,0,0,1-1.35.64,2.94,2.94,0,0,1-.66.21l.3-.48h4.74a7,7,0,0,1,1.32.13,1.54,1.54,0,0,1,1,.7,3.63,3.63,0,0,1,.38,2,3.42,3.42,0,0,1-.4,1.9,1.65,1.65,0,0,1-1.06.71,8.23,8.23,0,0,1-1.33.11Z"/><path class="cls-27" d="M7.19,26.06a3.35,3.35,0,0,1-1.89-.41,1.6,1.6,0,0,1-.69-1A7.06,7.06,0,0,1,4.5,23.3l0-15.57a6.41,6.41,0,0,1,.12-1.26,1.54,1.54,0,0,1,.71-1,3.6,3.6,0,0,1,1.93-.39,3.41,3.41,0,0,1,1.8.34,3.83,3.83,0,0,1,.87.84l7.48,10.09,0-8.61A5,5,0,0,1,17.6,6.5a1.6,1.6,0,0,1,.7-1,3.53,3.53,0,0,1,1.92-.39,3.43,3.43,0,0,1,1.94.41,1.63,1.63,0,0,1,.67,1A7,7,0,0,1,23,7.89l0,15.48a6.88,6.88,0,0,1-.13,1.29,1.6,1.6,0,0,1-.69,1,3.5,3.5,0,0,1-2,.4,5.48,5.48,0,0,1-1.55-.17,1.73,1.73,0,0,1-.88-.64L10,15v8.34a7.83,7.83,0,0,1-.13,1.29,1.6,1.6,0,0,1-.69,1A3.5,3.5,0,0,1,7.19,26.06Z"/><path class="cls-27" d="M29.39,26.11a3.42,3.42,0,0,1-1.92-.41,1.56,1.56,0,0,1-.67-1,7.83,7.83,0,0,1-.11-1.29l0-9.78a6.59,6.59,0,0,1,.12-1.27,1.61,1.61,0,0,1,.69-1,3.43,3.43,0,0,1,1.92-.4,3.36,3.36,0,0,1,1.91.41,1.63,1.63,0,0,1,.67,1,7,7,0,0,1,.12,1.32l0,9.75A7.83,7.83,0,0,1,32,24.71a1.54,1.54,0,0,1-.67,1A3.57,3.57,0,0,1,29.39,26.11Zm0-16.68A3.36,3.36,0,0,1,27.51,9a1.57,1.57,0,0,1-.68-1,7.84,7.84,0,0,1-.1-1.29,6.75,6.75,0,0,1,.12-1.3,1.56,1.56,0,0,1,.7-1A3.53,3.53,0,0,1,29.47,4a3.32,3.32,0,0,1,1.9.41,1.63,1.63,0,0,1,.67,1A7,7,0,0,1,32,8a1.54,1.54,0,0,1-.68,1A3.54,3.54,0,0,1,29.42,9.43Z"/><path class="cls-27" d="M43.7,26.29A3,3,0,0,1,42.25,26a2.17,2.17,0,0,1-1-1L36,14.84a3.1,3.1,0,0,1-.41-2.16,2.68,2.68,0,0,1,1.62-1.52,3.43,3.43,0,0,1,2.22-.48q.81.21,1.47,1.71l2.8,6.43,2.84-6.41q.69-1.56,1.5-1.74a3.52,3.52,0,0,1,2.19.51c.94.47,1.48,1,1.62,1.58a3.15,3.15,0,0,1-.43,2.12L46.1,25a2.21,2.21,0,0,1-.93,1A3,3,0,0,1,43.7,26.29Z"/><path class="cls-27" d="M62.9,26.51a8.89,8.89,0,0,1-3.81-.74,7.06,7.06,0,0,1-2.52-1.93,8.07,8.07,0,0,1-1.4-2.57,8.29,8.29,0,0,1-.44-2.67,8.06,8.06,0,0,1,1.05-4.16,7.54,7.54,0,0,1,2.92-2.82,8.82,8.82,0,0,1,4.26-1,7.64,7.64,0,0,1,3.18.61,6.21,6.21,0,0,1,3.35,3.51,5.72,5.72,0,0,1,.39,2,3.65,3.65,0,0,1-.85,2.6,2.82,2.82,0,0,1-2.16.9H60.48A1.64,1.64,0,0,0,61,21a2.53,2.53,0,0,0,.94.54,3.78,3.78,0,0,0,1.23.2,8.17,8.17,0,0,0,1.17-.07,5.57,5.57,0,0,0,.88-.19l.69-.24.57-.2A1.77,1.77,0,0,1,67,21a1.55,1.55,0,0,1,1,.36,3.18,3.18,0,0,1,.81,1.08,3.38,3.38,0,0,1,.3.74,2.49,2.49,0,0,1,.08.64,1.86,1.86,0,0,1-.73,1.5,5,5,0,0,1-2.12.91A15.54,15.54,0,0,1,62.9,26.51Zm-2.41-9.15h3.36a.87.87,0,0,0,.61-.18.7.7,0,0,0,.2-.54,1,1,0,0,0-.22-.66,1.36,1.36,0,0,0-.62-.4,2.84,2.84,0,0,0-.93-.14,2.66,2.66,0,0,0-1.26.28,2.26,2.26,0,0,0-.83.72A1.87,1.87,0,0,0,60.49,17.36Z"/><path class="cls-27" d="M79.46,26.22A23.71,23.71,0,0,1,77,26.09a5.25,5.25,0,0,1-1.75-.48,3,3,0,0,1-1.17-1,4.65,4.65,0,0,1-.65-1.77,15,15,0,0,1-.21-2.75l0-13.29a6.75,6.75,0,0,1,.12-1.3,1.61,1.61,0,0,1,.69-1A3.49,3.49,0,0,1,76,4a3.32,3.32,0,0,1,1.9.41,1.61,1.61,0,0,1,.67,1,7,7,0,0,1,.12,1.32l0,12.93c0,.3,0,.54,0,.71a.8.8,0,0,0,.09.37A.25.25,0,0,0,79,21l.46,0a3.61,3.61,0,0,1,.83.1,1.26,1.26,0,0,1,.74.63,3.68,3.68,0,0,1,.31,1.82,4.25,4.25,0,0,1-.31,1.92,1.25,1.25,0,0,1-.77.67A3.73,3.73,0,0,1,79.46,26.22Z"/><path class="cls-27" d="M95.51,26.31a2.58,2.58,0,0,1-1.92-.84,2.75,2.75,0,0,1-.81-2,4.2,4.2,0,0,1,.14-1.08,4.77,4.77,0,0,1,.38-1,4.51,4.51,0,0,1,.57-.85,9.21,9.21,0,0,1,1.92-1.8c.76-.54,1.56-1,2.38-1.52s1.59-1,2.31-1.44a7.74,7.74,0,0,0,1.76-1.56,2.86,2.86,0,0,0,.68-1.85,2.94,2.94,0,0,0-.14-.77,1.66,1.66,0,0,0-.61-.84,2.49,2.49,0,0,0-1.53-.38,3.15,3.15,0,0,0-1.08.16,1.69,1.69,0,0,0-.72.48,2.07,2.07,0,0,0-.41.78,3.87,3.87,0,0,0-.13,1.07,6,6,0,0,1-.13,1.21,1.49,1.49,0,0,1-.69,1,3.73,3.73,0,0,1-2,.37,3.42,3.42,0,0,1-1.92-.41A1.62,1.62,0,0,1,92.92,14a7.17,7.17,0,0,1-.11-1.31A7.67,7.67,0,0,1,93.34,10a7.91,7.91,0,0,1,1.55-2.51,8,8,0,0,1,2.46-1.81A7.62,7.62,0,0,1,100.62,5a7.54,7.54,0,0,1,4,1.07,8.13,8.13,0,0,1,2.82,2.86,7.86,7.86,0,0,1,1,4,7.34,7.34,0,0,1-.49,2.67,8.24,8.24,0,0,1-1.25,2.14,10,10,0,0,1-1.64,1.62,13,13,0,0,1-1.68,1.1,10.89,10.89,0,0,1-1.35.64,2.94,2.94,0,0,1-.66.21l.3-.48h4.74a7,7,0,0,1,1.32.13,1.54,1.54,0,0,1,1,.7,3.63,3.63,0,0,1,.38,2,3.42,3.42,0,0,1-.4,1.9,1.65,1.65,0,0,1-1.06.71,8.23,8.23,0,0,1-1.33.11Z"/><path class="cls-17" d="M7.19,26.06a3.35,3.35,0,0,1-1.89-.41,1.6,1.6,0,0,1-.69-1A7.06,7.06,0,0,1,4.5,23.3l0-15.57a6.41,6.41,0,0,1,.12-1.26,1.54,1.54,0,0,1,.71-1,3.6,3.6,0,0,1,1.93-.39,3.41,3.41,0,0,1,1.8.34,3.83,3.83,0,0,1,.87.84l7.48,10.09,0-8.61A5,5,0,0,1,17.6,6.5a1.6,1.6,0,0,1,.7-1,3.53,3.53,0,0,1,1.92-.39,3.43,3.43,0,0,1,1.94.41,1.63,1.63,0,0,1,.67,1A7,7,0,0,1,23,7.89l0,15.48a6.88,6.88,0,0,1-.13,1.29,1.6,1.6,0,0,1-.69,1,3.5,3.5,0,0,1-2,.4,5.48,5.48,0,0,1-1.55-.17,1.73,1.73,0,0,1-.88-.64L10,15v8.34a7.83,7.83,0,0,1-.13,1.29,1.6,1.6,0,0,1-.69,1A3.5,3.5,0,0,1,7.19,26.06Z"/><path class="cls-17" d="M29.39,26.11a3.42,3.42,0,0,1-1.92-.41,1.56,1.56,0,0,1-.67-1,7.83,7.83,0,0,1-.11-1.29l0-9.78a6.59,6.59,0,0,1,.12-1.27,1.61,1.61,0,0,1,.69-1,3.43,3.43,0,0,1,1.92-.4,3.36,3.36,0,0,1,1.91.41,1.63,1.63,0,0,1,.67,1,7,7,0,0,1,.12,1.32l0,9.75A7.83,7.83,0,0,1,32,24.71a1.54,1.54,0,0,1-.67,1A3.57,3.57,0,0,1,29.39,26.11Zm0-16.68A3.36,3.36,0,0,1,27.51,9a1.57,1.57,0,0,1-.68-1,7.84,7.84,0,0,1-.1-1.29,6.75,6.75,0,0,1,.12-1.3,1.56,1.56,0,0,1,.7-1A3.53,3.53,0,0,1,29.47,4a3.32,3.32,0,0,1,1.9.41,1.63,1.63,0,0,1,.67,1A7,7,0,0,1,32,8a1.54,1.54,0,0,1-.68,1A3.54,3.54,0,0,1,29.42,9.43Z"/><path class="cls-17" d="M43.7,26.29A3,3,0,0,1,42.25,26a2.17,2.17,0,0,1-1-1L36,14.84a3.1,3.1,0,0,1-.41-2.16,2.68,2.68,0,0,1,1.62-1.52,3.43,3.43,0,0,1,2.22-.48q.81.21,1.47,1.71l2.8,6.43,2.84-6.41q.69-1.56,1.5-1.74a3.52,3.52,0,0,1,2.19.51c.94.47,1.48,1,1.62,1.58a3.15,3.15,0,0,1-.43,2.12L46.1,25a2.21,2.21,0,0,1-.93,1A3,3,0,0,1,43.7,26.29Z"/><path class="cls-17" d="M62.9,26.51a8.89,8.89,0,0,1-3.81-.74,7.06,7.06,0,0,1-2.52-1.93,8.07,8.07,0,0,1-1.4-2.57,8.29,8.29,0,0,1-.44-2.67,8.06,8.06,0,0,1,1.05-4.16,7.54,7.54,0,0,1,2.92-2.82,8.82,8.82,0,0,1,4.26-1,7.64,7.64,0,0,1,3.18.61,6.21,6.21,0,0,1,3.35,3.51,5.72,5.72,0,0,1,.39,2,3.65,3.65,0,0,1-.85,2.6,2.82,2.82,0,0,1-2.16.9H60.48A1.64,1.64,0,0,0,61,21a2.53,2.53,0,0,0,.94.54,3.78,3.78,0,0,0,1.23.2,8.17,8.17,0,0,0,1.17-.07,5.57,5.57,0,0,0,.88-.19l.69-.24.57-.2A1.77,1.77,0,0,1,67,21a1.55,1.55,0,0,1,1,.36,3.18,3.18,0,0,1,.81,1.08,3.38,3.38,0,0,1,.3.74,2.49,2.49,0,0,1,.08.64,1.86,1.86,0,0,1-.73,1.5,5,5,0,0,1-2.12.91A15.54,15.54,0,0,1,62.9,26.51Zm-2.41-9.15h3.36a.87.87,0,0,0,.61-.18.7.7,0,0,0,.2-.54,1,1,0,0,0-.22-.66,1.36,1.36,0,0,0-.62-.4,2.84,2.84,0,0,0-.93-.14,2.66,2.66,0,0,0-1.26.28,2.26,2.26,0,0,0-.83.72A1.87,1.87,0,0,0,60.49,17.36Z"/><path class="cls-17" d="M79.46,26.22A23.71,23.71,0,0,1,77,26.09a5.25,5.25,0,0,1-1.75-.48,3,3,0,0,1-1.17-1,4.65,4.65,0,0,1-.65-1.77,15,15,0,0,1-.21-2.75l0-13.29a6.75,6.75,0,0,1,.12-1.3,1.61,1.61,0,0,1,.69-1A3.49,3.49,0,0,1,76,4a3.32,3.32,0,0,1,1.9.41,1.61,1.61,0,0,1,.67,1,7,7,0,0,1,.12,1.32l0,12.93c0,.3,0,.54,0,.71a.8.8,0,0,0,.09.37A.25.25,0,0,0,79,21l.46,0a3.61,3.61,0,0,1,.83.1,1.26,1.26,0,0,1,.74.63,3.68,3.68,0,0,1,.31,1.82,4.25,4.25,0,0,1-.31,1.92,1.25,1.25,0,0,1-.77.67A3.73,3.73,0,0,1,79.46,26.22Z"/><path class="cls-17" d="M95.51,26.31a2.58,2.58,0,0,1-1.92-.84,2.75,2.75,0,0,1-.81-2,4.2,4.2,0,0,1,.14-1.08,4.77,4.77,0,0,1,.38-1,4.51,4.51,0,0,1,.57-.85,9.21,9.21,0,0,1,1.92-1.8c.76-.54,1.56-1,2.38-1.52s1.59-1,2.31-1.44a7.74,7.74,0,0,0,1.76-1.56,2.86,2.86,0,0,0,.68-1.85,2.94,2.94,0,0,0-.14-.77,1.66,1.66,0,0,0-.61-.84,2.49,2.49,0,0,0-1.53-.38,3.15,3.15,0,0,0-1.08.16,1.69,1.69,0,0,0-.72.48,2.07,2.07,0,0,0-.41.78,3.87,3.87,0,0,0-.13,1.07,6,6,0,0,1-.13,1.21,1.49,1.49,0,0,1-.69,1,3.73,3.73,0,0,1-2,.37,3.42,3.42,0,0,1-1.92-.41A1.62,1.62,0,0,1,92.92,14a7.17,7.17,0,0,1-.11-1.31A7.67,7.67,0,0,1,93.34,10a7.91,7.91,0,0,1,1.55-2.51,8,8,0,0,1,2.46-1.81A7.62,7.62,0,0,1,100.62,5a7.54,7.54,0,0,1,4,1.07,8.13,8.13,0,0,1,2.82,2.86,7.86,7.86,0,0,1,1,4,7.34,7.34,0,0,1-.49,2.67,8.24,8.24,0,0,1-1.25,2.14,10,10,0,0,1-1.64,1.62,13,13,0,0,1-1.68,1.1,10.89,10.89,0,0,1-1.35.64,2.94,2.94,0,0,1-.66.21l.3-.48h4.74a7,7,0,0,1,1.32.13,1.54,1.54,0,0,1,1,.7,3.63,3.63,0,0,1,.38,2,3.42,3.42,0,0,1-.4,1.9,1.65,1.65,0,0,1-1.06.71,8.23,8.23,0,0,1-1.33.11Z"/></g></g></svg>