<svg xmlns="http://www.w3.org/2000/svg" viewBox="0 0 640.01 70.9"><defs><style>.cls-1{fill:#fff;}.cls-2{fill:none;stroke:#964106;stroke-linejoin:round;stroke-width:12px;}</style></defs><title>ta</title><g id="Layer_2" data-name="Layer 2"><g id="pizarra"><path class="cls-1" d="M12.08,64a7.77,7.77,0,0,1-4.24-.88,3.54,3.54,0,0,1-1.56-2.33,15.16,15.16,0,0,1-.28-3L6,14.15a12.75,12.75,0,0,1,.32-2.92A3.64,3.64,0,0,1,8,9a7.7,7.7,0,0,1,4.24-.88h16.4a20.3,20.3,0,0,1,6.72,1.2A19.45,19.45,0,0,1,41.67,13a19.24,19.24,0,0,1,4.71,6.2,19.43,19.43,0,0,1,1.8,8.64,19.2,19.2,0,0,1-1.81,8.6,18.91,18.91,0,0,1-4.72,6.12,20,20,0,0,1-6.36,3.67,20.58,20.58,0,0,1-6.8,1.2H18.25V57.92a13.2,13.2,0,0,1-.32,2.92,3.77,3.77,0,0,1-1.6,2.28A7.72,7.72,0,0,1,12.08,64Zm6.17-28.72H28.57a8.44,8.44,0,0,0,3.48-.76,6.89,6.89,0,0,0,2.89-2.44,7.47,7.47,0,0,0,1.16-4.32,7.5,7.5,0,0,0-1-3.92,7.3,7.3,0,0,0-2.68-2.64,7.75,7.75,0,0,0-3.92-1H18.26Z"/><path class="cls-1" d="M72.16,64a16.74,16.74,0,0,1-7-1.44,17.08,17.08,0,0,1-5.6-4,18.44,18.44,0,0,1-3.72-6.17,22,22,0,0,1-1.31-7.8V30a14.52,14.52,0,0,1,.28-3,3.51,3.51,0,0,1,1.56-2.24A7.8,7.8,0,0,1,60.66,24a7.5,7.5,0,0,1,4.2.88,3.64,3.64,0,0,1,1.52,2.28,15.76,15.76,0,0,1,.28,3v14.4a9.11,9.11,0,0,0,.83,4A5.68,5.68,0,0,0,70,51.15a8.17,8.17,0,0,0,3.88.89,8,8,0,0,0,4-.92,6.47,6.47,0,0,0,2.56-2.6,8.13,8.13,0,0,0,.93-4V30a14.45,14.45,0,0,1,.28-3,3.34,3.34,0,0,1,1.56-2.2A8,8,0,0,1,87.38,24a7.49,7.49,0,0,1,4.2.89,3.59,3.59,0,0,1,1.52,2.28,15.31,15.31,0,0,1,.28,2.92l0,28.16a14.17,14.17,0,0,1-.28,2.84,3.28,3.28,0,0,1-1.56,2.12,8.23,8.23,0,0,1-4.16.79A9.31,9.31,0,0,1,84,63.48a4.08,4.08,0,0,1-1.76-1.2,3.19,3.19,0,0,1-.68-1.52,9.73,9.73,0,0,1-.12-1.44l1-.88a8.6,8.6,0,0,1-1,1.24,18.67,18.67,0,0,1-2.12,1.84,13.54,13.54,0,0,1-3.08,1.72A10.58,10.58,0,0,1,72.16,64Z"/><path class="cls-1" d="M107.35,64a7.84,7.84,0,0,1-4.19-.85,3.39,3.39,0,0,1-1.52-2.24,14.54,14.54,0,0,1-.28-2.92l0-28.16a13.48,13.48,0,0,1,.28-2.84,3.22,3.22,0,0,1,1.56-2.12,8.32,8.32,0,0,1,4.24-.79,7.84,7.84,0,0,1,3.76.68,3.26,3.26,0,0,1,1.56,1.64,5.14,5.14,0,0,1,.36,1.8,2.82,2.82,0,0,0,.16,1.16l-.48,1.52a4.7,4.7,0,0,1,1.24-2.44,11.39,11.39,0,0,1,2.72-2.24,14.86,14.86,0,0,1,3.52-1.56,12.7,12.7,0,0,1,3.72-.55,16,16,0,0,1,6.84,1.4,13.84,13.84,0,0,1,5.08,4,18.79,18.79,0,0,1,3.15,6.2,26.84,26.84,0,0,1,1.08,7.8V58.08a15.46,15.46,0,0,1-.28,2.92,3.32,3.32,0,0,1-1.52,2.19,8.3,8.3,0,0,1-4.28.8,8.07,8.07,0,0,1-4.25-.84,3.39,3.39,0,0,1-1.55-2.24A14.61,14.61,0,0,1,128,58V43.51a9,9,0,0,0-.84-4.08,5.84,5.84,0,0,0-2.4-2.56,7.76,7.76,0,0,0-3.88-.89,8.24,8.24,0,0,0-4,.92,6.38,6.38,0,0,0-2.6,2.6,8.24,8.24,0,0,0-.92,4V58.06a15.38,15.38,0,0,1-.28,2.92,3.34,3.34,0,0,1-1.52,2.2A8.2,8.2,0,0,1,107.35,64Z"/><path class="cls-1" d="M150.5,24.72h8.8l11-.32a14.81,14.81,0,0,1,2.88.28,3.56,3.56,0,0,1,2.24,1.57,7.78,7.78,0,0,1,.87,4.24,7.47,7.47,0,0,1-.84,4,3.67,3.67,0,0,1-2.2,1.63,11.54,11.54,0,0,1-3,.36l-10.48-.24-9.68.07a4,4,0,0,1-3.24-1.48A8.07,8.07,0,0,1,146,30.4a6.76,6.76,0,0,1,1.13-4.28A4,4,0,0,1,150.5,24.72Zm18.05,39.37a25.15,25.15,0,0,1-7-.88,11.5,11.5,0,0,1-4.83-2.72,11.19,11.19,0,0,1-2.8-4.69A22.1,22.1,0,0,1,153,49l0-32.4a14.45,14.45,0,0,1,.28-3,3.39,3.39,0,0,1,1.57-2.12,7.74,7.74,0,0,1,4.16-.83,7.46,7.46,0,0,1,4.15.88,3.52,3.52,0,0,1,1.56,2.28,14.61,14.61,0,0,1,.28,2.92l0,31.76a9.59,9.59,0,0,0,.2,2.12,2.53,2.53,0,0,0,.6,1.24,2.24,2.24,0,0,0,1.12.56,8.06,8.06,0,0,0,1.76.16,13.93,13.93,0,0,1,3.12.32,3.44,3.44,0,0,1,2.12,1.45,7,7,0,0,1,.76,3.75,7.47,7.47,0,0,1-.89,4.16,3.35,3.35,0,0,1-2.28,1.52A17.18,17.18,0,0,1,168.55,64.09Z"/><path class="cls-1" d="M201.67,64.75a20.25,20.25,0,0,1-7.48-1.48,22.44,22.44,0,0,1-6.75-4.21,20.16,20.16,0,0,1-4.84-6.52,19.32,19.32,0,0,1-1.79-8.44,19.76,19.76,0,0,1,1.64-8A21.66,21.66,0,0,1,193.58,25a19.55,19.55,0,0,1,8-1.64A20.17,20.17,0,0,1,212,26.08a21,21,0,0,1,7.47,7.48A20.13,20.13,0,0,1,222.25,44a20.16,20.16,0,0,1-1.81,8.68,20.49,20.49,0,0,1-4.8,6.52A21.3,21.3,0,0,1,209,63.36,20.26,20.26,0,0,1,201.67,64.75Zm-.15-12.08a9,9,0,0,0,3.92-1,8.63,8.63,0,0,0,3.36-2.87A8.3,8.3,0,0,0,210.17,44a8.79,8.79,0,0,0-1.12-4.48,8,8,0,0,0-3.08-3,9.21,9.21,0,0,0-4.52-1.08,8.16,8.16,0,0,0-4.28,1.12,8.63,8.63,0,0,0-3,3.08A8.45,8.45,0,0,0,193,44a8.4,8.4,0,0,0,1.31,4.84,8,8,0,0,0,3.32,2.88A9.38,9.38,0,0,0,201.52,52.67Z"/><path class="cls-1" d="M266.71,64.07a16,16,0,0,1-7-1.56,18.76,18.76,0,0,1-5.83-4.37,21.27,21.27,0,0,1-4-6.44A20.05,20.05,0,0,1,248.41,44a19.23,19.23,0,0,1,1.48-7.48A20.92,20.92,0,0,1,254,30.18a20.14,20.14,0,0,1,5.89-4.35,15.43,15.43,0,0,1,6.88-1.6,13.69,13.69,0,0,1,11.63,5.85,20.2,20.2,0,0,1,3,6.32,29.58,29.58,0,0,1,1.12,7.52,30.14,30.14,0,0,1-1,7.68,19.68,19.68,0,0,1-3,6.4,15,15,0,0,1-5,4.43A13.87,13.87,0,0,1,266.71,64.07Zm1.61-11.84a7.15,7.15,0,0,0,3.88-1.08,8.4,8.4,0,0,0,2.8-2.91,7.93,7.93,0,0,0,1.08-4.08,7.84,7.84,0,0,0-1-4,8.16,8.16,0,0,0-2.8-2.89,7.49,7.49,0,0,0-4-1.08,7.81,7.81,0,0,0-4,1,7.19,7.19,0,0,0-2.8,2.88,8.33,8.33,0,0,0-1,4.08,8.09,8.09,0,0,0,1,4.08,7.89,7.89,0,0,0,6.8,4Zm13.91,11.93a7.45,7.45,0,0,1-4-.88,4.15,4.15,0,0,1-1.71-2.72l0-48.48a19.57,19.57,0,0,1,.21-2.92,3.28,3.28,0,0,1,1.4-2.28A7.09,7.09,0,0,1,282.19,6a7.8,7.8,0,0,1,4.24.84A3.68,3.68,0,0,1,288,9a13.18,13.18,0,0,1,.31,3l0,46.08A15.31,15.31,0,0,1,288,61a3.57,3.57,0,0,1-1.53,2.28A7.45,7.45,0,0,1,282.23,64.16Z"/><path class="cls-1" d="M316.15,64.9a23.09,23.09,0,0,1-9.64-1.85,18.56,18.56,0,0,1-6.59-4.84,20.59,20.59,0,0,1-3.84-6.68,22.37,22.37,0,0,1-1.28-7.36,20.77,20.77,0,0,1,2.73-10.64,19.66,19.66,0,0,1,7.57-7.32,22.54,22.54,0,0,1,11.08-2.67,20,20,0,0,1,8,1.49,16.48,16.48,0,0,1,5.59,3.84A16.16,16.16,0,0,1,333.09,34a14.08,14.08,0,0,1,1.08,5.2q0,4.4-2.13,6.56a7.23,7.23,0,0,1-5.4,2.16l-19,0a5.66,5.66,0,0,0,1.48,3.45,9,9,0,0,0,3.32,2.24,11.38,11.38,0,0,0,4.24.8,23.88,23.88,0,0,0,3.32-.2,12.83,12.83,0,0,0,2.52-.56c.69-.24,1.32-.48,1.88-.71s1.08-.44,1.56-.6a6.81,6.81,0,0,1,1.36-.32,3.2,3.2,0,0,1,2.16.68,6.57,6.57,0,0,1,1.84,2.28,6.14,6.14,0,0,1,.76,1.68,6.74,6.74,0,0,1,.2,1.6,4.31,4.31,0,0,1-2,3.48A15.15,15.15,0,0,1,324.75,64,36.7,36.7,0,0,1,316.15,64.9Zm-8.54-23.69h12.64a3.19,3.19,0,0,0,1.84-.44,2,2,0,0,0,.64-1.72,3.92,3.92,0,0,0-.88-2.48,5.66,5.66,0,0,0-2.36-1.72,9.25,9.25,0,0,0-3.48-.6,9.53,9.53,0,0,0-4.32,1,7.63,7.63,0,0,0-3,2.56A6,6,0,0,0,307.61,41.21Z"/><path class="cls-1" d="M368.23,64.21a7.7,7.7,0,0,1-4.24-.88A3.6,3.6,0,0,1,362.43,61a15.23,15.23,0,0,1-.27-3l0-43.68a13.26,13.26,0,0,1,.32-2.92,3.77,3.77,0,0,1,1.6-2.28,7.72,7.72,0,0,1,4.24-.88h16.41a20.29,20.29,0,0,1,6.71,1.2,19.6,19.6,0,0,1,6.36,3.73,19.23,19.23,0,0,1,4.72,6.2,19.49,19.49,0,0,1,1.79,8.64,19.17,19.17,0,0,1-1.8,8.6,18.83,18.83,0,0,1-4.73,6.12,19.82,19.82,0,0,1-6.36,3.68,20.78,20.78,0,0,1-6.8,1.19H374.4V58.14a12.75,12.75,0,0,1-.32,2.92,3.64,3.64,0,0,1-1.6,2.27A7.7,7.7,0,0,1,368.23,64.21Zm6.18-28.71h10.32a8.51,8.51,0,0,0,3.48-.76,6.79,6.79,0,0,0,2.88-2.43A7.47,7.47,0,0,0,392.25,28a7.47,7.47,0,0,0-1-3.92,7.15,7.15,0,0,0-2.67-2.65,7.77,7.77,0,0,0-3.92-1H374.42Z"/><path class="cls-1" d="M443.75,64.18a7.49,7.49,0,0,1-4.4-1.05A2.87,2.87,0,0,1,438,60.57l.8-1.36a8.66,8.66,0,0,1-1.84,2,13.21,13.21,0,0,1-3.56,2.08,13.85,13.85,0,0,1-5.32.92,15.89,15.89,0,0,1-7-1.61,19,19,0,0,1-5.88-4.44,22.77,22.77,0,0,1-4.07-6.44,19.42,19.42,0,0,1-1.52-7.6,18.71,18.71,0,0,1,1.53-7.48,21.42,21.42,0,0,1,4.12-6.32,20.31,20.31,0,0,1,5.88-4.36,15.77,15.77,0,0,1,7-1.59,13.42,13.42,0,0,1,5,.84,13.92,13.92,0,0,1,3.48,2,10.91,10.91,0,0,1,2.12,2.16L438,28.17a3.37,3.37,0,0,1,1.4-2.92,7.84,7.84,0,0,1,4.44-1,7.28,7.28,0,0,1,4.12.88,3.57,3.57,0,0,1,1.52,2.32,15.62,15.62,0,0,1,.28,3l0,27.6a15.24,15.24,0,0,1-.28,3A3.46,3.46,0,0,1,448,63.34,7.82,7.82,0,0,1,443.75,64.18Zm-14-11.93a7,7,0,0,0,3.84-1.08,8.51,8.51,0,0,0,2.73-11.12,7.86,7.86,0,0,0-2.8-2.84,8,8,0,0,0-8,0,8.25,8.25,0,0,0-2.89,2.92,8,8,0,0,0-1.08,4.15,7.55,7.55,0,0,0,1.08,4,8.21,8.21,0,0,0,7.08,4Z"/><path class="cls-1" d="M463.75,64.27a7.82,7.82,0,0,1-4.2-.84A3.46,3.46,0,0,1,458,61.15a15.24,15.24,0,0,1-.28-3l0-27.92a14.38,14.38,0,0,1,.28-3,3.41,3.41,0,0,1,1.56-2.2,11.12,11.12,0,0,1,8.28-.08,3.35,3.35,0,0,1,1.56,1.76,5.92,5.92,0,0,1,.32,1.72l-1,.48a9.14,9.14,0,0,1,.84-1.16,11.27,11.27,0,0,1,1.88-1.76,11,11,0,0,1,6.88-2.19,17.84,17.84,0,0,1,2,.12,12,12,0,0,1,2.24.48,8.91,8.91,0,0,1,2.12,1,5.27,5.27,0,0,1,1.56,1.48,3.76,3.76,0,0,1,.6,2.16,9.82,9.82,0,0,1-1.52,5.56,4.51,4.51,0,0,1-3.84,2.28,6.47,6.47,0,0,1-1.92-.2,3.29,3.29,0,0,1-.92-.48,3.41,3.41,0,0,0-.84-.48,5.05,5.05,0,0,0-1.76-.2,8.1,8.1,0,0,0-2.28.31,6.59,6.59,0,0,0-2,1,4.72,4.72,0,0,0-2,4V58.35a14.54,14.54,0,0,1-.28,2.92,3.27,3.27,0,0,1-1.56,2.2A8.41,8.41,0,0,1,463.75,64.27Z"/><path class="cls-1" d="M495.69,24.93h8.8l11-.31a14.07,14.07,0,0,1,2.88.28,3.56,3.56,0,0,1,2.24,1.56,7.72,7.72,0,0,1,.88,4.24,7.42,7.42,0,0,1-.84,4,3.71,3.71,0,0,1-2.2,1.64,11.6,11.6,0,0,1-3,.36L505,36.45l-9.67.08a4,4,0,0,1-3.24-1.48,8,8,0,0,1-.92-4.44,6.76,6.76,0,0,1,1.12-4.28A4,4,0,0,1,495.69,24.93ZM513.75,64.3a25.1,25.1,0,0,1-7-.88,11.45,11.45,0,0,1-4.84-2.73,11.32,11.32,0,0,1-2.8-4.68,22.16,22.16,0,0,1-.91-6.76l0-32.4a13.72,13.72,0,0,1,.28-3A3.41,3.41,0,0,1,500,11.77a7.83,7.83,0,0,1,4.16-.84,7.49,7.49,0,0,1,4.16.89,3.54,3.54,0,0,1,1.56,2.28,15.31,15.31,0,0,1,.28,2.92l0,31.76a9,9,0,0,0,.2,2.12,2.53,2.53,0,0,0,.6,1.24,2.2,2.2,0,0,0,1.12.56,8,8,0,0,0,1.75.16,14,14,0,0,1,3.13.32,3.44,3.44,0,0,1,2.11,1.44,6.93,6.93,0,0,1,.76,3.76,7.5,7.5,0,0,1-.88,4.16,3.39,3.39,0,0,1-2.28,1.52A17.35,17.35,0,0,1,513.75,64.3Z"/><path class="cls-1" d="M534.1,18.55a7.88,7.88,0,0,1-4.32-.88,3.52,3.52,0,0,1-1.56-2.32,15.62,15.62,0,0,1-.28-3,15.46,15.46,0,0,1,.28-3.08A3.37,3.37,0,0,1,529.82,7a8.48,8.48,0,0,1,4.36-.84,7.77,7.77,0,0,1,4.24.88A3.6,3.6,0,0,1,540,9.35a16.16,16.16,0,0,1,.28,3.12,16,16,0,0,1-.28,3,3.45,3.45,0,0,1-1.56,2.28A8.27,8.27,0,0,1,534.1,18.55Zm0,45.76a8,8,0,0,1-4.24-.84,3.28,3.28,0,0,1-1.52-2.24,17.35,17.35,0,0,1-.24-2.92l0-27.92a14.61,14.61,0,0,1,.28-2.92,3.44,3.44,0,0,1,1.56-2.24,8,8,0,0,1,4.24-.84,7.39,7.39,0,0,1,4.12.88,3.6,3.6,0,0,1,1.52,2.28,15.13,15.13,0,0,1,.28,3l0,27.84a14.54,14.54,0,0,1-.28,2.92,3.31,3.31,0,0,1-1.52,2.2A8.08,8.08,0,0,1,534.07,64.31Z"/><path class="cls-1" d="M565.75,64.25a16,16,0,0,1-7-1.56A19,19,0,0,1,553,58.32a21.05,21.05,0,0,1-4-6.44,20.25,20.25,0,0,1-1.48-7.72,19.23,19.23,0,0,1,1.48-7.48A20.76,20.76,0,0,1,553,30.36,20,20,0,0,1,558.89,26a15.47,15.47,0,0,1,6.88-1.6,13.73,13.73,0,0,1,11.64,5.85,20.41,20.41,0,0,1,3,6.32,28.14,28.14,0,0,1,.15,15.2,19.68,19.68,0,0,1-3,6.4,14.92,14.92,0,0,1-5,4.43A13.92,13.92,0,0,1,565.75,64.25Zm1.6-11.84a7.19,7.19,0,0,0,3.89-1.08,8.49,8.49,0,0,0,2.8-2.91,8.11,8.11,0,0,0-2.76-11,7.47,7.47,0,0,0-4-1.08,7.81,7.81,0,0,0-4,1,7.25,7.25,0,0,0-2.8,2.88,8.33,8.33,0,0,0-1,4.08,8.1,8.1,0,0,0,1,4.08,7.76,7.76,0,0,0,2.88,2.92A7.58,7.58,0,0,0,567.35,52.41Zm13.92,11.93a7.43,7.43,0,0,1-4-.88,4.2,4.2,0,0,1-1.72-2.72l0-48.48a21,21,0,0,1,.2-2.92,3.28,3.28,0,0,1,1.4-2.28,7.09,7.09,0,0,1,4.08-.88,7.77,7.77,0,0,1,4.24.84A3.64,3.64,0,0,1,587,9.22a13.17,13.17,0,0,1,.32,3l0,46.08a14.54,14.54,0,0,1-.28,2.92,3.59,3.59,0,0,1-1.52,2.28A7.5,7.5,0,0,1,581.27,64.34Z"/><path class="cls-1" d="M628,64.29a7.55,7.55,0,0,1-4.4-1,2.87,2.87,0,0,1-1.36-2.57l.8-1.35a8.88,8.88,0,0,1-1.84,2,13.37,13.37,0,0,1-3.56,2.08,13.85,13.85,0,0,1-5.32.92,15.86,15.86,0,0,1-7-1.61,18.69,18.69,0,0,1-5.88-4.44,22.8,22.8,0,0,1-4.08-6.44,19.41,19.41,0,0,1-1.51-7.6,18.88,18.88,0,0,1,1.52-7.48,21.45,21.45,0,0,1,4.13-6.32A20.18,20.18,0,0,1,605.37,26a15.77,15.77,0,0,1,7-1.59,13.49,13.49,0,0,1,5,.84,13.92,13.92,0,0,1,3.48,2A10.91,10.91,0,0,1,623,29.4l-.72-1.12a3.37,3.37,0,0,1,1.4-2.92,7.8,7.8,0,0,1,4.44-1,7.3,7.3,0,0,1,4.12.88,3.61,3.61,0,0,1,1.52,2.32,15.62,15.62,0,0,1,.28,3l0,27.6a15.24,15.24,0,0,1-.28,3,3.49,3.49,0,0,1-1.52,2.28A7.82,7.82,0,0,1,628,64.29ZM614,52.36a7,7,0,0,0,3.84-1.08,8.48,8.48,0,0,0,2.73-11.12,7.71,7.71,0,0,0-2.8-2.84,7.58,7.58,0,0,0-3.92-1,7.71,7.71,0,0,0-4,1.08,8.19,8.19,0,0,0-2.88,2.91,8.09,8.09,0,0,0-1.08,4.16,7.55,7.55,0,0,0,1.08,4,8.21,8.21,0,0,0,7.07,4Z"/><path class="cls-2" d="M12.08,64a7.77,7.77,0,0,1-4.24-.88,3.54,3.54,0,0,1-1.56-2.33,15.16,15.16,0,0,1-.28-3L6,14.15a12.75,12.75,0,0,1,.32-2.92A3.64,3.64,0,0,1,8,9a7.7,7.7,0,0,1,4.24-.88h16.4a20.3,20.3,0,0,1,6.72,1.2A19.45,19.45,0,0,1,41.67,13a19.24,19.24,0,0,1,4.71,6.2,19.43,19.43,0,0,1,1.8,8.64,19.2,19.2,0,0,1-1.81,8.6,18.91,18.91,0,0,1-4.72,6.12,20,20,0,0,1-6.36,3.67,20.58,20.58,0,0,1-6.8,1.2H18.25V57.92a13.2,13.2,0,0,1-.32,2.92,3.77,3.77,0,0,1-1.6,2.28A7.72,7.72,0,0,1,12.08,64Zm6.17-28.72H28.57a8.44,8.44,0,0,0,3.48-.76,6.89,6.89,0,0,0,2.89-2.44,7.47,7.47,0,0,0,1.16-4.32,7.5,7.5,0,0,0-1-3.92,7.3,7.3,0,0,0-2.68-2.64,7.75,7.75,0,0,0-3.92-1H18.26Z"/><path class="cls-2" d="M72.16,64a16.74,16.74,0,0,1-7-1.44,17.08,17.08,0,0,1-5.6-4,18.44,18.44,0,0,1-3.72-6.17,22,22,0,0,1-1.31-7.8V30a14.52,14.52,0,0,1,.28-3,3.51,3.51,0,0,1,1.56-2.24A7.8,7.8,0,0,1,60.66,24a7.5,7.5,0,0,1,4.2.88,3.64,3.64,0,0,1,1.52,2.28,15.76,15.76,0,0,1,.28,3v14.4a9.11,9.11,0,0,0,.83,4A5.68,5.68,0,0,0,70,51.15a8.17,8.17,0,0,0,3.88.89,8,8,0,0,0,4-.92,6.47,6.47,0,0,0,2.56-2.6,8.13,8.13,0,0,0,.93-4V30a14.45,14.45,0,0,1,.28-3,3.34,3.34,0,0,1,1.56-2.2A8,8,0,0,1,87.38,24a7.49,7.49,0,0,1,4.2.89,3.59,3.59,0,0,1,1.52,2.28,15.31,15.31,0,0,1,.28,2.92l0,28.16a14.17,14.17,0,0,1-.28,2.84,3.28,3.28,0,0,1-1.56,2.12,8.23,8.23,0,0,1-4.16.79A9.31,9.31,0,0,1,84,63.48a4.08,4.08,0,0,1-1.76-1.2,3.19,3.19,0,0,1-.68-1.52,9.73,9.73,0,0,1-.12-1.44l1-.88a8.6,8.6,0,0,1-1,1.24,18.67,18.67,0,0,1-2.12,1.84,13.54,13.54,0,0,1-3.08,1.72A10.58,10.58,0,0,1,72.16,64Z"/><path class="cls-2" d="M107.35,64a7.84,7.84,0,0,1-4.19-.85,3.39,3.39,0,0,1-1.52-2.24,14.54,14.54,0,0,1-.28-2.92l0-28.16a13.48,13.48,0,0,1,.28-2.84,3.22,3.22,0,0,1,1.56-2.12,8.32,8.32,0,0,1,4.24-.79,7.84,7.84,0,0,1,3.76.68,3.26,3.26,0,0,1,1.56,1.64,5.14,5.14,0,0,1,.36,1.8,2.82,2.82,0,0,0,.16,1.16l-.48,1.52a4.7,4.7,0,0,1,1.24-2.44,11.39,11.39,0,0,1,2.72-2.24,14.86,14.86,0,0,1,3.52-1.56,12.7,12.7,0,0,1,3.72-.55,16,16,0,0,1,6.84,1.4,13.84,13.84,0,0,1,5.08,4,18.79,18.79,0,0,1,3.15,6.2,26.84,26.84,0,0,1,1.08,7.8V58.08a15.46,15.46,0,0,1-.28,2.92,3.32,3.32,0,0,1-1.52,2.19,8.3,8.3,0,0,1-4.28.8,8.07,8.07,0,0,1-4.25-.84,3.39,3.39,0,0,1-1.55-2.24A14.61,14.61,0,0,1,128,58V43.51a9,9,0,0,0-.84-4.08,5.84,5.84,0,0,0-2.4-2.56,7.76,7.76,0,0,0-3.88-.89,8.24,8.24,0,0,0-4,.92,6.38,6.38,0,0,0-2.6,2.6,8.24,8.24,0,0,0-.92,4V58.06a15.38,15.38,0,0,1-.28,2.92,3.34,3.34,0,0,1-1.52,2.2A8.2,8.2,0,0,1,107.35,64Z"/><path class="cls-2" d="M150.5,24.72h8.8l11-.32a14.81,14.81,0,0,1,2.88.28,3.56,3.56,0,0,1,2.24,1.57,7.78,7.78,0,0,1,.87,4.24,7.47,7.47,0,0,1-.84,4,3.67,3.67,0,0,1-2.2,1.63,11.54,11.54,0,0,1-3,.36l-10.48-.24-9.68.07a4,4,0,0,1-3.24-1.48A8.07,8.07,0,0,1,146,30.4a6.76,6.76,0,0,1,1.13-4.28A4,4,0,0,1,150.5,24.72Zm18.05,39.37a25.15,25.15,0,0,1-7-.88,11.5,11.5,0,0,1-4.83-2.72,11.19,11.19,0,0,1-2.8-4.69A22.1,22.1,0,0,1,153,49l0-32.4a14.45,14.45,0,0,1,.28-3,3.39,3.39,0,0,1,1.57-2.12,7.74,7.74,0,0,1,4.16-.83,7.46,7.46,0,0,1,4.15.88,3.52,3.52,0,0,1,1.56,2.28,14.61,14.61,0,0,1,.28,2.92l0,31.76a9.59,9.59,0,0,0,.2,2.12,2.53,2.53,0,0,0,.6,1.24,2.24,2.24,0,0,0,1.12.56,8.06,8.06,0,0,0,1.76.16,13.93,13.93,0,0,1,3.12.32,3.44,3.44,0,0,1,2.12,1.45,7,7,0,0,1,.76,3.75,7.47,7.47,0,0,1-.89,4.16,3.35,3.35,0,0,1-2.28,1.52A17.18,17.18,0,0,1,168.55,64.09Z"/><path class="cls-2" d="M201.67,64.75a20.25,20.25,0,0,1-7.48-1.48,22.44,22.44,0,0,1-6.75-4.21,20.16,20.16,0,0,1-4.84-6.52,19.32,19.32,0,0,1-1.79-8.44,19.76,19.76,0,0,1,1.64-8A21.66,21.66,0,0,1,193.58,25a19.55,19.55,0,0,1,8-1.64A20.17,20.17,0,0,1,212,26.08a21,21,0,0,1,7.47,7.48A20.13,20.13,0,0,1,222.25,44a20.16,20.16,0,0,1-1.81,8.68,20.49,20.49,0,0,1-4.8,6.52A21.3,21.3,0,0,1,209,63.36,20.26,20.26,0,0,1,201.67,64.75Zm-.15-12.08a9,9,0,0,0,3.92-1,8.63,8.63,0,0,0,3.36-2.87A8.3,8.3,0,0,0,210.17,44a8.79,8.79,0,0,0-1.12-4.48,8,8,0,0,0-3.08-3,9.21,9.21,0,0,0-4.52-1.08,8.16,8.16,0,0,0-4.28,1.12,8.63,8.63,0,0,0-3,3.08A8.45,8.45,0,0,0,193,44a8.4,8.4,0,0,0,1.31,4.84,8,8,0,0,0,3.32,2.88A9.38,9.38,0,0,0,201.52,52.67Z"/><path class="cls-2" d="M266.71,64.07a16,16,0,0,1-7-1.56,18.76,18.76,0,0,1-5.83-4.37,21.27,21.27,0,0,1-4-6.44A20.05,20.05,0,0,1,248.41,44a19.23,19.23,0,0,1,1.48-7.48A20.92,20.92,0,0,1,254,30.18a20.14,20.14,0,0,1,5.89-4.35,15.43,15.43,0,0,1,6.88-1.6,13.69,13.69,0,0,1,11.63,5.85,20.2,20.2,0,0,1,3,6.32,29.58,29.58,0,0,1,1.12,7.52,30.14,30.14,0,0,1-1,7.68,19.68,19.68,0,0,1-3,6.4,15,15,0,0,1-5,4.43A13.87,13.87,0,0,1,266.71,64.07Zm1.61-11.84a7.15,7.15,0,0,0,3.88-1.08,8.4,8.4,0,0,0,2.8-2.91,7.93,7.93,0,0,0,1.08-4.08,7.84,7.84,0,0,0-1-4,8.16,8.16,0,0,0-2.8-2.89,7.49,7.49,0,0,0-4-1.08,7.81,7.81,0,0,0-4,1,7.19,7.19,0,0,0-2.8,2.88,8.33,8.33,0,0,0-1,4.08,8.09,8.09,0,0,0,1,4.08,7.89,7.89,0,0,0,6.8,4Zm13.91,11.93a7.45,7.45,0,0,1-4-.88,4.15,4.15,0,0,1-1.71-2.72l0-48.48a19.57,19.57,0,0,1,.21-2.92,3.28,3.28,0,0,1,1.4-2.28A7.09,7.09,0,0,1,282.19,6a7.8,7.8,0,0,1,4.24.84A3.68,3.68,0,0,1,288,9a13.18,13.18,0,0,1,.31,3l0,46.08A15.31,15.31,0,0,1,288,61a3.57,3.57,0,0,1-1.53,2.28A7.45,7.45,0,0,1,282.23,64.16Z"/><path class="cls-2" d="M316.15,64.9a23.09,23.09,0,0,1-9.64-1.85,18.56,18.56,0,0,1-6.59-4.84,20.59,20.59,0,0,1-3.84-6.68,22.37,22.37,0,0,1-1.28-7.36,20.77,20.77,0,0,1,2.73-10.64,19.66,19.66,0,0,1,7.57-7.32,22.54,22.54,0,0,1,11.08-2.67,20,20,0,0,1,8,1.49,16.48,16.48,0,0,1,5.59,3.84A16.16,16.16,0,0,1,333.09,34a14.08,14.08,0,0,1,1.08,5.2q0,4.4-2.13,6.56a7.23,7.23,0,0,1-5.4,2.16l-19,0a5.66,5.66,0,0,0,1.48,3.45,9,9,0,0,0,3.32,2.24,11.38,11.38,0,0,0,4.24.8,23.88,23.88,0,0,0,3.32-.2,12.83,12.83,0,0,0,2.52-.56c.69-.24,1.32-.48,1.88-.71s1.08-.44,1.56-.6a6.81,6.81,0,0,1,1.36-.32,3.2,3.2,0,0,1,2.16.68,6.57,6.57,0,0,1,1.84,2.28,6.14,6.14,0,0,1,.76,1.68,6.74,6.74,0,0,1,.2,1.6,4.31,4.31,0,0,1-2,3.48A15.15,15.15,0,0,1,324.75,64,36.7,36.7,0,0,1,316.15,64.9Zm-8.54-23.69h12.64a3.19,3.19,0,0,0,1.84-.44,2,2,0,0,0,.64-1.72,3.92,3.92,0,0,0-.88-2.48,5.66,5.66,0,0,0-2.36-1.72,9.25,9.25,0,0,0-3.48-.6,9.53,9.53,0,0,0-4.32,1,7.63,7.63,0,0,0-3,2.56A6,6,0,0,0,307.61,41.21Z"/><path class="cls-2" d="M368.23,64.21a7.7,7.7,0,0,1-4.24-.88A3.6,3.6,0,0,1,362.43,61a15.23,15.23,0,0,1-.27-3l0-43.68a13.26,13.26,0,0,1,.32-2.92,3.77,3.77,0,0,1,1.6-2.28,7.72,7.72,0,0,1,4.24-.88h16.41a20.29,20.29,0,0,1,6.71,1.2,19.6,19.6,0,0,1,6.36,3.73,19.23,19.23,0,0,1,4.72,6.2,19.49,19.49,0,0,1,1.79,8.64,19.17,19.17,0,0,1-1.8,8.6,18.83,18.83,0,0,1-4.73,6.12,19.82,19.82,0,0,1-6.36,3.68,20.78,20.78,0,0,1-6.8,1.19H374.4V58.14a12.75,12.75,0,0,1-.32,2.92,3.64,3.64,0,0,1-1.6,2.27A7.7,7.7,0,0,1,368.23,64.21Zm6.18-28.71h10.32a8.51,8.51,0,0,0,3.48-.76,6.79,6.79,0,0,0,2.88-2.43A7.47,7.47,0,0,0,392.25,28a7.47,7.47,0,0,0-1-3.92,7.15,7.15,0,0,0-2.67-2.65,7.77,7.77,0,0,0-3.92-1H374.42Z"/><path class="cls-2" d="M443.75,64.18a7.49,7.49,0,0,1-4.4-1.05A2.87,2.87,0,0,1,438,60.57l.8-1.36a8.66,8.66,0,0,1-1.84,2,13.21,13.21,0,0,1-3.56,2.08,13.85,13.85,0,0,1-5.32.92,15.89,15.89,0,0,1-7-1.61,19,19,0,0,1-5.88-4.44,22.77,22.77,0,0,1-4.07-6.44,19.42,19.42,0,0,1-1.52-7.6,18.71,18.71,0,0,1,1.53-7.48,21.42,21.42,0,0,1,4.12-6.32,20.31,20.31,0,0,1,5.88-4.36,15.77,15.77,0,0,1,7-1.59,13.42,13.42,0,0,1,5,.84,13.92,13.92,0,0,1,3.48,2,10.91,10.91,0,0,1,2.12,2.16L438,28.17a3.37,3.37,0,0,1,1.4-2.92,7.84,7.84,0,0,1,4.44-1,7.28,7.28,0,0,1,4.12.88,3.57,3.57,0,0,1,1.52,2.32,15.62,15.62,0,0,1,.28,3l0,27.6a15.24,15.24,0,0,1-.28,3A3.46,3.46,0,0,1,448,63.34,7.82,7.82,0,0,1,443.75,64.18Zm-14-11.93a7,7,0,0,0,3.84-1.08,8.51,8.51,0,0,0,2.73-11.12,7.86,7.86,0,0,0-2.8-2.84,8,8,0,0,0-8,0,8.25,8.25,0,0,0-2.89,2.92,8,8,0,0,0-1.08,4.15,7.55,7.55,0,0,0,1.08,4,8.21,8.21,0,0,0,7.08,4Z"/><path class="cls-2" d="M463.75,64.27a7.82,7.82,0,0,1-4.2-.84A3.46,3.46,0,0,1,458,61.15a15.24,15.24,0,0,1-.28-3l0-27.92a14.38,14.38,0,0,1,.28-3,3.41,3.41,0,0,1,1.56-2.2,11.12,11.12,0,0,1,8.28-.08,3.35,3.35,0,0,1,1.56,1.76,5.92,5.92,0,0,1,.32,1.72l-1,.48a9.14,9.14,0,0,1,.84-1.16,11.27,11.27,0,0,1,1.88-1.76,11,11,0,0,1,6.88-2.19,17.84,17.84,0,0,1,2,.12,12,12,0,0,1,2.24.48,8.91,8.91,0,0,1,2.12,1,5.27,5.27,0,0,1,1.56,1.48,3.76,3.76,0,0,1,.6,2.16,9.82,9.82,0,0,1-1.52,5.56,4.51,4.51,0,0,1-3.84,2.28,6.47,6.47,0,0,1-1.92-.2,3.29,3.29,0,0,1-.92-.48,3.41,3.41,0,0,0-.84-.48,5.05,5.05,0,0,0-1.76-.2,8.1,8.1,0,0,0-2.28.31,6.59,6.59,0,0,0-2,1,4.72,4.72,0,0,0-2,4V58.35a14.54,14.54,0,0,1-.28,2.92,3.27,3.27,0,0,1-1.56,2.2A8.41,8.41,0,0,1,463.75,64.27Z"/><path class="cls-2" d="M495.69,24.93h8.8l11-.31a14.07,14.07,0,0,1,2.88.28,3.56,3.56,0,0,1,2.24,1.56,7.72,7.72,0,0,1,.88,4.24,7.42,7.42,0,0,1-.84,4,3.71,3.71,0,0,1-2.2,1.64,11.6,11.6,0,0,1-3,.36L505,36.45l-9.67.08a4,4,0,0,1-3.24-1.48,8,8,0,0,1-.92-4.44,6.76,6.76,0,0,1,1.12-4.28A4,4,0,0,1,495.69,24.93ZM513.75,64.3a25.1,25.1,0,0,1-7-.88,11.45,11.45,0,0,1-4.84-2.73,11.32,11.32,0,0,1-2.8-4.68,22.16,22.16,0,0,1-.91-6.76l0-32.4a13.72,13.72,0,0,1,.28-3A3.41,3.41,0,0,1,500,11.77a7.83,7.83,0,0,1,4.16-.84,7.49,7.49,0,0,1,4.16.89,3.54,3.54,0,0,1,1.56,2.28,15.31,15.31,0,0,1,.28,2.92l0,31.76a9,9,0,0,0,.2,2.12,2.53,2.53,0,0,0,.6,1.24,2.2,2.2,0,0,0,1.12.56,8,8,0,0,0,1.75.16,14,14,0,0,1,3.13.32,3.44,3.44,0,0,1,2.11,1.44,6.93,6.93,0,0,1,.76,3.76,7.5,7.5,0,0,1-.88,4.16,3.39,3.39,0,0,1-2.28,1.52A17.35,17.35,0,0,1,513.75,64.3Z"/><path class="cls-2" d="M534.1,18.55a7.88,7.88,0,0,1-4.32-.88,3.52,3.52,0,0,1-1.56-2.32,15.62,15.62,0,0,1-.28-3,15.46,15.46,0,0,1,.28-3.08A3.37,3.37,0,0,1,529.82,7a8.48,8.48,0,0,1,4.36-.84,7.77,7.77,0,0,1,4.24.88A3.6,3.6,0,0,1,540,9.35a16.16,16.16,0,0,1,.28,3.12,16,16,0,0,1-.28,3,3.45,3.45,0,0,1-1.56,2.28A8.27,8.27,0,0,1,534.1,18.55Zm0,45.76a8,8,0,0,1-4.24-.84,3.28,3.28,0,0,1-1.52-2.24,17.35,17.35,0,0,1-.24-2.92l0-27.92a14.61,14.61,0,0,1,.28-2.92,3.44,3.44,0,0,1,1.56-2.24,8,8,0,0,1,4.24-.84,7.39,7.39,0,0,1,4.12.88,3.6,3.6,0,0,1,1.52,2.28,15.13,15.13,0,0,1,.28,3l0,27.84a14.54,14.54,0,0,1-.28,2.92,3.31,3.31,0,0,1-1.52,2.2A8.08,8.08,0,0,1,534.07,64.31Z"/><path class="cls-2" d="M565.75,64.25a16,16,0,0,1-7-1.56A19,19,0,0,1,553,58.32a21.05,21.05,0,0,1-4-6.44,20.25,20.25,0,0,1-1.48-7.72,19.23,19.23,0,0,1,1.48-7.48A20.76,20.76,0,0,1,553,30.36,20,20,0,0,1,558.89,26a15.47,15.47,0,0,1,6.88-1.6,13.73,13.73,0,0,1,11.64,5.85,20.41,20.41,0,0,1,3,6.32,28.14,28.14,0,0,1,.15,15.2,19.68,19.68,0,0,1-3,6.4,14.92,14.92,0,0,1-5,4.43A13.92,13.92,0,0,1,565.75,64.25Zm1.6-11.84a7.19,7.19,0,0,0,3.89-1.08,8.49,8.49,0,0,0,2.8-2.91,8.11,8.11,0,0,0-2.76-11,7.47,7.47,0,0,0-4-1.08,7.81,7.81,0,0,0-4,1,7.25,7.25,0,0,0-2.8,2.88,8.33,8.33,0,0,0-1,4.08,8.1,8.1,0,0,0,1,4.08,7.76,7.76,0,0,0,2.88,2.92A7.58,7.58,0,0,0,567.35,52.41Zm13.92,11.93a7.43,7.43,0,0,1-4-.88,4.2,4.2,0,0,1-1.72-2.72l0-48.48a21,21,0,0,1,.2-2.92,3.28,3.28,0,0,1,1.4-2.28,7.09,7.09,0,0,1,4.08-.88,7.77,7.77,0,0,1,4.24.84A3.64,3.64,0,0,1,587,9.22a13.17,13.17,0,0,1,.32,3l0,46.08a14.54,14.54,0,0,1-.28,2.92,3.59,3.59,0,0,1-1.52,2.28A7.5,7.5,0,0,1,581.27,64.34Z"/><path class="cls-2" d="M628,64.29a7.55,7.55,0,0,1-4.4-1,2.87,2.87,0,0,1-1.36-2.57l.8-1.35a8.88,8.88,0,0,1-1.84,2,13.37,13.37,0,0,1-3.56,2.08,13.85,13.85,0,0,1-5.32.92,15.86,15.86,0,0,1-7-1.61,18.69,18.69,0,0,1-5.88-4.44,22.8,22.8,0,0,1-4.08-6.44,19.41,19.41,0,0,1-1.51-7.6,18.88,18.88,0,0,1,1.52-7.48,21.45,21.45,0,0,1,4.13-6.32A20.18,20.18,0,0,1,605.37,26a15.77,15.77,0,0,1,7-1.59,13.49,13.49,0,0,1,5,.84,13.92,13.92,0,0,1,3.48,2A10.91,10.91,0,0,1,623,29.4l-.72-1.12a3.37,3.37,0,0,1,1.4-2.92,7.8,7.8,0,0,1,4.44-1,7.3,7.3,0,0,1,4.12.88,3.61,3.61,0,0,1,1.52,2.32,15.62,15.62,0,0,1,.28,3l0,27.6a15.24,15.24,0,0,1-.28,3,3.49,3.49,0,0,1-1.52,2.28A7.82,7.82,0,0,1,628,64.29ZM614,52.36a7,7,0,0,0,3.84-1.08,8.48,8.48,0,0,0,2.73-11.12,7.71,7.71,0,0,0-2.8-2.84,7.58,7.58,0,0,0-3.92-1,7.71,7.71,0,0,0-4,1.08,8.19,8.19,0,0,0-2.88,2.91,8.09,8.09,0,0,0-1.08,4.16,7.55,7.55,0,0,0,1.08,4,8.21,8.21,0,0,0,7.07,4Z"/><path class="cls-1" d="M12.08,64a7.77,7.77,0,0,1-4.24-.88,3.54,3.54,0,0,1-1.56-2.33,15.16,15.16,0,0,1-.28-3L6,14.15a12.75,12.75,0,0,1,.32-2.92A3.64,3.64,0,0,1,8,9a7.7,7.7,0,0,1,4.24-.88h16.4a20.3,20.3,0,0,1,6.72,1.2A19.45,19.45,0,0,1,41.67,13a19.24,19.24,0,0,1,4.71,6.2,19.43,19.43,0,0,1,1.8,8.64,19.2,19.2,0,0,1-1.81,8.6,18.91,18.91,0,0,1-4.72,6.12,20,20,0,0,1-6.36,3.67,20.58,20.58,0,0,1-6.8,1.2H18.25V57.92a13.2,13.2,0,0,1-.32,2.92,3.77,3.77,0,0,1-1.6,2.28A7.72,7.72,0,0,1,12.08,64Zm6.17-28.72H28.57a8.44,8.44,0,0,0,3.48-.76,6.89,6.89,0,0,0,2.89-2.44,7.47,7.47,0,0,0,1.16-4.32,7.5,7.5,0,0,0-1-3.92,7.3,7.3,0,0,0-2.68-2.64,7.75,7.75,0,0,0-3.92-1H18.26Z"/><path class="cls-1" d="M72.16,64a16.74,16.74,0,0,1-7-1.44,17.08,17.08,0,0,1-5.6-4,18.44,18.44,0,0,1-3.72-6.17,22,22,0,0,1-1.31-7.8V30a14.52,14.52,0,0,1,.28-3,3.51,3.51,0,0,1,1.56-2.24A7.8,7.8,0,0,1,60.66,24a7.5,7.5,0,0,1,4.2.88,3.64,3.64,0,0,1,1.52,2.28,15.76,15.76,0,0,1,.28,3v14.4a9.11,9.11,0,0,0,.83,4A5.68,5.68,0,0,0,70,51.15a8.17,8.17,0,0,0,3.88.89,8,8,0,0,0,4-.92,6.47,6.47,0,0,0,2.56-2.6,8.13,8.13,0,0,0,.93-4V30a14.45,14.45,0,0,1,.28-3,3.34,3.34,0,0,1,1.56-2.2A8,8,0,0,1,87.38,24a7.49,7.49,0,0,1,4.2.89,3.59,3.59,0,0,1,1.52,2.28,15.31,15.31,0,0,1,.28,2.92l0,28.16a14.17,14.17,0,0,1-.28,2.84,3.28,3.28,0,0,1-1.56,2.12,8.23,8.23,0,0,1-4.16.79A9.31,9.31,0,0,1,84,63.48a4.08,4.08,0,0,1-1.76-1.2,3.19,3.19,0,0,1-.68-1.52,9.73,9.73,0,0,1-.12-1.44l1-.88a8.6,8.6,0,0,1-1,1.24,18.67,18.67,0,0,1-2.12,1.84,13.54,13.54,0,0,1-3.08,1.72A10.58,10.58,0,0,1,72.16,64Z"/><path class="cls-1" d="M107.35,64a7.84,7.84,0,0,1-4.19-.85,3.39,3.39,0,0,1-1.52-2.24,14.54,14.54,0,0,1-.28-2.92l0-28.16a13.48,13.48,0,0,1,.28-2.84,3.22,3.22,0,0,1,1.56-2.12,8.32,8.32,0,0,1,4.24-.79,7.84,7.84,0,0,1,3.76.68,3.26,3.26,0,0,1,1.56,1.64,5.14,5.14,0,0,1,.36,1.8,2.82,2.82,0,0,0,.16,1.16l-.48,1.52a4.7,4.7,0,0,1,1.24-2.44,11.39,11.39,0,0,1,2.72-2.24,14.86,14.86,0,0,1,3.52-1.56,12.7,12.7,0,0,1,3.72-.55,16,16,0,0,1,6.84,1.4,13.84,13.84,0,0,1,5.08,4,18.79,18.79,0,0,1,3.15,6.2,26.84,26.84,0,0,1,1.08,7.8V58.08a15.46,15.46,0,0,1-.28,2.92,3.32,3.32,0,0,1-1.52,2.19,8.3,8.3,0,0,1-4.28.8,8.07,8.07,0,0,1-4.25-.84,3.39,3.39,0,0,1-1.55-2.24A14.61,14.61,0,0,1,128,58V43.51a9,9,0,0,0-.84-4.08,5.84,5.84,0,0,0-2.4-2.56,7.76,7.76,0,0,0-3.88-.89,8.24,8.24,0,0,0-4,.92,6.38,6.38,0,0,0-2.6,2.6,8.24,8.24,0,0,0-.92,4V58.06a15.38,15.38,0,0,1-.28,2.92,3.34,3.34,0,0,1-1.52,2.2A8.2,8.2,0,0,1,107.35,64Z"/><path class="cls-1" d="M150.5,24.72h8.8l11-.32a14.81,14.81,0,0,1,2.88.28,3.56,3.56,0,0,1,2.24,1.57,7.78,7.78,0,0,1,.87,4.24,7.47,7.47,0,0,1-.84,4,3.67,3.67,0,0,1-2.2,1.63,11.54,11.54,0,0,1-3,.36l-10.48-.24-9.68.07a4,4,0,0,1-3.24-1.48A8.07,8.07,0,0,1,146,30.4a6.76,6.76,0,0,1,1.13-4.28A4,4,0,0,1,150.5,24.72Zm18.05,39.37a25.15,25.15,0,0,1-7-.88,11.5,11.5,0,0,1-4.83-2.72,11.19,11.19,0,0,1-2.8-4.69A22.1,22.1,0,0,1,153,49l0-32.4a14.45,14.45,0,0,1,.28-3,3.39,3.39,0,0,1,1.57-2.12,7.74,7.74,0,0,1,4.16-.83,7.46,7.46,0,0,1,4.15.88,3.52,3.52,0,0,1,1.56,2.28,14.61,14.61,0,0,1,.28,2.92l0,31.76a9.59,9.59,0,0,0,.2,2.12,2.53,2.53,0,0,0,.6,1.24,2.24,2.24,0,0,0,1.12.56,8.06,8.06,0,0,0,1.76.16,13.93,13.93,0,0,1,3.12.32,3.44,3.44,0,0,1,2.12,1.45,7,7,0,0,1,.76,3.75,7.47,7.47,0,0,1-.89,4.16,3.35,3.35,0,0,1-2.28,1.52A17.18,17.18,0,0,1,168.55,64.09Z"/><path class="cls-1" d="M201.67,64.75a20.25,20.25,0,0,1-7.48-1.48,22.44,22.44,0,0,1-6.75-4.21,20.16,20.16,0,0,1-4.84-6.52,19.32,19.32,0,0,1-1.79-8.44,19.76,19.76,0,0,1,1.64-8A21.66,21.66,0,0,1,193.58,25a19.55,19.55,0,0,1,8-1.64A20.17,20.17,0,0,1,212,26.08a21,21,0,0,1,7.47,7.48A20.13,20.13,0,0,1,222.25,44a20.16,20.16,0,0,1-1.81,8.68,20.49,20.49,0,0,1-4.8,6.52A21.3,21.3,0,0,1,209,63.36,20.26,20.26,0,0,1,201.67,64.75Zm-.15-12.08a9,9,0,0,0,3.92-1,8.63,8.63,0,0,0,3.36-2.87A8.3,8.3,0,0,0,210.17,44a8.79,8.79,0,0,0-1.12-4.48,8,8,0,0,0-3.08-3,9.21,9.21,0,0,0-4.52-1.08,8.16,8.16,0,0,0-4.28,1.12,8.63,8.63,0,0,0-3,3.08A8.45,8.45,0,0,0,193,44a8.4,8.4,0,0,0,1.31,4.84,8,8,0,0,0,3.32,2.88A9.38,9.38,0,0,0,201.52,52.67Z"/><path class="cls-1" d="M266.71,64.07a16,16,0,0,1-7-1.56,18.76,18.76,0,0,1-5.83-4.37,21.27,21.27,0,0,1-4-6.44A20.05,20.05,0,0,1,248.41,44a19.23,19.23,0,0,1,1.48-7.48A20.92,20.92,0,0,1,254,30.18a20.14,20.14,0,0,1,5.89-4.35,15.43,15.43,0,0,1,6.88-1.6,13.69,13.69,0,0,1,11.63,5.85,20.2,20.2,0,0,1,3,6.32,29.58,29.58,0,0,1,1.12,7.52,30.14,30.14,0,0,1-1,7.68,19.68,19.68,0,0,1-3,6.4,15,15,0,0,1-5,4.43A13.87,13.87,0,0,1,266.71,64.07Zm1.61-11.84a7.15,7.15,0,0,0,3.88-1.08,8.4,8.4,0,0,0,2.8-2.91,7.93,7.93,0,0,0,1.08-4.08,7.84,7.84,0,0,0-1-4,8.16,8.16,0,0,0-2.8-2.89,7.49,7.49,0,0,0-4-1.08,7.81,7.81,0,0,0-4,1,7.19,7.19,0,0,0-2.8,2.88,8.33,8.33,0,0,0-1,4.08,8.09,8.09,0,0,0,1,4.08,7.89,7.89,0,0,0,6.8,4Zm13.91,11.93a7.45,7.45,0,0,1-4-.88,4.15,4.15,0,0,1-1.71-2.72l0-48.48a19.57,19.57,0,0,1,.21-2.92,3.28,3.28,0,0,1,1.4-2.28A7.09,7.09,0,0,1,282.19,6a7.8,7.8,0,0,1,4.24.84A3.68,3.68,0,0,1,288,9a13.18,13.18,0,0,1,.31,3l0,46.08A15.31,15.31,0,0,1,288,61a3.57,3.57,0,0,1-1.53,2.28A7.45,7.45,0,0,1,282.23,64.16Z"/><path class="cls-1" d="M316.15,64.9a23.09,23.09,0,0,1-9.64-1.85,18.56,18.56,0,0,1-6.59-4.84,20.59,20.59,0,0,1-3.84-6.68,22.37,22.37,0,0,1-1.28-7.36,20.77,20.77,0,0,1,2.73-10.64,19.66,19.66,0,0,1,7.57-7.32,22.54,22.54,0,0,1,11.08-2.67,20,20,0,0,1,8,1.49,16.48,16.48,0,0,1,5.59,3.84A16.16,16.16,0,0,1,333.09,34a14.08,14.08,0,0,1,1.08,5.2q0,4.4-2.13,6.56a7.23,7.23,0,0,1-5.4,2.16l-19,0a5.66,5.66,0,0,0,1.48,3.45,9,9,0,0,0,3.32,2.24,11.38,11.38,0,0,0,4.24.8,23.88,23.88,0,0,0,3.32-.2,12.83,12.83,0,0,0,2.52-.56c.69-.24,1.32-.48,1.88-.71s1.08-.44,1.56-.6a6.81,6.81,0,0,1,1.36-.32,3.2,3.2,0,0,1,2.16.68,6.57,6.57,0,0,1,1.84,2.28,6.14,6.14,0,0,1,.76,1.68,6.74,6.74,0,0,1,.2,1.6,4.31,4.31,0,0,1-2,3.48A15.15,15.15,0,0,1,324.75,64,36.7,36.7,0,0,1,316.15,64.9Zm-8.54-23.69h12.64a3.19,3.19,0,0,0,1.84-.44,2,2,0,0,0,.64-1.72,3.92,3.92,0,0,0-.88-2.48,5.66,5.66,0,0,0-2.36-1.72,9.25,9.25,0,0,0-3.48-.6,9.53,9.53,0,0,0-4.32,1,7.63,7.63,0,0,0-3,2.56A6,6,0,0,0,307.61,41.21Z"/><path class="cls-1" d="M368.23,64.21a7.7,7.7,0,0,1-4.24-.88A3.6,3.6,0,0,1,362.43,61a15.23,15.23,0,0,1-.27-3l0-43.68a13.26,13.26,0,0,1,.32-2.92,3.77,3.77,0,0,1,1.6-2.28,7.72,7.72,0,0,1,4.24-.88h16.41a20.29,20.29,0,0,1,6.71,1.2,19.6,19.6,0,0,1,6.36,3.73,19.23,19.23,0,0,1,4.72,6.2,19.49,19.49,0,0,1,1.79,8.64,19.17,19.17,0,0,1-1.8,8.6,18.83,18.83,0,0,1-4.73,6.12,19.82,19.82,0,0,1-6.36,3.68,20.78,20.78,0,0,1-6.8,1.19H374.4V58.14a12.75,12.75,0,0,1-.32,2.92,3.64,3.64,0,0,1-1.6,2.27A7.7,7.7,0,0,1,368.23,64.21Zm6.18-28.71h10.32a8.51,8.51,0,0,0,3.48-.76,6.79,6.79,0,0,0,2.88-2.43A7.47,7.47,0,0,0,392.25,28a7.47,7.47,0,0,0-1-3.92,7.15,7.15,0,0,0-2.67-2.65,7.77,7.77,0,0,0-3.92-1H374.42Z"/><path class="cls-1" d="M443.75,64.18a7.49,7.49,0,0,1-4.4-1.05A2.87,2.87,0,0,1,438,60.57l.8-1.36a8.66,8.66,0,0,1-1.84,2,13.21,13.21,0,0,1-3.56,2.08,13.85,13.85,0,0,1-5.32.92,15.89,15.89,0,0,1-7-1.61,19,19,0,0,1-5.88-4.44,22.77,22.77,0,0,1-4.07-6.44,19.42,19.42,0,0,1-1.52-7.6,18.71,18.71,0,0,1,1.53-7.48,21.42,21.42,0,0,1,4.12-6.32,20.31,20.31,0,0,1,5.88-4.36,15.77,15.77,0,0,1,7-1.59,13.42,13.42,0,0,1,5,.84,13.92,13.92,0,0,1,3.48,2,10.91,10.91,0,0,1,2.12,2.16L438,28.17a3.37,3.37,0,0,1,1.4-2.92,7.84,7.84,0,0,1,4.44-1,7.28,7.28,0,0,1,4.12.88,3.57,3.57,0,0,1,1.52,2.32,15.62,15.62,0,0,1,.28,3l0,27.6a15.24,15.24,0,0,1-.28,3A3.46,3.46,0,0,1,448,63.34,7.82,7.82,0,0,1,443.75,64.18Zm-14-11.93a7,7,0,0,0,3.84-1.08,8.51,8.51,0,0,0,2.73-11.12,7.86,7.86,0,0,0-2.8-2.84,8,8,0,0,0-8,0,8.25,8.25,0,0,0-2.89,2.92,8,8,0,0,0-1.08,4.15,7.55,7.55,0,0,0,1.08,4,8.21,8.21,0,0,0,7.08,4Z"/><path class="cls-1" d="M463.75,64.27a7.82,7.82,0,0,1-4.2-.84A3.46,3.46,0,0,1,458,61.15a15.24,15.24,0,0,1-.28-3l0-27.92a14.38,14.38,0,0,1,.28-3,3.41,3.41,0,0,1,1.56-2.2,11.12,11.12,0,0,1,8.28-.08,3.35,3.35,0,0,1,1.56,1.76,5.92,5.92,0,0,1,.32,1.72l-1,.48a9.14,9.14,0,0,1,.84-1.16,11.27,11.27,0,0,1,1.88-1.76,11,11,0,0,1,6.88-2.19,17.84,17.84,0,0,1,2,.12,12,12,0,0,1,2.24.48,8.91,8.91,0,0,1,2.12,1,5.27,5.27,0,0,1,1.56,1.48,3.76,3.76,0,0,1,.6,2.16,9.82,9.82,0,0,1-1.52,5.56,4.51,4.51,0,0,1-3.84,2.28,6.47,6.47,0,0,1-1.92-.2,3.29,3.29,0,0,1-.92-.48,3.41,3.41,0,0,0-.84-.48,5.05,5.05,0,0,0-1.76-.2,8.1,8.1,0,0,0-2.28.31,6.59,6.59,0,0,0-2,1,4.72,4.72,0,0,0-2,4V58.35a14.54,14.54,0,0,1-.28,2.92,3.27,3.27,0,0,1-1.56,2.2A8.41,8.41,0,0,1,463.75,64.27Z"/><path class="cls-1" d="M495.69,24.93h8.8l11-.31a14.07,14.07,0,0,1,2.88.28,3.56,3.56,0,0,1,2.24,1.56,7.72,7.72,0,0,1,.88,4.24,7.42,7.42,0,0,1-.84,4,3.71,3.71,0,0,1-2.2,1.64,11.6,11.6,0,0,1-3,.36L505,36.45l-9.67.08a4,4,0,0,1-3.24-1.48,8,8,0,0,1-.92-4.44,6.76,6.76,0,0,1,1.12-4.28A4,4,0,0,1,495.69,24.93ZM513.75,64.3a25.1,25.1,0,0,1-7-.88,11.45,11.45,0,0,1-4.84-2.73,11.32,11.32,0,0,1-2.8-4.68,22.16,22.16,0,0,1-.91-6.76l0-32.4a13.72,13.72,0,0,1,.28-3A3.41,3.41,0,0,1,500,11.77a7.83,7.83,0,0,1,4.16-.84,7.49,7.49,0,0,1,4.16.89,3.54,3.54,0,0,1,1.56,2.28,15.31,15.31,0,0,1,.28,2.92l0,31.76a9,9,0,0,0,.2,2.12,2.53,2.53,0,0,0,.6,1.24,2.2,2.2,0,0,0,1.12.56,8,8,0,0,0,1.75.16,14,14,0,0,1,3.13.32,3.44,3.44,0,0,1,2.11,1.44,6.93,6.93,0,0,1,.76,3.76,7.5,7.5,0,0,1-.88,4.16,3.39,3.39,0,0,1-2.28,1.52A17.35,17.35,0,0,1,513.75,64.3Z"/><path class="cls-1" d="M534.1,18.55a7.88,7.88,0,0,1-4.32-.88,3.52,3.52,0,0,1-1.56-2.32,15.62,15.62,0,0,1-.28-3,15.46,15.46,0,0,1,.28-3.08A3.37,3.37,0,0,1,529.82,7a8.48,8.48,0,0,1,4.36-.84,7.77,7.77,0,0,1,4.24.88A3.6,3.6,0,0,1,540,9.35a16.16,16.16,0,0,1,.28,3.12,16,16,0,0,1-.28,3,3.45,3.45,0,0,1-1.56,2.28A8.27,8.27,0,0,1,534.1,18.55Zm0,45.76a8,8,0,0,1-4.24-.84,3.28,3.28,0,0,1-1.52-2.24,17.35,17.35,0,0,1-.24-2.92l0-27.92a14.61,14.61,0,0,1,.28-2.92,3.44,3.44,0,0,1,1.56-2.24,8,8,0,0,1,4.24-.84,7.39,7.39,0,0,1,4.12.88,3.6,3.6,0,0,1,1.52,2.28,15.13,15.13,0,0,1,.28,3l0,27.84a14.54,14.54,0,0,1-.28,2.92,3.31,3.31,0,0,1-1.52,2.2A8.08,8.08,0,0,1,534.07,64.31Z"/><path class="cls-1" d="M565.75,64.25a16,16,0,0,1-7-1.56A19,19,0,0,1,553,58.32a21.05,21.05,0,0,1-4-6.44,20.25,20.25,0,0,1-1.48-7.72,19.23,19.23,0,0,1,1.48-7.48A20.76,20.76,0,0,1,553,30.36,20,20,0,0,1,558.89,26a15.47,15.47,0,0,1,6.88-1.6,13.73,13.73,0,0,1,11.64,5.85,20.41,20.41,0,0,1,3,6.32,28.14,28.14,0,0,1,.15,15.2,19.68,19.68,0,0,1-3,6.4,14.92,14.92,0,0,1-5,4.43A13.92,13.92,0,0,1,565.75,64.25Zm1.6-11.84a7.19,7.19,0,0,0,3.89-1.08,8.49,8.49,0,0,0,2.8-2.91,8.11,8.11,0,0,0-2.76-11,7.47,7.47,0,0,0-4-1.08,7.81,7.81,0,0,0-4,1,7.25,7.25,0,0,0-2.8,2.88,8.33,8.33,0,0,0-1,4.08,8.1,8.1,0,0,0,1,4.08,7.76,7.76,0,0,0,2.88,2.92A7.58,7.58,0,0,0,567.35,52.41Zm13.92,11.93a7.43,7.43,0,0,1-4-.88,4.2,4.2,0,0,1-1.72-2.72l0-48.48a21,21,0,0,1,.2-2.92,3.28,3.28,0,0,1,1.4-2.28,7.09,7.09,0,0,1,4.08-.88,7.77,7.77,0,0,1,4.24.84A3.64,3.64,0,0,1,587,9.22a13.17,13.17,0,0,1,.32,3l0,46.08a14.54,14.54,0,0,1-.28,2.92,3.59,3.59,0,0,1-1.52,2.28A7.5,7.5,0,0,1,581.27,64.34Z"/><path class="cls-1" d="M628,64.29a7.55,7.55,0,0,1-4.4-1,2.87,2.87,0,0,1-1.36-2.57l.8-1.35a8.88,8.88,0,0,1-1.84,2,13.37,13.37,0,0,1-3.56,2.08,13.85,13.85,0,0,1-5.32.92,15.86,15.86,0,0,1-7-1.61,18.69,18.69,0,0,1-5.88-4.44,22.8,22.8,0,0,1-4.08-6.44,19.41,19.41,0,0,1-1.51-7.6,18.88,18.88,0,0,1,1.52-7.48,21.45,21.45,0,0,1,4.13-6.32A20.18,20.18,0,0,1,605.37,26a15.77,15.77,0,0,1,7-1.59,13.49,13.49,0,0,1,5,.84,13.92,13.92,0,0,1,3.48,2A10.91,10.91,0,0,1,623,29.4l-.72-1.12a3.37,3.37,0,0,1,1.4-2.92,7.8,7.8,0,0,1,4.44-1,7.3,7.3,0,0,1,4.12.88,3.61,3.61,0,0,1,1.52,2.32,15.62,15.62,0,0,1,.28,3l0,27.6a15.24,15.24,0,0,1-.28,3,3.49,3.49,0,0,1-1.52,2.28A7.82,7.82,0,0,1,628,64.29ZM614,52.36a7,7,0,0,0,3.84-1.08,8.48,8.48,0,0,0,2.73-11.12,7.71,7.71,0,0,0-2.8-2.84,7.58,7.58,0,0,0-3.92-1,7.71,7.71,0,0,0-4,1.08,8.19,8.19,0,0,0-2.88,2.91,8.09,8.09,0,0,0-1.08,4.16,7.55,7.55,0,0,0,1.08,4,8.21,8.21,0,0,0,7.07,4Z"/></g></g></svg>