<svg xmlns="http://www.w3.org/2000/svg" viewBox="0 0 640.25 70.9"><defs><style>.cls-1{fill:#fff;}.cls-2{fill:none;stroke:#c49e00;stroke-linejoin:round;stroke-width:12px;}</style></defs><title>ta</title><g id="Layer_2" data-name="Layer 2"><g id="Portadilla_1_GUIA_1" data-name="Portadilla 1 GUIA 1"><path class="cls-1" d="M12.08,64a7.54,7.54,0,0,1-4.2-.88,3.77,3.77,0,0,1-1.56-2.33,13.16,13.16,0,0,1-.32-3L6,14.15a12.75,12.75,0,0,1,.32-2.92A3.64,3.64,0,0,1,8,9a7.7,7.7,0,0,1,4.24-.88h16.4a20.22,20.22,0,0,1,6.76,1.2A19.59,19.59,0,0,1,41.67,13a18.85,18.85,0,0,1,6.51,14.84,19.26,19.26,0,0,1-1.81,8.56,18.39,18.39,0,0,1-4.72,6.12,21,21,0,0,1-6.36,3.67,19.91,19.91,0,0,1-6.8,1.24H18.25V57.92a13.2,13.2,0,0,1-.32,2.92,3.77,3.77,0,0,1-1.6,2.28A7.72,7.72,0,0,1,12.08,64Zm6.17-28.72H28.57a8.44,8.44,0,0,0,3.48-.76,6.89,6.89,0,0,0,2.89-2.44,7.47,7.47,0,0,0,1.16-4.32,7.77,7.77,0,0,0-1-3.92,6.87,6.87,0,0,0-2.68-2.64,8,8,0,0,0-4-1H18.26Z"/><path class="cls-1" d="M72.16,64a16.82,16.82,0,0,1-6.92-1.44,17,17,0,0,1-5.64-4,18.44,18.44,0,0,1-3.72-6.17,22,22,0,0,1-1.31-7.8V30a12.61,12.61,0,0,1,.32-3,3.75,3.75,0,0,1,1.56-2.24,7.6,7.6,0,0,1,4.2-.87,7.5,7.5,0,0,1,4.2.88,3.64,3.64,0,0,1,1.52,2.28,15.76,15.76,0,0,1,.28,3v14.4a9.11,9.11,0,0,0,.83,4A5.68,5.68,0,0,0,70,51.15a8.17,8.17,0,0,0,3.88.89,8,8,0,0,0,4-.92,6.41,6.41,0,0,0,2.56-2.6,8.13,8.13,0,0,0,.93-4V30a12.55,12.55,0,0,1,.32-3,3.55,3.55,0,0,1,1.56-2.2,7.8,7.8,0,0,1,4.2-.84,7.49,7.49,0,0,1,4.2.89,3.59,3.59,0,0,1,1.52,2.28,15.31,15.31,0,0,1,.28,2.92l0,28.16a14.17,14.17,0,0,1-.28,2.84,3.28,3.28,0,0,1-1.56,2.12,8.23,8.23,0,0,1-4.16.79A9.31,9.31,0,0,1,84,63.48a4.08,4.08,0,0,1-1.76-1.2,3.19,3.19,0,0,1-.68-1.52,9.73,9.73,0,0,1-.12-1.44l1-.88c-.16.21-.51.61-1,1.2a16.07,16.07,0,0,1-2.12,1.88,13.54,13.54,0,0,1-3.08,1.72A10.58,10.58,0,0,1,72.16,64Z"/><path class="cls-1" d="M107.35,64a7.84,7.84,0,0,1-4.19-.85,3.39,3.39,0,0,1-1.52-2.24,14.54,14.54,0,0,1-.28-2.92l0-28.16A11.71,11.71,0,0,1,101.7,27a3.42,3.42,0,0,1,1.56-2.12,8.07,8.07,0,0,1,4.2-.79,7.84,7.84,0,0,1,3.76.68,3.26,3.26,0,0,1,1.56,1.64,5.14,5.14,0,0,1,.36,1.8,2.82,2.82,0,0,0,.16,1.16l-.48,1.52a4.7,4.7,0,0,1,1.24-2.44,11.39,11.39,0,0,1,2.72-2.24,15.27,15.27,0,0,1,3.52-1.56,12.7,12.7,0,0,1,3.72-.55,16,16,0,0,1,6.84,1.4,13.84,13.84,0,0,1,5.08,4,18.79,18.79,0,0,1,3.15,6.2,26.84,26.84,0,0,1,1.08,7.8V58.07a15.31,15.31,0,0,1-.28,2.92,3.31,3.31,0,0,1-1.52,2.2,8.08,8.08,0,0,1-4.2.8,8,8,0,0,1-4.28-.84,3.58,3.58,0,0,1-1.56-2.24A12.69,12.69,0,0,1,128,58V43.51a9.48,9.48,0,0,0-.8-4.08,5.76,5.76,0,0,0-2.4-2.6,7.68,7.68,0,0,0-3.92-.93,7.92,7.92,0,0,0-4,1,6.67,6.67,0,0,0-2.6,2.64,8.24,8.24,0,0,0-.92,4V58.06a15.38,15.38,0,0,1-.28,2.92,3.34,3.34,0,0,1-1.52,2.2A8.2,8.2,0,0,1,107.35,64Z"/><path class="cls-1" d="M150.5,24.72h8.8l11-.32a14.81,14.81,0,0,1,2.88.28,3.56,3.56,0,0,1,2.24,1.57,7.78,7.78,0,0,1,.87,4.24,7.47,7.47,0,0,1-.84,4,3.67,3.67,0,0,1-2.2,1.63,11.54,11.54,0,0,1-3,.36l-10.48-.24h-9.68a3.83,3.83,0,0,1-3.24-1.4A8.07,8.07,0,0,1,146,30.4a6.76,6.76,0,0,1,1.13-4.28A4,4,0,0,1,150.5,24.72Zm18.05,39.37a24.7,24.7,0,0,1-7-.88,11.79,11.79,0,0,1-4.83-2.73,11,11,0,0,1-2.84-4.68A22.1,22.1,0,0,1,153,49l0-32.48a14.07,14.07,0,0,1,.28-2.88,3.39,3.39,0,0,1,1.57-2.12,7.74,7.74,0,0,1,4.16-.83,7.46,7.46,0,0,1,4.15.88,3.49,3.49,0,0,1,1.56,2.24,14.45,14.45,0,0,1,.28,3l0,31.76a9.59,9.59,0,0,0,.2,2.12,2.53,2.53,0,0,0,.6,1.24,2.24,2.24,0,0,0,1.12.56,8.06,8.06,0,0,0,1.76.16,13.93,13.93,0,0,1,3.12.32,3.44,3.44,0,0,1,2.12,1.45,7,7,0,0,1,.76,3.76,7.45,7.45,0,0,1-.89,4.15,3.35,3.35,0,0,1-2.28,1.52A17.18,17.18,0,0,1,168.55,64.09Z"/><path class="cls-1" d="M201.67,64.75a20.25,20.25,0,0,1-7.48-1.48,22.44,22.44,0,0,1-6.75-4.21,19.58,19.58,0,0,1-6.55-15,20.07,20.07,0,0,1,1.6-8,21,21,0,0,1,4.48-6.6A21.63,21.63,0,0,1,193.58,25a19.55,19.55,0,0,1,8-1.64A20.17,20.17,0,0,1,212,26.08a20.92,20.92,0,0,1,7.47,7.48A20.13,20.13,0,0,1,222.25,44a20.16,20.16,0,0,1-1.81,8.68,20.49,20.49,0,0,1-4.8,6.52A21.3,21.3,0,0,1,209,63.36,20.26,20.26,0,0,1,201.67,64.75Zm-.15-12.08a9,9,0,0,0,3.92-1,8.71,8.71,0,0,0,3.36-2.87A8.3,8.3,0,0,0,210.17,44a8.79,8.79,0,0,0-1.12-4.48,8,8,0,0,0-3.08-3,9.21,9.21,0,0,0-4.52-1.08,8.16,8.16,0,0,0-4.28,1.12,8.63,8.63,0,0,0-3,3.08A8.45,8.45,0,0,0,193,44a8.4,8.4,0,0,0,1.31,4.84,8,8,0,0,0,3.32,2.88A9.38,9.38,0,0,0,201.52,52.67Z"/><path class="cls-1" d="M266.79,64.07a16.08,16.08,0,0,1-6.92-1.56A18.58,18.58,0,0,1,254,58.14a21.08,21.08,0,0,1-4-6.44A20.25,20.25,0,0,1,248.48,44,19.42,19.42,0,0,1,250,36.5a20.92,20.92,0,0,1,4.08-6.32,20.14,20.14,0,0,1,5.89-4.35,15.43,15.43,0,0,1,6.88-1.6,14.14,14.14,0,0,1,6.76,1.56,14.63,14.63,0,0,1,4.91,4.29,19.36,19.36,0,0,1,3,6.32,30.47,30.47,0,0,1,1.07,7.52,26.27,26.27,0,0,1-.92,7.68,20.39,20.39,0,0,1-3,6.4,15.12,15.12,0,0,1-4.93,4.43A13.81,13.81,0,0,1,266.79,64.07Zm1.61-11.84a7.15,7.15,0,0,0,3.88-1.08,8.4,8.4,0,0,0,2.8-2.91,8.49,8.49,0,0,0,.05-8.2,7.94,7.94,0,0,0-10.76-2.85,7.28,7.28,0,0,0-2.8,2.84,8.41,8.41,0,0,0-1,4.12,8.2,8.2,0,0,0,1,4.08,7.89,7.89,0,0,0,6.8,4Zm14,11.93a7.68,7.68,0,0,1-4.08-.88,4.17,4.17,0,0,1-1.76-2.72l0-48.48a19.57,19.57,0,0,1,.21-2.92,3.28,3.28,0,0,1,1.4-2.28A7.26,7.26,0,0,1,282.35,6a7.82,7.82,0,0,1,4.2.84A3.48,3.48,0,0,1,288.07,9a15.29,15.29,0,0,1,.27,3l0,46.08A14.53,14.53,0,0,1,288,61a3.52,3.52,0,0,1-1.52,2.28A7.3,7.3,0,0,1,282.39,64.16Z"/><path class="cls-1" d="M316.31,64.9a23.06,23.06,0,0,1-9.64-1.85,18.56,18.56,0,0,1-6.59-4.84,20,20,0,0,1-3.8-6.68A22.84,22.84,0,0,1,295,44.17a20.67,20.67,0,0,1,2.73-10.64,19.67,19.67,0,0,1,7.52-7.32,22.4,22.4,0,0,1,11-2.67,20,20,0,0,1,8,1.49A16.48,16.48,0,0,1,330,28.87,16.16,16.16,0,0,1,333.25,34a14.08,14.08,0,0,1,1.08,5.2c0,2.93-.71,5.11-2.13,6.52a7.32,7.32,0,0,1-5.4,2.12l-19,0a5.74,5.74,0,0,0,1.48,3.53,8.94,8.94,0,0,0,3.32,2.24,11.34,11.34,0,0,0,4.24.8,23.7,23.7,0,0,0,3.36-.2,13.06,13.06,0,0,0,2.48-.56c.69-.24,1.33-.48,1.92-.71s1.11-.44,1.56-.6a6,6,0,0,1,1.32-.32,3.19,3.19,0,0,1,2.2.68,7,7,0,0,1,1.8,2.28,6.14,6.14,0,0,1,.76,1.68,6.74,6.74,0,0,1,.2,1.6,4.36,4.36,0,0,1-2,3.44,14.88,14.88,0,0,1-5.52,2.4A36.7,36.7,0,0,1,316.31,64.9Zm-8.54-23.69h12.64a3.16,3.16,0,0,0,1.88-.44,2,2,0,0,0,.6-1.72,3.91,3.91,0,0,0-.88-2.52,5.83,5.83,0,0,0-2.36-1.68,9,9,0,0,0-3.4-.6,9.72,9.72,0,0,0-4.4,1,7.63,7.63,0,0,0-3,2.56A6,6,0,0,0,307.77,41.21Z"/><path class="cls-1" d="M368.39,64.21a7.5,7.5,0,0,1-4.2-.88A3.75,3.75,0,0,1,362.63,61a13.84,13.84,0,0,1-.32-3l0-43.68a13.26,13.26,0,0,1,.32-2.92,3.77,3.77,0,0,1,1.6-2.28,7.72,7.72,0,0,1,4.24-.88h16.4a20,20,0,0,1,6.76,1.21A19.64,19.64,0,0,1,398,13.23a19.23,19.23,0,0,1,4.72,6.2,19.49,19.49,0,0,1,1.79,8.64,19.23,19.23,0,0,1-1.8,8.56A18.41,18.41,0,0,1,398,42.75a21,21,0,0,1-6.36,3.68,20.09,20.09,0,0,1-6.8,1.23H374.56V58.14a12.75,12.75,0,0,1-.32,2.92,3.68,3.68,0,0,1-1.6,2.27A7.7,7.7,0,0,1,368.39,64.21Zm6.18-28.71h10.32a8.51,8.51,0,0,0,3.48-.76,6.9,6.9,0,0,0,2.88-2.43A7.47,7.47,0,0,0,392.41,28a7.75,7.75,0,0,0-1-3.92,6.8,6.8,0,0,0-2.67-2.65,8,8,0,0,0-4-1H374.58Z"/><path class="cls-1" d="M443.91,64.18a7.29,7.29,0,0,1-4.36-1.05,3.09,3.09,0,0,1-1.4-2.56l.8-1.36a8.66,8.66,0,0,1-1.84,2,13.41,13.41,0,0,1-3.52,2.08,13.78,13.78,0,0,1-5.36.92,15.89,15.89,0,0,1-7-1.61,19,19,0,0,1-5.88-4.44,22,22,0,0,1-4-6.44,19.75,19.75,0,0,1-1.48-7.6,19.21,19.21,0,0,1,1.49-7.48,20.54,20.54,0,0,1,4.08-6.32,20.18,20.18,0,0,1,5.88-4.36,15.77,15.77,0,0,1,7-1.59,13.42,13.42,0,0,1,5,.84,13.92,13.92,0,0,1,3.48,2,10.91,10.91,0,0,1,2.12,2.16l-.64-1.12a3.2,3.2,0,0,1,1.32-2.92,7.84,7.84,0,0,1,4.44-1,7.28,7.28,0,0,1,4.12.88,3.61,3.61,0,0,1,1.52,2.32,15.62,15.62,0,0,1,.28,3l0,27.6a15.24,15.24,0,0,1-.28,3,3.46,3.46,0,0,1-1.52,2.28A7.82,7.82,0,0,1,443.91,64.18ZM430,52.25a7,7,0,0,0,3.8-1.08,7.81,7.81,0,0,0,2.72-2.92,8.33,8.33,0,0,0,1-4.08,8.14,8.14,0,0,0-1-4.12,8,8,0,0,0-2.79-2.88,7.24,7.24,0,0,0-3.84-1.08,7.6,7.6,0,0,0-4.12,1.12,8.42,8.42,0,0,0-2.89,2.95,8.09,8.09,0,0,0-1.08,4.16,7.55,7.55,0,0,0,1.08,4,8,8,0,0,0,3,2.89A8.26,8.26,0,0,0,430,52.25Z"/><path class="cls-1" d="M463.91,64.27a7.77,7.77,0,0,1-4.2-.84,3.46,3.46,0,0,1-1.52-2.28,15.24,15.24,0,0,1-.28-3l0-27.92a13,13,0,0,1,.32-3,3.55,3.55,0,0,1,1.56-2.2,7.82,7.82,0,0,1,4.2-.84,8,8,0,0,1,4,.76,3.35,3.35,0,0,1,1.56,1.76,5.92,5.92,0,0,1,.32,1.72L469,29a9.14,9.14,0,0,1,.84-1.16,11.27,11.27,0,0,1,1.88-1.76,11,11,0,0,1,2.92-1.55,11.27,11.27,0,0,1,4-.64,17.84,17.84,0,0,1,2,.12,12,12,0,0,1,2.24.48,9.09,9.09,0,0,1,2.12,1,5.27,5.27,0,0,1,1.56,1.48,3.76,3.76,0,0,1,.6,2.16,9.82,9.82,0,0,1-1.52,5.56,4.51,4.51,0,0,1-3.85,2.28,5.43,5.43,0,0,1-1.92-.24,5.94,5.94,0,0,1-.92-.48,4.11,4.11,0,0,0-.84-.44,5,5,0,0,0-1.75-.2,7.87,7.87,0,0,0-2.29.32,6.56,6.56,0,0,0-2,1,5,5,0,0,0-1.44,1.68,4.79,4.79,0,0,0-.52,2.2v17.6a14.54,14.54,0,0,1-.28,2.92,3.27,3.27,0,0,1-1.56,2.2A8.43,8.43,0,0,1,463.91,64.27Z"/><path class="cls-1" d="M495.85,24.93h8.8l11-.31a14.07,14.07,0,0,1,2.88.28,3.56,3.56,0,0,1,2.24,1.56,7.72,7.72,0,0,1,.88,4.24,7.32,7.32,0,0,1-.85,4,3.68,3.68,0,0,1-2.2,1.64,11.49,11.49,0,0,1-3,.36l-10.48-.25h-9.68a3.85,3.85,0,0,1-3.23-1.4,8,8,0,0,1-.92-4.44,6.76,6.76,0,0,1,1.12-4.28A4,4,0,0,1,495.85,24.93ZM513.91,64.3a24.27,24.27,0,0,1-7-.89,11.63,11.63,0,0,1-4.84-2.72A11.08,11.08,0,0,1,499.23,56a21.86,21.86,0,0,1-.91-6.76l0-32.48a13.27,13.27,0,0,1,.28-2.88,3.34,3.34,0,0,1,1.56-2.12,7.83,7.83,0,0,1,4.16-.84,7.49,7.49,0,0,1,4.16.89,3.54,3.54,0,0,1,1.56,2.24,15.11,15.11,0,0,1,.28,3l0,31.76a9.66,9.66,0,0,0,.19,2.12,2.71,2.71,0,0,0,.6,1.24,2.24,2.24,0,0,0,1.12.56,8.06,8.06,0,0,0,1.76.16,13.8,13.8,0,0,1,3.12.32,3.44,3.44,0,0,1,2.12,1.44,6.93,6.93,0,0,1,.76,3.76,7.5,7.5,0,0,1-.88,4.16,3.39,3.39,0,0,1-2.28,1.52A17.35,17.35,0,0,1,513.91,64.3Z"/><path class="cls-1" d="M534.25,18.55a7.92,7.92,0,0,1-4.32-.88,3.54,3.54,0,0,1-1.55-2.32,15.62,15.62,0,0,1-.28-3,14,14,0,0,1,.32-3.08A3.57,3.57,0,0,1,530,7a8.22,8.22,0,0,1,4.32-.84,7.79,7.79,0,0,1,4.24.88,3.6,3.6,0,0,1,1.56,2.32,15.69,15.69,0,0,1,.28,3,16.44,16.44,0,0,1-.28,3,3.43,3.43,0,0,1-1.57,2.28A8.22,8.22,0,0,1,534.25,18.55Zm0,45.76a7.77,7.77,0,0,1-4.2-.84,3.42,3.42,0,0,1-1.52-2.24,14.68,14.68,0,0,1-.28-2.92l0-27.92a14.38,14.38,0,0,1,.28-3,3.41,3.41,0,0,1,1.56-2.2,8,8,0,0,1,4.24-.84,7.39,7.39,0,0,1,4.12.88A3.6,3.6,0,0,1,540,27.51a15.65,15.65,0,0,1,.28,3l0,27.84a14.54,14.54,0,0,1-.28,2.92,3.31,3.31,0,0,1-1.52,2.2A8.08,8.08,0,0,1,534.23,64.31Z"/><path class="cls-1" d="M565.91,64.25A16.08,16.08,0,0,1,559,62.69a18.66,18.66,0,0,1-5.88-4.37,21.27,21.27,0,0,1-4-6.44,20.43,20.43,0,0,1-1.47-7.72,19.23,19.23,0,0,1,1.48-7.48,20.76,20.76,0,0,1,4.09-6.32A20,20,0,0,1,559.05,26a15.47,15.47,0,0,1,6.88-1.6A14.14,14.14,0,0,1,572.69,26a14.75,14.75,0,0,1,4.92,4.29,19.14,19.14,0,0,1,3,6.32,30,30,0,0,1,1.08,7.52,26.61,26.61,0,0,1-.93,7.68,20.39,20.39,0,0,1-3,6.4,15.09,15.09,0,0,1-4.92,4.43A13.86,13.86,0,0,1,565.91,64.25Zm1.6-11.84a7.13,7.13,0,0,0,3.88-1.08,8.52,8.52,0,0,0,2.81-2.91,7.93,7.93,0,0,0,1.08-4.08,8.11,8.11,0,0,0-1-4.12,7.94,7.94,0,0,0-10.76-2.85,7.35,7.35,0,0,0-2.8,2.84,8.3,8.3,0,0,0-1,4.12,8.1,8.1,0,0,0,1,4.08,7.81,7.81,0,0,0,2.87,2.92A7.65,7.65,0,0,0,567.51,52.41Zm14,11.93a7.63,7.63,0,0,1-4.08-.88,4.1,4.1,0,0,1-1.76-2.72l0-48.48a19.6,19.6,0,0,1,.2-2.92,3.28,3.28,0,0,1,1.4-2.28,7.28,7.28,0,0,1,4.16-.88,7.82,7.82,0,0,1,4.2.84,3.44,3.44,0,0,1,1.52,2.2,15.26,15.26,0,0,1,.28,3l0,46.08a15.31,15.31,0,0,1-.28,2.92,3.59,3.59,0,0,1-1.52,2.28A7.3,7.3,0,0,1,581.51,64.34Z"/><path class="cls-1" d="M628.22,64.29a7.33,7.33,0,0,1-4.35-1,3.1,3.1,0,0,1-1.4-2.57l.8-1.36a8.9,8.9,0,0,1-1.84,2,13.41,13.41,0,0,1-3.52,2.08,13.83,13.83,0,0,1-5.37.92,15.85,15.85,0,0,1-7-1.61,18.58,18.58,0,0,1-5.88-4.44,22,22,0,0,1-4-6.44,19.93,19.93,0,0,1-1.47-7.6,19.2,19.2,0,0,1,1.48-7.48,20.76,20.76,0,0,1,4.09-6.32A20.18,20.18,0,0,1,605.61,26a15.74,15.74,0,0,1,7-1.59,13.49,13.49,0,0,1,5,.84,14.29,14.29,0,0,1,3.48,2,10.91,10.91,0,0,1,2.12,2.16l-.64-1.12a3.13,3.13,0,0,1,1.32-2.91,7.71,7.71,0,0,1,4.44-1,7.3,7.3,0,0,1,4.12.88A3.65,3.65,0,0,1,634,27.57a16.44,16.44,0,0,1,.28,3l0,27.6a16.06,16.06,0,0,1-.28,3,3.49,3.49,0,0,1-1.52,2.28A7.84,7.84,0,0,1,628.22,64.29ZM614.31,52.36a7,7,0,0,0,3.8-1.08,7.65,7.65,0,0,0,2.72-2.92,8.34,8.34,0,0,0,1-4.08,8.14,8.14,0,0,0-1-4.12,8.05,8.05,0,0,0-2.8-2.88,7.19,7.19,0,0,0-3.84-1.08A7.6,7.6,0,0,0,610,37.32a8.47,8.47,0,0,0-2.88,3,8.09,8.09,0,0,0-1.08,4.16,7.64,7.64,0,0,0,1.07,4,8,8,0,0,0,3,2.89A8.29,8.29,0,0,0,614.31,52.36Z"/><path class="cls-2" d="M12.08,64a7.54,7.54,0,0,1-4.2-.88,3.77,3.77,0,0,1-1.56-2.33,13.16,13.16,0,0,1-.32-3L6,14.15a12.75,12.75,0,0,1,.32-2.92A3.64,3.64,0,0,1,8,9a7.7,7.7,0,0,1,4.24-.88h16.4a20.22,20.22,0,0,1,6.76,1.2A19.59,19.59,0,0,1,41.67,13a18.85,18.85,0,0,1,6.51,14.84,19.26,19.26,0,0,1-1.81,8.56,18.39,18.39,0,0,1-4.72,6.12,21,21,0,0,1-6.36,3.67,19.91,19.91,0,0,1-6.8,1.24H18.25V57.92a13.2,13.2,0,0,1-.32,2.92,3.77,3.77,0,0,1-1.6,2.28A7.72,7.72,0,0,1,12.08,64Zm6.17-28.72H28.57a8.44,8.44,0,0,0,3.48-.76,6.89,6.89,0,0,0,2.89-2.44,7.47,7.47,0,0,0,1.16-4.32,7.77,7.77,0,0,0-1-3.92,6.87,6.87,0,0,0-2.68-2.64,8,8,0,0,0-4-1H18.26Z"/><path class="cls-2" d="M72.16,64a16.82,16.82,0,0,1-6.92-1.44,17,17,0,0,1-5.64-4,18.44,18.44,0,0,1-3.72-6.17,22,22,0,0,1-1.31-7.8V30a12.61,12.61,0,0,1,.32-3,3.75,3.75,0,0,1,1.56-2.24,7.6,7.6,0,0,1,4.2-.87,7.5,7.5,0,0,1,4.2.88,3.64,3.64,0,0,1,1.52,2.28,15.76,15.76,0,0,1,.28,3v14.4a9.11,9.11,0,0,0,.83,4A5.68,5.68,0,0,0,70,51.15a8.17,8.17,0,0,0,3.88.89,8,8,0,0,0,4-.92,6.41,6.41,0,0,0,2.56-2.6,8.13,8.13,0,0,0,.93-4V30a12.55,12.55,0,0,1,.32-3,3.55,3.55,0,0,1,1.56-2.2,7.8,7.8,0,0,1,4.2-.84,7.49,7.49,0,0,1,4.2.89,3.59,3.59,0,0,1,1.52,2.28,15.31,15.31,0,0,1,.28,2.92l0,28.16a14.17,14.17,0,0,1-.28,2.84,3.28,3.28,0,0,1-1.56,2.12,8.23,8.23,0,0,1-4.16.79A9.31,9.31,0,0,1,84,63.48a4.08,4.08,0,0,1-1.76-1.2,3.19,3.19,0,0,1-.68-1.52,9.73,9.73,0,0,1-.12-1.44l1-.88c-.16.21-.51.61-1,1.2a16.07,16.07,0,0,1-2.12,1.88,13.54,13.54,0,0,1-3.08,1.72A10.58,10.58,0,0,1,72.16,64Z"/><path class="cls-2" d="M107.35,64a7.84,7.84,0,0,1-4.19-.85,3.39,3.39,0,0,1-1.52-2.24,14.54,14.54,0,0,1-.28-2.92l0-28.16A11.71,11.71,0,0,1,101.7,27a3.42,3.42,0,0,1,1.56-2.12,8.07,8.07,0,0,1,4.2-.79,7.84,7.84,0,0,1,3.76.68,3.26,3.26,0,0,1,1.56,1.64,5.14,5.14,0,0,1,.36,1.8,2.82,2.82,0,0,0,.16,1.16l-.48,1.52a4.7,4.7,0,0,1,1.24-2.44,11.39,11.39,0,0,1,2.72-2.24,15.27,15.27,0,0,1,3.52-1.56,12.7,12.7,0,0,1,3.72-.55,16,16,0,0,1,6.84,1.4,13.84,13.84,0,0,1,5.08,4,18.79,18.79,0,0,1,3.15,6.2,26.84,26.84,0,0,1,1.08,7.8V58.07a15.31,15.31,0,0,1-.28,2.92,3.31,3.31,0,0,1-1.52,2.2,8.08,8.08,0,0,1-4.2.8,8,8,0,0,1-4.28-.84,3.58,3.58,0,0,1-1.56-2.24A12.69,12.69,0,0,1,128,58V43.51a9.48,9.48,0,0,0-.8-4.08,5.76,5.76,0,0,0-2.4-2.6,7.68,7.68,0,0,0-3.92-.93,7.92,7.92,0,0,0-4,1,6.67,6.67,0,0,0-2.6,2.64,8.24,8.24,0,0,0-.92,4V58.06a15.38,15.38,0,0,1-.28,2.92,3.34,3.34,0,0,1-1.52,2.2A8.2,8.2,0,0,1,107.35,64Z"/><path class="cls-2" d="M150.5,24.72h8.8l11-.32a14.81,14.81,0,0,1,2.88.28,3.56,3.56,0,0,1,2.24,1.57,7.78,7.78,0,0,1,.87,4.24,7.47,7.47,0,0,1-.84,4,3.67,3.67,0,0,1-2.2,1.63,11.54,11.54,0,0,1-3,.36l-10.48-.24h-9.68a3.83,3.83,0,0,1-3.24-1.4A8.07,8.07,0,0,1,146,30.4a6.76,6.76,0,0,1,1.13-4.28A4,4,0,0,1,150.5,24.72Zm18.05,39.37a24.7,24.7,0,0,1-7-.88,11.79,11.79,0,0,1-4.83-2.73,11,11,0,0,1-2.84-4.68A22.1,22.1,0,0,1,153,49l0-32.48a14.07,14.07,0,0,1,.28-2.88,3.39,3.39,0,0,1,1.57-2.12,7.74,7.74,0,0,1,4.16-.83,7.46,7.46,0,0,1,4.15.88,3.49,3.49,0,0,1,1.56,2.24,14.45,14.45,0,0,1,.28,3l0,31.76a9.59,9.59,0,0,0,.2,2.12,2.53,2.53,0,0,0,.6,1.24,2.24,2.24,0,0,0,1.12.56,8.06,8.06,0,0,0,1.76.16,13.93,13.93,0,0,1,3.12.32,3.44,3.44,0,0,1,2.12,1.45,7,7,0,0,1,.76,3.76,7.45,7.45,0,0,1-.89,4.15,3.35,3.35,0,0,1-2.28,1.52A17.18,17.18,0,0,1,168.55,64.09Z"/><path class="cls-2" d="M201.67,64.75a20.25,20.25,0,0,1-7.48-1.48,22.44,22.44,0,0,1-6.75-4.21,19.58,19.58,0,0,1-6.55-15,20.07,20.07,0,0,1,1.6-8,21,21,0,0,1,4.48-6.6A21.63,21.63,0,0,1,193.58,25a19.55,19.55,0,0,1,8-1.64A20.17,20.17,0,0,1,212,26.08a20.92,20.92,0,0,1,7.47,7.48A20.13,20.13,0,0,1,222.25,44a20.16,20.16,0,0,1-1.81,8.68,20.49,20.49,0,0,1-4.8,6.52A21.3,21.3,0,0,1,209,63.36,20.26,20.26,0,0,1,201.67,64.75Zm-.15-12.08a9,9,0,0,0,3.92-1,8.71,8.71,0,0,0,3.36-2.87A8.3,8.3,0,0,0,210.17,44a8.79,8.79,0,0,0-1.12-4.48,8,8,0,0,0-3.08-3,9.21,9.21,0,0,0-4.52-1.08,8.16,8.16,0,0,0-4.28,1.12,8.63,8.63,0,0,0-3,3.08A8.45,8.45,0,0,0,193,44a8.4,8.4,0,0,0,1.31,4.84,8,8,0,0,0,3.32,2.88A9.38,9.38,0,0,0,201.52,52.67Z"/><path class="cls-2" d="M266.79,64.07a16.08,16.08,0,0,1-6.92-1.56A18.58,18.58,0,0,1,254,58.14a21.08,21.08,0,0,1-4-6.44A20.25,20.25,0,0,1,248.48,44,19.42,19.42,0,0,1,250,36.5a20.92,20.92,0,0,1,4.08-6.32,20.14,20.14,0,0,1,5.89-4.35,15.43,15.43,0,0,1,6.88-1.6,14.14,14.14,0,0,1,6.76,1.56,14.63,14.63,0,0,1,4.91,4.29,19.36,19.36,0,0,1,3,6.32,30.47,30.47,0,0,1,1.07,7.52,26.27,26.27,0,0,1-.92,7.68,20.39,20.39,0,0,1-3,6.4,15.12,15.12,0,0,1-4.93,4.43A13.81,13.81,0,0,1,266.79,64.07Zm1.61-11.84a7.15,7.15,0,0,0,3.88-1.08,8.4,8.4,0,0,0,2.8-2.91,8.49,8.49,0,0,0,.05-8.2,7.94,7.94,0,0,0-10.76-2.85,7.28,7.28,0,0,0-2.8,2.84,8.41,8.41,0,0,0-1,4.12,8.2,8.2,0,0,0,1,4.08,7.89,7.89,0,0,0,6.8,4Zm14,11.93a7.68,7.68,0,0,1-4.08-.88,4.17,4.17,0,0,1-1.76-2.72l0-48.48a19.57,19.57,0,0,1,.21-2.92,3.28,3.28,0,0,1,1.4-2.28A7.26,7.26,0,0,1,282.35,6a7.82,7.82,0,0,1,4.2.84A3.48,3.48,0,0,1,288.07,9a15.29,15.29,0,0,1,.27,3l0,46.08A14.53,14.53,0,0,1,288,61a3.52,3.52,0,0,1-1.52,2.28A7.3,7.3,0,0,1,282.39,64.16Z"/><path class="cls-2" d="M316.31,64.9a23.06,23.06,0,0,1-9.64-1.85,18.56,18.56,0,0,1-6.59-4.84,20,20,0,0,1-3.8-6.68A22.84,22.84,0,0,1,295,44.17a20.67,20.67,0,0,1,2.73-10.64,19.67,19.67,0,0,1,7.52-7.32,22.4,22.4,0,0,1,11-2.67,20,20,0,0,1,8,1.49A16.48,16.48,0,0,1,330,28.87,16.16,16.16,0,0,1,333.25,34a14.08,14.08,0,0,1,1.08,5.2c0,2.93-.71,5.11-2.13,6.52a7.32,7.32,0,0,1-5.4,2.12l-19,0a5.74,5.74,0,0,0,1.48,3.53,8.94,8.94,0,0,0,3.32,2.24,11.34,11.34,0,0,0,4.24.8,23.7,23.7,0,0,0,3.36-.2,13.06,13.06,0,0,0,2.48-.56c.69-.24,1.33-.48,1.92-.71s1.11-.44,1.56-.6a6,6,0,0,1,1.32-.32,3.19,3.19,0,0,1,2.2.68,7,7,0,0,1,1.8,2.28,6.14,6.14,0,0,1,.76,1.68,6.74,6.74,0,0,1,.2,1.6,4.36,4.36,0,0,1-2,3.44,14.88,14.88,0,0,1-5.52,2.4A36.7,36.7,0,0,1,316.31,64.9Zm-8.54-23.69h12.64a3.16,3.16,0,0,0,1.88-.44,2,2,0,0,0,.6-1.72,3.91,3.91,0,0,0-.88-2.52,5.83,5.83,0,0,0-2.36-1.68,9,9,0,0,0-3.4-.6,9.72,9.72,0,0,0-4.4,1,7.63,7.63,0,0,0-3,2.56A6,6,0,0,0,307.77,41.21Z"/><path class="cls-2" d="M368.39,64.21a7.5,7.5,0,0,1-4.2-.88A3.75,3.75,0,0,1,362.63,61a13.84,13.84,0,0,1-.32-3l0-43.68a13.26,13.26,0,0,1,.32-2.92,3.77,3.77,0,0,1,1.6-2.28,7.72,7.72,0,0,1,4.24-.88h16.4a20,20,0,0,1,6.76,1.21A19.64,19.64,0,0,1,398,13.23a19.23,19.23,0,0,1,4.72,6.2,19.49,19.49,0,0,1,1.79,8.64,19.23,19.23,0,0,1-1.8,8.56A18.41,18.41,0,0,1,398,42.75a21,21,0,0,1-6.36,3.68,20.09,20.09,0,0,1-6.8,1.23H374.56V58.14a12.75,12.75,0,0,1-.32,2.92,3.68,3.68,0,0,1-1.6,2.27A7.7,7.7,0,0,1,368.39,64.21Zm6.18-28.71h10.32a8.51,8.51,0,0,0,3.48-.76,6.9,6.9,0,0,0,2.88-2.43A7.47,7.47,0,0,0,392.41,28a7.75,7.75,0,0,0-1-3.92,6.8,6.8,0,0,0-2.67-2.65,8,8,0,0,0-4-1H374.58Z"/><path class="cls-2" d="M443.91,64.18a7.29,7.29,0,0,1-4.36-1.05,3.09,3.09,0,0,1-1.4-2.56l.8-1.36a8.66,8.66,0,0,1-1.84,2,13.41,13.41,0,0,1-3.52,2.08,13.78,13.78,0,0,1-5.36.92,15.89,15.89,0,0,1-7-1.61,19,19,0,0,1-5.88-4.44,22,22,0,0,1-4-6.44,19.75,19.75,0,0,1-1.48-7.6,19.21,19.21,0,0,1,1.49-7.48,20.54,20.54,0,0,1,4.08-6.32,20.18,20.18,0,0,1,5.88-4.36,15.77,15.77,0,0,1,7-1.59,13.42,13.42,0,0,1,5,.84,13.92,13.92,0,0,1,3.48,2,10.91,10.91,0,0,1,2.12,2.16l-.64-1.12a3.2,3.2,0,0,1,1.32-2.92,7.84,7.84,0,0,1,4.44-1,7.28,7.28,0,0,1,4.12.88,3.61,3.61,0,0,1,1.52,2.32,15.62,15.62,0,0,1,.28,3l0,27.6a15.24,15.24,0,0,1-.28,3,3.46,3.46,0,0,1-1.52,2.28A7.82,7.82,0,0,1,443.91,64.18ZM430,52.25a7,7,0,0,0,3.8-1.08,7.81,7.81,0,0,0,2.72-2.92,8.33,8.33,0,0,0,1-4.08,8.14,8.14,0,0,0-1-4.12,8,8,0,0,0-2.79-2.88,7.24,7.24,0,0,0-3.84-1.08,7.6,7.6,0,0,0-4.12,1.12,8.42,8.42,0,0,0-2.89,2.95,8.09,8.09,0,0,0-1.08,4.16,7.55,7.55,0,0,0,1.08,4,8,8,0,0,0,3,2.89A8.26,8.26,0,0,0,430,52.25Z"/><path class="cls-2" d="M463.91,64.27a7.77,7.77,0,0,1-4.2-.84,3.46,3.46,0,0,1-1.52-2.28,15.24,15.24,0,0,1-.28-3l0-27.92a13,13,0,0,1,.32-3,3.55,3.55,0,0,1,1.56-2.2,7.82,7.82,0,0,1,4.2-.84,8,8,0,0,1,4,.76,3.35,3.35,0,0,1,1.56,1.76,5.92,5.92,0,0,1,.32,1.72L469,29a9.14,9.14,0,0,1,.84-1.16,11.27,11.27,0,0,1,1.88-1.76,11,11,0,0,1,2.92-1.55,11.27,11.27,0,0,1,4-.64,17.84,17.84,0,0,1,2,.12,12,12,0,0,1,2.24.48,9.09,9.09,0,0,1,2.12,1,5.27,5.27,0,0,1,1.56,1.48,3.76,3.76,0,0,1,.6,2.16,9.82,9.82,0,0,1-1.52,5.56,4.51,4.51,0,0,1-3.85,2.28,5.43,5.43,0,0,1-1.92-.24,5.94,5.94,0,0,1-.92-.48,4.11,4.11,0,0,0-.84-.44,5,5,0,0,0-1.75-.2,7.87,7.87,0,0,0-2.29.32,6.56,6.56,0,0,0-2,1,5,5,0,0,0-1.44,1.68,4.79,4.79,0,0,0-.52,2.2v17.6a14.54,14.54,0,0,1-.28,2.92,3.27,3.27,0,0,1-1.56,2.2A8.43,8.43,0,0,1,463.91,64.27Z"/><path class="cls-2" d="M495.85,24.93h8.8l11-.31a14.07,14.07,0,0,1,2.88.28,3.56,3.56,0,0,1,2.24,1.56,7.72,7.72,0,0,1,.88,4.24,7.32,7.32,0,0,1-.85,4,3.68,3.68,0,0,1-2.2,1.64,11.49,11.49,0,0,1-3,.36l-10.48-.25h-9.68a3.85,3.85,0,0,1-3.23-1.4,8,8,0,0,1-.92-4.44,6.76,6.76,0,0,1,1.12-4.28A4,4,0,0,1,495.85,24.93ZM513.91,64.3a24.27,24.27,0,0,1-7-.89,11.63,11.63,0,0,1-4.84-2.72A11.08,11.08,0,0,1,499.23,56a21.86,21.86,0,0,1-.91-6.76l0-32.48a13.27,13.27,0,0,1,.28-2.88,3.34,3.34,0,0,1,1.56-2.12,7.83,7.83,0,0,1,4.16-.84,7.49,7.49,0,0,1,4.16.89,3.54,3.54,0,0,1,1.56,2.24,15.11,15.11,0,0,1,.28,3l0,31.76a9.66,9.66,0,0,0,.19,2.12,2.71,2.71,0,0,0,.6,1.24,2.24,2.24,0,0,0,1.12.56,8.06,8.06,0,0,0,1.76.16,13.8,13.8,0,0,1,3.12.32,3.44,3.44,0,0,1,2.12,1.44,6.93,6.93,0,0,1,.76,3.76,7.5,7.5,0,0,1-.88,4.16,3.39,3.39,0,0,1-2.28,1.52A17.35,17.35,0,0,1,513.91,64.3Z"/><path class="cls-2" d="M534.25,18.55a7.92,7.92,0,0,1-4.32-.88,3.54,3.54,0,0,1-1.55-2.32,15.62,15.62,0,0,1-.28-3,14,14,0,0,1,.32-3.08A3.57,3.57,0,0,1,530,7a8.22,8.22,0,0,1,4.32-.84,7.79,7.79,0,0,1,4.24.88,3.6,3.6,0,0,1,1.56,2.32,15.69,15.69,0,0,1,.28,3,16.44,16.44,0,0,1-.28,3,3.43,3.43,0,0,1-1.57,2.28A8.22,8.22,0,0,1,534.25,18.55Zm0,45.76a7.77,7.77,0,0,1-4.2-.84,3.42,3.42,0,0,1-1.52-2.24,14.68,14.68,0,0,1-.28-2.92l0-27.92a14.38,14.38,0,0,1,.28-3,3.41,3.41,0,0,1,1.56-2.2,8,8,0,0,1,4.24-.84,7.39,7.39,0,0,1,4.12.88A3.6,3.6,0,0,1,540,27.51a15.65,15.65,0,0,1,.28,3l0,27.84a14.54,14.54,0,0,1-.28,2.92,3.31,3.31,0,0,1-1.52,2.2A8.08,8.08,0,0,1,534.23,64.31Z"/><path class="cls-2" d="M565.91,64.25A16.08,16.08,0,0,1,559,62.69a18.66,18.66,0,0,1-5.88-4.37,21.27,21.27,0,0,1-4-6.44,20.43,20.43,0,0,1-1.47-7.72,19.23,19.23,0,0,1,1.48-7.48,20.76,20.76,0,0,1,4.09-6.32A20,20,0,0,1,559.05,26a15.47,15.47,0,0,1,6.88-1.6A14.14,14.14,0,0,1,572.69,26a14.75,14.75,0,0,1,4.92,4.29,19.14,19.14,0,0,1,3,6.32,30,30,0,0,1,1.08,7.52,26.61,26.61,0,0,1-.93,7.68,20.39,20.39,0,0,1-3,6.4,15.09,15.09,0,0,1-4.92,4.43A13.86,13.86,0,0,1,565.91,64.25Zm1.6-11.84a7.13,7.13,0,0,0,3.88-1.08,8.52,8.52,0,0,0,2.81-2.91,7.93,7.93,0,0,0,1.08-4.08,8.11,8.11,0,0,0-1-4.12,7.94,7.94,0,0,0-10.76-2.85,7.35,7.35,0,0,0-2.8,2.84,8.3,8.3,0,0,0-1,4.12,8.1,8.1,0,0,0,1,4.08,7.81,7.81,0,0,0,2.87,2.92A7.65,7.65,0,0,0,567.51,52.41Zm14,11.93a7.63,7.63,0,0,1-4.08-.88,4.1,4.1,0,0,1-1.76-2.72l0-48.48a19.6,19.6,0,0,1,.2-2.92,3.28,3.28,0,0,1,1.4-2.28,7.28,7.28,0,0,1,4.16-.88,7.82,7.82,0,0,1,4.2.84,3.44,3.44,0,0,1,1.52,2.2,15.26,15.26,0,0,1,.28,3l0,46.08a15.31,15.31,0,0,1-.28,2.92,3.59,3.59,0,0,1-1.52,2.28A7.3,7.3,0,0,1,581.51,64.34Z"/><path class="cls-2" d="M628.22,64.29a7.33,7.33,0,0,1-4.35-1,3.1,3.1,0,0,1-1.4-2.57l.8-1.36a8.9,8.9,0,0,1-1.84,2,13.41,13.41,0,0,1-3.52,2.08,13.83,13.83,0,0,1-5.37.92,15.85,15.85,0,0,1-7-1.61,18.58,18.58,0,0,1-5.88-4.44,22,22,0,0,1-4-6.44,19.93,19.93,0,0,1-1.47-7.6,19.2,19.2,0,0,1,1.48-7.48,20.76,20.76,0,0,1,4.09-6.32A20.18,20.18,0,0,1,605.61,26a15.74,15.74,0,0,1,7-1.59,13.49,13.49,0,0,1,5,.84,14.29,14.29,0,0,1,3.48,2,10.91,10.91,0,0,1,2.12,2.16l-.64-1.12a3.13,3.13,0,0,1,1.32-2.91,7.71,7.71,0,0,1,4.44-1,7.3,7.3,0,0,1,4.12.88A3.65,3.65,0,0,1,634,27.57a16.44,16.44,0,0,1,.28,3l0,27.6a16.06,16.06,0,0,1-.28,3,3.49,3.49,0,0,1-1.52,2.28A7.84,7.84,0,0,1,628.22,64.29ZM614.31,52.36a7,7,0,0,0,3.8-1.08,7.65,7.65,0,0,0,2.72-2.92,8.34,8.34,0,0,0,1-4.08,8.14,8.14,0,0,0-1-4.12,8.05,8.05,0,0,0-2.8-2.88,7.19,7.19,0,0,0-3.84-1.08A7.6,7.6,0,0,0,610,37.32a8.47,8.47,0,0,0-2.88,3,8.09,8.09,0,0,0-1.08,4.16,7.64,7.64,0,0,0,1.07,4,8,8,0,0,0,3,2.89A8.29,8.29,0,0,0,614.31,52.36Z"/><path class="cls-1" d="M12.08,64a7.54,7.54,0,0,1-4.2-.88,3.77,3.77,0,0,1-1.56-2.33,13.16,13.16,0,0,1-.32-3L6,14.15a12.75,12.75,0,0,1,.32-2.92A3.64,3.64,0,0,1,8,9a7.7,7.7,0,0,1,4.24-.88h16.4a20.22,20.22,0,0,1,6.76,1.2A19.59,19.59,0,0,1,41.67,13a18.85,18.85,0,0,1,6.51,14.84,19.26,19.26,0,0,1-1.81,8.56,18.39,18.39,0,0,1-4.72,6.12,21,21,0,0,1-6.36,3.67,19.91,19.91,0,0,1-6.8,1.24H18.25V57.92a13.2,13.2,0,0,1-.32,2.92,3.77,3.77,0,0,1-1.6,2.28A7.72,7.72,0,0,1,12.08,64Zm6.17-28.72H28.57a8.44,8.44,0,0,0,3.48-.76,6.89,6.89,0,0,0,2.89-2.44,7.47,7.47,0,0,0,1.16-4.32,7.77,7.77,0,0,0-1-3.92,6.87,6.87,0,0,0-2.68-2.64,8,8,0,0,0-4-1H18.26Z"/><path class="cls-1" d="M72.16,64a16.82,16.82,0,0,1-6.92-1.44,17,17,0,0,1-5.64-4,18.44,18.44,0,0,1-3.72-6.17,22,22,0,0,1-1.31-7.8V30a12.61,12.61,0,0,1,.32-3,3.75,3.75,0,0,1,1.56-2.24,7.6,7.6,0,0,1,4.2-.87,7.5,7.5,0,0,1,4.2.88,3.64,3.64,0,0,1,1.52,2.28,15.76,15.76,0,0,1,.28,3v14.4a9.11,9.11,0,0,0,.83,4A5.68,5.68,0,0,0,70,51.15a8.17,8.17,0,0,0,3.88.89,8,8,0,0,0,4-.92,6.41,6.41,0,0,0,2.56-2.6,8.13,8.13,0,0,0,.93-4V30a12.55,12.55,0,0,1,.32-3,3.55,3.55,0,0,1,1.56-2.2,7.8,7.8,0,0,1,4.2-.84,7.49,7.49,0,0,1,4.2.89,3.59,3.59,0,0,1,1.52,2.28,15.31,15.31,0,0,1,.28,2.92l0,28.16a14.17,14.17,0,0,1-.28,2.84,3.28,3.28,0,0,1-1.56,2.12,8.23,8.23,0,0,1-4.16.79A9.31,9.31,0,0,1,84,63.48a4.08,4.08,0,0,1-1.76-1.2,3.19,3.19,0,0,1-.68-1.52,9.73,9.73,0,0,1-.12-1.44l1-.88c-.16.21-.51.61-1,1.2a16.07,16.07,0,0,1-2.12,1.88,13.54,13.54,0,0,1-3.08,1.72A10.58,10.58,0,0,1,72.16,64Z"/><path class="cls-1" d="M107.35,64a7.84,7.84,0,0,1-4.19-.85,3.39,3.39,0,0,1-1.52-2.24,14.54,14.54,0,0,1-.28-2.92l0-28.16A11.71,11.71,0,0,1,101.7,27a3.42,3.42,0,0,1,1.56-2.12,8.07,8.07,0,0,1,4.2-.79,7.84,7.84,0,0,1,3.76.68,3.26,3.26,0,0,1,1.56,1.64,5.14,5.14,0,0,1,.36,1.8,2.82,2.82,0,0,0,.16,1.16l-.48,1.52a4.7,4.7,0,0,1,1.24-2.44,11.39,11.39,0,0,1,2.72-2.24,15.27,15.27,0,0,1,3.52-1.56,12.7,12.7,0,0,1,3.72-.55,16,16,0,0,1,6.84,1.4,13.84,13.84,0,0,1,5.08,4,18.79,18.79,0,0,1,3.15,6.2,26.84,26.84,0,0,1,1.08,7.8V58.07a15.31,15.31,0,0,1-.28,2.92,3.31,3.31,0,0,1-1.52,2.2,8.08,8.08,0,0,1-4.2.8,8,8,0,0,1-4.28-.84,3.58,3.58,0,0,1-1.56-2.24A12.69,12.69,0,0,1,128,58V43.51a9.48,9.48,0,0,0-.8-4.08,5.76,5.76,0,0,0-2.4-2.6,7.68,7.68,0,0,0-3.92-.93,7.92,7.92,0,0,0-4,1,6.67,6.67,0,0,0-2.6,2.64,8.24,8.24,0,0,0-.92,4V58.06a15.38,15.38,0,0,1-.28,2.92,3.34,3.34,0,0,1-1.52,2.2A8.2,8.2,0,0,1,107.35,64Z"/><path class="cls-1" d="M150.5,24.72h8.8l11-.32a14.81,14.81,0,0,1,2.88.28,3.56,3.56,0,0,1,2.24,1.57,7.78,7.78,0,0,1,.87,4.24,7.47,7.47,0,0,1-.84,4,3.67,3.67,0,0,1-2.2,1.63,11.54,11.54,0,0,1-3,.36l-10.48-.24h-9.68a3.83,3.83,0,0,1-3.24-1.4A8.07,8.07,0,0,1,146,30.4a6.76,6.76,0,0,1,1.13-4.28A4,4,0,0,1,150.5,24.72Zm18.05,39.37a24.7,24.7,0,0,1-7-.88,11.79,11.79,0,0,1-4.83-2.73,11,11,0,0,1-2.84-4.68A22.1,22.1,0,0,1,153,49l0-32.48a14.07,14.07,0,0,1,.28-2.88,3.39,3.39,0,0,1,1.57-2.12,7.74,7.74,0,0,1,4.16-.83,7.46,7.46,0,0,1,4.15.88,3.49,3.49,0,0,1,1.56,2.24,14.45,14.45,0,0,1,.28,3l0,31.76a9.59,9.59,0,0,0,.2,2.12,2.53,2.53,0,0,0,.6,1.24,2.24,2.24,0,0,0,1.12.56,8.06,8.06,0,0,0,1.76.16,13.93,13.93,0,0,1,3.12.32,3.44,3.44,0,0,1,2.12,1.45,7,7,0,0,1,.76,3.76,7.45,7.45,0,0,1-.89,4.15,3.35,3.35,0,0,1-2.28,1.52A17.18,17.18,0,0,1,168.55,64.09Z"/><path class="cls-1" d="M201.67,64.75a20.25,20.25,0,0,1-7.48-1.48,22.44,22.44,0,0,1-6.75-4.21,19.58,19.58,0,0,1-6.55-15,20.07,20.07,0,0,1,1.6-8,21,21,0,0,1,4.48-6.6A21.63,21.63,0,0,1,193.58,25a19.55,19.55,0,0,1,8-1.64A20.17,20.17,0,0,1,212,26.08a20.92,20.92,0,0,1,7.47,7.48A20.13,20.13,0,0,1,222.25,44a20.16,20.16,0,0,1-1.81,8.68,20.49,20.49,0,0,1-4.8,6.52A21.3,21.3,0,0,1,209,63.36,20.26,20.26,0,0,1,201.67,64.75Zm-.15-12.08a9,9,0,0,0,3.92-1,8.71,8.71,0,0,0,3.36-2.87A8.3,8.3,0,0,0,210.17,44a8.79,8.79,0,0,0-1.12-4.48,8,8,0,0,0-3.08-3,9.21,9.21,0,0,0-4.52-1.08,8.16,8.16,0,0,0-4.28,1.12,8.63,8.63,0,0,0-3,3.08A8.45,8.45,0,0,0,193,44a8.4,8.4,0,0,0,1.31,4.84,8,8,0,0,0,3.32,2.88A9.38,9.38,0,0,0,201.52,52.67Z"/><path class="cls-1" d="M266.79,64.07a16.08,16.08,0,0,1-6.92-1.56A18.58,18.58,0,0,1,254,58.14a21.08,21.08,0,0,1-4-6.44A20.25,20.25,0,0,1,248.48,44,19.42,19.42,0,0,1,250,36.5a20.92,20.92,0,0,1,4.08-6.32,20.14,20.14,0,0,1,5.89-4.35,15.43,15.43,0,0,1,6.88-1.6,14.14,14.14,0,0,1,6.76,1.56,14.63,14.63,0,0,1,4.91,4.29,19.36,19.36,0,0,1,3,6.32,30.47,30.47,0,0,1,1.07,7.52,26.27,26.27,0,0,1-.92,7.68,20.39,20.39,0,0,1-3,6.4,15.12,15.12,0,0,1-4.93,4.43A13.81,13.81,0,0,1,266.79,64.07Zm1.61-11.84a7.15,7.15,0,0,0,3.88-1.08,8.4,8.4,0,0,0,2.8-2.91,8.49,8.49,0,0,0,.05-8.2,7.94,7.94,0,0,0-10.76-2.85,7.28,7.28,0,0,0-2.8,2.84,8.41,8.41,0,0,0-1,4.12,8.2,8.2,0,0,0,1,4.08,7.89,7.89,0,0,0,6.8,4Zm14,11.93a7.68,7.68,0,0,1-4.08-.88,4.17,4.17,0,0,1-1.76-2.72l0-48.48a19.57,19.57,0,0,1,.21-2.92,3.28,3.28,0,0,1,1.4-2.28A7.26,7.26,0,0,1,282.35,6a7.82,7.82,0,0,1,4.2.84A3.48,3.48,0,0,1,288.07,9a15.29,15.29,0,0,1,.27,3l0,46.08A14.53,14.53,0,0,1,288,61a3.52,3.52,0,0,1-1.52,2.28A7.3,7.3,0,0,1,282.39,64.16Z"/><path class="cls-1" d="M316.31,64.9a23.06,23.06,0,0,1-9.64-1.85,18.56,18.56,0,0,1-6.59-4.84,20,20,0,0,1-3.8-6.68A22.84,22.84,0,0,1,295,44.17a20.67,20.67,0,0,1,2.73-10.64,19.67,19.67,0,0,1,7.52-7.32,22.4,22.4,0,0,1,11-2.67,20,20,0,0,1,8,1.49A16.48,16.48,0,0,1,330,28.87,16.16,16.16,0,0,1,333.25,34a14.08,14.08,0,0,1,1.08,5.2c0,2.93-.71,5.11-2.13,6.52a7.32,7.32,0,0,1-5.4,2.12l-19,0a5.74,5.74,0,0,0,1.48,3.53,8.94,8.94,0,0,0,3.32,2.24,11.34,11.34,0,0,0,4.24.8,23.7,23.7,0,0,0,3.36-.2,13.06,13.06,0,0,0,2.48-.56c.69-.24,1.33-.48,1.92-.71s1.11-.44,1.56-.6a6,6,0,0,1,1.32-.32,3.19,3.19,0,0,1,2.2.68,7,7,0,0,1,1.8,2.28,6.14,6.14,0,0,1,.76,1.68,6.74,6.74,0,0,1,.2,1.6,4.36,4.36,0,0,1-2,3.44,14.88,14.88,0,0,1-5.52,2.4A36.7,36.7,0,0,1,316.31,64.9Zm-8.54-23.69h12.64a3.16,3.16,0,0,0,1.88-.44,2,2,0,0,0,.6-1.72,3.91,3.91,0,0,0-.88-2.52,5.83,5.83,0,0,0-2.36-1.68,9,9,0,0,0-3.4-.6,9.72,9.72,0,0,0-4.4,1,7.63,7.63,0,0,0-3,2.56A6,6,0,0,0,307.77,41.21Z"/><path class="cls-1" d="M368.39,64.21a7.5,7.5,0,0,1-4.2-.88A3.75,3.75,0,0,1,362.63,61a13.84,13.84,0,0,1-.32-3l0-43.68a13.26,13.26,0,0,1,.32-2.92,3.77,3.77,0,0,1,1.6-2.28,7.72,7.72,0,0,1,4.24-.88h16.4a20,20,0,0,1,6.76,1.21A19.64,19.64,0,0,1,398,13.23a19.23,19.23,0,0,1,4.72,6.2,19.49,19.49,0,0,1,1.79,8.64,19.23,19.23,0,0,1-1.8,8.56A18.41,18.41,0,0,1,398,42.75a21,21,0,0,1-6.36,3.68,20.09,20.09,0,0,1-6.8,1.23H374.56V58.14a12.75,12.75,0,0,1-.32,2.92,3.68,3.68,0,0,1-1.6,2.27A7.7,7.7,0,0,1,368.39,64.21Zm6.18-28.71h10.32a8.51,8.51,0,0,0,3.48-.76,6.9,6.9,0,0,0,2.88-2.43A7.47,7.47,0,0,0,392.41,28a7.75,7.75,0,0,0-1-3.92,6.8,6.8,0,0,0-2.67-2.65,8,8,0,0,0-4-1H374.58Z"/><path class="cls-1" d="M443.91,64.18a7.29,7.29,0,0,1-4.36-1.05,3.09,3.09,0,0,1-1.4-2.56l.8-1.36a8.66,8.66,0,0,1-1.84,2,13.41,13.41,0,0,1-3.52,2.08,13.78,13.78,0,0,1-5.36.92,15.89,15.89,0,0,1-7-1.61,19,19,0,0,1-5.88-4.44,22,22,0,0,1-4-6.44,19.75,19.75,0,0,1-1.48-7.6,19.21,19.21,0,0,1,1.49-7.48,20.54,20.54,0,0,1,4.08-6.32,20.18,20.18,0,0,1,5.88-4.36,15.77,15.77,0,0,1,7-1.59,13.42,13.42,0,0,1,5,.84,13.92,13.92,0,0,1,3.48,2,10.91,10.91,0,0,1,2.12,2.16l-.64-1.12a3.2,3.2,0,0,1,1.32-2.92,7.84,7.84,0,0,1,4.44-1,7.28,7.28,0,0,1,4.12.88,3.61,3.61,0,0,1,1.52,2.32,15.62,15.62,0,0,1,.28,3l0,27.6a15.24,15.24,0,0,1-.28,3,3.46,3.46,0,0,1-1.52,2.28A7.82,7.82,0,0,1,443.91,64.18ZM430,52.25a7,7,0,0,0,3.8-1.08,7.81,7.81,0,0,0,2.72-2.92,8.33,8.33,0,0,0,1-4.08,8.14,8.14,0,0,0-1-4.12,8,8,0,0,0-2.79-2.88,7.24,7.24,0,0,0-3.84-1.08,7.6,7.6,0,0,0-4.12,1.12,8.42,8.42,0,0,0-2.89,2.95,8.09,8.09,0,0,0-1.08,4.16,7.55,7.55,0,0,0,1.08,4,8,8,0,0,0,3,2.89A8.26,8.26,0,0,0,430,52.25Z"/><path class="cls-1" d="M463.91,64.27a7.77,7.77,0,0,1-4.2-.84,3.46,3.46,0,0,1-1.52-2.28,15.24,15.24,0,0,1-.28-3l0-27.92a13,13,0,0,1,.32-3,3.55,3.55,0,0,1,1.56-2.2,7.82,7.82,0,0,1,4.2-.84,8,8,0,0,1,4,.76,3.35,3.35,0,0,1,1.56,1.76,5.92,5.92,0,0,1,.32,1.72L469,29a9.14,9.14,0,0,1,.84-1.16,11.27,11.27,0,0,1,1.88-1.76,11,11,0,0,1,2.92-1.55,11.27,11.27,0,0,1,4-.64,17.84,17.84,0,0,1,2,.12,12,12,0,0,1,2.24.48,9.09,9.09,0,0,1,2.12,1,5.27,5.27,0,0,1,1.56,1.48,3.76,3.76,0,0,1,.6,2.16,9.82,9.82,0,0,1-1.52,5.56,4.51,4.51,0,0,1-3.85,2.28,5.43,5.43,0,0,1-1.92-.24,5.94,5.94,0,0,1-.92-.48,4.11,4.11,0,0,0-.84-.44,5,5,0,0,0-1.75-.2,7.87,7.87,0,0,0-2.29.32,6.56,6.56,0,0,0-2,1,5,5,0,0,0-1.44,1.68,4.79,4.79,0,0,0-.52,2.2v17.6a14.54,14.54,0,0,1-.28,2.92,3.27,3.27,0,0,1-1.56,2.2A8.43,8.43,0,0,1,463.91,64.27Z"/><path class="cls-1" d="M495.85,24.93h8.8l11-.31a14.07,14.07,0,0,1,2.88.28,3.56,3.56,0,0,1,2.24,1.56,7.72,7.72,0,0,1,.88,4.24,7.32,7.32,0,0,1-.85,4,3.68,3.68,0,0,1-2.2,1.64,11.49,11.49,0,0,1-3,.36l-10.48-.25h-9.68a3.85,3.85,0,0,1-3.23-1.4,8,8,0,0,1-.92-4.44,6.76,6.76,0,0,1,1.12-4.28A4,4,0,0,1,495.85,24.93ZM513.91,64.3a24.27,24.27,0,0,1-7-.89,11.63,11.63,0,0,1-4.84-2.72A11.08,11.08,0,0,1,499.23,56a21.86,21.86,0,0,1-.91-6.76l0-32.48a13.27,13.27,0,0,1,.28-2.88,3.34,3.34,0,0,1,1.56-2.12,7.83,7.83,0,0,1,4.16-.84,7.49,7.49,0,0,1,4.16.89,3.54,3.54,0,0,1,1.56,2.24,15.11,15.11,0,0,1,.28,3l0,31.76a9.66,9.66,0,0,0,.19,2.12,2.71,2.71,0,0,0,.6,1.24,2.24,2.24,0,0,0,1.12.56,8.06,8.06,0,0,0,1.76.16,13.8,13.8,0,0,1,3.12.32,3.44,3.44,0,0,1,2.12,1.44,6.93,6.93,0,0,1,.76,3.76,7.5,7.5,0,0,1-.88,4.16,3.39,3.39,0,0,1-2.28,1.52A17.35,17.35,0,0,1,513.91,64.3Z"/><path class="cls-1" d="M534.25,18.55a7.92,7.92,0,0,1-4.32-.88,3.54,3.54,0,0,1-1.55-2.32,15.62,15.62,0,0,1-.28-3,14,14,0,0,1,.32-3.08A3.57,3.57,0,0,1,530,7a8.22,8.22,0,0,1,4.32-.84,7.79,7.79,0,0,1,4.24.88,3.6,3.6,0,0,1,1.56,2.32,15.69,15.69,0,0,1,.28,3,16.44,16.44,0,0,1-.28,3,3.43,3.43,0,0,1-1.57,2.28A8.22,8.22,0,0,1,534.25,18.55Zm0,45.76a7.77,7.77,0,0,1-4.2-.84,3.42,3.42,0,0,1-1.52-2.24,14.68,14.68,0,0,1-.28-2.92l0-27.92a14.38,14.38,0,0,1,.28-3,3.41,3.41,0,0,1,1.56-2.2,8,8,0,0,1,4.24-.84,7.39,7.39,0,0,1,4.12.88A3.6,3.6,0,0,1,540,27.51a15.65,15.65,0,0,1,.28,3l0,27.84a14.54,14.54,0,0,1-.28,2.92,3.31,3.31,0,0,1-1.52,2.2A8.08,8.08,0,0,1,534.23,64.31Z"/><path class="cls-1" d="M565.91,64.25A16.08,16.08,0,0,1,559,62.69a18.66,18.66,0,0,1-5.88-4.37,21.27,21.27,0,0,1-4-6.44,20.43,20.43,0,0,1-1.47-7.72,19.23,19.23,0,0,1,1.48-7.48,20.76,20.76,0,0,1,4.09-6.32A20,20,0,0,1,559.05,26a15.47,15.47,0,0,1,6.88-1.6A14.14,14.14,0,0,1,572.69,26a14.75,14.75,0,0,1,4.92,4.29,19.14,19.14,0,0,1,3,6.32,30,30,0,0,1,1.08,7.52,26.61,26.61,0,0,1-.93,7.68,20.39,20.39,0,0,1-3,6.4,15.09,15.09,0,0,1-4.92,4.43A13.86,13.86,0,0,1,565.91,64.25Zm1.6-11.84a7.13,7.13,0,0,0,3.88-1.08,8.52,8.52,0,0,0,2.81-2.91,7.93,7.93,0,0,0,1.08-4.08,8.11,8.11,0,0,0-1-4.12,7.94,7.94,0,0,0-10.76-2.85,7.35,7.35,0,0,0-2.8,2.84,8.3,8.3,0,0,0-1,4.12,8.1,8.1,0,0,0,1,4.08,7.81,7.81,0,0,0,2.87,2.92A7.65,7.65,0,0,0,567.51,52.41Zm14,11.93a7.63,7.63,0,0,1-4.08-.88,4.1,4.1,0,0,1-1.76-2.72l0-48.48a19.6,19.6,0,0,1,.2-2.92,3.28,3.28,0,0,1,1.4-2.28,7.28,7.28,0,0,1,4.16-.88,7.82,7.82,0,0,1,4.2.84,3.44,3.44,0,0,1,1.52,2.2,15.26,15.26,0,0,1,.28,3l0,46.08a15.31,15.31,0,0,1-.28,2.92,3.59,3.59,0,0,1-1.52,2.28A7.3,7.3,0,0,1,581.51,64.34Z"/><path class="cls-1" d="M628.22,64.29a7.33,7.33,0,0,1-4.35-1,3.1,3.1,0,0,1-1.4-2.57l.8-1.36a8.9,8.9,0,0,1-1.84,2,13.41,13.41,0,0,1-3.52,2.08,13.83,13.83,0,0,1-5.37.92,15.85,15.85,0,0,1-7-1.61,18.58,18.58,0,0,1-5.88-4.44,22,22,0,0,1-4-6.44,19.93,19.93,0,0,1-1.47-7.6,19.2,19.2,0,0,1,1.48-7.48,20.76,20.76,0,0,1,4.09-6.32A20.18,20.18,0,0,1,605.61,26a15.74,15.74,0,0,1,7-1.59,13.49,13.49,0,0,1,5,.84,14.29,14.29,0,0,1,3.48,2,10.91,10.91,0,0,1,2.12,2.16l-.64-1.12a3.13,3.13,0,0,1,1.32-2.91,7.71,7.71,0,0,1,4.44-1,7.3,7.3,0,0,1,4.12.88A3.65,3.65,0,0,1,634,27.57a16.44,16.44,0,0,1,.28,3l0,27.6a16.06,16.06,0,0,1-.28,3,3.49,3.49,0,0,1-1.52,2.28A7.84,7.84,0,0,1,628.22,64.29ZM614.31,52.36a7,7,0,0,0,3.8-1.08,7.65,7.65,0,0,0,2.72-2.92,8.34,8.34,0,0,0,1-4.08,8.14,8.14,0,0,0-1-4.12,8.05,8.05,0,0,0-2.8-2.88,7.19,7.19,0,0,0-3.84-1.08A7.6,7.6,0,0,0,610,37.32a8.47,8.47,0,0,0-2.88,3,8.09,8.09,0,0,0-1.08,4.16,7.64,7.64,0,0,0,1.07,4,8,8,0,0,0,3,2.89A8.29,8.29,0,0,0,614.31,52.36Z"/></g></g></svg>