<svg xmlns="http://www.w3.org/2000/svg" viewBox="0 0 597.05 70.74"><defs><style>.cls-1{fill:#fff;}.cls-2{fill:none;stroke:#145b10;stroke-linejoin:round;stroke-width:12px;}</style></defs><title>tb</title><g id="Layer_2" data-name="Layer 2"><g id="pizarra"><path class="cls-1" d="M12,64.05a7.59,7.59,0,0,1-4.16-.88,3.52,3.52,0,0,1-1.56-2.28,15.13,15.13,0,0,1-.28-3L6,14.21a13.93,13.93,0,0,1,.28-2.88A3.54,3.54,0,0,1,7.87,9.09a7.88,7.88,0,0,1,4.32-.88,14.46,14.46,0,0,1,3,.24,3.42,3.42,0,0,1,1.52.68c.32.3.67.63,1,1l18,24.33h-1.2l18.1-24.31A5.76,5.76,0,0,1,54,9a4.76,4.76,0,0,1,1.64-.6,14.81,14.81,0,0,1,2.84-.2,7.5,7.5,0,0,1,4.16.88,3.77,3.77,0,0,1,1.6,2.28,13.6,13.6,0,0,1,.32,3l0,43.68A12.77,12.77,0,0,1,64.16,61a3.74,3.74,0,0,1-1.6,2.24,7.72,7.72,0,0,1-4.24.88,7.49,7.49,0,0,1-4.16-.89,3.67,3.67,0,0,1-1.6-2.32,13.16,13.16,0,0,1-.32-3l0-28.48L40.33,46.31a11,11,0,0,0-.88,1,5,5,0,0,1-1.56,1.19,6,6,0,0,1-2.76.52,6,6,0,0,1-2.72-.52,4.41,4.41,0,0,1-1.56-1.16l-.92-1.12L18.1,29.41l0,28.64a12.64,12.64,0,0,1-.32,2.88,3.77,3.77,0,0,1-1.56,2.24A7.5,7.5,0,0,1,12,64.05Z"/><path class="cls-1" d="M91.84,64.74a20,20,0,0,1-7.48-1.49,22.65,22.65,0,0,1-6.76-4.2,20.27,20.27,0,0,1-4.84-6.52A19.51,19.51,0,0,1,71,44.08a19.75,19.75,0,0,1,1.64-8A21.82,21.82,0,0,1,83.74,24.93a19.38,19.38,0,0,1,8-1.63,20.17,20.17,0,0,1,10.44,2.76,21,21,0,0,1,7.47,7.49A20.13,20.13,0,0,1,112.41,44a20,20,0,0,1-1.81,8.68,20.71,20.71,0,0,1-4.8,6.52,21.15,21.15,0,0,1-6.64,4.11A20.35,20.35,0,0,1,91.84,64.74Zm-.16-12.08a9,9,0,0,0,3.92-1A8.69,8.69,0,0,0,99,48.82a8.28,8.28,0,0,0,1.36-4.88,8.71,8.71,0,0,0-1.12-4.48,7.93,7.93,0,0,0-3.08-3,9.19,9.19,0,0,0-4.52-1.08,8.27,8.27,0,0,0-4.28,1.11,8.71,8.71,0,0,0-3,3.08A8.6,8.6,0,0,0,83.13,44a8.45,8.45,0,0,0,1.32,4.84,7.88,7.88,0,0,0,3.31,2.88A9.28,9.28,0,0,0,91.68,52.66Z"/><path class="cls-1" d="M121.38,24.75h8.8l11-.31a14.07,14.07,0,0,1,2.88.28,3.56,3.56,0,0,1,2.24,1.56,7.79,7.79,0,0,1,.88,4.24,7.53,7.53,0,0,1-.85,4,3.72,3.72,0,0,1-2.2,1.64,11.54,11.54,0,0,1-3,.36l-10.48-.25-9.68.07a4,4,0,0,1-3.24-1.48,8,8,0,0,1-.91-4.44A6.78,6.78,0,0,1,118,26.15,4.06,4.06,0,0,1,121.38,24.75Zm18.06,39.38a24.71,24.71,0,0,1-7-.89,11.37,11.37,0,0,1-4.84-2.72,11.21,11.21,0,0,1-2.8-4.68,22.19,22.19,0,0,1-.92-6.76l0-32.4a14.33,14.33,0,0,1,.29-3,3.31,3.31,0,0,1,1.56-2.12,7.83,7.83,0,0,1,4.16-.84,7.61,7.61,0,0,1,4.16.88,3.59,3.59,0,0,1,1.56,2.28,14.69,14.69,0,0,1,.27,2.92V48.6a9,9,0,0,0,.19,2.12,2.66,2.66,0,0,0,.6,1.24,2.25,2.25,0,0,0,1.12.57,8.74,8.74,0,0,0,1.76.16,13.25,13.25,0,0,1,3.12.32,3.39,3.39,0,0,1,2.12,1.44,6.93,6.93,0,0,1,.76,3.76,7.59,7.59,0,0,1-.88,4.16,3.42,3.42,0,0,1-2.28,1.52A17.35,17.35,0,0,1,139.44,64.13Z"/><path class="cls-1" d="M159.36,64.14a7.67,7.67,0,0,1-4.2-.85A3.42,3.42,0,0,1,153.64,61a15.16,15.16,0,0,1-.28-3l0-27.92a14.52,14.52,0,0,1,.28-3,3.39,3.39,0,0,1,1.56-2.2,8.15,8.15,0,0,1,4.24-.83,8,8,0,0,1,4,.76,3.4,3.4,0,0,1,1.56,1.76,5.92,5.92,0,0,1,.32,1.72l-1,.48a7.41,7.41,0,0,1,.84-1.16,11.28,11.28,0,0,1,4.8-3.32,11.51,11.51,0,0,1,4-.63,17.84,17.84,0,0,1,2,.12,12,12,0,0,1,2.24.48,9.09,9.09,0,0,1,2.12,1,5.27,5.27,0,0,1,1.56,1.48,3.76,3.76,0,0,1,.6,2.16A9.74,9.74,0,0,1,181,34.51a4.49,4.49,0,0,1-3.84,2.28,6.47,6.47,0,0,1-1.92-.2,3.44,3.44,0,0,1-.92-.48,3.41,3.41,0,0,0-.84-.48,5.05,5.05,0,0,0-1.76-.2,7.76,7.76,0,0,0-2.28.31,6.59,6.59,0,0,0-2,1A5,5,0,0,0,166,38.42a4.85,4.85,0,0,0-.52,2.28V58.22a15.31,15.31,0,0,1-.28,2.92,3.29,3.29,0,0,1-1.56,2.2A8.43,8.43,0,0,1,159.36,64.14Z"/><path class="cls-1" d="M195.22,18.4a8,8,0,0,1-4.32-.88,3.6,3.6,0,0,1-1.56-2.32,16.53,16.53,0,0,1-.27-3,15.46,15.46,0,0,1,.28-3.08A3.37,3.37,0,0,1,191,6.84,8.46,8.46,0,0,1,195.31,6a7.7,7.7,0,0,1,4.24.88,3.6,3.6,0,0,1,1.56,2.32,16.91,16.91,0,0,1,.28,3.12,16,16,0,0,1-.29,3,3.38,3.38,0,0,1-1.56,2.28A8.22,8.22,0,0,1,195.22,18.4Zm0,45.76a8,8,0,0,1-4.24-.84,3.25,3.25,0,0,1-1.52-2.24,17.35,17.35,0,0,1-.24-2.92l0-27.92a14.54,14.54,0,0,1,.28-2.92,3.35,3.35,0,0,1,1.56-2.24,8,8,0,0,1,4.24-.84,7.39,7.39,0,0,1,4.12.88,3.64,3.64,0,0,1,1.52,2.28,15.15,15.15,0,0,1,.27,3V58.24a15.31,15.31,0,0,1-.28,2.92,3.31,3.31,0,0,1-1.52,2.2A8.18,8.18,0,0,1,195.2,64.16Z"/><path class="cls-1" d="M229.51,64.5a21,21,0,0,1-7.16-1.32,22.57,22.57,0,0,1-6.71-3.89,18.69,18.69,0,0,1-4.92-6.4,20.1,20.1,0,0,1-1.83-8.8,19.56,19.56,0,0,1,1.84-8.72,19.17,19.17,0,0,1,4.89-6.32,21.68,21.68,0,0,1,6.68-3.87,20.65,20.65,0,0,1,7.08-1.32,19.39,19.39,0,0,1,5.32.68,17.58,17.58,0,0,1,4,1.65,12.27,12.27,0,0,1,2.36,1.68A24.26,24.26,0,0,1,243.45,30a3.38,3.38,0,0,1,1,2.72,4.74,4.74,0,0,1-.56,1.8,14,14,0,0,1-1.2,1.88c-1.65,2.24-3.26,3.25-4.8,3a7.32,7.32,0,0,1-2.2-.8c-.67-.37-1.31-.74-1.92-1.12a16.36,16.36,0,0,0-2-1,6.15,6.15,0,0,0-2.4-.44,8.26,8.26,0,0,0-7.09,12.32,8.22,8.22,0,0,0,2.88,2.92,7.71,7.71,0,0,0,4,1.08,8,8,0,0,0,2.32-.32,7.39,7.39,0,0,0,1.76-.76l1.12-.68c.64-.42,1.26-.81,1.84-1.16A3.53,3.53,0,0,1,238,48.9a4.07,4.07,0,0,1,2.36.85,13.93,13.93,0,0,1,2.6,2.68,6.53,6.53,0,0,1,1.56,3.12,3.93,3.93,0,0,1-.68,2.76,8.65,8.65,0,0,1-2.72,2.44,13.83,13.83,0,0,1-2.29,1.44,22.48,22.48,0,0,1-4,1.59A18.16,18.16,0,0,1,229.51,64.5Z"/><path class="cls-1" d="M258.18,18.44a7.86,7.86,0,0,1-4.32-.89,3.57,3.57,0,0,1-1.56-2.32,16.44,16.44,0,0,1-.28-3,15.5,15.5,0,0,1,.29-3.08,3.32,3.32,0,0,1,1.6-2.23A8.36,8.36,0,0,1,258.27,6a7.72,7.72,0,0,1,4.24.88,3.6,3.6,0,0,1,1.56,2.32,16.94,16.94,0,0,1,.27,3.12,15.16,15.16,0,0,1-.28,3,3.45,3.45,0,0,1-1.56,2.28A8.22,8.22,0,0,1,258.18,18.44Zm0,45.76a8,8,0,0,1-4.24-.85,3.26,3.26,0,0,1-1.52-2.24,18.28,18.28,0,0,1-.23-2.92V30.27a14.68,14.68,0,0,1,.29-2.92A3.33,3.33,0,0,1,254,25.12a7.91,7.91,0,0,1,4.24-.84,7.3,7.3,0,0,1,4.12.88,3.59,3.59,0,0,1,1.51,2.28,15,15,0,0,1,.28,3V58.28a15.38,15.38,0,0,1-.28,2.92,3.32,3.32,0,0,1-1.53,2.2A8.13,8.13,0,0,1,258.15,64.2Z"/><path class="cls-1" d="M289.83,64.14a16.18,16.18,0,0,1-7-1.57A18.73,18.73,0,0,1,277,58.21a21.32,21.32,0,0,1-4-6.44A20.3,20.3,0,0,1,271.52,44,19.38,19.38,0,0,1,273,36.57a20.8,20.8,0,0,1,4.08-6.32A20.35,20.35,0,0,1,283,25.89a15.42,15.42,0,0,1,6.88-1.59,13.72,13.72,0,0,1,11.63,5.84,20.31,20.31,0,0,1,3,6.32A29.21,29.21,0,0,1,305.6,44a29.7,29.7,0,0,1-1,7.68,19.63,19.63,0,0,1-3,6.39,14.88,14.88,0,0,1-5,4.44A14,14,0,0,1,289.83,64.14Zm1.61-11.84a7.15,7.15,0,0,0,3.88-1.08,8.35,8.35,0,0,0,2.8-2.92,8.34,8.34,0,0,0,.05-8.12,8.13,8.13,0,0,0-2.8-2.88,7.49,7.49,0,0,0-4-1.08,7.8,7.8,0,0,0-4,1,7.31,7.31,0,0,0-2.8,2.88,8.5,8.5,0,0,0-1,4.08,8.15,8.15,0,0,0,1,4.08,7.69,7.69,0,0,0,2.88,2.92A7.53,7.53,0,0,0,291.44,52.3Zm13.91,11.93a7.44,7.44,0,0,1-4-.89,4.15,4.15,0,0,1-1.72-2.72l0-48.48a19.77,19.77,0,0,1,.21-2.92,3.33,3.33,0,0,1,1.4-2.28,7.1,7.1,0,0,1,4.08-.87,7.8,7.8,0,0,1,4.24.84,3.65,3.65,0,0,1,1.52,2.2,13.12,13.12,0,0,1,.31,3l0,46.08a14.6,14.6,0,0,1-.29,2.92,3.57,3.57,0,0,1-1.52,2.28A7.56,7.56,0,0,1,305.35,64.23Z"/><path class="cls-1" d="M352.07,64.17a7.57,7.57,0,0,1-4.4-1,2.88,2.88,0,0,1-1.36-2.56l.8-1.36a8.88,8.88,0,0,1-1.84,2,13.32,13.32,0,0,1-8.88,3,15.88,15.88,0,0,1-7-1.6,19.11,19.11,0,0,1-5.88-4.44,23,23,0,0,1-4.07-6.45,19.39,19.39,0,0,1-1.52-7.6,18.78,18.78,0,0,1,1.53-7.48,21.37,21.37,0,0,1,4.12-6.31,20.45,20.45,0,0,1,5.88-4.36,15.79,15.79,0,0,1,7-1.6,13.17,13.17,0,0,1,8.51,2.81,10.63,10.63,0,0,1,2.12,2.16l-.72-1.12a3.36,3.36,0,0,1,1.41-2.92,7.71,7.71,0,0,1,4.44-1,7.23,7.23,0,0,1,4.11.89,3.55,3.55,0,0,1,1.52,2.32,15.62,15.62,0,0,1,.28,3V58.1a16.06,16.06,0,0,1-.29,3,3.42,3.42,0,0,1-1.52,2.28A7.84,7.84,0,0,1,352.07,64.17Zm-14-11.92a7,7,0,0,0,3.84-1.08,8.51,8.51,0,0,0,2.73-11.12,7.78,7.78,0,0,0-2.8-2.84,8,8,0,0,0-8,0,8.14,8.14,0,0,0-4,7.08,7.55,7.55,0,0,0,1.08,4,8.1,8.1,0,0,0,3,2.88A8.21,8.21,0,0,0,338.08,52.25Z"/><path class="cls-1" d="M383.19,64.19a16,16,0,0,1-7-1.56,18.8,18.8,0,0,1-5.84-4.37,21.25,21.25,0,0,1-4-6.44,20.25,20.25,0,0,1-1.48-7.72,19.28,19.28,0,0,1,1.49-7.48,20.92,20.92,0,0,1,4.08-6.32A20.1,20.1,0,0,1,376.33,26a15.47,15.47,0,0,1,6.88-1.6,13.79,13.79,0,0,1,11.64,5.85,20.2,20.2,0,0,1,3,6.32A29.14,29.14,0,0,1,399,44a29.7,29.7,0,0,1-1,7.68,19.49,19.49,0,0,1-3,6.4,15,15,0,0,1-5,4.44A14,14,0,0,1,383.19,64.19Zm1.61-11.84a7.23,7.23,0,0,0,3.88-1.07,8.43,8.43,0,0,0,2.8-2.92,8.34,8.34,0,0,0,0-8.12,8.13,8.13,0,0,0-2.8-2.88,7.44,7.44,0,0,0-4-1.09,7.81,7.81,0,0,0-4,1A7.28,7.28,0,0,0,378,40.19a8.5,8.5,0,0,0-1,4.08,8.2,8.2,0,0,0,1,4.08,7.69,7.69,0,0,0,2.88,2.92A7.59,7.59,0,0,0,384.8,52.35Zm13.91,11.93a7.36,7.36,0,0,1-4-.88A4.18,4.18,0,0,1,393,60.68l0-48.48a21.14,21.14,0,0,1,.2-2.92A3.36,3.36,0,0,1,394.58,7a7.15,7.15,0,0,1,4.09-.88,7.8,7.8,0,0,1,4.24.84,3.62,3.62,0,0,1,1.51,2.21,12.49,12.49,0,0,1,.32,3l0,46.08a14.68,14.68,0,0,1-.28,2.92,3.52,3.52,0,0,1-1.52,2.27A7.5,7.5,0,0,1,398.71,64.28Z"/><path class="cls-1" d="M440.47,64.31a7.81,7.81,0,0,1-4.16-.85,3.45,3.45,0,0,1-1.56-2.28,16,16,0,0,1-.28-3l0-43.76c0-2.29.46-3.88,1.36-4.76s2.54-1.32,4.88-1.31H471a15.08,15.08,0,0,1,3,.29,3.38,3.38,0,0,1,2.2,1.56,8.22,8.22,0,0,1,.84,4.32,7.59,7.59,0,0,1-.88,4.16,3.59,3.59,0,0,1-2.28,1.56,15.15,15.15,0,0,1-3,.27H446.66V30.87h16.4a15.05,15.05,0,0,1,2.84.24,2.93,2.93,0,0,1,2,1.36,7.5,7.5,0,0,1,.72,3.84,6.52,6.52,0,0,1-.73,3.56,3,3,0,0,1-2,1.32,15.65,15.65,0,0,1-2.88.24H446.64V58.31a12.69,12.69,0,0,1-.32,2.92,3.58,3.58,0,0,1-1.56,2.24A8,8,0,0,1,440.47,64.31Z"/><path class="cls-1" d="M491.22,18.58a7.86,7.86,0,0,1-4.32-.89,3.5,3.5,0,0,1-1.56-2.32,15.62,15.62,0,0,1-.28-3,15.53,15.53,0,0,1,.28-3.08A3.4,3.4,0,0,1,486.94,7a8.61,8.61,0,0,1,4.36-.83,7.68,7.68,0,0,1,4.24.88,3.52,3.52,0,0,1,1.56,2.32,16.09,16.09,0,0,1,.28,3.12,15.24,15.24,0,0,1-.28,3,3.45,3.45,0,0,1-1.56,2.28A8.27,8.27,0,0,1,491.22,18.58Zm0,45.76a8,8,0,0,1-4.24-.85,3.26,3.26,0,0,1-1.52-2.24,17.18,17.18,0,0,1-.24-2.92l0-27.92a14.68,14.68,0,0,1,.28-2.92,3.44,3.44,0,0,1,1.56-2.24,8.17,8.17,0,0,1,4.24-.83,7.28,7.28,0,0,1,4.12.88,3.6,3.6,0,0,1,1.52,2.28,15,15,0,0,1,.28,3l0,27.84a14.61,14.61,0,0,1-.28,2.92,3.3,3.3,0,0,1-1.52,2.2A8.18,8.18,0,0,1,491.19,64.34Z"/><path class="cls-1" d="M511.75,64.27a7.8,7.8,0,0,1-4.2-.84A3.45,3.45,0,0,1,506,61.19a14.68,14.68,0,0,1-.28-2.92l0-28.16a13.41,13.41,0,0,1,.28-2.84,3.26,3.26,0,0,1,1.56-2.12,8.41,8.41,0,0,1,4.24-.8,8,8,0,0,1,3.76.68,3.3,3.3,0,0,1,1.56,1.64,5.14,5.14,0,0,1,.36,1.8,2.82,2.82,0,0,0,.16,1.16l-.48,1.52a4.78,4.78,0,0,1,1.24-2.44,11.84,11.84,0,0,1,2.72-2.24,15,15,0,0,1,3.52-1.55,12.77,12.77,0,0,1,3.72-.56,16,16,0,0,1,6.84,1.4,13.86,13.86,0,0,1,5.08,4,18.71,18.71,0,0,1,3.16,6.2,27.09,27.09,0,0,1,1.07,7.8V58.37a14.61,14.61,0,0,1-.28,2.92,3.3,3.3,0,0,1-1.52,2.2,8.38,8.38,0,0,1-4.28.8,8.12,8.12,0,0,1-4.24-.85,3.41,3.41,0,0,1-1.56-2.24,14.61,14.61,0,0,1-.28-2.92V43.8a9,9,0,0,0-.84-4.08,5.87,5.87,0,0,0-2.39-2.56,7.79,7.79,0,0,0-3.88-.88,8.19,8.19,0,0,0-4,.92,6.42,6.42,0,0,0-2.6,2.59,8.26,8.26,0,0,0-.92,4V58.35a14.54,14.54,0,0,1-.28,2.92,3.28,3.28,0,0,1-1.52,2.2A8.18,8.18,0,0,1,511.75,64.27Z"/><path class="cls-1" d="M585,64.31a7.55,7.55,0,0,1-4.4-1,2.88,2.88,0,0,1-1.36-2.56l.8-1.36a8.88,8.88,0,0,1-1.84,2,13.64,13.64,0,0,1-3.56,2.08,13.86,13.86,0,0,1-5.32.91,15.85,15.85,0,0,1-7-1.6,19.11,19.11,0,0,1-5.88-4.44,23,23,0,0,1-4.08-6.45,19.38,19.38,0,0,1-1.51-7.6,19,19,0,0,1,1.52-7.48,21.27,21.27,0,0,1,4.13-6.31,20.18,20.18,0,0,1,5.88-4.36,15.65,15.65,0,0,1,7-1.6,13.48,13.48,0,0,1,5,.85,13.62,13.62,0,0,1,3.48,2A10.91,10.91,0,0,1,580,29.43l-.72-1.12a3.37,3.37,0,0,1,1.4-2.92,7.71,7.71,0,0,1,4.44-1,7.29,7.29,0,0,1,4.12.89,3.59,3.59,0,0,1,1.52,2.32,15.62,15.62,0,0,1,.28,3l0,27.6a15.24,15.24,0,0,1-.28,3,3.49,3.49,0,0,1-1.52,2.28A7.84,7.84,0,0,1,585,64.31ZM571,52.38a6.9,6.9,0,0,0,3.84-1.07,8.28,8.28,0,0,0,3.76-7,8.11,8.11,0,0,0-1-4.12,7.86,7.86,0,0,0-10.76-2.81,8.1,8.1,0,0,0-4,7.08,7.55,7.55,0,0,0,1.08,4,8.23,8.23,0,0,0,7.08,4Z"/><path class="cls-2" d="M12,64.05a7.59,7.59,0,0,1-4.16-.88,3.52,3.52,0,0,1-1.56-2.28,15.13,15.13,0,0,1-.28-3L6,14.21a13.93,13.93,0,0,1,.28-2.88A3.54,3.54,0,0,1,7.87,9.09a7.88,7.88,0,0,1,4.32-.88,14.46,14.46,0,0,1,3,.24,3.42,3.42,0,0,1,1.52.68c.32.3.67.63,1,1l18,24.33h-1.2l18.1-24.31A5.76,5.76,0,0,1,54,9a4.76,4.76,0,0,1,1.64-.6,14.81,14.81,0,0,1,2.84-.2,7.5,7.5,0,0,1,4.16.88,3.77,3.77,0,0,1,1.6,2.28,13.6,13.6,0,0,1,.32,3l0,43.68A12.77,12.77,0,0,1,64.16,61a3.74,3.74,0,0,1-1.6,2.24,7.72,7.72,0,0,1-4.24.88,7.49,7.49,0,0,1-4.16-.89,3.67,3.67,0,0,1-1.6-2.32,13.16,13.16,0,0,1-.32-3l0-28.48L40.33,46.31a11,11,0,0,0-.88,1,5,5,0,0,1-1.56,1.19,6,6,0,0,1-2.76.52,6,6,0,0,1-2.72-.52,4.41,4.41,0,0,1-1.56-1.16l-.92-1.12L18.1,29.41l0,28.64a12.64,12.64,0,0,1-.32,2.88,3.77,3.77,0,0,1-1.56,2.24A7.5,7.5,0,0,1,12,64.05Z"/><path class="cls-2" d="M91.84,64.74a20,20,0,0,1-7.48-1.49,22.65,22.65,0,0,1-6.76-4.2,20.27,20.27,0,0,1-4.84-6.52A19.51,19.51,0,0,1,71,44.08a19.75,19.75,0,0,1,1.64-8A21.82,21.82,0,0,1,83.74,24.93a19.38,19.38,0,0,1,8-1.63,20.17,20.17,0,0,1,10.44,2.76,21,21,0,0,1,7.47,7.49A20.13,20.13,0,0,1,112.41,44a20,20,0,0,1-1.81,8.68,20.71,20.71,0,0,1-4.8,6.52,21.15,21.15,0,0,1-6.64,4.11A20.35,20.35,0,0,1,91.84,64.74Zm-.16-12.08a9,9,0,0,0,3.92-1A8.69,8.69,0,0,0,99,48.82a8.28,8.28,0,0,0,1.36-4.88,8.71,8.71,0,0,0-1.12-4.48,7.93,7.93,0,0,0-3.08-3,9.19,9.19,0,0,0-4.52-1.08,8.27,8.27,0,0,0-4.28,1.11,8.71,8.71,0,0,0-3,3.08A8.6,8.6,0,0,0,83.13,44a8.45,8.45,0,0,0,1.32,4.84,7.88,7.88,0,0,0,3.31,2.88A9.28,9.28,0,0,0,91.68,52.66Z"/><path class="cls-2" d="M121.38,24.75h8.8l11-.31a14.07,14.07,0,0,1,2.88.28,3.56,3.56,0,0,1,2.24,1.56,7.79,7.79,0,0,1,.88,4.24,7.53,7.53,0,0,1-.85,4,3.72,3.72,0,0,1-2.2,1.64,11.54,11.54,0,0,1-3,.36l-10.48-.25-9.68.07a4,4,0,0,1-3.24-1.48,8,8,0,0,1-.91-4.44A6.78,6.78,0,0,1,118,26.15,4.06,4.06,0,0,1,121.38,24.75Zm18.06,39.38a24.71,24.71,0,0,1-7-.89,11.37,11.37,0,0,1-4.84-2.72,11.21,11.21,0,0,1-2.8-4.68,22.19,22.19,0,0,1-.92-6.76l0-32.4a14.33,14.33,0,0,1,.29-3,3.31,3.31,0,0,1,1.56-2.12,7.83,7.83,0,0,1,4.16-.84,7.61,7.61,0,0,1,4.16.88,3.59,3.59,0,0,1,1.56,2.28,14.69,14.69,0,0,1,.27,2.92V48.6a9,9,0,0,0,.19,2.12,2.66,2.66,0,0,0,.6,1.24,2.25,2.25,0,0,0,1.12.57,8.74,8.74,0,0,0,1.76.16,13.25,13.25,0,0,1,3.12.32,3.39,3.39,0,0,1,2.12,1.44,6.93,6.93,0,0,1,.76,3.76,7.59,7.59,0,0,1-.88,4.16,3.42,3.42,0,0,1-2.28,1.52A17.35,17.35,0,0,1,139.44,64.13Z"/><path class="cls-2" d="M159.36,64.14a7.67,7.67,0,0,1-4.2-.85A3.42,3.42,0,0,1,153.64,61a15.16,15.16,0,0,1-.28-3l0-27.92a14.52,14.52,0,0,1,.28-3,3.39,3.39,0,0,1,1.56-2.2,8.15,8.15,0,0,1,4.24-.83,8,8,0,0,1,4,.76,3.4,3.4,0,0,1,1.56,1.76,5.92,5.92,0,0,1,.32,1.72l-1,.48a7.41,7.41,0,0,1,.84-1.16,11.28,11.28,0,0,1,4.8-3.32,11.51,11.51,0,0,1,4-.63,17.84,17.84,0,0,1,2,.12,12,12,0,0,1,2.24.48,9.09,9.09,0,0,1,2.12,1,5.27,5.27,0,0,1,1.56,1.48,3.76,3.76,0,0,1,.6,2.16A9.74,9.74,0,0,1,181,34.51a4.49,4.49,0,0,1-3.84,2.28,6.47,6.47,0,0,1-1.92-.2,3.44,3.44,0,0,1-.92-.48,3.41,3.41,0,0,0-.84-.48,5.05,5.05,0,0,0-1.76-.2,7.76,7.76,0,0,0-2.28.31,6.59,6.59,0,0,0-2,1A5,5,0,0,0,166,38.42a4.85,4.85,0,0,0-.52,2.28V58.22a15.31,15.31,0,0,1-.28,2.92,3.29,3.29,0,0,1-1.56,2.2A8.43,8.43,0,0,1,159.36,64.14Z"/><path class="cls-2" d="M195.22,18.4a8,8,0,0,1-4.32-.88,3.6,3.6,0,0,1-1.56-2.32,16.53,16.53,0,0,1-.27-3,15.46,15.46,0,0,1,.28-3.08A3.37,3.37,0,0,1,191,6.84,8.46,8.46,0,0,1,195.31,6a7.7,7.7,0,0,1,4.24.88,3.6,3.6,0,0,1,1.56,2.32,16.91,16.91,0,0,1,.28,3.12,16,16,0,0,1-.29,3,3.38,3.38,0,0,1-1.56,2.28A8.22,8.22,0,0,1,195.22,18.4Zm0,45.76a8,8,0,0,1-4.24-.84,3.25,3.25,0,0,1-1.52-2.24,17.35,17.35,0,0,1-.24-2.92l0-27.92a14.54,14.54,0,0,1,.28-2.92,3.35,3.35,0,0,1,1.56-2.24,8,8,0,0,1,4.24-.84,7.39,7.39,0,0,1,4.12.88,3.64,3.64,0,0,1,1.52,2.28,15.15,15.15,0,0,1,.27,3V58.24a15.31,15.31,0,0,1-.28,2.92,3.31,3.31,0,0,1-1.52,2.2A8.18,8.18,0,0,1,195.2,64.16Z"/><path class="cls-2" d="M229.51,64.5a21,21,0,0,1-7.16-1.32,22.57,22.57,0,0,1-6.71-3.89,18.69,18.69,0,0,1-4.92-6.4,20.1,20.1,0,0,1-1.83-8.8,19.56,19.56,0,0,1,1.84-8.72,19.17,19.17,0,0,1,4.89-6.32,21.68,21.68,0,0,1,6.68-3.87,20.65,20.65,0,0,1,7.08-1.32,19.39,19.39,0,0,1,5.32.68,17.58,17.58,0,0,1,4,1.65,12.27,12.27,0,0,1,2.36,1.68A24.26,24.26,0,0,1,243.45,30a3.38,3.38,0,0,1,1,2.72,4.74,4.74,0,0,1-.56,1.8,14,14,0,0,1-1.2,1.88c-1.65,2.24-3.26,3.25-4.8,3a7.32,7.32,0,0,1-2.2-.8c-.67-.37-1.31-.74-1.92-1.12a16.36,16.36,0,0,0-2-1,6.15,6.15,0,0,0-2.4-.44,8.26,8.26,0,0,0-7.09,12.32,8.22,8.22,0,0,0,2.88,2.92,7.71,7.71,0,0,0,4,1.08,8,8,0,0,0,2.32-.32,7.39,7.39,0,0,0,1.76-.76l1.12-.68c.64-.42,1.26-.81,1.84-1.16A3.53,3.53,0,0,1,238,48.9a4.07,4.07,0,0,1,2.36.85,13.93,13.93,0,0,1,2.6,2.68,6.53,6.53,0,0,1,1.56,3.12,3.93,3.93,0,0,1-.68,2.76,8.65,8.65,0,0,1-2.72,2.44,13.83,13.83,0,0,1-2.29,1.44,22.48,22.48,0,0,1-4,1.59A18.16,18.16,0,0,1,229.51,64.5Z"/><path class="cls-2" d="M258.18,18.44a7.86,7.86,0,0,1-4.32-.89,3.57,3.57,0,0,1-1.56-2.32,16.44,16.44,0,0,1-.28-3,15.5,15.5,0,0,1,.29-3.08,3.32,3.32,0,0,1,1.6-2.23A8.36,8.36,0,0,1,258.27,6a7.72,7.72,0,0,1,4.24.88,3.6,3.6,0,0,1,1.56,2.32,16.94,16.94,0,0,1,.27,3.12,15.16,15.16,0,0,1-.28,3,3.45,3.45,0,0,1-1.56,2.28A8.22,8.22,0,0,1,258.18,18.44Zm0,45.76a8,8,0,0,1-4.24-.85,3.26,3.26,0,0,1-1.52-2.24,18.28,18.28,0,0,1-.23-2.92V30.27a14.68,14.68,0,0,1,.29-2.92A3.33,3.33,0,0,1,254,25.12a7.91,7.91,0,0,1,4.24-.84,7.3,7.3,0,0,1,4.12.88,3.59,3.59,0,0,1,1.51,2.28,15,15,0,0,1,.28,3V58.28a15.38,15.38,0,0,1-.28,2.92,3.32,3.32,0,0,1-1.53,2.2A8.13,8.13,0,0,1,258.15,64.2Z"/><path class="cls-2" d="M289.83,64.14a16.18,16.18,0,0,1-7-1.57A18.73,18.73,0,0,1,277,58.21a21.32,21.32,0,0,1-4-6.44A20.3,20.3,0,0,1,271.52,44,19.38,19.38,0,0,1,273,36.57a20.8,20.8,0,0,1,4.08-6.32A20.35,20.35,0,0,1,283,25.89a15.42,15.42,0,0,1,6.88-1.59,13.72,13.72,0,0,1,11.63,5.84,20.31,20.31,0,0,1,3,6.32A29.21,29.21,0,0,1,305.6,44a29.7,29.7,0,0,1-1,7.68,19.63,19.63,0,0,1-3,6.39,14.88,14.88,0,0,1-5,4.44A14,14,0,0,1,289.83,64.14Zm1.61-11.84a7.15,7.15,0,0,0,3.88-1.08,8.35,8.35,0,0,0,2.8-2.92,8.34,8.34,0,0,0,.05-8.12,8.13,8.13,0,0,0-2.8-2.88,7.49,7.49,0,0,0-4-1.08,7.8,7.8,0,0,0-4,1,7.31,7.31,0,0,0-2.8,2.88,8.5,8.5,0,0,0-1,4.08,8.15,8.15,0,0,0,1,4.08,7.69,7.69,0,0,0,2.88,2.92A7.53,7.53,0,0,0,291.44,52.3Zm13.91,11.93a7.44,7.44,0,0,1-4-.89,4.15,4.15,0,0,1-1.72-2.72l0-48.48a19.77,19.77,0,0,1,.21-2.92,3.33,3.33,0,0,1,1.4-2.28,7.1,7.1,0,0,1,4.08-.87,7.8,7.8,0,0,1,4.24.84,3.65,3.65,0,0,1,1.52,2.2,13.12,13.12,0,0,1,.31,3l0,46.08a14.6,14.6,0,0,1-.29,2.92,3.57,3.57,0,0,1-1.52,2.28A7.56,7.56,0,0,1,305.35,64.23Z"/><path class="cls-2" d="M352.07,64.17a7.57,7.57,0,0,1-4.4-1,2.88,2.88,0,0,1-1.36-2.56l.8-1.36a8.88,8.88,0,0,1-1.84,2,13.32,13.32,0,0,1-8.88,3,15.88,15.88,0,0,1-7-1.6,19.11,19.11,0,0,1-5.88-4.44,23,23,0,0,1-4.07-6.45,19.39,19.39,0,0,1-1.52-7.6,18.78,18.78,0,0,1,1.53-7.48,21.37,21.37,0,0,1,4.12-6.31,20.45,20.45,0,0,1,5.88-4.36,15.79,15.79,0,0,1,7-1.6,13.17,13.17,0,0,1,8.51,2.81,10.63,10.63,0,0,1,2.12,2.16l-.72-1.12a3.36,3.36,0,0,1,1.41-2.92,7.71,7.71,0,0,1,4.44-1,7.23,7.23,0,0,1,4.11.89,3.55,3.55,0,0,1,1.52,2.32,15.62,15.62,0,0,1,.28,3V58.1a16.06,16.06,0,0,1-.29,3,3.42,3.42,0,0,1-1.52,2.28A7.84,7.84,0,0,1,352.07,64.17Zm-14-11.92a7,7,0,0,0,3.84-1.08,8.51,8.51,0,0,0,2.73-11.12,7.78,7.78,0,0,0-2.8-2.84,8,8,0,0,0-8,0,8.14,8.14,0,0,0-4,7.08,7.55,7.55,0,0,0,1.08,4,8.1,8.1,0,0,0,3,2.88A8.21,8.21,0,0,0,338.08,52.25Z"/><path class="cls-2" d="M383.19,64.19a16,16,0,0,1-7-1.56,18.8,18.8,0,0,1-5.84-4.37,21.25,21.25,0,0,1-4-6.44,20.25,20.25,0,0,1-1.48-7.72,19.28,19.28,0,0,1,1.49-7.48,20.92,20.92,0,0,1,4.08-6.32A20.1,20.1,0,0,1,376.33,26a15.47,15.47,0,0,1,6.88-1.6,13.79,13.79,0,0,1,11.64,5.85,20.2,20.2,0,0,1,3,6.32A29.14,29.14,0,0,1,399,44a29.7,29.7,0,0,1-1,7.68,19.49,19.49,0,0,1-3,6.4,15,15,0,0,1-5,4.44A14,14,0,0,1,383.19,64.19Zm1.61-11.84a7.23,7.23,0,0,0,3.88-1.07,8.43,8.43,0,0,0,2.8-2.92,8.34,8.34,0,0,0,0-8.12,8.13,8.13,0,0,0-2.8-2.88,7.44,7.44,0,0,0-4-1.09,7.81,7.81,0,0,0-4,1A7.28,7.28,0,0,0,378,40.19a8.5,8.5,0,0,0-1,4.08,8.2,8.2,0,0,0,1,4.08,7.69,7.69,0,0,0,2.88,2.92A7.59,7.59,0,0,0,384.8,52.35Zm13.91,11.93a7.36,7.36,0,0,1-4-.88A4.18,4.18,0,0,1,393,60.68l0-48.48a21.14,21.14,0,0,1,.2-2.92A3.36,3.36,0,0,1,394.58,7a7.15,7.15,0,0,1,4.09-.88,7.8,7.8,0,0,1,4.24.84,3.62,3.62,0,0,1,1.51,2.21,12.49,12.49,0,0,1,.32,3l0,46.08a14.68,14.68,0,0,1-.28,2.92,3.52,3.52,0,0,1-1.52,2.27A7.5,7.5,0,0,1,398.71,64.28Z"/><path class="cls-2" d="M440.47,64.31a7.81,7.81,0,0,1-4.16-.85,3.45,3.45,0,0,1-1.56-2.28,16,16,0,0,1-.28-3l0-43.76c0-2.29.46-3.88,1.36-4.76s2.54-1.32,4.88-1.31H471a15.08,15.08,0,0,1,3,.29,3.38,3.38,0,0,1,2.2,1.56,8.22,8.22,0,0,1,.84,4.32,7.59,7.59,0,0,1-.88,4.16,3.59,3.59,0,0,1-2.28,1.56,15.15,15.15,0,0,1-3,.27H446.66V30.87h16.4a15.05,15.05,0,0,1,2.84.24,2.93,2.93,0,0,1,2,1.36,7.5,7.5,0,0,1,.72,3.84,6.52,6.52,0,0,1-.73,3.56,3,3,0,0,1-2,1.32,15.65,15.65,0,0,1-2.88.24H446.64V58.31a12.69,12.69,0,0,1-.32,2.92,3.58,3.58,0,0,1-1.56,2.24A8,8,0,0,1,440.47,64.31Z"/><path class="cls-2" d="M491.22,18.58a7.86,7.86,0,0,1-4.32-.89,3.5,3.5,0,0,1-1.56-2.32,15.62,15.62,0,0,1-.28-3,15.53,15.53,0,0,1,.28-3.08A3.4,3.4,0,0,1,486.94,7a8.61,8.61,0,0,1,4.36-.83,7.68,7.68,0,0,1,4.24.88,3.52,3.52,0,0,1,1.56,2.32,16.09,16.09,0,0,1,.28,3.12,15.24,15.24,0,0,1-.28,3,3.45,3.45,0,0,1-1.56,2.28A8.27,8.27,0,0,1,491.22,18.58Zm0,45.76a8,8,0,0,1-4.24-.85,3.26,3.26,0,0,1-1.52-2.24,17.18,17.18,0,0,1-.24-2.92l0-27.92a14.68,14.68,0,0,1,.28-2.92,3.44,3.44,0,0,1,1.56-2.24,8.17,8.17,0,0,1,4.24-.83,7.28,7.28,0,0,1,4.12.88,3.6,3.6,0,0,1,1.52,2.28,15,15,0,0,1,.28,3l0,27.84a14.61,14.61,0,0,1-.28,2.92,3.3,3.3,0,0,1-1.52,2.2A8.18,8.18,0,0,1,491.19,64.34Z"/><path class="cls-2" d="M511.75,64.27a7.8,7.8,0,0,1-4.2-.84A3.45,3.45,0,0,1,506,61.19a14.68,14.68,0,0,1-.28-2.92l0-28.16a13.41,13.41,0,0,1,.28-2.84,3.26,3.26,0,0,1,1.56-2.12,8.41,8.41,0,0,1,4.24-.8,8,8,0,0,1,3.76.68,3.3,3.3,0,0,1,1.56,1.64,5.14,5.14,0,0,1,.36,1.8,2.82,2.82,0,0,0,.16,1.16l-.48,1.52a4.78,4.78,0,0,1,1.24-2.44,11.84,11.84,0,0,1,2.72-2.24,15,15,0,0,1,3.52-1.55,12.77,12.77,0,0,1,3.72-.56,16,16,0,0,1,6.84,1.4,13.86,13.86,0,0,1,5.08,4,18.71,18.71,0,0,1,3.16,6.2,27.09,27.09,0,0,1,1.07,7.8V58.37a14.61,14.61,0,0,1-.28,2.92,3.3,3.3,0,0,1-1.52,2.2,8.38,8.38,0,0,1-4.28.8,8.12,8.12,0,0,1-4.24-.85,3.41,3.41,0,0,1-1.56-2.24,14.61,14.61,0,0,1-.28-2.92V43.8a9,9,0,0,0-.84-4.08,5.87,5.87,0,0,0-2.39-2.56,7.79,7.79,0,0,0-3.88-.88,8.19,8.19,0,0,0-4,.92,6.42,6.42,0,0,0-2.6,2.59,8.26,8.26,0,0,0-.92,4V58.35a14.54,14.54,0,0,1-.28,2.92,3.28,3.28,0,0,1-1.52,2.2A8.18,8.18,0,0,1,511.75,64.27Z"/><path class="cls-2" d="M585,64.31a7.55,7.55,0,0,1-4.4-1,2.88,2.88,0,0,1-1.36-2.56l.8-1.36a8.88,8.88,0,0,1-1.84,2,13.64,13.64,0,0,1-3.56,2.08,13.86,13.86,0,0,1-5.32.91,15.85,15.85,0,0,1-7-1.6,19.11,19.11,0,0,1-5.88-4.44,23,23,0,0,1-4.08-6.45,19.38,19.38,0,0,1-1.51-7.6,19,19,0,0,1,1.52-7.48,21.27,21.27,0,0,1,4.13-6.31,20.18,20.18,0,0,1,5.88-4.36,15.65,15.65,0,0,1,7-1.6,13.48,13.48,0,0,1,5,.85,13.62,13.62,0,0,1,3.48,2A10.91,10.91,0,0,1,580,29.43l-.72-1.12a3.37,3.37,0,0,1,1.4-2.92,7.71,7.71,0,0,1,4.44-1,7.29,7.29,0,0,1,4.12.89,3.59,3.59,0,0,1,1.52,2.32,15.62,15.62,0,0,1,.28,3l0,27.6a15.24,15.24,0,0,1-.28,3,3.49,3.49,0,0,1-1.52,2.28A7.84,7.84,0,0,1,585,64.31ZM571,52.38a6.9,6.9,0,0,0,3.84-1.07,8.28,8.28,0,0,0,3.76-7,8.11,8.11,0,0,0-1-4.12,7.86,7.86,0,0,0-10.76-2.81,8.1,8.1,0,0,0-4,7.08,7.55,7.55,0,0,0,1.08,4,8.23,8.23,0,0,0,7.08,4Z"/><path class="cls-1" d="M12,64.05a7.59,7.59,0,0,1-4.16-.88,3.52,3.52,0,0,1-1.56-2.28,15.13,15.13,0,0,1-.28-3L6,14.21a13.93,13.93,0,0,1,.28-2.88A3.54,3.54,0,0,1,7.87,9.09a7.88,7.88,0,0,1,4.32-.88,14.46,14.46,0,0,1,3,.24,3.42,3.42,0,0,1,1.52.68c.32.3.67.63,1,1l18,24.33h-1.2l18.1-24.31A5.76,5.76,0,0,1,54,9a4.76,4.76,0,0,1,1.64-.6,14.81,14.81,0,0,1,2.84-.2,7.5,7.5,0,0,1,4.16.88,3.77,3.77,0,0,1,1.6,2.28,13.6,13.6,0,0,1,.32,3l0,43.68A12.77,12.77,0,0,1,64.16,61a3.74,3.74,0,0,1-1.6,2.24,7.72,7.72,0,0,1-4.24.88,7.49,7.49,0,0,1-4.16-.89,3.67,3.67,0,0,1-1.6-2.32,13.16,13.16,0,0,1-.32-3l0-28.48L40.33,46.31a11,11,0,0,0-.88,1,5,5,0,0,1-1.56,1.19,6,6,0,0,1-2.76.52,6,6,0,0,1-2.72-.52,4.41,4.41,0,0,1-1.56-1.16l-.92-1.12L18.1,29.41l0,28.64a12.64,12.64,0,0,1-.32,2.88,3.77,3.77,0,0,1-1.56,2.24A7.5,7.5,0,0,1,12,64.05Z"/><path class="cls-1" d="M91.84,64.74a20,20,0,0,1-7.48-1.49,22.65,22.65,0,0,1-6.76-4.2,20.27,20.27,0,0,1-4.84-6.52A19.51,19.51,0,0,1,71,44.08a19.75,19.75,0,0,1,1.64-8A21.82,21.82,0,0,1,83.74,24.93a19.38,19.38,0,0,1,8-1.63,20.17,20.17,0,0,1,10.44,2.76,21,21,0,0,1,7.47,7.49A20.13,20.13,0,0,1,112.41,44a20,20,0,0,1-1.81,8.68,20.71,20.71,0,0,1-4.8,6.52,21.15,21.15,0,0,1-6.64,4.11A20.35,20.35,0,0,1,91.84,64.74Zm-.16-12.08a9,9,0,0,0,3.92-1A8.69,8.69,0,0,0,99,48.82a8.28,8.28,0,0,0,1.36-4.88,8.71,8.71,0,0,0-1.12-4.48,7.93,7.93,0,0,0-3.08-3,9.19,9.19,0,0,0-4.52-1.08,8.27,8.27,0,0,0-4.28,1.11,8.71,8.71,0,0,0-3,3.08A8.6,8.6,0,0,0,83.13,44a8.45,8.45,0,0,0,1.32,4.84,7.88,7.88,0,0,0,3.31,2.88A9.28,9.28,0,0,0,91.68,52.66Z"/><path class="cls-1" d="M121.38,24.75h8.8l11-.31a14.07,14.07,0,0,1,2.88.28,3.56,3.56,0,0,1,2.24,1.56,7.79,7.79,0,0,1,.88,4.24,7.53,7.53,0,0,1-.85,4,3.72,3.72,0,0,1-2.2,1.64,11.54,11.54,0,0,1-3,.36l-10.48-.25-9.68.07a4,4,0,0,1-3.24-1.48,8,8,0,0,1-.91-4.44A6.78,6.78,0,0,1,118,26.15,4.06,4.06,0,0,1,121.38,24.75Zm18.06,39.38a24.71,24.71,0,0,1-7-.89,11.37,11.37,0,0,1-4.84-2.72,11.21,11.21,0,0,1-2.8-4.68,22.19,22.19,0,0,1-.92-6.76l0-32.4a14.33,14.33,0,0,1,.29-3,3.31,3.31,0,0,1,1.56-2.12,7.83,7.83,0,0,1,4.16-.84,7.61,7.61,0,0,1,4.16.88,3.59,3.59,0,0,1,1.56,2.28,14.69,14.69,0,0,1,.27,2.92V48.6a9,9,0,0,0,.19,2.12,2.66,2.66,0,0,0,.6,1.24,2.25,2.25,0,0,0,1.12.57,8.74,8.74,0,0,0,1.76.16,13.25,13.25,0,0,1,3.12.32,3.39,3.39,0,0,1,2.12,1.44,6.93,6.93,0,0,1,.76,3.76,7.59,7.59,0,0,1-.88,4.16,3.42,3.42,0,0,1-2.28,1.52A17.35,17.35,0,0,1,139.44,64.13Z"/><path class="cls-1" d="M159.36,64.14a7.67,7.67,0,0,1-4.2-.85A3.42,3.42,0,0,1,153.64,61a15.16,15.16,0,0,1-.28-3l0-27.92a14.52,14.52,0,0,1,.28-3,3.39,3.39,0,0,1,1.56-2.2,8.15,8.15,0,0,1,4.24-.83,8,8,0,0,1,4,.76,3.4,3.4,0,0,1,1.56,1.76,5.92,5.92,0,0,1,.32,1.72l-1,.48a7.41,7.41,0,0,1,.84-1.16,11.28,11.28,0,0,1,4.8-3.32,11.51,11.51,0,0,1,4-.63,17.84,17.84,0,0,1,2,.12,12,12,0,0,1,2.24.48,9.09,9.09,0,0,1,2.12,1,5.27,5.27,0,0,1,1.56,1.48,3.76,3.76,0,0,1,.6,2.16A9.74,9.74,0,0,1,181,34.51a4.49,4.49,0,0,1-3.84,2.28,6.47,6.47,0,0,1-1.92-.2,3.44,3.44,0,0,1-.92-.48,3.41,3.41,0,0,0-.84-.48,5.05,5.05,0,0,0-1.76-.2,7.76,7.76,0,0,0-2.28.31,6.59,6.59,0,0,0-2,1A5,5,0,0,0,166,38.42a4.85,4.85,0,0,0-.52,2.28V58.22a15.31,15.31,0,0,1-.28,2.92,3.29,3.29,0,0,1-1.56,2.2A8.43,8.43,0,0,1,159.36,64.14Z"/><path class="cls-1" d="M195.22,18.4a8,8,0,0,1-4.32-.88,3.6,3.6,0,0,1-1.56-2.32,16.53,16.53,0,0,1-.27-3,15.46,15.46,0,0,1,.28-3.08A3.37,3.37,0,0,1,191,6.84,8.46,8.46,0,0,1,195.31,6a7.7,7.7,0,0,1,4.24.88,3.6,3.6,0,0,1,1.56,2.32,16.91,16.91,0,0,1,.28,3.12,16,16,0,0,1-.29,3,3.38,3.38,0,0,1-1.56,2.28A8.22,8.22,0,0,1,195.22,18.4Zm0,45.76a8,8,0,0,1-4.24-.84,3.25,3.25,0,0,1-1.52-2.24,17.35,17.35,0,0,1-.24-2.92l0-27.92a14.54,14.54,0,0,1,.28-2.92,3.35,3.35,0,0,1,1.56-2.24,8,8,0,0,1,4.24-.84,7.39,7.39,0,0,1,4.12.88,3.64,3.64,0,0,1,1.52,2.28,15.15,15.15,0,0,1,.27,3V58.24a15.31,15.31,0,0,1-.28,2.92,3.31,3.31,0,0,1-1.52,2.2A8.18,8.18,0,0,1,195.2,64.16Z"/><path class="cls-1" d="M229.51,64.5a21,21,0,0,1-7.16-1.32,22.57,22.57,0,0,1-6.71-3.89,18.69,18.69,0,0,1-4.92-6.4,20.1,20.1,0,0,1-1.83-8.8,19.56,19.56,0,0,1,1.84-8.72,19.17,19.17,0,0,1,4.89-6.32,21.68,21.68,0,0,1,6.68-3.87,20.65,20.65,0,0,1,7.08-1.32,19.39,19.39,0,0,1,5.32.68,17.58,17.58,0,0,1,4,1.65,12.27,12.27,0,0,1,2.36,1.68A24.26,24.26,0,0,1,243.45,30a3.38,3.38,0,0,1,1,2.72,4.74,4.74,0,0,1-.56,1.8,14,14,0,0,1-1.2,1.88c-1.65,2.24-3.26,3.25-4.8,3a7.32,7.32,0,0,1-2.2-.8c-.67-.37-1.31-.74-1.92-1.12a16.36,16.36,0,0,0-2-1,6.15,6.15,0,0,0-2.4-.44,8.26,8.26,0,0,0-7.09,12.32,8.22,8.22,0,0,0,2.88,2.92,7.71,7.71,0,0,0,4,1.08,8,8,0,0,0,2.32-.32,7.39,7.39,0,0,0,1.76-.76l1.12-.68c.64-.42,1.26-.81,1.84-1.16A3.53,3.53,0,0,1,238,48.9a4.07,4.07,0,0,1,2.36.85,13.93,13.93,0,0,1,2.6,2.68,6.53,6.53,0,0,1,1.56,3.12,3.93,3.93,0,0,1-.68,2.76,8.65,8.65,0,0,1-2.72,2.44,13.83,13.83,0,0,1-2.29,1.44,22.48,22.48,0,0,1-4,1.59A18.16,18.16,0,0,1,229.51,64.5Z"/><path class="cls-1" d="M258.18,18.44a7.86,7.86,0,0,1-4.32-.89,3.57,3.57,0,0,1-1.56-2.32,16.44,16.44,0,0,1-.28-3,15.5,15.5,0,0,1,.29-3.08,3.32,3.32,0,0,1,1.6-2.23A8.36,8.36,0,0,1,258.27,6a7.72,7.72,0,0,1,4.24.88,3.6,3.6,0,0,1,1.56,2.32,16.94,16.94,0,0,1,.27,3.12,15.16,15.16,0,0,1-.28,3,3.45,3.45,0,0,1-1.56,2.28A8.22,8.22,0,0,1,258.18,18.44Zm0,45.76a8,8,0,0,1-4.24-.85,3.26,3.26,0,0,1-1.52-2.24,18.28,18.28,0,0,1-.23-2.92V30.27a14.68,14.68,0,0,1,.29-2.92A3.33,3.33,0,0,1,254,25.12a7.91,7.91,0,0,1,4.24-.84,7.3,7.3,0,0,1,4.12.88,3.59,3.59,0,0,1,1.51,2.28,15,15,0,0,1,.28,3V58.28a15.38,15.38,0,0,1-.28,2.92,3.32,3.32,0,0,1-1.53,2.2A8.13,8.13,0,0,1,258.15,64.2Z"/><path class="cls-1" d="M289.83,64.14a16.18,16.18,0,0,1-7-1.57A18.73,18.73,0,0,1,277,58.21a21.32,21.32,0,0,1-4-6.44A20.3,20.3,0,0,1,271.52,44,19.38,19.38,0,0,1,273,36.57a20.8,20.8,0,0,1,4.08-6.32A20.35,20.35,0,0,1,283,25.89a15.42,15.42,0,0,1,6.88-1.59,13.72,13.72,0,0,1,11.63,5.84,20.31,20.31,0,0,1,3,6.32A29.21,29.21,0,0,1,305.6,44a29.7,29.7,0,0,1-1,7.68,19.63,19.63,0,0,1-3,6.39,14.88,14.88,0,0,1-5,4.44A14,14,0,0,1,289.83,64.14Zm1.61-11.84a7.15,7.15,0,0,0,3.88-1.08,8.35,8.35,0,0,0,2.8-2.92,8.34,8.34,0,0,0,.05-8.12,8.13,8.13,0,0,0-2.8-2.88,7.49,7.49,0,0,0-4-1.08,7.8,7.8,0,0,0-4,1,7.31,7.31,0,0,0-2.8,2.88,8.5,8.5,0,0,0-1,4.08,8.15,8.15,0,0,0,1,4.08,7.69,7.69,0,0,0,2.88,2.92A7.53,7.53,0,0,0,291.44,52.3Zm13.91,11.93a7.44,7.44,0,0,1-4-.89,4.15,4.15,0,0,1-1.72-2.72l0-48.48a19.77,19.77,0,0,1,.21-2.92,3.33,3.33,0,0,1,1.4-2.28,7.1,7.1,0,0,1,4.08-.87,7.8,7.8,0,0,1,4.24.84,3.65,3.65,0,0,1,1.52,2.2,13.12,13.12,0,0,1,.31,3l0,46.08a14.6,14.6,0,0,1-.29,2.92,3.57,3.57,0,0,1-1.52,2.28A7.56,7.56,0,0,1,305.35,64.23Z"/><path class="cls-1" d="M352.07,64.17a7.57,7.57,0,0,1-4.4-1,2.88,2.88,0,0,1-1.36-2.56l.8-1.36a8.88,8.88,0,0,1-1.84,2,13.32,13.32,0,0,1-8.88,3,15.88,15.88,0,0,1-7-1.6,19.11,19.11,0,0,1-5.88-4.44,23,23,0,0,1-4.07-6.45,19.39,19.39,0,0,1-1.52-7.6,18.78,18.78,0,0,1,1.53-7.48,21.37,21.37,0,0,1,4.12-6.31,20.45,20.45,0,0,1,5.88-4.36,15.79,15.79,0,0,1,7-1.6,13.17,13.17,0,0,1,8.51,2.81,10.63,10.63,0,0,1,2.12,2.16l-.72-1.12a3.36,3.36,0,0,1,1.41-2.92,7.71,7.71,0,0,1,4.44-1,7.23,7.23,0,0,1,4.11.89,3.55,3.55,0,0,1,1.52,2.32,15.62,15.62,0,0,1,.28,3V58.1a16.06,16.06,0,0,1-.29,3,3.42,3.42,0,0,1-1.52,2.28A7.84,7.84,0,0,1,352.07,64.17Zm-14-11.92a7,7,0,0,0,3.84-1.08,8.51,8.51,0,0,0,2.73-11.12,7.78,7.78,0,0,0-2.8-2.84,8,8,0,0,0-8,0,8.14,8.14,0,0,0-4,7.08,7.55,7.55,0,0,0,1.08,4,8.1,8.1,0,0,0,3,2.88A8.21,8.21,0,0,0,338.08,52.25Z"/><path class="cls-1" d="M383.19,64.19a16,16,0,0,1-7-1.56,18.8,18.8,0,0,1-5.84-4.37,21.25,21.25,0,0,1-4-6.44,20.25,20.25,0,0,1-1.48-7.72,19.28,19.28,0,0,1,1.49-7.48,20.92,20.92,0,0,1,4.08-6.32A20.1,20.1,0,0,1,376.33,26a15.47,15.47,0,0,1,6.88-1.6,13.79,13.79,0,0,1,11.64,5.85,20.2,20.2,0,0,1,3,6.32A29.14,29.14,0,0,1,399,44a29.7,29.7,0,0,1-1,7.68,19.49,19.49,0,0,1-3,6.4,15,15,0,0,1-5,4.44A14,14,0,0,1,383.19,64.19Zm1.61-11.84a7.23,7.23,0,0,0,3.88-1.07,8.43,8.43,0,0,0,2.8-2.92,8.34,8.34,0,0,0,0-8.12,8.13,8.13,0,0,0-2.8-2.88,7.44,7.44,0,0,0-4-1.09,7.81,7.81,0,0,0-4,1A7.28,7.28,0,0,0,378,40.19a8.5,8.5,0,0,0-1,4.08,8.2,8.2,0,0,0,1,4.08,7.69,7.69,0,0,0,2.88,2.92A7.59,7.59,0,0,0,384.8,52.35Zm13.91,11.93a7.36,7.36,0,0,1-4-.88A4.18,4.18,0,0,1,393,60.68l0-48.48a21.14,21.14,0,0,1,.2-2.92A3.36,3.36,0,0,1,394.58,7a7.15,7.15,0,0,1,4.09-.88,7.8,7.8,0,0,1,4.24.84,3.62,3.62,0,0,1,1.51,2.21,12.49,12.49,0,0,1,.32,3l0,46.08a14.68,14.68,0,0,1-.28,2.92,3.52,3.52,0,0,1-1.52,2.27A7.5,7.5,0,0,1,398.71,64.28Z"/><path class="cls-1" d="M440.47,64.31a7.81,7.81,0,0,1-4.16-.85,3.45,3.45,0,0,1-1.56-2.28,16,16,0,0,1-.28-3l0-43.76c0-2.29.46-3.88,1.36-4.76s2.54-1.32,4.88-1.31H471a15.08,15.08,0,0,1,3,.29,3.38,3.38,0,0,1,2.2,1.56,8.22,8.22,0,0,1,.84,4.32,7.59,7.59,0,0,1-.88,4.16,3.59,3.59,0,0,1-2.28,1.56,15.15,15.15,0,0,1-3,.27H446.66V30.87h16.4a15.05,15.05,0,0,1,2.84.24,2.93,2.93,0,0,1,2,1.36,7.5,7.5,0,0,1,.72,3.84,6.52,6.52,0,0,1-.73,3.56,3,3,0,0,1-2,1.32,15.65,15.65,0,0,1-2.88.24H446.64V58.31a12.69,12.69,0,0,1-.32,2.92,3.58,3.58,0,0,1-1.56,2.24A8,8,0,0,1,440.47,64.31Z"/><path class="cls-1" d="M491.22,18.58a7.86,7.86,0,0,1-4.32-.89,3.5,3.5,0,0,1-1.56-2.32,15.62,15.62,0,0,1-.28-3,15.53,15.53,0,0,1,.28-3.08A3.4,3.4,0,0,1,486.94,7a8.61,8.61,0,0,1,4.36-.83,7.68,7.68,0,0,1,4.24.88,3.52,3.52,0,0,1,1.56,2.32,16.09,16.09,0,0,1,.28,3.12,15.24,15.24,0,0,1-.28,3,3.45,3.45,0,0,1-1.56,2.28A8.27,8.27,0,0,1,491.22,18.58Zm0,45.76a8,8,0,0,1-4.24-.85,3.26,3.26,0,0,1-1.52-2.24,17.18,17.18,0,0,1-.24-2.92l0-27.92a14.68,14.68,0,0,1,.28-2.92,3.44,3.44,0,0,1,1.56-2.24,8.17,8.17,0,0,1,4.24-.83,7.28,7.28,0,0,1,4.12.88,3.6,3.6,0,0,1,1.52,2.28,15,15,0,0,1,.28,3l0,27.84a14.61,14.61,0,0,1-.28,2.92,3.3,3.3,0,0,1-1.52,2.2A8.18,8.18,0,0,1,491.19,64.34Z"/><path class="cls-1" d="M511.75,64.27a7.8,7.8,0,0,1-4.2-.84A3.45,3.45,0,0,1,506,61.19a14.68,14.68,0,0,1-.28-2.92l0-28.16a13.41,13.41,0,0,1,.28-2.84,3.26,3.26,0,0,1,1.56-2.12,8.41,8.41,0,0,1,4.24-.8,8,8,0,0,1,3.76.68,3.3,3.3,0,0,1,1.56,1.64,5.14,5.14,0,0,1,.36,1.8,2.82,2.82,0,0,0,.16,1.16l-.48,1.52a4.78,4.78,0,0,1,1.24-2.44,11.84,11.84,0,0,1,2.72-2.24,15,15,0,0,1,3.52-1.55,12.77,12.77,0,0,1,3.72-.56,16,16,0,0,1,6.84,1.4,13.86,13.86,0,0,1,5.08,4,18.71,18.71,0,0,1,3.16,6.2,27.09,27.09,0,0,1,1.07,7.8V58.37a14.61,14.61,0,0,1-.28,2.92,3.3,3.3,0,0,1-1.52,2.2,8.38,8.38,0,0,1-4.28.8,8.12,8.12,0,0,1-4.24-.85,3.41,3.41,0,0,1-1.56-2.24,14.61,14.61,0,0,1-.28-2.92V43.8a9,9,0,0,0-.84-4.08,5.87,5.87,0,0,0-2.39-2.56,7.79,7.79,0,0,0-3.88-.88,8.19,8.19,0,0,0-4,.92,6.42,6.42,0,0,0-2.6,2.59,8.26,8.26,0,0,0-.92,4V58.35a14.54,14.54,0,0,1-.28,2.92,3.28,3.28,0,0,1-1.52,2.2A8.18,8.18,0,0,1,511.75,64.27Z"/><path class="cls-1" d="M585,64.31a7.55,7.55,0,0,1-4.4-1,2.88,2.88,0,0,1-1.36-2.56l.8-1.36a8.88,8.88,0,0,1-1.84,2,13.64,13.64,0,0,1-3.56,2.08,13.86,13.86,0,0,1-5.32.91,15.85,15.85,0,0,1-7-1.6,19.11,19.11,0,0,1-5.88-4.44,23,23,0,0,1-4.08-6.45,19.38,19.38,0,0,1-1.51-7.6,19,19,0,0,1,1.52-7.48,21.27,21.27,0,0,1,4.13-6.31,20.18,20.18,0,0,1,5.88-4.36,15.65,15.65,0,0,1,7-1.6,13.48,13.48,0,0,1,5,.85,13.62,13.62,0,0,1,3.48,2A10.91,10.91,0,0,1,580,29.43l-.72-1.12a3.37,3.37,0,0,1,1.4-2.92,7.71,7.71,0,0,1,4.44-1,7.29,7.29,0,0,1,4.12.89,3.59,3.59,0,0,1,1.52,2.32,15.62,15.62,0,0,1,.28,3l0,27.6a15.24,15.24,0,0,1-.28,3,3.49,3.49,0,0,1-1.52,2.28A7.84,7.84,0,0,1,585,64.31ZM571,52.38a6.9,6.9,0,0,0,3.84-1.07,8.28,8.28,0,0,0,3.76-7,8.11,8.11,0,0,0-1-4.12,7.86,7.86,0,0,0-10.76-2.81,8.1,8.1,0,0,0-4,7.08,7.55,7.55,0,0,0,1.08,4,8.23,8.23,0,0,0,7.08,4Z"/></g></g></svg>