<svg xmlns="http://www.w3.org/2000/svg" viewBox="0 0 597.29 70.74"><defs><style>.cls-1{fill:#fff;}.cls-2{fill:none;stroke:#0f73aa;stroke-linejoin:round;stroke-width:12px;}</style></defs><title>tb</title><g id="Layer_2" data-name="Layer 2"><g id="Portadilla_2_GUIA_1" data-name="Portadilla 2 GUIA 1"><path class="cls-1" d="M12,64.05a7.37,7.37,0,0,1-4.12-.88,3.75,3.75,0,0,1-1.56-2.28,13.73,13.73,0,0,1-.32-3L6,14.13a11.65,11.65,0,0,1,.32-2.84A3.68,3.68,0,0,1,8,9.09a7.7,7.7,0,0,1,4.24-.88,14.46,14.46,0,0,1,3,.24,3.42,3.42,0,0,1,1.52.68c.32.3.67.63,1,1l18,24.33h-1.2l18.1-24.31A5.15,5.15,0,0,1,54,9a4.22,4.22,0,0,1,1.64-.56,18.71,18.71,0,0,1,2.84-.16,7.5,7.5,0,0,1,4.16.88,3.77,3.77,0,0,1,1.6,2.28,13.26,13.26,0,0,1,.32,2.92l0,43.76A12.64,12.64,0,0,1,64.16,61a3.74,3.74,0,0,1-1.6,2.24,7.72,7.72,0,0,1-4.24.88,7.49,7.49,0,0,1-4.16-.89,3.67,3.67,0,0,1-1.6-2.32,13.16,13.16,0,0,1-.32-3l0-28.56L40.33,46.23l-.88,1.08a4.68,4.68,0,0,1-1.56,1.16,6.44,6.44,0,0,1-2.68.47,6.45,6.45,0,0,1-2.76-.48,4.68,4.68,0,0,1-1.56-1.12c-.38-.43-.7-.8-1-1.12L18.1,29.41l0,28.64a12.64,12.64,0,0,1-.32,2.88,3.77,3.77,0,0,1-1.56,2.24A7.5,7.5,0,0,1,12,64.05Z"/><path class="cls-1" d="M91.84,64.74a20,20,0,0,1-7.48-1.49,22.45,22.45,0,0,1-6.76-4.2,19.58,19.58,0,0,1-6.55-15,20.07,20.07,0,0,1,1.6-8,21.06,21.06,0,0,1,4.49-6.6,21.67,21.67,0,0,1,6.6-4.52,19.55,19.55,0,0,1,8-1.63,20.17,20.17,0,0,1,10.44,2.76,21,21,0,0,1,7.47,7.49A20.13,20.13,0,0,1,112.41,44a20,20,0,0,1-1.81,8.68,20.71,20.71,0,0,1-4.8,6.52,21.15,21.15,0,0,1-6.64,4.11A20.35,20.35,0,0,1,91.84,64.74Zm-.16-12.08a9,9,0,0,0,3.92-1A8.69,8.69,0,0,0,99,48.82a8.28,8.28,0,0,0,1.36-4.88,8.71,8.71,0,0,0-1.12-4.48,7.93,7.93,0,0,0-3.08-3,9.19,9.19,0,0,0-4.52-1.08,8.19,8.19,0,0,0-4.28,1.12A8.58,8.58,0,0,0,83.13,44a8.45,8.45,0,0,0,1.32,4.84,8,8,0,0,0,3.31,2.89A9.41,9.41,0,0,0,91.68,52.66Z"/><path class="cls-1" d="M121.46,24.76h8.8l11-.31a14.07,14.07,0,0,1,2.88.28,3.59,3.59,0,0,1,2.24,1.56,7.79,7.79,0,0,1,.88,4.24,7.53,7.53,0,0,1-.85,4,3.72,3.72,0,0,1-2.2,1.64,11.54,11.54,0,0,1-3,.36l-10.48-.25h-9.68a3.86,3.86,0,0,1-3.24-1.41,8,8,0,0,1-.91-4.44,6.78,6.78,0,0,1,1.12-4.28A4,4,0,0,1,121.46,24.76Zm18.06,39.37a24.27,24.27,0,0,1-7-.89,11.75,11.75,0,0,1-4.84-2.72,11.08,11.08,0,0,1-2.84-4.68,22.19,22.19,0,0,1-.92-6.76l0-32.48a13.89,13.89,0,0,1,.29-2.88,3.31,3.31,0,0,1,1.56-2.12,7.83,7.83,0,0,1,4.16-.84,7.61,7.61,0,0,1,4.16.88,3.59,3.59,0,0,1,1.56,2.24,15.29,15.29,0,0,1,.27,3l0,31.76a9.52,9.52,0,0,0,.2,2.12,2.66,2.66,0,0,0,.6,1.24,2.25,2.25,0,0,0,1.12.57,8.74,8.74,0,0,0,1.76.16,13.93,13.93,0,0,1,3.12.32,3.39,3.39,0,0,1,2.12,1.44,6.93,6.93,0,0,1,.76,3.76,7.59,7.59,0,0,1-.88,4.16,3.42,3.42,0,0,1-2.28,1.52A17.35,17.35,0,0,1,139.52,64.13Z"/><path class="cls-1" d="M159.43,64.14a7.76,7.76,0,0,1-4.19-.84A3.45,3.45,0,0,1,153.72,61a15.34,15.34,0,0,1-.28-3l0-27.92a12.61,12.61,0,0,1,.32-3A3.56,3.56,0,0,1,155.34,25a7.82,7.82,0,0,1,4.2-.84,8,8,0,0,1,4,.76,3.44,3.44,0,0,1,1.56,1.76,5.92,5.92,0,0,1,.32,1.72l-1,.48a7.41,7.41,0,0,1,.84-1.16,11.28,11.28,0,0,1,4.8-3.32,11.51,11.51,0,0,1,4-.63,17.84,17.84,0,0,1,2,.12,12,12,0,0,1,2.24.48,9.09,9.09,0,0,1,2.12,1A5.27,5.27,0,0,1,182,26.79a3.76,3.76,0,0,1,.6,2.16,9.82,9.82,0,0,1-1.53,5.56,4.49,4.49,0,0,1-3.84,2.28,5.35,5.35,0,0,1-1.92-.24,5.94,5.94,0,0,1-.92-.48,4.71,4.71,0,0,0-.84-.44,5,5,0,0,0-1.76-.2,8.1,8.1,0,0,0-2.28.31,6.59,6.59,0,0,0-2,1,5,5,0,0,0-1.44,1.68,4.67,4.67,0,0,0-.52,2.2v17.6a15.31,15.31,0,0,1-.28,2.92,3.27,3.27,0,0,1-1.56,2.2A8.45,8.45,0,0,1,159.43,64.14Z"/><path class="cls-1" d="M195.3,18.4a8,8,0,0,1-4.32-.88,3.6,3.6,0,0,1-1.56-2.32,15.7,15.7,0,0,1-.27-3,13.43,13.43,0,0,1,.32-3.08,3.51,3.51,0,0,1,1.6-2.24A8.22,8.22,0,0,1,195.39,6a7.79,7.79,0,0,1,4.24.88,3.6,3.6,0,0,1,1.56,2.32,15.7,15.7,0,0,1,.27,3,15.62,15.62,0,0,1-.28,3,3.41,3.41,0,0,1-1.56,2.28A8.22,8.22,0,0,1,195.3,18.4Zm0,45.76a7.82,7.82,0,0,1-4.2-.84,3.44,3.44,0,0,1-1.51-2.24,14.68,14.68,0,0,1-.28-2.92V30.24a14.35,14.35,0,0,1,.29-3,3.34,3.34,0,0,1,1.56-2.2,8,8,0,0,1,4.24-.84,7.39,7.39,0,0,1,4.12.88A3.64,3.64,0,0,1,201,27.36a15.69,15.69,0,0,1,.27,3V58.24a15.31,15.31,0,0,1-.28,2.92,3.29,3.29,0,0,1-1.53,2.2A8.13,8.13,0,0,1,195.27,64.16Z"/><path class="cls-1" d="M229.59,64.5a21,21,0,0,1-7.16-1.32,22.07,22.07,0,0,1-6.71-3.93,19.17,19.17,0,0,1-4.92-6.4A19.66,19.66,0,0,1,209,44.09a19.56,19.56,0,0,1,1.84-8.72,19.28,19.28,0,0,1,4.88-6.32,21.84,21.84,0,0,1,6.69-3.87,20.65,20.65,0,0,1,7.08-1.32,19.39,19.39,0,0,1,5.32.68,18,18,0,0,1,4,1.65,11.83,11.83,0,0,1,2.35,1.68,23.33,23.33,0,0,1,2.4,2.08,3.38,3.38,0,0,1,1,2.72,4.74,4.74,0,0,1-.56,1.8,14,14,0,0,1-1.2,1.88q-2.4,3.36-4.8,3a7.51,7.51,0,0,1-2.2-.81c-.67-.37-1.31-.76-1.92-1.16a10.63,10.63,0,0,0-2-1,6.78,6.78,0,0,0-2.4-.4,8.34,8.34,0,0,0-4.16,1,7.69,7.69,0,0,0-2.92,2.88,8.2,8.2,0,0,0-1.08,4.24,8.08,8.08,0,0,0,1.07,4.16,8.22,8.22,0,0,0,2.88,2.92,7.71,7.71,0,0,0,4,1.08,7.57,7.57,0,0,0,2.36-.32,7.42,7.42,0,0,0,1.72-.76l1.12-.68c.64-.42,1.25-.81,1.84-1.16a3.63,3.63,0,0,1,1.84-.51,4.06,4.06,0,0,1,2.32.84,13.13,13.13,0,0,1,2.64,2.68,6.88,6.88,0,0,1,1.48,3.12,3.8,3.8,0,0,1-.68,2.72,9.8,9.8,0,0,1-2.72,2.48,13.83,13.83,0,0,1-2.29,1.44,22.48,22.48,0,0,1-4,1.59A18.16,18.16,0,0,1,229.59,64.5Z"/><path class="cls-1" d="M258.26,18.44a8,8,0,0,1-4.32-.88,3.62,3.62,0,0,1-1.56-2.33,15.62,15.62,0,0,1-.28-3,13.47,13.47,0,0,1,.33-3.08A3.49,3.49,0,0,1,254,6.88,8.22,8.22,0,0,1,258.35,6a7.72,7.72,0,0,1,4.24.88,3.6,3.6,0,0,1,1.56,2.32,16.53,16.53,0,0,1,.27,3,15.62,15.62,0,0,1-.28,3,3.45,3.45,0,0,1-1.56,2.28A8.22,8.22,0,0,1,258.26,18.44Zm0,45.76a7.71,7.71,0,0,1-4.2-.85,3.46,3.46,0,0,1-1.52-2.24,15.32,15.32,0,0,1-.27-2.92V30.27a15.26,15.26,0,0,1,.28-3,3.37,3.37,0,0,1,1.57-2.19,8,8,0,0,1,4.24-.84,7.3,7.3,0,0,1,4.12.88A3.56,3.56,0,0,1,264,27.4a14.91,14.91,0,0,1,.28,3V58.28A14.6,14.6,0,0,1,264,61.2a3.27,3.27,0,0,1-1.52,2.2A8.13,8.13,0,0,1,258.23,64.2Z"/><path class="cls-1" d="M289.91,64.14A16.09,16.09,0,0,1,283,62.57a18.55,18.55,0,0,1-5.87-4.36,21.32,21.32,0,0,1-4-6.44,20.25,20.25,0,0,1-1.48-7.72,19.39,19.39,0,0,1,1.49-7.48,20.8,20.8,0,0,1,4.08-6.32,20.45,20.45,0,0,1,5.88-4.36,15.5,15.5,0,0,1,6.89-1.59,14.07,14.07,0,0,1,6.75,1.56,14.53,14.53,0,0,1,4.92,4.28,19.41,19.41,0,0,1,3,6.33A30.4,30.4,0,0,1,305.68,44a26.61,26.61,0,0,1-.92,7.68,20.14,20.14,0,0,1-3,6.39,14.91,14.91,0,0,1-4.92,4.44A13.94,13.94,0,0,1,289.91,64.14Zm1.61-11.84a7.15,7.15,0,0,0,3.88-1.08,8.35,8.35,0,0,0,2.8-2.92,7.88,7.88,0,0,0,1.08-4.08,8.13,8.13,0,0,0-1-4.12,8,8,0,0,0-10.76-2.85,7.35,7.35,0,0,0-2.8,2.84,8.33,8.33,0,0,0-1,4.12,8.15,8.15,0,0,0,1,4.08,7.79,7.79,0,0,0,2.88,2.93A7.62,7.62,0,0,0,291.52,52.3Zm14,11.93a7.58,7.58,0,0,1-4.08-.89,4.12,4.12,0,0,1-1.76-2.72l0-48.48a21.25,21.25,0,0,1,.2-2.92,3.34,3.34,0,0,1,1.41-2.28,7.27,7.27,0,0,1,4.16-.87,7.82,7.82,0,0,1,4.2.84,3.41,3.41,0,0,1,1.51,2.2,14.45,14.45,0,0,1,.28,3l0,46.08a14.61,14.61,0,0,1-.28,2.92,3.57,3.57,0,0,1-1.52,2.28A7.39,7.39,0,0,1,305.51,64.23Z"/><path class="cls-1" d="M352.23,64.17a7.37,7.37,0,0,1-4.36-1,3.1,3.1,0,0,1-1.4-2.56l.8-1.36a8.88,8.88,0,0,1-1.84,2,13.11,13.11,0,0,1-8.88,3,15.88,15.88,0,0,1-7-1.6,19.11,19.11,0,0,1-5.88-4.44,22.05,22.05,0,0,1-4-6.45,19.72,19.72,0,0,1-1.48-7.6,19.28,19.28,0,0,1,1.49-7.48,20.68,20.68,0,0,1,4.08-6.31,20.18,20.18,0,0,1,5.88-4.36,15.78,15.78,0,0,1,7-1.6,13.23,13.23,0,0,1,8.52,2.81,10.91,10.91,0,0,1,2.12,2.16l-.64-1.12a3.2,3.2,0,0,1,1.32-2.92,7.83,7.83,0,0,1,4.44-1,7.36,7.36,0,0,1,4.12.89A3.55,3.55,0,0,1,358,27.46a15.62,15.62,0,0,1,.28,3l0,27.6a15.24,15.24,0,0,1-.28,3,3.46,3.46,0,0,1-1.52,2.28A7.74,7.74,0,0,1,352.23,64.17ZM338.32,52.25a7,7,0,0,0,3.8-1.08,7.81,7.81,0,0,0,2.72-2.92,8.39,8.39,0,0,0,1-4.08,8,8,0,0,0-3.83-7,7.24,7.24,0,0,0-3.84-1.08,7.59,7.59,0,0,0-4.12,1.11,8.71,8.71,0,0,0-2.89,3,8.06,8.06,0,0,0-1.08,4.16,7.55,7.55,0,0,0,1.08,4,8.1,8.1,0,0,0,3,2.88A8.27,8.27,0,0,0,338.32,52.25Z"/><path class="cls-1" d="M383.35,64.19a16.08,16.08,0,0,1-6.92-1.56,18.85,18.85,0,0,1-5.88-4.36,21.42,21.42,0,0,1-4-6.45A20.21,20.21,0,0,1,365,44.1a19.28,19.28,0,0,1,1.49-7.48,20.73,20.73,0,0,1,4.08-6.32A20.14,20.14,0,0,1,376.49,26a15.47,15.47,0,0,1,6.88-1.6,14.12,14.12,0,0,1,6.76,1.57,14.53,14.53,0,0,1,4.92,4.28,19.36,19.36,0,0,1,3,6.32A30.47,30.47,0,0,1,399.12,44a27,27,0,0,1-.92,7.68,20.19,20.19,0,0,1-3,6.4,14.91,14.91,0,0,1-4.92,4.44A13.94,13.94,0,0,1,383.35,64.19ZM385,52.35a7.14,7.14,0,0,0,3.88-1.07,8.52,8.52,0,0,0,2.8-2.92,7.93,7.93,0,0,0,1.08-4.08,8,8,0,0,0-1-4.12,7.64,7.64,0,0,0-6.79-3.89,7.81,7.81,0,0,0-4,1,7.3,7.3,0,0,0-2.81,2.84,8.4,8.4,0,0,0-1,4.12,8.2,8.2,0,0,0,1,4.08A7.69,7.69,0,0,0,381,51.27,7.59,7.59,0,0,0,385,52.35Zm14,11.93a7.59,7.59,0,0,1-4.08-.88,4.11,4.11,0,0,1-1.76-2.72l0-48.48a21.14,21.14,0,0,1,.2-2.92A3.36,3.36,0,0,1,394.74,7a7.28,7.28,0,0,1,4.16-.88,7.77,7.77,0,0,1,4.2.84,3.4,3.4,0,0,1,1.52,2.21,14.38,14.38,0,0,1,.28,3l0,46.08a14.68,14.68,0,0,1-.28,2.92,3.56,3.56,0,0,1-1.52,2.27A7.3,7.3,0,0,1,399,64.28Z"/><path class="cls-1" d="M440.71,64.31a7.81,7.81,0,0,1-4.16-.85A3.45,3.45,0,0,1,435,61.18a15.16,15.16,0,0,1-.28-3l0-43.76q0-3.51,1.36-4.8c.91-.85,2.53-1.27,4.88-1.27l30.24,0a14.45,14.45,0,0,1,3,.28,3.41,3.41,0,0,1,2.2,1.56,8.22,8.22,0,0,1,.84,4.32,7.59,7.59,0,0,1-.88,4.16,3.58,3.58,0,0,1-2.29,1.56,15.76,15.76,0,0,1-3,.28l-24.16,0V30.87h16.4a15.13,15.13,0,0,1,2.84.24,3,3,0,0,1,2,1.36,7.2,7.2,0,0,1,.71,3.76,6.84,6.84,0,0,1-.72,3.64,2.94,2.94,0,0,1-2,1.32,15.57,15.57,0,0,1-2.92.24H446.88V58.31a13.26,13.26,0,0,1-.32,2.92A3.62,3.62,0,0,1,445,63.47,8,8,0,0,1,440.71,64.31Z"/><path class="cls-1" d="M491.46,18.58a7.93,7.93,0,0,1-4.33-.89,3.52,3.52,0,0,1-1.55-2.32,15.62,15.62,0,0,1-.28-3,14.07,14.07,0,0,1,.32-3.08A3.57,3.57,0,0,1,487.22,7a8.34,8.34,0,0,1,4.32-.83,7.7,7.7,0,0,1,4.24.88,3.6,3.6,0,0,1,1.56,2.32,15.62,15.62,0,0,1,.28,3,16.44,16.44,0,0,1-.28,3,3.45,3.45,0,0,1-1.56,2.28A8.27,8.27,0,0,1,491.46,18.58Zm0,45.76a7.67,7.67,0,0,1-4.2-.85,3.39,3.39,0,0,1-1.52-2.24,14.54,14.54,0,0,1-.28-2.92l0-27.92a14.52,14.52,0,0,1,.28-3,3.43,3.43,0,0,1,1.56-2.2,8.15,8.15,0,0,1,4.24-.83,7.3,7.3,0,0,1,4.12.88,3.57,3.57,0,0,1,1.52,2.24,14.91,14.91,0,0,1,.28,3l0,27.84a14.54,14.54,0,0,1-.28,2.92,3.34,3.34,0,0,1-1.52,2.2A8.18,8.18,0,0,1,491.43,64.34Z"/><path class="cls-1" d="M512,64.27a7.77,7.77,0,0,1-4.2-.84,3.42,3.42,0,0,1-1.52-2.24,14.68,14.68,0,0,1-.28-2.92l0-28.16a11.65,11.65,0,0,1,.32-2.84,3.4,3.4,0,0,1,1.56-2.12,8.18,8.18,0,0,1,4.2-.8,8,8,0,0,1,3.76.68,3.3,3.3,0,0,1,1.56,1.64,5.14,5.14,0,0,1,.36,1.8,2.82,2.82,0,0,0,.16,1.16l-.48,1.52a4.7,4.7,0,0,1,1.24-2.44,11.56,11.56,0,0,1,2.72-2.23,14.64,14.64,0,0,1,3.52-1.56,13.06,13.06,0,0,1,3.72-.56,16,16,0,0,1,6.84,1.4,14,14,0,0,1,5.08,4,18.79,18.79,0,0,1,3.15,6.2,26.74,26.74,0,0,1,1.08,7.8V58.37a14.61,14.61,0,0,1-.28,2.92,3.34,3.34,0,0,1-1.52,2.2,8.18,8.18,0,0,1-4.2.8,8.06,8.06,0,0,1-4.28-.85A3.56,3.56,0,0,1,533,61.2a13.2,13.2,0,0,1-.32-2.92V43.8a9.48,9.48,0,0,0-.8-4.08,5.76,5.76,0,0,0-2.4-2.6,7.76,7.76,0,0,0-3.92-.92,8,8,0,0,0-4,1,6.58,6.58,0,0,0-2.6,2.63,8.26,8.26,0,0,0-.92,4V58.35a15.31,15.31,0,0,1-.28,2.92,3.31,3.31,0,0,1-1.52,2.2A8.18,8.18,0,0,1,512,64.27Z"/><path class="cls-1" d="M585.27,64.31a7.35,7.35,0,0,1-4.36-1,3.08,3.08,0,0,1-1.4-2.56l.8-1.36a9.13,9.13,0,0,1-1.84,2,13.11,13.11,0,0,1-8.88,3,15.85,15.85,0,0,1-7-1.6,18.88,18.88,0,0,1-5.88-4.44,22.22,22.22,0,0,1-4-6.45,19.9,19.9,0,0,1-1.47-7.6,19.27,19.27,0,0,1,1.48-7.48,20.71,20.71,0,0,1,4.09-6.31,20.18,20.18,0,0,1,5.88-4.36,15.75,15.75,0,0,1,7-1.6,13.69,13.69,0,0,1,5,.85,14,14,0,0,1,3.48,2,10.91,10.91,0,0,1,2.12,2.16l-.64-1.12a3.18,3.18,0,0,1,1.32-2.92,7.79,7.79,0,0,1,4.44-1,7.38,7.38,0,0,1,4.12.89A3.63,3.63,0,0,1,591,27.6a16.44,16.44,0,0,1,.28,3l0,27.6a16.06,16.06,0,0,1-.28,3,3.49,3.49,0,0,1-1.52,2.28A7.84,7.84,0,0,1,585.27,64.31ZM571.35,52.39a7,7,0,0,0,3.8-1.08,7.75,7.75,0,0,0,2.73-2.92,8.5,8.5,0,0,0,1-4.08,8,8,0,0,0-3.84-7,7.19,7.19,0,0,0-3.84-1.08,7.59,7.59,0,0,0-4.12,1.11,8.59,8.59,0,0,0-2.88,3,8.06,8.06,0,0,0-1.08,4.16,7.64,7.64,0,0,0,1.07,4,8.1,8.1,0,0,0,3,2.88A8.42,8.42,0,0,0,571.35,52.39Z"/><path class="cls-2" d="M12,64.05a7.37,7.37,0,0,1-4.12-.88,3.75,3.75,0,0,1-1.56-2.28,13.73,13.73,0,0,1-.32-3L6,14.13a11.65,11.65,0,0,1,.32-2.84A3.68,3.68,0,0,1,8,9.09a7.7,7.7,0,0,1,4.24-.88,14.46,14.46,0,0,1,3,.24,3.42,3.42,0,0,1,1.52.68c.32.3.67.63,1,1l18,24.33h-1.2l18.1-24.31A5.15,5.15,0,0,1,54,9a4.22,4.22,0,0,1,1.64-.56,18.71,18.71,0,0,1,2.84-.16,7.5,7.5,0,0,1,4.16.88,3.77,3.77,0,0,1,1.6,2.28,13.26,13.26,0,0,1,.32,2.92l0,43.76A12.64,12.64,0,0,1,64.16,61a3.74,3.74,0,0,1-1.6,2.24,7.72,7.72,0,0,1-4.24.88,7.49,7.49,0,0,1-4.16-.89,3.67,3.67,0,0,1-1.6-2.32,13.16,13.16,0,0,1-.32-3l0-28.56L40.33,46.23l-.88,1.08a4.68,4.68,0,0,1-1.56,1.16,6.44,6.44,0,0,1-2.68.47,6.45,6.45,0,0,1-2.76-.48,4.68,4.68,0,0,1-1.56-1.12c-.38-.43-.7-.8-1-1.12L18.1,29.41l0,28.64a12.64,12.64,0,0,1-.32,2.88,3.77,3.77,0,0,1-1.56,2.24A7.5,7.5,0,0,1,12,64.05Z"/><path class="cls-2" d="M91.84,64.74a20,20,0,0,1-7.48-1.49,22.45,22.45,0,0,1-6.76-4.2,19.58,19.58,0,0,1-6.55-15,20.07,20.07,0,0,1,1.6-8,21.06,21.06,0,0,1,4.49-6.6,21.67,21.67,0,0,1,6.6-4.52,19.55,19.55,0,0,1,8-1.63,20.17,20.17,0,0,1,10.44,2.76,21,21,0,0,1,7.47,7.49A20.13,20.13,0,0,1,112.41,44a20,20,0,0,1-1.81,8.68,20.71,20.71,0,0,1-4.8,6.52,21.15,21.15,0,0,1-6.64,4.11A20.35,20.35,0,0,1,91.84,64.74Zm-.16-12.08a9,9,0,0,0,3.92-1A8.69,8.69,0,0,0,99,48.82a8.28,8.28,0,0,0,1.36-4.88,8.71,8.71,0,0,0-1.12-4.48,7.93,7.93,0,0,0-3.08-3,9.19,9.19,0,0,0-4.52-1.08,8.19,8.19,0,0,0-4.28,1.12A8.58,8.58,0,0,0,83.13,44a8.45,8.45,0,0,0,1.32,4.84,8,8,0,0,0,3.31,2.89A9.41,9.41,0,0,0,91.68,52.66Z"/><path class="cls-2" d="M121.46,24.76h8.8l11-.31a14.07,14.07,0,0,1,2.88.28,3.59,3.59,0,0,1,2.24,1.56,7.79,7.79,0,0,1,.88,4.24,7.53,7.53,0,0,1-.85,4,3.72,3.72,0,0,1-2.2,1.64,11.54,11.54,0,0,1-3,.36l-10.48-.25h-9.68a3.86,3.86,0,0,1-3.24-1.41,8,8,0,0,1-.91-4.44,6.78,6.78,0,0,1,1.12-4.28A4,4,0,0,1,121.46,24.76Zm18.06,39.37a24.27,24.27,0,0,1-7-.89,11.75,11.75,0,0,1-4.84-2.72,11.08,11.08,0,0,1-2.84-4.68,22.19,22.19,0,0,1-.92-6.76l0-32.48a13.89,13.89,0,0,1,.29-2.88,3.31,3.31,0,0,1,1.56-2.12,7.83,7.83,0,0,1,4.16-.84,7.61,7.61,0,0,1,4.16.88,3.59,3.59,0,0,1,1.56,2.24,15.29,15.29,0,0,1,.27,3l0,31.76a9.52,9.52,0,0,0,.2,2.12,2.66,2.66,0,0,0,.6,1.24,2.25,2.25,0,0,0,1.12.57,8.74,8.74,0,0,0,1.76.16,13.93,13.93,0,0,1,3.12.32,3.39,3.39,0,0,1,2.12,1.44,6.93,6.93,0,0,1,.76,3.76,7.59,7.59,0,0,1-.88,4.16,3.42,3.42,0,0,1-2.28,1.52A17.35,17.35,0,0,1,139.52,64.13Z"/><path class="cls-2" d="M159.43,64.14a7.76,7.76,0,0,1-4.19-.84A3.45,3.45,0,0,1,153.72,61a15.34,15.34,0,0,1-.28-3l0-27.92a12.61,12.61,0,0,1,.32-3A3.56,3.56,0,0,1,155.34,25a7.82,7.82,0,0,1,4.2-.84,8,8,0,0,1,4,.76,3.44,3.44,0,0,1,1.56,1.76,5.92,5.92,0,0,1,.32,1.72l-1,.48a7.41,7.41,0,0,1,.84-1.16,11.28,11.28,0,0,1,4.8-3.32,11.51,11.51,0,0,1,4-.63,17.84,17.84,0,0,1,2,.12,12,12,0,0,1,2.24.48,9.09,9.09,0,0,1,2.12,1A5.27,5.27,0,0,1,182,26.79a3.76,3.76,0,0,1,.6,2.16,9.82,9.82,0,0,1-1.53,5.56,4.49,4.49,0,0,1-3.84,2.28,5.35,5.35,0,0,1-1.92-.24,5.94,5.94,0,0,1-.92-.48,4.71,4.71,0,0,0-.84-.44,5,5,0,0,0-1.76-.2,8.1,8.1,0,0,0-2.28.31,6.59,6.59,0,0,0-2,1,5,5,0,0,0-1.44,1.68,4.67,4.67,0,0,0-.52,2.2v17.6a15.31,15.31,0,0,1-.28,2.92,3.27,3.27,0,0,1-1.56,2.2A8.45,8.45,0,0,1,159.43,64.14Z"/><path class="cls-2" d="M195.3,18.4a8,8,0,0,1-4.32-.88,3.6,3.6,0,0,1-1.56-2.32,15.7,15.7,0,0,1-.27-3,13.43,13.43,0,0,1,.32-3.08,3.51,3.51,0,0,1,1.6-2.24A8.22,8.22,0,0,1,195.39,6a7.79,7.79,0,0,1,4.24.88,3.6,3.6,0,0,1,1.56,2.32,15.7,15.7,0,0,1,.27,3,15.62,15.62,0,0,1-.28,3,3.41,3.41,0,0,1-1.56,2.28A8.22,8.22,0,0,1,195.3,18.4Zm0,45.76a7.82,7.82,0,0,1-4.2-.84,3.44,3.44,0,0,1-1.51-2.24,14.68,14.68,0,0,1-.28-2.92V30.24a14.35,14.35,0,0,1,.29-3,3.34,3.34,0,0,1,1.56-2.2,8,8,0,0,1,4.24-.84,7.39,7.39,0,0,1,4.12.88A3.64,3.64,0,0,1,201,27.36a15.69,15.69,0,0,1,.27,3V58.24a15.31,15.31,0,0,1-.28,2.92,3.29,3.29,0,0,1-1.53,2.2A8.13,8.13,0,0,1,195.27,64.16Z"/><path class="cls-2" d="M229.59,64.5a21,21,0,0,1-7.16-1.32,22.07,22.07,0,0,1-6.71-3.93,19.17,19.17,0,0,1-4.92-6.4A19.66,19.66,0,0,1,209,44.09a19.56,19.56,0,0,1,1.84-8.72,19.28,19.28,0,0,1,4.88-6.32,21.84,21.84,0,0,1,6.69-3.87,20.65,20.65,0,0,1,7.08-1.32,19.39,19.39,0,0,1,5.32.68,18,18,0,0,1,4,1.65,11.83,11.83,0,0,1,2.35,1.68,23.33,23.33,0,0,1,2.4,2.08,3.38,3.38,0,0,1,1,2.72,4.74,4.74,0,0,1-.56,1.8,14,14,0,0,1-1.2,1.88q-2.4,3.36-4.8,3a7.51,7.51,0,0,1-2.2-.81c-.67-.37-1.31-.76-1.92-1.16a10.63,10.63,0,0,0-2-1,6.78,6.78,0,0,0-2.4-.4,8.34,8.34,0,0,0-4.16,1,7.69,7.69,0,0,0-2.92,2.88,8.2,8.2,0,0,0-1.08,4.24,8.08,8.08,0,0,0,1.07,4.16,8.22,8.22,0,0,0,2.88,2.92,7.71,7.71,0,0,0,4,1.08,7.57,7.57,0,0,0,2.36-.32,7.42,7.42,0,0,0,1.72-.76l1.12-.68c.64-.42,1.25-.81,1.84-1.16a3.63,3.63,0,0,1,1.84-.51,4.06,4.06,0,0,1,2.32.84,13.13,13.13,0,0,1,2.64,2.68,6.88,6.88,0,0,1,1.48,3.12,3.8,3.8,0,0,1-.68,2.72,9.8,9.8,0,0,1-2.72,2.48,13.83,13.83,0,0,1-2.29,1.44,22.48,22.48,0,0,1-4,1.59A18.16,18.16,0,0,1,229.59,64.5Z"/><path class="cls-2" d="M258.26,18.44a8,8,0,0,1-4.32-.88,3.62,3.62,0,0,1-1.56-2.33,15.62,15.62,0,0,1-.28-3,13.47,13.47,0,0,1,.33-3.08A3.49,3.49,0,0,1,254,6.88,8.22,8.22,0,0,1,258.35,6a7.72,7.72,0,0,1,4.24.88,3.6,3.6,0,0,1,1.56,2.32,16.53,16.53,0,0,1,.27,3,15.62,15.62,0,0,1-.28,3,3.45,3.45,0,0,1-1.56,2.28A8.22,8.22,0,0,1,258.26,18.44Zm0,45.76a7.71,7.71,0,0,1-4.2-.85,3.46,3.46,0,0,1-1.52-2.24,15.32,15.32,0,0,1-.27-2.92V30.27a15.26,15.26,0,0,1,.28-3,3.37,3.37,0,0,1,1.57-2.19,8,8,0,0,1,4.24-.84,7.3,7.3,0,0,1,4.12.88A3.56,3.56,0,0,1,264,27.4a14.91,14.91,0,0,1,.28,3V58.28A14.6,14.6,0,0,1,264,61.2a3.27,3.27,0,0,1-1.52,2.2A8.13,8.13,0,0,1,258.23,64.2Z"/><path class="cls-2" d="M289.91,64.14A16.09,16.09,0,0,1,283,62.57a18.55,18.55,0,0,1-5.87-4.36,21.32,21.32,0,0,1-4-6.44,20.25,20.25,0,0,1-1.48-7.72,19.39,19.39,0,0,1,1.49-7.48,20.8,20.8,0,0,1,4.08-6.32,20.45,20.45,0,0,1,5.88-4.36,15.5,15.5,0,0,1,6.89-1.59,14.07,14.07,0,0,1,6.75,1.56,14.53,14.53,0,0,1,4.92,4.28,19.41,19.41,0,0,1,3,6.33A30.4,30.4,0,0,1,305.68,44a26.61,26.61,0,0,1-.92,7.68,20.14,20.14,0,0,1-3,6.39,14.91,14.91,0,0,1-4.92,4.44A13.94,13.94,0,0,1,289.91,64.14Zm1.61-11.84a7.15,7.15,0,0,0,3.88-1.08,8.35,8.35,0,0,0,2.8-2.92,7.88,7.88,0,0,0,1.08-4.08,8.13,8.13,0,0,0-1-4.12,8,8,0,0,0-10.76-2.85,7.35,7.35,0,0,0-2.8,2.84,8.33,8.33,0,0,0-1,4.12,8.15,8.15,0,0,0,1,4.08,7.79,7.79,0,0,0,2.88,2.93A7.62,7.62,0,0,0,291.52,52.3Zm14,11.93a7.58,7.58,0,0,1-4.08-.89,4.12,4.12,0,0,1-1.76-2.72l0-48.48a21.25,21.25,0,0,1,.2-2.92,3.34,3.34,0,0,1,1.41-2.28,7.27,7.27,0,0,1,4.16-.87,7.82,7.82,0,0,1,4.2.84,3.41,3.41,0,0,1,1.51,2.2,14.45,14.45,0,0,1,.28,3l0,46.08a14.61,14.61,0,0,1-.28,2.92,3.57,3.57,0,0,1-1.52,2.28A7.39,7.39,0,0,1,305.51,64.23Z"/><path class="cls-2" d="M352.23,64.17a7.37,7.37,0,0,1-4.36-1,3.1,3.1,0,0,1-1.4-2.56l.8-1.36a8.88,8.88,0,0,1-1.84,2,13.11,13.11,0,0,1-8.88,3,15.88,15.88,0,0,1-7-1.6,19.11,19.11,0,0,1-5.88-4.44,22.05,22.05,0,0,1-4-6.45,19.72,19.72,0,0,1-1.48-7.6,19.28,19.28,0,0,1,1.49-7.48,20.68,20.68,0,0,1,4.08-6.31,20.18,20.18,0,0,1,5.88-4.36,15.78,15.78,0,0,1,7-1.6,13.23,13.23,0,0,1,8.52,2.81,10.91,10.91,0,0,1,2.12,2.16l-.64-1.12a3.2,3.2,0,0,1,1.32-2.92,7.83,7.83,0,0,1,4.44-1,7.36,7.36,0,0,1,4.12.89A3.55,3.55,0,0,1,358,27.46a15.62,15.62,0,0,1,.28,3l0,27.6a15.24,15.24,0,0,1-.28,3,3.46,3.46,0,0,1-1.52,2.28A7.74,7.74,0,0,1,352.23,64.17ZM338.32,52.25a7,7,0,0,0,3.8-1.08,7.81,7.81,0,0,0,2.72-2.92,8.39,8.39,0,0,0,1-4.08,8,8,0,0,0-3.83-7,7.24,7.24,0,0,0-3.84-1.08,7.59,7.59,0,0,0-4.12,1.11,8.71,8.71,0,0,0-2.89,3,8.06,8.06,0,0,0-1.08,4.16,7.55,7.55,0,0,0,1.08,4,8.1,8.1,0,0,0,3,2.88A8.27,8.27,0,0,0,338.32,52.25Z"/><path class="cls-2" d="M383.35,64.19a16.08,16.08,0,0,1-6.92-1.56,18.85,18.85,0,0,1-5.88-4.36,21.42,21.42,0,0,1-4-6.45A20.21,20.21,0,0,1,365,44.1a19.28,19.28,0,0,1,1.49-7.48,20.73,20.73,0,0,1,4.08-6.32A20.14,20.14,0,0,1,376.49,26a15.47,15.47,0,0,1,6.88-1.6,14.12,14.12,0,0,1,6.76,1.57,14.53,14.53,0,0,1,4.92,4.28,19.36,19.36,0,0,1,3,6.32A30.47,30.47,0,0,1,399.12,44a27,27,0,0,1-.92,7.68,20.19,20.19,0,0,1-3,6.4,14.91,14.91,0,0,1-4.92,4.44A13.94,13.94,0,0,1,383.35,64.19ZM385,52.35a7.14,7.14,0,0,0,3.88-1.07,8.52,8.52,0,0,0,2.8-2.92,7.93,7.93,0,0,0,1.08-4.08,8,8,0,0,0-1-4.12,7.64,7.64,0,0,0-6.79-3.89,7.81,7.81,0,0,0-4,1,7.3,7.3,0,0,0-2.81,2.84,8.4,8.4,0,0,0-1,4.12,8.2,8.2,0,0,0,1,4.08A7.69,7.69,0,0,0,381,51.27,7.59,7.59,0,0,0,385,52.35Zm14,11.93a7.59,7.59,0,0,1-4.08-.88,4.11,4.11,0,0,1-1.76-2.72l0-48.48a21.14,21.14,0,0,1,.2-2.92A3.36,3.36,0,0,1,394.74,7a7.28,7.28,0,0,1,4.16-.88,7.77,7.77,0,0,1,4.2.84,3.4,3.4,0,0,1,1.52,2.21,14.38,14.38,0,0,1,.28,3l0,46.08a14.68,14.68,0,0,1-.28,2.92,3.56,3.56,0,0,1-1.52,2.27A7.3,7.3,0,0,1,399,64.28Z"/><path class="cls-2" d="M440.71,64.31a7.81,7.81,0,0,1-4.16-.85A3.45,3.45,0,0,1,435,61.18a15.16,15.16,0,0,1-.28-3l0-43.76q0-3.51,1.36-4.8c.91-.85,2.53-1.27,4.88-1.27l30.24,0a14.45,14.45,0,0,1,3,.28,3.41,3.41,0,0,1,2.2,1.56,8.22,8.22,0,0,1,.84,4.32,7.59,7.59,0,0,1-.88,4.16,3.58,3.58,0,0,1-2.29,1.56,15.76,15.76,0,0,1-3,.28l-24.16,0V30.87h16.4a15.13,15.13,0,0,1,2.84.24,3,3,0,0,1,2,1.36,7.2,7.2,0,0,1,.71,3.76,6.84,6.84,0,0,1-.72,3.64,2.94,2.94,0,0,1-2,1.32,15.57,15.57,0,0,1-2.92.24H446.88V58.31a13.26,13.26,0,0,1-.32,2.92A3.62,3.62,0,0,1,445,63.47,8,8,0,0,1,440.71,64.31Z"/><path class="cls-2" d="M491.46,18.58a7.93,7.93,0,0,1-4.33-.89,3.52,3.52,0,0,1-1.55-2.32,15.62,15.62,0,0,1-.28-3,14.07,14.07,0,0,1,.32-3.08A3.57,3.57,0,0,1,487.22,7a8.34,8.34,0,0,1,4.32-.83,7.7,7.7,0,0,1,4.24.88,3.6,3.6,0,0,1,1.56,2.32,15.62,15.62,0,0,1,.28,3,16.44,16.44,0,0,1-.28,3,3.45,3.45,0,0,1-1.56,2.28A8.27,8.27,0,0,1,491.46,18.58Zm0,45.76a7.67,7.67,0,0,1-4.2-.85,3.39,3.39,0,0,1-1.52-2.24,14.54,14.54,0,0,1-.28-2.92l0-27.92a14.52,14.52,0,0,1,.28-3,3.43,3.43,0,0,1,1.56-2.2,8.15,8.15,0,0,1,4.24-.83,7.3,7.3,0,0,1,4.12.88,3.57,3.57,0,0,1,1.52,2.24,14.91,14.91,0,0,1,.28,3l0,27.84a14.54,14.54,0,0,1-.28,2.92,3.34,3.34,0,0,1-1.52,2.2A8.18,8.18,0,0,1,491.43,64.34Z"/><path class="cls-2" d="M512,64.27a7.77,7.77,0,0,1-4.2-.84,3.42,3.42,0,0,1-1.52-2.24,14.68,14.68,0,0,1-.28-2.92l0-28.16a11.65,11.65,0,0,1,.32-2.84,3.4,3.4,0,0,1,1.56-2.12,8.18,8.18,0,0,1,4.2-.8,8,8,0,0,1,3.76.68,3.3,3.3,0,0,1,1.56,1.64,5.14,5.14,0,0,1,.36,1.8,2.82,2.82,0,0,0,.16,1.16l-.48,1.52a4.7,4.7,0,0,1,1.24-2.44,11.56,11.56,0,0,1,2.72-2.23,14.64,14.64,0,0,1,3.52-1.56,13.06,13.06,0,0,1,3.72-.56,16,16,0,0,1,6.84,1.4,14,14,0,0,1,5.08,4,18.79,18.79,0,0,1,3.15,6.2,26.74,26.74,0,0,1,1.08,7.8V58.37a14.61,14.61,0,0,1-.28,2.92,3.34,3.34,0,0,1-1.52,2.2,8.18,8.18,0,0,1-4.2.8,8.06,8.06,0,0,1-4.28-.85A3.56,3.56,0,0,1,533,61.2a13.2,13.2,0,0,1-.32-2.92V43.8a9.48,9.48,0,0,0-.8-4.08,5.76,5.76,0,0,0-2.4-2.6,7.76,7.76,0,0,0-3.92-.92,8,8,0,0,0-4,1,6.58,6.58,0,0,0-2.6,2.63,8.26,8.26,0,0,0-.92,4V58.35a15.31,15.31,0,0,1-.28,2.92,3.31,3.31,0,0,1-1.52,2.2A8.18,8.18,0,0,1,512,64.27Z"/><path class="cls-2" d="M585.27,64.31a7.35,7.35,0,0,1-4.36-1,3.08,3.08,0,0,1-1.4-2.56l.8-1.36a9.13,9.13,0,0,1-1.84,2,13.11,13.11,0,0,1-8.88,3,15.85,15.85,0,0,1-7-1.6,18.88,18.88,0,0,1-5.88-4.44,22.22,22.22,0,0,1-4-6.45,19.9,19.9,0,0,1-1.47-7.6,19.27,19.27,0,0,1,1.48-7.48,20.71,20.71,0,0,1,4.09-6.31,20.18,20.18,0,0,1,5.88-4.36,15.75,15.75,0,0,1,7-1.6,13.69,13.69,0,0,1,5,.85,14,14,0,0,1,3.48,2,10.91,10.91,0,0,1,2.12,2.16l-.64-1.12a3.18,3.18,0,0,1,1.32-2.92,7.79,7.79,0,0,1,4.44-1,7.38,7.38,0,0,1,4.12.89A3.63,3.63,0,0,1,591,27.6a16.44,16.44,0,0,1,.28,3l0,27.6a16.06,16.06,0,0,1-.28,3,3.49,3.49,0,0,1-1.52,2.28A7.84,7.84,0,0,1,585.27,64.31ZM571.35,52.39a7,7,0,0,0,3.8-1.08,7.75,7.75,0,0,0,2.73-2.92,8.5,8.5,0,0,0,1-4.08,8,8,0,0,0-3.84-7,7.19,7.19,0,0,0-3.84-1.08,7.59,7.59,0,0,0-4.12,1.11,8.59,8.59,0,0,0-2.88,3,8.06,8.06,0,0,0-1.08,4.16,7.64,7.64,0,0,0,1.07,4,8.1,8.1,0,0,0,3,2.88A8.42,8.42,0,0,0,571.35,52.39Z"/><path class="cls-1" d="M12,64.05a7.37,7.37,0,0,1-4.12-.88,3.75,3.75,0,0,1-1.56-2.28,13.73,13.73,0,0,1-.32-3L6,14.13a11.65,11.65,0,0,1,.32-2.84A3.68,3.68,0,0,1,8,9.09a7.7,7.7,0,0,1,4.24-.88,14.46,14.46,0,0,1,3,.24,3.42,3.42,0,0,1,1.52.68c.32.3.67.63,1,1l18,24.33h-1.2l18.1-24.31A5.15,5.15,0,0,1,54,9a4.22,4.22,0,0,1,1.64-.56,18.71,18.71,0,0,1,2.84-.16,7.5,7.5,0,0,1,4.16.88,3.77,3.77,0,0,1,1.6,2.28,13.26,13.26,0,0,1,.32,2.92l0,43.76A12.64,12.64,0,0,1,64.16,61a3.74,3.74,0,0,1-1.6,2.24,7.72,7.72,0,0,1-4.24.88,7.49,7.49,0,0,1-4.16-.89,3.67,3.67,0,0,1-1.6-2.32,13.16,13.16,0,0,1-.32-3l0-28.56L40.33,46.23l-.88,1.08a4.68,4.68,0,0,1-1.56,1.16,6.44,6.44,0,0,1-2.68.47,6.45,6.45,0,0,1-2.76-.48,4.68,4.68,0,0,1-1.56-1.12c-.38-.43-.7-.8-1-1.12L18.1,29.41l0,28.64a12.64,12.64,0,0,1-.32,2.88,3.77,3.77,0,0,1-1.56,2.24A7.5,7.5,0,0,1,12,64.05Z"/><path class="cls-1" d="M91.84,64.74a20,20,0,0,1-7.48-1.49,22.45,22.45,0,0,1-6.76-4.2,19.58,19.58,0,0,1-6.55-15,20.07,20.07,0,0,1,1.6-8,21.06,21.06,0,0,1,4.49-6.6,21.67,21.67,0,0,1,6.6-4.52,19.55,19.55,0,0,1,8-1.63,20.17,20.17,0,0,1,10.44,2.76,21,21,0,0,1,7.47,7.49A20.13,20.13,0,0,1,112.41,44a20,20,0,0,1-1.81,8.68,20.71,20.71,0,0,1-4.8,6.52,21.15,21.15,0,0,1-6.64,4.11A20.35,20.35,0,0,1,91.84,64.74Zm-.16-12.08a9,9,0,0,0,3.92-1A8.69,8.69,0,0,0,99,48.82a8.28,8.28,0,0,0,1.36-4.88,8.71,8.71,0,0,0-1.12-4.48,7.93,7.93,0,0,0-3.08-3,9.19,9.19,0,0,0-4.52-1.08,8.19,8.19,0,0,0-4.28,1.12A8.58,8.58,0,0,0,83.13,44a8.45,8.45,0,0,0,1.32,4.84,8,8,0,0,0,3.31,2.89A9.41,9.41,0,0,0,91.68,52.66Z"/><path class="cls-1" d="M121.46,24.76h8.8l11-.31a14.07,14.07,0,0,1,2.88.28,3.59,3.59,0,0,1,2.24,1.56,7.79,7.79,0,0,1,.88,4.24,7.53,7.53,0,0,1-.85,4,3.72,3.72,0,0,1-2.2,1.64,11.54,11.54,0,0,1-3,.36l-10.48-.25h-9.68a3.86,3.86,0,0,1-3.24-1.41,8,8,0,0,1-.91-4.44,6.78,6.78,0,0,1,1.12-4.28A4,4,0,0,1,121.46,24.76Zm18.06,39.37a24.27,24.27,0,0,1-7-.89,11.75,11.75,0,0,1-4.84-2.72,11.08,11.08,0,0,1-2.84-4.68,22.19,22.19,0,0,1-.92-6.76l0-32.48a13.89,13.89,0,0,1,.29-2.88,3.31,3.31,0,0,1,1.56-2.12,7.83,7.83,0,0,1,4.16-.84,7.61,7.61,0,0,1,4.16.88,3.59,3.59,0,0,1,1.56,2.24,15.29,15.29,0,0,1,.27,3l0,31.76a9.52,9.52,0,0,0,.2,2.12,2.66,2.66,0,0,0,.6,1.24,2.25,2.25,0,0,0,1.12.57,8.74,8.74,0,0,0,1.76.16,13.93,13.93,0,0,1,3.12.32,3.39,3.39,0,0,1,2.12,1.44,6.93,6.93,0,0,1,.76,3.76,7.59,7.59,0,0,1-.88,4.16,3.42,3.42,0,0,1-2.28,1.52A17.35,17.35,0,0,1,139.52,64.13Z"/><path class="cls-1" d="M159.43,64.14a7.76,7.76,0,0,1-4.19-.84A3.45,3.45,0,0,1,153.72,61a15.34,15.34,0,0,1-.28-3l0-27.92a12.61,12.61,0,0,1,.32-3A3.56,3.56,0,0,1,155.34,25a7.82,7.82,0,0,1,4.2-.84,8,8,0,0,1,4,.76,3.44,3.44,0,0,1,1.56,1.76,5.92,5.92,0,0,1,.32,1.72l-1,.48a7.41,7.41,0,0,1,.84-1.16,11.28,11.28,0,0,1,4.8-3.32,11.51,11.51,0,0,1,4-.63,17.84,17.84,0,0,1,2,.12,12,12,0,0,1,2.24.48,9.09,9.09,0,0,1,2.12,1A5.27,5.27,0,0,1,182,26.79a3.76,3.76,0,0,1,.6,2.16,9.82,9.82,0,0,1-1.53,5.56,4.49,4.49,0,0,1-3.84,2.28,5.35,5.35,0,0,1-1.92-.24,5.94,5.94,0,0,1-.92-.48,4.71,4.71,0,0,0-.84-.44,5,5,0,0,0-1.76-.2,8.1,8.1,0,0,0-2.28.31,6.59,6.59,0,0,0-2,1,5,5,0,0,0-1.44,1.68,4.67,4.67,0,0,0-.52,2.2v17.6a15.31,15.31,0,0,1-.28,2.92,3.27,3.27,0,0,1-1.56,2.2A8.45,8.45,0,0,1,159.43,64.14Z"/><path class="cls-1" d="M195.3,18.4a8,8,0,0,1-4.32-.88,3.6,3.6,0,0,1-1.56-2.32,15.7,15.7,0,0,1-.27-3,13.43,13.43,0,0,1,.32-3.08,3.51,3.51,0,0,1,1.6-2.24A8.22,8.22,0,0,1,195.39,6a7.79,7.79,0,0,1,4.24.88,3.6,3.6,0,0,1,1.56,2.32,15.7,15.7,0,0,1,.27,3,15.62,15.62,0,0,1-.28,3,3.41,3.41,0,0,1-1.56,2.28A8.22,8.22,0,0,1,195.3,18.4Zm0,45.76a7.82,7.82,0,0,1-4.2-.84,3.44,3.44,0,0,1-1.51-2.24,14.68,14.68,0,0,1-.28-2.92V30.24a14.35,14.35,0,0,1,.29-3,3.34,3.34,0,0,1,1.56-2.2,8,8,0,0,1,4.24-.84,7.39,7.39,0,0,1,4.12.88A3.64,3.64,0,0,1,201,27.36a15.69,15.69,0,0,1,.27,3V58.24a15.31,15.31,0,0,1-.28,2.92,3.29,3.29,0,0,1-1.53,2.2A8.13,8.13,0,0,1,195.27,64.16Z"/><path class="cls-1" d="M229.59,64.5a21,21,0,0,1-7.16-1.32,22.07,22.07,0,0,1-6.71-3.93,19.17,19.17,0,0,1-4.92-6.4A19.66,19.66,0,0,1,209,44.09a19.56,19.56,0,0,1,1.84-8.72,19.28,19.28,0,0,1,4.88-6.32,21.84,21.84,0,0,1,6.69-3.87,20.65,20.65,0,0,1,7.08-1.32,19.39,19.39,0,0,1,5.32.68,18,18,0,0,1,4,1.65,11.83,11.83,0,0,1,2.35,1.68,23.33,23.33,0,0,1,2.4,2.08,3.38,3.38,0,0,1,1,2.72,4.74,4.74,0,0,1-.56,1.8,14,14,0,0,1-1.2,1.88q-2.4,3.36-4.8,3a7.51,7.51,0,0,1-2.2-.81c-.67-.37-1.31-.76-1.92-1.16a10.63,10.63,0,0,0-2-1,6.78,6.78,0,0,0-2.4-.4,8.34,8.34,0,0,0-4.16,1,7.69,7.69,0,0,0-2.92,2.88,8.2,8.2,0,0,0-1.08,4.24,8.08,8.08,0,0,0,1.07,4.16,8.22,8.22,0,0,0,2.88,2.92,7.71,7.71,0,0,0,4,1.08,7.57,7.57,0,0,0,2.36-.32,7.42,7.42,0,0,0,1.72-.76l1.12-.68c.64-.42,1.25-.81,1.84-1.16a3.63,3.63,0,0,1,1.84-.51,4.06,4.06,0,0,1,2.32.84,13.13,13.13,0,0,1,2.64,2.68,6.88,6.88,0,0,1,1.48,3.12,3.8,3.8,0,0,1-.68,2.72,9.8,9.8,0,0,1-2.72,2.48,13.83,13.83,0,0,1-2.29,1.44,22.48,22.48,0,0,1-4,1.59A18.16,18.16,0,0,1,229.59,64.5Z"/><path class="cls-1" d="M258.26,18.44a8,8,0,0,1-4.32-.88,3.62,3.62,0,0,1-1.56-2.33,15.62,15.62,0,0,1-.28-3,13.47,13.47,0,0,1,.33-3.08A3.49,3.49,0,0,1,254,6.88,8.22,8.22,0,0,1,258.35,6a7.72,7.72,0,0,1,4.24.88,3.6,3.6,0,0,1,1.56,2.32,16.53,16.53,0,0,1,.27,3,15.62,15.62,0,0,1-.28,3,3.45,3.45,0,0,1-1.56,2.28A8.22,8.22,0,0,1,258.26,18.44Zm0,45.76a7.71,7.71,0,0,1-4.2-.85,3.46,3.46,0,0,1-1.52-2.24,15.32,15.32,0,0,1-.27-2.92V30.27a15.26,15.26,0,0,1,.28-3,3.37,3.37,0,0,1,1.57-2.19,8,8,0,0,1,4.24-.84,7.3,7.3,0,0,1,4.12.88A3.56,3.56,0,0,1,264,27.4a14.91,14.91,0,0,1,.28,3V58.28A14.6,14.6,0,0,1,264,61.2a3.27,3.27,0,0,1-1.52,2.2A8.13,8.13,0,0,1,258.23,64.2Z"/><path class="cls-1" d="M289.91,64.14A16.09,16.09,0,0,1,283,62.57a18.55,18.55,0,0,1-5.87-4.36,21.32,21.32,0,0,1-4-6.44,20.25,20.25,0,0,1-1.48-7.72,19.39,19.39,0,0,1,1.49-7.48,20.8,20.8,0,0,1,4.08-6.32,20.45,20.45,0,0,1,5.88-4.36,15.5,15.5,0,0,1,6.89-1.59,14.07,14.07,0,0,1,6.75,1.56,14.53,14.53,0,0,1,4.92,4.28,19.41,19.41,0,0,1,3,6.33A30.4,30.4,0,0,1,305.68,44a26.61,26.61,0,0,1-.92,7.68,20.14,20.14,0,0,1-3,6.39,14.91,14.91,0,0,1-4.92,4.44A13.94,13.94,0,0,1,289.91,64.14Zm1.61-11.84a7.15,7.15,0,0,0,3.88-1.08,8.35,8.35,0,0,0,2.8-2.92,7.88,7.88,0,0,0,1.08-4.08,8.13,8.13,0,0,0-1-4.12,8,8,0,0,0-10.76-2.85,7.35,7.35,0,0,0-2.8,2.84,8.33,8.33,0,0,0-1,4.12,8.15,8.15,0,0,0,1,4.08,7.79,7.79,0,0,0,2.88,2.93A7.62,7.62,0,0,0,291.52,52.3Zm14,11.93a7.58,7.58,0,0,1-4.08-.89,4.12,4.12,0,0,1-1.76-2.72l0-48.48a21.25,21.25,0,0,1,.2-2.92,3.34,3.34,0,0,1,1.41-2.28,7.27,7.27,0,0,1,4.16-.87,7.82,7.82,0,0,1,4.2.84,3.41,3.41,0,0,1,1.51,2.2,14.45,14.45,0,0,1,.28,3l0,46.08a14.61,14.61,0,0,1-.28,2.92,3.57,3.57,0,0,1-1.52,2.28A7.39,7.39,0,0,1,305.51,64.23Z"/><path class="cls-1" d="M352.23,64.17a7.37,7.37,0,0,1-4.36-1,3.1,3.1,0,0,1-1.4-2.56l.8-1.36a8.88,8.88,0,0,1-1.84,2,13.11,13.11,0,0,1-8.88,3,15.88,15.88,0,0,1-7-1.6,19.11,19.11,0,0,1-5.88-4.44,22.05,22.05,0,0,1-4-6.45,19.72,19.72,0,0,1-1.48-7.6,19.28,19.28,0,0,1,1.49-7.48,20.68,20.68,0,0,1,4.08-6.31,20.18,20.18,0,0,1,5.88-4.36,15.78,15.78,0,0,1,7-1.6,13.23,13.23,0,0,1,8.52,2.81,10.91,10.91,0,0,1,2.12,2.16l-.64-1.12a3.2,3.2,0,0,1,1.32-2.92,7.83,7.83,0,0,1,4.44-1,7.36,7.36,0,0,1,4.12.89A3.55,3.55,0,0,1,358,27.46a15.62,15.62,0,0,1,.28,3l0,27.6a15.24,15.24,0,0,1-.28,3,3.46,3.46,0,0,1-1.52,2.28A7.74,7.74,0,0,1,352.23,64.17ZM338.32,52.25a7,7,0,0,0,3.8-1.08,7.81,7.81,0,0,0,2.72-2.92,8.39,8.39,0,0,0,1-4.08,8,8,0,0,0-3.83-7,7.24,7.24,0,0,0-3.84-1.08,7.59,7.59,0,0,0-4.12,1.11,8.71,8.71,0,0,0-2.89,3,8.06,8.06,0,0,0-1.08,4.16,7.55,7.55,0,0,0,1.08,4,8.1,8.1,0,0,0,3,2.88A8.27,8.27,0,0,0,338.32,52.25Z"/><path class="cls-1" d="M383.35,64.19a16.08,16.08,0,0,1-6.92-1.56,18.85,18.85,0,0,1-5.88-4.36,21.42,21.42,0,0,1-4-6.45A20.21,20.21,0,0,1,365,44.1a19.28,19.28,0,0,1,1.49-7.48,20.73,20.73,0,0,1,4.08-6.32A20.14,20.14,0,0,1,376.49,26a15.47,15.47,0,0,1,6.88-1.6,14.12,14.12,0,0,1,6.76,1.57,14.53,14.53,0,0,1,4.92,4.28,19.36,19.36,0,0,1,3,6.32A30.47,30.47,0,0,1,399.12,44a27,27,0,0,1-.92,7.68,20.19,20.19,0,0,1-3,6.4,14.91,14.91,0,0,1-4.92,4.44A13.94,13.94,0,0,1,383.35,64.19ZM385,52.35a7.14,7.14,0,0,0,3.88-1.07,8.52,8.52,0,0,0,2.8-2.92,7.93,7.93,0,0,0,1.08-4.08,8,8,0,0,0-1-4.12,7.64,7.64,0,0,0-6.79-3.89,7.81,7.81,0,0,0-4,1,7.3,7.3,0,0,0-2.81,2.84,8.4,8.4,0,0,0-1,4.12,8.2,8.2,0,0,0,1,4.08A7.69,7.69,0,0,0,381,51.27,7.59,7.59,0,0,0,385,52.35Zm14,11.93a7.59,7.59,0,0,1-4.08-.88,4.11,4.11,0,0,1-1.76-2.72l0-48.48a21.14,21.14,0,0,1,.2-2.92A3.36,3.36,0,0,1,394.74,7a7.28,7.28,0,0,1,4.16-.88,7.77,7.77,0,0,1,4.2.84,3.4,3.4,0,0,1,1.52,2.21,14.38,14.38,0,0,1,.28,3l0,46.08a14.68,14.68,0,0,1-.28,2.92,3.56,3.56,0,0,1-1.52,2.27A7.3,7.3,0,0,1,399,64.28Z"/><path class="cls-1" d="M440.71,64.31a7.81,7.81,0,0,1-4.16-.85A3.45,3.45,0,0,1,435,61.18a15.16,15.16,0,0,1-.28-3l0-43.76q0-3.51,1.36-4.8c.91-.85,2.53-1.27,4.88-1.27l30.24,0a14.45,14.45,0,0,1,3,.28,3.41,3.41,0,0,1,2.2,1.56,8.22,8.22,0,0,1,.84,4.32,7.59,7.59,0,0,1-.88,4.16,3.58,3.58,0,0,1-2.29,1.56,15.76,15.76,0,0,1-3,.28l-24.16,0V30.87h16.4a15.13,15.13,0,0,1,2.84.24,3,3,0,0,1,2,1.36,7.2,7.2,0,0,1,.71,3.76,6.84,6.84,0,0,1-.72,3.64,2.94,2.94,0,0,1-2,1.32,15.57,15.57,0,0,1-2.92.24H446.88V58.31a13.26,13.26,0,0,1-.32,2.92A3.62,3.62,0,0,1,445,63.47,8,8,0,0,1,440.71,64.31Z"/><path class="cls-1" d="M491.46,18.58a7.93,7.93,0,0,1-4.33-.89,3.52,3.52,0,0,1-1.55-2.32,15.62,15.62,0,0,1-.28-3,14.07,14.07,0,0,1,.32-3.08A3.57,3.57,0,0,1,487.22,7a8.34,8.34,0,0,1,4.32-.83,7.7,7.7,0,0,1,4.24.88,3.6,3.6,0,0,1,1.56,2.32,15.62,15.62,0,0,1,.28,3,16.44,16.44,0,0,1-.28,3,3.45,3.45,0,0,1-1.56,2.28A8.27,8.27,0,0,1,491.46,18.58Zm0,45.76a7.67,7.67,0,0,1-4.2-.85,3.39,3.39,0,0,1-1.52-2.24,14.54,14.54,0,0,1-.28-2.92l0-27.92a14.52,14.52,0,0,1,.28-3,3.43,3.43,0,0,1,1.56-2.2,8.15,8.15,0,0,1,4.24-.83,7.3,7.3,0,0,1,4.12.88,3.57,3.57,0,0,1,1.52,2.24,14.91,14.91,0,0,1,.28,3l0,27.84a14.54,14.54,0,0,1-.28,2.92,3.34,3.34,0,0,1-1.52,2.2A8.18,8.18,0,0,1,491.43,64.34Z"/><path class="cls-1" d="M512,64.27a7.77,7.77,0,0,1-4.2-.84,3.42,3.42,0,0,1-1.52-2.24,14.68,14.68,0,0,1-.28-2.92l0-28.16a11.65,11.65,0,0,1,.32-2.84,3.4,3.4,0,0,1,1.56-2.12,8.18,8.18,0,0,1,4.2-.8,8,8,0,0,1,3.76.68,3.3,3.3,0,0,1,1.56,1.64,5.14,5.14,0,0,1,.36,1.8,2.82,2.82,0,0,0,.16,1.16l-.48,1.52a4.7,4.7,0,0,1,1.24-2.44,11.56,11.56,0,0,1,2.72-2.23,14.64,14.64,0,0,1,3.52-1.56,13.06,13.06,0,0,1,3.72-.56,16,16,0,0,1,6.84,1.4,14,14,0,0,1,5.08,4,18.79,18.79,0,0,1,3.15,6.2,26.74,26.74,0,0,1,1.08,7.8V58.37a14.61,14.61,0,0,1-.28,2.92,3.34,3.34,0,0,1-1.52,2.2,8.18,8.18,0,0,1-4.2.8,8.06,8.06,0,0,1-4.28-.85A3.56,3.56,0,0,1,533,61.2a13.2,13.2,0,0,1-.32-2.92V43.8a9.48,9.48,0,0,0-.8-4.08,5.76,5.76,0,0,0-2.4-2.6,7.76,7.76,0,0,0-3.92-.92,8,8,0,0,0-4,1,6.58,6.58,0,0,0-2.6,2.63,8.26,8.26,0,0,0-.92,4V58.35a15.31,15.31,0,0,1-.28,2.92,3.31,3.31,0,0,1-1.52,2.2A8.18,8.18,0,0,1,512,64.27Z"/><path class="cls-1" d="M585.27,64.31a7.35,7.35,0,0,1-4.36-1,3.08,3.08,0,0,1-1.4-2.56l.8-1.36a9.13,9.13,0,0,1-1.84,2,13.11,13.11,0,0,1-8.88,3,15.85,15.85,0,0,1-7-1.6,18.88,18.88,0,0,1-5.88-4.44,22.22,22.22,0,0,1-4-6.45,19.9,19.9,0,0,1-1.47-7.6,19.27,19.27,0,0,1,1.48-7.48,20.71,20.71,0,0,1,4.09-6.31,20.18,20.18,0,0,1,5.88-4.36,15.75,15.75,0,0,1,7-1.6,13.69,13.69,0,0,1,5,.85,14,14,0,0,1,3.48,2,10.91,10.91,0,0,1,2.12,2.16l-.64-1.12a3.18,3.18,0,0,1,1.32-2.92,7.79,7.79,0,0,1,4.44-1,7.38,7.38,0,0,1,4.12.89A3.63,3.63,0,0,1,591,27.6a16.44,16.44,0,0,1,.28,3l0,27.6a16.06,16.06,0,0,1-.28,3,3.49,3.49,0,0,1-1.52,2.28A7.84,7.84,0,0,1,585.27,64.31ZM571.35,52.39a7,7,0,0,0,3.8-1.08,7.75,7.75,0,0,0,2.73-2.92,8.5,8.5,0,0,0,1-4.08,8,8,0,0,0-3.84-7,7.19,7.19,0,0,0-3.84-1.08,7.59,7.59,0,0,0-4.12,1.11,8.59,8.59,0,0,0-2.88,3,8.06,8.06,0,0,0-1.08,4.16,7.64,7.64,0,0,0,1.07,4,8.1,8.1,0,0,0,3,2.88A8.42,8.42,0,0,0,571.35,52.39Z"/></g></g></svg>