<svg xmlns="http://www.w3.org/2000/svg" viewBox="0 0 474.38 71.05"><defs><style>.cls-1{fill:#fff;}.cls-2{fill:none;stroke:#a41010;stroke-linejoin:round;stroke-width:12px;}</style></defs><title>tc</title><g id="Layer_2" data-name="Layer 2"><g id="Portadilla_3_GUIA_1" data-name="Portadilla 3 GUIA 1"><path class="cls-1" d="M33.82,64.88a26.6,26.6,0,0,1-11-2.25A27.28,27.28,0,0,1,14,56.39,28.84,28.84,0,0,1,8.11,47,31.31,31.31,0,0,1,6,35.42,27.42,27.42,0,0,1,23.21,9.63,30.72,30.72,0,0,1,34.5,7.44a32.11,32.11,0,0,1,5.32.48,34.71,34.71,0,0,1,5.56,1.45,20.27,20.27,0,0,1,4.71,2.32,19.91,19.91,0,0,1,2.84,2.2,3.66,3.66,0,0,1,1.24,2.76,3.83,3.83,0,0,1-.32,1.8,10.37,10.37,0,0,1-1.12,2,9.74,9.74,0,0,1-2.52,2.64,4.53,4.53,0,0,1-2.44.8,3.7,3.7,0,0,1-1.52-.4,21.62,21.62,0,0,1-2.4-1.36,11.2,11.2,0,0,0-2.24-1,27.71,27.71,0,0,0-3.48-1,18.59,18.59,0,0,0-4-.44,16.26,16.26,0,0,0-8.16,2,14.6,14.6,0,0,0-5.64,5.63,17,17,0,0,0-2.13,8.32,18.29,18.29,0,0,0,2.15,8.6,16,16,0,0,0,5.72,6,15.21,15.21,0,0,0,8.12,2.24,32.38,32.38,0,0,0,3.24-.16,24,24,0,0,0,3.2-.52A15.51,15.51,0,0,0,43.43,51V41.21H34.88A11.27,11.27,0,0,1,32.44,41a2.72,2.72,0,0,1-1.76-1.36A7.35,7.35,0,0,1,30,35.92a6.84,6.84,0,0,1,.72-3.64A2.93,2.93,0,0,1,32.6,31,12.09,12.09,0,0,1,35,30.72H50.16a6.6,6.6,0,0,1,3.76,1,3.89,3.89,0,0,1,1.44,2.2,12.23,12.23,0,0,1,.32,2.84V54.17a6.18,6.18,0,0,1-1.76,4,15.26,15.26,0,0,1-4.81,3.56,20.86,20.86,0,0,1-4.36,1.72,41.23,41.23,0,0,1-5.16,1.07A39.07,39.07,0,0,1,33.82,64.88Z"/><path class="cls-1" d="M70.7,64.26a7.82,7.82,0,0,1-4.2-.84A3.49,3.49,0,0,1,65,61.14a16.06,16.06,0,0,1-.27-3V30.26a13.1,13.1,0,0,1,.32-3,3.61,3.61,0,0,1,1.57-2.2,7.77,7.77,0,0,1,4.2-.84,8.16,8.16,0,0,1,4,.76,3.35,3.35,0,0,1,1.55,1.77,5.55,5.55,0,0,1,.32,1.72l-1,.48a8.46,8.46,0,0,1,.84-1.16,11.4,11.4,0,0,1,4.81-3.32,11.19,11.19,0,0,1,4-.64,18,18,0,0,1,2,.12,12.17,12.17,0,0,1,2.24.48,9.09,9.09,0,0,1,2.12,1,5.14,5.14,0,0,1,1.55,1.49,3.72,3.72,0,0,1,.6,2.16,9.84,9.84,0,0,1-1.52,5.56,4.51,4.51,0,0,1-3.84,2.27,5.35,5.35,0,0,1-1.92-.24,5.94,5.94,0,0,1-.92-.48,4.71,4.71,0,0,0-.84-.44,5.31,5.31,0,0,0-1.76-.2,8.1,8.1,0,0,0-2.28.32,6.37,6.37,0,0,0-2,1,4.74,4.74,0,0,0-2,3.88v17.6a14.68,14.68,0,0,1-.29,2.92,3.24,3.24,0,0,1-1.56,2.19A8.3,8.3,0,0,1,70.7,64.26Z"/><path class="cls-1" d="M132.78,64.22a7.37,7.37,0,0,1-4.36-1,3.12,3.12,0,0,1-1.4-2.56l.8-1.36a9.1,9.1,0,0,1-1.84,2,13.51,13.51,0,0,1-3.52,2.07,13.78,13.78,0,0,1-5.36.92,16,16,0,0,1-7-1.6,19,19,0,0,1-5.88-4.45,22,22,0,0,1-4-6.44,19.72,19.72,0,0,1-1.48-7.6,19.24,19.24,0,0,1,1.49-7.48,20.92,20.92,0,0,1,4.08-6.32A20.23,20.23,0,0,1,110.16,26a15.66,15.66,0,0,1,7-1.6,13.4,13.4,0,0,1,5,.84,13.63,13.63,0,0,1,3.48,2,10.15,10.15,0,0,1,2.12,2.16l-.64-1.12a3.18,3.18,0,0,1,1.33-2.92,7.69,7.69,0,0,1,4.43-1,7.37,7.37,0,0,1,4.12.88,3.57,3.57,0,0,1,1.52,2.32,15.69,15.69,0,0,1,.28,3v27.6a16,16,0,0,1-.29,3A3.42,3.42,0,0,1,137,63.38,7.82,7.82,0,0,1,132.78,64.22ZM118.87,52.29a7,7,0,0,0,3.8-1.08,7.77,7.77,0,0,0,2.72-2.91,8.39,8.39,0,0,0,1-4.08,8,8,0,0,0-3.83-7,7.24,7.24,0,0,0-3.84-1.08,7.6,7.6,0,0,0-4.12,1.12,8.62,8.62,0,0,0-2.89,3,8.13,8.13,0,0,0-1.08,4.16,7.55,7.55,0,0,0,1.08,4,8.1,8.1,0,0,0,3,2.88A8.26,8.26,0,0,0,118.87,52.29Z"/><path class="cls-1" d="M149,25h8.8l11-.31a14.66,14.66,0,0,1,2.88.28A3.54,3.54,0,0,1,174,26.48a7.74,7.74,0,0,1,.88,4.25,7.41,7.41,0,0,1-.84,4,3.71,3.71,0,0,1-2.2,1.64,11.6,11.6,0,0,1-3,.36l-10.48-.25h-9.68a3.83,3.83,0,0,1-3.24-1.4,8.07,8.07,0,0,1-.92-4.44,6.82,6.82,0,0,1,1.12-4.28A4.06,4.06,0,0,1,149,25Zm8.38,39.44a7.31,7.31,0,0,1-4.08-.88,3.56,3.56,0,0,1-1.56-2.28,15.76,15.76,0,0,1-.28-3l0-37.44a16.77,16.77,0,0,1,.88-5.36,13.4,13.4,0,0,1,2.8-4.76,13.93,13.93,0,0,1,4.88-3.39A18,18,0,0,1,167.29,6a15.31,15.31,0,0,1,2.92.28,3.46,3.46,0,0,1,2.24,1.52,7.82,7.82,0,0,1,.84,4.2,7.45,7.45,0,0,1-.88,4.2,3.57,3.57,0,0,1-2.28,1.52,14.68,14.68,0,0,1-2.92.28,10.1,10.1,0,0,0-1.72.12,3.17,3.17,0,0,0-1.08.36,1.44,1.44,0,0,0-.6.8,3.9,3.9,0,0,0-.2,1.36l0,37.84a12.22,12.22,0,0,1-.32,2.88,3.54,3.54,0,0,1-1.6,2.2A8,8,0,0,1,157.42,64.39Z"/><path class="cls-1" d="M200,65a20.21,20.21,0,0,1-7.48-1.48,22.61,22.61,0,0,1-6.76-4.21,19.67,19.67,0,0,1-6.55-15,20.08,20.08,0,0,1,1.61-8,21,21,0,0,1,4.48-6.6,21.46,21.46,0,0,1,6.6-4.51,19.43,19.43,0,0,1,8-1.64,20.05,20.05,0,0,1,10.44,2.77,20.94,20.94,0,0,1,7.48,7.48,20.22,20.22,0,0,1,2.79,10.48,20,20,0,0,1-1.8,8.68,20.63,20.63,0,0,1-4.81,6.52,21,21,0,0,1-6.64,4.11A20.14,20.14,0,0,1,200,65Zm-.15-12.08a9,9,0,0,0,3.92-1,8.74,8.74,0,0,0,3.36-2.88,8.19,8.19,0,0,0,1.36-4.87,8.82,8.82,0,0,0-1.11-4.49,8,8,0,0,0-3.08-3,9.24,9.24,0,0,0-4.52-1.08,8.16,8.16,0,0,0-4.28,1.12,8.65,8.65,0,0,0-4.21,7.51,8.51,8.51,0,0,0,1.32,4.85A8.05,8.05,0,0,0,195.91,52,9.38,9.38,0,0,0,199.83,52.9Z"/><path class="cls-1" d="M232.94,64.36a7.59,7.59,0,0,1-4.16-.88,3.41,3.41,0,0,1-1.52-2.24,17.14,17.14,0,0,1-.24-3l0-28a13.85,13.85,0,0,1,.28-2.92,3.41,3.41,0,0,1,1.56-2.16,8.06,8.06,0,0,1,4.24-.84,6.58,6.58,0,0,1,4.32,1.16,4.74,4.74,0,0,1,1.36,3.8l-1,.88a7,7,0,0,1,1-1.36,15.5,15.5,0,0,1,2.08-2,13.31,13.31,0,0,1,3-1.79,9.07,9.07,0,0,1,3.72-.76,13.94,13.94,0,0,1,4.76.76,12.26,12.26,0,0,1,3.84,2.24,13.89,13.89,0,0,1,3,3.73,20.38,20.38,0,0,1,2.72-3.12,14.56,14.56,0,0,1,3.8-2.56,11.44,11.44,0,0,1,4.92-1,13,13,0,0,1,7.88,2.37,14.48,14.48,0,0,1,4.92,6.76A29.68,29.68,0,0,1,285,44.07V58.39a14.61,14.61,0,0,1-.28,2.92,3.44,3.44,0,0,1-1.56,2.24,8,8,0,0,1-4.24.84,7.49,7.49,0,0,1-4.2-.89,3.55,3.55,0,0,1-1.52-2.28,15.31,15.31,0,0,1-.28-2.92V44a13.12,13.12,0,0,0-.56-4.16,5.4,5.4,0,0,0-1.71-2.6,4.59,4.59,0,0,0-2.92-.92,5.55,5.55,0,0,0-3.12.84,5,5,0,0,0-1.93,2.56,12.79,12.79,0,0,0-.64,4.36V58.38a10.82,10.82,0,0,1-.4,3,3.88,3.88,0,0,1-1.72,2.24,7.61,7.61,0,0,1-4.2.75,7.42,7.42,0,0,1-4.08-1,3.49,3.49,0,0,1-1.44-2.28,16.75,16.75,0,0,1-.24-2.84V44a13.52,13.52,0,0,0-.56-4.2,5.28,5.28,0,0,0-1.67-2.6,4.66,4.66,0,0,0-3-.88,5,5,0,0,0-3.28,1,6,6,0,0,0-1.89,2.75A11.75,11.75,0,0,0,239,44v14.4a14.38,14.38,0,0,1-.28,3,3.41,3.41,0,0,1-1.56,2.2A8,8,0,0,1,232.94,64.36Z"/><path class="cls-1" d="M312.14,65.05a20,20,0,0,1-7.48-1.49,22.78,22.78,0,0,1-6.76-4.2,20.52,20.52,0,0,1-4.94-23,20.86,20.86,0,0,1,4.48-6.6,21.49,21.49,0,0,1,6.6-4.52,19.58,19.58,0,0,1,8-1.63,20.17,20.17,0,0,1,10.44,2.76,21.05,21.05,0,0,1,7.48,7.49,20.22,20.22,0,0,1,2.79,10.48,20,20,0,0,1-1.8,8.68,20.74,20.74,0,0,1-4.81,6.52,21,21,0,0,1-6.64,4.11A20.35,20.35,0,0,1,312.14,65.05ZM312,53a9,9,0,0,0,3.92-1,8.74,8.74,0,0,0,3.36-2.88,8.2,8.2,0,0,0,1.36-4.88,8.71,8.71,0,0,0-1.12-4.48,7.9,7.9,0,0,0-3.07-3,9.24,9.24,0,0,0-4.52-1.08,8.25,8.25,0,0,0-4.28,1.11,8.74,8.74,0,0,0-3.05,3.08,8.6,8.6,0,0,0-1.16,4.44,8.45,8.45,0,0,0,1.32,4.84A7.91,7.91,0,0,0,308.07,52,9.24,9.24,0,0,0,312,53Z"/><path class="cls-1" d="M341.76,25.06h8.8l11-.31a14,14,0,0,1,2.88.28,3.56,3.56,0,0,1,2.24,1.56,7.7,7.7,0,0,1,.88,4.24,7.45,7.45,0,0,1-.84,4,3.74,3.74,0,0,1-2.21,1.64,11.46,11.46,0,0,1-2.95.36l-10.48-.25h-9.68a3.83,3.83,0,0,1-3.24-1.4,8,8,0,0,1-.92-4.44,6.78,6.78,0,0,1,1.12-4.28A4.06,4.06,0,0,1,341.76,25.06Zm18.06,39.38a24.63,24.63,0,0,1-7-.89A11.75,11.75,0,0,1,348,60.83a11.08,11.08,0,0,1-2.84-4.68,22.21,22.21,0,0,1-.91-6.76l0-32.48a13.27,13.27,0,0,1,.28-2.88,3.35,3.35,0,0,1,1.56-2.12,7.83,7.83,0,0,1,4.16-.84,7.59,7.59,0,0,1,4.16.88A3.59,3.59,0,0,1,356,14.19a15.26,15.26,0,0,1,.28,3l0,31.76a9,9,0,0,0,.2,2.12,2.48,2.48,0,0,0,.6,1.24,2.12,2.12,0,0,0,1.12.56,7.94,7.94,0,0,0,1.76.17,13.37,13.37,0,0,1,3.12.32,3.37,3.37,0,0,1,2.11,1.44,6.93,6.93,0,0,1,.76,3.76,7.5,7.5,0,0,1-.88,4.16,3.42,3.42,0,0,1-2.28,1.52A17.35,17.35,0,0,1,359.82,64.44Z"/><path class="cls-1" d="M379.74,64.45a7.67,7.67,0,0,1-4.2-.85A3.46,3.46,0,0,1,374,61.32a15.16,15.16,0,0,1-.28-3l0-27.92a13.17,13.17,0,0,1,.32-3,3.53,3.53,0,0,1,1.56-2.19,7.82,7.82,0,0,1,4.2-.84,8,8,0,0,1,4,.76A3.31,3.31,0,0,1,385.44,27a5.92,5.92,0,0,1,.32,1.72l-1,.48a9.14,9.14,0,0,1,.84-1.16,11.28,11.28,0,0,1,4.8-3.32,11.51,11.51,0,0,1,4-.63,17.84,17.84,0,0,1,2,.12,12,12,0,0,1,2.24.48,9.09,9.09,0,0,1,2.12,1,5.27,5.27,0,0,1,1.56,1.48,3.76,3.76,0,0,1,.6,2.16,9.82,9.82,0,0,1-1.52,5.56,4.51,4.51,0,0,1-3.85,2.28,5.43,5.43,0,0,1-1.92-.24,5.94,5.94,0,0,1-.92-.48,4.11,4.11,0,0,0-.84-.44,5,5,0,0,0-1.75-.2,7.87,7.87,0,0,0-2.29.31,6.7,6.7,0,0,0-2,1,5,5,0,0,0-1.44,1.68,4.79,4.79,0,0,0-.52,2.2v17.6a14.54,14.54,0,0,1-.28,2.92,3.29,3.29,0,0,1-1.56,2.2A8.43,8.43,0,0,1,379.74,64.45Z"/><path class="cls-1" d="M415.6,18.71a8,8,0,0,1-4.31-.88,3.52,3.52,0,0,1-1.56-2.32,15.69,15.69,0,0,1-.28-3,14,14,0,0,1,.32-3.08,3.54,3.54,0,0,1,1.6-2.24,8.22,8.22,0,0,1,4.32-.84,7.7,7.7,0,0,1,4.24.88,3.6,3.6,0,0,1,1.56,2.32,15.69,15.69,0,0,1,.28,3,16.44,16.44,0,0,1-.28,3,3.43,3.43,0,0,1-1.57,2.28A8.22,8.22,0,0,1,415.6,18.71Zm0,45.76a7.77,7.77,0,0,1-4.2-.84,3.42,3.42,0,0,1-1.52-2.24,14.68,14.68,0,0,1-.28-2.92l0-27.92a14.38,14.38,0,0,1,.28-3,3.41,3.41,0,0,1,1.56-2.2,8,8,0,0,1,4.24-.84,7.39,7.39,0,0,1,4.12.88,3.6,3.6,0,0,1,1.52,2.24,15.65,15.65,0,0,1,.28,3l0,27.84a14.54,14.54,0,0,1-.28,2.92,3.31,3.31,0,0,1-1.52,2.2A8.18,8.18,0,0,1,415.58,64.47Z"/><path class="cls-1" d="M434.54,64.48a5.68,5.68,0,0,1-4.2-1.72,5.81,5.81,0,0,1-1.72-4.28,6.33,6.33,0,0,1,.44-2.32,5.32,5.32,0,0,1,1.4-2l18.09-17.67H436.39a14.68,14.68,0,0,1-2.92-.28,3.59,3.59,0,0,1-2.28-1.56,7.51,7.51,0,0,1-.87-4.16,7.5,7.5,0,0,1,.88-4.2,3.58,3.58,0,0,1,2.28-1.52,14.61,14.61,0,0,1,2.92-.28l25,0a5.75,5.75,0,0,1,5.92,5.92,6.6,6.6,0,0,1-.44,2.4,4.77,4.77,0,0,1-1.25,1.84L447.9,52.41h14.48a13,13,0,0,1,3,.32,3.54,3.54,0,0,1,2.2,1.6,8,8,0,0,1,.84,4.24,7.59,7.59,0,0,1-.88,4.16,3.41,3.41,0,0,1-2.24,1.52,17.14,17.14,0,0,1-3,.24Z"/><path class="cls-2" d="M33.82,64.88a26.6,26.6,0,0,1-11-2.25A27.28,27.28,0,0,1,14,56.39,28.84,28.84,0,0,1,8.11,47,31.31,31.31,0,0,1,6,35.42,27.42,27.42,0,0,1,23.21,9.63,30.72,30.72,0,0,1,34.5,7.44a32.11,32.11,0,0,1,5.32.48,34.71,34.71,0,0,1,5.56,1.45,20.27,20.27,0,0,1,4.71,2.32,19.91,19.91,0,0,1,2.84,2.2,3.66,3.66,0,0,1,1.24,2.76,3.83,3.83,0,0,1-.32,1.8,10.37,10.37,0,0,1-1.12,2,9.74,9.74,0,0,1-2.52,2.64,4.53,4.53,0,0,1-2.44.8,3.7,3.7,0,0,1-1.52-.4,21.62,21.62,0,0,1-2.4-1.36,11.2,11.2,0,0,0-2.24-1,27.71,27.71,0,0,0-3.48-1,18.59,18.59,0,0,0-4-.44,16.26,16.26,0,0,0-8.16,2,14.6,14.6,0,0,0-5.64,5.63,17,17,0,0,0-2.13,8.32,18.29,18.29,0,0,0,2.15,8.6,16,16,0,0,0,5.72,6,15.21,15.21,0,0,0,8.12,2.24,32.38,32.38,0,0,0,3.24-.16,24,24,0,0,0,3.2-.52A15.51,15.51,0,0,0,43.43,51V41.21H34.88A11.27,11.27,0,0,1,32.44,41a2.72,2.72,0,0,1-1.76-1.36A7.35,7.35,0,0,1,30,35.92a6.84,6.84,0,0,1,.72-3.64A2.93,2.93,0,0,1,32.6,31,12.09,12.09,0,0,1,35,30.72H50.16a6.6,6.6,0,0,1,3.76,1,3.89,3.89,0,0,1,1.44,2.2,12.23,12.23,0,0,1,.32,2.84V54.17a6.18,6.18,0,0,1-1.76,4,15.26,15.26,0,0,1-4.81,3.56,20.86,20.86,0,0,1-4.36,1.72,41.23,41.23,0,0,1-5.16,1.07A39.07,39.07,0,0,1,33.82,64.88Z"/><path class="cls-2" d="M70.7,64.26a7.82,7.82,0,0,1-4.2-.84A3.49,3.49,0,0,1,65,61.14a16.06,16.06,0,0,1-.27-3V30.26a13.1,13.1,0,0,1,.32-3,3.61,3.61,0,0,1,1.57-2.2,7.77,7.77,0,0,1,4.2-.84,8.16,8.16,0,0,1,4,.76,3.35,3.35,0,0,1,1.55,1.77,5.55,5.55,0,0,1,.32,1.72l-1,.48a8.46,8.46,0,0,1,.84-1.16,11.4,11.4,0,0,1,4.81-3.32,11.19,11.19,0,0,1,4-.64,18,18,0,0,1,2,.12,12.17,12.17,0,0,1,2.24.48,9.09,9.09,0,0,1,2.12,1,5.14,5.14,0,0,1,1.55,1.49,3.72,3.72,0,0,1,.6,2.16,9.84,9.84,0,0,1-1.52,5.56,4.51,4.51,0,0,1-3.84,2.27,5.35,5.35,0,0,1-1.92-.24,5.94,5.94,0,0,1-.92-.48,4.71,4.71,0,0,0-.84-.44,5.31,5.31,0,0,0-1.76-.2,8.1,8.1,0,0,0-2.28.32,6.37,6.37,0,0,0-2,1,4.74,4.74,0,0,0-2,3.88v17.6a14.68,14.68,0,0,1-.29,2.92,3.24,3.24,0,0,1-1.56,2.19A8.3,8.3,0,0,1,70.7,64.26Z"/><path class="cls-2" d="M132.78,64.22a7.37,7.37,0,0,1-4.36-1,3.12,3.12,0,0,1-1.4-2.56l.8-1.36a9.1,9.1,0,0,1-1.84,2,13.51,13.51,0,0,1-3.52,2.07,13.78,13.78,0,0,1-5.36.92,16,16,0,0,1-7-1.6,19,19,0,0,1-5.88-4.45,22,22,0,0,1-4-6.44,19.72,19.72,0,0,1-1.48-7.6,19.24,19.24,0,0,1,1.49-7.48,20.92,20.92,0,0,1,4.08-6.32A20.23,20.23,0,0,1,110.16,26a15.66,15.66,0,0,1,7-1.6,13.4,13.4,0,0,1,5,.84,13.63,13.63,0,0,1,3.48,2,10.15,10.15,0,0,1,2.12,2.16l-.64-1.12a3.18,3.18,0,0,1,1.33-2.92,7.69,7.69,0,0,1,4.43-1,7.37,7.37,0,0,1,4.12.88,3.57,3.57,0,0,1,1.52,2.32,15.69,15.69,0,0,1,.28,3v27.6a16,16,0,0,1-.29,3A3.42,3.42,0,0,1,137,63.38,7.82,7.82,0,0,1,132.78,64.22ZM118.87,52.29a7,7,0,0,0,3.8-1.08,7.77,7.77,0,0,0,2.72-2.91,8.39,8.39,0,0,0,1-4.08,8,8,0,0,0-3.83-7,7.24,7.24,0,0,0-3.84-1.08,7.6,7.6,0,0,0-4.12,1.12,8.62,8.62,0,0,0-2.89,3,8.13,8.13,0,0,0-1.08,4.16,7.55,7.55,0,0,0,1.08,4,8.1,8.1,0,0,0,3,2.88A8.26,8.26,0,0,0,118.87,52.29Z"/><path class="cls-2" d="M149,25h8.8l11-.31a14.66,14.66,0,0,1,2.88.28A3.54,3.54,0,0,1,174,26.48a7.74,7.74,0,0,1,.88,4.25,7.41,7.41,0,0,1-.84,4,3.71,3.71,0,0,1-2.2,1.64,11.6,11.6,0,0,1-3,.36l-10.48-.25h-9.68a3.83,3.83,0,0,1-3.24-1.4,8.07,8.07,0,0,1-.92-4.44,6.82,6.82,0,0,1,1.12-4.28A4.06,4.06,0,0,1,149,25Zm8.38,39.44a7.31,7.31,0,0,1-4.08-.88,3.56,3.56,0,0,1-1.56-2.28,15.76,15.76,0,0,1-.28-3l0-37.44a16.77,16.77,0,0,1,.88-5.36,13.4,13.4,0,0,1,2.8-4.76,13.93,13.93,0,0,1,4.88-3.39A18,18,0,0,1,167.29,6a15.31,15.31,0,0,1,2.92.28,3.46,3.46,0,0,1,2.24,1.52,7.82,7.82,0,0,1,.84,4.2,7.45,7.45,0,0,1-.88,4.2,3.57,3.57,0,0,1-2.28,1.52,14.68,14.68,0,0,1-2.92.28,10.1,10.1,0,0,0-1.72.12,3.17,3.17,0,0,0-1.08.36,1.44,1.44,0,0,0-.6.8,3.9,3.9,0,0,0-.2,1.36l0,37.84a12.22,12.22,0,0,1-.32,2.88,3.54,3.54,0,0,1-1.6,2.2A8,8,0,0,1,157.42,64.39Z"/><path class="cls-2" d="M200,65a20.21,20.21,0,0,1-7.48-1.48,22.61,22.61,0,0,1-6.76-4.21,19.67,19.67,0,0,1-6.55-15,20.08,20.08,0,0,1,1.61-8,21,21,0,0,1,4.48-6.6,21.46,21.46,0,0,1,6.6-4.51,19.43,19.43,0,0,1,8-1.64,20.05,20.05,0,0,1,10.44,2.77,20.94,20.94,0,0,1,7.48,7.48,20.22,20.22,0,0,1,2.79,10.48,20,20,0,0,1-1.8,8.68,20.63,20.63,0,0,1-4.81,6.52,21,21,0,0,1-6.64,4.11A20.14,20.14,0,0,1,200,65Zm-.15-12.08a9,9,0,0,0,3.92-1,8.74,8.74,0,0,0,3.36-2.88,8.19,8.19,0,0,0,1.36-4.87,8.82,8.82,0,0,0-1.11-4.49,8,8,0,0,0-3.08-3,9.24,9.24,0,0,0-4.52-1.08,8.16,8.16,0,0,0-4.28,1.12,8.65,8.65,0,0,0-4.21,7.51,8.51,8.51,0,0,0,1.32,4.85A8.05,8.05,0,0,0,195.91,52,9.38,9.38,0,0,0,199.83,52.9Z"/><path class="cls-2" d="M232.94,64.36a7.59,7.59,0,0,1-4.16-.88,3.41,3.41,0,0,1-1.52-2.24,17.14,17.14,0,0,1-.24-3l0-28a13.85,13.85,0,0,1,.28-2.92,3.41,3.41,0,0,1,1.56-2.16,8.06,8.06,0,0,1,4.24-.84,6.58,6.58,0,0,1,4.32,1.16,4.74,4.74,0,0,1,1.36,3.8l-1,.88a7,7,0,0,1,1-1.36,15.5,15.5,0,0,1,2.08-2,13.31,13.31,0,0,1,3-1.79,9.07,9.07,0,0,1,3.72-.76,13.94,13.94,0,0,1,4.76.76,12.26,12.26,0,0,1,3.84,2.24,13.89,13.89,0,0,1,3,3.73,20.38,20.38,0,0,1,2.72-3.12,14.56,14.56,0,0,1,3.8-2.56,11.44,11.44,0,0,1,4.92-1,13,13,0,0,1,7.88,2.37,14.48,14.48,0,0,1,4.92,6.76A29.68,29.68,0,0,1,285,44.07V58.39a14.61,14.61,0,0,1-.28,2.92,3.44,3.44,0,0,1-1.56,2.24,8,8,0,0,1-4.24.84,7.49,7.49,0,0,1-4.2-.89,3.55,3.55,0,0,1-1.52-2.28,15.31,15.31,0,0,1-.28-2.92V44a13.12,13.12,0,0,0-.56-4.16,5.4,5.4,0,0,0-1.71-2.6,4.59,4.59,0,0,0-2.92-.92,5.55,5.55,0,0,0-3.12.84,5,5,0,0,0-1.93,2.56,12.79,12.79,0,0,0-.64,4.36V58.38a10.82,10.82,0,0,1-.4,3,3.88,3.88,0,0,1-1.72,2.24,7.61,7.61,0,0,1-4.2.75,7.42,7.42,0,0,1-4.08-1,3.49,3.49,0,0,1-1.44-2.28,16.75,16.75,0,0,1-.24-2.84V44a13.52,13.52,0,0,0-.56-4.2,5.28,5.28,0,0,0-1.67-2.6,4.66,4.66,0,0,0-3-.88,5,5,0,0,0-3.28,1,6,6,0,0,0-1.89,2.75A11.75,11.75,0,0,0,239,44v14.4a14.38,14.38,0,0,1-.28,3,3.41,3.41,0,0,1-1.56,2.2A8,8,0,0,1,232.94,64.36Z"/><path class="cls-2" d="M312.14,65.05a20,20,0,0,1-7.48-1.49,22.78,22.78,0,0,1-6.76-4.2,20.52,20.52,0,0,1-4.94-23,20.86,20.86,0,0,1,4.48-6.6,21.49,21.49,0,0,1,6.6-4.52,19.58,19.58,0,0,1,8-1.63,20.17,20.17,0,0,1,10.44,2.76,21.05,21.05,0,0,1,7.48,7.49,20.22,20.22,0,0,1,2.79,10.48,20,20,0,0,1-1.8,8.68,20.74,20.74,0,0,1-4.81,6.52,21,21,0,0,1-6.64,4.11A20.35,20.35,0,0,1,312.14,65.05ZM312,53a9,9,0,0,0,3.92-1,8.74,8.74,0,0,0,3.36-2.88,8.2,8.2,0,0,0,1.36-4.88,8.71,8.71,0,0,0-1.12-4.48,7.9,7.9,0,0,0-3.07-3,9.24,9.24,0,0,0-4.52-1.08,8.25,8.25,0,0,0-4.28,1.11,8.74,8.74,0,0,0-3.05,3.08,8.6,8.6,0,0,0-1.16,4.44,8.45,8.45,0,0,0,1.32,4.84A7.91,7.91,0,0,0,308.07,52,9.24,9.24,0,0,0,312,53Z"/><path class="cls-2" d="M341.76,25.06h8.8l11-.31a14,14,0,0,1,2.88.28,3.56,3.56,0,0,1,2.24,1.56,7.7,7.7,0,0,1,.88,4.24,7.45,7.45,0,0,1-.84,4,3.74,3.74,0,0,1-2.21,1.64,11.46,11.46,0,0,1-2.95.36l-10.48-.25h-9.68a3.83,3.83,0,0,1-3.24-1.4,8,8,0,0,1-.92-4.44,6.78,6.78,0,0,1,1.12-4.28A4.06,4.06,0,0,1,341.76,25.06Zm18.06,39.38a24.63,24.63,0,0,1-7-.89A11.75,11.75,0,0,1,348,60.83a11.08,11.08,0,0,1-2.84-4.68,22.21,22.21,0,0,1-.91-6.76l0-32.48a13.27,13.27,0,0,1,.28-2.88,3.35,3.35,0,0,1,1.56-2.12,7.83,7.83,0,0,1,4.16-.84,7.59,7.59,0,0,1,4.16.88A3.59,3.59,0,0,1,356,14.19a15.26,15.26,0,0,1,.28,3l0,31.76a9,9,0,0,0,.2,2.12,2.48,2.48,0,0,0,.6,1.24,2.12,2.12,0,0,0,1.12.56,7.94,7.94,0,0,0,1.76.17,13.37,13.37,0,0,1,3.12.32,3.37,3.37,0,0,1,2.11,1.44,6.93,6.93,0,0,1,.76,3.76,7.5,7.5,0,0,1-.88,4.16,3.42,3.42,0,0,1-2.28,1.52A17.35,17.35,0,0,1,359.82,64.44Z"/><path class="cls-2" d="M379.74,64.45a7.67,7.67,0,0,1-4.2-.85A3.46,3.46,0,0,1,374,61.32a15.16,15.16,0,0,1-.28-3l0-27.92a13.17,13.17,0,0,1,.32-3,3.53,3.53,0,0,1,1.56-2.19,7.82,7.82,0,0,1,4.2-.84,8,8,0,0,1,4,.76A3.31,3.31,0,0,1,385.44,27a5.92,5.92,0,0,1,.32,1.72l-1,.48a9.14,9.14,0,0,1,.84-1.16,11.28,11.28,0,0,1,4.8-3.32,11.51,11.51,0,0,1,4-.63,17.84,17.84,0,0,1,2,.12,12,12,0,0,1,2.24.48,9.09,9.09,0,0,1,2.12,1,5.27,5.27,0,0,1,1.56,1.48,3.76,3.76,0,0,1,.6,2.16,9.82,9.82,0,0,1-1.52,5.56,4.51,4.51,0,0,1-3.85,2.28,5.43,5.43,0,0,1-1.92-.24,5.94,5.94,0,0,1-.92-.48,4.11,4.11,0,0,0-.84-.44,5,5,0,0,0-1.75-.2,7.87,7.87,0,0,0-2.29.31,6.7,6.7,0,0,0-2,1,5,5,0,0,0-1.44,1.68,4.79,4.79,0,0,0-.52,2.2v17.6a14.54,14.54,0,0,1-.28,2.92,3.29,3.29,0,0,1-1.56,2.2A8.43,8.43,0,0,1,379.74,64.45Z"/><path class="cls-2" d="M415.6,18.71a8,8,0,0,1-4.31-.88,3.52,3.52,0,0,1-1.56-2.32,15.69,15.69,0,0,1-.28-3,14,14,0,0,1,.32-3.08,3.54,3.54,0,0,1,1.6-2.24,8.22,8.22,0,0,1,4.32-.84,7.7,7.7,0,0,1,4.24.88,3.6,3.6,0,0,1,1.56,2.32,15.69,15.69,0,0,1,.28,3,16.44,16.44,0,0,1-.28,3,3.43,3.43,0,0,1-1.57,2.28A8.22,8.22,0,0,1,415.6,18.71Zm0,45.76a7.77,7.77,0,0,1-4.2-.84,3.42,3.42,0,0,1-1.52-2.24,14.68,14.68,0,0,1-.28-2.92l0-27.92a14.38,14.38,0,0,1,.28-3,3.41,3.41,0,0,1,1.56-2.2,8,8,0,0,1,4.24-.84,7.39,7.39,0,0,1,4.12.88,3.6,3.6,0,0,1,1.52,2.24,15.65,15.65,0,0,1,.28,3l0,27.84a14.54,14.54,0,0,1-.28,2.92,3.31,3.31,0,0,1-1.52,2.2A8.18,8.18,0,0,1,415.58,64.47Z"/><path class="cls-2" d="M434.54,64.48a5.68,5.68,0,0,1-4.2-1.72,5.81,5.81,0,0,1-1.72-4.28,6.33,6.33,0,0,1,.44-2.32,5.32,5.32,0,0,1,1.4-2l18.09-17.67H436.39a14.68,14.68,0,0,1-2.92-.28,3.59,3.59,0,0,1-2.28-1.56,7.51,7.51,0,0,1-.87-4.16,7.5,7.5,0,0,1,.88-4.2,3.58,3.58,0,0,1,2.28-1.52,14.61,14.61,0,0,1,2.92-.28l25,0a5.75,5.75,0,0,1,5.92,5.92,6.6,6.6,0,0,1-.44,2.4,4.77,4.77,0,0,1-1.25,1.84L447.9,52.41h14.48a13,13,0,0,1,3,.32,3.54,3.54,0,0,1,2.2,1.6,8,8,0,0,1,.84,4.24,7.59,7.59,0,0,1-.88,4.16,3.41,3.41,0,0,1-2.24,1.52,17.14,17.14,0,0,1-3,.24Z"/><path class="cls-1" d="M33.82,64.88a26.6,26.6,0,0,1-11-2.25A27.28,27.28,0,0,1,14,56.39,28.84,28.84,0,0,1,8.11,47,31.31,31.31,0,0,1,6,35.42,27.42,27.42,0,0,1,23.21,9.63,30.72,30.72,0,0,1,34.5,7.44a32.11,32.11,0,0,1,5.32.48,34.71,34.71,0,0,1,5.56,1.45,20.27,20.27,0,0,1,4.71,2.32,19.91,19.91,0,0,1,2.84,2.2,3.66,3.66,0,0,1,1.24,2.76,3.83,3.83,0,0,1-.32,1.8,10.37,10.37,0,0,1-1.12,2,9.74,9.74,0,0,1-2.52,2.64,4.53,4.53,0,0,1-2.44.8,3.7,3.7,0,0,1-1.52-.4,21.62,21.62,0,0,1-2.4-1.36,11.2,11.2,0,0,0-2.24-1,27.71,27.71,0,0,0-3.48-1,18.59,18.59,0,0,0-4-.44,16.26,16.26,0,0,0-8.16,2,14.6,14.6,0,0,0-5.64,5.63,17,17,0,0,0-2.13,8.32,18.29,18.29,0,0,0,2.15,8.6,16,16,0,0,0,5.72,6,15.21,15.21,0,0,0,8.12,2.24,32.38,32.38,0,0,0,3.24-.16,24,24,0,0,0,3.2-.52A15.51,15.51,0,0,0,43.43,51V41.21H34.88A11.27,11.27,0,0,1,32.44,41a2.72,2.72,0,0,1-1.76-1.36A7.35,7.35,0,0,1,30,35.92a6.84,6.84,0,0,1,.72-3.64A2.93,2.93,0,0,1,32.6,31,12.09,12.09,0,0,1,35,30.72H50.16a6.6,6.6,0,0,1,3.76,1,3.89,3.89,0,0,1,1.44,2.2,12.23,12.23,0,0,1,.32,2.84V54.17a6.18,6.18,0,0,1-1.76,4,15.26,15.26,0,0,1-4.81,3.56,20.86,20.86,0,0,1-4.36,1.72,41.23,41.23,0,0,1-5.16,1.07A39.07,39.07,0,0,1,33.82,64.88Z"/><path class="cls-1" d="M70.7,64.26a7.82,7.82,0,0,1-4.2-.84A3.49,3.49,0,0,1,65,61.14a16.06,16.06,0,0,1-.27-3V30.26a13.1,13.1,0,0,1,.32-3,3.61,3.61,0,0,1,1.57-2.2,7.77,7.77,0,0,1,4.2-.84,8.16,8.16,0,0,1,4,.76,3.35,3.35,0,0,1,1.55,1.77,5.55,5.55,0,0,1,.32,1.72l-1,.48a8.46,8.46,0,0,1,.84-1.16,11.4,11.4,0,0,1,4.81-3.32,11.19,11.19,0,0,1,4-.64,18,18,0,0,1,2,.12,12.17,12.17,0,0,1,2.24.48,9.09,9.09,0,0,1,2.12,1,5.14,5.14,0,0,1,1.55,1.49,3.72,3.72,0,0,1,.6,2.16,9.84,9.84,0,0,1-1.52,5.56,4.51,4.51,0,0,1-3.84,2.27,5.35,5.35,0,0,1-1.92-.24,5.94,5.94,0,0,1-.92-.48,4.71,4.71,0,0,0-.84-.44,5.31,5.31,0,0,0-1.76-.2,8.1,8.1,0,0,0-2.28.32,6.37,6.37,0,0,0-2,1,4.74,4.74,0,0,0-2,3.88v17.6a14.68,14.68,0,0,1-.29,2.92,3.24,3.24,0,0,1-1.56,2.19A8.3,8.3,0,0,1,70.7,64.26Z"/><path class="cls-1" d="M132.78,64.22a7.37,7.37,0,0,1-4.36-1,3.12,3.12,0,0,1-1.4-2.56l.8-1.36a9.1,9.1,0,0,1-1.84,2,13.51,13.51,0,0,1-3.52,2.07,13.78,13.78,0,0,1-5.36.92,16,16,0,0,1-7-1.6,19,19,0,0,1-5.88-4.45,22,22,0,0,1-4-6.44,19.72,19.72,0,0,1-1.48-7.6,19.24,19.24,0,0,1,1.49-7.48,20.92,20.92,0,0,1,4.08-6.32A20.23,20.23,0,0,1,110.16,26a15.66,15.66,0,0,1,7-1.6,13.4,13.4,0,0,1,5,.84,13.63,13.63,0,0,1,3.48,2,10.15,10.15,0,0,1,2.12,2.16l-.64-1.12a3.18,3.18,0,0,1,1.33-2.92,7.69,7.69,0,0,1,4.43-1,7.37,7.37,0,0,1,4.12.88,3.57,3.57,0,0,1,1.52,2.32,15.69,15.69,0,0,1,.28,3v27.6a16,16,0,0,1-.29,3A3.42,3.42,0,0,1,137,63.38,7.82,7.82,0,0,1,132.78,64.22ZM118.87,52.29a7,7,0,0,0,3.8-1.08,7.77,7.77,0,0,0,2.72-2.91,8.39,8.39,0,0,0,1-4.08,8,8,0,0,0-3.83-7,7.24,7.24,0,0,0-3.84-1.08,7.6,7.6,0,0,0-4.12,1.12,8.62,8.62,0,0,0-2.89,3,8.13,8.13,0,0,0-1.08,4.16,7.55,7.55,0,0,0,1.08,4,8.1,8.1,0,0,0,3,2.88A8.26,8.26,0,0,0,118.87,52.29Z"/><path class="cls-1" d="M149,25h8.8l11-.31a14.66,14.66,0,0,1,2.88.28A3.54,3.54,0,0,1,174,26.48a7.74,7.74,0,0,1,.88,4.25,7.41,7.41,0,0,1-.84,4,3.71,3.71,0,0,1-2.2,1.64,11.6,11.6,0,0,1-3,.36l-10.48-.25h-9.68a3.83,3.83,0,0,1-3.24-1.4,8.07,8.07,0,0,1-.92-4.44,6.82,6.82,0,0,1,1.12-4.28A4.06,4.06,0,0,1,149,25Zm8.38,39.44a7.31,7.31,0,0,1-4.08-.88,3.56,3.56,0,0,1-1.56-2.28,15.76,15.76,0,0,1-.28-3l0-37.44a16.77,16.77,0,0,1,.88-5.36,13.4,13.4,0,0,1,2.8-4.76,13.93,13.93,0,0,1,4.88-3.39A18,18,0,0,1,167.29,6a15.31,15.31,0,0,1,2.92.28,3.46,3.46,0,0,1,2.24,1.52,7.82,7.82,0,0,1,.84,4.2,7.45,7.45,0,0,1-.88,4.2,3.57,3.57,0,0,1-2.28,1.52,14.68,14.68,0,0,1-2.92.28,10.1,10.1,0,0,0-1.72.12,3.17,3.17,0,0,0-1.08.36,1.44,1.44,0,0,0-.6.8,3.9,3.9,0,0,0-.2,1.36l0,37.84a12.22,12.22,0,0,1-.32,2.88,3.54,3.54,0,0,1-1.6,2.2A8,8,0,0,1,157.42,64.39Z"/><path class="cls-1" d="M200,65a20.21,20.21,0,0,1-7.48-1.48,22.61,22.61,0,0,1-6.76-4.21,19.67,19.67,0,0,1-6.55-15,20.08,20.08,0,0,1,1.61-8,21,21,0,0,1,4.48-6.6,21.46,21.46,0,0,1,6.6-4.51,19.43,19.43,0,0,1,8-1.64,20.05,20.05,0,0,1,10.44,2.77,20.94,20.94,0,0,1,7.48,7.48,20.22,20.22,0,0,1,2.79,10.48,20,20,0,0,1-1.8,8.68,20.63,20.63,0,0,1-4.81,6.52,21,21,0,0,1-6.64,4.11A20.14,20.14,0,0,1,200,65Zm-.15-12.08a9,9,0,0,0,3.92-1,8.74,8.74,0,0,0,3.36-2.88,8.19,8.19,0,0,0,1.36-4.87,8.82,8.82,0,0,0-1.11-4.49,8,8,0,0,0-3.08-3,9.24,9.24,0,0,0-4.52-1.08,8.16,8.16,0,0,0-4.28,1.12,8.65,8.65,0,0,0-4.21,7.51,8.51,8.51,0,0,0,1.32,4.85A8.05,8.05,0,0,0,195.91,52,9.38,9.38,0,0,0,199.83,52.9Z"/><path class="cls-1" d="M232.94,64.36a7.59,7.59,0,0,1-4.16-.88,3.41,3.41,0,0,1-1.52-2.24,17.14,17.14,0,0,1-.24-3l0-28a13.85,13.85,0,0,1,.28-2.92,3.41,3.41,0,0,1,1.56-2.16,8.06,8.06,0,0,1,4.24-.84,6.58,6.58,0,0,1,4.32,1.16,4.74,4.74,0,0,1,1.36,3.8l-1,.88a7,7,0,0,1,1-1.36,15.5,15.5,0,0,1,2.08-2,13.31,13.31,0,0,1,3-1.79,9.07,9.07,0,0,1,3.72-.76,13.94,13.94,0,0,1,4.76.76,12.26,12.26,0,0,1,3.84,2.24,13.89,13.89,0,0,1,3,3.73,20.38,20.38,0,0,1,2.72-3.12,14.56,14.56,0,0,1,3.8-2.56,11.44,11.44,0,0,1,4.92-1,13,13,0,0,1,7.88,2.37,14.48,14.48,0,0,1,4.92,6.76A29.68,29.68,0,0,1,285,44.07V58.39a14.61,14.61,0,0,1-.28,2.92,3.44,3.44,0,0,1-1.56,2.24,8,8,0,0,1-4.24.84,7.49,7.49,0,0,1-4.2-.89,3.55,3.55,0,0,1-1.52-2.28,15.31,15.31,0,0,1-.28-2.92V44a13.12,13.12,0,0,0-.56-4.16,5.4,5.4,0,0,0-1.71-2.6,4.59,4.59,0,0,0-2.92-.92,5.55,5.55,0,0,0-3.12.84,5,5,0,0,0-1.93,2.56,12.79,12.79,0,0,0-.64,4.36V58.38a10.82,10.82,0,0,1-.4,3,3.88,3.88,0,0,1-1.72,2.24,7.61,7.61,0,0,1-4.2.75,7.42,7.42,0,0,1-4.08-1,3.49,3.49,0,0,1-1.44-2.28,16.75,16.75,0,0,1-.24-2.84V44a13.52,13.52,0,0,0-.56-4.2,5.28,5.28,0,0,0-1.67-2.6,4.66,4.66,0,0,0-3-.88,5,5,0,0,0-3.28,1,6,6,0,0,0-1.89,2.75A11.75,11.75,0,0,0,239,44v14.4a14.38,14.38,0,0,1-.28,3,3.41,3.41,0,0,1-1.56,2.2A8,8,0,0,1,232.94,64.36Z"/><path class="cls-1" d="M312.14,65.05a20,20,0,0,1-7.48-1.49,22.78,22.78,0,0,1-6.76-4.2,20.52,20.52,0,0,1-4.94-23,20.86,20.86,0,0,1,4.48-6.6,21.49,21.49,0,0,1,6.6-4.52,19.58,19.58,0,0,1,8-1.63,20.17,20.17,0,0,1,10.44,2.76,21.05,21.05,0,0,1,7.48,7.49,20.22,20.22,0,0,1,2.79,10.48,20,20,0,0,1-1.8,8.68,20.74,20.74,0,0,1-4.81,6.52,21,21,0,0,1-6.64,4.11A20.35,20.35,0,0,1,312.14,65.05ZM312,53a9,9,0,0,0,3.92-1,8.74,8.74,0,0,0,3.36-2.88,8.2,8.2,0,0,0,1.36-4.88,8.71,8.71,0,0,0-1.12-4.48,7.9,7.9,0,0,0-3.07-3,9.24,9.24,0,0,0-4.52-1.08,8.25,8.25,0,0,0-4.28,1.11,8.74,8.74,0,0,0-3.05,3.08,8.6,8.6,0,0,0-1.16,4.44,8.45,8.45,0,0,0,1.32,4.84A7.91,7.91,0,0,0,308.07,52,9.24,9.24,0,0,0,312,53Z"/><path class="cls-1" d="M341.76,25.06h8.8l11-.31a14,14,0,0,1,2.88.28,3.56,3.56,0,0,1,2.24,1.56,7.7,7.7,0,0,1,.88,4.24,7.45,7.45,0,0,1-.84,4,3.74,3.74,0,0,1-2.21,1.64,11.46,11.46,0,0,1-2.95.36l-10.48-.25h-9.68a3.83,3.83,0,0,1-3.24-1.4,8,8,0,0,1-.92-4.44,6.78,6.78,0,0,1,1.12-4.28A4.06,4.06,0,0,1,341.76,25.06Zm18.06,39.38a24.63,24.63,0,0,1-7-.89A11.75,11.75,0,0,1,348,60.83a11.08,11.08,0,0,1-2.84-4.68,22.21,22.21,0,0,1-.91-6.76l0-32.48a13.27,13.27,0,0,1,.28-2.88,3.35,3.35,0,0,1,1.56-2.12,7.83,7.83,0,0,1,4.16-.84,7.59,7.59,0,0,1,4.16.88A3.59,3.59,0,0,1,356,14.19a15.26,15.26,0,0,1,.28,3l0,31.76a9,9,0,0,0,.2,2.12,2.48,2.48,0,0,0,.6,1.24,2.12,2.12,0,0,0,1.12.56,7.94,7.94,0,0,0,1.76.17,13.37,13.37,0,0,1,3.12.32,3.37,3.37,0,0,1,2.11,1.44,6.93,6.93,0,0,1,.76,3.76,7.5,7.5,0,0,1-.88,4.16,3.42,3.42,0,0,1-2.28,1.52A17.35,17.35,0,0,1,359.82,64.44Z"/><path class="cls-1" d="M379.74,64.45a7.67,7.67,0,0,1-4.2-.85A3.46,3.46,0,0,1,374,61.32a15.16,15.16,0,0,1-.28-3l0-27.92a13.17,13.17,0,0,1,.32-3,3.53,3.53,0,0,1,1.56-2.19,7.82,7.82,0,0,1,4.2-.84,8,8,0,0,1,4,.76A3.31,3.31,0,0,1,385.44,27a5.92,5.92,0,0,1,.32,1.72l-1,.48a9.14,9.14,0,0,1,.84-1.16,11.28,11.28,0,0,1,4.8-3.32,11.51,11.51,0,0,1,4-.63,17.84,17.84,0,0,1,2,.12,12,12,0,0,1,2.24.48,9.09,9.09,0,0,1,2.12,1,5.27,5.27,0,0,1,1.56,1.48,3.76,3.76,0,0,1,.6,2.16,9.82,9.82,0,0,1-1.52,5.56,4.51,4.51,0,0,1-3.85,2.28,5.43,5.43,0,0,1-1.92-.24,5.94,5.94,0,0,1-.92-.48,4.11,4.11,0,0,0-.84-.44,5,5,0,0,0-1.75-.2,7.87,7.87,0,0,0-2.29.31,6.7,6.7,0,0,0-2,1,5,5,0,0,0-1.44,1.68,4.79,4.79,0,0,0-.52,2.2v17.6a14.54,14.54,0,0,1-.28,2.92,3.29,3.29,0,0,1-1.56,2.2A8.43,8.43,0,0,1,379.74,64.45Z"/><path class="cls-1" d="M415.6,18.71a8,8,0,0,1-4.31-.88,3.52,3.52,0,0,1-1.56-2.32,15.69,15.69,0,0,1-.28-3,14,14,0,0,1,.32-3.08,3.54,3.54,0,0,1,1.6-2.24,8.22,8.22,0,0,1,4.32-.84,7.7,7.7,0,0,1,4.24.88,3.6,3.6,0,0,1,1.56,2.32,15.69,15.69,0,0,1,.28,3,16.44,16.44,0,0,1-.28,3,3.43,3.43,0,0,1-1.57,2.28A8.22,8.22,0,0,1,415.6,18.71Zm0,45.76a7.77,7.77,0,0,1-4.2-.84,3.42,3.42,0,0,1-1.52-2.24,14.68,14.68,0,0,1-.28-2.92l0-27.92a14.38,14.38,0,0,1,.28-3,3.41,3.41,0,0,1,1.56-2.2,8,8,0,0,1,4.24-.84,7.39,7.39,0,0,1,4.12.88,3.6,3.6,0,0,1,1.52,2.24,15.65,15.65,0,0,1,.28,3l0,27.84a14.54,14.54,0,0,1-.28,2.92,3.31,3.31,0,0,1-1.52,2.2A8.18,8.18,0,0,1,415.58,64.47Z"/><path class="cls-1" d="M434.54,64.48a5.68,5.68,0,0,1-4.2-1.72,5.81,5.81,0,0,1-1.72-4.28,6.33,6.33,0,0,1,.44-2.32,5.32,5.32,0,0,1,1.4-2l18.09-17.67H436.39a14.68,14.68,0,0,1-2.92-.28,3.59,3.59,0,0,1-2.28-1.56,7.51,7.51,0,0,1-.87-4.16,7.5,7.5,0,0,1,.88-4.2,3.58,3.58,0,0,1,2.28-1.52,14.61,14.61,0,0,1,2.92-.28l25,0a5.75,5.75,0,0,1,5.92,5.92,6.6,6.6,0,0,1-.44,2.4,4.77,4.77,0,0,1-1.25,1.84L447.9,52.41h14.48a13,13,0,0,1,3,.32,3.54,3.54,0,0,1,2.2,1.6,8,8,0,0,1,.84,4.24,7.59,7.59,0,0,1-.88,4.16,3.41,3.41,0,0,1-2.24,1.52,17.14,17.14,0,0,1-3,.24Z"/></g></g></svg>