<svg xmlns="http://www.w3.org/2000/svg" viewBox="0 0 474.14 71.05"><defs><style>.cls-1{fill:#fff;}.cls-2{fill:none;stroke:#3c1c56;stroke-linejoin:round;stroke-width:12px;}</style></defs><title>tc</title><g id="Layer_2" data-name="Layer 2"><g id="pizarra"><path class="cls-1" d="M33.74,64.88a26.68,26.68,0,0,1-10.92-2.25A27.23,27.23,0,0,1,14,56.39,28.47,28.47,0,0,1,8.07,47,32,32,0,0,1,6,35.42,27.42,27.42,0,0,1,23.21,9.63,30.54,30.54,0,0,1,34.42,7.44a32.57,32.57,0,0,1,5.4.48,34.71,34.71,0,0,1,5.56,1.45,20.27,20.27,0,0,1,4.71,2.32,29.65,29.65,0,0,1,2.84,2.24,3.54,3.54,0,0,1,1.24,2.72,3.84,3.84,0,0,1-.32,1.84,13.51,13.51,0,0,1-1.12,2.08,11,11,0,0,1-2.52,2.6,4.35,4.35,0,0,1-2.44.84,3.43,3.43,0,0,1-1.56-.44c-.56-.29-1.35-.74-2.36-1.32a8.38,8.38,0,0,0-2.24-1.12,27.71,27.71,0,0,0-3.48-1,18.59,18.59,0,0,0-4-.44,16.26,16.26,0,0,0-8.16,2,14.6,14.6,0,0,0-5.64,5.63,17,17,0,0,0-2.13,8.32,18.29,18.29,0,0,0,2.15,8.6,16,16,0,0,0,5.72,6,15.09,15.09,0,0,0,8,2.24c1.12,0,2.22-.05,3.32-.16a24,24,0,0,0,3.2-.52A16.32,16.32,0,0,0,43.43,51V41.21H34.88A11.27,11.27,0,0,1,32.44,41a2.76,2.76,0,0,1-1.76-1.32A7.1,7.1,0,0,1,30,36a7,7,0,0,1,.72-3.72A2.93,2.93,0,0,1,32.6,31,12.09,12.09,0,0,1,35,30.72H50.16a6.6,6.6,0,0,1,3.76,1,3.89,3.89,0,0,1,1.44,2.2,12.23,12.23,0,0,1,.32,2.84V54.17a6.18,6.18,0,0,1-1.76,4,16.21,16.21,0,0,1-4.81,3.64,24,24,0,0,1-4.36,1.64,40.79,40.79,0,0,1-5.2,1.07A39.93,39.93,0,0,1,33.74,64.88Z"/><path class="cls-1" d="M70.7,64.26a7.82,7.82,0,0,1-4.2-.84A3.49,3.49,0,0,1,65,61.14a16.06,16.06,0,0,1-.27-3V30.26a15.19,15.19,0,0,1,.28-3,3.39,3.39,0,0,1,1.57-2.2,8,8,0,0,1,4.24-.84,8,8,0,0,1,4,.77,3.3,3.3,0,0,1,1.55,1.76,5.55,5.55,0,0,1,.32,1.72l-1,.48a7.87,7.87,0,0,1,.84-1.16,11.4,11.4,0,0,1,4.81-3.32,11.19,11.19,0,0,1,4-.64,18,18,0,0,1,2,.12,12.17,12.17,0,0,1,2.24.48,9.52,9.52,0,0,1,2.12,1,5.14,5.14,0,0,1,1.55,1.49,3.72,3.72,0,0,1,.6,2.16,9.78,9.78,0,0,1-1.52,5.55,4.5,4.5,0,0,1-3.84,2.28,6.14,6.14,0,0,1-1.92-.2,3.18,3.18,0,0,1-.92-.48,3.41,3.41,0,0,0-.84-.48,5.31,5.31,0,0,0-1.76-.2,8.1,8.1,0,0,0-2.28.32,6.37,6.37,0,0,0-2,1,4.65,4.65,0,0,0-1.44,1.68,4.79,4.79,0,0,0-.52,2.28V58.35a14.68,14.68,0,0,1-.29,2.92,3.24,3.24,0,0,1-1.56,2.19A8.3,8.3,0,0,1,70.7,64.26Z"/><path class="cls-1" d="M132.78,64.22a7.57,7.57,0,0,1-4.4-1A2.89,2.89,0,0,1,127,60.62l.8-1.36a9.1,9.1,0,0,1-1.84,2,13.31,13.31,0,0,1-3.56,2.07,13.85,13.85,0,0,1-5.32.92,16,16,0,0,1-7-1.6,19,19,0,0,1-5.88-4.45,22.77,22.77,0,0,1-4.07-6.44,19.39,19.39,0,0,1-1.52-7.6,18.75,18.75,0,0,1,1.53-7.48,21.42,21.42,0,0,1,4.12-6.32A20.23,20.23,0,0,1,110.16,26a15.66,15.66,0,0,1,7-1.6,13.4,13.4,0,0,1,5,.84,13.63,13.63,0,0,1,3.48,2,10.15,10.15,0,0,1,2.12,2.16L127,28.22a3.35,3.35,0,0,1,1.41-2.92,7.69,7.69,0,0,1,4.43-1,7.37,7.37,0,0,1,4.12.88,3.57,3.57,0,0,1,1.52,2.32,15.69,15.69,0,0,1,.28,3v27.6a16,16,0,0,1-.29,3A3.42,3.42,0,0,1,137,63.38,7.82,7.82,0,0,1,132.78,64.22Zm-14-11.93a7,7,0,0,0,3.84-1.08,8.5,8.5,0,0,0,2.73-11.11,7.81,7.81,0,0,0-2.8-2.85,8,8,0,0,0-8,0,8.25,8.25,0,0,0-2.89,2.92,8.13,8.13,0,0,0-1.08,4.16,7.55,7.55,0,0,0,1.08,4,8.23,8.23,0,0,0,7.08,4Z"/><path class="cls-1" d="M149,25h8.8l11-.32a14.66,14.66,0,0,1,2.88.28A3.54,3.54,0,0,1,174,26.48a7.72,7.72,0,0,1,.88,4.24,7.42,7.42,0,0,1-.84,4,3.71,3.71,0,0,1-2.2,1.64,11.6,11.6,0,0,1-3,.36l-10.48-.25-9.68.08a4,4,0,0,1-3.24-1.48,8.07,8.07,0,0,1-.92-4.44,6.82,6.82,0,0,1,1.12-4.28A4.06,4.06,0,0,1,149,25Zm8.38,39.44a7.3,7.3,0,0,1-4.12-.88,3.58,3.58,0,0,1-1.52-2.28,15.76,15.76,0,0,1-.28-3l0-37.44a16.77,16.77,0,0,1,.88-5.36,13.75,13.75,0,0,1,2.76-4.76,13.49,13.49,0,0,1,4.88-3.39A18.31,18.31,0,0,1,167.29,6a15.31,15.31,0,0,1,2.92.28,3.46,3.46,0,0,1,2.24,1.52,8,8,0,0,1,.84,4.28,7.5,7.5,0,0,1-.88,4.16,3.39,3.39,0,0,1-2.28,1.52,17.35,17.35,0,0,1-2.92.24,10.1,10.1,0,0,0-1.72.12,3.17,3.17,0,0,0-1.08.36,1.44,1.44,0,0,0-.6.8,3.9,3.9,0,0,0-.2,1.36l0,37.84a12.22,12.22,0,0,1-.32,2.88,3.54,3.54,0,0,1-1.6,2.2A8,8,0,0,1,157.42,64.39Z"/><path class="cls-1" d="M200,65a20.21,20.21,0,0,1-7.48-1.48,22.61,22.61,0,0,1-6.76-4.21,20.38,20.38,0,0,1-4.83-6.52,20.55,20.55,0,0,1-.15-16.48,21.69,21.69,0,0,1,11.12-11.11,19.43,19.43,0,0,1,8-1.64,20.05,20.05,0,0,1,10.44,2.77,20.94,20.94,0,0,1,7.48,7.48,20.22,20.22,0,0,1,2.79,10.48,20,20,0,0,1-1.8,8.68,20.63,20.63,0,0,1-4.81,6.52,21,21,0,0,1-6.64,4.11A20.14,20.14,0,0,1,200,65Zm-.15-12.08a9,9,0,0,0,3.92-1,8.74,8.74,0,0,0,3.36-2.88,8.17,8.17,0,0,0,1.36-4.87,8.76,8.76,0,0,0-1.11-4.48,8,8,0,0,0-3.08-3,9.24,9.24,0,0,0-4.52-1.08,8.16,8.16,0,0,0-4.28,1.12,8.65,8.65,0,0,0-4.21,7.51,8.51,8.51,0,0,0,1.32,4.85A8.05,8.05,0,0,0,195.91,52,9.38,9.38,0,0,0,199.83,52.9Z"/><path class="cls-1" d="M232.86,64.36a7.59,7.59,0,0,1-4.16-.88,3.41,3.41,0,0,1-1.52-2.24,17.14,17.14,0,0,1-.24-3l0-28a13.93,13.93,0,0,1,.28-2.88,3.41,3.41,0,0,1,1.56-2.2,8.06,8.06,0,0,1,4.24-.84,6.58,6.58,0,0,1,4.32,1.16,4.74,4.74,0,0,1,1.36,3.8l-1,.88a7,7,0,0,1,1-1.36,15.5,15.5,0,0,1,2.08-2,13.31,13.31,0,0,1,3-1.79,9.07,9.07,0,0,1,3.72-.76,13.94,13.94,0,0,1,4.76.76A12.14,12.14,0,0,1,256,27.29,13.89,13.89,0,0,1,259,31a20.38,20.38,0,0,1,2.72-3.12,14.42,14.42,0,0,1,3.76-2.56,11.17,11.17,0,0,1,4.88-1,13.11,13.11,0,0,1,8,2.37,14.48,14.48,0,0,1,4.92,6.76A29.68,29.68,0,0,1,285,44.07V58.39a13.26,13.26,0,0,1-.32,2.92,3.58,3.58,0,0,1-1.56,2.24,7.82,7.82,0,0,1-4.2.84,7.69,7.69,0,0,1-4.24-.89,3.38,3.38,0,0,1-1.52-2.28,17.18,17.18,0,0,1-.24-2.92V44a12.86,12.86,0,0,0-.59-4.12,5.91,5.91,0,0,0-1.72-2.64,4.42,4.42,0,0,0-2.88-.92,5,5,0,0,0-5.05,3.44,12.46,12.46,0,0,0-.64,4.32V58.38a10.72,10.72,0,0,1-.4,3,3.88,3.88,0,0,1-1.72,2.24,7.82,7.82,0,0,1-4.28.75,6.71,6.71,0,0,1-4-.92,3.62,3.62,0,0,1-1.44-2.32,16.75,16.75,0,0,1-.24-2.84V44a13.89,13.89,0,0,0-.55-4.16,5.4,5.4,0,0,0-1.68-2.64,4.66,4.66,0,0,0-3-.88,5,5,0,0,0-3.28,1,6.13,6.13,0,0,0-1.89,2.76A11.75,11.75,0,0,0,239,44v14.4a14.38,14.38,0,0,1-.28,3,3.41,3.41,0,0,1-1.56,2.2A8,8,0,0,1,232.86,64.36Z"/><path class="cls-1" d="M312,65.05a20.23,20.23,0,0,1-7.48-1.49,22.78,22.78,0,0,1-6.76-4.2,20.2,20.2,0,0,1-4.83-6.52,20.55,20.55,0,0,1-.15-16.48,21.75,21.75,0,0,1,11.12-11.12,19.58,19.58,0,0,1,8-1.63,20.17,20.17,0,0,1,10.44,2.76,21,21,0,0,1,7.48,7.49,20.22,20.22,0,0,1,2.79,10.48,20,20,0,0,1-1.8,8.68A21,21,0,0,1,319.3,63.65,20.35,20.35,0,0,1,312,65.05ZM311.83,53a9,9,0,0,0,3.92-1,8.74,8.74,0,0,0,3.36-2.88,8.2,8.2,0,0,0,1.36-4.88,8.71,8.71,0,0,0-1.12-4.48,7.9,7.9,0,0,0-3.07-3,9.24,9.24,0,0,0-4.52-1.08,8.25,8.25,0,0,0-4.28,1.11,8.74,8.74,0,0,0-3.05,3.08,8.6,8.6,0,0,0-1.16,4.44,8.45,8.45,0,0,0,1.32,4.84A7.91,7.91,0,0,0,307.91,52,9.24,9.24,0,0,0,311.83,53Z"/><path class="cls-1" d="M341.52,25.06h8.8l11-.31a14,14,0,0,1,2.88.28,3.56,3.56,0,0,1,2.24,1.56,7.7,7.7,0,0,1,.88,4.24,7.45,7.45,0,0,1-.84,4,3.75,3.75,0,0,1-2.2,1.64,11.6,11.6,0,0,1-3,.36l-10.48-.25-9.68.07A4,4,0,0,1,338,35.18a8,8,0,0,1-.92-4.44,6.78,6.78,0,0,1,1.12-4.28A4.06,4.06,0,0,1,341.52,25.06Zm18.06,39.38a25.07,25.07,0,0,1-7-.89,10.71,10.71,0,0,1-7.64-7.4,22.21,22.21,0,0,1-.91-6.76L344,17a13.72,13.72,0,0,1,.28-3,3.38,3.38,0,0,1,1.56-2.12,7.83,7.83,0,0,1,4.16-.84,7.59,7.59,0,0,1,4.16.88,3.59,3.59,0,0,1,1.56,2.28,14.68,14.68,0,0,1,.28,2.92l0,31.76a9,9,0,0,0,.2,2.12,2.48,2.48,0,0,0,.6,1.24,2.12,2.12,0,0,0,1.12.56,7.94,7.94,0,0,0,1.76.17,13.37,13.37,0,0,1,3.12.32,3.41,3.41,0,0,1,2.12,1.44,7,7,0,0,1,.75,3.76,7.5,7.5,0,0,1-.88,4.16,3.42,3.42,0,0,1-2.28,1.52A17.26,17.26,0,0,1,359.58,64.44Z"/><path class="cls-1" d="M379.5,64.45a7.82,7.82,0,0,1-4.2-.84,3.5,3.5,0,0,1-1.52-2.29,15.16,15.16,0,0,1-.28-3l0-27.92a14.52,14.52,0,0,1,.28-3,3.39,3.39,0,0,1,1.56-2.19,11.12,11.12,0,0,1,8.28-.08A3.31,3.31,0,0,1,385.2,27a5.92,5.92,0,0,1,.32,1.72l-1,.48A9.14,9.14,0,0,1,385.4,28a11.11,11.11,0,0,1,8.76-4,17.84,17.84,0,0,1,2,.12,12,12,0,0,1,2.24.48,9.09,9.09,0,0,1,2.12,1A5.14,5.14,0,0,1,402,27.1a3.76,3.76,0,0,1,.6,2.16,9.82,9.82,0,0,1-1.52,5.56,4.51,4.51,0,0,1-3.84,2.28,6.47,6.47,0,0,1-1.92-.2,3.58,3.58,0,0,1-.92-.48,3.41,3.41,0,0,0-.84-.48,5.24,5.24,0,0,0-1.76-.21,8.1,8.1,0,0,0-2.28.32,6.75,6.75,0,0,0-2,1,5,5,0,0,0-1.44,1.68,5,5,0,0,0-.52,2.28V58.53a14.61,14.61,0,0,1-.28,2.92,3.29,3.29,0,0,1-1.56,2.2A8.43,8.43,0,0,1,379.5,64.45Z"/><path class="cls-1" d="M415.37,18.71a8,8,0,0,1-4.33-.88,3.54,3.54,0,0,1-1.55-2.32,15.77,15.77,0,0,1-.28-3,15.46,15.46,0,0,1,.28-3.08,3.37,3.37,0,0,1,1.6-2.24,8.46,8.46,0,0,1,4.36-.84,7.7,7.7,0,0,1,4.24.88,3.6,3.6,0,0,1,1.56,2.32,16.63,16.63,0,0,1,0,6.08,3.45,3.45,0,0,1-1.56,2.28A8.27,8.27,0,0,1,415.37,18.71Zm0,45.76a8,8,0,0,1-4.24-.84,3.28,3.28,0,0,1-1.52-2.24,17.35,17.35,0,0,1-.24-2.92l0-27.93a14.51,14.51,0,0,1,.28-2.91,3.41,3.41,0,0,1,1.56-2.24,8,8,0,0,1,4.24-.84,7.3,7.3,0,0,1,4.12.88,3.6,3.6,0,0,1,1.52,2.28,15.13,15.13,0,0,1,.28,3l0,27.84a14.54,14.54,0,0,1-.28,2.92,3.31,3.31,0,0,1-1.52,2.2A8.18,8.18,0,0,1,415.34,64.47Z"/><path class="cls-1" d="M434.3,64.48a5.68,5.68,0,0,1-4.2-1.72,5.81,5.81,0,0,1-1.72-4.28,6.33,6.33,0,0,1,.44-2.32,5.86,5.86,0,0,1,1.32-2l18.17-17.59H436.15a13.33,13.33,0,0,1-2.92-.32,3.92,3.92,0,0,1-2.32-1.56,7.3,7.3,0,0,1-.91-4.2,7.21,7.21,0,0,1,.92-4.2,3.74,3.74,0,0,1,2.32-1.52,14.61,14.61,0,0,1,2.92-.28l25,0a5.75,5.75,0,0,1,5.92,5.92,6.9,6.9,0,0,1-.44,2.44,4.78,4.78,0,0,1-1.25,1.88L447.66,52.41h14.48a13,13,0,0,1,3,.32,3.54,3.54,0,0,1,2.2,1.6,8,8,0,0,1,.84,4.24,7.59,7.59,0,0,1-.88,4.16A3.41,3.41,0,0,1,465,64.26a17.14,17.14,0,0,1-3,.24Z"/><path class="cls-2" d="M33.74,64.88a26.68,26.68,0,0,1-10.92-2.25A27.23,27.23,0,0,1,14,56.39,28.47,28.47,0,0,1,8.07,47,32,32,0,0,1,6,35.42,27.42,27.42,0,0,1,23.21,9.63,30.54,30.54,0,0,1,34.42,7.44a32.57,32.57,0,0,1,5.4.48,34.71,34.71,0,0,1,5.56,1.45,20.27,20.27,0,0,1,4.71,2.32,29.65,29.65,0,0,1,2.84,2.24,3.54,3.54,0,0,1,1.24,2.72,3.84,3.84,0,0,1-.32,1.84,13.51,13.51,0,0,1-1.12,2.08,11,11,0,0,1-2.52,2.6,4.35,4.35,0,0,1-2.44.84,3.43,3.43,0,0,1-1.56-.44c-.56-.29-1.35-.74-2.36-1.32a8.38,8.38,0,0,0-2.24-1.12,27.71,27.71,0,0,0-3.48-1,18.59,18.59,0,0,0-4-.44,16.26,16.26,0,0,0-8.16,2,14.6,14.6,0,0,0-5.64,5.63,17,17,0,0,0-2.13,8.32,18.29,18.29,0,0,0,2.15,8.6,16,16,0,0,0,5.72,6,15.09,15.09,0,0,0,8,2.24c1.12,0,2.22-.05,3.32-.16a24,24,0,0,0,3.2-.52A16.32,16.32,0,0,0,43.43,51V41.21H34.88A11.27,11.27,0,0,1,32.44,41a2.76,2.76,0,0,1-1.76-1.32A7.1,7.1,0,0,1,30,36a7,7,0,0,1,.72-3.72A2.93,2.93,0,0,1,32.6,31,12.09,12.09,0,0,1,35,30.72H50.16a6.6,6.6,0,0,1,3.76,1,3.89,3.89,0,0,1,1.44,2.2,12.23,12.23,0,0,1,.32,2.84V54.17a6.18,6.18,0,0,1-1.76,4,16.21,16.21,0,0,1-4.81,3.64,24,24,0,0,1-4.36,1.64,40.79,40.79,0,0,1-5.2,1.07A39.93,39.93,0,0,1,33.74,64.88Z"/><path class="cls-2" d="M70.7,64.26a7.82,7.82,0,0,1-4.2-.84A3.49,3.49,0,0,1,65,61.14a16.06,16.06,0,0,1-.27-3V30.26a15.19,15.19,0,0,1,.28-3,3.39,3.39,0,0,1,1.57-2.2,8,8,0,0,1,4.24-.84,8,8,0,0,1,4,.77,3.3,3.3,0,0,1,1.55,1.76,5.55,5.55,0,0,1,.32,1.72l-1,.48a7.87,7.87,0,0,1,.84-1.16,11.4,11.4,0,0,1,4.81-3.32,11.19,11.19,0,0,1,4-.64,18,18,0,0,1,2,.12,12.17,12.17,0,0,1,2.24.48,9.52,9.52,0,0,1,2.12,1,5.14,5.14,0,0,1,1.55,1.49,3.72,3.72,0,0,1,.6,2.16,9.78,9.78,0,0,1-1.52,5.55,4.5,4.5,0,0,1-3.84,2.28,6.14,6.14,0,0,1-1.92-.2,3.18,3.18,0,0,1-.92-.48,3.41,3.41,0,0,0-.84-.48,5.31,5.31,0,0,0-1.76-.2,8.1,8.1,0,0,0-2.28.32,6.37,6.37,0,0,0-2,1,4.65,4.65,0,0,0-1.44,1.68,4.79,4.79,0,0,0-.52,2.28V58.35a14.68,14.68,0,0,1-.29,2.92,3.24,3.24,0,0,1-1.56,2.19A8.3,8.3,0,0,1,70.7,64.26Z"/><path class="cls-2" d="M132.78,64.22a7.57,7.57,0,0,1-4.4-1A2.89,2.89,0,0,1,127,60.62l.8-1.36a9.1,9.1,0,0,1-1.84,2,13.31,13.31,0,0,1-3.56,2.07,13.85,13.85,0,0,1-5.32.92,16,16,0,0,1-7-1.6,19,19,0,0,1-5.88-4.45,22.77,22.77,0,0,1-4.07-6.44,19.39,19.39,0,0,1-1.52-7.6,18.75,18.75,0,0,1,1.53-7.48,21.42,21.42,0,0,1,4.12-6.32A20.23,20.23,0,0,1,110.16,26a15.66,15.66,0,0,1,7-1.6,13.4,13.4,0,0,1,5,.84,13.63,13.63,0,0,1,3.48,2,10.15,10.15,0,0,1,2.12,2.16L127,28.22a3.35,3.35,0,0,1,1.41-2.92,7.69,7.69,0,0,1,4.43-1,7.37,7.37,0,0,1,4.12.88,3.57,3.57,0,0,1,1.52,2.32,15.69,15.69,0,0,1,.28,3v27.6a16,16,0,0,1-.29,3A3.42,3.42,0,0,1,137,63.38,7.82,7.82,0,0,1,132.78,64.22Zm-14-11.93a7,7,0,0,0,3.84-1.08,8.5,8.5,0,0,0,2.73-11.11,7.81,7.81,0,0,0-2.8-2.85,8,8,0,0,0-8,0,8.25,8.25,0,0,0-2.89,2.92,8.13,8.13,0,0,0-1.08,4.16,7.55,7.55,0,0,0,1.08,4,8.23,8.23,0,0,0,7.08,4Z"/><path class="cls-2" d="M149,25h8.8l11-.32a14.66,14.66,0,0,1,2.88.28A3.54,3.54,0,0,1,174,26.48a7.72,7.72,0,0,1,.88,4.24,7.42,7.42,0,0,1-.84,4,3.71,3.71,0,0,1-2.2,1.64,11.6,11.6,0,0,1-3,.36l-10.48-.25-9.68.08a4,4,0,0,1-3.24-1.48,8.07,8.07,0,0,1-.92-4.44,6.82,6.82,0,0,1,1.12-4.28A4.06,4.06,0,0,1,149,25Zm8.38,39.44a7.3,7.3,0,0,1-4.12-.88,3.58,3.58,0,0,1-1.52-2.28,15.76,15.76,0,0,1-.28-3l0-37.44a16.77,16.77,0,0,1,.88-5.36,13.75,13.75,0,0,1,2.76-4.76,13.49,13.49,0,0,1,4.88-3.39A18.31,18.31,0,0,1,167.29,6a15.31,15.31,0,0,1,2.92.28,3.46,3.46,0,0,1,2.24,1.52,8,8,0,0,1,.84,4.28,7.5,7.5,0,0,1-.88,4.16,3.39,3.39,0,0,1-2.28,1.52,17.35,17.35,0,0,1-2.92.24,10.1,10.1,0,0,0-1.72.12,3.17,3.17,0,0,0-1.08.36,1.44,1.44,0,0,0-.6.8,3.9,3.9,0,0,0-.2,1.36l0,37.84a12.22,12.22,0,0,1-.32,2.88,3.54,3.54,0,0,1-1.6,2.2A8,8,0,0,1,157.42,64.39Z"/><path class="cls-2" d="M200,65a20.21,20.21,0,0,1-7.48-1.48,22.61,22.61,0,0,1-6.76-4.21,20.38,20.38,0,0,1-4.83-6.52,20.55,20.55,0,0,1-.15-16.48,21.69,21.69,0,0,1,11.12-11.11,19.43,19.43,0,0,1,8-1.64,20.05,20.05,0,0,1,10.44,2.77,20.94,20.94,0,0,1,7.48,7.48,20.22,20.22,0,0,1,2.79,10.48,20,20,0,0,1-1.8,8.68,20.63,20.63,0,0,1-4.81,6.52,21,21,0,0,1-6.64,4.11A20.14,20.14,0,0,1,200,65Zm-.15-12.08a9,9,0,0,0,3.92-1,8.74,8.74,0,0,0,3.36-2.88,8.17,8.17,0,0,0,1.36-4.87,8.76,8.76,0,0,0-1.11-4.48,8,8,0,0,0-3.08-3,9.24,9.24,0,0,0-4.52-1.08,8.16,8.16,0,0,0-4.28,1.12,8.65,8.65,0,0,0-4.21,7.51,8.51,8.51,0,0,0,1.32,4.85A8.05,8.05,0,0,0,195.91,52,9.38,9.38,0,0,0,199.83,52.9Z"/><path class="cls-2" d="M232.86,64.36a7.59,7.59,0,0,1-4.16-.88,3.41,3.41,0,0,1-1.52-2.24,17.14,17.14,0,0,1-.24-3l0-28a13.93,13.93,0,0,1,.28-2.88,3.41,3.41,0,0,1,1.56-2.2,8.06,8.06,0,0,1,4.24-.84,6.58,6.58,0,0,1,4.32,1.16,4.74,4.74,0,0,1,1.36,3.8l-1,.88a7,7,0,0,1,1-1.36,15.5,15.5,0,0,1,2.08-2,13.31,13.31,0,0,1,3-1.79,9.07,9.07,0,0,1,3.72-.76,13.94,13.94,0,0,1,4.76.76A12.14,12.14,0,0,1,256,27.29,13.89,13.89,0,0,1,259,31a20.38,20.38,0,0,1,2.72-3.12,14.42,14.42,0,0,1,3.76-2.56,11.17,11.17,0,0,1,4.88-1,13.11,13.11,0,0,1,8,2.37,14.48,14.48,0,0,1,4.92,6.76A29.68,29.68,0,0,1,285,44.07V58.39a13.26,13.26,0,0,1-.32,2.92,3.58,3.58,0,0,1-1.56,2.24,7.82,7.82,0,0,1-4.2.84,7.69,7.69,0,0,1-4.24-.89,3.38,3.38,0,0,1-1.52-2.28,17.18,17.18,0,0,1-.24-2.92V44a12.86,12.86,0,0,0-.59-4.12,5.91,5.91,0,0,0-1.72-2.64,4.42,4.42,0,0,0-2.88-.92,5,5,0,0,0-5.05,3.44,12.46,12.46,0,0,0-.64,4.32V58.38a10.72,10.72,0,0,1-.4,3,3.88,3.88,0,0,1-1.72,2.24,7.82,7.82,0,0,1-4.28.75,6.71,6.71,0,0,1-4-.92,3.62,3.62,0,0,1-1.44-2.32,16.75,16.75,0,0,1-.24-2.84V44a13.89,13.89,0,0,0-.55-4.16,5.4,5.4,0,0,0-1.68-2.64,4.66,4.66,0,0,0-3-.88,5,5,0,0,0-3.28,1,6.13,6.13,0,0,0-1.89,2.76A11.75,11.75,0,0,0,239,44v14.4a14.38,14.38,0,0,1-.28,3,3.41,3.41,0,0,1-1.56,2.2A8,8,0,0,1,232.86,64.36Z"/><path class="cls-2" d="M312,65.05a20.23,20.23,0,0,1-7.48-1.49,22.78,22.78,0,0,1-6.76-4.2,20.2,20.2,0,0,1-4.83-6.52,20.55,20.55,0,0,1-.15-16.48,21.75,21.75,0,0,1,11.12-11.12,19.58,19.58,0,0,1,8-1.63,20.17,20.17,0,0,1,10.44,2.76,21,21,0,0,1,7.48,7.49,20.22,20.22,0,0,1,2.79,10.48,20,20,0,0,1-1.8,8.68A21,21,0,0,1,319.3,63.65,20.35,20.35,0,0,1,312,65.05ZM311.83,53a9,9,0,0,0,3.92-1,8.74,8.74,0,0,0,3.36-2.88,8.2,8.2,0,0,0,1.36-4.88,8.71,8.71,0,0,0-1.12-4.48,7.9,7.9,0,0,0-3.07-3,9.24,9.24,0,0,0-4.52-1.08,8.25,8.25,0,0,0-4.28,1.11,8.74,8.74,0,0,0-3.05,3.08,8.6,8.6,0,0,0-1.16,4.44,8.45,8.45,0,0,0,1.32,4.84A7.91,7.91,0,0,0,307.91,52,9.24,9.24,0,0,0,311.83,53Z"/><path class="cls-2" d="M341.52,25.06h8.8l11-.31a14,14,0,0,1,2.88.28,3.56,3.56,0,0,1,2.24,1.56,7.7,7.7,0,0,1,.88,4.24,7.45,7.45,0,0,1-.84,4,3.75,3.75,0,0,1-2.2,1.64,11.6,11.6,0,0,1-3,.36l-10.48-.25-9.68.07A4,4,0,0,1,338,35.18a8,8,0,0,1-.92-4.44,6.78,6.78,0,0,1,1.12-4.28A4.06,4.06,0,0,1,341.52,25.06Zm18.06,39.38a25.07,25.07,0,0,1-7-.89,10.71,10.71,0,0,1-7.64-7.4,22.21,22.21,0,0,1-.91-6.76L344,17a13.72,13.72,0,0,1,.28-3,3.38,3.38,0,0,1,1.56-2.12,7.83,7.83,0,0,1,4.16-.84,7.59,7.59,0,0,1,4.16.88,3.59,3.59,0,0,1,1.56,2.28,14.68,14.68,0,0,1,.28,2.92l0,31.76a9,9,0,0,0,.2,2.12,2.48,2.48,0,0,0,.6,1.24,2.12,2.12,0,0,0,1.12.56,7.94,7.94,0,0,0,1.76.17,13.37,13.37,0,0,1,3.12.32,3.41,3.41,0,0,1,2.12,1.44,7,7,0,0,1,.75,3.76,7.5,7.5,0,0,1-.88,4.16,3.42,3.42,0,0,1-2.28,1.52A17.26,17.26,0,0,1,359.58,64.44Z"/><path class="cls-2" d="M379.5,64.45a7.82,7.82,0,0,1-4.2-.84,3.5,3.5,0,0,1-1.52-2.29,15.16,15.16,0,0,1-.28-3l0-27.92a14.52,14.52,0,0,1,.28-3,3.39,3.39,0,0,1,1.56-2.19,11.12,11.12,0,0,1,8.28-.08A3.31,3.31,0,0,1,385.2,27a5.92,5.92,0,0,1,.32,1.72l-1,.48A9.14,9.14,0,0,1,385.4,28a11.11,11.11,0,0,1,8.76-4,17.84,17.84,0,0,1,2,.12,12,12,0,0,1,2.24.48,9.09,9.09,0,0,1,2.12,1A5.14,5.14,0,0,1,402,27.1a3.76,3.76,0,0,1,.6,2.16,9.82,9.82,0,0,1-1.52,5.56,4.51,4.51,0,0,1-3.84,2.28,6.47,6.47,0,0,1-1.92-.2,3.58,3.58,0,0,1-.92-.48,3.41,3.41,0,0,0-.84-.48,5.24,5.24,0,0,0-1.76-.21,8.1,8.1,0,0,0-2.28.32,6.75,6.75,0,0,0-2,1,5,5,0,0,0-1.44,1.68,5,5,0,0,0-.52,2.28V58.53a14.61,14.61,0,0,1-.28,2.92,3.29,3.29,0,0,1-1.56,2.2A8.43,8.43,0,0,1,379.5,64.45Z"/><path class="cls-2" d="M415.37,18.71a8,8,0,0,1-4.33-.88,3.54,3.54,0,0,1-1.55-2.32,15.77,15.77,0,0,1-.28-3,15.46,15.46,0,0,1,.28-3.08,3.37,3.37,0,0,1,1.6-2.24,8.46,8.46,0,0,1,4.36-.84,7.7,7.7,0,0,1,4.24.88,3.6,3.6,0,0,1,1.56,2.32,16.63,16.63,0,0,1,0,6.08,3.45,3.45,0,0,1-1.56,2.28A8.27,8.27,0,0,1,415.37,18.71Zm0,45.76a8,8,0,0,1-4.24-.84,3.28,3.28,0,0,1-1.52-2.24,17.35,17.35,0,0,1-.24-2.92l0-27.93a14.51,14.51,0,0,1,.28-2.91,3.41,3.41,0,0,1,1.56-2.24,8,8,0,0,1,4.24-.84,7.3,7.3,0,0,1,4.12.88,3.6,3.6,0,0,1,1.52,2.28,15.13,15.13,0,0,1,.28,3l0,27.84a14.54,14.54,0,0,1-.28,2.92,3.31,3.31,0,0,1-1.52,2.2A8.18,8.18,0,0,1,415.34,64.47Z"/><path class="cls-2" d="M434.3,64.48a5.68,5.68,0,0,1-4.2-1.72,5.81,5.81,0,0,1-1.72-4.28,6.33,6.33,0,0,1,.44-2.32,5.86,5.86,0,0,1,1.32-2l18.17-17.59H436.15a13.33,13.33,0,0,1-2.92-.32,3.92,3.92,0,0,1-2.32-1.56,7.3,7.3,0,0,1-.91-4.2,7.21,7.21,0,0,1,.92-4.2,3.74,3.74,0,0,1,2.32-1.52,14.61,14.61,0,0,1,2.92-.28l25,0a5.75,5.75,0,0,1,5.92,5.92,6.9,6.9,0,0,1-.44,2.44,4.78,4.78,0,0,1-1.25,1.88L447.66,52.41h14.48a13,13,0,0,1,3,.32,3.54,3.54,0,0,1,2.2,1.6,8,8,0,0,1,.84,4.24,7.59,7.59,0,0,1-.88,4.16A3.41,3.41,0,0,1,465,64.26a17.14,17.14,0,0,1-3,.24Z"/><path class="cls-1" d="M33.74,64.88a26.68,26.68,0,0,1-10.92-2.25A27.23,27.23,0,0,1,14,56.39,28.47,28.47,0,0,1,8.07,47,32,32,0,0,1,6,35.42,27.42,27.42,0,0,1,23.21,9.63,30.54,30.54,0,0,1,34.42,7.44a32.57,32.57,0,0,1,5.4.48,34.71,34.71,0,0,1,5.56,1.45,20.27,20.27,0,0,1,4.71,2.32,29.65,29.65,0,0,1,2.84,2.24,3.54,3.54,0,0,1,1.24,2.72,3.84,3.84,0,0,1-.32,1.84,13.51,13.51,0,0,1-1.12,2.08,11,11,0,0,1-2.52,2.6,4.35,4.35,0,0,1-2.44.84,3.43,3.43,0,0,1-1.56-.44c-.56-.29-1.35-.74-2.36-1.32a8.38,8.38,0,0,0-2.24-1.12,27.71,27.71,0,0,0-3.48-1,18.59,18.59,0,0,0-4-.44,16.26,16.26,0,0,0-8.16,2,14.6,14.6,0,0,0-5.64,5.63,17,17,0,0,0-2.13,8.32,18.29,18.29,0,0,0,2.15,8.6,16,16,0,0,0,5.72,6,15.09,15.09,0,0,0,8,2.24c1.12,0,2.22-.05,3.32-.16a24,24,0,0,0,3.2-.52A16.32,16.32,0,0,0,43.43,51V41.21H34.88A11.27,11.27,0,0,1,32.44,41a2.76,2.76,0,0,1-1.76-1.32A7.1,7.1,0,0,1,30,36a7,7,0,0,1,.72-3.72A2.93,2.93,0,0,1,32.6,31,12.09,12.09,0,0,1,35,30.72H50.16a6.6,6.6,0,0,1,3.76,1,3.89,3.89,0,0,1,1.44,2.2,12.23,12.23,0,0,1,.32,2.84V54.17a6.18,6.18,0,0,1-1.76,4,16.21,16.21,0,0,1-4.81,3.64,24,24,0,0,1-4.36,1.64,40.79,40.79,0,0,1-5.2,1.07A39.93,39.93,0,0,1,33.74,64.88Z"/><path class="cls-1" d="M70.7,64.26a7.82,7.82,0,0,1-4.2-.84A3.49,3.49,0,0,1,65,61.14a16.06,16.06,0,0,1-.27-3V30.26a15.19,15.19,0,0,1,.28-3,3.39,3.39,0,0,1,1.57-2.2,8,8,0,0,1,4.24-.84,8,8,0,0,1,4,.77,3.3,3.3,0,0,1,1.55,1.76,5.55,5.55,0,0,1,.32,1.72l-1,.48a7.87,7.87,0,0,1,.84-1.16,11.4,11.4,0,0,1,4.81-3.32,11.19,11.19,0,0,1,4-.64,18,18,0,0,1,2,.12,12.17,12.17,0,0,1,2.24.48,9.52,9.52,0,0,1,2.12,1,5.14,5.14,0,0,1,1.55,1.49,3.72,3.72,0,0,1,.6,2.16,9.78,9.78,0,0,1-1.52,5.55,4.5,4.5,0,0,1-3.84,2.28,6.14,6.14,0,0,1-1.92-.2,3.18,3.18,0,0,1-.92-.48,3.41,3.41,0,0,0-.84-.48,5.31,5.31,0,0,0-1.76-.2,8.1,8.1,0,0,0-2.28.32,6.37,6.37,0,0,0-2,1,4.65,4.65,0,0,0-1.44,1.68,4.79,4.79,0,0,0-.52,2.28V58.35a14.68,14.68,0,0,1-.29,2.92,3.24,3.24,0,0,1-1.56,2.19A8.3,8.3,0,0,1,70.7,64.26Z"/><path class="cls-1" d="M132.78,64.22a7.57,7.57,0,0,1-4.4-1A2.89,2.89,0,0,1,127,60.62l.8-1.36a9.1,9.1,0,0,1-1.84,2,13.31,13.31,0,0,1-3.56,2.07,13.85,13.85,0,0,1-5.32.92,16,16,0,0,1-7-1.6,19,19,0,0,1-5.88-4.45,22.77,22.77,0,0,1-4.07-6.44,19.39,19.39,0,0,1-1.52-7.6,18.75,18.75,0,0,1,1.53-7.48,21.42,21.42,0,0,1,4.12-6.32A20.23,20.23,0,0,1,110.16,26a15.66,15.66,0,0,1,7-1.6,13.4,13.4,0,0,1,5,.84,13.63,13.63,0,0,1,3.48,2,10.15,10.15,0,0,1,2.12,2.16L127,28.22a3.35,3.35,0,0,1,1.41-2.92,7.69,7.69,0,0,1,4.43-1,7.37,7.37,0,0,1,4.12.88,3.57,3.57,0,0,1,1.52,2.32,15.69,15.69,0,0,1,.28,3v27.6a16,16,0,0,1-.29,3A3.42,3.42,0,0,1,137,63.38,7.82,7.82,0,0,1,132.78,64.22Zm-14-11.93a7,7,0,0,0,3.84-1.08,8.5,8.5,0,0,0,2.73-11.11,7.81,7.81,0,0,0-2.8-2.85,8,8,0,0,0-8,0,8.25,8.25,0,0,0-2.89,2.92,8.13,8.13,0,0,0-1.08,4.16,7.55,7.55,0,0,0,1.08,4,8.23,8.23,0,0,0,7.08,4Z"/><path class="cls-1" d="M149,25h8.8l11-.32a14.66,14.66,0,0,1,2.88.28A3.54,3.54,0,0,1,174,26.48a7.72,7.72,0,0,1,.88,4.24,7.42,7.42,0,0,1-.84,4,3.71,3.71,0,0,1-2.2,1.64,11.6,11.6,0,0,1-3,.36l-10.48-.25-9.68.08a4,4,0,0,1-3.24-1.48,8.07,8.07,0,0,1-.92-4.44,6.82,6.82,0,0,1,1.12-4.28A4.06,4.06,0,0,1,149,25Zm8.38,39.44a7.3,7.3,0,0,1-4.12-.88,3.58,3.58,0,0,1-1.52-2.28,15.76,15.76,0,0,1-.28-3l0-37.44a16.77,16.77,0,0,1,.88-5.36,13.75,13.75,0,0,1,2.76-4.76,13.49,13.49,0,0,1,4.88-3.39A18.31,18.31,0,0,1,167.29,6a15.31,15.31,0,0,1,2.92.28,3.46,3.46,0,0,1,2.24,1.52,8,8,0,0,1,.84,4.28,7.5,7.5,0,0,1-.88,4.16,3.39,3.39,0,0,1-2.28,1.52,17.35,17.35,0,0,1-2.92.24,10.1,10.1,0,0,0-1.72.12,3.17,3.17,0,0,0-1.08.36,1.44,1.44,0,0,0-.6.8,3.9,3.9,0,0,0-.2,1.36l0,37.84a12.22,12.22,0,0,1-.32,2.88,3.54,3.54,0,0,1-1.6,2.2A8,8,0,0,1,157.42,64.39Z"/><path class="cls-1" d="M200,65a20.21,20.21,0,0,1-7.48-1.48,22.61,22.61,0,0,1-6.76-4.21,20.38,20.38,0,0,1-4.83-6.52,20.55,20.55,0,0,1-.15-16.48,21.69,21.69,0,0,1,11.12-11.11,19.43,19.43,0,0,1,8-1.64,20.05,20.05,0,0,1,10.44,2.77,20.94,20.94,0,0,1,7.48,7.48,20.22,20.22,0,0,1,2.79,10.48,20,20,0,0,1-1.8,8.68,20.63,20.63,0,0,1-4.81,6.52,21,21,0,0,1-6.64,4.11A20.14,20.14,0,0,1,200,65Zm-.15-12.08a9,9,0,0,0,3.92-1,8.74,8.74,0,0,0,3.36-2.88,8.17,8.17,0,0,0,1.36-4.87,8.76,8.76,0,0,0-1.11-4.48,8,8,0,0,0-3.08-3,9.24,9.24,0,0,0-4.52-1.08,8.16,8.16,0,0,0-4.28,1.12,8.65,8.65,0,0,0-4.21,7.51,8.51,8.51,0,0,0,1.32,4.85A8.05,8.05,0,0,0,195.91,52,9.38,9.38,0,0,0,199.83,52.9Z"/><path class="cls-1" d="M232.86,64.36a7.59,7.59,0,0,1-4.16-.88,3.41,3.41,0,0,1-1.52-2.24,17.14,17.14,0,0,1-.24-3l0-28a13.93,13.93,0,0,1,.28-2.88,3.41,3.41,0,0,1,1.56-2.2,8.06,8.06,0,0,1,4.24-.84,6.58,6.58,0,0,1,4.32,1.16,4.74,4.74,0,0,1,1.36,3.8l-1,.88a7,7,0,0,1,1-1.36,15.5,15.5,0,0,1,2.08-2,13.31,13.31,0,0,1,3-1.79,9.07,9.07,0,0,1,3.72-.76,13.94,13.94,0,0,1,4.76.76A12.14,12.14,0,0,1,256,27.29,13.89,13.89,0,0,1,259,31a20.38,20.38,0,0,1,2.72-3.12,14.42,14.42,0,0,1,3.76-2.56,11.17,11.17,0,0,1,4.88-1,13.11,13.11,0,0,1,8,2.37,14.48,14.48,0,0,1,4.92,6.76A29.68,29.68,0,0,1,285,44.07V58.39a13.26,13.26,0,0,1-.32,2.92,3.58,3.58,0,0,1-1.56,2.24,7.82,7.82,0,0,1-4.2.84,7.69,7.69,0,0,1-4.24-.89,3.38,3.38,0,0,1-1.52-2.28,17.18,17.18,0,0,1-.24-2.92V44a12.86,12.86,0,0,0-.59-4.12,5.91,5.91,0,0,0-1.72-2.64,4.42,4.42,0,0,0-2.88-.92,5,5,0,0,0-5.05,3.44,12.46,12.46,0,0,0-.64,4.32V58.38a10.72,10.72,0,0,1-.4,3,3.88,3.88,0,0,1-1.72,2.24,7.82,7.82,0,0,1-4.28.75,6.71,6.71,0,0,1-4-.92,3.62,3.62,0,0,1-1.44-2.32,16.75,16.75,0,0,1-.24-2.84V44a13.89,13.89,0,0,0-.55-4.16,5.4,5.4,0,0,0-1.68-2.64,4.66,4.66,0,0,0-3-.88,5,5,0,0,0-3.28,1,6.13,6.13,0,0,0-1.89,2.76A11.75,11.75,0,0,0,239,44v14.4a14.38,14.38,0,0,1-.28,3,3.41,3.41,0,0,1-1.56,2.2A8,8,0,0,1,232.86,64.36Z"/><path class="cls-1" d="M312,65.05a20.23,20.23,0,0,1-7.48-1.49,22.78,22.78,0,0,1-6.76-4.2,20.2,20.2,0,0,1-4.83-6.52,20.55,20.55,0,0,1-.15-16.48,21.75,21.75,0,0,1,11.12-11.12,19.58,19.58,0,0,1,8-1.63,20.17,20.17,0,0,1,10.44,2.76,21,21,0,0,1,7.48,7.49,20.22,20.22,0,0,1,2.79,10.48,20,20,0,0,1-1.8,8.68A21,21,0,0,1,319.3,63.65,20.35,20.35,0,0,1,312,65.05ZM311.83,53a9,9,0,0,0,3.92-1,8.74,8.74,0,0,0,3.36-2.88,8.2,8.2,0,0,0,1.36-4.88,8.71,8.71,0,0,0-1.12-4.48,7.9,7.9,0,0,0-3.07-3,9.24,9.24,0,0,0-4.52-1.08,8.25,8.25,0,0,0-4.28,1.11,8.74,8.74,0,0,0-3.05,3.08,8.6,8.6,0,0,0-1.16,4.44,8.45,8.45,0,0,0,1.32,4.84A7.91,7.91,0,0,0,307.91,52,9.24,9.24,0,0,0,311.83,53Z"/><path class="cls-1" d="M341.52,25.06h8.8l11-.31a14,14,0,0,1,2.88.28,3.56,3.56,0,0,1,2.24,1.56,7.7,7.7,0,0,1,.88,4.24,7.45,7.45,0,0,1-.84,4,3.75,3.75,0,0,1-2.2,1.64,11.6,11.6,0,0,1-3,.36l-10.48-.25-9.68.07A4,4,0,0,1,338,35.18a8,8,0,0,1-.92-4.44,6.78,6.78,0,0,1,1.12-4.28A4.06,4.06,0,0,1,341.52,25.06Zm18.06,39.38a25.07,25.07,0,0,1-7-.89,10.71,10.71,0,0,1-7.64-7.4,22.21,22.21,0,0,1-.91-6.76L344,17a13.72,13.72,0,0,1,.28-3,3.38,3.38,0,0,1,1.56-2.12,7.83,7.83,0,0,1,4.16-.84,7.59,7.59,0,0,1,4.16.88,3.59,3.59,0,0,1,1.56,2.28,14.68,14.68,0,0,1,.28,2.92l0,31.76a9,9,0,0,0,.2,2.12,2.48,2.48,0,0,0,.6,1.24,2.12,2.12,0,0,0,1.12.56,7.94,7.94,0,0,0,1.76.17,13.37,13.37,0,0,1,3.12.32,3.41,3.41,0,0,1,2.12,1.44,7,7,0,0,1,.75,3.76,7.5,7.5,0,0,1-.88,4.16,3.42,3.42,0,0,1-2.28,1.52A17.26,17.26,0,0,1,359.58,64.44Z"/><path class="cls-1" d="M379.5,64.45a7.82,7.82,0,0,1-4.2-.84,3.5,3.5,0,0,1-1.52-2.29,15.16,15.16,0,0,1-.28-3l0-27.92a14.52,14.52,0,0,1,.28-3,3.39,3.39,0,0,1,1.56-2.19,11.12,11.12,0,0,1,8.28-.08A3.31,3.31,0,0,1,385.2,27a5.92,5.92,0,0,1,.32,1.72l-1,.48A9.14,9.14,0,0,1,385.4,28a11.11,11.11,0,0,1,8.76-4,17.84,17.84,0,0,1,2,.12,12,12,0,0,1,2.24.48,9.09,9.09,0,0,1,2.12,1A5.14,5.14,0,0,1,402,27.1a3.76,3.76,0,0,1,.6,2.16,9.82,9.82,0,0,1-1.52,5.56,4.51,4.51,0,0,1-3.84,2.28,6.47,6.47,0,0,1-1.92-.2,3.58,3.58,0,0,1-.92-.48,3.41,3.41,0,0,0-.84-.48,5.24,5.24,0,0,0-1.76-.21,8.1,8.1,0,0,0-2.28.32,6.75,6.75,0,0,0-2,1,5,5,0,0,0-1.44,1.68,5,5,0,0,0-.52,2.28V58.53a14.61,14.61,0,0,1-.28,2.92,3.29,3.29,0,0,1-1.56,2.2A8.43,8.43,0,0,1,379.5,64.45Z"/><path class="cls-1" d="M415.37,18.71a8,8,0,0,1-4.33-.88,3.54,3.54,0,0,1-1.55-2.32,15.77,15.77,0,0,1-.28-3,15.46,15.46,0,0,1,.28-3.08,3.37,3.37,0,0,1,1.6-2.24,8.46,8.46,0,0,1,4.36-.84,7.7,7.7,0,0,1,4.24.88,3.6,3.6,0,0,1,1.56,2.32,16.63,16.63,0,0,1,0,6.08,3.45,3.45,0,0,1-1.56,2.28A8.27,8.27,0,0,1,415.37,18.71Zm0,45.76a8,8,0,0,1-4.24-.84,3.28,3.28,0,0,1-1.52-2.24,17.35,17.35,0,0,1-.24-2.92l0-27.93a14.51,14.51,0,0,1,.28-2.91,3.41,3.41,0,0,1,1.56-2.24,8,8,0,0,1,4.24-.84,7.3,7.3,0,0,1,4.12.88,3.6,3.6,0,0,1,1.52,2.28,15.13,15.13,0,0,1,.28,3l0,27.84a14.54,14.54,0,0,1-.28,2.92,3.31,3.31,0,0,1-1.52,2.2A8.18,8.18,0,0,1,415.34,64.47Z"/><path class="cls-1" d="M434.3,64.48a5.68,5.68,0,0,1-4.2-1.72,5.81,5.81,0,0,1-1.72-4.28,6.33,6.33,0,0,1,.44-2.32,5.86,5.86,0,0,1,1.32-2l18.17-17.59H436.15a13.33,13.33,0,0,1-2.92-.32,3.92,3.92,0,0,1-2.32-1.56,7.3,7.3,0,0,1-.91-4.2,7.21,7.21,0,0,1,.92-4.2,3.74,3.74,0,0,1,2.32-1.52,14.61,14.61,0,0,1,2.92-.28l25,0a5.75,5.75,0,0,1,5.92,5.92,6.9,6.9,0,0,1-.44,2.44,4.78,4.78,0,0,1-1.25,1.88L447.66,52.41h14.48a13,13,0,0,1,3,.32,3.54,3.54,0,0,1,2.2,1.6,8,8,0,0,1,.84,4.24,7.59,7.59,0,0,1-.88,4.16A3.41,3.41,0,0,1,465,64.26a17.14,17.14,0,0,1-3,.24Z"/></g></g></svg>